<svg xmlns="http://www.w3.org/2000/svg" viewBox="0 0 361.25 123.75" height="123.75" width="361.25"><defs><clipPath id="a"><path d="M0 0h426v142H0V0z"/></clipPath><clipPath id="b"><path d="M0 0h4251.97v1417.32H0V0z"/></clipPath></defs><g clip-path="url(#a)" transform="matrix(1.25 0 0 -1.25 -85 150)"><g clip-path="url(#b)" transform="scale(.1)"><path d="M2029.52 318.891h779.531v779.531H2029.52V318.891z" fill="#f57c14"/><path d="M3123.61 514.59h34.72l-126 383.598h-42l-126-383.598h33.6l33.04 103.598h159.6l33.04-103.598zm-113.12 353.918h1.12l70-222.32h-141.68l70.56 222.32zm449.12-2.238c-28 25.199-57.68 38.078-106.4 38.078-81.2 0-158.48-66.641-158.48-197.68 0-132.719 63.28-198.238 152.32-198.238 45.36 0 85.68 12.316 119.28 31.359v182.559h-114.8l3.92-28h78.4v-137.2c-23.52-12.878-50.96-20.16-85.12-20.16-71.12 0-119.28 52.641-119.28 169.68 0 120.961 60.48 169.121 124.32 169.121 35.84 0 62.16-9.519 85.68-30.242l20.16 20.723" fill="#3f61ab"/><path d="M2465.06 514.59l-31.92 385.84h-72.24l-81.76-281.684h-2.24l-84.56 281.684h-71.68l-31.92-385.84h50.4l15.12 197.68c3.92 49.839 5.04 115.359 5.04 128.238h2.24l89.6-285.039h50.96l86.24 285.039h2.24c0-12.32 1.68-73.918 6.16-128.238l16.8-197.68h51.52zm266 205.519c0 59.918-32.48 96.321-107.52 96.321-29.12 0-62.16-5.602-98.56-19.043l13.44-38.078c30.24 10.64 57.68 15.121 77.28 15.121 43.12 0 63.84-15.684 63.84-57.121v-22.961h-38.08c-89.6 0-138.88-34.16-138.88-95.2 0-54.878 36.4-91.281 95.76-91.281 35.84 0 67.2 13.442 87.92 41.442 8.96-26.321 28-38.082 54.32-41.442l12.32 35.84c-15.12 5.602-21.84 14-21.84 37.52v138.882zm-118.72-173.601c-36.96 0-53.2 18.48-53.2 54.879 0 35.84 21.84 58.801 85.12 58.801h35.28v-72.801c-16.8-25.758-39.2-40.879-67.2-40.879" fill="#fff"/><path d="M1047.16 514.59h56L978.277 900.43h-67.199L785.637 514.59h53.761l29.68 96.879h148.402l29.68-96.879zM942.438 852.27h2.238l59.924-197.68H881.957l60.481 197.68zm580.712-337.68l-31.92 385.84h-72.24l-81.76-281.684h-2.24l-84.56 281.684h-71.68l-31.92-385.84h50.4l15.12 197.68c3.92 49.839 5.04 115.359 5.04 128.238h2.24l89.6-285.039h50.96l86.24 285.039h2.24c0-12.32 1.68-73.918 6.16-128.238l16.8-197.68h51.52zm440.16 0l-31.92 385.84h-72.24l-81.76-281.684h-2.24l-84.56 281.684h-71.68l-31.92-385.84h50.4l15.12 197.68c3.92 49.839 5.04 115.359 5.04 128.238h2.24l89.6-285.039h50.96l86.24 285.039h2.24c0-12.32 1.68-73.918 6.16-128.238l16.8-197.68h51.52" fill="#3f61ab"/></g></g></svg>