<?xml version="1.0" encoding="utf-8"?>
<!-- Generator: Adobe Illustrator 16.0.3, SVG Export Plug-In . SVG Version: 6.00 Build 0)  -->
<!DOCTYPE svg PUBLIC "-//W3C//DTD SVG 1.1//EN" "http://www.w3.org/Graphics/SVG/1.1/DTD/svg11.dtd" [
	<!ENTITY ns_extend "http://ns.adobe.com/Extensibility/1.0/">
	<!ENTITY ns_ai "http://ns.adobe.com/AdobeIllustrator/10.0/">
	<!ENTITY ns_graphs "http://ns.adobe.com/Graphs/1.0/">
	<!ENTITY ns_vars "http://ns.adobe.com/Variables/1.0/">
	<!ENTITY ns_imrep "http://ns.adobe.com/ImageReplacement/1.0/">
	<!ENTITY ns_sfw "http://ns.adobe.com/SaveForWeb/1.0/">
	<!ENTITY ns_custom "http://ns.adobe.com/GenericCustomNamespace/1.0/">
	<!ENTITY ns_adobe_xpath "http://ns.adobe.com/XPath/1.0/">
]>
<svg version="1.1" id="Ebene_1" xmlns:x="&ns_extend;" xmlns:i="&ns_ai;" xmlns:graph="&ns_graphs;"
	 xmlns="http://www.w3.org/2000/svg" xmlns:xlink="http://www.w3.org/1999/xlink" x="0px" y="0px" width="309px" height="309px"
	 viewBox="0 0 309 309" style="enable-background:new 0 0 309 309;" xml:space="preserve">
<style type="text/css">
<![CDATA[
	.st0{fill:#ED7203;}
	.st1{fill:#FFFFFF;}
	.st2{fill:none;}
	.st3{fill:#808A90;stroke:#ED7203;stroke-width:8;stroke-miterlimit:10;}
]]>
</style>
<metadata>
	<sfw  xmlns="&ns_sfw;">
		<slices></slices>
		<sliceSourceBounds  width="308" height="327" y="-23.5" x="-6.7" bottomLeftOrigin="true"></sliceSourceBounds>
	</sfw>
</metadata>
<path class="st3" d="M231.8,305h-156c-39.6,0-72-16.9-72-56.5V65c0-39.6,32.4-60,72-60h156c39.6,0,72,20.9,72,60.5V249
	C303.8,288.6,271.4,305,231.8,305z"/>
<g>
	<rect y="212" class="st2" width="307.7" height="116"/>
	<path class="st1" d="M58.6,214c1.7-0.4,4.8-0.6,7.9-0.6c4,0,6.5,0.5,8.5,1.9c1.8,1.1,3.1,3,3.1,5.5c0,2.7-1.7,5.2-4.9,6.4v0.1
		c3.1,0.8,6,3.3,6,7.3c0,2.6-1.1,4.7-2.9,6.1c-2.1,1.8-5.6,2.8-11,2.8c-3,0-5.3-0.2-6.6-0.4V214z M64,225.7h2.8
		c3.7,0,5.9-1.8,5.9-4.3c0-2.8-2.1-4-5.5-4c-1.6,0-2.5,0.1-3.1,0.2V225.7z M64,239.3c0.7,0.1,1.6,0.1,2.9,0.1c3.5,0,6.6-1.3,6.6-5
		c0-3.4-3-4.8-6.7-4.8H64V239.3z"/>
	<path class="st1" d="M89.5,215.8c0,1.6-1.2,2.9-3.1,2.9c-1.8,0-3-1.3-3-2.9c0-1.7,1.2-2.9,3-2.9C88.3,212.9,89.4,214.2,89.5,215.8z
		 M83.7,243.2v-21.4h5.5v21.4H83.7z"/>
	<path class="st1" d="M95,212h5.5v31.2H95V212z"/>
	<path class="st1" d="M126.1,212v25.2c0,2.2,0.1,4.6,0.2,6h-4.8l-0.2-3.4h-0.1c-1.3,2.4-3.9,3.9-7,3.9c-5.1,0-9.2-4.4-9.2-11
		c0-7.2,4.4-11.4,9.6-11.4c2.9,0,5.1,1.2,6,2.8h0.1V212H126.1z M120.6,230.7c0-0.4,0-1-0.1-1.4c-0.5-2.1-2.2-3.8-4.7-3.8
		c-3.5,0-5.4,3.1-5.4,7.1c0,3.9,1.9,6.8,5.4,6.8c2.2,0,4.1-1.5,4.7-3.8c0.1-0.5,0.2-1,0.2-1.6V230.7z"/>
	<path class="st1" d="M135.7,234c0.1,3.9,3.2,5.5,6.6,5.5c2.5,0,4.3-0.4,5.9-1l0.8,3.7c-1.8,0.7-4.4,1.3-7.5,1.3
		c-7,0-11-4.3-11-10.8c0-5.9,3.6-11.5,10.5-11.5c7,0,9.2,5.7,9.2,10.4c0,1-0.1,1.8-0.2,2.3H135.7z M145.1,230.3c0-2-0.8-5.2-4.4-5.2
		c-3.3,0-4.8,3-5,5.2H145.1z"/>
	<path class="st1" d="M154.6,228.7c0-2.9,0-5-0.2-6.9h4.7l0.2,4.1h0.2c1.1-3,3.6-4.6,5.9-4.6c0.5,0,0.8,0,1.3,0.1v5.1
		c-0.4-0.1-0.9-0.2-1.6-0.2c-2.6,0-4.4,1.7-4.8,4.1c-0.1,0.5-0.2,1.1-0.2,1.7v11.1h-5.4V228.7z"/>
	<path class="st1" d="M198.5,236.8c0,2.6,0.1,4.7,0.2,6.4h-4.8l-0.3-3.3h-0.1c-0.9,1.5-3,3.7-6.9,3.7c-3.9,0-7.5-2.3-7.5-9.3v-12.6
		h5.4v11.7c0,3.6,1.1,5.9,4,5.9c2.2,0,3.6-1.5,4.1-2.9c0.2-0.5,0.3-1.1,0.3-1.7v-12.9h5.4V236.8z"/>
	<path class="st1" d="M204.4,228.2c0-2.5,0-4.5-0.2-6.4h4.8l0.3,3.2h0.1c0.9-1.7,3.3-3.7,6.8-3.7c3.7,0,7.6,2.4,7.6,9.2v12.7h-5.4
		v-12.1c0-3.1-1.1-5.4-4.1-5.4c-2.2,0-3.7,1.5-4.2,3.2c-0.2,0.5-0.2,1.1-0.2,1.8v12.6h-5.5V228.2z"/>
	<path class="st1" d="M249.3,212v25.2c0,2.2,0.1,4.6,0.2,6h-4.8l-0.2-3.4h-0.1c-1.3,2.4-3.9,3.9-7,3.9c-5.1,0-9.2-4.4-9.2-11
		c0-7.2,4.4-11.4,9.6-11.4c2.9,0,5.1,1.2,6,2.8h0.1V212H249.3z M243.9,230.7c0-0.4,0-1-0.1-1.4c-0.5-2.1-2.2-3.8-4.7-3.8
		c-3.5,0-5.4,3.1-5.4,7.1c0,3.9,1.9,6.8,5.4,6.8c2.2,0,4.1-1.5,4.7-3.8c0.1-0.5,0.2-1,0.2-1.6V230.7z"/>
	<path class="st1" d="M65.1,283.2l-9.6-29.7h5.9l4,13.5c1.1,3.7,2.1,7.2,2.9,10.8h0.1c0.8-3.5,1.8-7.1,3-10.7l4.3-13.6h5.8
		l-10.3,29.7H65.1z"/>
	<path class="st1" d="M90.3,255.8c0,1.6-1.2,2.9-3.1,2.9c-1.8,0-3-1.3-3-2.9c0-1.7,1.2-2.9,3-2.9C89.2,252.9,90.3,254.2,90.3,255.8z
		 M84.6,283.2v-21.4H90v21.4H84.6z"/>
	<path class="st1" d="M115.6,252v25.2c0,2.2,0.1,4.6,0.2,6h-4.8l-0.2-3.4h-0.1c-1.3,2.4-3.9,3.9-7,3.9c-5.1,0-9.2-4.4-9.2-11
		c0-7.2,4.4-11.4,9.6-11.4c2.9,0,5.1,1.2,6,2.8h0.1V252H115.6z M110.2,270.7c0-0.4,0-1-0.1-1.4c-0.5-2.1-2.2-3.8-4.7-3.8
		c-3.5,0-5.4,3.1-5.4,7.1c0,3.9,1.9,6.8,5.4,6.8c2.2,0,4.1-1.5,4.7-3.8c0.1-0.5,0.2-1,0.2-1.6V270.7z"/>
	<path class="st1" d="M125.2,274c0.1,3.9,3.2,5.5,6.6,5.5c2.5,0,4.3-0.4,5.9-1l0.8,3.7c-1.8,0.7-4.4,1.3-7.5,1.3
		c-7,0-11-4.3-11-10.8c0-5.9,3.6-11.5,10.5-11.5c7,0,9.2,5.7,9.2,10.4c0,1-0.1,1.8-0.2,2.3H125.2z M134.7,270.3c0-2-0.8-5.2-4.4-5.2
		c-3.3,0-4.8,3-5,5.2H134.7z"/>
	<path class="st1" d="M164.5,272.3c0,7.9-5.5,11.4-11,11.4c-6.1,0-10.7-4.2-10.7-11c0-7,4.6-11.4,11.1-11.4
		C160.2,261.3,164.5,265.8,164.5,272.3z M148.3,272.5c0,4.1,2,7.3,5.3,7.3c3.1,0,5.2-3,5.2-7.3c0-3.3-1.5-7.2-5.2-7.2
		C149.9,265.3,148.3,269,148.3,272.5z"/>
	<path class="st1" d="M184.7,282.6c-1.1,0.5-3.4,1.1-6.1,1.1c-6.7,0-11-4.3-11-10.9c0-6.4,4.4-11.4,11.9-11.4c2,0,4,0.4,5.2,1l-1,4
		c-0.9-0.4-2.2-0.8-4.1-0.8c-4.1,0-6.6,3-6.6,7c0,4.4,2.9,6.9,6.6,6.9c1.9,0,3.2-0.4,4.3-0.8L184.7,282.6z"/>
	<path class="st1" d="M188.7,252h5.5v31.2h-5.5V252z"/>
	<path class="st1" d="M205.8,255.8c0,1.6-1.2,2.9-3.1,2.9c-1.8,0-3-1.3-3-2.9c0-1.7,1.2-2.9,3-2.9
		C204.6,252.9,205.7,254.2,205.8,255.8z M200,283.2v-21.4h5.5v21.4H200z"/>
	<path class="st1" d="M211.3,268.9c0-2.8-0.1-5.1-0.2-7.1h4.8l0.3,3.3h0.1c1.6-2.4,4.1-3.8,7.3-3.8c4.9,0,9,4.2,9,10.9
		c0,7.7-4.9,11.5-9.8,11.5c-2.7,0-4.9-1.1-6-2.9h-0.1V292h-5.4V268.9z M216.7,274.3c0,0.5,0,1,0.2,1.5c0.5,2.2,2.5,3.8,4.8,3.8
		c3.4,0,5.5-2.9,5.5-7.1c0-3.8-1.8-6.9-5.3-6.9c-2.2,0-4.3,1.6-4.8,4c-0.1,0.4-0.2,0.9-0.2,1.4V274.3z"/>
	<path class="st1" d="M236.7,278.3c1.2,0.7,3.6,1.5,5.5,1.5c2.4,0,3.4-1,3.4-2.4c0-1.5-0.9-2.2-3.5-3.1c-4.2-1.5-5.9-3.7-5.9-6.2
		c0-3.8,3.1-6.7,8.1-6.7c2.4,0,4.4,0.6,5.7,1.3l-1.1,3.8c-0.9-0.5-2.6-1.2-4.5-1.2c-1.9,0-3,0.9-3,2.2c0,1.4,1,2,3.7,3
		c3.9,1.4,5.7,3.4,5.7,6.6c0,3.9-3,6.7-8.7,6.7c-2.6,0-4.9-0.6-6.5-1.5L236.7,278.3z"/>
</g>
<g>
	<path class="st0" d="M221.1,145.3h-86.8v-12.4l13.3-31l20,24.9l18.8-19.4l24.3-8.7l10.4,23.4V145.3z M228.9,80.2H124.4
		c-3.2,0-5.5,2.6-5.5,5.8v68.3c0,3.2,2.3,5.8,5.5,5.8h104.5c3.2,0,5.5-2.6,5.5-5.8V86C234.4,82.8,232.1,80.2,228.9,80.2 M213.9,67.1
		l-15-40.8c-0.9-2.9-4.1-4.6-6.9-3.5L93.5,58.8c-2.9,0.9-4.3,4.3-3.2,7.2l15.6,43.1V86c0-10.4,8.1-18.8,18.5-18.8h25.8l31.3-21.7
		l17.9,21.7H213.9z"/>
	<path class="st1" d="M118.7,170.6l3-34.6l27.3,19.8L118.7,170.6z M192,130.5l0.6-6.9c0.2-2.5-1.4-4.8-4.2-5l-103.8-9.1
		c-2.5-0.2-4.8,1.7-5,4.2l-0.6,6.9l11.5,1l-1,11.5l-11.5-1l-1,11.5l11.5,1l-1,11.5l-11.5-1l-1,11.5l11.5,1l-1,11.5l-11.5-1l-0.6,6.9
		c-0.2,2.5,1.7,4.8,4.2,5l103.8,9.1c2.8,0.2,4.8-1.7,5-4.2l0.6-6.9l-11.5-1l1-11.5l11.5,1l1-11.5l-11.5-1l1-11.5l11.5,1l1-11.5
		l-11.5-1l1-11.5L192,130.5z"/>
</g>
</svg>
