<?xml version="1.0" encoding="utf-8"?>
<!-- Generator: Adobe Illustrator 16.0.3, SVG Export Plug-In . SVG Version: 6.00 Build 0)  -->
<!DOCTYPE svg PUBLIC "-//W3C//DTD SVG 1.1//EN" "http://www.w3.org/Graphics/SVG/1.1/DTD/svg11.dtd" [
	<!ENTITY ns_extend "http://ns.adobe.com/Extensibility/1.0/">
	<!ENTITY ns_ai "http://ns.adobe.com/AdobeIllustrator/10.0/">
	<!ENTITY ns_graphs "http://ns.adobe.com/Graphs/1.0/">
	<!ENTITY ns_vars "http://ns.adobe.com/Variables/1.0/">
	<!ENTITY ns_imrep "http://ns.adobe.com/ImageReplacement/1.0/">
	<!ENTITY ns_sfw "http://ns.adobe.com/SaveForWeb/1.0/">
	<!ENTITY ns_custom "http://ns.adobe.com/GenericCustomNamespace/1.0/">
	<!ENTITY ns_adobe_xpath "http://ns.adobe.com/XPath/1.0/">
]>
<svg version="1.1" id="Ebene_1" xmlns:x="&ns_extend;" xmlns:i="&ns_ai;" xmlns:graph="&ns_graphs;"
	 xmlns="http://www.w3.org/2000/svg" xmlns:xlink="http://www.w3.org/1999/xlink" x="0px" y="0px" width="309px" height="309px"
	 viewBox="0 0 309 309" style="enable-background:new 0 0 309 309;" xml:space="preserve">
<style type="text/css">
<![CDATA[
	.st0{fill:#ED7203;}
	.st1{fill:#FFFFFF;}
	.st2{fill:none;}
	.st3{fill:#808A90;stroke:#ED7203;stroke-width:8;stroke-miterlimit:10;}
]]>
</style>
<metadata>
	<sfw  xmlns="&ns_sfw;">
		<slices></slices>
		<sliceSourceBounds  width="308" height="327" y="-23.5" x="-5.3" bottomLeftOrigin="true"></sliceSourceBounds>
	</sfw>
</metadata>
<path class="st3" d="M233.2,305h-156c-39.6,0-72-16.9-72-56.5V65c0-39.6,32.4-60,72-60h156c39.6,0,72,20.9,72,60.5V249
	C305.2,288.6,272.8,305,233.2,305z"/>
<g>
	<rect x="1.3" y="212" class="st2" width="307.7" height="116"/>
	<path class="st1" d="M93.2,254c2.4-0.4,5.4-0.6,8.6-0.6c5.5,0,9.4,1.1,12.1,3.4c2.9,2.3,4.6,5.9,4.6,10.9c0,5.3-1.8,9.2-4.6,11.8
		c-2.9,2.7-7.7,4-13.4,4c-3.2,0-5.5-0.2-7.3-0.4V254z M98.6,279.1c0.7,0.1,1.9,0.1,3,0.1c7,0,11.2-3.8,11.2-11.4
		c0-6.6-3.7-10.3-10.5-10.3c-1.7,0-2.9,0.1-3.7,0.3V279.1z"/>
	<path class="st1" d="M135.1,283.2l-0.4-2.4h-0.1c-1.3,1.7-3.6,2.9-6.3,2.9c-4.3,0-6.7-3.1-6.7-6.4c0-5.4,4.8-8.1,12.7-8.1v-0.4
		c0-1.4-0.6-3.7-4.4-3.7c-2.1,0-4.3,0.7-5.8,1.6l-1.1-3.5c1.6-1,4.4-1.9,7.7-1.9c6.9,0,8.8,4.4,8.8,9v7.7c0,1.9,0.1,3.8,0.3,5.1
		H135.1z M134.4,272.8c-3.8-0.1-7.5,0.7-7.5,4c0,2.1,1.4,3.1,3.1,3.1c2.2,0,3.7-1.4,4.2-2.9c0.1-0.4,0.2-0.8,0.2-1.2V272.8z"/>
	<path class="st1" d="M151.6,255.7v6.1h5.1v4h-5.1v9.5c0,2.6,0.7,4,2.8,4c0.9,0,1.6-0.1,2.1-0.3l0.1,4.1c-0.8,0.3-2.2,0.5-3.9,0.5
		c-2,0-3.7-0.7-4.7-1.8c-1.1-1.2-1.7-3.2-1.7-6v-10.1h-3.1v-4h3.1V257L151.6,255.7z"/>
	<path class="st1" d="M180,276.8c0,2.6,0.1,4.7,0.2,6.4h-4.8l-0.3-3.3h-0.1c-0.9,1.5-3,3.7-6.9,3.7c-3.9,0-7.5-2.3-7.5-9.3v-12.6
		h5.4v11.7c0,3.6,1.1,5.9,4,5.9c2.2,0,3.6-1.5,4.1-2.9c0.2-0.5,0.3-1.1,0.3-1.7v-12.9h5.4V276.8z"/>
	<path class="st1" d="M185.9,268.2c0-2.5,0-4.5-0.2-6.4h4.7l0.2,3.2h0.1c1.1-1.7,3-3.7,6.6-3.7c2.8,0,5,1.6,5.9,4h0.1
		c0.7-1.2,1.6-2.1,2.6-2.7c1.2-0.8,2.6-1.3,4.3-1.3c3.6,0,7.2,2.4,7.2,9.3v12.6h-5.3v-11.8c0-3.6-1.2-5.7-3.8-5.7
		c-1.8,0-3.2,1.3-3.8,2.9c-0.1,0.5-0.3,1.2-0.3,1.8v12.9H199v-12.4c0-3-1.2-5.1-3.7-5.1c-2,0-3.4,1.6-3.9,3.1
		c-0.2,0.5-0.3,1.1-0.3,1.8v12.7h-5.3V268.2z"/>
</g>
<path class="st0" d="M196.4,22.2L183,23.4l2.8,32.4l13.3-1.2L196.4,22.2z M110.6,29.7l-13.3,1.2l2.8,32.4l13.3-1.2L110.6,29.7z
	 M226.9,173.2L93.5,184.9l-6.7-76.2l133.4-11.7L226.9,173.2z M215.2,39.8l-8.8,0.8l1.7,19.1l-30.5,2.7l-1.7-19.1L120.7,48l1.7,19.1
	l-30.5,2.7l-1.7-19.1l-8.4,0.7c-10.7,0.9-18.3,10.4-17.4,20.7l10,114.4c0.9,10.7,10.1,18.3,20.7,17.4l133.4-11.7
	c10.3-0.9,18.3-10.1,17.4-20.7l-10-114.4C235,46.9,225.5,38.9,215.2,39.8"/>
<g>
	<path class="st1" d="M128.2,135.3c-0.4-4.4-0.6-7.9-0.6-10.5c-0.5,0.7-1.2,1.5-2,2.3l-8.2,7.9l-5.1-5.4l15.6-14.7l7.7-0.7l5,57.1
		l-9.2,0.8L128.2,135.3z"/>
	<path class="st1" d="M158.7,162.8l13.4-16.1c3.9-4.8,6.6-8.2,7.8-10.3c2.5-4,3.5-7.1,3.1-10.9c-0.5-5.1-4-8-9.5-7.6
		c-4.4,0.4-8,2.1-12.9,6.8l-5.5-5.6c5.9-5.9,11.4-8.4,18.1-9c10.6-0.9,18.1,4.5,18.9,13.8c0.5,5.2-1,9.7-4.3,15
		c-1.7,2.6-4.6,6.3-8.7,10.8l-9.1,10.5l0,0.4l27.1-2.4l0.7,8.1l-38.7,3.4L158.7,162.8z"/>
</g>
</svg>
