<?xml version="1.0" encoding="utf-8"?>
<!-- Generator: Adobe Illustrator 16.0.3, SVG Export Plug-In . SVG Version: 6.00 Build 0)  -->
<!DOCTYPE svg PUBLIC "-//W3C//DTD SVG 1.1//EN" "http://www.w3.org/Graphics/SVG/1.1/DTD/svg11.dtd" [
	<!ENTITY ns_extend "http://ns.adobe.com/Extensibility/1.0/">
	<!ENTITY ns_ai "http://ns.adobe.com/AdobeIllustrator/10.0/">
	<!ENTITY ns_graphs "http://ns.adobe.com/Graphs/1.0/">
	<!ENTITY ns_vars "http://ns.adobe.com/Variables/1.0/">
	<!ENTITY ns_imrep "http://ns.adobe.com/ImageReplacement/1.0/">
	<!ENTITY ns_sfw "http://ns.adobe.com/SaveForWeb/1.0/">
	<!ENTITY ns_custom "http://ns.adobe.com/GenericCustomNamespace/1.0/">
	<!ENTITY ns_adobe_xpath "http://ns.adobe.com/XPath/1.0/">
]>
<svg version="1.1" id="Ebene_1" xmlns:x="&ns_extend;" xmlns:i="&ns_ai;" xmlns:graph="&ns_graphs;"
	 xmlns="http://www.w3.org/2000/svg" xmlns:xlink="http://www.w3.org/1999/xlink" x="0px" y="0px" width="309px" height="309px"
	 viewBox="0 0 309 309" style="enable-background:new 0 0 309 309;" xml:space="preserve">
<style type="text/css">
<![CDATA[
	.st0{fill:#ED7203;}
	.st1{fill:#FFFFFF;}
	.st2{fill:none;}
	.st3{fill:#808A90;stroke:#ED7203;stroke-width:8;stroke-miterlimit:10;}
]]>
</style>
<metadata>
	<sfw  xmlns="&ns_sfw;">
		<slices></slices>
		<sliceSourceBounds  width="308" height="327" y="-23.5" x="-5.3" bottomLeftOrigin="true"></sliceSourceBounds>
	</sfw>
</metadata>
<path class="st3" d="M233.2,305h-156c-39.6,0-72-16.9-72-56.5V65c0-39.6,32.4-60,72-60h156c39.6,0,72,20.9,72,60.5V249
	C305.2,288.6,272.8,305,233.2,305z"/>
<g>
	<rect x="1.3" y="212" class="st2" width="307.7" height="116"/>
	<path class="st1" d="M76.9,283.2l-9.6-29.7h5.9l4,13.5c1.1,3.7,2.1,7.2,2.9,10.8h0.1c0.8-3.5,1.8-7.1,3-10.7l4.3-13.6h5.8
		l-10.3,29.7H76.9z"/>
	<path class="st1" d="M100.2,274c0.1,3.9,3.2,5.5,6.6,5.5c2.5,0,4.3-0.4,5.9-1l0.8,3.7c-1.8,0.7-4.4,1.3-7.5,1.3
		c-7,0-11-4.3-11-10.8c0-5.9,3.6-11.5,10.5-11.5c7,0,9.2,5.7,9.2,10.4c0,1-0.1,1.8-0.2,2.3H100.2z M109.6,270.3c0-2-0.8-5.2-4.4-5.2
		c-3.3,0-4.8,3-5,5.2H109.6z"/>
	<path class="st1" d="M119.1,268.7c0-2.9,0-5-0.2-6.9h4.7l0.2,4.1h0.2c1.1-3,3.6-4.6,5.9-4.6c0.5,0,0.8,0,1.3,0.1v5.1
		c-0.4-0.1-0.9-0.2-1.6-0.2c-2.6,0-4.4,1.7-4.8,4.1c-0.1,0.5-0.2,1.1-0.2,1.7v11.1h-5.4V268.7z"/>
	<path class="st1" d="M135.4,283.2v-17.4h-2.9v-4h2.9v-0.9c0-2.8,0.7-5.5,2.6-7.3c1.6-1.5,3.7-2.1,5.6-2.1c1.5,0,2.6,0.2,3.5,0.5
		l-0.4,4.2c-0.6-0.2-1.3-0.4-2.3-0.4c-2.7,0-3.6,2.2-3.6,4.9v1.1h4.7v4h-4.7v17.4H135.4z"/>
	<path class="st1" d="M160.8,283.2l-0.4-2.4h-0.1c-1.3,1.7-3.6,2.9-6.3,2.9c-4.3,0-6.7-3.1-6.7-6.4c0-5.4,4.8-8.1,12.7-8.1v-0.4
		c0-1.4-0.6-3.7-4.4-3.7c-2.1,0-4.3,0.7-5.8,1.6l-1.1-3.5c1.6-1,4.4-1.9,7.7-1.9c6.9,0,8.8,4.4,8.8,9v7.7c0,1.9,0.1,3.8,0.3,5.1
		H160.8z M160.1,272.8c-3.8-0.1-7.5,0.7-7.5,4c0,2.1,1.4,3.1,3.1,3.1c2.2,0,3.7-1.4,4.2-2.9c0.1-0.4,0.2-0.8,0.2-1.2V272.8z"/>
	<path class="st1" d="M170.9,278.3c1.2,0.7,3.6,1.5,5.5,1.5c2.4,0,3.4-1,3.4-2.4c0-1.5-0.9-2.2-3.5-3.1c-4.2-1.5-5.9-3.7-5.9-6.2
		c0-3.8,3.1-6.7,8.1-6.7c2.4,0,4.4,0.6,5.7,1.3l-1.1,3.8c-0.9-0.5-2.6-1.2-4.5-1.2c-1.9,0-3,0.9-3,2.2c0,1.4,1,2,3.7,3
		c3.9,1.4,5.7,3.4,5.7,6.6c0,3.9-3,6.7-8.7,6.7c-2.6,0-4.9-0.6-6.5-1.5L170.9,278.3z"/>
	<path class="st1" d="M189.2,278.3c1.2,0.7,3.6,1.5,5.5,1.5c2.4,0,3.4-1,3.4-2.4c0-1.5-0.9-2.2-3.5-3.1c-4.2-1.5-5.9-3.7-5.9-6.2
		c0-3.8,3.1-6.7,8.1-6.7c2.4,0,4.4,0.6,5.7,1.3l-1.1,3.8c-0.9-0.5-2.6-1.2-4.5-1.2c-1.9,0-3,0.9-3,2.2c0,1.4,1,2,3.7,3
		c3.9,1.4,5.7,3.4,5.7,6.6c0,3.9-3,6.7-8.7,6.7c-2.6,0-4.9-0.6-6.5-1.5L189.2,278.3z"/>
	<path class="st1" d="M211.7,274c0.1,3.9,3.2,5.5,6.6,5.5c2.5,0,4.3-0.4,5.9-1l0.8,3.7c-1.8,0.7-4.4,1.3-7.5,1.3
		c-7,0-11-4.3-11-10.8c0-5.9,3.6-11.5,10.5-11.5c7,0,9.2,5.7,9.2,10.4c0,1-0.1,1.8-0.2,2.3H211.7z M221.1,270.3c0-2-0.8-5.2-4.4-5.2
		c-3.3,0-4.8,3-5,5.2H221.1z"/>
	<path class="st1" d="M230.5,268.7c0-2.9,0-5-0.2-6.9h4.7l0.2,4.1h0.2c1.1-3,3.6-4.6,5.9-4.6c0.5,0,0.8,0,1.3,0.1v5.1
		c-0.4-0.1-0.9-0.2-1.6-0.2c-2.6,0-4.4,1.7-4.8,4.1c-0.1,0.5-0.2,1.1-0.2,1.7v11.1h-5.4V268.7z"/>
</g>
<path class="st1" d="M201.2,149.8c-21.2-8.6-28.1-15.6-28.1-31.1c0-9.5,6.5-6.5,9.5-23.8c0.9-6.9,6.9,0,7.8-16c0-6.5-3-8.2-3-8.2
	s1.7-9.5,2.2-16.9c0.9-9.5-4.8-32.9-34.6-32.9c-29.4,0-35,23.3-34.2,32.9c0.4,7.3,2.2,16.9,2.2,16.9s-3.5,1.7-3.5,8.2
	c1.3,16,6.9,9.1,8.2,16c3,17.3,9.5,14.3,9.5,23.8c0,15.6-6.9,22.5-28.1,31.1c-6.5,2.6-18.6,6.9-18.6,16.9v38l129.3-0.1
	c0,0,0-23.4-0.1-41.6C219.7,160.4,210.3,152.8,201.2,149.8"/>
<path class="st0" d="M134,228.3l-10.2,2.3c-1-1.8-2.3-3.6-4.6-5.9c-2-2.3-4.1-3.3-5.8-4.3l2.3-10.4l2.8-3.1c0,0,5.9,0.3,12.2,6.6
	c6.1,6.4,6.4,12,6.4,12L134,228.3z M196.8,147.2c-9.2-9.2-16-7.9-16-7.9l-32,32.3l-36.9,36.6l-6.4,30.3l30.3-6.4l36.9-36.9l32-32
	C204.7,163.2,206,156.3,196.8,147.2"/>
</svg>
