<?xml version="1.0" encoding="utf-8"?>
<!-- Generator: Adobe Illustrator 16.0.3, SVG Export Plug-In . SVG Version: 6.00 Build 0)  -->
<!DOCTYPE svg PUBLIC "-//W3C//DTD SVG 1.1//EN" "http://www.w3.org/Graphics/SVG/1.1/DTD/svg11.dtd" [
	<!ENTITY ns_extend "http://ns.adobe.com/Extensibility/1.0/">
	<!ENTITY ns_ai "http://ns.adobe.com/AdobeIllustrator/10.0/">
	<!ENTITY ns_graphs "http://ns.adobe.com/Graphs/1.0/">
	<!ENTITY ns_vars "http://ns.adobe.com/Variables/1.0/">
	<!ENTITY ns_imrep "http://ns.adobe.com/ImageReplacement/1.0/">
	<!ENTITY ns_sfw "http://ns.adobe.com/SaveForWeb/1.0/">
	<!ENTITY ns_custom "http://ns.adobe.com/GenericCustomNamespace/1.0/">
	<!ENTITY ns_adobe_xpath "http://ns.adobe.com/XPath/1.0/">
]>
<svg version="1.1" id="Ebene_1" xmlns:x="&ns_extend;" xmlns:i="&ns_ai;" xmlns:graph="&ns_graphs;"
	 xmlns="http://www.w3.org/2000/svg" xmlns:xlink="http://www.w3.org/1999/xlink" x="0px" y="0px" width="309px" height="309px"
	 viewBox="0 0 309 309" style="enable-background:new 0 0 309 309;" xml:space="preserve">
<style type="text/css">
<![CDATA[
	.st0{fill:none;stroke:#FFFFFF;stroke-width:3;}
	.st1{fill:#F29100;}
	.st2{fill:#F6A841;}
	.st3{fill:#D1E7F9;stroke:#D1E7F9;stroke-width:9;stroke-miterlimit:10;}
	.st4{fill:#FBCA8C;}
	.st5{fill:none;}
	.st6{fill:#375B6A;}
	.st7{fill:none;stroke:#FFFFFF;stroke-width:2.5;}
	.st8{fill:#A1C517;}
]]>
</style>
<metadata>
	<sfw  xmlns="&ns_sfw;">
		<slices></slices>
		<sliceSourceBounds  width="309" height="309" bottomLeftOrigin="true" x="-5.4" y="-4.5"></sliceSourceBounds>
	</sfw>
</metadata>
<path class="st3" d="M233.6,304.5h-156c-39.6,0-72-16.9-72-56.5V64.5c0-39.6,32.4-60,72-60h156c39.6,0,72,20.9,72,60.5v183.5
	C305.6,288.1,273.2,304.5,233.6,304.5z"/>
<g>
	<rect x="1.8" y="177.5" class="st5" width="307.5" height="116.5"/>
	<path class="st6" d="M61.9,203.4c1.8,1,4.5,1.9,7.3,1.9c3.6,0,5.5-1.7,5.5-4.1c0-2.3-1.5-3.6-5.4-5c-5-1.8-8.2-4.5-8.2-8.8
		c0-4.9,4.1-8.7,10.7-8.7c3.3,0,5.7,0.7,7.3,1.5l-1.4,4.5c-1.1-0.6-3.2-1.4-6-1.4c-3.5,0-5,1.9-5,3.6c0,2.3,1.8,3.4,5.8,5
		c5.3,2,7.8,4.6,7.8,9c0,4.9-3.7,9.1-11.5,9.1c-3.2,0-6.5-0.9-8.2-1.9L61.9,203.4z"/>
	<path class="st6" d="M91.5,181.3v6.3h5.3v4.1h-5.3v9.7c0,2.7,0.7,4.1,2.8,4.1c0.9,0,1.7-0.1,2.2-0.3l0.1,4.2
		c-0.8,0.3-2.3,0.5-4,0.5c-2,0-3.7-0.7-4.8-1.8c-1.2-1.3-1.7-3.2-1.7-6.1v-10.3H83v-4.1h3.1v-4.9L91.5,181.3z"/>
	<path class="st6" d="M121.8,198.3c0,8.1-5.7,11.7-11.2,11.7c-6.2,0-11-4.3-11-11.3c0-7.2,4.7-11.6,11.3-11.6
		C117.5,187,121.8,191.6,121.8,198.3z M105.3,198.5c0,4.2,2.1,7.4,5.4,7.4c3.1,0,5.4-3.1,5.4-7.5c0-3.4-1.5-7.3-5.3-7.3
		C106.9,191.1,105.3,194.9,105.3,198.5z"/>
	<path class="st6" d="M140.5,209.4v-17.8h-8v17.8H127v-17.8h-3v-4.1h3V187c0-2.8,0.7-5.4,2.5-7.2c1.4-1.4,3.4-2.3,6.2-2.3
		c1.2,0,2.3,0.3,3,0.6l-0.9,4.1c-0.5-0.2-1.3-0.4-2-0.4c-2.5,0-3.3,2.1-3.3,4.9v0.9h8v-0.9c0-2.8,0.8-5.7,2.7-7.5
		c1.6-1.5,3.8-2.1,5.7-2.1c1.5,0,2.7,0.2,3.5,0.5l-0.4,4.3c-0.6-0.2-1.4-0.4-2.4-0.4c-2.7,0-3.6,2.3-3.6,5v1.1h4.8v4.1h-4.7v17.8
		H140.5z"/>
	<path class="st6" d="M164.1,195.5v3.8h-11.5v-3.8H164.1z"/>
	<path class="st6" d="M197.4,202.9c0,2.6,0.1,4.8,0.2,6.6h-4.9l-0.3-3.3h-0.1c-0.9,1.6-3.1,3.8-7,3.8c-4,0-7.6-2.4-7.6-9.5v-12.9
		h5.5v11.9c0,3.6,1.2,6,4.1,6c2.2,0,3.6-1.6,4.2-3c0.2-0.5,0.3-1.1,0.3-1.7v-13.2h5.5V202.9z"/>
	<path class="st6" d="M203.4,194.1c0-2.5,0-4.6-0.2-6.5h4.9l0.3,3.3h0.1c0.9-1.7,3.3-3.8,7-3.8c3.8,0,7.8,2.5,7.8,9.4v13h-5.5v-12.4
		c0-3.1-1.2-5.5-4.2-5.5c-2.2,0-3.7,1.6-4.3,3.2c-0.2,0.5-0.2,1.2-0.2,1.8v12.9h-5.6V194.1z"/>
	<path class="st6" d="M249.3,177.5v25.8c0,2.3,0.1,4.7,0.2,6.2h-5l-0.2-3.5h-0.1c-1.3,2.4-4,4-7.2,4c-5.2,0-9.4-4.5-9.4-11.2
		c0-7.3,4.5-11.7,9.8-11.7c3,0,5.2,1.3,6.2,2.9h0.1v-12.4H249.3z M243.8,196.7c0-0.4,0-1-0.1-1.4c-0.5-2.2-2.3-3.9-4.8-3.9
		c-3.6,0-5.5,3.1-5.5,7.2c0,4,2,6.9,5.5,6.9c2.3,0,4.2-1.5,4.8-3.9c0.1-0.5,0.2-1,0.2-1.6V196.7z"/>
	<path class="st6" d="M94.3,236H82.9v8.9h12.8v4.5H77.3v-30.3H95v4.5H82.9v7.8h11.4V236z"/>
	<path class="st6" d="M100.3,234.1c0-2.5,0-4.6-0.2-6.5h4.9l0.3,3.3h0.1c0.9-1.7,3.3-3.8,7-3.8c3.8,0,7.8,2.5,7.8,9.4v13h-5.5v-12.4
		c0-3.1-1.2-5.5-4.2-5.5c-2.2,0-3.7,1.6-4.3,3.2c-0.2,0.5-0.2,1.2-0.2,1.8v12.9h-5.6V234.1z"/>
	<path class="st6" d="M129.9,240c0.1,4,3.2,5.7,6.7,5.7c2.6,0,4.4-0.4,6.1-1l0.8,3.8c-1.9,0.8-4.5,1.4-7.6,1.4
		c-7.1,0-11.3-4.4-11.3-11.1c0-6.1,3.7-11.8,10.7-11.8c7.1,0,9.4,5.8,9.4,10.7c0,1-0.1,1.8-0.2,2.3H129.9z M139.6,236.2
		c0-2-0.9-5.4-4.5-5.4c-3.4,0-4.9,3.1-5.1,5.4H139.6z"/>
	<path class="st6" d="M149.3,234.6c0-3,0-5.1-0.2-7.1h4.8l0.2,4.2h0.2c1.1-3.1,3.6-4.7,6-4.7c0.5,0,0.9,0,1.3,0.1v5.2
		c-0.5-0.1-0.9-0.2-1.6-0.2c-2.7,0-4.5,1.7-4.9,4.2c-0.1,0.5-0.2,1.1-0.2,1.7v11.3h-5.5V234.6z"/>
	<path class="st6" d="M185.3,227.5c-0.1,1.5-0.2,3.3-0.2,6.3v12.4c0,4.6-0.9,7.9-3.2,9.9c-2.3,2-5.4,2.7-8.5,2.7
		c-2.8,0-5.8-0.6-7.6-1.8l1.2-4.2c1.4,0.8,3.7,1.7,6.4,1.7c3.6,0,6.3-1.9,6.3-6.6v-1.9h-0.1c-1.3,1.9-3.5,3.2-6.4,3.2
		c-5.4,0-9.3-4.5-9.3-10.7c0-7.2,4.7-11.6,9.9-11.6c3.3,0,5.3,1.6,6.3,3.4h0.1l0.2-2.9H185.3z M179.6,236.3c0-0.5,0-1-0.2-1.5
		c-0.6-2-2.2-3.6-4.5-3.6c-3.1,0-5.4,2.7-5.4,7.2c0,3.7,1.9,6.7,5.4,6.7c2.1,0,3.9-1.4,4.5-3.3c0.1-0.6,0.2-1.4,0.2-2V236.3z"/>
	<path class="st6" d="M197,221.4c0,1.7-1.2,3-3.1,3c-1.8,0-3.1-1.3-3.1-3c0-1.7,1.3-3,3.1-3C195.7,218.4,196.9,219.7,197,221.4z
		 M191.1,249.4v-21.9h5.6v21.9H191.1z"/>
	<path class="st6" d="M206.5,240c0.1,4,3.2,5.7,6.7,5.7c2.6,0,4.4-0.4,6.1-1l0.8,3.8c-1.9,0.8-4.5,1.4-7.6,1.4
		c-7.1,0-11.3-4.4-11.3-11.1c0-6.1,3.7-11.8,10.7-11.8c7.1,0,9.4,5.8,9.4,10.7c0,1-0.1,1.8-0.2,2.3H206.5z M216.1,236.2
		c0-2-0.9-5.4-4.5-5.4c-3.4,0-4.9,3.1-5.1,5.4H216.1z"/>
	<path class="st6" d="M235.7,235.5v3.8h-11.5v-3.8H235.7z"/>
	<path class="st6" d="M47.7,282.9c0,2.6,0.1,4.8,0.2,6.6H43l-0.3-3.3h-0.1c-0.9,1.6-3.1,3.8-7,3.8c-4,0-7.6-2.4-7.6-9.5v-12.9h5.5
		v11.9c0,3.6,1.2,6,4.1,6c2.2,0,3.6-1.6,4.2-3c0.2-0.5,0.3-1.1,0.3-1.7v-13.2h5.5V282.9z"/>
	<path class="st6" d="M53.7,274.1c0-2.5,0-4.6-0.2-6.5h4.8l0.2,3.2h0.1c1.1-1.7,3.1-3.7,6.8-3.7c2.9,0,5.1,1.6,6.1,4h0.1
		c0.8-1.2,1.7-2.1,2.7-2.7c1.2-0.9,2.6-1.3,4.4-1.3c3.6,0,7.3,2.5,7.3,9.5v12.9h-5.4v-12.1c0-3.6-1.3-5.8-3.9-5.8
		c-1.9,0-3.3,1.3-3.9,2.9c-0.1,0.5-0.3,1.2-0.3,1.8v13.1h-5.4v-12.7c0-3.1-1.2-5.2-3.8-5.2c-2.1,0-3.5,1.6-4,3.1
		c-0.2,0.5-0.3,1.2-0.3,1.8v13h-5.4V274.1z"/>
	<path class="st6" d="M95.2,267.5l2.3,9.9c0.5,2.3,1,4.7,1.4,7.1H99c0.5-2.4,1.2-4.8,1.8-7.1l2.8-10h4.5l2.7,9.7
		c0.7,2.6,1.3,4.9,1.8,7.3h0.1c0.4-2.4,0.9-4.8,1.4-7.3l2.4-9.7h5.4l-6.9,21.9H110l-2.6-8.9c-0.7-2.3-1.2-4.4-1.7-7h-0.1
		c-0.4,2.7-1,4.9-1.7,7l-2.8,8.9H96l-6.5-21.9H95.2z"/>
	<path class="st6" d="M137.9,289.4l-0.4-2.4h-0.1c-1.3,1.7-3.6,2.9-6.5,2.9c-4.4,0-6.9-3.2-6.9-6.5c0-5.5,4.9-8.3,13-8.3v-0.4
		c0-1.4-0.6-3.8-4.5-3.8c-2.2,0-4.4,0.7-5.9,1.6l-1.1-3.6c1.6-1,4.5-1.9,7.9-1.9c7,0,9,4.5,9,9.2v7.9c0,2,0.1,3.9,0.3,5.3H137.9z
		 M137.2,278.7c-3.9-0.1-7.6,0.8-7.6,4.1c0,2.2,1.4,3.1,3.1,3.1c2.2,0,3.8-1.4,4.3-3c0.1-0.4,0.2-0.9,0.2-1.2V278.7z"/>
	<path class="st6" d="M148.4,274.1c0-2.5,0-4.6-0.2-6.5h4.9l0.3,3.3h0.1c0.9-1.7,3.3-3.8,7-3.8c3.8,0,7.8,2.5,7.8,9.4v13h-5.5v-12.4
		c0-3.1-1.2-5.5-4.2-5.5c-2.2,0-3.7,1.6-4.3,3.2c-0.2,0.5-0.2,1.2-0.2,1.8v12.9h-5.6V274.1z"/>
	<path class="st6" d="M194.4,257.5v25.8c0,2.3,0.1,4.7,0.2,6.2h-5l-0.2-3.5h-0.1c-1.3,2.4-4,4-7.2,4c-5.2,0-9.4-4.5-9.4-11.2
		c0-7.3,4.5-11.7,9.8-11.7c3,0,5.2,1.3,6.2,2.9h0.1v-12.4H194.4z M188.8,276.7c0-0.4,0-1-0.1-1.4c-0.5-2.2-2.3-3.9-4.8-3.9
		c-3.6,0-5.5,3.1-5.5,7.2c0,4,2,6.9,5.5,6.9c2.3,0,4.2-1.5,4.8-3.9c0.1-0.5,0.2-1,0.2-1.6V276.7z"/>
	<path class="st6" d="M200.3,257.5h5.6v31.9h-5.6V257.5z"/>
	<path class="st6" d="M231.5,282.9c0,2.6,0.1,4.8,0.2,6.6h-4.9l-0.3-3.3h-0.1c-0.9,1.6-3.1,3.8-7,3.8c-4,0-7.6-2.4-7.6-9.5v-12.9
		h5.5v11.9c0,3.6,1.2,6,4.1,6c2.2,0,3.6-1.6,4.2-3c0.2-0.5,0.3-1.1,0.3-1.7v-13.2h5.5V282.9z"/>
	<path class="st6" d="M237.5,274.1c0-2.5,0-4.6-0.2-6.5h4.9l0.3,3.3h0.1c0.9-1.7,3.3-3.8,7-3.8c3.8,0,7.8,2.5,7.8,9.4v13h-5.5v-12.4
		c0-3.1-1.2-5.5-4.2-5.5c-2.2,0-3.7,1.6-4.3,3.2c-0.2,0.5-0.2,1.2-0.2,1.8v12.9h-5.6V274.1z"/>
	<path class="st6" d="M283.2,267.5c-0.1,1.5-0.2,3.3-0.2,6.3v12.4c0,4.6-0.9,7.9-3.2,9.9c-2.3,2-5.4,2.7-8.5,2.7
		c-2.8,0-5.8-0.6-7.6-1.8l1.2-4.2c1.4,0.8,3.7,1.7,6.4,1.7c3.6,0,6.3-1.9,6.3-6.6v-1.9h-0.1c-1.3,1.9-3.5,3.2-6.4,3.2
		c-5.4,0-9.3-4.5-9.3-10.7c0-7.2,4.7-11.6,9.9-11.6c3.3,0,5.3,1.6,6.3,3.4h0.1l0.2-2.9H283.2z M277.5,276.3c0-0.5,0-1-0.2-1.5
		c-0.6-2-2.2-3.6-4.5-3.6c-3.1,0-5.4,2.7-5.4,7.2c0,3.7,1.9,6.7,5.4,6.7c2.1,0,3.9-1.4,4.5-3.3c0.1-0.6,0.2-1.4,0.2-2V276.3z"/>
</g>
<g>
	<path class="st8" d="M163.6,164.1c41.6,0,75.3-33.7,75.3-75.3c0-41.6-33.7-75.3-75.3-75.3c-41.6,0-75.3,33.7-75.3,75.3
		C88.3,130.4,122,164.1,163.6,164.1"/>
	<circle class="st0" cx="163.6" cy="88.8" r="75.3"/>
	
		<rect x="64.2" y="64" transform="matrix(-0.7071 -0.7071 0.7071 -0.7071 89.1018 214.4427)" class="st1" width="49.5" height="49.5"/>
	
		<rect x="64.2" y="64" transform="matrix(-0.7071 -0.7071 0.7071 -0.7071 89.1018 214.4427)" class="st7" width="49.5" height="49.5"/>
	<polygon class="st2" points="144.8,88.8 161.4,118.8 195.8,88.8 161.4,58.7 	"/>
	<polygon class="st7" points="144.8,88.8 161.4,118.8 195.8,88.8 161.4,58.7 	"/>
	<polygon class="st4" points="223.1,110.5 217.2,126.7 256.8,122.6 229.1,94.2 	"/>
	<polygon class="st7" points="223.1,110.5 217.2,126.7 256.8,122.6 229.1,94.2 	"/>
	<polygon class="st4" points="223.2,66 229.1,82.3 257.2,54 217.3,49.7 	"/>
</g>
</svg>
