<?xml version="1.0" encoding="utf-8"?>
<!-- Generator: Adobe Illustrator 16.0.3, SVG Export Plug-In . SVG Version: 6.00 Build 0)  -->
<!DOCTYPE svg PUBLIC "-//W3C//DTD SVG 1.1//EN" "http://www.w3.org/Graphics/SVG/1.1/DTD/svg11.dtd" [
	<!ENTITY ns_extend "http://ns.adobe.com/Extensibility/1.0/">
	<!ENTITY ns_ai "http://ns.adobe.com/AdobeIllustrator/10.0/">
	<!ENTITY ns_graphs "http://ns.adobe.com/Graphs/1.0/">
	<!ENTITY ns_vars "http://ns.adobe.com/Variables/1.0/">
	<!ENTITY ns_imrep "http://ns.adobe.com/ImageReplacement/1.0/">
	<!ENTITY ns_sfw "http://ns.adobe.com/SaveForWeb/1.0/">
	<!ENTITY ns_custom "http://ns.adobe.com/GenericCustomNamespace/1.0/">
	<!ENTITY ns_adobe_xpath "http://ns.adobe.com/XPath/1.0/">
]>
<svg version="1.1" id="Ebene_1" xmlns:x="&ns_extend;" xmlns:i="&ns_ai;" xmlns:graph="&ns_graphs;"
	 xmlns="http://www.w3.org/2000/svg" xmlns:xlink="http://www.w3.org/1999/xlink" x="0px" y="0px" width="309px" height="309px"
	 viewBox="0 0 309 309" style="enable-background:new 0 0 309 309;" xml:space="preserve">
<style type="text/css">
<![CDATA[
	.st0{fill:none;stroke:#FCFCFA;stroke-width:11;}
	.st1{fill:#FCFCFA;}
	.st2{fill:#FFFFFF;}
	.st3{fill:none;}
	.st4{fill:#808A90;stroke:#ED7203;stroke-width:8;stroke-miterlimit:10;}
]]>
</style>
<metadata>
	<sfw  xmlns="&ns_sfw;">
		<slices></slices>
		<sliceSourceBounds  width="308" height="327" y="-23.5" x="-6.7" bottomLeftOrigin="true"></sliceSourceBounds>
	</sfw>
</metadata>
<path class="st4" d="M231.8,305h-156c-39.6,0-72-16.9-72-56.5V65c0-39.6,32.4-60,72-60h156c39.6,0,72,20.9,72,60.5V249
	C303.8,288.6,271.4,305,231.8,305z"/>
<g>
	<rect y="212" class="st3" width="307.7" height="116"/>
	<path class="st2" d="M84.5,283.2l-7.3-29.7H83l2.8,13.5c0.7,3.6,1.5,7.4,1.9,10.3h0.1c0.5-3.1,1.3-6.6,2.2-10.4l3.2-13.4h5.7
		l2.9,13.6c0.7,3.5,1.4,6.8,1.8,10h0.1c0.5-3.3,1.2-6.6,2-10.3l3.1-13.4h5.5l-8,29.7h-5.8l-3.1-14c-0.7-3.4-1.3-6.2-1.6-9.4h-0.1
		c-0.5,3.2-1.1,6-2,9.4l-3.4,14H84.5z"/>
	<path class="st2" d="M121.6,274c0.1,3.9,3.2,5.5,6.6,5.5c2.5,0,4.3-0.4,5.9-1l0.8,3.7c-1.8,0.7-4.4,1.3-7.5,1.3
		c-7,0-11-4.3-11-10.8c0-5.9,3.6-11.5,10.5-11.5c7,0,9.2,5.7,9.2,10.4c0,1-0.1,1.8-0.2,2.3H121.6z M131,270.3c0-2-0.8-5.2-4.4-5.2
		c-3.3,0-4.8,3-5,5.2H131z"/>
	<path class="st2" d="M140.3,283.2c0.1-1.5,0.2-3.8,0.2-6V252h5.4v12.8h0.1c1.3-2.1,3.7-3.4,6.9-3.4c5.2,0,9,4.4,8.9,10.9
		c0,7.7-4.9,11.5-9.7,11.5c-2.8,0-5.2-1.1-6.8-3.7h-0.1l-0.3,3.2H140.3z M145.9,274.4c0,0.4,0,0.9,0.1,1.3c0.6,2.2,2.5,3.8,4.8,3.8
		c3.4,0,5.5-2.7,5.5-7c0-3.8-1.8-6.9-5.4-6.9c-2.2,0-4.2,1.6-4.8,4c-0.1,0.4-0.2,0.9-0.2,1.4V274.4z"/>
	<path class="st2" d="M165.9,278.3c1.2,0.7,3.6,1.5,5.5,1.5c2.4,0,3.4-1,3.4-2.4c0-1.5-0.9-2.2-3.5-3.1c-4.2-1.5-5.9-3.7-5.9-6.2
		c0-3.8,3.1-6.7,8.1-6.7c2.4,0,4.4,0.6,5.7,1.3l-1.1,3.8c-0.9-0.5-2.6-1.2-4.5-1.2c-1.9,0-3,0.9-3,2.2c0,1.4,1,2,3.7,3
		c3.9,1.4,5.7,3.4,5.7,6.6c0,3.9-3,6.7-8.7,6.7c-2.6,0-4.9-0.6-6.5-1.5L165.9,278.3z"/>
	<path class="st2" d="M190.3,255.8c0,1.6-1.2,2.9-3.1,2.9c-1.8,0-3-1.3-3-2.9c0-1.7,1.2-2.9,3-2.9
		C189.1,252.9,190.3,254.2,190.3,255.8z M184.5,283.2v-21.4h5.5v21.4H184.5z"/>
	<path class="st2" d="M202,255.7v6.1h5.1v4H202v9.5c0,2.6,0.7,4,2.8,4c0.9,0,1.6-0.1,2.1-0.3l0.1,4.1c-0.8,0.3-2.2,0.5-3.9,0.5
		c-2,0-3.7-0.7-4.7-1.8c-1.1-1.2-1.7-3.2-1.7-6v-10.1h-3.1v-4h3.1V257L202,255.7z"/>
	<path class="st2" d="M215.1,274c0.1,3.9,3.2,5.5,6.6,5.5c2.5,0,4.3-0.4,5.9-1l0.8,3.7c-1.8,0.7-4.4,1.3-7.5,1.3
		c-7,0-11-4.3-11-10.8c0-5.9,3.6-11.5,10.5-11.5c7,0,9.2,5.7,9.2,10.4c0,1-0.1,1.8-0.2,2.3H215.1z M224.5,270.3c0-2-0.8-5.2-4.4-5.2
		c-3.3,0-4.8,3-5,5.2H224.5z"/>
</g>
<g>
	<g>
		<path class="st1" d="M153.8,223.9c-52,0-94.3-42.3-94.3-94.3c0-52,42.3-94.3,94.3-94.3c52,0,94.3,42.3,94.3,94.3
			C248.2,181.6,205.8,223.9,153.8,223.9z M153.8,46.2c-45.9,0-83.3,37.4-83.3,83.3c0,45.9,37.4,83.3,83.3,83.3
			c45.9,0,83.3-37.4,83.3-83.3C237.2,83.6,199.8,46.2,153.8,46.2z"/>
	</g>
	<g>
		<rect x="65.3" y="124.1" class="st1" width="181.7" height="11"/>
	</g>
	<g>
		<rect x="148.3" y="38.7" class="st1" width="11" height="181.7"/>
	</g>
	<g>
		<path class="st1" d="M157.3,224.6l-7-8.5c0.5-0.4,45.2-38.1,45.2-86.6c0-48.5-44.7-86.2-45.2-86.6l7-8.5
			c2,1.7,49.1,41.3,49.1,95.1S159.3,223,157.3,224.6z"/>
	</g>
	<g>
		<path class="st1" d="M151,224.6c-2-1.7-49.1-41.3-49.1-95.1S149,36.1,151,34.5l7,8.5c-0.4,0.4-45.2,38.1-45.2,86.6
			c0,48.5,44.7,86.2,45.2,86.6L151,224.6z"/>
	</g>
	<g>
		<path class="st0" d="M64,48.5"/>
	</g>
	<g>
		<path class="st1" d="M154.9,101.2c-30,0-55.7-15-72-27.5l6.7-8.7c14.9,11.5,38.4,25.3,65.2,25.3c26,0,48.7-12.9,63.2-23.7l6.6,8.8
			C208.8,87.1,183.9,101.2,154.9,101.2z"/>
	</g>
	<g>
		<path class="st1" d="M89.6,194.5l-6.7-8.7c16.3-12.6,42-27.5,72-27.5c29,0,54,14.1,69.8,25.9l-6.6,8.8
			c-14.5-10.8-37.3-23.7-63.2-23.7C128,169.3,104.6,183,89.6,194.5z"/>
	</g>
</g>
</svg>
