<?xml version="1.0" encoding="utf-8"?>
<!-- Generator: Adobe Illustrator 16.0.3, SVG Export Plug-In . SVG Version: 6.00 Build 0)  -->
<!DOCTYPE svg PUBLIC "-//W3C//DTD SVG 1.1//EN" "http://www.w3.org/Graphics/SVG/1.1/DTD/svg11.dtd" [
	<!ENTITY ns_extend "http://ns.adobe.com/Extensibility/1.0/">
	<!ENTITY ns_ai "http://ns.adobe.com/AdobeIllustrator/10.0/">
	<!ENTITY ns_graphs "http://ns.adobe.com/Graphs/1.0/">
	<!ENTITY ns_vars "http://ns.adobe.com/Variables/1.0/">
	<!ENTITY ns_imrep "http://ns.adobe.com/ImageReplacement/1.0/">
	<!ENTITY ns_sfw "http://ns.adobe.com/SaveForWeb/1.0/">
	<!ENTITY ns_custom "http://ns.adobe.com/GenericCustomNamespace/1.0/">
	<!ENTITY ns_adobe_xpath "http://ns.adobe.com/XPath/1.0/">
]>
<svg version="1.1" id="Ebene_1" xmlns:x="&ns_extend;" xmlns:i="&ns_ai;" xmlns:graph="&ns_graphs;"
	 xmlns="http://www.w3.org/2000/svg" xmlns:xlink="http://www.w3.org/1999/xlink" x="0px" y="0px" width="309px" height="309px"
	 viewBox="0 0 309 309" style="enable-background:new 0 0 309 309;" xml:space="preserve">
<style type="text/css">
<![CDATA[
	.st0{fill:#A1C517;stroke:#FFFFFF;stroke-width:3;}
	.st1{fill:#F6A841;stroke:#FFFFFF;stroke-width:3;stroke-miterlimit:10;}
	.st2{fill:none;stroke:#FFFFFF;stroke-width:4.4372;}
	.st3{fill:#D1E7F9;stroke:#D1E7F9;stroke-width:9;stroke-miterlimit:10;}
	.st4{fill:#A1C517;stroke:#FFFFFF;stroke-width:4;stroke-miterlimit:10;}
	.st5{fill:none;stroke:#3F84C5;stroke-width:2.9347;stroke-dasharray:4.7378,4.7378;}
	.st6{fill:none;}
	.st7{fill:#375B6A;}
	.st8{fill:#F6A841;stroke:#FFFFFF;stroke-width:4;}
	.st9{fill:#3F84C5;}
]]>
</style>
<metadata>
	<sfw  xmlns="&ns_sfw;">
		<slices></slices>
		<sliceSourceBounds  width="311.9" height="309" bottomLeftOrigin="true" x="-5.7" y="-4.5"></sliceSourceBounds>
	</sfw>
</metadata>
<path class="st3" d="M233.3,304.5h-156c-39.6,0-72-16.9-72-56.5V64.5c0-39.6,32.4-60,72-60h156c39.6,0,72,20.9,72,60.5v183.5
	C305.3,288.1,272.9,304.5,233.3,304.5z"/>
<g>
	<rect x="1.5" y="177.5" class="st6" width="307.5" height="116.5"/>
	<path class="st7" d="M8,179.1h5.5v13.9h0.1c0.7-1.2,1.5-2.3,2.2-3.3l7.9-10.7h6.8L20.1,192l11.1,17.4h-6.5l-8.6-13.9l-2.7,3.2v10.7
		H8V179.1z"/>
	<path class="st7" d="M53.6,198.3c0,8.1-5.7,11.7-11.2,11.7c-6.2,0-11-4.3-11-11.3c0-7.2,4.7-11.6,11.3-11.6
		C49.3,187,53.6,191.6,53.6,198.3z M37.1,198.5c0,4.2,2.1,7.4,5.4,7.4c3.1,0,5.4-3.1,5.4-7.5c0-3.4-1.5-7.3-5.3-7.3
		C38.7,191.1,37.1,194.9,37.1,198.5z"/>
	<path class="st7" d="M57,194.1c0-2.5,0-4.6-0.2-6.5h4.8l0.2,3.2h0.1c1.1-1.7,3.1-3.7,6.8-3.7c2.9,0,5.1,1.6,6.1,4h0.1
		c0.8-1.2,1.7-2.1,2.7-2.7c1.2-0.9,2.6-1.3,4.4-1.3c3.6,0,7.3,2.5,7.3,9.5v12.9h-5.4v-12.1c0-3.6-1.3-5.8-3.9-5.8
		c-1.9,0-3.3,1.3-3.9,2.9c-0.1,0.5-0.3,1.2-0.3,1.8v13.1h-5.4v-12.7c0-3.1-1.2-5.2-3.8-5.2c-2.1,0-3.5,1.6-4,3.1
		c-0.2,0.5-0.3,1.2-0.3,1.8v13H57V194.1z"/>
	<path class="st7" d="M94,194.1c0-2.5,0-4.6-0.2-6.5h4.8l0.2,3.2h0.1c1.1-1.7,3.1-3.7,6.7-3.7c2.9,0,5.1,1.6,6.1,4h0.1
		c0.8-1.2,1.7-2.1,2.7-2.7c1.2-0.9,2.6-1.3,4.4-1.3c3.6,0,7.3,2.5,7.3,9.5v12.9h-5.4v-12.1c0-3.6-1.3-5.8-3.9-5.8
		c-1.9,0-3.3,1.3-3.9,2.9c-0.1,0.5-0.3,1.2-0.3,1.8v13.1h-5.4v-12.7c0-3.1-1.2-5.2-3.8-5.2c-2.1,0-3.5,1.6-4,3.1
		c-0.2,0.5-0.3,1.2-0.3,1.8v13H94V194.1z"/>
	<path class="st7" d="M150.6,202.9c0,2.6,0.1,4.8,0.2,6.6h-4.9l-0.3-3.3h-0.1c-0.9,1.6-3.1,3.8-7,3.8c-4,0-7.6-2.4-7.6-9.5v-12.9
		h5.5v11.9c0,3.6,1.2,6,4.1,6c2.2,0,3.6-1.6,4.2-3c0.2-0.5,0.3-1.1,0.3-1.7v-13.2h5.5V202.9z"/>
	<path class="st7" d="M155.4,194.1c0-2.5,0-4.6-0.2-6.5h4.9l0.3,3.3h0.1c0.9-1.7,3.3-3.8,7-3.8c3.8,0,7.8,2.5,7.8,9.4v13h-5.5v-12.4
		c0-3.1-1.2-5.5-4.2-5.5c-2.2,0-3.7,1.6-4.3,3.2c-0.2,0.5-0.2,1.2-0.2,1.8v12.9h-5.6V194.1z"/>
	<path class="st7" d="M185.9,181.4c0,1.7-1.2,3-3.2,3c-1.8,0-3.1-1.3-3.1-3c0-1.7,1.3-3,3.1-3C184.7,178.4,185.8,179.7,185.9,181.4z
		 M180,209.4v-21.9h5.6v21.9H180z"/>
	<path class="st7" d="M195.9,197.2L195.9,197.2c0.6-0.9,1.3-1.8,1.8-2.6l5.3-7.1h6.7l-8.1,9l9.3,13h-6.8l-6.3-9.7l-1.9,2.2v7.5h-5.5
		v-31.9h5.5V197.2z"/>
	<path class="st7" d="M224.4,209.4L224,207h-0.1c-1.3,1.7-3.6,2.9-6.5,2.9c-4.4,0-6.9-3.2-6.9-6.5c0-5.5,4.9-8.3,13-8.3v-0.4
		c0-1.4-0.6-3.8-4.5-3.8c-2.2,0-4.4,0.7-5.9,1.6l-1.1-3.6c1.6-1,4.5-1.9,7.9-1.9c7,0,9,4.5,9,9.2v7.9c0,2,0.1,3.9,0.3,5.3H224.4z
		 M223.7,198.7c-3.9-0.1-7.7,0.8-7.7,4.1c0,2.2,1.4,3.1,3.2,3.1c2.2,0,3.8-1.4,4.3-3c0.1-0.4,0.2-0.9,0.2-1.2V198.7z"/>
	<path class="st7" d="M240.1,181.3v6.3h5.3v4.1h-5.3v9.7c0,2.7,0.7,4.1,2.8,4.1c0.9,0,1.7-0.1,2.2-0.3l0.1,4.2
		c-0.8,0.3-2.3,0.5-4,0.5c-2,0-3.7-0.7-4.8-1.8c-1.2-1.3-1.7-3.2-1.7-6.1v-10.3h-3.2v-4.1h3.2v-4.9L240.1,181.3z"/>
	<path class="st7" d="M254.3,181.4c0,1.7-1.2,3-3.2,3c-1.8,0-3.1-1.3-3.1-3c0-1.7,1.3-3,3.1-3C253.1,178.4,254.2,179.7,254.3,181.4z
		 M248.4,209.4v-21.9h5.6v21.9H248.4z"/>
	<path class="st7" d="M279.6,198.3c0,8.1-5.7,11.7-11.2,11.7c-6.2,0-11-4.3-11-11.3c0-7.2,4.7-11.6,11.3-11.6
		C275.2,187,279.6,191.6,279.6,198.3z M263,198.5c0,4.2,2.1,7.4,5.4,7.4c3.1,0,5.4-3.1,5.4-7.5c0-3.4-1.5-7.3-5.3-7.3
		C264.6,191.1,263,194.9,263,198.5z"/>
	<path class="st7" d="M282.9,194.1c0-2.5,0-4.6-0.2-6.5h4.9l0.3,3.3h0.1c0.9-1.7,3.3-3.8,7-3.8c3.8,0,7.8,2.5,7.8,9.4v13h-5.5v-12.4
		c0-3.1-1.2-5.5-4.2-5.5c-2.2,0-3.7,1.6-4.3,3.2c-0.2,0.5-0.2,1.2-0.2,1.8v12.9h-5.6V194.1z"/>
	<path class="st7" d="M140.3,242.9c0,2.6,0.1,4.8,0.2,6.6h-4.9l-0.3-3.3h-0.1c-0.9,1.6-3.1,3.8-7,3.8c-4,0-7.6-2.4-7.6-9.5v-12.9
		h5.5v11.9c0,3.6,1.2,6,4.1,6c2.2,0,3.6-1.6,4.2-3c0.2-0.5,0.3-1.1,0.3-1.7v-13.2h5.5V242.9z"/>
	<path class="st7" d="M145.1,234.1c0-2.5,0-4.6-0.2-6.5h4.9l0.3,3.3h0.1c0.9-1.7,3.3-3.8,7-3.8c3.8,0,7.8,2.5,7.8,9.4v13h-5.5v-12.4
		c0-3.1-1.2-5.5-4.2-5.5c-2.2,0-3.7,1.6-4.3,3.2c-0.2,0.5-0.2,1.2-0.2,1.8v12.9h-5.6V234.1z"/>
	<path class="st7" d="M189.9,217.5v25.8c0,2.3,0.1,4.7,0.2,6.2h-5l-0.2-3.5h-0.1c-1.3,2.4-4,4-7.2,4c-5.2,0-9.4-4.5-9.4-11.2
		c0-7.3,4.5-11.7,9.8-11.7c3,0,5.2,1.3,6.2,2.9h0.1v-12.4H189.9z M184.3,236.7c0-0.4,0-1-0.1-1.4c-0.5-2.2-2.3-3.9-4.8-3.9
		c-3.6,0-5.5,3.1-5.5,7.2c0,4,2,6.9,5.5,6.9c2.3,0,4.2-1.5,4.8-3.9c0.1-0.5,0.2-1,0.2-1.6V236.7z"/>
	<path class="st7" d="M53.4,259.1v30.3h-5.5v-30.3H53.4z"/>
	<path class="st7" d="M58.4,274.1c0-2.5,0-4.6-0.2-6.5H63l0.3,3.3h0.1c0.9-1.7,3.3-3.8,7-3.8c3.8,0,7.8,2.5,7.8,9.4v13h-5.5v-12.4
		c0-3.1-1.2-5.5-4.2-5.5c-2.2,0-3.7,1.6-4.3,3.2c-0.2,0.5-0.2,1.2-0.2,1.8v12.9h-5.6V274.1z"/>
	<path class="st7" d="M83.6,289.4v-17.8h-3v-4.1h3v-0.9c0-2.8,0.8-5.7,2.7-7.5c1.6-1.5,3.8-2.1,5.7-2.1c1.5,0,2.7,0.2,3.6,0.5
		l-0.4,4.3c-0.6-0.2-1.4-0.4-2.3-0.4c-2.7,0-3.7,2.3-3.7,5v1.1h4.8v4.1h-4.8v17.8H83.6z"/>
	<path class="st7" d="M117,278.3c0,8.1-5.7,11.7-11.2,11.7c-6.2,0-11-4.3-11-11.3c0-7.2,4.7-11.6,11.3-11.6
		C112.6,267,117,271.6,117,278.3z M100.4,278.5c0,4.2,2.1,7.4,5.4,7.4c3.1,0,5.4-3.1,5.4-7.5c0-3.4-1.5-7.3-5.3-7.3
		C102,271.1,100.4,274.9,100.4,278.5z"/>
	<path class="st7" d="M120.3,274.6c0-3,0-5.1-0.2-7.1h4.8l0.2,4.2h0.2c1.1-3.1,3.6-4.7,6-4.7c0.5,0,0.9,0,1.3,0.1v5.2
		c-0.5-0.1-0.9-0.2-1.6-0.2c-2.7,0-4.5,1.7-4.9,4.2c-0.1,0.5-0.2,1.1-0.2,1.7v11.3h-5.5V274.6z"/>
	<path class="st7" d="M135.2,274.1c0-2.5,0-4.6-0.2-6.5h4.8l0.2,3.2h0.1c1.1-1.7,3.1-3.7,6.7-3.7c2.9,0,5.1,1.6,6.1,4h0.1
		c0.8-1.2,1.7-2.1,2.7-2.7c1.2-0.9,2.6-1.3,4.4-1.3c3.6,0,7.3,2.5,7.3,9.5v12.9h-5.4v-12.1c0-3.6-1.3-5.8-3.9-5.8
		c-1.9,0-3.3,1.3-3.9,2.9c-0.1,0.5-0.3,1.2-0.3,1.8v13.1h-5.4v-12.7c0-3.1-1.2-5.2-3.8-5.2c-2.1,0-3.5,1.6-4,3.1
		c-0.2,0.5-0.3,1.2-0.3,1.8v13h-5.4V274.1z"/>
	<path class="st7" d="M184.5,289.4l-0.4-2.4H184c-1.3,1.7-3.6,2.9-6.5,2.9c-4.4,0-6.9-3.2-6.9-6.5c0-5.5,4.9-8.3,13-8.3v-0.4
		c0-1.4-0.6-3.8-4.5-3.8c-2.2,0-4.4,0.7-5.9,1.6l-1.1-3.6c1.6-1,4.5-1.9,7.9-1.9c7,0,9,4.5,9,9.2v7.9c0,2,0.1,3.9,0.3,5.3H184.5z
		 M183.8,278.7c-3.9-0.1-7.6,0.8-7.6,4.1c0,2.2,1.4,3.1,3.1,3.1c2.2,0,3.8-1.4,4.3-3c0.1-0.4,0.2-0.9,0.2-1.2V278.7z"/>
	<path class="st7" d="M200.2,261.3v6.3h5.3v4.1h-5.3v9.7c0,2.7,0.7,4.1,2.8,4.1c0.9,0,1.7-0.1,2.2-0.3l0.1,4.2
		c-0.8,0.3-2.3,0.5-4,0.5c-2,0-3.7-0.7-4.8-1.8c-1.2-1.3-1.7-3.2-1.7-6.1v-10.3h-3.1v-4.1h3.1v-4.9L200.2,261.3z"/>
	<path class="st7" d="M214.4,261.4c0,1.7-1.2,3-3.1,3c-1.8,0-3.1-1.3-3.1-3c0-1.7,1.3-3,3.1-3C213.2,258.4,214.3,259.7,214.4,261.4z
		 M208.5,289.4v-21.9h5.6v21.9H208.5z"/>
	<path class="st7" d="M239.7,278.3c0,8.1-5.7,11.7-11.3,11.7c-6.2,0-11-4.3-11-11.3c0-7.2,4.7-11.6,11.3-11.6
		C235.3,267,239.7,271.6,239.7,278.3z M223.2,278.5c0,4.2,2.1,7.4,5.4,7.4c3.2,0,5.4-3.1,5.4-7.5c0-3.4-1.5-7.3-5.3-7.3
		C224.7,271.1,223.2,274.9,223.2,278.5z"/>
	<path class="st7" d="M243,274.1c0-2.5,0-4.6-0.2-6.5h4.9l0.3,3.3h0.1c0.9-1.7,3.3-3.8,7-3.8c3.8,0,7.8,2.5,7.8,9.4v13h-5.5v-12.4
		c0-3.1-1.2-5.5-4.2-5.5c-2.2,0-3.7,1.6-4.3,3.2c-0.2,0.5-0.2,1.2-0.2,1.8v12.9H243V274.1z"/>
</g>
<g>
	<path class="st0" d="M203.3,125c20.8,19.4,53.4,18.3,72.8-2.4c19.4-20.8,18.3-53.4-2.4-72.8c-20.8-19.4-53.4-18.3-72.8,2.4
		C181.5,73,182.6,105.5,203.3,125"/>
	<path class="st4" d="M36.8,130.6c20.8,19.4,53.4,18.3,72.8-2.4c19.4-20.8,18.3-53.4-2.4-72.8C86.4,35.9,53.8,37,34.4,57.8
		C15,78.6,16.1,111.1,36.8,130.6"/>
	<path class="st9" d="M169.9,73.6l-3.2-2.6c-9.6,11.7-8.6,28.5,1.9,39l2.9-3C162.5,98,161.7,83.7,169.9,73.6 M176.5,78.9l-3.3-2.6
		c-6.8,8.3-6.1,20.2,1.2,27.7l2.9-3.1C171.5,94.9,171.1,85.5,176.5,78.9 M183.1,94.9c-2.6-3-2.7-7.5-0.1-10.7l-3.2-2.6
		c-4,4.9-3.7,11.8,0.4,16.3L183.1,94.9z"/>
	<path class="st9" d="M139.7,107.7l3.2,2.6c9.7-11.7,8.6-28.5-1.9-39l-2.9,3C147.1,83.3,147.9,97.7,139.7,107.7 M133.2,102.4
		l3.3,2.6c6.8-8.3,6.1-20.2-1.2-27.7l-2.9,3.1C138.1,86.5,138.6,95.9,133.2,102.4 M126.6,86.5c2.6,3,2.7,7.5,0.1,10.7l3.2,2.6
		c4-4.9,3.7-11.8-0.4-16.3L126.6,86.5z"/>
	<path class="st2" d="M232.7,59.6"/>
	<path class="st2" d="M204.4,103.7"/>
	<path class="st2" d="M207.4,74.6"/>
	<path class="st8" d="M213.7,65.1c4,3.8,10.3,3.6,14.1-0.5s3.6-10.3-0.5-14.1c-4-3.8-10.3-3.6-14.1,0.5
		C209.5,55,209.7,61.3,213.7,65.1"/>
	<path class="st1" d="M216.3,125.9c4,3.8,10.3,3.6,14.1-0.5c3.8-4,3.6-10.3-0.5-14.1c-4-3.8-10.3-3.6-14.1,0.5
		C212.1,115.9,212.3,122.2,216.3,125.9"/>
	<path class="st1" d="M266.3,93.7c4,3.8,10.3,3.6,14.1-0.5c3.8-4,3.6-10.3-0.5-14.1s-10.3-3.6-14.1,0.5
		C262.1,83.6,262.3,89.9,266.3,93.7"/>
	<line class="st5" x1="254.7" y1="98.8" x2="234.8" y2="111.8"/>
	<polygon class="st9" points="250.6,96.3 262.4,94 255.5,104 254.7,98.9 	"/>
	<line class="st5" x1="239.7" y1="69.2" x2="260.8" y2="79.9"/>
	<polygon class="st9" points="239.5,73.9 231.7,64.9 243.7,65.9 239.8,69.1 	"/>
	<line class="st5" x1="219.1" y1="80.7" x2="219.5" y2="104.3"/>
	<polygon class="st9" points="214.8,82.7 219.1,71.6 223.8,82.6 219.2,80.7 	"/>
</g>
</svg>
