<?xml version="1.0" encoding="utf-8"?>
<!-- Generator: Adobe Illustrator 16.0.3, SVG Export Plug-In . SVG Version: 6.00 Build 0)  -->
<!DOCTYPE svg PUBLIC "-//W3C//DTD SVG 1.1//EN" "http://www.w3.org/Graphics/SVG/1.1/DTD/svg11.dtd" [
	<!ENTITY ns_extend "http://ns.adobe.com/Extensibility/1.0/">
	<!ENTITY ns_ai "http://ns.adobe.com/AdobeIllustrator/10.0/">
	<!ENTITY ns_graphs "http://ns.adobe.com/Graphs/1.0/">
	<!ENTITY ns_vars "http://ns.adobe.com/Variables/1.0/">
	<!ENTITY ns_imrep "http://ns.adobe.com/ImageReplacement/1.0/">
	<!ENTITY ns_sfw "http://ns.adobe.com/SaveForWeb/1.0/">
	<!ENTITY ns_custom "http://ns.adobe.com/GenericCustomNamespace/1.0/">
	<!ENTITY ns_adobe_xpath "http://ns.adobe.com/XPath/1.0/">
]>
<svg version="1.1" xmlns:x="&ns_extend;" xmlns:i="&ns_ai;" xmlns:graph="&ns_graphs;"
	 xmlns="http://www.w3.org/2000/svg" xmlns:xlink="http://www.w3.org/1999/xlink" x="0px" y="0px" width="291px" height="291px"
	 viewBox="0 0 291 291" style="enable-background:new 0 0 291 291;" xml:space="preserve">
<style type="text/css">
<![CDATA[
	.st0{display:none;fill:#FFFFFF;}
	.st1{fill:none;stroke:#FFFFFF;stroke-width:6;stroke-miterlimit:10;}
	.st2{fill:#2F98C1;}
	.st3{fill:#FFFFFF;}
	.st4{fill:#CAE4EE;}
	.st5{opacity:0.74;fill:#FFFFFF;}
]]>
</style>
<metadata>
	<sfw  xmlns="&ns_sfw;">
		<slices></slices>
		<sliceSourceBounds  height="291" width="291" y="-7.1" x="-20.9" bottomLeftOrigin="true"></sliceSourceBounds>
	</sfw>
</metadata>
<g id="Ebene_1">
	<path class="st2" d="M254.5,291h-218C16.4,291,0,274.6,0,254.5v-218C0,16.4,16.4,0,36.5,0h218C274.6,0,291,16.4,291,36.5v218
		C291,274.6,274.6,291,254.5,291z"/>
	<g>
		<path class="st3" d="M40.9,252.1l-0.4-2.5h-0.1c-1.4,1.8-3.8,3.1-6.8,3.1c-4.6,0-7.2-3.3-7.2-6.8c0-5.8,5.1-8.7,13.6-8.7v-0.4
			c0-1.5-0.6-4-4.7-4c-2.3,0-4.6,0.7-6.2,1.7l-1.1-3.8c1.7-1,4.7-2,8.3-2c7.3,0,9.4,4.7,9.4,9.6v8.3c0,2.1,0.1,4.1,0.3,5.5H40.9z
			 M40.2,240.9c-4.1-0.1-8,0.8-8,4.3c0,2.3,1.5,3.3,3.3,3.3c2.3,0,4-1.5,4.5-3.1c0.1-0.4,0.2-0.9,0.2-1.3V240.9z"/>
		<path class="st3" d="M72.4,245.2c0,2.7,0.1,5,0.2,6.9h-5.1l-0.3-3.5h-0.1c-1,1.6-3.2,4-7.3,4c-4.2,0-8-2.5-8-10v-13.4h5.8v12.5
			c0,3.8,1.2,6.3,4.3,6.3c2.3,0,3.8-1.6,4.4-3.1c0.2-0.5,0.3-1.1,0.3-1.8v-13.8h5.8V245.2z"/>
		<path class="st3" d="M85.3,222.6v6.5h5.5v4.3h-5.5v10.1c0,2.8,0.8,4.2,3,4.2c1,0,1.7-0.1,2.3-0.3l0.1,4.4
			c-0.8,0.3-2.4,0.6-4.2,0.6c-2.1,0-3.9-0.7-5-1.9c-1.2-1.3-1.8-3.4-1.8-6.4v-10.8h-3.3v-4.3h3.3V224L85.3,222.6z"/>
		<path class="st3" d="M95.2,218.7h5.8v13.6h0.1c0.7-1.1,1.6-2,2.9-2.6c1.1-0.7,2.5-1,3.9-1c3.9,0,8,2.6,8,9.9v13.5h-5.8v-12.8
			c0-3.3-1.2-5.8-4.4-5.8c-2.3,0-3.9,1.5-4.5,3.2c-0.2,0.5-0.2,1.1-0.2,1.7v13.7h-5.8V218.7z"/>
		<path class="st3" d="M126.2,242.2c0.1,4.1,3.4,5.9,7.1,5.9c2.7,0,4.6-0.4,6.3-1l0.8,4c-2,0.8-4.7,1.4-8,1.4
			c-7.4,0-11.8-4.6-11.8-11.6c0-6.3,3.9-12.3,11.2-12.3c7.4,0,9.9,6.1,9.9,11.1c0,1.1-0.1,1.9-0.2,2.4H126.2z M136.2,238.2
			c0-2.1-0.9-5.6-4.7-5.6c-3.6,0-5.1,3.2-5.3,5.6H136.2z"/>
		<path class="st3" d="M146.3,236c0-2.6,0-4.8-0.2-6.8h5.1l0.3,3.4h0.1c1-1.8,3.5-3.9,7.3-3.9c4,0,8.1,2.6,8.1,9.8v13.6h-5.8v-12.9
			c0-3.3-1.2-5.8-4.4-5.8c-2.3,0-3.9,1.6-4.5,3.4c-0.2,0.5-0.2,1.2-0.2,1.9v13.4h-5.8V236z"/>
		<path class="st3" d="M179.6,222.6v6.5h5.5v4.3h-5.5v10.1c0,2.8,0.8,4.2,3,4.2c1,0,1.7-0.1,2.3-0.3l0.1,4.4
			c-0.8,0.3-2.4,0.6-4.2,0.6c-2.1,0-3.9-0.7-5-1.9c-1.2-1.3-1.8-3.4-1.8-6.4v-10.8h-3.3v-4.3h3.3V224L179.6,222.6z"/>
		<path class="st3" d="M195.7,222.8c0,1.7-1.3,3.1-3.3,3.1c-1.9,0-3.2-1.4-3.2-3.1c0-1.8,1.3-3.1,3.2-3.1
			C194.4,219.6,195.6,221,195.7,222.8z M189.5,252.1v-22.9h5.8v22.9H189.5z"/>
		<path class="st3" d="M201.3,246.7c1.3,0.8,3.8,1.6,5.9,1.6c2.5,0,3.7-1,3.7-2.5c0-1.6-0.9-2.4-3.8-3.3c-4.5-1.6-6.3-4-6.3-6.7
			c0-4,3.3-7.2,8.7-7.2c2.5,0,4.7,0.7,6.1,1.4l-1.1,4.1c-1-0.6-2.8-1.3-4.8-1.3c-2.1,0-3.2,1-3.2,2.4c0,1.5,1.1,2.2,4,3.2
			c4.1,1.5,6.1,3.6,6.1,7c0,4.1-3.2,7.1-9.3,7.1c-2.8,0-5.3-0.7-7-1.6L201.3,246.7z"/>
		<path class="st3" d="M238,251.4c-1.2,0.6-3.6,1.2-6.5,1.2c-7.1,0-11.8-4.6-11.8-11.7c0-6.9,4.7-12.2,12.7-12.2
			c2.1,0,4.3,0.5,5.6,1.1l-1,4.3c-0.9-0.4-2.3-0.9-4.4-0.9c-4.4,0-7.1,3.2-7,7.4c0,4.7,3.1,7.4,7,7.4c2,0,3.4-0.4,4.6-0.9L238,251.4
			z"/>
		<path class="st3" d="M242.3,218.7h5.8v13.6h0.1c0.7-1.1,1.6-2,2.9-2.6c1.1-0.7,2.5-1,3.9-1c3.9,0,8,2.6,8,9.9v13.5h-5.8v-12.8
			c0-3.3-1.2-5.8-4.4-5.8c-2.3,0-3.9,1.5-4.5,3.2c-0.2,0.5-0.2,1.1-0.2,1.7v13.7h-5.8V218.7z"/>
	</g>
	<path class="st5" d="M137.2,86.3c0-18.3,14.5-32.9,32.4-32.8c17.8,0.1,32,14.6,32,32.8c0,14.3,0,19.2,0,34.3
		c-5,2.1-13.5,6.6-20.2,6.5c-2.4,0-4.1-0.2-4-3.3c-5.3,2.4-10.4,2.6-15.7,0.1c-0.3,1.1,0,2.7-2.1,2.8c-2.7-0.1-15.2-1.8-22.3-4.9
		 M148,81.2c-1.9,12.5-0.8,26.2,8.1,35.5c7.8,8.1,18.7,7.9,26.7-0.1c6.3-6.4,8.9-14.5,9.2-23.3c0.1-3.2,0-6.1-1.2-12.1
		C180.8,86.2,159.3,87.2,148,81.2z"/>
	<path id="body" class="st5" d="M132.2,167.8c0-8.2-0.4-16.4,0.1-24.5c0.4-6.8,6.4-12.3,13-12.9c3.9-0.4,7.8-0.1,11.7-0.2
		c1.2,0,2.4,0,4.1,0c0,3.3,0,6.3,0,9.3c0.1,5.3,3.3,8.8,8.1,8.9c4.9,0.1,8.3-3.5,8.4-9c0.1-2.9,0-5.8,0-8.9c5.9,0,11.5-0.6,17,0.1
		c6.9,0.9,11.8,7.2,12,14.2c0.2,6.8-0.2,13.6-0.1,20.5c0,2-0.6,20-2.7,20c-23.4-0.1-46.8-0.1-70.2-0.1
		C133.3,185.3,133.1,168,132.2,167.8z"/>
	<path class="st4" d="M194.9,146.1l5.1-2.6c3.4-2.1,4.7-8.8,6.8,0.3l10.5,34.3c1.3,4.1-1.1,8.5-5.2,9.8l0,0
		c-4.1,1.3-8.5-1.1-9.8-5.2l-12.7-34.3C190.7,147.4,193.4,147.1,194.9,146.1z"/>
	<path class="st0" d="M159.8,124.4c0.7-2.4,6.6-0.9,12.9-3.5c1.8-0.7,0.2,0.5,9.7-8.9c9.4-13.6,18.7-41,21.4-40.9
		c6.6,0.1,8.7,41.8,1.4,46.5c-1.9,1.2-8.1,5.8-12.8,8.7c-3.9,2.4-4.3,2.8-6.2,3.5c-6,2.2-17.3,6.1-23,2.9
		C160.9,131.4,159.3,126.2,159.8,124.4z"/>
	<path class="st4" d="M118.2,177.3L118.2,177.3c-3.6-2.3-4.7-7.2-2.4-10.8l19.3-30.2c2.3-3.6,5.7-5.8,7.3-3.9l0,0
		c1.7,0.5,3.3,16.4,0.9,20L129,175C126.7,178.6,121.8,179.7,118.2,177.3z"/>
	<polyline class="st1" points="97,59.4 97,32.4 239.4,32.4 239.4,188.2 137.2,188.2 	"/>
</g>
<g id="asfd">
	<path class="st3" d="M58.4,101.6c0.1-21.3,16.9-38.4,37.7-38.2c20.7,0.2,37.2,17,37.3,38.2c0,16.6,0,22.4,0,40
		c-5.8,2.4-12.1,5-22.2,6.9c-3.6,0.9-9.4,1.4-13.1,1.3c-5.6,0.1-6.8,0-8.7-0.3c-1.5-0.2-1.9-0.1-4.4-0.4c-3.2-0.1-18.4-2.5-26.7-6.2
		 M122.4,135.9C120.1,150.5,112,125.1,122.4,135.9c9.1,9.4-20,10.3-10.8,0.9c7.3-7.5,10.4-16.9,10.8-27.1c0.1-3.7,0-7.1-1.4-14.1
		C130.9,105.3,135.5,142.9,122.4,135.9z"/>
	<path id="body_4_" class="st3" d="M95.9,152.8"/>
	<path id="body_2_" class="st3" d="M105.6,153.2c6.8,0,13.4-0.7,19.8,0.2c8,1.1,13.8,8.3,14,16.6c0.2,7.9-0.2,15.9-0.2,23.9
		c0,2.4-0.7,3.3-3.2,3.3c-27.3-0.1-54.6-0.1-81.8-0.1c-0.3,0-0.6-0.1-1.6-0.4c0-9.6-0.5-19.1,0.1-28.5c0.5-7.9,7.4-14.3,15.2-15
		c4.5-0.4,9.1-0.2,13.6-0.2c1.4,0,2.8,0,4.8,0"/>
	<path class="st3" d="M124.9,168.7l6-2.8c4-2.2,6-8.2,7.7-0.3l9.1,29.8c1.1,3.6-1.9,7.7-6.7,9.2l0,0c-4.8,1.5-9.6-0.3-10.7-3.8
		l-11.6-29.6C120,170.2,123.1,169.7,124.9,168.7z"/>
	<path class="st3" d="M36.2,207.7L36.2,207.7c-4.2-2.7-5.5-8.4-2.8-12.6L56,159.9c2.7-4.2,6.6-6.8,8.5-4.6l0,0
		c2,0.6,3.8,19.1,1.1,23.4l-16.8,26.2C46.1,209.1,40.5,210.4,36.2,207.7z"/>
	<rect x="22.9" y="197.1" class="st2" width="145.3" height="14.6"/>
</g>
</svg>
