<?xml version="1.0" encoding="utf-8"?>
<!-- Generator: Adobe Illustrator 16.0.3, SVG Export Plug-In . SVG Version: 6.00 Build 0)  -->
<!DOCTYPE svg PUBLIC "-//W3C//DTD SVG 1.1//EN" "http://www.w3.org/Graphics/SVG/1.1/DTD/svg11.dtd" [
	<!ENTITY ns_extend "http://ns.adobe.com/Extensibility/1.0/">
	<!ENTITY ns_ai "http://ns.adobe.com/AdobeIllustrator/10.0/">
	<!ENTITY ns_graphs "http://ns.adobe.com/Graphs/1.0/">
	<!ENTITY ns_vars "http://ns.adobe.com/Variables/1.0/">
	<!ENTITY ns_imrep "http://ns.adobe.com/ImageReplacement/1.0/">
	<!ENTITY ns_sfw "http://ns.adobe.com/SaveForWeb/1.0/">
	<!ENTITY ns_custom "http://ns.adobe.com/GenericCustomNamespace/1.0/">
	<!ENTITY ns_adobe_xpath "http://ns.adobe.com/XPath/1.0/">
]>
<svg version="1.1" id="Ebene_1" xmlns:x="&ns_extend;" xmlns:i="&ns_ai;" xmlns:graph="&ns_graphs;"
	 xmlns="http://www.w3.org/2000/svg" xmlns:xlink="http://www.w3.org/1999/xlink" x="0px" y="0px" width="290.9px" height="290.9px"
	 viewBox="0 0 290.9 290.9" style="enable-background:new 0 0 290.9 290.9;" xml:space="preserve">
<style type="text/css">
<![CDATA[
	.st0{display:none;fill:#FFFFFF;}
	.st1{fill:#B74F90;}
	.st2{display:none;fill:none;stroke:#FFFFFF;stroke-width:6;stroke-miterlimit:10;}
	.st3{opacity:0.35;fill:#FFFFFF;}
	.st4{display:none;fill:none;stroke:#FFFFFF;stroke-width:9;stroke-linecap:round;stroke-miterlimit:10;}
	.st5{display:none;fill:none;stroke:#FFFFFF;stroke-width:13;stroke-linecap:round;stroke-miterlimit:10;}
	.st6{fill:#FCFBFB;}
	.st7{fill:#FEFDFD;}
	.st8{display:none;fill:none;}
	.st9{fill:#FFFFFF;}
	.st10{fill:#030404;}
	.st11{fill:#3D3B3D;}
	.st12{display:none;}
	.st13{display:inline;opacity:0.35;fill:#FFFFFF;}
]]>
</style>
<metadata>
	<sfw  xmlns="&ns_sfw;">
		<slices></slices>
		<sliceSourceBounds  width="290.9" height="290.9" x="-21.5" y="12" bottomLeftOrigin="true"></sliceSourceBounds>
	</sfw>
</metadata>
<path class="st1" d="M254.4,290.9H36.5C16.4,290.9,0,274.5,0,254.4V36.5C0,16.4,16.4,0,36.5,0h217.9c20.1,0,36.5,16.4,36.5,36.5
	v217.9C290.9,274.5,274.5,290.9,254.4,290.9z"/>
<g>
	<path class="st9" d="M117.6,240.1h-9v-4.8h23.9v4.8h-9.1V267h-5.8V240.1z"/>
	<path class="st9" d="M154.1,255.3c0,8.4-5.9,12.2-11.7,12.2c-6.5,0-11.5-4.5-11.5-11.8c0-7.5,4.9-12.1,11.8-12.1
		C149.6,243.6,154.1,248.4,154.1,255.3z M136.9,255.6c0,4.4,2.2,7.8,5.7,7.8c3.3,0,5.6-3.2,5.6-7.8c0-3.6-1.6-7.7-5.5-7.7
		C138.5,247.8,136.9,251.7,136.9,255.6z"/>
	<path class="st9" d="M158.9,250.9c0-2.6,0-4.8-0.2-6.8h5.1l0.3,3.4h0.1c1-1.8,3.5-3.9,7.3-3.9c4,0,8.1,2.6,8.1,9.8V267h-5.8v-12.9
		c0-3.3-1.2-5.8-4.4-5.8c-2.3,0-3.9,1.6-4.5,3.4c-0.2,0.5-0.2,1.2-0.2,1.9V267h-5.8V250.9z"/>
</g>
<path class="st0" d="M160.4,143.4c0.7-2.4,6.6-0.9,12.9-3.5c1.8-0.7,0.2,0.5,9.7-8.9c9.4-13.6,18.7-41,21.4-40.9
	c6.6,0.1,8.7,41.8,1.4,46.5c-1.9,1.2-8.1,5.8-12.8,8.7c-3.9,2.4-4.3,2.8-6.2,3.5c-5.9,2.2-17.3,6.1-23,2.9
	C161.5,150.4,159.9,145.1,160.4,143.4z"/>
<g>
	<path class="st9" d="M72.4,211.5c0,10.6-6.4,16.6-15.1,16.6c-8.9,0-14.5-6.8-14.5-16.1c0-9.7,6.1-16.5,15-16.5
		C67,195.5,72.4,202.5,72.4,211.5z M48.9,211.9c0,6.4,3.2,11.5,8.8,11.5c5.6,0,8.7-5.1,8.7-11.7c0-5.9-2.9-11.6-8.7-11.6
		C51.9,200.1,48.9,205.4,48.9,211.9z"/>
	<path class="st9" d="M92.4,227.6v-18.5h-8.3v18.5h-5.8v-18.5h-3.1v-4.3h3.1v-0.6c0-2.9,0.7-5.7,2.6-7.5c1.4-1.5,3.5-2.3,6.4-2.3
		c1.2,0,2.4,0.3,3.1,0.7l-0.9,4.3c-0.6-0.2-1.3-0.4-2.1-0.4c-2.6,0-3.4,2.2-3.4,5.1v0.9h8.3v-1c0-2.9,0.8-5.9,2.8-7.8
		c1.7-1.6,3.9-2.2,5.9-2.2c1.5,0,2.8,0.2,3.7,0.6l-0.4,4.4c-0.7-0.2-1.4-0.4-2.5-0.4c-2.9,0-3.8,2.4-3.8,5.2v1.2h5v4.3h-4.9v18.5
		H92.4z"/>
	<path class="st9" d="M106.1,222.3c1.3,0.8,3.8,1.6,5.8,1.6c2.5,0,3.7-1,3.7-2.5c0-1.5-0.9-2.3-3.7-3.3c-4.4-1.5-6.3-4-6.3-6.6
		c0-4,3.3-7.2,8.6-7.2c2.5,0,4.7,0.7,6,1.4l-1.1,4.1c-1-0.6-2.8-1.3-4.8-1.3c-2.1,0-3.2,1-3.2,2.4c0,1.5,1.1,2.2,4,3.2
		c4.1,1.5,6,3.6,6.1,7c0,4.1-3.2,7.1-9.3,7.1c-2.8,0-5.2-0.7-6.9-1.6L106.1,222.3z"/>
	<path class="st9" d="M142.6,226.9c-1.2,0.6-3.6,1.2-6.5,1.2c-7.1,0-11.7-4.5-11.7-11.6c0-6.8,4.7-12.2,12.7-12.2
		c2.1,0,4.3,0.5,5.6,1.1l-1,4.3c-0.9-0.4-2.3-0.9-4.4-0.9c-4.4,0-7,3.2-7,7.4c0,4.7,3,7.3,7,7.3c2,0,3.4-0.4,4.5-0.9L142.6,226.9z"
		/>
	<path class="st9" d="M146.9,212.1c0-3.1,0-5.3-0.2-7.3h5l0.2,4.4h0.2c1.1-3.2,3.8-4.9,6.2-4.9c0.6,0,0.9,0,1.4,0.1v5.4
		c-0.5-0.1-1-0.2-1.7-0.2c-2.8,0-4.6,1.8-5.1,4.4c-0.1,0.5-0.2,1.1-0.2,1.8v11.8h-5.8V212.1z"/>
	<path class="st9" d="M167.2,217.8c0.1,4.1,3.4,5.9,7,5.9c2.7,0,4.6-0.4,6.3-1l0.8,4c-2,0.8-4.7,1.4-8,1.4
		c-7.4,0-11.7-4.5-11.7-11.5c0-6.3,3.8-12.3,11.1-12.3c7.4,0,9.8,6.1,9.8,11.1c0,1.1-0.1,1.9-0.2,2.4H167.2z M177.2,213.8
		c0-2.1-0.9-5.6-4.7-5.6c-3.6,0-5.1,3.2-5.3,5.6H177.2z"/>
	<path class="st9" d="M191.3,217.8c0.1,4.1,3.4,5.9,7,5.9c2.7,0,4.6-0.4,6.3-1l0.8,4c-2,0.8-4.7,1.4-8,1.4
		c-7.4,0-11.7-4.5-11.7-11.5c0-6.3,3.8-12.3,11.1-12.3c7.4,0,9.8,6.1,9.8,11.1c0,1.1-0.1,1.9-0.2,2.4H191.3z M201.3,213.8
		c0-2.1-0.9-5.6-4.7-5.6c-3.6,0-5.1,3.2-5.3,5.6H201.3z"/>
	<path class="st9" d="M211.4,211.6c0-2.6,0-4.8-0.2-6.8h5.1l0.3,3.4h0.1c1-1.8,3.5-3.9,7.3-3.9c4,0,8.1,2.6,8.1,9.8v13.5h-5.8v-12.9
		c0-3.3-1.2-5.8-4.4-5.8c-2.3,0-3.9,1.6-4.5,3.4c-0.2,0.5-0.2,1.2-0.2,1.9v13.4h-5.8V211.6z"/>
	<path class="st9" d="M248.4,213.1v4h-11.9v-4H248.4z"/>
</g>
<g class="st12">
	<path class="st13" d="M98.2,102.8c0.3-0.8,0.4-1.7,0.9-2.3c15.6-16,31.1-32,46.7-47.9c1.5-1.5,3.1-3,4.1-4
		c17.6,17.8,35,35.4,51.6,52.2c-0.9,2.6-2.7,5.2-2.7,7.8c-0.2,23-0.1,45.9-0.1,68.9c0,2.3,0,4.7,0,7.4c-9.7,0-18.8,0-28.7,0
		c0-14.2,0-28.3,0-43c-12.8,0-24.8,0-37.7,0c0,14.2,0,28.4,0,43c-9.9,0-18.9,0-28.6,0c-0.1-2.3-0.3-4.6-0.3-6.9
		c0-23.4-0.1-46.8,0-70.2c0-4-0.7-6.5-5.3-5.2C98,102.6,98.2,102.8,98.2,102.8z"/>
	<path class="st3" d="M138.2,147.2c8.7,0,17.1,0,26.1,0c0,12.1,0,24,0,36.6c-8.4,0-17,0-26.1,0C138.2,172.1,138.2,160.1,138.2,147.2
		z"/>
</g>
<line class="st5" x1="79" y1="120.2" x2="151.9" y2="48.4"/>
<line class="st5" x1="222.9" y1="120.2" x2="151.9" y2="48.4"/>
<polyline class="st4" points="100.5,103.9 100.5,187.4 201.5,187.4 201.5,101.4 "/>
<line class="st8" x1="134.7" y1="189.1" x2="133.7" y2="271.3"/>
<line class="st8" x1="133.5" y1="187.4" x2="134.2" y2="187.4"/>
<polyline class="st8" points="134.2,184.8 134.2,144.4 134.2,143.4 "/>
<line class="st2" x1="135.2" y1="188.9" x2="135.2" y2="141.4"/>
<line class="st2" x1="167.2" y1="188.9" x2="167.2" y2="141.4"/>
<line class="st2" x1="137.3" y1="144.4" x2="167.5" y2="144.4"/>
<polyline class="st8" points="169.5,102.8 169.5,62.3 169.5,61.3 "/>
<line class="st2" x1="198.2" y1="101.4" x2="198.2" y2="53.9"/>
<line class="st2" x1="182.6" y1="80.4" x2="182.6" y2="53.9"/>
<line class="st2" x1="182.1" y1="56.9" x2="199.4" y2="56.9"/>
<g>
	<path class="st10" d="M187.3,26.7c22.3,0,44.6,0,66.9,0c7.4,0,11,3.4,11,10.9c0.1,26.3,0.1,52.6,0,79c0,7.3-3.2,11.1-10.7,12.8
		c-11.9,2.7-24.1,2.6-36.1,2.7c-26.6,0.2-53.3,0.5-79.9-0.9c-6.9-0.4-13.9-0.8-20.6-2.6c-5.5-1.5-8.4-4.7-8.5-10.3
		c-0.1-27.5-0.1-54.9,0-82.4c0-6,3.8-9.2,10.1-9.2C142.1,26.7,164.7,26.7,187.3,26.7z"/>
	<path class="st6" d="M140.8,85.7c-8.4-0.2-16.8,0-25.2,0c0-14.1-0.1-28.1,0-42.2c0-8.6,3.2-11.7,11.6-11.7c40.2,0,80.4,0,120.6,0
		c8,0,10.7,2.7,10.7,10.7c0,14.4-0.1,28.7-0.2,43.1c-12.1,0-24.2-0.1-36.3,0.1c-5.3,0.1-10.4,0.7-10.9-6.9c-0.6,1.5-1.1,3.1-2,5.7
		c-1.4-4.3-2.5-7.5-4-12c-1.3,4.2-2.1,7.1-3.1,10c-0.4,1.1-0.4,2.9-2.1,2.9c-2.3-0.1-1.5-2.1-1.6-3.4c-1.1-9.2-2-18.4-3-27.5
		c-2.6,8.6-2.1,17.7-5,26.1c-1.1-11.8-1.8-23.5-2.6-35.2c-0.1-1.3,0.6-3.5-1.5-3.4c-2,0.1-1.3,2.3-1.4,3.6
		c-0.7,10.6-1.3,21.3-2,31.9c-0.1,0.9,0.6,2.4-1.2,2.5c-0.8-0.6-0.6-1.5-0.6-2.2c-0.7-13.2-1.3-26.4-2-39.6
		c-0.1-1.3,0.6-3.5-1.5-3.4c-2.1,0-1.3,2.2-1.3,3.5c-0.8,13-1.4,26.1-2.3,39.1c-0.2,2.7,0.4,5.7-1.9,8.7c-1.4-3.9-2.5-7.2-3.8-10.8
		c-3.2,3.5-4.6,7.5-10.5,8.1"/>
	<path class="st7" d="M186.6,119.4c-19.4,0-38.7,0-58.1,0c-9.3,0-12.8-3.4-12.9-12.8c-0.1-6,0-11.9,0-17.9
		c17.2-0.1,34.4-0.1,51.6-0.2c2.2,0,3.2,0.9,3.7,2.9c0.8,3,1.8,5.9,2.9,9.3c2.4-3.2,1.1-6.5,1.8-9.3c0.3-1.2,0.1-2.8,2-2.7
		c2.1,0.1,1.5,1.8,1.6,2.9c0.4,7.2,0.8,14.5,1.2,21.7c0.1,1.2-0.4,2.9,1.6,2.8c1.6-0.1,1.2-1.7,1.2-2.7c0.5-6.9,0.9-13.8,1.4-20.7
		c0.1-1.4-0.7-3.7,1.6-3.9c2.6-0.2,1.6,2.2,1.8,3.6c0.3,2.4,0.5,4.8,0.6,7.2c0.1,1.1-0.1,2.6,1.5,2.5c1.5-0.1,1.3-1.6,1.5-2.7
		c0.3-2.6,0.6-5.1,1-7.7c0.2-1.3-0.3-3.1,2-3.2c2.3-0.1,1.9,1.6,2.1,3c0.4,2.8,0.7,5.7,1,8.8c3.2-2,2.8-5.5,4-8.1
		c0.7-1.6,0.6-3.9,3.5-3.8c2.5,0.1,2.7,1.8,3.2,3.5c0.2,0.7,0.7,1.4,1,2.2c1.4-1.6,0.6-3.8,2.2-5.1c0.9,1,0.3,2.8,2.1,3.2
		c0.9-2.3,1.9-4,5-4c13.2,0.3,26.5,0.2,39.7,0.2c0,6.6,0.1,13.2,0.1,19.9c0,7.6-3.3,10.9-10.9,10.9c-19.9,0.1-39.7,0-59.6,0.1
		C187.6,119.4,187.1,119.4,186.6,119.4z"/>
	<path class="st11" d="M178,63.3c-0.3,0.1-0.5,0.1-0.8,0.2c-0.4,6.4-0.8,12.7-1.1,19.1c-0.1,1.2-0.6,2.9,1.3,3
		c2.4,0.1,1.6-1.9,1.6-3.1C178.8,76,178.4,69.7,178,63.3z M186.8,68c-0.2,0-0.5,0-0.7,0c-0.4,5.1-0.7,10.2-1,15.3
		c-0.1,1.1-0.2,2.4,1.6,2.3c1.4-0.1,1.3-1.2,1.3-2.1C187.5,78.3,187.1,73.2,186.8,68z M194.7,77.4c-1.2,2.6-1.5,5.3-0.5,7.9
		c0,0.1,1.1,0.1,1.2,0C196.5,82.5,195.7,79.9,194.7,77.4z M167.3,80.7c-1.1,1.9-3.2,2.7-2.1,4.7c0.2,0.4,2,0.5,2.7,0.1
		C169.7,84.2,168.3,82.8,167.3,80.7z"/>
	<path class="st9" d="M178,63.3c0.3,6.4,0.7,12.8,1,19.1c0.1,1.2,0.9,3.3-1.6,3.1c-1.9-0.1-1.4-1.8-1.3-3c0.3-6.4,0.7-12.7,1.1-19.1
		C177.5,63.4,177.8,63.3,178,63.3z"/>
	<path class="st9" d="M186.8,68c0.4,5.2,0.8,10.3,1.1,15.5c0.1,0.9,0.1,2-1.3,2.1c-1.8,0.1-1.6-1.2-1.6-2.3c0.3-5.1,0.7-10.2,1-15.3
		C186.3,68,186.5,68,186.8,68z"/>
	<path class="st9" d="M194.7,77.4c1,2.6,1.9,5.2,0.7,7.9c-0.1,0.2-1.1,0.2-1.2,0C193.2,82.6,193.5,80,194.7,77.4z"/>
	<path class="st9" d="M167.3,80.7c1,2.1,2.4,3.5,0.5,4.8c-0.6,0.4-2.5,0.4-2.7-0.1C164.1,83.4,166.2,82.6,167.3,80.7z"/>
</g>
<g>
	<path d="M109.4,133.1c-4.1,0-8.2,0.1-12.2,0c-3.3-0.1-6.2,0.1-7.4,4.6c-0.9-1.6-1.5-2.6-2.3-4.1c-0.7,1.9-1.2,3.3-2,5.4
		c-0.6-1.4-1-2.2-1.3-3.2c-0.5-1.7-1.3-2.7-3.3-2.7c-2,0-2.7,1.2-3.2,2.8c-0.5,1.8-1,3.7-1.7,5.5c-0.5,1.3-1.3,2.5-1.9,3.8
		c-0.3-0.1-0.5-0.1-0.8-0.2c-0.3-2.6-0.5-5.2-1-7.8c-0.3-1.5,0.5-3.9-2.2-3.9c-2.7,0-2.1,2.3-2.3,3.9c-0.4,2.7-0.6,5.5-1.1,8.3
		c-0.1,0.7-0.9,1.2-1.4,1.9c-0.4-0.6-1.2-1.2-1.3-1.9c-0.4-3.2-0.4-6.4-0.8-9.6c-0.1-0.8-1-2-1.7-2.2c-1.5-0.3-2,0.8-2,2.3
		c-0.4,7.8-0.9,15.6-1.4,23.4c-0.1,0.9-0.9,1.7-1.3,2.6c-0.5-0.8-1.4-1.7-1.4-2.5c-0.5-7.9-0.8-15.8-1.2-23.6c0-0.8-0.9-1.6-1.4-2.4
		c-0.7,0.7-1.9,1.2-2.1,2c-0.5,1.5-0.3,3.3-0.5,4.9c-0.2,1.7-0.6,3.3-0.9,4.9c-0.3,0-0.5,0-0.8,0c-0.9-2.7-1.8-5.5-2.6-8.3
		c-0.7-2.7-2.2-3.8-5-3.7c-10.1,0.1-20.1,0-30.2,0.1c0-1,0-2.1,0-3.1c2.5-0.1,5,0,7.4-0.2c4.3-0.5,8.6-1.4,12.9-1.8
		c3.9-0.4,6.9-2,9.2-5.2c0.7-1,1.6-2,2.6-3.2c1.4,3.8,2.6,7.3,3.9,10.8c0.2,0,0.4,0.1,0.6,0.1c0.5-1.6,1.3-3.1,1.4-4.7
		c0.9-15.5,1.7-31,2.6-46.5c0-0.7,0.9-1.4,1.3-2.1c0.5,0.7,1.4,1.3,1.4,2c0.7,14.3,1.4,28.6,2.1,42.9c0,0.7,0.3,1.4,0.4,2.2
		c0.2,0.1,0.5,0.1,0.7,0.2c0.3-0.6,0.8-1.2,0.9-1.9c0.7-11.7,1.4-23.4,2.1-35.1c0.1-0.9,0.9-1.8,1.4-2.6c0.5,0.9,1.5,1.8,1.5,2.7
		c0.9,11.5,1.6,23,2.3,34.5c0,0.6,0.2,1.2,0.3,1.8c0.3,0,0.6,0.1,0.8,0.1c1.3-8.1,2.6-16.2,4-24.2c0.2,0,0.4,0,0.6,0
		c0.5,4.1,1,8.1,1.4,12.2c0.6,5.4,1,10.9,1.6,16.3c0.1,0.7,0.9,1.2,1.4,1.9c0.7-0.6,1.9-1,2.2-1.7c1.2-3.5,2.2-7.1,3.5-11.3
		c1.4,4.3,2.7,7.9,4.1,12c0.7-1.7,1.3-3,2.1-4.9c1,5.4,4.5,6.4,8.8,6.3c4.5-0.1,9-0.3,13.5-0.4C109.4,131,109.4,132,109.4,133.1z
		 M52.5,107.1c-0.3,0.1-0.5,0.1-0.8,0.2c-0.4,7.1-0.9,14.1-1.2,21.2c0,0.6,1.1,1.2,1.7,1.8c0.6-0.7,1.6-1.4,1.6-2.1
		c-0.2-6.3-0.6-12.6-1-18.9C52.9,108.5,52.7,107.8,52.5,107.1z M61.9,111.9c-0.3,0-0.6,0-1-0.1c-0.3,5.5-0.7,10.9-0.9,16.4
		c0,0.6,0.9,1.3,1.3,2c0.6-0.7,1.7-1.4,1.6-2.1C62.7,122.7,62.3,117.3,61.9,111.9z M70,121.7c-1.3,2.8-1.8,5.5-0.3,8.4
		C72,128.3,72,125.6,70,121.7z M41.6,125c-0.9,1.1-1.7,1.7-2.1,2.5c-0.3,0.8-0.1,1.7-0.1,2.6c0.9,0,2,0.3,2.6,0
		c0.6-0.3,1-1.5,0.9-2.3C42.8,126.9,42.1,126.1,41.6,125z"/>
</g>
<path class="st9" d="M246.1,117.4H128.1c-6.9,0-12.5-5.6-12.5-12.5V46.4c0-6.9,5.6-12.5,12.5-12.5h117.9c6.9,0,12.5,5.6,12.5,12.5
	v58.4C258.6,111.7,253,117.4,246.1,117.4z"/>
</svg>
