<?xml version="1.0" encoding="utf-8"?>
<!-- Generator: Adobe Illustrator 16.0.3, SVG Export Plug-In . SVG Version: 6.00 Build 0)  -->
<!DOCTYPE svg PUBLIC "-//W3C//DTD SVG 1.1//EN" "http://www.w3.org/Graphics/SVG/1.1/DTD/svg11.dtd" [
	<!ENTITY ns_extend "http://ns.adobe.com/Extensibility/1.0/">
	<!ENTITY ns_ai "http://ns.adobe.com/AdobeIllustrator/10.0/">
	<!ENTITY ns_graphs "http://ns.adobe.com/Graphs/1.0/">
	<!ENTITY ns_vars "http://ns.adobe.com/Variables/1.0/">
	<!ENTITY ns_imrep "http://ns.adobe.com/ImageReplacement/1.0/">
	<!ENTITY ns_sfw "http://ns.adobe.com/SaveForWeb/1.0/">
	<!ENTITY ns_custom "http://ns.adobe.com/GenericCustomNamespace/1.0/">
	<!ENTITY ns_adobe_xpath "http://ns.adobe.com/XPath/1.0/">
]>
<svg version="1.1" xmlns:x="&ns_extend;" xmlns:i="&ns_ai;" xmlns:graph="&ns_graphs;"
	 xmlns="http://www.w3.org/2000/svg" xmlns:xlink="http://www.w3.org/1999/xlink" x="0px" y="0px" width="300px" height="300px"
	 viewBox="0 0 300 300" style="enable-background:new 0 0 300 300;" xml:space="preserve">
<style type="text/css">
<![CDATA[
	.st0{fill:#B74F90;}
	.st1{display:none;fill:none;}
	.st2{fill:#FFFFFF;}
	.st3{fill:none;}
	.st4{fill:none;stroke:#FFFFFF;stroke-width:0.9196;stroke-miterlimit:10;}
]]>
</style>
<metadata>
	<sfw  xmlns="&ns_sfw;">
		<slices></slices>
		<sliceSourceBounds  width="16383" height="16384" x="-8041" y="-8342" bottomLeftOrigin="true"></sliceSourceBounds>
		<optimizationSettings>
			<targetSettings  targetSettingsID="0" fileFormat="PNG24Format">
				<PNG24Format  transparency="true" noMatteColor="false" interlaced="false" matteColor="#FFFFFF" filtered="false">
					</PNG24Format>
			</targetSettings>
		</optimizationSettings>
	</sfw>
</metadata>
<symbol  id="blue" viewBox="-150 -150 300 300">
	<path class="st0" d="M150-97c0-6.8,0-53-71.5-53H-84c-62.5,0-66,47.2-66,54V90c0,54.5,59.2,60,66,60l161.5,0c6.8,0,72.5,0,72.5-60
		V-97z"/>
	<polygon class="st1" points="-150,150 150,150 150,-150 -150,-150 	"/>
</symbol>
<g id="Background">
	
		<use xlink:href="#blue"  width="300" height="300" id="XMLID_1_" x="-150" y="-150" transform="matrix(1 0 0 -1 150 150)" style="overflow:visible;"/>
</g>
<g id="Text">
	<g>
		<rect x="7" y="200.2" class="st3" width="286" height="103.2"/>
		<path class="st2" d="M74.9,232.8c-2.1,0.8-6.1,1.8-10.4,1.8c-5.5,0-9.6-1.4-12.7-4.3c-2.9-2.7-4.6-7-4.5-11.9
			c0-10.2,7.3-16.8,18-16.8c4,0,7.1,0.8,8.6,1.5l-1.3,4.8c-1.8-0.8-3.9-1.4-7.3-1.4c-6.9,0-11.8,4.1-11.8,11.6
			c0,7.3,4.5,11.7,11.2,11.7c2.1,0,3.7-0.3,4.5-0.7V221h-5.7v-4.7h11.4V232.8z"/>
		<path class="st2" d="M85.1,224.2c0.1,4.2,3.5,6,7.2,6c2.7,0,4.7-0.4,6.5-1.1l0.9,4.1c-2,0.8-4.8,1.4-8.2,1.4
			c-7.6,0-12-4.7-12-11.8c0-6.5,3.9-12.6,11.4-12.6c7.6,0,10.1,6.2,10.1,11.4c0,1.1-0.1,2-0.2,2.5H85.1z M95.4,220.1
			c0-2.2-0.9-5.7-4.8-5.7c-3.6,0-5.2,3.3-5.4,5.7H95.4z"/>
		<path class="st2" d="M111.6,221.1L111.6,221.1c0.7-0.9,1.3-1.9,2-2.7l5.7-7.5h7.1l-8.6,9.6l9.9,13.8h-7.2l-6.7-10.3l-2,2.4v8h-5.9
			v-34.1h5.9V221.1z"/>
		<path class="st2" d="M137.1,204.3c0,1.8-1.3,3.2-3.4,3.2c-2,0-3.3-1.4-3.3-3.2c0-1.8,1.3-3.2,3.3-3.2
			C135.8,201.1,137,202.5,137.1,204.3z M130.8,234.2v-23.4h6v23.4H130.8z"/>
		<path class="st2" d="M143.1,218.6c0-3.1-0.1-5.6-0.2-7.8h5.2l0.3,3.6h0.1c1.7-2.6,4.5-4.1,8-4.1c5.4,0,9.8,4.6,9.8,11.9
			c0,8.4-5.3,12.5-10.7,12.5c-2.9,0-5.4-1.2-6.6-3.1H149v12.1h-5.9V218.6z M149,224.5c0,0.6,0,1.1,0.2,1.6c0.6,2.4,2.7,4.1,5.2,4.1
			c3.7,0,6-3.1,6-7.7c0-4.1-2-7.5-5.8-7.5c-2.4,0-4.7,1.8-5.3,4.4c-0.1,0.5-0.2,1-0.2,1.5V224.5z"/>
		<path class="st2" d="M171.1,218.6c0-3.1-0.1-5.6-0.2-7.8h5.2l0.3,3.6h0.1c1.7-2.6,4.5-4.1,8-4.1c5.4,0,9.8,4.6,9.8,11.9
			c0,8.4-5.3,12.5-10.7,12.5c-2.9,0-5.4-1.2-6.6-3.1H177v12.1h-5.9V218.6z M177,224.5c0,0.6,0,1.1,0.2,1.6c0.6,2.4,2.7,4.1,5.2,4.1
			c3.7,0,6-3.1,6-7.7c0-4.1-2-7.5-5.8-7.5c-2.4,0-4.7,1.8-5.3,4.4c-0.1,0.5-0.2,1-0.2,1.5V224.5z"/>
		<path class="st2" d="M206,204.2v6.7h5.6v4.4H206v10.3c0,2.8,0.8,4.3,3,4.3c1,0,1.8-0.1,2.3-0.3l0.1,4.5c-0.9,0.3-2.4,0.6-4.3,0.6
			c-2.2,0-4-0.7-5.1-1.9c-1.2-1.3-1.8-3.5-1.8-6.5v-11h-3.4v-4.4h3.4v-5.3L206,204.2z"/>
		<path class="st2" d="M220,224.2c0.1,4.2,3.5,6,7.2,6c2.7,0,4.7-0.4,6.5-1.1l0.9,4.1c-2,0.8-4.8,1.4-8.2,1.4c-7.6,0-12-4.7-12-11.8
			c0-6.5,3.9-12.6,11.4-12.6c7.6,0,10.1,6.2,10.1,11.4c0,1.1-0.1,2-0.2,2.5H220z M230.2,220.1c0-2.2-0.9-5.7-4.8-5.7
			c-3.6,0-5.2,3.3-5.4,5.7H230.2z"/>
		<path class="st2" d="M240.6,218.4c0-3.2,0-5.4-0.2-7.5h5.1l0.2,4.5h0.2c1.2-3.3,3.9-5,6.4-5c0.6,0,0.9,0,1.4,0.1v5.6
			c-0.5-0.1-1-0.2-1.7-0.2c-2.8,0-4.8,1.8-5.3,4.5c-0.1,0.5-0.2,1.2-0.2,1.8v12.1h-5.9V218.4z"/>
		<path class="st2" d="M87.8,282.2l-7.9-32.4h6.3l3.1,14.7c0.8,3.9,1.6,8.1,2.1,11.3h0.1c0.5-3.4,1.4-7.2,2.4-11.3l3.5-14.6h6.2
			l3.2,14.9c0.8,3.8,1.5,7.4,2,10.9h0.1c0.6-3.6,1.3-7.2,2.2-11.2l3.4-14.6h6l-8.7,32.4h-6.3L102,267c-0.8-3.7-1.4-6.8-1.8-10.3
			h-0.1c-0.6,3.5-1.2,6.6-2.2,10.3l-3.7,15.2H87.8z"/>
		<path class="st2" d="M129.3,252.3c0,1.8-1.3,3.2-3.4,3.2c-2,0-3.3-1.4-3.3-3.2c0-1.8,1.3-3.2,3.3-3.2
			C128,249.1,129.3,250.5,129.3,252.3z M123,282.2v-23.4h6v23.4H123z"/>
		<path class="st2" d="M135.3,265.8c0-2.7,0-4.9-0.2-7h5.2l0.3,3.5h0.1c1-1.8,3.6-4,7.4-4c4.1,0,8.3,2.6,8.3,10v13.9h-5.9V269
			c0-3.4-1.2-5.9-4.5-5.9c-2.4,0-4,1.7-4.6,3.5c-0.2,0.5-0.2,1.2-0.2,1.9v13.7h-6V265.8z"/>
		<path class="st2" d="M168.7,269.1L168.7,269.1c0.7-0.9,1.3-1.9,2-2.7l5.7-7.5h7.1l-8.6,9.6l9.9,13.8h-7.2l-6.7-10.3l-2,2.4v8h-5.9
			v-34.1h5.9V269.1z"/>
		<path class="st2" d="M191,272.2c0.1,4.2,3.5,6,7.2,6c2.7,0,4.7-0.4,6.5-1.1l0.9,4.1c-2,0.8-4.8,1.4-8.2,1.4c-7.6,0-12-4.7-12-11.8
			c0-6.5,3.9-12.6,11.4-12.6c7.6,0,10.1,6.2,10.1,11.4c0,1.1-0.1,2-0.2,2.5H191z M201.3,268.1c0-2.2-0.9-5.7-4.8-5.7
			c-3.6,0-5.2,3.3-5.4,5.7H201.3z"/>
		<path class="st2" d="M211.6,248.2h6v34.1h-6V248.2z"/>
	</g>
</g>
<g id="icon">
	<line class="st4" x1="77.3" y1="196.7" x2="278" y2="127.7"/>
	<path class="st2" d="M170.7,97c0,0,0.4-2.9,2.8-3.5c1-0.3,2.3-0.3,3.8,0.6c0,0,3,2.1,0.7,7.3c0,0,0.3,1.5,1.9,2.2
		c0,0,10.8-3.5,14.1,13.7l1.1,5.6c0,0-0.7,3.9,1.4,10.2c0,0,8,27.3,8.8,27.3c0,0-1.1,3.1-4.7,1.8l-10.2-29.4c0,0-2.7-1-3.8,1.6
		l9.8,29.1c0,0-1.3,2.7-4.3,1.6l-9.9-27.2c0,0-1.9-6.4-5.3-9.4c0,0-12.5-18.6-1.1-23.2c0,0,0.6-1.3-0.4-2.9
		C175.1,101.9,171.6,102.4,170.7,97z"/>
	<path class="st2" d="M137.9,177.6c0,0-9.1-46.7-21.2-68.5c0,0-12.7-11.4-20-8.9c0,0-2.2,8-7.4,9c0,0-8.1,1.9-12.9-3.7
		c0,0-6.2-6.3-1.1-14.2c0,0,1.9-3,2.7-3.2c0,0-10,2.3-13.4-5.9c0,0-4.3-8.1,3.8-15.3c0,0,6-4.7,9.9-4.3c0,0-2.6-1.7-2.2-5.6
		c0,0,0.6-5.1,6.2-3.9c0,0-3.1-3-0.4-7.1c0,0,7.8-7,11.7-2.3c0,0-1-6.4,6.7-7.6c0,0-0.8-6.4,6.1-11.1c0,0,7.8-7.9,17.7-6.1
		c0,0,13.4,1.8,16.2,9.9c0,0,1.2,4.3-0.9,7.6c0,0,3.7-1,5.8,4.1c0,0,0.8,4.1-1.6,5.5c0,0,2.9,0.8,1.4,5c0,0,10.7-0.2,6.9,12.5
		c0,0,5-0.6,4.5,5.4c0,0,9.8,0.4,10.3,8.7c0,0,1.6,8.8-6.3,11.2c0,0-8.4,9.3-14.9-1c0,0-5.9,7.5-9.7-0.2c0,0-2.2,1.9-2.6,6.1
		c0,0-0.6,4.3-1.3,8c0,0,18,58.2,29,65.8C161,167.6,154.7,179.7,137.9,177.6z"/>
	<path class="st2" d="M183,163c0,4.4-3.6,8-8,8l0,0c-4.4,0-8-3.6-8-8l0,0c0-4.4,3.6-8,8-8l0,0C179.4,155,183,158.6,183,163L183,163z
		"/>
</g>
</svg>
