<?xml version="1.0" encoding="utf-8"?>
<!-- Generator: Adobe Illustrator 16.0.3, SVG Export Plug-In . SVG Version: 6.00 Build 0)  -->
<!DOCTYPE svg PUBLIC "-//W3C//DTD SVG 1.1//EN" "http://www.w3.org/Graphics/SVG/1.1/DTD/svg11.dtd" [
	<!ENTITY ns_extend "http://ns.adobe.com/Extensibility/1.0/">
	<!ENTITY ns_ai "http://ns.adobe.com/AdobeIllustrator/10.0/">
	<!ENTITY ns_graphs "http://ns.adobe.com/Graphs/1.0/">
	<!ENTITY ns_vars "http://ns.adobe.com/Variables/1.0/">
	<!ENTITY ns_imrep "http://ns.adobe.com/ImageReplacement/1.0/">
	<!ENTITY ns_sfw "http://ns.adobe.com/SaveForWeb/1.0/">
	<!ENTITY ns_custom "http://ns.adobe.com/GenericCustomNamespace/1.0/">
	<!ENTITY ns_adobe_xpath "http://ns.adobe.com/XPath/1.0/">
]>
<svg version="1.1" xmlns:x="&ns_extend;" xmlns:i="&ns_ai;" xmlns:graph="&ns_graphs;"
	 xmlns="http://www.w3.org/2000/svg" xmlns:xlink="http://www.w3.org/1999/xlink" x="0px" y="0px" width="300px" height="300px"
	 viewBox="0 0 300 300" style="enable-background:new 0 0 300 300;" xml:space="preserve">
<style type="text/css">
<![CDATA[
	.st0{fill:none;stroke:#FFFFFF;stroke-width:3;stroke-miterlimit:10;stroke-dasharray:12,4;}
	.st1{fill:#B74F90;}
	.st2{display:none;fill:none;}
	.st3{fill:#FFFFFF;}
	.st4{fill:none;}
	.st5{fill-rule:evenodd;clip-rule:evenodd;fill:#FFFFFF;}
	.st6{fill:#080828;}
]]>
</style>
<metadata>
	<sfw  xmlns="&ns_sfw;">
		<slices></slices>
		<sliceSourceBounds  width="16383" height="16383" x="-8041" y="-8342" bottomLeftOrigin="true"></sliceSourceBounds>
		<optimizationSettings>
			<targetSettings  targetSettingsID="0" fileFormat="PNG24Format">
				<PNG24Format  transparency="true" noMatteColor="false" interlaced="false" matteColor="#FFFFFF" filtered="false">
					</PNG24Format>
			</targetSettings>
		</optimizationSettings>
	</sfw>
</metadata>
<symbol  id="blue" viewBox="-150 -150 300 300">
	<path class="st1" d="M150-97c0-6.8,0-53-71.5-53H-84c-62.5,0-66,47.2-66,54V90c0,54.5,59.2,60,66,60l161.5,0c6.8,0,72.5,0,72.5-60
		V-97z"/>
	<polygon class="st2" points="-150,150 150,150 150,-150 -150,-150 	"/>
</symbol>
<g id="Background">
	
		<use xlink:href="#blue"  width="300" height="300" id="XMLID_1_" x="-150" y="-150" transform="matrix(1 0 0 -1 150 150)" style="overflow:visible;"/>
</g>
<g id="Text">
	<g>
		<rect x="64" y="223.5" class="st4" width="260" height="84.5"/>
		<path class="st3" d="M73.9,248.4l-2.8,9.2H65l10.4-32.4h7.5l10.5,32.4h-6.3l-2.9-9.2H73.9z M83.2,243.9l-2.5-8
			c-0.6-2-1.2-4.2-1.6-6h-0.1c-0.5,1.9-1,4.1-1.5,6l-2.5,8H83.2z"/>
		<path class="st3" d="M118,250.6c0,2.8,0.1,5.1,0.2,7H113l-0.3-3.6h-0.1c-1,1.7-3.3,4.1-7.5,4.1c-4.3,0-8.2-2.5-8.2-10.2v-13.7h5.9
			v12.7c0,3.9,1.2,6.4,4.4,6.4c2.4,0,3.9-1.7,4.5-3.2c0.2-0.5,0.3-1.2,0.3-1.8v-14.1h5.9V250.6z"/>
		<path class="st3" d="M125,257.6v-19h-3.2v-4.4h3.2v-1c0-3,0.8-6,2.8-8c1.7-1.6,4.1-2.3,6.1-2.3c1.6,0,2.8,0.2,3.8,0.6l-0.4,4.6
			c-0.6-0.2-1.4-0.4-2.5-0.4c-2.9,0-3.9,2.4-3.9,5.3v1.2h5.1v4.4h-5.1v19H125z"/>
		<path class="st3" d="M139,252.2c1.3,0.8,3.9,1.7,6,1.7c2.6,0,3.7-1.1,3.7-2.6c0-1.6-1-2.4-3.8-3.4c-4.6-1.6-6.5-4.1-6.4-6.8
			c0-4.1,3.4-7.3,8.8-7.3c2.6,0,4.8,0.7,6.2,1.4l-1.2,4.2c-1-0.6-2.9-1.3-4.9-1.3c-2.1,0-3.3,1-3.3,2.4c0,1.5,1.1,2.2,4.1,3.3
			c4.2,1.5,6.2,3.7,6.2,7.2c0,4.2-3.3,7.3-9.5,7.3c-2.8,0-5.4-0.7-7.1-1.6L139,252.2z"/>
		<path class="st3" d="M165.6,227.7c0,1.8-1.3,3.2-3.4,3.2c-2,0-3.3-1.4-3.3-3.2c0-1.8,1.3-3.2,3.3-3.2
			C164.3,224.5,165.5,225.8,165.6,227.7z M159.3,257.6v-23.4h6v23.4H159.3z"/>
		<path class="st3" d="M188.8,256.9c-1.2,0.6-3.7,1.2-6.6,1.2c-7.3,0-12-4.7-12-11.9c0-7,4.8-12.5,13-12.5c2.2,0,4.4,0.5,5.7,1.1
			l-1.1,4.4c-1-0.4-2.4-0.9-4.5-0.9c-4.5,0-7.2,3.3-7.2,7.6c0,4.8,3.1,7.5,7.2,7.5c2.1,0,3.5-0.4,4.7-0.9L188.8,256.9z"/>
		<path class="st3" d="M193.1,223.5h6v13.9h0.1c0.7-1.1,1.7-2,2.9-2.7c1.2-0.7,2.5-1.1,4-1.1c4,0,8.2,2.6,8.2,10.1v13.8h-5.9v-13.1
			c0-3.4-1.2-6-4.5-6c-2.3,0-3.9,1.5-4.6,3.3c-0.2,0.5-0.2,1.1-0.2,1.8v14h-6V223.5z"/>
		<path class="st3" d="M227.1,227.5v6.7h5.6v4.4h-5.6v10.3c0,2.8,0.8,4.3,3,4.3c1,0,1.8-0.1,2.3-0.3l0.1,4.5
			c-0.9,0.3-2.4,0.6-4.3,0.6c-2.2,0-4-0.7-5.1-1.9c-1.2-1.3-1.8-3.5-1.8-6.5v-11H218v-4.4h3.4v-5.3L227.1,227.5z"/>
	</g>
</g>
<g id="icon">
	<path class="st6" d="M174.1,48.8L162.9,65c0,0-3.2-4.7-3.4-8.3l-2.3-1.6l-7.5,1c0,0-2.1,0.9-6-2.3l-19.4-13.3c0,0-4.7-3.2-1.4-9.3
		l6.3-9.3c0,0,4-3.5,8.7-0.9L157,34.1c0,0,3.8,2.6,4.2,4.8l1.8,7.8l2.3,1.6C165.4,48.3,168.3,46.8,174.1,48.8z"/>
	<line class="st4" x1="39" y1="19" x2="269" y2="19"/>
	<g id="mann_x5F_koffer_x5F_sanpshot_x5F_sw_1_">
		<g>
			<path class="st5" d="M192.1,205.6c-0.1-2.4,2.3-3.7,4.5-4.1c4.1-0.8,6.5-3.7,6.5-7.8c0-3.9,0-7.7,0-11.6c0-3.1-0.2-3.2-3.2-3.2
				c-2.8,0-5.5,0-8.5,0c-0.1-1.7-0.3-3.4-0.3-5.1c-0.2-6.4-0.3-12.8-0.4-19.2c0-2,1.4-3.4,3.4-3.5c1,0,2-0.1,3.4-0.3
				c-0.5-2-0.8-3.8-1.4-5.5c-0.1-0.4-1.2-0.5-2-0.8c-0.2-0.7-0.4-1.7-0.6-2.7c-0.9,0-1.8,0-2.9,0c0.2-2.7,0.2-5.3,0.5-7.9
				c0.5-4.8,1.1-9.6,1.7-14.4c0.7-5.9,1.4-11.8,2.3-17.6c0.2-1.3,1.1-2.5,2-3.6c1-1.3,2.1-2.4,1.7-4.2c-0.1-0.5,0.5-1.1,0.6-1.6
				c0.3-1,0.7-1.9,0.8-2.9c0.1-1.2-0.5-1.8-1.9-1.8c-2.4,0.1-2.4-0.2-3-2.6c-0.3-1.2-1.1-2.3-1.6-3.4c-0.2-0.4-0.2-0.9-0.1-1.4
				c0.3-2.3,1.1-4.7,1.4-7c0.1-0.4-0.7-1-0.9-1.4c-1.2-1.8-0.8-3.2,1.3-3.7c2.8-0.7,5.7-1.3,8.5-1.8c1.8-0.3,3.2,0.7,4.3,2
				c3.4,3.9,4.4,8.3,2.1,13.2c-0.8,1.7-0.7,3,0.6,4.3c0.7,0.7,1.4,1.6,2.2,2.2c6.1,5.2,7.5,11.9,6.4,19.5
				c-0.8,5.8-1.9,11.4-1.4,17.4c0.5,6.2,0.1,12.5,0.1,19c-1,0.1-1.9,0.1-3,0.2c0.2,2.1,0.3,4.2,0.5,6.6c0.8,0,1.5,0,2.2,0
				c2.8,0,5.5,0,8.3,0c2.5,0,3.9,1.4,3.9,3.7c0.1,7.1,0.2,14.3,0.4,21.4c0,0.7,0,1.3,0,2.1c-4.1,0.2-8.1,0.4-12.2,0.6
				c0.1,1.3,0.3,2.5,0.3,3.7c-0.1,5.2-0.2,10.3-0.4,15.5c0,0.7-0.8,1.3-1.5,1.8c0.1,1,0.3,1.9,0.4,2.9c0.3,2.3-0.3,3.3-2.6,3.4
				c-2.3,0.2-4.7-0.1-7,0c-1.1,0-2.3,0.4-3.4,0.6C200,207.1,196,206.3,192.1,205.6z"/>
		</g>
	</g>
	<line class="st0" x1="64" y1="75.5" x2="186.5" y2="76"/>
	<g>
		<path class="st3" d="M170.6,55.7l13,8.7l2.2-3.3c0.1,0,0.1,0.1,0.2,0.2l1.9,7.7c0,0.1,0,0.1-0.1,0.1l-7.8,1.3
			c-0.1,0-0.1-0.1-0.2-0.2l2-3l-13-8.7L170.6,55.7z"/>
	</g>
</g>
</svg>
