<?xml version="1.0" encoding="utf-8"?>
<!-- Generator: Adobe Illustrator 16.0.3, SVG Export Plug-In . SVG Version: 6.00 Build 0)  -->
<!DOCTYPE svg PUBLIC "-//W3C//DTD SVG 1.1//EN" "http://www.w3.org/Graphics/SVG/1.1/DTD/svg11.dtd" [
	<!ENTITY ns_extend "http://ns.adobe.com/Extensibility/1.0/">
	<!ENTITY ns_ai "http://ns.adobe.com/AdobeIllustrator/10.0/">
	<!ENTITY ns_graphs "http://ns.adobe.com/Graphs/1.0/">
	<!ENTITY ns_vars "http://ns.adobe.com/Variables/1.0/">
	<!ENTITY ns_imrep "http://ns.adobe.com/ImageReplacement/1.0/">
	<!ENTITY ns_sfw "http://ns.adobe.com/SaveForWeb/1.0/">
	<!ENTITY ns_custom "http://ns.adobe.com/GenericCustomNamespace/1.0/">
	<!ENTITY ns_adobe_xpath "http://ns.adobe.com/XPath/1.0/">
]>
<svg version="1.1" id="Ebene_1" xmlns:x="&ns_extend;" xmlns:i="&ns_ai;" xmlns:graph="&ns_graphs;"
	 xmlns="http://www.w3.org/2000/svg" xmlns:xlink="http://www.w3.org/1999/xlink" x="0px" y="0px" width="290.9px" height="290.9px"
	 viewBox="0 0 290.9 290.9" style="enable-background:new 0 0 290.9 290.9;" xml:space="preserve">
<style type="text/css">
<![CDATA[
	.st0{fill:#B74F90;}
	.st1{fill:#FDFDFD;}
	.st2{fill:#FFFFFF;}
]]>
</style>
<metadata>
	<sfw  xmlns="&ns_sfw;">
		<slices></slices>
		<sliceSourceBounds  width="290.9" height="290.9" x="-21.5" y="12" bottomLeftOrigin="true"></sliceSourceBounds>
	</sfw>
</metadata>
<path class="st0" d="M254.4,290.9H36.5C16.4,290.9,0,274.5,0,254.4V36.5C0,16.4,16.4,0,36.5,0h217.9c20.1,0,36.5,16.4,36.5,36.5
	v217.9C290.9,274.5,274.5,290.9,254.4,290.9z"/>
<g>
	<path class="st2" d="M70.9,235.3h5.7v14.6h0.1c0.8-1.2,1.6-2.3,2.3-3.4l8.3-11.1h7.1l-10.9,13.5L95.2,267h-6.8l-9-14.5l-2.8,3.4
		V267h-5.7V235.3z"/>
	<path class="st2" d="M111.2,267l-0.4-2.5h-0.1c-1.4,1.8-3.8,3.1-6.8,3.1c-4.6,0-7.2-3.3-7.2-6.8c0-5.8,5.1-8.7,13.6-8.6v-0.4
		c0-1.5-0.6-4-4.7-4c-2.3,0-4.6,0.7-6.2,1.7l-1.1-3.8c1.7-1,4.7-2,8.3-2c7.3,0,9.4,4.7,9.4,9.6v8.3c0,2.1,0.1,4.1,0.3,5.5H111.2z
		 M110.4,255.8c-4.1-0.1-8,0.8-8,4.3c0,2.3,1.5,3.3,3.3,3.3c2.3,0,4-1.5,4.5-3.1c0.1-0.4,0.2-0.9,0.2-1.3V255.8z"/>
	<path class="st2" d="M122.2,250.9c0-2.6,0-4.8-0.2-6.8h5l0.2,3.4h0.1c1.1-1.8,3.2-3.9,7-3.9c3,0,5.4,1.7,6.3,4.2h0.1
		c0.8-1.3,1.7-2.2,2.8-2.9c1.3-0.9,2.7-1.4,4.6-1.4c3.8,0,7.7,2.6,7.7,9.9V267h-5.6v-12.6c0-3.8-1.3-6.1-4.1-6.1c-2,0-3.4,1.4-4,3.1
		c-0.1,0.6-0.3,1.3-0.3,1.9V267h-5.6v-13.3c0-3.2-1.3-5.5-3.9-5.5c-2.2,0-3.6,1.7-4.1,3.3c-0.2,0.6-0.3,1.2-0.3,1.9V267h-5.6V250.9z
		"/>
	<path class="st2" d="M166.1,257.2c0.1,4.1,3.4,5.9,7,5.9c2.7,0,4.6-0.4,6.3-1l0.8,4c-2,0.8-4.7,1.4-8,1.4
		c-7.4,0-11.8-4.6-11.8-11.6c0-6.3,3.9-12.3,11.2-12.3c7.4,0,9.9,6.1,9.9,11.1c0,1.1-0.1,1.9-0.2,2.4H166.1z M176.2,253.1
		c0-2.1-0.9-5.6-4.7-5.6c-3.6,0-5.1,3.2-5.3,5.6H176.2z"/>
	<path class="st2" d="M186.3,251.5c0-3.1,0-5.3-0.2-7.4h5l0.2,4.4h0.2c1.1-3.2,3.8-4.9,6.3-4.9c0.6,0,0.9,0,1.4,0.1v5.5
		c-0.5-0.1-1-0.2-1.7-0.2c-2.8,0-4.7,1.8-5.2,4.4c-0.1,0.5-0.2,1.1-0.2,1.8V267h-5.8V251.5z"/>
	<path class="st2" d="M215.5,267l-0.4-2.5H215c-1.4,1.8-3.8,3.1-6.8,3.1c-4.6,0-7.2-3.3-7.2-6.8c0-5.8,5.1-8.7,13.6-8.6v-0.4
		c0-1.5-0.6-4-4.7-4c-2.3,0-4.6,0.7-6.2,1.7l-1.1-3.8c1.7-1,4.7-2,8.3-2c7.3,0,9.4,4.7,9.4,9.6v8.3c0,2.1,0.1,4.1,0.3,5.5H215.5z
		 M214.7,255.8c-4.1-0.1-8,0.8-8,4.3c0,2.3,1.5,3.3,3.3,3.3c2.3,0,4-1.5,4.5-3.1c0.1-0.4,0.2-0.9,0.2-1.3V255.8z"/>
</g>
<g>
	<path class="st2" d="M58.6,222.3c1.3,0.8,3.8,1.6,5.8,1.6c2.5,0,3.7-1,3.7-2.5c0-1.5-0.9-2.3-3.7-3.3c-4.4-1.5-6.3-4-6.3-6.6
		c0-4,3.3-7.2,8.6-7.2c2.5,0,4.7,0.7,6,1.4l-1.1,4.1c-1-0.6-2.8-1.3-4.8-1.3c-2.1,0-3.2,1-3.2,2.4c0,1.5,1.1,2.2,4,3.2
		c4.1,1.5,6,3.6,6.1,7c0,4.1-3.2,7.1-9.3,7.1c-2.8,0-5.2-0.7-6.9-1.6L58.6,222.3z"/>
	<path class="st2" d="M85,198.3v6.5h5.5v4.3H85v10.1c0,2.8,0.7,4.2,2.9,4.2c1,0,1.7-0.1,2.2-0.3l0.1,4.4c-0.8,0.3-2.3,0.6-4.2,0.6
		c-2.1,0-3.9-0.7-5-1.9c-1.2-1.3-1.8-3.4-1.8-6.4v-10.7h-3.3v-4.3h3.3v-5.1L85,198.3z"/>
	<path class="st2" d="M107.7,227.6l-0.4-2.5h-0.1c-1.4,1.8-3.8,3-6.7,3c-4.6,0-7.2-3.3-7.2-6.8c0-5.8,5.1-8.7,13.5-8.6v-0.4
		c0-1.5-0.6-4-4.6-4c-2.2,0-4.6,0.7-6.1,1.7l-1.1-3.7c1.7-1,4.6-2,8.2-2c7.3,0,9.4,4.6,9.4,9.6v8.2c0,2.1,0.1,4.1,0.3,5.5H107.7z
		 M106.9,216.4c-4.1-0.1-8,0.8-8,4.3c0,2.2,1.5,3.3,3.3,3.3c2.3,0,4-1.5,4.5-3.1c0.1-0.4,0.2-0.9,0.2-1.3V216.4z"/>
	<path class="st2" d="M124.9,198.3v6.5h5.5v4.3h-5.5v10.1c0,2.8,0.7,4.2,2.9,4.2c1,0,1.7-0.1,2.2-0.3l0.1,4.4
		c-0.8,0.3-2.3,0.6-4.2,0.6c-2.1,0-3.9-0.7-5-1.9c-1.2-1.3-1.8-3.4-1.8-6.4v-10.7H116v-4.3h3.3v-5.1L124.9,198.3z"/>
	<path class="st2" d="M140.9,198.4c0,1.7-1.3,3.1-3.3,3.1c-1.9,0-3.2-1.4-3.2-3.1c0-1.8,1.3-3.1,3.2-3.1
		C139.6,195.3,140.8,196.6,140.9,198.4z M134.8,227.6v-22.8h5.8v22.8H134.8z"/>
	<path class="st2" d="M146.5,222.3c1.3,0.8,3.8,1.6,5.8,1.6c2.5,0,3.7-1,3.7-2.5c0-1.5-0.9-2.3-3.7-3.3c-4.4-1.5-6.3-4-6.3-6.6
		c0-4,3.3-7.2,8.6-7.2c2.5,0,4.7,0.7,6,1.4l-1.1,4.1c-1-0.6-2.8-1.3-4.8-1.3c-2.1,0-3.2,1-3.2,2.4c0,1.5,1.1,2.2,4,3.2
		c4.1,1.5,6,3.6,6.1,7c0,4.1-3.2,7.1-9.3,7.1c-2.8,0-5.2-0.7-6.9-1.6L146.5,222.3z"/>
	<path class="st2" d="M183,226.9c-1.2,0.6-3.6,1.2-6.5,1.2c-7.1,0-11.7-4.5-11.7-11.6c0-6.8,4.7-12.2,12.7-12.2
		c2.1,0,4.3,0.5,5.6,1.1l-1,4.3c-0.9-0.4-2.3-0.9-4.4-0.9c-4.4,0-7,3.2-7,7.4c0,4.7,3,7.3,7,7.3c2,0,3.4-0.4,4.5-0.9L183,226.9z"/>
	<path class="st2" d="M187.3,194.3h5.8v13.6h0.1c0.7-1.1,1.6-2,2.9-2.6c1.1-0.7,2.5-1,3.9-1c3.9,0,8,2.6,8,9.9v13.4h-5.8v-12.8
		c0-3.3-1.2-5.8-4.4-5.8c-2.2,0-3.8,1.5-4.4,3.2c-0.2,0.5-0.2,1.1-0.2,1.7v13.6h-5.8V194.3z"/>
	<path class="st2" d="M218.1,217.8c0.1,4.1,3.4,5.9,7,5.9c2.7,0,4.6-0.4,6.3-1l0.8,4c-2,0.8-4.7,1.4-8,1.4
		c-7.4,0-11.7-4.5-11.7-11.5c0-6.3,3.8-12.3,11.1-12.3c7.4,0,9.8,6.1,9.8,11.1c0,1.1-0.1,1.9-0.2,2.4H218.1z M228.1,213.8
		c0-2.1-0.9-5.6-4.7-5.6c-3.6,0-5.1,3.2-5.3,5.6H228.1z"/>
</g>
<path class="st1" d="M154.8,32.5h-25.7c-2.9,0-5.2-2.3-5.2-5.2v-0.2c0-2.9,2.3-5.2,5.2-5.2h25.7c2.9,0,5.2,2.3,5.2,5.2v0.2
	C160,30.1,157.7,32.5,154.8,32.5z"/>
<path class="st1" d="M142.2,166.4L142.2,166.4c-2.3,0-4.2-1.9-4.2-4.1V33.4c0-2.3,1.9-4.1,4.1-4.1h0.1c2.3,0,4.1,1.9,4.1,4.1v128.9
	C146.3,164.5,144.4,166.4,142.2,166.4z"/>
<path class="st1" d="M159.4,66.5h-33.8c-2.2,0-3.9-1.8-3.9-3.9v-5.4c0-2.2,1.8-3.9,3.9-3.9h33.8c2.2,0,3.9,1.8,3.9,3.9v5.4
	C163.3,64.8,161.5,66.5,159.4,66.5z"/>
<path class="st1" d="M70.3,162.6l-0.4-0.2c-1.9-1.1-2.5-3.4-1.4-5.3l57.2-97.7c1.1-1.8,3.5-2.5,5.4-1.4l0.4,0.2
	c1.9,1.1,2.5,3.4,1.4,5.3l-57.2,97.7C74.6,163,72.2,163.7,70.3,162.6z"/>
<path class="st1" d="M214.1,162.6l0.4-0.2c1.9-1.1,2.5-3.4,1.4-5.3l-57.2-97.7c-1.1-1.8-3.5-2.5-5.4-1.4l-0.4,0.2
	c-1.9,1.1-2.5,3.4-1.4,5.3l57.2,97.7C209.8,163,212.2,163.7,214.1,162.6z"/>
</svg>
