<?xml version="1.0" encoding="utf-8"?>
<!-- Generator: Adobe Illustrator 16.0.3, SVG Export Plug-In . SVG Version: 6.00 Build 0)  -->
<!DOCTYPE svg PUBLIC "-//W3C//DTD SVG 1.1//EN" "http://www.w3.org/Graphics/SVG/1.1/DTD/svg11.dtd" [
	<!ENTITY ns_extend "http://ns.adobe.com/Extensibility/1.0/">
	<!ENTITY ns_ai "http://ns.adobe.com/AdobeIllustrator/10.0/">
	<!ENTITY ns_graphs "http://ns.adobe.com/Graphs/1.0/">
	<!ENTITY ns_vars "http://ns.adobe.com/Variables/1.0/">
	<!ENTITY ns_imrep "http://ns.adobe.com/ImageReplacement/1.0/">
	<!ENTITY ns_sfw "http://ns.adobe.com/SaveForWeb/1.0/">
	<!ENTITY ns_custom "http://ns.adobe.com/GenericCustomNamespace/1.0/">
	<!ENTITY ns_adobe_xpath "http://ns.adobe.com/XPath/1.0/">
]>
<svg version="1.1" xmlns:x="&ns_extend;" xmlns:i="&ns_ai;" xmlns:graph="&ns_graphs;"
	 xmlns="http://www.w3.org/2000/svg" xmlns:xlink="http://www.w3.org/1999/xlink" x="0px" y="0px" width="290.9px" height="290.9px"
	 viewBox="0 0 290.9 290.9" style="enable-background:new 0 0 290.9 290.9;" xml:space="preserve">
<style type="text/css">
<![CDATA[
	.st0{display:none;fill:#FFFFFF;}
	.st1{fill:#B74F90;}
	.st2{display:none;fill:none;stroke:#FFFFFF;stroke-width:6;stroke-miterlimit:10;}
	.st3{opacity:0.35;fill:#FFFFFF;}
	.st4{display:none;fill:none;stroke:#FFFFFF;stroke-width:9;stroke-linecap:round;stroke-miterlimit:10;}
	.st5{display:none;fill:none;stroke:#FFFFFF;stroke-width:13;stroke-linecap:round;stroke-miterlimit:10;}
	.st6{fill:#FDFDFD;}
	.st7{display:none;fill:none;}
	.st8{fill:#FFFFFF;}
	.st9{display:none;}
	.st10{display:inline;opacity:0.35;fill:#FFFFFF;}
]]>
</style>
<metadata>
	<sfw  xmlns="&ns_sfw;">
		<slices></slices>
		<sliceSourceBounds  width="290.9" height="290.9" x="-27.3" y="12" bottomLeftOrigin="true"></sliceSourceBounds>
	</sfw>
</metadata>
<g id="Ebene_1">
	<path class="st1" d="M254.4,290.9H36.5C16.4,290.9,0,274.5,0,254.4V36.5C0,16.4,16.4,0,36.5,0h217.9c20.1,0,36.5,16.4,36.5,36.5
		v217.9C290.9,274.5,274.5,290.9,254.4,290.9z"/>
	<g>
		<path class="st8" d="M77.4,235.3h5.7v14.6h0.1c0.8-1.2,1.6-2.3,2.3-3.4l8.3-11.1h7.1l-10.9,13.5l11.6,18.2h-6.8l-9-14.5l-2.8,3.4
			V267h-5.7V235.3z"/>
		<path class="st8" d="M117.7,267l-0.4-2.5h-0.1c-1.4,1.8-3.8,3.1-6.8,3.1c-4.6,0-7.2-3.3-7.2-6.8c0-5.8,5.1-8.7,13.6-8.6v-0.4
			c0-1.5-0.6-4-4.7-4c-2.3,0-4.6,0.7-6.2,1.7l-1.1-3.8c1.7-1,4.7-2,8.3-2c7.3,0,9.4,4.7,9.4,9.6v8.3c0,2.1,0.1,4.1,0.3,5.5H117.7z
			 M116.9,255.8c-4.1-0.1-8,0.8-8,4.3c0,2.3,1.5,3.3,3.3,3.3c2.3,0,4-1.5,4.5-3.1c0.1-0.4,0.2-0.9,0.2-1.3V255.8z"/>
		<path class="st8" d="M128.7,250.9c0-2.6,0-4.8-0.2-6.8h5l0.2,3.4h0.1c1.1-1.8,3.2-3.9,7-3.9c3,0,5.4,1.7,6.3,4.2h0.1
			c0.8-1.3,1.7-2.2,2.8-2.9c1.3-0.9,2.7-1.4,4.6-1.4c3.8,0,7.7,2.6,7.7,9.9V267h-5.6v-12.6c0-3.8-1.3-6.1-4.1-6.1
			c-2,0-3.4,1.4-4,3.1c-0.1,0.6-0.3,1.3-0.3,1.9V267h-5.6v-13.3c0-3.2-1.3-5.5-3.9-5.5c-2.2,0-3.6,1.7-4.1,3.3
			c-0.2,0.6-0.3,1.2-0.3,1.9V267h-5.6V250.9z"/>
		<path class="st8" d="M172.6,257.2c0.1,4.1,3.4,5.9,7.1,5.9c2.7,0,4.6-0.4,6.3-1l0.8,4c-2,0.8-4.7,1.4-8,1.4
			c-7.4,0-11.8-4.6-11.8-11.6c0-6.3,3.9-12.3,11.2-12.3c7.4,0,9.9,6.1,9.9,11.1c0,1.1-0.1,1.9-0.2,2.4H172.6z M182.7,253.1
			c0-2.1-0.9-5.6-4.7-5.6c-3.6,0-5.1,3.2-5.3,5.6H182.7z"/>
		<path class="st8" d="M192.8,251.5c0-3.1,0-5.3-0.2-7.4h5l0.2,4.4h0.2c1.1-3.2,3.8-4.9,6.3-4.9c0.6,0,0.9,0,1.4,0.1v5.5
			c-0.5-0.1-1-0.2-1.7-0.2c-2.8,0-4.7,1.8-5.2,4.4c-0.1,0.5-0.2,1.1-0.2,1.8V267h-5.8V251.5z"/>
		<path class="st8" d="M222,267l-0.4-2.5h-0.1c-1.4,1.8-3.8,3.1-6.8,3.1c-4.6,0-7.2-3.3-7.2-6.8c0-5.8,5.1-8.7,13.6-8.6v-0.4
			c0-1.5-0.6-4-4.7-4c-2.3,0-4.6,0.7-6.2,1.7l-1.1-3.8c1.7-1,4.7-2,8.3-2c7.3,0,9.4,4.7,9.4,9.6v8.3c0,2.1,0.1,4.1,0.3,5.5H222z
			 M221.2,255.8c-4.1-0.1-8,0.8-8,4.3c0,2.3,1.5,3.3,3.3,3.3c2.3,0,4-1.5,4.5-3.1c0.1-0.4,0.2-0.9,0.2-1.3V255.8z"/>
	</g>
	<path class="st0" d="M166.2,143.4c0.7-2.4,6.6-0.9,12.9-3.5c1.8-0.7,0.2,0.5,9.7-8.9c9.4-13.6,18.7-41,21.4-40.9
		c6.6,0.1,8.7,41.8,1.4,46.5c-1.9,1.2-8.1,5.8-12.8,8.7c-3.9,2.4-4.3,2.8-6.2,3.5c-5.9,2.2-17.3,6.1-23,2.9
		C167.3,150.4,165.7,145.1,166.2,143.4z"/>
	<g>
		<path class="st8" d="M70.8,227.6c0.1-1.5,0.2-4.1,0.2-6.4v-26.8h5.8v13.6h0.1c1.4-2.2,3.9-3.7,7.3-3.7c5.6,0,9.5,4.6,9.5,11.6
			c0,8.2-5.2,12.3-10.3,12.3c-2.9,0-5.6-1.1-7.2-3.9H76l-0.3,3.4H70.8z M76.8,218.2c0,0.5,0,0.9,0.1,1.4c0.6,2.3,2.6,4,5.1,4
			c3.6,0,5.8-2.9,5.8-7.5c0-4-1.9-7.3-5.8-7.3c-2.3,0-4.4,1.7-5.1,4.2c-0.1,0.4-0.2,0.9-0.2,1.5V218.2z"/>
		<path class="st8" d="M102.5,217.8c0.1,4.1,3.4,5.9,7,5.9c2.7,0,4.6-0.4,6.3-1l0.8,4c-2,0.8-4.7,1.4-8,1.4
			c-7.4,0-11.7-4.5-11.7-11.5c0-6.3,3.8-12.3,11.1-12.3c7.4,0,9.8,6.1,9.8,11.1c0,1.1-0.1,1.9-0.2,2.4H102.5z M112.5,213.8
			c0-2.1-0.9-5.6-4.7-5.6c-3.6,0-5.1,3.2-5.3,5.6H112.5z"/>
		<path class="st8" d="M125.9,204.8l2.4,10.3c0.5,2.4,1,4.9,1.5,7.4h0.1c0.5-2.5,1.2-5,1.9-7.3l2.9-10.4h4.7l2.9,10.1
			c0.7,2.7,1.3,5.1,1.8,7.6h0.1c0.4-2.5,0.9-5,1.5-7.6l2.5-10.1h5.7l-7.2,22.8h-5.3l-2.7-9.3c-0.7-2.4-1.2-4.5-1.7-7.3h-0.1
			c-0.5,2.8-1.1,5.1-1.7,7.3l-2.9,9.3h-5.4l-6.7-22.8H125.9z"/>
		<path class="st8" d="M160.9,217.8c0.1,4.1,3.4,5.9,7,5.9c2.7,0,4.6-0.4,6.3-1l0.8,4c-2,0.8-4.7,1.4-8,1.4
			c-7.4,0-11.7-4.5-11.7-11.5c0-6.3,3.8-12.3,11.1-12.3c7.4,0,9.8,6.1,9.8,11.1c0,1.1-0.1,1.9-0.2,2.4H160.9z M170.9,213.8
			c0-2.1-0.9-5.6-4.7-5.6c-3.6,0-5.1,3.2-5.3,5.6H170.9z"/>
		<path class="st8" d="M201.8,204.8c-0.1,1.5-0.2,3.4-0.2,6.6v12.9c0,4.8-1,8.2-3.4,10.3c-2.4,2.1-5.7,2.8-8.8,2.8
			c-2.9,0-6-0.6-8-1.8l1.3-4.4c1.4,0.8,3.9,1.7,6.6,1.7c3.7,0,6.6-2,6.6-6.9v-2h-0.1c-1.3,2-3.7,3.4-6.6,3.4
			c-5.7,0-9.7-4.7-9.7-11.1c0-7.5,4.9-12,10.3-12c3.5,0,5.5,1.7,6.6,3.6h0.1l0.2-3H201.8z M195.9,213.9c0-0.5,0-1.1-0.2-1.5
			c-0.6-2.1-2.2-3.7-4.7-3.7c-3.2,0-5.6,2.8-5.6,7.4c0,3.9,2,7,5.6,7c2.2,0,4-1.4,4.7-3.5c0.1-0.6,0.2-1.4,0.2-2.1V213.9z"/>
		<path class="st8" d="M214.4,198.3v6.5h5.5v4.3h-5.5v10.1c0,2.8,0.7,4.2,2.9,4.2c1,0,1.7-0.1,2.2-0.3l0.1,4.4
			c-0.8,0.3-2.3,0.6-4.2,0.6c-2.1,0-3.9-0.7-5-1.9c-1.2-1.3-1.8-3.4-1.8-6.4v-10.7h-3.3v-4.3h3.3v-5.1L214.4,198.3z"/>
		<path class="st8" d="M228,217.8c0.1,4.1,3.4,5.9,7,5.9c2.7,0,4.6-0.4,6.3-1l0.8,4c-2,0.8-4.7,1.4-8,1.4c-7.4,0-11.7-4.5-11.7-11.5
			c0-6.3,3.8-12.3,11.1-12.3c7.4,0,9.8,6.1,9.8,11.1c0,1.1-0.1,1.9-0.2,2.4H228z M238,213.8c0-2.1-0.9-5.6-4.7-5.6
			c-3.6,0-5.1,3.2-5.3,5.6H238z"/>
	</g>
	<g class="st9">
		<path class="st10" d="M104,102.8c0.3-0.8,0.4-1.7,0.9-2.3c15.6-16,31.1-32,46.7-47.9c1.5-1.5,3.1-3,4.1-4
			c17.6,17.8,35,35.4,51.6,52.2c-0.9,2.6-2.7,5.2-2.7,7.8c-0.2,23-0.1,45.9-0.1,68.9c0,2.3,0,4.7,0,7.4c-9.7,0-18.8,0-28.7,0
			c0-14.2,0-28.3,0-43c-12.8,0-24.8,0-37.7,0c0,14.2,0,28.4,0,43c-9.9,0-18.9,0-28.6,0c-0.1-2.3-0.3-4.6-0.3-6.9
			c0-23.4-0.1-46.8,0-70.2c0-4-0.7-6.5-5.3-5.2C103.9,102.6,104,102.8,104,102.8z"/>
		<path class="st3" d="M144,147.2c8.7,0,17.1,0,26.1,0c0,12.1,0,24,0,36.6c-8.4,0-17,0-26.1,0C144,172.1,144,160.1,144,147.2z"/>
	</g>
	<line class="st5" x1="84.9" y1="120.2" x2="157.7" y2="48.4"/>
	<line class="st5" x1="228.7" y1="120.2" x2="157.7" y2="48.4"/>
	<polyline class="st4" points="106.3,103.9 106.3,187.4 207.3,187.4 207.3,101.4 	"/>
	<line class="st7" x1="140.6" y1="189.1" x2="139.6" y2="271.3"/>
	<line class="st7" x1="139.3" y1="187.4" x2="140.1" y2="187.4"/>
	<polyline class="st7" points="140.1,184.8 140.1,144.4 140.1,143.4 	"/>
	<line class="st2" x1="141.1" y1="188.9" x2="141.1" y2="141.4"/>
	<line class="st2" x1="173.1" y1="188.9" x2="173.1" y2="141.4"/>
	<line class="st2" x1="143.2" y1="144.4" x2="173.3" y2="144.4"/>
	<polyline class="st7" points="175.4,102.8 175.4,62.3 175.4,61.3 	"/>
	<line class="st2" x1="204.1" y1="101.4" x2="204.1" y2="53.9"/>
	<line class="st2" x1="188.4" y1="80.4" x2="188.4" y2="53.9"/>
	<line class="st2" x1="187.9" y1="56.9" x2="205.2" y2="56.9"/>
	<g>
		<path class="st6" d="M237.4,111.6c-1.9,3.9-4.8,5.5-9,4.9c-1-0.1-2.1,0.4-3.2,0.6c-0.7,0.1-1.4,0.3-2,0.1
			c-5.4-1.4-9.1,0.1-11.9,5.2c-2.3,4.3-4.8,8.5-6.6,12.9c-2.7,6.6-5.1,13.4-7.2,20.3c-1,3.4-1.8,7-2.5,10.6
			c-0.4,1.7-1.3,2.7-3.1,2.6c-1,0-1.9,0-2.9,0c-38.5,0-77.1,0-115.6,0c-0.2,0-0.4,0-0.6,0c-6.6,0.8-8.2-3.2-9.1-8.9
			c-0.6-3.9-1-7.8-1.2-11.7c-0.2-4.1-0.2-8.1,0-12.2c0.2-4.1,0.6-8.2,1.4-12.2c0.8-3.7,2.1-7.3,3.7-10.7c1.5-3.3,3.3-6.7,5.8-9.2
			c4.5-4.6,8.8-9.5,14.1-13.4c3.3-2.5,7-4.6,9.3-8.6c1.8-3.1,1.9-6.6,4-9.4c-0.8-3.8,1.3-7.4,1.1-11.1c-0.2-3.6,1-6.9,2-10.2
			c0.4-1.6,0.4-3.4,0.5-4.6c2.7-3.3,5.1-6.4,7.8-9.4c4.5-5.1,10.1-7.9,17.1-7.9c2.8,0,5.5,0.1,8.3,1c2.4,0.8,5,0.3,7.7,1.1
			c2.5,0.7,3.9,2.7,6,3.7c2,0.9,3.6,2.6,5.3,4c2.6,2.2,5.2,4.3,7.7,6.6c1.5,1.4,2.5,2.9,3.1,5.1c0.8,3.1,3.3,5.7,7,7.1
			c-0.9,0.9-1.7,1.7-2.8,2.8c0.7,0.8,1.5,1.8,2.4,3c-0.4,0.1-0.8,0.4-1.2,0.5c-5.4,0.5-6.7,1.9-6.8,7.1c0,1.3,0,2.7,0,4.5
			c4.5,0,8.9,0.4,13.2-0.2c2.9-0.4,6.2-1.1,8.4-3.5c2.5-2.7,5.5-3.5,9.1-3.4c8.5,0.2,17,0.1,25.6,0.1c2.4,0,4.7-0.2,7.1-1.1
			c5.3-1.9,5.4-1.4,13-0.2c3.1,0.5,6.3,0.5,9.7,1.9c0,1.1,0,2.6,0,4.1c-0.1,2.5-0.9,3.4-3.3,3.5c-4.2,0.1-8.4,0-12.6,0
			c-0.6,3.2-1.2,6-1.8,9.2c9.6-1.9,18.7-3.6,28-4.8c0,11.1,0,21.7,0,32.8c-2.9-0.5-5.9,1.1-8.6-1.2c-0.1-0.1-0.4,0-0.6,0
			C247.9,112.6,242.7,112.1,237.4,111.6z M141.4,111.5c2.8,5.3,3.1,5,7.8,8.7c4.9,3.9,10.7,6,16.2,8.7c3.6,1.8,7.8,3.3,12.2,2.8
			c1.5-0.2,2.5-0.7,3.4-1.7c3.1-4,4.5-8.4,3.1-13.8c-3.7-0.3-7.4-0.6-11.1-0.8c-2.5-0.2-3.4-0.9-3.5-3.3c-0.1-4.1,0-8.1,0-12.2
			c0-3.8-0.5-4.2-4.3-4.2c-1.2,0-2.3,0.1-3.5,0c-1.5-0.1-2.6,0.3-3.5,1.4c-2.1,2.6-5,3.6-8.2,3.3
			C148.6,105.4,144.5,107.9,141.4,111.5z M206.8,79.9c3.5,1.3,7.1,2.6,10.8,4c0.9-0.7,2.1-1.6,3-2.3c2.3,1.6,4.2,3.1,6.2,4.4
			c1.5,1,3.2,0.5,3.9-1c1.2-2.9,1.9-5.9,2.9-9.1c-8.1,0-15.6,0-23.1,0C207.4,75.8,207.1,76.2,206.8,79.9z"/>
	</g>
</g>
<g id="Ebene_2">
</g>
</svg>
