<?xml version="1.0" encoding="utf-8"?>
<!-- Generator: Adobe Illustrator 16.0.3, SVG Export Plug-In . SVG Version: 6.00 Build 0)  -->
<!DOCTYPE svg PUBLIC "-//W3C//DTD SVG 1.1//EN" "http://www.w3.org/Graphics/SVG/1.1/DTD/svg11.dtd" [
	<!ENTITY ns_extend "http://ns.adobe.com/Extensibility/1.0/">
	<!ENTITY ns_ai "http://ns.adobe.com/AdobeIllustrator/10.0/">
	<!ENTITY ns_graphs "http://ns.adobe.com/Graphs/1.0/">
	<!ENTITY ns_vars "http://ns.adobe.com/Variables/1.0/">
	<!ENTITY ns_imrep "http://ns.adobe.com/ImageReplacement/1.0/">
	<!ENTITY ns_sfw "http://ns.adobe.com/SaveForWeb/1.0/">
	<!ENTITY ns_custom "http://ns.adobe.com/GenericCustomNamespace/1.0/">
	<!ENTITY ns_adobe_xpath "http://ns.adobe.com/XPath/1.0/">
]>
<svg version="1.1" id="Ebene_1" xmlns:x="&ns_extend;" xmlns:i="&ns_ai;" xmlns:graph="&ns_graphs;"
	 xmlns="http://www.w3.org/2000/svg" xmlns:xlink="http://www.w3.org/1999/xlink" x="0px" y="0px" width="300px" height="300px"
	 viewBox="0 0 300 300" style="enable-background:new 0 0 300 300;" xml:space="preserve">
<style type="text/css">
<![CDATA[
	.st0{fill:#B74F90;}
	.st1{display:none;fill:none;}
	.st2{clip-path:url(#SVGID_2_);fill-rule:evenodd;clip-rule:evenodd;fill:#FFFFFF;}
	.st3{fill:none;}
	.st4{fill:#333333;}
]]>
</style>
<metadata>
	<sfw  xmlns="&ns_sfw;">
		<slices></slices>
		<sliceSourceBounds  width="300" height="695.8" x="0" y="-695.8" bottomLeftOrigin="true"></sliceSourceBounds>
	</sfw>
</metadata>
<symbol  id="blue" viewBox="-150 -150 300 300">
	<path class="st0" d="M150-97c0-6.8,0-53-71.5-53H-84c-62.5,0-66,47.2-66,54V90c0,54.5,59.2,60,66,60l161.5,0c6.8,0,72.5,0,72.5-60
		V-97z"/>
	<polygon class="st1" points="-150,150 150,150 150,-150 -150,-150 	"/>
</symbol>
<use xlink:href="#blue"  width="300" height="300" id="XMLID_3_" x="-150" y="-150" transform="matrix(1 0 0 -1 150 150)" style="overflow:visible;"/>
<g>
	<defs>
		<path id="SVGID_1_" d="M231.2,271.2H68.8c-22,0-39.9-17.9-39.9-39.9V68.9c0-22,17.9-39.9,39.9-39.9h162.4
			c22,0,39.9,17.9,39.9,39.9v162.4C271.1,253.4,253.3,271.2,231.2,271.2z"/>
	</defs>
	<clipPath id="SVGID_2_">
		<use xlink:href="#SVGID_1_"  style="overflow:visible;"/>
	</clipPath>
	<path class="st2" d="M89.2,265.4c0,1.2,1.4,2.4,1.7,4c0.5,1.9,0.7,6.2,0.7,6.9c0,0.5-1,7.6-1,8.3c0,0.5,2.1,4,2.1,4.8v8.6
		c1,2.6,3.8,8.1,3.8,11.2c0,0.7-0.7,3.8-0.7,4.5c0,0.5,1.7,4.5,1.7,5.2c0,0.5-1.9,8.3-1.9,8.8c0,0.7,1.7,6.2,1.7,6.9
		c0,1.2-0.5,2.4-2.4,3.6c-0.5-3.6-1-7.4-1.4-10.7c-1-7.9-1.7-16.2-2.9-24c-1-7.6-4.3-20-4.3-28.1v-5.2c0.7-2.6,1-5.5,1.2-8.3v-6.4
		c0.2-0.2,0.7-0.5,1.2-1C89,255.6,88.5,257,89.2,265.4z M220.2,265.6c0,5-1.9,11.2-2.6,16.7l0.2,37.1c-0.2,1.7-1,3.6-1.2,5.5
		c-0.5,2.4-0.5,5.5-0.7,8.3c-0.2,0-0.7,0.2-1,0.2c0-1,0-2.4-0.5-3.1c-0.5-1.7-2.1-4.5-2.1-5c0-0.7,0.7-1.7,0.7-2.4
		c0-0.5-2.1-2.9-2.1-3.3c0-0.7,0.7-2.1,1-3.1l-0.2-6c4.3-5.5,3.3-11,4.8-16.2v-6.2c-0.7-3.8-2.4-9.8-2.4-14l0.7-7.6
		c-0.2-2.4-1.2-6.9-1.2-7.4c0-0.7,0.2-0.5,0.2-0.7c1.4-0.2,1.7-2.6,2.4-3.6c0.7-0.7,2.1-1.2,3.1-1.7
		C219.7,257.3,220.2,264.9,220.2,265.6z M133,28.9c-0.7,0.5-1.2,1.2-1.9,1.9c1.2-0.2,2.6,0,3.6-0.2c1,0,1.9-0.7,2.6-1
		c0,0,0.2,0,0.5,0.2c-0.5,0.5-1.2,1.2-1.4,1.9h1.9c2.4-2.1,4.5-1.7,6.4-1.7c1.4,0,3.3-0.2,5,0.7c-1,0.2-2.1,0.5-3.3,1.2
		c0,0-0.2,0.2,0.5,0.2c0.5,0,3.6-1,4.3-1c0.5,0,1.4,0.2,2.1,0.5c-0.2,0.2-0.7,0.2-1,0.5c1.4,0.2,2.9,0.5,4.3,1l-0.5,0.5
		c7.1,3.1,15.5,8.6,21.7,16.7c1.9,2.4,1,5.7,1.7,8.6l0.2,9.3c0,3.3-0.7,9-0.7,9.5c0,0.7,0.7,6,0.7,6.4c0,14.8-11,10.2-11,23.3v10
		c3.8,4.3,6.2,10.7,11.7,13.1c11.2,5.2,22.9,9.3,34.3,14.8c6.7,3.3,17.1,8.6,20.2,17.4c2.6,7.4,5,14.8,7.1,22.1
		c3.8,13.8,7.6,27.9,11.7,41.9c1.2,4.3,4,12.6,4,13.1c0,3.1-10.7,7.9-12.6,9.5l-0.2,39.5c-1.9,9.8-4.3,21-6.7,30.9
		c-3.1,13.6-7.1,27.1-10,40.9c-0.5,2.1,0.2,6.4,0.2,7.1c0,10.2-7.6,29.3-7.6,39.8v37.6l-6.2,69.3v4.3c-1.2,9.3-3.1,19.5-6.4,29
		c-0.7,1.9-1,4.5-1.2,6.9c-0.2,3.1-0.7,9.5-0.7,10.2c0,0.5-1,9-1.2,13.6c-0.5,4-0.5,8.3-0.7,12.6c-0.2,4.8-0.5,9.5-1,14.3
		c-0.2,2.1-6.2,37.9-6.2,46.4c0,0.7,0.7,4.8,0.7,5.2c0,0.7-0.5,4.3-0.5,5c0,2.9,2.6,7.4,4.5,10.2c2.6,3.8,6.7,6.7,6.7,10.2
		c0,7.6-15.2,7.6-17.9,7.6c-6.9,0-13.3-1-20-2.4c-1.4-0.2-2.9-0.5-3.8-1.2c-3.6-1.9-8.8-3.3-10.2-8.1c-0.2-0.5,0.2-1,0.2-1.7
		c0-0.5-1-4-1-6c0-6.4,0.5-9.3,0.5-10c0-2.6-5.5-6.4-5.5-15c0-0.7,0.5-4.5,0.7-6.9v-15c1.7-12.6,6-26.4,8.3-38.8
		c0.2-2.4,0.2-6.7,0.2-7.1v-18.6c0.5-3.3,1.2-10,1.2-10.5L159,523v-59l-4.5-55c-3.8,17.4-8.1,36.2-10.2,53.8l0.2,33.1
		c-0.5,4.5-0.5,9.3-1.7,14c-0.7,2.4-2.4,5-3.1,7.6c-1,2.6-1.4,6-2.4,8.8c-1,3.6-2.6,7.1-2.6,10.7c0,6.2,2.4,12.1,3.8,18.8l-2.4,13.1
		v5.5l-3.6,30.7c0.2,3.3,0.7,9.3,0.7,10c0,7.9-1.9,16.2-1.9,19.3c0,6.9,6,13.3,6,20.2c0,0.5-0.5,3.1-0.7,4.5
		c-0.2,0.7-0.5,2.1-0.7,3.3c0,0.5-0.5,1.7-0.7,2.4c-1,3.3-4,9.8-4,10.5c0,0.5,1,10,1,10.7c0,1.2,0,3.1-1,4.8c-2.4,3.8-13.8,5-18.3,5
		c-4,0-22.4-0.2-22.4-9c0-6.2,5.7-18.6,5.7-23.3c0-0.5-1.2-5.5-1.2-8.3c-0.5-7.6-2.9-15.2-5.2-22.9c-1-2.9-1-6.2-1.2-9
		c-0.5-4.8-0.7-9.5-1-14.3l-1.7-30.7v-54.3c0.2-0.7,0.2-1.4,0.2-2.1c-0.5-3.3,3.3-7.6,3.3-10.7c0-2.9-2.4-6-5-9c-1-1.2-4-9.8-4-12.1
		v-4.5l2.1-19c0-8.6-0.2-11.7-0.7-28.8c0-0.2,0.2-5.7,0.5-37.1l0.5-32.9c-1.7-7.1-2.9-14.8-4.8-21.9c-2.9-11-7.1-21.7-9.5-32.4
		c-1.7-7.9-2.6-16-3.6-23.8c-0.7-5.5-0.7-11.2-1.4-16.4c-1-6.9-2.4-14-3.6-21c-2.9-1.4-6.4-3.1-9.5-4.8c-4.8-2.1-9.8-4.5-14.8-7.1
		v-0.5c0-0.5,1.9-6.7,2.6-9.5c5.7-21,14.8-42.1,22.9-62.9c2.9-7.9,14.5-15.7,21-18.1c9.8-3.6,19.8-8.3,29.5-12.9
		c0.7-0.2,0.5-1.4,0.7-1.9c1-1.2,2.1-2.9,3.3-4c3.3-3.1,7.6-1.9,7.6-6.7c0-0.7,0-1-0.2-1.4c-6-3.8-7.9-11.4-9-16.4
		c-0.7-3.1-2.1-6-2.9-8.8c-1-3.8-1-8.1-2.6-11.9c0-0.5-6.7-10-6.7-12.1V49.7c1-3.8,5.5-5.5,8.6-8.1c0.5-0.5,0.7-1.2,1-1.9
		c0.5-1.2,2.9-4.5,4.8-4.3c-0.7,0.7-1.7,1.9-1.7,2.6v1.2l0.5,0.5c2.1-1.2,1.9-5.2,5.5-5.7c0,0.2-0.5,0.7-0.2,1.2
		c1-1.2,2.6-3.3,3.3-3.3c0.5,0,0.2,0.5,0.5,0.7c0.2-1.2,1.9-1.9,3.1-2.1c0,0.7-0.2,1.4,0,2.1c1.4-1.2,3.1-2.6,4.8-3.6H133z"/>
</g>
<g>
	<rect x="16.2" y="235.8" class="st3" width="260" height="47.2"/>
	<path class="st4" d="M95,269.9v-32.4h6.7l8.4,13.9c2.2,3.6,4,7.3,5.5,10.8h0.1c-0.4-4.3-0.5-8.5-0.5-13.4v-11.3h5.5v32.4h-6.1
		l-8.4-14.2c-2.1-3.6-4.2-7.5-5.8-11.2l-0.1,0c0.2,4.2,0.3,8.4,0.3,13.8v11.6H95z"/>
	<path class="st4" d="M140.4,269.9l-0.4-2.6h-0.1c-1.4,1.8-3.9,3.1-6.9,3.1c-4.7,0-7.3-3.4-7.3-7c0-5.9,5.2-8.9,13.9-8.8v-0.4
		c0-1.5-0.6-4.1-4.8-4.1c-2.3,0-4.7,0.7-6.3,1.7l-1.2-3.8c1.7-1.1,4.8-2.1,8.4-2.1c7.5,0,9.6,4.8,9.6,9.8v8.4c0,2.1,0.1,4.2,0.3,5.6
		H140.4z M139.6,258.5c-4.2-0.1-8.2,0.8-8.2,4.4c0,2.3,1.5,3.4,3.4,3.4c2.4,0,4.1-1.5,4.6-3.2c0.1-0.4,0.2-0.9,0.2-1.3V258.5z"/>
	<path class="st4" d="M151.6,235.8h6v13.9h0.1c0.7-1.1,1.7-2,2.9-2.7c1.2-0.7,2.5-1.1,4-1.1c4,0,8.2,2.6,8.2,10.1v13.8h-5.9v-13.1
		c0-3.4-1.2-6-4.5-6c-2.3,0-3.9,1.5-4.6,3.3c-0.2,0.5-0.2,1.1-0.2,1.8v14h-6V235.8z"/>
	<path class="st4" d="M183.3,259.9c0.1,4.2,3.5,6,7.2,6c2.7,0,4.7-0.4,6.5-1.1l0.9,4.1c-2,0.8-4.8,1.4-8.2,1.4
		c-7.6,0-12-4.7-12-11.8c0-6.5,3.9-12.6,11.4-12.6c7.6,0,10.1,6.2,10.1,11.4c0,1.1-0.1,2-0.2,2.5H183.3z M193.5,255.8
		c0-2.2-0.9-5.7-4.8-5.7c-3.6,0-5.2,3.3-5.4,5.7H193.5z"/>
</g>
</svg>
