<?xml version="1.0" encoding="utf-8"?>
<!-- Generator: Adobe Illustrator 16.0.3, SVG Export Plug-In . SVG Version: 6.00 Build 0)  -->
<!DOCTYPE svg PUBLIC "-//W3C//DTD SVG 1.1//EN" "http://www.w3.org/Graphics/SVG/1.1/DTD/svg11.dtd" [
	<!ENTITY ns_extend "http://ns.adobe.com/Extensibility/1.0/">
	<!ENTITY ns_ai "http://ns.adobe.com/AdobeIllustrator/10.0/">
	<!ENTITY ns_graphs "http://ns.adobe.com/Graphs/1.0/">
	<!ENTITY ns_vars "http://ns.adobe.com/Variables/1.0/">
	<!ENTITY ns_imrep "http://ns.adobe.com/ImageReplacement/1.0/">
	<!ENTITY ns_sfw "http://ns.adobe.com/SaveForWeb/1.0/">
	<!ENTITY ns_custom "http://ns.adobe.com/GenericCustomNamespace/1.0/">
	<!ENTITY ns_adobe_xpath "http://ns.adobe.com/XPath/1.0/">
]>
<svg version="1.1" id="Ebene_1" xmlns:x="&ns_extend;" xmlns:i="&ns_ai;" xmlns:graph="&ns_graphs;"
	 xmlns="http://www.w3.org/2000/svg" xmlns:xlink="http://www.w3.org/1999/xlink" x="0px" y="0px" width="300px" height="300px"
	 viewBox="0 0 300 300" style="enable-background:new 0 0 300 300;" xml:space="preserve">
<style type="text/css">
<![CDATA[
	.st0{fill:#101010;}
	.st1{fill:#B3B3B3;}
	.st2{fill:#B4B4B4;}
	.st3{fill:#B74F90;}
	.st4{clip-path:url(#SVGID_2_);}
	.st5{fill:#FDFDFD;}
	.st6{fill:#FEFEFE;}
	.st7{display:none;fill:none;}
	.st8{fill:none;}
	.st9{fill:#333333;}
	.st10{fill:#0B0B0B;}
	.st11{fill:#0C0C0C;}
	.st12{fill:#0D0D0D;}
]]>
</style>
<metadata>
	<sfw  xmlns="&ns_sfw;">
		<slices></slices>
		<sliceSourceBounds  width="554.5" height="653" x="-33.6" y="-524" bottomLeftOrigin="true"></sliceSourceBounds>
	</sfw>
</metadata>
<symbol  id="blue" viewBox="-150 -150 300 300">
	<path class="st3" d="M150-97c0-6.8,0-53-71.5-53H-84c-62.5,0-66,47.2-66,54V90c0,54.5,59.2,60,66,60l161.5,0c6.8,0,72.5,0,72.5-60
		V-97z"/>
	<polygon class="st7" points="-150,150 150,150 150,-150 -150,-150 	"/>
</symbol>
<g id="ECU">
	
		<use xlink:href="#blue"  width="300" height="300" id="XMLID_1_" x="-150" y="-150" transform="matrix(1 0 0 -1 150 150)" style="overflow:visible;"/>
	<g>
		<defs>
			<path id="SVGID_1_" d="M230.7,271.4H68.3c-22,0-39.9-17.9-39.9-39.9V69.1c0-22,17.9-39.9,39.9-39.9h162.4
				c22,0,39.9,17.9,39.9,39.9v162.4C270.6,253.6,252.7,271.4,230.7,271.4z"/>
		</defs>
		<clipPath id="SVGID_2_">
			<use xlink:href="#SVGID_1_"  style="overflow:visible;"/>
		</clipPath>
		<g class="st4">
			<path class="st6" d="M-33.6,524c0-217.7,0-435.3,0-653c184.8,0,369.7,0,554.5,0c0,217.7,0,435.3,0,653
				C336.1,524,151.2,524-33.6,524z M57.9,206c-1.1,18.1-0.3,36,3.6,53.8c4.3,20.1,15.6,36.5,27.1,52.9c6,8.6,12.5,17.1,16.7,26.5
				c8.1,18.2,17.4,35.6,28.6,51.9c9.1,13.3,18.5,26.3,31.2,36.5c15.7,12.6,32.8,10.8,50.3,4.7c2.3-0.7,4.6-1.3,6.9-2
				c3.7,9,7.1,18.2,11.2,27.1c7.8,16.7,13.4,33.7,10.7,52.6c-0.9,6.4,3.2,9.1,8.8,5.8c5.6-3.3,10.5-7.7,15.7-11.6
				c7.6-8.3,15.4-16.4,22.8-25c13.3-15.4,25.8-31.5,39.6-46.3c11.3-12.1,24.4-22.4,36.1-34.1c7-7,14.8-12.1,24.1-15.4
				c24.2-8.6,48.7-15.4,74.9-12.4c1,0.1,2.8-0.3,3-0.8c0.3-1.1,0-2.6-0.6-3.5c-4.6-7.6-9.2-15.1-14-22.5
				c-21.5-33-29.1-70.1-31.2-108.7c-0.1-1.8,0.1-4.5,1.2-5.3c7.1-5.2,10.6-12.7,11.7-20.9c1.2-9,5.2-16.8,9-24.7
				c1-2.1,2.1-4.1,2.8-6.3c3-9.8,5.9-19.6,8.9-29.5c0.7-3,1.5-6,2.2-9c4.2-17,5.9-34.1,3-51.6c-3.7-22.4-10.6-43.9-18.6-65
				c-0.6-1.6-1-3.4-1.3-5.2c-1-7.1-1.5-14.3-3-21.3c-3-13.4-10-25-16.4-37.1c-9.9-18.5-21.9-35-38.3-48.2
				c-25.5-20.5-54.4-29.6-87.1-25.2c-1.3,0.2-3,0-4.1-0.6c-17.4-10.8-36.6-11.8-56.1-9.4c-27.3,3.4-52.8,12.2-76.8,25.9
				c-1.7,1-3.6,1.6-5.4,2.2c-30.2,8.7-57.7,23-83.2,41.3c-2.6,1.9-5.6,3.6-8.6,4.3c-37.2,9.7-65.3,30.8-83.5,65
				c-3.8,7.2-4.5,14.3-2.6,21.8c3.2,12.5,11.7,21.5,20.8,29.8C1.7,70.1,3.9,74,5,79c3.2,14,6.2,28.2,14,40.6c1.5,2.4,2.7,5.2,3.5,8
				c4,13.9,10,26.6,19.5,37.7c1.4,1.7,2.4,3.8,3.2,5.9c4,10.9,7.9,21.8,11.9,32.7C57.4,204.6,57.6,205.3,57.9,206z"/>
			<path class="st11" d="M57.1,203.9c-3.9-10.9-7.8-21.8-11.9-32.7c-0.8-2.1-1.8-4.3-3.2-5.9c-9.5-11-15.5-23.8-19.5-37.7
				c-0.8-2.8-2-5.5-3.5-8C11.2,107.1,8.2,93,5,79c-1.1-5-3.3-8.9-7.1-12.4c-9.1-8.4-17.6-17.4-20.8-29.8c-1.9-7.5-1.3-14.6,2.6-21.8
				c18.2-34.2,46.3-55.4,83.5-65c3.1-0.8,6-2.5,8.6-4.3c25.5-18.3,53-32.6,83.2-41.3c1.9-0.5,3.8-1.2,5.4-2.2
				c23.9-13.6,49.5-22.5,76.8-25.9c19.5-2.4,38.7-1.3,56.1,9.4c1.1,0.7,2.8,0.8,4.1,0.6c32.7-4.3,61.6,4.8,87.1,25.2
				c16.4,13.1,28.4,29.7,38.3,48.2c6.4,12,13.4,23.7,16.4,37.1c1.6,7,2,14.2,3,21.3c0.3,1.7,0.7,3.5,1.3,5.2
				c8,21.2,14.8,42.6,18.6,65c2.9,17.5,1.2,34.6-3,51.6c-0.7,3-1.5,6-2.2,9c-0.6-1-1.3-2.1-1.9-3.1c-0.1-3.8-0.2-7.5-0.2-11.3
				c0-10.8-1.7-21.3-7.1-30.7c-2.6-4.5-6.7-8.4-10.9-11.4c-4.8-3.4-9.9-1.8-13.1,3.2c-2.6,4.1-4.8,8.5-7.2,12.7c-1,1.3-2,2.6-3,3.9
				c-0.3,0.1-0.7,0.1-0.9,0.2c-15.2,12.4-26.1,27.4-28.8,47.5c-1.6,11.8-11.2,19.4-21.4,18c-4.9-0.6-7.8-2.8-8-8.1
				c-0.1-3.8-0.5-7.5-1-11.3c-1-7.3-1.9-14.6-3.4-21.8c-0.9-4.1-3.7-6.1-8.1-3.9c-3.4,1.7-6.7,3.5-10.2,4.8
				c-8.7,3.3-17.3,7-26.3,9.3c-6.9,1.7-15.3,2.2-20.4-3.6c-12.2-13.6-20.9-29.3-22.2-48.1C261,69.7,251.6,49,225.6,39.3
				c-0.7-0.9-1.4-2.5-2.1-2.5c-9.1-0.8-18.3-2.4-27.3-1.6c-16.2,1.3-30.5,8.5-43.7,17.7c-23.7,16.5-49.8,24.6-78.8,22.1
				c-9.8-0.8-19.6-1.9-29.3-3.3c-5.1-0.7-8.2,1.1-9.2,5.7c-1.1,5.1-1.9,10.4-1.8,15.5c0.4,24.9,6.1,49,12.5,73c0.3,1,0.8,2,0.6,1.6
				c7.8-2.7,15.1-5.3,22.4-7.8c12.5-0.3,24.4,1.8,36.4,6.1c8.9,3.2,10.7,9.2,12.7,16.4c-0.6,0-1.4,0.1-1.9-0.2
				c-10.3-6.8-21.7-8-33.5-6.2c-8,1.3-15.9,3.7-23.8,5.8c-2.7,0.7-4,0.6-4.9-2.6c-0.7-2.5-3-4.5-4.7-6.7c-0.5,0.3-1.1,0.6-1.6,0.9
				c3.1,8.9,6.3,17.8,9.4,26.7C57,201.3,57,202.6,57.1,203.9z"/>
			<path class="st2" d="M222.4,430.4c-2.3,0.7-4.6,1.3-6.9,2c-1.6,0-3.3,0.1-4.9,0.1c-8.2,0-16.5,0-24.7,0c-4-3.5-8.4-6.5-9.8-12.2
				c-2-7.9,0.5-10.8,8.4-9c6.6,1.5,13,3.5,19.6,4.9c18.3,3.9,34.5,0.4,49-12.4c7.6-6.8,16.5-12.3,25.3-17.5
				c21-12.4,42.6-23.8,63.4-36.6c8.1-5,15.7-11.6,21.6-19c18.9-23.8,26.4-52.1,29.5-81.7c1.2-11.6,1.7-23.4,2.4-33.7
				c6,3.8,12.5,8,19.2,11.9c1.6,0.9,4,0.3,6.1,0.4c-0.4,1.3-0.8,2.7-1.2,4c-13.3,10.4-21,24.3-25.1,40.5
				c-3.9,15.4-7.9,30.8-12.7,45.9c-3.9,12.4-9.6,24.3-18.8,33.6c-9.5,9.6-14.9,20.9-17.2,34c-2.5,14-6.9,27.3-14.5,39.4
				c-0.6,1-0.7,2.4-1,3.6c-8,9.7-16.1,19.4-24.1,29.1c-12.7,15.3-25.3,30.5-38,45.8c-4.7,3.3-9.1,7-14,9.8c-4.7,2.7-6.8,1.2-6.4-4.1
				c1.1-13.5-1.1-26.5-5.9-39c-4.9-12.7-10.5-25.1-15.9-37.5C225.1,431.6,223.5,431.2,222.4,430.4z"/>
			<path class="st10" d="M267.8,503.4c12.7-15.3,25.3-30.5,38-45.8c8-9.7,16.1-19.4,24.1-29.1c13.1-12.3,26.3-24.7,39.4-36.9
				c2.4-2.2,4.7-4.8,7.6-6.1c17.8-8.1,36.2-14.4,55.6-17c10.1-1.4,20.4-1.8,30.7-2.6c-1.3-2.1-2.6-4.3-4.1-6.4
				c-27-38.3-38.9-81.4-40-127.9c0.4-1.3,0.8-2.7,1.2-4c2.6-2.3,6.1-4.2,7.6-7.2c2.5-4.7,3.7-10,5.4-15.1c1.6-4.7,2.6-9.8,4.7-14.2
				c6.3-13.5,12.6-27,15.2-41.8c0.2-1.2,1.2-2.3,1.8-3.4c0.6,1,1.3,2.1,1.9,3.1c-2.9,9.8-5.8,19.7-8.9,29.5
				c-0.7,2.2-1.8,4.2-2.8,6.3c-3.8,8-7.7,15.7-9,24.7c-1.1,8.1-4.6,15.6-11.7,20.9c-1.1,0.8-1.3,3.5-1.2,5.3
				c2.1,38.6,9.7,75.6,31.2,108.7c4.8,7.4,9.4,15,14,22.5c0.6,1,0.9,2.5,0.6,3.5c-0.1,0.5-2,0.9-3,0.8c-26.2-3-50.6,3.8-74.9,12.4
				c-9.3,3.3-17.1,8.3-24.1,15.4c-11.7,11.7-24.8,22.1-36.1,34.1c-13.9,14.8-26.3,30.9-39.6,46.3c-7.4,8.5-15.2,16.7-22.8,25
				C268.5,504,268.1,503.7,267.8,503.4z"/>
			<path class="st12" d="M57.1,203.9c0-1.3,0-2.6-0.1-4c0.7-0.4,1.4-0.8,2-1.3c18.1-16.6,38.2-18.4,59-5.4c-0.4,3.5-0.7,7-1.1,10.5
				c-4.6,8.5-11,10.5-19.5,6.1c-5-4.8-6-10.9-5.6-17.3c-9.1-2.9-24.6,2.6-29.7,10.4c-3.5,3.8-2.4,8.4-2.5,12.8
				c-0.6-3.2-1.1-6.5-1.7-9.7C57.6,205.3,57.4,204.6,57.1,203.9z"/>
			<path class="st11" d="M57.9,206c0.6,3.2,1.1,6.5,1.7,9.7c0.1,1.1,0.4,2.3,0.3,3.4c-1.5,29.4,4.7,56.6,22.2,80.8
				c3.8,5.3,7.7,10.6,11.2,16.1c5,7.7,10.7,15.1,14.3,23.5c10.1,23.5,23.1,45.2,38.9,65.3c1,1.3,2.7,2,4.1,3
				c0.3,0.7,0.4,1.7,0.9,2.2c5.2,4.9,10.5,9.7,15.9,14.4c5.3,4.6,11.3,7.8,18.6,8.2c8.2,0,16.5,0,24.7,0c1.6,0,3.3-0.1,4.9-0.1
				c-17.5,6.1-34.6,7.9-50.3-4.7c-12.7-10.2-22.1-23.2-31.2-36.5c-11.2-16.4-20.5-33.8-28.6-51.9c-4.2-9.5-10.7-17.9-16.7-26.5
				c-11.5-16.4-22.8-32.9-27.1-52.9C57.7,242,56.8,224.1,57.9,206z"/>
			<path class="st6" d="M185.9,432.6c-7.2-0.4-13.2-3.6-18.6-8.2c-5.4-4.7-10.7-9.5-15.9-14.4c-0.5-0.5-0.6-1.4-0.9-2.2
				c-0.3-0.8-0.4-1.6-0.8-2.2c-9-15-14.3-31.1-14.9-48.7c-0.1-1.8,0.5-3.6,0.8-5.7c4.6,3,8.7,5.4,12.4,8.3c3.8,2.9,7.1,6.5,10.8,9.5
				c4.3,3.5,9.2,6.6,4.9,13c12-2.3,23.4-5.3,34.9-6.4c11.5-1.1,23.3-0.2,34.9-0.2c-0.7-1.3-1.5-1.9-2.4-2.1
				c-6.8-1.6-13.7-3.1-20.6-4.7c-5.5-1.3-5.6-2.4-3-7.4c3.7-7,6.5-14.6,13.7-19c0.6-0.4,0.7-1.4,1-2.2c2.6-1.6,5.4-3,7.8-4.8
				c1-0.7,1.4-2.2,2.1-3.3c-0.4-0.3-0.7-0.9-1.1-0.9c-14.1-2-28.2-3.8-42.2-6.1c-8.2-1.3-16.1-2.3-24.1,1.4c-3,1.4-7,0.9-10.7,1.3
				c0.5-12.8-4.4-23-11.3-32.4c-2.1-2.9-4.5-3.6-8-2.7c-17,4.1-29.3-5.8-29.9-23.4c-0.5-13.2,3-25.6,6.1-38.2
				c2.2-8.9,3.8-17.9,5.7-26.9c0.4-3.5,0.7-7,1.1-10.5c0-3.7,0-7.4,0-11.1c-2-7.2-3.8-13.2-12.7-16.4c-12-4.3-23.9-6.4-36.4-6.1
				c-0.3-2.1-0.7-4.2-1-6.3c-1-8.4-2.6-16.8-2.9-25.3c-0.3-8,3.9-12.9,11.9-13.8c6.4-0.7,13.1-0.1,19.5,0.6
				c11.6,1.3,23.1,2.9,34.6-0.7c14.2-4.5,24.8-13.8,34.4-24.6c10.9-12.3,21.2-25,32.6-36.8c7.3-7.6,16.3-13.3,27.6-13.4
				c26,9.7,35.4,30.4,37.2,56.1c1.3,18.9,10,34.5,22.2,48.1c5.2,5.8,13.5,5.3,20.4,3.6c9-2.2,17.6-6,26.3-9.3
				c3.5-1.3,6.9-3.1,10.2-4.8c4.4-2.2,7.3-0.2,8.1,3.9c1.5,7.2,2.4,14.5,3.4,21.8c0.5,3.7,0.9,7.5,1,11.3c0.2,5.3,3.1,7.4,8,8.1
				c10.1,1.3,19.8-6.2,21.4-18c2.7-20.1,13.6-35.1,28.8-47.5c0.2-0.2,0.6-0.2,0.9-0.2c-3.4,5.8-6.7,11.6-6.6,18.6
				c1.6-1,2.2-2.4,2.9-3.7c2.6-4.5,4.6-9.5,7.9-13.5c6.7-7.9,16.3-7.3,21.8,1.4c2.5,3.9,4.3,8.5,5.4,13.1c2.8,11.9,1,23.8-2.1,35.5
				c-2,7.4-4.5,14.7-6.9,22.1c1.8-1.6,3.1-3.5,4.1-5.5c7-13.5,10.2-27.9,9.9-43.1c-0.3-11.2-2.8-21.7-9.3-31.1
				c-2.9-4.1-6.4-5.8-10.9-4.1c-4.5,1.7-8.8,4.2-13.2,6.3c2.4-4.2,4.5-8.6,7.2-12.7c3.2-5,8.2-6.6,13.1-3.2c4.3,3,8.4,6.9,10.9,11.4
				c5.4,9.4,7.1,19.9,7.1,30.7c0,3.8,0.2,7.5,0.2,11.3c-0.6,1.1-1.6,2.2-1.8,3.4c-2.7,14.8-8.9,28.3-15.2,41.8
				c-2.1,4.5-3.1,9.5-4.7,14.2c-1.7,5.1-2.9,10.4-5.4,15.1c-1.5,2.9-5,4.8-7.6,7.2c-2-0.1-4.5,0.5-6.1-0.4
				c-6.7-3.8-13.2-8.1-19.2-11.9c-0.7,10.3-1.1,22-2.4,33.7c-3.1,29.6-10.6,57.9-29.5,81.7c-5.9,7.4-13.5,14.1-21.6,19
				c-20.8,12.8-42.4,24.2-63.4,36.6c-8.8,5.2-17.7,10.8-25.3,17.5c-14.4,12.8-30.7,16.2-49,12.4c-6.6-1.4-13-3.4-19.6-4.9
				c-7.9-1.8-10.4,1.1-8.4,9C177.5,426.1,181.8,429.1,185.9,432.6z M261.7,174.3c7.2,4.8,15.2,1.9,23.2,2.4c0-1.9,0.3-3.7,0-5.3
				c-2.4-11.3-9.8-18.3-20.3-22c-8.3-3-16.9-5-25.4-7.4c9.4-0.7,18.9-1.4,29.3-2.2c-4.4-4.7-9.5-5.7-14.3-6.5
				c-5.6-0.9-11.8,0.2-16.9-1.8c-9.4-3.6-18.2-2.2-27.4,0.3c-9.3,2.5-18.6,5.4-28.1,6.3c-15.4,1.4-26.2,9.2-34.8,21.1
				c-1.6,2.2-2.1,5.1-3.6,8.8c3.2-1.6,5.1-2.6,6-3.1c1.9,4.1,3.5,7.4,5.1,10.8c1.5,0.5,2.9,1,4.6,1.5c-1.3,1.4-2.9,2.5-3.7,4.1
				c-0.6,1.1-0.6,3.1,0,4.2c2.7,5,5.5,10,8.7,14.7c3.1,4.5,6.1,9.9,10.6,12.4c9.1,5.1,19,8.7,28.9,12.3c4.9,1.8,10.2,2.2,15.4,3.2
				c0.2-0.5,0.3-1,0.5-1.5c-8.6-5.6-19-9.5-23.3-20.8c3.4,0.2,6,0.5,8.6,0.4c4.1-0.1,8.5-1.7,12.1-0.5c14.5,5,26.6-1.5,38.7-7.4
				c2.7-1.3,4.2-6,5.1-9.5c1-3.6-2.9-3-4.9-4c-3.1-1.5-3.2-4.4-0.2-6.5c1.8-1.3,3.8-2.4,5.7-3.6
				C261.2,174.4,261.4,174.3,261.7,174.3z M419.6,176.2c0.6,0.3,1.2,0.6,1.8,0.9c1.7-2.2,4.1-4.2,5.1-6.7c3.4-8.2,4.6-16.7,2-25.4
				c-2.8-9.3-6.9-11.3-16-7.7c-0.8,0.3-1.8,0.3-2.3,0.8c-1.3,1.4-2.4,2.9-3.6,4.4c1.4,1.1,2.6,2.7,4.2,3.2c6.1,1.6,8.6,4.4,8.7,10.7
				C419.6,163,419.6,169.6,419.6,176.2z M147.1,288.1c0.1,0.7,0.3,1.4,0.4,2c5.8-0.7,11.7-1.1,17.5-2.3c2-0.4,3.6-2.7,5.3-4.1
				c-2.4-0.9-4.8-2.4-7.3-2.6c-1.9-0.2-4.1,1-6,1.9C153.6,284.5,150.4,286.4,147.1,288.1z"/>
			<path class="st2" d="M225.6,39.3c-11.3,0.2-20.3,5.9-27.6,13.4c-11.4,11.8-21.7,24.5-32.6,36.8c-9.6,10.8-20.2,20.2-34.4,24.6
				c-11.5,3.6-23,2-34.6,0.7c-6.5-0.7-13.1-1.3-19.5-0.6c-8,0.9-12.2,5.8-11.9,13.8c0.3,8.5,1.8,16.9,2.9,25.3
				c0.3,2.1,0.6,4.2,1,6.3c-7.3,2.5-14.6,5.1-22.4,7.8c0.2,0.4-0.4-0.6-0.6-1.6c-6.4-23.9-12.1-48-12.5-73
				c-0.1-5.2,0.7-10.4,1.8-15.5c1-4.6,4.1-6.5,9.2-5.7c9.7,1.4,19.5,2.5,29.3,3.3c29,2.5,55.1-5.6,78.8-22.1
				c13.2-9.2,27.5-16.4,43.7-17.7c9-0.7,18.2,0.9,27.3,1.6C224.3,36.9,224.9,38.4,225.6,39.3z"/>
			<path class="st1" d="M117.9,182.1c0,3.7,0,7.4,0,11.1c-20.8-13-40.9-11.2-59,5.4c-0.6,0.5-1.3,0.9-2,1.3
				c-3.1-8.9-6.3-17.8-9.4-26.7c0.5-0.3,1.1-0.6,1.6-0.9c1.6,2.2,4,4.2,4.7,6.7c0.9,3.2,2.2,3.3,4.9,2.6c7.9-2.1,15.7-4.6,23.8-5.8
				c11.7-1.8,23.2-0.6,33.5,6.2C116.5,182.2,117.3,182,117.9,182.1z"/>
			<path class="st2" d="M116.9,203.7c-1.9,9-3.5,18-5.7,26.9c-3.2,12.6-6.6,25-6.1,38.2c0.6,17.6,12.9,27.5,29.9,23.4
				c3.6-0.9,5.9-0.2,8,2.7c6.9,9.5,11.8,19.6,11.3,32.4c3.7-0.4,7.7,0.2,10.7-1.3c8-3.7,15.8-2.8,24.1-1.4c14,2.3,28.2,4,42.2,6.1
				c0.4,0.1,0.7,0.6,1.1,0.9c-9.5,0.9-18.9,1.9-28.4,2.8c-2.4,0.2-4.8,0.3-7.2,0.4c-1.5-0.6-3-1.6-4.5-1.7
				c-13.4-0.6-26.9-1.9-39.1,5.7c-3.2,2.6-6.5,5.1-9.7,7.7c0.2,0.6,0.4,1.1,0.6,1.7c11.7,0.8,23.4,1.7,35.2,2.4
				c1.2,0.1,2.5-0.6,3.7-1.2c12.5-5.9,26-7.8,39.4-9.7c-0.3,0.7-0.5,1.8-1,2.2c-7.2,4.5-10.1,12-13.7,19c-2.6,5-2.5,6.1,3,7.4
				c6.8,1.6,13.7,3.1,20.6,4.7c0.9,0.2,1.7,0.8,2.4,2.1c-11.6,0-23.4-0.9-34.9,0.2c-11.6,1.1-23,4.2-34.9,6.4
				c4.3-6.4-0.5-9.5-4.9-13c-3.7-3-7-6.5-10.8-9.5c-3.7-2.9-7.8-5.2-12.4-8.3c-0.3,2.1-0.9,3.9-0.8,5.7c0.5,17.6,5.9,33.7,14.9,48.7
				c0.4,0.7,0.6,1.5,0.8,2.2c-1.4-1-3.1-1.7-4.1-3c-15.8-20.1-28.7-41.8-38.9-65.3c-3.6-8.3-9.3-15.8-14.3-23.5
				c-3.6-5.5-7.4-10.8-11.2-16.1c-17.4-24.2-23.7-51.4-22.2-80.8c0.1-1.1-0.2-2.3-0.3-3.4c0.1-4.4-1-9.1,2.5-12.8
				c10.8,7,23,7.2,35.3,6.9C105.9,214.2,112.3,212.2,116.9,203.7z"/>
			<path class="st5" d="M97.4,209.8c-12.3,0.2-24.4,0-35.3-6.9c5.1-7.8,20.6-13.3,29.7-10.4C91.4,198.9,92.3,205.1,97.4,209.8z"/>
			<path class="st2" d="M261,174.6c-1.9,1.2-3.8,2.3-5.7,3.6c-3,2.1-2.9,5,0.2,6.5c2,1,5.9,0.4,4.9,4c-0.9,3.4-2.4,8.2-5.1,9.5
				c-12.1,5.9-24.2,12.4-38.7,7.4c-3.5-1.2-8,0.4-12.1,0.5c-2.6,0.1-5.2-0.2-8.6-0.4c4.3,11.3,14.6,15.1,23.3,20.8
				c-0.2,0.5-0.3,1-0.5,1.5c-5.1-1-10.5-1.4-15.4-3.2c-9.8-3.6-19.8-7.3-28.9-12.3c-4.5-2.5-7.4-7.9-10.6-12.4
				c-3.3-4.7-6-9.7-8.7-14.7c-0.6-1.1-0.6-3,0-4.2c0.8-1.5,2.3-2.6,3.7-4.1c-1.6-0.5-3.1-1-4.6-1.5c10.4,1.2,18-3.6,25.3-10.6
				c5.8-5.5,12.5-11.4,19.9-13.9c12.8-4.3,26.4-6.2,39.7-9.1c8.5,2.4,17.1,4.4,25.4,7.4c10.4,3.7,17.8,10.8,20.3,22
				c0.4,1.6,0,3.4,0,5.3c-8-0.5-16,2.4-23.2-2.4c-17.3-10-35.5-12.6-54.6-6.3c-10,3.3-18.1,9.4-24.6,17.6c3.5,4.3,4.3,4.5,9.4,2.6
				c11.4,2.7,22.8,2.8,34.3,1.3c7.4,1.7,13-2.8,18.5-6.2c3-1.8,4.4-6.5,6.9-10.4C254,173.2,257.5,173.9,261,174.6z"/>
			<path class="st12" d="M239.2,141.9c-13.3,2.9-26.9,4.8-39.7,9.1c-7.4,2.5-14,8.3-19.9,13.9c-7.3,6.9-14.9,11.8-25.3,10.6
				c-1.6-3.4-3.2-6.7-5.1-10.8c-0.9,0.5-2.8,1.4-6,3.1c1.4-3.7,2-6.6,3.6-8.8c8.6-11.9,19.5-19.7,34.8-21.1
				c9.5-0.9,18.9-3.7,28.1-6.3c9.2-2.5,17.9-3.9,27.4-0.3c5.1,2,11.3,0.8,16.9,1.8c4.9,0.8,9.9,1.8,14.3,6.5
				C258.1,140.5,248.7,141.2,239.2,141.9z"/>
			<path class="st12" d="M261,174.6c-3.5-0.7-7-1.3-9.4-1.8c-2.5,4-3.8,8.6-6.9,10.4c-5.5,3.3-11.1,7.9-18.5,6.2
				c-7.4-3.2-11.8-8.5-11.5-17.8c-5.5,1.7-10.3,3-15,4.7c-5.5,1.9-8.8,5.5-7.8,11.9c-5.1,1.9-5.9,1.7-9.4-2.6
				c6.5-8.2,14.6-14.4,24.6-17.6c19.1-6.3,37.3-3.7,54.6,6.3C261.4,174.3,261.2,174.4,261,174.6z"/>
			<path class="st0" d="M147.1,288.1c3.3-1.7,6.5-3.6,9.9-5.1c1.9-0.9,4.1-2.1,6-1.9c2.5,0.2,4.9,1.7,7.3,2.6
				c-1.8,1.4-3.4,3.7-5.3,4.1c-5.7,1.2-11.6,1.6-17.5,2.3C147.3,289.4,147.2,288.8,147.1,288.1z"/>
			<path class="st6" d="M191.9,188.2c-1.1-6.3,2.3-9.9,7.8-11.9c4.7-1.7,9.6-3,15-4.7c-0.3,9.3,4.1,14.6,11.5,17.8
				C214.7,191,203.3,190.8,191.9,188.2z"/>
		</g>
	</g>
	<g>
		<rect x="20.1" y="235.8" class="st8" width="260" height="47.2"/>
		<path class="st9" d="M91.8,238c2.6-0.4,5.9-0.7,9.4-0.7c6,0,10.2,1.2,13.2,3.7c3.1,2.5,5,6.4,5,11.9c0,5.8-2,10.1-5,12.9
			c-3.2,2.9-8.4,4.4-14.6,4.4c-3.5,0-6-0.2-8-0.4V238z M97.7,265.4c0.8,0.1,2.1,0.1,3.3,0.1c7.7,0,12.2-4.2,12.2-12.4
			c0-7.2-4.1-11.2-11.5-11.2c-1.9,0-3.2,0.1-4,0.3V265.4z"/>
		<path class="st9" d="M128.5,259.9c0.1,4.2,3.5,6,7.2,6c2.7,0,4.7-0.4,6.5-1.1l0.9,4.1c-2,0.8-4.8,1.4-8.2,1.4
			c-7.6,0-12-4.7-12-11.8c0-6.5,3.9-12.6,11.4-12.6c7.6,0,10.1,6.2,10.1,11.4c0,1.1-0.1,2-0.2,2.5H128.5z M138.8,255.8
			c0-2.2-0.9-5.7-4.8-5.7c-3.6,0-5.2,3.3-5.4,5.7H138.8z"/>
		<path class="st9" d="M155.9,239.9v6.7h5.6v4.4h-5.6v10.3c0,2.8,0.8,4.3,3,4.3c1,0,1.8-0.1,2.3-0.3l0.1,4.5
			c-0.9,0.3-2.4,0.6-4.3,0.6c-2.2,0-4-0.7-5.1-1.9c-1.2-1.3-1.8-3.5-1.8-6.5v-11h-3.4v-4.4h3.4v-5.3L155.9,239.9z"/>
		<path class="st9" d="M179.1,269.9l-0.4-2.6h-0.1c-1.4,1.8-3.9,3.1-6.9,3.1c-4.7,0-7.3-3.4-7.3-7c0-5.9,5.2-8.9,13.9-8.8v-0.4
			c0-1.5-0.6-4.1-4.8-4.1c-2.3,0-4.7,0.7-6.3,1.7l-1.2-3.8c1.7-1.1,4.8-2.1,8.4-2.1c7.5,0,9.6,4.8,9.6,9.8v8.4
			c0,2.1,0.1,4.2,0.3,5.6H179.1z M178.3,258.5c-4.2-0.1-8.2,0.8-8.2,4.4c0,2.3,1.5,3.4,3.4,3.4c2.4,0,4.1-1.5,4.6-3.2
			c0.1-0.4,0.2-0.9,0.2-1.3V258.5z"/>
		<path class="st9" d="M196.6,240c0,1.8-1.3,3.2-3.4,3.2c-2,0-3.3-1.4-3.3-3.2c0-1.8,1.3-3.2,3.3-3.2
			C195.3,236.8,196.6,238.2,196.6,240z M190.3,269.9v-23.4h6v23.4H190.3z"/>
		<path class="st9" d="M202.6,235.8h6v34.1h-6V235.8z"/>
	</g>
</g>
</svg>
