<?xml version="1.0" encoding="utf-8"?>
<!-- Generator: Adobe Illustrator 16.0.3, SVG Export Plug-In . SVG Version: 6.00 Build 0)  -->
<!DOCTYPE svg PUBLIC "-//W3C//DTD SVG 1.1//EN" "http://www.w3.org/Graphics/SVG/1.1/DTD/svg11.dtd" [
	<!ENTITY ns_extend "http://ns.adobe.com/Extensibility/1.0/">
	<!ENTITY ns_ai "http://ns.adobe.com/AdobeIllustrator/10.0/">
	<!ENTITY ns_graphs "http://ns.adobe.com/Graphs/1.0/">
	<!ENTITY ns_vars "http://ns.adobe.com/Variables/1.0/">
	<!ENTITY ns_imrep "http://ns.adobe.com/ImageReplacement/1.0/">
	<!ENTITY ns_sfw "http://ns.adobe.com/SaveForWeb/1.0/">
	<!ENTITY ns_custom "http://ns.adobe.com/GenericCustomNamespace/1.0/">
	<!ENTITY ns_adobe_xpath "http://ns.adobe.com/XPath/1.0/">
]>
<svg version="1.1" id="Ebene_1" xmlns:x="&ns_extend;" xmlns:i="&ns_ai;" xmlns:graph="&ns_graphs;"
	 xmlns="http://www.w3.org/2000/svg" xmlns:xlink="http://www.w3.org/1999/xlink" x="0px" y="0px" width="300px" height="300px"
	 viewBox="4.074 5 300 300" enable-background="new 4.074 5 300 300" xml:space="preserve">
<metadata>
	<sfw  xmlns="&ns_sfw;">
		<slices></slices>
		<sliceSourceBounds  height="300" width="300" x="-50.927" y="-50" bottomLeftOrigin="true"></sliceSourceBounds>
	</sfw>
</metadata>
<path fill="#336666" d="M232.073,305h-156c-39.601,0-72-16.9-72-56.5V65c0-39.6,32.399-60,72-60h156c39.6,0,72,20.9,72,60.5V249
	C304.073,288.6,271.673,305,232.073,305z"/>
<g>
	<path fill="#FFFFFF" d="M30.283,241.077c1.824-0.384,4.704-0.672,7.633-0.672c4.176,0,6.864,0.72,8.881,2.353
		c1.68,1.248,2.688,3.168,2.688,5.712c0,3.12-2.063,5.856-5.472,7.104v0.096c3.072,0.769,6.672,3.313,6.672,8.113
		c0,2.784-1.104,4.896-2.736,6.48c-2.256,2.064-5.904,3.024-11.185,3.024c-2.88,0-5.089-0.192-6.48-0.384V241.077z M34.459,254.326
		h3.793c4.416,0,7.009-2.305,7.009-5.424c0-3.793-2.881-5.281-7.104-5.281c-1.921,0-3.024,0.145-3.697,0.289V254.326z
		 M34.459,269.832c0.816,0.144,2.017,0.191,3.505,0.191c4.32,0,8.305-1.584,8.305-6.288c0-4.417-3.792-6.241-8.353-6.241h-3.457
		V269.832z"/>
	<path fill="#FFFFFF" d="M60.86,243.237c0.048,1.44-1.009,2.593-2.688,2.593c-1.488,0-2.544-1.152-2.544-2.593
		c0-1.487,1.104-2.64,2.64-2.64C59.851,240.598,60.86,241.75,60.86,243.237z M56.155,273v-23.234h4.225V273H56.155z"/>
	<path fill="#FFFFFF" d="M88.412,261.191c0,8.592-5.953,12.336-11.569,12.336c-6.288,0-11.137-4.607-11.137-11.952
		c0-7.776,5.089-12.337,11.521-12.337C83.9,249.238,88.412,254.086,88.412,261.191z M69.979,261.432
		c0,5.088,2.928,8.928,7.057,8.928c4.032,0,7.057-3.792,7.057-9.024c0-3.937-1.969-8.929-6.961-8.929S69.979,257.015,69.979,261.432
		z"/>
	<path fill="#FFFFFF" d="M113.757,249.766c-0.097,1.681-0.192,3.553-0.192,6.385v13.489c0,5.329-1.057,8.593-3.313,10.608
		c-2.256,2.113-5.521,2.785-8.448,2.785c-2.784,0-5.856-0.672-7.729-1.92l1.057-3.217c1.536,0.96,3.937,1.824,6.816,1.824
		c4.32,0,7.488-2.256,7.488-8.113v-2.592h-0.096c-1.296,2.16-3.792,3.889-7.393,3.889c-5.761,0-9.889-4.896-9.889-11.329
		c0-7.873,5.137-12.337,10.465-12.337c4.032,0,6.24,2.111,7.249,4.032h0.096l0.192-3.505H113.757z M109.388,258.935
		c0-0.72-0.048-1.344-0.239-1.92c-0.769-2.448-2.833-4.464-5.905-4.464c-4.032,0-6.912,3.408-6.912,8.784
		c0,4.561,2.304,8.353,6.864,8.353c2.593,0,4.944-1.632,5.856-4.32c0.24-0.72,0.336-1.536,0.336-2.256V258.935z"/>
	<path fill="#FFFFFF" d="M120.57,257.015c0-2.736-0.048-5.089-0.191-7.249h3.696l0.144,4.561h0.192
		c1.056-3.12,3.601-5.088,6.433-5.088c0.479,0,0.815,0.048,1.2,0.144v3.984c-0.433-0.096-0.864-0.144-1.44-0.144
		c-2.977,0-5.089,2.256-5.664,5.424c-0.097,0.576-0.192,1.248-0.192,1.969V273h-4.177V257.015z"/>
	<path fill="#FFFFFF" d="M149.131,273l-0.336-2.928h-0.144c-1.296,1.824-3.793,3.455-7.104,3.455c-4.705,0-7.105-3.312-7.105-6.672
		c0-5.617,4.993-8.689,13.97-8.641v-0.48c0-1.92-0.528-5.376-5.28-5.376c-2.16,0-4.417,0.672-6.049,1.728l-0.96-2.783
		c1.92-1.248,4.704-2.064,7.633-2.064c7.104,0,8.833,4.848,8.833,9.504v8.689c0,2.016,0.096,3.984,0.384,5.568H149.131z
		 M148.507,261.143c-4.608-0.096-9.841,0.721-9.841,5.232c0,2.736,1.824,4.033,3.984,4.033c3.024,0,4.944-1.92,5.616-3.889
		c0.145-0.432,0.24-0.912,0.24-1.344V261.143z"/>
	<path fill="#FFFFFF" d="M159.833,273v-20.018h-3.265v-3.217h3.265v-1.248c0-6.145,3.601-10.129,10.129-10.129
		c2.16,0,4.704,0.672,5.904,1.537l-1.2,3.216c-1.008-0.72-2.832-1.345-4.896-1.345c-4.464,0-5.761,3.121-5.761,6.816v1.152h13.489
		V273h-4.176v-20.018h-9.313V273H159.833z"/>
	<path fill="#FFFFFF" d="M186.858,262.15c0.096,5.713,3.744,8.065,7.969,8.065c3.024,0,4.849-0.528,6.433-1.2l0.72,3.024
		c-1.488,0.672-4.032,1.44-7.729,1.44c-7.152,0-11.425-4.705-11.425-11.713c0-7.01,4.128-12.529,10.896-12.529
		c7.585,0,9.602,6.672,9.602,10.945c0,0.863-0.097,1.535-0.145,1.967H186.858z M199.242,259.127
		c0.049-2.688-1.104-6.865-5.856-6.865c-4.272,0-6.145,3.938-6.48,6.865H199.242z"/>
	<path fill="#FFFFFF" d="M208.986,273v-20.018h-3.265v-3.217h3.265v-1.248c0-6.145,3.601-10.129,10.129-10.129
		c2.16,0,4.704,0.672,5.904,1.537l-1.2,3.216c-1.008-0.72-2.832-1.345-4.896-1.345c-4.464,0-5.761,3.121-5.761,6.816v1.152h13.489
		V273h-4.176v-20.018h-9.313V273H208.986z"/>
	<path fill="#FFFFFF" d="M233.656,238.917h4.225V273h-4.225V238.917z"/>
	<path fill="#FFFFFF" d="M244.984,256.055c0-2.4-0.048-4.369-0.191-6.289h3.696l0.191,3.744h0.145
		c1.296-2.207,3.456-4.271,7.297-4.271c3.168,0,5.568,1.92,6.576,4.656h0.096c0.721-1.297,1.633-2.305,2.593-3.024
		c1.392-1.056,2.928-1.632,5.137-1.632c3.072,0,7.632,2.016,7.632,10.08V273h-4.128v-13.153c0-4.464-1.632-7.152-5.04-7.152
		c-2.4,0-4.272,1.776-4.993,3.841c-0.191,0.576-0.336,1.344-0.336,2.111V273h-4.128v-13.922c0-3.695-1.633-6.384-4.849-6.384
		c-2.641,0-4.561,2.112-5.232,4.224c-0.24,0.625-0.336,1.345-0.336,2.064V273h-4.129V256.055z"/>
</g>
<g id="Layer_2">
	<g>
		<g>
			<g>
				<path fill="#FFFFFF" d="M125.941,100.194c1.401,12.064,5.332,24.402,16.222,31.061c7.753,4.743,16.928,5.927,24.108-0.388
					c6.713-5.907,9.501-15.894,11.363-24.286c2.06-9.281,2.952-18.835,3.451-28.315c0.414-7.945,2.513-19.562-5.973-24.009
					c-3.259-1.706-6.991-2.466-10.714-3.024c-0.824-0.836-2.061-1.177-3.168-0.442c-1.035-0.141-2.063-0.281-3.066-0.438
					c-6.595-1.038-13.337-1.983-19.936-0.454c-11.081,2.569-15.946,15.037-12.867,25.215
					C125.136,83.481,124.968,91.837,125.941,100.194z M151.097,129.087c-12.26-3.343-17.227-15.049-19.124-26.517
					c-0.573-3.467-0.892-6.959-1.053-10.462c0.494,0.846,0.985,1.69,1.488,2.528c-0.11,1.496,0.132,3.065,0.758,4.533
					c2.574,6.029,10.305,6.853,15.412,3.475c2.022-1.338,3.013-3.26,3.206-5.303c0.832-0.081,1.663-0.142,2.486,0.022
					c0.793,3.212,3.701,5.583,7.345,5.911c4.463,0.405,7.672-2.242,8.925-5.953c1.224-0.833,2.315-1.841,3.439-2.805
					c-1.024,8.233-2.672,16.632-6.111,24.132C164.656,125.647,159.33,131.329,151.097,129.087z M136.519,93.259
					c0.672,0.445,1.59,0.525,2.35-0.172c2.279-2.087,5.186-2.715,7.563-0.444c1.668,1.599,2.396,4.425,0.726,6.265
					c-2.321,2.56-7.806,2.751-9.894-0.114C136.195,97.331,135.766,94.902,136.519,93.259z M157.101,92.754
					c0.624-1.762,2.007-3.053,4.124-3.615c2.681-0.714,5.255,0.681,5.979,3.333c0.3,1.102,0.348,2.063,0.206,2.89
					c-0.025,0.092-0.048,0.185-0.062,0.278c-1.233,5.356-10.692,4.65-9.42-0.861C158.137,93.861,157.719,93.15,157.101,92.754z
					 M147.154,81.105c6.015-3.274,11.961-9.022,15.416-15.58c2.471,5.485,6.069,10.585,9.632,15.206
					c0.766,0.989,1.923,1.355,2.967,1.222c-0.167,2.467-0.373,4.932-0.615,7.393c-1.277,0.815-2.404,1.823-3.543,2.815
					c-0.715-4.47-4.801-7.301-9.331-6.916c-4.681,0.394-8.019,3.896-8.649,8.272c-0.566,0.007-1.137,0.045-1.718,0.085
					c-0.384-1.11-0.967-2.176-1.72-3.12c-2.47-3.097-6.096-3.624-9.369-2.499c-0.27-0.162-0.603-0.26-1.009-0.245
					c-2.217,0.085-3.916,1-5.065,2.369c-0.854-1.464-1.709-2.928-2.579-4.382c-0.216-0.358-0.493-0.593-0.792-0.738
					c0.003-0.786,0.01-1.574,0.022-2.361C135.578,85.237,142.209,83.794,147.154,81.105z"/>
				<path fill="#FFFFFF" d="M178.326,146.435c-2.741-0.078-14.465,1.202-13.575-3.717c0.173-0.958-0.095-1.767-0.587-2.375
					c-0.317-1.372-1.662-2.604-3.309-2.417c-0.57-0.09-1.152-0.032-1.643,0.219c-1.762,0.171-19.732-0.981-19.967-0.16
					c-0.31,1.091-0.494,2.296-0.455,3.433c0.021,0.61,0.803,2.772,0.654,3.163c-0.756,1.993-5.403,1.781-7.285,1.93
					c-3.63,0.288-7.292,0.533-10.742,1.778c-6.038,2.182-8.818,7.249-10.701,12.995c-2.114,6.461-3.132,13.354-3.719,20.108
					c-0.303,3.501-0.685,7.649,0.021,11.363c-0.319,0.436-0.489,1.013-0.404,1.749c0.675,5.77,6.08,7.618,11.158,8.292
					c6.579,0.872,13.273,0.277,19.862-0.158c8.307-0.554,16.601,0.733,24.851,1.608c10.61,1.124,21.359,1.965,31.923-0.032
					c0.006,0,0.012-0.003,0.017-0.004c1.369-0.068,2.697-0.976,2.705-2.744c0.09-15.526,4.417-33.396-2.894-47.948
					C191.053,147.171,184.731,146.617,178.326,146.435z"/>
				<path fill="#FFFFFF" d="M217.452,165.431c-0.712-24.813-1.658-49.59-2.195-74.415c-0.167-7.771-0.537-15.34-1.642-23.032
					c-0.913-6.352-2.777-14.1-0.607-20.365c0.474-1.361-0.072-2.45-0.979-3.068c-0.214-0.322-0.481-0.612-0.801-0.86
					c-2.004-1.546-4.729-2.633-7.361-2.612c-0.307-0.037-0.635-0.02-0.988,0.06c-0.54,0.065-1.068,0.187-1.583,0.359
					c-11.269,2.47-23.291,1.134-34.668,0.342c-6.398-0.446-12.794-0.888-19.209-0.955c-3.836-0.04-7.644,0.214-11.48,0.045
					c-8.576-0.376-17.129-1.108-25.71-1.404c-3.852-0.132-7.72-0.206-11.567,0.077c-2.293,0.168-5.212,0.312-7.09,1.866
					c-0.696,0.417-1.197,1.149-1.201,2.228c-0.267,53.986,4.336,107.964,1.546,161.938c-0.608,1.924,1.564,4.591,4.14,3.572
					c3.227-1.273,7.684-0.123,10.93,0.503c3.841,0.739,7.646,1.776,11.548,2.148c11.061,1.053,22.166,1.125,33.23,1.975
					c10.422,0.803,20.847,1.682,31.3,1.921c8.896,0.204,17.649-1.165,26.511-1.398c3.181-0.085,4.72,0.21,6.006-3.087
					c1.541-3.964,1.553-8.761,1.806-12.953C218.043,187.377,217.77,176.374,217.452,165.431z M211.726,197.523
					c-0.126,2.377,0.403,10.035-1.739,11.519c-0.991,0.684-4.554,0.071-5.851,0.191c-2.112,0.188-4.196,0.593-6.317,0.691
					c-5.49,0.267-10.992,0.207-16.483-0.009c-10.918-0.433-21.8-1.498-32.715-1.948c-5.568-0.23-11.135-0.481-16.698-0.808
					c-5.192-0.306-10.596-0.388-15.715-1.334c-5.814-1.068-12.372-3.321-18.465-2.686c2.473-52.487-1.841-104.982-1.681-157.48
					c0.231-0.056,0.458-0.111,0.549-0.128c1.276-0.242,2.583-0.302,3.879-0.359c4.109-0.183,8.239-0.024,12.347,0.149
					c8.121,0.342,16.222,1.055,24.344,1.361c3.982,0.149,7.964-0.147,11.949-0.081c6.455,0.11,12.9,0.625,19.334,1.07
					c6.924,0.48,13.864,1.05,20.811,0.873c3.323-0.086,6.866-0.15,10.122-0.892c4.528-1.035,7.316-1.453,7.103,3.729
					c-0.195,4.826,0.417,9.496,1.058,14.269c1.077,8.026,1.792,15.781,1.986,23.892c0.359,15.129,0.409,30.266,1.027,45.389
					C211.411,155.752,212.83,176.691,211.726,197.523z"/>
			</g>
		</g>
	</g>
</g>
</svg>
