<?xml version="1.0" encoding="utf-8"?>
<!-- Generator: Adobe Illustrator 16.0.3, SVG Export Plug-In . SVG Version: 6.00 Build 0)  -->
<!DOCTYPE svg PUBLIC "-//W3C//DTD SVG 1.1//EN" "http://www.w3.org/Graphics/SVG/1.1/DTD/svg11.dtd" [
	<!ENTITY ns_extend "http://ns.adobe.com/Extensibility/1.0/">
	<!ENTITY ns_ai "http://ns.adobe.com/AdobeIllustrator/10.0/">
	<!ENTITY ns_graphs "http://ns.adobe.com/Graphs/1.0/">
	<!ENTITY ns_vars "http://ns.adobe.com/Variables/1.0/">
	<!ENTITY ns_imrep "http://ns.adobe.com/ImageReplacement/1.0/">
	<!ENTITY ns_sfw "http://ns.adobe.com/SaveForWeb/1.0/">
	<!ENTITY ns_custom "http://ns.adobe.com/GenericCustomNamespace/1.0/">
	<!ENTITY ns_adobe_xpath "http://ns.adobe.com/XPath/1.0/">
]>
<svg version="1.1" id="Ebene_1" xmlns:x="&ns_extend;" xmlns:i="&ns_ai;" xmlns:graph="&ns_graphs;"
	 xmlns="http://www.w3.org/2000/svg" xmlns:xlink="http://www.w3.org/1999/xlink" x="0px" y="0px" width="300px" height="300px"
	 viewBox="4.074 5 300 300" enable-background="new 4.074 5 300 300" xml:space="preserve">
<metadata>
	<sfw  xmlns="&ns_sfw;">
		<slices></slices>
		<sliceSourceBounds  height="300" width="300.001" x="-50.527" y="-50" bottomLeftOrigin="true"></sliceSourceBounds>
	</sfw>
</metadata>
<path fill="#336666" d="M232.474,305H76.473c-39.601,0-72-16.9-72-56.5V65c0-39.6,32.399-60,72-60h156.001c39.6,0,72,20.9,72,60.5
	V249C304.474,288.6,272.073,305,232.474,305z"/>
<g>
	<path fill="#FFFFFF" d="M34.908,234.83H22.331v11.666h14.018V250H18.156v-32.355h17.474v3.505H22.331v10.226h12.577V234.83z"/>
	<path fill="#FFFFFF" d="M43.595,226.766l3.313,4.992c0.863,1.297,1.584,2.497,2.352,3.793h0.145
		c0.768-1.393,1.536-2.592,2.304-3.84l3.265-4.945h4.561l-7.921,11.233L59.772,250h-4.8l-3.408-5.232
		c-0.912-1.344-1.681-2.641-2.496-4.032h-0.097c-0.768,1.392-1.584,2.64-2.448,4.032L43.162,250h-4.656l8.257-11.857l-7.872-11.377
		H43.595z"/>
	<path fill="#FFFFFF" d="M63.85,234.351c0-2.976-0.096-5.376-0.191-7.585h3.792l0.192,3.984h0.096
		c1.729-2.832,4.465-4.512,8.257-4.512c5.616,0,9.841,4.752,9.841,11.809c0,8.354-5.089,12.48-10.561,12.48
		c-3.072,0-5.761-1.344-7.153-3.647h-0.096v12.625H63.85V234.351z M68.027,240.543c0,0.624,0.096,1.2,0.192,1.729
		c0.768,2.928,3.312,4.944,6.336,4.944c4.465,0,7.057-3.648,7.057-8.978c0-4.656-2.448-8.641-6.912-8.641
		c-2.881,0-5.568,2.064-6.385,5.232c-0.145,0.529-0.288,1.152-0.288,1.729V240.543z"/>
	<path fill="#FFFFFF" d="M93.514,239.15c0.096,5.713,3.744,8.065,7.969,8.065c3.024,0,4.849-0.528,6.433-1.2l0.72,3.024
		c-1.488,0.672-4.032,1.44-7.729,1.44c-7.152,0-11.425-4.705-11.425-11.713c0-7.01,4.128-12.529,10.896-12.529
		c7.585,0,9.602,6.672,9.602,10.945c0,0.863-0.097,1.535-0.145,1.967H93.514z M105.899,236.127c0.049-2.688-1.104-6.865-5.856-6.865
		c-4.272,0-6.145,3.938-6.48,6.865H105.899z"/>
	<path fill="#FFFFFF" d="M115.209,234.015c0-2.736-0.048-5.089-0.191-7.249h3.696l0.144,4.561h0.192
		c1.056-3.12,3.601-5.088,6.433-5.088c0.479,0,0.816,0.048,1.2,0.144v3.984c-0.433-0.096-0.864-0.144-1.44-0.144
		c-2.977,0-5.088,2.256-5.664,5.424c-0.097,0.576-0.192,1.248-0.192,1.969V250h-4.177V234.015z"/>
	<path fill="#FFFFFF" d="M135.61,220.237c0.048,1.44-1.009,2.593-2.688,2.593c-1.488,0-2.544-1.152-2.544-2.593
		c0-1.487,1.104-2.64,2.64-2.64C134.601,217.598,135.61,218.75,135.61,220.237z M130.905,250v-23.234h4.225V250H130.905z"/>
	<path fill="#FFFFFF" d="M142.137,233.055c0-2.4-0.048-4.369-0.191-6.289h3.696l0.191,3.744h0.145
		c1.296-2.207,3.456-4.271,7.297-4.271c3.168,0,5.568,1.92,6.576,4.656h0.096c0.721-1.297,1.633-2.305,2.593-3.024
		c1.392-1.056,2.928-1.632,5.137-1.632c3.072,0,7.632,2.016,7.632,10.08V250h-4.128v-13.153c0-4.464-1.632-7.152-5.04-7.152
		c-2.4,0-4.272,1.776-4.993,3.841c-0.191,0.576-0.336,1.344-0.336,2.111V250h-4.128v-13.922c0-3.695-1.633-6.384-4.849-6.384
		c-2.641,0-4.561,2.112-5.232,4.224c-0.24,0.625-0.336,1.345-0.336,2.064V250h-4.129V233.055z"/>
	<path fill="#FFFFFF" d="M184.521,239.15c0.096,5.713,3.744,8.065,7.969,8.065c3.024,0,4.849-0.528,6.433-1.2l0.72,3.024
		c-1.488,0.672-4.032,1.44-7.729,1.44c-7.152,0-11.425-4.705-11.425-11.713c0-7.01,4.128-12.529,10.896-12.529
		c7.585,0,9.602,6.672,9.602,10.945c0,0.863-0.097,1.535-0.145,1.967H184.521z M196.906,236.127
		c0.049-2.688-1.104-6.865-5.856-6.865c-4.272,0-6.145,3.938-6.48,6.865H196.906z"/>
	<path fill="#FFFFFF" d="M206.216,233.055c0-2.4-0.048-4.369-0.191-6.289h3.744l0.24,3.841h0.096
		c1.152-2.208,3.841-4.368,7.681-4.368c3.217,0,8.209,1.92,8.209,9.889V250h-4.225v-13.393c0-3.745-1.393-6.865-5.376-6.865
		c-2.785,0-4.945,1.969-5.665,4.32c-0.192,0.528-0.288,1.248-0.288,1.969V250h-4.225V233.055z"/>
	<path fill="#FFFFFF" d="M237.945,220.094v6.672h6.049v3.217h-6.049v12.529c0,2.88,0.816,4.512,3.168,4.512
		c1.104,0,1.921-0.144,2.448-0.287l0.192,3.168c-0.816,0.336-2.112,0.576-3.744,0.576c-1.969,0-3.553-0.625-4.561-1.776
		c-1.2-1.249-1.632-3.313-1.632-6.049v-12.673h-3.601v-3.217h3.601v-5.568L237.945,220.094z"/>
	<path fill="#FFFFFF" d="M261.609,250l-0.336-2.928h-0.144c-1.297,1.824-3.793,3.455-7.104,3.455c-4.705,0-7.105-3.312-7.105-6.672
		c0-5.617,4.993-8.689,13.97-8.641v-0.48c0-1.92-0.528-5.376-5.28-5.376c-2.16,0-4.417,0.672-6.049,1.728l-0.96-2.783
		c1.92-1.248,4.704-2.064,7.633-2.064c7.104,0,8.833,4.848,8.833,9.504v8.689c0,2.016,0.096,3.984,0.384,5.568H261.609z
		 M260.985,238.143c-4.608-0.096-9.841,0.721-9.841,5.232c0,2.736,1.824,4.033,3.984,4.033c3.024,0,4.944-1.92,5.616-3.889
		c0.145-0.432,0.24-0.912,0.24-1.344V238.143z"/>
	<path fill="#FFFFFF" d="M271.879,215.917h4.225V250h-4.225V215.917z"/>
	<path fill="#FFFFFF" d="M293,235.455v3.12h-11.856v-3.12H293z"/>
	<path fill="#FFFFFF" d="M120.178,293v-20.018h-3.265v-3.217h3.265v-1.248c0-6.145,3.601-10.129,10.129-10.129
		c2.16,0,4.704,0.672,5.904,1.537l-1.2,3.216c-1.008-0.72-2.832-1.345-4.896-1.345c-4.464,0-5.761,3.121-5.761,6.816v1.152h13.489
		V293h-4.176v-20.018h-9.313V293H120.178z"/>
	<path fill="#FFFFFF" d="M144.849,258.917h4.225V293h-4.225V258.917z"/>
	<path fill="#FFFFFF" d="M156.177,276.055c0-2.4-0.048-4.369-0.191-6.289h3.696l0.191,3.744h0.145
		c1.296-2.207,3.456-4.271,7.297-4.271c3.168,0,5.568,1.92,6.576,4.656h0.096c0.721-1.297,1.633-2.305,2.593-3.024
		c1.392-1.056,2.928-1.632,5.137-1.632c3.072,0,7.632,2.016,7.632,10.08V293h-4.128v-13.153c0-4.464-1.632-7.152-5.04-7.152
		c-2.4,0-4.272,1.776-4.993,3.841c-0.191,0.576-0.336,1.344-0.336,2.111V293h-4.128v-13.922c0-3.695-1.633-6.384-4.849-6.384
		c-2.641,0-4.561,2.112-5.232,4.224c-0.24,0.625-0.336,1.345-0.336,2.064V293h-4.129V276.055z"/>
</g>
<g>
	<g>
		<path fill="#FFFFFF" d="M56.414,64.59c3.11,5.003,2.028,12.711,2.704,18.39c1.218,10.412,2.841,20.689,3.246,31.236
			c0.541,10.952-0.542,21.636-2.705,32.453c-1.757,8.924-3.515,17.713-2.704,26.908c0.271,2.569,4.327,2.569,4.057,0
			c-0.945-11.224,2.163-21.905,3.922-32.993c1.758-10.412,1.894-20.959,1.082-31.506c-0.541-10.007-2.3-19.743-3.11-29.614
			c-0.406-5.409-0.135-12.035-2.975-16.902C58.578,60.263,55.062,62.291,56.414,64.59L56.414,64.59z"/>
	</g>
</g>
<g>
	<g>
		<g>
			<path fill="#FFFFFF" d="M61.451,174.494c60.579-4.927,121.447-3.043,182.168-4.781c2.755-0.146,2.755-4.493,0-4.348
				c-60.722,1.884-121.59,0-182.168,4.781C58.698,170.437,58.698,174.784,61.451,174.494L61.451,174.494z"/>
		</g>
	</g>
	<g>
		<g>
			<path fill="#FFFFFF" d="M62.756,52.615c32.752,0,65.505,0,98.114,0.146c29.562,0,59.995,1.739,88.547-7.246
				c2.606-0.871,1.448-5.073-1.161-4.203c-28.984,9.275-60.286,7.102-90.284,7.102c-31.739,0-63.477,0-95.36-0.146
				C59.858,48.268,59.858,52.615,62.756,52.615L62.756,52.615z"/>
		</g>
	</g>
	<g>
		<g>
			<path fill="#FFFFFF" d="M247.388,46.239c3.042,41.303,0.579,82.606-7.246,123.184c-0.581,2.752,3.622,3.913,4.203,1.158
				c7.97-41.012,10.433-82.749,7.391-124.342C251.447,43.485,247.099,43.485,247.388,46.239L247.388,46.239z"/>
		</g>
	</g>
	<path fill="#FFFFFF" d="M110.581,170.001c-3.479,0.146-0.581-16.666,1.448-34.781c0.437-3.622,0.726-5.796,2.465-7.68
		c4.201-4.927,11.159-1.594,20.289-7.246c2.027-1.304,2.608-2.028,4.782-2.899c5.796-2.174,11.305-0.29,12.03,0
		c5.072,1.739,4.203,4.058,8.695,5.363c4.636,1.304,6.81-0.87,10.577,1.014c2.465,1.16,3.771,3.189,4.783,4.782
		c4.492,7.102,2.899,14.492,3.335,23.622c0.868,14.783,10.434,17.391,5.071,17.391C165.652,169.713,127.971,169.567,110.581,170.001
		z"/>
	<path fill="#FFFFFF" d="M139.42,111.454c6.956,4.201,14.492,0.725,15.941,0c1.45-0.725,7.972-3.913,10.146-11.594
		c1.885-6.667-0.437-13.623-5.073-18.115c-3.911-3.769-10.87-6.812-16.666-4.348c-3.768,1.594-5.509,4.927-7.971,9.421
		c-2.03,3.767-3.914,7.1-3.623,11.593C132.319,99.425,132.755,107.396,139.42,111.454z"/>
	<g>
		<g>
			<path fill="#FFFFFF" d="M46.959,149.278c59.998,9.275,118.837,25.36,178.254,37.68c2.754,0.579,3.915-3.624,1.16-4.202
				c-59.418-12.319-118.255-28.26-178.253-37.68C45.365,144.64,44.207,148.844,46.959,149.278L46.959,149.278z"/>
		</g>
	</g>
	<g>
		<g>
			<path fill="#FFFFFF" d="M73.625,32.182c1.885,6.087-0.869,13.623-1.738,19.854c-1.449,11.448-2.319,23.042-4.493,34.491
				c-2.174,11.014-5.651,21.304-10.291,31.449c-4.201,9.13-8.403,17.97-9.853,27.969c-0.435,2.754,3.768,3.913,4.202,1.16
				c1.884-12.029,7.68-22.463,12.464-33.623c4.202-9.999,6.955-20.433,8.695-31.011c1.737-10.435,2.463-21.014,3.911-31.594
				c0.87-6.232,3.335-13.623,1.45-19.854C76.96,28.414,72.757,29.574,73.625,32.182L73.625,32.182z"/>
		</g>
	</g>
	<g>
		<g>
			<path fill="#FFFFFF" d="M76.523,31.022c31.449,7.537,62.753,14.927,94.056,22.463c29.128,6.956,58.981,16.086,89.271,13.913
				c2.755-0.145,2.755-4.492,0-4.348c-30.866,2.319-61.155-7.247-90.865-14.347c-30.433-7.246-60.867-14.638-91.3-21.884
				C74.93,26.095,73.77,30.298,76.523,31.022L76.523,31.022z"/>
		</g>
	</g>
	<g>
		<g>
			<path fill="#FFFFFF" d="M257.676,67.688c-6.666,40.868-18.549,80.431-35.65,118.11c-1.16,2.464,2.61,4.782,3.768,2.174
				c17.247-37.969,29.42-77.967,36.086-119.125C262.316,66.093,258.257,64.933,257.676,67.688L257.676,67.688z"/>
		</g>
	</g>
	<g>
		<g>
			<path fill="#FFFFFF" d="M40.438,120.003c55.795,24.058,108.691,54.346,163.038,81.156c2.465,1.306,4.639-2.463,2.174-3.767
				c-54.347-26.667-107.243-56.954-163.038-81.156C40.005,115.221,37.831,118.99,40.438,120.003L40.438,120.003z"/>
		</g>
	</g>
	<g>
		<g>
			<path fill="#FFFFFF" d="M95.508,13.487c0.291,6.521-4.492,13.332-6.81,19.275c-4.348,11.014-8.116,22.027-13.333,32.752
				c-5.072,10.288-11.304,19.42-18.551,28.26c-5.94,7.246-11.738,14.492-15.506,23.187c-1.014,2.464,2.752,4.638,3.769,2.174
				c4.492-10.579,12.173-18.839,19.129-27.679c6.812-8.695,12.462-18.261,17.102-28.405c4.637-10,7.97-20.58,12.318-30.724
				c2.463-5.797,6.666-12.318,6.376-18.839C99.712,10.733,95.364,10.733,95.508,13.487L95.508,13.487z"/>
		</g>
	</g>
	<g>
		<g>
			<path fill="#FFFFFF" d="M98.698,13.052c28.984,15.362,57.824,30.724,86.661,46.085c26.086,13.913,52.172,29.854,81.593,35.217
				c2.754,0.434,3.911-3.624,1.159-4.203c-30-5.506-56.519-21.883-83.04-36.087C157.1,39.138,128.986,24.21,101.015,9.284
				C98.406,7.979,96.233,11.748,98.698,13.052L98.698,13.052z"/>
		</g>
	</g>
	<g>
		<g>
			<path fill="#FFFFFF" d="M264.923,94.063c-16.667,37.824-38.261,73.33-64.199,105.358c-1.74,2.174,1.302,5.217,3.042,3.043
				c26.231-32.464,48.114-68.114,64.924-106.228C269.706,93.773,266.082,91.455,264.923,94.063L264.923,94.063z"/>
		</g>
	</g>
</g>
</svg>
