<?xml version="1.0" encoding="utf-8"?>
<!-- Generator: Adobe Illustrator 16.0.3, SVG Export Plug-In . SVG Version: 6.00 Build 0)  -->
<!DOCTYPE svg PUBLIC "-//W3C//DTD SVG 1.1//EN" "http://www.w3.org/Graphics/SVG/1.1/DTD/svg11.dtd" [
	<!ENTITY ns_extend "http://ns.adobe.com/Extensibility/1.0/">
	<!ENTITY ns_ai "http://ns.adobe.com/AdobeIllustrator/10.0/">
	<!ENTITY ns_graphs "http://ns.adobe.com/Graphs/1.0/">
	<!ENTITY ns_vars "http://ns.adobe.com/Variables/1.0/">
	<!ENTITY ns_imrep "http://ns.adobe.com/ImageReplacement/1.0/">
	<!ENTITY ns_sfw "http://ns.adobe.com/SaveForWeb/1.0/">
	<!ENTITY ns_custom "http://ns.adobe.com/GenericCustomNamespace/1.0/">
	<!ENTITY ns_adobe_xpath "http://ns.adobe.com/XPath/1.0/">
]>
<svg version="1.1" id="Ebene_1" xmlns:x="&ns_extend;" xmlns:i="&ns_ai;" xmlns:graph="&ns_graphs;"
	 xmlns="http://www.w3.org/2000/svg" xmlns:xlink="http://www.w3.org/1999/xlink" x="0px" y="0px" width="300px" height="300px"
	 viewBox="0 0 300 300" enable-background="new 0 0 300 300" xml:space="preserve">
<metadata>
	<sfw  xmlns="&ns_sfw;">
		<slices></slices>
		<sliceSourceBounds  height="300" width="300.001" x="-50.501" y="-50.5" bottomLeftOrigin="true"></sliceSourceBounds>
	</sfw>
</metadata>
<path fill="#336666" d="M228,301H71.999c-39.601,0-72-16.9-72-56.5V61c0-39.6,32.399-60,72-60H228c39.601,0,72,20.9,72,60.5V245
	C300,284.6,267.6,301,228,301z"/>
<g>
	<path fill="#FFFFFF" d="M54.652,254.291c-0.24-4.513-0.528-9.938-0.48-13.97h-0.144c-1.104,3.793-2.448,7.825-4.081,12.289
		l-5.712,15.697h-3.169l-5.232-15.409c-1.536-4.561-2.832-8.736-3.744-12.577h-0.096c-0.096,4.032-0.336,9.457-0.624,14.306
		L30.506,268.5h-3.984l2.256-32.354h5.329l5.521,15.649c1.344,3.984,2.448,7.536,3.264,10.896h0.145
		c0.815-3.265,1.968-6.816,3.408-10.896l5.761-15.649h5.328l2.017,32.354h-4.081L54.652,254.291z"/>
	<path fill="#FFFFFF" d="M78.985,268.5l-0.336-2.929h-0.144c-1.296,1.824-3.793,3.457-7.104,3.457c-4.705,0-7.105-3.313-7.105-6.673
		c0-5.616,4.993-8.688,13.97-8.641v-0.48c0-1.92-0.528-5.376-5.28-5.376c-2.16,0-4.417,0.672-6.049,1.728l-0.96-2.784
		c1.92-1.248,4.704-2.063,7.633-2.063c7.104,0,8.833,4.848,8.833,9.505v8.688c0,2.016,0.096,3.984,0.384,5.568H78.985z
		 M67.32,238.689c0-1.344,1.104-2.448,2.448-2.448c1.345,0,2.353,1.056,2.353,2.448c0,1.296-0.96,2.448-2.353,2.448
		C68.329,241.138,67.32,239.985,67.32,238.689z M78.361,256.643c-4.608-0.096-9.841,0.721-9.841,5.232
		c0,2.736,1.824,4.033,3.984,4.033c3.024,0,4.944-1.921,5.616-3.889c0.145-0.432,0.24-0.912,0.24-1.344V256.643z M76.249,238.689
		c0-1.344,1.057-2.448,2.4-2.448c1.345,0,2.353,1.056,2.353,2.448c0,1.296-0.96,2.448-2.353,2.448
		C77.21,241.138,76.249,239.985,76.249,238.689z"/>
	<path fill="#FFFFFF" d="M89.256,252.515c0-2.736-0.048-5.089-0.191-7.249h3.696l0.144,4.561h0.192
		c1.056-3.12,3.601-5.088,6.433-5.088c0.479,0,0.815,0.048,1.2,0.144v3.984c-0.433-0.096-0.864-0.144-1.44-0.144
		c-2.977,0-5.089,2.256-5.664,5.424c-0.097,0.576-0.192,1.248-0.192,1.969V268.5h-4.177V252.515z"/>
	<path fill="#FFFFFF" d="M121.033,267.636c-1.104,0.576-3.552,1.345-6.672,1.345c-7.009,0-11.569-4.753-11.569-11.857
		c0-7.152,4.896-12.337,12.481-12.337c2.496,0,4.704,0.624,5.856,1.2l-0.961,3.264c-1.008-0.576-2.592-1.104-4.896-1.104
		c-5.329,0-8.209,3.937-8.209,8.784c0,5.377,3.456,8.689,8.064,8.689c2.4,0,3.984-0.624,5.185-1.152L121.033,267.636z"/>
	<path fill="#FFFFFF" d="M125.975,234.417h4.225v14.497h0.096c0.673-1.2,1.729-2.256,3.024-2.976c1.248-0.721,2.736-1.2,4.32-1.2
		c3.121,0,8.113,1.92,8.113,9.937V268.5h-4.225v-13.345c0-3.745-1.392-6.913-5.376-6.913c-2.736,0-4.896,1.92-5.665,4.225
		c-0.24,0.576-0.288,1.2-0.288,2.016V268.5h-4.225V234.417z"/>
	<path fill="#FFFFFF" d="M154.969,257.651c0.096,5.712,3.744,8.064,7.969,8.064c3.023,0,4.848-0.528,6.432-1.2l0.721,3.024
		c-1.488,0.672-4.033,1.44-7.729,1.44c-7.152,0-11.426-4.705-11.426-11.714c0-7.008,4.129-12.528,10.896-12.528
		c7.586,0,9.602,6.672,9.602,10.944c0,0.864-0.096,1.536-0.145,1.969H154.969z M167.354,254.627
		c0.049-2.688-1.104-6.865-5.857-6.865c-4.271,0-6.145,3.937-6.48,6.865H167.354z"/>
	<path fill="#FFFFFF" d="M176.662,251.555c0-2.4-0.047-4.368-0.191-6.289h3.744l0.24,3.841h0.096
		c1.152-2.208,3.842-4.368,7.682-4.368c3.217,0,8.209,1.92,8.209,9.889V268.5h-4.225v-13.394c0-3.744-1.393-6.864-5.377-6.864
		c-2.785,0-4.945,1.968-5.664,4.32c-0.193,0.528-0.289,1.248-0.289,1.969V268.5h-4.225V251.555z"/>
	<path fill="#FFFFFF" d="M203.735,268.5v-20.018h-3.264v-3.217h3.264v-1.248c0-6.145,3.602-10.129,10.129-10.129
		c2.16,0,4.705,0.673,5.904,1.536l-1.199,3.217c-1.008-0.721-2.832-1.345-4.896-1.345c-4.465,0-5.762,3.121-5.762,6.817v1.151h13.49
		V268.5h-4.176v-20.018h-9.314V268.5H203.735z"/>
	<path fill="#FFFFFF" d="M228.406,234.417h4.225V268.5h-4.225V234.417z"/>
	<path fill="#FFFFFF" d="M239.735,251.555c0-2.4-0.049-4.368-0.191-6.289h3.695l0.191,3.745h0.145
		c1.297-2.209,3.457-4.272,7.297-4.272c3.168,0,5.568,1.92,6.576,4.656h0.096c0.721-1.296,1.633-2.305,2.594-3.024
		c1.391-1.056,2.928-1.632,5.137-1.632c3.072,0,7.631,2.016,7.631,10.08V268.5h-4.127v-13.153c0-4.464-1.633-7.152-5.041-7.152
		c-2.4,0-4.271,1.776-4.992,3.84c-0.191,0.576-0.336,1.345-0.336,2.112V268.5h-4.129v-13.921c0-3.696-1.633-6.385-4.848-6.385
		c-2.641,0-4.561,2.112-5.232,4.225c-0.24,0.624-0.336,1.344-0.336,2.063V268.5h-4.129V251.555z"/>
</g>
<g>
	<path fill="#FFFFFF" d="M76.622,152.929c10.459,5.229,16.286,4.184,27.94,8.665c17.78,7.023,15.837,10.459,27.342,13.896
		c14.941,4.482,15.389-2.091,42.282,0c17.93,1.345,18.976,1.046,34.813-0.448c5.977-0.448,11.057-2.241,15.838-2.241
		c7.023,2.84,13.746,7.77,24.952,18.229c-0.599,2.988-4.932,6.424-44.823,10.011c-45.121,4.034-68.28,5.826-98.162-1.494
		c-4.632-1.195-26.595-6.724-45.869-23.905c-4.482-3.886-12.252-11.058-10.458-15.987C57.498,156.515,69.749,152.78,76.622,152.929z
		"/>
	<path fill="#FFFFFF" d="M193.76,39.377c-16.885,0.149-29.584,9.711-34.365,13.447c-16.286,12.401-22.71,29.285-26.894,40.341
		c-7.62,20.021-2.988,24.055-10.459,34.364c-12.998,18.078-36.755,19.274-35.858,23.905c0.598,3.287,12.402,1.195,29.882,7.471
		c12.102,4.333,11.355,7.171,20.917,10.458c13.896,4.931,18.974,0.3,46.318,0c22.411-0.148,32.571,2.84,34.364-1.493
		c1.792-4.035-6.574-8.666-16.436-25.4c-3.734-6.424-7.022-11.953-8.964-19.423c-0.747-2.988-6.575-26.744,5.977-41.835
		c6.125-7.321,9.412-16.734,25.697-20.17c3.885-0.897,8.815-1.195,8.815-1.195l10.906-1.046
		C243.661,58.801,214.078,39.228,193.76,39.377z M169.256,156.963l-12.7-19.573l-19.273,10.609l9.711-17.929l-8.217-17.929
		l18.079,10.16l12.4-15.091l-0.747,20.32l13.298,9.86l-16.286,0.747L169.256,156.963z"/>
</g>
</svg>
