<?xml version="1.0" encoding="utf-8"?>
<!-- Generator: Adobe Illustrator 16.0.3, SVG Export Plug-In . SVG Version: 6.00 Build 0)  -->
<!DOCTYPE svg PUBLIC "-//W3C//DTD SVG 1.1//EN" "http://www.w3.org/Graphics/SVG/1.1/DTD/svg11.dtd" [
	<!ENTITY ns_extend "http://ns.adobe.com/Extensibility/1.0/">
	<!ENTITY ns_ai "http://ns.adobe.com/AdobeIllustrator/10.0/">
	<!ENTITY ns_graphs "http://ns.adobe.com/Graphs/1.0/">
	<!ENTITY ns_vars "http://ns.adobe.com/Variables/1.0/">
	<!ENTITY ns_imrep "http://ns.adobe.com/ImageReplacement/1.0/">
	<!ENTITY ns_sfw "http://ns.adobe.com/SaveForWeb/1.0/">
	<!ENTITY ns_custom "http://ns.adobe.com/GenericCustomNamespace/1.0/">
	<!ENTITY ns_adobe_xpath "http://ns.adobe.com/XPath/1.0/">
]>
<svg version="1.1" id="Layer_1" xmlns:x="&ns_extend;" xmlns:i="&ns_ai;" xmlns:graph="&ns_graphs;"
	 xmlns="http://www.w3.org/2000/svg" xmlns:xlink="http://www.w3.org/1999/xlink" x="0px" y="0px" width="500px" height="500px"
	 viewBox="177 0 500 500" enable-background="new 177 0 500 500" xml:space="preserve">
<metadata>
	<sfw  xmlns="&ns_sfw;">
		<slices></slices>
		<sliceSourceBounds  width="500" height="500" y="0.5" x="176.5" bottomLeftOrigin="true"></sliceSourceBounds>
	</sfw>
</metadata>
<title>TARGET 1 B copy 9</title>
<g id="TARGETS">
	<g>
		<rect x="177" y="0" fill="#00689D" width="500" height="500"/>
	</g>
	<g>
		<path fill="#FFFFFF" d="M427,40.612c-113.924,0-206.224,92.3-206.224,206.224S313.076,453.586,427,453.586
			s206.224-92.3,206.224-206.224l0,0C633.751,132.911,540.924,40.612,427,40.612z M607.38,243.671
			c-20.042-10.021-72.785-35.865-84.389-41.14c-6.329-2.637-12.658-2.637-15.822,0.527v-20.042h-5.802L559.384,125
			C589.447,157.173,606.325,199.367,607.38,243.671z M535.122,239.451c0,0.527-1.055,1.055-1.582,1.055h-26.898v-21.097
			c1.055,1.582,2.637,3.164,4.746,4.22l22.68,13.713l0,0C535.122,237.869,535.649,238.924,535.122,239.451z M251.367,284.81h29.536
			c1.055,0,2.11-1.055,2.11-2.109V171.413c0-1.055-1.055-2.109-2.11-2.109l0,0H265.08c42.722-89.663,150.316-127.11,239.979-84.389
			c12.658,5.802,24.261,13.186,34.81,22.152l-75.949,75.949h-85.443c-6.329-10.021-13.186-20.042-13.186-20.042
			s-1.582-3.692-10.021-3.692s-51.16,10.021-59.072,13.186c0,0-3.692,1.055-3.692,3.692v100.738c0,1.582,0.527,2.637,1.582,3.692
			c13.186,3.691,26.899,6.329,40.612,7.911c3.692,0.527,6.857,1.055,9.494,1.055c2.637,0,5.801,0.527,7.911,0.527l4.219,0.527
			l-69.093,69.093C269.3,338.08,257.169,312.236,251.367,284.81z M418.561,228.375l-1.055-1.055v-13.713
			c2.11,0.527,3.165,2.109,3.165,4.22v4.219h7.384v-4.219c0-1.056,0-2.11-0.527-3.692c-0.527-4.747-5.274-8.438-10.021-7.911v-2.638
			h-2.637v2.638c-5.802,0-10.548,4.219-11.076,10.021c0,0.527,0,0.527,0,1.055v1.583c0,4.747,2.109,9.493,6.329,12.658
			c0.527,0.527,0.527,0.527,1.055,1.055l1.582,1.582l2.11,2.11v15.295c-2.11-0.527-3.165-2.109-3.165-4.747v-6.856h-7.911v6.856
			c-0.528,6.329,3.692,11.076,9.494,11.604c0.527,0,0.527,0,1.055,0v3.165h2.637v-3.165c2.637,0,5.274-1.055,7.384-2.637
			c0.527,1.055,1.055,1.582,1.582,2.109s1.582,1.582,2.637,2.109c2.638,1.583,5.802,2.638,8.967,2.638h57.489
			c1.055,0,2.109,1.055,2.109,2.109s-1.055,2.109-2.109,2.109h-79.642c-6.329-0.527-11.603,3.692-13.186,9.494h-69.62v-84.389
			h16.877c0.527,0,1.055,0.528,1.055,0.528l23.207,23.733c0,0,8.439,6.329,14.241,2.11c5.801-4.22,3.692-12.658,1.582-17.933
			c-1.582-3.165-3.165-5.802-5.274-8.967h113.924v49.051h-60.653c-3.165,0-6.329,1.055-8.967,2.638
			c-0.527-4.747-3.164-8.967-6.856-12.131L418.561,228.375z M420.144,245.253v2.109c0,2.11-1.055,4.22-3.165,4.747v-13.186
			C419.089,240.506,420.144,243.144,420.144,245.253z M414.869,213.608v11.076c-1.582-1.583-3.165-3.692-3.165-6.329v-1.056
			C411.177,215.717,412.759,214.135,414.869,213.608L414.869,213.608L414.869,213.608z M427,427.215
			c-45.358,0-89.135-16.878-122.363-47.996l89.663-89.662l5.274-0.527c2.637-0.527,5.802-1.055,7.912-1.582
			c2.109,1.582,5.274,2.109,7.911,2.109h79.114c1.055,0,1.582,1.055,1.582,2.109c0,1.056-0.527,2.11-1.582,2.11h-65.401
			c-3.691,0-6.856,1.055-9.493,3.164c-2.637,2.109-3.692,4.747-4.22,7.911c0.527,6.856,6.856,11.604,13.713,11.076h65.929
			c1.055,0,1.582,1.055,1.582,2.109c0,1.056-1.055,1.583-1.582,1.583h-45.886c-3.165,0-6.857,1.055-9.494,3.164
			c-2.109,2.11-3.692,4.747-3.692,7.911c0.527,6.857,6.329,11.604,13.187,11.076l40.611,1.055
			c20.569,0.527,41.667,1.055,43.249,1.055c5.274,0,11.076,0,17.933-0.527c4.22-0.527,8.966-0.527,13.713-1.055
			c4.22-0.527,10.021-1.055,16.351-2.109C548.308,394.515,489.764,427.215,427,427.215z"/>
	</g>
</g>
</svg>
