<?xml version="1.0" encoding="utf-8"?>
<!-- Generator: Adobe Illustrator 16.0.3, SVG Export Plug-In . SVG Version: 6.00 Build 0)  -->
<!DOCTYPE svg PUBLIC "-//W3C//DTD SVG 1.1//EN" "http://www.w3.org/Graphics/SVG/1.1/DTD/svg11.dtd" [
	<!ENTITY ns_extend "http://ns.adobe.com/Extensibility/1.0/">
	<!ENTITY ns_ai "http://ns.adobe.com/AdobeIllustrator/10.0/">
	<!ENTITY ns_graphs "http://ns.adobe.com/Graphs/1.0/">
	<!ENTITY ns_vars "http://ns.adobe.com/Variables/1.0/">
	<!ENTITY ns_imrep "http://ns.adobe.com/ImageReplacement/1.0/">
	<!ENTITY ns_sfw "http://ns.adobe.com/SaveForWeb/1.0/">
	<!ENTITY ns_custom "http://ns.adobe.com/GenericCustomNamespace/1.0/">
	<!ENTITY ns_adobe_xpath "http://ns.adobe.com/XPath/1.0/">
]>
<svg version="1.1" id="Layer_1" xmlns:x="&ns_extend;" xmlns:i="&ns_ai;" xmlns:graph="&ns_graphs;"
	 xmlns="http://www.w3.org/2000/svg" xmlns:xlink="http://www.w3.org/1999/xlink" x="0px" y="0px" width="301.719px"
	 height="301.719px" viewBox="275.981 76.384 301.719 301.719" enable-background="new 275.981 76.384 301.719 301.719"
	 xml:space="preserve">
<metadata>
	<sfw  xmlns="&ns_sfw;">
		<slices></slices>
		<sliceSourceBounds  width="301.719" height="301.719" x="275.481" y="122.397" bottomLeftOrigin="true"></sliceSourceBounds>
	</sfw>
</metadata>
<title>TARGET 1.1</title>
<g id="TARGETS">
	<g>
		<rect x="275.981" y="76.384" fill="#C5192D" width="301.719" height="301.719"/>
	</g>
	<g>
		<g>
			<path fill="#FFFFFF" d="M448.483,143.539l-21.643-19.732l-22.915,19.732H335.18v79.249h183.004v-79.249H448.483z
				 M379.101,161.363h8.912v15.276h-8.912V161.363z M352.684,153.087h9.23v6.684h-9.23V153.087z M352.684,161.363h9.23v15.276h-9.23
				V161.363z M372.417,207.193h-9.23v-15.276h9.23V207.193z M372.417,190.324h-9.23v-6.684h-1.591v6.684h-9.229v1.592h9.229v15.276
				h-9.229v-23.552h19.732v6.684H372.417z M372.417,176.639h-9.23v-15.276h9.23V176.639z M372.417,159.771h-9.23v-6.684h9.23
				V159.771z M388.012,207.511h-8.912v-15.595h8.912V207.511z M398.833,207.511h-9.229v-15.595h9.229V207.511z M398.833,190.324
				h-9.229v-6.365h-1.591v6.365h-8.912v-6.365h19.732V190.324z M398.833,176.639h-9.229v-15.276h9.229V176.639z M398.833,159.771
				h-9.229v-6.684h-1.591v6.684h-8.912v-6.684h19.732V159.771z M426.522,141.629c5.729,0,10.185,4.774,10.185,10.185
				c0,5.411-4.456,10.503-10.185,10.503s-10.185-4.773-10.185-10.185C416.02,146.085,420.794,141.629,426.522,141.629
				C426.522,141.311,426.522,141.311,426.522,141.629L426.522,141.629z M425.886,221.197H414.11v-32.145h11.775V221.197z
				 M439.571,221.197h-12.412v-32.145h12.412V221.197z M439.571,187.46h-25.779v-2.228c0,0,3.819-3.819,12.73-3.819
				c8.912,0,12.73,3.819,12.73,3.819L439.571,187.46z M482.856,161.363h9.229v15.276h-9.229V161.363z M456.758,153.087h9.23v6.684
				h-9.549L456.758,153.087z M456.758,161.363h9.23v15.276h-9.549L456.758,161.363z M465.67,207.193h-9.23v-15.276h9.23V207.193z
				 M476.491,207.193h-9.23v-15.276h9.23V207.193z M476.491,190.324h-9.23v-6.684h-1.591v6.684h-9.23v-6.684h19.733v6.684H476.491z
				 M476.491,176.639h-9.23v-15.276h9.23V176.639z M476.491,159.771h-9.23v-6.684h9.23V159.771z M492.086,207.511h-9.229v-15.595
				h9.229V207.511z M502.589,207.511h-8.911v-15.595h8.911V207.511z M502.589,190.324h-8.911v-6.365h-1.592v6.365h-9.229v-6.365
				h19.732V190.324z M502.589,176.639h-8.911v-15.276h8.911V176.639z M502.589,159.771h-8.911v-6.684h-1.592v6.684h-9.229v-6.684
				h19.732V159.771z"/>
		</g>
		<g>
			<path fill="#FFFFFF" d="M422.703,156.588c0.318,0,0.318,0,0.637-0.318l4.138-4.138v-7.956c0-0.318-0.318-0.955-0.637-0.955
				s-0.955,0.318-0.955,0.637v0.318v7.319l-3.501,3.501c-0.318,0.318-0.318,0.955,0,1.273l0,0L422.703,156.588z"/>
		</g>
		<g>
			<path fill="#FFFFFF" d="M426.841,117.759l24.507,21.961h75.748l-18.778-21.961h-54.424c-1.591,0-3.183-0.636-4.773-1.591
				l-22.279-16.55l-22.279,16.868c-1.273,0.954-2.864,1.591-4.774,1.591h-51.56l-21.324,21.643h75.43L426.841,117.759z"/>
		</g>
	</g>
	<g>
		<g>
			<path fill="#FFFFFF" d="M359.686,299.49c0,0-1.591-5.729-6.365-5.729h-4.774h-13.049c-1.273,0-2.546-0.637-3.183-1.592
				c-1.591-1.591-6.684-10.503-7.002-10.82l-2.546-3.819c-0.637-1.273-1.91-1.91-3.183-1.91c-2.228,0-3.819,1.91-3.819,3.819
				c0,0.637,0.318,1.273,0.318,1.592l13.367,23.869c0.318,0.955,0.637,1.592,0.637,2.547v2.546c0,0.955,0,1.591-0.318,2.546
				l-5.411,20.051h5.729v17.505l0,0c-0.318,2.864,2.228,5.411,5.092,5.729c2.864,0.318,5.41-2.229,5.729-5.093
				c0-0.318,0-0.637,0-0.955v-16.55c0-0.318,0-0.318,0-0.637h3.183c0,0.318,0,0.318,0,0.637v16.55c0,2.229,1.273,4.456,3.501,5.411
				c2.865,0.955,5.729-0.637,6.684-3.501c0.318-0.637,0.318-0.955,0.318-1.592V332.59h5.729l-7.957-27.053
				c0,0-0.318-1.272,0.636-1.591c0.955-0.318,1.273,0.954,1.273,0.954l6.366,20.052c0.318,1.909,2.546,3.183,4.456,2.864l0,0
				c3.501-0.955,2.228-4.774,2.228-4.774L359.686,299.49z"/>
		</g>
		<g>
			<path fill="#FFFFFF" d="M343.455,288.988c6.047,0,10.821-4.773,10.821-10.82c0-6.048-4.774-10.821-10.821-10.821
				c-6.047,0-10.821,4.773-10.821,10.821l0,0C332.633,284.214,337.407,288.988,343.455,288.988z"/>
		</g>
	</g>
	<g>
		<g>
			<path fill="#FFFFFF" d="M460.259,288.669c5.729,0,10.503-4.773,10.503-10.503c0-5.729-4.773-10.502-10.503-10.502
				c-5.729,0-10.503,4.773-10.503,10.502l0,0C449.438,283.896,454.212,288.669,460.259,288.669L460.259,288.669z"/>
		</g>
		<g>
			<path fill="#FFFFFF" d="M485.721,319.541c0-0.637-3.183-7.957-4.138-10.503c-6.365-16.55-7.32-16.55-13.367-16.55h-16.231
				c-5.729,0.318-7.002,0-13.367,16.55c-0.955,2.229-4.774,11.458-4.774,12.095s-1.592,3.819,1.909,5.092
				c3.501,1.273,4.456-2.546,4.456-2.546l6.365-16.231c0,0,0-0.318,0.318-0.318s0.318,0.318,0.318,0.637v42.011l0,0
				c0,3.183,2.228,5.729,5.41,5.729h0.318c2.865,0,5.411-2.547,5.411-5.411v-0.318v-16.868c0,0-0.318-2.546,1.591-2.546
				c1.91,0,1.592,2.546,1.592,2.546v16.868c0,3.183,2.228,5.729,5.41,5.729c0,0,0,0,0.318,0c2.864,0,5.411-2.547,5.411-5.411v-0.318
				l0,0v-42.011c0-0.318,0-0.637,0.318-0.637c0.317,0,0.317,0.318,0.317,0.318l6.048,14.322c0,0,1.591,3.818,5.092,2.228
				C487.948,322.406,485.721,319.541,485.721,319.541z"/>
		</g>
	</g>
	<g>
		<g>
			<path fill="#FFFFFF" d="M527.732,269.573h-0.637h-19.732h-0.637c-6.365,0.637-11.14,5.729-11.14,12.094v25.144
				c0.318,1.909,1.909,3.501,3.819,3.183c1.591-0.318,2.864-1.592,3.183-3.183v-21.643c0-0.954,0.318-1.909,1.592-1.909
				c0.954,0,1.272,0.955,1.272,1.909v64.927c0.318,2.864,2.546,4.774,5.411,4.774c2.546-0.318,4.455-2.228,4.773-4.774v-37.556
				c0-0.637,0.637-1.272,1.273-1.591c0,0,0,0,0.318,0l0,0c0.637,0,1.272,0.636,1.591,1.272c0,0,0,0,0,0.318v37.237
				c0,2.864,2.229,5.093,5.093,5.093s5.092-2.229,5.092-5.093v-64.926c0-0.637,0.318-1.91,1.273-1.91
				c1.591,0,1.591,0.955,1.591,1.91v21.642c0,1.909,1.592,3.501,3.501,3.501c1.91,0,3.501-1.592,3.501-3.501V281.35
				C538.553,275.302,533.779,270.21,527.732,269.573z"/>
		</g>
		<g>
			<path fill="#FFFFFF" d="M499.725,252.069c0.318-0.955,1.272-2.228,4.456-2.864c0.636,0,1.272-0.318,1.591-0.637
				c0.637-0.955,1.273-1.909,1.909-2.864c0-0.318,0-0.318,0-0.637c-0.317-1.272-1.591-3.183-4.773-1.591
				c-3.819,1.909-3.501,7.638-3.501,7.638S499.725,252.387,499.725,252.069z"/>
		</g>
		<g>
			<path fill="#FFFFFF" d="M529.642,249.523c3.183,0.318,4.138,1.909,4.456,2.864c0,0.318,0,0,0.318-0.637s0.318-5.729-3.501-7.639
				c-3.183-1.591-4.774,0.318-4.774,1.592c0,0.318,0,0.637,0,0.637c0.637,0.637,1.273,1.591,1.909,2.546
				C528.368,249.204,529.005,249.523,529.642,249.523z"/>
		</g>
		<g>
			<path fill="#FFFFFF" d="M516.911,265.754c6.047,0,10.821-4.773,10.821-10.821c0-6.047-4.774-10.821-10.821-10.821
				s-10.821,4.774-10.821,10.821l0,0C506.09,260.981,510.864,265.754,516.911,265.754z"/>
		</g>
	</g>
	<g>
		<g>
			<path fill="#FFFFFF" d="M413.155,266.709h-22.597c-6.365,0.637-11.139,6.047-11.139,12.412v26.098
				c0,1.91,1.591,3.501,3.819,3.501c1.909,0,3.501-1.591,3.501-3.501v-22.597c0-0.955,0.318-1.909,1.909-1.909
				c1.592,0,1.273,0.955,1.273,1.909v67.473c0,2.864,2.228,5.093,5.411,5.093c2.864,0,5.092-2.229,5.092-5.093v-38.828
				c0-0.955,0.636-1.592,1.273-1.592l0,0l0,0c0.636,0,1.591,0.637,1.591,1.273c0,0,0,0,0,0.318v38.828
				c0.318,2.864,2.864,5.093,5.729,4.774c2.546-0.318,4.774-2.228,4.774-4.774v-67.473c0-0.637,0.318-1.909,1.273-1.909
				s1.91,1.272,1.91,1.909v22.597c0,1.91,1.591,3.501,3.819,3.501c1.909,0,3.501-1.591,3.501-3.501v-26.098
				C424.295,272.756,419.521,267.346,413.155,266.709z"/>
		</g>
		<g>
			<path fill="#FFFFFF" d="M409.018,250.795c-0.955-0.636-1.591-1.272-3.183-0.636c-0.955,0.636-1.273,0.636-2.546,1.272
				c-2.228,0.955-4.456,1.592-6.684,1.91c-1.91,0.318-3.501,0.318-5.411,0.318c0.637,5.729,5.729,10.185,11.776,9.548
				c5.092-0.637,8.912-4.456,9.548-9.229C411.246,252.705,410.291,251.75,409.018,250.795z"/>
		</g>
		<g>
			<path fill="#FFFFFF" d="M391.195,251.432c1.591,0,3.183,0,4.774-0.318c2.228-0.318,4.138-0.954,6.047-1.909
				c0.955-0.637,2.228-0.955,3.183-1.273c0.636-0.318,1.591-0.318,2.228-0.318c0.318,0,0.636,0.318,0.955,0.637l0.955,0.637
				c0,0,0.318,0.318,2.865,2.228c0.318,0.318,0.636,0.637,0.636,0.318s0.318-1.909,0.318-2.864c-0.318-2.546-1.591-5.092-3.183-7.32
				c-0.637-0.637-1.273-1.272-2.228-0.954c-1.273,0.317-1.273-0.637-2.228-1.273c-3.183-1.273-6.684-0.637-9.23,1.591
				c-3.183,2.547-5.411,5.729-7.002,9.549C388.967,250.795,389.922,251.432,391.195,251.432z"/>
		</g>
	</g>
</g>
</svg>
