<?xml version="1.0" encoding="utf-8"?>
<!-- Generator: Adobe Illustrator 16.0.3, SVG Export Plug-In . SVG Version: 6.00 Build 0)  -->
<!DOCTYPE svg PUBLIC "-//W3C//DTD SVG 1.1//EN" "http://www.w3.org/Graphics/SVG/1.1/DTD/svg11.dtd" [
	<!ENTITY ns_extend "http://ns.adobe.com/Extensibility/1.0/">
	<!ENTITY ns_ai "http://ns.adobe.com/AdobeIllustrator/10.0/">
	<!ENTITY ns_graphs "http://ns.adobe.com/Graphs/1.0/">
	<!ENTITY ns_vars "http://ns.adobe.com/Variables/1.0/">
	<!ENTITY ns_imrep "http://ns.adobe.com/ImageReplacement/1.0/">
	<!ENTITY ns_sfw "http://ns.adobe.com/SaveForWeb/1.0/">
	<!ENTITY ns_custom "http://ns.adobe.com/GenericCustomNamespace/1.0/">
	<!ENTITY ns_adobe_xpath "http://ns.adobe.com/XPath/1.0/">
]>
<svg version="1.1" id="Layer_1" xmlns:x="&ns_extend;" xmlns:i="&ns_ai;" xmlns:graph="&ns_graphs;"
	 xmlns="http://www.w3.org/2000/svg" xmlns:xlink="http://www.w3.org/1999/xlink" x="0px" y="0px" width="301.719px"
	 height="301.719px" viewBox="275.981 76.384 301.719 301.719" enable-background="new 275.981 76.384 301.719 301.719"
	 xml:space="preserve">
<metadata>
	<sfw  xmlns="&ns_sfw;">
		<slices></slices>
		<sliceSourceBounds  width="301.719" height="301.719" x="275.481" y="122.397" bottomLeftOrigin="true"></sliceSourceBounds>
	</sfw>
</metadata>
<title>TARGET 1 B copy 3</title>
<g id="TARGETS">
	<g>
		<rect x="275.981" y="76.384" fill="#C5192D" width="301.719" height="301.719"/>
	</g>
	<g>
		<g>
			<g>
				<path fill="#FFFFFF" d="M429.387,121.578l27.371,24.507h84.66l-20.688-24.507h-61.108c-1.909,0-3.5-0.637-5.092-1.591
					l-25.144-18.46l-52.832,44.558h25.461L429.387,121.578z"/>
			</g>
			<g>
				<path fill="#FFFFFF" d="M379.101,238.701v-88.479h-3.183v10.821h-46.786v-10.821h-3.183v10.821h-10.185v-10.821h-3.183v88.479
					h3.183v-7.32h10.185v7.32l0,0v0.637h3.183v-7.639h46.786v7.002H379.101z M325.95,228.198h-10.185v-7.957h10.185V228.198z
					 M325.95,217.059h-10.185v-7.956h10.185V217.059z M325.95,205.92h-10.185v-7.957h10.185V205.92z M325.95,194.781h-10.185v-7.957
					h10.185V194.781z M325.95,183.641h-10.185v-7.957h10.185V183.641z M325.95,172.501h-10.185v-7.956h10.185V172.501z
					 M375.918,205.283l-19.415-8.912l19.415-8.911V205.283z M335.18,205.92l17.187-7.957l17.187,7.957H335.18z M369.553,209.103
					l-17.187,7.956l-16.868-7.956H369.553z M367.006,186.823h2.864l-17.187,7.957l-16.868-7.639L367.006,186.823z M335.18,183.641
					l16.868-7.639l16.868,7.639H335.18L335.18,183.641z M375.918,183.323l-20.051-9.229l20.051-9.229V183.323z M368.916,164.545
					l-17.187,7.956l-17.187-7.956H368.916z M329.132,165.181l19.096,8.594l-19.096,8.593V165.181z M329.132,187.142l19.415,8.911
					l-19.415,9.23V187.142z M329.132,209.421l19.733,8.911l-19.733,9.229V209.421z M335.498,228.198l17.186-7.957l17.187,7.957
					H335.498z M356.185,218.651l19.415-8.912v17.823L356.185,218.651z"/>
			</g>
			<g>
				<rect x="430.66" y="241.566" fill="#FFFFFF" width="31.827" height="3.819"/>
			</g>
			<g>
				<path fill="#FFFFFF" d="M453.257,150.541l-24.188-22.279l-25.779,22.279h-20.051v88.479h4.456l27.053-6.047v-31.827h13.368
					v29.599h1.591v-29.599h14.004v33.418H430.66v4.456h100.892v-88.479H453.257z M492.086,161.044h10.185v7.638h-10.185V161.044z
					 M492.086,170.274h10.185v17.187h-10.185V170.274z M429.068,147.995c6.366,0,11.458,5.092,11.458,11.457
					s-5.092,11.458-11.458,11.458c-6.365,0-11.457-5.093-11.457-11.458S422.703,147.995,429.068,147.995L429.068,147.995z
					 M414.747,199.554v-2.546c0,0,4.138-4.138,14.322-4.138c10.185,0,14.641,4.138,14.641,4.138v2.546H414.747z M472.672,221.515
					h-10.185v-17.187h10.185V221.515z M472.672,202.738h-10.185v-7.639h10.185V202.738z M472.672,187.142h-10.185v-17.187h10.185
					V187.142z M484.766,221.515h-10.185v-17.187h10.185V221.515z M484.766,202.738h-10.185v-7.639h10.185V202.738z M484.766,187.142
					h-10.185v-17.187h10.185V187.142z M484.766,168.682h-10.185v-7.638h-1.591v7.638h-10.185v-7.638h21.96V168.682z
					 M502.271,221.833h-10.185v-17.505h10.185V221.833z M514.047,221.833h-10.185v-17.505h10.185V221.833z M514.047,202.738h-10.185
					v-7.32h-1.592v7.32h-10.185v-7.32h21.961V202.738z M514.047,187.46h-10.185v-17.187h10.185V187.46z M514.047,168.682h-10.185
					v-7.638h10.185V168.682z"/>
			</g>
			<g>
				<polygon fill="#FFFFFF" points="405.199,239.02 377.191,245.385 427.159,245.385 427.159,234.245 414.747,237.11 				"/>
			</g>
			<g>
				<path fill="#FFFFFF" d="M424.613,164.864c0.318,0,0.318,0,0.637-0.318l4.455-4.456v-8.911c0-0.318-0.318-0.955-0.954-0.955
					c-0.637,0-0.955,0.318-0.955,0.955v7.956l-3.819,4.138c-0.318,0.318-0.318,0.955,0,1.273
					C424.295,164.545,424.613,164.545,424.613,164.864L424.613,164.864z"/>
			</g>
		</g>
		<g>
			<g>
				<g>
					<path fill="#FFFFFF" d="M538.235,310.312c0,0-1.273-4.456-5.093-4.456h-3.501h-10.185c-0.955,0-1.909-0.318-2.546-1.272
						c-1.273-1.273-5.093-8.275-5.411-8.594l-1.909-3.183c-0.637-0.955-1.592-1.591-2.546-1.591c-1.91,0-3.183,1.272-3.183,3.183
						c0,0.318,0,0.954,0.318,1.272l10.502,18.778c0.318,0.637,0.318,1.272,0.637,1.909v2.228c0,0.637,0,1.273-0.318,1.91
						l-3.819,15.276h4.456v13.368l0,0c0,2.228,1.91,4.137,4.138,4.137c0.318,0,0.637,0,1.273-0.318
						c1.591-0.636,2.864-2.228,2.864-4.137v-12.731c0-0.318,0-0.318,0-0.636h2.546c0,0.317,0,0.317,0,0.636v12.731
						c0,1.909,0.955,3.501,2.864,4.137c2.229,0.637,4.456-0.317,5.411-2.546c0-0.318,0.317-0.955,0.317-1.272v-13.368h4.456
						l-6.047-21.005c0,0-0.318-0.955,0.637-1.273c0.954-0.318,0.954,0.637,0.954,0.637l5.093,15.595
						c0.318,1.592,1.909,2.546,3.501,2.229c2.546-0.637,1.592-3.501,1.592-3.501L538.235,310.312z"/>
				</g>
				<g>
					<path fill="#FFFFFF" d="M525.504,302.036c4.774,0,8.275-3.819,8.275-8.274c0-4.456-3.819-8.275-8.275-8.275
						s-8.274,3.819-8.274,8.275l0,0C517.229,298.217,521.049,302.036,525.504,302.036z"/>
				</g>
			</g>
			<g>
				<g>
					<path fill="#FFFFFF" d="M330.087,301.4c4.456,0,8.275-3.818,8.275-8.274s-3.819-8.274-8.275-8.274
						c-4.456,0-8.275,3.818-8.275,8.274l0,0C321.813,297.899,325.631,301.4,330.087,301.4L330.087,301.4z"/>
				</g>
				<g>
					<path fill="#FFFFFF" d="M349.82,325.588c0-0.317-2.546-6.365-3.183-7.956c-5.092-12.731-5.729-12.731-10.185-12.731h-12.731
						c-4.456,0-5.41,0-10.185,12.731c-0.636,1.909-3.819,8.911-3.819,9.229s-1.273,3.183,1.592,4.138
						c2.864,0.955,3.501-2.228,3.501-2.228l5.092-12.413c0,0,0-0.318,0.318-0.318c0.318,0,0.318,0.318,0.318,0.318v32.464l0,0
						c0,2.228,1.591,4.455,4.138,4.455c0,0,0,0,0.318,0c2.228,0,4.137-1.909,4.137-4.137c0,0,0,0,0-0.318v-13.05
						c0,0,0-1.909,1.273-1.909c1.273,0,1.273,1.909,1.273,1.909v13.05c0,2.228,1.591,4.455,4.137,4.455c0,0,0,0,0.318,0
						c2.228,0,4.138-1.909,4.138-4.137v-0.318l0,0v-32.464c0-0.318,0-0.318,0-0.318l0.318,0.318l4.774,11.14
						c0,0,1.273,2.864,3.819,1.909C351.729,328.453,349.82,325.588,349.82,325.588z"/>
				</g>
			</g>
			<g>
				<g>
					<path fill="#FFFFFF" d="M483.811,284.532h-17.504c-4.774,0.636-8.594,4.773-8.594,9.548v20.369
						c0.318,1.591,1.592,2.864,3.183,2.546c1.273,0,2.546-1.273,2.546-2.546v-17.187c0-0.637,0.318-1.592,1.273-1.592
						s0.955,0.955,0.955,1.273v52.196c0,2.228,1.909,4.137,4.138,4.137c2.228,0,4.137-1.909,4.137-4.137v-30.236
						c0-0.636,0.318-1.272,0.955-1.272l0,0l0,0c0.637,0,1.273,0.318,1.273,0.954l0,0v30.236c0.318,2.228,2.228,3.819,4.455,3.819
						c1.91-0.318,3.501-1.592,3.819-3.819v-51.878c0-0.637,0.318-1.273,0.955-1.273s1.273,0.955,1.273,1.592v17.505
						c0,1.591,1.272,2.864,2.864,2.864c1.591,0,2.864-1.273,2.864-2.864v-20.369C492.723,289.306,488.903,285.168,483.811,284.532z"
						/>
				</g>
				<g>
					<g>
						<path fill="#FFFFFF" d="M480.628,272.438c-0.636-0.637-1.272-1.272-2.546-0.637c-1.273,0.637-0.955,0.637-1.909,0.955
							c-2.865,1.273-6.048,1.91-9.23,1.91c0.318,4.455,4.456,7.956,8.912,7.638c3.819-0.318,7.002-3.501,7.32-7.32
							C482.538,274.03,481.583,273.074,480.628,272.438z"/>
					</g>
					<g>
						<path fill="#FFFFFF" d="M470.443,272.438c1.592-0.318,3.501-0.637,5.093-1.591c0.955-0.318,1.591-0.637,2.546-0.955
							c0.637-0.318,1.273-0.318,1.592-0.318s0.636,0.318,0.636,0.637l0.637,0.637c0,0,0.318,0.318,2.229,1.909
							c0.318,0.318,0.318,0.318,0.636,0.318c0.318,0,0.318-1.273,0-2.228c-0.317-2.229-1.272-4.138-2.546-5.729
							c-0.318,0-0.955-0.637-1.591-0.637c-0.637,0-1.91-0.636-2.547-0.954c-2.228-0.637-4.455-0.318-6.365,0.954
							c-2.546,1.91-4.456,4.456-5.729,7.639c-0.318,0.637,0.955,0.955,1.591,0.955C468.216,272.756,469.171,272.756,470.443,272.438
							z"/>
					</g>
				</g>
			</g>
			<g>
				<g>
					<path fill="#FFFFFF" d="M443.072,323.361c-0.954-1.591-2.546-2.228-4.137-1.909h-8.275V308.72c0-2.864-2.546-5.41-5.41-5.41
						h-2.229c-0.318,0-0.955,0-1.272,0.318l0,0l-0.955,0.318l-10.821,3.501h-0.318h-0.318l0,0c-0.636,0.318-0.955,0.954-1.273,1.591
						l-3.183,9.23c-0.637,1.591,0.318,3.183,1.91,3.818c1.591,0.637,3.183-0.317,3.819-1.909l0,0l2.864-7.957l4.456-1.272l0,0
						v15.276c0,0.955,0.318,1.592,0.637,2.229c0.637,1.909,2.546,3.183,4.456,3.183h15.277l6.684,11.775
						c1.272,1.91,3.501,2.546,5.41,1.592h0.318c1.91-0.955,2.546-3.501,1.592-5.411L443.072,323.361z"/>
				</g>
				<g>
					<path fill="#FFFFFF" d="M436.707,337.365h-4.456c-1.909,7.32-9.229,11.776-16.549,9.866c-7.32-1.909-11.776-9.229-9.867-16.55
						c0.318-0.955,0.637-1.909,0.955-2.546l-0.318-0.318l-0.318-0.318l-3.183-1.91l-0.318-0.317l-0.318-0.318
						c-1.591,2.864-2.228,5.729-2.228,8.911c0.636,10.503,9.548,18.46,20.051,18.142c8.594-0.318,15.595-6.365,17.505-14.959
						L436.707,337.365L436.707,337.365z"/>
				</g>
				<g>
					<path fill="#FFFFFF" d="M424.932,300.446c4.455,0,7.956-3.501,7.956-7.957c0-4.455-3.501-7.956-7.956-7.956
						c-4.456,0-7.957,3.501-7.957,7.638C416.975,296.945,420.476,300.446,424.932,300.446L424.932,300.446z"/>
				</g>
			</g>
			<g>
				<g>
					<path fill="#FFFFFF" d="M384.193,287.397h-16.55c-4.774,0.637-8.593,4.773-8.593,9.548v19.732
						c-0.318,1.592,0.955,2.864,2.546,2.864c1.591,0.318,2.865-0.955,2.865-2.546c0-0.318,0-0.318,0-0.637V299.49
						c0-0.637,0.318-1.592,1.273-1.592c0.955,0,0.955,0.955,0.955,1.273v50.286c0.318,2.229,2.228,3.819,4.138,3.501
						c1.91-0.317,3.501-1.591,3.501-3.501v-28.962c0-0.637,0.318-1.273,0.955-1.273l0,0l0,0c0.637,0,0.955,0.318,0.955,0.955
						c0,0,0,0,0,0.318v28.962c0,2.229,1.909,3.819,3.819,3.819c2.228,0,3.819-1.909,3.819-3.819v-50.286
						c0-0.637,0.318-1.273,0.955-1.273c0.636,0,1.273,0.955,1.273,1.592v16.868c0,1.592,1.273,2.864,2.864,2.864
						s2.865-1.272,2.865-2.864v-19.732C392.468,291.852,388.967,287.715,384.193,287.397z"/>
				</g>
				<g>
					<g>
						<path fill="#FFFFFF" d="M368.598,268.618c0-0.954-1.273-2.546-3.819-1.272c-3.183,1.272-2.546,6.047-2.546,6.047v0.637
							c0,0,0.955-1.91,3.501-2.229c0.318,0,0.955-0.318,1.273-0.318c0.318-0.636,0.955-1.591,1.591-2.228
							C368.598,268.937,368.598,268.937,368.598,268.618z"/>
					</g>
					<g>
						<path fill="#FFFFFF" d="M386.739,267.346c-2.546-1.273-3.501,0-3.819,1.272c0,0.318,0,0.318,0,0.637
							c0.636,0.637,0.955,1.273,1.273,1.91c0.318,0.317,0.955,0.317,1.273,0.636c2.546,0.318,3.183,1.592,3.501,2.229
							c0.318,0.636,0,0,0-0.637S389.604,268.937,386.739,267.346z"/>
					</g>
					<g>
						<path fill="#FFFFFF" d="M375.6,267.664c-4.774,0-8.275,3.818-8.275,8.274s3.819,8.275,8.275,8.275
							c4.774,0,8.275-3.819,8.275-8.275l0,0C384.193,271.483,380.374,267.664,375.6,267.664z"/>
					</g>
				</g>
			</g>
		</g>
	</g>
</g>
</svg>
