<?xml version="1.0" encoding="utf-8"?>
<!-- Generator: Adobe Illustrator 16.0.3, SVG Export Plug-In . SVG Version: 6.00 Build 0)  -->
<!DOCTYPE svg PUBLIC "-//W3C//DTD SVG 1.1//EN" "http://www.w3.org/Graphics/SVG/1.1/DTD/svg11.dtd" [
	<!ENTITY ns_extend "http://ns.adobe.com/Extensibility/1.0/">
	<!ENTITY ns_ai "http://ns.adobe.com/AdobeIllustrator/10.0/">
	<!ENTITY ns_graphs "http://ns.adobe.com/Graphs/1.0/">
	<!ENTITY ns_vars "http://ns.adobe.com/Variables/1.0/">
	<!ENTITY ns_imrep "http://ns.adobe.com/ImageReplacement/1.0/">
	<!ENTITY ns_sfw "http://ns.adobe.com/SaveForWeb/1.0/">
	<!ENTITY ns_custom "http://ns.adobe.com/GenericCustomNamespace/1.0/">
	<!ENTITY ns_adobe_xpath "http://ns.adobe.com/XPath/1.0/">
]>
<svg version="1.1" id="Layer_1" xmlns:x="&ns_extend;" xmlns:i="&ns_ai;" xmlns:graph="&ns_graphs;"
	 xmlns="http://www.w3.org/2000/svg" xmlns:xlink="http://www.w3.org/1999/xlink" x="0px" y="0px" width="270.548px"
	 height="270.548px" viewBox="291.583 68.493 270.548 270.548" enable-background="new 291.583 68.493 270.548 270.548"
	 xml:space="preserve">
<metadata>
	<sfw  xmlns="&ns_sfw;">
		<slices></slices>
		<sliceSourceBounds  width="270.548" height="270.548" y="161.459" x="291.083" bottomLeftOrigin="true"></sliceSourceBounds>
	</sfw>
</metadata>
<title>TARGET 1 B copy 8</title>
<g id="TARGETS">
	<g>
		<rect x="291.583" y="68.493" fill="#FD9D24" width="270.548" height="270.548"/>
	</g>
	<g>
		<g>
			<g>
				<polygon fill="#FFFFFF" points="398.033,167.238 393.752,167.238 393.752,248.002 451.687,248.002 451.687,243.151 
					398.033,243.151 				"/>
			</g>
			<g>
				<path fill="#FFFFFF" d="M402.599,157.534v80.765h57.649v-80.765H402.599z M453.398,224.03c0,0.285-0.285,0.285-0.571,0.285
					H410.02c-0.286,0-0.571,0-0.571-0.285v-6.85c0-0.285,0.285-0.285,0.571-0.285h42.808c0.286,0,0.571,0,0.571,0.285V224.03z
					 M453.398,212.328c0,0-0.285,0.286-0.571,0.286H410.02c-0.286,0-0.571,0-0.571-0.286v-6.849c0,0,0.285-0.286,0.571-0.286h42.808
					c0.286,0,0.571,0.286,0.571,0.286V212.328z M453.398,200.057c0,0.285-0.285,0.285-0.571,0.285H410.02
					c-0.286,0-0.571,0-0.571-0.285v-6.85c0,0,0.285-0.285,0.571-0.285h42.808c0.286,0,0.571,0,0.571,0.285V200.057z"/>
			</g>
		</g>
		<g>
			<path fill="#FFFFFF" d="M460.818,96.461c-3.71-2.854-8.562-4.281-13.128-4.281c-1.142,0-2.283,0-3.139,0.286h-0.286
				c-5.993,1.142-11.13,4.565-14.555,9.703l-0.285,0.285c0,0,0,0.285,0,0.57v0.286v0.285c1.142,1.712,1.998,3.14,2.568,4.28
				c0.285,0.286,0.856,0.571,1.142,0.286c0,0,0,0,0.285,0l0,0c5.423-7.42,9.418-8.276,12.272-8.848h0.285c0.57,0,1.142,0,1.712,0
				c3.425,0,6.564,0.856,9.133,2.854c3.139,2.854,4.852,7.135,4.566,11.415c0,8.848-4.281,12.271-7.706,13.413
				c-1.427,0.571-2.854,0.856-4.28,0.856c-2.283,0-4.566-0.57-6.564-1.427h-0.285c-3.14-1.427-7.705-3.995-11.986-12.843
				c-8.847-17.694-16.267-19.406-21.119-20.548h-0.286c-1.142-0.285-1.998-0.285-3.139-0.285c-4.852,0-9.417,1.427-13.128,4.28
				c-4.852,4.281-7.42,10.274-7.135,16.553c-0.571,10.56,7.42,19.692,17.979,20.548c0.571,0,1.142,0,1.427,0
				c1.427,0,3.139-0.285,4.566-0.57c2.854-0.571,5.422-1.713,7.706-3.425l2.568,2.283c0.286,0.285,0.856,0.285,1.142,0
				c0,0,0.285-0.285,0.285-0.571l1.998-12.271l0,0c0-0.285,0-0.285-0.285-0.57c-0.285,0-0.285-0.286-0.571-0.286l0,0l-11.986,2.854
				l0,0c-0.286,0-0.286,0-0.286,0.285c-0.285,0-0.285,0.285-0.285,0.571c0,0.285,0,0.285,0.285,0.57l2.568,2.283
				c-1.141,0.856-2.568,1.427-3.995,1.427c-1.142,0.285-1.998,0.285-3.139,0.285c-3.996,0-7.706-1.712-10.274-4.565l0,0
				c-1.998-2.569-3.14-5.993-2.854-9.133c-0.286-4.281,1.427-8.562,4.566-11.416c2.569-1.997,5.708-2.854,8.847-2.854
				c0.571,0,1.142,0,1.712,0h0.285c3.996,0.856,9.418,1.998,16.838,17.123c2.854,6.85,8.276,12.558,15.126,15.696
				c2.854,1.428,6.278,2.283,9.418,2.283c2.283,0,4.565-0.285,6.563-1.142c3.71-1.427,11.986-5.993,11.986-19.691
				C468.524,106.736,465.955,100.456,460.818,96.461z"/>
		</g>
		<g>
			<g>
				<g>
					<path fill="#FFFFFF" d="M510.19,213.185h5.423c0.285,0,0.285,0.285,0.285,0.285v13.128c0,0.285-0.285,0.285-0.285,0.285h-5.423
						c-0.285,0-0.285-0.285-0.285-0.285V213.47C509.62,213.47,509.905,213.185,510.19,213.185z"/>
				</g>
				<g>
					<path fill="#FFFFFF" d="M491.069,188.356c0-5.137,4.281-9.417,9.418-9.417l0,0h0.571c0.57-7.135,6.849-12.272,13.983-11.701
						c6.564,0.57,11.701,5.993,11.701,12.557c0,1.998-0.57,3.996-1.142,5.708c7.991,0.856,13.698,7.991,12.843,15.981
						c-0.856,7.991-7.991,13.699-15.982,12.558h-19.12l0,0c-5.708,0-10.274-4.566-10.274-10.274c0-2.568,0.856-5.137,2.854-6.849
						C492.782,195.205,490.784,191.781,491.069,188.356z"/>
				</g>
			</g>
			<g>
				<g>
					<circle fill="#FFFFFF" cx="486.503" cy="235.159" r="2.283"/>
				</g>
				<g>
					<circle fill="#FFFFFF" cx="496.777" cy="235.159" r="2.283"/>
				</g>
				<g>
					<circle fill="#FFFFFF" cx="507.052" cy="235.159" r="2.283"/>
				</g>
				<g>
					<circle fill="#FFFFFF" cx="517.325" cy="235.159" r="2.283"/>
				</g>
				<g>
					<circle fill="#FFFFFF" cx="527.6" cy="235.159" r="2.283"/>
				</g>
				<g>
					<circle fill="#FFFFFF" cx="537.873" cy="235.159" r="2.283"/>
				</g>
				<g>
					<circle fill="#FFFFFF" cx="491.641" cy="227.169" r="2.283"/>
				</g>
				<g>
					<circle fill="#FFFFFF" cx="501.914" cy="227.169" r="2.283"/>
				</g>
				<g>
					<circle fill="#FFFFFF" cx="522.462" cy="227.169" r="2.283"/>
				</g>
				<g>
					<circle fill="#FFFFFF" cx="532.736" cy="227.169" r="2.283"/>
				</g>
			</g>
		</g>
		<g>
			
				<rect x="465.136" y="120.683" transform="matrix(-0.7035 0.7107 -0.7107 -0.7035 953.3412 -152.658)" fill="#FFFFFF" width="86.758" height="3.71"/>
		</g>
		<g>
			
				<rect x="506.425" y="239.591" transform="matrix(-0.7108 0.7034 -0.7034 -0.7108 1068.6014 126.5698)" fill="#FFFFFF" width="3.71" height="86.758"/>
		</g>
		<g>
			
				<rect x="343.485" y="79.145" transform="matrix(-0.7107 0.7035 -0.7035 -0.7107 676.9584 -33.3654)" fill="#FFFFFF" width="3.71" height="86.758"/>
		</g>
		<g>
			
				<rect x="302.162" y="281.04" transform="matrix(-0.7035 0.7107 -0.7107 -0.7035 789.6808 236.3341)" fill="#FFFFFF" width="86.758" height="3.71"/>
		</g>
		<g>
			<g>
				<path fill="#FFFFFF" d="M341.526,185.787c3.71,0,6.849-2.854,6.849-6.563s-2.854-6.85-6.564-6.85s-6.849,2.854-6.849,6.564l0,0
					C334.962,182.934,337.816,185.787,341.526,185.787z"/>
			</g>
			<g>
				<path fill="#FFFFFF" d="M369.494,227.169l-2.854-5.423l0,0l-6.564-13.413c-0.571-1.142-1.998-1.998-3.14-1.712h-9.417
					l-0.286-11.986c0-3.71-0.856-5.708-3.71-6.564c-1.427-0.285-2.854-0.285-3.996,0h-0.285l0,0l-11.13,3.71h-0.285h-0.286l0,0
					c-0.57,0.286-1.141,0.856-1.141,1.427l-3.14,9.133c-0.571,1.427,0.286,3.14,1.712,3.71c1.427,0.571,3.139-0.285,3.71-1.712
					l2.854-7.706l4.281-1.427h0.286v12.558c0,2.854,0.856,5.707,3.71,6.563l0.856,0.285c0.571,0,0.856,0,1.427,0h14.269l3.71,7.135
					v0.285l1.427,2.569l1.427,2.568v0.285l0,0l1.427,2.568c0.856,1.713,3.139,2.283,4.852,1.427
					c1.712-0.855,2.283-3.139,1.427-4.852L369.494,227.169z"/>
			</g>
			<g>
				<path fill="#FFFFFF" d="M353.798,218.608h-5.137v0.57c0,0,0,0.285,0,0.571c0,7.134-5.708,13.127-13.128,13.127
					c-7.135,0-13.128-5.707-13.128-13.127c0-2.854,0.856-5.993,2.854-8.276l0.285-0.286l-3.995-3.139l-0.286,0.285
					c-6.278,7.991-4.852,19.406,3.139,25.685c7.991,6.279,19.407,4.852,25.685-3.139c2.568-3.14,3.71-7.135,3.996-11.13
					L353.798,218.608L353.798,218.608z"/>
			</g>
		</g>
		<g>
			<g>
				<path fill="#FFFFFF" d="M427.143,272.546l-14.84,12.557h-15.697v16.267h15.697l14.84,12.843c1.142,1.142,2.568,0.57,2.568-0.571
					v-40.524C429.711,271.975,428.569,271.118,427.143,272.546z"/>
			</g>
			<g>
				<path fill="#FFFFFF" d="M441.127,285.103c2.568,5.422,2.283,11.701-0.571,17.123l3.71,2.568c1.998-3.425,3.14-7.705,3.14-11.7
					c0-3.71-0.856-7.135-2.568-10.56L441.127,285.103z"/>
			</g>
			<g>
				<path fill="#FFFFFF" d="M451.687,277.968c2.568,4.566,3.995,9.703,3.995,15.126c0,5.707-1.427,11.415-4.281,16.267l3.71,2.283
					c6.564-11.13,6.85-25.114,0.286-36.244L451.687,277.968z"/>
			</g>
		</g>
	</g>
</g>
</svg>
