<?xml version="1.0" encoding="utf-8"?>
<!-- Generator: Adobe Illustrator 16.0.3, SVG Export Plug-In . SVG Version: 6.00 Build 0)  -->
<!DOCTYPE svg PUBLIC "-//W3C//DTD SVG 1.1//EN" "http://www.w3.org/Graphics/SVG/1.1/DTD/svg11.dtd" [
	<!ENTITY ns_extend "http://ns.adobe.com/Extensibility/1.0/">
	<!ENTITY ns_ai "http://ns.adobe.com/AdobeIllustrator/10.0/">
	<!ENTITY ns_graphs "http://ns.adobe.com/Graphs/1.0/">
	<!ENTITY ns_vars "http://ns.adobe.com/Variables/1.0/">
	<!ENTITY ns_imrep "http://ns.adobe.com/ImageReplacement/1.0/">
	<!ENTITY ns_sfw "http://ns.adobe.com/SaveForWeb/1.0/">
	<!ENTITY ns_custom "http://ns.adobe.com/GenericCustomNamespace/1.0/">
	<!ENTITY ns_adobe_xpath "http://ns.adobe.com/XPath/1.0/">
]>
<svg version="1.1" id="Layer_1" xmlns:x="&ns_extend;" xmlns:i="&ns_ai;" xmlns:graph="&ns_graphs;"
	 xmlns="http://www.w3.org/2000/svg" xmlns:xlink="http://www.w3.org/1999/xlink" x="0px" y="0px" width="499.473px" height="500px"
	 viewBox="177.264 0 499.473 500" enable-background="new 177.264 0 499.473 500" xml:space="preserve">
<metadata>
	<sfw  xmlns="&ns_sfw;">
		<slices></slices>
		<sliceSourceBounds  width="499.473" height="500" y="0.5" x="176.764" bottomLeftOrigin="true"></sliceSourceBounds>
	</sfw>
</metadata>
<title>TARGET 1.3</title>
<g id="TARGETS">
	<g>
		<rect x="177.264" y="0" fill="#19486A" width="499.473" height="500"/>
	</g>
	<g>
		<g>
			<path fill="#FFFFFF" d="M516.041,131.718c0-2.635-2.107-4.216-4.742-4.216c-2.634,0-4.215,0-6.849,0
				c-2.635,0-4.742-0.526-5.269-3.161c-1.054-4.215-2.635-8.43-4.216-12.645c-1.054-2.107-0.526-4.742,1.581-6.322
				c2.107-1.581,3.688-3.161,5.269-4.742c1.581-1.58,2.107-3.688,1.054-5.796c-2.634-5.269-6.322-9.483-10.537-13.698
				c-1.581-2.107-4.215-2.107-6.322-0.526l0,0c-2.107,1.58-3.688,2.107-5.269,3.688c-1.581,1.581-4.216,2.107-6.323,0.527
				c-3.688-2.635-8.43-6.322-11.063-7.903c-2.108-1.054-3.162-3.688-2.635-6.322c0.526-2.635,1.054-4.742,1.58-6.85
				c0.527-2.107-0.526-4.215-2.634-5.269c-5.269-2.107-10.537-4.215-15.807-4.742c-2.107-0.526-4.741,1.054-5.269,3.161
				c-1.054,2.107-1.58,4.216-2.107,6.323c-0.526,2.107-2.107,4.215-4.741,4.215c-5.796,0-9.484,0-13.172,0
				c-2.634,0.526-5.269-1.054-5.795-3.688c-1.054-2.634-1.581-4.215-2.634-6.85c-0.527-2.107-3.161-3.161-5.269-2.634
				c-5.796,1.054-11.064,3.161-16.333,5.269c-2.107,1.054-3.161,3.688-2.107,5.796c0.527,2.634,1.054,4.215,1.581,6.322
				s1.054,4.741-1.581,6.322c-2.635,1.581-7.903,5.269-11.064,7.903c-1.581,1.58-4.742,2.107-6.849,0.526
				c-2.108-1.58-4.215-2.634-6.323-3.688s-4.215-1.054-5.795,0.526c-3.688,4.215-7.376,8.957-10.011,14.226
				c-1.054,2.107-0.527,4.742,1.581,5.796c2.108,1.58,3.162,2.634,5.269,4.215c2.107,1.58,3.688,3.161,2.634,5.796
				c-1.054,2.634-3.161,10.01-4.215,12.645c-0.527,2.634-2.635,4.215-5.269,4.215s-4.742,0.527-7.376,0.527
				c-2.107,0-4.215,1.58-4.215,4.215c-0.527,5.795-0.527,11.591,0.527,16.859c0,2.635,2.107,4.215,4.742,4.215l0,0
				c2.634,0,4.215,0,6.849,0s4.742,0.527,5.269,3.161c1.054,4.215,2.634,8.431,4.215,12.646c1.054,2.107,0.527,5.269-1.581,6.322
				c-2.107,1.58-3.688,3.161-5.795,4.742c-1.581,1.58-2.108,3.688-1.054,5.795c2.635,4.742,6.323,9.483,10.538,13.699
				c1.581,2.107,4.215,2.107,6.322,0.526l0,0c2.107-1.58,3.688-2.107,5.269-3.688c1.581-1.58,4.215-2.107,6.322-0.526
				s8.43,6.322,11.064,7.903c2.107,1.054,3.161,3.688,2.634,6.322c-0.527,2.634-1.054,4.742-1.581,6.85s0.527,4.215,2.634,5.269
				c5.269,2.634,10.537,4.215,16.333,5.269c2.107,0.526,4.742-1.054,5.269-3.161l0,0c1.054-2.107,1.581-4.215,2.107-6.322
				s2.107-4.215,4.742-4.215c5.269,0,8.957,0,13.698,0c2.635,0,4.742,1.054,5.796,3.688c1.054,2.635,1.58,4.215,2.634,6.85
				c0.527,2.107,3.161,3.161,5.27,2.634c5.795-1.054,11.063-2.634,16.333-5.269c2.107-1.054,3.688-3.161,2.634-5.795
				c0,0,0,0,0-0.527c-0.526-2.634-1.054-4.215-1.58-6.322c-0.527-2.107-1.054-4.742,1.58-6.322c2.635-1.581,8.43-6.322,10.537-7.903
				c1.581-1.581,4.742-2.107,6.85-0.527c2.107,1.581,4.215,2.635,6.322,3.688c2.107,1.581,4.742,1.054,6.323-0.526
				c3.688-4.216,7.376-8.957,10.01-14.226c1.054-2.107,0.527-4.742-1.054-5.796l0,0c-2.107-1.581-3.161-2.635-5.269-4.215
				c-2.107-1.581-3.688-3.161-2.634-5.796c1.054-2.634,3.161-9.483,4.215-12.645c0.526-2.635,2.634-4.215,5.269-4.215
				c2.634,0,4.741-0.527,7.376-0.527c2.107,0,4.215-1.58,4.215-4.215C517.095,143.309,517.095,137.513,516.041,131.718z
				 M425.946,198.63c-31.085,0-55.848-25.29-55.848-56.375c0-31.086,25.29-55.849,56.375-55.849
				c31.086,0,55.849,25.29,55.849,56.375l0,0C482.321,173.867,457.031,198.63,425.946,198.63z"/>
		</g>
		<g>
			<path fill="#FFFFFF" d="M384.851,126.448c1.054,1.054,2.107,0,2.634-0.526c0.527-0.527,0.527-1.581,0-2.107
				c-0.527-0.527,0.527-1.054,1.581-1.581c1.054-0.526,2.634-1.58,3.688-2.107c2.634-0.526,5.269-0.526,7.376,0
				c1.58,1.054,3.688,0.527,4.742-1.054c1.054-1.054,2.107-2.107,3.688-3.161c0.527-0.526-1.581-2.634-3.688,0
				c-2.107,2.635-3.161,2.635-4.215,2.635c-1.054,0-6.849-1.581-7.376-3.161c-0.527-1.581,1.581-3.162,3.688-4.216
				c3.162-0.526,6.323-1.054,9.484-1.054c3.161-0.526,6.849-2.107,8.957-1.054c2.108,1.054-7.903,3.688-4.742,5.27
				c1.054,0.526,6.322-3.162,8.43-3.688c4.215-2.107-4.215-3.161-3.161-7.376s-9.483-3.161-15.806-2.635
				c-2.635,1.581-5.269,3.688-7.903,5.796c0.527,0,1.581,0.526,1.581,1.054c0,1.054,0,2.107-0.527,3.161
				c-1.581,1.58-3.161,2.107-5.269,2.635c-0.527,0-0.527,0-1.054-0.527c-1.054,1.054-1.581,2.107-2.635,3.688
				c1.054-0.527,2.108-1.054,3.688-1.054c1.054,0,2.634,0.526,3.161,1.054c0.527,0.526-3.161,2.107-3.688,2.634
				c-1.581,1.581-4.215,4.742-5.796,5.269c-0.527,0-1.054,0-1.054,0c-0.527,1.054-1.054,2.107-1.054,3.161
				C381.162,125.922,382.743,125.922,384.851,126.448z"/>
		</g>
		<g>
			<path fill="#FFFFFF" d="M465.988,140.148c-1.58,1.054-3.161,1.58-5.269,2.107c-1.581,0.526-2.635,4.215-2.635,5.796
				c0,1.58,4.742,6.849,1.581,6.849c-3.161-1.58-5.796-3.688-7.376-6.849c-1.054-2.635-2.107-5.27-3.161-7.377
				c-0.527-1.58-2.107-2.107-3.688-1.58c-0.527,0-0.527,0.526-1.054,0.526c-1.581,1.054,0.526,2.635-1.054,4.742
				c-1.581,2.107-2.107,4.742-4.215,2.634c-4.742-5.269-11.592-2.634-13.172-8.956c-0.527-3.161-3.688-3.161-5.795-4.742
				c-2.108-1.58-3.688-2.634-4.215-1.58s7.376,7.376,7.903,8.956c0.526,1.581-2.635,4.215-4.742,5.269
				c-2.107,1.055-3.161-1.054-5.795-3.688c-2.634-2.635-3.161-4.215-3.688-2.107c0,3.161,1.581,6.322,4.742,8.43
				c2.107,1.054,4.215,1.581,3.688,3.688c-0.526,2.107,0,1.054-2.107,3.161c-2.107,1.58-3.161,3.688-2.634,5.795
				c0,3.162-0.527,3.162-1.054,5.796c-0.527,2.635-1.581,0.527-2.634,4.215c-0.527,2.107-1.581,4.742-3.161,6.322
				c-2.107,1.581-4.215,2.635-6.85,2.635c-2.107,0-2.634-6.322-2.634-9.483c0-1.054-1.581,2.107-2.107-4.215
				c-0.527-4.216-3.161,0.526-3.161-2.107c0-2.635-1.581-2.108-2.634-3.688c-1.054-1.581-3.161,0-5.269,1.054
				c-2.108,1.054-1.054,1.054-3.688,0.526l0,0c5.796,13.699,17.387,24.236,31.612,28.451c-0.527-0.526-1.054-1.58-0.527-2.634
				c2.107-3.688,5.795-5.796,9.484-5.796c7.903-0.526,18.44,5.269,20.021,4.215c1.581-1.054,5.27-5.269,10.011-5.269
				c1.581,0,3.161,0.527,4.215,1.054c1.581-1.054,3.161-2.635,4.742-4.215c-0.527,0-1.054-0.527-1.581-0.527
				c-2.634-1.58-2.634,1.054-3.688,0.527c-1.054-0.527,1.58-3.688-2.635-1.054c-4.215,2.634-2.634-0.527-4.741-4.742
				c-1.054-4.215,1.054-8.956,5.269-10.537c3.161-1.054,5.795-1.581,8.957-2.107c5.795-1.581,7.376-4.742,8.43-2.635
				c0,0.527,0.526,0.527,0.526,1.054c0.527,1.054,0.527,2.107,0.527,3.161c1.054-2.634,1.58-4.741,2.107-7.376
				c-1.581-0.526-6.85-7.902-2.635-13.172c0.527-1.054-1.58-3.161-1.054-3.161c2.107,0,3.688,1.054,4.215,3.161
				c0-2.634-0.526-5.269-1.054-7.902c0,0.526,0,1.054,0,1.58c-0.526,1.581-2.634,2.635-4.215,1.581
				c-0.526-0.527-1.054-0.527-1.58-1.581c-0.527-0.526-2.635-2.634-2.635,0.527S469.149,138.04,465.988,140.148z M419.624,159.115
				c-0.527,1.054-2.635,9.484-3.688,8.431s0.527-9.484,1.054-10.538C418.57,153.846,422.785,154.373,419.624,159.115z
				 M439.645,149.631c-1.58,0.527-3.161,0.527-4.741-0.526c-1.054-1.054,1.054-2.635,1.58-2.635
				C438.064,146.47,440.698,148.577,439.645,149.631z M460.192,148.051c-0.526-1.055,0.527-2.108,1.581-1.581
				c1.054,0.526,2.107,1.581,2.107,2.635s-2.107,0.526-2.634,0.526C460.72,149.631,460.72,149.105,460.192,148.051z
				 M467.042,154.373c-1.58,1.054-3.161,0.526-4.742-0.527c-1.054-1.054,1.055-2.634,1.581-2.634
				C465.462,151.212,468.096,153.32,467.042,154.373L467.042,154.373z"/>
		</g>
		<g>
			<path fill="#FFFFFF" d="M383.27,131.718c2.635,0.526,5.269,1.054,7.903,2.107s7.376,3.688,10.011,2.634
				c2.634-1.054,3.161-1.58,3.161-3.688s-1.581-2.635-3.688-1.054c-0.527,0.526-2.107-3.162-3.161-2.635
				c-1.054,0.526,1.581,4.215,0.527,4.215s-3.161-4.215-3.161-4.742c0-0.526-2.107-2.634-3.161-1.054
				c-2.634,2.635-7.903,2.635-8.43,3.162c-0.526,0-0.526,0.526-1.054,0.526c-2.107,1.054-2.634-1.054-2.634-2.635
				c-1.054,2.635-1.581,5.796-1.581,8.431v-0.527c1.581-3.161,2.107-3.161,2.634-3.688
				C381.162,132.244,381.689,132.244,383.27,131.718L383.27,131.718z"/>
		</g>
	</g>
	<g>
		<g>
			<g>
				<path fill="#FFFFFF" d="M414.355,428.872c-2.634,1.581-5.269,2.635-7.903,3.688c-8.43,2.634-16.86,3.688-25.29,3.161
					c-4.215,0-8.43-0.527-12.645-1.054c-2.635-0.527-5.269-1.054-7.903-1.581c-1.054-0.526-2.634-0.526-3.688-1.054
					c-3.688-1.054-6.849-2.635-10.011-4.742c-1.054-1.054-2.107-1.58-2.634-3.161v3.161c0,1.054,0,4.742,0,4.742
					c0,2.107,1.054,4.215,2.634,5.269c5.796,4.215,12.645,6.85,19.494,7.376c4.742,0.527,9.484,1.054,14.226,1.054
					c6.85,0,13.699-0.526,20.548-2.107l0,0c3.688-1.054,7.376-2.107,10.537-4.215l0,0c3.688-2.107,5.269-4.741,5.269-7.376
					c0,0,0.527-7.376,0-8.43C417.516,426.238,415.936,427.819,414.355,428.872z"/>
			</g>
			<g>
				<path fill="#FFFFFF" d="M378.001,403.582c20.548,0,36.881-6.322,36.881-13.698c0,0,0.527-6.85,0.527-8.43
					c0-1.054,0-2.108-0.527-3.161c2.107-1.055,3.688-3.688,4.215-6.323c0,0,0.527-7.902,0-9.483
					c-1.054-8.957-20.021-14.226-37.408-14.226s-37.408,5.269-37.408,15.279c0,0.527,0.527,8.43,0.527,8.43
					c0,0.527,0,1.054,0.527,1.581c-2.634,1.58-4.215,4.215-4.742,7.376c0,0.527,0.527,8.43,0.527,8.43
					c0,2.107,1.054,4.215,3.161,5.269c5.796,4.216,12.645,6.85,19.494,7.377C368.518,403.056,373.259,403.582,378.001,403.582z
					 M382.216,352.476c20.021,0,33.72,5.796,33.72,11.064s-14.226,11.064-33.72,11.064s-33.72-5.796-33.72-11.064
					S362.195,352.476,382.216,352.476z M344.808,381.454c0.527-1.581,1.581-3.161,2.634-4.216c1.054,1.054,2.635,2.107,3.688,2.635
					c9.483,4.215,20.021,6.322,30.558,6.322c8.957,0,17.914-1.054,26.344-4.215c1.054-0.526,2.107-1.054,3.161-1.581
					c0,0.527,0,0.527,0,1.054c0,5.27-13.699,11.064-33.72,11.064S344.808,386.723,344.808,381.454z"/>
			</g>
			<g>
				<path fill="#FFFFFF" d="M366.937,432.033c4.742,0.527,9.484,1.054,14.226,1.054c6.85,0,13.699-0.526,20.548-2.107l0,0
					c3.688-1.054,7.376-2.107,10.538-4.215l0,0c1.054-0.527,1.581-1.054,2.107-1.581c1.054-1.054,2.107-2.107,2.634-3.688
					c0-0.527,0.527-1.054,0.527-2.107c0,0,0-7.377,0-8.431c-1.054,1.581-4.215,6.323-18.968,9.484
					c-6.322,1.054-12.645,1.58-18.967,1.58c-10.01,0-20.548-1.58-29.504-5.795c-1.581-1.054-3.162-2.108-4.742-3.161
					c-1.054-1.055-1.581-1.581-2.107-2.635v3.688v5.27c0,2.107,1.054,4.215,2.634,5.269
					C352.711,428.872,359.561,431.507,366.937,432.033z"/>
			</g>
			<g>
				<path fill="#FFFFFF" d="M418.043,394.625c-0.526-0.526-0.526-0.526-1.054-1.054c-0.527-0.526-1.054-0.526-1.581-1.054
					c-0.527,1.054-1.054,1.581-1.581,2.107c0.527,0,1.054,0.527,1.581,1.055c1.054,0.526,1.581,1.58,1.581,2.634
					s-0.527,2.107-1.054,2.635c-0.527,0.526-1.054,0.526-1.581,1.054c-0.527,0.526-1.581,1.054-2.107,1.054
					c0,0-2.107,1.054-3.161,1.58c0,0-2.107,1.054-3.161,1.054l-4.215,1.054c0,0-3.688,0.527-5.795,1.054l-5.795,0.527
					c-0.527,0-6.322,0.526-8.43,0.526c-4.215,0-7.903-0.526-11.591-1.054c-2.634-0.526-5.796-1.054-8.43-1.58
					c-3.161-0.527-5.795-1.581-8.957-2.635c-1.581-0.526-3.161-1.58-4.742-3.161c-1.054-1.054-2.108-2.634-2.635-3.688v4.742v4.742
					c0,2.107,1.054,4.215,3.161,5.269c5.796,4.215,12.645,6.85,19.495,7.376c4.742,0.527,9.483,1.054,14.225,1.054
					c6.85,0,13.699-0.526,20.548-2.107l0,0c3.688-1.054,7.376-2.107,10.537-4.215l0,0c1.054-0.527,1.581-1.054,2.107-1.581
					c1.054-1.054,2.108-2.107,2.635-3.688c0-0.527,0.527-1.054,0.527-2.107l0.527-7.903c0-0.526,0-1.054-0.527-2.107
					C418.57,395.679,418.043,395.153,418.043,394.625z"/>
			</g>
		</g>
		<g>
			<g>
				<path fill="#FFFFFF" d="M287.379,430.452c20.548,0,36.881-6.322,36.881-13.698c0,0,0.527-6.85,0.527-8.43
					c0-1.054,0-2.107-0.527-3.161c2.107-1.054,3.688-3.688,4.215-6.322c0,0,0.527-7.903,0-9.484
					c-0.527-9.483-19.494-14.226-36.881-14.226s-37.408,5.27-37.408,15.279c0,0.527,0.527,8.431,0.527,8.431
					c0,0.526,0,1.054,0.527,1.58c-2.634,1.581-4.215,4.215-4.742,7.376c0,0.527,0.527,8.431,0.527,8.431
					c0,2.107,1.054,4.215,2.634,5.269c5.795,4.215,12.645,6.849,19.494,7.376C277.896,429.926,282.638,430.452,287.379,430.452z
					 M291.594,378.82c20.021,0,33.72,5.796,33.72,11.064s-13.699,11.064-33.72,11.064s-33.72-5.27-33.72-10.538
					S271.573,378.82,291.594,378.82z M254.187,407.797c0.527-1.58,1.581-3.161,2.634-4.215c1.054,1.054,2.634,2.107,3.688,2.635
					c9.484,4.215,20.021,6.322,30.559,5.795c8.957,0,17.914-1.054,26.344-4.215c1.054-0.526,2.107-1.054,3.161-1.58
					c0,0.526,0,0.526,0,1.054c0,5.269-13.699,11.064-33.72,11.064S254.187,413.067,254.187,407.797L254.187,407.797z"/>
			</g>
			<g>
				<path fill="#FFFFFF" d="M327.421,421.496c-0.527-0.527-0.527-0.527-1.054-1.054c-0.527-0.527-1.054-0.527-1.581-1.054
					c-0.527,1.054-1.054,1.58-1.581,2.634c0.527,0,1.054,0.527,1.581,1.054c1.054,0.527,1.581,1.581,1.581,2.635
					s-0.527,2.107-1.054,2.634c-0.527,0.527-1.054,0.527-1.581,1.054l-2.107,1.054l-3.161,1.581c0,0-2.107,1.054-3.161,1.054
					c-1.054,0-3.162,1.054-4.215,1.054c-0.527,0-4.215,0.527-5.795,1.054c-0.527,0-4.215,0.527-5.795,0.527
					c-0.527,0-6.323,0.526-8.43,0.526c-4.215,0-7.903-0.526-11.591-1.054c-2.634-0.526-5.795-1.054-8.43-1.581
					c-3.161-0.526-5.795-1.58-8.957-2.634c-1.581-0.527-3.161-1.581-4.742-3.161c-1.054-1.054-2.107-2.635-2.634-3.688v4.742v4.215
					c0,2.107,1.054,4.215,3.161,5.269c5.795,4.215,12.645,6.85,19.494,7.376c4.742,0.527,9.484,1.054,14.226,1.054
					c6.849,0,14.226-0.526,20.548-2.107l0,0c3.688-1.054,7.376-2.107,10.538-4.215l0,0c1.054-0.526,1.581-1.054,2.107-1.58
					c1.054-1.054,2.107-2.107,2.634-3.688c0.527-0.526,1.054-1.581,1.054-2.107l0.527-7.903c0-0.526,0-1.054,0-2.107
					C328.475,422.023,327.948,421.496,327.421,421.496z"/>
			</g>
		</g>
		<g>
			<path fill="#FFFFFF" d="M288.96,261.855l26.871,34.246c0.527,0.527,0.527,1.054,0.527,1.581c0,1.054-0.527,1.054-1.581,1.054
				h-13.698v43.729c0,0.527-0.527,1.054-1.054,1.054l0,0h-24.236c-0.527,0-1.581-0.526-1.581-1.054l0,0v-43.729h-13.699
				c-1.054,0-1.581,0-1.581-1.054c0-0.527,0-1.054,0.527-1.581l25.817-34.246c0.527-0.527,1.054-1.054,2.107-1.054
				C287.906,260.801,288.433,261.327,288.96,261.855z"/>
		</g>
		<g>
			<path fill="#FFFFFF" d="M380.108,261.327l27.397,34.247c0.527,0.526,0.527,1.054,0.527,1.58c0,1.054-0.527,1.054-1.581,1.054
				h-13.699v18.44c0,0.527-0.527,1.054-1.581,1.054h-23.709c-0.527,0-1.581-0.526-1.581-1.054v-17.913h-13.698
				c-1.054,0-1.581,0-1.581-1.054c0-0.527,0-1.054,0.527-1.581l26.343-34.246C378.001,260.801,379.055,260.801,380.108,261.327
				L380.108,261.327L380.108,261.327z"/>
		</g>
		<g>
			<g>
				<path fill="#FFFFFF" d="M600.867,428.872c-2.634,1.581-5.269,2.635-8.43,3.688c-8.43,2.634-16.86,3.688-25.29,3.161
					c-4.215,0-8.43-0.527-12.645-1.054c-2.635-0.527-4.742-1.054-7.377-1.581l-3.688-1.054c-3.688-1.054-6.85-2.635-10.011-4.742
					c-1.054-1.054-2.107-1.58-2.634-3.161v3.161c0,1.054,0,4.742,0,4.742c0,2.107,1.053,4.215,3.161,5.269
					c5.795,4.215,12.645,6.85,20.021,7.376c4.742,0.527,9.484,1.054,14.226,1.054c6.85,0,13.698-0.526,20.548-2.107l0,0
					c3.688-1.054,7.376-2.107,10.537-4.215l0,0c3.688-2.107,5.27-4.741,5.27-7.376c0,0,0.526-7.376,0-8.43
					C603.502,426.238,602.448,427.819,600.867,428.872z"/>
			</g>
			<g>
				<path fill="#FFFFFF" d="M564.513,403.582c20.549,0,36.882-6.322,36.882-13.698c0,0,0.526-6.85,0.526-8.43
					c0-1.054-0.526-2.108-0.526-3.161c2.107-1.055,3.688-3.688,4.215-6.323c0,0,0.526-7.902,0-9.483
					c-1.581-8.957-20.021-14.226-37.935-14.226c-17.914,0-37.408,5.269-37.408,15.279c0,0.527,0.527,8.43,0.527,8.43
					c0,0.527,0,1.054,0.526,1.581c-2.635,1.58-4.215,4.215-4.742,7.376c0,0.527,0.527,8.43,0.527,8.43
					c0,2.107,1.054,4.215,3.161,5.269c5.796,4.216,12.645,6.85,20.021,7.377C554.503,403.056,559.244,403.582,564.513,403.582z
					 M568.201,352.476c20.021,0,33.72,5.796,33.72,11.064s-13.698,11.064-33.72,11.064c-20.021,0-33.72-5.796-33.72-11.064
					S548.707,352.476,568.201,352.476z M530.794,381.454c0.526-1.581,1.58-3.161,3.161-4.216c1.054,1.054,2.107,2.107,3.688,2.635
					c9.483,4.215,20.021,6.322,30.559,6.322c8.957,0,17.914-1.054,26.344-4.215c1.054-0.526,2.107-1.054,3.161-1.581
					c0,0.527,0,0.527,0,1.054c0,5.27-13.699,11.064-33.72,11.064C543.965,392.518,530.794,386.723,530.794,381.454z"/>
			</g>
			<g>
				<path fill="#FFFFFF" d="M553.449,432.033c4.741,0.527,9.483,1.054,14.226,1.054c6.849,0,13.698-0.526,20.548-2.107l0,0
					c3.688-1.054,7.376-2.107,10.537-4.215l0,0c1.054-0.527,1.581-1.054,2.107-1.581c1.054-1.054,2.107-2.107,2.635-3.688
					c0-0.527,0.526-1.054,0.526-2.107c0,0,0-7.377,0-8.431c-1.054,1.581-4.215,6.323-18.967,9.484
					c-6.323,1.054-12.646,1.58-18.968,1.58c-10.011,0-20.548-1.58-29.505-5.795c-1.58-1.054-3.161-2.108-4.741-3.161
					c-1.054-1.055-1.581-1.581-2.108-2.635v3.688v5.27c0,2.107,1.055,4.215,3.162,5.269
					C539.224,428.872,546.072,431.507,553.449,432.033z"/>
			</g>
			<g>
				<path fill="#FFFFFF" d="M604.556,394.625c-0.527-0.526-0.527-0.526-1.054-1.054c-0.527-0.526-1.054-0.526-1.581-1.054
					c-0.526,1.054-1.054,1.581-1.58,2.107c0.526,0,1.053,0.527,1.58,1.055c1.054,0.526,1.581,1.58,1.581,2.634
					s-0.527,2.107-1.054,2.635c-0.527,0.526-1.054,0.526-1.581,1.054c-0.526,0.526-1.581,1.054-2.107,1.054l-3.161,1.58
					c0,0-2.107,1.054-3.161,1.054l-4.215,1.054c-0.527,0-3.688,0.527-5.796,1.054l-5.796,0.527c-0.526,0-6.322,0.526-8.43,0.526
					c-3.688,0-7.903-0.526-11.591-1.054c-2.635-0.526-5.796-1.054-8.43-1.58c-3.162-0.527-5.796-1.581-8.957-2.635
					c-1.581-0.526-3.161-1.58-4.742-3.161c-1.054-1.054-2.107-2.634-3.161-3.688v4.742v4.742c0,2.107,1.054,4.215,3.161,5.269
					c5.796,4.215,12.645,6.85,19.494,7.376c4.742,0.527,9.484,1.054,14.226,1.054c6.85,0,13.698-0.526,20.548-2.107l0,0
					c3.688-1.054,7.376-2.107,10.537-4.215l0,0c1.055-0.527,2.108-1.054,3.162-1.581c1.054-1.054,2.107-2.107,2.634-3.688
					c0-0.527,0.527-1.054,0.527-2.107l0.526-7.903c0-0.526,0-1.054-0.526-2.107C605.082,395.679,605.082,395.153,604.556,394.625z"
					/>
			</g>
		</g>
		<g>
			<g>
				<path fill="#FFFFFF" d="M473.892,430.452c20.548,0,36.881-6.322,36.881-13.698c0,0,0.526-6.85,0.526-8.43
					c0-1.054,0-2.107-0.526-3.161c2.107-1.054,3.688-3.688,4.215-6.322c0,0,0.527-7.903,0-9.484
					c-1.054-9.483-19.494-14.226-37.408-14.226c-17.913,0-37.407,5.27-37.407,15.279c0,0.527,0.526,8.431,0.526,8.431
					c0,0.526,0,1.054,0.527,1.58c-2.635,1.581-4.742,4.215-4.742,7.376c0,0.527,0.527,8.431,0.527,8.431
					c0,2.107,1.054,4.215,2.634,5.269c5.796,4.215,12.646,6.849,20.021,7.376C463.881,429.926,468.623,430.452,473.892,430.452z
					 M477.579,378.82c20.021,0,33.72,5.796,33.72,11.064s-13.698,11.064-33.72,11.064c-20.021,0-33.72-5.27-33.72-10.538
					S457.559,378.82,477.579,378.82z M440.172,407.797c0.526-1.58,1.58-3.161,2.634-4.215c1.055,1.054,2.635,2.107,3.688,2.635
					c9.483,4.215,20.021,6.322,30.559,6.322c8.957,0,17.913-1.054,26.344-4.215c1.054-0.527,2.107-1.054,3.161-1.581
					c0,0.527,0,0.527,0,1.054c0,5.269-13.699,11.064-33.72,11.064C452.816,418.862,440.172,413.067,440.172,407.797z"/>
			</g>
			<g>
				<path fill="#FFFFFF" d="M513.934,421.496l-1.054-1.054c-0.527-0.527-1.054-0.527-1.581-1.054
					c-0.526,1.054-1.054,1.58-1.58,2.107c0.526,0,1.054,0.526,1.58,1.054c1.054,0.526,1.581,1.58,1.581,2.634
					s-0.527,2.107-1.581,2.635c-0.526,0.526-1.054,0.526-1.58,1.054l-2.107,1.054l-3.161,1.581c0,0-2.107,1.054-3.161,1.054
					s-3.161,1.054-4.215,1.054c0,0-3.688,0.526-5.796,1.054c-0.527,0-4.215,0.526-5.796,0.526c-0.526,0-6.322,0.527-8.43,0.527
					c-3.688,0-7.903-0.527-11.591-1.054c-2.635-0.527-5.796-1.054-8.431-1.581c-3.161-0.526-5.795-1.581-8.956-2.635
					c-3.161-1.58-5.796-3.688-7.377-6.849v4.741v4.216c0,2.107,1.054,4.215,2.635,5.269c5.796,4.215,12.645,6.849,20.021,7.376
					c4.741,0.526,9.483,1.054,14.225,1.054c6.85,0,14.226-0.527,20.549-2.107h0.526c3.688-1.054,7.376-2.107,10.537-4.215l0,0
					c1.054-0.527,1.581-1.054,2.107-1.581c1.054-1.054,2.108-2.107,2.635-3.688c0-0.527,0.526-1.055,0.526-2.108l0.527-7.902
					c0-0.527,0-1.054-0.527-2.107C514.46,422.023,513.934,421.496,513.934,421.496z"/>
			</g>
		</g>
		<g>
			<path fill="#FFFFFF" d="M474.945,261.855l27.397,34.246c0.526,0.527,0.526,1.054,0.526,1.581c0,1.054-0.526,1.054-1.58,1.054
				H487.59v43.729c0,0.527-0.526,1.054-1.58,1.054l0,0h-23.709c-0.527,0-1.581-0.526-1.581-1.054l0,0v-43.729h-13.698
				c-1.054,0-1.581,0-1.581-1.054c0-0.527,0-1.054,0.527-1.581l25.816-34.246c0.526-0.527,1.054-1.054,1.58-1.054
				C474.418,260.801,474.945,261.327,474.945,261.855z"/>
		</g>
		<g>
			<path fill="#FFFFFF" d="M566.621,261.327l26.87,34.247c0.526,0.526,0.526,1.054,0.526,1.58c0,1.054-0.526,1.054-1.58,1.054
				h-13.699v18.44c0,0.527-0.526,1.054-1.58,1.054h-23.709c-0.527,0-1.581-0.526-1.581-1.054v-17.913H538.17
				c-1.054,0-1.581,0-1.581-1.054c0-0.527,0-1.054,0.527-1.581l25.816-34.246c0.526-0.527,1.054-1.054,1.58-1.054
				C565.567,260.801,566.094,261.327,566.621,261.327z"/>
		</g>
	</g>
</g>
</svg>
