<?xml version="1.0" encoding="utf-8"?>
<!-- Generator: Adobe Illustrator 16.0.3, SVG Export Plug-In . SVG Version: 6.00 Build 0)  -->
<!DOCTYPE svg PUBLIC "-//W3C//DTD SVG 1.1//EN" "http://www.w3.org/Graphics/SVG/1.1/DTD/svg11.dtd" [
	<!ENTITY ns_extend "http://ns.adobe.com/Extensibility/1.0/">
	<!ENTITY ns_ai "http://ns.adobe.com/AdobeIllustrator/10.0/">
	<!ENTITY ns_graphs "http://ns.adobe.com/Graphs/1.0/">
	<!ENTITY ns_vars "http://ns.adobe.com/Variables/1.0/">
	<!ENTITY ns_imrep "http://ns.adobe.com/ImageReplacement/1.0/">
	<!ENTITY ns_sfw "http://ns.adobe.com/SaveForWeb/1.0/">
	<!ENTITY ns_custom "http://ns.adobe.com/GenericCustomNamespace/1.0/">
	<!ENTITY ns_adobe_xpath "http://ns.adobe.com/XPath/1.0/">
]>
<svg version="1.1" id="Layer_1" xmlns:x="&ns_extend;" xmlns:i="&ns_ai;" xmlns:graph="&ns_graphs;"
	 xmlns="http://www.w3.org/2000/svg" xmlns:xlink="http://www.w3.org/1999/xlink" x="0px" y="0px" width="285.542px"
	 height="285.542px" viewBox="284.078 72.289 285.542 285.542" enable-background="new 284.078 72.289 285.542 285.542"
	 xml:space="preserve">
<metadata>
	<sfw  xmlns="&ns_sfw;">
		<slices></slices>
		<sliceSourceBounds  width="285.542" height="285.542" y="142.669" x="283.578" bottomLeftOrigin="true"></sliceSourceBounds>
	</sfw>
</metadata>
<title>TARGET 1 B copy 7</title>
<g>
	<rect x="284.078" y="72.289" fill="#FD9D24" width="285.542" height="285.542"/>
</g>
<g>
	<g>
		<g>
			<g>
				<g>
					<path fill="#FFFFFF" d="M459.981,153.915h-71.084c-0.603,0-1.205,0.603-1.205,1.205v3.012c0,0.603,0.602,1.205,1.205,1.205
						h71.386c0.603,0,1.205-0.603,1.205-1.205v-3.012C461.488,154.518,460.886,153.915,459.981,153.915z"/>
				</g>
				<g>
					<path fill="#FFFFFF" d="M459.981,207.531h-71.084c-0.603,0-1.205,0.602-1.205,1.204v5.724c0,0.602,0.602,1.204,1.205,1.204
						h71.386c0.603,0,1.205-0.603,1.205-1.204v-5.724C461.488,208.132,460.886,207.531,459.981,207.531z"/>
				</g>
				<g>
					<path fill="#FFFFFF" d="M461.187,148.795c-3.915-16.867-18.675-29.217-36.747-29.217c-18.072,0-32.831,12.65-36.747,29.217
						c0,0,0,0.301,0,0.603l0,0c0,0.603,0.602,0.903,1.205,1.205l0,0l0,0h70.783h0.301h0.302c0.603,0,1.205-0.603,1.205-1.205
						L461.187,148.795z"/>
				</g>
				<g>
					<path fill="#FFFFFF" d="M457.873,163.253h-66.566c-0.602,0-1.205,0.603-1.205,1.205v38.554c0,0.603,0.603,1.205,1.205,1.205
						h66.566c0.603,0,1.205-0.603,1.205-1.205v-38.554C459.38,163.856,458.777,163.253,457.873,163.253z M411.488,199.096h-11.446
						v-30.723h11.446V199.096z M430.765,199.096h-11.445v-30.723h11.445V199.096z M450.042,199.096h-11.445v-30.723h11.445V199.096z
						"/>
				</g>
				<g>
					<path fill="#FFFFFF" d="M424.439,114.759v-13.855h3.313c0,0,3.313-0.301,5.723,1.506c2.41,1.808,4.217,3.313,8.133,3.313h5.12
						v13.554h-5.421c0,0-3.615,0-6.024-2.108c-1.205-0.903-2.711-2.108-6.928-2.409S424.439,114.759,424.439,114.759z"/>
				</g>
			</g>
		</g>
		<g>
			<rect x="330.163" y="193.373" fill="none" width="11.145" height="11.446"/>
			<path fill="#FFFFFF" d="M371.428,182.229h-50.603c-0.301,0-0.301,0.302-0.301,0.302v33.434c0,0.301,0.301,0.301,0.301,0.301
				h29.217v-22.289h12.048v22.289h9.337c0.301,0,0.301-0.301,0.301-0.301L371.428,182.229
				C371.729,182.229,371.428,182.229,371.428,182.229z M341.006,204.82h-11.145v-11.446h11.145V204.82z"/>
			<path fill="none" d="M317.512,179.518C317.211,179.518,317.211,179.518,317.512,179.518"/>
			<path fill="#FFFFFF" d="M346.428,153.615L346.428,153.615c-0.603-0.603-0.603-0.603-0.904-0.603s-0.602,0.301-0.602,0.301
				l-0.603,0.302l-27.108,25.301c-0.301,0.302-0.301,0.302,0.301,0.603h57.53c0.301,0,0.301,0,0.301-0.301v-0.302L346.428,153.615z"
				/>
		</g>
		<path fill="#FFFFFF" d="M522.633,207.229v8.434c0,0.302,0,0.302,0.301,0.302h3.916c0.301,0,0.301,0,0.301-0.302l0,0v-8.434
			c6.024-1.205,10.241-6.626,9.94-12.65c0-7.53-5.724-19.88-12.651-19.88s-12.349,12.35-12.349,19.88
			C511.789,200.904,516.308,206.325,522.633,207.229z"/>
		<path fill="#FFFFFF" d="M501.85,124.096h-1.808v-6.023c0.904-0.302,1.808-1.205,1.808-2.41c0-1.204-0.904-2.409-2.41-2.409
			c-1.204,0-2.409,0.903-2.409,2.409c0,0.904,0.603,1.808,1.807,2.41v6.023h-23.192c-0.301,0-0.603,0.302-0.603,0.603v90.663
			c0,0.301,0.302,0.603,0.603,0.603l0,0h26.506c0.302,0,0.603-0.302,0.603-0.603l0,0v-90.663
			C502.452,124.398,502.15,124.096,501.85,124.096z M486.187,205.422c0,0.301-0.301,0.301-0.301,0.301h-6.024
			c-0.301,0-0.301-0.301-0.301-0.301v-6.627c0-0.301,0.301-0.301,0.301-0.301h6.024c0.301,0,0.301,0.301,0.301,0.301V205.422z
			 M486.187,189.759c0,0.301-0.301,0.301-0.301,0.301h-6.024c-0.301,0-0.301-0.301-0.301-0.301v-6.627
			c0-0.301,0.301-0.301,0.301-0.301h6.024c0.301,0,0.301,0.301,0.301,0.301V189.759z M486.187,174.398
			c0,0.301-0.301,0.301-0.301,0.301h-6.024c-0.301,0-0.301-0.301-0.301-0.301v-6.627c0-0.301,0.301-0.301,0.301-0.301h6.024
			c0.301,0,0.301,0.301,0.301,0.301V174.398z M486.187,158.735c0,0.302-0.301,0.302-0.301,0.302h-6.024
			c-0.301,0-0.301-0.302-0.301-0.302v-6.626c0-0.302,0.301-0.302,0.301-0.302h6.024c0.301,0,0.301,0.302,0.301,0.302V158.735z
			 M486.187,143.373c0,0.302-0.301,0.302-0.301,0.302h-6.024c-0.301,0-0.301-0.302-0.301-0.302v-6.626
			c0-0.302,0.301-0.302,0.301-0.302h6.024c0.301,0,0.301,0.302,0.301,0.302V143.373z M497.934,205.422
			c0,0.301-0.301,0.301-0.301,0.301h-6.024c-0.301,0-0.301-0.301-0.301-0.301v-6.627c0-0.301,0.301-0.301,0.301-0.301h6.024
			c0.301,0,0.301,0.301,0.301,0.301V205.422z M497.934,189.759c0,0.301-0.301,0.301-0.301,0.301h-6.024
			c-0.301,0-0.301-0.301-0.301-0.301v-6.627c0-0.301,0.301-0.301,0.301-0.301h6.024c0.301,0,0.301,0.301,0.301,0.301V189.759z
			 M497.934,174.398c0,0.301-0.301,0.301-0.301,0.301h-6.024c-0.301,0-0.301-0.301-0.301-0.301v-6.627
			c0-0.301,0.301-0.301,0.301-0.301h6.024c0.301,0,0.301,0.301,0.301,0.301V174.398z M497.934,158.735
			c0,0.302-0.301,0.302-0.301,0.302h-6.024c-0.301,0-0.301-0.302-0.301-0.302v-6.626c0-0.302,0.301-0.302,0.301-0.302h6.024
			c0.301,0,0.301,0.302,0.301,0.302V158.735z M497.934,143.373c0,0.302-0.301,0.302-0.301,0.302h-6.024
			c-0.301,0-0.301-0.302-0.301-0.302v-6.626c0-0.302,0.301-0.302,0.301-0.302h6.024c0.301,0,0.301,0.302,0.301,0.302V143.373z"/>
	</g>
	<g>
		<g>
			<polygon fill="none" points="444.62,275.603 442.512,278.314 466.308,278.314 464.199,275.603 			"/>
			<path fill="#FFFFFF" d="M468.416,275c3.012-1.205,4.819-3.916,4.819-6.928l-1.808-25.302c0-4.217-3.313-7.53-7.53-7.53H444.62
				c-4.217,0-7.529,3.313-7.529,7.53l-1.808,25.302c0,3.313,2.108,6.023,4.819,6.928l-6.325,8.434h4.819l1.807-2.41h28.013
				l1.807,2.41h4.819L468.416,275z M441.308,242.47c0-0.603,0.602-1.205,1.204-1.205h23.796c0.602,0,1.204,0.603,1.204,1.205
				l0.904,10.843c0,0.603-0.302,1.205-0.904,1.205h-25.903c-0.603,0-0.903-0.603-0.903-1.205L441.308,242.47z M440.103,265.362
				c0-1.808,1.506-3.012,3.012-3.012s3.013,1.506,3.013,3.012c0,1.807-1.507,3.012-3.013,3.012S440.103,267.168,440.103,265.362z
				 M442.512,278.314l2.108-2.711h19.579l2.108,2.711H442.512z M465.403,268.675c-1.807,0-3.012-1.507-3.012-3.013
				c0-1.807,1.506-3.012,3.012-3.012c1.808,0,3.013,1.506,3.013,3.012C468.717,267.168,467.211,268.675,465.403,268.675z"/>
		</g>
		<g>
			<path fill="#FFFFFF" d="M426.247,242.168h-1.506h-1.506h-2.711l0,0c0-1.807,0.301-3.012-1.807-3.012h-31.325
				c-2.108,0-1.807,1.506-1.807,3.012l0,0h-2.711h-1.506h-1.808c-0.301,0-0.602,0.302-0.602,0.603V250
				c0,0.301,0.301,0.603,0.602,0.603h3.313c0.301,0,0.603-0.302,0.603-0.603v-4.819h1.807l-1.506,21.987v10.844h1.506l0,0v3.313
				c0,0.903,0.903,1.807,1.807,1.807h1.506c0.904,0,1.808-0.903,1.808-1.807v-3.313l0,0h25l0,0v3.313
				c0,0.903,0.903,1.807,1.807,1.807h1.506c0.904,0,1.807-0.903,1.807-1.807v-3.313l0,0h1.506v-10.844l-1.506-21.987h1.807V250
				c0,0.301,0.302,0.603,0.603,0.603h3.313c0.301,0,0.603-0.302,0.603-0.603v-7.229
				C426.548,242.168,426.247,242.168,426.247,242.168z M389.5,244.277c0-0.903,0.904-1.506,1.807-1.506H414.5
				c0.904,0,1.807,0.603,1.807,1.506l1.807,17.169c0,0.904-0.903,1.506-1.807,1.506h-26.506c-0.904,0-1.807-0.602-1.807-1.506
				L389.5,244.277z M390.705,274.096c-1.808,0-3.012-1.204-3.012-3.012c0-1.807,1.205-3.012,3.012-3.012
				c1.807,0,3.012,1.205,3.012,3.012C393.717,272.892,392.211,274.096,390.705,274.096z M409.078,274.096h-12.349v-1.807h12.349
				V274.096z M409.078,270.181h-12.349v-1.808h12.349V270.181z M415.103,274.096c-1.808,0-3.012-1.204-3.012-3.012
				c0-1.807,1.205-3.012,3.012-3.012c1.807,0,3.012,1.205,3.012,3.012C418.114,272.892,416.91,274.096,415.103,274.096z"/>
		</g>
	</g>
	<g>
		<rect x="458.777" y="312.349" fill="#FFFFFF" width="7.229" height="6.024"/>
		<rect x="473.235" y="312.349" fill="#FFFFFF" width="7.229" height="6.024"/>
		<rect x="444.019" y="312.349" fill="#FFFFFF" width="7.229" height="6.024"/>
		<rect x="487.994" y="312.349" fill="#FFFFFF" width="7.229" height="6.024"/>
		<rect x="502.452" y="312.349" fill="#FFFFFF" width="7.229" height="6.024"/>
		<circle fill="#FD9D24" cx="327.452" cy="315.361" r="6.024"/>
		<path fill="#FD9D24" d="M432.873,315.362c0-3.313-2.71-6.024-6.023-6.024s-6.024,2.711-6.024,6.024
			c0,3.313,2.711,6.023,6.024,6.023C430.163,321.084,432.873,318.373,432.873,315.362z"/>
		<path fill="#FFFFFF" d="M426.85,303.012c-5.723,0-10.542,3.916-11.747,9.337h-75.904c-1.205-5.12-6.024-9.337-11.747-9.337
			c-6.626,0-12.349,5.422-12.349,12.35c0,6.626,5.421,12.349,12.349,12.349c5.723,0,10.542-3.915,11.747-9.337h75.904
			c1.205,5.12,6.024,9.337,11.747,9.337c6.626,0,12.35-5.421,12.35-12.349S433.777,303.012,426.85,303.012z M327.452,321.084
			c-3.313,0-6.024-2.711-6.024-6.024s2.711-6.024,6.024-6.024c3.313,0,6.024,2.711,6.024,6.024S330.765,321.084,327.452,321.084z
			 M426.85,321.084c-3.313,0-6.024-2.711-6.024-6.024s2.711-6.024,6.024-6.024s6.023,2.711,6.023,6.024
			S430.163,321.084,426.85,321.084z"/>
		<circle fill="#FD9D24" cx="526.548" cy="315.361" r="6.024"/>
		<path fill="#FFFFFF" d="M526.548,303.012c-6.626,0-12.349,5.422-12.349,12.35c0,6.626,5.421,12.349,12.349,12.349
			c6.627,0,12.35-5.421,12.35-12.349C538.597,308.434,533.175,303.012,526.548,303.012z M526.548,321.084
			c-3.313,0-6.023-2.711-6.023-6.024s2.711-6.024,6.023-6.024c3.313,0,6.024,2.711,6.024,6.024S529.861,321.084,526.548,321.084z"/>
	</g>
</g>
</svg>
