<?xml version="1.0" encoding="utf-8"?>
<!-- Generator: Adobe Illustrator 16.0.3, SVG Export Plug-In . SVG Version: 6.00 Build 0)  -->
<!DOCTYPE svg PUBLIC "-//W3C//DTD SVG 1.1//EN" "http://www.w3.org/Graphics/SVG/1.1/DTD/svg11.dtd" [
	<!ENTITY ns_extend "http://ns.adobe.com/Extensibility/1.0/">
	<!ENTITY ns_ai "http://ns.adobe.com/AdobeIllustrator/10.0/">
	<!ENTITY ns_graphs "http://ns.adobe.com/Graphs/1.0/">
	<!ENTITY ns_vars "http://ns.adobe.com/Variables/1.0/">
	<!ENTITY ns_imrep "http://ns.adobe.com/ImageReplacement/1.0/">
	<!ENTITY ns_sfw "http://ns.adobe.com/SaveForWeb/1.0/">
	<!ENTITY ns_custom "http://ns.adobe.com/GenericCustomNamespace/1.0/">
	<!ENTITY ns_adobe_xpath "http://ns.adobe.com/XPath/1.0/">
]>
<svg version="1.1" id="Layer_1" xmlns:x="&ns_extend;" xmlns:i="&ns_ai;" xmlns:graph="&ns_graphs;"
	 xmlns="http://www.w3.org/2000/svg" xmlns:xlink="http://www.w3.org/1999/xlink" x="0px" y="0px" width="301.719px"
	 height="301.719px" viewBox="275.981 76.384 301.719 301.719" enable-background="new 275.981 76.384 301.719 301.719"
	 xml:space="preserve">
<metadata>
	<sfw  xmlns="&ns_sfw;">
		<slices></slices>
		<sliceSourceBounds  width="301.719" height="301.719" y="122.397" x="275.481" bottomLeftOrigin="true"></sliceSourceBounds>
	</sfw>
</metadata>
<title>Artboard 23</title>
<g id="TARGETS">
	<g>
		<rect x="275.981" y="76.384" fill="#FD6925" width="301.719" height="301.719"/>
	</g>
	<g>
		<g>
			<g>
				<g>
					<path fill="#FFFFFF" d="M524.231,190.961c0,4.138,3.183,7.32,7.32,7.32c4.137,0,7.319-3.183,7.319-7.32s-3.183-7.32-7.319-7.32
						l0,0C527.732,183.641,524.231,186.823,524.231,190.961z"/>
				</g>
				<g>
					<path fill="#FFFFFF" d="M546.828,207.511c0,0-2.228-5.729-7.002-5.729h-15.595c-4.774,0-7.002,5.729-7.002,5.729l-6.684,20.051
						c0,0-0.955,3.819,1.909,4.456s4.138-2.546,4.138-2.546l5.092-16.868c0,0,0.318-1.273,1.273-0.955s0.637,1.591,0.637,1.591
						l-8.594,31.19h7.957v22.279c0.318,2.228,2.228,3.819,4.138,3.501c1.909-0.318,3.501-1.592,3.501-3.501V244.43h2.228v22.279
						c0,2.228,1.592,3.819,3.819,3.819s3.819-1.592,3.819-3.819V244.43h8.274l-8.593-31.19c0,0-0.318-1.272,0.637-1.591
						c0.954-0.318,1.272,0.955,1.272,0.955l5.093,16.868c0,0,0.955,3.501,4.138,2.546s1.909-4.456,1.909-4.456L546.828,207.511z"/>
				</g>
			</g>
			<g>
				<g>
					<path fill="#FFFFFF" d="M474.899,188.415c0,4.137,3.501,7.638,7.639,7.638s7.639-3.5,7.639-7.638s-3.501-7.639-7.639-7.639
						C478.082,180.777,474.899,183.959,474.899,188.415L474.899,188.415z"/>
				</g>
				<g>
					<path fill="#FFFFFF" d="M491.449,198.918h-17.823c-5.41,0.636-9.229,4.773-9.229,10.185v21.323
						c0.318,1.592,1.592,2.865,3.183,2.547c1.273,0,2.546-1.273,2.546-2.547v-18.141c0-0.637,0.318-1.592,1.592-1.592
						s0.955,0.955,0.955,1.592v54.742c0,2.228,1.909,4.138,4.138,4.138c2.228,0,4.137-1.91,4.137-4.138v-31.509
						c0-0.637,0.318-1.273,0.955-1.273l0,0l0,0c0.637,0,1.273,0.318,1.273,0.955c0,0,0,0,0,0.318v31.509
						c0.318,2.228,2.228,4.138,4.773,3.819c2.229-0.318,3.819-1.91,3.819-3.819v-55.061c0-0.637,0.318-1.592,0.955-1.592
						s1.272,0.955,1.272,1.592v18.142c0.318,1.591,1.592,2.864,3.184,2.546c1.272,0,2.546-1.273,2.546-2.546v-21.324
						C500.679,204.01,496.542,199.554,491.449,198.918z"/>
				</g>
			</g>
		</g>
		<g>
			<path fill="#FFFFFF" d="M507.045,309.675l-9.23-6.684c-0.636-0.637-1.909-0.637-2.546,0l0,0l0,0
				c-27.053,34.373-75.111,39.783-110.121,13.686c-0.955-0.637-2.228-1.591-3.183-2.546l9.867-6.684
				c0.955-0.637-0.318-1.273-0.318-1.273l-35.01-16.231c-1.273-0.637-1.273,0-1.273,0.637v0.318l0,0l1.273,39.146
				c0,0.318,0.318,1.273,1.273,0.637l0,0l11.14-7.32c2.228,2.228,4.774,4.138,7.002,5.729c42.011,31.19,99.3,24.507,131.445-16.231
				l0.317-0.318C507.999,311.903,507.999,310.63,507.045,309.675C507.045,309.993,507.045,309.993,507.045,309.675z"/>
		</g>
		<g>
			<path fill="#FFFFFF" d="M352.684,147.359l9.23,6.684c0.637,0.637,1.91,0.637,2.546-0.318c0,0,0,0,0-0.318l0,0
				c26.098-35.01,74.157-41.375,109.802-15.913c0.955,0.636,2.229,1.591,3.183,2.546l-9.548,7.002
				c-0.955,0.637,0.637,1.591,0.637,1.591l35.328,15.277c0.954,0.637,1.272-0.318,1.272-0.637v-0.318l0,0l-2.228-39.146
				c0-0.318-0.318-1.273-1.273-0.637l0,0l-10.821,7.639c-2.228-1.91-4.773-3.819-7.319-5.729
				c-42.648-30.235-99.937-22.597-131.127,18.778l-0.318,0.318C351.411,145.448,351.411,146.722,352.684,147.359
				C352.366,147.359,352.366,147.359,352.684,147.359z"/>
		</g>
		<g>
			<g>
				<path fill="#FFFFFF" d="M346.956,183.323c-23.87,0-43.285,19.415-43.285,42.967c0,23.87,19.415,43.284,42.966,43.284
					s43.285-19.414,43.285-42.966l0,0C389.922,202.738,370.826,183.323,346.956,183.323z M385.466,219.606
					c0,0.636,0,0.954-0.318,1.272c-0.318,0.318-0.636,0.637-1.273,0.637h-0.318c-0.318,0-0.636,0-0.955-0.318
					s-0.637-0.637-0.637-1.273c0-0.636,0-0.954,0.318-1.272s0.637-0.637,1.273-0.637
					C384.511,218.014,385.466,218.651,385.466,219.606L385.466,219.606z M383.875,212.922c0.318,0.954,0,1.909-0.955,2.228l0,0
					c-0.318,0-0.318,0-0.637,0s-0.637,0-0.637-0.318c-0.318-0.318-0.636-0.637-0.955-0.955s-0.318-0.954,0-1.272
					s0.637-0.637,0.955-0.955C382.283,211.33,383.556,211.967,383.875,212.922L383.875,212.922L383.875,212.922z M377.509,207.193
					c0.318-0.955,1.273-1.591,2.228-1.272c0.955,0.317,1.591,1.272,1.273,2.228c0,0.637-0.318,0.955-0.955,1.273
					c-0.318,0.317-0.637,0.317-0.955,0.317h-0.637c-0.636,0-0.955-0.317-1.273-0.954
					C377.509,208.148,377.191,207.829,377.509,207.193L377.509,207.193z M364.142,193.189L364.142,193.189
					c0.636-0.954,1.91-0.954,2.546-0.318c0.318,0.318,0.318,0.318,0.637,0.637c0,0.318,0,0.955-0.318,1.273
					s-0.637,0.637-1.273,0.955h-0.318c-0.318,0-0.637,0-0.955-0.318C363.824,195.099,363.505,193.825,364.142,193.189
					C363.824,192.87,363.824,192.87,364.142,193.189L364.142,193.189z M360.323,221.515c-0.318,0-0.637-0.318-0.637-0.637v-2.546
					h6.684v2.546c0,0.318-0.318,0.637-0.636,0.637l0,0v15.913h-5.411V221.515z M347.274,216.423h-20.688v-1.273h41.375v1.273
					H347.274z M344.409,221.515c-0.318,0-0.636-0.318-0.636-0.637v-2.546h6.684v2.546c0,0.318-0.318,0.637-0.637,0.637l0,0v15.913
					h-5.092L344.409,221.515L344.409,221.515z M328.814,221.515c-0.318,0-0.636-0.318-0.636-0.637v-2.546h6.684v2.546
					c0,0.318-0.318,0.637-0.637,0.637l0,0v15.913h-5.092L328.814,221.515L328.814,221.515z M347.274,213.558h-22.279l-0.955-0.954
					c-0.318-0.318-0.318-0.637,0-0.955l0,0l22.916-8.594l22.915,8.594c0.318,0.318,0.318,0.637,0,0.955l0,0l-0.955,0.954H347.274z
					 M358.095,190.324c0.318-0.955,1.273-1.591,2.228-0.955c0.318,0.318,0.955,0.637,0.955,0.955c0.318,0.318,0.318,0.955,0,1.592
					c-0.318,0.318-0.636,0.954-0.955,0.954s-0.637,0.318-0.637,0.318c-0.318,0-0.318,0-0.636,0
					c-0.318-0.318-0.955-0.637-0.955-0.954C357.776,191.598,357.776,190.961,358.095,190.324L358.095,190.324z M352.366,187.779
					c0.318-0.318,0.955-0.318,1.273-0.318c0.955,0.318,1.591,1.273,1.591,2.228c-0.318,0.955-0.955,1.592-1.91,1.592h-0.318
					c-0.318,0-0.955-0.318-1.273-0.637s-0.318-0.955-0.318-1.273C351.729,188.734,352.048,188.415,352.366,187.779L352.366,187.779z
					 M346.956,186.823c0.955,0,1.91,0.955,1.91,1.91l0,0c0,0.954-0.955,1.909-1.91,1.909c-0.955,0-1.91-0.955-1.91-1.909l0,0
					C345.046,187.779,346,187.142,346.956,186.823L346.956,186.823z M338.999,188.415c0.637-0.955,1.591-0.955,2.546-0.637
					c0.318,0.318,0.637,0.637,0.637,1.273c0,0.636,0,0.954-0.318,1.272s-0.637,0.637-1.273,0.637h-0.318
					c-0.318,0-0.637,0-0.955-0.318s-0.636-0.637-0.636-1.273C338.362,189.369,338.681,188.734,338.999,188.415L338.999,188.415z
					 M332.633,190.324c0.318-0.318,0.637-0.955,0.955-0.955c0.318-0.317,0.955-0.317,1.273,0c0.318,0.318,0.955,0.637,0.955,0.955
					c0.318,0.318,0.318,0.955,0,1.592c-0.318,0.318-0.636,0.636-0.955,0.954c-0.318,0-0.318,0-0.637,0s-0.636,0-0.636-0.318
					c-0.318-0.317-0.637-0.636-0.955-0.954S332.315,190.961,332.633,190.324L332.633,190.324z M327.223,192.235
					c0.318-0.318,0.955-0.318,1.273-0.318c0.636,0,0.955,0.318,1.273,0.954c0.636,0.955,0.318,1.91-0.637,2.547
					c-0.318,0.318-0.636,0.318-0.955,0.318c-0.955,0-1.91-0.637-1.91-1.91C326.268,193.189,326.586,192.552,327.223,192.235z
					 M321.813,196.053c0.318-0.317,0.955-0.317,1.273-0.317c0.636,0,0.955,0.317,1.273,0.636c0.637,0.637,0.637,1.91-0.318,2.547
					c-0.318,0.318-0.636,0.318-1.273,0.318s-0.955-0.318-1.591-0.637C320.857,197.963,320.857,197.008,321.813,196.053
					L321.813,196.053z M312.901,206.874c0.636-0.954,1.591-1.272,2.546-0.636c0.955,0.636,1.273,1.591,0.637,2.546l0,0
					c-0.318,0.637-0.955,0.955-1.591,0.955c-0.318,0-0.637,0-0.955-0.318C312.583,208.784,312.264,207.829,312.901,206.874z
					 M310.036,213.24c0.318-0.317,0.637-0.954,0.955-0.954c0.318-0.318,0.955-0.318,1.273,0s0.955,0.637,0.955,0.954
					c0.318,0.318,0.318,0.955,0,1.273c-0.318,0.637-0.955,1.273-1.909,1.273c-0.318,0-0.318,0-0.637,0
					C310.036,215.468,309.4,214.513,310.036,213.24C309.718,213.24,310.036,213.24,310.036,213.24L310.036,213.24z M310.354,218.332
					c0.637,0,0.955,0.318,1.273,0.637c0.318,0.318,0.318,0.954,0.318,1.272c0,0.637-0.318,0.955-0.636,1.273
					c-0.318,0.318-0.637,0.318-0.955,0.318h-0.318c-0.955-0.318-1.591-1.273-1.591-2.228
					C308.126,218.969,309.082,218.014,310.354,218.332C310.036,218.014,310.354,218.014,310.354,218.332L310.354,218.332z
					 M307.49,226.608c0-0.637,0.318-0.955,0.636-1.273c0.318-0.318,0.955-0.637,1.273-0.637l0,0c0.636,0,0.955,0.318,1.273,0.637
					s0.637,0.955,0.637,1.273c0,0.954-0.955,1.909-1.91,1.909l0,0C308.445,228.517,307.49,227.88,307.49,226.608L307.49,226.608
					L307.49,226.608z M308.126,233.61c0-0.955,0.637-1.91,1.591-2.229c0.955,0,1.91,0.637,2.228,1.592
					c0.318,0.954-0.318,1.909-1.591,2.228l0,0h-0.318C309.082,234.882,308.126,234.245,308.126,233.61L308.126,233.61z
					 M311.627,241.247c-0.636,0-1.591-0.637-1.91-1.272c-0.318-0.955,0-1.91,0.955-2.547c0.955-0.318,1.91,0,2.546,0.955
					c0.318,0.955,0,1.91-0.955,2.546l0,0C312.264,241.247,311.946,241.247,311.627,241.247L311.627,241.247z M316.402,245.703
					c0,0.318-0.318,0.955-0.955,0.955c-0.318,0.318-0.636,0.318-0.955,0.318c-0.637,0-1.273-0.318-1.591-0.955
					c-0.637-0.955-0.318-1.91,0.318-2.546c0.955-0.637,1.91-0.318,2.546,0.318v0.317
					C316.402,244.748,316.402,245.067,316.402,245.703z M317.038,201.146c0.637-0.637,1.91-0.955,2.546-0.318l0,0
					c0.955,0.637,0.955,1.91,0.318,2.546c0,0,0,0-0.318,0.318s-0.955,0.637-1.591,0.637c-0.318,0-0.955-0.318-1.273-0.318
					C316.083,203.373,316.083,202.101,317.038,201.146C316.72,201.146,316.72,201.146,317.038,201.146L317.038,201.146z
					 M319.584,251.75c-0.318,0.318-0.637,0.318-1.273,0.318c-0.955,0-1.91-0.955-1.91-1.909c0-0.318,0.318-0.955,0.636-1.273
					s0.955-0.318,1.273-0.318c0.636,0,0.955,0.318,1.273,0.637C320.539,250.159,320.221,251.114,319.584,251.75z M324.358,256.206
					c-0.318,0.318-0.955,0.637-1.591,0.637c-0.318,0-0.955-0.318-1.273-0.318c-0.318-0.318-0.637-0.637-0.637-1.273
					s0-0.955,0.318-1.272c0.318-0.318,0.637-0.637,1.273-0.637c0.637,0,0.955,0,1.273,0.318
					C324.995,254.296,324.995,255.57,324.358,256.206z M324.995,241.884h1.591v-2.546c0,0,0-0.318,0.318-0.318h41.057
					c0,0,0.318,0,0.318,0.318v2.546h1.591v2.546h-44.558L324.995,241.884z M329.769,259.707c-0.318,0.637-0.955,0.955-1.591,0.955
					c-0.318,0-0.637,0-0.955-0.318s-0.636-0.637-0.955-1.273c0-0.318,0-0.955,0-1.273c0.318-0.317,0.636-0.636,1.273-0.954
					c0.318,0,0.955,0,1.273,0.318C330.087,257.797,330.087,258.752,329.769,259.707L329.769,259.707z M335.816,262.253
					c-0.318,0.637-0.955,1.273-1.591,1.273c-0.318,0-0.318,0-0.636,0c-0.955-0.318-1.591-1.273-1.273-2.546
					c0.318-0.955,1.273-1.592,2.546-1.273C335.816,260.344,336.134,261.298,335.816,262.253L335.816,262.253L335.816,262.253z
					 M340.272,265.117h-0.318c-0.955-0.318-1.591-1.272-1.591-2.228l0,0c0.318-0.955,1.273-1.592,2.228-1.592
					c0.955,0,1.91,0.955,1.592,1.91C342.182,264.481,341.545,265.436,340.272,265.117L340.272,265.117z M346.637,265.754
					c-0.955,0-1.91-0.955-1.591-1.909c0-0.955,0.955-1.91,1.91-1.91c0.955,0,1.91,0.955,1.91,1.91l0,0
					C348.865,264.799,347.91,265.754,346.637,265.754L346.637,265.754L346.637,265.754z M354.912,264.481
					c-0.318,0.318-0.637,0.637-1.273,0.637h-0.318c-0.955,0-1.91-0.637-1.91-1.591c0-0.955,0.637-1.91,1.591-1.91
					c0.637,0,0.955,0,1.273,0.318c0.318,0.318,0.637,0.637,0.637,1.273C355.23,263.527,355.23,263.845,354.912,264.481
					L354.912,264.481z M361.277,262.572c-0.318,0.318-0.636,0.637-0.955,0.955s-0.955,0.318-1.273,0s-0.637-0.637-0.955-0.955
					s-0.318-0.955,0-1.273c0.318-0.317,0.637-0.636,0.955-0.954c0.955-0.318,1.91,0,2.546,0.954
					C361.277,261.616,361.596,261.935,361.277,262.572L361.277,262.572z M366.37,260.662c-0.318,0.318-0.636,0.318-0.955,0.318
					h-0.318c-0.636,0-0.955-0.318-1.273-0.955c-0.637-0.955-0.318-1.91,0.637-2.546l0,0c0.318-0.318,0.955-0.318,1.273-0.318
					c0.637,0,0.955,0.318,1.591,0.636c0.636,0.955,0.318,1.91-0.637,2.547C366.688,260.344,366.688,260.344,366.37,260.662
					L366.37,260.662z M372.099,256.525c-0.318,0.318-0.637,0.318-1.273,0.318c-0.637,0-0.955-0.318-1.591-0.637
					c-0.318-0.318-0.318-0.955-0.318-1.273c0-0.637,0.318-0.954,0.637-1.272c0.318-0.318,0.955-0.318,1.273-0.318
					c0.636,0,0.955,0.318,1.273,0.637C372.735,254.615,372.735,255.888,372.099,256.525L372.099,256.525z M372.099,198.918
					c-0.318,0.318-0.637,0.636-1.273,0.636l0,0c-0.318,0-0.955,0-1.273-0.317c-0.318-0.318-0.637-0.637-0.637-1.273
					s0-0.955,0.318-1.273c0.636-0.637,1.91-0.954,2.546-0.318l0,0C372.735,197.008,373.054,198.281,372.099,198.918L372.099,198.918
					z M376.873,251.75c-0.318,0.318-0.636,0.637-1.273,0.637l0,0c-0.318,0-0.955,0-1.273-0.318
					c-0.637-0.637-0.955-1.909-0.318-2.546l0,0c0.318-0.318,0.637-0.637,1.273-0.637c0.637,0,0.955,0,1.273,0.318
					c0.318,0.318,0.636,0.637,0.636,1.273C377.509,250.795,377.191,251.432,376.873,251.75z M376.873,203.692
					c-0.318,0.318-0.636,0.318-1.273,0.318l0,0c-0.637,0-0.955-0.318-1.273-0.637c-0.637-0.636-0.637-1.909,0.318-2.546l0,0
					c0.636-0.637,1.909-0.637,2.546,0.318l0,0c0.318,0.318,0.318,0.955,0.318,1.273
					C377.509,203.055,377.191,203.373,376.873,203.692z M381.01,246.022c-0.318,0.637-0.955,0.955-1.591,0.955
					c-0.318,0-0.637,0-0.955-0.318c-0.318-0.318-0.636-0.637-0.955-0.955c0-0.637,0-0.955,0.318-1.273s0.636-0.636,1.273-0.954
					c0.318,0,0.955,0,1.273,0.318C381.329,244.112,381.646,245.067,381.01,246.022L381.01,246.022L381.01,246.022z M383.875,239.656
					c-0.318,0.637-0.955,1.272-1.591,1.272h-0.637c-0.318-0.318-0.955-0.636-0.955-0.954c-0.318-0.318-0.318-0.955,0-1.273
					s0.637-0.955,0.955-0.955c0.318-0.318,0.955-0.318,1.273,0C383.875,237.746,384.193,239.02,383.875,239.656
					C383.875,239.975,383.875,239.975,383.875,239.656L383.875,239.656z M384.83,234.245c-0.318,0.318-0.637,0.318-0.955,0.318
					h-0.318c-0.955-0.318-1.591-1.272-1.591-2.228c0.318-0.955,1.273-1.592,2.228-1.592c0.955,0.318,1.591,1.273,1.591,2.229
					C385.784,233.61,385.466,234.245,384.83,234.245L384.83,234.245z M384.511,227.88c-0.955,0-1.91-0.955-1.91-1.909
					c0-0.955,0.955-1.91,1.91-1.91c0.955,0,1.91,0.955,1.91,1.91l0,0C386.421,227.243,385.784,228.198,384.511,227.88
					C384.511,228.198,384.511,228.198,384.511,227.88L384.511,227.88z"/>
			</g>
			<g>
				<path fill="#FFFFFF" d="M346.956,177.276c-27.053,0-49.332,21.961-49.332,49.014s21.96,49.331,49.013,49.331
					s49.332-21.96,49.332-49.013l0,0C395.969,199.237,374.008,177.276,346.956,177.276z M346.956,271.801
					c-25.143,0-45.513-20.369-45.513-45.512c0-25.144,20.37-45.513,45.513-45.513s45.512,20.369,45.512,45.513l0,0
					C392.149,251.432,372.099,271.801,346.956,271.801z"/>
			</g>
		</g>
	</g>
</g>
</svg>
