<?xml version="1.0" encoding="utf-8"?>
<!-- Generator: Adobe Illustrator 16.0.3, SVG Export Plug-In . SVG Version: 6.00 Build 0)  -->
<!DOCTYPE svg PUBLIC "-//W3C//DTD SVG 1.1//EN" "http://www.w3.org/Graphics/SVG/1.1/DTD/svg11.dtd" [
	<!ENTITY ns_extend "http://ns.adobe.com/Extensibility/1.0/">
	<!ENTITY ns_ai "http://ns.adobe.com/AdobeIllustrator/10.0/">
	<!ENTITY ns_graphs "http://ns.adobe.com/Graphs/1.0/">
	<!ENTITY ns_vars "http://ns.adobe.com/Variables/1.0/">
	<!ENTITY ns_imrep "http://ns.adobe.com/ImageReplacement/1.0/">
	<!ENTITY ns_sfw "http://ns.adobe.com/SaveForWeb/1.0/">
	<!ENTITY ns_custom "http://ns.adobe.com/GenericCustomNamespace/1.0/">
	<!ENTITY ns_adobe_xpath "http://ns.adobe.com/XPath/1.0/">
]>
<svg version="1.1" id="Layer_1" xmlns:x="&ns_extend;" xmlns:i="&ns_ai;" xmlns:graph="&ns_graphs;"
	 xmlns="http://www.w3.org/2000/svg" xmlns:xlink="http://www.w3.org/1999/xlink" x="0px" y="0px" width="285.37px"
	 height="285.37px" viewBox="284.165 71.945 285.37 285.37" enable-background="new 284.165 71.945 285.37 285.37"
	 xml:space="preserve">
<metadata>
	<sfw  xmlns="&ns_sfw;">
		<slices></slices>
		<sliceSourceBounds  width="285.37" height="285.37" y="143.186" x="283.665" bottomLeftOrigin="true"></sliceSourceBounds>
	</sfw>
</metadata>
<title>TARGET 1 B copy 7</title>
<g id="TARGETS">
	<g>
		<rect x="284.165" y="71.945" fill="#BF8B2E" width="285.37" height="285.37"/>
	</g>
	<g>
		<g>
			<path fill="#FFFFFF" d="M411.196,197.471c0.602,0.603,1.806,0.603,2.408,0c0.301-0.301,0.301-0.602,0.301-1.204l4.816-28.897
				v-0.302c0-0.602-0.301-0.902-0.602-1.204c-0.301-0.301-0.903-0.602-1.204-0.602l0,0l-28.296,7.826h-0.602
				c-0.301,0-0.602,0.302-0.903,0.603c-0.301,0.301-0.602,0.903-0.602,1.204c0,0.602,0.301,0.903,0.602,1.204l5.72,5.418
				c-2.709,1.807-5.72,3.011-9.031,3.612c-2.408,0.603-5.118,0.603-7.526,0.603c-9.332,0.301-18.061-3.913-24.082-10.837
				l0.301-0.301c-4.816-6.322-6.623-11.74-6.623-21.674c0-12.342,3.612-21.373,10.837-27.093c6.021-4.515,13.546-6.923,21.072-6.923
				c1.204,0,2.709,0,3.913,0.301h0.602c9.332,2.408,21.975,5.117,39.435,40.337c9.331,18.664,20.771,30.704,35.521,37.026
				c6.924,3.311,14.75,5.117,22.275,5.117c5.419,0,10.536-0.903,15.653-2.709c8.429-3.312,28.296-14.148,28.296-46.358
				c0-21.673-9.03-33.112-16.856-39.133c-9.031-6.622-19.868-10.234-31.307-10.234c-2.408,0-5.117,0.301-7.525,0.602h-0.603
				c-7.525,1.807-19.867,4.816-34.316,22.577l-0.301,0.602c-0.302,0.302-0.302,0.603-0.302,1.204c0,0.302,0,0.603,0.302,0.903
				l0.301,0.603c2.408,3.913,4.516,7.525,6.021,10.234c0.602,0.903,1.505,1.204,2.709,0.903c0.301,0,0.301-0.301,0.301-0.301
				l0.302-0.302c12.342-17.158,22.275-19.566,28.597-21.071l0.903-0.301c1.204-0.302,2.709-0.302,3.913-0.302
				c7.827,0,15.353,2.408,21.674,6.924c7.225,5.72,10.837,14.75,10.837,27.092c0,20.47-9.934,28.598-18.362,31.608
				c-3.312,1.204-6.623,1.806-10.235,1.806c-5.418,0-10.535-1.204-15.352-3.612l-0.302,0.301
				c-7.225-3.01-18.062-9.633-27.995-30.103c-21.071-41.541-38.531-45.454-49.97-48.163h-0.602
				c-2.408-0.603-4.816-0.603-7.525-0.603c-11.138,0-21.975,3.312-30.705,10.235c-7.525,6.021-16.556,17.76-16.556,39.133
				c0,12.944,2.709,21.674,9.633,31.006c9.031,11.138,22.276,17.459,36.725,17.459c3.612,0,7.225-0.301,10.536-0.903
				c6.623-1.505,12.643-4.214,18.061-8.128L411.196,197.471z"/>
		</g>
		<g>
			<g>
				<path fill="#FFFFFF" d="M518.36,235.401c0,4.515,3.612,8.429,8.429,8.429s8.429-3.612,8.429-8.429
					c0-4.516-3.612-8.429-8.429-8.429l0,0C521.973,226.972,518.36,230.885,518.36,235.401z"/>
			</g>
			<g>
				<path fill="#FFFFFF" d="M536.422,246.839h-0.602h-18.362h-0.603c-5.72,0.603-10.234,5.419-10.234,11.138v23.179
					c0.301,1.807,1.806,3.011,3.612,3.011c1.505,0,2.709-1.505,3.01-3.011v-19.867c0-0.602,0.301-1.806,1.505-1.806
					s1.204,0.902,1.204,1.505v59.603c-0.301,2.709,1.807,4.816,4.215,5.117s4.816-1.807,5.117-4.215c0-0.301,0-0.602,0-0.602
					v-34.316c0-0.603,0.602-1.204,1.204-1.204l0,0l0,0c0.603,0,1.204,0.602,1.204,1.204c0,0,0,0,0,0.301v34.316
					c0,2.709,2.107,4.516,4.816,4.516s4.516-2.107,4.516-4.516v-59.903c0-0.602,0.301-1.505,1.204-1.505
					c0.902,0,1.505,0.903,1.505,1.806v19.868c0,1.806,1.505,3.311,3.312,3.311c1.806,0,3.311-1.505,3.311-3.311v-23.179
					C546.657,252.258,542.142,247.442,536.422,246.839z"/>
			</g>
			<g>
				<path fill="#FFFFFF" d="M448.523,239.915c0,4.215,3.612,7.827,7.826,7.827c4.215,0,7.827-3.612,7.827-7.827
					c0-4.214-3.612-7.826-7.827-7.826C452.136,232.089,448.523,235.401,448.523,239.915L448.523,239.915z"/>
			</g>
			<g>
				<path fill="#FFFFFF" d="M465.982,262.192c0.903-0.301,1.204,0.903,1.204,0.903l5.419,17.76c0,0,0.902,3.913,4.214,3.011
					c3.312-0.903,2.107-4.816,2.107-4.816l-6.623-21.373c0,0-2.408-6.021-7.525-6.021h-16.857c-5.117,0-7.525,6.021-7.525,6.021
					l-6.622,21.373c0,0-1.204,3.913,2.106,4.816c3.312,0.902,4.215-3.011,4.215-3.011l5.418-17.76c0,0,0.301-1.204,1.204-0.903
					s0.603,1.806,0.603,1.806l-9.332,33.414h8.429v24.081c0.301,2.408,2.107,3.914,4.516,3.612c2.106-0.301,3.612-1.806,3.612-3.612
					v-24.081h2.408v24.081c0.301,2.408,2.106,3.914,4.515,3.612c2.107-0.301,3.612-1.806,3.612-3.612v-24.081h8.73l-9.332-33.414
					C465.079,263.997,464.778,262.492,465.982,262.192z"/>
			</g>
			<g>
				<path fill="#FFFFFF" d="M401.263,239.615c0,4.516,3.612,7.827,7.826,7.827c4.516,0,7.827-3.612,7.827-7.827
					c0-4.214-3.612-7.826-7.827-7.826C404.875,231.788,401.263,235.401,401.263,239.615L401.263,239.615z"/>
			</g>
			<g>
				<path fill="#FFFFFF" d="M425.043,257.676c0,0-2.408-6.321-7.525-6.321h-16.857c-5.118,0-7.526,6.321-7.526,6.321l-6.623,21.373
					c0,0-1.204,3.913,2.107,4.816c3.311,0.902,4.214-2.71,4.214-2.71l5.418-17.76c0,0,0.301-1.204,1.204-1.204
					c0.903,0,0.602,1.806,0.602,1.806l-9.031,33.414h8.429v23.78c-0.301,2.408,1.505,4.215,3.612,4.516
					c2.408,0.301,4.214-1.505,4.515-3.612c0-0.301,0-0.603,0-0.603v-23.78h2.408v23.78c-0.301,2.408,1.505,4.215,3.612,4.516
					c2.408,0.301,4.214-1.505,4.515-3.612c0-0.301,0-0.602,0-0.602v-23.781h8.429l-9.332-33.413c0,0-0.301-1.505,0.602-1.807
					c0.903-0.301,1.204,1.204,1.204,1.204l5.418,17.761c0,0,0.903,3.913,4.214,2.709c3.312-1.204,2.107-4.816,2.107-4.816
					L425.043,257.676z"/>
			</g>
			<g>
				<path fill="#FFFFFF" d="M333.231,244.732c4.515,0,8.127-3.612,8.127-8.429c0-4.515-3.612-8.127-8.429-8.127
					s-8.127,3.612-8.127,8.429l0,0C324.803,241.119,328.415,244.732,333.231,244.732L333.231,244.732z"/>
			</g>
			<g>
				<path fill="#FFFFFF" d="M342.864,247.742h-19.265c-5.72,0.602-10.235,5.418-10.235,11.138v22.878
					c0,0.903,0.602,1.806,1.204,2.408l-7.225,38.832c0,0.602,0.301,1.204,0.903,1.505h0.301c0.602,0,1.204-0.301,1.204-0.903
					l7.225-38.53c1.505-0.302,2.709-1.506,2.709-3.011v-19.867c0-0.603,0.301-1.807,1.505-1.807s1.204,0.903,1.204,1.506v59
					c0,2.408,2.107,4.516,4.515,4.516s4.515-2.107,4.515-4.516l0,0v-34.016c0-0.602,0.603-1.204,1.204-1.204c0,0,0,0,0.301,0l0,0
					c0.602,0,1.204,0.301,1.204,1.204c0,0,0,0,0,0.301v34.016c0.301,2.408,2.408,4.516,5.117,4.215
					c2.408-0.302,4.214-2.107,4.214-4.215v-59.301c0-0.603,0.301-1.506,1.204-1.506c0.903,0,1.806,0.903,1.806,1.506v19.566
					c0.301,1.806,1.806,3.01,3.612,3.01c1.505,0,2.709-1.505,3.01-3.01V258.88C352.798,253.16,348.583,248.344,342.864,247.742z"/>
			</g>
			<g>
				<path fill="#FFFFFF" d="M484.646,276.641c0,3.612,3.011,6.622,6.623,6.622s6.622-3.01,6.622-6.622s-3.01-6.623-6.622-6.623
					S484.646,273.029,484.646,276.641L484.646,276.641z"/>
			</g>
			<g>
				<path fill="#FFFFFF" d="M505.115,296.508c-4.214-10.536-4.816-10.536-8.429-10.536h-10.234c-3.612,0-4.215,0-8.429,10.536
					c-0.602,1.505-3.01,7.225-3.01,7.525s-0.903,2.408,1.204,3.312c2.106,0.902,2.709-1.807,2.709-1.807l4.214-10.234
					c0,0,0-0.301,0.302-0.301c0.301,0,0,0.301,0,0.301v26.49l0,0c0,1.806,1.505,3.612,3.311,3.612l0,0
					c1.807,0,3.312-1.506,3.312-3.612l0,0v-10.536c0,0,0-1.505,0.903-1.505c0.902,0,0.902,1.505,0.902,1.505v10.536
					c0,1.806,1.506,3.612,3.312,3.612l0,0c1.807,0,3.312-1.506,3.312-3.312c0,0,0,0,0-0.301l0,0v-26.49c0-0.301,0-0.301,0-0.301
					l0.301,0.301l3.612,9.03c0,0,1.204,2.408,3.011,1.506c1.806-0.903,0.902-3.011,0.902-3.011S505.417,298.013,505.115,296.508z"/>
			</g>
			<g>
				<path fill="#FFFFFF" d="M383.201,279.35c-1.204-0.603-2.709-0.301-3.312,1.204l0,0c-1.204,2.107-2.709,4.516-4.214,6.321
					c-0.602,0.603-1.204,0.903-2.107,0.903h-8.127c-0.903,0-1.505-0.301-2.107-0.903c-0.903-0.903-4.214-6.622-4.214-6.622
					c-0.301-0.603-1.204-1.204-2.107-1.204c-1.204,0-2.408,0.902-2.408,2.408l0,0c0,0.301,0,0.602,0.301,1.204l6.623,12.041
					c0.301,0.602,0.301,0.902,0.301,1.505v1.806l0,0c0,0.603,0,1.505-0.301,2.107l-3.311,12.643h3.612v9.332l0,0
					c-0.301,1.806,1.204,3.312,3.01,3.612s3.311-1.204,3.612-3.011c0-0.301,0-0.301,0-0.602v-9.031v-0.301h2.107v9.332
					c-0.301,1.806,1.204,3.312,3.01,3.612s3.311-1.204,3.612-3.011c0-0.301,0-0.301,0-0.602v-9.332h3.612l-3.01-12.643
					c-0.301-0.603-0.301-1.204-0.301-1.807v-0.301l0,0v-1.806c0-0.603,0.301-1.204,0.301-1.505l6.021-11.139l0.602-1.204
					C384.706,281.457,384.405,279.951,383.201,279.35C383.201,279.651,383.201,279.651,383.201,279.35z"/>
			</g>
			<g>
				<path fill="#FFFFFF" d="M369.655,283.865c3.612,0,6.622-3.011,6.622-6.623s-3.01-6.622-6.622-6.622
					c-3.612,0-6.623,3.01-6.623,6.622l0,0C363.033,280.855,366.043,283.865,369.655,283.865L369.655,283.865z"/>
			</g>
		</g>
	</g>
</g>
</svg>
