<?xml version="1.0" encoding="utf-8"?>
<!-- Generator: Adobe Illustrator 16.0.3, SVG Export Plug-In . SVG Version: 6.00 Build 0)  -->
<!DOCTYPE svg PUBLIC "-//W3C//DTD SVG 1.1//EN" "http://www.w3.org/Graphics/SVG/1.1/DTD/svg11.dtd" [
	<!ENTITY ns_extend "http://ns.adobe.com/Extensibility/1.0/">
	<!ENTITY ns_ai "http://ns.adobe.com/AdobeIllustrator/10.0/">
	<!ENTITY ns_graphs "http://ns.adobe.com/Graphs/1.0/">
	<!ENTITY ns_vars "http://ns.adobe.com/Variables/1.0/">
	<!ENTITY ns_imrep "http://ns.adobe.com/ImageReplacement/1.0/">
	<!ENTITY ns_sfw "http://ns.adobe.com/SaveForWeb/1.0/">
	<!ENTITY ns_custom "http://ns.adobe.com/GenericCustomNamespace/1.0/">
	<!ENTITY ns_adobe_xpath "http://ns.adobe.com/XPath/1.0/">
]>
<svg version="1.1" id="Layer_1" xmlns:x="&ns_extend;" xmlns:i="&ns_ai;" xmlns:graph="&ns_graphs;"
	 xmlns="http://www.w3.org/2000/svg" xmlns:xlink="http://www.w3.org/1999/xlink" x="0px" y="0px" width="256.91px"
	 height="256.911px" viewBox="298.409 65.04 256.91 256.911" enable-background="new 298.409 65.04 256.91 256.911"
	 xml:space="preserve">
<metadata>
	<sfw  xmlns="&ns_sfw;">
		<slices></slices>
		<sliceSourceBounds  width="256.91" height="256.911" y="178.549" x="297.909" bottomLeftOrigin="true"></sliceSourceBounds>
	</sfw>
</metadata>
<title>TARGET 1 B copy 14</title>
<g id="TARGETS">
	<g>
		<rect x="298.409" y="65.04" fill="#56C02B" width="256.91" height="256.911"/>
	</g>
	<g>
		<g>
			<g>
				<path fill="#FFFFFF" d="M521.444,227.1l1.084-18.97l-2.438-2.981l-1.084,21.951C521.174,227.913,521.444,227.1,521.444,227.1z"
					/>
			</g>
			<g>
				<path fill="#FFFFFF" d="M491.634,227.1c2.168,0.813,2.71,0,2.71,0l0.813-17.886l-2.168-8.13L491.634,227.1z"/>
			</g>
			<g>
				<path fill="#FFFFFF" d="M483.775,127.913c0,0.542,0,1.354,0.271,1.896c-2.71,0.813-5.148,2.169-7.316,4.065
					c-1.355,0.542-2.439,1.897-2.439,3.523h10.298l8.401,44.986c-0.542,1.896-0.271,4.064,0.271,5.962l8.673,38.482
					c2.168,0.813,2.71,0,2.71,0l-3.252-18.699c-1.897-13.821,1.084-14.905,1.084-14.905h12.466
					c2.71,5.42,6.233,10.569,10.569,14.905l3.522,18.699c2.168,0.813,2.439,0,2.439,0l-6.775-38.482l3.252,9.214l2.168,5.962
					c0,0-1.354,3.523,1.355,4.336l-1.897-10.026l-2.71-7.859c0,0-0.271-3.794-5.962-7.317l-18.699-11.11l-13.008-39.024
					c0,0,2.438-2.981,1.084-3.253c-1.084,0-2.168,0-2.981,0.542c-0.542,0-1.084,0-1.896,0c0-0.813-0.271-1.626-0.542-2.168
					c0.271-0.271,0.271-0.542,0.271-0.813c0-0.813-0.542-1.355-1.354-1.355c-0.813,0-1.355,0.542-1.355,1.355l0,0
					C482.691,127.1,483.233,127.642,483.775,127.913z"/>
			</g>
		</g>
		<g>
			<path fill="#FFFFFF" d="M397.054,149.051h15.176c3.523,2.439,7.317,4.879,9.485,6.233c3.794,2.168,6.504,4.336,9.484,6.504
				l-3.522,63.686v0.271c0,0,0,0,0,0.271c0,0.271,0.271,0.542,0.542,0.542h18.428c0.271,0,0.542-0.271,0.542-0.813l0,0l0,0
				l-3.252-65.041c2.439-1.084,5.149-1.896,7.588-2.98c2.439-1.084,5.149-2.168,7.589-3.523c1.354-0.813,2.98-1.354,4.336-2.168
				h9.214c1.626,0.271,3.252-0.542,3.522-2.168c0.271-1.626-0.541-3.252-2.168-3.523c-0.542,0-0.813,0-1.354,0h-1.626
				c0-0.542-0.271-1.084-0.813-1.354c-1.896-0.813-3.794-1.084-5.962-0.542c-0.271-0.542-0.542-0.813-0.813-1.084
				c-1.626-1.626-7.859-1.897-11.111,0c-1.084,0.542-1.897,1.626-1.897,2.98l0,0c-1.626-0.271-3.252,0.542-3.522,2.168
				c-0.271,1.626,0.542,3.252,2.168,3.523c0.542,0,0.813,0,1.354,0h5.42c-1.896,0.542-4.064,0.813-5.962,1.355
				c-2.71,0.813-5.42,1.354-8.13,2.438l-4.336-9.756l12.737-9.214h12.466c2.71,0,4.878-2.168,4.878-4.878
				c0-2.711-2.168-4.879-4.878-4.879h-4.606c-0.271-0.813-0.813-1.626-1.355-2.168c-1.626-1.354-6.233-1.896-10.027-1.354
				c-0.271-0.542-0.813-1.084-1.354-1.355c-2.439-2.168-10.841-2.438-15.177-0.271c-2.168,0.542-3.252,2.98-2.438,4.878l0,0h-4.065
				c-2.71,0-4.878,2.168-4.878,4.878s2.168,4.878,4.878,4.878h8.13l5.149,20.867l-1.084,0.271c-3.523-2.168-7.046-3.794-10.84-5.691
				c-1.897-0.813-3.794-1.897-5.962-2.981h7.588c2.71,0,4.878-1.626,4.878-3.252s-2.168-3.252-4.878-3.252h-2.439
				c-0.271-0.813-0.813-1.626-1.354-2.438c-2.168-1.897-9.756-2.168-13.55-0.271c-1.084,0.542-1.897,1.355-2.168,2.439h-9.756
				c-2.71,0-4.878,1.626-4.878,3.252S394.344,149.051,397.054,149.051z M445.021,136.857l-9.756,4.878l-2.168-5.149L445.021,136.857
				z"/>
		</g>
		<g>
			<path fill="#FFFFFF" d="M500.035,107.317l24.391,11.111l2.438-0.813l-4.606-1.897l-6.505-6.504l1.084-1.626l15.719-9.485
				l-18.971-1.084l-4.606,6.775l-6.504-1.355c0,0-5.691,3.523-4.607,5.962C498.139,107.588,500.035,107.317,500.035,107.317z"/>
		</g>
		<g>
			<path fill="#FFFFFF" d="M415.211,283.469L415.211,283.469c25.474,23.577,52.033,4.064,57.723-0.542l0.542-0.542
				c0.271,0,0.271,0,0.542,0c0.271,0,0.271,0,0.542,0l0.542,0.542c5.421,4.606,31.708,23.848,56.911,1.084l0.813-0.542
				c0.271-0.271,0.271-0.542,0.271-0.813V270.19c0-0.542-0.542-1.084-1.084-1.084l0,0c0,0-0.271,0-0.542,0l-0.542,0.271
				c-7.588,5.421-33.063,20.597-55.556-0.542l-0.271-0.271c-0.271-0.271-0.542-0.271-1.084-0.271c-0.271,0-0.813,0.271-0.813,0.271
				l-0.271,0.271c-22.222,20.867-47.154,6.505-55.284,0.813l-0.813-0.542c-0.271,0-0.542-0.271-0.542-0.271
				c-0.542,0-1.084,0.542-1.084,1.085v12.466l0,0l0,0C414.94,282.927,415.211,283.198,415.211,283.469z"/>
		</g>
		<g>
			<path fill="#FFFFFF" d="M416.295,244.173h115.718c0.813,0,1.626,0.813,1.626,1.626l0,0v9.757c0,0.813-0.813,1.626-1.626,1.626
				H416.295"/>
		</g>
		<g>
			<path fill="#FFFFFF" d="M394.344,251.49l-19.512,15.447c-0.271,0.271-0.542,0.271-0.813,0.271c-0.542,0-0.542-0.271-0.542-0.813
				v-7.859h-51.22c-0.271,0-0.813-0.271-0.542-0.813l0,0v-13.551c0-0.271,0.271-0.813,0.542-0.813h51.22v-7.588
				c0-0.542,0-0.813,0.542-0.813c0.271,0,0.542,0,0.813,0.271l19.512,14.904c0.271,0.271,0.542,0.542,0.542,1.084
				C394.886,251.22,394.615,251.49,394.344,251.49z"/>
		</g>
		<g>
			<g>
				<path fill="#FFFFFF" d="M353.152,217.073c-1.084,0.813-2.168,1.354-3.523,1.626c-3.523,1.084-7.317,1.626-11.111,1.354
					c-1.897,0-3.523-0.271-5.42-0.542c-1.355-0.271-2.168-0.271-3.252-0.542l-1.626-0.542c-1.626-0.542-2.981-1.084-4.336-2.168
					c-0.542-0.271-0.813-0.813-1.084-1.354v1.354c0,0.542,0,2.168,0,2.168c0,0.813,0.542,1.897,1.355,2.439
					c2.439,1.896,5.42,2.98,8.672,3.252c2.168,0.271,4.065,0.542,6.233,0.542c2.981,0,5.962-0.271,8.943-1.084l0,0
					c1.626-0.271,3.252-1.084,4.607-1.897l0,0c1.355-0.813,2.439-1.896,2.439-3.252c0,0,0-3.252,0-3.522
					C354.507,215.718,353.694,216.531,353.152,217.073z"/>
			</g>
			<g>
				<path fill="#FFFFFF" d="M337.163,205.962c8.943,0,16.26-2.71,16.26-5.962c0,0,0.271-2.981,0-3.794c0-0.542,0-0.813-0.271-1.355
					c1.084-0.542,1.626-1.626,1.897-2.71c0,0,0.271-3.523,0-4.065c-0.542-4.064-8.672-6.232-16.26-6.232
					c-7.588,0-16.26,2.168-16.26,6.504c0,0.271,0.271,3.794,0.271,3.794c0,0.271,0,0.542,0.271,0.813
					c-1.084,0.813-1.897,1.896-2.168,3.252c0,0.271,0.271,3.794,0.271,3.794c0,0.813,0.542,1.896,1.355,2.438
					c2.439,1.897,5.42,2.981,8.672,3.252C333.098,205.691,335.266,205.962,337.163,205.962z M339.06,183.469
					c8.672,0,14.634,2.71,14.634,4.878s-5.962,4.878-14.634,4.878s-14.634-2.438-14.634-4.878S330.388,183.74,339.06,183.469
					L339.06,183.469z M322.799,196.206c0.271-0.813,0.542-1.355,1.355-1.897c0.542,0.542,1.084,0.813,1.626,1.084
					c4.065,1.897,8.672,2.981,13.279,2.71c3.794,0,7.859-0.542,11.382-1.896c0.542-0.271,0.813-0.271,1.355-0.542v0.271
					c0,2.168-5.962,4.878-14.634,4.878S322.528,198.645,322.799,196.206L322.799,196.206z"/>
			</g>
			<g>
				<path fill="#FFFFFF" d="M332.556,218.428c2.168,0.271,4.065,0.542,6.233,0.542c2.981,0,5.962-0.271,8.943-1.084l0,0
					c1.626-0.271,3.252-1.084,4.607-1.896l0,0c0.271-0.271,0.813-0.542,1.084-0.813c0.542-0.542,0.813-1.084,1.355-1.626
					c0-0.271,0.271-0.542,0.271-0.813c0,0,0-3.253,0-3.523c-0.542,0.542-1.897,2.71-8.401,4.065c-2.71,0.542-5.42,0.813-8.13,0.813
					c-4.336,0-8.943-0.813-13.008-2.438c-0.813-0.271-1.355-0.813-2.168-1.355c-0.271-0.271-0.813-0.813-1.084-1.084v1.626v2.439
					c0,0.813,0.542,1.626,1.355,2.168C326.322,217.073,329.304,218.157,332.556,218.428z"/>
			</g>
			<g>
				<path fill="#FFFFFF" d="M354.778,202.168l-0.271-0.271c-0.271-0.271-0.542-0.271-0.542-0.271
					c-0.271,0.271-0.542,0.813-0.813,0.813l0.542,0.271c0.542,0.271,0.813,0.813,0.813,1.354s-0.271,0.813-0.542,1.084
					c-0.271,0.271-0.271,0.271-0.542,0.542l-1.355,0.271c0,0-1.084,0.542-1.355,0.542s-1.084,0.271-1.355,0.542l-1.897,0.542
					l-2.439,0.542l-2.439,0.271l-3.794,0.271c-1.626,0-3.523,0-5.149-0.271c-1.355-0.271-2.439-0.542-3.794-0.542
					c-1.355-0.271-2.71-0.813-3.794-1.354c-0.813-0.271-1.355-0.813-1.897-1.355s-1.084-1.084-1.355-1.626v2.168v1.897
					c0,0.813,0.542,1.896,1.355,2.438c2.439,1.897,5.42,2.981,8.672,3.253c2.168,0.271,4.065,0.542,6.233,0.542
					c2.981,0,5.962-0.271,8.943-1.084l0,0c1.626-0.271,3.252-1.085,4.607-1.897l0,0c0.271-0.271,0.813-0.542,1.084-0.813
					c0.542-0.542,1.084-1.084,1.355-1.626c0-0.271,0.271-0.542,0.271-0.813v-3.523c0-0.271,0-0.542,0-0.813
					C354.778,202.439,354.778,202.168,354.778,202.168z"/>
			</g>
			<g>
				<path fill="#FFFFFF" d="M374.561,194.309c8.943,0,16.26-2.71,16.26-5.962c0,0,0.271-2.981,0-3.794
					c0-0.542-0.271-0.813-0.271-1.355c1.084-0.542,1.626-1.626,1.897-2.71c0,0,0-3.522,0-4.064
					c-0.542-4.065-8.672-6.233-16.26-6.233s-16.26,2.168-16.26,6.504c0,0.271,0.271,3.794,0.271,3.794c0,0.271,0,0.542,0.271,0.813
					c-1.084,0.813-1.897,1.896-2.168,3.252c0,0.271,0.271,3.794,0.271,3.794c0,0.813,0.542,1.896,1.355,2.439
					c2.439,1.896,5.42,2.98,8.672,3.252C370.225,194.309,372.393,194.309,374.561,194.309z M376.187,172.087
					c8.672,0,14.634,2.71,14.634,4.878s-5.962,4.878-14.634,4.878c-8.672,0-14.634-2.71-14.634-4.878
					S367.515,172.087,376.187,172.087z M359.927,184.553c0-0.542,0.542-1.084,1.355-1.897c0.542,0.542,1.084,0.813,1.626,1.084
					c4.336,1.897,8.672,2.981,13.55,2.71c3.794,0,7.859-0.542,11.382-1.896c0.542-0.271,1.084-0.271,1.355-0.542v0.271
					c0,2.439-5.962,4.878-14.634,4.878C365.889,189.159,359.927,186.991,359.927,184.553z"/>
			</g>
			<g>
				<path fill="#FFFFFF" d="M392.447,191.057c0-0.271-0.271-0.542-0.542-0.542c0-0.271-0.271-0.271-0.542-0.271
					c-0.271-0.271-0.542-0.271-0.813-0.271c-0.271,0.271-0.542,0.542-0.813,0.813c0.271,0,0.542,0.271,0.542,0.271
					c0.542,0.271,0.813,0.813,0.813,1.084c0,0.542-0.271,0.813-0.542,1.084c-0.271,0.271-0.271,0.271-0.542,0.542l-0.813,0.542
					l-1.355,0.542l-1.355,0.542c0,0-1.355,0.271-1.897,0.542c-0.542,0.271-1.626,0.271-2.439,0.542l-2.439,0.271
					c-0.271,0-2.71,0.271-3.794,0.271c-1.626,0-3.523,0-5.149-0.271c-1.355-0.271-2.439-0.271-3.523-0.542
					c-1.355-0.271-2.71-0.813-3.794-1.084c-0.813-0.271-1.355-0.813-1.897-1.355s-0.813-1.084-1.355-1.626v2.168v1.897
					c0,0.813,0.542,1.896,1.355,2.438c2.439,1.897,5.42,2.981,8.672,3.252c2.168,0.271,4.336,0.542,6.504,0.542
					c2.981,0,5.962-0.271,8.943-1.084l0,0c1.626-0.271,2.981-1.084,4.607-1.896l0,0c0.271-0.271,0.813-0.542,1.084-0.813
					c0.542-0.542,0.813-1.084,1.084-1.626c0-0.271,0.271-0.542,0.271-0.813c0,0,0-3.252,0-3.523
					C392.447,191.599,392.447,191.328,392.447,191.057z"/>
			</g>
			<g>
				<path fill="#FFFFFF" d="M390.279,205.149c-1.084,0.813-2.168,1.355-3.523,1.626c-3.523,1.084-7.317,1.626-11.111,1.355
					c-1.897,0-3.523-0.271-5.42-0.542c-1.084-0.271-2.168-0.271-3.252-0.542l-1.626-0.271c-1.626-0.542-2.981-1.084-4.336-2.168
					c-0.542-0.271-0.813-0.813-1.355-1.354v1.354c0,0.542,0,2.168,0,2.168c0,0.813,0.542,1.897,1.355,2.439
					c2.439,1.897,5.42,2.981,8.672,3.252c2.168,0.271,4.065,0.542,6.233,0.542c2.981,0,5.962-0.271,8.943-1.084l0,0
					c1.626-0.271,3.252-1.084,4.607-1.897l0,0c1.626-0.813,2.439-1.896,2.439-3.252c0,0,0-3.252,0-3.522
					C391.634,204.065,391.092,204.878,390.279,205.149z"/>
			</g>
			<g>
				<path fill="#FFFFFF" d="M361.282,203.523c2.439,1.897,5.42,2.981,8.672,3.252c2.168,0.271,4.065,0.542,6.233,0.542
					c2.981,0,5.962-0.271,8.943-1.084l0,0c1.626-0.271,3.252-1.084,4.607-1.896l0,0c0.271-0.271,0.813-0.542,1.084-0.813
					c0.542-0.271,1.084-0.813,1.355-1.626c0-0.271,0.271-0.542,0.271-0.813c0,0,0-3.252,0-3.523
					c-0.542,0.542-1.897,2.71-8.401,4.065c-2.71,0.542-5.42,0.813-8.13,0.813c-4.336,0-8.943-0.813-13.008-2.438
					c-0.813-0.271-1.355-0.813-2.168-1.355c-0.271-0.271-0.813-0.813-1.084-1.084v1.626v2.439
					C359.927,202.168,360.469,202.981,361.282,203.523z"/>
			</g>
			<g>
				<path fill="#FFFFFF" d="M392.447,214.906c-0.542,0.813-1.084,1.354-1.897,1.896c-1.084,0.813-2.168,1.355-3.523,1.626
					c-3.523,1.084-7.317,1.626-11.111,1.355c-1.897,0-3.523-0.271-5.42-0.542c-1.355-0.271-2.168-0.271-3.252-0.542l-1.626-0.542
					c-1.626-0.542-2.981-1.084-4.336-2.168c-0.542-0.271-0.813-0.813-1.355-1.355v1.355c0,0.542,0,2.168,0,2.168
					c0,0.813,0.542,1.896,1.355,2.438c2.439,1.897,5.42,2.981,8.672,3.252c2.168,0.271,4.065,0.542,6.233,0.542
					c2.981,0,5.962-0.271,8.943-1.084l0,0c1.626-0.271,3.252-1.084,4.607-1.896l0,0c1.626-0.813,2.439-1.897,2.439-3.252
					C392.447,218.699,392.447,215.176,392.447,214.906z"/>
			</g>
			<g>
				<path fill="#FFFFFF" d="M369.683,218.428c2.168,0.271,4.065,0.542,6.233,0.542c2.981,0,5.962-0.271,8.943-1.084l0,0
					c1.626-0.271,3.252-1.084,4.607-1.896l0,0c0.271-0.271,0.813-0.542,1.084-0.813c0.542-0.542,1.084-1.084,1.355-1.626
					c0-0.271,0.271-0.542,0.271-0.813c0,0,0-3.253,0-3.523c-0.542,0.542-1.897,2.71-8.401,4.065c-2.71,0.542-5.42,0.813-8.13,0.813
					c-4.336,0-8.943-0.813-13.008-2.438c-0.813-0.271-1.355-0.813-2.168-1.355c-0.271-0.271-0.813-0.813-1.084-1.084v1.626v2.439
					c0,0.813,0.542,1.626,1.355,2.168C363.721,217.073,366.702,218.157,369.683,218.428z"/>
			</g>
		</g>
	</g>
</g>
</svg>
