<?xml version="1.0" encoding="utf-8"?>
<!-- Generator: Adobe Illustrator 16.0.3, SVG Export Plug-In . SVG Version: 6.00 Build 0)  -->
<!DOCTYPE svg PUBLIC "-//W3C//DTD SVG 1.1//EN" "http://www.w3.org/Graphics/SVG/1.1/DTD/svg11.dtd" [
	<!ENTITY ns_extend "http://ns.adobe.com/Extensibility/1.0/">
	<!ENTITY ns_ai "http://ns.adobe.com/AdobeIllustrator/10.0/">
	<!ENTITY ns_graphs "http://ns.adobe.com/Graphs/1.0/">
	<!ENTITY ns_vars "http://ns.adobe.com/Variables/1.0/">
	<!ENTITY ns_imrep "http://ns.adobe.com/ImageReplacement/1.0/">
	<!ENTITY ns_sfw "http://ns.adobe.com/SaveForWeb/1.0/">
	<!ENTITY ns_custom "http://ns.adobe.com/GenericCustomNamespace/1.0/">
	<!ENTITY ns_adobe_xpath "http://ns.adobe.com/XPath/1.0/">
]>
<svg version="1.1" id="Layer_1" xmlns:x="&ns_extend;" xmlns:i="&ns_ai;" xmlns:graph="&ns_graphs;"
	 xmlns="http://www.w3.org/2000/svg" xmlns:xlink="http://www.w3.org/1999/xlink" x="0px" y="0px" width="285.199px"
	 height="285.198px" viewBox="284.25 72.202 285.199 285.198" enable-background="new 284.25 72.202 285.199 285.198"
	 xml:space="preserve">
<metadata>
	<sfw  xmlns="&ns_sfw;">
		<slices></slices>
		<sliceSourceBounds  width="285.199" height="285.198" y="143.1" x="283.75" bottomLeftOrigin="true"></sliceSourceBounds>
	</sfw>
</metadata>
<title>TARGET 1.2</title>
<g id="TARGETS">
	<g>
		<rect x="284.25" y="72.202" fill="#DD1367" width="285.199" height="285.198"/>
	</g>
	<g>
		<g>
			<path fill="#FFFFFF" d="M456.332,152.527h75.512c0.602,0,1.203,0.603,1.203,1.204v3.008c0,0.602-0.602,1.204-1.203,1.204h-75.512
				c-0.602,0-1.203-0.603-1.203-1.204v-3.008C455.129,153.129,455.73,152.527,456.332,152.527z"/>
		</g>
		<g>
			<path fill="#FFFFFF" d="M456.332,209.386h75.512c0.602,0,1.203,0.602,1.203,1.204v6.017c0,0.602-0.602,1.203-1.203,1.203h-75.512
				c-0.602,0-1.203-0.602-1.203-1.203v-6.017C455.129,209.988,455.73,209.386,456.332,209.386z"/>
		</g>
		<g>
			<path fill="#FFFFFF" d="M456.332,148.917h75.813c0.602,0,1.203-0.602,1.203-1.204v-0.602
				c-4.813-21.359-26.173-34.897-47.533-30.084c-15.042,3.31-26.774,15.042-30.084,30.084c0,0.301,0,0.301,0,0.602l0,0
				C455.43,148.015,455.73,148.616,456.332,148.917z"/>
		</g>
		<g>
			<path fill="#FFFFFF" d="M529.737,205.777c0.602,0,1.204-0.603,1.204-1.204l0,0v-40.914c0-0.602-0.603-1.203-1.204-1.203l0,0
				h-70.396c-0.602,0-1.203,0.602-1.203,1.203v40.914c0,0.602,0.602,1.204,1.203,1.204l0,0H529.737z M509.28,167.87h12.034v32.49
				H509.28V167.87z M488.823,167.87h12.033v32.49h-12.033V167.87z M468.667,167.87H480.7v32.49h-12.033V167.87z"/>
		</g>
		<g>
			<path fill="#FFFFFF" d="M498.751,110.71c2.707,0,5.415,0.902,7.521,2.707c1.805,1.204,4.211,2.106,6.618,2.106h5.716v-14.44
				h-5.716c-3.31,0-6.317-1.203-8.725-3.31c-1.805-1.203-4.212-1.504-6.317-1.504h-3.61v14.44
				C495.742,110.71,497.247,110.71,498.751,110.71z"/>
		</g>
	</g>
	<g>
		<g>
			<g>
				<path fill="#FFFFFF" d="M336.897,257.822c4.212,0,7.822-3.309,7.822-7.821c0-2.708-1.504-5.415-3.911-6.92
					c0.301-0.301,0.301-0.902,0.301-1.203c-0.301-1.805-2.106-3.31-3.911-3.009c-1.805-0.301-3.61,1.204-3.911,3.009
					c0,0.301,0,0.902,0.301,1.203c-3.911,1.806-5.415,6.318-3.61,10.229C331.182,256.017,333.889,257.822,336.897,257.822z"/>
			</g>
			<g>
				<path fill="#FFFFFF" d="M358.859,286.101l-6.318-20.758c0,0-2.407-6.017-7.22-6.017h-16.847c-5.114,0-7.22,6.017-7.22,6.017
					l-6.318,20.758c0,0-0.902,3.31,1.504,4.513l-0.301,0.301l-7.521,39.41c0,0.602,0.301,1.203,0.902,1.504h0.301
					c0.602,0,1.204-0.301,1.204-0.902l7.521-39.41v-0.301c2.106-0.301,2.708-3.008,2.708-3.008l5.114-17.148
					c0,0,0.301-1.203,1.204-0.902c0.902,0.301,0.602,1.805,0.602,1.805l-9.025,32.491h8.424v23.466
					c-0.301,2.105,1.504,4.212,3.61,4.513s4.212-1.505,4.513-3.61c0-0.301,0-0.602,0-0.602v-24.368h2.407v23.466
					c-0.301,2.105,1.504,4.211,3.61,4.513c2.106,0.301,4.212-1.505,4.513-3.61c0-0.301,0-0.602,0-0.602v-23.767h8.424l-9.025-32.491
					c0,0-0.301-1.504,0.602-1.805c0.903-0.301,1.204,0.902,1.204,0.902l5.415,17.449c0,0,0.903,3.609,4.212,2.707
					S358.859,286.101,358.859,286.101z"/>
			</g>
		</g>
		<g>
			<g>
				<path fill="#FFFFFF" d="M420.833,256.618c4.212,0,7.521-3.31,7.521-7.521c0-4.212-3.309-7.521-7.521-7.521
					c-4.211,0-7.521,3.31-7.521,7.521l0,0C413.011,253.309,416.621,256.618,420.833,256.618z"/>
			</g>
			<g>
				<path fill="#FFFFFF" d="M442.192,287.003l-6.317-20.457c0,0-2.407-6.017-7.221-6.017H412.71c-5.114,0-7.22,6.017-7.22,6.017
					l-6.318,20.457c0,0-1.203,3.61,2.106,4.813c3.31,1.204,4.212-2.707,4.212-2.707l5.114-17.148c0,0,0.301-1.203,1.204-0.902
					c0.902,0.301,0.602,1.805,0.602,1.805l-8.725,32.19h8.123v23.165c0.301,2.105,2.106,3.911,4.212,3.609
					c1.805-0.301,3.309-1.805,3.61-3.609v-23.165h2.106v23.165c0,2.105,1.805,3.911,3.911,3.911c2.105,0,3.911-1.806,3.911-3.911
					v-23.165h8.122l-8.725-32.19c0,0-0.301-1.504,0.603-1.805c0.902-0.301,1.203,0.902,1.203,0.902l5.114,17.148
					c0,0,0.902,3.61,4.212,2.707C443.396,290.914,442.192,287.003,442.192,287.003z"/>
			</g>
		</g>
		<g>
			<g>
				<path fill="#FFFFFF" d="M391.952,287.304c-1.203-0.602-2.708-0.301-3.309,0.903l0,0c-1.203,2.105-2.708,4.212-3.911,6.317
					c-0.602,0.602-1.203,0.902-2.105,0.902h-7.822c-0.902,0-1.504-0.301-2.106-0.902c-0.902-0.902-3.911-6.317-4.211-6.317
					c-0.301-0.602-1.204-1.204-2.106-0.903c-1.204,0-2.407,0.903-2.407,2.407c0,0.301,0,0.602,0.301,0.902l6.318,11.732
					c0.301,0.603,0.301,0.903,0.301,1.505v1.805l0,0c0,0.602,0,1.203-0.301,2.106l-3.008,12.033h3.31v9.025l0,0
					c0,1.805,1.203,3.009,3.008,3.009s3.008-1.204,3.008-3.009v-9.025h2.708v0.301v8.725c0,1.805,1.504,3.009,3.009,3.009
					c1.805,0,3.008-1.505,3.008-3.009v-9.025h3.309l-3.008-12.033c-0.301-0.603-0.301-1.204-0.301-1.505v-0.602l0,0v-1.504
					c0-0.602,0.301-1.203,0.301-1.505l6.017-10.83l0.602-1.203C393.456,289.11,393.155,287.906,391.952,287.304L391.952,287.304z"/>
			</g>
			<g>
				<path fill="#FFFFFF" d="M379.016,291.516c3.61,0,6.318-2.707,6.318-6.317s-2.708-6.317-6.318-6.317
					c-3.61,0-6.318,2.707-6.318,6.317l0,0C372.397,288.508,375.406,291.516,379.016,291.516L379.016,291.516z"/>
			</g>
		</g>
		<g>
			<g>
				<path fill="#FFFFFF" d="M471.675,277.376c3.911,0,7.221-3.309,7.221-7.22s-3.31-7.221-7.221-7.221s-7.22,3.31-7.22,7.221
					S467.463,277.376,471.675,277.376L471.675,277.376z"/>
			</g>
			<g>
				<path fill="#FFFFFF" d="M502.061,322.201l-3.009-6.017l0,0l-7.221-14.44c-0.602-1.203-2.105-2.105-3.609-1.805h-10.529
					l-0.301-12.937c0-3.91-0.903-6.317-3.911-6.919c-1.505-0.301-3.009-0.301-4.513,0h-0.301l0,0l-12.335,3.911h-0.301h-0.301l0,0
					c-0.602,0.301-1.203,0.902-1.203,1.504l-3.61,9.928c-0.602,1.504,0.301,3.31,1.805,3.911c1.505,0.602,3.31-0.301,3.911-1.805
					l0,0l3.009-8.424l4.513-1.504h0.301v13.838c0,3.009,0.902,6.318,4.212,6.92l0.902,0.301c0.602,0,1.203,0,1.504,0h15.343
					l3.911,7.821v0.301l1.504,2.708l1.505,2.707v0.302l0,0l1.504,3.008c0.902,1.806,3.009,2.708,5.114,2.106
					C502.061,326.413,502.963,324.308,502.061,322.201c0,0,0-0.301,0-0.602V322.201z"/>
			</g>
			<g>
				<path fill="#FFFFFF" d="M479.798,313.478c0,0.301,0,0.602,0,0.602c0,8.122-6.618,14.741-14.741,15.042
					c-8.123,0-14.741-6.618-15.042-14.741c0-3.31,1.203-6.618,3.309-9.326l-3.609-3.009c-6.619,8.424-5.114,20.759,3.309,27.377
					c8.424,6.618,20.759,5.114,27.377-3.31c2.708-3.309,4.212-7.521,4.212-12.033c0-0.301,0-0.602,0-0.602H479.798z"/>
			</g>
		</g>
		<g>
			<g>
				<path fill="#FFFFFF" d="M520.712,254.212c4.212,0,7.822-3.61,7.822-7.822s-3.61-7.822-7.822-7.822
					c-4.211,0-7.821,3.61-7.821,7.822S516.2,254.212,520.712,254.212L520.712,254.212z"/>
			</g>
			<g>
				<path fill="#FFFFFF" d="M529.737,257.22h-18.351c-5.416,0.602-9.627,5.114-9.627,10.529v21.661c0,1.805,1.203,3.009,3.008,3.009
					c1.806,0,3.009-1.204,3.009-3.009v-18.652c0-0.602,0.301-1.805,1.504-1.805s0.902,0.902,1.203,1.504v56.257
					c0,2.407,2.106,4.513,4.513,4.513c2.407,0,4.513-2.105,4.513-4.513v-32.189c0-0.602,0.301-1.203,0.902-1.203c0,0,0,0,0.301,0
					l0,0c0.603,0,1.204,0.602,1.204,1.203c0,0,0,0,0,0.301v32.491c0,2.406,2.105,4.513,4.513,4.513c2.406,0,4.513-2.106,4.513-4.513
					v-56.559c0-0.602,0.301-1.504,1.203-1.504s1.504,0.902,1.504,1.805v18.652c0,1.805,1.204,3.009,3.009,3.009
					s3.008-1.204,3.008-3.009v-21.962C539.364,262.334,535.153,257.822,529.737,257.22z"/>
			</g>
		</g>
	</g>
	<g>
		<g>
			<path fill="#FFFFFF" d="M365.177,209.988c-1.504,0.903-3.309,1.806-5.114,2.407c-5.114,1.504-10.529,2.105-16.246,2.105
				c-2.708,0-5.415-0.301-8.123-0.602c-1.504-0.301-3.309-0.602-4.813-0.902c-0.902-0.301-1.504-0.301-2.407-0.602
				c-2.106-0.602-4.513-1.504-6.318-3.009c-0.602-0.602-1.203-1.203-1.805-1.805v2.105c0,0.602,0,3.009,0,3.009
				c0,1.504,0.902,2.708,1.805,3.31c3.61,2.707,8.123,4.212,12.636,4.513c3.008,0.602,6.017,0.602,9.025,0.602
				c4.513,0,9.025-0.602,13.237-1.505l0,0c2.407-0.602,4.813-1.203,7.22-2.406l0,0c2.106-1.203,3.61-3.009,3.61-4.513
				c0,0,0.301-4.813,0-5.114C367.283,208.484,366.38,209.386,365.177,209.988z"/>
		</g>
		<g>
			<path fill="#FFFFFF" d="M342.012,194.043c12.936,0,23.767-3.911,23.767-8.725c0,0,0.301-4.513,0.301-5.415
				c0-0.602-0.301-1.203-0.301-1.805c1.504-0.902,2.407-2.407,2.708-3.911c0,0,0.301-5.114,0-6.017
				c-0.602-6.018-12.636-9.025-23.767-9.025c-11.131,0-23.767,3.31-23.767,9.627c0,0.301,0.301,5.415,0.301,5.415
				c0,0.301,0,0.602,0.301,0.902c-1.805,0.902-3.008,2.708-3.008,4.813c0,0.301,0.301,5.415,0.301,5.415
				c0,1.204,0.902,2.708,1.805,3.31c3.61,2.708,8.123,4.212,12.635,4.813C335.995,194.043,339.003,194.043,342.012,194.043z
				 M344.72,161.552c12.635,0,21.36,3.61,21.36,7.221s-8.725,7.22-21.36,7.22c-12.636,0-21.36-3.609-21.36-7.22
				S332.084,161.552,344.72,161.552z M320.652,179.904c0.301-1.203,0.902-2.105,1.805-2.707c0.602,0.602,1.504,1.203,2.407,1.805
				c6.017,2.708,12.936,4.212,19.555,3.911c5.716,0,11.432-0.902,16.546-2.407c0.602-0.301,1.504-0.602,2.106-0.902
				c0,0.301,0,0.301,0,0.602c0,3.31-8.724,7.221-21.36,7.221C329.076,187.425,320.652,183.213,320.652,179.904z"/>
		</g>
		<g>
			<path fill="#FFFFFF" d="M335.093,212.094c3.008,0.602,6.017,0.602,9.025,0.602c4.512,0,9.025-0.602,13.237-1.504l0,0
				c2.407-0.602,4.513-1.505,6.619-2.708l0,0c0.602-0.301,0.902-0.602,1.504-0.902c0.903-0.602,1.504-1.504,1.805-2.407
				c0.301-0.301,0.301-0.902,0.301-1.203c0,0,0-4.813,0-5.114c-0.902,0.902-2.708,3.911-12.034,6.017
				c-3.911,0.602-8.123,0.903-12.034,0.903c-7.521,0-15.343-1.505-18.953-3.61c-1.203-0.602-2.106-1.203-3.008-2.106
				c-0.602-0.602-0.902-1.203-1.504-1.805v2.406v3.31c0.301,1.203,0.902,2.407,2.105,3.31
				C326.067,210.288,330.58,211.793,335.093,212.094z"/>
		</g>
		<g>
			<path fill="#FFFFFF" d="M367.583,188.327c-0.602-0.602-0.902-0.902-1.504-0.902c-0.301,0.602-0.602,0.902-1.204,1.504
				c0.301,0,0.602,0.301,0.903,0.602c0.602,0.301,1.203,0.902,1.203,1.806c0,0.602-0.301,1.203-0.902,1.504
				c-0.301,0.301-0.602,0.602-0.903,0.602l-1.504,0.902c0,0-1.504,0.602-2.106,0.902c0,0-1.504,0.602-2.106,0.602
				s-2.106,0.603-2.708,0.603l-3.61,0.602h-3.61c-0.301,0-3.911,0.301-5.415,0.301c-2.407,0-5.115-0.301-7.521-0.602
				c-1.805-0.301-3.61-0.602-5.415-0.903c-1.805-0.301-3.911-0.902-5.716-1.805c-1.204-0.602-2.106-1.203-3.008-2.105
				c-0.602-0.602-1.504-1.505-1.805-2.407v3.009v3.008c0,1.505,0.902,2.708,1.805,3.31c3.61,2.708,8.123,4.212,12.635,4.813
				c3.008,0.301,6.017,0.602,9.025,0.602c4.512,0,9.025-0.602,13.237-1.504l0,0c2.407-0.602,4.813-1.504,6.919-2.708l0,0
				c0.602-0.301,0.902-0.602,1.504-0.902c0.902-0.602,1.504-1.504,1.805-2.406c0.301-0.301,0.301-0.903,0.301-1.505l0.301-5.114
				c0-0.301,0-0.902-0.301-1.203C368.186,188.929,367.884,188.628,367.583,188.327z"/>
		</g>
		<g>
			<path fill="#FFFFFF" d="M396.464,177.197c12.937,0,23.466-3.911,23.466-8.725c0,0,0.301-4.513,0.301-5.415
				c0-0.602-0.301-1.204-0.301-1.806c1.504-0.902,2.407-2.406,2.708-3.911c0,0,0.301-5.114,0-6.017
				c-0.602-6.017-12.635-9.025-23.767-9.025c-11.131,0-23.767,3.31-23.767,9.627c0,0.301,0.301,5.415,0.301,5.415
				c0,0.302,0,0.603,0.301,0.903c-1.805,0.902-3.009,2.707-3.009,4.813c0,0.301,0.301,5.415,0.301,5.415
				c0,1.203,0.902,2.707,1.805,3.309c3.61,2.708,8.123,4.212,12.636,4.513C390.147,176.896,393.456,177.197,396.464,177.197z
				 M398.871,144.405c12.636,0,21.36,3.61,21.36,7.22c0,3.61-8.724,7.221-21.36,7.221c-12.635,0-21.36-3.911-21.36-7.221
				C377.511,148.316,386.236,144.405,398.871,144.405z M375.104,162.756c0-0.903,0.602-1.806,1.805-2.708
				c0.602,0.602,1.504,1.203,2.407,1.805c6.017,2.708,12.937,4.212,19.555,3.911c5.716,0,11.432-0.902,16.847-2.707
				c0.602-0.301,1.504-0.603,2.106-0.903c0,0.301,0,0.301,0,0.603c0,3.309-8.725,7.22-21.36,7.22S375.104,166.365,375.104,162.756z"
				/>
		</g>
		<g>
			<path fill="#FFFFFF" d="M422.638,172.383c0-0.301-0.301-0.603-0.602-0.903s-0.301-0.301-0.602-0.602s-0.602-0.301-0.903-0.602
				c-0.301,0.602-0.602,0.902-0.902,1.504c0.301,0,0.602,0.302,0.902,0.603c0.602,0.301,1.204,0.902,1.204,1.805
				c0,0.602-0.301,1.203-0.903,1.504c-0.301,0.301-0.602,0.602-0.902,0.602c0,0-0.902,0.603-1.504,0.603
				c-0.602,0-1.504,0.602-2.105,0.902l-2.106,0.602c-0.301,0-2.106,0.602-2.708,0.602c0,0-2.407,0.602-3.61,0.602
				c-0.301,0-2.708,0.301-3.61,0.301c-0.301,0-3.911,0.301-5.415,0.301c-2.407,0-5.114-0.301-7.521-0.602
				c-1.805-0.301-3.61-0.602-5.415-0.902s-3.911-0.902-5.716-1.805c-1.203-0.603-2.105-1.204-3.008-2.106
				c-0.602-0.602-1.504-1.504-1.805-2.406v3.008v3.009c0,1.203,0.902,2.707,1.805,3.31c3.911,2.707,8.123,4.211,12.636,4.512
				c3.008,0.603,6.017,0.603,9.326,0.603c4.513,0,9.025-0.603,13.237-1.505l0,0c2.407-0.602,4.513-1.504,6.619-2.707l0,0
				c0.602-0.301,0.902-0.602,1.504-0.902c0.903-0.603,1.504-1.505,1.805-2.407c0.301-0.301,0.301-0.902,0.301-1.203l0.301-5.114
				C422.638,172.985,422.638,172.684,422.638,172.383z"/>
		</g>
		<g>
			<path fill="#FFFFFF" d="M419.629,193.141c-1.504,0.902-3.309,1.805-5.114,2.406c-5.114,1.505-10.53,2.106-16.246,2.106
				c-2.708,0-5.415-0.301-8.123-0.602c-1.805-0.301-3.009-0.602-4.813-0.902l-2.407-0.603c-2.106-0.602-4.513-1.805-6.318-3.008
				c-0.602-0.602-1.203-1.203-1.805-1.806v1.806c0,0.602,0,3.008,0,3.008c0,1.204,0.903,2.708,1.805,3.31
				c3.61,2.708,8.123,4.212,12.635,4.813c3.009,0.602,6.017,0.602,9.025,0.602c4.513,0,9.025-0.602,13.237-1.504l0,0
				c2.407-0.602,4.513-1.504,6.618-2.708l0,0c2.106-1.203,3.61-3.008,3.61-4.513c0,0,0.301-4.813,0-5.114
				C421.435,191.336,420.532,192.239,419.629,193.141z"/>
		</g>
		<g>
			<path fill="#FFFFFF" d="M376.91,190.433c3.61,2.708,8.123,4.212,12.635,4.813c3.009,0.602,6.017,0.602,9.025,0.602
				c4.513,0,9.025-0.602,13.237-1.504l0,0c2.407-0.602,4.813-1.504,6.919-2.707l0,0c0.602-0.301,0.902-0.603,1.504-0.903
				c0.903-0.602,1.504-1.504,1.805-2.406c0.301-0.301,0.301-0.902,0.301-1.203c0,0,0-4.813,0-5.114
				c-0.902,0.902-2.708,4.211-12.034,6.017c-3.911,0.602-8.123,0.902-12.034,0.902c-7.521,0-15.343-1.504-18.953-3.61
				c-1.203-0.602-2.106-1.203-3.008-2.105c-0.602-0.602-0.902-1.203-1.504-1.806v2.407v3.31
				C375.104,188.628,375.707,189.831,376.91,190.433z"/>
		</g>
		<g>
			<path fill="#FFFFFF" d="M422.638,207.281c-0.902,1.203-1.805,2.105-3.008,2.707c-1.504,0.903-3.309,1.806-5.114,2.407
				c-5.114,1.504-10.53,2.105-16.246,2.105c-2.708,0-5.114-0.301-7.822-0.602c-1.504-0.301-3.31-0.602-4.813-0.902
				c-0.903-0.301-1.504-0.301-2.407-0.602c-2.106-0.602-4.513-1.504-6.318-3.009c-0.602-0.602-1.203-1.203-1.805-1.805v2.105
				c0,0.602,0,3.009,0,3.009c0,1.504,0.903,2.708,1.805,3.31c3.61,2.707,8.123,4.212,12.635,4.813
				c3.009,0.602,6.017,0.602,9.025,0.602c4.513,0,9.025-0.602,13.237-1.505l0,0c2.407-0.602,4.513-1.504,6.618-2.707l0,0
				c2.106-1.203,3.61-3.009,3.61-4.513C422.638,212.395,422.938,207.581,422.638,207.281z"/>
		</g>
		<g>
			<path fill="#FFFFFF" d="M389.545,212.094c3.009,0.301,6.017,0.602,9.326,0.602c4.513,0,9.025-0.602,13.237-1.504l0,0
				c2.407-0.602,4.513-1.505,6.619-2.708l0,0c0.602-0.301,0.902-0.602,1.504-0.902c0.903-0.602,1.504-1.504,1.805-2.407
				c0.301-0.301,0.301-0.902,0.301-1.203c0,0,0-4.813,0-5.114c-0.902,0.902-2.708,4.212-12.034,6.017
				c-3.911,0.602-8.123,0.903-12.034,0.903c-7.521,0-15.343-1.505-18.953-3.61c-1.203-0.602-2.106-1.203-3.008-2.106
				c-0.602-0.602-0.902-1.203-1.504-1.805v2.406v3.31c0,1.504,0.903,2.708,2.106,3.31
				C380.821,209.988,385.033,211.793,389.545,212.094z"/>
		</g>
	</g>
</g>
</svg>
