<?xml version="1.0" encoding="utf-8"?>
<!-- Generator: Adobe Illustrator 16.0.3, SVG Export Plug-In . SVG Version: 6.00 Build 0)  -->
<!DOCTYPE svg PUBLIC "-//W3C//DTD SVG 1.1//EN" "http://www.w3.org/Graphics/SVG/1.1/DTD/svg11.dtd" [
	<!ENTITY ns_extend "http://ns.adobe.com/Extensibility/1.0/">
	<!ENTITY ns_ai "http://ns.adobe.com/AdobeIllustrator/10.0/">
	<!ENTITY ns_graphs "http://ns.adobe.com/Graphs/1.0/">
	<!ENTITY ns_vars "http://ns.adobe.com/Variables/1.0/">
	<!ENTITY ns_imrep "http://ns.adobe.com/ImageReplacement/1.0/">
	<!ENTITY ns_sfw "http://ns.adobe.com/SaveForWeb/1.0/">
	<!ENTITY ns_custom "http://ns.adobe.com/GenericCustomNamespace/1.0/">
	<!ENTITY ns_adobe_xpath "http://ns.adobe.com/XPath/1.0/">
]>
<svg version="1.1" id="Layer_1" xmlns:x="&ns_extend;" xmlns:i="&ns_ai;" xmlns:graph="&ns_graphs;"
	 xmlns="http://www.w3.org/2000/svg" xmlns:xlink="http://www.w3.org/1999/xlink" x="0px" y="0px" width="301.527px"
	 height="301.526px" viewBox="276.078 76.336 301.527 301.526" enable-background="new 276.078 76.336 301.527 301.526"
	 xml:space="preserve">
<metadata>
	<sfw  xmlns="&ns_sfw;">
		<slices></slices>
		<sliceSourceBounds  width="301.527" height="301.526" y="122.638" x="275.578" bottomLeftOrigin="true"></sliceSourceBounds>
	</sfw>
</metadata>
<title>TARGET 1 B copy 4</title>
<g id="TARGETS">
	<g>
		<rect x="276.078" y="76.336" fill="#A21942" width="301.527" height="301.526"/>
	</g>
	<g>
		<g>
			<path fill="#FFFFFF" d="M409.666,212.15c2.544,0.955,5.407-0.636,6.361-3.181l0,0l4.771-13.358l7.315-2.545h0.318v21.947
				c0,5.089,1.59,9.859,6.679,11.132l1.591,0.318c0.954,0,1.59,0.318,2.544,0.318h24.491l6.68,12.723v0.317l2.545,4.453l2.226,4.453
				l0.318,0.318l0,0l2.545,4.771c1.59,3.181,5.407,4.453,8.588,2.862c3.181-1.59,4.453-5.406,2.862-8.587l-5.089-9.542v-0.318
				l-11.769-22.901c-0.954-2.226-3.181-3.498-5.726-3.181h-16.539l-0.318-20.674c-0.317-6.361-1.59-9.86-6.679-11.133
				c-2.545-0.317-4.771-0.317-7.316,0l-0.636,0.318l0,0l-19.72,6.361h-0.318l-0.636,0.318h-0.318
				c-0.954,0.636-1.59,1.59-2.227,2.544l-5.407,15.903C406.167,208.333,407.439,210.878,409.666,212.15z"/>
		</g>
		<g>
			<path fill="#FFFFFF" d="M429.703,267.176c17.176-0.318,31.171-14.313,31.171-31.489l0,0v-1.272h-7.634v1.272
				c0,13.041-10.814,23.537-23.854,23.537c-13.041,0-23.537-10.814-23.537-23.854c0-5.09,1.59-10.179,4.771-14.313l-5.725-4.771
				c-10.496,13.358-8.27,32.761,5.089,43.257c0,0,0,0,0.318,0.317C415.708,264.631,422.706,267.176,429.703,267.176L429.703,267.176
				z"/>
		</g>
		<g>
			<path fill="#FFFFFF" d="M427.795,164.441c0,6.679,5.407,12.086,12.087,12.086s12.086-5.407,12.086-12.086l0,0l0,0
				c0-0.955,0-1.591-0.317-2.545h-23.537C427.795,162.531,427.795,163.486,427.795,164.441z"/>
		</g>
		<g>
			<path fill="#FFFFFF" d="M453.24,154.899h-1.272c-0.954-3.499-3.181-6.361-6.361-7.952l-1.908,5.407v-8.27h-6.361v8.27
				l-2.227-5.726c-3.498,1.591-6.361,4.453-7.315,8.271h-1.272v4.452h27.036L453.24,154.899z"/>
		</g>
	</g>
	<g>
		<g>
			<path fill="#FFFFFF" d="M354.322,148.219c6.68,0,12.086-5.407,12.086-12.087c0-6.679-5.407-12.086-12.086-12.086
				c-6.679,0-12.086,5.407-12.086,12.086l0,0l0,0C342.235,142.812,347.643,148.219,354.322,148.219z"/>
		</g>
		<g>
			<path fill="#FFFFFF" d="M388.991,196.246l-10.178-32.761c0,0-3.499-9.542-11.769-9.542h-3.817l-8.27,13.678l-9.542-13.678h-3.817
				c-7.952,0-11.45,9.542-11.45,9.542l-9.86,33.079c-0.318,1.272-0.318,2.545,0,3.817h-1.272c-1.59,0-2.863,1.271-2.863,2.862l0,0
				l0,0v2.544h-9.542c-1.59,0-2.862,1.272-2.862,2.863l0,0v5.407c0,0.636,0,0.954,0.318,1.59c0.636,2.545,2.863,4.135,5.407,4.135
				h10.814v-2.227c0-0.636,0.636-1.271,1.272-1.59h2.227c0.636,0,1.272,0.636,1.272,1.272v2.227h10.814
				c2.544,0,4.771-1.591,5.407-4.136v4.136c-1.272,1.59-3.181,2.544-5.407,2.862H325.06v2.227c0,0.636-0.636,1.59-1.272,1.59h-2.544
				c-0.636,0-1.272-0.954-1.272-1.59v-2.227h-10.814c-2.226,0-4.135-0.954-5.407-2.862c0-0.318,0-0.318-0.318-0.318v14.313
				c0,1.591,1.272,2.863,2.863,2.863l0,0l0,0l32.761-0.318c0.318,0,0.954,0,1.272-0.318v25.764c0,3.499,2.862,6.361,6.361,6.361
				c3.499,0,6.361-2.862,6.361-6.361l-0.318-36.578h3.499l0.318,36.896c0,3.498,2.863,6.361,6.361,6.361s6.361-2.863,6.361-6.361
				l-0.318-36.578h13.041l-14.313-51.526c0,0-0.636-2.227,0.954-2.863c1.59-0.636,1.909,1.591,1.909,1.591l8.27,27.354
				c0,0,1.59,5.726,6.679,4.453C390.582,202.926,388.991,196.246,388.991,196.246z M317.744,205.471v-2.227
				c0-0.318,0.318-0.637,0.636-0.637h2.544c0.636,0.637,1.59,1.272,2.544,1.591c1.272,0.318,2.545,0.318,3.499-0.318v1.591H317.744z
				 M340.963,173.346l-8.587,32.125h-3.181v-2.545c0-0.318,0-0.636-0.318-0.954c0.636-0.636,0.954-1.272,1.272-2.227l7.952-27.354
				c0,0,0.318-2.227,1.908-1.591C341.599,171.438,340.963,173.346,340.963,173.346z"/>
		</g>
		<g>
			<path fill="#FFFFFF" d="M321.561,217.875h1.909c0.318,0,0.318,0,0.318,0.318v5.089c0,0.318,0,0.318-0.318,0.318h-1.909
				c-0.318,0-0.318,0-0.318-0.318v-5.089C321.243,217.875,321.243,217.875,321.561,217.875z"/>
		</g>
	</g>
	<g>
		<g>
			<path fill="#FFFFFF" d="M505.085,259.86c0,3.817,2.863,6.68,6.68,6.68s6.68-2.862,6.68-6.68v-5.089h-13.359V259.86z"/>
		</g>
		<g>
			<path fill="#FFFFFF" d="M528.94,266.539c3.498,0,6.68-2.862,6.68-6.361v-0.318l0,0v-5.089h-13.359v5.089
				c0,3.499,2.862,6.68,6.361,6.68C528.94,266.539,528.94,266.539,528.94,266.539z"/>
		</g>
		<g>
			<path fill="#FFFFFF" d="M491.408,175.254v27.672c0,2.545,2.227,4.771,4.771,4.771c2.544,0,4.771-2.227,4.771-4.771l0,0V174.3
				c0-0.954,0.318-2.544,2.227-2.544h4.771v-18.13h-1.909c-8.27,0.636-14.631,7.634-14.631,15.903V175.254z"/>
		</g>
		<g>
			<polygon fill="#FFFFFF" points="527.35,153.308 520.034,153.308 513.037,153.626 513.354,163.804 527.668,163.804 			"/>
		</g>
		<g>
			<path fill="#FFFFFF" d="M520.353,207.698L520.353,207.698c0.954,0,1.908,0.636,1.908,1.59v42.303h13.358l-0.317-76.972h-5.726
				v-7.634h-18.447v7.634h-6.361l0.317,77.29h13.359v-42.303C518.444,208.652,519.08,208.015,520.353,207.698L520.353,207.698z"/>
		</g>
		<g>
			<path fill="#FFFFFF" d="M532.757,165.076v6.68h4.453c1.908,0,2.227,1.59,2.227,2.544v28.626c0.318,2.545,2.545,4.453,5.089,4.135
				c2.227,0,4.135-1.908,4.135-4.135V169.53c0-8.27-6.361-15.268-14.631-15.903h-1.591L532.757,165.076L532.757,165.076z"/>
		</g>
		<g>
			<path fill="#FFFFFF" d="M531.484,165.076c0-0.636-0.636-1.272-1.271-1.272c-0.637,0-1.272,0.637-1.272,1.272l0,0l0,0
				c0,0.636,0.636,1.272,1.272,1.272C530.849,166.349,531.484,165.712,531.484,165.076z"/>
		</g>
		<g>
			<path fill="#FFFFFF" d="M512.083,165.076c0-0.636-0.637-1.272-1.272-1.272s-1.272,0.637-1.272,1.272l0,0l0,0
				c0,0.636,0.637,1.272,1.272,1.272l0,0C511.765,166.031,512.083,165.712,512.083,165.076z"/>
		</g>
		<g>
			<path fill="#FFFFFF" d="M519.716,147.265c6.998,0,12.723-5.726,12.723-12.723v-0.318c0-6.997-5.725-12.723-12.723-12.723h-0.317
				c-6.998,0-12.723,5.726-12.723,12.723v0.318l0,0c0,6.997,5.725,12.723,12.723,12.723
				C519.716,147.265,519.716,147.265,519.716,147.265z"/>
		</g>
	</g>
	<g>
		<g>
			<path fill="#FFFFFF" d="M548.343,291.031H305.021c-0.954,0-1.59,0.636-1.908,1.591v11.449c0,0.955,0.954,1.909,1.908,1.909
				H548.66c0.954,0,1.908-0.637,1.908-1.909l0,0v-11.449C550.251,291.666,549.614,291.031,548.343,291.031z"/>
		</g>
		<g>
			<path fill="#FFFFFF" d="M425.251,311.704l-16.858,29.263c-0.636,0.954,0,2.227,0.954,2.544c0.318,0,0.318,0.318,0.636,0.318
				h34.033c0.954,0,1.908-0.636,1.908-1.591c0-0.317,0-0.954-0.318-1.271l-16.857-29.263c-0.636-0.954-1.908-1.272-2.862-0.636
				C425.887,311.069,425.568,311.387,425.251,311.704z"/>
		</g>
	</g>
</g>
</svg>
