<?xml version="1.0" encoding="utf-8"?>
<!-- Generator: Adobe Illustrator 16.0.3, SVG Export Plug-In . SVG Version: 6.00 Build 0)  -->
<!DOCTYPE svg PUBLIC "-//W3C//DTD SVG 1.1//EN" "http://www.w3.org/Graphics/SVG/1.1/DTD/svg11.dtd" [
	<!ENTITY ns_extend "http://ns.adobe.com/Extensibility/1.0/">
	<!ENTITY ns_ai "http://ns.adobe.com/AdobeIllustrator/10.0/">
	<!ENTITY ns_graphs "http://ns.adobe.com/Graphs/1.0/">
	<!ENTITY ns_vars "http://ns.adobe.com/Variables/1.0/">
	<!ENTITY ns_imrep "http://ns.adobe.com/ImageReplacement/1.0/">
	<!ENTITY ns_sfw "http://ns.adobe.com/SaveForWeb/1.0/">
	<!ENTITY ns_custom "http://ns.adobe.com/GenericCustomNamespace/1.0/">
	<!ENTITY ns_adobe_xpath "http://ns.adobe.com/XPath/1.0/">
]>
<svg version="1.1" id="Layer_1" xmlns:x="&ns_extend;" xmlns:i="&ns_ai;" xmlns:graph="&ns_graphs;"
	 xmlns="http://www.w3.org/2000/svg" xmlns:xlink="http://www.w3.org/1999/xlink" x="0px" y="0px" width="500px" height="500.016px"
	 viewBox="177 -0.01 500 500.016" enable-background="new 177 -0.01 500 500.016" xml:space="preserve">
<metadata>
	<sfw  xmlns="&ns_sfw;">
		<slices></slices>
		<sliceSourceBounds  width="500" height="500.016" y="0.495" x="176.5" bottomLeftOrigin="true"></sliceSourceBounds>
	</sfw>
</metadata>
<title>Artboard 1</title>
<rect id="_Path_" x="177" y="-0.01" fill="#4C9F38" width="500" height="500.016"/>
<g>
	<path id="_Path_2" fill="#FFFFFF" d="M248.35,144.07c17.105,0,24.54-9.074,24.54-23.05v-14.865c0-9.22-4-15.17-12.5-17.1
		c7-2.229,11.595-7.885,11.595-16.354v-8.775c0-14.275-6.84-23.045-22.45-23.045c-17.55,0-23.65,10.399-23.65,25.274v8.921h15.465
		V64.815c0-6.245,1.94-9.81,7.29-9.81s7.28,3.564,7.28,9.064v10.855c0,5.354-3.565,8.175-9.06,8.175h-6.4v12.945h7.14
		c5.945,0,8.32,2.819,8.32,8.175v16.655c0,5.35-2.375,9.075-7.58,9.075c-5.795,0-7.88-3.875-7.88-9.82v-14.42H225v13.229
		c0,15.32,6.09,25.13,23.335,25.13"/>
	<g>
		<path id="_Path_3" fill="#FFFFFF" d="M594.63,312.5c0-14.07-9-25.5-22.7-25.5c-6.835,0-15.085,7.5-19.564,12.095
			c-4.5-4.615-12.181-12.105-19-12.105c-13.67,0-23.255,11.405-23.255,25.5c-0.021,6.717,2.582,13.176,7.255,18l0,0l35.05,35.115
			l35-35.075l-0.03-0.024C592.054,325.676,594.653,319.216,594.63,312.5z"/>
		<g id="_Group_">
			<path id="_Path_4" fill="#FFFFFF" d="M445.405,422.94h-0.36c-2.665-0.16-4.868-2.137-5.314-4.77l-17.806-103.705l-26.97,50
				c-1.51,2.796-5.002,3.839-7.798,2.328c-1.604-0.865-2.702-2.439-2.962-4.243l-11.45-80.025l-20.945,47.05
				c-0.924,2.079-2.984,3.421-5.26,3.426h-81.415c-3.176-0.188-5.598-2.914-5.411-6.09c0.172-2.914,2.497-5.238,5.411-5.41H342.8
				l27.555-61.886c1.289-2.905,4.689-4.216,7.594-2.927c1.806,0.801,3.075,2.473,3.361,4.427l11.805,82.5L419.71,294.3
				c1.516-2.797,5.011-3.836,7.809-2.321c1.55,0.84,2.631,2.344,2.932,4.081l16.5,96.035L507.025,192.5
				c0.92-3.046,4.134-4.769,7.18-3.848c1.542,0.466,2.819,1.557,3.52,3.008l31.615,65.545c1.435,2.836,0.299,6.298-2.537,7.732
				c-2.837,1.435-6.299,0.299-7.733-2.537c-0.033-0.064-0.064-0.13-0.095-0.195L513.785,210L450.91,418.84
				C450.182,421.272,447.944,422.939,445.405,422.94z"/>
		</g>
	</g>
	<g id="_Group_2">
		<path id="_Compound_Path_" fill="#FFFFFF" d="M330.115,60.895h9.77V82.72h-4.945v-4.465c-0.905,3.075-2.835,4.945-6.57,4.945
			c-5.91,0-8.62-4.7-8.62-11.03V52.395c0-6.39,3.075-11.03,10.305-11.03c7.595,0,9.83,4.221,9.83,10.25v3.615h-6.27v-4.16
			c0-2.529-0.965-4-3.435-4c-2.47,0-3.56,1.75-3.56,4.221v21.944c0,2.471,1.025,4.221,3.375,4.221c2.23,0,3.38-1.266,3.38-3.92
			V66.32h-3.26V60.895z"/>
		<path id="_Compound_Path_2" fill="#FFFFFF" d="M344.4,72.17V52.395c0-6.39,3.135-11.03,10.37-11.03S365.2,46,365.2,52.395V72.17
			c0,6.33-3.135,11.03-10.43,11.03S344.4,78.5,344.4,72.17z M358.325,73.255V51.31c0-2.47-1.085-4.22-3.555-4.22s-3.5,1.75-3.5,4.22
			v21.945c0,2.47,1.085,4.22,3.5,4.22S358.325,75.725,358.325,73.255z"/>
		<path id="_Compound_Path_3" fill="#FFFFFF" d="M369.72,72.17V52.395c0-6.39,3.135-11.03,10.37-11.03
			c7.235,0,10.41,4.636,10.41,11.03V72.17c0,6.33-3.135,11.03-10.425,11.03S369.72,78.5,369.72,72.17z M383.645,73.255V51.31
			c0-2.47-1.085-4.22-3.555-4.22c-2.47,0-3.5,1.75-3.5,4.22v21.945c0,2.47,1.085,4.22,3.5,4.22S383.645,75.725,383.645,73.255z"/>
		<path id="_Compound_Path_4" fill="#FFFFFF" d="M415.59,52.82v18.926c0,6.27-2.59,10.975-9.945,10.975h-10.61V41.85h10.61
			C413,41.85,415.59,46.5,415.59,52.82z M404.8,77.11c2.835,0,3.92-1.685,3.92-4.159V51.555c0-2.415-1.085-4.1-3.92-4.1h-2.89V77.11
			H404.8z"/>
		<path id="_Compound_Path_5" fill="#FFFFFF" d="M442.96,64.695h-6.63V82.72h-6.875V41.85h6.875v17.3h6.63v-17.3h6.93v40.87h-6.93
			V64.695z"/>
		<path id="_Compound_Path_6" fill="#FFFFFF" d="M454.41,41.85h16.399v5.605h-9.5V59.15h6.811v5.545h-6.835V77.11h9.5v5.61h-16.4
			L454.41,41.85z"/>
		<path id="_Compound_Path_7" fill="#FFFFFF" d="M474,82.72l7.72-40.87h7.835l7.775,40.87h-7.055L489,75.245h-7.28l-1.22,7.475H474z
			 M482.62,69.76h5.5l-2.71-16.4h-0.061L482.62,69.76z"/>
		<path id="_Compound_Path_8" fill="#FFFFFF" d="M500.765,41.85h6.87v35.26h8.2v5.61h-15.07V41.85z"/>
		<path id="_Compound_Path_9" fill="#FFFFFF" d="M514.87,41.85h18.265v5.605h-5.665V82.72h-6.935V47.455h-5.665V41.85z"/>
		<path id="_Compound_Path_10" fill="#FFFFFF" d="M550.435,64.695h-6.63V82.72h-6.87V41.85h6.87v17.3h6.63v-17.3h6.931v40.87h-6.931
			V64.695z"/>
	</g>
	<g id="_Group_3">
		<path id="_Compound_Path_11" fill="#FFFFFF" d="M318.715,142.645l7.715-40.87h7.835l7.775,40.87H335l-1.265-7.5h-7.305l-1.205,7.5
			H318.715z M327.335,129.685h5.5l-2.715-16.395h-0.06L327.335,129.685z"/>
		<path id="_Compound_Path_12" fill="#FFFFFF" d="M351.265,116.965v25.68H345.5v-40.87h6.755l7.41,23.45v-23.45h5.73v40.87h-6.055
			L351.265,116.965z"/>
		<path id="_Compound_Path_13" fill="#FFFFFF" d="M390.445,112.75v18.925c0,6.27-2.59,10.97-9.945,10.97h-10.61v-40.87h10.61
			C387.855,101.775,390.445,106.42,390.445,112.75z M379.655,137.04c2.835,0,3.92-1.686,3.92-4.16V111.5
			c0-2.41-1.085-4.096-3.92-4.096h-2.896v29.655L379.655,137.04z"/>
		<path id="_Compound_Path_14" fill="#FFFFFF" d="M416.725,117.39l-3.855,25.255h-6.45l-5.5-40.87h6.63l3.195,25.92h0.06
			l3.435-25.92h5.605l3.8,25.92h0.06l3.135-25.92h5.785l-5.305,40.87h-6.5l-4.04-25.255H416.725z"/>
		<path id="_Compound_Path_15" fill="#FFFFFF" d="M436.195,101.775h16.395v5.61h-9.5v11.69h6.811v5.55h-6.83v12.415h9.5v5.604
			h-16.375V101.775z"/>
		<path id="_Compound_Path_16" fill="#FFFFFF" d="M456.87,101.775h6.875v35.266h8.195v5.604h-15.07V101.775z"/>
		<path id="_Compound_Path_17" fill="#FFFFFF" d="M475.68,101.775h6.87v35.266h8.2v5.604h-15.07V101.775z"/>
		<path id="_Compound_Path_18" fill="#FFFFFF" d="M489.845,118.5h9.655v5.5h-9.655V118.5z"/>
		<path id="_Compound_Path_19" fill="#FFFFFF" d="M503.59,101.775h9.945c6.87,0,9.16,3.195,9.16,9v4.16
			c0,3.436-1.266,5.605-4.096,6.5c3.436,0.78,5.12,3.07,5.12,6.811v5.425c0,5.785-2.59,9-9.46,9h-10.67V101.775z M510.46,119h2.41
			c2.229,0,3.255-1.146,3.255-3.315v-5c0-2.229-1-3.314-3.315-3.314h-2.35V119z M510.46,124.245v12.779h3
			c2.29,0,3.375-1.145,3.375-3.314v-6.15c0-2.17-1.025-3.314-3.435-3.314H510.46z"/>
		<path id="_Compound_Path_20" fill="#FFFFFF" d="M527.76,101.775h16.396v5.61h-9.5v11.69h6.814v5.55h-6.84v12.415h9.5v5.604h-16.37
			V101.775z"/>
		<path id="_Compound_Path_21" fill="#FFFFFF" d="M548.435,101.775h6.87v40.87h-6.87V101.775z"/>
		<path id="_Compound_Path_22" fill="#FFFFFF" d="M565.675,116.965v25.68h-5.785v-40.87h6.75l7.415,23.45v-23.45h5.726v40.87h-6
			L565.675,116.965z"/>
		<path id="_Compound_Path_23" fill="#FFFFFF" d="M594.67,120.825h9.765v21.819H599.5v-4.46c-0.905,3.075-2.83,4.945-6.57,4.945
			c-5.904,0-8.62-4.705-8.62-11.035v-19.77c0-6.391,3.075-11.03,10.311-11.03c7.595,0,9.825,4.22,9.825,10.245v3.62h-6.28V111
			c0-2.53-0.965-4-3.436-4c-2.47,0-3.56,1.75-3.56,4.22v21.945c0,2.47,1,4.215,3.38,4.215c2.23,0,3.375-1.266,3.375-3.915v-7.215
			h-3.255V120.825z"/>
	</g>
</g>
</svg>
