<?xml version="1.0" encoding="utf-8"?>
<!-- Generator: Adobe Illustrator 16.0.3, SVG Export Plug-In . SVG Version: 6.00 Build 0)  -->
<!DOCTYPE svg PUBLIC "-//W3C//DTD SVG 1.1//EN" "http://www.w3.org/Graphics/SVG/1.1/DTD/svg11.dtd" [
	<!ENTITY ns_extend "http://ns.adobe.com/Extensibility/1.0/">
	<!ENTITY ns_ai "http://ns.adobe.com/AdobeIllustrator/10.0/">
	<!ENTITY ns_graphs "http://ns.adobe.com/Graphs/1.0/">
	<!ENTITY ns_vars "http://ns.adobe.com/Variables/1.0/">
	<!ENTITY ns_imrep "http://ns.adobe.com/ImageReplacement/1.0/">
	<!ENTITY ns_sfw "http://ns.adobe.com/SaveForWeb/1.0/">
	<!ENTITY ns_custom "http://ns.adobe.com/GenericCustomNamespace/1.0/">
	<!ENTITY ns_adobe_xpath "http://ns.adobe.com/XPath/1.0/">
]>
<svg version="1.1" id="Layer_1" xmlns:x="&ns_extend;" xmlns:i="&ns_ai;" xmlns:graph="&ns_graphs;"
	 xmlns="http://www.w3.org/2000/svg" xmlns:xlink="http://www.w3.org/1999/xlink" x="0px" y="0px" width="301.719px"
	 height="301.719px" viewBox="275.981 76.384 301.719 301.719" enable-background="new 275.981 76.384 301.719 301.719"
	 xml:space="preserve">
<metadata>
	<sfw  xmlns="&ns_sfw;">
		<slices></slices>
		<sliceSourceBounds  width="301.719" height="301.719" y="122.397" x="275.481" bottomLeftOrigin="true"></sliceSourceBounds>
	</sfw>
</metadata>
<title>TARGET 1 B copy 6</title>
<g id="TARGETS">
	<g>
		<rect x="275.981" y="76.384" fill="#A21942" width="301.719" height="301.719"/>
	</g>
	<g>
		<g>
			<polygon fill="#FFFFFF" points="313.855,187.46 309.082,187.46 309.082,283.896 378.146,283.896 378.146,278.167 
				313.855,278.167 			"/>
		</g>
		<g>
			<path fill="#FFFFFF" d="M319.266,272.119h69.064v-96.117h-69.064V272.119z M327.859,218.651c0,0,0.318-0.318,0.637-0.318h50.923
				c0.318,0,0.637,0.318,0.637,0.318v8.274c0,0.318-0.318,0.318-0.637,0.318h-50.923c-0.318,0-0.637,0-0.637-0.318V218.651z
				 M327.859,232.973c0-0.318,0.318-0.318,0.637-0.318h50.923c0.318,0,0.637,0,0.637,0.318v8.274c0,0-0.318,0.318-0.637,0.318
				h-50.923c-0.318,0-0.637,0-0.637-0.318V232.973z M327.859,247.294c0-0.317,0.318-0.317,0.637-0.317h50.923
				c0.318,0,0.637,0,0.637,0.317v8.275c0,0.318-0.318,0.318-0.637,0.318h-50.923c-0.318,0-0.637,0-0.637-0.318V247.294z"/>
		</g>
	</g>
	<g>
		<g>
			<g>
				<path fill="#FFFFFF" d="M526.777,168.682c0-6.365-5.093-11.457-11.458-11.457s-11.457,5.092-11.457,11.457
					c0,6.366,5.092,11.458,11.457,11.458l0,0C521.685,180.14,526.777,175.048,526.777,168.682z"/>
			</g>
			<g>
				<path fill="#FFFFFF" d="M492.404,228.517l5.729-19.732l-8.593-4.774l-6.684,21.643c0,0-1.592,5.729,3.183,7.002
					C490.813,233.927,492.404,228.517,492.404,228.517z"/>
			</g>
			<g>
				<path fill="#FFFFFF" d="M529.005,201.146c1.592-0.318,1.91,1.592,1.91,1.592l0.954,3.818l8.594-4.773l-2.228-7.32
					c0,0-3.501-8.911-10.821-8.911h-24.188c-7.639,0-10.821,8.911-10.821,8.911l-2.228,6.684l8.593,4.774l0.955-3.183
					c0,0,0.318-1.91,1.909-1.592c1.592,0.318,0.955,2.546,0.955,2.546l-13.367,48.059h12.412v34.691
					c0,3.183,2.547,6.047,6.047,6.047c3.184,0,6.048-2.546,6.048-6.047v-34.373h3.501v34.373c0,3.183,2.546,6.047,6.047,6.047
					c3.183,0,6.047-2.546,6.047-6.047v-34.373h12.413l-13.687-48.377C528.05,203.692,527.414,201.464,529.005,201.146z"/>
			</g>
			<g>
				<path fill="#FFFFFF" d="M548.102,225.334l-6.366-21.006l-8.911,4.774l5.729,19.414c0,0,1.592,5.41,6.366,4.138
					C549.692,231.381,548.102,225.334,548.102,225.334z"/>
			</g>
			<g>
				<path fill="#FFFFFF" d="M502.907,164.864h-1.273c2.229-7.639,10.185-12.413,17.823-10.185
					c5.093,1.272,8.911,5.092,10.185,10.185h-1.592v7.638h2.229c-0.637,2.547-1.91,5.093-3.819,6.684
					c-0.318-0.636-1.273-0.636-1.909-0.636l-4.456,1.909c-0.637,0.318-1.273,1.273-0.955,1.909l0,0l0.318,0.955
					c0.318,0.637,1.273,1.273,1.909,0.955l0,0l4.138-1.592c0.637-0.318,1.273-1.272,0.955-1.909l0,0v-0.955
					c2.228-1.909,3.501-4.455,4.456-7.32h2.228v-7.638h-2.228c-2.229-8.594-11.14-13.686-19.415-11.14
					c-5.41,1.591-9.866,5.729-11.139,11.14h-2.547v7.638h5.093V164.864z"/>
			</g>
		</g>
		<g>
			<g>
				<path fill="#FFFFFF" d="M432.569,286.123c0,3.501,2.865,6.365,6.366,6.365s6.365-2.864,6.365-6.365v-4.773h-13.05v4.773H432.569
					z"/>
			</g>
			<g>
				<path fill="#FFFFFF" d="M449.12,286.123c0,3.501,2.864,6.365,6.365,6.365s6.365-2.864,6.365-6.365v-4.773h-13.049v4.773H449.12z
					"/>
			</g>
			<g>
				<path fill="#FFFFFF" d="M435.752,196.69v-13.049h-0.954h-0.955c-7.957,0.637-14.004,7.32-14.004,15.277v32.145
					c0,2.547,1.91,4.456,4.456,4.456s4.456-1.909,4.456-4.456v-27.689c0-0.954,0.317-2.546,2.228-2.546h4.773V196.69z"/>
			</g>
			<g>
				<polygon fill="#FFFFFF" points="440.526,193.825 454.53,193.825 454.53,183.641 447.21,183.641 440.526,183.641 				"/>
			</g>
			<g>
				<path fill="#FFFFFF" d="M457.713,204.01h-1.273v-7.32h-17.822v7.32h-6.048v74.156h13.05v-40.42c0-0.954,0.636-1.909,1.591-1.909
					c0,0,0,0,0.318,0l0,0c0.955,0,1.909,0.637,1.909,1.591v0.318v40.42h13.05V204.01H457.713z"/>
			</g>
			<g>
				<path fill="#FFFFFF" d="M460.896,183.641h-0.955h-0.636v17.505h4.455c1.91,0,2.229,1.273,2.229,2.546v27.689
					c0.318,2.546,2.546,4.456,4.773,4.138c2.229-0.318,3.819-1.909,4.138-4.138v-32.463
					C474.899,190.961,468.853,184.278,460.896,183.641z"/>
			</g>
			<g>
				<path fill="#FFFFFF" d="M455.485,194.462c0,0.637,0.637,1.273,1.272,1.273c0.637,0,1.273-0.637,1.273-1.273
					s-0.637-1.273-1.273-1.273l0,0C456.122,193.189,455.485,193.825,455.485,194.462z"/>
			</g>
			<g>
				<path fill="#FFFFFF" d="M437.025,194.462c0,0.637,0.637,1.273,1.273,1.273l0,0c0.637,0,1.272-0.955,1.272-1.592
					s-0.636-0.955-1.272-1.273C437.662,193.189,437.025,193.825,437.025,194.462z"/>
			</g>
			<g>
				<path fill="#FFFFFF" d="M454.849,165.181c-0.955-0.954-1.91-1.591-3.501-0.954c-0.955,0.637-1.592,0.954-2.864,1.591
					c-2.547,0.955-5.093,1.91-7.639,2.229c-1.909,0.318-4.138,0.636-6.047,0.318c0.637,6.684,6.365,11.457,13.049,10.82
					c5.729-0.636,10.185-5.092,10.821-10.503C457.713,167.409,456.439,166.136,454.849,165.181z"/>
			</g>
			<g>
				<path fill="#FFFFFF" d="M434.798,165.818c1.909,0,3.819,0,5.729-0.318c2.228-0.318,4.774-1.272,6.684-2.228
					c1.273-0.637,2.546-0.955,3.819-1.591c0.637-0.318,1.592-0.637,2.546-0.318c0.318,0.318,0.637,0.318,0.955,0.636
					c0.637,0.318,0.637,0.637,0.955,0.955s0.318,0.318,3.183,2.546c0.318,0.318,0.637,0.637,0.954,0.318
					c0.318-0.318,0.318-2.228,0.318-3.183c-0.318-3.183-1.591-6.047-3.501-8.274c-0.636-0.955-1.591-1.273-2.546-1.273
					c-1.591,0.318-1.591-0.955-2.546-1.592c-3.501-1.272-7.639-0.636-10.503,1.592c-3.501,2.864-6.047,6.684-7.957,10.821
					C432.251,165.181,433.524,165.818,434.798,165.818z"/>
			</g>
		</g>
	</g>
</g>
</svg>
