<?xml version="1.0" encoding="utf-8"?>
<!-- Generator: Adobe Illustrator 16.0.3, SVG Export Plug-In . SVG Version: 6.00 Build 0)  -->
<!DOCTYPE svg PUBLIC "-//W3C//DTD SVG 1.1//EN" "http://www.w3.org/Graphics/SVG/1.1/DTD/svg11.dtd" [
	<!ENTITY ns_extend "http://ns.adobe.com/Extensibility/1.0/">
	<!ENTITY ns_ai "http://ns.adobe.com/AdobeIllustrator/10.0/">
	<!ENTITY ns_graphs "http://ns.adobe.com/Graphs/1.0/">
	<!ENTITY ns_vars "http://ns.adobe.com/Variables/1.0/">
	<!ENTITY ns_imrep "http://ns.adobe.com/ImageReplacement/1.0/">
	<!ENTITY ns_sfw "http://ns.adobe.com/SaveForWeb/1.0/">
	<!ENTITY ns_custom "http://ns.adobe.com/GenericCustomNamespace/1.0/">
	<!ENTITY ns_adobe_xpath "http://ns.adobe.com/XPath/1.0/">
]>
<svg version="1.1" id="Layer_1" xmlns:x="&ns_extend;" xmlns:i="&ns_ai;" xmlns:graph="&ns_graphs;"
	 xmlns="http://www.w3.org/2000/svg" xmlns:xlink="http://www.w3.org/1999/xlink" x="0px" y="0px" width="270.548px"
	 height="270.548px" viewBox="291.583 68.493 270.548 270.548" enable-background="new 291.583 68.493 270.548 270.548"
	 xml:space="preserve">
<metadata>
	<sfw  xmlns="&ns_sfw;">
		<slices></slices>
		<sliceSourceBounds  width="270.548" height="270.548" y="161.459" x="291.083" bottomLeftOrigin="true"></sliceSourceBounds>
	</sfw>
</metadata>
<title>TARGET 1 B copy 12</title>
<g id="TARGETS">
	<g>
		<rect x="291.583" y="68.493" fill="#0A97D9" width="270.548" height="270.548"/>
	</g>
	<g>
		<g>
			<g>
				<path fill="#FFFFFF" d="M362.645,206.335L362.645,206.335L362.645,206.335z"/>
			</g>
			<g>
				<polygon fill="#FFFFFF" points="362.645,206.335 369.209,229.452 375.773,206.335 				"/>
			</g>
			<g>
				<path fill="#FFFFFF" d="M375.487,106.164c0-3.71-2.854-6.563-6.564-6.563c-3.71,0-6.564,2.854-6.564,6.563v97.032h13.128
					V106.164z"/>
			</g>
		</g>
		<g>
			<path fill="#FFFFFF" d="M498.775,218.322l-39.099-73.345v-37.386h4.566c1.142,0,2.283-1.142,2.283-2.283l0,0v-3.424
				c0-1.142-1.142-2.283-2.283-2.283h-34.246c-1.142,0-2.283,1.142-2.283,2.283v3.424c0,1.142,0.855,2.283,2.283,2.283l0,0h4.565
				v37.386l-38.813,73.345c-1.998,3.425-0.856,7.991,2.568,10.274c1.142,0.57,2.569,1.142,3.71,1.142h90.183
				c3.996,0,7.42-3.14,7.42-7.42C499.631,220.891,499.346,219.463,498.775,218.322z M453.398,210.902c0-3.71,3.14-6.563,6.563-6.563
				c3.425,0,6.564,3.139,6.564,6.563c0,3.71-3.14,6.564-6.564,6.564l0,0C456.538,217.751,453.398,214.612,453.398,210.902z
				 M470.807,201.484c-2.282,0-3.995-1.712-3.995-3.995s1.713-3.995,3.995-3.995c2.283,0,3.996,1.712,3.996,3.995
				S473.09,201.77,470.807,201.484C470.807,201.77,470.807,201.77,470.807,201.484L470.807,201.484z M438.272,145.833v-38.242
				h17.979v38.242l14.27,26.541c-3.139,4.852-12.842,18.551-24.258,21.119c-9.418,1.997-25.114-3.71-30.251-5.423L438.272,145.833z"
				/>
		</g>
		<g>
			<g>
				<path fill="#FFFFFF" d="M535.59,259.418L535.59,259.418l-0.855,0.285c-15.696,8.562-35.104,5.708-47.945-6.564
					c-0.286-0.285-0.571-0.57-1.142-0.57c-0.571,0-0.571,0.285-1.142,0.57c-5.708,4.566-32.534,22.546-56.507,0.286l-0.285-0.286
					c-0.286-0.285-0.571-0.285-0.856-0.285s-0.571,0-0.856,0.285l-0.285,0.286c-23.688,22.26-50.514,3.995-56.507-0.286
					c-0.286-0.285-0.571-0.57-1.142-0.57s-0.856,0.285-1.142,0.57c-12.842,12.558-32.249,15.126-47.945,6.85l-0.571-0.285h-0.285
					c-0.856,0-1.427,0.57-1.427,1.427l0,0v9.418c0,0.285,0.286,0.57,0.286,0.856c22.545,19.691,43.95,1.142,48.801-3.711
					c0.286-0.285,0.286-0.285,0.571-0.57c0.286,0,0.286-0.285,0.571-0.285c0.286,0,0.571,0.285,0.856,0.285
					c25.399,24.258,52.226,4.566,57.648,0l0.57-0.57c0-0.286,0.285-0.286,0.571-0.286c0.285,0,0.285,0,0.57,0.286l0.571,0.57
					c5.707,4.566,32.248,24.258,57.648,0l0,0c0.285-0.285,0.57-0.285,0.855-0.285c0.286,0,0.571,0,0.856,0.285
					c0.285,0,0.285,0.285,0.285,0.285c4.852,4.852,26.256,23.116,48.802,3.71c0.285-0.285,0.285-0.57,0.285-0.855v-9.418
					C537.018,259.989,536.161,259.418,535.59,259.418"/>
			</g>
			<g>
				<path fill="#FFFFFF" d="M535.59,287.956L535.59,287.956l-0.855,0.286c-6.85,3.424-28.539,11.7-47.945-6.85
					c-0.286-0.285-0.571-0.571-1.142-0.571c-0.571,0-0.571,0.286-1.142,0.571c-5.708,4.566-32.534,22.545-56.507,0.285l-0.285-0.285
					c-0.286-0.285-0.571-0.285-0.856-0.285s-0.571,0-0.856,0.285l-0.285,0.285c-23.688,22.26-50.514,3.995-56.507-0.285
					c-0.286-0.285-0.571-0.571-1.142-0.571s-0.856,0.286-1.142,0.571c-19.406,18.55-41.096,10.273-47.945,6.85
					c-0.285,0-0.571-0.286-0.571-0.286h-0.285c-0.856,0-1.427,0.571-1.427,1.428l0,0v9.417c0,0.285,0.286,0.571,0.286,0.856
					c22.545,19.691,43.95,1.142,48.801-3.71c0-0.285,0.286-0.285,0.571-0.57c0.286,0,0.286-0.286,0.571-0.286
					c0.286,0,0.856,0.286,0.856,0.571c25.399,24.258,52.226,4.565,57.648,0l0.57-0.571c0,0,0.285-0.285,0.571-0.285
					c0.285,0,0.285,0,0.57,0.285l0.571,0.571c5.707,4.565,32.248,24.258,57.648,0l0,0c0.285-0.285,0.57-0.285,0.855-0.285
					c0.286,0,0.571,0,0.856,0.285c0.285,0,0.285,0.285,0.285,0.285c4.852,4.852,26.256,23.116,48.802,3.71
					c0.285-0.285,0.285-0.571,0.285-0.856v-9.417C537.018,288.528,536.161,287.956,535.59,287.956"/>
			</g>
		</g>
	</g>
</g>
</svg>
