<?xml version="1.0" encoding="utf-8"?>
<!-- Generator: Adobe Illustrator 16.0.3, SVG Export Plug-In . SVG Version: 6.00 Build 0)  -->
<!DOCTYPE svg PUBLIC "-//W3C//DTD SVG 1.1//EN" "http://www.w3.org/Graphics/SVG/1.1/DTD/svg11.dtd" [
	<!ENTITY ns_extend "http://ns.adobe.com/Extensibility/1.0/">
	<!ENTITY ns_ai "http://ns.adobe.com/AdobeIllustrator/10.0/">
	<!ENTITY ns_graphs "http://ns.adobe.com/Graphs/1.0/">
	<!ENTITY ns_vars "http://ns.adobe.com/Variables/1.0/">
	<!ENTITY ns_imrep "http://ns.adobe.com/ImageReplacement/1.0/">
	<!ENTITY ns_sfw "http://ns.adobe.com/SaveForWeb/1.0/">
	<!ENTITY ns_custom "http://ns.adobe.com/GenericCustomNamespace/1.0/">
	<!ENTITY ns_adobe_xpath "http://ns.adobe.com/XPath/1.0/">
]>
<svg version="1.1" id="Layer_1" xmlns:x="&ns_extend;" xmlns:i="&ns_ai;" xmlns:graph="&ns_graphs;"
	 xmlns="http://www.w3.org/2000/svg" xmlns:xlink="http://www.w3.org/1999/xlink" x="0px" y="0px" width="301.719px"
	 height="301.719px" viewBox="275.981 76.384 301.719 301.719" enable-background="new 275.981 76.384 301.719 301.719"
	 xml:space="preserve">
<metadata>
	<sfw  xmlns="&ns_sfw;">
		<slices></slices>
		<sliceSourceBounds  width="301.719" height="301.719" y="122.397" x="275.481" bottomLeftOrigin="true"></sliceSourceBounds>
	</sfw>
</metadata>
<title>TARGET 1 A</title>
<g id="TARGETS">
	<g>
		<rect x="275.981" y="76.384" fill="#26BDE2" width="301.719" height="301.719"/>
	</g>
	<g>
		<g>
			<path fill="#FFFFFF" d="M548.42,295.035h-0.318l-0.637,0.317l-0.637,0.637l0,0l-0.637,0.637l-0.318,0.318
				c-9.866,6.365-33.418,16.868-56.97-0.955h-0.637l-0.318-0.318h-0.318c-4.137-3.183-7.002-7.638-8.593-12.73
				c-1.592-7.639,12.73-13.367,12.73-13.367c34.691-12.73,50.286-16.868,23.233-34.373c-12.73-7.957-13.367-9.548-27.053-18.46
				c-11.457-7.319,5.729-5.729,17.187-13.367c3.501-1.909,4.774-6.047,2.864-9.548l38.829,57.925h7.957l-2.229-3.819l-66.199-98.663
				l-21.961,32.146l-58.243-80.204L298.579,251.75h8.275l69.383-96.754l49.013,18.46l15.277-13.686l24.188,33.418l22.278-31.826
				l18.46,27.689c1.273,2.546,5.093,12.094-12.73,15.595c-30.235,6.365-16.55,15.913-5.729,22.597
				c26.735,16.551,26.735,20.688,6.366,27.371c-5.093,1.592-9.866,3.501-14.641,5.729c-11.14,4.455-16.868,12.73-16.868,20.369
				c0,2.228,0.318,4.455,0.955,6.684c0.317,1.591,7.002,24.506-20.052,17.187c-5.41-2.229-10.503-4.774-14.958-8.275l-0.637-0.318
				h-0.318c-0.318,0-0.318,0-0.637,0.318h-0.318l-0.636,0.637c-8.275,5.729-34.374,20.688-57.607-0.955l-0.318-0.637
				c-0.318-0.317-0.637-0.317-0.955-0.317c-0.318,0-0.636,0-0.955,0.317l-0.318,0.318c-23.552,21.961-49.968,6.365-57.925,0.637
				l-0.637-0.318h-0.318c-0.637,0-1.273,0.637-1.273,1.273v13.049c0,0.318,0,0.637,0.318,0.955l0.637,0.636
				c26.416,23.234,53.469,3.184,59.198-1.591l0.637-0.637c0.318,0,0.318,0,0.636,0c0.318,0,0.318,0,0.637,0l0.637,0.637
				c5.729,4.774,32.782,24.825,59.198,1.272c24.825,22.279,50.286,5.729,58.243-0.317c1.592,0.954,2.546,1.591,2.546,1.591
				c7.32,4.138,15.277,7.32,23.234,8.912c10.185,2.546,21.005,0.954,29.599-4.774c2.864-1.592,5.729-3.183,8.274-5.41l0.955-0.637
				c0.318-0.318,0.318-0.637,0.318-0.955v-13.686C549.692,295.671,549.056,295.035,548.42,295.035L548.42,295.035z"/>
		</g>
		<g>
			<path fill="#FFFFFF" d="M390.24,272.756h4.456c0.318,0,0.318,0,0.318-0.318v-9.866h10.503c0.318,0,0.636-0.318,0.636-0.637l0,0
				v-0.318l-13.049-42.011l0,0c0-0.318-0.318-0.318-0.637-0.318s-0.318,0-0.636,0.318v0.317l-13.049,41.693v0.318
				c0,0.318,0.318,0.637,0.637,0.637l0,0h10.503L390.24,272.756C389.922,272.438,389.922,272.438,390.24,272.756z"/>
		</g>
		<g>
			<path fill="#FFFFFF" d="M356.822,272.756h4.138c0.318,0,0.318,0,0.318-0.318v-9.866h10.503c0.318,0,0.637-0.318,0.637-0.637l0,0
				v-0.318l-12.731-42.011l0,0c0-0.318-0.318-0.318-0.636-0.318s-0.318,0-0.637,0.318l0,0l-13.049,41.692v0.318
				c0,0.318,0.318,0.637,0.636,0.637l0,0h10.503L356.822,272.756C356.503,272.438,356.503,272.438,356.822,272.756z"/>
		</g>
		<g>
			<path fill="#FFFFFF" d="M423.34,272.756h4.456c0.318,0,0.318,0,0.318-0.318v-9.866h10.503c0.317,0,0.636-0.318,0.636-0.637
				v-0.318l-13.049-42.011l0,0c-0.318-0.318-0.637-0.318-0.954-0.318l-0.318,0.318v0.317l-13.049,41.375v0.318
				c0,0.318,0.318,0.637,0.636,0.637l0,0h10.503L423.34,272.756C423.021,272.438,423.021,272.438,423.34,272.756z"/>
		</g>
		<g>
			<path fill="#FFFFFF" d="M356.503,331.318c-1.91,0-3.183,1.272-3.183,3.183c0,1.909,1.273,3.183,3.183,3.183
				s3.183-1.273,3.183-3.183C359.686,332.59,358.413,331.318,356.503,331.318z"/>
		</g>
		<g>
			<path fill="#FFFFFF" d="M371.144,328.772c0-1.273-0.955-2.547-2.546-2.547c-1.273,0-2.546,0.955-2.546,2.547
				c0,1.272,0.955,2.546,2.546,2.546l0,0C369.871,331.318,371.144,330.363,371.144,328.772z"/>
		</g>
		<g>
			<path fill="#FFFFFF" d="M344.091,340.865L344.091,340.865c-0.955-1.273-7.32-9.229-15.913-9.229
				c-7.639,0-15.595,7.002-15.595,7.002c-1.91-3.501-5.411-6.048-9.23-6.684l0,0c0,0-0.318,0-0.318,0.317c0,0,0,0,0,0.318
				c3.819,5.411,3.819,12.413,0,17.823l0,0l0,0c0,0,0,0.318,0.318,0.318l0,0c3.819-0.637,7.32-2.864,9.23-6.684
				c0,0,7.957,7.002,15.595,7.002c8.593,0,14.958-7.957,15.913-9.229l0,0V340.865L344.091,340.865z M332.952,342.139
				c-1.273,0-2.546-1.273-2.546-2.547l0,0c0-1.272,1.273-2.546,2.546-2.546s2.546,1.273,2.546,2.546l0,0
				C335.498,340.865,334.543,342.139,332.952,342.139L332.952,342.139z"/>
		</g>
		<g>
			<path fill="#FFFFFF" d="M409.654,352.959c-3.819-5.41-3.819-12.412,0-17.822v-0.318c0,0,0-0.318-0.318-0.318l0,0
				c-4.137,0.637-7.32,3.183-9.229,6.684c0,0-7.957-7.002-15.595-7.002c-8.593,0-14.958,7.957-15.914,9.229l0,0v0.318l0,0
				c0.955,1.273,7.32,9.229,15.914,9.229c7.638,0,15.595-7.002,15.595-7.002c1.91,3.819,5.092,6.366,9.229,7.002l0,0
				C409.654,353.278,409.654,353.278,409.654,352.959L409.654,352.959L409.654,352.959z M379.737,345.003
				c-1.273,0-2.546-1.273-2.546-2.546c0-1.273,1.273-2.547,2.546-2.547c1.273,0,2.546,1.273,2.546,2.547
				C382.283,343.73,381.01,345.003,379.737,345.003L379.737,345.003z"/>
		</g>
		<g>
			<path fill="#FFFFFF" d="M549.692,331.318v-0.955c0-0.637-0.637-0.955-1.272-0.955c-0.318,0-0.318,0-0.637,0.318l-0.637,0.637
				c-8.593,6.047-35.01,21.324-58.562-0.955l-0.318-0.318c-0.637-0.636-1.273-0.636-1.909,0l0,0l-0.318,0.318
				c-24.188,22.598-50.923,6.365-59.198,0.637l-0.637-0.318h-0.318c-0.636,0-1.272,0.637-1.272,1.273v10.185
				c0,0.318,0,0.637,0.318,0.955l0.636,0.636c17.187,14.322,42.33,15.277,60.472,1.91l0.637-0.637c0.317,0,0.317,0,0.636,0
				s0.318,0,0.637,0l0.318-0.318c5.729,4.774,35.328,21.006,61.107-2.546l0,0c0.318-0.318,0.318-0.318,0.318-0.637l0,0l0,0V331.318z
				"/>
		</g>
	</g>
</g>
</svg>
