<?xml version="1.0" encoding="utf-8"?>
<!-- Generator: Adobe Illustrator 16.0.3, SVG Export Plug-In . SVG Version: 6.00 Build 0)  -->
<!DOCTYPE svg PUBLIC "-//W3C//DTD SVG 1.1//EN" "http://www.w3.org/Graphics/SVG/1.1/DTD/svg11.dtd" [
	<!ENTITY ns_extend "http://ns.adobe.com/Extensibility/1.0/">
	<!ENTITY ns_ai "http://ns.adobe.com/AdobeIllustrator/10.0/">
	<!ENTITY ns_graphs "http://ns.adobe.com/Graphs/1.0/">
	<!ENTITY ns_vars "http://ns.adobe.com/Variables/1.0/">
	<!ENTITY ns_imrep "http://ns.adobe.com/ImageReplacement/1.0/">
	<!ENTITY ns_sfw "http://ns.adobe.com/SaveForWeb/1.0/">
	<!ENTITY ns_custom "http://ns.adobe.com/GenericCustomNamespace/1.0/">
	<!ENTITY ns_adobe_xpath "http://ns.adobe.com/XPath/1.0/">
]>
<svg version="1.1" id="Layer_1" xmlns:x="&ns_extend;" xmlns:i="&ns_ai;" xmlns:graph="&ns_graphs;"
	 xmlns="http://www.w3.org/2000/svg" xmlns:xlink="http://www.w3.org/1999/xlink" x="0px" y="0px" width="257.329px"
	 height="257.328px" viewBox="298.2 65.147 257.329 257.328" enable-background="new 298.2 65.147 257.329 257.328"
	 xml:space="preserve">
<metadata>
	<sfw  xmlns="&ns_sfw;">
		<slices></slices>
		<sliceSourceBounds  width="257.329" height="257.328" x="297.7" y="178.025" bottomLeftOrigin="true"></sliceSourceBounds>
	</sfw>
</metadata>
<title>TARGET 1.4</title>
<g id="TARGETS">
	<g>
		<rect x="298.2" y="65.147" fill="#4C9F38" width="257.329" height="257.328"/>
	</g>
	<g>
		<g>
			<path fill="#FFFFFF" d="M496.625,204.669c0,4.886,3.801,8.686,8.687,8.686s8.687-3.8,8.687-8.686
				c0-4.887-3.801-8.687-8.687-8.687l0,0C500.697,195.983,496.625,199.782,496.625,204.669z"/>
		</g>
		<g>
			<path fill="#FFFFFF" d="M420.621,209.012c0,4.614,3.528,8.144,8.144,8.144c4.614,0,8.143-3.529,8.143-8.144
				s-3.528-8.144-8.143-8.144C424.149,200.868,420.621,204.669,420.621,209.012z"/>
		</g>
		<g>
			<path fill="#FFFFFF" d="M345.974,204.669c0,4.886,3.8,8.686,8.686,8.686s8.686-3.8,8.686-8.686c0-4.887-3.8-8.687-8.686-8.687
				S345.974,199.782,345.974,204.669L345.974,204.669z"/>
		</g>
		<g>
			<path fill="#FFFFFF" d="M396.462,152.281h1.357c1.628,0,2.986-1.086,3.529-2.715l6.515-21.987l12.758,51.032
				c0.271,1.628,1.629,2.985,3.257,3.257h0.543c1.357,0,2.715-0.814,3.529-2.172l18.458-36.373l6.786,18.458
				c0.543,1.357,1.9,2.443,3.529,2.443l0,0c1.628,0,2.985-1.086,3.528-2.443l23.344-58.632l6.243,15.201
				c0.814,1.899,2.986,2.714,4.887,1.899c1.899-0.813,2.714-2.985,1.899-4.886l0,0l-10.043-23.887
				c-0.543-1.357-1.9-2.172-3.528-2.172l0,0c-1.629,0-2.986,0.814-3.529,2.443l-23.072,58.089l-6.516-17.644
				c-0.542-1.357-1.899-2.443-3.257-2.443c-1.629,0-2.986,0.814-3.528,2.172l-17.102,33.659l-13.572-52.932
				c-0.271-1.629-1.628-2.986-3.257-2.986c-1.628,0-3.257,1.086-3.8,2.715l-10.043,32.573h-62.161v7.601L396.462,152.281z"/>
		</g>
		<g>
			<path fill="#FFFFFF" d="M483.054,138.437c0,3.257,1.356,6.515,3.528,8.957l17.372,17.373l17.102-17.373l0,0
				c2.442-2.442,3.528-5.7,3.528-8.957c0-6.786-4.343-12.486-11.129-12.486c-3.258,0-7.329,3.8-9.772,5.972
				c-2.171-2.172-5.972-5.972-9.229-5.972c-6.515,0.271-11.672,5.429-11.4,11.943C483.054,138.165,483.054,138.165,483.054,138.437z
				"/>
		</g>
		<g>
			<path fill="#FFFFFF" d="M515.626,216.613h-0.542h-19.001h-0.543c-5.973,0.543-10.587,5.429-10.587,11.672v24.158
				c-0.271,1.9,1.086,3.529,2.986,3.801c1.899,0.271,3.528-1.086,3.8-2.986c0-0.271,0-0.271,0-0.543v-20.9
				c0-0.814,0.271-1.9,1.629-1.9c1.086,0,1.086,1.086,1.086,1.629v62.16c-0.271,2.715,1.899,4.886,4.614,5.157
				s4.886-1.899,5.157-4.614c0-0.271,0-0.543,0-0.814v-35.559c0-0.814,0.543-1.357,1.357-1.357l0,0l0,0
				c0.814,0,1.357,0.543,1.357,1.086c0,0,0,0,0,0.271v35.83c0,2.715,2.172,4.886,4.886,4.886c2.715,0,4.886-2.171,4.886-4.886
				v-62.16c0-0.543,0.271-1.629,1.086-1.629c1.357,0,1.629,1.086,1.629,1.899v20.63c-0.271,1.9,1.086,3.529,2.986,3.801
				c1.899,0.271,3.528-1.086,3.8-2.986c0-0.271,0-0.271,0-0.543v-24.158C526.213,222.313,521.599,217.156,515.626,216.613z"/>
		</g>
		<g>
			<path fill="#FFFFFF" d="M452.38,250.272l-6.786-22.259c0,0-2.442-6.515-7.872-6.515H420.35c-5.429,0-7.872,6.515-7.872,6.515
				l-6.786,22.259c0,0.543-0.271,0.814-0.271,1.356c-0.271-0.271-0.542-0.542-0.814-0.542c-1.357-0.543-2.714-0.271-3.529,1.085l0,0
				c-1.357,2.443-2.714,4.615-4.343,6.786c-0.543,0.543-1.357,1.086-2.171,1.086h-8.415c-0.814,0-1.628-0.543-1.9-1.086
				c-1.086-1.085-4.343-6.786-4.343-7.058c-0.814-1.085-2.171-1.356-3.529-0.813c-0.271,0.271-0.542,0.542-0.814,0.813v-23.615
				c0-5.972-4.615-11.129-10.586-11.672h-0.543h-19.001h-0.543c-5.972,0.543-10.586,5.429-10.586,11.672v24.158
				c0,1.086,0.543,2.172,1.629,2.715l-7.872,41.531c-0.271,0.814,0.271,1.628,1.086,1.899h0.271c0.814,0,1.357-0.543,1.628-1.356
				l7.872-41.803c1.085-0.543,1.9-1.629,1.9-2.986v-20.9c0-0.814,0.271-1.9,1.629-1.9c1.085,0,1.085,1.086,1.357,1.629v62.16
				c0,2.715,2.172,4.886,4.886,4.886s4.886-2.171,4.886-4.886l0,0v-35.559c-0.271-0.814,0.271-1.357,1.086-1.629
				s1.357,0.271,1.629,1.086c0,0.271,0,0.271,0,0.543v35.83c0,2.715,2.171,4.886,4.886,4.886s4.886-2.171,4.886-4.886v-62.16
				c0-0.543,0.271-1.629,1.357-1.629c1.357,0,1.629,1.086,1.629,1.899v20.63c0,1.9,1.357,3.258,3.257,3.529
				c1.357,0,2.443-0.814,3.257-1.9c0,0.271,0,0.271,0,0.271l7.058,12.486c0.271,0.543,0.271,1.086,0.542,1.629v1.9l0,0
				c0,0.814,0,1.356-0.271,2.171l-3.257,13.029h3.8v9.772l0,0c-0.271,1.9,1.086,3.528,2.986,3.8c1.9,0.271,3.529-1.086,3.8-2.985
				c0-0.271,0-0.271,0-0.543v-9.229c0,0,0-0.271,0-0.543h2.171c0,0,0,0.271,0,0.543v9.229c0,1.9,1.629,3.257,3.258,3.257
				c1.628,0,3.257-1.628,3.257-3.257v-9.772h3.529l-3.258-13.029c-0.271-0.543-0.271-1.086-0.271-1.628v-0.543l0,0v-1.9
				c0-0.543,0.271-1.086,0.542-1.629l6.515-11.672l0.543-1.086v-0.271c0.271,0.814,1.086,1.357,2.172,1.629
				c3.528,1.086,4.614-2.986,4.614-2.986l5.429-18.729c0,0,0.271-1.357,1.357-1.086s0.543,1.9,0.543,1.9l-9.5,35.017h8.958v24.973
				c0.271,2.443,2.172,4.071,4.614,4.071c2.172-0.271,3.801-1.899,4.072-4.071v-24.973h2.442v24.973
				c0.271,2.443,2.172,4.071,4.615,4.071c2.171-0.271,3.8-1.899,4.071-4.071v-24.973h8.958l-9.501-35.017c0,0-0.543-1.629,0.543-1.9
				s1.357,1.086,1.357,1.086l5.429,18.729c0,0,1.086,4.072,4.614,2.986C454.823,254.615,452.38,250.272,452.38,250.272z"/>
		</g>
		<g>
			<path fill="#FFFFFF" d="M461.338,248.643c0,3.8,3.257,6.786,7.058,6.786c3.8,0,6.786-3.258,6.786-7.058s-2.986-6.786-6.786-6.786
				C464.595,241.585,461.338,244.572,461.338,248.643C461.338,248.371,461.338,248.643,461.338,248.643z"/>
		</g>
		<g>
			<path fill="#FFFFFF" d="M482.239,268.73c-4.072-10.857-4.887-10.587-8.687-10.857h-10.586c-3.801,0-4.615,0-8.687,10.857
				c-0.543,1.629-2.986,7.601-3.258,7.872s-1.086,2.442,1.357,3.257s2.986-1.629,2.986-1.629l4.343-10.586c0,0,0-0.271,0.271-0.271
				s0.271,0.271,0.271,0.271v27.416l0,0c0,1.9,1.357,3.528,3.528,3.8c0,0,0,0,0.271,0c1.9,0,3.529-1.628,3.529-3.528
				c0,0,0,0,0-0.271v-10.857c0,0,0-1.629,1.086-1.629s1.086,1.629,1.086,1.629v10.857c0,1.9,1.356,3.528,3.528,3.8l0,0
				c1.9,0,3.528-1.356,3.528-3.257v-0.271l0,0v-27.416c0-0.271,0-0.271,0-0.271l0.271,0.271l3.801,9.501
				c0,0,1.086,2.442,3.257,1.628c2.172-0.814,1.086-3.257,1.086-3.257S482.782,270.359,482.239,268.73z"/>
		</g>
		<g>
			<path fill="#FFFFFF" d="M390.491,241.585c-3.8,0-6.786,2.986-6.786,6.786s2.986,6.786,6.786,6.786s6.786-2.986,6.786-6.786l0,0
				C397.277,244.572,394.291,241.585,390.491,241.585z"/>
		</g>
	</g>
</g>
</svg>
