<?xml version="1.0" encoding="utf-8"?>
<!-- Generator: Adobe Illustrator 16.0.3, SVG Export Plug-In . SVG Version: 6.00 Build 0)  -->
<!DOCTYPE svg PUBLIC "-//W3C//DTD SVG 1.1//EN" "http://www.w3.org/Graphics/SVG/1.1/DTD/svg11.dtd" [
	<!ENTITY ns_extend "http://ns.adobe.com/Extensibility/1.0/">
	<!ENTITY ns_ai "http://ns.adobe.com/AdobeIllustrator/10.0/">
	<!ENTITY ns_graphs "http://ns.adobe.com/Graphs/1.0/">
	<!ENTITY ns_vars "http://ns.adobe.com/Variables/1.0/">
	<!ENTITY ns_imrep "http://ns.adobe.com/ImageReplacement/1.0/">
	<!ENTITY ns_sfw "http://ns.adobe.com/SaveForWeb/1.0/">
	<!ENTITY ns_custom "http://ns.adobe.com/GenericCustomNamespace/1.0/">
	<!ENTITY ns_adobe_xpath "http://ns.adobe.com/XPath/1.0/">
]>
<svg version="1.1" id="Layer_1" xmlns:x="&ns_extend;" xmlns:i="&ns_ai;" xmlns:graph="&ns_graphs;"
	 xmlns="http://www.w3.org/2000/svg" xmlns:xlink="http://www.w3.org/1999/xlink" x="0px" y="0px" width="500px" height="500px"
	 viewBox="177 0 500 500" enable-background="new 177 0 500 500" xml:space="preserve">
<metadata>
	<sfw  xmlns="&ns_sfw;">
		<slices></slices>
		<sliceSourceBounds  width="500" height="500" y="0.5" x="176.5" bottomLeftOrigin="true"></sliceSourceBounds>
	</sfw>
</metadata>
<title>TARGET 1 B copy 8</title>
<g id="TARGETS">
	<g>
		<rect x="177" y="0" fill="#19486A" width="500" height="500"/>
	</g>
	<g>
		<g>
			<path fill="#FFFFFF" d="M608.435,280.064L608.435,280.064l-35.865-1.583l0,0c-0.527,0-0.527,0-1.055,0
				c-0.527,0.527-0.527,1.055-0.527,1.583l0,0l0,0l0,0l0.527,0.527l6.329,8.966l3.165,4.22L519.3,330.696l-118.671,17.933h-1.055
				l-102.321,71.203l5.802,8.966l100.211-69.62l119.726-17.933l63.819-37.975l3.164,4.747l6.329,8.966v0.527
				c0.527,0.527,1.055,0.527,1.582,0.527l0.527-0.527v-0.527l11.076-34.282v-0.527c0-0.527,0-1.055-0.527-1.055
				C608.435,280.591,608.435,280.591,608.435,280.064z"/>
		</g>
		<g>
			<polygon fill="#FFFFFF" points="267.19,244.726 252.949,244.726 252.949,183.544 267.19,183.544 267.19,172.995 252.949,172.995 
				252.949,111.815 267.19,111.815 267.19,101.266 252.949,101.266 252.949,62.237 242.401,62.237 242.401,438.291 252.949,438.291 
				252.949,399.261 267.19,399.261 267.19,388.713 252.949,388.713 252.949,327.531 267.19,327.531 267.19,316.983 252.949,316.983 
				252.949,255.275 267.19,255.275 612.127,255.275 612.127,244.726 			"/>
		</g>
		<g>
			<g>
				<g>
					<path fill="#FFFFFF" d="M399.046,196.202c-2.637,1.582-5.274,2.638-8.439,3.692c-8.438,2.637-16.877,3.691-25.844,3.164
						c-4.219,0-8.439-0.527-12.658-1.055c-2.637-0.527-5.274-1.055-7.911-1.582c-1.583-0.527-2.637-0.527-3.692-1.055
						c-3.692-1.056-6.856-2.638-10.021-4.747c-1.055-1.055-2.11-1.582-2.637-3.165v3.692c0,1.055,0,5.274,0,5.274
						c0,2.109,1.055,4.219,3.165,5.274c5.802,4.219,12.658,6.856,20.042,7.384c4.747,0.527,10.021,1.055,14.768,1.055
						c6.857,0,14.241-0.527,21.097-2.637l0,0c3.692-1.056,7.384-2.11,10.548-4.22l0,0c3.692-2.109,5.802-4.747,5.802-7.384
						c0,0,0.527-7.912,0-8.439C401.684,193.566,400.629,195.148,399.046,196.202z"/>
				</g>
				<g>
					<path fill="#FFFFFF" d="M362.126,170.359c21.097,0,37.975-6.329,37.975-14.24c0,0,0.528-7.384,0.528-8.967
						c0-1.055-0.528-2.109-0.528-3.164c2.11-1.055,3.692-3.692,4.22-6.329c0,0,0.527-7.912,0-9.494
						c-1.055-9.493-20.042-14.768-37.975-14.768c-17.933,0-37.975,5.274-37.975,15.295c0,0.527,0.528,8.967,0.528,8.967
						c0,0.527,0,1.055,0.527,1.582c-2.637,1.582-4.747,4.22-4.747,7.911c0,0.527,0.527,8.967,0.527,8.967
						c0,2.109,1.055,4.219,3.165,5.274c5.802,4.219,12.658,6.856,20.042,7.384C352.105,169.831,357.38,170.359,362.126,170.359z
						 M365.818,118.144c20.042,0,34.283,6.329,34.283,11.603c0,5.274-13.713,11.604-34.283,11.604
						c-20.569,0-34.283-5.802-34.283-11.604C331.536,123.946,345.776,118.144,365.818,118.144z M327.844,147.679
						c0.527-1.582,1.583-3.164,3.165-4.219c1.055,1.055,2.637,2.109,3.692,2.637c10.021,4.22,20.57,6.856,31.118,6.329
						c8.966,0,17.933-1.055,26.899-4.22c1.055-0.527,2.11-1.055,3.165-1.582c0,0.527,0,0.527,0,1.055
						c0,5.274-14.24,11.604-34.283,11.604C341.557,159.282,327.844,152.953,327.844,147.679z"/>
				</g>
				<g>
					<path fill="#FFFFFF" d="M351.051,199.367c4.747,1.055,9.494,1.055,14.24,1.055c6.856,0,14.241-0.527,21.097-2.638l0,0
						c3.692-1.055,7.384-2.109,10.548-4.219l0,0c1.055-0.527,1.583-1.055,2.637-1.583c1.055-1.055,2.11-2.109,2.637-3.691
						c0-0.527,0.527-1.055,0.527-2.109c0,0,0-7.912,0-8.439c-1.055,1.582-4.747,6.329-19.515,9.494
						c-6.329,1.055-12.658,1.582-19.515,1.582c-12.131,0-24.789-2.637-30.063-5.802c-1.582-1.055-3.165-2.109-4.747-3.164
						c-1.055-1.056-1.583-1.583-2.11-2.638v3.692v5.274c0,2.109,1.055,4.219,3.165,5.273
						C335.755,196.202,343.139,198.84,351.051,199.367z"/>
				</g>
				<g>
					<path fill="#FFFFFF" d="M399.046,169.304l-2.11,1.055c0,0-2.109,1.055-3.165,1.582c0,0-2.109,1.055-3.165,1.055
						c-1.055,0-3.165,1.056-4.747,1.056c0,0-4.219,0.527-5.802,1.055l-5.802,0.527c-0.527,0-6.329,0.527-8.966,0.527
						c-4.219,0-7.911-0.527-12.131-1.055c-2.637-0.527-5.802-1.055-8.438-1.583c-3.165-0.527-6.329-1.582-8.966-2.637
						c-1.583-0.527-3.165-1.582-4.747-3.164c-1.055-1.056-2.109-2.638-3.165-4.22v4.747v4.746c0,2.11,1.055,4.22,3.165,5.274
						c5.802,4.22,12.658,6.856,20.042,7.384c4.747,0.528,10.021,1.056,14.768,1.056c6.857,0,14.241-0.527,21.097-2.638l0,0
						c3.692-1.055,7.384-2.109,10.548-4.219l0,0c1.055-0.528,1.583-1.056,2.637-1.583c1.055-1.055,2.11-2.109,2.637-3.691
						c0-0.527,0.527-1.056,0.527-2.11l0.527-7.911c0-0.527,0-1.055-0.527-2.109c0-0.527-0.527-1.055-1.055-1.583
						c-0.527-0.527-0.527-0.527-1.055-1.055s-1.055-0.527-1.583-1.055c-0.527,1.055-1.055,1.582-1.582,2.109
						c0.527,0,1.055,0.528,1.582,1.056c1.055,0.527,1.583,1.582,1.583,2.637s-0.527,2.109-1.583,2.637L399.046,169.304z"/>
				</g>
			</g>
			<g>
				<g>
					<path fill="#FFFFFF" d="M573.624,196.202c-2.637,1.582-5.273,2.638-8.438,3.692c-8.438,2.637-16.878,3.691-25.844,3.164
						c-4.22,0-8.438-0.527-12.658-1.055c-2.638-0.527-5.274-1.055-7.911-1.582c-1.055-0.527-2.638-0.527-3.692-1.055
						c-3.692-1.056-6.856-2.638-10.021-4.747c-1.055-1.055-2.109-1.582-2.637-3.165v3.692c0,1.055,0,5.274,0,5.274
						c0,2.109,1.055,4.219,3.165,5.274c5.801,4.219,12.658,6.856,20.042,7.384c4.747,0.527,9.493,1.055,14.768,1.055
						c6.856,0,14.24-0.527,21.097-2.637l0,0c3.692-1.056,7.385-2.11,10.549-4.22l0,0c3.692-2.109,5.802-4.747,5.802-7.384
						c0,0,0-7.912,0-8.439C576.262,193.566,575.207,195.148,573.624,196.202z"/>
				</g>
				<g>
					<path fill="#FFFFFF" d="M536.704,170.359c21.098,0,37.976-6.329,37.976-14.24c0,0,0.527-7.384,0.527-8.967
						c0-1.055,0-2.109-0.527-3.164c2.637-1.055,4.219-3.692,4.219-6.329c0,0,0.527-7.912,0-9.494
						c-1.055-9.493-20.042-14.768-37.975-14.768s-37.975,5.274-37.975,15.295c0,0.527,0.527,8.967,0.527,8.967
						c0,0.527,0,1.055,0.527,1.582c-2.637,1.582-4.746,4.22-4.746,7.911c0,0.527,0.527,8.967,0.527,8.967
						c0,2.109,1.055,4.219,3.164,5.274c5.802,4.219,12.658,6.856,20.042,7.384C526.684,169.831,531.958,170.359,536.704,170.359z
						 M540.396,118.144c20.042,0,34.283,6.329,34.283,11.603c0,5.274-14.241,11.604-34.283,11.604s-34.282-5.802-34.282-11.604
						C506.114,123.946,520.354,118.144,540.396,118.144z M502.422,147.679c0.527-1.582,1.582-3.164,3.165-4.219
						c1.055,1.055,2.637,2.109,3.691,2.637c10.021,4.747,20.57,6.856,31.118,6.329c8.967,0,17.933-1.055,26.898-4.22
						c1.056-0.527,2.11-1.055,3.165-1.582c0,0.527,0.527,0.527,0.527,1.055c0,5.274-14.24,11.604-34.283,11.604
						C516.662,159.282,502.422,152.953,502.422,147.679z"/>
				</g>
				<g>
					<path fill="#FFFFFF" d="M525.629,199.367c4.747,0.527,9.493,1.055,14.768,1.055c6.856,0,14.24-0.527,21.097-2.638l0,0
						c3.692-1.055,7.385-2.109,10.549-4.219l0,0c1.055-0.527,1.582-1.055,2.11-1.583c1.055-1.055,2.109-2.109,2.637-3.691
						c0.527-0.527,0.527-1.055,0.527-2.109c0,0,0-7.912,0-8.439c-1.055,1.582-4.22,6.329-19.515,9.494
						c-6.329,1.055-12.658,1.582-19.515,1.582c-12.131,0-24.789-2.637-30.063-5.802c-1.582-1.055-3.164-2.109-4.747-3.164
						c-1.055-1.056-1.582-1.583-2.109-2.638v3.692v5.274c0,2.109,1.055,4.219,3.164,5.273
						C510.86,196.202,517.718,198.84,525.629,199.367z"/>
				</g>
				<g>
					<path fill="#FFFFFF" d="M573.624,169.304l-2.109,1.055c0,0-2.109,1.055-3.164,1.582c0,0-2.11,1.055-3.165,1.055
						s-3.692,0.527-4.747,1.056c-0.527,0-4.219,0.527-5.802,1.055l-5.802,0.527c-0.527,0-6.328,0.527-8.966,0.527
						c-4.22,0-7.911-0.527-12.131-1.055c-2.637-0.527-5.802-1.055-8.438-1.583c-3.165-0.527-6.329-1.582-8.967-2.637
						c-1.582-0.527-3.164-1.582-4.746-3.164c-1.056-1.056-2.11-2.638-3.165-3.692v4.747v4.746c0,2.11,1.055,4.22,3.165,5.274
						c5.801,4.22,12.658,6.856,20.042,7.385c4.747,0.527,10.021,1.055,14.768,1.055c6.856,0,14.24-0.527,21.097-2.638l0,0
						c3.692-1.055,7.385-2.109,10.549-4.219l0,0c1.055-0.527,1.582-1.056,2.11-1.583c1.055-1.055,2.109-2.109,2.637-3.691
						c0-0.527,0.527-1.055,0.527-2.11l0.527-7.911c0-0.527,0-1.055,0-2.109c0-0.527-0.527-1.055-1.055-1.582
						c-0.527-0.528-1.055-1.056-1.055-1.056c-0.527-0.527-1.055-0.527-1.582-1.055c-0.528,1.055-1.056,1.582-1.583,2.11
						c0.527,0,1.055,0.527,1.583,1.055c1.055,0.527,1.582,1.582,1.582,2.637s-0.527,2.109-1.055,2.638L573.624,169.304z"/>
				</g>
			</g>
			<g>
				<g>
					<path fill="#FFFFFF" d="M449.152,143.46c21.097,0,37.975-6.329,37.975-14.241c0,0,0.527-7.384,0.527-8.966
						c0-1.055-0.527-2.109-0.527-3.165c2.109-1.055,3.691-3.691,4.219-6.329c0,0,0.527-7.911,0-9.493
						c-1.055-9.494-20.042-14.768-37.975-14.768s-37.975,5.273-37.975,15.295c0,0.527,0.527,8.966,0.527,8.966
						c0,0.528,0,1.056,0.527,1.583c-2.637,1.582-4.747,4.746-4.747,7.911c0,0.527,0.527,8.966,0.527,8.966
						c0,2.11,1.055,4.22,3.165,5.274c5.802,4.22,13.186,6.856,20.042,7.912C439.131,142.933,444.405,143.46,449.152,143.46z
						 M452.844,90.717c20.042,0,34.283,5.802,34.283,11.604s-14.241,11.604-34.283,11.604s-34.283-6.329-34.283-11.604
						S432.802,90.717,452.844,90.717z M414.869,120.253c0.527-2.109,1.583-3.692,3.165-4.22c1.055,1.055,2.637,2.11,3.692,2.638
						c10.021,4.219,20.569,6.329,31.118,6.329c8.967,0.527,17.933-1.055,26.371-3.692c1.056-0.527,2.11-1.055,3.165-1.582
						c0,0.527,0,0.527,0,1.055c0,5.274-14.24,11.604-34.283,11.604C428.055,132.384,414.869,126.055,414.869,120.253z"/>
				</g>
				<g>
					<path fill="#FFFFFF" d="M490.818,135.548c0-0.527-0.527-1.055-1.055-1.582s-0.527-0.527-1.055-1.055s-1.055-0.527-1.582-1.055
						c-0.527,1.055-1.056,1.582-1.583,2.109c0.527,0,1.056,0.527,1.583,1.055c1.055,0.527,1.582,1.583,1.582,2.638
						s-0.527,2.109-1.582,2.637c-0.527,0.527-1.056,0.527-1.583,1.055s-1.582,1.056-2.109,1.056l-3.164,1.582l-3.165,1.055
						l-4.747,1.055l-5.274,1.582l-5.802,0.527c-0.527,0-6.329,0.528-8.966,0.528c-4.22,0-7.911-0.528-12.131-1.056
						c-2.637-0.527-5.802-1.055-8.438-1.582c-3.165-0.527-6.329-1.582-8.967-2.637c-1.582-0.527-3.164-2.11-4.747-3.165
						c-1.055-1.055-2.11-2.637-3.165-4.219c0,0,0,4.746,0,5.273v4.747c0,2.109,1.055,4.22,3.165,5.274
						c5.801,4.22,12.659,6.856,20.042,7.384c4.747,0.527,10.021,1.055,14.768,1.055c6.856,0,14.24-0.527,21.097-2.637l0,0
						c3.692-1.055,7.385-2.109,10.549-4.22l0,0c1.055-0.527,1.582-1.055,2.638-1.582c1.055-1.055,2.109-2.109,2.637-3.692
						c0-0.527,0.527-1.055,0.527-2.109l0.527-7.911C490.818,137.131,490.818,136.604,490.818,135.548z"/>
				</g>
				<g>
					<path fill="#FFFFFF" d="M486.6,168.777c-2.638,1.582-5.274,2.637-8.439,3.691c-8.438,2.638-16.878,3.692-25.844,3.165
						c-4.22,0-8.438-0.527-12.658-1.055c-2.637-0.527-5.274-1.056-7.911-1.583c-1.582-0.527-2.638-0.527-3.692-1.055
						c-3.691-1.055-6.856-2.637-10.021-4.747c-1.055-1.055-2.11-2.109-2.637-3.164v3.164c0,1.056,0,5.274,0,5.274
						c0,2.11,1.055,4.22,3.165,5.274c5.802,4.22,12.659,6.856,20.042,7.384c4.747,0.527,10.021,1.056,14.768,1.056
						c6.856,0,14.24-0.528,21.098-2.638l0,0c3.691-1.055,7.384-2.109,10.548-4.22l0,0c3.692-2.109,5.802-4.746,5.802-7.384
						c0,0,0-7.911,0-8.438C489.236,166.139,488.182,167.722,486.6,168.777z"/>
				</g>
				<g>
					<path fill="#FFFFFF" d="M418.034,164.557c5.801,4.22,12.659,6.856,20.042,7.384c4.747,0.527,10.021,1.055,14.768,1.055
						c6.856,0,14.24-0.527,21.097-2.637l0,0c3.692-1.055,7.385-2.109,10.549-4.22l0,0c1.055-0.527,1.582-1.055,2.638-1.582
						c1.055-1.055,2.109-2.109,2.637-3.692c0-0.527,0.527-1.055,0.527-2.109c0,0,0-7.911,0-8.438
						c-1.055,1.582-4.22,6.329-19.515,9.493c-6.329,1.055-12.658,1.583-19.515,1.583c-10.549,0.527-20.569-1.583-30.063-5.802
						c-1.582-1.056-3.165-2.11-4.747-3.165c-1.055-1.055-1.582-1.582-2.109-2.637v3.691v5.274
						C414.342,161.92,415.924,163.502,418.034,164.557z"/>
				</g>
				<g>
					<path fill="#FFFFFF" d="M491.346,191.455c-1.055,1.583-2.637,3.165-4.747,4.22c-2.637,1.582-5.273,2.637-8.438,3.692
						c-8.438,2.637-16.878,3.691-25.844,3.164c-4.22,0-8.438-0.527-12.658-1.055c-2.637-0.527-5.274-1.055-7.911-1.582l-3.692-1.055
						c-3.691-1.056-6.856-2.638-10.021-4.747c-1.055-1.055-2.11-1.582-2.637-3.165v4.22c0,1.055,0,5.274,0,5.274
						c0,2.109,1.055,4.219,3.165,5.274c5.801,4.219,12.659,6.856,20.042,7.384c4.747,0.527,9.493,1.055,14.768,1.055
						c6.856,0,14.24-0.527,21.098-2.637l0,0c3.691-1.056,7.384-2.11,10.548-4.22l0,0c3.692-2.109,5.274-4.747,5.274-7.384
						C490.818,199.895,491.346,191.983,491.346,191.455z"/>
				</g>
				<g>
					<path fill="#FFFFFF" d="M438.076,199.367c4.747,0.527,10.021,1.055,14.768,1.055c6.856,0,14.24-0.527,21.097-2.638l0,0
						c3.692-1.055,7.385-2.109,10.549-4.219l0,0c1.055-0.527,1.582-1.055,2.11-1.583c1.055-1.055,2.109-2.109,2.637-3.691
						c0-0.527,0.527-1.055,0.527-2.109c0,0,0-7.912,0-8.439c-1.055,1.582-4.22,6.329-19.515,9.494
						c-6.329,1.055-12.658,1.582-19.515,1.582c-10.549,0-20.569-1.582-30.063-5.802c-1.583-1.055-3.165-2.109-4.747-3.164
						c-1.055-1.056-1.582-1.583-2.109-2.638v3.692v5.274c0,2.109,1.055,4.219,3.165,5.273
						C423.308,196.202,430.692,198.84,438.076,199.367z"/>
				</g>
			</g>
		</g>
	</g>
</g>
</svg>
