<?xml version="1.0" encoding="utf-8"?>
<!-- Generator: Adobe Illustrator 16.0.3, SVG Export Plug-In . SVG Version: 6.00 Build 0)  -->
<!DOCTYPE svg PUBLIC "-//W3C//DTD SVG 1.1//EN" "http://www.w3.org/Graphics/SVG/1.1/DTD/svg11.dtd" [
	<!ENTITY ns_extend "http://ns.adobe.com/Extensibility/1.0/">
	<!ENTITY ns_ai "http://ns.adobe.com/AdobeIllustrator/10.0/">
	<!ENTITY ns_graphs "http://ns.adobe.com/Graphs/1.0/">
	<!ENTITY ns_vars "http://ns.adobe.com/Variables/1.0/">
	<!ENTITY ns_imrep "http://ns.adobe.com/ImageReplacement/1.0/">
	<!ENTITY ns_sfw "http://ns.adobe.com/SaveForWeb/1.0/">
	<!ENTITY ns_custom "http://ns.adobe.com/GenericCustomNamespace/1.0/">
	<!ENTITY ns_adobe_xpath "http://ns.adobe.com/XPath/1.0/">
]>
<svg version="1.1" id="Layer_1" xmlns:x="&ns_extend;" xmlns:i="&ns_ai;" xmlns:graph="&ns_graphs;"
	 xmlns="http://www.w3.org/2000/svg" xmlns:xlink="http://www.w3.org/1999/xlink" x="0px" y="0px" width="320.054px"
	 height="320.054px" viewBox="266.804 81.027 320.054 320.054" enable-background="new 266.804 81.027 320.054 320.054"
	 xml:space="preserve">
<metadata>
	<sfw  xmlns="&ns_sfw;">
		<slices></slices>
		<sliceSourceBounds  width="320.054" height="320.054" x="266.304" y="99.42" bottomLeftOrigin="true"></sliceSourceBounds>
	</sfw>
</metadata>
<title>TARGET 1.1</title>
<g id="TARGETS">
	<g>
		<rect x="266.804" y="81.027" fill="#E5243B" width="320.054" height="320.054"/>
	</g>
	<g>
		<g>
			<g>
				<path fill="#FFFFFF" d="M537.905,275.152c5.063,0,9.115-4.051,9.115-9.453c0-5.063-4.052-9.115-9.453-9.115
					c-5.064,0-9.115,4.052-9.115,9.115C528.452,271.101,532.503,275.152,537.905,275.152L537.905,275.152z"/>
			</g>
			<g>
				<path fill="#FFFFFF" d="M548.708,278.865h-0.675h-20.257h-0.675c-6.415,0.676-11.479,5.739-11.479,12.491v25.658
					c-0.337,2.026,1.351,3.714,3.377,4.052c2.025,0.338,3.713-1.351,4.051-3.376c0-0.338,0-0.338,0-0.676v-21.944
					c0-0.675,0.338-2.025,1.688-2.025s1.351,1.013,1.351,1.688v66.171c0,2.701,2.363,5.064,5.063,5.064
					c2.701,0,5.064-2.363,5.064-5.064l0,0v-38.15c0-0.675,0.675-1.35,1.351-1.35l0,0l0,0c0.675,0,1.351,0.675,1.351,1.35l0,0v38.15
					c0.337,2.701,2.7,5.064,5.739,4.727c2.701-0.338,4.727-2.363,4.727-4.727v-66.171c0-0.676,0.338-1.688,1.351-1.688
					s1.688,1.013,1.688,2.025v21.944c0,2.026,1.688,3.714,3.714,3.714s3.714-1.688,3.714-3.714v-25.657
					C559.85,284.943,555.123,279.541,548.708,278.865z"/>
			</g>
			<g>
				<path fill="#FFFFFF" d="M459.579,279.878c4.727,0,8.778-4.051,8.778-8.777s-4.052-8.778-8.778-8.778s-8.777,4.052-8.777,8.778
					l0,0C450.802,275.827,454.853,279.878,459.579,279.878L459.579,279.878z"/>
			</g>
			<g>
				<path fill="#FFFFFF" d="M470.045,295.746c1.351-0.338,1.688,1.351,1.688,1.351l5.739,19.918c0,0,1.013,4.39,4.727,3.039
					s2.363-5.402,2.363-5.402l-7.428-23.632c0,0-2.7-6.752-8.44-6.752h-18.568c-5.739,0-8.439,6.752-8.439,6.752l-7.428,23.632
					c0,0-1.351,4.39,2.363,5.402s4.727-3.039,4.727-3.039l6.077-19.918c0,0,0.337-1.351,1.35-1.351c1.014,0,0.676,2.025,0.676,2.025
					l-10.128,37.137h9.452v26.671c0.338,2.363,2.363,4.39,5.064,4.052c2.363-0.338,4.052-2.025,4.052-4.052v-26.671h2.7v26.671
					c0.338,2.363,2.363,4.39,5.064,4.052c2.363-0.338,4.052-2.025,4.052-4.052v-26.671h9.453l-10.129-37.137
					C469.708,297.772,469.032,296.083,470.045,295.746z"/>
			</g>
			<g>
				<path fill="#FFFFFF" d="M407.25,279.541c4.727,0,8.778-4.052,8.778-8.778s-4.051-8.777-8.778-8.777s-8.778,4.051-8.778,8.777
					l0,0C398.472,275.827,402.186,279.541,407.25,279.541z"/>
			</g>
			<g>
				<path fill="#FFFFFF" d="M424.806,290.682c0,0-2.701-6.752-8.44-6.752h-18.568c-5.739,0-8.44,6.752-8.44,6.752l-7.427,23.633
					c0,0-1.351,4.389,2.363,5.401c3.713,1.013,4.727-3.038,4.727-3.038l5.739-19.581c0,0,0.337-1.351,1.351-1.351
					c1.013,0,0.675,2.025,0.675,2.025l-10.128,37.137h9.453v26.671c0.337,2.363,2.363,4.39,5.064,4.052
					c2.363-0.338,4.051-2.025,4.051-4.052v-26.671h2.701v26.671c0.337,2.363,2.363,4.39,5.064,4.052
					c2.363-0.338,4.051-2.025,4.051-4.052v-26.671h9.453l-10.128-37.137c0,0-0.337-1.688,0.675-2.025
					c1.013-0.338,1.351,1.351,1.351,1.351l5.739,19.918c0,0,1.014,4.39,4.727,3.039c3.714-1.351,2.363-5.402,2.363-5.402
					L424.806,290.682z"/>
			</g>
			<g>
				<path fill="#FFFFFF" d="M322.848,276.164c5.064,0,9.115-4.051,9.115-9.115c0-5.063-4.051-9.115-9.115-9.115
					c-5.064,0-9.116,4.052-9.116,9.115l0,0C313.395,272.114,317.446,276.164,322.848,276.164L322.848,276.164z"/>
			</g>
			<g>
				<path fill="#FFFFFF" d="M333.313,279.878h-0.675h-19.919h-0.675c-6.415,0.676-11.141,5.739-11.141,12.154v25.32
					c0,1.013,0.675,2.025,1.351,2.701l-8.103,43.214c0,0.675,0.338,1.351,1.013,1.688l0,0h0.337c0.675,0,1.351-0.338,1.351-1.014
					l8.103-42.876c1.688-0.338,3.039-1.688,3.039-3.376v-21.944c0-0.676,0.337-2.025,1.688-2.025c1.013,0,1.351,1.013,1.351,1.688
					v65.834c0.337,2.7,3.038,4.727,5.739,4.389c2.025-0.338,3.714-2.025,4.389-4.389V323.43c0-0.675,0.675-1.351,1.351-1.351
					c0,0,0,0,0.338,0l0,0c0.675,0,1.35,0.675,1.35,1.351l0,0v37.813c0.338,2.7,3.039,4.727,5.739,4.389
					c2.026-0.338,3.714-2.025,4.389-4.389v-65.834c0-0.675,0.337-1.688,1.351-1.688c1.013,0,1.688,1.014,1.688,2.026v21.606
					c-0.338,2.025,1.35,3.714,3.376,4.052c2.026,0.337,3.714-1.351,4.051-3.376c0-0.338,0-0.338,0-0.676v-25.32
					C344.455,285.617,339.728,280.554,333.313,279.878z"/>
			</g>
			<g>
				<path fill="#FFFFFF" d="M499.755,319.378c4.052,0,7.428-3.376,7.428-7.427c0-4.052-3.376-7.428-7.428-7.428
					c-4.051,0-7.428,3.376-7.428,7.428l0,0C492.327,316.002,495.704,319.378,499.755,319.378z"/>
			</g>
			<g>
				<path fill="#FFFFFF" d="M514.947,333.896c-4.389-11.479-5.401-11.479-9.453-11.479h-11.479c-4.052,0-4.727,0-9.453,11.479
					c-0.675,1.688-3.376,8.103-3.376,8.44s-1.013,2.701,1.351,3.714s3.038-2.026,3.038-2.026l4.727-11.141c0,0,0-0.338,0.338-0.338
					s0,0.338,0,0.338v29.372l0,0c0,2.025,1.688,4.051,3.714,4.051c0,0,0,0,0.337,0c2.026,0,4.052-1.35,4.052-3.376v-0.337v-11.816
					c0,0,0-1.688,1.013-1.688s1.013,1.688,1.013,1.688v11.816c0,2.025,1.688,4.051,3.714,4.051c0,0,0,0,0.338,0
					c2.025,0,3.713-1.688,3.713-3.714c0,0,0,0,0-0.337l0,0v-29.372c0-0.338,0-0.338,0-0.338l0.338,0.338l4.052,10.128
					c0,0,1.013,2.701,3.376,1.688c2.363-1.014,1.013-3.377,1.013-3.377S515.285,335.246,514.947,333.896z"/>
			</g>
			<g>
				<path fill="#FFFFFF" d="M378.553,314.99c-1.351-0.675-3.039,0-3.714,1.351l0,0c-1.351,2.363-3.039,4.727-4.727,7.09
					c-0.675,0.675-1.351,1.013-2.363,1.013h-8.778c-1.013,0-1.688-0.338-2.363-1.013c-1.013-1.013-4.727-7.428-4.727-7.428
					c-0.337-0.675-1.351-1.351-2.363-1.351c-1.351,0-2.701,1.351-2.701,2.701c0,0.338,0,0.676,0.337,1.013l7.427,13.505
					c0.338,0.675,0.338,1.013,0.338,1.688v2.026l0,0c0,0.675,0,1.688-0.338,2.363l-3.376,14.18h4.051v10.466l0,0
					c0.338,2.025,2.026,3.376,4.051,3.376c1.688,0,3.039-1.688,3.376-3.376v-10.129v-0.337h2.025v0.337v10.129
					c0.338,2.025,2.026,3.376,4.051,3.376c1.688,0,3.039-1.688,3.376-3.376v-10.466h4.051l-3.714-14.18
					c0-0.676-0.337-1.351-0.337-2.026v-0.675l0,0v-2.025c0-0.676,0.337-1.351,0.337-1.688l6.752-12.491c0,0,0.337-1.013,0.675-1.351
					C380.241,317.353,379.903,315.665,378.553,314.99L378.553,314.99z"/>
			</g>
			<g>
				<path fill="#FFFFFF" d="M363.36,319.716c4.052,0,7.428-3.376,7.428-7.428c0-4.051-3.376-7.427-7.428-7.427
					c-4.051,0-7.427,3.376-7.427,7.427C355.933,316.34,359.309,319.716,363.36,319.716L363.36,319.716z"/>
			</g>
		</g>
		<g>
			<path fill="#FFFFFF" d="M550.059,116.138l-29.372,10.128l8.103,7.09l-47.265,56.381l-27.685-27.009
				c-1.013-1.013-2.363-1.351-4.051-1.351c-1.351,0-2.701,0.676-3.714,2.025l-43.214,56.719h-96.894
				c-2.701,0-5.064,2.363-5.064,5.064s2.363,5.064,5.064,5.064h99.595c1.688,0,3.038-0.676,4.051-2.026l41.525-54.018l27.685,26.672
				c2.025,2.025,5.064,2.025,7.09,0l0.338-0.338l50.641-60.433l7.766,6.753L550.059,116.138z"/>
		</g>
		<g>
			<g>
				<path fill="#FFFFFF" d="M345.467,195.476c-1.351,1.013-3.039,1.688-4.727,2.025c-4.727,1.351-9.453,2.026-14.517,1.688
					c-2.363,0-4.727-0.338-7.09-0.675c-1.351-0.338-3.039-0.338-4.389-0.676l-1.688-0.675c-2.025-0.676-4.051-1.351-5.402-2.701
					c-0.675-0.338-1.013-1.013-1.688-1.688v2.026c0,0.675,0,2.7,0,2.7c0,1.351,0.675,2.363,1.688,3.039
					c3.376,2.363,7.09,3.714,11.141,4.051c2.701,0.338,5.402,0.676,8.103,0.676c4.051,0,7.765-0.338,11.816-1.351l0,0
					c2.026-0.338,4.052-1.351,6.077-2.363l0,0c2.026-1.013,3.039-2.701,3.039-4.052c0,0,0-4.389,0-4.727
					C347.155,194.125,346.48,194.801,345.467,195.476z"/>
			</g>
			<g>
				<path fill="#FFFFFF" d="M324.873,181.296c11.479,0,20.932-3.376,20.932-7.765c0,0,0.338-4.052,0-4.727
					c0-0.676,0-1.013-0.337-1.688c1.351-0.675,2.026-2.025,2.363-3.376c0,0,0-4.389,0-5.401c-0.675-5.402-11.141-8.103-21.27-8.103
					s-21.27,3.038-21.27,8.44c0,0.337,0.338,4.727,0.338,4.727c0,0.337,0,0.675,0.337,1.013c-1.688,1.013-2.363,2.363-2.701,4.389
					c0,0.338,0.337,4.727,0.337,4.727c0,1.351,0.675,2.363,1.688,3.038c3.376,2.363,7.09,3.714,11.141,4.052
					C319.471,181.296,322.172,181.296,324.873,181.296z M326.899,152.262c11.141,0,18.906,3.376,18.906,6.415
					c0,3.038-7.765,6.414-18.906,6.414s-18.906-3.376-18.906-6.414C307.993,155.638,315.758,152.262,326.899,152.262z
					 M305.967,168.467c0-1.013,0.675-2.025,1.688-2.363c0.675,0.676,1.351,1.013,2.026,1.688c5.402,2.363,11.479,3.714,17.556,3.376
					c5.064,0,10.128-0.676,14.855-2.363c0.675-0.338,1.35-0.676,1.688-0.676c0,0,0,0.338,0,0.676c0,3.038-7.765,6.414-18.906,6.414
					S305.967,171.506,305.967,168.467z"/>
			</g>
			<g>
				<path fill="#FFFFFF" d="M318.458,197.164c2.701,0.337,5.402,0.675,8.103,0.675c4.051,0,7.765-0.338,11.816-1.351l0,0
					c2.026-0.337,4.051-1.351,6.077-2.363l0,0c0.337-0.337,1.013-0.675,1.35-1.013c0.675-0.675,1.351-1.351,1.688-2.025
					c0-0.338,0.337-0.676,0.337-1.013c0,0,0-4.389,0-4.727c-0.675,1.013-2.363,3.714-10.804,5.401
					c-3.376,0.676-6.752,0.676-10.466,0.676c-5.739,0-11.479-1.014-16.88-3.376c-1.013-0.338-1.688-1.014-2.701-1.688
					c-0.338-0.338-1.013-1.013-1.351-1.688v2.026v3.038c0,1.351,0.675,2.363,1.688,3.038
					C310.693,195.476,314.745,196.826,318.458,197.164z"/>
			</g>
			<g>
				<path fill="#FFFFFF" d="M347.493,176.233c0-0.338-0.338-0.338-0.675-0.338l-1.013-0.338c-0.337,0.338-0.675,1.013-1.013,1.351
					c0.338,0,0.675,0.338,0.675,0.338c0.675,0.337,1.013,1.013,1.013,1.688c0,0.676-0.337,1.013-0.675,1.351
					c-0.337,0.338-0.675,0.338-0.675,0.676l-1.351,0.675c0,0-1.351,0.675-1.688,0.675l-1.688,0.676l-2.701,0.675
					c0,0-2.363,0.338-3.376,0.676l-3.376,0.337c-0.338,0-3.376,0.338-4.727,0.338c-2.363,0-4.389,0-6.752-0.338
					c-1.688-0.337-3.376-0.675-4.727-1.013c-1.688-0.337-3.376-1.013-5.064-1.688c-1.013-0.338-1.688-1.013-2.701-1.688
					c-0.675-0.675-1.351-1.351-1.688-2.363v2.701v2.701c0,1.35,0.675,2.363,1.688,3.038c3.376,2.363,7.089,3.714,11.141,4.052
					c2.701,0.337,5.401,0.675,8.103,0.675c4.051,0,8.103-0.338,12.154-1.351l0,0c2.026-0.338,4.051-1.351,6.077-2.363l0,0
					c0.337-0.338,1.013-0.675,1.35-1.013c0.675-0.675,1.351-1.351,1.688-2.025c0-0.338,0.337-0.676,0.337-1.013v-4.39
					c0-0.337,0-0.675,0-1.013C347.831,176.57,347.831,176.233,347.493,176.233z"/>
			</g>
			<g>
				<path fill="#FFFFFF" d="M373.151,166.104c11.479,0,20.932-3.376,20.932-7.765c0,0,0.338-4.052,0-4.727
					c0-0.676,0-1.013-0.337-1.688c1.35-0.675,2.025-2.025,2.363-3.376c0,0,0.337-4.389,0-5.401
					c-0.675-5.402-11.141-8.103-21.27-8.103s-21.27,3.038-21.27,8.439c0,0.338,0.338,4.727,0.338,4.727c0,0.338,0,0.676,0.337,1.014
					c-1.688,1.013-2.701,2.363-2.701,4.389c0,0.338,0.337,4.727,0.337,4.727c0,1.351,0.675,2.363,1.688,3.038
					c3.376,2.363,7.09,3.714,11.479,4.052C367.75,165.766,370.45,166.104,373.151,166.104z M375.515,137.07
					c11.141,0,18.906,3.376,18.906,6.414c0,3.039-7.765,6.415-18.906,6.415s-18.906-3.376-18.906-6.415
					C356.608,140.446,364.374,137.07,375.515,137.07z M354.245,153.275c0-0.675,0.675-1.688,1.688-2.363
					c0.675,0.676,1.351,1.013,2.026,1.688c5.401,2.363,11.479,3.714,17.556,3.376c5.064,0,10.128-0.676,14.854-2.363
					c0.675-0.338,1.351-0.676,1.688-0.676c0,0,0,0.338,0,0.676c0,3.038-7.765,6.414-18.906,6.414S354.245,156.314,354.245,153.275z"
					/>
			</g>
			<g>
				<path fill="#FFFFFF" d="M396.446,161.715c0-0.338-0.337-0.675-0.675-0.675l-0.675-0.338l-1.013-0.338
					c-0.337,0.338-0.675,1.013-1.013,1.351c0.337,0,0.675,0.338,0.675,0.338c0.675,0.337,1.013,1.013,1.013,1.688
					c0,0.676-0.337,1.013-0.675,1.351c-0.337,0.338-0.337,0.676-0.675,0.676l-1.35,0.675c0,0-1.351,0.675-1.688,0.675
					c0,0-1.35,0.338-1.688,0.676l-2.363,0.675c0,0-2.363,0.338-3.376,0.676l-3.376,0.337c-0.338,0-3.376,0.338-4.727,0.338
					c-2.363,0-4.389,0-6.752-0.338c-1.688-0.337-3.376-0.675-4.727-1.013c-1.688-0.337-3.376-1.013-5.064-1.688
					c-1.013-0.338-1.688-1.013-2.701-1.688c-0.675-0.675-1.351-1.351-1.688-2.363v2.701v2.701c0,1.35,0.675,2.362,1.688,3.038
					c3.376,2.363,7.09,3.714,11.141,4.051c2.701,0.338,5.402,0.676,8.103,0.676c4.051,0,8.103-0.338,12.154-1.351l0,0
					c2.026-0.675,4.051-1.351,6.077-2.363l0,0c0.337-0.338,1.013-0.675,1.351-1.013c0.675-0.676,1.35-1.351,1.688-2.025
					c0-0.338,0.337-0.676,0.337-1.013v-4.39C396.784,162.39,396.784,162.053,396.446,161.715z"/>
			</g>
			<g>
				<path fill="#FFFFFF" d="M394.083,180.283c-1.351,1.013-3.039,1.688-4.727,2.025c-4.727,1.351-9.453,2.026-14.517,1.688
					c-2.363,0-4.727-0.338-7.09-0.675c-1.351-0.338-3.039-0.338-4.389-0.676l-1.688-0.338c-2.025-0.675-4.051-1.35-5.739-2.7
					c-0.675-0.338-1.013-1.013-1.688-1.688v2.025c0,0.676,0,2.701,0,2.701c0,1.351,0.675,2.363,1.688,3.039
					c3.376,2.363,7.09,3.713,11.141,4.051c2.701,0.338,5.402,0.675,8.103,0.675c4.051,0,8.103-0.337,11.816-1.35l0,0
					c2.026-0.338,4.051-1.351,6.077-2.363l0,0c2.025-1.013,3.039-2.701,3.039-4.052c0,0,0-4.389,0-4.727
					C395.771,178.933,395.096,179.609,394.083,180.283z"/>
			</g>
			<g>
				<path fill="#FFFFFF" d="M355.933,177.92c3.376,2.363,7.09,3.714,11.141,4.389c2.701,0.338,5.402,0.676,8.103,0.676
					c4.051,0,7.765-0.338,11.816-1.351l0,0c2.026-0.675,4.389-1.351,6.077-2.701l0,0c0.337-0.337,1.013-0.675,1.351-1.013
					c0.675-0.675,1.35-1.351,1.688-2.025c0-0.338,0.337-0.676,0.337-1.013c0,0,0-4.39,0-4.727
					c-0.675,1.013-2.363,3.714-10.804,5.401c-3.376,0.676-7.089,1.013-10.803,1.013c-5.739,0-11.479-1.013-16.88-3.376
					c-1.013-0.338-1.688-1.013-2.701-1.688c-0.337-0.338-1.013-1.014-1.35-1.688v2.025v3.039
					C354.245,176.233,354.92,177.245,355.933,177.92z"/>
			</g>
			<g>
				<path fill="#FFFFFF" d="M396.784,192.775c-0.675,1.014-1.688,1.688-2.701,2.363c-1.351,1.014-3.039,1.688-4.727,2.026
					c-4.727,1.351-9.453,2.025-14.517,1.688c-2.363,0-4.727-0.337-7.09-0.675c-1.351-0.338-3.039-0.338-4.389-0.676l-2.025-0.675
					c-2.026-0.675-4.051-1.351-5.739-2.701c-0.675-0.337-1.013-1.013-1.688-1.688v2.025c0,0.675,0,2.701,0,2.701
					c0,1.351,0.675,2.363,1.688,3.038c3.376,2.363,7.09,3.714,11.141,4.052c2.701,0.337,5.402,0.675,8.103,0.675
					c4.051,0,7.765-0.338,11.816-1.351l0,0c2.025-0.337,4.051-1.351,6.077-2.363l0,0c2.026-1.013,3.039-2.7,3.039-4.051
					C396.784,197.501,396.784,193.45,396.784,192.775z"/>
			</g>
			<g>
				<path fill="#FFFFFF" d="M367.412,197.164c2.701,0.337,5.401,0.675,8.103,0.675c4.051,0,8.103-0.338,11.816-1.351l0,0
					c2.025-0.337,4.051-1.351,6.077-2.363l0,0c0.338-0.337,1.013-0.675,1.351-1.013c0.675-0.675,1.351-1.351,1.688-2.025
					c0-0.338,0.338-0.676,0.338-1.013c0,0,0-4.389,0-4.727c-0.675,1.013-2.363,3.714-10.804,5.401
					c-3.376,0.676-7.09,1.013-10.804,1.013c-5.739,0-11.479-1.013-16.88-3.376c-1.013-0.337-1.688-1.013-2.701-1.688
					c-0.338-0.338-1.013-1.013-1.351-1.688v2.025v3.039c0,1.013,0.675,2.363,1.688,3.038
					C358.972,195.476,363.023,196.826,367.412,197.164z"/>
			</g>
		</g>
	</g>
</g>
</svg>
