<?xml version="1.0" encoding="utf-8"?>
<!-- Generator: Adobe Illustrator 16.0.3, SVG Export Plug-In . SVG Version: 6.00 Build 0)  -->
<!DOCTYPE svg PUBLIC "-//W3C//DTD SVG 1.1//EN" "http://www.w3.org/Graphics/SVG/1.1/DTD/svg11.dtd" [
	<!ENTITY ns_extend "http://ns.adobe.com/Extensibility/1.0/">
	<!ENTITY ns_ai "http://ns.adobe.com/AdobeIllustrator/10.0/">
	<!ENTITY ns_graphs "http://ns.adobe.com/Graphs/1.0/">
	<!ENTITY ns_vars "http://ns.adobe.com/Variables/1.0/">
	<!ENTITY ns_imrep "http://ns.adobe.com/ImageReplacement/1.0/">
	<!ENTITY ns_sfw "http://ns.adobe.com/SaveForWeb/1.0/">
	<!ENTITY ns_custom "http://ns.adobe.com/GenericCustomNamespace/1.0/">
	<!ENTITY ns_adobe_xpath "http://ns.adobe.com/XPath/1.0/">
]>
<svg version="1.1" id="Layer_1" xmlns:x="&ns_extend;" xmlns:i="&ns_ai;" xmlns:graph="&ns_graphs;"
	 xmlns="http://www.w3.org/2000/svg" xmlns:xlink="http://www.w3.org/1999/xlink" x="0px" y="0px" width="285.37px"
	 height="285.37px" viewBox="284.165 72.245 285.37 285.37" enable-background="new 284.165 72.245 285.37 285.37"
	 xml:space="preserve">
<metadata>
	<sfw  xmlns="&ns_sfw;">
		<slices></slices>
		<sliceSourceBounds  width="285.37" height="285.37" y="142.885" x="283.665" bottomLeftOrigin="true"></sliceSourceBounds>
	</sfw>
</metadata>
<title>TARGET 1.5</title>
<g id="TARGETS">
	<g>
		<rect x="284.165" y="72.245" fill="#26BDE2" width="285.37" height="285.37"/>
	</g>
	<g>
		<g>
			<path fill="#FFFFFF" d="M353.099,195.063c0-2.709-2.107-4.515-4.816-4.515c-2.709,0-4.515,2.106-4.515,4.816
				c0,2.709,2.107,4.515,4.816,4.515C351.292,199.879,353.099,197.773,353.099,195.063L353.099,195.063z"/>
		</g>
		<g>
			<path fill="#FFFFFF" d="M343.165,201.686c-3.01,0.301-5.72,3.01-5.72,6.021v12.944c0,0.902,0.903,1.806,1.806,1.806
				c0.903,0,1.806-0.903,1.806-1.806v-11.139c0-0.301,0-0.902,0.903-0.902c0.903,0,0.602,0.602,0.602,0.902v33.113
				c0,1.505,1.204,2.709,2.709,2.709c1.505,0,2.709-1.204,2.709-2.709l0,0V223.66c0-0.301,0.301-0.602,0.602-0.602l0,0l0,0
				c0.301,0,0.602,0.301,0.602,0.602l0,0v19.266c0,1.505,1.204,2.709,2.709,2.709c1.505,0,2.709-1.204,2.709-2.709v-33.112
				c0-0.302,0-0.903,0.602-0.903s0.903,0.602,0.903,0.903v11.138c0,0.903,0.903,1.806,1.806,1.806l0,0
				c0.903,0,1.806-0.902,1.806-1.806l0,0v-13.245c0-3.011-2.408-5.72-5.719-6.021H343.165z"/>
		</g>
		<g>
			<path fill="#FFFFFF" d="M324.501,195.966c0-2.408-2.107-4.516-4.515-4.516s-4.516,2.107-4.516,4.516s2.107,4.516,4.516,4.516l0,0
				C322.395,200.482,324.501,198.374,324.501,195.966z"/>
		</g>
		<g>
			<path fill="#FFFFFF" d="M310.654,219.747l3.01-10.235c0,0,0.301-0.902,0.602-0.602c0.301,0.301,0.301,0.903,0.301,0.903
				l-5.418,19.265h4.816v13.848c0,1.204,1.204,2.408,2.709,2.107c1.204,0,2.107-0.903,2.107-2.107v-13.848h1.204v13.848
				c0,1.204,1.204,2.408,2.408,2.408s2.408-1.204,2.408-2.408v-13.848h4.816l-5.418-19.265c0,0-0.301-0.903,0.301-0.903
				s0.903,0.602,0.903,0.602l3.01,10.235c0,0,0.602,2.107,2.408,1.505c1.806-0.602,1.204-2.709,1.204-2.709l-3.914-12.342
				c0,0-1.505-3.612-4.515-3.612h-9.633c-3.01,0-4.214,3.612-4.214,3.612l-3.914,12.342c0,0-0.602,2.408,1.204,2.709
				S310.654,219.747,310.654,219.747z"/>
		</g>
		<g>
			<path fill="#FFFFFF" d="M442.503,140.277v9.633c0,0.301,0,0.301,0.301,0.301l0,0h4.215c0.301,0,0.301,0,0.301-0.301l0,0v-9.934
				l0,0c6.923-1.505,11.739-7.525,11.438-14.75c0-7.525-5.117-19.266-11.438-22.275c-0.603-0.302-1.506-0.603-2.408-0.603h-0.603
				c-5.719,0-10.535,7.225-12.943,14.449c-0.302,0.602-0.302,0.903-0.603,1.505c-0.602,2.408-1.204,4.816-1.204,7.225
				C429.859,133.052,435.278,139.374,442.503,140.277z"/>
		</g>
		<g>
			<path fill="#FFFFFF" d="M401.865,140.277H412.4v9.633v0.301h0.301h4.516c0.301,0,0.301,0,0.301-0.301l0,0v-9.934h10.536
				c0.301,0,0.602-0.301,0.602-0.602l0,0v-0.302l-12.944-41.842l0,0c0-0.301-0.301-0.301-0.602-0.301c-0.301,0-0.602,0-0.602,0.301
				l-0.301,0.301l-12.944,41.843c-0.301,0.301,0,0.902,0.301,0.902C401.563,140.277,401.563,140.277,401.865,140.277z"/>
		</g>
		<g>
			<path fill="#FFFFFF" d="M534.314,202.589c0,0,3.312-1.807,3.312-3.914c-0.301-2.106-1.505-4.214-3.01-5.719
				c0,0-3.011,3.311-3.011,5.719S533.713,201.987,534.314,202.589z"/>
		</g>
		<g>
			<path fill="#FFFFFF" d="M529.498,206.201c0,0,0.903,0.902,4.516,1.505c0,0,0.301-3.612-0.903-5.117
				c-1.505-1.506-3.311-3.011-5.418-3.914C527.392,198.977,527.091,204.395,529.498,206.201z"/>
		</g>
		<g>
			<path fill="#FFFFFF" d="M528.896,213.727c0,0,0.903,1.204,4.816,1.806c0.301-1.806,0-3.913-0.903-5.418
				c-1.505-1.807-3.612-3.011-5.72-4.215C527.091,205.9,526.488,211.92,528.896,213.727z"/>
		</g>
		<g>
			<path fill="#FFFFFF" d="M527.091,213.727c0,0-0.903,6.622,1.806,8.429c1.505,1.204,3.312,1.806,5.117,1.806
				c0,0,0.603-3.913-0.903-5.719C533.11,218.242,532.208,216.737,527.091,213.727z"/>
		</g>
		<g>
			<path fill="#FFFFFF" d="M528.294,230.282c1.506,1.204,3.312,1.807,5.419,1.807c0,0,0.602-4.516-0.903-6.021
				c-1.806-1.806-4.214-3.312-6.622-4.516C526.188,221.553,525.886,228.477,528.294,230.282z"/>
		</g>
		<g>
			<path fill="#FFFFFF" d="M536.121,202.589c-1.505,1.505-0.903,5.117-0.903,5.117c3.612-0.603,4.516-1.505,4.516-1.505
				c2.408-1.807,1.806-7.225,1.806-7.225C539.433,199.879,537.626,201.083,536.121,202.589z"/>
		</g>
		<g>
			<path fill="#FFFFFF" d="M542.142,205.9c-2.107,0.903-4.215,2.408-6.021,4.215c-0.903,1.806-1.204,3.612-0.903,5.418
				c3.913-0.602,4.816-1.806,4.816-1.806C542.442,211.92,542.142,205.9,542.142,205.9z"/>
		</g>
		<g>
			<path fill="#FFFFFF" d="M536.121,218.242c-1.505,1.505-0.903,5.719-0.903,5.719c1.807,0,3.612-0.602,5.117-1.806
				c2.408-2.107,1.807-8.429,1.807-8.429C536.723,216.737,536.121,218.242,536.121,218.242z"/>
		</g>
		<g>
			<path fill="#FFFFFF" d="M542.743,221.553c-2.408,1.204-4.816,2.71-6.622,4.516c-1.505,1.505-0.903,6.021-0.903,6.021
				c1.807,0,3.913-0.903,5.419-1.807C543.045,228.477,542.743,221.553,542.743,221.553z"/>
		</g>
		<g>
			<rect x="533.713" y="233.293" fill="#FFFFFF" width="1.806" height="15.051"/>
		</g>
		<g>
			<path fill="#FFFFFF" d="M528.294,185.431c-0.301,0-0.602,0.301-0.602,0.602l0,0v11.74l1.204,0.602v-12.643
				C528.896,185.732,528.596,185.431,528.294,185.431L528.294,185.431z"/>
		</g>
		<g>
			<path fill="#FFFFFF" d="M531.305,184.227c0-0.302,0-0.603-0.603-0.603c-0.301,0-0.602,0-0.602,0.603v0.301v13.847l0,0
				c0.301-0.903,0.602-2.107,1.204-3.01V184.227L531.305,184.227z"/>
		</g>
		<g>
			<path fill="#FFFFFF" d="M533.11,180.615c-0.301,0-0.602,0.301-0.602,0.602v12.041l1.204-1.505v-10.536
				C533.713,180.915,533.412,180.615,533.11,180.615z"/>
		</g>
		<g>
			<path fill="#FFFFFF" d="M540.938,185.431c-0.301,0-0.603,0.301-0.603,0.602l0,0v12.643l1.204-0.602v-12.041
				C541.539,185.732,541.238,185.431,540.938,185.431L540.938,185.431z"/>
		</g>
		<g>
			<path fill="#FFFFFF" d="M539.131,184.227c0-0.302-0.301-0.603-0.602-0.603s-0.603,0.301-0.603,0.603v11.138
				c0.603,0.902,0.903,2.106,1.204,3.01l0,0V184.227z"/>
		</g>
		<g>
			<path fill="#FFFFFF" d="M535.82,180.615c-0.302,0-0.603,0.301-0.603,0.602v10.536l1.204,1.505v-12.041
				C536.422,180.915,536.422,180.615,535.82,180.615L535.82,180.615z"/>
		</g>
		<g>
			<path fill="#FFFFFF" d="M512.039,202.589c0,0,3.011-1.807,3.011-3.914c-0.302-2.106-1.506-4.214-3.011-5.719
				c0,0-3.01,3.311-3.01,5.719S511.136,201.987,512.039,202.589z"/>
		</g>
		<g>
			<path fill="#FFFFFF" d="M506.621,206.201c0,0,0.902,0.902,4.515,1.505c0,0,0.302-3.612-0.902-5.117
				c-1.506-1.506-3.312-3.011-5.419-3.914C504.814,198.977,504.213,204.395,506.621,206.201z"/>
		</g>
		<g>
			<path fill="#FFFFFF" d="M506.319,213.727c0,0,0.903,1.204,4.816,1.806c0,0,0.603-3.913-0.902-5.418
				c-1.807-1.807-3.612-3.011-5.72-4.215C504.514,205.9,503.911,211.92,506.319,213.727z"/>
		</g>
		<g>
			<path fill="#FFFFFF" d="M504.514,213.727c0,0-0.903,6.622,1.806,8.429c1.506,1.204,3.312,1.806,5.118,1.806
				c0,0,0.602-3.913-0.903-5.719C510.534,218.242,509.631,216.737,504.514,213.727z"/>
		</g>
		<g>
			<path fill="#FFFFFF" d="M505.718,230.282c1.505,1.204,3.312,1.807,5.418,1.807c0,0,0.603-4.516-0.902-6.021
				c-1.807-1.806-4.215-3.312-6.623-4.516C503.61,221.553,503.31,228.477,505.718,230.282z"/>
		</g>
		<g>
			<path fill="#FFFFFF" d="M513.544,202.589c-1.505,1.505-0.902,5.117-0.902,5.117c3.611-0.603,4.515-1.505,4.515-1.505
				c2.408-1.807,1.807-7.225,1.807-7.225C516.855,199.879,515.05,201.083,513.544,202.589z"/>
		</g>
		<g>
			<path fill="#FFFFFF" d="M519.264,205.9c-2.107,0.903-4.214,2.408-5.72,4.215c-1.505,1.505-1.204,5.418-1.204,5.418
				c3.914-0.602,4.816-1.806,4.816-1.806C519.866,211.92,519.264,205.9,519.264,205.9z"/>
		</g>
		<g>
			<path fill="#FFFFFF" d="M513.544,218.242c-1.505,1.505-0.902,5.719-0.902,5.719c1.806,0,3.611-0.602,5.117-1.806
				c2.709-1.807,1.806-8.429,1.806-8.429C514.146,216.737,513.544,218.242,513.544,218.242z"/>
		</g>
		<g>
			<path fill="#FFFFFF" d="M520.167,221.553c-2.408,1.204-4.816,2.71-6.623,4.516c-1.505,1.505-0.902,6.021-0.902,6.021
				c2.106,0,3.913-0.903,5.418-2.107C520.468,228.477,520.167,221.553,520.167,221.553z"/>
		</g>
		<g>
			<rect x="511.136" y="233.293" fill="#FFFFFF" width="1.807" height="15.051"/>
		</g>
		<g>
			<path fill="#FFFFFF" d="M505.718,185.431c-0.301,0-0.603,0.301-0.603,0.602l0,0v11.74l1.204,0.602v-12.643
				C506.319,185.732,506.019,185.431,505.718,185.431L505.718,185.431z"/>
		</g>
		<g>
			<path fill="#FFFFFF" d="M508.728,184.227c0-0.302,0-0.603-0.602-0.603c-0.301,0-0.603,0-0.603,0.603v0.301v13.847l0,0
				c0.302-0.903,0.603-2.107,1.204-3.01V184.227z"/>
		</g>
		<g>
			<path fill="#FFFFFF" d="M510.534,180.615c-0.301,0-0.603,0.301-0.603,0.602v12.041l1.204-1.505v-10.536
				C511.136,180.915,510.835,180.615,510.534,180.615z"/>
		</g>
		<g>
			<path fill="#FFFFFF" d="M518.36,185.431c-0.301,0-0.602,0.301-0.602,0.602l0,0v12.643l1.204-0.602v-12.041
				C518.963,185.732,518.661,185.431,518.36,185.431L518.36,185.431z"/>
		</g>
		<g>
			<path fill="#FFFFFF" d="M516.254,184.227c0-0.302-0.302-0.603-0.603-0.603s-0.602,0.301-0.602,0.603v11.138
				c0.602,0.902,0.902,2.106,1.204,3.01l0,0V184.227z"/>
		</g>
		<g>
			<path fill="#FFFFFF" d="M513.243,180.615c-0.301,0-0.602,0.301-0.602,0.602v10.536l1.204,1.505v-12.041
				C513.846,180.915,513.846,180.615,513.243,180.615L513.243,180.615z"/>
		</g>
		<g>
			<polygon fill="#FFFFFF" points="479.83,176.7 476.519,176.7 476.519,248.646 382.599,248.646 382.599,176.7 378.987,176.7 
				378.987,251.956 479.83,251.956 			"/>
		</g>
		<g>
			<path fill="#FFFFFF" d="M388.018,212.222L388.018,212.222c18.362,16.856,37.025,3.01,41.24-0.302l0.301-0.301h0.301h0.302
				l0.301,0.301c3.913,3.312,22.576,17.158,40.638,0.903l0.603-0.602c0.301,0,0.301-0.302,0.301-0.603v-9.03
				c0-0.603-0.301-0.903-0.903-0.903h-0.301l-0.301,0.301c-5.419,3.913-23.48,14.75-39.735-0.301l0,0
				c-0.301-0.301-0.903-0.301-1.204,0l0,0l-0.301,0.301c-15.955,14.75-33.715,4.516-39.434,0.603l-0.301-0.302c0,0-0.301,0-0.602,0
				c-0.301,0-0.903,0.302-0.903,0.603v8.729l0,0l0,0C388.018,211.92,388.018,211.92,388.018,212.222z"/>
		</g>
		<g>
			<path fill="#FFFFFF" d="M388.018,232.39L388.018,232.39c18.362,16.857,37.025,3.011,41.24-0.301l0.301-0.301h0.301h0.302
				l0.301,0.301c3.913,3.312,22.576,17.158,40.638,0.903l0.603-0.603c0.301,0,0.301-0.301,0.301-0.602v-9.031
				c0-0.602-0.301-0.902-0.903-0.902h-0.301l-0.301,0.301c-5.419,3.913-23.48,14.75-39.735-0.301l0,0
				c-0.301-0.302-0.903-0.302-1.204,0l0,0l-0.301,0.301c-15.955,15.051-33.715,4.515-39.434,0.602l-0.301-0.301c0,0-0.301,0-0.602,0
				c-0.301,0-0.903,0.301-0.903,0.603v8.729l0,0l0,0C387.716,232.089,388.018,232.39,388.018,232.39z"/>
		</g>
		<g>
			<path fill="#FFFFFF" d="M389.522,193.859c0.903,0,1.505-0.602,1.505-1.505s-0.602-1.505-1.505-1.505
				c-0.903,0-1.505,0.602-1.505,1.505l0,0C388.018,193.558,388.62,194.16,389.522,193.859z"/>
		</g>
		<g>
			<circle fill="#FFFFFF" cx="395.844" cy="192.655" r="1.505"/>
		</g>
		<g>
			<circle fill="#FFFFFF" cx="402.166" cy="192.655" r="1.505"/>
		</g>
		<g>
			<path fill="#FFFFFF" d="M408.186,191.15c-0.903,0-1.505,0.603-1.505,1.505c0,0.903,0.603,1.506,1.505,1.506
				s1.505-0.603,1.505-1.506C409.691,191.752,409.089,191.15,408.186,191.15L408.186,191.15z"/>
		</g>
		<g>
			<path fill="#FFFFFF" d="M414.507,191.15c-0.903,0-1.505,0.603-1.505,1.505c0,0.903,0.602,1.506,1.505,1.506
				c0.903,0,1.505-0.603,1.505-1.506C416.013,191.752,415.411,191.15,414.507,191.15L414.507,191.15z"/>
		</g>
		<g>
			<circle fill="#FFFFFF" cx="420.829" cy="192.655" r="1.505"/>
		</g>
		<g>
			<path fill="#FFFFFF" d="M427.15,191.15c-0.903,0-1.505,0.603-1.505,1.505c0,0.903,0.602,1.506,1.505,1.506
				s1.505-0.603,1.505-1.506C428.655,191.752,428.054,191.15,427.15,191.15L427.15,191.15z"/>
		</g>
		<g>
			<path fill="#FFFFFF" d="M433.472,191.15c-0.902,0-1.505,0.603-1.505,1.505c0,0.903,0.603,1.506,1.505,1.506
				c0.903,0,1.506-0.603,1.506-1.506C434.978,191.752,434.375,191.15,433.472,191.15L433.472,191.15z"/>
		</g>
		<g>
			<path fill="#FFFFFF" d="M439.794,191.15c-0.903,0-1.506,0.603-1.506,1.505c0,0.903,0.603,1.506,1.506,1.506
				c0.902,0,1.505-0.603,1.505-1.506C441.299,191.752,440.696,191.15,439.794,191.15L439.794,191.15z"/>
		</g>
		<g>
			<circle fill="#FFFFFF" cx="446.115" cy="192.655" r="1.505"/>
		</g>
		<g>
			<circle fill="#FFFFFF" cx="452.437" cy="192.655" r="1.505"/>
		</g>
		<g>
			<path fill="#FFFFFF" d="M458.758,191.15c-0.903,0-1.505,0.603-1.505,1.505c0,0.903,0.602,1.506,1.505,1.506
				s1.505-0.603,1.505-1.506C459.962,191.752,459.36,191.15,458.758,191.15L458.758,191.15z"/>
		</g>
		<g>
			<path fill="#FFFFFF" d="M465.079,193.859c0.903,0,1.506-0.602,1.506-1.505s-0.603-1.505-1.506-1.505
				c-0.902,0-1.505,0.602-1.505,1.505l0,0C463.574,193.257,464.177,194.16,465.079,193.859z"/>
		</g>
		<g>
			<circle fill="#FFFFFF" cx="471.1" cy="192.655" r="1.505"/>
		</g>
		<g>
			<path fill="#FFFFFF" d="M392.834,189.042c0.903,0,1.505-0.602,1.505-1.505l0,0c0-0.902-0.602-1.505-1.505-1.505
				c-0.903,0-1.505,0.603-1.505,1.505C391.63,188.441,392.232,189.042,392.834,189.042z"/>
		</g>
		<g>
			<circle fill="#FFFFFF" cx="399.155" cy="187.839" r="1.505"/>
		</g>
		<g>
			<path fill="#FFFFFF" d="M403.972,187.838c0,0.903,0.301,1.506,1.204,1.506s1.505-0.302,1.505-1.204v-0.302
				c0-0.902-0.903-1.203-1.505-1.203S404.272,187.237,403.972,187.838z"/>
		</g>
		<g>
			<path fill="#FFFFFF" d="M410.293,187.838c0,0.903,0.301,1.506,1.204,1.506c0.903,0,1.505-0.302,1.505-1.204v-0.302
				c0-0.902-0.903-1.203-1.505-1.203C410.896,186.635,410.594,187.237,410.293,187.838z"/>
		</g>
		<g>
			<path fill="#FFFFFF" d="M416.615,187.838c0,0.903,0.602,1.506,1.505,1.506c0.903,0,1.505-0.603,1.505-1.506
				c0-0.902-0.602-1.505-1.505-1.505C417.217,186.333,416.615,186.936,416.615,187.838z"/>
		</g>
		<g>
			<circle fill="#FFFFFF" cx="424.441" cy="187.839" r="1.505"/>
		</g>
		<g>
			<circle fill="#FFFFFF" cx="430.763" cy="187.839" r="1.505"/>
		</g>
		<g>
			<path fill="#FFFFFF" d="M435.579,187.838c0,0.903,0.603,1.506,1.505,1.506c0.903,0,1.506-0.603,1.506-1.506
				c0-0.902-0.603-1.505-1.506-1.505C436.182,186.333,435.579,186.936,435.579,187.838z"/>
		</g>
		<g>
			<path fill="#FFFFFF" d="M441.9,187.838c0,0.903,0.603,1.506,1.505,1.506c0.903,0,1.506-0.603,1.506-1.506
				c0-0.902-0.603-1.505-1.506-1.505C442.503,186.333,441.9,186.936,441.9,187.838z"/>
		</g>
		<g>
			<circle fill="#FFFFFF" cx="449.426" cy="187.839" r="1.505"/>
		</g>
		<g>
			<path fill="#FFFFFF" d="M454.544,187.838c0,0.903,0.602,1.506,1.505,1.506s1.505-0.603,1.505-1.506
				c0-0.902-0.602-1.505-1.505-1.505S454.544,186.936,454.544,187.838z"/>
		</g>
		<g>
			<path fill="#FFFFFF" d="M462.069,189.042c0.903,0,1.505-0.602,1.505-1.505l0,0c0-0.902-0.602-1.505-1.505-1.505
				s-1.505,0.603-1.505,1.505C460.865,188.441,461.467,189.042,462.069,189.042z"/>
		</g>
		<g>
			<circle fill="#FFFFFF" cx="468.391" cy="187.839" r="1.505"/>
		</g>
		<g>
			<path fill="#FFFFFF" d="M389.824,184.227c0.903,0,1.505-0.603,1.505-1.506c0-0.902-0.602-1.505-1.505-1.505
				c-0.903,0-1.505,0.603-1.505,1.505C388.318,183.624,388.92,184.227,389.824,184.227L389.824,184.227z"/>
		</g>
		<g>
			<path fill="#FFFFFF" d="M396.145,184.227c0.903,0,1.505-0.603,1.505-1.506c0-0.902-0.602-1.505-1.505-1.505
				c-0.903,0-1.505,0.603-1.505,1.505C394.64,183.624,395.242,184.227,396.145,184.227L396.145,184.227z"/>
		</g>
		<g>
			<circle fill="#FFFFFF" cx="402.467" cy="182.721" r="1.505"/>
		</g>
		<g>
			<path fill="#FFFFFF" d="M408.788,181.517c-0.903,0-1.505,0.603-1.505,1.506c0,0.902,0.602,1.505,1.505,1.505
				s1.505-0.603,1.505-1.505C409.992,182.119,409.39,181.517,408.788,181.517L408.788,181.517z"/>
		</g>
		<g>
			<path fill="#FFFFFF" d="M414.809,181.517c-0.903,0-1.505,0.603-1.505,1.506c0,0.902,0.602,1.505,1.505,1.505
				c0.903,0,1.505-0.603,1.505-1.505C416.313,182.119,415.711,181.517,414.809,181.517L414.809,181.517z"/>
		</g>
		<g>
			<circle fill="#FFFFFF" cx="421.13" cy="182.721" r="1.505"/>
		</g>
		<g>
			<path fill="#FFFFFF" d="M427.451,181.517c-0.902,0-1.505,0.603-1.505,1.506c0,0.902,0.603,1.505,1.505,1.505
				c0.903,0,1.506-0.603,1.506-1.505C428.957,182.119,428.354,181.517,427.451,181.517L427.451,181.517z"/>
		</g>
		<g>
			<path fill="#FFFFFF" d="M433.773,181.517c-0.903,0-1.506,0.603-1.506,1.506c0,0.902,0.603,1.505,1.506,1.505
				c0.902,0,1.505-0.603,1.505-1.505C435.278,182.119,434.676,181.517,433.773,181.517L433.773,181.517z"/>
		</g>
		<g>
			<path fill="#FFFFFF" d="M440.095,181.517c-0.903,0-1.505,0.603-1.505,1.506c0,0.902,0.602,1.505,1.505,1.505
				c0.902,0,1.505-0.603,1.505-1.505l0,0C441.6,182.119,440.998,181.517,440.095,181.517z"/>
		</g>
		<g>
			<circle fill="#FFFFFF" cx="446.416" cy="182.721" r="1.505"/>
		</g>
		<g>
			<circle fill="#FFFFFF" cx="452.737" cy="182.721" r="1.505"/>
		</g>
		<g>
			<circle fill="#FFFFFF" cx="459.059" cy="182.721" r="1.505"/>
		</g>
		<g>
			<path fill="#FFFFFF" d="M465.381,184.227c0.902,0,1.505-0.603,1.505-1.506c0-0.902-0.603-1.505-1.505-1.505
				c-0.903,0-1.506,0.603-1.506,1.505C463.875,183.624,464.478,184.227,465.381,184.227L465.381,184.227z"/>
		</g>
		<g>
			<path fill="#FFFFFF" d="M471.702,184.227c0.903,0,1.505-0.603,1.505-1.506c0-0.902-0.602-1.505-1.505-1.505
				s-1.505,0.603-1.505,1.505C470.197,183.624,470.799,184.227,471.702,184.227L471.702,184.227z"/>
		</g>
		<g>
			
				<rect x="467.781" y="128.545" transform="matrix(-0.7035 0.7107 -0.7107 -0.7035 967.555 -142.6609)" fill="#FFFFFF" width="91.511" height="3.913"/>
		</g>
		<g>
			
				<rect x="511.546" y="254.155" transform="matrix(-0.7103 0.7039 -0.7039 -0.7103 1089.3591 151.519)" fill="#FFFFFF" width="3.913" height="91.511"/>
		</g>
		<g>
			
				<rect x="339.675" y="84.973" transform="matrix(-0.7104 0.7038 -0.7038 -0.7104 676.3341 -16.8382)" fill="#FFFFFF" width="3.913" height="91.511"/>
		</g>
		<g>
			
				<rect x="295.878" y="297.729" transform="matrix(-0.7035 0.7107 -0.7107 -0.7035 794.9585 267.7181)" fill="#FFFFFF" width="91.511" height="3.913"/>
		</g>
		<g>
			<g>
				<path fill="#FFFFFF" d="M466.283,291.09H388.92c-0.301,0-0.903,0.301-0.903,0.902v37.327h4.214v-18.965
					c0-0.301,0.301-0.602,0.602-0.602h12.944c0.301,0,0.602,0.301,0.602,0.602v18.965h59.603c0.301,0,0.603-0.301,0.603-0.603
					v-36.725C466.886,291.692,466.585,291.09,466.283,291.09z M406.982,304.334c0,0.301-0.301,0.603-0.602,0.603h-12.944
					c-0.301,0-0.602-0.302-0.602-0.603v-6.923c0-0.301,0.301-0.603,0.602-0.603h12.944c0.301,0,0.602,0.302,0.602,0.603V304.334z
					 M425.345,317.279c0,0.301-0.302,0.602-0.603,0.602h-12.944c-0.301,0-0.602-0.301-0.602-0.602v-6.924
					c0-0.301,0.301-0.602,0.602-0.602h12.944c0.301,0,0.603,0.301,0.603,0.602V317.279z M425.345,304.334
					c0,0.301-0.302,0.603-0.603,0.603h-12.944c-0.301,0-0.602-0.302-0.602-0.603v-6.923c0-0.301,0.301-0.603,0.602-0.603h12.944
					c0.301,0,0.603,0.302,0.603,0.603V304.334z M444.008,317.279c0,0.301-0.301,0.602-0.603,0.602h-12.943
					c-0.301,0-0.603-0.301-0.603-0.602v-6.924c0-0.301,0.302-0.602,0.603-0.602h12.943c0.302,0,0.603,0.301,0.603,0.602V317.279z
					 M444.008,304.334c0,0.301-0.301,0.603-0.603,0.603h-12.943c-0.301,0-0.603-0.302-0.603-0.603v-6.923
					c0-0.301,0.302-0.603,0.603-0.603h12.943c0.302,0,0.603,0.302,0.603,0.603V304.334z M462.671,317.279
					c0,0.301-0.301,0.602-0.602,0.602h-12.944c-0.301,0-0.602-0.301-0.602-0.602v-6.924c0-0.301,0.301-0.602,0.602-0.602h12.944
					c0.301,0,0.602,0.301,0.602,0.602V317.279z M462.671,304.334c0,0.301-0.301,0.603-0.602,0.603h-12.944
					c-0.301,0-0.602-0.302-0.602-0.603v-6.923c0-0.301,0.301-0.603,0.602-0.603h12.944c0.301,0,0.602,0.302,0.602,0.603V304.334z"/>
			</g>
			<g>
				<path fill="#FFFFFF" d="M388.62,285.671h77.965c0.301,0,0.602,0.301,0.602,0.603v2.408c0,0.301-0.301,0.602-0.602,0.602H388.62
					c-0.301,0-0.602-0.301-0.602-0.602v-2.71C388.318,285.671,388.318,285.671,388.62,285.671z"/>
			</g>
		</g>
	</g>
</g>
</svg>
