<?xml version="1.0" encoding="utf-8"?>
<!-- Generator: Adobe Illustrator 16.0.3, SVG Export Plug-In . SVG Version: 6.00 Build 0)  -->
<!DOCTYPE svg PUBLIC "-//W3C//DTD SVG 1.1//EN" "http://www.w3.org/Graphics/SVG/1.1/DTD/svg11.dtd" [
	<!ENTITY ns_extend "http://ns.adobe.com/Extensibility/1.0/">
	<!ENTITY ns_ai "http://ns.adobe.com/AdobeIllustrator/10.0/">
	<!ENTITY ns_graphs "http://ns.adobe.com/Graphs/1.0/">
	<!ENTITY ns_vars "http://ns.adobe.com/Variables/1.0/">
	<!ENTITY ns_imrep "http://ns.adobe.com/ImageReplacement/1.0/">
	<!ENTITY ns_sfw "http://ns.adobe.com/SaveForWeb/1.0/">
	<!ENTITY ns_custom "http://ns.adobe.com/GenericCustomNamespace/1.0/">
	<!ENTITY ns_adobe_xpath "http://ns.adobe.com/XPath/1.0/">
]>
<svg version="1.1" id="Layer_1" xmlns:x="&ns_extend;" xmlns:i="&ns_ai;" xmlns:graph="&ns_graphs;"
	 xmlns="http://www.w3.org/2000/svg" xmlns:xlink="http://www.w3.org/1999/xlink" x="0px" y="0px" width="301.719px"
	 height="301.719px" viewBox="275.981 76.384 301.719 301.719" enable-background="new 275.981 76.384 301.719 301.719"
	 xml:space="preserve">
<metadata>
	<sfw  xmlns="&ns_sfw;">
		<slices></slices>
		<sliceSourceBounds  width="301.719" height="301.719" y="122.397" x="275.481" bottomLeftOrigin="true"></sliceSourceBounds>
	</sfw>
</metadata>
<title>TARGET 1.1</title>
<g id="TARGETS">
	<g>
		<rect x="275.981" y="76.384" fill="#26BDE2" width="301.719" height="301.719"/>
	</g>
	<g>
		<g>
			<path fill="#FFFFFF" d="M476.81,111.394c-0.318-0.318-0.637-0.318-0.955-0.318h-98.027c-0.318,0-0.637,0-0.955,0.318
				c0,0.318,0,0.637,0,0.955l16.55,99.618c0,0.637,0.636,0.955,1.273,0.955h66.2c0.637,0,0.955-0.318,0.955-0.955l15.595-99.618
				C477.127,112.031,477.127,111.712,476.81,111.394 M438.936,190.961c-3.184,2.864-7.32,4.456-11.776,4.138
				c-4.456,0.318-8.593-1.273-11.776-4.138c-5.411-5.729-6.366-14.322-2.228-21.324c1.591-2.864,12.73-20.051,13.686-21.324l0,0l0,0
				l0,0c0.955,1.592,12.094,18.46,13.686,21.324C445.301,176.321,444.346,185.233,438.936,190.961 M470.125,132.081
				c-3.183-0.955-6.365-0.955-9.229,0.637c-12.094,4.774-20.369,6.684-33.418,2.546c-7.957-2.546-15.595-7.956-24.507-4.455
				c-5.729,2.546-11.776,3.818-18.141,4.137l-3.819-19.732h91.662L470.125,132.081z"/>
		</g>
		<g>
			<g>
				<g>
					<path fill="#FFFFFF" d="M522.64,249.523c0-4.774,3.819-8.594,8.912-8.594c4.773,0,8.593,3.819,8.593,8.912
						c0,4.773-3.819,8.593-8.593,8.593C526.777,258.434,522.64,254.296,522.64,249.523"/>
				</g>
				<g>
					<path fill="#FFFFFF" d="M541.735,261.616c6.048,0.637,10.504,5.729,10.504,11.776v24.188c0,1.909-1.592,3.501-3.502,3.501
						c-1.909,0-3.5-1.592-3.5-3.501v-20.688c0-0.637-0.318-1.91-1.592-1.91s-1.273,0.955-1.273,1.592v62.38
						c-0.318,2.547-2.546,4.774-5.41,4.456c-2.546-0.318-4.456-2.228-4.456-4.456v-35.964c0-0.637-0.318-1.273-1.272-1.273
						c0,0,0,0-0.318,0l0,0c-0.637,0-1.273,0.637-1.273,1.273c0,0,0,0,0,0.318v35.964c0,2.547-2.228,4.774-4.773,4.774
						c-2.547,0-4.774-2.228-4.774-4.774l0,0v-62.698c0-0.637-0.318-1.592-1.273-1.592c-0.954,0-1.591,0.955-1.591,1.91v20.688
						c-0.318,1.909-1.91,3.183-3.819,3.183c-1.592,0-2.864-1.592-3.183-3.183v-24.188c0-6.047,4.455-11.14,10.503-11.776h0.636
						h19.097H541.735"/>
				</g>
			</g>
			<g>
				<g>
					<path fill="#FFFFFF" d="M465.988,254.296c0-4.455-3.819-8.274-8.275-8.274s-8.275,3.819-8.275,8.274
						c0,4.456,3.819,8.275,8.275,8.275l0,0C462.169,262.572,465.988,258.752,465.988,254.296"/>
				</g>
				<g>
					<path fill="#FFFFFF" d="M441.163,273.074l-7.002,22.278c0,0-1.273,4.138,2.228,5.093c3.501,0.954,4.456-2.864,4.456-2.864
						l5.41-18.778c0,0,0.318-1.272,1.273-0.954c0.955,0.317,0.637,1.909,0.637,1.909l-9.548,35.01h8.911v25.143
						c-0.318,2.229,1.592,4.456,3.819,4.774s4.456-1.592,4.774-3.819c0-0.318,0-0.637,0-0.637v-24.825h2.546v25.144
						c-0.318,2.228,1.591,4.456,3.819,4.774c2.228,0.318,4.455-1.592,4.773-3.819c0-0.318,0-0.637,0-0.637v-25.144h8.912
						l-9.549-35.009c0,0-0.317-1.592,0.637-1.91c0.955-0.318,1.273,0.955,1.273,0.955l5.41,18.777c0,0,0.955,4.138,4.456,2.865
						c3.501-1.273,2.228-5.093,2.228-5.093l-7.002-22.278c0,0-2.546-6.365-7.956-6.365h-17.823
						C443.709,266.709,441.163,273.074,441.163,273.074"/>
				</g>
			</g>
			<g>
				<g>
					<path fill="#FFFFFF" d="M416.656,253.979c0-4.456-3.819-8.275-8.275-8.275s-8.275,3.819-8.275,8.275
						c0,4.455,3.819,8.274,8.275,8.274l0,0C412.837,262.253,416.656,258.752,416.656,253.979"/>
				</g>
				<g>
					<path fill="#FFFFFF" d="M391.513,272.756l-7.002,22.279c0,0-1.273,4.137,2.228,5.092s4.456-2.864,4.456-2.864l5.411-18.778
						c0,0,0.318-1.272,1.273-0.954s0.637,1.909,0.637,1.909l-9.548,35.01h8.912v25.143c-0.318,2.229,1.591,4.456,3.819,4.774
						s4.456-1.592,4.774-3.819c0-0.318,0-0.637,0-0.637v-24.825h2.546v25.144c-0.318,2.228,1.591,4.456,3.819,4.774
						c2.228,0.318,4.456-1.592,4.774-3.819c0-0.318,0-0.637,0-0.637v-25.144h8.911l-9.548-35.009c0,0-0.318-1.592,0.637-1.91
						c0.955-0.317,1.273,0.955,1.273,0.955l5.411,18.777c0,0,0.955,4.138,4.456,2.865c3.5-1.273,2.228-5.093,2.228-5.093
						l-7.002-22.278c0,0-2.546-6.365-7.957-6.365h-17.823C394.059,266.709,391.513,273.074,391.513,272.756"/>
				</g>
			</g>
			<g>
				<g>
					<path fill="#FFFFFF" d="M310.036,298.217C310.036,298.217,309.718,298.217,310.036,298.217l-8.275,43.285
						c0,0.637,0.318,1.272,0.955,1.591l0,0h0.318c0.637,0,1.273-0.318,1.273-0.954l7.957-42.967c0,0-0.318-0.318-0.318-0.637"/>
				</g>
				<g>
					<path fill="#FFFFFF" d="M319.903,250.478c0-4.774,3.819-8.594,8.593-8.594c4.774,0,8.593,3.819,8.593,8.594
						c0,4.773-3.819,8.593-8.593,8.593C323.722,259.071,319.903,255.251,319.903,250.478L319.903,250.478"/>
				</g>
				<g>
					<path fill="#FFFFFF" d="M338.681,262.572c6.047,0.637,10.503,5.41,10.503,11.458v24.188c-0.318,1.91-1.91,3.183-3.819,3.183
						c-1.591,0-2.865-1.272-3.183-3.183v-20.687c0-0.637-0.318-1.91-1.592-1.91c-1.273,0-1.273,0.955-1.273,1.592v61.743
						c0.318,2.547-1.273,5.093-4.137,5.411c-2.546,0.318-5.092-1.273-5.411-4.138c0-0.637,0-0.955,0-1.591v-35.01
						c0-0.637-0.637-1.273-1.273-1.273l0,0l0,0c-0.637,0-1.273,0.637-1.273,1.273c0,0,0,0,0,0.318v35.646
						c0.318,2.547-1.273,5.093-4.137,5.411c-2.546,0.318-5.092-1.273-5.411-4.138c0-0.637,0-0.955,0-1.592v-62.062
						c0-0.637-0.318-1.592-1.273-1.592c-1.273,0-1.591,0.955-1.591,1.91v20.687c-0.318,1.91-1.91,3.183-3.819,3.183
						c-1.591,0-2.864-1.272-3.183-3.183V274.03c0-6.048,4.456-10.821,10.503-11.458h0.636h19.096H338.681"/>
				</g>
			</g>
			<g>
				<g>
					<path fill="#FFFFFF" d="M495.587,299.809c3.819,0,7.002-3.183,7.002-7.002s-3.183-7.002-7.002-7.002s-7.002,3.183-7.002,7.002
						l0,0C488.585,296.626,491.768,299.809,495.587,299.809z"/>
				</g>
				<g>
					<path fill="#FFFFFF" d="M512.455,320.178c0-0.318-2.228-5.41-2.864-7.002c-4.138-10.821-4.774-10.503-8.594-10.821h-10.82
						c-3.819,0-4.456,0-8.912,10.821c-0.637,1.592-3.183,7.639-3.183,7.957s-0.955,2.546,1.273,3.501
						c2.228,0.954,2.864-1.91,2.864-1.91l4.456-10.503c0,0,0-0.318,0.317-0.318c0.318,0,0,0.318,0,0.318v27.689l0,0
						c0,1.91,1.592,3.819,3.501,3.819l0,0c1.91,0,3.819-1.273,3.819-3.183v-0.318v-11.14c0,0,0-1.591,0.955-1.591
						s0.955,1.591,0.955,1.591v11.14c0,1.91,1.591,3.819,3.501,3.819l0,0c1.909,0,3.501-1.592,3.501-3.501l0,0l0,0v-27.689
						c0-0.318,0-0.318,0-0.318l0.318,0.318l3.818,9.548c0,0,0.955,2.547,3.184,1.592
						C512.773,323.042,512.455,320.178,512.455,320.178z"/>
				</g>
			</g>
			<g>
				<g>
					<path fill="#FFFFFF" d="M375.281,311.584l6.365-11.775c0,0,0.318-0.955,0.637-1.273c0.637-0.954,0.318-2.546-0.637-2.864
						c0,0-0.318,0-0.318-0.318c-1.273-0.636-2.865,0-3.501,0.955c-1.273,2.228-2.865,4.456-4.456,6.684
						c-0.636,0.637-1.273,0.955-2.228,0.955h-8.275c-0.955,0-1.592-0.318-2.228-0.955c-0.955-0.955-4.456-6.684-4.456-7.002
						c-0.318-0.636-1.273-1.272-2.228-1.272c-1.273,0-2.546,1.272-2.546,2.546c0,0.318,0,0.637,0.318,0.954l7.002,12.731
						c0.318,0.637,0.318,0.954,0.318,1.591v2.547l0,0c0,0.636,0,1.591-0.318,2.228l-3.183,13.367h3.819v9.866l0,0
						c0.318,1.909,1.909,3.183,3.819,3.183c1.591,0,2.865-1.591,3.183-3.183v-9.548v-0.318h1.909v0.318v9.548
						c0.318,1.909,1.91,3.183,3.819,3.183c1.591,0,2.864-1.591,3.183-3.183v-9.866h3.819l-3.501-13.367
						c0-0.637-0.318-1.273-0.318-1.91v-0.317l0,0v-1.91C374.963,312.858,374.963,312.221,375.281,311.584z"/>
				</g>
				<g>
					<path fill="#FFFFFF" d="M367.006,300.127c3.819,0,7.002-3.183,7.002-7.002s-3.183-7.002-7.002-7.002s-7.002,3.183-7.002,7.002
						C360.004,297.263,363.187,300.127,367.006,300.127z"/>
				</g>
			</g>
		</g>
	</g>
</g>
</svg>
