<?xml version="1.0" encoding="utf-8"?>
<!-- Generator: Adobe Illustrator 16.0.3, SVG Export Plug-In . SVG Version: 6.00 Build 0)  -->
<!DOCTYPE svg PUBLIC "-//W3C//DTD SVG 1.1//EN" "http://www.w3.org/Graphics/SVG/1.1/DTD/svg11.dtd" [
	<!ENTITY ns_extend "http://ns.adobe.com/Extensibility/1.0/">
	<!ENTITY ns_ai "http://ns.adobe.com/AdobeIllustrator/10.0/">
	<!ENTITY ns_graphs "http://ns.adobe.com/Graphs/1.0/">
	<!ENTITY ns_vars "http://ns.adobe.com/Variables/1.0/">
	<!ENTITY ns_imrep "http://ns.adobe.com/ImageReplacement/1.0/">
	<!ENTITY ns_sfw "http://ns.adobe.com/SaveForWeb/1.0/">
	<!ENTITY ns_custom "http://ns.adobe.com/GenericCustomNamespace/1.0/">
	<!ENTITY ns_adobe_xpath "http://ns.adobe.com/XPath/1.0/">
]>
<svg version="1.1" id="Layer_1" xmlns:x="&ns_extend;" xmlns:i="&ns_ai;" xmlns:graph="&ns_graphs;"
	 xmlns="http://www.w3.org/2000/svg" xmlns:xlink="http://www.w3.org/1999/xlink" x="0px" y="0px" width="340.273px"
	 height="340.272px" viewBox="256.684 86.145 340.273 340.272" enable-background="new 256.684 86.145 340.273 340.272"
	 xml:space="preserve">
<metadata>
	<sfw  xmlns="&ns_sfw;">
		<slices></slices>
		<sliceSourceBounds  width="340.273" height="340.272" y="74.083" x="256.184" bottomLeftOrigin="true"></sliceSourceBounds>
	</sfw>
</metadata>
<title>TARGET 1 B copy 8</title>
<g id="TARGETS">
	<g>
		<rect x="256.684" y="86.145" fill="#0A97D9" width="340.273" height="340.272"/>
	</g>
	<g>
		<path fill="#FFFFFF" d="M425.385,153.266c1.077,1.437,7.896,10.051,17.229,10.051c8.255,0,16.869-7.538,16.869-7.538
			c2.154,3.948,5.743,6.461,10.051,7.179l0,0c0.358,0,0.358,0,0.358-0.358l0,0c-1.794-2.872-2.871-6.103-3.229-9.691
			c0.358-3.59,1.436-6.82,3.229-9.691v-0.359c0-0.358,0-0.358-0.358-0.358l0,0c-4.308,0.718-7.896,3.23-10.051,7.179
			c0,0-8.614-7.538-16.869-7.538C433.281,143.216,426.462,151.83,425.385,153.266z M437.229,148.959
			c1.436,0,2.872,1.076,2.872,2.871l0,0c0,1.436-1.077,2.872-2.513,2.872h-0.359c-1.436,0-2.871-1.077-2.871-2.872l0,0l0,0
			C434.358,150.395,435.794,148.959,437.229,148.959L437.229,148.959z"/>
	</g>
	<g>
		<path fill="#FFFFFF" d="M364.006,291.098L364.006,291.098c-1.436-2.153-11.486-14.716-25.125-14.716
			c-12.204,0-24.767,10.768-24.767,10.768s-5.025-10.05-14.717-10.768h-0.359c-0.359,0-0.359,0-0.359,0.358v0.359
			c2.513,4.308,4.308,9.332,4.667,14.357c-0.359,5.025-1.795,10.05-4.667,14.357l0,0v0.358c0,0.359,0,0.359,0.359,0.359h0.359
			c10.05-0.718,14.717-10.768,14.717-10.768s12.922,10.768,24.767,10.768C352.521,305.815,362.571,293.252,364.006,291.098z
			 M346.418,284.279c2.154,0,3.948,1.795,3.948,3.948s-1.794,3.948-3.948,3.948s-3.948-1.795-3.948-3.948l0,0l0,0
			C342.47,286.073,344.265,284.279,346.418,284.279z"/>
	</g>
	<g>
		<path fill="#FFFFFF" d="M490.353,368.27c-3.948-5.384-29.074-37.33-64.25-37.33c-30.51,0-63.173,27.639-63.173,27.639
			s-12.204-25.126-37.33-27.639h-0.718c-0.718,0-1.077,0.359-1.077,1.077c0,0.359,0.359,0.718,0.359,1.077
			c3.23,5.384,11.486,20.818,11.486,35.894s-8.255,30.51-11.486,35.894l-0.359,0.359v0.358c0,0.718,0.359,1.077,1.077,1.077l0,0
			c25.125-2.153,37.688-27.639,37.688-27.639s32.663,27.639,63.173,27.639c35.176,0,60.301-31.945,64.249-37.329l0.359-0.359V368.27
			z M445.485,372.936c-5.743,0-10.409-4.666-10.409-10.409s4.666-10.409,10.409-10.409s10.409,4.666,10.409,10.409
			s-4.308,10.409-10.05,10.409C445.845,372.936,445.845,372.936,445.485,372.936z"/>
	</g>
	<g>
		<path fill="#FFFFFF" d="M564.294,318.377c-3.23-2.153-5.385-5.743-5.743-9.691c0-5.025,3.948-8.614,6.102-11.127
			c0.718-0.718,1.077-0.718,0.718-1.436c-0.358-0.718-1.436-0.358-1.436-0.358c-6.819,1.436-13.64,3.589-20.101,6.46
			c-16.511-7.178-34.099-10.05-52.046-8.973c-27.279,1.795-39.483,13.28-41.637,15.793l0,0v0.358c0,0.359,0,0.359,0.359,0.718
			l0.358,0.359c5.025,5.743,20.46,13.64,39.842,13.64c20.819,0,53.841-10.769,53.841-10.769c5.743,3.59,12.563,5.743,19.383,6.103
			h1.077c0.358,0,0.718-0.359,0.718-0.718v-0.359H564.294z M467.739,310.84c-2.153,0-3.948-1.795-3.948-3.949
			c0-2.153,1.795-3.948,3.948-3.948s3.948,1.795,3.948,3.948l0,0l0,0C471.688,309.045,469.893,310.84,467.739,310.84L467.739,310.84
			z"/>
	</g>
	<g>
		<path fill="#FFFFFF" d="M334.574,200.646c-1.077,2.513-2.513,5.025-3.948,7.179c4.666-1.076,8.973-2.871,12.921-5.384
			c0,0,30.869,4.308,40.56,5.384c0,0-3.589,11.486-4.666,13.999c6.82-3.23,12.921-7.538,18.306-12.922
			c0,0,35.535-7.538,43.073-14.717c0.718-0.718,0.718-2.153,0-2.871c0-0.359-0.359-0.359-0.718-0.359
			c-0.359,0-37.33-14.716-42.714-16.511c-5.384-1.795-22.254-20.459-26.92-22.254l6.102,19.023c0,0-0.359,1.795-1.436,2.153
			c-1.077,0.359-58.866,13.64-58.866,13.64s-25.843-17.946-27.638-18.664c0,0-1.436,0-0.718,1.076
			c0.718,1.077,11.127,17.947,11.486,20.818c-0.718,5.385-2.153,11.127-4.307,16.152c0,0-0.718,0.718,1.077,0.359
			c1.794-0.359,19.382-11.486,19.382-11.486S328.472,199.21,334.574,200.646z M411.386,183.417c2.154,0,3.589,1.436,3.589,3.589
			c0,2.154-1.436,3.59-3.589,3.59s-3.589-1.436-3.589-3.59C407.797,184.853,409.232,183.417,411.386,183.417L411.386,183.417
			L411.386,183.417z"/>
	</g>
	<g>
		<path fill="#FFFFFF" d="M453.382,232.233c0,0-16.87-13.64-35.535-7.179h-0.359c0,0.358-0.359,0.718-0.359,1.077
			c0,0.358,0.359,0.358,0.718,0.358c3.949,2.871,15.076,10.769,19.742,21.536c4.666,10.769,4.307,24.408,3.948,29.074v0.718
			c0.358,0.359,0.718,0.359,1.077,0.359h0.358c16.87-10.051,17.229-31.946,17.229-31.946s32.304,8.615,53.84-1.436
			c24.768-11.485,31.945-42.354,33.022-47.38v-0.358l0,0v-90.094h-3.23v88.299c-8.614-4.308-33.022-13.999-54.917-3.589
			C467.021,202.082,453.382,232.233,453.382,232.233z M509.735,200.646c3.948-1.794,8.974,0,10.768,3.948
			c1.795,3.948,0,8.974-3.948,10.769s-8.974,0-10.768-3.948l0,0C503.992,207.466,505.787,202.441,509.735,200.646z"/>
	</g>
</g>
</svg>
