<?xml version="1.0" encoding="utf-8"?>
<!-- Generator: Adobe Illustrator 16.0.3, SVG Export Plug-In . SVG Version: 6.00 Build 0)  -->
<!DOCTYPE svg PUBLIC "-//W3C//DTD SVG 1.1//EN" "http://www.w3.org/Graphics/SVG/1.1/DTD/svg11.dtd" [
	<!ENTITY ns_extend "http://ns.adobe.com/Extensibility/1.0/">
	<!ENTITY ns_ai "http://ns.adobe.com/AdobeIllustrator/10.0/">
	<!ENTITY ns_graphs "http://ns.adobe.com/Graphs/1.0/">
	<!ENTITY ns_vars "http://ns.adobe.com/Variables/1.0/">
	<!ENTITY ns_imrep "http://ns.adobe.com/ImageReplacement/1.0/">
	<!ENTITY ns_sfw "http://ns.adobe.com/SaveForWeb/1.0/">
	<!ENTITY ns_custom "http://ns.adobe.com/GenericCustomNamespace/1.0/">
	<!ENTITY ns_adobe_xpath "http://ns.adobe.com/XPath/1.0/">
]>
<svg version="1.1" id="Layer_1" xmlns:x="&ns_extend;" xmlns:i="&ns_ai;" xmlns:graph="&ns_graphs;"
	 xmlns="http://www.w3.org/2000/svg" xmlns:xlink="http://www.w3.org/1999/xlink" x="0px" y="0px" width="257.469px"
	 height="257.469px" viewBox="298.13 65.182 257.469 257.469" enable-background="new 298.13 65.182 257.469 257.469"
	 xml:space="preserve">
<metadata>
	<sfw  xmlns="&ns_sfw;">
		<slices></slices>
		<sliceSourceBounds  width="257.469" height="257.469" y="177.85" x="297.63" bottomLeftOrigin="true"></sliceSourceBounds>
	</sfw>
</metadata>
<title>TARGET 1 B copy 5</title>
<g id="TARGETS">
	<g>
		<rect x="298.13" y="65.182" fill="#BF8B2E" width="257.469" height="257.469"/>
	</g>
	<g>
		<g>
			<g>
				<path fill="#FFFFFF" d="M498.564,138.24c-3.259,0-5.976,2.444-5.976,5.703c0,0,0,0,0,0.271v6.247h11.95v-6.519
					C504.268,140.685,501.823,138.24,498.564,138.24L498.564,138.24z"/>
			</g>
			<g>
				<polygon fill="#FFFFFF" points="501.28,154.535 499.65,154.535 496.663,154.535 495.306,154.535 493.947,154.535 
					492.317,154.535 491.774,234.927 493.404,234.927 491.774,234.927 497.75,255.025 503.725,235.198 504.268,154.535 
					502.91,154.535 				"/>
			</g>
		</g>
		<g>
			<g>
				<path fill="none" d="M457.554,227.323h-64.639c-0.271,0-0.543,0.271-0.543,0.543v10.32c0,0.271,0.271,0.543,0.815,0.543h64.367
					c0.544,0,0.815-0.271,0.815-0.543v-10.32C458.369,227.594,458.098,227.323,457.554,227.323z"/>
			</g>
			<g>
				<path fill="none" d="M392.915,220.261h64.639c0.544,0,0.815-0.271,0.815-0.544v-10.32c0-0.271-0.271-0.543-0.815-0.543h-64.639
					c-0.271,0-0.814,0.271-0.814,0.543v10.32C392.101,219.99,392.372,220.261,392.915,220.261z"/>
			</g>
			<g>
				<polygon fill="#FFFFFF" points="370.917,263.172 370.917,139.598 363.855,139.598 364.126,271.048 458.369,271.048 
					458.369,263.172 				"/>
			</g>
			<g>
				<path fill="#FFFFFF" d="M472.22,123.574h-94.242v16.023v115.427h80.12h14.122V123.574z M392.101,209.397
					c0-0.271,0.271-0.543,0.814-0.543h64.639c0.544,0,0.815,0.271,0.815,0.543v10.32c0,0.272-0.271,0.544-0.815,0.544h-64.639
					c-0.271,0-0.814-0.271-0.814-0.544V209.397z M457.554,238.457h-64.639c-0.543,0-0.814-0.271-0.814-0.543v-10.32
					c0-0.271,0.271-0.544,0.543-0.544h64.91c0.544,0,0.815,0.272,0.815,0.544v10.32
					C458.369,238.457,458.098,238.457,457.554,238.457z M448.863,185.226c-1.63,0.543-3.531,1.086-5.432,1.086
					c-2.716,0-5.433-0.543-7.604-1.901c-5.433-2.716-9.777-7.062-12.222-12.765c-5.976-11.679-10.049-12.765-13.037-13.579h-0.272
					c-0.543,0-0.814,0-1.358,0c-2.444,0-4.888,0.814-7.061,2.172c-2.444,2.173-3.802,5.704-3.531,8.963
					c-0.271,2.444,0.543,5.16,2.173,7.062l0,0c1.901,2.444,4.889,3.53,7.876,3.53c0.815,0,1.629,0,2.444-0.271
					c1.086-0.271,1.901-0.543,2.716-1.086l-1.629-1.63c-0.271-0.271-0.271-0.271-0.271-0.543s0-0.543,0.271-0.543
					c0-0.271,0.271-0.271,0.543-0.271h0.271l9.506-2.716c0.271,0,0.543,0,0.543,0.271c0.271,0.271,0.271,0.271,0.271,0.543l0,0
					l-1.629,9.777c0,0.271,0,0.543-0.271,0.543c-0.272,0.271-1.087,0.271-1.358,0l-1.901-1.63c-1.901,1.358-3.802,2.173-5.975,2.716
					c-1.086,0.272-2.444,0.272-3.531,0.272c-8.691,0.271-16.024-6.79-16.024-15.481c0-0.271,0-0.543,0-1.086
					c-0.271-5.16,1.901-10.32,5.704-13.58c2.987-2.444,6.79-3.53,10.592-3.53c0.815,0,1.901,0,2.716,0.271h0.272
					c4.074,0.814,10.049,2.173,17.11,16.567c3.259,6.79,7.062,8.962,9.506,10.049h0.271c1.629,0.814,3.259,1.086,5.16,1.086
					c1.086,0,2.173,0,3.259-0.543c2.716-1.086,5.975-3.53,5.975-10.32c0.272-3.259-1.086-6.79-3.53-8.963
					c-2.173-1.357-4.617-2.173-7.062-2.173c-0.543,0-0.814,0-1.357,0h-0.271c-2.173,0.544-5.433,1.358-9.506,7.062l0,0l0,0
					c-0.271,0.271-1.087,0.543-1.358,0c0,0,0-0.271-0.271-0.271c-0.543-1.086-1.086-2.173-1.901-3.53v-0.271
					c0-0.271,0-0.271,0-0.544c0-0.271,0-0.271,0.271-0.543l0.271-0.271c2.717-4.074,7.062-6.79,11.679-7.876h0.271
					c0.815-0.271,1.901-0.271,2.716-0.271c3.803,0,7.605,1.086,10.864,3.53c4.073,3.26,6.246,8.42,5.703,13.58
					C458.641,180.337,451.851,184.139,448.863,185.226z"/>
			</g>
		</g>
	</g>
</g>
</svg>
