<?xml version="1.0" encoding="utf-8"?>
<!-- Generator: Adobe Illustrator 16.0.3, SVG Export Plug-In . SVG Version: 6.00 Build 0)  -->
<!DOCTYPE svg PUBLIC "-//W3C//DTD SVG 1.1//EN" "http://www.w3.org/Graphics/SVG/1.1/DTD/svg11.dtd" [
	<!ENTITY ns_extend "http://ns.adobe.com/Extensibility/1.0/">
	<!ENTITY ns_ai "http://ns.adobe.com/AdobeIllustrator/10.0/">
	<!ENTITY ns_graphs "http://ns.adobe.com/Graphs/1.0/">
	<!ENTITY ns_vars "http://ns.adobe.com/Variables/1.0/">
	<!ENTITY ns_imrep "http://ns.adobe.com/ImageReplacement/1.0/">
	<!ENTITY ns_sfw "http://ns.adobe.com/SaveForWeb/1.0/">
	<!ENTITY ns_custom "http://ns.adobe.com/GenericCustomNamespace/1.0/">
	<!ENTITY ns_adobe_xpath "http://ns.adobe.com/XPath/1.0/">
]>
<svg version="1.1" id="Layer_1" xmlns:x="&ns_extend;" xmlns:i="&ns_ai;" xmlns:graph="&ns_graphs;"
	 xmlns="http://www.w3.org/2000/svg" xmlns:xlink="http://www.w3.org/1999/xlink" x="0px" y="0px" width="500px" height="500.016px"
	 viewBox="177 -0.01 500 500.016" enable-background="new 177 -0.01 500 500.016" xml:space="preserve">
<metadata>
	<sfw  xmlns="&ns_sfw;">
		<slices></slices>
		<sliceSourceBounds  width="500" height="500.016" y="0.495" x="176.5" bottomLeftOrigin="true"></sliceSourceBounds>
	</sfw>
</metadata>
<title>Artboard 1</title>
<g id="_Group_">
	<rect id="_Path_" x="177" y="-0.01" fill="#A21942" width="500" height="500.016"/>
	<path id="_Compound_Path_" fill="#FFFFFF" d="M274.15,118.045v-11c0-9.66-3.415-16.65-11.3-20.22
		c6.685-3.266,9.815-9.216,9.815-17.54v-4.171c0-15.76-8.175-24.234-23.79-24.234c-15.46,0-23.5,8.5-23.5,24.234v4.171
		c0,8.18,3,14.274,9.5,17.54c-7.88,3.569-11.155,10.56-11.155,20.22v11c0,15.31,7.29,26,25.135,26c18,0,25.275-10.71,25.275-26
		 M241.265,64.045c0-6.105,2.09-9.67,7.59-9.67c5.645,0,7.73,3.564,7.73,9.67v6.835c0,6.095-2.085,9.675-7.73,9.675
		c-5.5,0-7.59-3.58-7.59-9.675V64.045z M257.2,119.825c0,6.1-2.23,10.409-8.325,10.409c-5.95,0-8.18-4.31-8.18-10.409V103.47
		c0-6.095,2.23-10.41,8.18-10.41c6.095,0,8.325,4.315,8.325,10.41V119.825z"/>
	<g>
		<path id="_Path_2" fill="#FFFFFF" d="M524.08,246l-50.82,48.335c-1.915,1.904-2.899,3.31-2.899,7.26v135.5
			c0.005,1.598,1.302,2.89,2.899,2.89h52.5c1.597,0,2.893-1.293,2.896-2.89V247.21c0-1.601-1.25-4.5-4.57-1.221"/>
		<path id="_Path_3" fill="#FFFFFF" d="M377.67,309l-50.825,48.314c-1.91,1.91-2.9,3.311-2.9,7.255v72.5
			c0.008,1.596,1.304,2.885,2.9,2.885h52.5c1.595,0,2.889-1.29,2.895-2.885V310.19c0-1.604-1.265-4.53-4.57-1.215"/>
		<path id="_Path_4" fill="#FFFFFF" d="M547.18,187.36c0.023-0.411-0.134-0.813-0.43-1.1c-0.256-0.242-0.588-0.39-0.94-0.415h-0.279
			h-0.415l-38.915,8.82l-0.705,0.074c-0.285,0.06-0.548,0.196-0.76,0.396c-0.568,0.583-0.568,1.513,0,2.095l0.439,0.44l8.891,8.885
			l-88.181,88.18L385.16,254c-0.448-0.459-1.182-0.468-1.641-0.02c-0.006,0.006-0.013,0.013-0.02,0.02l-11.05,11.055l0,0
			l-65.295,65.29c-0.45,0.462-0.45,1.198,0,1.66l11.065,11.06c0.452,0.454,1.186,0.456,1.64,0.005
			c0.001-0.002,0.003-0.003,0.005-0.005l64.5-64.46l29.55,29.56c0.028,0.05,0.06,0.096,0.095,0.141l11.056,11.04
			c0.444,0.457,1.176,0.467,1.633,0.021c0.008-0.007,0.015-0.015,0.021-0.021L526.775,219.27l9.329,9.325
			c0.563,0.573,1.485,0.581,2.059,0.018c0.006-0.006,0.011-0.012,0.017-0.018c0.261-0.253,0.413-0.597,0.425-0.96v-0.12
			l8.546-39.725L547.18,187.36z"/>
		<path id="_Path_5" fill="#FFFFFF" d="M451.165,317.46l-24.59,24.79c-0.465,0.393-1.152,0.367-1.585-0.061L402.715,319.5
			c-4.08-4.061-4.96-0.766-4.96,0.829v116.756c-0.003,1.593,1.287,2.887,2.88,2.89l0,0h52.5c1.593-0.006,2.883-1.297,2.886-2.89
			v-118.71c0-1.596-1.256-4.53-4.865-0.915"/>
	</g>
	<g id="_Group_2">
		<path id="_Compound_Path_2" fill="#FFFFFF" d="M331.9,52.805V71.73c0,6.271-2.595,10.971-9.945,10.971h-10.61V41.835h10.61
			C329.305,41.835,331.9,46.5,331.9,52.805z M321.11,77.095c2.835,0,3.92-1.685,3.92-4.16V51.54c0-2.415-1.085-4.101-3.92-4.101
			h-2.895v29.655H321.11z"/>
		<path id="_Compound_Path_3" fill="#FFFFFF" d="M336.24,41.835h16.395v5.604h-9.5v11.695h6.81v5.545h-6.835v12.415h9.5V82.7h-16.37
			V41.835z"/>
		<path id="_Compound_Path_4" fill="#FFFFFF" d="M356.13,72.155V52.38c0-6.391,3-11.03,10.245-11.03c7.595,0,9.705,4.22,9.705,10.25
			v4.82h-6.265v-5.365c0-2.53-0.845-4-3.315-4s-3.5,1.75-3.5,4.22V73.22c0,2.47,1.025,4.22,3.5,4.22s3.315-1.569,3.315-4v-7.495
			h6.265V73c0,5.85-2.41,10.189-9.705,10.189S356.13,78.5,356.13,72.155z"/>
		<path id="_Compound_Path_5" fill="#FFFFFF" d="M380.24,41.835h16.395v5.604h-9.5v11.695h6.815v5.545h-6.84v12.415h9.5V82.7h-16.37
			V41.835z"/>
		<path id="_Compound_Path_6" fill="#FFFFFF" d="M406.5,57.025V82.7h-5.765V41.835h6.765l7.415,23.444V41.835h5.725V82.7h-6.04
			L406.5,57.025z"/>
		<path id="_Compound_Path_7" fill="#FFFFFF" d="M424.18,41.835h18.266v5.604h-5.665V82.7h-6.936V47.44h-5.665V41.835z"/>
		<path id="_Compound_Path_8" fill="#FFFFFF" d="M467.64,57.445L463.785,82.7h-6.45l-5.5-40.865h6.665l3.195,25.92h0.06l3.436-25.92
			h5.604l3.795,25.92h0.061l3.135-25.92h5.79L478.25,82.7h-6.5l-4.04-25.256H467.64z"/>
		<path id="_Compound_Path_9" fill="#FFFFFF" d="M486.325,72.155V52.38c0-6.391,3.135-11.03,10.37-11.03
			c7.234,0,10.425,4.64,10.425,11.03v19.774c0,6.33-3.135,11.03-10.425,11.03S486.325,78.5,486.325,72.155z M500.25,73.24V51.295
			c0-2.47-1.085-4.22-3.555-4.22c-2.471,0-3.5,1.75-3.5,4.22V73.24c0,2.471,1.085,4.221,3.5,4.221S500.25,75.71,500.25,73.24z"/>
		<path id="_Compound_Path_10" fill="#FFFFFF" d="M518.33,63.955V82.7h-6.87V41.835h10c6.936,0,9.465,3.435,9.465,9.16v5.244
			c0,4.4-1.564,7-5.5,7.896L532,82.7h-7.22L518.33,63.955z M518.33,47.455v12.72h2.29c2.354,0,3.38-1.21,3.38-3.38v-6
			c0-2.23-1-3.315-3.38-3.315L518.33,47.455z"/>
		<path id="_Compound_Path_11" fill="#FFFFFF" d="M541.96,62.81V82.7h-6.87V41.835h6.87v17.96l7.5-17.96h6.75l-7.955,18.385
			l8.135,22.5h-7.255L541.96,62.81z"/>
		<path id="_Compound_Path_12" fill="#FFFFFF" d="M565.95,82.7l7.715-40.865h7.835l7.78,40.865h-7.056l-1.265-7.471h-7.295
			L572.46,82.7H565.95z M574.57,69.74h5.5l-2.71-16.395h-0.065L574.57,69.74z"/>
		<path id="_Compound_Path_13" fill="#FFFFFF" d="M597.354,57.025V82.7h-5.789V41.835h6.755l7.415,23.444V41.835h5.725V82.7h-6.03
			L597.354,57.025z"/>
		<path id="_Compound_Path_14" fill="#FFFFFF" d="M636.535,52.805V71.73c0,6.271-2.595,10.971-9.95,10.971H616V41.835h10.604
			C633.94,41.835,636.535,46.5,636.535,52.805z M625.745,77.095c2.83,0,3.915-1.685,3.915-4.16V51.54
			c0-2.415-1.085-4.101-3.915-4.101h-2.896v29.655H625.745z"/>
	</g>
	<g id="_Group_3">
		<path id="_Compound_Path_15" fill="#FFFFFF" d="M311.345,101.855h16.395v5.605h-9.525v11.694h6.815v5.546h-6.815v12.42h9.525
			v5.604h-16.395V101.855z"/>
		<path id="_Compound_Path_16" fill="#FFFFFF" d="M330.755,132.175v-19.771c0-6.39,3-11.029,10.245-11.029
			c7.595,0,9.705,4.215,9.705,10.245v4.824h-6.27v-5.364c0-2.535-0.84-4-3.315-4s-3.5,1.745-3.5,4.22v21.939
			c0,2.471,1.025,4.221,3.5,4.221s3.315-1.565,3.315-4v-7.495h6.27V133c0,5.845-2.41,10.185-9.705,10.185
			S330.755,138.5,330.755,132.175z"/>
		<path id="_Compound_Path_17" fill="#FFFFFF" d="M354.44,132.175v-19.771c0-6.39,3.135-11.029,10.37-11.029
			s10.43,4.64,10.43,11.029v19.771c0,6.33-3.135,11.03-10.43,11.03S354.44,138.5,354.44,132.175z M368.365,133.26v-21.94
			c0-2.475-1.085-4.22-3.555-4.22c-2.47,0-3.5,1.745-3.5,4.22v21.94c0,2.47,1.085,4.22,3.5,4.22S368.365,135.73,368.365,133.26z"/>
		<path id="_Compound_Path_18" fill="#FFFFFF" d="M384.94,117.045v25.68h-5.785v-40.87h6.75l7.415,23.45v-23.45h5.725v40.87H393
			L384.94,117.045z"/>
		<path id="_Compound_Path_19" fill="#FFFFFF" d="M402.965,132.175v-19.771c0-6.39,3.135-11.029,10.365-11.029
			s10.43,4.64,10.43,11.029v19.771c0,6.33-3.135,11.03-10.43,11.03S402.965,138.5,402.965,132.175z M416.89,133.26v-21.94
			c0-2.475-1.085-4.22-3.56-4.22s-3.5,1.745-3.5,4.22v21.94c0,2.47,1.085,4.22,3.5,4.22S416.89,135.73,416.89,133.26z"/>
		<path id="_Compound_Path_20" fill="#FFFFFF" d="M446.605,116.2h-0.181l-4.645,26.5h-3.195l-5.12-26.5h-0.125v26.5h-5.665v-40.846
			h8l4.46,23h0.061l4-23h8.685v40.87h-6.274V116.2z"/>
		<path id="_Compound_Path_21" fill="#FFFFFF" d="M456.79,101.855h6.87v40.87h-6.87V101.855z"/>
		<path id="_Compound_Path_22" fill="#FFFFFF" d="M467.5,132.175v-19.771c0-6.39,3-11.029,10.245-11.029
			c7.595,0,9.705,4.215,9.705,10.245v4.824h-6.25v-5.364c0-2.535-0.845-4-3.315-4c-2.47,0-3.5,1.745-3.5,4.22v21.939
			c0,2.471,1.025,4.221,3.5,4.221c2.476,0,3.315-1.565,3.315-4v-7.495h6.27V133c0,5.845-2.41,10.185-9.705,10.185
			S467.5,138.5,467.5,132.175z"/>
		<path id="_Compound_Path_23" fill="#FFFFFF" d="M509.53,120.905h9.765v21.82h-4.94v-4.46c-0.904,3.075-2.834,4.94-6.569,4.94
			c-5.91,0-8.62-4.7-8.62-11.03v-19.771c0-6.39,3.07-11.029,10.305-11.029c7.596,0,9.825,4.215,9.825,10.245v3.614h-6.27v-4.154
			c0-2.535-0.966-4-3.436-4s-3.555,1.745-3.555,4.22v21.939c0,2.471,1,4.221,3.375,4.221c2.229,0,3.375-1.266,3.375-3.92v-7.21
			h-3.255V120.905z"/>
		<path id="_Compound_Path_24" fill="#FFFFFF" d="M530.085,124v18.745h-6.875v-40.891h10c6.93,0,9.465,3.436,9.465,9.16v5.245
			c0,4.4-1.57,7-5.5,7.9l6.575,18.564h-7.215L530.085,124z M530.085,107.5v12.72h2.29c2.35,0,3.375-1.205,3.375-3.375v-6.07
			c0-2.229-1-3.314-3.375-3.314L530.085,107.5z"/>
		<path id="_Compound_Path_25" fill="#FFFFFF" d="M545.815,132.175v-19.771c0-6.39,3.135-11.029,10.369-11.029
			c7.235,0,10.426,4.64,10.426,11.029v19.771c0,6.33-3.131,11.03-10.426,11.03S545.815,138.5,545.815,132.175z M559.74,133.26
			v-21.94c0-2.475-1.085-4.22-3.556-4.22c-2.47,0-3.5,1.745-3.5,4.22v21.94c0,2.47,1.086,4.22,3.5,4.22
			C558.6,137.48,559.74,135.73,559.74,133.26z"/>
		<path id="_Compound_Path_26" fill="#FFFFFF" d="M584.21,117.465l-3.855,25.26h-6.449l-5.5-40.87h6.645l3.195,25.92h0.06
			l3.436-25.92h5.604l3.801,25.92h0.06l3.135-25.92h5.785l-5.305,40.87h-6.5l-4.04-25.26H584.21z"/>
		<path id="_Compound_Path_27" fill="#FFFFFF" d="M602.235,101.855H620.5v5.605h-5.665v35.265H607.9V107.46h-5.665V101.855z"/>
		<path id="_Compound_Path_28" fill="#FFFFFF" d="M636.11,124.7h-6.61v18h-6.896v-40.846h6.896v17.3h6.63v-17.3h6.93v40.87h-6.949
			V124.7z"/>
	</g>
</g>
</svg>
