<?xml version="1.0" encoding="utf-8"?>
<!-- Generator: Adobe Illustrator 16.0.3, SVG Export Plug-In . SVG Version: 6.00 Build 0)  -->
<!DOCTYPE svg PUBLIC "-//W3C//DTD SVG 1.1//EN" "http://www.w3.org/Graphics/SVG/1.1/DTD/svg11.dtd" [
	<!ENTITY ns_extend "http://ns.adobe.com/Extensibility/1.0/">
	<!ENTITY ns_ai "http://ns.adobe.com/AdobeIllustrator/10.0/">
	<!ENTITY ns_graphs "http://ns.adobe.com/Graphs/1.0/">
	<!ENTITY ns_vars "http://ns.adobe.com/Variables/1.0/">
	<!ENTITY ns_imrep "http://ns.adobe.com/ImageReplacement/1.0/">
	<!ENTITY ns_sfw "http://ns.adobe.com/SaveForWeb/1.0/">
	<!ENTITY ns_custom "http://ns.adobe.com/GenericCustomNamespace/1.0/">
	<!ENTITY ns_adobe_xpath "http://ns.adobe.com/XPath/1.0/">
]>
<svg version="1.1" id="Layer_1" xmlns:x="&ns_extend;" xmlns:i="&ns_ai;" xmlns:graph="&ns_graphs;"
	 xmlns="http://www.w3.org/2000/svg" xmlns:xlink="http://www.w3.org/1999/xlink" x="0px" y="0px" width="285.199px"
	 height="285.198px" viewBox="284.25 72.202 285.199 285.198" enable-background="new 284.25 72.202 285.199 285.198"
	 xml:space="preserve">
<metadata>
	<sfw  xmlns="&ns_sfw;">
		<slices></slices>
		<sliceSourceBounds  width="285.199" height="285.198" y="143.1" x="283.75" bottomLeftOrigin="true"></sliceSourceBounds>
	</sfw>
</metadata>
<title>TARGET 1.4</title>
<g id="TARGETS">
	<g>
		<rect x="284.25" y="72.202" fill="#FF3A21" width="285.199" height="285.198"/>
	</g>
	<g>
		<g>
			<path fill="none" d="M376.91,240.073c2.106,1.504,4.513,2.105,6.919,1.805c-0.301-0.301-0.602-0.902-0.902-1.504
				c-2.106-4.513,3.309-7.221,3.309-7.221l2.407-0.902l5.716-2.406l-1.805-0.302l-19.254-1.805
				C371.495,232.25,372.999,237.365,376.91,240.073z"/>
		</g>
		<g>
			<path fill="none" d="M379.617,217.81l-5.114,7.521l0,0l0,0l9.025,0.902L379.617,217.81z"/>
		</g>
		<g>
			<path fill="none" d="M395.261,227.437h0.602l2.407,0.301l3.911-5.415l0,0c3.008-4.513,2.106-10.229-2.106-13.839l-0.602-0.602
				c-4.513-3.31-11.131-2.105-14.44,2.406l0,0l-1.805,2.407l-2.106,3.009l5.114,10.83L395.261,227.437z M385.333,215.404
				c0.602-4.513,4.813-7.521,9.326-6.92c1.203,0.301,2.407,0.602,3.61,1.504l0,0c3.61,2.708,4.513,7.822,2.106,11.433v0.301
				c-2.708,3.61-7.822,4.513-11.432,1.805C386.236,221.42,385.033,218.411,385.333,215.404L385.333,215.404z"/>
		</g>
		<g>
			<g>
				<path fill="#FFFFFF" d="M391.35,179.603c0-6.317-5.114-11.732-11.733-11.732c-6.618,0-11.733,5.114-11.733,11.732
					s5.115,11.733,11.733,11.733l0,0C385.935,191.336,391.35,186.221,391.35,179.603z"/>
			</g>
			<g>
				<path fill="#FFFFFF" d="M356.152,206.077l-9.928,31.588c-0.602,1.806-0.301,3.61,0.602,5.415
					c1.203,1.505,3.309,2.407,5.114,2.106c3.008-0.602,3.911-4.212,3.911-4.212l7.822-26.475c0,0,0.301-2.105,1.805-1.504
					c1.504,0.602,0.903,2.708,0.903,2.708l-13.538,49.338h12.635v35.499c0,3.31,2.708,6.017,6.017,6.017s6.017-2.707,6.017-6.017
					v-35.499h3.61v35.499c0,3.31,2.708,6.017,6.017,6.017c3.31,0,6.017-2.707,6.017-6.017v-35.499h12.635l-7.22-26.475
					c4.212-1.805,9.326-4.212,10.53-4.513c1.203-0.602,1.504-1.504,1.504-2.707c0,0-5.415-21.36-5.415-21.661
					c-0.602-3.008-4.212-11.432-11.432-12.334h-26.474C359.461,197.052,356.152,206.077,356.152,206.077z M383.228,212.696
					l1.805-2.407l0,0c3.309-4.512,9.627-5.415,14.44-2.406l0.602,0.602c4.212,3.31,5.114,9.326,2.106,13.839l0,0l-3.61,5.716
					l-2.407-0.301h-0.602l-9.025-0.902l-5.114-10.83L383.228,212.696z M374.202,225.331L374.202,225.331l5.415-7.521l3.911,8.424
					L374.202,225.331L374.202,225.331z M372.999,227.738l19.254,1.805l1.805,0.302l-5.415,2.406l-2.106,0.902
					c0,0-5.415,2.708-3.309,7.221c0.301,0.602,0.602,0.902,0.902,1.504c-2.407,0.301-5.114-0.301-6.919-1.805
					C372.999,237.365,371.495,232.25,372.999,227.738L372.999,227.738z"/>
			</g>
			<g>
				<path fill="#FFFFFF" d="M388.643,223.225c3.61,2.407,8.725,1.806,11.432-1.805v-0.301c2.708-3.61,1.805-8.725-2.106-11.433l0,0
					c-3.61-2.707-8.725-1.805-11.432,1.806c-0.902,1.203-1.203,2.406-1.504,3.609C384.731,218.411,385.935,221.42,388.643,223.225z"
					/>
			</g>
			<g>
				<path fill="#FFFFFF" d="M415.718,260.229l-6.618,19.254c0,0-0.903,3.008,1.805,3.911c1.504,0.301,3.31-0.602,3.61-2.106l0,0
					l5.415-16.546c0,0,0.301-1.203,1.204-0.902c0.902,0.301,0.602,1.203,0.602,1.203l-6.318,22.563h4.813v14.439
					c0,2.407,1.805,4.513,4.513,4.513c0.602,0,1.203,0,1.504-0.301c1.805-0.602,3.008-2.406,3.008-4.513v-13.838
					c0-0.301,0-0.301,0-0.602h2.708v14.139c0,1.806,1.203,3.61,3.009,4.212c2.406,0.902,4.813-0.602,5.716-2.707
					c0.301-0.603,0.301-0.903,0.301-1.505l0,0v-14.44h4.813l-4.513-16.546c-0.301-0.602-0.301-1.203-0.301-2.105v-2.106
					c0-0.602,0.301-1.504,0.602-2.105l10.229-18.352c2.106-0.602,3.61-2.407,3.61-4.513v-29.182c0-1.203,0.301-2.407,2.406-2.407
					c1.505,0,1.505,1.505,1.806,2.407v87.244c0,3.61,3.008,6.919,6.919,6.919c3.61,0,6.92-3.008,6.92-6.919v-49.939
					c0-0.903,0.602-1.806,1.805-2.106h0.301l0,0c0.902,0,1.806,0.602,1.806,1.806v0.301v50.24c0.301,3.911,3.609,6.618,7.22,6.317
					c3.31-0.301,6.017-3.008,6.317-6.317v-87.244c0-0.902,0.301-2.407,1.806-2.407c2.105,0,2.406,1.505,2.406,2.407v29.182
					c0.301,2.708,2.407,4.513,5.114,4.212c2.407-0.301,4.212-2.106,4.212-4.212v-33.694c0-8.424-6.317-15.343-14.741-16.245h-0.902
					h-26.775h-0.902c-8.424,0.902-14.741,7.821-14.741,16.245v33.694c0,0.301,0,0.902,0.301,1.203l-1.203,2.106
					c-0.301,0.301-4.513,7.821-5.716,9.025c-0.602,0.902-1.806,1.203-2.708,1.203h-10.83h-3.911
					C416.922,255.415,415.718,260.229,415.718,260.229z"/>
			</g>
			<g>
				<path fill="#FFFFFF" d="M439.485,242.479c0-5.114-3.911-9.025-9.025-9.025s-9.025,3.911-9.025,9.025s3.911,9.025,9.025,9.025
					S439.485,247.292,439.485,242.479z"/>
			</g>
			<g>
				<path fill="#FFFFFF" d="M486.717,174.789c0-6.618-5.415-12.334-12.334-12.334c-6.618,0-12.335,5.415-12.335,12.334
					c0,6.92,5.415,12.335,12.335,12.335l0,0c6.618,0,12.033-5.114,12.334-11.733C486.717,175.09,486.717,174.789,486.717,174.789z"
					/>
			</g>
		</g>
		<g>
			<path fill="#FFFFFF" d="M546.284,149.218L428.354,98.074c-0.301-0.301-0.902-0.301-1.203-0.301s-0.602,0-0.902,0.301
				l-117.93,50.843c-0.602,0.301-0.903,0.602-0.602,1.203v11.732c0,0.903,0,2.106,1.504,1.505l117.629-48.436
				c0.301,0,0.902,0,1.203,0l117.63,48.436c1.504,0.602,1.504-0.301,1.504-1.505V150.12
				C546.886,149.82,546.585,149.218,546.284,149.218z"/>
		</g>
		<g>
			<path fill="#FFFFFF" d="M308.919,320.698H544.78c0.902,0,1.805,0.902,1.805,1.806v10.83c0,0.902-0.902,1.805-1.805,1.805H308.919
				c-0.903,0-1.805-0.902-1.805-1.805v-10.83C307.114,321.6,308.017,320.698,308.919,320.698z"/>
		</g>
	</g>
</g>
</svg>
