<?xml version="1.0" encoding="utf-8"?>
<!-- Generator: Adobe Illustrator 16.0.3, SVG Export Plug-In . SVG Version: 6.00 Build 0)  -->
<!DOCTYPE svg PUBLIC "-//W3C//DTD SVG 1.1//EN" "http://www.w3.org/Graphics/SVG/1.1/DTD/svg11.dtd" [
	<!ENTITY ns_extend "http://ns.adobe.com/Extensibility/1.0/">
	<!ENTITY ns_ai "http://ns.adobe.com/AdobeIllustrator/10.0/">
	<!ENTITY ns_graphs "http://ns.adobe.com/Graphs/1.0/">
	<!ENTITY ns_vars "http://ns.adobe.com/Variables/1.0/">
	<!ENTITY ns_imrep "http://ns.adobe.com/ImageReplacement/1.0/">
	<!ENTITY ns_sfw "http://ns.adobe.com/SaveForWeb/1.0/">
	<!ENTITY ns_custom "http://ns.adobe.com/GenericCustomNamespace/1.0/">
	<!ENTITY ns_adobe_xpath "http://ns.adobe.com/XPath/1.0/">
]>
<svg version="1.1" id="Layer_1" xmlns:x="&ns_extend;" xmlns:i="&ns_ai;" xmlns:graph="&ns_graphs;"
	 xmlns="http://www.w3.org/2000/svg" xmlns:xlink="http://www.w3.org/1999/xlink" x="0px" y="0px" width="270.702px"
	 height="270.702px" viewBox="291.506 68.532 270.702 270.702" enable-background="new 291.506 68.532 270.702 270.702"
	 xml:space="preserve">
<metadata>
	<sfw  xmlns="&ns_sfw;">
		<slices></slices>
		<sliceSourceBounds  width="270.702" height="270.702" y="161.266" x="291.006" bottomLeftOrigin="true"></sliceSourceBounds>
	</sfw>
</metadata>
<title>TARGET 1 B copy 4</title>
<g id="TARGETS">
	<g>
		<rect x="291.506" y="68.532" fill="#DD1367" width="270.702" height="270.702"/>
	</g>
	<g>
		<g>
			<polygon fill="#FFFFFF" points="367.748,135.066 359.467,135.066 359.467,291.833 471.688,291.833 471.688,282.41 
				367.748,282.41 			"/>
		</g>
		<g>
			<path fill="#FFFFFF" d="M376.314,116.505v156.481h112.222V116.505H376.314z M432.568,131.354
				c19.132,0,34.837,15.705,34.837,34.837s-15.705,34.837-34.837,34.837s-34.837-15.705-34.837-34.837l0,0
				C397.731,147.059,413.151,131.354,432.568,131.354L432.568,131.354z M474.83,251.571c0,0.285-0.286,0.571-0.856,0.571h-82.811
				c-0.571,0-0.856-0.286-0.856-0.571V238.15c0-0.285,0.286-0.571,0.856-0.571h82.811c0.57,0,0.856,0.286,0.856,0.571V251.571z
				 M474.83,228.441c0,0.286-0.286,0.571-0.856,0.571h-82.811c-0.571,0-0.856-0.285-0.856-0.571v-13.135
				c0-0.286,0.286-0.571,0.856-0.571h82.811c0.57,0,0.856,0.285,0.856,0.571V228.441z"/>
		</g>
		<g>
			<path fill="#FFFFFF" d="M432.568,200.171c18.561,0,33.695-15.42,33.695-33.98s-15.42-33.695-33.981-33.695
				c-18.561,0-33.694,15.135-33.694,33.695s14.849,33.98,33.694,33.98C432.282,200.171,432.282,200.171,432.568,200.171z
				 M432.568,134.494c17.419,0,31.696,14.277,31.696,31.696s-14.277,31.696-31.696,31.696s-31.696-14.277-31.696-31.696l0,0
				C400.872,148.487,415.149,134.494,432.568,134.494z"/>
		</g>
		<g>
			<path fill="#FFFFFF" d="M432.568,195.317c15.991,0,29.126-13.135,29.126-29.126s-13.135-29.126-29.126-29.126
				s-29.126,13.135-29.126,29.126l0,0c0,15.991,12.85,29.126,28.555,29.126C432.282,195.317,432.282,195.317,432.568,195.317z
				 M441.706,162.764c-0.286,0-0.286,0-0.571-0.285l0,0v-1.714h4.569v1.714c0,0.285-0.286,0.571-0.571,0.571l0,0v10.851h-3.427
				V162.764z M432.568,159.337h-14.278v-0.856h28.555v1.143L432.568,159.337z M430.854,162.764c-0.285,0-0.285,0-0.57-0.285l0,0
				v-1.714h4.568v1.714c0,0.285,0,0.285-0.285,0.571l0,0v10.851h-3.713V162.764z M420.004,162.764c-0.286,0-0.571-0.285-0.571-0.571
				v-1.713h4.569v1.713c0,0.286,0,0.286-0.286,0.571l0,0v10.852h-3.426L420.004,162.764z M432.854,157.339H417.72l-0.571-0.571
				c-0.286,0-0.286-0.286,0-0.571l0,0l15.705-5.997l15.991,5.997c0.285,0.285,0.285,0.571,0,0.571l0,0l-0.856,0.571H432.854z
				 M417.434,176.756h1.142v-1.713c0-0.286,0-0.286,0.286-0.286h27.984c0.286,0,0.286,0,0.286,0.286v1.713h1.142v1.713h-30.839
				V176.756z M420.861,189.034c-0.286,0.286-0.571,0.571-0.857,0.571h-0.286c-0.285,0-0.571,0-0.571-0.285
				c-0.571-0.286-0.857-1.428-0.571-1.999s1.428-0.856,1.999-0.571C421.146,187.607,421.432,188.464,420.861,189.034z
				 M425.144,190.748c-0.285,0.571-0.856,0.856-1.428,0.856h-0.57c-0.571-0.285-1.143-1.143-0.857-1.713
				c0.286-0.571,1.143-1.143,1.714-0.857c0.285,0,0.571,0.286,0.856,0.571C425.144,189.892,425.144,190.462,425.144,190.748z
				 M427.999,193.032L427.999,193.032c-0.57,0-0.856-0.285-1.142-0.571c-0.286-0.285-0.286-0.571-0.286-1.142
				c0-0.571,0.286-0.571,0.571-0.857c0.286-0.285,0.571-0.285,1.143-0.285s0.571,0.285,0.856,0.571
				c0.285,0.285,0.285,0.571,0.285,1.142C429.427,192.461,428.57,193.032,427.999,193.032z M432.568,193.318
				c-0.856,0-1.428-0.57-1.428-1.428c0-0.856,0.571-1.428,1.428-1.428s1.428,0.571,1.428,1.428
				C433.996,192.747,433.425,193.318,432.568,193.318L432.568,193.318z M438.279,192.176c-0.285,0.285-0.571,0.571-0.856,0.571
				h-0.286c-0.57,0-1.142-0.571-1.428-1.143c0-0.285,0-0.856,0.286-1.143c0.571-0.57,1.428-0.856,1.999-0.285l0,0
				c0.285,0.285,0.57,0.571,0.57,0.856C438.564,191.32,438.564,192.176,438.279,192.176z M442.848,191.033
				c-0.285,0.286-0.285,0.571-0.856,0.571h-0.571c-0.57,0-1.142-0.285-1.428-0.856v-1.143c0.286-0.285,0.571-0.571,0.857-0.571
				c0.57-0.285,1.428,0,1.713,0.571v0.286C442.848,190.177,442.848,190.748,442.848,191.033z M446.846,188.749
				c0,0.285-0.285,0.571-0.571,0.856c-0.285,0-0.285,0-0.57,0.286h-0.286c-0.856,0-1.428-0.857-1.143-1.714
				c0-0.856,0.857-1.428,1.714-1.142l0,0C446.561,187.322,447.132,188.178,446.846,188.749z M449.987,187.036
				c-0.286,0.285-0.571,0.285-0.857,0.285c-0.57,0-0.856-0.285-1.142-0.571c-0.571-0.571-0.286-1.428,0.285-1.999
				c0.571-0.57,1.428-0.285,1.999,0.286l0,0c0.285,0.285,0.285,0.571,0.285,0.856C450.558,186.465,450.272,186.75,449.987,187.036z
				 M456.269,179.612c-0.285,0.285-0.57,0.571-0.856,0.571h-0.285c-0.286,0-0.571,0-0.571-0.286c0-0.285-0.571-0.57-0.571-0.856
				v-1.142c0.286-0.286,0.571-0.571,0.856-0.571c0.571-0.286,1.428,0.285,1.714,0.856l0,0
				C456.269,178.755,456.269,179.04,456.269,179.612z M458.268,175.328c-0.285,0.571-0.856,0.856-1.428,0.856h-0.571
				c-0.57-0.285-1.142-1.142-0.856-1.713l0,0c0-0.286,0.286-0.571,0.571-0.856c0.285-0.286,0.856-0.286,1.143,0
				c0.285,0,0.57,0.285,0.856,0.57C458.268,174.472,458.268,175.043,458.268,175.328L458.268,175.328z M458.268,171.902
				L458.268,171.902c-1.142-0.285-1.428-0.856-1.428-1.713c0-0.286,0.286-0.571,0.571-0.857c0.285-0.285,0.571-0.285,1.143-0.285
				c0.57,0,1.142,0.856,1.142,1.714C459.695,171.616,458.839,172.188,458.268,171.902z M459.981,166.191
				c0,0.856-0.571,1.428-1.143,1.428c0,0,0,0-0.285,0c-0.286,0-0.857,0-0.857-0.285c-0.57-0.571-0.57-1.428,0-1.999l0,0l0,0
				c0.286-0.286,0.571-0.286,0.857-0.286C459.124,165.048,459.695,165.619,459.981,166.191z M459.41,161.336
				c0,0.286,0,0.856-0.286,1.143c-0.285,0.285-0.57,0.571-0.856,0.571h-1.428c-0.285-0.286-0.571-0.571-0.571-0.857
				c0-0.285,0-0.856,0.286-1.142c0.285-0.286,0.571-0.571,0.856-0.571s0.856,0,1.143,0.285
				C459.124,161.051,459.124,161.336,459.41,161.336z M457.696,156.197c0.571,0.285,0.857,1.143,0.571,1.713l0,0
				c0,0.286-0.285,0.571-0.856,0.571h-1.143c-0.285,0-0.57-0.285-0.57-0.856v-1.143c0.285-0.285,0.57-0.571,0.856-0.571
				C456.84,155.91,457.411,155.91,457.696,156.197L457.696,156.197z M454.271,152.198c0.285-0.285,0.57-0.285,1.142,0
				c0.571,0.286,0.571,0.286,0.856,0.571v1.143c0,0.285-0.285,0.57-0.57,0.856c-0.286,0-0.286,0-0.571,0.285h-0.286
				c-0.285,0-0.57-0.285-0.856-0.571v-1.142C453.699,152.77,453.984,152.485,454.271,152.198L454.271,152.198z M451.415,148.772
				c0.57-0.57,1.428-0.285,1.998,0.286l0,0c0.286,0.285,0.286,0.571,0.286,0.856c0,0.571-0.571,1.143-1.428,1.428
				c-0.856,0-1.428-0.571-1.428-1.143c0,0,0,0,0-0.285l0,0C450.844,149.343,451.129,149.058,451.415,148.772L451.415,148.772z
				 M451.129,182.182c0.286-0.286,0.571-0.571,0.856-0.571c0.286,0,0.857,0,1.143,0.285c0.571,0.571,0.571,1.428,0.285,1.999
				c-0.285,0.285-0.57,0.571-0.856,0.571h-0.285c-0.286,0-0.571,0-0.856-0.286c-0.286-0.285-0.571-0.57-0.571-0.856
				C450.844,183.038,450.844,182.182,451.129,182.182L451.129,182.182z M447.988,145.631c0.571-0.571,1.428-0.571,1.999-0.285
				c0.285,0.285,0.57,0.57,0.57,0.856c0,0.285,0,0.856-0.285,1.142c-0.285,0.286-0.571,0.571-0.856,0.571l0,0
				c-0.286,0-0.571,0-0.856-0.285c-0.286-0.286-0.571-0.571-0.571-0.856C447.988,146.488,447.702,145.916,447.988,145.631z
				 M444.275,143.347c0.571-0.571,1.143-0.857,1.999-0.571l0,0c0.286,0.285,0.571,0.571,0.571,0.856
				c0.286,0.285,0.286,0.856,0,1.143c-0.285,0.285-0.571,0.571-0.856,0.571h-0.285c-0.286,0-0.571,0-0.571-0.286
				c0-0.285-0.571-0.571-0.571-0.856C443.99,143.918,443.99,143.632,444.275,143.347L444.275,143.347z M439.992,141.633
				c0-0.285,0.286-0.571,0.571-0.856c0.286-0.285,0.856-0.285,1.143,0c0.285,0,0.571,0.285,0.856,0.571v1.142
				c0,0.286-0.285,0.571-0.856,0.857h-1.143c-0.285,0-0.571-0.286-0.856-0.571C439.707,142.204,439.707,141.919,439.992,141.633
				L439.992,141.633z M437.137,139.634c0.857,0,1.143,0.857,1.143,1.714l0,0c0,0.285-0.285,0.571-0.571,0.856
				c-0.285,0.285-0.571,0.285-0.856,0.285h-0.285c-0.286,0-0.571-0.285-0.857-0.57c-0.285-0.286-0.285-0.571-0.285-1.143
				S436.28,139.349,437.137,139.634z M432.282,139.064c0.857,0,1.428,0.57,1.428,1.428c0,0.856-0.57,1.428-1.428,1.428
				c-0.856,0-1.428-0.571-1.428-1.428l0,0C431.141,139.634,431.712,139.064,432.282,139.064z M427.714,139.634
				c0.285,0,0.856,0,1.143,0.286c0.285,0.285,0.57,0.571,0.57,0.856c0,0.856-0.285,1.428-1.142,1.713h-0.286
				c-0.285,0-0.57,0-0.856-0.285c-0.285-0.285-0.571-0.571-0.571-0.856C426.571,140.205,426.857,139.634,427.714,139.634z
				 M423.146,140.777c0.285-0.285,0.856-0.285,1.142,0c0.286,0.285,0.571,0.571,0.571,0.856v1.143
				c-0.285,0.285-0.571,0.571-0.856,0.571h-1.143c-0.285-0.286-0.571-0.571-0.571-0.857
				C422.288,141.919,422.574,141.062,423.146,140.777z M418.862,142.776c0.571-0.286,1.713,0,1.999,0.571l0,0
				c0.286,0.285,0.286,0.571,0,1.142c-0.286,0.571-0.286,0.571-0.571,0.857c-0.286,0-0.286,0-0.571,0.285
				c-0.571,0-0.856-0.285-1.142-0.571C418.005,143.918,418.291,143.061,418.862,142.776z M414.864,145.346
				c0.285-0.286,0.571-0.286,1.142-0.286c0.571,0,1.428,0.571,1.142,1.428c0,0.286-0.286,0.856-0.571,0.856
				c-0.285,0.286-0.571,0.286-0.856,0.286c-0.571,0-0.856-0.286-1.142-0.571S414.579,145.916,414.864,145.346z M414.864,185.037
				c0.571-0.571,1.428-0.856,1.999-0.286c0.571,0.571,0.857,1.428,0.286,1.999c-0.286,0.286-0.571,0.571-1.142,0.571
				c-0.857,0-1.428-0.571-1.428-1.143c0,0,0,0,0-0.285S414.579,185.323,414.864,185.037z M411.723,148.772
				c0.286-0.285,0.571-0.57,0.856-0.57s0.857,0,0.857,0.285c0.571,0.571,0.571,1.428,0.285,1.999l0,0
				c-0.285,0.285-0.571,0.571-1.142,0.571c-0.286,0-0.571,0-0.856-0.286C411.438,150.199,411.152,149.343,411.723,148.772z
				 M408.868,152.77c0.571-0.571,1.142-0.856,1.999-0.571l0,0c0.571,0.571,0.857,1.143,0.571,1.999
				c-0.286,0.571-0.571,0.571-1.142,0.571c-0.571,0-0.571,0-0.571-0.286C409.153,154.198,408.582,153.626,408.868,152.77
				L408.868,152.77z M406.869,157.053c0.286-0.571,1.142-1.143,1.713-0.856l0,0c0.286,0,0.571,0.285,0.856,0.571v1.142
				c0,0.286-0.285,0.571-0.571,0.857h-1.143C407.154,158.481,406.869,157.624,406.869,157.053L406.869,157.053z M407.154,160.48
				c0.286,0,0.571,0.285,0.856,0.571c0.286,0.285,0.286,0.571,0.286,1.142c0,0.571-0.856,1.143-1.428,1.143h-0.286
				c-0.856-0.285-1.142-0.856-1.142-1.713C405.727,160.765,406.583,160.195,407.154,160.48z M405.155,166.191
				c0-0.856,0.571-1.428,1.142-1.428c0,0,0,0,0.286,0l0,0c0.857,0,1.428,0.571,1.428,1.428s-0.571,1.428-1.428,1.428
				C406.012,167.618,405.441,167.047,405.155,166.191z M405.727,171.045c0-0.856,0.286-1.428,1.142-1.714
				c0.286,0,0.856,0,1.142,0.286c0.286,0.285,0.571,0.571,0.571,0.856c0,0.856-0.286,1.428-1.142,1.714h-0.286
				C406.297,172.188,405.727,171.616,405.727,171.045L405.727,171.045L405.727,171.045z M408.296,176.471
				c-0.571,0-1.142-0.286-1.428-0.857v-1.142c0-0.286,0.286-0.571,0.856-0.571c0.571-0.285,1.428,0.285,1.713,0.856
				C409.724,175.328,409.153,176.185,408.296,176.471L408.296,176.471z M410.866,180.183c-0.285,0-0.285,0-0.571,0.285
				c-0.571,0-0.857-0.285-1.143-0.571c-0.285-0.57,0-1.713,0.571-1.998c0.857-0.571,1.428-0.286,1.999,0.57l0,0v1.143
				C411.438,179.897,411.152,180.183,410.866,180.183z M411.438,182.752c0-0.285,0.286-0.57,0.571-0.856
				c0.571-0.571,1.428-0.285,1.999,0.286l0,0l0,0c0.571,0.57,0.571,1.428,0,1.999l0,0l0,0c-0.286,0.285-0.571,0.285-0.856,0.285
				c-0.571,0-0.857-0.285-1.142-0.571C411.438,183.323,411.438,183.038,411.438,182.752z"/>
		</g>
	</g>
</g>
</svg>
