<?xml version="1.0" encoding="utf-8"?>
<!-- Generator: Adobe Illustrator 16.0.3, SVG Export Plug-In . SVG Version: 6.00 Build 0)  -->
<!DOCTYPE svg PUBLIC "-//W3C//DTD SVG 1.1//EN" "http://www.w3.org/Graphics/SVG/1.1/DTD/svg11.dtd" [
	<!ENTITY ns_extend "http://ns.adobe.com/Extensibility/1.0/">
	<!ENTITY ns_ai "http://ns.adobe.com/AdobeIllustrator/10.0/">
	<!ENTITY ns_graphs "http://ns.adobe.com/Graphs/1.0/">
	<!ENTITY ns_vars "http://ns.adobe.com/Variables/1.0/">
	<!ENTITY ns_imrep "http://ns.adobe.com/ImageReplacement/1.0/">
	<!ENTITY ns_sfw "http://ns.adobe.com/SaveForWeb/1.0/">
	<!ENTITY ns_custom "http://ns.adobe.com/GenericCustomNamespace/1.0/">
	<!ENTITY ns_adobe_xpath "http://ns.adobe.com/XPath/1.0/">
]>
<svg version="1.1" id="Layer_1" xmlns:x="&ns_extend;" xmlns:i="&ns_ai;" xmlns:graph="&ns_graphs;"
	 xmlns="http://www.w3.org/2000/svg" xmlns:xlink="http://www.w3.org/1999/xlink" x="0px" y="0px" width="301.527px"
	 height="301.526px" viewBox="276.078 76.336 301.527 301.526" enable-background="new 276.078 76.336 301.527 301.526"
	 xml:space="preserve">
<metadata>
	<sfw  xmlns="&ns_sfw;">
		<slices></slices>
		<sliceSourceBounds  width="301.527" height="301.526" y="122.638" x="275.578" bottomLeftOrigin="true"></sliceSourceBounds>
	</sfw>
</metadata>
<title>TARGET 1.2</title>
<g id="TARGETS">
	<g>
		<rect x="276.078" y="76.336" fill="#FD9D24" width="301.527" height="301.526"/>
	</g>
	<g>
		<g>
			<g>
				<path fill="#FFFFFF" d="M508.266,251.59h10.814c1.908,0,3.181-1.272,3.181-3.181s-1.272-3.181-3.181-3.181h-25.764
					c-1.908,0-3.181,1.272-3.181,3.181s1.272,3.181,3.181,3.181h8.271l-4.453,18.767h-12.404c0,0-27.354,0-57.57,42.938
					c-10.178,13.04,10.496,13.04,10.496,13.04h118.32V294.53H530.53c-1.59,0-2.544-1.272-2.544-2.545l0,0v-7.634
					c0-1.59,1.272-2.544,2.544-2.544l0,0h25.445v-11.45h-52.162L508.266,251.59z M484.729,283.397c0,0-3.499,6.998-4.453,9.225
					c-0.954,2.226-1.908,1.908-1.908,1.908h-20.675c-4.771,0-4.453-0.318-3.181-1.908c3.816-4.771,8.906-8.588,14.313-11.133h14.631
					C484.729,281.17,485.047,282.124,484.729,283.397L484.729,283.397z M505.403,281.489h13.041c1.59,0,2.544,1.272,2.544,2.545l0,0
					v30.534c0,1.59-1.272,2.544-2.544,2.544h-13.041c-1.59,0-2.545-1.272-2.545-2.544v-30.534
					C502.541,282.443,503.813,281.17,505.403,281.489L505.403,281.489L505.403,281.489z"/>
			</g>
			<g>
				<path fill="#FFFFFF" d="M386.765,289.758c-2.544,0-5.089,0.637-7.315,1.591l-4.135-6.68l3.181-5.726l3.816,0.318
					c1.59,0,2.227-0.318,2.227-1.59v-0.955c0-0.954-0.636-1.908-1.59-1.908h-0.318h-13.677c-0.636,0-0.955,0.318-0.955,0.954l0,0
					v0.955c0,0.636,0.318,0.954,0.955,0.954l4.135,0.317l-1.59,3.181l-24.491-2.544v-3.817c0-0.954-0.636-1.59-1.272-2.227
					l-7.315-4.135l0,0c-0.318-0.317-0.954-0.317-1.272-0.317c-1.272,0-2.545,1.271-2.545,2.544l0,0c0,0.954,0.636,1.908,1.272,2.227
					l0,0l6.043,3.499v3.181l0,0l-4.771,10.496c-1.909-0.636-3.817-0.954-5.726-0.954c-10.178,0-18.448,8.27-18.448,18.447
					c0,10.179,8.27,18.448,18.448,18.448c10.178,0,18.448-8.27,18.448-18.448c0-6.043-2.863-11.768-7.952-15.267l2.862-6.043
					l13.677,22.264c0.318,0.637,1.272,1.272,2.227,1.272l8.588,0.318c1.272,10.178,10.496,17.176,20.356,16.221
					c10.178-1.271,17.175-10.496,16.221-20.355c-1.272-9.224-8.906-16.222-18.448-16.222H386.765z M344.462,307.57
					c0,7.315-6.043,13.359-13.359,13.359s-13.359-6.044-13.359-13.359s6.043-13.358,13.359-13.358l0,0
					c1.272,0,2.227,0.318,3.499,0.636l-5.407,11.769l0,0c0,0.318-0.318,0.636-0.318,0.954c0,1.272,1.272,2.545,2.544,2.545
					c0.955,0,1.909-0.637,2.227-1.591l0,0l0,0l0,0l5.407-11.45C342.235,299.618,344.144,303.753,344.462,307.57z M374.996,293.893
					c-3.499,2.863-5.725,6.68-6.361,11.133h-4.453l8.27-15.268L374.996,293.893z M377.859,298.346l4.453,6.997h-8.587
					C374.36,302.799,375.632,300.254,377.859,298.346z M368.317,286.26l-8.588,15.902l-11.132-18.129L368.317,286.26z
					 M386.765,321.565c-6.361,0-12.086-4.771-13.041-11.133l13.041,0.318l0,0c1.272,0,2.544-1.272,2.544-2.544
					c0-0.637,0-0.955-0.318-1.272l-6.998-11.132c6.998-2.545,14.631,0.636,17.175,7.633c2.545,6.997-0.636,14.631-7.633,17.176
					C390.263,321.246,388.355,321.565,386.765,321.565L386.765,321.565z"/>
			</g>
			<g>
				<path fill="#FFFFFF" d="M299.614,334.287h254.453c0.954,0,1.908,0.954,1.908,1.908v11.45c0,0.954-0.954,1.909-1.908,1.909
					H299.614c-0.954,0-1.908-0.955-1.908-1.909v-11.45C297.706,335.241,298.66,334.287,299.614,334.287z"/>
			</g>
		</g>
		<g>
			<g>
				<g>
					<path fill="#FFFFFF" d="M409.983,156.489l-6.679-29.898c0-1.59-1.59-2.862-3.181-2.862l-49.937,0.318h-27.672h-24.173v9.224
						h20.356c1.272,0,2.545,0.954,2.545,2.545v16.857c0,1.271-0.954,2.544-2.545,2.544h-20.356v34.352h39.122
						c-0.318-1.272-0.318-2.227-0.318-3.499l0,0c0.636-7.951,7.315-13.995,15.267-13.358c7.315,0.636,12.723,6.043,13.359,13.358
						l0,0c0,1.272,0,2.545-0.318,3.499h40.076c2.545,0,4.453-1.908,4.453-4.453v-0.318v-11.132V156.489L409.983,156.489z
						 M365.772,152.672c0,1.271-0.955,2.544-2.545,2.544l0,0h-33.397c-1.272,0-2.544-0.954-2.544-2.544v-17.176
						c0-1.272,1.272-2.545,2.544-2.545h33.397c1.272,0,2.545,0.954,2.545,2.545l0,0V152.672z M387.401,178.753
						c0,1.59-1.272,2.545-2.544,2.545l0,0h-9.542c-1.59,0-2.545-1.272-2.545-2.545v-42.938c0-1.591,1.272-2.545,2.545-2.545h9.542
						c1.59,0,2.544,1.272,2.544,2.545l0,0V178.753z M403.94,166.666h-8.588c-0.954,0-1.59-0.636-1.59-1.59c0,0,0,0,0-0.318
						c0-2.862,0-30.534,0-30.534s-0.318-1.272,1.59-1.272h4.771l5.089,23.537v8.27C405.53,164.758,405.53,166.666,403.94,166.666
						L403.94,166.666z"/>
				</g>
				<g>
					<path fill="#FFFFFF" d="M351.141,173.982c-6.361,0-11.769,5.09-11.769,11.769l0,0l0,0c0,6.361,5.407,11.769,11.769,11.769l0,0
						c6.361,0,11.769-5.407,11.769-11.769l0,0C362.91,179.389,357.502,173.982,351.141,173.982z M351.141,191.794
						c-3.499,0-6.043-2.545-6.043-6.044c0-3.498,2.544-6.043,6.043-6.043c3.499,0,6.043,2.545,6.043,6.043l0,0
						C357.185,189.249,354.322,191.794,351.141,191.794L351.141,191.794z"/>
				</g>
			</g>
			<g>
				<path fill="#FFFFFF" d="M544.207,105.28h-5.089c-0.318,0-0.318,0-0.318,0.318v2.545h-16.221v28.626h16.539v60.433
					c0,0.317,0,0.317,0.318,0.317l0,0h4.771c0.318,0,0.318,0,0.318-0.317l0,0v-91.604C544.525,105.28,544.207,105.28,544.207,105.28
					z"/>
			</g>
			<g>
				<g>
					<path fill="#FFFFFF" d="M453.24,138.677c3.499,0,6.361-2.862,6.361-6.043c0-2.227-1.272-4.453-3.181-5.407
						c0.318-0.318,0.318-0.637,0.318-0.954c0-1.909-1.272-3.181-3.181-3.181s-3.181,1.271-3.181,3.181c0,0.317,0,0.636,0.318,0.954
						c-2.227,0.954-3.817,3.181-3.817,5.407C446.879,136.132,449.742,138.677,453.24,138.677z"/>
				</g>
				<g>
					<path fill="#FFFFFF" d="M471.052,161.26l-5.089-16.54c0,0-1.908-4.771-6.043-4.771h-13.358c-4.136,0-6.044,4.771-6.044,4.771
						l-5.089,16.54c0,0-0.636,2.544,1.272,3.498c0,0,0,0,0,0.318l-6.043,31.488c0,0.637,0.317,0.954,0.636,1.272l0,0
						c0.318,0,0.954-0.318,0.954-0.636l6.361-31.489v-0.317c1.591-0.318,2.227-2.227,2.227-2.227l4.135-13.995
						c0,0,0.318-0.954,0.954-0.954c0.637,0,0.637,1.272,0.637,1.272l-7.316,26.081h6.68v18.766c0,1.908,1.591,3.181,3.181,3.181
						c1.908,0,3.181-1.59,3.181-3.181v-18.766h1.908v18.766c0,1.908,1.272,3.181,3.181,3.181c1.909,0,3.181-1.272,3.181-3.181
						v-18.766h6.68l-6.997-26.081c0,0-0.318-1.272,0.636-1.272s0.954,0.954,0.954,0.954l4.135,13.995c0,0,0.637,2.862,3.499,2.227
						C472.324,164.758,471.052,161.26,471.052,161.26z"/>
				</g>
			</g>
			<g>
				<g>
					<path fill="#FFFFFF" d="M499.996,151.718c3.181,0,6.043-2.545,6.043-6.044c0-3.498-2.862-5.725-6.043-5.725
						s-6.043,2.544-6.043,6.043S496.497,151.718,499.996,151.718L499.996,151.718z"/>
				</g>
				<g>
					<path fill="#FFFFFF" d="M524.487,188.295l-2.545-4.771l0,0l-5.725-11.768c-0.637-0.955-1.591-1.591-2.863-1.591h-8.587v-10.496
						c0-3.181-0.954-5.089-3.181-5.726c-1.272-0.317-2.545-0.317-3.817,0l0,0l0,0l-9.86,3.181h-0.317h-0.318l0,0
						c-0.636,0.318-0.954,0.637-0.954,1.272l-2.862,7.952c-0.318,1.272,0.317,2.544,1.59,3.181c1.272,0.317,2.545-0.318,3.181-1.591
						l2.545-6.997l3.816-1.272l0,0v11.132c0,2.545,0.954,5.09,3.499,5.726l0.636,0.318h1.272H512.4l3.181,6.361v0.317l1.272,2.227
						l1.272,2.227c0,0,0,0,0,0.318l0,0l1.272,2.545c0.954,1.59,2.544,2.226,4.135,1.271
						C524.487,191.157,525.123,189.885,524.487,188.295z"/>
				</g>
				<g>
					<path fill="#FFFFFF" d="M506.357,181.298c0,0.317,0,0.317,0,0.636c0,6.68-5.407,12.087-11.769,12.087
						c-6.68,0-12.086-5.407-12.086-11.769c0-2.863,0.954-5.407,2.544-7.634l-3.181-2.227c-5.407,6.68-4.453,16.857,2.545,22.265
						c6.68,5.407,16.857,4.453,22.265-2.545c2.227-2.862,3.499-6.679,3.499-10.178c0-0.318,0-0.318,0-0.636H506.357z"/>
				</g>
			</g>
			<g>
				<path fill="#FFFFFF" d="M299.614,205.153h254.453c0.954,0,1.908,0.954,1.908,1.908v11.45c0,0.955-0.954,1.909-1.908,1.909
					H299.614c-0.954,0-1.908-0.954-1.908-1.909v-11.45C297.706,206.107,298.66,205.153,299.614,205.153z"/>
			</g>
		</g>
	</g>
</g>
</svg>
