<?xml version="1.0" encoding="utf-8"?>
<!-- Generator: Adobe Illustrator 16.0.3, SVG Export Plug-In . SVG Version: 6.00 Build 0)  -->
<!DOCTYPE svg PUBLIC "-//W3C//DTD SVG 1.1//EN" "http://www.w3.org/Graphics/SVG/1.1/DTD/svg11.dtd" [
	<!ENTITY ns_extend "http://ns.adobe.com/Extensibility/1.0/">
	<!ENTITY ns_ai "http://ns.adobe.com/AdobeIllustrator/10.0/">
	<!ENTITY ns_graphs "http://ns.adobe.com/Graphs/1.0/">
	<!ENTITY ns_vars "http://ns.adobe.com/Variables/1.0/">
	<!ENTITY ns_imrep "http://ns.adobe.com/ImageReplacement/1.0/">
	<!ENTITY ns_sfw "http://ns.adobe.com/SaveForWeb/1.0/">
	<!ENTITY ns_custom "http://ns.adobe.com/GenericCustomNamespace/1.0/">
	<!ENTITY ns_adobe_xpath "http://ns.adobe.com/XPath/1.0/">
]>
<svg version="1.1" id="Layer_1" xmlns:x="&ns_extend;" xmlns:i="&ns_ai;" xmlns:graph="&ns_graphs;"
	 xmlns="http://www.w3.org/2000/svg" xmlns:xlink="http://www.w3.org/1999/xlink" x="0px" y="0px" width="500px" height="500px"
	 viewBox="177 0 500 500" enable-background="new 177 0 500 500" xml:space="preserve">
<metadata>
	<sfw  xmlns="&ns_sfw;">
		<slices></slices>
		<sliceSourceBounds  width="500" height="500" y="0.5" x="176.5" bottomLeftOrigin="true"></sliceSourceBounds>
	</sfw>
</metadata>
<title>TARGET 1 B copy 10</title>
<g id="TARGETS">
	<g>
		<rect x="177" y="0" fill="#19486A" width="500" height="500"/>
	</g>
	<g>
		<g>
			<path fill="#FFFFFF" d="M473.413,164.03c0-7.911-1.582-15.823-5.273-22.68l42.193-25.316
				c11.076,15.296,32.701,18.987,47.996,7.912c15.295-11.076,18.987-32.701,7.911-47.996c-11.075-15.296-32.7-18.987-47.995-7.911
				c-8.967,6.329-14.241,16.877-14.241,27.953c0,4.22,1.056,8.438,2.638,12.658l-42.194,25.316
				c-16.878-23.734-49.578-29.536-73.313-12.658c-5.274,3.692-9.493,7.911-13.186,13.186L334.7,108.122
				c1.583-3.692,2.11-7.911,2.11-12.131c0-18.987-15.295-34.81-34.81-34.81s-34.81,15.295-34.81,34.81
				c0,18.987,15.295,34.811,34.81,34.811c11.076,0,21.625-5.274,28.481-14.241l43.249,25.845
				c-12.131,26.371-1.055,57.489,25.316,69.62c5.802,2.637,11.604,4.219,17.933,4.746v49.578
				c-18.987,2.638-32.173,19.515-30.063,38.502c2.637,18.987,19.515,32.173,38.502,30.063c18.987-2.109,32.173-19.515,30.063-38.502
				c-2.11-15.822-14.241-27.953-30.063-30.063v-50.105C452.316,213.608,473.413,191.455,473.413,164.03z M538.287,70.148
				c14.24,0,25.844,11.604,25.844,25.844s-11.604,25.844-25.844,25.844c-14.241,0-25.844-11.604-25.844-25.844l0,0
				C512.971,81.751,524.046,70.148,538.287,70.148z M302.527,121.835c-14.24,0-25.844-11.604-25.844-25.844
				s11.604-25.844,25.844-25.844c14.241,0,25.844,11.604,25.844,25.844S316.768,121.835,302.527,121.835L302.527,121.835z
				 M376.895,164.03c0-24.262,20.042-44.304,44.304-44.304s44.304,20.042,44.304,44.304s-20.042,44.304-44.304,44.304l0,0
				C396.937,208.333,376.895,188.819,376.895,164.03L376.895,164.03z M447.042,300.633c0,14.24-11.604,25.844-25.844,25.844
				s-25.844-11.604-25.844-25.844s11.604-25.844,25.844-25.844S447.042,286.393,447.042,300.633L447.042,300.633z"/>
		</g>
		<g>
			<path fill="#FFFFFF" d="M323.625,310.654c0-16.35-13.186-30.063-30.063-30.063c-16.35,0-30.063,13.186-30.063,30.063
				c0,16.878,13.186,30.063,30.063,30.063l0,0C310.439,340.717,323.625,327.531,323.625,310.654
				C324.152,310.654,324.152,310.654,323.625,310.654z"/>
		</g>
		<g>
			<path fill="#FFFFFF" d="M328.899,347.573c-0.528,0-1.583,0-2.11,0h-14.241l-18.987,43.776l-17.932-44.304h-14.241
				c-0.527,0-1.583,0-2.11,0c-20.569,2.109-36.392,18.987-36.392,39.557v52.216h23.207v-40.612c0-2.637,0.527-6.329,5.802-6.329
				c3.165,0,4.219,3.692,4.219,5.802v41.14h75.95v-41.14c0-2.109,1.055-5.802,4.219-5.802c4.747,0,5.802,3.692,5.802,6.329v40.612
				h23.207v-52.216C365.291,366.561,349.468,349.156,328.899,347.573z M294.616,424.577c-2.11,0-4.22-2.109-4.22-4.219
				c0-2.11,2.11-4.22,4.22-4.22c2.109,0,4.219,2.109,4.219,4.22C298.835,422.468,296.726,424.577,294.616,424.577L294.616,424.577z"
				/>
		</g>
		<g>
			<path fill="#FFFFFF" d="M547.78,281.118c-16.877,0-31.118,13.713-31.118,31.117c0,17.405,13.714,31.118,31.118,31.118
				c16.878,0,31.118-13.713,31.118-31.118l0,0C578.898,294.831,565.186,281.118,547.78,281.118L547.78,281.118z"/>
		</g>
		<g>
			<path fill="#FFFFFF" d="M585.228,390.295c4.22-1.055,5.274,4.22,5.274,4.22l13.186,44.831h27.427l-20.57-66.456
				c0,0-9.493-24.262-29.535-24.262h-15.296l-18.987,43.776l-17.933-43.776H515.08c-20.569,0-29.536,24.262-29.536,24.262
				l-20.042,66.456h27.427l13.186-44.831c0,0,1.055-5.274,5.273-4.22c4.22,1.055,2.638,6.856,2.638,6.856l-11.604,41.667h91.772
				l-11.604-41.667C582.591,397.152,581.536,391.35,585.228,390.295z M547.78,427.215c-2.109,0-4.219-2.109-4.219-4.22
				c0-2.109,2.109-4.22,4.219-4.22c2.11,0,4.22,2.11,4.22,4.22C552,425.106,550.418,427.215,547.78,427.215L547.78,427.215z"/>
		</g>
	</g>
</g>
</svg>
