<?xml version="1.0" encoding="utf-8"?>
<!-- Generator: Adobe Illustrator 16.0.3, SVG Export Plug-In . SVG Version: 6.00 Build 0)  -->
<!DOCTYPE svg PUBLIC "-//W3C//DTD SVG 1.1//EN" "http://www.w3.org/Graphics/SVG/1.1/DTD/svg11.dtd" [
	<!ENTITY ns_extend "http://ns.adobe.com/Extensibility/1.0/">
	<!ENTITY ns_ai "http://ns.adobe.com/AdobeIllustrator/10.0/">
	<!ENTITY ns_graphs "http://ns.adobe.com/Graphs/1.0/">
	<!ENTITY ns_vars "http://ns.adobe.com/Variables/1.0/">
	<!ENTITY ns_imrep "http://ns.adobe.com/ImageReplacement/1.0/">
	<!ENTITY ns_sfw "http://ns.adobe.com/SaveForWeb/1.0/">
	<!ENTITY ns_custom "http://ns.adobe.com/GenericCustomNamespace/1.0/">
	<!ENTITY ns_adobe_xpath "http://ns.adobe.com/XPath/1.0/">
]>
<svg version="1.1" id="Layer_1" xmlns:x="&ns_extend;" xmlns:i="&ns_ai;" xmlns:graph="&ns_graphs;"
	 xmlns="http://www.w3.org/2000/svg" xmlns:xlink="http://www.w3.org/1999/xlink" x="0px" y="0px" width="285.199px"
	 height="285.198px" viewBox="284.25 72.202 285.199 285.198" enable-background="new 284.25 72.202 285.199 285.198"
	 xml:space="preserve">
<metadata>
	<sfw  xmlns="&ns_sfw;">
		<slices></slices>
		<sliceSourceBounds  width="285.199" height="285.198" y="143.1" x="283.75" bottomLeftOrigin="true"></sliceSourceBounds>
	</sfw>
</metadata>
<title>TARGET 1 B copy 3</title>
<g id="TARGETS">
	<g>
		<rect x="284.25" y="72.202" fill="#FD6925" width="285.199" height="285.198"/>
	</g>
	<g>
		<g>
			<path fill="#FFFFFF" d="M480.099,272.262c-6.017-4.513-13.237-6.919-20.758-6.919c-1.806,0-3.31,0-5.114,0.602h-0.602
				c-4.813,1.203-13.237,3.009-22.864,15.042v0.301c-0.301,0.301-0.301,0.602-0.301,0.602c0,0.301,0,0.602,0.301,0.602l0.301,0.302
				c1.504,2.707,3.008,5.114,3.911,6.919c0.301,0.602,1.203,0.902,1.805,0.602l0.301-0.301l0.301-0.301
				c8.424-11.432,14.741-12.937,18.953-14.14h0.602c0.902-0.301,1.806-0.301,2.708-0.301c5.114,0,10.229,1.504,14.44,4.513
				c4.813,3.911,7.22,9.928,7.22,18.05c0,13.839-6.618,18.953-12.334,21.06c-2.106,0.902-4.513,1.203-6.92,1.203
				c-3.609,0-6.919-0.902-10.229-2.406l-0.301-0.301c-4.813-2.106-12.033-6.318-18.652-20.156
				c-14.139-26.775-25.571-29.483-33.393-31.288h-0.301c-1.504-0.301-3.309-0.602-5.114-0.602c-7.521,0-14.44,2.105-20.457,6.618
				c-5.114,3.911-11.131,11.733-11.131,26.174c-0.902,16.847,11.733,30.986,28.58,32.189c0.902,0,1.504,0,2.407,0
				c2.407,0,4.813-0.301,6.919-0.602c4.513-0.902,8.423-2.707,12.034-5.415l3.911,3.61c0.602,0.301,1.203,0.301,1.504,0
				s0.301-0.602,0.301-0.903l3.009-19.254v-0.301c0-0.301,0-0.602-0.301-0.902c-0.301-0.301-0.602-0.301-0.902-0.301l0,0
				l-18.953,5.114h-0.301c-0.301,0-0.301,0.301-0.602,0.301c-0.301,0.301-0.301,0.602-0.301,0.902c0,0.302,0.301,0.603,0.301,0.903
				l3.911,3.609c-1.805,1.204-3.911,2.106-6.017,2.407c-1.504,0.301-3.309,0.602-5.114,0.602c-6.318,0-12.034-2.708-15.945-7.521
				l0,0c-3.309-4.211-4.813-9.325-4.212-14.44c0-8.122,2.407-14.439,7.22-18.05c4.212-3.009,9.025-4.513,14.14-4.513
				c0.903,0,1.805,0,2.708,0.301h0.301c6.017,1.504,14.44,3.31,26.173,26.774c6.017,12.335,13.839,20.458,23.767,24.67
				c4.813,2.105,9.928,3.309,15.042,3.609c3.61,0,7.221-0.602,10.529-1.805c5.717-2.106,18.953-9.326,18.953-30.686
				C491.229,284.296,485.213,276.474,480.099,272.262z"/>
		</g>
		<g>
			<g>
				<path fill="#FFFFFF" d="M378.715,107.1c-6.318,0.301-11.131,5.415-10.831,11.432c0.301,6.318,5.416,11.132,11.432,10.831
					c6.017-0.301,11.131-5.114,10.831-11.433C390.147,111.913,385.033,107.1,378.715,107.1L378.715,107.1z"/>
			</g>
			<g>
				<path fill="#FFFFFF" d="M397.668,117.028h-4.813c-0.602,0-0.903,0.301-0.903,0.902s0.301,0.902,0.903,0.902h4.813
					c0.602,0,0.902-0.301,0.902-0.902S398.27,117.028,397.668,117.028z"/>
			</g>
			<g>
				<path fill="#FFFFFF" d="M366.08,118.531c0-0.602-0.301-0.902-0.903-0.902h-4.813c-0.602,0-0.902,0.301-0.902,0.902
					c0,0.603,0.301,0.903,0.902,0.903h4.813C365.779,119.435,366.08,119.134,366.08,118.531z"/>
			</g>
			<g>
				<path fill="#FFFFFF" d="M378.715,105.295c0.602,0,0.902-0.301,0.902-0.903v-4.813c0-0.602-0.301-0.902-0.902-0.902
					s-0.902,0.301-0.902,0.902v4.813C377.813,104.994,378.414,105.295,378.715,105.295z"/>
			</g>
			<g>
				<path fill="#FFFFFF" d="M379.316,131.167c-0.602,0-0.902,0.301-0.902,0.902v4.813c0,0.602,0.602,0.902,0.902,0.902
					c0.602,0,0.903-0.301,0.903-0.902v-4.813C380.219,131.468,379.918,131.167,379.316,131.167z"/>
			</g>
			<g>
				<path fill="#FFFFFF" d="M391.35,111.913l4.212-2.406c0.301-0.302,0.602-0.903,0.301-1.204s-0.902-0.602-1.203-0.301
					l-4.212,2.407c-0.301,0.301-0.602,0.902-0.301,1.203S390.749,112.214,391.35,111.913z"/>
			</g>
			<g>
				<path fill="#FFFFFF" d="M366.982,124.549l-4.212,2.406c-0.301,0.301-0.602,0.902-0.301,1.203s0.903,0.603,1.204,0.301
					l4.211-2.406c0.301-0.301,0.602-0.902,0.301-1.203C367.884,124.549,367.283,124.248,366.982,124.549z"/>
			</g>
			<g>
				<path fill="#FFFFFF" d="M371.194,107.1c0.301,0.301,0.902,0.602,1.203,0.301s0.602-0.902,0.301-1.203l-2.407-4.212
					c-0.301-0.301-0.902-0.301-1.203,0s-0.301,0.602-0.301,0.902L371.194,107.1z"/>
			</g>
			<g>
				<path fill="#FFFFFF" d="M386.837,129.663c-0.301-0.301-0.902-0.602-1.203-0.301s-0.602,0.902-0.301,1.203l2.407,4.212
					c0.301,0.301,0.902,0.602,1.203,0.301s0.602-0.902,0.301-1.203L386.837,129.663z"/>
			</g>
			<g>
				<path fill="#FFFFFF" d="M386.537,106.498l2.106-4.212c0.301-0.301,0-0.902-0.301-1.203s-0.902,0-1.204,0.301l-2.407,4.212
					c-0.301,0.301,0,0.902,0.301,1.203C385.634,107.1,386.236,107.1,386.537,106.498z"/>
			</g>
			<g>
				<path fill="#FFFFFF" d="M371.795,129.964l-2.407,4.212c-0.301,0.301,0,0.902,0.301,1.203s0.903,0,1.204-0.301l2.407-4.212
					c0.301-0.301,0-0.902-0.301-1.203C372.698,129.363,372.096,129.363,371.795,129.964z"/>
			</g>
			<g>
				<path fill="#FFFFFF" d="M366.681,112.515c0.301,0.301,0.902,0,1.203-0.301c0.301-0.301,0-0.902-0.301-1.203l-4.211-2.407
					c-0.301-0.301-0.903,0-1.204,0.301s0,0.903,0.301,1.204L366.681,112.515z"/>
			</g>
			<g>
				<path fill="#FFFFFF" d="M391.651,123.948c-0.301-0.302-0.902,0-1.203,0.301s0,0.902,0.301,1.203l4.212,2.406
					c0.602,0,0.902-0.301,1.203-0.602c0-0.301,0-0.602-0.301-0.902L391.651,123.948z"/>
			</g>
		</g>
		<g>
			<g>
				<path fill="#FFFFFF" d="M414.515,154.934l1.805-12.636l-4.513,1.806l-2.708-7.221c-0.301-0.902-1.203-1.203-2.105-0.902
					c-0.903,0.301-1.204,1.203-0.903,2.105l0,0l2.708,7.221l-4.513,1.805L414.515,154.934z"/>
			</g>
			<g>
				<path fill="#FFFFFF" d="M398.27,149.218l-4.513,1.805l-2.708-6.919c-0.301-0.902-1.203-1.204-2.106-0.902l0,0
					c-0.902,0.301-1.203,1.203-0.902,2.105l2.708,6.919l-4.513,1.806l9.928,7.821L398.27,149.218z"/>
			</g>
			<g>
				<path fill="#FFFFFF" d="M379.918,156.739l-4.512,1.806l-2.708-7.221c-0.301-0.902-1.203-1.203-2.105-0.902
					c-0.903,0.301-1.204,1.203-0.903,2.105l0,0l2.708,7.221l-4.513,1.805l9.928,7.822L379.918,156.739z"/>
			</g>
		</g>
		<g>
			<g>
				<path fill="#FFFFFF" d="M507.776,142.9h-3.009v8.424h-16.245V142.9h-3.009v8.424h-20.156l-117.93,39.109
					c-0.602,0-1.204,0.602-1.204,1.204v57.159h6.318v-28.881c0-0.602,0.602-1.203,1.204-1.203l0,0h19.855
					c0.602,0,1.203,0.602,1.203,1.203v28.881h90.854c0.602,0,0.902-0.301,0.902-0.902v-11.732l19.254-0.301v12.936h3.009v-12.936
					h16.245v12.936h3.009L507.776,142.9z M374.503,210.59c0,0.602-0.602,1.203-1.203,1.203h-19.856
					c-0.602,0-1.203-0.301-1.203-0.902l0,0v-10.53c0-0.602,0.602-1.203,1.203-1.203l0,0h20.157c0.602,0,1.203,0.602,1.203,1.203
					L374.503,210.59z M403.083,230.446c0,0.602-0.602,1.203-1.203,1.203h-19.555c-0.602,0-1.203-0.602-1.203-1.203l0,0v-10.53
					c0-0.602,0.602-1.203,1.203-1.203l0,0h19.555c0.602,0,1.203,0.602,1.203,1.203V230.446z M403.083,210.59
					c0,0.602-0.602,1.203-1.203,1.203h-19.555c-0.602,0-1.203-0.602-1.203-1.203l0,0v-10.53c0-0.602,0.602-1.203,1.203-1.203l0,0
					h19.555c0.602,0,1.203,0.602,1.203,1.203V210.59z M431.362,230.446c0,0.602-0.602,1.203-1.203,1.203h-19.555
					c-0.602,0-1.203-0.602-1.203-1.203l0,0v-10.53c0-0.602,0.602-1.203,1.203-1.203l0,0h19.555c0.602,0,1.203,0.602,1.203,1.203
					V230.446z M431.362,210.59c0,0.602-0.602,1.203-1.203,1.203h-19.555c-0.602,0-0.902-0.602-0.902-1.203v-10.53
					c0-0.602,0.602-1.203,1.203-1.203l0,0h19.555c0.602,0,1.203,0.602,1.203,1.203L431.362,210.59z M459.942,230.446
					c0,0.602-0.602,1.203-1.203,1.203h-19.555c-0.603,0-1.204-0.602-1.204-1.203l0,0v-10.53c0-0.602,0.602-1.203,1.204-1.203l0,0
					h19.555c0.602,0,1.203,0.602,1.203,1.203V230.446z M459.942,210.59c0,0.602-0.602,1.203-1.203,1.203h-19.555
					c-0.603,0-1.204-0.602-1.204-1.203l0,0v-10.53c0-0.602,0.602-1.203,1.204-1.203l0,0h19.555c0.602,0,1.203,0.602,1.203,1.203
					V210.59z M485.514,157.039v31.589l-7.22-15.644L485.514,157.039z M469.569,192.239l7.22-15.945l7.221,15.945H469.569z
					 M483.709,195.246l-6.92,15.344l-6.919-15.344H483.709z M483.709,154.332l-6.92,15.343l-6.919-15.343H483.709z M466.561,154.031
					l8.725,18.953l-8.725,19.254V154.031z M466.561,195.246L466.561,195.246l8.725,18.652l-8.725,19.254V195.246z M469.569,233.453
					l7.22-15.944l7.221,15.944H469.569z M478.294,213.899l7.22-15.944v31.588L478.294,213.899z M504.768,158.845v28.279
					l-6.618-14.14L504.768,158.845z M489.726,192.239l7.221-15.945l7.22,15.645L489.726,192.239z M503.865,195.246l-6.919,15.344
					l-6.92-15.344H503.865z M503.865,154.332l-6.919,15.042l-6.92-15.343L503.865,154.332z M488.522,158.243l6.919,15.042
					l-6.919,15.042V158.243z M488.522,228.941v-29.783l6.919,14.741L488.522,228.941z M489.425,233.453l7.521-16.245l7.22,15.944
					L489.425,233.453z M498.149,213.899l6.618-14.14v28.279L498.149,213.899z"/>
			</g>
			<g>
				<path fill="#FFFFFF" d="M346.826,184.717l115.824-38.508c0.603-0.301,0.903,0,1.204,0.602l0.602,1.505
					c0.301,0.602,0,0.902-0.602,1.203l-115.825,38.508c-0.602,0.301-0.902,0-1.203-0.602l-0.602-1.505
					C346.224,185.319,346.524,185.018,346.826,184.717z"/>
			</g>
		</g>
	</g>
</g>
</svg>
