<?xml version="1.0" encoding="utf-8"?>
<!-- Generator: Adobe Illustrator 16.0.3, SVG Export Plug-In . SVG Version: 6.00 Build 0)  -->
<!DOCTYPE svg PUBLIC "-//W3C//DTD SVG 1.1//EN" "http://www.w3.org/Graphics/SVG/1.1/DTD/svg11.dtd" [
	<!ENTITY ns_extend "http://ns.adobe.com/Extensibility/1.0/">
	<!ENTITY ns_ai "http://ns.adobe.com/AdobeIllustrator/10.0/">
	<!ENTITY ns_graphs "http://ns.adobe.com/Graphs/1.0/">
	<!ENTITY ns_vars "http://ns.adobe.com/Variables/1.0/">
	<!ENTITY ns_imrep "http://ns.adobe.com/ImageReplacement/1.0/">
	<!ENTITY ns_sfw "http://ns.adobe.com/SaveForWeb/1.0/">
	<!ENTITY ns_custom "http://ns.adobe.com/GenericCustomNamespace/1.0/">
	<!ENTITY ns_adobe_xpath "http://ns.adobe.com/XPath/1.0/">
]>
<svg version="1.1" id="Layer_1" xmlns:x="&ns_extend;" xmlns:i="&ns_ai;" xmlns:graph="&ns_graphs;"
	 xmlns="http://www.w3.org/2000/svg" xmlns:xlink="http://www.w3.org/1999/xlink" x="0px" y="0px" width="301.719px"
	 height="301.719px" viewBox="275.981 76.384 301.719 301.719" enable-background="new 275.981 76.384 301.719 301.719"
	 xml:space="preserve">
<metadata>
	<sfw  xmlns="&ns_sfw;">
		<slices></slices>
		<sliceSourceBounds  width="301.719" height="301.719" y="122.397" x="275.481" bottomLeftOrigin="true"></sliceSourceBounds>
	</sfw>
</metadata>
<title>TARGET 1 B copy 16</title>
<g id="TARGETS">
	<g>
		<rect x="275.981" y="76.384" fill="#56C02B" width="301.719" height="301.719"/>
	</g>
	<g>
		<g>
			<path fill="#FFFFFF" d="M408.7,147.995v-9.549c0-0.318-0.318-0.954-0.955-0.637h-0.636l-0.637,0.318
				c-6.365,4.456-25.78,15.596-43.285-0.636l-0.318-0.318c-0.318-0.318-0.318-0.318-0.637-0.318s-0.637,0-0.637,0.318l-0.318,0.318
				c-17.823,16.55-37.556,4.773-43.603,0.317l-0.318-0.317l0,0c-0.318,0-0.955,0.317-0.955,0.636c0,0,0,0,0,0.318l0,0v9.866
				c0,0.318,0,0.318,0.318,0.637l0.637,0.637c13.049,10.503,31.827,9.866,44.558-0.955l0.318-0.318h0.955l0.318,0.318
				c13.049,10.821,31.827,11.14,44.876,0.318l0,0C408.7,148.949,408.7,148.631,408.7,147.995z"/>
		</g>
		<g>
			<path fill="#FFFFFF" d="M385.784,135.582c-0.318,0.955-0.637,1.592-0.637,2.546l0,0c1.91,0,15.914-0.954,21.324-20.369
				c-3.819,0-7.639,0.955-10.821,2.864c-2.228,1.592-4.456,3.819-5.729,6.366C388.331,129.854,386.739,132.718,385.784,135.582z"/>
		</g>
		<g>
			<path fill="#FFFFFF" d="M383.875,138.447L383.875,138.447L383.875,138.447c0.318-5.41-1.591-10.503-4.774-14.64
				c-1.591-1.91-3.183-3.501-5.092-4.774c-2.864-1.592-6.047-2.546-9.23-2.864C367.961,135.582,381.01,138.128,383.875,138.447z"/>
		</g>
		<g>
			<path fill="#FFFFFF" d="M389.922,123.807c0-5.411-1.91-10.821-5.729-14.959c-2.546,3.819-4.456,8.275-5.092,13.049
				c3.183,3.183,5.092,7.32,5.729,11.776C386.103,130.172,388.012,126.99,389.922,123.807z"/>
		</g>
	</g>
	<g>
		<g>
			<path fill="#FFFFFF" d="M544.282,122.215c-1.592-1.591-2.864-3.501-3.501-5.41v-1.273l-7.002-5.41c0,0-0.318-3.501-2.864-4.138
				l-1.592,4.773l-4.138,0.637c0,0-8.274-1.909-8.911-2.228c-5.093,4.138-7.957,10.503-7.002,16.868
				c-1.592-6.047-0.318-12.73,3.501-17.823c-3.183-0.955-7.002-0.955-10.185,0.318c-2.546,7.32-2.228,15.277,0.637,22.597
				c0,0-7.32-11.775-4.138-21.642l-5.729,1.909c-2.229,6.047-2.547,12.73-0.637,19.097c-2.864-5.729-3.819-12.095-2.546-18.46
				c-1.91,0.318-3.819,0.637-5.729,0.637c-3.183,4.138-4.456,9.229-2.864,14.322c-2.228-4.774-2.228-10.185,0-14.959
				c-2.228-0.637-4.456-0.955-6.684-0.955c-4.138,4.138-5.729,10.185-4.138,15.914c-2.546-4.774-2.546-10.503,0-15.277
				c-4.138,0.637-7.956,2.864-10.503,6.047c-3.819,4.138-7.32,8.912-10.503,13.686c0,0-6.047,13.686-16.231,14.322
				s-8.593-9.548-8.593-9.548s4.773-2.546,4.455-5.093c-0.318-2.546-5.41,0.637-6.365,3.819s-0.955,14.322,11.14,14.004
				c12.094-0.318,23.552-20.369,23.552-20.369l1.273,3.819c0.318,1.91-4.774,10.185-4.774,11.14l7.957,12.73h10.503
				c0,0-1.91-5.092-6.048-4.773c-1.272-2.547-2.546-5.093-3.501-7.957l10.185-9.866c7.957-1.91,28.645,3.819,28.645,3.819
				l3.501,9.229l3.819,3.819l6.684,6.365h12.73c0,0-0.954-4.456-8.274-6.047l-5.729-6.684l-0.318-9.549l15.277-8.274l10.503,3.501
				c1.273-2.229,2.864-4.138,4.456-6.047L544.282,122.215z"/>
		</g>
		<g>
			<path fill="#FFFFFF" d="M530.915,135.264c-2.229-0.637-7.32-2.228-7.32-2.228l-5.729,2.864v3.501
				c3.182,0.637,6.047,1.273,8.911,2.546l-0.637,4.456c4.456,1.909,6.684-3.183,6.684-3.183c0.637-1.273,0.955-2.546,1.273-3.819
				C534.416,137.174,534.416,136.219,530.915,135.264z"/>
		</g>
	</g>
	<g>
		<path fill="#FFFFFF" d="M425.567,222.47l-1.591-2.229c3.183-2.228,5.729-4.773,7.957-7.956c0,0-9.867,2.228-12.731-0.318
			l-6.684-9.866c1.592-2.547,1.592-5.411,0.318-7.957c-0.636-0.955-2.546-2.228-2.864-0.637v0.637
			c-0.637,1.273-1.591,2.546-3.183,2.864c0-1.272-0.637-2.228-1.273-3.183c-0.637-0.955-2.546-1.591-2.865-0.318v0.637
			c0,0.637-0.318,1.273-0.636,1.592l-8.275-3.501c-3.819-2.865-8.593-4.774-13.367-5.093h-3.819
			c-5.092,0.955-9.866,1.592-14.958,1.91l-24.188,0.954c0,0-20.369,0.637-20.688,11.14l-0.955,33.736
			c4.138,2.864,2.228-4.138,1.91-6.684c0.318-3.501,0.955-6.684,2.228-9.866l5.41,30.554h13.686c0-3.183-1.91-6.365-5.092-7.32
			l1.91-9.866l5.729-3.501c7.32,3.501,15.595,3.819,23.233,0.955l4.774,19.732h16.231c-0.637-6.047-9.23-7.639-9.23-7.639
			l4.138-16.231c1.273-0.318,2.228-0.637,3.501-0.955l2.546-0.637l0.636-0.317c2.228-0.955,4.456-2.229,6.684-3.819
			c0,0,7.32,9.548,10.503,10.821l11.139,5.092c1.273,0.637,2.865,0.637,4.138-0.318l1.91-0.955c1.272,0,2.546-0.317,3.5-0.954
			c0.955-0.637,1.91-1.592,2.229-2.547c6.047-0.636,18.777-11.457,18.777-11.457L425.567,222.47z"/>
	</g>
	<g>
		<path fill="#FFFFFF" d="M503.862,237.746h-7.002l-4.138-23.87l-0.318,23.87h-6.365l-5.093-28.962l-0.318,28.962h-19.732v10.821
			h72.565v-10.821h-16.231l-0.318-23.87l-4.138,23.87h-7.002v-35.327c0.637,0.636,1.273,0.954,1.909,1.591
			c3.819,2.864,7.639,3.819,8.594,2.228c0.955-1.591-0.955-4.773-4.774-7.638c-0.636-0.318-0.954-0.637-1.591-0.955
			c0.318-0.318,0.955-0.318,1.272-0.637c4.138-2.228,6.685-5.41,5.729-7.002c-0.955-1.591-4.774-0.955-8.912,1.273l0,0v-0.637
			c0.318-4.456-0.954-8.593-2.864-8.593c-1.909,0-3.501,3.501-3.819,7.956v0.955l-0.954-0.637c-3.819-2.864-7.639-3.819-8.594-2.546
			s0.955,4.773,4.774,7.639c0.318,0.318,0.954,0.636,1.272,0.954c-0.318,0.318-0.954,0.318-1.272,0.637
			c-4.138,2.229-6.365,5.411-5.729,7.002c0.637,1.592,4.774,0.955,8.912-1.272c1.272-0.637,2.546-1.592,3.819-2.547v0.637
			c0.318,3.819,0.318,7.957,0,11.776L503.862,237.746z M502.589,196.053c0-0.954,1.909-1.591,1.909-1.591s1.592,0.955,1.592,1.909
			c0,0.955-0.955,1.592-1.909,1.592C503.226,197.963,502.589,197.008,502.589,196.053z"/>
	</g>
	<g>
		<g>
			<path fill="#FFFFFF" d="M461.214,313.176c-5.41,2.228-15.595,6.047-23.87,4.456c-11.776-2.229,1.273,1.909,1.273,1.909
				c4.137,0.955,8.593,0.955,12.73,0.318c0.637,9.548,2.546,20.051,2.546,21.006c0,0,0,1.273,0.637,1.273l1.273,0.318
				c0,0,0.318,0,0.318-0.637c-0.318-6.048,0-11.776,0.636-17.823c0.637-2.228,1.273-4.138,2.547-6.047
				c1.272-0.637,2.864-0.955,4.137-1.592l-0.318-1.272C461.851,312.539,461.214,313.176,461.214,313.176z"/>
		</g>
		<g>
			<path fill="#FFFFFF" d="M540.145,303.947c-0.318-5.411-2.546-10.503-6.365-14.641c-4.774-5.41-11.458-8.593-18.46-8.911
				c-9.866-0.637-22.597-0.637-22.597-0.637s-2.228-0.318-2.546,2.546c-0.637,7.002-2.229,13.686-4.456,20.369
				c-0.955,2.546-6.365,3.183-7.002,3.501c0,0,5.729-3.183,6.365-5.092c1.273-6.047,1.909-12.413,1.909-18.778
				c-0.636-6.365-0.636-6.684-0.636-6.684s0-1.591-2.864-1.591h-13.368c0,0-1.272-0.318-1.591,1.591
				c-0.318,1.91,0,2.547-2.546,3.183c-3.501,0.318-7.002,1.592-9.866,3.819c-3.501,5.093-5.411,11.14-5.411,17.505v0.637
				c-0.318,4.137,0,8.593,0.955,12.73c3.501-0.318,7.002-1.273,10.185-3.183c2.228-1.273,3.501,1.909,3.501,1.909
				c0.318,0.637,0.637,1.592,0.955,2.229c0.317,0.318,0.317,0.954,0,1.272c0,0-0.955,0.318-0.637,0.955s0.954,1.273,1.909,1.273
				c1.273,0.318,5.093,5.729,5.093,5.729c0,0.955,0.636,9.548,0.636,9.548l1.91,12.095c0,0-3.819,2.864,2.546,2.864h6.684
				c0,0,2.864,0,2.864-1.91l-0.318-12.094l1.91-9.548c6.365,4.455,26.734,3.501,26.734,3.501c0.955,0.318,1.592,0.954,2.229,1.591
				l1.909,7.002l0.637,7.639c0,0-4.138,4.138,1.591,4.138h6.365c0,0,3.184,0.318,2.547-1.91c-0.955-3.183,3.818-22.597,3.818-27.689
				c0-5.092,0.318-12.73,0.637-14.958c0.637,3.819,1.273,7.32,1.273,11.14c0.318,4.137,0.637,8.274,0.637,12.412
				c0,0,0.318,3.501,0.637,1.273C540.145,320.815,541.1,312.539,540.145,303.947z"/>
		</g>
	</g>
	<g>
		<g>
			<polygon fill="#FFFFFF" points="338.999,294.08 341.863,348.504 347.274,348.504 			"/>
		</g>
		<g>
			<polygon fill="#FFFFFF" points="378.782,288.988 367.325,348.504 372.735,348.504 			"/>
		</g>
		<g>
			<polygon fill="#FFFFFF" points="387.375,315.086 380.055,348.504 385.147,348.504 			"/>
		</g>
		<g>
			<polygon fill="#FFFFFF" points="398.197,331.318 394.377,348.504 396.924,348.504 			"/>
		</g>
		<g>
			<polygon fill="#FFFFFF" points="329.132,323.679 330.724,348.504 334.543,348.504 			"/>
		</g>
		<g>
			<path fill="#FFFFFF" d="M358.413,303.628h0.637c2.546,0,4.456-1.91,4.456-4.138c0,0,0,0,0-0.318v-15.913
				c0-2.546-1.91-4.456-4.137-4.456c0,0,0,0-0.318,0h-0.955v-7.32c0-0.636-0.318-0.954-0.955-0.954
				c-0.637,0-0.955,0.318-0.955,0.954v7.32h-0.636c-2.546,0-4.456,1.91-4.456,4.138c0,0,0,0,0,0.318v15.913
				c0,2.546,1.91,4.456,4.138,4.456c0,0,0,0,0.318,0h0.318v44.876h2.546V303.628z"/>
		</g>
	</g>
	<g>
		<rect x="460.896" y="237.746" fill="#FFFFFF" width="72.565" height="10.821"/>
	</g>
</g>
</svg>
