<?xml version="1.0" encoding="utf-8"?>
<!-- Generator: Adobe Illustrator 16.0.3, SVG Export Plug-In . SVG Version: 6.00 Build 0)  -->
<!DOCTYPE svg PUBLIC "-//W3C//DTD SVG 1.1//EN" "http://www.w3.org/Graphics/SVG/1.1/DTD/svg11.dtd" [
	<!ENTITY ns_extend "http://ns.adobe.com/Extensibility/1.0/">
	<!ENTITY ns_ai "http://ns.adobe.com/AdobeIllustrator/10.0/">
	<!ENTITY ns_graphs "http://ns.adobe.com/Graphs/1.0/">
	<!ENTITY ns_vars "http://ns.adobe.com/Variables/1.0/">
	<!ENTITY ns_imrep "http://ns.adobe.com/ImageReplacement/1.0/">
	<!ENTITY ns_sfw "http://ns.adobe.com/SaveForWeb/1.0/">
	<!ENTITY ns_custom "http://ns.adobe.com/GenericCustomNamespace/1.0/">
	<!ENTITY ns_adobe_xpath "http://ns.adobe.com/XPath/1.0/">
]>
<svg version="1.1" id="Layer_1" xmlns:x="&ns_extend;" xmlns:i="&ns_ai;" xmlns:graph="&ns_graphs;"
	 xmlns="http://www.w3.org/2000/svg" xmlns:xlink="http://www.w3.org/1999/xlink" x="0px" y="0px" width="320.054px"
	 height="320.054px" viewBox="266.804 81.027 320.054 320.054" enable-background="new 266.804 81.027 320.054 320.054"
	 xml:space="preserve">
<metadata>
	<sfw  xmlns="&ns_sfw;">
		<slices></slices>
		<sliceSourceBounds  width="320.054" height="320.054" x="266.304" y="99.42" bottomLeftOrigin="true"></sliceSourceBounds>
	</sfw>
</metadata>
<title>TARGET 1.3</title>
<g id="TARGETS">
	<g>
		<rect x="266.804" y="81.027" fill="#4C9F38" width="320.054" height="320.054"/>
	</g>
	<g>
		<g>
			<g>
				<path fill="#FFFFFF" d="M429.532,242.066h-5.739v-15.867h5.739V242.066z M429.532,212.357h-5.739v-15.868h5.739V212.357z
					 M429.532,182.647h-5.739V166.78h5.739V182.647z"/>
			</g>
			<g>
				<path fill="#FFFFFF" d="M429.532,153.275h-5.739v-15.867h5.739V153.275z M429.532,123.228h-5.739V107.36h5.739V123.228z"/>
			</g>
		</g>
		<g>
			<g>
				<path fill="#FFFFFF" d="M500.768,262.323c15.53,0,28.359-12.491,28.359-28.359c0-15.529-12.491-28.358-28.359-28.358
					c-15.53,0-28.359,12.491-28.359,28.358l0,0C472.408,249.493,485.237,262.323,500.768,262.323z"/>
			</g>
			<g>
				<path fill="#FFFFFF" d="M455.528,321.741c0-2.7,0.675-6.076,5.401-6.076c3.039,0,3.714,3.376,4.052,5.739v53.68h72.248v-53.68
					c0-2.026,0.676-5.739,4.052-5.739c4.727,0,5.401,3.376,5.401,6.076v53.343h21.944v-64.146c0-19.581-14.854-35.787-34.099-37.813
					c-0.675,0-1.35,0-2.025-0.338h-62.458c-0.675,0-1.351,0-2.025,0.338c-19.581,1.688-34.437,18.231-34.437,37.475v64.146h21.945
					V321.741z M513.935,309.25c2.025,0,4.051,2.025,5.401,3.376c1.351-1.688,3.376-3.038,5.402-3.376
					c3.714,0,6.414,3.038,6.414,6.752v0.338c0,1.688-0.675,3.714-2.025,5.064l0,0l-9.791,9.453l-9.453-9.453
					c-1.351-1.351-2.025-3.039-2.025-5.064C507.52,312.626,510.221,309.588,513.935,309.25L513.935,309.25z"/>
			</g>
		</g>
		<g>
			<g>
				<path fill="#FFFFFF" d="M326.899,223.835l15.868-15.867C335.339,210.668,329.6,216.407,326.899,223.835z"/>
			</g>
			<g>
				<path fill="#FFFFFF" d="M340.403,259.284l37.812-37.813c-1.013-1.688-2.025-3.714-3.376-5.401l-39.5,39.838
					C337.027,257.259,338.715,258.609,340.403,259.284z"/>
			</g>
			<g>
				<path fill="#FFFFFF" d="M353.232,262.323h0.675l27.346-27.346c0-0.338,0-0.676,0-1.014c0-2.363-0.337-4.389-1.013-6.752
					l-34.099,34.099C348.506,261.986,350.869,262.323,353.232,262.323z"/>
			</g>
			<g>
				<path fill="#FFFFFF" d="M379.228,244.767l-15.192,15.192C370.788,257.259,376.527,251.857,379.228,244.767z"/>
			</g>
			<g>
				<path fill="#FFFFFF" d="M360.322,206.617c-2.363-0.676-4.727-0.676-7.09-0.676h-0.675l-27.684,27.685c0,0.337,0,0.337,0,0.675
					c0,2.363,0.338,4.727,1.013,7.09L360.322,206.617z"/>
			</g>
			<g>
				<path fill="#FFFFFF" d="M331.288,252.195l39.838-39.838c-1.688-1.351-3.376-2.363-5.064-3.376l-38.15,37.812
					C328.924,248.819,329.937,250.506,331.288,252.195z"/>
			</g>
			<g>
				<path fill="#FFFFFF" d="M317.108,364.956l85.753-85.753c-1.688-1.013-3.713-2.025-5.402-3.039l-80.351,80.352V364.956z"/>
			</g>
			<g>
				<polygon fill="#FFFFFF" points="307.655,332.883 285.71,354.827 285.71,363.268 307.655,341.323 				"/>
			</g>
			<g>
				<path fill="#FFFFFF" d="M317.108,348.413l74.274-74.274c-1.688-0.338-3.376-0.675-5.064-1.013c-0.675,0-1.35,0-2.025,0l0,0
					l-66.847,66.847L317.108,348.413z"/>
			</g>
			<g>
				<polygon fill="#FFFFFF" points="307.655,374.408 307.655,365.631 298.202,375.084 306.98,375.084 				"/>
			</g>
			<g>
				<path fill="#FFFFFF" d="M307.655,321.741c0-2.363,0.675-6.076,5.402-6.076c1.013,0,2.026,0.337,2.701,1.013l43.889-43.89h-8.44
					l-65.496,65.496v8.44l21.944-21.944V321.741z"/>
			</g>
			<g>
				<path fill="#FFFFFF" d="M322.172,273.126c-0.675,0-1.351,0-2.026,0l-2.363,0.338l-31.397,31.397
					c-0.338,2.025-0.338,4.051-0.338,6.077v3.038l40.513-40.851H322.172z"/>
			</g>
			<g>
				<polygon fill="#FFFFFF" points="334.664,273.126 285.71,321.741 285.71,324.443 285.71,330.52 343.104,273.126 				"/>
			</g>
			<g>
				<polygon fill="#FFFFFF" points="307.655,357.866 307.655,349.088 285.71,371.032 285.71,375.084 290.437,375.084 				"/>
			</g>
			<g>
				<path fill="#FFFFFF" d="M411.639,286.631c-1.351-1.688-2.701-3.039-4.051-4.39l-90.479,90.479v2.363h6.415L411.639,286.631z"/>
			</g>
			<g>
				<polygon fill="#FFFFFF" points="420.417,367.656 412.989,375.084 420.417,375.084 				"/>
			</g>
			<g>
				<path fill="#FFFFFF" d="M389.019,325.793v-4.052c0-2.363,0.675-5.739,4.051-5.739c1.688,0,3.039,0.676,4.051,1.688
					l20.594-20.594c-0.675-2.026-1.688-4.052-2.701-5.739l-83.727,83.727h8.44L389.019,325.793z"/>
			</g>
			<g>
				<polygon fill="#FFFFFF" points="389.019,342.336 389.019,333.558 347.493,375.084 356.271,375.084 				"/>
			</g>
			<g>
				<path fill="#FFFFFF" d="M290.099,293.045l15.53-15.53C299.215,281.229,293.813,286.631,290.099,293.045z"/>
			</g>
			<g>
				<polygon fill="#FFFFFF" points="317.108,332.207 376.19,273.126 367.412,273.126 317.108,323.43 				"/>
			</g>
			<g>
				<polygon fill="#FFFFFF" points="389.019,375.084 389.019,366.644 380.579,375.084 				"/>
			</g>
			<g>
				<path fill="#FFFFFF" d="M398.472,332.883l21.944-21.944l0,0c0-2.701-0.337-5.064-0.675-7.766l-21.269,20.932V332.883z"/>
			</g>
			<g>
				<polygon fill="#FFFFFF" points="389.019,358.541 389.019,350.101 364.036,375.084 372.813,375.084 				"/>
			</g>
			<g>
				<polygon fill="#FFFFFF" points="398.472,365.631 420.417,343.687 420.417,335.246 398.472,357.191 				"/>
			</g>
			<g>
				<polygon fill="#FFFFFF" points="420.417,359.892 420.417,351.789 398.472,373.734 398.472,375.084 405.224,375.084 				"/>
			</g>
			<g>
				<polygon fill="#FFFFFF" points="420.417,324.443 420.417,320.392 420.417,318.703 398.472,340.648 398.472,349.426 
					420.417,327.481 				"/>
			</g>
			<g>
				<path fill="#FFFFFF" d="M296.176,213.707c0,2.363-2.026,4.727-4.389,4.727s-4.727-2.026-4.727-4.39s2.026-4.727,4.389-4.727l0,0
					C294.15,209.318,296.176,211.344,296.176,213.707z"/>
			</g>
			<g>
				<path fill="#FFFFFF" d="M300.903,238.015c0,2.363-2.026,4.389-4.389,4.389s-4.389-2.025-4.389-4.389s2.025-4.389,4.389-4.389
					S300.903,235.652,300.903,238.015L300.903,238.015z"/>
			</g>
			<g>
				<path fill="#FFFFFF" d="M292.125,254.558c0,1.688-1.351,3.038-3.039,3.038s-3.039-1.351-3.039-3.038
					c0-1.688,1.351-3.039,3.039-3.039C290.774,251.182,292.125,252.869,292.125,254.558L292.125,254.558z"/>
			</g>
			<g>
				<path fill="#FFFFFF" d="M319.809,234.977c0,1.688-1.351,3.038-3.039,3.038s-3.039-1.351-3.039-3.038
					c0-1.688,1.351-3.039,3.039-3.039S319.809,233.626,319.809,234.977L319.809,234.977z"/>
			</g>
			<g>
				<path fill="#FFFFFF" d="M305.967,226.198c0,1.013-1.013,2.025-2.025,2.025c-1.013,0-2.026-1.013-2.026-2.025
					s1.013-2.025,2.026-2.025C304.954,224.173,305.967,225.186,305.967,226.198z"/>
			</g>
			<g>
				<path fill="#FFFFFF" d="M307.993,245.443c0,1.013-1.013,2.025-2.026,2.025c-1.013,0-2.025-1.013-2.025-2.025
					c0-1.014,1.013-2.026,2.025-2.026C306.98,243.416,307.993,244.429,307.993,245.443L307.993,245.443z"/>
			</g>
			<g>
				<path fill="#FFFFFF" d="M320.822,253.882c0,1.014-0.675,2.026-2.026,2.026l0,0c-1.013,0-2.025-1.013-2.025-2.026
					c0-1.013,1.013-2.025,2.025-2.025C319.809,251.857,320.822,252.869,320.822,253.882z"/>
			</g>
			<g>
				<path fill="#FFFFFF" d="M320.822,215.733c0,1.013-1.013,2.025-2.026,2.025l0,0c-1.013,0-2.025-1.013-2.025-2.025
					s1.013-2.025,2.025-2.025l0,0C319.809,213.707,320.822,214.72,320.822,215.733L320.822,215.733z"/>
			</g>
			<g>
				<path fill="#FFFFFF" d="M404.211,229.237c0-2.363,2.025-4.389,4.389-4.389s4.389,2.025,4.389,4.389s-2.026,4.39-4.389,4.39l0,0
					C406.237,233.626,404.211,231.6,404.211,229.237z"/>
			</g>
			<g>
				<path fill="#FFFFFF" d="M388.681,231.938c0-1.688,1.351-3.038,3.039-3.038s3.039,1.351,3.039,3.038
					c0,1.688-1.351,3.039-3.039,3.039S388.681,233.626,388.681,231.938L388.681,231.938z"/>
			</g>
			<g>
				<path fill="#FFFFFF" d="M401.848,205.942c0-1.351,1.013-2.7,2.701-2.7l0,0c1.351,0,2.701,1.013,3.039,2.363
					c0.338,1.35-1.013,2.7-2.363,3.038c-0.337,0-0.337,0-0.675,0C402.861,208.643,401.848,207.292,401.848,205.942L401.848,205.942z
					"/>
			</g>
			<g>
				<path fill="#FFFFFF" d="M397.797,240.716c0-1.014,1.013-2.026,2.025-2.026l0,0c1.013,0,2.026,1.014,1.688,2.363
					c0,1.013-0.675,1.688-1.688,1.688C398.81,242.741,397.797,242.066,397.797,240.716L397.797,240.716z"/>
			</g>
			<g>
				<path fill="#FFFFFF" d="M397.797,219.447c0-1.013,1.013-2.026,2.025-2.026c1.013,0,2.026,1.014,2.026,2.026
					s-1.013,2.025-2.026,2.025C398.81,221.472,397.797,220.797,397.797,219.447L397.797,219.447z"/>
			</g>
			<g>
				<path fill="#FFFFFF" d="M388.006,216.407c0-1.013,1.013-2.025,2.026-2.025l0,0c1.013,0,2.026,1.013,2.026,2.025
					s-1.013,2.026-2.026,2.026l0,0C389.019,218.434,388.006,217.42,388.006,216.407L388.006,216.407z"/>
			</g>
			<g>
				<path fill="#FFFFFF" d="M390.369,246.792c0-1.013,1.013-2.025,2.026-2.025s2.026,1.013,2.026,2.025
					c0,1.014-1.013,2.026-2.026,2.026C391.044,248.819,390.369,248.143,390.369,246.792L390.369,246.792z"/>
			</g>
			<g>
				<path fill="#FFFFFF" d="M413.665,215.733c0-1.013,1.013-2.025,2.025-2.025c1.013,0,2.026,1.013,2.026,2.025
					s-1.013,2.025-2.026,2.025C414.677,217.758,413.665,216.745,413.665,215.733z"/>
			</g>
			<g>
				<path fill="#FFFFFF" d="M411.977,251.857c0-1.013,0.675-2.025,2.025-2.025l0,0c1.013,0,2.026,1.013,2.026,2.025
					s-1.013,2.025-2.026,2.025C412.651,253.882,411.977,252.869,411.977,251.857z"/>
			</g>
			<g>
				<path fill="#FFFFFF" d="M408.263,240.716c0-1.351,1.351-2.701,2.701-2.701c1.351,0,2.701,1.351,2.701,2.701
					c0,1.35-1.351,2.7-2.701,2.7C409.275,243.416,408.263,242.404,408.263,240.716L408.263,240.716z"/>
			</g>
		</g>
		<g>
			<g>
				<polygon fill="#FFFFFF" points="327.912,141.458 304.279,165.429 312.719,165.429 336.689,141.458 				"/>
			</g>
			<g>
				<polygon fill="#FFFFFF" points="344.455,141.458 320.484,165.429 329.262,165.429 352.895,141.458 				"/>
			</g>
			<g>
				<polygon fill="#FFFFFF" points="385.643,133.356 353.57,165.429 362.01,165.429 390.369,137.07 				"/>
			</g>
			<g>
				<polygon fill="#FFFFFF" points="360.997,141.458 337.027,165.429 345.467,165.429 369.438,141.458 				"/>
			</g>
			<g>
				<polygon fill="#FFFFFF" points="375.852,168.129 399.822,144.159 394.758,140.783 370.113,165.429 375.852,165.429 				"/>
			</g>
			<g>
				<path fill="#FFFFFF" d="M380.917,129.98l-2.701-2.025c-0.337-0.338-1.013-0.338-1.351-0.338
					c-0.675,0.338-1.013,0.675-1.013,1.688v5.739L380.917,129.98z"/>
			</g>
			<g>
				<path fill="#FFFFFF" d="M311.706,141.458l-16.542,16.543v6.077c0,0.675,0.337,1.013,1.013,1.351l23.97-23.971H311.706z"/>
			</g>
			<g>
				<path fill="#FFFFFF" d="M296.176,141.458c-0.675,0-1.013,0.676-1.013,1.351v7.09l8.44-8.44H296.176z"/>
			</g>
			<g>
				<path fill="#FFFFFF" d="M409.275,151.587L409.275,151.587l-5.064-3.714l-28.021,28.359v2.025c0,1.013,0.337,1.351,1.013,1.688
					c0.337,0,1.013,0,1.351-0.337l14.517-11.479l16.88-13.166c0.337-0.338,0.675-0.676,0.675-1.351
					C410.288,152.6,409.951,151.924,409.275,151.587z"/>
			</g>
		</g>
	</g>
</g>
</svg>
