<?xml version="1.0" encoding="utf-8"?>
<!-- Generator: Adobe Illustrator 16.0.3, SVG Export Plug-In . SVG Version: 6.00 Build 0)  -->
<!DOCTYPE svg PUBLIC "-//W3C//DTD SVG 1.1//EN" "http://www.w3.org/Graphics/SVG/1.1/DTD/svg11.dtd" [
	<!ENTITY ns_extend "http://ns.adobe.com/Extensibility/1.0/">
	<!ENTITY ns_ai "http://ns.adobe.com/AdobeIllustrator/10.0/">
	<!ENTITY ns_graphs "http://ns.adobe.com/Graphs/1.0/">
	<!ENTITY ns_vars "http://ns.adobe.com/Variables/1.0/">
	<!ENTITY ns_imrep "http://ns.adobe.com/ImageReplacement/1.0/">
	<!ENTITY ns_sfw "http://ns.adobe.com/SaveForWeb/1.0/">
	<!ENTITY ns_custom "http://ns.adobe.com/GenericCustomNamespace/1.0/">
	<!ENTITY ns_adobe_xpath "http://ns.adobe.com/XPath/1.0/">
]>
<svg version="1.1" id="Layer_1" xmlns:x="&ns_extend;" xmlns:i="&ns_ai;" xmlns:graph="&ns_graphs;"
	 xmlns="http://www.w3.org/2000/svg" xmlns:xlink="http://www.w3.org/1999/xlink" x="0px" y="0px" width="270.548px"
	 height="270.548px" viewBox="291.583 68.493 270.548 270.548" enable-background="new 291.583 68.493 270.548 270.548"
	 xml:space="preserve">
<metadata>
	<sfw  xmlns="&ns_sfw;">
		<slices></slices>
		<sliceSourceBounds  width="270.548" height="270.548" x="291.083" y="161.459" bottomLeftOrigin="true"></sliceSourceBounds>
	</sfw>
</metadata>
<title>TARGET 1 B copy 5</title>
<g id="TARGETS">
	<g>
		<rect x="291.583" y="68.493" fill="#C5192D" width="270.548" height="270.548"/>
	</g>
	<g>
		<g>
			<path fill="#FFFFFF" d="M519.894,160.388v-58.219h-99.886v58.219h1.713l4.852-9.132c0.855-1.713,2.854-2.854,4.852-2.854
				c0.855,0,1.712,0.285,2.568,0.571l0.57,0.285c2.568,1.427,3.71,4.566,2.283,7.135l-1.997,3.995H519.894L519.894,160.388z"/>
		</g>
		<g>
			<path fill="#FFFFFF" d="M527.028,93.322H412.303c-0.856,0-1.427,0.571-1.427,1.428v73.345c0,0.855,0.571,1.427,1.427,1.427h4.566
				l1.427-2.854h-4.566v-70.49h111.872v70.49h-94.464l-1.427,2.854h97.603c0.856,0,1.428-0.571,1.428-1.427V94.749
				C528.455,93.893,527.885,93.322,527.028,93.322z"/>
		</g>
		<g>
			<rect x="428.855" y="224.03" fill="#FFFFFF" width="99.886" height="11.701"/>
		</g>
		<g>
			<rect x="434.849" y="241.724" fill="#FFFFFF" width="8.275" height="73.059"/>
		</g>
		<g>
			<g>
				<rect x="477.656" y="241.724" fill="#FFFFFF" width="45.092" height="17.979"/>
			</g>
			<g>
				<rect x="477.656" y="263.413" fill="#FFFFFF" width="45.092" height="17.979"/>
			</g>
			<g>
				<rect x="477.656" y="285.103" fill="#FFFFFF" width="45.092" height="29.395"/>
			</g>
		</g>
		<g>
			<path fill="#FFFFFF" d="M352.371,151.826c0,8.847,7.135,15.981,15.696,15.981c8.847,0,15.982-7.135,15.982-15.696
				c0-5.707-3.14-11.13-8.276-13.983c0.571-0.856,0.856-1.713,0.856-2.854c-0.285-3.995-3.995-6.849-7.706-6.278
				c-3.995-0.57-7.705,2.283-7.991,6.278c0,0.856,0.286,1.713,0.571,2.283C355.796,140.125,352.371,145.833,352.371,151.826z"/>
		</g>
		<g>
			<path fill="#FFFFFF" d="M432.279,152.683l-0.57-0.285c-0.285,0-0.285,0-0.571,0c-0.285,0-0.855,0.285-0.855,0.57l-3.71,7.135
				l-3.425,6.278l-1.427,2.854l-3.71,7.705l-1.712,3.425H414.3c-2.283,0-4.281,1.142-5.137,3.139l-6.278,11.416l-3.139-10.274
				c0,0-3.71-9.417-11.701-11.415c-1.142-0.285-2.568-0.285-3.71-0.571h-5.137l-10.845,10.845l-10.845-10.845h-4.852
				c-1.142,0-2.283,0.286-3.424,0.571c-7.135,2.568-10.56,11.13-10.56,11.13l-12.842,41.096c0,0-2.283,7.42,4.281,9.418
				s8.276-5.422,8.276-5.422l10.274-34.247c0,0,0.571-2.568,2.568-1.998c1.998,0.571,1.142,3.425,1.142,3.425l-17.694,64.213h16.553
				v45.947c0.285,4.28,3.996,7.705,8.276,7.42c3.995-0.285,7.135-3.425,7.42-7.42V260.56h4.566v45.947c0,4.28,3.424,7.99,7.991,7.99
				s7.991-3.425,7.991-7.99l0,0V260.56h16.553l-17.694-64.213c0,0-0.856-2.854,1.142-3.425c1.998-0.57,2.568,1.998,2.568,1.998
				l3.425,11.415l0,0l1.998,6.279c0.856,3.139,4.281,4.852,7.42,3.995c1.427-0.285,2.568-1.427,3.425-2.568l0,0l0,0l0.285-0.285
				l11.416-21.119c2.568-0.856,4.566-3.425,4.281-5.993c0-2.283-1.142-4.281-2.854-5.422l6.279-11.986l1.427-2.854l3.425-6.278
				l3.14-5.993C433.136,153.824,432.851,152.968,432.279,152.683L432.279,152.683z"/>
		</g>
	</g>
</g>
</svg>
