<?xml version="1.0" encoding="utf-8"?>
<!-- Generator: Adobe Illustrator 16.0.3, SVG Export Plug-In . SVG Version: 6.00 Build 0)  -->
<!DOCTYPE svg PUBLIC "-//W3C//DTD SVG 1.1//EN" "http://www.w3.org/Graphics/SVG/1.1/DTD/svg11.dtd" [
	<!ENTITY ns_extend "http://ns.adobe.com/Extensibility/1.0/">
	<!ENTITY ns_ai "http://ns.adobe.com/AdobeIllustrator/10.0/">
	<!ENTITY ns_graphs "http://ns.adobe.com/Graphs/1.0/">
	<!ENTITY ns_vars "http://ns.adobe.com/Variables/1.0/">
	<!ENTITY ns_imrep "http://ns.adobe.com/ImageReplacement/1.0/">
	<!ENTITY ns_sfw "http://ns.adobe.com/SaveForWeb/1.0/">
	<!ENTITY ns_custom "http://ns.adobe.com/GenericCustomNamespace/1.0/">
	<!ENTITY ns_adobe_xpath "http://ns.adobe.com/XPath/1.0/">
]>
<svg version="1.1" id="Layer_1" xmlns:x="&ns_extend;" xmlns:i="&ns_ai;" xmlns:graph="&ns_graphs;"
	 xmlns="http://www.w3.org/2000/svg" xmlns:xlink="http://www.w3.org/1999/xlink" x="0px" y="0px" width="302.682px"
	 height="302.682px" viewBox="275.5 76.628 302.682 302.682" enable-background="new 275.5 76.628 302.682 302.682"
	 xml:space="preserve">
<metadata>
	<sfw  xmlns="&ns_sfw;">
		<slices></slices>
		<sliceSourceBounds  width="302.682" height="302.682" y="121.19" x="275" bottomLeftOrigin="true"></sliceSourceBounds>
	</sfw>
</metadata>
<title>TARGET 1 B copy 10</title>
<g id="TARGETS">
	<g>
		<rect x="275.5" y="76.628" fill="#0A97D9" width="302.682" height="302.682"/>
	</g>
	<g>
		<polygon fill="none" points="308.386,247.765 307.108,241.379 302,244.253 302.639,250.958 		"/>
	</g>
	<g>
		<polygon fill="none" points="306.789,240.102 305.832,233.716 301.361,236.271 302,242.976 		"/>
	</g>
	<g>
		<polygon fill="none" points="309.024,213.282 299.765,190.294 307.108,214.24 		"/>
	</g>
	<g>
		<polygon fill="none" points="306.151,214.878 298.488,189.336 303.596,216.475 		"/>
	</g>
	<g>
		<polygon fill="none" points="303.916,217.752 305.193,224.138 308.386,222.222 306.47,216.156 		"/>
	</g>
	<g>
		<g>
			<path d="M381.821,291.826c-1.277-0.319-2.235-0.639-3.512-0.958l-84.291-118.136l79.821,66.411l2.555-13.409l-82.375-53.002l0,0
				l81.737,5.747v-1.276l-82.375-5.747v0.319l0,0v116.538c0.319-0.318,0.958-0.638,1.277-0.638h0.319l0.958,0.319
				c1.277,0.638,3.193,1.596,5.428,2.234l-2.874-1.277l6.066-3.512l0.639,5.747l1.277,0.319l-0.638-7.024l8.94-5.108l1.277,7.663
				l-8.621,5.108l1.597,0.319l7.343-4.151l0.958,5.109h1.277l-1.277-6.066l8.94-5.109l1.916,7.024l-7.343,4.471
				c0.958,0,1.596,0,2.554,0l5.428-3.193l0.639,2.235l1.277-0.319l-0.639-2.555l7.982-4.789l1.597,4.47l1.277-0.639l-1.916-4.47
				l8.301-4.789l1.916,4.15c0.319-0.319,0.639-0.639,0.958-0.639l-2.235-3.831l7.024-3.831l3.512,5.747
				c-0.638-0.639-1.277-0.958-1.916-1.277l0,0l0,0c7.024,5.428,39.591,27.458,68.327,0.319l0.319-0.319l0,0v-63.857l-60.026,36.079
				L381.821,291.826z M355.959,263.729l-5.108,2.874l-3.832-6.066l4.79-2.874L355.959,263.729z M302.958,259.578l-0.639-6.705
				l5.747-3.512l1.277,6.386L302.958,259.578z M309.982,257.025v0.319c-1.596,2.234-2.554,5.108-2.874,7.981l-3.512,1.916
				l-0.319-6.386L309.982,257.025z M337.121,257.982l5.109-2.873l3.193,5.108l-5.747,3.193L337.121,257.982z M338.718,264.367
				l-2.235,1.277c0-2.234-0.639-4.47-1.597-6.386l0.958-0.639L338.718,264.367z M336.483,257.025l-2.874-5.429l4.789-2.873
				l3.193,5.428L336.483,257.025z M332.971,250.32l-2.874-5.428l4.15-2.555l3.193,5.108L332.971,250.32z M329.778,243.934
				l-2.874-5.428l3.832-2.235l3.193,5.428L329.778,243.934z M326.585,237.548l-2.874-5.428l3.193-1.916l3.193,5.108L326.585,237.548
				z M314.452,227.65l-3.193,1.916l-1.916-6.066l2.554-1.597L314.452,227.65z M313.175,221.264l2.874-1.596l2.874,5.428
				l-3.192,1.915L313.175,221.264z M309.982,229.885l-3.831,2.235l-1.277-6.386l3.193-1.916L309.982,229.885z M310.621,231.162
				l1.916,6.066l-4.47,2.554l-1.277-6.386L310.621,231.162z M311.579,230.524l3.193-1.916l2.235,5.747l-3.832,2.235L311.579,230.524
				z M315.729,227.969l3.192-1.915l2.874,5.428l-3.832,2.234L315.729,227.969z M322.753,232.44l2.874,5.428l-4.47,2.554
				l-2.235-5.747L322.753,232.44z M323.073,230.843l-2.874-5.428l2.874-1.597l3.193,5.428L323.073,230.843z M319.561,224.457
				l-2.874-5.428l2.235-1.277l3.193,5.108L319.561,224.457z M316.368,218.072l-2.874-5.428l1.597-0.958l3.193,5.108L316.368,218.072
				z M312.855,211.366l-10.217-20.115l12.133,19.157L312.855,211.366z M315.091,218.391l-2.555,1.597l-2.235-5.747l2.235-1.277
				L315.091,218.391z M311.579,220.626l-2.554,1.596l-1.916-6.066l1.916-1.277L311.579,220.626z M307.747,222.861l-3.193,1.916
				l-1.277-6.386l2.554-1.597L307.747,222.861z M303.596,225.415l-3.512,1.915l-0.639-6.704l2.874-1.597L303.596,225.415z
				 M303.916,226.373l1.277,6.386l-4.151,2.554l-0.639-6.705L303.916,226.373z M305.193,234.035l1.277,6.386l-5.108,2.874
				l-0.639-7.024L305.193,234.035z M306.789,241.698l1.277,6.386l-5.747,3.193l-0.639-6.705L306.789,241.698z M307.747,241.06
				l4.789-2.873l1.916,6.066l-5.108,3.192L307.747,241.06z M313.813,237.867l3.832-2.235l2.235,5.747l-4.47,2.555L313.813,237.867z
				 M320.199,242.656l2.235,5.747l-4.789,2.874l-1.597-6.066L320.199,242.656z M323.073,249.362l0.639,1.916
				c-0.639,0-1.277-0.319-1.916-0.319c-0.639,0-1.597,0-2.235,0.319L323.073,249.362z M323.711,247.765l-2.235-5.747l4.47-2.555
				l2.874,5.429L323.711,247.765z M329.139,245.849l2.874,5.109l-3.193,1.915c-0.958-0.639-2.235-0.958-3.512-1.277l-1.277-2.873
				L329.139,245.849z M332.332,252.235l2.874,5.428l-0.958,0.639c-0.958-1.915-2.554-3.512-4.47-4.789L332.332,252.235z
				 M336.483,266.922l2.874-1.597l3.193,6.386l-7.344,4.15l-0.958-2.234C335.525,271.711,336.483,269.477,336.483,266.922
				L336.483,266.922z M340.314,264.687l5.748-3.512l3.831,6.066l-6.386,3.512L340.314,264.687z M351.17,257.025l-4.79,2.554
				l-3.193-5.108l4.47-2.555L351.17,257.025z M347.019,250.958l-4.15,2.554l-3.193-5.428l3.831-2.235L347.019,250.958z
				 M342.549,244.892l-3.832,2.234l-3.193-5.108l3.512-2.235L342.549,244.892z M338.398,239.145l-3.512,1.915l-3.193-5.108
				l3.193-1.916L338.398,239.145z M334.248,233.077l-3.193,1.916l-3.192-5.108l2.874-1.597L334.248,233.077z M329.778,227.011
				l-2.554,1.597l-3.193-5.428l2.235-1.277L329.778,227.011z M325.627,220.945l-2.235,1.277l-3.193-5.108l1.916-1.277
				L325.627,220.945z M321.477,214.878l-1.916,0.958l-3.193-5.108l1.597-0.958L321.477,214.878z M317.006,209.131l-1.596,0.958
				l-14.368-22.988L317.006,209.131z M311.898,212.005l-1.916,1.277l-9.259-23.308L311.898,212.005z M308.705,213.602l-1.916,1.276
				l-7.343-23.946L308.705,213.602z M305.512,215.517l-2.235,1.597l-5.109-27.139L305.512,215.517z M302,217.752l-2.874,1.597
				l-2.235-29.374L302,217.752z M295.295,188.698l2.874,31.29l-2.874,1.596V188.698z M295.295,222.861l2.874-1.597l0.639,6.705
				l-3.193,1.916L295.295,222.861z M295.295,231.482l3.512-2.235l0.639,6.705l-4.151,2.555V231.482z M295.295,239.782l4.47-2.554
				l0.638,6.705l-5.108,2.873V239.782z M295.295,248.404l5.108-2.874l0.639,6.705l-5.747,3.193V248.404z M295.295,257.025
				l5.747-3.513l0.639,6.705l-6.386,3.831V257.025z M295.295,265.325l6.386-3.831l0.958,6.705l-7.024,3.831L295.295,265.325z
				 M295.295,273.627l7.024-4.15l0.639,7.023l-7.344,4.471L295.295,273.627z M296.572,288.633l-1.277-0.638l0,0v-5.748l7.982-4.47
				l0.638,6.705L296.572,288.633z M303.596,268.838l3.193-1.916c0,2.235,0.639,4.47,1.916,6.386l-4.47,2.554L303.596,268.838z
				 M305.193,283.844l-0.639-6.705l5.109-2.873c1.277,1.596,2.554,3.192,4.15,4.15v0.319L305.193,283.844z M310.301,255.109
				l-1.277-6.386l5.428-3.193l1.916,6.066L310.301,255.109z M316.368,286.399l-1.277-7.344h0.319
				c1.916,0.958,4.15,1.597,6.386,1.597c0.958,0,2.235,0,3.192-0.319l0.319,1.277L316.368,286.399z M325.627,272.989
				c-0.958,0.639-1.916,0.958-3.193,0.958v2.234h-1.277v-2.234c-1.277,0-2.235-0.319-3.512-0.958
				c-1.277-0.958-2.235-2.874-1.916-4.47h3.192c0,0.639,0.319,1.276,0.319,1.915c0.319,0.639,0.958,0.958,1.916,0.958v-4.789
				l-0.958-0.319c-1.277-0.319-2.235-0.958-3.193-1.916c-0.639-0.639-0.958-1.915-0.958-2.873c0-0.639,0-1.277,0.319-1.916
				c0.639-1.277,1.597-2.234,2.874-2.554c0.639,0,1.277-0.319,1.916-0.319v-1.597h1.277v1.597c0.958,0,2.235,0.319,2.874,0.957
				c1.597,0.958,2.555,2.555,2.235,4.151h-3.193c0-0.639,0-0.958-0.319-1.597s-0.958-0.958-1.597-0.958v4.47
				c1.277,0.319,2.554,0.958,3.832,1.597c0.958,0.958,1.597,2.235,1.597,3.513C328.181,270.753,327.224,272.35,325.627,272.989
				L325.627,272.989z M325.946,279.694c2.874-0.958,5.108-2.555,7.024-4.789l0.639,1.596l-7.024,4.471L325.946,279.694z
				 M328.82,288.952l-2.235-7.023l7.663-4.151l2.555,6.386L328.82,288.952z M338.079,283.525l-2.874-6.705l7.663-4.47l3.193,6.386
				L338.079,283.525z M347.019,278.097l-3.193-6.386l6.386-3.831l4.151,6.386L347.019,278.097z M351.489,267.561l5.108-2.874
				l4.151,5.747l-5.747,3.193L351.489,267.561z M355.64,274.585l5.747-3.193l4.151,5.747l-5.747,3.832L355.64,274.585z
				 M360.749,282.567l-0.639-0.957l6.066-3.513l4.151,5.747l-3.512,2.235C364.58,285.121,362.664,283.844,360.749,282.567z
				 M368.092,286.718l3.193-1.916l3.193,4.47C372.243,288.952,370.327,287.994,368.092,286.718L368.092,286.718z"/>
		</g>
		<g>
			<path d="M560.302,172.095L560.302,172.095l-82.376,5.747v-2.235h-21.711v-6.386h-27.14v-58.429h-5.108v58.429h-26.182v6.386
				h-21.711v4.789h21.711v18.519h-14.687l-5.747,40.868l48.851-29.374l0,0l50.127,29.374l-5.428-40.868h-14.687v-18.519h21.711
				v-1.597l81.418-5.747l0,0l-82.057,53.002l2.235,13.409l79.821-66.411L475.69,290.868c-1.276,0.319-2.554,0.639-3.831,0.958
				l15.964-41.188l-60.025-34.803v63.857l0,0h0.319l0.319,0.319c28.736,26.819,61.303,5.108,68.327-0.319l0,0l0,0l-0.958,0.639
				l2.874-4.789l6.705,3.831l-1.916,3.831l0.958,0.639l2.234-3.831l8.302,4.789l-1.916,4.47l0.958,0.319l1.597-4.15l8.302,4.789
				l-0.319,2.874l1.276,0.319l0.639-2.235l4.789,2.874h2.555l-7.024-4.151l2.235-7.024l8.939,5.109l-1.276,5.747h1.276l0.958-5.109
				l6.705,3.832l1.597-0.319l-8.302-4.789l1.597-7.344l8.94,5.108l-0.639,6.386l1.276-0.319l0.639-5.428l5.747,3.192l1.277-0.639
				l-6.705-3.831l0.319-7.024l7.982,4.471v5.428l0,0c0.319,0,0.319-0.319,0.639-0.319h0.319c0.958,0,1.597,0.639,1.597,1.596
				L560.302,172.095L560.302,172.095z M441.847,198.595h-29.693v-17.88h29.693V198.595z M531.565,231.801l2.874-5.428l3.192,1.915
				l-2.234,5.747L531.565,231.801z M535.078,234.993l-2.235,5.747l-4.47-2.554l2.873-5.428L535.078,234.993z M538.271,227.011
				l-3.192-1.915l2.873-5.428l2.555,1.596L538.271,227.011z M541.464,221.903l2.554,1.597l-1.915,6.066l-3.193-1.916
				L541.464,221.903z M538.909,228.927l3.193,1.916l-1.916,6.066l-3.831-2.235L538.909,228.927z M543.06,231.162l3.832,2.234
				l-1.277,6.386l-4.47-2.554L543.06,231.162z M543.379,230.204l1.916-6.066l3.192,1.916l-1.276,6.386L543.379,230.204z
				 M545.614,222.861l1.916-5.747l2.554,1.597l-1.276,6.386L545.614,222.861z M544.656,222.222l-2.554-1.596l2.234-5.748
				l2.235,1.277L544.656,222.222z M541.145,220.307l-2.555-1.597l2.874-5.428l2.234,1.277L541.145,220.307z M540.825,211.686
				l-1.597-0.958l12.133-19.157L540.825,211.686z M540.187,212.644l-2.874,5.428l-1.915-0.958l3.192-5.108L540.187,212.644z
				 M536.993,219.349l-2.873,5.428l-2.555-1.597l3.193-5.108L536.993,219.349z M533.481,225.735l-2.873,5.428l-3.193-1.916
				l3.193-5.428L533.481,225.735z M529.97,232.44l-2.874,5.428l-3.512-2.235l3.192-5.108L529.97,232.44z M526.776,238.825
				l-2.873,5.428l-4.151-2.555l3.193-5.428L526.776,238.825z M523.584,245.211l-2.874,5.428l-4.789-2.555l3.192-5.108
				L523.584,245.211z M520.391,251.596l-3.192,5.748l-5.109-3.193l3.193-5.428L520.391,251.596z M518.476,265.964l-3.193-1.916
				l2.874-5.428l1.276,0.639c-0.639,1.916-0.957,3.513-0.957,5.428c0,0.319-0.319,0.958-0.319,1.277H518.476z M516.56,258.62
				l-2.874,5.428l-5.747-3.192l3.193-5.108L516.56,258.62z M513.366,265.006l-3.192,6.386l-6.386-3.512l3.831-6.066L513.366,265.006
				z M514.324,265.645l3.831,2.235c0.32,1.597,0.958,3.512,1.916,5.108l-1.277,3.512l-7.662-4.47L514.324,265.645z M519.433,258.62
				l-1.277-0.639l2.874-5.428l2.555,1.277C521.987,255.109,520.391,257.025,519.433,258.62z M521.668,251.278l2.874-5.429
				l5.108,2.874l-0.958,2.235c-1.277,0.319-2.874,0.957-4.15,1.915L521.668,251.278z M524.86,244.892l2.874-5.429l4.47,2.555
				l-2.234,5.747L524.86,244.892z M530.608,249.681l1.915,0.958c-0.958,0-1.597,0-2.554,0.319L530.608,249.681z M530.927,248.404
				l2.235-5.747l4.47,2.555l-1.596,5.747l-0.958-0.319L530.927,248.404z M533.801,241.698l2.235-5.747l3.831,2.235l-1.916,6.066
				L533.801,241.698z M540.825,238.825l4.789,2.554l-1.277,6.386l-5.428-3.192L540.825,238.825z M545.295,249.681l5.747,3.512
				l-0.639,6.705l-6.386-3.831L545.295,249.681z M545.614,248.404l1.277-6.386l5.108,2.874l-0.639,6.704L545.614,248.404z
				 M546.892,241.06l1.277-6.386l4.47,2.555L552,243.934L546.892,241.06z M548.488,233.077l1.276-6.385l3.513,2.234l-0.639,6.705
				L548.488,233.077z M550.084,225.415l1.277-6.386l2.874,1.597l-0.639,6.704L550.084,225.415z M551.361,217.752l5.428-27.458
				l-2.554,29.055L551.361,217.752z M550.403,217.114l-2.554-1.277l7.662-25.542L550.403,217.114z M546.892,215.198l-1.916-1.276
				l9.26-22.989L546.892,215.198z M543.698,213.282l-1.915-1.277l11.494-22.03L543.698,213.282z M552.319,187.42l-14.368,22.988
				l-1.596-0.958L552.319,187.42z M536.036,210.408l1.596,0.958l-3.192,5.108l-1.916-0.958L536.036,210.408z M531.565,216.156
				l1.916,0.958l-3.193,5.108l-2.234-1.277L531.565,216.156z M527.415,222.222l2.235,1.277l-3.193,5.428l-2.554-1.597
				L527.415,222.222z M522.945,228.288l2.873,1.597l-3.192,5.108l-3.193-1.916L522.945,228.288z M518.794,234.355l3.193,1.916
				l-3.193,5.108l-3.512-1.916L518.794,234.355z M514.644,240.421l3.512,1.916l-3.192,5.108l-3.831-2.234L514.644,240.421z
				 M510.174,246.168l3.831,2.235l-3.192,5.428l-4.151-2.555L510.174,246.168z M506.022,252.235l4.471,2.555l-3.193,5.108
				l-4.789-2.554L506.022,252.235z M501.872,258.301l4.789,2.874l-3.831,6.066l-5.108-2.874L501.872,258.301z M479.522,289.272
				l2.873-4.15l2.555,1.597C483.354,287.676,481.438,288.633,479.522,289.272z M493.252,282.247
				c-2.235,1.597-4.471,2.874-7.024,4.151l-3.193-1.916l4.151-5.747L493.252,282.247L493.252,282.247z M493.89,280.971l-6.066-3.193
				l4.151-5.747l5.747,3.193L493.89,280.971z M498.36,273.947l-5.747-3.193l4.15-5.747l5.108,2.874L498.36,273.947z
				 M506.343,278.736l-7.024-4.15l3.831-6.066l6.386,3.831L506.343,278.736z M515.602,283.844l-8.302-4.789l3.193-6.386l7.663,4.47
				L515.602,283.844z M524.542,289.272l-7.982-4.789l2.554-6.705l7.663,4.47L524.542,289.272z M527.096,281.29l-7.344-4.151
				l1.277-2.873c1.597,2.234,4.15,4.15,7.024,5.108L527.096,281.29z M536.993,287.037l-8.939-5.108l0.639-2.235
				c1.277,0.319,2.554,0.639,3.831,0.639c1.597,0,3.513-0.319,5.108-0.958l0.639,0.319L536.993,287.037z M536.675,272.669
				c-0.958,0.639-1.916,0.958-3.193,0.958v2.234h-1.277v-2.234c-1.277,0-2.234-0.319-3.512-0.958
				c-1.277-0.958-2.235-2.874-1.916-4.47h3.193c0,0.639,0.318,1.277,0.318,1.915c0.32,0.639,0.958,0.958,1.916,0.958v-5.108
				l-0.958-0.319c-1.276-0.319-2.234-0.958-3.192-1.916c-0.639-0.957-0.958-1.915-0.958-2.873c0-0.639,0-1.277,0.319-1.916
				s0.639-0.958,0.958-1.596c0.639-0.639,1.277-0.958,1.915-1.277c0.639,0,1.277-0.319,1.916-0.319v-1.597h1.277v1.597
				c0.958,0,2.235,0.319,2.873,0.958c1.277,0.958,2.235,2.554,1.916,4.15h-3.192c0-0.639,0-0.958-0.319-1.597
				s-0.958-0.958-1.597-0.958v4.471c1.277,0.319,2.555,0.958,3.831,1.596c0.958,0.958,1.597,2.235,1.597,3.513
				C538.909,270.115,538.271,271.711,536.675,272.669z M537.313,251.596l1.597-5.747l5.428,3.193l-0.958,5.747
				C541.464,253.193,539.548,252.235,537.313,251.596z M548.488,284.163l-8.94-5.108v-0.639c1.916-0.958,3.512-2.235,4.789-3.512
				l4.789,2.873L548.488,284.163z M549.126,275.862l-4.15-2.554c1.277-1.916,1.916-3.831,2.235-6.066l2.554,1.597L549.126,275.862z
				 M549.765,267.561l-2.554-1.597c0-0.319,0-0.639,0-0.958c0-2.554-0.639-5.108-1.916-7.024l5.108,2.874L549.765,267.561z
				 M558.066,280.971l-7.663-4.471l0.639-7.023l7.024,4.15V280.971z M558.066,272.35l-7.024-4.15l0.639-6.705l6.386,3.831V272.35z
				 M558.066,264.048l-6.386-3.831l0.639-6.705l5.747,3.513V264.048z M558.066,255.747l-5.747-3.193l0.639-6.705l5.108,2.874
				V255.747z M558.066,247.446l-5.108-2.873l0.639-6.705l4.47,2.554V247.446z M558.066,238.825l-4.15-2.555l0.639-6.705l3.512,2.235
				V238.825z M558.066,230.204l-3.512-1.916l0.638-6.705l2.874,1.597V230.204z M558.066,221.903l-2.874-1.596l2.874-31.29V221.903z"
				/>
		</g>
		<g>
			<path d="M530.288,260.856c0,0.639,0.32,1.277,0.639,1.597c0.319,0.319,0.958,0.319,1.277,0.639v-4.151
				c-0.639,0-0.958,0.319-1.596,0.639C530.608,259.898,530.288,260.217,530.288,260.856z"/>
		</g>
		<g>
			<path d="M533.481,266.603v4.47c0.319,0,0.958,0,1.277-0.319c0.639-0.319,0.958-1.276,0.639-1.915
				c0-0.639-0.319-1.277-0.639-1.597S534.12,266.603,533.481,266.603z"/>
		</g>
		<g>
			<path d="M322.753,266.922v4.47c0.319,0,0.958-0.319,1.277-0.319c0.639-0.319,0.639-1.277,0.639-1.915
				c0-0.639-0.319-1.277-0.639-1.597S323.392,267.241,322.753,266.922z"/>
		</g>
		<g>
			<path d="M319.561,261.175c0,0.639,0.319,1.277,0.639,1.597s0.639,0.319,1.277,0.639v-4.151c-0.639,0-0.958,0.319-1.597,0.639
				C319.88,260.217,319.561,260.856,319.561,261.175z"/>
		</g>
	</g>
	<g>
		<g>
			<path fill="#FFFFFF" d="M558.386,328.544h-0.319l-0.639,0.319c-8.302,4.15-34.482,14.367-58.109-8.302
				c-0.319-0.319-0.958-0.639-1.277-0.958c-0.639,0-0.958,0.319-1.277,0.639c-7.024,5.428-39.591,27.458-68.327,0.319l-0.319-0.319
				c-0.319-0.319-0.639-0.639-1.276-0.639c-0.319,0-0.958,0.319-0.958,0.639l-0.639,0.319c-28.736,27.139-61.303,5.108-68.327-0.319
				c-0.319-0.319-0.639-0.639-1.277-0.639c-0.638,0-0.958,0.319-1.277,0.639c-23.627,22.669-49.809,12.452-58.11,8.302l-0.958-0.319
				h-0.958c-0.958,0-1.596,0.639-1.596,1.596l0,0v11.494c0,0.319,0.319,0.958,0.319,1.277c27.458,23.946,53.32,1.597,59.387-4.47
				c0.319-0.319,0.319-0.319,0.639-0.639c0.319,0,0.319-0.319,0.639-0.319s0.958,0.319,1.277,0.639
				c30.97,29.693,63.538,5.747,70.243,0l0.639-0.639c0.319,0,0.319-0.319,0.639-0.319s0.319,0,0.638,0.319l0.639,0.639
				c6.705,5.747,39.272,29.693,70.243,0l0,0c0.319-0.319,0.639-0.319,0.958-0.319s0.639,0,0.958,0.319
				c0.319,0,0.319,0.319,0.319,0.319c6.066,6.066,31.928,28.416,59.387,4.47c0.319-0.319,0.319-0.639,0.639-1.277v-11.494
				C560.302,329.501,559.663,328.544,558.386,328.544C558.705,328.544,558.705,328.544,558.386,328.544"/>
		</g>
		<g>
			<path fill="#FFFFFF" d="M558.386,287.357h-0.319l-0.639,0.319c-8.302,4.15-34.482,14.367-58.109-8.302
				c-0.319-0.319-0.958-0.958-1.277-0.639c-0.639,0-0.958,0.319-1.277,0.639c-7.024,5.428-39.591,27.458-68.327,0.319l-0.639-0.319
				c-0.319-0.319-0.639-0.639-1.276-0.639c-0.319,0-0.958,0.319-0.958,0.639l-0.639,0.319c-28.736,27.139-61.303,5.108-68.327-0.319
				c-0.319-0.319-0.639-0.639-1.277-0.639c-0.638,0-0.958,0.319-1.277,0.639c-23.627,22.35-49.809,12.452-58.11,8.302l-1.277-0.319
				h-0.319c-0.958,0-1.596,0.638-1.596,1.596l0,0v11.494c0,0.319,0.319,0.958,0.319,1.277c27.458,23.946,53.32,1.597,59.387-4.47
				c0.319-0.319,0.319-0.319,0.639-0.639s0.319-0.319,0.639-0.319s0.958,0.319,1.277,0.639c30.97,29.693,63.538,5.747,70.243,0
				l0.639-0.639c0.319,0,0.319-0.319,0.639-0.319s0.319,0,0.638,0.319l0.639,0.639c6.705,5.747,39.272,29.693,69.924,0l0,0
				c0.319-0.319,0.639-0.319,0.958-0.639c0.319,0,0.639,0,0.958,0.319c0.319,0,0.319,0.319,0.319,0.319
				c6.066,6.066,31.928,28.416,59.387,4.47c0.319-0.319,0.639-0.639,0.639-1.277v-11.494
				C559.982,287.994,559.344,287.357,558.386,287.357L558.386,287.357"/>
		</g>
	</g>
</g>
</svg>
