<?xml version="1.0" encoding="utf-8"?>
<!-- Generator: Adobe Illustrator 16.0.3, SVG Export Plug-In . SVG Version: 6.00 Build 0)  -->
<!DOCTYPE svg PUBLIC "-//W3C//DTD SVG 1.1//EN" "http://www.w3.org/Graphics/SVG/1.1/DTD/svg11.dtd" [
	<!ENTITY ns_extend "http://ns.adobe.com/Extensibility/1.0/">
	<!ENTITY ns_ai "http://ns.adobe.com/AdobeIllustrator/10.0/">
	<!ENTITY ns_graphs "http://ns.adobe.com/Graphs/1.0/">
	<!ENTITY ns_vars "http://ns.adobe.com/Variables/1.0/">
	<!ENTITY ns_imrep "http://ns.adobe.com/ImageReplacement/1.0/">
	<!ENTITY ns_sfw "http://ns.adobe.com/SaveForWeb/1.0/">
	<!ENTITY ns_custom "http://ns.adobe.com/GenericCustomNamespace/1.0/">
	<!ENTITY ns_adobe_xpath "http://ns.adobe.com/XPath/1.0/">
]>
<svg version="1.1" id="Layer_1" xmlns:x="&ns_extend;" xmlns:i="&ns_ai;" xmlns:graph="&ns_graphs;"
	 xmlns="http://www.w3.org/2000/svg" xmlns:xlink="http://www.w3.org/1999/xlink" x="0px" y="0px" width="270.702px"
	 height="270.702px" viewBox="291.506 68.532 270.702 270.702" enable-background="new 291.506 68.532 270.702 270.702"
	 xml:space="preserve">
<metadata>
	<sfw  xmlns="&ns_sfw;">
		<slices></slices>
		<sliceSourceBounds  width="270.702" height="270.702" x="291.006" y="161.266" bottomLeftOrigin="true"></sliceSourceBounds>
	</sfw>
</metadata>
<title>TARGET 1.3</title>
<g id="TARGETS">
	<g>
		<rect x="291.506" y="68.532" fill="#DDA63A" width="270.702" height="270.702"/>
	</g>
	<g>
		<g>
			<g>
				<path fill="#FFFFFF" d="M339.479,158.196c0,0-6.567,7.139-6.567,12.278c0,4.283,5.14,7.139,6.567,7.995
					c0,0,6.854-3.426,6.854-7.995C346.046,165.048,339.479,158.196,339.479,158.196z"/>
			</g>
			<g>
				<path fill="#FFFFFF" d="M324.63,171.045c0,0-1.142,11.707,3.998,15.42c0,0,1.713,2.284,9.709,3.427c0,0,0.856-7.71-1.999-10.852
					C336.052,179.04,334.624,176.756,324.63,171.045z"/>
			</g>
			<g>
				<path fill="#FFFFFF" d="M323.488,185.609c0,0-1.142,12.85,4.283,16.847c0,0,1.713,2.285,10.28,3.713
					c0,0,0.857-8.281-2.284-11.708C335.767,194.46,334.339,191.89,323.488,185.609z"/>
			</g>
			<g>
				<path fill="#FFFFFF" d="M323.773,202.455c0,0-1.713,13.992,3.712,17.704c0,0,2.285,2.57,10.851,3.998
					c0,0,1.428-8.566-1.713-11.993C336.337,212.164,334.339,208.738,323.773,202.455z"/>
			</g>
			<g>
				<path fill="#FFFFFF" d="M321.774,219.303c0,0-0.856,14.277,4.569,18.275c0,0,2.855,2.855,11.422,3.998
					c0,0,1.143-9.424-1.999-12.85C335.767,229.012,332.911,225.014,321.774,219.303z"/>
			</g>
			<g>
				<path fill="#FFFFFF" d="M354.327,171.045c0,0,1.142,11.707-3.998,15.42c0,0-1.713,2.284-9.709,3.427
					c0,0-0.856-7.71,1.999-10.852C342.905,179.04,344.333,176.756,354.327,171.045z"/>
			</g>
			<g>
				<path fill="#FFFFFF" d="M355.184,185.609c0,0,1.142,12.85-4.284,16.847c0,0-1.713,2.285-10.28,3.713
					c0,0-0.856-8.281,2.285-11.708C342.905,194.46,344.619,191.89,355.184,185.609z"/>
			</g>
			<g>
				<path fill="#FFFFFF" d="M355.184,202.455c0,0,1.713,13.992-3.712,17.704c0,0-2.284,2.57-10.851,3.998
					c0,0-1.428-8.566,1.999-11.993C342.62,212.164,344.333,208.738,355.184,202.455z"/>
			</g>
			<g>
				<path fill="#FFFFFF" d="M356.897,219.303c0,0,0.856,14.277-4.569,18.275c0,0-2.856,2.855-11.422,3.998
					c0,0-1.142-9.424,1.999-12.85C342.905,229.012,345.761,225.014,356.897,219.303z"/>
			</g>
			<g>
				<rect x="337.479" y="243.861" fill="#FFFFFF" width="3.712" height="32.268"/>
			</g>
			<g>
				<path fill="#FFFFFF" d="M327.2,143.632c0-0.571-0.571-1.143-1.142-1.143c-0.571,0-1.142,0.571-1.142,1.143v25.129l2.57,1.428
					L327.2,143.632z"/>
			</g>
			<g>
				<path fill="#FFFFFF" d="M332.34,139.634c0-0.57-0.571-1.142-1.142-1.142c-0.571,0-1.142,0.571-1.142,1.142v29.697
					c0.571-2.284,1.428-4.283,2.57-6.281L332.34,139.634z"/>
			</g>
			<g>
				<path fill="#FFFFFF" d="M337.765,133.353c0-0.571-0.571-1.143-1.142-1.143s-1.142,0.571-1.142,1.143v25.984l2.57-3.427
					L337.765,133.353z"/>
			</g>
			<g>
				<path fill="#FFFFFF" d="M351.472,143.632c0-0.571,0.571-1.143,1.142-1.143c0.571,0,1.143,0.571,1.143,1.143l0,0v25.129
					l-2.57,1.428v-26.557H351.472z"/>
			</g>
			<g>
				<path fill="#FFFFFF" d="M346.332,139.634c0-0.57,0.571-1.142,1.142-1.142c0.571,0,1.142,0.571,1.142,1.142v29.697
					c-0.571-2.284-1.428-4.283-2.57-6.281L346.332,139.634z"/>
			</g>
			<g>
				<path fill="#FFFFFF" d="M341.192,133.353c0-0.571,0.571-1.143,1.142-1.143c0.571,0,1.143,0.571,1.143,1.143v25.984l-2.57-3.427
					L341.192,133.353z"/>
			</g>
		</g>
		<g>
			<g>
				<path fill="#FFFFFF" d="M378.599,158.196c0,0-6.568,7.139-6.568,12.278c0,4.283,5.14,7.139,6.568,7.995
					c0,0,6.853-3.426,6.853-7.995C385.452,165.048,378.599,158.196,378.599,158.196z"/>
			</g>
			<g>
				<path fill="#FFFFFF" d="M363.75,171.045c0,0-1.142,11.707,3.998,15.42c0,0,1.713,2.284,9.709,3.427c0,0,0.856-7.71-1.999-10.852
					C375.172,179.04,373.745,176.756,363.75,171.045z"/>
			</g>
			<g>
				<path fill="#FFFFFF" d="M362.608,185.609c0,0-1.143,12.85,4.283,16.847c0,0,1.713,2.285,10.28,3.713
					c0,0,0.856-8.281-2.285-11.708C374.887,194.46,373.459,191.89,362.608,185.609z"/>
			</g>
			<g>
				<path fill="#FFFFFF" d="M362.894,202.455c0,0-1.713,13.992,3.712,17.704c0,0,2.284,2.57,10.851,3.998
					c0,0,1.428-8.566-1.999-11.993C375.458,212.164,373.459,208.738,362.894,202.455z"/>
			</g>
			<g>
				<path fill="#FFFFFF" d="M360.895,219.303c0,0-0.857,14.277,4.569,18.275c0,0,2.855,2.855,11.422,3.998
					c0,0,1.142-9.424-1.999-12.85C374.887,229.012,372.031,225.014,360.895,219.303z"/>
			</g>
			<g>
				<path fill="#FFFFFF" d="M393.448,171.045c0,0,1.142,11.707-3.998,15.42c0,0-1.713,2.284-9.709,3.427
					c0,0-0.856-7.71,1.999-10.852C382.026,179.04,383.454,176.756,393.448,171.045z"/>
			</g>
			<g>
				<path fill="#FFFFFF" d="M394.59,185.609c0,0,1.143,12.85-4.283,16.847c0,0-1.713,2.285-10.28,3.713
					c0,0-0.856-8.281,2.285-11.708C382.026,194.46,383.739,191.89,394.59,185.609z"/>
			</g>
			<g>
				<path fill="#FFFFFF" d="M394.304,202.455c0,0,1.999,13.992-3.712,17.704c0,0-2.285,2.57-10.851,3.998
					c0,0-1.428-8.566,1.999-11.993C381.74,212.164,383.454,208.738,394.304,202.455z"/>
			</g>
			<g>
				<path fill="#FFFFFF" d="M396.018,219.303c0,0,0.857,14.277-4.569,18.275c0,0-2.855,2.855-11.422,3.998
					c0,0-1.142-9.424,1.999-12.85C382.026,229.012,384.881,225.014,396.018,219.303z"/>
			</g>
			<g>
				<rect x="376.6" y="243.861" fill="#FFFFFF" width="3.712" height="32.268"/>
			</g>
			<g>
				<path fill="#FFFFFF" d="M366.32,143.632c0-0.571-0.571-1.143-1.142-1.143s-1.142,0.571-1.142,1.143v25.129l2.57,1.428
					L366.32,143.632z"/>
			</g>
			<g>
				<path fill="#FFFFFF" d="M371.746,139.634c0-0.57-0.571-1.142-1.143-1.142c-0.571,0-1.142,0.571-1.142,1.142v29.697
					c0.571-2.284,1.428-4.283,2.57-6.281L371.746,139.634z"/>
			</g>
			<g>
				<path fill="#FFFFFF" d="M376.886,133.353c0-0.571-0.571-1.143-1.142-1.143c-0.571,0-1.142,0.571-1.142,1.143v25.984l2.57-3.427
					L376.886,133.353z"/>
			</g>
			<g>
				<path fill="#FFFFFF" d="M390.592,143.632c0-0.571,0.571-1.143,1.142-1.143s1.142,0.571,1.142,1.143l0,0v25.129l-2.284,1.428
					V143.632z"/>
			</g>
			<g>
				<path fill="#FFFFFF" d="M385.452,139.634c0-0.57,0.571-1.142,1.143-1.142c0.571,0,1.142,0.571,1.142,1.142v29.697
					c-0.571-2.284-1.428-4.283-2.57-6.281L385.452,139.634z"/>
			</g>
			<g>
				<path fill="#FFFFFF" d="M380.313,133.353c0-0.571,0.571-1.143,1.142-1.143s1.142,0.571,1.142,1.143v25.984l-2.57-3.427
					L380.313,133.353z"/>
			</g>
		</g>
		<g>
			<g>
				<path fill="#FFFFFF" d="M417.72,158.196c0,0-6.568,7.139-6.568,12.278c0,4.283,5.14,7.139,6.568,7.995
					c0,0,6.854-3.426,6.854-7.995C424.573,165.048,417.72,158.196,417.72,158.196z"/>
			</g>
			<g>
				<path fill="#FFFFFF" d="M402.871,171.045c0,0-1.143,11.707,3.998,15.42c0,0,1.713,2.284,9.708,3.427
					c0,0,0.857-7.71-1.999-10.852C414.293,179.04,412.865,176.756,402.871,171.045z"/>
			</g>
			<g>
				<path fill="#FFFFFF" d="M401.729,185.609c0,0-1.142,12.85,4.284,16.847c0,0,1.713,2.285,10.28,3.713
					c0,0,0.856-8.281-2.285-11.708C414.007,194.46,412.58,191.89,401.729,185.609z"/>
			</g>
			<g>
				<path fill="#FFFFFF" d="M402.014,202.455c0,0-1.999,13.992,3.712,17.704c0,0,2.284,2.57,10.851,3.998
					c0,0,1.428-8.566-1.999-11.993C414.579,212.164,412.865,208.738,402.014,202.455z"/>
			</g>
			<g>
				<path fill="#FFFFFF" d="M400.016,219.303c0,0-0.857,14.277,4.854,18.275c0,0,2.855,2.855,11.422,3.998
					c0,0,1.142-9.424-1.999-12.85C414.007,229.012,411.152,225.014,400.016,219.303z"/>
			</g>
			<g>
				<path fill="#FFFFFF" d="M432.568,171.045c0,0,1.142,11.707-3.998,15.42c0,0-1.713,2.284-9.708,3.427
					c0,0-0.857-7.71,1.999-10.852C421.146,179.04,422.574,176.756,432.568,171.045z"/>
			</g>
			<g>
				<path fill="#FFFFFF" d="M433.71,185.609c0,0,1.143,12.85-4.283,16.847c0,0-1.713,2.285-10.279,3.713
					c0,0-0.857-8.281,2.284-11.708C421.146,194.46,422.859,191.89,433.71,185.609z"/>
			</g>
			<g>
				<path fill="#FFFFFF" d="M433.425,202.455c0,0,1.999,13.992-3.712,17.704c0,0-2.284,2.57-10.851,3.998
					c0,0-1.428-8.566,1.999-11.993C420.861,212.164,422.574,208.738,433.425,202.455z"/>
			</g>
			<g>
				<path fill="#FFFFFF" d="M435.139,219.303c0,0,0.856,14.277-4.569,18.275c0,0-2.855,2.855-11.422,3.998
					c0,0-1.143-9.424,1.999-12.85C421.432,229.012,424.002,225.014,435.139,219.303z"/>
			</g>
			<g>
				<rect x="415.721" y="243.861" fill="#FFFFFF" width="3.712" height="32.268"/>
			</g>
			<g>
				<path fill="#FFFFFF" d="M405.441,143.632c0-0.571-0.571-1.143-1.142-1.143c-0.571,0-1.143,0.571-1.143,1.143v25.129l2.57,1.428
					L405.441,143.632z"/>
			</g>
			<g>
				<path fill="#FFFFFF" d="M410.581,139.634c0-0.57-0.571-1.142-1.143-1.142c-0.571,0-1.142,0.571-1.428,1.142v29.697
					c0.571-2.284,1.428-4.283,2.57-6.281V139.634z"/>
			</g>
			<g>
				<path fill="#FFFFFF" d="M416.006,133.353c0-0.571-0.571-1.143-1.142-1.143c-0.571,0-1.143,0.571-1.143,1.143l0,0v25.984
					l2.57-3.427v-22.558H416.006z"/>
			</g>
			<g>
				<path fill="#FFFFFF" d="M429.998,143.632c0-0.571,0.571-1.143,1.143-1.143s1.142,0.571,1.142,1.143l0,0v25.129l-2.569,1.428
					v-26.557H429.998z"/>
			</g>
			<g>
				<path fill="#FFFFFF" d="M424.573,139.634c0-0.57,0.57-1.142,1.142-1.142s1.143,0.571,1.143,1.142v29.697
					c-0.571-2.284-1.428-4.283-2.57-6.281L424.573,139.634z"/>
			</g>
			<g>
				<path fill="#FFFFFF" d="M419.433,133.353c0-0.571,0.571-1.143,1.428-1.143c0.571,0,1.142,0.571,1.142,1.143v25.984l-2.57-3.427
					V133.353z"/>
			</g>
		</g>
		<g>
			<path fill="#FFFFFF" d="M489.107,177.041l-9.709,30.555l11.137,33.98h-12.85l-7.425-24.272l-7.424,24.272h-11.708l10.852-34.552
				l-9.995-29.983h12.851l6.281,20.846l6.282-20.846H489.107z"/>
		</g>
		<g>
			<path fill="#FFFFFF" d="M497.674,227.299c0-7.71,2.57-12.564,9.709-20.274l7.424-7.71c4.283-4.569,4.854-6.854,4.854-13.421
				v-6.282c0-4.854-2.284-5.711-4.568-5.711c-2.285,0-5.141,1.428-5.141,5.996v9.709h-11.993v-9.423
				c0-10.852,5.712-16.848,17.134-16.848s16.848,5.14,16.848,16.276v7.425c0,7.709-1.428,12.278-8.281,19.417l-8.281,8.853
				c-3.427,3.426-5.426,5.711-5.426,11.993v3.712h21.417v10.565h-33.695V227.299z"/>
		</g>
	</g>
</g>
</svg>
