<?xml version="1.0" encoding="utf-8"?>
<!-- Generator: Adobe Illustrator 16.0.3, SVG Export Plug-In . SVG Version: 6.00 Build 0)  -->
<!DOCTYPE svg PUBLIC "-//W3C//DTD SVG 1.1//EN" "http://www.w3.org/Graphics/SVG/1.1/DTD/svg11.dtd" [
	<!ENTITY ns_extend "http://ns.adobe.com/Extensibility/1.0/">
	<!ENTITY ns_ai "http://ns.adobe.com/AdobeIllustrator/10.0/">
	<!ENTITY ns_graphs "http://ns.adobe.com/Graphs/1.0/">
	<!ENTITY ns_vars "http://ns.adobe.com/Variables/1.0/">
	<!ENTITY ns_imrep "http://ns.adobe.com/ImageReplacement/1.0/">
	<!ENTITY ns_sfw "http://ns.adobe.com/SaveForWeb/1.0/">
	<!ENTITY ns_custom "http://ns.adobe.com/GenericCustomNamespace/1.0/">
	<!ENTITY ns_adobe_xpath "http://ns.adobe.com/XPath/1.0/">
]>
<svg version="1.1" id="Layer_1" xmlns:x="&ns_extend;" xmlns:i="&ns_ai;" xmlns:graph="&ns_graphs;"
	 xmlns="http://www.w3.org/2000/svg" xmlns:xlink="http://www.w3.org/1999/xlink" x="0px" y="0px" width="271.167px"
	 height="271.167px" viewBox="291.273 68.65 271.167 271.167" enable-background="new 291.273 68.65 271.167 271.167"
	 xml:space="preserve">
<metadata>
	<sfw  xmlns="&ns_sfw;">
		<slices></slices>
		<sliceSourceBounds  width="271.167" height="271.167" y="160.684" x="290.773" bottomLeftOrigin="true"></sliceSourceBounds>
	</sfw>
</metadata>
<title>TARGET 1 B copy 5</title>
<g id="TARGETS">
	<g>
		<rect x="291.273" y="68.65" fill="#FF3A21" width="271.167" height="271.167"/>
	</g>
	<g>
		<g>
			<path fill="#FFFFFF" d="M472.338,130.149c6.864,0,12.3-5.435,12.3-12.3s-5.436-12.3-12.3-12.3c-6.865,0-12.3,5.435-12.3,12.3l0,0
				l0,0C460.324,124.714,465.759,130.149,472.338,130.149z"/>
		</g>
		<g>
			<path fill="#FFFFFF" d="M386.811,131.007c6.579,0,12.014-5.435,12.014-12.014s-5.435-12.014-12.014-12.014
				c-6.579,0-12.014,5.435-12.014,12.014l0,0C374.797,125.573,380.232,131.007,386.811,131.007L386.811,131.007z"/>
		</g>
		<g>
			<path fill="#FFFFFF" d="M354.774,186.213c5.149,1.43,6.579-4.291,6.579-4.291l8.009-27.174c0,0,0.572-2.002,2.002-1.716
				c1.43,0.285,1.144,2.574,1.144,2.574l-14.016,50.915h13.158v36.613c0.286,3.433,3.146,6.007,6.579,5.721l0,0
				c3.146,0,5.721-2.574,5.721-5.721v-36.613h3.433v36.613c0.286,3.433,3.146,6.007,6.579,5.721l0,0
				c3.146,0,5.721-2.574,5.721-5.721v-36.613h13.158l-12.585-45.767c-0.572-2.86,0-5.721,1.144-8.295l8.295-14.874l15.446-26.03
				l18.021,23.741l11.156,15.732c1.144,2.003,2.002,4.291,2.002,6.579v85.24c0,3.719,3.146,6.865,6.865,6.865
				c3.718,0,6.864-3.146,6.864-6.865v-50.343c0-1.145,0.572-2.003,1.717-2.003h0.286c1.144,0,2.002,0.572,2.002,1.717v50.343
				c0,3.719,3.146,6.579,6.865,6.579s6.579-3.146,6.579-6.579v-86.956c0-0.858,0.286-2.289,1.716-2.289
				c2.002,0,2.288,1.431,2.288,2.575v28.89c0.286,2.574,2.575,4.577,5.149,4.291c2.288-0.286,4.004-2.003,4.29-4.291V151.03
				c0-8.581-6.579-15.446-14.874-16.304H462.04c-3.433,0.285-6.865-1.431-8.867-4.005l-23.169-28.318
				c-1.145-1.43-2.289-2.574-3.719-3.433c-2.288-1.144-5.149-0.286-6.579,2.003v0.285l-20.881,32.609
				c-2.002,2.002-4.577,3.146-7.438,2.86h-18.592c-8.009,0-11.442,9.439-11.442,9.439l-10.011,32.608
				C351.628,178.776,349.912,184.782,354.774,186.213z"/>
		</g>
		<g>
			<path fill="#FFFFFF" d="M536.125,262.586H317.303c-0.858,0-1.43,0.571-1.716,1.43v10.298c0,0.857,0.858,1.716,1.716,1.716
				h219.108c0.857,0,1.716-0.572,1.716-1.716l0,0v-10.298C537.841,263.444,536.982,262.872,536.125,262.586z"/>
		</g>
		<g>
			<path fill="#FFFFFF" d="M425.427,281.179l-15.16,26.315c-0.572,0.857,0,2.002,0.858,2.288c0.286,0,0.286,0.286,0.572,0.286
				h30.607c0.857,0,1.716-0.572,1.716-1.431c0-0.286,0-0.857-0.286-1.144l-15.16-26.315c-0.572-0.858-1.716-1.145-2.574-0.572
				C425.999,280.893,425.713,281.179,425.427,281.179z"/>
		</g>
	</g>
</g>
</svg>
