<?xml version="1.0" encoding="utf-8"?>
<!-- Generator: Adobe Illustrator 16.0.3, SVG Export Plug-In . SVG Version: 6.00 Build 0)  -->
<!DOCTYPE svg PUBLIC "-//W3C//DTD SVG 1.1//EN" "http://www.w3.org/Graphics/SVG/1.1/DTD/svg11.dtd" [
	<!ENTITY ns_extend "http://ns.adobe.com/Extensibility/1.0/">
	<!ENTITY ns_ai "http://ns.adobe.com/AdobeIllustrator/10.0/">
	<!ENTITY ns_graphs "http://ns.adobe.com/Graphs/1.0/">
	<!ENTITY ns_vars "http://ns.adobe.com/Variables/1.0/">
	<!ENTITY ns_imrep "http://ns.adobe.com/ImageReplacement/1.0/">
	<!ENTITY ns_sfw "http://ns.adobe.com/SaveForWeb/1.0/">
	<!ENTITY ns_custom "http://ns.adobe.com/GenericCustomNamespace/1.0/">
	<!ENTITY ns_adobe_xpath "http://ns.adobe.com/XPath/1.0/">
]>
<svg version="1.1" id="Layer_1" xmlns:x="&ns_extend;" xmlns:i="&ns_ai;" xmlns:graph="&ns_graphs;"
	 xmlns="http://www.w3.org/2000/svg" xmlns:xlink="http://www.w3.org/1999/xlink" x="0px" y="0px" width="320.054px"
	 height="320.054px" viewBox="266.804 81.027 320.054 320.054" enable-background="new 266.804 81.027 320.054 320.054"
	 xml:space="preserve">
<metadata>
	<sfw  xmlns="&ns_sfw;">
		<slices></slices>
		<sliceSourceBounds  width="320.054" height="320.054" x="266.304" y="99.42" bottomLeftOrigin="true"></sliceSourceBounds>
	</sfw>
</metadata>
<title>TARGET 1.5</title>
<g id="TARGETS">
	<g>
		<rect x="266.804" y="81.027" fill="#4C9F38" width="320.054" height="320.054"/>
	</g>
	<g>
		<g opacity="0.5" enable-background="new    ">
			
				<rect x="305.341" y="266.941" transform="matrix(-0.6628 0.7488 -0.7488 -0.6628 758.2213 217.4255)" width="49.628" height="24.983"/>
		</g>
		<g>
			<g>
				<path d="M398.81,203.578l-2.025-1.688l-3.376-3.039l-20.256,22.958c-2.363,2.363-5.402,4.051-8.778,5.063
					c-5.402,1.014-7.428,1.014-10.128,1.688c-4.389,1.013-8.103,4.389-14.517,11.479l-51.654,58.069c0,0-2.363,2.025,0.337,5.739
					l22.62,19.919c3.713,2.363,5.739-0.338,5.739-0.338s44.902-50.642,51.316-58.068c6.415-7.428,9.116-11.142,9.791-15.868
					c0.337-2.701,0-4.727,0.337-10.466c0.338-3.376,1.688-6.414,4.051-9.115l20.257-22.958L398.81,203.578z M322.848,306.212
					l-18.906-16.543l33.085-37.137l18.569,16.542L322.848,306.212z"/>
			</g>
			<g>
				<g>
					<g>
						<g>
							<path d="M336.352,209.993h-20.594c0.337,5.739,5.064,10.128,10.803,9.79C331.625,219.109,336.014,215.057,336.352,209.993z"
								/>
						</g>
						<g>
							<path d="M325.886,198.852c-5.401,0-9.791,4.052-10.128,9.453h20.594C336.014,202.904,331.288,198.515,325.886,198.852z"/>
						</g>
					</g>
					<g>
						<g>
							<path d="M302.928,226.198l-9.453-18.23c-4.727,3.038-6.415,9.115-3.376,14.179
								C292.8,226.536,298.202,228.224,302.928,226.198z"/>
						</g>
						<g>
							<path d="M307.993,211.681c-2.363-4.727-8.103-6.752-13.167-4.727l9.453,18.231
								C309.005,222.485,310.693,216.745,307.993,211.681z"/>
						</g>
					</g>
					<g>
						<g>
							<path d="M324.536,229.574l-18.231,9.453c3.038,5.064,9.115,6.415,14.18,3.714
								C324.873,240.378,326.899,234.639,324.536,229.574z"/>
						</g>
						<g>
							<path d="M310.356,224.51c-4.727,2.363-6.752,8.104-4.727,13.167l18.231-9.453
								C321.159,223.835,315.083,222.147,310.356,224.51z"/>
						</g>
					</g>
				</g>
				<g>
					<g>
						
							<rect x="332.327" y="344.341" transform="matrix(-0.928 0.3727 -0.3727 -0.928 833.5973 540.3708)" width="64.486" height="12.83"/>
					</g>
					<g>
						
							<rect x="323.805" y="359.608" transform="matrix(-0.9281 0.3724 -0.3724 -0.9281 764.5382 584.3651)" width="4.051" height="12.829"/>
					</g>
					<g>
						
							<rect x="329.188" y="357.474" transform="matrix(-0.9281 0.3724 -0.3724 -0.9281 774.1224 578.2443)" width="4.051" height="12.829"/>
					</g>
				</g>
				<g>
					<g>
						
							<rect x="347.445" y="317.673" transform="matrix(-0.973 0.2307 -0.2307 -0.973 823.8973 551.8389)" width="64.482" height="12.829"/>
					</g>
					<g>
						
							<rect x="337.37" y="327.482" transform="matrix(-0.9729 0.2314 -0.2314 -0.9729 746.8443 580.1925)" width="4.051" height="12.829"/>
					</g>
					<g>
						
							<rect x="342.755" y="326.126" transform="matrix(-0.973 0.2309 -0.2309 -0.973 757.0273 576.4875)" width="4.052" height="12.829"/>
					</g>
				</g>
				<g>
					<g>
						<path d="M389.019,126.942l-3.376-3.377l7.09-7.427l4.052,4.051c0.337,0.338,1.013,0.338,1.35,0l0,0l0.675-0.675
							c0.338-0.338,0.338-1.013,0-1.351l-11.816-11.479c-0.337-0.338-1.013-0.338-1.351,0l0,0l-0.675,0.675
							c-0.338,0.338-0.338,1.013,0,1.351l0,0l4.051,4.052l-7.09,7.427l-3.376-3.038c-1.013-1.013-2.363-1.013-3.376,0l0,0
							l-39.838,40.513c-0.337,0.338-0.675,1.014-0.675,1.688s0.338,1.351,0.675,1.688l3.039,2.7l0,0l-3.039,3.039
							c-0.337,0.337-0.337,1.013,0,1.35l1.351,0.676l-8.103,8.103c0,0,0,0.338,0,0.675c0,0,0.337,0,0.675,0l0,0l8.103-8.103
							l1.35,1.351c0.338,0.338,1.013,0.338,1.351,0l0,0l3.039-3.038l0,0l3.039,2.7c1.013,1.014,2.363,1.014,3.376,0l0,0
							l39.838-40.513C390.032,129.305,390.032,127.954,389.019,126.942L389.019,126.942z M344.792,157.326l-3.376-3.376
							c-0.338-0.338,0-0.676,0.337-1.014c0.338-0.337,0.675-0.337,1.013,0l3.376,3.377c0.337,0.337,0.337,0.675,0,1.013l0,0
							C345.467,157.663,345.13,157.663,344.792,157.326z M350.194,151.924l-3.376-3.376c-0.338-0.338-0.338-0.675,0-1.013
							c0.337-0.338,0.675-0.338,1.013,0l3.376,3.376c0.338,0.338,0.338,0.676,0,1.013
							C350.869,152.262,350.531,152.262,350.194,151.924z M355.596,146.523l-3.376-3.376c-0.338-0.338,0-0.676,0.337-1.013
							c0.337-0.338,0.675-0.338,1.013,0l3.376,3.376c0.338,0.337,0,0.675-0.337,1.013
							C356.271,146.523,355.933,146.523,355.596,146.523z M360.997,140.783l-3.376-3.376c-0.337-0.338-0.337-0.676,0-1.013
							c0.338-0.338,0.675-0.338,1.013,0l0,0l3.376,3.376c0.337,0.337,0.337,0.675,0,1.013l0,0
							C362.01,141.12,361.335,141.458,360.997,140.783C360.997,141.12,360.997,141.12,360.997,140.783L360.997,140.783z
							 M366.737,135.381l-3.376-3.376c-0.337-0.337-0.337-0.675,0-1.013c0.338-0.338,0.675-0.338,1.013,0l3.376,3.376
							c0.337,0.338,0,0.676-0.337,1.013C367.074,135.381,366.737,135.381,366.737,135.381L366.737,135.381z M380.241,137.407
							c-1.688-1.688-10.128-10.129-12.154-11.816l8.103-8.103c0.337-0.338,0.337-0.338,0.675-0.338c0.337,0,0.675,0,0.675,0.338
							l10.466,10.466c0.338,0.337,0.338,1.013,0,1.688L380.241,137.407z"/>
					</g>
					<g>
						<path d="M327.236,178.933c0.338-0.675,2.026-2.363,1.351,0.338c0,0.675,0.337,1.351-0.338,1.688c-0.675,0-1.013,0-1.35-0.676
							C326.561,179.946,326.899,179.271,327.236,178.933z"/>
					</g>
				</g>
			</g>
		</g>
	</g>
	<g>
		<g>
			<path fill="#FFFFFF" d="M544.319,198.177c0-12.154-7.765-21.944-19.581-21.944c-5.739,0-12.829,6.414-16.881,10.466
				c-3.714-4.052-10.466-10.466-16.205-10.466c-11.816,0-19.919,9.79-19.919,21.944c0,5.739,2.363,11.479,6.077,15.53l30.047,30.385
				l30.048-30.385l0,0C542.294,209.656,544.657,203.916,544.319,198.177"/>
		</g>
		<g>
			<g>
				<g>
					<path fill="#FFFFFF" d="M429.532,382.849h-5.739v-15.867h5.739V382.849z M429.532,353.14h-5.739v-15.868h5.739V353.14z
						 M429.532,323.43h-5.739v-16.205h5.739V323.43z"/>
				</g>
				<g>
					<path fill="#FFFFFF" d="M429.532,293.72h-5.739v-15.867h5.739V293.72z M429.532,264.011h-5.739v-15.868h5.739V264.011z"/>
				</g>
			</g>
			<g>
				<g>
					<path fill="#FFFFFF" d="M429.532,234.639h-5.739v-15.868h5.739V234.639z M429.532,204.591h-5.739v-15.867h5.739V204.591z
						 M429.532,174.882h-5.739v-15.868h5.739V174.882z"/>
				</g>
				<g>
					<path fill="#FFFFFF" d="M429.532,145.51h-5.739v-15.868h5.739V145.51z M429.532,115.8h-5.739V99.933h5.739V115.8z"/>
				</g>
			</g>
		</g>
		<g>
			<path fill="#FFFFFF" d="M461.268,265.024c1.688,0.675,12.491,8.44,17.894,11.141c6.414,3.039,13.166,4.727,20.256,5.402
				c3.039,0,13.167-0.338,13.505-1.688c0.337-1.351-1.013-2.025-2.701-2.025c-1.688,0-10.466,1.351-15.53,1.013
				c-5.063-0.338-8.439-3.376-7.765-6.077c0.338-2.025,4.052-1.351,10.804-2.363s13.504-2.7,25.996-4.727
				c9.115-1.35,18.23,1.688,24.308,8.103c5.739,4.727,12.153,9.116,18.568,12.83v31.06c0,0-21.27-16.205-22.957-17.556
				c-4.052-3.376-9.116-5.401-14.518-6.414c-4.727-0.676-12.154,2.362-21.607,3.376c-9.453,1.013-11.479,0-20.256-5.064
				c-10.466-6.415-20.257-13.842-29.035-22.282c-2.025-2.025-4.389-4.389-3.038-6.077
				C456.541,261.986,459.242,264.349,461.268,265.024z"/>
		</g>
	</g>
</g>
</svg>
