<?xml version="1.0" encoding="utf-8"?>
<!-- Generator: Adobe Illustrator 16.0.3, SVG Export Plug-In . SVG Version: 6.00 Build 0)  -->
<!DOCTYPE svg PUBLIC "-//W3C//DTD SVG 1.1//EN" "http://www.w3.org/Graphics/SVG/1.1/DTD/svg11.dtd" [
	<!ENTITY ns_extend "http://ns.adobe.com/Extensibility/1.0/">
	<!ENTITY ns_ai "http://ns.adobe.com/AdobeIllustrator/10.0/">
	<!ENTITY ns_graphs "http://ns.adobe.com/Graphs/1.0/">
	<!ENTITY ns_vars "http://ns.adobe.com/Variables/1.0/">
	<!ENTITY ns_imrep "http://ns.adobe.com/ImageReplacement/1.0/">
	<!ENTITY ns_sfw "http://ns.adobe.com/SaveForWeb/1.0/">
	<!ENTITY ns_custom "http://ns.adobe.com/GenericCustomNamespace/1.0/">
	<!ENTITY ns_adobe_xpath "http://ns.adobe.com/XPath/1.0/">
]>
<svg version="1.1" id="Layer_1" xmlns:x="&ns_extend;" xmlns:i="&ns_ai;" xmlns:graph="&ns_graphs;"
	 xmlns="http://www.w3.org/2000/svg" xmlns:xlink="http://www.w3.org/1999/xlink" x="0px" y="0px" width="500px" height="500px"
	 viewBox="177 0 500 500" enable-background="new 177 0 500 500" xml:space="preserve">
<metadata>
	<sfw  xmlns="&ns_sfw;">
		<slices></slices>
		<sliceSourceBounds  width="500" height="500" y="0.5" x="176.5" bottomLeftOrigin="true"></sliceSourceBounds>
	</sfw>
</metadata>
<title>TARGET 1.2 copy</title>
<g id="TARGETS">
	<g>
		<rect x="177" y="0" fill="#19486A" width="500" height="500"/>
	</g>
	<g>
		<g>
			<g>
				<path fill="#FFFFFF" d="M549.363,237.869c-0.528-3.165-3.165-5.274-6.329-5.274c-3.165,0-5.802,0-8.967,0
					c-3.164,0-6.329-1.055-7.384-4.22c-1.582-5.802-3.165-11.604-5.802-17.405c-1.582-3.164-0.527-6.856,2.109-8.966
					c2.638-2.109,4.747-4.22,7.385-6.329c2.109-2.109,3.164-5.274,1.582-7.911c-3.692-6.856-8.439-13.186-13.713-18.987
					c-2.11-2.638-5.802-2.638-8.439-1.055l0,0c-2.637,1.582-4.746,3.164-7.384,5.273c-2.637,2.11-5.802,3.165-8.438,0.527
					c-5.274-3.691-11.076-8.438-14.769-10.548c-3.164-1.582-4.219-5.274-3.164-8.439c1.055-3.691,1.582-6.329,2.109-9.493
					c1.055-2.638-0.527-5.802-3.164-7.384c-6.856-3.165-14.241-5.274-22.152-6.856c-3.164-1.056-6.329,1.055-7.384,4.219l0,0
					c-1.055,3.165-2.109,5.274-3.164,8.439c-1.056,3.164-2.638,5.802-6.329,5.802c-7.385,0-13.187,0-17.933,0
					c-3.165,0.527-6.329-1.583-7.911-4.747c-1.055-3.165-2.637-5.802-3.692-8.967c-1.055-2.637-4.22-4.219-6.857-3.691
					c-7.384,1.582-14.768,4.219-21.625,7.384c-3.164,1.055-4.747,4.747-3.164,7.384l0,0c1.055,3.165,1.582,5.802,2.637,8.438
					c1.055,2.638,1.055,6.33-2.109,8.439s-10.549,7.384-14.768,10.549c-2.637,2.109-6.329,2.637-8.966,0.527
					c-3.165-2.11-5.274-3.165-8.439-5.274c-2.637-1.582-5.801-1.055-7.911,1.055c-5.274,5.802-9.494,12.131-13.186,18.987
					c-2.11,2.637-1.055,6.329,1.582,8.438h0.527c2.637,2.11,4.747,3.692,6.856,5.274c2.637,1.582,4.747,4.747,3.165,7.911
					c-1.582,3.165-4.219,13.714-5.274,17.405c-0.527,3.165-3.692,5.802-6.856,5.802c-3.692,0-6.329,0.527-10.021,0.527
					c-3.165,0-5.274,2.11-5.801,5.274c-1.055,7.911-1.055,15.295,0.527,23.207c0.527,3.164,3.165,5.274,6.329,5.274s5.802,0,8.966,0
					s6.329,1.055,7.384,4.219c1.583,5.802,3.692,11.604,5.802,17.405c1.582,3.165,0.527,7.384-2.637,9.493
					c-2.637,2.11-4.747,4.22-7.384,6.329c-2.637,2.11-3.165,5.274-1.583,7.912c3.692,6.856,8.439,13.186,13.713,18.46
					c2.109,2.637,5.801,2.637,8.438,1.055c2.637-1.583,4.747-3.165,7.384-5.274c2.637-2.109,5.801-3.165,8.438-0.527
					c2.637,2.637,11.076,8.438,14.768,10.549c3.165,1.582,4.219,5.273,3.165,8.438c-1.055,3.164-1.583,6.329-2.11,9.493
					c-1.055,2.638,0.527,5.802,3.165,7.385c6.857,3.164,14.241,5.273,22.152,6.856c3.165,1.055,6.329-1.055,7.384-4.22l0,0
					c1.055-3.164,2.109-5.274,3.165-8.438c1.055-3.165,2.637-5.802,6.329-5.802c6.856,0,12.131,0,18.46,0
					c3.164-0.527,6.329,1.582,7.911,4.747c1.055,3.164,2.638,5.801,3.692,8.966c1.055,2.637,4.219,4.22,6.856,3.692
					c7.384-1.583,14.768-4.22,21.624-7.385c3.165-1.055,4.747-4.746,3.692-7.384c-1.055-3.164-1.582-5.802-2.638-8.438
					c-1.055-2.638-1.055-6.329,2.11-8.439c3.164-2.109,11.604-8.438,14.768-10.548c2.638-2.11,6.329-2.638,8.967-0.527
					c3.164,2.109,5.273,3.691,8.438,5.274c2.637,1.582,5.802,1.055,7.911-1.056c5.274-5.802,9.494-12.131,13.186-18.987
					c1.583-2.637,1.055-6.329-1.582-8.438s-4.747-3.692-6.856-5.274s-4.747-4.746-3.165-7.911c1.583-3.164,4.22-13.186,5.274-17.405
					c0.527-3.691,3.692-6.329,6.856-6.329c3.692,0,6.329-0.527,10.021-1.055c3.164,0,5.274-2.109,5.802-5.274
					C550.418,253.164,550.418,245.781,549.363,237.869z M428.055,327.531c-41.667,0-75.422-34.282-75.422-75.949
					s33.755-75.422,75.422-74.895c41.667,0.527,75.422,34.282,75.422,75.949l0,0C503.477,294.304,469.722,327.531,428.055,327.531
					L428.055,327.531z"/>
			</g>
			<g>
				<path fill="#FFFFFF" d="M372.147,230.486c1.583,1.055,3.165-0.527,3.692-1.056c0.527-1.055,0.527-2.109,0-2.637
					c-0.527-1.055,1.055-1.582,1.582-1.582c1.583-1.055,3.165-2.11,5.274-3.165c3.165-1.055,6.856-1.055,10.021,0
					c2.11,1.055,5.274,0.527,6.856-1.055c1.583-1.582,3.165-3.164,4.747-4.22c1.055-0.527-2.637-3.691-5.274,0
					c-2.637,3.692-4.219,3.692-5.274,3.692c-1.055,0-8.966-2.109-10.021-4.22c-1.055-2.109,2.637-4.219,5.274-5.802
					c4.219-1.055,8.438-1.582,12.658-1.582c4.219-1.055,8.966-2.637,11.604-1.055c2.637,1.582-11.076,4.747-6.329,7.384
					c1.582,1.055,8.438-4.219,11.076-5.274c5.801-3.164-5.274-4.219-4.219-10.021c1.055-5.802-13.186-4.22-21.097-3.692
					c-3.692,2.109-7.384,4.747-10.548,7.911c1.055,0,2.109,0.527,2.109,1.056c0,1.582-0.527,2.637-1.055,4.219
					c-2.11,2.11-4.219,3.165-6.856,3.165c-0.527,0-1.055-0.527-1.055-0.527c-1.055,1.582-2.11,3.164-3.165,4.746
					c1.583-1.055,3.165-1.582,4.747-1.582s3.692,0.527,4.219,1.582c0.528,1.056-4.219,3.165-4.747,3.692
					c-2.11,2.109-5.802,6.329-7.912,6.856c-0.527,0-1.055,0-1.582,0c-0.527,1.582-1.055,3.165-1.583,4.22
					C366.874,229.958,369.511,229.43,372.147,230.486z"/>
			</g>
			<g>
				<path fill="#FFFFFF" d="M481.853,248.946c-2.11,1.582-4.747,2.637-6.856,2.637c-2.638,2.109-3.692,4.747-3.692,7.911
					c0.527,2.638,6.329,9.494,2.109,8.967c-4.219-2.11-7.911-5.274-10.548-8.967c-1.583-3.691-2.638-7.384-4.22-10.021
					c-0.527-2.11-3.164-3.165-5.274-2.638c-0.527,0-0.527,0.527-1.055,0.527c-2.637,1.583,0.527,3.165-1.055,6.856
					c-1.582,3.692-3.165,6.329-5.274,3.692c-6.329-7.384-15.822-3.692-17.405-12.131c-1.055-4.22-4.747-4.22-7.911-6.856
					c-3.165-2.637-5.274-3.692-5.802-2.109c-0.527,1.582,10.021,10.021,11.076,12.131c1.055,3.164-3.165,6.329-6.329,6.856
					c-3.165,0.527-4.747-1.583-7.912-4.747c-3.165-3.165-4.219-5.802-4.747-3.165c0,4.22,2.637,8.439,6.329,11.076
					c2.637,1.582,5.801,2.638,4.747,5.274s0,1.055-3.165,4.22c-2.637,1.582-4.219,4.746-3.692,7.911c0,4.22-1.055,4.22-1.583,7.911
					c-0.527,3.692-2.109,0.527-3.692,5.274c-0.527,3.165-2.109,6.329-4.219,8.438c-2.637,2.109-5.802,3.165-8.966,3.692
					c-3.165,0-3.692-8.438-3.692-12.658c0-1.582-2.11,2.637-3.165-5.802c-0.527-5.274-4.219,0.527-4.219-3.164
					c0-3.692-2.11-3.165-3.692-5.274c-1.582-2.11-4.219,0-6.856,1.582s-1.582,1.582-5.274,0.527l0,0
					c7.912,18.46,23.207,32.173,42.722,37.975c-1.055-0.527-1.582-2.109-1.055-3.165c2.637-4.746,7.384-7.911,13.186-7.911
					c10.549-1.055,24.789,6.856,27.426,5.802c2.638-1.055,6.856-7.384,13.714-6.856c2.109,0,4.219,0.527,5.801,1.582
					c2.11-1.582,4.747-3.691,6.857-5.802c-0.528,0-1.583-0.527-2.11-1.055c-3.691-1.582-3.164,1.055-5.274,0.527
					c-2.109-0.527,2.11-4.746-3.164-1.055c-5.274,3.692-3.692-0.527-6.329-6.329c-1.582-5.802,1.582-11.604,6.856-14.24
					c3.692-1.582,7.911-2.638,12.131-3.165c7.911-2.109,9.493-6.856,11.076-3.691c0,0.527,0.527,1.055,0.527,1.582
					c0.527,1.055,1.055,2.637,1.055,4.22c1.055-3.165,2.109-6.329,3.164-10.021c-2.109-1.055-8.966-11.076-3.164-17.405
					c1.055-1.055-2.109-4.219-1.055-4.219c2.637,0,4.747,1.582,5.274,4.219c0-3.691-0.527-6.856-1.583-10.548
					c0,0.527,0,1.582-0.527,2.109c-1.055,2.109-3.691,3.164-5.802,2.637c-1.055-0.527-1.582-1.055-2.109-1.582
					c-0.527-1.055-3.692-3.691-3.692,1.055C479.742,246.308,486.071,246.308,481.853,248.946z M419.089,275.317
					c-1.055,1.582-3.692,12.658-5.274,11.604c-1.583-1.056,0.527-13.186,1.055-13.714
					C418.034,267.406,423.308,267.933,419.089,275.317L419.089,275.317z M446.515,262.131c-2.109,1.055-4.747,1.055-6.329-0.527
					c-1.582-1.056,1.055-3.692,2.109-3.692C444.405,257.384,447.569,260.548,446.515,262.131L446.515,262.131z M473.94,259.493
					c-0.527-0.527,0-1.582,0.528-2.109c0.527-0.527,1.055,0,1.582,0c1.582,1.055,2.637,2.109,3.164,3.691
					c0,1.056-2.637,1.056-3.164,0.528C475.523,261.075,474.469,261.075,473.94,259.493L473.94,259.493z M482.907,268.46
					c-2.109,1.055-4.747,1.055-6.329-0.527c-1.582-1.056,1.055-3.692,2.109-3.692C480.798,263.713,483.962,266.877,482.907,268.46
					L482.907,268.46z"/>
			</g>
			<g>
				<path fill="#FFFFFF" d="M369.511,237.869c3.692,0.527,7.384,1.582,11.076,2.637c3.692,1.582,10.021,4.747,13.186,3.165
					c2.637-1.055,4.747-2.638,4.22-4.747c-0.528-2.109-2.637-3.165-4.747-1.582c-1.055,0.527-3.165-4.22-4.747-3.692
					c-1.583,0.527,2.109,5.274,0.527,5.802c-1.583,0.527-4.22-5.274-4.22-6.329s-2.637-3.164-4.219-1.582
					c-4.219,3.691-10.548,3.691-11.604,4.219c-0.527,0.528-1.055,0.528-1.582,1.056c-2.637,1.055-3.692-1.583-3.692-3.692
					c-1.055,3.692-2.11,7.384-2.11,11.604c0,0,0-0.527,0.527-0.527c2.11-4.22,2.637-4.747,3.165-4.747
					c1.055-0.527,1.583-0.527,2.637-1.055L369.511,237.869z"/>
			</g>
		</g>
		<g>
			<path fill="#FFFFFF" d="M259.806,47.468l61.182,60.654c0,0,0.527,0.527,0,1.055l0,0l-31.118,29.009c-0.527,0-0.527,0-1.055,0
				l-59.599-59.6L217.612,90.19V35.865h54.325L259.806,47.468z"/>
		</g>
		<g>
			<g>
				<path fill="#FFFFFF" d="M594.194,453.059l-60.654-60.654c0,0-0.527-0.527,0-1.055l0,0l31.118-29.008c0.527,0,0.527,0,1.055,0
					l59.072,59.599l11.603-11.604v54.325l-54.324,0.527L594.194,453.059z"/>
			</g>
			<g>
				<path fill="#FFFFFF" d="M259.806,452.531l60.654-60.654c0-0.527,0-0.527,0-1.055l-31.118-29.009c-0.527,0-0.527,0-1.055,0
					l-59.599,60.127l-11.604-11.604v54.325h54.325L259.806,452.531z"/>
			</g>
		</g>
		<g>
			<path fill="#FFFFFF" d="M594.722,47.995l-60.654,60.127c0,0.527,0,0.527,0,1.055l31.118,29.009c0.527,0,0.527,0,1.055,0
				l59.6-59.072l11.604,11.604V36.393h-54.325L594.722,47.995z"/>
		</g>
	</g>
</g>
</svg>
