<?xml version="1.0" encoding="utf-8"?>
<!-- Generator: Adobe Illustrator 16.0.3, SVG Export Plug-In . SVG Version: 6.00 Build 0)  -->
<!DOCTYPE svg PUBLIC "-//W3C//DTD SVG 1.1//EN" "http://www.w3.org/Graphics/SVG/1.1/DTD/svg11.dtd" [
	<!ENTITY ns_extend "http://ns.adobe.com/Extensibility/1.0/">
	<!ENTITY ns_ai "http://ns.adobe.com/AdobeIllustrator/10.0/">
	<!ENTITY ns_graphs "http://ns.adobe.com/Graphs/1.0/">
	<!ENTITY ns_vars "http://ns.adobe.com/Variables/1.0/">
	<!ENTITY ns_imrep "http://ns.adobe.com/ImageReplacement/1.0/">
	<!ENTITY ns_sfw "http://ns.adobe.com/SaveForWeb/1.0/">
	<!ENTITY ns_custom "http://ns.adobe.com/GenericCustomNamespace/1.0/">
	<!ENTITY ns_adobe_xpath "http://ns.adobe.com/XPath/1.0/">
]>
<svg version="1.1" id="Layer_1" xmlns:x="&ns_extend;" xmlns:i="&ns_ai;" xmlns:graph="&ns_graphs;"
	 xmlns="http://www.w3.org/2000/svg" xmlns:xlink="http://www.w3.org/1999/xlink" x="0px" y="0px" width="258.03px"
	 height="258.029px" viewBox="297.849 65.323 258.03 258.029" enable-background="new 297.849 65.323 258.03 258.029"
	 xml:space="preserve">
<metadata>
	<sfw  xmlns="&ns_sfw;">
		<slices></slices>
		<sliceSourceBounds  width="258.03" height="258.029" x="297.349" y="177.147" bottomLeftOrigin="true"></sliceSourceBounds>
	</sfw>
</metadata>
<title>TARGET 1 B copy 5</title>
<g id="TARGETS">
	<g>
		<rect x="297.849" y="65.323" fill="#4C9F38" width="258.03" height="258.029"/>
	</g>
	<g>
		<g>
			<g>
				<path fill="#FFFFFF" d="M417.61,144.257c0-1.089-1.089-2.178-2.178-1.905c-1.088,0-2.177,0-3.266,0s-2.45-0.272-2.722-1.633
					c-0.544-2.178-1.361-4.083-2.178-6.261c-0.544-1.089-0.272-2.449,0.817-3.266c1.088-0.817,1.905-1.361,2.722-2.45
					c0.816-0.544,1.089-1.905,0.544-2.722c-1.361-2.45-2.994-4.627-4.899-6.805c-0.816-0.816-2.177-1.089-2.994-0.272
					c-1.088,0.545-1.633,1.089-2.722,1.905s-2.177,1.089-2.994,0.272c-1.905-1.361-4.083-2.994-5.443-3.811
					c-1.089-0.816-1.361-1.905-1.089-2.994c0.272-1.36,0.544-2.178,0.816-3.538c0.272-1.089-0.272-2.178-1.361-2.722
					c-2.45-1.089-5.171-1.905-7.893-2.45c-1.089-0.271-2.178,0.272-2.722,1.634c-0.544,1.088-0.816,1.905-1.088,2.993
					c-0.272,1.089-1.089,2.178-2.45,2.178c-2.722,0-4.899,0-6.533,0c-1.088,0-2.177-0.544-2.722-1.633s-0.816-2.178-1.361-3.267
					c-0.272-1.089-1.361-1.633-2.45-1.36c-2.722,0.544-5.444,1.36-7.894,2.722c-1.088,0.272-1.633,1.633-1.361,2.722
					c0,0,0,0.272,0.272,0.272c0.272,1.089,0.544,1.905,0.816,3.266c0.272,1.361,0.272,2.45-0.816,2.994
					c-1.089,0.545-3.811,2.722-5.171,3.811c-0.817,0.816-2.178,0.816-3.267,0.272c-1.088-0.545-1.905-1.361-2.994-1.905
					c-0.817-0.545-2.178-0.545-2.722,0.272c-2.449,1.905-3.811,4.082-5.171,6.804c-0.544,1.089-0.272,2.178,0.544,2.994l0,0
					c1.089,0.816,1.633,1.361,2.722,1.905c1.089,0.545,1.633,1.634,1.089,2.994c-0.544,1.361-1.633,4.899-1.905,6.261
					c-0.272,1.089-1.361,1.905-2.45,2.177c-1.361,0-2.45,0.272-3.538,0.272c-1.089,0-1.905,0.816-2.178,1.905
					c-0.272,2.722-0.272,5.716,0.272,8.438c0,1.089,1.088,2.178,2.177,1.905h3.266c1.361,0,2.45,0.272,2.722,1.634
					c0.544,2.177,1.361,4.354,2.177,6.26c0.544,1.089,0.272,2.449-0.816,3.267c-1.089,0.816-1.633,1.36-2.722,2.177
					c-0.816,0.545-1.088,1.905-0.544,2.722c1.361,2.45,2.994,4.899,4.899,6.805c0.817,0.817,2.178,1.089,2.994,0.272
					c1.089-0.544,1.633-1.089,2.722-1.905c1.089-0.816,2.178-1.089,2.994-0.272c0.816,0.817,4.083,2.994,5.444,3.811
					c1.088,0.545,1.633,1.905,1.361,2.994c-0.272,1.089-0.544,2.178-0.817,3.539c-0.272,1.088,0.272,2.177,1.361,2.722
					c2.449,1.089,5.171,1.905,7.893,2.449c1.089,0.272,2.45-0.272,2.722-1.36l0,0c0.544-1.089,0.817-1.905,1.089-2.994
					c0.272-1.089,1.089-2.178,2.45-2.178c2.45,0,4.355,0,6.532,0c1.089,0,2.178,0.544,2.722,1.633s0.816,2.178,1.361,3.267
					c0.272,1.089,1.361,1.633,2.45,1.36c2.722-0.544,5.443-1.36,7.893-2.722c1.089-0.544,1.633-1.633,1.089-2.722
					c-0.272-1.089-0.544-1.905-0.816-3.266c-0.272-1.361-0.544-2.178,0.816-2.994s4.083-3.267,5.171-4.083
					c0.816-0.816,2.178-0.816,3.266-0.272c1.089,0.816,1.905,1.089,2.994,1.905c0.816,0.545,1.905,0.272,2.722-0.271
					c1.905-2.178,3.539-4.355,4.899-6.805c0.816-0.817,0.544-2.178-0.544-2.994l0,0c-0.816-0.816-1.633-1.361-2.45-1.905
					c-0.816-0.545-1.633-1.634-1.361-2.994c0.272-1.361,1.633-4.627,1.905-6.261c0.272-1.088,1.361-2.177,2.45-2.177
					c1.361,0,2.178-0.272,3.539-0.272c1.088,0,1.905-0.816,2.177-1.905C418.154,149.973,418.154,146.979,417.61,144.257z
					 M373.516,176.919c-15.242,0-27.218-12.249-27.218-27.491s12.248-27.218,27.49-27.218s27.218,12.248,27.218,27.49l0,0
					C401.006,164.67,388.758,176.919,373.516,176.919z"/>
			</g>
			<g>
				<path fill="#FFFFFF" d="M353.375,141.807c0.544,0.545,1.089,0,1.361-0.271c0.272-0.272,0.272-0.816,0-1.089
					c0-0.272,0.272-0.545,0.544-0.545c0.544-0.271,1.361-0.544,1.905-1.088c1.089-0.272,2.45-0.272,3.811,0
					c0.816,0.544,1.905,0.271,2.45-0.545c0.544-0.544,1.089-1.089,1.633-1.36c0.272-0.272-0.817-1.361-1.905,0
					c-1.089,1.36-1.633,1.36-1.905,1.36c-0.272,0-3.267-0.816-3.539-1.633c-0.272-0.816,0.816-1.633,1.905-2.178
					c1.633-0.272,2.994-0.544,4.627-0.544c1.361-0.272,3.267-1.089,4.355-0.545c1.089,0.545-4.083,1.634-2.45,2.722
					c0.544,0.272,3.267-1.36,4.083-1.905c2.177-1.089-1.905-1.36-1.361-3.538s-4.899-1.633-7.621-1.361
					c-1.361,0.817-2.722,1.905-3.811,2.994c0.272,0,0.816,0.272,0.816,0.545c0,0.544,0,1.089-0.272,1.633
					c-0.816,0.816-1.633,1.089-2.722,1.089c-0.272,0-0.272,0-0.544-0.272c-0.544,0.545-0.816,1.089-1.361,1.634
					c0.544-0.272,1.089-0.545,1.905-0.545c0.544,0,1.361,0.272,1.361,0.545c0,0.271-1.361,1.088-1.905,1.36
					c-0.816,0.816-2.177,2.45-2.994,2.45c-0.272,0-0.272,0-0.544,0c-0.272,0.544-0.272,1.088-0.544,1.633
					C351.469,141.535,352.558,141.535,353.375,141.807z"/>
			</g>
			<g>
				<path fill="#FFFFFF" d="M393.113,148.34c-0.816,0.544-1.633,0.816-2.45,1.088c-0.816,0.817-1.361,1.905-1.361,2.994
					c0.272,0.816,2.45,3.539,0.816,3.267c-1.633-0.816-2.722-1.905-3.811-3.267c-0.544-1.36-1.089-2.722-1.361-3.538
					s-1.089-1.089-1.905-0.816c-0.272,0-0.272,0.272-0.544,0.272c-0.816,0.544,0.272,1.088-0.272,2.449s-1.089,2.449-1.905,1.361
					c-2.45-2.723-5.716-1.361-6.26-4.355c-0.272-1.633-1.633-1.36-2.722-2.449c-1.088-1.089-1.905-1.361-2.177-0.816
					c-0.272,0.544,3.811,3.538,4.083,4.354c0.272,0.816-1.089,2.178-2.45,2.449c-1.361,0.272-1.633-0.544-2.722-1.905
					c-1.088-1.36-1.633-1.905-1.633-1.088c0,1.633,0.816,2.993,2.177,4.082c1.089,0.545,2.178,0.816,1.633,1.905
					s0,0.545-1.089,1.361c-0.816,0.544-1.361,1.633-1.361,2.722c0,1.633-0.272,1.633-0.544,2.722s-0.816,0.272-1.361,1.905
					c-0.272,1.089-0.816,2.178-1.361,2.994c-0.817,0.816-2.178,1.361-3.267,1.361c-1.088,0-1.361-2.994-1.361-4.628
					c0-0.544-0.816,1.089-1.088-2.177c-0.272-1.905-1.633,0.271-1.633-1.089c0-1.361-0.816-1.089-1.361-1.905s-1.633,0-2.45,0.544
					c-0.816,0.545-0.544,0.545-1.905,0.272l0,0c2.722,6.805,8.438,11.704,15.515,13.882c-0.272-0.272-0.544-0.817-0.272-1.089
					c1.089-1.634,2.722-2.723,4.627-2.723c3.811-0.271,8.982,2.45,9.799,2.178s2.45-2.722,4.899-2.449c0.816,0,1.633,0,2.177,0.544
					c0.816-0.544,1.633-1.36,2.45-2.178c-0.272,0-0.544-0.271-0.816-0.271c-1.361-0.545-1.089,0.544-1.905,0.271
					c-0.817-0.271,0.816-1.633-1.089-0.544s-1.361-0.272-2.177-2.449c-0.544-2.178,0.544-4.355,2.449-5.172
					c1.361-0.544,2.994-0.816,4.355-1.089c2.994-0.816,3.539-2.449,4.083-1.36l0.272,0.544c0.272,0.544,0.272,0.816,0.272,1.361
					c0.544-1.089,0.816-2.45,1.088-3.539c-0.544-0.271-3.266-4.082-1.088-6.26c0.272-0.545-0.817-1.633-0.544-1.633
					c0.816,0,1.905,0.544,1.905,1.36c0-1.36-0.272-2.449-0.544-3.811c0,0.272,0,0.545,0,0.816c-0.272,0.816-1.361,1.089-2.178,0.816
					c-0.272,0-0.544-0.271-0.544-0.544c-0.272-0.272-1.361-1.361-1.361,0.272C392.841,146.979,394.746,147.251,393.113,148.34z
					 M370.522,157.866c-0.272,0.544-1.361,4.627-1.905,4.082c-0.544-0.544,0.272-4.627,0.544-4.899
					C369.978,155.144,371.883,155.144,370.522,157.866z M380.321,152.967c-0.817,0.271-1.633,0.271-2.178-0.272
					s0.272-1.361,0.817-1.361C379.504,151.606,380.865,152.695,380.321,152.967L380.321,152.967z M390.392,152.151
					c-0.272-0.545,0.272-0.817,0.816-0.817s1.089,1.089,1.089,1.634c0,0.544-1.089,0.271-1.361,0.271
					C390.664,153.239,390.392,152.695,390.392,152.151L390.392,152.151z M393.658,155.416c-0.817,0.272-1.633,0.272-2.178-0.272
					c-0.544-0.544,0.544-1.36,0.817-1.36C392.841,153.783,393.93,154.872,393.658,155.416L393.658,155.416z"/>
			</g>
			<g>
				<path fill="#FFFFFF" d="M352.558,144.257c1.361,0.272,2.722,0.544,4.083,1.089c1.361,0.544,3.539,1.633,4.899,1.36
					c1.361-0.271,1.633-0.816,1.633-1.633s-0.817-1.089-1.906-0.544c-0.272,0.271-1.088-1.361-1.633-1.361s0.816,1.905,0.272,2.178
					c-0.544,0.271-1.361-1.905-1.633-2.178c-0.272-0.272-0.817-1.089-1.633-0.544C355.28,143.985,352.83,143.985,352.558,144.257
					c-0.272,0-0.272,0.272-0.544,0.272c-0.816,0.271-1.361-0.545-1.361-1.361c-0.544,1.361-0.817,2.722-0.817,4.083c0,0,0,0,0-0.272
					c0.817-1.361,1.089-1.633,1.089-1.905l1.089-0.272L352.558,144.257z"/>
			</g>
		</g>
		<g>
			<g>
				<path fill="#FFFFFF" d="M482.934,104.246c-8.982,0-16.331,7.349-16.331,16.331c0,8.981,7.349,16.331,16.331,16.331
					s16.331-7.35,16.331-16.331C499.265,111.595,491.916,104.246,482.934,104.246z"/>
			</g>
			<g>
				<path fill="#FFFFFF" d="M483.206,100.98c5.443,0.272,10.343,2.45,14.153,6.261l6.805-7.35
					c-5.716-5.443-13.065-8.71-20.958-8.981c-8.166,0.271-16.059,3.538-21.775,9.526l8.166,6.26
					C473.407,103.43,478.307,101.252,483.206,100.98z"/>
			</g>
			<g>
				<path fill="#FFFFFF" d="M529.205,201.143l-13.609-44.094c0,0-4.899-12.792-15.515-12.792h-34.295
					c-10.615,0-15.515,12.792-15.515,12.792l-13.609,44.094c0,0-2.449,8.166,4.355,10.071s8.71-5.988,8.71-5.988l10.887-36.744
					c0,0,0.545-2.723,2.723-2.178c2.177,0.544,1.36,3.538,1.36,3.538l-19.053,68.862h17.692v49.266
					c0.271,4.627,4.354,8.165,8.981,7.893c4.355-0.271,7.621-3.811,7.894-7.893v-48.993h4.899v49.265
					c0,4.627,3.811,8.438,8.438,8.438s8.438-3.811,8.438-8.438v-49.265h17.692l-19.053-68.862c0,0-0.817-2.994,1.36-3.538
					c2.178-0.545,2.722,2.177,2.722,2.177l10.888,36.745c0,0,2.178,7.894,8.981,5.988
					C531.382,209.58,529.205,201.143,529.205,201.143z M482.934,214.48c-1.633,0-2.722-1.088-2.722-2.722
					c0-1.633,1.089-2.722,2.722-2.722s2.722,1.089,2.722,2.722C485.655,213.392,484.295,214.48,482.934,214.48z M482.934,192.705
					c-1.633,0-2.722-1.089-2.722-2.722s1.089-2.722,2.722-2.722s2.722,1.089,2.722,2.722S484.295,192.705,482.934,192.705z
					 M482.934,171.747c-1.633,0-2.722-1.089-2.722-2.722s1.089-2.722,2.722-2.722s2.722,1.089,2.722,2.722
					S484.295,171.747,482.934,171.747z"/>
			</g>
		</g>
		<g>
			<g>
				<path fill="#FFFFFF" d="M369.706,286.609c-1.633,1.089-3.266,1.633-4.899,2.178c-5.171,1.36-10.343,2.177-15.514,1.905
					c-2.45,0-5.172-0.272-7.621-0.545c-1.633-0.271-2.994-0.544-4.627-0.816c-0.816-0.272-1.633-0.272-2.177-0.544
					c-2.178-0.545-4.083-1.634-5.988-2.722c-0.544-0.545-1.361-1.089-1.633-1.905v1.905c0,0.544,0,2.993,0,2.993
					c0,1.361,0.816,2.45,1.905,3.267c3.538,2.449,7.893,4.083,12.248,4.627c2.994,0.545,5.988,0.545,8.71,0.545
					c4.355,0,8.438-0.545,12.792-1.361l0,0c2.178-0.544,4.355-1.361,6.533-2.449l0,0c2.177-1.361,3.266-2.723,3.266-4.355
					c0,0,0.272-4.627,0-4.899C371.611,284.976,370.794,285.792,369.706,286.609z"/>
			</g>
			<g>
				<path fill="#FFFFFF" d="M347.387,271.094c12.52,0,22.591-3.811,22.591-8.438c0,0,0.272-4.354,0.272-5.172
					c0-0.544-0.272-1.36-0.272-1.905c1.361-0.816,2.45-2.177,2.722-3.811c0,0,0.272-4.898,0-5.716
					c-0.544-5.716-11.976-8.71-22.864-8.71c-10.887,0-22.863,3.267-22.863,9.255c0,0.272,0.272,5.171,0.272,5.171
					c0,0.272,0,0.817,0.272,1.089c-1.633,1.089-2.722,2.722-2.722,4.627c0,0.272,0.272,5.172,0.272,5.172
					c0,1.361,0.817,2.449,1.905,3.267c3.539,2.449,7.621,4.082,11.976,4.354C341.398,270.822,344.393,271.094,347.387,271.094z
					 M349.836,239.793c11.976,0,20.686,3.538,20.686,6.805c0,3.266-8.438,6.805-20.414,6.805s-20.414-3.539-20.414-6.805
					C329.695,243.331,337.588,239.793,349.836,239.793z M326.701,257.485c0.272-1.088,0.816-1.905,1.905-2.449
					c0.544,0.544,1.361,1.361,2.177,1.633c5.988,2.722,12.249,3.811,18.781,3.811c5.444,0,10.887-0.816,16.059-2.449
					c0.817-0.272,1.361-0.545,1.905-0.816c0,0.271,0,0.271,0,0.544c0,3.267-8.438,6.805-20.414,6.805
					S326.701,260.751,326.701,257.485z"/>
			</g>
			<g>
				<path fill="#FFFFFF" d="M340.582,288.514c2.994,0.544,5.988,0.544,8.71,0.544c4.354,0,8.438-0.544,12.792-1.36l0,0
					c2.177-0.545,4.355-1.361,6.532-2.45l0,0c0.544-0.271,1.089-0.544,1.361-1.089c0.817-0.544,1.361-1.36,1.633-2.177
					c0.272-0.272,0.272-0.816,0.272-1.089c0,0,0-4.627,0-4.899c-0.816,0.816-2.722,3.811-11.704,5.716
					c-3.811,0.544-7.621,1.089-11.432,1.089c-7.349,0-14.698-1.361-18.236-3.538c-1.089-0.545-1.905-1.089-2.722-1.905
					c-0.544-0.545-1.089-1.089-1.361-1.634v2.178v3.267c0,1.36,0.817,2.449,1.905,3.266
					C331.872,286.609,336.227,288.241,340.582,288.514z"/>
			</g>
			<g>
				<path fill="#FFFFFF" d="M371.883,265.651c-0.272-0.272-0.272-0.272-0.544-0.545c-0.272-0.271-0.544-0.271-1.089-0.544
					c-0.272,0.544-0.544,0.816-1.089,1.361c0.272,0,0.544,0.271,0.816,0.544c0.544,0.272,1.089,1.089,1.089,1.633
					c0,0.545-0.272,1.089-0.816,1.634l-0.816,0.544l-1.361,0.816c0,0-1.361,0.545-1.905,0.816c0,0-1.361,0.545-1.905,0.545
					c-0.272,0-1.905,0.544-2.722,0.544c-0.272,0-2.45,0.545-3.539,0.545l-3.538,0.271c-0.272,0-3.811,0.272-5.171,0.272
					c-2.45,0-4.899-0.272-7.349-0.544c-1.633-0.272-3.539-0.545-5.171-0.817c-1.905-0.544-3.811-1.088-5.444-1.633
					c-1.089-0.544-1.905-1.089-2.722-1.905s-1.361-1.633-1.905-2.449v2.994v2.722c0,1.36,0.816,2.449,1.905,3.266
					c3.539,2.45,7.621,4.083,11.976,4.627c2.994,0.545,5.988,0.545,8.71,0.545c4.354,0,8.438-0.545,12.792-1.361l0,0
					c2.177-0.544,4.355-1.36,6.532-2.449l0,0c0.544-0.272,1.089-0.545,1.361-1.089c0.817-0.544,1.361-1.361,1.633-2.178
					c0.272-0.271,0.272-0.816,0.272-1.089l0.272-4.898c0-0.272,0-0.817-0.272-1.089
					C372.155,266.195,372.155,265.923,371.883,265.651z"/>
			</g>
			<g>
				<path fill="#FFFFFF" d="M399.646,254.763c12.521,0,22.592-3.811,22.592-8.438c0,0,0.271-4.354,0.271-5.172
					c0-0.544-0.271-1.36-0.544-1.905c1.36-0.816,2.449-2.177,2.722-3.811c0,0,0.272-4.898,0-5.716
					c-0.545-5.716-11.976-8.709-22.863-8.709c-10.888,0-22.863,3.266-22.863,9.254c0,0.272,0.272,5.171,0.272,5.171
					c0,0.272,0,0.817,0.272,1.089c-1.633,1.089-2.722,2.723-2.722,4.628c0,0.271,0.272,5.171,0.272,5.171
					c0,1.361,0.816,2.45,1.905,3.267c3.538,2.449,7.621,4.082,11.976,4.627C393.658,254.491,396.651,254.763,399.646,254.763z
					 M402.095,223.462c12.249,0,20.414,3.538,20.414,6.805c0,3.266-8.438,6.805-20.414,6.805s-20.686-3.539-20.686-6.805
					C381.409,227,389.847,223.462,402.095,223.462z M379.232,241.154c0-1.088,0.816-2.177,1.905-2.722
					c0.816,0.545,1.361,1.089,2.177,1.634c5.988,2.722,12.249,4.082,18.781,3.811c5.444,0,10.887-0.817,16.059-2.45
					c0.816-0.272,1.361-0.544,1.905-0.816c0,0.272,0,0.272,0,0.544c0,3.267-8.438,6.805-20.414,6.805
					S379.232,244.42,379.232,241.154z"/>
			</g>
			<g>
				<path fill="#FFFFFF" d="M424.687,250.136c0-0.272-0.272-0.544-0.545-0.816c-0.271-0.272-0.271-0.272-0.544-0.544
					c-0.272-0.272-0.544-0.272-0.816-0.545c-0.272,0.545-0.544,0.816-1.089,1.361c0.272,0,0.545,0.271,0.816,0.544
					c0.545,0.272,1.089,1.089,1.089,1.633c0,0.545-0.272,1.089-0.816,1.634c-0.272,0.271-0.544,0.544-0.816,0.544l-1.361,0.816
					l-1.905,0.816l-1.905,0.545l-2.722,0.544c-0.272,0-2.45,0.545-3.538,0.545c-0.272,0-2.722,0.271-3.539,0.271
					c-0.272,0-3.811,0.272-5.171,0.272c-2.45,0-4.899-0.272-7.349-0.544c-1.633-0.272-3.539-0.545-5.171-0.816
					c-1.905-0.545-3.811-1.089-5.444-1.634c-1.088-0.544-1.905-1.089-2.722-1.905s-1.361-1.36-1.905-2.449v2.994v2.722
					c0,1.36,0.816,2.449,1.905,3.266c3.539,2.45,7.621,4.083,11.976,4.628c2.994,0.544,5.988,0.816,8.71,0.544
					c4.355,0,8.438-0.544,12.792-1.361h0.272c2.178-0.544,4.355-1.36,6.261-2.449l0,0c0.544-0.272,1.089-0.544,1.36-1.089
					c0.816-0.544,1.361-1.36,1.633-2.178c0.272-0.271,0.272-0.816,0.272-1.089l0.272-4.898
					C424.959,250.952,424.959,250.681,424.687,250.136z"/>
			</g>
			<g>
				<path fill="#FFFFFF" d="M421.965,270.278c-1.633,1.089-3.267,1.633-4.899,2.178c-5.171,1.36-10.343,2.178-15.515,1.905
					c-2.45,0-5.171-0.272-7.621-0.545c-1.633-0.271-2.994-0.544-4.627-0.816c-0.816-0.272-1.633-0.544-2.178-0.544
					c-2.177-0.545-4.354-1.634-5.988-2.994c-0.544-0.545-1.361-1.089-1.633-1.905v1.905c0,0.544,0,2.994,0,2.994
					c0,1.36,0.817,2.449,1.905,3.266c3.539,2.45,7.894,4.083,12.249,4.627c2.994,0.545,5.988,0.545,8.71,0.545
					c4.355,0,8.438-0.545,12.792-1.361l0,0c2.177-0.544,4.355-1.36,6.532-2.449l0,0c2.178-1.361,3.267-2.722,3.267-4.355
					c0,0,0.271-4.627,0-4.898C424.142,268.645,423.054,269.461,421.965,270.278z"/>
			</g>
			<g>
				<path fill="#FFFFFF" d="M380.865,267.556c3.538,2.449,7.621,4.083,11.976,4.627c2.994,0.544,5.988,0.816,8.71,0.544
					c4.355,0,8.438-0.544,12.793-1.36h0.272c2.177-0.545,4.355-1.361,6.26-2.45l0,0c0.544-0.271,1.089-0.544,1.361-1.088
					c0.816-0.545,1.36-1.361,1.633-2.178c0.271-0.272,0.271-0.816,0.271-1.089c0,0,0-4.627,0-4.899
					c-0.816,1.089-2.722,3.811-11.703,5.716c-3.811,0.545-7.622,1.089-11.432,1.089c-7.349-0.272-14.698-1.361-18.236-3.538
					c-1.089-0.545-1.905-1.089-2.722-1.905c-0.544-0.545-1.088-1.089-1.361-1.634v2.178v3.267
					C379.232,265.923,379.776,267.011,380.865,267.556z"/>
			</g>
			<g>
				<path fill="#FFFFFF" d="M424.959,283.887c-0.817,1.089-1.634,1.905-2.722,2.722c-1.634,1.089-3.267,1.633-4.9,2.178
					c-5.171,1.36-10.343,2.177-15.514,1.905c-2.45,0-5.172-0.272-7.621-0.545c-1.633-0.271-2.994-0.544-4.627-0.816
					c-0.816-0.272-1.633-0.544-2.177-0.544c-2.178-0.545-4.083-1.634-5.988-2.994c-0.544-0.545-1.361-1.089-1.633-1.905v1.905
					c0,0.544,0,2.994,0,2.994c0,1.36,0.816,2.449,1.905,3.266c3.538,2.45,7.893,4.083,12.248,4.627
					c2.994,0.545,5.988,0.817,8.71,0.545c4.355,0,8.438-0.545,12.792-1.361l0,0c2.178-0.544,4.355-1.36,6.26-2.449l0,0
					c2.178-1.361,3.267-2.722,3.267-4.355C424.687,288.786,424.959,284.159,424.959,283.887z"/>
			</g>
			<g>
				<path fill="#FFFFFF" d="M393.113,288.514c2.994,0.544,5.988,0.544,8.71,0.544c4.355,0,8.438-0.544,12.792-1.36l0,0
					c2.177-0.545,4.355-1.361,6.533-2.45l0,0c0.544-0.271,1.089-0.544,1.36-1.089c0.816-0.544,1.361-1.36,1.633-2.177
					c0.272-0.272,0.272-0.816,0.272-1.089c0,0,0-4.627,0-4.899c-0.816,0.816-2.722,3.811-11.704,5.716
					c-3.811,0.544-7.621,1.089-11.432,1.089c-7.349-0.272-14.698-1.361-18.236-3.538c-1.089-0.545-1.905-1.089-2.722-1.905
					c-0.544-0.545-1.089-1.089-1.361-1.634v2.178v3.267c0,1.36,0.816,2.449,1.905,3.266
					C384.403,286.609,388.758,288.241,393.113,288.514z"/>
			</g>
		</g>
	</g>
</g>
</svg>
