<?xml version="1.0" encoding="utf-8"?>
<!-- Generator: Adobe Illustrator 16.0.3, SVG Export Plug-In . SVG Version: 6.00 Build 0)  -->
<!DOCTYPE svg PUBLIC "-//W3C//DTD SVG 1.1//EN" "http://www.w3.org/Graphics/SVG/1.1/DTD/svg11.dtd" [
	<!ENTITY ns_extend "http://ns.adobe.com/Extensibility/1.0/">
	<!ENTITY ns_ai "http://ns.adobe.com/AdobeIllustrator/10.0/">
	<!ENTITY ns_graphs "http://ns.adobe.com/Graphs/1.0/">
	<!ENTITY ns_vars "http://ns.adobe.com/Variables/1.0/">
	<!ENTITY ns_imrep "http://ns.adobe.com/ImageReplacement/1.0/">
	<!ENTITY ns_sfw "http://ns.adobe.com/SaveForWeb/1.0/">
	<!ENTITY ns_custom "http://ns.adobe.com/GenericCustomNamespace/1.0/">
	<!ENTITY ns_adobe_xpath "http://ns.adobe.com/XPath/1.0/">
]>
<svg version="1.1" id="Layer_1" xmlns:x="&ns_extend;" xmlns:i="&ns_ai;" xmlns:graph="&ns_graphs;"
	 xmlns="http://www.w3.org/2000/svg" xmlns:xlink="http://www.w3.org/1999/xlink" x="0px" y="0px" width="271.167px"
	 height="271.167px" viewBox="291.273 68.65 271.167 271.167" enable-background="new 291.273 68.65 271.167 271.167"
	 xml:space="preserve">
<metadata>
	<sfw  xmlns="&ns_sfw;">
		<slices></slices>
		<sliceSourceBounds  width="271.167" height="271.167" y="160.684" x="290.773" bottomLeftOrigin="true"></sliceSourceBounds>
	</sfw>
</metadata>
<title>TARGET 1 B copy 6</title>
<g id="TARGETS">
	<g>
		<rect x="291.273" y="68.65" fill="#FD6925" width="271.167" height="271.167"/>
	</g>
	<g>
		<g>
			<path fill="#FFFFFF" d="M524.683,228.547l-26.315-14.874c-0.572-0.286-1.43-0.286-2.002,0l-15.16,8.867V204.52
				c0-0.572-0.286-1.145-0.858-1.431l-25.458-14.588v-29.462c0-0.572-0.286-1.145-0.857-1.431l-15.446-8.867l15.732-9.153
				c0.571-0.286,1.144-1.145,0.857-1.716v-30.035c0-0.857-0.286-1.43-1.144-1.716l-26.316-14.874c-0.572-0.286-1.43-0.286-2.002,0
				l-26.316,14.874c-0.572,0.286-1.144,1.145-0.858,1.716v29.749c0,0.857,0.286,1.43,0.858,1.716l15.732,9.153l-15.732,9.153
				c-0.572,0.286-0.858,0.858-0.858,1.431v29.176l-25.458,14.588c-0.572,0.286-0.858,0.858-0.858,1.431v18.021l-15.16-8.581
				c-0.572-0.286-1.43-0.286-2.002,0l-25.744,15.16c-0.572,0.286-1.144,1.144-1.144,1.716v29.748c0,0.858,0.286,1.431,1.144,1.717
				l26.316,15.16c0.286,0.286,0.572,0.286,0.858,0.286c0.286,0,0.572,0,1.144-0.286l26.316-15.16
				c0.572-0.286,0.858-1.145,0.858-1.717v-17.734l15.16,8.581c0.286,0,0.572,0.286,0.858,0.286s0.572,0,0.858-0.286l25.457-14.588
				l25.458,14.588c0.572,0.286,1.145,0.286,1.717,0l15.16-8.581v17.734c0,0.858,0.285,1.431,0.857,1.717l26.316,15.16
				c0.286,0.286,0.571,0.286,1.144,0.286c0.286,0,0.572,0,0.858-0.286l26.315-15.16c0.572-0.286,1.145-1.145,0.858-1.717v-30.034
				C525.541,229.691,525.255,228.833,524.683,228.547z M356.491,243.135l-22.311-12.586l22.311-12.586l22.025,12.586
				L356.491,243.135z M358.493,272.026v-25.458l22.025-12.586v25.172L358.493,272.026z M399.111,246.854l-14.302-8.296v-8.295
				c0-0.858-0.286-1.43-0.858-1.716l-7.723-4.291V207.38l22.883,13.157V246.854z M473.195,233.982l22.312,12.586v25.458
				l-22.312-12.872V233.982z M499.512,272.026v-25.458l22.024-12.586v25.172L499.512,272.026z M451.456,161.9v24.313l-20.881-12.014
				L451.456,161.9z M434.58,146.167l-5.435-3.146v-19.165l22.025-12.586v25.172L434.58,146.167z M402.83,136.442V111.27
				l22.311,12.586v19.165l-5.435,3.146L402.83,136.442z M402.543,161.9l20.881,12.014l-20.881,12.014V161.9z M402.543,246.854
				V222.54l20.881,12.014L402.543,246.854z M425.427,231.694l-20.881-12.014l20.881-12.014V231.694z M425.427,201.373
				l-20.881-12.014l20.881-12.014V201.373z M428.859,177.06l20.881,12.014l-20.881,12.014V177.06z M453.173,217.391l-22.598-13.157
				l22.884-13.158l22.883,13.158L453.173,217.391z M454.889,246.568v-26.03l22.884-13.157v17.162l-7.724,4.291
				c-0.571,0.286-1.144,1.144-0.857,1.716v8.009L454.889,246.568z"/>
		</g>
		<g>
			<path fill="#FFFFFF" d="M384.809,178.49v-30.034c0-0.858-0.286-1.43-0.858-1.716l-26.316-14.875c-0.572-0.285-1.43-0.285-2.002,0
				l-26.316,14.875c-0.572,0.286-1.144,1.144-1.144,1.716v29.748c0,0.858,0.286,1.431,1.144,1.717l26.316,15.16
				c0.286,0.286,0.572,0.286,1.144,0.286c0.286,0,0.572,0,1.144-0.286l26.316-15.16C384.523,179.92,384.809,179.062,384.809,178.49z
				 M354.489,189.931l-22.025-12.585v-25.458l22.311,12.586L354.489,189.931z M356.491,161.041l-22.311-12.586l22.311-12.586
				l22.025,12.586L356.491,161.041z"/>
		</g>
		<g>
			<path fill="#FFFFFF" d="M524.683,147.026l-26.315-14.875c-0.572-0.286-1.43-0.286-2.002,0l-26.316,15.16
				c-0.571,0.286-1.144,1.145-0.857,1.717v29.748c0,0.858,0.286,1.431,0.857,1.717l26.316,15.16
				c0.286,0.285,0.572,0.285,1.144,0.285c0.286,0,0.572,0,0.858-0.285l26.315-15.16c0.572-0.286,1.145-1.145,0.858-1.717v-30.034
				C525.541,148.169,525.255,147.311,524.683,147.026z M495.221,190.503l-22.312-12.872V152.46l22.312,12.586V190.503z
				 M497.509,161.614l-22.311-12.586l22.311-12.586l22.025,12.586L497.509,161.614z"/>
		</g>
		<g>
			<path fill="#FFFFFF" d="M454.317,269.164l-26.03-14.874c-0.572-0.286-1.43-0.286-2.002,0l-26.316,15.16
				c-0.572,0.286-1.144,1.145-1.144,1.717v29.748c0,0.858,0.286,1.43,1.144,1.716l26.316,15.16c0.572,0.286,1.43,0.286,2.002,0
				l26.315-15.16c0.572-0.286,1.145-1.144,1.145-1.716v-30.034C455.175,270.023,454.889,269.45,454.317,269.164z M424.854,312.357
				l-22.311-12.872V274.6l22.311,12.586V312.357z M426.857,283.467l-22.025-12.586l22.311-12.586l22.025,12.586L426.857,283.467z"/>
		</g>
	</g>
</g>
</svg>
