<?xml version="1.0" encoding="utf-8"?>
<!-- Generator: Adobe Illustrator 16.0.3, SVG Export Plug-In . SVG Version: 6.00 Build 0)  -->
<!DOCTYPE svg PUBLIC "-//W3C//DTD SVG 1.1//EN" "http://www.w3.org/Graphics/SVG/1.1/DTD/svg11.dtd" [
	<!ENTITY ns_extend "http://ns.adobe.com/Extensibility/1.0/">
	<!ENTITY ns_ai "http://ns.adobe.com/AdobeIllustrator/10.0/">
	<!ENTITY ns_graphs "http://ns.adobe.com/Graphs/1.0/">
	<!ENTITY ns_vars "http://ns.adobe.com/Variables/1.0/">
	<!ENTITY ns_imrep "http://ns.adobe.com/ImageReplacement/1.0/">
	<!ENTITY ns_sfw "http://ns.adobe.com/SaveForWeb/1.0/">
	<!ENTITY ns_custom "http://ns.adobe.com/GenericCustomNamespace/1.0/">
	<!ENTITY ns_adobe_xpath "http://ns.adobe.com/XPath/1.0/">
]>
<svg version="1.1" id="Layer_1" xmlns:x="&ns_extend;" xmlns:i="&ns_ai;" xmlns:graph="&ns_graphs;"
	 xmlns="http://www.w3.org/2000/svg" xmlns:xlink="http://www.w3.org/1999/xlink" x="0px" y="0px" width="301.719px"
	 height="301.719px" viewBox="275.981 76.384 301.719 301.719" enable-background="new 275.981 76.384 301.719 301.719"
	 xml:space="preserve">
<metadata>
	<sfw  xmlns="&ns_sfw;">
		<slices></slices>
		<sliceSourceBounds  width="301.719" height="301.719" y="122.397" x="275.481" bottomLeftOrigin="true"></sliceSourceBounds>
	</sfw>
</metadata>
<title>TARGET 1 B copy 3</title>
<g id="TARGETS">
	<g>
		<rect x="275.981" y="76.384" fill="#FD9D24" width="301.719" height="301.719"/>
	</g>
	<g>
		<g>
			<path fill="#FFFFFF" d="M537.917,325.906c-27.053-1.909-54.424-0.636-81.159,4.456c-5.092,0.955-9.548,1.592-14.321,2.228
				c-6.048-2.228-7.002-6.047-6.685-7.32l0.955-5.729l0,0c0.318-0.955,0.955-1.909,1.592-2.546c2.228-1.91,4.455-1.592,7.956-1.91
				c2.229,0,4.456-0.636,6.366-2.228c1.591-1.273,2.546-2.546,1.909-3.501s-1.273-0.637-1.909-0.637c-0.637,0-1.91,1.91-2.547,2.229
				s-0.318-0.318-0.318-0.318c0-1.273,0.637-2.546,1.592-3.819c0.637-0.637,0.637-1.592,0-2.546l0,0
				c-2.864-1.273-4.456,3.501-4.456,4.455c0,0.955-0.637,3.183-1.591,3.501c-1.592,0-3.501,0.318-5.093,0.637
				c-0.637,0.318-0.318-0.318-0.318-0.318l6.365-8.593c0.955-0.955,0.318-1.273,4.456-3.183c2.228-0.637,4.456-2.229,6.047-3.819
				c1.273-1.273,1.91-2.228,0.637-3.183c-1.272-0.955-2.864,1.273-3.819,2.228c-0.637,0.637-1.272,0.955-1.909,0.955
				c0.318-1.273,0.637-2.228,1.591-3.183c0.637-0.637,0.318-1.592-0.318-2.228l0,0c-0.636-0.637-1.591-0.318-2.228,0.318
				c-1.272,0.954-1.909,3.818-2.228,5.41c-0.318,1.591-1.91,2.228-2.864,2.864c-0.955,1.273-1.91,2.228-2.865,3.501
				c-0.317,0.637-3.183,3.819-3.183,3.819l0,0c-0.318-3.183,0.318-6.684,2.229-9.23c3.183-4.455,6.047-9.229,4.137-15.276
				c0,0-0.954-2.546-2.864-1.909c-1.909,0.636-1.591,1.909-0.954,3.501c0.318,1.591,0.318,3.183-0.318,4.773
				c-0.318-0.637-0.637-0.955-0.955-1.591c-1.273-1.273-1.909-2.864-1.909-4.774c0,0-0.955-1.909-2.229-1.273
				c-1.272,0.637-1.591,1.592-1.272,3.819l3.183,7.32c0.636,1.91,0.318,1.91-0.318,2.546c-0.637,0.955-1.273,1.91-1.91,2.864
				c-0.318,0.637-0.318,0.637-0.636-0.318c-0.637-1.909-1.273-3.818-2.229-5.729c-0.637-1.272-2.546-2.546-2.228-4.773
				c0.637-2.546,0.318-5.093-0.637-7.639c0,0-0.955-1.909-2.546-1.273c-0.955,0.318-1.592,1.592-1.273,2.547l0,0
				c0.637,1.591,0.637,2.864,0.637,4.455c-0.955-0.318-1.592-1.272-1.91-2.228c-0.636-1.592-2.228-5.092-4.137-4.138
				c-1.91,0.955-1.592,2.229-0.637,4.138c1.273,2.864,3.183,5.41,5.729,7.32c4.456,3.819,3.819,3.819,4.138,5.729
				s4.456,13.367,4.456,13.367s0,0.637-0.637,0c-1.91-0.955-4.138-1.909-6.047-2.546c-1.273-0.637-0.955-3.501-0.637-5.093
				c0.318-1.591,0-8.274-3.501-7.319c-1.273,0.318-1.91,1.909-1.273,2.864c0,0,0,0,0,0.317c0.637,1.592,0.637,3.501,0.318,5.411
				c0,0,0,0.955-0.637,0.318s-1.591-3.501-2.546-3.819c-0.955-0.318-0.955-0.637-2.546,0.318c-1.592,0.955-0.637,2.864,0.955,5.092
				c1.591,2.547,4.137,4.456,7.001,5.411c4.138,1.909,3.819,3.183,6.048,6.684c1.272,2.228,1.272,5.092-0.318,7.32
				c-0.637,1.272-1.273,2.546-2.229,3.819c-0.954,1.909-2.864,3.501-4.773,4.455c-1.592,0.637-2.864,1.273-4.456,1.91
				c-17.187,0.954-31.508,0.318-49.013,2.228c-9.23,0.955-16.55,1.592-22.916,1.909c-0.636-2.546,0-5.092,1.591-7.319
				c1.273-1.592,3.501-2.229,5.729-1.592c1.273,0.318,2.228,3.819,2.864,5.41c0.637,1.592,1.591,0.637,1.91-0.317
				c0-0.955-0.318-2.229-0.636-3.184c-0.318-0.954,0-0.954,0.955-0.636s1.591,0.954,2.864,1.591
				c1.273,0.637,2.546,0.318,2.546-0.955c0-1.272-1.273-1.272-2.546-1.909c-1.273-0.637-1.91-0.637-0.955-1.591
				c0.955-0.637,1.273-1.91,0.955-2.865c-0.318-0.954-1.591-1.272-2.864,0.637c-1.273,1.91-2.864,1.91-3.183,0.637
				s2.228-4.138,3.183-5.729c0.955-1.592,2.864-2.547,4.774-2.865c1.91-0.636,2.865-0.636,2.865-1.272s-2.228-0.637-3.183-0.637
				c-0.636,0-1.273-0.318-1.591-1.273v-0.318c0-0.954,1.591-2.228,2.865-3.501c1.273-1.272,1.591-1.909,0.955-2.864
				c-0.637-0.954-2.228-0.636-3.501,0.637c-0.955,0.955-1.91,2.228-2.864,3.501c-0.637,0.637-1.273-0.637-1.91-1.591
				c-0.637-0.955-1.91-1.592-2.546-0.955c-0.636,0.637,0,1.272,0.955,2.228c0.955,1.273,1.591,2.864,1.591,4.456
				c0,1.591-0.955,3.183-2.546,3.819c-0.636,0.318-0.636-2.229-1.91-2.229c-1.273,0-1.591,1.592-1.591,3.819
				c0,2.229-2.228,3.183-3.183,1.91c-1.273-1.91-1.91-4.138-1.91-6.365c0-1.592,2.228-3.183,3.501-4.138
				c1.273-0.955,3.183-1.273,2.228-2.546c-0.955-1.273-4.774,0.317-6.047,1.909c-1.273,1.592-1.91,0.955-2.228,0.318
				c-0.318-1.592-0.318-3.183,0-4.774c0.637-2.228,2.546-3.819,5.092-4.138c1.91,0,3.819,0.955,5.411,2.229
				c0.636,0.637,1.91,0.637,2.228-0.318c0.318-0.955-1.909-2.228-2.864-2.864c-0.955-0.637-1.591-0.637-1.273-1.273
				s2.864-1.909,3.819-2.228c0.955-0.318,2.864-1.273,1.591-2.546c-1.273-1.273-4.456,0.954-5.411,1.272s-0.637-1.909-0.955-2.228
				c-0.318-0.318,0-2.546-1.592-2.546c-1.591,0-1.273,2.864-1.591,4.455c-0.318,1.592-1.273,1.273-3.183,2.864
				c-1.273,1.273-2.864,2.547-3.819,3.819c-0.636,0.637-0.955-0.954-0.955-3.501c0-1.909,0.318-3.818,1.273-5.41
				c1.273-1.273,2.546-2.546,4.138-3.501c0.318-0.318,0.636-0.955,0.318-1.272c-0.318-0.318-0.955-0.637-1.273-0.318l0,0
				c-1.273,0.636-2.228,0.954-2.864,0.318c-0.637-0.637,0.637-2.547,1.591-4.138c0.955-1.592,0.955-3.501-0.318-4.138
				c-1.273-0.637-2.864,0.955-3.183,2.546c-0.318,1.592-1.273,1.592-1.91,0.318c-0.636-1.273-1.591-1.591-1.91-1.273
				c-0.318,0.318-0.955,0.637,0.318,2.229c0.955,1.272,1.273,2.864,1.273,4.455c0,1.273-0.955,1.592-1.91,0.955
				c-0.955-0.637-2.228-1.272-2.546-0.637c-0.318,0.637,0.637,1.592,1.91,1.91s0.955,2.546,1.273,3.501
				c0.318,0.954-0.318,1.591-1.273,1.272c-1.591-0.636-2.864-2.228-3.183-3.818c0-0.955,0-1.91-0.318-2.865
				c-0.318-0.636-1.591-0.317-1.591,0.637c0,0.955,0,2.229,0,3.183c-0.318,0.637-1.591-0.318-3.183-0.954
				c-1.591-0.637-3.183,0-3.183,0.954c0,0.955,3.183,2.546,3.819,2.546c0.637,0,1.273,0.637,0.955,1.273s-1.91,1.592-2.546,2.228
				c-0.636,0.637,0.318,1.91,1.273,0.955c1.273-0.955,2.546-1.909,4.137-1.909c1.273,0,2.228,0.636,2.865,1.591
				c0.318,0.637-0.637,0.955-1.91,1.273c-1.273,0.318-1.591,0.954-1.591,1.591s0.318,0.955,1.591,0.637
				c0.955-0.318,1.91-0.637,2.864-0.637c1.273,0,1.591,1.273,1.591,1.273c0.637,2.228,3.501,8.911,3.819,9.866s0,1.909-1.273,1.909
				c-1.273,0-2.865,0-2.865,1.273s2.865,1.273,4.456,1.273s1.591,1.909,1.909,4.138c0.318,2.228-2.546,2.546-4.137,1.272
				c-2.228-1.909-4.138-4.456-5.729-6.684c-0.318-1.273-0.318-2.546,0.637-3.501c0.637-0.955,1.591-0.637,2.228-0.955
				c0.636-0.317,0.636-0.954,0.318-1.591l0,0c-0.318-0.637-1.909,0-2.228,0.637s-1.273,0.637-1.273,0s0.318-2.547,0.318-3.183
				c0-0.637-0.318-1.592-1.591-0.955s-1.273,5.729-1.273,7.639c0,1.909-0.955,2.228-1.591,1.909
				c-1.273-0.955-2.228-1.909-3.183-3.183c-0.318-0.955-0.318-1.273,0.636-2.864c0.637-0.637,0.955-1.273,1.273-2.228
				c0-0.637-0.955-0.955-1.273-0.318c-0.318,0.636-0.955,1.272-1.591,1.591c-0.636,0-0.318-2.546-0.318-2.864s0-1.273-0.955-1.273
				c-0.955,0-0.637,2.865-0.637,3.183c0,0.318-0.955,0.318-2.228,0.318c-1.273,0-1.591,1.273-0.637,1.273
				c0.955,0,1.91,0.318,2.864,0.955c0.637,0.318,0.637,2.546,0.318,3.183s-1.273,0-3.183,0s-3.819,0-3.819,0.954
				c0,0.955,1.273,2.229,3.183,2.229c1.91,0,3.501-0.318,3.819,0.318s-0.318,0.637-0.955,1.272c-0.637,0.637-0.955,1.273-0.318,1.91
				s1.591,0.318,2.546-0.318c0.636-0.955,1.909-1.273,3.183-0.955c1.591,0.318,3.183,0.955,4.456,1.91
				c0.955,0.636,0.318,1.591-0.637,1.909c-1.273,0.318-2.546,0.955-3.501,1.91c-0.955,0.954-2.228,0.954-3.183,0
				c-0.955-0.637-2.228-1.592-2.546-0.955s0.636,1.909,1.273,2.228s0.955,0.318,0.318,1.273c-0.637,0.954-1.591,1.909-2.546,2.546
				c-0.318,0.318-0.636,1.273,0,1.592c0.318,0.317,0.637,0.317,0.955,0.317c1.273-0.636,2.546-1.591,3.819-2.864
				c0.318-0.318,0.636-0.954,0.955,0c0,0.955,0,1.592,0,2.547c0,0.636-0.318,1.272,0.318,1.591c0.318,0,0.955,0,1.273-0.637
				c0-0.637,0.318-1.591,0.318-2.546c0-1.273,0.318-2.864,1.273-3.819c1.273-1.272,3.819-0.637,5.729-0.637s1.91,1.273,1.91,2.229
				c0,0.954-2.228,1.909-2.865,2.546c-0.636,0.637-2.228,0.637-1.591,1.909c0.637,1.273,0.955,0.637,1.591,0.637
				c0.637,0,2.546-1.909,3.819-2.228s2.546,0,3.501,2.864c0.318,1.273,0.955,2.228,1.273,3.501c-10.503,0.318-18.459-0.318-28.326,0
				c-12.094,0-15.277,3.183-15.277,5.092v2.547c0,1.909,0.955,2.864,3.819,2.864H553.83c2.228,0,3.819-0.637,3.819-2.864v-0.637l0,0
				v-13.049C555.421,327.498,555.104,327.817,537.917,325.906z"/>
		</g>
		<g>
			<path fill="#FFFFFF" d="M547.146,314.131c-3.501-4.774-3.501-10.821,0-15.596c0,0,0,0,0-0.318c0,0,0-0.318-0.318-0.318l0,0
				c-3.501,0.637-6.365,2.865-8.275,6.048c0,0-7.001-6.048-13.686-6.048c-7.638,0-13.049,7.002-14.003,8.275l0,0l0,0l0,0l0,0
				c0.954,1.273,6.365,8.275,14.003,8.275c6.685,0,13.686-6.048,13.686-6.048C540.463,311.267,543.327,313.494,547.146,314.131
				L547.146,314.131L547.146,314.131L547.146,314.131L547.146,314.131z M520.73,307.129c-1.273,0-2.229-0.955-2.229-2.229
				c0-1.272,0.955-2.228,2.229-2.228c1.272,0,2.228,0.955,2.228,2.228C522.958,306.174,522.003,307.129,520.73,307.129z"/>
		</g>
		<g>
			<path fill="#FFFFFF" d="M398.515,319.223c0,0,5.092-3.501,5.411-3.501c0.318,0,1.273-0.636,0.955-1.272s-1.273-0.637-1.273-0.637
				h-7.32c-1.273,0-1.273-1.273-1.273-1.273c-0.318-2.228-1.273-4.138-2.228-6.047c-0.637-0.955-0.955-0.955-1.273-0.955
				s-0.637,0.318-0.637,1.273c0,1.909-0.636,3.501-0.955,5.41c-0.637,1.592-1.273,1.592-2.546,1.592s-5.411,0-5.411,0
				c-0.318,0-0.636,0-0.955,0s-0.955,0.318-0.955,0.637s0,0.636,0.318,0.954c0.955,0.637,5.092,2.865,6.047,3.501
				c0.636,0.318,0.955,1.273,0.955,1.91c0,0.318-2.228,5.41-2.546,6.365c-0.318,0.955,0.318,1.273,0.318,1.273
				c0.637,0.317,1.592-0.318,1.592-0.318c1.909-0.955,4.456-3.183,5.41-4.138c0.318-0.318,1.273-0.637,1.591,0l0,0
				c1.591,1.591,3.501,3.183,5.411,4.456c0.318,0.317,0.955,0.317,1.273,0c0.636-0.318,0-1.273,0-1.273s-1.592-5.093-2.228-6.365
				C397.56,319.541,398.515,319.223,398.515,319.223z"/>
		</g>
		<g>
			<path fill="#FFFFFF" d="M484.129,304.901c0-0.954-0.954-1.909-1.909-1.909s-1.91,0.955-1.91,1.909c0,0.955,0.955,1.91,1.91,1.91
				S484.129,306.174,484.129,304.901L484.129,304.901z"/>
		</g>
		<g>
			<path fill="#FFFFFF" d="M496.542,291.216c0-2.547-1.91-4.774-4.456-4.774s-4.774,1.91-4.774,4.456s1.91,4.773,4.456,4.773l0,0
				C494.632,295.99,496.542,294.08,496.542,291.216z"/>
		</g>
		<g>
			<polygon fill="#FFFFFF" points="451.984,139.402 476.491,148.949 483.175,142.584 495.269,159.452 506.408,143.858 
				536.007,187.46 546.191,187.46 544.919,185.233 506.727,129.217 495.269,145.448 466.307,105.347 406.79,187.46 417.611,187.46 
							"/>
		</g>
		<g>
			<path fill="#FFFFFF" d="M499.088,205.283h3.183c0,0,0.318,0,0.318-0.318l0,0v-7.32h7.957c0.318,0,0.636-0.318,0.636-0.637
				c0,0,0,0,0-0.318l-9.548-31.509l0,0c0-0.317-0.318-0.317-0.637-0.317c0,0-0.318,0-0.318,0.317v0.318l-9.866,31.827v0.318
				c0,0.318,0.318,0.637,0.637,0.637h7.957L499.088,205.283L499.088,205.283z"/>
		</g>
		<g>
			<path fill="#FFFFFF" d="M473.626,205.283h3.184c0,0,0.317,0,0.317-0.318l0,0v-7.32h7.957c0.318,0,0.637-0.318,0.637-0.637
				c0,0,0,0,0-0.318l-9.548-31.509l0,0c0-0.317-0.318-0.317-0.637-0.317s-0.318,0-0.318,0.317v0.318l-9.866,31.509v0.318
				c0,0.318,0.318,0.637,0.637,0.637h7.956L473.626,205.283C473.944,205.283,473.626,205.283,473.626,205.283z"/>
		</g>
		<g>
			<path fill="#FFFFFF" d="M447.847,205.283h3.183c0,0,0.318,0,0.318-0.318l0,0v-7.32h7.957c0.317,0,0.636-0.318,0.636-0.637
				c0,0,0,0,0-0.318l-9.866-31.19l0,0c0-0.318-0.318-0.318-0.637-0.318c-0.317,0-0.317,0-0.636,0.318l0,0l-9.866,31.509v0.318
				c0,0.318,0.317,0.637,0.636,0.637h7.957L447.847,205.283L447.847,205.283z"/>
		</g>
		<g>
			<path fill="#FFFFFF" d="M468.853,280.395c0-0.955-0.955-1.91-1.91-1.91c-0.954,0-1.909,0.955-1.909,1.91s0.955,1.909,1.909,1.909
				C467.897,282.304,468.853,281.667,468.853,280.395z"/>
		</g>
		<g>
			<path fill="#FFFFFF" d="M317.675,176.002v-27.053h0.318c0.636,0,0.955-0.637,0.955-0.954l0,0v-4.138h-11.139v4.138
				c0,0.636,0.636,0.954,0.955,0.954l0,0h0.318v27.053H317.675z"/>
		</g>
		<g>
			<path fill="#FFFFFF" d="M342.5,176.002v-27.053h0.318c0.637,0,0.955-0.637,0.955-0.954l0,0v-4.138h-11.14v4.138
				c0,0.636,0.637,0.954,0.955,0.954l0,0h0.318v27.053H342.5z"/>
		</g>
		<g>
			<path fill="#FFFFFF" d="M367.325,176.002v-27.053h0.318c0.636,0,0.955-0.637,0.955-0.954l0,0v-4.138h-11.139v4.138
				c0,0.636,0.636,0.954,0.955,0.954l0,0h0.318v27.053H367.325z"/>
		</g>
		<g>
			<path fill="#FFFFFF" d="M392.149,176.002v-27.053h0.318c0.637,0,0.955-0.637,0.955-0.954l0,0v-4.138h-11.14v4.138
				c0,0.636,0.637,0.954,0.955,0.954l0,0h0.318v27.053H392.149z"/>
		</g>
		<g>
			<path fill="#FFFFFF" d="M302.398,187.779h94.208v-4.456h-3.183v-4.138c0-0.318-0.318-0.636-0.637-0.636h-86.569
				c-0.318,0-0.637,0.317-0.637,0.636v4.138h-3.183V187.779z"/>
		</g>
		<g>
			<path fill="#FFFFFF" d="M300.807,135.582h98.345l1.91-1.909c0.637-0.637,0.637-1.592,0-1.91l-0.318-0.318l-50.923-19.096
				l-50.923,19.096c-0.637,0.318-0.955,1.273-0.637,1.91c0,0,0,0.318,0.318,0.318L300.807,135.582z"/>
		</g>
		<g>
			<polygon fill="#FFFFFF" points="393.423,138.128 349.184,138.128 304.944,138.128 304.944,140.675 349.184,140.675 
				393.423,140.675 			"/>
		</g>
		<g>
			<path fill="#FFFFFF" d="M299.533,215.786h254.615c0.955,0,1.909,0.954,1.909,1.909v8.275c0,0.954-0.954,1.909-1.909,1.909
				H299.533c-0.955,0-1.909-0.955-1.909-1.909v-8.275C297.942,216.74,298.579,215.786,299.533,215.786z"/>
		</g>
		<g>
			<path fill="#FFFFFF" d="M553.83,244.748L553.83,244.748l-1.273,0.318c-7.956,4.138-33.1,13.686-55.696-7.957
				c-0.318-0.317-0.955-0.636-1.273-0.636s-0.955,0.318-1.273,0.636c-6.684,5.093-37.874,26.099-65.563,0.318l-0.318-0.318
				c-0.318-0.317-0.637-0.317-1.273-0.317c-0.318,0-0.637,0.317-0.955,0.317l-0.318,0.318c-27.689,25.78-58.879,4.774-65.563-0.318
				c-0.318-0.317-0.637-0.636-1.273-0.636c-0.637,0-0.955,0.318-1.273,0.636c-22.597,21.643-47.74,11.776-55.697,7.957l-0.637-0.318
				h-0.955c-0.955,0-1.591,0.637-1.591,1.592l0,0v8.274c0,0.318,0,0.955,0.318,0.955c26.098,22.915,51.241,1.592,56.97-4.138
				c0.318-0.318,0.318-0.318,0.637-0.637c0.318-0.317,0.637-0.317,0.955-0.317c0.318,0,0.955,0.317,0.955,0.636
				c29.599,28.326,60.789,5.411,67.154,0l0.637-0.636c0-0.318,0.318-0.318,0.637-0.318s0.637,0,0.637,0.318l0.637,0.636
				c6.365,5.411,37.556,28.326,67.154,0l0,0c0.637-0.318,1.273-0.318,1.909,0c0.318,0,0.318,0.318,0.318,0.318
				c5.729,5.729,30.554,27.053,56.652,4.138c0.318-0.318,0.637-0.637,0.637-0.955v-8.593
				C555.421,245.385,554.785,244.748,553.83,244.748L553.83,244.748"/>
		</g>
	</g>
</g>
</svg>
