<?xml version="1.0" encoding="utf-8"?>
<!-- Generator: Adobe Illustrator 16.0.3, SVG Export Plug-In . SVG Version: 6.00 Build 0)  -->
<!DOCTYPE svg PUBLIC "-//W3C//DTD SVG 1.1//EN" "http://www.w3.org/Graphics/SVG/1.1/DTD/svg11.dtd" [
	<!ENTITY ns_extend "http://ns.adobe.com/Extensibility/1.0/">
	<!ENTITY ns_ai "http://ns.adobe.com/AdobeIllustrator/10.0/">
	<!ENTITY ns_graphs "http://ns.adobe.com/Graphs/1.0/">
	<!ENTITY ns_vars "http://ns.adobe.com/Variables/1.0/">
	<!ENTITY ns_imrep "http://ns.adobe.com/ImageReplacement/1.0/">
	<!ENTITY ns_sfw "http://ns.adobe.com/SaveForWeb/1.0/">
	<!ENTITY ns_custom "http://ns.adobe.com/GenericCustomNamespace/1.0/">
	<!ENTITY ns_adobe_xpath "http://ns.adobe.com/XPath/1.0/">
]>
<svg version="1.1" id="Layer_1" xmlns:x="&ns_extend;" xmlns:i="&ns_ai;" xmlns:graph="&ns_graphs;"
	 xmlns="http://www.w3.org/2000/svg" xmlns:xlink="http://www.w3.org/1999/xlink" x="0px" y="0px" width="500px" height="500px"
	 viewBox="177 0 500 500" enable-background="new 177 0 500 500" xml:space="preserve">
<metadata>
	<sfw  xmlns="&ns_sfw;">
		<slices></slices>
		<sliceSourceBounds  width="500" height="500" y="0.5" x="176.5" bottomLeftOrigin="true"></sliceSourceBounds>
	</sfw>
</metadata>
<title>TARGET 1 B copy 10</title>
<g id="TARGETS">
	<g>
		<rect x="177" y="0" fill="#00689D" width="500" height="500"/>
	</g>
	<g>
		<g>
			<g>
				<path fill="#FFFFFF" d="M243.983,207.806H427c1.582,0,3.165,1.582,3.165,3.164v7.385c0,1.582-1.583,3.164-3.165,3.164H243.983
					c-1.582,0-3.165-1.582-3.165-3.164v-7.385C240.818,209.388,241.874,207.806,243.983,207.806z"/>
			</g>
			<g>
				<path fill="#FFFFFF" d="M243.983,345.464H427c1.582,0,3.165,1.582,3.165,3.164v14.769c0,1.582-1.583,3.164-3.165,3.164H243.983
					c-1.582,0-3.165-1.582-3.165-3.164v-14.769C240.818,347.046,241.874,345.464,243.983,345.464z"/>
			</g>
			<g>
				<path fill="#FFFFFF" d="M243.983,199.367H427c1.582,0,2.637-1.583,2.637-2.638v-1.582
					c-11.603-51.688-63.291-84.389-114.979-72.785c-36.393,7.912-64.874,36.393-72.785,72.785c0,0.527-0.527,1.055-0.527,1.055l0,0
					C241.346,197.784,242.401,198.84,243.983,199.367z"/>
			</g>
			<g>
				<path fill="#FFFFFF" d="M421.198,337.025c1.582,0,3.165-1.582,3.165-3.164l0,0v-99.156c0-1.582-1.583-3.164-3.165-3.164l0,0
					H250.84c-1.583,0-3.165,1.582-3.165,3.164l0,0v99.156c0,1.582,1.582,3.164,3.165,3.164l0,0H421.198L421.198,337.025z
					 M371.62,244.726h29.009v78.586H371.62V244.726z M322.042,244.726h29.009v78.586h-29.009V244.726z M272.992,244.726H302v78.586
					h-29.008V244.726z"/>
			</g>
			<g>
				<path fill="#FFFFFF" d="M345.776,107.595c6.329,0,13.186,2.109,17.933,6.329c4.747,3.164,10.021,4.747,15.823,5.274h13.713
					V84.388h-13.713c-10.549,0-14.768-3.691-21.097-8.438c-4.747-2.638-10.021-4.22-15.295-4.22h-8.966v34.811
					C338.393,107.068,342.084,107.068,345.776,107.595z"/>
			</g>
		</g>
		<g>
			<path fill="#FFFFFF" d="M495.038,180.38v97.573c-3.165,1.055-6.329,2.11-8.967,3.692v-80.696h-8.438v86.498
				c-2.109,1.582-3.692,3.164-5.274,4.746l0,0c-12.658,13.186-17.405,32.173-12.658,49.578c2.11,7.911,5.802,15.296,11.604,21.098
				l-42.194,54.324c-2.637,3.165-2.109,7.384,1.056,10.021l0,0c3.164,2.637,7.384,2.109,10.021-1.055l0,0l41.14-53.798
				c20.042,12.658,45.886,10.549,62.764-5.274h51.688v-10.021h-43.249c2.109-3.165,3.692-6.329,5.274-10.021h55.907V180.38H495.038z
				 M523.519,367.615l-1.582,0.527c-1.055,0-1.582,0.527-2.637,0.527l-1.055,0.528c-1.056,0-2.11,0.527-3.165,0.527h-1.055
				c-1.055,0-2.109,0-3.165,0h-1.055h-3.164h-1.055l-2.11-0.527h-2.109h-1.055l-1.055-0.528l-2.11-0.527l-1.582-0.527l-1.582-0.527
				l0,0c-7.385-2.637-13.186-7.911-17.933-14.24l-1.055-1.582l-1.056-1.583l-1.055-1.582c-0.527-0.527-0.527-1.055-1.055-2.109
				s-0.527-1.055-0.527-1.582c0-0.528-0.527-1.583-0.527-2.638l-0.527-1.582c0-1.055-0.527-1.582-0.527-2.638
				c0-0.527,0-0.527,0-1.055c0-1.055-0.527-2.109-0.527-2.637v-1.055c0-1.055,0-2.11,0-2.638s0-1.055,0-1.055
				c0-1.055,0-1.582,0-2.637s0-1.055,0-1.583c0-0.527,0-1.582,0-2.109s0-1.055,0.527-2.109c0-0.527,0-0.527,0-1.055
				c0-0.528,0-0.528,0-1.056s0.527-1.582,0.527-2.109s0.527-1.055,0.527-1.582s0.527-1.582,1.055-2.11
				c0.527-0.527,0.527-1.055,0.527-1.582s0.527-1.055,1.055-2.109l1.056-1.582c0.527-0.527,0.527-1.056,1.055-1.583l1.055-1.582
				c0,0,0-0.527,0.527-0.527l0,0c2.637-3.164,5.274-5.802,8.966-7.911l0,0l1.583-1.055l1.055-0.527l2.109-1.055l1.582-0.527
				l2.11-1.056c5.802-2.109,11.604-3.164,17.933-3.164h1.582l2.109,0.527l2.11,0.527h1.055h1.055l2.109,0.527h1.055l2.11,1.055
				l1.582,1.055l1.582,1.056l1.583,1.055l0.527,0.527l0,0c4.746,3.164,8.438,6.856,11.604,11.075l0,0
				c0,0.527,0.527,0.527,0.527,1.056l1.055,1.055c0.527,0.527,1.055,1.582,1.055,2.109l0.527,1.055
				c0.527,1.055,0.527,1.583,1.055,2.11s0.527,1.055,0.527,1.582s0.527,1.582,0.527,2.109s0.527,1.055,0.527,2.11
				c0,1.055,0,1.055,0.527,1.582l0,0c1.056,5.802,1.056,11.604,0,16.878c-0.527,3.164-1.582,6.329-3.164,8.966l0.527,1.582
				l-1.582,2.11c-0.527,0.527-0.527,0.527-0.527,1.055s-1.055,1.582-1.583,2.637l-0.527,0.527
				C537.232,360.232,530.903,364.979,523.519,367.615z M599.469,319.62c0,0.527-0.528,0.527-1.056,0.527h-37.975
				c-1.055-5.274-2.637-10.549-4.746-15.296h42.721c0.527,0,1.056,0,1.056,0.527V319.62z M599.469,293.249
				c0,0.527-0.528,0.527-1.056,0.527H547.78c-1.055-1.055-1.582-2.11-2.637-3.165c-5.802-5.802-13.186-10.021-21.098-12.131h73.84
				c0.527,0,1.055,0.527,1.055,0.527L599.469,293.249z M599.469,267.933c0,0.527-0.528,0.527-1.056,0.527h-88.08
				c-0.527,0-1.055,0-1.055-0.527v-14.241c0-0.527,0.527-0.527,1.055-0.527h88.08c0.527,0,1.056,0,1.056,0.527V267.933z"/>
		</g>
	</g>
</g>
</svg>
