<?xml version="1.0" encoding="utf-8"?>
<!-- Generator: Adobe Illustrator 16.0.3, SVG Export Plug-In . SVG Version: 6.00 Build 0)  -->
<!DOCTYPE svg PUBLIC "-//W3C//DTD SVG 1.1//EN" "http://www.w3.org/Graphics/SVG/1.1/DTD/svg11.dtd" [
	<!ENTITY ns_extend "http://ns.adobe.com/Extensibility/1.0/">
	<!ENTITY ns_ai "http://ns.adobe.com/AdobeIllustrator/10.0/">
	<!ENTITY ns_graphs "http://ns.adobe.com/Graphs/1.0/">
	<!ENTITY ns_vars "http://ns.adobe.com/Variables/1.0/">
	<!ENTITY ns_imrep "http://ns.adobe.com/ImageReplacement/1.0/">
	<!ENTITY ns_sfw "http://ns.adobe.com/SaveForWeb/1.0/">
	<!ENTITY ns_custom "http://ns.adobe.com/GenericCustomNamespace/1.0/">
	<!ENTITY ns_adobe_xpath "http://ns.adobe.com/XPath/1.0/">
]>
<svg version="1.1" id="Layer_1" xmlns:x="&ns_extend;" xmlns:i="&ns_ai;" xmlns:graph="&ns_graphs;"
	 xmlns="http://www.w3.org/2000/svg" xmlns:xlink="http://www.w3.org/1999/xlink" x="0px" y="0px" width="500px" height="500px"
	 viewBox="177 0 500 500" enable-background="new 177 0 500 500" xml:space="preserve">
<metadata>
	<sfw  xmlns="&ns_sfw;">
		<slices></slices>
		<sliceSourceBounds  width="500" height="500" y="0.5" x="176.5" bottomLeftOrigin="true"></sliceSourceBounds>
	</sfw>
</metadata>
<title>TARGET 1 B copy 21</title>
<g id="TARGETS">
	<g>
		<rect x="177" y="0" fill="#19486A" width="500" height="500"/>
	</g>
	<g>
		<rect x="578.371" y="354.957" fill="#FFFFFF" width="10.549" height="2.638"/>
	</g>
	<g>
		<rect x="599.469" y="354.957" fill="#FFFFFF" width="10.548" height="2.638"/>
	</g>
	<g>
		<rect x="304.11" y="354.957" fill="#FFFFFF" width="10.548" height="2.638"/>
	</g>
	<g>
		<rect x="283.013" y="354.957" fill="#FFFFFF" width="10.548" height="2.638"/>
	</g>
	<g>
		<rect x="599.469" y="280.064" fill="#FFFFFF" width="10.548" height="2.637"/>
	</g>
	<g>
		<rect x="283.013" y="280.064" fill="#FFFFFF" width="10.548" height="2.637"/>
	</g>
	<g>
		<rect x="578.371" y="280.064" fill="#FFFFFF" width="10.549" height="2.637"/>
	</g>
	<g>
		<rect x="304.11" y="280.064" fill="#FFFFFF" width="10.548" height="2.637"/>
	</g>
	<g>
		<rect x="430.692" y="205.169" fill="#FFFFFF" width="10.548" height="2.637"/>
	</g>
	<g>
		<rect x="599.469" y="205.169" fill="#FFFFFF" width="10.548" height="2.637"/>
	</g>
	<g>
		<rect x="283.013" y="205.169" fill="#FFFFFF" width="10.548" height="2.637"/>
	</g>
	<g>
		<rect x="578.371" y="205.169" fill="#FFFFFF" width="10.549" height="2.637"/>
	</g>
	<g>
		<rect x="558.329" y="354.957" fill="#FFFFFF" width="10.549" height="2.638"/>
	</g>
	<g>
		<rect x="558.329" y="280.064" fill="#FFFFFF" width="10.549" height="2.637"/>
	</g>
	<g>
		<rect x="558.329" y="205.169" fill="#FFFFFF" width="10.549" height="2.637"/>
	</g>
	<g>
		<rect x="388.498" y="205.169" fill="#FFFFFF" width="10.548" height="2.637"/>
	</g>
	<g>
		<rect x="367.401" y="205.169" fill="#FFFFFF" width="10.548" height="2.637"/>
	</g>
	<g>
		<rect x="346.304" y="205.169" fill="#FFFFFF" width="10.549" height="2.637"/>
	</g>
	<g>
		<rect x="325.207" y="205.169" fill="#FFFFFF" width="10.549" height="2.637"/>
	</g>
	<g>
		<rect x="304.11" y="205.169" fill="#FFFFFF" width="10.548" height="2.637"/>
	</g>
	<g>
		<rect x="451.789" y="205.169" fill="#FFFFFF" width="10.549" height="2.637"/>
	</g>
	<g>
		<rect x="473.94" y="205.169" fill="#FFFFFF" width="10.549" height="2.637"/>
	</g>
	<g>
		<rect x="283.013" y="130.275" fill="#FFFFFF" width="10.548" height="2.637"/>
	</g>
	<g>
		<rect x="388.498" y="130.275" fill="#FFFFFF" width="10.548" height="2.637"/>
	</g>
	<g>
		<rect x="430.692" y="130.275" fill="#FFFFFF" width="10.548" height="2.637"/>
	</g>
	<g>
		<rect x="409.595" y="130.275" fill="#FFFFFF" width="10.549" height="2.637"/>
	</g>
	<g>
		<rect x="367.401" y="130.275" fill="#FFFFFF" width="10.548" height="2.637"/>
	</g>
	<g>
		<rect x="304.11" y="130.275" fill="#FFFFFF" width="10.548" height="2.637"/>
	</g>
	<g>
		<rect x="325.207" y="130.275" fill="#FFFFFF" width="10.549" height="2.637"/>
	</g>
	<g>
		<rect x="346.304" y="130.275" fill="#FFFFFF" width="10.549" height="2.637"/>
	</g>
	<g>
		<rect x="472.886" y="130.275" fill="#FFFFFF" width="10.549" height="2.637"/>
	</g>
	<g>
		<rect x="536.177" y="130.275" fill="#FFFFFF" width="10.549" height="2.637"/>
	</g>
	<g>
		<rect x="515.08" y="130.275" fill="#FFFFFF" width="10.549" height="2.637"/>
	</g>
	<g>
		<rect x="557.274" y="130.275" fill="#FFFFFF" width="10.549" height="2.637"/>
	</g>
	<g>
		<rect x="451.789" y="130.275" fill="#FFFFFF" width="10.549" height="2.637"/>
	</g>
	<g>
		<rect x="493.983" y="130.275" fill="#FFFFFF" width="10.548" height="2.637"/>
	</g>
	<g>
		<g opacity="0.6" enable-background="new    ">
			<path fill="#FFFFFF" d="M546.726,425.106V197.784c0-1.582-1.055-3.164-2.637-3.164l0,0h-46.414c-1.582,0-3.164,1.055-3.164,2.637
				l0,0v227.32L546.726,425.106z"/>
		</g>
		<g opacity="0.4" enable-background="new    ">
			<path fill="#FFFFFF" d="M387.971,426.16V283.228c0-1.582-1.583-3.164-3.165-3.164H338.92c-1.583,0-3.165,1.582-3.165,3.164
				V426.16H387.971z"/>
		</g>
		<g>
			<path fill="#FFFFFF" d="M558.856,424.577h-63.818h-27.954V244.726c0-1.582-1.582-3.165-3.164-3.165h-45.886
				c-1.582,0-3.165,1.583-3.165,3.165v179.852H261.916v-66.982h10.549v-2.638h-10.549V282.7h10.549v-2.637h-10.549v-18.46
				l142.405-43.249l74.894-49.051l103.376-24.262l1.055,5.274l2.637,10.548v0.528c0,0.527,1.056,1.055,1.583,1.055
				s0.527,0,0.527-0.527l0,0l22.151-28.481v-0.527c0-0.527,0-0.527,0-1.055s0-0.527-0.527-1.055l0,0h-0.527l-32.7-14.241l0,0l0,0
				c-0.527,0-0.527,0-1.055,0s-1.055,1.056-1.055,1.583l0,0l0,0v0.527l2.637,10.548l1.582,5.802l-101.793,23.734l-75.422,49.051
				l-140.823,42.722v-42.722h10.548v-2.109h-10.548v-72.258h10.548v-2.637h-10.548V75.949h-11.604v360.231h361.814v-11.604H558.856z
				"/>
		</g>
	</g>
</g>
</svg>
