<?xml version="1.0" encoding="utf-8"?>
<!-- Generator: Adobe Illustrator 16.0.3, SVG Export Plug-In . SVG Version: 6.00 Build 0)  -->
<!DOCTYPE svg PUBLIC "-//W3C//DTD SVG 1.1//EN" "http://www.w3.org/Graphics/SVG/1.1/DTD/svg11.dtd" [
	<!ENTITY ns_extend "http://ns.adobe.com/Extensibility/1.0/">
	<!ENTITY ns_ai "http://ns.adobe.com/AdobeIllustrator/10.0/">
	<!ENTITY ns_graphs "http://ns.adobe.com/Graphs/1.0/">
	<!ENTITY ns_vars "http://ns.adobe.com/Variables/1.0/">
	<!ENTITY ns_imrep "http://ns.adobe.com/ImageReplacement/1.0/">
	<!ENTITY ns_sfw "http://ns.adobe.com/SaveForWeb/1.0/">
	<!ENTITY ns_custom "http://ns.adobe.com/GenericCustomNamespace/1.0/">
	<!ENTITY ns_adobe_xpath "http://ns.adobe.com/XPath/1.0/">
]>
<svg version="1.1" id="Layer_1" xmlns:x="&ns_extend;" xmlns:i="&ns_ai;" xmlns:graph="&ns_graphs;"
	 xmlns="http://www.w3.org/2000/svg" xmlns:xlink="http://www.w3.org/1999/xlink" x="0px" y="0px" width="285.199px"
	 height="285.198px" viewBox="284.25 72.202 285.199 285.198" enable-background="new 284.25 72.202 285.199 285.198"
	 xml:space="preserve">
<metadata>
	<sfw  xmlns="&ns_sfw;">
		<slices></slices>
		<sliceSourceBounds  width="285.199" height="285.198" y="143.1" x="283.75" bottomLeftOrigin="true"></sliceSourceBounds>
	</sfw>
</metadata>
<title>TARGET 1.2</title>
<g id="TARGETS">
	<g>
		<rect x="284.25" y="72.202" fill="#26BDE2" width="285.199" height="285.198"/>
	</g>
	<g>
		<g>
			<g>
				<path fill="#FFFFFF" d="M511.387,207.581v37.906h16.847v-37.906c0-0.902-0.602-1.504-1.504-1.504l0,0h-3.61v-2.407h-6.317v2.407
					h-3.911C511.988,206.378,511.387,206.98,511.387,207.581z"/>
			</g>
			<g>
				<path fill="#FFFFFF" d="M508.679,245.488v-3.61h-35.8c-0.903,0-1.505,0.602-1.505,1.504l0,0v0.602
					c0,0.903,0.602,1.505,1.505,1.505H508.679z"/>
			</g>
			<g>
				<path fill="#FFFFFF" d="M528.233,248.495l-55.656,0.301c-0.602,0-1.203,0.603-1.203,1.204v0.301
					c0.602,11.131,7.822,21.059,18.352,24.97l0,0l-8.725,25.271h42.118l-5.716-29.482
					C524.322,265.644,528.233,257.22,528.233,248.495z"/>
			</g>
			<g>
				<path fill="#FFFFFF" d="M452.722,213.598h-28.881v-5.114h3.61v2.407h2.106v-7.521h-2.106v3.009h-3.61v-6.619
					c0.301-2.105-0.602-4.212-1.805-6.017c-1.504-1.504-3.309-2.105-5.415-2.105l0,0c-2.106,0-4.513,0.602-6.017,2.406
					c-1.203,1.504-1.805,3.31-1.805,5.114v7.221h3.911v-7.221c0-0.902,0.301-1.504,0.902-2.406c0.903-0.602,1.805-1.204,3.009-0.903
					l0,0c0.902,0,1.805,0.302,2.407,0.903c0.602,0.902,0.902,1.805,0.902,3.008v13.839h-28.58c0,13.237,9.627,24.368,22.563,26.174
					l-8.424,61.07h32.792l-8.423-60.77C443.095,237.966,452.722,226.835,452.722,213.598z"/>
			</g>
			<g>
				<path fill="#FFFFFF" d="M368.486,257.822L368.486,257.822h-39.411c-0.301,0-0.602,0.301-0.602,0.602l0,0l3.008,41.517
					c0,0.301,0.301,0.602,0.602,0.602l0,0l0,0h33.695c0.301,0,0.602-0.301,0.602-0.602l2.708-41.517
					C369.088,258.122,368.787,257.822,368.486,257.822L368.486,257.822z"/>
			</g>
			<g>
				<path fill="#FFFFFF" d="M369.689,252.707c0-0.301-0.301-0.602-0.602-0.602l0,0h-14.44v-1.805c0-0.301-0.301-0.602-0.602-0.602
					h-10.831c-0.301,0-0.602,0.301-0.602,0.602v1.805h-14.14c-0.301,0-0.602,0.301-0.602,0.602l0,0l0.301,2.407
					c0,0.301,0.301,0.602,0.602,0.602l0,0h39.711c0.301,0,0.602-0.301,0.602-0.602L369.689,252.707z"/>
			</g>
		</g>
		<g>
			<path fill="#FFFFFF" d="M547.487,147.713l-117.93-50.842c-0.302-0.301-0.903-0.301-1.204-0.301s-0.602,0.301-0.902,0.301
				l-117.93,50.842c-0.602,0.302-0.902,0.603-0.602,1.204v12.033c0,0.902,0,1.806,1.504,1.505l117.328-48.737
				c0.301,0,0.301,0,0.602,0s0.301,0,0.602,0l117.63,48.436c1.504,0.603,1.504-0.301,1.504-1.504v-12.033
				C548.089,148.316,547.788,148.015,547.487,147.713z"/>
		</g>
		<g>
			<path fill="#FFFFFF" d="M310.123,316.486h235.861c0.902,0,1.805,0.903,1.805,1.806v10.83c0,0.902-0.902,1.805-1.805,1.805
				H310.123c-0.902,0-1.805-0.902-1.805-1.805v-10.83C308.318,317.389,309.22,316.486,310.123,316.486z"/>
		</g>
	</g>
</g>
</svg>
