<?xml version="1.0" encoding="utf-8"?>
<!-- Generator: Adobe Illustrator 16.0.3, SVG Export Plug-In . SVG Version: 6.00 Build 0)  -->
<!DOCTYPE svg PUBLIC "-//W3C//DTD SVG 1.1//EN" "http://www.w3.org/Graphics/SVG/1.1/DTD/svg11.dtd" [
	<!ENTITY ns_extend "http://ns.adobe.com/Extensibility/1.0/">
	<!ENTITY ns_ai "http://ns.adobe.com/AdobeIllustrator/10.0/">
	<!ENTITY ns_graphs "http://ns.adobe.com/Graphs/1.0/">
	<!ENTITY ns_vars "http://ns.adobe.com/Variables/1.0/">
	<!ENTITY ns_imrep "http://ns.adobe.com/ImageReplacement/1.0/">
	<!ENTITY ns_sfw "http://ns.adobe.com/SaveForWeb/1.0/">
	<!ENTITY ns_custom "http://ns.adobe.com/GenericCustomNamespace/1.0/">
	<!ENTITY ns_adobe_xpath "http://ns.adobe.com/XPath/1.0/">
]>
<svg version="1.1" id="Layer_1" xmlns:x="&ns_extend;" xmlns:i="&ns_ai;" xmlns:graph="&ns_graphs;"
	 xmlns="http://www.w3.org/2000/svg" xmlns:xlink="http://www.w3.org/1999/xlink" x="0px" y="0px" width="500px" height="500px"
	 viewBox="177 0 500 500" enable-background="new 177 0 500 500" xml:space="preserve">
<metadata>
	<sfw  xmlns="&ns_sfw;">
		<slices></slices>
		<sliceSourceBounds  width="500" height="500" y="0.5" x="176.5" bottomLeftOrigin="true"></sliceSourceBounds>
	</sfw>
</metadata>
<title>TARGET 1 B copy 14</title>
<g id="TARGETS">
	<g>
		<rect x="177" y="0" fill="#00689D" width="500" height="500"/>
	</g>
	<g>
		<g>
			<polygon fill="#FFFFFF" points="322.042,121.308 306.747,121.308 306.747,414.03 516.662,414.03 516.662,396.097 
				322.042,396.097 			"/>
		</g>
		<g>
			<path fill="#FFFFFF" d="M337.865,86.498v292.721h209.388V86.498H337.865z M511.388,112.342c2.11-2.11,5.274-2.638,8.439-2.638
				c0,3.165-0.527,5.802-2.638,8.439c-2.109,2.109-5.273,2.637-8.438,2.637C508.224,117.616,509.278,114.979,511.388,112.342z
				 M507.696,213.608h-27.426c-2.11,0-4.22-1.055-4.22-3.165c0-2.109,1.055-4.219,3.164-4.219c0.527,0,0.527,0,1.056,0h27.426
				c2.109,0,4.22,1.055,4.22,3.164c0,2.11-1.056,4.22-3.165,4.22C508.224,213.608,508.224,213.608,507.696,213.608z
				 M511.388,252.637c0,2.109-1.582,3.692-3.691,3.692h-27.426c-2.11,0-4.22-1.055-4.22-3.165c0-2.109,1.055-4.219,3.164-4.219
				c0.527,0,0.527,0,1.056,0h27.426C509.806,248.417,511.388,250.528,511.388,252.637
				C511.916,252.637,511.916,252.637,511.388,252.637L511.388,252.637z M498.202,137.658c2.11-1.582,4.747-2.638,6.857-2.638
				c2.637,0.527,4.746,2.11,6.328,4.22c-2.109,1.582-4.746,2.637-6.856,2.637C501.895,141.35,499.785,139.768,498.202,137.658z
				 M506.114,129.746c1.582-2.109,3.691-3.691,6.329-4.219c2.637,0,5.274,1.055,6.856,2.637c-1.582,2.11-3.692,3.692-6.329,4.22
				C510.333,132.911,507.696,131.857,506.114,129.746z M498.202,110.759c4.747,1.583,6.857,6.857,4.747,11.604
				c-0.527,1.055-1.055,2.11-1.582,2.638c-2.638-1.583-4.22-3.692-5.274-6.329C496.093,116.033,496.62,112.869,498.202,110.759z
				 M489.764,119.726c4.747,1.582,6.856,6.856,5.274,11.604c-0.527,1.055-1.055,2.109-1.582,2.637
				c-4.747-1.582-6.856-6.856-5.274-11.604C488.709,121.308,489.236,120.253,489.764,119.726z M381.114,226.266l43.25,1.055v-14.24
				c-5.274-0.527-10.021-1.582-15.296-3.165c-8.438-2.637-17.405-11.075-25.316-13.713l-2.109-0.527l2.109,0.527
				c7.384,2.109,15.295,1.055,22.152-2.637c9.494-6.329,10.021-10.549,16.877-13.186c-12.658-1.056-22.151-8.967-25.844-26.372
				c-3.692-17.404-5.802-23.206-13.186-26.371c10.549-1.055,25.316-1.055,42.194,16.351c13.186,13.186,26.371,13.186,36.92,3.164
				c10.548-10.021,17.933-14.768,23.734-7.911c1.582,1.582,2.637,2.637,4.219,4.22c1.582-5.802,4.747-10.549,8.967-14.241
				c2.109-2.109,4.219-4.219,5.802-6.856l1.582,1.056c-1.582,2.637-3.692,5.273-6.329,7.384c-4.22,3.691-7.384,8.966-8.967,14.24
				c1.583,1.582,3.165,2.637,5.274,3.692c-1.582,0-3.691,0-5.274,0c0,4.219,1.056,7.911,2.11,12.13H492.4
				c-1.582-3.691-2.109-7.911-2.109-11.603c-1.582,0.527-3.692,0.527-5.274,1.582c-6.329,2.109-10.548,7.911-10.021,21.097
				c2.109,18.46-10.021,35.338-27.954,40.085c-3.164,1.055-6.329,1.582-9.493,2.109v14.768l24.262,0.527l16.877-1.582v-7.911
				c0-1.055,1.055-2.109,2.11-2.109l0,0h25.316c1.055,0,2.109,1.055,2.109,2.109l0,0v25.316c0,1.055-1.055,2.109-2.109,2.109
				h-24.789c-1.055,0-2.11-1.055-2.11-2.109v-7.384l-16.877-1.582h-81.224V226.266z M370.565,227.848
				c0-2.109,1.582-3.691,3.165-3.691h2.11c2.109,0,3.165,2.109,3.165,3.691v6.856c0,2.11-1.055,3.692-3.165,3.692l0,0h-2.11
				c-2.11,0-3.165-1.582-3.165-3.692V227.848z M522.464,342.299c0,0.527-1.055,1.055-1.582,1.055H365.818
				c-1.055,0-1.582-0.527-1.582-1.055V317.51c0-0.527,0.527-1.055,1.582-1.055h154.536c1.055,0,1.582,0.527,1.582,1.055
				L522.464,342.299z M522.464,299.05c0,0.527-1.055,1.056-1.582,1.056H365.818c-1.055,0-1.582-0.528-1.582-1.056v-24.788
				c0-0.527,0.527-1.056,1.582-1.056h154.536c1.055,0,1.582,0.528,1.582,1.056L522.464,299.05z"/>
		</g>
		<g>
			<path fill="#FFFFFF" d="M428.582,227.321h5.274v-14.24c-1.582,0-3.691,0-5.274,0V227.321z"/>
		</g>
	</g>
</g>
</svg>
