<?xml version="1.0" encoding="utf-8"?>
<!-- Generator: Adobe Illustrator 16.0.3, SVG Export Plug-In . SVG Version: 6.00 Build 0)  -->
<!DOCTYPE svg PUBLIC "-//W3C//DTD SVG 1.1//EN" "http://www.w3.org/Graphics/SVG/1.1/DTD/svg11.dtd" [
	<!ENTITY ns_extend "http://ns.adobe.com/Extensibility/1.0/">
	<!ENTITY ns_ai "http://ns.adobe.com/AdobeIllustrator/10.0/">
	<!ENTITY ns_graphs "http://ns.adobe.com/Graphs/1.0/">
	<!ENTITY ns_vars "http://ns.adobe.com/Variables/1.0/">
	<!ENTITY ns_imrep "http://ns.adobe.com/ImageReplacement/1.0/">
	<!ENTITY ns_sfw "http://ns.adobe.com/SaveForWeb/1.0/">
	<!ENTITY ns_custom "http://ns.adobe.com/GenericCustomNamespace/1.0/">
	<!ENTITY ns_adobe_xpath "http://ns.adobe.com/XPath/1.0/">
]>
<svg version="1.1" id="Layer_1" xmlns:x="&ns_extend;" xmlns:i="&ns_ai;" xmlns:graph="&ns_graphs;"
	 xmlns="http://www.w3.org/2000/svg" xmlns:xlink="http://www.w3.org/1999/xlink" x="0px" y="0px" width="270.548px"
	 height="270.548px" viewBox="291.583 68.493 270.548 270.548" enable-background="new 291.583 68.493 270.548 270.548"
	 xml:space="preserve">
<metadata>
	<sfw  xmlns="&ns_sfw;">
		<slices></slices>
		<sliceSourceBounds  width="270.548" height="270.548" y="161.459" x="291.083" bottomLeftOrigin="true"></sliceSourceBounds>
	</sfw>
</metadata>
<title>TARGET 1 B copy 11</title>
<g id="TARGETS">
	<g>
		<rect x="291.583" y="68.493" fill="#0A97D9" width="270.548" height="270.548"/>
	</g>
	<g>
		<g>
			<g>
				<path fill="#FFFFFF" d="M513.615,179.794c-2.568-0.285-4.852,1.713-5.137,4.281s1.712,4.852,4.28,5.137c0.286,0,0.571,0,0.856,0
					c2.568-0.285,4.566-2.568,4.281-5.137C517.896,181.792,515.898,180.08,513.615,179.794z"/>
			</g>
			<g>
				<path fill="#FFFFFF" d="M442.269,140.982v32.249h39.954l2.568-7.42h46.233v-5.423h-31.107l4.28-19.406H442.269z
					 M475.944,160.103h-12.843v-15.411h12.843V160.103z M494.779,160.103h-15.696v-15.411h18.836L494.779,160.103z"/>
			</g>
			<g>
				<rect x="442.269" y="132.99" fill="#FFFFFF" width="56.221" height="5.993"/>
			</g>
			<g>
				<path fill="#FFFFFF" d="M486.503,170.662l-2.854,7.99h-43.094v-60.787h2.568v-2.283h-2.568V85.045h-1.712v30.537h-2.854v2.283
					h1.998c-24.258,12.842-64.212,7.135-76.198,3.995h-0.286l-0.856,1.142l0,0l0,0l0,0l0,0v4.281h-0.286v1.997h0.286v1.427
					c-0.571,0.571-0.856,1.428-1.142,2.283c0,0.571,0,1.142,0.571,1.713c0.285,0.285,0.571,0.285,1.142,0.285l0,0
					c0.856,0,1.427-0.856,1.427-1.712v-0.286h-0.856v0.286c0,0.57-0.286,1.142-0.571,1.142l0,0c-0.286,0-0.286,0-0.286-0.286
					c-0.285-0.285-0.285-0.855-0.285-1.142c0-0.855,0.571-1.427,0.856-1.997l0,0v-1.713h0.286v-1.997h-0.286V125l20.548,49.942l0,0
					l3.425,20.548c5.137,3.996,27.683,18.836,47.66,0.286l0.285-0.286c0.286-0.285,0.571-0.285,0.856-0.285s0.571,0,0.856,0.285
					l0.285,0.286c20.263,18.835,42.809,3.424,47.66-0.286c0-0.285,0.285-0.285,0.57-0.57h0.285c0.286,0,0.286,0,0.571,0l0.57,0.57
					c10.56,10.274,26.256,12.843,39.384,6.279l15.411-31.107H486.503z M396.035,174.943L396.035,174.943h-13.127l-20.263-48.801
					l33.676,47.089C396.035,173.801,396.035,174.372,396.035,174.943z M396.892,171.233l-28.539-39.954l33.105,35.674
					C399.46,167.808,397.748,169.236,396.892,171.233z M418.866,178.653l-0.856-3.71h-5.137l0,0c0-4.566-3.424-8.276-7.991-8.562
					v-8.847h2.854v-1.713h-7.135v1.713h2.854v8.847h-0.286l-40.525-43.379c13.128,3.14,51.655,8.276,75.627-4.28l-17.123,59.931
					H418.866z M422.006,178.653l15.696-54.794l-8.276,55.08L422.006,178.653z M438.844,178.653h-8.562l8.562-57.362V178.653z
					 M513.615,191.495c-3.995,0-7.135-3.14-7.135-7.135s3.14-7.135,7.135-7.135s7.135,3.14,7.135,7.135
					S517.61,191.495,513.615,191.495L513.615,191.495L513.615,191.495z"/>
			</g>
		</g>
		<g>
			<g>
				<path fill="#FFFFFF" d="M315.271,298.801c1.712,1.427,3.996,2.568,6.279,2.854c2.568-0.285,4.852-1.712,6.563-3.71l0,0l0,0l0,0
					c-1.427-2.282-3.71-3.709-6.563-3.995c-2.283,0.286-4.566,1.427-6.279,2.854c-0.856-1.428-1.998-2.568-3.71-2.854l0,0l0,0l0,0
					c1.427,2.283,1.427,5.137,0,7.135l0,0l0,0l0,0l0,0C312.987,301.084,314.415,300.228,315.271,298.801z M323.832,295.948
					c0.571,0,1.142,0.57,1.142,1.142c0,0.57-0.571,1.142-1.142,1.142l0,0c-0.571,0-1.142-0.571-1.142-1.142
					C322.69,296.518,323.261,296.233,323.832,295.948L323.832,295.948z"/>
			</g>
			<g>
				<path fill="#FFFFFF" d="M363.216,268.55L363.216,268.55L363.216,268.55L363.216,268.55c1.998-0.285,3.71-1.427,4.566-3.139
					c1.998,1.712,4.566,2.854,7.134,3.139c2.854-0.285,5.422-1.712,7.135-3.995l0,0l0,0l0,0l0,0
					c-1.712-2.283-4.281-3.995-7.135-4.281c-2.568,0.286-5.137,1.427-7.134,2.854c-0.856-1.713-2.283-2.854-4.281-3.14l0,0l0,0l0,0
					c0.856,1.142,1.142,2.568,1.427,3.995C364.643,265.697,364.072,267.123,363.216,268.55L363.216,268.55z M376.915,262.557
					c0.571,0,1.142,0.571,1.142,1.142c0,0.571-0.571,1.142-1.142,1.142s-1.142-0.57-1.142-1.142l0,0
					C375.773,263.128,376.344,262.557,376.915,262.557L376.915,262.557z"/>
			</g>
			<g>
				<path fill="#FFFFFF" d="M314.129,263.128c1.998,1.712,4.566,2.854,7.135,3.139c2.854-0.285,5.422-1.712,7.135-4.28l0,0l0,0l0,0
					l0,0c-1.712-2.283-4.281-3.996-7.135-4.281c-2.568,0.285-5.137,1.427-7.135,3.14c-0.856-1.713-2.283-2.854-4.281-3.14l0,0l0,0
					l0,0c0.856,1.142,1.142,2.568,1.142,3.995c0,1.428-0.571,2.854-1.142,3.996l0,0l0,0l0,0l0,0
					C311.846,265.982,313.273,264.84,314.129,263.128z M323.547,260.274c0.571,0,1.142,0.571,1.142,1.142
					c0,0.571-0.571,1.142-1.142,1.142s-1.142-0.57-1.142-1.142l0,0C322.405,260.845,322.976,260.274,323.547,260.274z"/>
			</g>
			<g>
				<path fill="#FFFFFF" d="M313.844,237.729c1.998,1.712,4.566,2.854,7.135,3.139c2.854-0.285,5.422-1.712,7.134-4.28l0,0l0,0l0,0
					l0,0c-1.712-2.283-4.281-3.996-7.134-4.281c-2.569,0.285-5.137,1.427-7.135,3.14c-0.856-1.713-2.283-2.854-4.281-3.14l0,0l0,0
					l0,0c1.712,2.568,1.712,5.708,0,7.991l0,0l0,0l0,0l0,0C311.275,240.297,312.702,239.156,313.844,237.729z M322.976,234.589
					c0.571,0,1.142,0.285,1.427,0.856c0,0.57-0.285,1.142-0.856,1.427h-0.286c-0.571,0-1.141-0.571-0.856-1.427
					C322.12,235.159,322.69,234.874,322.976,234.589z"/>
			</g>
			<g>
				<path fill="#FFFFFF" d="M352.085,285.103L352.085,285.103L352.085,285.103L352.085,285.103c1.427,1.998,3.996,3.425,6.564,3.71
					c2.283-0.285,4.566-1.427,6.279-2.854c0.856,1.427,1.998,2.568,3.71,2.854l0,0l0,0l0,0l0,0c-1.427-2.283-1.427-5.137,0-7.135
					l0,0l0,0l0,0c-1.712,0.285-3.139,1.427-3.71,2.854c-1.712-1.427-3.996-2.568-6.279-2.854
					C356.081,281.678,353.513,283.105,352.085,285.103z M356.652,285.388c-0.571,0-1.142-0.57-1.142-1.142
					c0-0.57,0.571-1.142,1.142-1.142s1.142,0.571,1.142,1.142C357.508,285.103,357.223,285.388,356.652,285.388L356.652,285.388z"/>
			</g>
			<g>
				<path fill="#FFFFFF" d="M325.259,273.973L325.259,273.973L325.259,273.973L325.259,273.973c1.998,2.854,4.852,4.565,8.276,5.137
					c3.14-0.285,5.993-1.712,8.276-3.71c0.856,1.998,2.854,3.139,4.852,3.71l0,0l0,0l0,0l0,0c-1.998-2.854-1.998-6.563,0-9.418l0,0
					l0,0l0,0c-1.998,0.285-3.995,1.713-4.852,3.71c-2.283-2.283-5.137-3.71-8.276-3.995
					C330.111,269.692,327.257,271.405,325.259,273.973z M330.967,274.828c-0.856,0-1.427-0.57-1.427-1.427
					c0-0.855,0.571-1.427,1.427-1.427c0.856,0,1.427,0.571,1.427,1.427C332.394,273.973,331.823,274.543,330.967,274.828
					L330.967,274.828z"/>
			</g>
			<g>
				<path fill="#FFFFFF" d="M360.647,239.156L360.647,239.156L360.647,239.156c-2.854,0.285-5.137,1.997-6.279,4.28
					c-2.854-2.568-6.564-3.995-10.559-4.566c-4.281,0.286-8.276,2.569-10.56,6.279l0,0l0,0l0,0l0,0
					c0.571,0.855,4.852,6.278,10.56,6.278c3.995-0.571,7.42-1.998,10.559-4.566c1.142,2.568,3.425,4.281,6.279,4.566l0,0
					c0,0,0.285,0,0.285-0.285l0,0l0,0c-1.142-1.713-1.712-3.71-1.998-5.708C358.935,243.436,359.506,241.153,360.647,239.156
					C360.647,239.441,360.647,239.156,360.647,239.156z M340.385,246.004c-0.856,0-1.712-0.855-1.712-1.712s0.856-1.712,1.712-1.712
					c0.856,0,1.712,0.855,1.712,1.712S341.526,246.004,340.385,246.004z"/>
			</g>
			<g>
				<path fill="#FFFFFF" d="M398.033,262.842c0-1.997-0.286-3.995-0.856-5.707c-7.705-24.259-74.771-37.386-89.897-39.955v3.425
					c15.696,2.854,79.909,15.696,86.758,37.672c1.142,3.71,1.427,7.42,1.142,11.13l0,0c0,0.285,0,0.57,0,1.142
					c-0.285,1.427-0.571,2.854-0.856,4.28c-6.85,21.119-66.21,33.961-84.76,37.386c-0.571,0-0.571,1.427-0.571,2.283v9.133h2.283
					v-2.854l5.993-0.855v3.71h2.283v-3.996l5.137-0.855v5.137h2.283v-5.423c1.712-0.285,3.424-0.57,5.137-1.141v6.563h2.283v-7.135
					c1.712-0.285,3.425-0.856,5.137-1.142v8.276h2.283c1.712-0.57,3.425-0.856,5.137-1.427v1.427h0.856v-1.998l5.137-1.427v3.425
					h2.283v-4.281c1.712-0.57,3.424-1.142,5.137-1.712v5.708h1.712v-6.564c1.712-0.57,3.425-1.427,5.137-1.997v8.562h2.283v-1.142
					c1.712-0.856,3.425-1.427,5.137-2.283v3.71h1.712v-4.566c1.712-0.856,3.424-1.712,5.137-2.568v7.135h2.283
					c1.998-1.142,3.425-1.998,4.852-3.14v3.14h1.998v-4.566c1.712-1.142,3.424-2.568,5.137-3.995v8.562h2.283V271.69
					c0-0.285,0-0.856,0-1.142l0,0V262.842L398.033,262.842L398.033,262.842z M316.697,318.207l-5.993,0.856v-3.995
					c1.712-0.286,3.71-0.571,5.993-1.142V318.207z M324.118,317.066l-5.137,0.856v-4.281l5.137-1.141V317.066z M331.252,315.639
					c-1.712,0.285-3.425,0.571-5.137,1.142v-4.566l5.137-1.142V315.639z M338.387,313.927l-5.137,1.142v-4.852
					c1.712-0.286,3.425-0.856,5.137-1.428V313.927z M345.521,320.776c-1.712,0.571-3.139,0.856-5.137,1.428v-6.85
					c1.712-0.571,3.425-0.856,5.137-1.427V320.776z M345.521,311.929c-1.712,0.571-3.424,0.856-5.137,1.427v-4.852l5.137-1.427
					V311.929z M352.656,318.492c-1.712,0.571-3.424,1.142-5.137,1.428v-7.135l5.137-1.713V318.492z M352.656,309.646l-5.137,1.713
					v-4.852l5.137-1.713V309.646z M359.791,316.21c-1.712,0.57-3.425,1.142-5.137,1.712v-7.135l5.137-1.712V316.21z
					 M359.791,307.077c-1.712,0.57-3.139,1.142-5.137,1.712v-4.852l5.137-1.712V307.077z M367.211,313.356
					c-1.712,0.571-3.139,1.427-5.137,1.998v-7.135c1.712-0.571,3.425-1.427,5.137-1.998V313.356z M367.211,304.224l-5.137,1.997
					v-4.852c1.712-0.57,3.425-1.427,5.137-1.997V304.224z M374.346,318.207c-1.427,0.856-3.139,1.427-5.137,2.283v-6.278
					c1.712-0.856,3.425-1.427,5.137-2.283V318.207z M374.346,310.217c-1.427,0.855-3.139,1.427-5.137,2.283v-7.135
					c1.712-0.856,3.425-1.428,5.137-2.283V310.217z M374.346,301.084c-1.427,0.856-3.139,1.427-5.137,2.283v-4.852
					c1.712-0.856,3.425-1.427,5.137-2.283V301.084z M381.48,314.782c-1.427,0.856-3.139,1.713-5.137,2.569v-6.279
					c1.712-0.855,3.424-1.712,5.137-2.568V314.782z M381.48,306.507c-1.427,0.855-3.139,1.712-5.137,2.568v-7.135
					c1.712-0.856,3.424-1.713,5.137-2.568V306.507z M381.48,297.374c-1.427,0.856-3.139,1.712-5.137,2.854v-4.852
					c1.712-0.855,3.424-1.997,5.137-2.854V297.374z M388.615,318.779c-1.427,0.855-3.139,1.997-5.137,3.139v-6.278
					c1.998-1.142,3.424-1.998,5.137-3.139V318.779z M388.615,310.502c-1.427,0.856-3.139,1.998-5.137,3.139v-6.278
					c1.998-1.142,3.424-2.283,5.137-3.139V310.502z M388.615,301.941c-1.427,0.855-3.139,1.997-5.137,3.139v-7.135
					c1.998-1.141,3.424-2.282,5.137-3.139V301.941z M388.615,292.808c-1.427,0.856-3.139,1.998-5.137,3.14v-4.852
					c1.712-1.142,3.424-2.283,5.137-3.71V292.808z M390.613,285.388c1.998-1.997,3.71-3.995,5.137-6.563v8.562
					c-1.712,1.427-3.425,2.854-5.137,3.995V285.388z M390.613,293.379c2.283-1.427,3.995-2.854,5.137-3.71v6.849h-0.285
					c-1.427,1.427-3.14,2.854-4.852,3.996V293.379z M390.613,302.511c1.712-1.142,3.424-2.568,5.137-3.995v6.563
					c-1.712,1.428-3.425,2.854-5.137,3.996V302.511z M390.613,317.066v-5.993c2.283-1.427,3.995-2.854,5.137-3.71v5.708
					C394.038,314.497,392.325,315.924,390.613,317.066L390.613,317.066z"/>
			</g>
		</g>
		<g>
			<g>
				<path fill="#FFFFFF" d="M442.839,306.221c-1.142,0-1.998,0.571-2.283,0c-0.285-0.57-0.285-1.997,0.285-2.283
					c0.571-0.285,1.428-0.57,1.998-0.57c0.856,0,0.571-0.856-0.285-0.856s-1.427,0.285-1.427-0.285c0-0.571,0.285-2.283-0.571-2.283
					c-0.855,0-0.57,0.571-0.57,0.856s0.285,2.283-0.285,1.997c-0.571-0.285-0.856-0.57-1.142-1.142
					c-0.286-0.57-1.142-0.285-0.856,0.286c0.285,0.57,0.57,1.142,0.856,1.427c0.855,1.142,0.855,1.427,0.57,1.998
					c-0.57,0.855-1.427,1.712-2.283,2.282c-0.57,0-1.142,0-1.142-1.427s0-4.852-0.855-5.137c-0.856-0.285-1.142,0.285-1.142,0.856
					c0,0.57,0.285,1.712,0.285,2.283c0,0.57-0.571,0.285-0.856,0c-0.285-0.286-1.427-0.856-1.712-0.286
					c-0.286,0.286-0.286,0.856,0,1.142l0,0c0.57,0.286,1.142,0.286,1.427,0.856c0.57,0.856,0.856,1.712,0.285,2.568
					c-1.142,1.713-2.568,3.425-3.995,4.852c-0.856,0.856-3.14,0.571-2.854-0.855c0.286-1.428,0.286-2.854,1.428-2.854
					s3.139,0,3.139-0.856c0-0.855-1.142-0.855-1.997-0.855c-0.571,0-0.856-0.286-0.856-0.571s0-0.285,0-0.57
					c0.285-0.571,2.283-5.138,2.854-6.85c0,0,0.285-0.856,0.856-0.856c0.57,0,1.427,0,1.998,0.286c0.855,0.285,1.142,0,1.142-0.286
					c0-0.285-0.286-0.855-1.142-1.142c-0.856-0.285-1.428-0.57-1.428-0.855c0.286-0.856,1.142-1.142,1.998-1.142
					c1.142,0.285,1.998,0.57,2.854,1.427c0.856,0.57,1.428-0.285,0.856-0.57c-0.57-0.286-1.427-1.142-1.712-1.713
					c-0.286-0.57,0-0.855,0.57-0.855c0.571,0,2.568-0.856,2.854-1.713c0.285-0.856-0.856-1.142-1.998-0.57
					c-1.142,0.57-1.998,1.142-2.283,0.57c0-0.856,0-1.427,0-2.283c0-0.57-0.856-0.856-1.142-0.285c0,0.57-0.285,1.427-0.285,1.998
					c-0.285,1.142-1.142,1.997-2.283,2.568c-0.571,0-0.856-0.285-0.856-0.856c0-0.57,0-1.998,0.856-2.283s1.427-0.856,1.427-1.427
					c0-0.571-1.142,0-1.712,0.285c-0.571,0.285-1.427,0.285-1.142-0.57c0-1.142,0.285-2.283,0.855-3.14
					c0.856-0.856,0.571-1.142,0-1.427c-0.57-0.285-0.855,0.285-1.427,0.856c-0.57,0.57-1.142,0.57-1.427-0.286
					c-0.285-0.855-1.427-2.283-2.283-1.712c-0.856,0.57-0.856,1.712-0.285,2.854c0.57,1.142,1.712,2.568,1.142,2.854
					c-0.571,0.285-1.142,0-1.998-0.286c-0.285-0.285-0.57-0.285-0.856,0c-0.285,0.286-0.285,0.571,0,0.856c0,0,0,0,0.286,0
					c1.142,0.571,1.997,1.427,2.854,2.283c0.571,1.142,0.856,2.283,0.856,3.71c0,1.712-0.285,2.854-0.571,2.283
					c-0.855-0.856-1.712-1.998-2.854-2.568c-1.427-0.856-2.283-0.856-2.283-1.998s0.285-3.139-1.142-3.139s-1.142,1.427-1.142,1.712
					s0,1.998-0.571,1.713c-0.571-0.286-3.139-1.998-3.71-0.856s0.571,1.427,1.142,1.712s2.568,0.856,2.854,1.427
					c0.285,0.571-0.286,0.571-0.856,0.856c-0.57,0.285-2.283,1.142-1.998,1.998c0.286,0.855,0.856,0.57,1.427,0.285
					c1.141-0.856,2.283-1.427,3.71-1.713c1.712,0.286,2.854,1.428,3.425,2.854c0.285,1.142,0.285,2.283,0.285,3.71
					c0,0.57-0.571,0.856-1.427-0.285c-0.856-1.142-3.425-2.283-4.281-1.142c-0.856,1.142,0.571,1.142,1.427,1.997
					c0.856,0.856,2.283,1.713,2.283,2.854c0,1.712-0.57,3.139-1.427,4.566c-0.57,0.57-2.283,0-2.283-1.428
					c0-1.427,0-2.568-1.142-2.568s-0.57,1.713-1.427,1.713c-1.142-0.286-1.712-1.428-1.712-2.569s0.286-2.282,1.142-3.139
					c0.571-0.571,1.142-1.142,0.571-1.713c-0.571-0.57-1.142,0-1.712,0.571c-0.571,0.57-0.856,1.427-1.427,1.142
					c-0.571-0.856-1.142-1.713-1.998-2.283c-0.856-0.856-1.998-0.856-2.569-0.285c-0.571,0.57-0.285,0.855,0.571,1.997
					c0.856,1.142,1.998,1.713,1.998,2.568c0,0.856-0.286,1.142-1.142,1.142c-0.856,0-2.283,0-2.283,0.571
					c0,0.57,0.571,0.57,1.998,0.856c1.427,0.285,2.569,0.855,3.139,1.997c0.856,1.142,2.569,3.14,2.283,3.996
					c-0.285,0.855-1.142,0.855-2.283-0.571s-1.712-1.142-1.998-0.57c-0.285,0.855,0,1.427,0.571,1.997
					c0.571,0.571,0.285,0.856-0.571,1.142c-0.856,0.286-1.998,0.286-1.712,1.142c0.286,0.856,0.856,1.142,1.712,0.571
					c0.856-0.571,1.142-0.856,1.998-1.142c0.856-0.285,0.856,0,0.856,0.57c-0.286,0.856-0.571,1.427-0.571,2.283
					c0,0.571,0.856,1.142,1.142,0.285c0.285-0.855,1.142-3.424,1.998-3.71c1.427-0.57,2.854,0,3.995,1.142
					c1.998,1.713,0.571,4.566,0.856,5.423c1.712,0.285,3.425,0.57,3.71-0.285c0-0.286,0.285-0.856,0.856-2.283
					c0.856-1.998,1.427-1.998,2.283-1.998s2.283,1.427,2.568,1.427s0.856,0.285,1.142-0.57c0.285-0.856-0.571-0.856-1.142-1.142
					c-0.571-0.286-1.712-0.856-1.998-1.713c-0.285-0.855,0-1.712,1.142-1.712s3.14-0.285,3.996,0.57
					c0.57,0.571,1.141,1.713,0.855,2.568c0,0.571,0,1.142,0,1.713c0.285,0.285,0.571,0.57,0.856,0.285
					c0.57,0,0.285-0.57,0.285-1.142c0-0.57,0-1.142,0-1.712c0.285-0.571,0.571-0.285,0.571,0c0.855,0.855,1.712,1.427,2.568,1.997
					c0.285,0,0.855-0.285,0.855-0.57s0-0.571-0.285-0.571c-0.57-0.57-1.142-1.141-1.712-1.712c-0.285-0.57,0-0.57,0.285-0.856
					c0.285-0.285,1.142-1.142,0.856-1.712c-0.285-0.571-1.142,0-1.998,0.57c-0.57,0.571-1.427,0.571-2.283,0
					c-0.855-0.57-1.427-0.855-2.283-1.142c-0.855-0.285-1.142-0.855-0.57-1.427c0.856-0.855,1.998-1.142,3.139-1.427
					c0.856,0,1.713,0.285,1.998,0.856c0.571,0.57,1.427,0.57,1.713,0.285c0.285-0.285,0.285-0.856-0.286-1.427
					c-0.57-0.571-0.855-0.571-0.855-0.856s1.427-0.285,2.568-0.285s2.283-0.571,1.997-1.427
					C442.839,307.077,444.266,306.221,442.839,306.221z"/>
			</g>
			<g>
				<g>
					<path fill="#FFFFFF" d="M520.179,293.379c-0.285,0.57-0.57,1.142-0.855,1.712l18.265,13.128c0-5.137,1.712-9.988,5.137-13.983
						l-22.546-2.569C520.179,292.523,520.179,293.094,520.179,293.379z"/>
				</g>
				<g>
					<path fill="#FFFFFF" d="M449.974,259.989c-0.57,0-1.142,0.285-1.427,0.571L446.264,250l-1.712,0.285l2.568,11.13
						c-0.856,0.856-1.713,1.998-1.998,3.14c-0.285,0-0.57,0-0.856,0.285l-0.855,0.571c-0.571,0.57-0.856,1.427-0.571,1.997
						l3.14,5.138c0.57,0.57,1.427,0.855,1.997,0.57l0.286-0.285c1.427,0.855,3.139,1.142,4.852,0.57
						c2.283-0.57,3.995-1.997,4.852-3.995l0.285-0.571c0.285-1.142,0.57-2.568,0.285-3.995
						C457.394,261.7,453.684,259.132,449.974,259.989L449.974,259.989z"/>
				</g>
				<g>
					<path fill="#FFFFFF" d="M525.316,271.405L525.316,271.405l21.118-3.996c-3.71-3.425-5.993-8.276-6.278-13.413l-16.267,13.413
						c0.57,0.571,0.855,1.142,1.142,1.713C525.031,269.977,525.316,270.833,525.316,271.405z"/>
				</g>
				<g>
					<path fill="#FFFFFF" d="M500.202,280.822l1.998,0.571h0.57l17.979-6.564c0.285,0,0.571-0.285,0.856-0.57
						c1.142-0.856,1.712-1.998,1.712-3.14c0-0.57,0-0.855-0.285-1.427c-0.285-0.57-0.285-0.856-0.571-1.142
						c-0.855-0.856-1.712-1.427-2.854-1.427c-0.57,0-0.856,0-1.142,0.285l-16.267,5.993l-7.135-0.57
						c0.57,1.142,0.855,2.283,0.855,3.425L500.202,280.822z"/>
				</g>
				<g>
					<path fill="#FFFFFF" d="M515.613,287.956l-16.553-5.137l-5.708-5.422c0-0.286,0-0.571,0-0.856s0-0.856-0.285-1.142l0,0
						c-0.285-0.571-0.285-1.142-0.57-1.427c-0.856-1.428-2.283-2.568-3.996-2.854l-21.404-4.28c-0.285,0-0.855,0-1.142,0
						c-2.854,0-5.707,1.997-6.278,5.137c-0.57,3.14,1.142,5.993,3.996,7.135c0.855,1.142,1.427,2.568,2.282,3.71l-4.852,6.85
						c-1.427,1.142-1.427,3.139-0.285,4.566c0,0,0,0,0.285,0.285c0.286,0.285,0.856,0.57,1.428,0.57
						c1.142-0.285,2.282-0.855,3.139-1.712c0.285-0.285,1.142-1.427,2.283-2.854c2.283-2.854,5.708-6.849,5.708-6.849
						c0.57-0.856,0.57-1.713,0.285-2.283l12.271,2.568c0.286,0,0.856,0,1.142,0c0.286,0,0.856,0,1.142,0l5.993,5.708l0.571,0.57
						l18.265,5.708c0.285,0,0.57,0,0.856,0.285h0.285c1.998,0,3.71-1.712,3.71-3.71C518.182,290.24,517.04,288.528,515.613,287.956
						L515.613,287.956z"/>
				</g>
			</g>
			<g>
				<path fill="#FFFFFF" d="M429.997,261.987c0.855-1.142,0.57-2.854-0.571-3.996c-1.142-0.855-2.854-0.57-3.995,0.571
					c-0.856,1.142-0.571,3.139,0.57,3.995C427.428,263.413,429.141,263.128,429.997,261.987z"/>
			</g>
			<g>
				<path fill="#FFFFFF" d="M427.428,242.865c0.571-0.856,0.571-2.283-0.285-2.854c-0.856-0.57-2.283-0.57-2.854,0.286
					c-0.571,0.855-0.571,2.283,0.285,2.854S426.572,243.722,427.428,242.865L427.428,242.865z"/>
			</g>
			<g>
				<path fill="#FFFFFF" d="M479.369,306.792c-0.286,0-0.571,0-0.856,0c0,0-3.14,0-4.281,0s-1.712,0-1.997-1.142
					c-0.571-1.427-0.856-2.568-0.856-3.996c0-0.57,0-0.855-0.571-0.855c-0.57,0-0.57,0-1.142,0.57
					c-0.855,1.427-1.427,2.854-1.712,4.566c0,0-0.285,1.142-1.142,1.142h-5.708c0,0-0.855-0.285-1.142,0.57
					c-0.285,0.856,0.571,0.856,0.856,1.142l4.281,2.854c0,0,0.57,0.285,0.285,1.142l-1.712,4.852c0,0-0.286,0.57,0,0.855
					c0.285,0.286,0.855,0.286,1.141,0c1.428-0.855,2.854-1.997,4.281-3.424c0.285-0.286,0.856-0.286,1.427,0l0,0
					c1.427,1.142,2.854,2.283,4.281,3.139c0,0,0.57,0.571,1.142,0.285c0,0,0.57-0.285,0.285-0.855
					c-0.285-0.571-1.998-4.566-1.998-4.852c0-0.571,0.286-1.142,0.571-1.427c0.856-0.571,3.995-2.283,4.566-2.854
					C479.939,307.934,480.225,306.792,479.369,306.792z"/>
			</g>
			<g>
				<path fill="#FFFFFF" d="M473.946,251.712L473.946,251.712L473.946,251.712L473.946,251.712c2.283-0.285,3.995-1.427,5.137-3.425
					c2.283,1.998,5.138,3.14,7.991,3.425c3.425-0.285,6.278-1.998,8.276-4.852l0,0l0,0l0,0c-1.998-2.568-4.852-4.566-8.276-4.852
					c-2.854,0.285-5.708,1.427-7.991,3.425c-0.855-1.998-2.854-3.14-4.852-3.425l0,0l0,0l0,0c1.998,2.854,1.998,6.564,0,9.133
					L473.946,251.712z M489.643,244.863c0.856,0,1.427,0.571,1.427,1.428c0,0.855-0.57,1.427-1.427,1.427s-1.427-0.571-1.427-1.427
					l0,0C488.216,245.434,488.786,244.863,489.643,244.863z"/>
			</g>
			<g>
				<path fill="#FFFFFF" d="M510.19,245.719c0-1.712-1.142-2.854-2.854-2.854c-1.713,0-2.854,1.142-2.854,2.854
					c0,1.713,1.141,2.854,2.854,2.854C509.049,248.573,510.19,247.146,510.19,245.719z"/>
			</g>
			<g>
				<path fill="#FFFFFF" d="M520.465,239.441c0.856,0,1.427-0.571,1.427-1.427c0-0.856-0.57-1.427-1.427-1.427
					s-1.427,0.57-1.427,1.427C519.038,238.869,519.608,239.441,520.465,239.441L520.465,239.441z"/>
			</g>
		</g>
		<g>
			<path fill="#FFFFFF" d="M526.743,210.331L526.743,210.331l-0.856,0.285c-13.413,7.135-30.251,4.852-41.381-5.708
				c-0.285-0.285-0.571-0.57-0.856-0.57s-0.57,0.285-0.856,0.57c-4.852,3.71-27.968,19.406-48.23,0.285l-0.285-0.285
				c-0.285-0.285-0.57-0.285-0.856-0.285c-0.285,0-0.57,0-0.855,0.285l-0.286,0.285c-20.547,19.121-43.378,3.425-48.516-0.285
				c-0.285-0.285-0.571-0.285-0.856-0.57c-0.571,0-0.856,0.285-0.856,1.427v9.703c0,0.57,0.286,1.142,0.856,1.712
				c21.975,20.834,44.806,3.996,49.658,0l0.57-0.57c0,0,0.285-0.285,0.571-0.285c0.285,0,0.285,0,0.57,0.285l0.571,0.57
				c4.852,3.996,27.683,20.834,49.657,0l0,0c0.285-0.285,0.57-0.285,0.856-0.285c0.285,0,0.57,0,0.57,0.285l0.285,0.286
				c4.281,4.28,22.546,19.977,41.952,3.139c0.285-0.285,0.285-0.57,0.285-0.855v-7.991
				C527.885,210.902,527.313,210.331,526.743,210.331L526.743,210.331"/>
		</g>
	</g>
</g>
</svg>
