<?xml version="1.0" encoding="utf-8"?>
<!-- Generator: Adobe Illustrator 16.0.3, SVG Export Plug-In . SVG Version: 6.00 Build 0)  -->
<!DOCTYPE svg PUBLIC "-//W3C//DTD SVG 1.1//EN" "http://www.w3.org/Graphics/SVG/1.1/DTD/svg11.dtd" [
	<!ENTITY ns_extend "http://ns.adobe.com/Extensibility/1.0/">
	<!ENTITY ns_ai "http://ns.adobe.com/AdobeIllustrator/10.0/">
	<!ENTITY ns_graphs "http://ns.adobe.com/Graphs/1.0/">
	<!ENTITY ns_vars "http://ns.adobe.com/Variables/1.0/">
	<!ENTITY ns_imrep "http://ns.adobe.com/ImageReplacement/1.0/">
	<!ENTITY ns_sfw "http://ns.adobe.com/SaveForWeb/1.0/">
	<!ENTITY ns_custom "http://ns.adobe.com/GenericCustomNamespace/1.0/">
	<!ENTITY ns_adobe_xpath "http://ns.adobe.com/XPath/1.0/">
]>
<svg version="1.1" id="Layer_1" xmlns:x="&ns_extend;" xmlns:i="&ns_ai;" xmlns:graph="&ns_graphs;"
	 xmlns="http://www.w3.org/2000/svg" xmlns:xlink="http://www.w3.org/1999/xlink" x="0px" y="0px" width="257.189px"
	 height="257.188px" viewBox="298.27 65.112 257.189 257.188" enable-background="new 298.27 65.112 257.189 257.188"
	 xml:space="preserve">
<metadata>
	<sfw  xmlns="&ns_sfw;">
		<slices></slices>
		<sliceSourceBounds  width="257.189" height="257.188" x="297.77" y="178.2" bottomLeftOrigin="true"></sliceSourceBounds>
	</sfw>
</metadata>
<title>TARGET 1 B</title>
<g id="TARGETS">
	<g>
		<rect x="298.27" y="65.112" fill="#DDA63A" width="257.189" height="257.188"/>
	</g>
	<g>
		<g>
			<g>
				<path fill="#FFFFFF" d="M388.069,131.036c0,0,5.969-3.256,5.969-7.054c0-4.884-5.969-10.852-5.969-10.852
					s-5.968,6.239-5.968,10.852C382.372,127.781,386.712,130.223,388.069,131.036z"/>
			</g>
			<g>
				<path fill="#FFFFFF" d="M378.574,138.09c0,0,1.356,1.899,8.41,2.984c0,0,0.814-6.782-1.899-9.495c0,0-1.356-1.899-10.038-7.054
					C375.047,124.526,373.961,134.834,378.574,138.09z"/>
			</g>
			<g>
				<path fill="#FFFFFF" d="M377.76,151.926c0,0,1.627,2.171,9.224,3.256c0,0,0.814-7.325-1.899-10.31c0,0-1.356-2.17-10.852-7.596
					C374.233,137.277,373.147,148.67,377.76,151.926z"/>
			</g>
			<g>
				<path fill="#FFFFFF" d="M374.233,151.926c0,0-1.628,12.209,3.255,15.735c0,0,1.899,2.17,9.496,3.527
					c0,0,1.085-7.597-1.628-10.581C385.356,160.608,383.728,157.623,374.233,151.926z"/>
			</g>
			<g>
				<path fill="#FFFFFF" d="M384.813,175.258c0,0-2.442-3.256-12.208-8.41c0,0-0.814,12.751,4.069,16.006
					c0,0,2.442,2.442,10.038,3.527C386.712,186.381,387.798,178.242,384.813,175.258z"/>
			</g>
			<g>
				<path fill="#FFFFFF" d="M391.053,131.579c-2.713,2.713-1.899,9.495-1.899,9.495c7.054-1.085,8.41-2.984,8.41-2.984
					c4.612-3.256,3.527-13.564,3.527-13.564C392.41,129.68,391.053,131.579,391.053,131.579z"/>
			</g>
			<g>
				<path fill="#FFFFFF" d="M391.325,144.872c-2.713,2.984-1.899,10.31-1.899,10.31c7.596-1.085,9.224-3.256,9.224-3.256
					c4.883-3.256,3.798-14.649,3.798-14.649C392.681,142.702,391.325,144.872,391.325,144.872z"/>
			</g>
			<g>
				<path fill="#FFFFFF" d="M391.053,160.608c-2.713,2.984-1.628,10.581-1.628,10.581c7.596-1.086,9.496-3.527,9.496-3.527
					c4.883-3.256,3.255-15.735,3.255-15.735C392.41,157.623,391.053,160.608,391.053,160.608z"/>
			</g>
			<g>
				<path fill="#FFFFFF" d="M391.325,175.258c-2.713,2.984-1.899,11.123-1.899,11.123c7.596-1.085,10.038-3.527,10.038-3.527
					c4.883-3.255,4.069-16.006,4.069-16.006C393.766,172.002,391.325,175.258,391.325,175.258z"/>
			</g>
			<g>
				<rect x="386.441" y="188.551" fill="#FFFFFF" width="3.256" height="20.076"/>
			</g>
			<g>
				<path fill="#FFFFFF" d="M377.488,102.008c0-0.543-0.271-1.086-0.814-1.357c-0.542-0.271-1.085,0.271-1.356,0.814v0.271v20.618
					l2.17,1.356V102.008z"/>
			</g>
			<g>
				<path fill="#FFFFFF" d="M382.101,117.472V98.209c0-0.542-0.543-1.085-1.085-1.085l0,0c-0.542,0-1.085,0.543-1.085,1.085v24.688
					C380.473,120.998,381.015,119.099,382.101,117.472z"/>
			</g>
			<g>
				<path fill="#FFFFFF" d="M386.712,92.783c0-0.543-0.542-1.085-1.085-1.085c-0.543,0-1.085,0.542-1.085,1.085l0,0v21.161
					l2.17-2.984V92.783L386.712,92.783z"/>
			</g>
			<g>
				<path fill="#FFFFFF" d="M401.091,102.008c0-0.543-0.542-1.086-1.085-1.086c-0.542,0-1.085,0.543-1.085,1.086v21.703l2.17-1.356
					V102.008L401.091,102.008z"/>
			</g>
			<g>
				<path fill="#FFFFFF" d="M396.479,122.898V98.481c0-0.543-0.542-1.085-1.356-0.813c-0.542,0-0.814,0.542-0.814,0.813v18.991
					C395.123,119.37,395.937,121.27,396.479,122.898L396.479,122.898z"/>
			</g>
			<g>
				<path fill="#FFFFFF" d="M391.867,92.783c0-0.543-0.542-1.085-1.085-1.085c-0.542,0-1.085,0.542-1.085,1.085l0,0v18.177
					l2.17,2.984V92.783z"/>
			</g>
			<g>
				<path fill="#FFFFFF" d="M427.679,131.036c0,0,5.968-3.256,5.968-7.054c0-4.884-5.968-10.852-5.968-10.852
					s-5.969,6.239-5.969,10.852C421.71,127.781,426.321,130.223,427.679,131.036z"/>
			</g>
			<g>
				<path fill="#FFFFFF" d="M417.912,138.09c0,0,1.356,1.899,8.41,2.984c0,0,0.814-6.782-1.898-9.495c0,0-1.356-2.171-10.038-7.054
					C414.385,124.526,413.571,134.834,417.912,138.09z"/>
			</g>
			<g>
				<path fill="#FFFFFF" d="M417.369,151.926c0,0,1.627,2.171,9.224,3.256c0,0,0.814-7.325-1.898-10.31c0,0-1.356-2.17-10.852-7.596
					C413.571,137.277,412.486,148.67,417.369,151.926z"/>
			</g>
			<g>
				<path fill="#FFFFFF" d="M413.842,151.926c0,0-1.628,12.209,3.255,15.735c0,0,1.899,2.17,9.495,3.527
					c0,0,1.086-7.597-1.628-10.581C424.694,160.608,423.338,157.623,413.842,151.926z"/>
			</g>
			<g>
				<path fill="#FFFFFF" d="M424.423,175.258c0,0-2.441-3.256-12.208-8.41c0,0-0.814,12.751,4.069,16.006
					c0,0,2.442,2.442,10.038,3.527C426.321,186.381,427.136,178.242,424.423,175.258z"/>
			</g>
			<g>
				<path fill="#FFFFFF" d="M430.662,131.579c-2.713,2.713-1.898,9.495-1.898,9.495c7.054-1.085,8.41-2.984,8.41-2.984
					c4.612-3.256,3.526-13.564,3.526-13.564C431.748,129.408,430.662,131.579,430.662,131.579z"/>
			</g>
			<g>
				<path fill="#FFFFFF" d="M430.662,144.872c-2.713,2.984-1.898,10.31-1.898,10.31c7.596-1.356,9.224-3.256,9.224-3.256
					c4.884-3.526,3.799-14.649,3.799-14.649C432.019,142.702,430.662,144.872,430.662,144.872z"/>
			</g>
			<g>
				<path fill="#FFFFFF" d="M438.259,167.661c4.884-3.256,3.256-15.735,3.256-15.735c-9.496,5.426-11.123,8.682-11.123,8.682
					c-2.713,2.984-1.628,10.581-1.628,10.581C436.359,169.831,438.259,167.661,438.259,167.661z"/>
			</g>
			<g>
				<path fill="#FFFFFF" d="M430.662,175.258c-2.713,2.984-1.898,11.123-1.898,11.123c7.596-1.085,10.038-3.527,10.038-3.527
					c4.883-3.526,4.069-16.006,4.069-16.006C433.104,172.002,430.662,175.258,430.662,175.258z"/>
			</g>
			<g>
				<rect x="425.779" y="188.551" fill="#FFFFFF" width="3.256" height="20.076"/>
			</g>
			<g>
				<path fill="#FFFFFF" d="M416.826,102.008c0-0.543-0.542-1.086-1.085-1.086s-1.085,0.543-1.085,1.086l0,0v20.618l2.17,1.356
					V102.008z"/>
			</g>
			<g>
				<path fill="#FFFFFF" d="M421.438,117.472V98.209c0-0.542-0.542-1.085-1.085-1.085c-0.542,0-1.085,0.543-1.085,1.085v24.688
					C419.811,120.998,420.625,119.099,421.438,117.472z"/>
			</g>
			<g>
				<path fill="#FFFFFF" d="M426.051,92.783c0-0.543-0.543-1.085-1.086-1.085c-0.542,0-1.085,0.542-1.085,1.085v21.161l2.171-2.984
					V92.783z"/>
			</g>
			<g>
				<path fill="#FFFFFF" d="M440.429,102.008c0-0.543-0.542-1.086-1.085-1.086c-0.542,0-1.085,0.543-1.085,1.086v21.703l2.17-1.356
					V102.008z"/>
			</g>
			<g>
				<path fill="#FFFFFF" d="M435.817,122.898V98.481c0-0.543-0.271-1.085-0.814-1.356c-0.542,0-1.085,0.271-1.356,0.813v0.271V117.2
					C434.461,119.37,435.274,121.27,435.817,122.898L435.817,122.898z"/>
			</g>
			<g>
				<path fill="#FFFFFF" d="M431.205,92.783c0-0.543-0.543-1.085-1.085-1.085c-0.543,0-1.085,0.542-1.085,1.085v18.177l2.17,2.984
					V92.783z"/>
			</g>
			<g>
				<path fill="#FFFFFF" d="M465.931,131.308c0,0,5.969-3.256,5.969-7.054c0-4.884-5.969-10.853-5.969-10.853
					s-5.968,6.24-5.968,10.853C459.963,128.323,464.574,130.493,465.931,131.308z"/>
			</g>
			<g>
				<path fill="#FFFFFF" d="M456.164,138.362c0,0,1.356,1.898,8.41,2.984c0,0,0.814-6.783-1.898-9.496c0,0-1.356-2.17-10.038-7.054
					C452.638,124.796,451.823,135.106,456.164,138.362z"/>
			</g>
			<g>
				<path fill="#FFFFFF" d="M455.622,152.198c0,0,1.628,2.17,9.224,3.256c0,0,0.814-7.325-1.898-10.31c0,0-1.356-2.171-10.853-7.597
					C451.823,137.547,450.738,148.942,455.622,152.198z"/>
			</g>
			<g>
				<path fill="#FFFFFF" d="M452.095,152.198c0,0-1.628,12.208,3.256,15.735c0,0,1.899,2.17,9.495,3.526
					c0,0,1.085-7.596-1.628-10.58C462.947,160.879,461.591,157.895,452.095,152.198z"/>
			</g>
			<g>
				<path fill="#FFFFFF" d="M454.536,183.125c0,0,2.442,2.441,10.038,3.527c0,0,0.814-8.14-1.898-11.124
					c0,0-2.442-3.255-12.209-8.41C450.467,167.118,449.653,179.869,454.536,183.125z"/>
			</g>
			<g>
				<path fill="#FFFFFF" d="M468.915,131.85c-2.713,2.713-1.898,9.496-1.898,9.496c7.054-1.086,8.41-2.984,8.41-2.984
					c4.611-3.256,3.526-13.565,3.526-13.565C470.001,129.951,468.915,131.85,468.915,131.85z"/>
			</g>
			<g>
				<path fill="#FFFFFF" d="M468.915,145.415c-2.713,2.984-1.898,10.309-1.898,10.309c7.596-1.356,9.224-3.255,9.224-3.255
					c4.884-3.527,3.798-14.65,3.798-14.65C470.271,142.973,468.915,145.415,468.915,145.415z"/>
			</g>
			<g>
				<path fill="#FFFFFF" d="M476.512,167.933c4.884-3.527,3.256-15.735,3.256-15.735c-9.496,5.426-11.123,8.682-11.123,8.682
					c-2.714,2.984-1.628,10.58-1.628,10.58C474.612,170.103,476.512,167.933,476.512,167.933z"/>
			</g>
			<g>
				<path fill="#FFFFFF" d="M468.915,175.529c-2.713,2.984-1.898,11.124-1.898,11.124c7.596-1.086,10.038-3.527,10.038-3.527
					c4.883-3.526,4.069-16.007,4.069-16.007C471.357,172.274,468.915,175.529,468.915,175.529z"/>
			</g>
			<g>
				<rect x="464.032" y="188.823" fill="#FFFFFF" width="3.256" height="20.076"/>
			</g>
			<g>
				<path fill="#FFFFFF" d="M455.079,102.279c0-0.542-0.543-1.085-1.085-1.085c-0.543,0-1.085,0.543-1.085,1.085v20.619l2.17,1.356
					V102.279z"/>
			</g>
			<g>
				<path fill="#FFFFFF" d="M459.691,117.742v-18.99c0-0.543-0.543-1.085-1.085-1.085l0,0c-0.543,0-1.086,0.542-1.086,1.085v24.417
					l0,0C458.063,121.27,458.877,119.642,459.691,117.742z"/>
			</g>
			<g>
				<path fill="#FFFFFF" d="M464.304,93.055c0-0.543-0.543-1.085-1.086-1.085c-0.542,0-1.085,0.542-1.085,1.085v21.161l2.171-2.984
					V93.055z"/>
			</g>
			<g>
				<path fill="#FFFFFF" d="M478.682,102.279c0-0.542-0.542-1.085-1.085-1.085l0,0c-0.542,0-1.085,0.543-1.085,1.085l0,0v21.704
					l2.17-1.356V102.279z"/>
			</g>
			<g>
				<path fill="#FFFFFF" d="M474.07,123.169V98.752c0-0.543-0.271-1.085-0.814-1.356c-0.542,0-1.085,0.271-1.356,0.813v0.271v18.991
					C472.984,119.642,473.527,121.27,474.07,123.169z"/>
			</g>
			<g>
				<path fill="#FFFFFF" d="M469.458,93.055c0-0.543-0.543-1.085-1.085-1.085c-0.543,0-1.085,0.542-1.085,1.085v18.177l2.17,2.984
					V93.055z"/>
			</g>
		</g>
		<g>
			<path fill="#FFFFFF" d="M480.853,244.439l-19.533,15.464c-0.271,0.271-0.543,0.271-0.814,0.271c-0.542,0-0.542-0.543-0.542-1.086
				v-7.867h-80.847c-0.271,0-0.542-0.271-0.542-0.814v-13.564c0-0.543,0.271-0.813,0.542-0.813h80.575v-7.597
				c0-0.543,0.271-0.813,0.542-1.085c0.271,0,0.543,0,0.814,0.271l19.533,14.921c0.543,0.271,0.543,1.085,0.271,1.628
				C481.124,244.167,480.853,244.439,480.853,244.439L480.853,244.439z"/>
		</g>
		<g>
			<path fill="#FFFFFF" d="M373.419,282.962l19.533,15.464c0.271,0.271,0.543,0.271,0.814,0.271c0.542,0,0.542-0.271,0.542-0.813
				v-7.868h80.847c0.271,0,0.813-0.271,0.543-0.813l0,0v-13.564c0-0.543-0.271-0.814-0.543-0.814H394.58v-7.597
				c0-0.542,0-0.813-0.542-0.813c-0.271,0-0.542,0-0.814,0.271l-19.533,14.921c-0.271,0.271-0.543,0.543-0.543,1.086
				C373.147,282.42,373.147,282.692,373.419,282.962z"/>
		</g>
	</g>
</g>
</svg>
