<?xml version="1.0" encoding="utf-8"?>
<!-- Generator: Adobe Illustrator 16.0.3, SVG Export Plug-In . SVG Version: 6.00 Build 0)  -->
<!DOCTYPE svg PUBLIC "-//W3C//DTD SVG 1.1//EN" "http://www.w3.org/Graphics/SVG/1.1/DTD/svg11.dtd" [
	<!ENTITY ns_extend "http://ns.adobe.com/Extensibility/1.0/">
	<!ENTITY ns_ai "http://ns.adobe.com/AdobeIllustrator/10.0/">
	<!ENTITY ns_graphs "http://ns.adobe.com/Graphs/1.0/">
	<!ENTITY ns_vars "http://ns.adobe.com/Variables/1.0/">
	<!ENTITY ns_imrep "http://ns.adobe.com/ImageReplacement/1.0/">
	<!ENTITY ns_sfw "http://ns.adobe.com/SaveForWeb/1.0/">
	<!ENTITY ns_custom "http://ns.adobe.com/GenericCustomNamespace/1.0/">
	<!ENTITY ns_adobe_xpath "http://ns.adobe.com/XPath/1.0/">
]>
<svg version="1.1" id="Layer_1" xmlns:x="&ns_extend;" xmlns:i="&ns_ai;" xmlns:graph="&ns_graphs;"
	 xmlns="http://www.w3.org/2000/svg" xmlns:xlink="http://www.w3.org/1999/xlink" x="0px" y="0px" width="301.719px"
	 height="301.719px" viewBox="275.981 76.384 301.719 301.719" enable-background="new 275.981 76.384 301.719 301.719"
	 xml:space="preserve">
<metadata>
	<sfw  xmlns="&ns_sfw;">
		<slices></slices>
		<sliceSourceBounds  width="301.719" height="301.719" x="275.481" y="122.397" bottomLeftOrigin="true"></sliceSourceBounds>
	</sfw>
</metadata>
<title>TARGET 1.5</title>
<g id="TARGETS">
	<g>
		<rect x="275.981" y="76.384" fill="#DDA63A" width="301.719" height="301.719"/>
	</g>
	<g>
		<g>
			<g>
				<path fill="#FFFFFF" d="M427.159,221.197c1.909-1.273,8.593-4.773,8.593-10.503c0-7.002-8.911-16.231-8.911-16.231
					s-8.593,8.911-8.593,16.231C418.248,216.423,427.159,221.197,427.159,221.197z"/>
			</g>
			<g>
				<path fill="#FFFFFF" d="M431.297,221.833c-3.819,4.138-2.864,14.004-2.864,14.004c10.502-1.592,12.73-4.456,12.73-4.456
					c6.684-4.773,5.092-20.369,5.092-20.369C433.524,218.969,431.297,221.833,431.297,221.833z"/>
			</g>
			<g>
				<path fill="#FFFFFF" d="M431.615,241.884c-4.138,4.456-2.864,15.277-2.864,15.277c11.139-1.91,13.686-5.093,13.686-5.093
					c7.319-5.092,5.729-21.96,5.729-21.96C433.843,238.701,431.615,241.884,431.615,241.884z"/>
			</g>
			<g>
				<path fill="#FFFFFF" d="M431.297,265.436c-4.138,4.456-2.546,15.596-2.546,15.596c11.139-1.91,14.321-5.093,14.321-5.093
					c7.32-5.092,4.774-23.552,4.774-23.552C433.524,260.662,431.297,265.436,431.297,265.436z"/>
			</g>
			<g>
				<path fill="#FFFFFF" d="M431.615,287.397c-4.138,4.456-2.864,16.868-2.864,16.868c11.139-1.91,14.958-5.411,14.958-5.411
					c7.32-5.092,6.047-24.188,6.047-24.188C435.435,282.304,431.615,287.397,431.615,287.397z"/>
			</g>
			<g>
				<path fill="#FFFFFF" d="M412.519,231.381c0,0,2.228,2.864,12.731,4.456c0,0,0.954-10.185-2.865-14.004
					c0,0-1.909-2.864-15.276-10.503C407.427,211.33,405.835,226.925,412.519,231.381z"/>
			</g>
			<g>
				<path fill="#FFFFFF" d="M411.564,252.387c0,0,2.228,3.183,13.686,5.093c0,0,1.272-10.821-2.865-15.277
					c0,0-2.228-3.183-16.231-11.458C406.153,230.426,404.244,247.294,411.564,252.387z"/>
			</g>
			<g>
				<path fill="#FFFFFF" d="M406.153,252.387c0,0-2.546,18.46,4.774,23.552c0,0,2.865,3.501,14.323,5.093
					c0,0,1.591-11.14-2.547-15.596C422.703,265.436,420.476,260.662,406.153,252.387z"/>
			</g>
			<g>
				<path fill="#FFFFFF" d="M422.066,287.397c0,0-3.819-5.093-18.459-12.73c0,0-1.273,19.096,6.047,24.188
					c0,0,3.819,3.501,14.959,5.411C424.932,303.947,426.522,291.852,422.066,287.397z"/>
			</g>
			<g>
				<path fill="#FFFFFF" d="M446.255,177.594c-0.318-0.955-1.272-1.273-1.909-1.273s-0.955,0.637-1.273,1.273v32.463l3.183-1.909
					V177.594z"/>
			</g>
			<g>
				<path fill="#FFFFFF" d="M439.571,208.784v-36.602c-0.318-0.954-1.272-1.272-1.909-1.272s-0.955,0.637-1.273,1.272v28.645
					C437.662,203.373,438.617,206.239,439.571,208.784L439.571,208.784z"/>
			</g>
			<g>
				<path fill="#FFFFFF" d="M432.569,163.59c0-0.955-0.636-1.592-1.591-1.592l0,0c-0.955,0-1.592,0.637-1.592,1.592l0,0v27.371
					l3.183,4.456V163.59z"/>
			</g>
			<g>
				<path fill="#FFFFFF" d="M410.927,177.594c0-0.955-0.636-1.592-1.591-1.592l0,0c-0.955,0-1.591,0.637-1.591,1.592l0,0v30.554
					l3.183,1.909V177.594z"/>
			</g>
			<g>
				<path fill="#FFFFFF" d="M417.611,200.827v-28.645c0-0.954-0.637-1.591-1.592-1.591c-0.955,0-1.591,0.637-1.591,1.591l0,0v36.92
					C415.383,206.239,416.338,203.373,417.611,200.827z"/>
			</g>
			<g>
				<path fill="#FFFFFF" d="M424.613,163.59c0-0.955-0.637-1.592-1.592-1.592l0,0c-0.955,0-1.591,0.637-1.591,1.592l0,0v31.827
					l3.183-4.456V163.59z"/>
			</g>
			<g>
				<rect x="423.977" y="311.584" fill="#FFFFFF" width="6.365" height="38.192"/>
			</g>
		</g>
		<g>
			<g>
				<path fill="#FFFFFF" d="M341.545,150.86c5.092,0,8.593-4.138,7.32-12.731c-1.273-6.365-3.819-12.412-7.639-17.822
					c0,0-6.684,12.73-7.002,19.096S335.498,150.86,341.545,150.86z"/>
			</g>
			<g>
				<path fill="#FFFFFF" d="M345.364,154.679c-3.501,5.41-5.092,10.82,0,13.686c3.183,1.909,9.548-1.273,12.73-9.23
					c2.228-5.729,3.183-12.094,2.865-18.459C360.959,140.993,348.865,149.268,345.364,154.679z"/>
			</g>
			<g>
				<path fill="#FFFFFF" d="M345.364,178.231c-3.501,5.41-5.092,10.821,0,13.686c3.183,1.909,9.548-1.273,12.73-9.23
					c2.228-5.729,3.183-12.094,2.865-18.459C360.959,164.545,348.865,172.82,345.364,178.231z"/>
			</g>
			<g>
				<path fill="#FFFFFF" d="M345.683,201.146c-3.501,5.41-5.093,10.821,0,13.686c3.183,1.909,9.548-1.273,12.73-9.229
					c2.228-5.729,3.183-12.095,2.864-18.46C361.277,187.142,349.184,195.736,345.683,201.146z"/>
			</g>
			<g>
				<path fill="#FFFFFF" d="M345.683,224.698c-3.501,5.411-5.093,10.821,0,13.686c3.183,1.91,9.548-1.273,12.73-9.229
					c2.228-6.047,3.183-12.095,2.864-18.46C361.277,210.694,349.184,219.287,345.683,224.698z"/>
			</g>
			<g>
				<path fill="#FFFFFF" d="M338.362,168.365c5.092-3.184,3.501-8.594,0-13.686c-3.501-5.093-15.914-13.686-15.914-13.686
					c-0.318,6.365,0.637,12.412,2.864,18.459C328.496,167.091,334.861,170.592,338.362,168.365z"/>
			</g>
			<g>
				<path fill="#FFFFFF" d="M338.362,191.916c5.092-3.183,3.501-8.594,0-13.686c-3.501-5.093-15.914-13.686-15.914-13.686
					c-0.318,6.365,0.637,12.412,2.864,18.459C328.496,190.643,334.861,193.825,338.362,191.916z"/>
			</g>
			<g>
				<path fill="#FFFFFF" d="M338.044,214.831c5.092-3.183,3.501-8.593,0-13.686S322.13,187.46,322.13,187.46
					c-0.318,6.365,0.955,12.412,2.865,18.46C328.178,213.558,334.543,216.74,338.044,214.831z"/>
			</g>
			<g>
				<path fill="#FFFFFF" d="M338.044,238.383c5.092-3.183,3.501-8.593,0-13.686c-3.501-5.092-15.914-13.686-15.914-13.686
					c0,6.365,0.955,12.412,3.183,18.46C328.178,237.11,334.543,240.293,338.044,238.383z"/>
			</g>
			<g>
				<path fill="#FFFFFF" d="M359.05,237.428c0,0-6.684,42.012-14.004,77.34v-68.109h-6.365v68.428
					c-7.32-35.01-14.004-77.658-14.004-77.658c-1.91,32.146,2.864,64.29,14.004,94.208l0,0v18.141h6.365v-18.141
					C356.503,301.718,361.277,269.573,359.05,237.428z"/>
			</g>
		</g>
		<g>
			<g>
				<path fill="#FFFFFF" d="M512.455,272.119h-6.365v38.192l-4.774-14.322c-0.954-2.864-4.137-4.455-6.684-3.501
					c-0.954,0.318-1.591,0.637-2.228,1.273l-27.053,28.325l29.28-12.412l11.776,23.552l0,0v16.868h6.365L512.455,272.119z"/>
			</g>
			<g>
				<path fill="#FFFFFF" d="M502.271,171.547h3.183c1.273,0,2.228,0.954,2.228,2.228v1.592c0,1.272-0.954,2.228-2.228,2.228h-3.183
					c-1.273,0-2.228-0.955-2.228-2.228v-1.592C499.725,172.82,500.997,171.547,502.271,171.547z"/>
			</g>
			<g>
				<path fill="#FFFFFF" d="M493.359,171.547h3.183c1.272,0,2.228,0.954,2.228,2.228v1.592c0,1.272-0.955,2.228-2.228,2.228h-3.183
					c-1.273,0-2.229-0.955-2.229-2.228v-1.592C491.131,172.82,492.086,171.547,493.359,171.547z"/>
			</g>
			<g>
				<path fill="#FFFFFF" d="M502.907,163.59h2.546c1.273,0,2.228,0.955,2.228,2.228v1.91c0,1.272-0.954,2.228-2.228,2.228h-2.546
					c-1.273,0-2.229-0.955-2.229-2.228v-1.91C500.679,164.545,501.634,163.59,502.907,163.59z"/>
			</g>
			<g>
				<path fill="#FFFFFF" d="M494.313,163.908h2.547c1.272,0,2.228,0.955,2.228,2.228v1.91c0,1.272-0.955,2.228-2.228,2.228h-2.547
					c-1.272,0-2.228-0.955-2.228-2.228v-1.91C491.768,164.864,493.041,163.908,494.313,163.908z"/>
			</g>
			<g>
				<path fill="#FFFFFF" d="M502.589,179.503h3.183c1.273,0,2.228,0.955,2.228,2.229v1.591c0,1.273-0.954,2.229-2.228,2.229h-3.183
					c-1.273,0-2.228-0.955-2.228-2.229v-1.591C500.043,180.458,501.315,179.503,502.589,179.503z"/>
			</g>
			<g>
				<path fill="#FFFFFF" d="M493.359,179.503h3.183c1.272,0,2.228,0.955,2.228,2.229v1.591c0,1.273-0.955,2.229-2.228,2.229h-3.183
					c-1.273,0-2.229-0.955-2.229-2.229v-1.591C491.131,180.458,492.086,179.503,493.359,179.503z"/>
			</g>
			<g>
				<path fill="#FFFFFF" d="M502.271,187.142h3.183c1.273,0,2.228,0.955,2.228,2.228v1.592c0,1.273-0.954,2.228-2.228,2.228h-3.183
					c-1.273,0-2.228-0.954-2.228-2.228v-1.592C499.725,188.097,500.997,187.142,502.271,187.142z"/>
			</g>
			<g>
				<path fill="#FFFFFF" d="M498.77,191.28v-1.592c0-1.272-0.955-2.228-2.228-2.228h-3.183c-0.955,0-1.592,0.318-1.91,1.273
					c0.637,1.272,1.91,3.183,2.864,5.092h2.229C497.496,193.507,498.77,192.552,498.77,191.28L498.77,191.28z"/>
			</g>
			<g>
				<path fill="#FFFFFF" d="M502.589,194.781h3.183c1.273,0,2.228,0.955,2.228,2.228v1.592c0,1.272-0.954,2.228-2.228,2.228h-3.183
					c-1.273,0-2.228-0.955-2.228-2.228v-1.592C500.043,195.736,501.315,194.781,502.589,194.781z"/>
			</g>
			<g>
				<path fill="#FFFFFF" d="M498.77,198.918v-1.592c0-1.273-0.955-2.228-2.228-2.228h-1.91c0.955,1.909,1.91,4.138,2.547,6.047
					C498.133,200.509,498.77,199.872,498.77,198.918z"/>
			</g>
			<g>
				<path fill="#FFFFFF" d="M502.589,202.419h3.183c1.273,0,2.228,0.954,2.228,2.228v1.591c0,1.273-0.954,2.229-2.228,2.229h-3.183
					c-1.273,0-2.228-0.955-2.228-2.229v-1.591C500.043,203.692,501.315,202.419,502.589,202.419z"/>
			</g>
			<g>
				<path fill="#FFFFFF" d="M502.589,216.74h3.183c1.273,0,2.228-0.954,2.228-2.228v-1.591c0-1.273-0.954-2.229-2.228-2.229h-3.183
					c-0.955,0-1.91,0.637-2.228,1.592c0.317,1.272,0.636,2.864,0.954,4.455C501.634,216.423,501.952,216.74,502.589,216.74z"/>
			</g>
			<g>
				<path fill="#FFFFFF" d="M505.453,224.061c1.273,0,2.228-0.954,2.228-2.228v-1.909c0-1.273-0.954-2.229-2.228-2.229h-3.183
					c-0.318,0-0.637,0-0.955,0.318c0.318,1.91,0.637,4.138,1.273,6.365L505.453,224.061z"/>
			</g>
			<g>
				<path fill="#FFFFFF" d="M504.181,232.018h1.272c1.273,0,2.228-0.955,2.228-2.228v-1.592c0-1.273-0.954-2.228-2.228-2.228h-2.546
					c0.318,1.272,0.318,2.546,0.637,3.819C503.862,231.063,503.862,231.063,504.181,232.018z"/>
			</g>
			<g>
				<path fill="#FFFFFF" d="M507.999,237.11v-1.591c0-1.273-0.954-2.228-2.228-2.228h-1.273c0.318,2.228,0.955,4.455,1.273,6.365
					C507.045,239.338,507.999,238.383,507.999,237.11z"/>
			</g>
			<g>
				<path fill="#FFFFFF" d="M507.999,244.748v-1.591c0-1.273-0.954-2.229-1.909-2.229c0.637,2.229,0.955,4.138,1.273,5.411
					C507.681,246.022,507.999,245.385,507.999,244.748z"/>
			</g>
			<g>
				<path fill="#FFFFFF" d="M502.907,156.588h3.501c0.955,0,1.591,0.637,1.591,1.592v2.864c0,0.954-0.636,1.591-1.591,1.591h-3.501
					c-0.955,0-1.592-0.637-1.592-1.591v-2.864C501.315,157.225,501.952,156.588,502.907,156.588z"/>
			</g>
			<g>
				<path fill="#FFFFFF" d="M503.226,149.586h2.864c0.955,0,1.591,0.637,1.591,1.592v2.546c0,0.955-0.636,1.591-1.591,1.591h-2.864
					c-0.955,0-1.592-0.636-1.592-1.591v-2.546C501.634,150.223,502.271,149.586,503.226,149.586z"/>
			</g>
			<g>
				<path fill="#FFFFFF" d="M494.95,149.268h2.864c0.955,0,1.592,0.637,1.592,1.592v2.546c0,0.955-0.637,1.591-1.592,1.591h-2.864
					c-0.955,0-1.591-0.636-1.591-1.591v-2.546C493.678,149.905,494.313,149.268,494.95,149.268z"/>
			</g>
			<g>
				<path fill="#FFFFFF" d="M496.86,142.266h2.546c0.955,0,1.591,0.637,1.591,1.592v2.228c0,0.955-0.636,1.592-1.591,1.592h-2.546
					c-0.955,0-1.592-0.637-1.592-1.592v-2.228C495.269,143.221,495.905,142.266,496.86,142.266z"/>
			</g>
			<g>
				<path fill="#FFFFFF" d="M503.862,141.948h2.546c0.955,0,1.591,0.637,1.591,1.592v2.228c0,0.955-0.636,1.592-1.591,1.592h-2.546
					c-0.955,0-1.592-0.637-1.592-1.592v-2.228C502.271,142.903,502.907,141.948,503.862,141.948z"/>
			</g>
			<g>
				<path fill="#FFFFFF" d="M504.181,136.219h1.909c0.955,0,1.591,0.637,1.591,1.591v1.273c0,0.955-0.636,1.592-1.591,1.592h-1.909
					c-0.955,0-1.592-0.637-1.592-1.592v-1.273C502.907,136.856,503.544,136.219,504.181,136.219z"/>
			</g>
			<g>
				<path fill="#FFFFFF" d="M497.814,136.219h1.91c0.954,0,1.591,0.637,1.591,1.591v1.273c0,0.955-0.637,1.592-1.591,1.592h-1.91
					c-0.954,0-1.591-0.637-1.591-1.592v-1.273C496.224,136.856,496.86,136.219,497.814,136.219z"/>
			</g>
			<g>
				<path fill="#FFFFFF" d="M500.043,130.49h1.272c0.955,0,1.592,0.636,1.592,1.591v1.273c0,0.955-0.637,1.591-1.592,1.591h-1.272
					c-0.955,0-1.592-0.636-1.592-1.591v-1.273C498.451,131.126,499.088,130.49,500.043,130.49z"/>
			</g>
			<g>
				<path fill="#FFFFFF" d="M505.135,130.49h1.273c0.955,0,1.591,0.636,1.591,1.591v1.273c0,0.955-0.636,1.591-1.591,1.591h-1.273
					c-0.954,0-1.591-0.636-1.591-1.591v-1.273C503.544,131.126,504.498,130.49,505.135,130.49z"/>
			</g>
			<g>
				<path fill="#FFFFFF" d="M494.313,156.588h3.501c0.955,0,1.592,0.637,1.592,1.592v2.864c0,0.954-0.637,1.591-1.592,1.591h-3.501
					c-0.954,0-1.591-0.637-1.591-1.591v-2.864C492.723,157.225,493.678,156.588,494.313,156.588z"/>
			</g>
			<g>
				<path fill="#FFFFFF" d="M506.09,127.308h1.273c0.317,0,0.636,0.317,0.636,0.636v0.637c0,0.318-0.318,0.637-0.636,0.637h-1.273
					c-0.318,0-0.637-0.318-0.637-0.637v-0.637C505.453,127.625,505.771,127.308,506.09,127.308z"/>
			</g>
			<g>
				<path fill="#FFFFFF" d="M501.634,127.308h1.273c0.318,0,0.637,0.317,0.637,0.636v0.637c0,0.318-0.318,0.637-0.637,0.637h-1.273
					c-0.318,0-0.637-0.318-0.637-0.637v-0.637C500.997,127.625,501.315,127.308,501.634,127.308z"/>
			</g>
			<g>
				<path fill="#FFFFFF" d="M503.544,123.807h1.272c0.318,0,0.637,0.317,0.637,0.636v0.637c0,0.318-0.318,0.637-0.637,0.637h-1.272
					c-0.318,0-0.637-0.318-0.637-0.637v-0.637C502.907,124.124,503.226,123.807,503.544,123.807z"/>
			</g>
			<g>
				<path fill="#FFFFFF" d="M507.045,120.624h0.636c0.318,0,0.637,0.317,0.637,0.636v0.318c0,0.318-0.318,0.637-0.637,0.637h-0.636
					c-0.318,0-0.637-0.318-0.637-0.637v-0.318C506.09,121.26,506.408,120.624,507.045,120.624z"/>
			</g>
			<g>
				<path fill="#FFFFFF" d="M511.818,171.547h3.183c1.273,0,2.229,0.954,2.229,2.228v1.592c0,1.272-0.955,2.228-2.229,2.228h-3.183
					c-1.272,0-2.228-0.955-2.228-2.228v-1.592C509.272,172.82,510.546,171.547,511.818,171.547z"/>
			</g>
			<g>
				<path fill="#FFFFFF" d="M521.049,171.547h3.183c1.272,0,2.228,0.954,2.228,2.228v1.592c0,1.272-0.955,2.228-2.228,2.228h-3.183
					c-1.273,0-2.229-0.955-2.229-2.228v-1.592C518.82,172.82,519.775,171.547,521.049,171.547z"/>
			</g>
			<g>
				<path fill="#FFFFFF" d="M511.5,163.59h2.547c1.272,0,2.228,0.955,2.228,2.228v1.91c0,1.272-0.955,2.228-2.228,2.228H511.5
					c-1.272,0-2.228-0.955-2.228-2.228v-1.91C509.272,164.545,510.228,163.59,511.5,163.59z"/>
			</g>
			<g>
				<path fill="#FFFFFF" d="M520.73,163.908h2.546c1.273,0,2.228,0.955,2.228,2.228v1.91c0,1.272-0.954,2.228-2.228,2.228h-2.546
					c-1.273,0-2.229-0.955-2.229-2.228v-1.91C518.502,164.864,519.457,163.908,520.73,163.908z"/>
			</g>
			<g>
				<path fill="#FFFFFF" d="M511.818,179.503h3.183c1.273,0,2.229,0.955,2.229,2.229v1.591c0,1.273-0.955,2.229-2.229,2.229h-3.183
					c-1.272,0-2.228-0.955-2.228-2.229v-1.591C509.591,180.458,510.546,179.503,511.818,179.503z"/>
			</g>
			<g>
				<path fill="#FFFFFF" d="M521.049,179.503h3.183c1.272,0,2.228,0.955,2.228,2.229v1.591c0,1.273-0.955,2.229-2.228,2.229h-3.183
					c-1.273,0-2.229-0.955-2.229-2.229v-1.591C518.82,180.458,519.775,179.503,521.049,179.503z"/>
			</g>
			<g>
				<path fill="#FFFFFF" d="M511.5,187.142h3.183c1.273,0,2.229,0.955,2.229,2.228v1.592c0,1.273-0.955,2.228-2.229,2.228H511.5
					c-1.272,0-2.228-0.954-2.228-2.228v-1.592C508.954,188.097,510.228,187.142,511.5,187.142z"/>
			</g>
			<g>
				<path fill="#FFFFFF" d="M521.049,187.142h3.183c1.272,0,2.228,0.955,2.228,2.228v1.592c0,1.273-0.955,2.228-2.228,2.228h-3.183
					c-1.273,0-2.229-0.954-2.229-2.228v-1.592C518.82,188.097,519.775,187.142,521.049,187.142z"/>
			</g>
			<g>
				<path fill="#FFFFFF" d="M512.137,194.781h3.183c1.273,0,2.229,0.955,2.229,2.228v1.592c0,1.272-0.955,2.228-2.229,2.228h-3.183
					c-1.272,0-2.228-0.955-2.228-2.228v-1.592C509.591,195.736,510.864,194.781,512.137,194.781z"/>
			</g>
			<g>
				<path fill="#FFFFFF" d="M521.049,194.781h3.183c1.272,0,2.228,0.955,2.228,2.228v1.592c0,1.272-0.955,2.228-2.228,2.228h-3.183
					c-1.273,0-2.229-0.955-2.229-2.228v-1.592C518.82,195.736,519.775,194.781,521.049,194.781z"/>
			</g>
			<g>
				<path fill="#FFFFFF" d="M511.5,202.419h3.183c1.273,0,2.229,0.954,2.229,2.228v1.591c0,1.273-0.955,2.229-2.229,2.229H511.5
					c-1.272,0-2.228-0.955-2.228-2.229v-1.591C508.954,203.692,510.228,202.419,511.5,202.419z"/>
			</g>
			<g>
				<path fill="#FFFFFF" d="M518.184,204.965v1.909c0,0.955,0.637,1.91,1.592,2.229c1.273-2.229,2.546-4.138,4.138-6.048
					c-0.318,0-0.318,0-0.637,0h-3.183C519.139,203.055,518.184,204.01,518.184,204.965z"/>
			</g>
			<g>
				<path fill="#FFFFFF" d="M511.5,210.057h3.183c1.273,0,2.229,0.955,2.229,2.229v1.591c0,1.273-0.955,2.229-2.229,2.229H511.5
					c-1.272,0-2.228-0.955-2.228-2.229v-1.591C508.954,211.33,510.228,210.057,511.5,210.057z"/>
			</g>
			<g>
				<path fill="#FFFFFF" d="M515.956,218.332c-0.318-0.318-0.955-0.637-1.592-0.637H511.5c-1.272,0-2.228,0.955-2.228,2.228l0,0
					v1.91c0,1.273,0.955,2.228,2.228,2.228l0,0h2.864C514.683,222.152,515.319,219.923,515.956,218.332z"/>
			</g>
			<g>
				<path fill="#FFFFFF" d="M513.729,225.653h-2.547c-1.272,0-2.228,0.955-2.228,2.228v1.592c0,1.272,0.955,2.228,2.228,2.228h0.637
					C512.773,229.79,513.41,227.562,513.729,225.653z"/>
			</g>
			<g>
				<path fill="#FFFFFF" d="M511.818,233.291h-0.637c-1.272,0-2.228,0.954-2.228,2.228l0,0v1.909c0,0.955,0.637,1.592,1.273,1.91
					C510.864,237.428,511.182,235.2,511.818,233.291z"/>
			</g>
			<g>
				<path fill="#FFFFFF" d="M509.909,241.247c-0.637,0.318-0.955,0.955-0.955,1.91v1.909
					C509.272,243.794,509.591,242.521,509.909,241.247z"/>
			</g>
			<g>
				<path fill="#FFFFFF" d="M511.5,156.588h3.501c0.955,0,1.592,0.637,1.592,1.592v2.864c0,0.954-0.637,1.591-1.592,1.591H511.5
					c-0.954,0-1.591-0.637-1.591-1.591v-2.864C509.909,157.225,510.546,156.588,511.5,156.588z"/>
			</g>
			<g>
				<path fill="#FFFFFF" d="M511.182,149.268h2.865c0.954,0,1.591,0.637,1.591,1.592v2.546c0,0.955-0.637,1.591-1.591,1.591h-2.865
					c-0.954,0-1.591-0.636-1.591-1.591v-2.546C509.591,149.905,510.228,149.268,511.182,149.268z"/>
			</g>
			<g>
				<path fill="#FFFFFF" d="M518.82,149.268h2.864c0.955,0,1.592,0.637,1.592,1.592v2.546c0,0.955-0.637,1.591-1.592,1.591h-2.864
					c-0.954,0-1.591-0.636-1.591-1.591v-2.546C517.229,149.905,517.866,149.268,518.82,149.268z"/>
			</g>
			<g>
				<path fill="#FFFFFF" d="M518.502,142.903h2.547c0.954,0,1.591,0.637,1.591,1.592v2.228c0,0.955-0.637,1.591-1.591,1.591h-2.547
					c-0.954,0-1.591-0.636-1.591-1.591v-2.228C516.911,143.539,517.548,142.903,518.502,142.903z"/>
			</g>
			<g>
				<path fill="#FFFFFF" d="M511.5,142.266h2.547c0.954,0,1.591,0.637,1.591,1.592v2.228c0,0.955-0.637,1.592-1.591,1.592H511.5
					c-0.954,0-1.591-0.637-1.591-1.592v-2.228C509.909,143.221,510.546,142.266,511.5,142.266z"/>
			</g>
			<g>
				<path fill="#FFFFFF" d="M510.864,136.219h1.909c0.955,0,1.591,0.637,1.591,1.591v1.273c0,0.955-0.636,1.592-1.591,1.592h-1.909
					c-0.955,0-1.592-0.637-1.592-1.592v-1.273C509.272,136.856,510.228,136.219,510.864,136.219z"/>
			</g>
			<g>
				<path fill="#FFFFFF" d="M517.548,136.537h1.909c0.955,0,1.591,0.637,1.591,1.591v1.273c0,0.955-0.636,1.592-1.591,1.592h-1.909
					c-0.955,0-1.592-0.637-1.592-1.592v-1.273C515.956,137.492,516.593,136.537,517.548,136.537z"/>
			</g>
			<g>
				<path fill="#FFFFFF" d="M516.274,130.49h1.273c0.954,0,1.591,0.636,1.591,1.591v1.273c0,0.955-0.637,1.591-1.591,1.591h-1.273
					c-0.955,0-1.592-0.636-1.592-1.591v-1.273C514.683,131.126,515.638,130.49,516.274,130.49z"/>
			</g>
			<g>
				<path fill="#FFFFFF" d="M510.864,130.49h1.272c0.955,0,1.592,0.636,1.592,1.591v1.273c0,0.955-0.637,1.591-1.592,1.591h-1.272
					c-0.955,0-1.592-0.636-1.592-1.591v-1.273C509.272,131.126,509.909,130.49,510.864,130.49z"/>
			</g>
			<g>
				<path fill="#FFFFFF" d="M519.775,156.588h3.501c0.955,0,1.591,0.637,1.591,1.592v2.864c0,0.954-0.636,1.591-1.591,1.591h-3.501
					c-0.955,0-1.592-0.637-1.592-1.591v-2.864C518.184,157.225,518.82,156.588,519.775,156.588z"/>
			</g>
			<g>
				<path fill="#FFFFFF" d="M510.228,127.308h1.272c0.318,0,0.637,0.317,0.637,0.636v0.637c0,0.318-0.318,0.637-0.637,0.637h-1.272
					c-0.318,0-0.637-0.318-0.637-0.637v-0.637C509.591,127.625,509.909,127.308,510.228,127.308z"/>
			</g>
			<g>
				<path fill="#FFFFFF" d="M508.317,123.807h1.273c0.318,0,0.637,0.317,0.637,0.636v0.637c0,0.318-0.318,0.637-0.637,0.637h-1.273
					c-0.318,0-0.637-0.318-0.637-0.637v-0.637C507.681,124.124,507.999,123.807,508.317,123.807z"/>
			</g>
			<g>
				<path fill="#FFFFFF" d="M514.683,127.308h1.273c0.318,0,0.637,0.317,0.637,0.636v0.637c0,0.318-0.318,0.637-0.637,0.637h-1.273
					c-0.318,0-0.636-0.318-0.636-0.637v-0.637C513.729,127.625,514.047,127.308,514.683,127.308z"/>
			</g>
			<g>
				<path fill="#FFFFFF" d="M512.137,123.807h1.273c0.318,0,0.637,0.317,0.637,0.636v0.637c0,0.318-0.318,0.637-0.637,0.637h-1.273
					c-0.318,0-0.637-0.318-0.637-0.637v-0.637C511.5,124.124,511.818,123.807,512.137,123.807z"/>
			</g>
			<g>
				<path fill="#FFFFFF" d="M509.909,120.624h0.637c0.318,0,0.636,0.317,0.636,0.636v0.318c0,0.318-0.317,0.637-0.636,0.637h-0.637
					c-0.318,0-0.637-0.318-0.637-0.637v-0.318C509.272,121.26,509.591,120.624,509.909,120.624z"/>
			</g>
			<g>
				<path fill="#FFFFFF" d="M541.735,203.055c-3.183-3.501-8.593-4.137-12.412-1.591c-1.909,1.909-3.501,3.819-5.092,6.047
					c-2.547,4.138-4.774,8.594-6.048,13.049c0,0.318-2.546,8.912-3.183,10.821c0,0.318-1.272,5.411-1.909,7.639
					c0,0.318-1.592,5.41-1.91,7.32c-0.954,4.138-2.228,7.956-3.818,11.775c0.636-2.864-0.637-5.41-1.592-8.911
					c-1.273-5.41-2.228-8.911-2.228-9.548c-0.318-1.91-4.774-24.188-6.365-29.281c-1.592-6.684-3.819-13.049-6.684-19.096
					c-0.318-0.318-2.547-4.774-3.501-6.365c-3.184-5.093-7.002-9.866-12.095-13.367c3.819,4.455,8.594,20.688,9.548,27.371
					c1.91,8.593,2.864,17.505,3.501,26.416c0.637,13.367,4.774,26.098,12.413,37.237c0,0,2.228,2.864,8.911,2.864
					c3.819,0.318,7.32-0.955,9.866-3.501c2.864-3.183,5.093-7.002,6.684-11.14c2.228-6.365,3.183-13.049,3.183-19.732
					c0.318-5.092,2.547-20.051,3.183-23.233c1.91,0.637,3.819,1.592,5.729,2.546c3.818,1.91,7.32,4.774,9.229,8.594
					C548.102,213.24,545.873,207.193,541.735,203.055z"/>
			</g>
			<g>
				<path fill="#FFFFFF" d="M498.451,202.738L498.451,202.738c0,0.954,0.637,1.909,0.637,2.864c0,0,0-0.955,0-1.273
					S498.77,202.738,498.451,202.738z"/>
			</g>
		</g>
	</g>
</g>
</svg>
