<?xml version="1.0" encoding="utf-8"?>
<!-- Generator: Adobe Illustrator 16.0.3, SVG Export Plug-In . SVG Version: 6.00 Build 0)  -->
<!DOCTYPE svg PUBLIC "-//W3C//DTD SVG 1.1//EN" "http://www.w3.org/Graphics/SVG/1.1/DTD/svg11.dtd" [
	<!ENTITY ns_extend "http://ns.adobe.com/Extensibility/1.0/">
	<!ENTITY ns_ai "http://ns.adobe.com/AdobeIllustrator/10.0/">
	<!ENTITY ns_graphs "http://ns.adobe.com/Graphs/1.0/">
	<!ENTITY ns_vars "http://ns.adobe.com/Variables/1.0/">
	<!ENTITY ns_imrep "http://ns.adobe.com/ImageReplacement/1.0/">
	<!ENTITY ns_sfw "http://ns.adobe.com/SaveForWeb/1.0/">
	<!ENTITY ns_custom "http://ns.adobe.com/GenericCustomNamespace/1.0/">
	<!ENTITY ns_adobe_xpath "http://ns.adobe.com/XPath/1.0/">
]>
<svg version="1.1" id="Layer_1" xmlns:x="&ns_extend;" xmlns:i="&ns_ai;" xmlns:graph="&ns_graphs;"
	 xmlns="http://www.w3.org/2000/svg" xmlns:xlink="http://www.w3.org/1999/xlink" x="0px" y="0px" width="301.719px"
	 height="301.719px" viewBox="275.981 76.384 301.719 301.719" enable-background="new 275.981 76.384 301.719 301.719"
	 xml:space="preserve">
<metadata>
	<sfw  xmlns="&ns_sfw;">
		<slices></slices>
		<sliceSourceBounds  width="301.719" height="301.719" y="122.397" x="275.481" bottomLeftOrigin="true"></sliceSourceBounds>
	</sfw>
</metadata>
<title>TARGET 1 A</title>
<g id="TARGETS">
	<g>
		<rect x="275.981" y="76.384" fill="#FF3A21" width="301.719" height="301.719"/>
	</g>
	<g>
		<g>
			<path fill="#FFFFFF" d="M550.329,297.581v-71.929c0,0,0.637-9.548-7.32-13.686c-1.909-0.637-3.183-2.546-3.501-4.456
				c-0.318-3.501,0.318-7.32-4.138-7.32c-4.455,0-3.818,3.819-4.137,7.32c-0.318,1.91-1.592,3.819-3.501,4.456
				c-7.957,4.138-7.32,13.686-7.32,13.686v71.929c-1.91,0.317-3.501,2.546-2.864,4.455c0.317,1.592,1.909,2.864,3.5,2.864h28.645
				c2.229,0,3.819-1.909,3.819-3.818C553.193,299.49,552.238,297.899,550.329,297.581L550.329,297.581z"/>
		</g>
		<g>
			<path fill="#FFFFFF" d="M498.133,202.101h-28.325c-1.91,0-3.184,1.272-3.184,3.183v96.435c0,1.91,1.273,3.183,2.865,3.183
				c0,0,0,0,0.318,0h28.325c1.91,0,3.183-1.272,3.183-3.183c0,0,0,0,0-0.317v-96.117
				C501.634,203.692,500.043,202.101,498.133,202.101C498.451,202.101,498.133,202.101,498.133,202.101z M473.944,300.764
				c-1.909,0-3.183-1.273-3.183-3.183c0-1.91,1.273-3.183,3.183-3.183c1.91,0,3.183,1.272,3.183,3.183
				C477.127,299.172,475.854,300.764,473.944,300.764L473.944,300.764z M473.944,290.898c-1.909,0-3.183-1.592-3.183-3.183
				c0-1.592,1.592-3.183,3.183-3.183c1.592,0,3.183,1.591,3.183,3.183C477.127,289.306,475.854,290.898,473.944,290.898z
				 M473.944,281.35c-1.909,0-3.183-1.273-3.183-3.183c0-1.91,1.273-3.184,3.183-3.184c1.91,0,3.183,1.273,3.183,3.184
				C477.127,279.758,475.854,281.35,473.944,281.35L473.944,281.35z M473.944,271.483c-1.909,0-3.183-1.272-3.183-3.183
				c0-1.909,1.273-3.183,3.183-3.183c1.91,0,3.183,1.273,3.183,3.183C477.127,269.892,475.854,271.483,473.944,271.483
				L473.944,271.483z M473.944,261.616c-1.909,0-3.183-1.272-3.183-3.183c0-1.909,1.273-3.183,3.183-3.183
				c1.91,0,3.183,1.273,3.183,3.183C477.127,260.344,475.854,261.616,473.944,261.616L473.944,261.616z M473.944,252.069
				c-1.909,0-3.183-1.273-3.183-3.183s1.273-3.183,3.183-3.183c1.91,0,3.183,1.273,3.183,3.183
				C477.127,250.478,475.854,252.069,473.944,252.069L473.944,252.069z M473.944,242.202c-1.909,0-3.183-1.273-3.183-3.183
				c0-1.91,1.273-3.183,3.183-3.183c1.91,0,3.183,1.272,3.183,3.183C477.127,240.929,475.854,242.202,473.944,242.202
				L473.944,242.202z M473.944,232.336c-1.909,0-3.183-1.273-3.183-3.183c0-1.91,1.273-3.183,3.183-3.183
				c1.91,0,3.183,1.272,3.183,3.183C477.127,231.063,475.854,232.336,473.944,232.336L473.944,232.336z M473.944,222.788
				c-1.909,0-3.183-1.273-3.183-3.183c0-1.91,1.273-3.183,3.183-3.183c1.91,0,3.183,1.272,3.183,3.183
				C477.445,221.197,475.854,222.788,473.944,222.788C474.263,222.788,473.944,222.788,473.944,222.788L473.944,222.788z
				 M473.944,212.922c-1.909,0-3.183-1.273-3.183-3.184c0-1.909,1.273-3.183,3.183-3.183c1.592,0,3.183,1.273,3.183,2.865
				C477.445,211.33,475.854,212.922,473.944,212.922C474.263,212.922,474.263,212.922,473.944,212.922L473.944,212.922z
				 M485.084,299.809c0,0.318-0.318,0.955-0.955,0.955c-0.318,0-0.954-0.318-0.954-0.955v-82.113c0-0.637,0.318-0.955,0.954-0.955
				c0.318,0,0.955,0.318,0.955,0.955V299.809z M483.811,212.922c-1.909,0-3.183-1.273-3.183-3.184c0-1.909,1.273-3.183,3.183-3.183
				c1.592,0,3.183,1.273,3.183,2.865C486.993,211.33,485.721,212.922,483.811,212.922L483.811,212.922z M494.313,300.764
				c-1.909,0-3.183-1.273-3.183-3.183c0-1.91,1.273-3.183,3.183-3.183c1.91,0,3.183,1.272,3.183,3.183
				C497.496,299.49,495.905,300.764,494.313,300.764z M494.313,290.898c-1.909,0-3.183-1.273-3.183-3.183
				c0-1.91,1.273-3.183,3.183-3.183c1.91,0,3.183,1.272,3.183,3.183C497.496,289.624,495.905,290.898,494.313,290.898z
				 M494.313,281.031c-1.909,0-3.183-1.273-3.183-3.183c0-1.91,1.273-3.183,3.183-3.183c1.91,0,3.183,1.272,3.183,3.183
				C497.496,279.758,495.905,281.031,494.313,281.031z M494.313,271.483c-1.909,0-3.183-1.272-3.183-3.183
				c0-1.909,1.273-3.183,3.183-3.183c1.91,0,3.183,1.273,3.183,3.183C497.496,269.892,495.905,271.483,494.313,271.483z
				 M494.313,261.616c-1.909,0-3.183-1.272-3.183-3.183c0-1.909,1.273-3.183,3.183-3.183c1.91,0,3.183,1.273,3.183,3.183
				C497.496,260.344,495.905,261.616,494.313,261.616z M494.313,251.75c-1.909,0-3.183-1.272-3.183-3.183
				c0-1.909,1.273-3.183,3.183-3.183c1.91,0,3.183,1.273,3.183,3.183C497.496,250.478,495.905,251.75,494.313,251.75z
				 M494.313,242.202c-1.909,0-3.183-1.273-3.183-3.183c0-1.91,1.273-3.183,3.183-3.183c1.91,0,3.183,1.272,3.183,3.183
				C497.496,240.611,495.905,242.202,494.313,242.202L494.313,242.202z M494.313,232.336c-1.909,0-3.183-1.273-3.183-3.183
				c0-1.91,1.273-3.183,3.183-3.183c1.91,0,3.183,1.272,3.183,3.183C497.496,231.063,495.905,232.336,494.313,232.336
				L494.313,232.336z M494.313,222.788c-1.909,0-3.183-1.273-3.183-3.183c0-1.91,1.273-3.183,3.183-3.183
				c1.91,0,3.183,1.272,3.183,3.183C497.496,221.197,496.224,222.788,494.313,222.788L494.313,222.788L494.313,222.788z
				 M494.313,212.922c-1.909,0-3.183-1.273-3.183-3.184c0-1.909,1.273-3.183,3.183-3.183c1.592,0,3.183,1.273,3.183,2.865
				C497.496,211.33,496.224,212.922,494.313,212.922L494.313,212.922L494.313,212.922z"/>
		</g>
		<g>
			<path fill="#FFFFFF" d="M416.656,184.278c6.684,0,12.412-5.411,12.412-12.095s-5.41-12.412-12.094-12.412
				s-12.413,5.41-12.413,12.095l0,0C404.562,178.866,409.973,184.278,416.656,184.278z"/>
		</g>
		<g>
			<path fill="#FFFFFF" d="M441.481,199.872c0,0-3.501-9.548-11.776-9.548h-26.098c-7.957,0-11.776,9.548-11.776,9.548
				l-10.185,33.101c0,0-1.909,6.047,3.183,7.638c5.092,1.592,6.684-4.455,6.684-4.455l8.275-27.689c0,0,0.318-2.228,1.91-1.592
				c1.591,0.637,0.955,2.864,0.955,2.864l-14.322,51.878h13.367v37.237c0,3.501,2.864,6.365,6.365,6.365s6.365-2.864,6.365-6.365
				v-37.237h3.819v37.237c0,3.501,2.865,6.365,6.366,6.365s6.365-2.864,6.365-6.365v-37.237h13.367l-14.004-51.878
				c0,0-0.637-2.228,0.955-2.864c1.591-0.637,1.909,1.592,1.909,1.592l8.275,27.689c0,0,1.591,6.047,6.684,4.455
				c5.092-1.591,3.183-7.638,3.183-7.638L441.481,199.872z M427.159,244.43l-10.503,10.185l-10.185-10.185
				c-1.273-1.272-2.228-3.183-2.228-5.41c-0.318-3.819,2.546-7.002,6.366-7.32h0.318c1.91,0,4.138,2.228,5.411,3.501
				c1.591-1.909,3.501-2.864,5.729-3.501c3.819,0,6.685,3.183,6.685,7.002v0.318C429.068,241.247,428.433,243.157,427.159,244.43
				L427.159,244.43z"/>
		</g>
		<g>
			<g>
				<path fill="#FFFFFF" d="M335.498,159.771c-6.684,0-12.413,5.41-12.413,12.412c0,6.684,5.411,12.413,12.413,12.413
					c7.001,0,12.412-5.411,12.412-12.413C347.91,165.499,342.182,159.771,335.498,159.771L335.498,159.771z"/>
			</g>
			<g>
				<path fill="#FFFFFF" d="M370.507,232.973l-10.185-33.101c0,0-3.501-9.548-11.776-9.548h-25.78
					c-7.957,0-11.776,9.548-11.776,9.548l-10.185,33.101c0,0-1.91,6.047,3.501,7.638c5.411,1.592,6.684-4.455,6.684-4.455
					l8.275-27.689c0,0,0.318-2.228,1.91-1.592c1.591,0.637,0.955,2.864,0.955,2.864l-14.322,51.878h13.367v37.237
					c0,3.501,2.864,6.365,6.365,6.365s6.365-2.864,6.365-6.365v-37.237h3.501v37.237c0,3.501,2.865,6.365,6.366,6.365
					s6.365-2.864,6.365-6.365v-37.237h13.367l-14.004-51.878c0,0-0.636-2.228,0.955-2.864s1.91,1.592,1.91,1.592l8.275,27.689
					c0,0,1.591,6.047,6.684,4.455C372.417,239.02,370.507,232.973,370.507,232.973z M335.498,243.157
					c-1.273,0-2.228-0.955-1.91-2.229c0-1.272,1.273-1.909,2.228-1.909c0.955,0,1.591,0.955,1.91,1.909
					C337.726,242.202,336.771,243.157,335.498,243.157L335.498,243.157z M335.498,226.608c-1.273,0-2.228-0.955-2.228-1.91
					c0-1.273,0.955-2.228,1.91-2.228c0.955,0,2.228,0.954,2.228,1.909l0,0C337.726,225.653,336.771,226.608,335.498,226.608
					L335.498,226.608z M335.498,210.694c-1.273,0-2.228-0.955-2.228-1.909c0-1.273,0.955-2.229,1.91-2.229
					c0.955,0,2.228,0.955,2.228,1.91l0,0C337.726,209.739,336.771,210.694,335.498,210.694L335.498,210.694z"/>
			</g>
			<g>
				<path fill="#FFFFFF" d="M335.816,157.543c4.138,0,7.957,1.909,10.821,4.773l5.092-5.729c-4.138-4.138-9.866-6.684-15.914-6.684
					c-6.047,0-12.094,2.864-16.231,7.32l6.047,4.773C328.496,159.134,331.997,157.543,335.816,157.543z"/>
			</g>
		</g>
	</g>
</g>
</svg>
