<?xml version="1.0" encoding="utf-8"?>
<!-- Generator: Adobe Illustrator 16.0.3, SVG Export Plug-In . SVG Version: 6.00 Build 0)  -->
<!DOCTYPE svg PUBLIC "-//W3C//DTD SVG 1.1//EN" "http://www.w3.org/Graphics/SVG/1.1/DTD/svg11.dtd" [
	<!ENTITY ns_extend "http://ns.adobe.com/Extensibility/1.0/">
	<!ENTITY ns_ai "http://ns.adobe.com/AdobeIllustrator/10.0/">
	<!ENTITY ns_graphs "http://ns.adobe.com/Graphs/1.0/">
	<!ENTITY ns_vars "http://ns.adobe.com/Variables/1.0/">
	<!ENTITY ns_imrep "http://ns.adobe.com/ImageReplacement/1.0/">
	<!ENTITY ns_sfw "http://ns.adobe.com/SaveForWeb/1.0/">
	<!ENTITY ns_custom "http://ns.adobe.com/GenericCustomNamespace/1.0/">
	<!ENTITY ns_adobe_xpath "http://ns.adobe.com/XPath/1.0/">
]>
<svg version="1.1" id="Layer_1" xmlns:x="&ns_extend;" xmlns:i="&ns_ai;" xmlns:graph="&ns_graphs;"
	 xmlns="http://www.w3.org/2000/svg" xmlns:xlink="http://www.w3.org/1999/xlink" x="0px" y="0px" width="285.027px"
	 height="285.027px" viewBox="284.336 72.158 285.027 285.027" enable-background="new 284.336 72.158 285.027 285.027"
	 xml:space="preserve">
<metadata>
	<sfw  xmlns="&ns_sfw;">
		<slices></slices>
		<sliceSourceBounds  width="285.027" height="285.027" x="283.836" y="143.314" bottomLeftOrigin="true"></sliceSourceBounds>
	</sfw>
</metadata>
<title>TARGET 1 B copy 6</title>
<g id="TARGETS">
	<g>
		<rect x="284.336" y="72.158" fill="#4C9F38" width="285.027" height="285.027"/>
	</g>
	<g>
		<g>
			<path fill="#FFFFFF" d="M476.76,99.519h-99.519c-6.314,0-11.425,5.111-11.425,11.425l0,0v207.457
				c0,6.313,5.111,11.425,11.425,11.425h99.82c6.313,0,11.425-5.111,11.425-11.425V111.244
				C488.485,104.931,483.374,99.82,476.76,99.519L476.76,99.519z M427.451,316.596c-6.916,0-12.628-5.712-12.628-12.627
				s5.712-12.628,12.628-12.628c6.915,0,12.628,5.713,12.628,12.628l0,0C440.079,310.884,434.366,316.596,427.451,316.596
				L427.451,316.596z M479.766,278.412h-104.63v-168.37h104.33v168.37H479.766z"/>
		</g>
		<g>
			<path fill="#FFFFFF" d="M468.642,226.398l-40.89-78.172c-0.301-0.301-0.602-0.602-1.203-0.301c-0.301,0-0.301,0.301-0.301,0.301
				l-40.589,78.172c-0.301,0.301,0,0.902,0.301,1.203h0.3h81.479c0.602,0,0.902-0.301,0.902-0.902
				C468.642,226.698,468.642,226.698,468.642,226.398z M431.66,171.076l-2.104,35.478h-5.111l-2.104-35.478H431.66L431.66,171.076z
				 M426.85,220.987c-2.706,0-4.811-2.105-4.811-4.811c0-2.706,2.104-4.812,4.811-4.812s4.811,2.105,4.811,4.812l0,0
				C431.66,218.881,429.556,220.987,426.85,220.987z"/>
		</g>
	</g>
</g>
</svg>
