<?xml version="1.0" encoding="utf-8"?>
<!-- Generator: Adobe Illustrator 16.0.3, SVG Export Plug-In . SVG Version: 6.00 Build 0)  -->
<!DOCTYPE svg PUBLIC "-//W3C//DTD SVG 1.1//EN" "http://www.w3.org/Graphics/SVG/1.1/DTD/svg11.dtd" [
	<!ENTITY ns_extend "http://ns.adobe.com/Extensibility/1.0/">
	<!ENTITY ns_ai "http://ns.adobe.com/AdobeIllustrator/10.0/">
	<!ENTITY ns_graphs "http://ns.adobe.com/Graphs/1.0/">
	<!ENTITY ns_vars "http://ns.adobe.com/Variables/1.0/">
	<!ENTITY ns_imrep "http://ns.adobe.com/ImageReplacement/1.0/">
	<!ENTITY ns_sfw "http://ns.adobe.com/SaveForWeb/1.0/">
	<!ENTITY ns_custom "http://ns.adobe.com/GenericCustomNamespace/1.0/">
	<!ENTITY ns_adobe_xpath "http://ns.adobe.com/XPath/1.0/">
]>
<svg version="1.1" id="Layer_1" xmlns:x="&ns_extend;" xmlns:i="&ns_ai;" xmlns:graph="&ns_graphs;"
	 xmlns="http://www.w3.org/2000/svg" xmlns:xlink="http://www.w3.org/1999/xlink" x="0px" y="0px" width="301.719px"
	 height="301.719px" viewBox="275.981 76.384 301.719 301.719" enable-background="new 275.981 76.384 301.719 301.719"
	 xml:space="preserve">
<metadata>
	<sfw  xmlns="&ns_sfw;">
		<slices></slices>
		<sliceSourceBounds  width="301.719" height="301.719" y="122.397" x="275.481" bottomLeftOrigin="true"></sliceSourceBounds>
	</sfw>
</metadata>
<title>TARGET 1 B copy 9</title>
<g id="TARGETS">
	<g>
		<rect x="275.981" y="76.384" fill="#DD1367" width="301.719" height="301.719"/>
	</g>
	<g>
		<g>
			<g>
				<path fill="#FFFFFF" d="M315.765,234.882c4.774,0,8.593-4.138,8.593-8.911c0-4.774-4.138-8.594-8.912-8.594
					s-8.593,3.819-8.593,8.594C306.854,231.063,310.991,234.882,315.765,234.882L315.765,234.882z"/>
			</g>
			<g>
				<path fill="#FFFFFF" d="M325.95,238.065h-20.688c-6.047,0.637-10.821,5.411-10.821,11.458v24.188
					c0.318,1.909,1.91,3.183,3.819,3.183c1.591,0,2.865-1.592,3.183-3.183v-20.688c0-0.637,0.318-1.91,1.591-1.91
					c1.273,0,1.273,0.955,1.273,1.592v62.381c0.318,2.864,2.546,4.773,5.41,4.455c2.546-0.318,4.456-2.228,4.456-4.455V279.44
					c0-0.637,0.637-1.272,1.273-1.272c0,0,0,0,0.318,0l0,0c0.637,0,1.273,0.636,1.273,1.272l0,0v35.646
					c0.318,2.864,2.546,4.773,5.411,4.455c2.546-0.318,4.456-2.228,4.456-4.455v-62.063c0-0.637,0.318-1.592,1.273-1.592
					c0.955,0,1.591,0.637,1.591,1.592v0.318v20.688c0.318,1.909,1.91,3.183,3.819,3.183c1.591,0,2.864-1.592,3.183-3.183v-24.188
					C336.771,243.794,331.997,238.701,325.95,238.065z"/>
			</g>
		</g>
		<g>
			<g>
				<polygon fill="#FFFFFF" points="365.097,159.134 382.602,167.728 382.602,161.363 372.735,157.225 382.602,153.087 
					382.602,146.404 365.097,155.315 				"/>
			</g>
			<g>
				<path fill="#FFFFFF" d="M407.745,155.315c3.183-0.954,5.092-3.819,5.092-7.002v-3.818c0-6.366-2.864-10.186-9.866-10.186
					c-7.639,0-10.185,4.456-10.185,11.14v3.819h6.684v-4.456c0-2.546,0.955-4.137,3.183-4.137c2.228,0,3.183,1.591,3.183,3.819
					v4.773c0,2.228-1.591,3.501-3.819,3.501h-2.865v5.729h3.183c2.546,0,3.501,1.273,3.501,3.501v7.32
					c0,2.229-0.955,3.819-3.183,3.819c-2.228,0-3.501-1.591-3.501-4.138v-6.365h-6.684v5.729c0,6.684,2.546,10.82,10.185,10.82
					c7.639,0,10.503-3.818,10.503-10.185v-6.365C413.792,159.134,411.246,155.951,407.745,155.315z"/>
			</g>
			<g>
				<path fill="#FFFFFF" d="M440.208,160.089c-4.138-0.318-7.957,2.864-8.274,7.002c0,0.637,0,0.955,0,1.591v1.91
					c-0.318,4.456,3.183,8.593,7.638,8.593c4.456,0,8.594-3.183,8.594-7.638c0-0.318,0-0.637,0-0.955v-1.91
					c0.637-4.137-2.546-7.956-6.684-8.593C441.163,160.089,440.845,160.089,440.208,160.089z M442.754,171.229
					c0,1.909-0.636,3.183-2.546,3.183c-1.909,0-2.546-1.273-2.546-3.183v-3.501c0-1.91,0.637-3.183,2.546-3.183
					c1.91,0,2.546,1.272,2.546,3.183V171.229z"/>
			</g>
			<g>
				<path fill="#FFFFFF" d="M425.567,153.724c4.138,0.318,7.957-2.864,8.275-7.002c0-0.637,0-0.955,0-1.592v-1.909
					c0.318-4.456-3.183-8.594-7.639-8.594c-4.455,0-8.593,3.183-8.593,7.639c0,0.318,0,0.637,0,0.955v1.909
					c-0.637,4.138,2.546,7.957,6.684,8.594C424.613,153.724,424.932,153.724,425.567,153.724z M423.021,142.266
					c0-1.909,0.637-3.183,2.546-3.183c1.91,0,2.547,1.273,2.547,3.183v3.501c0,1.91-0.637,3.183-2.547,3.183
					c-1.909,0-2.546-1.272-2.546-3.183V142.266z"/>
			</g>
			<g>
				<polygon fill="#FFFFFF" points="442.754,134.946 418.566,178.866 423.021,178.866 447.21,134.946 				"/>
			</g>
		</g>
		<g>
			<g>
				<path fill="#FFFFFF" d="M502.907,242.202c4.456,0,8.274-3.501,8.274-7.957c0-3.183-1.591-6.047-4.455-7.32
					c0.318-0.317,0.318-0.954,0.636-1.272c-0.636-2.229-2.864-3.819-5.092-3.183c-1.592,0.318-2.864,1.591-3.183,3.183
					c0,0.318,0,0.955,0.318,1.272c-2.864,1.273-4.774,4.138-4.456,7.32C494.632,238.701,498.451,242.202,502.907,242.202
					L502.907,242.202z"/>
			</g>
			<g>
				<path fill="#FFFFFF" d="M526.459,272.119l-7.002-21.96c0,0-2.546-6.365-7.957-6.365h-17.505c-5.41,0-7.956,6.365-7.956,6.365
					l-7.002,21.96c0,0-0.955,3.183,1.591,4.774v0.318l-7.956,41.374c0,0.637,0.318,1.273,0.954,1.592l0,0h0.318
					c0.637,0,1.273-0.318,1.273-0.955l7.957-41.374v-0.318c2.228-0.318,2.864-3.183,2.864-3.183l5.41-18.46
					c0,0,0.318-1.273,1.273-0.955s0.637,1.91,0.637,1.91l-9.549,34.373h8.912v24.824c0,2.229,1.909,4.138,4.456,4.138
					c2.228,0,4.137-1.909,4.137-4.138v-24.506h2.865v24.824c0,2.228,1.909,4.138,4.455,4.138c2.229,0,4.138-1.91,4.138-4.138
					v-24.824h8.911l-9.548-34.373c0,0-0.318-1.592,0.637-1.91s1.273,0.955,1.273,0.955l5.41,18.46c0,0,0.955,3.818,4.456,2.864
					C527.414,276.575,526.459,272.119,526.459,272.119z"/>
			</g>
		</g>
		<g>
			<g>
				<path fill="#FFFFFF" d="M542.372,274.03c4.138,0,7.32-3.183,7.32-7.32s-3.183-7.32-7.32-7.32c-4.137,0-7.32,3.183-7.32,7.32
					S538.235,274.03,542.372,274.03L542.372,274.03z"/>
			</g>
			<g>
				<path fill="#FFFFFF" d="M559.877,295.353c0-0.317-2.228-5.41-2.864-7.001c-4.138-11.458-5.092-11.458-8.911-11.458h-11.14
					c-3.819,0-4.774,0-9.229,11.458c-0.637,1.591-3.183,7.956-3.183,8.274s-1.273,2.546,1.272,3.501s3.183-1.91,3.183-1.91
					l4.456-11.139c0,0,0-0.318,0.318-0.318s0.318,0.318,0.318,0.318v28.962l0,0c0,2.229,1.591,3.819,3.501,3.819l0,0
					c1.909,0,3.819-1.591,3.819-3.819c0,0,0,0,0-0.318v-11.457c0,0,0-1.91,1.272-1.91c1.273,0,1.273,1.91,1.273,1.91v11.457
					c0,2.229,1.591,3.819,3.501,3.819c0,0,0,0,0.318,0c1.909,0,3.819-1.591,3.819-3.819c0,0,0,0,0-0.318l0,0v-28.962
					c0-0.318,0-0.318,0.318-0.318c0.317,0,0.317,0.318,0.317,0.318l4.138,9.866c0,0,1.273,2.546,3.501,1.592
					C562.104,296.945,559.877,295.353,559.877,295.353z"/>
			</g>
		</g>
		<g>
			<g>
				<path fill="#FFFFFF" d="M401.698,309.357c-1.591,0.955-3.183,1.592-5.092,2.228c-5.092,1.592-10.185,2.229-15.595,1.91
					c-2.546,0-5.092-0.318-7.639-0.637c-1.591-0.318-3.183-0.637-4.774-0.955c-0.637-0.318-1.591-0.318-2.228-0.636
					c-2.228-0.637-4.137-1.592-6.047-2.865c-0.637-0.636-1.273-0.954-1.591-1.909v2.228c0,0.637,0,3.183,0,3.183
					c0,1.273,0.637,2.547,1.91,3.184c3.501,2.546,7.638,4.137,12.094,4.455c2.864,0.318,5.729,0.637,8.911,0.637
					c4.138,0,8.594-0.318,12.731-1.592l0,0c2.228-0.636,4.456-1.272,6.365-2.546l0,0c2.228-1.272,3.501-2.864,3.501-4.456
					c0,0,0-4.455,0-5.092C403.289,307.766,402.652,308.72,401.698,309.357z"/>
			</g>
			<g>
				<path fill="#FFFFFF" d="M379.419,293.762c12.73,0,22.915-3.819,22.915-8.594c0,0,0.318-4.455,0-5.41
					c0-0.637,0-1.273-0.318-1.909c1.273-0.955,2.228-2.229,2.546-3.819c0,0,0.318-4.774,0-5.729
					c-0.636-5.729-12.094-8.911-22.916-8.911c-10.821,0-22.915,3.183-22.915,9.229c0,0.318,0.318,5.411,0.318,5.411
					c0,0.318,0,0.637,0.318,0.954c-1.592,0.955-2.865,2.547-2.865,4.456c0,0.318,0.318,5.411,0.318,5.411
					c0,1.272,0.637,2.546,1.91,3.183c3.501,2.546,7.638,4.137,12.094,4.455C373.372,293.762,376.555,293.762,379.419,293.762z
					 M381.646,262.253c12.095,0,20.688,3.501,20.688,7.002s-8.593,7.002-20.688,7.002c-12.094,0-20.687-3.501-20.687-7.002
					S369.553,262.253,381.646,262.253z M358.731,280.076c0.318-0.955,0.955-1.909,1.91-2.546c0.636,0.636,1.591,1.272,2.228,1.591
					c6.047,2.546,12.412,3.819,18.777,3.819c5.411,0,10.821-0.637,16.232-2.546c0.637-0.318,1.273-0.637,1.91-0.955
					c0,0.318,0,0.318,0,0.637c0,3.183-8.593,7.002-20.688,7.002S358.731,283.259,358.731,280.076z"/>
			</g>
			<g>
				<path fill="#FFFFFF" d="M372.735,311.267c2.864,0.317,5.729,0.636,8.911,0.636c4.138,0,8.594-0.318,12.731-1.591l0,0
					c2.228-0.637,4.456-1.273,6.365-2.546l0,0c0.637-0.318,0.955-0.637,1.591-0.955c0.637-0.637,1.273-1.273,1.592-2.228
					c0-0.318,0.318-0.637,0.318-1.273c0,0,0-4.774,0-5.093c-0.636,0.955-2.546,3.819-11.776,5.729
					c-3.819,0.637-7.638,0.954-11.458,0.954c-6.365,0-12.413-0.954-18.141-3.5c-0.955-0.637-1.91-1.273-2.865-1.91
					c-0.636-0.637-0.955-0.955-1.273-1.591v2.228v3.183c0,1.273,0.637,2.546,1.91,3.183
					C363.824,309.357,367.961,310.948,372.735,311.267z"/>
			</g>
			<g>
				<path fill="#FFFFFF" d="M403.926,288.352c-0.318-0.318-0.318-0.318-0.637-0.637s-0.637-0.318-0.955-0.637
					c-0.318,0.637-0.636,0.955-0.955,1.273c0.318,0,0.637,0.317,0.955,0.636c0.637,0.318,0.955,0.955,0.955,1.91
					c0,0.637-0.318,1.272-0.955,1.591c-0.318,0.318-0.636,0.318-0.955,0.637l-1.273,0.637c0,0-1.273,0.637-1.91,0.955l-1.91,0.636
					c-0.318,0-1.91,0.637-2.546,0.637c-0.318,0-2.546,0.318-3.501,0.637l-3.501,0.318c-0.318,0-3.819,0.318-5.411,0.318
					c-2.546,0-4.774-0.318-7.32-0.637c-1.591-0.318-3.501-0.637-5.092-0.955c-1.91-0.318-3.819-0.954-5.411-1.591
					c-0.955-0.637-1.91-1.273-2.864-1.91c-0.637-0.636-1.273-1.591-1.91-2.546v2.864v2.864c0,1.273,0.637,2.546,1.91,3.183
					c3.501,2.547,7.638,4.138,12.094,4.456c2.864,0.318,5.729,0.637,8.912,0.637c4.137,0,8.593-0.318,12.73-1.273l0,0
					c2.228-0.637,4.456-1.272,6.365-2.546l0,0c0.637-0.318,0.955-0.637,1.591-0.955c0.637-0.637,1.273-1.272,1.592-2.228
					c0-0.318,0.318-0.637,0.318-1.273v-4.773c0-0.318,0-0.637,0-1.273C403.926,288.988,403.926,288.669,403.926,288.352z"/>
			</g>
			<g>
				<path fill="#FFFFFF" d="M431.615,277.212c12.73,0,22.915-3.819,22.915-8.594c0,0,0.318-4.455,0.318-5.41
					c0-0.637-0.318-1.273-0.318-1.91c1.273-0.954,2.228-2.228,2.546-3.818c0,0,0.318-4.774,0-5.729
					c-0.637-5.729-12.094-8.911-22.915-8.911s-22.916,3.183-22.916,9.229c0,0.318,0.318,5.411,0.318,5.411
					c0,0.317,0,0.636,0.318,0.954c-1.591,0.955-2.865,2.547-2.865,4.456c0,0.318,0.318,5.41,0.318,5.41
					c0,1.273,0.637,2.547,1.91,3.183c3.501,2.547,7.957,4.138,12.094,4.774C425.886,277.212,428.751,277.531,431.615,277.212z
					 M434.161,246.022c12.094,0,20.688,3.501,20.688,7.002s-8.594,7.002-20.688,7.002c-12.095,0-20.688-3.501-20.688-7.002
					S422.066,246.022,434.161,246.022z M411.246,263.527c0.318-0.955,0.955-1.91,1.91-2.546c0.637,0.636,1.591,1.272,2.228,1.591
					c6.047,2.546,12.413,3.819,18.778,3.819c5.41,0,10.821-0.637,15.913-2.228c0.637-0.318,1.273-0.637,1.91-0.955
					c0,0.318,0,0.318,0,0.637c0,3.183-8.594,7.002-20.688,7.002C419.203,270.847,411.246,267.028,411.246,263.527L411.246,263.527z"
					/>
			</g>
			<g>
				<path fill="#FFFFFF" d="M456.758,272.756c0-0.318-0.318-0.637-0.636-0.955c-0.318-0.318-0.318-0.318-0.637-0.636
					c-0.318-0.318-0.637-0.318-0.955-0.637c-0.318,0.637-0.637,0.954-0.955,1.272c0.318,0,0.637,0.318,0.955,0.637
					c0.637,0.318,0.955,0.955,0.955,1.91c0,0.636-0.318,1.272-0.955,1.591c-0.318,0.318-0.637,0.318-0.955,0.637l-1.272,0.637
					c0,0-1.273,0.637-1.91,0.954c0,0-1.272,0.637-1.909,0.637s-1.91,0.637-2.547,0.637c-0.317,0-2.546,0.318-3.5,0.637l-3.501,0.318
					l-5.411,0.318c-2.546,0-4.773,0-7.32-0.637c-1.591-0.318-3.501-0.637-5.092-0.955c-1.91-0.318-3.819-0.955-5.411-1.591
					c-0.955-0.318-1.91-0.955-2.865-1.91c-0.636-0.637-1.273-1.591-1.909-2.546v2.864v2.864c0,1.273,0.636,2.547,1.909,3.183
					c3.501,2.547,7.639,4.138,12.095,4.456c2.864,0.318,5.729,0.637,8.911,0.637c4.138,0,8.594-0.318,12.73-1.592l0,0
					c2.229-0.637,4.456-1.272,6.365-2.546l0,0c0.637-0.318,0.955-0.637,1.592-0.955c0.637-0.636,1.273-1.272,1.592-2.228
					c0-0.318,0.317-0.637,0.317-1.273l0.318-4.773C456.758,273.711,456.758,273.074,456.758,272.756z"/>
			</g>
			<g>
				<path fill="#FFFFFF" d="M454.212,292.807c-1.591,0.955-3.183,1.592-5.092,2.229c-5.093,1.591-10.185,2.228-15.596,1.909
					c-2.546,0-5.092-0.318-7.639-0.637c-1.591-0.318-3.183-0.637-4.773-0.955l-2.228-0.636c-2.228-0.637-4.138-1.592-6.047-2.865
					c-0.636-0.636-1.273-0.954-1.591-1.909v1.909c0,0.637,0,3.184,0,3.184c0,1.272,0.637,2.546,1.91,3.182
					c3.501,2.547,7.639,4.138,12.094,4.456c2.865,0.318,6.048,0.637,8.912,0.637c4.138,0,8.593-0.318,12.73-1.592l0,0
					c2.229-0.636,4.456-1.272,6.365-2.546l0,0c2.229-1.273,3.501-2.864,3.501-4.455c0,0,0-4.456,0-5.093
					C456.122,291.216,455.167,292.17,454.212,292.807z"/>
			</g>
			<g>
				<path fill="#FFFFFF" d="M412.837,290.261c3.501,2.546,7.639,4.138,12.095,4.456c2.864,0.318,5.729,0.636,8.911,0.636
					c4.138,0,8.594-0.317,12.73-1.591l0,0c2.229-0.637,4.456-1.273,6.365-2.546l0,0c0.637-0.318,0.955-0.637,1.592-0.955
					c0.637-0.637,1.273-1.273,1.592-2.228c0-0.318,0.317-0.637,0.317-1.273c0,0,0-4.774,0-5.093
					c-0.636,0.955-2.546,3.819-11.775,5.729c-3.819,0.637-7.639,0.955-11.458,0.955c-6.365,0-12.412-0.955-18.141-3.501
					c-0.955-0.637-1.91-1.273-2.864-1.91c-0.637-0.637-0.955-0.955-1.273-1.591v2.228v3.183
					C410.927,288.352,411.882,289.624,412.837,290.261z"/>
			</g>
			<g>
				<path fill="#FFFFFF" d="M457.076,306.492c-0.637,0.955-1.591,1.909-2.864,2.546c-1.591,0.955-3.183,1.592-5.092,2.229
					c-5.093,1.591-10.185,2.228-15.596,1.909c-2.546,0-5.092-0.318-7.639-0.637c-1.591-0.318-3.183-0.318-4.773-0.637
					c-0.955-0.317-1.592-0.317-2.228-0.636c-2.228-0.637-4.138-1.592-6.047-2.865c-0.636-0.636-1.273-1.272-1.591-1.909v2.228
					c0,0.637,0,3.183,0,3.183c0,1.273,0.637,2.547,1.91,3.184c3.501,2.546,7.639,4.137,12.094,4.455
					c2.865,0.318,5.729,0.637,8.912,0.637c4.138,0,8.593-0.318,12.73-1.273l0,0c2.229-0.636,4.456-1.272,6.365-2.546l0,0
					c2.229-1.273,3.183-2.864,3.183-4.456C457.076,311.584,457.076,306.811,457.076,306.492z"/>
			</g>
			<g>
				<path fill="#FFFFFF" d="M425.25,310.948c2.864,0.636,6.047,0.636,8.911,0.636c4.138,0,8.593-0.317,12.73-1.272l0,0
					c2.229-0.637,4.456-1.273,6.365-2.546l0,0c0.637-0.318,0.955-0.637,1.273-0.955c0.637-0.637,1.273-1.273,1.592-2.228
					c0-0.318,0.317-0.637,0.317-1.273c0,0,0-4.774,0-5.093c-0.636,0.955-2.546,3.819-11.775,5.729
					c-3.819,0.637-7.639,0.954-11.458,0.954c-6.365,0.318-12.412-0.954-18.141-3.501c-0.955-0.636-1.91-1.272-2.864-1.909
					c-0.637-0.637-0.955-0.955-1.273-1.592v2.229v3.183c0,1.273,0.637,2.546,1.91,3.183
					C416.338,309.357,420.794,310.948,425.25,310.948z"/>
			</g>
		</g>
		<g>
			<path fill="#FFFFFF" d="M449.12,210.694l-22.916,18.46c-0.318,0.318-0.637,0.318-0.954,0.318c-0.637,0-0.637-0.318-0.637-0.955
				v-9.229H364.46c-0.318,0-0.637-0.318-0.637-0.955v-15.913c0-0.637,0.318-0.955,0.637-0.955h60.153v-8.912
				c0-0.636,0-0.954,0.637-1.272c0.317,0,0.636,0,0.954,0.318l22.916,17.505c0.317,0.318,0.636,0.636,0.636,1.272
				C449.756,210.375,449.438,210.694,449.12,210.694z"/>
		</g>
	</g>
</g>
</svg>
