<?xml version="1.0" encoding="utf-8"?>
<!-- Generator: Adobe Illustrator 16.0.3, SVG Export Plug-In . SVG Version: 6.00 Build 0)  -->
<!DOCTYPE svg PUBLIC "-//W3C//DTD SVG 1.1//EN" "http://www.w3.org/Graphics/SVG/1.1/DTD/svg11.dtd" [
	<!ENTITY ns_extend "http://ns.adobe.com/Extensibility/1.0/">
	<!ENTITY ns_ai "http://ns.adobe.com/AdobeIllustrator/10.0/">
	<!ENTITY ns_graphs "http://ns.adobe.com/Graphs/1.0/">
	<!ENTITY ns_vars "http://ns.adobe.com/Variables/1.0/">
	<!ENTITY ns_imrep "http://ns.adobe.com/ImageReplacement/1.0/">
	<!ENTITY ns_sfw "http://ns.adobe.com/SaveForWeb/1.0/">
	<!ENTITY ns_custom "http://ns.adobe.com/GenericCustomNamespace/1.0/">
	<!ENTITY ns_adobe_xpath "http://ns.adobe.com/XPath/1.0/">
]>
<svg version="1.1" id="Layer_1" xmlns:x="&ns_extend;" xmlns:i="&ns_ai;" xmlns:graph="&ns_graphs;"
	 xmlns="http://www.w3.org/2000/svg" xmlns:xlink="http://www.w3.org/1999/xlink" x="0px" y="0px" width="300.952px"
	 height="300.952px" viewBox="276.365 76.191 300.952 300.952" enable-background="new 276.365 76.191 300.952 300.952"
	 xml:space="preserve">
<metadata>
	<sfw  xmlns="&ns_sfw;">
		<slices></slices>
		<sliceSourceBounds  width="300.952" height="300.952" y="123.357" x="275.865" bottomLeftOrigin="true"></sliceSourceBounds>
	</sfw>
</metadata>
<title>TARGET 1 B copy 5</title>
<g id="TARGETS">
	<g>
		<rect x="276.365" y="76.191" fill="#FD9D24" width="300.952" height="300.952"/>
	</g>
	<g>
		<g>
			<g>
				<path fill="#FFFFFF" d="M497.317,308.889c-2.857,0-6.031,0.635-8.571,1.904l-5.079-7.937l3.81-6.666l4.444,0.317
					c1.587,0,2.539-0.317,2.539-1.905v-1.27c0-1.27-0.635-2.222-1.904-2.54c-0.317,0-0.317,0-0.635,0h-15.873
					c-0.635,0-1.27,0.636-1.27,1.271l0,0v1.587c0,0.635,0.317,0.952,0.952,1.27l4.762,0.318l-1.905,3.809l-28.254-3.174v-4.444
					c0-0.953-0.635-1.905-1.587-2.54l-8.254-4.444l0,0c-0.317-0.317-0.952-0.317-1.588-0.635c-1.587,0-2.856,1.27-2.856,2.856l0,0
					c0,0.953,0.635,2.223,1.587,2.54l0,0l6.984,4.127v3.81l0,0l-5.715,12.063c-2.222-0.635-4.444-1.271-6.666-1.271
					c-11.746,0-21.587,9.524-21.587,21.588c0,11.746,9.524,21.587,21.587,21.587c11.746,0,21.587-9.523,21.587-21.587
					c0-7.302-3.492-13.969-9.523-17.778l3.175-6.983l15.873,26.031c0.635,0.953,1.587,1.271,2.539,1.271l10.159,0.317
					c1.27,11.746,12.063,20,23.81,18.729c11.746-1.27,20-12.063,18.729-23.81C517.317,316.825,508.111,308.572,497.317,308.889
					L497.317,308.889z M447.794,330.158c0,8.571-6.984,15.556-15.556,15.556s-15.556-6.984-15.556-15.556
					s6.984-15.556,15.556-15.556l0,0c1.27,0,2.856,0.317,4.127,0.635l-6.35,13.651l0,0c-0.317,0.317-0.317,0.635-0.317,1.27
					c0,1.587,1.27,2.857,2.857,2.857l0,0c1.27,0,2.222-0.635,2.539-1.588l0,0l0,0l0,0l6.35-13.333
					C445.571,320.952,447.794,325.397,447.794,330.158z M483.667,314.285c-3.81,3.175-6.667,7.619-7.302,12.698h-5.397l9.524-18.095
					L483.667,314.285z M486.841,319.365l5.08,8.254l-9.842-0.317C482.714,324.127,484.302,321.27,486.841,319.365L486.841,319.365z
					 M475.73,305.079l-9.842,18.729l-13.016-21.27L475.73,305.079z M497.317,346.031c-7.619,0-13.968-5.396-15.238-13.016
					l15.238,0.317l0,0c1.588,0,2.857-1.27,2.857-2.857c0-0.635,0-0.952-0.317-1.587l-7.937-13.017
					c1.904-0.635,3.492-0.952,5.396-0.952c8.571,0,15.556,6.984,15.556,15.556C512.556,339.047,505.571,346.031,497.317,346.031
					L497.317,346.031z"/>
			</g>
			<g>
				<g>
					<path fill="#FFFFFF" d="M387.159,290.793h-18.095v-2.222c0-0.317-0.317-0.635-0.635-0.635l0,0h-13.651
						c-0.317,0-0.635,0.317-0.635,0.635l0,0v2.222h-18.095c-0.318,0-0.635,0.318-0.635,0.636l0,0l0.317,2.856
						c0,0.317,0.318,0.635,0.635,0.635l0,0h50.476c0.317,0,0.635-0.317,0.635-0.635l0,0l0.635-2.856
						C388.111,291.112,387.793,290.793,387.159,290.793C387.476,290.793,387.476,290.793,387.159,290.793z"/>
				</g>
				<g>
					<path fill="#FFFFFF" d="M386.524,297.778h-49.841c-0.317,0-0.635,0.317-0.635,0.635l0,0l3.492,52.698
						c0,0.317,0.317,0.635,0.635,0.635l0,0h42.857c0.317,0,0.635-0.317,0.635-0.635l0,0l3.492-52.698
						C387.159,298.095,386.841,297.778,386.524,297.778L386.524,297.778z M349.698,344.445L349.698,344.445
						c-0.952,0-1.587-0.636-1.587-1.588l-2.223-35.556c0-0.952,0.635-1.904,1.587-1.904l0,0c0.953,0,1.905,0.635,1.905,1.587
						l1.905,35.873C351.286,343.809,350.651,344.445,349.698,344.445z M363.349,342.857c0,0.952-0.635,1.905-1.587,1.905
						c-0.952,0-1.905-0.635-1.905-1.588v-0.317v-35.873c0-0.952,0.635-1.904,1.587-1.904c0.953,0,1.905,0.635,1.905,1.587v0.317
						V342.857z M375.73,342.857c0,0.952-0.952,1.588-1.587,1.588l0,0c-0.953,0-1.587-0.953-1.587-1.905l2.222-35.873
						c0-0.952,0.952-1.587,1.905-1.587c0.952,0,1.587,0.952,1.587,1.904l0,0L375.73,342.857z"/>
				</g>
			</g>
		</g>
		<g>
			<path fill="#FFFFFF" d="M342.714,243.81h-4.762v12.381c0,0.317-0.317,0.317-0.317,0.317h-5.714c-0.318,0-0.318,0-0.318-0.317l0,0
				V243.81h-9.206c-6.032,0-10.794-4.762-10.794-10.794c0-2.857,0.953-5.714,3.175-7.619c-4.762-2.857-6.667-8.889-3.81-13.65
				c1.905-3.175,5.08-5.08,8.889-5.08h0.635c0.635-7.619,6.984-13.333,14.603-12.698c7.302,0.635,12.698,6.35,12.698,13.651
				c0,2.222-0.317,4.127-1.27,6.031c8.254,1.905,13.333,9.842,11.746,18.096C356.365,238.73,350.016,243.81,342.714,243.81
				L342.714,243.81z"/>
		</g>
		<g>
			<path fill="#FFFFFF" d="M520.492,244.127v12.063c0,0.317,0.317,0.317,0.317,0.317l0,0h5.396c0.317,0,0.317,0,0.317-0.317l0,0
				v-12.063c8.571-1.905,14.604-9.524,14.286-18.096c0-10.793-8.254-28.571-18.096-28.571c-9.841,0-17.777,18.096-17.777,28.571
				C504.619,234.92,511.286,242.857,520.492,244.127z"/>
		</g>
		<g>
			<g>
				<g>
					<g>
						<path fill="#FFFFFF" d="M509.063,117.143c5.714-6.031,14.921-6.667,21.27-0.952c6.35,5.714,6.667,14.921,0.953,21.27
							c-5.715,6.032-14.921,6.667-20.953,0.952C503.667,132.698,503.35,123.175,509.063,117.143
							C508.746,117.143,508.746,117.143,509.063,117.143z"/>
					</g>
					<g>
						<path fill="#FFFFFF" d="M506.841,140c0.318-0.317,1.271-0.317,1.588,0s0.317,1.27,0,1.587l-4.444,4.762
							c-0.317,0.317-1.271,0.317-1.588,0s-0.317-1.27,0-1.587L506.841,140z"/>
					</g>
					<g>
						<path fill="#FFFFFF" d="M533.19,114.603c-0.635,0.317-1.27,0.317-1.587,0s-0.317-1.27,0-1.587l4.127-4.762
							c0.635-0.317,1.27-0.317,1.587,0s0.317,1.27,0,1.587L533.19,114.603z"/>
					</g>
					<g>
						<path fill="#FFFFFF" d="M534.46,138.73l4.763,4.445c0.317,0.317,0.317,1.27,0,1.587s-1.271,0.317-1.588,0l-4.762-4.444
							c-0.317-0.635-0.317-1.271,0-1.588C533.19,138.095,533.825,138.095,534.46,138.73z"/>
					</g>
					<g>
						<path fill="#FFFFFF" d="M505.571,115.873l-4.762-4.444c-0.317-0.636-0.317-1.271,0-1.588s1.27-0.317,1.587,0l4.763,4.444
							c0.317,0.635,0.317,1.271,0,1.588C506.841,116.191,506.206,116.191,505.571,115.873z"/>
					</g>
					<g>
						<path fill="#FFFFFF" d="M516.365,144.127c0.635,0,0.952,0.635,0.952,1.27l-1.27,6.35c-0.317,0.635-0.953,0.952-1.588,0.952
							s-0.952-0.635-0.952-1.27l1.27-6.35C515.095,144.127,515.73,143.81,516.365,144.127z"/>
					</g>
					<g>
						<path fill="#FFFFFF" d="M523.667,110.476c-0.635-0.317-0.953-0.635-0.953-1.27l1.271-6.35
							c0.317-0.635,0.952-0.952,1.587-0.952s0.952,0.635,0.952,1.271l-1.27,6.349C524.937,110.158,524.302,110.476,523.667,110.476z
							"/>
					</g>
					<g>
						<path fill="#FFFFFF" d="M536.683,130.793c0-0.635,0.635-0.952,1.27-0.952l6.35,1.588c0.635,0.317,0.952,0.952,0.952,1.587
							c-0.317,0.635-0.635,0.952-1.27,0.952l-6.35-1.587C537,132.381,536.683,131.746,536.683,130.793z"/>
					</g>
					<g>
						<path fill="#FFFFFF" d="M494.777,121.587c0-0.635,0.636-0.952,1.271-0.952l6.349,1.587c0.636,0.317,0.953,0.953,0.636,1.588
							c-0.318,0.635-0.636,0.635-1.271,0.635l-6.349-1.27C494.777,122.857,494.46,122.222,494.777,121.587z"/>
					</g>
					<g>
						<path fill="#FFFFFF" d="M525.254,143.492c0.635-0.317,1.27,0,1.587,0.635l1.905,6.349c0,0.636-0.317,1.271-0.952,1.588
							s-1.271,0-1.588-0.635l-1.904-6.35C524.302,144.445,524.619,143.81,525.254,143.492z"/>
					</g>
					<g>
						<path fill="#FFFFFF" d="M514.777,110.793c-0.635,0.318-1.27,0-1.587-0.635l-1.904-6.349c-0.318-0.635,0.317-1.271,0.952-1.588
							s1.27,0,1.587,0.635l1.905,6.35C515.73,110.158,515.413,110.793,514.777,110.793z"/>
					</g>
					<g>
						<path fill="#FFFFFF" d="M543.984,120.952l-6.35,1.904c-0.635,0-1.27-0.317-1.587-0.952s0-1.27,0.635-1.587l6.35-1.905
							c0.635-0.317,1.27,0.317,1.587,0.635C544.937,120,544.619,120.635,543.984,120.952z"/>
					</g>
					<g>
						<path fill="#FFFFFF" d="M496.048,133.651l6.349-1.904c0.636,0,1.271,0.317,1.588,0.952s0,1.27-0.635,1.587l-6.35,1.905
							c-0.635,0-1.27-0.317-1.587-0.952C495.095,134.603,495.413,133.968,496.048,133.651z"/>
					</g>
				</g>
				<g>
					<g>
						<path fill="#FFFFFF" d="M474.46,147.619l2.54,2.856l-10.159,2.54l2.857-10.159l2.54,2.857l7.302-6.984
							c0.635-0.635,1.27-0.635,1.904,0c0.635,0.636,0.635,1.271,0,1.905l0,0L474.46,147.619z"/>
					</g>
					<g>
						<path fill="#FFFFFF" d="M477.952,165.397l2.857-9.841l2.54,2.856l7.301-6.983c0.636-0.317,1.271-0.317,1.905,0.317
							c0.317,0.635,0.317,1.27,0,1.587l-7.302,6.984l2.54,2.857L477.952,165.397z"/>
					</g>
				</g>
			</g>
			<g>
				<path fill="#FFFFFF" d="M447.477,140.318l0.317-0.317c0.317-0.317,0.952-0.317,1.27,0.317l32.381,40.635
					c0.317,0.317,0.317,0.952-0.317,1.27l-0.317,0.317c-0.317,0.317-0.952,0.317-1.27-0.317l-32.381-40.317
					C446.841,141.27,447.159,140.952,447.477,140.318z"/>
			</g>
			<g>
				<path fill="#FFFFFF" d="M378.905,103.81v152.063c0,0.635,0.317,0.952,0.952,0.952l0,0h22.222v-24.762
					c0-0.635,0.635-1.271,1.27-1.271l0,0h12.381c0.635,0,1.27,0.636,1.27,1.271v24.762h25.396v-24.762
					c0-0.635,0.636-1.271,0.953-1.271l0,0h12.063c0.635,0,1.27,0.636,1.27,1.271l0,0v23.81l0,0v0.952h25.079
					c0.635,0,0.952-0.317,0.952-0.952l0,0v-66.35c0-0.317,0-0.635-0.317-0.952l-0.317-0.317l-5.396-6.984l-10.794-13.65
					l-13.65-17.461l-2.223-2.539l-10.158-13.017l-0.317-0.635l0,0c-0.317,0-0.317-0.317-0.636-0.317
					c-0.635,0-0.952,0.317-0.952,0.952v0.317v46.032h-16.508V103.81c0-0.953-0.952-1.905-1.905-1.905l0,0h-38.413
					C379.857,101.905,378.905,102.539,378.905,103.81L378.905,103.81z M455.73,164.762c0,0.635-0.636,1.27-1.271,1.27h-10.793
					c-0.635,0-1.271-0.635-1.271-1.27v-13.65c0-0.636,0.636-0.953,1.271-0.953c0.317,0,0.635,0.317,0.952,0.317l0.317,0.317
					c2.54,2.857,7.302,8.89,10.158,12.699l0.318,0.317C455.73,164.127,455.73,164.445,455.73,164.762z M462.396,231.746
					c0-0.635,0.636-1.271,1.271-1.271h12.381c0.635,0,1.27,0.635,1.27,1.271l0,0v7.619c0,0.635-0.635,1.27-0.952,1.27l0,0h-12.381
					c-0.635,0-1.271-0.635-1.271-1.27l0,0v-7.619H462.396z M462.079,216.191c0-0.635,0.317-0.952,0.953-0.952l0,0h13.016
					c0.635,0,0.952,0.317,0.952,0.952l0,0v7.937c0,0.635-0.317,0.952-0.952,0.952l0,0h-13.016c-0.636,0-0.953-0.317-0.953-0.952l0,0
					V216.191z M462.079,201.27c0-0.635,0.317-0.952,0.953-0.952h13.016c0.635,0,0.952,0.635,0.952,0.952v8.254
					c0,0.635-0.317,0.952-0.952,0.952l0,0h-13.016c-0.636,0-0.953-0.317-0.953-0.952l0,0V201.27z M462.079,176.191
					c0-0.635,0.635-0.952,1.271-0.952c0.317,0,0.635,0,0.952,0.317l0.317,0.317c3.175,3.81,10.477,13.016,12.063,15.237v0.318l0,0
					l0,0v0.317v2.222c0,0.635-0.317,0.952-0.952,0.952l0,0h-12.698c-0.636,0-0.953-0.317-0.953-0.952l0,0V176.191z M442.714,216.508
					c0-0.635,0.318-0.952,0.953-0.952l0,0h12.698c0.635,0,0.952,0.317,0.952,0.952l0,0v7.937c0,0.635-0.635,0.952-0.952,0.952
					h-12.698c-0.635,0-0.953-0.317-0.953-0.952l0,0V216.508z M442.714,201.587c0-0.635,0.318-0.952,0.953-0.952h12.698
					c0.635,0,0.952,0.635,0.952,0.952v7.937c0,0.635-0.317,0.952-0.952,0.952l0,0h-12.698c-0.635,0-0.953-0.317-0.953-0.952l0,0
					V201.587z M442.714,186.666c0-0.635,0.318-0.952,0.953-0.952h12.698c0.635,0,0.952,0.635,0.952,0.952v7.937
					c0,0.636-0.317,0.953-0.952,0.953h-12.698c-0.635,0-0.953-0.636-0.953-0.953V186.666z M442.714,171.746
					c0-0.636,0.318-0.953,0.953-0.953l0,0h12.698c0.635,0,0.952,0.317,0.952,0.953l0,0v7.937c0,0.635-0.317,1.27-0.952,1.27l0,0
					h-12.698c-0.635,0-0.953-0.635-0.953-0.952V171.746z M422.714,232.064c0-0.635,0.636-1.271,1.271-1.271h12.381
					c0.635,0,1.27,0.636,1.27,1.271v7.619c0,0.635-0.635,1.27-1.27,1.27l0,0h-12.381c-0.635,0-1.271-0.635-1.271-1.27l0,0V232.064z
					 M422.714,217.143c0-0.635,0.636-1.27,1.271-1.27h12.381c0.635,0,1.27,0.635,1.27,1.27v7.619c0,0.635-0.635,1.27-1.27,1.27
					h-12.381c-0.635,0-1.271-0.635-1.271-1.27V217.143z M422.714,201.905c0-0.635,0.636-1.27,1.271-1.27l0,0h12.381
					c0.635,0,1.27,0.635,1.27,1.27l0,0v7.619c0,0.635-0.635,1.27-1.27,1.27l0,0h-12.381c-0.635,0-1.271-0.635-1.271-1.27l0,0
					V201.905z M422.714,186.666c0-0.635,0.636-1.27,1.271-1.27h12.381c0.635,0,1.27,0.635,1.27,1.27v7.619
					c0,0.635-0.635,1.271-1.27,1.271h-12.381c-0.635,0-1.271-0.636-1.271-1.271V186.666z M402.397,217.143
					c0-0.635,0.635-1.27,1.27-1.27h12.381c0.635,0,1.27,0.635,1.27,1.27v7.619c0,0.635-0.635,1.27-1.27,1.27h-12.381
					c-0.635,0-1.27-0.635-1.27-1.27l0,0V217.143z M402.397,201.905c0-0.635,0.635-1.27,1.27-1.27h12.381
					c0.635,0,1.27,0.635,1.27,1.27l0,0v7.619c0,0.635-0.635,1.27-1.27,1.27l0,0h-12.381c-0.635,0-1.27-0.635-1.27-1.27V201.905z
					 M402.397,186.984c0-0.635,0.635-1.27,1.27-1.27h12.381c0.635,0,1.27,0.635,1.27,1.27v7.619c0,0.636-0.635,1.271-1.27,1.271l0,0
					h-12.381c-0.635,0-1.27-0.635-1.27-1.271V186.984z M402.397,172.064c0-0.635,0.635-1.271,1.27-1.271l0,0h12.381
					c0.635,0,1.27,0.636,1.27,1.271v7.619c0,0.635-0.635,1.27-1.27,1.27h-12.381c-0.635,0-1.27-0.635-1.27-1.27l0,0V172.064z
					 M402.397,156.825c0-0.635,0.635-1.27,1.27-1.27l0,0h12.381c0.635,0,1.27,0.635,1.27,1.27l0,0v7.619
					c0,0.635-0.635,1.27-1.27,1.27l0,0h-12.381c-0.635,0-1.27-0.635-1.27-1.27V156.825z M402.397,141.905
					c0-0.635,0.635-1.27,1.27-1.27h12.381c0.635,0,1.27,0.635,1.27,1.27v7.619c0,0.635-0.635,1.27-1.27,1.27l0,0h-12.381
					c-0.635,0-1.27-0.635-1.27-1.27V141.905z M402.397,126.984c0-0.635,0.635-1.27,1.27-1.27l0,0h12.381
					c0.635,0,1.27,0.635,1.27,1.27v7.619c0,0.636-0.635,1.271-1.27,1.271h-12.381c-0.635,0-1.27-0.635-1.27-1.271l0,0V126.984z
					 M402.397,112.064c0-0.635,0.635-1.271,1.27-1.271h12.381c0.635,0,1.27,0.636,1.27,1.271l0,0v7.302
					c0,0.635-0.635,1.27-1.27,1.27l0,0h-12.381c-0.635,0-1.27-0.635-1.27-1.27V112.064z M383.032,232.064
					c0-0.635,0.635-1.271,1.27-1.271l0,0h12.381c0.635,0,1.27,0.636,1.27,1.271l0,0v7.619c0,0.635-0.635,1.27-1.27,1.27l0,0h-12.381
					c-0.635,0-1.27-0.635-1.27-1.27l0,0V232.064z M383.032,216.825c0-0.635,0.635-1.27,1.27-1.27l0,0h12.381
					c0.635,0,1.27,0.635,1.27,1.27l0,0v7.619c0,0.635-0.635,1.27-1.27,1.27l0,0h-12.381c-0.635,0-1.27-0.635-1.27-1.27l0,0V216.825z
					 M383.032,201.905c0-0.635,0.635-1.27,1.27-1.27h12.381c0.635,0,1.27,0.635,1.27,1.27v7.619c0,0.635-0.635,1.27-1.27,1.27l0,0
					h-12.381c-0.635,0-1.27-0.635-1.27-1.27l0,0V201.905z M383.032,186.984c0-0.635,0.635-1.27,1.27-1.27l0,0h12.381
					c0.635,0,1.27,0.635,1.27,1.27l0,0v7.619c0,0.636-0.635,1.271-1.27,1.271h-12.381c-0.635,0-1.27-0.635-1.27-1.271V186.984z
					 M383.032,171.746c0-0.636,0.635-1.271,1.27-1.271l0,0h12.381c0.635,0,1.27,0.635,1.27,1.271l0,0v7.619
					c0,0.635-0.635,1.27-1.27,1.27h-12.381c-0.635,0-1.27-0.635-1.27-1.27V171.746z M383.032,156.825c0-0.635,0.635-1.27,1.27-1.27
					h12.381c0.635,0,1.27,0.635,1.27,1.27v7.619c0,0.635-0.635,1.27-1.27,1.27l0,0h-12.381c-0.635,0-1.27-0.635-1.27-1.27l0,0
					V156.825z M383.032,141.905c0-0.635,0.635-1.27,1.27-1.27h12.381c0.635,0,1.27,0.635,1.27,1.27v7.619
					c0,0.635-0.635,1.27-1.27,1.27l0,0h-12.381c-0.635,0-1.27-0.635-1.27-1.27l0,0V141.905z M383.032,126.666
					c0-0.635,0.635-1.27,1.27-1.27h12.381c0.635,0,1.27,0.635,1.27,1.27v7.619c0,0.635-0.635,1.271-1.27,1.271h-12.381
					c-0.635,0-1.27-0.636-1.27-1.271V126.666z M383.032,111.746c0-0.635,0.635-1.271,1.27-1.271h12.381
					c0.635,0,1.27,0.636,1.27,1.271v7.619c0,0.635-0.635,1.27-1.27,1.27h-12.381c-0.635,0-1.27-0.635-1.27-1.27V111.746z"/>
			</g>
		</g>
	</g>
</g>
</svg>
