<?xml version="1.0" encoding="utf-8"?>
<!-- Generator: Adobe Illustrator 16.0.3, SVG Export Plug-In . SVG Version: 6.00 Build 0)  -->
<!DOCTYPE svg PUBLIC "-//W3C//DTD SVG 1.1//EN" "http://www.w3.org/Graphics/SVG/1.1/DTD/svg11.dtd" [
	<!ENTITY ns_extend "http://ns.adobe.com/Extensibility/1.0/">
	<!ENTITY ns_ai "http://ns.adobe.com/AdobeIllustrator/10.0/">
	<!ENTITY ns_graphs "http://ns.adobe.com/Graphs/1.0/">
	<!ENTITY ns_vars "http://ns.adobe.com/Variables/1.0/">
	<!ENTITY ns_imrep "http://ns.adobe.com/ImageReplacement/1.0/">
	<!ENTITY ns_sfw "http://ns.adobe.com/SaveForWeb/1.0/">
	<!ENTITY ns_custom "http://ns.adobe.com/GenericCustomNamespace/1.0/">
	<!ENTITY ns_adobe_xpath "http://ns.adobe.com/XPath/1.0/">
]>
<svg version="1.1" id="Layer_1" xmlns:x="&ns_extend;" xmlns:i="&ns_ai;" xmlns:graph="&ns_graphs;"
	 xmlns="http://www.w3.org/2000/svg" xmlns:xlink="http://www.w3.org/1999/xlink" x="0px" y="0px" width="285.199px"
	 height="285.198px" viewBox="284.25 72.202 285.199 285.198" enable-background="new 284.25 72.202 285.199 285.198"
	 xml:space="preserve">
<metadata>
	<sfw  xmlns="&ns_sfw;">
		<slices></slices>
		<sliceSourceBounds  width="285.199" height="285.198" y="143.1" x="283.75" bottomLeftOrigin="true"></sliceSourceBounds>
	</sfw>
</metadata>
<title>TARGET 1 B copy 4</title>
<g id="TARGETS">
	<g>
		<rect x="284.25" y="72.202" fill="#FF3A21" width="285.199" height="285.198"/>
	</g>
	<g>
		<g>
			<g>
				<g>
					<path fill="#FFFFFF" d="M437.078,136.883c0-3.61-0.902-7.22-2.406-10.529l-3.911,2.708c1.203,2.406,1.805,5.415,1.805,8.122
						c0,3.31-0.902,6.318-2.406,9.326l3.91,2.407C436.176,145.307,437.078,141.095,437.078,136.883z"/>
				</g>
				<g>
					<path fill="#FFFFFF" d="M445.502,119.134l-3.61,2.406c2.407,4.513,3.911,9.928,3.911,15.042c0,5.716-1.504,11.733-4.513,16.547
						l3.61,2.406c3.309-5.716,5.114-12.334,5.114-18.953C450.015,130.866,448.511,124.549,445.502,119.134z"/>
				</g>
				<g>
					<path fill="#FFFFFF" d="M458.739,136.883c0,8.424-2.106,16.547-6.619,23.767l3.61,2.407c9.627-15.645,9.627-35.5,0.301-51.144
						l-3.31,2.407C456.633,121.24,458.739,129.062,458.739,136.883z"/>
				</g>
			</g>
			<g>
				<g>
					<path fill="#FFFFFF" d="M409.401,110.71c0-1.203-0.903-2.106-2.106-2.106h-71.601c-1.203,0-2.106,0.903-2.106,2.106v45.126
						h75.813V110.71z M406.392,153.129h-69.193v-41.216h69.193V153.129z"/>
				</g>
				<g>
					<path fill="#FFFFFF" d="M409.702,157.642h-75.813l-6.017,4.813v2.105c0,0.902,1.504,0.902,1.504,0.902h85.74
						c0.902,0,0.902-1.203,0.902-1.203v-1.805L409.702,157.642z M377.813,163.658h-12.636v-1.505h12.636V163.658z"/>
				</g>
			</g>
			<g>
				<path fill="#FFFFFF" d="M511.085,108.002h-26.474c-1.805,0-3.009,1.203-3.009,3.009v55.054c0,1.806,1.204,3.009,3.009,3.009
					h26.474c1.806,0,3.009-1.203,3.009-3.009v-55.054C514.094,109.507,512.891,108.002,511.085,108.002L511.085,108.002z
					 M498.149,165.764c-1.806,0-3.31-1.504-3.31-3.309c0-1.806,1.504-3.31,3.31-3.31c1.805,0,3.309,1.504,3.309,3.31l0,0
					C501.458,164.26,499.954,165.764,498.149,165.764z M511.988,155.535h-27.678V110.71h27.678V155.535z"/>
			</g>
		</g>
		<g>
			<g>
				<path fill="#FFFFFF" d="M423.54,220.518L423.54,220.518c5.716,0,10.229-4.513,10.229-10.229c0-5.716-4.513-10.229-10.229-10.229
					l0,0c-5.716,0-10.229,4.513-10.229,10.229C413.312,216.005,418.125,220.518,423.54,220.518z"/>
			</g>
			<g>
				<path fill="#FFFFFF" d="M491.229,226.234c5.717,0,10.229-4.513,10.229-10.229c0-3.911-2.105-7.521-5.716-9.326
					c0.301-0.602,0.301-0.902,0.301-1.505c-0.602-2.707-3.609-4.513-6.317-3.91c-2.105,0.602-3.61,2.105-3.911,3.91
					c0,0.603,0.301,1.204,0.602,1.806c-4.813,2.707-6.618,9.025-3.911,13.839C484.01,224.127,487.319,226.234,491.229,226.234z"/>
			</g>
			<g>
				<path fill="#FFFFFF" d="M516.2,269.555c0,0,0-0.301-0.301-0.301c3.008-1.806,1.805-5.415,1.805-5.415l-1.504-4.212
					l-6.619-21.661c0,0-3.008-7.821-9.326-7.821l-15.042-0.301c-2.105,0-4.513-0.903-6.017-2.407l-18.352-28.58v-0.301
					c-0.602-0.902-1.504-1.805-2.406-2.105c-0.603,0-0.903,0-1.505,0c-0.902,0-1.504,0-3.309,2.406l-18.051,22.864
					c-1.806,1.805-4.513,2.707-6.92,2.707h-8.724c-2.708,0-5.114-0.902-6.919-2.707l-18.05-22.864
					c-2.106-2.406-2.708-2.105-3.31-2.406c-0.602,0-0.902,0-1.504,0c-1.204,0.301-2.106,1.203-2.407,2.406l0,0l-18.652,27.979
					c-1.504,1.504-3.911,2.406-6.017,2.406l-15.042,0.302c-6.619,0-9.627,7.821-9.627,7.821l-8.123,26.174
					c0,0-1.504,4.813,2.708,6.017s5.415-3.61,5.415-3.61l6.318-21.66c0,0,0.301-1.806,1.504-1.204
					c1.204,0.602,0.903,2.106,0.903,2.106L335.093,285.8h10.529v29.182c0,2.708,2.106,5.114,5.114,5.114
					c3.009,0,5.114-2.105,5.114-5.114V285.8h3.61v29.482c0,2.708,2.407,5.114,5.114,5.114s5.114-2.406,5.114-5.114V285.8h10.53
					l-10.229-37.004c-0.602-2.406,0-4.813,0.903-6.919l6.619-12.033l11.732-19.856c0,0,0.903-1.504,2.106-3.008l11.733,17.749
					l6.919,12.636c1.204,2.106,1.504,4.813,1.204,7.221l-10.831,39.109h11.131v30.986c0,3.009,2.407,5.415,5.415,5.415
					s5.415-2.406,5.415-5.415l0,0v-30.986h3.009v31.287c0,3.009,2.406,5.415,5.415,5.415c3.008,0,5.415-2.406,5.415-5.415l0,0
					v-31.287h11.131l-10.83-39.109c-0.602-2.407,0-5.114,0.902-7.221l6.92-12.636l11.732-17.749
					c0.902,1.805,2.106,3.008,2.106,3.008l11.732,19.856l6.618,12.033c1.204,2.105,1.505,4.513,0.903,6.919l-9.929,37.004h10.53
					v29.482c0,2.708,2.406,5.114,5.114,5.114c2.707,0,5.114-2.406,5.114-5.114V285.8h3.609v29.182c0,2.708,2.407,5.114,5.115,5.114
					c2.707,0,5.114-2.105,5.114-5.114V285.8h10.529l-11.132-40.914c0,0-0.602-1.806,0.903-2.106
					c1.504-0.301,1.504,1.203,1.504,1.203l5.114,17.449l1.203,4.212c0,0,0.902,3.31,3.61,3.61v0.301l9.326,48.736
					c0,0.602,0.902,1.203,1.504,1.203h0.301c0.903-0.301,1.505-0.902,1.204-1.805L516.2,269.555z"/>
			</g>
			<g>
				<g>
					<path fill="#FFFFFF" d="M349.232,208.484c0-1.203-1.504-2.707-4.212-1.504c-3.31,1.504-3.008,6.618-3.008,6.618
						s0,0.602,0.301,0.602c0.301-0.602,1.203-2.105,3.911-2.406c0.602,0,0.903-0.301,1.504-0.602
						c0.301-0.903,0.902-1.505,1.805-2.407C349.232,208.784,349.232,208.784,349.232,208.484z"/>
				</g>
				<g>
					<path fill="#FFFFFF" d="M369.389,206.98c-2.708-1.203-3.911,0.301-4.212,1.504c0,0.301,0,0.301,0,0.602
						c0.602,0.602,1.204,1.505,1.504,2.106c0.602,0.301,0.902,0.602,1.504,0.602c2.708,0.301,3.61,1.805,3.911,2.406
						c0,0.301,0,0,0.301-0.602S372.999,208.784,369.389,206.98z"/>
				</g>
				<g>
					<path fill="#FFFFFF" d="M357.355,207.281c-5.114,0-9.326,4.212-9.326,9.326s4.212,9.326,9.326,9.326s9.326-4.212,9.326-9.326
						l0,0C366.681,211.492,362.469,207.281,357.355,207.281z"/>
				</g>
			</g>
		</g>
	</g>
</g>
</svg>
