<?xml version="1.0" encoding="utf-8"?>
<!-- Generator: Adobe Illustrator 16.0.3, SVG Export Plug-In . SVG Version: 6.00 Build 0)  -->
<!DOCTYPE svg PUBLIC "-//W3C//DTD SVG 1.1//EN" "http://www.w3.org/Graphics/SVG/1.1/DTD/svg11.dtd" [
	<!ENTITY ns_extend "http://ns.adobe.com/Extensibility/1.0/">
	<!ENTITY ns_ai "http://ns.adobe.com/AdobeIllustrator/10.0/">
	<!ENTITY ns_graphs "http://ns.adobe.com/Graphs/1.0/">
	<!ENTITY ns_vars "http://ns.adobe.com/Variables/1.0/">
	<!ENTITY ns_imrep "http://ns.adobe.com/ImageReplacement/1.0/">
	<!ENTITY ns_sfw "http://ns.adobe.com/SaveForWeb/1.0/">
	<!ENTITY ns_custom "http://ns.adobe.com/GenericCustomNamespace/1.0/">
	<!ENTITY ns_adobe_xpath "http://ns.adobe.com/XPath/1.0/">
]>
<svg version="1.1" id="Layer_1" xmlns:x="&ns_extend;" xmlns:i="&ns_ai;" xmlns:graph="&ns_graphs;"
	 xmlns="http://www.w3.org/2000/svg" xmlns:xlink="http://www.w3.org/1999/xlink" x="0px" y="0px" width="320.054px"
	 height="320.054px" viewBox="266.804 81.027 320.054 320.054" enable-background="new 266.804 81.027 320.054 320.054"
	 xml:space="preserve">
<metadata>
	<sfw  xmlns="&ns_sfw;">
		<slices></slices>
		<sliceSourceBounds  width="320.054" height="320.054" x="533.277" y="9.446" bottomLeftOrigin="true"></sliceSourceBounds>
	</sfw>
</metadata>
<title>TARGET 1.2</title>
<g id="TARGETS">
	<g>
		<rect x="266.804" y="81.027" fill="#DDA63A" width="320.054" height="320.054"/>
	</g>
	<g>
		<g>
			<g>
				<path fill="#FFFFFF" d="M404.887,214.044v3.376l0,0l0,0c0,0.677,0.675,1.352,1.688,1.352H445.4c0.676,0,1.351-0.675,1.688-1.688
					l0,0v-3.714c21.944-7.09,29.71-24.982,33.423-46.59l0,0c0,0,0,0,0-0.338c0-0.675-0.675-1.352-1.688-1.688H372.139
					c-0.676,0-1.688,0.677-1.688,1.352l0,0v0.676C374.502,189.399,382.604,207.292,404.887,214.044"/>
			</g>
			<g>
				<path fill="#FFFFFF" d="M447.088,112.424c-0.675,0.676-12.491,17.895,0.338,31.735c5.739,6.414,5.401,12.154,3.713,15.867h8.104
					c2.024-7.09-0.338-14.854-5.74-19.919c-9.452-10.128,0-24.309,0.338-24.309c1.014-1.351,0.676-3.376-1.013-4.389l-0.338-0.338
					C450.464,110.399,448.438,111.073,447.088,112.424"/>
			</g>
			<g>
				<path fill="#FFFFFF" d="M426.493,160.027h8.104c2.025-7.09-0.338-14.854-5.739-19.919c-9.453-10.128,0-24.309,0.338-24.309
					c1.013-1.351,0.338-3.376-1.014-4.389c0,0-0.338,0-0.338-0.338c-1.688-1.013-4.051-0.338-5.4,1.013
					c-0.677,0.677-12.492,17.895,0.338,31.735C428.519,150.911,428.181,156.314,426.493,160.027"/>
			</g>
			<g>
				<path fill="#FFFFFF" d="M397.797,112.424c-0.675,0.676-12.491,17.895,0.337,31.735c5.739,6.414,5.402,12.154,3.715,15.867h8.103
					c2.026-7.09-0.337-14.854-5.739-19.919c-9.453-10.128,0-24.309,0.337-24.309c1.014-1.351,0.676-3.376-1.013-4.389l-0.337-0.338
					C401.173,110.399,399.147,111.073,397.797,112.424"/>
			</g>
		</g>
		<g>
			<g>
				<path fill="#FFFFFF" d="M324.873,268.4c5.739,0,10.466-4.728,10.466-10.466c0-5.739-4.727-10.467-10.466-10.467
					s-10.466,4.728-10.466,10.467l0,0C314.407,264.011,319.134,268.4,324.873,268.4z"/>
			</g>
			<g>
				<path fill="#FFFFFF" d="M337.027,272.451h-0.675h-22.957h-0.675c-7.091,0.675-12.829,6.752-12.829,13.842v29.034
					c0,1.352,0.675,2.701,2.024,3.376c0,0,0,0.339-0.337,0.676l-9.453,49.291c-0.338,1.013,0.337,2.025,1.352,2.025h0.337
					c1.013,0,1.688-0.676,1.688-1.351l9.453-49.291c0-0.338,0-0.338,0-0.676c1.688-0.676,2.701-2.025,2.701-3.714v-24.982
					c0-1.014,0.338-2.363,2.026-2.363c1.688,0,1.351,1.351,1.351,2.024v74.949c0.337,3.377,3.038,5.739,6.415,5.402
					c3.039-0.338,5.064-2.363,5.402-5.402v-43.214c0-1.013,0.675-1.688,1.688-1.688s1.688,0.675,1.688,1.688v43.214
					c0.337,3.377,3.039,5.739,6.415,5.402c3.039-0.338,5.063-2.363,5.401-5.402v-74.949c0-0.675,0.337-2.024,1.351-2.024
					c1.688,0,2.025,1.351,2.025,2.363v24.982c0,2.363,1.688,4.052,4.052,4.052c2.362,0,4.051-1.688,4.051-4.052V286.63
					C349.519,279.203,344.117,273.126,337.027,272.451z"/>
			</g>
		</g>
		<g>
			<g>
				<path fill="#FFFFFF" d="M425.818,270.763c5.738,0,10.128-4.39,10.128-10.128c0-5.739-4.39-10.13-10.128-10.13
					c-5.739,0-10.128,4.391-10.128,10.13C415.69,266.374,420.417,270.763,425.818,270.763z"/>
			</g>
			<g>
				<path fill="#FFFFFF" d="M454.852,311.276l-8.438-27.685c0,0-3.039-8.103-9.791-8.103h-21.606c-6.752,0-9.791,8.103-9.791,8.103
					l-8.44,27.685c0,0-1.351,5.064,2.701,6.415c4.052,1.352,5.402-3.714,5.402-3.714l6.752-22.957c0,0,0.338-1.688,1.688-1.352
					c1.352,0.338,0.675,2.363,0.675,2.363l-11.815,43.214h11.141v31.061c-0.337,3.039,2.026,5.401,4.727,5.739
					c3.039,0.338,5.402-2.025,5.74-4.728c0-0.337,0-0.675,0-1.013v-30.723h3.038v31.061c-0.338,3.038,2.025,5.401,4.727,5.739
					c3.039,0.338,5.402-2.025,5.739-4.728c0-0.338,0-0.675,0-1.013v-31.06h11.142l-11.815-43.215c0,0-0.338-2.025,0.675-2.363
					s1.688,1.351,1.688,1.351l6.752,22.958c0,0,1.351,5.063,5.738,3.713C455.865,316.678,454.852,311.276,454.852,311.276z
					 M437.972,317.015c0,6.753-5.401,12.154-12.153,12.154s-12.154-5.401-12.154-12.154c0-6.752,5.402-12.153,12.154-12.153l0,0
					C432.57,304.862,437.972,310.263,437.972,317.015z"/>
			</g>
			<g>
				<path fill="#FFFFFF" d="M429.87,310.939c-2.026,0-3.377,2.363-4.052,3.376c-1.014-1.013-1.688-3.376-4.053-3.376
					c-2.362,0-4.051,2.025-4.051,4.727c0,1.351,0.676,2.363,1.352,3.376l6.752,6.753l6.752-6.753l0,0
					c1.013-1.013,1.351-2.025,1.351-3.376C433.921,312.965,432.57,310.939,429.87,310.939z"/>
			</g>
		</g>
		<g>
			<g>
				<path fill="#FFFFFF" d="M373.489,315.665c4.727,0,8.778-4.052,8.778-8.777c0-4.727-4.052-8.777-8.778-8.777
					s-8.778,4.051-8.778,8.777C364.711,311.613,368.425,315.665,373.489,315.665L373.489,315.665z"/>
			</g>
			<g>
				<path fill="#FFFFFF" d="M394.421,341.323c0-0.338-2.7-6.753-3.376-8.777c-5.401-13.843-6.077-13.505-11.141-13.843H366.4
					c-4.728,0-5.739,0-11.142,13.843c-0.675,2.024-4.051,9.452-4.051,10.129c0,0.675-1.35,3.376,1.688,4.389
					c3.039,1.013,3.714-2.363,3.714-2.363l5.402-13.505c0,0,0-0.337,0.337-0.337c0.338,0,0.338,0.337,0.338,0.337v34.774l0,0
					c-0.338,2.362,1.688,4.727,4.051,5.063c2.363,0.338,4.727-1.688,5.063-4.051c0-0.338,0-0.676,0-0.676v-13.842
					c0,0,0-2.025,1.352-2.025c1.351,0,1.351,2.025,1.351,2.025v13.842c0,2.363,1.688,4.727,4.39,4.727h0.337
					c2.363,0,4.389-2.024,4.389-4.389c0,0,0,0,0-0.338l0,0v-34.773c0-0.338,0-0.338,0-0.338l0.337,0.338l5.064,12.154
					c0,0,1.35,3.376,4.051,2.024C394.758,344.699,395.096,343.011,394.421,341.323z"/>
			</g>
		</g>
		<g>
			<g>
				<path fill="#FFFFFF" d="M467.344,296.759l-7.428,23.296c0,0-1.351,4.389,2.363,5.4c3.714,1.013,4.727-3.037,4.727-3.037
					l5.739-19.582c0,0,0.338-1.351,1.351-1.014c1.014,0.338,1.014,2.026,1.014,2.026l-10.128,36.799h9.452v26.334
					c0,2.701,2.025,4.727,4.728,4.727c2.7,0,4.727-2.024,4.727-4.727v-26.334h2.7v26.334c0,2.701,2.026,4.727,4.728,4.727
					c2.7,0,4.727-2.024,4.727-4.727v-26.334h9.453l-10.804-36.799c0,0-0.337-1.688,0.676-2.026c1.013-0.337,1.351,1.015,1.351,1.015
					l6.076,19.581c0,0,1.014,4.051,4.728,3.037c3.714-1.013,2.362-5.4,2.362-5.4l-7.09-22.957c0,0-2.7-6.753-8.438-6.753h-18.569
					C469.708,290.344,467.344,297.097,467.344,296.759"/>
			</g>
			<g>
				<g>
					<path fill="#FFFFFF" d="M476.798,269.074c0-1.35-1.688-3.038-4.39-1.35c-3.714,1.688-3.038,7.09-3.038,7.09
						s0,0.675,0.338,0.675c0.337-0.675,1.013-2.025,4.051-2.701c0.676,0,1.014-0.337,1.352-0.337
						c0.338-1.014,1.013-1.688,1.688-2.363C476.798,269.412,476.798,269.412,476.798,269.074z"/>
				</g>
				<g>
					<path fill="#FFFFFF" d="M498.067,267.725c-3.039-1.352-4.391,0.337-4.391,1.35c0,0.338,0,0.338,0,0.676
						c0.676,0.675,1.014,1.352,1.688,2.363c0.675,0.338,1.013,0.675,1.688,0.675c3.039,0.338,3.714,1.688,4.052,2.701
						c0,0.338,0,0,0.339-0.675C501.78,274.139,501.78,269.412,498.067,267.725z"/>
				</g>
				<g>
					<path fill="#FFFFFF" d="M485.237,267.725c-5.739,0-10.128,4.389-10.128,10.128c0,5.738,4.389,10.128,10.128,10.128
						s10.129-4.39,10.129-10.128c0-5.401-4.39-10.128-9.791-10.128H485.237z"/>
				</g>
			</g>
		</g>
		<g>
			<g>
				<path fill="#FFFFFF" d="M561.537,302.498v20.595c0,2.024-1.688,3.376-3.376,3.376c-2.025,0-3.376-1.688-3.376-3.376v-21.271
					c0-0.675-0.338-2.024-1.688-2.024s-1.351,1.013-1.351,1.688v64.146c0,2.7-2.363,5.063-5.064,5.063
					c-2.7,0-5.063-2.363-5.063-5.063v-37.138c0-0.676-0.337-1.351-1.351-1.351c0,0,0,0-0.338,0l0,0
					c-0.676,0-1.351,0.675-1.351,1.351c0,0,0,0,0,0.337v37.139c0,2.7-2.363,5.063-5.064,5.063c-2.699,0-5.063-2.362-5.063-5.063
					v-64.146c0-0.675-0.338-1.688-1.352-1.688c-1.013,0-1.688,1.013-1.688,2.024v21.271c0,2.024-1.688,3.376-3.376,3.376
					c-2.025,0-3.376-1.688-3.376-3.376v-24.983c0-6.076,4.727-11.479,10.804-12.153h20.933c6.076,0.676,10.804,5.739,10.804,12.153
					L561.537,302.498L561.537,302.498z"/>
			</g>
			<g>
				<g>
					<path fill="#FFFFFF" d="M546.008,273.126c-0.676-0.675-1.351-1.351-2.701-0.675c-1.351,0.675-1.013,0.675-2.024,1.013
						c-1.688,0.676-3.714,1.352-5.739,1.688c-1.351,0.338-3.039,0.338-4.39,0.338c0.676,5.064,5.063,8.44,9.791,8.104
						c4.052-0.339,7.428-3.715,8.103-7.766C548.033,274.815,547.02,273.801,546.008,273.126z"/>
				</g>
				<g>
					<path fill="#FFFFFF" d="M535.204,273.126c1.688-0.338,3.376-1.013,5.063-1.688c1.351-0.675,2.7-1.014,2.7-1.014
						c0.676-0.337,1.352-0.337,2.026-0.337c0.337,0,0.675,0.337,0.675,0.676l0.675,0.675c0,0,0.338,0.338,2.363,2.025
						c0.676,0,0.676,0,1.014,0c0.337,0,0.337-1.688,0.337-2.362c-0.337-2.363-1.351-4.391-2.701-6.077
						c-0.337-0.675-1.013-1.013-2.024-1.013c-1.352,0.337-1.013-0.677-2.025-1.014c-2.701-1.014-5.739-0.338-7.765,1.351
						c-2.701,2.025-4.728,5.063-5.74,8.104c-0.675,0.675,0.338,1.013,1.352,1.013C532.503,273.464,533.854,273.464,535.204,273.126z
						"/>
				</g>
			</g>
		</g>
	</g>
</g>
</svg>
