<?xml version="1.0" encoding="utf-8"?>
<!-- Generator: Adobe Illustrator 16.0.3, SVG Export Plug-In . SVG Version: 6.00 Build 0)  -->
<!DOCTYPE svg PUBLIC "-//W3C//DTD SVG 1.1//EN" "http://www.w3.org/Graphics/SVG/1.1/DTD/svg11.dtd" [
	<!ENTITY ns_extend "http://ns.adobe.com/Extensibility/1.0/">
	<!ENTITY ns_ai "http://ns.adobe.com/AdobeIllustrator/10.0/">
	<!ENTITY ns_graphs "http://ns.adobe.com/Graphs/1.0/">
	<!ENTITY ns_vars "http://ns.adobe.com/Variables/1.0/">
	<!ENTITY ns_imrep "http://ns.adobe.com/ImageReplacement/1.0/">
	<!ENTITY ns_sfw "http://ns.adobe.com/SaveForWeb/1.0/">
	<!ENTITY ns_custom "http://ns.adobe.com/GenericCustomNamespace/1.0/">
	<!ENTITY ns_adobe_xpath "http://ns.adobe.com/XPath/1.0/">
]>
<svg version="1.1" id="Layer_1" xmlns:x="&ns_extend;" xmlns:i="&ns_ai;" xmlns:graph="&ns_graphs;"
	 xmlns="http://www.w3.org/2000/svg" xmlns:xlink="http://www.w3.org/1999/xlink" x="0px" y="0px" width="285.027px"
	 height="285.027px" viewBox="284.336 72.158 285.027 285.027" enable-background="new 284.336 72.158 285.027 285.027"
	 xml:space="preserve">
<metadata>
	<sfw  xmlns="&ns_sfw;">
		<slices></slices>
		<sliceSourceBounds  width="285.027" height="285.027" x="283.836" y="143.314" bottomLeftOrigin="true"></sliceSourceBounds>
	</sfw>
</metadata>
<title>TARGET 1 B copy</title>
<g id="TARGETS">
	<g>
		<rect x="284.336" y="72.158" fill="#DDA63A" width="285.027" height="285.027"/>
	</g>
	<g>
		<g>
			<rect x="367.92" y="285.327" fill="#FFFFFF" width="3.007" height="30.367"/>
		</g>
		<g>
			<g>
				<rect x="394.979" y="272.099" fill="#FFFFFF" width="9.02" height="2.104"/>
			</g>
			<g>
				<rect x="440.079" y="272.099" fill="#FFFFFF" width="9.02" height="2.104"/>
			</g>
			<g>
				<rect x="470.145" y="272.099" fill="#FFFFFF" width="9.021" height="2.104"/>
			</g>
			<g>
				<rect x="425.046" y="272.099" fill="#FFFFFF" width="9.02" height="2.104"/>
			</g>
			<g>
				<rect x="334.847" y="272.099" fill="#FFFFFF" width="9.02" height="2.104"/>
			</g>
			<g>
				<rect x="485.178" y="272.099" fill="#FFFFFF" width="9.021" height="2.104"/>
			</g>
			<g>
				<rect x="515.244" y="272.099" fill="#FFFFFF" width="8.419" height="2.104"/>
			</g>
			<g>
				<rect x="334.847" y="229.705" fill="#FFFFFF" width="9.02" height="2.104"/>
			</g>
			<g>
				<rect x="425.046" y="229.705" fill="#FFFFFF" width="9.02" height="2.104"/>
			</g>
			<g>
				<rect x="470.145" y="229.705" fill="#FFFFFF" width="9.021" height="2.104"/>
			</g>
			<g>
				<rect x="485.178" y="229.705" fill="#FFFFFF" width="9.021" height="2.104"/>
			</g>
			<g>
				<rect x="515.244" y="229.705" fill="#FFFFFF" width="8.419" height="2.104"/>
			</g>
			<g>
				<rect x="379.946" y="229.705" fill="#FFFFFF" width="9.02" height="2.104"/>
			</g>
			<g>
				<rect x="349.88" y="229.705" fill="#FFFFFF" width="9.02" height="2.104"/>
			</g>
			<g>
				<rect x="334.847" y="187.011" fill="#FFFFFF" width="9.02" height="2.105"/>
			</g>
			<g>
				<rect x="515.244" y="187.011" fill="#FFFFFF" width="8.419" height="2.105"/>
			</g>
			<g>
				<rect x="425.046" y="187.011" fill="#FFFFFF" width="9.02" height="2.105"/>
			</g>
			<g>
				<rect x="470.145" y="187.011" fill="#FFFFFF" width="9.021" height="2.105"/>
			</g>
			<g>
				<rect x="379.946" y="187.011" fill="#FFFFFF" width="9.02" height="2.105"/>
			</g>
			<g>
				<rect x="394.979" y="187.011" fill="#FFFFFF" width="9.02" height="2.105"/>
			</g>
			<g>
				<rect x="349.88" y="187.011" fill="#FFFFFF" width="9.02" height="2.105"/>
			</g>
			<g>
				<rect x="364.914" y="187.011" fill="#FFFFFF" width="9.02" height="2.105"/>
			</g>
			<g>
				<rect x="455.112" y="144.318" fill="#FFFFFF" width="9.02" height="2.104"/>
			</g>
			<g>
				<rect x="470.145" y="144.318" fill="#FFFFFF" width="9.021" height="2.104"/>
			</g>
			<g>
				<rect x="440.079" y="144.318" fill="#FFFFFF" width="9.02" height="2.104"/>
			</g>
			<g>
				<rect x="334.847" y="144.318" fill="#FFFFFF" width="9.02" height="2.104"/>
			</g>
			<g>
				<rect x="425.046" y="144.318" fill="#FFFFFF" width="9.02" height="2.104"/>
			</g>
			<g>
				<rect x="364.914" y="144.318" fill="#FFFFFF" width="9.02" height="2.104"/>
			</g>
			<g>
				<rect x="379.946" y="144.318" fill="#FFFFFF" width="9.02" height="2.104"/>
			</g>
			<g>
				<rect x="410.013" y="144.318" fill="#FFFFFF" width="9.02" height="2.104"/>
			</g>
			<g>
				<rect x="394.979" y="144.318" fill="#FFFFFF" width="9.02" height="2.104"/>
			</g>
			<g>
				<rect x="500.211" y="144.318" fill="#FFFFFF" width="9.02" height="2.104"/>
			</g>
			<g>
				<rect x="485.178" y="144.318" fill="#FFFFFF" width="9.021" height="2.104"/>
			</g>
			<g>
				<rect x="349.88" y="144.318" fill="#FFFFFF" width="9.02" height="2.104"/>
			</g>
			<g>
				<path fill="#FFFFFF" d="M500.813,310.884v-36.681h8.418v-2.104h-8.418V231.81h8.418v-2.104h-6.614
					c1.504-0.301,2.706-0.902,4.209-1.503c0.301-0.301,0.602-0.301,0.902-0.602c0.902-0.902,1.804-1.804,2.104-3.007
					c0.902-2.706,1.203-5.713,0.902-8.719l-1.203,0.601c-3.007,1.504-5.712,3.308-8.117,5.713c-1.203,1.804-1.805,3.908-1.504,6.313
					h-1.804c0.301-2.104-0.301-4.51-1.503-6.313c-2.105-2.104-4.511-3.908-7.216-5.111l-1.504-1.202c0,0-0.602,7.216,1.804,10.823
					c0.301,0.301,0.602,0.902,1.203,1.203c0.301,0.301,0.602,0.301,0.902,0.601c1.804,0.902,3.908,1.504,6.013,1.805v80.878h-41.792
					v-36.981h7.817v-2.104h-7.817V245.34h-3.007v65.544H413.32v-36.681h5.412v-2.104h-9.02v2.104h0.602v36.681h-79.976v-91.702
					l80.276-24.354l42.694-27.961l75.166-17.438v-6.014l-5.111,1.203v-0.301h-8.419v2.104h0.602l-63.439,14.732l-39.387,25.856
					h-3.007v1.805l-0.601,0.301l-78.773,23.752V112.147h-6.615v205.652h206.555v-6.614h-29.465V310.884z"/>
			</g>
			<g>
				<path fill="#FFFFFF" d="M499.31,189.717c0,0,4.51-2.405,4.51-5.111c0-3.607-4.21-7.816-4.21-8.117l0,0
					c0,0-4.209,4.51-4.209,8.117C494.799,187.312,498.106,189.116,499.31,189.717z"/>
			</g>
			<g>
				<path fill="#FFFFFF" d="M492.093,194.828c0,0,1.203,1.504,6.314,2.104c0,0,0.602-4.811-1.203-6.915
					c-2.104-2.104-4.51-3.908-7.216-5.111h-0.301c0,0,0,0.902,0,2.104h-4.51v2.105h4.51c0,0.3,0,0.601,0,0.901
					C489.988,191.822,490.891,193.626,492.093,194.828z"/>
			</g>
			<g>
				<path fill="#FFFFFF" d="M498.407,219.182c0,0,0.902-5.412-1.203-7.817c-2.104-2.405-4.51-4.51-7.517-6.013l-0.601-0.602
					c-0.301,3.007-0.301,6.314,0.601,9.32c0.301,0.902,0.902,1.805,1.805,2.405C493.296,217.98,495.701,218.881,498.407,219.182z"/>
			</g>
			<g>
				<path fill="#FFFFFF" d="M506.225,194.828c3.307-2.405,2.405-9.922,2.405-9.922c-2.706,1.203-5.412,3.007-7.517,5.111
					c-1.804,2.104-1.203,6.915-1.203,6.915C505.322,196.031,506.225,194.828,506.225,194.828z"/>
			</g>
			<g>
				<path fill="#FFFFFF" d="M501.414,199.94c-2.104,2.104-1.504,7.517-1.504,7.517c5.412-0.902,6.614-2.405,6.614-2.405
					c2.105-2.104,3.007-5.111,2.706-8.118c0-0.601,0-1.202,0-1.503s0-0.902,0-1.203C502.616,198.136,501.414,199.94,501.414,199.94z
					"/>
			</g>
			<g>
				<path fill="#FFFFFF" d="M506.825,216.476c3.608-2.405,2.405-11.425,2.405-11.425c-6.915,3.908-8.117,6.313-8.117,6.313
					c-1.804,2.105-1.203,7.517-1.203,7.517C505.623,218.281,506.825,216.476,506.825,216.476z"/>
			</g>
			<g>
				<path fill="#FFFFFF" d="M491.492,176.489v-8.118c0-0.301-0.301-0.902-0.902-0.902c-0.301,0-0.902,0.301-0.902,0.902v15.033
					l1.504,0.902v-7.817H491.492z"/>
			</g>
			<g>
				<path fill="#FFFFFF" d="M492.995,183.704c0.301-1.504,0.902-2.706,1.503-3.909v-14.131c0-0.301-0.3-0.902-0.901-0.902
					c-0.301,0-0.902,0.301-0.902,0.902v18.04H492.995z"/>
			</g>
			<g>
				<path fill="#FFFFFF" d="M496.903,176.489l1.203-1.504v-13.229c0-0.301-0.301-0.902-0.902-0.902
					c-0.301,0-0.901,0.301-0.901,0.902v15.634L496.903,176.489z"/>
			</g>
			<g>
				<path fill="#FFFFFF" d="M508.63,183.404V168.37c0-0.301-0.301-0.902-0.902-0.902c-0.301,0-0.902,0.301-0.902,0.902v15.936
					L508.63,183.404z"/>
			</g>
			<g>
				<path fill="#FFFFFF" d="M505.322,183.704L505.322,183.704v-18.04c0-0.301-0.301-0.902-0.902-0.902
					c-0.3,0-0.901,0.301-0.901,0.902l0,0v14.131C504.42,180.998,505.021,182.2,505.322,183.704z"/>
			</g>
			<g>
				<path fill="#FFFFFF" d="M502.015,176.489v-15.033c0-0.301-0.301-0.902-0.901-0.902c-0.301,0-0.902,0.301-0.902,0.902l0,0v13.529
					l1.203,1.504c0,0.301,0.3,0.301,0.3,0.601v-0.601H502.015z"/>
			</g>
			<g>
				<path fill="#FFFFFF" d="M498.407,207.456c0,0,0.602-5.412-1.504-7.517c-2.104-2.104-4.51-3.908-7.216-5.111l-0.901-0.602
					c0,1.203,0,2.105,0,3.308v1.804c0,0.902,0.301,2.105,0.602,3.007c0.3,1.203,0.901,2.104,1.804,2.706
					C491.492,204.75,492.995,206.554,498.407,207.456z"/>
			</g>
			<g>
				<path fill="#FFFFFF" d="M459.021,196.933c0-3.607-4.209-8.117-4.209-8.117s-4.21,4.51-4.21,8.117
					c0,3.007,3.308,4.511,4.21,5.111C454.511,202.044,459.021,199.94,459.021,196.933z"/>
			</g>
			<g>
				<path fill="#FFFFFF" d="M447.596,207.156c0,0,1.202,1.504,6.313,2.104c0,0,0.602-4.811-1.503-6.915
					c-2.105-2.104-4.511-3.908-7.216-5.111h-0.301c0,1.805,0,3.308,0.301,5.111C445.49,204.149,446.092,205.953,447.596,207.156z"/>
			</g>
			<g>
				<path fill="#FFFFFF" d="M453.909,231.509c0,0,0.902-5.412-1.203-7.817c0,0-1.202-2.104-7.516-6.013l-0.602-0.602
					c-0.301,3.007-0.301,6.314,0.602,9.32c0.3,0.902,0.901,1.805,1.503,2.405C446.693,228.803,448.196,230.608,453.909,231.509z"/>
			</g>
			<g>
				<path fill="#FFFFFF" d="M453.608,242.634c0,0,0.602-6.014-1.503-8.118s-4.51-3.908-7.216-5.111l-1.805-0.902
					c0,0,0,0.602,0,1.504h-3.307v2.104h3.307c0,2.405,0.602,4.811,1.805,6.915c0.301,0.301,0.601,0.902,1.202,1.203
					C448.497,241.732,450.902,242.634,453.608,242.634z"/>
			</g>
			<g>
				<path fill="#FFFFFF" d="M456.916,202.345c-1.804,2.104-1.203,6.915-1.203,6.915c5.111-0.901,6.314-2.104,6.314-2.104
					c1.503-1.202,2.405-3.007,2.405-5.111c0.301-1.503,0.301-3.307,0-4.811l0,0C461.426,198.437,459.021,200.24,456.916,202.345z"/>
			</g>
			<g>
				<path fill="#FFFFFF" d="M456.916,212.267c-2.104,2.104-1.504,7.517-1.504,7.517c5.412-0.902,6.615-2.405,6.615-2.405
					c0.901-0.602,1.503-1.804,2.104-2.706c0.901-2.706,1.202-5.412,0.901-8.118l-0.901,0.602
					C461.426,208.359,459.021,210.162,456.916,212.267z"/>
			</g>
			<g>
				<path fill="#FFFFFF" d="M456.615,223.692c-2.104,2.105-1.203,7.817-1.203,7.817c2.405,0,4.811-0.901,6.916-2.405
					c0.901-0.602,1.202-1.503,1.804-2.405c0.901-3.007,1.202-6.013,0.602-9.02l-0.602,0.301
					C457.817,221.587,456.615,223.692,456.615,223.692z"/>
			</g>
			<g>
				<path fill="#FFFFFF" d="M456.916,234.516c-2.104,2.104-1.504,8.118-1.504,8.118c2.706-0.301,5.111-1.203,7.517-2.706
					c0.301-0.301,0.902-0.602,1.203-1.203c1.503-3.307,2.104-6.915,1.804-10.522l-1.804,0.901
					C461.426,230.608,459.021,232.411,456.916,234.516z"/>
			</g>
			<g>
				<path fill="#FFFFFF" d="M446.693,180.998v-0.301c0-0.301-0.301-0.902-0.902-0.902c-0.601,0-0.901,0.301-0.901,0.902v6.313
					h-5.111v2.105h5.111v6.614l1.503,0.901v-15.634H446.693z"/>
			</g>
			<g>
				<path fill="#FFFFFF" d="M448.497,196.031c0.301-1.504,0.902-2.706,1.504-3.909v-14.131c0-0.301-0.301-0.902-0.902-0.902
					s-0.902,0.301-0.902,0.902C448.497,177.991,448.497,196.031,448.497,196.031z"/>
			</g>
			<g>
				<path fill="#FFFFFF" d="M453.608,187.312v-13.529c0-0.301-0.301-0.902-0.902-0.902c-0.3,0-0.901,0.301-0.901,0.902v15.634
					L453.608,187.312z"/>
			</g>
			<g>
				<path fill="#FFFFFF" d="M464.132,195.731v-15.033c0-0.301-0.301-0.902-0.902-0.902s-0.901,0.301-0.901,0.902l0,0v15.935
					L464.132,195.731z"/>
			</g>
			<g>
				<path fill="#FFFFFF" d="M460.824,196.031L460.824,196.031v-18.04c0-0.301-0.301-0.902-0.901-0.902
					c-0.602,0-0.902,0.301-0.902,0.902v14.131C459.923,193.325,460.523,194.828,460.824,196.031z"/>
			</g>
			<g>
				<path fill="#FFFFFF" d="M457.217,189.416v-15.634c0-0.301-0.301-0.902-0.902-0.902s-0.902,0.301-0.902,0.902v13.529
					L457.217,189.416z"/>
			</g>
			<g>
				<path fill="#FFFFFF" d="M453.909,219.783c0,0,0.602-5.412-1.503-7.517s-4.511-3.908-7.216-5.111l-0.902-0.602
					c0,1.203,0,2.105,0,3.308v1.804c0,0.902,0.301,2.104,0.602,3.007c0.301,1.203,0.901,2.104,1.804,2.706
					C446.994,217.378,448.196,218.881,453.909,219.783z"/>
			</g>
			<g>
				<path fill="#FFFFFF" d="M416.327,223.692c0-3.607-4.209-8.117-4.209-8.117s-4.209,4.51-4.209,8.117
					c0,2.706,3.307,4.511,4.209,5.111C412.117,228.803,416.327,226.398,416.327,223.692z"/>
			</g>
			<g>
				<path fill="#FFFFFF" d="M411.215,236.019c0,0,0.601-4.811-1.503-6.915c-1.804-1.804-3.909-3.607-6.314-4.51l-0.902-0.602
					c-0.301,2.104,0,3.909,0.301,6.014h-7.817v2.104h8.418c0,0.301,0.301,0.602,0.301,0.602c0.301,0.601,0.601,0.901,1.203,1.202
					C404.901,233.914,406.104,235.418,411.215,236.019z"/>
			</g>
			<g>
				<path fill="#FFFFFF" d="M410.013,250.451c-1.503-1.805-3.308-3.608-5.412-4.811c-0.902-0.602-1.503-0.902-2.706-1.805
					c0,0-1.203,9.021,2.405,11.426c0.301,0.3,0.602,0.601,0.902,0.601c1.804,0.902,3.909,1.805,6.013,1.805
					C411.215,258.268,412.117,252.857,410.013,250.451z"/>
			</g>
			<g>
				<path fill="#FFFFFF" d="M410.915,269.393c0,0,0.602-6.014-1.203-8.118c-1.203-1.503-2.706-2.706-4.51-3.607
					c-1.203-0.902-2.706-1.504-4.51-2.706c0,0-0.601,9.32,3.007,11.726c0.601,0.602,1.203,0.902,2.104,1.202
					C407.307,268.791,409.111,269.092,410.915,269.393z"/>
			</g>
			<g>
				<path fill="#FFFFFF" d="M414.222,229.104c-1.804,2.104-1.503,6.915-1.503,6.915c5.111-0.901,6.313-2.104,6.313-2.104
					c1.804-1.804,2.706-4.209,2.706-6.614c0-0.902,0-1.804,0-2.706c0-0.301,0-0.602,0-0.602
					C419.032,225.196,416.327,226.999,414.222,229.104z"/>
			</g>
			<g>
				<path fill="#FFFFFF" d="M414.222,239.026c-2.104,2.104-1.503,7.517-1.503,7.517c5.412-0.902,6.614-2.405,6.614-2.405
					c1.203-0.902,1.804-2.104,2.405-3.308c0.602-2.405,0.902-5.11,0.602-7.516l-0.602,0.3
					C419.032,235.117,416.327,236.921,414.222,239.026z"/>
			</g>
			<g>
				<path fill="#FFFFFF" d="M413.921,250.451c-2.105,2.104-1.203,7.816-1.203,7.816c2.405,0,5.111-1.202,6.915-2.706
					c0.902-0.601,1.503-1.503,2.104-2.705c0.602-2.706,0.902-5.713,0.602-8.72l-0.602,0.301
					C415.124,248.346,413.921,250.451,413.921,250.451z"/>
			</g>
			<g>
				<path fill="#FFFFFF" d="M414.222,261.275c-2.104,2.104-1.503,8.118-1.503,8.118c2.706-0.301,5.111-1.203,7.517-2.706
					c0.601-0.301,0.901-0.902,1.202-1.503c1.203-3.308,1.804-6.916,1.504-10.223l-1.203,0.901
					C419.032,257.366,416.327,259.17,414.222,261.275z"/>
			</g>
			<g>
				<path fill="#FFFFFF" d="M404.3,207.456c0-0.301-0.3-0.902-0.902-0.902c-0.601,0-0.902,0.301-0.902,0.902v15.033l0.602,0.301
					l0.902,0.602v-15.936H404.3z"/>
			</g>
			<g>
				<path fill="#FFFFFF" d="M405.803,222.79L405.803,222.79c0.301-1.504,0.902-2.706,1.503-3.909V204.75
					c0-0.301,0-0.301-0.301-0.602c-0.3-0.3-0.3-0.3-0.601-0.3s-0.301,0-0.602,0.3c0,0.301-0.3,0.301-0.3,0.602v18.04H405.803z"/>
			</g>
			<g>
				<path fill="#FFFFFF" d="M410.915,214.071v-13.229c0-0.301-0.301-0.902-0.601-0.902c-0.301,0-0.902,0.301-0.902,0.602v0.301
					v15.634L410.915,214.071z"/>
			</g>
			<g>
				<path fill="#FFFFFF" d="M421.438,207.456c0-0.301-0.301-0.902-0.902-0.902s-0.902,0.301-0.902,0.902v15.936l1.503-0.902v-15.033
					H421.438z"/>
			</g>
			<g>
				<path fill="#FFFFFF" d="M416.627,218.881c0.602,1.203,1.203,2.706,1.503,3.909l0,0v-18.04c0-0.301-0.3-0.901-0.902-0.901
					s-0.902,0.3-0.902,0.901v14.131H416.627z"/>
			</g>
			<g>
				<path fill="#FFFFFF" d="M414.823,216.176v-15.635c0-0.301-0.301-0.902-0.902-0.902c-0.602,0-0.902,0.301-0.902,0.902v13.229
					C413.621,214.672,414.222,215.574,414.823,216.176z"/>
			</g>
			<g>
				<path fill="#FFFFFF" d="M411.215,246.542c0,0,0.601-5.412-1.503-7.517c-1.503-1.804-3.608-3.307-5.712-4.209l-2.105-1.203
					c0,1.203,0,2.105,0,3.308v1.804c0,2.104,0.902,4.21,2.706,5.713l0,0C404.3,244.137,405.503,245.64,411.215,246.542z"/>
			</g>
			<g>
				<path fill="#FFFFFF" d="M373.633,236.62c0-3.607-4.209-7.817-4.209-7.817s-4.209,4.511-4.209,7.817
					c0,3.007,3.308,4.51,4.209,5.111C369.423,241.732,373.633,239.627,373.633,236.62z"/>
			</g>
			<g>
				<path fill="#FFFFFF" d="M362.208,246.843c0,0,1.203,1.503,6.314,2.104c0,0,0.601-4.811-1.503-6.915s-4.51-3.908-7.216-5.111
					h-0.301c0,1.804,0,3.308,0.301,5.111S361.005,245.64,362.208,246.843z"/>
			</g>
			<g>
				<path fill="#FFFFFF" d="M368.521,271.197c0,0,0.902-5.412-1.203-7.817c-2.105-2.405-4.51-4.51-7.517-6.013l-0.602-0.602
					c-0.3,3.007-0.3,6.313,0.602,9.32c0.301,0.902,0.902,1.804,1.503,2.405C363.41,269.994,365.815,270.896,368.521,271.197z"/>
			</g>
			<g>
				<path fill="#FFFFFF" d="M368.221,282.322c0,0,0.602-6.014-1.503-8.118c-2.104-2.104-4.51-3.909-7.216-5.111l-1.804-0.902
					c0,1.504,0,2.706,0,4.21h-8.118v2.104h8.719c0.301,1.503,0.602,3.007,1.503,4.209c0.301,0.301,0.601,0.902,1.203,1.203
					C363.109,281.419,365.815,282.322,368.221,282.322z"/>
			</g>
			<g>
				<path fill="#FFFFFF" d="M371.528,242.032c-1.804,2.104-1.503,6.915-1.503,6.915c5.111-0.901,6.314-2.104,6.314-2.104
					c2.405-1.503,2.706-5.713,2.706-8.118c0-1.202,0-1.804,0-1.804C376.338,238.124,373.633,239.928,371.528,242.032z"/>
			</g>
			<g>
				<path fill="#FFFFFF" d="M371.528,251.954c-2.104,2.104-1.503,7.517-1.503,7.517c5.412-0.902,6.615-2.405,6.615-2.405
					c1.203-0.902,1.804-2.104,2.104-3.308c0.602-2.405,0.902-4.811,0.602-7.216h-0.301
					C376.338,248.046,373.633,249.85,371.528,251.954z"/>
			</g>
			<g>
				<path fill="#FFFFFF" d="M371.228,263.379c-2.105,2.104-1.203,7.817-1.203,7.817c5.412-0.902,6.916-2.405,6.916-2.405
					c0.902-0.902,1.503-1.804,1.804-3.007c0.602-2.706,0.902-5.712,0.602-8.418l-0.602,0.301
					C372.43,261.275,371.228,263.379,371.228,263.379z"/>
			</g>
			<g>
				<path fill="#FFFFFF" d="M371.528,274.203c-2.104,2.104-1.203,8.118-1.203,8.118c2.706-0.301,5.111-1.203,7.216-2.706
					c0.602-0.301,0.902-0.902,1.503-1.504c0.602-1.202,1.203-2.706,1.203-3.908h8.719v-2.104h-8.418c0-1.504,0-2.706,0-4.21
					l-1.503,0.902C376.338,270.294,373.633,272.099,371.528,274.203z"/>
			</g>
			<g>
				<path fill="#FFFFFF" d="M361.606,220.385c0-0.301-0.3-0.902-0.902-0.902c-0.601,0-0.902,0.301-0.902,0.902v15.033l1.503,0.901
					v-15.935H361.606z"/>
			</g>
			<g>
				<path fill="#FFFFFF" d="M364.011,217.077c-0.3,0-0.902,0.301-0.902,0.902v18.039l0,0c0.301-1.503,0.902-2.705,1.503-3.908
					V217.98C364.914,217.378,364.613,217.077,364.011,217.077z"/>
			</g>
			<g>
				<path fill="#FFFFFF" d="M368.221,226.999V213.77c0-0.3-0.301-0.901-0.902-0.901c-0.602,0-0.902,0.301-0.902,0.901v15.635
					L368.221,226.999z"/>
			</g>
			<g>
				<path fill="#FFFFFF" d="M378.744,220.385c0-0.301-0.3-0.902-0.902-0.902c-0.601,0-0.902,0.301-0.902,0.902v15.935l1.503-0.901
					v-15.033H378.744z"/>
			</g>
			<g>
				<path fill="#FFFFFF" d="M375.437,235.719v-18.04c0-0.301-0.301-0.902-0.902-0.902c-0.602,0-0.902,0.301-0.902,0.902v14.131
					C374.535,233.013,375.136,234.516,375.437,235.719L375.437,235.719z"/>
			</g>
			<g>
				<path fill="#FFFFFF" d="M372.129,229.104V213.47c0-0.301-0.301-0.902-0.902-0.902c-0.301,0-0.902,0.301-0.902,0.902v13.229
					L372.129,229.104z"/>
			</g>
			<g>
				<path fill="#FFFFFF" d="M368.521,259.471c0,0,0.601-5.412-1.503-7.517s-4.51-3.908-7.216-5.111l-0.902-0.602
					c0,1.203,0,2.104,0,3.308v1.804c0,0.902,0.3,2.104,0.601,3.007c0.301,1.202,0.902,2.104,1.804,2.706
					C361.907,257.066,363.109,258.569,368.521,259.471z"/>
			</g>
		</g>
	</g>
</g>
</svg>
