<?xml version="1.0" encoding="utf-8"?>
<!-- Generator: Adobe Illustrator 16.0.3, SVG Export Plug-In . SVG Version: 6.00 Build 0)  -->
<!DOCTYPE svg PUBLIC "-//W3C//DTD SVG 1.1//EN" "http://www.w3.org/Graphics/SVG/1.1/DTD/svg11.dtd" [
	<!ENTITY ns_extend "http://ns.adobe.com/Extensibility/1.0/">
	<!ENTITY ns_ai "http://ns.adobe.com/AdobeIllustrator/10.0/">
	<!ENTITY ns_graphs "http://ns.adobe.com/Graphs/1.0/">
	<!ENTITY ns_vars "http://ns.adobe.com/Variables/1.0/">
	<!ENTITY ns_imrep "http://ns.adobe.com/ImageReplacement/1.0/">
	<!ENTITY ns_sfw "http://ns.adobe.com/SaveForWeb/1.0/">
	<!ENTITY ns_custom "http://ns.adobe.com/GenericCustomNamespace/1.0/">
	<!ENTITY ns_adobe_xpath "http://ns.adobe.com/XPath/1.0/">
]>
<svg version="1.1" id="Layer_1" xmlns:x="&ns_extend;" xmlns:i="&ns_ai;" xmlns:graph="&ns_graphs;"
	 xmlns="http://www.w3.org/2000/svg" xmlns:xlink="http://www.w3.org/1999/xlink" x="0px" y="0px" width="284.513px"
	 height="284.514px" viewBox="284.593 72.029 284.513 284.514" enable-background="new 284.593 72.029 284.513 284.514"
	 xml:space="preserve">
<metadata>
	<sfw  xmlns="&ns_sfw;">
		<slices></slices>
		<sliceSourceBounds  width="284.513" height="284.514" x="284.093" y="143.958" bottomLeftOrigin="true"></sliceSourceBounds>
	</sfw>
</metadata>
<title>TARGET 1 B copy 3</title>
<g id="TARGETS">
	<g>
		<rect x="284.593" y="72.029" fill="#4C9F38" width="284.513" height="284.514"/>
	</g>
	<g>
		<g>
			<rect x="374.629" y="208.283" width="151.561" height="26.711"/>
		</g>
		<g>
			<rect x="348.519" y="208.283" width="21.309" height="26.711"/>
		</g>
		<g>
			<path d="M334.713,126.651c0,0,16.807,12.905-2.401,44.117c-18.007,29.412,2.401,48.319,8.704,50.721
				c-6.002-16.206-4.202-34.514,4.502-49.22C355.121,155.762,352.12,130.252,334.713,126.651z"/>
		</g>
	</g>
	<g>
		<g opacity="0.3" enable-background="new    ">
			<path fill="#1A1818" d="M477.271,138.055c0,14.406-11.705,25.811-25.811,25.811s-25.811-11.705-25.811-25.811
				c0-14.405,11.705-25.81,25.811-25.81l0,0C465.865,112.245,477.271,123.65,477.271,138.055L477.271,138.055z"/>
		</g>
		<g opacity="0.3" enable-background="new    ">
			<path fill="#1A1818" d="M382.132,189.375c0,18.607-14.706,33.614-33.313,33.614s-33.614-14.706-33.614-33.313
				s14.706-33.613,33.313-33.613l0,0C367.126,156.063,382.132,171.069,382.132,189.375z"/>
		</g>
		<g opacity="0.3" enable-background="new    ">
			<path fill="#1A1818" d="M472.468,177.371c0,23.409-19.207,42.616-42.616,42.616c-23.41,0-42.618-19.207-42.618-42.616
				c0-23.41,19.208-42.617,42.618-42.617C453.261,134.754,472.468,153.661,472.468,177.371L472.468,177.371z"/>
		</g>
		<g opacity="0.3" enable-background="new    ">
			<path fill="#1A1818" d="M398.338,277.611c0,17.707-14.406,32.413-32.413,32.113c-17.707,0-32.113-14.406-32.113-32.413
				c0-17.707,14.406-32.413,32.413-32.413l0,0C383.933,245.498,398.338,259.904,398.338,277.611L398.338,277.611z"/>
		</g>
		<g opacity="0.3" enable-background="new    ">
			<path fill="#1A1818" d="M439.755,245.498c0,12.305-10.204,22.509-22.509,22.509s-22.509-10.204-22.509-22.509
				s10.204-22.509,22.509-22.509l0,0C429.551,222.99,439.755,232.893,439.755,245.498
				C439.755,245.198,439.755,245.498,439.755,245.498z"/>
		</g>
		<g opacity="0.3" enable-background="new    ">
			<path fill="#1A1818" d="M404.941,150.361c0,23.409-19.208,42.616-42.617,42.616s-42.617-19.207-42.617-42.616
				c0-23.41,19.208-42.617,42.617-42.617l0,0C385.733,107.743,404.941,126.651,404.941,150.361z"/>
		</g>
		<g opacity="0.3" enable-background="new    ">
			<path fill="#1A1818" d="M425.649,222.99c0,29.111-23.409,52.521-52.521,52.521s-52.521-23.409-52.521-52.521
				c0-29.112,23.409-52.521,52.521-52.521l0,0C401.94,170.468,425.649,194.178,425.649,222.99z"/>
		</g>
		<g opacity="0.3" enable-background="new    ">
			<path fill="#1A1818" d="M407.942,118.848c0,10.804-8.704,19.808-19.808,19.808c-11.104,0-19.808-8.703-19.808-19.808
				s8.704-19.809,19.808-19.809l0,0C398.939,99.039,407.942,107.743,407.942,118.848z"/>
		</g>
	</g>
	<g>
		<polygon fill="#FFFFFF" points="494.377,167.767 487.774,161.464 434.053,214.886 380.631,161.464 374.029,167.767 
			427.45,221.489 374.029,274.91 380.631,281.513 434.053,228.091 487.774,281.513 494.377,274.91 440.655,221.489 		"/>
	</g>
</g>
</svg>
