<?xml version="1.0" encoding="utf-8"?>
<!-- Generator: Adobe Illustrator 16.0.3, SVG Export Plug-In . SVG Version: 6.00 Build 0)  -->
<!DOCTYPE svg PUBLIC "-//W3C//DTD SVG 1.1//EN" "http://www.w3.org/Graphics/SVG/1.1/DTD/svg11.dtd" [
	<!ENTITY ns_extend "http://ns.adobe.com/Extensibility/1.0/">
	<!ENTITY ns_ai "http://ns.adobe.com/AdobeIllustrator/10.0/">
	<!ENTITY ns_graphs "http://ns.adobe.com/Graphs/1.0/">
	<!ENTITY ns_vars "http://ns.adobe.com/Variables/1.0/">
	<!ENTITY ns_imrep "http://ns.adobe.com/ImageReplacement/1.0/">
	<!ENTITY ns_sfw "http://ns.adobe.com/SaveForWeb/1.0/">
	<!ENTITY ns_custom "http://ns.adobe.com/GenericCustomNamespace/1.0/">
	<!ENTITY ns_adobe_xpath "http://ns.adobe.com/XPath/1.0/">
]>
<svg version="1.1" id="Layer_1" xmlns:x="&ns_extend;" xmlns:i="&ns_ai;" xmlns:graph="&ns_graphs;"
	 xmlns="http://www.w3.org/2000/svg" xmlns:xlink="http://www.w3.org/1999/xlink" x="0px" y="0px" width="500px" height="500px"
	 viewBox="177 0 500 500" enable-background="new 177 0 500 500" xml:space="preserve">
<metadata>
	<sfw  xmlns="&ns_sfw;">
		<slices></slices>
		<sliceSourceBounds  width="500" height="500" y="0.5" x="176.5" bottomLeftOrigin="true"></sliceSourceBounds>
	</sfw>
</metadata>
<title>TARGET 1 B copy 13</title>
<g id="TARGETS">
	<g>
		<rect x="177" y="0" fill="#19486A" width="500" height="500"/>
	</g>
	<g>
		<g>
			<g>
				<path fill="#FFFFFF" d="M331.008,194.093c4.747-8.439,11.076-15.823,17.933-22.68l-58.017-63.818
					c-14.768,14.24-26.898,30.063-36.919,47.996L331.008,194.093z"/>
			</g>
			<g>
				<path fill="#FFFFFF" d="M473.413,148.735c8.967,4.219,16.878,8.966,24.262,15.295l58.018-63.818
					c-15.296-13.186-32.701-24.262-51.688-32.173L473.413,148.735z"/>
			</g>
			<g>
				<path fill="#FFFFFF" d="M606.853,168.249l-77.004,38.502c3.691,8.966,6.328,17.933,7.911,27.426l85.97-7.911
					C621.093,205.697,615.291,186.182,606.853,168.249"/>
			</g>
			<g>
				<path fill="#FFFFFF" d="M524.046,195.148l77.005-38.502c-9.494-17.933-21.625-33.756-35.865-47.996l-58.017,63.818
					C514.025,179.324,519.827,187.237,524.046,195.148"/>
			</g>
			<g>
				<path fill="#FFFFFF" d="M315.713,250c0-1.583,0-3.692,0-5.274l-85.443-7.384c0,4.219-0.527,8.438-0.527,12.658
					c0,16.35,2.11,32.173,5.802,47.995l82.806-23.733C316.768,266.35,315.713,258.439,315.713,250"/>
			</g>
			<g>
				<path fill="#FFFFFF" d="M513.498,320.675c-6.329,7.384-13.186,14.24-21.098,19.515l45.359,73.313
					c16.877-11.604,31.646-25.316,44.304-41.14L513.498,320.675z"/>
			</g>
			<g>
				<path fill="#FFFFFF" d="M538.814,250c0,7.911-1.055,15.822-2.638,23.734l82.807,23.733c3.691-15.295,5.802-31.646,5.802-47.468
					c0-4.22,0-7.912-0.528-12.131l-85.97,7.911C538.287,247.363,538.287,248.946,538.814,250"/>
			</g>
			<g>
				<path fill="#FFFFFF" d="M342.612,322.257l-68.565,51.688c12.658,15.823,27.954,29.536,44.831,40.612l45.359-73.313
					C355.797,335.97,348.941,329.641,342.612,322.257"/>
			</g>
			<g>
				<path fill="#FFFFFF" d="M317.295,232.595c1.582-9.494,4.219-18.987,8.439-27.426l-77.004-38.503
					c-8.439,18.46-14.241,37.975-16.877,58.545L317.295,232.595z"/>
			</g>
			<g>
				<path fill="#FFFFFF" d="M527.211,420.359l-45.358-73.313c-8.439,4.747-17.405,7.911-26.371,10.549l15.822,84.915
					C490.818,438.291,509.806,430.379,527.211,420.359"/>
			</g>
			<g>
				<path fill="#FFFFFF" d="M533.013,285.865c-3.164,8.967-6.856,16.878-12.131,24.789l69.093,51.688
					c11.076-16.351,20.042-33.756,25.844-52.743L533.013,285.865z"/>
			</g>
			<g>
				<path fill="#FFFFFF" d="M443.351,360.759c-5.274,0.527-10.549,1.055-15.823,1.055c-4.22,0-8.438,0-13.186-1.055l-15.823,84.916
					c9.494,1.582,19.515,2.109,29.008,2.109c10.549,0,21.625-1.055,32.173-2.637L443.351,360.759z"/>
			</g>
			<g>
				<path fill="#FFFFFF" d="M434.384,139.24c9.494,0.527,18.46,2.637,27.427,5.274l31.118-80.696
					c-18.987-6.856-38.503-10.549-58.545-11.076V139.24L434.384,139.24z"/>
			</g>
			<g>
				<path fill="#FFFFFF" d="M402.211,358.65c-9.494-2.109-18.46-5.802-27.426-10.549l-45.886,73.84
					c17.932,10.021,36.919,17.405,56.962,21.624L402.211,358.65z"/>
			</g>
			<g>
				<path fill="#FFFFFF" d="M393.772,143.988c8.966-3.165,18.46-4.747,27.954-5.274V52.742c-20.042,0.527-40.084,4.22-59.072,10.549
					L393.772,143.988z"/>
			</g>
			<g>
				<path fill="#FFFFFF" d="M334.7,312.764c-5.801-7.912-10.021-16.878-13.186-26.371l-82.806,23.733
					c6.329,19.515,15.295,37.975,27.426,54.853L334.7,312.764z"/>
			</g>
			<g>
				<path fill="#FFFFFF" d="M358.435,162.975c7.384-5.802,15.295-10.549,23.734-14.24l-31.118-80.169
					c-18.46,7.911-35.338,18.46-50.633,31.118L358.435,162.975z"/>
			</g>
		</g>
		<g>
			<g>
				<path fill="#FFFFFF" d="M513.498,241.561c0-2.109-2.11-4.219-4.22-3.691l0,0h-6.329c-2.637,0-4.747-0.527-5.274-3.165
					c-1.055-4.219-2.637-8.438-4.219-12.131c-1.056-2.109-0.527-4.746,1.582-6.329l5.274-4.746c1.582-1.056,2.109-3.692,1.055-5.274
					c-2.638-4.747-5.802-9.494-9.494-13.186c-1.582-1.583-4.219-2.11-5.802-0.527l-5.273,3.691c-2.11,1.582-4.22,2.109-6.329,0.527
					c-3.692-2.637-7.912-5.802-10.549-7.384c-2.109-1.055-3.165-3.692-2.638-5.802c0.528-2.637,1.056-4.22,1.583-6.856
					c0.527-2.109-0.527-4.22-2.638-5.274c-4.746-2.109-10.021-3.691-15.295-4.747c-2.109-0.527-4.747,0.527-5.274,2.638l0,0
					c-1.055,2.109-1.582,3.691-2.109,5.802c-0.527,2.109-2.11,4.219-4.747,4.219c-5.274,0-9.494,0-12.658,0
					c-2.11,0-4.22-1.055-5.274-3.691c-1.055-2.11-1.582-4.22-2.637-6.329c-0.527-2.11-2.637-3.165-4.747-2.638
					c-5.274,1.056-10.549,2.638-15.295,5.274c-2.11,1.055-3.165,3.165-2.637,5.274s1.055,3.692,1.582,6.329
					c0.528,2.638,0.528,4.747-1.582,5.802s-7.384,5.274-10.548,7.911c-1.583,1.583-4.22,1.583-6.329,0.527
					c-2.11-1.582-3.692-2.637-5.802-3.691c-1.583-1.055-3.692-0.527-5.274,0.527c-3.692,4.219-6.856,8.438-9.494,13.186
					c-1.055,2.109-0.527,4.22,1.055,5.802l0,0l5.274,3.691c2.11,1.583,3.165,3.165,2.637,5.802
					c-0.527,2.638-3.165,9.494-3.692,12.131c-0.527,2.11-2.637,4.22-4.747,4.22l-6.856,0.527c-2.11,0-3.692,1.582-4.219,3.692
					c-0.528,5.274-0.528,11.075,0,16.35c0,2.11,2.109,4.22,4.219,3.692l0,0c2.637,0,4.219,0,6.329,0s4.219,0.527,5.274,3.164
					c1.055,4.22,2.109,8.439,3.692,13.187c1.055,2.109,0.527,4.746-1.583,6.329c-2.109,1.582-3.692,3.164-5.274,4.746
					c-1.583,1.055-2.11,3.692-1.055,5.274c2.637,4.747,5.802,8.966,9.494,13.186c1.583,1.582,4.22,2.109,5.802,0.527l5.274-3.692
					c2.11-1.582,4.219-2.109,5.802-0.527c1.582,1.583,7.911,5.802,10.548,7.385c2.11,1.055,3.165,3.691,2.637,5.802
					c-0.527,2.109-1.055,4.219-1.583,6.856c-0.527,2.109,0.528,4.219,2.637,5.273c5.274,2.11,10.549,3.692,15.823,4.747
					c2.11,0.527,4.747-0.527,5.274-2.637l0,0c1.055-2.11,1.583-3.692,2.11-5.802s2.11-4.22,4.747-4.22c4.747,0,8.439,0,12.658,0
					c2.11,0,4.22,1.055,5.274,3.692c1.055,2.109,1.582,4.219,2.637,6.329c0.528,2.109,2.638,3.164,4.747,2.637
					c5.274-1.055,10.549-2.637,15.296-5.274c2.109-1.055,3.164-3.164,2.109-5.273c-0.527-2.11-1.055-3.692-1.582-6.329
					c-0.527-2.638-1.055-4.747,1.582-5.802s7.911-5.802,10.549-7.385c1.582-1.582,4.219-1.582,6.329-0.527
					c2.109,1.583,3.691,2.11,5.802,3.692c1.582,1.055,4.219,1.055,5.802-0.527c3.164-4.22,6.329-8.967,8.438-13.713
					c1.055-2.109,0.527-4.747-1.055-5.802l0,0c-1.583-1.582-3.165-2.637-5.274-3.692c-2.109-1.055-3.165-3.164-2.109-5.801
					c1.055-2.638,3.164-9.494,3.691-12.131c0.527-2.11,2.638-4.22,4.747-4.22l6.856-0.527c2.109,0,3.692-1.582,4.22-3.692
					C514.025,252.11,514.025,246.835,513.498,241.561z M428.055,304.852c-29.536,0-53.27-23.733-53.27-53.27
					s23.734-53.271,53.27-53.271c29.536,0,53.271,23.734,53.271,53.271l0,0C481.325,281.118,457.591,304.852,428.055,304.852
					L428.055,304.852z"/>
			</g>
			<g>
				<path fill="#FFFFFF" d="M389.025,236.287c1.055,1.055,2.109,0,2.637-0.528c0.527-0.527,0.527-1.582,0-2.109
					c0-0.527,0.527-1.055,1.055-1.055c1.055-0.527,2.637-1.582,3.692-2.109c2.11-0.527,4.747-0.527,6.856,0
					c1.583,1.055,3.692,0.527,4.747-1.056c1.055-1.055,2.11-2.109,3.692-2.637c0.527-0.527-1.582-2.637-3.692,0
					s-2.637,2.637-3.692,2.637c-1.055,0-6.329-1.582-6.856-3.164c-0.528-1.582,1.582-3.165,3.692-3.692
					c3.165-0.527,5.802-1.055,8.966-1.055c2.637-0.527,6.329-2.109,8.438-0.527c2.11,1.582-7.911,3.165-4.747,5.274
					c1.055,0.527,6.329-2.638,7.911-3.692c4.22-2.109-3.692-2.637-2.637-6.856c1.055-4.219-9.494-3.164-14.768-2.637
					c-2.637,1.582-5.274,3.691-7.384,5.802c0.527,0,1.583,0.527,1.583,1.055c0,1.055,0,2.109-0.527,3.164
					c-1.583,1.583-3.165,2.11-5.274,2.11c-0.527,0-0.527,0-1.055-0.527c-1.055,1.055-1.583,2.109-2.637,3.164
					c1.055-0.527,2.109-1.055,3.692-1.055c1.055,0,2.637,0.527,2.637,1.055s-2.637,2.11-3.692,2.638
					c-1.583,1.582-4.22,4.746-5.802,4.746c-0.527,0-0.527,0-1.055,0c-0.527,1.056-1.055,2.11-1.055,3.165
					C384.806,235.759,386.916,235.759,389.025,236.287z"/>
			</g>
			<g>
				<path fill="#FFFFFF" d="M466.029,248.946c-1.582,1.055-3.164,1.582-4.747,2.109c-1.582,1.582-2.637,3.691-2.637,5.802
					c0.527,1.582,4.747,6.856,1.582,6.329c-3.164-1.582-5.274-3.692-7.384-6.329c-1.055-2.638-2.109-5.274-2.637-6.856
					c-0.527-1.583-2.11-2.11-3.692-1.583c-0.527,0-0.527,0.528-1.055,0.528c-1.582,1.055,0.527,2.109-0.527,4.746
					c-1.055,2.638-2.109,4.747-3.692,2.638c-4.747-5.274-11.075-2.638-12.131-8.439c-0.527-3.164-3.164-2.637-5.274-4.746
					c-2.109-2.11-3.691-2.638-4.219-1.583c-0.528,1.056,7.384,6.856,7.911,8.439c1.055,2.109-2.109,4.219-4.22,4.746
					c-2.109,0.528-3.164-1.055-5.274-3.691c-2.11-2.638-3.165-3.692-3.165-2.109c0,3.164,1.583,5.801,4.219,7.911
					c2.11,1.055,4.219,1.582,3.165,3.691c-1.055,2.11,0,1.056-2.109,3.165c-2.11,1.055-2.637,3.692-2.637,5.802
					c0,3.164-0.527,3.164-1.055,5.802c-0.527,2.637-1.582,0.527-2.637,3.691c-0.527,2.11-1.583,4.22-2.637,5.802
					c-1.583,1.583-4.219,2.638-6.329,2.11c-2.11,0-2.637-5.802-2.637-8.967c0-1.055-1.582,2.11-2.11-4.219
					c-0.527-3.692-3.165,0.527-3.165-2.11c0-2.637-1.582-2.109-2.637-3.691c-1.055-1.583-3.165,0-4.747,1.055
					c-1.583,1.055-1.055,1.055-3.692,0.527l0,0c5.274,13.186,16.35,22.679,30.063,26.898c-0.527-0.527-1.055-1.582-0.527-2.109
					c2.11-3.165,5.274-5.274,9.494-5.274c7.384-0.527,17.404,4.747,18.987,4.22c1.582-0.527,4.746-5.274,9.493-4.747
					c1.582,0,3.165,0.527,4.22,1.055c1.582-1.055,3.164-2.637,4.747-4.22c-0.527,0-1.056-0.527-1.583-0.527
					c-2.637-1.055-2.109,0.527-3.691,0s1.582-3.164-2.638-1.055c-4.219,2.109-2.637-0.527-4.219-4.747
					c-1.056-4.219,1.055-8.438,4.746-10.021c2.638-1.055,5.802-1.583,8.439-2.11c5.802-1.582,6.856-4.746,7.911-2.637l0.527,1.055
					c0.527,1.055,0.527,2.109,0.527,2.638c1.055-2.11,1.582-4.747,2.11-6.857c-1.583-0.527-6.329-7.384-2.11-12.131
					c0.527-0.527-1.582-3.164-1.055-3.164c1.582,0,3.692,1.055,3.692,2.637c0-2.637-0.527-4.746-1.056-7.384
					c0,0.527,0,1.055,0,1.582c-0.527,1.583-2.637,2.11-4.219,1.583c-0.527,0-1.055-0.527-1.055-1.055
					c-0.527-0.528-2.638-2.638-2.638,0.527C466.029,246.835,468.667,247.363,466.029,248.946z M421.726,267.406
					c-0.527,1.055-2.637,8.966-3.692,7.911c-1.055-1.055,0.527-8.967,1.055-9.494C420.671,262.131,424.891,262.658,421.726,267.406z
					 M441.24,258.439c-1.582,0.527-3.164,0.527-4.219-0.527c-1.056-1.055,0.527-2.637,1.582-2.637S441.768,257.384,441.24,258.439z
					 M460.228,256.329c-0.527-1.055,0.527-1.583,1.583-1.583c1.055,0.528,2.109,1.583,2.109,2.638c0,0.527-2.109,0.527-2.638,0.527
					C460.755,257.911,460.755,257.911,460.228,256.329z M466.557,262.658c-1.582,0.527-3.164,0.527-4.219-0.527
					c-1.056-1.055,1.055-2.638,1.582-2.638C465.502,259.493,467.611,261.604,466.557,262.658L466.557,262.658z"/>
			</g>
			<g>
				<path fill="#FFFFFF" d="M386.916,241.561c2.637,0.527,5.274,1.056,7.912,2.11c2.637,1.055,6.856,3.164,9.494,2.109
					s3.165-2.109,3.165-3.164c0-1.056-1.583-2.11-3.692-1.056c-0.527,0.527-2.109-2.637-3.164-2.637
					c-1.055,0,1.582,3.692,0.527,4.22c-1.055,0.527-2.637-3.692-3.165-4.747c-0.528-1.055-1.583-2.109-3.165-1.055
					c-2.637,2.637-7.384,2.637-7.912,3.164c-0.527,0-0.527,0.527-1.055,0.527c-1.583,0.527-2.637-1.055-2.637-2.637
					c-0.527,2.637-1.055,5.274-1.582,7.911v-0.527c1.582-2.637,1.582-3.164,2.109-3.692c0.527-0.527,1.055-0.527,1.583-0.527
					H386.916z"/>
			</g>
		</g>
	</g>
</g>
</svg>
