<?xml version="1.0" encoding="utf-8"?>
<!-- Generator: Adobe Illustrator 16.0.3, SVG Export Plug-In . SVG Version: 6.00 Build 0)  -->
<!DOCTYPE svg PUBLIC "-//W3C//DTD SVG 1.1//EN" "http://www.w3.org/Graphics/SVG/1.1/DTD/svg11.dtd" [
	<!ENTITY ns_extend "http://ns.adobe.com/Extensibility/1.0/">
	<!ENTITY ns_ai "http://ns.adobe.com/AdobeIllustrator/10.0/">
	<!ENTITY ns_graphs "http://ns.adobe.com/Graphs/1.0/">
	<!ENTITY ns_vars "http://ns.adobe.com/Variables/1.0/">
	<!ENTITY ns_imrep "http://ns.adobe.com/ImageReplacement/1.0/">
	<!ENTITY ns_sfw "http://ns.adobe.com/SaveForWeb/1.0/">
	<!ENTITY ns_custom "http://ns.adobe.com/GenericCustomNamespace/1.0/">
	<!ENTITY ns_adobe_xpath "http://ns.adobe.com/XPath/1.0/">
]>
<svg version="1.1" id="Layer_1" xmlns:x="&ns_extend;" xmlns:i="&ns_ai;" xmlns:graph="&ns_graphs;"
	 xmlns="http://www.w3.org/2000/svg" xmlns:xlink="http://www.w3.org/1999/xlink" x="0px" y="0px" width="270.548px"
	 height="270.548px" viewBox="291.583 68.493 270.548 270.548" enable-background="new 291.583 68.493 270.548 270.548"
	 xml:space="preserve">
<metadata>
	<sfw  xmlns="&ns_sfw;">
		<slices></slices>
		<sliceSourceBounds  width="270.548" height="270.548" y="161.459" x="291.083" bottomLeftOrigin="true"></sliceSourceBounds>
	</sfw>
</metadata>
<title>TARGET 1 B copy 4</title>
<g id="TARGETS">
	<g>
		<rect x="291.583" y="68.493" fill="#26BDE2" width="270.548" height="270.548"/>
	</g>
	<g>
		<g>
			<path fill="#FFFFFF" d="M500.487,277.968l-7.99-6.278c-0.571-0.571-1.713-0.856-2.283,0l0,0l0,0
				c-25.114,29.965-68.493,33.104-99.315,8.562c-0.856-0.856-1.712-1.427-2.568-2.283l9.132-5.708
				c0.856-0.57-0.286-1.427-0.286-1.427l-30.822-15.411c-0.856-0.57-1.142,0-1.142,0.571v0.285l0,0v34.817
				c0,0.285,0.286,1.142,1.142,0.57l0,0l9.989-6.278c1.998,1.998,3.995,3.71,6.278,5.423c36.53,29.109,88.185,25.399,118.15-9.989
				l0.286-0.285C501.344,279.966,501.344,278.824,500.487,277.968C500.772,277.968,500.487,277.968,500.487,277.968z"/>
		</g>
		<g>
			<path fill="#FFFFFF" d="M364.928,133.562l8.562,5.993c0.571,0.57,1.712,0.57,2.283-0.285l0,0l0,0
				c23.402-31.394,66.496-37.101,98.458-14.27c0.856,0.57,1.998,1.427,2.854,2.283l-8.562,6.278
				c-0.856,0.57,0.285,1.427,0.285,1.427l31.393,13.698c0.856,0.571,1.142-0.285,1.142-0.57v-0.285l0,0l-1.998-35.103
				c0-0.286-0.285-1.142-1.142-0.571l0,0l-9.703,6.85c-1.997-1.713-4.28-3.425-6.563-5.138
				c-38.242-27.111-89.612-20.262-117.58,17.124l-0.286,0.285C364.072,131.849,364.072,132.705,364.928,133.562L364.928,133.562z"/>
		</g>
		<g>
			<path fill="#FFFFFF" d="M483.079,272.831L483.079,272.831C482.223,273.973,483.079,272.831,483.079,272.831z"/>
		</g>
		<g>
			<g>
				<polygon fill="#FFFFFF" points="384.62,174.372 384.62,225.456 317.839,225.456 317.839,174.372 315.271,174.372 
					315.271,227.74 387.188,227.74 387.188,174.372 				"/>
			</g>
			<g>
				<path fill="#FFFFFF" d="M321.834,199.487L321.834,199.487c13.128,11.986,26.541,1.997,29.395-0.286l0.285-0.285h0.286h0.285
					l0.286,0.285c2.854,2.283,15.981,11.986,28.824,0.571l0.285-0.285V199.2v-6.278c0-0.285-0.285-0.57-0.571-0.57h-0.285
					l-0.286,0.285c-3.995,2.854-16.838,10.56-28.253-0.285l-0.285-0.285c0,0-0.286-0.286-0.571-0.286s-0.285,0-0.571,0.286
					l-0.286,0.285c-11.415,10.56-23.972,3.425-28.253,0.285l-0.286-0.285h-0.285c-0.286,0-0.571,0.285-0.571,0.57v6.278l0,0l0,0
					C321.549,199.2,321.549,199.487,321.834,199.487z"/>
			</g>
			<g>
				<path fill="#FFFFFF" d="M321.834,214.041L321.834,214.041c13.128,11.986,26.541,1.997,29.395-0.285l0.285-0.286h0.286h0.285
					l0.286,0.286c2.854,2.282,15.981,11.986,28.824,0.57l0.285-0.285c0,0,0-0.285,0-0.571v-6.278c0-0.285-0.285-0.57-0.571-0.57
					h-0.285l-0.286,0.285c-3.995,2.854-16.838,10.56-28.253-0.285l-0.285-0.286c0,0-0.286-0.285-0.571-0.285s-0.285,0-0.571,0.285
					l-0.286,0.286c-11.415,10.559-23.972,3.425-28.253,0.285l-0.286-0.285h-0.285c-0.286,0-0.571,0.285-0.571,0.57v6.278l0,0l0,0
					C321.549,213.756,321.549,214.041,321.834,214.041z"/>
			</g>
			<g>
				<path fill="#FFFFFF" d="M322.69,186.644c0.571,0,1.142-0.285,1.142-0.856l0,0c0-0.57-0.571-0.855-1.142-0.855
					c-0.57,0-0.856,0.285-0.856,0.855C321.834,186.073,322.12,186.644,322.69,186.644z"/>
			</g>
			<g>
				<circle fill="#FFFFFF" cx="327.257" cy="185.502" r="0.856"/>
			</g>
			<g>
				<circle fill="#FFFFFF" cx="331.538" cy="185.502" r="0.856"/>
			</g>
			<g>
				<path fill="#FFFFFF" d="M336.104,186.644c0.571,0,0.856-0.285,1.142-0.856l0,0c0-0.57-0.571-0.855-1.142-0.855
					s-1.142,0.57-1.142,0.855C334.962,186.073,335.533,186.644,336.104,186.644z"/>
			</g>
			<g>
				<path fill="#FFFFFF" d="M340.67,186.644c0.571,0,1.142-0.57,1.142-0.856c0-0.285-0.571-0.855-1.142-0.855
					s-1.142,0.57-1.142,0.855C339.528,186.073,340.099,186.644,340.67,186.644z"/>
			</g>
			<g>
				<circle fill="#FFFFFF" cx="344.951" cy="185.502" r="0.856"/>
			</g>
			<g>
				<path fill="#FFFFFF" d="M349.517,186.644c0.571,0,1.142-0.285,1.142-0.856c0,0,0,0,0-0.285c0-0.57-0.571-0.856-1.142-0.856
					s-1.142,0.571-1.142,0.856C348.661,186.073,348.946,186.644,349.517,186.644L349.517,186.644z"/>
			</g>
			<g>
				<path fill="#FFFFFF" d="M354.083,186.644c0.571,0,1.142-0.57,1.142-0.856c0-0.285-0.571-0.855-1.142-0.855
					s-1.142,0.57-1.142,0.855C352.942,186.073,353.513,186.644,354.083,186.644L354.083,186.644z"/>
			</g>
			<g>
				<path fill="#FFFFFF" d="M358.649,186.644c0.571,0,1.142-0.57,1.142-0.856c0-0.57-0.571-0.855-1.142-0.855
					s-0.856,0.285-0.856,0.855C357.508,186.073,358.079,186.644,358.649,186.644L358.649,186.644z"/>
			</g>
			<g>
				<path fill="#FFFFFF" d="M362.93,186.644c0.571,0,1.142-0.285,1.142-0.856l0,0c-0.285-0.57-0.856-0.855-1.142-0.57
					c-0.285,0-0.571,0.285-0.571,0.57C362.074,186.073,362.359,186.644,362.93,186.644L362.93,186.644z"/>
			</g>
			<g>
				<path fill="#FFFFFF" d="M367.497,186.644c0.571,0,1.142-0.285,1.142-0.856l0,0c0-0.57-0.571-0.855-1.142-0.855
					s-0.856,0.285-0.856,0.855C366.355,186.073,366.926,186.644,367.497,186.644z"/>
			</g>
			<g>
				<circle fill="#FFFFFF" cx="372.063" cy="185.502" r="0.856"/>
			</g>
			<g>
				<path fill="#FFFFFF" d="M376.344,186.644c0.571,0,0.856-0.285,0.856-0.856l0,0c0-0.57-0.571-0.855-0.856-0.855
					c-0.286,0-0.856,0.57-0.856,0.855C375.487,186.073,375.773,186.644,376.344,186.644z"/>
			</g>
			<g>
				<circle fill="#FFFFFF" cx="380.91" cy="185.502" r="0.856"/>
			</g>
			<g>
				<path fill="#FFFFFF" d="M325.259,183.219c0.571,0,0.856-0.57,0.856-1.142c0-0.57-0.285-0.856-0.856-0.856
					s-0.856,0.571-0.856,1.142C324.403,182.649,324.688,182.934,325.259,183.219z"/>
			</g>
			<g>
				<path fill="#FFFFFF" d="M329.54,183.219c0.571,0,0.856-0.57,0.856-1.142c0-0.57-0.285-0.856-0.856-0.856
					s-0.856,0.571-0.856,1.142C328.969,182.649,329.254,182.934,329.54,183.219z"/>
			</g>
			<g>
				<path fill="#FFFFFF" d="M334.106,183.219c0.571,0,1.142-0.57,1.142-1.142c0-0.57-0.571-1.142-1.142-1.142
					s-1.141,0.571-1.141,1.142C332.965,182.649,333.535,183.219,334.106,183.219L334.106,183.219z"/>
			</g>
			<g>
				<path fill="#FFFFFF" d="M338.672,183.219c0.571,0,1.142-0.57,1.142-1.142c0-0.57-0.571-1.142-1.142-1.142
					s-1.142,0.571-1.142,1.142C337.531,182.649,338.102,183.219,338.672,183.219L338.672,183.219z"/>
			</g>
			<g>
				<path fill="#FFFFFF" d="M342.953,183.219c0.571,0,1.142-0.285,1.142-0.856c0-0.57-0.285-1.142-0.856-1.142h-0.286
					c-0.571,0-0.856,0.571-0.856,1.142C342.382,182.649,342.668,182.934,342.953,183.219z"/>
			</g>
			<g>
				<path fill="#FFFFFF" d="M347.52,183.219c0.571,0,0.856-0.57,0.856-1.142c0-0.57-0.285-0.856-0.856-0.856
					s-0.856,0.571-0.856,1.142C346.663,182.649,347.234,182.934,347.52,183.219z"/>
			</g>
			<g>
				<path fill="#FFFFFF" d="M352.085,183.219c0.571,0,0.856-0.57,0.856-1.142c0-0.57-0.286-0.856-0.856-0.856
					s-0.856,0.571-0.856,1.142C351.229,182.649,351.515,182.934,352.085,183.219z"/>
			</g>
			<g>
				<path fill="#FFFFFF" d="M356.366,183.219c0.571,0,0.856-0.57,0.856-1.142c0-0.57-0.286-0.856-0.856-0.856
					c-0.57,0-0.856,0.571-0.856,1.142C355.796,182.649,356.081,182.934,356.366,183.219z"/>
			</g>
			<g>
				<path fill="#FFFFFF" d="M360.933,183.219c0.571,0,1.142-0.57,1.142-0.856c0-0.57-0.571-1.142-0.856-1.142
					c-0.286,0-1.142,0.571-1.142,0.856l0,0C360.077,182.649,360.362,183.219,360.933,183.219z"/>
			</g>
			<g>
				<path fill="#FFFFFF" d="M365.499,183.219c0.571,0,0.856-0.57,0.856-1.142c0-0.57-0.285-0.856-0.856-0.856
					s-0.856,0.571-0.856,1.142C364.643,182.649,364.928,182.934,365.499,183.219z"/>
			</g>
			<g>
				<path fill="#FFFFFF" d="M370.065,183.219c0.571,0,0.856-0.57,0.856-1.142c0-0.57-0.286-0.856-0.856-0.856
					s-0.856,0.571-0.856,1.142C369.209,182.649,369.494,182.934,370.065,183.219z"/>
			</g>
			<g>
				<path fill="#FFFFFF" d="M374.346,183.219c0.571,0,0.856-0.57,0.856-1.142c0-0.57-0.286-0.856-0.856-0.856
					s-0.856,0.571-0.856,1.142C373.775,182.649,374.061,182.934,374.346,183.219z"/>
			</g>
			<g>
				<path fill="#FFFFFF" d="M378.912,183.219c0.571,0,1.142-0.57,1.142-1.142c0-0.57-0.571-1.142-1.142-1.142
					s-1.142,0.571-1.142,1.142C377.771,182.649,378.341,183.219,378.912,183.219L378.912,183.219z"/>
			</g>
			<g>
				<path fill="#FFFFFF" d="M322.976,179.794c0.571,0,1.142-0.57,1.142-0.855c0-0.571-0.571-0.856-1.142-0.856
					s-0.856,0.285-0.856,0.856C321.834,179.224,322.405,179.794,322.976,179.794z"/>
			</g>
			<g>
				<path fill="#FFFFFF" d="M327.542,179.794c0.571,0,1.142-0.57,1.142-0.855c0-0.571-0.285-0.856-0.856-0.856l0,0
					c-0.571,0-0.856,0.57-1.142,0.856C326.401,179.224,326.972,179.794,327.542,179.794z"/>
			</g>
			<g>
				<path fill="#FFFFFF" d="M331.823,179.794c0.571,0,1.142-0.57,1.142-0.855c0-0.571-0.286-0.856-0.856-0.856l0,0
					c-0.571,0-1.142,0.57-1.142,0.856C330.967,179.224,331.252,179.794,331.823,179.794z"/>
			</g>
			<g>
				<path fill="#FFFFFF" d="M336.389,179.794c0.571,0,1.142-0.57,1.142-0.855c0-0.286-0.571-0.856-1.142-1.142
					c-0.571,0-1.142,0.57-1.142,1.142l0,0C335.248,179.224,335.818,179.794,336.389,179.794z"/>
			</g>
			<g>
				<path fill="#FFFFFF" d="M340.956,179.794c0.571,0,1.142-0.57,1.142-0.855c0-0.286-0.571-0.856-1.142-1.142
					c-0.571,0-1.142,0.57-1.142,1.142l0,0C339.814,179.224,340.385,179.794,340.956,179.794z"/>
			</g>
			<g>
				<path fill="#FFFFFF" d="M345.236,179.794c0.571,0,1.142-0.57,1.142-0.855c0-0.286-0.571-0.856-1.142-0.856
					s-0.856,0.285-1.142,0.856l0,0C344.38,179.224,344.666,179.794,345.236,179.794z"/>
			</g>
			<g>
				<path fill="#FFFFFF" d="M349.803,179.794c0.57,0,1.141-0.57,1.141-0.855c0-0.286-0.571-0.856-1.141-0.856
					c-0.571,0-0.856,0.285-1.142,0.856l0,0C348.946,179.224,349.232,179.794,349.803,179.794z"/>
			</g>
			<g>
				<path fill="#FFFFFF" d="M354.369,179.794c0.571,0,1.142-0.57,1.142-0.855c0-0.286-0.571-0.856-1.142-0.856
					s-0.856,0.285-1.142,0.856l0,0C353.227,179.224,353.798,179.794,354.369,179.794z"/>
			</g>
			<g>
				<path fill="#FFFFFF" d="M358.649,179.794c0.571,0,1.142-0.57,1.142-0.855c0-0.571-0.571-0.856-1.142-0.856
					s-0.856,0.285-0.856,0.856C357.793,179.224,358.079,179.794,358.649,179.794z"/>
			</g>
			<g>
				<path fill="#FFFFFF" d="M363.216,179.794c0.571,0,1.142-0.57,1.142-0.855c0-0.571-0.571-0.856-1.142-0.856
					s-0.856,0.285-0.856,0.856C362.359,179.224,362.645,179.794,363.216,179.794z"/>
			</g>
			<g>
				<path fill="#FFFFFF" d="M367.782,179.794c0.57,0,1.141-0.57,1.141-0.855c0-0.571-0.571-0.856-1.141-0.856
					c-0.571,0-0.856,0.285-0.856,0.856C366.926,179.224,367.211,179.794,367.782,179.794z"/>
			</g>
			<g>
				<path fill="#FFFFFF" d="M372.063,179.794c0.571,0,1.141-0.57,1.141-0.855c0-0.571-0.285-0.856-0.856-0.856l0,0
					c-0.571,0-1.142,0.57-1.142,0.856C371.207,179.224,371.492,179.794,372.063,179.794z"/>
			</g>
			<g>
				<path fill="#FFFFFF" d="M376.629,179.794c0.571,0,0.856-0.57,0.856-0.855c0-0.571-0.286-0.856-0.856-0.856l0,0
					c-0.571,0-0.856,0.57-0.856,0.856C375.773,179.224,376.058,179.794,376.629,179.794z"/>
			</g>
			<g>
				<path fill="#FFFFFF" d="M381.195,179.794c0.571,0,0.856-0.57,0.856-1.142l0,0c0-0.57-0.571-0.855-0.856-1.142
					c-0.571,0-1.142,0.571-1.142,1.142l0,0C380.054,179.224,380.339,179.794,381.195,179.794
					C380.91,179.794,381.195,179.794,381.195,179.794z"/>
			</g>
		</g>
		<g>
			<g>
				<g>
					<path fill="#FFFFFF" d="M415.442,174.657c2.854,0,5.422-2.283,5.422-5.422c0-3.14-2.283-5.423-5.422-5.423
						c-2.854,0-5.422,2.283-5.422,5.423l0,0C410.02,172.374,412.588,174.657,415.442,174.657"/>
				</g>
				<g>
					<path fill="#FFFFFF" d="M421.721,176.941h-12.558c-3.71,0.285-6.564,3.425-6.564,7.135v14.84c0,1.142,0.856,1.998,1.998,1.998
						s1.998-0.856,1.998-1.998l0,0v-12.842c0-0.571,0-1.142,1.142-1.142s0.856,0.57,0.856,1.142v38.241
						c0,1.713,1.427,3.14,2.854,3.14s3.139-1.427,3.139-2.854l0,0V202.34c0-0.57,0.286-0.856,0.856-0.856l0,0l0,0
						c0.571,0,0.856,0.286,0.856,0.856l0,0v22.261c0.286,1.712,1.712,2.854,3.425,2.854c1.427,0,2.568-1.142,2.854-2.854v-38.527
						c0-0.286,0-1.142,0.856-1.142s0.856,0.57,0.856,1.142v12.842c0,1.142,1.142,1.998,2.283,1.713c0.855,0,1.712-0.856,1.712-1.713
						v-14.84C428.284,180.365,425.431,177.226,421.721,176.941"/>
				</g>
			</g>
			<g>
				<path fill="#FFFFFF" d="M450.259,174.657c2.854,0,5.423-2.568,5.138-5.422c0-2.854-2.569-5.423-5.423-5.138
					c-2.854,0-5.137,2.568-5.137,5.423C444.837,172.374,447.12,174.657,450.259,174.657L450.259,174.657z"/>
			</g>
			<g>
				<path fill="#FFFFFF" d="M461.104,181.507c0,0-1.712-4.281-5.137-4.281h-11.415c-3.425,0-5.138,4.281-5.138,4.281l-4.565,14.555
					c0,0-0.856,2.568,1.427,3.425c2.283,0.855,2.854-1.998,2.854-1.998l3.71-11.986c0,0,0.285-0.856,0.856-0.856
					c0.57,0,0.57,1.142,0.57,1.142l-6.278,22.831h5.708v16.268c0,1.712,1.142,2.854,2.854,2.854c1.713,0,2.854-1.142,2.854-2.854
					v-16.553h1.712v16.268c0,1.712,1.142,2.854,2.854,2.854c1.713,0,2.854-1.142,2.854-2.854v-16.268h5.708l-6.279-22.831
					c0,0-0.285-0.856,0.571-1.142s0.856,0.856,0.856,0.856l3.71,12.271c0,0,0.57,2.568,2.854,1.998
					c2.283-0.571,1.427-3.425,1.427-3.425L461.104,181.507z"/>
			</g>
		</g>
		<g>
			<path fill="#FFFFFF" d="M538.444,171.518c0-0.285-0.285-0.285-0.571-0.285h-55.365c-0.285,0-0.285,0-0.57,0.285
				c0,0.286,0,0.286,0,0.571l9.132,56.222c0,0.285,0.286,0.57,0.571,0.57h12.271l0.57,8.276h-3.71c-0.285,0-0.57,0.285-0.57,0.571
				v0.285l0,0l9.133,11.7l0,0c0,0,0.285,0.286,0.57,0.286s0.285,0,0.285-0.286l0,0l0,0l8.848-11.7l0,0l0,0v-0.285
				c0-0.286-0.286-0.571-0.571-0.571h-3.14l0.571-8.276h12.557c0.286,0,0.571-0.285,0.571-0.57l8.847-56.507
				C538.729,171.804,538.444,171.518,538.444,171.518z M517.04,216.61c-3.995,3.14-9.418,3.14-13.128,0
				c-3.14-3.14-3.71-8.276-1.142-11.986c0.856-1.712,7.42-11.13,7.705-11.986l0,0l0,0l0,0c0.571,0.856,6.85,10.56,7.706,11.986
				C520.465,208.333,520.179,213.185,517.04,216.61z M534.448,183.219c-1.712-0.57-3.71-0.57-5.137,0.285
				c-6.85,2.854-11.415,3.71-18.836,1.428c-4.565-1.428-8.847-4.281-13.983-2.569c-3.14,1.428-6.85,2.283-10.274,2.283l-2.283-11.13
				h52.227L534.448,183.219z"/>
		</g>
	</g>
</g>
</svg>
