<?xml version="1.0" encoding="utf-8"?>
<!-- Generator: Adobe Illustrator 16.0.3, SVG Export Plug-In . SVG Version: 6.00 Build 0)  -->
<!DOCTYPE svg PUBLIC "-//W3C//DTD SVG 1.1//EN" "http://www.w3.org/Graphics/SVG/1.1/DTD/svg11.dtd">
<svg version="1.1" id="Ebene_1" xmlns="http://www.w3.org/2000/svg" xmlns:xlink="http://www.w3.org/1999/xlink" x="0px" y="0px"
	 width="120px" height="120px" viewBox="0 0 120 120" enable-background="new 0 0 120 120" xml:space="preserve">
<path fill="#993366" d="M104.948,119.965H15.052C6.763,119.965,0,113.201,0,104.913V15.017C0,6.728,6.763-0.035,15.052-0.035h89.896
	c8.288,0,15.052,6.763,15.052,15.052v89.896C120,113.201,113.236,119.965,104.948,119.965z"/>
<g transform="translate(-1.5419 -.02052)" opacity="0.6">
	<circle fill="#FFFFFF" cx="96.659" cy="34.086" r="4.011"/>
	<rect x="95.108" y="36.666" fill="#FFFFFF" width="3.101" height="20.155"/>
	<g transform="matrix(.92875 0 0 1.0003 41.286 -.061302)">
		<g transform="matrix(.75197 0 0 .75197 433.71 -157.14)">
			<path fill="#FFFFFF" d="M-501.384,275.552h1.338c0.996,0,1.804,0.807,1.804,1.803v30.369c0,0.996-0.808,1.803-1.804,1.803h-1.338
				c-0.996,0-1.802-0.808-1.802-1.803v-30.369C-503.186,276.359-502.38,275.552-501.384,275.552z"/>
			<path fill="#FFFFFF" d="M-494.918,275.552h1.338c0.996,0,1.804,0.807,1.804,1.803v30.369c0,0.996-0.808,1.803-1.804,1.803h-1.338
				c-0.994,0-1.802-0.808-1.802-1.803v-30.369C-496.721,276.359-495.912,275.552-494.918,275.552z"/>
		</g>
		<path fill="#FFFFFF" d="M55.179,39.643h8.886c1.607,0,2.909,1.302,2.909,2.91v0.799c0,1.606-1.303,2.909-2.909,2.909h-8.886
			c-1.607,0-2.909-1.303-2.909-2.909v-0.799C52.269,40.945,53.572,39.643,55.179,39.643z"/>
		<g transform="matrix(.75197 0 0 .75197 432.46 -158.64)">
			<path fill="#FFFFFF" d="M-488.904,265.064L-488.904,265.064c1.156-0.362,2.39,0.284,2.75,1.441l4.338,13.859
				c0.361,1.158-0.284,2.39-1.442,2.752l0,0c-1.156,0.362-2.39-0.283-2.752-1.441l-4.335-13.859
				C-490.707,266.659-490.062,265.427-488.904,265.064z"/>
			<path fill="#FFFFFF" d="M-502.731,265.064L-502.731,265.064c-1.158-0.362-2.39,0.282-2.752,1.44l-4.336,13.86
				c-0.361,1.157,0.284,2.389,1.44,2.752l0,0c1.158,0.362,2.391-0.283,2.753-1.44l4.336-13.86
				C-500.928,266.659-501.574,265.427-502.731,265.064z"/>
		</g>
		<path fill="#FFFFFF" d="M56.606,42.439h6.026l5.661,19.256H50.944L56.606,42.439z"/>
	</g>
	<path fill="#FFFFFF" d="M99.628,31.885c-0.418,0.031-0.486-0.167,0.135-0.507c1.506-0.824,3.461,3.257,3.461,3.257
		s-0.322-0.051-0.561-0.019c-0.293,0.041-0.827,0.682-0.827,0.682S101.088,31.776,99.628,31.885L99.628,31.885z"/>
	<path fill="#FFFFFF" d="M93.489,31.971c0.417,0.031,0.686-0.253,0.064-0.593c-1.507-0.824-3.462,3.257-3.462,3.257
		s0.322-0.051,0.562-0.019c0.291,0.041,0.943,0.682,0.943,0.682s0.297-3.591,1.758-3.483L93.489,31.971z"/>
</g>
<g>
	<path opacity="0.6" fill="#FFFFFF" d="M31.46,18.757c4.412,0,7.239,3.82,7.239,7.592v17.656c0.041,3.45-4.928,3.45-4.944,0V27.762
		H32.52v44.847c0.076,4.682-6.54,4.548-6.533,0V46.478h-1.059v26.131c-0.088,4.548-6.738,4.682-6.71,0V27.762h-1.235v16.243
		c0.058,3.477-4.885,3.477-4.944,0V26.35c0.073-3.772,3.006-7.525,7.419-7.593h12.006L31.46,18.757z"/>
	<circle opacity="0.6" fill="#FFFFFF" cx="25.367" cy="11.43" r="5.738"/>
</g>
<g opacity="0.6">
	<path fill="#FEFEFF" d="M62.297,18.194c-1.274,0-2.571,0.18-3.853,0.556c-4.059,1.188-7.158,4.104-8.714,7.702l3.056,1.323
		c1.185-2.732,3.516-4.927,6.594-5.83c0.976-0.286,1.955-0.421,2.917-0.421c0.001,0,0.002,0,0.003,0c2.234,0,4.388,0.732,6.146,2.03
		c1.325,0.979,2.423,2.271,3.167,3.816l1.915,0.119l1.347-0.986c-0.979-2.297-2.541-4.219-4.451-5.628
		C68.103,19.162,65.262,18.194,62.297,18.194"/>
	<path fill="#FEFEFF" d="M78.962,23.51l-4.087,2.993l-1.347,0.986l-1.915-0.119l-4.805-0.299c3.252,2.078,6.867,5.907,9.275,9.142
		C76.368,32.189,77.347,27.014,78.962,23.51"/>
	<path fill="#FEFEFF" d="M51.693,51.294l-1.509,0.713c0.618,2.87,2.125,5.382,4.191,7.25c2.441,2.21,5.68,3.54,9.169,3.54l0,0
		c0.431,0,0.865-0.02,1.302-0.061c4.21-0.398,7.807-2.672,10.017-5.91l-2.749-1.878c-1.682,2.458-4.388,4.172-7.581,4.474
		c-0.332,0.031-0.662,0.047-0.988,0.047c-2.639,0-5.081-1.003-6.936-2.68c-1.453-1.317-2.536-3.038-3.058-5.014L51.693,51.294"/>
	<path fill="#FEFEFF" d="M50.838,42.244c-1.041,3.896-2.982,8.792-5.233,11.926l4.58-2.164l1.509-0.713l1.858,0.48l4.661,1.205
		C55.414,50.322,52.59,45.876,50.838,42.244"/>
</g>
<g>
	<rect x="0.039" y="82.857" fill="none" width="119.923" height="32.5"/>
	<path fill="#FFFFFF" d="M25.443,92.736h-4.221v-1.117l1.13-0.52v-6.006l-1.13-0.52v-1.117h4.221v1.117l-1.13,0.52V91.1l1.13,0.52
		V92.736z"/>
	<path fill="#FFFFFF" d="M33.035,92.736h-1.936v-4.145c0-0.512-0.077-0.896-0.232-1.152c-0.154-0.256-0.401-0.384-0.739-0.384
		c-0.254,0-0.465,0.051-0.635,0.152s-0.304,0.252-0.403,0.45c-0.099,0.199-0.17,0.445-0.212,0.736
		c-0.042,0.293-0.063,0.627-0.063,1.004v3.338h-1.936v-7.096h1.479l0.26,0.907h0.108c0.102-0.183,0.225-0.339,0.372-0.47
		c0.146-0.131,0.306-0.239,0.479-0.324c0.173-0.084,0.357-0.146,0.552-0.188c0.195-0.039,0.394-0.06,0.597-0.06
		c0.347,0,0.662,0.05,0.946,0.149s0.527,0.255,0.73,0.467c0.203,0.211,0.36,0.48,0.47,0.809s0.165,0.721,0.165,1.178V92.736z"/>
	<path fill="#FFFFFF" d="M37.91,91.321c0.19,0,0.371-0.021,0.543-0.063c0.171-0.043,0.346-0.096,0.523-0.158v1.44
		c-0.182,0.093-0.407,0.171-0.676,0.231c-0.269,0.062-0.562,0.092-0.879,0.092c-0.309,0-0.597-0.035-0.863-0.107
		s-0.497-0.197-0.692-0.377c-0.195-0.181-0.348-0.422-0.46-0.725c-0.112-0.303-0.168-0.682-0.168-1.139v-3.422h-0.927v-0.818
		l1.066-0.648l0.559-1.498h1.238v1.512H38.9v1.453h-1.727v3.422c0,0.274,0.068,0.478,0.203,0.609
		C37.512,91.256,37.69,91.321,37.91,91.321z"/>
	<path fill="#FFFFFF" d="M43.528,92.863c-0.508,0-0.976-0.074-1.403-0.222s-0.795-0.372-1.104-0.669
		c-0.309-0.299-0.549-0.676-0.721-1.131c-0.171-0.455-0.257-0.988-0.257-1.603c0-0.622,0.078-1.166,0.235-1.632
		c0.157-0.465,0.375-0.854,0.657-1.164c0.282-0.311,0.62-0.545,1.016-0.701c0.396-0.157,0.835-0.235,1.317-0.235
		c0.47,0,0.894,0.071,1.272,0.212c0.379,0.143,0.701,0.352,0.965,0.626c0.265,0.274,0.468,0.612,0.609,1.013
		c0.142,0.4,0.213,0.857,0.213,1.374v0.939h-4.329c0.008,0.271,0.052,0.515,0.13,0.733c0.079,0.218,0.188,0.402,0.33,0.553
		c0.142,0.149,0.313,0.265,0.515,0.346c0.201,0.08,0.43,0.12,0.688,0.12c0.216,0,0.42-0.012,0.612-0.034
		c0.193-0.023,0.38-0.059,0.562-0.105s0.362-0.105,0.54-0.174c0.178-0.07,0.36-0.152,0.546-0.245v1.498
		c-0.169,0.089-0.34,0.164-0.511,0.226c-0.172,0.061-0.353,0.113-0.543,0.155s-0.396,0.073-0.616,0.093
		C44.031,92.854,43.79,92.863,43.528,92.863z M43.28,86.885c-0.343,0-0.627,0.12-0.854,0.361c-0.227,0.241-0.357,0.62-0.391,1.137
		h2.469c-0.004-0.217-0.032-0.415-0.083-0.598c-0.051-0.182-0.127-0.34-0.229-0.473s-0.229-0.238-0.381-0.314
		S43.483,86.885,43.28,86.885z"/>
	<path fill="#FFFFFF" d="M51.666,85.507c0.051,0,0.107,0.001,0.168,0.003c0.061,0.002,0.12,0.006,0.178,0.014
		c0.057,0.006,0.11,0.012,0.158,0.018c0.049,0.008,0.086,0.015,0.111,0.023v1.814c-0.034-0.008-0.081-0.017-0.14-0.025
		c-0.059-0.008-0.122-0.016-0.188-0.021c-0.065-0.006-0.13-0.011-0.193-0.014c-0.063-0.002-0.116-0.002-0.159-0.002
		c-0.25,0-0.479,0.031-0.689,0.095c-0.209,0.063-0.389,0.166-0.539,0.308c-0.15,0.143-0.267,0.328-0.35,0.559
		c-0.082,0.23-0.124,0.514-0.124,0.848v3.611h-1.936v-7.096h1.466l0.286,1.066h0.095c0.102-0.183,0.211-0.348,0.33-0.496
		c0.119-0.147,0.25-0.273,0.397-0.377c0.146-0.104,0.311-0.184,0.495-0.242C51.218,85.535,51.429,85.507,51.666,85.507z"/>
	<path fill="#FFFFFF" d="M56.725,92.863c-0.508,0-0.976-0.074-1.403-0.222s-0.795-0.372-1.104-0.669
		c-0.309-0.299-0.549-0.676-0.721-1.131c-0.171-0.455-0.257-0.988-0.257-1.603c0-0.622,0.078-1.166,0.235-1.632
		c0.157-0.465,0.375-0.854,0.657-1.164c0.282-0.311,0.62-0.545,1.016-0.701c0.396-0.157,0.835-0.235,1.317-0.235
		c0.47,0,0.894,0.071,1.272,0.212c0.379,0.143,0.701,0.352,0.965,0.626c0.265,0.274,0.468,0.612,0.609,1.013
		c0.142,0.4,0.213,0.857,0.213,1.374v0.939h-4.329c0.008,0.271,0.052,0.515,0.13,0.733c0.079,0.218,0.188,0.402,0.33,0.553
		c0.142,0.149,0.313,0.265,0.515,0.346c0.201,0.08,0.43,0.12,0.688,0.12c0.216,0,0.42-0.012,0.612-0.034
		c0.193-0.023,0.38-0.059,0.562-0.105s0.362-0.105,0.54-0.174c0.178-0.07,0.36-0.152,0.546-0.245v1.498
		c-0.169,0.089-0.34,0.164-0.511,0.226c-0.172,0.061-0.353,0.113-0.543,0.155s-0.396,0.073-0.616,0.093
		C57.228,92.854,56.987,92.863,56.725,92.863z M56.477,86.885c-0.343,0-0.627,0.12-0.854,0.361c-0.227,0.241-0.357,0.62-0.391,1.137
		h2.469c-0.004-0.217-0.032-0.415-0.083-0.598c-0.051-0.182-0.127-0.34-0.229-0.473s-0.229-0.238-0.381-0.314
		S56.68,86.885,56.477,86.885z"/>
	<path fill="#FFFFFF" d="M65.891,90.629c0,0.373-0.068,0.699-0.203,0.979s-0.328,0.512-0.578,0.697
		c-0.249,0.187-0.552,0.326-0.907,0.42c-0.355,0.093-0.753,0.139-1.193,0.139c-0.233,0-0.448-0.007-0.647-0.021
		c-0.199-0.016-0.387-0.039-0.564-0.073s-0.35-0.076-0.515-0.127s-0.332-0.114-0.501-0.19v-1.6c0.178,0.089,0.366,0.17,0.561,0.241
		c0.197,0.071,0.393,0.134,0.588,0.187c0.195,0.054,0.385,0.095,0.568,0.125c0.184,0.029,0.354,0.044,0.511,0.044
		c0.173,0,0.321-0.017,0.444-0.048s0.223-0.076,0.301-0.133c0.079-0.057,0.137-0.125,0.172-0.203
		c0.036-0.078,0.055-0.162,0.055-0.251s-0.014-0.169-0.041-0.237c-0.028-0.07-0.091-0.145-0.188-0.223
		c-0.098-0.078-0.24-0.168-0.43-0.268c-0.188-0.099-0.44-0.221-0.758-0.364c-0.309-0.14-0.576-0.278-0.803-0.415
		c-0.227-0.139-0.412-0.291-0.559-0.461s-0.255-0.363-0.327-0.58c-0.072-0.219-0.108-0.479-0.108-0.778
		c0-0.33,0.063-0.618,0.19-0.866c0.127-0.248,0.307-0.454,0.54-0.619s0.514-0.289,0.842-0.371c0.327-0.082,0.692-0.124,1.094-0.124
		c0.424,0,0.826,0.049,1.207,0.146c0.381,0.098,0.771,0.244,1.174,0.438l-0.584,1.371c-0.322-0.152-0.629-0.277-0.92-0.374
		c-0.293-0.098-0.584-0.146-0.877-0.146c-0.262,0-0.451,0.047-0.568,0.14c-0.115,0.093-0.174,0.22-0.174,0.381
		c0,0.085,0.015,0.159,0.045,0.226c0.029,0.065,0.088,0.133,0.178,0.203c0.088,0.07,0.213,0.146,0.374,0.229s0.37,0.183,0.628,0.301
		c0.301,0.132,0.572,0.262,0.813,0.391c0.242,0.129,0.449,0.276,0.623,0.441c0.173,0.165,0.307,0.357,0.399,0.578
		C65.844,90.05,65.891,90.316,65.891,90.629z"/>
	<path fill="#FFFFFF" d="M72.143,90.629c0,0.373-0.067,0.699-0.203,0.979c-0.135,0.279-0.328,0.512-0.577,0.697
		c-0.249,0.187-0.552,0.326-0.907,0.42c-0.355,0.093-0.754,0.139-1.193,0.139c-0.233,0-0.449-0.007-0.648-0.021
		c-0.198-0.016-0.387-0.039-0.564-0.073s-0.35-0.076-0.514-0.127c-0.166-0.051-0.332-0.114-0.502-0.19v-1.6
		c0.178,0.089,0.365,0.17,0.562,0.241c0.197,0.071,0.393,0.134,0.587,0.187c0.195,0.054,0.385,0.095,0.568,0.125
		c0.185,0.029,0.354,0.044,0.512,0.044c0.173,0,0.321-0.017,0.443-0.048c0.123-0.031,0.224-0.076,0.302-0.133
		c0.079-0.057,0.136-0.125,0.172-0.203s0.054-0.162,0.054-0.251s-0.014-0.169-0.041-0.237c-0.027-0.07-0.09-0.145-0.188-0.223
		s-0.24-0.168-0.429-0.268c-0.188-0.099-0.44-0.221-0.759-0.364c-0.309-0.14-0.576-0.278-0.803-0.415
		c-0.227-0.139-0.412-0.291-0.559-0.461c-0.146-0.17-0.255-0.363-0.326-0.58c-0.072-0.219-0.108-0.479-0.108-0.778
		c0-0.33,0.063-0.618,0.19-0.866s0.307-0.454,0.539-0.619c0.233-0.165,0.514-0.289,0.842-0.371s0.693-0.124,1.095-0.124
		c0.423,0,0.825,0.049,1.206,0.146c0.381,0.098,0.772,0.244,1.174,0.438l-0.584,1.371c-0.321-0.152-0.628-0.277-0.92-0.374
		c-0.292-0.098-0.584-0.146-0.876-0.146c-0.263,0-0.452,0.047-0.568,0.14s-0.175,0.22-0.175,0.381c0,0.085,0.016,0.159,0.045,0.226
		c0.029,0.065,0.089,0.133,0.178,0.203s0.214,0.146,0.375,0.229c0.16,0.082,0.369,0.183,0.628,0.301
		c0.3,0.132,0.571,0.262,0.813,0.391s0.448,0.276,0.622,0.441s0.307,0.357,0.4,0.578C72.097,90.05,72.143,90.316,72.143,90.629z"/>
	<path fill="#FFFFFF" d="M76.783,92.863c-0.508,0-0.976-0.074-1.402-0.222c-0.428-0.147-0.796-0.372-1.105-0.669
		c-0.309-0.299-0.549-0.676-0.721-1.131c-0.17-0.455-0.256-0.988-0.256-1.603c0-0.622,0.078-1.166,0.234-1.632
		c0.156-0.465,0.375-0.854,0.656-1.164c0.282-0.311,0.621-0.545,1.016-0.701c0.396-0.157,0.836-0.235,1.318-0.235
		c0.469,0,0.894,0.071,1.271,0.212c0.379,0.143,0.701,0.352,0.965,0.626c0.266,0.274,0.469,0.612,0.609,1.013
		c0.143,0.4,0.213,0.857,0.213,1.374v0.939h-4.328c0.008,0.271,0.051,0.515,0.129,0.733c0.079,0.218,0.189,0.402,0.33,0.553
		c0.143,0.149,0.314,0.265,0.516,0.346c0.2,0.08,0.43,0.12,0.688,0.12c0.217,0,0.42-0.012,0.613-0.034
		c0.192-0.023,0.379-0.059,0.562-0.105s0.362-0.105,0.54-0.174c0.178-0.07,0.359-0.152,0.545-0.245v1.498
		c-0.169,0.089-0.34,0.164-0.51,0.226c-0.172,0.061-0.354,0.113-0.543,0.155c-0.191,0.042-0.396,0.073-0.616,0.093
		C77.287,92.854,77.045,92.863,76.783,92.863z M76.535,86.885c-0.342,0-0.627,0.12-0.854,0.361s-0.356,0.62-0.391,1.137h2.47
		c-0.005-0.217-0.032-0.415-0.083-0.598c-0.051-0.182-0.127-0.34-0.229-0.473s-0.229-0.238-0.381-0.314S76.738,86.885,76.535,86.885
		z"/>
	<path fill="#FFFFFF" d="M88.717,92.736l-0.375-0.965h-0.057c-0.14,0.191-0.279,0.355-0.419,0.492
		c-0.14,0.138-0.292,0.251-0.457,0.34s-0.351,0.154-0.556,0.197c-0.205,0.042-0.443,0.063-0.714,0.063
		c-0.288,0-0.554-0.045-0.8-0.137c-0.246-0.09-0.458-0.229-0.639-0.412c-0.18-0.184-0.32-0.416-0.422-0.697
		c-0.102-0.282-0.152-0.615-0.152-1c0-0.754,0.242-1.309,0.725-1.666c0.482-0.358,1.203-0.557,2.164-0.594l1.13-0.039v-0.533
		c0-0.291-0.085-0.508-0.254-0.646c-0.169-0.141-0.406-0.21-0.711-0.21s-0.603,0.044-0.892,0.134
		c-0.29,0.088-0.581,0.207-0.873,0.355l-0.629-1.283c0.355-0.198,0.75-0.355,1.182-0.469c0.432-0.115,0.884-0.172,1.357-0.172
		c0.885,0,1.563,0.207,2.035,0.622c0.472,0.415,0.707,1.046,0.707,1.892v4.729H88.717z M88.146,89.449l-0.642,0.025
		c-0.258,0.008-0.476,0.042-0.653,0.102c-0.178,0.059-0.321,0.139-0.429,0.238c-0.107,0.099-0.186,0.217-0.234,0.355
		c-0.049,0.137-0.073,0.29-0.073,0.459c0,0.297,0.071,0.508,0.216,0.633c0.145,0.124,0.332,0.187,0.564,0.187
		c0.178,0,0.344-0.03,0.496-0.093c0.152-0.061,0.284-0.152,0.396-0.271c0.111-0.121,0.199-0.27,0.264-0.445
		c0.063-0.176,0.095-0.377,0.095-0.605V89.449z"/>
	<path fill="#FFFFFF" d="M98.219,92.736h-1.936v-4.145c0-0.512-0.077-0.896-0.232-1.152c-0.154-0.256-0.4-0.384-0.738-0.384
		c-0.254,0-0.466,0.051-0.635,0.152c-0.17,0.102-0.305,0.252-0.404,0.45c-0.099,0.199-0.17,0.445-0.212,0.736
		c-0.042,0.293-0.063,0.627-0.063,1.004v3.338h-1.936v-7.096h1.479l0.26,0.907h0.108c0.102-0.183,0.226-0.339,0.372-0.47
		c0.145-0.131,0.305-0.239,0.479-0.324c0.174-0.084,0.357-0.146,0.553-0.188c0.194-0.039,0.393-0.06,0.596-0.06
		c0.348,0,0.662,0.05,0.946,0.149s0.526,0.255,0.729,0.467c0.203,0.211,0.36,0.48,0.471,0.809c0.109,0.328,0.164,0.721,0.164,1.178
		V92.736z"/>
	<path fill="#FFFFFF" d="M8.943,108.736H6.981v-7.643h-2.33v-1.637h6.614v1.637H8.943V108.736z"/>
	<path fill="#FFFFFF" d="M18.699,108.736h-1.936v-4.145c0-0.512-0.08-0.896-0.238-1.152c-0.159-0.256-0.403-0.384-0.733-0.384
		c-0.25,0-0.459,0.051-0.628,0.152s-0.305,0.252-0.406,0.45c-0.102,0.199-0.173,0.445-0.216,0.736
		c-0.042,0.293-0.063,0.627-0.063,1.004v3.338h-1.936v-9.877h1.936v2.013c0,0.178-0.004,0.364-0.013,0.562s-0.019,0.378-0.032,0.543
		c-0.017,0.195-0.032,0.385-0.044,0.571h0.102c0.208-0.368,0.472-0.634,0.793-0.796c0.322-0.164,0.686-0.245,1.092-0.245
		c0.351,0,0.67,0.05,0.955,0.149c0.286,0.1,0.53,0.255,0.733,0.467c0.203,0.211,0.36,0.48,0.47,0.809s0.165,0.721,0.165,1.178
		V108.736z"/>
	<path fill="#FFFFFF" d="M23.809,108.863c-0.508,0-0.976-0.074-1.403-0.222s-0.795-0.372-1.104-0.669
		c-0.309-0.299-0.549-0.676-0.721-1.131c-0.171-0.455-0.257-0.988-0.257-1.603c0-0.622,0.078-1.166,0.235-1.632
		c0.157-0.465,0.375-0.854,0.657-1.164c0.282-0.311,0.62-0.545,1.016-0.701c0.396-0.157,0.835-0.235,1.317-0.235
		c0.47,0,0.894,0.071,1.272,0.212c0.379,0.143,0.701,0.352,0.965,0.626c0.265,0.274,0.468,0.612,0.609,1.013
		c0.142,0.4,0.213,0.857,0.213,1.374v0.939h-4.329c0.008,0.271,0.052,0.515,0.13,0.733c0.079,0.218,0.188,0.402,0.33,0.553
		c0.142,0.149,0.313,0.265,0.515,0.346c0.201,0.08,0.43,0.12,0.688,0.12c0.216,0,0.42-0.012,0.612-0.034
		c0.193-0.023,0.38-0.059,0.562-0.105s0.362-0.105,0.54-0.174c0.178-0.07,0.36-0.152,0.546-0.245v1.498
		c-0.169,0.089-0.34,0.164-0.511,0.226c-0.172,0.061-0.353,0.113-0.543,0.155s-0.396,0.073-0.616,0.093
		C24.312,108.854,24.071,108.863,23.809,108.863z M23.562,102.885c-0.343,0-0.627,0.12-0.854,0.361
		c-0.227,0.241-0.357,0.62-0.391,1.137h2.469c-0.004-0.217-0.032-0.415-0.083-0.598c-0.051-0.182-0.127-0.34-0.229-0.473
		s-0.229-0.238-0.381-0.314S23.765,102.885,23.562,102.885z"/>
	<path fill="#FFFFFF" d="M34.34,108.736h-1.936v-4.145c0-0.512-0.076-0.896-0.229-1.152s-0.392-0.384-0.717-0.384
		c-0.246,0-0.45,0.051-0.612,0.152c-0.163,0.102-0.293,0.252-0.391,0.45c-0.097,0.199-0.167,0.445-0.209,0.736
		c-0.042,0.293-0.063,0.627-0.063,1.004v3.338h-1.936v-7.096h1.479l0.26,0.907h0.108c0.102-0.183,0.223-0.339,0.365-0.47
		c0.142-0.131,0.297-0.239,0.467-0.324c0.169-0.084,0.349-0.146,0.54-0.188c0.19-0.039,0.383-0.06,0.578-0.06
		c0.487,0,0.9,0.083,1.241,0.251c0.34,0.167,0.602,0.43,0.784,0.79h0.159c0.102-0.183,0.224-0.339,0.368-0.47
		s0.303-0.239,0.476-0.324c0.173-0.084,0.356-0.146,0.549-0.188c0.192-0.039,0.386-0.06,0.581-0.06c0.762,0,1.336,0.206,1.723,0.618
		c0.388,0.414,0.581,1.074,0.581,1.984v4.627h-1.942v-4.145c0-0.512-0.076-0.896-0.229-1.152s-0.392-0.384-0.717-0.384
		c-0.461,0-0.789,0.183-0.984,0.55c-0.195,0.365-0.292,0.889-0.292,1.57V108.736z"/>
	<path fill="#FFFFFF" d="M43.607,108.863c-0.508,0-0.976-0.074-1.403-0.222s-0.795-0.372-1.104-0.669
		c-0.309-0.299-0.549-0.676-0.721-1.131c-0.171-0.455-0.257-0.988-0.257-1.603c0-0.622,0.078-1.166,0.235-1.632
		c0.157-0.465,0.375-0.854,0.657-1.164c0.282-0.311,0.62-0.545,1.016-0.701c0.396-0.157,0.835-0.235,1.317-0.235
		c0.47,0,0.894,0.071,1.272,0.212c0.379,0.143,0.701,0.352,0.965,0.626c0.265,0.274,0.468,0.612,0.609,1.013
		c0.142,0.4,0.213,0.857,0.213,1.374v0.939h-4.329c0.008,0.271,0.052,0.515,0.13,0.733c0.079,0.218,0.188,0.402,0.33,0.553
		c0.142,0.149,0.313,0.265,0.515,0.346c0.201,0.08,0.43,0.12,0.688,0.12c0.216,0,0.42-0.012,0.612-0.034
		c0.193-0.023,0.38-0.059,0.562-0.105s0.362-0.105,0.54-0.174c0.178-0.07,0.36-0.152,0.546-0.245v1.498
		c-0.169,0.089-0.34,0.164-0.511,0.226c-0.172,0.061-0.353,0.113-0.543,0.155s-0.396,0.073-0.616,0.093
		C44.111,108.854,43.87,108.863,43.607,108.863z M43.36,102.885c-0.343,0-0.627,0.12-0.854,0.361
		c-0.227,0.241-0.357,0.62-0.391,1.137h2.469c-0.004-0.217-0.032-0.415-0.083-0.598c-0.051-0.182-0.127-0.34-0.229-0.473
		s-0.229-0.238-0.381-0.314S43.563,102.885,43.36,102.885z"/>
	<path fill="#FFFFFF" d="M54.202,108.736h-1.936v-4.145c0-0.512-0.077-0.896-0.232-1.152c-0.154-0.256-0.401-0.384-0.739-0.384
		c-0.254,0-0.465,0.051-0.635,0.152s-0.304,0.252-0.403,0.45c-0.099,0.199-0.17,0.445-0.212,0.736
		c-0.042,0.293-0.063,0.627-0.063,1.004v3.338h-1.936v-7.096h1.479l0.26,0.907h0.108c0.102-0.183,0.225-0.339,0.372-0.47
		c0.146-0.131,0.306-0.239,0.479-0.324c0.173-0.084,0.357-0.146,0.552-0.188c0.195-0.039,0.394-0.06,0.597-0.06
		c0.347,0,0.662,0.05,0.946,0.149s0.527,0.255,0.73,0.467c0.203,0.211,0.36,0.48,0.47,0.809s0.165,0.721,0.165,1.178V108.736z"/>
	<path fill="#FFFFFF" d="M61.66,108.863c-0.363,0-0.696-0.078-0.997-0.234s-0.559-0.389-0.774-0.695s-0.384-0.688-0.505-1.146
		c-0.12-0.457-0.181-0.985-0.181-1.587c0-0.609,0.061-1.144,0.181-1.604c0.121-0.459,0.292-0.844,0.515-1.154
		c0.222-0.311,0.487-0.545,0.796-0.701c0.309-0.157,0.649-0.235,1.021-0.235c0.229,0,0.438,0.026,0.629,0.079
		s0.361,0.127,0.514,0.223s0.289,0.205,0.41,0.33s0.227,0.262,0.32,0.409h0.063c-0.025-0.165-0.049-0.332-0.069-0.501
		c-0.021-0.145-0.039-0.298-0.055-0.461c-0.015-0.162-0.021-0.314-0.021-0.453v-2.273h1.936v9.877h-1.479l-0.375-0.92h-0.082
		c-0.09,0.145-0.191,0.28-0.305,0.41c-0.115,0.129-0.247,0.239-0.396,0.332c-0.15,0.094-0.32,0.168-0.508,0.223
		C62.109,108.836,61.896,108.863,61.66,108.863z M62.365,107.321c0.229,0,0.423-0.039,0.584-0.118
		c0.16-0.078,0.291-0.195,0.391-0.355c0.099-0.158,0.173-0.355,0.221-0.593c0.049-0.237,0.076-0.515,0.08-0.831v-0.21
		c0-0.343-0.021-0.647-0.063-0.914s-0.112-0.489-0.21-0.669c-0.097-0.181-0.229-0.316-0.393-0.41
		c-0.166-0.094-0.373-0.14-0.623-0.14c-0.406,0-0.704,0.183-0.895,0.55c-0.19,0.365-0.285,0.897-0.285,1.596s0.096,1.223,0.289,1.57
		C61.652,107.146,61.954,107.321,62.365,107.321z"/>
	<path fill="#FFFFFF" d="M67.201,107.829c0-0.198,0.029-0.367,0.086-0.505c0.058-0.137,0.137-0.248,0.238-0.333
		s0.221-0.146,0.355-0.185c0.135-0.037,0.281-0.057,0.438-0.057c0.148,0,0.289,0.02,0.423,0.057c0.133,0.039,0.251,0.1,0.353,0.185
		s0.182,0.196,0.24,0.333c0.06,0.138,0.09,0.307,0.09,0.505c0,0.19-0.03,0.354-0.09,0.489c-0.059,0.135-0.139,0.247-0.24,0.336
		s-0.22,0.153-0.353,0.193c-0.134,0.041-0.274,0.061-0.423,0.061c-0.156,0-0.303-0.02-0.438-0.061
		c-0.135-0.04-0.254-0.104-0.355-0.193s-0.181-0.201-0.238-0.336C67.23,108.183,67.201,108.02,67.201,107.829z"/>
	<path fill="#FFFFFF" d="M81.782,108.736h-2.234l-2.133-3.859l-0.736,0.547v3.313h-1.968v-9.279h1.968v4.469l0.774-1.314l2.12-3.154
		h2.184l-2.964,4.183L81.782,108.736z"/>
	<path fill="#FFFFFF" d="M82.715,99.806c0-0.183,0.027-0.333,0.083-0.454s0.13-0.218,0.226-0.291
		c0.095-0.074,0.207-0.127,0.336-0.156s0.266-0.045,0.41-0.045c0.144,0,0.279,0.016,0.406,0.045s0.237,0.082,0.333,0.156
		c0.095,0.073,0.171,0.17,0.229,0.291c0.057,0.121,0.085,0.271,0.085,0.454c0,0.178-0.028,0.328-0.085,0.45
		c-0.058,0.123-0.134,0.222-0.229,0.295c-0.096,0.074-0.206,0.127-0.333,0.16c-0.127,0.031-0.263,0.047-0.406,0.047
		c-0.145,0-0.281-0.016-0.41-0.047c-0.129-0.033-0.241-0.086-0.336-0.16c-0.096-0.073-0.17-0.172-0.226-0.295
		C82.742,100.134,82.715,99.983,82.715,99.806z M84.734,108.736h-1.937v-7.096h1.937V108.736z"/>
	<path fill="#FFFFFF" d="M92.922,108.736h-1.936v-4.145c0-0.512-0.077-0.896-0.232-1.152c-0.154-0.256-0.4-0.384-0.738-0.384
		c-0.254,0-0.466,0.051-0.635,0.152c-0.17,0.102-0.305,0.252-0.404,0.45c-0.099,0.199-0.17,0.445-0.212,0.736
		c-0.042,0.293-0.063,0.627-0.063,1.004v3.338h-1.936v-7.096h1.479l0.26,0.907h0.108c0.102-0.183,0.226-0.339,0.372-0.47
		c0.145-0.131,0.305-0.239,0.479-0.324c0.174-0.084,0.357-0.146,0.553-0.188c0.194-0.039,0.393-0.06,0.596-0.06
		c0.348,0,0.662,0.05,0.946,0.149s0.526,0.255,0.729,0.467c0.203,0.211,0.36,0.48,0.471,0.809c0.109,0.328,0.164,0.721,0.164,1.178
		V108.736z"/>
	<path fill="#FFFFFF" d="M97.004,108.863c-0.363,0-0.696-0.078-0.996-0.234c-0.301-0.156-0.559-0.389-0.775-0.695
		c-0.215-0.307-0.383-0.688-0.504-1.146s-0.182-0.985-0.182-1.587c0-0.609,0.061-1.144,0.182-1.604
		c0.121-0.459,0.291-0.844,0.514-1.154s0.488-0.545,0.797-0.701c0.309-0.157,0.649-0.235,1.021-0.235
		c0.229,0,0.438,0.026,0.629,0.079s0.361,0.127,0.514,0.223s0.289,0.205,0.41,0.33s0.227,0.262,0.32,0.409h0.063
		c-0.025-0.165-0.049-0.332-0.069-0.501c-0.021-0.145-0.039-0.298-0.055-0.461c-0.015-0.162-0.021-0.314-0.021-0.453v-2.273h1.936
		v9.877h-1.479l-0.375-0.92h-0.082c-0.09,0.145-0.191,0.28-0.305,0.41c-0.115,0.129-0.247,0.239-0.396,0.332
		c-0.15,0.094-0.32,0.168-0.508,0.223C97.453,108.836,97.24,108.863,97.004,108.863z M97.709,107.321
		c0.229,0,0.423-0.039,0.584-0.118c0.16-0.078,0.291-0.195,0.391-0.355c0.099-0.158,0.173-0.355,0.221-0.593
		c0.049-0.237,0.076-0.515,0.08-0.831v-0.21c0-0.343-0.021-0.647-0.063-0.914s-0.112-0.489-0.21-0.669
		c-0.097-0.181-0.229-0.316-0.393-0.41c-0.166-0.094-0.373-0.14-0.623-0.14c-0.406,0-0.704,0.183-0.895,0.55
		c-0.19,0.365-0.285,0.897-0.285,1.596s0.096,1.223,0.289,1.57C96.996,107.146,97.298,107.321,97.709,107.321z"/>
	<path fill="#FFFFFF" d="M105.936,108.863c-0.508,0-0.977-0.074-1.403-0.222s-0.796-0.372-1.104-0.669
		c-0.309-0.299-0.549-0.676-0.721-1.131c-0.171-0.455-0.257-0.988-0.257-1.603c0-0.622,0.078-1.166,0.235-1.632
		c0.156-0.465,0.375-0.854,0.656-1.164s0.62-0.545,1.016-0.701c0.396-0.157,0.835-0.235,1.317-0.235c0.47,0,0.894,0.071,1.272,0.212
		c0.379,0.143,0.701,0.352,0.965,0.626c0.265,0.274,0.468,0.612,0.609,1.013c0.143,0.4,0.213,0.857,0.213,1.374v0.939h-4.329
		c0.009,0.271,0.052,0.515,0.13,0.733c0.078,0.218,0.188,0.402,0.33,0.553c0.143,0.149,0.313,0.265,0.515,0.346
		c0.2,0.08,0.431,0.12,0.688,0.12c0.216,0,0.42-0.012,0.612-0.034c0.192-0.023,0.38-0.059,0.562-0.105
		c0.183-0.047,0.362-0.105,0.54-0.174c0.178-0.07,0.36-0.152,0.546-0.245v1.498c-0.17,0.089-0.34,0.164-0.511,0.226
		c-0.172,0.061-0.353,0.113-0.543,0.155s-0.396,0.073-0.616,0.093C106.438,108.854,106.197,108.863,105.936,108.863z
		 M105.687,102.885c-0.343,0-0.627,0.12-0.854,0.361s-0.357,0.62-0.391,1.137h2.469c-0.004-0.217-0.031-0.415-0.082-0.598
		c-0.051-0.182-0.127-0.34-0.229-0.473s-0.229-0.238-0.381-0.314S105.891,102.885,105.687,102.885z"/>
	<path fill="#FFFFFF" d="M115.102,106.629c0,0.373-0.068,0.699-0.203,0.979c-0.136,0.279-0.328,0.512-0.578,0.697
		c-0.25,0.187-0.553,0.326-0.908,0.42c-0.355,0.093-0.753,0.139-1.193,0.139c-0.232,0-0.448-0.007-0.646-0.021
		c-0.199-0.016-0.388-0.039-0.565-0.073s-0.349-0.076-0.515-0.127c-0.164-0.051-0.332-0.114-0.501-0.19v-1.6
		c0.178,0.089,0.365,0.17,0.562,0.241c0.197,0.071,0.393,0.134,0.588,0.187c0.194,0.054,0.384,0.095,0.567,0.125
		c0.185,0.029,0.354,0.044,0.511,0.044c0.174,0,0.322-0.017,0.445-0.048c0.122-0.031,0.223-0.076,0.301-0.133
		s0.136-0.125,0.172-0.203c0.035-0.078,0.054-0.162,0.054-0.251s-0.014-0.169-0.041-0.237c-0.028-0.07-0.091-0.145-0.188-0.223
		s-0.24-0.168-0.429-0.268c-0.188-0.099-0.441-0.221-0.758-0.364c-0.31-0.14-0.577-0.278-0.804-0.415
		c-0.226-0.139-0.412-0.291-0.559-0.461c-0.146-0.17-0.255-0.363-0.327-0.58c-0.071-0.219-0.107-0.479-0.107-0.778
		c0-0.33,0.063-0.618,0.19-0.866s0.307-0.454,0.54-0.619c0.232-0.165,0.513-0.289,0.841-0.371c0.327-0.082,0.692-0.124,1.095-0.124
		c0.424,0,0.825,0.049,1.206,0.146c0.381,0.098,0.772,0.244,1.175,0.438l-0.584,1.371c-0.322-0.152-0.629-0.277-0.921-0.374
		c-0.292-0.098-0.584-0.146-0.876-0.146c-0.262,0-0.451,0.047-0.568,0.14c-0.116,0.093-0.174,0.22-0.174,0.381
		c0,0.085,0.014,0.159,0.044,0.226c0.03,0.065,0.089,0.133,0.178,0.203s0.214,0.146,0.374,0.229
		c0.161,0.082,0.371,0.183,0.629,0.301c0.301,0.132,0.571,0.262,0.813,0.391s0.449,0.276,0.622,0.441s0.307,0.357,0.399,0.578
		C115.055,106.05,115.102,106.316,115.102,106.629z"/>
</g>
<g>
</g>
<g>
</g>
<g>
</g>
<g>
</g>
<g>
</g>
<g>
</g>
<g>
</g>
<g>
</g>
<g>
</g>
<g>
</g>
<g>
</g>
<g>
</g>
<g>
</g>
<g>
</g>
<g>
</g>
<g>
</g>
</svg>
