<?xml version="1.0" encoding="utf-8"?>
<!-- Generator: Adobe Illustrator 16.0.3, SVG Export Plug-In . SVG Version: 6.00 Build 0)  -->
<!DOCTYPE svg PUBLIC "-//W3C//DTD SVG 1.1//EN" "http://www.w3.org/Graphics/SVG/1.1/DTD/svg11.dtd">
<svg version="1.1" id="Ebene_1" xmlns="http://www.w3.org/2000/svg" xmlns:xlink="http://www.w3.org/1999/xlink" x="0px" y="0px"
	 width="120px" height="120px" viewBox="0 0 120 120" enable-background="new 0 0 120 120" xml:space="preserve">
<path fill="#339999" d="M104.948,120H15.052C6.763,120,0,113.236,0,104.948V15.052C0,6.763,6.763,0,15.052,0h89.896
	C113.237,0,120,6.763,120,15.052v89.896C120,113.236,113.237,120,104.948,120z"/>
<g>
	<rect x="0.039" y="82.857" fill="none" width="119.923" height="37.143"/>
	<path fill="#FFFFFF" d="M36.735,94.404c-0.269,0-0.509-0.029-0.722-0.088c-0.212-0.059-0.401-0.137-0.567-0.234
		s-0.313-0.209-0.439-0.334s-0.242-0.255-0.344-0.392h-0.117c0.02,0.171,0.039,0.332,0.059,0.483
		c0.015,0.127,0.028,0.258,0.041,0.393c0.012,0.133,0.018,0.237,0.018,0.311v3.318h-2.234V86.068h1.816l0.315,1.063h0.103
		c0.103-0.166,0.22-0.322,0.352-0.469s0.284-0.275,0.458-0.385s0.37-0.197,0.59-0.264s0.464-0.099,0.732-0.099
		c0.425,0,0.811,0.091,1.157,0.271c0.347,0.182,0.645,0.449,0.894,0.807c0.249,0.355,0.442,0.798,0.579,1.325
		s0.205,1.138,0.205,1.831c0,0.698-0.071,1.313-0.212,1.842c-0.142,0.53-0.341,0.975-0.597,1.334
		c-0.257,0.357-0.562,0.628-0.916,0.809S37.16,94.404,36.735,94.404z M36.039,87.702c-0.249,0-0.46,0.046-0.633,0.136
		c-0.174,0.09-0.314,0.226-0.421,0.406s-0.186,0.409-0.234,0.686c-0.049,0.275-0.078,0.596-0.088,0.963v0.241
		c0,0.396,0.023,0.747,0.07,1.055c0.046,0.308,0.123,0.565,0.23,0.772c0.107,0.208,0.25,0.365,0.429,0.473
		c0.178,0.107,0.399,0.161,0.663,0.161c0.444,0,0.77-0.211,0.978-0.634c0.207-0.422,0.311-1.036,0.311-1.842
		s-0.104-1.41-0.311-1.813C36.824,87.904,36.493,87.702,36.039,87.702z"/>
	<path fill="#FFFFFF" d="M48.607,90.148c0,0.684-0.087,1.289-0.26,1.816c-0.174,0.527-0.423,0.972-0.747,1.333
		c-0.325,0.361-0.721,0.636-1.187,0.823c-0.467,0.188-0.99,0.283-1.571,0.283c-0.542,0-1.04-0.095-1.494-0.283
		c-0.454-0.188-0.846-0.462-1.176-0.823c-0.329-0.361-0.587-0.806-0.772-1.333s-0.278-1.133-0.278-1.816
		c0-0.679,0.086-1.281,0.26-1.809s0.422-0.971,0.747-1.33s0.719-0.631,1.183-0.816s0.989-0.278,1.575-0.278
		c0.542,0,1.04,0.093,1.494,0.278s0.846,0.457,1.176,0.816c0.329,0.359,0.587,0.803,0.772,1.33S48.607,89.47,48.607,90.148z
		 M43.407,90.148c0,0.815,0.115,1.43,0.344,1.842c0.229,0.413,0.603,0.619,1.121,0.619c0.513,0,0.884-0.207,1.113-0.623
		c0.229-0.414,0.344-1.027,0.344-1.838c0-0.815-0.115-1.424-0.344-1.828c-0.229-0.402-0.605-0.604-1.128-0.604
		c-0.513,0-0.883,0.201-1.109,0.604C43.521,88.725,43.407,89.333,43.407,90.148z"/>
	<path fill="#FFFFFF" d="M55.99,91.826c0,0.43-0.078,0.805-0.234,1.127s-0.378,0.592-0.667,0.807s-0.637,0.375-1.047,0.482
		s-0.869,0.162-1.377,0.162c-0.269,0-0.518-0.01-0.747-0.025c-0.229-0.018-0.447-0.046-0.652-0.085s-0.403-0.088-0.593-0.146
		s-0.383-0.132-0.579-0.22v-1.846c0.205,0.103,0.421,0.195,0.648,0.278c0.227,0.083,0.453,0.155,0.677,0.216
		c0.225,0.062,0.443,0.109,0.656,0.143c0.212,0.035,0.409,0.052,0.589,0.052c0.2,0,0.371-0.019,0.513-0.056
		c0.142-0.035,0.257-0.088,0.348-0.152c0.09-0.066,0.156-0.145,0.197-0.234c0.042-0.091,0.063-0.188,0.063-0.29
		s-0.016-0.194-0.048-0.274s-0.104-0.166-0.216-0.256c-0.112-0.091-0.277-0.193-0.494-0.309c-0.218-0.114-0.509-0.255-0.875-0.421
		c-0.356-0.161-0.666-0.321-0.926-0.479c-0.262-0.158-0.477-0.336-0.645-0.531c-0.169-0.195-0.294-0.418-0.377-0.67
		S50.08,88.547,50.08,88.2c0-0.381,0.073-0.714,0.22-0.999c0.146-0.287,0.354-0.524,0.623-0.715s0.592-0.334,0.97-0.428
		c0.378-0.096,0.8-0.144,1.264-0.144c0.488,0,0.952,0.056,1.392,0.169c0.439,0.111,0.891,0.28,1.355,0.505l-0.674,1.582
		c-0.371-0.176-0.725-0.319-1.062-0.433c-0.337-0.111-0.674-0.168-1.011-0.168c-0.303,0-0.521,0.054-0.655,0.161
		c-0.135,0.107-0.202,0.254-0.202,0.439c0,0.098,0.017,0.185,0.051,0.261c0.034,0.075,0.103,0.152,0.205,0.234
		c0.103,0.08,0.247,0.168,0.432,0.264c0.186,0.094,0.427,0.211,0.725,0.348c0.347,0.15,0.659,0.301,0.938,0.449
		c0.278,0.15,0.518,0.319,0.718,0.51s0.354,0.412,0.461,0.666S55.99,91.465,55.99,91.826z"/>
	<path fill="#FFFFFF" d="M57.653,83.952c0-0.21,0.032-0.384,0.095-0.524c0.063-0.139,0.15-0.25,0.26-0.336
		c0.11-0.086,0.239-0.146,0.389-0.18c0.148-0.034,0.306-0.051,0.472-0.051s0.322,0.017,0.469,0.051s0.275,0.094,0.384,0.18
		c0.11,0.086,0.198,0.197,0.264,0.336c0.066,0.141,0.099,0.314,0.099,0.524c0,0.205-0.033,0.378-0.099,0.521
		c-0.065,0.141-0.153,0.255-0.264,0.34c-0.109,0.086-0.238,0.146-0.384,0.184s-0.303,0.055-0.469,0.055s-0.324-0.018-0.472-0.055
		c-0.149-0.037-0.278-0.098-0.389-0.184c-0.109-0.085-0.196-0.199-0.26-0.34C57.685,84.33,57.653,84.157,57.653,83.952z
		 M59.982,94.258h-2.234v-8.189h2.234V94.258z"/>
	<path fill="#FFFFFF" d="M65.65,92.624c0.221,0,0.43-0.024,0.627-0.073s0.398-0.109,0.604-0.184v1.663
		c-0.209,0.107-0.47,0.196-0.779,0.267c-0.311,0.071-0.648,0.107-1.015,0.107c-0.356,0-0.688-0.042-0.996-0.125
		s-0.573-0.229-0.798-0.436s-0.402-0.486-0.531-0.836c-0.13-0.348-0.194-0.787-0.194-1.314v-3.947h-1.069v-0.945l1.23-0.746
		l0.645-1.729h1.428v1.742h1.992v1.678h-1.992v3.947c0,0.318,0.078,0.553,0.234,0.703C65.191,92.549,65.396,92.624,65.65,92.624z"/>
	<path fill="#FFFFFF" d="M68.441,83.952c0-0.21,0.031-0.384,0.096-0.524c0.063-0.139,0.15-0.25,0.26-0.336s0.238-0.146,0.389-0.18
		c0.148-0.034,0.306-0.051,0.472-0.051s0.322,0.017,0.469,0.051s0.274,0.094,0.384,0.18c0.111,0.086,0.199,0.197,0.264,0.336
		c0.066,0.141,0.1,0.314,0.1,0.524c0,0.205-0.033,0.378-0.1,0.521c-0.064,0.141-0.152,0.255-0.264,0.34
		c-0.109,0.086-0.237,0.146-0.384,0.184s-0.303,0.055-0.469,0.055s-0.323-0.018-0.472-0.055c-0.15-0.037-0.279-0.098-0.389-0.184
		c-0.109-0.085-0.197-0.199-0.26-0.34C68.473,84.33,68.441,84.157,68.441,83.952z M70.771,94.258h-2.233v-8.189h2.233V94.258z"/>
	<path fill="#FFFFFF" d="M74.836,94.258l-2.894-8.189h2.337l1.354,4.666c0.083,0.278,0.155,0.568,0.216,0.867
		c0.061,0.301,0.1,0.57,0.113,0.811h0.045c0.014-0.26,0.052-0.533,0.113-0.824c0.061-0.291,0.133-0.575,0.216-0.854l1.348-4.666
		h2.344l-2.894,8.189H74.836z"/>
	<path fill="#FFFFFF" d="M84.797,94.404c-0.586,0-1.126-0.086-1.619-0.257s-0.918-0.429-1.274-0.772s-0.634-0.779-0.831-1.305
		c-0.198-0.523-0.297-1.141-0.297-1.849c0-0.718,0.09-1.345,0.271-1.882c0.18-0.537,0.433-0.986,0.758-1.344
		c0.324-0.359,0.715-0.629,1.172-0.811c0.456-0.18,0.963-0.271,1.52-0.271c0.542,0,1.031,0.082,1.469,0.245
		c0.437,0.164,0.808,0.404,1.113,0.722c0.305,0.317,0.539,0.706,0.703,1.169c0.163,0.461,0.245,0.989,0.245,1.585v1.084h-4.995
		c0.01,0.313,0.06,0.595,0.15,0.847c0.09,0.251,0.217,0.463,0.381,0.637c0.163,0.174,0.361,0.307,0.593,0.398
		c0.231,0.094,0.497,0.14,0.795,0.14c0.249,0,0.484-0.013,0.707-0.04c0.222-0.027,0.438-0.067,0.647-0.121
		c0.211-0.054,0.418-0.121,0.623-0.201s0.415-0.175,0.63-0.282v1.729c-0.195,0.103-0.392,0.189-0.59,0.261
		c-0.197,0.07-0.406,0.13-0.626,0.179s-0.457,0.085-0.711,0.106S85.1,94.404,84.797,94.404z M84.511,87.504
		c-0.396,0-0.724,0.14-0.985,0.418s-0.411,0.715-0.45,1.311h2.849c-0.004-0.248-0.036-0.479-0.095-0.688
		c-0.059-0.211-0.146-0.393-0.264-0.547c-0.117-0.152-0.264-0.273-0.439-0.361S84.745,87.504,84.511,87.504z"/>
	<path fill="#FFFFFF" d="M14.213,106.148v4.109h-2.271V99.549h2.93c1.372,0,2.385,0.266,3.04,0.795
		c0.654,0.53,0.981,1.334,0.981,2.414c0,0.365-0.049,0.697-0.146,0.996c-0.098,0.297-0.229,0.563-0.392,0.795
		c-0.164,0.231-0.352,0.434-0.563,0.607c-0.213,0.174-0.436,0.318-0.67,0.436c0.542,0.869,1.028,1.646,1.458,2.329
		c0.186,0.293,0.365,0.579,0.538,0.856c0.173,0.279,0.329,0.527,0.465,0.748c0.137,0.219,0.249,0.395,0.337,0.527l0.125,0.205h-2.52
		l-2.322-4.109H14.213z M14.213,104.303h0.615c0.63,0,1.082-0.125,1.355-0.377s0.41-0.621,0.41-1.109
		c0-0.508-0.146-0.869-0.439-1.084s-0.747-0.322-1.362-0.322h-0.579V104.303z"/>
	<path fill="#FFFFFF" d="M26.569,110.258l-0.3-1.048h-0.117c-0.122,0.21-0.268,0.39-0.436,0.538
		c-0.169,0.149-0.353,0.272-0.553,0.37s-0.413,0.169-0.637,0.216s-0.454,0.07-0.688,0.07c-0.4,0-0.764-0.059-1.091-0.172
		c-0.327-0.115-0.608-0.295-0.842-0.539s-0.415-0.555-0.542-0.93c-0.127-0.377-0.19-0.828-0.19-1.355v-5.34h2.234v4.783
		c0,0.591,0.089,1.034,0.267,1.33c0.178,0.295,0.463,0.442,0.854,0.442c0.293,0,0.537-0.059,0.732-0.176s0.35-0.29,0.465-0.521
		c0.115-0.229,0.197-0.512,0.246-0.85c0.049-0.336,0.073-0.723,0.073-1.156v-3.854h2.234v8.189H26.569z M22.204,99.967
		c0-0.171,0.027-0.318,0.081-0.443s0.125-0.227,0.216-0.307c0.09-0.082,0.198-0.141,0.322-0.18c0.125-0.039,0.258-0.059,0.399-0.059
		s0.274,0.02,0.399,0.059c0.124,0.039,0.233,0.098,0.326,0.18c0.093,0.08,0.167,0.182,0.223,0.307s0.084,0.272,0.084,0.443
		c0,0.166-0.028,0.311-0.084,0.432c-0.056,0.123-0.13,0.225-0.223,0.305s-0.202,0.141-0.326,0.18
		c-0.125,0.039-0.258,0.059-0.399,0.059s-0.274-0.02-0.399-0.059c-0.124-0.039-0.232-0.1-0.322-0.18s-0.162-0.182-0.216-0.305
		C22.23,100.277,22.204,100.133,22.204,99.967z M25.155,99.967c0-0.171,0.027-0.318,0.081-0.443s0.127-0.227,0.22-0.307
		c0.093-0.082,0.203-0.141,0.33-0.18s0.264-0.059,0.41-0.059c0.137,0,0.268,0.02,0.392,0.059c0.125,0.039,0.234,0.098,0.33,0.18
		c0.095,0.08,0.17,0.182,0.227,0.307s0.084,0.272,0.084,0.443c0,0.166-0.028,0.311-0.084,0.432
		c-0.056,0.123-0.132,0.225-0.227,0.305c-0.096,0.08-0.205,0.141-0.33,0.18c-0.124,0.039-0.255,0.059-0.392,0.059
		c-0.293,0-0.54-0.081-0.74-0.242S25.155,100.294,25.155,99.967z"/>
	<path fill="#FFFFFF" d="M34.025,110.404c-0.586,0-1.115-0.081-1.585-0.242c-0.472-0.161-0.875-0.411-1.209-0.75
		c-0.334-0.34-0.591-0.774-0.769-1.305c-0.179-0.529-0.268-1.163-0.268-1.9c0-0.815,0.092-1.498,0.274-2.047
		c0.184-0.549,0.442-0.99,0.776-1.322s0.737-0.568,1.209-0.711c0.471-0.141,0.995-0.212,1.571-0.212c0.42,0,0.837,0.052,1.252,0.153
		c0.415,0.104,0.806,0.247,1.172,0.433l-0.645,1.699c-0.322-0.142-0.632-0.257-0.93-0.349c-0.298-0.09-0.581-0.135-0.85-0.135
		c-0.542,0-0.935,0.207-1.179,0.619s-0.366,1.031-0.366,1.856c0,0.82,0.122,1.426,0.366,1.816s0.627,0.586,1.15,0.586
		c0.425,0,0.811-0.056,1.157-0.165s0.701-0.25,1.062-0.421v1.86c-0.181,0.088-0.356,0.166-0.527,0.234s-0.343,0.125-0.517,0.168
		c-0.173,0.045-0.354,0.078-0.542,0.1S34.24,110.404,34.025,110.404z"/>
	<path fill="#FFFFFF" d="M40.25,105.805l0.82-1.246l2-2.49h2.52l-2.959,3.553l3.149,4.637h-2.578l-1.992-3.15l-0.872,0.602v2.549
		h-2.234V98.861h2.234v5.082l-0.117,1.861H40.25z"/>
	<path fill="#FFFFFF" d="M53.983,110.258H51.75v-4.783c0-0.591-0.088-1.033-0.264-1.33c-0.176-0.295-0.452-0.442-0.828-0.442
		c-0.283,0-0.519,0.059-0.707,0.176s-0.338,0.29-0.45,0.521c-0.112,0.229-0.193,0.512-0.242,0.85
		c-0.049,0.336-0.073,0.723-0.073,1.156v3.854h-2.234v-8.189h1.707l0.3,1.048h0.125c0.117-0.21,0.257-0.391,0.421-0.542
		c0.163-0.151,0.343-0.275,0.538-0.373s0.403-0.17,0.623-0.217c0.22-0.046,0.442-0.069,0.667-0.069c0.562,0,1.039,0.097,1.432,0.29
		c0.393,0.192,0.695,0.496,0.905,0.911h0.183c0.117-0.21,0.259-0.391,0.425-0.542s0.349-0.275,0.549-0.373s0.411-0.17,0.633-0.217
		c0.222-0.046,0.446-0.069,0.67-0.069c0.879,0,1.542,0.237,1.989,0.714c0.446,0.477,0.67,1.239,0.67,2.289v5.34h-2.241v-4.783
		c0-0.591-0.088-1.033-0.264-1.33c-0.176-0.295-0.452-0.442-0.828-0.442c-0.532,0-0.911,0.212-1.135,0.634s-0.337,1.026-0.337,1.813
		V110.258z"/>
	<path fill="#FFFFFF" d="M64.677,110.404c-0.586,0-1.126-0.086-1.618-0.257c-0.494-0.171-0.918-0.429-1.275-0.772
		c-0.355-0.344-0.633-0.779-0.831-1.305c-0.198-0.523-0.297-1.141-0.297-1.849c0-0.718,0.09-1.345,0.271-1.882
		s0.433-0.986,0.759-1.344c0.324-0.359,0.715-0.629,1.172-0.811c0.455-0.18,0.963-0.271,1.52-0.271c0.541,0,1.031,0.082,1.469,0.245
		c0.436,0.164,0.807,0.404,1.113,0.722c0.305,0.317,0.539,0.706,0.703,1.169c0.162,0.461,0.244,0.989,0.244,1.585v1.084h-4.994
		c0.01,0.313,0.059,0.595,0.15,0.847c0.09,0.251,0.217,0.463,0.381,0.637c0.162,0.174,0.36,0.307,0.592,0.398
		c0.232,0.094,0.498,0.14,0.795,0.14c0.25,0,0.484-0.013,0.707-0.04s0.438-0.067,0.648-0.121s0.418-0.121,0.623-0.201
		s0.414-0.175,0.629-0.282v1.729c-0.195,0.103-0.391,0.189-0.59,0.261c-0.197,0.07-0.406,0.13-0.625,0.179
		c-0.221,0.049-0.457,0.085-0.711,0.106S64.979,110.404,64.677,110.404z M64.391,103.504c-0.395,0-0.724,0.14-0.984,0.418
		c-0.262,0.278-0.412,0.715-0.451,1.311h2.85c-0.005-0.248-0.037-0.479-0.096-0.688c-0.059-0.211-0.146-0.393-0.264-0.547
		c-0.117-0.152-0.264-0.273-0.439-0.361S64.625,103.504,64.391,103.504z"/>
	<path fill="#FFFFFF" d="M72.03,110.258h-2.233V98.861h2.233V110.258z"/>
	<path fill="#FFFFFF" d="M76.783,110.404c-0.42,0-0.803-0.091-1.149-0.271s-0.645-0.447-0.894-0.803
		c-0.249-0.354-0.443-0.794-0.582-1.321c-0.14-0.527-0.209-1.138-0.209-1.831c0-0.703,0.069-1.319,0.209-1.85
		c0.139-0.529,0.337-0.975,0.593-1.332c0.257-0.359,0.563-0.629,0.919-0.811c0.357-0.18,0.75-0.271,1.18-0.271
		c0.264,0,0.506,0.03,0.725,0.091c0.221,0.063,0.418,0.146,0.594,0.258c0.176,0.109,0.333,0.236,0.473,0.381
		c0.139,0.144,0.262,0.301,0.369,0.472h0.074c-0.029-0.19-0.057-0.384-0.081-0.579c-0.024-0.166-0.046-0.342-0.063-0.531
		c-0.017-0.188-0.025-0.361-0.025-0.523v-2.621h2.233v11.396h-1.706l-0.433-1.063h-0.095c-0.103,0.166-0.22,0.324-0.352,0.473
		s-0.284,0.277-0.458,0.385s-0.369,0.192-0.586,0.256S77.057,110.404,76.783,110.404z M77.597,108.624
		c0.264,0,0.488-0.045,0.674-0.136c0.186-0.09,0.335-0.227,0.45-0.41s0.2-0.411,0.257-0.685c0.056-0.273,0.087-0.593,0.091-0.96
		v-0.241c0-0.396-0.023-0.747-0.072-1.055s-0.13-0.565-0.242-0.772S78.49,104,78.3,103.893s-0.43-0.161-0.718-0.161
		c-0.469,0-0.813,0.212-1.033,0.634c-0.219,0.422-0.329,1.036-0.329,1.842s0.11,1.41,0.333,1.813S77.123,108.624,77.597,108.624z"/>
	<path fill="#FFFFFF" d="M88.847,110.258l-0.3-1.048H88.43c-0.123,0.21-0.268,0.39-0.436,0.538c-0.17,0.149-0.354,0.272-0.554,0.37
		s-0.413,0.169-0.638,0.216s-0.453,0.07-0.688,0.07c-0.4,0-0.765-0.059-1.092-0.172c-0.327-0.115-0.607-0.295-0.842-0.539
		s-0.416-0.555-0.543-0.93c-0.127-0.377-0.189-0.828-0.189-1.355v-5.34h2.233v4.783c0,0.591,0.089,1.034,0.267,1.33
		c0.179,0.295,0.463,0.442,0.854,0.442c0.293,0,0.537-0.059,0.732-0.176s0.351-0.29,0.465-0.521c0.115-0.229,0.197-0.512,0.246-0.85
		c0.049-0.336,0.073-0.723,0.073-1.156v-3.854h2.233v8.189H88.847z"/>
	<path fill="#FFFFFF" d="M100.002,110.258h-2.234v-4.783c0-0.591-0.09-1.033-0.268-1.33c-0.178-0.295-0.463-0.442-0.854-0.442
		c-0.293,0-0.537,0.059-0.732,0.176s-0.35,0.29-0.465,0.521c-0.115,0.229-0.196,0.512-0.245,0.85
		c-0.049,0.336-0.073,0.723-0.073,1.156v3.854h-2.234v-8.189h1.707l0.301,1.048h0.124c0.117-0.21,0.261-0.391,0.429-0.542
		s0.353-0.275,0.553-0.373s0.412-0.17,0.637-0.217c0.225-0.046,0.455-0.069,0.689-0.069c0.4,0,0.764,0.058,1.091,0.173
		c0.327,0.114,0.608,0.293,0.843,0.537s0.414,0.557,0.541,0.934c0.127,0.379,0.191,0.832,0.191,1.359V110.258z"/>
	<path fill="#FFFFFF" d="M109.076,102.084v1.215l-1.193,0.374c0.098,0.166,0.166,0.339,0.205,0.517s0.059,0.369,0.059,0.574
		c0,0.416-0.066,0.795-0.198,1.139c-0.132,0.346-0.327,0.639-0.586,0.883s-0.583,0.434-0.974,0.568s-0.846,0.201-1.363,0.201
		c-0.111,0-0.234-0.006-0.365-0.018c-0.133-0.013-0.23-0.026-0.293-0.041c-0.098,0.083-0.176,0.17-0.23,0.26
		c-0.057,0.091-0.085,0.199-0.085,0.326c0,0.103,0.032,0.185,0.095,0.246c0.064,0.061,0.146,0.109,0.25,0.146
		c0.102,0.035,0.222,0.061,0.358,0.072c0.137,0.013,0.278,0.019,0.425,0.019h1.274c0.396,0,0.749,0.046,1.062,0.136
		s0.578,0.229,0.795,0.414s0.385,0.42,0.502,0.707c0.117,0.285,0.176,0.625,0.176,1.021c0,0.463-0.093,0.883-0.278,1.256
		s-0.463,0.69-0.831,0.951c-0.369,0.262-0.826,0.463-1.373,0.602s-1.18,0.209-1.897,0.209c-0.557,0-1.042-0.053-1.458-0.158
		c-0.414-0.105-0.762-0.256-1.039-0.453c-0.279-0.199-0.488-0.437-0.627-0.715s-0.209-0.594-0.209-0.945
		c0-0.297,0.052-0.557,0.154-0.775c0.103-0.221,0.239-0.408,0.41-0.564s0.365-0.283,0.582-0.381s0.441-0.174,0.67-0.227
		c-0.102-0.045-0.203-0.105-0.303-0.184c-0.102-0.078-0.191-0.168-0.271-0.271c-0.08-0.102-0.146-0.215-0.197-0.34
		c-0.053-0.125-0.078-0.256-0.078-0.393c0-0.156,0.023-0.297,0.07-0.424c0.046-0.127,0.113-0.246,0.201-0.355
		s0.197-0.214,0.33-0.312c0.131-0.098,0.28-0.198,0.446-0.3c-0.43-0.186-0.771-0.484-1.022-0.895
		c-0.251-0.41-0.377-0.893-0.377-1.449c0-0.439,0.068-0.833,0.205-1.18s0.338-0.641,0.602-0.883s0.59-0.426,0.98-0.553
		s0.84-0.19,1.348-0.19c0.098,0,0.208,0.007,0.33,0.019s0.242,0.027,0.363,0.043c0.119,0.018,0.23,0.036,0.332,0.056
		c0.104,0.02,0.184,0.036,0.242,0.052H109.076z M103.217,111.414c0,0.123,0.025,0.24,0.076,0.355
		c0.053,0.115,0.137,0.217,0.254,0.305s0.271,0.156,0.461,0.209c0.19,0.051,0.425,0.076,0.703,0.076
		c0.762,0,1.336-0.107,1.721-0.322c0.387-0.215,0.579-0.503,0.579-0.864c0-0.308-0.12-0.513-0.358-0.615
		c-0.24-0.103-0.611-0.153-1.113-0.153h-1.033c-0.132,0-0.273,0.016-0.425,0.047s-0.29,0.087-0.417,0.165s-0.234,0.182-0.318,0.312
		C103.26,111.057,103.217,111.219,103.217,111.414z M104.022,104.75c0,0.443,0.083,0.788,0.249,1.032s0.418,0.366,0.754,0.366
		c0.352,0,0.605-0.122,0.762-0.366s0.234-0.589,0.234-1.032c0-0.439-0.076-0.789-0.23-1.048s-0.408-0.388-0.766-0.388
		C104.357,103.314,104.022,103.793,104.022,104.75z"/>
</g>
<g>
	<g transform="translate(-1.5419 -.02052)" opacity="0.6">
		<circle fill="#FFFFFF" cx="61.543" cy="36.926" r="4.011"/>
		<rect x="59.992" y="39.506" fill="#FFFFFF" width="3.101" height="20.155"/>
		<g transform="matrix(.92875 0 0 1.0003 41.286 -.061302)">
			<g transform="matrix(.75197 0 0 .75197 433.71 -157.14)">
				<path fill="#FFFFFF" d="M-551.665,279.328h1.338c0.996,0,1.803,0.807,1.803,1.803v30.368c0,0.997-0.807,1.805-1.803,1.805
					h-1.338c-0.996,0-1.802-0.808-1.802-1.805v-30.368C-553.468,280.135-552.661,279.328-551.665,279.328z"/>
				<path fill="#FFFFFF" d="M-545.2,279.328h1.338c0.996,0,1.804,0.807,1.804,1.803v30.368c0,0.997-0.808,1.805-1.804,1.805h-1.338
					c-0.996,0-1.802-0.808-1.802-1.805v-30.368C-547.002,280.135-546.195,279.328-545.2,279.328z"/>
			</g>
			<path fill="#FFFFFF" d="M17.368,42.482h8.886c1.607,0,2.909,1.302,2.909,2.91v0.799c0,1.606-1.303,2.909-2.909,2.909h-8.886
				c-1.607,0-2.909-1.303-2.909-2.909v-0.799C14.459,43.785,15.762,42.482,17.368,42.482z"/>
			<g transform="matrix(.75197 0 0 .75197 432.46 -158.64)">
				<path fill="#FFFFFF" d="M-539.186,268.84L-539.186,268.84c1.156-0.362,2.39,0.284,2.75,1.441l4.338,13.859
					c0.361,1.158-0.284,2.39-1.442,2.752l0,0c-1.156,0.362-2.39-0.283-2.752-1.441l-4.335-13.859
					C-540.988,270.435-540.344,269.203-539.186,268.84z"/>
				<path fill="#FFFFFF" d="M-553.012,268.84L-553.012,268.84c-1.158-0.362-2.39,0.282-2.752,1.44l-4.335,13.86
					c-0.362,1.157,0.283,2.389,1.44,2.752l0,0c1.158,0.362,2.39-0.283,2.753-1.44l4.335-13.86
					C-551.21,270.435-551.855,269.203-553.012,268.84z"/>
			</g>
			<path fill="#FFFFFF" d="M18.796,45.278h6.026l5.661,19.257H13.134L18.796,45.278z"/>
		</g>
		<path fill="#FFFFFF" d="M64.512,34.725c-0.418,0.031-0.486-0.167,0.135-0.507c1.506-0.824,3.461,3.257,3.461,3.257
			s-0.322-0.051-0.561-0.019c-0.293,0.041-0.827,0.682-0.827,0.682S65.972,34.617,64.512,34.725L64.512,34.725z"/>
		<path fill="#FFFFFF" d="M58.373,34.811c0.417,0.031,0.686-0.253,0.064-0.593c-1.506-0.824-3.461,3.257-3.461,3.257
			s0.322-0.051,0.561-0.019c0.292,0.041,0.944,0.682,0.944,0.682s0.297-3.591,1.757-3.483L58.373,34.811z"/>
	</g>
	<g opacity="0.6">
		<polyline fill="#FFFFFF" points="7.5,58.035 23.5,58.035 23.5,51.035 7.5,51.035 		"/>
		<path fill="#FFFFFF" d="M34.5,54.535c-5.168,1.918-11.581,5.19-15.556,8.656l3.131-8.656l-3.131-8.654
			C22.919,49.347,29.332,52.619,34.5,54.535z"/>
		<polyline fill="#FFFFFF" points="20.048,19.741 31.373,31.065 36.323,26.115 24.998,14.791 		"/>
		<path fill="#FFFFFF" d="M41.615,36.357c-5.011-2.299-11.859-4.52-17.121-4.879l8.334-3.907l3.905-8.333
			C37.094,24.5,39.315,31.348,41.615,36.357z"/>
		<polyline fill="#FFFFFF" points="55.5,2.035 55.5,18.035 62.5,18.035 62.5,2.035 		"/>
		<path fill="#FFFFFF" d="M59.5,28.535c-1.918-5.168-5.19-11.581-8.656-15.556L59.5,16.11l8.654-3.131
			C64.687,16.954,61.415,23.367,59.5,28.535z"/>
		<polyline fill="#FFFFFF" points="94.294,14.083 82.968,25.409 87.919,30.358 99.243,19.032 		"/>
		<path fill="#FFFFFF" d="M77.677,35.65c2.299-5.011,4.52-11.859,4.879-17.121l3.906,8.334l8.334,3.905
			C89.534,31.129,82.687,33.351,77.677,35.65z"/>
		<polyline fill="#FFFFFF" points="112.5,50.035 96.5,50.035 96.5,57.035 112.5,57.035 		"/>
		<path fill="#FFFFFF" d="M85.499,53.535c5.168-1.918,11.58-5.191,15.555-8.657l-3.13,8.656l3.132,8.653
			C97.08,58.722,90.667,55.451,85.499,53.535z"/>
	</g>
</g>
<g>
</g>
<g>
</g>
<g>
</g>
<g>
</g>
<g>
</g>
<g>
</g>
<g>
</g>
<g>
</g>
<g>
</g>
<g>
</g>
<g>
</g>
<g>
</g>
<g>
</g>
<g>
</g>
<g>
</g>
</svg>
