<?xml version="1.0" encoding="utf-8"?>
<!-- Generator: Adobe Illustrator 16.0.3, SVG Export Plug-In . SVG Version: 6.00 Build 0)  -->
<!DOCTYPE svg PUBLIC "-//W3C//DTD SVG 1.1//EN" "http://www.w3.org/Graphics/SVG/1.1/DTD/svg11.dtd" [
	<!ENTITY ns_extend "http://ns.adobe.com/Extensibility/1.0/">
	<!ENTITY ns_ai "http://ns.adobe.com/AdobeIllustrator/10.0/">
	<!ENTITY ns_graphs "http://ns.adobe.com/Graphs/1.0/">
	<!ENTITY ns_vars "http://ns.adobe.com/Variables/1.0/">
	<!ENTITY ns_imrep "http://ns.adobe.com/ImageReplacement/1.0/">
	<!ENTITY ns_sfw "http://ns.adobe.com/SaveForWeb/1.0/">
	<!ENTITY ns_custom "http://ns.adobe.com/GenericCustomNamespace/1.0/">
	<!ENTITY ns_adobe_xpath "http://ns.adobe.com/XPath/1.0/">
]>
<svg version="1.1" id="Ebene_1" xmlns:x="&ns_extend;" xmlns:i="&ns_ai;" xmlns:graph="&ns_graphs;"
	 xmlns="http://www.w3.org/2000/svg" xmlns:xlink="http://www.w3.org/1999/xlink" x="0px" y="0px" width="92px" height="92px"
	 viewBox="0 0 92 92" enable-background="new 0 0 92 92" xml:space="preserve">
<metadata>
	<sfw  xmlns="&ns_sfw;">
		<slices></slices>
		<sliceSourceBounds  height="92" width="92" y="0.5" x="-0.5" bottomLeftOrigin="true"></sliceSourceBounds>
	</sfw>
</metadata>
<path fill="#3FA9F5" d="M92,81.734C92,87.404,87.404,92,81.734,92H10.266C4.596,92,0,87.404,0,81.734V10.266
	C0,4.596,4.596,0,10.266,0h71.468C87.404,0,92,4.596,92,10.266V81.734z"/>
<g>
	<g id="Layer_1_163_">
		<g>
			<path fill="#FFFFFF" d="M78.502,15.811c0-1.816-1.473-3.289-3.288-3.289h-57.53c-1.816,0-3.287,1.472-3.287,3.289
				c0,1.214,0.665,2.262,1.644,2.831v37.87c0.89-0.813,1.971-1.804,3.287-3.006V19.098H73.57V55.26H31.206
				c-1.1,1.202-2.104,2.303-3.006,3.289h2.899h30.699h13.418c0.907,0,1.644-0.736,1.644-1.645V18.642
				C77.837,18.071,78.502,17.025,78.502,15.811z"/>
			<path fill="#FFFFFF" d="M37.447,42.43c-0.313-0.311-0.822-0.313-1.134,0c0,0-22.006,20.117-22.112,20.224
				c-0.834,0.832-0.834,2.188,0,3.022c0.835,0.837,2.189,0.837,3.023,0c0.107-0.104,20.222-22.11,20.222-22.11
				C37.761,43.252,37.76,42.744,37.447,42.43z"/>
		</g>
	</g>
</g>
<g>
	<path fill="#FCFCFC" d="M14.067,81.993v3.006H12.31v-8.531h3.328c0.641,0,1.204,0.117,1.69,0.352c0.486,0.236,0.86,0.568,1.122,1
		c0.262,0.432,0.393,0.923,0.393,1.474c0,0.836-0.286,1.495-0.858,1.978c-0.572,0.483-1.364,0.725-2.376,0.725h-1.542V81.993z
		 M14.067,80.569h1.57c0.465,0,0.819-0.109,1.063-0.328c0.244-0.219,0.366-0.531,0.366-0.938c0-0.419-0.123-0.757-0.369-1.015
		c-0.246-0.258-0.586-0.392-1.02-0.397h-1.611L14.067,80.569L14.067,80.569z"/>
	<path fill="#FCFCFC" d="M23.501,80.247c-0.23-0.031-0.434-0.047-0.609-0.047c-0.641,0-1.061,0.217-1.26,0.65v4.148h-1.693v-6.34
		h1.6l0.047,0.756c0.34-0.582,0.811-0.873,1.412-0.873c0.188,0,0.363,0.025,0.527,0.076L23.501,80.247z"/>
	<path fill="#FCFCFC" d="M27.813,84.999c-0.078-0.152-0.135-0.342-0.17-0.568c-0.41,0.457-0.943,0.687-1.6,0.687
		c-0.621,0-1.136-0.181-1.544-0.539s-0.612-0.813-0.612-1.358c0-0.673,0.249-1.188,0.747-1.548c0.498-0.358,1.218-0.541,2.159-0.545
		h0.779v-0.362c0-0.293-0.075-0.527-0.226-0.703c-0.151-0.177-0.388-0.265-0.712-0.265c-0.285,0-0.509,0.068-0.671,0.205
		c-0.162,0.138-0.243,0.324-0.243,0.563h-1.693c0-0.367,0.113-0.707,0.34-1.021s0.547-0.558,0.961-0.735
		c0.414-0.177,0.879-0.267,1.395-0.267c0.781,0,1.401,0.196,1.86,0.589s0.688,0.944,0.688,1.655v2.748
		c0.004,0.603,0.088,1.057,0.252,1.364v0.1H27.813z M26.103,76.998c0,0.208-0.076,0.384-0.229,0.526
		c-0.152,0.144-0.348,0.215-0.586,0.215c-0.242,0-0.438-0.072-0.586-0.219c-0.148-0.146-0.223-0.318-0.223-0.522
		s0.074-0.38,0.223-0.526c0.149-0.146,0.344-0.221,0.586-0.221c0.242,0,0.438,0.074,0.589,0.221
		C26.028,76.619,26.103,76.794,26.103,76.998z M26.413,83.821c0.25,0,0.48-0.057,0.691-0.168c0.211-0.11,0.367-0.26,0.469-0.447
		v-1.09H26.94c-0.848,0-1.299,0.293-1.354,0.879l-0.006,0.1c0,0.211,0.074,0.385,0.223,0.521
		C25.952,83.752,26.155,83.821,26.413,83.821z M27.333,76.998c0-0.212,0.079-0.39,0.237-0.532c0.158-0.142,0.351-0.215,0.577-0.215
		c0.23,0,0.423,0.072,0.577,0.219c0.154,0.146,0.231,0.32,0.231,0.528c0,0.204-0.074,0.38-0.223,0.526
		c-0.149,0.146-0.344,0.221-0.586,0.221s-0.438-0.074-0.589-0.221C27.406,77.377,27.333,77.202,27.333,76.998z"/>
	<path fill="#FCFCFC" d="M34.007,83.247c0-0.207-0.103-0.37-0.308-0.489c-0.205-0.118-0.534-0.226-0.987-0.319
		c-1.508-0.315-2.262-0.957-2.262-1.922c0-0.563,0.233-1.031,0.7-1.408c0.467-0.377,1.077-0.565,1.831-0.565
		c0.805,0,1.448,0.188,1.931,0.567c0.483,0.38,0.724,0.871,0.724,1.478h-1.693c0-0.241-0.078-0.442-0.234-0.601
		c-0.156-0.159-0.4-0.237-0.732-0.237c-0.285,0-0.506,0.063-0.662,0.192c-0.156,0.13-0.234,0.293-0.234,0.492
		c0,0.188,0.089,0.34,0.267,0.455c0.178,0.114,0.478,0.215,0.899,0.299s0.777,0.179,1.066,0.283
		c0.895,0.328,1.342,0.896,1.342,1.705c0,0.578-0.248,1.047-0.744,1.403s-1.137,0.536-1.922,0.536c-0.531,0-1.003-0.096-1.415-0.284
		c-0.412-0.188-0.735-0.449-0.97-0.778c-0.235-0.33-0.352-0.688-0.352-1.07h1.605c0.016,0.302,0.127,0.531,0.334,0.691
		s0.484,0.24,0.832,0.24c0.324,0,0.569-0.063,0.735-0.186S34.007,83.446,34.007,83.247z"/>
	<path fill="#FCFCFC" d="M39.661,85.116c-0.93,0-1.687-0.285-2.271-0.855s-0.876-1.33-0.876-2.279v-0.164
		c0-0.637,0.123-1.205,0.369-1.707c0.246-0.502,0.595-0.889,1.046-1.16c0.451-0.271,0.966-0.407,1.544-0.407
		c0.867,0,1.55,0.272,2.048,0.819c0.498,0.548,0.747,1.322,0.747,2.326v0.691h-4.037c0.055,0.414,0.22,0.746,0.495,0.996
		s0.624,0.375,1.046,0.375c0.652,0,1.162-0.236,1.529-0.709l0.832,0.932c-0.254,0.359-0.598,0.641-1.031,0.842
		S40.188,85.116,39.661,85.116z M39.468,79.907c-0.336,0-0.608,0.113-0.817,0.342c-0.209,0.227-0.343,0.553-0.401,0.977h2.355
		v-0.135c-0.008-0.377-0.109-0.668-0.305-0.875C40.104,80.011,39.827,79.907,39.468,79.907z"/>
	<path fill="#FCFCFC" d="M44.788,78.659l0.053,0.732c0.453-0.566,1.061-0.851,1.822-0.851c0.672,0,1.172,0.197,1.5,0.592
		c0.328,0.396,0.496,0.984,0.504,1.771v4.096h-1.692v-4.055c0-0.359-0.078-0.62-0.234-0.782s-0.416-0.243-0.779-0.243
		c-0.477,0-0.834,0.203-1.072,0.609v4.471h-1.693v-6.34H44.788z"/>
	<path fill="#FCFCFC" d="M51.979,77.101v1.56h1.084v1.241h-1.084v3.164c0,0.234,0.045,0.402,0.135,0.504
		c0.09,0.103,0.262,0.152,0.516,0.152c0.188,0,0.354-0.014,0.498-0.041v1.283c-0.332,0.102-0.674,0.152-1.025,0.152
		c-1.188,0-1.793-0.6-1.815-1.799v-3.416h-0.927v-1.242h0.927v-1.559H51.979L51.979,77.101z"/>
	<path fill="#FCFCFC" d="M57.68,84.999c-0.078-0.152-0.136-0.342-0.171-0.568c-0.409,0.457-0.942,0.687-1.6,0.687
		c-0.621,0-1.136-0.181-1.544-0.539s-0.612-0.813-0.612-1.358c0-0.673,0.249-1.188,0.747-1.548c0.498-0.358,1.218-0.541,2.159-0.545
		h0.778v-0.362c0-0.293-0.074-0.527-0.226-0.703c-0.151-0.177-0.388-0.265-0.712-0.265c-0.285,0-0.509,0.068-0.671,0.205
		c-0.162,0.138-0.243,0.324-0.243,0.563h-1.693c0-0.367,0.113-0.707,0.34-1.021c0.228-0.313,0.547-0.558,0.961-0.735
		c0.414-0.177,0.879-0.267,1.396-0.267c0.781,0,1.401,0.196,1.86,0.589s0.688,0.944,0.688,1.655v2.748
		c0.004,0.603,0.088,1.057,0.252,1.364v0.1H57.68z M56.277,83.821c0.25,0,0.48-0.057,0.691-0.168c0.211-0.11,0.367-0.26,0.469-0.447
		v-1.09h-0.633c-0.848,0-1.299,0.293-1.354,0.879l-0.006,0.1c0,0.211,0.074,0.385,0.223,0.521
		C55.816,83.752,56.021,83.821,56.277,83.821z"/>
	<path fill="#FCFCFC" d="M62.466,77.101v1.56h1.084v1.241h-1.084v3.164c0,0.234,0.046,0.402,0.136,0.504
		c0.09,0.103,0.262,0.152,0.516,0.152c0.188,0,0.354-0.014,0.498-0.041v1.283c-0.332,0.102-0.674,0.152-1.025,0.152
		c-1.188,0-1.793-0.6-1.816-1.799v-3.416h-0.926v-1.242h0.926v-1.559H62.466L62.466,77.101z"/>
	<path fill="#FCFCFC" d="M64.48,77.019c0-0.254,0.086-0.463,0.256-0.627s0.4-0.246,0.693-0.246c0.289,0,0.521,0.082,0.691,0.246
		s0.258,0.373,0.258,0.627c0,0.258-0.087,0.47-0.261,0.633c-0.175,0.164-0.403,0.246-0.688,0.246s-0.515-0.082-0.688-0.246
		C64.568,77.488,64.48,77.276,64.48,77.019z M66.279,84.999h-1.698v-6.34h1.698V84.999z"/>
	<path fill="#FCFCFC" d="M67.411,81.771c0-0.629,0.121-1.189,0.362-1.683c0.242-0.493,0.592-0.873,1.047-1.144
		c0.455-0.27,0.982-0.403,1.584-0.403c0.855,0,1.555,0.263,2.096,0.785s0.843,1.233,0.904,2.133l0.013,0.435
		c0,0.973-0.271,1.752-0.813,2.34c-0.543,0.589-1.271,0.883-2.187,0.883s-1.644-0.293-2.188-0.879
		c-0.543-0.586-0.816-1.383-0.816-2.391L67.411,81.771L67.411,81.771z M69.104,81.892c0,0.603,0.113,1.063,0.34,1.381
		c0.228,0.319,0.552,0.479,0.974,0.479c0.41,0,0.729-0.157,0.961-0.474c0.229-0.313,0.347-0.817,0.347-1.51
		c0-0.592-0.115-1.049-0.347-1.373c-0.231-0.326-0.556-0.487-0.974-0.487c-0.413,0-0.733,0.161-0.961,0.483
		C69.217,80.714,69.104,81.214,69.104,81.892z"/>
	<path fill="#FCFCFC" d="M76.02,78.659l0.053,0.732c0.453-0.566,1.061-0.851,1.822-0.851c0.672,0,1.172,0.197,1.5,0.592
		c0.328,0.396,0.496,0.984,0.504,1.771v4.096h-1.693v-4.055c0-0.359-0.078-0.62-0.234-0.782s-0.416-0.243-0.779-0.243
		c-0.477,0-0.834,0.203-1.071,0.609v4.471h-1.692v-6.34H76.02z"/>
</g>
<path fill="#FFFFFF" d="M37.592,46.797c-0.112,0-0.217-0.031-0.313-0.088c-0.191-0.111-0.313-0.313-0.313-0.536V26.659
	c0-0.225,0.121-0.433,0.313-0.545c0.192-0.112,0.433-0.112,0.625,0L54.8,35.875c0.191,0.112,0.312,0.32,0.312,0.537
	c0,0.224-0.119,0.433-0.312,0.544l-16.896,9.753C37.808,46.766,37.696,46.797,37.592,46.797L37.592,46.797z"/>
</svg>
