<?xml version="1.0" encoding="utf-8"?>
<!-- Generator: Adobe Illustrator 16.0.3, SVG Export Plug-In . SVG Version: 6.00 Build 0)  -->
<!DOCTYPE svg PUBLIC "-//W3C//DTD SVG 1.1//EN" "http://www.w3.org/Graphics/SVG/1.1/DTD/svg11.dtd" [
	<!ENTITY ns_extend "http://ns.adobe.com/Extensibility/1.0/">
	<!ENTITY ns_ai "http://ns.adobe.com/AdobeIllustrator/10.0/">
	<!ENTITY ns_graphs "http://ns.adobe.com/Graphs/1.0/">
	<!ENTITY ns_vars "http://ns.adobe.com/Variables/1.0/">
	<!ENTITY ns_imrep "http://ns.adobe.com/ImageReplacement/1.0/">
	<!ENTITY ns_sfw "http://ns.adobe.com/SaveForWeb/1.0/">
	<!ENTITY ns_custom "http://ns.adobe.com/GenericCustomNamespace/1.0/">
	<!ENTITY ns_adobe_xpath "http://ns.adobe.com/XPath/1.0/">
]>
<svg version="1.1" id="Ebene_1" xmlns:x="&ns_extend;" xmlns:i="&ns_ai;" xmlns:graph="&ns_graphs;"
	 xmlns="http://www.w3.org/2000/svg" xmlns:xlink="http://www.w3.org/1999/xlink" x="0px" y="0px" width="92px" height="92px"
	 viewBox="0 0 92 92" enable-background="new 0 0 92 92" xml:space="preserve">
<metadata>
	<sfw  xmlns="&ns_sfw;">
		<slices></slices>
		<sliceSourceBounds  height="95.334" width="92.666" y="-2.834" x="-0.586" bottomLeftOrigin="true"></sliceSourceBounds>
	</sfw>
</metadata>
<path fill="#FF4A51" d="M92,81.734C92,87.404,87.404,92,81.734,92H10.266C4.596,92,0,87.404,0,81.734V10.266
	C0,4.596,4.596,0,10.266,0h71.468C87.404,0,92,4.596,92,10.266V81.734z"/>
<g>
	<rect x="-0.086" y="67.666" fill="none" width="92.666" height="27.668"/>
	<path fill="#FCFCFC" d="M19.686,74.205l1.148-6.07h1.752l-1.893,8.531h-1.77l-1.389-5.707l-1.389,5.707h-1.77l-1.893-8.531h1.752
		l1.154,6.059l1.406-6.059h1.488L19.686,74.205z"/>
	<path fill="#FCFCFC" d="M23.413,68.686c0-0.254,0.085-0.463,0.255-0.627s0.401-0.246,0.694-0.246c0.289,0,0.52,0.082,0.691,0.246
		c0.171,0.164,0.258,0.373,0.258,0.627c0,0.258-0.087,0.469-0.261,0.633c-0.174,0.164-0.403,0.246-0.688,0.246
		c-0.285,0-0.515-0.082-0.688-0.246C23.501,69.154,23.413,68.943,23.413,68.686z M25.211,76.666h-1.699v-6.34h1.699V76.666z"/>
	<path fill="#FCFCFC" d="M30.168,71.914c-0.23-0.031-0.434-0.047-0.609-0.047c-0.641,0-1.061,0.217-1.26,0.65v4.147h-1.693v-6.34
		h1.6l0.047,0.756c0.34-0.582,0.811-0.873,1.412-0.873c0.188,0,0.363,0.024,0.527,0.076L30.168,71.914z"/>
	<path fill="#FCFCFC" d="M33.286,74.123l-0.609,0.609v1.934h-1.693v-9h1.693v4.986l0.328-0.422l1.623-1.904h2.033l-2.291,2.643
		l2.49,3.697h-1.945L33.286,74.123z"/>
	<path fill="#FCFCFC" d="M41.19,76.021c-0.418,0.508-0.996,0.762-1.734,0.762c-0.68,0-1.198-0.195-1.556-0.586
		s-0.54-0.963-0.548-1.717v-4.154h1.693v4.102c0,0.66,0.301,0.99,0.902,0.99c0.574,0,0.969-0.199,1.184-0.598v-4.494h1.699v6.34
		h-1.594L41.19,76.021z"/>
	<path fill="#FCFCFC" d="M45.667,70.326l0.053,0.732c0.453-0.566,1.061-0.851,1.822-0.851c0.672,0,1.172,0.196,1.5,0.592
		s0.496,0.984,0.504,1.771v4.096h-1.692v-4.055c0-0.359-0.078-0.619-0.234-0.781s-0.416-0.244-0.779-0.244
		c-0.477,0-0.834,0.203-1.072,0.609v4.471h-1.693v-6.34H45.667z"/>
	<path fill="#FCFCFC" d="M50.582,73.449c0-0.973,0.232-1.756,0.695-2.35c0.463-0.595,1.086-0.892,1.871-0.892
		c0.694,0,1.235,0.237,1.623,0.715l0.069-0.598h1.535v6.129c0,0.555-0.125,1.037-0.377,1.446c-0.252,0.41-0.606,0.724-1.063,0.938
		c-0.457,0.216-0.992,0.322-1.605,0.322c-0.465,0-0.918-0.093-1.359-0.277s-0.775-0.426-1.002-0.719l0.75-1.031
		c0.422,0.474,0.934,0.709,1.535,0.709c0.449,0,0.799-0.118,1.049-0.358s0.375-0.582,0.375-1.023v-0.34
		c-0.391,0.441-0.904,0.662-1.541,0.662c-0.762,0-1.377-0.297-1.848-0.893c-0.471-0.597-0.707-1.388-0.707-2.371V73.449z
		 M52.275,73.576c0,0.574,0.115,1.025,0.346,1.352c0.23,0.328,0.547,0.49,0.949,0.49c0.516,0,0.885-0.193,1.107-0.58v-2.67
		c-0.228-0.389-0.593-0.582-1.097-0.582c-0.406,0-0.726,0.167-0.957,0.5C52.393,72.418,52.275,72.914,52.275,73.576z"/>
	<path fill="#FCFCFC" d="M64.463,76.021c-0.418,0.508-0.996,0.762-1.734,0.762c-0.68,0-1.196-0.195-1.555-0.586
		c-0.357-0.391-0.541-0.963-0.549-1.717v-4.154h1.693v4.102c0,0.66,0.301,0.99,0.902,0.99c0.573,0,0.969-0.199,1.184-0.598v-4.494
		h1.699v6.34H64.51L64.463,76.021z"/>
	<path fill="#FCFCFC" d="M68.939,70.326l0.053,0.732c0.453-0.566,1.061-0.851,1.822-0.851c0.672,0,1.172,0.196,1.5,0.592
		s0.496,0.984,0.504,1.771v4.096h-1.693v-4.055c0-0.359-0.078-0.619-0.234-0.781s-0.416-0.244-0.779-0.244
		c-0.477,0-0.834,0.203-1.071,0.609v4.471h-1.692v-6.34H68.939z"/>
	<path fill="#FCFCFC" d="M73.838,73.449c0-0.988,0.223-1.775,0.666-2.361s1.049-0.879,1.818-0.879c0.617,0,1.127,0.23,1.529,0.691
		v-3.234h1.698v9h-1.528l-0.082-0.674c-0.422,0.527-0.965,0.791-1.629,0.791c-0.746,0-1.345-0.293-1.795-0.881
		C74.064,75.314,73.838,74.496,73.838,73.449z M75.531,73.576c0,0.594,0.104,1.051,0.311,1.367c0.207,0.315,0.508,0.475,0.902,0.475
		c0.523,0,0.893-0.221,1.107-0.662V72.25c-0.211-0.441-0.576-0.664-1.097-0.664C75.939,71.586,75.531,72.25,75.531,73.576z"/>
	<path fill="#FCFCFC" d="M30.546,84.969h-3.375v2.285h3.961v1.412h-5.719v-8.531h5.707v1.424h-3.949v2.033h3.375V84.969z"/>
	<path fill="#FCFCFC" d="M32.041,80.686c0-0.254,0.085-0.463,0.255-0.627s0.401-0.246,0.694-0.246c0.289,0,0.52,0.082,0.691,0.246
		s0.258,0.373,0.258,0.627c0,0.258-0.087,0.469-0.261,0.633c-0.174,0.164-0.403,0.246-0.688,0.246c-0.285,0-0.515-0.082-0.688-0.246
		C32.129,81.154,32.041,80.943,32.041,80.686z M33.839,88.666H32.14v-6.34h1.699V88.666z"/>
	<path fill="#FCFCFC" d="M36.792,82.326l0.053,0.732c0.453-0.566,1.061-0.851,1.822-0.851c0.672,0,1.172,0.196,1.5,0.592
		s0.496,0.984,0.504,1.771v4.096h-1.693v-4.055c0-0.359-0.078-0.619-0.234-0.781c-0.156-0.162-0.416-0.244-0.779-0.244
		c-0.477,0-0.834,0.203-1.072,0.609v4.471H35.2v-6.34H36.792z"/>
	<path fill="#FCFCFC" d="M42.417,88.666v-5.098h-0.943v-1.242h0.943v-0.539c0-0.711,0.204-1.262,0.612-1.654
		c0.408-0.392,0.979-0.59,1.714-0.59c0.234,0,0.521,0.039,0.861,0.117l-0.018,1.313c-0.141-0.035-0.313-0.053-0.516-0.053
		c-0.637,0-0.955,0.299-0.955,0.896v0.51h1.26v1.242h-1.26v5.098H42.417z"/>
	<path fill="#FCFCFC" d="M48.043,88.666h-1.7v-9h1.7V88.666z"/>
	<path fill="#FCFCFC" d="M53.234,88.021c-0.418,0.508-0.996,0.762-1.734,0.762c-0.68,0-1.199-0.195-1.557-0.586
		c-0.358-0.391-0.539-0.963-0.547-1.717v-4.154h1.692v4.102c0,0.66,0.302,0.99,0.902,0.99c0.573,0,0.969-0.199,1.184-0.598v-4.494
		h1.699v6.34h-1.595L53.234,88.021z"/>
	<path fill="#FCFCFC" d="M59.586,86.914c0-0.207-0.104-0.369-0.309-0.488s-0.533-0.227-0.986-0.32
		c-1.508-0.315-2.262-0.957-2.262-1.922c0-0.563,0.232-1.031,0.699-1.408s1.078-0.565,1.832-0.565c0.805,0,1.446,0.188,1.93,0.567
		c0.482,0.38,0.725,0.871,0.725,1.478h-1.693c0-0.241-0.078-0.44-0.233-0.601c-0.156-0.158-0.399-0.237-0.731-0.237
		c-0.285,0-0.507,0.063-0.662,0.192c-0.156,0.13-0.234,0.293-0.234,0.492c0,0.188,0.088,0.34,0.266,0.455s0.479,0.215,0.9,0.299
		c0.421,0.084,0.777,0.179,1.066,0.283c0.895,0.328,1.342,0.896,1.342,1.705c0,0.578-0.248,1.047-0.744,1.404
		s-1.137,0.535-1.922,0.535c-0.531,0-1.004-0.094-1.416-0.283s-0.734-0.449-0.969-0.779c-0.236-0.33-0.353-0.688-0.353-1.07h1.604
		c0.017,0.302,0.127,0.531,0.334,0.691s0.484,0.24,0.832,0.24c0.324,0,0.568-0.061,0.734-0.184S59.586,87.113,59.586,86.914z"/>
	<path fill="#FCFCFC" d="M65.756,86.914c0-0.207-0.104-0.369-0.309-0.488s-0.533-0.227-0.986-0.32
		c-1.508-0.315-2.262-0.957-2.262-1.922c0-0.563,0.232-1.031,0.699-1.408s1.078-0.565,1.832-0.565c0.805,0,1.447,0.188,1.93,0.567
		c0.482,0.38,0.725,0.871,0.725,1.478h-1.693c0-0.241-0.078-0.44-0.233-0.601c-0.155-0.158-0.399-0.237-0.731-0.237
		c-0.285,0-0.506,0.063-0.662,0.192c-0.156,0.13-0.234,0.293-0.234,0.492c0,0.188,0.088,0.34,0.266,0.455s0.479,0.215,0.9,0.299
		s0.777,0.179,1.066,0.283c0.895,0.328,1.342,0.896,1.342,1.705c0,0.578-0.248,1.047-0.744,1.404s-1.137,0.535-1.922,0.535
		c-0.531,0-1.004-0.094-1.416-0.283s-0.734-0.449-0.969-0.779C62.118,87.391,62,87.033,62,86.65h1.605
		c0.016,0.301,0.127,0.531,0.334,0.69c0.207,0.16,0.483,0.24,0.832,0.24c0.324,0,0.567-0.062,0.733-0.185
		S65.756,87.113,65.756,86.914z"/>
</g>
<path fill="none" d="M48.338,16.733c0,1.147-0.945,2.092-2.125,2.092c-1.113,0-2.057-0.944-2.057-2.092
	c0-1.112,0.943-2.057,2.057-2.091C47.359,14.643,48.338,15.621,48.338,16.733z"/>
<g>
	<g>
		<g id="XMLID_4_">
			<g>
				<path fill="#FF4A51" d="M56.6,41.05c0.01,0.57-0.131,1.11-0.381,1.58c-0.148,0.26-0.318,0.5-0.529,0.7
					c-0.069,0.08-0.141,0.14-0.221,0.21c-0.539,0.45-1.229,0.73-2,0.75c-0.119,0-0.25,0-0.369-0.02
					c-0.199-0.02-0.41-0.06-0.601-0.12c-0.101-0.03-0.19-0.07-0.29-0.11c-0.46-0.2-0.87-0.51-1.2-0.9v-0.01
					c-0.188-0.23-0.35-0.49-0.479-0.77c0-0.01,0-0.01,0-0.01c-0.039-0.1-0.079-0.2-0.109-0.3c-0.1-0.3-0.15-0.61-0.16-0.93
					c-0.029-1.72,1.381-3.14,3.17-3.17C55.148,37.91,56.568,39.29,56.6,41.05z"/>
				<path fill="#FFFFFF" d="M52.499,44.15c0.19,0.06,0.399,0.1,0.601,0.12C52.898,44.25,52.689,44.21,52.499,44.15z"/>
				<path fill="#FFFFFF" d="M51.009,43.14c0.33,0.39,0.74,0.7,1.2,0.9C51.749,43.84,51.329,43.53,51.009,43.14z"/>
				<path fill="#FF4A51" d="M47.459,49.721c0-1.761,1.42-3.171,3.17-3.171c1.76,0,3.17,1.41,3.17,3.171
					c0,0.329-0.05,0.649-0.14,0.949c-0.07,0.2-0.142,0.38-0.24,0.561c-0.149,0.271-0.33,0.521-0.55,0.729
					c-0.141,0.14-0.301,0.271-0.471,0.39c-0.16,0.11-0.34,0.211-0.529,0.291c-0.102,0.039-0.2,0.069-0.29,0.109
					c-0.2,0.061-0.41,0.1-0.62,0.12c-0.109,0.01-0.221,0.021-0.33,0.021C48.879,52.891,47.459,51.471,47.459,49.721z"/>
				<path fill="#FFFFFF" d="M50.529,42.36c0.13,0.28,0.289,0.54,0.479,0.77C50.809,42.9,50.648,42.64,50.529,42.36z"/>
				<path fill="#FFFFFF" d="M50.419,42.05c0.03,0.1,0.069,0.2,0.11,0.3C50.479,42.25,50.439,42.15,50.419,42.05z"/>
				<path fill="#FF4A51" d="M44.949,44.09c-0.07-0.15-0.1-0.31-0.09-0.48c0-0.67,0.65-1.25,1.29-1.21c0.34,0.01,0.64,0.17,0.86,0.4
					s0.351,0.54,0.351,0.88c0,0.08-0.01,0.16-0.029,0.24c-0.061,0.23-0.18,0.44-0.35,0.61c-0.24,0.24-0.561,0.38-0.9,0.36
					c-0.09,0-0.17-0.02-0.25-0.04s-0.16-0.04-0.23-0.08c-0.14-0.07-0.27-0.16-0.39-0.28C45.109,44.38,45.019,44.24,44.949,44.09z"/>
				<path fill="#FFFFFF" d="M46.979,44.53c0.17-0.17,0.291-0.38,0.351-0.61C47.279,44.16,47.148,44.38,46.979,44.53z"/>
				<path fill="#FF4A51" d="M46.049,38.92c-1.76-0.03-3.14-1.45-3.11-3.2c0-0.11,0.01-0.22,0.02-0.33c0.16-1.26,1.06-2.3,2.22-2.67
					c0.31-0.1,0.63-0.15,0.97-0.14c1.75,0.04,3.169,1.52,3.13,3.24C49.219,37.58,47.799,38.96,46.049,38.92z"/>
				<path fill="#FFFFFF" d="M41.189,39.06c-0.06-0.08-0.13-0.16-0.2-0.22c-0.57-0.57-1.35-0.91-2.23-0.89
					c-0.11,0-0.22,0.01-0.32,0.02c-1.62,0.14-2.85,1.53-2.85,3.21c0,1.49,1.13,2.77,2.57,3.05c0.2,0.04,0.41,0.06,0.63,0.06
					c0.11,0,0.22-0.01,0.32-0.02c1.5-0.15,2.68-1.36,2.8-2.86c0.02-0.11,0.02-0.22,0.02-0.33s-0.01-0.22-0.02-0.33
					c-0.03-0.21-0.07-0.42-0.14-0.62C41.649,39.73,41.449,39.36,41.189,39.06z M50.629,46.55c-1.75,0-3.17,1.41-3.17,3.171
					c0,1.75,1.42,3.17,3.17,3.17c0.109,0,0.221-0.011,0.33-0.021c0.21-0.021,0.42-0.062,0.62-0.12c0.09-0.04,0.188-0.07,0.29-0.109
					c0.189-0.08,0.369-0.17,0.529-0.291c0.181-0.108,0.34-0.238,0.471-0.39c0.22-0.21,0.398-0.46,0.55-0.729
					c0.101-0.17,0.181-0.359,0.24-0.561c0.09-0.3,0.14-0.62,0.14-0.949C53.799,47.96,52.389,46.55,50.629,46.55z M56.219,42.63
					c0.25-0.47,0.391-1.01,0.381-1.58c-0.029-1.76-1.449-3.14-3.17-3.1c-1.791,0.03-3.201,1.45-3.171,3.17
					c0.011,0.32,0.062,0.63,0.16,0.93c0.021,0.1,0.06,0.2,0.11,0.3c0,0,0,0,0,0.01c0.119,0.28,0.279,0.54,0.479,0.77v0.01
					c0.32,0.39,0.74,0.7,1.2,0.9c0.101,0.04,0.19,0.08,0.29,0.11c0.189,0.06,0.4,0.1,0.6,0.12c0.12,0.02,0.25,0.02,0.37,0.02
					c0.771-0.02,1.46-0.3,2-0.75c0.08-0.06,0.16-0.13,0.222-0.21C55.909,43.12,56.079,42.89,56.219,42.63z M57.818,53.391
					c2.32-0.061,4.479,0.439,6.471,1.59c0.51,0.301,0.84,0.641,0.74,1.25c-0.102,0.811-0.91,1.109-1.721,0.74
					c-1.011-0.439-2.051-0.951-3.101-1.181c-2.56-0.54-5.06-0.101-7.42,0.97c-2.12,1.021-4.351,1.62-6.71,1.62
					c-6.68,0-12.51-4.58-14.23-11.06c-2.13-8.062,3-16.42,11.33-18.11c8.03-1.62,15.98,3.71,17.37,11.81
					c0.771,4.38-0.239,8.36-3,11.871c-0.108,0.129-0.21,0.301-0.31,0.471C57.439,53.359,57.609,53.391,57.818,53.391z M46.079,44.89
					c0.34,0.02,0.659-0.12,0.899-0.36c0.17-0.15,0.301-0.37,0.351-0.61c0.021-0.08,0.03-0.16,0.03-0.24
					c0-0.34-0.131-0.65-0.352-0.88c-0.21-0.24-0.52-0.4-0.86-0.4c-0.64-0.04-1.29,0.54-1.29,1.21c-0.01,0.17,0.02,0.33,0.09,0.48
					c0.05,0.15,0.14,0.29,0.26,0.4c0.11,0.12,0.24,0.21,0.39,0.28c0.07,0.04,0.15,0.06,0.23,0.08S45.989,44.89,46.079,44.89z
					 M44.759,49.779c0-0.569-0.15-1.109-0.41-1.579c-0.04-0.07-0.08-0.15-0.13-0.22c-0.04-0.051-0.07-0.11-0.12-0.16
					c-0.28-0.391-0.66-0.711-1.1-0.93c-0.11-0.061-0.22-0.111-0.33-0.15c-0.04-0.01-0.09-0.03-0.13-0.04
					c-0.19-0.06-0.38-0.101-0.58-0.12c-0.12-0.02-0.24-0.03-0.37-0.03c-0.11,0-0.22,0.011-0.33,0.021
					c-0.21,0.02-0.42,0.06-0.62,0.119c-0.1,0.041-0.2,0.07-0.29,0.11c-0.48,0.2-0.9,0.511-1.23,0.9
					c-0.13,0.159-0.25,0.329-0.35,0.51c-0.25,0.44-0.4,0.94-0.41,1.47c0,0.34,0.06,0.67,0.17,0.98c0.06,0.18,0.13,0.359,0.23,0.52
					c0.53,1.021,1.61,1.711,2.83,1.711C43.349,52.891,44.729,51.5,44.759,49.779z M42.939,35.72c-0.03,1.75,1.35,3.17,3.11,3.2
					c1.75,0.04,3.17-1.34,3.23-3.1c0.039-1.72-1.381-3.2-3.13-3.24c-0.34-0.01-0.66,0.04-0.97,0.14c-1.19,0.35-2.09,1.38-2.22,2.67
					C42.949,35.5,42.939,35.61,42.939,35.72z"/>
				<path fill="#FFFFFF" d="M45.829,44.85c0.08,0.02,0.16,0.04,0.25,0.04C45.989,44.89,45.909,44.87,45.829,44.85z"/>
				<path fill="#FFFFFF" d="M45.209,44.49c0.12,0.12,0.25,0.21,0.39,0.28C45.449,44.7,45.319,44.61,45.209,44.49z"/>
				<path fill="#FFFFFF" d="M44.949,44.09c0.07,0.15,0.16,0.29,0.26,0.4C45.089,44.38,44.999,44.24,44.949,44.09z"/>
				<path fill="#FFFFFF" d="M44.219,47.98c-0.04-0.062-0.07-0.11-0.12-0.16C44.149,47.87,44.179,47.93,44.219,47.98z"/>
				<path fill="#FFFFFF" d="M42.539,46.7c-0.19-0.06-0.38-0.11-0.58-0.12C42.159,46.6,42.349,46.641,42.539,46.7z"/>
				<path fill="#FF4A51" d="M41.929,41.08c0,0.11,0,0.22-0.02,0.33c-0.15,1.49-1.32,2.69-2.8,2.86c-0.1,0.01-0.21,0.02-0.32,0.02
					c-0.22,0-0.43-0.02-0.63-0.06c-1.43-0.3-2.54-1.57-2.54-3.05c0-1.67,1.22-3.02,2.82-3.21c0.1-0.01,0.21-0.02,0.32-0.02
					c0.88,0.01,1.66,0.35,2.23,0.89c0.07,0.07,0.14,0.14,0.2,0.22c0.26,0.3,0.46,0.67,0.58,1.07c0.07,0.2,0.11,0.41,0.14,0.62
					C41.919,40.86,41.929,40.97,41.929,41.08z"/>
				<path fill="#FF4A51" d="M41.589,46.55c0.13,0,0.25,0.011,0.37,0.03c0.2,0.01,0.39,0.061,0.58,0.12
					c0.04,0.01,0.09,0.03,0.13,0.04c0.12,0.039,0.23,0.09,0.33,0.15c0.44,0.219,0.82,0.539,1.1,0.93c0.05,0.05,0.08,0.1,0.12,0.16
					c0.05,0.068,0.09,0.148,0.13,0.22c0.25,0.46,0.39,0.989,0.38,1.55c-0.03,1.75-1.42,3.1-3.17,3.1c-1.2,0-2.25-0.688-2.8-1.67
					c-0.09-0.17-0.17-0.34-0.23-0.52c-0.09-0.301-0.14-0.61-0.14-0.939c0-0.551,0.14-1.061,0.38-1.511
					c0.1-0.181,0.22-0.351,0.35-0.51c0.34-0.392,0.76-0.7,1.23-0.9c0.09-0.04,0.19-0.069,0.29-0.11c0.2-0.06,0.41-0.1,0.62-0.119
					C41.369,46.561,41.479,46.55,41.589,46.55z"/>
				<path fill="#FFFFFF" d="M41.909,40.75c-0.03-0.21-0.07-0.42-0.14-0.62C41.839,40.33,41.879,40.54,41.909,40.75z"/>
				<path fill="#FFFFFF" d="M39.109,44.27c1.48-0.17,2.65-1.37,2.8-2.86C41.789,42.91,40.609,44.12,39.109,44.27z"/>
				<path fill="#FFFFFF" d="M40.989,38.84c0.07,0.06,0.14,0.14,0.2,0.22C41.129,38.98,41.059,38.91,40.989,38.84z"/>
				<path fill="#FFFFFF" d="M38.759,37.95c0.88-0.02,1.66,0.32,2.23,0.89C40.419,38.3,39.639,37.96,38.759,37.95z"/>
				<path fill="#FFFFFF" d="M38.769,48.21c-0.24,0.45-0.38,0.96-0.38,1.511c0,0.329,0.05,0.641,0.14,0.939
					c-0.11-0.311-0.17-0.641-0.17-0.98C38.369,49.15,38.519,48.65,38.769,48.21z"/>
			</g>
		</g>
	</g>
	<path fill="none" stroke="#FFFFFF" stroke-width="2.3608" stroke-miterlimit="10" d="M56.465,54.337
		c0.844,0.304,2.9-0.606,6.848,1.45c5.06,2.631,8.465,5.497,12.851,5.497c3.338,0,5.125-1.315,7.485-3.474
		c0.236-0.203,1.519-1.854,2.361-2.463"/>
	<path fill="#FFFFFF" d="M86.717,56.293c0.574-0.506,1.08-0.943,1.855-1.618c-1.248-0.235-1.82-0.473-2.832-0.741
		c-0.338,0.168-0.709,0.605-1.08,1.012C83.109,56.664,86.145,56.766,86.717,56.293z"/>
	<g>
		<g>
			
				<line fill="none" stroke="#FFFFFF" stroke-width="3.3725" stroke-linecap="square" stroke-miterlimit="10" x1="48.676" y1="25.231" x2="49.484" y2="10.966"/>
			<g>
				<polygon fill="#FFFFFF" points="55.082,15.722 49.383,12.889 43.381,15.081 49.99,1.489 				"/>
			</g>
		</g>
	</g>
	<g>
		<g>
			
				<line fill="none" stroke="#FFFFFF" stroke-width="3.3725" stroke-linecap="square" stroke-miterlimit="10" x1="26.18" y1="40.779" x2="12.387" y2="37.036"/>
			<g>
				<polygon fill="#FFFFFF" points="18.221,32.551 14.275,37.542 15.152,43.882 3.246,34.574 				"/>
			</g>
		</g>
	</g>
	<g>
		<g>
			
				<line fill="none" stroke="#FFFFFF" stroke-width="3.3725" stroke-linecap="square" stroke-miterlimit="10" x1="80.107" y1="38.048" x2="66.313" y2="41.791"/>
			<g>
				<polygon fill="#FFFFFF" points="89.246,35.586 77.342,44.895 78.219,38.554 74.273,33.563 				"/>
			</g>
		</g>
	</g>
</g>
</svg>
