<?xml version="1.0" encoding="utf-8"?>
<!-- Generator: Adobe Illustrator 16.0.3, SVG Export Plug-In . SVG Version: 6.00 Build 0)  -->
<!DOCTYPE svg PUBLIC "-//W3C//DTD SVG 1.1//EN" "http://www.w3.org/Graphics/SVG/1.1/DTD/svg11.dtd" [
	<!ENTITY ns_extend "http://ns.adobe.com/Extensibility/1.0/">
	<!ENTITY ns_ai "http://ns.adobe.com/AdobeIllustrator/10.0/">
	<!ENTITY ns_graphs "http://ns.adobe.com/Graphs/1.0/">
	<!ENTITY ns_vars "http://ns.adobe.com/Variables/1.0/">
	<!ENTITY ns_imrep "http://ns.adobe.com/ImageReplacement/1.0/">
	<!ENTITY ns_sfw "http://ns.adobe.com/SaveForWeb/1.0/">
	<!ENTITY ns_custom "http://ns.adobe.com/GenericCustomNamespace/1.0/">
	<!ENTITY ns_adobe_xpath "http://ns.adobe.com/XPath/1.0/">
]>
<svg version="1.1" xmlns:x="&ns_extend;" xmlns:i="&ns_ai;" xmlns:graph="&ns_graphs;"
	 xmlns="http://www.w3.org/2000/svg" xmlns:xlink="http://www.w3.org/1999/xlink" x="0px" y="0px" width="290.9px" height="290.9px"
	 viewBox="0 0 290.9 290.9" style="enable-background:new 0 0 290.9 290.9;" xml:space="preserve">
<style type="text/css">
<![CDATA[
	.st0{fill:#2F98C1;}
	.st1{opacity:0.75;fill:#FFFFFF;}
	.st2{fill:#FFFFFF;}
	.st3{display:inline;}
	.st4{display:none;}
	.st5{opacity:0.74;fill:#FFFFFF;}
]]>
</style>
<metadata>
	<sfw  xmlns="&ns_sfw;">
		<slices></slices>
		<sliceSourceBounds  width="891.3" height="290.9" y="-7" x="-9.9" bottomLeftOrigin="true"></sliceSourceBounds>
	</sfw>
</metadata>
<g id="Ebene_1">
	<path class="st0" d="M254.4,290.9H36.5C16.4,290.9,0,274.5,0,254.4V36.5C0,16.4,16.4,0,36.5,0h217.9c20.1,0,36.5,16.4,36.5,36.5
		v217.9C290.9,274.5,274.5,290.9,254.4,290.9z"/>
	<g>
		<path class="st2" d="M117.9,215.1c-0.2-4.1-0.4-9-0.4-13.3h-0.1c-1,3.9-2.3,8.1-3.8,12.1l-4.6,13.7h-4.5l-4.2-13.5
			c-1.2-4-2.4-8.4-3.2-12.3H97c-0.1,4.1-0.3,9.2-0.6,13.5L95.8,228h-5.4l2.1-31.7h7.6l4.1,12.7c1.1,3.7,2.1,7.5,2.9,11h0.1
			c0.8-3.4,1.9-7.3,3.1-11l4.4-12.7h7.5l1.8,31.7h-5.6L117.9,215.1z"/>
		<path class="st2" d="M136.4,198.7c0,1.7-1.3,3.1-3.3,3.1c-1.9,0-3.2-1.4-3.2-3.1c0-1.8,1.3-3.1,3.2-3.1
			C135.1,195.5,136.3,196.9,136.4,198.7z M130.2,228v-22.9h5.8V228H130.2z"/>
		<path class="st2" d="M159.1,227.3c-1.2,0.6-3.6,1.2-6.5,1.2c-7.1,0-11.8-4.6-11.8-11.7c0-6.9,4.7-12.2,12.7-12.2
			c2.1,0,4.3,0.5,5.6,1.1l-1,4.3c-0.9-0.4-2.3-0.9-4.4-0.9c-4.4,0-7,3.2-7,7.4c0,4.7,3.1,7.4,7,7.4c2,0,3.4-0.4,4.6-0.9L159.1,227.3
			z"/>
		<path class="st2" d="M163.4,212.5c0-3.1,0-5.3-0.2-7.4h5l0.2,4.4h0.2c1.1-3.2,3.8-4.9,6.3-4.9c0.6,0,0.9,0,1.4,0.1v5.5
			c-0.5-0.1-1-0.2-1.7-0.2c-2.8,0-4.7,1.8-5.2,4.4c-0.1,0.5-0.2,1.1-0.2,1.8V228h-5.8V212.5z"/>
		<path class="st2" d="M201.4,216.3c0,8.4-5.9,12.2-11.7,12.2c-6.5,0-11.5-4.5-11.5-11.8c0-7.5,4.9-12.1,11.8-12.1
			C196.9,204.6,201.4,209.4,201.4,216.3z M184.2,216.6c0,4.4,2.2,7.8,5.7,7.8c3.3,0,5.6-3.2,5.6-7.8c0-3.6-1.6-7.7-5.5-7.7
			C185.8,208.8,184.2,212.7,184.2,216.6z"/>
		<path class="st2" d="M51.9,235.7v31.7h-5.8v-31.7H51.9z"/>
		<path class="st2" d="M58.5,251.3c0-2.6,0-4.8-0.2-6.8h5.1l0.3,3.4h0.1c1-1.8,3.5-3.9,7.3-3.9c4,0,8.1,2.6,8.1,9.8v13.6h-5.8v-12.9
			c0-3.3-1.2-5.8-4.4-5.8c-2.3,0-3.9,1.6-4.5,3.4c-0.2,0.5-0.2,1.2-0.2,1.9v13.4h-5.8V251.3z"/>
		<path class="st2" d="M86.1,267.4v-18.6H83v-4.3h3.1v-1c0-2.9,1.2-5.7,3.4-7.6c2-1.6,4.6-2.4,8.1-2.4c3.1,0,5.9,0.6,7.9,1.7v32.1
			h-5.8v-29c-0.6-0.3-1.6-0.5-3-0.5c-3.5,0-4.8,2.5-4.8,5.6v1h4.7v4.3h-4.7v18.6H86.1z"/>
		<path class="st2" d="M132.2,260.5c0,2.7,0.1,5,0.2,6.9h-5.1l-0.3-3.5h-0.1c-1,1.6-3.2,4-7.3,4c-4.2,0-8-2.5-8-10v-13.4h5.8v12.5
			c0,3.8,1.2,6.3,4.3,6.3c2.3,0,3.8-1.6,4.4-3.1c0.2-0.5,0.3-1.1,0.3-1.8v-13.8h5.8V260.5z"/>
		<path class="st2" d="M142.5,257.6c0.1,4.1,3.4,5.9,7,5.9c2.7,0,4.6-0.4,6.3-1l0.8,4c-2,0.8-4.7,1.4-8,1.4
			c-7.4,0-11.8-4.6-11.8-11.6c0-6.3,3.9-12.3,11.2-12.3c7.4,0,9.9,6.1,9.9,11.1c0,1.1-0.1,1.9-0.2,2.4H142.5z M152.6,253.5
			c0-2.1-0.9-5.6-4.7-5.6c-3.6,0-5.1,3.2-5.3,5.6H152.6z"/>
		<path class="st2" d="M162.7,251.3c0-2.6,0-4.8-0.2-6.8h5.1l0.3,3.4h0.1c1-1.8,3.5-3.9,7.3-3.9c4,0,8.1,2.6,8.1,9.8v13.6h-5.8
			v-12.9c0-3.3-1.2-5.8-4.4-5.8c-2.3,0-3.9,1.6-4.5,3.4c-0.2,0.5-0.2,1.2-0.2,1.9v13.4h-5.8V251.3z"/>
		<path class="st2" d="M206.4,266.7c-1.2,0.6-3.6,1.2-6.5,1.2c-7.1,0-11.8-4.6-11.8-11.7c0-6.9,4.7-12.2,12.7-12.2
			c2.1,0,4.3,0.5,5.6,1.1l-1,4.3c-0.9-0.4-2.3-0.9-4.4-0.9c-4.4,0-7,3.2-7,7.4c0,4.7,3.1,7.4,7,7.4c2,0,3.4-0.4,4.6-0.9L206.4,266.7
			z"/>
		<path class="st2" d="M214.4,257.6c0.1,4.1,3.4,5.9,7,5.9c2.7,0,4.6-0.4,6.3-1l0.8,4c-2,0.8-4.7,1.4-8,1.4
			c-7.4,0-11.8-4.6-11.8-11.6c0-6.3,3.9-12.3,11.2-12.3c7.4,0,9.9,6.1,9.9,11.1c0,1.1-0.1,1.9-0.2,2.4H214.4z M224.4,253.5
			c0-2.1-0.9-5.6-4.7-5.6c-3.6,0-5.1,3.2-5.3,5.6H224.4z"/>
		<path class="st2" d="M234.5,251.9c0-3.1,0-5.3-0.2-7.4h5l0.2,4.4h0.2c1.1-3.2,3.8-4.9,6.3-4.9c0.6,0,0.9,0,1.4,0.1v5.5
			c-0.5-0.1-1-0.2-1.7-0.2c-2.8,0-4.7,1.8-5.2,4.4c-0.1,0.5-0.2,1.1-0.2,1.8v11.8h-5.8V251.9z"/>
	</g>
	<g class="st4">
		<g class="st3">
			<path class="st2" d="M105.3,147.4V85c5.2-11.4,13.1-18.1,26-16.6c0.9,0.1,2.2-0.7,2.9-1.5c8.2-9.2,18.2-11,29.5-7.8
				c1.1,0.3,2.6,0.2,3.5-0.4c3.8-2.5,7.4-5.2,11.1-7.9c4-1,7.4-0.5,11,0c3.5,1.7,7.6,2.8,10.5,5.3c3.9,3.3,7.6,4.2,12.6,3.6
				c16.6-1.9,27.4,8.1,28.1,25.4c0.1,2.2,0.1,4.5-0.2,6.7c-1.7,15.5-3.2,31-5.3,46.5c-0.7,5.3-1.9,10.9-4.2,15.6
				c-3,6.2-9.1,7-15.2,6.3c-5-0.5-10.5-4.9-10.6-10.2c-0.4-20.8,0.1-36.6-0.2-57.3c-0.1-4.5-0.6-7.6-3.3-7.6c-4.1,0-4.2,3.2-4.2,8.4
				c0,16.9-0.5,33.7,0.2,50.6c0.5,13.4-10.4,19.7-23.1,14.4c-1.5-0.6-2.9-3.2-3-5c-0.4-5.6-0.1-11.3-0.1-17c0-14.7-1-27.9-1-42.9
				c-0.3-6-5.9-5.7-6,0.6c0,2.1,0,1.9,0,3.7c0,19.4-0.1,38.9,0.1,58.3c0,3.4-1.1,5.1-4,6c-6.4,2-12.7,2.3-19-0.6
				c-2.7-1.2-4.1-2.8-3.9-6.2c0.4-7.5,0.2-15.1,0.2-22.7c0-11.3,0-22.6,0-34.1c0.1-7.8-6.7-7.5-6.7-0.6c-0.1,1.5-0.1,3.4-0.1,4.7
				c-0.1,17.4-0.2,34.7-0.1,52.1c0,2.2-1.1,4.5-4.1,5c-7.2,1-15.3,1.3-20.6-9.5C105.6,149.6,105.3,148.5,105.3,147.4z"/>
			<path class="st5" d="M182.3,193.2c-8.8-5.2-10.6-13.2-4.9-22.6c0.7-1.2,2.9-2.2,4.3-2.1c7.8,0.5,14-2.3,19-8.8
				c4.7,5.1,9.9,8.7,17.1,8.8c14.8,0.2,21.5-10.3,23.1-20.9c1.9-12.5,2.9-25.1,5.4-38c1.9,8.7,3.9,17.4,5.8,26.1
				c1.1,5.4,2,10.8,3,16.2c0.5,7.7,0.3,9.2,0,13.4c-0.4,6.5-0.3,8.1-1.5,12.8c-0.7,2.8-6.2,11.2-19.4,6.6
				c-16.8-5.4-33.1,5.5-49.1,8.5C184.3,193.4,183.7,193.6,182.3,193.2z"/>
		</g>
	</g>
	<path class="st2" d="M117,174.5c0-18.2,0-45.2,28.5-45.2c24.9,0,28.5,26.9,28.5,45.2"/>
	<circle class="st2" cx="145.5" cy="111.2" r="18.1"/>
	<circle class="st1" cx="222.5" cy="92.7" r="12.6"/>
	<path class="st1" d="M105.9,34.8c0,6.9-5.6,12.6-12.6,12.6c-4.3,0-12.6-5.6-12.6-12.6c0-6.9,5.6-12.6,12.6-12.6
		C100.3,22.2,105.9,27.9,105.9,34.8z"/>
	<circle class="st1" cx="49.5" cy="145.9" r="12.6"/>
	<g>
		<path class="st2" d="M117.5,32.9l22.6-10.5v5L123,34.8v0.1l17.1,7.5v5l-22.6-10.5V32.9z"/>
		<path class="st2" d="M153.9,20.7L153.9,20.7l-5.4,2.9l-0.8-3.1l6.7-3.6h3.5v30.5h-4V20.7z"/>
		<path class="st2" d="M189.3,31.8c0,10.4-3.9,16.1-10.6,16.1c-6,0-10-5.6-10.1-15.7c0-10.2,4.4-15.9,10.6-15.9
			C185.7,16.3,189.3,22.1,189.3,31.8z M172.7,32.3c0,7.9,2.4,12.5,6.2,12.5c4.2,0,6.3-4.9,6.3-12.7c0-7.5-1.9-12.5-6.2-12.5
			C175.4,19.5,172.7,23.9,172.7,32.3z"/>
		<path class="st2" d="M193.5,44.9c0-1.7,1.2-3,2.8-3s2.8,1.2,2.8,3c0,1.7-1.1,3-2.8,3C194.6,47.9,193.5,46.6,193.5,44.9z"/>
		<path class="st2" d="M223.2,31.8c0,10.4-3.9,16.1-10.6,16.1c-6,0-10-5.6-10.1-15.7c0-10.2,4.4-15.9,10.6-15.9
			C219.5,16.3,223.2,22.1,223.2,31.8z M206.6,32.3c0,7.9,2.4,12.5,6.2,12.5c4.2,0,6.3-4.9,6.3-12.7c0-7.5-1.9-12.5-6.2-12.5
			C209.2,19.5,206.6,23.9,206.6,32.3z"/>
		<path class="st2" d="M247.3,31.8c0,10.4-3.9,16.1-10.6,16.1c-6,0-10-5.6-10.1-15.7c0-10.2,4.4-15.9,10.6-15.9
			C243.6,16.3,247.3,22.1,247.3,31.8z M230.7,32.3c0,7.9,2.4,12.5,6.2,12.5c4.2,0,6.3-4.9,6.3-12.7c0-7.5-1.9-12.5-6.2-12.5
			C233.3,19.5,230.7,23.9,230.7,32.3z"/>
		<path class="st2" d="M271.4,31.8c0,10.4-3.9,16.1-10.6,16.1c-6,0-10-5.6-10.1-15.7c0-10.2,4.4-15.9,10.6-15.9
			C267.7,16.3,271.4,22.1,271.4,31.8z M254.8,32.3c0,7.9,2.4,12.5,6.2,12.5c4.2,0,6.3-4.9,6.3-12.7c0-7.5-1.9-12.5-6.2-12.5
			C257.4,19.5,254.8,23.9,254.8,32.3z"/>
	</g>
	<circle class="st1" cx="88.1" cy="98.2" r="12.6"/>
	<circle class="st1" cx="201.5" cy="158.5" r="12.6"/>
	<circle class="st1" cx="41.9" cy="60" r="12.6"/>
	<circle class="st1" cx="263.4" cy="130.8" r="12.6"/>
</g>
<g id="Ebene_2">
	<path class="st2" d="M138.7,167"/>
</g>
</svg>
