<?xml version="1.0" encoding="utf-8"?>
<!-- Generator: Adobe Illustrator 16.0.3, SVG Export Plug-In . SVG Version: 6.00 Build 0)  -->
<!DOCTYPE svg PUBLIC "-//W3C//DTD SVG 1.1//EN" "http://www.w3.org/Graphics/SVG/1.1/DTD/svg11.dtd">
<svg version="1.1" id="Ebene_1" xmlns="http://www.w3.org/2000/svg" xmlns:xlink="http://www.w3.org/1999/xlink" x="0px" y="0px"
	 width="120px" height="120px" viewBox="0 0 120 120" enable-background="new 0 0 120 120" xml:space="preserve">
<path fill="#FF9900" d="M104.948,120H15.052C6.763,120,0,113.236,0,104.948V15.052C0,6.763,6.763,0,15.052,0h89.896
	C113.237,0,120,6.763,120,15.052v89.896C120,113.236,113.237,120,104.948,120z"/>
<g>
	<rect x="0.039" y="82.857" fill="none" width="119.923" height="38.844"/>
	<path fill="#FFFFFF" d="M39.624,86.082v1.217l-1.194,0.373c0.098,0.166,0.166,0.338,0.205,0.516
		c0.039,0.18,0.059,0.371,0.059,0.576c0,0.414-0.066,0.795-0.198,1.139s-0.327,0.639-0.586,0.883s-0.583,0.434-0.974,0.566
		c-0.391,0.135-0.845,0.202-1.362,0.202c-0.112,0-0.234-0.006-0.366-0.019c-0.132-0.012-0.229-0.025-0.293-0.04
		c-0.098,0.083-0.175,0.17-0.23,0.261c-0.057,0.09-0.084,0.198-0.084,0.325c0,0.103,0.032,0.185,0.095,0.245
		c0.063,0.062,0.146,0.109,0.249,0.146s0.222,0.062,0.359,0.074c0.137,0.012,0.278,0.018,0.425,0.018h1.274
		c0.396,0,0.75,0.045,1.062,0.135c0.313,0.092,0.577,0.229,0.795,0.414c0.217,0.186,0.384,0.422,0.501,0.707
		s0.176,0.627,0.176,1.021c0,0.465-0.093,0.883-0.278,1.256c-0.186,0.375-0.463,0.691-0.832,0.953
		c-0.369,0.261-0.826,0.461-1.373,0.6c-0.547,0.141-1.179,0.209-1.897,0.209c-0.557,0-1.042-0.053-1.458-0.156
		c-0.415-0.105-0.762-0.258-1.04-0.455s-0.487-0.436-0.626-0.714c-0.14-0.278-0.209-0.593-0.209-0.944
		c0-0.299,0.051-0.557,0.154-0.777c0.103-0.219,0.239-0.407,0.41-0.563s0.365-0.283,0.583-0.381c0.217-0.098,0.44-0.173,0.67-0.228
		c-0.103-0.043-0.204-0.104-0.304-0.183c-0.101-0.078-0.19-0.169-0.271-0.271c-0.08-0.104-0.146-0.217-0.197-0.342
		c-0.052-0.123-0.077-0.254-0.077-0.391c0-0.156,0.023-0.299,0.069-0.426s0.114-0.244,0.202-0.355
		c0.088-0.109,0.198-0.213,0.33-0.311s0.281-0.197,0.447-0.301c-0.43-0.186-0.771-0.482-1.022-0.893s-0.377-0.895-0.377-1.451
		c0-0.439,0.068-0.832,0.205-1.179s0.337-0.642,0.601-0.882c0.264-0.242,0.591-0.427,0.981-0.554s0.84-0.19,1.348-0.19
		c0.098,0,0.208,0.006,0.33,0.018c0.122,0.014,0.243,0.027,0.363,0.045c0.119,0.018,0.23,0.035,0.333,0.055s0.183,0.037,0.242,0.051
		H39.624z M33.765,95.414c0,0.121,0.026,0.24,0.077,0.355c0.052,0.113,0.136,0.215,0.253,0.303s0.271,0.158,0.461,0.209
		s0.425,0.077,0.703,0.077c0.762,0,1.335-0.107,1.721-0.322s0.579-0.503,0.579-0.864c0-0.308-0.12-0.513-0.359-0.615
		s-0.61-0.154-1.113-0.154h-1.033c-0.132,0-0.273,0.016-0.425,0.049c-0.151,0.031-0.291,0.086-0.417,0.164s-0.233,0.182-0.318,0.311
		C33.807,95.056,33.765,95.219,33.765,95.414z M34.57,88.748c0,0.445,0.083,0.789,0.249,1.033s0.417,0.366,0.754,0.366
		c0.352,0,0.605-0.122,0.762-0.366s0.234-0.588,0.234-1.033c0-0.439-0.077-0.788-0.23-1.047c-0.154-0.259-0.409-0.389-0.766-0.389
		C34.905,87.313,34.57,87.791,34.57,88.748z"/>
	<path fill="#FFFFFF" d="M44.722,94.402c-0.586,0-1.125-0.085-1.619-0.256s-0.918-0.428-1.274-0.773
		c-0.356-0.344-0.634-0.777-0.831-1.303c-0.198-0.525-0.297-1.142-0.297-1.85c0-0.718,0.09-1.346,0.271-1.883
		s0.433-0.984,0.758-1.344c0.324-0.359,0.715-0.629,1.172-0.809c0.456-0.182,0.963-0.271,1.52-0.271
		c0.542,0,1.031,0.082,1.469,0.246c0.437,0.163,0.808,0.403,1.113,0.721c0.305,0.317,0.539,0.707,0.703,1.168
		c0.163,0.461,0.245,0.99,0.245,1.586v1.084h-4.995c0.01,0.313,0.06,0.595,0.15,0.846c0.09,0.252,0.217,0.465,0.381,0.637
		c0.163,0.174,0.361,0.307,0.593,0.4c0.232,0.092,0.497,0.139,0.795,0.139c0.249,0,0.484-0.014,0.707-0.041
		c0.222-0.025,0.438-0.066,0.648-0.12s0.417-0.12,0.623-0.202c0.205-0.08,0.415-0.174,0.63-0.281v1.729
		c-0.195,0.103-0.392,0.189-0.59,0.26c-0.197,0.071-0.406,0.131-0.626,0.18s-0.457,0.084-0.71,0.105
		C45.303,94.393,45.024,94.402,44.722,94.402z M44.436,87.504c-0.396,0-0.724,0.139-0.985,0.417S43.04,88.637,43,89.232h2.849
		c-0.005-0.25-0.037-0.479-0.095-0.689c-0.059-0.209-0.146-0.391-0.264-0.545s-0.264-0.275-0.439-0.363S44.67,87.504,44.436,87.504z
		"/>
	<path fill="#FFFFFF" d="M55.093,94.256h-6.021v-1.318l3.347-5.163h-3.12v-1.706h5.654v1.449l-3.237,5.032h3.376V94.256z"/>
	<path fill="#FFFFFF" d="M56.602,83.951c0-0.21,0.032-0.385,0.095-0.523s0.15-0.252,0.26-0.338c0.11-0.084,0.239-0.145,0.389-0.179
		c0.148-0.034,0.306-0.052,0.472-0.052s0.322,0.018,0.469,0.052s0.275,0.095,0.384,0.179c0.11,0.086,0.198,0.199,0.264,0.338
		c0.066,0.139,0.099,0.313,0.099,0.523c0,0.205-0.033,0.379-0.099,0.52c-0.065,0.143-0.153,0.256-0.264,0.342
		c-0.109,0.085-0.238,0.146-0.384,0.182c-0.146,0.037-0.303,0.056-0.469,0.056s-0.324-0.019-0.472-0.056
		c-0.149-0.035-0.278-0.097-0.389-0.182c-0.109-0.086-0.196-0.199-0.26-0.342C56.633,84.33,56.602,84.156,56.602,83.951z
		 M58.931,94.256h-2.234v-8.188h2.234V94.256z"/>
	<path fill="#FFFFFF" d="M64.871,94.402c-0.586,0-1.126-0.085-1.619-0.256s-0.918-0.428-1.274-0.773
		c-0.356-0.344-0.634-0.777-0.831-1.303c-0.198-0.525-0.297-1.142-0.297-1.85c0-0.718,0.09-1.346,0.271-1.883
		c0.18-0.537,0.433-0.984,0.758-1.344c0.324-0.359,0.715-0.629,1.172-0.809c0.456-0.182,0.963-0.271,1.52-0.271
		c0.542,0,1.031,0.082,1.469,0.246c0.437,0.163,0.808,0.403,1.113,0.721c0.305,0.317,0.539,0.707,0.703,1.168
		c0.163,0.461,0.245,0.99,0.245,1.586v1.084h-4.995c0.01,0.313,0.06,0.595,0.15,0.846c0.09,0.252,0.217,0.465,0.381,0.637
		c0.163,0.174,0.361,0.307,0.593,0.4c0.231,0.092,0.497,0.139,0.795,0.139c0.249,0,0.484-0.014,0.707-0.041
		c0.222-0.025,0.438-0.066,0.647-0.12c0.211-0.054,0.418-0.12,0.623-0.202c0.205-0.08,0.415-0.174,0.63-0.281v1.729
		c-0.195,0.103-0.392,0.189-0.59,0.26c-0.197,0.071-0.406,0.131-0.626,0.18s-0.457,0.084-0.711,0.105
		C65.451,94.393,65.174,94.402,64.871,94.402z M64.585,87.504c-0.396,0-0.724,0.139-0.985,0.417s-0.411,0.716-0.45,1.312h2.849
		c-0.004-0.25-0.036-0.479-0.095-0.689c-0.059-0.209-0.146-0.391-0.264-0.545s-0.264-0.275-0.439-0.363S64.819,87.504,64.585,87.504
		z"/>
	<path fill="#FFFFFF" d="M72.225,94.256H69.99V82.859h2.234V94.256z"/>
	<path fill="#FFFFFF" d="M77.893,92.623c0.221,0,0.43-0.024,0.627-0.073s0.398-0.11,0.604-0.183v1.662
		c-0.209,0.107-0.47,0.197-0.779,0.268c-0.311,0.07-0.648,0.105-1.015,0.105c-0.356,0-0.688-0.041-0.996-0.124
		s-0.573-0.228-0.798-0.437c-0.225-0.207-0.402-0.484-0.531-0.834c-0.13-0.35-0.194-0.787-0.194-1.314v-3.948H73.74v-0.944
		l1.23-0.748l0.645-1.729h1.428v1.744h1.992v1.677h-1.992v3.948c0,0.316,0.078,0.551,0.234,0.703
		C77.434,92.547,77.639,92.623,77.893,92.623z"/>
	<path fill="#FFFFFF" d="M84.375,94.402c-0.586,0-1.125-0.085-1.619-0.256c-0.492-0.171-0.918-0.428-1.273-0.773
		c-0.357-0.344-0.635-0.777-0.832-1.303s-0.297-1.142-0.297-1.85c0-0.718,0.091-1.346,0.271-1.883s0.434-0.984,0.758-1.344
		s0.715-0.629,1.172-0.809c0.457-0.182,0.963-0.271,1.52-0.271c0.543,0,1.031,0.082,1.469,0.246
		c0.438,0.163,0.809,0.403,1.113,0.721s0.539,0.707,0.703,1.168s0.246,0.99,0.246,1.586v1.084h-4.996
		c0.01,0.313,0.061,0.595,0.15,0.846c0.09,0.252,0.217,0.465,0.381,0.637c0.164,0.174,0.361,0.307,0.594,0.4
		c0.231,0.092,0.496,0.139,0.795,0.139c0.248,0,0.484-0.014,0.707-0.041c0.221-0.025,0.438-0.066,0.647-0.12s0.417-0.12,0.622-0.202
		c0.205-0.08,0.416-0.174,0.631-0.281v1.729c-0.195,0.103-0.393,0.189-0.59,0.26c-0.197,0.071-0.406,0.131-0.627,0.18
		c-0.219,0.049-0.456,0.084-0.71,0.105C84.956,94.393,84.678,94.402,84.375,94.402z M84.09,87.504c-0.396,0-0.725,0.139-0.986,0.417
		c-0.261,0.278-0.41,0.716-0.449,1.312h2.849c-0.005-0.25-0.036-0.479-0.095-0.689c-0.059-0.209-0.146-0.391-0.264-0.545
		s-0.264-0.275-0.439-0.363S84.324,87.504,84.09,87.504z"/>
	<path fill="#FFFFFF" d="M20.955,110.256h-6.167V99.549h6.167v1.859h-3.896v2.352h3.625v1.86h-3.625v2.761h3.896V110.256z"/>
	<path fill="#FFFFFF" d="M27.283,101.914c0.059,0,0.123,0.002,0.194,0.004s0.14,0.008,0.205,0.014
		c0.066,0.008,0.127,0.016,0.184,0.023c0.056,0.006,0.099,0.016,0.128,0.025v2.094c-0.039-0.01-0.093-0.02-0.161-0.029
		s-0.141-0.018-0.216-0.025c-0.076-0.008-0.15-0.012-0.224-0.014c-0.073-0.003-0.134-0.004-0.183-0.004
		c-0.288,0-0.553,0.036-0.794,0.109c-0.242,0.073-0.45,0.191-0.623,0.355s-0.308,0.379-0.402,0.645
		c-0.096,0.266-0.143,0.592-0.143,0.978v4.167h-2.234v-8.188h1.692l0.33,1.23h0.11c0.117-0.211,0.244-0.4,0.381-0.572
		c0.137-0.17,0.29-0.315,0.458-0.436c0.169-0.119,0.359-0.213,0.571-0.277C26.767,101.947,27.009,101.914,27.283,101.914z"/>
	<path fill="#FFFFFF" d="M36.152,102.082v1.217l-1.194,0.373c0.098,0.166,0.166,0.338,0.205,0.516
		c0.039,0.18,0.059,0.371,0.059,0.576c0,0.414-0.066,0.795-0.198,1.139s-0.327,0.639-0.586,0.883s-0.583,0.434-0.974,0.566
		c-0.391,0.135-0.845,0.202-1.362,0.202c-0.112,0-0.234-0.006-0.366-0.019c-0.132-0.012-0.229-0.025-0.293-0.04
		c-0.098,0.083-0.175,0.17-0.23,0.261c-0.057,0.09-0.084,0.198-0.084,0.325c0,0.103,0.032,0.185,0.095,0.245
		c0.063,0.062,0.146,0.109,0.249,0.146s0.222,0.062,0.359,0.074c0.137,0.012,0.278,0.018,0.425,0.018h1.274
		c0.396,0,0.75,0.045,1.062,0.135c0.313,0.092,0.577,0.229,0.795,0.414c0.217,0.186,0.384,0.422,0.501,0.707
		s0.176,0.627,0.176,1.021c0,0.465-0.093,0.883-0.278,1.256c-0.186,0.375-0.463,0.691-0.832,0.953
		c-0.369,0.261-0.826,0.461-1.373,0.6c-0.547,0.141-1.179,0.209-1.897,0.209c-0.557,0-1.042-0.053-1.458-0.156
		c-0.415-0.105-0.762-0.258-1.04-0.455s-0.487-0.436-0.626-0.714c-0.14-0.278-0.209-0.593-0.209-0.944
		c0-0.299,0.051-0.557,0.154-0.777c0.103-0.219,0.239-0.407,0.41-0.563s0.365-0.283,0.583-0.381c0.217-0.098,0.44-0.173,0.67-0.228
		c-0.103-0.043-0.204-0.104-0.304-0.183c-0.101-0.078-0.19-0.169-0.271-0.271c-0.08-0.104-0.146-0.217-0.197-0.342
		c-0.052-0.123-0.077-0.254-0.077-0.391c0-0.156,0.023-0.299,0.069-0.426s0.114-0.244,0.202-0.355
		c0.088-0.109,0.198-0.213,0.33-0.311s0.281-0.197,0.447-0.301c-0.43-0.186-0.771-0.482-1.022-0.893s-0.377-0.895-0.377-1.451
		c0-0.439,0.068-0.832,0.205-1.179s0.337-0.642,0.601-0.882c0.264-0.242,0.591-0.427,0.981-0.554s0.84-0.19,1.348-0.19
		c0.098,0,0.208,0.006,0.33,0.018c0.122,0.014,0.243,0.027,0.363,0.045c0.119,0.018,0.23,0.035,0.333,0.055s0.183,0.037,0.242,0.051
		H36.152z M30.293,111.414c0,0.121,0.026,0.24,0.077,0.355c0.052,0.113,0.136,0.215,0.253,0.303s0.271,0.158,0.461,0.209
		s0.425,0.077,0.703,0.077c0.762,0,1.335-0.107,1.721-0.322s0.579-0.503,0.579-0.864c0-0.308-0.12-0.513-0.359-0.615
		s-0.61-0.154-1.113-0.154h-1.033c-0.132,0-0.273,0.016-0.425,0.049c-0.151,0.031-0.291,0.086-0.417,0.164s-0.233,0.182-0.318,0.311
		C30.335,111.056,30.293,111.219,30.293,111.414z M31.099,104.748c0,0.445,0.083,0.789,0.249,1.033s0.417,0.366,0.754,0.366
		c0.352,0,0.605-0.122,0.762-0.366s0.234-0.588,0.234-1.033c0-0.439-0.077-0.788-0.23-1.047c-0.154-0.259-0.409-0.389-0.766-0.389
		C31.433,103.313,31.099,103.791,31.099,104.748z"/>
	<path fill="#FFFFFF" d="M42.407,110.256l-0.432-1.113h-0.066c-0.161,0.221-0.322,0.41-0.483,0.568s-0.337,0.289-0.527,0.392
		s-0.404,0.179-0.641,0.228s-0.511,0.072-0.824,0.072c-0.332,0-0.64-0.053-0.923-0.156c-0.283-0.105-0.529-0.264-0.736-0.477
		c-0.208-0.213-0.37-0.48-0.487-0.807c-0.117-0.324-0.176-0.709-0.176-1.152c0-0.869,0.278-1.51,0.835-1.924
		c0.557-0.412,1.389-0.641,2.498-0.684l1.304-0.045v-0.615c0-0.336-0.098-0.586-0.293-0.746c-0.195-0.162-0.469-0.242-0.82-0.242
		s-0.695,0.051-1.029,0.154c-0.335,0.102-0.67,0.238-1.007,0.41l-0.725-1.48c0.41-0.229,0.864-0.41,1.362-0.541
		c0.498-0.133,1.021-0.198,1.567-0.198c1.021,0,1.803,0.239,2.348,0.718c0.544,0.479,0.816,1.206,0.816,2.183v5.456H42.407z
		 M38.342,99.966c0-0.171,0.027-0.319,0.081-0.442c0.054-0.125,0.125-0.229,0.216-0.309c0.09-0.08,0.197-0.141,0.322-0.18
		c0.124-0.039,0.257-0.059,0.399-0.059s0.275,0.02,0.399,0.059c0.125,0.039,0.233,0.1,0.326,0.18s0.167,0.184,0.224,0.309
		c0.056,0.123,0.084,0.271,0.084,0.442c0,0.166-0.028,0.31-0.084,0.433c-0.057,0.121-0.131,0.223-0.224,0.303
		c-0.093,0.082-0.201,0.141-0.326,0.18c-0.124,0.039-0.257,0.059-0.399,0.059s-0.275-0.02-0.399-0.059
		c-0.125-0.039-0.232-0.098-0.322-0.18c-0.091-0.08-0.163-0.182-0.216-0.303C38.369,100.275,38.342,100.132,38.342,99.966z
		 M41.748,106.463l-0.74,0.029c-0.298,0.01-0.549,0.049-0.754,0.117s-0.37,0.16-0.495,0.273c-0.124,0.115-0.215,0.252-0.271,0.41
		c-0.057,0.16-0.084,0.336-0.084,0.531c0,0.342,0.083,0.586,0.249,0.729c0.166,0.145,0.383,0.217,0.652,0.217
		c0.205,0,0.396-0.035,0.571-0.105c0.176-0.071,0.328-0.176,0.458-0.316c0.129-0.139,0.23-0.309,0.304-0.512s0.11-0.436,0.11-0.699
		V106.463z M41.294,99.966c0-0.171,0.027-0.319,0.081-0.442c0.054-0.125,0.127-0.229,0.22-0.309s0.203-0.141,0.33-0.18
		s0.264-0.059,0.41-0.059c0.137,0,0.267,0.02,0.392,0.059c0.124,0.039,0.234,0.1,0.329,0.18c0.096,0.08,0.171,0.184,0.228,0.309
		c0.056,0.123,0.084,0.271,0.084,0.442c0,0.166-0.028,0.31-0.084,0.433c-0.057,0.121-0.132,0.223-0.228,0.303
		c-0.095,0.082-0.205,0.141-0.329,0.18c-0.125,0.039-0.255,0.059-0.392,0.059c-0.293,0-0.54-0.08-0.74-0.241
		S41.294,100.293,41.294,99.966z"/>
	<path fill="#FFFFFF" d="M53.372,110.256h-2.234v-4.782c0-0.591-0.089-1.034-0.267-1.329c-0.179-0.295-0.463-0.443-0.854-0.443
		c-0.293,0-0.537,0.059-0.732,0.176s-0.351,0.291-0.465,0.52c-0.115,0.23-0.197,0.514-0.246,0.85
		c-0.049,0.338-0.073,0.723-0.073,1.158v3.852h-2.234v-8.188h1.707l0.3,1.047h0.125c0.117-0.21,0.26-0.391,0.428-0.542
		c0.169-0.151,0.353-0.276,0.553-0.374s0.413-0.169,0.637-0.215c0.225-0.047,0.454-0.07,0.688-0.07c0.4,0,0.764,0.058,1.091,0.172
		c0.327,0.115,0.608,0.295,0.842,0.539s0.415,0.555,0.542,0.934s0.19,0.831,0.19,1.358V110.256z"/>
	<path fill="#FFFFFF" d="M60.923,110.256h-6.021v-1.318l3.347-5.163h-3.12v-1.706h5.654v1.449l-3.237,5.032h3.376V110.256z"/>
	<path fill="#FFFFFF" d="M67.881,110.256l-0.301-1.047h-0.117c-0.121,0.21-0.268,0.39-0.436,0.539
		c-0.168,0.148-0.353,0.271-0.553,0.369s-0.412,0.17-0.637,0.217c-0.225,0.045-0.455,0.068-0.689,0.068
		c-0.4,0-0.764-0.057-1.091-0.172c-0.327-0.114-0.608-0.294-0.843-0.538s-0.414-0.554-0.541-0.931
		c-0.127-0.375-0.191-0.827-0.191-1.354v-5.339h2.234v4.782c0,0.591,0.089,1.034,0.268,1.329c0.178,0.296,0.463,0.443,0.854,0.443
		c0.293,0,0.537-0.059,0.732-0.176s0.35-0.291,0.465-0.52c0.114-0.23,0.196-0.514,0.245-0.85c0.049-0.338,0.073-0.723,0.073-1.158
		v-3.852h2.234v8.188H67.881z"/>
	<path fill="#FFFFFF" d="M79.035,110.256h-2.233v-4.782c0-0.591-0.089-1.034-0.267-1.329c-0.18-0.295-0.463-0.443-0.854-0.443
		c-0.293,0-0.537,0.059-0.732,0.176s-0.352,0.291-0.465,0.52c-0.115,0.23-0.197,0.514-0.246,0.85
		c-0.049,0.338-0.073,0.723-0.073,1.158v3.852h-2.233v-8.188h1.706l0.3,1.047h0.125c0.117-0.21,0.26-0.391,0.428-0.542
		c0.17-0.151,0.354-0.276,0.554-0.374s0.413-0.169,0.638-0.215c0.225-0.047,0.453-0.07,0.688-0.07c0.4,0,0.765,0.058,1.092,0.172
		c0.327,0.115,0.607,0.295,0.842,0.539s0.416,0.555,0.543,0.934s0.189,0.831,0.189,1.358V110.256z"/>
	<path fill="#FFFFFF" d="M88.11,102.082v1.217l-1.194,0.373c0.098,0.166,0.166,0.338,0.205,0.516
		c0.039,0.18,0.059,0.371,0.059,0.576c0,0.414-0.065,0.795-0.197,1.139s-0.327,0.639-0.586,0.883s-0.584,0.434-0.975,0.566
		c-0.391,0.135-0.844,0.202-1.361,0.202c-0.113,0-0.234-0.006-0.367-0.019c-0.131-0.012-0.229-0.025-0.293-0.04
		c-0.098,0.083-0.174,0.17-0.23,0.261c-0.057,0.09-0.084,0.198-0.084,0.325c0,0.103,0.031,0.185,0.096,0.245
		c0.063,0.062,0.146,0.109,0.248,0.146c0.104,0.037,0.223,0.062,0.359,0.074c0.137,0.012,0.278,0.018,0.425,0.018h1.274
		c0.396,0,0.75,0.045,1.063,0.135c0.313,0.092,0.576,0.229,0.795,0.414c0.217,0.186,0.384,0.422,0.501,0.707
		s0.176,0.627,0.176,1.021c0,0.465-0.093,0.883-0.278,1.256c-0.186,0.375-0.463,0.691-0.832,0.953
		c-0.368,0.261-0.826,0.461-1.373,0.6c-0.547,0.141-1.179,0.209-1.896,0.209c-0.557,0-1.043-0.053-1.457-0.156
		c-0.416-0.105-0.762-0.258-1.041-0.455c-0.277-0.197-0.486-0.436-0.625-0.714c-0.141-0.278-0.209-0.593-0.209-0.944
		c0-0.299,0.051-0.557,0.153-0.777c0.103-0.219,0.239-0.407,0.41-0.563s0.364-0.283,0.583-0.381c0.217-0.098,0.439-0.173,0.67-0.228
		c-0.104-0.043-0.205-0.104-0.305-0.183s-0.189-0.169-0.271-0.271c-0.08-0.104-0.146-0.217-0.197-0.342
		c-0.051-0.123-0.076-0.254-0.076-0.391c0-0.156,0.022-0.299,0.068-0.426c0.047-0.127,0.114-0.244,0.202-0.355
		c0.088-0.109,0.198-0.213,0.329-0.311c0.133-0.098,0.281-0.197,0.447-0.301c-0.43-0.186-0.771-0.482-1.021-0.893
		c-0.252-0.41-0.377-0.895-0.377-1.451c0-0.439,0.068-0.832,0.205-1.179s0.336-0.642,0.6-0.882c0.264-0.242,0.592-0.427,0.982-0.554
		s0.84-0.19,1.348-0.19c0.098,0,0.207,0.006,0.329,0.018c0.122,0.014,0.243,0.027,0.362,0.045s0.23,0.035,0.334,0.055
		c0.102,0.02,0.183,0.037,0.241,0.051H88.11z M82.251,111.414c0,0.121,0.026,0.24,0.077,0.355c0.051,0.113,0.135,0.215,0.252,0.303
		s0.271,0.158,0.462,0.209s0.425,0.077,0.703,0.077c0.762,0,1.335-0.107,1.722-0.322c0.385-0.215,0.578-0.503,0.578-0.864
		c0-0.308-0.119-0.513-0.359-0.615c-0.238-0.103-0.609-0.154-1.113-0.154H83.54c-0.132,0-0.273,0.016-0.425,0.049
		c-0.151,0.031-0.291,0.086-0.418,0.164s-0.232,0.182-0.318,0.311C82.293,111.056,82.251,111.219,82.251,111.414z M83.057,104.748
		c0,0.445,0.083,0.789,0.249,1.033s0.417,0.366,0.755,0.366c0.352,0,0.605-0.122,0.762-0.366s0.234-0.588,0.234-1.033
		c0-0.439-0.078-0.788-0.23-1.047c-0.154-0.259-0.41-0.389-0.766-0.389C83.391,103.313,83.057,103.791,83.057,104.748z"/>
	<path fill="#FFFFFF" d="M93.208,110.402c-0.586,0-1.126-0.085-1.618-0.256c-0.494-0.171-0.918-0.428-1.275-0.773
		c-0.355-0.344-0.633-0.777-0.83-1.303c-0.199-0.525-0.297-1.142-0.297-1.85c0-0.718,0.09-1.346,0.271-1.883
		s0.433-0.984,0.759-1.344c0.324-0.359,0.715-0.629,1.172-0.809c0.455-0.182,0.963-0.271,1.52-0.271
		c0.541,0,1.031,0.082,1.469,0.246c0.436,0.163,0.807,0.403,1.113,0.721c0.305,0.317,0.539,0.707,0.703,1.168
		c0.162,0.461,0.244,0.99,0.244,1.586v1.084h-4.994c0.01,0.313,0.059,0.595,0.15,0.846c0.09,0.252,0.217,0.465,0.381,0.637
		c0.162,0.174,0.36,0.307,0.592,0.4c0.232,0.092,0.498,0.139,0.795,0.139c0.25,0,0.484-0.014,0.707-0.041
		c0.223-0.025,0.438-0.066,0.648-0.12s0.418-0.12,0.623-0.202c0.205-0.08,0.414-0.174,0.629-0.281v1.729
		c-0.195,0.103-0.391,0.189-0.59,0.26c-0.197,0.071-0.406,0.131-0.625,0.18c-0.221,0.049-0.457,0.084-0.711,0.105
		C93.789,110.393,93.511,110.402,93.208,110.402z M92.922,103.504c-0.395,0-0.724,0.139-0.984,0.417
		c-0.262,0.278-0.412,0.716-0.451,1.312h2.85c-0.005-0.25-0.037-0.479-0.096-0.689c-0.059-0.209-0.146-0.391-0.264-0.545
		s-0.264-0.275-0.439-0.363S93.156,103.504,92.922,103.504z"/>
	<path fill="#FFFFFF" d="M105.432,110.256h-2.233v-4.782c0-0.591-0.089-1.034-0.267-1.329c-0.18-0.295-0.463-0.443-0.854-0.443
		c-0.293,0-0.537,0.059-0.732,0.176s-0.352,0.291-0.465,0.52c-0.115,0.23-0.197,0.514-0.246,0.85
		c-0.049,0.338-0.073,0.723-0.073,1.158v3.852h-2.233v-8.188h1.706l0.3,1.047h0.125c0.117-0.21,0.26-0.391,0.428-0.542
		c0.17-0.151,0.354-0.276,0.554-0.374s0.413-0.169,0.638-0.215c0.225-0.047,0.453-0.07,0.688-0.07c0.4,0,0.765,0.058,1.092,0.172
		c0.327,0.115,0.607,0.295,0.842,0.539s0.416,0.555,0.543,0.934s0.189,0.831,0.189,1.358V110.256z"/>
</g>
<path opacity="0.6" fill="#FFFFFF" d="M59.193,5.312c-17.417,0.28-32.78,9.986-36.042,23.755
	c-3.726,15.729,9.745,30.834,30.073,33.726c0.004,0.024-0.003,0.061-0.005,0.096l-0.117,0.004l-15.84,14.732l32.544-15.291
	l-0.32,0.011l0.209-0.159l0.466-0.016l-0.354,0.164l0.447-0.014v-0.155h0.004c14.082-3.103,23.955-11.507,26.594-22.648
	c3.728-15.736-9.76-30.847-30.102-33.731c-2.543-0.36-5.069-0.514-7.558-0.474L59.193,5.312z"/>
<g>
</g>
<g>
</g>
<g>
</g>
<g>
</g>
<g>
</g>
<g>
</g>
<g>
</g>
<g>
</g>
<g>
</g>
<g>
</g>
<g>
</g>
<g>
</g>
<g>
</g>
<g>
</g>
<g>
</g>
</svg>
