<?xml version="1.0" encoding="utf-8"?>
<!-- Generator: Adobe Illustrator 16.0.3, SVG Export Plug-In . SVG Version: 6.00 Build 0)  -->
<!DOCTYPE svg PUBLIC "-//W3C//DTD SVG 1.1//EN" "http://www.w3.org/Graphics/SVG/1.1/DTD/svg11.dtd" [
	<!ENTITY ns_extend "http://ns.adobe.com/Extensibility/1.0/">
	<!ENTITY ns_ai "http://ns.adobe.com/AdobeIllustrator/10.0/">
	<!ENTITY ns_graphs "http://ns.adobe.com/Graphs/1.0/">
	<!ENTITY ns_vars "http://ns.adobe.com/Variables/1.0/">
	<!ENTITY ns_imrep "http://ns.adobe.com/ImageReplacement/1.0/">
	<!ENTITY ns_sfw "http://ns.adobe.com/SaveForWeb/1.0/">
	<!ENTITY ns_custom "http://ns.adobe.com/GenericCustomNamespace/1.0/">
	<!ENTITY ns_adobe_xpath "http://ns.adobe.com/XPath/1.0/">
]>
<svg version="1.1" xmlns:x="&ns_extend;" xmlns:i="&ns_ai;" xmlns:graph="&ns_graphs;"
	 xmlns="http://www.w3.org/2000/svg" xmlns:xlink="http://www.w3.org/1999/xlink" x="0px" y="0px" width="290.9px" height="290.9px"
	 viewBox="0 0 290.9 290.9" style="enable-background:new 0 0 290.9 290.9;" xml:space="preserve">
<style type="text/css">
<![CDATA[
	.st0{fill:#2F98C1;}
	.st1{opacity:0.75;fill:#FFFFFF;}
	.st2{fill:#FFFFFF;}
	.st3{display:inline;}
	.st4{display:none;}
	.st5{opacity:0.74;fill:#FFFFFF;}
]]>
</style>
<metadata>
	<sfw  xmlns="&ns_sfw;">
		<slices></slices>
		<sliceSourceBounds  width="892.7" height="290.9" y="-7" x="-11.3" bottomLeftOrigin="true"></sliceSourceBounds>
	</sfw>
</metadata>
<g id="Ebene_1">
	<path class="st0" d="M254.4,290.9H36.5C16.4,290.9,0,274.5,0,254.4V36.5C0,16.4,16.4,0,36.5,0h217.9c20.1,0,36.5,16.4,36.5,36.5
		v217.9C290.9,274.5,274.5,290.9,254.4,290.9z"/>
	<g>
		<path class="st2" d="M79,221.7c1.9,1.1,4.7,2,7.7,2c3.7,0,5.8-1.7,5.8-4.3c0-2.4-1.6-3.8-5.6-5.3c-5.2-1.9-8.6-4.7-8.6-9.2
			c0-5.2,4.3-9.1,11.2-9.1c3.4,0,6,0.8,7.6,1.6l-1.4,4.7c-1.1-0.6-3.3-1.5-6.3-1.5c-3.7,0-5.3,2-5.3,3.8c0,2.4,1.8,3.6,6.1,5.2
			c5.5,2.1,8.2,4.8,8.2,9.4c0,5.1-3.9,9.5-12,9.5c-3.3,0-6.8-0.9-8.6-2L79,221.7z"/>
		<path class="st2" d="M107.7,218.2c0.1,4.1,3.4,5.9,7,5.9c2.7,0,4.6-0.4,6.3-1l0.8,4c-2,0.8-4.7,1.4-8,1.4
			c-7.4,0-11.8-4.6-11.8-11.6c0-6.3,3.9-12.3,11.2-12.3c7.4,0,9.9,6.1,9.9,11.1c0,1.1-0.1,1.9-0.2,2.4H107.7z M117.7,214.1
			c0-2.1-0.9-5.6-4.7-5.6c-3.6,0-5.1,3.2-5.3,5.6H117.7z"/>
		<path class="st2" d="M127.9,194.6h5.8V228h-5.8V194.6z"/>
		<path class="st2" d="M139.7,228c0.1-1.6,0.2-4.1,0.2-6.4v-26.9h5.8v13.6h0.1c1.4-2.2,3.9-3.7,7.3-3.7c5.6,0,9.6,4.7,9.5,11.6
			c0,8.2-5.2,12.3-10.4,12.3c-3,0-5.6-1.1-7.2-3.9H145l-0.3,3.4H139.7z M145.7,218.5c0,0.5,0,0.9,0.1,1.4c0.6,2.3,2.6,4,5.1,4
			c3.6,0,5.8-2.9,5.8-7.5c0-4-1.9-7.3-5.8-7.3c-2.4,0-4.5,1.7-5.1,4.2c-0.1,0.4-0.2,0.9-0.2,1.5V218.5z"/>
		<path class="st2" d="M167.1,222.7c1.3,0.8,3.8,1.6,5.9,1.6c2.5,0,3.7-1,3.7-2.5c0-1.6-0.9-2.4-3.8-3.3c-4.5-1.6-6.3-4-6.3-6.7
			c0-4,3.3-7.2,8.6-7.2c2.5,0,4.7,0.7,6.1,1.4l-1.1,4.1c-1-0.6-2.8-1.3-4.8-1.3c-2.1,0-3.2,1-3.2,2.4c0,1.5,1.1,2.2,4,3.2
			c4.1,1.5,6.1,3.6,6.1,7c0,4.1-3.2,7.1-9.3,7.1c-2.8,0-5.3-0.7-7-1.6L167.1,222.7z"/>
		<path class="st2" d="M193.6,198.6v6.5h5.5v4.3h-5.5v10.1c0,2.8,0.8,4.2,3,4.2c1,0,1.7-0.1,2.3-0.3l0.1,4.4
			c-0.8,0.3-2.4,0.6-4.2,0.6c-2.1,0-3.9-0.7-5-1.9c-1.2-1.3-1.8-3.4-1.8-6.4v-10.8h-3.3v-4.3h3.3v-5.2L193.6,198.6z"/>
		<path class="st2" d="M213.7,213.5v4h-12v-4H213.7z"/>
		<path class="st2" d="M39.3,244.5l3.7,11.6c0.7,2,1.1,3.9,1.6,5.7h0.1c0.4-1.9,0.9-3.7,1.6-5.7l3.6-11.6H56l-8.7,22.9h-5.7
			l-8.5-22.9H39.3z"/>
		<path class="st2" d="M63,257.6c0.1,4.1,3.4,5.9,7,5.9c2.7,0,4.6-0.4,6.3-1l0.8,4c-2,0.8-4.7,1.4-8,1.4c-7.4,0-11.8-4.6-11.8-11.6
			c0-6.3,3.9-12.3,11.2-12.3c7.4,0,9.9,6.1,9.9,11.1c0,1.1-0.1,1.9-0.2,2.4H63z M73,253.5c0-2.1-0.9-5.6-4.7-5.6
			c-3.6,0-5.1,3.2-5.3,5.6H73z"/>
		<path class="st2" d="M83.2,251.9c0-3.1,0-5.3-0.2-7.4h5l0.2,4.4h0.2c1.1-3.2,3.8-4.9,6.3-4.9c0.6,0,0.9,0,1.4,0.1v5.5
			c-0.5-0.1-1-0.2-1.7-0.2c-2.8,0-4.7,1.8-5.2,4.4c-0.1,0.5-0.2,1.1-0.2,1.8v11.8h-5.8V251.9z"/>
		<path class="st2" d="M99.9,251.3c0-2.6,0-4.8-0.2-6.8h5l0.2,3.4h0.1c1.1-1.8,3.2-3.9,7-3.9c3,0,5.4,1.7,6.3,4.2h0.1
			c0.8-1.3,1.7-2.2,2.8-2.9c1.3-0.9,2.7-1.4,4.6-1.4c3.8,0,7.7,2.6,7.7,9.9v13.5H128v-12.6c0-3.8-1.3-6.1-4.1-6.1
			c-2,0-3.4,1.4-4,3.1c-0.1,0.6-0.3,1.3-0.3,1.9v13.7h-5.6v-13.3c0-3.2-1.3-5.5-3.9-5.5c-2.2,0-3.6,1.7-4.1,3.3
			c-0.2,0.6-0.3,1.2-0.3,1.9v13.5h-5.6V251.3z"/>
		<path class="st2" d="M152.6,267.4l-0.4-2.5h-0.1c-1.4,1.8-3.8,3.1-6.8,3.1c-4.6,0-7.2-3.3-7.2-6.8c0-5.8,5.1-8.7,13.6-8.6v-0.4
			c0-1.5-0.6-4-4.7-4c-2.3,0-4.6,0.7-6.2,1.7l-1.1-3.8c1.7-1,4.7-2,8.3-2c7.3,0,9.4,4.7,9.4,9.6v8.3c0,2.1,0.1,4.1,0.3,5.5H152.6z
			 M151.9,256.2c-4.1-0.1-8,0.8-8,4.3c0,2.3,1.5,3.3,3.3,3.3c2.3,0,4-1.5,4.5-3.1c0.1-0.4,0.2-0.9,0.2-1.3V256.2z"/>
		<path class="st2" d="M163.6,251.9c0-3.1,0-5.3-0.2-7.4h5l0.2,4.4h0.2c1.1-3.2,3.8-4.9,6.3-4.9c0.6,0,0.9,0,1.4,0.1v5.5
			c-0.5-0.1-1-0.2-1.7-0.2c-2.8,0-4.7,1.8-5.2,4.4c-0.1,0.5-0.2,1.1-0.2,1.8v11.8h-5.8V251.9z"/>
		<path class="st2" d="M186.1,254.5L186.1,254.5c0.7-0.9,1.3-1.9,1.9-2.7l5.5-7.4h7l-8.5,9.4l9.7,13.5h-7.1l-6.6-10.1l-2,2.3v7.8
			h-5.8V234h5.8V254.5z"/>
		<path class="st2" d="M210.9,238v6.5h5.5v4.3h-5.5v10.1c0,2.8,0.8,4.2,3,4.2c1,0,1.7-0.1,2.3-0.3l0.1,4.4c-0.8,0.3-2.3,0.6-4.2,0.6
			c-2.1,0-3.9-0.7-5-1.9c-1.2-1.3-1.8-3.4-1.8-6.4v-10.8H202v-4.3h3.3v-5.2L210.9,238z"/>
		<path class="st2" d="M224.6,257.6c0.1,4.1,3.4,5.9,7,5.9c2.7,0,4.6-0.4,6.3-1l0.8,4c-2,0.8-4.7,1.4-8,1.4
			c-7.4,0-11.8-4.6-11.8-11.6c0-6.3,3.9-12.3,11.2-12.3c7.4,0,9.9,6.1,9.9,11.1c0,1.1-0.1,1.9-0.2,2.4H224.6z M234.6,253.5
			c0-2.1-0.9-5.6-4.7-5.6c-3.6,0-5.1,3.2-5.3,5.6H234.6z"/>
		<path class="st2" d="M244.7,251.9c0-3.1,0-5.3-0.2-7.4h5l0.2,4.4h0.2c1.1-3.2,3.8-4.9,6.3-4.9c0.6,0,0.9,0,1.4,0.1v5.5
			c-0.5-0.1-1-0.2-1.7-0.2c-2.8,0-4.7,1.8-5.2,4.4c-0.1,0.5-0.2,1.1-0.2,1.8v11.8h-5.8V251.9z"/>
	</g>
	<g class="st4">
		<g class="st3">
			<path class="st2" d="M106.7,147.4V85c5.2-11.4,13.1-18.1,26-16.6c0.9,0.1,2.2-0.7,2.9-1.5c8.2-9.2,18.2-11,29.5-7.8
				c1.1,0.3,2.6,0.2,3.5-0.4c3.8-2.5,7.4-5.2,11.1-7.9c4-1,7.4-0.5,11,0c3.5,1.7,7.6,2.8,10.5,5.3c3.9,3.3,7.6,4.2,12.6,3.6
				c16.6-1.9,27.4,8.1,28.1,25.4c0.1,2.2,0.1,4.5-0.2,6.7c-1.7,15.5-3.2,31-5.3,46.5c-0.7,5.3-1.9,10.9-4.2,15.6
				c-3,6.2-9.1,7-15.2,6.3c-5-0.5-10.5-4.9-10.6-10.2c-0.4-20.8,0.1-36.6-0.2-57.3c-0.1-4.5-0.6-7.6-3.3-7.6c-4.1,0-4.2,3.2-4.2,8.4
				c0,16.9-0.5,33.7,0.2,50.6c0.5,13.4-10.4,19.7-23.1,14.4c-1.5-0.6-2.9-3.2-3-5c-0.4-5.6-0.1-11.3-0.1-17c0-14.7-1-27.9-1-42.9
				c-0.3-6-5.9-5.7-6,0.6c0,2.1,0,1.9,0,3.7c0,19.4-0.1,38.9,0.1,58.3c0,3.4-1.1,5.1-4,6c-6.4,2-12.7,2.3-19-0.6
				c-2.7-1.2-4.1-2.8-3.9-6.2c0.4-7.5,0.2-15.1,0.2-22.7c0-11.3,0-22.6,0-34.1c0.1-7.8-6.7-7.5-6.7-0.6c-0.1,1.5-0.1,3.4-0.1,4.7
				c-0.1,17.4-0.2,34.7-0.1,52.1c0,2.2-1.1,4.5-4.1,5c-7.2,1-15.3,1.3-20.6-9.5C106.9,149.6,106.7,148.5,106.7,147.4z"/>
			<path class="st5" d="M183.7,193.2c-8.8-5.2-10.6-13.2-4.9-22.6c0.7-1.2,2.9-2.2,4.3-2.1c7.8,0.5,14-2.3,19-8.8
				c4.7,5.1,9.9,8.7,17.1,8.8c14.8,0.2,21.5-10.3,23.1-20.9c1.9-12.5,2.9-25.1,5.4-38c1.9,8.7,3.9,17.4,5.8,26.1
				c1.1,5.4,2,10.8,3,16.2c0.5,7.7,0.3,9.2,0,13.4c-0.4,6.5-0.3,8.1-1.5,12.8c-0.7,2.8-6.2,11.2-19.4,6.6
				c-16.8-5.4-33.1,5.5-49.1,8.5C185.7,193.4,185.1,193.6,183.7,193.2z"/>
		</g>
	</g>
</g>
<g id="Ebene_2">
	<g>
		<path class="st2" d="M147.6,89.8c23.4,0,46.8,0,70.2,0c9.4,0,14.6,5.2,14.6,14.6c0,20.7,0,41.5,0,62.2c0,9.3-5.3,14.6-14.7,14.6
			c-46.8,0-93.6,0-140.5,0c-9.5,0-14.7-5.2-14.7-14.8c0-20.4,0.3-40.9-0.1-61.3c-0.2-8.4,5.2-15.6,15.6-15.4
			C101.2,90,124.4,89.8,147.6,89.8z M139.8,171.1c-2.7-1.8-6,1.8-8.4-0.3c-1.4-1.2-10.7-1.1-12.5-0.8c-4.1,0.5-0.5-4.4-0.2-8.6
			c-0.5-2.7-0.1-2.9-0.3-5.4c-1.1-9.6-2.7-13,1.5-22c2.9-6.1,2.1-16,9.3-16.5c0.6,0,5.2,1.2,6.8,0.5c4.4-5.3,9.9-4.4,15.8-2.3
			c13.7,4.7,11.3,8.1,17,20c2.6,8.3,11.3,18,9.2,26.5c-0.4,2.9,0,4.6-0.2,7.3c-1.9-0.3-3.8-0.3-5.3,1.1c-2.2,2.1-21.2-1.4-23.7,0.3
			c-0.1,0.5,2.3-3.8,2.3-3.1c0,0.2,0,0.4,0.1,0.6c0.5-0.1,1.9,0,2.5,0c16.8,0,30.2,0,47-0.1c5.1,0,5.5-0.4,5.5-5.4
			c0-18.2,0-36.4,0-54.6c0-4.7-0.6-5.3-5.3-5.3c-40,0-80,0-120.1,0c-4.7,0-5.3,0.6-5.3,5.4c0,18.1,0,36.2,0,54.3
			c0,5.2,0.4,5.7,5.6,5.7c20.1,0,38.4,0,58.5,0.1 M159.8,139.4c-9.3-2.2-18.2-4.7-22.2-14.6c-8.5,10.2-7.7,28.1,2.2,35.8
			c4,3.1,9.3,2.9,13-0.2C158.9,155.3,160.5,147.9,159.8,139.4z"/>
		<path class="st1" d="M195.3,83c-11.7,0-18.8,0-29.9,0c3.8-6.6,4.6-13.1,3.2-21.7c-0.5-2.2-0.6-3.2-3.1-3.7
			c-4.2-0.8-8.3-2-12.3-3.3c-9.6-3.3-17.4-8.7-20.8-19.5c-11.6,15.4-13.3,31.4-6.7,48.2C115.3,83,113.1,83,102,83
			c-0.1-6.6,0.1-4.1,0.3-10.8c0.4-9-1.1-15.6,3-23.7c4.9-9.7,3.6-20.5,15-21.3c0.9-0.1,9.4,0.4,10-0.3c5.6-6.4,12.8-6.4,21-5.3
			c18.3,2.5,25.8,17,35,32.7C194.2,67.6,196.2,67.4,195.3,83z"/>
	</g>
	<circle class="st0" cx="218" cy="135.6" r="6.7"/>
	<path class="st2" d="M140.1,167"/>
</g>
</svg>
