<?xml version="1.0" encoding="utf-8"?>
<!-- Generator: Adobe Illustrator 16.0.3, SVG Export Plug-In . SVG Version: 6.00 Build 0)  -->
<!DOCTYPE svg PUBLIC "-//W3C//DTD SVG 1.1//EN" "http://www.w3.org/Graphics/SVG/1.1/DTD/svg11.dtd" [
	<!ENTITY ns_extend "http://ns.adobe.com/Extensibility/1.0/">
	<!ENTITY ns_ai "http://ns.adobe.com/AdobeIllustrator/10.0/">
	<!ENTITY ns_graphs "http://ns.adobe.com/Graphs/1.0/">
	<!ENTITY ns_vars "http://ns.adobe.com/Variables/1.0/">
	<!ENTITY ns_imrep "http://ns.adobe.com/ImageReplacement/1.0/">
	<!ENTITY ns_sfw "http://ns.adobe.com/SaveForWeb/1.0/">
	<!ENTITY ns_custom "http://ns.adobe.com/GenericCustomNamespace/1.0/">
	<!ENTITY ns_adobe_xpath "http://ns.adobe.com/XPath/1.0/">
]>
<svg version="1.1" xmlns:x="&ns_extend;" xmlns:i="&ns_ai;" xmlns:graph="&ns_graphs;"
	 xmlns="http://www.w3.org/2000/svg" xmlns:xlink="http://www.w3.org/1999/xlink" x="0px" y="0px" width="290.9px" height="290.9px"
	 viewBox="0 0 290.9 290.9" style="enable-background:new 0 0 290.9 290.9;" xml:space="preserve">
<style type="text/css">
<![CDATA[
	.st0{fill:#2F98C1;}
	.st1{fill:#FFFFFF;}
	.st2{display:inline;}
	.st3{display:none;}
	.st4{opacity:0.74;fill:#FFFFFF;}
]]>
</style>
<metadata>
	<sfw  xmlns="&ns_sfw;">
		<slices></slices>
		<sliceSourceBounds  width="290.9" height="290.9" y="-7" x="-11.3" bottomLeftOrigin="true"></sliceSourceBounds>
	</sfw>
</metadata>
<g id="Ebene_1">
	<path class="st0" d="M254.4,290.9H36.5C16.4,290.9,0,274.5,0,254.4V36.5C0,16.4,16.4,0,36.5,0h217.9c20.1,0,36.5,16.4,36.5,36.5
		v217.9C290.9,274.5,274.5,290.9,254.4,290.9z"/>
	<g>
		<path class="st1" d="M63.1,243l-2.7,9h-6l10.2-31.7h7.4L82.2,252H76l-2.9-9H63.1z M72.2,238.6l-2.5-7.8c-0.6-1.9-1.1-4.1-1.6-5.9
			H68c-0.5,1.8-0.9,4-1.5,5.9l-2.4,7.8H72.2z"/>
		<path class="st1" d="M106.3,245.1c0,2.7,0.1,5,0.2,6.9h-5.1l-0.3-3.5H101c-1,1.6-3.2,4-7.3,4c-4.2,0-8-2.5-8-10v-13.4h5.8v12.5
			c0,3.8,1.2,6.3,4.3,6.3c2.3,0,3.8-1.6,4.4-3.1c0.2-0.5,0.3-1.1,0.3-1.8v-13.8h5.8V245.1z"/>
		<path class="st1" d="M119.1,222.6v6.5h5.5v4.3h-5.5v10.1c0,2.8,0.8,4.2,3,4.2c1,0,1.7-0.1,2.3-0.3l0.1,4.4
			c-0.8,0.3-2.4,0.6-4.2,0.6c-2.1,0-3.9-0.7-5-1.9c-1.2-1.3-1.8-3.4-1.8-6.4v-10.8h-3.3v-4.3h3.3v-5.2L119.1,222.6z"/>
		<path class="st1" d="M150.5,240.3c0,8.4-5.9,12.2-11.7,12.2c-6.5,0-11.5-4.5-11.5-11.8c0-7.5,4.9-12.1,11.8-12.1
			C145.9,228.6,150.5,233.4,150.5,240.3z M133.2,240.6c0,4.4,2.2,7.8,5.7,7.8c3.3,0,5.6-3.2,5.6-7.8c0-3.6-1.6-7.7-5.5-7.7
			C134.9,232.8,133.2,236.7,133.2,240.6z"/>
		<path class="st1" d="M155.2,236.5c0-3.1,0-5.3-0.2-7.4h5l0.2,4.4h0.2c1.1-3.2,3.8-4.9,6.3-4.9c0.6,0,0.9,0,1.4,0.1v5.5
			c-0.5-0.1-1-0.2-1.7-0.2c-2.8,0-4.7,1.8-5.2,4.4c-0.1,0.5-0.2,1.1-0.2,1.8V252h-5.8V236.5z"/>
		<path class="st1" d="M178.1,222.7c0,1.7-1.3,3.1-3.3,3.1c-1.9,0-3.2-1.4-3.2-3.1c0-1.8,1.3-3.1,3.2-3.1
			C176.8,219.5,178.1,220.9,178.1,222.7z M172,252v-22.9h5.8V252H172z"/>
		<path class="st1" d="M190.6,222.6v6.5h5.5v4.3h-5.5v10.1c0,2.8,0.8,4.2,3,4.2c1,0,1.7-0.1,2.3-0.3l0.1,4.4
			c-0.8,0.3-2.4,0.6-4.2,0.6c-2.1,0-3.9-0.7-5-1.9c-1.2-1.3-1.8-3.4-1.8-6.4v-10.8h-3.3v-4.3h3.3v-5.2L190.6,222.6z"/>
		<path class="st1" d="M213.4,252l-0.4-2.5h-0.1c-1.4,1.8-3.8,3.1-6.8,3.1c-4.6,0-7.2-3.3-7.2-6.8c0-5.8,5.1-8.7,13.6-8.6v-0.4
			c0-1.5-0.6-4-4.7-4c-2.3,0-4.6,0.7-6.2,1.7l-1.1-3.8c1.7-1,4.7-2,8.3-2c7.3,0,9.4,4.7,9.4,9.6v8.3c0,2.1,0.1,4.1,0.3,5.5H213.4z
			 M201.8,222.6c0-1.6,1.3-2.9,3-2.9c1.6,0,2.8,1.2,2.8,2.9c0,1.6-1.2,2.9-2.8,2.9C203,225.5,201.8,224.2,201.8,222.6z M212.6,240.8
			c-4.1-0.1-8,0.8-8,4.3c0,2.3,1.5,3.3,3.3,3.3c2.3,0,4-1.5,4.5-3.1c0.1-0.4,0.2-0.9,0.2-1.3V240.8z M211.2,222.6
			c0-1.6,1.2-2.9,2.9-2.9c1.6,0,2.8,1.2,2.8,2.9c0,1.6-1.2,2.9-2.8,2.9C212.3,225.5,211.2,224.2,211.2,222.6z"/>
		<path class="st1" d="M230.7,222.6v6.5h5.5v4.3h-5.5v10.1c0,2.8,0.8,4.2,3,4.2c1,0,1.7-0.1,2.3-0.3l0.1,4.4
			c-0.8,0.3-2.3,0.6-4.2,0.6c-2.1,0-3.9-0.7-5-1.9c-1.2-1.3-1.8-3.4-1.8-6.4v-10.8h-3.3v-4.3h3.3v-5.2L230.7,222.6z"/>
	</g>
	<g class="st3">
		<g class="st2">
			<path class="st1" d="M106.7,147.4V85c5.2-11.4,13.1-18.1,26-16.6c0.9,0.1,2.2-0.7,2.9-1.5c8.2-9.2,18.2-11,29.5-7.8
				c1.1,0.3,2.6,0.2,3.5-0.4c3.8-2.5,7.4-5.2,11.1-7.9c4-1,7.4-0.5,11,0c3.5,1.7,7.6,2.8,10.5,5.3c3.9,3.3,7.6,4.2,12.6,3.6
				c16.6-1.9,27.4,8.1,28.1,25.4c0.1,2.2,0.1,4.5-0.2,6.7c-1.7,15.5-3.2,31-5.3,46.5c-0.7,5.3-1.9,10.9-4.2,15.6
				c-3,6.2-9.1,7-15.2,6.3c-5-0.5-10.5-4.9-10.6-10.2c-0.4-20.8,0.1-36.6-0.2-57.3c-0.1-4.5-0.6-7.6-3.3-7.6c-4.1,0-4.2,3.2-4.2,8.4
				c0,16.9-0.5,33.7,0.2,50.6c0.5,13.4-10.4,19.7-23.1,14.4c-1.5-0.6-2.9-3.2-3-5c-0.4-5.6-0.1-11.3-0.1-17c0-14.7-1-27.9-1-42.9
				c-0.3-6-5.9-5.7-6,0.6c0,2.1,0,1.9,0,3.7c0,19.4-0.1,38.9,0.1,58.3c0,3.4-1.1,5.1-4,6c-6.4,2-12.7,2.3-19-0.6
				c-2.7-1.2-4.1-2.8-3.9-6.2c0.4-7.5,0.2-15.1,0.2-22.7c0-11.3,0-22.6,0-34.1c0.1-7.8-6.7-7.5-6.7-0.6c-0.1,1.5-0.1,3.4-0.1,4.7
				c-0.1,17.4-0.2,34.7-0.1,52.1c0,2.2-1.1,4.5-4.1,5c-7.2,1-15.3,1.3-20.6-9.5C106.9,149.6,106.7,148.5,106.7,147.4z"/>
			<path class="st4" d="M183.7,193.2c-8.8-5.2-10.6-13.2-4.9-22.6c0.7-1.2,2.9-2.2,4.3-2.1c7.8,0.5,14-2.3,19-8.8
				c4.7,5.1,9.9,8.7,17.1,8.8c14.8,0.2,21.5-10.3,23.1-20.9c1.9-12.5,2.9-25.1,5.4-38c1.9,8.7,3.9,17.4,5.8,26.1
				c1.1,5.4,2,10.8,3,16.2c0.5,7.7,0.3,9.2,0,13.4c-0.4,6.5-0.3,8.1-1.5,12.8c-0.7,2.8-6.2,11.2-19.4,6.6
				c-16.8-5.4-33.1,5.5-49.1,8.5C185.7,193.4,185.1,193.6,183.7,193.2z"/>
		</g>
	</g>
</g>
<g id="Ebene_2">
	<path class="st1" d="M119.9,139L119.9,139c-4.3,4.3-11.5,4.3-15.8,0l-21.5-21.5c-4.3-4.3-4.3-11.5,0-15.8l0,0
		c4.3-4.3,11.5-4.3,15.8,0l21.5,21.5C124.3,127.6,124.3,134.7,119.9,139z"/>
	<path class="st1" d="M171.2,87.8L171.2,87.8c-4.3,4.3-11.5,4.3-15.8,0l-21.5-21.5c-4.3-4.3-4.3-11.5,0-15.8l0,0
		c4.3-4.3,11.5-4.3,15.8,0L171.2,72C175.5,76.3,175.5,83.4,171.2,87.8z"/>
	<path class="st1" d="M155.8,180.6L155.8,180.6c0,6.1-5,11.2-11.2,11.2H74.9c-6.1,0-11.2-5-11.2-11.2l0,0c0-6.1,5-11.2,11.2-11.2
		h69.7C150.7,169.4,155.8,174.5,155.8,180.6z"/>
	<path class="st4" d="M142.8,157.1v1.4c0,2.7-2.2,4.9-4.9,4.9H77.7c-2.7,0-4.9-2.2-4.9-4.9v-1.4c0-2.7,2.2-4.9,4.9-4.9h60.2
		C140.6,152.2,142.8,154.4,142.8,157.1z"/>
	<path class="st4" d="M100.4,95.9c14.3-5.3,23.9-14.8,27.7-26.8c20.9,21.4,7.5,7.6,25.9,26.3c-12.2,8.1-18.4,12.5-26.9,26.3
		C104.4,99.9,125.5,120.3,100.4,95.9z"/>
	<path class="st1" d="M163,137.6l-19.8-19.8c-2.1-2.1-2.1-5.6,0-7.7l0,0c2.1-2.1,5.6-2.1,7.7,0l19.8,19.8c2.1,2.1,2.1,5.6,0,7.7l0,0
		C168.6,139.7,165.1,139.7,163,137.6z"/>
	<rect x="192.7" y="107.1" class="st1" width="0" height="0"/>
	<path class="st1" d="M178.6,130.5l39.5,41.9c4.1,4.3,10.4,4.9-0.5,15.2l0,0c-11.9,10.8-11.1,3.9-15.2-0.5L163,145.2
		c-4.1-4.3-3.9-11.1,0.5-15.2l0,0C167.8,126,174.6,126.2,178.6,130.5z"/>
</g>
</svg>
