<?xml version="1.0" encoding="utf-8"?>
<!-- Generator: Adobe Illustrator 16.0.3, SVG Export Plug-In . SVG Version: 6.00 Build 0)  -->
<!DOCTYPE svg PUBLIC "-//W3C//DTD SVG 1.1//EN" "http://www.w3.org/Graphics/SVG/1.1/DTD/svg11.dtd" [
	<!ENTITY ns_extend "http://ns.adobe.com/Extensibility/1.0/">
	<!ENTITY ns_ai "http://ns.adobe.com/AdobeIllustrator/10.0/">
	<!ENTITY ns_graphs "http://ns.adobe.com/Graphs/1.0/">
	<!ENTITY ns_vars "http://ns.adobe.com/Variables/1.0/">
	<!ENTITY ns_imrep "http://ns.adobe.com/ImageReplacement/1.0/">
	<!ENTITY ns_sfw "http://ns.adobe.com/SaveForWeb/1.0/">
	<!ENTITY ns_custom "http://ns.adobe.com/GenericCustomNamespace/1.0/">
	<!ENTITY ns_adobe_xpath "http://ns.adobe.com/XPath/1.0/">
]>
<svg version="1.1" xmlns:x="&ns_extend;" xmlns:i="&ns_ai;" xmlns:graph="&ns_graphs;"
	 xmlns="http://www.w3.org/2000/svg" xmlns:xlink="http://www.w3.org/1999/xlink" x="0px" y="0px" width="290.9px" height="290.9px"
	 viewBox="0 0 290.9 290.9" style="enable-background:new 0 0 290.9 290.9;" xml:space="preserve">
<style type="text/css">
<![CDATA[
	.st0{fill:#2F98C1;}
	.st1{opacity:0.75;fill:#FFFFFF;}
	.st2{fill:#FFFFFF;}
	.st3{fill:#9ECEDD;}
	.st4{fill:none;stroke:#2F98C1;stroke-width:5;stroke-miterlimit:10;}
	.st5{display:none;fill:#FFFFFF;stroke:#FFFFFF;stroke-miterlimit:10;}
	.st6{display:none;}
]]>
</style>
<metadata>
	<sfw  xmlns="&ns_sfw;">
		<slices></slices>
		<sliceSourceBounds  width="290.9" height="290.9" y="-7" x="-20.8" bottomLeftOrigin="true"></sliceSourceBounds>
	</sfw>
</metadata>
<g id="Ebene_1">
	<path class="st0" d="M254.4,290.9H36.5C16.4,290.9,0,274.5,0,254.4V36.5C0,16.4,16.4,0,36.5,0h217.9c20.1,0,36.5,16.4,36.5,36.5
		v217.9C290.9,274.5,274.5,290.9,254.4,290.9z"/>
	<g>
		<path class="st2" d="M19.9,220.7c1.8-0.4,5.2-0.7,8.4-0.7c4.3,0,6.9,0.5,9.1,2c2,1.2,3.3,3.2,3.3,5.9c0,2.9-1.8,5.6-5.3,6.9v0.1
			c3.3,0.8,6.4,3.5,6.4,7.8c0,2.8-1.2,5-3.1,6.5c-2.3,2-6,3-11.7,3c-3.2,0-5.6-0.2-7.1-0.4V220.7z M25.7,233.2h3
			c4,0,6.3-1.9,6.3-4.6c0-3-2.3-4.3-5.9-4.3c-1.7,0-2.7,0.1-3.3,0.2V233.2z M25.7,247.8c0.8,0.1,1.7,0.1,3.1,0.1c3.7,0,7-1.4,7-5.3
			c0-3.7-3.2-5.2-7.2-5.2h-2.9V247.8z"/>
		<path class="st2" d="M51.1,242.2c0.1,4.1,3.4,5.9,7,5.9c2.7,0,4.6-0.4,6.3-1l0.8,4c-2,0.8-4.7,1.4-8,1.4
			c-7.4,0-11.8-4.6-11.8-11.6c0-6.3,3.9-12.3,11.2-12.3c7.4,0,9.9,6.1,9.9,11.1c0,1.1-0.1,1.9-0.2,2.4H51.1z M61.2,238.1
			c0-2.1-0.9-5.6-4.7-5.6c-3.6,0-5.1,3.2-5.3,5.6H61.2z"/>
		<path class="st2" d="M71.3,236.5c0-3.1,0-5.3-0.2-7.4h5l0.2,4.4h0.2c1.1-3.2,3.8-4.9,6.3-4.9c0.6,0,0.9,0,1.4,0.1v5.5
			c-0.5-0.1-1-0.2-1.7-0.2c-2.8,0-4.7,1.8-5.2,4.4c-0.1,0.5-0.2,1.1-0.2,1.8V252h-5.8V236.5z"/>
		<path class="st2" d="M108.5,245.1c0,2.7,0.1,5,0.2,6.9h-5.1l-0.3-3.5h-0.1c-1,1.6-3.2,4-7.3,4c-4.2,0-8-2.5-8-10v-13.4h5.8v12.5
			c0,3.8,1.2,6.3,4.3,6.3c2.3,0,3.8-1.6,4.4-3.1c0.2-0.5,0.3-1.1,0.3-1.8v-13.8h5.8V245.1z M90.8,222.6c0-1.6,1.3-2.9,3-2.9
			c1.6,0,2.8,1.2,2.8,2.9c0,1.6-1.2,2.9-2.8,2.9C92,225.5,90.8,224.2,90.8,222.6z M100.2,222.6c0-1.6,1.2-2.9,2.9-2.9
			c1.6,0,2.8,1.2,2.8,2.9c0,1.6-1.2,2.9-2.8,2.9C101.4,225.5,100.2,224.2,100.2,222.6z"/>
		<path class="st2" d="M114.7,218.6h5.8v13.6h0.1c0.7-1.1,1.6-2,2.9-2.6c1.1-0.7,2.5-1,3.9-1c3.9,0,8,2.6,8,9.9V252h-5.8v-12.8
			c0-3.3-1.2-5.8-4.4-5.8c-2.3,0-3.9,1.5-4.5,3.2c-0.2,0.5-0.2,1.1-0.2,1.7V252h-5.8V218.6z"/>
		<path class="st2" d="M141.6,235.9c0-2.6,0-4.8-0.2-6.8h5l0.2,3.4h0.1c1.1-1.8,3.2-3.9,7-3.9c3,0,5.4,1.7,6.3,4.2h0.1
			c0.8-1.3,1.7-2.2,2.8-2.9c1.3-0.9,2.7-1.4,4.6-1.4c3.8,0,7.7,2.6,7.7,9.9V252h-5.6v-12.6c0-3.8-1.3-6.1-4.1-6.1
			c-2,0-3.4,1.4-4,3.1c-0.1,0.6-0.3,1.3-0.3,1.9V252h-5.6v-13.3c0-3.2-1.3-5.5-3.9-5.5c-2.2,0-3.6,1.7-4.1,3.3
			c-0.2,0.6-0.3,1.2-0.3,1.9V252h-5.6V235.9z"/>
		<path class="st2" d="M187.9,222.6v6.5h5.5v4.3h-5.5v10.1c0,2.8,0.8,4.2,3,4.2c1,0,1.7-0.1,2.3-0.3l0.1,4.4
			c-0.8,0.3-2.4,0.6-4.2,0.6c-2.1,0-3.9-0.7-5-1.9c-1.2-1.3-1.8-3.4-1.8-6.4v-10.8h-3.3v-4.3h3.3v-5.2L187.9,222.6z"/>
		<path class="st2" d="M197.7,218.6h5.8v13.6h0.1c0.7-1.1,1.6-2,2.9-2.6c1.1-0.7,2.5-1,3.9-1c3.9,0,8,2.6,8,9.9V252h-5.8v-12.8
			c0-3.3-1.2-5.8-4.4-5.8c-2.3,0-3.9,1.5-4.5,3.2c-0.2,0.5-0.2,1.1-0.2,1.7V252h-5.8V218.6z"/>
		<path class="st2" d="M228.7,242.2c0.1,4.1,3.4,5.9,7,5.9c2.7,0,4.6-0.4,6.3-1l0.8,4c-2,0.8-4.7,1.4-8,1.4
			c-7.4,0-11.8-4.6-11.8-11.6c0-6.3,3.9-12.3,11.2-12.3c7.4,0,9.9,6.1,9.9,11.1c0,1.1-0.1,1.9-0.2,2.4H228.7z M238.8,238.1
			c0-2.1-0.9-5.6-4.7-5.6c-3.6,0-5.1,3.2-5.3,5.6H238.8z"/>
		<path class="st2" d="M255,222.7c0,1.7-1.3,3.1-3.3,3.1c-1.9,0-3.2-1.4-3.2-3.1c0-1.8,1.3-3.1,3.2-3.1
			C253.8,219.5,255,220.9,255,222.7z M248.9,252v-22.9h5.8V252H248.9z"/>
		<path class="st2" d="M267.5,222.6v6.5h5.5v4.3h-5.5v10.1c0,2.8,0.8,4.2,3,4.2c1,0,1.7-0.1,2.3-0.3l0.1,4.4
			c-0.8,0.3-2.3,0.6-4.2,0.6c-2.1,0-3.9-0.7-5-1.9c-1.2-1.3-1.8-3.4-1.8-6.4v-10.8h-3.3v-4.3h3.3v-5.2L267.5,222.6z"/>
	</g>
	
		<image style="display:none;overflow:visible;" width="160" height="176" xlink:href="14E1B2F7.jpg"  transform="matrix(1 0 0 1 64.7603 29.0054)">
	</image>
	<polygon class="st5" points="88.5,132.2 68.5,165.6 63.8,114.3 41.8,114.3 44.5,160.7 47.8,188.9 91.8,197.6 	"/>
	<polygon class="st5" points="61.8,116.7 63.8,99.5 66.8,90.9 64.3,85.9 61.8,66.4 58.3,66.4 58.3,81.4 52.3,81.9 36.8,83.9 
		36.8,100.3 41.8,105.8 46.3,116.7 	"/>
	<path class="st4" d="M132.6,83.4h-7.2c-3.3,0-6-2.7-6-6v-3.9c0-3.3,2.7-6,6-6h7.2c3.3,0,6,2.7,6,6v3.9
		C138.6,80.7,135.9,83.4,132.6,83.4z"/>
	<path class="st2" d="M141.5,21.9"/>
	<path class="st0" d="M139,96.4c1.3-1.1,3.2-0.5,7.4-0.4c4.5,0.1,6.2-0.8,7.5,0.4c1.2,1.1,1.5,4.9-0.2,6c-2.7,1.6-11.5,1.6-14.6-0.5
		C137.3,100.8,137.8,97.5,139,96.4z"/>
	<g>
		<path class="st1" d="M172.1,191.9c-16.8,1.6-33.6,1.9-50.4-0.1c-14.7-3-29.6-5.1-43.7-10.6c-9.5-3.7-7.8,0.5-7.1-10
			c1-15,0-9.8,4.6-24.1c3.3-10.5,9.6-17.3,19.9-20.6c9.1-2.9,18.2-6.4,25.5-13.7c3.1,5.5,5.7,11.2,9.8,16c8,9.1,16.4,9.4,24.8,0.7
			c4.7-4.8,7.8-10.7,11.3-17c4.4,5.6,10.3,8.2,16.3,9.9c18.5,5.3,30,16.8,33.3,37.2c1.9,11.6,1.3,3.1,1.4,15c0,7.2,0.1,5.2-6.4,7.5
			C198.6,186.6,185.3,189,172.1,191.9z"/>
		<path class="st2" d="M178.6,53.6c-2,11.6,0.5,24.4-5.1,36.6c-4.3,9.4-8.5,18.4-16.7,24.6c-9.9,7.5-19.3,6.8-28.4-1.8
			c-4.6-4.3-8.4-9.3-10.7-15.3c-2.5-6.5-4.9-13-6.8-19.7c-0.9-3.2-1.9-6.6,0.7-10.2c1.9-2.7,0.2-6.6-0.3-9.8
			c-2.7-16,3.7-27.5,16.6-35.2c8.3-8.3,6.2-12.2,9.2-2.7c1.1,1.1,2.4-2,3.7-3.1c9.3-6.9,7.7-10.4,7.6,0.8c2.2,4.3,6.4,5.7,10.6,7.2
			C172.6,30,178.7,38.8,178.6,53.6z"/>
	</g>
	<path class="st0" d="M171.2,87.9c-8.9,0-21.3,1.7-26.7-13.3c-4.6,15.5-17.5,13.3-26.2,13.3c-0.8-0.1-4-0.4-6.4-3.2
		c-1.6-1.9-2.6-4.6-2.6-7.6l0,0c0-5.9-4.9-10.8,0-10.8h70.3c5,0,0.7,4.8,0.7,10.8l0,0C180.2,83,176.1,87.9,171.2,87.9z"/>
	<polygon class="st2" points="237,75.9 221,70.4 207.4,80.5 207.6,63.6 193.8,53.8 210,48.8 215.1,32.6 224.8,46.5 241.8,46.3 
		231.6,59.8 	"/>
	<polygon class="st2" points="70,122.8 54,117.4 40.4,127.5 40.6,110.5 26.8,100.7 43,95.7 48.1,79.5 57.8,93.4 74.8,93.2 
		64.6,106.8 	"/>
	<polygon class="st2" points="94,57.9 78,52.4 64.4,62.5 64.6,45.6 50.8,35.8 67,30.8 72.1,14.6 81.8,28.5 98.8,28.3 88.6,41.8 	"/>
	<path class="st3" d="M110.5,59.1c-0.6-6.9,0.5-17,2-20.2c4.4-9.6,12-14.5,15.2-16.2c8.6-8.5,6.4-12.6,9.5-2.8
		c1.2,1.2,2.5-2.1,3.8-3.2c9.6-7.1,8-10.7,7.8,0.8c2.3,4.5,6.7,5.9,11,7.5c13.5,4.9,20.8,14.7,18.5,34.4c0.1,0,0,0.1-0.1,0.1
		c-14.3-5.7-18.3-10-18.6-12.2c-0.1-0.9-0.2-1.4-0.2-2.3c-1.2-0.7-5.8,4.9-7,6.3C142.8,62.4,117.2,67.5,110.5,59.1z"/>
	<path class="st3" d="M111.1,77.1"/>
</g>
<g id="Ebene_2" class="st6">
</g>
<g id="Ebene_3">
</g>
</svg>
