<?xml version="1.0" encoding="UTF-8" standalone="no"?>
<svg
   xmlns:dc="http://purl.org/dc/elements/1.1/"
   xmlns:cc="http://creativecommons.org/ns#"
   xmlns:rdf="http://www.w3.org/1999/02/22-rdf-syntax-ns#"
   xmlns:svg="http://www.w3.org/2000/svg"
   xmlns="http://www.w3.org/2000/svg"
   viewBox="0 0 375 375"
   height="375"
   width="375"
   xml:space="preserve"
   version="1.1"
   id="svg2"><metadata
     id="metadata8"><rdf:RDF><cc:Work
         rdf:about=""><dc:format>image/svg+xml</dc:format><dc:type
           rdf:resource="http://purl.org/dc/dcmitype/StillImage" /></cc:Work></rdf:RDF></metadata><defs
     id="defs6" /><g
     transform="matrix(1.25,0,0,-1.25,0,375)"
     id="g10"><g
       transform="scale(0.1,0.1)"
       id="g12"><path
         id="path14"
         style="fill:#91c4ab;fill-opacity:1;fill-rule:nonzero;stroke:none"
         d="m 3000,529.785 c 0,-67.64 0,-529.78890625 -715,-529.78890625 l -1625,0 C 35,-0.00390625 0,472.145 0,539.785 L 0,2399.77 c 0,545.02 592.352,600.02 660,600.02 l 1615,0.28 c 67.65,0 725,-0.28 725,-600.3" /><path
         id="path16"
         style="fill:#012b16;fill-opacity:1;fill-rule:nonzero;stroke:none"
         d="m 850.422,664 c -2.391,14.391 -3.359,35.031 -3.359,56.141 l 0,84.468 c 0,50.86 -21.594,98.375 -96.454,98.375 -36.953,0 -67.187,-10.078 -84.453,-20.64 l 11.516,-38.391 c 15.828,10.078 39.828,17.281 62.859,17.281 41.266,0 47.516,-25.437 47.516,-40.796 l 0,-3.844 c -86.391,0.484 -138.688,-29.266 -138.688,-88.297 0,-35.5 26.391,-69.578 73.422,-69.578 30.235,0 54.703,12.953 69.094,31.187 l 1.438,0 3.843,-25.906 53.266,0 z m -60.938,82.063 c 0,-3.844 -0.484,-8.641 -1.921,-12.954 -5.282,-16.796 -22.563,-32.156 -46.079,-32.156 -18.703,0 -33.578,10.547 -33.578,33.594 0,35.5 39.828,44.625 81.578,43.656 l 0,-32.14" /><path
         id="path18"
         style="fill:#012b16;fill-opacity:1;fill-rule:nonzero;stroke:none"
         d="m 908.672,664 57.578,0 0,138.203 c 0,6.719 0.969,13.438 3.359,19.203 5.282,16.313 20.157,33.578 42.231,33.578 27.36,0 40.32,-23.031 40.32,-55.656 l 0,-135.328 57.57,0 0,140.125 c 0,6.719 1.44,13.922 2.9,19.672 6.23,16.797 21.1,31.187 41.26,31.187 28.31,0 41.75,-23.031 41.75,-61.89 l 0,-129.094 57.58,0 0,137.719 c 0,74.859 -39.34,101.265 -78.22,101.265 -19.19,0 -34.06,-4.812 -47.03,-13.921 -11.03,-6.719 -20.63,-16.313 -28.78,-29.282 l -0.97,0 c -10.08,25.922 -34.06,43.203 -64.78,43.203 -39.346,0 -60.471,-21.593 -71.987,-39.843 l -1.437,0 -2.391,34.562 -50.875,0 c 1.438,-20.156 1.922,-42.719 1.922,-69.594 l 0,-164.109" /><path
         id="path20"
         style="fill:#012b16;fill-opacity:1;fill-rule:nonzero;stroke:none"
         d="m 1364.14,664 2.88,35.031 0.96,0 c 16.8,-28.797 43.66,-40.312 73.9,-40.312 52.79,0 106.06,41.75 106.06,125.734 0.47,71.016 -40.31,118.531 -97.42,118.531 -35.04,0 -60.47,-14.89 -74.86,-37.437 l -0.96,0 0,139.173 -59.03,0 0,-274.97 c 0,-24 -0.95,-49.922 -1.92,-65.75 l 50.39,0 z m 10.56,134.359 c 0,5.766 0.96,11.047 1.91,15.36 6.72,25.922 28.31,43.187 52.31,43.187 39.35,0 59.03,-33.593 59.03,-74.859 0,-47.031 -22.56,-76.781 -59.51,-76.781 -25.42,0 -46.06,17.765 -52.3,41.265 -0.97,4.328 -1.44,9.125 -1.44,13.922 l 0,37.906" /><path
         id="path22"
         style="fill:#012b16;fill-opacity:1;fill-rule:nonzero;stroke:none"
         d="m 1656.17,664 0,233.703 -59.5,0 0,-233.703 59.5,0 z m -29.75,331.109 c -19.67,0 -33.11,-13.906 -33.11,-32.14 0,-17.766 12.96,-31.672 32.63,-31.672 20.64,0 33.59,13.906 33.59,31.672 -0.47,18.234 -12.95,32.14 -33.11,32.14" /><path
         id="path24"
         style="fill:#012b16;fill-opacity:1;fill-rule:nonzero;stroke:none"
         d="m 1917.86,764.297 c 0.95,5.281 1.92,13.906 1.92,24.953 0,51.344 -24.95,113.734 -100.78,113.734 -74.86,0 -114.2,-60.953 -114.2,-125.734 0,-71.5 44.62,-118.047 120.45,-118.047 33.58,0 61.42,6.235 81.58,14.391 l -8.64,40.797 c -17.75,-6.719 -37.44,-10.563 -64.78,-10.563 -37.44,0 -70.55,18.235 -71.99,60.469 l 156.44,0 z m -156.44,41.266 c 2.39,24 17.75,57.109 54.22,57.109 39.36,0 48.95,-35.516 48.47,-57.109 l -102.69,0" /><path
         id="path26"
         style="fill:#012b16;fill-opacity:1;fill-rule:nonzero;stroke:none"
         d="m 1967.67,664 59.5,0 0,137.25 c 0,6.719 0.49,13.906 2.41,19.188 6.23,17.75 22.55,34.546 46.06,34.546 32.16,0 44.63,-25.421 44.63,-59.015 l 0,-131.969 59.03,0 0,138.688 c 0,73.89 -42.24,100.296 -83.02,100.296 -38.87,0 -64.31,-22.078 -74.39,-40.312 l -1.44,0 -2.87,35.031 -51.83,0 c 1.44,-20.156 1.92,-42.719 1.92,-69.594 l 0,-164.109" /><path
         id="path28"
         style="fill:#012b16;fill-opacity:1;fill-rule:nonzero;stroke:none"
         d="m 2249.75,950.484 0,-52.781 -33.59,0 0,-44.156 33.59,0 0,-109.891 c 0,-30.703 5.75,-51.828 18.23,-65.265 11.04,-11.985 29.27,-19.188 50.86,-19.188 18.72,0 34.08,2.391 42.72,5.75 l -0.97,45.11 c -5.26,-1.438 -12.95,-2.875 -23.03,-2.875 -22.54,0 -30.23,14.875 -30.23,43.187 l 0,103.172 56.15,0 0,44.156 -56.15,0 0,66.703 -57.58,-13.922" /><path
         id="path30"
         style="fill:#012b16;fill-opacity:1;fill-rule:nonzero;stroke:none"
         d="m 873.281,195.516 c 17.266,-9.594 42.703,-16.313 71.016,-16.313 61.903,0 95.013,30.703 95.013,72.938 -0.48,34.547 -20.15,56.14 -62.388,71.5 -29.75,10.562 -40.781,17.765 -40.781,32.64 0,14.391 11.515,24.469 32.625,24.469 20.64,0 39.364,-7.672 49.434,-13.437 l 11.52,41.75 c -13.44,7.203 -36.001,13.921 -61.907,13.921 -54.235,0 -88.297,-32.156 -88.297,-73.421 -0.485,-27.36 18.718,-52.313 64.297,-68.141 28.796,-10.078 38.39,-18.25 38.39,-34.078 0,-15.36 -11.515,-25.906 -37.422,-25.906 -21.125,0 -46.547,8.625 -59.984,16.781 l -11.516,-42.703" /><path
         id="path32"
         style="fill:#012b16;fill-opacity:1;fill-rule:nonzero;stroke:none"
         d="m 1193.72,422.984 c -70.53,0 -120.92,-47.031 -120.92,-123.812 0,-74.859 50.86,-120.453 117.09,-120.453 59.5,0 119.97,38.39 119.97,124.297 0,71.015 -46.55,119.968 -116.14,119.968 z m -1.44,-43.203 c 40.31,0 56.63,-41.734 56.63,-78.218 0,-47.016 -23.52,-80.125 -57.11,-80.125 -35.99,0 -58.07,34.062 -58.07,79.171 0,38.875 16.8,79.172 58.55,79.172" /><path
         id="path34"
         style="fill:#012b16;fill-opacity:1;fill-rule:nonzero;stroke:none"
         d="m 1567.89,417.703 -59.01,0 0,-141.094 c 0,-6.718 -1.44,-12.953 -3.36,-18.234 -6.24,-14.875 -21.6,-31.672 -45.11,-31.672 -31.19,0 -43.68,24.953 -43.68,63.828 l 0,127.172 -59.01,0 0,-137.25 c 0,-76.297 38.86,-101.734 81.58,-101.734 41.75,0 64.78,24 74.86,40.797 l 0.95,0 2.87,-35.516 51.83,0 c -0.95,19.188 -1.92,42.234 -1.92,70.063 l 0,163.64" /><path
         id="path36"
         style="fill:#012b16;fill-opacity:1;fill-rule:nonzero;stroke:none"
         d="m 1631.67,184 59.5,0 0,137.25 c 0,6.719 0.49,13.906 2.41,19.188 6.23,17.75 22.55,34.546 46.06,34.546 32.16,0 44.63,-25.421 44.63,-59.015 l 0,-131.969 59.03,0 0,138.688 c 0,73.89 -42.24,100.296 -83.02,100.296 -38.87,0 -64.31,-22.078 -74.39,-40.312 l -1.44,0 -2.87,35.031 -51.83,0 c 1.44,-20.156 1.92,-42.719 1.92,-69.594 l 0,-164.109" /><path
         id="path38"
         style="fill:#012b16;fill-opacity:1;fill-rule:nonzero;stroke:none"
         d="m 2063.11,524.719 0,-132.453 -0.95,0 c -10.57,17.281 -33.6,30.718 -65.75,30.718 -56.14,0 -105.1,-46.546 -104.61,-124.781 0,-71.969 44.14,-119.484 99.81,-119.484 34.08,0 62.39,16.312 76.3,42.234 l 0.97,0 2.39,-36.953 52.79,0 c -0.97,15.828 -1.92,41.75 -1.92,65.75 l 0,274.969 -59.03,0 z m 0,-239.469 c 0,-6.234 -0.48,-12 -1.92,-17.266 -5.75,-25.437 -26.88,-41.75 -50.86,-41.75 -37.44,0 -58.55,31.188 -58.55,73.891 0,43.672 21.11,77.266 59.02,77.266 26.87,0 45.59,-18.719 50.87,-41.75 0.96,-4.797 1.44,-10.563 1.44,-15.36 l 0,-35.031" /><path
         id="path40"
         style="fill:none;stroke:#ffffff;stroke-width:50;stroke-linecap:butt;stroke-linejoin:miter;stroke-miterlimit:10;stroke-dasharray:none;stroke-opacity:1"
         d="m 250,1595 2500,0" /><path
         id="path42"
         style="fill:none;stroke:#ffffff;stroke-width:50;stroke-linecap:butt;stroke-linejoin:miter;stroke-miterlimit:10;stroke-dasharray:none;stroke-opacity:1"
         d="m 402.387,1582.98 226.027,-134.5 212.422,500.68 177.964,-725.12 177.97,725.12 218.16,-679.09 97.61,794.18 195.19,-782.66 200.93,667.57 195.2,-765.41 189.46,788.43 149.27,-633.04 149.25,356.79" /></g></g></svg>