<?xml version="1.0" encoding="utf-8"?>
<!-- Generator: Adobe Illustrator 16.0.3, SVG Export Plug-In . SVG Version: 6.00 Build 0)  -->
<!DOCTYPE svg PUBLIC "-//W3C//DTD SVG 1.1//EN" "http://www.w3.org/Graphics/SVG/1.1/DTD/svg11.dtd">
<svg version="1.1" id="Layer_1" xmlns="http://www.w3.org/2000/svg" xmlns:xlink="http://www.w3.org/1999/xlink" x="0px" y="0px"
	 width="500px" height="500.01px" viewBox="0 0 500 500.01" enable-background="new 0 0 500 500.01" xml:space="preserve">
<title>Artboard 1</title>
<rect id="_Path_" y="-0.005" fill="#FD6925" width="500" height="500.01"/>
<path id="_Compound_Path_" fill="#FCFCFC" d="M91.575,67.265c0-15.61-6.841-26.9-24.67-26.9c-18,0-24.97,9.807-24.97,25.41V80.64
	c0,16.5,6.535,24.82,18.73,24.82c7.135,0,11.44-3.275,13.965-8.17h0.146V119c0,6.095-2.375,10.403-8.465,10.403
	S58,125.819,58,119.575v-6.687H42.525v5.355c0,14.854,5.355,25.26,24.085,25.26c17.826,0,24.965-11.445,24.965-27.2V67.265z
	 M74.775,82.72c-0.295,5.645-2.67,9.21-8,9.21c-5.79,0-8-3.565-8-10.104V64.29c0-6.392,2.37-10.105,8.175-10.105
	c5.645,0,7.87,3.86,7.87,10.105L74.775,82.72z"/>
<path id="_Compound_Path_2" fill="#FCFCFC" d="M360.204,356.551l-52.423-30.27v-60.538c0.003-1.268-0.671-2.438-1.767-3.08
	l-54.199-31.317c-1.107-0.64-2.479-0.64-3.586,0l-54.244,31.308c-1.095,0.641-1.768,1.813-1.766,3.088v60.54l-52.423,30.27
	c-1.106,0.634-1.792,1.792-1.797,3.086v62.614c0.006,1.27,0.691,2.454,1.797,3.09l54.204,31.319c1.107,0.632,2.463,0.632,3.573,0
	L250,426.363l52.403,30.268c1.109,0.633,2.478,0.633,3.586,0l54.216-31.319c1.104-0.635,1.789-1.798,1.795-3.09v-62.609
	C361.987,358.324,361.302,357.178,360.204,356.551z M246.423,416.058l-43.488-25.131l43.492-25.098L246.423,416.058z
	 M297.054,328.361l-43.472,25.085v-50.214L297.054,328.361z M246.428,353.45l-43.487-25.094l43.487-25.125V353.45z M257.146,359.632
	l47.054-27.146l47.067,27.15l-47.067,27.164L257.146,359.632z M300.635,322.132l-43.488-25.103l43.488-25.108V322.132z
	 M242.845,297.03l-43.477,25.103v-50.188L242.845,297.03z M192.22,447.35l-47.058-27.168v-54.353l47.058,27.199V447.35z
	 M199.374,447.35v-50.218l43.477,25.104L199.374,447.35z M354.863,420.183l-47.082,27.168v-54.322l47.072-27.181L354.863,420.183z"
	/>
<g>
	<path fill="#FFFFFF" d="M141.689,83.836c-0.176,0-0.313-0.024-0.41-0.073c-0.098-0.048-0.181-0.18-0.249-0.396
		c-0.069-0.215-0.103-0.517-0.103-0.908V43.084c0-0.566,0.063-0.938,0.19-1.113c0.127-0.176,0.317-0.264,0.571-0.264h4.307
		c0.156,0,0.283,0.025,0.381,0.073c0.098,0.049,0.18,0.181,0.249,0.396c0.068,0.215,0.103,0.518,0.103,0.908v39.375
		c0,0.567-0.059,0.938-0.176,1.113s-0.303,0.264-0.557,0.264H141.689z"/>
	<path fill="#FFFFFF" d="M154.258,83.836c-0.254,0-0.444-0.098-0.571-0.293c-0.127-0.195-0.19-0.586-0.19-1.172V43.26
		c0-1.035,0.253-1.553,0.762-1.553h4.453c0.41,0,0.762,0.381,1.055,1.143l9.932,26.689c0.039,0.137,0.098,0.098,0.176-0.117
		l0.029-0.264V43.26c0-1.035,0.264-1.553,0.791-1.553h3.486c0.488,0,0.732,0.518,0.732,1.553v39.229
		c0,0.586-0.059,0.962-0.176,1.128c-0.117,0.166-0.303,0.249-0.557,0.249h-3.164c-0.195,0-0.406-0.117-0.63-0.352
		c-0.225-0.234-0.406-0.527-0.542-0.879l-11.045-28.828c-0.078-0.156-0.137-0.107-0.176,0.146c-0.02,0.059-0.029,0.127-0.029,0.205
		v28.213c0,0.586-0.063,0.977-0.19,1.172c-0.127,0.195-0.327,0.293-0.601,0.293H154.258z"/>
	<path fill="#FFFFFF" d="M182.412,83.836c-0.254,0-0.439-0.078-0.557-0.234c-0.117-0.156-0.176-0.508-0.176-1.055V42.879
		c0-0.488,0.059-0.806,0.176-0.952s0.303-0.22,0.557-0.22h10.078c1.718,0,3.208,0.342,4.468,1.025
		c1.26,0.684,2.368,1.807,3.325,3.369c0.957,1.563,1.674,3.706,2.153,6.431c0.479,2.725,0.718,6.04,0.718,9.946
		c0,2.773-0.088,5.22-0.264,7.339c-0.176,2.12-0.406,3.936-0.688,5.449c-0.283,1.514-0.688,2.793-1.216,3.838
		c-0.527,1.045-1.074,1.875-1.641,2.49c-0.567,0.615-1.279,1.089-2.139,1.421c-0.86,0.333-1.695,0.552-2.505,0.659
		c-0.811,0.107-1.812,0.161-3.003,0.161H182.412z M187.832,79.178h3.604c1.504,0,2.666-0.449,3.486-1.348
		c0.82-0.898,1.431-2.544,1.831-4.937c0.4-2.392,0.601-5.834,0.601-10.327c0-4.16-0.23-7.451-0.688-9.873
		c-0.459-2.421-1.089-4.082-1.89-4.98c-0.801-0.898-1.846-1.348-3.135-1.348h-3.838c-0.234,0-0.352,0.215-0.352,0.645v31.523
		C187.451,78.963,187.578,79.178,187.832,79.178z"/>
	<path fill="#FFFFFF" d="M219.736,84.276c-1.055,0-1.963-0.044-2.725-0.132s-1.553-0.274-2.373-0.557s-1.514-0.678-2.08-1.187
		c-0.567-0.508-1.118-1.196-1.655-2.065c-0.538-0.869-0.962-1.919-1.274-3.149c-0.313-1.23-0.562-2.714-0.747-4.453
		c-0.186-1.738-0.278-3.73-0.278-5.977V43.084c0-0.566,0.063-0.938,0.19-1.113c0.127-0.176,0.317-0.264,0.571-0.264h4.307
		c0.156,0,0.283,0.025,0.381,0.073c0.098,0.049,0.18,0.181,0.249,0.396c0.068,0.215,0.103,0.518,0.103,0.908V66.58
		c0,2.305,0.068,4.238,0.205,5.801c0.136,1.563,0.332,2.823,0.586,3.779c0.253,0.957,0.61,1.685,1.069,2.183
		c0.458,0.498,0.942,0.831,1.45,0.996c0.508,0.166,1.172,0.249,1.992,0.249c1.035,0,1.835-0.117,2.402-0.352
		c0.566-0.234,1.084-0.791,1.553-1.67s0.786-2.187,0.952-3.926c0.166-1.738,0.249-4.091,0.249-7.061V43.084
		c0-0.586,0.059-0.962,0.176-1.128c0.117-0.166,0.303-0.249,0.557-0.249h4.336c0.156,0,0.278,0.025,0.366,0.073
		c0.088,0.049,0.166,0.181,0.234,0.396c0.068,0.215,0.103,0.518,0.103,0.908v23.672c0,2.266-0.093,4.282-0.278,6.05
		c-0.186,1.768-0.435,3.262-0.747,4.482c-0.313,1.221-0.737,2.261-1.274,3.12c-0.538,0.86-1.084,1.538-1.641,2.036
		s-1.241,0.889-2.051,1.172c-0.811,0.283-1.578,0.464-2.3,0.542C221.621,84.236,220.751,84.276,219.736,84.276z"/>
	<path fill="#FFFFFF" d="M245.518,41.239c3.672,0,6.533,1.338,8.584,4.014c0.195,0.254,0.293,0.557,0.293,0.908
		c0,0.684-0.289,1.406-0.864,2.168c-0.576,0.762-1.06,1.143-1.45,1.143c-0.117,0-0.205-0.039-0.264-0.117
		c-1.739-2.109-3.809-3.164-6.211-3.164c-1.348,0-2.432,0.571-3.252,1.714s-1.23,2.534-1.23,4.175c0,1.543,0.352,2.803,1.055,3.779
		c0.703,0.977,1.709,1.885,3.018,2.725l3.721,2.402c3.926,2.539,5.889,6.25,5.889,11.133c0,3.574-0.908,6.494-2.725,8.76
		c-1.816,2.266-4.258,3.398-7.324,3.398c-4.141,0-7.402-1.787-9.785-5.361c-0.117-0.176-0.176-0.4-0.176-0.674
		c0-0.684,0.278-1.431,0.835-2.241c0.557-0.81,1.088-1.216,1.597-1.216c0.195,0,0.371,0.088,0.527,0.264
		c2.187,2.793,4.521,4.189,7.002,4.189c1.523,0,2.714-0.59,3.574-1.772c0.859-1.182,1.289-2.681,1.289-4.497
		c0-1.641-0.342-2.974-1.025-3.999c-0.684-1.025-1.729-1.997-3.135-2.915l-3.75-2.52c-0.82-0.546-1.534-1.113-2.139-1.699
		c-0.605-0.586-1.187-1.293-1.743-2.124c-0.557-0.83-0.986-1.806-1.289-2.93c-0.303-1.123-0.454-2.358-0.454-3.706
		c0-3.516,0.854-6.367,2.563-8.555C240.356,42.333,242.646,41.239,245.518,41.239z"/>
	<path fill="#FFFFFF" d="M263.945,83.836c-0.234,0-0.415-0.092-0.542-0.278c-0.128-0.186-0.19-0.561-0.19-1.128V47.156
		c0-0.488-0.107-0.732-0.322-0.732h-5.098c-0.195,0-0.337-0.015-0.425-0.044s-0.166-0.127-0.234-0.293
		c-0.069-0.166-0.103-0.425-0.103-0.776v-2.314c0-0.527,0.059-0.874,0.176-1.04c0.117-0.166,0.313-0.249,0.586-0.249h16.553
		c0.254,0,0.439,0.083,0.557,0.249c0.117,0.166,0.176,0.513,0.176,1.04v2.314c0,0.488-0.055,0.796-0.161,0.923
		c-0.107,0.127-0.298,0.19-0.571,0.19h-5.01c-0.215,0-0.322,0.245-0.322,0.732V82.43c0,0.586-0.063,0.967-0.19,1.143
		c-0.128,0.176-0.317,0.264-0.571,0.264H263.945z"/>
	<path fill="#FFFFFF" d="M279.883,83.836c-0.254,0-0.439-0.083-0.557-0.249c-0.117-0.166-0.176-0.522-0.176-1.069V43.055
		c0-0.586,0.059-0.957,0.176-1.113c0.117-0.156,0.303-0.234,0.557-0.234h9.844c1.23,0,2.28,0.069,3.149,0.205
		c0.868,0.137,1.763,0.43,2.681,0.879c0.918,0.45,1.655,1.074,2.212,1.875c0.557,0.801,1.015,1.895,1.377,3.281
		c0.361,1.387,0.542,3.057,0.542,5.01c0,1.465-0.107,2.739-0.322,3.823s-0.537,1.963-0.967,2.637s-0.894,1.206-1.392,1.597
		c-0.498,0.391-1.099,0.723-1.802,0.996c-0.059,0.059-0.088,0.117-0.088,0.176s0.029,0.107,0.088,0.146
		c0.703,0.333,1.274,0.674,1.714,1.025s0.884,0.864,1.333,1.538s0.791,1.587,1.025,2.739c0.234,1.153,0.381,2.568,0.439,4.248
		c0.078,1.523,0.117,5.02,0.117,10.488c0,0.977-0.176,1.465-0.527,1.465c-3.027,0.019-4.58,0.029-4.658,0.029
		c-0.313,0-0.479-0.439-0.498-1.318c0-0.136-0.059-2.324-0.176-6.563c-0.117-4.238-0.244-6.68-0.381-7.324
		c-0.059-0.801-0.22-1.469-0.483-2.007c-0.264-0.537-0.605-0.927-1.025-1.172c-0.421-0.244-0.835-0.41-1.245-0.498
		s-0.879-0.132-1.406-0.132h-4.189c-0.215,0-0.322,0.215-0.322,0.645v17.021c0,0.547-0.059,0.904-0.176,1.069
		c-0.117,0.166-0.303,0.249-0.557,0.249H279.883z M285.215,60.281h3.779c3.262,0,4.893-2.373,4.893-7.119
		c0-2.52-0.444-4.282-1.333-5.288c-0.89-1.006-2.378-1.509-4.468-1.509h-2.842c-0.215,0-0.322,0.195-0.322,0.586V59.49
		C284.922,60.018,285.02,60.281,285.215,60.281z"/>
	<path fill="#FFFFFF" d="M307.012,83.836c-0.176,0-0.313-0.024-0.41-0.073c-0.098-0.048-0.181-0.18-0.249-0.396
		c-0.069-0.215-0.103-0.517-0.103-0.908V43.084c0-0.566,0.063-0.938,0.19-1.113c0.127-0.176,0.317-0.264,0.571-0.264h4.307
		c0.156,0,0.283,0.025,0.381,0.073c0.098,0.049,0.18,0.181,0.249,0.396c0.068,0.215,0.103,0.518,0.103,0.908v39.375
		c0,0.567-0.059,0.938-0.176,1.113s-0.303,0.264-0.557,0.264H307.012z"/>
	<path fill="#FFFFFF" d="M319.551,83.836c-0.254,0-0.439-0.073-0.557-0.22s-0.176-0.483-0.176-1.011V42.938
		c0-0.508,0.059-0.839,0.176-0.996c0.117-0.156,0.303-0.234,0.557-0.234h15.41c0.156,0,0.283,0.02,0.381,0.059
		c0.098,0.04,0.18,0.146,0.249,0.322c0.068,0.176,0.103,0.439,0.103,0.791v2.314c0,0.488-0.059,0.806-0.176,0.952
		s-0.303,0.22-0.557,0.22h-10.02c-0.234,0-0.352,0.322-0.352,0.967v11.836c0,0.176,0.033,0.352,0.103,0.527
		c0.068,0.176,0.132,0.264,0.19,0.264h8.057c0.488,0,0.732,0.45,0.732,1.348v2.256c0,0.898-0.244,1.348-0.732,1.348h-8.027
		c-0.078,0-0.151,0.098-0.22,0.293c-0.069,0.195-0.103,0.391-0.103,0.586v13.389h10.459c0.176,0,0.313,0.02,0.41,0.059
		c0.098,0.04,0.18,0.146,0.249,0.322c0.068,0.176,0.103,0.439,0.103,0.791v2.314c0,0.488-0.063,0.806-0.19,0.952
		c-0.128,0.146-0.317,0.22-0.571,0.22H319.551z"/>
	<path fill="#FFFFFF" d="M340.879,93.094c-0.078,0.039-0.137,0.059-0.176,0.059c-0.371,0-0.557-0.42-0.557-1.26v-0.527
		c0-0.605,0.029-0.986,0.088-1.143c0.059-0.157,0.254-0.42,0.586-0.791c0.43-0.527,0.766-1.26,1.011-2.197
		c0.244-0.938,0.366-1.807,0.366-2.607c0-0.527-0.059-0.791-0.176-0.791h-1.318c-0.41,0-0.615-0.557-0.615-1.67V77.86
		c0-1.172,0.264-1.758,0.791-1.758h3.398c0.508,0,0.762,0.625,0.762,1.875v4.395c0,1.641-0.146,3.139-0.439,4.497
		c-0.293,1.357-0.67,2.446-1.128,3.267c-0.459,0.82-0.903,1.469-1.333,1.948C341.709,92.562,341.289,92.899,340.879,93.094z"/>
	<path fill="#FFFFFF" d="M141.689,143.836c-0.176,0-0.313-0.024-0.41-0.073c-0.098-0.048-0.181-0.18-0.249-0.396
		c-0.069-0.215-0.103-0.517-0.103-0.908v-39.375c0-0.566,0.063-0.938,0.19-1.113c0.127-0.176,0.317-0.264,0.571-0.264h4.307
		c0.156,0,0.283,0.025,0.381,0.073c0.098,0.049,0.18,0.181,0.249,0.396c0.068,0.215,0.103,0.518,0.103,0.908v39.375
		c0,0.567-0.059,0.938-0.176,1.113s-0.303,0.264-0.557,0.264H141.689z"/>
	<path fill="#FFFFFF" d="M154.258,143.836c-0.254,0-0.444-0.098-0.571-0.293c-0.127-0.195-0.19-0.586-0.19-1.172V103.26
		c0-1.035,0.253-1.553,0.762-1.553h4.453c0.41,0,0.762,0.381,1.055,1.143l9.932,26.689c0.039,0.137,0.098,0.098,0.176-0.117
		l0.029-0.264V103.26c0-1.035,0.264-1.553,0.791-1.553h3.486c0.488,0,0.732,0.518,0.732,1.553v39.229
		c0,0.586-0.059,0.962-0.176,1.128c-0.117,0.166-0.303,0.249-0.557,0.249h-3.164c-0.195,0-0.406-0.117-0.63-0.352
		c-0.225-0.234-0.406-0.527-0.542-0.879l-11.045-28.828c-0.078-0.156-0.137-0.107-0.176,0.146c-0.02,0.059-0.029,0.127-0.029,0.205
		v28.213c0,0.586-0.063,0.977-0.19,1.172c-0.127,0.195-0.327,0.293-0.601,0.293H154.258z"/>
	<path fill="#FFFFFF" d="M182.441,143.836c-0.254,0-0.444-0.098-0.571-0.293c-0.127-0.195-0.19-0.586-0.19-1.172V103.26
		c0-1.035,0.253-1.553,0.762-1.553h4.453c0.41,0,0.762,0.381,1.055,1.143l9.932,26.689c0.039,0.137,0.098,0.098,0.176-0.117
		l0.029-0.264V103.26c0-1.035,0.264-1.553,0.791-1.553h3.486c0.488,0,0.732,0.518,0.732,1.553v39.229
		c0,0.586-0.059,0.962-0.176,1.128c-0.117,0.166-0.303,0.249-0.557,0.249h-3.164c-0.195,0-0.406-0.117-0.63-0.352
		c-0.225-0.234-0.406-0.527-0.542-0.879l-11.045-28.828c-0.078-0.156-0.137-0.107-0.176,0.146c-0.02,0.059-0.029,0.127-0.029,0.205
		v28.213c0,0.586-0.063,0.977-0.19,1.172c-0.127,0.195-0.327,0.293-0.601,0.293H182.441z"/>
	<path fill="#FFFFFF" d="M220,144.276c-1.622,0-2.993-0.176-4.116-0.527c-1.124-0.352-2.144-0.991-3.062-1.919
		c-0.918-0.927-1.641-2.212-2.168-3.853s-0.933-3.716-1.216-6.226c-0.283-2.509-0.425-5.571-0.425-9.185
		c0-2.89,0.092-5.43,0.278-7.617c0.186-2.187,0.488-4.072,0.908-5.654c0.42-1.582,0.913-2.89,1.479-3.926
		c0.566-1.035,1.279-1.86,2.139-2.476c0.859-0.615,1.777-1.044,2.754-1.289c0.977-0.244,2.119-0.366,3.428-0.366
		c1.582,0,2.934,0.181,4.058,0.542c1.123,0.362,2.143,1.001,3.062,1.919c0.918,0.918,1.65,2.183,2.197,3.794
		c0.546,1.611,0.962,3.652,1.245,6.123c0.283,2.471,0.425,5.454,0.425,8.95c0,3.633-0.137,6.709-0.41,9.229
		c-0.274,2.52-0.674,4.6-1.201,6.24s-1.25,2.915-2.168,3.823c-0.918,0.908-1.938,1.538-3.062,1.89
		C223.022,144.1,221.641,144.276,220,144.276z M219.971,139.647c1.367,0,2.412-0.464,3.135-1.392
		c0.722-0.927,1.25-2.607,1.582-5.039c0.332-2.432,0.498-5.981,0.498-10.649c0-4.512-0.157-7.929-0.469-10.254
		c-0.313-2.324-0.825-3.959-1.538-4.907c-0.713-0.947-1.772-1.421-3.179-1.421c-1.367,0-2.417,0.483-3.149,1.45
		s-1.255,2.622-1.567,4.966c-0.313,2.344-0.469,5.732-0.469,10.166c0,4.629,0.166,8.159,0.498,10.591
		c0.332,2.432,0.854,4.121,1.567,5.068C217.593,139.174,218.623,139.647,219.971,139.647z"/>
	<path fill="#FFFFFF" d="M243.262,143.836c-0.488-0.039-0.85-0.664-1.084-1.875l-7.324-38.291c-0.04-0.352-0.059-0.596-0.059-0.732
		c0-0.82,0.156-1.23,0.469-1.23h4.307c0.508,0,0.869,0.635,1.084,1.904l5.068,30.674l4.922-30.674
		c0.195-1.27,0.557-1.904,1.084-1.904h3.545c0.293,0,0.439,0.381,0.439,1.143c0,0.352-0.02,0.625-0.059,0.82l-7.002,38.291
		c-0.215,1.211-0.576,1.836-1.084,1.875H243.262z"/>
	<path fill="#FFFFFF" d="M258.145,143.836c-0.293,0-0.439-0.283-0.439-0.85v-0.498c0-0.253,0.01-0.42,0.029-0.498l6.592-38.818
		c0.156-0.938,0.518-1.425,1.084-1.465h5.947c0.547,0.04,0.898,0.527,1.055,1.465l6.475,38.818c0,0.059,0.015,0.166,0.044,0.322
		c0.029,0.157,0.048,0.293,0.059,0.41c0.01,0.117,0.015,0.215,0.015,0.293c0,0.547-0.166,0.82-0.498,0.82h-4.834
		c-0.469,0-0.771-0.4-0.908-1.201l-1.084-7.471c-0.059-0.429-0.166-0.645-0.322-0.645h-7.09c-0.137,0-0.244,0.225-0.322,0.674
		l-1.23,7.412c-0.078,0.488-0.176,0.816-0.293,0.981c-0.117,0.166-0.293,0.249-0.527,0.249H258.145z M265.117,130.858h5.977
		c0.137,0,0.205-0.176,0.205-0.527c0-0.117-0.02-0.205-0.059-0.264l-2.9-22.588c-0.02-0.136-0.049-0.205-0.088-0.205
		c-0.059,0-0.098,0.059-0.117,0.176l-3.428,22.588c-0.02,0.137-0.029,0.225-0.029,0.264
		C264.678,130.672,264.824,130.858,265.117,130.858z"/>
	<path fill="#FFFFFF" d="M286.973,143.836c-0.234,0-0.415-0.092-0.542-0.278c-0.128-0.186-0.19-0.561-0.19-1.128v-35.273
		c0-0.488-0.107-0.732-0.322-0.732h-5.098c-0.195,0-0.337-0.015-0.425-0.044s-0.166-0.127-0.234-0.293
		c-0.069-0.166-0.103-0.425-0.103-0.776v-2.314c0-0.527,0.059-0.874,0.176-1.04c0.117-0.166,0.313-0.249,0.586-0.249h16.553
		c0.254,0,0.439,0.083,0.557,0.249c0.117,0.166,0.176,0.513,0.176,1.04v2.314c0,0.488-0.055,0.796-0.161,0.923
		c-0.107,0.127-0.298,0.19-0.571,0.19h-5.01c-0.215,0-0.322,0.245-0.322,0.732v35.273c0,0.586-0.063,0.967-0.19,1.143
		c-0.128,0.176-0.317,0.264-0.571,0.264H286.973z"/>
	<path fill="#FFFFFF" d="M302.969,143.836c-0.176,0-0.313-0.024-0.41-0.073c-0.098-0.048-0.181-0.18-0.249-0.396
		c-0.069-0.215-0.103-0.517-0.103-0.908v-39.375c0-0.566,0.063-0.938,0.19-1.113c0.127-0.176,0.317-0.264,0.571-0.264h4.307
		c0.156,0,0.283,0.025,0.381,0.073c0.098,0.049,0.18,0.181,0.249,0.396c0.068,0.215,0.103,0.518,0.103,0.908v39.375
		c0,0.567-0.059,0.938-0.176,1.113s-0.303,0.264-0.557,0.264H302.969z"/>
	<path fill="#FFFFFF" d="M324.912,144.276c-1.621,0-2.993-0.176-4.116-0.527c-1.124-0.352-2.144-0.991-3.062-1.919
		c-0.918-0.927-1.641-2.212-2.168-3.853s-0.934-3.716-1.216-6.226c-0.283-2.509-0.425-5.571-0.425-9.185
		c0-2.89,0.092-5.43,0.278-7.617c0.186-2.187,0.487-4.072,0.908-5.654c0.42-1.582,0.913-2.89,1.479-3.926
		c0.566-1.035,1.279-1.86,2.139-2.476s1.777-1.044,2.754-1.289c0.977-0.244,2.119-0.366,3.428-0.366
		c1.582,0,2.934,0.181,4.058,0.542c1.123,0.362,2.144,1.001,3.062,1.919c0.918,0.918,1.65,2.183,2.197,3.794
		s0.962,3.652,1.245,6.123c0.282,2.471,0.425,5.454,0.425,8.95c0,3.633-0.137,6.709-0.41,9.229s-0.674,4.6-1.201,6.24
		s-1.25,2.915-2.168,3.823s-1.938,1.538-3.062,1.89C327.934,144.1,326.553,144.276,324.912,144.276z M324.883,139.647
		c1.367,0,2.412-0.464,3.135-1.392c0.723-0.927,1.25-2.607,1.582-5.039s0.498-5.981,0.498-10.649c0-4.512-0.156-7.929-0.469-10.254
		c-0.313-2.324-0.825-3.959-1.538-4.907c-0.714-0.947-1.772-1.421-3.179-1.421c-1.367,0-2.417,0.483-3.149,1.45
		s-1.255,2.622-1.567,4.966s-0.469,5.732-0.469,10.166c0,4.629,0.166,8.159,0.498,10.591s0.854,4.121,1.567,5.068
		C322.505,139.174,323.535,139.647,324.883,139.647z"/>
	<path fill="#FFFFFF" d="M342.607,143.836c-0.254,0-0.444-0.098-0.571-0.293c-0.128-0.195-0.19-0.586-0.19-1.172V103.26
		c0-1.035,0.254-1.553,0.762-1.553h4.453c0.41,0,0.762,0.381,1.055,1.143l9.932,26.689c0.039,0.137,0.098,0.098,0.176-0.117
		l0.029-0.264V103.26c0-1.035,0.264-1.553,0.791-1.553h3.486c0.488,0,0.732,0.518,0.732,1.553v39.229
		c0,0.586-0.059,0.962-0.176,1.128c-0.117,0.166-0.303,0.249-0.557,0.249h-3.164c-0.195,0-0.406-0.117-0.63-0.352
		c-0.225-0.234-0.405-0.527-0.542-0.879l-11.045-28.828c-0.078-0.156-0.137-0.107-0.176,0.146c-0.02,0.059-0.029,0.127-0.029,0.205
		v28.213c0,0.586-0.063,0.977-0.19,1.172c-0.128,0.195-0.327,0.293-0.601,0.293H342.607z"/>
	<path fill="#FFFFFF" d="M388.369,144.276c-1.055,0-1.963-0.044-2.725-0.132s-1.553-0.274-2.373-0.557s-1.514-0.678-2.08-1.187
		c-0.566-0.508-1.118-1.196-1.655-2.065c-0.538-0.869-0.962-1.919-1.274-3.149s-0.562-2.714-0.747-4.453
		c-0.187-1.738-0.278-3.73-0.278-5.977v-23.672c0-0.566,0.063-0.938,0.19-1.113c0.127-0.176,0.317-0.264,0.571-0.264h4.307
		c0.156,0,0.283,0.025,0.381,0.073c0.098,0.049,0.18,0.181,0.249,0.396c0.068,0.215,0.103,0.518,0.103,0.908v23.496
		c0,2.305,0.068,4.238,0.205,5.801c0.137,1.563,0.332,2.823,0.586,3.779c0.254,0.957,0.61,1.685,1.069,2.183
		c0.458,0.498,0.942,0.831,1.45,0.996c0.508,0.166,1.172,0.249,1.992,0.249c1.035,0,1.836-0.117,2.402-0.352s1.084-0.791,1.553-1.67
		s0.786-2.187,0.952-3.926c0.165-1.738,0.249-4.091,0.249-7.061v-23.496c0-0.586,0.059-0.962,0.176-1.128
		c0.117-0.166,0.303-0.249,0.557-0.249h4.336c0.156,0,0.278,0.025,0.366,0.073c0.088,0.049,0.165,0.181,0.234,0.396
		c0.068,0.215,0.103,0.518,0.103,0.908v23.672c0,2.266-0.093,4.282-0.278,6.05c-0.187,1.768-0.435,3.262-0.747,4.482
		c-0.313,1.221-0.737,2.261-1.274,3.12c-0.538,0.86-1.084,1.538-1.641,2.036s-1.241,0.889-2.051,1.172
		c-0.811,0.283-1.577,0.464-2.3,0.542C390.254,144.236,389.385,144.276,388.369,144.276z"/>
	<path fill="#FFFFFF" d="M406.387,143.836c-0.254,0-0.444-0.098-0.571-0.293c-0.128-0.195-0.19-0.586-0.19-1.172V103.26
		c0-1.035,0.254-1.553,0.762-1.553h4.453c0.41,0,0.762,0.381,1.055,1.143l9.932,26.689c0.039,0.137,0.098,0.098,0.176-0.117
		l0.029-0.264V103.26c0-1.035,0.264-1.553,0.791-1.553h3.486c0.488,0,0.732,0.518,0.732,1.553v39.229
		c0,0.586-0.059,0.962-0.176,1.128c-0.117,0.166-0.303,0.249-0.557,0.249h-3.164c-0.195,0-0.406-0.117-0.63-0.352
		c-0.225-0.234-0.405-0.527-0.542-0.879l-11.045-28.828c-0.078-0.156-0.137-0.107-0.176,0.146c-0.02,0.059-0.029,0.127-0.029,0.205
		v28.213c0,0.586-0.063,0.977-0.19,1.172c-0.128,0.195-0.327,0.293-0.601,0.293H406.387z"/>
	<path fill="#FFFFFF" d="M434.541,143.836c-0.254,0-0.439-0.078-0.557-0.234c-0.117-0.156-0.176-0.508-0.176-1.055v-39.668
		c0-0.488,0.059-0.806,0.176-0.952s0.303-0.22,0.557-0.22h10.078c1.719,0,3.208,0.342,4.468,1.025
		c1.26,0.684,2.368,1.807,3.325,3.369c0.957,1.563,1.674,3.706,2.153,6.431c0.479,2.725,0.718,6.04,0.718,9.946
		c0,2.773-0.088,5.22-0.264,7.339c-0.176,2.12-0.406,3.936-0.688,5.449c-0.283,1.514-0.688,2.793-1.216,3.838
		c-0.527,1.045-1.074,1.875-1.641,2.49s-1.279,1.089-2.139,1.421c-0.859,0.333-1.695,0.552-2.505,0.659
		c-0.811,0.107-1.812,0.161-3.003,0.161H434.541z M439.961,139.178h3.604c1.504,0,2.666-0.449,3.486-1.348
		c0.82-0.898,1.431-2.544,1.831-4.937c0.399-2.392,0.601-5.834,0.601-10.327c0-4.16-0.23-7.451-0.688-9.873
		c-0.459-2.421-1.089-4.082-1.89-4.98c-0.801-0.898-1.846-1.348-3.135-1.348h-3.838c-0.234,0-0.352,0.215-0.352,0.645v31.523
		C439.58,138.963,439.707,139.178,439.961,139.178z"/>
	<path fill="#FFFFFF" d="M141.689,203.836c-0.176,0-0.313-0.024-0.41-0.073c-0.098-0.049-0.181-0.181-0.249-0.396
		c-0.069-0.215-0.103-0.518-0.103-0.908v-39.375c0-0.566,0.063-0.938,0.19-1.113c0.127-0.176,0.317-0.264,0.571-0.264h4.307
		c0.156,0,0.283,0.024,0.381,0.073c0.098,0.049,0.18,0.181,0.249,0.396c0.068,0.215,0.103,0.518,0.103,0.908v39.375
		c0,0.566-0.059,0.938-0.176,1.113s-0.303,0.264-0.557,0.264H141.689z"/>
	<path fill="#FFFFFF" d="M154.258,203.836c-0.254,0-0.444-0.098-0.571-0.293c-0.127-0.195-0.19-0.586-0.19-1.172V163.26
		c0-1.035,0.253-1.553,0.762-1.553h4.453c0.41,0,0.762,0.381,1.055,1.143l9.932,26.689c0.039,0.137,0.098,0.098,0.176-0.117
		l0.029-0.264V163.26c0-1.035,0.264-1.553,0.791-1.553h3.486c0.488,0,0.732,0.518,0.732,1.553v39.229
		c0,0.586-0.059,0.962-0.176,1.128s-0.303,0.249-0.557,0.249h-3.164c-0.195,0-0.406-0.117-0.63-0.352
		c-0.225-0.234-0.406-0.527-0.542-0.879l-11.045-28.828c-0.078-0.156-0.137-0.107-0.176,0.146c-0.02,0.059-0.029,0.127-0.029,0.205
		v28.213c0,0.586-0.063,0.977-0.19,1.172c-0.127,0.195-0.327,0.293-0.601,0.293H154.258z"/>
	<path fill="#FFFFFF" d="M182.412,203.836c-0.254,0-0.439-0.073-0.557-0.22s-0.176-0.483-0.176-1.011v-39.668
		c0-0.508,0.059-0.84,0.176-0.996s0.303-0.234,0.557-0.234h14.385c0.176,0,0.308,0.02,0.396,0.059s0.166,0.146,0.234,0.322
		c0.068,0.176,0.103,0.439,0.103,0.791v2.314c0,0.488-0.059,0.806-0.176,0.952s-0.303,0.22-0.557,0.22h-8.994
		c-0.234,0-0.352,0.254-0.352,0.762v12.92c0,0.391,0.098,0.586,0.293,0.586h7.324c0.253,0,0.439,0.068,0.557,0.205
		s0.176,0.449,0.176,0.938v2.637c0,0.488-0.059,0.806-0.176,0.952s-0.303,0.22-0.557,0.22h-7.295c-0.078,0-0.151,0.078-0.22,0.234
		c-0.069,0.156-0.103,0.322-0.103,0.498v16.289c0,0.527-0.059,0.864-0.176,1.011s-0.303,0.22-0.557,0.22H182.412z"/>
	<path fill="#FFFFFF" d="M202.451,203.836c-0.254,0-0.439-0.083-0.557-0.249s-0.176-0.522-0.176-1.069v-39.463
		c0-0.586,0.059-0.957,0.176-1.113s0.303-0.234,0.557-0.234h9.844c1.23,0,2.28,0.068,3.149,0.205
		c0.869,0.137,1.762,0.43,2.681,0.879c0.918,0.449,1.655,1.074,2.212,1.875s1.015,1.895,1.377,3.281
		c0.361,1.387,0.542,3.057,0.542,5.01c0,1.465-0.107,2.739-0.322,3.823c-0.215,1.084-0.538,1.963-0.967,2.637
		c-0.43,0.674-0.894,1.206-1.392,1.597s-1.099,0.723-1.802,0.996c-0.059,0.059-0.088,0.117-0.088,0.176s0.029,0.107,0.088,0.146
		c0.703,0.332,1.274,0.674,1.714,1.025s0.883,0.864,1.333,1.538c0.449,0.674,0.791,1.587,1.025,2.739s0.381,2.568,0.439,4.248
		c0.078,1.523,0.117,5.02,0.117,10.488c0,0.977-0.176,1.465-0.527,1.465c-3.028,0.02-4.581,0.029-4.658,0.029
		c-0.313,0-0.479-0.439-0.498-1.318c0-0.137-0.059-2.324-0.176-6.563s-0.245-6.68-0.381-7.324c-0.059-0.801-0.22-1.47-0.483-2.007
		s-0.605-0.928-1.025-1.172c-0.42-0.244-0.835-0.41-1.245-0.498s-0.879-0.132-1.406-0.132h-4.189c-0.215,0-0.322,0.215-0.322,0.645
		v17.021c0,0.547-0.059,0.903-0.176,1.069s-0.303,0.249-0.557,0.249H202.451z M207.783,180.281h3.779
		c3.262,0,4.893-2.373,4.893-7.119c0-2.52-0.444-4.282-1.333-5.288c-0.889-1.006-2.378-1.509-4.468-1.509h-2.842
		c-0.215,0-0.322,0.195-0.322,0.586v12.539C207.49,180.018,207.588,180.281,207.783,180.281z"/>
	<path fill="#FFFFFF" d="M227.383,203.836c-0.293,0-0.439-0.283-0.439-0.85v-0.498c0-0.254,0.01-0.42,0.029-0.498l6.592-38.818
		c0.156-0.938,0.517-1.426,1.084-1.465h5.947c0.546,0.039,0.898,0.527,1.055,1.465l6.475,38.818c0,0.059,0.015,0.166,0.044,0.322
		s0.048,0.293,0.059,0.41c0.01,0.117,0.015,0.215,0.015,0.293c0,0.547-0.166,0.82-0.498,0.82h-4.834c-0.469,0-0.772-0.4-0.908-1.201
		l-1.084-7.471c-0.059-0.43-0.166-0.645-0.322-0.645h-7.09c-0.137,0-0.245,0.225-0.322,0.674l-1.23,7.412
		c-0.078,0.488-0.176,0.815-0.293,0.981s-0.293,0.249-0.527,0.249H227.383z M234.355,190.858h5.977c0.136,0,0.205-0.176,0.205-0.527
		c0-0.117-0.02-0.205-0.059-0.264l-2.9-22.588c-0.02-0.137-0.049-0.205-0.088-0.205c-0.059,0-0.098,0.059-0.117,0.176l-3.428,22.588
		c-0.02,0.137-0.029,0.225-0.029,0.264C233.916,190.672,234.063,190.858,234.355,190.858z"/>
	<path fill="#FFFFFF" d="M261.396,161.239c3.672,0,6.533,1.338,8.584,4.014c0.195,0.254,0.293,0.557,0.293,0.908
		c0,0.684-0.289,1.406-0.864,2.168c-0.576,0.762-1.06,1.143-1.45,1.143c-0.117,0-0.205-0.039-0.264-0.117
		c-1.738-2.109-3.809-3.164-6.211-3.164c-1.348,0-2.432,0.571-3.252,1.714s-1.23,2.534-1.23,4.175c0,1.543,0.352,2.803,1.055,3.779
		s1.709,1.885,3.018,2.725l3.721,2.402c3.926,2.539,5.889,6.25,5.889,11.133c0,3.574-0.908,6.494-2.725,8.76
		s-4.258,3.398-7.324,3.398c-4.141,0-7.402-1.787-9.785-5.361c-0.117-0.176-0.176-0.4-0.176-0.674c0-0.684,0.278-1.431,0.835-2.241
		s1.089-1.216,1.597-1.216c0.195,0,0.371,0.088,0.527,0.264c2.188,2.793,4.521,4.189,7.002,4.189c1.523,0,2.715-0.591,3.574-1.772
		s1.289-2.681,1.289-4.497c0-1.641-0.342-2.974-1.025-3.999s-1.729-1.997-3.135-2.915l-3.75-2.52
		c-0.82-0.547-1.533-1.113-2.139-1.699s-1.187-1.294-1.743-2.124s-0.986-1.807-1.289-2.93c-0.304-1.123-0.454-2.358-0.454-3.706
		c0-3.516,0.854-6.367,2.563-8.555C256.235,162.332,258.525,161.239,261.396,161.239z"/>
	<path fill="#FFFFFF" d="M279.824,203.836c-0.234,0-0.415-0.093-0.542-0.278c-0.128-0.186-0.19-0.562-0.19-1.128v-35.273
		c0-0.488-0.107-0.732-0.322-0.732h-5.098c-0.195,0-0.337-0.015-0.425-0.044s-0.166-0.127-0.234-0.293
		c-0.069-0.166-0.103-0.425-0.103-0.776v-2.314c0-0.527,0.059-0.874,0.176-1.04s0.313-0.249,0.586-0.249h16.553
		c0.254,0,0.439,0.083,0.557,0.249s0.176,0.513,0.176,1.04v2.314c0,0.488-0.055,0.796-0.161,0.923
		c-0.107,0.127-0.298,0.19-0.571,0.19h-5.01c-0.215,0-0.322,0.244-0.322,0.732v35.273c0,0.586-0.063,0.967-0.19,1.143
		c-0.128,0.176-0.317,0.264-0.571,0.264H279.824z"/>
	<path fill="#FFFFFF" d="M295.762,203.836c-0.254,0-0.439-0.083-0.557-0.249s-0.176-0.522-0.176-1.069v-39.463
		c0-0.586,0.059-0.957,0.176-1.113s0.303-0.234,0.557-0.234h9.844c1.23,0,2.28,0.068,3.149,0.205
		c0.868,0.137,1.763,0.43,2.681,0.879s1.655,1.074,2.212,1.875s1.015,1.895,1.377,3.281c0.361,1.387,0.542,3.057,0.542,5.01
		c0,1.465-0.107,2.739-0.322,3.823s-0.537,1.963-0.967,2.637s-0.894,1.206-1.392,1.597s-1.099,0.723-1.802,0.996
		c-0.059,0.059-0.088,0.117-0.088,0.176s0.029,0.107,0.088,0.146c0.703,0.332,1.274,0.674,1.714,1.025s0.884,0.864,1.333,1.538
		s0.791,1.587,1.025,2.739s0.381,2.568,0.439,4.248c0.078,1.523,0.117,5.02,0.117,10.488c0,0.977-0.176,1.465-0.527,1.465
		c-3.027,0.02-4.58,0.029-4.658,0.029c-0.313,0-0.479-0.439-0.498-1.318c0-0.137-0.059-2.324-0.176-6.563s-0.244-6.68-0.381-7.324
		c-0.059-0.801-0.22-1.47-0.483-2.007s-0.605-0.928-1.025-1.172c-0.421-0.244-0.835-0.41-1.245-0.498s-0.879-0.132-1.406-0.132
		h-4.189c-0.215,0-0.322,0.215-0.322,0.645v17.021c0,0.547-0.059,0.903-0.176,1.069s-0.303,0.249-0.557,0.249H295.762z
		 M301.094,180.281h3.779c3.262,0,4.893-2.373,4.893-7.119c0-2.52-0.444-4.282-1.333-5.288c-0.89-1.006-2.378-1.509-4.468-1.509
		h-2.842c-0.215,0-0.322,0.195-0.322,0.586v12.539C300.801,180.018,300.898,180.281,301.094,180.281z"/>
	<path fill="#FFFFFF" d="M332.764,204.276c-1.055,0-1.963-0.044-2.725-0.132s-1.553-0.273-2.373-0.557s-1.514-0.679-2.08-1.187
		s-1.118-1.196-1.655-2.065c-0.538-0.869-0.962-1.919-1.274-3.149s-0.562-2.715-0.747-4.453c-0.187-1.738-0.278-3.73-0.278-5.977
		v-23.672c0-0.566,0.063-0.938,0.19-1.113c0.127-0.176,0.317-0.264,0.571-0.264h4.307c0.156,0,0.283,0.024,0.381,0.073
		s0.18,0.181,0.249,0.396c0.068,0.215,0.103,0.518,0.103,0.908v23.496c0,2.305,0.068,4.238,0.205,5.801s0.332,2.822,0.586,3.779
		s0.61,1.685,1.069,2.183c0.458,0.498,0.942,0.83,1.45,0.996s1.172,0.249,1.992,0.249c1.035,0,1.836-0.117,2.402-0.352
		s1.084-0.791,1.553-1.67s0.786-2.188,0.952-3.926c0.165-1.738,0.249-4.092,0.249-7.061v-23.496c0-0.586,0.059-0.962,0.176-1.128
		s0.303-0.249,0.557-0.249h4.336c0.156,0,0.278,0.024,0.366,0.073s0.165,0.181,0.234,0.396c0.068,0.215,0.103,0.518,0.103,0.908
		v23.672c0,2.266-0.093,4.282-0.278,6.05c-0.187,1.768-0.435,3.262-0.747,4.482s-0.737,2.261-1.274,3.12
		c-0.538,0.859-1.084,1.538-1.641,2.036s-1.241,0.889-2.051,1.172c-0.811,0.283-1.577,0.464-2.3,0.542
		S333.779,204.276,332.764,204.276z"/>
	<path fill="#FFFFFF" d="M350.752,203.836c-0.488,0-0.732-0.527-0.732-1.582v-38.965c0-1.055,0.244-1.582,0.732-1.582h4.277
		c0.508,0,0.762,0.527,0.762,1.582v19.307l7.178-19.395c0.352-0.996,0.771-1.494,1.26-1.494h4.336c0.41,0,0.615,0.225,0.615,0.674
		c0,0.273-0.059,0.557-0.176,0.85l-7.09,18.047c-0.137,0.469-0.205,0.83-0.205,1.084s0.039,0.527,0.117,0.82l7.559,19.043
		c0.137,0.352,0.205,0.664,0.205,0.938c0,0.449-0.127,0.674-0.381,0.674h-4.277c-0.527,0-0.986-0.508-1.377-1.523l-7.734-18.34
		v18.34c0,1.016-0.264,1.523-0.791,1.523H350.752z"/>
	<path fill="#FFFFFF" d="M378.086,203.836c-0.234,0-0.415-0.093-0.542-0.278c-0.128-0.186-0.19-0.562-0.19-1.128v-35.273
		c0-0.488-0.107-0.732-0.322-0.732h-5.098c-0.195,0-0.337-0.015-0.425-0.044s-0.166-0.127-0.234-0.293
		c-0.069-0.166-0.103-0.425-0.103-0.776v-2.314c0-0.527,0.059-0.874,0.176-1.04s0.313-0.249,0.586-0.249h16.553
		c0.254,0,0.439,0.083,0.557,0.249s0.176,0.513,0.176,1.04v2.314c0,0.488-0.055,0.796-0.161,0.923
		c-0.107,0.127-0.298,0.19-0.571,0.19h-5.01c-0.215,0-0.322,0.244-0.322,0.732v35.273c0,0.586-0.063,0.967-0.19,1.143
		c-0.128,0.176-0.317,0.264-0.571,0.264H378.086z"/>
	<path fill="#FFFFFF" d="M403.955,204.276c-1.055,0-1.963-0.044-2.725-0.132s-1.553-0.273-2.373-0.557s-1.514-0.679-2.08-1.187
		s-1.118-1.196-1.655-2.065c-0.538-0.869-0.962-1.919-1.274-3.149s-0.562-2.715-0.747-4.453c-0.187-1.738-0.278-3.73-0.278-5.977
		v-23.672c0-0.566,0.063-0.938,0.19-1.113c0.127-0.176,0.317-0.264,0.571-0.264h4.307c0.156,0,0.283,0.024,0.381,0.073
		s0.18,0.181,0.249,0.396c0.068,0.215,0.103,0.518,0.103,0.908v23.496c0,2.305,0.068,4.238,0.205,5.801s0.332,2.822,0.586,3.779
		s0.61,1.685,1.069,2.183c0.458,0.498,0.942,0.83,1.45,0.996s1.172,0.249,1.992,0.249c1.035,0,1.836-0.117,2.402-0.352
		s1.084-0.791,1.553-1.67s0.786-2.188,0.952-3.926c0.165-1.738,0.249-4.092,0.249-7.061v-23.496c0-0.586,0.059-0.962,0.176-1.128
		s0.303-0.249,0.557-0.249h4.336c0.156,0,0.278,0.024,0.366,0.073s0.165,0.181,0.234,0.396c0.068,0.215,0.103,0.518,0.103,0.908
		v23.672c0,2.266-0.093,4.282-0.278,6.05c-0.187,1.768-0.435,3.262-0.747,4.482s-0.737,2.261-1.274,3.12
		c-0.538,0.859-1.084,1.538-1.641,2.036s-1.241,0.889-2.051,1.172c-0.811,0.283-1.577,0.464-2.3,0.542
		S404.971,204.276,403.955,204.276z"/>
	<path fill="#FFFFFF" d="M421.943,203.836c-0.254,0-0.439-0.083-0.557-0.249s-0.176-0.522-0.176-1.069v-39.463
		c0-0.586,0.059-0.957,0.176-1.113s0.303-0.234,0.557-0.234h9.844c1.23,0,2.28,0.068,3.149,0.205
		c0.868,0.137,1.763,0.43,2.681,0.879s1.655,1.074,2.212,1.875s1.015,1.895,1.377,3.281c0.361,1.387,0.542,3.057,0.542,5.01
		c0,1.465-0.107,2.739-0.322,3.823s-0.537,1.963-0.967,2.637s-0.894,1.206-1.392,1.597s-1.099,0.723-1.802,0.996
		c-0.059,0.059-0.088,0.117-0.088,0.176s0.029,0.107,0.088,0.146c0.703,0.332,1.274,0.674,1.714,1.025s0.884,0.864,1.333,1.538
		s0.791,1.587,1.025,2.739s0.381,2.568,0.439,4.248c0.078,1.523,0.117,5.02,0.117,10.488c0,0.977-0.176,1.465-0.527,1.465
		c-3.027,0.02-4.58,0.029-4.658,0.029c-0.313,0-0.479-0.439-0.498-1.318c0-0.137-0.059-2.324-0.176-6.563s-0.244-6.68-0.381-7.324
		c-0.059-0.801-0.22-1.47-0.483-2.007s-0.605-0.928-1.025-1.172c-0.421-0.244-0.835-0.41-1.245-0.498s-0.879-0.132-1.406-0.132
		h-4.189c-0.215,0-0.322,0.215-0.322,0.645v17.021c0,0.547-0.059,0.903-0.176,1.069s-0.303,0.249-0.557,0.249H421.943z
		 M427.275,180.281h3.779c3.262,0,4.893-2.373,4.893-7.119c0-2.52-0.444-4.282-1.333-5.288c-0.89-1.006-2.378-1.509-4.468-1.509
		h-2.842c-0.215,0-0.322,0.195-0.322,0.586v12.539C426.982,180.018,427.08,180.281,427.275,180.281z"/>
</g>
</svg>
