<?xml version="1.0" encoding="utf-8"?>
<!-- Generator: Adobe Illustrator 22.0.1, SVG Export Plug-In . SVG Version: 6.00 Build 0)  -->
<svg version="1.1" id="Ebene_1" xmlns="http://www.w3.org/2000/svg" xmlns:xlink="http://www.w3.org/1999/xlink" x="0px" y="0px"
	 viewBox="0 0 300.5 300.5" style="enable-background:new 0 0 300.5 300.5;" xml:space="preserve">
<style type="text/css">
	.st0{fill:#EACD99;}
	.st1{enable-background:new    ;}
	.st2{fill:#3A3326;}
	.st3{fill:none;stroke:#C1272D;stroke-width:3.0947;stroke-miterlimit:10;}
	.st4{fill:#C1272D;}
	.st5{fill:none;stroke:#000000;stroke-width:3.0947;stroke-miterlimit:10;}
	.st6{fill:none;stroke:#FFFFFF;stroke-width:4;stroke-miterlimit:10;}
	.st7{fill:none;stroke:#C1272D;stroke-width:4;stroke-miterlimit:10;}
</style>
<path class="st0" d="M238.2,300.5H62.4c-34.3,0-62.4-28-62.4-62.3V62.4C0,28.1,28.1,0,62.4,0h175.8c34.3,0,62.4,28.1,62.4,62.4
	v175.8C300.5,272.5,272.5,300.5,238.2,300.5z"/>
<g>
	<g class="st1">
		<path d="M144.1,37.6c1.1,0.6,3.6,1.6,6,1.6c3.2,0,4.8-1.5,4.8-3.5c0-2.6-2.6-3.7-5.2-3.7h-2.5v-4.4h2.4c2,0,4.6-0.8,4.6-3
			c0-1.6-1.3-2.7-3.8-2.7c-2.1,0-4.4,0.9-5.4,1.6l-1.2-4.4c1.6-1,4.7-2,8-2c5.6,0,8.6,2.9,8.6,6.5c0,2.8-1.6,4.9-4.8,6v0.1
			c3.1,0.6,5.6,2.9,5.6,6.3c0,4.6-4,8-10.6,8c-3.4,0-6.2-0.9-7.7-1.8L144.1,37.6z"/>
	</g>
</g>
<g>
	<g class="st1">
		<path d="M73.5,117.3v-3.7l3.4-3c5.7-5.1,8.4-8,8.5-11c0-2.1-1.3-3.8-4.3-3.8c-2.2,0-4.2,1.1-5.6,2.2l-1.7-4.4c2-1.5,5-2.7,8.5-2.7
			c5.9,0,9.1,3.4,9.1,8.2c0,4.4-3.2,7.8-6.9,11.2l-2.4,2v0.1H92v5H73.5z"/>
	</g>
</g>
<g>
	<g class="st1">
		<path d="M221.8,117.9v-6.2h-11.5v-4l9.8-15.8h7.4v15.2h3.1v4.6h-3.1v6.2H221.8z M221.8,107.2v-5.8c0-1.6,0.1-3.2,0.2-4.8h-0.2
			c-0.8,1.7-1.5,3.2-2.4,4.8l-3.5,5.7v0.1H221.8z"/>
	</g>
</g>
<g>
	<g class="st1">
		<path d="M278.3,178h-10.1l-0.6,4c0.6-0.1,1-0.1,1.7-0.1c2.5,0,5,0.6,6.8,1.9c2,1.3,3.2,3.5,3.2,6.5c0,4.8-4.2,9.1-11.2,9.1
			c-3.2,0-5.8-0.7-7.2-1.5l1.1-4.6c1.2,0.6,3.5,1.3,5.9,1.3c2.5,0,5.2-1.2,5.2-4c0-2.7-2.1-4.3-7.3-4.3c-1.4,0-2.4,0.1-3.5,0.2
			L264,173h14.3V178z"/>
	</g>
</g>
<g>
	<g class="st1">
		<path d="M36.5,177.7L36.5,177.7l-5,2.4l-1-4.6l6.9-3.2h5v26h-5.9V177.7z"/>
	</g>
</g>
<g class="st1">
	<path class="st2" d="M32.1,238l-0.4-2.6h-0.1c-1.4,1.8-3.9,3.1-6.9,3.1c-4.7,0-7.3-3.4-7.3-7c0-5.9,5.2-8.9,13.9-8.8v-0.4
		c0-1.5-0.6-4.1-4.8-4.1c-2.3,0-4.7,0.7-6.3,1.7l-1.2-3.8c1.7-1.1,4.8-2.1,8.4-2.1c7.5,0,9.6,4.8,9.6,9.8v8.4c0,2.1,0.1,4.2,0.3,5.6
		H32.1z M31.4,226.5c-4.2-0.1-8.2,0.8-8.2,4.4c0,2.3,1.5,3.4,3.4,3.4c2.4,0,4.1-1.5,4.6-3.2c0.1-0.4,0.2-0.9,0.2-1.3V226.5z"/>
	<path class="st2" d="M64.3,231c0,2.8,0.1,5.1,0.2,7h-5.2l-0.3-3.6h-0.1c-1,1.7-3.3,4.1-7.5,4.1c-4.3,0-8.2-2.5-8.2-10.2v-13.7h5.9
		v12.7c0,3.9,1.2,6.4,4.4,6.4c2.4,0,3.9-1.7,4.5-3.2c0.2-0.5,0.3-1.2,0.3-1.8v-14.1h5.9V231z"/>
	<path class="st2" d="M71.3,238v-19h-3.2v-4.4h3.2v-1c0-3,0.8-6,2.8-8c1.7-1.6,4.1-2.3,6.1-2.3c1.6,0,2.8,0.2,3.8,0.6l-0.4,4.6
		c-0.6-0.2-1.4-0.4-2.5-0.4c-2.9,0-3.9,2.4-3.9,5.3v1.2h5.1v4.4h-5.1v19H71.3z"/>
	<path class="st2" d="M85.3,232.5c1.3,0.8,3.9,1.7,6,1.7c2.6,0,3.7-1.1,3.7-2.6c0-1.6-1-2.4-3.8-3.4c-4.6-1.6-6.5-4.1-6.4-6.8
		c0-4.1,3.4-7.3,8.8-7.3c2.6,0,4.8,0.7,6.2,1.4l-1.2,4.2c-1-0.6-2.9-1.3-4.9-1.3c-2.1,0-3.3,1-3.3,2.4c0,1.5,1.1,2.2,4.1,3.3
		c4.2,1.5,6.2,3.7,6.2,7.2c0,4.2-3.3,7.3-9.5,7.3c-2.8,0-5.4-0.7-7.1-1.6L85.3,232.5z"/>
	<path class="st2" d="M112.4,207.9v6.7h5.6v4.4h-5.6v10.3c0,2.8,0.8,4.3,3,4.3c1,0,1.8-0.1,2.3-0.3l0.1,4.5
		c-0.9,0.3-2.4,0.6-4.3,0.6c-2.2,0-4-0.7-5.1-1.9c-1.2-1.3-1.8-3.5-1.8-6.5v-11h-3.4v-4.4h3.4v-5.3L112.4,207.9z"/>
	<path class="st2" d="M126.3,227.9c0.1,4.2,3.5,6,7.2,6c2.7,0,4.7-0.4,6.5-1.1l0.9,4.1c-2,0.8-4.8,1.4-8.2,1.4
		c-7.6,0-12-4.7-12-11.8c0-6.5,3.9-12.6,11.4-12.6c7.6,0,10.1,6.2,10.1,11.4c0,1.1-0.1,2-0.2,2.5H126.3z M136.6,223.8
		c0-2.2-0.9-5.7-4.8-5.7c-3.6,0-5.2,3.3-5.4,5.7H136.6z"/>
	<path class="st2" d="M153.2,208.1c0,1.8-1.3,3.2-3.4,3.2c-2,0-3.3-1.4-3.3-3.2c0-1.8,1.3-3.2,3.3-3.2
		C151.9,204.9,153.2,206.2,153.2,208.1z M146.9,238v-23.4h6V238H146.9z"/>
	<path class="st2" d="M180.6,214.6c-0.1,1.6-0.2,3.5-0.2,6.7v13.3c0,4.9-1,8.4-3.5,10.6c-2.4,2.2-5.8,2.8-9,2.8
		c-3,0-6.1-0.6-8.2-1.9l1.3-4.5c1.5,0.9,4,1.8,6.8,1.8c3.8,0,6.7-2,6.7-7.1v-2h-0.1c-1.3,2.1-3.7,3.5-6.8,3.5
		c-5.8,0-9.9-4.8-9.9-11.4c0-7.7,5-12.3,10.6-12.3c3.6,0,5.7,1.7,6.8,3.6h0.1l0.2-3.1H180.6z M174.5,224c0-0.5,0-1.1-0.2-1.6
		c-0.6-2.2-2.3-3.8-4.8-3.8c-3.3,0-5.8,2.9-5.8,7.6c0,4,2,7.2,5.7,7.2c2.2,0,4.1-1.4,4.8-3.6c0.1-0.6,0.2-1.4,0.2-2.1V224z"/>
	<path class="st2" d="M190.9,227.9c0.1,4.2,3.5,6,7.2,6c2.7,0,4.7-0.4,6.5-1.1l0.9,4.1c-2,0.8-4.8,1.4-8.2,1.4
		c-7.6,0-12-4.7-12-11.8c0-6.5,3.9-12.6,11.4-12.6c7.6,0,10.1,6.2,10.1,11.4c0,1.1-0.1,2-0.2,2.5H190.9z M201.2,223.8
		c0-2.2-0.9-5.7-4.8-5.7c-3.6,0-5.2,3.3-5.4,5.7H201.2z"/>
	<path class="st2" d="M211.5,221.6c0-2.7,0-4.9-0.2-7h5.2l0.3,3.5h0.1c1-1.8,3.6-4,7.4-4c4.1,0,8.3,2.6,8.3,10V238h-5.9v-13.2
		c0-3.4-1.2-5.9-4.5-5.9c-2.4,0-4,1.7-4.6,3.5c-0.2,0.5-0.2,1.2-0.2,1.9V238h-6V221.6z"/>
	<path class="st2" d="M260.5,203.9v27.5c0,2.4,0.1,5,0.2,6.6h-5.3l-0.2-3.7h-0.1c-1.4,2.6-4.2,4.2-7.6,4.2c-5.6,0-10-4.8-10-12
		c0-7.8,4.8-12.5,10.5-12.5c3.2,0,5.5,1.3,6.6,3.1h0.1v-13.3H260.5z M254.6,224.3c0-0.5,0-1.1-0.1-1.5c-0.5-2.3-2.4-4.2-5.1-4.2
		c-3.8,0-5.9,3.4-5.9,7.7c0,4.3,2.1,7.4,5.9,7.4c2.4,0,4.5-1.6,5.1-4.2c0.1-0.5,0.2-1.1,0.2-1.7V224.3z"/>
	<path class="st2" d="M271,227.9c0.1,4.2,3.5,6,7.2,6c2.7,0,4.7-0.4,6.5-1.1l0.9,4.1c-2,0.8-4.8,1.4-8.2,1.4c-7.6,0-12-4.7-12-11.8
		c0-6.5,3.9-12.6,11.4-12.6c7.6,0,10.1,6.2,10.1,11.4c0,1.1-0.1,2-0.2,2.5H271z M281.3,223.8c0-2.2-0.9-5.7-4.8-5.7
		c-3.6,0-5.2,3.3-5.4,5.7H281.3z"/>
</g>
<g class="st1">
	<path class="st2" d="M58.5,253.6v13h13.7v-13h5.9V286h-5.9v-14.3H58.5V286h-5.9v-32.4H58.5z"/>
	<path class="st2" d="M97.8,286l-0.4-2.6h-0.1c-1.4,1.8-3.9,3.1-6.9,3.1c-4.7,0-7.3-3.4-7.3-7c0-5.9,5.2-8.9,13.9-8.8v-0.4
		c0-1.5-0.6-4.1-4.8-4.1c-2.3,0-4.7,0.7-6.3,1.7l-1.2-3.8c1.7-1.1,4.8-2.1,8.4-2.1c7.5,0,9.6,4.8,9.6,9.8v8.4c0,2.1,0.1,4.2,0.3,5.6
		H97.8z M97,274.5c-4.2-0.1-8.2,0.8-8.2,4.4c0,2.3,1.5,3.4,3.4,3.4c2.4,0,4.1-1.5,4.6-3.2c0.1-0.4,0.2-0.9,0.2-1.3V274.5z"/>
	<path class="st2" d="M109,269.6c0-2.7,0-4.9-0.2-7h5.2l0.3,3.5h0.1c1-1.8,3.6-4,7.4-4c4.1,0,8.3,2.6,8.3,10V286h-5.9v-13.2
		c0-3.4-1.2-5.9-4.5-5.9c-2.4,0-4,1.7-4.6,3.5c-0.2,0.5-0.2,1.2-0.2,1.9V286h-6V269.6z"/>
	<path class="st2" d="M158,251.9v27.5c0,2.4,0.1,5,0.2,6.6h-5.3l-0.2-3.7h-0.1c-1.4,2.6-4.2,4.2-7.6,4.2c-5.6,0-10-4.8-10-12
		c0-7.8,4.8-12.5,10.5-12.5c3.2,0,5.5,1.3,6.6,3.1h0.1v-13.3H158z M152.1,272.3c0-0.5,0-1.1-0.1-1.5c-0.5-2.3-2.4-4.2-5.1-4.2
		c-3.8,0-5.9,3.4-5.9,7.7c0,4.3,2.1,7.4,5.9,7.4c2.4,0,4.5-1.6,5.1-4.2c0.1-0.5,0.2-1.1,0.2-1.7V272.3z"/>
	<path class="st2" d="M164.3,251.9h6V286h-6V251.9z"/>
	<path class="st2" d="M197.6,279c0,2.8,0.1,5.1,0.2,7h-5.2l-0.3-3.6h-0.1c-1,1.7-3.3,4.1-7.5,4.1c-4.3,0-8.2-2.5-8.2-10.2v-13.7h5.9
		v12.7c0,3.9,1.2,6.4,4.4,6.4c2.4,0,3.9-1.7,4.5-3.2c0.2-0.5,0.3-1.2,0.3-1.8v-14.1h5.9V279z"/>
	<path class="st2" d="M204,269.6c0-2.7,0-4.9-0.2-7h5.2l0.3,3.5h0.1c1-1.8,3.6-4,7.4-4c4.1,0,8.3,2.6,8.3,10V286h-5.9v-13.2
		c0-3.4-1.2-5.9-4.5-5.9c-2.4,0-4,1.7-4.6,3.5c-0.2,0.5-0.2,1.2-0.2,1.9V286h-6V269.6z"/>
	<path class="st2" d="M252.8,262.6c-0.1,1.6-0.2,3.5-0.2,6.7v13.3c0,4.9-1,8.4-3.5,10.6c-2.4,2.2-5.8,2.8-9,2.8
		c-3,0-6.1-0.6-8.2-1.9l1.3-4.5c1.5,0.9,4,1.8,6.8,1.8c3.8,0,6.7-2,6.7-7.1v-2h-0.1c-1.3,2.1-3.7,3.5-6.8,3.5
		c-5.8,0-9.9-4.8-9.9-11.4c0-7.7,5-12.3,10.6-12.3c3.6,0,5.7,1.7,6.8,3.6h0.1l0.2-3.1H252.8z M246.7,272c0-0.5,0-1.1-0.2-1.6
		c-0.6-2.2-2.3-3.8-4.8-3.8c-3.3,0-5.8,2.9-5.8,7.6c0,4,2,7.2,5.7,7.2c2.2,0,4.1-1.4,4.8-3.6c0.1-0.6,0.2-1.4,0.2-2.1V272z"/>
</g>
<g>
	<g>
		<line class="st3" x1="141.3" y1="89.7" x2="69.7" y2="183.2"/>
		<g>
			<polygon class="st4" points="135.3,87.3 146.7,82.6 145.1,94.9 			"/>
		</g>
	</g>
</g>
<g>
	<g>
		<line class="st5" x1="231.3" y1="178.4" x2="159.7" y2="84.9"/>
		<g>
			<polygon points="235.1,173.3 236.7,185.5 225.3,180.8 			"/>
		</g>
	</g>
</g>
<path class="st6" d="M252,183L152.4,52.9c-2.6,3.4-99.5,130-99.5,130"/>
<path class="st7" d="M91.4,133"/>
<path class="st7" d="M130,82.6"/>
<path class="st7" d="M213.7,133"/>
<path class="st7" d="M175.1,82.6"/>
</svg>
