<?xml version="1.0" encoding="iso-8859-1"?>
<!-- Generator: Adobe Illustrator 16.0.3, SVG Export Plug-In . SVG Version: 6.00 Build 0)  -->
<!DOCTYPE svg PUBLIC "-//W3C//DTD SVG 1.1//EN" "http://www.w3.org/Graphics/SVG/1.1/DTD/svg11.dtd">
<svg version="1.1" id="Ebene_1" xmlns="http://www.w3.org/2000/svg" xmlns:xlink="http://www.w3.org/1999/xlink" x="0px" y="0px"
	 width="518px" height="518px" viewBox="0 0 518 518" style="enable-background:new 0 0 518 518;" xml:space="preserve">
<path style="fill-rule:evenodd;clip-rule:evenodd;fill:#CE2228;" d="M518,512c0,3.313-2.017,6-4.505,6H4.505
	C2.018,518,0,515.313,0,512V6c0-3.313,2.017-6,4.504-6h508.99C515.983,0,518,2.687,518,6V512z"/>
<g>
	<g id="XMLID_1_">
		<g>
			<path style="fill:#CE2228;" d="M419.679,200.93c0.57,87.61-71.08,160.28-160.37,160.66c-88.46,0.38-160.09-70.49-161.13-160.5
				c0.91-91.88,75.04-160.51,160.47-160.72C346.899,40.14,419.099,111.9,419.679,200.93z"/>
			<path style="fill:#FCFBFB;" d="M98.179,201.09c1.04,90.01,72.67,160.88,161.13,160.5c89.29-0.38,160.94-73.05,160.37-160.66
				c-0.58-89.03-72.779-160.79-161.03-160.56C173.219,40.58,99.089,109.21,98.179,201.09z M254.709,376.09
				c-94.72-2.21-173.28-81.439-170.77-179.76c2.41-94.42,80.57-170.87,175.1-170.34c96.51-0.58,177.17,79.81,175.04,178.93
				C432.039,300.08,352.519,378.37,254.709,376.09z"/>
		</g>
		<g>
		</g>
	</g>
</g>
<g>
	<rect x="-7.001" y="413" style="fill-rule:evenodd;clip-rule:evenodd;fill:none;" width="525.002" height="106"/>
	<path style="fill:#FFFFFF;" d="M167.292,435.144l-4.028,4.272V450.5h-6.177v-35.547h6.177v16.675l3.418-4.224l10.4-12.451h7.471
		L171.345,430.7l13.965,19.8h-7.324L167.292,435.144z"/>
	<path style="fill:#FFFFFF;" d="M203.815,450.5c-0.261-0.504-0.488-1.326-0.684-2.466c-1.888,1.97-4.199,2.954-6.934,2.954
		c-2.653,0-4.818-0.757-6.494-2.271c-1.677-1.514-2.515-3.385-2.515-5.615c0-2.815,1.045-4.977,3.137-6.481
		c2.091-1.506,5.082-2.259,8.972-2.259h3.638v-1.733c0-1.367-0.383-2.462-1.147-3.283c-0.765-0.822-1.929-1.233-3.491-1.233
		c-1.351,0-2.458,0.338-3.32,1.013c-0.863,0.676-1.294,1.535-1.294,2.576h-5.933c0-1.448,0.48-2.804,1.44-4.064
		c0.96-1.262,2.266-2.25,3.918-2.967c1.652-0.716,3.495-1.074,5.53-1.074c3.092,0,5.558,0.777,7.397,2.332
		c1.839,1.554,2.783,3.739,2.832,6.555v11.914c0,2.377,0.333,4.272,1.001,5.688v0.415H203.815z M197.297,446.228
		c1.172,0,2.274-0.284,3.308-0.854c1.033-0.569,1.811-1.334,2.332-2.295v-4.98h-3.198c-2.197,0-3.85,0.383-4.956,1.147
		c-1.107,0.766-1.66,1.848-1.66,3.247c0,1.14,0.378,2.047,1.135,2.723C195.014,445.89,196.027,446.228,197.297,446.228z"/>
	<path style="fill:#FFFFFF;" d="M228.913,429.504c-0.781-0.13-1.587-0.195-2.417-0.195c-2.718,0-4.549,1.042-5.493,3.125V450.5
		h-5.933v-26.416h5.664l0.146,2.954c1.432-2.295,3.418-3.442,5.957-3.442c0.846,0,1.546,0.114,2.1,0.342L228.913,429.504z"/>
	<path style="fill:#FFFFFF;" d="M232.673,417.224c0-0.911,0.289-1.668,0.867-2.271c0.578-0.602,1.404-0.903,2.478-0.903
		s1.904,0.302,2.49,0.903c0.586,0.603,0.879,1.359,0.879,2.271c0,0.896-0.293,1.64-0.879,2.233c-0.586,0.595-1.416,0.892-2.49,0.892
		s-1.9-0.297-2.478-0.892C232.961,418.863,232.673,418.119,232.673,417.224z M238.972,450.5h-5.933v-26.416h5.933V450.5z"/>
	<path style="fill:#FFFFFF;" d="M254.011,439.172l-2.637,2.71v8.618h-5.933V413h5.933v21.631l1.855-2.319l7.3-8.228h7.129
		l-9.814,11.011l10.864,15.405h-6.86L254.011,439.172z"/>
	<path style="fill:#FFFFFF;" d="M287.312,450.5c-0.261-0.504-0.488-1.326-0.684-2.466c-1.888,1.97-4.199,2.954-6.934,2.954
		c-2.653,0-4.818-0.757-6.494-2.271c-1.677-1.514-2.515-3.385-2.515-5.615c0-2.815,1.045-4.977,3.137-6.481
		c2.091-1.506,5.082-2.259,8.972-2.259h3.638v-1.733c0-1.367-0.383-2.462-1.147-3.283c-0.765-0.822-1.929-1.233-3.491-1.233
		c-1.351,0-2.458,0.338-3.32,1.013c-0.863,0.676-1.294,1.535-1.294,2.576h-5.933c0-1.448,0.48-2.804,1.44-4.064
		c0.96-1.262,2.266-2.25,3.918-2.967c1.652-0.716,3.495-1.074,5.53-1.074c3.092,0,5.558,0.777,7.397,2.332
		c1.839,1.554,2.783,3.739,2.832,6.555v11.914c0,2.377,0.333,4.272,1.001,5.688v0.415H287.312z M280.793,446.228
		c1.172,0,2.274-0.284,3.308-0.854c1.033-0.569,1.811-1.334,2.332-2.295v-4.98h-3.198c-2.197,0-3.85,0.383-4.956,1.147
		c-1.107,0.766-1.66,1.848-1.66,3.247c0,1.14,0.378,2.047,1.135,2.723C278.51,445.89,279.523,446.228,280.793,446.228z"/>
	<path style="fill:#FFFFFF;" d="M306.013,417.663v6.421h4.663v4.395h-4.663v14.746c0,1.01,0.199,1.737,0.598,2.186
		c0.398,0.447,1.111,0.671,2.136,0.671c0.684,0,1.375-0.081,2.075-0.244v4.59c-1.351,0.374-2.653,0.562-3.906,0.562
		c-4.558,0-6.836-2.515-6.836-7.544v-14.966h-4.346v-4.395h4.346v-6.421H306.013z"/>
	<path style="fill:#FFFFFF;" d="M331.208,447.912c-1.742,2.051-4.216,3.076-7.422,3.076c-2.865,0-5.034-0.838-6.506-2.515
		c-1.473-1.676-2.209-4.102-2.209-7.275v-17.114h5.933v17.041c0,3.354,1.392,5.029,4.175,5.029c2.881,0,4.826-1.033,5.835-3.101
		v-18.97h5.933V450.5h-5.591L331.208,447.912z"/>
	<path style="fill:#FFFFFF;" d="M356.818,429.504c-0.781-0.13-1.587-0.195-2.417-0.195c-2.719,0-4.55,1.042-5.493,3.125V450.5
		h-5.933v-26.416h5.664l0.146,2.954c1.432-2.295,3.418-3.442,5.957-3.442c0.846,0,1.546,0.114,2.1,0.342L356.818,429.504z"/>
</g>
<path style="fill-rule:evenodd;clip-rule:evenodd;fill:#FFFFFF;" d="M195.098,81.41c11.213,1.003,20.021,1.572,28.773,2.616
	c26.267,3.132,52.442,2.666,78.679-0.681c14.529-1.854,29.155-2.678,43.631,1.45c5.558,1.584,8.207,4.776,9.421,10.23
	c2.783,12.513,0.976,24.864-0.752,37.226c-3.845,27.519-7.964,55-11.672,82.537c-2.289,16.996-7.787,32.472-18.194,46.339
	c-10.288,13.71-19.801,28.001-29.712,41.996c-11.303,15.959-26.592,21.939-45.732,17.989c-8.319-1.717-15.563-5.903-20.438-12.591
	c-14.7-20.166-29.282-40.45-42.988-61.295c-7.351-11.18-8.194-24.822-10.06-37.828c-3.992-27.831-7.825-55.687-11.772-83.524
	c-1.505-10.615-2.023-21.166,0.359-31.765c1.117-4.97,3.723-8.151,8.693-9.054C181.317,83.606,189.338,82.366,195.098,81.41z
	 M217.648,237.669c4.458,21.023,25.052,35.711,46.555,34.226c16.399-1.133,36.111-18.831,37.159-33.919
	C273.641,253.648,245.955,253.725,217.648,237.669z M194.207,171.196c14.663,3.587,28.998,5.609,44.063,1.412
	c-2.168-7.548-7.719-10.507-13.912-12.027C212.444,157.655,202.472,161.331,194.207,171.196z M325.183,171.225
	c-8.324-10.034-18.226-13.465-29.915-10.694c-6.402,1.517-12.081,4.588-14.136,12.122
	C296.016,176.718,310.29,174.858,325.183,171.225z M332.061,119.261c-2.065,0-3.218-0.066-4.36,0.01
	c-20.057,1.337-36.267,10.795-50.598,24.114c-3.748,3.484-4.004,7.364-1,9.817c2.924,2.388,6.21,1.604,9.254-2.396
	c7.226-9.492,15.657-17.738,26.256-23.267C317.796,124.314,324.579,122.239,332.061,119.261z M188.721,119.84
	c19.921,4.217,34.429,16.069,46.463,31.629c2.763,3.572,6.376,4.107,8.96,1.401c2.853-2.988,2.563-6.37-0.548-8.702
	c-8.222-6.165-16.349-12.596-25.195-17.751C209.458,121.206,199.326,119.045,188.721,119.84z"/>
</svg>
