<?xml version="1.0" encoding="iso-8859-1"?>
<!-- Generator: Adobe Illustrator 16.0.3, SVG Export Plug-In . SVG Version: 6.00 Build 0)  -->
<!DOCTYPE svg PUBLIC "-//W3C//DTD SVG 1.1//EN" "http://www.w3.org/Graphics/SVG/1.1/DTD/svg11.dtd">
<svg version="1.1" id="Ebene_1" xmlns="http://www.w3.org/2000/svg" xmlns:xlink="http://www.w3.org/1999/xlink" x="0px" y="0px"
	 width="518px" height="518px" viewBox="0 0 518 518" style="enable-background:new 0 0 518 518;" xml:space="preserve">
<path style="fill-rule:evenodd;clip-rule:evenodd;fill:#1680B8;" d="M518,512c0,3.313-2.017,6-4.505,6H4.505
	C2.018,518,0,515.313,0,512V6c0-3.313,2.017-6,4.504-6h508.99C515.983,0,518,2.687,518,6V512z"/>
<g>
	<g id="XMLID_1_">
		<g>
			<path style="fill:#FCFBFB;" d="M259.039,25.99c96.51-0.58,177.17,79.81,175.04,178.93c-2.04,95.16-81.561,173.45-179.37,171.17
				c-94.72-2.21-173.28-81.439-170.77-179.76C86.349,101.91,164.509,25.46,259.039,25.99z M259.309,361.59
				c89.29-0.38,160.94-73.05,160.37-160.66c-0.58-89.03-72.779-160.79-161.03-160.56c-85.43,0.21-159.56,68.84-160.47,160.72
				C99.219,291.1,170.849,361.97,259.309,361.59z"/>
			<path style="fill:#1680B8;" d="M419.679,200.93c0.57,87.61-71.08,160.28-160.37,160.66c-88.46,0.38-160.09-70.49-161.13-160.5
				c0.91-91.88,75.04-160.51,160.47-160.72C346.899,40.14,419.099,111.9,419.679,200.93z"/>
		</g>
		<g>
		</g>
	</g>
</g>
<g>
	<rect x="-7.001" y="413" style="fill-rule:evenodd;clip-rule:evenodd;fill:none;" width="525.002" height="106"/>
	<path style="fill:#FFFFFF;" d="M129.316,450.5v-35.547h12.183c4.02,0,7.08,0.806,9.18,2.417s3.149,4.013,3.149,7.202
		c0,1.628-0.439,3.093-1.318,4.395c-0.879,1.303-2.165,2.312-3.857,3.027c1.92,0.521,3.406,1.502,4.456,2.941
		c1.05,1.441,1.575,3.171,1.575,5.188c0,3.337-1.07,5.9-3.21,7.69c-2.141,1.791-5.205,2.686-9.192,2.686H129.316z M135.493,429.919
		h6.055c1.92,0,3.422-0.436,4.504-1.306c1.082-0.871,1.624-2.104,1.624-3.699c0-1.758-0.5-3.027-1.501-3.809
		s-2.56-1.172-4.675-1.172h-6.006V429.919z M135.493,434.46v11.108h6.86c1.937,0,3.45-0.479,4.541-1.44
		c1.09-0.96,1.636-2.295,1.636-4.004c0-3.694-1.888-5.582-5.664-5.664H135.493z"/>
	<path style="fill:#FFFFFF;" d="M171.918,450.988c-3.76,0-6.808-1.184-9.143-3.553c-2.336-2.367-3.503-5.521-3.503-9.46v-0.732
		c0-2.637,0.508-4.993,1.526-7.067c1.017-2.076,2.445-3.69,4.285-4.847c1.839-1.155,3.89-1.733,6.152-1.733
		c3.597,0,6.376,1.147,8.337,3.442c1.961,2.295,2.942,5.542,2.942,9.741v2.393h-17.261c0.179,2.182,0.907,3.906,2.185,5.176
		c1.277,1.27,2.885,1.904,4.822,1.904c2.718,0,4.932-1.099,6.641-3.296l3.198,3.052c-1.058,1.579-2.47,2.804-4.236,3.674
		C176.097,450.553,174.116,450.988,171.918,450.988z M171.21,428.356c-1.628,0-2.942,0.57-3.943,1.709
		c-1.001,1.14-1.64,2.727-1.917,4.761h11.304v-0.439c-0.13-1.985-0.659-3.487-1.587-4.504
		C174.14,428.865,172.854,428.356,171.21,428.356z"/>
	<path style="fill:#FFFFFF;" d="M210.322,442.321l4.199-18.237h5.786l-7.202,26.416h-4.883l-5.664-18.14l-5.566,18.14h-4.883
		l-7.227-26.416h5.786l4.272,18.042l5.42-18.042h4.468L210.322,442.321z"/>
	<path style="fill:#FFFFFF;" d="M235.908,450.988c-3.76,0-6.808-1.184-9.143-3.553c-2.336-2.367-3.503-5.521-3.503-9.46v-0.732
		c0-2.637,0.508-4.993,1.526-7.067c1.017-2.076,2.445-3.69,4.285-4.847c1.839-1.155,3.89-1.733,6.152-1.733
		c3.597,0,6.376,1.147,8.337,3.442c1.961,2.295,2.942,5.542,2.942,9.741v2.393h-17.261c0.179,2.182,0.907,3.906,2.185,5.176
		c1.277,1.27,2.885,1.904,4.822,1.904c2.718,0,4.932-1.099,6.641-3.296l3.198,3.052c-1.058,1.579-2.47,2.804-4.236,3.674
		C240.086,450.553,238.105,450.988,235.908,450.988z M235.2,428.356c-1.628,0-2.942,0.57-3.943,1.709
		c-1.001,1.14-1.64,2.727-1.917,4.761h11.304v-0.439c-0.13-1.985-0.659-3.487-1.587-4.504
		C238.129,428.865,236.843,428.356,235.2,428.356z"/>
	<path style="fill:#FFFFFF;" d="M251.118,417.224c0-0.911,0.289-1.668,0.867-2.271c0.578-0.602,1.404-0.903,2.478-0.903
		s1.904,0.302,2.49,0.903c0.586,0.603,0.879,1.359,0.879,2.271c0,0.896-0.293,1.64-0.879,2.233c-0.586,0.595-1.416,0.892-2.49,0.892
		s-1.9-0.297-2.478-0.892C251.406,418.863,251.118,418.119,251.118,417.224z M257.417,450.5h-5.933v-26.416h5.933V450.5z"/>
	<path style="fill:#FFFFFF;" d="M278.681,443.322c0-1.058-0.436-1.863-1.306-2.417c-0.871-0.553-2.315-1.041-4.333-1.465
		c-2.019-0.423-3.703-0.96-5.054-1.611c-2.962-1.432-4.443-3.507-4.443-6.226c0-2.278,0.96-4.183,2.881-5.713
		c1.92-1.529,4.362-2.295,7.324-2.295c3.157,0,5.708,0.781,7.654,2.344c1.945,1.563,2.917,3.589,2.917,6.079h-5.933
		c0-1.139-0.423-2.087-1.27-2.845c-0.847-0.756-1.97-1.135-3.369-1.135c-1.302,0-2.364,0.302-3.186,0.903
		c-0.822,0.603-1.233,1.408-1.233,2.417c0,0.912,0.382,1.62,1.147,2.124c0.765,0.505,2.311,1.013,4.639,1.526
		c2.327,0.512,4.154,1.123,5.481,1.83c1.326,0.709,2.311,1.56,2.954,2.552c0.643,0.993,0.964,2.197,0.964,3.613
		c0,2.377-0.985,4.301-2.954,5.774c-1.97,1.473-4.549,2.209-7.739,2.209c-2.165,0-4.094-0.391-5.786-1.172
		c-1.693-0.781-3.011-1.855-3.955-3.223c-0.944-1.367-1.416-2.84-1.416-4.419h5.762c0.081,1.4,0.61,2.478,1.587,3.235
		c0.977,0.756,2.271,1.135,3.882,1.135c1.563,0,2.75-0.297,3.564-0.891C278.274,445.06,278.681,444.283,278.681,443.322z"/>
	<path style="fill:#FFFFFF;" d="M295.991,450.5h-5.933V413h5.933V450.5z"/>
	<path style="fill:#FFFFFF;" d="M318.232,450.5c-0.261-0.504-0.488-1.326-0.684-2.466c-1.888,1.97-4.199,2.954-6.934,2.954
		c-2.653,0-4.818-0.757-6.494-2.271c-1.677-1.514-2.515-3.385-2.515-5.615c0-2.815,1.045-4.977,3.137-6.481
		c2.091-1.506,5.082-2.259,8.972-2.259h3.638v-1.733c0-1.367-0.383-2.462-1.147-3.283c-0.765-0.822-1.929-1.233-3.491-1.233
		c-1.351,0-2.458,0.338-3.32,1.013c-0.863,0.676-1.294,1.535-1.294,2.576h-5.933c0-1.448,0.48-2.804,1.44-4.064
		c0.96-1.262,2.266-2.25,3.918-2.967c1.652-0.716,3.495-1.074,5.53-1.074c3.092,0,5.558,0.777,7.397,2.332
		c1.838,1.554,2.784,3.739,2.833,6.555v11.914c0,2.377,0.333,4.272,1,5.688v0.415H318.232z M311.713,446.228
		c1.172,0,2.274-0.284,3.308-0.854c1.033-0.569,1.811-1.334,2.332-2.295v-4.98h-3.198c-2.197,0-3.85,0.383-4.956,1.147
		c-1.107,0.766-1.66,1.848-1.66,3.247c0,1.14,0.378,2.047,1.135,2.723C309.431,445.89,310.444,446.228,311.713,446.228z"/>
	<path style="fill:#FFFFFF;" d="M344.307,443.322c0-1.058-0.436-1.863-1.307-2.417c-0.871-0.553-2.316-1.041-4.334-1.465
		c-2.018-0.423-3.703-0.96-5.053-1.611c-2.963-1.432-4.444-3.507-4.444-6.226c0-2.278,0.96-4.183,2.882-5.713
		c1.92-1.529,4.361-2.295,7.324-2.295c3.156,0,5.709,0.781,7.652,2.344c1.945,1.563,2.918,3.589,2.918,6.079h-5.932
		c0-1.139-0.424-2.087-1.27-2.845c-0.848-0.756-1.971-1.135-3.369-1.135c-1.303,0-2.365,0.302-3.188,0.903
		c-0.82,0.603-1.232,1.408-1.232,2.417c0,0.912,0.383,1.62,1.148,2.124c0.764,0.505,2.311,1.013,4.639,1.526
		c2.326,0.512,4.154,1.123,5.48,1.83c1.326,0.709,2.311,1.56,2.953,2.552c0.645,0.993,0.965,2.197,0.965,3.613
		c0,2.377-0.984,4.301-2.953,5.774c-1.971,1.473-4.551,2.209-7.74,2.209c-2.164,0-4.094-0.391-5.785-1.172
		c-1.693-0.781-3.012-1.855-3.956-3.223c-0.943-1.367-1.416-2.84-1.416-4.419h5.763c0.08,1.4,0.609,2.478,1.586,3.235
		c0.977,0.756,2.271,1.135,3.883,1.135c1.563,0,2.75-0.297,3.564-0.891C343.898,445.06,344.307,444.283,344.307,443.322z"/>
	<path style="fill:#FFFFFF;" d="M362.739,417.663v6.421h4.663v4.395h-4.663v14.746c0,1.01,0.199,1.737,0.599,2.186
		c0.398,0.447,1.11,0.671,2.136,0.671c0.684,0,1.375-0.081,2.075-0.244v4.59c-1.352,0.374-2.653,0.562-3.906,0.562
		c-4.558,0-6.836-2.515-6.836-7.544v-14.966h-4.346v-4.395h4.346v-6.421H362.739z"/>
	<path style="fill:#FFFFFF;" d="M383.442,437.78h-12.817v-4.785h12.817V437.78z"/>
	<path style="fill:#FFFFFF;" d="M135.188,494.98l5.591-18.896h6.128l-9.155,26.416H132.6l-9.229-26.416h6.152L135.188,494.98z"/>
	<path style="fill:#FFFFFF;" d="M161.921,502.988c-3.76,0-6.808-1.184-9.143-3.553c-2.336-2.367-3.503-5.521-3.503-9.46v-0.732
		c0-2.637,0.508-4.993,1.526-7.067c1.017-2.076,2.445-3.69,4.285-4.847c1.839-1.155,3.89-1.733,6.152-1.733
		c3.597,0,6.376,1.147,8.337,3.442c1.961,2.295,2.942,5.542,2.942,9.741v2.393h-17.261c0.179,2.182,0.907,3.906,2.185,5.176
		c1.277,1.27,2.885,1.904,4.822,1.904c2.718,0,4.932-1.099,6.641-3.296l3.198,3.052c-1.058,1.579-2.47,2.804-4.236,3.674
		C166.1,502.553,164.118,502.988,161.921,502.988z M161.213,480.356c-1.628,0-2.942,0.57-3.943,1.709
		c-1.001,1.14-1.64,2.727-1.917,4.761h11.304v-0.439c-0.13-1.985-0.659-3.487-1.587-4.504
		C164.143,480.865,162.856,480.356,161.213,480.356z"/>
	<path style="fill:#FFFFFF;" d="M190.949,481.504c-0.781-0.13-1.587-0.195-2.417-0.195c-2.718,0-4.549,1.042-5.493,3.125V502.5
		h-5.933v-26.416h5.664l0.146,2.954c1.432-2.295,3.418-3.442,5.957-3.442c0.846,0,1.546,0.114,2.1,0.342L190.949,481.504z"/>
	<path style="fill:#FFFFFF;" d="M201.008,502.5h-5.933V465h5.933V502.5z"/>
	<path style="fill:#FFFFFF;" d="M223.249,502.5c-0.261-0.504-0.488-1.326-0.684-2.466c-1.888,1.97-4.199,2.954-6.934,2.954
		c-2.653,0-4.818-0.757-6.494-2.271c-1.677-1.514-2.515-3.385-2.515-5.615c0-2.815,1.045-4.977,3.137-6.481
		c2.091-1.506,5.082-2.259,8.972-2.259h3.638v-1.733c0-1.367-0.383-2.462-1.147-3.283c-0.765-0.822-1.929-1.233-3.491-1.233
		c-1.351,0-2.458,0.338-3.32,1.013c-0.863,0.676-1.294,1.535-1.294,2.576h-5.933c0-1.448,0.48-2.804,1.44-4.064
		c0.96-1.262,2.266-2.25,3.918-2.967c1.652-0.716,3.495-1.074,5.53-1.074c3.092,0,5.558,0.777,7.397,2.332
		c1.839,1.554,2.783,3.739,2.832,6.555v11.914c0,2.377,0.333,4.272,1.001,5.688v0.415H223.249z M216.73,498.228
		c1.172,0,2.274-0.284,3.308-0.854c1.033-0.569,1.811-1.334,2.332-2.295v-4.98h-3.198c-2.197,0-3.85,0.383-4.956,1.147
		c-1.107,0.766-1.66,1.848-1.66,3.247c0,1.14,0.378,2.047,1.135,2.723C214.448,497.89,215.461,498.228,216.73,498.228z"/>
	<path style="fill:#FFFFFF;" d="M233.479,489.097c0-4.102,0.964-7.377,2.893-9.827c1.929-2.449,4.488-3.674,7.678-3.674
		c3.011,0,5.379,1.05,7.104,3.149l0.269-2.661h5.347v25.61c0,3.467-1.079,6.201-3.235,8.203c-2.157,2.002-5.066,3.003-8.728,3.003
		c-1.937,0-3.829-0.402-5.676-1.209c-1.848-0.805-3.251-1.859-4.211-3.161l2.808-3.564c1.823,2.164,4.069,3.247,6.738,3.247
		c1.969,0,3.523-0.533,4.663-1.6c1.139-1.065,1.709-2.633,1.709-4.699v-1.782c-1.709,1.904-3.988,2.856-6.836,2.856
		c-3.093,0-5.62-1.229-7.581-3.687C234.459,496.845,233.479,493.442,233.479,489.097z M239.387,489.609
		c0,2.653,0.541,4.74,1.624,6.262c1.082,1.522,2.583,2.283,4.504,2.283c2.393,0,4.167-1.025,5.322-3.076v-11.621
		c-1.123-2.002-2.881-3.003-5.273-3.003c-1.953,0-3.471,0.773-4.553,2.319C239.928,484.32,239.387,486.599,239.387,489.609z"/>
	<path style="fill:#FFFFFF;" d="M274.494,502.988c-3.76,0-6.808-1.184-9.143-3.553c-2.336-2.367-3.503-5.521-3.503-9.46v-0.732
		c0-2.637,0.508-4.993,1.526-7.067c1.017-2.076,2.445-3.69,4.285-4.847c1.839-1.155,3.89-1.733,6.152-1.733
		c3.597,0,6.376,1.147,8.337,3.442c1.961,2.295,2.942,5.542,2.942,9.741v2.393h-17.261c0.179,2.182,0.907,3.906,2.185,5.176
		c1.277,1.27,2.885,1.904,4.822,1.904c2.718,0,4.932-1.099,6.641-3.296l3.198,3.052c-1.058,1.579-2.47,2.804-4.236,3.674
		C278.673,502.553,276.691,502.988,274.494,502.988z M273.786,480.356c-1.628,0-2.942,0.57-3.943,1.709
		c-1.001,1.14-1.64,2.727-1.917,4.761h11.304v-0.439c-0.13-1.985-0.659-3.487-1.587-4.504
		C276.716,480.865,275.43,480.356,273.786,480.356z"/>
	<path style="fill:#FFFFFF;" d="M303.522,481.504c-0.781-0.13-1.587-0.195-2.417-0.195c-2.718,0-4.549,1.042-5.493,3.125V502.5
		h-5.933v-26.416h5.664l0.146,2.954c1.432-2.295,3.418-3.442,5.957-3.442c0.846,0,1.546,0.114,2.1,0.342L303.522,481.504z"/>
	<path style="fill:#FFFFFF;" d="M323.273,499.912c-1.742,2.051-4.216,3.076-7.422,3.076c-2.865,0-5.034-0.838-6.506-2.515
		c-1.473-1.676-2.209-4.102-2.209-7.275v-17.114h5.933v17.041c0,3.354,1.392,5.029,4.175,5.029c2.881,0,4.826-1.033,5.835-3.101
		v-18.97h5.933V502.5h-5.591L323.273,499.912z"/>
	<path style="fill:#FFFFFF;" d="M340.559,476.084l0.171,3.052c1.953-2.359,4.517-3.54,7.69-3.54c5.501,0,8.301,3.149,8.398,9.448
		V502.5h-5.933v-17.114c0-1.676-0.362-2.917-1.087-3.724c-0.724-0.805-1.908-1.208-3.552-1.208c-2.393,0-4.175,1.083-5.347,3.247
		V502.5h-5.933v-26.416H340.559z"/>
	<path style="fill:#FFFFFF;" d="M361.823,489.097c0-4.102,0.965-7.377,2.893-9.827c1.93-2.449,4.488-3.674,7.679-3.674
		c3.011,0,5.379,1.05,7.104,3.149l0.269-2.661h5.347v25.61c0,3.467-1.078,6.201-3.234,8.203c-2.157,2.002-5.066,3.003-8.729,3.003
		c-1.938,0-3.829-0.402-5.676-1.209c-1.848-0.805-3.252-1.859-4.212-3.161l2.808-3.564c1.822,2.164,4.068,3.247,6.738,3.247
		c1.969,0,3.523-0.533,4.663-1.6c1.139-1.065,1.709-2.633,1.709-4.699v-1.782c-1.709,1.904-3.988,2.856-6.836,2.856
		c-3.093,0-5.619-1.229-7.581-3.687C362.804,496.845,361.823,493.442,361.823,489.097z M367.731,489.609
		c0,2.653,0.541,4.74,1.623,6.262c1.083,1.522,2.584,2.283,4.505,2.283c2.393,0,4.166-1.025,5.322-3.076v-11.621
		c-1.123-2.002-2.881-3.003-5.273-3.003c-1.953,0-3.471,0.773-4.554,2.319C368.272,484.32,367.731,486.599,367.731,489.609z"/>
</g>
<path style="fill-rule:evenodd;clip-rule:evenodd;fill:#F9FBFD;" d="M252.548,152.477c-10.174-9.412-10.994-17.43-3.512-24.927
	c6.413-6.425,14.945-6.268,21.129,0.39c6.877,7.402,5.637,15.631-4.373,24.203c2.414,0.14,4.09,0.319,5.767,0.321
	c19.497,0.02,38.994,0.085,58.49-0.057c3.339-0.024,5.492,0.922,7.425,3.732c10.334,15.029,19.933,30.399,23.124,48.766
	c3.406,19.604-11.264,35.269-29.957,32.189c-10.417-1.715-18.38-11.769-19.688-24.705c-1.85-18.268,4.983-33.886,14.719-48.63
	c1.362-2.064,2.847-4.047,4.728-6.708c-14.729,0-28.856,0-42.159,0c0.309,4.753,0.818,9.594,0.898,14.442
	c0.146,8.996,0.047,17.997,0.036,26.995c-0.002,1.665,0.044,3.343-0.134,4.993c-0.39,3.625-0.37,8.089-5.308,8.202
	c-5.293,0.121-4.993-4.695-5.138-8.133c-0.312-7.451-0.096-14.925-0.096-22.39c-0.497-0.013-0.994-0.026-1.49-0.039
	c0,1.583,0.002,3.167-0.001,4.75c-0.054,28.16-0.107,56.321-0.161,84.481c-0.002,0.833,0.041,1.669-0.012,2.499
	c-0.286,4.521-3.789,8.241-7.746,8.259c-4.527,0.019-8.02-3.403-8.061-8.371c-0.106-12.83-0.037-25.662-0.039-38.493
	c0-1.783,0-3.566,0-5.35c-0.386-0.03-0.771-0.061-1.158-0.09c-0.217,1.835-0.615,3.67-0.623,5.507
	c-0.055,12.664-0.004,25.329-0.041,37.993c-0.018,5.931-2.438,8.482-7.903,8.532c-5.149,0.047-8.077-2.906-8.087-8.588
	c-0.053-28.662-0.025-57.324-0.025-85.986c0-1.896,0-3.791,0-5.688c-0.543-0.003-1.086-0.007-1.629-0.011
	c0,4.424,0.028,8.849-0.008,13.273c-0.037,4.662,0.301,9.394-0.43,13.949c-0.283,1.77-2.999,4.307-4.686,4.369
	c-1.723,0.064-3.83-2.248-5.207-3.97c-0.8-0.999-0.652-2.883-0.657-4.369c-0.037-12.331-0.13-24.663,0.079-36.99
	c0.055-3.208,1.111-6.397,1.77-9.924c-13.803,0-27.945,0-42.21,0c4.187,7.252,8.595,14.054,12.169,21.269
	c6.133,12.378,8.891,25.479,5.635,39.225c-3.21,13.555-13.329,21.318-25.305,19.864c-14.607-1.773-23.798-11.767-23.791-26.027
	c0.005-11.126,3.821-21.279,8.936-30.863c4.377-8.202,9.627-15.937,14.411-23.925c1.804-3.012,4.175-4.096,7.778-4.06
	c18.66,0.187,37.325,0.087,55.988,0.087C247.785,152.477,249.575,152.477,252.548,152.477z"/>
</svg>
