<?xml version="1.0" encoding="UTF-8" standalone="no"?>
<!-- Generator: Adobe Illustrator 16.0.3, SVG Export Plug-In . SVG Version: 6.00 Build 0)  -->

<svg
   xmlns:dc="http://purl.org/dc/elements/1.1/"
   xmlns:cc="http://creativecommons.org/ns#"
   xmlns:rdf="http://www.w3.org/1999/02/22-rdf-syntax-ns#"
   xmlns:svg="http://www.w3.org/2000/svg"
   xmlns="http://www.w3.org/2000/svg"
   xmlns:sodipodi="http://sodipodi.sourceforge.net/DTD/sodipodi-0.dtd"
   xmlns:inkscape="http://www.inkscape.org/namespaces/inkscape"
   version="1.1"
   id="Ebene_1"
   x="0px"
   y="0px"
   width="60px"
   height="60px"
   viewBox="0 0 60 60"
   style="enable-background:new 0 0 60 60;"
   xml:space="preserve"
   sodipodi:docname="visual_qr_luege_de.svg"
   inkscape:version="0.92.4 (5da689c313, 2019-01-14)"><metadata
   id="metadata61"><rdf:RDF><cc:Work
       rdf:about=""><dc:format>image/svg+xml</dc:format><dc:type
         rdf:resource="http://purl.org/dc/dcmitype/StillImage" /><dc:title></dc:title></cc:Work></rdf:RDF></metadata><defs
   id="defs59" /><sodipodi:namedview
   pagecolor="#ffffff"
   bordercolor="#666666"
   borderopacity="1"
   objecttolerance="10"
   gridtolerance="10"
   guidetolerance="10"
   inkscape:pageopacity="0"
   inkscape:pageshadow="2"
   inkscape:window-width="731"
   inkscape:window-height="480"
   id="namedview57"
   showgrid="false"
   inkscape:zoom="3.9333333"
   inkscape:cx="30"
   inkscape:cy="30"
   inkscape:window-x="0"
   inkscape:window-y="0"
   inkscape:window-maximized="0"
   inkscape:current-layer="Ebene_1" />
<rect
   style="fill:#A0B983;"
   width="60"
   height="60"
   id="rect2" />
<g
   id="g14">
	<rect
   x="0.167"
   y="51.002"
   style="fill:none;"
   width="59.665"
   height="10.998"
   id="rect4" />
	<path
   style="fill:#FFFFFF;"
   d="M23.119,51.251h0.862v3.999h1.94v0.722h-2.802V51.251z"
   id="path6" />
	<path
   style="fill:#FFFFFF;"
   d="M29.428,54.949c0,0.406,0.015,0.742,0.028,1.022h-0.757l-0.042-0.519h-0.014   c-0.147,0.245-0.483,0.596-1.093,0.596c-0.623,0-1.19-0.371-1.19-1.485v-2.003h0.861v1.856c0,0.567,0.182,0.932,0.638,0.932   c0.343,0,0.567-0.245,0.658-0.463c0.028-0.077,0.049-0.168,0.049-0.266v-2.06h0.861V54.949z M26.794,51.602   c0-0.245,0.189-0.435,0.441-0.435c0.231,0,0.413,0.183,0.413,0.435c0,0.23-0.175,0.427-0.42,0.427   C26.977,52.028,26.794,51.832,26.794,51.602z M28.195,51.602c0-0.245,0.182-0.435,0.428-0.435c0.245,0,0.42,0.183,0.42,0.435   c0,0.23-0.175,0.427-0.42,0.427C28.37,52.028,28.195,51.832,28.195,51.602z"
   id="path8" />
	<path
   style="fill:#FFFFFF;"
   d="M33.404,52.561c-0.015,0.231-0.028,0.512-0.028,0.98v1.934c0,0.714-0.146,1.226-0.504,1.548   c-0.357,0.315-0.848,0.413-1.317,0.413c-0.434,0-0.896-0.091-1.19-0.273l0.189-0.651c0.217,0.126,0.581,0.26,0.994,0.26   c0.561,0,0.98-0.295,0.98-1.03v-0.294h-0.014c-0.196,0.302-0.546,0.504-0.994,0.504c-0.848,0-1.45-0.7-1.45-1.666   c0-1.121,0.729-1.801,1.548-1.801c0.519,0,0.826,0.253,0.987,0.532h0.015l0.034-0.455H33.404z M32.515,53.927   c0-0.077-0.007-0.161-0.028-0.231c-0.091-0.315-0.336-0.553-0.7-0.553c-0.483,0-0.841,0.42-0.841,1.113   c0,0.581,0.295,1.051,0.834,1.051c0.322,0,0.603-0.21,0.7-0.519c0.021-0.091,0.035-0.21,0.035-0.309V53.927z"
   id="path10" />
	<path
   style="fill:#FFFFFF;"
   d="M34.837,54.508c0.021,0.616,0.505,0.883,1.051,0.883c0.399,0,0.687-0.057,0.945-0.154l0.126,0.596   c-0.294,0.118-0.7,0.21-1.19,0.21c-1.106,0-1.758-0.68-1.758-1.724c0-0.945,0.574-1.835,1.667-1.835   c1.106,0,1.471,0.911,1.471,1.66c0,0.161-0.014,0.287-0.028,0.364H34.837z M36.336,53.905c0.007-0.314-0.133-0.833-0.707-0.833   c-0.532,0-0.757,0.483-0.792,0.833H36.336z"
   id="path12" />
</g>
<g
   id="g41"
   transform="translate(-7.561529,-21.467778)">
	<g
   id="Bild"
   transform="translate(8.6,22.5)">
		
			<sodipodi:namedview
   units="mm"
   showguides="true"
   inkscape:cy="140.10525"
   inkscape:cx="100.8875"
   inkscape:zoom="1.4"
   showgrid="false"
   borderopacity="1.0"
   bordercolor="#666666"
   pagecolor="#ffffff"
   id="base"
   inkscape:document-units="mm"
   inkscape:guide-bbox="true"
   inkscape:current-layer="layer1"
   inkscape:window-maximized="1"
   inkscape:window-y="0"
   inkscape:window-x="0"
   inkscape:window-height="700"
   inkscape:window-width="667"
   inkscape:pageshadow="2"
   inkscape:pageopacity="0.0">
			<sodipodi:guide
   orientation="1,0"
   position="191.33858,0"
   id="guide21487" />
			<sodipodi:guide
   orientation="0,1"
   position="0,304.72441"
   id="guide21489" />
			<sodipodi:guide
   orientation="0,1"
   position="0,322.44094"
   id="guide26097" />
		</sodipodi:namedview>
		<g
   id="layer1"
   transform="translate(0,-910.62992)"
   inkscape:label="Ebene 1"
   inkscape:groupmode="layer">
			<path
   id="path5230-0"
   inkscape:connector-curvature="0"
   style="fill:#FFFFFF;"
   d="M13.864,922.695     c-5.459,0-9.902,4.442-9.902,9.902c0,5.459,4.443,9.902,9.902,9.902s9.902-4.443,9.902-9.902     C23.766,927.138,19.323,922.695,13.864,922.695z M44.059,922.695c-5.459,0-9.902,4.442-9.902,9.902     c0,5.459,4.443,9.902,9.902,9.902c5.46,0,9.902-4.443,9.902-9.902C53.962,927.138,49.519,922.695,44.059,922.695z      M13.864,924.367c4.552,0,8.229,3.678,8.229,8.23s-3.677,8.23-8.229,8.23c-4.553,0-8.229-3.678-8.229-8.23     S9.311,924.367,13.864,924.367z M44.059,924.367c4.553,0,8.23,3.678,8.23,8.23s-3.678,8.23-8.23,8.23s-8.215-3.678-8.215-8.23     S39.506,924.367,44.059,924.367z M10.178,927.788l-1.199,1.184l3.641,3.642l-3.641,3.626l1.199,1.199l3.626-3.641l3.641,3.641     l1.184-1.199l-3.626-3.626l3.626-3.642l-1.184-1.184l-3.641,3.626L10.178,927.788z M49.047,928.912l-6.143,6.143l-3.523-3.508     l-1.184,1.185l4.114,4.1l0.593,0.592l0.592-0.592l6.734-6.734L49.047,928.912z M25.128,929.504v1.688h7.8v-1.688H25.128z      M25.128,934.196v1.688h7.8v-1.688H25.128z" />
			<g
   id="text5234-6"
   transform="matrix(1.1444329,0,0,1.5408015,-107.30784,696.43046)">
			</g>
		</g>
	</g>
</g>
<g
   id="g25">
</g>
<g
   id="g27">
</g>
<g
   id="g29">
</g>
<g
   id="g31">
</g>
<g
   id="g33">
</g>
<g
   id="g35">
</g>
<g
   id="g37">
</g>
<g
   id="g39">
</g>
<g
   id="g42">
</g>
<g
   id="g44">
</g>
<g
   id="g46">
</g>
<g
   id="g48">
</g>
<g
   id="g50">
</g>
<g
   id="g52">
</g>
<g
   id="g54">
</g>
</svg>