<?xml version="1.0" encoding="utf-8"?>
<!-- Generator: Adobe Illustrator 16.0.3, SVG Export Plug-In . SVG Version: 6.00 Build 0)  -->
<!DOCTYPE svg PUBLIC "-//W3C//DTD SVG 1.1//EN" "http://www.w3.org/Graphics/SVG/1.1/DTD/svg11.dtd">
<svg version="1.1" id="Layer_1" xmlns="http://www.w3.org/2000/svg" xmlns:xlink="http://www.w3.org/1999/xlink" x="0px" y="0px"
	 width="500px" height="500px" viewBox="0 0 500 500" enable-background="new 0 0 500 500" xml:space="preserve">
<title>Artboard 1</title>
<rect y="0" fill="#56C02B" width="500" height="500"/>
<polygon fill="#FFFFFF" points="36.61,60.145 36.61,77.835 36.76,77.835 48.65,65.495 48.805,65.495 48.805,142.665 65.75,142.665 
	65.75,41.85 52.22,41.85 "/>
<path fill="#FFFFFF" d="M106.05,73.825c-6.69,0-11.595,2.375-14.274,7h-0.15V55.68h29.145V41.86H76.165V98.66h15.46v-2.24
	c0-5.94,2.675-9.215,7.43-9.215c5.211,0,7.295,3.568,7.295,9.073v24.387c0,5.345-1.935,9.063-7.14,9.063
	c-5.795,0-7.87-3.865-7.87-9.813V107.28h-15.5v11.455c0,15.312,6.096,25.12,23.346,25.12c17.1,0,24.084-9.068,24.084-23.045V96.125
	c0-15.91-8.174-22.3-17.244-22.3"/>
<g>
	<path fill="#FFFFFF" d="M209.596,338.06c0.609,0,1.104,0.495,1.104,1.104l0,0v36.41c0.002,0.607-0.488,1.104-1.095,1.105
		c-0.004,0-0.008,0-0.01,0h-14.73c-0.61,0.003-1.107-0.49-1.11-1.102c0-0.001,0-0.003,0-0.005v-36.41
		c0-0.608,0.495-1.104,1.104-1.104c0.002,0,0.004,0,0.006,0L209.596,338.06L209.596,338.06z"/>
	<path fill="#FFFFFF" d="M371.4,392.31H128.596c-0.621,0.017-1.113,0.525-1.111,1.145v14.842c0.009,0.604,0.505,1.093,1.111,1.09
		H371.4c0.604-0.003,1.099-0.485,1.113-1.09v-14.842C372.513,392.835,372.021,392.327,371.4,392.31"/>
	<path fill="#FFFFFF" d="M371.4,421.805H128.596c-0.603,0.008-1.088,0.493-1.096,1.095v14.885c0.011,0.606,0.504,1.094,1.109,1.097
		H371.4c0.604-0.006,1.099-0.489,1.113-1.097V422.9C372.501,422.293,372.007,421.807,371.4,421.805"/>
	<path fill="#FFFFFF" d="M325.195,297.76c-3.03-2.375-11.13-7.915-21-7.915c-7.062,0-13.625,2.78-19.5,8.285
		c-0.411,0.391-0.646,0.933-0.65,1.5V301c-0.03,0.629,0.227,1.238,0.695,1.658c0.474,0.398,1.107,0.548,1.71,0.4
		c0.154-0.024,0.307-0.063,0.455-0.115c0.456-0.165,0.87-0.428,1.215-0.77c1.27-0.855,4.75-2,9.725-2c5.142,0,15.25,1.38,25,10.5
		l0.227,0.199c0.556,0.566,1.315,0.885,2.108,0.881c0.773,0.003,1.516-0.309,2.057-0.86l0.198-0.205
		c9.82-9.12,19.91-10.5,25.052-10.5c5,0,8.5,1.17,9.75,2c0.382,0.369,0.842,0.649,1.345,0.82c0.467,0.11,0.954,0.107,1.42-0.01
		c0.901-0.248,1.527-1.065,1.53-2v-1.172c-0.007-0.565-0.241-1.106-0.65-1.5c-5.93-5.648-12.563-8.498-19.733-8.498
		c-9.785,0-17.847,5.455-20.967,7.925"/>
	<path fill="#FFFFFF" d="M310.13,201c-0.52,0.256-0.905,0.722-1.06,1.278l-0.245,0.812c-0.189,0.625-0.07,1.302,0.32,1.825
		c0.352,0.482,0.901,0.784,1.5,0.818c0.101,0.021,0.203,0.021,0.305,0c0.408-0.006,0.81-0.107,1.17-0.3
		c0.491-0.116,0.995-0.172,1.5-0.165c1.085,0,10.875,0.33,17.345,11.33l0.085,0.16c0.32,0.612,0.883,1.062,1.55,1.24
		c0.252,0.074,0.514,0.113,0.775,0.12c0.427,0.001,0.847-0.104,1.225-0.302l0.16-0.08c3.354-1.725,7.062-2.642,10.83-2.68
		c6.135,0,10.141,2.5,11.075,3.545c0.194,0.353,0.462,0.656,0.785,0.896c0.253,0.146,0.518,0.272,0.79,0.38
		c0.117,0.029,0.237,0.047,0.358,0.05c0.072,0.008,0.145,0.008,0.217,0c0.336-0.002,0.667-0.084,0.965-0.24
		c0.499-0.256,0.871-0.706,1.028-1.245l0.205-0.715c0.062-0.189,0.089-0.39,0.085-0.59c0.004-0.368-0.096-0.729-0.283-1.045
		c-4.717-8.185-11.557-9.895-16.472-9.895c-2.985,0.036-5.942,0.592-8.739,1.64c-2.221-3-7.846-9.175-16.375-9.175
		c-3.172,0.042-6.288,0.83-9.101,2.3"/>
	<path fill="#FFFFFF" d="M258.825,238.345l0.07,1.095c0.067,1.146,1.052,2.017,2.195,1.946c0.139-0.008,0.274-0.03,0.408-0.066
		c0.121-0.027,0.239-0.063,0.355-0.108c0.406-0.169,0.769-0.437,1.05-0.775c1.028-0.745,4.354-2.104,9.26-2.104
		c4.715,0,11.885,1.26,19.195,7.265l0.17,0.175c0.521,0.451,1.186,0.701,1.875,0.705h0.18c0.729-0.049,1.411-0.377,1.905-0.915
		l0.16-0.185c8.095-8.565,16.81-9.835,21.283-9.835c3.19,0,5.45,0.653,6.33,1.153c0.368,0.312,0.801,0.534,1.267,0.655
		c0.463,0.116,0.948,0.094,1.398-0.063c0.874-0.311,1.437-1.161,1.375-2.085l-0.055-0.95c-0.035-0.563-0.299-1.084-0.729-1.445
		c-4.829-4.064-10.046-6.11-15.529-6.11c-8.54,0-15.355,5.04-18.175,7.5c-2.58-1.76-8.852-5.38-16.2-5.38
		c-6.46,0-12.25,2.687-17.227,7.96c-0.388,0.424-0.591,0.982-0.563,1.557"/>
	<path fill="#FFFFFF" d="M135.955,257.835c-0.006-14.539,11.775-26.33,26.314-26.335c0.004,0,0.008,0,0.01,0
		c0.57,0,1.125,0.05,1.686,0.085c1.457-19.604,18.53-34.316,38.135-32.86c19.604,1.457,34.316,18.53,32.86,38.135
		c-0.334,4.497-1.521,8.892-3.495,12.945c21.459,4.735,35.018,25.971,30.28,47.43c-4.029,18.257-20.226,31.246-38.92,31.215
		c-1.604,0-53.115-0.31-53.115-0.31l0,0c-15.544,0.022-28.164-12.559-28.188-28.104c-0.01-7.202,2.742-14.137,7.688-19.371
		C141.016,275.985,135.957,267.272,135.955,257.835z"/>
</g>
<g>
	<path fill="#FFFFFF" d="M154.631,83.836c-0.254,0-0.439-0.083-0.557-0.249c-0.117-0.166-0.176-0.542-0.176-1.128V43.084
		c0-0.586,0.059-0.962,0.176-1.128c0.117-0.166,0.303-0.249,0.557-0.249h4.307c0.253,0,0.439,0.083,0.557,0.249
		c0.117,0.166,0.176,0.542,0.176,1.128v35.449c0,0.43,0.136,0.645,0.41,0.645h7.617c0.253,0,0.439,0.069,0.557,0.205
		c0.117,0.137,0.176,0.45,0.176,0.938v2.344c0,0.488-0.059,0.806-0.176,0.952s-0.303,0.22-0.557,0.22H154.631z"/>
	<path fill="#FFFFFF" d="M173.732,83.836c-0.254,0-0.439-0.073-0.557-0.22S173,83.133,173,82.606V42.938
		c0-0.508,0.059-0.839,0.176-0.996c0.117-0.156,0.303-0.234,0.557-0.234h15.41c0.156,0,0.283,0.02,0.381,0.059
		c0.098,0.04,0.18,0.146,0.249,0.322c0.068,0.176,0.103,0.439,0.103,0.791v2.314c0,0.488-0.059,0.806-0.176,0.952
		s-0.303,0.22-0.557,0.22h-10.02c-0.234,0-0.352,0.322-0.352,0.967v11.836c0,0.176,0.034,0.352,0.103,0.527
		c0.068,0.176,0.132,0.264,0.19,0.264h8.057c0.488,0,0.732,0.45,0.732,1.348v2.256c0,0.898-0.245,1.348-0.732,1.348h-8.027
		c-0.078,0-0.151,0.098-0.22,0.293c-0.069,0.195-0.103,0.391-0.103,0.586v13.389h10.459c0.176,0,0.312,0.02,0.41,0.059
		c0.098,0.04,0.18,0.146,0.249,0.322c0.068,0.176,0.103,0.439,0.103,0.791v2.314c0,0.488-0.063,0.806-0.19,0.952
		c-0.127,0.146-0.318,0.22-0.571,0.22H173.732z"/>
	<path fill="#FFFFFF" d="M195.822,83.836c-0.274,0-0.474-0.078-0.601-0.234c-0.127-0.156-0.19-0.508-0.19-1.055V43.026
		c0-0.566,0.063-0.927,0.19-1.084c0.127-0.156,0.327-0.234,0.601-0.234h10.723c5.566,0,8.35,3.877,8.35,11.631
		c0,3.614-0.869,6.143-2.607,7.588c-0.176,0.176-0.264,0.293-0.264,0.352s0.098,0.186,0.293,0.381
		c2.441,1.739,3.662,4.991,3.662,9.756c0,2.344-0.239,4.336-0.718,5.977c-0.479,1.641-1.172,2.925-2.08,3.853
		c-0.908,0.928-1.948,1.592-3.12,1.992c-1.172,0.4-2.53,0.601-4.072,0.601H195.822z M201.213,59.432h4.863
		c1.074,0,1.934-0.532,2.578-1.597c0.645-1.064,0.967-2.505,0.967-4.321c0-2.383-0.415-4.185-1.245-5.405
		c-0.831-1.22-1.968-1.831-3.413-1.831h-3.75c-0.274,0-0.41,0.215-0.41,0.645v11.924C200.803,59.237,200.939,59.432,201.213,59.432z
		 M201.213,79.442h3.721c1.718,0,3.051-0.722,3.999-2.168c0.947-1.445,1.421-3.408,1.421-5.889c0-2.207-0.42-4.023-1.26-5.449
		c-0.84-1.425-1.915-2.139-3.223-2.139h-4.658c-0.274,0-0.41,0.234-0.41,0.703v14.355C200.803,79.247,200.939,79.442,201.213,79.442
		z"/>
	<path fill="#FFFFFF" d="M222.014,83.836c-0.254,0-0.439-0.073-0.557-0.22s-0.176-0.483-0.176-1.011V42.938
		c0-0.508,0.059-0.839,0.176-0.996c0.117-0.156,0.303-0.234,0.557-0.234h15.41c0.156,0,0.283,0.02,0.381,0.059
		c0.098,0.04,0.18,0.146,0.249,0.322c0.068,0.176,0.103,0.439,0.103,0.791v2.314c0,0.488-0.059,0.806-0.176,0.952
		s-0.303,0.22-0.557,0.22h-10.02c-0.234,0-0.352,0.322-0.352,0.967v11.836c0,0.176,0.034,0.352,0.103,0.527
		c0.068,0.176,0.132,0.264,0.19,0.264h8.057c0.488,0,0.732,0.45,0.732,1.348v2.256c0,0.898-0.245,1.348-0.732,1.348h-8.027
		c-0.078,0-0.151,0.098-0.22,0.293c-0.069,0.195-0.103,0.391-0.103,0.586v13.389h10.459c0.176,0,0.312,0.02,0.41,0.059
		c0.098,0.04,0.18,0.146,0.249,0.322c0.068,0.176,0.103,0.439,0.103,0.791v2.314c0,0.488-0.063,0.806-0.19,0.952
		c-0.127,0.146-0.318,0.22-0.571,0.22H222.014z"/>
	<path fill="#FFFFFF" d="M244.074,83.836c-0.254,0-0.444-0.098-0.571-0.293c-0.127-0.195-0.19-0.586-0.19-1.172V43.26
		c0-1.035,0.253-1.553,0.762-1.553h4.453c0.41,0,0.762,0.381,1.055,1.143l9.932,26.689c0.039,0.137,0.098,0.098,0.176-0.117
		l0.029-0.264V43.26c0-1.035,0.264-1.553,0.791-1.553h3.486c0.488,0,0.732,0.518,0.732,1.553v39.229
		c0,0.586-0.059,0.962-0.176,1.128c-0.117,0.166-0.303,0.249-0.557,0.249h-3.164c-0.195,0-0.406-0.117-0.63-0.352
		c-0.225-0.234-0.405-0.527-0.542-0.879l-11.045-28.828c-0.078-0.156-0.137-0.107-0.176,0.146c-0.02,0.059-0.029,0.127-0.029,0.205
		v28.213c0,0.586-0.063,0.977-0.19,1.172c-0.127,0.195-0.327,0.293-0.601,0.293H244.074z"/>
	<path fill="#FFFFFF" d="M152.492,143.836c-0.293,0-0.439-0.283-0.439-0.85v-0.498c0-0.253,0.01-0.42,0.029-0.498l6.592-38.818
		c0.156-0.938,0.517-1.425,1.084-1.465h5.947c0.546,0.04,0.898,0.527,1.055,1.465l6.475,38.818c0,0.059,0.015,0.166,0.044,0.322
		c0.029,0.157,0.048,0.293,0.059,0.41c0.01,0.117,0.015,0.215,0.015,0.293c0,0.547-0.166,0.82-0.498,0.82h-4.834
		c-0.469,0-0.772-0.4-0.908-1.201l-1.084-7.471c-0.059-0.429-0.166-0.645-0.322-0.645h-7.09c-0.137,0-0.245,0.225-0.322,0.674
		l-1.23,7.412c-0.078,0.488-0.176,0.816-0.293,0.981c-0.117,0.166-0.293,0.249-0.527,0.249H152.492z M159.465,130.858h5.977
		c0.136,0,0.205-0.176,0.205-0.527c0-0.117-0.02-0.205-0.059-0.264l-2.9-22.588c-0.02-0.136-0.049-0.205-0.088-0.205
		c-0.059,0-0.098,0.059-0.117,0.176l-3.428,22.588c-0.02,0.137-0.029,0.225-0.029,0.264
		C159.025,130.672,159.172,130.858,159.465,130.858z"/>
	<path fill="#FFFFFF" d="M178.742,143.836c-0.254,0-0.444-0.098-0.571-0.293c-0.127-0.195-0.19-0.586-0.19-1.172V103.26
		c0-1.035,0.253-1.553,0.762-1.553h4.453c0.41,0,0.762,0.381,1.055,1.143l9.932,26.689c0.039,0.137,0.098,0.098,0.176-0.117
		l0.029-0.264V103.26c0-1.035,0.264-1.553,0.791-1.553h3.486c0.488,0,0.732,0.518,0.732,1.553v39.229
		c0,0.586-0.059,0.962-0.176,1.128c-0.117,0.166-0.303,0.249-0.557,0.249H195.5c-0.195,0-0.406-0.117-0.63-0.352
		c-0.225-0.234-0.406-0.527-0.542-0.879l-11.045-28.828c-0.078-0.156-0.137-0.107-0.176,0.146c-0.02,0.059-0.029,0.127-0.029,0.205
		v28.213c0,0.586-0.063,0.977-0.19,1.172c-0.127,0.195-0.327,0.293-0.601,0.293H178.742z"/>
	<path fill="#FFFFFF" d="M214.572,143.836c-0.254,0-0.439-0.083-0.557-0.249c-0.117-0.166-0.176-0.542-0.176-1.128v-39.375
		c0-0.586,0.059-0.962,0.176-1.128c0.117-0.166,0.303-0.249,0.557-0.249h4.307c0.253,0,0.439,0.083,0.557,0.249
		c0.117,0.166,0.176,0.542,0.176,1.128v35.449c0,0.43,0.136,0.645,0.41,0.645h7.617c0.253,0,0.439,0.069,0.557,0.205
		c0.117,0.137,0.176,0.45,0.176,0.938v2.344c0,0.488-0.059,0.806-0.176,0.952s-0.303,0.22-0.557,0.22H214.572z"/>
	<path fill="#FFFFFF" d="M231.535,143.836c-0.293,0-0.439-0.283-0.439-0.85v-0.498c0-0.253,0.01-0.42,0.029-0.498l6.592-38.818
		c0.156-0.938,0.517-1.425,1.084-1.465h5.947c0.546,0.04,0.898,0.527,1.055,1.465l6.475,38.818c0,0.059,0.015,0.166,0.044,0.322
		c0.029,0.157,0.048,0.293,0.059,0.41c0.01,0.117,0.015,0.215,0.015,0.293c0,0.547-0.166,0.82-0.498,0.82h-4.834
		c-0.469,0-0.772-0.4-0.908-1.201l-1.084-7.471c-0.059-0.429-0.166-0.645-0.322-0.645h-7.09c-0.137,0-0.245,0.225-0.322,0.674
		l-1.23,7.412c-0.078,0.488-0.176,0.816-0.293,0.981c-0.117,0.166-0.293,0.249-0.527,0.249H231.535z M238.508,130.858h5.977
		c0.136,0,0.205-0.176,0.205-0.527c0-0.117-0.02-0.205-0.059-0.264l-2.9-22.588c-0.02-0.136-0.049-0.205-0.088-0.205
		c-0.059,0-0.098,0.059-0.117,0.176l-3.428,22.588c-0.02,0.137-0.029,0.225-0.029,0.264
		C238.068,130.672,238.215,130.858,238.508,130.858z"/>
	<path fill="#FFFFFF" d="M257.785,143.836c-0.254,0-0.444-0.098-0.571-0.293c-0.128-0.195-0.19-0.586-0.19-1.172V103.26
		c0-1.035,0.254-1.553,0.762-1.553h4.453c0.41,0,0.762,0.381,1.055,1.143l9.932,26.689c0.039,0.137,0.098,0.098,0.176-0.117
		l0.029-0.264V103.26c0-1.035,0.264-1.553,0.791-1.553h3.486c0.488,0,0.732,0.518,0.732,1.553v39.229
		c0,0.586-0.059,0.962-0.176,1.128c-0.117,0.166-0.303,0.249-0.557,0.249h-3.164c-0.195,0-0.406-0.117-0.63-0.352
		c-0.225-0.234-0.405-0.527-0.542-0.879l-11.045-28.828c-0.078-0.156-0.137-0.107-0.176,0.146c-0.02,0.059-0.029,0.127-0.029,0.205
		v28.213c0,0.586-0.063,0.977-0.19,1.172c-0.128,0.195-0.327,0.293-0.601,0.293H257.785z"/>
	<path fill="#FFFFFF" d="M285.939,143.836c-0.254,0-0.439-0.078-0.557-0.234c-0.117-0.156-0.176-0.508-0.176-1.055v-39.668
		c0-0.488,0.059-0.806,0.176-0.952s0.303-0.22,0.557-0.22h10.078c1.719,0,3.208,0.342,4.468,1.025
		c1.26,0.684,2.368,1.807,3.325,3.369c0.957,1.563,1.674,3.706,2.153,6.431c0.479,2.725,0.718,6.04,0.718,9.946
		c0,2.773-0.088,5.22-0.264,7.339c-0.176,2.12-0.406,3.936-0.688,5.449c-0.283,1.514-0.688,2.793-1.216,3.838
		c-0.527,1.045-1.074,1.875-1.641,2.49s-1.279,1.089-2.139,1.421c-0.859,0.333-1.695,0.552-2.505,0.659
		c-0.811,0.107-1.812,0.161-3.003,0.161H285.939z M291.359,139.178h3.604c1.504,0,2.666-0.449,3.486-1.348
		c0.82-0.898,1.431-2.544,1.831-4.937c0.399-2.392,0.601-5.834,0.601-10.327c0-4.16-0.23-7.451-0.688-9.873
		c-0.459-2.421-1.089-4.082-1.89-4.98c-0.801-0.898-1.846-1.348-3.135-1.348h-3.838c-0.234,0-0.352,0.215-0.352,0.645v31.523
		C290.979,138.963,291.105,139.178,291.359,139.178z"/>
</g>
</svg>
