<?xml version="1.0" encoding="iso-8859-1"?>
<!-- Generator: Adobe Illustrator 16.0.3, SVG Export Plug-In . SVG Version: 6.00 Build 0)  -->
<!DOCTYPE svg PUBLIC "-//W3C//DTD SVG 1.1//EN" "http://www.w3.org/Graphics/SVG/1.1/DTD/svg11.dtd">
<svg version="1.1" id="Ebene_1" xmlns="http://www.w3.org/2000/svg" xmlns:xlink="http://www.w3.org/1999/xlink" x="0px" y="0px"
	 width="518px" height="518px" viewBox="0 0 518 518" style="enable-background:new 0 0 518 518;" xml:space="preserve">
<path style="fill-rule:evenodd;clip-rule:evenodd;fill:#458C79;" d="M518,512c0,3.313-2.017,6-4.505,6H4.505
	C2.018,518,0,515.313,0,512V6c0-3.313,2.017-6,4.504-6h508.99C515.983,0,518,2.687,518,6V512z"/>
<g>
	<g id="XMLID_1_">
		<g>
			<path style="fill:#FCFBFB;" d="M259.039,25.99c96.51-0.58,177.17,79.81,175.04,178.93c-2.04,95.16-81.561,173.45-179.37,171.17
				c-94.72-2.21-173.28-81.439-170.77-179.76C86.349,101.91,164.509,25.46,259.039,25.99z M259.309,361.59
				c89.29-0.38,160.94-73.05,160.37-160.66c-0.58-89.03-72.779-160.79-161.03-160.56c-85.43,0.21-159.56,68.84-160.47,160.72
				C99.219,291.1,170.849,361.97,259.309,361.59z"/>
			<path style="fill:#458C79;" d="M419.679,200.93c0.57,87.61-71.08,160.28-160.37,160.66c-88.46,0.38-160.09-70.49-161.13-160.5
				c0.91-91.88,75.04-160.51,160.47-160.72C346.899,40.14,419.099,111.9,419.679,200.93z"/>
		</g>
		<g>
		</g>
	</g>
</g>
<g>
	<rect x="-7.001" y="413" style="fill-rule:evenodd;clip-rule:evenodd;fill:none;" width="525.002" height="106"/>
	<path style="fill:#FFFFFF;" d="M99.165,442.224h-13.77l-2.881,8.276h-6.421l13.428-35.547h5.542l13.452,35.547h-6.445
		L99.165,442.224z M87.128,437.243h10.303l-5.151-14.746L87.128,437.243z"/>
	<path style="fill:#FFFFFF;" d="M110.859,437.097c0-4.068,0.944-7.337,2.832-9.802c1.888-2.467,4.419-3.699,7.593-3.699
		c2.799,0,5.062,0.977,6.787,2.93V413h5.933v37.5h-5.371l-0.293-2.734c-1.774,2.148-4.143,3.223-7.104,3.223
		c-3.093,0-5.595-1.245-7.507-3.735C111.815,444.763,110.859,441.378,110.859,437.097z M116.792,437.609
		c0,2.686,0.517,4.781,1.55,6.287c1.033,1.505,2.502,2.258,4.407,2.258c2.425,0,4.199-1.082,5.322-3.247v-11.279
		c-1.091-2.115-2.849-3.174-5.273-3.174c-1.921,0-3.402,0.761-4.443,2.282C117.312,432.259,116.792,434.55,116.792,437.609z"/>
	<path style="fill:#FFFFFF;" d="M151.704,437.78h-12.817v-4.785h12.817V437.78z"/>
	<path style="fill:#FFFFFF;" d="M185.395,450.5h-6.152v-15.771h-15.894V450.5h-6.177v-35.547h6.177v14.795h15.894v-14.795h6.152
		V450.5z"/>
	<path style="fill:#FFFFFF;" d="M191.01,437.048c0-2.588,0.513-4.919,1.538-6.995c1.025-2.074,2.466-3.67,4.321-4.785
		c1.855-1.114,3.987-1.672,6.396-1.672c3.564,0,6.458,1.147,8.679,3.442s3.422,5.339,3.601,9.131l0.024,1.392
		c0,2.604-0.5,4.932-1.501,6.982s-2.434,3.638-4.297,4.761c-1.864,1.123-4.016,1.685-6.458,1.685c-3.728,0-6.71-1.241-8.948-3.723
		c-2.238-2.482-3.357-5.79-3.357-9.925V437.048z M196.943,437.561c0,2.719,0.562,4.846,1.685,6.385
		c1.123,1.537,2.686,2.307,4.688,2.307s3.56-0.781,4.675-2.344c1.115-1.563,1.672-3.849,1.672-6.86c0-2.669-0.574-4.785-1.721-6.348
		s-2.706-2.344-4.675-2.344c-1.937,0-3.475,0.769-4.614,2.308C197.512,432.201,196.943,434.501,196.943,437.561z"/>
	<path style="fill:#FFFFFF;" d="M231.44,446.252c1.481,0,2.71-0.431,3.687-1.294c0.977-0.862,1.497-1.929,1.563-3.198h5.591
		c-0.065,1.645-0.578,3.178-1.538,4.602c-0.96,1.425-2.263,2.552-3.906,3.382c-1.644,0.83-3.418,1.245-5.322,1.245
		c-3.695,0-6.625-1.196-8.789-3.589c-2.165-2.393-3.247-5.696-3.247-9.912v-0.61c0-4.02,1.074-7.238,3.223-9.656
		c2.148-2.416,5.078-3.625,8.789-3.625c3.141,0,5.701,0.916,7.678,2.746c1.978,1.832,3.015,4.236,3.113,7.215h-5.591
		c-0.065-1.514-0.582-2.759-1.55-3.735c-0.969-0.977-2.202-1.465-3.699-1.465c-1.921,0-3.402,0.696-4.443,2.087
		c-1.042,1.393-1.571,3.504-1.587,6.336v0.952c0,2.865,0.517,5.001,1.55,6.409C227.993,445.548,229.487,446.252,231.44,446.252z"/>
	<path style="fill:#FFFFFF;" d="M258.271,437.78h-12.817v-4.785h12.817V437.78z"/>
	<path style="fill:#FFFFFF;" d="M276.801,436.828h-6.885V450.5h-6.177v-35.547h12.5c4.102,0,7.267,0.921,9.497,2.761
		c2.229,1.841,3.345,4.505,3.345,7.99c0,2.379-0.574,4.37-1.721,5.975s-2.747,2.839-4.797,3.702l7.983,14.802v0.317h-6.616
		L276.801,436.828z M269.917,431.848h6.348c2.083,0,3.711-0.525,4.883-1.574c1.172-1.051,1.758-2.486,1.758-4.31
		c0-1.904-0.542-3.377-1.624-4.419c-1.083-1.041-2.698-1.578-4.846-1.611h-6.519V431.848z"/>
	<path style="fill:#FFFFFF;" d="M306,450.988c-3.76,0-6.808-1.184-9.143-3.553c-2.336-2.367-3.503-5.521-3.503-9.46v-0.732
		c0-2.637,0.508-4.993,1.526-7.067c1.017-2.076,2.445-3.69,4.285-4.847c1.839-1.155,3.89-1.733,6.152-1.733
		c3.597,0,6.376,1.147,8.337,3.442c1.961,2.295,2.942,5.542,2.942,9.741v2.393h-17.261c0.179,2.182,0.907,3.906,2.185,5.176
		c1.277,1.27,2.885,1.904,4.822,1.904c2.718,0,4.932-1.099,6.641-3.296l3.198,3.052c-1.058,1.579-2.47,2.804-4.236,3.674
		C310.179,450.553,308.198,450.988,306,450.988z M305.292,428.356c-1.628,0-2.942,0.57-3.943,1.709
		c-1.001,1.14-1.64,2.727-1.917,4.761h11.304v-0.439c-0.13-1.985-0.659-3.487-1.587-4.504
		C308.222,428.865,306.936,428.356,305.292,428.356z"/>
	<path style="fill:#FFFFFF;" d="M328.632,417.663v6.421h4.663v4.395h-4.663v14.746c0,1.01,0.199,1.737,0.599,2.186
		c0.398,0.447,1.111,0.671,2.137,0.671c0.684,0,1.375-0.081,2.074-0.244v4.59c-1.352,0.374-2.652,0.562-3.905,0.562
		c-4.559,0-6.836-2.515-6.836-7.544v-14.966h-4.346v-4.395h4.346v-6.421H328.632z"/>
	<path style="fill:#FFFFFF;" d="M345.259,417.663v6.421h4.663v4.395h-4.663v14.746c0,1.01,0.199,1.737,0.599,2.186
		c0.398,0.447,1.11,0.671,2.136,0.671c0.684,0,1.375-0.081,2.075-0.244v4.59c-1.352,0.374-2.653,0.562-3.906,0.562
		c-4.558,0-6.836-2.515-6.836-7.544v-14.966h-4.346v-4.395h4.346v-6.421H345.259z"/>
	<path style="fill:#FFFFFF;" d="M370.454,447.912c-1.742,2.051-4.216,3.076-7.422,3.076c-2.865,0-5.033-0.838-6.506-2.515
		c-1.474-1.676-2.21-4.102-2.21-7.275v-17.114h5.933v17.041c0,3.354,1.392,5.029,4.175,5.029c2.881,0,4.825-1.033,5.835-3.101
		v-18.97h5.933V450.5h-5.591L370.454,447.912z"/>
	<path style="fill:#FFFFFF;" d="M387.739,424.084l0.171,3.052c1.953-2.359,4.517-3.54,7.69-3.54c5.501,0,8.301,3.149,8.398,9.448
		V450.5h-5.933v-17.114c0-1.676-0.362-2.917-1.087-3.724c-0.724-0.805-1.908-1.208-3.552-1.208c-2.393,0-4.175,1.083-5.347,3.247
		V450.5h-5.933v-26.416H387.739z"/>
	<path style="fill:#FFFFFF;" d="M409.004,437.097c0-4.102,0.965-7.377,2.893-9.827c1.93-2.449,4.488-3.674,7.679-3.674
		c3.011,0,5.379,1.05,7.104,3.149l0.269-2.661h5.347v25.61c0,3.467-1.078,6.201-3.234,8.203c-2.157,2.002-5.066,3.003-8.729,3.003
		c-1.938,0-3.829-0.402-5.676-1.209c-1.848-0.805-3.252-1.859-4.212-3.161l2.808-3.564c1.822,2.164,4.068,3.247,6.738,3.247
		c1.969,0,3.523-0.533,4.663-1.6c1.139-1.065,1.709-2.633,1.709-4.699v-1.782c-1.709,1.904-3.988,2.856-6.836,2.856
		c-3.093,0-5.619-1.229-7.581-3.687C409.984,444.845,409.004,441.442,409.004,437.097z M414.912,437.609
		c0,2.653,0.541,4.74,1.623,6.262c1.083,1.522,2.584,2.283,4.505,2.283c2.393,0,4.166-1.025,5.322-3.076v-11.621
		c-1.123-2.002-2.881-3.003-5.273-3.003c-1.953,0-3.471,0.773-4.554,2.319C415.453,432.32,414.912,434.599,414.912,437.609z"/>
</g>
<g>
	<path style="fill-rule:evenodd;clip-rule:evenodd;fill:#F6FAF8;" d="M269.226,264.544c-0.011-27.021,22.261-49.193,49.376-49.154
		c27.064,0.038,49.34,22.329,49.265,49.299c-0.074,27.049-22.327,49.201-49.405,49.184
		C291.409,313.854,269.237,291.64,269.226,264.544z M275.607,264.6c-0.718,21.176,16.996,43.225,43.159,43.098
		c23.084-0.113,42.827-17.853,42.822-43.033c-0.006-26.707-21.67-43.024-42.762-43.068
		C294.858,221.547,275.628,240.617,275.607,264.6z"/>
	<path style="fill-rule:evenodd;clip-rule:evenodd;fill:#F4F9F6;" d="M255.259,282.038c0.763,16.208-13.324,32.99-33.016,32.847
		c-18.026-0.132-32.539-14.835-32.5-32.973c0.041-18.356,14.715-32.882,33.124-32.793
		C242.11,249.213,256.017,265.665,255.259,282.038z M251.121,281.867c0.442-12.702-9.798-28.242-28.541-28.607
		c-15.497-0.303-28.637,13.059-28.675,28.573c-0.035,14.359,10.985,28.992,28.886,28.778
		C241.572,310.388,251.657,294.702,251.121,281.867z"/>
	<path style="fill-rule:evenodd;clip-rule:evenodd;fill:#F3F8F6;" d="M185.015,180.97c18.279,0.036,32.992,14.887,32.866,33.173
		c-0.124,17.869-15.157,32.78-32.98,32.71c-18.24-0.071-32.844-14.912-32.785-33.317
		C152.173,195.525,166.915,180.933,185.015,180.97z M185.19,242.376c14.103,0.146,28.598-10.94,28.393-28.781
		c-0.216-18.816-15.503-28.496-28.863-28.395c-15.604,0.119-28.733,13.428-28.517,28.867
		C156.425,229.86,169.337,242.47,185.19,242.376z"/>
	<path style="fill-rule:evenodd;clip-rule:evenodd;fill:#F2F8F5;" d="M336.108,196.033c-18.405,0.058-32.996-14.488-32.995-32.896
		c0-18.091,14.564-32.705,32.655-32.769c18.265-0.063,33.141,14.735,33.113,32.94C368.854,181.317,354.173,195.977,336.108,196.033z
		 M335.63,134.633c-15.719,0.141-28.657,13.292-28.429,28.899c0.228,15.602,13.549,28.764,29.028,28.396
		c14.671-0.349,28.497-11.342,28.329-28.991C364.386,144.695,349.194,134.262,335.63,134.633z"/>
	<path style="fill-rule:evenodd;clip-rule:evenodd;fill:#EEF6F2;" d="M256.703,132.285c-12.328-0.044-21.881-9.509-21.958-21.755
		c-0.077-12.272,10.089-22.396,22.249-22.157c12.047,0.236,21.933,10.297,21.821,22.207
		C278.701,122.699,268.891,132.329,256.703,132.285z M237.749,110.513c0.061,10.608,8.525,18.92,19.178,18.832
		c10.52-0.086,19.077-8.813,18.856-19.228c-0.214-10.11-9.029-18.834-19.004-18.809C246.39,91.335,237.688,100.116,237.749,110.513z
		"/>
	<path style="fill-rule:evenodd;clip-rule:evenodd;fill:#F0F7F4;" d="M204.515,168.896c-12.104-0.044-21.834-9.892-21.773-22.037
		c0.061-12.181,9.764-21.862,21.943-21.896c12.089-0.033,22.066,9.782,22.165,21.805
		C226.949,158.913,216.828,168.939,204.515,168.896z M185.884,147.027c0.007,10.585,8.498,19.022,19.057,18.938
		c10.415-0.083,18.98-8.864,18.852-19.327c-0.125-10.154-8.765-18.659-18.995-18.697
		C194.28,127.902,185.876,136.383,185.884,147.027z"/>
	<path style="fill-rule:evenodd;clip-rule:evenodd;fill:#EFF6F3;" d="M284.042,177.762c0.001,12.223-9.598,21.839-21.847,21.889
		c-12.103,0.048-21.988-9.696-22.092-21.777c-0.105-12.261,9.934-22.257,22.236-22.139
		C274.583,155.852,284.041,165.451,284.042,177.762z M281.101,177.814c0.066-10.595-8.356-19.063-18.98-19.082
		c-10.213-0.018-18.855,8.423-19.075,18.631c-0.221,10.266,8.474,19.216,18.868,19.422
		C272.241,196.991,281.036,188.296,281.101,177.814z"/>
	<path style="fill-rule:evenodd;clip-rule:evenodd;fill:#F7FAF9;" d="M297.632,292.38c5.6-9.022,11.089-17.868,16.744-26.979
		c-5.449-8.766-10.866-17.479-16.319-26.25c5.914-1.99,6.961-1.664,9.866,2.979c3.518,5.624,7.013,11.262,10.828,17.394
		c1.055-1.313,1.928-2.204,2.573-3.238c2.819-4.512,5.566-9.068,8.352-13.602c3.136-5.104,3.142-5.1,10.097-3.944
		c-5.551,8.874-10.989,17.57-16.648,26.619c5.571,8.991,11.141,17.978,16.982,27.406c-2.84,0-5.094,0-7.93,0
		c-4.26-6.821-8.713-13.954-13.597-21.777c-2.666,4.348-4.901,7.988-7.132,11.633c-1.215,1.984-2.417,3.979-3.638,5.96
		C304.706,293.619,304.703,293.617,297.632,292.38z"/>
	<path style="fill-rule:evenodd;clip-rule:evenodd;fill:#F4F9F6;" d="M236.635,264.938c-3.829,6.161-7.325,11.786-10.892,17.527
		c3.731,6.077,7.366,11.997,11.064,18.02c-3.491,1.274-5.583,0.337-7.199-2.67c-1.957-3.641-4.313-7.067-6.96-11.335
		c-3.179,5.056-6.027,9.586-8.997,14.311c-1.37,0-2.821,0-4.37,0c0-0.563-0.172-1.113,0.026-1.438
		c2.762-4.548,5.45-9.148,8.424-13.555c1.641-2.432,1.567-4.345-0.07-6.743c-2.995-4.389-5.685-8.985-8.513-13.512
		c3.744-1.689,4.333-1.657,6.141,1.069c2.464,3.717,4.771,7.537,7.565,11.979c2.575-4.107,4.972-7.632,7.043-11.338
		C231.375,264.608,233.26,263.861,236.635,264.938z"/>
	<path style="fill-rule:evenodd;clip-rule:evenodd;fill:#F3F8F6;" d="M199.122,232.261c-3.417,1.255-5.375,0.423-6.935-2.381
		c-2.073-3.725-4.493-7.256-7.186-11.542c-2.63,4.242-4.993,7.79-7.074,11.495c-1.541,2.744-3.475,3.773-6.907,2.424
		c3.716-6.044,7.347-11.947,11.037-17.948c-3.65-5.899-7.215-11.661-10.876-17.578c3.343-1.24,5.376-0.54,6.961,2.291
		c2.09,3.734,4.517,7.28,7.16,11.482c2.601-4.224,4.944-7.799,7.042-11.513c1.461-2.586,3.327-3.539,6.681-2.26
		c-3.605,5.829-7.159,11.573-10.849,17.54C191.809,220.244,195.401,226.148,199.122,232.261z"/>
	<path style="fill-rule:evenodd;clip-rule:evenodd;fill:#F3F8F6;" d="M322.108,146.086c3.537-1.46,5.453-0.38,7.018,2.344
		c2.125,3.704,4.53,7.248,7.172,11.425c2.664-4.298,5.051-7.875,7.141-11.619c1.463-2.62,3.254-3.557,6.565-2.153
		c-3.619,5.882-7.157,11.634-10.839,17.619c3.6,5.896,7.217,11.818,10.888,17.829c-3.411,1.395-5.389,0.445-6.958-2.354
		c-2.019-3.599-4.355-7.019-6.797-10.9c-3.473,3.326-5.037,7.386-7.387,10.88c-2.117,3.147-2.063,3.184-6.905,2.459
		c3.638-5.92,7.193-11.704,11.013-17.917C329.507,158.03,325.939,152.27,322.108,146.086z"/>
	<path style="fill-rule:evenodd;clip-rule:evenodd;fill:#F1F7F5;" d="M247.416,99.034c6.571-0.379,5.831,6.315,9.986,8.17
		c1.339-2.111,2.774-4.28,4.109-6.51c0.999-1.668,2.188-2.416,4.296-1.161c-2.247,3.703-4.475,7.377-6.826,11.255
		c2.312,3.798,4.628,7.604,6.997,11.496c-2.244,1.392-3.513,0.481-4.573-1.248c-1.376-2.247-2.79-4.47-4.281-6.852
		c-3.798,2.263-3.598,8.431-9.434,8.085c1.625-2.663,3.074-5.458,4.926-7.952c1.896-2.555,1.705-4.697-0.087-7.163
		C250.799,104.772,249.371,102.171,247.416,99.034z"/>
	<path style="fill-rule:evenodd;clip-rule:evenodd;fill:#EEF6F3;" d="M196.87,135.126c4.852,0.505,4.585,6.164,7.918,8.491
		c3.795-1.512,3.069-8.365,9.538-8.442c-2.692,4.469-4.972,8.252-7.302,12.121c2.339,3.882,4.623,7.672,7.353,12.202
		c-6.55-0.024-5.997-6.668-9.743-8.43c-3.265,2.138-3.222,7.811-7.737,8.611c-0.401-0.34-0.803-0.68-1.204-1.02
		c1.274-2.066,2.313-4.334,3.874-6.154c3.146-3.669,2.863-6.979-0.099-10.567c-1.443-1.747-2.432-3.868-3.626-5.82
		C196.184,135.787,196.527,135.457,196.87,135.126z"/>
	<path style="fill-rule:evenodd;clip-rule:evenodd;fill:#F0F7F4;" d="M271.631,189.861c-3.619,1.745-4.314-1.021-5.518-2.766
		c-1.208-1.75-2.312-3.572-3.421-5.3c-4.264,1.819-3.612,8.525-10.259,8.783c2.796-4.567,5.103-8.333,7.666-12.52
		c-2.238-3.659-4.552-7.442-7.006-11.454c2.127-1.101,3.492-0.571,4.59,1.202c1.465,2.365,2.968,4.706,4.382,6.941
		c3.802-2.26,3.219-8.454,9.695-8.784c-2.258,3.687-3.976,6.672-5.879,9.533c-1.166,1.753-1.228,3.219-0.027,5.006
		C267.864,183.496,269.656,186.636,271.631,189.861z"/>
</g>
</svg>
