<?xml version="1.0" encoding="utf-8"?>
<!-- Generator: Adobe Illustrator 16.0.3, SVG Export Plug-In . SVG Version: 6.00 Build 0)  -->
<!DOCTYPE svg PUBLIC "-//W3C//DTD SVG 1.1//EN" "http://www.w3.org/Graphics/SVG/1.1/DTD/svg11.dtd" [
	<!ENTITY ns_extend "http://ns.adobe.com/Extensibility/1.0/">
	<!ENTITY ns_ai "http://ns.adobe.com/AdobeIllustrator/10.0/">
	<!ENTITY ns_graphs "http://ns.adobe.com/Graphs/1.0/">
	<!ENTITY ns_vars "http://ns.adobe.com/Variables/1.0/">
	<!ENTITY ns_imrep "http://ns.adobe.com/ImageReplacement/1.0/">
	<!ENTITY ns_sfw "http://ns.adobe.com/SaveForWeb/1.0/">
	<!ENTITY ns_custom "http://ns.adobe.com/GenericCustomNamespace/1.0/">
	<!ENTITY ns_adobe_xpath "http://ns.adobe.com/XPath/1.0/">
]>
<svg version="1.1" id="Ebene_1" xmlns:x="&ns_extend;" xmlns:i="&ns_ai;" xmlns:graph="&ns_graphs;"
	 xmlns="http://www.w3.org/2000/svg" xmlns:xlink="http://www.w3.org/1999/xlink" x="0px" y="0px" width="300px" height="300px"
	 viewBox="0 0 300 300" enable-background="new 0 0 300 300" xml:space="preserve">
<metadata>
	<sfw  xmlns="&ns_sfw;">
		<slices></slices>
		<sliceSourceBounds  height="307.582" width="300" x="-50.5" y="-57.082" bottomLeftOrigin="true"></sliceSourceBounds>
	</sfw>
</metadata>
<path fill="#248CBA" d="M228,300H72c-39.604,0-72-16.9-72-56.5V60C0,20.4,32.397,0,72,0h156c39.602,0,72,20.9,72,60.5V244
	C300,283.6,267.6,300,228,300z"/>
<rect x="0.758" y="228.086" fill="none" width="298.481" height="79.496"/>
<g enable-background="new    ">
	<path fill="#FFFFFF" d="M67.682,262.166l-10.561-32.354h4.513l5.04,15.938c1.392,4.368,2.592,8.305,3.457,12.098h0.096
		c0.912-3.744,2.256-7.826,3.696-12.05l5.472-15.985h4.464L72.29,262.166H67.682z"/>
	<path fill="#FFFFFF" d="M87.986,251.316c0.098,5.713,3.744,8.063,7.971,8.063c3.022,0,4.849-0.526,6.433-1.198l0.72,3.022
		c-1.486,0.672-4.031,1.438-7.729,1.438c-7.152,0-11.425-4.705-11.425-11.713c0-7.009,4.128-12.529,10.896-12.529
		c7.584,0,9.603,6.674,9.603,10.945c0,0.863-0.098,1.535-0.146,1.969H87.986V251.316z M100.371,248.293
		c0.048-2.688-1.104-6.865-5.856-6.865c-4.271,0-6.145,3.938-6.479,6.865H100.371z"/>
	<path fill="#FFFFFF" d="M109.681,246.182c0-2.736-0.048-5.09-0.192-7.25h3.696l0.146,4.563h0.19
		c1.058-3.12,3.602-5.088,6.435-5.088c0.479,0,0.814,0.048,1.198,0.144v3.984c-0.432-0.097-0.862-0.146-1.438-0.146
		c-2.978,0-5.088,2.256-5.665,5.424c-0.096,0.576-0.192,1.248-0.192,1.971v12.385h-4.176L109.681,246.182L109.681,246.182z"/>
	<path fill="#FFFFFF" d="M145.011,238.932c-0.096,1.682-0.192,3.553-0.192,6.385v13.49c0,5.327-1.056,8.592-3.313,10.608
		c-2.256,2.11-5.521,2.784-8.449,2.784c-2.784,0-5.854-0.674-7.729-1.922l1.056-3.215c1.536,0.959,3.936,1.823,6.816,1.823
		c4.318,0,7.487-2.257,7.487-8.112v-2.592h-0.096c-1.296,2.158-3.792,3.889-7.393,3.889c-5.762,0-9.891-4.896-9.891-11.329
		c0-7.873,5.136-12.337,10.465-12.337c4.032,0,6.241,2.111,7.249,4.031h0.098l0.19-3.504H145.011L145.011,238.932z M140.643,248.102
		c0-0.721-0.048-1.345-0.24-1.92c-0.768-2.449-2.832-4.466-5.902-4.466c-4.033,0-6.913,3.409-6.913,8.785
		c0,4.562,2.304,8.353,6.864,8.353c2.592,0,4.943-1.631,5.855-4.318c0.24-0.721,0.336-1.536,0.336-2.258V248.102L140.643,248.102z"
		/>
	<path fill="#FFFFFF" d="M151.824,228.083h4.225v34.083h-4.225V228.083z"/>
	<path fill="#FFFFFF" d="M165.504,251.316c0.096,5.713,3.744,8.063,7.969,8.063c3.024,0,4.849-0.526,6.433-1.198l0.722,3.022
		c-1.488,0.672-4.032,1.438-7.729,1.438c-7.15,0-11.425-4.705-11.425-11.713c0-7.009,4.128-12.529,10.896-12.529
		c7.585,0,9.602,6.674,9.602,10.945c0,0.863-0.097,1.535-0.145,1.969h-16.322V251.316z M177.889,248.293
		c0.049-2.688-1.104-6.865-5.854-6.865c-4.272,0-6.146,3.938-6.48,6.865H177.889z"/>
	<path fill="#FFFFFF" d="M191.905,232.402c0.05,1.439-1.009,2.594-2.688,2.594c-1.488,0-2.544-1.152-2.544-2.594
		c0-1.487,1.104-2.639,2.64-2.639C190.896,229.764,191.905,230.915,191.905,232.402z M187.199,262.166v-23.234h4.225v23.234H187.199
		z"/>
	<path fill="#FFFFFF" d="M214.992,261.302c-1.104,0.576-3.554,1.345-6.674,1.345c-7.009,0-11.567-4.752-11.567-11.855
		c0-7.15,4.896-12.337,12.479-12.337c2.496,0,4.704,0.624,5.856,1.198l-0.961,3.266c-1.008-0.576-2.592-1.104-4.896-1.104
		c-5.329,0-8.209,3.938-8.209,8.785c0,5.377,3.456,8.688,8.064,8.688c2.398,0,3.982-0.624,5.185-1.152L214.992,261.302z"/>
	<path fill="#FFFFFF" d="M219.935,228.083h4.227v14.497h0.096c0.673-1.2,1.729-2.256,3.022-2.977
		c1.248-0.722,2.736-1.199,4.32-1.199c3.121,0,8.113,1.92,8.113,9.937v13.825h-4.227V248.82c0-3.744-1.392-6.912-5.376-6.912
		c-2.734,0-4.896,1.92-5.665,4.225c-0.238,0.576-0.286,1.2-0.286,2.016v14.02h-4.227L219.935,228.083L219.935,228.083z"/>
</g>
<g>
	<ellipse opacity="0.4" fill="#FFFFFF" enable-background="new    " cx="147.04" cy="109.499" rx="84.333" ry="83"/>
	<g>
		<g>
			
				<line fill="none" stroke="#FFFFFF" stroke-width="12" stroke-miterlimit="10" x1="143.645" y1="131.078" x2="248.627" y2="131.078"/>
			
				<line fill="none" stroke="#FFFFFF" stroke-width="12" stroke-miterlimit="10" x1="143.645" y1="154.576" x2="223.518" y2="154.576"/>
			<line fill="none" stroke="#FFFFFF" stroke-width="12" stroke-miterlimit="10" x1="143.645" y1="84.08" x2="234.932" y2="84.08"/>
			
				<line fill="none" stroke="#FFFFFF" stroke-width="12" stroke-miterlimit="10" x1="143.645" y1="107.579" x2="191.75" y2="107.579"/>
		</g>
	</g>
	<circle opacity="0.4" fill="#FFFFFF" enable-background="new    " cx="72.707" cy="170.166" r="9"/>
	<circle opacity="0.4" fill="#FFFFFF" enable-background="new    " cx="58.04" cy="183.165" r="6.666"/>
</g>
</svg>
