<?xml version="1.0" encoding="UTF-8" standalone="no"?>
<svg
   xmlns:dc="http://purl.org/dc/elements/1.1/"
   xmlns:cc="http://creativecommons.org/ns#"
   xmlns:rdf="http://www.w3.org/1999/02/22-rdf-syntax-ns#"
   xmlns:svg="http://www.w3.org/2000/svg"
   xmlns="http://www.w3.org/2000/svg"
   viewBox="0 0 375 375"
   height="375"
   width="375"
   xml:space="preserve"
   version="1.1"
   id="svg2"><metadata
     id="metadata8"><rdf:RDF><cc:Work
         rdf:about=""><dc:format>image/svg+xml</dc:format><dc:type
           rdf:resource="http://purl.org/dc/dcmitype/StillImage" /></cc:Work></rdf:RDF></metadata><defs
     id="defs6"><clipPath
       id="clipPath52"
       clipPathUnits="userSpaceOnUse"><path
         id="path54"
         d="m 382.02,1132.01 1085.96,0 0,1085.97 -1085.96,0 0,-1085.97 z" /></clipPath><clipPath
       id="clipPath58"
       clipPathUnits="userSpaceOnUse"><path
         id="path60"
         d="m 382.021,1132.01 1085.959,0 0,1085.97 -1085.959,0 0,-1085.97 z" /></clipPath><clipPath
       id="clipPath62"
       clipPathUnits="userSpaceOnUse"><path
         id="path64"
         d="m 382.02,1132.01 1085.96,0 0,1085.97 -1085.96,0 0,-1085.97 z" /></clipPath><clipPath
       id="clipPath82"
       clipPathUnits="userSpaceOnUse"><path
         id="path84"
         d="m 644.746,1424.76 1100.49,0 0,1100.49 -1100.49,0 0,-1100.49 z" /></clipPath><clipPath
       id="clipPath88"
       clipPathUnits="userSpaceOnUse"><path
         id="path90"
         d="m 644.746,1424.76 1100.494,0 0,1100.49 -1100.494,0 0,-1100.49 z" /></clipPath><clipPath
       id="clipPath92"
       clipPathUnits="userSpaceOnUse"><path
         id="path94"
         d="m 644.746,1424.76 1100.49,0 0,1100.49 -1100.49,0 0,-1100.49 z" /></clipPath><clipPath
       id="clipPath112"
       clipPathUnits="userSpaceOnUse"><path
         id="path114"
         d="m 958.734,1488.74 1292.53,0 0,1292.52 -1292.53,0 0,-1292.52 z" /></clipPath><clipPath
       id="clipPath118"
       clipPathUnits="userSpaceOnUse"><path
         id="path120"
         d="m 958.735,1488.74 1292.525,0 0,1292.52 -1292.525,0 0,-1292.52 z" /></clipPath><clipPath
       id="clipPath122"
       clipPathUnits="userSpaceOnUse"><path
         id="path124"
         d="m 958.734,1488.74 1292.53,0 0,1292.52 -1292.53,0 0,-1292.52 z" /></clipPath></defs><g
     transform="matrix(1.25,0,0,-1.25,0,375)"
     id="g10"><g
       transform="scale(0.1,0.1)"
       id="g12"><path
         id="path14"
         style="fill:#ce8e95;fill-opacity:1;fill-rule:nonzero;stroke:none"
         d="m 3000,529.785 c 0,-67.64 0,-529.78890625 -715,-529.78890625 l -1625,0 C 35,-0.00390625 0,472.145 0,539.785 L 0,2399.77 c 0,545 592.352,600 660,600 l 1615,0.3 c 67.65,0 725,-0.3 725,-600.3" /><path
         id="path16"
         style="fill:#26080d;fill-opacity:1;fill-rule:nonzero;stroke:none"
         d="m 856.281,702.516 c 17.266,-9.594 42.703,-16.313 71.016,-16.313 61.906,0 95.013,30.703 95.013,72.938 -0.48,34.547 -20.15,56.14 -62.388,71.5 -29.75,10.562 -40.781,17.765 -40.781,32.64 0,14.391 11.515,24.469 32.625,24.469 20.64,0 39.359,-7.672 49.434,-13.437 l 11.52,41.75 c -13.439,7.203 -36.001,13.921 -61.907,13.921 -54.235,0 -88.297,-32.156 -88.297,-73.421 -0.485,-27.36 18.718,-52.313 64.297,-68.141 28.796,-10.078 38.39,-18.25 38.39,-34.078 0,-15.36 -11.515,-25.906 -37.422,-25.906 -21.125,0 -46.547,8.625 -59.984,16.781 l -11.516,-42.703" /><path
         id="path18"
         style="fill:#26080d;fill-opacity:1;fill-rule:nonzero;stroke:none"
         d="m 1279.89,924.703 -59.01,0 0,-141.094 c 0,-6.718 -1.44,-12.953 -3.36,-18.234 -6.24,-14.875 -21.6,-31.672 -45.11,-31.672 -31.19,0 -43.68,24.953 -43.68,63.828 l 0,127.172 -59.01,0 0,-137.25 c 0,-76.297 38.86,-101.734 81.58,-101.734 41.75,0 64.78,24 74.86,40.797 l 0.95,0 2.87,-35.516 51.83,0 c -0.95,19.188 -1.92,42.234 -1.92,70.063 l 0,163.64" /><path
         id="path20"
         style="fill:#26080d;fill-opacity:1;fill-rule:nonzero;stroke:none"
         d="m 1343.67,595.984 59.03,0 0,120.922 0.96,0 c 12,-18.703 36.47,-31.187 65.75,-31.187 53.26,0 106.53,40.797 106.53,125.25 0,72.937 -44.64,119.015 -98.38,119.015 -35.51,0 -62.87,-14.89 -80.14,-41.281 l -0.97,0 -2.87,36 -51.83,0 c 0.97,-22.078 1.92,-47.031 1.92,-77.75 l 0,-250.969 z m 59.03,228.907 c 0,4.797 0.96,10.078 2.39,14.875 5.77,25.906 28.32,43.672 52.79,43.672 37.92,0 58.07,-33.594 58.07,-74.875 0,-46.063 -22.07,-77.25 -59.51,-77.25 -24.96,0 -46.06,17.265 -51.83,41.265 -1.44,5.281 -1.91,10.563 -1.91,16.313 l 0,36" /><path
         id="path22"
         style="fill:#26080d;fill-opacity:1;fill-rule:nonzero;stroke:none"
         d="m 1822.86,791.297 c 0.95,5.281 1.92,13.906 1.92,24.953 0,51.344 -24.95,113.734 -100.78,113.734 -74.86,0 -114.2,-60.953 -114.2,-125.734 0,-71.5 44.62,-118.047 120.45,-118.047 33.58,0 61.42,6.235 81.58,14.391 l -8.64,40.797 c -17.75,-6.719 -37.44,-10.563 -64.78,-10.563 -37.44,0 -70.55,18.235 -71.99,60.469 l 156.44,0 z m -156.44,41.266 c 2.39,24 17.75,57.109 54.22,57.109 39.36,0 48.95,-35.516 48.47,-57.109 l -102.69,0" /><path
         id="path24"
         style="fill:#26080d;fill-opacity:1;fill-rule:nonzero;stroke:none"
         d="m 1872.67,691 59.03,0 0,120.922 c 0,6.719 0.96,12.969 1.91,18.234 5.28,26.407 24.48,44.641 52.8,44.641 7.18,0 12.47,-0.969 17.26,-1.922 l 0,55.656 c -4.79,0.969 -8.15,1.453 -13.9,1.453 -24.96,0 -52.32,-16.796 -63.83,-49.906 l -1.92,0 -1.93,44.625 -51.34,0 c 1.44,-21.125 1.92,-43.672 1.92,-75.344 l 0,-158.359" /><path
         id="path26"
         style="fill:#26080d;fill-opacity:1;fill-rule:nonzero;stroke:none"
         d="m 2024.39,798.484 122.375,0 0,40.7969 -122.375,0 0,-40.7969 z" /><path
         id="path28"
         style="fill:#26080d;fill-opacity:1;fill-rule:nonzero;stroke:none"
         d="m 470.172,211 0,233.703 -59.5,0 0,-233.703 59.5,0 z m -29.75,331.109 c -19.672,0 -33.109,-13.906 -33.109,-32.14 0,-17.766 12.953,-31.672 32.625,-31.672 20.64,0 33.593,13.906 33.593,31.672 -0.468,18.234 -12.953,32.14 -33.109,32.14" /><path
         id="path30"
         style="fill:#26080d;fill-opacity:1;fill-rule:nonzero;stroke:none"
         d="m 533.672,211 57.578,0 0,138.203 c 0,6.719 0.969,13.438 3.359,19.203 5.282,16.313 20.157,33.578 42.235,33.578 27.359,0 40.312,-23.031 40.312,-55.656 l 0,-135.328 57.578,0 0,140.125 c 0,6.719 1.438,13.922 2.891,19.672 6.234,16.797 21.109,31.187 41.266,31.187 28.312,0 41.75,-23.031 41.75,-61.89 l 0,-129.094 57.578,0 0,137.719 c 0,74.859 -39.344,101.265 -78.219,101.265 -19.187,0 -34.062,-4.812 -47.031,-13.921 -11.031,-6.719 -20.625,-16.313 -28.781,-29.282 l -0.969,0 c -10.078,25.922 -34.063,43.203 -64.781,43.203 -39.344,0 -60.469,-21.593 -71.985,-39.843 l -1.437,0 -2.391,34.562 -50.875,0 c 1.438,-20.156 1.922,-42.719 1.922,-69.594 l 0,-164.109" /><path
         id="path32"
         style="fill:#26080d;fill-opacity:1;fill-rule:nonzero;stroke:none"
         d="m 940.672,115.984 59.031,0 0,120.922 0.957,0 c 12,-18.703 36.47,-31.187 65.75,-31.187 53.26,0 106.53,40.797 106.53,125.25 0,72.937 -44.64,119.015 -98.38,119.015 -35.51,0 -62.87,-14.89 -80.138,-41.281 l -0.969,0 -2.875,36 -51.828,0 c 0.969,-22.078 1.922,-47.031 1.922,-77.75 l 0,-250.969 z m 59.031,228.907 c 0,4.797 0.957,10.078 2.387,14.875 5.77,25.906 28.32,43.672 52.79,43.672 37.92,0 58.07,-33.594 58.07,-74.875 0,-46.063 -22.07,-77.25 -59.51,-77.25 -24.96,0 -46.06,17.265 -51.83,41.265 -1.44,5.281 -1.907,10.563 -1.907,16.313 l 0,36" /><path
         id="path34"
         style="fill:#26080d;fill-opacity:1;fill-rule:nonzero;stroke:none"
         d="m 1327.72,449.984 c -70.53,0 -120.92,-47.031 -120.92,-123.812 0,-74.859 50.86,-120.453 117.09,-120.453 59.5,0 119.97,38.39 119.97,124.297 0,71.015 -46.55,119.968 -116.14,119.968 z m -1.44,-43.203 c 40.31,0 56.63,-41.734 56.63,-78.218 0,-47.016 -23.52,-80.125 -57.11,-80.125 -35.99,0 -58.07,34.062 -58.07,79.171 0,38.875 16.8,79.172 58.55,79.172" /><path
         id="path36"
         style="fill:#26080d;fill-opacity:1;fill-rule:nonzero;stroke:none"
         d="m 1478.28,222.516 c 17.27,-9.594 42.7,-16.313 71.02,-16.313 61.9,0 95.01,30.703 95.01,72.938 -0.48,34.547 -20.15,56.14 -62.39,71.5 -29.75,10.562 -40.78,17.765 -40.78,32.64 0,14.391 11.52,24.469 32.63,24.469 20.64,0 39.36,-7.672 49.43,-13.437 l 11.52,41.75 c -13.44,7.203 -36,13.921 -61.91,13.921 -54.23,0 -88.29,-32.156 -88.29,-73.421 -0.49,-27.36 18.71,-52.313 64.29,-68.141 28.8,-10.078 38.39,-18.25 38.39,-34.078 0,-15.36 -11.51,-25.906 -37.42,-25.906 -21.12,0 -46.55,8.625 -59.98,16.781 l -11.52,-42.703" /><path
         id="path38"
         style="fill:#26080d;fill-opacity:1;fill-rule:nonzero;stroke:none"
         d="m 1752.17,211 0,233.703 -59.5,0 0,-233.703 59.5,0 z m -29.75,331.109 c -19.67,0 -33.11,-13.906 -33.11,-32.14 0,-17.766 12.96,-31.672 32.63,-31.672 20.64,0 33.59,13.906 33.59,31.672 -0.47,18.234 -12.95,32.14 -33.11,32.14" /><path
         id="path40"
         style="fill:#26080d;fill-opacity:1;fill-rule:nonzero;stroke:none"
         d="m 1825.75,497.484 0,-52.781 -33.59,0 0,-44.156 33.59,0 0,-109.891 c 0,-30.703 5.75,-51.828 18.23,-65.265 11.04,-11.985 29.27,-19.188 50.86,-19.188 18.72,0 34.08,2.391 42.72,5.75 l -0.97,45.11 c -5.26,-1.438 -12.95,-2.875 -23.03,-2.875 -22.54,0 -30.23,14.875 -30.23,43.187 l 0,103.172 56.15,0 0,44.156 -56.15,0 0,66.703 -57.58,-13.922" /><path
         id="path42"
         style="fill:#26080d;fill-opacity:1;fill-rule:nonzero;stroke:none"
         d="m 2043.17,211 0,233.703 -59.5,0 0,-233.703 59.5,0 z m -29.75,331.109 c -19.67,0 -33.11,-13.906 -33.11,-32.14 0,-17.766 12.96,-31.672 32.63,-31.672 20.64,0 33.59,13.906 33.59,31.672 -0.47,18.234 -12.95,32.14 -33.11,32.14" /><path
         id="path44"
         style="fill:#26080d;fill-opacity:1;fill-rule:nonzero;stroke:none"
         d="m 2212.72,449.984 c -70.53,0 -120.92,-47.031 -120.92,-123.812 0,-74.859 50.86,-120.453 117.09,-120.453 59.5,0 119.97,38.39 119.97,124.297 0,71.015 -46.55,119.968 -116.14,119.968 z m -1.44,-43.203 c 40.31,0 56.63,-41.734 56.63,-78.218 0,-47.016 -23.52,-80.125 -57.11,-80.125 -35.99,0 -58.07,34.062 -58.07,79.171 0,38.875 16.8,79.172 58.55,79.172" /><path
         id="path46"
         style="fill:#26080d;fill-opacity:1;fill-rule:nonzero;stroke:none"
         d="m 2377.67,211 59.5,0 0,137.25 c 0,6.719 0.49,13.906 2.41,19.188 6.23,17.75 22.55,34.546 46.06,34.546 32.16,0 44.63,-25.421 44.63,-59.015 l 0,-131.969 59.03,0 0,138.688 c 0,73.89 -42.24,100.296 -83.02,100.296 -38.87,0 -64.31,-22.078 -74.39,-40.312 l -1.44,0 -2.87,35.031 -51.83,0 c 1.44,-20.156 1.92,-42.719 1.92,-69.594 l 0,-164.109" /><g
         id="g48"><g
           clip-path="url(#clipPath52)"
           id="g50"><g
             id="g56" /><g
             id="g66"><g
               style="opacity:0.89999402"
               id="g68"
               clip-path="url(#clipPath58)"><g
                 id="g70"><g
                   id="g72"
                   clip-path="url(#clipPath62)"><path
                     id="path74"
                     style="fill:#d9e2ed;fill-opacity:1;fill-rule:nonzero;stroke:none"
                     d="M 1456.55,1287.82 537.816,1143.44 393.449,2062.18 1312.18,2206.55" /><path
                     id="path76"
                     style="fill:none;stroke:#ffffff;stroke-width:20;stroke-linecap:butt;stroke-linejoin:miter;stroke-miterlimit:10;stroke-dasharray:none;stroke-opacity:1"
                     d="m 1456.55,1287.82 -918.734,-144.38 -144.367,918.74 918.731,144.37 144.37,-918.73 z" /></g></g></g></g></g></g><g
         id="g78"><g
           clip-path="url(#clipPath82)"
           id="g80"><g
             id="g86" /><g
             id="g96"><g
               style="opacity:0.80000299"
               id="g98"
               clip-path="url(#clipPath88)"><g
                 id="g100"><g
                   id="g102"
                   clip-path="url(#clipPath92)"><path
                     id="path104"
                     style="fill:#c2cbd3;fill-opacity:1;fill-rule:nonzero;stroke:none"
                     d="m 1572.21,1436.34 -915.874,161.45 161.461,915.88 915.873,-161.46" /><path
                     id="path106"
                     style="fill:none;stroke:#ffffff;stroke-width:20;stroke-linecap:butt;stroke-linejoin:miter;stroke-miterlimit:10;stroke-dasharray:none;stroke-opacity:1"
                     d="m 1572.21,1436.34 -915.874,161.45 161.461,915.88 915.873,-161.46 -161.46,-915.87 z" /></g></g></g></g></g></g><g
         id="g108"><g
           clip-path="url(#clipPath112)"
           id="g110"><g
             id="g116" /><g
             id="g126"><g
               style="opacity:0.69999701"
               id="g128"
               clip-path="url(#clipPath118)"><g
                 id="g130"><g
                   id="g132"
                   clip-path="url(#clipPath122)"><path
                     id="path134"
                     style="fill:#818487;fill-opacity:1;fill-rule:nonzero;stroke:none"
                     d="m 1784.4,1502.34 -812.064,453.25 453.254,812.06 812.06,-453.24" /><path
                     id="path136"
                     style="fill:none;stroke:#ffffff;stroke-width:20;stroke-linecap:butt;stroke-linejoin:miter;stroke-miterlimit:10;stroke-dasharray:none;stroke-opacity:1"
                     d="m 1784.4,1502.34 -812.064,453.25 453.254,812.06 812.06,-453.24 -453.25,-812.07 z" /></g></g></g></g></g></g><path
         id="path138"
         style="fill:#ffffff;fill-opacity:1;fill-rule:nonzero;stroke:none"
         d="m 2118.23,1574.94 0,-156.92 -150.43,0 0,-67.66 150.43,0 0,-158.36 70.55,0 0,158.36 150.44,0 0,67.66 -150.44,0 0,156.92 -70.55,0" /></g></g></svg>