<?xml version="1.0" encoding="UTF-8" standalone="no"?>
<svg
   xmlns:dc="http://purl.org/dc/elements/1.1/"
   xmlns:cc="http://creativecommons.org/ns#"
   xmlns:rdf="http://www.w3.org/1999/02/22-rdf-syntax-ns#"
   xmlns:svg="http://www.w3.org/2000/svg"
   xmlns="http://www.w3.org/2000/svg"
   viewBox="0 0 375 375"
   height="375"
   width="375"
   xml:space="preserve"
   version="1.1"
   id="svg2"><metadata
     id="metadata8"><rdf:RDF><cc:Work
         rdf:about=""><dc:format>image/svg+xml</dc:format><dc:type
           rdf:resource="http://purl.org/dc/dcmitype/StillImage" /></cc:Work></rdf:RDF></metadata><defs
     id="defs6"><clipPath
       id="clipPath20"
       clipPathUnits="userSpaceOnUse"><path
         id="path22"
         d="m 667.91,2709.85 c -220.269,0 -398.832,-178.56 -398.832,-398.82 l 0,0 0,-1624.46 c 0,-220.261 178.563,-398.808 398.832,-398.808 l 0,0 1624.44,0 c 220.27,0 398.83,178.547 398.83,398.808 l 0,0 0,1624.46 c 0,220.26 -178.56,398.82 -398.83,398.82 l 0,0 -1624.44,0 z" /></clipPath></defs><g
     transform="matrix(1.25,0,0,-1.25,0,375)"
     id="g10"><g
       transform="scale(0.1,0.1)"
       id="g12"><path
         id="path14"
         style="fill:#aebcc4;fill-opacity:1;fill-rule:nonzero;stroke:none"
         d="m 3000,529.855 c 0,-67.632 0,-529.85109375 -715,-529.85109375 l -1625,0 C 35,0.00390625 0,472.223 0,539.855 L 0,2399.86 c 0,545 592.352,600 660,600 l 1615,0.28 c 67.65,0 725,-0.28 725,-600.28" /><g
         id="g16"><g
           clip-path="url(#clipPath20)"
           id="g18"><path
             id="path24"
             style="fill:none;stroke:#ffffff;stroke-width:40;stroke-linecap:butt;stroke-linejoin:miter;stroke-miterlimit:10;stroke-dasharray:none;stroke-opacity:1"
             d="m 2840,1449.86 -2690,0" /><path
             id="path26"
             style="fill:#ffffff;fill-opacity:1;fill-rule:evenodd;stroke:none"
             d="m 1559.77,2717.8 c -5.34,-3.57 -8.91,-8.92 -14.27,-14.27 8.93,1.78 19.63,0 26.77,1.78 7.12,0 14.27,5.35 19.61,7.14 0,0 1.78,0 3.57,-1.79 -3.57,-3.56 -8.91,-8.91 -10.71,-14.27 l 14.28,0 c 17.84,16.06 33.89,12.49 48.16,12.49 10.7,0 24.97,1.78 37.46,-5.35 -7.14,-1.78 -16.05,-3.57 -24.96,-8.92 0,0 -1.8,-1.78 3.55,-1.78 3.57,0 26.76,7.13 32.11,7.13 3.57,0 10.71,-1.78 16.06,-3.57 -1.79,-1.78 -5.35,-1.78 -7.13,-3.56 10.7,-1.79 21.41,-3.57 32.11,-7.14 l -3.58,-3.57 c 53.52,-23.19 115.97,-64.22 162.34,-124.87 14.27,-17.84 7.13,-42.81 12.49,-64.22 l 1.78,-69.57 c 0,-24.97 -5.35,-67.78 -5.35,-71.35 0,-5.35 5.35,-44.6 5.35,-48.17 0,-110.6 -82.05,-76.7 -82.05,-174.81 l 0,-74.93 c 28.53,-32.11 46.37,-80.27 87.41,-98.11 83.84,-39.24 171.25,-69.57 256.86,-110.6 49.96,-24.97 128.44,-64.22 151.64,-130.22 19.61,-55.3 37.45,-110.6 53.52,-165.9 28.53,-103.46 57.07,-208.71 87.41,-313.96 8.91,-32.11 30.32,-94.54 30.32,-98.11 0,-23.19 -80.27,-58.87 -94.55,-71.35 l -1.79,-296.13 c -14.27,-73.132 -32.11,-156.98 -49.93,-231.902 -23.2,-101.68 -53.53,-203.359 -74.94,-306.82 -3.56,-16.059 1.8,-48.168 1.8,-53.52 0,-76.699 -57.09,-219.41 -57.09,-297.898 l 0,-281.852 -46.39,-519.109 0,-32.102 c -8.92,-69.577 -23.18,-146.277 -48.16,-217.637 -5.34,-14.27 -7.13,-33.89 -8.92,-51.73 -1.78,-23.19 -5.35,-71.35 -5.35,-76.7 0,-3.57 -7.14,-67.79 -8.91,-101.68 -3.58,-30.33 -3.58,-62.44 -5.36,-94.55 -1.79,-35.68 -3.57,-71.35 -7.14,-107.03 -1.77,-16.05 -46.38,-283.63 -46.38,-347.85 0,-5.35 5.36,-35.68 5.36,-39.25 0,-5.35 -3.57,-32.11 -3.57,-37.46 0,-21.4 19.62,-55.3 33.89,-76.7 19.62,-28.55 49.95,-49.95 49.95,-76.71 0,-57.08 -114.16,-57.08 -133.79,-57.08 -51.73,0 -99.89,7.13 -149.85,17.83 -10.7,1.79 -21.4,3.57 -28.54,8.92 -26.75,14.27 -66,24.98 -76.7,60.66 -1.78,3.56 1.79,7.13 1.79,12.48 0,3.57 -7.15,30.33 -7.15,44.6 0,48.16 3.58,69.57 3.58,74.92 0,19.62 -41.04,48.16 -41.04,112.38 0,5.36 3.57,33.9 5.36,51.74 l 0,112.38 c 12.48,94.54 44.59,198.01 62.43,290.77 1.78,17.84 1.78,49.95 1.78,53.51 l 0,139.15 c 3.57,24.97 8.93,74.92 8.93,78.49 l -19.63,196.219 0,442.398 -33.89,412.071 c -28.53,-130.219 -60.64,-271.149 -76.71,-403.149 l 1.79,-247.961 c -3.56,-33.89 -3.56,-69.57 -12.49,-105.25 -5.35,-17.839 -17.84,-37.461 -23.19,-57.078 -7.13,-19.621 -10.7,-44.601 -17.84,-66 -7.14,-26.76 -19.61,-53.52 -19.61,-80.28 0,-46.38 17.84,-90.97 28.53,-140.92 l -17.84,-98.12 0,-41.02 -26.76,-230.12 c 1.79,-24.98 5.35,-69.57 5.35,-74.92 0,-58.87 -14.26,-121.31 -14.26,-144.5 0,-51.73 44.59,-99.89 44.59,-151.63 0,-3.56 -3.57,-23.19 -5.34,-33.89 -1.8,-5.35 -3.58,-16.05 -5.36,-24.97 0,-3.57 -3.57,-12.49 -5.36,-17.84 -7.12,-24.97 -30.32,-73.14 -30.32,-78.49 0,-3.57 7.13,-74.92 7.13,-80.27 0,-8.92 0,-23.19 -7.13,-35.68 -17.84,-28.54 -103.46,-37.46 -137.36,-37.46 -30.32,0 -167.68,1.78 -167.68,67.78 0,46.38 42.81,139.15 42.81,174.82 0,3.57 -8.91,41.03 -8.91,62.44 -3.57,57.08 -21.41,114.16 -39.25,171.25 -7.14,21.4 -7.14,46.38 -8.91,67.78 -3.57,35.68 -5.36,71.36 -7.15,107.04 l -12.48,230.11 0,406.718 c 1.79,5.36 1.79,10.711 1.79,16.063 -3.57,24.969 24.96,57.078 24.96,80.269 0,21.411 -17.83,44.598 -37.46,67.79 -7.13,8.917 -30.32,73.14 -30.32,90.98 l 0,33.891 16.05,142.707 c 0,64.222 -1.78,87.41 -5.35,215.851 0,1.781 1.78,42.809 3.57,278.2815 l 3.57,246.1675 c -12.49,53.52 -21.41,110.602 -35.68,164.122 -21.41,82.05 -53.52,162.328 -71.36,242.601 -12.48,58.867 -19.62,119.52 -26.75,178.387 -5.36,41.031 -5.36,83.84 -10.71,123.082 -7.13,51.73 -17.84,105.25 -26.75,156.98 -21.407,10.71 -48.165,23.19 -71.357,35.68 -35.679,16.05 -73.14,33.89 -110.597,53.52 l 0,3.56 c 0,3.57 14.269,49.95 19.617,71.36 42.82,156.98 110.602,315.74 171.247,470.94 21.41,58.86 108.82,117.73 156.98,135.57 73.14,26.76 148.07,62.44 221.2,96.33 5.35,1.78 3.57,10.7 5.35,14.27 7.14,8.92 16.06,21.41 24.98,30.33 24.97,23.19 57.08,14.27 57.08,49.94 0,5.36 0,7.14 -1.77,10.71 -44.61,28.54 -58.88,85.62 -67.8,123.08 -5.35,23.19 -16.04,44.6 -21.41,66.01 -7.13,28.54 -7.13,60.65 -19.61,89.19 0,3.57 -49.95,74.92 -49.95,90.98 l 0,174.81 c 7.13,28.55 41.02,41.03 64.21,60.66 3.58,3.56 5.35,8.91 7.15,14.27 3.57,8.92 21.41,33.89 35.68,32.11 -5.36,-5.36 -12.5,-14.28 -12.5,-19.63 l 0,-8.92 3.57,-3.56 c 16.05,8.92 14.27,39.24 41.03,42.81 0,-1.78 -3.57,-5.35 -1.78,-8.92 7.14,8.92 19.61,24.97 24.98,24.97 3.55,0 1.77,-3.56 3.55,-5.35 1.79,8.92 14.27,14.27 23.2,16.06 0,-5.35 -1.79,-10.71 0,-16.06 10.7,8.92 23.18,19.62 35.68,26.76 l 8.91,0 z M 2212.66,944.641 c 0,-37.461 -14.27,-83.84 -19.62,-124.871 l 1.78,-278.282 c -1.78,-12.488 -7.12,-26.758 -8.92,-41.027 -3.56,-17.844 -3.56,-41.031 -5.35,-62.434 -1.78,0 -5.35,-1.789 -7.12,-1.789 0,7.141 0,17.84 -3.57,23.192 -3.57,12.488 -16.06,33.898 -16.06,37.461 0,5.359 5.35,12.488 5.35,17.839 0,3.571 -16.06,21.411 -16.06,24.981 0,5.348 5.36,16.047 7.14,23.187 l -1.78,44.59 c 32.1,41.032 24.98,82.063 35.68,121.313 l 0,46.379 c -5.36,28.539 -17.84,73.129 -17.84,105.238 l 5.34,57.09 c -1.77,17.84 -8.92,51.73 -8.92,55.301 0,5.351 1.79,3.558 1.79,5.351 10.7,1.778 12.5,19.62 17.84,26.76 5.36,5.35 16.05,8.92 23.2,12.48 3.57,-30.32 7.12,-87.412 7.12,-92.759 m -981.12,1.789 c 0,-8.922 10.7,-17.84 12.5,-30.332 3.55,-14.27 5.34,-46.379 5.34,-51.731 0,-3.566 -7.14,-57.078 -7.14,-62.437 0,-3.559 16.06,-30.321 16.06,-35.672 l 0,-64.219 c 7.13,-19.621 28.54,-60.648 28.54,-83.84 0,-5.359 -5.35,-28.551 -5.35,-33.898 0,-3.563 12.48,-33.891 12.48,-39.242 0,-3.571 -14.27,-62.442 -14.27,-66 0,-5.36 12.5,-46.391 12.5,-51.739 0,-8.922 -3.57,-17.84 -17.84,-26.75 -3.57,26.75 -7.14,55.301 -10.71,80.27 -7.13,58.871 -12.49,121.301 -21.41,180.168 -7.13,57.082 -32.11,149.84 -32.11,210.492 l 0,39.25 c 5.36,19.621 7.14,41.027 8.92,62.43 l 0,48.17 c 1.79,1.78 5.35,3.57 8.92,7.13 1.8,-8.92 -1.77,-19.62 3.57,-82.05" /><path
             id="path28"
             style="fill:#ffffff;fill-opacity:1;fill-rule:nonzero;stroke:none"
             d="m 432.5,2144.86 c -45,-70 -82.5,-132.5 -82.5,-132.5 0,0 6.172,128.77 36.672,214.16 C 420,2319.86 450,2357.36 450,2357.36 c 0,0 5.512,-33.86 45,-48.34 25,-9.16 41.82,-3.64 41.82,-3.64 0,0 -44.961,-68.18 -104.32,-160.52 m -164.172,130.82 c -16.656,-123.32 -42.066,-306.11 -42.066,-306.11 0,0 -25.571,165.38 -46.633,271.63 -21.059,106.25 -78.68,183.82 -78.68,183.82 0,0 62.422,11.34 129.832,44.29 l 106.289,85 c 0,0 -48.281,-127.22 -68.742,-278.63 M 23.6992,2086.9 -244.109,2521.27 c 0,0 21.058,-3.13 45.14,12.5 24.071,15.62 9.028,46.86 9.028,46.86 0,0 114.3394,-68.74 183.54256,-265.61 C 62.8086,2118.14 23.6992,2086.9 23.6992,2086.9 m -90.0976,-465.76 -208.8316,303.63 0,433.77 c 0,0 187.9487,-238.58 229.7183,-390.39 41.77342,-151.81 -20.8867,-347.01 -20.8867,-347.01 m -299.4216,414.63 -167.071,130.13 187.961,0 -20.89,-130.13 z m 1644.15,694.91 c 5,245 -163.33,275 -163.33,275 0,0 153.33,76.68 148.09,222.93 -4.48,125.16 -131.42,173.75 -131.42,173.75 0,0 106.66,123.32 23.33,300 -107.84,228.6 -351.34,111.84 -351.34,111.84 0,0 153.25,278.68 -20.879,477.12 -214.453,244.36 -438.562,151.82 -438.562,151.82 0,0 25.133,209.66 -164.047,246.83 -222.6837,43.75 -228.6915,-87.5 -228.6915,-87.5 0,0 -117.3515,96.87 -270.8085,-21.86 -112.344,-86.93 -67.371,-354.34 -67.371,-354.34 0,0 -140.403,82.12 -221.5,1.21 -117.801,-117.53 -8.219,-326.53 -8.219,-326.53 0,0 -234.422,2.66 -288.582,-178.59 -71.078,-237.86 93.328,-340 93.328,-340 0,0 -199.998,-6.68 -213.328,-106.68 -21.69,-162.68 95.332,-242.25 95.332,-242.25 0,0 -308.662,2.52 -308.662,-257.75 0,-260.25 371.31,-284.46 371.31,-284.46 0,0 -135.73,-114.38 -20.878,-303.63 96.226,-158.57 271.48,-43.38 271.48,-43.38 0,0 104.418,-43.37 313.246,-368.69 C -94.3281,1450.2 -31.6797,1211.63 -10.8008,951.383 10.0898,691.125 -115.219,302.555 -115.219,302.555 l 588.27,0 c 0,0 -144.582,351.769 -149.711,930.765 -1.84,206.9 29.75,413.73 76.66,566.54 87.5,285 194.82,409.43 194.82,409.43 0,0 -1.422,-41.99 23.508,-60.27 50,-36.66 92.402,-14.39 92.402,-14.39 0,0 41.598,-72.15 140.942,-52.27 66.656,13.32 109.019,91.57 109.019,91.57 0,0 89.959,-8.98 110.979,75.09 16.66,66.66 -38.3,112.07 -38.3,112.07 0,0 92.74,-11.98 139.96,74.59 30,55 10,125 10,125 0,0 92.55,49.61 95,170" /></g></g><path
         id="path30"
         style="fill:#080828;fill-opacity:1;fill-rule:nonzero;stroke:none"
         d="m 1650.36,301 57.58,0 -18.71,323.438 -76.78,0 -44.64,-129.563 c -12.47,-37.922 -23.5,-77.75 -32.14,-112.781 l -1.44,0 c -8.15,36 -18.23,74.39 -29.76,112.297 l -42.22,130.047 -77.75,0 -21.59,-323.438 55.18,0 7.21,130.047 c 2.4,44.141 4.31,95.5 5.76,137.719 l 0.96,0 c 8.64,-40.313 20.15,-84.453 32.62,-125.719 l 43.19,-138.203 45.59,0 47.03,140.125 c 14.39,40.781 27.83,84.453 38.39,123.797 l 1.44,0 c -0.48,-43.672 1.92,-94.047 3.85,-135.797 L 1650.36,301" /><path
         id="path32"
         style="fill:#080828;fill-opacity:1;fill-rule:nonzero;stroke:none"
         d="m 1753.67,316.359 c 17.77,-10.562 53.27,-20.156 87.35,-20.156 83.5,0 122.84,45.11 122.84,96.938 0,46.547 -27.36,74.859 -83.5,95.968 -43.19,16.797 -61.91,28.313 -61.91,53.266 0,18.719 16.33,38.875 53.75,38.875 30.24,0 52.78,-9.125 64.3,-15.359 l 14.41,47.5 c -16.8,8.64 -42.72,16.328 -77.75,16.328 -70.05,0 -114.21,-40.313 -114.21,-93.094 0,-46.547 34.08,-74.859 87.35,-94.062 41.26,-14.875 57.58,-29.266 57.58,-53.75 0,-26.391 -21.11,-44.141 -59.04,-44.141 -30.21,0 -59.01,9.594 -78.21,20.625 l -12.96,-48.938" /></g></g></svg>