<?xml version="1.0" encoding="UTF-8" standalone="no"?>
<svg
   xmlns:dc="http://purl.org/dc/elements/1.1/"
   xmlns:cc="http://creativecommons.org/ns#"
   xmlns:rdf="http://www.w3.org/1999/02/22-rdf-syntax-ns#"
   xmlns:svg="http://www.w3.org/2000/svg"
   xmlns="http://www.w3.org/2000/svg"
   viewBox="0 0 375 375"
   height="375"
   width="375"
   xml:space="preserve"
   version="1.1"
   id="svg2"><metadata
     id="metadata8"><rdf:RDF><cc:Work
         rdf:about=""><dc:format>image/svg+xml</dc:format><dc:type
           rdf:resource="http://purl.org/dc/dcmitype/StillImage" /></cc:Work></rdf:RDF></metadata><defs
     id="defs6"><clipPath
       id="clipPath18"
       clipPathUnits="userSpaceOnUse"><path
         id="path20"
         d="m 0,0 0,2991 3000,0 L 3000,0 0,0 Z" /></clipPath></defs><g
     transform="matrix(1.25,0,0,-1.25,0,375)"
     id="g10"><g
       transform="scale(0.1,0.1)"
       id="g12"><g
         id="g14"><g
           clip-path="url(#clipPath18)"
           id="g16"><path
             id="path22"
             style="fill:#aebcc4;fill-opacity:1;fill-rule:nonzero;stroke:none"
             d="m 3000,519.855 c 0,-67.632 0,-529.85109 -715,-529.85109 l -1625,0 C 35,-9.99609 0,462.223 0,529.855 L 0,2389.86 c 0,545 592.352,600 660,600 l 1615,0.28 c 67.65,0 725,-0.28 725,-600.28" /></g></g><path
         id="path24"
         style="fill:#080828;fill-opacity:1;fill-rule:nonzero;stroke:none"
         d="m 551.672,452 59.5,0 0,340.719 -59.5,0 0,-340.719 z" /><path
         id="path26"
         style="fill:#080828;fill-opacity:1;fill-rule:nonzero;stroke:none"
         d="m 780.719,690.984 c -70.531,0 -120.922,-47.031 -120.922,-123.812 0,-74.859 50.859,-120.453 117.094,-120.453 59.5,0 119.968,38.39 119.968,124.297 0,71.015 -46.546,119.968 -116.14,119.968 z m -1.438,-43.203 c 40.313,0 56.625,-41.734 56.625,-78.218 0,-47.016 -23.515,-80.125 -57.109,-80.125 -35.984,0 -58.063,34.062 -58.063,79.171 0,38.875 16.797,79.172 58.547,79.172" /><path
         id="path28"
         style="fill:#080828;fill-opacity:1;fill-rule:nonzero;stroke:none"
         d="m 945.672,452 59.498,0 0,137.25 c 0,6.719 0.49,13.906 2.41,19.188 6.23,17.75 22.55,34.546 46.06,34.546 32.16,0 44.63,-25.421 44.63,-59.015 l 0,-131.969 59.03,0 0,138.688 c 0,73.89 -42.24,100.296 -83.02,100.296 -38.87,0 -64.31,-22.078 -74.389,-40.312 l -1.438,0 -2.875,35.031 -51.828,0 c 1.438,-20.156 1.922,-42.719 1.922,-69.594 l 0,-164.109" /><path
         id="path30"
         style="fill:#080828;fill-opacity:1;fill-rule:nonzero;stroke:none"
         d="m 1382.88,685.703 -2.41,-31.203 -0.95,0 c -11.05,19.203 -32.16,36.484 -67.68,36.484 -56.14,0 -106.04,-46.546 -106.04,-123.328 0,-66.234 41.26,-114.218 99.33,-114.218 30.71,0 54.7,13.921 68.14,34.546 l 0.96,0 0,-20.156 c 0,-50.375 -28.79,-70.531 -67.18,-70.531 -28.32,0 -53.27,9.109 -68.14,17.75 l -12.96,-44.625 c 20.16,-12.484 51.83,-18.719 81.58,-18.719 32.16,0 65.74,6.719 90.22,28.313 24.47,22.078 34.55,57.109 34.55,106.062 l 0,132.438 c 0,32.156 0.95,51.343 1.92,67.187 l -51.34,0 z m -9.61,-131.484 c 0,-6.719 -0.96,-14.875 -2.39,-21.125 -6.72,-21.11 -25.93,-35.5 -47.99,-35.5 -36.95,0 -57.11,32.14 -57.11,71.969 0,47.515 24.47,76.312 57.58,76.312 24.95,0 41.75,-16.328 48,-37.922 1.44,-4.797 1.91,-10.547 1.91,-15.828 l 0,-37.906" /><path
         id="path32"
         style="fill:#080828;fill-opacity:1;fill-rule:nonzero;stroke:none"
         d="m 1604.75,738.484 0,-52.781 -33.59,0 0,-44.156 33.59,0 0,-109.891 c 0,-30.703 5.75,-51.828 18.23,-65.265 11.04,-11.985 29.27,-19.188 50.86,-19.188 18.72,0 34.08,2.391 42.72,5.75 l -0.97,45.11 c -5.26,-1.438 -12.95,-2.875 -23.03,-2.875 -22.54,0 -30.23,14.875 -30.23,43.187 l 0,103.172 56.15,0 0,44.156 -56.15,0 0,66.703 -57.58,-13.922" /><path
         id="path34"
         style="fill:#080828;fill-opacity:1;fill-rule:nonzero;stroke:none"
         d="m 1948.42,452 c -2.39,14.391 -3.36,35.031 -3.36,56.141 l 0,84.468 c 0,50.86 -21.59,98.375 -96.45,98.375 -36.95,0 -67.19,-10.078 -84.45,-20.64 l 11.51,-38.391 c 15.83,10.078 39.83,17.281 62.86,17.281 41.27,0 47.52,-25.437 47.52,-40.796 l 0,-3.844 c -86.39,0.484 -138.69,-29.266 -138.69,-88.297 0,-35.5 26.39,-69.578 73.42,-69.578 30.24,0 54.7,12.953 69.1,31.187 l 1.43,0 3.85,-25.906 53.26,0 z m -60.94,82.063 c 0,-3.844 -0.48,-8.641 -1.92,-12.954 -5.28,-16.796 -22.56,-32.156 -46.08,-32.156 -18.7,0 -33.57,10.547 -33.57,33.594 0,35.5 39.82,44.625 81.57,43.656 l 0,-32.14" /><path
         id="path36"
         style="fill:#080828;fill-opacity:1;fill-rule:nonzero;stroke:none"
         d="m 2065.7,792.719 -59.03,0 0,-340.719 59.03,0 0,79.656 20.14,23.516 67.19,-103.172 72.47,0 -98.86,138.203 86.38,95.5 -71.02,0 -56.62,-75.344 c -6.25,-8.156 -12.96,-18.234 -18.72,-27.359 l -0.96,0 0,209.719" /><path
         id="path38"
         style="fill:#080828;fill-opacity:1;fill-rule:nonzero;stroke:none"
         d="m 2445.86,552.297 c 0.95,5.281 1.92,13.906 1.92,24.953 0,51.344 -24.95,113.734 -100.78,113.734 -74.86,0 -114.2,-60.953 -114.2,-125.734 0,-71.5 44.62,-118.047 120.45,-118.047 33.58,0 61.42,6.235 81.58,14.391 l -8.64,40.797 c -17.75,-6.719 -37.44,-10.563 -64.78,-10.563 -37.44,0 -70.55,18.235 -71.99,60.469 l 156.44,0 z m -156.44,41.266 c 2.39,24 17.75,57.109 54.22,57.109 39.36,0 48.95,-35.516 48.47,-57.109 l -102.69,0" /><path
         id="path40"
         style="fill:#c1272d;fill-opacity:1;fill-rule:nonzero;stroke:none"
         d="m 2190,2696.66 -23.32,-500 L 1710,1990 c 0,0 153.34,-346.66 546.67,-286.66 0,0 320.01,37.29 406.67,373.32 0,0 59.99,286.68 -133.34,460 0,0 -126.67,180 -340,160" /><path
         id="path42"
         style="fill:#000000;fill-opacity:1;fill-rule:nonzero;stroke:none"
         d="m 320,990 1360,0 0,830 -1360,0 0,-830 z" /><path
         id="path44"
         style="fill:#000000;fill-opacity:1;fill-rule:nonzero;stroke:none"
         d="M 311.695,1861.5 1582.02,2312.02 1522.95,2496.66 260.004,2046.14" /><path
         id="path46"
         style="fill:#ffffff;fill-opacity:1;fill-rule:nonzero;stroke:none"
         d="m 538.805,1783.32 53.539,-143.32 84.941,0 -48.012,143.68" /><path
         id="path48"
         style="fill:#ffffff;fill-opacity:1;fill-rule:nonzero;stroke:none"
         d="m 734.527,1784.9 53.539,-144.9 84.942,0 -48.012,144.47" /><path
         id="path50"
         style="fill:#ffffff;fill-opacity:1;fill-rule:nonzero;stroke:none"
         d="m 343.086,1784.9 53.539,-144.9 84.941,0 -48.011,144.47" /><path
         id="path52"
         style="fill:#ffffff;fill-opacity:1;fill-rule:nonzero;stroke:none"
         d="m 1321.68,1783.32 53.54,-143.32 84.94,0 -48.02,143.68" /><path
         id="path54"
         style="fill:#ffffff;fill-opacity:1;fill-rule:nonzero;stroke:none"
         d="m 1517.4,1784.9 53.54,-144.9 84.94,0 -48.01,144.47" /><path
         id="path56"
         style="fill:#ffffff;fill-opacity:1;fill-rule:nonzero;stroke:none"
         d="m 1125.96,1784.9 53.54,-144.9 84.95,0 -48.02,144.47" /><path
         id="path58"
         style="fill:#ffffff;fill-opacity:1;fill-rule:nonzero;stroke:none"
         d="m 930.242,1784.9 53.543,-144.9 84.935,0 -48.01,144.47" /><path
         id="path60"
         style="fill:#ffffff;fill-opacity:1;fill-rule:nonzero;stroke:none"
         d="m 509.613,1954.67 3.731,148.67 79.992,28.59 2.367,-149.3" /><path
         id="path62"
         style="fill:#ffffff;fill-opacity:1;fill-rule:nonzero;stroke:none"
         d="m 694.457,2019.05 3.191,150.16 79.981,28.59 2.641,-150.05" /><path
         id="path64"
         style="fill:#ffffff;fill-opacity:1;fill-rule:nonzero;stroke:none"
         d="m 325.855,1887.32 3.188,150.17 79.992,28.58 2.617,-150.05" /><path
         id="path66"
         style="fill:#ffffff;fill-opacity:1;fill-rule:nonzero;stroke:none"
         d="m 1246.82,2218.14 3.73,148.68 79.99,28.59 2.37,-149.3" /><path
         id="path68"
         style="fill:#ffffff;fill-opacity:1;fill-rule:nonzero;stroke:none"
         d="m 1431.68,2282.52 3.18,150.16 79.98,28.59 2.64,-150.05" /><path
         id="path70"
         style="fill:#ffffff;fill-opacity:1;fill-rule:nonzero;stroke:none"
         d="m 1063.05,2150.78 3.21,150.17 79.98,28.58 2.64,-150.04" /><path
         id="path72"
         style="fill:#ffffff;fill-opacity:1;fill-rule:nonzero;stroke:none"
         d="m 878.762,2084.91 3.187,150.17 79.992,28.58 2.629,-150.04" /><path
         id="path74"
         style="fill:none;stroke:#ffffff;stroke-width:20;stroke-linecap:butt;stroke-linejoin:miter;stroke-miterlimit:10;stroke-dasharray:none;stroke-opacity:1"
         d="m 1570,1370 -700,0" /><path
         id="path76"
         style="fill:none;stroke:#ffffff;stroke-width:20;stroke-linecap:butt;stroke-linejoin:miter;stroke-miterlimit:10;stroke-dasharray:none;stroke-opacity:1"
         d="m 1570,1280 -700,0" /><path
         id="path78"
         style="fill:none;stroke:#ffffff;stroke-width:20;stroke-linecap:butt;stroke-linejoin:miter;stroke-miterlimit:10;stroke-dasharray:none;stroke-opacity:1"
         d="m 2670,2200 c 0,-277.98 -225.35,-503.32 -503.33,-503.32 -277.98,0 -503.33,225.34 -503.33,503.32 0,277.98 225.35,503.34 503.33,503.34 277.98,0 503.33,-225.36 503.33,-503.34 z" /><path
         id="path80"
         style="fill:none;stroke:#ffffff;stroke-width:20;stroke-linecap:butt;stroke-linejoin:miter;stroke-miterlimit:10;stroke-dasharray:none;stroke-opacity:1"
         d="m 2602.57,2451.67 c 138.99,-240.74 56.5,-548.57 -184.23,-687.56 -240.74,-138.99 -548.57,-56.51 -687.56,184.23 -138.99,240.74 -56.51,548.57 184.23,687.56 240.73,138.99 548.57,56.51 687.56,-184.23 z" /><path
         id="path82"
         style="fill:none;stroke:#ffffff;stroke-width:20;stroke-linecap:butt;stroke-linejoin:miter;stroke-miterlimit:10;stroke-dasharray:none;stroke-opacity:1"
         d="m 2418.34,2635.9 c 240.74,-138.99 323.22,-446.83 184.24,-687.56 -139.01,-240.74 -446.83,-323.23 -687.56,-184.23 -240.74,138.99 -323.23,446.82 -184.24,687.56 138.99,240.73 446.82,323.22 687.56,184.23 z" /><path
         id="path84"
         style="fill:none;stroke:#ffffff;stroke-width:10;stroke-linecap:butt;stroke-linejoin:miter;stroke-miterlimit:10;stroke-dasharray:none;stroke-opacity:1"
         d="m 2155,2690 0,-70" /><path
         id="path86"
         style="fill:none;stroke:#ffffff;stroke-width:14.77000046;stroke-linecap:butt;stroke-linejoin:miter;stroke-miterlimit:10;stroke-dasharray:none;stroke-opacity:1"
         d="m 1916.05,2636.5 43.61,-75.54" /><path
         id="path88"
         style="fill:none;stroke:#ffffff;stroke-width:13.65999985;stroke-linecap:butt;stroke-linejoin:miter;stroke-miterlimit:10;stroke-dasharray:none;stroke-opacity:1"
         d="m 1742.3,2446.41 64.63,-37.31" /><path
         id="path90"
         style="fill:none;stroke:#ffffff;stroke-width:10;stroke-linecap:butt;stroke-linejoin:miter;stroke-miterlimit:10;stroke-dasharray:none;stroke-opacity:1"
         d="m 1680,2195 70,0" /><path
         id="path92"
         style="fill:none;stroke:#ffffff;stroke-width:14.13000011;stroke-linecap:butt;stroke-linejoin:miter;stroke-miterlimit:10;stroke-dasharray:none;stroke-opacity:1"
         d="m 1736.69,1951.75 69.14,39.92" /><path
         id="path94"
         style="fill:none;stroke:#ffffff;stroke-width:13.14999962;stroke-linecap:butt;stroke-linejoin:miter;stroke-miterlimit:10;stroke-dasharray:none;stroke-opacity:1"
         d="m 1923.76,1779.24 34.59,59.92" /><path
         id="path96"
         style="fill:none;stroke:#ffffff;stroke-width:10;stroke-linecap:butt;stroke-linejoin:miter;stroke-miterlimit:10;stroke-dasharray:none;stroke-opacity:1"
         d="m 2165,1700 0,80" /><path
         id="path98"
         style="fill:none;stroke:#ffffff;stroke-width:14.55000019;stroke-linecap:butt;stroke-linejoin:miter;stroke-miterlimit:10;stroke-dasharray:none;stroke-opacity:1"
         d="m 2421.91,1764.57 -42.35,73.36" /><path
         id="path100"
         style="fill:none;stroke:#ffffff;stroke-width:14.43000031;stroke-linecap:butt;stroke-linejoin:miter;stroke-miterlimit:10;stroke-dasharray:none;stroke-opacity:1"
         d="m 2604.25,1951.22 -72.17,41.67" /><path
         id="path102"
         style="fill:none;stroke:#ffffff;stroke-width:10;stroke-linecap:butt;stroke-linejoin:miter;stroke-miterlimit:10;stroke-dasharray:none;stroke-opacity:1"
         d="m 2670,2195 -80,0" /><path
         id="path104"
         style="fill:none;stroke:#ffffff;stroke-width:15.39000034;stroke-linecap:butt;stroke-linejoin:miter;stroke-miterlimit:10;stroke-dasharray:none;stroke-opacity:1"
         d="m 2615.31,2459.02 -82.02,-47.35" /><path
         id="path106"
         style="fill:none;stroke:#ffffff;stroke-width:14.34000015;stroke-linecap:butt;stroke-linejoin:miter;stroke-miterlimit:10;stroke-dasharray:none;stroke-opacity:1"
         d="m 2419.48,2637.86 -41.13,-71.25" /><path
         id="path108"
         style="fill:#ffffff;fill-opacity:1;fill-rule:nonzero;stroke:none"
         d="m 2210.01,2196.66 c 0,-23.93 -19.4,-43.32 -43.33,-43.32 -23.94,0 -43.34,19.39 -43.34,43.32 0,23.95 19.4,43.34 43.34,43.34 23.93,0 43.33,-19.39 43.33,-43.34" /></g></g></svg>