<?xml version="1.0" encoding="UTF-8" standalone="no"?>
<svg
   xmlns:dc="http://purl.org/dc/elements/1.1/"
   xmlns:cc="http://creativecommons.org/ns#"
   xmlns:rdf="http://www.w3.org/1999/02/22-rdf-syntax-ns#"
   xmlns:svg="http://www.w3.org/2000/svg"
   xmlns="http://www.w3.org/2000/svg"
   viewBox="0 0 375 375"
   height="375"
   width="375"
   xml:space="preserve"
   version="1.1"
   id="svg2"><metadata
     id="metadata8"><rdf:RDF><cc:Work
         rdf:about=""><dc:format>image/svg+xml</dc:format><dc:type
           rdf:resource="http://purl.org/dc/dcmitype/StillImage" /></cc:Work></rdf:RDF></metadata><defs
     id="defs6" /><g
     transform="matrix(1.25,0,0,-1.25,0,375)"
     id="g10"><g
       transform="scale(0.1,0.1)"
       id="g12"><path
         id="path14"
         style="fill:#aebcc4;fill-opacity:1;fill-rule:nonzero;stroke:none"
         d="m 3000,529.855 c 0,-67.632 0,-529.85109375 -715,-529.85109375 l -1625,0 C 35,0.00390625 0,472.223 0,539.855 L 0,2399.86 c 0,545 592.352,600 660,600 l 1615,0.28 c 67.65,0 725,-0.28 725,-600.28" /><path
         id="path16"
         style="fill:#080828;fill-opacity:1;fill-rule:nonzero;stroke:none"
         d="m 533.672,373 59.5,0 0,139.641 c 0,6.718 0.484,12.953 2.406,17.765 6.235,17.75 22.547,33.11 45.578,33.11 32.641,0 45.11,-25.438 45.11,-59.516 l 0,-131 59.031,0 0,137.719 c 0,74.859 -41.75,101.265 -81.578,101.265 -14.875,0 -28.797,-3.843 -40.313,-10.562 -12.468,-6.719 -22.078,-15.844 -29.265,-26.875 l -0.969,0 0,139.172 -59.5,0 0,-340.719" /><path
         id="path18"
         style="fill:#080828;fill-opacity:1;fill-rule:nonzero;stroke:none"
         d="m 992.422,373 c -2.391,14.391 -3.359,35.031 -3.359,56.141 l 0,84.468 c 0,50.86 -21.594,98.375 -96.454,98.375 -36.953,0 -67.187,-10.078 -84.453,-20.64 l 11.516,-38.391 c 15.828,10.078 39.828,17.281 62.859,17.281 41.266,0 47.516,-25.437 47.516,-40.796 l 0,-3.844 c -86.391,0.484 -138.688,-29.266 -138.688,-88.297 0,-35.5 26.391,-69.578 73.422,-69.578 30.235,0 54.703,12.953 69.094,31.187 l 1.438,0 3.843,-25.906 53.266,0 z m -60.938,82.063 c 0,-3.844 -0.484,-8.641 -1.921,-12.954 -5.282,-16.796 -22.563,-32.156 -46.079,-32.156 -18.703,0 -33.578,10.547 -33.578,33.594 0,35.5 39.828,44.625 81.578,43.656 l 0,-32.14" /><path
         id="path20"
         style="fill:#080828;fill-opacity:1;fill-rule:nonzero;stroke:none"
         d="m 1051.67,373 59.5,0 0,137.25 c 0,6.719 0.49,13.906 2.41,19.188 6.23,17.75 22.55,34.546 46.06,34.546 32.16,0 44.63,-25.421 44.63,-59.015 l 0,-131.969 59.03,0 0,138.688 c 0,73.89 -42.24,100.296 -83.02,100.296 -38.87,0 -64.31,-22.078 -74.39,-40.312 l -1.44,0 -2.87,35.031 -51.83,0 c 1.44,-20.156 1.92,-42.719 1.92,-69.594 l 0,-164.109" /><path
         id="path22"
         style="fill:#080828;fill-opacity:1;fill-rule:nonzero;stroke:none"
         d="m 1483.11,713.719 0,-132.453 -0.95,0 c -10.57,17.281 -33.6,30.718 -65.75,30.718 -56.14,0 -105.1,-46.546 -104.61,-124.781 0,-71.969 44.14,-119.484 99.81,-119.484 34.08,0 62.39,16.312 76.3,42.234 l 0.97,0 2.39,-36.953 52.79,0 c -0.97,15.828 -1.92,41.75 -1.92,65.75 l 0,274.969 -59.03,0 z m 0,-239.469 c 0,-6.234 -0.48,-12 -1.92,-17.266 -5.75,-25.437 -26.88,-41.75 -50.86,-41.75 -37.44,0 -58.55,31.188 -58.55,73.891 0,43.672 21.11,77.266 59.02,77.266 26.87,0 45.59,-18.719 50.87,-41.75 0.96,-4.797 1.44,-10.563 1.44,-15.36 l 0,-35.031" /><path
         id="path24"
         style="fill:#080828;fill-opacity:1;fill-rule:nonzero;stroke:none"
         d="m 1605.67,373 59.5,0 0,139.641 c 0,6.718 0.49,12.953 2.41,17.765 6.23,17.75 22.55,33.11 45.58,33.11 32.64,0 45.11,-25.438 45.11,-59.516 l 0,-131 59.03,0 0,137.719 c 0,74.859 -41.75,101.265 -81.58,101.265 -14.88,0 -28.8,-3.843 -40.31,-10.562 -12.47,-6.719 -22.08,-15.844 -29.27,-26.875 l -0.97,0 0,139.172 -59.5,0 0,-340.719" /><path
         id="path26"
         style="fill:#080828;fill-opacity:1;fill-rule:nonzero;stroke:none"
         d="m 2077.86,473.297 c 0.95,5.281 1.92,13.906 1.92,24.953 0,51.344 -24.95,113.734 -100.78,113.734 -74.86,0 -114.2,-60.953 -114.2,-125.734 0,-71.5 44.62,-118.047 120.45,-118.047 33.58,0 61.42,6.235 81.58,14.391 l -8.64,40.797 c -17.75,-6.719 -37.44,-10.563 -64.78,-10.563 -37.44,0 -70.55,18.235 -71.99,60.469 l 156.44,0 z m -156.44,41.266 c 2.39,24 17.75,57.109 54.22,57.109 39.36,0 48.95,-35.516 48.47,-57.109 l -102.69,0" /><path
         id="path28"
         style="fill:#080828;fill-opacity:1;fill-rule:nonzero;stroke:none"
         d="m 2127.67,373 59.5,0 0,340.719 -59.5,0 0,-340.719 z" /><path
         id="path30"
         style="fill:#080828;fill-opacity:1;fill-rule:nonzero;stroke:none"
         d="m 2407.11,713.719 0,-132.453 -0.95,0 c -10.57,17.281 -33.6,30.718 -65.75,30.718 -56.14,0 -105.1,-46.546 -104.61,-124.781 0,-71.969 44.14,-119.484 99.81,-119.484 34.08,0 62.39,16.312 76.3,42.234 l 0.97,0 2.39,-36.953 52.79,0 c -0.97,15.828 -1.92,41.75 -1.92,65.75 l 0,274.969 -59.03,0 z m 0,-239.469 c 0,-6.234 -0.48,-12 -1.92,-17.266 -5.75,-25.437 -26.88,-41.75 -50.86,-41.75 -37.44,0 -58.55,31.188 -58.55,73.891 0,43.672 21.11,77.266 59.02,77.266 26.87,0 45.59,-18.719 50.87,-41.75 0.96,-4.797 1.44,-10.563 1.44,-15.36 l 0,-35.031" /><path
         id="path32"
         style="fill:#ffffff;fill-opacity:1;fill-rule:evenodd;stroke:none"
         d="m 2067.75,2066.75 c 54.55,2.25 114.55,-20.19 138.52,-51.18 35.27,56.17 65.59,36.94 100.82,-2.71 35.39,-39.84 64.72,-30.67 80.29,20.46 8.3,27.35 14.96,55.2 24.87,92.07 -46.75,3.76 -87.37,9.45 -128,9.67 -49.2,0.29 -101.16,-15.05 -146.98,-3.71 -64.16,15.86 -67.12,-15.45 -69.52,-64.6 m -576.46,-174.63 c -45.75,-21.78 -72.5,-82.06 -136.84,-68.89 -4.27,0.88 -12.54,-7.56 -15.8,-13.44 -27.54,-49.35 -52.68,-100.06 -106.92,-128.04 -4.14,-2.13 -0.35,-31.76 7.52,-43.3 53.46,-78.15 136.45,-119.13 217.09,-159.66 60.59,-30.47 126.2,-54.64 192.27,-69.55 70.82,-15.97 104.73,10.55 127.25,78.71 6.25,18.99 11.62,38.32 16.95,57.6 11.14,40.24 -1.43,62.11 -45.88,66.06 -49.84,4.41 -99.32,13.28 -155.3,21.08 0,58.99 -0.29,115.24 0.1,171.49 0.29,41.27 7.4,86.53 -61.34,64.28 -9.44,-3.05 -25.75,15.17 -39.1,23.66 M 219.633,1394.71 c 2.082,180.21 87.601,341.3 222.66,467.9 41.211,38.63 85.48,74.77 131.93,106.86 111.531,77.04 136.273,188.5 143.023,314.68 4.359,81.71 29.789,162.32 46.359,243.31 0.797,3.87 7.379,6.46 11.079,9.83 17.031,15.56 38.312,28.44 50.32,47.23 104.199,163.06 215.406,147.68 375.646,130.86 70.19,-7.36 132.16,-31.66 184.28,-85.74 44.2,-45.85 101.84,-78.45 149.62,-121.26 16.27,-14.59 26.22,-41.67 29.4,-64.39 7.23,-51.47 52.45,-59.06 88.51,-84.75 -15.82,-10.11 -30.17,-19.31 -48.25,-30.84 13.93,-11.74 26.9,-22.67 48.4,-40.8 -37.25,-7.36 -66.18,-13.09 -98.59,-19.49 -5.37,-39.33 -11.18,-81.84 -18.32,-134.16 73.28,-2.36 144.32,-19.22 217.8,4.31 34.46,11.03 59.91,23.4 84.61,54.75 16.41,20.9 67.32,18.37 103.02,19.66 87.64,3.18 175.41,1.56 263.08,3.69 66.15,1.59 132.97,-6.94 195.26,31.6 19.53,12.08 53.96,3.6 80.84,-0.53 56.78,-8.75 113.08,-20.82 173.8,-32.34 l 0,-88.59 c -52.65,-2.36 -106.84,-14.6 -156.23,-4.12 -45.42,9.62 -50.58,-10.23 -57.63,-40.4 -5.78,-24.62 -10.7,-49.43 -19.84,-92.11 52.63,11.25 95.23,21.83 138.43,29.22 70.18,12.03 140.75,21.96 221.06,34.31 l 0,-421.03 c -105.9,14.63 -212.79,29.39 -324.08,44.77 -0.07,-73.78 -59.89,-64.55 -103.3,-72.52 -37.16,-6.83 -77,-6 -114.75,-1.17 -48.22,6.15 -76.47,-16.36 -96.91,-54.24 -28.61,-52.94 -56.16,-106.44 -83.09,-160.26 -62.36,-124.66 -113.79,-310.9 -147.14,-448.946 -846.68,0 -1357.294,-26.66 -1626.677,0 -89.48,8.848 -64.969,397.806 -64.32,454.706" /></g></g></svg>