<?xml version="1.0" encoding="UTF-8" standalone="no"?>
<svg
   xmlns:dc="http://purl.org/dc/elements/1.1/"
   xmlns:cc="http://creativecommons.org/ns#"
   xmlns:rdf="http://www.w3.org/1999/02/22-rdf-syntax-ns#"
   xmlns:svg="http://www.w3.org/2000/svg"
   xmlns="http://www.w3.org/2000/svg"
   viewBox="0 0 375 375"
   height="375"
   width="375"
   xml:space="preserve"
   version="1.1"
   id="svg2"><metadata
     id="metadata8"><rdf:RDF><cc:Work
         rdf:about=""><dc:format>image/svg+xml</dc:format><dc:type
           rdf:resource="http://purl.org/dc/dcmitype/StillImage" /></cc:Work></rdf:RDF></metadata><defs
     id="defs6" /><g
     transform="matrix(1.25,0,0,-1.25,0,375)"
     id="g10"><g
       transform="scale(0.1,0.1)"
       id="g12"><path
         id="path14"
         style="fill:#aebcc4;fill-opacity:1;fill-rule:nonzero;stroke:none"
         d="m 3000,529.855 c 0,-67.632 0,-529.85109375 -715,-529.85109375 l -1625,0 C 35,0.00390625 0,472.223 0,539.855 L 0,2399.86 c 0,545 592.352,600 660,600 l 1615,0.28 c 67.65,0 725,-0.28 725,-600.28" /><path
         id="path16"
         style="fill:#080828;fill-opacity:1;fill-rule:nonzero;stroke:none"
         d="M 376.719,567.703 445.813,334 501,334 l 29.766,95.016 c 6.703,23.031 12.953,46.062 17.75,74.859 l 0.953,0 c 5.281,-28.312 10.562,-50.391 17.765,-74.859 L 595.063,334 l 54.703,0 73.422,233.703 -58.063,0 -25.922,-103.656 c -6.234,-27.359 -11.515,-52.781 -15.344,-78.219 l -0.968,0 c -5.282,25.438 -11.516,50.86 -18.719,78.219 l -29.266,103.656 -47.984,0 -30.234,-106.531 c -6.719,-24 -14.391,-49.906 -19.204,-75.344 l -0.953,0 c -4.312,25.438 -9.593,50.86 -14.875,75.813 l -24.468,106.062 -60.469,0" /><path
         id="path18"
         style="fill:#080828;fill-opacity:1;fill-rule:nonzero;stroke:none"
         d="m 821.172,334 0,233.703 -59.5,0 0,-233.703 59.5,0 z m -29.75,331.109 c -19.672,0 -33.109,-13.906 -33.109,-32.14 0,-17.766 12.953,-31.672 32.625,-31.672 20.64,0 33.593,13.906 33.593,31.672 -0.468,18.234 -12.953,32.14 -33.109,32.14" /><path
         id="path20"
         style="fill:#080828;fill-opacity:1;fill-rule:nonzero;stroke:none"
         d="m 1040.11,674.719 0,-132.453 -0.95,0 c -10.57,17.281 -33.6,30.718 -65.754,30.718 -56.14,0 -105.093,-46.546 -104.609,-124.781 0,-71.969 44.141,-119.484 99.812,-119.484 34.081,0 62.391,16.312 76.301,42.234 l 0.97,0 2.39,-36.953 52.79,0 c -0.97,15.828 -1.92,41.75 -1.92,65.75 l 0,274.969 -59.03,0 z m 0,-239.469 c 0,-6.234 -0.48,-12 -1.92,-17.266 -5.75,-25.437 -26.88,-41.75 -50.862,-41.75 -37.437,0 -58.547,31.188 -58.547,73.891 0,43.672 21.11,77.266 59.016,77.266 26.873,0 45.593,-18.719 50.873,-41.75 0.96,-4.797 1.44,-10.563 1.44,-15.36 l 0,-35.031" /><path
         id="path22"
         style="fill:#080828;fill-opacity:1;fill-rule:nonzero;stroke:none"
         d="m 1360.86,434.297 c 0.95,5.281 1.92,13.906 1.92,24.953 0,51.344 -24.95,113.734 -100.78,113.734 -74.86,0 -114.2,-60.953 -114.2,-125.734 0,-71.5 44.62,-118.047 120.45,-118.047 33.58,0 61.42,6.235 81.58,14.391 l -8.64,40.797 c -17.75,-6.719 -37.44,-10.563 -64.78,-10.563 -37.44,0 -70.55,18.235 -71.99,60.469 l 156.44,0 z m -156.44,41.266 c 2.39,24 17.75,57.109 54.22,57.109 39.36,0 48.95,-35.516 48.47,-57.109 l -102.69,0" /><path
         id="path24"
         style="fill:#080828;fill-opacity:1;fill-rule:nonzero;stroke:none"
         d="m 1407.39,441.484 122.375,0 0,40.7969 -122.375,0 0,-40.7969 z" /><path
         id="path26"
         style="fill:#080828;fill-opacity:1;fill-rule:nonzero;stroke:none"
         d="m 1760.42,334 c -2.39,14.391 -3.36,35.031 -3.36,56.141 l 0,84.468 c 0,50.86 -21.59,98.375 -96.45,98.375 -36.95,0 -67.19,-10.078 -84.45,-20.64 l 11.51,-38.391 c 15.83,10.078 39.83,17.281 62.86,17.281 41.27,0 47.52,-25.437 47.52,-40.796 l 0,-3.844 c -86.39,0.484 -138.69,-29.266 -138.69,-88.297 0,-35.5 26.39,-69.578 73.42,-69.578 30.24,0 54.7,12.953 69.1,31.187 l 1.43,0 3.85,-25.906 53.26,0 z m -60.94,82.063 c 0,-3.844 -0.48,-8.641 -1.92,-12.954 -5.28,-16.796 -22.56,-32.156 -46.08,-32.156 -18.7,0 -33.57,10.547 -33.57,33.594 0,35.5 39.82,44.625 81.57,43.656 l 0,-32.14" /><path
         id="path28"
         style="fill:#080828;fill-opacity:1;fill-rule:nonzero;stroke:none"
         d="m 1819.67,334 59.5,0 0,137.25 c 0,6.719 0.49,13.906 2.41,19.188 6.23,17.75 22.55,34.546 46.06,34.546 32.16,0 44.63,-25.421 44.63,-59.015 l 0,-131.969 59.03,0 0,138.688 c 0,73.89 -42.24,100.296 -83.02,100.296 -38.87,0 -64.31,-22.078 -74.39,-40.312 l -1.44,0 -2.87,35.031 -51.83,0 c 1.44,-20.156 1.92,-42.719 1.92,-69.594 l 0,-164.109" /><path
         id="path30"
         style="fill:#080828;fill-opacity:1;fill-rule:nonzero;stroke:none"
         d="m 2255.88,567.703 -2.41,-31.203 -0.95,0 c -11.05,19.203 -32.16,36.484 -67.68,36.484 -56.14,0 -106.04,-46.546 -106.04,-123.328 0,-66.234 41.26,-114.218 99.33,-114.218 30.71,0 54.7,13.921 68.14,34.546 l 0.96,0 0,-20.156 c 0,-50.375 -28.79,-70.531 -67.18,-70.531 -28.32,0 -53.27,9.109 -68.14,17.75 l -12.96,-44.625 c 20.16,-12.484 51.83,-18.719 81.58,-18.719 32.16,0 65.74,6.719 90.22,28.313 24.47,22.078 34.55,57.109 34.55,106.062 l 0,132.438 c 0,32.156 0.95,51.343 1.92,67.187 l -51.34,0 z m -9.61,-131.484 c 0,-6.719 -0.96,-14.875 -2.39,-21.125 -6.72,-21.11 -25.93,-35.5 -47.99,-35.5 -36.95,0 -57.11,32.14 -57.11,71.969 0,47.515 24.47,76.312 57.58,76.312 24.95,0 41.75,-16.328 48,-37.922 1.44,-4.797 1.91,-10.547 1.91,-15.828 l 0,-37.906" /><path
         id="path32"
         style="fill:#080828;fill-opacity:1;fill-rule:nonzero;stroke:none"
         d="m 2369.67,334 59.5,0 0,340.719 -59.5,0 0,-340.719 z" /><path
         id="path34"
         style="fill:#080828;fill-opacity:1;fill-rule:nonzero;stroke:none"
         d="m 2690.86,434.297 c 0.95,5.281 1.92,13.906 1.92,24.953 0,51.344 -24.95,113.734 -100.78,113.734 -74.86,0 -114.2,-60.953 -114.2,-125.734 0,-71.5 44.62,-118.047 120.45,-118.047 33.58,0 61.42,6.235 81.58,14.391 l -8.64,40.797 c -17.75,-6.719 -37.44,-10.563 -64.78,-10.563 -37.44,0 -70.55,18.235 -71.99,60.469 l 156.44,0 z m -156.44,41.266 c 2.39,24 17.75,57.109 54.22,57.109 39.36,0 48.95,-35.516 48.47,-57.109 l -102.69,0" /><path
         id="path36"
         style="fill:#ffffff;fill-opacity:1;fill-rule:nonzero;stroke:none"
         d="m 942.508,1135.81 c -42.5,2.24 -84.988,4.74 -127.461,7.49 l 0,225.92 c -66.301,2.77 -132.57,5.95 -198.777,9.53 0,-73.56 0,-147.11 0,-220.67 -42.422,3.55 -84.813,7.36 -127.18,11.43 l 0,353.87 c 75.437,56.52 150.969,115.51 226.539,176.25 75.578,-62.17 151.211,-125.88 226.879,-190.42 l 0,-373.4 z m 157.102,383.97 c -46.47,39.69 -92.93,79.19 -139.372,118.33 l 0,191.65 c -33.172,-0.13 -66.351,-0.27 -99.511,-0.42 l 0,-107.95 c -48.387,40.19 -96.77,79.86 -145.118,118.83 -127.863,-104.84 -255.55,-205.21 -383.011,-297.64 20.039,-27.36 40.09,-54.99 60.14,-82.88 13.739,9.93 27.481,19.93 41.231,30.01 l 0,-371.26 c 187.558,-20.77 375.59,-36.05 563.84,-45.82 l 0,396.95 c 13.791,-11.81 27.581,-23.64 41.371,-35.49 20.14,28.42 40.28,56.99 60.43,85.69" /><path
         id="path38"
         style="fill:#ffffff;fill-opacity:1;fill-rule:nonzero;stroke:none"
         d="m 1726.05,1123.54 c -42.55,-0.91 -85.1,-1.56 -127.66,-1.96 l 0,233.63 c -66.43,-0.4 -132.85,-0.39 -199.3,0.01 l 0,-233.61 c -42.54,0.4 -85.09,1.06 -127.63,1.98 l 0,380.49 c 75.75,63.36 151.52,127.55 227.29,191.84 75.77,-64.29 151.55,-128.49 227.3,-191.87 l 0,-380.51 z m 157.18,395.99 c -46.46,38.36 -92.94,77.13 -139.43,116.17 l 0,194.91 c -33.21,0.06 -66.42,0.11 -99.64,0.14 l 0,-111.03 c -48.48,41 -96.95,82.16 -145.43,123.29 -128.18,-108.75 -256.37,-217.7 -384.48,-323.42 20.14,-29.32 40.29,-58.73 60.43,-88.18 13.8,11.4 27.62,22.84 41.43,34.31 0,-133.99 0,-267.97 0,-401.95 188.39,-5.53 376.89,-5.55 565.28,-0.08 0,133.99 0,267.98 0,401.97 13.81,-11.47 27.61,-22.9 41.41,-34.29 20.15,29.44 40.29,58.84 60.43,88.16" /><path
         id="path40"
         style="fill:#ffffff;fill-opacity:1;fill-rule:nonzero;stroke:none"
         d="m 2503.64,1165.12 c -42.37,-4.06 -84.76,-7.87 -127.18,-11.42 l 0,220.9 c -66.23,-3.59 -132.5,-6.77 -198.8,-9.54 l 0,-226.08 c -42.48,-2.74 -84.96,-5.23 -127.46,-7.45 l 0,373.62 c 75.68,64.58 151.32,128.35 226.89,190.6 75.59,-60.76 151.11,-119.79 226.55,-176.36 l 0,-354.27 z m 156.49,373.52 c -46.24,33.55 -92.52,68.15 -138.81,103.62 l 0,181.07 c -33.07,0.23 -66.16,0.44 -99.25,0.65 l 0,-104.41 c -48.32,38.2 -96.64,77.23 -145,116.89 -127.86,-103.18 -255.89,-211.24 -384,-320.7 20.14,-28.72 40.29,-57.32 60.43,-85.77 13.8,11.86 27.59,23.71 41.39,35.53 l 0,-397.18 c 188.27,9.68 376.31,24.9 563.88,45.65 l 0,371.68 c 13.73,-10.09 27.48,-20.1 41.21,-30.01 20.06,27.92 40.09,55.59 60.15,82.98" /><path
         id="path42"
         style="fill:none;stroke:#ffffff;stroke-width:20;stroke-linecap:butt;stroke-linejoin:miter;stroke-miterlimit:10;stroke-dasharray:none;stroke-opacity:1"
         d="m 310,2430 c 790.19,98.31 1589.81,98.31 2380,0" /><path
         id="path44"
         style="fill:none;stroke:#ffffff;stroke-width:20;stroke-linecap:butt;stroke-linejoin:miter;stroke-miterlimit:10;stroke-dasharray:none;stroke-opacity:1"
         d="M 319.961,1128.77 C 1106.91,1031.68 1903.13,1032.11 2690,1130" /><path
         id="path46"
         style="fill:none;stroke:#ffffff;stroke-width:20;stroke-linecap:butt;stroke-linejoin:miter;stroke-miterlimit:10;stroke-dasharray:none;stroke-opacity:1"
         d="m 319.961,2441.25 c 0,-440.84 0,-881.66 0,-1322.51" /><path
         id="path48"
         style="fill:none;stroke:#ffffff;stroke-width:20;stroke-linecap:butt;stroke-linejoin:miter;stroke-miterlimit:10;stroke-dasharray:none;stroke-opacity:1"
         d="m 2680.04,2441.25 0,-1312.48" /></g></g></svg>