<?xml version="1.0" encoding="UTF-8" standalone="no"?>
<svg
   xmlns:dc="http://purl.org/dc/elements/1.1/"
   xmlns:cc="http://creativecommons.org/ns#"
   xmlns:rdf="http://www.w3.org/1999/02/22-rdf-syntax-ns#"
   xmlns:svg="http://www.w3.org/2000/svg"
   xmlns="http://www.w3.org/2000/svg"
   viewBox="0 0 375 375"
   height="375"
   width="375"
   xml:space="preserve"
   version="1.1"
   id="svg2"><metadata
     id="metadata8"><rdf:RDF><cc:Work
         rdf:about=""><dc:format>image/svg+xml</dc:format><dc:type
           rdf:resource="http://purl.org/dc/dcmitype/StillImage" /></cc:Work></rdf:RDF></metadata><defs
     id="defs6" /><g
     transform="matrix(1.25,0,0,-1.25,0,375)"
     id="g10"><g
       transform="scale(0.1,0.1)"
       id="g12"><path
         id="path14"
         style="fill:#ce8e95;fill-opacity:1;fill-rule:nonzero;stroke:none"
         d="m 3000,529.785 c 0,-67.64 0,-529.78890625 -715,-529.78890625 l -1625,0 C 35,-0.00390625 0,472.145 0,539.785 L 0,2399.77 c 0,545 592.352,600 660,600 l 1615,0.3 c 67.65,0 725,-0.3 725,-600.3" /><path
         id="path16"
         style="fill:#26080d;fill-opacity:1;fill-rule:nonzero;stroke:none"
         d="m 217.422,412 0,189.547 47.5,0 0,44.156 -47.984,0 0,10.547 c 0,31.203 13.437,57.109 49.421,57.109 14.875,0 24.469,-1.921 30.719,-5.281 l 0,-296.078 59.5,0 0,328.234 c -21.109,11.516 -49.906,17.75 -81.094,17.75 -35.515,0 -61.906,-8.156 -82.546,-24.953 -22.547,-18.703 -34.547,-47.984 -34.547,-77.25 l 0,-10.078 -31.672,0 0,-44.156 31.672,0 0,-189.547 59.031,0" /><path
         id="path18"
         style="fill:#26080d;fill-opacity:1;fill-rule:nonzero;stroke:none"
         d="m 604.422,412 c -2.391,14.391 -3.359,35.031 -3.359,56.141 l 0,84.468 c 0,50.86 -21.594,98.375 -96.454,98.375 -36.953,0 -67.187,-10.078 -84.453,-20.64 l 11.516,-38.391 c 15.828,10.078 39.828,17.281 62.859,17.281 41.266,0 47.516,-25.437 47.516,-40.796 l 0,-3.844 c -86.391,0.484 -138.688,-29.266 -138.688,-88.297 0,-35.5 26.391,-69.578 73.422,-69.578 30.235,0 54.703,12.953 69.094,31.187 l 1.438,0 3.843,-25.906 53.266,0 z m -60.938,82.063 c 0,-3.844 -0.484,-8.641 -1.921,-12.954 -5.282,-16.796 -22.563,-32.156 -46.079,-32.156 -18.703,0 -33.578,10.547 -33.578,33.594 0,35.5 39.828,44.625 81.578,43.656 l 0,-32.14" /><path
         id="path20"
         style="fill:#26080d;fill-opacity:1;fill-rule:nonzero;stroke:none"
         d="m 649.281,423.516 c 17.266,-9.594 42.703,-16.313 71.016,-16.313 61.906,0 95.016,30.703 95.016,72.938 -0.485,34.547 -20.157,56.14 -62.391,71.5 -29.75,10.562 -40.781,17.765 -40.781,32.64 0,14.391 11.515,24.469 32.625,24.469 20.64,0 39.359,-7.672 49.437,-13.437 l 11.516,41.75 c -13.438,7.203 -36,13.921 -61.906,13.921 -54.235,0 -88.297,-32.156 -88.297,-73.421 -0.485,-27.36 18.718,-52.313 64.297,-68.141 28.796,-10.078 38.39,-18.25 38.39,-34.078 0,-15.36 -11.515,-25.906 -37.422,-25.906 -21.125,0 -46.547,8.625 -59.984,16.781 l -11.516,-42.703" /><path
         id="path22"
         style="fill:#26080d;fill-opacity:1;fill-rule:nonzero;stroke:none"
         d="m 863.672,412 59.5,0 0,139.641 c 0,6.718 0.484,12.953 2.406,17.765 6.235,17.75 22.547,33.11 45.578,33.11 32.644,0 45.114,-25.438 45.114,-59.516 l 0,-131 59.03,0 0,137.719 c 0,74.859 -41.75,101.265 -81.581,101.265 -14.875,0 -28.797,-3.843 -40.313,-10.562 -12.468,-6.719 -22.078,-15.844 -29.265,-26.875 l -0.969,0 0,139.172 -59.5,0 0,-340.719" /><path
         id="path24"
         style="fill:#26080d;fill-opacity:1;fill-rule:nonzero;stroke:none"
         d="m 1303.42,412 0,189.547 50.86,0 0,44.156 -51.34,0 0,12 c 0,28.781 10.08,53.266 39.34,53.266 10.56,0 18.72,-1.922 24.95,-4.328 l 4.33,45.593 c -9.61,3.36 -22.08,5.75 -37.92,5.75 -20.16,0 -43.66,-6.234 -60.94,-22.546 -20.15,-19.204 -28.31,-49.422 -28.31,-79.657 l 0,-10.078 -31.67,0 0,-44.156 31.67,0 0,-189.547 59.03,0" /><path
         id="path26"
         style="fill:#26080d;fill-opacity:1;fill-rule:nonzero;stroke:none"
         d="m 1491.72,650.984 c -70.53,0 -120.92,-47.031 -120.92,-123.812 0,-74.859 50.86,-120.453 117.09,-120.453 59.5,0 119.97,38.39 119.97,124.297 0,71.015 -46.55,119.968 -116.14,119.968 z m -1.44,-43.203 c 40.31,0 56.63,-41.734 56.63,-78.218 0,-47.016 -23.52,-80.125 -57.11,-80.125 -35.99,0 -58.07,34.062 -58.07,79.171 0,38.875 16.8,79.172 58.55,79.172" /><path
         id="path28"
         style="fill:#26080d;fill-opacity:1;fill-rule:nonzero;stroke:none"
         d="m 1656.67,412 59.03,0 0,120.922 c 0,6.719 0.96,12.969 1.91,18.234 5.28,26.407 24.48,44.641 52.8,44.641 7.18,0 12.47,-0.969 17.26,-1.922 l 0,55.656 c -4.79,0.969 -8.15,1.453 -13.9,1.453 -24.96,0 -52.32,-16.796 -63.83,-49.906 l -1.92,0 -1.93,44.625 -51.34,0 c 1.44,-21.125 1.92,-43.672 1.92,-75.344 l 0,-158.359" /><path
         id="path30"
         style="fill:#26080d;fill-opacity:1;fill-rule:nonzero;stroke:none"
         d="M 1812.72,645.703 1881.81,412 l 55.19,0 29.77,95.016 c 6.7,23.031 12.95,46.062 17.75,74.859 l 0.95,0 c 5.28,-28.312 10.56,-50.391 17.76,-74.859 l 27.83,-95.016 54.71,0 73.42,233.703 -58.06,0 -25.93,-103.656 c -6.23,-27.359 -11.51,-52.781 -15.34,-78.219 l -0.97,0 c -5.28,25.438 -11.51,50.86 -18.72,78.219 l -29.26,103.656 -47.99,0 -30.23,-106.531 c -6.72,-24 -14.39,-49.906 -19.21,-75.344 l -0.95,0 c -4.31,25.438 -9.59,50.86 -14.87,75.813 l -24.47,106.062 -60.47,0" /><path
         id="path32"
         style="fill:#26080d;fill-opacity:1;fill-rule:nonzero;stroke:none"
         d="m 2379.42,412 c -2.39,14.391 -3.36,35.031 -3.36,56.141 l 0,84.468 c 0,50.86 -21.59,98.375 -96.45,98.375 -36.95,0 -67.19,-10.078 -84.45,-20.64 l 11.51,-38.391 c 15.83,10.078 39.83,17.281 62.86,17.281 41.27,0 47.52,-25.437 47.52,-40.796 l 0,-3.844 c -86.39,0.484 -138.69,-29.266 -138.69,-88.297 0,-35.5 26.39,-69.578 73.42,-69.578 30.24,0 54.7,12.953 69.1,31.187 l 1.43,0 3.85,-25.906 53.26,0 z m -60.94,82.063 c 0,-3.844 -0.48,-8.641 -1.92,-12.954 -5.28,-16.796 -22.56,-32.156 -46.08,-32.156 -18.7,0 -33.57,10.547 -33.57,33.594 0,35.5 39.82,44.625 81.57,43.656 l 0,-32.14" /><path
         id="path34"
         style="fill:#26080d;fill-opacity:1;fill-rule:nonzero;stroke:none"
         d="m 2438.67,412 59.03,0 0,120.922 c 0,6.719 0.96,12.969 1.91,18.234 5.28,26.407 24.48,44.641 52.8,44.641 7.18,0 12.47,-0.969 17.26,-1.922 l 0,55.656 c -4.79,0.969 -8.15,1.453 -13.9,1.453 -24.96,0 -52.32,-16.796 -63.83,-49.906 l -1.92,0 -1.93,44.625 -51.34,0 c 1.44,-21.125 1.92,-43.672 1.92,-75.344 l 0,-158.359" /><path
         id="path36"
         style="fill:#26080d;fill-opacity:1;fill-rule:nonzero;stroke:none"
         d="m 2761.11,752.719 0,-132.453 -0.95,0 c -10.57,17.281 -33.6,30.718 -65.75,30.718 -56.14,0 -105.1,-46.546 -104.61,-124.781 0,-71.969 44.14,-119.484 99.81,-119.484 34.08,0 62.39,16.312 76.3,42.234 l 0.97,0 2.39,-36.953 52.79,0 c -0.97,15.828 -1.92,41.75 -1.92,65.75 l 0,274.969 -59.03,0 z m 0,-239.469 c 0,-6.234 -0.48,-12 -1.92,-17.266 -5.75,-25.437 -26.88,-41.75 -50.86,-41.75 -37.44,0 -58.55,31.188 -58.55,73.891 0,43.672 21.11,77.266 59.02,77.266 26.87,0 45.59,-18.719 50.87,-41.75 0.96,-4.797 1.44,-10.563 1.44,-15.36 l 0,-35.031" /><path
         id="path38"
         style="fill:none;stroke:#ffffff;stroke-width:30;stroke-linecap:butt;stroke-linejoin:miter;stroke-miterlimit:10;stroke-dasharray:none;stroke-opacity:1"
         d="m 2770,1385 -2520,0" /><path
         id="path40"
         style="fill:#ffffff;fill-opacity:1;fill-rule:nonzero;stroke:none"
         d="m 2497.5,1518.75 1.25,-265 333.75,132.5" /><path
         id="path42"
         style="fill:none;stroke:#ffffff;stroke-width:20;stroke-linecap:butt;stroke-linejoin:miter;stroke-miterlimit:10;stroke-dasharray:none;stroke-opacity:1"
         d="m 240,1500 0,-230" /><path
         id="path44"
         style="fill:none;stroke:#ffffff;stroke-width:20;stroke-linecap:butt;stroke-linejoin:miter;stroke-miterlimit:10;stroke-dasharray:none;stroke-opacity:1"
         d="m 860,1490 0,-230" /><path
         id="path46"
         style="fill:none;stroke:#ffffff;stroke-width:20;stroke-linecap:butt;stroke-linejoin:miter;stroke-miterlimit:10;stroke-dasharray:none;stroke-opacity:1"
         d="m 1490,1490 0,-230" /><path
         id="path48"
         style="fill:none;stroke:#ffffff;stroke-width:20;stroke-linecap:butt;stroke-linejoin:miter;stroke-miterlimit:10;stroke-dasharray:none;stroke-opacity:1"
         d="m 2110,1500 0,-230" /><path
         id="path50"
         style="fill:none;stroke:#c1272d;stroke-width:50;stroke-linecap:butt;stroke-linejoin:miter;stroke-miterlimit:10;stroke-dasharray:none;stroke-opacity:1"
         d="m 855,1630 0,880" /><path
         id="path52"
         style="fill:none;stroke:#c1272d;stroke-width:50;stroke-linecap:butt;stroke-linejoin:miter;stroke-miterlimit:10;stroke-dasharray:none;stroke-opacity:1"
         d="m 830,2495 1260,0" /><path
         id="path54"
         style="fill:none;stroke:#c1272d;stroke-width:50;stroke-linecap:butt;stroke-linejoin:miter;stroke-miterlimit:10;stroke-dasharray:none;stroke-opacity:1"
         d="m 2115,1630 0,890" /><path
         id="path56"
         style="fill:#c1272d;fill-opacity:1;fill-rule:nonzero;stroke:none"
         d="m 2002.97,1647.71 217.03,1.63 -106.29,-113.09" /></g></g></svg>