<?xml version="1.0" encoding="iso-8859-1"?>
<!-- Generator: Adobe Illustrator 16.0.3, SVG Export Plug-In . SVG Version: 6.00 Build 0)  -->
<!DOCTYPE svg PUBLIC "-//W3C//DTD SVG 1.1//EN" "http://www.w3.org/Graphics/SVG/1.1/DTD/svg11.dtd">
<svg version="1.1" id="Ebene_1" xmlns="http://www.w3.org/2000/svg" xmlns:xlink="http://www.w3.org/1999/xlink" x="0px" y="0px"
	 width="518px" height="518px" viewBox="0 0 518 518" style="enable-background:new 0 0 518 518;" xml:space="preserve">
<path style="fill-rule:evenodd;clip-rule:evenodd;fill:#7B74A8;" d="M518,512c0,3.313-2.017,6-4.505,6H4.505
	C2.018,518,0,515.313,0,512V6c0-3.313,2.017-6,4.504-6h508.99C515.983,0,518,2.687,518,6V512z"/>
<g>
	<g id="XMLID_1_">
		<g>
			<path style="fill:#7B74A8;" d="M419.679,200.93c0.57,87.61-71.08,160.28-160.37,160.66c-88.46,0.38-160.09-70.49-161.13-160.5
				c0.91-91.88,75.04-160.51,160.47-160.72C346.899,40.14,419.099,111.9,419.679,200.93z"/>
			<path style="fill:#FCFBFB;" d="M98.179,201.09c1.04,90.01,72.67,160.88,161.13,160.5c89.29-0.38,160.94-73.05,160.37-160.66
				c-0.58-89.03-72.779-160.79-161.03-160.56C173.219,40.58,99.089,109.21,98.179,201.09z M254.709,376.09
				c-94.72-2.21-173.28-81.439-170.77-179.76c2.41-94.42,80.57-170.87,175.1-170.34c96.51-0.58,177.17,79.81,175.04,178.93
				C432.039,300.08,352.519,378.37,254.709,376.09z"/>
		</g>
		<g>
		</g>
	</g>
</g>
<g>
	<rect x="-7.001" y="413" style="fill-rule:evenodd;clip-rule:evenodd;fill:none;" width="525.002" height="106"/>
	<path style="fill:#FFFFFF;" d="M107.783,441.345c0-1.563-0.549-2.767-1.648-3.613c-1.099-0.846-3.081-1.7-5.945-2.563
		c-2.865-0.862-5.144-1.822-6.836-2.881c-3.239-2.034-4.858-4.688-4.858-7.959c0-2.864,1.167-5.225,3.503-7.08
		c2.335-1.855,5.367-2.783,9.094-2.783c2.474,0,4.679,0.456,6.616,1.367c1.937,0.912,3.458,2.209,4.565,3.895
		c1.106,1.684,1.66,3.552,1.66,5.603h-6.152c0-1.855-0.582-3.308-1.746-4.358c-1.164-1.049-2.828-1.574-4.993-1.574
		c-2.019,0-3.585,0.432-4.7,1.294c-1.115,0.863-1.672,2.067-1.672,3.613c0,1.303,0.602,2.389,1.807,3.259
		c1.204,0.871,3.19,1.718,5.957,2.539c2.767,0.822,4.988,1.758,6.665,2.809c1.676,1.049,2.905,2.254,3.687,3.613
		c0.781,1.358,1.172,2.95,1.172,4.772c0,2.963-1.135,5.318-3.406,7.067c-2.271,1.75-5.351,2.625-9.241,2.625
		c-2.572,0-4.936-0.477-7.092-1.428c-2.157-0.953-3.833-2.267-5.029-3.943c-1.196-1.676-1.794-3.629-1.794-5.859h6.177
		c0,2.019,0.667,3.581,2.002,4.688c1.334,1.107,3.247,1.66,5.737,1.66c2.148,0,3.764-0.436,4.846-1.307
		C107.241,443.929,107.783,442.777,107.783,441.345z"/>
	<path style="fill:#FFFFFF;" d="M129.658,446.252c1.481,0,2.71-0.431,3.687-1.294c0.977-0.862,1.497-1.929,1.563-3.198h5.591
		c-0.065,1.645-0.578,3.178-1.538,4.602c-0.96,1.425-2.263,2.552-3.906,3.382c-1.644,0.83-3.418,1.245-5.322,1.245
		c-3.695,0-6.625-1.196-8.789-3.589c-2.165-2.393-3.247-5.696-3.247-9.912v-0.61c0-4.02,1.074-7.238,3.223-9.656
		c2.148-2.416,5.078-3.625,8.789-3.625c3.141,0,5.701,0.916,7.678,2.746c1.978,1.832,3.015,4.236,3.113,7.215h-5.591
		c-0.065-1.514-0.582-2.759-1.55-3.735c-0.969-0.977-2.202-1.465-3.699-1.465c-1.921,0-3.402,0.696-4.443,2.087
		c-1.042,1.393-1.571,3.504-1.587,6.336v0.952c0,2.865,0.517,5.001,1.55,6.409C126.211,445.548,127.705,446.252,129.658,446.252z"/>
	<path style="fill:#FFFFFF;" d="M150.825,426.965c1.937-2.246,4.386-3.369,7.349-3.369c5.631,0,8.488,3.215,8.569,9.644V450.5
		h-5.933v-17.041c0-1.822-0.395-3.113-1.184-3.869c-0.79-0.758-1.949-1.136-3.479-1.136c-2.376,0-4.15,1.059-5.322,3.174V450.5
		h-5.933V413h5.933V426.965z"/>
	<path style="fill:#FFFFFF;" d="M178.242,424.084l0.171,3.052c1.953-2.359,4.517-3.54,7.69-3.54c5.501,0,8.301,3.149,8.398,9.448
		V450.5h-5.933v-17.114c0-1.676-0.362-2.917-1.086-3.724c-0.725-0.805-1.909-1.208-3.552-1.208c-2.393,0-4.175,1.083-5.347,3.247
		V450.5h-5.933v-26.416H178.242z"/>
	<path style="fill:#FFFFFF;" d="M212.177,450.988c-3.76,0-6.808-1.184-9.143-3.553c-2.336-2.367-3.503-5.521-3.503-9.46v-0.732
		c0-2.637,0.508-4.993,1.526-7.067c1.017-2.076,2.445-3.69,4.285-4.847c1.839-1.155,3.89-1.733,6.152-1.733
		c3.597,0,6.376,1.147,8.337,3.442c1.961,2.295,2.942,5.542,2.942,9.741v2.393h-17.261c0.179,2.182,0.907,3.906,2.185,5.176
		c1.277,1.27,2.885,1.904,4.822,1.904c2.718,0,4.932-1.099,6.641-3.296l3.198,3.052c-1.058,1.579-2.47,2.804-4.236,3.674
		C216.356,450.553,214.375,450.988,212.177,450.988z M211.469,428.356c-1.628,0-2.942,0.57-3.943,1.709
		c-1.001,1.14-1.64,2.727-1.917,4.761h11.304v-0.439c-0.13-1.985-0.659-3.487-1.587-4.504
		C214.399,428.865,213.113,428.356,211.469,428.356z"/>
	<path style="fill:#FFFFFF;" d="M233.686,450.5h-5.933V413h5.933V450.5z"/>
	<path style="fill:#FFFFFF;" d="M246.455,450.5h-5.933V413h5.933V450.5z"/>
	<path style="fill:#FFFFFF;" d="M267.719,443.322c0-1.058-0.436-1.863-1.306-2.417c-0.871-0.553-2.315-1.041-4.333-1.465
		c-2.019-0.423-3.703-0.96-5.054-1.611c-2.962-1.432-4.443-3.507-4.443-6.226c0-2.278,0.96-4.183,2.881-5.713
		c1.92-1.529,4.362-2.295,7.324-2.295c3.157,0,5.708,0.781,7.654,2.344c1.945,1.563,2.917,3.589,2.917,6.079h-5.933
		c0-1.139-0.423-2.087-1.27-2.845c-0.847-0.756-1.97-1.135-3.369-1.135c-1.302,0-2.364,0.302-3.186,0.903
		c-0.822,0.603-1.233,1.408-1.233,2.417c0,0.912,0.382,1.62,1.147,2.124c0.765,0.505,2.311,1.013,4.639,1.526
		c2.327,0.512,4.154,1.123,5.481,1.83c1.326,0.709,2.311,1.56,2.954,2.552c0.643,0.993,0.964,2.197,0.964,3.613
		c0,2.377-0.985,4.301-2.954,5.774c-1.97,1.473-4.549,2.209-7.739,2.209c-2.165,0-4.094-0.391-5.786-1.172
		c-1.693-0.781-3.011-1.855-3.955-3.223c-0.944-1.367-1.416-2.84-1.416-4.419h5.762c0.081,1.4,0.61,2.478,1.587,3.235
		c0.977,0.756,2.271,1.135,3.882,1.135c1.563,0,2.75-0.297,3.564-0.891C267.312,445.06,267.719,444.283,267.719,443.322z"/>
	<path style="fill:#FFFFFF;" d="M289.57,446.252c1.481,0,2.71-0.431,3.687-1.294c0.977-0.862,1.497-1.929,1.563-3.198h5.591
		c-0.065,1.645-0.578,3.178-1.538,4.602c-0.96,1.425-2.263,2.552-3.906,3.382c-1.644,0.83-3.418,1.245-5.322,1.245
		c-3.695,0-6.625-1.196-8.789-3.589c-2.165-2.393-3.247-5.696-3.247-9.912v-0.61c0-4.02,1.074-7.238,3.223-9.656
		c2.148-2.416,5.078-3.625,8.789-3.625c3.141,0,5.701,0.916,7.678,2.746c1.978,1.832,3.015,4.236,3.113,7.215h-5.591
		c-0.065-1.514-0.582-2.759-1.55-3.735c-0.969-0.977-2.202-1.465-3.699-1.465c-1.921,0-3.402,0.696-4.443,2.087
		c-1.042,1.393-1.571,3.504-1.587,6.336v0.952c0,2.865,0.517,5.001,1.55,6.409C286.123,445.548,287.617,446.252,289.57,446.252z"/>
	<path style="fill:#FFFFFF;" d="M310.737,426.965c1.937-2.246,4.386-3.369,7.349-3.369c5.631,0,8.488,3.215,8.57,9.644V450.5h-5.933
		v-17.041c0-1.822-0.395-3.113-1.184-3.869c-0.79-0.758-1.949-1.136-3.479-1.136c-2.376,0-4.15,1.059-5.322,3.174V450.5h-5.933V413
		h5.933V426.965z"/>
	<path style="fill:#FFFFFF;" d="M348.652,447.912c-1.742,2.051-4.217,3.076-7.422,3.076c-2.865,0-5.033-0.838-6.506-2.515
		c-1.475-1.676-2.211-4.102-2.211-7.275v-17.114h5.934v17.041c0,3.354,1.391,5.029,4.174,5.029c2.881,0,4.826-1.033,5.836-3.101
		v-18.97h5.932V450.5h-5.59L348.652,447.912z"/>
	<path style="fill:#FFFFFF;" d="M375.239,443.322c0-1.058-0.436-1.863-1.306-2.417c-0.871-0.553-2.316-1.041-4.334-1.465
		c-2.019-0.423-3.703-0.96-5.054-1.611c-2.963-1.432-4.443-3.507-4.443-6.226c0-2.278,0.96-4.183,2.881-5.713
		c1.92-1.529,4.361-2.295,7.324-2.295c3.157,0,5.709,0.781,7.653,2.344c1.945,1.563,2.918,3.589,2.918,6.079h-5.933
		c0-1.139-0.424-2.087-1.27-2.845c-0.847-0.756-1.97-1.135-3.369-1.135c-1.303,0-2.364,0.302-3.187,0.903
		c-0.821,0.603-1.232,1.408-1.232,2.417c0,0.912,0.382,1.62,1.147,2.124c0.765,0.505,2.311,1.013,4.639,1.526
		c2.327,0.512,4.154,1.123,5.481,1.83c1.326,0.709,2.311,1.56,2.953,2.552c0.644,0.993,0.965,2.197,0.965,3.613
		c0,2.377-0.985,4.301-2.954,5.774c-1.97,1.473-4.55,2.209-7.739,2.209c-2.165,0-4.094-0.391-5.786-1.172
		c-1.693-0.781-3.012-1.855-3.955-3.223c-0.944-1.367-1.416-2.84-1.416-4.419h5.762c0.081,1.4,0.61,2.478,1.587,3.235
		c0.977,0.756,2.271,1.135,3.882,1.135c1.563,0,2.75-0.297,3.564-0.891C374.832,445.06,375.239,444.283,375.239,443.322z"/>
	<path style="fill:#FFFFFF;" d="M401.045,443.322c0-1.058-0.436-1.863-1.306-2.417c-0.871-0.553-2.316-1.041-4.334-1.465
		c-2.019-0.423-3.703-0.96-5.054-1.611c-2.963-1.432-4.443-3.507-4.443-6.226c0-2.278,0.96-4.183,2.881-5.713
		c1.92-1.529,4.361-2.295,7.324-2.295c3.157,0,5.709,0.781,7.653,2.344c1.945,1.563,2.918,3.589,2.918,6.079h-5.933
		c0-1.139-0.424-2.087-1.27-2.845c-0.847-0.756-1.97-1.135-3.369-1.135c-1.303,0-2.364,0.302-3.187,0.903
		c-0.821,0.603-1.232,1.408-1.232,2.417c0,0.912,0.382,1.62,1.147,2.124c0.765,0.505,2.311,1.013,4.639,1.526
		c2.327,0.512,4.154,1.123,5.481,1.83c1.326,0.709,2.311,1.56,2.953,2.552c0.644,0.993,0.965,2.197,0.965,3.613
		c0,2.377-0.985,4.301-2.954,5.774c-1.97,1.473-4.55,2.209-7.739,2.209c-2.165,0-4.094-0.391-5.786-1.172
		c-1.693-0.781-3.012-1.855-3.955-3.223c-0.944-1.367-1.416-2.84-1.416-4.419h5.762c0.081,1.4,0.61,2.478,1.587,3.235
		c0.977,0.756,2.271,1.135,3.882,1.135c1.563,0,2.75-0.297,3.564-0.891C400.638,445.06,401.045,444.283,401.045,443.322z"/>
	<path style="fill:#FFFFFF;" d="M423.555,437.78h-12.817v-4.785h12.817V437.78z"/>
	<path style="fill:#FFFFFF;" d="M81.733,493.345c0-1.563-0.549-2.767-1.648-3.613c-1.099-0.846-3.081-1.7-5.945-2.563
		c-2.865-0.862-5.144-1.822-6.836-2.881c-3.239-2.034-4.858-4.688-4.858-7.959c0-2.864,1.167-5.225,3.503-7.08
		c2.335-1.855,5.367-2.783,9.094-2.783c2.474,0,4.679,0.456,6.616,1.367c1.937,0.912,3.458,2.209,4.565,3.895
		c1.106,1.684,1.66,3.552,1.66,5.603h-6.152c0-1.855-0.582-3.308-1.746-4.358c-1.164-1.049-2.828-1.574-4.993-1.574
		c-2.019,0-3.585,0.432-4.7,1.294c-1.115,0.863-1.672,2.067-1.672,3.613c0,1.303,0.602,2.389,1.807,3.259
		c1.204,0.871,3.19,1.718,5.957,2.539c2.767,0.822,4.988,1.758,6.665,2.809c1.676,1.049,2.905,2.254,3.687,3.613
		c0.781,1.358,1.172,2.95,1.172,4.772c0,2.963-1.135,5.318-3.406,7.067c-2.271,1.75-5.351,2.625-9.241,2.625
		c-2.572,0-4.936-0.477-7.092-1.428c-2.157-0.953-3.833-2.267-5.029-3.943c-1.196-1.676-1.794-3.629-1.794-5.859h6.177
		c0,2.019,0.667,3.581,2.002,4.688c1.334,1.107,3.247,1.66,5.737,1.66c2.148,0,3.764-0.436,4.846-1.307
		C81.191,495.929,81.733,494.777,81.733,493.345z"/>
	<path style="fill:#FFFFFF;" d="M103.608,498.252c1.481,0,2.71-0.431,3.687-1.294c0.977-0.862,1.497-1.929,1.563-3.198h5.591
		c-0.065,1.645-0.578,3.178-1.538,4.602c-0.96,1.425-2.263,2.552-3.906,3.382c-1.644,0.83-3.418,1.245-5.322,1.245
		c-3.695,0-6.625-1.196-8.789-3.589c-2.165-2.393-3.247-5.696-3.247-9.912v-0.61c0-4.02,1.074-7.238,3.223-9.656
		c2.148-2.416,5.078-3.625,8.789-3.625c3.141,0,5.701,0.916,7.678,2.746c1.978,1.832,3.015,4.236,3.113,7.215h-5.591
		c-0.065-1.514-0.582-2.759-1.55-3.735c-0.969-0.977-2.202-1.465-3.699-1.465c-1.921,0-3.402,0.696-4.443,2.087
		c-1.042,1.393-1.571,3.504-1.587,6.336v0.952c0,2.865,0.517,5.001,1.55,6.409C100.161,497.548,101.655,498.252,103.608,498.252z"/>
	<path style="fill:#FFFFFF;" d="M124.775,478.965c1.937-2.246,4.386-3.369,7.349-3.369c5.631,0,8.488,3.215,8.569,9.644V502.5
		h-5.933v-17.041c0-1.822-0.395-3.113-1.184-3.869c-0.79-0.758-1.949-1.136-3.479-1.136c-2.376,0-4.15,1.059-5.322,3.174V502.5
		h-5.933V465h5.933V478.965z"/>
	<path style="fill:#FFFFFF;" d="M152.998,502.5h-5.933V465h5.933V502.5z"/>
	<path style="fill:#FFFFFF;" d="M175.458,499.912c-1.742,2.051-4.216,3.076-7.422,3.076c-2.865,0-5.034-0.838-6.506-2.515
		c-1.473-1.676-2.209-4.102-2.209-7.275v-17.114h5.933v17.041c0,3.354,1.392,5.029,4.175,5.029c2.881,0,4.826-1.033,5.835-3.101
		v-18.97h5.933V502.5h-5.591L175.458,499.912z"/>
	<path style="fill:#FFFFFF;" d="M202.045,495.322c0-1.058-0.436-1.863-1.306-2.417c-0.871-0.553-2.315-1.041-4.333-1.465
		c-2.019-0.423-3.703-0.96-5.054-1.611c-2.962-1.432-4.443-3.507-4.443-6.226c0-2.278,0.96-4.183,2.881-5.713
		c1.92-1.529,4.362-2.295,7.324-2.295c3.157,0,5.708,0.781,7.654,2.344c1.945,1.563,2.917,3.589,2.917,6.079h-5.933
		c0-1.139-0.423-2.087-1.27-2.845c-0.847-0.756-1.97-1.135-3.369-1.135c-1.302,0-2.364,0.302-3.186,0.903
		c-0.822,0.603-1.233,1.408-1.233,2.417c0,0.912,0.382,1.62,1.147,2.124c0.765,0.505,2.311,1.013,4.639,1.526
		c2.327,0.512,4.154,1.123,5.481,1.83c1.326,0.709,2.311,1.56,2.954,2.552c0.643,0.993,0.964,2.197,0.964,3.613
		c0,2.377-0.985,4.301-2.954,5.774c-1.97,1.473-4.549,2.209-7.739,2.209c-2.165,0-4.094-0.391-5.786-1.172
		c-1.693-0.781-3.011-1.855-3.955-3.223c-0.944-1.367-1.416-2.84-1.416-4.419h5.762c0.081,1.4,0.61,2.478,1.587,3.235
		c0.977,0.756,2.271,1.135,3.882,1.135c1.563,0,2.75-0.297,3.564-0.891C201.638,497.06,202.045,496.283,202.045,495.322z"/>
	<path style="fill:#FFFFFF;" d="M227.851,495.322c0-1.058-0.436-1.863-1.306-2.417c-0.871-0.553-2.315-1.041-4.333-1.465
		c-2.019-0.423-3.703-0.96-5.054-1.611c-2.962-1.432-4.443-3.507-4.443-6.226c0-2.278,0.96-4.183,2.881-5.713
		c1.92-1.529,4.362-2.295,7.324-2.295c3.157,0,5.708,0.781,7.654,2.344c1.945,1.563,2.917,3.589,2.917,6.079h-5.933
		c0-1.139-0.423-2.087-1.27-2.845c-0.847-0.756-1.97-1.135-3.369-1.135c-1.302,0-2.364,0.302-3.186,0.903
		c-0.822,0.603-1.233,1.408-1.233,2.417c0,0.912,0.382,1.62,1.147,2.124c0.765,0.505,2.311,1.013,4.639,1.526
		c2.327,0.512,4.154,1.123,5.481,1.83c1.326,0.709,2.311,1.56,2.954,2.552c0.643,0.993,0.964,2.197,0.964,3.613
		c0,2.377-0.985,4.301-2.954,5.774c-1.97,1.473-4.549,2.209-7.739,2.209c-2.165,0-4.094-0.391-5.786-1.172
		c-1.693-0.781-3.011-1.855-3.955-3.223c-0.944-1.367-1.416-2.84-1.416-4.419h5.762c0.081,1.4,0.61,2.478,1.587,3.235
		c0.977,0.756,2.271,1.135,3.882,1.135c1.563,0,2.75-0.297,3.564-0.891C227.444,497.06,227.851,496.283,227.851,495.322z"/>
	<path style="fill:#FFFFFF;" d="M240.937,502.5v-22.021h-4.028v-4.395h4.028v-2.417c0-2.93,0.813-5.191,2.441-6.787
		c1.627-1.595,3.906-2.393,6.836-2.393c1.042,0,2.148,0.146,3.32,0.439l-0.146,4.639c-0.651-0.13-1.408-0.195-2.271-0.195
		c-2.832,0-4.248,1.457-4.248,4.37v2.344h5.371v4.395h-5.371V502.5H240.937z"/>
	<path style="fill:#FFFFFF;" d="M255.463,489.048c0-2.588,0.513-4.919,1.538-6.995c1.025-2.074,2.466-3.67,4.321-4.785
		c1.855-1.114,3.987-1.672,6.396-1.672c3.564,0,6.458,1.147,8.679,3.442s3.422,5.339,3.601,9.131l0.024,1.392
		c0,2.604-0.5,4.932-1.501,6.982s-2.434,3.638-4.297,4.761c-1.864,1.123-4.016,1.685-6.458,1.685c-3.728,0-6.71-1.241-8.948-3.723
		c-2.238-2.482-3.357-5.79-3.357-9.925V489.048z M261.396,489.561c0,2.719,0.562,4.846,1.685,6.385
		c1.123,1.537,2.686,2.307,4.688,2.307s3.56-0.781,4.675-2.344c1.115-1.563,1.672-3.849,1.672-6.86c0-2.669-0.574-4.785-1.721-6.348
		s-2.706-2.344-4.675-2.344c-1.937,0-3.475,0.769-4.614,2.308C261.965,484.201,261.396,486.501,261.396,489.561z"/>
	<path style="fill:#FFFFFF;" d="M291.352,502.5h-5.933V465h5.933V502.5z"/>
	<path style="fill:#FFFFFF;" d="M296.772,489.097c0-4.102,0.964-7.377,2.893-9.827c1.929-2.449,4.488-3.674,7.678-3.674
		c3.011,0,5.379,1.05,7.104,3.149l0.269-2.661h5.347v25.61c0,3.467-1.079,6.201-3.235,8.203c-2.157,2.002-5.066,3.003-8.728,3.003
		c-1.937,0-3.829-0.402-5.676-1.209c-1.848-0.805-3.251-1.859-4.211-3.161l2.808-3.564c1.823,2.164,4.069,3.247,6.738,3.247
		c1.969,0,3.523-0.533,4.663-1.6c1.139-1.065,1.709-2.633,1.709-4.699v-1.782c-1.709,1.904-3.988,2.856-6.836,2.856
		c-3.093,0-5.62-1.229-7.581-3.687C297.752,496.845,296.772,493.442,296.772,489.097z M302.68,489.609
		c0,2.653,0.541,4.74,1.624,6.262c1.082,1.522,2.583,2.283,4.504,2.283c2.393,0,4.167-1.025,5.322-3.076v-11.621
		c-1.123-2.002-2.881-3.003-5.273-3.003c-1.953,0-3.471,0.773-4.553,2.319C303.221,484.32,302.68,486.599,302.68,489.609z"/>
	<path style="fill:#FFFFFF;" d="M337.787,502.988c-3.76,0-6.807-1.184-9.143-3.553c-2.336-2.367-3.503-5.521-3.503-9.46v-0.732
		c0-2.637,0.508-4.993,1.525-7.067c1.018-2.076,2.445-3.69,4.284-4.847c1.84-1.155,3.891-1.733,6.152-1.733
		c3.598,0,6.377,1.147,8.338,3.442s2.941,5.542,2.941,9.741v2.393h-17.26c0.178,2.182,0.906,3.906,2.186,5.176
		c1.277,1.27,2.883,1.904,4.82,1.904c2.719,0,4.932-1.099,6.641-3.296l3.199,3.052c-1.059,1.579-2.471,2.804-4.236,3.674
		C341.967,502.553,339.984,502.988,337.787,502.988z M337.08,480.356c-1.629,0-2.941,0.57-3.943,1.709
		c-1,1.14-1.641,2.727-1.916,4.761h11.303v-0.439c-0.131-1.985-0.658-3.487-1.586-4.504
		C340.01,480.865,338.723,480.356,337.08,480.356z"/>
	<path style="fill:#FFFFFF;" d="M366.815,481.504c-0.781-0.13-1.587-0.195-2.417-0.195c-2.719,0-4.55,1.042-5.493,3.125V502.5
		h-5.933v-26.416h5.664l0.146,2.954c1.432-2.295,3.418-3.442,5.957-3.442c0.846,0,1.546,0.114,2.1,0.342L366.815,481.504z"/>
	<path style="fill:#FFFFFF;" d="M386.566,499.912c-1.742,2.051-4.216,3.076-7.422,3.076c-2.865,0-5.033-0.838-6.506-2.515
		c-1.474-1.676-2.21-4.102-2.21-7.275v-17.114h5.933v17.041c0,3.354,1.392,5.029,4.175,5.029c2.881,0,4.825-1.033,5.835-3.101
		v-18.97h5.933V502.5h-5.591L386.566,499.912z"/>
	<path style="fill:#FFFFFF;" d="M403.852,476.084l0.171,3.052c1.953-2.359,4.517-3.54,7.69-3.54c5.501,0,8.301,3.149,8.398,9.448
		V502.5h-5.933v-17.114c0-1.676-0.362-2.917-1.087-3.724c-0.724-0.805-1.908-1.208-3.552-1.208c-2.393,0-4.175,1.083-5.347,3.247
		V502.5h-5.933v-26.416H403.852z"/>
	<path style="fill:#FFFFFF;" d="M425.116,489.097c0-4.102,0.965-7.377,2.893-9.827c1.93-2.449,4.488-3.674,7.679-3.674
		c3.011,0,5.379,1.05,7.104,3.149l0.269-2.661h5.347v25.61c0,3.467-1.078,6.201-3.234,8.203c-2.157,2.002-5.066,3.003-8.729,3.003
		c-1.938,0-3.829-0.402-5.676-1.209c-1.848-0.805-3.252-1.859-4.212-3.161l2.808-3.564c1.822,2.164,4.068,3.247,6.738,3.247
		c1.969,0,3.523-0.533,4.663-1.6c1.139-1.065,1.709-2.633,1.709-4.699v-1.782c-1.709,1.904-3.988,2.856-6.836,2.856
		c-3.093,0-5.619-1.229-7.581-3.687C426.097,496.845,425.116,493.442,425.116,489.097z M431.024,489.609
		c0,2.653,0.541,4.74,1.623,6.262c1.083,1.522,2.584,2.283,4.505,2.283c2.393,0,4.166-1.025,5.322-3.076v-11.621
		c-1.123-2.002-2.881-3.003-5.273-3.003c-1.953,0-3.471,0.773-4.554,2.319C431.565,484.32,431.024,486.599,431.024,489.609z"/>
</g>
<g>
	<path style="fill-rule:evenodd;clip-rule:evenodd;fill:#F7F6F9;" d="M377.184,202.182c-0.126,24.276-19.748,43.748-44.022,43.685
		c-24.122-0.063-43.943-20.056-43.699-44.076c0.249-24.513,19.993-43.841,44.597-43.656
		C357.903,158.313,377.308,178.132,377.184,202.182z M333.37,240.407c20.998,0.032,38.502-17.52,38.432-38.54
		c-0.069-20.861-17.204-38.04-38.182-38.281c-20.988-0.24-38.563,17.193-38.6,38.289
		C294.984,223.041,312.235,240.375,333.37,240.407z"/>
	<path style="fill-rule:evenodd;clip-rule:evenodd;fill:#F7F6F9;" d="M146.807,202.049c-0.031-24.271,19.526-43.894,43.769-43.915
		c24.211-0.021,44.023,19.715,43.962,43.795c-0.061,24.286-19.646,43.915-43.839,43.937
		C166.439,245.888,146.838,226.32,146.807,202.049z M189.973,240.393c20.162,0.622,38.287-16.278,38.997-36.363
		c0.781-22.083-16.008-39.979-37.934-40.438c-20.416-0.426-38.074,16.451-38.837,37.118
		C151.417,221.872,168.414,239.727,189.973,240.393z"/>
	<path style="fill-rule:evenodd;clip-rule:evenodd;fill:#FEFEFE;" d="M277.956,193.187c0,1.939,0,3.553,0,5.49
		c-10.202,0-20.272,0-30.725,0c0-1.697,0-3.414,0-5.49C257.257,193.187,267.319,193.187,277.956,193.187z"/>
	<path style="fill-rule:evenodd;clip-rule:evenodd;fill:#FEFEFE;" d="M278.163,210.943c-2.013,0.097-3.318,0.211-4.624,0.213
		c-8.633,0.017-17.267,0.009-26.417,0.009c-0.101-2.025-0.187-3.753-0.29-5.83c10.38,0,20.451,0,31.063,0
		C277.975,206.981,278.057,208.698,278.163,210.943z"/>
	<path style="fill-rule:evenodd;clip-rule:evenodd;fill:#F2F1F5;" d="M318.843,181.059c8.256,0,16.246-0.611,24.095,0.185
		c6.819,0.692,9.899,9.894,5.911,15.862c-0.822,1.229-1.943,2.257-3.076,3.547c4.454,2.452,6.855,6.026,6.47,11.318
		c-0.413,5.674-3.96,10.6-9.646,11.023c-7.736,0.576-15.547,0.144-23.754,0.144C318.843,209.178,318.843,195.291,318.843,181.059z
		 M324.441,218.215c5.494,0,10.478,0.262,15.42-0.08c4.19-0.289,6.272-2.926,6.344-6.935c0.069-3.953-2.009-6.648-6.276-6.957
		c-5.067-0.367-10.182-0.086-15.487-0.086C324.441,208.98,324.441,213.242,324.441,218.215z M324.475,199.265
		c5.51-0.381,10.614-0.477,15.636-1.172c3.304-0.458,4.367-3.169,4.291-6.335c-0.074-3.058-1.506-5.415-4.508-5.633
		c-5.031-0.365-10.109-0.1-15.419-0.1C324.475,190.318,324.475,194.237,324.475,199.265z"/>
	<path style="fill-rule:evenodd;clip-rule:evenodd;fill:#F8F7FA;" d="M210.557,220.907c-2.512,0-4.284,0-6.454,0
		c-1.57-4.015-3.183-8.138-4.975-12.718c-2.814,0-5.605,0-8.396,0c-2.82,0-5.641,0-8.907,0c-1.662,4.153-3.307,8.268-5.069,12.671
		c-1.697,0-3.445,0-6.008,0c5.539-14.28,10.955-28.247,16.452-42.42c2.247,0,4.346,0,6.782,0
		C199.427,192.394,204.897,206.408,210.557,220.907z M190.931,185.033c-0.297,0.02-0.593,0.038-0.89,0.058
		c-2.087,5.806-4.173,11.61-6.332,17.615c4.812,0,8.939,0,13.544,0C195.013,196.443,192.972,190.738,190.931,185.033z"/>
</g>
</svg>
