<?xml version="1.0" encoding="iso-8859-1"?>
<!-- Generator: Adobe Illustrator 16.0.3, SVG Export Plug-In . SVG Version: 6.00 Build 0)  -->
<!DOCTYPE svg PUBLIC "-//W3C//DTD SVG 1.1//EN" "http://www.w3.org/Graphics/SVG/1.1/DTD/svg11.dtd">
<svg version="1.1"
	 id="Ebene_1" xmlns:dc="http://purl.org/dc/elements/1.1/" xmlns:inkscape="http://www.inkscape.org/namespaces/inkscape" xmlns:sodipodi="http://sodipodi.sourceforge.net/DTD/sodipodi-0.dtd" xmlns:svg="http://www.w3.org/2000/svg" xmlns:rdf="http://www.w3.org/1999/02/22-rdf-syntax-ns#" xmlns:cc="http://creativecommons.org/ns#" sodipodi:docname="visual_qr_designargument_de.svg" inkscape:version="0.92.4 (5da689c313, 2019-01-14)"
	 xmlns="http://www.w3.org/2000/svg" xmlns:xlink="http://www.w3.org/1999/xlink" x="0px" y="0px" width="60px" height="60px"
	 viewBox="0 0 60 60" style="enable-background:new 0 0 60 60;" xml:space="preserve">
<rect id="rect2" style="fill:#A0B983;" width="60" height="60"/>
<g>
	<rect y="45.334" style="fill:none;" width="60.166" height="18"/>
	<path style="fill:#FFFFFF;" d="M18.645,50.584v-4.977h1.47c0.439,0,0.83,0.098,1.171,0.294s0.604,0.474,0.791,0.834
		s0.28,0.772,0.28,1.237v0.25c0,0.471-0.094,0.886-0.282,1.244c-0.188,0.357-0.455,0.633-0.803,0.826
		c-0.348,0.194-0.746,0.291-1.195,0.291H18.645z M19.51,46.305v3.589h0.563c0.453,0,0.802-0.142,1.044-0.426
		c0.243-0.283,0.366-0.69,0.371-1.222v-0.277c0-0.539-0.117-0.952-0.352-1.236c-0.235-0.285-0.576-0.428-1.022-0.428H19.51z"/>
	<path style="fill:#FFFFFF;" d="M24.767,50.652c-0.527,0-0.953-0.166-1.28-0.497c-0.327-0.332-0.491-0.773-0.491-1.325v-0.102
		c0-0.369,0.071-0.699,0.214-0.99c0.143-0.29,0.343-0.517,0.601-0.678c0.257-0.162,0.544-0.243,0.861-0.243
		c0.503,0,0.893,0.161,1.167,0.481c0.274,0.322,0.411,0.776,0.411,1.364v0.335h-2.416c0.025,0.306,0.127,0.547,0.306,0.725
		s0.404,0.267,0.675,0.267c0.381,0,0.691-0.153,0.93-0.462l0.448,0.428c-0.148,0.221-0.346,0.393-0.593,0.515
		S25.073,50.652,24.767,50.652z M24.667,47.484c-0.228,0-0.412,0.079-0.552,0.238c-0.141,0.16-0.229,0.382-0.269,0.667h1.582v-0.062
		c-0.018-0.278-0.092-0.488-0.222-0.631S24.897,47.484,24.667,47.484z"/>
	<path style="fill:#FFFFFF;" d="M28.967,49.579c0-0.148-0.061-0.261-0.183-0.339c-0.122-0.077-0.324-0.146-0.606-0.205
		c-0.282-0.059-0.519-0.134-0.707-0.225c-0.415-0.201-0.623-0.491-0.623-0.872c0-0.319,0.135-0.586,0.404-0.8
		c0.269-0.214,0.61-0.321,1.025-0.321c0.441,0,0.799,0.109,1.071,0.328s0.408,0.503,0.408,0.851h-0.831
		c0-0.159-0.059-0.292-0.178-0.397c-0.118-0.106-0.275-0.159-0.471-0.159c-0.183,0-0.331,0.042-0.446,0.127
		c-0.115,0.084-0.173,0.196-0.173,0.338c0,0.128,0.054,0.227,0.16,0.297c0.107,0.071,0.324,0.143,0.65,0.214
		c0.325,0.072,0.581,0.157,0.767,0.257c0.186,0.099,0.324,0.218,0.414,0.357c0.09,0.139,0.135,0.307,0.135,0.506
		c0,0.332-0.138,0.602-0.413,0.808c-0.276,0.206-0.638,0.31-1.084,0.31c-0.303,0-0.573-0.055-0.811-0.164
		c-0.236-0.109-0.421-0.26-0.553-0.451c-0.133-0.191-0.199-0.397-0.199-0.619h0.807c0.012,0.196,0.086,0.348,0.223,0.453
		c0.137,0.106,0.318,0.159,0.543,0.159c0.219,0,0.386-0.042,0.5-0.125C28.91,49.822,28.967,49.714,28.967,49.579z"/>
	<path style="fill:#FFFFFF;" d="M30.51,45.926c0-0.128,0.04-0.234,0.121-0.318s0.196-0.127,0.347-0.127s0.267,0.043,0.349,0.127
		s0.123,0.19,0.123,0.318c0,0.125-0.041,0.229-0.123,0.313s-0.198,0.125-0.349,0.125s-0.266-0.042-0.347-0.125
		S30.51,46.051,30.51,45.926z M31.391,50.584h-0.83v-3.698h0.83V50.584z"/>
	<path style="fill:#FFFFFF;" d="M32.149,48.707c0-0.574,0.135-1.032,0.405-1.375c0.27-0.343,0.628-0.515,1.074-0.515
		c0.422,0,0.754,0.147,0.995,0.44l0.038-0.372h0.748v3.585c0,0.486-0.151,0.869-0.453,1.148c-0.302,0.281-0.709,0.421-1.222,0.421
		c-0.271,0-0.536-0.057-0.795-0.169c-0.259-0.113-0.455-0.261-0.589-0.443l0.393-0.498c0.255,0.303,0.569,0.454,0.943,0.454
		c0.275,0,0.493-0.074,0.652-0.224c0.16-0.149,0.24-0.369,0.24-0.658v-0.25c-0.24,0.268-0.559,0.4-0.957,0.4
		c-0.434,0-0.787-0.172-1.062-0.516C32.287,49.792,32.149,49.316,32.149,48.707z M32.977,48.779c0,0.371,0.076,0.664,0.228,0.877
		s0.361,0.319,0.63,0.319c0.336,0,0.584-0.144,0.746-0.431v-1.627c-0.158-0.28-0.404-0.42-0.738-0.42
		c-0.273,0-0.486,0.107-0.638,0.324S32.977,48.357,32.977,48.779z"/>
	<path style="fill:#FFFFFF;" d="M37.034,46.886l0.024,0.427c0.273-0.33,0.632-0.495,1.076-0.495c0.771,0,1.162,0.44,1.176,1.323
		v2.443h-0.83v-2.396c0-0.234-0.051-0.408-0.152-0.521c-0.102-0.113-0.268-0.169-0.498-0.169c-0.334,0-0.584,0.151-0.748,0.454
		v2.632h-0.83v-3.698H37.034z"/>
	<path style="fill:#FFFFFF;" d="M41.768,48.803h-1.795v-0.67h1.795V48.803z"/>
	<path style="fill:#FFFFFF;" d="M17.663,57.584c-0.036-0.07-0.068-0.186-0.096-0.346c-0.264,0.276-0.588,0.414-0.971,0.414
		c-0.371,0-0.674-0.105-0.908-0.318c-0.235-0.211-0.353-0.474-0.353-0.785c0-0.395,0.146-0.697,0.439-0.908s0.711-0.316,1.256-0.316
		h0.509v-0.242c0-0.191-0.053-0.345-0.16-0.46s-0.27-0.173-0.488-0.173c-0.189,0-0.345,0.048-0.465,0.143
		c-0.121,0.095-0.182,0.215-0.182,0.36h-0.83c0-0.203,0.066-0.393,0.201-0.569s0.317-0.314,0.549-0.415s0.489-0.15,0.773-0.15
		c0.434,0,0.778,0.108,1.036,0.326s0.39,0.523,0.396,0.918v1.668c0,0.333,0.047,0.599,0.14,0.796v0.059H17.663z M16.751,56.986
		c0.164,0,0.318-0.04,0.463-0.12s0.254-0.187,0.326-0.321v-0.697h-0.447c-0.308,0-0.539,0.054-0.693,0.16
		c-0.155,0.107-0.232,0.259-0.232,0.455c0,0.159,0.053,0.286,0.158,0.381C16.432,56.938,16.573,56.986,16.751,56.986z"/>
	<path style="fill:#FFFFFF;" d="M21.177,54.645c-0.109-0.019-0.222-0.027-0.338-0.027c-0.381,0-0.637,0.146-0.77,0.438v2.529h-0.83
		v-3.698h0.793l0.021,0.413c0.2-0.32,0.479-0.481,0.834-0.481c0.118,0,0.217,0.016,0.294,0.048L21.177,54.645z"/>
	<path style="fill:#FFFFFF;" d="M21.491,55.707c0-0.574,0.135-1.032,0.405-1.375c0.27-0.343,0.628-0.515,1.074-0.515
		c0.422,0,0.754,0.147,0.995,0.44l0.038-0.372h0.748v3.585c0,0.486-0.151,0.869-0.453,1.148c-0.302,0.281-0.709,0.421-1.222,0.421
		c-0.271,0-0.536-0.057-0.795-0.169c-0.259-0.113-0.455-0.261-0.589-0.443l0.393-0.498c0.255,0.303,0.569,0.454,0.943,0.454
		c0.275,0,0.493-0.074,0.652-0.224c0.16-0.149,0.24-0.369,0.24-0.658v-0.25c-0.24,0.268-0.559,0.4-0.957,0.4
		c-0.434,0-0.787-0.172-1.062-0.516C21.629,56.792,21.491,56.316,21.491,55.707z M22.318,55.779c0,0.371,0.076,0.664,0.228,0.877
		s0.361,0.319,0.63,0.319c0.336,0,0.584-0.144,0.746-0.431v-1.627c-0.158-0.28-0.404-0.42-0.738-0.42
		c-0.273,0-0.486,0.107-0.638,0.324S22.318,55.357,22.318,55.779z"/>
	<path style="fill:#FFFFFF;" d="M27.846,57.222c-0.244,0.287-0.59,0.431-1.039,0.431c-0.401,0-0.705-0.117-0.911-0.352
		c-0.206-0.235-0.31-0.574-0.31-1.02v-2.396h0.831v2.386c0,0.47,0.194,0.704,0.585,0.704c0.402,0,0.675-0.145,0.816-0.435v-2.655
		h0.83v3.698h-0.782L27.846,57.222z"/>
	<path style="fill:#FFFFFF;" d="M30.275,53.886l0.023,0.386c0.26-0.303,0.615-0.454,1.066-0.454c0.494,0,0.833,0.189,1.016,0.567
		c0.269-0.378,0.646-0.567,1.135-0.567c0.407,0,0.711,0.112,0.91,0.339c0.199,0.225,0.302,0.558,0.307,0.998v2.43h-0.831v-2.406
		c0-0.234-0.052-0.406-0.153-0.516c-0.104-0.109-0.272-0.164-0.51-0.164c-0.189,0-0.344,0.05-0.463,0.151
		c-0.12,0.102-0.203,0.234-0.252,0.398l0.004,2.536h-0.83V55.15c-0.012-0.436-0.234-0.652-0.667-0.652
		c-0.333,0-0.568,0.135-0.708,0.406v2.68h-0.83v-3.698H30.275z"/>
	<path style="fill:#FFFFFF;" d="M37.215,57.652c-0.527,0-0.953-0.166-1.28-0.497c-0.327-0.332-0.491-0.773-0.491-1.325v-0.102
		c0-0.369,0.071-0.699,0.214-0.99c0.143-0.29,0.343-0.517,0.601-0.678c0.257-0.162,0.544-0.243,0.861-0.243
		c0.503,0,0.893,0.161,1.167,0.481c0.274,0.322,0.411,0.776,0.411,1.364v0.335h-2.416c0.025,0.306,0.127,0.547,0.306,0.725
		s0.404,0.267,0.675,0.267c0.381,0,0.691-0.153,0.93-0.462l0.448,0.428c-0.148,0.221-0.346,0.393-0.593,0.515
		S37.521,57.652,37.215,57.652z M37.115,54.484c-0.228,0-0.412,0.079-0.552,0.238c-0.141,0.16-0.229,0.382-0.269,0.667h1.582v-0.062
		c-0.018-0.278-0.092-0.488-0.222-0.631S37.346,54.484,37.115,54.484z"/>
	<path style="fill:#FFFFFF;" d="M40.112,53.886l0.024,0.427c0.273-0.33,0.632-0.495,1.076-0.495c0.771,0,1.162,0.44,1.176,1.323
		v2.443h-0.83v-2.396c0-0.234-0.051-0.408-0.152-0.521c-0.102-0.113-0.268-0.169-0.498-0.169c-0.334,0-0.584,0.151-0.748,0.454
		v2.632h-0.83v-3.698H40.112z"/>
	<path style="fill:#FFFFFF;" d="M44.275,52.986v0.899h0.652v0.615h-0.652v2.064c0,0.142,0.027,0.243,0.083,0.306
		s0.155,0.094,0.3,0.094c0.096,0,0.192-0.011,0.29-0.033v0.643c-0.189,0.052-0.371,0.078-0.547,0.078
		c-0.638,0-0.957-0.352-0.957-1.057v-2.095h-0.608v-0.615h0.608v-0.899H44.275z"/>
</g>
<sodipodi:namedview  borderopacity="1" bordercolor="#666666" pagecolor="#ffffff" showgrid="false" inkscape:cy="30" inkscape:cx="30" inkscape:zoom="3.9333333" id="namedview76" inkscape:pageopacity="0" inkscape:pageshadow="2" inkscape:window-width="731" inkscape:window-height="480" inkscape:window-x="0" inkscape:window-y="0" inkscape:window-maximized="0" inkscape:current-layer="Ebene_1" guidetolerance="10" gridtolerance="10" objecttolerance="10">
	</sodipodi:namedview>
<g id="g41" transform="translate(-7.561529,-21.467778)">
	<g id="Bild" transform="translate(8.6,22.5)">
		
			<sodipodi:namedview  units="mm" borderopacity="1.0" bordercolor="#666666" pagecolor="#ffffff" showgrid="false" inkscape:cy="140.10525" inkscape:cx="100.8875" inkscape:zoom="1.4" showguides="true" id="base" inkscape:pageopacity="0.0" inkscape:pageshadow="2" inkscape:window-width="702" inkscape:window-height="700" inkscape:window-x="0" inkscape:window-y="0" inkscape:window-maximized="1" inkscape:current-layer="layer1" inkscape:guide-bbox="true" inkscape:document-units="mm">
			<sodipodi:guide  orientation="1,0" position="191.33858,0" id="guide21487"></sodipodi:guide>
			<sodipodi:guide  orientation="0,1" position="0,304.72441" id="guide21489"></sodipodi:guide>
			<sodipodi:guide  orientation="0,1" position="0,322.44094" id="guide26097"></sodipodi:guide>
		</sodipodi:namedview>
		<g id="layer1" transform="translate(0,-910.62992)" inkscape:label="Ebene 1" inkscape:groupmode="layer">
			<g id="text5811" transform="translate(2869.9788,435.76959)">
				<path id="path62441" inkscape:connector-curvature="0" style="fill:#FFFFFF;" d="M-2818.517,509.434
					c-0.031-1.194-0.504-2.188-1.414-2.981c-0.91-0.795-2.063-1.207-3.461-1.238c-0.855-0.022-1.682,0.084-2.475,0.322
					c-0.794,0.237-1.872,0.746-3.235,1.524c-1.363,0.781-3.327,1.974-5.896,3.572c-0.098-0.096-0.246-0.238-0.449-0.426
					c-0.202-0.189-0.416-0.387-0.642-0.592c1.813-1.047,3.313-2.244,4.494-3.596c1.185-1.351,2.083-2.616,2.7-3.797
					c0.617-1.18,0.982-2.039,1.1-2.574c0.063-0.316,0.137-0.805,0.223-1.471c0.086-0.664,0.134-1.035,0.142-1.113
					c0.095,0.014,0.755-0.285,1.981-0.895c1.226-0.611,2.451-1.615,3.678-3.014c1.227-1.396,1.887-3.271,1.979-5.623
					c-0.083-2.795-1.29-5.107-3.618-6.939c-2.33-1.83-5.283-2.779-8.858-2.846c-2.507,0.039-4.721,0.566-6.644,1.58
					c-1.924,1.014-3.433,2.277-4.526,3.787c-1.094,1.512-1.651,3.033-1.672,4.564c0.053,1.896,0.417,3.361,1.094,4.393
					c0.677,1.033,1.354,1.744,2.032,2.139c0.678,0.395,1.042,0.58,1.094,0.563l0.109-0.475c-0.047,0.018-0.377-0.158-0.99-0.527
					c-0.613-0.369-1.227-1.035-1.839-2c-0.613-0.963-0.943-2.328-0.991-4.092c0.018-1.457,0.548-2.902,1.588-4.336
					c1.041-1.432,2.483-2.629,4.329-3.59s3.982-1.459,6.415-1.496c3.41,0.061,6.236,0.957,8.479,2.688
					c2.242,1.729,3.405,3.926,3.487,6.588c-0.087,2.182-0.697,3.926-1.829,5.229c-1.133,1.303-2.267,2.24-3.397,2.811
					c-1.134,0.57-1.742,0.85-1.83,0.838c0.271-2.791,0.823-4.895,1.658-6.313c0.834-1.418,1.633-2.438,2.396-3.055
					c0.761-0.617,1.168-1.121,1.222-1.51c0-0.137-0.034-0.266-0.1-0.387c-0.065-0.123-0.153-0.188-0.265-0.195
					c-0.107-0.092-1.202,0.381-3.282,1.418c-2.082,1.037-4.504,3.184-7.268,6.439c-0.883,1.162-1.573,2.203-2.074,3.123
					c-0.5,0.922-0.755,1.408-0.764,1.461h-9.058c-2.837,0.072-5.139,0.871-6.907,2.395c-1.769,1.525-2.679,3.334-2.733,5.426
					c0.005,1.359,0.487,2.479,1.45,3.361c0.964,0.881,2.384,1.338,4.261,1.367c2.178-0.094,4.148-0.922,5.91-2.48
					s3.271-3.275,4.527-5.15c1.257-1.873,2.216-3.332,2.879-4.373c0.625,0,1.374-0.027,2.246-0.082
					c0.871-0.055,1.602-0.137,2.19-0.246c-0.029,0.859-0.257,1.918-0.683,3.172c-0.427,1.256-0.872,2.422-1.338,3.504
					c-0.468,1.079-0.775,1.788-0.927,2.129c-0.17,0.312-0.611,0.789-1.322,1.433c-0.712,0.645-1.217,1.002-1.516,1.077
					c-0.047-0.032-0.377-0.17-0.989-0.407c-0.612-0.24-1.227-0.384-1.839-0.433c-0.613-0.051-0.943,0.192-0.991,0.729
					c0.046,0.574,0.366,0.922,0.962,1.047c0.595,0.125,1.19,0.15,1.785,0.076c0.597-0.072,0.916-0.119,0.963-0.141l1.31,1.164
					c-0.053,0.057-0.759,0.453-2.118,1.189c-1.357,0.733-3.05,1.471-5.076,2.205c-2.025,0.735-4.065,1.133-6.12,1.188
					c-4.154-0.078-7.532-1.332-10.131-3.756c-2.6-2.427-3.939-5.552-4.02-9.377c0.017-3.488,1.092-6.451,3.229-8.885
					c2.135-2.436,5.23-3.705,9.286-3.813c0.354,0.008,0.719,0.059,1.096,0.156c0.376,0.096,0.715,0.203,1.014,0.318v-0.438
					c-0.208-0.08-0.501-0.172-0.877-0.273c-0.377-0.1-0.788-0.154-1.232-0.162c-3.928,0.055-7.049,1.254-9.363,3.602
					c-2.313,2.346-3.497,5.512-3.551,9.494c0.082,3.969,1.456,7.191,4.125,9.668c2.668,2.477,6.144,3.752,10.427,3.828
					c2.136-0.051,4.194-0.422,6.174-1.117c1.979-0.697,3.652-1.414,5.017-2.154s2.194-1.201,2.487-1.385
					c0.297,0.242,0.889,0.666,1.772,1.271c0.885,0.604,2.031,1.166,3.438,1.688c1.405,0.522,3.041,0.785,4.9,0.787
					c1.566-0.074,3.045-0.629,4.435-1.666C-2819.351,512.299-2818.61,510.998-2818.517,509.434z M-2824.811,486.441
					c0.146,0.027-0.229,0.523-1.127,1.494c-0.896,0.969-1.88,2.254-2.946,3.854s-1.782,3.357-2.146,5.275
					c-0.643,0.109-1.395,0.191-2.255,0.246c-0.861,0.055-1.468,0.082-1.819,0.082c0.081-0.289,0.42-0.967,1.016-2.033
					c0.595-1.066,1.506-2.316,2.731-3.752c1.187-1.328,2.442-2.508,3.767-3.537
					C-2826.267,487.041-2825.344,486.498-2824.811,486.441z M-2819.026,509.469c-0.077,1.34-0.741,2.5-1.997,3.479
					c-1.254,0.979-2.638,1.493-4.15,1.543c-1.881-0.045-3.527-0.351-4.941-0.916c-1.415-0.565-2.518-1.134-3.31-1.699
					c-0.792-0.563-1.194-0.871-1.207-0.914c2.376-1.463,4.212-2.571,5.511-3.329c1.298-0.761,2.354-1.271,3.166-1.537
					c0.813-0.267,1.68-0.39,2.6-0.371c1.265,0.021,2.295,0.379,3.094,1.067C-2819.465,507.482-2819.052,508.375-2819.026,509.469z
					 M-2837.907,509.252c-0.083,0.043-0.417,0.102-1,0.176c-0.584,0.076-0.917-0.092-1.001-0.504
					c0.084-0.32,0.417-0.361,1.001-0.123C-2838.324,509.039-2837.99,509.189-2837.907,509.252z M-2836.269,498.01
					c-0.714,1.15-1.688,2.611-2.923,4.385c-1.235,1.773-2.67,3.371-4.305,4.789c-1.635,1.418-3.41,2.168-5.323,2.25
					c-1.217,0.019-2.185-0.299-2.901-0.951c-0.717-0.649-1.084-1.739-1.1-3.27c0.071-1.939,0.983-3.607,2.737-5.006
					c1.754-1.398,3.921-2.131,6.502-2.197H-2836.269L-2836.269,498.01z"/>
			</g>
		</g>
	</g>
</g>
<g id="g45">
</g>
<g id="g47">
</g>
<g id="g49">
</g>
<g id="g51">
</g>
<g id="g53">
</g>
<g id="g55">
</g>
<g id="g57">
</g>
<g id="g59">
</g>
<g id="g61">
</g>
<g id="g63">
</g>
<g id="g65">
</g>
<g id="g67">
</g>
<g id="g69">
</g>
<g id="g71">
</g>
<g id="g73">
</g>
</svg>
