<?xml version="1.0" encoding="UTF-8" standalone="no"?>
<svg
   xmlns:dc="http://purl.org/dc/elements/1.1/"
   xmlns:cc="http://creativecommons.org/ns#"
   xmlns:rdf="http://www.w3.org/1999/02/22-rdf-syntax-ns#"
   xmlns:svg="http://www.w3.org/2000/svg"
   xmlns="http://www.w3.org/2000/svg"
   viewBox="0 0 375 375"
   height="375"
   width="375"
   xml:space="preserve"
   version="1.1"
   id="svg2"><metadata
     id="metadata8"><rdf:RDF><cc:Work
         rdf:about=""><dc:format>image/svg+xml</dc:format><dc:type
           rdf:resource="http://purl.org/dc/dcmitype/StillImage" /></cc:Work></rdf:RDF></metadata><defs
     id="defs6" /><g
     transform="matrix(1.25,0,0,-1.25,0,375)"
     id="g10"><g
       transform="scale(0.1,0.1)"
       id="g12"><path
         id="path14"
         style="fill:#ce8e95;fill-opacity:1;fill-rule:nonzero;stroke:none"
         d="m 3000,529.785 c 0,-67.64 0,-529.78890625 -715,-529.78890625 l -1625,0 C 35,-0.00390625 0,472.145 0,539.785 L 0,2399.77 c 0,545 592.352,600 660,600 l 1615,0.3 c 67.65,0 725,-0.3 725,-600.3" /><path
         id="path16"
         style="fill:#26080d;fill-opacity:1;fill-rule:nonzero;stroke:none"
         d="m 833.859,829.297 c 0.954,5.281 1.922,13.906 1.922,24.953 0,51.344 -24.953,113.734 -100.781,113.734 -74.859,0 -114.203,-60.953 -114.203,-125.734 0,-71.5 44.625,-118.047 120.453,-118.047 33.578,0 61.422,6.235 81.578,14.391 l -8.64,40.797 c -17.75,-6.719 -37.438,-10.563 -64.782,-10.563 -37.437,0 -70.547,18.235 -71.984,60.469 l 156.437,0 z m -156.437,41.266 c 2.391,24 17.75,57.109 54.219,57.109 39.359,0 48.953,-35.516 48.468,-57.109 l -102.687,0" /><path
         id="path18"
         style="fill:#26080d;fill-opacity:1;fill-rule:nonzero;stroke:none"
         d="m 883.672,729 59.5,0 0,340.719 -59.5,0 0,-340.719 z" /><path
         id="path20"
         style="fill:#26080d;fill-opacity:1;fill-rule:nonzero;stroke:none"
         d="m 1006.67,729 59.5,0 0,340.719 -59.5,0 0,-340.719 z" /><path
         id="path22"
         style="fill:#26080d;fill-opacity:1;fill-rule:nonzero;stroke:none"
         d="m 1189.17,729 0,233.703 -59.5,0 0,-233.703 59.5,0 z m -29.75,331.11 c -19.67,0 -33.11,-13.91 -33.11,-32.14 0,-17.77 12.96,-31.673 32.63,-31.673 20.64,0 33.59,13.903 33.59,31.673 -0.47,18.23 -12.95,32.14 -33.11,32.14" /><path
         id="path24"
         style="fill:#26080d;fill-opacity:1;fill-rule:nonzero;stroke:none"
         d="m 1252.67,633.984 59.03,0 0,120.922 0.96,0 c 12,-18.703 36.47,-31.187 65.75,-31.187 53.26,0 106.53,40.797 106.53,125.25 0,72.937 -44.64,119.015 -98.38,119.015 -35.51,0 -62.87,-14.89 -80.14,-41.281 l -0.97,0 -2.87,36 -51.83,0 c 0.97,-22.078 1.92,-47.031 1.92,-77.75 l 0,-250.969 z m 59.03,228.907 c 0,4.797 0.96,10.078 2.39,14.875 5.77,25.906 28.32,43.672 52.79,43.672 37.92,0 58.07,-33.594 58.07,-74.875 0,-46.063 -22.07,-77.25 -59.51,-77.25 -24.96,0 -46.06,17.265 -51.83,41.265 -1.44,5.281 -1.91,10.563 -1.91,16.313 l 0,36" /><path
         id="path26"
         style="fill:#26080d;fill-opacity:1;fill-rule:nonzero;stroke:none"
         d="m 1543.75,1015.48 0,-52.777 -33.59,0 0,-44.156 33.59,0 0,-109.891 c 0,-30.703 5.75,-51.828 18.23,-65.265 11.04,-11.985 29.27,-19.188 50.86,-19.188 18.72,0 34.08,2.391 42.72,5.75 l -0.97,45.11 c -5.26,-1.438 -12.95,-2.875 -23.03,-2.875 -22.54,0 -30.23,14.875 -30.23,43.187 l 0,103.172 56.15,0 0,44.156 -56.15,0 0,66.707 -57.58,-13.93" /><path
         id="path28"
         style="fill:#26080d;fill-opacity:1;fill-rule:nonzero;stroke:none"
         d="m 1761.17,729 0,233.703 -59.5,0 0,-233.703 59.5,0 z m -29.75,331.11 c -19.67,0 -33.11,-13.91 -33.11,-32.14 0,-17.77 12.96,-31.673 32.63,-31.673 20.64,0 33.59,13.903 33.59,31.673 -0.47,18.23 -12.95,32.14 -33.11,32.14" /><path
         id="path30"
         style="fill:#26080d;fill-opacity:1;fill-rule:nonzero;stroke:none"
         d="m 1988.31,779.859 c -11.51,-4.796 -25.92,-9.109 -46.54,-9.109 -40.32,0 -71.5,27.359 -71.5,75.344 -0.49,42.703 26.39,75.812 71.5,75.812 21.11,0 35.03,-4.797 44.62,-9.109 l 10.56,44.141 c -13.43,6.234 -35.51,11.046 -57.11,11.046 -82.06,0 -130.04,-54.718 -130.04,-124.781 0,-72.453 47.5,-119 120.45,-119 29.27,0 53.73,6.235 66.22,12 l -8.16,43.656" /><path
         id="path32"
         style="fill:#26080d;fill-opacity:1;fill-rule:nonzero;stroke:none"
         d="m 2225.42,729 c -2.39,14.391 -3.36,35.031 -3.36,56.141 l 0,84.468 c 0,50.86 -21.59,98.375 -96.45,98.375 -36.95,0 -67.19,-10.078 -84.45,-20.64 l 11.51,-38.391 c 15.83,10.078 39.83,17.281 62.86,17.281 41.27,0 47.52,-25.437 47.52,-40.796 l 0,-3.844 c -86.39,0.484 -138.69,-29.266 -138.69,-88.297 0,-35.5 26.39,-69.578 73.42,-69.578 30.24,0 54.7,12.953 69.1,31.187 l 1.43,0 3.85,-25.906 53.26,0 z m -60.94,82.063 c 0,-3.844 -0.48,-8.641 -1.92,-12.954 -5.28,-16.796 -22.56,-32.156 -46.08,-32.156 -18.7,0 -33.57,10.547 -33.57,33.594 0,35.5 39.82,44.625 81.57,43.656 l 0,-32.14" /><path
         id="path34"
         style="fill:#26080d;fill-opacity:1;fill-rule:nonzero;stroke:none"
         d="m 2284.67,729 59.5,0 0,340.719 -59.5,0 0,-340.719 z" /><path
         id="path36"
         style="fill:#26080d;fill-opacity:1;fill-rule:nonzero;stroke:none"
         d="m 974.859,349.297 c 0.954,5.281 1.922,13.906 1.922,24.953 0,51.344 -24.953,113.734 -100.781,113.734 -74.859,0 -114.203,-60.953 -114.203,-125.734 0,-71.5 44.625,-118.047 120.453,-118.047 33.578,0 61.422,6.235 81.578,14.391 l -8.64,40.797 c -17.75,-6.719 -37.438,-10.563 -64.782,-10.563 -37.437,0 -70.547,18.235 -71.984,60.469 l 156.437,0 z m -156.437,41.266 c 2.391,24 17.75,57.109 54.219,57.109 39.359,0 48.953,-35.516 48.468,-57.109 l -102.687,0" /><path
         id="path38"
         style="fill:#26080d;fill-opacity:1;fill-rule:nonzero;stroke:none"
         d="m 1180.11,589.719 0,-132.453 -0.95,0 c -10.57,17.281 -33.6,30.718 -65.75,30.718 -56.14,0 -105.1,-46.546 -104.61,-124.781 0,-71.969 44.14,-119.484 99.81,-119.484 34.08,0 62.39,16.312 76.3,42.234 l 0.97,0 2.39,-36.953 52.79,0 c -0.97,15.828 -1.92,41.75 -1.92,65.75 l 0,274.969 -59.03,0 z m 0,-239.469 c 0,-6.234 -0.48,-12 -1.92,-17.266 -5.75,-25.437 -26.88,-41.75 -50.86,-41.75 -37.44,0 -58.55,31.188 -58.55,73.891 0,43.672 21.11,77.266 59.02,77.266 26.87,0 45.59,-18.719 50.87,-41.75 0.96,-4.797 1.44,-10.563 1.44,-15.36 l 0,-35.031" /><path
         id="path40"
         style="fill:#26080d;fill-opacity:1;fill-rule:nonzero;stroke:none"
         d="m 1362.17,249 0,233.703 -59.5,0 0,-233.703 59.5,0 z m -29.75,331.109 c -19.67,0 -33.11,-13.906 -33.11,-32.14 0,-17.766 12.96,-31.672 32.63,-31.672 20.64,0 33.59,13.906 33.59,31.672 -0.47,18.234 -12.95,32.14 -33.11,32.14" /><path
         id="path42"
         style="fill:#26080d;fill-opacity:1;fill-rule:nonzero;stroke:none"
         d="m 1435.75,535.484 0,-52.781 -33.59,0 0,-44.156 33.59,0 0,-109.891 c 0,-30.703 5.75,-51.828 18.23,-65.265 11.04,-11.985 29.27,-19.188 50.86,-19.188 18.72,0 34.08,2.391 42.72,5.75 l -0.97,45.11 c -5.26,-1.438 -12.95,-2.875 -23.03,-2.875 -22.54,0 -30.23,14.875 -30.23,43.187 l 0,103.172 56.15,0 0,44.156 -56.15,0 0,66.703 -57.58,-13.922" /><path
         id="path44"
         style="fill:#26080d;fill-opacity:1;fill-rule:nonzero;stroke:none"
         d="m 1654.17,249 0,233.703 -59.5,0 0,-233.703 59.5,0 z m -29.75,331.109 c -19.67,0 -33.11,-13.906 -33.11,-32.14 0,-17.766 12.96,-31.672 32.63,-31.672 20.64,0 33.59,13.906 33.59,31.672 -0.47,18.234 -12.95,32.14 -33.11,32.14" /><path
         id="path46"
         style="fill:#26080d;fill-opacity:1;fill-rule:nonzero;stroke:none"
         d="m 1716.67,249 59.5,0 0,137.25 c 0,6.719 0.49,13.906 2.41,19.188 6.23,17.75 22.55,34.546 46.06,34.546 32.16,0 44.63,-25.421 44.63,-59.015 l 0,-131.969 59.03,0 0,138.688 c 0,73.89 -42.24,100.296 -83.02,100.296 -38.87,0 -64.31,-22.078 -74.39,-40.312 l -1.44,0 -2.87,35.031 -51.83,0 c 1.44,-20.156 1.92,-42.719 1.92,-69.594 l 0,-164.109" /><path
         id="path48"
         style="fill:#26080d;fill-opacity:1;fill-rule:nonzero;stroke:none"
         d="m 2153.88,482.703 -2.41,-31.203 -0.95,0 c -11.05,19.203 -32.16,36.484 -67.68,36.484 -56.14,0 -106.04,-46.546 -106.04,-123.328 0,-66.234 41.26,-114.218 99.33,-114.218 30.71,0 54.7,13.921 68.14,34.546 l 0.96,0 0,-20.156 c 0,-50.375 -28.79,-70.531 -67.18,-70.531 -28.32,0 -53.27,9.109 -68.14,17.75 l -12.96,-44.625 c 20.16,-12.484 51.83,-18.719 81.58,-18.719 32.16,0 65.74,6.719 90.22,28.313 24.47,22.078 34.55,57.109 34.55,106.062 l 0,132.438 c 0,32.156 0.95,51.343 1.92,67.187 l -51.34,0 z m -9.61,-131.484 c 0,-6.719 -0.96,-14.875 -2.39,-21.125 -6.72,-21.11 -25.93,-35.5 -47.99,-35.5 -36.95,0 -57.11,32.14 -57.11,71.969 0,47.515 24.47,76.312 57.58,76.312 24.95,0 41.75,-16.328 48,-37.922 1.44,-4.797 1.91,-10.547 1.91,-15.828 l 0,-37.906" /><path
         id="path50"
         style="fill:none;stroke:#ffffff;stroke-width:20;stroke-linecap:butt;stroke-linejoin:miter;stroke-miterlimit:10;stroke-dasharray:none;stroke-opacity:1"
         d="m 1060,1640 -810,0" /><path
         id="path52"
         style="fill:#ffffff;fill-opacity:1;fill-rule:nonzero;stroke:none"
         d="m 2497.5,1778.75 1.25,-265 333.75,132.5" /><path
         id="path54"
         style="fill:none;stroke:#ffffff;stroke-width:20;stroke-linecap:butt;stroke-linejoin:miter;stroke-miterlimit:10;stroke-dasharray:none;stroke-opacity:1"
         d="m 240,1760 0,-230" /><path
         id="path56"
         style="fill:none;stroke:#ffffff;stroke-width:20;stroke-linecap:butt;stroke-linejoin:miter;stroke-miterlimit:10;stroke-dasharray:none;stroke-opacity:1"
         d="m 860,1750 0,-230" /><path
         id="path58"
         style="fill:none;stroke:#ffffff;stroke-width:20;stroke-linecap:butt;stroke-linejoin:miter;stroke-miterlimit:10;stroke-dasharray:none;stroke-opacity:1"
         d="m 2110,1760 0,-230" /><path
         id="path60"
         style="fill:none;stroke:#ffffff;stroke-width:20;stroke-linecap:butt;stroke-linejoin:miter;stroke-miterlimit:10;stroke-dasharray:none;stroke-opacity:1"
         d="m 2750,1640 -810,0" /><path
         id="path62"
         style="fill:#c1272d;fill-opacity:1;fill-rule:nonzero;stroke:none"
         d="m 1152,1469.25 0,40.31 -45.58,0 0,301.85 45.58,0 0,40.31 -98.37,0 0,-382.47 98.37,0" /><path
         id="path64"
         style="fill:#c1272d;fill-opacity:1;fill-rule:nonzero;stroke:none"
         d="m 1347.66,1517.72 c 25.92,0 43.18,18.72 43.18,44.16 0,26.39 -17.75,44.62 -42.7,44.62 -25.44,0 -43.19,-18.72 -43.19,-44.62 0,-25.44 17.27,-44.16 42.71,-44.16 z m 160.28,0 c 25.9,0 43.19,18.72 43.19,44.16 -0.49,26.39 -17.75,44.62 -43.19,44.62 -24.96,0 -43.19,-18.72 -43.19,-44.62 0,-25.44 17.75,-44.16 43.19,-44.16 z m 160.28,0 c 25.91,0 43.19,18.72 43.19,44.16 -0.49,26.39 -17.75,44.62 -43.19,44.62 -24.95,0 -43.19,-18.72 -43.19,-44.62 0,-25.44 17.75,-44.16 43.19,-44.16" /><path
         id="path66"
         style="fill:#c1272d;fill-opacity:1;fill-rule:nonzero;stroke:none"
         d="m 1865.16,1852.19 0,-40.3 45.59,0 0,-302.33 -45.59,0 0,-40.31 97.89,0 0,382.94 -97.89,0" /></g></g></svg>