<?xml version="1.0" encoding="iso-8859-1"?>
<!-- Generator: Adobe Illustrator 16.0.3, SVG Export Plug-In . SVG Version: 6.00 Build 0)  -->
<!DOCTYPE svg PUBLIC "-//W3C//DTD SVG 1.1//EN" "http://www.w3.org/Graphics/SVG/1.1/DTD/svg11.dtd">
<svg version="1.1" id="Ebene_1" xmlns="http://www.w3.org/2000/svg" xmlns:xlink="http://www.w3.org/1999/xlink" x="0px" y="0px"
	 width="518px" height="518px" viewBox="0 0 518 518" style="enable-background:new 0 0 518 518;" xml:space="preserve">
<path style="fill-rule:evenodd;clip-rule:evenodd;fill:#CE2228;" d="M518,512c0,3.313-2.017,6-4.505,6H4.505
	C2.018,518,0,515.313,0,512V6c0-3.313,2.017-6,4.504-6h508.99C515.983,0,518,2.687,518,6V512z"/>
<g>
	<g id="XMLID_1_">
		<g>
			<path style="fill:#CE2228;" d="M419.679,200.93c0.57,87.61-71.08,160.28-160.37,160.66c-88.46,0.38-160.09-70.49-161.13-160.5
				c0.91-91.88,75.04-160.51,160.47-160.72C346.899,40.14,419.099,111.9,419.679,200.93z"/>
			<path style="fill:#FCFBFB;" d="M98.179,201.09c1.04,90.01,72.67,160.88,161.13,160.5c89.29-0.38,160.94-73.05,160.37-160.66
				c-0.58-89.03-72.779-160.79-161.03-160.56C173.219,40.58,99.089,109.21,98.179,201.09z M254.709,376.09
				c-94.72-2.21-173.28-81.439-170.77-179.76c2.41-94.42,80.57-170.87,175.1-170.34c96.51-0.58,177.17,79.81,175.04,178.93
				C432.039,300.08,352.519,378.37,254.709,376.09z"/>
		</g>
		<g>
		</g>
	</g>
</g>
<g>
	<rect x="-7.001" y="413" style="fill-rule:evenodd;clip-rule:evenodd;fill:none;" width="525.002" height="106"/>
	<path style="fill:#FFFFFF;" d="M172.236,442.224h-13.77l-2.881,8.276h-6.421l13.428-35.547h5.542l13.452,35.547h-6.445
		L172.236,442.224z M160.2,437.243h10.303l-5.151-14.746L160.2,437.243z"/>
	<path style="fill:#FFFFFF;" d="M189.375,424.084l0.171,3.052c1.953-2.359,4.517-3.54,7.69-3.54c5.501,0,8.301,3.149,8.398,9.448
		V450.5h-5.933v-17.114c0-1.676-0.362-2.917-1.086-3.724c-0.725-0.805-1.909-1.208-3.552-1.208c-2.393,0-4.175,1.083-5.347,3.247
		V450.5h-5.933v-26.416H189.375z"/>
	<path style="fill:#FFFFFF;" d="M210.639,437.097c0-4.102,0.964-7.377,2.893-9.827c1.929-2.449,4.488-3.674,7.678-3.674
		c3.011,0,5.379,1.05,7.104,3.149l0.269-2.661h5.347v25.61c0,3.467-1.079,6.201-3.235,8.203c-2.157,2.002-5.066,3.003-8.728,3.003
		c-1.937,0-3.829-0.402-5.676-1.209c-1.848-0.805-3.251-1.859-4.211-3.161l2.808-3.564c1.823,2.164,4.069,3.247,6.738,3.247
		c1.969,0,3.523-0.533,4.663-1.6c1.139-1.065,1.709-2.633,1.709-4.699v-1.782c-1.709,1.904-3.988,2.856-6.836,2.856
		c-3.093,0-5.62-1.229-7.581-3.687C211.62,444.845,210.639,441.442,210.639,437.097z M216.547,437.609
		c0,2.653,0.541,4.74,1.624,6.262c1.082,1.522,2.583,2.283,4.504,2.283c2.393,0,4.167-1.025,5.322-3.076v-11.621
		c-1.123-2.002-2.881-3.003-5.273-3.003c-1.953,0-3.471,0.773-4.553,2.319C217.088,432.32,216.547,434.599,216.547,437.609z"/>
	<path style="fill:#FFFFFF;" d="M254.829,443.322c0-1.058-0.436-1.863-1.306-2.417c-0.871-0.553-2.315-1.041-4.333-1.465
		c-2.019-0.423-3.703-0.96-5.054-1.611c-2.962-1.432-4.443-3.507-4.443-6.226c0-2.278,0.96-4.183,2.881-5.713
		c1.92-1.529,4.362-2.295,7.324-2.295c3.157,0,5.708,0.781,7.654,2.344c1.945,1.563,2.917,3.589,2.917,6.079h-5.933
		c0-1.139-0.423-2.087-1.27-2.845c-0.847-0.756-1.97-1.135-3.369-1.135c-1.302,0-2.364,0.302-3.186,0.903
		c-0.822,0.603-1.233,1.408-1.233,2.417c0,0.912,0.382,1.62,1.147,2.124c0.765,0.505,2.311,1.013,4.639,1.526
		c2.327,0.512,4.154,1.123,5.481,1.83c1.326,0.709,2.311,1.56,2.954,2.552c0.643,0.993,0.964,2.197,0.964,3.613
		c0,2.377-0.985,4.301-2.954,5.774c-1.97,1.473-4.549,2.209-7.739,2.209c-2.165,0-4.094-0.391-5.786-1.172
		c-1.693-0.781-3.011-1.855-3.955-3.223c-0.944-1.367-1.416-2.84-1.416-4.419h5.762c0.081,1.4,0.61,2.478,1.587,3.235
		c0.977,0.756,2.271,1.135,3.882,1.135c1.563,0,2.75-0.297,3.564-0.891C254.421,445.06,254.829,444.283,254.829,443.322z"/>
	<path style="fill:#FFFFFF;" d="M273.261,417.663v6.421h4.663v4.395h-4.663v14.746c0,1.01,0.199,1.737,0.598,2.186
		c0.398,0.447,1.111,0.671,2.136,0.671c0.684,0,1.375-0.081,2.075-0.244v4.59c-1.351,0.374-2.653,0.562-3.906,0.562
		c-4.558,0-6.836-2.515-6.836-7.544v-14.966h-4.346v-4.395h4.346v-6.421H273.261z"/>
	<path style="fill:#FFFFFF;" d="M304.218,442.98l5.591-18.896h6.128l-9.155,26.416h-5.151l-9.229-26.416h6.152L304.218,442.98z"/>
	<path style="fill:#FFFFFF;" d="M318.159,437.048c0-2.588,0.513-4.919,1.538-6.995c1.025-2.074,2.466-3.67,4.322-4.785
		c1.855-1.114,3.986-1.672,6.396-1.672c3.564,0,6.459,1.147,8.68,3.442c2.223,2.295,3.422,5.339,3.602,9.131l0.023,1.392
		c0,2.604-0.5,4.932-1.5,6.982c-1.002,2.051-2.434,3.638-4.297,4.761c-1.865,1.123-4.018,1.685-6.459,1.685
		c-3.728,0-6.71-1.241-8.947-3.723c-2.238-2.482-3.357-5.79-3.357-9.925V437.048z M324.091,437.561c0,2.719,0.563,4.846,1.686,6.385
		c1.123,1.537,2.686,2.307,4.687,2.307c2.002,0,3.561-0.781,4.676-2.344s1.672-3.849,1.672-6.86c0-2.669-0.572-4.785-1.721-6.348
		c-1.146-1.563-2.707-2.344-4.676-2.344c-1.937,0-3.475,0.769-4.614,2.308C324.661,432.201,324.091,434.501,324.091,437.561z"/>
	<path style="fill:#FFFFFF;" d="M361.566,429.504c-0.781-0.13-1.587-0.195-2.417-0.195c-2.719,0-4.55,1.042-5.493,3.125V450.5
		h-5.933v-26.416h5.664l0.146,2.954c1.432-2.295,3.418-3.442,5.957-3.442c0.846,0,1.546,0.114,2.1,0.342L361.566,429.504z"/>
	<path style="fill:#FFFFFF;" d="M17.491,487.144l-4.028,4.272V502.5H7.286v-35.547h6.177v16.675l3.418-4.224l10.4-12.451h7.471
		L21.544,482.7l13.965,19.8h-7.324L17.491,487.144z"/>
	<path style="fill:#FFFFFF;" d="M35.511,489.048c0-2.588,0.513-4.919,1.538-6.995c1.025-2.074,2.466-3.67,4.321-4.785
		c1.855-1.114,3.987-1.672,6.396-1.672c3.564,0,6.458,1.147,8.679,3.442s3.422,5.339,3.601,9.131l0.024,1.392
		c0,2.604-0.5,4.932-1.501,6.982s-2.434,3.638-4.297,4.761c-1.864,1.123-4.016,1.685-6.458,1.685c-3.728,0-6.71-1.241-8.948-3.723
		c-2.238-2.482-3.357-5.79-3.357-9.925V489.048z M41.443,489.561c0,2.719,0.562,4.846,1.685,6.385
		c1.123,1.537,2.686,2.307,4.688,2.307s3.56-0.781,4.675-2.344c1.115-1.563,1.672-3.849,1.672-6.86c0-2.669-0.574-4.785-1.721-6.348
		s-2.706-2.344-4.675-2.344c-1.937,0-3.475,0.769-4.614,2.308C42.013,484.201,41.443,486.501,41.443,489.561z"/>
	<path style="fill:#FFFFFF;" d="M69.644,476.084l0.171,3.052c1.953-2.359,4.517-3.54,7.69-3.54c5.501,0,8.301,3.149,8.398,9.448
		V502.5h-5.933v-17.114c0-1.676-0.362-2.917-1.086-3.724c-0.725-0.805-1.909-1.208-3.552-1.208c-2.393,0-4.175,1.083-5.347,3.247
		V502.5h-5.933v-26.416H69.644z"/>
	<path style="fill:#FFFFFF;" d="M105.803,495.322c0-1.058-0.436-1.863-1.306-2.417c-0.871-0.553-2.315-1.041-4.333-1.465
		c-2.019-0.423-3.703-0.96-5.054-1.611c-2.962-1.432-4.443-3.507-4.443-6.226c0-2.278,0.96-4.183,2.881-5.713
		c1.92-1.529,4.362-2.295,7.324-2.295c3.157,0,5.708,0.781,7.654,2.344c1.945,1.563,2.917,3.589,2.917,6.079h-5.933
		c0-1.139-0.423-2.087-1.27-2.845c-0.847-0.756-1.97-1.135-3.369-1.135c-1.302,0-2.364,0.302-3.186,0.903
		c-0.822,0.603-1.233,1.408-1.233,2.417c0,0.912,0.382,1.62,1.147,2.124c0.765,0.505,2.311,1.013,4.639,1.526
		c2.327,0.512,4.154,1.123,5.481,1.83c1.326,0.709,2.311,1.56,2.954,2.552c0.643,0.993,0.964,2.197,0.964,3.613
		c0,2.377-0.985,4.301-2.954,5.774c-1.97,1.473-4.549,2.209-7.739,2.209c-2.165,0-4.094-0.391-5.786-1.172
		c-1.693-0.781-3.011-1.855-3.955-3.223c-0.944-1.367-1.416-2.84-1.416-4.419h5.762c0.081,1.4,0.61,2.478,1.587,3.235
		c0.977,0.756,2.271,1.135,3.882,1.135c1.563,0,2.75-0.297,3.564-0.891C105.396,497.06,105.803,496.283,105.803,495.322z"/>
	<path style="fill:#FFFFFF;" d="M127.485,502.988c-3.76,0-6.808-1.184-9.143-3.553c-2.336-2.367-3.503-5.521-3.503-9.46v-0.732
		c0-2.637,0.508-4.993,1.526-7.067c1.017-2.076,2.445-3.69,4.285-4.847c1.839-1.155,3.89-1.733,6.152-1.733
		c3.597,0,6.376,1.147,8.337,3.442c1.961,2.295,2.942,5.542,2.942,9.741v2.393H120.82c0.179,2.182,0.907,3.906,2.185,5.176
		c1.277,1.27,2.885,1.904,4.822,1.904c2.718,0,4.932-1.099,6.641-3.296l3.198,3.052c-1.058,1.579-2.47,2.804-4.236,3.674
		C131.664,502.553,129.683,502.988,127.485,502.988z M126.777,480.356c-1.628,0-2.942,0.57-3.943,1.709
		c-1.001,1.14-1.64,2.727-1.917,4.761h11.304v-0.439c-0.13-1.985-0.659-3.487-1.587-4.504
		C129.707,480.865,128.421,480.356,126.777,480.356z"/>
	<path style="fill:#FFFFFF;" d="M140.622,489.072c0-4.134,0.944-7.413,2.832-9.839c1.888-2.425,4.443-3.638,7.666-3.638
		c2.946,0,5.281,1.034,7.007,3.101l0.342-2.612h5.273v36.572h-5.933v-12.402c-1.726,1.823-3.972,2.734-6.738,2.734
		c-3.158,0-5.688-1.232-7.593-3.699C141.574,496.824,140.622,493.418,140.622,489.072z M146.555,489.585
		c0,2.702,0.533,4.821,1.599,6.36c1.066,1.537,2.543,2.307,4.431,2.307c2.344,0,4.085-1.001,5.225-3.003v-12.012
		c-1.14-1.92-2.865-2.881-5.176-2.881c-1.888,0-3.374,0.757-4.456,2.271C147.096,484.141,146.555,486.46,146.555,489.585z"/>
	<path style="fill:#FFFFFF;" d="M185.18,499.912c-1.742,2.051-4.216,3.076-7.422,3.076c-2.865,0-5.034-0.838-6.506-2.515
		c-1.473-1.676-2.209-4.102-2.209-7.275v-17.114h5.933v17.041c0,3.354,1.392,5.029,4.175,5.029c2.881,0,4.826-1.033,5.835-3.101
		v-18.97h5.933V502.5h-5.591L185.18,499.912z"/>
	<path style="fill:#FFFFFF;" d="M207.643,502.988c-3.76,0-6.808-1.184-9.143-3.553c-2.336-2.367-3.503-5.521-3.503-9.46v-0.732
		c0-2.637,0.508-4.993,1.526-7.067c1.017-2.076,2.445-3.69,4.285-4.847c1.839-1.155,3.89-1.733,6.152-1.733
		c3.597,0,6.376,1.147,8.337,3.442c1.961,2.295,2.942,5.542,2.942,9.741v2.393h-17.261c0.179,2.182,0.907,3.906,2.185,5.176
		c1.277,1.27,2.885,1.904,4.822,1.904c2.718,0,4.932-1.099,6.641-3.296l3.198,3.052c-1.058,1.579-2.47,2.804-4.236,3.674
		C211.822,502.553,209.84,502.988,207.643,502.988z M206.935,480.356c-1.628,0-2.942,0.57-3.943,1.709
		c-1.001,1.14-1.64,2.727-1.917,4.761h11.304v-0.439c-0.13-1.985-0.659-3.487-1.587-4.504
		C209.865,480.865,208.579,480.356,206.935,480.356z"/>
	<path style="fill:#FFFFFF;" d="M227.396,476.084l0.171,3.052c1.953-2.359,4.517-3.54,7.69-3.54c5.501,0,8.301,3.149,8.398,9.448
		V502.5h-5.933v-17.114c0-1.676-0.362-2.917-1.086-3.724c-0.725-0.805-1.909-1.208-3.552-1.208c-2.393,0-4.175,1.083-5.347,3.247
		V502.5h-5.933v-26.416H227.396z"/>
	<path style="fill:#FFFFFF;" d="M255.084,497.764h14.063v4.736h-21.436v-3.882l13.403-17.749h-13.159v-4.785h20.679v3.76
		L255.084,497.764z"/>
	<path style="fill:#FFFFFF;" d="M284.188,502.988c-3.76,0-6.808-1.184-9.143-3.553c-2.336-2.367-3.503-5.521-3.503-9.46v-0.732
		c0-2.637,0.508-4.993,1.526-7.067c1.017-2.076,2.445-3.69,4.285-4.847c1.839-1.155,3.89-1.733,6.152-1.733
		c3.597,0,6.376,1.147,8.337,3.442c1.961,2.295,2.942,5.542,2.942,9.741v2.393h-17.261c0.179,2.182,0.907,3.906,2.185,5.176
		c1.277,1.27,2.885,1.904,4.822,1.904c2.718,0,4.932-1.099,6.641-3.296l3.198,3.052c-1.058,1.579-2.47,2.804-4.236,3.674
		C288.366,502.553,286.385,502.988,284.188,502.988z M283.479,480.356c-1.628,0-2.942,0.57-3.943,1.709
		c-1.001,1.14-1.64,2.727-1.917,4.761h11.304v-0.439c-0.13-1.985-0.659-3.487-1.587-4.504
		C286.409,480.865,285.123,480.356,283.479,480.356z"/>
	<path style="fill:#FFFFFF;" d="M303.94,476.084l0.171,3.052c1.953-2.359,4.517-3.54,7.69-3.54c5.501,0,8.301,3.149,8.398,9.448
		V502.5h-5.933v-17.114c0-1.676-0.362-2.917-1.086-3.724c-0.725-0.805-1.909-1.208-3.552-1.208c-2.393,0-4.175,1.083-5.347,3.247
		V502.5h-5.933v-26.416H303.94z"/>
	<path style="fill:#FFFFFF;" d="M351.602,495.322c0-1.058-0.436-1.863-1.306-2.417c-0.871-0.553-2.316-1.041-4.334-1.465
		c-2.019-0.423-3.703-0.96-5.054-1.611c-2.963-1.432-4.443-3.507-4.443-6.226c0-2.278,0.96-4.183,2.881-5.713
		c1.92-1.529,4.361-2.295,7.324-2.295c3.157,0,5.709,0.781,7.653,2.344c1.945,1.563,2.918,3.589,2.918,6.079h-5.933
		c0-1.139-0.424-2.087-1.27-2.845c-0.847-0.756-1.97-1.135-3.369-1.135c-1.303,0-2.364,0.302-3.187,0.903
		c-0.821,0.603-1.232,1.408-1.232,2.417c0,0.912,0.382,1.62,1.147,2.124c0.765,0.505,2.311,1.013,4.639,1.526
		c2.327,0.512,4.154,1.123,5.481,1.83c1.326,0.709,2.311,1.56,2.953,2.552c0.644,0.993,0.965,2.197,0.965,3.613
		c0,2.377-0.985,4.301-2.954,5.774c-1.97,1.473-4.55,2.209-7.739,2.209c-2.165,0-4.094-0.391-5.786-1.172
		c-1.693-0.781-3.012-1.855-3.955-3.223c-0.944-1.367-1.416-2.84-1.416-4.419h5.762c0.081,1.4,0.61,2.478,1.587,3.235
		c0.977,0.756,2.271,1.135,3.882,1.135c1.563,0,2.75-0.297,3.564-0.891C351.194,497.06,351.602,496.283,351.602,495.322z"/>
	<path style="fill:#FFFFFF;" d="M372.502,498.252c1.48,0,2.71-0.431,3.687-1.294c0.977-0.862,1.497-1.929,1.563-3.198h5.591
		c-0.065,1.645-0.578,3.178-1.538,4.602c-0.961,1.425-2.263,2.552-3.906,3.382c-1.645,0.83-3.418,1.245-5.322,1.245
		c-3.695,0-6.625-1.196-8.789-3.589c-2.165-2.393-3.247-5.696-3.247-9.912v-0.61c0-4.02,1.074-7.238,3.223-9.656
		c2.148-2.416,5.078-3.625,8.789-3.625c3.141,0,5.7,0.916,7.679,2.746c1.977,1.832,3.015,4.236,3.112,7.215h-5.591
		c-0.065-1.514-0.582-2.759-1.551-3.735c-0.968-0.977-2.201-1.465-3.698-1.465c-1.921,0-3.402,0.696-4.443,2.087
		c-1.042,1.393-1.571,3.504-1.587,6.336v0.952c0,2.865,0.517,5.001,1.551,6.409C369.056,497.548,370.549,498.252,372.502,498.252z"
		/>
	<path style="fill:#FFFFFF;" d="M392.719,478.965c1.937-2.246,4.386-3.369,7.349-3.369c5.631,0,8.487,3.215,8.569,9.644V502.5
		h-5.933v-17.041c0-1.822-0.395-3.113-1.185-3.869c-0.789-0.758-1.949-1.136-3.479-1.136c-2.377,0-4.15,1.059-5.322,3.174V502.5
		h-5.933V465h5.933V478.965z"/>
	<path style="fill:#FFFFFF;" d="M429.684,499.912c-1.742,2.051-4.216,3.076-7.422,3.076c-2.865,0-5.033-0.838-6.506-2.515
		c-1.474-1.676-2.21-4.102-2.21-7.275v-17.114h5.933v17.041c0,3.354,1.392,5.029,4.175,5.029c2.881,0,4.825-1.033,5.835-3.101
		v-18.97h5.933V502.5h-5.591L429.684,499.912z M415.89,469.15c0-0.813,0.272-1.497,0.817-2.051c0.546-0.553,1.298-0.83,2.259-0.83
		c0.96,0,1.717,0.277,2.271,0.83c0.553,0.554,0.83,1.237,0.83,2.051c0,0.814-0.277,1.498-0.83,2.051
		c-0.554,0.554-1.311,0.83-2.271,0.83c-0.961,0-1.713-0.276-2.259-0.83C416.162,470.648,415.89,469.965,415.89,469.15z
		 M427.047,469.175c0-0.813,0.272-1.497,0.818-2.051c0.545-0.553,1.297-0.83,2.258-0.83c0.96,0,1.717,0.277,2.271,0.83
		c0.553,0.554,0.83,1.237,0.83,2.051c0,0.814-0.277,1.498-0.83,2.051c-0.554,0.554-1.311,0.83-2.271,0.83
		c-0.961,0-1.713-0.276-2.258-0.83C427.319,470.673,427.047,469.989,427.047,469.175z"/>
	<path style="fill:#FFFFFF;" d="M454.344,481.504c-0.781-0.13-1.587-0.195-2.417-0.195c-2.719,0-4.55,1.042-5.493,3.125V502.5
		h-5.933v-26.416h5.664l0.146,2.954c1.432-2.295,3.418-3.442,5.957-3.442c0.846,0,1.546,0.114,2.1,0.342L454.344,481.504z"/>
	<path style="fill:#FFFFFF;" d="M468.312,502.988c-3.76,0-6.808-1.184-9.144-3.553c-2.335-2.367-3.503-5.521-3.503-9.46v-0.732
		c0-2.637,0.509-4.993,1.526-7.067c1.017-2.076,2.444-3.69,4.284-4.847c1.839-1.155,3.89-1.733,6.152-1.733
		c3.597,0,6.376,1.147,8.337,3.442c1.962,2.295,2.942,5.542,2.942,9.741v2.393h-17.261c0.179,2.182,0.907,3.906,2.186,5.176
		c1.277,1.27,2.884,1.904,4.821,1.904c2.718,0,4.932-1.099,6.641-3.296l3.198,3.052c-1.059,1.579-2.47,2.804-4.236,3.674
		C472.49,502.553,470.509,502.988,468.312,502.988z M467.604,480.356c-1.628,0-2.941,0.57-3.943,1.709
		c-1,1.14-1.64,2.727-1.916,4.761h11.304v-0.439c-0.131-1.985-0.659-3.487-1.587-4.504
		C470.533,480.865,469.247,480.356,467.604,480.356z"/>
	<path style="fill:#FFFFFF;" d="M488.064,476.084l0.171,3.052c1.953-2.359,4.517-3.54,7.69-3.54c5.501,0,8.301,3.149,8.398,9.448
		V502.5h-5.933v-17.114c0-1.676-0.362-2.917-1.087-3.724c-0.724-0.805-1.908-1.208-3.552-1.208c-2.393,0-4.175,1.083-5.347,3.247
		V502.5h-5.933v-26.416H488.064z"/>
</g>
<path style="fill-rule:evenodd;clip-rule:evenodd;fill:#FEFDFD;" d="M213.233,119.522c1.726-5.277,3.259-9.828,4.695-14.409
	c0.734-2.344,1.923-4.196,4.297-5.154c3.816-1.54,6.456-0.275,7.508,3.647c23.427-23.898,47.188-15.979,61.881,1.932
	c1.167-1.445-0.226-3.224,0.67-4.667c5.528-2.712,9.021-1.347,11.051,4.47c1.579,4.524,3.014,9.098,4.682,14.161
	c4.684-4.639,9.885-4.295,14.997-2.423c13.86,5.075,25.142,13.755,33.091,26.147c6.205,9.673,6.699,20.651,3.045,31.269
	c-8.475,24.625-25.719,40.619-50.4,48.503c-3.502,1.118-4.817,3.311-5.638,6.21c-2.037,7.198-0.828,14.562-0.752,21.851
	c0.182,17.474,0.492,34.947,0.892,52.418c0.06,2.603-1.511,3.488-3.277,4.403c-6.77,3.506-14.13,4.854-21.606,5.55
	c-16.128,1.503-32.224,1.928-48.083-2.326c-0.321-0.086-0.66-0.107-0.978-0.203c-10.687-3.209-11.68-4.499-11.469-15.512
	c0.372-19.468,0.783-38.936,1.216-58.402c0.06-2.687-0.169-5.284-0.941-7.88c-1.031-3.468-2.841-5.368-6.712-6.296
	c-19.468-4.663-47.724-29.269-50.817-54.696c-1.327-10.905,0.485-20.938,7.716-29.481c8.414-9.94,18.361-17.848,30.975-21.855
	C204.07,115.254,208.763,115.202,213.233,119.522z M219.206,137.138c-0.117,8.676-4.137,13.694-12.683,15.511
	c-5.656,1.202-7.932,7.821-4.706,12.669c2.686,4.036,6.188,6.871,11.487,6.711c2.481-0.075,4.974,0.389,7.466,0.508
	c16.414,0.788,32.708,3.858,49.239,2.47c13.429-1.128,26.875-2.062,40.302-3.207c4.801-0.41,10.336-6.055,10.672-10.498
	c0.328-4.319-2.742-7.64-8.578-9.279c-6.186-1.738-9.392-5.762-9.934-12.2c-0.133-1.585,0.927-3.616-1.828-5.141
	c-2.65,10.64-7.87,19.407-16.369,26.015c-8.604,6.688-18.281,10.786-29.201,9.084C236.21,166.84,224.797,155.156,219.206,137.138z
	 M289.279,118.746c-7.63,6.986-15.628,3.564-23.302,3.183C275.744,126.251,285.88,125.167,289.279,118.746z M253.715,122.076
	c-7.462,1.038-14.927,2.179-22.271-0.774C238.729,126.244,246.214,124.431,253.715,122.076z"/>
</svg>
