<?xml version="1.0" encoding="UTF-8" standalone="no"?>
<!-- Generator: Adobe Illustrator 16.0.3, SVG Export Plug-In . SVG Version: 6.00 Build 0)  -->

<svg
   xmlns:dc="http://purl.org/dc/elements/1.1/"
   xmlns:cc="http://creativecommons.org/ns#"
   xmlns:rdf="http://www.w3.org/1999/02/22-rdf-syntax-ns#"
   xmlns:svg="http://www.w3.org/2000/svg"
   xmlns="http://www.w3.org/2000/svg"
   xmlns:sodipodi="http://sodipodi.sourceforge.net/DTD/sodipodi-0.dtd"
   xmlns:inkscape="http://www.inkscape.org/namespaces/inkscape"
   version="1.1"
   id="Ebene_1"
   x="0px"
   y="0px"
   width="60px"
   height="60px"
   viewBox="0 0 60 60"
   style="enable-background:new 0 0 60 60;"
   xml:space="preserve"
   sodipodi:docname="visual_qr_ad_nauseam_de.svg"
   inkscape:version="0.92.4 (5da689c313, 2019-01-14)"><metadata
   id="metadata80"><rdf:RDF><cc:Work
       rdf:about=""><dc:format>image/svg+xml</dc:format><dc:type
         rdf:resource="http://purl.org/dc/dcmitype/StillImage" /><dc:title></dc:title></cc:Work></rdf:RDF></metadata><defs
   id="defs78" /><sodipodi:namedview
   pagecolor="#ffffff"
   bordercolor="#666666"
   borderopacity="1"
   objecttolerance="10"
   gridtolerance="10"
   guidetolerance="10"
   inkscape:pageopacity="0"
   inkscape:pageshadow="2"
   inkscape:window-width="731"
   inkscape:window-height="480"
   id="namedview76"
   showgrid="false"
   inkscape:zoom="3.9333333"
   inkscape:cx="30"
   inkscape:cy="30"
   inkscape:window-x="0"
   inkscape:window-y="0"
   inkscape:window-maximized="0"
   inkscape:current-layer="Ebene_1" />
<rect
   style="fill:#A0B983;"
   width="60"
   height="60"
   id="rect2" />
<g
   id="g24">
	<rect
   x="0.167"
   y="51.002"
   style="fill:none;"
   width="59.665"
   height="10.998"
   id="rect4" />
	<path
   style="fill:#FFFFFF;"
   d="M12.672,54.634l-0.406,1.338h-0.89l1.513-4.721h1.1l1.534,4.721h-0.925l-0.427-1.338H12.672z    M14.024,53.982l-0.371-1.162c-0.091-0.287-0.168-0.609-0.238-0.883h-0.014c-0.07,0.273-0.14,0.603-0.224,0.883l-0.364,1.162   H14.024z"
   id="path6" />
	<path
   style="fill:#FFFFFF;"
   d="M19.128,50.999v4.013c0,0.351,0.014,0.729,0.028,0.96h-0.77l-0.035-0.539h-0.014   c-0.203,0.378-0.616,0.616-1.113,0.616c-0.813,0-1.457-0.693-1.457-1.744c-0.007-1.142,0.708-1.821,1.527-1.821   c0.469,0,0.806,0.196,0.959,0.448h0.014v-1.933H19.128z M18.267,53.982c0-0.07-0.007-0.154-0.021-0.224   c-0.077-0.337-0.35-0.609-0.743-0.609c-0.553,0-0.861,0.49-0.861,1.127c0,0.624,0.308,1.079,0.854,1.079   c0.35,0,0.658-0.238,0.742-0.609c0.021-0.077,0.028-0.161,0.028-0.252V53.982z"
   id="path8" />
	<path
   style="fill:#FFFFFF;"
   d="M21.394,55.972v-4.721h0.981l1.218,2.024c0.315,0.525,0.588,1.071,0.806,1.583h0.014   c-0.056-0.631-0.077-1.24-0.077-1.961v-1.646h0.798v4.721h-0.89l-1.232-2.073c-0.301-0.519-0.616-1.1-0.848-1.632l-0.021,0.007   c0.035,0.609,0.042,1.232,0.042,2.011v1.688H21.394z"
   id="path10" />
	<path
   style="fill:#FFFFFF;"
   d="M27.94,55.972l-0.056-0.378h-0.021c-0.21,0.266-0.567,0.455-1.008,0.455   c-0.687,0-1.072-0.497-1.072-1.016c0-0.861,0.763-1.296,2.024-1.289v-0.056c0-0.225-0.091-0.596-0.693-0.596   c-0.336,0-0.686,0.105-0.917,0.253l-0.168-0.561c0.252-0.154,0.693-0.302,1.233-0.302c1.093,0,1.407,0.693,1.407,1.437v1.232   c0,0.308,0.015,0.609,0.05,0.819H27.94z M27.828,54.305c-0.609-0.014-1.19,0.119-1.19,0.638c0,0.336,0.217,0.49,0.49,0.49   c0.343,0,0.595-0.225,0.672-0.47c0.021-0.063,0.028-0.133,0.028-0.188V54.305z"
   id="path12" />
	<path
   style="fill:#FFFFFF;"
   d="M32.561,54.949c0,0.406,0.015,0.742,0.028,1.022h-0.757l-0.042-0.519h-0.014   c-0.147,0.245-0.483,0.596-1.093,0.596c-0.623,0-1.19-0.371-1.19-1.485v-2.003h0.861v1.856c0,0.567,0.183,0.932,0.638,0.932   c0.343,0,0.567-0.245,0.658-0.463c0.028-0.077,0.049-0.168,0.049-0.266v-2.06h0.861V54.949z"
   id="path14" />
	<path
   style="fill:#FFFFFF;"
   d="M33.377,55.181c0.196,0.118,0.567,0.245,0.876,0.245c0.378,0,0.546-0.154,0.546-0.379   c0-0.23-0.14-0.35-0.561-0.497c-0.665-0.231-0.945-0.595-0.938-0.994c0-0.603,0.498-1.072,1.289-1.072   c0.378,0,0.707,0.099,0.903,0.203l-0.168,0.609c-0.147-0.084-0.42-0.195-0.722-0.195c-0.308,0-0.476,0.146-0.476,0.356   c0,0.218,0.161,0.322,0.595,0.477c0.616,0.224,0.903,0.539,0.911,1.044c0,0.616-0.483,1.064-1.387,1.064   c-0.414,0-0.785-0.099-1.037-0.238L33.377,55.181z"
   id="path16" />
	<path
   style="fill:#FFFFFF;"
   d="M36.877,54.508c0.021,0.616,0.505,0.883,1.051,0.883c0.399,0,0.687-0.057,0.945-0.154l0.126,0.596   c-0.294,0.118-0.7,0.21-1.19,0.21c-1.106,0-1.758-0.68-1.758-1.724c0-0.945,0.574-1.835,1.667-1.835   c1.106,0,1.471,0.911,1.471,1.66c0,0.161-0.014,0.287-0.028,0.364H36.877z M38.376,53.905c0.007-0.314-0.133-0.833-0.707-0.833   c-0.532,0-0.757,0.483-0.792,0.833H38.376z"
   id="path18" />
	<path
   style="fill:#FFFFFF;"
   d="M41.729,55.972l-0.056-0.378h-0.021c-0.211,0.266-0.567,0.455-1.009,0.455   c-0.687,0-1.072-0.497-1.072-1.016c0-0.861,0.764-1.296,2.024-1.289v-0.056c0-0.225-0.091-0.596-0.693-0.596   c-0.336,0-0.687,0.105-0.917,0.253l-0.168-0.561c0.252-0.154,0.693-0.302,1.232-0.302c1.093,0,1.407,0.693,1.407,1.437v1.232   c0,0.308,0.015,0.609,0.05,0.819H41.729z M41.618,54.305c-0.609-0.014-1.191,0.119-1.191,0.638c0,0.336,0.218,0.49,0.491,0.49   c0.343,0,0.595-0.225,0.672-0.47c0.021-0.063,0.028-0.133,0.028-0.188V54.305z"
   id="path20" />
	<path
   style="fill:#FFFFFF;"
   d="M43.296,53.576c0-0.392-0.007-0.721-0.027-1.016h0.742l0.035,0.505h0.021   c0.168-0.267,0.477-0.582,1.051-0.582c0.448,0,0.799,0.253,0.945,0.631h0.015c0.118-0.189,0.259-0.329,0.42-0.428   c0.189-0.133,0.406-0.203,0.687-0.203c0.567,0,1.142,0.386,1.142,1.479v2.01h-0.841v-1.884c0-0.567-0.196-0.903-0.609-0.903   c-0.294,0-0.511,0.21-0.603,0.455c-0.021,0.084-0.042,0.188-0.042,0.287v2.045h-0.84v-1.975c0-0.477-0.189-0.813-0.589-0.813   c-0.322,0-0.539,0.252-0.616,0.49c-0.035,0.084-0.049,0.182-0.049,0.28v2.017h-0.841V53.576z"
   id="path22" />
</g>
<g
   id="g41"
   transform="translate(-7.561529,-21.467778)">
	<g
   id="Bild"
   transform="translate(8.6,22.5)">
		
			<sodipodi:namedview
   units="mm"
   showguides="true"
   inkscape:cy="140.10525"
   inkscape:cx="100.8875"
   inkscape:zoom="1.4"
   showgrid="false"
   borderopacity="1.0"
   bordercolor="#666666"
   pagecolor="#ffffff"
   id="base"
   inkscape:document-units="mm"
   inkscape:guide-bbox="true"
   inkscape:current-layer="layer1"
   inkscape:window-maximized="1"
   inkscape:window-y="0"
   inkscape:window-x="0"
   inkscape:window-height="700"
   inkscape:window-width="667"
   inkscape:pageshadow="2"
   inkscape:pageopacity="0.0">
			<sodipodi:guide
   orientation="1,0"
   position="191.33858,0"
   id="guide21487" />
			<sodipodi:guide
   orientation="0,1"
   position="0,304.72441"
   id="guide21489" />
			<sodipodi:guide
   orientation="0,1"
   position="0,322.44094"
   id="guide26097" />
		</sodipodi:namedview>
		<g
   id="layer1"
   transform="translate(0,-910.62992)"
   inkscape:label="Ebene 1"
   inkscape:groupmode="layer">
			<path
   id="path5232-3-9-9"
   inkscape:connector-curvature="0"
   style="fill:#FFFFFF;"
   d="M33.549,912.726     c-4.278,0-7.761,3.483-7.761,7.765c0,4.279,3.483,7.763,7.761,7.763c4.281,0,7.764-3.483,7.764-7.763     C41.313,916.209,37.831,912.726,33.549,912.726z M33.549,914.037c3.57,0,6.453,2.883,6.453,6.453     c0,3.567-2.883,6.451-6.453,6.451c-3.566,0-6.451-2.884-6.451-6.451C27.099,916.92,29.983,914.037,33.549,914.037z      M19.115,915.093c-2.834,0-5.14,2.297-5.14,5.13c0,2.833,2.306,5.141,5.14,5.141c2.833,0,5.13-2.308,5.13-5.141     C24.245,917.39,21.947,915.093,19.115,915.093z M32.68,915.592l-3.469,8.727h1.705l0.86-2.227h3.284l0.856,2.227h1.695     l-3.468-8.727H32.68z M19.115,915.964c2.362,0,4.259,1.896,4.259,4.259s-1.896,4.271-4.259,4.271s-4.271-1.909-4.271-4.271     S16.753,915.964,19.115,915.964z M18.535,916.985l-2.297,5.778h1.137l0.557-1.473h2.182l0.569,1.473h1.113l-2.297-5.778H18.535z      M33.4,917.691h0.034c0.307,0.911,0.574,1.669,0.813,2.287l0.3,0.777h-2.261l0.3-0.777     C32.826,919.365,33.096,918.607,33.4,917.691L33.4,917.691z M19.01,918.377h0.023c0.202,0.603,0.375,1.1,0.533,1.51l0.197,0.521     H18.28l0.197-0.521C18.635,919.48,18.808,918.982,19.01,918.377z M46.815,921.394c-1.457,0-2.646,1.188-2.646,2.646     s1.188,2.636,2.646,2.636c1.459,0,2.646-1.178,2.646-2.636S48.274,921.394,46.815,921.394z M46.815,921.835     c1.217,0,2.192,0.99,2.192,2.205c0,1.217-0.976,2.194-2.192,2.194s-2.192-0.978-2.192-2.194     C44.623,922.825,45.598,921.835,46.815,921.835z M46.515,922.37l-1.173,2.97h0.578l0.291-0.754h1.113l0.291,0.754h0.582     l-1.186-2.97H46.515z M46.768,923.076c0.106,0.311,0.196,0.567,0.278,0.779l0.106,0.266h-0.766l0.103-0.266     C46.572,923.646,46.667,923.389,46.768,923.076z M16.225,926.118c-4.28,0-7.763,3.483-7.763,7.764s3.483,7.762,7.763,7.762     c4.28,0,7.763-3.481,7.763-7.762S20.505,926.118,16.225,926.118z M16.225,927.429c3.57,0,6.441,2.883,6.441,6.453     c0,3.568-2.871,6.451-6.441,6.451c-3.569,0-6.452-2.883-6.452-6.451C9.773,930.312,12.656,927.429,16.225,927.429z      M41.432,927.429c-4.283,0-7.766,3.483-7.766,7.764c0,4.281,3.482,7.765,7.766,7.765c4.28,0,7.764-3.483,7.764-7.765     C49.196,930.912,45.713,927.429,41.432,927.429z M29.223,927.951c-1.458,0-2.646,1.188-2.646,2.646     c0,1.457,1.189,2.646,2.646,2.646s2.644-1.189,2.644-2.646C31.867,929.14,30.68,927.951,29.223,927.951z M29.223,928.403     c1.215,0,2.195,0.979,2.195,2.194c0,1.215-0.979,2.205-2.195,2.205s-2.193-0.99-2.193-2.205     C27.03,929.382,28.007,928.403,29.223,928.403z M41.432,928.752c3.566,0,6.449,2.872,6.449,6.44c0,3.569-2.883,6.451-6.449,6.451     c-3.569,0-6.452-2.882-6.452-6.451C34.98,931.624,37.863,928.752,41.432,928.752z M28.921,928.926l-1.171,2.982h0.58l0.289-0.765     h1.114l0.29,0.765h0.582l-1.185-2.982H28.921z M15.356,928.983l-3.471,8.727h1.707l0.846-2.227h3.296l0.859,2.227h1.683     l-3.458-8.727H15.356z M29.176,929.645c0.104,0.312,0.196,0.568,0.278,0.778l0.104,0.267h-0.766l0.105-0.267     C28.979,930.215,29.072,929.957,29.176,929.645z M40.559,930.296l-3.469,8.727h1.705l0.86-2.229h3.284l0.856,2.229h1.695     l-3.468-8.727H40.559z M16.075,931.084h0.023c0.303,0.91,0.583,1.669,0.822,2.286l0.291,0.777H14.96l0.302-0.777     C15.501,932.758,15.77,931.999,16.075,931.084z M41.279,932.397h0.034c0.307,0.909,0.574,1.669,0.813,2.286l0.304,0.777h-2.265     l0.304-0.777C40.709,934.067,40.975,933.31,41.279,932.397L41.279,932.397z M28.829,936.353c-2.834,0-5.143,2.309-5.143,5.141     c0,2.833,2.309,5.143,5.143,5.143s5.141-2.31,5.141-5.143C33.969,938.661,31.663,936.353,28.829,936.353z M28.829,937.234     c2.36,0,4.271,1.897,4.271,4.259c0,2.362-1.911,4.273-4.271,4.273c-2.362,0-4.271-1.911-4.271-4.273     C24.558,939.131,26.466,937.234,28.829,937.234z M28.249,938.256l-2.287,5.78h1.126l0.557-1.473h2.182l0.568,1.473h1.113     l-2.285-5.78H28.249z M28.734,939.639h0.013c0.202,0.603,0.386,1.11,0.544,1.521l0.199,0.51h-1.499l0.199-0.51     C28.349,940.752,28.533,940.242,28.734,939.639L28.734,939.639z M14.519,942.4c-1.458,0-2.645,1.188-2.645,2.646     c0,1.455,1.187,2.643,2.645,2.643c1.459,0,2.646-1.188,2.646-2.643C17.165,943.588,15.978,942.4,14.519,942.4z M14.519,942.851     c1.217,0,2.194,0.979,2.194,2.196c0,1.213-0.978,2.192-2.194,2.192c-1.215,0-2.204-0.979-2.204-2.192     C12.315,943.83,13.303,942.851,14.519,942.851z M14.217,943.373l-1.172,2.972h0.58l0.291-0.754h1.113l0.29,0.754h0.58     l-1.182-2.972H14.217z M14.473,944.084c0.104,0.309,0.197,0.576,0.278,0.788l0.105,0.255H14.09l0.105-0.255     C14.277,944.662,14.369,944.394,14.473,944.084z M42.615,945.81c-1.46,0-2.646,1.19-2.646,2.646c0,1.459,1.187,2.646,2.646,2.646     c1.459,0,2.646-1.188,2.646-2.646C45.261,947,44.074,945.81,42.615,945.81z M22.26,946.079c-2.834,0-5.141,2.307-5.141,5.139     c0,2.836,2.307,5.13,5.141,5.13c2.832,0,5.141-2.294,5.141-5.13C27.401,948.386,25.092,946.079,22.26,946.079z M42.615,946.264     c1.217,0,2.192,0.979,2.192,2.192c0,1.217-0.976,2.196-2.192,2.196s-2.192-0.979-2.192-2.196     C40.422,947.243,41.398,946.264,42.615,946.264z M42.315,946.786l-1.174,2.972h0.578l0.292-0.754h1.113l0.291,0.754h0.581     l-1.185-2.972H42.315z M22.26,946.948c2.362,0,4.269,1.907,4.269,4.27s-1.907,4.261-4.269,4.261s-4.271-1.898-4.271-4.261     S19.898,946.948,22.26,946.948z M42.568,947.505c0.105,0.309,0.196,0.567,0.278,0.779l0.106,0.266h-0.767l0.104-0.266     C42.371,948.074,42.465,947.815,42.568,947.505z M21.691,947.97l-2.297,5.778h1.126l0.567-1.473h2.171l0.569,1.473h1.125     l-2.297-5.778H21.691z M22.166,949.363h0.013c0.202,0.603,0.386,1.098,0.546,1.508l0.197,0.522h-1.498l0.198-0.522     C21.78,950.464,21.964,949.969,22.166,949.363z M31.845,950.012c-1.459,0-2.646,1.189-2.646,2.645     c0,1.459,1.187,2.646,2.646,2.646s2.646-1.188,2.646-2.646C34.492,951.201,33.304,950.012,31.845,950.012z M31.845,950.464     c1.217,0,2.192,0.979,2.192,2.192c0,1.217-0.976,2.196-2.192,2.196s-2.193-0.979-2.193-2.196     C29.652,951.443,30.629,950.464,31.845,950.464z M31.554,950.986l-1.182,2.972h0.578l0.291-0.754h1.126l0.291,0.754h0.566     l-1.17-2.972H31.554z M31.798,951.706h0.013c0.103,0.309,0.196,0.567,0.278,0.779l0.094,0.266h-0.766l0.103-0.266     C31.602,952.275,31.696,952.016,31.798,951.706z" />
			<g
   id="text4952-6"
   transform="translate(1884.2937,-1137.4433)">
			</g>
			<g
   id="text5036-8"
   transform="translate(1884.2937,-1137.4433)">
			</g>
			<g
   id="text5042-9"
   transform="translate(1884.2937,-1137.4433)">
			</g>
			<g
   id="text5048-5"
   transform="translate(1884.2937,-1137.4433)">
			</g>
			<g
   id="text5054-4"
   transform="translate(1884.2937,-1137.4433)">
			</g>
			<g
   id="text5060-6"
   transform="translate(1884.2937,-1137.4433)">
			</g>
			<g
   id="text5066-1"
   transform="translate(1884.2937,-1137.4433)">
			</g>
			<g
   id="text5072-2"
   transform="translate(1884.2937,-1137.4433)">
			</g>
			<g
   id="text5078-7"
   transform="translate(1884.2937,-1137.4433)">
			</g>
			<g
   id="text5084-2"
   transform="translate(1884.2937,-1137.4433)">
			</g>
			<g
   id="text5090-1"
   transform="translate(1884.2937,-1137.4433)">
			</g>
		</g>
	</g>
</g>
<g
   id="g45">
</g>
<g
   id="g47">
</g>
<g
   id="g49">
</g>
<g
   id="g51">
</g>
<g
   id="g53">
</g>
<g
   id="g55">
</g>
<g
   id="g57">
</g>
<g
   id="g59">
</g>
<g
   id="g61">
</g>
<g
   id="g63">
</g>
<g
   id="g65">
</g>
<g
   id="g67">
</g>
<g
   id="g69">
</g>
<g
   id="g71">
</g>
<g
   id="g73">
</g>
</svg>