<?xml version="1.0" encoding="utf-8"?>
<!-- Generator: Adobe Illustrator 22.0.1, SVG Export Plug-In . SVG Version: 6.00 Build 0)  -->
<svg version="1.1" id="Ebene_1" xmlns="http://www.w3.org/2000/svg" xmlns:xlink="http://www.w3.org/1999/xlink" x="0px" y="0px"
	 viewBox="0 0 300.5 300.5" style="enable-background:new 0 0 300.5 300.5;" xml:space="preserve">
<style type="text/css">
	.st0{fill:#EACD99;}
	.st1{enable-background:new    ;}
	.st2{fill:#3A3326;}
	.st3{fill:none;stroke:#C1272D;stroke-width:4;stroke-miterlimit:10;}
	.st4{fill:none;stroke:#FFFFFF;stroke-width:4;stroke-miterlimit:10;}
	.st5{fill:none;stroke:#000000;stroke-width:4;stroke-miterlimit:10;stroke-dasharray:4;}
	.st6{fill:#C1272D;}
</style>
<path class="st0" d="M238.2,300.5H62.4c-34.3,0-62.4-28-62.4-62.3V62.4C0,28.1,28.1,0,62.4,0h175.8c34.3,0,62.4,28.1,62.4,62.4
	v175.8C300.5,272.5,272.5,300.5,238.2,300.5z"/>
<g>
	<g class="st1">
		<path d="M133.8,113v-3.7l3.4-3c5.7-5.1,8.4-8,8.5-11c0-2.1-1.3-3.8-4.3-3.8c-2.2,0-4.2,1.1-5.6,2.2l-1.7-4.4c2-1.5,5-2.7,8.5-2.7
			c5.9,0,9.1,3.4,9.1,8.2c0,4.4-3.2,7.8-6.9,11.2l-2.4,2v0.1h9.8v5H133.8z"/>
	</g>
</g>
<g>
	<g class="st1">
		<path d="M262.1,193c1.1,0.6,3.6,1.6,6,1.6c3.2,0,4.8-1.5,4.8-3.5c0-2.6-2.6-3.7-5.2-3.7h-2.5v-4.4h2.4c2,0,4.6-0.8,4.6-3
			c0-1.6-1.3-2.7-3.8-2.7c-2.1,0-4.4,0.9-5.4,1.6l-1.2-4.4c1.6-1,4.7-2,8-2c5.6,0,8.6,2.9,8.6,6.5c0,2.8-1.6,4.9-4.8,6v0.1
			c3.1,0.6,5.6,2.9,5.6,6.3c0,4.6-4,8-10.6,8c-3.4,0-6.2-0.9-7.7-1.8L262.1,193z"/>
	</g>
</g>
<g>
	<g class="st1">
		<path d="M36.5,177.7L36.5,177.7l-5,2.4l-1-4.6l6.9-3.2h5v26h-5.9V177.7z"/>
	</g>
</g>
<g class="st1">
	<path class="st2" d="M83,219.6h5.9v14.9H89c0.8-1.2,1.6-2.4,2.4-3.5l8.4-11.4h7.3L96,233.4l11.9,18.6h-6.9l-9.2-14.8l-2.9,3.5V252
		H83V219.6z"/>
	<path class="st2" d="M110.9,217.9h6V252h-6V217.9z"/>
	<path class="st2" d="M129.5,222.1c0,1.8-1.3,3.2-3.4,3.2c-2,0-3.3-1.4-3.3-3.2c0-1.8,1.3-3.2,3.3-3.2
		C128.2,218.9,129.5,220.2,129.5,222.1z M123.2,252v-23.4h6V252H123.2z"/>
	<path class="st2" d="M135.5,235.6c0-2.7,0-4.9-0.2-7h5.1l0.2,3.5h0.1c1.2-1.8,3.3-4,7.2-4c3.1,0,5.5,1.7,6.5,4.3h0.1
		c0.8-1.3,1.8-2.3,2.9-2.9c1.3-0.9,2.8-1.4,4.7-1.4c3.9,0,7.8,2.6,7.8,10.1V252h-5.8v-12.9c0-3.9-1.3-6.2-4.2-6.2
		c-2,0-3.5,1.4-4.1,3.1c-0.1,0.6-0.3,1.3-0.3,2v14h-5.8v-13.5c0-3.3-1.3-5.6-4-5.6c-2.2,0-3.7,1.7-4.2,3.4c-0.2,0.6-0.3,1.2-0.3,1.9
		V252h-5.8V235.6z"/>
	<path class="st2" d="M189.4,252l-0.4-2.6h-0.1c-1.4,1.8-3.9,3.1-6.9,3.1c-4.7,0-7.3-3.4-7.3-7c0-5.9,5.2-8.9,13.9-8.8v-0.4
		c0-1.5-0.6-4.1-4.8-4.1c-2.3,0-4.7,0.7-6.3,1.7l-1.2-3.8c1.7-1.1,4.8-2.1,8.4-2.1c7.5,0,9.6,4.8,9.6,9.8v8.4c0,2.1,0.1,4.2,0.3,5.6
		H189.4z M188.6,240.5c-4.2-0.1-8.2,0.8-8.2,4.4c0,2.3,1.5,3.4,3.4,3.4c2.4,0,4.1-1.5,4.6-3.2c0.1-0.4,0.2-0.9,0.2-1.3V240.5z"/>
	<path class="st2" d="M204.5,228.6l2.8,4.4c0.8,1.2,1.4,2.4,2.1,3.6h0.1c0.7-1.3,1.3-2.5,2-3.7l2.6-4.3h6.4l-7.8,11.2l8,12.1h-6.7
		l-2.9-4.7c-0.8-1.2-1.4-2.5-2.1-3.8H209c-0.7,1.3-1.3,2.5-2.1,3.8l-2.7,4.7h-6.5l8.1-11.9l-7.8-11.5H204.5z"/>
</g>
<path class="st3" d="M94.7,160.6"/>
<path class="st3" d="M130,82.6"/>
<path class="st3" d="M213.7,133"/>
<path class="st3" d="M175.1,82.6"/>
<polyline class="st4" points="50.7,185 206.4,92.1 246.2,185 "/>
<line class="st5" x1="98.5" y1="187.2" x2="98.5" y2="78.7"/>
<line class="st5" x1="189.5" y1="187.2" x2="189.5" y2="78.7"/>
<circle class="st6" cx="207.1" cy="92.8" r="12.7"/>
<path class="st6" d="M50.9,201"/>
</svg>
