<?xml version="1.0" encoding="UTF-8" standalone="no"?>
<!-- Generator: Adobe Illustrator 16.0.3, SVG Export Plug-In . SVG Version: 6.00 Build 0)  -->

<svg
   xmlns:dc="http://purl.org/dc/elements/1.1/"
   xmlns:cc="http://creativecommons.org/ns#"
   xmlns:rdf="http://www.w3.org/1999/02/22-rdf-syntax-ns#"
   xmlns:svg="http://www.w3.org/2000/svg"
   xmlns="http://www.w3.org/2000/svg"
   xmlns:sodipodi="http://sodipodi.sourceforge.net/DTD/sodipodi-0.dtd"
   xmlns:inkscape="http://www.inkscape.org/namespaces/inkscape"
   version="1.1"
   id="Ebene_1"
   x="0px"
   y="0px"
   width="60px"
   height="60px"
   viewBox="0 0 60 60"
   style="enable-background:new 0 0 60 60;"
   xml:space="preserve"
   sodipodi:docname="visual_qr_autoritaetsargument_de.svg"
   inkscape:version="0.92.4 (5da689c313, 2019-01-14)"><metadata
   id="metadata89"><rdf:RDF><cc:Work
       rdf:about=""><dc:format>image/svg+xml</dc:format><dc:type
         rdf:resource="http://purl.org/dc/dcmitype/StillImage" /><dc:title></dc:title></cc:Work></rdf:RDF></metadata><defs
   id="defs87" /><sodipodi:namedview
   pagecolor="#ffffff"
   bordercolor="#666666"
   borderopacity="1"
   objecttolerance="10"
   gridtolerance="10"
   guidetolerance="10"
   inkscape:pageopacity="0"
   inkscape:pageshadow="2"
   inkscape:window-width="731"
   inkscape:window-height="480"
   id="namedview85"
   showgrid="false"
   inkscape:zoom="3.9333333"
   inkscape:cx="30"
   inkscape:cy="30"
   inkscape:window-x="0"
   inkscape:window-y="0"
   inkscape:window-maximized="0"
   inkscape:current-layer="Ebene_1" />
<rect
   style="fill:#A0B983;"
   width="60"
   height="60"
   id="rect2" />
<g
   id="g44">
	<rect
   x="0.167"
   y="46.038"
   style="fill:none;"
   width="59.665"
   height="21.212"
   id="rect4" />
	<path
   style="fill:#FFFFFF;"
   d="M15.525,49.67l-0.406,1.338h-0.89l1.513-4.721h1.1l1.534,4.721h-0.925l-0.427-1.338H15.525z    M16.876,49.019l-0.371-1.162c-0.091-0.287-0.168-0.609-0.238-0.883h-0.014c-0.07,0.273-0.14,0.603-0.224,0.883l-0.364,1.162   H16.876z"
   id="path6" />
	<path
   style="fill:#FFFFFF;"
   d="M21.882,49.985c0,0.406,0.014,0.742,0.028,1.022h-0.756l-0.042-0.519h-0.014   c-0.147,0.245-0.483,0.596-1.093,0.596c-0.623,0-1.19-0.371-1.19-1.485v-2.003h0.861v1.856c0,0.567,0.182,0.932,0.638,0.932   c0.343,0,0.567-0.245,0.658-0.463c0.028-0.077,0.049-0.168,0.049-0.266v-2.06h0.862V49.985z"
   id="path8" />
	<path
   style="fill:#FFFFFF;"
   d="M23.729,46.623v0.974h0.819v0.645h-0.819v1.506c0,0.413,0.112,0.631,0.441,0.631   c0.147,0,0.259-0.021,0.336-0.042l0.014,0.658c-0.126,0.049-0.35,0.084-0.624,0.084c-0.315,0-0.581-0.105-0.742-0.28   c-0.182-0.196-0.266-0.505-0.266-0.953v-1.604h-0.49v-0.645h0.49v-0.771L23.729,46.623z"
   id="path10" />
	<path
   style="fill:#FFFFFF;"
   d="M28.329,49.271c0,1.254-0.882,1.814-1.751,1.814c-0.967,0-1.709-0.665-1.709-1.758   c0-1.121,0.735-1.808,1.765-1.808C27.649,47.52,28.329,48.234,28.329,49.271z M25.759,49.306c0,0.658,0.322,1.156,0.847,1.156   c0.49,0,0.833-0.483,0.833-1.17c0-0.532-0.238-1.142-0.826-1.142C26.004,48.15,25.759,48.738,25.759,49.306z"
   id="path12" />
	<path
   style="fill:#FFFFFF;"
   d="M28.964,48.696c0-0.462-0.007-0.791-0.027-1.1h0.749l0.028,0.651h0.027   c0.169-0.483,0.567-0.729,0.932-0.729c0.084,0,0.134,0.008,0.203,0.021v0.813c-0.069-0.014-0.146-0.028-0.252-0.028   c-0.413,0-0.693,0.267-0.771,0.651c-0.014,0.077-0.028,0.168-0.028,0.267v1.765h-0.861V48.696z"
   id="path14" />
	<path
   style="fill:#FFFFFF;"
   d="M32.305,46.645c0,0.259-0.189,0.462-0.49,0.462c-0.287,0-0.477-0.203-0.477-0.462   c0-0.267,0.196-0.47,0.483-0.47C32.115,46.175,32.298,46.378,32.305,46.645z M31.387,51.008v-3.411h0.869v3.411H31.387z"
   id="path16" />
	<path
   style="fill:#FFFFFF;"
   d="M34.097,46.623v0.974h0.819v0.645h-0.819v1.506c0,0.413,0.111,0.631,0.44,0.631   c0.147,0,0.26-0.021,0.337-0.042l0.014,0.658c-0.126,0.049-0.351,0.084-0.623,0.084c-0.315,0-0.582-0.105-0.743-0.28   c-0.182-0.196-0.266-0.505-0.266-0.953v-1.604h-0.49v-0.645h0.49v-0.771L34.097,46.623z"
   id="path18" />
	<path
   style="fill:#FFFFFF;"
   d="M37.414,51.008l-0.056-0.378h-0.021c-0.211,0.266-0.567,0.455-1.009,0.455   c-0.687,0-1.071-0.497-1.071-1.016c0-0.861,0.763-1.296,2.023-1.289v-0.056c0-0.225-0.091-0.596-0.693-0.596   c-0.336,0-0.687,0.105-0.917,0.253l-0.168-0.561c0.252-0.154,0.693-0.302,1.232-0.302c1.093,0,1.407,0.693,1.407,1.437v1.232   c0,0.308,0.015,0.609,0.05,0.819H37.414z M35.685,46.638c0-0.245,0.189-0.435,0.441-0.435c0.23,0,0.413,0.183,0.413,0.435   c0,0.23-0.175,0.427-0.42,0.427C35.866,47.064,35.685,46.868,35.685,46.638z M37.303,49.341c-0.609-0.014-1.191,0.119-1.191,0.638   c0,0.336,0.218,0.49,0.49,0.49c0.344,0,0.596-0.225,0.673-0.47c0.021-0.063,0.028-0.133,0.028-0.188V49.341z M37.085,46.638   c0-0.245,0.183-0.435,0.428-0.435s0.42,0.183,0.42,0.435c0,0.23-0.175,0.427-0.42,0.427C37.261,47.064,37.085,46.868,37.085,46.638   z"
   id="path20" />
	<path
   style="fill:#FFFFFF;"
   d="M39.928,46.623v0.974h0.819v0.645h-0.819v1.506c0,0.413,0.111,0.631,0.44,0.631   c0.147,0,0.26-0.021,0.337-0.042l0.014,0.658c-0.126,0.049-0.351,0.084-0.623,0.084c-0.315,0-0.582-0.105-0.743-0.28   c-0.182-0.196-0.266-0.505-0.266-0.953v-1.604h-0.49v-0.645h0.49v-0.771L39.928,46.623z"
   id="path22" />
	<path
   style="fill:#FFFFFF;"
   d="M41.284,50.217c0.196,0.119,0.567,0.245,0.876,0.245c0.378,0,0.546-0.154,0.546-0.379   c0-0.23-0.14-0.35-0.561-0.497c-0.665-0.231-0.945-0.596-0.938-0.994c0-0.603,0.498-1.072,1.289-1.072   c0.378,0,0.707,0.099,0.903,0.203l-0.168,0.609c-0.147-0.084-0.42-0.195-0.722-0.195c-0.308,0-0.476,0.146-0.476,0.356   c0,0.218,0.161,0.322,0.595,0.477c0.616,0.224,0.903,0.539,0.911,1.044c0,0.616-0.483,1.064-1.387,1.064   c-0.414,0-0.785-0.099-1.037-0.238L41.284,50.217z"
   id="path24" />
	<path
   style="fill:#FFFFFF;"
   d="M45.709,48.844v0.596h-1.786v-0.596H45.709z"
   id="path26" />
	<path
   style="fill:#FFFFFF;"
   d="M17.646,58.008L17.59,57.63h-0.021c-0.21,0.266-0.567,0.455-1.008,0.455   c-0.687,0-1.072-0.497-1.072-1.016c0-0.861,0.763-1.296,2.024-1.289v-0.056c0-0.225-0.091-0.596-0.693-0.596   c-0.336,0-0.686,0.105-0.917,0.253l-0.168-0.561c0.252-0.154,0.693-0.302,1.233-0.302c1.092,0,1.408,0.693,1.408,1.437v1.232   c0,0.308,0.014,0.609,0.049,0.819H17.646z M17.534,56.341c-0.609-0.014-1.19,0.119-1.19,0.638c0,0.336,0.217,0.49,0.49,0.49   c0.343,0,0.595-0.225,0.672-0.47c0.021-0.063,0.028-0.133,0.028-0.188V56.341z"
   id="path28" />
	<path
   style="fill:#FFFFFF;"
   d="M19.214,55.696c0-0.462-0.007-0.791-0.028-1.1h0.75l0.028,0.651h0.028   c0.168-0.483,0.567-0.729,0.932-0.729c0.084,0,0.133,0.008,0.203,0.021v0.813c-0.07-0.014-0.147-0.028-0.252-0.028   c-0.413,0-0.693,0.267-0.771,0.651c-0.014,0.077-0.028,0.168-0.028,0.267v1.765h-0.861V55.696z"
   id="path30" />
	<path
   style="fill:#FFFFFF;"
   d="M24.696,54.597c-0.014,0.231-0.028,0.512-0.028,0.98v1.934c0,0.714-0.147,1.226-0.504,1.548   c-0.357,0.315-0.848,0.413-1.317,0.413c-0.434,0-0.896-0.091-1.191-0.273l0.189-0.651c0.217,0.126,0.581,0.26,0.995,0.26   c0.56,0,0.98-0.295,0.98-1.03v-0.294h-0.014c-0.196,0.301-0.546,0.504-0.995,0.504c-0.847,0-1.45-0.7-1.45-1.666   c0-1.121,0.729-1.801,1.548-1.801c0.518,0,0.827,0.253,0.987,0.532h0.014l0.035-0.455H24.696z M23.806,55.963   c0-0.077-0.007-0.161-0.028-0.231c-0.091-0.315-0.336-0.553-0.701-0.553c-0.483,0-0.84,0.42-0.84,1.113   c0,0.581,0.294,1.051,0.833,1.051c0.322,0,0.602-0.21,0.7-0.519c0.021-0.091,0.035-0.21,0.035-0.309V55.963z"
   id="path32" />
	<path
   style="fill:#FFFFFF;"
   d="M28.574,56.985c0,0.406,0.014,0.742,0.027,1.022h-0.756l-0.042-0.519H27.79   c-0.147,0.245-0.483,0.596-1.093,0.596c-0.623,0-1.19-0.371-1.19-1.485v-2.003h0.861v1.856c0,0.567,0.182,0.932,0.638,0.932   c0.343,0,0.567-0.245,0.658-0.463c0.028-0.077,0.049-0.168,0.049-0.266v-2.06h0.862V56.985z"
   id="path34" />
	<path
   style="fill:#FFFFFF;"
   d="M29.433,55.612c0-0.392-0.007-0.721-0.027-1.016h0.742l0.035,0.505h0.021   c0.168-0.267,0.477-0.582,1.051-0.582c0.448,0,0.799,0.253,0.945,0.631h0.015c0.118-0.189,0.259-0.329,0.42-0.428   c0.189-0.133,0.406-0.203,0.687-0.203c0.567,0,1.142,0.386,1.142,1.479v2.01h-0.841v-1.884c0-0.567-0.196-0.903-0.609-0.903   c-0.294,0-0.511,0.21-0.603,0.455c-0.021,0.084-0.042,0.188-0.042,0.287v2.045h-0.84v-1.975c0-0.477-0.189-0.813-0.589-0.813   c-0.322,0-0.539,0.252-0.616,0.49c-0.035,0.084-0.049,0.182-0.049,0.279v2.018h-0.841V55.612z"
   id="path36" />
	<path
   style="fill:#FFFFFF;"
   d="M35.908,56.544c0.021,0.616,0.505,0.883,1.051,0.883c0.399,0,0.687-0.057,0.945-0.154l0.126,0.596   c-0.294,0.118-0.7,0.21-1.19,0.21c-1.106,0-1.758-0.68-1.758-1.724c0-0.945,0.574-1.835,1.667-1.835   c1.106,0,1.471,0.911,1.471,1.66c0,0.161-0.014,0.287-0.028,0.364H35.908z M37.407,55.941c0.007-0.314-0.133-0.833-0.707-0.833   c-0.532,0-0.757,0.483-0.792,0.833H37.407z"
   id="path38" />
	<path
   style="fill:#FFFFFF;"
   d="M38.841,55.612c0-0.392-0.007-0.721-0.027-1.016h0.756l0.042,0.512h0.021   c0.146-0.267,0.518-0.589,1.085-0.589c0.596,0,1.212,0.386,1.212,1.464v2.024h-0.861v-1.926c0-0.49-0.182-0.861-0.651-0.861   c-0.343,0-0.581,0.245-0.672,0.504c-0.028,0.077-0.035,0.182-0.035,0.28v2.003h-0.869V55.612z"
   id="path40" />
	<path
   style="fill:#FFFFFF;"
   d="M43.728,53.623v0.974h0.819v0.645h-0.819v1.506c0,0.413,0.111,0.631,0.44,0.631   c0.147,0,0.26-0.021,0.337-0.042l0.014,0.658c-0.126,0.049-0.351,0.084-0.623,0.084c-0.315,0-0.582-0.105-0.743-0.28   c-0.182-0.196-0.266-0.505-0.266-0.953v-1.604h-0.49v-0.645h0.49v-0.771L43.728,53.623z"
   id="path42" />
</g>
<g
   id="g41"
   transform="translate(-7.561529,-21.467778)">
	<g
   id="Bild"
   transform="translate(8.6,22.5)">
		
			<sodipodi:namedview
   units="mm"
   showguides="true"
   inkscape:cy="32.194278"
   inkscape:cx="6.0496917"
   inkscape:zoom="7.9195959"
   showgrid="false"
   borderopacity="1.0"
   bordercolor="#666666"
   pagecolor="#ffffff"
   id="base"
   inkscape:document-units="mm"
   inkscape:guide-bbox="true"
   inkscape:current-layer="layer1"
   inkscape:window-maximized="1"
   inkscape:window-y="-8"
   inkscape:window-x="-8"
   inkscape:window-height="988"
   inkscape:window-width="1680"
   inkscape:pageshadow="2"
   inkscape:pageopacity="0.0">
			<sodipodi:guide
   orientation="1,0"
   position="191.33858,0"
   id="guide21487" />
			<sodipodi:guide
   orientation="0,1"
   position="0,304.72441"
   id="guide21489" />
			<sodipodi:guide
   orientation="0,1"
   position="0,322.44094"
   id="guide26097" />
		</sodipodi:namedview>
		<g
   id="layer1"
   transform="translate(0,-910.62992)"
   inkscape:label="Ebene 1"
   inkscape:groupmode="layer">
			<path
   id="path6147-9"
   inkscape:connector-curvature="0"
   style="fill:#FFFFFF;"
   d="M28.858,912.102l-8.777,3.264l4.554,1.687     v0.993c-0.525,0.813-0.835,1.777-0.835,2.818c0,2.854,2.312,5.162,5.162,5.162c2.844,0,5.164-2.309,5.164-5.162     c0-1.076-0.339-2.066-0.902-2.896v-0.977l1.635-0.598v4.48h1.283v-4.957l1.475-0.551L28.858,912.102z M22.169,927     c-0.1,0-0.208,0-0.306,0.013c-2.526,0.256-4.565,2.11-5.163,4.522c-0.146,0.334-0.238,0.686-0.238,1.076v13.41     c0,1.506,1.215,2.727,2.716,2.727c1.506,0,2.723-1.221,2.723-2.727v-13.41c0-0.051-0.013-0.1-0.013-0.168h1.099v9.957h0.013     c-0.005,0.045-0.013,0.072-0.013,0.121v7.852c0,1.5,1.209,2.721,2.712,2.721h6.523c1.514,0,2.713-1.221,2.713-2.721v-7.852     c0-0.049,0.004-0.076,0-0.121v-9.957h1.098c-0.002,0.029-0.002,0.061-0.002,0.09v13.488c0,1.506,1.21,2.727,2.709,2.727     c1.514,0,2.723-1.221,2.723-2.727v-13.488c0-0.363-0.078-0.723-0.207-1.039c0-0.008,0-0.021,0-0.031     c-0.684-2.559-3.004-4.45-5.766-4.45c-0.191,0-0.363-0.013-0.555,0V927H22.986v0.037c-0.171-0.013-0.342-0.024-0.513-0.024     C22.372,927.013,22.266,927.001,22.169,927L22.169,927z" />
		</g>
	</g>
</g>
<g
   id="g54">
</g>
<g
   id="g56">
</g>
<g
   id="g58">
</g>
<g
   id="g60">
</g>
<g
   id="g62">
</g>
<g
   id="g64">
</g>
<g
   id="g66">
</g>
<g
   id="g68">
</g>
<g
   id="g70">
</g>
<g
   id="g72">
</g>
<g
   id="g74">
</g>
<g
   id="g76">
</g>
<g
   id="g78">
</g>
<g
   id="g80">
</g>
<g
   id="g82">
</g>
</svg>