<?xml version="1.0" encoding="UTF-8" standalone="no"?>
<svg
   xmlns:dc="http://purl.org/dc/elements/1.1/"
   xmlns:cc="http://creativecommons.org/ns#"
   xmlns:rdf="http://www.w3.org/1999/02/22-rdf-syntax-ns#"
   xmlns:svg="http://www.w3.org/2000/svg"
   xmlns="http://www.w3.org/2000/svg"
   viewBox="0 0 375 375"
   height="375"
   width="375"
   xml:space="preserve"
   version="1.1"
   id="svg2"><metadata
     id="metadata8"><rdf:RDF><cc:Work
         rdf:about=""><dc:format>image/svg+xml</dc:format><dc:type
           rdf:resource="http://purl.org/dc/dcmitype/StillImage" /></cc:Work></rdf:RDF></metadata><defs
     id="defs6" /><g
     transform="matrix(1.25,0,0,-1.25,0,375)"
     id="g10"><g
       transform="scale(0.1,0.1)"
       id="g12"><path
         id="path14"
         style="fill:#ce8e95;fill-opacity:1;fill-rule:nonzero;stroke:none"
         d="m 3000,529.785 c 0,-67.64 0,-529.78890625 -715,-529.78890625 l -1625,0 C 35,-0.00390625 0,472.145 0,539.785 L 0,2399.77 c 0,545 592.352,600 660,600 l 1615,0.3 c 67.65,0 725,-0.3 725,-600.3" /><path
         id="path16"
         style="fill:#26080d;fill-opacity:1;fill-rule:nonzero;stroke:none"
         d="m 692.672,584 59.031,0 0,120.922 c 0,6.719 0.953,12.969 1.906,18.234 5.282,26.407 24.485,44.641 52.797,44.641 7.188,0 12.469,-0.969 17.266,-1.922 l 0,55.656 c -4.797,0.969 -8.156,1.453 -13.906,1.453 -24.953,0 -52.313,-16.796 -63.828,-49.906 l -1.922,0 -1.922,44.625 -51.344,0 c 1.438,-21.125 1.922,-43.672 1.922,-75.344 l 0,-158.359" /><path
         id="path18"
         style="fill:#26080d;fill-opacity:1;fill-rule:nonzero;stroke:none"
         d="m 1057.86,684.297 c 0.95,5.281 1.92,13.906 1.92,24.953 0,51.344 -24.95,113.734 -100.78,113.734 -74.859,0 -114.203,-60.953 -114.203,-125.734 0,-71.5 44.625,-118.047 120.453,-118.047 33.578,0 61.42,6.235 81.58,14.391 l -8.64,40.797 c -17.75,-6.719 -37.44,-10.563 -64.784,-10.563 -37.437,0 -70.547,18.235 -71.984,60.469 l 156.438,0 z m -156.438,41.266 c 2.391,24 17.75,57.109 54.219,57.109 39.359,0 48.949,-35.516 48.469,-57.109 l -102.688,0" /><path
         id="path20"
         style="fill:#26080d;fill-opacity:1;fill-rule:nonzero;stroke:none"
         d="m 1292.42,584 c -2.39,14.391 -3.36,35.031 -3.36,56.141 l 0,84.468 c 0,50.86 -21.59,98.375 -96.45,98.375 -36.95,0 -67.19,-10.078 -84.45,-20.64 l 11.51,-38.391 c 15.83,10.078 39.83,17.281 62.86,17.281 41.27,0 47.52,-25.437 47.52,-40.796 l 0,-3.844 c -86.39,0.484 -138.69,-29.266 -138.69,-88.297 0,-35.5 26.39,-69.578 73.42,-69.578 30.24,0 54.7,12.953 69.1,31.187 l 1.43,0 3.85,-25.906 53.26,0 z m -60.94,82.063 c 0,-3.844 -0.48,-8.641 -1.92,-12.954 -5.28,-16.796 -22.56,-32.156 -46.08,-32.156 -18.7,0 -33.57,10.547 -33.57,33.594 0,35.5 39.82,44.625 81.57,43.656 l 0,-32.14" /><path
         id="path22"
         style="fill:#26080d;fill-opacity:1;fill-rule:nonzero;stroke:none"
         d="m 1514.31,634.859 c -11.51,-4.796 -25.92,-9.109 -46.54,-9.109 -40.32,0 -71.5,27.359 -71.5,75.344 -0.49,42.703 26.39,75.812 71.5,75.812 21.11,0 35.03,-4.797 44.62,-9.109 l 10.56,44.141 c -13.43,6.234 -35.51,11.046 -57.11,11.046 -82.06,0 -130.04,-54.718 -130.04,-124.781 0,-72.453 47.5,-119 120.45,-119 29.27,0 53.73,6.235 66.22,12 l -8.16,43.656" /><path
         id="path24"
         style="fill:#26080d;fill-opacity:1;fill-rule:nonzero;stroke:none"
         d="m 1583.75,870.484 0,-52.781 -33.59,0 0,-44.156 33.59,0 0,-109.891 c 0,-30.703 5.75,-51.828 18.23,-65.265 11.04,-11.985 29.27,-19.188 50.86,-19.188 18.72,0 34.08,2.391 42.72,5.75 l -0.97,45.11 c -5.26,-1.438 -12.95,-2.875 -23.03,-2.875 -22.54,0 -30.23,14.875 -30.23,43.187 l 0,103.172 56.15,0 0,44.156 -56.15,0 0,66.703 -57.58,-13.922" /><path
         id="path26"
         style="fill:#26080d;fill-opacity:1;fill-rule:nonzero;stroke:none"
         d="m 1802.17,584 0,233.703 -59.5,0 0,-233.703 59.5,0 z m -29.75,331.109 c -19.67,0 -33.11,-13.906 -33.11,-32.14 0,-17.766 12.96,-31.672 32.63,-31.672 20.64,0 33.59,13.906 33.59,31.672 -0.47,18.234 -12.95,32.14 -33.11,32.14" /><path
         id="path28"
         style="fill:#26080d;fill-opacity:1;fill-rule:nonzero;stroke:none"
         d="m 1970.72,822.984 c -70.53,0 -120.92,-47.031 -120.92,-123.812 0,-74.859 50.86,-120.453 117.09,-120.453 59.5,0 119.97,38.39 119.97,124.297 0,71.015 -46.55,119.968 -116.14,119.968 z m -1.44,-43.203 c 40.31,0 56.63,-41.734 56.63,-78.218 0,-47.016 -23.52,-80.125 -57.11,-80.125 -35.99,0 -58.07,34.062 -58.07,79.171 0,38.875 16.8,79.172 58.55,79.172" /><path
         id="path30"
         style="fill:#26080d;fill-opacity:1;fill-rule:nonzero;stroke:none"
         d="m 2135.67,584 59.5,0 0,137.25 c 0,6.719 0.49,13.906 2.41,19.188 6.23,17.75 22.55,34.546 46.06,34.546 32.16,0 44.63,-25.421 44.63,-59.015 l 0,-131.969 59.03,0 0,138.688 c 0,73.89 -42.24,100.296 -83.02,100.296 -38.87,0 -64.31,-22.078 -74.39,-40.312 l -1.44,0 -2.87,35.031 -51.83,0 c 1.44,-20.156 1.92,-42.719 1.92,-69.594 l 0,-164.109" /><path
         id="path32"
         style="fill:#26080d;fill-opacity:1;fill-rule:nonzero;stroke:none"
         d="m 1080.28,115.516 c 17.27,-9.594 42.7,-16.3129 71.02,-16.3129 61.9,0 95.01,30.7029 95.01,72.9379 -0.48,34.547 -20.15,56.14 -62.39,71.5 -29.75,10.562 -40.78,17.765 -40.78,32.64 0,14.391 11.52,24.469 32.63,24.469 20.64,0 39.36,-7.672 49.43,-13.437 l 11.52,41.75 c -13.44,7.203 -36,13.921 -61.91,13.921 -54.23,0 -88.29,-32.156 -88.29,-73.421 -0.49,-27.36 18.71,-52.313 64.29,-68.141 28.8,-10.078 38.39,-18.25 38.39,-34.078 0,-15.36 -11.51,-25.906 -37.42,-25.906 -21.12,0 -46.55,8.625 -59.98,16.781 l -11.52,-42.703" /><path
         id="path34"
         style="fill:#26080d;fill-opacity:1;fill-rule:nonzero;stroke:none"
         d="m 1294.67,104 59.5,0 0,139.641 c 0,6.718 0.49,12.953 2.41,17.765 6.23,17.75 22.55,33.11 45.58,33.11 32.64,0 45.11,-25.438 45.11,-59.516 l 0,-131 59.03,0 0,137.719 c 0,74.859 -41.75,101.265 -81.58,101.265 -14.88,0 -28.8,-3.843 -40.31,-10.562 -12.47,-6.719 -22.08,-15.844 -29.27,-26.875 l -0.97,0 0,139.172 -59.5,0 0,-340.719" /><path
         id="path36"
         style="fill:#26080d;fill-opacity:1;fill-rule:nonzero;stroke:none"
         d="m 1675.72,342.984 c -70.53,0 -120.92,-47.031 -120.92,-123.812 0,-74.859 50.86,-120.4532 117.09,-120.4532 59.5,0 119.97,38.3902 119.97,124.2972 0,71.015 -46.55,119.968 -116.14,119.968 z m -1.44,-43.203 c 40.31,0 56.63,-41.734 56.63,-78.218 0,-47.016 -23.52,-80.125 -57.11,-80.125 -35.99,0 -58.07,34.062 -58.07,79.171 0,38.875 16.8,79.172 58.55,79.172" /><path
         id="path38"
         style="fill:#26080d;fill-opacity:1;fill-rule:nonzero;stroke:none"
         d="m 1849.75,390.484 0,-52.781 -33.59,0 0,-44.156 33.59,0 0,-109.891 c 0,-30.703 5.75,-51.828 18.23,-65.265 11.04,-11.985 29.27,-19.1879 50.86,-19.1879 18.72,0 34.08,2.3909 42.72,5.7499 l -0.97,45.11 c -5.26,-1.438 -12.95,-2.875 -23.03,-2.875 -22.54,0 -30.23,14.875 -30.23,43.187 l 0,103.172 56.15,0 0,44.156 -56.15,0 0,66.703 -57.58,-13.922" /><path
         id="path40"
         style="fill:#d7d7d7;fill-opacity:1;fill-rule:evenodd;stroke:none"
         d="m 1248.43,2415.4 c 0,0 -205.18,355.64 -428.59,4.56 0,0 -91.203,109.43 -218.863,-9.12 0,0 -63.829,-59.27 -27.36,-95.75 0,0 -91.187,-31.92 -59.269,-113.99 0,0 109.429,-50.15 702.162,-18.23 0,0 278.13,13.68 237.1,109.42 0,0 -18.24,100.31 -136.79,45.6 0,0 18.24,86.63 -68.39,77.51" /><path
         id="path42"
         style="fill:none;stroke:#000000;stroke-width:18.23999977;stroke-linecap:butt;stroke-linejoin:miter;stroke-miterlimit:10;stroke-dasharray:none;stroke-opacity:1"
         d="m 1248.43,2415.4 c 0,0 -205.18,355.64 -428.59,4.56 0,0 -91.203,109.43 -218.863,-9.12 0,0 -63.829,-59.27 -27.36,-95.75 0,0 -91.187,-31.92 -59.269,-113.99 0,0 109.429,-50.15 702.162,-18.23 0,0 278.13,13.68 237.1,109.42 0,0 -18.24,100.31 -136.79,45.6 0,0 18.24,86.63 -68.39,77.51 z" /><path
         id="path44"
         style="fill:#d7d7d7;fill-opacity:1;fill-rule:evenodd;stroke:none"
         d="m 2158.18,1386.13 c -40.89,2.24 -72.62,20.6 -73.5,58.38 -0.54,23.57 19,47.6 29.52,71.42 -2.63,-27.2 -17.61,-54.86 -10.64,-74.86 7.67,-21.99 35.55,-36.92 54.62,-54.94 m 168.8,-183.05 c -18.23,-21.89 -35.6,-45.72 -56.02,-66.59 -35.78,-36.6 -78.4,-28.19 -120.17,-12.82 -31.33,11.53 -58.83,35.9 -50.18,68.28 12.04,45.08 2.98,86.76 -0.27,130.13 -2.23,29.53 8.09,34.51 34.47,22.16 9.07,-4.25 21.16,-8.76 29.74,-6.15 29.66,9.08 50.33,-3.29 68.24,-24 30.91,-35.78 61.23,-72.09 94.19,-111.01 m 160.77,660.51 -103.53,0 c -19.65,-34.95 -39.32,-69.9 -60.67,-107.84 72.7,-22.31 135.72,-53.88 172.49,-121.74 -42.77,38.65 -85.68,76.26 -154.16,65.93 91.05,-12.73 105.34,-81.47 116.87,-157.19 -66.35,3.97 -133.07,5.32 -187.84,57.74 6.31,14.78 40.89,28.26 6.68,53.25 12.91,1.66 26.75,1.67 27.06,3.77 3.3,21.13 4.35,42.61 5.64,59.05 -34.22,-29.48 -64.86,-58.09 -97.86,-83.7 -33.88,-26.31 -69.98,-49.74 -105.21,-74.32 -101.07,-70.55 -109.65,-97.46 -76.25,-217.5 12.46,-44.77 18.05,-91.42 29.53,-136.52 12.57,-49.4 28.36,-97.98 42.75,-146.92 l 229.21,0 c 24.5,47.81 49.65,95.31 73.01,143.66 5.12,10.58 4.03,24.19 4.59,28.19 -41.08,17.97 -75.47,33.03 -114.1,49.92 59.54,43.78 147.63,28.69 175.58,111.56 -14.15,-2.4 -26.83,-4.57 -39.5,-6.72 -1.79,3.7 -3.59,7.39 -5.39,11.08 16.98,12.34 33.53,25.3 50.99,36.91 81.01,53.86 121.17,128.63 116.91,226.37 -3.71,84.91 -42.14,151.82 -106.8,205.02" /><path
         id="path46"
         style="fill:none;stroke:#000000;stroke-width:10;stroke-linecap:butt;stroke-linejoin:miter;stroke-miterlimit:10;stroke-dasharray:none;stroke-opacity:1"
         d="m 2158.18,1386.13 c -40.89,2.24 -72.62,20.6 -73.5,58.38 -0.54,23.57 19,47.6 29.52,71.42 -2.63,-27.2 -17.61,-54.86 -10.64,-74.86 7.67,-21.99 35.55,-36.92 54.62,-54.94 z m 168.8,-183.05 c -18.23,-21.89 -35.6,-45.72 -56.02,-66.59 -35.78,-36.6 -78.4,-28.19 -120.17,-12.82 -31.33,11.53 -58.83,35.9 -50.18,68.28 12.04,45.08 2.98,86.76 -0.27,130.13 -2.23,29.53 8.09,34.51 34.47,22.16 9.07,-4.25 21.16,-8.76 29.74,-6.15 29.66,9.08 50.33,-3.29 68.24,-24 30.91,-35.78 61.23,-72.09 94.19,-111.01 z m 160.77,660.51 -103.53,0 c -19.65,-34.95 -39.32,-69.9 -60.67,-107.84 72.7,-22.31 135.72,-53.88 172.49,-121.74 -42.77,38.65 -85.68,76.26 -154.16,65.93 91.05,-12.73 105.34,-81.47 116.87,-157.19 -66.35,3.97 -133.07,5.32 -187.84,57.74 6.31,14.78 40.89,28.26 6.68,53.25 12.91,1.66 26.75,1.67 27.06,3.77 3.3,21.13 4.35,42.61 5.64,59.05 -34.22,-29.48 -64.86,-58.09 -97.86,-83.7 -33.88,-26.31 -69.98,-49.74 -105.21,-74.32 -101.07,-70.55 -109.65,-97.46 -76.25,-217.5 12.46,-44.77 18.05,-91.42 29.53,-136.52 12.57,-49.4 28.36,-97.98 42.75,-146.92 l 229.21,0 c 24.5,47.81 49.65,95.31 73.01,143.66 5.12,10.58 4.03,24.19 4.59,28.19 -41.08,17.97 -75.47,33.03 -114.1,49.92 59.54,43.78 147.63,28.69 175.58,111.56 -14.15,-2.4 -26.83,-4.57 -39.5,-6.72 -1.79,3.7 -3.59,7.39 -5.39,11.08 16.98,12.34 33.53,25.3 50.99,36.91 81.01,53.86 121.17,128.63 116.91,226.37 -3.71,84.91 -42.14,151.82 -106.8,205.02 z" /><path
         id="path48"
         style="fill:#ffffff;fill-opacity:1;fill-rule:evenodd;stroke:none"
         d="m 2354.65,1863.59 -51.76,0 C 2266.5,1763 2190.46,1697.36 2102.49,1645.54 2017.96,1595.71 1928.87,1553.7 1843.1,1505.9 1730.38,1443.09 1684.97,1392.09 1728,1248.38 c 23.29,-77.79 80.63,-127.43 152.8,-160.56 24.35,-11.17 49.68,-20.21 74.55,-30.21 l 51.76,0 c -5.32,23.77 -11.42,47.41 -15.77,71.34 -5.29,29.09 -17.82,49.95 -45.42,65.79 -35.44,20.31 -51.08,55.96 -48.9,97.24 2.8,53.01 17.9,103.61 55.01,141.45 48.81,49.81 100.06,98.27 155.7,140.06 72.15,54.19 147.26,100.12 192.55,185.96 17.92,33.98 39.54,67.5 54.37,104.14" /><path
         id="path50"
         style="fill:none;stroke:#000000;stroke-width:10;stroke-linecap:butt;stroke-linejoin:miter;stroke-miterlimit:10;stroke-dasharray:none;stroke-opacity:1"
         d="m 2354.65,1863.59 -51.76,0 C 2266.5,1763 2190.46,1697.36 2102.49,1645.54 2017.96,1595.71 1928.87,1553.7 1843.1,1505.9 1730.38,1443.09 1684.97,1392.09 1728,1248.38 c 23.29,-77.79 80.63,-127.43 152.8,-160.56 24.35,-11.17 49.68,-20.21 74.55,-30.21 l 51.76,0 c -5.32,23.77 -11.42,47.41 -15.77,71.34 -5.29,29.09 -17.82,49.95 -45.42,65.79 -35.44,20.31 -51.08,55.96 -48.9,97.24 2.8,53.01 17.9,103.61 55.01,141.45 48.81,49.81 100.06,98.27 155.7,140.06 72.15,54.19 147.26,100.12 192.55,185.96 17.92,33.98 39.54,67.5 54.37,104.14 z" /><path
         id="path52"
         style="fill:#ffffff;fill-opacity:1;fill-rule:evenodd;stroke:none"
         d="m 2265.92,1863.59 -207.04,0 c -84.45,-59.44 -171.5,-115.63 -252.34,-179.63 -44.49,-35.19 -84.08,-79.83 -115.84,-126.98 -37.3,-55.32 -28.76,-124.14 9.52,-168.96 20.64,58.59 63.6,94.59 116.32,122.39 80.57,42.48 161.23,84.98 239.92,130.77 91.31,53.12 164.49,124.87 209.46,222.41" /><path
         id="path54"
         style="fill:none;stroke:#000000;stroke-width:10;stroke-linecap:butt;stroke-linejoin:miter;stroke-miterlimit:10;stroke-dasharray:none;stroke-opacity:1"
         d="m 2265.92,1863.59 -207.04,0 c -84.45,-59.44 -171.5,-115.63 -252.34,-179.63 -44.49,-35.19 -84.08,-79.83 -115.84,-126.98 -37.3,-55.32 -28.76,-124.14 9.52,-168.96 20.64,58.59 63.6,94.59 116.32,122.39 80.57,42.48 161.23,84.98 239.92,130.77 91.31,53.12 164.49,124.87 209.46,222.41 z" /><path
         id="path56"
         style="fill:#26080d;fill-opacity:1;fill-rule:evenodd;stroke:none"
         d="m 2265.92,1863.59 c -44.97,-97.54 -118.15,-169.29 -209.46,-222.41 -78.69,-45.79 -159.35,-88.29 -239.92,-130.77 -52.72,-27.8 -95.68,-63.8 -116.32,-122.39 -38.28,44.82 -46.82,113.64 -9.52,168.96 31.76,47.15 71.35,91.79 115.84,126.98 80.84,64 167.89,120.19 252.34,179.63 l -66.55,0 c -4.2,-4.32 -7.97,-9.16 -12.65,-12.87 -108.59,-86 -235.77,-151.76 -304.06,-282.34 -2.95,73.09 33.38,127.53 77.62,178.02 34.71,39.62 70.62,78.17 105.99,117.19 l -59.16,0 c -13.73,-15.48 -27.58,-30.86 -41.16,-46.46 -69.93,-80.34 -105.99,-170.09 -96.81,-280.14 5.28,-63.4 -5.74,-128.76 -14.19,-192.61 -10.12,-76.48 -17.38,-151.22 22.41,-222.52 11.2,-20.06 17.62,-42.77 26.23,-64.25 l 29.58,0 c -15.88,35.82 -32.13,71.48 -47.56,107.48 -31.87,74.43 -23.89,148.98 1.85,224.11 9.03,-17.43 14.82,-35.56 14.31,-53.5 -2.94,-104.93 40.66,-184.9 127.1,-242.46 19.24,-12.81 39.69,-23.81 59.58,-35.63 l 73.94,0 c -24.87,10 -50.2,19.04 -74.55,30.21 -72.17,33.13 -129.51,82.77 -152.8,160.56 -43.03,143.71 2.38,194.71 115.1,257.52 85.77,47.8 174.86,89.81 259.39,139.64 87.97,51.82 164.01,117.46 200.4,218.05" /><path
         id="path58"
         style="fill:#d7d7d7;fill-opacity:1;fill-rule:evenodd;stroke:none"
         d="m 2487.74,1057.61 184.87,0 0,354.93 c -10.89,12.89 -23.62,24.67 -32.23,38.94 -14.95,24.75 -33.75,30.77 -58.08,16.18 -32.62,-19.58 -64.56,-40.27 -96.78,-60.48 0.64,-4.56 1.27,-9.11 1.93,-13.66 17.79,-2.89 36.04,-9.67 53.25,-7.6 17.94,2.14 34.86,12.79 52.64,19.89 13.43,-32.62 7.82,-79.99 56.79,-94.28 -2.75,-28.06 -8.5,-56.28 -7.58,-84.28 1.31,-39.3 -5.48,-72.27 -39.6,-97.14 -8.75,-6.37 -10.4,-22.5 -19.84,-44.96 -5.73,41.28 -12.32,73.15 -14.16,105.29 -3.34,58.19 -41.57,95.61 -77.41,133.9 -6.5,6.93 -27.04,7.21 -37.65,2.61 -36.25,-15.73 -70.96,-34.98 -111.6,-55.62 44.09,-28.03 80.09,-16.3 111.86,-5.74 49.14,-64.81 44.92,-135.89 33.59,-207.98" /><path
         id="path60"
         style="fill:none;stroke:#000000;stroke-width:10;stroke-linecap:butt;stroke-linejoin:miter;stroke-miterlimit:10;stroke-dasharray:none;stroke-opacity:1"
         d="m 2487.74,1057.61 184.87,0 0,354.93 c -10.89,12.89 -23.62,24.67 -32.23,38.94 -14.95,24.75 -33.75,30.77 -58.08,16.18 -32.62,-19.58 -64.56,-40.27 -96.78,-60.48 0.64,-4.56 1.27,-9.11 1.93,-13.66 17.79,-2.89 36.04,-9.67 53.25,-7.6 17.94,2.14 34.86,12.79 52.64,19.89 13.43,-32.62 7.82,-79.99 56.79,-94.28 -2.75,-28.06 -8.5,-56.28 -7.58,-84.28 1.31,-39.3 -5.48,-72.27 -39.6,-97.14 -8.75,-6.37 -10.4,-22.5 -19.84,-44.96 -5.73,41.28 -12.32,73.15 -14.16,105.29 -3.34,58.19 -41.57,95.61 -77.41,133.9 -6.5,6.93 -27.04,7.21 -37.65,2.61 -36.25,-15.73 -70.96,-34.98 -111.6,-55.62 44.09,-28.03 80.09,-16.3 111.86,-5.74 49.14,-64.81 44.92,-135.89 33.59,-207.98 z" /><path
         id="path62"
         style="fill:#26080d;fill-opacity:1;fill-rule:evenodd;stroke:none"
         d="m 2386.11,1630.26 c 17.32,-22.16 33.23,-42.5 53.13,-67.95 l -62.92,0 c 3.08,21.35 5.88,40.83 9.79,67.95 m -86.5,-30.08 c 19.78,12.77 31.23,25.99 41.85,25.36 10.31,-0.62 25.28,-14.11 27.84,-24.5 1.99,-8.06 -14.35,-29.59 -18.44,-28.58 -14.94,3.69 -28.14,14.33 -51.25,27.72 m -327.65,-376.75 c -78.77,39.9 -64.15,159.83 16.17,221 30.76,-75.51 46.45,-151.56 -16.17,-221 m 382.69,640.16 c -14.84,-36.63 -36.45,-70.15 -54.38,-104.14 -45.28,-85.84 -120.39,-131.77 -192.55,-185.96 -55.63,-41.79 -106.88,-90.25 -155.69,-140.05 -37.11,-37.85 -52.22,-88.45 -55.01,-141.46 -2.19,-41.28 13.46,-76.92 48.89,-97.23 27.6,-15.84 40.13,-36.7 45.42,-65.79 4.36,-23.95 10.45,-47.58 15.78,-71.35 l 29.58,0 c -10.87,38.84 -21.31,77.79 -32.73,116.47 -13.03,44.21 6.14,81.05 22,125.91 19.62,-86.32 37.36,-164.34 55.09,-242.38 l 22.19,0 c -14.39,48.93 -30.17,97.52 -42.75,146.91 -11.48,45.1 -17.07,91.75 -29.52,136.53 -33.4,120.04 -24.82,146.94 76.25,217.49 35.22,24.59 71.33,48.02 105.21,74.33 32.99,25.6 63.64,54.22 97.86,83.69 -1.3,-16.43 -2.35,-37.91 -5.64,-59.05 -0.32,-2.1 -14.16,-2.1 -27.07,-3.77 34.22,-24.98 -0.36,-38.47 -6.67,-53.25 54.76,-52.42 121.49,-53.77 187.83,-57.74 -11.52,75.72 -25.82,144.46 -116.86,157.19 68.47,10.33 111.38,-27.27 154.16,-65.93 -36.78,67.86 -99.79,99.43 -172.49,121.74 21.35,37.95 41.02,72.9 60.68,107.84" /><path
         id="path64"
         style="fill:#26080d;fill-opacity:1;fill-rule:evenodd;stroke:none"
         d="m 2467.21,1355.35 c 5.36,5.84 12.86,21.23 20.93,21.53 32.61,1.2 65.41,-2.23 105.45,-4.34 -20.78,-25.95 -38.98,-48.67 -55.72,-69.57 -24.54,18.2 -45.3,33.59 -70.66,52.38 m 75.11,116.21 c 57.98,73.14 86.22,148.69 74.58,236.54 32.58,-72.27 32.24,-145.97 19.47,-215.28 -32.18,-7.27 -58.85,-13.31 -94.05,-21.26 m 51.65,-123.2 c 52,-85.69 49.12,-173.19 -1.02,-202.81 -13.86,48.33 -27.98,97.63 -43.54,151.95 10.47,11.96 26.53,30.28 44.56,50.86 m -106.22,-290.75 c 11.33,72.09 15.53,143.17 -33.6,207.97 -31.77,-10.55 -67.76,-22.28 -111.86,5.75 40.64,20.63 75.36,39.89 111.61,55.61 10.6,4.6 31.14,4.33 37.64,-2.61 35.84,-38.29 74.08,-75.71 77.41,-133.89 1.83,-32.14 8.43,-64.02 14.16,-105.3 9.45,22.47 11.08,38.6 19.83,44.97 34.13,24.87 40.93,57.84 39.62,97.13 -0.93,28 4.83,56.23 7.58,84.28 -48.97,14.3 -43.37,61.66 -56.81,94.29 -17.76,-7.1 -34.68,-17.75 -52.62,-19.89 -17.21,-2.07 -35.46,4.7 -53.27,7.59 -0.64,4.55 -1.27,9.11 -1.92,13.67 32.23,20.2 64.17,40.89 96.79,60.47 24.32,14.59 43.11,8.58 58.07,-16.18 8.62,-14.26 21.35,-26.04 32.23,-38.93 l 0,29.57 c -22.21,10.08 -26.46,25.65 -23.41,50.15 5.27,42.24 7.93,85.44 5.43,127.87 -5.93,100.27 -60.27,176.32 -129.91,243.46 l -36.97,0 c 64.67,-53.2 103.09,-120.11 106.8,-205.02 4.27,-97.74 -35.89,-172.51 -116.9,-226.36 -17.46,-11.62 -34.02,-24.57 -51,-36.92 1.8,-3.69 3.6,-7.38 5.39,-11.08 12.68,2.16 25.36,4.32 39.51,6.73 -27.96,-82.88 -116.05,-67.79 -175.58,-111.57 38.61,-16.89 73.02,-31.95 114.1,-49.92 -0.57,-4 0.53,-17.61 -4.59,-28.19 -23.38,-48.35 -48.51,-95.85 -73.02,-143.65 l 22.19,0 c 6.33,19.83 12.5,39.71 19.01,59.49 14.96,45.54 38.35,84.03 87.44,104.24 34.7,-53.6 18.34,-109.07 11.86,-163.73" /><path
         id="path66"
         style="fill:#ffffff;fill-opacity:1;fill-rule:evenodd;stroke:none"
         d="m 1696.55,1057.61 c -8.61,21.48 -15.04,44.2 -26.23,64.25 -39.8,71.31 -32.54,146.04 -22.41,222.53 8.44,63.85 19.47,129.2 14.19,192.61 -9.18,110.04 26.87,199.79 96.8,280.12 13.59,15.61 27.44,30.99 41.17,46.48 l -177.47,0 0,-805.99" /><path
         id="path68"
         style="fill:none;stroke:#000000;stroke-width:10;stroke-linecap:butt;stroke-linejoin:miter;stroke-miterlimit:10;stroke-dasharray:none;stroke-opacity:1"
         d="m 1696.55,1057.61 c -8.61,21.48 -15.04,44.2 -26.23,64.25 -39.8,71.31 -32.54,146.04 -22.41,222.53 8.44,63.85 19.47,129.2 14.19,192.61 -9.18,110.04 26.87,199.79 96.8,280.12 13.59,15.61 27.44,30.99 41.17,46.48 l -177.47,0 0,-805.99 73.95,0 z" /><path
         id="path70"
         style="fill:#ffffff;fill-opacity:1;fill-rule:evenodd;stroke:none"
         d="m 1859.23,1863.59 c -35.37,-39.02 -71.28,-77.57 -105.99,-117.19 -44.24,-50.49 -80.57,-104.93 -77.62,-178.02 68.29,130.58 195.47,196.34 304.06,282.34 4.68,3.71 8.45,8.55 12.65,12.87" /><path
         id="path72"
         style="fill:none;stroke:#000000;stroke-width:10;stroke-linecap:butt;stroke-linejoin:miter;stroke-miterlimit:10;stroke-dasharray:none;stroke-opacity:1"
         d="m 1859.23,1863.59 c -35.37,-39.02 -71.28,-77.57 -105.99,-117.19 -44.24,-50.49 -80.57,-104.93 -77.62,-178.02 68.29,130.58 195.47,196.34 304.06,282.34 4.68,3.71 8.45,8.55 12.65,12.87 l -133.1,0 z" /><path
         id="path74"
         style="fill:#ffffff;fill-opacity:1;fill-rule:evenodd;stroke:none"
         d="m 1881.41,1057.61 c -19.89,11.83 -40.34,22.82 -59.59,35.63 -86.43,57.56 -130.03,137.52 -127.09,242.46 0.5,17.95 -5.28,36.07 -14.31,53.5 -25.74,-75.13 -33.72,-149.69 -1.85,-224.1 15.43,-36.02 31.68,-71.67 47.56,-107.49" /><path
         id="path76"
         style="fill:none;stroke:#000000;stroke-width:10;stroke-linecap:butt;stroke-linejoin:miter;stroke-miterlimit:10;stroke-dasharray:none;stroke-opacity:1"
         d="m 1881.41,1057.61 c -19.89,11.83 -40.34,22.82 -59.59,35.63 -86.43,57.56 -130.03,137.52 -127.09,242.46 0.5,17.95 -5.28,36.07 -14.31,53.5 -25.74,-75.13 -33.72,-149.69 -1.85,-224.1 15.43,-36.02 31.68,-71.67 47.56,-107.49 l 155.28,0 z" /><path
         id="path78"
         style="fill:#ffffff;fill-opacity:1;fill-rule:evenodd;stroke:none"
         d="m 2524.72,1863.59 c 69.64,-67.14 123.98,-143.19 129.91,-243.46 2.5,-42.43 -0.16,-85.64 -5.43,-127.86 -3.05,-24.5 1.2,-40.09 23.41,-50.16 l 0,421.48" /><path
         id="path80"
         style="fill:none;stroke:#000000;stroke-width:10;stroke-linecap:butt;stroke-linejoin:miter;stroke-miterlimit:10;stroke-dasharray:none;stroke-opacity:1"
         d="m 2524.72,1863.59 c 69.64,-67.14 123.98,-143.19 129.91,-243.46 2.5,-42.43 -0.16,-85.64 -5.43,-127.86 -3.05,-24.5 1.2,-40.09 23.41,-50.16 l 0,421.48 -147.89,0 z" /><path
         id="path82"
         style="fill:#ffffff;fill-opacity:1;fill-rule:evenodd;stroke:none"
         d="m 2472.96,1057.61 c 6.47,54.67 22.84,110.14 -11.87,163.73 -49.08,-20.2 -72.48,-58.69 -87.44,-104.24 -6.5,-19.77 -12.67,-39.66 -19,-59.49" /><path
         id="path84"
         style="fill:none;stroke:#000000;stroke-width:10;stroke-linecap:butt;stroke-linejoin:miter;stroke-miterlimit:10;stroke-dasharray:none;stroke-opacity:1"
         d="m 2472.96,1057.61 c 6.47,54.67 22.84,110.14 -11.87,163.73 -49.08,-20.2 -72.48,-58.69 -87.44,-104.24 -6.5,-19.77 -12.67,-39.66 -19,-59.49 l 118.31,0 z" /><path
         id="path86"
         style="fill:#ffffff;fill-opacity:1;fill-rule:evenodd;stroke:none"
         d="m 2081.05,1057.61 c -17.73,78.04 -35.46,156.06 -55.09,242.38 -15.85,-44.86 -35.03,-81.7 -22,-125.91 11.42,-38.68 21.86,-77.63 32.72,-116.47" /><path
         id="path88"
         style="fill:none;stroke:#000000;stroke-width:10;stroke-linecap:butt;stroke-linejoin:miter;stroke-miterlimit:10;stroke-dasharray:none;stroke-opacity:1"
         d="m 2081.05,1057.61 c -17.73,78.04 -35.46,156.06 -55.09,242.38 -15.85,-44.86 -35.03,-81.7 -22,-125.91 11.42,-38.68 21.86,-77.63 32.72,-116.47 l 44.37,0 z" /><path
         id="path90"
         style="fill:#26080d;fill-opacity:1;fill-rule:evenodd;stroke:none"
         d="m 2131.35,1275.86 c 77.05,27.93 108.5,-29.87 148.12,-69.37 -30.07,-50.06 -70.54,-33.77 -111.36,-21.67 -55.07,16.33 -25.66,63.34 -36.76,91.04 m 195.63,-72.77 c -32.96,38.91 -63.28,75.22 -94.19,111 -17.9,20.72 -38.58,33.09 -68.24,24.01 -8.57,-2.62 -20.67,1.89 -29.73,6.14 -26.39,12.35 -36.7,7.37 -34.49,-22.16 3.27,-43.37 12.33,-85.05 0.29,-130.13 -8.65,-32.38 18.85,-56.74 50.17,-68.28 41.77,-15.37 84.39,-23.78 120.18,12.82 20.41,20.87 37.78,44.7 56.01,66.6" /><path
         id="path92"
         style="fill:#26080d;fill-opacity:1;fill-rule:evenodd;stroke:none"
         d="m 2158.18,1386.13 c -19.07,18.02 -46.95,32.95 -54.62,54.94 -6.97,20 8.01,47.66 10.64,74.86 -10.52,-23.82 -30.06,-47.85 -29.52,-71.42 0.88,-37.78 32.61,-56.14 73.5,-58.38" /><path
         id="path94"
         style="fill:#ffffff;fill-opacity:1;fill-rule:evenodd;stroke:none"
         d="m 1971.96,1223.43 c 62.62,69.44 46.93,145.49 16.17,221 -80.32,-61.17 -94.94,-181.1 -16.17,-221" /><path
         id="path96"
         style="fill:none;stroke:#000000;stroke-width:10;stroke-linecap:butt;stroke-linejoin:miter;stroke-miterlimit:10;stroke-dasharray:none;stroke-opacity:1"
         d="m 1971.96,1223.43 c 62.62,69.44 46.93,145.49 16.17,221 -80.32,-61.17 -94.94,-181.1 -16.17,-221 z" /><path
         id="path98"
         style="fill:#ffffff;fill-opacity:1;fill-rule:evenodd;stroke:none"
         d="m 2299.61,1600.18 c 23.12,-13.38 36.32,-24.02 51.25,-27.72 4.09,-1.01 20.43,20.52 18.45,28.58 -2.57,10.39 -17.53,23.89 -27.84,24.5 -10.63,0.64 -22.07,-12.59 -41.86,-25.36" /><path
         id="path100"
         style="fill:none;stroke:#000000;stroke-width:10;stroke-linecap:butt;stroke-linejoin:miter;stroke-miterlimit:10;stroke-dasharray:none;stroke-opacity:1"
         d="m 2299.61,1600.18 c 23.12,-13.38 36.32,-24.02 51.25,-27.72 4.09,-1.01 20.43,20.52 18.45,28.58 -2.57,10.39 -17.53,23.89 -27.84,24.5 -10.63,0.64 -22.07,-12.59 -41.86,-25.36 z" /><path
         id="path102"
         style="fill:#ffffff;fill-opacity:1;fill-rule:evenodd;stroke:none"
         d="m 2386.11,1630.26 c -3.91,-27.12 -6.71,-46.6 -9.79,-67.95 l 62.92,0 c -19.9,25.45 -35.81,45.79 -53.13,67.95" /><path
         id="path104"
         style="fill:none;stroke:#000000;stroke-width:10;stroke-linecap:butt;stroke-linejoin:miter;stroke-miterlimit:10;stroke-dasharray:none;stroke-opacity:1"
         d="m 2386.11,1630.26 c -3.91,-27.12 -6.71,-46.6 -9.79,-67.95 l 62.92,0 c -19.9,25.45 -35.81,45.79 -53.13,67.95 z" /><path
         id="path106"
         style="fill:#ffffff;fill-opacity:1;fill-rule:evenodd;stroke:none"
         d="m 2593.96,1348.36 c -18.03,-20.58 -34.08,-38.9 -44.55,-50.86 15.57,-54.32 29.68,-103.62 43.54,-151.95 50.14,29.63 53.01,117.13 1.01,202.81" /><path
         id="path108"
         style="fill:none;stroke:#000000;stroke-width:10;stroke-linecap:butt;stroke-linejoin:miter;stroke-miterlimit:10;stroke-dasharray:none;stroke-opacity:1"
         d="m 2593.96,1348.36 c -18.03,-20.58 -34.08,-38.9 -44.55,-50.86 15.57,-54.32 29.68,-103.62 43.54,-151.95 50.14,29.63 53.01,117.13 1.01,202.81 z" /><path
         id="path110"
         style="fill:#ffffff;fill-opacity:1;fill-rule:evenodd;stroke:none"
         d="m 2542.31,1471.56 c 35.21,7.95 61.87,13.98 94.05,21.25 12.78,69.32 13.11,143.02 -19.47,215.29 11.65,-87.85 -16.6,-163.4 -74.58,-236.54" /><path
         id="path112"
         style="fill:none;stroke:#000000;stroke-width:10;stroke-linecap:butt;stroke-linejoin:miter;stroke-miterlimit:10;stroke-dasharray:none;stroke-opacity:1"
         d="m 2542.31,1471.56 c 35.21,7.95 61.87,13.98 94.05,21.25 12.78,69.32 13.11,143.02 -19.47,215.29 11.65,-87.85 -16.6,-163.4 -74.58,-236.54 z" /><path
         id="path114"
         style="fill:#ffffff;fill-opacity:1;fill-rule:evenodd;stroke:none"
         d="m 2467.21,1355.35 c 25.36,-18.79 46.12,-34.18 70.66,-52.38 16.74,20.9 34.94,43.62 55.72,69.57 -40.04,2.11 -72.84,5.54 -105.45,4.34 -8.07,-0.3 -15.57,-15.69 -20.93,-21.53" /><path
         id="path116"
         style="fill:none;stroke:#000000;stroke-width:10;stroke-linecap:butt;stroke-linejoin:miter;stroke-miterlimit:10;stroke-dasharray:none;stroke-opacity:1"
         d="m 2467.21,1355.35 c 25.36,-18.79 46.12,-34.18 70.66,-52.38 16.74,20.9 34.94,43.62 55.72,69.57 -40.04,2.11 -72.84,5.54 -105.45,4.34 -8.07,-0.3 -15.57,-15.69 -20.93,-21.53 z" /><path
         id="path118"
         style="fill:#ffffff;fill-opacity:1;fill-rule:evenodd;stroke:none"
         d="m 2131.35,1275.86 c 11.1,-27.7 -18.31,-74.71 36.76,-91.04 40.82,-12.1 81.29,-28.39 111.36,21.67 -39.62,39.5 -71.07,97.3 -148.12,69.37" /><path
         id="path120"
         style="fill:none;stroke:#000000;stroke-width:10;stroke-linecap:butt;stroke-linejoin:miter;stroke-miterlimit:10;stroke-dasharray:none;stroke-opacity:1"
         d="m 2131.35,1275.86 c 11.1,-27.7 -18.31,-74.71 36.76,-91.04 40.82,-12.1 81.29,-28.39 111.36,21.67 -39.62,39.5 -71.07,97.3 -148.12,69.37 z" /><path
         id="path122"
         style="fill:#d7d7d7;fill-opacity:1;fill-rule:evenodd;stroke:none"
         d="M 980,1385 1995,2475" /><path
         id="path124"
         style="fill:none;stroke:#c1272d;stroke-width:30;stroke-linecap:butt;stroke-linejoin:miter;stroke-miterlimit:10;stroke-dasharray:none;stroke-opacity:1"
         d="M 980,1385 1995,2475" /><path
         id="path126"
         style="fill:#ffffff;fill-opacity:1;fill-rule:evenodd;stroke:none"
         d="m 1102.52,2365.25 -118.54,-22.8 50.15,-36.48 -118.552,9.12 -72.949,-186.93 77.512,-36.48 -214.289,-191.5 104.859,-77.51 -132.223,-127.67 259.891,123.11 -118.551,113.99 237.102,155.02 -127.668,77.51 36.476,86.63 104.872,4.56 18.23,72.95" /><path
         id="path128"
         style="fill:none;stroke:#000000;stroke-width:18.23999977;stroke-linecap:butt;stroke-linejoin:miter;stroke-miterlimit:10;stroke-dasharray:none;stroke-opacity:1"
         d="m 1102.52,2365.25 -118.54,-22.8 50.15,-36.48 -118.552,9.12 -72.949,-186.93 77.512,-36.48 -214.289,-191.5 104.859,-77.51 -132.223,-127.67 259.891,123.11 -118.551,113.99 237.102,155.02 -127.668,77.51 36.476,86.63 104.872,4.56 18.23,72.95 13.68,36.48 z" /></g></g></svg>