<?xml version="1.0" encoding="UTF-8" standalone="no"?>
<!-- Generator: Adobe Illustrator 16.0.3, SVG Export Plug-In . SVG Version: 6.00 Build 0)  -->

<svg
   xmlns:dc="http://purl.org/dc/elements/1.1/"
   xmlns:cc="http://creativecommons.org/ns#"
   xmlns:rdf="http://www.w3.org/1999/02/22-rdf-syntax-ns#"
   xmlns:svg="http://www.w3.org/2000/svg"
   xmlns="http://www.w3.org/2000/svg"
   xmlns:sodipodi="http://sodipodi.sourceforge.net/DTD/sodipodi-0.dtd"
   xmlns:inkscape="http://www.inkscape.org/namespaces/inkscape"
   version="1.1"
   id="Ebene_1"
   x="0px"
   y="0px"
   width="60px"
   height="60px"
   viewBox="0 0 60 60"
   style="enable-background:new 0 0 60 60;"
   xml:space="preserve"
   sodipodi:docname="visual_qr_moralischer_pragmatismus_de.svg"
   inkscape:version="0.92.4 (5da689c313, 2019-01-14)"><metadata
   id="metadata99"><rdf:RDF><cc:Work
       rdf:about=""><dc:format>image/svg+xml</dc:format><dc:type
         rdf:resource="http://purl.org/dc/dcmitype/StillImage" /><dc:title></dc:title></cc:Work></rdf:RDF></metadata><defs
   id="defs97" /><sodipodi:namedview
   pagecolor="#ffffff"
   bordercolor="#666666"
   borderopacity="1"
   objecttolerance="10"
   gridtolerance="10"
   guidetolerance="10"
   inkscape:pageopacity="0"
   inkscape:pageshadow="2"
   inkscape:window-width="731"
   inkscape:window-height="480"
   id="namedview95"
   showgrid="false"
   inkscape:zoom="3.9333333"
   inkscape:cx="30"
   inkscape:cy="30"
   inkscape:window-x="0"
   inkscape:window-y="0"
   inkscape:window-maximized="0"
   inkscape:current-layer="Ebene_1" />
<rect
   style="fill:#A0B983;"
   width="60"
   height="60"
   id="rect2" />
<g
   id="g52">
	<rect
   y="46.224"
   style="fill:none;"
   width="59.665"
   height="13.622"
   id="rect4" />
	<path
   style="fill:#FFFFFF;"
   d="M16.556,49.268c-0.028-0.609-0.063-1.345-0.056-1.982h-0.021c-0.154,0.574-0.35,1.212-0.56,1.807   l-0.687,2.046h-0.666l-0.63-2.018c-0.182-0.603-0.35-1.246-0.476-1.835h-0.014c-0.021,0.616-0.049,1.366-0.084,2.01l-0.105,1.898   h-0.805l0.315-4.721h1.135l0.616,1.898c0.168,0.553,0.315,1.113,0.434,1.639h0.021c0.126-0.512,0.287-1.093,0.469-1.646   l0.651-1.892h1.121l0.273,4.721h-0.841L16.556,49.268z"
   id="path6" />
	<path
   style="fill:#FFFFFF;"
   d="M21.603,49.456c0,1.254-0.882,1.814-1.751,1.814c-0.967,0-1.709-0.665-1.709-1.758   c0-1.121,0.735-1.808,1.765-1.808C20.923,47.705,21.603,48.42,21.603,49.456z M19.033,49.491c0,0.658,0.322,1.156,0.847,1.156   c0.49,0,0.833-0.483,0.833-1.17c0-0.532-0.238-1.142-0.826-1.142C19.278,48.336,19.033,48.924,19.033,49.491z"
   id="path8" />
	<path
   style="fill:#FFFFFF;"
   d="M22.308,48.882c0-0.462-0.007-0.791-0.028-1.1h0.75l0.028,0.651h0.028   c0.168-0.483,0.567-0.729,0.932-0.729c0.084,0,0.133,0.008,0.203,0.021v0.813c-0.07-0.014-0.147-0.028-0.252-0.028   c-0.413,0-0.693,0.267-0.771,0.651c-0.014,0.077-0.028,0.168-0.028,0.267v1.765h-0.861V48.882z"
   id="path10" />
	<path
   style="fill:#FFFFFF;"
   d="M26.656,51.193L26.6,50.815h-0.021c-0.21,0.266-0.567,0.455-1.008,0.455   c-0.687,0-1.072-0.497-1.072-1.016c0-0.861,0.763-1.296,2.024-1.289V48.91c0-0.225-0.091-0.596-0.693-0.596   c-0.336,0-0.686,0.105-0.917,0.253l-0.168-0.561c0.252-0.154,0.693-0.302,1.233-0.302c1.092,0,1.408,0.693,1.408,1.437v1.232   c0,0.308,0.014,0.609,0.049,0.819H26.656z M26.543,49.526c-0.609-0.014-1.19,0.119-1.19,0.638c0,0.336,0.217,0.49,0.49,0.49   c0.343,0,0.595-0.225,0.672-0.47c0.021-0.063,0.028-0.133,0.028-0.188V49.526z"
   id="path12" />
	<path
   style="fill:#FFFFFF;"
   d="M28.292,46.221h0.869v4.973h-0.869V46.221z"
   id="path14" />
	<path
   style="fill:#FFFFFF;"
   d="M31.01,46.83c0,0.259-0.19,0.462-0.491,0.462c-0.287,0-0.477-0.203-0.477-0.462   c0-0.267,0.196-0.47,0.483-0.47C30.82,46.36,31.002,46.563,31.01,46.83z M30.091,51.193v-3.411h0.869v3.411H30.091z"
   id="path16" />
	<path
   style="fill:#FFFFFF;"
   d="M31.842,50.402c0.195,0.119,0.566,0.245,0.875,0.245c0.379,0,0.547-0.154,0.547-0.379   c0-0.23-0.141-0.35-0.561-0.497c-0.666-0.231-0.945-0.596-0.939-0.994c0-0.603,0.498-1.072,1.289-1.072   c0.379,0,0.707,0.099,0.904,0.203l-0.168,0.609c-0.148-0.084-0.42-0.195-0.723-0.195c-0.307,0-0.475,0.146-0.475,0.356   c0,0.218,0.16,0.322,0.594,0.477c0.617,0.224,0.904,0.539,0.912,1.044c0,0.616-0.484,1.064-1.387,1.064   c-0.414,0-0.785-0.099-1.037-0.238L31.842,50.402z"
   id="path18" />
	<path
   style="fill:#FFFFFF;"
   d="M37.311,51.088c-0.184,0.084-0.539,0.176-0.967,0.176c-1.064,0-1.758-0.68-1.758-1.737   c0-1.022,0.699-1.821,1.898-1.821c0.314,0,0.637,0.07,0.832,0.161l-0.154,0.645c-0.139-0.063-0.342-0.133-0.65-0.133   c-0.658,0-1.051,0.483-1.043,1.106c0,0.7,0.455,1.1,1.043,1.1c0.301,0,0.512-0.063,0.68-0.133L37.311,51.088z"
   id="path20" />
	<path
   style="fill:#FFFFFF;"
   d="M37.945,46.221h0.869v2.031h0.014c0.105-0.161,0.244-0.294,0.426-0.393   c0.17-0.098,0.373-0.154,0.59-0.154c0.58,0,1.189,0.386,1.189,1.479v2.01h-0.861v-1.912c0-0.497-0.182-0.868-0.658-0.868   c-0.336,0-0.574,0.224-0.664,0.483c-0.029,0.069-0.035,0.161-0.035,0.259v2.038h-0.869V46.221z"
   id="path22" />
	<path
   style="fill:#FFFFFF;"
   d="M42.559,49.729c0.021,0.616,0.504,0.883,1.051,0.883c0.398,0,0.686-0.057,0.945-0.154l0.125,0.596   c-0.293,0.118-0.699,0.21-1.189,0.21c-1.107,0-1.758-0.68-1.758-1.724c0-0.945,0.574-1.835,1.666-1.835   c1.107,0,1.471,0.911,1.471,1.66c0,0.161-0.014,0.287-0.027,0.364H42.559z M44.057,49.127c0.008-0.314-0.133-0.833-0.707-0.833   c-0.531,0-0.756,0.483-0.791,0.833H44.057z"
   id="path24" />
	<path
   style="fill:#FFFFFF;"
   d="M45.561,48.882c0-0.462-0.006-0.791-0.027-1.1h0.75l0.027,0.651h0.027   c0.17-0.483,0.568-0.729,0.932-0.729c0.084,0,0.135,0.008,0.203,0.021v0.813c-0.068-0.014-0.146-0.028-0.252-0.028   c-0.412,0-0.693,0.267-0.77,0.651c-0.014,0.077-0.029,0.168-0.029,0.267v1.765h-0.861V48.882z"
   id="path26" />
	<path
   style="fill:#FFFFFF;"
   d="M8.703,53.536c0.309-0.057,0.736-0.099,1.317-0.099c0.63,0,1.093,0.134,1.394,0.386   c0.28,0.23,0.462,0.603,0.462,1.043c0,0.448-0.14,0.819-0.406,1.072c-0.343,0.343-0.882,0.504-1.492,0.504   c-0.161,0-0.308-0.007-0.42-0.028v1.779H8.703V53.536z M9.558,55.735c0.105,0.027,0.245,0.035,0.42,0.035   c0.645,0,1.037-0.315,1.037-0.869c0-0.525-0.364-0.806-0.959-0.806c-0.238,0-0.406,0.021-0.498,0.042V55.735z"
   id="path28" />
	<path
   style="fill:#FFFFFF;"
   d="M12.498,55.882c0-0.462-0.007-0.791-0.028-1.1h0.75l0.028,0.651h0.028   c0.168-0.483,0.567-0.729,0.932-0.729c0.084,0,0.133,0.008,0.203,0.021v0.813c-0.07-0.014-0.147-0.028-0.252-0.028   c-0.413,0-0.693,0.267-0.771,0.651c-0.014,0.077-0.028,0.168-0.028,0.267v1.765h-0.861V55.882z"
   id="path30" />
	<path
   style="fill:#FFFFFF;"
   d="M16.845,58.193l-0.056-0.378h-0.021c-0.21,0.266-0.567,0.455-1.008,0.455   c-0.687,0-1.072-0.497-1.072-1.016c0-0.861,0.763-1.296,2.024-1.289V55.91c0-0.225-0.091-0.596-0.693-0.596   c-0.336,0-0.686,0.105-0.917,0.253l-0.168-0.561c0.252-0.154,0.693-0.302,1.233-0.302c1.092,0,1.408,0.693,1.408,1.437v1.232   c0,0.308,0.014,0.609,0.049,0.819H16.845z M16.733,56.526c-0.609-0.014-1.19,0.119-1.19,0.638c0,0.336,0.217,0.49,0.49,0.49   c0.343,0,0.595-0.225,0.672-0.47c0.021-0.063,0.028-0.133,0.028-0.188V56.526z"
   id="path32" />
	<path
   style="fill:#FFFFFF;"
   d="M21.599,54.782c-0.014,0.231-0.028,0.512-0.028,0.98v1.934c0,0.714-0.147,1.226-0.504,1.548   c-0.357,0.315-0.848,0.413-1.317,0.413c-0.434,0-0.896-0.091-1.191-0.273l0.189-0.651c0.217,0.126,0.581,0.26,0.995,0.26   c0.56,0,0.98-0.295,0.98-1.03v-0.294h-0.014c-0.196,0.301-0.546,0.504-0.995,0.504c-0.847,0-1.45-0.7-1.45-1.666   c0-1.121,0.729-1.801,1.548-1.801c0.518,0,0.827,0.253,0.987,0.532h0.014l0.035-0.455H21.599z M20.709,56.148   c0-0.077-0.007-0.161-0.028-0.231c-0.091-0.315-0.336-0.553-0.701-0.553c-0.483,0-0.84,0.42-0.84,1.113   c0,0.581,0.294,1.051,0.833,1.051c0.322,0,0.602-0.21,0.7-0.519c0.021-0.091,0.035-0.21,0.035-0.309V56.148z"
   id="path34" />
	<path
   style="fill:#FFFFFF;"
   d="M22.466,55.798c0-0.392-0.007-0.721-0.028-1.016h0.743l0.035,0.505h0.021   c0.168-0.267,0.477-0.582,1.051-0.582c0.448,0,0.798,0.253,0.945,0.631h0.014c0.119-0.189,0.259-0.329,0.42-0.428   c0.189-0.133,0.406-0.203,0.686-0.203c0.567,0,1.142,0.386,1.142,1.479v2.01h-0.841V56.31c0-0.567-0.196-0.903-0.609-0.903   c-0.294,0-0.511,0.21-0.602,0.455c-0.021,0.084-0.042,0.188-0.042,0.287v2.045H24.56v-1.975c0-0.477-0.189-0.813-0.588-0.813   c-0.322,0-0.54,0.252-0.617,0.49c-0.035,0.084-0.049,0.182-0.049,0.279v2.018h-0.84V55.798z"
   id="path36" />
	<path
   style="fill:#FFFFFF;"
   d="M30.32,58.193l-0.056-0.378h-0.021c-0.211,0.266-0.567,0.455-1.009,0.455   c-0.687,0-1.072-0.497-1.072-1.016c0-0.861,0.764-1.296,2.024-1.289V55.91c0-0.225-0.091-0.596-0.693-0.596   c-0.336,0-0.687,0.105-0.917,0.253l-0.168-0.561c0.252-0.154,0.693-0.302,1.232-0.302c1.093,0,1.408,0.693,1.408,1.437v1.232   c0,0.308,0.014,0.609,0.049,0.819H30.32z M30.208,56.526c-0.609-0.014-1.191,0.119-1.191,0.638c0,0.336,0.218,0.49,0.491,0.49   c0.343,0,0.595-0.225,0.672-0.47c0.021-0.063,0.028-0.133,0.028-0.188V56.526z"
   id="path38" />
	<path
   style="fill:#FFFFFF;"
   d="M32.902,53.809v0.974h0.82v0.645h-0.82v1.506c0,0.413,0.111,0.631,0.441,0.631   c0.146,0,0.26-0.021,0.336-0.042l0.014,0.658c-0.125,0.049-0.35,0.084-0.623,0.084c-0.314,0-0.582-0.105-0.742-0.28   c-0.182-0.196-0.266-0.505-0.266-0.953v-1.604h-0.49v-0.645h0.49v-0.771L32.902,53.809z"
   id="path40" />
	<path
   style="fill:#FFFFFF;"
   d="M35.289,53.83c0,0.259-0.189,0.462-0.49,0.462c-0.287,0-0.477-0.203-0.477-0.462   c0-0.267,0.197-0.47,0.484-0.47C35.1,53.36,35.283,53.563,35.289,53.83z M34.371,58.193v-3.411h0.869v3.411H34.371z"
   id="path42" />
	<path
   style="fill:#FFFFFF;"
   d="M36.121,57.402c0.197,0.119,0.568,0.245,0.877,0.245c0.377,0,0.545-0.154,0.545-0.379   c0-0.23-0.139-0.35-0.561-0.497c-0.664-0.231-0.945-0.596-0.938-0.994c0-0.603,0.498-1.072,1.289-1.072   c0.377,0,0.707,0.099,0.902,0.203l-0.168,0.609c-0.146-0.084-0.42-0.195-0.721-0.195c-0.309,0-0.477,0.146-0.477,0.356   c0,0.218,0.162,0.322,0.596,0.477c0.615,0.224,0.902,0.539,0.91,1.044c0,0.616-0.482,1.064-1.387,1.064   c-0.414,0-0.785-0.099-1.037-0.238L36.121,57.402z"
   id="path44" />
	<path
   style="fill:#FFFFFF;"
   d="M39.082,55.798c0-0.392-0.006-0.721-0.027-1.016h0.742l0.035,0.505h0.021   c0.168-0.267,0.477-0.582,1.051-0.582c0.447,0,0.799,0.253,0.945,0.631h0.014c0.119-0.189,0.26-0.329,0.42-0.428   c0.189-0.133,0.406-0.203,0.688-0.203c0.566,0,1.141,0.386,1.141,1.479v2.01h-0.84V56.31c0-0.567-0.197-0.903-0.609-0.903   c-0.295,0-0.512,0.21-0.604,0.455c-0.02,0.084-0.041,0.188-0.041,0.287v2.045h-0.84v-1.975c0-0.477-0.189-0.813-0.59-0.813   c-0.322,0-0.539,0.252-0.615,0.49c-0.035,0.084-0.049,0.182-0.049,0.279v2.018h-0.842V55.798z"
   id="path46" />
	<path
   style="fill:#FFFFFF;"
   d="M48.072,57.171c0,0.406,0.014,0.742,0.027,1.022h-0.756l-0.043-0.519h-0.014   c-0.146,0.245-0.482,0.596-1.092,0.596c-0.623,0-1.191-0.371-1.191-1.485v-2.003h0.861v1.856c0,0.567,0.184,0.932,0.639,0.932   c0.342,0,0.566-0.245,0.658-0.463c0.027-0.077,0.049-0.168,0.049-0.266v-2.06h0.861V57.171z"
   id="path48" />
	<path
   style="fill:#FFFFFF;"
   d="M48.959,57.402c0.195,0.119,0.566,0.245,0.875,0.245c0.379,0,0.547-0.154,0.547-0.379   c0-0.23-0.141-0.35-0.561-0.497c-0.666-0.231-0.945-0.596-0.939-0.994c0-0.603,0.498-1.072,1.289-1.072   c0.379,0,0.707,0.099,0.904,0.203l-0.168,0.609c-0.148-0.084-0.42-0.195-0.723-0.195c-0.307,0-0.475,0.146-0.475,0.356   c0,0.218,0.16,0.322,0.594,0.477c0.617,0.224,0.904,0.539,0.912,1.044c0,0.616-0.484,1.064-1.387,1.064   c-0.414,0-0.785-0.099-1.037-0.238L48.959,57.402z"
   id="path50" />
</g>
<g
   id="g41"
   transform="translate(-7.561529,-21.467778)">
	<g
   id="Bild"
   transform="translate(8.6,22.5)">
		
			<sodipodi:namedview
   units="mm"
   borderopacity="1.0"
   bordercolor="#666666"
   pagecolor="#ffffff"
   showgrid="false"
   inkscape:cy="140.10525"
   inkscape:cx="100.8875"
   inkscape:zoom="1.4"
   showguides="true"
   id="base"
   inkscape:pageopacity="0.0"
   inkscape:pageshadow="2"
   inkscape:window-width="667"
   inkscape:window-height="700"
   inkscape:window-x="0"
   inkscape:window-y="0"
   inkscape:window-maximized="1"
   inkscape:current-layer="layer1"
   inkscape:guide-bbox="true"
   inkscape:document-units="mm">
			<sodipodi:guide
   orientation="1,0"
   position="191.33858,0"
   id="guide21487" />
			<sodipodi:guide
   orientation="0,1"
   position="0,304.72441"
   id="guide21489" />
			<sodipodi:guide
   orientation="0,1"
   position="0,322.44094"
   id="guide26097" />
		</sodipodi:namedview>
		<g
   id="layer1"
   transform="translate(0,-910.62992)"
   inkscape:label="Ebene 1"
   inkscape:groupmode="layer">
			<path
   id="path3811-1-2-2-7"
   inkscape:connector-curvature="0"
   style="fill:#FFFFFF;"
   d="M23.576,915.475     c-9.445,0-17.115,7.671-17.115,17.115c0,9.445,7.67,17.131,17.115,17.131s17.13-7.686,17.13-17.131     C40.707,923.146,33.021,915.475,23.576,915.475z M51.229,917.192v8.682c-0.225-0.24-0.561-0.371-0.99-0.371     c-0.269,0-0.535,0.061-0.82,0.17c-0.284,0.109-0.549,0.254-0.789,0.434c-0.239,0.179-0.436,0.381-0.588,0.618     c-0.152,0.238-0.232,0.489-0.232,0.743c0,0.312,0.114,0.548,0.341,0.712c0.228,0.164,0.523,0.248,0.866,0.248     c0.276,0,0.56-0.062,0.852-0.171c0.291-0.109,0.551-0.25,0.789-0.433c0.238-0.184,0.438-0.386,0.588-0.619     c0.15-0.234,0.217-0.481,0.217-0.728v-9.285H51.229z M23.576,917.472c8.369,0,15.134,6.75,15.134,15.118     s-6.766,15.134-15.134,15.134c-8.368,0-15.119-6.766-15.119-15.134S15.208,917.472,23.576,917.472z M46.17,919.529v8.666     c-0.226-0.24-0.546-0.356-0.976-0.356c-0.268,0-0.551,0.062-0.835,0.171s-0.534,0.238-0.774,0.418     c-0.239,0.179-0.436,0.396-0.588,0.634c-0.152,0.238-0.231,0.488-0.231,0.743c0,0.312,0.113,0.547,0.34,0.712     c0.228,0.164,0.508,0.247,0.852,0.247c0.275,0,0.56-0.061,0.851-0.17c0.292-0.109,0.552-0.251,0.789-0.434     c0.238-0.183,0.438-0.4,0.589-0.634c0.15-0.234,0.231-0.466,0.231-0.712v-9.285H46.17z M17.913,926.493     c-2.295,0-4.178,1.883-4.178,4.178s1.883,4.179,4.178,4.179s4.178-1.884,4.178-4.179S20.208,926.493,17.913,926.493z      M28.25,926.493c-2.295,0-4.178,1.883-4.178,4.178s1.883,4.179,4.178,4.179s4.178-1.884,4.178-4.179     S30.545,926.493,28.25,926.493z M28.466,928.505c1.114,0.106,1.965,1.021,1.965,2.166c0,1.219-0.963,2.182-2.182,2.182     c-0.894,0-1.641-0.526-1.98-1.284c0.187,0.06,0.383,0.108,0.588,0.108c1.087,0,1.996-0.908,1.996-1.996     C28.853,929.245,28.711,928.836,28.466,928.505z M18.578,928.598c0.888,0.275,1.517,1.086,1.517,2.073     c0,1.219-0.964,2.182-2.182,2.182c-0.972,0-1.771-0.618-2.058-1.485c0.31,0.198,0.679,0.31,1.068,0.31     c1.087,0,1.98-0.908,1.98-1.996C18.903,929.285,18.781,928.911,18.578,928.598z M23.623,938.826     c-0.623,0-1.119,0.379-1.393,0.789c-0.273,0.411-0.402,0.884-0.402,1.393s0.129,0.982,0.402,1.393     c0.274,0.411,0.77,0.805,1.393,0.805c0.624,0,1.104-0.394,1.377-0.805c0.273-0.41,0.402-0.884,0.402-1.393     s-0.129-0.981-0.402-1.393C24.727,939.205,24.246,938.826,23.623,938.826z" />
			<g
   id="text6745"
   transform="translate(477.97861,435.76926)">
			</g>
			<g
   id="text6749"
   transform="translate(477.97861,435.76926)">
			</g>
		</g>
	</g>
</g>
<g
   id="g64">
</g>
<g
   id="g66">
</g>
<g
   id="g68">
</g>
<g
   id="g70">
</g>
<g
   id="g72">
</g>
<g
   id="g74">
</g>
<g
   id="g76">
</g>
<g
   id="g78">
</g>
<g
   id="g80">
</g>
<g
   id="g82">
</g>
<g
   id="g84">
</g>
<g
   id="g86">
</g>
<g
   id="g88">
</g>
<g
   id="g90">
</g>
<g
   id="g92">
</g>
</svg>