<?xml version="1.0" encoding="utf-8"?>
<!-- Generator: Adobe Illustrator 16.0.3, SVG Export Plug-In . SVG Version: 6.00 Build 0)  -->
<!DOCTYPE svg PUBLIC "-//W3C//DTD SVG 1.1//EN" "http://www.w3.org/Graphics/SVG/1.1/DTD/svg11.dtd" [
	<!ENTITY ns_extend "http://ns.adobe.com/Extensibility/1.0/">
	<!ENTITY ns_ai "http://ns.adobe.com/AdobeIllustrator/10.0/">
	<!ENTITY ns_graphs "http://ns.adobe.com/Graphs/1.0/">
	<!ENTITY ns_vars "http://ns.adobe.com/Variables/1.0/">
	<!ENTITY ns_imrep "http://ns.adobe.com/ImageReplacement/1.0/">
	<!ENTITY ns_sfw "http://ns.adobe.com/SaveForWeb/1.0/">
	<!ENTITY ns_custom "http://ns.adobe.com/GenericCustomNamespace/1.0/">
	<!ENTITY ns_adobe_xpath "http://ns.adobe.com/XPath/1.0/">
]>
<svg version="1.1" id="Ebene_1" xmlns:x="&ns_extend;" xmlns:i="&ns_ai;" xmlns:graph="&ns_graphs;"
	 xmlns="http://www.w3.org/2000/svg" xmlns:xlink="http://www.w3.org/1999/xlink" x="0px" y="0px" width="300px" height="300px"
	 viewBox="0 0 300 300" enable-background="new 0 0 300 300" xml:space="preserve">
<metadata>
	<sfw  xmlns="&ns_sfw;">
		<slices></slices>
		<sliceSourceBounds  height="309.582" width="300" x="-50.5" y="-57.082" bottomLeftOrigin="true"></sliceSourceBounds>
	</sfw>
</metadata>
<path fill="#C18C2F" d="M228,298H72c-39.604,0-72-16.9-72-56.5V58C0,18.4,32.397-2,72-2h156c39.601,0,72,20.9,72,60.5V242
	C300,281.6,267.599,298,228,298z"/>
<rect x="0.758" y="228.086" fill="none" width="298.483" height="79.496"/>
<g enable-background="new    ">
	<path fill="#FFFFFF" d="M17.594,251.989l-3.36,10.177h-4.32l10.993-32.354h5.041l11.041,32.354h-4.464l-3.457-10.177H17.594z
		 M28.203,248.725l-3.168-9.313c-0.72-2.112-1.2-4.032-1.68-5.904h-0.096c-0.48,1.92-1.008,3.888-1.632,5.856l-3.168,9.36H28.203z"
		/>
	<path fill="#FFFFFF" d="M45.626,249.589h0.096c0.576-0.816,1.392-1.824,2.064-2.641l6.816-8.017h5.089l-8.977,9.553l10.225,13.682
		h-5.137l-8.017-11.137l-2.16,2.4v8.736H41.45v-34.083h4.176V249.589z"/>
	<path fill="#FFFFFF" d="M68.954,249.589h0.096c0.576-0.816,1.392-1.824,2.064-2.641l6.816-8.017h5.089l-8.977,9.553l10.225,13.682
		h-5.137l-8.017-11.137l-2.16,2.4v8.736h-4.176v-34.083h4.176V249.589z"/>
	<path fill="#FFFFFF" d="M106.923,255.829c0,2.4,0.048,4.513,0.192,6.337h-3.745l-0.24-3.792h-0.096
		c-1.104,1.872-3.552,4.32-7.681,4.32c-3.648,0-8.017-2.017-8.017-10.177v-13.586h4.224v12.865c0,4.417,1.344,7.393,5.185,7.393
		c2.833,0,4.8-1.968,5.568-3.84c0.24-0.624,0.384-1.393,0.384-2.16v-14.258h4.224V255.829z"/>
	<path fill="#FFFFFF" d="M113.928,245.221c0-2.4-0.048-4.368-0.191-6.289h3.696l0.191,3.745h0.145
		c1.296-2.209,3.456-4.272,7.297-4.272c3.168,0,5.568,1.92,6.576,4.656h0.096c0.721-1.296,1.633-2.305,2.593-3.024
		c1.392-1.056,2.928-1.632,5.137-1.632c3.072,0,7.632,2.016,7.632,10.08v13.682h-4.128v-13.153c0-4.464-1.632-7.152-5.04-7.152
		c-2.4,0-4.272,1.776-4.993,3.84c-0.191,0.576-0.336,1.345-0.336,2.112v14.354h-4.128v-13.921c0-3.696-1.633-6.385-4.849-6.385
		c-2.641,0-4.561,2.112-5.232,4.225c-0.24,0.624-0.336,1.344-0.336,2.063v14.018h-4.129V245.221z"/>
	<path fill="#FFFFFF" d="M173.403,255.829c0,2.4,0.048,4.513,0.191,6.337h-3.744l-0.24-3.792h-0.096
		c-1.104,1.872-3.553,4.32-7.681,4.32c-3.648,0-8.017-2.017-8.017-10.177v-13.586h4.225v12.865c0,4.417,1.344,7.393,5.185,7.393
		c2.832,0,4.8-1.968,5.568-3.84c0.239-0.624,0.384-1.393,0.384-2.16v-14.258h4.225V255.829z"/>
	<path fill="#FFFFFF" d="M180.408,228.083h4.225v34.083h-4.225V228.083z"/>
	<path fill="#FFFFFF" d="M204.601,262.166l-0.336-2.929h-0.144c-1.297,1.824-3.793,3.457-7.104,3.457
		c-4.705,0-7.105-3.313-7.105-6.673c0-5.616,4.993-8.688,13.97-8.641v-0.48c0-1.92-0.528-5.376-5.28-5.376
		c-2.16,0-4.417,0.672-6.049,1.728l-0.96-2.784c1.92-1.248,4.704-2.063,7.633-2.063c7.104,0,8.833,4.848,8.833,9.505v8.688
		c0,2.016,0.096,3.984,0.384,5.568H204.601z M203.977,250.309c-4.608-0.096-9.841,0.721-9.841,5.232
		c0,2.736,1.824,4.033,3.984,4.033c3.024,0,4.944-1.921,5.616-3.889c0.145-0.432,0.24-0.912,0.24-1.344V250.309z"/>
	<path fill="#FFFFFF" d="M219.769,232.26v6.672h6.049v3.217h-6.049v12.529c0,2.88,0.816,4.512,3.168,4.512
		c1.104,0,1.921-0.144,2.448-0.288l0.192,3.169c-0.816,0.336-2.112,0.576-3.744,0.576c-1.969,0-3.553-0.624-4.561-1.776
		c-1.2-1.248-1.632-3.313-1.632-6.049v-12.673h-3.601v-3.217h3.601v-5.568L219.769,232.26z"/>
	<path fill="#FFFFFF" d="M235.273,232.403c0.048,1.44-1.009,2.593-2.688,2.593c-1.488,0-2.544-1.152-2.544-2.593
		c0-1.488,1.104-2.64,2.64-2.64C234.264,229.764,235.273,230.915,235.273,232.403z M230.568,262.166v-23.234h4.225v23.234H230.568z"
		/>
	<path fill="#FFFFFF" d="M262.825,250.357c0,8.593-5.953,12.337-11.569,12.337c-6.288,0-11.137-4.608-11.137-11.953
		c0-7.776,5.088-12.337,11.521-12.337C258.313,238.404,262.825,243.252,262.825,250.357z M244.392,250.597
		c0,5.089,2.928,8.929,7.057,8.929c4.032,0,7.057-3.792,7.057-9.024c0-3.937-1.969-8.929-6.961-8.929
		S244.392,246.181,244.392,250.597z"/>
	<path fill="#FFFFFF" d="M268.151,245.221c0-2.4-0.048-4.368-0.191-6.289h3.744l0.24,3.841h0.096
		c1.152-2.208,3.841-4.368,7.681-4.368c3.217,0,8.209,1.92,8.209,9.889v13.873h-4.225v-13.394c0-3.744-1.392-6.864-5.376-6.864
		c-2.785,0-4.945,1.968-5.665,4.32c-0.192,0.528-0.288,1.248-0.288,1.969v13.969h-4.225V245.221z"/>
</g>
<g>
	<g>
		<path opacity="0.4" fill="#FFFFFF" enable-background="new    " d="M148.684,23.5c-46.208,0-83.667,37.459-83.667,83.666
			c0,20.148,11.929,47.424,11.929,47.424l-25.499,35.998l46.047-17.266c14.149,10.967,31.9,17.512,51.19,17.512
			c46.207,0,83.666-37.459,83.666-83.668C232.35,60.959,194.891,23.5,148.684,23.5z"/>
	</g>
	<path fill="#FFFFFF" d="M220.462,190.305l-15.866-48.244h-47.485l-15.425,48.244h-27.448L167.14,29.492h28.283l53.131,160.813
		H220.462z M198.183,119.159l-12.924-39.241c-1.765-5.353-3.219-10.441-4.524-15.361c-1.433,5.408-2.841,10.348-4.284,15.061
		l-12.956,39.542L198.183,119.159L198.183,119.159z"/>
</g>
</svg>
