<?xml version="1.0" encoding="utf-8"?>
<!-- Generator: Adobe Illustrator 16.0.3, SVG Export Plug-In . SVG Version: 6.00 Build 0)  -->
<!DOCTYPE svg PUBLIC "-//W3C//DTD SVG 1.1//EN" "http://www.w3.org/Graphics/SVG/1.1/DTD/svg11.dtd" [
	<!ENTITY ns_extend "http://ns.adobe.com/Extensibility/1.0/">
	<!ENTITY ns_ai "http://ns.adobe.com/AdobeIllustrator/10.0/">
	<!ENTITY ns_graphs "http://ns.adobe.com/Graphs/1.0/">
	<!ENTITY ns_vars "http://ns.adobe.com/Variables/1.0/">
	<!ENTITY ns_imrep "http://ns.adobe.com/ImageReplacement/1.0/">
	<!ENTITY ns_sfw "http://ns.adobe.com/SaveForWeb/1.0/">
	<!ENTITY ns_custom "http://ns.adobe.com/GenericCustomNamespace/1.0/">
	<!ENTITY ns_adobe_xpath "http://ns.adobe.com/XPath/1.0/">
]>
<svg version="1.1" id="Ebene_1" xmlns:x="&ns_extend;" xmlns:i="&ns_ai;" xmlns:graph="&ns_graphs;"
	 xmlns="http://www.w3.org/2000/svg" xmlns:xlink="http://www.w3.org/1999/xlink" x="0px" y="0px" width="300px" height="300px"
	 viewBox="0 0 300 300" enable-background="new 0 0 300 300" xml:space="preserve">
<metadata>
	<sfw  xmlns="&ns_sfw;">
		<slices></slices>
		<sliceSourceBounds  height="307.58" width="300" x="276.5" y="142.92" bottomLeftOrigin="true"></sliceSourceBounds>
	</sfw>
</metadata>
<rect y="0" fill="#5BC5F1" width="300" height="300"/>
<rect x="0.757" y="228.086" fill="none" width="298.486" height="79.494"/>
<g>
	<path fill="#FFFFFF" d="M120.636,104.754H139.3c2.733,0,4.676,2.225,4.343,4.948l-4.312,35.177
		c-0.842,6.848,8.564,7.428,10.901,1.786c0.455-1.069,1.496-1.786,2.608-1.786h1.162c0.762,0,1.371,0.3,1.786,0.882
		c0.419,0.572,0.521,1.27,0.302,2.017c-2.388,8.208-11.335,14.465-19.951,14.465c-9.531,0-16.98-7.546-15.921-17.363l2.701-29.161
		c0.126-1.339-0.841-2.4-2.18-2.4h-3.64c-1.349,0-2.326-1.122-2.16-2.493l0.125-1.122
		C115.408,106.979,117.914,104.754,120.636,104.754 M128.619,71.74c5.341-5.341,14.019-5.341,19.371,0
		c5.34,5.343,5.34,14.018,0,19.358c-5.351,5.343-14.03,5.343-19.371,0C123.278,85.758,123.278,77.081,128.619,71.74"/>
	<path fill="#FFFFFF" d="M190.461,60.092c-30.337-30.324-79.477-30.324-109.79,0c-30.324,30.322-30.324,79.475,0,109.8
		c30.313,30.313,79.453,30.303,109.776,0C220.553,139.776,220.991,90.622,190.461,60.092 M200.01,50.553
		c32.556,32.567,35.517,84.026,7.802,119.979l5.913,5.904l-16.708,16.708l-5.904-5.903c-35.953,27.704-87.412,24.756-119.993-7.822
		c-35.59-35.593-35.59-93.286,0-128.866C106.713,14.949,164.406,14.949,200.01,50.553 M253.11,215.822L217.3,180.031l-16.699,16.7
		l35.799,35.799c3.285,3.294,8.688,3.294,11.971,0l4.74-4.738C256.394,224.509,256.394,219.105,253.11,215.822"/>
</g>
<g>
	<rect x="2" y="241.5" fill="none" width="296" height="55"/>
	<path fill="#FFFFFF" d="M120.672,275.58v-3.601l3.697-3.408c7.344-6.816,10.801-10.561,10.849-14.689
		c0-2.784-1.488-5.232-5.568-5.232c-2.736,0-5.088,1.393-6.673,2.593l-1.728-4.177c2.256-1.824,5.665-3.216,9.601-3.216
		c6.913,0,10.273,4.368,10.273,9.457c0,5.472-3.937,9.889-9.361,14.929l-2.736,2.353v0.096h12.817v4.896H120.672z"/>
	<path fill="#FFFFFF" d="M146.784,272.316c0-2.208,1.536-3.792,3.648-3.792c2.16,0,3.647,1.536,3.647,3.792
		c0,2.16-1.439,3.793-3.647,3.793C148.272,276.109,146.784,274.476,146.784,272.316z"/>
	<path fill="#FFFFFF" d="M158.928,269.484c1.2,0.72,4.129,1.92,7.104,1.92c4.513,0,6.337-2.544,6.288-4.992
		c0-3.696-3.455-5.28-7.056-5.28h-2.736v-4.32h2.64c2.736,0,6.193-1.248,6.193-4.368c0-2.112-1.584-3.889-4.992-3.889
		c-2.545,0-5.089,1.104-6.385,1.968l-1.345-4.271c1.776-1.249,5.232-2.4,8.978-2.4c6.432,0,9.744,3.552,9.744,7.633
		c0,3.264-1.92,5.952-5.76,7.296v0.097c3.791,0.672,6.863,3.552,6.863,7.776c0,5.28-4.416,9.457-12.145,9.457
		c-3.792,0-7.057-1.057-8.736-2.16L158.928,269.484z"/>
</g>
</svg>
