<?xml version="1.0" encoding="UTF-8" standalone="no"?>
<svg
   xmlns:dc="http://purl.org/dc/elements/1.1/"
   xmlns:cc="http://creativecommons.org/ns#"
   xmlns:rdf="http://www.w3.org/1999/02/22-rdf-syntax-ns#"
   xmlns:svg="http://www.w3.org/2000/svg"
   xmlns="http://www.w3.org/2000/svg"
   viewBox="0 0 375 375"
   height="375"
   width="375"
   xml:space="preserve"
   version="1.1"
   id="svg2"><metadata
     id="metadata8"><rdf:RDF><cc:Work
         rdf:about=""><dc:format>image/svg+xml</dc:format><dc:type
           rdf:resource="http://purl.org/dc/dcmitype/StillImage" /></cc:Work></rdf:RDF></metadata><defs
     id="defs6" /><g
     transform="matrix(1.25,0,0,-1.25,0,375)"
     id="g10"><g
       transform="scale(0.1,0.1)"
       id="g12"><path
         id="path14"
         style="fill:#ce8e95;fill-opacity:1;fill-rule:nonzero;stroke:none"
         d="m 3000,529.785 c 0,-67.64 0,-529.78890625 -715,-529.78890625 l -1625,0 C 35,-0.00390625 0,472.145 0,539.785 L 0,2399.77 c 0,545 592.352,600 660,600 l 1615,0.3 c 67.65,0 725,-0.3 725,-600.3" /><path
         id="path16"
         style="fill:#26080d;fill-opacity:1;fill-rule:nonzero;stroke:none"
         d="M 991.719,657.703 1060.81,424 l 55.19,0 29.77,95.016 c 6.7,23.031 12.95,46.062 17.75,74.859 l 0.95,0 c 5.28,-28.312 10.56,-50.391 17.76,-74.859 l 27.83,-95.016 54.71,0 73.42,233.703 -58.06,0 -25.93,-103.656 c -6.23,-27.359 -11.51,-52.781 -15.34,-78.219 l -0.97,0 c -5.28,25.438 -11.51,50.86 -18.72,78.219 l -29.26,103.656 -47.99,0 -30.23,-106.531 c -6.72,-24 -14.39,-49.906 -19.21,-75.344 l -0.95,0 c -4.31,25.438 -9.59,50.86 -14.87,75.813 l -24.47,106.062 -60.471,0" /><path
         id="path18"
         style="fill:#26080d;fill-opacity:1;fill-rule:nonzero;stroke:none"
         d="m 1436.17,424 0,233.703 -59.5,0 0,-233.703 59.5,0 z m -29.75,331.109 c -19.67,0 -33.11,-13.906 -33.11,-32.14 0,-17.766 12.96,-31.672 32.63,-31.672 20.64,0 33.59,13.906 33.59,31.672 -0.47,18.234 -12.95,32.14 -33.11,32.14" /><path
         id="path20"
         style="fill:#26080d;fill-opacity:1;fill-rule:nonzero;stroke:none"
         d="m 1498.67,328.984 59.03,0 0,120.922 0.96,0 c 12,-18.703 36.47,-31.187 65.75,-31.187 53.26,0 106.53,40.797 106.53,125.25 0,72.937 -44.64,119.015 -98.38,119.015 -35.51,0 -62.87,-14.89 -80.14,-41.281 l -0.97,0 -2.87,36 -51.83,0 c 0.97,-22.078 1.92,-47.031 1.92,-77.75 l 0,-250.969 z m 59.03,228.907 c 0,4.797 0.96,10.078 2.39,14.875 5.77,25.906 28.32,43.672 52.79,43.672 37.92,0 58.07,-33.594 58.07,-74.875 0,-46.063 -22.07,-77.25 -59.51,-77.25 -24.96,0 -46.06,17.265 -51.83,41.265 -1.44,5.281 -1.91,10.563 -1.91,16.313 l 0,36" /><path
         id="path22"
         style="fill:#26080d;fill-opacity:1;fill-rule:nonzero;stroke:none"
         d="m 1977.86,524.297 c 0.95,5.281 1.92,13.906 1.92,24.953 0,51.344 -24.95,113.734 -100.78,113.734 -74.86,0 -114.2,-60.953 -114.2,-125.734 0,-71.5 44.62,-118.047 120.45,-118.047 33.58,0 61.42,6.235 81.58,14.391 l -8.64,40.797 c -17.75,-6.719 -37.44,-10.563 -64.78,-10.563 -37.44,0 -70.55,18.235 -71.99,60.469 l 156.44,0 z m -156.44,41.266 c 2.39,24 17.75,57.109 54.22,57.109 39.36,0 48.95,-35.516 48.47,-57.109 l -102.69,0" /><path
         id="path24"
         style="fill:#ffffff;fill-opacity:1;fill-rule:nonzero;stroke:none"
         d="m 2010,1100 700,0 0,1170 -700,0 0,-1170 z" /><path
         id="path26"
         style="fill:#333333;fill-opacity:1;fill-rule:nonzero;stroke:none"
         d="m 340,1100 1670,0 0,1170 -1670,0 0,-1170 z" /><path
         id="path28"
         style="fill:#333333;fill-opacity:1;fill-rule:nonzero;stroke:none"
         d="m 2246.92,1765.48 41.67,-130.48 90.18,0 -149.61,460.44 -107.25,0 -147.57,-460.44 86.77,0 39.61,130.48 146.2,0 z m -132.53,63.54 35.52,113.39 c 8.2,27.32 15.03,59.43 21.86,86.07 l 1.37,0 c 6.83,-26.64 14.34,-58.06 23.22,-86.07 l 36.2,-113.39 -118.17,0" /><path
         id="path30"
         style="fill:#ffffff;fill-opacity:1;fill-rule:nonzero;stroke:none"
         d="m 891.5,1625.36 c 21.172,-2.72 56.703,-6.14 103.156,-6.14 84.034,0 138.004,14.34 170.784,43.03 26.64,21.86 44.4,53.97 44.4,94.97 0,63.53 -44.4,101.78 -92.9,114.08 l 0,1.36 c 49.87,18.45 76.51,57.39 76.51,99.73 0,38.95 -19.14,69 -47.82,86.08 -31.43,21.86 -69.68,29.37 -131.85,29.37 -47.139,0 -95.639,-4.09 -122.28,-9.56 l 0,-452.92 z m 83.344,396.91 c 8.875,2.04 23.234,3.42 47.826,3.42 53.28,0 86.06,-19.81 86.06,-62.86 0,-38.94 -32.78,-66.27 -90.85,-66.27 l -43.036,0 0,125.71 z m 0,-187.18 41.676,0 c 58.06,0 104.51,-21.86 104.51,-75.15 0,-56.69 -47.81,-77.19 -101.78,-77.19 -19.12,0 -33.469,0.69 -44.406,2.05 l 0,150.29" /><path
         id="path32"
         style="fill:#ffffff;fill-opacity:1;fill-rule:nonzero;stroke:none"
         d="m 1739.82,1887.54 0,-6.51 -362.23,2.29 c -2.91,0 0,2.93 0,0 l 4.95,-113.22 c 0,-2.92 86.07,0.5 89,0.5 l 268.28,0 0,-116.99 c 1.54,-1.48 5.5,-0.06 7.02,1.41 l 176.11,165.92 c 1.52,1.47 1.52,3.87 0,5.35 l -176.11,165.93 c -1.52,1.48 -5.48,0.07 -7.02,-1.41 l 0,-19.56" /><path
         id="path34"
         style="fill:none;stroke:#ffffff;stroke-width:14.77000046;stroke-linecap:butt;stroke-linejoin:miter;stroke-miterlimit:10;stroke-dasharray:none;stroke-opacity:1"
         d="m 1739.82,1887.54 0,-6.51 -362.23,2.29 c -2.91,0 0,2.93 0,0 l 4.95,-113.22 c 0,-2.92 86.07,0.5 89,0.5 l 268.28,0 0,-116.99 c 1.54,-1.48 5.5,-0.06 7.02,1.41 l 176.11,165.92 c 1.52,1.47 1.52,3.87 0,5.35 l -176.11,165.93 c -1.52,1.48 -5.48,0.07 -7.02,-1.41 l 0,-103.27 z" /></g></g></svg>