<?xml version="1.0" encoding="UTF-8" standalone="no"?>
<svg
   xmlns:dc="http://purl.org/dc/elements/1.1/"
   xmlns:cc="http://creativecommons.org/ns#"
   xmlns:rdf="http://www.w3.org/1999/02/22-rdf-syntax-ns#"
   xmlns:svg="http://www.w3.org/2000/svg"
   xmlns="http://www.w3.org/2000/svg"
   viewBox="0 0 375 375"
   height="375"
   width="375"
   xml:space="preserve"
   version="1.1"
   id="svg2"><metadata
     id="metadata8"><rdf:RDF><cc:Work
         rdf:about=""><dc:format>image/svg+xml</dc:format><dc:type
           rdf:resource="http://purl.org/dc/dcmitype/StillImage" /></cc:Work></rdf:RDF></metadata><defs
     id="defs6" /><g
     transform="matrix(1.25,0,0,-1.25,0,375)"
     id="g10"><g
       transform="scale(0.1,0.1)"
       id="g12"><path
         id="path14"
         style="fill:#aebcc4;fill-opacity:1;fill-rule:nonzero;stroke:none"
         d="m 3000,529.855 c 0,-67.632 0,-529.85109375 -715,-529.85109375 l -1625,0 C 35,0.00390625 0,472.223 0,539.855 L 0,2399.86 c 0,545 592.352,600 660,600 l 1615,0.28 c 67.65,0 725,-0.28 725,-600.28" /><path
         id="path16"
         style="fill:#080828;fill-opacity:1;fill-rule:nonzero;stroke:none"
         d="m 692.672,508.984 59.031,0 0,120.922 0.953,0 c 12,-18.703 36.469,-31.187 65.75,-31.187 53.266,0 106.532,40.797 106.532,125.25 0,72.937 -44.641,119.015 -98.375,119.015 -35.516,0 -62.875,-14.89 -80.141,-41.281 l -0.969,0 -2.875,36 -51.828,0 c 0.969,-22.078 1.922,-47.031 1.922,-77.75 l 0,-250.969 z m 59.031,228.907 c 0,4.797 0.953,10.078 2.391,14.875 5.765,25.906 28.312,43.672 52.781,43.672 37.922,0 58.078,-33.594 58.078,-74.875 0,-46.063 -22.078,-77.25 -59.515,-77.25 -24.954,0 -46.063,17.265 -51.829,41.265 -1.437,5.281 -1.906,10.563 -1.906,16.313 l 0,36" /><path
         id="path18"
         style="fill:#080828;fill-opacity:1;fill-rule:nonzero;stroke:none"
         d="m 1079.72,842.984 c -70.53,0 -120.923,-47.031 -120.923,-123.812 0,-74.859 50.863,-120.453 117.093,-120.453 59.5,0 119.97,38.39 119.97,124.297 0,71.015 -46.55,119.968 -116.14,119.968 z m -1.44,-43.203 c 40.31,0 56.63,-41.734 56.63,-78.218 0,-47.016 -23.52,-80.125 -57.11,-80.125 -35.99,0 -58.07,34.062 -58.07,79.171 0,38.875 16.8,79.172 58.55,79.172" /><path
         id="path20"
         style="fill:#080828;fill-opacity:1;fill-rule:nonzero;stroke:none"
         d="m 1303.17,604 0,233.703 -59.5,0 0,-233.703 59.5,0 z m -29.75,331.109 c -19.67,0 -33.11,-13.906 -33.11,-32.14 0,-17.766 12.96,-31.672 32.63,-31.672 20.64,0 33.59,13.906 33.59,31.672 -0.47,18.234 -12.95,32.14 -33.11,32.14" /><path
         id="path22"
         style="fill:#080828;fill-opacity:1;fill-rule:nonzero;stroke:none"
         d="m 1366.67,604 59.5,0 0,137.25 c 0,6.719 0.49,13.906 2.41,19.188 6.23,17.75 22.55,34.546 46.06,34.546 32.16,0 44.63,-25.421 44.63,-59.015 l 0,-131.969 59.03,0 0,138.688 c 0,73.89 -42.24,100.296 -83.02,100.296 -38.87,0 -64.31,-22.078 -74.39,-40.312 l -1.44,0 -2.87,35.031 -51.83,0 c 1.44,-20.156 1.92,-42.719 1.92,-69.594 l 0,-164.109" /><path
         id="path24"
         style="fill:#080828;fill-opacity:1;fill-rule:nonzero;stroke:none"
         d="m 1648.75,890.484 0,-52.781 -33.59,0 0,-44.156 33.59,0 0,-109.891 c 0,-30.703 5.75,-51.828 18.23,-65.265 11.04,-11.985 29.27,-19.188 50.86,-19.188 18.72,0 34.08,2.391 42.72,5.75 l -0.97,45.11 c -5.26,-1.438 -12.95,-2.875 -23.03,-2.875 -22.54,0 -30.23,14.875 -30.23,43.187 l 0,103.172 56.15,0 0,44.156 -56.15,0 0,66.703 -57.58,-13.922" /><path
         id="path26"
         style="fill:#080828;fill-opacity:1;fill-rule:nonzero;stroke:none"
         d="m 2012.72,842.984 c -70.53,0 -120.92,-47.031 -120.92,-123.812 0,-74.859 50.86,-120.453 117.09,-120.453 59.5,0 119.97,38.39 119.97,124.297 0,71.015 -46.55,119.968 -116.14,119.968 z m -1.44,-43.203 c 40.31,0 56.63,-41.734 56.63,-78.218 0,-47.016 -23.52,-80.125 -57.11,-80.125 -35.99,0 -58.07,34.062 -58.07,79.171 0,38.875 16.8,79.172 58.55,79.172" /><path
         id="path28"
         style="fill:#080828;fill-opacity:1;fill-rule:nonzero;stroke:none"
         d="m 2243.42,604 0,189.547 50.86,0 0,44.156 -51.34,0 0,12 c 0,28.781 10.08,53.266 39.34,53.266 10.56,0 18.72,-1.922 24.95,-4.328 l 4.33,45.593 c -9.61,3.36 -22.08,5.75 -37.92,5.75 -20.16,0 -43.66,-6.234 -60.94,-22.546 -20.15,-19.204 -28.31,-49.422 -28.31,-79.657 l 0,-10.078 -31.67,0 0,-44.156 31.67,0 0,-189.547 59.03,0" /><path
         id="path30"
         style="fill:#080828;fill-opacity:1;fill-rule:nonzero;stroke:none"
         d="M 999.281,357.703 1086.14,124 l 58.06,0 89.25,233.703 -62.37,0 -36.95,-118.531 c -6.24,-21.109 -11.52,-39.359 -15.85,-58.547 l -1.44,0 c -4.31,19.188 -9.11,37.906 -15.82,58.547 l -37.91,118.531 -63.829,0" /><path
         id="path32"
         style="fill:#080828;fill-opacity:1;fill-rule:nonzero;stroke:none"
         d="m 1329.17,124 0,233.703 -59.5,0 0,-233.703 59.5,0 z m -29.75,331.109 c -19.67,0 -33.11,-13.906 -33.11,-32.14 0,-17.766 12.96,-31.672 32.63,-31.672 20.64,0 33.59,13.906 33.59,31.672 -0.47,18.234 -12.95,32.14 -33.11,32.14" /><path
         id="path34"
         style="fill:#080828;fill-opacity:1;fill-rule:nonzero;stroke:none"
         d="m 1589.86,224.297 c 0.95,5.281 1.92,13.906 1.92,24.953 0,51.344 -24.95,113.734 -100.78,113.734 -74.86,0 -114.2,-60.953 -114.2,-125.734 0,-71.5 44.62,-118.047 120.45,-118.047 33.58,0 61.42,6.235 81.58,14.391 l -8.64,40.797 c -17.75,-6.719 -37.44,-10.563 -64.78,-10.563 -37.44,0 -70.55,18.235 -71.99,60.469 l 156.44,0 z m -156.44,41.266 c 2.39,24 17.75,57.109 54.22,57.109 39.36,0 48.95,-35.516 48.47,-57.109 l -102.69,0" /><path
         id="path36"
         style="fill:#080828;fill-opacity:1;fill-rule:nonzero;stroke:none"
         d="M 1613.72,357.703 1682.81,124 l 55.19,0 29.77,95.016 c 6.7,23.031 12.95,46.062 17.75,74.859 l 0.95,0 c 5.28,-28.312 10.56,-50.391 17.76,-74.859 l 27.83,-95.016 54.71,0 73.42,233.703 -58.06,0 -25.93,-103.656 c -6.23,-27.359 -11.51,-52.781 -15.34,-78.219 l -0.97,0 c -5.28,25.438 -11.51,50.86 -18.72,78.219 l -29.26,103.656 -47.99,0 -30.23,-106.531 c -6.72,-24 -14.39,-49.906 -19.21,-75.344 l -0.95,0 c -4.31,25.438 -9.59,50.86 -14.87,75.813 l -24.47,106.062 -60.47,0" /><path
         id="path38"
         style="fill:#ffffff;fill-opacity:1;fill-rule:nonzero;stroke:none"
         d="M 2845,1826.63 C 2845,1386.66 2488.34,1030 2048.38,1030 c -439.97,0 -796.63,356.66 -796.63,796.63 0,439.97 356.66,796.62 796.63,796.62 439.96,0 796.62,-356.65 796.62,-796.62" /><path
         id="path40"
         style="fill:#ffffff;fill-opacity:1;fill-rule:nonzero;stroke:none"
         d="m 1757.46,1848.38 c 0,-439.98 -356.66,-796.63 -796.628,-796.63 -439.961,0 -796.621,356.65 -796.621,796.63 0,439.96 356.66,796.62 796.621,796.62 439.968,0 796.628,-356.66 796.628,-796.62" /><path
         id="path42"
         style="fill:#080828;fill-opacity:1;fill-rule:nonzero;stroke:none"
         d="m 897.715,1910.97 c 0,0 130.015,-112.93 176.555,-182.75 l 1366.05,-3.1 c 0,0 207.64,113.99 211.52,179.94 l -96.5,7.51 c 0,0 -108.38,69.71 -294.59,96.87 l -127.89,7.69 -38.73,62.04 -73.7,19.37 -31.02,-89.23 -217.23,-3.88 -23.27,46.56 -65.93,3.87 -31.05,100.87 -77.57,11.64 -38.81,-135.78 -147.41,-11.64 -15.53,34.91 -139.66,5.05 15.53,-60.91 -88.48,0 0,-45 -41.11,-15.51 -18.6,-27.16" /><path
         id="path44"
         style="fill:none;stroke:#080828;stroke-width:10;stroke-linecap:butt;stroke-linejoin:miter;stroke-miterlimit:10;stroke-dasharray:none;stroke-opacity:1"
         d="m 2185,1980 0,155.08 62.5,-7.77 -61.4,-30.04" /><path
         id="path46"
         style="fill:none;stroke:#080828;stroke-width:10;stroke-linecap:butt;stroke-linejoin:miter;stroke-miterlimit:10;stroke-dasharray:none;stroke-opacity:1"
         d="m 160,1845 2690,0" /><path
         id="path48"
         style="fill:none;stroke:#080828;stroke-width:12.39000034;stroke-linecap:butt;stroke-linejoin:miter;stroke-miterlimit:10;stroke-dasharray:none;stroke-opacity:1"
         d="m 250.316,1626 c 0,0 272.59,-167.29 415.082,-6.2 0,0 247.797,-148.67 477.032,0" /><path
         id="path50"
         style="fill:none;stroke:#080828;stroke-width:12.39000034;stroke-linecap:butt;stroke-linejoin:miter;stroke-miterlimit:10;stroke-dasharray:none;stroke-opacity:1"
         d="m 696.367,1489.7 c 0,0 272.59,-167.27 415.083,-6.19 0,0 247.81,-148.68 477.03,0" /></g></g></svg>