<?xml version="1.0" encoding="UTF-8" standalone="no"?>
<svg
   xmlns:dc="http://purl.org/dc/elements/1.1/"
   xmlns:cc="http://creativecommons.org/ns#"
   xmlns:rdf="http://www.w3.org/1999/02/22-rdf-syntax-ns#"
   xmlns:svg="http://www.w3.org/2000/svg"
   xmlns="http://www.w3.org/2000/svg"
   viewBox="0 0 375 375.83749"
   height="375.83749"
   width="375"
   xml:space="preserve"
   version="1.1"
   id="svg2"><metadata
     id="metadata8"><rdf:RDF><cc:Work
         rdf:about=""><dc:format>image/svg+xml</dc:format><dc:type
           rdf:resource="http://purl.org/dc/dcmitype/StillImage" /></cc:Work></rdf:RDF></metadata><defs
     id="defs6"><clipPath
       id="clipPath18"
       clipPathUnits="userSpaceOnUse"><path
         id="path20"
         d="m 0,0 0,3007 2994,0 L 2994,0 0,0 Z" /></clipPath></defs><g
     transform="matrix(1.25,0,0,-1.25,0,375.8375)"
     id="g10"><g
       transform="scale(0.1,0.1)"
       id="g12"><g
         id="g14"><g
           clip-path="url(#clipPath18)"
           id="g16"><path
             id="path22"
             style="fill:#91c4ab;fill-opacity:1;fill-rule:nonzero;stroke:none"
             d="m 2993.48,536.426 c 0,-67.641 -0.02,-536.42990625 -715.02,-536.42990625 l -1624.999,0 C 28.4609,-0.00390625 -6.51953,478.785 -6.51953,546.426 l 0,1859.994 c 0,545 592.32853,600 659.98853,600 l 1614.991,0.29 c 67.66,0 725.02,-0.29 725.02,-600.29" /></g></g><path
         id="path24"
         style="fill:#012b16;fill-opacity:1;fill-rule:nonzero;stroke:none"
         d="M 954.281,691.703 1041.14,458 l 58.06,0 89.25,233.703 -62.37,0 -36.95,-118.531 c -6.24,-21.109 -11.52,-39.359 -15.85,-58.547 l -1.44,0 c -4.31,19.188 -9.11,37.906 -15.82,58.547 l -37.91,118.531 -63.829,0" /><path
         id="path26"
         style="fill:#012b16;fill-opacity:1;fill-rule:nonzero;stroke:none"
         d="m 1323.72,696.984 c -70.53,0 -120.92,-47.031 -120.92,-123.812 0,-74.859 50.86,-120.453 117.09,-120.453 59.5,0 119.97,38.39 119.97,124.297 0,71.015 -46.55,119.968 -116.14,119.968 z m -1.44,-43.203 c 40.31,0 56.63,-41.734 56.63,-78.218 0,-47.016 -23.52,-80.125 -57.11,-80.125 -35.99,0 -58.07,34.062 -58.07,79.171 0,38.875 16.8,79.172 58.55,79.172" /><path
         id="path28"
         style="fill:#012b16;fill-opacity:1;fill-rule:nonzero;stroke:none"
         d="m 1548.17,458 0,233.703 -59.5,0 0,-233.703 59.5,0 z m -29.75,331.109 c -19.67,0 -33.11,-13.906 -33.11,-32.14 0,-17.766 12.96,-31.672 32.63,-31.672 20.64,0 33.59,13.906 33.59,31.672 -0.47,18.234 -12.95,32.14 -33.11,32.14" /><path
         id="path30"
         style="fill:#012b16;fill-opacity:1;fill-rule:nonzero;stroke:none"
         d="m 1775.31,508.859 c -11.51,-4.796 -25.92,-9.109 -46.54,-9.109 -40.32,0 -71.5,27.359 -71.5,75.344 -0.49,42.703 26.39,75.812 71.5,75.812 21.11,0 35.03,-4.797 44.62,-9.109 l 10.56,44.141 c -13.43,6.234 -35.51,11.046 -57.11,11.046 -82.06,0 -130.04,-54.718 -130.04,-124.781 0,-72.453 47.5,-119 120.45,-119 29.27,0 53.73,6.235 66.22,12 l -8.16,43.656" /><path
         id="path32"
         style="fill:#012b16;fill-opacity:1;fill-rule:nonzero;stroke:none"
         d="m 2020.86,558.297 c 0.95,5.281 1.92,13.906 1.92,24.953 0,51.344 -24.95,113.734 -100.78,113.734 -74.86,0 -114.2,-60.953 -114.2,-125.734 0,-71.5 44.62,-118.047 120.45,-118.047 33.58,0 61.42,6.235 81.58,14.391 l -8.64,40.797 c -17.75,-6.719 -37.44,-10.563 -64.78,-10.563 -37.44,0 -70.55,18.235 -71.99,60.469 l 156.44,0 z m -156.44,41.266 c 2.39,24 17.75,57.109 54.22,57.109 39.36,0 48.95,-35.516 48.47,-57.109 l -102.69,0" /><path
         id="path34"
         style="fill:none;stroke:#ffffff;stroke-width:50.72000122;stroke-linecap:butt;stroke-linejoin:miter;stroke-miterlimit:10;stroke-dasharray:none;stroke-opacity:1"
         d="m 2578.94,2004.13 c 0,414.74 -518.66,750.96 -1085.46,750.96 -566.8,0 -1085.46,-336.22 -1085.46,-750.96 0,-414.74 518.66,-750.96 1085.46,-750.96 16.3,0 32.49,0.35 48.61,0.9 -66.79,-180.23 -277.56,-299.125 -277.56,-299.125 263.92,17.59 480.06,225.945 582.28,343.935 392.72,105.37 732.13,381.35 732.13,705.25 z" /></g></g></svg>