<?xml version="1.0" encoding="iso-8859-1"?>
<!-- Generator: Adobe Illustrator 16.0.3, SVG Export Plug-In . SVG Version: 6.00 Build 0)  -->
<!DOCTYPE svg PUBLIC "-//W3C//DTD SVG 1.1//EN" "http://www.w3.org/Graphics/SVG/1.1/DTD/svg11.dtd">
<svg version="1.1" id="Ebene_1" xmlns="http://www.w3.org/2000/svg" xmlns:xlink="http://www.w3.org/1999/xlink" x="0px" y="0px"
	 width="518px" height="518px" viewBox="0 0 518 518" style="enable-background:new 0 0 518 518;" xml:space="preserve">
<path style="fill-rule:evenodd;clip-rule:evenodd;fill:#754D29;" d="M518,512c0,3.313-2.017,6-4.505,6H4.505
	C2.018,518,0,515.313,0,512V6c0-3.313,2.017-6,4.504-6h508.99C515.983,0,518,2.687,518,6V512z"/>
<g>
	<g id="XMLID_1_">
		<g>
			<path style="fill:#754D29;" d="M419.679,200.93c0.57,87.61-71.08,160.28-160.37,160.66c-88.46,0.38-160.09-70.49-161.13-160.5
				c0.91-91.88,75.04-160.51,160.47-160.72C346.899,40.14,419.099,111.9,419.679,200.93z"/>
			<path style="fill:#FCFBFB;" d="M98.179,201.09c1.04,90.01,72.67,160.88,161.13,160.5c89.29-0.38,160.94-73.05,160.37-160.66
				c-0.58-89.03-72.779-160.79-161.03-160.56C173.219,40.58,99.089,109.21,98.179,201.09z M254.709,376.09
				c-94.72-2.21-173.28-81.439-170.77-179.76c2.41-94.42,80.57-170.87,175.1-170.34c96.51-0.58,177.17,79.81,175.04,178.93
				C432.039,300.08,352.519,378.37,254.709,376.09z"/>
		</g>
		<g>
		</g>
	</g>
	<g>
		<path style="fill:#FFFFFF;" d="M157.454,156.477v7.565c0,1.476,0.09,2.404,0.271,2.786c0.181,0.383,0.503,0.688,0.966,0.916
			c0.463,0.229,1.312,0.342,2.545,0.342v0.744h-13.864v-0.744c1.261,0,2.116-0.117,2.566-0.352c0.449-0.234,0.764-0.54,0.945-0.916
			c0.181-0.375,0.272-1.301,0.272-2.776v-17.707c0-1.475-0.091-2.404-0.272-2.787s-0.5-0.688-0.956-0.916
			c-0.457-0.228-1.308-0.342-2.556-0.342v-0.745h11.892c3.917,0,6.727,0.698,8.431,2.093c1.704,1.396,2.556,3.139,2.556,5.231
			c0,1.771-0.55,3.286-1.65,4.548c-1.101,1.261-2.616,2.119-4.548,2.575C162.752,156.315,160.553,156.477,157.454,156.477z
			 M157.454,143.116v11.791c0.443,0.027,0.778,0.041,1.006,0.041c1.637,0,2.897-0.486,3.783-1.459
			c0.885-0.973,1.328-2.479,1.328-4.518c0-2.025-0.442-3.507-1.328-4.447c-0.886-0.939-2.207-1.408-3.964-1.408H157.454z"/>
		<path style="fill:#FFFFFF;" d="M192.767,140.922v0.925c-1.395,0.913-2.421,1.805-3.079,2.676
			c-0.912,1.208-1.623,2.757-2.133,4.648c-0.644,2.348-0.966,5.628-0.966,9.84c0,3.971,0.292,7.056,0.875,9.256
			c0.583,2.199,1.378,3.977,2.384,5.332c0.697,0.938,1.67,1.764,2.917,2.475v1.006c-3.233-1.086-5.973-3.303-8.22-6.649
			s-3.37-7.194-3.37-11.54c0-4.292,1.12-8.092,3.36-11.398C186.777,144.186,189.521,141.996,192.767,140.922z"/>
		<path style="fill:#FFFFFF;" d="M210.394,161.064h-9.638l-1.147,2.655c-0.376,0.886-0.563,1.616-0.563,2.193
			c0,0.765,0.309,1.328,0.926,1.69c0.362,0.215,1.254,0.375,2.676,0.482v0.744h-9.075v-0.744c0.979-0.146,1.784-0.553,2.415-1.217
			c0.63-0.664,1.408-2.035,2.334-4.115l9.759-21.771h0.382l9.839,22.375c0.939,2.12,1.71,3.455,2.314,4.004
			c0.456,0.416,1.1,0.658,1.932,0.725v0.744h-13.2v-0.744h0.543c1.06,0,1.804-0.146,2.233-0.442
			c0.295-0.214,0.442-0.522,0.442-0.926c0-0.241-0.04-0.489-0.121-0.744c-0.027-0.121-0.228-0.624-0.604-1.509L210.394,161.064z
			 M209.709,159.574l-4.064-9.396l-4.186,9.396H209.709z"/>
		<path style="fill:#FFFFFF;" d="M241.3,149.454c1.636,0,3.159,0.423,4.568,1.268c1.408,0.845,2.478,2.046,3.209,3.602
			s1.097,3.26,1.097,5.11c0,2.67-0.678,4.904-2.032,6.701c-1.637,2.173-3.897,3.26-6.781,3.26c-2.831,0-5.01-0.992-6.54-2.979
			c-1.529-1.984-2.294-4.285-2.294-6.901c0-2.696,0.781-5.047,2.344-7.053C236.434,150.457,238.577,149.454,241.3,149.454z
			 M241.38,150.883c-0.684,0-1.271,0.258-1.761,0.774s-0.812,1.536-0.966,3.059s-0.231,3.639-0.231,6.349
			c0,1.436,0.094,2.776,0.281,4.023c0.147,0.953,0.463,1.678,0.946,2.174s1.033,0.744,1.65,0.744c0.604,0,1.107-0.168,1.509-0.503
			c0.523-0.456,0.872-1.093,1.046-1.911c0.268-1.274,0.402-3.85,0.402-7.727c0-2.281-0.127-3.848-0.382-4.699
			c-0.255-0.852-0.63-1.472-1.127-1.861C242.4,151.023,241.944,150.883,241.38,150.883z"/>
		<path style="fill:#FFFFFF;" d="M260.838,150.018v4.266c1.248-1.945,2.34-3.236,3.28-3.873c0.939-0.638,1.844-0.956,2.716-0.956
			c0.751,0,1.352,0.231,1.801,0.694s0.674,1.116,0.674,1.961c0,0.899-0.218,1.597-0.654,2.094c-0.436,0.496-0.962,0.744-1.579,0.744
			c-0.711,0-1.328-0.229-1.852-0.685c-0.523-0.456-0.832-0.71-0.925-0.765c-0.135-0.08-0.289-0.121-0.463-0.121
			c-0.389,0-0.758,0.148-1.106,0.443c-0.55,0.456-0.966,1.106-1.248,1.951c-0.43,1.302-0.644,2.736-0.644,4.307v4.326l0.02,1.127
			c0,0.764,0.047,1.254,0.141,1.469c0.161,0.361,0.398,0.627,0.714,0.795s0.849,0.271,1.6,0.312v0.724h-10.162v-0.724
			c0.818-0.067,1.372-0.292,1.66-0.675c0.288-0.382,0.433-1.391,0.433-3.027v-10.403c0-1.073-0.054-1.757-0.161-2.052
			c-0.134-0.376-0.329-0.65-0.583-0.825s-0.704-0.295-1.348-0.362v-0.744H260.838z"/>
		<path style="fill:#FFFFFF;" d="M297.821,154.363c2.589,0.604,4.407,1.335,5.453,2.193c1.502,1.221,2.253,2.804,2.253,4.748
			c0,2.053-0.825,3.75-2.475,5.092c-2.026,1.623-4.97,2.434-8.833,2.434h-13.864v-0.744c1.261,0,2.116-0.117,2.565-0.352
			s0.765-0.54,0.946-0.916c0.181-0.375,0.271-1.301,0.271-2.776v-17.707c0-1.475-0.09-2.404-0.271-2.787s-0.5-0.688-0.956-0.916
			c-0.457-0.228-1.308-0.342-2.556-0.342v-0.745h13.079c3.125,0,5.338,0.279,6.64,0.835c1.301,0.557,2.327,1.388,3.079,2.495
			c0.751,1.107,1.126,2.284,1.126,3.531c0,1.315-0.477,2.485-1.428,3.512C301.899,152.945,300.222,153.76,297.821,154.363z
			 M290.497,155.39v8.753l-0.02,1.006c0,0.725,0.185,1.271,0.553,1.641c0.369,0.368,0.916,0.553,1.64,0.553
			c1.073,0,2.063-0.238,2.968-0.715c0.906-0.476,1.6-1.166,2.083-2.072c0.483-0.905,0.725-1.914,0.725-3.027
			c0-1.275-0.295-2.418-0.885-3.432c-0.59-1.012-1.402-1.721-2.435-2.123S292.549,155.377,290.497,155.39z M290.497,153.82
			c1.905,0,3.31-0.215,4.216-0.645c0.905-0.429,1.6-1.032,2.083-1.811c0.483-0.777,0.724-1.771,0.724-2.979
			c0-1.207-0.238-2.196-0.714-2.967c-0.477-0.771-1.157-1.358-2.042-1.761c-0.886-0.402-2.308-0.597-4.266-0.583V153.82z"/>
		<path style="fill:#FFFFFF;" d="M307.479,177.08v-0.926c1.395-0.925,2.421-1.824,3.078-2.695c0.898-1.207,1.609-2.75,2.133-4.629
			c0.645-2.359,0.967-5.646,0.967-9.859c0-3.97-0.293-7.052-0.876-9.245s-1.378-3.967-2.384-5.322
			c-0.698-0.939-1.671-1.764-2.918-2.475v-1.006c3.232,1.086,5.973,3.304,8.219,6.65c2.248,3.348,3.371,7.193,3.371,11.54
			c0,4.279-1.123,8.072-3.371,11.378C313.452,173.797,310.712,175.994,307.479,177.08z"/>
		<path style="fill:#FFFFFF;" d="M147.132,193.498h22.013v2.615h-22.013V193.498z M147.132,200.078h22.013v2.615h-22.013V200.078z"
			/>
		<path style="fill:#FFFFFF;" d="M180.936,199.333v7.565c0,1.477,0.091,2.404,0.272,2.787s0.503,0.688,0.966,0.916
			c0.463,0.228,1.311,0.342,2.545,0.342v0.744h-13.864v-0.744c1.261,0,2.116-0.117,2.565-0.353c0.449-0.234,0.765-0.54,0.946-0.915
			c0.181-0.376,0.271-1.301,0.271-2.777v-17.707c0-1.475-0.09-2.404-0.271-2.786s-0.5-0.688-0.956-0.915
			c-0.456-0.229-1.308-0.343-2.555-0.343v-0.744h11.892c3.917,0,6.727,0.698,8.431,2.093c1.703,1.395,2.555,3.139,2.555,5.231
			c0,1.771-0.55,3.286-1.65,4.547c-1.1,1.262-2.616,2.12-4.547,2.575C186.234,199.172,184.035,199.333,180.936,199.333z
			 M180.936,185.973v11.791c0.443,0.027,0.778,0.04,1.006,0.04c1.636,0,2.897-0.485,3.783-1.458s1.328-2.479,1.328-4.518
			c0-2.025-0.443-3.508-1.328-4.447c-0.885-0.938-2.207-1.408-3.964-1.408H180.936z"/>
		<path style="fill:#FFFFFF;" d="M208.22,183.779v0.926c-1.395,0.912-2.421,1.805-3.079,2.676c-0.912,1.207-1.623,2.757-2.133,4.648
			c-0.644,2.348-0.966,5.627-0.966,9.839c0,3.972,0.292,7.057,0.875,9.256c0.583,2.2,1.378,3.978,2.384,5.333
			c0.697,0.938,1.67,1.764,2.917,2.475v1.006c-3.233-1.086-5.973-3.304-8.219-6.65c-2.248-3.346-3.371-7.193-3.371-11.539
			c0-4.293,1.12-8.092,3.36-11.398C202.23,187.043,204.974,184.853,208.22,183.779z"/>
		<path style="fill:#FFFFFF;" d="M225.847,203.921h-9.638l-1.147,2.655c-0.375,0.886-0.563,1.617-0.563,2.193
			c0,0.766,0.309,1.328,0.926,1.691c0.362,0.215,1.254,0.375,2.676,0.482v0.744h-9.075v-0.744c0.979-0.147,1.784-0.554,2.415-1.218
			c0.63-0.663,1.408-2.035,2.334-4.114l9.759-21.771h0.382l9.839,22.375c0.939,2.119,1.71,3.454,2.314,4.004
			c0.456,0.416,1.1,0.658,1.932,0.725v0.744h-13.2v-0.744h0.543c1.06,0,1.804-0.147,2.233-0.443
			c0.295-0.214,0.443-0.522,0.443-0.925c0-0.241-0.041-0.489-0.121-0.745c-0.027-0.12-0.228-0.623-0.604-1.509L225.847,203.921z
			 M225.163,202.432l-4.064-9.396l-4.185,9.396H225.163z"/>
		<path style="fill:#FFFFFF;" d="M239.429,184.403h14.085v0.744h-0.704c-1.06,0-1.788,0.11-2.183,0.332
			c-0.396,0.222-0.678,0.526-0.845,0.915c-0.168,0.39-0.251,1.362-0.251,2.918v13.361c0,2.441,0.184,4.058,0.553,4.849
			c0.369,0.792,0.976,1.448,1.821,1.972s1.912,0.785,3.199,0.785c1.476,0,2.733-0.332,3.773-0.996
			c1.04-0.664,1.817-1.58,2.334-2.746c0.517-1.168,0.775-3.199,0.775-6.098v-11.127c0-1.221-0.127-2.092-0.382-2.615
			c-0.255-0.523-0.577-0.886-0.966-1.087c-0.604-0.308-1.456-0.463-2.556-0.463v-0.744h9.437v0.744h-0.563
			c-0.765,0-1.402,0.155-1.912,0.463c-0.51,0.309-0.879,0.771-1.106,1.389c-0.175,0.429-0.262,1.2-0.262,2.313v10.363
			c0,3.205-0.211,5.52-0.634,6.941c-0.422,1.422-1.452,2.73-3.088,3.924c-1.637,1.193-3.87,1.791-6.701,1.791
			c-2.361,0-4.185-0.316-5.473-0.946c-1.758-0.858-2.999-1.958-3.723-3.3c-0.725-1.342-1.086-3.146-1.086-5.412v-13.361
			c0-1.569-0.087-2.545-0.262-2.928c-0.175-0.382-0.477-0.688-0.905-0.915c-0.43-0.228-1.221-0.335-2.375-0.322V184.403z"/>
		<path style="fill:#FFFFFF;" d="M286.553,197.221c2.588,0.604,4.406,1.334,5.453,2.193c1.502,1.221,2.253,2.803,2.253,4.748
			c0,2.053-0.825,3.75-2.475,5.091c-2.026,1.624-4.97,2.435-8.833,2.435h-13.864v-0.744c1.261,0,2.116-0.117,2.566-0.353
			c0.449-0.234,0.764-0.54,0.945-0.915c0.181-0.376,0.272-1.301,0.272-2.777v-17.707c0-1.475-0.091-2.404-0.272-2.786
			s-0.5-0.688-0.956-0.915c-0.457-0.229-1.308-0.343-2.556-0.343v-0.744h13.079c3.125,0,5.338,0.278,6.64,0.835
			c1.301,0.557,2.327,1.389,3.079,2.495c0.751,1.106,1.126,2.284,1.126,3.531c0,1.314-0.476,2.485-1.428,3.511
			C290.631,195.802,288.954,196.617,286.553,197.221z M279.229,198.246V207l-0.021,1.006c0,0.725,0.185,1.271,0.554,1.64
			c0.369,0.369,0.916,0.554,1.64,0.554c1.073,0,2.063-0.238,2.968-0.715c0.906-0.477,1.6-1.167,2.083-2.072
			c0.483-0.906,0.725-1.915,0.725-3.028c0-1.274-0.295-2.418-0.885-3.431c-0.59-1.013-1.402-1.721-2.435-2.123
			C282.824,198.428,281.281,198.233,279.229,198.246z M279.229,196.678c1.904,0,3.31-0.215,4.215-0.645
			c0.905-0.429,1.6-1.033,2.083-1.811c0.483-0.778,0.724-1.771,0.724-2.979s-0.238-2.196-0.714-2.968
			c-0.476-0.771-1.157-1.358-2.042-1.761s-2.308-0.597-4.266-0.584V196.678z"/>
		<path style="fill:#FFFFFF;" d="M296.211,219.938v-0.926c1.395-0.926,2.421-1.824,3.079-2.696c0.898-1.207,1.609-2.75,2.133-4.628
			c0.644-2.36,0.966-5.646,0.966-9.859c0-3.971-0.292-7.053-0.875-9.246s-1.378-3.967-2.384-5.322
			c-0.698-0.938-1.67-1.764-2.917-2.475v-1.006c3.232,1.086,5.972,3.304,8.219,6.65s3.371,7.193,3.371,11.539
			c0,4.279-1.124,8.072-3.371,11.379S299.444,218.852,296.211,219.938z"/>
		<path style="fill:#FFFFFF;" d="M147.132,236.355h22.013v2.615h-22.013V236.355z M147.132,242.935h22.013v2.616h-22.013V242.935z"
			/>
		<path style="fill:#FFFFFF;" d="M180.936,242.189v7.566c0,1.476,0.091,2.404,0.272,2.787c0.181,0.382,0.503,0.688,0.966,0.915
			c0.463,0.229,1.311,0.343,2.545,0.343v0.744h-13.864v-0.744c1.261,0,2.116-0.117,2.565-0.353c0.449-0.235,0.765-0.54,0.946-0.915
			c0.181-0.376,0.271-1.302,0.271-2.777v-17.707c0-1.475-0.09-2.404-0.271-2.787c-0.181-0.382-0.5-0.688-0.956-0.915
			s-1.308-0.343-2.555-0.343v-0.744h11.892c3.917,0,6.727,0.698,8.431,2.093c1.703,1.396,2.555,3.14,2.555,5.231
			c0,1.771-0.55,3.287-1.65,4.548s-2.616,2.12-4.547,2.575C186.234,242.029,184.035,242.189,180.936,242.189z M180.936,228.83
			v11.791c0.443,0.026,0.778,0.04,1.006,0.04c1.636,0,2.897-0.486,3.783-1.459c0.885-0.972,1.328-2.478,1.328-4.517
			c0-2.026-0.443-3.508-1.328-4.447s-2.207-1.408-3.964-1.408H180.936z"/>
		<path style="fill:#FFFFFF;" d="M208.22,226.637v0.926c-1.395,0.912-2.421,1.804-3.079,2.676c-0.912,1.207-1.623,2.756-2.133,4.648
			c-0.644,2.348-0.966,5.627-0.966,9.839c0,3.971,0.292,7.056,0.875,9.256c0.583,2.199,1.378,3.978,2.384,5.332
			c0.697,0.938,1.67,1.764,2.917,2.476v1.006c-3.233-1.087-5.973-3.305-8.219-6.65c-2.248-3.347-3.371-7.193-3.371-11.54
			c0-4.292,1.12-8.092,3.36-11.398C202.23,229.899,204.974,227.709,208.22,226.637z"/>
		<path style="fill:#FFFFFF;" d="M225.847,246.777h-9.638l-1.147,2.656c-0.375,0.886-0.563,1.617-0.563,2.193
			c0,0.765,0.309,1.328,0.926,1.69c0.362,0.215,1.254,0.376,2.676,0.483v0.744h-9.075v-0.744c0.979-0.148,1.784-0.554,2.415-1.218
			c0.63-0.664,1.408-2.036,2.334-4.115l9.759-21.771h0.382l9.839,22.375c0.939,2.119,1.71,3.453,2.314,4.004
			c0.456,0.416,1.1,0.657,1.932,0.725v0.744h-13.2v-0.744h0.543c1.06,0,1.804-0.148,2.233-0.443
			c0.295-0.215,0.443-0.523,0.443-0.926c0-0.241-0.041-0.489-0.121-0.744c-0.027-0.121-0.228-0.624-0.604-1.51L225.847,246.777z
			 M225.163,245.289l-4.064-9.396l-4.185,9.396H225.163z"/>
		<path style="fill:#FFFFFF;" d="M238.966,262.795v-0.926c1.395-0.926,2.421-1.824,3.079-2.697c0.898-1.207,1.61-2.75,2.133-4.627
			c0.644-2.361,0.966-5.647,0.966-9.859c0-3.971-0.292-7.053-0.875-9.246s-1.378-3.967-2.385-5.322
			c-0.698-0.939-1.67-1.764-2.917-2.475v-1.006c3.233,1.086,5.973,3.303,8.22,6.65c2.247,3.346,3.37,7.193,3.37,11.539
			c0,4.279-1.124,8.072-3.37,11.379C244.938,259.512,242.199,261.708,238.966,262.795z"/>
		<path style="fill:#FFFFFF;" d="M263.292,239.574h9.679v-9.658h2.636v9.658h9.678v2.656h-9.678v9.578h-2.636v-9.578h-9.679V239.574
			z"/>
		<path style="fill:#FFFFFF;" d="M307.399,242.189v7.566c0,1.476,0.09,2.404,0.271,2.787c0.181,0.382,0.502,0.688,0.965,0.915
			c0.463,0.229,1.312,0.343,2.546,0.343v0.744h-13.864v-0.744c1.261,0,2.116-0.117,2.565-0.353s0.765-0.54,0.946-0.915
			c0.181-0.376,0.271-1.302,0.271-2.777v-17.707c0-1.475-0.09-2.404-0.271-2.787c-0.181-0.382-0.5-0.688-0.956-0.915
			c-0.457-0.228-1.308-0.343-2.556-0.343v-0.744h11.892c3.916,0,6.727,0.698,8.431,2.093c1.704,1.396,2.556,3.14,2.556,5.231
			c0,1.771-0.551,3.287-1.65,4.548s-2.615,2.12-4.547,2.575C312.697,242.029,310.497,242.189,307.399,242.189z M307.399,228.83
			v11.791c0.441,0.026,0.777,0.04,1.006,0.04c1.636,0,2.896-0.486,3.782-1.459c0.886-0.972,1.328-2.478,1.328-4.517
			c0-2.026-0.442-3.508-1.328-4.447s-2.206-1.408-3.964-1.408H307.399z"/>
		<path style="fill:#FFFFFF;" d="M334.684,226.637v0.926c-1.396,0.912-2.422,1.804-3.079,2.676
			c-0.912,1.207-1.623,2.756-2.133,4.648c-0.644,2.348-0.966,5.627-0.966,9.839c0,3.971,0.292,7.056,0.876,9.256
			c0.583,2.199,1.378,3.978,2.384,5.332c0.698,0.938,1.671,1.764,2.918,2.476v1.006c-3.233-1.087-5.974-3.305-8.22-6.65
			c-2.247-3.347-3.371-7.193-3.371-11.54c0-4.292,1.121-8.092,3.361-11.398S331.437,227.709,334.684,226.637z"/>
		<path style="fill:#FFFFFF;" d="M353.497,240.077c2.588,0.604,4.406,1.335,5.453,2.193c1.502,1.222,2.253,2.804,2.253,4.749
			c0,2.053-0.825,3.749-2.475,5.09c-2.026,1.624-4.97,2.436-8.833,2.436h-13.864v-0.744c1.261,0,2.116-0.117,2.565-0.353
			s0.766-0.54,0.945-0.915c0.182-0.376,0.272-1.302,0.272-2.777v-17.707c0-1.475-0.091-2.404-0.272-2.787
			c-0.18-0.382-0.499-0.688-0.955-0.915c-0.457-0.228-1.309-0.343-2.556-0.343v-0.744h13.079c3.125,0,5.339,0.279,6.641,0.836
			c1.301,0.557,2.326,1.388,3.078,2.494c0.751,1.107,1.127,2.284,1.127,3.531c0,1.314-0.477,2.485-1.429,3.512
			C357.575,238.658,355.897,239.474,353.497,240.077z M346.173,241.104v8.753l-0.021,1.006c0,0.725,0.185,1.271,0.554,1.64
			c0.369,0.369,0.916,0.554,1.64,0.554c1.073,0,2.063-0.237,2.968-0.714c0.906-0.477,1.6-1.168,2.083-2.072
			c0.483-0.906,0.724-1.916,0.724-3.029c0-1.273-0.295-2.418-0.885-3.43c-0.59-1.014-1.402-1.721-2.435-2.123
			C349.768,241.285,348.226,241.09,346.173,241.104z M346.173,239.534c1.904,0,3.31-0.215,4.215-0.644
			c0.906-0.43,1.6-1.033,2.083-1.812s0.724-1.771,0.724-2.978s-0.237-2.197-0.713-2.969c-0.477-0.771-1.158-1.357-2.043-1.76
			s-2.308-0.598-4.266-0.584V239.534z"/>
		<path style="fill:#FFFFFF;" d="M363.155,262.795v-0.926c1.395-0.926,2.421-1.824,3.078-2.697c0.898-1.207,1.609-2.75,2.133-4.627
			c0.645-2.361,0.967-5.647,0.967-9.859c0-3.971-0.293-7.053-0.876-9.246s-1.378-3.967-2.384-5.322
			c-0.698-0.939-1.67-1.764-2.918-2.475v-1.006c3.232,1.086,5.973,3.303,8.219,6.65c2.248,3.346,3.371,7.193,3.371,11.539
			c0,4.279-1.123,8.072-3.371,11.379C369.128,259.512,366.388,261.708,363.155,262.795z"/>
	</g>
</g>
<g>
	<rect y="413" style="fill-rule:evenodd;clip-rule:evenodd;fill:none;" width="518.001" height="106"/>
	<path style="fill:#FFFFFF;" d="M78.483,441.711l5.469-26.758h6.128L81.876,450.5h-5.908l-6.763-25.952L62.296,450.5h-5.933
		l-8.203-35.547h6.128l5.518,26.709l6.787-26.709h5.176L78.483,441.711z"/>
	<path style="fill:#FFFFFF;" d="M109,450.5c-0.261-0.504-0.488-1.326-0.684-2.466c-1.888,1.97-4.199,2.954-6.934,2.954
		c-2.653,0-4.818-0.757-6.494-2.271c-1.677-1.514-2.515-3.385-2.515-5.615c0-2.815,1.045-4.977,3.137-6.481
		c2.091-1.506,5.082-2.259,8.972-2.259h3.638v-1.733c0-1.367-0.383-2.462-1.147-3.283c-0.765-0.822-1.929-1.233-3.491-1.233
		c-1.351,0-2.458,0.338-3.32,1.013c-0.863,0.676-1.294,1.535-1.294,2.576h-5.933c0-1.448,0.48-2.804,1.44-4.064
		c0.96-1.262,2.266-2.25,3.918-2.967c1.652-0.716,3.495-1.074,5.53-1.074c3.092,0,5.558,0.777,7.397,2.332
		c1.839,1.554,2.783,3.739,2.832,6.555v11.914c0,2.377,0.333,4.272,1.001,5.688v0.415H109z M102.482,446.228
		c1.172,0,2.274-0.284,3.308-0.854c1.033-0.569,1.811-1.334,2.332-2.295v-4.98h-3.198c-2.197,0-3.85,0.383-4.956,1.147
		c-1.107,0.766-1.66,1.848-1.66,3.247c0,1.14,0.378,2.047,1.135,2.723C100.199,445.89,101.212,446.228,102.482,446.228z"/>
	<path style="fill:#FFFFFF;" d="M126.115,426.965c1.937-2.246,4.386-3.369,7.349-3.369c5.631,0,8.488,3.215,8.569,9.644V450.5H136.1
		v-17.041c0-1.822-0.395-3.113-1.184-3.869c-0.79-0.758-1.949-1.136-3.479-1.136c-2.376,0-4.15,1.059-5.322,3.174V450.5h-5.933V413
		h5.933V426.965z"/>
	<path style="fill:#FFFFFF;" d="M161.857,429.504c-0.781-0.13-1.587-0.195-2.417-0.195c-2.718,0-4.549,1.042-5.493,3.125V450.5
		h-5.933v-26.416h5.664l0.146,2.954c1.432-2.295,3.418-3.442,5.957-3.442c0.846,0,1.546,0.114,2.1,0.342L161.857,429.504z"/>
	<path style="fill:#FFFFFF;" d="M180.412,443.322c0-1.058-0.436-1.863-1.306-2.417c-0.871-0.553-2.315-1.041-4.333-1.465
		c-2.019-0.423-3.703-0.96-5.054-1.611c-2.962-1.432-4.443-3.507-4.443-6.226c0-2.278,0.96-4.183,2.881-5.713
		c1.92-1.529,4.362-2.295,7.324-2.295c3.157,0,5.708,0.781,7.654,2.344c1.945,1.563,2.917,3.589,2.917,6.079h-5.933
		c0-1.139-0.423-2.087-1.27-2.845c-0.847-0.756-1.97-1.135-3.369-1.135c-1.302,0-2.364,0.302-3.186,0.903
		c-0.822,0.603-1.233,1.408-1.233,2.417c0,0.912,0.382,1.62,1.147,2.124c0.765,0.505,2.311,1.013,4.639,1.526
		c2.327,0.512,4.154,1.123,5.481,1.83c1.326,0.709,2.311,1.56,2.954,2.552c0.643,0.993,0.964,2.197,0.964,3.613
		c0,2.377-0.985,4.301-2.954,5.774c-1.97,1.473-4.549,2.209-7.739,2.209c-2.165,0-4.094-0.391-5.786-1.172
		c-1.693-0.781-3.011-1.855-3.955-3.223c-0.944-1.367-1.416-2.84-1.416-4.419h5.762c0.081,1.4,0.61,2.478,1.587,3.235
		c0.977,0.756,2.271,1.135,3.882,1.135c1.563,0,2.75-0.297,3.564-0.891C180.004,445.06,180.412,444.283,180.412,443.322z"/>
	<path style="fill:#FFFFFF;" d="M202.262,446.252c1.481,0,2.71-0.431,3.687-1.294c0.977-0.862,1.497-1.929,1.563-3.198h5.591
		c-0.065,1.645-0.578,3.178-1.538,4.602c-0.96,1.425-2.263,2.552-3.906,3.382c-1.644,0.83-3.418,1.245-5.322,1.245
		c-3.695,0-6.625-1.196-8.789-3.589c-2.165-2.393-3.247-5.696-3.247-9.912v-0.61c0-4.02,1.074-7.238,3.223-9.656
		c2.148-2.416,5.078-3.625,8.789-3.625c3.141,0,5.701,0.916,7.678,2.746c1.978,1.832,3.015,4.236,3.113,7.215h-5.591
		c-0.065-1.514-0.582-2.759-1.55-3.735c-0.969-0.977-2.202-1.465-3.699-1.465c-1.921,0-3.402,0.696-4.443,2.087
		c-1.042,1.393-1.571,3.504-1.587,6.336v0.952c0,2.865,0.517,5.001,1.55,6.409C198.815,445.548,200.309,446.252,202.262,446.252z"/>
	<path style="fill:#FFFFFF;" d="M223.429,426.965c1.937-2.246,4.386-3.369,7.349-3.369c5.631,0,8.488,3.215,8.569,9.644V450.5
		h-5.933v-17.041c0-1.822-0.395-3.113-1.184-3.869c-0.79-0.758-1.949-1.136-3.479-1.136c-2.376,0-4.15,1.059-5.322,3.174V450.5
		h-5.933V413h5.933V426.965z"/>
	<path style="fill:#FFFFFF;" d="M256.974,450.988c-3.76,0-6.808-1.184-9.143-3.553c-2.336-2.367-3.503-5.521-3.503-9.46v-0.732
		c0-2.637,0.508-4.993,1.526-7.067c1.017-2.076,2.445-3.69,4.285-4.847c1.839-1.155,3.89-1.733,6.152-1.733
		c3.597,0,6.376,1.147,8.337,3.442c1.961,2.295,2.942,5.542,2.942,9.741v2.393h-17.261c0.179,2.182,0.907,3.906,2.185,5.176
		c1.277,1.27,2.885,1.904,4.822,1.904c2.718,0,4.932-1.099,6.641-3.296l3.198,3.052c-1.058,1.579-2.47,2.804-4.236,3.674
		C261.153,450.553,259.171,450.988,256.974,450.988z M256.266,428.356c-1.628,0-2.942,0.57-3.943,1.709
		c-1.001,1.14-1.64,2.727-1.917,4.761h11.304v-0.439c-0.13-1.985-0.659-3.487-1.587-4.504
		C259.196,428.865,257.91,428.356,256.266,428.356z"/>
	<path style="fill:#FFFFFF;" d="M272.184,417.224c0-0.911,0.289-1.668,0.867-2.271c0.578-0.602,1.404-0.903,2.478-0.903
		s1.904,0.302,2.49,0.903c0.586,0.603,0.879,1.359,0.879,2.271c0,0.896-0.293,1.64-0.879,2.233c-0.586,0.595-1.416,0.892-2.49,0.892
		s-1.9-0.297-2.478-0.892C272.473,418.863,272.184,418.119,272.184,417.224z M278.483,450.5h-5.933v-26.416h5.933V450.5z"/>
	<path style="fill:#FFFFFF;" d="M290.446,424.084l0.171,3.052c1.953-2.359,4.517-3.54,7.69-3.54c5.501,0,8.301,3.149,8.398,9.448
		V450.5h-5.933v-17.114c0-1.676-0.362-2.917-1.086-3.724c-0.725-0.805-1.909-1.208-3.552-1.208c-2.393,0-4.175,1.083-5.347,3.247
		V450.5h-5.933v-26.416H290.446z"/>
	<path style="fill:#FFFFFF;" d="M319.059,450.5h-5.933V413h5.933V450.5z"/>
	<path style="fill:#FFFFFF;" d="M325.528,417.224c0-0.911,0.289-1.668,0.867-2.271c0.578-0.602,1.404-0.903,2.479-0.903
		s1.903,0.302,2.489,0.903c0.586,0.603,0.879,1.359,0.879,2.271c0,0.896-0.293,1.64-0.879,2.233
		c-0.586,0.595-1.415,0.892-2.489,0.892s-1.9-0.297-2.479-0.892C325.817,418.863,325.528,418.119,325.528,417.224z M331.828,450.5
		h-5.933v-26.416h5.933V450.5z"/>
	<path style="fill:#FFFFFF;" d="M349.137,446.252c1.48,0,2.71-0.431,3.687-1.294c0.977-0.862,1.497-1.929,1.563-3.198h5.591
		c-0.065,1.645-0.578,3.178-1.538,4.602c-0.961,1.425-2.263,2.552-3.906,3.382c-1.645,0.83-3.418,1.245-5.322,1.245
		c-3.695,0-6.625-1.196-8.789-3.589c-2.165-2.393-3.247-5.696-3.247-9.912v-0.61c0-4.02,1.074-7.238,3.223-9.656
		c2.148-2.416,5.078-3.625,8.789-3.625c3.141,0,5.7,0.916,7.679,2.746c1.977,1.832,3.015,4.236,3.112,7.215h-5.591
		c-0.065-1.514-0.582-2.759-1.551-3.735c-0.968-0.977-2.201-1.465-3.698-1.465c-1.921,0-3.402,0.696-4.443,2.087
		c-1.042,1.393-1.571,3.504-1.587,6.336v0.952c0,2.865,0.517,5.001,1.551,6.409C345.69,445.548,347.184,446.252,349.137,446.252z"/>
	<path style="fill:#FFFFFF;" d="M370.304,426.965c1.937-2.246,4.386-3.369,7.349-3.369c5.631,0,8.487,3.215,8.569,9.644V450.5
		h-5.933v-17.041c0-1.822-0.395-3.113-1.185-3.869c-0.789-0.758-1.949-1.136-3.479-1.136c-2.377,0-4.15,1.059-5.322,3.174V450.5
		h-5.933V413h5.933V426.965z"/>
	<path style="fill:#FFFFFF;" d="M400.797,439.172l-2.637,2.71v8.618h-5.933V413h5.933v21.631l1.855-2.319l7.3-8.228h7.129
		l-9.814,11.011l10.864,15.405h-6.86L400.797,439.172z"/>
	<path style="fill:#FFFFFF;" d="M429.459,450.988c-3.76,0-6.808-1.184-9.144-3.553c-2.335-2.367-3.503-5.521-3.503-9.46v-0.732
		c0-2.637,0.509-4.993,1.526-7.067c1.017-2.076,2.444-3.69,4.284-4.847c1.839-1.155,3.89-1.733,6.152-1.733
		c3.597,0,6.376,1.147,8.337,3.442c1.962,2.295,2.942,5.542,2.942,9.741v2.393h-17.261c0.179,2.182,0.907,3.906,2.186,5.176
		c1.277,1.27,2.884,1.904,4.821,1.904c2.718,0,4.932-1.099,6.641-3.296l3.198,3.052c-1.059,1.579-2.47,2.804-4.236,3.674
		C433.638,450.553,431.656,450.988,429.459,450.988z M428.751,428.356c-1.628,0-2.941,0.57-3.943,1.709
		c-1,1.14-1.64,2.727-1.916,4.761h11.304v-0.439c-0.131-1.985-0.659-3.487-1.587-4.504
		C431.681,428.865,430.395,428.356,428.751,428.356z"/>
	<path style="fill:#FFFFFF;" d="M444.669,417.224c0-0.911,0.289-1.668,0.866-2.271c0.578-0.602,1.404-0.903,2.479-0.903
		s1.904,0.302,2.49,0.903c0.586,0.603,0.879,1.359,0.879,2.271c0,0.896-0.293,1.64-0.879,2.233c-0.586,0.595-1.416,0.892-2.49,0.892
		s-1.9-0.297-2.479-0.892C444.958,418.863,444.669,418.119,444.669,417.224z M450.968,450.5h-5.933v-26.416h5.933V450.5z"/>
	<path style="fill:#FFFFFF;" d="M464.859,417.663v6.421h4.663v4.395h-4.663v14.746c0,1.01,0.199,1.737,0.599,2.186
		c0.398,0.447,1.11,0.671,2.136,0.671c0.684,0,1.375-0.081,2.075-0.244v4.59c-1.352,0.374-2.653,0.562-3.906,0.562
		c-4.558,0-6.836-2.515-6.836-7.544v-14.966h-4.346v-4.395h4.346v-6.421H464.859z"/>
	<path style="fill:#FFFFFF;" d="M182.157,502.988c-3.76,0-6.808-1.184-9.143-3.553c-2.336-2.367-3.503-5.521-3.503-9.46v-0.732
		c0-2.637,0.508-4.993,1.526-7.067c1.017-2.076,2.445-3.69,4.285-4.847c1.839-1.155,3.89-1.733,6.152-1.733
		c3.597,0,6.376,1.147,8.337,3.442c1.961,2.295,2.942,5.542,2.942,9.741v2.393h-17.261c0.179,2.182,0.907,3.906,2.185,5.176
		c1.277,1.27,2.885,1.904,4.822,1.904c2.718,0,4.932-1.099,6.641-3.296l3.198,3.052c-1.058,1.579-2.47,2.804-4.236,3.674
		C186.336,502.553,184.354,502.988,182.157,502.988z M181.449,480.356c-1.628,0-2.942,0.57-3.943,1.709
		c-1.001,1.14-1.64,2.727-1.917,4.761h11.304v-0.439c-0.13-1.985-0.659-3.487-1.587-4.504
		C184.379,480.865,183.093,480.356,181.449,480.356z"/>
	<path style="fill:#FFFFFF;" d="M211.186,481.504c-0.781-0.13-1.587-0.195-2.417-0.195c-2.718,0-4.549,1.042-5.493,3.125V502.5
		h-5.933v-26.416h5.664l0.146,2.954c1.432-2.295,3.418-3.442,5.957-3.442c0.846,0,1.546,0.114,2.1,0.342L211.186,481.504z"/>
	<path style="fill:#FFFFFF;" d="M220.78,478.965c1.937-2.246,4.386-3.369,7.349-3.369c5.631,0,8.488,3.215,8.569,9.644V502.5h-5.933
		v-17.041c0-1.822-0.395-3.113-1.184-3.869c-0.79-0.758-1.949-1.136-3.479-1.136c-2.376,0-4.15,1.059-5.322,3.174V502.5h-5.933V465
		h5.933V478.965z"/>
	<path style="fill:#FFFFFF;" d="M241.581,489.048c0-2.588,0.513-4.919,1.538-6.995c1.025-2.074,2.466-3.67,4.321-4.785
		c1.855-1.114,3.987-1.672,6.396-1.672c3.564,0,6.458,1.147,8.679,3.442s3.422,5.339,3.601,9.131l0.024,1.392
		c0,2.604-0.5,4.932-1.501,6.982s-2.434,3.638-4.297,4.761c-1.864,1.123-4.016,1.685-6.458,1.685c-3.728,0-6.71-1.241-8.948-3.723
		c-2.238-2.482-3.357-5.79-3.357-9.925V489.048z M245.072,469.15c0-0.813,0.272-1.497,0.818-2.051
		c0.545-0.553,1.298-0.83,2.258-0.83c0.96,0,1.717,0.277,2.271,0.83c0.553,0.554,0.83,1.237,0.83,2.051
		c0,0.814-0.277,1.498-0.83,2.051c-0.554,0.554-1.311,0.83-2.271,0.83c-0.96,0-1.713-0.276-2.258-0.83
		C245.345,470.648,245.072,469.965,245.072,469.15z M247.514,489.561c0,2.719,0.562,4.846,1.685,6.385
		c1.123,1.537,2.686,2.307,4.688,2.307s3.56-0.781,4.675-2.344c1.115-1.563,1.672-3.849,1.672-6.86c0-2.669-0.574-4.785-1.721-6.348
		s-2.706-2.344-4.675-2.344c-1.937,0-3.475,0.769-4.614,2.308C248.083,484.201,247.514,486.501,247.514,489.561z M256.229,469.175
		c0-0.813,0.272-1.497,0.818-2.051c0.545-0.553,1.298-0.83,2.258-0.83c0.96,0,1.717,0.277,2.271,0.83
		c0.553,0.554,0.83,1.237,0.83,2.051c0,0.814-0.277,1.498-0.83,2.051c-0.554,0.554-1.311,0.83-2.271,0.83
		c-0.96,0-1.713-0.276-2.258-0.83C256.502,470.673,256.229,469.989,256.229,469.175z"/>
	<path style="fill:#FFFFFF;" d="M277.006,478.965c1.937-2.246,4.386-3.369,7.349-3.369c5.631,0,8.488,3.215,8.569,9.644V502.5
		h-5.933v-17.041c0-1.822-0.395-3.113-1.184-3.869c-0.79-0.758-1.949-1.136-3.479-1.136c-2.376,0-4.15,1.059-5.322,3.174V502.5
		h-5.933V465h5.933V478.965z"/>
	<path style="fill:#FFFFFF;" d="M310.551,502.988c-3.76,0-6.808-1.184-9.143-3.553c-2.336-2.367-3.503-5.521-3.503-9.46v-0.732
		c0-2.637,0.508-4.993,1.526-7.067c1.017-2.076,2.445-3.69,4.285-4.847c1.839-1.155,3.89-1.733,6.152-1.733
		c3.597,0,6.376,1.147,8.337,3.442c1.961,2.295,2.942,5.542,2.942,9.741v2.393h-17.261c0.179,2.182,0.907,3.906,2.185,5.176
		c1.277,1.27,2.885,1.904,4.822,1.904c2.718,0,4.932-1.099,6.641-3.296l3.198,3.052c-1.058,1.579-2.47,2.804-4.236,3.674
		C314.729,502.553,312.748,502.988,310.551,502.988z M309.843,480.356c-1.628,0-2.942,0.57-3.943,1.709
		c-1.001,1.14-1.64,2.727-1.917,4.761h11.304v-0.439c-0.13-1.985-0.659-3.487-1.587-4.504
		C312.772,480.865,311.486,480.356,309.843,480.356z"/>
	<path style="fill:#FFFFFF;" d="M331.254,476.084l0.171,3.052c1.953-2.359,4.517-3.54,7.69-3.54c5.501,0,8.301,3.149,8.398,9.448
		V502.5h-5.933v-17.114c0-1.676-0.362-2.917-1.087-3.724c-0.724-0.805-1.908-1.208-3.552-1.208c-2.393,0-4.175,1.083-5.347,3.247
		V502.5h-5.933v-26.416H331.254z"/>
</g>
</svg>
