<?xml version="1.0" encoding="UTF-8" standalone="no"?>
<svg
   xmlns:dc="http://purl.org/dc/elements/1.1/"
   xmlns:cc="http://creativecommons.org/ns#"
   xmlns:rdf="http://www.w3.org/1999/02/22-rdf-syntax-ns#"
   xmlns:svg="http://www.w3.org/2000/svg"
   xmlns="http://www.w3.org/2000/svg"
   viewBox="0 0 375 375"
   height="375"
   width="375"
   xml:space="preserve"
   version="1.1"
   id="svg2"><metadata
     id="metadata8"><rdf:RDF><cc:Work
         rdf:about=""><dc:format>image/svg+xml</dc:format><dc:type
           rdf:resource="http://purl.org/dc/dcmitype/StillImage" /></cc:Work></rdf:RDF></metadata><defs
     id="defs6" /><g
     transform="matrix(1.25,0,0,-1.25,0,375)"
     id="g10"><g
       transform="scale(0.1,0.1)"
       id="g12"><path
         id="path14"
         style="fill:#aebcc4;fill-opacity:1;fill-rule:nonzero;stroke:none"
         d="m 3000,529.855 c 0,-67.632 0,-529.85109375 -715,-529.85109375 l -1625,0 C 35,0.00390625 0,472.223 0,539.855 L 0,2399.86 c 0,545 592.352,600 660,600 l 1615,0.28 c 67.65,0 725,-0.28 725,-600.28" /><path
         id="path16"
         style="fill:#080828;fill-opacity:1;fill-rule:nonzero;stroke:none"
         d="m 731.75,710.484 0,-52.781 -33.594,0 0,-44.156 33.594,0 0,-109.891 c 0,-30.703 5.75,-51.828 18.234,-65.265 11.032,-11.985 29.266,-19.188 50.86,-19.188 18.719,0 34.078,2.391 42.719,5.75 l -0.969,45.11 c -5.266,-1.438 -12.953,-2.875 -23.031,-2.875 -22.547,0 -30.235,14.875 -30.235,43.187 l 0,103.172 56.156,0 0,44.156 -56.156,0 0,66.703 -57.578,-13.922" /><path
         id="path18"
         style="fill:#080828;fill-opacity:1;fill-rule:nonzero;stroke:none"
         d="M 868.719,657.703 937.813,424 993,424 l 29.77,95.016 c 6.7,23.031 12.95,46.062 17.75,74.859 l 0.95,0 c 5.28,-28.312 10.56,-50.391 17.76,-74.859 l 27.83,-95.016 54.71,0 73.42,233.703 -58.06,0 -25.93,-103.656 c -6.23,-27.359 -11.51,-52.781 -15.34,-78.219 l -0.97,0 c -5.28,25.438 -11.51,50.86 -18.72,78.219 l -29.26,103.656 -47.99,0 -30.232,-106.531 c -6.719,-24 -14.391,-49.906 -19.204,-75.344 l -0.953,0 c -4.312,25.438 -9.593,50.86 -14.875,75.813 l -24.468,106.062 -60.469,0" /><path
         id="path20"
         style="fill:#080828;fill-opacity:1;fill-rule:nonzero;stroke:none"
         d="m 1352.72,662.984 c -70.53,0 -120.92,-47.031 -120.92,-123.812 0,-74.859 50.86,-120.453 117.09,-120.453 59.5,0 119.97,38.39 119.97,124.297 0,71.015 -46.55,119.968 -116.14,119.968 z m -1.44,-43.203 c 40.31,0 56.63,-41.734 56.63,-78.218 0,-47.016 -23.52,-80.125 -57.11,-80.125 -35.99,0 -58.07,34.062 -58.07,79.171 0,38.875 16.8,79.172 58.55,79.172" /><path
         id="path22"
         style="fill:#080828;fill-opacity:1;fill-rule:nonzero;stroke:none"
         d="m 1602.28,435.516 c 17.27,-9.594 42.7,-16.313 71.02,-16.313 61.9,0 95.01,30.703 95.01,72.938 -0.48,34.547 -20.15,56.14 -62.39,71.5 -29.75,10.562 -40.78,17.765 -40.78,32.64 0,14.391 11.52,24.469 32.63,24.469 20.64,0 39.36,-7.672 49.43,-13.437 l 11.52,41.75 c -13.44,7.203 -36,13.921 -61.91,13.921 -54.23,0 -88.29,-32.156 -88.29,-73.421 -0.49,-27.36 18.71,-52.313 64.29,-68.141 28.8,-10.078 38.39,-18.25 38.39,-34.078 0,-15.36 -11.51,-25.906 -37.42,-25.906 -21.12,0 -46.55,8.625 -59.98,16.781 l -11.52,-42.703" /><path
         id="path24"
         style="fill:#080828;fill-opacity:1;fill-rule:nonzero;stroke:none"
         d="m 1816.67,424 59.5,0 0,139.641 c 0,6.718 0.49,12.953 2.41,17.765 6.23,17.75 22.55,33.11 45.58,33.11 32.64,0 45.11,-25.438 45.11,-59.516 l 0,-131 59.03,0 0,137.719 c 0,74.859 -41.75,101.265 -81.58,101.265 -14.88,0 -28.8,-3.843 -40.31,-10.562 -12.47,-6.719 -22.08,-15.844 -29.27,-26.875 l -0.97,0 0,139.172 -59.5,0 0,-340.719" /><path
         id="path26"
         style="fill:#080828;fill-opacity:1;fill-rule:nonzero;stroke:none"
         d="m 2197.72,662.984 c -70.53,0 -120.92,-47.031 -120.92,-123.812 0,-74.859 50.86,-120.453 117.09,-120.453 59.5,0 119.97,38.39 119.97,124.297 0,71.015 -46.55,119.968 -116.14,119.968 z m -1.44,-43.203 c 40.31,0 56.63,-41.734 56.63,-78.218 0,-47.016 -23.52,-80.125 -57.11,-80.125 -35.99,0 -58.07,34.062 -58.07,79.171 0,38.875 16.8,79.172 58.55,79.172" /><path
         id="path28"
         style="fill:#080828;fill-opacity:1;fill-rule:nonzero;stroke:none"
         d="m 2372.75,710.484 0,-52.781 -33.59,0 0,-44.156 33.59,0 0,-109.891 c 0,-30.703 5.75,-51.828 18.23,-65.265 11.04,-11.985 29.27,-19.188 50.86,-19.188 18.72,0 34.08,2.391 42.72,5.75 l -0.97,45.11 c -5.26,-1.438 -12.95,-2.875 -23.03,-2.875 -22.54,0 -30.23,14.875 -30.23,43.187 l 0,103.172 56.15,0 0,44.156 -56.15,0 0,66.703 -57.58,-13.922" /><path
         id="path30"
         style="fill:#080828;fill-opacity:1;fill-rule:nonzero;stroke:none"
         d="m 240,1125.46 c 0,0 27.301,480.59 256.672,622.58 l 81.918,43.69 c 114.691,10.92 169.301,32.77 191.148,81.92 0,0 38.231,9.1 38.231,112.86 0,0 -152.918,142 -32.77,342.24 0,0 189.321,174.76 333.131,-1.82 25.51,-61.83 103.76,-198.42 -78.27,-362.26 0,0 -14.57,-36.41 18.2,-123.79 0,0 81.92,-98.3 240.29,-152.91 159.22,-54.91 227.24,-279.46 256.68,-567.97" /><path
         id="path32"
         style="fill:#ffffff;fill-opacity:1;fill-rule:nonzero;stroke:none"
         d="m 2770,1103.33 c 0,0 27.7,427.18 -168.91,596.48 0,0 -97.43,65.1 -109.22,71 -98.31,49.15 -174.76,43.69 -196.61,92.84 0,0 -38.23,9.1 -38.23,112.86 0,0 152.92,142 32.77,342.24 0,0 -189.33,174.76 -333.13,-1.82 -25.52,-61.83 -103.77,-198.42 78.27,-362.26 0,0 14.57,-36.41 -18.2,-123.79 0,0 -48.36,-59.61 -206.74,-114.22 -159.23,-54.9 -260.79,-318.15 -290.23,-606.66" /></g></g></svg>