<?xml version="1.0" encoding="utf-8"?>
<!-- Generator: Adobe Illustrator 16.0.3, SVG Export Plug-In . SVG Version: 6.00 Build 0)  -->
<!DOCTYPE svg PUBLIC "-//W3C//DTD SVG 1.1//EN" "http://www.w3.org/Graphics/SVG/1.1/DTD/svg11.dtd" [
	<!ENTITY ns_extend "http://ns.adobe.com/Extensibility/1.0/">
	<!ENTITY ns_ai "http://ns.adobe.com/AdobeIllustrator/10.0/">
	<!ENTITY ns_graphs "http://ns.adobe.com/Graphs/1.0/">
	<!ENTITY ns_vars "http://ns.adobe.com/Variables/1.0/">
	<!ENTITY ns_imrep "http://ns.adobe.com/ImageReplacement/1.0/">
	<!ENTITY ns_sfw "http://ns.adobe.com/SaveForWeb/1.0/">
	<!ENTITY ns_custom "http://ns.adobe.com/GenericCustomNamespace/1.0/">
	<!ENTITY ns_adobe_xpath "http://ns.adobe.com/XPath/1.0/">
]>
<svg version="1.1" id="Ebene_1" xmlns:x="&ns_extend;" xmlns:i="&ns_ai;" xmlns:graph="&ns_graphs;"
	 xmlns="http://www.w3.org/2000/svg" xmlns:xlink="http://www.w3.org/1999/xlink" x="0px" y="0px" width="300px" height="300px"
	 viewBox="0 0 300 300" enable-background="new 0 0 300 300" xml:space="preserve">
<metadata>
	<sfw  xmlns="&ns_sfw;">
		<slices></slices>
		<sliceSourceBounds  height="310.582" width="300.002" x="-50.501" y="-57.082" bottomLeftOrigin="true"></sliceSourceBounds>
	</sfw>
</metadata>
<path fill="#AA3C85" d="M228.001,297H71.999c-39.603,0-72-16.9-72-56.5V57c0-39.6,32.397-60,72-60h156.002c39.6,0,72,20.9,72,60.5
	V241C300.001,280.6,267.599,297,228.001,297z"/>
<rect x="0.757" y="228.086" fill="none" width="298.484" height="79.496"/>
<g enable-background="new    ">
	<path fill="#FFFFFF" d="M50.354,251.989l-3.36,10.177h-4.32l10.993-32.354h5.041l11.041,32.354h-4.464l-3.457-10.177H50.354z
		 M60.963,248.725l-3.168-9.313c-0.72-2.112-1.2-4.032-1.68-5.904h-0.096c-0.48,1.92-1.008,3.888-1.632,5.856l-3.168,9.36H60.963z"
		/>
	<path fill="#FFFFFF" d="M73.489,257.846c1.248,0.816,3.457,1.68,5.568,1.68c3.072,0,4.513-1.536,4.513-3.456
		c0-2.016-1.2-3.12-4.32-4.272c-4.177-1.488-6.145-3.792-6.145-6.576c0-3.744,3.024-6.816,8.017-6.816
		c2.352,0,4.417,0.672,5.712,1.439l-1.056,3.072c-0.912-0.576-2.592-1.344-4.752-1.344c-2.496,0-3.888,1.44-3.888,3.168
		c0,1.921,1.392,2.784,4.417,3.937c4.032,1.536,6.096,3.553,6.096,7.009c0,4.08-3.168,6.961-8.688,6.961
		c-2.544,0-4.896-0.624-6.529-1.585L73.489,257.846z"/>
	<path fill="#FFFFFF" d="M94.609,238.932l5.088,13.729c0.528,1.536,1.104,3.36,1.488,4.753h0.096
		c0.432-1.393,0.912-3.169,1.488-4.849l4.608-13.634h4.464l-6.336,16.562c-3.024,7.969-5.088,12.05-7.969,14.546
		c-2.064,1.824-4.128,2.544-5.185,2.736l-1.056-3.553c1.056-0.336,2.448-1.008,3.696-2.064c1.152-0.912,2.592-2.544,3.552-4.704
		c0.192-0.432,0.336-0.769,0.336-1.008c0-0.24-0.096-0.576-0.288-1.104l-8.593-21.41H94.609z"/>
	<path fill="#FFFFFF" d="M115.681,245.221c0-2.4-0.048-4.368-0.192-6.289h3.744l0.24,3.841h0.096
		c1.152-2.208,3.84-4.368,7.681-4.368c3.216,0,8.209,1.92,8.209,9.889v13.873h-4.225v-13.394c0-3.744-1.392-6.864-5.376-6.864
		c-2.784,0-4.944,1.968-5.665,4.32c-0.192,0.528-0.288,1.248-0.288,1.969v13.969h-4.224V245.221z"/>
	<path fill="#FFFFFF" d="M162.386,228.083v28.082c0,2.064,0.048,4.417,0.192,6.001h-3.793l-0.191-4.032h-0.096
		c-1.297,2.592-4.129,4.561-7.921,4.561c-5.616,0-9.937-4.753-9.937-11.81c-0.048-7.729,4.752-12.48,10.417-12.48
		c3.553,0,5.953,1.68,7.009,3.552h0.096v-13.873H162.386z M158.161,248.389c0-0.528-0.048-1.248-0.191-1.776
		c-0.624-2.688-2.929-4.896-6.097-4.896c-4.368,0-6.961,3.841-6.961,8.978c0,4.704,2.305,8.593,6.865,8.593
		c2.832,0,5.424-1.872,6.192-5.041c0.144-0.576,0.191-1.152,0.191-1.824V248.389z"/>
	<path fill="#FFFFFF" d="M171.744,251.317c0.096,5.712,3.744,8.064,7.969,8.064c3.024,0,4.849-0.528,6.433-1.2l0.72,3.024
		c-1.488,0.672-4.032,1.44-7.729,1.44c-7.152,0-11.425-4.705-11.425-11.714c0-7.008,4.128-12.528,10.896-12.528
		c7.585,0,9.602,6.672,9.602,10.944c0,0.864-0.097,1.536-0.145,1.969H171.744z M184.129,248.293
		c0.049-2.688-1.104-6.865-5.856-6.865c-4.272,0-6.145,3.937-6.48,6.865H184.129z"/>
	<path fill="#FFFFFF" d="M198.529,232.26v6.672h6.049v3.217h-6.049v12.529c0,2.88,0.816,4.512,3.168,4.512
		c1.104,0,1.921-0.144,2.448-0.288l0.192,3.169c-0.816,0.336-2.112,0.576-3.744,0.576c-1.969,0-3.553-0.624-4.561-1.776
		c-1.2-1.248-1.632-3.313-1.632-6.049v-12.673H190.8v-3.217h3.601v-5.568L198.529,232.26z"/>
	<path fill="#FFFFFF" d="M230.066,250.357c0,8.593-5.953,12.337-11.569,12.337c-6.288,0-11.137-4.608-11.137-11.953
		c0-7.776,5.088-12.337,11.521-12.337C225.553,238.404,230.066,243.252,230.066,250.357z M211.632,250.597
		c0,5.089,2.928,8.929,7.057,8.929c4.032,0,7.057-3.792,7.057-9.024c0-3.937-1.969-8.929-6.961-8.929
		S211.632,246.181,211.632,250.597z"/>
	<path fill="#FFFFFF" d="M235.391,245.221c0-2.4-0.048-4.368-0.191-6.289h3.744l0.24,3.841h0.096
		c1.152-2.208,3.841-4.368,7.681-4.368c3.217,0,8.209,1.92,8.209,9.889v13.873h-4.225v-13.394c0-3.744-1.392-6.864-5.376-6.864
		c-2.785,0-4.945,1.968-5.665,4.32c-0.192,0.528-0.288,1.248-0.288,1.969v13.969h-4.225V245.221z"/>
</g>
<g>
	<g>
		<path opacity="0.4" fill="#FFFFFF" enable-background="new    " d="M148.36,22.499c-46.208,0-83.667,37.459-83.667,83.667
			c0,20.148,11.932,47.423,11.932,47.423l-25.5,35.999L97.17,172.32c14.148,10.968,31.9,17.513,51.189,17.513
			c46.208,0,83.667-37.459,83.667-83.667S194.568,22.499,148.36,22.499z"/>
	</g>
	<g>
		<line fill="none" stroke="#FFFFFF" stroke-width="12" stroke-miterlimit="10" x1="82.4" y1="103.579" x2="143.512" y2="103.579"/>
		
			<line fill="none" stroke="#FFFFFF" stroke-width="12" stroke-miterlimit="10" x1="158.263" y1="103.579" x2="202.517" y2="103.579"/>
		
			<line fill="none" stroke="#FFFFFF" stroke-width="12" stroke-miterlimit="10" x1="217.269" y1="103.579" x2="248.878" y2="103.579"/>
	</g>
	<g>
		<g>
			<g>
				<g>
					<path fill="none" stroke="#FFFFFF" stroke-width="16.4925" stroke-miterlimit="10" d="M124.201,144.216
						c12.751,10.864,28.999,17.374,46.692,17.374c17.695,0,33.941-6.509,46.693-17.373"/>
					<g>
						<polygon fill="#FFFFFF" points="113.084,161.514 105.795,121.053 144.483,134.963 						"/>
					</g>
					<g>
						<polygon fill="#FFFFFF" points="228.704,161.518 235.995,121.057 197.308,134.966 						"/>
					</g>
				</g>
			</g>
		</g>
	</g>
</g>
</svg>
