<?xml version="1.0" encoding="utf-8"?>
<!-- Generator: Adobe Illustrator 22.0.1, SVG Export Plug-In . SVG Version: 6.00 Build 0)  -->
<svg version="1.1" id="Ebene_1" xmlns="http://www.w3.org/2000/svg" xmlns:xlink="http://www.w3.org/1999/xlink" x="0px" y="0px"
	 viewBox="0 0 300.5 300.5" style="enable-background:new 0 0 300.5 300.5;" xml:space="preserve">
<style type="text/css">
	.st0{fill:#EACD99;}
	.st1{enable-background:new    ;}
	.st2{fill:#C1272D;}
	.st3{fill:#3A3326;}
	.st4{fill:none;stroke:#000000;stroke-width:3.0947;stroke-miterlimit:10;}
	.st5{fill:none;stroke:#FFFFFF;stroke-width:4;stroke-miterlimit:10;}
	.st6{fill:none;stroke:#C1272D;stroke-width:4;stroke-miterlimit:10;}
</style>
<path class="st0" d="M238.2,300.5H62.4c-34.3,0-62.4-28-62.4-62.3V62.4C0,28.1,28.1,0,62.4,0h175.8c34.3,0,62.4,28.1,62.4,62.4
	v175.8C300.5,272.5,272.5,300.5,238.2,300.5z"/>
<g>
	<g class="st1">
		<path class="st2" d="M140.4,34.9c1.6,0.8,5.2,2.3,8.8,2.3c4.6,0,6.9-2.2,6.9-5c0-3.7-3.7-5.4-7.6-5.4h-3.6v-6.3h3.4
			c3-0.1,6.7-1.2,6.7-4.4c0-2.3-1.9-3.9-5.6-3.9c-3.1,0-6.3,1.3-7.9,2.3L139.7,8c2.3-1.5,6.8-2.8,11.7-2.8c8.1,0,12.5,4.2,12.5,9.4
			c0,4-2.3,7.1-6.9,8.8v0.1c4.5,0.8,8.2,4.2,8.2,9.2c0,6.7-5.9,11.5-15.4,11.5c-4.9,0-9-1.3-11.2-2.7L140.4,34.9z"/>
	</g>
</g>
<g>
	<g class="st1">
		<path d="M73.5,117.3v-3.7l3.4-3c5.7-5.1,8.4-8,8.5-11c0-2.1-1.3-3.8-4.3-3.8c-2.2,0-4.2,1.1-5.6,2.2l-1.7-4.4c2-1.5,5-2.7,8.5-2.7
			c5.9,0,9.1,3.4,9.1,8.2c0,4.4-3.2,7.8-6.9,11.2l-2.4,2v0.1H92v5H73.5z"/>
	</g>
</g>
<g class="st1">
	<path d="M221.8,117.9v-6.2h-11.5v-4l9.8-15.8h7.4v15.2h3.1v4.6h-3.1v6.2H221.8z M221.8,107.2v-5.8c0-1.6,0.1-3.2,0.2-4.8h-0.2
		c-0.8,1.7-1.5,3.2-2.4,4.8l-3.5,5.7v0.1H221.8z"/>
</g>
<g class="st1">
	<path d="M278.3,178h-10.1l-0.6,4c0.6-0.1,1-0.1,1.7-0.1c2.5,0,5,0.6,6.8,1.9c2,1.3,3.2,3.5,3.2,6.5c0,4.8-4.2,9.1-11.2,9.1
		c-3.2,0-5.8-0.7-7.2-1.5l1.1-4.6c1.2,0.6,3.5,1.3,5.9,1.3c2.5,0,5.2-1.2,5.2-4c0-2.7-2.1-4.3-7.3-4.3c-1.4,0-2.4,0.1-3.5,0.2
		L264,173h14.3V178z"/>
</g>
<g>
	<g class="st1">
		<path d="M36.5,177.7L36.5,177.7l-5,2.4l-1-4.6l6.9-3.2h5v26h-5.9V177.7z"/>
	</g>
</g>
<g class="st1">
	<path class="st3" d="M43.9,219.6v13h13.7v-13h5.9V252h-5.9v-14.3H43.9V252H38v-32.4H43.9z"/>
	<path class="st3" d="M92.3,240.1c0,8.6-6,12.4-12,12.4c-6.6,0-11.7-4.6-11.7-12c0-7.7,5-12.4,12.1-12.4
		C87.6,228.1,92.3,233,92.3,240.1z M72.7,222c0-1.7,1.3-3,3-3c1.6,0,2.8,1.2,2.8,3c0,1.6-1.2,2.9-2.9,2.9
		C73.9,224.9,72.7,223.6,72.7,222z M74.6,240.3c0,4.5,2.2,7.9,5.8,7.9c3.4,0,5.7-3.3,5.7-8c0-3.6-1.6-7.8-5.7-7.8
		C76.3,232.4,74.6,236.4,74.6,240.3z M82.3,222c0-1.7,1.2-3,2.9-3s2.9,1.2,2.9,3c0,1.6-1.2,2.9-2.9,2.9
		C83.5,224.9,82.3,223.6,82.3,222z"/>
	<path class="st3" d="M97.1,217.9h6v13.9h0.1c0.7-1.1,1.7-2,2.9-2.7c1.2-0.7,2.5-1.1,4-1.1c4,0,8.2,2.6,8.2,10.1V252h-5.9v-13.1
		c0-3.4-1.2-6-4.5-6c-2.3,0-3.9,1.5-4.6,3.3c-0.2,0.5-0.2,1.1-0.2,1.8v14h-6V217.9z"/>
	<path class="st3" d="M128.7,241.9c0.1,4.2,3.5,6,7.2,6c2.7,0,4.7-0.4,6.5-1.1l0.9,4.1c-2,0.8-4.8,1.4-8.2,1.4
		c-7.6,0-12-4.7-12-11.8c0-6.5,3.9-12.6,11.4-12.6c7.6,0,10.1,6.2,10.1,11.4c0,1.1-0.1,2-0.2,2.5H128.7z M139,237.8
		c0-2.2-0.9-5.7-4.8-5.7c-3.6,0-5.2,3.3-5.4,5.7H139z"/>
	<path class="st3" d="M149.3,236.4c0-3.1-0.1-5.6-0.2-7.8h5.2l0.3,3.6h0.1c1.7-2.6,4.5-4.1,8-4.1c5.4,0,9.8,4.6,9.8,11.9
		c0,8.4-5.3,12.5-10.7,12.5c-2.9,0-5.4-1.2-6.6-3.1h-0.1v12.1h-5.9V236.4z M155.2,242.2c0,0.6,0,1.1,0.2,1.6
		c0.6,2.4,2.7,4.1,5.2,4.1c3.7,0,6-3.1,6-7.7c0-4.1-2-7.5-5.8-7.5c-2.4,0-4.7,1.8-5.3,4.4c-0.1,0.5-0.2,1-0.2,1.5V242.2z"/>
	<path class="st3" d="M198.3,245c0,2.8,0.1,5.1,0.2,7h-5.2l-0.3-3.6H193c-1,1.7-3.3,4.1-7.5,4.1c-4.3,0-8.2-2.5-8.2-10.2v-13.7h5.9
		v12.7c0,3.9,1.2,6.4,4.4,6.4c2.4,0,3.9-1.7,4.5-3.2c0.2-0.5,0.3-1.2,0.3-1.8v-14.1h5.9V245z"/>
	<path class="st3" d="M204.7,235.6c0-2.7,0-4.9-0.2-7h5.2l0.3,3.5h0.1c1-1.8,3.6-4,7.4-4c4.1,0,8.3,2.6,8.3,10V252H220v-13.2
		c0-3.4-1.2-5.9-4.5-5.9c-2.4,0-4,1.7-4.6,3.5c-0.2,0.5-0.2,1.2-0.2,1.9V252h-6V235.6z"/>
	<path class="st3" d="M238.1,238.9L238.1,238.9c0.7-0.9,1.3-1.9,2-2.7l5.7-7.5h7.1l-8.6,9.6l9.9,13.8h-7.2l-6.7-10.3l-2,2.4v8h-5.9
		v-34.1h5.9V238.9z"/>
	<path class="st3" d="M263.4,221.9v6.7h5.6v4.4h-5.6v10.3c0,2.8,0.8,4.3,3,4.3c1,0,1.8-0.1,2.3-0.3l0.1,4.5
		c-0.9,0.3-2.4,0.6-4.3,0.6c-2.2,0-4-0.7-5.1-1.9c-1.2-1.3-1.8-3.5-1.8-6.5v-11h-3.4v-4.4h3.4v-5.3L263.4,221.9z"/>
</g>
<g>
	<g>
		<line class="st4" x1="141.3" y1="89.7" x2="69.7" y2="183.2"/>
		<g>
			<polygon points="135.3,87.3 146.7,82.6 145.1,94.9 			"/>
		</g>
	</g>
</g>
<g>
	<g>
		<line class="st4" x1="231.3" y1="178.4" x2="159.7" y2="84.9"/>
		<g>
			<polygon points="235.1,173.3 236.7,185.5 225.3,180.8 			"/>
		</g>
	</g>
</g>
<path class="st5" d="M252,183L152.4,52.9c-2.6,3.4-99.5,130-99.5,130"/>
<path class="st6" d="M175.1,82.6l-22.7-29.7c-2.6,3.4-22.5,29.7-22.5,29.7"/>
<path class="st6" d="M91.4,133"/>
<path class="st6" d="M130,82.6"/>
</svg>
