<?xml version="1.0" encoding="UTF-8" standalone="no"?>
<!-- Generator: Adobe Illustrator 16.0.3, SVG Export Plug-In . SVG Version: 6.00 Build 0)  -->

<svg
   xmlns:dc="http://purl.org/dc/elements/1.1/"
   xmlns:cc="http://creativecommons.org/ns#"
   xmlns:rdf="http://www.w3.org/1999/02/22-rdf-syntax-ns#"
   xmlns:svg="http://www.w3.org/2000/svg"
   xmlns="http://www.w3.org/2000/svg"
   xmlns:sodipodi="http://sodipodi.sourceforge.net/DTD/sodipodi-0.dtd"
   xmlns:inkscape="http://www.inkscape.org/namespaces/inkscape"
   version="1.1"
   id="Ebene_1"
   x="0px"
   y="0px"
   width="60px"
   height="60px"
   viewBox="0 0 60 60"
   style="enable-background:new 0 0 60 60;"
   xml:space="preserve"
   sodipodi:docname="visual_qr_totschlagargument_de.svg"
   inkscape:version="0.92.4 (5da689c313, 2019-01-14)"><metadata
   id="metadata85"><rdf:RDF><cc:Work
       rdf:about=""><dc:format>image/svg+xml</dc:format><dc:type
         rdf:resource="http://purl.org/dc/dcmitype/StillImage" /><dc:title></dc:title></cc:Work></rdf:RDF></metadata><defs
   id="defs83" /><sodipodi:namedview
   pagecolor="#ffffff"
   bordercolor="#666666"
   borderopacity="1"
   objecttolerance="10"
   gridtolerance="10"
   guidetolerance="10"
   inkscape:pageopacity="0"
   inkscape:pageshadow="2"
   inkscape:window-width="731"
   inkscape:window-height="480"
   id="namedview81"
   showgrid="false"
   inkscape:zoom="3.9333333"
   inkscape:cx="-13.220339"
   inkscape:cy="30"
   inkscape:window-x="0"
   inkscape:window-y="0"
   inkscape:window-maximized="0"
   inkscape:current-layer="Ebene_1" />
<rect
   style="fill:#A0B983;"
   width="60"
   height="60"
   id="rect2" />
<g
   id="g40">
	<path
   style="fill:#FFFFFF;"
   d="M15.959,46.639h-1.345v-0.722h3.565v0.722h-1.359v3.999h-0.861V46.639z"
   id="path4" />
	<path
   style="fill:#FFFFFF;"
   d="M21.33,48.9c0,1.254-0.882,1.814-1.751,1.814c-0.967,0-1.709-0.665-1.709-1.758   c0-1.121,0.735-1.808,1.765-1.808C20.65,47.149,21.33,47.864,21.33,48.9z M18.759,48.936c0,0.658,0.322,1.156,0.847,1.156   c0.49,0,0.833-0.483,0.833-1.17c0-0.532-0.238-1.142-0.826-1.142C19.004,47.78,18.759,48.368,18.759,48.936z"
   id="path6" />
	<path
   style="fill:#FFFFFF;"
   d="M22.952,46.253v0.974h0.819v0.645h-0.819v1.506c0,0.413,0.112,0.631,0.441,0.631   c0.147,0,0.259-0.021,0.336-0.043l0.014,0.659c-0.126,0.049-0.35,0.084-0.624,0.084c-0.315,0-0.581-0.105-0.742-0.28   c-0.182-0.196-0.266-0.505-0.266-0.953v-1.604h-0.49v-0.645h0.49v-0.771L22.952,46.253z"
   id="path8" />
	<path
   style="fill:#FFFFFF;"
   d="M24.31,49.847c0.196,0.118,0.567,0.245,0.875,0.245c0.378,0,0.546-0.154,0.546-0.379   c0-0.23-0.14-0.35-0.56-0.497c-0.666-0.231-0.946-0.595-0.938-0.994c0-0.603,0.497-1.072,1.289-1.072   c0.378,0,0.708,0.099,0.903,0.203l-0.168,0.609c-0.147-0.084-0.42-0.195-0.721-0.195c-0.308,0-0.477,0.146-0.477,0.356   c0,0.218,0.161,0.322,0.596,0.477c0.616,0.224,0.903,0.539,0.91,1.044c0,0.616-0.483,1.064-1.387,1.064   c-0.413,0-0.784-0.099-1.037-0.238L24.31,49.847z"
   id="path10" />
	<path
   style="fill:#FFFFFF;"
   d="M29.708,50.532c-0.182,0.084-0.539,0.176-0.966,0.176c-1.065,0-1.758-0.68-1.758-1.737   c0-1.022,0.7-1.821,1.898-1.821c0.315,0,0.638,0.07,0.834,0.161l-0.154,0.645c-0.141-0.063-0.344-0.133-0.651-0.133   c-0.658,0-1.051,0.483-1.044,1.106c0,0.7,0.455,1.1,1.044,1.1c0.301,0,0.511-0.063,0.679-0.133L29.708,50.532z"
   id="path12" />
	<path
   style="fill:#FFFFFF;"
   d="M30.273,45.665h0.87v2.031h0.014c0.105-0.161,0.244-0.294,0.426-0.393   c0.17-0.098,0.373-0.154,0.59-0.154c0.58,0,1.189,0.386,1.189,1.479v2.01H32.5v-1.912c0-0.497-0.182-0.868-0.658-0.868   c-0.336,0-0.574,0.224-0.664,0.483c-0.029,0.069-0.035,0.161-0.035,0.259v2.038h-0.87V45.665z"
   id="path14" />
	<path
   style="fill:#FFFFFF;"
   d="M34.207,45.665h0.869v4.973h-0.869V45.665z"
   id="path16" />
	<path
   style="fill:#FFFFFF;"
   d="M37.854,50.638l-0.055-0.378h-0.021c-0.211,0.266-0.566,0.455-1.008,0.455   c-0.688,0-1.072-0.497-1.072-1.016c0-0.861,0.764-1.296,2.023-1.289v-0.056c0-0.225-0.09-0.596-0.693-0.596   c-0.336,0-0.686,0.105-0.916,0.253l-0.168-0.561c0.252-0.154,0.693-0.302,1.232-0.302c1.092,0,1.406,0.693,1.406,1.437v1.232   c0,0.308,0.016,0.609,0.051,0.819H37.854z M37.742,48.971c-0.609-0.014-1.191,0.119-1.191,0.638c0,0.336,0.219,0.49,0.49,0.49   c0.344,0,0.596-0.225,0.674-0.47c0.021-0.063,0.027-0.133,0.027-0.188V48.971z"
   id="path18" />
	<path
   style="fill:#FFFFFF;"
   d="M42.539,47.227c-0.016,0.231-0.029,0.512-0.029,0.98v1.934c0,0.714-0.146,1.226-0.504,1.548   c-0.357,0.315-0.848,0.413-1.316,0.413c-0.434,0-0.896-0.091-1.191-0.273l0.189-0.651c0.217,0.126,0.582,0.26,0.994,0.26   c0.561,0,0.98-0.295,0.98-1.03v-0.294h-0.014c-0.195,0.302-0.545,0.504-0.994,0.504c-0.848,0-1.449-0.7-1.449-1.666   c0-1.121,0.729-1.801,1.547-1.801c0.52,0,0.826,0.253,0.988,0.532h0.014l0.035-0.455H42.539z M41.648,48.593   c0-0.077-0.006-0.161-0.027-0.231c-0.092-0.315-0.336-0.553-0.701-0.553c-0.482,0-0.84,0.42-0.84,1.113   c0,0.581,0.295,1.051,0.834,1.051c0.322,0,0.602-0.21,0.699-0.519c0.021-0.091,0.035-0.21,0.035-0.309V48.593z"
   id="path20" />
	<path
   style="fill:#FFFFFF;"
   d="M44.896,48.474v0.595h-1.787v-0.595H44.896z"
   id="path22" />
	<path
   style="fill:#FFFFFF;"
   d="M17.479,57.638l-0.056-0.378h-0.021c-0.21,0.266-0.567,0.455-1.008,0.455   c-0.687,0-1.072-0.497-1.072-1.016c0-0.861,0.763-1.296,2.024-1.289v-0.056c0-0.225-0.091-0.596-0.693-0.596   c-0.336,0-0.686,0.105-0.917,0.253l-0.168-0.561c0.252-0.154,0.693-0.302,1.233-0.302c1.092,0,1.408,0.693,1.408,1.437v1.232   c0,0.308,0.014,0.609,0.049,0.819H17.479z M17.367,55.971c-0.609-0.014-1.19,0.119-1.19,0.638c0,0.336,0.217,0.49,0.49,0.49   c0.343,0,0.595-0.225,0.672-0.47c0.021-0.063,0.028-0.133,0.028-0.188V55.971z"
   id="path24" />
	<path
   style="fill:#FFFFFF;"
   d="M19.046,55.326c0-0.462-0.007-0.791-0.028-1.1h0.75l0.028,0.651h0.028   c0.168-0.483,0.567-0.729,0.932-0.729c0.084,0,0.133,0.008,0.203,0.021v0.813c-0.07-0.014-0.147-0.028-0.252-0.028   c-0.413,0-0.693,0.267-0.771,0.651c-0.014,0.077-0.028,0.168-0.028,0.267v1.765h-0.861V55.326z"
   id="path26" />
	<path
   style="fill:#FFFFFF;"
   d="M24.528,54.227c-0.014,0.231-0.028,0.512-0.028,0.98v1.934c0,0.714-0.147,1.226-0.504,1.548   c-0.357,0.315-0.848,0.413-1.317,0.413c-0.434,0-0.896-0.091-1.191-0.273l0.189-0.651c0.217,0.126,0.581,0.26,0.995,0.26   c0.56,0,0.98-0.295,0.98-1.03v-0.294h-0.014c-0.196,0.302-0.546,0.504-0.995,0.504c-0.847,0-1.45-0.7-1.45-1.666   c0-1.121,0.729-1.801,1.548-1.801c0.518,0,0.827,0.253,0.987,0.532h0.014l0.035-0.455H24.528z M23.639,55.593   c0-0.077-0.007-0.161-0.028-0.231c-0.091-0.315-0.336-0.553-0.701-0.553c-0.483,0-0.84,0.42-0.84,1.113   c0,0.581,0.294,1.051,0.833,1.051c0.322,0,0.602-0.21,0.7-0.519c0.021-0.091,0.035-0.21,0.035-0.309V55.593z"
   id="path28" />
	<path
   style="fill:#FFFFFF;"
   d="M28.407,56.615c0,0.406,0.014,0.742,0.027,1.022h-0.756l-0.042-0.519h-0.014   c-0.147,0.245-0.483,0.596-1.093,0.596c-0.623,0-1.19-0.371-1.19-1.485v-2.003H26.2v1.856c0,0.567,0.182,0.932,0.638,0.932   c0.343,0,0.567-0.245,0.658-0.463c0.028-0.077,0.049-0.168,0.049-0.266v-2.06h0.862V56.615z"
   id="path30" />
	<path
   style="fill:#FFFFFF;"
   d="M29.265,55.242c0-0.392-0.007-0.721-0.027-1.016h0.742l0.035,0.505h0.021   c0.168-0.267,0.477-0.582,1.05-0.582c0.449,0,0.799,0.253,0.945,0.631h0.016c0.117-0.189,0.258-0.329,0.42-0.428   c0.189-0.133,0.406-0.203,0.686-0.203c0.568,0,1.143,0.386,1.143,1.479v2.01h-0.842v-1.884c0-0.567-0.195-0.903-0.609-0.903   c-0.293,0-0.51,0.21-0.602,0.455c-0.021,0.084-0.043,0.188-0.043,0.287v2.045h-0.84v-1.975c0-0.477-0.189-0.813-0.588-0.813   c-0.322,0-0.539,0.252-0.616,0.49c-0.035,0.084-0.049,0.182-0.049,0.28v2.017h-0.841V55.242z"
   id="path32" />
	<path
   style="fill:#FFFFFF;"
   d="M35.74,56.174c0.021,0.616,0.506,0.883,1.051,0.883c0.4,0,0.688-0.057,0.945-0.154l0.127,0.596   c-0.295,0.118-0.701,0.21-1.191,0.21c-1.105,0-1.758-0.68-1.758-1.724c0-0.945,0.574-1.835,1.668-1.835   c1.105,0,1.471,0.911,1.471,1.66c0,0.161-0.014,0.287-0.029,0.364H35.74z M37.24,55.571c0.006-0.314-0.133-0.833-0.707-0.833   c-0.533,0-0.758,0.483-0.793,0.833H37.24z"
   id="path34" />
	<path
   style="fill:#FFFFFF;"
   d="M38.674,55.242c0-0.392-0.008-0.721-0.027-1.016h0.756l0.041,0.512h0.021   c0.146-0.267,0.518-0.589,1.086-0.589c0.596,0,1.211,0.386,1.211,1.464v2.024H40.9v-1.926c0-0.49-0.182-0.861-0.65-0.861   c-0.344,0-0.582,0.245-0.672,0.504c-0.029,0.077-0.035,0.182-0.035,0.28v2.003h-0.869V55.242z"
   id="path36" />
	<path
   style="fill:#FFFFFF;"
   d="M43.561,53.253v0.974h0.818v0.645h-0.818v1.506c0,0.413,0.111,0.631,0.439,0.631   c0.148,0,0.26-0.021,0.338-0.043l0.014,0.659c-0.127,0.049-0.352,0.084-0.623,0.084c-0.316,0-0.582-0.105-0.744-0.28   c-0.182-0.196-0.266-0.505-0.266-0.953v-1.604h-0.49v-0.645h0.49v-0.771L43.561,53.253z"
   id="path38" />
</g>
<g
   id="g41"
   transform="translate(-7.561529,-21.467778)">
	<g
   id="Bild"
   transform="translate(8.6,22.5)">
		
			<sodipodi:namedview
   units="mm"
   showguides="true"
   inkscape:cy="140.10525"
   inkscape:cx="100.8875"
   inkscape:zoom="1.4"
   showgrid="false"
   borderopacity="1.0"
   bordercolor="#666666"
   pagecolor="#ffffff"
   id="base"
   inkscape:document-units="mm"
   inkscape:guide-bbox="true"
   inkscape:current-layer="layer1"
   inkscape:window-maximized="1"
   inkscape:window-y="0"
   inkscape:window-x="0"
   inkscape:window-height="700"
   inkscape:window-width="702"
   inkscape:pageshadow="2"
   inkscape:pageopacity="0.0">
			<sodipodi:guide
   orientation="1,0"
   position="191.33858,0"
   id="guide21487" />
			<sodipodi:guide
   orientation="0,1"
   position="0,304.72441"
   id="guide21489" />
			<sodipodi:guide
   orientation="0,1"
   position="0,322.44094"
   id="guide26097" />
		</sodipodi:namedview>
		<g
   id="layer1"
   transform="translate(0,-910.62992)"
   inkscape:label="Ebene 1"
   inkscape:groupmode="layer">
			<path
   id="rect4662"
   inkscape:connector-curvature="0"
   style="fill:#FFFFFF;"
   d="M10.054,915.841     c-1.526,3.062-1.438,8.314,0.169,10.458l6.594-1.958l0.065,3.813h-0.274c-1.523,0-2.754,1.231-2.754,2.755     c0,1.523,1.231,2.741,2.754,2.741h0.365l0.04,2.533c-0.007,0.614,0.484,1.116,1.098,1.123c0.613,0.007,1.115-0.486,1.122-1.099     c0-0.021,0-0.042,0-0.063l-0.04-2.494h4.531c-0.001,0.004,0,0.009,0,0.013h6.528v10.079v6.176c0,1.524,1.23,2.743,2.755,2.743     h6.593c1.524,0,2.756-1.219,2.756-2.743v-7.95v-8.304h1.096c0,0.03,0,0.062,0,0.091v13.656c0,1.523,1.232,2.742,2.756,2.742     s2.755-1.219,2.755-2.742v-13.656c0-0.381-0.083-0.754-0.223-1.083c-0.681-2.593-3.028-4.504-5.836-4.504     c-0.187,0-0.366-0.012-0.548,0v-0.013H30.252c-0.03-0.001-0.061,0-0.091,0h-11.06l-0.143-9.192c0-0.613-0.498-1.111-1.111-1.111     c-0.012,0-0.025,0-0.038,0.001c-0.428,0.015-0.808,0.274-0.979,0.666L10.054,915.841z M36.296,916.716     c-2.886,0-5.222,2.336-5.222,5.222c0,2.886,2.336,5.236,5.222,5.236c2.887,0,5.235-2.35,5.235-5.236     C41.532,919.052,39.183,916.716,36.296,916.716z" />
		</g>
	</g>
</g>
<g
   id="g50">
</g>
<g
   id="g52">
</g>
<g
   id="g54">
</g>
<g
   id="g56">
</g>
<g
   id="g58">
</g>
<g
   id="g60">
</g>
<g
   id="g62">
</g>
<g
   id="g64">
</g>
<g
   id="g66">
</g>
<g
   id="g68">
</g>
<g
   id="g70">
</g>
<g
   id="g72">
</g>
<g
   id="g74">
</g>
<g
   id="g76">
</g>
<g
   id="g78">
</g>
</svg>