<?xml version="1.0" encoding="UTF-8" standalone="no"?>
<svg
   xmlns:dc="http://purl.org/dc/elements/1.1/"
   xmlns:cc="http://creativecommons.org/ns#"
   xmlns:rdf="http://www.w3.org/1999/02/22-rdf-syntax-ns#"
   xmlns:svg="http://www.w3.org/2000/svg"
   xmlns="http://www.w3.org/2000/svg"
   viewBox="0 0 375 375"
   height="375"
   width="375"
   xml:space="preserve"
   version="1.1"
   id="svg2"><metadata
     id="metadata8"><rdf:RDF><cc:Work
         rdf:about=""><dc:format>image/svg+xml</dc:format><dc:type
           rdf:resource="http://purl.org/dc/dcmitype/StillImage" /></cc:Work></rdf:RDF></metadata><defs
     id="defs6" /><g
     transform="matrix(1.25,0,0,-1.25,0,375)"
     id="g10"><g
       transform="scale(0.1,0.1)"
       id="g12"><path
         id="path14"
         style="fill:#aebcc4;fill-opacity:1;fill-rule:nonzero;stroke:none"
         d="m 3000,529.855 c 0,-67.632 0,-529.85109375 -715,-529.85109375 l -1625,0 C 35,0.00390625 0,472.223 0,539.855 L 0,2399.86 c 0,545 592.352,600 660,600 l 1615,0.28 c 67.65,0 725,-0.28 725,-600.28" /><path
         id="path16"
         style="fill:#080828;fill-opacity:1;fill-rule:nonzero;stroke:none"
         d="m 1261.28,265.516 c 17.27,-9.594 42.7,-16.313 71.02,-16.313 61.9,0 95.01,30.703 95.01,72.938 -0.48,34.547 -20.15,56.14 -62.39,71.5 -29.75,10.562 -40.78,17.765 -40.78,32.64 0,14.391 11.52,24.469 32.63,24.469 20.64,0 39.36,-7.672 49.43,-13.437 l 11.52,41.75 c -13.44,7.203 -36,13.921 -61.91,13.921 -54.23,0 -88.29,-32.156 -88.29,-73.421 -0.49,-27.36 18.71,-52.313 64.29,-68.141 28.8,-10.078 38.39,-18.25 38.39,-34.078 0,-15.36 -11.51,-25.906 -37.42,-25.906 -21.12,0 -46.55,8.625 -59.98,16.781 l -11.52,-42.703" /><path
         id="path18"
         style="fill:#080828;fill-opacity:1;fill-rule:nonzero;stroke:none"
         d="m 1673.86,354.297 c 0.95,5.281 1.92,13.906 1.92,24.953 0,51.344 -24.95,113.734 -100.78,113.734 -74.86,0 -114.2,-60.953 -114.2,-125.734 0,-71.5 44.62,-118.047 120.45,-118.047 33.58,0 61.42,6.235 81.58,14.391 l -8.64,40.797 c -17.75,-6.719 -37.44,-10.563 -64.78,-10.563 -37.44,0 -70.55,18.235 -71.99,60.469 l 156.44,0 z m -156.44,41.266 c 2.39,24 17.75,57.109 54.22,57.109 39.36,0 48.95,-35.516 48.47,-57.109 l -102.69,0" /><path
         id="path20"
         style="fill:#080828;fill-opacity:1;fill-rule:nonzero;stroke:none"
         d="m 1733.75,540.484 0,-52.781 -33.59,0 0,-44.156 33.59,0 0,-109.891 c 0,-30.703 5.75,-51.828 18.23,-65.265 11.04,-11.985 29.27,-19.188 50.86,-19.188 18.72,0 34.08,2.391 42.72,5.75 l -0.97,45.11 c -5.26,-1.438 -12.95,-2.875 -23.03,-2.875 -22.54,0 -30.23,14.875 -30.23,43.187 l 0,103.172 56.15,0 0,44.156 -56.15,0 0,66.703 -57.58,-13.922" /><path
         id="path22"
         style="fill:#e4e4e4;fill-opacity:1;fill-rule:evenodd;stroke:none"
         d="m 2113.04,2770 660.29,0 0,-725.66 c -49.94,0.75 -99.9,0.95 -149.81,2.52 -20.18,0.62 -23.22,-10.13 -23.13,-26.45 0.57,-97.86 0.06,-195.73 2.03,-293.57 0.24,-11.66 12.28,-31.91 20.67,-32.91 22.27,-2.66 18.89,18.23 18.87,32.86 -0.22,81.55 -0.92,163.1 -1.17,244.66 -0.04,12.53 1.37,25.1 2.3,40.6 45.87,-2.44 88.06,-4.69 130.24,-6.92 l 0,-653.74 c -41.22,89.13 -81.66,178.65 -124.41,267.06 -6.92,14.35 -22.77,31.82 -36.64,33.93 -32.73,4.98 -66.72,1.6 -106.97,1.6 13.96,-106.21 78.82,-187.8 112.08,-274.93 -6.77,-4.87 -14.35,-7.53 -14.87,-11.19 -1.84,-12.81 -1.56,-25.98 -1.52,-39.04 0.32,-115.23 1.33,-230.48 0.93,-345.754 -0.15,-41.351 -18.2,-54.371 -58.83,-47.711 -11.1,1.809 -22.67,1.989 -33.91,1.231 -28.04,-1.961 -55.97,-5.781 -84.03,-7.051 -14.23,-0.629 -29.33,6.031 -42.87,3.41 -40.37,-7.769 -80.2,-18.492 -119.1,-27.769 -56.88,115.754 -111.22,226.324 -165.51,336.874 98.61,-0.05 197.17,-0.05 296.18,-0.05 l 0,805.16 -562.51,0 0,-322.23 c 28.25,-8.68 27.62,8.46 27.59,25.8 -0.15,74.07 1.23,148.16 -0.71,222.15 -0.76,29.48 9.58,36.55 37.53,36.5 144.85,-0.31 289.68,1.37 434.53,2.17 10.37,0.06 20.73,-1.39 32.04,-2.19 1.06,-11.72 2.56,-20.25 2.52,-28.79 -0.89,-225.37 -2.27,-450.75 -2.5,-676.11 -0.02,-24.03 -9.78,-29.37 -30.99,-29.51 -60.98,-0.45 -121.95,-3.45 -182.92,-3.2 -24.57,0.11 -41.64,-6.48 -50.02,-30.32 -53.12,107.64 -113.6,212.43 -156.83,323.91 -29.24,75.39 -73.21,93.96 -143.54,82.09 -2.11,-0.36 -5.19,0.96 -6.38,-0.09 -6.88,-6.21 -18.36,-12.5 -18.92,-19.5 -1.24,-15.57 -0.2,-32.95 5.71,-47.18 14.51,-34.93 32.71,-68.34 48.52,-102.78 4.29,-9.36 7.73,-20.31 7.38,-30.38 -2.33,-66.02 -6.56,-131.95 -7.78,-197.98 -0.12,-6.93 14.99,-19.32 23.9,-20.18 22.46,-2.11 45.73,-1.02 68.14,2.32 22.28,3.36 33.59,-4.91 42.76,-24.32 23.6,-50.09 49.06,-99.34 73.51,-149.05 23.67,-48.13 46.99,-96.435 73.55,-150.985 -42.94,-7.418 -80.52,-17.071 -118.49,-19.02 -16.27,-0.84 -32.12,6.789 -47.2,-6.269 -3.22,-2.782 -11.01,-0.039 -16.67,-0.219 -23.1,-0.801 -46.21,-2.832 -69.27,-2.262 -18.26,0.449 -36.46,4.059 -55.62,6.36 -28.21,-5.7 -59.62,-12.75 -91.29,-18.161 -18.78,-3.199 -38,-3.808 -57.54,-5.629 0.57,7.93 1.13,15.77 2.47,34.36 -32.79,-43.649 -68.18,-42.07 -105.68,-28.442 -0.93,0.332 -2.25,0.473 -3.19,0.102 -39.05,-15.371 -34.62,11.621 -34.55,35.078 1.07,447.547 2.06,895.097 3.06,1342.657 0.04,18.03 0,36.07 0,57.94 l -85.06,0 c 231.71,158.02 457.67,312.11 683.63,466.2" /><path
         id="path24"
         style="fill:#080828;fill-opacity:1;fill-rule:evenodd;stroke:none"
         d="m 1864.81,1402.36 c -1.6,-0.4 -3.22,-0.8 -4.83,-1.19 0,-26.74 -0.49,-53.48 0.11,-80.18 1.43,-63.9 -14.82,-57.44 61.46,-60.04 1.97,-0.05 4,1.39 10.72,3.89 -22.64,46.15 -45.06,91.84 -67.46,137.52 m 322.14,-625.587 c 4.91,2.192 9.82,4.379 14.75,6.571 -134.43,272.806 -268.88,545.596 -403.32,818.386 -2.73,-1.31 -5.43,-2.62 -8.17,-3.93 132.26,-273.67 264.49,-547.35 396.74,-821.027 m -743.34,345.747 c -148.86,-7.62 -295.09,-15.08 -447.825,-22.89 153.075,-15.16 299.595,-29.61 447.825,-44.3 l 0,67.19 z m 43.86,-255.508 0,1410.678 c -31.42,5.66 -20.99,-18.31 -21.09,-31.2 -2.38,-336.64 -4.27,-673.29 -5.88,-1009.93 -0.57,-122.85 -0.07,-245.716 -0.07,-369.548 l 27.04,0 z m 309.39,765.348 c 0.12,-2.45 -0.43,-4.78 0.39,-6.43 127.55,-256.7 255.11,-513.37 382.84,-769.957 33.91,-68.078 34.2,-67.95 109.34,-59.629 1.84,0.219 3.52,1.918 8.29,4.687 -6.84,14.121 -13.68,28.582 -20.77,42.91 -125.91,253.789 -251.66,507.639 -378.22,761.099 -5.48,10.95 -17.26,24.38 -27.8,26.09 -24.07,3.89 -49.23,1.23 -74.07,1.23 M 714.035,1599.8 c 15.301,-3.76 30.598,-7.47 45.891,-11.29 43.75,-10.88 87.488,-21.83 131.25,-32.73 1.039,-0.26 2.566,-0.65 3.187,-0.15 38.68,30.25 79.879,5.09 119.867,6.65 12.25,0.47 25.9,12.71 35.57,22.77 22.99,23.92 62.99,29.64 90.63,14.09 12.2,-6.87 29.11,-10.72 42.75,-8.66 35.25,5.36 67.86,11.85 93.53,-23.75 12.99,-18 58.18,-17.69 80.08,-7.9 27.67,12.38 56.85,21.37 86.21,32.12 l 0,688.09 c -28.66,0 -55.57,-0.8 -82.43,0.39 -10.66,0.47 -21.17,5.32 -31.73,8.18 6.7,10.03 11.22,23.2 20.45,29.59 45.48,31.56 92.52,60.86 138.41,91.83 178.07,120.14 355.91,240.62 533.82,360.97 l 91.52,0 C 1887.09,2615.9 1661.11,2461.81 1429.4,2303.8 l 85.06,0 c 0,-21.87 0.06,-39.91 0,-57.94 -1,-447.56 -1.98,-895.12 -3.06,-1342.657 -0.06,-23.461 -4.5,-50.449 34.55,-35.078 0.94,0.367 2.26,0.238 3.2,-0.102 37.5,-13.628 72.89,-15.21 105.67,28.442 -1.34,-18.59 -1.89,-26.422 -2.46,-34.352 19.53,1.809 38.75,2.418 57.53,5.621 31.67,5.411 63.08,12.457 91.31,18.168 19.16,-2.308 37.34,-5.918 55.6,-6.371 23.06,-0.566 46.17,1.461 69.27,2.262 5.66,0.18 13.47,-2.559 16.67,0.219 15.08,13.062 30.94,5.429 47.21,6.269 37.98,1.953 75.54,11.602 118.48,19.024 -26.55,54.547 -49.88,102.845 -73.55,150.975 -24.43,49.72 -49.9,98.96 -73.5,149.06 -9.18,19.41 -20.49,27.68 -42.77,24.32 -22.4,-3.34 -45.68,-4.44 -68.14,-2.33 -8.91,0.86 -24.02,13.26 -23.88,20.18 1.2,66.03 5.45,131.97 7.77,197.98 0.34,10.08 -3.09,21.03 -7.39,30.39 -15.79,34.45 -34.01,67.84 -48.52,102.78 -5.91,14.23 -6.95,31.6 -5.71,47.17 0.57,7.01 12.05,13.3 18.94,19.5 1.18,1.07 4.25,-0.26 6.36,0.09 70.34,11.87 114.3,-6.69 143.55,-82.09 43.22,-111.47 103.7,-216.27 156.82,-323.91 l -0.78,0.67 c 54.33,-110.59 108.67,-221.16 165.55,-336.918 38.91,9.281 78.73,20 119.11,27.781 13.55,2.61 28.64,-4.051 42.86,-3.422 28.06,1.274 55.99,5.102 84.05,7.051 11.23,0.762 22.8,0.582 33.89,-1.23 40.64,-6.661 58.68,6.371 58.84,47.711 0.39,115.277 -0.62,230.527 -0.94,345.757 -0.04,13.06 -0.31,26.23 1.53,39.03 0.52,3.67 8.09,6.33 14.86,11.19 -33.25,87.13 -98.11,168.72 -112.08,274.93 40.25,0 74.25,3.39 106.97,-1.59 13.87,-2.11 29.73,-19.58 36.64,-33.93 42.77,-88.42 83.2,-177.93 124.43,-267.07 l 0,-26.15 c -5.09,9.53 -10.55,18.87 -15.16,28.59 -41.36,87.31 -82.32,174.81 -124.07,261.92 -4.34,9.02 -12.22,22 -19.63,22.85 -24.96,2.87 -50.49,1.09 -80.46,1.09 38.05,-78.36 72.61,-150.7 108.16,-222.55 43.27,-87.5 87.41,-174.61 131.16,-261.88 l 0,-19.61 c -23.73,43.17 -48.71,85.7 -70.94,129.63 -49.36,97.52 -97.34,195.7 -145.88,293.63 -2.7,-1.3 -5.39,-2.58 -8.06,-3.86 74.95,-155.07 149.92,-310.1 224.88,-465.14 l 0,-13.11 c -15.71,25.98 -33.16,51.09 -46.75,78.11 -30.84,61.37 -59.8,123.67 -89.5,185.58 -1.53,-0.58 -3.02,-1.15 -4.53,-1.71 l 0,-395.977 c 5.66,4.57 10.1,10.801 13.03,10.16 24.62,-5.43 49.02,-16.922 73.09,1.422 20.68,-26.562 36.84,-1.562 54.66,4.77 l 0,-215.653 -2059.305,0" /><path
         id="path26"
         style="fill:#e4e4e4;fill-opacity:1;fill-rule:evenodd;stroke:none"
         d="m 2773.33,959.141 c -17.8,-6.328 -33.97,-31.328 -54.65,-4.77 -24.08,-18.34 -48.47,-6.851 -73.08,-1.422 -2.93,0.641 -7.38,-5.59 -13.03,-10.156 l 0,395.977 c 1.5,0.57 3,1.13 4.51,1.71 29.72,-61.91 58.66,-124.21 89.51,-185.58 13.59,-27.03 31.04,-52.13 46.74,-78.1" /><path
         id="path28"
         style="fill:#c1272d;fill-opacity:1;fill-rule:evenodd;stroke:none"
         d="m 2773.33,1155.25 c -43.74,87.27 -87.87,174.38 -131.15,261.88 -35.55,71.85 -70.11,144.19 -108.16,222.55 29.97,0 55.49,1.78 80.46,-1.09 7.41,-0.85 15.3,-13.82 19.62,-22.85 41.75,-87.11 82.73,-174.61 124.07,-261.92 4.61,-9.71 10.08,-19.05 15.16,-28.59" /><path
         id="path30"
         style="fill:#080828;fill-opacity:1;fill-rule:evenodd;stroke:none"
         d="m 2773.33,2005.13 c -42.19,2.24 -84.38,4.48 -130.24,6.91 -0.93,-15.49 -2.35,-28.05 -2.3,-40.6 0.25,-81.55 0.95,-163.1 1.16,-244.65 0.02,-14.63 3.41,-35.52 -18.86,-32.86 -8.39,1 -20.43,21.25 -20.67,32.92 -1.97,97.83 -1.46,195.71 -2.03,293.56 -0.1,16.32 2.95,27.06 23.13,26.44 49.91,-1.56 99.87,-1.75 149.81,-2.5" /><path
         id="path32"
         style="fill:#c1272d;fill-opacity:1;fill-rule:evenodd;stroke:none"
         d="m 2773.33,1089.9 c -74.95,155.04 -149.91,310.07 -224.86,465.14 2.66,1.28 5.36,2.57 8.04,3.86 48.56,-97.93 96.54,-196.11 145.89,-293.63 22.23,-43.92 47.2,-86.46 70.93,-129.63" /><path
         id="path34"
         style="fill:#080828;fill-opacity:1;fill-rule:evenodd;stroke:none"
         d="m 2098.42,1241.43 c 8.38,23.85 25.45,30.43 50.02,30.33 60.97,-0.25 121.94,2.74 182.92,3.19 21.21,0.15 30.97,5.48 30.99,29.51 0.23,225.36 1.61,450.74 2.5,676.11 0.03,8.54 -1.46,17.07 -2.52,28.78 -11.31,0.82 -21.67,2.27 -32.04,2.2 -144.85,-0.79 -289.68,-2.48 -434.53,-2.17 -27.96,0.06 -38.29,-7.02 -37.54,-36.5 1.95,-73.99 0.57,-148.09 0.72,-222.15 0.03,-17.34 0.66,-34.48 -27.59,-25.79 l 0,322.23 562.51,0 0,-805.17 c -99.01,0 -197.57,0 -296.18,0.05 -0.05,0.04 0.74,-0.62 0.74,-0.62" /><path
         id="path36"
         style="fill:#c1272d;fill-opacity:1;fill-rule:evenodd;stroke:none"
         d="m 1796.86,1632.36 c 24.82,0 50,2.66 74.07,-1.23 10.55,-1.7 22.32,-15.13 27.8,-26.09 126.56,-253.46 252.32,-507.3 378.22,-761.091 7.1,-14.34 13.94,-28.793 20.78,-42.91 -4.78,-2.781 -6.46,-4.48 -8.3,-4.691 -75.14,-8.321 -75.43,-8.461 -109.34,59.629 -127.73,256.583 -255.29,513.263 -382.84,769.953 -0.82,1.65 -0.27,3.99 -0.39,6.43" /><path
         id="path38"
         style="fill:#e4e4e4;fill-opacity:1;fill-rule:evenodd;stroke:none"
         d="m 1487.47,867.012 -27.05,0 c 0,123.832 -0.49,246.698 0.09,369.548 1.59,336.64 3.5,673.29 5.87,1009.93 0.1,12.89 -10.33,36.86 21.09,31.2" /><path
         id="path40"
         style="fill:#e4e4e4;fill-opacity:1;fill-rule:evenodd;stroke:none"
         d="m 1443.61,1122.52 0,-67.19 c -148.23,14.69 -294.75,29.14 -447.825,44.3 152.735,7.81 298.965,15.27 447.825,22.89" /><path
         id="path42"
         style="fill:#c1272d;fill-opacity:1;fill-rule:evenodd;stroke:none"
         d="m 2186.94,776.777 c -132.24,273.673 -264.47,547.353 -396.73,821.033 2.74,1.3 5.44,2.61 8.17,3.93 134.44,-272.79 268.88,-545.59 403.33,-818.404 -4.94,-2.188 -9.85,-4.367 -14.77,-6.559" /><path
         id="path44"
         style="fill:#e4e4e4;fill-opacity:1;fill-rule:evenodd;stroke:none"
         d="m 1864.81,1402.36 c 22.4,-45.68 44.82,-91.37 67.46,-137.52 -6.72,-2.5 -8.75,-3.94 -10.72,-3.89 -76.28,2.6 -60.03,-3.86 -61.46,60.04 -0.6,26.7 -0.11,53.44 -0.11,80.18 1.61,0.39 3.23,0.79 4.83,1.19" /><path
         id="path46"
         style="fill:#080828;fill-opacity:1;fill-rule:evenodd;stroke:none"
         d="M 240,1652.58 730,1599.81 734.031,743.5 240,732.59" /><path
         id="path48"
         style="fill:#ffffff;fill-opacity:1;fill-rule:evenodd;stroke:none"
         d="m 431.031,842.559 c 16.68,20.199 30.809,37.289 45.867,55.511 39.204,-29.769 75,-56.961 110.5,-83.89 -13.628,-18.461 -25.738,-31.422 -33.359,-46.66 -3.687,-7.379 1.082,-18.961 2.031,-28.653 8.739,1.992 20.981,1.031 25.629,6.5 19.992,23.582 37.332,49.403 56.442,73.774 35.648,45.449 71.859,90.468 107.289,134.976 44.121,-26.25 84.898,-49.898 124.98,-74.648 22.059,-13.629 42.391,-30.09 64.649,-43.36 8.75,-5.211 20.621,-5.171 31.089,-7.531 1.551,4.121 3.122,8.262 4.68,12.402 -63.289,49.2 -126.578,98.438 -190.789,148.379 3.281,6.008 5.063,10.621 7.93,14.391 47.179,62.03 94.351,124.06 142.07,185.69 3.172,4.08 10.57,6.19 16.27,6.79 34.339,3.69 57.051,33.87 36.371,54.85 -27.27,27.65 -16.129,56.75 -19.719,85.74 -3.59,28.98 -1.473,53.83 50.669,49.55 -20.341,12.19 -27.778,18.94 -36.458,21.42 -37.863,10.86 -75.563,23.91 -114.293,29.57 -35.231,5.14 -44.641,20.67 -44.438,54.45 0.258,44.89 10,91.52 -10.851,136.1 -11.602,-8.81 -20.07,-20.42 -30.078,-21.96 -59.91,-9.18 -120.043,-17.24 -180.352,-23.26 -47.129,-4.71 -94.93,-3.45 -141.808,-9.59 -27.082,-3.54 -53.493,-18.69 -64.332,21.78 -0.469,1.77 -8.981,1.39 -14.821,2.15 -1.039,-5.92 -3,-10.81 -2.558,-15.49 8.437,-88.93 17.437,-177.81 25.57,-266.77 1.269,-13.79 4.269,-32.31 -2.852,-41 -16.929,-20.64 -5.461,-31.89 8.25,-43.16 62.743,-51.62 125.961,-102.66 191.262,-155.73 -65.109,-70.5 -128.121,-138.751 -191.633,-207.532 7.801,-7.207 14.09,-13.028 26.793,-24.789" /><path
         id="path50"
         style="fill:#c1272d;fill-opacity:1;fill-rule:evenodd;stroke:none"
         d="m 808.18,1088.22 c -44.692,-8.65 -79.172,-15.33 -120.832,-23.4 24.91,-19.57 42.953,-33.75 61.519,-48.36 17.723,21.45 34.231,41.42 59.313,71.76 m -311.121,172.03 c 29.039,78.5 -33.801,83.3 -75.942,105.22 -9.738,-104.93 3.711,-122.82 75.942,-105.22 m 158,-178.4 c 92.558,20.24 190.871,3.4 228.121,107.25 -48.879,-10.43 -101.313,-20.02 -152.821,-33.17 -35.089,-8.94 -56.961,-34.6 -75.3,-74.08 m 278.879,188.21 c 22.871,97.36 12.773,115.64 -73.129,140.23 -12.739,3.65 -25.11,8.54 -41.379,14.12 0,-34.32 -0.692,-65.39 0.558,-96.37 0.27,-6.71 6,-16.75 11.75,-19.14 33.492,-13.9 67.731,-25.97 102.2,-38.84 M 492.688,916.504 c 37.011,-28.691 72.632,-56.313 109.691,-85.02 40.219,48.868 78.738,95.719 119.262,144.981 -34.551,25.975 -68.43,51.445 -103.192,77.575 -43.64,-47.71 -84,-91.856 -125.761,-137.536 M 405.98,1425.74 c 12.071,-12.19 19.161,-23.95 29.52,-28.93 27.609,-13.26 57.391,-22.09 84.598,-36.01 8.363,-4.28 16.32,-19.81 15.48,-29.4 -1.859,-21.25 -9.398,-42.01 -16.687,-71.23 91.597,10.76 171.367,20.14 248.847,29.24 48.313,54.55 22.61,117.44 29.223,180.59 -130.07,-14.73 -255.32,-28.91 -390.981,-44.26 m 25.047,-583.177 c -12.699,11.75 -18.988,17.57 -26.789,24.781 63.512,68.789 126.52,137.036 191.629,207.536 -65.297,53.07 -128.519,104.1 -191.25,155.72 -13.719,11.28 -25.187,22.53 -8.258,43.17 7.121,8.69 4.121,27.2 2.86,40.99 -8.141,88.97 -17.129,177.85 -25.578,266.78 -0.442,4.67 1.519,9.57 2.558,15.48 5.84,-0.76 14.352,-0.38 14.821,-2.14 10.839,-40.47 37.25,-25.33 64.328,-21.78 46.882,6.14 94.679,4.88 141.812,9.59 60.309,6.01 120.438,14.08 180.36,23.26 10.007,1.53 18.468,13.14 30.07,21.95 20.848,-44.58 11.109,-91.21 10.848,-136.09 -0.2,-33.79 9.21,-49.31 44.441,-54.45 38.73,-5.66 76.43,-18.71 114.289,-29.57 8.68,-2.48 16.121,-9.24 36.462,-21.43 -52.142,4.28 -54.251,-20.56 -50.661,-49.55 3.582,-28.98 -7.559,-58.08 19.711,-85.74 20.68,-20.97 -2.032,-51.15 -36.371,-54.84 -5.7,-0.6 -13.098,-2.72 -16.27,-6.8 -47.711,-61.62 -94.891,-123.65 -142.07,-185.68 -2.871,-3.766 -4.649,-8.375 -7.93,-14.398 64.211,-49.938 127.512,-99.18 190.801,-148.379 -1.57,-4.141 -3.129,-8.282 -4.692,-12.399 -10.468,2.36 -22.339,2.328 -31.089,7.539 -22.258,13.262 -42.59,29.731 -64.649,43.36 -40.082,24.75 -80.859,48.402 -124.98,74.652 -35.43,-44.512 -71.641,-89.531 -107.289,-134.98 -19.114,-24.383 -36.453,-50.204 -56.442,-73.77 -4.648,-5.473 -16.89,-4.512 -25.629,-6.512 -0.953,9.692 -5.722,21.27 -2.031,28.66 7.621,15.231 19.731,28.2 33.359,46.661 -35.488,26.929 -71.3,54.121 -110.488,83.879 -15.07,-18.219 -29.191,-35.309 -45.883,-55.5" /><path
         id="path52"
         style="fill:#080828;fill-opacity:1;fill-rule:evenodd;stroke:none"
         d="m 405.977,1425.74 c 135.66,15.35 260.91,29.53 390.98,44.26 -6.602,-63.15 19.09,-126.04 -29.219,-180.59 -77.472,-9.1 -157.25,-18.47 -248.84,-29.24 7.278,29.22 14.821,49.98 16.68,71.23 0.84,9.59 -7.121,25.12 -15.473,29.4 -27.218,13.92 -57,22.75 -84.609,36.01 -10.359,4.98 -17.437,16.74 -29.519,28.93" /><path
         id="path54"
         style="fill:#080828;fill-opacity:1;fill-rule:evenodd;stroke:none"
         d="m 492.688,916.504 c 41.769,45.68 82.117,89.816 125.757,137.536 34.77,-26.13 68.641,-51.59 103.2,-77.575 -40.528,-49.262 -79.047,-96.11 -119.258,-144.981 -37.063,28.711 -72.692,56.329 -109.699,85.02" /><path
         id="path56"
         style="fill:#080828;fill-opacity:1;fill-rule:evenodd;stroke:none"
         d="m 933.938,1270.06 c -34.473,12.87 -68.711,24.94 -102.192,38.85 -5.762,2.38 -11.488,12.42 -11.762,19.14 -1.25,30.97 -0.558,62.05 -0.558,96.37 16.269,-5.59 28.648,-10.47 41.379,-14.13 85.902,-24.59 96,-42.87 73.133,-140.23" /><path
         id="path58"
         style="fill:#080828;fill-opacity:1;fill-rule:evenodd;stroke:none"
         d="m 655.059,1081.86 c 18.339,39.46 40.211,65.14 75.3,74.07 51.508,13.16 103.942,22.75 152.821,33.18 -37.25,-103.86 -135.563,-87.02 -228.121,-107.25" /><path
         id="path60"
         style="fill:#080828;fill-opacity:1;fill-rule:evenodd;stroke:none"
         d="m 497.055,1260.25 c -72.231,-17.6 -85.68,0.29 -75.93,105.21 42.141,-21.91 104.98,-26.71 75.93,-105.21" /><path
         id="path62"
         style="fill:#080828;fill-opacity:1;fill-rule:evenodd;stroke:none"
         d="m 808.18,1088.22 c -25.082,-30.34 -41.59,-50.31 -59.313,-71.76 -18.566,14.61 -36.609,28.79 -61.519,48.36 41.66,8.07 76.14,14.75 120.832,23.4" /></g></g></svg>