<?xml version="1.0" encoding="utf-8"?>
<!-- Generator: Adobe Illustrator 16.0.3, SVG Export Plug-In . SVG Version: 6.00 Build 0)  -->
<!DOCTYPE svg PUBLIC "-//W3C//DTD SVG 1.1//EN" "http://www.w3.org/Graphics/SVG/1.1/DTD/svg11.dtd" [
	<!ENTITY ns_extend "http://ns.adobe.com/Extensibility/1.0/">
	<!ENTITY ns_ai "http://ns.adobe.com/AdobeIllustrator/10.0/">
	<!ENTITY ns_graphs "http://ns.adobe.com/Graphs/1.0/">
	<!ENTITY ns_vars "http://ns.adobe.com/Variables/1.0/">
	<!ENTITY ns_imrep "http://ns.adobe.com/ImageReplacement/1.0/">
	<!ENTITY ns_sfw "http://ns.adobe.com/SaveForWeb/1.0/">
	<!ENTITY ns_custom "http://ns.adobe.com/GenericCustomNamespace/1.0/">
	<!ENTITY ns_adobe_xpath "http://ns.adobe.com/XPath/1.0/">
]>
<svg version="1.1" id="Ebene_1" xmlns:x="&ns_extend;" xmlns:i="&ns_ai;" xmlns:graph="&ns_graphs;"
	 xmlns="http://www.w3.org/2000/svg" xmlns:xlink="http://www.w3.org/1999/xlink" x="0px" y="0px" width="300px" height="300px"
	 viewBox="0 0 300 300" enable-background="new 0 0 300 300" xml:space="preserve">
<metadata>
	<sfw  xmlns="&ns_sfw;">
		<slices></slices>
		<sliceSourceBounds  height="307.582" width="300.002" x="-50.501" y="-57.082" bottomLeftOrigin="true"></sliceSourceBounds>
	</sfw>
</metadata>
<path fill="#248CBA" d="M228.001,300H71.999c-39.604,0-72-16.9-72-56.5V60c0-39.6,32.396-60,72-60h156.002c39.6,0,72,20.9,72,60.5
	V244C300.001,283.6,267.599,300,228.001,300z"/>
<rect x="0.758" y="228.086" fill="none" width="298.482" height="79.496"/>
<g enable-background="new    ">
	<path fill="#FFFFFF" d="M35.042,210.243c2.112-0.432,5.136-0.672,8.017-0.672c4.464,0,7.345,0.816,9.361,2.64
		c1.632,1.44,2.544,3.648,2.544,6.145c0,4.272-2.688,7.105-6.096,8.257v0.145c2.496,0.864,3.984,3.168,4.752,6.528
		c1.056,4.513,1.824,7.633,2.496,8.881h-4.32c-0.528-0.912-1.248-3.696-2.16-7.729c-0.96-4.465-2.688-6.145-6.48-6.289h-3.937
		v14.018h-4.176V210.243z M39.219,224.98h4.272c4.464,0,7.296-2.448,7.296-6.145c0-4.177-3.024-6-7.44-6.049
		c-2.016,0-3.457,0.192-4.128,0.385V224.98z"/>
	<path fill="#FFFFFF" d="M61.153,208.083h4.224v14.497h0.096c0.672-1.2,1.728-2.256,3.024-2.976c1.248-0.721,2.736-1.2,4.32-1.2
		c3.12,0,8.113,1.92,8.113,9.937v13.825h-4.225v-13.345c0-3.745-1.392-6.913-5.376-6.913c-2.736,0-4.896,1.92-5.665,4.225
		c-0.24,0.576-0.288,1.2-0.288,2.016v14.018h-4.224V208.083z"/>
	<path fill="#FFFFFF" d="M90.145,231.317c0.096,5.712,3.744,8.064,7.969,8.064c3.024,0,4.849-0.528,6.433-1.2l0.72,3.024
		c-1.488,0.672-4.033,1.44-7.729,1.44c-7.152,0-11.425-4.705-11.425-11.714c0-7.008,4.128-12.528,10.897-12.528
		c7.584,0,9.601,6.672,9.601,10.944c0,0.864-0.096,1.536-0.144,1.969H90.145z M102.53,228.293c0.048-2.688-1.104-6.865-5.856-6.865
		c-4.272,0-6.145,3.937-6.481,6.865H102.53z"/>
	<path fill="#FFFFFF" d="M116.929,212.26v6.672h6.048v3.217h-6.048v12.529c0,2.88,0.816,4.512,3.168,4.512
		c1.104,0,1.92-0.144,2.448-0.288l0.192,3.169c-0.816,0.336-2.112,0.576-3.745,0.576c-1.968,0-3.552-0.624-4.56-1.776
		c-1.2-1.248-1.632-3.313-1.632-6.049v-12.673h-3.6v-3.217h3.6v-5.568L116.929,212.26z"/>
	<path fill="#FFFFFF" d="M148.466,230.357c0,8.593-5.953,12.337-11.569,12.337c-6.289,0-11.137-4.608-11.137-11.953
		c0-7.776,5.088-12.337,11.521-12.337C143.953,218.404,148.466,223.252,148.466,230.357z M130.032,230.597
		c0,5.089,2.928,8.929,7.057,8.929c4.032,0,7.057-3.792,7.057-9.024c0-3.937-1.969-8.929-6.961-8.929
		S130.032,226.181,130.032,230.597z"/>
	<path fill="#FFFFFF" d="M153.792,226.181c0-2.736-0.048-5.089-0.191-7.249h3.696l0.144,4.561h0.192
		c1.056-3.12,3.601-5.088,6.433-5.088c0.479,0,0.816,0.048,1.2,0.144v3.984c-0.433-0.096-0.864-0.144-1.44-0.144
		c-2.977,0-5.088,2.256-5.664,5.424c-0.097,0.576-0.192,1.248-0.192,1.969v12.385h-4.177V226.181z"/>
	<path fill="#FFFFFF" d="M174.384,212.403c0.048,1.44-1.009,2.593-2.688,2.593c-1.488,0-2.544-1.152-2.544-2.593
		c0-1.488,1.104-2.64,2.64-2.64C173.375,209.764,174.384,210.915,174.384,212.403z M169.679,242.166v-23.234h4.225v23.234H169.679z"
		/>
	<path fill="#FFFFFF" d="M180.336,237.846c1.248,0.816,3.456,1.68,5.568,1.68c3.072,0,4.512-1.536,4.512-3.456
		c0-2.016-1.2-3.12-4.32-4.272c-4.176-1.488-6.145-3.792-6.145-6.576c0-3.744,3.024-6.816,8.017-6.816
		c2.353,0,4.417,0.672,5.713,1.439l-1.056,3.072c-0.912-0.576-2.593-1.344-4.753-1.344c-2.496,0-3.889,1.44-3.889,3.168
		c0,1.921,1.393,2.784,4.417,3.937c4.032,1.536,6.097,3.553,6.097,7.009c0,4.08-3.169,6.961-8.689,6.961
		c-2.544,0-4.896-0.624-6.528-1.585L180.336,237.846z"/>
	<path fill="#FFFFFF" d="M216.481,241.302c-1.104,0.576-3.552,1.345-6.672,1.345c-7.009,0-11.569-4.753-11.569-11.857
		c0-7.152,4.896-12.337,12.481-12.337c2.496,0,4.704,0.624,5.856,1.2l-0.961,3.264c-1.008-0.576-2.592-1.104-4.896-1.104
		c-5.329,0-8.209,3.937-8.209,8.784c0,5.377,3.456,8.689,8.064,8.689c2.4,0,3.984-0.624,5.185-1.152L216.481,241.302z"/>
	<path fill="#FFFFFF" d="M221.423,208.083h4.225v14.497h0.096c0.673-1.2,1.729-2.256,3.024-2.976c1.248-0.721,2.736-1.2,4.32-1.2
		c3.121,0,8.113,1.92,8.113,9.937v13.825h-4.225v-13.345c0-3.745-1.392-6.913-5.376-6.913c-2.736,0-4.896,1.92-5.665,4.225
		c-0.24,0.576-0.288,1.2-0.288,2.016v14.018h-4.225V208.083z"/>
	<path fill="#FFFFFF" d="M250.415,231.317c0.096,5.712,3.744,8.064,7.969,8.064c3.024,0,4.849-0.528,6.433-1.2l0.72,3.024
		c-1.488,0.672-4.032,1.44-7.729,1.44c-7.152,0-11.425-4.705-11.425-11.714c0-7.008,4.128-12.528,10.896-12.528
		c7.585,0,9.602,6.672,9.602,10.944c0,0.864-0.097,1.536-0.145,1.969H250.415z M262.8,228.293c0.049-2.688-1.104-6.865-5.856-6.865
		c-4.272,0-6.145,3.937-6.48,6.865H262.8z"/>
</g>
<g enable-background="new    ">
	<path fill="#FFFFFF" d="M96.937,254.812h17.425v3.504h-13.249v10.753h12.241v3.456h-12.241v14.642h-4.176V254.812z"/>
	<path fill="#FFFFFF" d="M118.922,271.181c0-2.736-0.048-5.089-0.192-7.249h3.696l0.144,4.561h0.192
		c1.056-3.12,3.6-5.088,6.433-5.088c0.48,0,0.816,0.048,1.2,0.144v3.984c-0.432-0.096-0.864-0.144-1.44-0.144
		c-2.976,0-5.088,2.256-5.665,5.424c-0.096,0.576-0.192,1.248-0.192,1.969v12.385h-4.176V271.181z"/>
	<path fill="#FFFFFF" d="M147.243,287.166l-0.336-2.929h-0.144c-1.296,1.824-3.792,3.457-7.104,3.457
		c-4.704,0-7.104-3.313-7.104-6.673c0-5.616,4.992-8.688,13.969-8.641v-0.48c0-1.92-0.528-5.376-5.28-5.376
		c-2.161,0-4.417,0.672-6.049,1.728l-0.96-2.784c1.92-1.248,4.704-2.063,7.633-2.063c7.104,0,8.833,4.848,8.833,9.505v8.688
		c0,2.016,0.096,3.984,0.384,5.568H147.243z M146.618,275.309c-4.608-0.096-9.841,0.721-9.841,5.232
		c0,2.736,1.824,4.033,3.984,4.033c3.024,0,4.945-1.921,5.617-3.889c0.144-0.432,0.24-0.912,0.24-1.344V275.309z"/>
	<path fill="#FFFFFF" d="M177.531,263.932c-0.097,1.681-0.192,3.553-0.192,6.385v13.489c0,5.328-1.056,8.593-3.313,10.609
		c-2.256,2.111-5.521,2.784-8.448,2.784c-2.785,0-5.857-0.673-7.729-1.921l1.056-3.216c1.536,0.96,3.937,1.824,6.816,1.824
		c4.32,0,7.489-2.256,7.489-8.113v-2.592h-0.097c-1.296,2.16-3.792,3.889-7.393,3.889c-5.761,0-9.889-4.896-9.889-11.329
		c0-7.873,5.136-12.337,10.465-12.337c4.032,0,6.241,2.112,7.249,4.032h0.096l0.191-3.505H177.531z M173.162,273.101
		c0-0.72-0.048-1.344-0.24-1.92c-0.768-2.448-2.832-4.465-5.904-4.465c-4.032,0-6.912,3.409-6.912,8.785
		c0,4.561,2.305,8.353,6.864,8.353c2.593,0,4.944-1.632,5.856-4.32c0.24-0.72,0.336-1.536,0.336-2.256V273.101z"/>
	<path fill="#FFFFFF" d="M186.698,276.317c0.096,5.712,3.744,8.064,7.968,8.064c3.024,0,4.849-0.528,6.433-1.2l0.721,3.024
		c-1.488,0.672-4.032,1.44-7.729,1.44c-7.152,0-11.426-4.705-11.426-11.714c0-7.008,4.129-12.528,10.897-12.528
		c7.585,0,9.601,6.672,9.601,10.944c0,0.864-0.096,1.536-0.144,1.969H186.698z M199.082,273.293
		c0.048-2.688-1.104-6.865-5.856-6.865c-4.272,0-6.145,3.937-6.481,6.865H199.082z"/>
</g>
<g>
	<ellipse opacity="0.4" fill="#FFFFFF" enable-background="new    " cx="147.039" cy="109.499" rx="84.333" ry="83"/>
	<g>
		<g>
			
				<line fill="none" stroke="#FFFFFF" stroke-width="12" stroke-miterlimit="10" x1="143.645" y1="131.078" x2="248.626" y2="131.078"/>
			
				<line fill="none" stroke="#FFFFFF" stroke-width="12" stroke-miterlimit="10" x1="143.645" y1="154.576" x2="223.517" y2="154.576"/>
			<line fill="none" stroke="#FFFFFF" stroke-width="12" stroke-miterlimit="10" x1="143.645" y1="84.08" x2="234.931" y2="84.08"/>
			
				<line fill="none" stroke="#FFFFFF" stroke-width="12" stroke-miterlimit="10" x1="143.645" y1="107.579" x2="191.751" y2="107.579"/>
		</g>
	</g>
	<circle opacity="0.4" fill="#FFFFFF" enable-background="new    " cx="72.706" cy="170.166" r="9"/>
	<circle opacity="0.4" fill="#FFFFFF" enable-background="new    " cx="58.039" cy="183.165" r="6.666"/>
</g>
</svg>
