<?xml version="1.0" encoding="UTF-8" standalone="no"?>
<svg
   xmlns:dc="http://purl.org/dc/elements/1.1/"
   xmlns:cc="http://creativecommons.org/ns#"
   xmlns:rdf="http://www.w3.org/1999/02/22-rdf-syntax-ns#"
   xmlns:svg="http://www.w3.org/2000/svg"
   xmlns="http://www.w3.org/2000/svg"
   viewBox="0 0 375 375"
   height="375"
   width="375"
   xml:space="preserve"
   version="1.1"
   id="svg2"><metadata
     id="metadata8"><rdf:RDF><cc:Work
         rdf:about=""><dc:format>image/svg+xml</dc:format><dc:type
           rdf:resource="http://purl.org/dc/dcmitype/StillImage" /></cc:Work></rdf:RDF></metadata><defs
     id="defs6"><clipPath
       id="clipPath34"
       clipPathUnits="userSpaceOnUse"><path
         id="path36"
         d="m 1105,1665 c 0,0 70,-450 375,-660 l 0,0 760.31,722.23 L 1490,2490 c 0,0 -400,-220 -385,-825" /></clipPath><clipPath
       id="clipPath42"
       clipPathUnits="userSpaceOnUse"><path
         id="path44"
         d="m -327680,-327680 655350,0 0,655350 -655350,0 0,-655350 z" /></clipPath><clipPath
       id="clipPath46"
       clipPathUnits="userSpaceOnUse"><path
         id="path48"
         d="m 1105,1665 c 0,0 70,-450 375,-660 l 0,0 760.31,722.23 L 1490,2490 c 0,0 -400,-220 -385,-825" /></clipPath><linearGradient
       id="linearGradient50"
       spreadMethod="pad"
       gradientTransform="matrix(-6.5e-4,-14850,-14850,6.5e-4,16724.5,24900)"
       gradientUnits="userSpaceOnUse"
       y2="0"
       x2="1"
       y1="0"
       x1="0"><stop
         id="stop52"
         offset="0"
         style="stop-opacity:1;stop-color:#ffffff" /><stop
         id="stop54"
         offset="0.89796431"
         style="stop-opacity:0;stop-color:#ffffff" /><stop
         id="stop56"
         offset="1"
         style="stop-opacity:0;stop-color:#ffffff" /></linearGradient><mask
       id="mask58"
       height="1"
       width="1"
       y="0"
       x="0"
       maskUnits="userSpaceOnUse"><g
         id="g60"><g
           id="g62"
           clip-path="url(#clipPath42)"><g
             id="g64"><g
               id="g66"
               clip-path="url(#clipPath46)"><path
                 id="path68"
                 style="fill:url(#linearGradient50);fill-opacity:1;fill-rule:nonzero;stroke:none"
                 d="m 1105,1665 c 0,0 70,-450 375,-660 l 0,0 760.31,722.23 L 1490,2490 c 0,0 -400,-220 -385,-825" /></g></g></g></g></mask><clipPath
       id="clipPath74"
       clipPathUnits="userSpaceOnUse"><path
         id="path76"
         d="m 1090,1005 1150.31,0 0,1485 -1150.31,0 0,-1485 z" /></clipPath><clipPath
       id="clipPath78"
       clipPathUnits="userSpaceOnUse"><path
         id="path80"
         d="m 1105,1665 c 0,0 70,-450 375,-660 l 0,0 760.31,722.23 L 1490,2490 c 0,0 -400,-220 -385,-825" /></clipPath><linearGradient
       id="linearGradient82"
       spreadMethod="pad"
       gradientTransform="matrix(-6.5e-4,-14850,-14850,6.5e-4,16724.5,24900)"
       gradientUnits="userSpaceOnUse"
       y2="0"
       x2="1"
       y1="0"
       x1="0"><stop
         id="stop84"
         offset="0"
         style="stop-opacity:1;stop-color:#ffffff" /><stop
         id="stop86"
         offset="0.89796431"
         style="stop-opacity:1;stop-color:#ffffff" /><stop
         id="stop88"
         offset="1"
         style="stop-opacity:1;stop-color:#ffffff" /></linearGradient></defs><g
     transform="matrix(1.25,0,0,-1.25,0,375)"
     id="g10"><g
       transform="scale(0.1,0.1)"
       id="g12"><path
         id="path14"
         style="fill:#aebcc4;fill-opacity:1;fill-rule:nonzero;stroke:none"
         d="m 3000,529.855 c 0,-67.632 0,-529.85109375 -715,-529.85109375 l -1625,0 C 35,0.00390625 0,472.223 0,539.855 L 0,2399.86 c 0,545 592.352,600 660,600 l 1615,0.28 c 67.65,0 725,-0.28 725,-600.28" /><path
         id="path16"
         style="fill:#080828;fill-opacity:1;fill-rule:nonzero;stroke:none"
         d="m 961.75,710.484 0,-52.781 -33.594,0 0,-44.156 33.594,0 0,-109.891 c 0,-30.703 5.75,-51.828 18.234,-65.265 11.032,-11.985 29.266,-19.188 50.856,-19.188 18.72,0 34.08,2.391 42.72,5.75 l -0.97,45.11 c -5.26,-1.438 -12.95,-2.875 -23.03,-2.875 -22.54,0 -30.23,14.875 -30.23,43.187 l 0,103.172 56.15,0 0,44.156 -56.15,0 0,66.703 -57.58,-13.922" /><path
         id="path18"
         style="fill:#080828;fill-opacity:1;fill-rule:nonzero;stroke:none"
         d="m 1179.17,424 0,233.703 -59.5,0 0,-233.703 59.5,0 z m -29.75,331.109 c -19.67,0 -33.11,-13.906 -33.11,-32.14 0,-17.766 12.96,-31.672 32.63,-31.672 20.64,0 33.59,13.906 33.59,31.672 -0.47,18.234 -12.95,32.14 -33.11,32.14" /><path
         id="path20"
         style="fill:#080828;fill-opacity:1;fill-rule:nonzero;stroke:none"
         d="m 1242.67,424 59.5,0 0,340.719 -59.5,0 0,-340.719 z" /><path
         id="path22"
         style="fill:#080828;fill-opacity:1;fill-rule:nonzero;stroke:none"
         d="m 1376.75,710.484 0,-52.781 -33.59,0 0,-44.156 33.59,0 0,-109.891 c 0,-30.703 5.75,-51.828 18.23,-65.265 11.04,-11.985 29.27,-19.188 50.86,-19.188 18.72,0 34.08,2.391 42.72,5.75 l -0.97,45.11 c -5.26,-1.438 -12.95,-2.875 -23.03,-2.875 -22.54,0 -30.23,14.875 -30.23,43.187 l 0,103.172 56.15,0 0,44.156 -56.15,0 0,66.703 -57.58,-13.922" /><path
         id="path24"
         style="fill:#080828;fill-opacity:1;fill-rule:nonzero;stroke:none"
         d="m 1594.17,424 0,233.703 -59.5,0 0,-233.703 59.5,0 z m -29.75,331.109 c -19.67,0 -33.11,-13.906 -33.11,-32.14 0,-17.766 12.96,-31.672 32.63,-31.672 20.64,0 33.59,13.906 33.59,31.672 -0.47,18.234 -12.95,32.14 -33.11,32.14" /><path
         id="path26"
         style="fill:#080828;fill-opacity:1;fill-rule:nonzero;stroke:none"
         d="m 1657.67,424 59.5,0 0,137.25 c 0,6.719 0.49,13.906 2.41,19.188 6.23,17.75 22.55,34.546 46.06,34.546 32.16,0 44.63,-25.421 44.63,-59.015 l 0,-131.969 59.03,0 0,138.688 c 0,73.89 -42.24,100.296 -83.02,100.296 -38.87,0 -64.31,-22.078 -74.39,-40.312 l -1.44,0 -2.87,35.031 -51.83,0 c 1.44,-20.156 1.92,-42.719 1.92,-69.594 l 0,-164.109" /><path
         id="path28"
         style="fill:#080828;fill-opacity:1;fill-rule:nonzero;stroke:none"
         d="m 2094.88,657.703 -2.41,-31.203 -0.95,0 c -11.05,19.203 -32.16,36.484 -67.68,36.484 -56.14,0 -106.04,-46.546 -106.04,-123.328 0,-66.234 41.26,-114.218 99.33,-114.218 30.71,0 54.7,13.921 68.14,34.546 l 0.96,0 0,-20.156 c 0,-50.375 -28.79,-70.531 -67.18,-70.531 -28.32,0 -53.27,9.109 -68.14,17.75 l -12.96,-44.625 c 20.16,-12.484 51.83,-18.719 81.58,-18.719 32.16,0 65.74,6.719 90.22,28.313 24.47,22.078 34.55,57.109 34.55,106.062 l 0,132.438 c 0,32.156 0.95,51.343 1.92,67.187 l -51.34,0 z m -9.61,-131.484 c 0,-6.719 -0.96,-14.875 -2.39,-21.125 -6.72,-21.11 -25.93,-35.5 -47.99,-35.5 -36.95,0 -57.11,32.14 -57.11,71.969 0,47.515 24.47,76.312 57.58,76.312 24.95,0 41.75,-16.328 48,-37.922 1.44,-4.797 1.91,-10.547 1.91,-15.828 l 0,-37.906" /><g
         id="g30"><g
           clip-path="url(#clipPath34)"
           id="g32" /></g><g
         id="g38"><g
           id="g40" /><g
           mask="url(#mask58)"
           id="g70"><g
             id="g72" /><g
             id="g90"><g
               id="g92"
               clip-path="url(#clipPath74)"><g
                 id="g94"><g
                   id="g96"
                   clip-path="url(#clipPath78)"><path
                     id="path98"
                     style="fill:url(#linearGradient82);fill-opacity:1;fill-rule:nonzero;stroke:none"
                     d="m 1105,1665 c 0,0 70,-450 375,-660 l 0,0 760.31,722.23 L 1490,2490 c 0,0 -400,-220 -385,-825" /></g></g></g></g></g></g><path
         id="path100"
         style="fill:#080828;fill-opacity:1;fill-rule:nonzero;stroke:none"
         d="m 1512.08,1503.92 2.3,480.27 c 0,0 129.05,-49.46 182.14,-119.75 l 68.34,-0.06 138.7,123.28 c 0,0 30.41,47.42 151.59,35.93 l 573.59,-0.49 c 0,0 138.37,1.25 155.51,-168.81 l -0.24,-273.82 c 0,0 -31.79,-125.01 -161.51,-138.23 l -564.95,0.47 c 0,0 -112.4,-0.87 -149.85,39.52 l -144.01,131.58 -69.19,0.06 c 0,0 -38.11,-70.21 -182.42,-109.95" /><path
         id="path102"
         style="fill:#c1272d;fill-opacity:1;fill-rule:nonzero;stroke:none"
         d="m 2240.41,1869.67 c 67.61,-0.05 122.39,-54.93 122.33,-122.54 -0.05,-67.62 -54.92,-122.4 -122.54,-122.34 -67.61,0.07 -122.39,54.92 -122.33,122.55 0.05,67.61 54.92,122.39 122.54,122.33" /><path
         id="path104"
         style="fill:#ffffff;fill-opacity:1;fill-rule:nonzero;stroke:none"
         d="m 981.656,2199.92 c -0.051,-1.74 -1.691,-5.02 -3.609,-5.27 -73.172,-10.36 -144.402,-38.85 -206.551,-85.75 -1.641,-1.2 -3.082,-0.46 -3.25,1.64 -5.351,81.01 -10.043,160.79 -14.101,239.43 -0.129,2.05 1.179,6.21 3.121,6.84 28.257,-19.18 55.89,-37.34 83.121,-55.45 99.847,129.38 218.993,206.26 344.613,294.25 -27.79,25.94 -56.45,50.43 -85.79,74.46 0.13,1.74 4.25,3.13 6.54,3.13 86.86,0.67 173.73,1.3 260.71,2.14 2.29,-0.01 3.86,-1.69 3.52,-3.74 -14.28,-78.13 -27.93,-155.1 -41.02,-231.02 -0.3,-2.01 -4.1,-2.74 -6.12,-2.25 -21.59,31.35 -44.57,60.04 -68.52,86.81 -124.28,-83.99 -241.96,-153.07 -344.836,-270.83 24.411,-17.23 48.5,-35.11 72.172,-54.39" /></g></g></svg>