<?xml version="1.0" encoding="iso-8859-1"?>
<!-- Generator: Adobe Illustrator 16.0.3, SVG Export Plug-In . SVG Version: 6.00 Build 0)  -->
<!DOCTYPE svg PUBLIC "-//W3C//DTD SVG 1.1//EN" "http://www.w3.org/Graphics/SVG/1.1/DTD/svg11.dtd">
<svg version="1.1" id="Ebene_1" xmlns="http://www.w3.org/2000/svg" xmlns:xlink="http://www.w3.org/1999/xlink" x="0px" y="0px"
	 width="518px" height="518px" viewBox="0 0 518 518" style="enable-background:new 0 0 518 518;" xml:space="preserve">
<path style="fill-rule:evenodd;clip-rule:evenodd;fill:#754D29;" d="M518,512c0,3.313-2.017,6-4.505,6H4.505
	C2.018,518,0,515.313,0,512V6c0-3.313,2.017-6,4.504-6h508.99C515.983,0,518,2.687,518,6V512z"/>
<g>
	<g id="XMLID_1_">
		<g>
			<path style="fill:#754D29;" d="M269.939,231.73c-7.21,0-14.6,0-22.12,0c-1.62-16.2,1.88-30.18,15.56-40.32
				c3.33-2.48,6.56-5.15,9.55-8.02c4.84-4.66,7.52-10.13,5.26-17.07c-2.24-6.88-7.5-9.86-14.16-10.92
				c-4.35-0.7-8.62-0.12-12.72,1.52c-7.43,2.98-10.25,8.98-10.64,16.89c-8.11,0-15.72,0-23.73,0c0.16-15.07,6.08-26.76,19.43-33.53
				c15.89-8.06,32.4-8.83,48.32-0.07c20.86,11.48,24.58,38.55,8.14,55.82c-3.58,3.76-7.58,7.02-11.67,10.16
				c-7.39,5.67-11.39,12.85-10.67,22.35C270.559,229.51,270.709,230.55,269.939,231.73z M265.069,144.68
				c0.69-3.22-0.53-4.38-3.89-4.27c-2.95,0.09-4.43,0.45-4.31,4.01c0.11,3.26,0.65,4.62,4.31,4.54
				C264.499,148.88,265.769,147.93,265.069,144.68z"/>
			<path style="fill:#FDFDFD;" d="M278.209,314.53c-20.04,4.71-39.8,2.529-58.67-5.49c-35.55-15.11-59.64-40.88-70.91-78.12
				c-2.52-8.32-3.5-16.92-3.58-25.61c0.26-18.72,5.54-36.07,14.76-52.22c14.16-24.81,33.83-43.89,59.75-56.2
				c28.32-13.44,56.79-13.22,84.54,1.08c35.24,18.16,58.65,46.39,68.209,85.23c5.971,24.29,1.521,47.38-10.85,68.75
				C342.629,284.47,315.019,305.87,278.209,314.53z M247.819,231.73c7.52,0,14.91,0,22.12,0c0.77-1.18,0.62-2.22,0.55-3.19
				c-0.72-9.5,3.28-16.68,10.67-22.35c4.09-3.14,8.09-6.4,11.67-10.16c16.44-17.27,12.72-44.34-8.14-55.82
				c-15.92-8.76-32.43-7.99-48.32,0.07c-13.35,6.77-19.27,18.46-19.43,33.53c8.01,0,15.62,0,23.73,0
				c0.39-7.91,3.21-13.91,10.64-16.89c4.1-1.64,8.37-2.22,12.72-1.52c6.66,1.06,11.92,4.04,14.16,10.92
				c2.26,6.94-0.42,12.41-5.26,17.07c-2.99,2.87-6.22,5.54-9.55,8.02C249.699,201.55,246.199,215.53,247.819,231.73z
				 M246.359,269.54c8.52,0,16.76,0,25.13,0c0-8.67,0-17.05,0-25.56c-8.48,0-16.63,0-25.13,0
				C246.359,252.48,246.359,260.99,246.359,269.54z"/>
			<path style="fill:#754D29;" d="M219.539,309.04c18.87,8.02,38.63,10.2,58.67,5.49c36.81-8.66,64.42-30.061,83.25-62.58
				c12.37-21.37,16.82-44.46,10.85-68.75c-9.56-38.84-32.97-67.07-68.209-85.23c-27.75-14.3-56.22-14.52-84.54-1.08
				c-25.92,12.31-45.59,31.39-59.75,56.2c-9.22,16.15-14.5,33.5-14.76,52.22c0.08,8.69,1.06,17.29,3.58,25.61
				C159.899,268.16,183.989,293.93,219.539,309.04z M419.679,200.93c0.57,87.61-71.08,160.28-160.37,160.66
				c-88.46,0.38-160.09-70.49-161.13-160.5c0.91-91.88,75.04-160.51,160.47-160.72C346.899,40.14,419.099,111.9,419.679,200.93z"/>
			<path style="fill:#754D29;" d="M271.489,269.54c-8.37,0-16.61,0-25.13,0c0-8.55,0-17.06,0-25.56c8.5,0,16.65,0,25.13,0
				C271.489,252.49,271.489,260.87,271.489,269.54z"/>
			<path style="fill:#FCFBFB;" d="M259.309,361.59c89.29-0.38,160.94-73.05,160.37-160.66c-0.58-89.03-72.779-160.79-161.03-160.56
				c-85.43,0.21-159.56,68.84-160.47,160.72C99.219,291.1,170.849,361.97,259.309,361.59z M259.039,25.99
				c96.51-0.58,177.17,79.81,175.04,178.93c-2.04,95.16-81.561,173.45-179.37,171.17c-94.72-2.21-173.28-81.439-170.77-179.76
				C86.349,101.91,164.509,25.46,259.039,25.99z"/>
			<path style="fill:#754D29;" d="M261.179,140.41c3.36-0.11,4.58,1.05,3.89,4.27c0.7,3.25-0.57,4.2-3.89,4.28
				c-3.66,0.08-4.2-1.28-4.31-4.54C256.749,140.86,258.229,140.5,261.179,140.41z"/>
		</g>
		<g>
		</g>
	</g>
</g>
<g>
	<rect y="413" style="fill-rule:evenodd;clip-rule:evenodd;fill:none;" width="518.001" height="106"/>
	<path style="fill:#FFFFFF;" d="M169.95,445.886c-1.286,1.677-3.068,2.946-5.347,3.809c-2.279,0.862-4.867,1.294-7.764,1.294
		c-2.979,0-5.615-0.675-7.91-2.026c-2.295-1.351-4.065-3.284-5.31-5.798c-1.245-2.516-1.892-5.448-1.941-8.802v-2.783
		c0-5.371,1.286-9.566,3.857-12.585c2.571-3.02,6.16-4.529,10.767-4.529c3.955,0,7.096,0.98,9.424,2.941
		c2.327,1.962,3.727,4.782,4.199,8.46h-6.055c-0.684-4.28-3.166-6.421-7.446-6.421c-2.767,0-4.871,0.996-6.311,2.988
		s-2.185,4.915-2.234,8.769v2.731c0,3.838,0.81,6.818,2.429,8.94c1.619,2.122,3.87,3.183,6.75,3.183
		c3.157,0,5.403-0.716,6.738-2.148v-6.958h-7.324v-4.688h13.477V445.886z"/>
	<path style="fill:#FFFFFF;" d="M187.797,450.988c-3.76,0-6.808-1.184-9.143-3.553c-2.336-2.367-3.503-5.521-3.503-9.46v-0.732
		c0-2.637,0.508-4.993,1.526-7.067c1.017-2.076,2.445-3.69,4.285-4.847c1.839-1.155,3.89-1.733,6.152-1.733
		c3.597,0,6.376,1.147,8.337,3.442c1.961,2.295,2.942,5.542,2.942,9.741v2.393h-17.261c0.179,2.182,0.907,3.906,2.185,5.176
		c1.277,1.27,2.885,1.904,4.822,1.904c2.718,0,4.932-1.099,6.641-3.296l3.198,3.052c-1.058,1.579-2.47,2.804-4.236,3.674
		C191.976,450.553,189.994,450.988,187.797,450.988z M187.089,428.356c-1.628,0-2.942,0.57-3.943,1.709
		c-1.001,1.14-1.64,2.727-1.917,4.761h11.304v-0.439c-0.13-1.985-0.659-3.487-1.587-4.504
		C190.019,428.865,188.732,428.356,187.089,428.356z"/>
	<path style="fill:#FFFFFF;" d="M208.842,426.965c1.937-2.246,4.386-3.369,7.349-3.369c5.631,0,8.488,3.215,8.569,9.644V450.5
		h-5.933v-17.041c0-1.822-0.395-3.113-1.184-3.869c-0.79-0.758-1.949-1.136-3.479-1.136c-2.376,0-4.15,1.059-5.322,3.174V450.5
		h-5.933V413h5.933V426.965z"/>
	<path style="fill:#FFFFFF;" d="M238.188,417.663v6.421h4.663v4.395h-4.663v14.746c0,1.01,0.199,1.737,0.598,2.186
		c0.398,0.447,1.111,0.671,2.136,0.671c0.684,0,1.375-0.081,2.075-0.244v4.59c-1.351,0.374-2.653,0.562-3.906,0.562
		c-4.558,0-6.836-2.515-6.836-7.544v-14.966h-4.346v-4.395h4.346v-6.421H238.188z"/>
	<path style="fill:#FFFFFF;" d="M265.336,424.084l0.171,3.052c1.953-2.359,4.517-3.54,7.69-3.54c5.501,0,8.301,3.149,8.398,9.448
		V450.5h-5.933v-17.114c0-1.676-0.362-2.917-1.086-3.724c-0.725-0.805-1.909-1.208-3.552-1.208c-2.393,0-4.175,1.083-5.347,3.247
		V450.5h-5.933v-26.416H265.336z"/>
	<path style="fill:#FFFFFF;" d="M287.65,417.224c0-0.911,0.289-1.668,0.867-2.271c0.578-0.602,1.404-0.903,2.478-0.903
		s1.904,0.302,2.49,0.903c0.586,0.603,0.879,1.359,0.879,2.271c0,0.896-0.293,1.64-0.879,2.233c-0.586,0.595-1.416,0.892-2.49,0.892
		s-1.9-0.297-2.478-0.892C287.939,418.863,287.65,418.119,287.65,417.224z M293.949,450.5h-5.933v-26.416h5.933V450.5z"/>
	<path style="fill:#FFFFFF;" d="M311.259,446.252c1.481,0,2.71-0.431,3.687-1.294c0.977-0.862,1.497-1.929,1.563-3.198h5.591
		c-0.065,1.645-0.578,3.178-1.538,4.602c-0.96,1.425-2.263,2.552-3.906,3.382c-1.644,0.83-3.418,1.245-5.322,1.245
		c-3.695,0-6.625-1.196-8.789-3.589c-2.165-2.393-3.247-5.696-3.247-9.912v-0.61c0-4.02,1.074-7.238,3.223-9.656
		c2.148-2.416,5.078-3.625,8.789-3.625c3.141,0,5.701,0.916,7.678,2.746c1.978,1.832,3.015,4.236,3.113,7.215h-5.591
		c-0.065-1.514-0.582-2.759-1.55-3.735c-0.969-0.977-2.202-1.465-3.699-1.465c-1.921,0-3.402,0.696-4.443,2.087
		c-1.042,1.393-1.571,3.504-1.587,6.336v0.952c0,2.865,0.517,5.001,1.55,6.409C307.812,445.548,309.306,446.252,311.259,446.252z"/>
	<path style="fill:#FFFFFF;" d="M332.426,426.965c1.937-2.246,4.386-3.369,7.349-3.369c5.631,0,8.487,3.215,8.569,9.644V450.5
		h-5.933v-17.041c0-1.822-0.395-3.113-1.185-3.869c-0.789-0.758-1.949-1.136-3.479-1.136c-2.377,0-4.15,1.059-5.322,3.174V450.5
		h-5.933V413h5.933V426.965z"/>
	<path style="fill:#FFFFFF;" d="M361.771,417.663v6.421h4.663v4.395h-4.663v14.746c0,1.01,0.199,1.737,0.599,2.186
		c0.398,0.447,1.11,0.671,2.136,0.671c0.684,0,1.375-0.081,2.075-0.244v4.59c-1.352,0.374-2.653,0.562-3.906,0.562
		c-4.558,0-6.836-2.515-6.836-7.544v-14.966h-4.346v-4.395h4.346v-6.421H361.771z"/>
	<path style="fill:#FFFFFF;" d="M371.806,458.508l-3.198-1.904c0.943-1.481,1.591-2.771,1.941-3.869
		c0.35-1.1,0.532-2.219,0.549-3.357v-4.614h5.347l-0.024,4.272c-0.017,1.725-0.451,3.455-1.307,5.188
		C374.26,455.957,373.156,457.385,371.806,458.508z"/>
	<path style="fill:#FFFFFF;" d="M80.29,489.097c0-4.102,0.964-7.377,2.893-9.827c1.929-2.449,4.488-3.674,7.678-3.674
		c3.011,0,5.379,1.05,7.104,3.149l0.269-2.661h5.347v25.61c0,3.467-1.079,6.201-3.235,8.203c-2.157,2.002-5.066,3.003-8.728,3.003
		c-1.937,0-3.829-0.402-5.676-1.209c-1.848-0.805-3.251-1.859-4.211-3.161l2.808-3.564c1.823,2.164,4.069,3.247,6.738,3.247
		c1.969,0,3.523-0.533,4.663-1.6c1.139-1.065,1.709-2.633,1.709-4.699v-1.782c-1.709,1.904-3.988,2.856-6.836,2.856
		c-3.093,0-5.62-1.229-7.581-3.687C81.27,496.845,80.29,493.442,80.29,489.097z M86.198,489.609c0,2.653,0.541,4.74,1.624,6.262
		c1.082,1.522,2.583,2.283,4.504,2.283c2.393,0,4.167-1.025,5.322-3.076v-11.621c-1.123-2.002-2.881-3.003-5.273-3.003
		c-1.953,0-3.471,0.773-4.553,2.319C86.739,484.32,86.198,486.599,86.198,489.609z"/>
	<path style="fill:#FFFFFF;" d="M109.684,469.224c0-0.911,0.289-1.668,0.867-2.271c0.578-0.602,1.404-0.903,2.478-0.903
		s1.904,0.302,2.49,0.903c0.586,0.603,0.879,1.359,0.879,2.271c0,0.896-0.293,1.64-0.879,2.233c-0.586,0.595-1.416,0.892-2.49,0.892
		s-1.9-0.297-2.478-0.892C109.973,470.863,109.684,470.119,109.684,469.224z M115.983,502.5h-5.933v-26.416h5.933V502.5z"/>
	<path style="fill:#FFFFFF;" d="M145.622,489.561c0,4.102-0.916,7.365-2.747,9.79c-1.831,2.426-4.35,3.638-7.556,3.638
		c-3.093,0-5.501-1.114-7.227-3.345l-0.293,2.856h-5.371V465h5.933v13.623c1.709-2.018,4.012-3.027,6.909-3.027
		c3.223,0,5.753,1.196,7.593,3.589c1.839,2.393,2.759,5.737,2.759,10.034V489.561z M139.689,489.048
		c0-2.864-0.505-5.013-1.514-6.445c-1.009-1.432-2.474-2.148-4.395-2.148c-2.572,0-4.378,1.123-5.42,3.369v10.889
		c1.058,2.295,2.881,3.442,5.469,3.442c1.855,0,3.288-0.691,4.297-2.075c1.009-1.383,1.53-3.475,1.563-6.274V489.048z"/>
	<path style="fill:#FFFFFF;" d="M158.024,469.663v6.421h4.663v4.395h-4.663v14.746c0,1.01,0.199,1.737,0.598,2.186
		c0.398,0.447,1.111,0.671,2.136,0.671c0.684,0,1.375-0.081,2.075-0.244v4.59c-1.351,0.374-2.653,0.562-3.906,0.562
		c-4.558,0-6.836-2.515-6.836-7.544v-14.966h-4.346v-4.395h4.346v-6.421H158.024z"/>
	<path style="fill:#FFFFFF;" d="M170.695,468.052l-0.635,9.546h-3.882V465h4.517V468.052z"/>
	<path style="fill:#FFFFFF;" d="M188.224,495.322c0-1.058-0.436-1.863-1.306-2.417c-0.871-0.553-2.315-1.041-4.333-1.465
		c-2.019-0.423-3.703-0.96-5.054-1.611c-2.962-1.432-4.443-3.507-4.443-6.226c0-2.278,0.96-4.183,2.881-5.713
		c1.92-1.529,4.362-2.295,7.324-2.295c3.157,0,5.708,0.781,7.654,2.344c1.945,1.563,2.917,3.589,2.917,6.079h-5.933
		c0-1.139-0.423-2.087-1.27-2.845c-0.847-0.756-1.97-1.135-3.369-1.135c-1.302,0-2.364,0.302-3.186,0.903
		c-0.822,0.603-1.233,1.408-1.233,2.417c0,0.912,0.382,1.62,1.147,2.124c0.765,0.505,2.311,1.013,4.639,1.526
		c2.327,0.512,4.154,1.123,5.481,1.83c1.326,0.709,2.311,1.56,2.954,2.552c0.643,0.993,0.964,2.197,0.964,3.613
		c0,2.377-0.985,4.301-2.954,5.774c-1.97,1.473-4.549,2.209-7.739,2.209c-2.165,0-4.094-0.391-5.786-1.172
		c-1.693-0.781-3.011-1.855-3.955-3.223c-0.944-1.367-1.416-2.84-1.416-4.419h5.762c0.081,1.4,0.61,2.478,1.587,3.235
		c0.977,0.756,2.271,1.135,3.882,1.135c1.563,0,2.75-0.297,3.564-0.891C187.817,497.06,188.224,496.283,188.224,495.322z"/>
	<path style="fill:#FFFFFF;" d="M227.458,502.5c-0.261-0.504-0.488-1.326-0.684-2.466c-1.888,1.97-4.199,2.954-6.934,2.954
		c-2.653,0-4.818-0.757-6.494-2.271c-1.677-1.514-2.515-3.385-2.515-5.615c0-2.815,1.045-4.977,3.137-6.481
		c2.091-1.506,5.082-2.259,8.972-2.259h3.638v-1.733c0-1.367-0.383-2.462-1.147-3.283c-0.765-0.822-1.929-1.233-3.491-1.233
		c-1.351,0-2.458,0.338-3.32,1.013c-0.863,0.676-1.294,1.535-1.294,2.576h-5.933c0-1.448,0.48-2.804,1.44-4.064
		c0.96-1.262,2.266-2.25,3.918-2.967c1.652-0.716,3.495-1.074,5.53-1.074c3.092,0,5.558,0.777,7.397,2.332
		c1.839,1.554,2.783,3.739,2.832,6.555v11.914c0,2.377,0.333,4.272,1.001,5.688v0.415H227.458z M220.939,498.228
		c1.172,0,2.274-0.284,3.308-0.854c1.033-0.569,1.811-1.334,2.332-2.295v-4.98h-3.198c-2.197,0-3.85,0.383-4.956,1.147
		c-1.107,0.766-1.66,1.848-1.66,3.247c0,1.14,0.378,2.047,1.135,2.723C218.656,497.89,219.669,498.228,220.939,498.228z"/>
	<path style="fill:#FFFFFF;" d="M245.036,502.5h-5.933V465h5.933V502.5z"/>
	<path style="fill:#FFFFFF;" d="M266.3,495.322c0-1.058-0.436-1.863-1.306-2.417c-0.871-0.553-2.315-1.041-4.333-1.465
		c-2.019-0.423-3.703-0.96-5.054-1.611c-2.962-1.432-4.443-3.507-4.443-6.226c0-2.278,0.96-4.183,2.881-5.713
		c1.92-1.529,4.362-2.295,7.324-2.295c3.157,0,5.708,0.781,7.654,2.344c1.945,1.563,2.917,3.589,2.917,6.079h-5.933
		c0-1.139-0.423-2.087-1.27-2.845c-0.847-0.756-1.97-1.135-3.369-1.135c-1.302,0-2.364,0.302-3.186,0.903
		c-0.822,0.603-1.233,1.408-1.233,2.417c0,0.912,0.382,1.62,1.147,2.124c0.765,0.505,2.311,1.013,4.639,1.526
		c2.327,0.512,4.154,1.123,5.481,1.83c1.326,0.709,2.311,1.56,2.954,2.552c0.643,0.993,0.964,2.197,0.964,3.613
		c0,2.377-0.985,4.301-2.954,5.774c-1.97,1.473-4.549,2.209-7.739,2.209c-2.165,0-4.094-0.391-5.786-1.172
		c-1.693-0.781-3.011-1.855-3.955-3.223c-0.944-1.367-1.416-2.84-1.416-4.419h5.762c0.081,1.4,0.61,2.478,1.587,3.235
		c0.977,0.756,2.271,1.135,3.882,1.135c1.563,0,2.75-0.297,3.564-0.891C265.893,497.06,266.3,496.283,266.3,495.322z"/>
	<path style="fill:#FFFFFF;" d="M276.188,489.048c0-2.588,0.513-4.919,1.538-6.995c1.025-2.074,2.466-3.67,4.321-4.785
		c1.855-1.114,3.987-1.672,6.396-1.672c3.564,0,6.458,1.147,8.679,3.442s3.422,5.339,3.601,9.131l0.024,1.392
		c0,2.604-0.5,4.932-1.501,6.982s-2.434,3.638-4.297,4.761c-1.864,1.123-4.016,1.685-6.458,1.685c-3.728,0-6.71-1.241-8.948-3.723
		c-2.238-2.482-3.357-5.79-3.357-9.925V489.048z M282.121,489.561c0,2.719,0.562,4.846,1.685,6.385
		c1.123,1.537,2.686,2.307,4.688,2.307s3.56-0.781,4.675-2.344c1.115-1.563,1.672-3.849,1.672-6.86c0-2.669-0.574-4.785-1.721-6.348
		s-2.706-2.344-4.675-2.344c-1.937,0-3.475,0.769-4.614,2.308C282.69,484.201,282.121,486.501,282.121,489.561z"/>
	<path style="fill:#FFFFFF;" d="M323.722,476.084l0.172,3.052c1.953-2.359,4.516-3.54,7.69-3.54c5.5,0,8.301,3.149,8.398,9.448
		V502.5h-5.934v-17.114c0-1.676-0.361-2.917-1.086-3.724c-0.725-0.805-1.908-1.208-3.552-1.208c-2.393,0-4.176,1.083-5.348,3.247
		V502.5h-5.932v-26.416H323.722z"/>
	<path style="fill:#FFFFFF;" d="M346.036,469.224c0-0.911,0.289-1.668,0.866-2.271c0.578-0.602,1.404-0.903,2.479-0.903
		s1.904,0.302,2.49,0.903c0.586,0.603,0.879,1.359,0.879,2.271c0,0.896-0.293,1.64-0.879,2.233c-0.586,0.595-1.416,0.892-2.49,0.892
		s-1.9-0.297-2.479-0.892C346.325,470.863,346.036,470.119,346.036,469.224z M352.335,502.5h-5.933v-26.416h5.933V502.5z"/>
	<path style="fill:#FFFFFF;" d="M369.645,498.252c1.48,0,2.71-0.431,3.687-1.294c0.977-0.862,1.497-1.929,1.563-3.198h5.591
		c-0.065,1.645-0.578,3.178-1.538,4.602c-0.961,1.425-2.263,2.552-3.906,3.382c-1.645,0.83-3.418,1.245-5.322,1.245
		c-3.695,0-6.625-1.196-8.789-3.589c-2.165-2.393-3.247-5.696-3.247-9.912v-0.61c0-4.02,1.074-7.238,3.223-9.656
		c2.148-2.416,5.078-3.625,8.789-3.625c3.141,0,5.7,0.916,7.679,2.746c1.977,1.832,3.015,4.236,3.112,7.215h-5.591
		c-0.065-1.514-0.582-2.759-1.551-3.735c-0.968-0.977-2.201-1.465-3.698-1.465c-1.921,0-3.402,0.696-4.443,2.087
		c-1.042,1.393-1.571,3.504-1.587,6.336v0.952c0,2.865,0.517,5.001,1.551,6.409C366.198,497.548,367.691,498.252,369.645,498.252z"
		/>
	<path style="fill:#FFFFFF;" d="M390.812,478.965c1.937-2.246,4.386-3.369,7.349-3.369c5.631,0,8.487,3.215,8.569,9.644V502.5
		h-5.933v-17.041c0-1.822-0.395-3.113-1.185-3.869c-0.789-0.758-1.949-1.136-3.479-1.136c-2.377,0-4.15,1.059-5.322,3.174V502.5
		h-5.933V465h5.933V478.965z"/>
	<path style="fill:#FFFFFF;" d="M420.157,469.663v6.421h4.663v4.395h-4.663v14.746c0,1.01,0.199,1.737,0.599,2.186
		c0.398,0.447,1.11,0.671,2.136,0.671c0.684,0,1.375-0.081,2.075-0.244v4.59c-1.352,0.374-2.653,0.562-3.906,0.562
		c-4.558,0-6.836-2.515-6.836-7.544v-14.966h-4.346v-4.395h4.346v-6.421H420.157z"/>
	<path style="fill:#FFFFFF;" d="M429.801,499.705c0-0.925,0.301-1.69,0.903-2.299c0.602-0.608,1.424-0.912,2.466-0.912
		c1.041,0,1.863,0.304,2.466,0.912c0.602,0.608,0.903,1.374,0.903,2.299c0,0.892-0.293,1.637-0.879,2.237
		c-0.586,0.6-1.416,0.899-2.49,0.899s-1.904-0.3-2.49-0.899C430.094,501.342,429.801,500.597,429.801,499.705z M435.636,492.051
		h-5.103l-0.562-25.098h6.25L435.636,492.051z"/>
</g>
</svg>
