<?xml version="1.0" encoding="utf-8"?>
<!-- Generator: Adobe Illustrator 16.0.3, SVG Export Plug-In . SVG Version: 6.00 Build 0)  -->
<!DOCTYPE svg PUBLIC "-//W3C//DTD SVG 1.1//EN" "http://www.w3.org/Graphics/SVG/1.1/DTD/svg11.dtd" [
	<!ENTITY ns_extend "http://ns.adobe.com/Extensibility/1.0/">
	<!ENTITY ns_ai "http://ns.adobe.com/AdobeIllustrator/10.0/">
	<!ENTITY ns_graphs "http://ns.adobe.com/Graphs/1.0/">
	<!ENTITY ns_vars "http://ns.adobe.com/Variables/1.0/">
	<!ENTITY ns_imrep "http://ns.adobe.com/ImageReplacement/1.0/">
	<!ENTITY ns_sfw "http://ns.adobe.com/SaveForWeb/1.0/">
	<!ENTITY ns_custom "http://ns.adobe.com/GenericCustomNamespace/1.0/">
	<!ENTITY ns_adobe_xpath "http://ns.adobe.com/XPath/1.0/">
]>
<svg version="1.1" id="Ebene_1" xmlns:x="&ns_extend;" xmlns:i="&ns_ai;" xmlns:graph="&ns_graphs;"
	 xmlns="http://www.w3.org/2000/svg" xmlns:xlink="http://www.w3.org/1999/xlink" x="0px" y="0px" width="300px" height="300px"
	 viewBox="0 0 300 300" enable-background="new 0 0 300 300" xml:space="preserve">
<metadata>
	<sfw  xmlns="&ns_sfw;">
		<slices></slices>
		<sliceSourceBounds  height="309.082" width="299.996" x="-50.499" y="-57.082" bottomLeftOrigin="true"></sliceSourceBounds>
	</sfw>
</metadata>
<path fill="#6F699B" d="M228.001,298.5h-156c-39.604,0-72-16.9-72-56.5V58.5c0-39.6,32.396-60,72-60h156
	c39.601,0,71.996,20.9,71.996,60.5v183.5C299.997,282.1,267.6,298.5,228.001,298.5z"/>
<g>
	<path opacity="0.4" fill="#FFFFFF" enable-background="new    " d="M149.567,23.999c-46.208,0-83.667,37.459-83.667,83.667
		c0,20.148,11.932,47.423,11.932,47.423l-25.5,35.999l46.045-17.268c14.148,10.968,31.899,17.513,51.189,17.513
		c46.208,0,83.667-37.459,83.667-83.667S195.775,23.999,149.567,23.999z"/>
	<g>
		<path fill="#FFFFFF" d="M160.126,194.63c-8.116,0-14.423-4.901-16.873-13.112c-3.316-10.504,0.368-24.285,13.854-30.211
			c3.431-1.535,7.18-2.354,10.822-2.354c0.604,0,1.208,0.021,1.805,0.065V56.779l77.933-19.529v114.398
			c0.2,10.146-6.975,20.414-17.438,24.899c-3.521,1.521-6.95,2.286-10.188,2.286c-8.117,0-14.43-4.898-16.874-13.111
			c-3.316-10.507,0.368-24.288,13.854-30.216c3.434-1.535,7.183-2.353,10.824-2.353c0.604,0,1.206,0.021,1.803,0.065v-51.82
			l-41.894,11.263v74.777c0.201,10.147-6.97,20.416-17.438,24.898C166.793,193.859,163.364,194.63,160.126,194.63z"/>
	</g>
</g>
<rect x="0.758" y="228.086" fill="none" width="298.482" height="79.496"/>
<g enable-background="new    ">
	<path fill="#FFFFFF" d="M23.93,230.195c2.016-0.336,4.656-0.624,8.017-0.624c4.128,0,7.152,0.96,9.073,2.688
		c1.776,1.536,2.832,3.888,2.832,6.769c0,2.928-0.864,5.232-2.496,6.912c-2.208,2.353-5.809,3.553-9.889,3.553
		c-1.248,0-2.4-0.048-3.36-0.288v12.961H23.93V230.195z M28.106,245.797c0.912,0.24,2.064,0.336,3.456,0.336
		c5.041,0,8.113-2.448,8.113-6.913c0-4.272-3.024-6.336-7.632-6.336c-1.824,0-3.216,0.144-3.937,0.336V245.797z"/>
	<path fill="#FFFFFF" d="M60.94,262.166l-0.336-2.929h-0.144c-1.296,1.824-3.792,3.457-7.104,3.457
		c-4.704,0-7.104-3.313-7.104-6.673c0-5.616,4.992-8.688,13.969-8.641v-0.48c0-1.92-0.528-5.376-5.281-5.376
		c-2.16,0-4.416,0.672-6.048,1.728l-0.96-2.784c1.92-1.248,4.705-2.063,7.633-2.063c7.104,0,8.833,4.848,8.833,9.505v8.688
		c0,2.016,0.096,3.984,0.384,5.568H60.94z M60.316,250.309c-4.608-0.096-9.841,0.721-9.841,5.232c0,2.736,1.824,4.033,3.984,4.033
		c3.024,0,4.945-1.921,5.617-3.889c0.144-0.432,0.24-0.912,0.24-1.344V250.309z"/>
	<path fill="#FFFFFF" d="M71.21,246.181c0-2.736-0.048-5.089-0.192-7.249h3.696l0.144,4.561h0.192c1.056-3.12,3.6-5.088,6.433-5.088
		c0.48,0,0.816,0.048,1.2,0.144v3.984c-0.432-0.096-0.864-0.144-1.44-0.144c-2.976,0-5.088,2.256-5.665,5.424
		c-0.096,0.576-0.192,1.248-0.192,1.969v12.385H71.21V246.181z"/>
	<path fill="#FFFFFF" d="M107.452,250.357c0,8.593-5.953,12.337-11.569,12.337c-6.289,0-11.137-4.608-11.137-11.953
		c0-7.776,5.088-12.337,11.521-12.337C102.94,238.404,107.452,243.252,107.452,250.357z M89.019,250.597
		c0,5.089,2.928,8.929,7.057,8.929c4.032,0,7.057-3.792,7.057-9.024c0-3.937-1.968-8.929-6.961-8.929
		C91.179,241.572,89.019,246.181,89.019,250.597z"/>
	<path fill="#FFFFFF" d="M112.778,245.221c0-2.4-0.048-4.368-0.192-6.289h3.744l0.24,3.841h0.096
		c1.152-2.208,3.841-4.368,7.681-4.368c3.217,0,8.209,1.92,8.209,9.889v13.873h-4.225v-13.394c0-3.744-1.392-6.864-5.376-6.864
		c-2.785,0-4.945,1.968-5.665,4.32c-0.192,0.528-0.288,1.248-0.288,1.969v13.969h-4.224V245.221z"/>
	<path fill="#FFFFFF" d="M160.444,250.357c0,8.593-5.953,12.337-11.569,12.337c-6.288,0-11.137-4.608-11.137-11.953
		c0-7.776,5.089-12.337,11.521-12.337C155.931,238.404,160.444,243.252,160.444,250.357z M142.01,250.597
		c0,5.089,2.928,8.929,7.057,8.929c4.032,0,7.057-3.792,7.057-9.024c0-3.937-1.969-8.929-6.961-8.929S142.01,246.181,142.01,250.597
		z"/>
	<path fill="#FFFFFF" d="M165.769,245.221c0-2.4-0.048-4.368-0.191-6.289h3.696l0.191,3.745h0.145
		c1.296-2.209,3.456-4.272,7.297-4.272c3.168,0,5.568,1.92,6.576,4.656h0.096c0.721-1.296,1.633-2.305,2.593-3.024
		c1.392-1.056,2.928-1.632,5.137-1.632c3.072,0,7.632,2.016,7.632,10.08v13.682h-4.128v-13.153c0-4.464-1.632-7.152-5.04-7.152
		c-2.4,0-4.272,1.776-4.993,3.84c-0.191,0.576-0.336,1.345-0.336,2.112v14.354h-4.128v-13.921c0-3.696-1.633-6.385-4.849-6.385
		c-2.641,0-4.561,2.112-5.232,4.225c-0.24,0.624-0.336,1.344-0.336,2.063v14.018h-4.129V245.221z"/>
	<path fill="#FFFFFF" d="M218.666,262.166l-0.336-2.929h-0.144c-1.296,1.824-3.793,3.457-7.104,3.457
		c-4.705,0-7.105-3.313-7.105-6.673c0-5.616,4.993-8.688,13.97-8.641v-0.48c0-1.92-0.528-5.376-5.28-5.376
		c-2.16,0-4.417,0.672-6.049,1.728l-0.96-2.784c1.92-1.248,4.704-2.063,7.633-2.063c7.104,0,8.833,4.848,8.833,9.505v8.688
		c0,2.016,0.096,3.984,0.384,5.568H218.666z M218.042,250.309c-4.608-0.096-9.841,0.721-9.841,5.232
		c0,2.736,1.824,4.033,3.984,4.033c3.024,0,4.944-1.921,5.616-3.889c0.145-0.432,0.24-0.912,0.24-1.344V250.309z"/>
	<path fill="#FFFFFF" d="M228.362,257.846c1.248,0.816,3.456,1.68,5.568,1.68c3.072,0,4.512-1.536,4.512-3.456
		c0-2.016-1.2-3.12-4.32-4.272c-4.176-1.488-6.145-3.792-6.145-6.576c0-3.744,3.024-6.816,8.017-6.816
		c2.353,0,4.417,0.672,5.713,1.439l-1.056,3.072c-0.912-0.576-2.593-1.344-4.753-1.344c-2.496,0-3.889,1.44-3.889,3.168
		c0,1.921,1.393,2.784,4.417,3.937c4.032,1.536,6.097,3.553,6.097,7.009c0,4.08-3.169,6.961-8.689,6.961
		c-2.544,0-4.896-0.624-6.528-1.585L228.362,257.846z"/>
	<path fill="#FFFFFF" d="M252.65,232.403c0.048,1.44-1.009,2.593-2.688,2.593c-1.488,0-2.544-1.152-2.544-2.593
		c0-1.488,1.104-2.64,2.64-2.64C251.641,229.764,252.65,230.915,252.65,232.403z M247.945,262.166v-23.234h4.225v23.234H247.945z"/>
	<path fill="#FFFFFF" d="M261.529,251.317c0.096,5.712,3.744,8.064,7.969,8.064c3.024,0,4.849-0.528,6.433-1.2l0.72,3.024
		c-1.488,0.672-4.032,1.44-7.729,1.44c-7.152,0-11.425-4.705-11.425-11.714c0-7.008,4.128-12.528,10.896-12.528
		c7.585,0,9.602,6.672,9.602,10.944c0,0.864-0.097,1.536-0.145,1.969H261.529z M273.913,248.293
		c0.049-2.688-1.104-6.865-5.856-6.865c-4.272,0-6.145,3.937-6.48,6.865H273.913z"/>
</g>
</svg>
