<?xml version="1.0" encoding="UTF-8" standalone="no"?>
<svg
   xmlns:dc="http://purl.org/dc/elements/1.1/"
   xmlns:cc="http://creativecommons.org/ns#"
   xmlns:rdf="http://www.w3.org/1999/02/22-rdf-syntax-ns#"
   xmlns:svg="http://www.w3.org/2000/svg"
   xmlns="http://www.w3.org/2000/svg"
   viewBox="0 0 375 375"
   height="375"
   width="375"
   xml:space="preserve"
   version="1.1"
   id="svg2"><metadata
     id="metadata8"><rdf:RDF><cc:Work
         rdf:about=""><dc:format>image/svg+xml</dc:format><dc:type
           rdf:resource="http://purl.org/dc/dcmitype/StillImage" /></cc:Work></rdf:RDF></metadata><defs
     id="defs6" /><g
     transform="matrix(1.25,0,0,-1.25,0,375)"
     id="g10"><g
       transform="scale(0.1,0.1)"
       id="g12"><path
         id="path14"
         style="fill:#aebcc4;fill-opacity:1;fill-rule:nonzero;stroke:none"
         d="m 3000,529.855 c 0,-67.632 0,-529.85109375 -715,-529.85109375 l -1625,0 C 35,0.00390625 0,472.223 0,539.855 L 0,2399.86 c 0,545 592.352,600 660,600 l 1615,0.28 c 67.65,0 725,-0.28 725,-600.28" /><path
         id="path16"
         style="fill:#080828;fill-opacity:1;fill-rule:nonzero;stroke:none"
         d="m 753.672,606 59.031,0 0,120.922 c 0,6.719 0.953,12.969 1.906,18.234 5.282,26.407 24.485,44.641 52.797,44.641 7.188,0 12.469,-0.969 17.266,-1.922 l 0,55.656 c -4.797,0.969 -8.156,1.453 -13.906,1.453 -24.953,0 -52.313,-16.796 -63.828,-49.906 l -1.922,0 -1.922,44.625 -51.344,0 c 1.438,-21.125 1.922,-43.672 1.922,-75.344 l 0,-158.359" /><path
         id="path18"
         style="fill:#080828;fill-opacity:1;fill-rule:nonzero;stroke:none"
         d="m 1118.86,706.297 c 0.95,5.281 1.92,13.906 1.92,24.953 0,51.344 -24.95,113.734 -100.78,113.734 -74.859,0 -114.203,-60.953 -114.203,-125.734 0,-71.5 44.625,-118.047 120.453,-118.047 33.58,0 61.42,6.235 81.58,14.391 l -8.64,40.797 c -17.75,-6.719 -37.44,-10.563 -64.78,-10.563 -37.441,0 -70.551,18.235 -71.988,60.469 l 156.438,0 z m -156.438,41.266 c 2.391,24 17.75,57.109 54.218,57.109 39.36,0 48.95,-35.516 48.47,-57.109 l -102.688,0" /><path
         id="path20"
         style="fill:#080828;fill-opacity:1;fill-rule:nonzero;stroke:none"
         d="m 1352.42,606 c -2.39,14.391 -3.36,35.031 -3.36,56.141 l 0,84.468 c 0,50.86 -21.59,98.375 -96.45,98.375 -36.95,0 -67.19,-10.078 -84.45,-20.64 l 11.51,-38.391 c 15.83,10.078 39.83,17.281 62.86,17.281 41.27,0 47.52,-25.437 47.52,-40.796 l 0,-3.844 c -86.39,0.484 -138.69,-29.266 -138.69,-88.297 0,-35.5 26.39,-69.578 73.42,-69.578 30.24,0 54.7,12.953 69.1,31.187 l 1.43,0 3.85,-25.906 53.26,0 z m -60.94,82.063 c 0,-3.844 -0.48,-8.641 -1.92,-12.954 -5.28,-16.796 -22.56,-32.156 -46.08,-32.156 -18.7,0 -33.57,10.547 -33.57,33.594 0,35.5 39.82,44.625 81.57,43.656 l 0,-32.14" /><path
         id="path22"
         style="fill:#080828;fill-opacity:1;fill-rule:nonzero;stroke:none"
         d="m 1411.67,606 59.5,0 0,340.719 -59.5,0 0,-340.719 z" /><path
         id="path24"
         style="fill:#080828;fill-opacity:1;fill-rule:nonzero;stroke:none"
         d="m 1594.17,606 0,233.703 -59.5,0 0,-233.703 59.5,0 z m -29.75,331.109 c -19.67,0 -33.11,-13.906 -33.11,-32.14 0,-17.766 12.96,-31.672 32.63,-31.672 20.64,0 33.59,13.906 33.59,31.672 -0.47,18.234 -12.95,32.14 -33.11,32.14" /><path
         id="path26"
         style="fill:#080828;fill-opacity:1;fill-rule:nonzero;stroke:none"
         d="m 1643.28,617.516 c 17.27,-9.594 42.7,-16.313 71.02,-16.313 61.9,0 95.01,30.703 95.01,72.938 -0.48,34.547 -20.15,56.14 -62.39,71.5 -29.75,10.562 -40.78,17.765 -40.78,32.64 0,14.391 11.52,24.469 32.63,24.469 20.64,0 39.36,-7.672 49.43,-13.437 l 11.52,41.75 c -13.44,7.203 -36,13.921 -61.91,13.921 -54.23,0 -88.29,-32.156 -88.29,-73.421 -0.49,-27.36 18.71,-52.313 64.29,-68.141 28.8,-10.078 38.39,-18.25 38.39,-34.078 0,-15.36 -11.51,-25.906 -37.42,-25.906 -21.12,0 -46.55,8.625 -59.98,16.781 l -11.52,-42.703" /><path
         id="path28"
         style="fill:#080828;fill-opacity:1;fill-rule:nonzero;stroke:none"
         d="m 1867.75,892.484 0,-52.781 -33.59,0 0,-44.156 33.59,0 0,-109.891 c 0,-30.703 5.75,-51.828 18.23,-65.265 11.04,-11.985 29.27,-19.188 50.86,-19.188 18.72,0 34.08,2.391 42.72,5.75 l -0.97,45.11 c -5.26,-1.438 -12.95,-2.875 -23.03,-2.875 -22.54,0 -30.23,14.875 -30.23,43.187 l 0,103.172 56.15,0 0,44.156 -56.15,0 0,66.703 -57.58,-13.922" /><path
         id="path30"
         style="fill:#080828;fill-opacity:1;fill-rule:nonzero;stroke:none"
         d="m 2086.17,606 0,233.703 -59.5,0 0,-233.703 59.5,0 z m -29.75,331.109 c -19.67,0 -33.11,-13.906 -33.11,-32.14 0,-17.766 12.96,-31.672 32.63,-31.672 20.64,0 33.59,13.906 33.59,31.672 -0.47,18.234 -12.95,32.14 -33.11,32.14" /><path
         id="path32"
         style="fill:#080828;fill-opacity:1;fill-rule:nonzero;stroke:none"
         d="m 2313.31,656.859 c -11.51,-4.796 -25.92,-9.109 -46.54,-9.109 -40.32,0 -71.5,27.359 -71.5,75.344 -0.49,42.703 26.39,75.812 71.5,75.812 21.11,0 35.03,-4.797 44.62,-9.109 l 10.56,44.141 c -13.43,6.234 -35.51,11.046 -57.11,11.046 -82.06,0 -130.04,-54.718 -130.04,-124.781 0,-72.453 47.5,-119 120.45,-119 29.27,0 53.73,6.235 66.22,12 l -8.16,43.656" /><path
         id="path34"
         style="fill:#080828;fill-opacity:1;fill-rule:nonzero;stroke:none"
         d="m 816.281,137.516 c 17.266,-9.594 42.703,-16.313 71.016,-16.313 61.906,0 95.016,30.703 95.016,72.938 -0.485,34.547 -20.157,56.14 -62.391,71.5 -29.75,10.562 -40.781,17.765 -40.781,32.64 0,14.391 11.515,24.469 32.625,24.469 20.64,0 39.359,-7.672 49.437,-13.437 l 11.516,41.75 c -13.438,7.203 -36,13.921 -61.906,13.921 -54.235,0 -88.297,-32.156 -88.297,-73.421 -0.485,-27.36 18.718,-52.313 64.297,-68.141 28.796,-10.078 38.39,-18.25 38.39,-34.078 0,-15.36 -11.515,-25.906 -37.422,-25.906 -21.125,0 -46.547,8.625 -59.984,16.781 l -11.516,-42.703" /><path
         id="path36"
         style="fill:#080828;fill-opacity:1;fill-rule:nonzero;stroke:none"
         d="m 1228.86,226.297 c 0.95,5.281 1.92,13.906 1.92,24.953 0,51.344 -24.95,113.734 -100.78,113.734 -74.86,0 -114.2,-60.953 -114.2,-125.734 0,-71.5 44.62,-118.047 120.45,-118.047 33.58,0 61.42,6.235 81.58,14.391 l -8.64,40.797 c -17.75,-6.719 -37.44,-10.563 -64.78,-10.563 -37.44,0 -70.55,18.235 -71.99,60.469 l 156.44,0 z m -156.44,41.266 c 2.39,24 17.75,57.109 54.22,57.109 39.36,0 48.95,-35.516 48.47,-57.109 l -102.69,0" /><path
         id="path38"
         style="fill:#080828;fill-opacity:1;fill-rule:nonzero;stroke:none"
         d="m 1288.75,412.484 0,-52.781 -33.59,0 0,-44.156 33.59,0 0,-109.891 c 0,-30.703 5.75,-51.828 18.23,-65.265 11.04,-11.985 29.27,-19.188 50.86,-19.188 18.72,0 34.08,2.391 42.72,5.75 l -0.97,45.11 c -5.26,-1.438 -12.95,-2.875 -23.03,-2.875 -22.54,0 -30.23,14.875 -30.23,43.187 l 0,103.172 56.15,0 0,44.156 -56.15,0 0,66.703 -57.58,-13.922" /><path
         id="path40"
         style="fill:#080828;fill-opacity:1;fill-rule:nonzero;stroke:none"
         d="m 1456.75,412.484 0,-52.781 -33.59,0 0,-44.156 33.59,0 0,-109.891 c 0,-30.703 5.75,-51.828 18.23,-65.265 11.04,-11.985 29.27,-19.188 50.86,-19.188 18.72,0 34.08,2.391 42.72,5.75 l -0.97,45.11 c -5.26,-1.438 -12.95,-2.875 -23.03,-2.875 -22.54,0 -30.23,14.875 -30.23,43.187 l 0,103.172 56.15,0 0,44.156 -56.15,0 0,66.703 -57.58,-13.922" /><path
         id="path42"
         style="fill:#080828;fill-opacity:1;fill-rule:nonzero;stroke:none"
         d="m 1675.17,126 0,233.703 -59.5,0 0,-233.703 59.5,0 z m -29.75,331.109 c -19.67,0 -33.11,-13.906 -33.11,-32.14 0,-17.766 12.96,-31.672 32.63,-31.672 20.64,0 33.59,13.906 33.59,31.672 -0.47,18.234 -12.95,32.14 -33.11,32.14" /><path
         id="path44"
         style="fill:#080828;fill-opacity:1;fill-rule:nonzero;stroke:none"
         d="m 1738.67,126 59.5,0 0,137.25 c 0,6.719 0.49,13.906 2.41,19.188 6.23,17.75 22.55,34.546 46.06,34.546 32.16,0 44.63,-25.421 44.63,-59.015 l 0,-131.969 59.03,0 0,138.688 c 0,73.89 -42.24,100.296 -83.02,100.296 -38.87,0 -64.31,-22.078 -74.39,-40.312 l -1.44,0 -2.87,35.031 -51.83,0 c 1.44,-20.156 1.92,-42.719 1.92,-69.594 l 0,-164.109" /><path
         id="path46"
         style="fill:#080828;fill-opacity:1;fill-rule:nonzero;stroke:none"
         d="m 2174.88,359.703 -2.41,-31.203 -0.95,0 c -11.05,19.203 -32.16,36.484 -67.68,36.484 -56.14,0 -106.04,-46.546 -106.04,-123.328 0,-66.234 41.26,-114.218 99.33,-114.218 30.71,0 54.7,13.921 68.14,34.546 l 0.96,0 0,-20.156 c 0,-50.3749 -28.79,-70.5311 -67.18,-70.5311 -28.32,0 -53.27,9.1094 -68.14,17.75 l -12.96,-44.625 c 20.16,-12.4844 51.83,-18.7188 81.58,-18.7188 32.16,0 65.74,6.7188 90.22,28.3125 24.47,22.0782 34.55,57.1094 34.55,106.0624 l 0,132.438 c 0,32.156 0.95,51.343 1.92,67.187 l -51.34,0 z m -9.61,-131.484 c 0,-6.719 -0.96,-14.875 -2.39,-21.125 -6.72,-21.11 -25.93,-35.5 -47.99,-35.5 -36.95,0 -57.11,32.14 -57.11,71.969 0,47.515 24.47,76.312 57.58,76.312 24.95,0 41.75,-16.328 48,-37.922 1.44,-4.797 1.91,-10.547 1.91,-15.828 l 0,-37.906" /><path
         id="path48"
         style="fill:#ffffff;fill-opacity:1;fill-rule:evenodd;stroke:none"
         d="m 2028.21,1597.16 c -6.3,9.24 -12.41,18.19 -18.51,27.16 -1.6,-1.09 -3.19,-2.16 -4.77,-3.24 6.67,-31.15 6.67,-31.15 23.28,-23.92 m -19.81,778.34 c 8.03,6.73 14.53,12.18 19.31,16.19 -8.87,8.3 -16.12,15.1 -22.35,20.94 0.77,-9.15 1.82,-22.38 3.04,-37.13 m -18.51,40.94 c 2.43,0.75 4.87,1.51 7.3,2.26 -2.65,11.45 -5.31,22.89 -8.58,36.97 -6.29,-5.65 -8.98,-8.09 -12.06,-10.85 -1.29,4.35 -2.25,7.57 -3.17,10.8 -1.27,-0.31 -2.52,-0.62 -3.78,-0.94 0.53,-10.98 1.1,-21.97 1.82,-36.48 3.57,6.1 5.07,8.66 6.66,11.36 4.11,-4.58 7.97,-8.86 11.81,-13.12 m 167.1,-801.01 c -17.33,33.72 -34,42.47 -51.42,30.54 15.81,-9.38 31.23,-18.56 51.42,-30.54 m 2.54,-191.29 c 2.94,0.04 5.87,0.06 8.8,0.1 1.7,15.18 3.35,30.35 5.24,47.5 -2.74,1.97 -7.3,5.25 -14.04,10.12 l 0,-57.72 z m 200.72,129.26 c -3.77,31.18 -32.67,40.51 -50.06,63.34 -6.66,-42.94 42.81,-35.46 50.06,-63.34 m -29.23,-69.24 c -7.04,30.86 -24.8,45.93 -50.37,50.9 -12.1,-26.23 -3.67,-48.67 20.37,-70.04 2.98,14.06 5.39,25.46 7.47,35.35 6.74,-4.84 13.41,-9.65 22.53,-16.21 m -9.61,50.94 c 9.08,-29.16 24.61,-56.7 -4.24,-80.78 -0.43,-0.33 -0.5,-1.27 -0.54,-1.95 -2.3,-33.09 -6.16,-66.2 -6.19,-99.3 -0.03,-17.72 6.51,-35.51 10.1,-53.24 2.75,0.45 5.5,0.87 8.26,1.34 0,43.99 -0.57,87.99 0.56,131.98 0.19,6.79 7.12,17.97 12.73,19.23 20.87,4.75 27.65,20.9 35.45,36.9 5.95,12.24 11.7,24.58 18.31,38.54 16.39,-7.55 31.57,-14.55 46.75,-21.55 1.67,1.22 3.33,2.43 5.01,3.65 -8.59,22.2 -17.08,44.43 -25.88,66.54 -0.85,2.21 -3.47,5.06 -5.5,5.27 -18.35,1.83 -36.73,3.13 -55.12,4.6 19.65,-13.76 31.87,-31.15 27.54,-52.9 -1.38,-6.97 -20.45,-10.45 -29.15,-14.48 -26.12,30.08 -49.71,57.22 -73.28,84.34 4.82,-15.04 11.77,-28.34 21.27,-39.44 9.35,-10.96 21.34,-19.69 34.65,-31.58 -7.78,1.07 -12.71,1.74 -20.73,2.83 m -117.27,-144.98 c 6.12,-1.82 12.25,-3.65 15.68,-4.69 3.28,-16.74 6.04,-30.78 8.91,-45.49 7.15,-0.33 13.83,-0.66 20.34,-1.07 -4.05,-15.78 -8.1,-31.58 -12.13,-47.36 1.85,-0.57 3.71,-1.12 5.56,-1.66 4.19,3.67 8.38,7.34 12.93,11.32 3.22,-9.16 5.9,-16.7 10.06,-28.45 5.01,13.43 11.92,22.77 10.08,29.84 -1.57,6.06 -13.16,9.53 -22.55,15.55 -0.77,3.92 -2.44,12.34 -4.09,20.76 -14.9,12.99 -13.49,27.48 -3.92,42.69 6.73,10.71 11.64,20.57 1.9,33.27 -3.56,4.61 -0.58,14.23 -0.58,21.29 -1.63,-1.12 -4.6,-3.15 -5.84,-3.99 -18.7,21.23 -36.74,41.72 -56.16,63.77 l 0,-24.78 c 19.33,1.05 25.07,-9.4 23.87,-25.98 -1.35,-18.54 -2.36,-37.09 -3.55,-55.61 -2.52,1.96 -5.1,3.91 -7.72,5.9 -13.29,-29.57 -12.18,-56.78 3.15,-70.86 1.37,22.09 2.73,43.81 4.06,65.55 m -1600.406,-353.75 -328.312,0 c -0.02,685.97 -0.02,994.51 -0.02,1680.83 735.698,0 2508.578,8.45 2508.578,0.56 0,-672.09 0.01,-1010.55 -0.16,-1682.64 0,-6.25 -182.62,7.5 -184.01,1.25 -1.81,2.77 -3.01,6.56 -5.55,8.1 -11.52,6.98 -23.41,13.4 -35.27,19.81 -1.56,0.84 -3.84,0.9 -5.68,0.64 -21.2,-2.91 -26.95,13.79 -31.42,21.45 -12.88,1.48 -21.56,1.97 -30,3.65 -6.15,1.19 -12.01,3.85 -17.95,6.06 -23.56,8.79 -48.4,15.27 -70.27,27.2 -20.48,11.17 -37.79,28.13 -59.09,44.53 -1.3,-8.86 -1.98,-13.47 -2.78,-18.86 -10.05,3.69 -19.66,7.2 -29.25,10.74 29.23,-14.24 -6.04,-31.06 4.81,-44.59 -1.63,-0.72 -3.27,-1.48 -4.9,-2.21 -9.4,11.41 -18.8,22.83 -29.33,35.67 7.39,2.44 11.5,3.79 15.59,5.13 -1.84,1.19 -3.68,2.41 -5.55,3.6 4.39,9.31 8.74,18.61 13.12,27.91 2.72,0.66 5.44,1.31 8.17,1.97 -11.69,12.81 -23.36,25.64 -35.48,38.96 3.27,5.45 6.85,11.41 12.28,20.47 -42.22,-23.67 -50.79,-21.31 -55.62,18.89 -6.74,-11.68 -10.74,-18.61 -13.85,-23.96 -11.3,10.21 -22.91,20.7 -34.51,31.15 -1.15,-0.94 -2.32,-1.9 -3.47,-2.85 4.73,-8.79 9.48,-17.56 14.59,-27.02 -3.04,-4.74 -6.55,-10.21 -9.44,-14.72 -29.37,4.53 -21.5,29.74 -25.29,45.72 -6.06,25.45 -5.47,52.48 -7.73,79.18 4.56,3.61 21.11,2.27 8.69,20.16 -3.16,4.53 -0.5,12.79 -3.15,18.04 -5.62,11.18 -8.73,25.1 -23.93,28.38 l 0.59,-0.56 c -26.66,27.87 -1.07,53.65 3.94,80.04 0.85,4.37 8.55,7.46 13.58,11.54 2.99,-7.17 5.23,-12.52 7.79,-18.67 13.09,19.03 5.39,36.01 -0.98,53.05 -6.31,16.88 -5.63,39.67 -33.98,37.36 -13.26,-18.81 -36,-23.43 -55.19,-6.54 -4.15,-6.56 -8.47,-13.37 -10.63,-16.74 -4.96,11 -8.61,19.04 -12.29,27.13 11.86,2.22 23.75,4.44 30.88,5.78 -17,14.19 -34.99,29.23 -53.07,44.35 -5.73,-15.81 -5.73,-15.81 13.39,-18.51 3.52,-11.91 6.51,-22.05 9.52,-32.23 -2.99,-6.84 -5.89,-13.72 -8.95,-20.52 -2.48,-5.47 -5.13,-10.85 -7.69,-16.29 -4.64,4.56 -11.5,8.38 -13.32,13.85 -2.12,6.39 0.21,14.26 0.68,22.91 -10.9,-10.18 -21.57,-20.18 -33.19,-31.09 -3.52,7.56 -6.21,13.32 -10.1,21.67 -2.27,-9.9 -3.83,-16.73 -6.74,-29.42 -15.32,47.17 -28.85,88.83 -42.4,130.5 2.2,1.66 4.4,3.32 6.57,4.99 4.08,-38 36.28,-38.58 60.11,-52.99 -8.03,36.75 -6.4,43.64 11.83,54.47 1.25,-10.42 2.49,-20.73 3.49,-29.04 11.59,6.68 19.85,10.87 27.43,16.09 2.65,1.85 5.68,6.69 5.03,9.28 -5.63,22.58 3.32,19.82 17.36,10.85 4.39,-2.81 9.93,-4.76 15.12,-5.26 19.24,-1.77 38.57,-2.79 57.86,-4.09 0.28,2.55 0.58,5.09 0.88,7.64 -12.66,3.42 -26.35,4.86 -37.63,10.81 -12.04,6.37 -21.8,17.03 -32.54,25.82 -1.48,-1.7 -2.95,-3.39 -4.43,-5.08 1.04,-2.5 2.13,-4.97 3.11,-7.5 1.19,-3.06 2.31,-6.19 3.47,-9.32 -5.47,1.97 -10.65,5.86 -14.65,4.93 -20.89,-4.98 -27.73,-0.43 -25.2,21.41 2.02,17.41 -10.22,23.83 -21.32,24.89 -13.21,1.25 -27.06,-4.48 -42.94,-7.64 6.34,-14.07 13.72,-26.09 17.07,-39.15 3.04,-11.8 15.32,-27.14 -8.19,-37.34 -9.35,13.39 -18.68,26.84 -28.16,40.18 -1.93,2.7 -4.58,7.13 -6.76,7.05 -24.61,-0.91 -24.15,12.81 -13.86,36.26 -23.81,-8.17 -41.75,-14.79 -60,-20.38 -9.13,-2.81 -18.85,-5.21 -28.31,-5.15 -8.98,0.05 -17.97,3.54 -26.96,5.51 -0.28,-1.68 -0.58,-3.39 -0.86,-5.08 -4.8,5.08 -9.59,10.15 -18.05,19.07 2.57,-11.53 3.87,-17.35 4.96,-22.16 -27.44,-9.66 -52.93,-12.87 -74.43,19.63 -6.24,-12.6 -11.62,-20.03 -13.64,-28.29 -4.06,-16.61 -7.77,-33.57 -8.98,-50.58 -2.08,-30.06 -29.57,-58.71 -4.01,-90.51 -12.77,15.31 -24.41,30.18 -12.32,50.57 1.5,2.51 1.3,7.15 0.04,10.02 -9.15,20.85 -8.91,41.9 -4.19,63.82 3.44,16.07 4.48,32.66 5.81,42.88 -9.47,9.61 -20.07,15.31 -20.37,21.51 -1.66,34.04 -0.8,68.2 -0.8,102.31 3.2,0.67 6.36,1.33 9.53,2 6.03,-11.57 12.04,-23.13 17.64,-33.95 1.68,18.97 3.5,39.46 4.87,54.87 12.95,-0.77 22.32,-1.34 32.91,-1.97 0.29,-3.96 0.88,-11.55 1.75,-22.85 9.39,13.51 16.37,23.55 23.31,33.57 4.16,-3.38 11.19,-9.05 19.64,-15.91 1.85,7.78 3.11,13.1 4.84,20.46 8.84,-12.01 15.66,-25.37 27.21,-6.43 5.78,-12.83 15.53,-14.53 27.56,-9.98 -23.96,-12.97 -3.19,-24.15 1.25,-37.43 2.01,7.73 4.46,14 5.08,20.43 0.65,6.74 -0.42,13.66 -0.75,20.5 7.02,-0.76 14.05,-1.52 26.07,-2.83 -0.21,-4.72 -0.68,-14.01 -1.03,-21.47 7.57,-1.73 17.96,-4.11 26.96,-6.18 2.3,-13.42 4.21,-24.56 6.5,-38.08 7.2,13.2 13.03,23.9 17.7,32.46 15.62,-4.7 29.18,-8.77 42.67,-12.82 -3.03,-20.91 0.17,-32.56 11.24,-40.06 1.91,25.76 3.82,51.24 5.6,75.33 8.82,3.5 16.59,6.57 25.79,10.21 3.24,-2.62 7.98,-6.44 15.71,-12.64 2.8,5.3 5.36,10.14 7.9,14.98 0.68,-2.26 1.36,-4.53 2.05,-6.8 9.33,0 20.34,3.16 27.63,-0.69 12.91,-6.8 27.51,-11.57 35.94,-1.14 6.77,8.36 4.23,24.21 5.3,32.62 -11.27,-3.28 -18.83,-6.57 -26.62,-7.17 -3,-0.24 -6.46,5.64 -8.39,7.48 -3.02,-1.28 -8.16,-5.3 -13.19,-5.19 -12.33,0.25 -24.63,3.74 -36.91,3.58 -33.47,-0.43 -66.95,-2.1 -101.91,-3.33 l 0,103.17 c 1.14,0.06 2.3,0.13 3.44,0.19 1.72,-27.37 3.43,-54.74 5.19,-82.76 1.59,6.89 3.06,13.13 4.51,19.37 2.03,0.6 4.04,1.22 6.07,1.84 4.18,-7.36 8.39,-14.7 10.95,-19.21 1.58,3.22 4.61,9.34 7.64,15.46 5.25,-4.9 10.5,-9.81 12.62,-11.79 l 0,50.54 c -15.8,1.67 -29.24,3.1 -43.03,4.56 l 0,24.77 c 4.64,0 8.03,0.11 11.4,-0.01 22.06,-0.74 43.46,-1.57 40.51,-33.58 -0.47,-5.01 6.77,-10.74 10.43,-16.13 0.12,2.21 0.22,4.44 0.34,6.66 7.98,1.01 15.98,2.01 24.94,3.14 1.53,-8.27 2.59,-14.12 4.04,-22 2.94,4.19 4.58,6.53 4.88,6.96 12.94,-8.06 25.1,-15.63 35.35,-22.01 7.22,0.57 14.98,1.2 20.07,1.6 -18.03,7.74 -18.03,7.74 -15.04,19.62 2.32,-1.63 4.62,-3.25 8.23,-5.81 -0.5,9.54 -0.86,16.9 -0.96,18.9 -6.22,4.36 -10.79,6.43 -10.56,7.59 1.01,5.38 3.77,15.13 5.17,15.01 13.91,-1.22 27.79,-3.52 41.39,-6.75 5.81,-1.37 10.94,-5.65 16.66,-8.78 -5.64,-1.64 -10.89,-3.15 -16.13,-4.67 30.54,-5.59 60.5,-7.22 90.41,-9.23 28.73,-1.93 29.22,-2.1 29.08,-30.63 -0.06,-13.9 -4.28,-27.96 -3.16,-41.67 2.71,-33.49 8.72,-66.73 11.09,-100.23 3.58,-50.68 -0.3,-101.99 14.69,-153.87 -16.37,5.24 -31.7,10.14 -47.01,15.03 -1.03,-1.34 -2.06,-2.69 -3.08,-4.03 11.14,-8 21.94,-16.58 33.6,-23.73 5.45,-3.33 14.52,-2.03 18.51,-6.14 8.97,-9.25 15.79,-20.6 23.47,-31.08 -14.16,23 6.94,20.44 18.06,24.88 -3.23,30.46 -4.41,61.09 -10.09,90.87 -9.8,51.52 -22.87,102.41 -33.25,153.83 -1.62,8.05 3.82,17.52 6.25,27.44 -1.35,5.22 -5.12,13.47 -5.37,21.83 -0.82,26.08 -0.17,52.21 -0.43,78.32 -0.09,7.29 -3.98,15.9 -1.2,21.42 1.92,3.83 12.29,3.39 19,4.89 -10.35,19.88 -20.15,38.75 -30.67,58.98 -10.56,-23.97 -20.36,-46.21 -30.51,-69.21 -22.25,0 -45.13,-0.46 -67.98,0.14 -20.76,0.55 -44.14,37.59 -37.05,58 0.38,1.06 3.21,1.26 5.53,2.09 -4.33,2.43 -10.47,3.93 -10.86,6.37 -5.84,35.88 -10.93,71.9 -16.66,110.91 l 29.87,0 c -11.71,25.09 -23.85,51.11 -35.37,75.78 -4.16,-9.29 -9.03,-20.16 -13.75,-30.69 -9.22,-1.78 -17.88,-3.47 -25.86,-5 -0.56,-10.42 -1.02,-19 -1.49,-27.57 -1.94,1.33 -3.88,2.64 -5.81,3.96 -3.93,-3.4 -8.32,-6.4 -11.69,-10.29 -5.27,-6.1 -9.86,-12.81 -14.72,-19.26 2.39,6.34 4.79,12.68 7.19,19.02 4.75,10.78 9.5,21.56 14.53,32.98 l -12.5,0 c 0.31,7.13 0.62,13.49 0.92,19.86 -1.74,0.47 -3.49,0.96 -5.24,1.44 -2.74,-4.2 -5.5,-8.4 -8.25,-12.61 -4.38,20.49 9.76,43.57 -10.17,62.05 0.27,-5.6 0.54,-11.19 0.86,-17.38 -10.39,6.11 -20.25,13.87 -18.14,-7.1 0.24,-2.25 -6.76,-5.23 -10.4,-7.88 l 0.66,-0.5 c -2.11,15.13 -4.36,30.27 -6.3,45.43 -0.75,5.91 -0.83,11.92 -1.2,17.88 -2.29,0.25 -4.57,0.5 -6.84,0.74 8.62,17.21 17.25,34.42 27.24,54.39 9.99,-3.21 25.75,-8.27 42.66,-13.7 4.17,6.14 1.85,15.78 -7.87,17.54 -12.03,2.21 -24.57,2.27 -36.2,5.67 -5.45,1.59 -12.51,8.41 -13.17,13.59 -1.94,14.93 -3.07,28.69 -18.64,27.94 0,19.77 -0.37,37.96 0.26,56.13 0.14,4.61 3.37,9.13 5.15,13.69 4.08,-2.39 10.93,-4.09 11.72,-7.3 5.15,-20.85 18.81,-14.24 32.22,-11.81 6,1.09 13.59,0.57 18.61,-2.37 3.97,-2.33 5.12,-9.49 9.07,-17.7 5.95,9.26 9.07,14.11 12.17,18.97 5.68,-1.31 11.31,-2.65 19.24,-4.51 -12.63,25.27 -24.04,48.09 -36,71.99 -2.03,-7.17 -3.35,-13.11 -5.44,-18.78 -2.03,-5.57 -4.81,-10.84 -9.26,-20.59 -44.08,100.9 -68.6,203.08 -94.14,306.92 -14.53,-118.12 -50.44,-269.19 -74.8,-308.64 -6.87,21.84 -12.7,40.44 -15.83,50.41 -7.9,-18.73 -18.95,-44.78 -29.85,-70.89 -0.98,-2.36 -1.54,-5.18 -1.34,-7.69 1.86,-21.96 3.04,-44.05 6.38,-65.79 1.44,-9.38 5.86,-19.46 11.89,-26.75 15.02,-18.11 28.9,-35.54 26.67,-61.44 -1.39,-16.49 1.37,-33.3 0.79,-49.9 -0.49,-14.15 -3.01,-28.23 -4.79,-42.32 -0.09,-0.64 -1.65,-1.1 -2.17,-1.43 -1.5,3.45 -2.99,6.82 -5.89,13.49 -3.5,-9.48 -5.69,-15.37 -8.7,-23.56 -65.34,3.06 -130.06,6.08 -194.73,9.11 -1.99,-47.54 -1.99,-47.54 -6.04,-49.43 -2.04,18.37 -4.14,37.3 -6.25,56.23 -2.76,0.08 -5.53,0.15 -8.3,0.22 -3.71,-70.85 -7.43,-141.69 -11.19,-213.4 -16.65,0 -31.93,0.69 -47.12,-0.13 -32.18,-1.74 -63.6,-3.59 -74.42,37.71 -1.32,5.07 -10.4,8.29 -16.14,11.95 -8.72,5.54 -17.5,9.39 -23.63,-3.51 l 0.43,-0.53 c -6.61,12.24 21.56,25.25 3.69,34.74 -50.37,-19.31 -98.3,-34.43 -149.12,-42.05 0,18.48 -0.14,37.85 0.14,57.23 0.04,2.92 1.49,6.14 3.18,8.61 2.19,3.22 5.27,5.79 7.97,8.65 -2.07,1.21 -5.03,3.96 -6.08,3.36 -3.78,-2.13 -9.18,-4.92 -9.89,-8.32 -3.63,-17.22 -5.09,-34.91 -9.04,-52.03 -3.16,-13.68 -8.81,-26.79 -13.35,-40.15 -1.91,0.57 -3.81,1.14 -5.71,1.7 -13.04,29.29 -26.06,58.56 -39.36,88.42 -18.49,-36.87 -35.76,-71.17 -52.73,-105.62 -0.95,-1.93 0.56,-5.14 1.09,-7.72 1.9,-9.12 5.49,-18.22 5.55,-27.36 0.59,-74.97 0.56,-149.93 0.61,-224.91 0.03,-6.69 -0.57,-13.35 -0.89,-20.53 -10.16,0 -18.39,-0.48 -26.54,0.07 -28.03,1.9 -43.28,-9.55 -54.04,-33.79 -10.5,-23.68 -23.78,-46.44 -38.34,-67.88 -17.43,-25.69 -43.657,-47.06 -54.856,-74.83 -13.231,-32.78 -33.192,-60.01 -51.52,-88.85 -17.91,-28.19 -34.34,-56 -34.199,-91.45 0.058,-16.17 -1.871,-39.16 -12.172,-47.23 -25.32,-19.8 -43.02,-44.1 -59.809,-70.25 -14.07,-21.93 -31.511,-42.05 -43.171,-65.12 -10,-19.76 -24.891,-29.47 -43.551,-38.38 -15.899,-7.57 -32.438,-17.2 -43.821,-30.21 -26.378,-30.16 -49.828,-62.91 -74.457,-94.61" /><path
         id="path50"
         style="fill:#080828;fill-opacity:1;fill-rule:evenodd;stroke:none"
         d="m 2126.68,1102.89 c -3.19,-2.52 -6.39,-5.02 -9.58,-7.5 6.83,-2.52 13.65,-5.02 23.77,-8.73 -12.91,-5.86 -17.65,-7.99 -25.28,-11.45 10.38,-2.42 16.91,-3.94 28.3,-6.62 -6.8,13.54 -12,23.91 -17.21,34.3 m -263.35,564.86 c 2.09,0.39 4.16,0.79 6.23,1.18 2.62,13.5 4.64,26.89 -6.51,37.74 -2.11,-0.39 -4.2,-0.79 -6.31,-1.18 2.2,-12.57 4.4,-25.15 6.59,-37.74 m -103.59,-112.77 c -1.39,-13.45 -2.82,-26.9 -4.45,-42.7 14.62,6.03 15.75,17.96 4.45,42.7 m 66.59,-245.57 c 1.93,0.61 3.86,1.21 5.75,1.8 -3.86,10.04 -7.73,20.08 -11.6,30.12 -5.63,-3.32 -11.25,-6.7 -14.56,-8.64 8.32,-9.49 14.37,-16.38 20.41,-23.28 m 315.76,-186.62 c -2.13,-1.79 -4.26,-3.59 -6.4,-5.41 -3.01,-18.67 2.59,-23.61 28.79,-21.85 -8.48,10.33 -15.44,18.81 -22.39,27.26 m -630.98,406.33 c -13.75,5 -23.72,8.63 -31.05,11.29 0.65,-11.19 1.07,-18.54 1.52,-26.1 8.41,4.23 15.89,7.97 29.53,14.81 m 316.92,-76.58 c -10.35,19.86 -19.93,38.22 -29.34,56.25 -5.48,-19.44 4.94,-40.29 29.34,-56.25 m -42.31,-220.37 c 5.93,2.48 9.89,4.12 13.82,5.76 -1.84,1.13 -3.69,2.3 -5.54,3.44 2.93,10.99 5.85,21.99 9.55,35.76 -9.46,-8.6 -16.37,-14.86 -23.16,-21.02 1.56,-7.03 3.14,-14.12 5.33,-23.94 m 27.68,480.92 c -16.71,-18.66 -11.59,-40.73 8.26,-49.5 -2.64,15.81 -5.16,31.01 -8.26,49.5 m -65.26,-156.79 c 1.87,0.42 3.75,0.86 5.6,1.27 -5.19,15.75 -10.4,31.5 -15.6,47.23 -2.03,-0.19 -4.07,-0.41 -6.11,-0.61 -1.31,-10.73 -2.64,-21.49 -3.96,-32.23 1.48,-0.19 2.98,-0.4 4.48,-0.6 2.31,3.41 4.66,6.86 7.3,10.74 1.95,-8.56 3.55,-15.98 5.43,-23.33 0.26,-0.99 1.88,-1.65 2.86,-2.47 m 90.05,429.6 39.98,0 c -4.01,7.77 -5.94,16 -8.95,16.42 -9.06,1.25 -19,0.85 -27.61,-1.91 -2.81,-0.89 -2.68,-11 -3.42,-14.51 m -212.43,-857.74 c -3.13,0.39 -6.26,0.78 -9.4,1.18 -4.8,-6.45 -11.01,-12.37 -13.67,-19.59 -1.01,-2.72 5.68,-11.04 10.02,-12.09 4.3,-1.08 13.84,2.96 14.46,6.07 1.56,7.73 -0.68,16.23 -1.41,24.43 m -508.22,275.16 c 2.6,-1.06 5.19,-2.13 7.8,-3.16 6.42,10.23 13.46,20.15 18.87,30.91 1.46,2.89 -1.18,8.87 -3.66,12.17 -0.87,1.13 -9.27,-0.58 -10.12,-2.65 -4.98,-12.17 -8.73,-24.81 -12.89,-37.27 m 245.52,387.37 c -1.4,-0.1 -2.82,-0.2 -4.22,-0.32 l 0,-92.32 c 1.4,0.01 2.82,0.01 4.22,0.01 l 0,92.63 z M 1858,1160.59 c -0.58,-2.15 -2.24,-8.4 -4.28,-16.08 8.94,2.46 15.73,4.34 20.34,5.57 -2.71,-9.92 -5.39,-19.71 -8.07,-29.49 8.72,5.89 12.82,13.08 17.27,20.01 2.29,3.58 5.23,6.72 7.84,10.04 -4.74,3.3 -9.11,7.82 -14.37,9.59 -4.86,1.62 -10.7,0.36 -18.73,0.36 m -517.13,122.38 c 6.39,-20.63 -2.92,-39.4 8.39,-54.98 -4.75,17.19 32.11,39.59 -8.39,54.98 m 625.38,714.56 c 5.82,-21.4 22.71,-25.85 37.69,-10.82 2.07,-4.07 4.04,-7.95 6.51,-12.79 6.26,24.52 -1.56,28.57 -44.2,23.61 m 49.77,-488.07 c 17.63,28.98 17.63,28.98 -0.9,45.12 -4.88,-5.39 -9.67,-10.7 -14.35,-15.88 5.28,-10.12 10.64,-20.39 15.25,-29.24 m -499.4,-43.64 c 18.75,7.48 18.75,7.48 14.6,44.14 -8.3,-3.77 -16.41,-7.44 -24.09,-10.91 3.38,-11.84 6.42,-22.55 9.49,-33.23 M 861.102,1218.69 c 10.578,2.07 20.558,1.91 27.976,6.23 4.711,2.74 7.332,11.99 7.621,18.46 0.192,4.3 -5.429,8.83 -8.437,13.24 -4.442,-4.14 -9.692,-7.73 -13.114,-12.62 -4.808,-6.87 -8.257,-14.68 -14.046,-25.31 m 1046.338,684.72 c -1.36,-1.8 -2.7,-3.61 -4.05,-5.4 4.08,-3.4 7.78,-9.05 12.26,-9.73 12.46,-1.91 25.25,-2.43 37.86,-2.02 4.01,0.13 7.88,4.87 11.8,7.51 -3.6,3.21 -7.03,8.94 -10.84,9.19 -15.6,1.05 -31.34,0.45 -47.03,0.45 m -459.27,-404.92 c -15.62,-8.36 -11.82,-39.86 -42.24,-27.14 6.68,-10.26 11.43,-17.56 16.09,-24.73 26.29,11.15 28.32,15.16 26.15,51.87 m 165.53,21.14 c -13.72,40.8 -31.38,12.77 -49.56,8.13 15.46,-22.05 32.51,-9.67 49.56,-8.13 m 101.57,392.11 c 2.86,0.11 5.69,0.2 8.54,0.3 3.16,5.28 9.74,11.27 8.81,15.66 -2.15,9.98 3.02,26.34 -15.36,26.74 -18.36,0.4 -12.96,-15.47 -13.38,-24.52 -0.3,-5.86 7.34,-12.11 11.39,-18.18 m 370.09,-451.88 c 12.03,26.55 7.96,50.62 -10.41,66.05 -9.39,-23.82 -8.12,-45.81 10.41,-66.05 m -6.56,-26.64 c -5.67,-5.08 -10.23,-9.16 -15.22,-13.63 -3.35,6.03 -5.5,9.92 -7.67,13.79 -2.47,-1 -4.94,-1.99 -7.41,-3.01 5.63,-17.48 11.27,-34.98 17.07,-52.93 27.42,14.34 11.61,35.98 13.23,55.78 m -165.01,1133.75 c 1.66,-2.5 3.36,-4.98 7.11,-10.57 -2.07,30.03 -3.89,56.54 -5.78,83.96 -11.9,-6.82 -15.01,-35.49 -11.46,-96.82 4.32,10 7.15,16.53 10.13,23.43 m 95.69,-1109.59 c -8.69,-28.65 6.33,-51.64 12.07,-75.82 0.39,-1.6 7.65,-3.51 10.39,-2.3 10.41,4.65 11.46,41.74 1.15,42.71 -23.5,2.31 -15.47,22.01 -23.61,35.41 m -159.57,521.53 0,-65.12 c 7.2,-0.8 16.43,-1.82 29.43,-3.26 -1.62,19.84 -3.58,36.56 -4.17,53.32 -0.6,17.48 -8.97,20.99 -25.26,15.06 m 39.27,-615.94 c 2,2.15 4.02,4.29 6.04,6.46 -33.95,36.57 -67.6,73.52 -114.55,93.97 -1.7,-2.11 -3.41,-4.18 -5.12,-6.29 37.88,-31.39 75.76,-62.76 113.63,-94.14 m -153.2,623.72 c 4.15,3.75 6.54,5.92 10.62,9.6 l 0,-36.45 c -3.96,6.17 -5.92,9.21 -10.73,16.71 0,-16.53 0.25,-28.28 -0.07,-40.01 -0.35,-12.21 0.85,-22.61 17.07,-21.81 15.29,0.74 20.07,9.83 18.71,23.46 -2.24,22.35 -4.87,44.67 -7.29,66.99 -27.19,5.16 -30.37,3.39 -28.31,-18.49 m -380.16,-92.42 c 8.28,-1.54 15.4,-2.86 27,-5.02 -4.1,13.28 -10.08,23.18 -9.45,32.64 1.14,17.11 6.54,33.9 9.58,50.93 5.53,31 -1.57,39.3 -27.13,30.54 l 0,-109.09 z M 1192.43,1507.1 c -9.94,16.22 -19.84,32.39 -29.75,48.57 -1.57,-1.02 -3.14,-2.02 -4.71,-3.05 l 0,-24.57 c -1.69,-0.83 -3.37,-1.64 -5.06,-2.48 -1.78,5.08 -3.56,10.17 -4.87,13.92 -18.82,-13.01 -26.75,-23.2 -8.78,-38.28 3.04,-2.55 -1.23,-13.83 -1.99,-19.9 3.87,-11.21 7.61,-21.99 13.15,-38.03 4.59,31.07 8.14,57.57 42.01,63.82 m 613.65,-264.99 c 1.09,-3.4 3.1,-9.77 4.25,-13.36 19.94,-1.78 37.65,-3.36 51.49,-4.59 17.94,27.75 13.19,51.43 -7.37,75.31 -1.21,-13.57 -2.26,-25.39 -3.68,-41.38 -7.48,9.82 -12.43,16.3 -17.08,22.42 -9.42,-13.13 -17.22,-23.95 -27.61,-38.4 m 70.42,395.34 c 14.09,-45.35 9.27,-89.96 8.57,-135.52 11.02,16.57 20.36,33.7 25.76,51.98 2.44,8.29 -5.32,19.11 -4.36,28.36 4.06,38.48 -24.02,56.77 -47.21,78.2 -1.19,1.11 -6.26,0.29 -7.29,-1.18 -1.69,-2.47 -2.99,-6.78 -1.97,-9.29 5.44,-13.41 11.64,-26.5 18.63,-42.04 2.51,9.4 4.89,18.31 7.87,29.49 m -464.6,-306.79 c -8.51,-20.39 -17.32,-38.77 -23.4,-58.02 -1.43,-4.54 5.75,-12.43 10.05,-17.95 3.51,-4.51 10.03,-6.98 12.73,-11.76 4.31,-7.68 6.58,-16.5 9.72,-24.88 46.91,18.36 43.77,20.33 34.18,43.75 -5.93,4.63 -11.19,10.17 -12.79,16.66 -1.55,6.25 2.33,13.88 0.78,20.11 -1.95,7.86 -6.03,15.77 -11.31,21.8 -1.61,1.84 -10.19,-2.4 -16.2,-4.02 -0.86,3.28 -2.3,8.73 -3.76,14.31 m -210.44,271.26 c 9.59,-7.38 17.94,-13.82 26.94,-20.74 5.21,13.35 9.03,23.15 13.8,35.38 5.49,-10.25 9.27,-17.29 13.05,-24.36 5.36,5.56 12.93,9.79 14.35,15.55 4.46,18.11 -13.7,36.35 -32.41,34.69 -4.5,-0.39 -9.15,0.89 -15.54,1.62 -1.02,-1.73 -4.04,-6.77 -7.52,-12.58 -16.26,23.42 -12.89,-18.21 -26.96,-4.21 2.17,5.02 4.76,11.02 7.36,17.01 -1.93,1.1 -3.84,2.21 -5.76,3.33 -5.63,-9.38 -16.61,-19.38 -15.65,-28.04 1.46,-13.12 11.24,-25.33 19.8,-42.6 4.5,13.16 6.53,19.08 8.54,24.95 m 788.65,-332.08 c -1.54,-1.99 -3.1,-3.98 -4.64,-5.97 2.77,-10.18 2.73,-23.03 9.15,-29.71 5.81,-6.06 7.44,-8.69 0.86,-11.78 -4.47,-2.11 -14.34,-1.95 -16.09,0.8 -12.23,19.24 -22.98,39.44 -36.35,63.13 -5.99,-10.65 -10.95,-19.46 -13.8,-24.49 -7.74,-0.49 -13.4,-0.84 -16.77,-1.08 6.33,-14.2 10.62,-24.92 15.87,-35.14 2.64,-5.13 7.04,-13.35 10.65,-13.35 30.3,-0.14 60.63,1.15 90.91,2.52 5.32,0.23 10.54,2.91 18.59,5.29 -11.29,8.2 -19.75,13.49 -27.18,20 -10.79,9.47 -20.83,19.8 -31.2,29.78 m -139.39,339.33 c -2.54,0.18 -5.08,0.35 -7.62,0.52 -3.1,-12.49 -7.13,-24.83 -9.05,-37.46 -2.82,-18.81 7.14,-39.5 -8.77,-56.41 -1.38,-1.46 -2.14,-4.54 -1.72,-6.56 3.83,-19.08 7.46,-38.21 12.31,-57.01 1.47,-5.71 6.57,-10.47 10.02,-15.65 4.78,3.71 9.57,7.44 12.91,10.02 4.97,-3.07 9.74,-6 14.48,-8.93 2.09,4.26 3.98,8.66 6.27,12.8 1.29,2.28 2.9,5.45 5.01,6.09 16.98,5.2 10.16,16.27 5.82,25.55 -2.53,5.45 -8.05,9.5 -12.47,14.44 -2.7,-4.03 -4.21,-6.25 -6.04,-8.99 -22.82,38.52 -20.53,80.34 -21.15,121.59 M 1429.7,1347.19 c 8.23,-12.58 17.06,-26.12 27.05,-41.39 9.48,24.18 37.94,35.08 32.04,63.79 2.8,-10.72 5.59,-21.47 8.39,-32.19 1.11,0.33 2.22,0.69 3.33,1.02 1.71,13.18 3.44,26.36 4.74,36.42 8.25,-1.7 15.12,-3.1 23.7,-4.88 -6.87,15.08 -11.74,25.78 -15.84,34.79 -14.86,-1.66 -28.07,-3.95 -41.34,-4.5 -32.27,-1.31 -32.28,-0.95 -36.65,-32.56 -4.77,5.1 -8.66,9.28 -12.55,13.44 -2.21,-0.41 -4.4,-0.82 -6.61,-1.23 1.6,-15.29 3.21,-30.62 4.81,-45.92 1.8,0 3.61,0.02 5.4,0.04 1.35,5 2.69,10.04 3.53,13.17 m 665.44,-62.01 c -16.79,6.66 -10.94,21.6 -11.75,33.65 -0.92,13.59 -0.2,27.26 -0.2,43.71 -13.93,-17.93 -22.46,-33.54 -9.11,-54.9 -9.06,0.43 -16.28,2.67 -22.49,6.56 -15.8,9.88 -22.5,37.71 -44.97,26.23 -0.62,12.6 -1.35,26.05 -1.98,39.53 -1.36,28.57 -20.29,52.73 -18.93,82.87 0.49,10.78 11.35,30.41 -10.47,37.4 -0.9,0.29 -1.66,5.61 -0.5,7.03 11.54,14.48 4.22,20.71 -9.56,27.09 -12.71,5.89 -19.01,16.56 -19.42,32.14 -0.54,19.76 -3.88,39.6 -8.03,59 -0.94,4.55 -9.46,8.35 -15.23,10.72 -4.91,2.02 -10.86,1.47 -12.64,1.66 4.59,-28.02 9.5,-58.04 14.34,-87.64 1.02,0.77 4.3,3.22 9.84,7.38 4.77,-9.32 12.37,-17.17 11.89,-24.49 -2.44,-36.86 -6.05,-73.37 9.99,-108.57 1.26,-2.77 -2.73,-10.1 -6.22,-12.42 -12.37,-8.26 -8.3,-16.53 -3.04,-31.39 3.14,9.26 4.31,12.72 5.88,17.35 2.03,-5.14 3.55,-8.97 5.09,-12.8 l 0.55,0.69 c -17.85,-22.88 -17.94,-26.7 -0.4,-49.75 1.51,3.2 2.84,6 2.69,5.72 10.76,-2.52 19.67,-4.57 29.07,-6.77 3.04,-4.65 10.69,-11.18 11.21,-18.21 1.24,-16.93 10.23,-22.24 24.45,-19.53 15.05,2.85 27.77,-1.03 40.71,-7.68 9.4,-4.84 19.44,-8.37 31.19,-13.33 -1.4,4.55 -2.15,6.97 -2.91,9.43 4.82,5.23 9.67,10.45 14.61,15.76 8.6,-5.47 17.8,-11.31 25.52,-16.23 -1.78,15.45 -3.54,31.02 -5.3,46.39 18.58,3.88 30.2,46.58 15.5,64.68 -9.73,-24.51 -18.69,-47.07 -25.63,-64.57 -9.57,-1.73 -20.08,-2.03 -20.41,-3.98 -2.28,-14.06 -2.5,-28.44 -3.34,-42.73 m -566.58,-7.97 c 2.57,-9.24 8.58,-19.18 6.85,-27.5 -2.05,-9.81 -10.82,-18.19 -17.85,-29.03 12.36,1.74 21.31,2.99 29.88,4.18 1.53,6.92 2.79,12.8 4.26,19.48 6.24,-9.52 11.19,-17.06 16.15,-24.59 3.14,2.09 6.27,4.18 9.4,6.27 -9.44,14.27 -18.89,28.55 -29.77,44.96 3.03,10.58 7.1,24.82 11.17,39.06 -1.35,0.37 -2.66,0.74 -3.98,1.11 -2.26,-4.43 -4.53,-8.85 -9.29,-18.18 -3.76,17.77 -8.58,30.17 -8.47,42.52 0.18,17.77 -0.7,31.33 -24.92,25.37 -1.38,-11.04 -2.89,-22.7 -4.61,-36.37 -6.68,2.85 -11.36,4.86 -18.48,7.89 12.89,-20.82 12.57,-20.76 7.74,-45.23 -1.6,-8.07 -1.12,-16.55 -1.6,-24.83 2.16,-0.07 4.32,-0.13 6.45,-0.21 1.29,6.54 2.58,13.1 3.87,19.63 1.24,0 2.5,0 3.77,-0.02 1.06,-9.14 2.13,-18.28 3.22,-27.68 -7.82,-3.18 -14.62,-5.9 -21.7,-8.77 9.22,-5.6 16.78,-10.21 22.53,-13.73 5.1,14.87 10.46,30.49 15.8,46.14 l -0.42,-0.47 z m -276.48,276.21 c -2.55,12.64 9.11,29.3 -10.44,37.28 -10.78,-31.2 -16.21,-34.9 -44.88,-30.37 4,-18.87 12.9,-38.29 10.49,-56.19 -2.2,-16.25 -1.02,-26.33 9.32,-34.61 31.38,24.11 -5.07,43.49 -4.09,63.78 11.56,12.95 34.72,-3.02 39.68,20.21 l 0,-44.06 c 1.5,-0.18 3.01,-0.35 4.52,-0.54 3.9,23.7 7.81,47.39 12.41,75.37 -7.4,-13.42 -12.2,-22.14 -17.01,-30.87 m 547.52,399.96 c -2.41,12.88 -4.84,25.76 -7.26,38.64 1.7,0.18 3.38,0.35 5.08,0.54 1.58,-2.96 3.18,-5.92 4.77,-8.88 1.94,1.11 3.91,2.21 5.86,3.32 -3.01,6.03 -4.72,15.53 -9.33,17.25 -6.52,2.45 -15.19,-0.87 -22.92,-1.72 2.02,-5.36 4.03,-10.71 6.36,-16.84 -9.17,-8.23 -13.78,-61.46 -3.18,-68.42 5.88,-3.86 15.12,-2.56 28.24,-4.3 -3.28,16.46 -5.74,28.7 -8.17,40.92 20.42,-1.83 7.95,-17.54 11.39,-26.57 1.91,-4.97 4.24,-12.24 7.98,-13.41 4.93,-1.56 13.3,-0.05 16.89,3.48 8.97,8.91 -0.7,35.05 -12.78,39.23 -7.77,2.69 -14.81,7.47 -22.93,11.69 l 0,-14.93 z m -26.5,126.77 c -0.49,-8.82 -4.61,-19.96 -0.77,-26.02 9.51,-14.91 5.83,-19.51 -9.97,-20.57 -3.48,-0.24 -6.84,-2.09 -10.27,-3.21 0.17,-1.33 0.34,-2.67 0.51,-4 l 36.1,0 c -5.46,18.47 -10.65,36.07 -15.86,53.67 -9.33,18.34 -18.65,36.68 -28.69,56.43 -11.83,-42.65 -7.07,-84.95 13.12,-95.7 1.08,17.24 2.07,32.96 3.02,48.33 4.86,-3.29 8.92,-6.05 12.81,-8.93 m -524.13,-368.58 c 13.77,-7.51 27.54,-15.02 38.49,-20.99 20.84,11.8 32.71,-14.18 51.45,-8.52 -2.84,9.5 -5.87,19.66 -8.89,29.81 -1.28,-0.07 -2.57,-0.15 -3.83,-0.23 -1.1,-3.8 -2.19,-7.63 -3.27,-11.45 -2.34,0.58 -4.68,1.15 -7.03,1.71 2.09,7.35 4.17,14.69 6.81,23.94 -5.67,3.65 -12.19,7.87 -18.72,12.07 -1.85,-0.97 -3.7,-1.93 -5.54,-2.89 1.7,-8.68 3.39,-17.35 5.07,-25.93 -6.29,-2.4 -14.64,-5.6 -23.86,-9.11 -5.41,6.85 -10.28,14.46 -16.66,20.44 -2.71,2.55 -8.57,1.75 -13,2.47 -0.16,-3.96 -0.3,-7.9 -0.43,-11.83 -9.25,4.64 -18.5,9.31 -27.23,13.7 0.43,-19.88 29.09,-42.77 53.52,-35.08 -10.36,8.44 -18.62,15.17 -26.88,21.89 m 441.7,220.43 c 2.59,-1.55 5.18,-3.1 7.79,-4.64 0.6,14.4 6.86,37.34 0.66,41.43 -12.89,8.51 -4.64,16.68 -6.24,24.94 1.69,-2.28 3.4,-4.58 5.3,-7.16 7.32,23.2 -0.9,28.4 -32.96,21.41 3.32,-11.72 6.62,-23.42 9.93,-35.13 -3.07,3.93 -6.15,7.85 -11.77,15.04 0,-22.32 -1.19,-40.41 0.7,-58.17 0.58,-5.28 9.27,-12.71 15.18,-13.74 10.81,-1.89 14.05,5.97 11.41,16.02 m -62.19,-666.26 c 4.08,-9.16 8.17,-18.36 11.05,-24.8 2.24,10.33 3.39,22.77 7.67,34.02 6.1,16.05 -1.26,15 -12.22,11.6 0.9,3.09 1.78,6.19 2.66,9.3 26.27,29.63 17.03,-21.99 36,-11.7 3.3,8.94 7.83,21.29 12.17,33.07 17.9,-14.05 18.14,-48.05 -1.2,-65.8 0.53,-1.84 1.05,-3.68 1.59,-5.51 7.38,2.38 14.78,4.74 28.07,9.04 -2.4,-16.02 -4.4,-29.45 -6.68,-44.75 1.96,-0.64 7.74,-2.52 13.53,-4.37 -0.65,2.25 -1.29,4.47 -1.92,6.7 16.87,7.58 33.75,15.14 51.44,23.08 -7.45,29.09 -14.49,56.61 -21.22,82.91 13.46,-2.65 26.63,-23.34 24.41,-43.04 23.73,6.64 9.99,26.7 17.27,39.55 -8.44,1.21 -14.48,2.07 -22.58,3.24 -0.85,11.04 -1.68,21.78 -2.5,32.52 8.79,-5.2 17.58,-10.41 27.19,-16.07 1.46,6.99 2.83,13.53 4.38,21.05 -8.16,2.03 -15.29,3.79 -22.42,5.55 7.79,6.15 15.58,12.3 23.38,18.43 -1.05,1.55 -2.12,3.07 -3.19,4.63 -3.48,-1.52 -6.99,-3.04 -10.5,-4.55 -0.79,0.96 -1.57,1.9 -2.37,2.85 5.75,7.06 11.49,14.11 19.38,23.81 -9.22,3.56 -16.43,6.35 -18.41,7.11 -4.62,10.53 -6.38,18.11 -10.74,23.6 -5.49,6.85 -11.25,16.46 -22.96,5.8 -7.04,-6.37 -16.54,-13.62 -25.12,-13.89 -16,-0.51 -18.78,-9.75 -17.63,-20.37 2.16,-6.5 4.3,-13.01 7.34,-22.23 16.82,-6.81 39.06,-15.8 61.28,-24.8 -3.22,-3.46 -6.42,-6.94 -9.62,-10.39 -13.92,6.93 -27.86,13.86 -41.76,20.84 -2.16,-6.55 -3.21,-9.75 -4.82,-14.55 -12.39,21.05 -31.75,25.84 -50.51,24.61 -18.14,-1.18 -28.49,11.66 -42.87,16.66 -2.8,0.97 -3.42,8.2 -6.89,17.48 13.14,-5.71 24.01,-6.96 27.88,-12.8 12.86,-19.51 18.49,-3.36 28.99,2.58 -19.96,7.5 -37.3,14.04 -55.6,20.92 -5.63,-12.56 -11.55,-25.84 -19.94,-44.61 12.5,3.61 19.82,5.74 31.93,9.24 -0.57,-10.16 0.14,-19.59 -1.99,-28.36 -2.87,-11.84 -10.63,-22.95 -11.43,-34.71 -1.09,-16.15 -9.49,-24.33 -22.13,-30.76 3.19,11.62 3.55,25.35 10.26,34.39 9.61,12.95 4.18,17.08 -7.38,23.6 -2.68,-7.29 -4.85,-13.15 -7,-19.02 -1.54,-0.2 -3.06,-0.41 -4.6,-0.63 -3.01,15.33 -6.03,30.64 -9.07,45.98 8.32,-2.25 16.62,-4.5 26.29,-7.11 -4.74,10.93 -8.95,20.62 -13.15,30.33 -1.64,-0.18 -3.29,-0.35 -4.94,-0.57 -2.49,-7.75 -5.01,-15.52 -7.53,-23.3 -28.73,-19.86 -31.23,-48.3 -6.92,-63.01 -0.96,9.95 -2.04,20.88 -3.1,31.8 2.78,0.29 5.55,0.59 8.31,0.88 -4.12,-16.5 12.59,-28.87 5.7,-47.25 -3.33,-8.86 5.23,-13.18 13.77,-5.07 -8.01,-21.18 -1.84,-38.81 14.61,-57.04 -0.42,14.34 -0.69,26.68 16.86,23.29 l -0.5,0.6 z m -543.62,106.54 c -3.33,-2.42 -9.22,-4.53 -9.56,-7.32 -1.56,-13.14 -1.61,-26.46 -2.19,-39.71 2.9,-0.11 5.8,-0.23 8.71,-0.35 0.82,15.98 1.64,31.97 2.38,48.07 4.21,-1.08 8.43,-2.15 13.31,-3.4 -0.9,13.34 -1.71,25.35 -2.52,37.38 -2.37,-0.04 -4.75,-0.11 -7.11,-0.15 -1,-11.51 -2.01,-23.03 -3.02,-34.52 m 1052.69,47.29 c 15.2,-3.28 18.31,-17.21 23.93,-28.38 2.65,-5.25 -0.01,-13.51 3.14,-18.05 12.43,-17.89 -4.11,-16.54 -8.67,-20.15 2.25,-26.7 1.67,-53.73 7.72,-79.18 3.79,-15.98 -4.08,-41.19 25.3,-45.72 2.89,4.51 6.39,9.98 9.43,14.72 -5.11,9.46 -9.85,18.22 -14.59,27.01 1.15,0.96 2.32,1.92 3.48,2.86 11.59,-10.45 23.2,-20.94 34.51,-31.16 3.1,5.35 7.11,12.29 13.84,23.97 4.83,-40.2 13.4,-42.56 55.62,-18.89 -5.43,-9.06 -9,-15.02 -12.28,-20.47 12.12,-13.32 23.79,-26.15 35.48,-38.96 -2.73,-0.67 -5.45,-1.31 -8.17,-1.98 -4.38,-9.29 -8.73,-18.59 -13.12,-27.91 1.87,-1.19 3.71,-2.4 5.55,-3.59 -4.09,-1.35 -8.19,-2.69 -15.59,-5.14 10.53,-12.83 19.94,-24.25 29.33,-35.66 1.63,0.72 3.27,1.48 4.9,2.21 -10.85,13.53 24.43,30.35 -4.81,44.59 9.59,-3.54 19.21,-7.05 29.26,-10.75 0.8,5.4 1.47,10 2.77,18.87 21.3,-16.4 38.61,-33.36 59.09,-44.53 21.88,-11.93 46.71,-18.42 70.28,-27.21 5.92,-2.2 11.79,-4.86 17.94,-6.05 8.44,-1.68 17.12,-2.17 30,-3.65 4.48,-7.66 10.22,-24.36 31.42,-21.45 1.85,0.26 4.12,0.2 5.68,-0.64 11.86,-6.41 23.75,-12.84 35.28,-19.81 2.54,-1.54 3.74,-5.33 5.54,-8.1 l -325.02,0 c 8.88,6.01 17.78,12.01 26.69,18 -2.54,1.72 -5.11,3.4 -7.65,5.12 -6.68,5.53 -13.38,11.08 -21.7,17.97 -3.53,-14.63 -6.69,-27.87 -9.85,-41.09 l -1658.55,0 c 24.629,31.7 48.079,64.45 74.461,94.61 11.379,13 27.918,22.63 43.821,30.21 18.66,8.91 33.547,18.61 43.547,38.38 11.671,23.07 29.101,43.18 43.179,65.12 16.782,26.15 34.492,50.45 59.813,70.25 10.289,8.07 12.219,31.06 12.16,47.23 -0.133,35.45 16.301,63.26 34.199,91.44 18.34,28.85 38.289,56.08 51.52,88.86 11.211,27.76 37.44,49.14 54.86,74.82 14.56,21.44 27.83,44.21 38.33,67.89 10.77,24.24 26.02,35.69 54.05,33.79 8.16,-0.55 16.38,-0.07 26.55,-0.07 0.32,7.17 0.9,13.83 0.88,20.52 -0.05,74.98 -0.02,149.95 -0.61,224.92 -0.06,9.14 -3.64,18.23 -5.55,27.36 -0.53,2.58 -2.04,5.78 -1.09,7.72 16.97,34.45 34.24,68.75 52.73,105.61 13.29,-29.85 26.33,-59.13 39.36,-88.41 1.9,-0.57 3.81,-1.13 5.71,-1.7 4.54,13.36 10.2,26.47 13.35,40.14 3.96,17.13 5.42,34.82 9.04,52.04 0.72,3.4 6.12,6.19 9.9,8.32 1.04,0.6 4,-2.15 6.07,-3.36 -2.7,-2.86 -5.78,-5.43 -7.97,-8.65 -1.68,-2.47 -3.14,-5.7 -3.17,-8.62 -0.29,-19.38 -0.14,-38.75 -0.14,-57.23 50.81,7.63 98.75,22.75 149.11,42.06 17.87,-9.49 -10.3,-22.51 -3.69,-34.73 -16.37,10.43 -7.65,-8.51 -11.35,-12.01 -9.74,-9.23 -19.25,-23.27 -8.14,-42.56 7,20.23 13.04,37.66 19.07,55.09 6.12,12.9 14.89,9.05 23.62,3.51 5.75,-3.66 14.82,-6.88 16.15,-11.95 10.82,-41.3 42.24,-39.45 74.41,-37.71 15.2,0.81 30.46,0.13 47.12,0.13 3.76,71.71 7.48,142.55 11.19,213.4 2.77,-0.08 5.55,-0.14 8.3,-0.23 2.1,-18.92 4.21,-37.85 6.25,-56.22 4.05,1.89 4.05,1.89 6.05,49.43 64.66,-3.03 129.38,-6.05 194.72,-9.11 3.01,8.19 5.2,14.08 8.7,23.55 2.9,-6.66 4.38,-10.03 5.89,-13.48 0.52,0.33 2.08,0.79 2.17,1.42 1.78,14.1 4.31,28.18 4.8,42.32 0.57,16.61 -2.19,33.42 -0.79,49.91 2.22,25.89 -11.66,43.33 -26.67,61.44 -6.04,7.29 -10.45,17.36 -11.9,26.74 -3.34,21.75 -4.52,43.84 -6.38,65.8 -0.2,2.51 0.36,5.33 1.34,7.69 10.9,26.1 21.95,52.16 29.85,70.88 3.13,-9.97 8.96,-28.56 15.83,-50.4 24.36,39.45 60.27,190.52 74.8,308.64 25.55,-103.84 50.06,-206.02 94.14,-306.92 4.45,9.75 7.24,15.02 9.27,20.58 2.08,5.68 3.41,11.62 5.44,18.78 11.95,-23.89 23.37,-46.72 35.99,-71.98 -7.93,1.86 -13.56,3.19 -19.23,4.51 -3.11,-4.86 -6.23,-9.71 -12.17,-18.97 -3.96,8.21 -5.11,15.36 -9.07,17.7 -5.02,2.94 -12.61,3.45 -18.62,2.37 -13.41,-2.44 -27.07,-9.04 -32.21,11.81 -0.8,3.21 -7.65,4.9 -11.72,7.3 -1.79,-4.56 -5.01,-9.08 -5.16,-13.69 -0.62,-18.17 -0.25,-36.37 -0.25,-56.13 15.56,0.75 16.7,-13.01 18.63,-27.94 0.66,-5.18 7.72,-12 13.17,-13.6 11.63,-3.39 24.17,-3.46 36.2,-5.66 9.72,-1.77 12.05,-11.4 7.88,-17.54 -16.92,5.43 -32.68,10.49 -42.67,13.7 -9.99,-19.97 -18.61,-37.18 -27.24,-54.39 2.28,-0.25 4.55,-0.5 6.84,-0.74 0.37,-5.96 0.46,-11.97 1.2,-17.89 1.94,-15.16 4.19,-30.29 6.3,-45.42 -5.54,-9 -11.25,-17.91 -16.56,-27.03 -2.23,-3.8 -2.75,-8.87 -5.54,-12.06 -19.61,-22.37 -39.6,-44.41 -59.77,-66.85 25.56,-19.4 63.83,-21.62 85.54,-8.62 3.05,1.83 9.82,3.28 10.75,1.97 14.18,-20.14 30.5,-9.85 46.67,-5.05 -2.31,22.85 -2.31,22.85 -20.54,27.76 4.85,6.45 9.44,13.16 14.71,19.26 3.37,3.89 7.77,6.89 11.69,10.28 1.94,-1.32 3.87,-2.62 5.81,-3.95 0.46,8.57 0.93,17.15 1.5,27.57 7.97,1.53 16.64,3.22 25.86,5 4.71,10.53 9.59,21.4 13.75,30.69 11.51,-24.67 23.65,-50.69 35.36,-75.79 l -29.87,0 c 5.74,-39 10.82,-75.02 16.66,-110.9 0.39,-2.44 6.54,-3.94 10.86,-6.37 -2.32,-0.83 -5.15,-1.04 -5.52,-2.09 -7.09,-20.42 16.29,-57.45 37.05,-58 22.84,-0.6 45.72,-0.14 67.98,-0.14 10.14,23 19.95,45.23 30.5,69.2 10.52,-20.23 20.33,-39.09 30.68,-58.98 -6.71,-1.49 -17.08,-1.06 -19.01,-4.88 -2.78,-5.53 1.12,-14.13 1.2,-21.42 0.27,-26.11 -0.39,-52.24 0.43,-78.33 0.26,-8.35 4.03,-16.6 5.38,-21.83 -2.44,-9.91 -7.88,-19.38 -6.25,-27.43 10.38,-51.42 23.44,-102.31 33.25,-153.84 5.67,-29.77 6.85,-60.4 10.09,-90.87 -11.13,-4.43 -32.23,-1.88 -18.07,-24.87 -7.68,10.48 -14.49,21.82 -23.47,31.08 -3.98,4.11 -13.05,2.8 -18.5,6.14 -11.66,7.15 -22.47,15.73 -33.61,23.73 1.03,1.34 2.05,2.69 3.08,4.03 15.31,-4.9 30.64,-9.79 47.01,-15.04 -14.99,51.88 -11.1,103.2 -14.69,153.88 -2.37,33.5 -8.38,66.73 -11.09,100.23 -1.11,13.71 3.1,27.77 3.16,41.67 0.14,28.53 -0.35,28.7 -29.08,30.63 -29.91,2.01 -59.86,3.64 -90.41,9.22 5.25,1.53 10.49,3.04 16.13,4.68 -5.72,3.13 -10.85,7.41 -16.66,8.78 -13.6,3.23 -27.49,5.53 -41.38,6.75 -1.41,0.12 -4.16,-9.63 -5.18,-15.02 -0.22,-1.15 4.35,-3.22 10.57,-7.58 0.1,-2.01 0.46,-9.36 0.95,-18.91 -3.61,2.56 -5.9,4.19 -8.23,5.82 -2.99,-11.88 -2.99,-11.88 15.03,-19.62 -5.08,-0.4 -12.84,-1.03 -20.06,-1.61 -10.25,6.39 -22.41,13.96 -35.35,22.02 -0.3,-0.43 -1.93,-2.77 -4.88,-6.97 -1.46,7.89 -2.51,13.74 -4.03,22 -8.97,-1.12 -16.97,-2.12 -24.95,-3.13 -0.11,-2.23 -0.23,-4.45 -0.34,-6.66 -3.66,5.39 -10.9,11.11 -10.43,16.13 2.95,32 -18.44,32.83 -40.51,33.58 -3.36,0.11 -6.75,0.01 -11.4,0.01 l 0,-24.77 c 13.8,-1.46 27.23,-2.89 43.04,-4.56 l 0,-50.55 c -2.12,1.99 -7.38,6.89 -12.63,11.8 -3.03,-6.12 -6.06,-12.24 -7.64,-15.46 -2.57,4.5 -6.77,11.85 -10.95,19.21 -2.03,-0.62 -4.04,-1.24 -6.07,-1.84 -1.45,-6.24 -2.92,-12.49 -4.51,-19.38 -1.76,28.03 -3.47,55.4 -5.19,82.77 -1.14,-0.07 -2.29,-0.13 -3.43,-0.2 l 0,-103.17 c 34.96,1.24 68.43,2.9 101.9,3.33 12.28,0.17 24.58,-3.32 36.91,-3.57 5.03,-0.12 10.17,3.91 13.2,5.19 1.92,-1.85 5.39,-7.72 8.39,-7.48 7.78,0.6 15.35,3.89 26.62,7.17 -1.08,-8.41 1.46,-24.26 -5.31,-32.62 -8.42,-10.43 -23.02,-5.66 -35.93,1.14 -7.3,3.85 -18.3,0.69 -27.64,0.69 -0.68,2.27 -1.37,4.53 -2.05,6.79 -2.54,-4.84 -5.1,-9.67 -7.9,-14.98 -7.73,6.2 -12.46,10.02 -15.7,12.65 -9.2,-3.64 -16.98,-6.71 -25.8,-10.21 -1.77,-24.09 -3.69,-49.58 -5.61,-75.33 -11.06,7.5 -14.26,19.15 -11.23,40.06 -13.49,4.05 -27.04,8.12 -42.67,12.81 -4.66,-8.55 -10.5,-19.25 -17.69,-32.46 -2.3,13.53 -4.21,24.67 -6.51,38.09 -9,2.06 -19.39,4.45 -26.96,6.18 0.35,7.46 0.81,16.74 1.04,21.47 -12.03,1.3 -19.06,2.07 -26.07,2.83 -1.85,-1.16 -3.71,-2.34 -5.58,-3.5 -12.04,-4.55 -21.79,-2.85 -27.56,9.98 -11.56,-18.94 -18.37,-5.58 -27.22,6.42 -1.73,-7.36 -2.99,-12.67 -4.83,-20.46 -8.46,6.87 -15.48,12.54 -19.64,15.92 -6.95,-10.02 -13.93,-20.06 -23.31,-33.57 -0.87,11.3 -1.47,18.88 -1.77,22.85 -10.58,0.63 -19.95,1.2 -32.9,1.97 -1.37,-15.41 -3.18,-35.9 -4.86,-54.88 -5.61,10.82 -11.62,22.39 -17.65,33.96 -3.16,-0.67 -6.34,-1.33 -9.52,-2 0,-34.11 -0.87,-68.27 0.79,-102.31 0.3,-6.2 10.9,-11.91 20.37,-21.51 -1.33,-10.23 -2.36,-26.81 -5.81,-42.88 -4.72,-21.92 -4.95,-42.98 4.19,-63.83 1.26,-2.87 1.46,-7.5 -0.04,-10.01 -12.09,-20.4 -0.45,-35.26 12.32,-50.58 -25.55,31.81 1.94,60.46 4.02,90.52 1.2,17 4.91,33.97 8.97,50.58 2.02,8.26 7.4,15.69 13.64,28.29 21.5,-32.51 46.99,-29.29 74.43,-19.64 -1.09,4.82 -2.38,10.63 -4.95,22.16 8.45,-8.91 13.24,-13.99 18.04,-19.06 0.29,1.68 0.58,3.39 0.86,5.08 9,-1.97 17.98,-5.47 26.97,-5.51 9.45,-0.06 19.18,2.34 28.31,5.15 18.24,5.59 36.18,12.2 60,20.37 -10.3,-23.44 -10.75,-37.16 13.85,-36.25 2.18,0.08 4.83,-4.35 6.76,-7.05 9.48,-13.34 18.81,-26.79 28.17,-40.18 23.5,10.2 11.23,25.54 8.18,37.34 -3.35,13.06 -10.72,25.07 -17.07,39.15 15.88,3.16 29.74,8.89 42.93,7.64 11.11,-1.06 23.35,-7.48 21.34,-24.9 -2.53,-21.83 4.3,-26.39 25.19,-21.41 4.01,0.94 9.18,-2.96 14.65,-4.92 -1.16,3.13 -2.27,6.26 -3.47,9.32 -0.97,2.52 -2.07,5 -3.11,7.5 1.48,1.69 2.96,3.38 4.43,5.08 10.74,-8.79 20.5,-19.45 32.54,-25.82 11.28,-5.96 24.97,-7.39 37.63,-10.81 -0.29,-2.55 -0.6,-5.1 -0.88,-7.64 -19.29,1.3 -38.61,2.31 -57.86,4.09 -5.19,0.5 -10.72,2.45 -15.12,5.25 -14.03,8.98 -22.99,11.73 -17.35,-10.84 0.64,-2.59 -2.39,-7.44 -5.04,-9.28 -7.58,-5.22 -15.84,-9.42 -27.42,-16.09 -1.01,8.31 -2.25,18.62 -3.5,29.04 -18.23,-10.83 -19.85,-17.72 -11.83,-54.47 -23.82,14.41 -56.03,14.98 -60.1,52.99 -2.18,-1.67 -4.38,-3.33 -6.58,-4.99 13.55,-41.67 27.08,-83.33 42.41,-130.51 2.91,12.7 4.46,19.53 6.74,29.43 3.88,-8.36 6.58,-14.11 10.08,-21.67 11.63,10.91 22.31,20.91 33.21,31.09 -0.47,-8.66 -2.81,-16.52 -0.69,-22.91 1.82,-5.48 8.68,-9.3 13.32,-13.86 2.56,5.44 5.22,10.82 7.69,16.29 3.07,6.81 5.97,13.68 8.95,20.53 l -0.68,0.58 c 3.64,-8.06 7.3,-16.11 12.26,-27.1 2.15,3.37 6.47,10.18 10.62,16.74 19.19,-16.89 41.93,-12.27 55.2,6.53 28.35,2.32 27.66,-20.47 33.97,-37.35 6.38,-17.05 14.07,-34.02 0.99,-53.05 -2.57,6.15 -4.81,11.5 -7.8,18.67 -5.03,-4.08 -12.73,-7.17 -13.58,-11.54 -5.01,-26.39 -30.6,-52.18 -3.94,-80.03 -28.61,-10.13 -28.61,-10.13 -15.26,-30.25 21.7,2.36 17.39,16.93 14.67,30.8" /><path
         id="path52"
         style="fill:#ffffff;fill-opacity:1;fill-rule:evenodd;stroke:none"
         d="m 2262.27,1036.37 c 3.16,13.22 6.34,26.46 9.86,41.09 8.32,-6.89 15.01,-12.44 21.69,-17.96 2.54,-1.72 5.11,-3.4 7.66,-5.12 -8.91,-6 -17.8,-11.99 -26.69,-18.01" /><path
         id="path54"
         style="fill:#ffffff;fill-opacity:1;fill-rule:evenodd;stroke:none"
         d="m 1787.22,1036.37 4.16,0" /><path
         id="path56"
         style="fill:#000000;fill-opacity:1;fill-rule:evenodd;stroke:none"
         d="m 2321.42,1535.1 c 8.02,-1.09 12.95,-1.77 20.72,-2.83 -13.3,11.88 -25.29,20.61 -34.66,31.58 -9.5,11.09 -16.43,24.4 -21.27,39.44 23.59,-27.12 47.16,-54.26 73.3,-84.34 8.7,4.02 27.77,7.51 29.15,14.48 4.32,21.75 -7.89,39.14 -27.54,52.9 18.39,-1.47 36.76,-2.77 55.11,-4.61 2.04,-0.21 4.64,-3.05 5.5,-5.26 8.81,-22.11 17.3,-44.35 25.89,-66.55 -1.68,-1.22 -3.34,-2.43 -5.01,-3.65 -15.18,7 -30.36,14.01 -46.76,21.55 -6.62,-13.95 -12.35,-26.29 -18.31,-38.54 -7.79,-15.99 -14.58,-32.14 -35.45,-36.89 -5.61,-1.27 -12.54,-12.44 -12.72,-19.24 -1.14,-43.98 -0.57,-87.99 -0.57,-131.97 -2.75,-0.47 -5.51,-0.9 -8.25,-1.35 -3.59,17.74 -10.14,35.53 -10.11,53.24 0.02,33.11 3.9,66.21 6.19,99.3 0.04,0.68 0.1,1.62 0.54,1.95 28.86,24.09 13.31,51.63 4.25,80.79" /><path
         id="path58"
         style="fill:#ffffff;fill-opacity:1;fill-rule:evenodd;stroke:none"
         d="m 1986.45,2167.17 c 18.23,-4.91 18.23,-4.91 20.55,-27.76 -16.18,-4.79 -32.5,-15.09 -46.68,5.05 -0.93,1.31 -7.71,-0.14 -10.75,-1.97 -21.71,-13 -59.98,-10.78 -85.53,8.63 20.16,22.43 40.14,44.47 59.76,66.84 2.79,3.19 3.31,8.26 5.54,12.06 5.3,9.13 11.02,18.03 16.55,27.03 l -0.64,0.5 c 5.66,-6.3 12.14,-12.04 16.7,-19.05 3.16,-4.86 3.62,-11.47 5.26,-17.3 5.54,2.6 11.06,5.2 16.59,7.8 3.29,-14.26 6.54,-28.54 9.83,-42.81 -2.4,-6.34 -4.81,-12.68 -7.18,-19.02" /><path
         id="path60"
         style="fill:#000000;fill-opacity:1;fill-rule:evenodd;stroke:none"
         d="m 2249.24,1338.95 c -6.68,0.32 -13.36,0.66 -20.51,1 -2.87,14.69 -5.62,28.75 -8.9,45.48 -3.43,1.03 -9.56,2.87 -15.69,4.68 l 0.55,-0.59 c 1.15,18.53 2.17,37.09 3.51,55.62 1.21,16.57 -4.54,27.02 -23.86,25.97 l 0,24.78 c 19.41,-22.05 37.46,-42.53 56.15,-63.76 1.24,0.83 4.22,2.87 5.85,3.98 0,-7.04 -2.99,-16.68 0.58,-21.29 9.73,-12.69 4.82,-22.55 -1.91,-33.25 -9.57,-15.23 -10.98,-29.71 3.93,-42.71" /><path
         id="path62"
         style="fill:#000000;fill-opacity:1;fill-rule:evenodd;stroke:none"
         d="m 2331.02,1484.16 c -9.11,6.56 -15.79,11.37 -22.52,16.21 -2.09,-9.9 -4.5,-21.29 -7.48,-35.35 -24.04,21.37 -32.47,43.8 -20.36,70.03 25.57,-4.96 43.32,-20.04 50.36,-50.89" /><path
         id="path64"
         style="fill:#000000;fill-opacity:1;fill-rule:evenodd;stroke:none"
         d="m 1983.8,2228.99 c -5.53,-2.6 -11.04,-5.2 -16.58,-7.79 -1.65,5.82 -2.11,12.43 -5.28,17.3 -4.55,7.02 -11.02,12.75 -16.69,19.04 3.64,2.66 10.63,5.64 10.4,7.89 -2.11,20.97 7.74,13.21 18.13,7.11 -0.31,6.18 -0.59,11.77 -0.86,17.36 19.93,-18.47 5.79,-41.54 10.18,-62.02 0,0 0.7,1.11 0.7,1.11" /><path
         id="path66"
         style="fill:#000000;fill-opacity:1;fill-rule:evenodd;stroke:none"
         d="m 2051.11,1585.57 c -3.02,10.18 -6,20.32 -9.52,32.23 -19.13,2.7 -19.13,2.7 -13.39,18.5 18.07,-15.11 36.07,-30.16 53.07,-44.34 -7.14,-1.34 -19.03,-3.57 -30.89,-5.78 0.05,-0.04 0.73,-0.61 0.73,-0.61" /><path
         id="path68"
         style="fill:#000000;fill-opacity:1;fill-rule:evenodd;stroke:none"
         d="m 2248.94,1338.87 c 1.65,-8.42 3.32,-16.84 4.09,-20.76 9.39,-6.02 20.98,-9.49 22.54,-15.55 1.85,-7.07 -5.07,-16.4 -10.09,-29.84 -4.14,11.76 -6.82,19.29 -10.05,28.45 -4.55,-3.98 -8.74,-7.65 -12.93,-11.32 -1.84,0.54 -3.71,1.09 -5.55,1.66 4.03,15.78 8.07,31.58 12.21,47.4 0.07,0.04 -0.22,-0.04 -0.22,-0.04" /><path
         id="path70"
         style="fill:#000000;fill-opacity:1;fill-rule:evenodd;stroke:none"
         d="m 2360.25,1553.39 c -7.25,27.9 -56.71,20.4 -50.05,63.34 17.37,-22.83 46.28,-32.14 50.05,-63.34" /><path
         id="path72"
         style="fill:#000000;fill-opacity:1;fill-rule:evenodd;stroke:none"
         d="m 2204.14,1390.12 c -1.33,-21.74 -2.69,-43.46 -4.06,-65.55 -15.32,14.09 -16.44,41.29 -3.15,70.86 2.62,-1.99 5.19,-3.94 7.74,-5.9 0.02,-0.02 -0.53,0.59 -0.53,0.59" /><path
         id="path74"
         style="fill:#000000;fill-opacity:1;fill-rule:evenodd;stroke:none"
         d="m 2159.53,1424.14 0,57.71 c 6.74,-4.86 11.3,-8.14 14.04,-10.11 -1.89,-17.15 -3.54,-32.33 -5.24,-47.5 -2.93,-0.04 -5.86,-0.06 -8.8,-0.1" /><path
         id="path76"
         style="fill:#000000;fill-opacity:1;fill-rule:evenodd;stroke:none"
         d="m 2156.99,1615.43 c -20.19,11.98 -35.62,21.16 -51.42,30.55 17.42,11.93 34.09,3.18 51.42,-30.55" /><path
         id="path78"
         style="fill:#000000;fill-opacity:1;fill-rule:evenodd;stroke:none"
         d="m 1989.89,2416.44 c -3.84,4.26 -7.7,8.54 -11.81,13.12 -1.59,-2.7 -3.09,-5.26 -6.66,-11.36 -0.72,14.51 -1.29,25.5 -1.82,36.48 1.26,0.31 2.51,0.63 3.78,0.94 0.92,-3.23 1.88,-6.46 3.17,-10.8 3.08,2.76 5.77,5.19 12.06,10.85 3.27,-14.08 5.93,-25.52 8.58,-36.97 -2.43,-0.76 -4.87,-1.51 -7.3,-2.26" /><path
         id="path80"
         style="fill:#000000;fill-opacity:1;fill-rule:evenodd;stroke:none"
         d="m 1983.8,2228.99 c 0,0 -0.7,-1.11 -0.7,-1.11 2.74,4.18 5.5,8.39 8.25,12.58 1.75,-0.47 3.49,-0.96 5.23,-1.44 -0.3,-6.36 -0.6,-12.73 -0.91,-19.86 l 12.5,0 c -5.04,-11.42 -9.79,-22.19 -14.55,-32.96 -3.28,14.25 -6.53,28.53 -9.82,42.79" /><path
         id="path82"
         style="fill:#000000;fill-opacity:1;fill-rule:evenodd;stroke:none"
         d="m 2008.4,2375.5 c -1.21,14.75 -2.28,27.98 -3.04,37.13 6.23,-5.84 13.48,-12.64 22.36,-20.94 -4.79,-4.01 -11.28,-9.46 -19.32,-16.19" /><path
         id="path84"
         style="fill:#000000;fill-opacity:1;fill-rule:evenodd;stroke:none"
         d="m 1830.2,1887.42 c 1.87,1.16 3.73,2.33 5.59,3.5 0.32,-6.84 1.39,-13.77 0.73,-20.51 -0.63,-6.43 -3.06,-12.7 -5.07,-20.43 -4.45,13.29 -25.22,24.47 -1.25,37.44" /><path
         id="path86"
         style="fill:#000000;fill-opacity:1;fill-rule:evenodd;stroke:none"
         d="m 2028.21,1597.16 c -16.61,-7.23 -16.61,-7.23 -23.28,23.92 1.58,1.08 3.17,2.15 4.77,3.24 6.1,-8.97 12.21,-17.92 18.51,-27.16" /><path
         id="path88"
         style="fill:#ffffff;fill-opacity:1;fill-rule:evenodd;stroke:none"
         d="m 1766.02,1350.8 c 0.82,-10.74 1.64,-21.48 2.5,-32.52 8.11,-1.17 14.14,-2.03 22.59,-3.24 -7.29,-12.85 6.44,-32.91 -17.29,-39.55 2.23,19.7 -10.93,40.39 -24.39,43.04 6.73,-26.3 13.77,-53.82 21.21,-82.91 -17.69,-7.95 -34.57,-15.5 -51.44,-23.08 0.64,-2.23 1.26,-4.45 1.93,-6.7 -5.79,1.85 -11.58,3.73 -13.54,4.37 2.29,15.3 4.28,28.73 6.68,44.75 -13.29,-4.3 -20.68,-6.66 -28.06,-9.04 -0.55,1.83 -1.07,3.67 -1.6,5.5 19.34,17.76 19.1,51.76 1.19,65.81 -4.32,-11.78 -8.85,-24.13 -12.16,-33.07 -18.98,-10.29 -9.73,41.33 -35.98,11.74 7.7,19.8 7.7,19.8 -13.23,23.9 1.57,-18.84 3.07,-36.77 4.55,-54.66 -17.55,3.39 -17.28,-8.95 -16.86,-23.29 -16.44,18.23 -22.61,35.86 -14.64,57.04 0,-0.02 -0.61,-1.02 -0.61,-1.02 12.65,6.43 21.04,14.61 22.14,30.76 0.79,11.76 8.54,22.87 11.42,34.71 2.12,8.77 1.42,18.2 2,28.36 -12.11,-3.5 -19.45,-5.63 -31.95,-9.24 8.4,18.77 14.32,32.05 19.95,44.61 18.3,-6.88 35.64,-13.42 55.6,-20.92 -10.5,-5.94 -16.12,-22.09 -28.98,-2.58 -3.87,5.84 -14.75,7.09 -27.89,12.8 3.47,-9.28 4.1,-16.51 6.89,-17.48 14.38,-5 24.74,-17.84 42.86,-16.66 18.77,1.23 38.14,-3.56 50.53,-24.61 1.6,4.8 2.65,8 4.81,14.55 13.91,-6.98 27.84,-13.91 41.76,-20.84" /><path
         id="path90"
         style="fill:#ffffff;fill-opacity:1;fill-rule:evenodd;stroke:none"
         d="m 1957.63,1385.29 c -1.53,3.83 -3.06,7.66 -5.09,12.79 -1.57,-4.63 -2.74,-8.08 -5.88,-17.34 -5.26,14.86 -9.32,23.12 3.04,31.39 3.5,2.32 7.48,9.64 6.22,12.42 -16.03,35.19 -12.43,71.71 -9.99,108.57 0.48,7.32 -7.12,15.16 -11.88,24.49 -5.55,-4.16 -8.83,-6.61 -9.85,-7.38 -4.84,29.6 -9.74,59.62 -14.33,87.63 1.77,-0.18 7.72,0.36 12.63,-1.66 5.77,-2.37 14.29,-6.16 15.24,-10.71 4.14,-19.4 7.49,-39.24 8.02,-59 0.41,-15.58 6.71,-26.25 19.42,-32.14 13.78,-6.38 21.1,-12.61 9.56,-27.09 -1.15,-1.42 -0.4,-6.74 0.51,-7.03 21.81,-7 10.95,-26.62 10.47,-37.4 -1.37,-30.14 17.56,-54.3 18.92,-82.87 0.64,-13.48 1.36,-26.94 1.98,-39.53 22.47,11.48 29.17,-16.35 44.97,-26.23 6.22,-3.89 13.43,-6.14 22.5,-6.57 -13.35,21.37 -4.83,36.98 9.11,54.91 0,-16.45 -0.73,-30.12 0.19,-43.71 0.81,-12.06 -5.04,-27 11.74,-33.66 l -0.94,0.69 c 0.76,-2.46 1.52,-4.89 2.91,-9.44 -11.75,4.96 -21.78,8.5 -31.19,13.34 -12.94,6.64 -25.65,10.53 -40.71,7.68 -14.22,-2.72 -23.2,2.6 -24.45,19.53 -0.51,7.03 -8.17,13.55 -11.21,18.2 -9.4,2.21 -18.31,4.26 -29.07,6.78 0.15,0.27 -1.18,-2.52 -2.68,-5.72 -17.54,23.04 -17.45,26.87 0.41,49.78 1.51,-9.63 3.02,-19.26 4.55,-28.92 1.38,0.43 2.75,0.82 4.14,1.25 l 2.61,51.44 c -1.13,0 -2.24,-0.02 -3.37,-0.04 -2.84,-8.14 -5.67,-16.29 -8.5,-24.45" /><path
         id="path92"
         style="fill:#ffffff;fill-opacity:1;fill-rule:evenodd;stroke:none"
         d="m 1429.7,1347.19 c -0.84,-3.12 -2.18,-8.16 -3.54,-13.16 -1.79,-0.02 -3.59,-0.04 -5.4,-0.04 -1.6,15.29 -3.2,30.62 -4.8,45.91 2.21,0.42 4.4,0.83 6.61,1.24 3.89,-4.16 7.78,-8.34 12.55,-13.44 4.37,31.6 4.38,31.25 36.65,32.56 13.27,0.54 26.47,2.83 41.33,4.49 4.1,-9.01 8.98,-19.71 15.84,-34.79 -8.57,1.78 -15.45,3.19 -23.69,4.89 -1.31,-10.06 -3.03,-23.25 -4.74,-36.43 -1.11,-0.33 -2.23,-0.68 -3.33,-1.02 -2.81,10.73 -5.59,21.47 -8.39,32.19 5.9,-28.71 -22.57,-39.61 -32.04,-63.79 -9.99,15.28 -18.82,28.81 -27.05,41.39" /><path
         id="path94"
         style="fill:#ffffff;fill-opacity:1;fill-rule:evenodd;stroke:none"
         d="m 1850.72,1609.18 c 0.62,-41.25 -1.67,-83.09 21.14,-121.61 1.84,2.75 3.34,4.98 6.05,9 4.42,-4.94 9.94,-9 12.47,-14.44 4.33,-9.27 11.16,-20.36 -5.82,-25.54 -2.11,-0.66 -3.72,-3.82 -5.01,-6.11 -2.3,-4.14 -4.18,-8.53 -6.27,-12.78 -4.75,2.93 -9.51,5.85 -14.48,8.93 -3.34,-2.58 -8.13,-6.31 -12.91,-10.02 -3.45,5.16 -8.55,9.94 -10.02,15.64 -4.86,18.8 -8.48,37.93 -12.31,57.02 -0.42,2.02 0.33,5.09 1.72,6.55 15.91,16.91 5.95,37.61 8.77,56.41 1.91,12.63 5.95,24.97 9.04,37.45 2.54,-0.16 5.09,-0.32 7.63,-0.5" /><path
         id="path96"
         style="fill:#ffffff;fill-opacity:1;fill-rule:evenodd;stroke:none"
         d="m 1775.64,1361.72 c -22.23,9 -44.46,17.99 -61.3,24.8 -3.04,9.22 -5.16,15.73 -7.32,22.23 -1.16,10.63 1.62,19.86 17.62,20.37 8.59,0.28 18.09,7.52 25.11,13.89 11.73,10.66 17.48,1.05 22.96,-5.8 4.38,-5.49 6.13,-13.07 10.74,-23.6 1.98,-0.76 9.19,-3.55 18.41,-7.1 -7.88,-9.71 -13.61,-16.76 -19.36,-23.81 0.8,-0.96 1.57,-1.9 2.36,-2.86 3.5,1.51 7.02,3.03 10.5,4.56 1.07,-1.57 2.14,-3.09 3.19,-4.63 -7.8,-6.14 -15.6,-12.29 -23.41,-18.44" /><path
         id="path98"
         style="fill:#ffffff;fill-opacity:1;fill-rule:evenodd;stroke:none"
         d="m 1528.98,1277.68 c -5.34,-15.64 -10.69,-31.27 -15.8,-46.13 -5.75,3.5 -13.32,8.12 -22.53,13.73 7.08,2.86 13.87,5.58 21.71,8.77 -1.09,9.39 -2.18,18.52 -3.23,27.66 -1.27,0.02 -2.52,0.02 -3.77,0.02 -1.29,-6.52 -2.57,-13.07 -3.86,-19.62 -2.14,0.08 -4.3,0.14 -6.46,0.21 0.48,8.29 0,16.77 1.6,24.82 4.83,24.49 5.15,24.43 -7.75,45.25 7.13,-3.03 11.81,-5.04 18.49,-7.89 1.73,13.67 3.23,25.32 4.62,36.36 24.21,5.96 25.09,-7.59 24.91,-25.38 -0.12,-12.34 4.72,-24.73 8.47,-42.52 4.75,9.34 7.03,13.75 9.28,18.2 1.32,-0.37 2.64,-0.75 3.99,-1.12 -4.06,-14.24 -8.15,-28.47 -11.17,-39.06 10.88,-16.41 20.33,-30.68 29.77,-44.96 -3.12,-2.09 -6.27,-4.18 -9.39,-6.27 -4.97,7.54 -9.91,15.07 -16.16,24.59 -1.47,-6.68 -2.74,-12.56 -4.25,-19.47 -8.59,-1.19 -17.52,-2.44 -29.9,-4.18 7.04,10.84 15.81,19.22 17.86,29.02 1.72,8.32 -4.28,18.25 -6.85,27.52 -1.47,17.79 -2.93,35.55 -4.88,59.18 -5.18,-14.28 -8.3,-22.73 -11.32,-31.23 -5.66,-15.95 7.82,-20.31 16.62,-27.5" /><path
         id="path100"
         style="fill:#ffffff;fill-opacity:1;fill-rule:evenodd;stroke:none"
         d="m 1990.11,1269.84 c 10.37,-9.98 20.41,-20.3 31.2,-29.79 7.43,-6.5 15.89,-11.78 27.18,-20 -8.05,-2.37 -13.26,-5.05 -18.59,-5.28 -30.28,-1.38 -60.61,-2.66 -90.9,-2.53 -3.62,0 -8.02,8.23 -10.66,13.37 -5.25,10.21 -9.54,20.93 -15.87,35.13 3.37,0.23 9.04,0.58 16.77,1.07 2.85,5.05 7.81,13.85 13.8,24.49 13.37,-23.69 24.12,-43.87 36.35,-63.12 1.76,-2.75 11.62,-2.91 16.09,-0.8 6.58,3.09 4.95,5.73 -0.86,11.78 -6.41,6.68 -6.38,19.54 -9.15,29.7 1.54,2 3.11,4 4.64,5.98" /><path
         id="path102"
         style="fill:#ffffff;fill-opacity:1;fill-rule:evenodd;stroke:none"
         d="m 1201.46,1601.92 c -2.01,-5.86 -4.04,-11.79 -8.54,-24.95 -8.56,17.27 -18.34,29.49 -19.8,42.61 -0.96,8.65 10.02,18.65 15.65,28.03 1.92,-1.11 3.83,-2.23 5.76,-3.33 -2.6,-5.99 -5.19,-11.99 -7.36,-17.01 14.07,-14 10.7,27.63 26.96,4.22 3.48,5.81 6.5,10.84 7.52,12.57 6.39,-0.72 11.04,-2.01 15.54,-1.62 18.71,1.66 36.87,-16.57 32.41,-34.69 -1.42,-5.76 -8.99,-9.99 -14.35,-15.55 -3.79,7.07 -7.56,14.11 -13.05,24.36 -4.77,-12.23 -8.59,-22.03 -13.8,-35.38 -9,6.93 -17.35,13.36 -26.94,20.74" /><path
         id="path104"
         style="fill:#ffffff;fill-opacity:1;fill-rule:evenodd;stroke:none"
         d="m 1405.45,1273.91 c 19.18,6.93 16.95,-2.91 15.82,-13.7 -0.63,-5.93 2.07,-12.18 3.27,-18.29 4.89,38.12 1.32,43.85 -19.09,31.99 m 6.45,56.76 c 1.47,-5.6 2.9,-11.04 3.76,-14.32 6.01,1.61 14.59,5.86 16.2,4.02 5.28,-6.03 9.36,-13.94 11.31,-21.8 1.55,-6.22 -2.33,-13.86 -0.78,-20.11 1.6,-6.48 6.86,-12.03 12.79,-16.66 9.59,-23.42 12.73,-25.39 -34.18,-43.75 -3.14,8.38 -5.41,17.21 -9.72,24.88 -2.7,4.78 -9.22,7.25 -12.73,11.76 -4.3,5.52 -11.48,13.42 -10.05,17.95 6.08,19.25 14.89,37.64 23.4,58.03" /><path
         id="path106"
         style="fill:#ffffff;fill-opacity:1;fill-rule:evenodd;stroke:none"
         d="m 1876.5,1637.45 c -2.98,-11.18 -5.36,-20.09 -7.87,-29.49 -6.99,15.54 -13.18,28.63 -18.63,42.04 -1.02,2.51 0.29,6.82 1.97,9.29 1.02,1.47 6.09,2.29 7.28,1.18 23.2,-21.43 51.27,-39.72 47.22,-78.21 -0.97,-9.24 6.8,-20.06 4.37,-28.35 -5.41,-18.28 -14.75,-35.41 -25.78,-51.98 0.71,45.56 5.53,90.17 -8.56,135.52" /><path
         id="path108"
         style="fill:#ffffff;fill-opacity:1;fill-rule:evenodd;stroke:none"
         d="m 1806.09,1242.11 c 10.38,14.45 18.18,25.27 27.61,38.4 4.64,-6.11 9.59,-12.6 17.07,-22.42 1.41,15.99 2.47,27.81 3.68,41.38 20.57,-23.88 25.3,-47.56 7.36,-75.31 -13.84,1.23 -31.54,2.81 -51.47,4.59 -1.16,3.59 -3.18,9.96 -4.25,13.36" /><path
         id="path110"
         style="fill:#ffffff;fill-opacity:1;fill-rule:evenodd;stroke:none"
         d="m 1192.43,1507.11 c -33.87,-6.25 -37.43,-32.75 -42.02,-63.82 -5.53,16.02 -9.27,26.8 -13.14,38.01 0.76,6.08 5.03,17.35 1.99,19.9 -17.97,15.09 -10.04,25.27 8.78,38.28 1.31,-3.75 3.09,-8.84 4.87,-13.91 1.69,0.84 3.37,1.65 5.06,2.48 l 0,24.58 c 1.56,1.01 3.14,2.02 4.71,3.03 9.91,-16.18 19.81,-32.34 29.75,-48.55" /><path
         id="path112"
         style="fill:#ffffff;fill-opacity:1;fill-rule:evenodd;stroke:none"
         d="m 1355.82,1894.27 0,109.09 c 25.56,8.76 32.66,0.46 27.13,-30.55 -3.04,-17.03 -8.44,-33.81 -9.58,-50.92 -0.63,-9.46 5.35,-19.36 9.45,-32.64 -11.6,2.16 -18.72,3.48 -27,5.02" /><path
         id="path114"
         style="fill:#ffffff;fill-opacity:1;fill-rule:evenodd;stroke:none"
         d="m 1735.98,1986.69 c -2.06,21.88 1.12,23.65 28.29,18.49 2.44,-22.32 5.07,-44.64 7.32,-66.99 1.35,-13.63 -3.42,-22.72 -18.72,-23.46 -16.22,-0.8 -17.42,9.6 -17.07,21.81 0.33,11.73 0.07,23.48 0.07,40.01 4.82,-7.5 6.77,-10.54 10.73,-16.71 l 0,36.45 c -4.08,-3.68 -6.47,-5.85 -10.62,-9.6" /><path
         id="path116"
         style="fill:#ffffff;fill-opacity:1;fill-rule:evenodd;stroke:none"
         d="m 1252.18,1553.66 c -4.98,-23.37 -28.14,-7.39 -39.71,-20.34 -0.97,-20.29 35.48,-39.68 4.09,-63.79 -10.34,8.29 -11.51,18.36 -9.31,34.62 2.41,17.89 -6.49,37.31 -10.49,56.18 28.66,-4.53 34.1,-0.83 44.87,30.38 19.55,-7.99 7.89,-24.65 10.45,-37.28" /><path
         id="path118"
         style="fill:#ffffff;fill-opacity:1;fill-rule:evenodd;stroke:none"
         d="m 2094.19,1285.86 0.94,-0.68 c 0.85,14.29 1.07,28.67 3.35,42.73 0.33,1.95 10.84,2.25 20.41,3.99 6.94,17.5 15.9,40.05 25.63,64.57 14.7,-18.11 3.08,-60.81 -15.5,-64.69 1.76,-15.37 3.52,-30.94 5.3,-46.39 -7.72,4.92 -16.92,10.76 -25.52,16.23 -4.94,-5.31 -9.79,-10.53 -14.61,-15.76" /><path
         id="path120"
         style="fill:#ffffff;fill-opacity:1;fill-rule:evenodd;stroke:none"
         d="m 1799.02,1953.92 c 2.46,-12.25 4.91,-24.49 8.19,-40.94 -13.11,1.73 -22.35,0.44 -28.23,4.29 -10.6,6.96 -6,60.19 3.17,68.42 -2.32,6.13 -4.33,11.48 -6.35,16.84 7.72,0.85 16.39,4.17 22.92,1.72 4.61,-1.72 6.32,-11.22 9.32,-17.25 -1.94,-1.11 -3.91,-2.21 -5.86,-3.31 -1.59,2.95 -3.18,5.91 -4.76,8.86 -1.7,-0.17 -3.38,-0.35 -5.08,-0.52 2.41,-12.89 4.84,-25.76 7.26,-38.65" /><path
         id="path122"
         style="fill:#ffffff;fill-opacity:1;fill-rule:evenodd;stroke:none"
         d="m 1889.18,1362.97 c -37.87,31.39 -75.75,62.75 -113.63,94.14 1.71,2.11 3.42,4.18 5.12,6.29 46.95,-20.45 80.6,-57.4 114.55,-93.97 -2.02,-2.16 -4.04,-4.31 -6.04,-6.46" /><path
         id="path124"
         style="fill:#ffffff;fill-opacity:1;fill-rule:evenodd;stroke:none"
         d="m 1596.86,1297.87 c 0,0 0.62,1 0.62,1.02 -8.52,-8.11 -17.07,-3.79 -13.73,5.07 6.88,18.38 -9.84,30.75 -5.71,47.25 -2.75,-0.29 -5.54,-0.59 -8.31,-0.88 1.07,-10.92 2.13,-21.85 3.11,-31.8 -24.32,14.71 -21.82,43.15 6.91,63.01 l -0.64,0.61 c 3,-15.3 6.03,-30.61 9.05,-45.94 1.52,0.21 3.05,0.43 4.59,0.62 2.16,5.88 4.32,11.74 7,19.03 11.55,-6.53 16.98,-10.65 7.38,-23.6 -6.72,-9.04 -7.08,-22.77 -10.27,-34.39" /><path
         id="path126"
         style="fill:#ffffff;fill-opacity:1;fill-rule:evenodd;stroke:none"
         d="m 1849.91,1978.91 c 16.29,5.93 24.66,2.41 25.25,-15.05 0.6,-16.76 2.56,-33.49 4.17,-53.32 -12.99,1.44 -22.22,2.46 -29.42,3.25" /><path
         id="path128"
         style="fill:#ffffff;fill-opacity:1;fill-rule:evenodd;stroke:none"
         d="m 1773.27,2080.27 c -4.06,2.75 -8.12,5.51 -12.98,8.81 -0.96,-15.37 -1.94,-31.1 -3.03,-48.34 -20.18,10.76 -24.94,53.06 -13.11,95.71 10.04,-19.75 19.35,-38.09 28.69,-56.43" /><path
         id="path130"
         style="fill:#ffffff;fill-opacity:1;fill-rule:evenodd;stroke:none"
         d="m 1249.54,1711.06 c 0.15,3.94 0.29,7.87 0.45,11.83 4.43,-0.72 10.29,0.08 13,-2.46 6.37,-5.99 11.25,-13.6 16.66,-20.45 9.22,3.51 17.57,6.71 23.85,9.11 -1.67,8.58 -3.36,17.25 -5.06,25.93 1.84,0.96 3.69,1.92 5.54,2.89 6.53,-4.2 13.05,-8.42 18.72,-12.07 -2.64,-9.25 -4.72,-16.59 -6.81,-23.94 2.35,-0.56 4.69,-1.13 7.03,-1.71 1.08,3.82 2.17,7.65 3.27,11.46 1.26,0.07 2.55,0.15 3.83,0.22 3.02,-10.15 6.05,-20.31 8.89,-29.8 -18.74,-5.67 -30.62,20.31 -51.45,8.51 -10.95,5.97 -24.72,13.48 -38.49,20.99" /><path
         id="path132"
         style="fill:#ffffff;fill-opacity:1;fill-rule:evenodd;stroke:none"
         d="m 1675.14,1972.85 c -3.3,11.71 -6.6,23.41 -9.91,35.13 32.05,7 40.27,1.8 32.96,-21.4 -1.91,2.58 -3.62,4.87 -5.31,7.15 1.6,-8.25 -6.65,-16.42 6.24,-24.93 6.2,-4.1 -0.05,-27.04 -0.66,-41.44 -2.61,1.54 -5.19,3.09 -7.78,4.64 -5.2,13.61 -10.36,27.23 -15.54,40.85" /><path
         id="path134"
         style="fill:#ffffff;fill-opacity:1;fill-rule:evenodd;stroke:none"
         d="m 1675.14,1972.85 c 5.18,-13.62 10.34,-27.24 15.54,-40.85 2.62,-10.04 -0.61,-17.91 -11.42,-16.02 -5.91,1.03 -14.6,8.47 -15.17,13.75 -1.9,17.75 -0.71,35.84 -0.71,58.16 5.63,-7.18 8.69,-11.11 11.76,-15.04" /><path
         id="path136"
         style="fill:#ffffff;fill-opacity:1;fill-rule:evenodd;stroke:none"
         d="m 2009.48,1457.38 c 8.13,-13.4 0.11,-33.11 23.6,-35.41 10.32,-0.98 9.27,-38.07 -1.14,-42.71 -2.74,-1.22 -10,0.7 -10.39,2.3 -5.74,24.18 -20.76,47.17 -12.07,75.82" /><path
         id="path138"
         style="fill:#ffffff;fill-opacity:1;fill-rule:evenodd;stroke:none"
         d="m 1913.79,2566.97 c -2.98,-6.9 -5.81,-13.43 -10.13,-23.43 -3.55,61.33 -0.44,90 11.46,96.81 1.89,-27.41 3.71,-53.92 5.78,-83.96 -3.75,5.6 -5.45,8.08 -7.11,10.58" /><path
         id="path140"
         style="fill:#ffffff;fill-opacity:1;fill-rule:evenodd;stroke:none"
         d="m 1799.6,1953.38 0,14.93 c 8.12,-4.22 15.16,-9 22.93,-11.69 12.08,-4.18 21.75,-30.32 12.78,-39.23 -3.59,-3.53 -11.96,-5.04 -16.89,-3.48 -3.74,1.17 -6.07,8.44 -7.98,13.41 -3.44,9.03 9.03,24.74 -11.4,26.58 -0.02,0.02 0.56,-0.52 0.56,-0.52" /><path
         id="path142"
         style="fill:#ffffff;fill-opacity:1;fill-rule:evenodd;stroke:none"
         d="m 2078.8,1433.22 c -1.62,-19.8 14.19,-41.45 -13.23,-55.78 -5.8,17.95 -11.44,35.45 -17.07,52.93 2.47,1.01 4.94,2.01 7.41,3.01 2.17,-3.87 4.33,-7.76 7.68,-13.79 4.99,4.47 9.54,8.55 15.21,13.63" /><path
         id="path144"
         style="fill:#ffffff;fill-opacity:1;fill-rule:evenodd;stroke:none"
         d="m 2085.36,1459.86 c -18.54,20.23 -19.8,42.23 -10.4,66.06 18.36,-15.44 22.43,-39.52 10.4,-66.06" /><path
         id="path146"
         style="fill:#ffffff;fill-opacity:1;fill-rule:evenodd;stroke:none"
         d="m 1715.27,1911.74 c -4.05,6.07 -11.69,12.31 -11.4,18.18 0.42,9.05 -4.98,24.92 13.38,24.52 18.38,-0.41 13.22,-16.76 15.36,-26.74 0.94,-4.39 -5.64,-10.38 -8.8,-15.66 -2.86,-0.1 -5.69,-0.2 -8.54,-0.3" /><path
         id="path148"
         style="fill:#ffffff;fill-opacity:1;fill-rule:evenodd;stroke:none"
         d="m 1613.7,1519.63 c -17.05,-1.54 -34.1,-13.93 -49.56,8.12 18.18,4.64 35.84,32.68 49.56,-8.12" /><path
         id="path150"
         style="fill:#ffffff;fill-opacity:1;fill-rule:evenodd;stroke:none"
         d="m 1448.17,1498.49 c 2.17,-36.71 0.14,-40.72 -26.15,-51.87 -4.66,7.17 -9.41,14.47 -16.09,24.73 30.42,-12.72 26.62,18.78 42.24,27.14" /><path
         id="path152"
         style="fill:#ffffff;fill-opacity:1;fill-rule:evenodd;stroke:none"
         d="m 1907.44,1903.41 c 15.68,0 31.43,0.61 47.03,-0.44 3.81,-0.25 7.24,-5.99 10.84,-9.19 -3.92,-2.65 -7.79,-7.39 -11.81,-7.52 -12.6,-0.4 -25.4,0.11 -37.85,2.02 -4.48,0.68 -8.18,6.34 -12.26,9.73 1.34,1.8 2.69,3.6 4.05,5.4" /><path
         id="path154"
         style="fill:#ffffff;fill-opacity:1;fill-rule:evenodd;stroke:none"
         d="m 861.105,1218.69 c 5.79,10.62 9.231,18.44 14.04,25.31 3.429,4.89 8.668,8.48 13.121,12.62 3.007,-4.41 8.617,-8.95 8.437,-13.24 -0.289,-6.47 -2.91,-15.73 -7.629,-18.46 -7.41,-4.32 -17.398,-4.16 -27.969,-6.23" /><path
         id="path156"
         style="fill:#ffffff;fill-opacity:1;fill-rule:evenodd;stroke:none"
         d="m 1516.62,1465.82 c -3.07,10.68 -6.11,21.39 -9.49,33.23 7.68,3.47 15.79,7.14 24.09,10.91 4.15,-36.66 4.15,-36.66 -14.6,-44.14" /><path
         id="path158"
         style="fill:#ffffff;fill-opacity:1;fill-rule:evenodd;stroke:none"
         d="m 2016.02,1509.46 c -4.61,8.85 -9.97,19.12 -15.24,29.24 4.67,5.18 9.47,10.5 14.34,15.89 18.54,-16.15 18.54,-16.15 0.9,-45.13" /><path
         id="path160"
         style="fill:#ffffff;fill-opacity:1;fill-rule:evenodd;stroke:none"
         d="m 1966.25,1997.54 c 42.64,4.95 50.46,0.91 44.2,-23.61 -2.47,4.84 -4.44,8.71 -6.51,12.77 -14.98,-15.02 -31.87,-10.57 -37.69,10.84" /><path
         id="path162"
         style="fill:#ffffff;fill-opacity:1;fill-rule:evenodd;stroke:none"
         d="m 1248.98,1711.57 c 8.25,-6.72 16.5,-13.45 26.86,-21.89 -24.41,-7.69 -53.07,15.2 -53.52,35.08 8.73,-4.4 17.98,-9.06 27.23,-13.7 l -0.57,0.51" /><path
         id="path164"
         style="fill:#000000;fill-opacity:1;fill-rule:evenodd;stroke:none"
         d="m 1628.98,1265.14 c -1.48,17.89 -2.98,35.82 -4.55,54.67 20.93,-4.1 20.93,-4.1 13.22,-23.91 -0.9,-3.14 -1.77,-6.25 -2.67,-9.33 5.08,-9.2 5.22,-16.86 -6.51,-20.82" /><path
         id="path166"
         style="fill:#ffffff;fill-opacity:1;fill-rule:evenodd;stroke:none"
         d="m 1772.84,2080.02 c 5.21,-17.6 10.4,-35.2 15.86,-53.67 l -36.1,0 c -0.17,1.34 -0.35,2.67 -0.51,4 3.43,1.12 6.79,2.98 10.27,3.21 15.8,1.06 19.47,5.66 9.97,20.57 -3.85,6.06 0.28,17.2 0.86,26.09 0.08,0.05 -0.35,-0.2 -0.35,-0.2" /><path
         id="path168"
         style="fill:#ffffff;fill-opacity:1;fill-rule:evenodd;stroke:none"
         d="m 1340.87,1282.97 c 40.5,-15.39 3.64,-37.79 8.39,-54.98 -11.31,15.59 -2,34.35 -8.39,54.98" /><path
         id="path170"
         style="fill:#ffffff;fill-opacity:1;fill-rule:evenodd;stroke:none"
         d="m 1858,1160.59 c 8.03,0 13.87,1.27 18.73,-0.36 5.26,-1.77 9.63,-6.28 14.38,-9.59 -2.62,-3.32 -5.56,-6.46 -7.85,-10.03 -4.45,-6.93 -8.55,-14.13 -17.27,-20.02 2.68,9.79 5.36,19.57 8.07,29.48 -4.6,-1.22 -11.4,-3.09 -20.34,-5.55 2.04,7.67 3.7,13.92 4.28,16.07" /><path
         id="path172"
         style="fill:#ffffff;fill-opacity:1;fill-rule:evenodd;stroke:none"
         d="m 1363.06,1790.69 0,-92.63 c -1.41,0 -2.82,0 -4.22,-0.01 l 0,92.32 c 1.4,0.12 2.81,0.22 4.22,0.32" /><path
         id="path174"
         style="fill:#ffffff;fill-opacity:1;fill-rule:evenodd;stroke:none"
         d="m 1117.54,1403.32 c 4.17,12.46 7.91,25.1 12.89,37.27 0.86,2.07 9.25,3.78 10.12,2.65 2.48,-3.3 5.12,-9.28 3.66,-12.17 -5.41,-10.76 -12.45,-20.68 -18.87,-30.91 -2.6,1.03 -5.2,2.11 -7.8,3.16" /><path
         id="path176"
         style="fill:#ffffff;fill-opacity:1;fill-rule:evenodd;stroke:none"
         d="m 2137.55,1419.57 c 2.72,-13.87 7.03,-28.44 -14.67,-30.8 -13.35,20.12 -13.35,20.12 15.26,30.25 0.01,-0.02 -0.59,0.55 -0.59,0.55" /><path
         id="path178"
         style="fill:#ffffff;fill-opacity:1;fill-rule:evenodd;stroke:none"
         d="m 1625.76,1128.16 c 0.73,-8.2 2.97,-16.7 1.41,-24.43 -0.62,-3.1 -10.16,-7.14 -14.47,-6.08 -4.33,1.06 -11.02,9.39 -10.02,12.09 2.67,7.23 8.88,13.15 13.68,19.6 3.14,-0.39 6.27,-0.79 9.4,-1.18" /><path
         id="path180"
         style="fill:#ffffff;fill-opacity:1;fill-rule:evenodd;stroke:none"
         d="m 1838.19,1985.9 c 0.73,3.52 0.61,13.62 3.42,14.52 8.61,2.76 18.54,3.16 27.61,1.91 3,-0.42 4.94,-8.66 8.95,-16.43" /><path
         id="path182"
         style="fill:#ffffff;fill-opacity:1;fill-rule:evenodd;stroke:none"
         d="m 1748.14,1556.3 c -0.98,0.83 -2.6,1.47 -2.85,2.47 -1.9,7.34 -3.49,14.77 -5.43,23.34 -2.65,-3.9 -5,-7.34 -7.31,-10.75 -1.5,0.2 -3,0.41 -4.48,0.59 1.32,10.75 2.66,21.51 3.97,32.25 2.03,0.19 4.07,0.41 6.1,0.6 5.2,-15.73 10.41,-31.48 15.61,-47.23 -1.86,-0.41 -3.73,-0.85 -5.61,-1.27" /><path
         id="path184"
         style="fill:#ffffff;fill-opacity:1;fill-rule:evenodd;stroke:none"
         d="m 1813.4,1713.09 c 3.11,-18.48 5.62,-33.68 8.26,-49.49 -19.85,8.77 -24.97,30.83 -8.26,49.49" /><path
         id="path186"
         style="fill:#ffffff;fill-opacity:1;fill-rule:evenodd;stroke:none"
         d="m 1403.73,2065.41 c -6.03,-17.43 -12.07,-34.86 -19.07,-55.09 -11.11,19.29 -1.61,33.33 8.14,42.56 3.7,3.5 -5.02,22.44 11.34,12.01 0.02,-0.01 -0.41,0.52 -0.41,0.52" /><path
         id="path188"
         style="fill:#ffffff;fill-opacity:1;fill-rule:evenodd;stroke:none"
         d="m 1252.08,1553.42 c 4.8,8.73 9.61,17.45 17.01,30.86 -4.6,-27.97 -8.51,-51.66 -12.42,-75.36 -1.5,0.18 -3.01,0.36 -4.51,0.54 0,14.69 0,29.36 0.01,44.13 0.01,0.06 -0.09,-0.17 -0.09,-0.17" /><path
         id="path190"
         style="fill:#ffffff;fill-opacity:1;fill-rule:evenodd;stroke:none"
         d="m 1084.29,1372.87 c -0.83,-16 -1.65,-31.99 -2.47,-47.97 -2.91,0.12 -5.81,0.24 -8.71,0.35 0.58,13.24 0.63,26.57 2.19,39.71 0.34,2.79 6.24,4.9 9.57,7.32" /><path
         id="path192"
         style="fill:#ffffff;fill-opacity:1;fill-rule:evenodd;stroke:none"
         d="m 1766.02,1350.8 -0.01,0.53 c 3.2,3.45 6.4,6.93 9.62,10.39 0.01,0 -0.49,-0.39 -0.49,-0.39 7.16,-1.76 14.3,-3.52 22.45,-5.55 -1.55,-7.52 -2.93,-14.06 -4.38,-21.05 -9.6,5.66 -18.39,10.87 -27.19,16.07" /><path
         id="path194"
         style="fill:#ffffff;fill-opacity:1;fill-rule:evenodd;stroke:none"
         d="m 1785.72,1232.17 c -2.2,9.82 -3.77,16.91 -5.33,23.95 6.79,6.15 13.7,12.42 23.15,21.01 -3.69,-13.77 -6.61,-24.76 -9.54,-35.76 1.85,-1.13 3.69,-2.31 5.54,-3.44 -3.94,-1.64 -7.89,-3.28 -13.82,-5.76" /><path
         id="path196"
         style="fill:#ffffff;fill-opacity:1;fill-rule:evenodd;stroke:none"
         d="m 1828.03,1452.54 c -24.39,15.96 -34.81,36.82 -29.34,56.25 9.41,-18.03 18.99,-36.39 29.34,-56.25" /><path
         id="path198"
         style="fill:#ffffff;fill-opacity:1;fill-rule:evenodd;stroke:none"
         d="m 1628.48,1265.74 c 11.72,3.96 11.59,11.62 6.5,20.82 10.96,3.4 18.32,4.45 12.22,-11.6 -4.28,-11.25 -5.43,-23.69 -7.67,-34.02 -2.88,6.44 -6.97,15.64 -11.05,24.8" /><path
         id="path200"
         style="fill:#ffffff;fill-opacity:1;fill-rule:evenodd;stroke:none"
         d="m 1511.11,1529.12 c -13.64,-6.84 -21.13,-10.58 -29.54,-14.8 -0.44,7.55 -0.87,14.91 -1.51,26.1 7.33,-2.67 17.3,-6.3 31.05,-11.3" /><path
         id="path202"
         style="fill:#ffffff;fill-opacity:1;fill-rule:evenodd;stroke:none"
         d="m 2142.09,1122.79 c 6.95,-8.46 13.91,-16.93 22.39,-27.27 -26.2,-1.75 -31.8,3.19 -28.79,21.86 2.14,1.82 4.27,3.61 6.4,5.41" /><path
         id="path204"
         style="fill:#ffffff;fill-opacity:1;fill-rule:evenodd;stroke:none"
         d="m 1826.33,1309.41 c -6.04,6.89 -12.09,13.79 -20.41,23.29 3.31,1.93 8.94,5.3 14.56,8.62 3.87,-10.03 7.74,-20.07 11.6,-30.11 -1.89,-0.58 -3.82,-1.19 -5.75,-1.8" /><path
         id="path206"
         style="fill:#ffffff;fill-opacity:1;fill-rule:evenodd;stroke:none"
         d="m 1084.86,1372.29 c 1.02,11.48 2.02,23.01 3.02,34.51 2.36,0.04 4.75,0.11 7.11,0.16 0.81,-12.03 1.62,-24.05 2.52,-37.39 -4.88,1.25 -9.1,2.32 -13.27,3.34 0.04,-0.03 0.62,-0.62 0.62,-0.62" /><path
         id="path208"
         style="fill:#ffffff;fill-opacity:1;fill-rule:evenodd;stroke:none"
         d="m 1759.73,1554.98 c 11.31,-24.75 10.19,-36.68 -4.43,-42.71 1.63,15.82 3.05,29.25 4.43,42.71" /><path
         id="path210"
         style="fill:#ffffff;fill-opacity:1;fill-rule:evenodd;stroke:none"
         d="m 1863.33,1667.75 c -2.19,12.59 -4.39,25.17 -6.59,37.74 2.11,0.39 4.2,0.79 6.31,1.19 11.15,-10.85 9.13,-24.25 6.51,-37.74 -2.07,-0.39 -4.14,-0.8 -6.23,-1.19" /><path
         id="path212"
         style="fill:#ffffff;fill-opacity:1;fill-rule:evenodd;stroke:none"
         d="m 2126.68,1102.89 c 5.21,-10.39 10.41,-20.76 17.21,-34.3 -11.39,2.68 -17.92,4.2 -28.3,6.62 7.63,3.46 12.37,5.59 25.28,11.45 -10.12,3.71 -16.94,6.21 -23.77,8.73 3.19,2.48 6.39,4.98 9.58,7.5" /><path
         id="path214"
         style="fill:#ffffff;fill-opacity:1;fill-rule:evenodd;stroke:none"
         d="m 1579.75,1381.54 c 2.52,7.77 5.04,15.55 7.53,23.3 1.65,0.22 3.29,0.39 4.93,0.57 4.21,-9.71 8.42,-19.4 13.17,-30.33 -9.67,2.61 -17.97,4.86 -26.29,7.08 0.02,-0.01 0.66,-0.62 0.66,-0.62" /><path
         id="path216"
         style="fill:#000000;fill-opacity:1;fill-rule:evenodd;stroke:none"
         d="m 1957.63,1385.29 c 2.83,8.16 5.66,16.31 8.5,24.45 1.13,0.02 2.24,0.04 3.37,0.04 l -2.61,-51.44 c -1.39,-0.43 -2.76,-0.82 -4.14,-1.25 -1.53,9.66 -3.04,19.29 -4.55,28.92 -0.01,-0.04 -0.57,-0.72 -0.57,-0.72" /><path
         id="path218"
         style="fill:#000000;fill-opacity:1;fill-rule:evenodd;stroke:none"
         d="m 1528.98,1277.68 c -8.8,7.19 -22.28,11.55 -16.62,27.5 3.02,8.5 6.14,16.95 11.32,31.23 1.95,-23.63 3.41,-41.39 4.88,-59.18 0,-0.02 0.42,0.45 0.42,0.45" /><path
         id="path220"
         style="fill:#000000;fill-opacity:1;fill-rule:evenodd;stroke:none"
         d="m 1405.45,1273.91 c 20.41,11.86 23.98,6.13 19.09,-31.99 -1.2,6.11 -3.9,12.36 -3.27,18.29 1.13,10.79 3.36,20.63 -15.82,13.7" /></g></g></svg>