<?xml version="1.0" encoding="UTF-8" standalone="no"?>
<!-- Generator: Adobe Illustrator 16.0.3, SVG Export Plug-In . SVG Version: 6.00 Build 0)  -->

<svg
   xmlns:dc="http://purl.org/dc/elements/1.1/"
   xmlns:cc="http://creativecommons.org/ns#"
   xmlns:rdf="http://www.w3.org/1999/02/22-rdf-syntax-ns#"
   xmlns:svg="http://www.w3.org/2000/svg"
   xmlns="http://www.w3.org/2000/svg"
   xmlns:sodipodi="http://sodipodi.sourceforge.net/DTD/sodipodi-0.dtd"
   xmlns:inkscape="http://www.inkscape.org/namespaces/inkscape"
   version="1.1"
   id="Ebene_1"
   x="0px"
   y="0px"
   width="60px"
   height="60px"
   viewBox="0 0 60 60"
   style="enable-background:new 0 0 60 60;"
   xml:space="preserve"
   sodipodi:docname="visual_qr_tu_quoque_de.svg"
   inkscape:version="0.92.4 (5da689c313, 2019-01-14)"><metadata
   id="metadata67"><rdf:RDF><cc:Work
       rdf:about=""><dc:format>image/svg+xml</dc:format><dc:type
         rdf:resource="http://purl.org/dc/dcmitype/StillImage" /><dc:title></dc:title></cc:Work></rdf:RDF></metadata><defs
   id="defs65" /><sodipodi:namedview
   pagecolor="#ffffff"
   bordercolor="#666666"
   borderopacity="1"
   objecttolerance="10"
   gridtolerance="10"
   guidetolerance="10"
   inkscape:pageopacity="0"
   inkscape:pageshadow="2"
   inkscape:window-width="731"
   inkscape:window-height="480"
   id="namedview63"
   showgrid="false"
   inkscape:zoom="3.9333333"
   inkscape:cx="30"
   inkscape:cy="30"
   inkscape:window-x="159"
   inkscape:window-y="54"
   inkscape:window-maximized="0"
   inkscape:current-layer="Ebene_1" />
<rect
   style="fill:#A0B983;"
   width="60"
   height="60"
   id="rect2" />
<g
   id="g22">
	<rect
   x="0.167"
   y="51.002"
   style="fill:none;"
   width="59.665"
   height="10.998"
   id="rect4" />
	<path
   style="fill:#FFFFFF;"
   d="M15.028,51.973h-1.345v-0.722h3.565v0.722h-1.359v3.999h-0.861V51.973z"
   id="path6" />
	<path
   style="fill:#FFFFFF;"
   d="M20.398,54.949c0,0.406,0.014,0.742,0.028,1.022h-0.756l-0.042-0.519h-0.014   c-0.147,0.245-0.483,0.596-1.093,0.596c-0.623,0-1.19-0.371-1.19-1.485v-2.003h0.861v1.856c0,0.567,0.182,0.932,0.638,0.932   c0.343,0,0.567-0.245,0.658-0.463c0.028-0.077,0.049-0.168,0.049-0.266v-2.06h0.862V54.949z"
   id="path8" />
	<path
   style="fill:#FFFFFF;"
   d="M26.642,56.729c-0.658-0.183-1.247-0.379-1.842-0.609c-0.105-0.035-0.203-0.063-0.308-0.07   c-1.093-0.056-2.066-0.861-2.066-2.396c0-1.457,0.904-2.479,2.255-2.479c1.366,0,2.178,1.051,2.178,2.382   c0,1.142-0.525,1.904-1.219,2.178v0.028c0.406,0.112,0.861,0.21,1.247,0.287L26.642,56.729z M25.948,53.598   c0-0.903-0.441-1.73-1.295-1.73c-0.862,0-1.324,0.819-1.317,1.766c-0.007,0.945,0.476,1.723,1.303,1.723   C25.472,55.355,25.948,54.585,25.948,53.598z"
   id="path10" />
	<path
   style="fill:#FFFFFF;"
   d="M30.575,54.949c0,0.406,0.015,0.742,0.028,1.022h-0.757l-0.042-0.519h-0.014   c-0.147,0.245-0.483,0.596-1.093,0.596c-0.623,0-1.19-0.371-1.19-1.485v-2.003h0.861v1.856c0,0.567,0.183,0.932,0.638,0.932   c0.343,0,0.567-0.245,0.658-0.463c0.028-0.077,0.049-0.168,0.049-0.266v-2.06h0.861V54.949z"
   id="path12" />
	<path
   style="fill:#FFFFFF;"
   d="M34.677,54.234c0,1.254-0.883,1.814-1.751,1.814c-0.967,0-1.709-0.665-1.709-1.758   c0-1.121,0.735-1.808,1.765-1.808C33.997,52.483,34.677,53.198,34.677,54.234z M32.106,54.27c0,0.658,0.322,1.156,0.848,1.156   c0.49,0,0.833-0.483,0.833-1.17c0-0.532-0.238-1.142-0.826-1.142C32.352,53.114,32.106,53.702,32.106,54.27z"
   id="path14" />
	<path
   style="fill:#FFFFFF;"
   d="M37.595,55.502h-0.014c-0.203,0.33-0.561,0.547-1.058,0.547c-0.764,0-1.429-0.665-1.429-1.73   c0-1.246,0.799-1.835,1.526-1.835c0.477,0,0.813,0.203,0.995,0.525l0.014,0.007l0.021-0.455h0.833   c-0.014,0.309-0.027,0.631-0.027,0.988v3.81h-0.862V55.502z M37.595,53.969c0-0.07-0.007-0.147-0.021-0.21   c-0.077-0.322-0.351-0.596-0.735-0.596c-0.554,0-0.868,0.47-0.868,1.113c0,0.624,0.301,1.093,0.847,1.093   c0.351,0,0.638-0.224,0.735-0.567c0.028-0.084,0.042-0.182,0.042-0.266V53.969z"
   id="path16" />
	<path
   style="fill:#FFFFFF;"
   d="M42.362,54.949c0,0.406,0.015,0.742,0.028,1.022h-0.757l-0.042-0.519h-0.014   c-0.147,0.245-0.483,0.596-1.093,0.596c-0.623,0-1.19-0.371-1.19-1.485v-2.003h0.861v1.856c0,0.567,0.183,0.932,0.638,0.932   c0.343,0,0.567-0.245,0.658-0.463c0.028-0.077,0.049-0.168,0.049-0.266v-2.06h0.861V54.949z"
   id="path18" />
	<path
   style="fill:#FFFFFF;"
   d="M43.831,54.508c0.021,0.616,0.505,0.883,1.051,0.883c0.399,0,0.687-0.057,0.945-0.154l0.126,0.596   c-0.294,0.118-0.7,0.21-1.19,0.21c-1.106,0-1.758-0.68-1.758-1.724c0-0.945,0.574-1.835,1.667-1.835   c1.106,0,1.471,0.911,1.471,1.66c0,0.161-0.014,0.287-0.028,0.364H43.831z M45.33,53.905c0.007-0.314-0.133-0.833-0.707-0.833   c-0.532,0-0.757,0.483-0.792,0.833H45.33z"
   id="path20" />
</g>
<g
   id="g41"
   transform="translate(-7.561529,-21.467778)">
	<g
   id="Bild"
   transform="translate(8.6,22.5)">
		
			<sodipodi:namedview
   units="mm"
   showguides="true"
   inkscape:cy="140.10525"
   inkscape:cx="100.8875"
   inkscape:zoom="1.4"
   showgrid="false"
   borderopacity="1.0"
   bordercolor="#666666"
   pagecolor="#ffffff"
   id="base"
   inkscape:document-units="mm"
   inkscape:guide-bbox="true"
   inkscape:current-layer="layer1"
   inkscape:window-maximized="1"
   inkscape:window-y="0"
   inkscape:window-x="0"
   inkscape:window-height="700"
   inkscape:window-width="702"
   inkscape:pageshadow="2"
   inkscape:pageopacity="0.0">
			<sodipodi:guide
   orientation="1,0"
   position="191.33858,0"
   id="guide21487" />
			<sodipodi:guide
   orientation="0,1"
   position="0,304.72441"
   id="guide21489" />
			<sodipodi:guide
   orientation="0,1"
   position="0,322.44094"
   id="guide26097" />
		</sodipodi:namedview>
		<g
   id="layer1"
   transform="translate(0,-910.62992)"
   inkscape:label="Ebene 1"
   inkscape:groupmode="layer">
			<path
   id="path9805"
   inkscape:connector-curvature="0"
   style="fill:#FFFFFF;"
   d="M27.894,915.008v3.564h3.565v-3.564H27.894z      M3.962,921.478v15.326h3.564v-15.326H3.962z M27.894,922.137v3.565h3.565v-3.565H27.894z M27.894,929.267v3.549h3.565v-3.549     H27.894z M50.397,931.245v15.327h3.564v-15.327H50.397z M27.894,936.38v3.564h3.565v-3.564H27.894z M18.723,939.254v3.706h3.706     v-3.706H18.723z M27.894,943.51v3.549h3.565v-3.549H27.894z M27.894,950.623v3.564h3.565v-3.564H27.894z" />
		</g>
	</g>
</g>
<g
   id="g32">
</g>
<g
   id="g34">
</g>
<g
   id="g36">
</g>
<g
   id="g38">
</g>
<g
   id="g40">
</g>
<g
   id="g42">
</g>
<g
   id="g44">
</g>
<g
   id="g46">
</g>
<g
   id="g48">
</g>
<g
   id="g50">
</g>
<g
   id="g52">
</g>
<g
   id="g54">
</g>
<g
   id="g56">
</g>
<g
   id="g58">
</g>
<g
   id="g60">
</g>
</svg>