<?xml version="1.0" encoding="iso-8859-1"?>
<!-- Generator: Adobe Illustrator 16.0.3, SVG Export Plug-In . SVG Version: 6.00 Build 0)  -->
<!DOCTYPE svg PUBLIC "-//W3C//DTD SVG 1.1//EN" "http://www.w3.org/Graphics/SVG/1.1/DTD/svg11.dtd">
<svg version="1.1" id="Ebene_1" xmlns="http://www.w3.org/2000/svg" xmlns:xlink="http://www.w3.org/1999/xlink" x="0px" y="0px"
	 width="518px" height="518px" viewBox="0 0 518 518" style="enable-background:new 0 0 518 518;" xml:space="preserve">
<path style="fill-rule:evenodd;clip-rule:evenodd;fill:#754D29;" d="M518,512c0,3.313-2.017,6-4.505,6H4.505
	C2.018,518,0,515.313,0,512V6c0-3.313,2.017-6,4.504-6h508.99C515.983,0,518,2.687,518,6V512z"/>
<g>
	<g id="XMLID_1_">
		<g>
			<path style="fill:#754D29;" d="M261.349,222.88c9.21,1.79,17.2,5.1,16.61,16.6c-0.36,7.17-5.42,11.47-16.54,14.28
				c-0.16,1.49-0.33,3.08-0.52,4.86c-1.62,0-3.03,0-4.72,0c-0.13-1.78-0.24-3.38-0.36-4.91c-11.96-3.1-16.85-8.18-16.73-17.47
				c2.08,0,4.18,0,6.46,0c0.98,5.81,3.89,9.77,10.26,10.64c0-5.78,0-11.4,0-17.36c-8.01-1.59-15.18-4.43-15.16-14.44
				c0-7.32,4.82-12.13,15.07-15.19c0.15-1.47,0.32-3.05,0.51-4.83c1.56,0,2.98,0,4.7,0c0.15,1.49,0.29,2.92,0.39,3.98
				c3.81,2.05,7.71,3.58,10.91,6.02c3.24,2.47,4.73,6.29,4.78,10.98c-2.53,0-4.49,0-6.6,0c-1.32-4.65-3.21-8.72-9.06-9.26
				C261.349,212.29,261.349,217.42,261.349,222.88z M247.519,214.65c-0.21,4.05,2.23,6.4,8.31,7.49c0-5.19,0-10.15,0-15.12
				C250.869,207.61,247.739,210.53,247.519,214.65z M261.449,246.86c6.33-0.79,9.54-3.67,9.56-8.311c0.03-4.61-2.94-7.2-9.56-8.14
				C261.449,235.81,261.449,241.18,261.449,246.86z"/>
			<path style="fill:#F5F3F2;" d="M261.449,246.86c0-5.681,0-11.05,0-16.45c6.62,0.94,9.59,3.53,9.56,8.14
				C270.989,243.19,267.779,246.07,261.449,246.86z"/>
			<path style="fill:#FDFDFD;" d="M270.409,216.04c2.11,0,4.07,0,6.6,0c-0.05-4.69-1.54-8.51-4.78-10.98
				c-3.2-2.44-7.1-3.97-10.91-6.02c-0.1-1.06-0.24-2.49-0.39-3.98c-1.72,0-3.14,0-4.7,0c-0.19,1.78-0.36,3.36-0.51,4.83
				c-10.25,3.06-15.07,7.87-15.07,15.19c-0.02,10.01,7.15,12.85,15.16,14.44c0,5.96,0,11.58,0,17.36
				c-6.37-0.87-9.28-4.83-10.26-10.64c-2.28,0-4.38,0-6.46,0c-0.12,9.29,4.77,14.37,16.73,17.47c0.12,1.53,0.23,3.13,0.36,4.91
				c1.69,0,3.1,0,4.72,0c0.19-1.78,0.36-3.37,0.52-4.86c11.12-2.81,16.18-7.109,16.54-14.28c0.59-11.5-7.4-14.81-16.61-16.6
				c0-5.46,0-10.59,0-16.1C267.199,207.32,269.089,211.39,270.409,216.04z M324.359,253.43c-0.471,6.301-0.9,12.601-1.431,18.891
				c-0.68,8.18-4.66,14.37-11.39,18.97c-8.44,5.77-17.95,8.57-27.86,10.14c-20.35,3.21-40.49,2.391-60.15-4.12
				c-21.28-7.04-29.28-17.02-30.3-39.31c-1.4-30.61,5.8-59.36,20.77-86.1c1.94-3.45,4.48-6.6,6.98-9.7
				c4.1-5.07,9.29-8.21,15.87-9.49c16.22-3.16,32.37-3.21,48.51,0.27c1.78,0.38,3.68,1.49,4.96,2.81
				c14.01,14.48,22.11,32.22,27.45,51.31C321.999,222.21,324.239,237.66,324.359,253.43z"/>
			<path style="fill:#FCFCFB;" d="M219.349,113.64c-2.28-5.76-0.93-9,5.12-10.56c6.06-1.57,12.42-2.75,18.65-2.78
				c17.14-0.08,34.29,0.36,51.43,0.93c12.04,0.4,16.03,6.59,11.82,17.98c-4.04,10.93-11.13,19.94-18.59,28.8
				c-18.04-4.96-36.08-3.6-54.88-1.38C228.299,135.47,223.699,124.6,219.349,113.64z"/>
			<path style="fill:#754D29;" d="M213.999,171.9c-14.97,26.74-22.17,55.49-20.77,86.1c1.02,22.29,9.02,32.27,30.3,39.31
				c19.66,6.511,39.8,7.33,60.15,4.12c9.91-1.569,19.42-4.37,27.86-10.14c6.73-4.6,10.71-10.79,11.39-18.97
				c0.53-6.29,0.96-12.59,1.431-18.891c-0.12-15.77-2.36-31.22-6.59-46.33c-5.34-19.09-13.44-36.83-27.45-51.31
				c-1.28-1.32-3.18-2.43-4.96-2.81c-16.14-3.48-32.29-3.43-48.51-0.27c-6.58,1.28-11.77,4.42-15.87,9.49
				C218.479,165.3,215.939,168.45,213.999,171.9z M306.369,119.21c4.21-11.39,0.22-17.58-11.82-17.98
				c-17.14-0.57-34.29-1.01-51.43-0.93c-6.23,0.03-12.59,1.21-18.65,2.78c-6.05,1.56-7.4,4.8-5.12,10.56
				c4.35,10.96,8.95,21.83,13.55,32.99c18.8-2.22,36.84-3.58,54.88,1.38C295.239,139.15,302.329,130.14,306.369,119.21z
				 M419.679,200.93c0.57,87.61-71.08,160.28-160.37,160.66c-88.46,0.38-160.09-70.49-161.13-160.5
				c0.91-91.88,75.04-160.51,160.47-160.72C346.899,40.14,419.099,111.9,419.679,200.93z"/>
			<path style="fill:#F7F6F5;" d="M255.829,222.14c-6.08-1.09-8.52-3.44-8.31-7.49c0.22-4.12,3.35-7.04,8.31-7.63
				C255.829,211.99,255.829,216.95,255.829,222.14z"/>
			<path style="fill:#FCFBFB;" d="M98.179,201.09c1.04,90.01,72.67,160.88,161.13,160.5c89.29-0.38,160.94-73.05,160.37-160.66
				c-0.58-89.03-72.779-160.79-161.03-160.56C173.219,40.58,99.089,109.21,98.179,201.09z M254.709,376.09
				c-94.72-2.21-173.28-81.439-170.77-179.76c2.41-94.42,80.57-170.87,175.1-170.34c96.51-0.58,177.17,79.81,175.04,178.93
				C432.039,300.08,352.519,378.37,254.709,376.09z"/>
		</g>
		<g>
		</g>
	</g>
</g>
<g>
	<rect y="413" style="fill-rule:evenodd;clip-rule:evenodd;fill:none;" width="518.001" height="106"/>
	<path style="fill:#FFFFFF;" d="M91.056,436.828h-6.885V450.5h-6.177v-35.547h12.5c4.102,0,7.267,0.921,9.497,2.761
		c2.229,1.841,3.345,4.505,3.345,7.99c0,2.379-0.574,4.37-1.721,5.975s-2.747,2.839-4.797,3.702l7.983,14.802v0.317h-6.616
		L91.056,436.828z M84.171,431.848h6.348c2.083,0,3.711-0.525,4.883-1.574c1.172-1.051,1.758-2.486,1.758-4.31
		c0-1.904-0.542-3.377-1.624-4.419c-1.083-1.041-2.698-1.578-4.846-1.611h-6.519V431.848z"/>
	<path style="fill:#FFFFFF;" d="M120.255,450.988c-3.76,0-6.808-1.184-9.143-3.553c-2.336-2.367-3.503-5.521-3.503-9.46v-0.732
		c0-2.637,0.508-4.993,1.526-7.067c1.017-2.076,2.445-3.69,4.285-4.847c1.839-1.155,3.89-1.733,6.152-1.733
		c3.597,0,6.376,1.147,8.337,3.442c1.961,2.295,2.942,5.542,2.942,9.741v2.393H113.59c0.179,2.182,0.907,3.906,2.185,5.176
		c1.277,1.27,2.885,1.904,4.822,1.904c2.718,0,4.932-1.099,6.641-3.296l3.198,3.052c-1.058,1.579-2.47,2.804-4.236,3.674
		C124.434,450.553,122.453,450.988,120.255,450.988z M119.547,428.356c-1.628,0-2.942,0.57-3.943,1.709
		c-1.001,1.14-1.64,2.727-1.917,4.761h11.304v-0.439c-0.13-1.985-0.659-3.487-1.587-4.504
		C122.477,428.865,121.191,428.356,119.547,428.356z"/>
	<path style="fill:#FFFFFF;" d="M135.465,417.224c0-0.911,0.289-1.668,0.867-2.271c0.578-0.602,1.404-0.903,2.478-0.903
		s1.904,0.302,2.49,0.903c0.586,0.603,0.879,1.359,0.879,2.271c0,0.896-0.293,1.64-0.879,2.233c-0.586,0.595-1.416,0.892-2.49,0.892
		s-1.9-0.297-2.478-0.892C135.754,418.863,135.465,418.119,135.465,417.224z M141.764,450.5h-5.933v-26.416h5.933V450.5z"/>
	<path style="fill:#FFFFFF;" d="M159.074,446.252c1.481,0,2.71-0.431,3.687-1.294c0.977-0.862,1.497-1.929,1.563-3.198h5.591
		c-0.065,1.645-0.578,3.178-1.538,4.602c-0.96,1.425-2.263,2.552-3.906,3.382c-1.644,0.83-3.418,1.245-5.322,1.245
		c-3.695,0-6.625-1.196-8.789-3.589c-2.165-2.393-3.247-5.696-3.247-9.912v-0.61c0-4.02,1.074-7.238,3.223-9.656
		c2.148-2.416,5.078-3.625,8.789-3.625c3.141,0,5.701,0.916,7.678,2.746c1.978,1.832,3.015,4.236,3.113,7.215h-5.591
		c-0.065-1.514-0.582-2.759-1.55-3.735c-0.969-0.977-2.202-1.465-3.699-1.465c-1.921,0-3.402,0.696-4.443,2.087
		c-1.042,1.393-1.571,3.504-1.587,6.336v0.952c0,2.865,0.517,5.001,1.55,6.409C155.627,445.548,157.121,446.252,159.074,446.252z"/>
	<path style="fill:#FFFFFF;" d="M180.241,426.965c1.937-2.246,4.386-3.369,7.349-3.369c5.631,0,8.488,3.215,8.569,9.644V450.5
		h-5.933v-17.041c0-1.822-0.395-3.113-1.184-3.869c-0.79-0.758-1.949-1.136-3.479-1.136c-2.376,0-4.15,1.059-5.322,3.174V450.5
		h-5.933V413h5.933V426.965z"/>
	<path style="fill:#FFFFFF;" d="M214.616,417.224c0-0.911,0.289-1.668,0.867-2.271c0.578-0.602,1.404-0.903,2.478-0.903
		s1.904,0.302,2.49,0.903c0.586,0.603,0.879,1.359,0.879,2.271c0,0.896-0.293,1.64-0.879,2.233c-0.586,0.595-1.416,0.892-2.49,0.892
		s-1.9-0.297-2.478-0.892C214.904,418.863,214.616,418.119,214.616,417.224z M220.915,450.5h-5.933v-26.416h5.933V450.5z"/>
	<path style="fill:#FFFFFF;" d="M242.179,443.322c0-1.058-0.436-1.863-1.306-2.417c-0.871-0.553-2.315-1.041-4.333-1.465
		c-2.019-0.423-3.703-0.96-5.054-1.611c-2.962-1.432-4.443-3.507-4.443-6.226c0-2.278,0.96-4.183,2.881-5.713
		c1.92-1.529,4.362-2.295,7.324-2.295c3.157,0,5.708,0.781,7.654,2.344c1.945,1.563,2.917,3.589,2.917,6.079h-5.933
		c0-1.139-0.423-2.087-1.27-2.845c-0.847-0.756-1.97-1.135-3.369-1.135c-1.302,0-2.364,0.302-3.186,0.903
		c-0.822,0.603-1.233,1.408-1.233,2.417c0,0.912,0.382,1.62,1.147,2.124c0.765,0.505,2.311,1.013,4.639,1.526
		c2.327,0.512,4.154,1.123,5.481,1.83c1.326,0.709,2.311,1.56,2.954,2.552c0.643,0.993,0.964,2.197,0.964,3.613
		c0,2.377-0.985,4.301-2.954,5.774c-1.97,1.473-4.549,2.209-7.739,2.209c-2.165,0-4.094-0.391-5.786-1.172
		c-1.693-0.781-3.011-1.855-3.955-3.223c-0.944-1.367-1.416-2.84-1.416-4.419h5.762c0.081,1.4,0.61,2.478,1.587,3.235
		c0.977,0.756,2.271,1.135,3.882,1.135c1.563,0,2.75-0.297,3.564-0.891C241.772,445.06,242.179,444.283,242.179,443.322z"/>
	<path style="fill:#FFFFFF;" d="M260.612,417.663v6.421h4.663v4.395h-4.663v14.746c0,1.01,0.199,1.737,0.598,2.186
		c0.398,0.447,1.111,0.671,2.136,0.671c0.684,0,1.375-0.081,2.075-0.244v4.59c-1.351,0.374-2.653,0.562-3.906,0.562
		c-4.558,0-6.836-2.515-6.836-7.544v-14.966h-4.346v-4.395h4.346v-6.421H260.612z"/>
	<path style="fill:#FFFFFF;" d="M305.436,437.561c0,4.102-0.916,7.365-2.747,9.79c-1.831,2.426-4.35,3.638-7.556,3.638
		c-3.093,0-5.501-1.114-7.227-3.345l-0.293,2.856h-5.371V413h5.933v13.623c1.709-2.018,4.012-3.027,6.909-3.027
		c3.223,0,5.753,1.196,7.593,3.589c1.839,2.393,2.759,5.737,2.759,10.034V437.561z M299.503,437.048
		c0-2.864-0.505-5.013-1.514-6.445c-1.009-1.432-2.474-2.148-4.395-2.148c-2.572,0-4.378,1.123-5.42,3.369v10.889
		c1.058,2.295,2.881,3.442,5.469,3.442c1.855,0,3.288-0.691,4.297-2.075c1.009-1.383,1.53-3.475,1.563-6.274V437.048z"/>
	<path style="fill:#FFFFFF;" d="M322.038,450.988c-3.76,0-6.808-1.184-9.144-3.553c-2.336-2.367-3.503-5.521-3.503-9.46v-0.732
		c0-2.637,0.508-4.993,1.526-7.067c1.017-2.076,2.445-3.69,4.285-4.847c1.839-1.155,3.89-1.733,6.152-1.733
		c3.596,0,6.375,1.147,8.337,3.442c1.961,2.295,2.941,5.542,2.941,9.741v2.393h-17.26c0.179,2.182,0.907,3.906,2.185,5.176
		c1.277,1.27,2.885,1.904,4.822,1.904c2.717,0,4.932-1.099,6.641-3.296l3.198,3.052c-1.059,1.579-2.471,2.804-4.236,3.674
		C326.216,450.553,324.235,450.988,322.038,450.988z M321.33,428.356c-1.628,0-2.942,0.57-3.943,1.709
		c-1.001,1.14-1.64,2.727-1.917,4.761h11.304v-0.439c-0.131-1.985-0.66-3.487-1.588-4.504
		C324.259,428.865,322.974,428.356,321.33,428.356z"/>
	<path style="fill:#FFFFFF;" d="M352.042,443.322c0-1.058-0.436-1.863-1.306-2.417c-0.871-0.553-2.316-1.041-4.334-1.465
		c-2.019-0.423-3.703-0.96-5.054-1.611c-2.963-1.432-4.443-3.507-4.443-6.226c0-2.278,0.96-4.183,2.881-5.713
		c1.92-1.529,4.361-2.295,7.324-2.295c3.157,0,5.709,0.781,7.653,2.344c1.945,1.563,2.918,3.589,2.918,6.079h-5.933
		c0-1.139-0.424-2.087-1.27-2.845c-0.847-0.756-1.97-1.135-3.369-1.135c-1.303,0-2.364,0.302-3.187,0.903
		c-0.821,0.603-1.232,1.408-1.232,2.417c0,0.912,0.382,1.62,1.147,2.124c0.765,0.505,2.311,1.013,4.639,1.526
		c2.327,0.512,4.154,1.123,5.481,1.83c1.326,0.709,2.311,1.56,2.953,2.552c0.644,0.993,0.965,2.197,0.965,3.613
		c0,2.377-0.985,4.301-2.954,5.774c-1.97,1.473-4.55,2.209-7.739,2.209c-2.165,0-4.094-0.391-5.786-1.172
		c-1.693-0.781-3.012-1.855-3.955-3.223c-0.944-1.367-1.416-2.84-1.416-4.419h5.762c0.081,1.4,0.61,2.478,1.587,3.235
		c0.977,0.756,2.271,1.135,3.882,1.135c1.563,0,2.75-0.297,3.564-0.891C351.635,445.06,352.042,444.283,352.042,443.322z"/>
	<path style="fill:#FFFFFF;" d="M377.848,443.322c0-1.058-0.436-1.863-1.306-2.417c-0.871-0.553-2.316-1.041-4.334-1.465
		c-2.019-0.423-3.703-0.96-5.054-1.611c-2.963-1.432-4.443-3.507-4.443-6.226c0-2.278,0.96-4.183,2.881-5.713
		c1.92-1.529,4.361-2.295,7.324-2.295c3.157,0,5.709,0.781,7.653,2.344c1.945,1.563,2.918,3.589,2.918,6.079h-5.933
		c0-1.139-0.424-2.087-1.27-2.845c-0.847-0.756-1.97-1.135-3.369-1.135c-1.303,0-2.364,0.302-3.187,0.903
		c-0.821,0.603-1.232,1.408-1.232,2.417c0,0.912,0.382,1.62,1.147,2.124c0.765,0.505,2.311,1.013,4.639,1.526
		c2.327,0.512,4.154,1.123,5.481,1.83c1.326,0.709,2.311,1.56,2.953,2.552c0.644,0.993,0.965,2.197,0.965,3.613
		c0,2.377-0.985,4.301-2.954,5.774c-1.97,1.473-4.55,2.209-7.739,2.209c-2.165,0-4.094-0.391-5.786-1.172
		c-1.693-0.781-3.012-1.855-3.955-3.223c-0.944-1.367-1.416-2.84-1.416-4.419h5.762c0.081,1.4,0.61,2.478,1.587,3.235
		c0.977,0.756,2.271,1.135,3.882,1.135c1.563,0,2.75-0.297,3.564-0.891C377.44,445.06,377.848,444.283,377.848,443.322z"/>
	<path style="fill:#FFFFFF;" d="M400.479,450.988c-3.76,0-6.808-1.184-9.144-3.553c-2.335-2.367-3.503-5.521-3.503-9.46v-0.732
		c0-2.637,0.509-4.993,1.526-7.067c1.017-2.076,2.444-3.69,4.284-4.847c1.839-1.155,3.89-1.733,6.152-1.733
		c3.597,0,6.376,1.147,8.337,3.442c1.962,2.295,2.942,5.542,2.942,9.741v2.393h-17.261c0.179,2.182,0.907,3.906,2.186,5.176
		c1.277,1.27,2.884,1.904,4.821,1.904c2.718,0,4.932-1.099,6.641-3.296l3.198,3.052c-1.059,1.579-2.47,2.804-4.236,3.674
		C404.658,450.553,402.677,450.988,400.479,450.988z M399.771,428.356c-1.628,0-2.941,0.57-3.943,1.709
		c-1,1.14-1.64,2.727-1.916,4.761h11.304v-0.439c-0.131-1.985-0.659-3.487-1.587-4.504
		C402.701,428.865,401.415,428.356,399.771,428.356z"/>
	<path style="fill:#FFFFFF;" d="M429.508,429.504c-0.781-0.13-1.587-0.195-2.417-0.195c-2.719,0-4.55,1.042-5.493,3.125V450.5
		h-5.933v-26.416h5.664l0.146,2.954c1.432-2.295,3.418-3.442,5.957-3.442c0.846,0,1.546,0.114,2.1,0.342L429.508,429.504z"/>
	<path style="fill:#FFFFFF;" d="M433.707,447.705c0-0.925,0.301-1.69,0.903-2.299c0.602-0.608,1.424-0.912,2.466-0.912
		c1.041,0,1.863,0.304,2.466,0.912c0.602,0.608,0.903,1.374,0.903,2.299c0,0.892-0.293,1.637-0.879,2.237
		c-0.586,0.6-1.416,0.899-2.49,0.899s-1.904-0.3-2.49-0.899C434,449.342,433.707,448.597,433.707,447.705z M439.542,440.051h-5.103
		l-0.562-25.098h6.25L439.542,440.051z"/>
</g>
</svg>
