<?xml version="1.0" encoding="iso-8859-1"?>
<!-- Generator: Adobe Illustrator 16.0.3, SVG Export Plug-In . SVG Version: 6.00 Build 0)  -->
<!DOCTYPE svg PUBLIC "-//W3C//DTD SVG 1.1//EN" "http://www.w3.org/Graphics/SVG/1.1/DTD/svg11.dtd">
<svg version="1.1" id="Ebene_1" xmlns="http://www.w3.org/2000/svg" xmlns:xlink="http://www.w3.org/1999/xlink" x="0px" y="0px"
	 width="518px" height="518px" viewBox="0 0 518 518" style="enable-background:new 0 0 518 518;" xml:space="preserve">
<path style="fill-rule:evenodd;clip-rule:evenodd;fill:#1680B8;" d="M518,512c0,3.313-2.017,6-4.505,6H4.505
	C2.018,518,0,515.313,0,512V6c0-3.313,2.017-6,4.504-6h508.99C515.983,0,518,2.687,518,6V512z"/>
<g>
	<g id="XMLID_1_">
		<g>
			<path style="fill:#FCFBFB;" d="M259.039,25.99c96.51-0.58,177.17,79.81,175.04,178.93c-2.04,95.16-81.561,173.45-179.37,171.17
				c-94.72-2.21-173.28-81.439-170.77-179.76C86.349,101.91,164.509,25.46,259.039,25.99z M259.309,361.59
				c89.29-0.38,160.94-73.05,160.37-160.66c-0.58-89.03-72.779-160.79-161.03-160.56c-85.43,0.21-159.56,68.84-160.47,160.72
				C99.219,291.1,170.849,361.97,259.309,361.59z"/>
			<path style="fill:#1680B8;" d="M419.679,200.93c0.57,87.61-71.08,160.28-160.37,160.66c-88.46,0.38-160.09-70.49-161.13-160.5
				c0.91-91.88,75.04-160.51,160.47-160.72C346.899,40.14,419.099,111.9,419.679,200.93z"/>
		</g>
		<g>
		</g>
	</g>
</g>
<g>
	<rect x="-7.001" y="413" style="fill-rule:evenodd;clip-rule:evenodd;fill:none;" width="525.002" height="106"/>
	<path style="fill:#FFFFFF;" d="M132.832,442.224h-13.77l-2.881,8.276h-6.421l13.428-35.547h5.542l13.452,35.547h-6.445
		L132.832,442.224z M120.795,437.243h10.303l-5.151-14.746L120.795,437.243z"/>
	<path style="fill:#FFFFFF;" d="M144.526,437.097c0-4.068,0.944-7.337,2.832-9.802c1.888-2.467,4.419-3.699,7.593-3.699
		c2.799,0,5.062,0.977,6.787,2.93V413h5.933v37.5h-5.371l-0.293-2.734c-1.774,2.148-4.143,3.223-7.104,3.223
		c-3.093,0-5.595-1.245-7.507-3.735C145.482,444.763,144.526,441.378,144.526,437.097z M150.458,437.609
		c0,2.686,0.517,4.781,1.55,6.287c1.033,1.505,2.502,2.258,4.407,2.258c2.425,0,4.199-1.082,5.322-3.247v-11.279
		c-1.091-2.115-2.849-3.174-5.273-3.174c-1.921,0-3.402,0.761-4.443,2.282C150.979,432.259,150.458,434.55,150.458,437.609z"/>
	<path style="fill:#FFFFFF;" d="M215.107,450.5h-6.152v-15.771h-15.894V450.5h-6.177v-35.547h6.177v14.795h15.894v-14.795h6.152
		V450.5z"/>
	<path style="fill:#FFFFFF;" d="M220.722,437.048c0-2.588,0.513-4.919,1.538-6.995c1.025-2.074,2.466-3.67,4.321-4.785
		c1.855-1.114,3.987-1.672,6.396-1.672c3.564,0,6.458,1.147,8.679,3.442s3.422,5.339,3.601,9.131l0.024,1.392
		c0,2.604-0.5,4.932-1.501,6.982s-2.434,3.638-4.297,4.761c-1.864,1.123-4.016,1.685-6.458,1.685c-3.728,0-6.71-1.241-8.948-3.723
		c-2.238-2.482-3.357-5.79-3.357-9.925V437.048z M226.655,437.561c0,2.719,0.562,4.846,1.685,6.385
		c1.123,1.537,2.686,2.307,4.688,2.307s3.56-0.781,4.675-2.344c1.115-1.563,1.672-3.849,1.672-6.86c0-2.669-0.574-4.785-1.721-6.348
		s-2.706-2.344-4.675-2.344c-1.937,0-3.475,0.769-4.614,2.308C227.224,432.201,226.655,434.501,226.655,437.561z"/>
	<path style="fill:#FFFFFF;" d="M255.878,424.084l0.171,2.759c1.855-2.164,4.395-3.247,7.617-3.247c3.532,0,5.949,1.352,7.251,4.053
		c1.92-2.701,4.622-4.053,8.105-4.053c2.913,0,5.082,0.806,6.506,2.417c1.424,1.611,2.152,3.988,2.185,7.129V450.5h-5.933v-17.188
		c0-1.676-0.366-2.905-1.099-3.687s-1.945-1.172-3.638-1.172c-1.351,0-2.454,0.362-3.308,1.087
		c-0.854,0.724-1.453,1.672-1.794,2.844l0.024,18.115h-5.933v-17.383c-0.082-3.108-1.668-4.663-4.761-4.663
		c-2.376,0-4.061,0.969-5.054,2.905V450.5h-5.933v-26.416H255.878z"/>
	<path style="fill:#FFFFFF;" d="M293.818,417.224c0-0.911,0.289-1.668,0.867-2.271c0.578-0.602,1.404-0.903,2.478-0.903
		s1.904,0.302,2.49,0.903c0.586,0.603,0.879,1.359,0.879,2.271c0,0.896-0.293,1.64-0.879,2.233c-0.586,0.595-1.416,0.892-2.49,0.892
		s-1.9-0.297-2.478-0.892C294.106,418.863,293.818,418.119,293.818,417.224z M300.117,450.5h-5.933v-26.416h5.933V450.5z"/>
	<path style="fill:#FFFFFF;" d="M312.08,424.084l0.171,3.052c1.953-2.359,4.517-3.54,7.69-3.54c5.501,0,8.3,3.149,8.398,9.448V450.5
		h-5.932v-17.114c0-1.676-0.363-2.917-1.087-3.724c-0.725-0.805-1.909-1.208-3.552-1.208c-2.393,0-4.175,1.083-5.347,3.247V450.5
		h-5.933v-26.416H312.08z"/>
	<path style="fill:#FFFFFF;" d="M346.015,450.988c-3.76,0-6.808-1.184-9.144-3.553c-2.335-2.367-3.503-5.521-3.503-9.46v-0.732
		c0-2.637,0.509-4.993,1.526-7.067c1.017-2.076,2.444-3.69,4.284-4.847c1.839-1.155,3.89-1.733,6.152-1.733
		c3.597,0,6.376,1.147,8.337,3.442c1.962,2.295,2.942,5.542,2.942,9.741v2.393H339.35c0.179,2.182,0.907,3.906,2.186,5.176
		c1.277,1.27,2.884,1.904,4.821,1.904c2.718,0,4.932-1.099,6.641-3.296l3.198,3.052c-1.059,1.579-2.47,2.804-4.236,3.674
		C350.193,450.553,348.212,450.988,346.015,450.988z M345.307,428.356c-1.628,0-2.941,0.57-3.943,1.709
		c-1,1.14-1.64,2.727-1.916,4.761h11.304v-0.439c-0.131-1.985-0.659-3.487-1.587-4.504
		C348.236,428.865,346.95,428.356,345.307,428.356z"/>
	<path style="fill:#FFFFFF;" d="M366.791,424.084l0.171,2.759c1.855-2.164,4.395-3.247,7.617-3.247c3.531,0,5.948,1.352,7.251,4.053
		c1.92-2.701,4.622-4.053,8.105-4.053c2.913,0,5.082,0.806,6.507,2.417c1.424,1.611,2.151,3.988,2.185,7.129V450.5h-5.933v-17.188
		c0-1.676-0.366-2.905-1.099-3.687s-1.945-1.172-3.638-1.172c-1.352,0-2.453,0.362-3.309,1.087
		c-0.854,0.724-1.452,1.672-1.794,2.844l0.024,18.115h-5.933v-17.383c-0.082-3.108-1.669-4.663-4.761-4.663
		c-2.377,0-4.062,0.969-5.054,2.905V450.5H361.2v-26.416H366.791z"/>
</g>
<path style="fill-rule:evenodd;clip-rule:evenodd;fill:#FAFCFD;" d="M242.52,214.608c0,6.437,0.019,12.873-0.009,19.31
	c-0.012,2.496,0.461,5.215-0.375,7.419c-0.725,1.909-2.732,4.027-4.629,4.638c-3.131,1.008-4.834-1.377-5.453-4.317
	c-0.272-1.298-0.467-2.643-0.461-3.965c0.045-13.157-0.037-26.319,0.291-39.471c0.174-6.971,3.869-10.182,10.849-10.214
	c12.165-0.055,24.329-0.056,36.493,0c7.24,0.033,11.24,3.896,11.239,11.06c-0.001,12.325-0.153,24.651-0.349,36.976
	c-0.031,1.965-0.121,4.226-1.086,5.795c-0.963,1.568-3.128,3.441-4.639,3.337c-1.521-0.105-3.879-2.313-4.139-3.886
	c-0.807-4.896-0.881-9.925-1.069-14.908c-0.144-3.79-0.028-7.59-1.177-11.411c0,1.664,0.002,3.328-0.001,4.992
	c-0.054,28.493-0.097,56.987-0.177,85.48c-0.014,4.782-2.804,8.865-6.591,9.37c-4.159,0.555-7.118-1.506-8.679-5.252
	c-0.607-1.459-0.541-3.256-0.546-4.899c-0.04-12.331-0.022-24.662-0.022-36.993c0-1.651,0-3.303,0-4.953
	c-0.363-0.042-0.729-0.083-1.093-0.124c-0.24,1.787-0.681,3.574-0.688,5.362c-0.061,12.665-0.011,25.329-0.043,37.994
	c-0.015,5.945-2.39,8.475-7.867,8.558c-5.225,0.08-8.107-2.78-8.118-8.514c-0.055-28.662-0.026-57.324-0.026-85.985
	c0-1.786,0-3.572,0-5.358C243.61,214.635,243.065,214.621,242.52,214.608z"/>
<path style="fill-rule:evenodd;clip-rule:evenodd;fill:#FAFCFD;" d="M275.495,172.661c-0.412,7.855-8.318,14.795-16.336,14.336
	c-7.669-0.438-14.535-7.886-14.153-15.351c0.399-7.799,8.376-15.402,15.864-15.122C268.655,156.815,275.905,164.814,275.495,172.661
	z"/>
<path style="fill-rule:evenodd;clip-rule:evenodd;fill:#EEF6FB;" d="M250.573,124.325c3.041-0.174,5.01-0.286,7.36-0.42
	c0-10.563,0-20.998,0-32.075c2.021-0.105,3.685-0.192,5.927-0.309c0,11.073,0,21.637,0,32.354c2.494,0.156,4.453,0.279,7.412,0.465
	c-3.449,5.988-6.661,11.565-10.323,17.923C257.313,135.978,254.133,130.479,250.573,124.325z"/>
<path style="fill-rule:evenodd;clip-rule:evenodd;fill:#F2F8FB;" d="M298.056,139.918c2.264,2.678,3.605,4.264,5.394,6.379
	c-6.61,1.797-12.636,3.435-19.767,5.373c1.877-7.053,3.54-13.306,5.328-20.024c2.098,1.92,3.682,3.368,5.145,4.708
	c7.495-7.58,14.938-15.107,22.641-22.897c1.961,1.69,3.139,2.704,4.324,3.727C313.382,124.811,305.841,132.245,298.056,139.918z"/>
<path style="fill-rule:evenodd;clip-rule:evenodd;fill:#F5FAFC;" d="M200.343,117.359c1.291-1.14,2.487-2.196,3.98-3.515
	c7.616,7.832,15,15.426,22.594,23.234c2.158-1.921,3.83-3.409,5.967-5.312c1.773,6.547,3.436,12.689,5.38,19.87
	c-6.925-1.81-13.034-3.406-19.782-5.169c1.818-2.201,3.234-3.916,5.039-6.102C215.911,132.813,208.401,125.359,200.343,117.359z"/>
</svg>
