<?xml version="1.0" encoding="iso-8859-1"?>
<!-- Generator: Adobe Illustrator 16.0.3, SVG Export Plug-In . SVG Version: 6.00 Build 0)  -->
<!DOCTYPE svg PUBLIC "-//W3C//DTD SVG 1.1//EN" "http://www.w3.org/Graphics/SVG/1.1/DTD/svg11.dtd">
<svg version="1.1" id="Ebene_1" xmlns="http://www.w3.org/2000/svg" xmlns:xlink="http://www.w3.org/1999/xlink" x="0px" y="0px"
	 width="518px" height="518px" viewBox="0 0 518 518" style="enable-background:new 0 0 518 518;" xml:space="preserve">
<path style="fill-rule:evenodd;clip-rule:evenodd;fill:#458C79;" d="M518,512c0,3.313-2.017,6-4.505,6H4.505
	C2.018,518,0,515.313,0,512V6c0-3.313,2.017-6,4.504-6h508.99C515.983,0,518,2.687,518,6V512z"/>
<g>
	<g id="XMLID_1_">
		<g>
			<path style="fill:#FCFBFB;" d="M259.039,25.99c96.51-0.58,177.17,79.81,175.04,178.93c-2.04,95.16-81.561,173.45-179.37,171.17
				c-94.72-2.21-173.28-81.439-170.77-179.76C86.349,101.91,164.509,25.46,259.039,25.99z M259.309,361.59
				c89.29-0.38,160.94-73.05,160.37-160.66c-0.58-89.03-72.779-160.79-161.03-160.56c-85.43,0.21-159.56,68.84-160.47,160.72
				C99.219,291.1,170.849,361.97,259.309,361.59z"/>
			<path style="fill:#458C79;" d="M419.679,200.93c0.57,87.61-71.08,160.28-160.37,160.66c-88.46,0.38-160.09-70.49-161.13-160.5
				c0.91-91.88,75.04-160.51,160.47-160.72C346.899,40.14,419.099,111.9,419.679,200.93z"/>
		</g>
		<g>
		</g>
	</g>
</g>
<g>
	<rect x="-7.001" y="413" style="fill-rule:evenodd;clip-rule:evenodd;fill:none;" width="525.002" height="106"/>
	<path style="fill:#FFFFFF;" d="M142.451,419.934h-11.084V450.5h-6.128v-30.566h-10.986v-4.98h28.198V419.934z"/>
	<path style="fill:#FFFFFF;" d="M156,450.988c-3.76,0-6.808-1.184-9.143-3.553c-2.336-2.367-3.503-5.521-3.503-9.46v-0.732
		c0-2.637,0.508-4.993,1.526-7.067c1.017-2.076,2.445-3.69,4.285-4.847c1.839-1.155,3.89-1.733,6.152-1.733
		c3.597,0,6.376,1.147,8.337,3.442c1.961,2.295,2.942,5.542,2.942,9.741v2.393h-17.261c0.179,2.182,0.907,3.906,2.185,5.176
		c1.277,1.27,2.885,1.904,4.822,1.904c2.718,0,4.932-1.099,6.641-3.296l3.198,3.052c-1.058,1.579-2.47,2.804-4.236,3.674
		C160.179,450.553,158.198,450.988,156,450.988z M155.292,428.356c-1.628,0-2.942,0.57-3.943,1.709
		c-1.001,1.14-1.64,2.727-1.917,4.761h11.304v-0.439c-0.13-1.985-0.659-3.487-1.587-4.504
		C158.222,428.865,156.936,428.356,155.292,428.356z"/>
	<path style="fill:#FFFFFF;" d="M176.704,424.084l0.171,3.052c1.953-2.359,4.517-3.54,7.69-3.54c5.501,0,8.301,3.149,8.398,9.448
		V450.5h-5.933v-17.114c0-1.676-0.362-2.917-1.086-3.724c-0.725-0.805-1.909-1.208-3.552-1.208c-2.393,0-4.175,1.083-5.347,3.247
		V450.5h-5.933v-26.416H176.704z"/>
	<path style="fill:#FFFFFF;" d="M197.895,437.097c0-4.068,0.944-7.337,2.832-9.802c1.888-2.467,4.419-3.699,7.593-3.699
		c2.799,0,5.062,0.977,6.787,2.93V413h5.933v37.5h-5.371l-0.293-2.734c-1.774,2.148-4.143,3.223-7.104,3.223
		c-3.093,0-5.595-1.245-7.507-3.735C198.851,444.763,197.895,441.378,197.895,437.097z M203.828,437.609
		c0,2.686,0.517,4.781,1.55,6.287c1.033,1.505,2.502,2.258,4.407,2.258c2.425,0,4.199-1.082,5.322-3.247v-11.279
		c-1.091-2.115-2.849-3.174-5.273-3.174c-1.921,0-3.402,0.761-4.443,2.282C204.348,432.259,203.828,434.55,203.828,437.609z"/>
	<path style="fill:#FFFFFF;" d="M238.862,450.988c-3.76,0-6.808-1.184-9.143-3.553c-2.336-2.367-3.503-5.521-3.503-9.46v-0.732
		c0-2.637,0.508-4.993,1.526-7.067c1.017-2.076,2.445-3.69,4.285-4.847c1.839-1.155,3.89-1.733,6.152-1.733
		c3.597,0,6.376,1.147,8.337,3.442c1.961,2.295,2.942,5.542,2.942,9.741v2.393h-17.261c0.179,2.182,0.907,3.906,2.185,5.176
		c1.277,1.27,2.885,1.904,4.822,1.904c2.718,0,4.932-1.099,6.641-3.296l3.198,3.052c-1.058,1.579-2.47,2.804-4.236,3.674
		C243.041,450.553,241.059,450.988,238.862,450.988z M238.154,428.356c-1.628,0-2.942,0.57-3.943,1.709
		c-1.001,1.14-1.64,2.727-1.917,4.761h11.304v-0.439c-0.13-1.985-0.659-3.487-1.587-4.504
		C241.083,428.865,239.797,428.356,238.154,428.356z"/>
	<path style="fill:#FFFFFF;" d="M259.565,424.084l0.171,3.052c1.953-2.359,4.517-3.54,7.69-3.54c5.501,0,8.301,3.149,8.398,9.448
		V450.5h-5.933v-17.114c0-1.676-0.362-2.917-1.086-3.724c-0.725-0.805-1.909-1.208-3.552-1.208c-2.393,0-4.175,1.083-5.347,3.247
		V450.5h-5.933v-26.416H259.565z"/>
	<path style="fill:#FFFFFF;" d="M288.203,445.764h14.063v4.736H280.83v-3.882l13.403-17.749h-13.159v-4.785h20.679v3.76
		L288.203,445.764z"/>
	<path style="fill:#FFFFFF;" d="M307.026,417.224c0-0.911,0.289-1.668,0.867-2.271c0.578-0.602,1.404-0.903,2.478-0.903
		s1.904,0.302,2.49,0.903c0.586,0.603,0.879,1.359,0.879,2.271c0,0.896-0.293,1.64-0.879,2.233c-0.586,0.595-1.416,0.892-2.49,0.892
		s-1.9-0.297-2.478-0.892C307.314,418.863,307.026,418.119,307.026,417.224z M313.325,450.5h-5.933v-26.416h5.933V450.5z"/>
	<path style="fill:#FFFFFF;" d="M318.671,437.048c0-2.588,0.513-4.919,1.538-6.995c1.025-2.074,2.465-3.67,4.321-4.785
		c1.855-1.114,3.988-1.672,6.397-1.672c3.564,0,6.457,1.147,8.678,3.442c2.223,2.295,3.422,5.339,3.602,9.131l0.025,1.392
		c0,2.604-0.502,4.932-1.502,6.982c-1.002,2.051-2.434,3.638-4.297,4.761s-4.016,1.685-6.457,1.685c-3.728,0-6.71-1.241-8.948-3.723
		c-2.238-2.482-3.357-5.79-3.357-9.925V437.048z M322.163,417.15c0-0.813,0.271-1.497,0.817-2.051
		c0.545-0.553,1.298-0.83,2.259-0.83c0.959,0,1.717,0.277,2.27,0.83c0.554,0.554,0.83,1.237,0.83,2.051
		c0,0.814-0.276,1.498-0.83,2.051c-0.553,0.554-1.311,0.83-2.27,0.83c-0.961,0-1.714-0.276-2.259-0.83
		C322.435,418.648,322.163,417.965,322.163,417.15z M324.604,437.561c0,2.719,0.561,4.846,1.684,6.385
		c1.123,1.537,2.686,2.307,4.688,2.307c2.002,0,3.561-0.781,4.674-2.344c1.115-1.563,1.674-3.849,1.674-6.86
		c0-2.669-0.574-4.785-1.723-6.348c-1.146-1.563-2.705-2.344-4.674-2.344c-1.938,0-3.476,0.769-4.614,2.308
		C325.173,432.201,324.604,434.501,324.604,437.561z M333.32,417.175c0-0.813,0.271-1.497,0.816-2.051
		c0.547-0.553,1.299-0.83,2.26-0.83c0.959,0,1.717,0.277,2.27,0.83c0.553,0.554,0.83,1.237,0.83,2.051
		c0,0.814-0.277,1.498-0.83,2.051c-0.553,0.554-1.311,0.83-2.27,0.83c-0.961,0-1.713-0.276-2.26-0.83
		C333.592,418.673,333.32,417.989,333.32,417.175z"/>
	<path style="fill:#FFFFFF;" d="M363.057,443.322c0-1.058-0.436-1.863-1.306-2.417c-0.871-0.553-2.316-1.041-4.334-1.465
		c-2.019-0.423-3.703-0.96-5.054-1.611c-2.963-1.432-4.443-3.507-4.443-6.226c0-2.278,0.96-4.183,2.881-5.713
		c1.92-1.529,4.361-2.295,7.324-2.295c3.157,0,5.709,0.781,7.653,2.344c1.945,1.563,2.918,3.589,2.918,6.079h-5.933
		c0-1.139-0.424-2.087-1.27-2.845c-0.847-0.756-1.97-1.135-3.369-1.135c-1.303,0-2.364,0.302-3.187,0.903
		c-0.821,0.603-1.232,1.408-1.232,2.417c0,0.912,0.382,1.62,1.147,2.124c0.765,0.505,2.311,1.013,4.639,1.526
		c2.327,0.512,4.154,1.123,5.481,1.83c1.326,0.709,2.311,1.56,2.953,2.552c0.644,0.993,0.965,2.197,0.965,3.613
		c0,2.377-0.985,4.301-2.954,5.774c-1.97,1.473-4.55,2.209-7.739,2.209c-2.165,0-4.094-0.391-5.786-1.172
		c-1.693-0.781-3.012-1.855-3.955-3.223c-0.944-1.367-1.416-2.84-1.416-4.419h5.762c0.081,1.4,0.61,2.478,1.587,3.235
		c0.977,0.756,2.271,1.135,3.882,1.135c1.563,0,2.75-0.297,3.564-0.891C362.649,445.06,363.057,444.283,363.057,443.322z"/>
	<path style="fill:#FFFFFF;" d="M385.688,450.988c-3.76,0-6.808-1.184-9.144-3.553c-2.335-2.367-3.503-5.521-3.503-9.46v-0.732
		c0-2.637,0.509-4.993,1.526-7.067c1.017-2.076,2.444-3.69,4.284-4.847c1.839-1.155,3.89-1.733,6.152-1.733
		c3.597,0,6.376,1.147,8.337,3.442c1.962,2.295,2.942,5.542,2.942,9.741v2.393h-17.261c0.179,2.182,0.907,3.906,2.186,5.176
		c1.277,1.27,2.884,1.904,4.821,1.904c2.718,0,4.932-1.099,6.641-3.296l3.198,3.052c-1.059,1.579-2.47,2.804-4.236,3.674
		C389.867,450.553,387.886,450.988,385.688,450.988z M384.98,428.356c-1.628,0-2.941,0.57-3.943,1.709
		c-1,1.14-1.64,2.727-1.916,4.761h11.304v-0.439c-0.131-1.985-0.659-3.487-1.587-4.504
		C387.91,428.865,386.624,428.356,384.98,428.356z"/>
	<path style="fill:#FFFFFF;" d="M111.054,466.953v23.755c0,3.776-1.208,6.767-3.625,8.972c-2.417,2.206-5.636,3.309-9.656,3.309
		c-4.069,0-7.3-1.086-9.692-3.26c-2.393-2.172-3.589-5.188-3.589-9.045v-23.73h6.152v23.779c0,2.377,0.602,4.191,1.807,5.444
		c1.204,1.254,2.979,1.88,5.322,1.88c4.752,0,7.129-2.506,7.129-7.52v-23.584H111.054z"/>
	<path style="fill:#FFFFFF;" d="M122.578,476.084l0.171,3.052c1.953-2.359,4.517-3.54,7.69-3.54c5.501,0,8.301,3.149,8.398,9.448
		V502.5h-5.933v-17.114c0-1.676-0.362-2.917-1.086-3.724c-0.725-0.805-1.909-1.208-3.552-1.208c-2.393,0-4.175,1.083-5.347,3.247
		V502.5h-5.933v-26.416H122.578z"/>
	<path style="fill:#FFFFFF;" d="M152.314,469.663v6.421h4.663v4.395h-4.663v14.746c0,1.01,0.199,1.737,0.598,2.186
		c0.398,0.447,1.111,0.671,2.136,0.671c0.684,0,1.375-0.081,2.075-0.244v4.59c-1.351,0.374-2.653,0.562-3.906,0.562
		c-4.558,0-6.836-2.515-6.836-7.544v-14.966h-4.346v-4.395h4.346v-6.421H152.314z"/>
	<path style="fill:#FFFFFF;" d="M173.139,502.988c-3.76,0-6.808-1.184-9.143-3.553c-2.336-2.367-3.503-5.521-3.503-9.46v-0.732
		c0-2.637,0.508-4.993,1.526-7.067c1.017-2.076,2.445-3.69,4.285-4.847c1.839-1.155,3.89-1.733,6.152-1.733
		c3.597,0,6.376,1.147,8.337,3.442c1.961,2.295,2.942,5.542,2.942,9.741v2.393h-17.261c0.179,2.182,0.907,3.906,2.185,5.176
		c1.277,1.27,2.885,1.904,4.822,1.904c2.718,0,4.932-1.099,6.641-3.296l3.198,3.052c-1.058,1.579-2.47,2.804-4.236,3.674
		C177.318,502.553,175.336,502.988,173.139,502.988z M172.431,480.356c-1.628,0-2.942,0.57-3.943,1.709
		c-1.001,1.14-1.64,2.727-1.917,4.761h11.304v-0.439c-0.13-1.985-0.659-3.487-1.587-4.504
		C175.361,480.865,174.075,480.356,172.431,480.356z"/>
	<path style="fill:#FFFFFF;" d="M202.167,481.504c-0.781-0.13-1.587-0.195-2.417-0.195c-2.718,0-4.549,1.042-5.493,3.125V502.5
		h-5.933v-26.416h5.664l0.146,2.954c1.432-2.295,3.418-3.442,5.957-3.442c0.846,0,1.546,0.114,2.1,0.342L202.167,481.504z"/>
	<path style="fill:#FFFFFF;" d="M211.494,476.084l0.171,2.759c1.855-2.164,4.395-3.247,7.617-3.247c3.532,0,5.949,1.352,7.251,4.053
		c1.92-2.701,4.622-4.053,8.105-4.053c2.913,0,5.082,0.806,6.506,2.417c1.424,1.611,2.152,3.988,2.185,7.129V502.5h-5.933v-17.188
		c0-1.676-0.366-2.905-1.099-3.687s-1.945-1.172-3.638-1.172c-1.351,0-2.454,0.362-3.308,1.087
		c-0.854,0.724-1.453,1.672-1.794,2.844l0.024,18.115h-5.933v-17.383c-0.082-3.108-1.668-4.663-4.761-4.663
		c-2.376,0-4.061,0.969-5.054,2.905V502.5h-5.933v-26.416H211.494z"/>
	<path style="fill:#FFFFFF;" d="M265.205,502.5c-0.261-0.504-0.488-1.326-0.684-2.466c-1.888,1.97-4.199,2.954-6.934,2.954
		c-2.653,0-4.818-0.757-6.494-2.271c-1.677-1.514-2.515-3.385-2.515-5.615c0-2.815,1.045-4.977,3.137-6.481
		c2.091-1.506,5.082-2.259,8.972-2.259h3.638v-1.733c0-1.367-0.383-2.462-1.147-3.283c-0.765-0.822-1.929-1.233-3.491-1.233
		c-1.351,0-2.458,0.338-3.32,1.013c-0.863,0.676-1.294,1.535-1.294,2.576h-5.933c0-1.448,0.48-2.804,1.44-4.064
		c0.96-1.262,2.266-2.25,3.918-2.967c1.652-0.716,3.495-1.074,5.53-1.074c3.092,0,5.558,0.777,7.397,2.332
		c1.839,1.554,2.783,3.739,2.832,6.555v11.914c0,2.377,0.333,4.272,1.001,5.688v0.415H265.205z M258.686,498.228
		c1.172,0,2.274-0.284,3.308-0.854c1.033-0.569,1.811-1.334,2.332-2.295v-4.98h-3.198c-2.197,0-3.85,0.383-4.956,1.147
		c-1.107,0.766-1.66,1.848-1.66,3.247c0,1.14,0.378,2.047,1.135,2.723C256.403,497.89,257.417,498.228,258.686,498.228z"/>
	<path style="fill:#FFFFFF;" d="M292.475,499.912c-1.742,2.051-4.216,3.076-7.422,3.076c-2.865,0-5.034-0.838-6.506-2.515
		c-1.473-1.676-2.209-4.102-2.209-7.275v-17.114h5.933v17.041c0,3.354,1.392,5.029,4.175,5.029c2.881,0,4.826-1.033,5.835-3.101
		v-18.97h5.933V502.5h-5.591L292.475,499.912z"/>
	<path style="fill:#FFFFFF;" d="M315.888,502.988c-3.76,0-6.808-1.184-9.143-3.553c-2.336-2.367-3.503-5.521-3.503-9.46v-0.732
		c0-2.637,0.508-4.993,1.526-7.067c1.017-2.076,2.445-3.69,4.285-4.847c1.839-1.155,3.89-1.733,6.152-1.733
		c3.597,0,6.376,1.147,8.337,3.442c1.961,2.295,2.941,5.542,2.941,9.741v2.393h-17.26c0.179,2.182,0.907,3.906,2.185,5.176
		c1.277,1.27,2.885,1.904,4.822,1.904c2.718,0,4.932-1.099,6.64-3.296l3.199,3.052c-1.059,1.579-2.471,2.804-4.236,3.674
		C320.067,502.553,318.085,502.988,315.888,502.988z M315.18,480.356c-1.628,0-2.942,0.57-3.943,1.709
		c-1.001,1.14-1.64,2.727-1.917,4.761h11.304v-0.439c-0.13-1.985-0.659-3.487-1.587-4.504
		C318.11,480.865,316.824,480.356,315.18,480.356z"/>
	<path style="fill:#FFFFFF;" d="M344.916,481.504c-0.781-0.13-1.586-0.195-2.416-0.195c-2.719,0-4.551,1.042-5.494,3.125V502.5
		h-5.932v-26.416h5.664l0.146,2.954c1.432-2.295,3.418-3.442,5.957-3.442c0.846,0,1.545,0.114,2.1,0.342L344.916,481.504z"/>
	<path style="fill:#FFFFFF;" d="M364.668,499.912c-1.742,2.051-4.216,3.076-7.422,3.076c-2.865,0-5.033-0.838-6.506-2.515
		c-1.474-1.676-2.21-4.102-2.21-7.275v-17.114h5.933v17.041c0,3.354,1.392,5.029,4.175,5.029c2.881,0,4.825-1.033,5.835-3.101
		v-18.97h5.933V502.5h-5.591L364.668,499.912z"/>
	<path style="fill:#FFFFFF;" d="M381.953,476.084l0.171,3.052c1.953-2.359,4.517-3.54,7.69-3.54c5.501,0,8.301,3.149,8.398,9.448
		V502.5h-5.933v-17.114c0-1.676-0.362-2.917-1.087-3.724c-0.724-0.805-1.908-1.208-3.552-1.208c-2.393,0-4.175,1.083-5.347,3.247
		V502.5h-5.933v-26.416H381.953z"/>
	<path style="fill:#FFFFFF;" d="M403.218,489.097c0-4.102,0.965-7.377,2.893-9.827c1.93-2.449,4.488-3.674,7.679-3.674
		c3.011,0,5.379,1.05,7.104,3.149l0.269-2.661h5.347v25.61c0,3.467-1.078,6.201-3.234,8.203c-2.157,2.002-5.066,3.003-8.729,3.003
		c-1.938,0-3.829-0.402-5.676-1.209c-1.848-0.805-3.252-1.859-4.212-3.161l2.808-3.564c1.822,2.164,4.068,3.247,6.738,3.247
		c1.969,0,3.523-0.533,4.663-1.6c1.139-1.065,1.709-2.633,1.709-4.699v-1.782c-1.709,1.904-3.988,2.856-6.836,2.856
		c-3.093,0-5.619-1.229-7.581-3.687C404.198,496.845,403.218,493.442,403.218,489.097z M409.126,489.609
		c0,2.653,0.541,4.74,1.623,6.262c1.083,1.522,2.584,2.283,4.505,2.283c2.393,0,4.166-1.025,5.322-3.076v-11.621
		c-1.123-2.002-2.881-3.003-5.273-3.003c-1.953,0-3.471,0.773-4.554,2.319C409.667,484.32,409.126,486.599,409.126,489.609z"/>
</g>
<g>
	<path style="fill-rule:evenodd;clip-rule:evenodd;fill:#FAFBFB;" d="M159.064,198.914c34.141,0.025,68.283,0.052,102.424,0.077
		c1.976,0.001,3.952,0,6.542,0c-20.639,33.055-40.932,65.556-61.473,98.452c-2.37-1.185-4.545-1.986-6.407-3.25
		c-16.876-11.451-29.818-26.244-38.544-44.795c-4.5-9.566-7.54-19.536-9.175-29.865c-1.058-6.685-0.871-13.566-1.242-20.36
		C153.814,199.086,156.439,199,159.064,198.914z M158.86,206.244c-0.063,34.373,22.368,68.447,45.45,81.104
		c16.826-26.919,33.663-53.857,50.693-81.104C222.641,206.244,190.897,206.244,158.86,206.244z"/>
	<path style="fill-rule:evenodd;clip-rule:evenodd;fill:#98C0B5;" d="M257.277,161.014c0-7.489,0-14.393,0-21.572
		c4.076-0.9,8.208-0.655,12.238-0.271c3.618,0.345,5.479,4.732,4.025,8.574c-0.225,0.594-0.772,1.064-1.247,1.692
		c0.539,0.777,1.121,1.542,1.624,2.355c2.743,4.438-0.854,9.1-5.189,9.199c-0.663,0.016-1.325,0.021-1.988,0.021
		C263.767,161.016,260.792,161.014,257.277,161.014z M262.24,156.958c2.155,0,3.797,0.108,5.418-0.031
		c1.495-0.13,2.569-1.145,2.214-2.623c-0.212-0.886-1.262-2.031-2.11-2.204c-1.694-0.346-3.508-0.103-5.522-0.103
		C262.24,153.747,262.24,155.126,262.24,156.958z M269.992,144.99c-1.813-3.418-5.223-1.207-7.722-3.178c0,2.39,0,4.089,0,5.929
		C265.354,148.034,268.192,148.682,269.992,144.99z"/>
	<path style="fill-rule:evenodd;clip-rule:evenodd;fill:#99C0B6;" d="M237.237,292.998c0-7.43,0-14.341,0-21.531
		c3.849-0.934,7.798-0.597,11.673-0.254c1.926,0.171,3.562,1.412,4.458,3.502c1.122,2.617,0.646,4.787-0.619,6.204
		c0.506,2.583,1.189,4.589,1.227,6.605c0.054,2.936-2.298,5.301-5.282,5.435C245.063,293.122,241.42,292.998,237.237,292.998z
		 M242.19,284.003c-0.07,1.549-0.138,3.035-0.225,4.957c2.199,0,4.006,0.241,5.695-0.101c0.861-0.174,1.946-1.291,2.157-2.168
		c0.344-1.428-0.658-2.522-2.169-2.656C246.031,283.893,244.392,284.003,242.19,284.003z M242.241,275.076
		c-0.305,1.911-0.857,3.443,0.458,4.752c1.625,0,3.147,0.233,4.535-0.097c0.716-0.17,1.731-1.407,1.652-2.045
		c-0.114-0.926-0.938-2.249-1.74-2.497C245.804,274.775,244.242,275.076,242.241,275.076z"/>
	<path style="fill-rule:evenodd;clip-rule:evenodd;fill:#9EC4BA;" d="M335.129,235.003c0-7.61,0-14.52,0-21.977
		c3.741,0,7.343-0.227,10.903,0.061c3.988,0.32,6.061,4.505,4.508,8.632c-0.225,0.595-0.764,1.07-1.151,1.593
		c3.079,4.908,2.879,7.91-0.804,10.56c-0.761,0.547-1.754,0.87-2.688,1.05c-0.961,0.185-1.979,0.078-2.973,0.08
		C340.468,235.008,338.011,235.003,335.129,235.003z M338.824,224.758c0.479,2.689-0.477,4.501,0.946,6.198
		c1.609,0,3.252,0.105,4.873-0.031c1.488-0.126,2.28-1.081,2.389-2.624c0.096-1.348-0.438-2.319-1.719-2.588
		C343.456,225.322,341.552,225.146,338.824,224.758z M339.101,221.952c1.996,0,3.643,0.226,5.182-0.084
		c0.947-0.19,2.238-1.069,2.444-1.877c0.211-0.825-0.456-2.243-1.192-2.871c-1.92-1.638-4.154-1.294-6.434-0.487
		C339.101,218.271,339.101,219.729,339.101,221.952z"/>
	<path style="fill-rule:evenodd;clip-rule:evenodd;fill:#99C0B6;" d="M329.687,269.422c-1.711,2.31-2.639,4.112-4.052,5.367
		c-4.606,4.09-11.509,2.088-13.737-3.701c-1.313-3.413-1.157-6.905-0.59-10.294c0.646-3.86,4.017-6.577,7.491-6.818
		c5.567-0.387,7.613,0.871,10.057,6.417c-2.082,0.981-4.076,1.412-5.484-0.88c-1.291-2.102-3.107-1.81-4.778-1.231
		c-1.612,0.558-2.651,1.939-2.632,3.852c0.021,1.994-0.064,3.992,0.02,5.983c0.093,2.189,1.177,3.831,3.301,4.48
		c1.816,0.554,3.43-0.38,4.223-1.834C324.835,268.323,326.624,268.952,329.687,269.422z"/>
	<path style="fill-rule:evenodd;clip-rule:evenodd;fill:#99C1B6;" d="M268.853,275.706c2.917-7.496,5.605-14.402,8.33-21.403
		c1.544,0,2.821,0,4.478,0c2.394,6.993,5.812,13.706,7.782,21.454c-1.679,0.121-2.623,0.188-3.777,0.272
		c-0.795-1.636-1.573-3.233-2.414-4.963c-2.438,0-4.913,0-7.759,0c-0.607,1.314-1.285,2.783-2.142,4.64
		C272.245,275.706,270.863,275.706,268.853,275.706z M282.364,267.664c-1.063-3.18-1.892-5.658-3.007-8.996
		c-0.978,3.483-2.884,5.759-2.087,8.996C278.78,267.664,280.173,267.664,282.364,267.664z"/>
	<path style="fill-rule:evenodd;clip-rule:evenodd;fill:#9AC1B7;" d="M222.317,115.204c1.44,0,2.578,0,4.251,0
		c3.264,6.675,5.49,14.04,8.547,21.522c-1.73,0.11-3.001,0.19-4.479,0.284c-1.097-3.467-2.147-6.439-6.917-6.114
		c-4.075,0.276-3.997,3.262-5.313,5.819c-1.287,0-2.679,0-4.4,0C216.865,129.318,219.583,122.281,222.317,115.204z M224.528,119.389
		c-1.141,3.554-2.778,5.689-2.103,8.705c1.654-0.138,3.044-0.254,4.899-0.408C226.409,124.968,225.644,122.699,224.528,119.389z"/>
	<path style="fill-rule:evenodd;clip-rule:evenodd;fill:#9AC1B7;" d="M307.933,167.469c-2.605,0.803-3.847,0.211-5.078-1.68
		c-1.654-2.539-4.238-2.37-6.146-0.037c-2.221,2.716-2.344,8.416-0.244,11.278c1.89,2.576,4.7,2.762,6.458,0.063
		c1.237-1.899,2.5-2.438,4.563-1.724c0.864,1.254,0.652,2.503-0.165,3.655c-1.391,1.963-3.239,3.381-5.613,3.88
		c-5.985,1.26-11.433-3.567-10.777-8.565c0.301-2.294-0.054-4.667,0.107-6.989c0.271-3.923,4.059-6.761,7.697-7.286
		c3.939-0.57,7.976,1.784,9.17,5.294C308.102,165.935,307.933,166.637,307.933,167.469z"/>
	<path style="fill-rule:evenodd;clip-rule:evenodd;fill:#9AC1B7;" d="M206.708,161.118c2.199,7.2,5.803,13.727,7.518,20.965
		c-3.549,0.898-3.549,0.898-6.41-4.887c-2.329,0-4.773,0-7.121,0c-2.262,1.666-1.48,6.762-6.478,5.407
		c-0.14-3.439,1.813-6.045,2.784-8.927c1.054-3.127,2.208-6.224,3.411-9.297C201.699,161.091,201.809,161.073,206.708,161.118z
		 M200.821,173.694c2.375,0,4.103,0,6.497,0c-1.032-2.746-1.891-5.032-3.176-8.453C202.851,168.528,201.969,170.771,200.821,173.694
		z"/>
	<path style="fill-rule:evenodd;clip-rule:evenodd;fill:#9AC1B7;" d="M242.766,178.479c-2.359,0.8-3.607,0.261-4.873-1.602
		c-2.037-2.998-6.015-2.402-7.29,1.066c-1.101,2.995-1.129,6.193,0.371,9.138c1.79,3.511,4.387,3.931,6.927,0.811
		c1.426-1.752,2.699-2.118,4.599-1.542c-0.006,5.113-4.003,8.392-9.101,7.565c-4.741-0.768-7.291-3.618-7.435-8.458
		c-0.074-2.485-0.178-4.995,0.064-7.461c0.443-4.524,4.11-7.219,9.187-7.006C239.712,171.18,242.506,173.862,242.766,178.479z"/>
	<path style="fill-rule:evenodd;clip-rule:evenodd;fill:#99C1B6;" d="M320.495,241.44c-4.327,0.502-4.327,0.502-6.685-4.322
		c-1.278-0.061-2.743-0.118-4.206-0.2c-2.307-0.131-4.223,0.033-4.786,3.01c-0.438,2.314-2.313,2.473-4.629,1.679
		c0-0.544-0.179-1.225,0.027-1.755c2.215-5.701,4.563-11.352,6.702-17.081c0.587-1.573,1.181-2.651,3.024-2.694
		c1.813-0.043,2.674,0.936,3.266,2.488C315.552,228.716,317.944,234.848,320.495,241.44z M310.621,226.093
		c-0.369,0.022-0.739,0.046-1.108,0.069c-0.802,2.393-1.604,4.785-2.527,7.54c2.296,0.131,4.162,0.786,6.172-0.699
		C312.28,230.611,311.45,228.352,310.621,226.093z"/>
	<path style="fill-rule:evenodd;clip-rule:evenodd;fill:#9BC2B7;" d="M279.967,219.715c-2.38,0.363-3.904,0.596-5.486-1.552
		c-1.855-2.518-5.458-1.623-6.72,1.327c-1.22,2.852-1.194,5.849-0.122,8.707c1.262,3.36,4.789,4.203,6.971,1.423
		c1.665-2.12,3.2-1.64,5.191-1.341c0.374,3.321-1.958,4.8-3.895,6.044c-5.083,3.263-12.249-0.317-12.865-6.334
		c-0.27-2.635-0.163-5.325-0.035-7.98c0.212-4.43,5.403-8.547,9.753-7.86C276.516,212.74,278.905,215.122,279.967,219.715z"/>
	<path style="fill-rule:evenodd;clip-rule:evenodd;fill:#9BC2B7;" d="M307.747,121.573c-1.629,0.643-3.356,0.965-4.311-0.865
		c-1.267-2.43-3.307-1.891-5.186-1.639c-2.219,0.297-2.833,2.399-3.033,4.088c-0.244,2.069-0.013,4.309,0.53,6.336
		c1.131,4.223,4.119,4.939,7.167,1.932c1.415-1.396,1.415-1.396,4.948-0.961c0.064,2.707-0.977,4.826-3.544,5.769
		c-6.691,2.458-13.178,0.397-13.33-7.83c-0.04-2.161-0.151-4.34,0.067-6.48c0.413-4.05,4.557-7.771,8.44-7.802
		C303.689,114.087,307.147,117.154,307.747,121.573z"/>
	<path style="fill-rule:evenodd;clip-rule:evenodd;fill:#9AC1B7;" d="M344.73,171.342c2.721,7.058,5.419,14.059,8.26,21.425
		c-1.63,0.111-2.896,0.198-4.226,0.289c-0.723-1.637-1.376-3.116-2.131-4.825c-2.57,0-5.174,0-8.143,0
		c-0.65,1.34-1.423,2.929-2.232,4.596c-0.92,0-1.857,0-2.888,0c-0.155-0.609-0.472-1.124-0.353-1.499
		c0.994-3.125,2.025-6.24,3.134-9.325c0.89-2.477,2.021-4.87,2.829-7.37C339.817,172.049,341.255,170.662,344.73,171.342z
		 M345.552,184.751c-1.044-3.251-1.871-5.83-3.076-9.585c-1.061,3.499-1.802,5.817-2.435,8.165c-0.099,0.367,0.296,0.868,0.505,1.42
		C341.882,184.751,343.15,184.751,345.552,184.751z"/>
	<path style="fill-rule:evenodd;clip-rule:evenodd;fill:#9BC2B7;" d="M293.769,308.22c-2.55-7.069-2.551-7.071,3.741-9.189
		c1.082-0.364,2.172-0.7,3.714-1.196c0.972,1.865,1.93,3.705,2.995,5.749C301.357,306.703,297.351,306.576,293.769,308.22z"/>
	<path style="fill-rule:evenodd;clip-rule:evenodd;fill:#97C0B5;" d="M261.779,306.53c0,1.927,0,3.858,0,6.092
		c-2.661,0.65-5.296,0.357-7.881,0.254c-2.254-0.091-2.789-0.792-2.897-3.11c-0.062-1.313-0.011-2.632-0.011-4.117
		C254.806,304.49,258.235,304.963,261.779,306.53z"/>
	<path style="fill-rule:evenodd;clip-rule:evenodd;fill:#9AC1B7;" d="M367.3,234.303c-2.403-0.542-4.596-1.036-7.023-1.582
		c0.779-3.211,1.498-6.174,2.22-9.147c0.265-0.17,0.528-0.482,0.804-0.494c6.962-0.279,7.26,0.069,5.557,6.692
		C368.53,231.035,368.013,232.249,367.3,234.303z"/>
	<path style="fill-rule:evenodd;clip-rule:evenodd;fill:#98C0B5;" d="M271.747,100.053c-3.648-0.453-6.836-0.85-10.37-1.289
		c0-2.08,0-4.119,0-6.472c3.384,0,6.744,0,10.37,0C271.747,94.751,271.747,96.988,271.747,100.053z"/>
	<path style="fill-rule:evenodd;clip-rule:evenodd;fill:#9BC2B7;" d="M218.876,100.405c3.607-1.256,6.941-2.417,10.585-3.687
		c0.675,2.458,1.223,4.452,1.87,6.81c-3.315,1.313-6.311,2.499-9.665,3.826C220.687,104.912,219.856,102.844,218.876,100.405z"/>
	<path style="fill-rule:evenodd;clip-rule:evenodd;fill:#99C1B6;" d="M313.436,104.802c-1.1,2.27-2.005,4.138-3,6.19
		c-3.594-0.672-6.417-2.494-9.506-4.351c0.287-1.059,0.404-2.021,0.798-2.853c1.498-3.159,2.229-3.479,5.285-2.159
		C309.082,102.523,311.063,103.62,313.436,104.802z"/>
	<path style="fill-rule:evenodd;clip-rule:evenodd;fill:#9CC3B8;" d="M364.271,191.872c-0.526-3.738-0.978-6.935-1.446-10.262
		c2.429-0.501,4.325-0.892,6.547-1.35c1.373,3.478,2.023,7.077,1.465,11.02C368.856,192.419,366.744,191.875,364.271,191.872z"/>
	<path style="fill-rule:evenodd;clip-rule:evenodd;fill:#9CC3B8;" d="M322.622,110.381c3.275,2.319,5.919,4.192,8.443,5.98
		c-0.932,2.832-2.168,4.67-4.572,5.944c-2.563-1.942-5.033-3.816-7.865-5.963C319.928,114.403,321.084,112.677,322.622,110.381z"/>
	<path style="fill-rule:evenodd;clip-rule:evenodd;fill:#9BC2B7;" d="M313.646,299.869c-1.276-2.472-2.149-4.165-3.182-6.165
		c1.643-1.149,2.941-2.113,4.296-2.99c1.369-0.886,2.795-1.685,4.459-2.68c1.288,1.942,2.531,3.818,4.072,6.141
		C320.147,296.031,317.254,297.739,313.646,299.869z"/>
	<path style="fill-rule:evenodd;clip-rule:evenodd;fill:#9BC2B7;" d="M371.675,212.889c-2.604,0-4.736,0-7.094,0
		c-1.048-3.551,1.131-6.821,0.365-10.258c2.213-1.149,4.318-0.606,6.729-0.55C371.675,205.626,371.675,209.014,371.675,212.889z"/>
	<path style="fill-rule:evenodd;clip-rule:evenodd;fill:#9BC2B7;" d="M341.341,267.913c2.279-3.009,4.137-5.461,6.266-8.272
		c1.94,1.281,3.659,2.416,5.473,3.613c-1.148,3.898-3.945,6.157-6.259,9.547C344.837,271.031,343.313,269.672,341.341,267.913z"/>
	<path style="fill-rule:evenodd;clip-rule:evenodd;fill:#9BC2B7;" d="M358.997,254.525c-2.386-1.231-4.223-2.18-6.457-3.333
		c1.583-3.236,2.992-6.119,4.279-8.751c0.775-0.142,1.133-0.328,1.391-0.236c5.784,2.051,5.897,2.338,3.108,7.95
		C360.675,251.449,359.964,252.711,358.997,254.525z"/>
	<path style="fill-rule:evenodd;clip-rule:evenodd;fill:#9BC2B7;" d="M231.524,301.153c3.479,0.886,6.739,1.715,10.291,2.618
		c-0.446,2.188-0.818,4.02-1.2,5.89c-2.969,0.905-5.625,0.22-8.246-0.708c-2.299-0.813-2.758-1.702-2.171-4.095
		c0.115-0.469,0.438-0.883,0.6-1.345C231.059,302.769,231.265,302.005,231.524,301.153z"/>
	<path style="fill-rule:evenodd;clip-rule:evenodd;fill:#9AC1B7;" d="M293.354,96.559c-0.635,2.323-1.14,4.172-1.702,6.229
		c-3.863,0.764-7.034-0.974-10.413-2.138c0.441-2.276,0.834-4.309,1.295-6.687C286.03,94.802,289.307,95.588,293.354,96.559z"/>
	<path style="fill-rule:evenodd;clip-rule:evenodd;fill:#9BC2B7;" d="M209.26,105.593c1.342,1.967,2.513,3.685,3.904,5.724
		c-3.056,1.782-5.854,3.414-8.913,5.197c-0.921-1.067-1.663-1.869-2.335-2.725c-0.611-0.777-1.148-1.614-1.9-2.683
		C202.561,108.488,205.727,107.022,209.26,105.593z"/>
	<path style="fill-rule:evenodd;clip-rule:evenodd;fill:#9CC3B8;" d="M346.554,132.097c-1.846,1.666-3.279,2.96-5.1,4.603
		c-2.445-2.432-4.62-4.592-7.031-6.988c1.568-2.149,2.88-3.945,4.596-6.294C341.618,126.412,343.853,128.984,346.554,132.097z"/>
	<path style="fill-rule:evenodd;clip-rule:evenodd;fill:#9CC3B8;" d="M176.179,132.108c2.136,1.998,3.635,3.399,5.416,5.064
		c-2.186,2.874-4.118,5.414-6.266,8.238c-2.029-1.421-3.725-2.609-5.676-3.977C171.806,138.356,173.736,135.599,176.179,132.108z"/>
	<path style="fill-rule:evenodd;clip-rule:evenodd;fill:#9AC1B7;" d="M339.606,280.259c-2.433,3.28-4.702,5.57-7.889,6.859
		c-2.596-0.587-2.949-2.869-4.184-5.048c2.248-2.188,4.438-4.321,6.974-6.789C336.326,277.057,337.804,278.499,339.606,280.259z"/>
	<path style="fill-rule:evenodd;clip-rule:evenodd;fill:#9BC2B7;" d="M367.446,169.913c-2.682,0.9-4.645,1.56-6.926,2.326
		c-1.305-3.292-2.498-6.307-3.801-9.592c2.179-1.062,4.064-1.979,6.082-2.963C365.505,162.604,365.429,166.302,367.446,169.913z"/>
	<path style="fill-rule:evenodd;clip-rule:evenodd;fill:#9BC2B7;" d="M160.521,181.799c-2.14,0-4.059,0-6.116,0
		c-1.245-3.73,0.308-6.929,1.009-10.336c2.575-1.355,4.72,0.354,7.361,1.029C162.025,175.594,161.278,178.676,160.521,181.799z"/>
	<path style="fill-rule:evenodd;clip-rule:evenodd;fill:#9BC2B7;" d="M188.482,129.713c-1.813-1.771-3.29-3.217-4.792-4.685
		c1.559-3.831,4.821-5.209,7.475-7.169c2.53,1.625,2.53,1.625,4.117,5.278C193.215,125.137,191.017,127.262,188.482,129.713z"/>
	<path style="fill-rule:evenodd;clip-rule:evenodd;fill:#9CC3B8;" d="M272.348,305.318c2.092-0.415,4.289-1.034,6.524-1.251
		c3.179-0.308,3.786,0.299,4.07,3.405c0.087,0.957,0.014,1.928,0.014,3.28c-3.53,0.531-6.848,1.031-10.607,1.597
		C272.348,309.711,272.348,307.669,272.348,305.318z"/>
	<path style="fill-rule:evenodd;clip-rule:evenodd;fill:#9CC3B8;" d="M209.736,299.494c1.082-2.091,1.911-3.693,2.992-5.78
		c3.09,1.257,6.064,2.467,9.243,3.76c-0.389,2.479-0.728,4.68-2.571,6.559C215.909,303.386,213.018,301.592,209.736,299.494z"/>
	<path style="fill-rule:evenodd;clip-rule:evenodd;fill:#9BC2B7;" d="M358.247,150.748c-2.021,0.991-3.609,1.77-5.592,2.741
		c-1.811-2.885-3.438-5.479-5.322-8.481c1.959-1.537,3.586-2.814,5.46-4.286C355.337,143.693,357.303,146.588,358.247,150.748z"/>
	<path style="fill-rule:evenodd;clip-rule:evenodd;fill:#9CC3B8;" d="M239.61,94.735c6.001-1.996,6.027-1.999,11.137-1.23
		c0,1.885,0,3.822,0,6.108c-2.935,0.51-5.954,1.034-9.44,1.641C240.706,98.941,240.186,96.944,239.61,94.735z"/>
	<path style="fill-rule:evenodd;clip-rule:evenodd;fill:#9CC3B8;" d="M164.373,150.702c2.099,1.069,3.818,1.945,6.033,3.073
		c-1.52,3.186-2.951,6.188-4.528,9.496c-2.197-1.011-3.931-1.809-5.878-2.705C160.534,156.795,162.554,153.937,164.373,150.702z"/>
	<path style="fill-rule:evenodd;clip-rule:evenodd;fill:#96BFB4;" d="M159.064,198.914c-2.625,0.086-5.25,0.172-7.875,0.259
		c0-2.238,0-4.477,0-6.951c2.635,0,4.851,0,7.505,0C158.82,194.484,158.942,196.699,159.064,198.914z"/>
	<path style="fill-rule:evenodd;clip-rule:evenodd;fill:#458D7A;" d="M262.24,156.958c0-1.832,0-3.211,0-4.961
		c2.014,0,3.828-0.243,5.522,0.103c0.848,0.173,1.898,1.318,2.11,2.204c0.355,1.479-0.72,2.493-2.214,2.623
		C266.038,157.066,264.395,156.958,262.24,156.958z"/>
	<path style="fill-rule:evenodd;clip-rule:evenodd;fill:#4C9180;" d="M269.992,144.99c-1.8,3.691-4.638,3.044-7.722,2.751
		c0-1.84,0-3.539,0-5.929C264.77,143.783,268.18,141.572,269.992,144.99z"/>
	<path style="fill-rule:evenodd;clip-rule:evenodd;fill:#458D7A;" d="M242.19,284.003c2.202,0,3.841-0.11,5.458,0.032
		c1.511,0.134,2.513,1.229,2.169,2.656c-0.211,0.877-1.296,1.994-2.157,2.168c-1.689,0.342-3.496,0.101-5.695,0.101
		C242.052,287.038,242.12,285.552,242.19,284.003z"/>
	<path style="fill-rule:evenodd;clip-rule:evenodd;fill:#458D7A;" d="M242.241,275.076c2.001,0,3.563-0.301,4.906,0.113
		c0.801,0.248,1.625,1.571,1.74,2.497c0.079,0.638-0.936,1.875-1.652,2.045c-1.388,0.33-2.911,0.097-4.535,0.097
		C241.383,278.52,241.936,276.987,242.241,275.076z"/>
	<path style="fill-rule:evenodd;clip-rule:evenodd;fill:#478E7C;" d="M338.824,224.758c2.728,0.388,4.632,0.564,6.489,0.955
		c1.28,0.269,1.814,1.24,1.719,2.588c-0.108,1.543-0.9,2.498-2.389,2.624c-1.621,0.137-3.264,0.031-4.873,0.031
		C338.348,229.259,339.304,227.447,338.824,224.758z"/>
	<path style="fill-rule:evenodd;clip-rule:evenodd;fill:#4E9280;" d="M339.101,221.952c0-2.223,0-3.682,0-5.319
		c2.279-0.807,4.514-1.15,6.434,0.487c0.736,0.628,1.403,2.046,1.192,2.871c-0.206,0.808-1.497,1.687-2.444,1.877
		C342.743,222.178,341.097,221.952,339.101,221.952z"/>
	<path style="fill-rule:evenodd;clip-rule:evenodd;fill:#509482;" d="M282.364,267.664c-2.191,0-3.584,0-5.095,0
		c-0.797-3.237,1.11-5.513,2.087-8.996C280.473,262.006,281.301,264.484,282.364,267.664z"/>
	<path style="fill-rule:evenodd;clip-rule:evenodd;fill:#498F7D;" d="M224.528,119.389c1.116,3.311,1.88,5.579,2.796,8.297
		c-1.855,0.154-3.246,0.271-4.899,0.408C221.75,125.078,223.388,122.942,224.528,119.389z"/>
	<path style="fill-rule:evenodd;clip-rule:evenodd;fill:#519482;" d="M200.821,173.694c1.148-2.924,2.03-5.166,3.321-8.453
		c1.285,3.421,2.144,5.707,3.176,8.453C204.923,173.694,203.195,173.694,200.821,173.694z"/>
	<path style="fill-rule:evenodd;clip-rule:evenodd;fill:#519482;" d="M310.621,226.093c0.83,2.259,1.659,4.519,2.538,6.91
		c-2.01,1.485-3.876,0.83-6.172,0.699c0.923-2.755,1.725-5.147,2.527-7.54C309.882,226.139,310.251,226.115,310.621,226.093z"/>
	<path style="fill-rule:evenodd;clip-rule:evenodd;fill:#519482;" d="M345.552,184.751c-2.401,0-3.67,0-5.006,0
		c-0.209-0.552-0.604-1.053-0.505-1.42c0.633-2.348,1.374-4.666,2.435-8.165C343.681,178.921,344.508,181.5,345.552,184.751z"/>
	<path style="fill-rule:evenodd;clip-rule:evenodd;fill:#EFF5F3;" d="M235.143,231.325c-4.341,0.246-4.341,0.246-6.827-5.229
		c-2.514,0-5.11,0-7.614,0c-1.838,2.148-1.155,7.049-6.581,5.125c1.325-3.556,2.604-7.061,3.937-10.545
		c1.347-3.525,2.747-7.03,4.158-10.631c1.515,0,2.799,0,4.63,0C229.501,216.855,232.233,223.863,235.143,231.325z M227.404,222.604
		c-0.945-2.765-1.758-5.146-2.871-8.404c-1.145,3.24-1.982,5.611-2.97,8.404C223.688,222.604,225.229,222.604,227.404,222.604z"/>
	<path style="fill-rule:evenodd;clip-rule:evenodd;fill:#F5F9F8;" d="M194.152,234.782c-1.774,0-3.041,0-4.42,0
		c-0.711-1.707-1.403-3.37-2.208-5.302c-1.23-0.108-2.519-0.294-3.81-0.316c-1.31-0.023-2.623,0.113-4.154,0.19
		c-0.719,1.719-1.411,3.371-2.245,5.36c-1.078,0.082-2.327,0.177-3.494,0.265c-0.217-0.513-0.492-0.84-0.417-1.034
		c2.588-6.813,5.209-13.613,7.912-20.638c1.273-0.132,2.552-0.264,4.307-0.444C188.431,220.079,191.219,227.246,194.152,234.782z
		 M183.557,217.302c-1.177,3.375-2.003,5.743-2.938,8.423c2.213,0,3.763,0,5.792,0C185.504,223.05,184.732,220.771,183.557,217.302z
		"/>
	<path style="fill-rule:evenodd;clip-rule:evenodd;fill:#F0F6F4;" d="M200.615,259.908c-2.238,2.428-1.504,7.143-6.839,5.265
		c2.634-6.99,5.231-13.882,7.931-21.045c1.462-0.104,2.892-0.207,4.668-0.335c2.823,7.11,5.759,14.021,8.153,21.61
		c-1.759,0.108-2.845,0.176-4.058,0.251c-0.774-1.863-1.463-3.519-2.259-5.433c-1.247-0.103-2.53-0.25-3.816-0.302
		C203.087,259.867,201.776,259.908,200.615,259.908z M204.592,249.058c-0.36,0.067-0.721,0.135-1.081,0.203
		c-0.773,2.311-1.546,4.62-2.324,6.945c3.216,0.853,3.218,0.816,5.85-0.427C206.226,253.55,205.409,251.304,204.592,249.058z"/>
	<path style="fill-rule:evenodd;clip-rule:evenodd;fill:#519482;" d="M227.404,222.604c-2.175,0-3.717,0-5.841,0
		c0.987-2.793,1.825-5.164,2.97-8.404C225.646,217.457,226.459,219.839,227.404,222.604z"/>
	<path style="fill-rule:evenodd;clip-rule:evenodd;fill:#509482;" d="M183.557,217.302c1.176,3.47,1.948,5.748,2.854,8.423
		c-2.029,0-3.578,0-5.792,0C181.553,223.045,182.379,220.677,183.557,217.302z"/>
	<path style="fill-rule:evenodd;clip-rule:evenodd;fill:#68A293;" d="M204.592,249.058c0.817,2.246,1.634,4.492,2.445,6.722
		c-2.631,1.243-2.633,1.279-5.85,0.427c0.778-2.325,1.551-4.635,2.324-6.945C203.871,249.192,204.231,249.125,204.592,249.058z"/>
</g>
</svg>
