<?xml version="1.0" encoding="UTF-8" standalone="no"?>
<svg
   xmlns:dc="http://purl.org/dc/elements/1.1/"
   xmlns:cc="http://creativecommons.org/ns#"
   xmlns:rdf="http://www.w3.org/1999/02/22-rdf-syntax-ns#"
   xmlns:svg="http://www.w3.org/2000/svg"
   xmlns="http://www.w3.org/2000/svg"
   viewBox="0 0 375 375"
   height="375"
   width="375"
   xml:space="preserve"
   version="1.1"
   id="svg2"><metadata
     id="metadata8"><rdf:RDF><cc:Work
         rdf:about=""><dc:format>image/svg+xml</dc:format><dc:type
           rdf:resource="http://purl.org/dc/dcmitype/StillImage" /></cc:Work></rdf:RDF></metadata><defs
     id="defs6" /><g
     transform="matrix(1.25,0,0,-1.25,0,375)"
     id="g10"><g
       transform="scale(0.1,0.1)"
       id="g12"><path
         id="path14"
         style="fill:#ce8e95;fill-opacity:1;fill-rule:nonzero;stroke:none"
         d="m 3000,529.785 c 0,-67.64 0,-529.78890625 -715,-529.78890625 l -1625,0 C 35,-0.00390625 0,472.145 0,539.785 L 0,2399.77 c 0,545 592.352,600 660,600 l 1615,0.3 c 67.65,0 725,-0.3 725,-600.3" /><path
         id="path16"
         style="fill:#26080d;fill-opacity:1;fill-rule:nonzero;stroke:none"
         d="m 1143.67,464 59.03,0 0,120.922 c 0,6.719 0.96,12.969 1.91,18.234 5.28,26.407 24.48,44.641 52.8,44.641 7.18,0 12.47,-0.969 17.26,-1.922 l 0,55.656 c -4.79,0.969 -8.15,1.453 -13.9,1.453 -24.96,0 -52.32,-16.796 -63.83,-49.906 l -1.92,0 -1.93,44.625 -51.34,0 c 1.44,-21.125 1.92,-43.672 1.92,-75.344 l 0,-158.359" /><path
         id="path18"
         style="fill:#26080d;fill-opacity:1;fill-rule:nonzero;stroke:none"
         d="m 1523.89,697.703 -59.01,0 0,-141.094 c 0,-6.718 -1.44,-12.953 -3.36,-18.234 -6.24,-14.875 -21.6,-31.672 -45.11,-31.672 -31.19,0 -43.68,24.953 -43.68,63.828 l 0,127.172 -59.01,0 0,-137.25 c 0,-76.297 38.86,-101.734 81.58,-101.734 41.75,0 64.78,24 74.86,40.797 l 0.95,0 2.87,-35.516 51.83,0 c -0.95,19.188 -1.92,42.234 -1.92,70.063 l 0,163.64" /><path
         id="path20"
         style="fill:#26080d;fill-opacity:1;fill-rule:nonzero;stroke:none"
         d="m 1587.67,464 59.5,0 0,340.719 -59.5,0 0,-340.719 z" /><path
         id="path22"
         style="fill:#26080d;fill-opacity:1;fill-rule:nonzero;stroke:none"
         d="m 1909.86,564.297 c 0.95,5.281 1.92,13.906 1.92,24.953 0,51.344 -24.95,113.734 -100.78,113.734 -74.86,0 -114.2,-60.953 -114.2,-125.734 0,-71.5 44.62,-118.047 120.45,-118.047 33.58,0 61.42,6.235 81.58,14.391 l -8.64,40.797 c -17.75,-6.719 -37.44,-10.563 -64.78,-10.563 -37.44,0 -70.55,18.235 -71.99,60.469 l 156.44,0 z m -156.44,41.266 c 2.39,24 17.75,57.109 54.22,57.109 39.36,0 48.95,-35.516 48.47,-57.109 l -102.69,0" /><path
         id="path24"
         style="fill:#ffffff;fill-opacity:1;fill-rule:nonzero;stroke:none"
         d="m 552.969,1462.47 c 56.969,-35.99 163.422,-68.95 289.359,-68.95 247.362,0 398.782,125.92 398.782,298.34 0,127.42 -94.44,215.89 -211.39,236.87 l 0,3 c 119.94,41.97 178.41,122.94 178.41,226.38 0,133.44 -115.44,242.87 -323.833,242.87 -125.938,0 -242.875,-35.98 -301.344,-73.45 l 46.485,-164.92 c 40.468,23.98 124.421,58.47 203.89,58.47 95.953,0 143.922,-43.47 143.922,-101.94 0,-82.47 -97.453,-110.95 -173.906,-112.45 l -88.453,0 0,-163.41 92.953,0 c 100.437,0 196.386,-43.48 196.386,-139.44 0,-73.45 -59.964,-130.42 -178.402,-130.42 -92.953,0 -185.906,38.97 -226.375,59.97 l -46.484,-170.92" /><path
         id="path26"
         style="fill:#ffffff;fill-opacity:1;fill-rule:nonzero;stroke:none"
         d="m 1747.78,2400.98 c -251.87,0 -371.81,-223.37 -371.81,-505.23 1.5,-275.86 112.45,-502.23 364.31,-502.23 248.88,0 370.31,206.89 370.31,508.23 0,266.86 -101.93,499.23 -362.81,499.23 z m -3,-172.4 c 91.45,0 137.94,-113.94 137.94,-329.83 0,-221.89 -47.99,-332.83 -136.44,-332.83 -88.45,0 -142.42,106.44 -140.92,329.83 -1.5,226.38 55.47,332.83 139.42,332.83" /><path
         id="path28"
         style="fill:#ffffff;fill-opacity:1;fill-rule:nonzero;stroke:none"
         d="m 2429.36,2436.97 c -127.44,0 -229.38,-98.95 -227.88,-223.39 0,-119.94 94.46,-217.38 226.38,-217.38 122.94,0 229.39,92.96 229.39,221.88 0,118.44 -92.95,218.89 -227.89,218.89 z m 0,-104.94 c 68.97,0 106.45,-56.98 106.45,-115.45 0,-65.95 -44.98,-115.44 -106.45,-115.44 -61.47,0 -107.94,49.49 -107.94,113.94 0,61.47 41.97,116.95 107.94,116.95" /><path
         id="path30"
         style="fill:none;stroke:#ffffff;stroke-width:50;stroke-linecap:butt;stroke-linejoin:miter;stroke-miterlimit:10;stroke-dasharray:none;stroke-opacity:1"
         d="m 380,1925 2400,0" /></g></g></svg>