<?xml version="1.0" encoding="iso-8859-1"?>
<!-- Generator: Adobe Illustrator 16.0.3, SVG Export Plug-In . SVG Version: 6.00 Build 0)  -->
<!DOCTYPE svg PUBLIC "-//W3C//DTD SVG 1.1//EN" "http://www.w3.org/Graphics/SVG/1.1/DTD/svg11.dtd">
<svg version="1.1" id="Ebene_1" xmlns="http://www.w3.org/2000/svg" xmlns:xlink="http://www.w3.org/1999/xlink" x="0px" y="0px"
	 width="518px" height="518px" viewBox="0 0 518 518" style="enable-background:new 0 0 518 518;" xml:space="preserve">
<path style="fill-rule:evenodd;clip-rule:evenodd;fill:#A91E74;" d="M518,512c0,3.313-2.017,6-4.505,6H4.505
	C2.018,518,0,515.313,0,512V6c0-3.313,2.017-6,4.504-6h508.99C515.983,0,518,2.687,518,6V512z"/>
<g>
	<g id="XMLID_1_">
		<g>
			<path style="fill:#FCFBFB;" d="M259.039,25.99c96.51-0.58,177.17,79.81,175.04,178.93c-2.04,95.16-81.561,173.45-179.37,171.17
				c-94.72-2.21-173.28-81.439-170.77-179.76C86.349,101.91,164.509,25.46,259.039,25.99z M259.309,361.59
				c89.29-0.38,160.94-73.05,160.37-160.66c-0.58-89.03-72.779-160.79-161.03-160.56c-85.43,0.21-159.56,68.84-160.47,160.72
				C99.219,291.1,170.849,361.97,259.309,361.59z"/>
			<path style="fill:#A91E74;" d="M419.679,200.93c0.57,87.61-71.08,160.28-160.37,160.66c-88.46,0.38-160.09-70.49-161.13-160.5
				c0.91-91.88,75.04-160.51,160.47-160.72C346.899,40.14,419.099,111.9,419.679,200.93z"/>
		</g>
		<g>
		</g>
	</g>
</g>
<g>
	<rect x="-7.001" y="413" style="fill-rule:evenodd;clip-rule:evenodd;fill:none;" width="525.002" height="106"/>
	<path style="fill:#FFFFFF;" d="M139.899,442.761l9.033-27.808h6.787L142.927,450.5h-5.981l-12.744-35.547h6.763L139.899,442.761z"
		/>
	<path style="fill:#FFFFFF;" d="M169.709,450.988c-3.76,0-6.808-1.184-9.143-3.553c-2.336-2.367-3.503-5.521-3.503-9.46v-0.732
		c0-2.637,0.508-4.993,1.526-7.067c1.017-2.076,2.445-3.69,4.285-4.847c1.839-1.155,3.89-1.733,6.152-1.733
		c3.597,0,6.376,1.147,8.337,3.442c1.961,2.295,2.942,5.542,2.942,9.741v2.393h-17.261c0.179,2.182,0.907,3.906,2.185,5.176
		c1.277,1.27,2.885,1.904,4.822,1.904c2.718,0,4.932-1.099,6.641-3.296l3.198,3.052c-1.058,1.579-2.47,2.804-4.236,3.674
		C173.888,450.553,171.906,450.988,169.709,450.988z M169.001,428.356c-1.628,0-2.942,0.57-3.943,1.709
		c-1.001,1.14-1.64,2.727-1.917,4.761h11.304v-0.439c-0.13-1.985-0.659-3.487-1.587-4.504
		C171.931,428.865,170.645,428.356,169.001,428.356z"/>
	<path style="fill:#FFFFFF;" d="M198.737,429.504c-0.781-0.13-1.587-0.195-2.417-0.195c-2.718,0-4.549,1.042-5.493,3.125V450.5
		h-5.933v-26.416h5.664l0.146,2.954c1.432-2.295,3.418-3.442,5.957-3.442c0.846,0,1.546,0.114,2.1,0.342L198.737,429.504z"/>
	<path style="fill:#FFFFFF;" d="M200.983,437.097c0-4.102,0.964-7.377,2.893-9.827c1.929-2.449,4.488-3.674,7.678-3.674
		c3.011,0,5.379,1.05,7.104,3.149l0.269-2.661h5.347v25.61c0,3.467-1.079,6.201-3.235,8.203c-2.157,2.002-5.066,3.003-8.728,3.003
		c-1.937,0-3.829-0.402-5.676-1.209c-1.848-0.805-3.251-1.859-4.211-3.161l2.808-3.564c1.823,2.164,4.069,3.247,6.738,3.247
		c1.969,0,3.523-0.533,4.663-1.6c1.139-1.065,1.709-2.633,1.709-4.699v-1.782c-1.709,1.904-3.988,2.856-6.836,2.856
		c-3.093,0-5.62-1.229-7.581-3.687C201.964,444.845,200.983,441.442,200.983,437.097z M206.892,437.609
		c0,2.653,0.541,4.74,1.624,6.262c1.082,1.522,2.583,2.283,4.504,2.283c2.393,0,4.167-1.025,5.322-3.076v-11.621
		c-1.123-2.002-2.881-3.003-5.273-3.003c-1.953,0-3.471,0.773-4.553,2.319C207.433,432.32,206.892,434.599,206.892,437.609z"/>
	<path style="fill:#FFFFFF;" d="M241.999,450.988c-3.76,0-6.808-1.184-9.143-3.553c-2.336-2.367-3.503-5.521-3.503-9.46v-0.732
		c0-2.637,0.508-4.993,1.526-7.067c1.017-2.076,2.445-3.69,4.285-4.847c1.839-1.155,3.89-1.733,6.152-1.733
		c3.597,0,6.376,1.147,8.337,3.442c1.961,2.295,2.942,5.542,2.942,9.741v2.393h-17.261c0.179,2.182,0.907,3.906,2.185,5.176
		c1.277,1.27,2.885,1.904,4.822,1.904c2.718,0,4.932-1.099,6.641-3.296l3.198,3.052c-1.058,1.579-2.47,2.804-4.236,3.674
		C246.178,450.553,244.196,450.988,241.999,450.988z M241.291,428.356c-1.628,0-2.942,0.57-3.943,1.709
		c-1.001,1.14-1.64,2.727-1.917,4.761h11.304v-0.439c-0.13-1.985-0.659-3.487-1.587-4.504
		C244.221,428.865,242.935,428.356,241.291,428.356z"/>
	<path style="fill:#FFFFFF;" d="M272.004,443.322c0-1.058-0.436-1.863-1.306-2.417c-0.871-0.553-2.315-1.041-4.333-1.465
		c-2.019-0.423-3.703-0.96-5.054-1.611c-2.962-1.432-4.443-3.507-4.443-6.226c0-2.278,0.96-4.183,2.881-5.713
		c1.92-1.529,4.362-2.295,7.324-2.295c3.157,0,5.708,0.781,7.654,2.344c1.945,1.563,2.917,3.589,2.917,6.079h-5.933
		c0-1.139-0.423-2.087-1.27-2.845c-0.847-0.756-1.97-1.135-3.369-1.135c-1.302,0-2.364,0.302-3.186,0.903
		c-0.822,0.603-1.233,1.408-1.233,2.417c0,0.912,0.382,1.62,1.147,2.124c0.765,0.505,2.311,1.013,4.639,1.526
		c2.327,0.512,4.154,1.123,5.481,1.83c1.326,0.709,2.311,1.56,2.954,2.552c0.643,0.993,0.964,2.197,0.964,3.613
		c0,2.377-0.985,4.301-2.954,5.774c-1.97,1.473-4.549,2.209-7.739,2.209c-2.165,0-4.094-0.391-5.786-1.172
		c-1.693-0.781-3.011-1.855-3.955-3.223c-0.944-1.367-1.416-2.84-1.416-4.419h5.762c0.081,1.4,0.61,2.478,1.587,3.235
		c0.977,0.756,2.271,1.135,3.882,1.135c1.563,0,2.75-0.297,3.564-0.891C271.597,445.06,272.004,444.283,272.004,443.322z"/>
	<path style="fill:#FFFFFF;" d="M297.81,443.322c0-1.058-0.436-1.863-1.306-2.417c-0.871-0.553-2.315-1.041-4.333-1.465
		c-2.019-0.423-3.703-0.96-5.054-1.611c-2.962-1.432-4.443-3.507-4.443-6.226c0-2.278,0.96-4.183,2.881-5.713
		c1.92-1.529,4.362-2.295,7.324-2.295c3.157,0,5.708,0.781,7.654,2.344c1.945,1.563,2.917,3.589,2.917,6.079h-5.933
		c0-1.139-0.423-2.087-1.27-2.845c-0.847-0.756-1.97-1.135-3.369-1.135c-1.302,0-2.364,0.302-3.186,0.903
		c-0.822,0.603-1.233,1.408-1.233,2.417c0,0.912,0.382,1.62,1.147,2.124c0.765,0.505,2.311,1.013,4.639,1.526
		c2.327,0.512,4.154,1.123,5.481,1.83c1.326,0.709,2.311,1.56,2.954,2.552c0.643,0.993,0.964,2.197,0.964,3.613
		c0,2.377-0.985,4.301-2.954,5.774c-1.97,1.473-4.549,2.209-7.739,2.209c-2.165,0-4.094-0.391-5.786-1.172
		c-1.693-0.781-3.011-1.855-3.955-3.223c-0.944-1.367-1.416-2.84-1.416-4.419h5.762c0.081,1.4,0.61,2.478,1.587,3.235
		c0.977,0.756,2.271,1.135,3.882,1.135c1.563,0,2.75-0.297,3.564-0.891C297.402,445.06,297.81,444.283,297.81,443.322z"/>
	<path style="fill:#FFFFFF;" d="M320.441,450.988c-3.76,0-6.808-1.184-9.143-3.553c-2.336-2.367-3.503-5.521-3.503-9.46v-0.732
		c0-2.637,0.508-4.993,1.526-7.067c1.017-2.076,2.445-3.69,4.285-4.847c1.839-1.155,3.89-1.733,6.152-1.733
		c3.597,0,6.376,1.147,8.337,3.442c1.962,2.295,2.942,5.542,2.942,9.741v2.393h-17.261c0.179,2.182,0.907,3.906,2.185,5.176
		c1.277,1.27,2.885,1.904,4.822,1.904c2.718,0,4.932-1.099,6.641-3.296l3.198,3.052c-1.059,1.579-2.471,2.804-4.236,3.674
		C324.62,450.553,322.639,450.988,320.441,450.988z M319.733,428.356c-1.628,0-2.942,0.57-3.943,1.709
		c-1.001,1.14-1.64,2.727-1.917,4.761h11.304v-0.439c-0.13-1.985-0.659-3.487-1.587-4.504
		C322.663,428.865,321.377,428.356,319.733,428.356z"/>
	<path style="fill:#FFFFFF;" d="M341.145,424.084l0.171,3.052c1.953-2.359,4.517-3.54,7.69-3.54c5.501,0,8.301,3.149,8.398,9.448
		V450.5h-5.933v-17.114c0-1.676-0.362-2.917-1.087-3.724c-0.724-0.805-1.908-1.208-3.552-1.208c-2.393,0-4.175,1.083-5.347,3.247
		V450.5h-5.933v-26.416H341.145z"/>
	<path style="fill:#FFFFFF;" d="M375.08,450.988c-3.76,0-6.808-1.184-9.144-3.553c-2.335-2.367-3.503-5.521-3.503-9.46v-0.732
		c0-2.637,0.509-4.993,1.526-7.067c1.017-2.076,2.444-3.69,4.284-4.847c1.839-1.155,3.89-1.733,6.152-1.733
		c3.597,0,6.376,1.147,8.337,3.442c1.962,2.295,2.942,5.542,2.942,9.741v2.393h-17.261c0.179,2.182,0.907,3.906,2.186,5.176
		c1.277,1.27,2.884,1.904,4.821,1.904c2.718,0,4.932-1.099,6.641-3.296l3.198,3.052c-1.059,1.579-2.47,2.804-4.236,3.674
		C379.259,450.553,377.277,450.988,375.08,450.988z M374.372,428.356c-1.628,0-2.941,0.57-3.943,1.709
		c-1,1.14-1.64,2.727-1.916,4.761h11.304v-0.439c-0.131-1.985-0.659-3.487-1.587-4.504
		C377.302,428.865,376.016,428.356,374.372,428.356z"/>
	<path style="fill:#FFFFFF;" d="M110.7,494.761l9.033-27.808h6.787L113.728,502.5h-5.981l-12.744-35.547h6.763L110.7,494.761z"/>
	<path style="fill:#FFFFFF;" d="M127.717,489.048c0-2.588,0.513-4.919,1.538-6.995c1.025-2.074,2.466-3.67,4.321-4.785
		c1.855-1.114,3.987-1.672,6.396-1.672c3.564,0,6.458,1.147,8.679,3.442s3.422,5.339,3.601,9.131l0.024,1.392
		c0,2.604-0.5,4.932-1.501,6.982s-2.434,3.638-4.297,4.761c-1.864,1.123-4.016,1.685-6.458,1.685c-3.728,0-6.71-1.241-8.948-3.723
		c-2.238-2.482-3.357-5.79-3.357-9.925V489.048z M133.649,489.561c0,2.719,0.562,4.846,1.685,6.385
		c1.123,1.537,2.686,2.307,4.688,2.307s3.56-0.781,4.675-2.344c1.115-1.563,1.672-3.849,1.672-6.86c0-2.669-0.574-4.785-1.721-6.348
		s-2.706-2.344-4.675-2.344c-1.937,0-3.475,0.769-4.614,2.308C134.219,484.201,133.649,486.501,133.649,489.561z"/>
	<path style="fill:#FFFFFF;" d="M171.125,481.504c-0.781-0.13-1.587-0.195-2.417-0.195c-2.718,0-4.549,1.042-5.493,3.125V502.5
		h-5.933v-26.416h5.664l0.146,2.954c1.432-2.295,3.418-3.442,5.957-3.442c0.846,0,1.546,0.114,2.1,0.342L171.125,481.504z"/>
	<path style="fill:#FFFFFF;" d="M173.371,489.097c0-4.102,0.964-7.377,2.893-9.827c1.929-2.449,4.488-3.674,7.678-3.674
		c3.011,0,5.379,1.05,7.104,3.149l0.269-2.661h5.347v25.61c0,3.467-1.079,6.201-3.235,8.203c-2.157,2.002-5.066,3.003-8.728,3.003
		c-1.937,0-3.829-0.402-5.676-1.209c-1.848-0.805-3.251-1.859-4.211-3.161l2.808-3.564c1.823,2.164,4.069,3.247,6.738,3.247
		c1.969,0,3.523-0.533,4.663-1.6c1.139-1.065,1.709-2.633,1.709-4.699v-1.782c-1.709,1.904-3.988,2.856-6.836,2.856
		c-3.093,0-5.62-1.229-7.581-3.687C174.352,496.845,173.371,493.442,173.371,489.097z M179.279,489.609
		c0,2.653,0.541,4.74,1.624,6.262c1.082,1.522,2.583,2.283,4.504,2.283c2.393,0,4.167-1.025,5.322-3.076v-11.621
		c-1.123-2.002-2.881-3.003-5.273-3.003c-1.953,0-3.471,0.773-4.553,2.319C179.82,484.32,179.279,486.599,179.279,489.609z"/>
	<path style="fill:#FFFFFF;" d="M214.387,502.988c-3.76,0-6.808-1.184-9.143-3.553c-2.336-2.367-3.503-5.521-3.503-9.46v-0.732
		c0-2.637,0.508-4.993,1.526-7.067c1.017-2.076,2.445-3.69,4.285-4.847c1.839-1.155,3.89-1.733,6.152-1.733
		c3.597,0,6.376,1.147,8.337,3.442c1.961,2.295,2.942,5.542,2.942,9.741v2.393h-17.261c0.179,2.182,0.907,3.906,2.185,5.176
		c1.277,1.27,2.885,1.904,4.822,1.904c2.718,0,4.932-1.099,6.641-3.296l3.198,3.052c-1.058,1.579-2.47,2.804-4.236,3.674
		C218.565,502.553,216.584,502.988,214.387,502.988z M213.679,480.356c-1.628,0-2.942,0.57-3.943,1.709
		c-1.001,1.14-1.64,2.727-1.917,4.761h11.304v-0.439c-0.13-1.985-0.659-3.487-1.587-4.504
		C216.608,480.865,215.322,480.356,213.679,480.356z"/>
	<path style="fill:#FFFFFF;" d="M244.392,495.322c0-1.058-0.436-1.863-1.306-2.417c-0.871-0.553-2.315-1.041-4.333-1.465
		c-2.019-0.423-3.703-0.96-5.054-1.611c-2.962-1.432-4.443-3.507-4.443-6.226c0-2.278,0.96-4.183,2.881-5.713
		c1.92-1.529,4.362-2.295,7.324-2.295c3.157,0,5.708,0.781,7.654,2.344c1.945,1.563,2.917,3.589,2.917,6.079h-5.933
		c0-1.139-0.423-2.087-1.27-2.845c-0.847-0.756-1.97-1.135-3.369-1.135c-1.302,0-2.364,0.302-3.186,0.903
		c-0.822,0.603-1.233,1.408-1.233,2.417c0,0.912,0.382,1.62,1.147,2.124c0.765,0.505,2.311,1.013,4.639,1.526
		c2.327,0.512,4.154,1.123,5.481,1.83c1.326,0.709,2.311,1.56,2.954,2.552c0.643,0.993,0.964,2.197,0.964,3.613
		c0,2.377-0.985,4.301-2.954,5.774c-1.97,1.473-4.549,2.209-7.739,2.209c-2.165,0-4.094-0.391-5.786-1.172
		c-1.693-0.781-3.011-1.855-3.955-3.223c-0.944-1.367-1.416-2.84-1.416-4.419h5.762c0.081,1.4,0.61,2.478,1.587,3.235
		c0.977,0.756,2.271,1.135,3.882,1.135c1.563,0,2.75-0.297,3.564-0.891C243.984,497.06,244.392,496.283,244.392,495.322z"/>
	<path style="fill:#FFFFFF;" d="M266.242,498.252c1.481,0,2.71-0.431,3.687-1.294c0.977-0.862,1.497-1.929,1.563-3.198h5.591
		c-0.065,1.645-0.578,3.178-1.538,4.602c-0.96,1.425-2.263,2.552-3.906,3.382c-1.644,0.83-3.418,1.245-5.322,1.245
		c-3.695,0-6.625-1.196-8.789-3.589c-2.165-2.393-3.247-5.696-3.247-9.912v-0.61c0-4.02,1.074-7.238,3.223-9.656
		c2.148-2.416,5.078-3.625,8.789-3.625c3.141,0,5.701,0.916,7.678,2.746c1.978,1.832,3.015,4.236,3.113,7.215h-5.591
		c-0.065-1.514-0.582-2.759-1.55-3.735c-0.969-0.977-2.202-1.465-3.699-1.465c-1.921,0-3.402,0.696-4.443,2.087
		c-1.042,1.393-1.571,3.504-1.587,6.336v0.952c0,2.865,0.517,5.001,1.55,6.409C262.795,497.548,264.289,498.252,266.242,498.252z"/>
	<path style="fill:#FFFFFF;" d="M287.409,478.965c1.937-2.246,4.386-3.369,7.349-3.369c5.631,0,8.488,3.215,8.569,9.644V502.5
		h-5.933v-17.041c0-1.822-0.395-3.113-1.184-3.869c-0.79-0.758-1.949-1.136-3.479-1.136c-2.376,0-4.15,1.059-5.322,3.174V502.5
		h-5.933V465h5.933V478.965z"/>
	<path style="fill:#FFFFFF;" d="M309.333,469.224c0-0.911,0.289-1.668,0.867-2.271c0.578-0.602,1.404-0.903,2.478-0.903
		s1.904,0.302,2.49,0.903c0.586,0.603,0.879,1.359,0.879,2.271c0,0.896-0.293,1.64-0.879,2.233c-0.586,0.595-1.416,0.892-2.49,0.892
		s-1.9-0.297-2.478-0.892C309.622,470.863,309.333,470.119,309.333,469.224z M315.632,502.5h-5.933v-26.416h5.933V502.5z"/>
	<path style="fill:#FFFFFF;" d="M332.941,498.252c1.48,0,2.71-0.431,3.687-1.294c0.977-0.862,1.497-1.929,1.563-3.198h5.591
		c-0.065,1.645-0.578,3.178-1.538,4.602c-0.961,1.425-2.263,2.552-3.906,3.382c-1.645,0.83-3.418,1.245-5.322,1.245
		c-3.695,0-6.625-1.196-8.789-3.589c-2.165-2.393-3.247-5.696-3.247-9.912v-0.61c0-4.02,1.074-7.238,3.223-9.656
		c2.148-2.416,5.078-3.625,8.789-3.625c3.141,0,5.7,0.916,7.679,2.746c1.977,1.832,3.015,4.236,3.112,7.215h-5.591
		c-0.065-1.514-0.582-2.759-1.551-3.735c-0.968-0.977-2.201-1.465-3.698-1.465c-1.921,0-3.401,0.696-4.443,2.087
		c-1.042,1.393-1.571,3.504-1.587,6.336v0.952c0,2.865,0.517,5.001,1.551,6.409C329.495,497.548,330.988,498.252,332.941,498.252z"
		/>
	<path style="fill:#FFFFFF;" d="M354.108,478.965c1.937-2.246,4.386-3.369,7.349-3.369c5.631,0,8.487,3.215,8.569,9.644V502.5
		h-5.933v-17.041c0-1.822-0.395-3.113-1.185-3.869c-0.789-0.758-1.949-1.136-3.479-1.136c-2.377,0-4.15,1.059-5.322,3.174V502.5
		h-5.933V465h5.933V478.965z"/>
	<path style="fill:#FFFFFF;" d="M383.454,469.663v6.421h4.663v4.395h-4.663v14.746c0,1.01,0.199,1.737,0.599,2.186
		c0.398,0.447,1.11,0.671,2.136,0.671c0.684,0,1.375-0.081,2.075-0.244v4.59c-1.352,0.374-2.653,0.562-3.906,0.562
		c-4.558,0-6.836-2.515-6.836-7.544v-14.966h-4.346v-4.395h4.346v-6.421H383.454z"/>
	<path style="fill:#FFFFFF;" d="M404.279,502.988c-3.76,0-6.808-1.184-9.144-3.553c-2.335-2.367-3.503-5.521-3.503-9.46v-0.732
		c0-2.637,0.509-4.993,1.526-7.067c1.017-2.076,2.444-3.69,4.284-4.847c1.839-1.155,3.89-1.733,6.152-1.733
		c3.597,0,6.376,1.147,8.337,3.442c1.962,2.295,2.942,5.542,2.942,9.741v2.393h-17.261c0.179,2.182,0.907,3.906,2.186,5.176
		c1.277,1.27,2.884,1.904,4.821,1.904c2.718,0,4.932-1.099,6.641-3.296l3.198,3.052c-1.059,1.579-2.47,2.804-4.236,3.674
		C408.458,502.553,406.477,502.988,404.279,502.988z M403.571,480.356c-1.628,0-2.941,0.57-3.943,1.709
		c-1,1.14-1.64,2.727-1.916,4.761h11.304v-0.439c-0.131-1.985-0.659-3.487-1.587-4.504
		C406.501,480.865,405.215,480.356,403.571,480.356z"/>
</g>
<g>
	<path style="fill-rule:evenodd;clip-rule:evenodd;fill:#FAF2F7;" d="M311.823,202.902c1.879-21.793,14.477-37.174,34.408-42.013
		c17.869-4.339,37.01,3.246,47.084,18.658c10.414,15.929,9.715,36.717-1.727,51.434c-11.332,14.575-29.852,20.773-47.291,15.827
		c-17.678-5.014-30.208-20.026-32.21-38.599c-0.107-0.993-0.197-1.988-0.295-2.983C311.803,204.452,311.813,203.678,311.823,202.902
		z M395.13,204.034c-0.006-21.336-17.354-38.854-38.58-38.961c-21.471-0.108-39.014,17.433-39.006,39
		c0.006,21.357,17.309,38.846,38.543,38.956C377.548,243.142,395.138,225.575,395.13,204.034z"/>
	<path style="fill-rule:evenodd;clip-rule:evenodd;fill:#D985B8;" d="M148.859,224.351c0.333-1.3,0.483-2.273,0.829-3.171
		c4.422-11.475,8.896-22.93,13.295-34.413c0.838-2.188,1.835-3.673,4.579-3.667c2.64,0.005,3.798,1.164,4.683,3.475
		c4.805,12.545,9.737,25.041,14.642,37.598c-5.693,1.499-5.922,1.354-7.733-3.255c-3.532-8.99-0.949-8.07-11.868-8.157
		c-0.166-0.002-0.333-0.001-0.499,0c-9.54,0.032-7.72-0.533-10.797,7.577C154.123,225.259,154.143,225.266,148.859,224.351z
		 M160.812,207.213c4.869,0,8.84,0,13.427,0c-2.252-6.227-4.251-11.757-6.25-17.286c-0.307,0.009-0.614,0.018-0.921,0.025
		C165.059,195.495,163.05,201.038,160.812,207.213z"/>
	<path style="fill-rule:evenodd;clip-rule:evenodd;fill:#D982B7;" d="M311.823,202.902c-0.011,0.775-0.021,1.55-0.03,2.324
		c-5.136,2.921-10.272,5.842-15.337,8.721c-1.202-3.225-2.263-5.896-3.173-8.619c-0.25-0.747-0.264-1.714-0.019-2.459
		c0.898-2.725,1.952-5.399,3.14-8.611C301.51,197.121,306.666,200.012,311.823,202.902z"/>
	<path style="fill-rule:evenodd;clip-rule:evenodd;fill:#DA87B9;" d="M280.938,225.962c-5.285,2.986-10.571,5.973-16.525,9.337
		c0-7.071,0-13.344,0-20.514c5.902,3.484,11.237,6.634,16.572,9.782C280.969,225.032,280.953,225.497,280.938,225.962z"/>
	<path style="fill-rule:evenodd;clip-rule:evenodd;fill:#DA87B9;" d="M282.108,181.25c-6.437,3.759-11.763,6.869-17.795,10.392
		c0-7.251,0-13.436,0-20.573C270.278,174.481,275.725,177.597,282.108,181.25z"/>
	<path style="fill-rule:evenodd;clip-rule:evenodd;fill:#D880B5;" d="M206.305,208.521c0-2.503-0.102-4.641,0.049-6.762
		c0.063-0.888,0.577-2.423,1.033-2.479c1.453-0.18,3.604-0.358,4.339,0.474c1.515,1.715,6.348,1.672,4.222,5.207
		c-1.245,2.069-4.628,2.895-7.121,4.136C208.383,209.318,207.59,208.839,206.305,208.521z"/>
	<path style="fill-rule:evenodd;clip-rule:evenodd;fill:#D77EB4;" d="M226.331,110.312c-3.067,0.498-5.627,1.353-5.793-2.426
		c-0.172-3.929,2.763-2.677,5.189-3.089C225.936,106.707,226.109,108.289,226.331,110.312z"/>
	<path style="fill-rule:evenodd;clip-rule:evenodd;fill:#E09AC4;" d="M214.782,134.669c-1.246,0.909-2.509,1.83-3.95,2.881
		c-1.393-1.478-2.561-2.717-3.753-3.981C211.664,130.063,211.809,130.085,214.782,134.669z"/>
	<path style="fill-rule:evenodd;clip-rule:evenodd;fill:#DF97C2;" d="M210.799,268.809c1.399,0.966,2.59,1.788,3.748,2.587
		c-2.345,4.863-2.6,4.916-7.494,1.387C208.273,271.487,209.45,270.239,210.799,268.809z"/>
	<path style="fill-rule:evenodd;clip-rule:evenodd;fill:#D67BB2;" d="M168.333,113.753c-1.169,0.743-2.346,2.061-3.505,2.044
		c-0.903-0.012-2.466-1.672-2.482-2.621c-0.017-0.977,1.429-2.712,2.34-2.783c1.147-0.091,2.4,1.168,3.608,1.846
		C168.308,112.743,168.32,113.248,168.333,113.753z"/>
	<path style="fill-rule:evenodd;clip-rule:evenodd;fill:#D881B6;" d="M290.258,204.005c-2.244,1.43-3.404,2.731-4.549,2.72
		c-0.908-0.009-2.303-1.493-2.591-2.562c-0.537-1.997,0.706-3.307,2.79-2.884C287.052,201.512,288.029,202.563,290.258,204.005z"/>
	<path style="fill-rule:evenodd;clip-rule:evenodd;fill:#D67BB2;" d="M227.338,204.87c-1.17,0.686-2.381,1.953-3.496,1.873
		c-0.912-0.066-2.37-1.742-2.367-2.701c0.003-0.957,1.477-2.625,2.386-2.681c1.117-0.069,2.317,1.209,3.482,1.904
		C227.342,203.801,227.34,204.336,227.338,204.87z"/>
	<path style="fill-rule:evenodd;clip-rule:evenodd;fill:#D77FB5;" d="M210.072,82.401c-0.832,1.669-1.463,2.936-2.24,4.493
		c-1.544-0.518-2.865-0.96-4.629-1.551c0.507-1.741,0.938-3.223,1.554-5.334C206.696,80.882,208.226,81.571,210.072,82.401z"/>
	<path style="fill-rule:evenodd;clip-rule:evenodd;fill:#D67AB2;" d="M164.764,288.729c1.525,2.26,2.789,3.351,2.997,4.614
		c0.347,2.114-1.286,3.124-3.124,2.493c-1.028-0.354-2.203-1.793-2.317-2.851C162.215,292.014,163.443,290.897,164.764,288.729z"/>
	<path style="fill-rule:evenodd;clip-rule:evenodd;fill:#D67BB2;" d="M188.133,264.477c3.047-0.18,4.469-0.265,6.599-0.391
		c-0.173,1.936,0.002,3.585-0.584,4.892c-0.263,0.585-2.585,1.033-3.044,0.588C190,268.492,189.444,266.854,188.133,264.477z"/>
	<path style="fill-rule:evenodd;clip-rule:evenodd;fill:#D67BB2;" d="M125.533,212.414c-0.708-1.177-1.949-2.354-1.946-3.528
		c0.002-0.857,1.64-2.374,2.556-2.381c0.952-0.006,2.637,1.405,2.692,2.28c0.073,1.156-1.126,2.394-1.779,3.596
		C126.548,212.392,126.041,212.402,125.533,212.414z"/>
	<path style="fill-rule:evenodd;clip-rule:evenodd;fill:#D77DB3;" d="M160.587,160.028c0.827,2.604,2.591,4.804-0.727,5.865
		c-3.255,1.042-3.968-1.198-4.124-4.34C157.13,161.115,158.607,160.651,160.587,160.028z"/>
	<path style="fill-rule:evenodd;clip-rule:evenodd;fill:#D67BB2;" d="M123.014,200.592c0.674-1.467,1.084-3.193,2.149-4.276
		c0.431-0.438,2.787,0.169,3.363,0.96c0.598,0.819,0.543,3.25,0,3.545c-1.333,0.721-3.111,0.617-4.71,0.845
		C123.548,201.308,123.281,200.95,123.014,200.592z"/>
	<path style="fill-rule:evenodd;clip-rule:evenodd;fill:#D77EB4;" d="M225.19,290.899c-4.696,1.563-4.696,1.563-5.324-3.269
		C224.541,285.121,225.154,285.497,225.19,290.899z"/>
	<path style="fill-rule:evenodd;clip-rule:evenodd;fill:#D882B6;" d="M164.418,306.264c-2.353-4.615-2.205-4.906,2.827-5.568
		C169.633,305.299,169.604,305.357,164.418,306.264z"/>
	<path style="fill-rule:evenodd;clip-rule:evenodd;fill:#D77FB5;" d="M173.101,86.161c1.994-1.462,3.222-2.363,4.868-3.57
		c1.066,1.683,1.88,2.966,2.796,4.411c-1.274,1.037-2.25,1.831-4.297,3.497C175.518,89.275,174.592,88.083,173.101,86.161z"/>
	<path style="fill-rule:evenodd;clip-rule:evenodd;fill:#D881B6;" d="M207.731,319.318c0.805,1.52,1.468,2.772,2.31,4.36
		c-1.608,0.884-2.981,1.638-4.316,2.372C202.464,321.6,202.503,321.454,207.731,319.318z"/>
	<path style="fill-rule:evenodd;clip-rule:evenodd;fill:#D880B5;" d="M210.653,145.363c-0.684-2.111-1.077-3.328-1.605-4.958
		c1.352-0.475,2.852-1.541,3.634-1.155c1.316,0.65,2.175,2.225,3.772,4.024C213.963,144.172,212.524,144.689,210.653,145.363z"/>
	<path style="fill-rule:evenodd;clip-rule:evenodd;fill:#D77DB3;" d="M256.581,230.353c-1.269-2.188-2.201-3.199-2.453-4.358
		c-0.484-2.222,1.206-3.099,2.908-2.74c1.032,0.218,2.525,1.762,2.49,2.658C259.48,227.07,258.116,228.177,256.581,230.353z"/>
	<path style="fill-rule:evenodd;clip-rule:evenodd;fill:#D880B5;" d="M161.208,247.886c-2.304-0.444-3.698-0.714-6.023-1.163
		c0.979-1.826,1.505-3.456,2.587-4.521c0.464-0.457,2.867,0,3.034,0.496C161.296,244.162,161.109,245.853,161.208,247.886z"/>
	<path style="fill-rule:evenodd;clip-rule:evenodd;fill:#D881B6;" d="M215.471,251.038c1.83,1.215,3.004,1.994,4.122,2.736
		c-1.879,5.11-1.945,5.131-6.503,1.921C213.769,254.367,214.473,252.99,215.471,251.038z"/>
	<path style="fill-rule:evenodd;clip-rule:evenodd;fill:#D77FB5;" d="M217.557,123.18c1.512,0.794,2.762,1.45,4.593,2.412
		c-1.019,1.682-1.868,3.083-2.994,4.942c-1.643-1.24-2.852-2.154-4.287-3.237C215.873,125.759,216.64,124.584,217.557,123.18z"/>
	<path style="fill-rule:evenodd;clip-rule:evenodd;fill:#D880B5;" d="M173.549,135.791c-1.388-1.879-2.267-3.067-3.145-4.256
		c-0.292-0.326-0.583-0.651-0.875-0.978c1.113-1.057,2.226-2.114,3.596-3.415c1.83,1.745,2.85,2.718,4.071,3.883
		C176.121,132.431,175.253,133.564,173.549,135.791z"/>
	<path style="fill-rule:evenodd;clip-rule:evenodd;fill:#D881B6;" d="M232.94,167.304c-1.273,1.46-2.225,2.552-3.483,3.994
		c-1.373-1.252-2.525-2.304-3.949-3.602c1.26-1.368,2.22-2.412,3.5-3.803C230.426,165.123,231.59,166.133,232.94,167.304z"/>
	<path style="fill-rule:evenodd;clip-rule:evenodd;fill:#D881B6;" d="M221.811,312.31c-1.843-1.174-3.039-1.937-4.505-2.87
		c0.683-1.447,1.274-2.704,2.034-4.314c1.689,0.666,3.1,1.222,4.911,1.936C223.395,308.903,222.745,310.301,221.811,312.31z"/>
	<path style="fill-rule:evenodd;clip-rule:evenodd;fill:#D983B7;" d="M233.1,239.2c-1.616,1.244-2.739,2.107-4.097,3.151
		c-1.195-1.277-2.166-2.314-3.466-3.704c1.4-1.267,2.551-2.309,3.909-3.538C230.686,236.497,231.649,237.575,233.1,239.2z"/>
	<path style="fill-rule:evenodd;clip-rule:evenodd;fill:#D881B6;" d="M245.104,174.754c5.624,1.159,5.717,1.381,2.939,6.232
		c-1.279-0.487-2.604-0.991-4.288-1.632C244.228,177.741,244.622,176.398,245.104,174.754z"/>
	<path style="fill-rule:evenodd;clip-rule:evenodd;fill:#D880B5;" d="M224.587,120.384c-5.249-1.114-5.294-1.194-3.484-5.93
		c1.322,0.24,2.703,0.492,4.663,0.849C225.327,117.194,224.956,118.793,224.587,120.384z"/>
	<path style="fill-rule:evenodd;clip-rule:evenodd;fill:#D881B6;" d="M238.756,177.185c-1.795-0.981-3.158-1.726-4.934-2.697
		c1.022-1.64,1.834-2.942,2.75-4.41c1.491,0.718,2.632,1.268,4.403,2.12C240.249,173.829,239.592,175.306,238.756,177.185z"/>
	<path style="fill-rule:evenodd;clip-rule:evenodd;fill:#D983B7;" d="M189.38,236.577c1.148,1.808,1.828,2.878,2.767,4.355
		c-1.544,0.92-2.875,1.712-4.524,2.693c-0.986-1.502-1.758-2.678-2.833-4.314C186.38,238.363,187.688,237.585,189.38,236.577z"/>
	<path style="fill-rule:evenodd;clip-rule:evenodd;fill:#D77EB4;" d="M209.013,265.701c0.626-1.618,1.145-2.96,1.777-4.596
		c1.585,0.486,2.934,0.899,4.615,1.415c-0.288,1.301-0.264,2.517-0.809,3.37C213.504,267.604,213.282,267.521,209.013,265.701z"/>
	<path style="fill-rule:evenodd;clip-rule:evenodd;fill:#D77EB4;" d="M200.068,141.435c-0.353-1.691-0.641-3.074-0.988-4.739
		c1.635-0.51,2.967-0.926,4.237-1.323C205.984,140.093,205.835,140.401,200.068,141.435z"/>
	<path style="fill-rule:evenodd;clip-rule:evenodd;fill:#D984B7;" d="M144.293,172.78c-1.445,1.205-2.534,2.113-4.164,3.472
		c-1.198-1.241-2.207-2.287-3.559-3.688c1.599-1.491,2.737-2.554,4.25-3.965C142.094,170.132,143.082,171.321,144.293,172.78z"/>
	<path style="fill-rule:evenodd;clip-rule:evenodd;fill:#D881B6;" d="M191.879,167.354c-2.664,4.458-2.664,4.458-6.445,1.455
		C187.239,163.96,187.343,163.932,191.879,167.354z"/>
	<path style="fill-rule:evenodd;clip-rule:evenodd;fill:#D77FB5;" d="M217.557,147.964c0.879,1.551,1.573,2.775,2.486,4.388
		c-1.537,0.964-2.846,1.784-4.518,2.833c-0.943-1.704-1.697-3.068-2.678-4.84C214.545,149.486,215.917,148.793,217.557,147.964z"/>
	<path style="fill-rule:evenodd;clip-rule:evenodd;fill:#D881B6;" d="M222.343,280.537c-1.954,1.059-3.197,1.731-4.693,2.542
		c-0.945-1.338-1.75-2.479-2.719-3.852c1.25-1.122,2.301-2.065,3.861-3.466C219.974,277.352,220.958,278.676,222.343,280.537z"/>
	<path style="fill-rule:evenodd;clip-rule:evenodd;fill:#D984B7;" d="M136.548,235.896c1.501-1.729,2.457-2.829,3.587-4.132
		c1.678,1.467,2.752,2.406,4.055,3.545c-1.06,1.4-1.922,2.539-3.09,4.083C139.614,238.251,138.383,237.306,136.548,235.896z"/>
	<path style="fill-rule:evenodd;clip-rule:evenodd;fill:#D881B6;" d="M194.354,327.964c-0.228-2.498-1.489-4.979,1.865-5.479
		c4.011-0.597,2.583,2.733,3.87,5.145C197.7,327.769,196.162,327.858,194.354,327.964z"/>
	<path style="fill-rule:evenodd;clip-rule:evenodd;fill:#D77FB5;" d="M217.731,96.894c3.984-2.847,3.984-2.847,6.062,1.544
		C220.146,102.08,219.271,101.857,217.731,96.894z"/>
	<path style="fill-rule:evenodd;clip-rule:evenodd;fill:#D881B6;" d="M166.751,126.896c-1.106-2.268-1.723-3.533-2.74-5.62
		c2.11-0.322,3.733-0.878,5.24-0.653c0.634,0.094,1.696,2.233,1.391,2.748C169.917,124.596,168.492,125.406,166.751,126.896z"/>
	<path style="fill-rule:evenodd;clip-rule:evenodd;fill:#D77DB3;" d="M199.583,79.064c-0.434,2.53,0.145,5.284-3.296,4.777
		c-3.384-0.498-2.213-2.941-1.949-5.249c0.937-0.127,1.729-0.365,2.498-0.304C197.624,78.354,198.388,78.711,199.583,79.064z"/>
	<path style="fill-rule:evenodd;clip-rule:evenodd;fill:#D880B5;" d="M206.594,225.024c-1.158,1.962-1.195,4.932-4.594,3.458
		c-1.667-0.723-2.542-2.025-1.251-3.897C202.867,221.512,204.5,223.648,206.594,225.024z"/>
	<path style="fill-rule:evenodd;clip-rule:evenodd;fill:#D881B6;" d="M203.989,189.788c1.94-0.643,3.261-1.08,4.533-1.502
		c2.493,4.774,2.296,5.173-2.949,5.915C205.127,192.96,204.659,191.656,203.989,189.788z"/>
	<path style="fill-rule:evenodd;clip-rule:evenodd;fill:#D881B6;" d="M169.932,102.661c-1.883,1.486-2.826,2.82-3.923,2.961
		c-1.696,0.219-3.521-0.668-2.827-2.862c0.335-1.06,1.72-2.365,2.738-2.466C166.919,100.195,168.057,101.48,169.932,102.661z"/>
	<path style="fill-rule:evenodd;clip-rule:evenodd;fill:#D77EB4;" d="M222.268,164.749c-1.755-2.432-2.586-3.583-3.838-5.316
		c1.601-0.894,2.837-1.949,4.214-2.186c0.617-0.106,2.25,1.555,2.141,2.194C224.527,160.941,223.498,162.311,222.268,164.749z"/>
	<path style="fill-rule:evenodd;clip-rule:evenodd;fill:#D985B8;" d="M179.146,168.105c-1.396-1.908-2.793-2.983-2.734-3.971
		c0.061-1.026,1.433-2.65,2.408-2.791c1.541-0.223,3.529,0.498,2.958,2.794C181.488,165.304,180.404,166.272,179.146,168.105z"/>
	<path style="fill-rule:evenodd;clip-rule:evenodd;fill:#D77FB5;" d="M150.191,163.291c1.894,2.834,2.903,4.985-0.384,6.171
		c-3.419,1.231-2.793-2.039-4.487-3.666C147.323,164.767,148.692,164.062,150.191,163.291z"/>
	<path style="fill-rule:evenodd;clip-rule:evenodd;fill:#D882B6;" d="M210.687,214.938c-0.605,1.804-1.097,3.269-1.691,5.038
		c-1.746-0.58-3.07-1.021-4.339-1.442C205.219,213.562,205.219,213.562,210.687,214.938z"/>
	<path style="fill-rule:evenodd;clip-rule:evenodd;fill:#D77FB5;" d="M149.741,244.689c-1.229-0.69-2.458-1.381-3.992-2.243
		c0.692-1.522,1.27-2.79,1.983-4.357c1.284,0.458,2.968,0.599,3.171,1.222c0.503,1.545,0.329,3.311,0.428,4.987
		C150.801,244.429,150.271,244.56,149.741,244.689z"/>
	<path style="fill-rule:evenodd;clip-rule:evenodd;fill:#D880B5;" d="M177.208,274.991c-3.538,3.762-3.538,3.762-7.118,0.153
		c1-1.158,2.024-2.345,3.477-4.025C174.901,272.538,175.941,273.645,177.208,274.991z"/>
	<path style="fill-rule:evenodd;clip-rule:evenodd;fill:#D880B5;" d="M206.686,183.14c-2.422,1.505-4.259,3.278-6.093,0.13
		c-1.198-2.056,0.108-3.168,1.664-3.777C205.411,178.255,205.468,181.065,206.686,183.14z"/>
	<path style="fill-rule:evenodd;clip-rule:evenodd;fill:#D77EB4;" d="M248.423,225.134c0.943,2.474,3.023,4.463-0.517,6.005
		c-1.639,0.713-2.789,0.453-3.493-1.35C243.015,226.208,245.772,226.153,248.423,225.134z"/>
	<path style="fill-rule:evenodd;clip-rule:evenodd;fill:#D882B6;" d="M182.95,326.175c0.772-2.058,1.265-3.368,1.735-4.621
		c4.895,0.785,4.895,0.785,3.411,5.878C186.616,327.07,185.117,326.704,182.95,326.175z"/>
	<path style="fill-rule:evenodd;clip-rule:evenodd;fill:#D77FB5;" d="M182.841,80.423c2.713-0.867,4.895-2.875,5.951,0.464
		c0.313,0.99-0.88,3.36-1.857,3.688C183.535,85.719,184.161,82.47,182.841,80.423z"/>
	<path style="fill-rule:evenodd;clip-rule:evenodd;fill:#D880B5;" d="M236.665,236.345c-0.994-1.585-1.741-2.776-2.465-3.93
		c4.179-3.56,4.499-3.491,6.419,1.195c-0.263,0.346-0.479,0.839-0.857,1.085C238.962,235.215,238.079,235.605,236.665,236.345z"/>
	<path style="fill-rule:evenodd;clip-rule:evenodd;fill:#D880B5;" d="M170.229,96.993c-1.093-0.791-2.232-1.616-3.718-2.693
		c1.048-1.568,1.908-2.854,2.756-4.123C174.039,93.042,174.078,93.343,170.229,96.993z"/>
	<path style="fill-rule:evenodd;clip-rule:evenodd;fill:#D77FB5;" d="M259.655,178.216c0.048,2.928,0.12,5.087-3.165,4.837
		c-2.196-0.167-2.81-1.443-2.313-3.376C255.086,176.139,257.372,178.138,259.655,178.216z"/>
	<path style="fill-rule:evenodd;clip-rule:evenodd;fill:#D985B8;" d="M178.435,248.061c-0.996-1.868-2.219-3.118-2.022-4.074
		c0.217-1.046,1.746-1.821,2.703-2.715c0.938,1.075,2.442,2.067,2.617,3.255C181.849,245.319,180.073,246.391,178.435,248.061z"/>
	<path style="fill-rule:evenodd;clip-rule:evenodd;fill:#D881B6;" d="M217.875,247.221c1.94-2.212,2.79-3.181,3.864-4.406
		c1.327,0.939,2.486,1.759,4.092,2.896c-1,1.25-1.714,2.949-2.558,3.017C221.805,248.845,220.256,247.955,217.875,247.221z"/>
	<path style="fill-rule:evenodd;clip-rule:evenodd;fill:#D982B7;" d="M173.188,320.939c1.578-2.073,2.436-3.199,3.766-4.948
		c1.261,1.572,2.545,2.621,2.986,3.949c0.23,0.695-1.039,2.698-1.601,2.687C176.907,322.597,175.491,321.766,173.188,320.939z"/>
	<path style="fill-rule:evenodd;clip-rule:evenodd;fill:#D881B6;" d="M199.943,234.149c-0.905,0.986-1.849,2.016-3.17,3.455
		c-1.329-1.222-2.428-2.231-3.481-3.199C196.372,229.846,196.617,229.84,199.943,234.149z"/>
	<path style="fill-rule:evenodd;clip-rule:evenodd;fill:#D982B7;" d="M198.51,269.406c1.173-1.798,1.771-3.313,2.88-4.149
		c0.518-0.391,2.708,0.277,2.942,0.909c0.478,1.287,0.143,2.876,0.143,5.141C202.083,270.545,200.658,270.091,198.51,269.406z"/>
	<path style="fill-rule:evenodd;clip-rule:evenodd;fill:#D882B6;" d="M184.092,266.271c0.103,1.58,0.483,3.221,0.16,4.708
		c-0.116,0.53-2.216,1.238-2.915,0.885c-0.977-0.494-2.31-2.396-2.048-2.834c0.792-1.322,2.278-2.228,3.494-3.296
		C183.219,265.913,183.655,266.093,184.092,266.271z"/>
	<path style="fill-rule:evenodd;clip-rule:evenodd;fill:#D77FB5;" d="M214.675,86.185c4.29,3.187,4.29,3.187,0.638,6.369
		C210.908,90.378,210.843,89.907,214.675,86.185z"/>
	<path style="fill-rule:evenodd;clip-rule:evenodd;fill:#D984B8;" d="M182.722,140.468c-1.187-1.052-2.673-1.938-3.404-3.244
		c-0.268-0.479,1.052-2.352,2.025-2.848c0.696-0.355,2.802,0.354,2.916,0.885c0.322,1.485-0.063,3.124-0.168,4.702
		C183.634,140.131,183.178,140.3,182.722,140.468z"/>
	<path style="fill-rule:evenodd;clip-rule:evenodd;fill:#D880B5;" d="M196.15,139.763c-2.107,1.187-3.153,2.233-4.184,2.219
		c-0.934-0.013-2.48-1.054-2.647-1.869c-0.351-1.706,0.443-3.449,2.623-3.072C193.068,137.235,194.037,138.347,196.15,139.763z"/>
	<path style="fill-rule:evenodd;clip-rule:evenodd;fill:#D983B7;" d="M132.099,187.759c-0.869,2.324-0.828,4.886-4.122,3.844
		c-2.028-0.641-2.44-2.041-1.542-3.813C128.017,184.667,129.802,186.594,132.099,187.759z"/>
	<path style="fill-rule:evenodd;clip-rule:evenodd;fill:#D881B6;" d="M238.271,204.413c-1.923,1.172-3.152,2.491-3.972,2.273
		c-0.985-0.262-2.277-1.873-2.22-2.827c0.055-0.921,1.619-2.372,2.592-2.434C235.551,201.371,236.528,202.882,238.271,204.413z"/>
	<path style="fill-rule:evenodd;clip-rule:evenodd;fill:#D77FB5;" d="M173.288,246.202c-2.321,0.988-3.605,2.044-4.562,1.803
		c-1.011-0.256-1.71-1.747-2.546-2.698c1.024-0.752,2.05-2.09,3.072-2.087C170.246,243.222,171.235,244.6,173.288,246.202z"/>
	<path style="fill-rule:evenodd;clip-rule:evenodd;fill:#D881B6;" d="M248.387,203.894c-1.806,1.428-2.844,2.872-3.748,2.792
		c-0.945-0.083-2.424-1.616-2.447-2.545c-0.023-0.951,1.323-2.554,2.28-2.729C245.345,201.251,246.499,202.619,248.387,203.894z"/>
	<path style="fill-rule:evenodd;clip-rule:evenodd;fill:#D77EB4;" d="M173.268,161.957c-2.057,1.575-3.057,2.939-4.045,2.932
		c-1.021-0.009-2.032-1.352-3.047-2.111c0.84-0.945,1.548-2.435,2.558-2.679C169.691,159.868,170.964,160.941,173.268,161.957z"/>
	<path style="fill-rule:evenodd;clip-rule:evenodd;fill:#D984B7;" d="M173.353,313.365c-1.058,0.866-2.155,1.765-3.673,3.008
		c-1.12-1.465-2.044-2.673-2.938-3.843C170.606,308.882,170.721,308.898,173.353,313.365z"/>
	<path style="fill-rule:evenodd;clip-rule:evenodd;fill:#D881B6;" d="M215.084,320.652c-2.638-2.186-4.283-3.514-2.185-5.632
		c2.389-2.411,3.627-0.162,6.624,2.253C217.796,318.589,216.479,319.591,215.084,320.652z"/>
	<path style="fill-rule:evenodd;clip-rule:evenodd;fill:#D881B6;" d="M193.209,174.003c1.002-1.067,2.043-2.175,3.298-3.512
		c1.369,1.289,2.391,2.252,3.37,3.173C196.995,178.199,196.688,178.22,193.209,174.003z"/>
	<path style="fill-rule:evenodd;clip-rule:evenodd;fill:#D881B6;" d="M274.557,207.22c-0.555-1.115-1.693-2.344-1.504-3.314
		c0.197-1.018,1.666-1.789,2.58-2.669c0.782,0.997,2.105,1.952,2.188,3.005c0.076,0.963-1.188,2.031-1.861,3.054
		C275.492,207.27,275.023,207.245,274.557,207.22z"/>
	<path style="fill-rule:evenodd;clip-rule:evenodd;fill:#D983B7;" d="M131.759,221.074c-1.568,0.104-3.248,0.572-4.652,0.142
		c-0.594-0.182-1.038-2.377-0.739-3.425c0.207-0.724,2.192-1.72,2.706-1.424c1.29,0.746,2.195,2.156,3.255,3.301
		C132.139,220.137,131.949,220.605,131.759,221.074z"/>
	<path style="fill-rule:evenodd;clip-rule:evenodd;fill:#D983B7;" d="M167.394,279.772c1.097,1.152,2.438,2.175,3.154,3.528
		c0.244,0.462-0.952,2.349-1.729,2.524c-1.057,0.238-3.268-0.389-3.354-0.913c-0.247-1.496,0.33-3.129,0.583-4.708
		C166.497,280.061,166.945,279.917,167.394,279.772z"/>
	<path style="fill-rule:evenodd;clip-rule:evenodd;fill:#D985B8;" d="M220.79,301.001c-0.091-2.905-0.344-5.185,3.016-4.885
		c3.333,0.297,1.941,2.706,2.023,5.157C224.2,301.186,222.701,301.104,220.79,301.001z"/>
	<path style="fill-rule:evenodd;clip-rule:evenodd;fill:#D984B8;" d="M133.093,176.277c1.635,1.307,2.741,2.19,3.799,3.035
		c-2.531,4.602-2.531,4.602-6.626,1.125C131.046,179.29,131.846,178.113,133.093,176.277z"/>
	<path style="fill-rule:evenodd;clip-rule:evenodd;fill:#D984B8;" d="M130.183,227.804c4.054-3.6,4.054-3.6,6.722,0.921
		c-1.039,0.869-2.124,1.776-3.596,3.008C132.107,230.223,131.139,229.005,130.183,227.804z"/>
	<path style="fill-rule:evenodd;clip-rule:evenodd;fill:#BA207E;" d="M160.812,207.213c2.238-6.175,4.247-11.718,6.255-17.261
		c0.307-0.008,0.614-0.017,0.921-0.025c2,5.529,3.999,11.06,6.25,17.286C169.652,207.213,165.681,207.213,160.812,207.213z"/>
	<path style="fill-rule:evenodd;clip-rule:evenodd;fill:#FBF6F9;" d="M340.04,225.064c0-14.132,0-27.686,0-41.617
		c7.469,0,14.729-0.213,21.967,0.079c4.379,0.177,7.391,2.859,8.699,7.076c1.352,4.352,0.066,7.586-4.564,12.029
		c3.602,2.044,6.258,4.76,6.686,9.109c0.682,6.952-4.283,12.547-11.852,13.206c-1.156,0.101-2.322,0.109-3.486,0.112
		C351.856,225.07,346.224,225.064,340.04,225.064z M346.101,219.948c5.018,0,9.813,0.24,14.572-0.076
		c3.732-0.248,6.098-3.083,6.293-6.592c0.18-3.225-1.91-6.565-5.26-6.853c-5.189-0.444-10.445-0.117-15.605-0.117
		C346.101,211.019,346.101,215.287,346.101,219.948z M346.04,201.227c5.188-0.229,9.842-0.102,14.387-0.741
		c3.529-0.497,4.885-2.954,4.703-6.511c-0.17-3.354-2.119-5.373-5.219-5.6c-4.555-0.333-9.152-0.086-13.871-0.086
		C346.04,192.611,346.04,196.531,346.04,201.227z"/>
	<path style="fill-rule:evenodd;clip-rule:evenodd;fill:#B8197A;" d="M346.101,219.948c0-4.661,0-8.93,0-13.638
		c5.16,0,10.416-0.327,15.605,0.117c3.35,0.287,5.439,3.628,5.26,6.853c-0.195,3.509-2.561,6.344-6.293,6.592
		C355.913,220.188,351.118,219.948,346.101,219.948z"/>
	<path style="fill-rule:evenodd;clip-rule:evenodd;fill:#B81A7A;" d="M346.04,201.227c0-4.695,0-8.615,0-12.938
		c4.719,0,9.316-0.247,13.871,0.086c3.1,0.227,5.049,2.245,5.219,5.6c0.182,3.557-1.174,6.014-4.703,6.511
		C355.882,201.125,351.228,200.998,346.04,201.227z"/>
</g>
</svg>
