<?xml version="1.0" encoding="utf-8"?>
<!-- Generator: Adobe Illustrator 16.0.3, SVG Export Plug-In . SVG Version: 6.00 Build 0)  -->
<!DOCTYPE svg PUBLIC "-//W3C//DTD SVG 1.1//EN" "http://www.w3.org/Graphics/SVG/1.1/DTD/svg11.dtd" [
	<!ENTITY ns_extend "http://ns.adobe.com/Extensibility/1.0/">
	<!ENTITY ns_ai "http://ns.adobe.com/AdobeIllustrator/10.0/">
	<!ENTITY ns_graphs "http://ns.adobe.com/Graphs/1.0/">
	<!ENTITY ns_vars "http://ns.adobe.com/Variables/1.0/">
	<!ENTITY ns_imrep "http://ns.adobe.com/ImageReplacement/1.0/">
	<!ENTITY ns_sfw "http://ns.adobe.com/SaveForWeb/1.0/">
	<!ENTITY ns_custom "http://ns.adobe.com/GenericCustomNamespace/1.0/">
	<!ENTITY ns_adobe_xpath "http://ns.adobe.com/XPath/1.0/">
]>
<svg version="1.1" id="Ebene_1" xmlns:x="&ns_extend;" xmlns:i="&ns_ai;" xmlns:graph="&ns_graphs;"
	 xmlns="http://www.w3.org/2000/svg" xmlns:xlink="http://www.w3.org/1999/xlink" x="0px" y="0px" width="300px" height="300px"
	 viewBox="0 0 300 300" enable-background="new 0 0 300 300" xml:space="preserve">
<metadata>
	<sfw  xmlns="&ns_sfw;">
		<slices></slices>
		<sliceSourceBounds  height="309.582" width="300" x="-50.5" y="-57.082" bottomLeftOrigin="true"></sliceSourceBounds>
	</sfw>
</metadata>
<path fill="#C18C2F" d="M228,298H72c-39.604,0-72-16.9-72-56.5V58C0,18.4,32.397-2,72-2h156c39.601,0,72,20.9,72,60.5V242
	C300,281.6,267.599,298,228,298z"/>
<rect x="0.757" y="228.086" fill="none" width="298.483" height="79.496"/>
<g enable-background="new    ">
	<path fill="#FFFFFF" d="M66.508,247.957c-0.24-4.513-0.528-9.938-0.48-13.97h-0.144c-1.104,3.793-2.448,7.825-4.08,12.289
		l-5.713,15.697h-3.168l-5.232-15.409c-1.536-4.561-2.833-8.736-3.745-12.577H43.85c-0.096,4.032-0.336,9.457-0.624,14.306
		l-0.864,13.873h-3.984l2.256-32.354h5.329l5.52,15.649c1.344,3.984,2.448,7.536,3.265,10.896h0.144
		c0.816-3.265,1.968-6.816,3.408-10.896l5.76-15.649h5.329l2.016,32.354h-4.08L66.508,247.957z"/>
	<path fill="#FFFFFF" d="M80.328,251.317c0.096,5.712,3.744,8.064,7.969,8.064c3.024,0,4.849-0.528,6.433-1.2l0.72,3.024
		c-1.488,0.672-4.033,1.44-7.729,1.44c-7.152,0-11.425-4.705-11.425-11.714c0-7.008,4.128-12.528,10.897-12.528
		c7.584,0,9.601,6.672,9.601,10.944c0,0.864-0.096,1.536-0.144,1.969H80.328z M92.714,248.293c0.048-2.688-1.104-6.865-5.856-6.865
		c-4.272,0-6.145,3.937-6.481,6.865H92.714z"/>
	<path fill="#FFFFFF" d="M107.113,232.26v6.672h6.048v3.217h-6.048v12.529c0,2.88,0.816,4.512,3.168,4.512
		c1.104,0,1.92-0.144,2.448-0.288l0.192,3.169c-0.816,0.336-2.112,0.576-3.745,0.576c-1.968,0-3.552-0.624-4.56-1.776
		c-1.2-1.248-1.632-3.313-1.632-6.049v-12.673h-3.6v-3.217h3.6v-5.568L107.113,232.26z"/>
	<path fill="#FFFFFF" d="M138.65,250.357c0,8.593-5.953,12.337-11.569,12.337c-6.289,0-11.137-4.608-11.137-11.953
		c0-7.776,5.088-12.337,11.521-12.337C134.137,238.404,138.65,243.252,138.65,250.357z M120.216,250.597
		c0,5.089,2.928,8.929,7.057,8.929c4.032,0,7.057-3.792,7.057-9.024c0-3.937-1.968-8.929-6.961-8.929
		C122.376,241.572,120.216,246.181,120.216,250.597z"/>
	<path fill="#FFFFFF" d="M143.976,245.221c0-2.4-0.048-4.368-0.191-6.289h3.744l0.24,3.841h0.096
		c1.152-2.208,3.841-4.368,7.681-4.368c3.217,0,8.209,1.92,8.209,9.889v13.873h-4.225v-13.394c0-3.744-1.392-6.864-5.376-6.864
		c-2.785,0-4.945,1.968-5.665,4.32c-0.192,0.528-0.288,1.248-0.288,1.969v13.969h-4.225V245.221z"/>
	<path fill="#FFFFFF" d="M171.528,238.932l5.089,13.729c0.528,1.536,1.104,3.36,1.488,4.753h0.096
		c0.433-1.393,0.912-3.169,1.488-4.849l4.608-13.634h4.464l-6.336,16.562c-3.024,7.969-5.089,12.05-7.969,14.546
		c-2.064,1.824-4.129,2.544-5.185,2.736l-1.056-3.553c1.056-0.336,2.448-1.008,3.696-2.064c1.151-0.912,2.592-2.544,3.552-4.704
		c0.192-0.432,0.336-0.769,0.336-1.008c0-0.24-0.096-0.576-0.288-1.104l-8.593-21.41H171.528z"/>
	<path fill="#FFFFFF" d="M192.599,245.221c0-2.4-0.048-4.368-0.191-6.289h3.696l0.191,3.745h0.145
		c1.296-2.209,3.456-4.272,7.297-4.272c3.168,0,5.568,1.92,6.576,4.656h0.096c0.721-1.296,1.633-2.305,2.593-3.024
		c1.392-1.056,2.928-1.632,5.137-1.632c3.072,0,7.632,2.016,7.632,10.08v13.682h-4.128v-13.153c0-4.464-1.632-7.152-5.04-7.152
		c-2.4,0-4.272,1.776-4.993,3.84c-0.191,0.576-0.336,1.345-0.336,2.112v14.354h-4.128v-13.921c0-3.696-1.633-6.385-4.849-6.385
		c-2.641,0-4.561,2.112-5.232,4.225c-0.24,0.624-0.336,1.344-0.336,2.063v14.018h-4.129V245.221z"/>
	<path fill="#FFFFFF" d="M237.336,232.403c0.048,1.44-1.009,2.593-2.688,2.593c-1.488,0-2.544-1.152-2.544-2.593
		c0-1.488,1.104-2.64,2.64-2.64C236.327,229.764,237.336,230.915,237.336,232.403z M232.631,262.166v-23.234h4.225v23.234H232.631z"
		/>
	<path fill="#FFFFFF" d="M246.215,251.317c0.096,5.712,3.744,8.064,7.969,8.064c3.024,0,4.849-0.528,6.433-1.2l0.72,3.024
		c-1.488,0.672-4.032,1.44-7.729,1.44c-7.152,0-11.425-4.705-11.425-11.714c0-7.008,4.128-12.528,10.896-12.528
		c7.585,0,9.602,6.672,9.602,10.944c0,0.864-0.097,1.536-0.145,1.969H246.215z M258.6,248.293c0.049-2.688-1.104-6.865-5.856-6.865
		c-4.272,0-6.145,3.937-6.48,6.865H258.6z"/>
</g>
<g>
	<g>
		<path opacity="0.4" fill="#FFFFFF" enable-background="new    " d="M148.684,23.5c-46.208,0-83.667,37.459-83.667,83.666
			c0,20.148,11.929,47.424,11.929,47.424l-25.499,35.998l46.047-17.266c14.149,10.967,31.9,17.512,51.19,17.512
			c46.207,0,83.666-37.459,83.666-83.668C232.35,60.959,194.891,23.5,148.684,23.5z"/>
	</g>
	<path fill="#FFFFFF" d="M220.462,190.305l-15.866-48.244h-47.485l-15.425,48.244h-27.448L167.14,29.492h28.283l53.131,160.813
		H220.462z M198.183,119.159l-12.924-39.241c-1.765-5.353-3.219-10.441-4.524-15.361c-1.433,5.408-2.841,10.348-4.284,15.061
		l-12.956,39.542L198.183,119.159L198.183,119.159z"/>
</g>
</svg>
