<?xml version="1.0" encoding="UTF-8" standalone="no"?>
<svg
   xmlns:dc="http://purl.org/dc/elements/1.1/"
   xmlns:cc="http://creativecommons.org/ns#"
   xmlns:rdf="http://www.w3.org/1999/02/22-rdf-syntax-ns#"
   xmlns:svg="http://www.w3.org/2000/svg"
   xmlns="http://www.w3.org/2000/svg"
   viewBox="0 0 375 375"
   height="375"
   width="375"
   xml:space="preserve"
   version="1.1"
   id="svg2"><metadata
     id="metadata8"><rdf:RDF><cc:Work
         rdf:about=""><dc:format>image/svg+xml</dc:format><dc:type
           rdf:resource="http://purl.org/dc/dcmitype/StillImage" /></cc:Work></rdf:RDF></metadata><defs
     id="defs6" /><g
     transform="matrix(1.25,0,0,-1.25,0,375)"
     id="g10"><g
       transform="scale(0.1,0.1)"
       id="g12"><path
         id="path14"
         style="fill:#aebcc4;fill-opacity:1;fill-rule:nonzero;stroke:none"
         d="m 3000,529.855 c 0,-67.632 0,-529.85109375 -715,-529.85109375 l -1625,0 C 35,0.00390625 0,472.223 0,539.855 L 0,2399.86 c 0,545 592.352,600 660,600 l 1615,0.28 c 67.65,0 725,-0.28 725,-600.28" /><path
         id="path16"
         style="fill:#080828;fill-opacity:1;fill-rule:nonzero;stroke:none"
         d="m 1081.75,1104.48 0,-52.78 -33.59,0 0,-44.15 33.59,0 0,-109.894 c 0,-30.703 5.75,-51.828 18.23,-65.265 11.04,-11.985 29.27,-19.188 50.86,-19.188 18.72,0 34.08,2.391 42.72,5.75 l -0.97,45.11 c -5.26,-1.438 -12.95,-2.875 -23.03,-2.875 -22.54,0 -30.23,14.875 -30.23,43.187 l 0,103.175 56.15,0 0,44.15 -56.15,0 0,66.71 -57.58,-13.93" /><path
         id="path18"
         style="fill:#080828;fill-opacity:1;fill-rule:nonzero;stroke:none"
         d="m 1299.17,818 0,233.7 -59.5,0 0,-233.7 59.5,0 z m -29.75,331.11 c -19.67,0 -33.11,-13.91 -33.11,-32.14 0,-17.77 12.96,-31.67 32.63,-31.67 20.64,0 33.59,13.9 33.59,31.67 -0.47,18.23 -12.95,32.14 -33.11,32.14" /><path
         id="path20"
         style="fill:#080828;fill-opacity:1;fill-rule:nonzero;stroke:none"
         d="m 1524.88,1051.7 -2.41,-31.2 -0.95,0 c -11.05,19.2 -32.16,36.48 -67.68,36.48 -56.14,0 -106.04,-46.54 -106.04,-123.324 0,-66.234 41.26,-114.218 99.33,-114.218 30.71,0 54.7,13.921 68.14,34.546 l 0.96,0 0,-20.156 c 0,-50.375 -28.79,-70.531 -67.18,-70.531 -28.32,0 -53.27,9.109 -68.14,17.75 l -12.96,-44.625 c 20.16,-12.484 51.83,-18.719 81.58,-18.719 32.16,0 65.74,6.719 90.22,28.313 24.47,22.078 34.55,57.109 34.55,106.062 l 0,132.438 c 0,32.154 0.95,51.344 1.92,67.184 l -51.34,0 z m -9.61,-131.481 c 0,-6.719 -0.96,-14.875 -2.39,-21.125 -6.72,-21.11 -25.93,-35.5 -47.99,-35.5 -36.95,0 -57.11,32.14 -57.11,71.969 0,47.515 24.47,76.317 57.58,76.317 24.95,0 41.75,-16.333 48,-37.927 1.44,-4.797 1.91,-10.547 1.91,-15.828 l 0,-37.906" /><path
         id="path22"
         style="fill:#080828;fill-opacity:1;fill-rule:nonzero;stroke:none"
         d="m 1637.67,818 59.5,0 0,139.641 c 0,6.718 0.49,12.953 2.41,17.765 6.23,17.75 22.55,33.114 45.58,33.114 32.64,0 45.11,-25.442 45.11,-59.52 l 0,-131 59.03,0 0,137.719 c 0,74.861 -41.75,101.261 -81.58,101.261 -14.88,0 -28.8,-3.84 -40.31,-10.56 -12.47,-6.72 -22.08,-15.84 -29.27,-26.87 l -0.97,0 0,139.17 -59.5,0 0,-340.72" /><path
         id="path24"
         style="fill:#080828;fill-opacity:1;fill-rule:nonzero;stroke:none"
         d="m 1919.75,1104.48 0,-52.78 -33.59,0 0,-44.15 33.59,0 0,-109.894 c 0,-30.703 5.75,-51.828 18.23,-65.265 11.04,-11.985 29.27,-19.188 50.86,-19.188 18.72,0 34.08,2.391 42.72,5.75 l -0.97,45.11 c -5.26,-1.438 -12.95,-2.875 -23.03,-2.875 -22.54,0 -30.23,14.875 -30.23,43.187 l 0,103.175 56.15,0 0,44.15 -56.15,0 0,66.71 -57.58,-13.93" /><path
         id="path26"
         style="fill:#080828;fill-opacity:1;fill-rule:nonzero;stroke:none"
         d="m 819.422,338 0,189.547 50.859,0 0,44.156 -51.343,0 0,12 c 0,28.781 10.078,53.266 39.343,53.266 10.563,0 18.719,-1.922 24.953,-4.328 l 4.329,45.593 c -9.61,3.36 -22.079,5.75 -37.922,5.75 -20.157,0 -43.657,-6.234 -60.938,-22.546 -20.156,-19.204 -28.312,-49.422 -28.312,-79.657 l 0,-10.078 -31.672,0 0,-44.156 31.672,0 0,-189.547 59.031,0" /><path
         id="path28"
         style="fill:#080828;fill-opacity:1;fill-rule:nonzero;stroke:none"
         d="m 906.672,338 59.031,0 0,120.922 c 0,6.719 0.953,12.969 1.906,18.234 5.282,26.407 24.485,44.641 52.801,44.641 7.18,0 12.47,-0.969 17.26,-1.922 l 0,55.656 c -4.79,0.969 -8.15,1.453 -13.9,1.453 -24.957,0 -52.317,-16.796 -63.832,-49.906 l -1.922,0 -1.922,44.625 -51.344,0 c 1.438,-21.125 1.922,-43.672 1.922,-75.344 l 0,-158.359" /><path
         id="path30"
         style="fill:#080828;fill-opacity:1;fill-rule:nonzero;stroke:none"
         d="m 1258.42,338 c -2.39,14.391 -3.36,35.031 -3.36,56.141 l 0,84.468 c 0,50.86 -21.59,98.375 -96.45,98.375 -36.95,0 -67.19,-10.078 -84.45,-20.64 l 11.51,-38.391 c 15.83,10.078 39.83,17.281 62.86,17.281 41.27,0 47.52,-25.437 47.52,-40.796 l 0,-3.844 c -86.39,0.484 -138.69,-29.266 -138.69,-88.297 0,-35.5 26.39,-69.578 73.42,-69.578 30.24,0 54.7,12.953 69.1,31.187 l 1.43,0 3.85,-25.906 53.26,0 z m -60.94,82.063 c 0,-3.844 -0.48,-8.641 -1.92,-12.954 -5.28,-16.796 -22.56,-32.156 -46.08,-32.156 -18.7,0 -33.57,10.547 -33.57,33.594 0,35.5 39.82,44.625 81.57,43.656 l 0,-32.14" /><path
         id="path32"
         style="fill:#080828;fill-opacity:1;fill-rule:nonzero;stroke:none"
         d="m 1317.67,338 57.58,0 0,138.203 c 0,6.719 0.97,13.438 3.36,19.203 5.28,16.313 20.16,33.578 42.23,33.578 27.36,0 40.32,-23.031 40.32,-55.656 l 0,-135.328 57.57,0 0,140.125 c 0,6.719 1.44,13.922 2.9,19.672 6.23,16.797 21.1,31.187 41.26,31.187 28.31,0 41.75,-23.031 41.75,-61.89 l 0,-129.094 57.58,0 0,137.719 c 0,74.859 -39.34,101.265 -78.22,101.265 -19.19,0 -34.06,-4.812 -47.03,-13.921 -11.03,-6.719 -20.63,-16.313 -28.78,-29.282 l -0.97,0 c -10.08,25.922 -34.06,43.203 -64.78,43.203 -39.35,0 -60.47,-21.593 -71.99,-39.843 l -1.43,0 -2.39,34.562 -50.88,0 c 1.44,-20.156 1.92,-42.719 1.92,-69.594 l 0,-164.109" /><path
         id="path34"
         style="fill:#080828;fill-opacity:1;fill-rule:nonzero;stroke:none"
         d="m 1784.17,338 0,233.703 -59.5,0 0,-233.703 59.5,0 z m -29.75,331.109 c -19.67,0 -33.11,-13.906 -33.11,-32.14 0,-17.766 12.96,-31.672 32.63,-31.672 20.64,0 33.59,13.906 33.59,31.672 -0.47,18.234 -12.95,32.14 -33.11,32.14" /><path
         id="path36"
         style="fill:#080828;fill-opacity:1;fill-rule:nonzero;stroke:none"
         d="m 1846.67,338 59.5,0 0,137.25 c 0,6.719 0.49,13.906 2.41,19.188 6.23,17.75 22.55,34.546 46.06,34.546 32.16,0 44.63,-25.421 44.63,-59.015 l 0,-131.969 59.03,0 0,138.688 c 0,73.89 -42.24,100.296 -83.02,100.296 -38.87,0 -64.31,-22.078 -74.39,-40.312 l -1.44,0 -2.87,35.031 -51.83,0 c 1.44,-20.156 1.92,-42.719 1.92,-69.594 l 0,-164.109" /><path
         id="path38"
         style="fill:#080828;fill-opacity:1;fill-rule:nonzero;stroke:none"
         d="m 2283.88,571.703 -2.41,-31.203 -0.95,0 c -11.05,19.203 -32.16,36.484 -67.68,36.484 -56.14,0 -106.04,-46.546 -106.04,-123.328 0,-66.234 41.26,-114.218 99.33,-114.218 30.71,0 54.7,13.921 68.14,34.546 l 0.96,0 0,-20.156 c 0,-50.375 -28.79,-70.531 -67.18,-70.531 -28.32,0 -53.27,9.109 -68.14,17.75 l -12.96,-44.625 c 20.16,-12.484 51.83,-18.719 81.58,-18.719 32.16,0 65.74,6.719 90.22,28.313 24.47,22.078 34.55,57.109 34.55,106.062 l 0,132.438 c 0,32.156 0.95,51.343 1.92,67.187 l -51.34,0 z m -9.61,-131.484 c 0,-6.719 -0.96,-14.875 -2.39,-21.125 -6.72,-21.11 -25.93,-35.5 -47.99,-35.5 -36.95,0 -57.11,32.14 -57.11,71.969 0,47.515 24.47,76.312 57.58,76.312 24.95,0 41.75,-16.328 48,-37.922 1.44,-4.797 1.91,-10.547 1.91,-15.828 l 0,-37.906" /><path
         id="path40"
         style="fill:#c1272d;fill-opacity:1;fill-rule:nonzero;stroke:none"
         d="m 1643.34,1853.33 c 0,-81 -65.66,-146.67 -146.67,-146.67 -81.01,0 -146.67,65.67 -146.67,146.67 0,81.01 65.66,146.67 146.67,146.67 81.01,0 146.67,-65.66 146.67,-146.67" /><path
         id="path42"
         style="fill:#ffffff;fill-opacity:1;fill-rule:nonzero;stroke:none"
         d="m 1363.34,1763.33 c 0,-81 -65.66,-146.67 -146.67,-146.67 -81.01,0 -146.67,65.67 -146.67,146.67 0,81.01 65.66,146.67 146.67,146.67 81.01,0 146.67,-65.66 146.67,-146.67" /><path
         id="path44"
         style="fill:#ffffff;fill-opacity:1;fill-rule:nonzero;stroke:none"
         d="m 1593.34,1533.33 c 0,-81.01 -65.66,-146.67 -146.67,-146.67 -81.01,0 -146.67,65.66 -146.67,146.67 0,81.01 65.66,146.67 146.67,146.67 81.01,0 146.67,-65.66 146.67,-146.67" /><path
         id="path46"
         style="fill:#ffffff;fill-opacity:1;fill-rule:nonzero;stroke:none"
         d="m 1983.34,1953.33 c 0,-81.01 -65.66,-146.67 -146.67,-146.67 -81.01,0 -146.67,65.66 -146.67,146.67 0,81.01 65.66,146.67 146.67,146.67 81.01,0 146.67,-65.66 146.67,-146.67" /><path
         id="path48"
         style="fill:#ffffff;fill-opacity:1;fill-rule:nonzero;stroke:none"
         d="m 2113.34,2483.33 c 0,-81.01 -65.66,-146.67 -146.67,-146.67 -81.01,0 -146.67,65.66 -146.67,146.67 0,81.01 65.66,146.67 146.67,146.67 81.01,0 146.67,-65.66 146.67,-146.67" /><path
         id="path50"
         style="fill:#ffffff;fill-opacity:1;fill-rule:nonzero;stroke:none"
         d="m 2733.34,2003.33 c 0,-81.01 -65.66,-146.67 -146.67,-146.67 -81.01,0 -146.67,65.66 -146.67,146.67 0,81.01 65.66,146.67 146.67,146.67 81.01,0 146.67,-65.66 146.67,-146.67" /><path
         id="path52"
         style="fill:#ffffff;fill-opacity:1;fill-rule:nonzero;stroke:none"
         d="m 2663.34,2563.33 c 0,-81.01 -65.66,-146.67 -146.67,-146.67 -81.01,0 -146.67,65.66 -146.67,146.67 0,81.01 65.66,146.67 146.67,146.67 81.01,0 146.67,-65.66 146.67,-146.67" /><path
         id="path54"
         style="fill:#ffffff;fill-opacity:1;fill-rule:nonzero;stroke:none"
         d="m 2733.34,1413.33 c 0,-81.01 -65.66,-146.67 -146.67,-146.67 -81.01,0 -146.67,65.66 -146.67,146.67 0,81.01 65.66,146.67 146.67,146.67 81.01,0 146.67,-65.66 146.67,-146.67" /><path
         id="path56"
         style="fill:#ffffff;fill-opacity:1;fill-rule:nonzero;stroke:none"
         d="m 1483.34,2713.33 c 0,-81.01 -65.66,-146.67 -146.67,-146.67 -81.01,0 -146.67,65.66 -146.67,146.67 0,81.01 65.66,146.67 146.67,146.67 81.01,0 146.67,-65.66 146.67,-146.67" /><path
         id="path58"
         style="fill:#ffffff;fill-opacity:1;fill-rule:nonzero;stroke:none"
         d="m 2143.34,1573.33 c 0,-81.01 -65.66,-146.67 -146.67,-146.67 -81.01,0 -146.67,65.66 -146.67,146.67 0,81.01 65.66,146.67 146.67,146.67 81.01,0 146.67,-65.66 146.67,-146.67" /><path
         id="path60"
         style="fill:#ffffff;fill-opacity:1;fill-rule:nonzero;stroke:none"
         d="m 1593.34,2183.33 c 0,-81.01 -65.66,-146.67 -146.67,-146.67 -81.01,0 -146.67,65.66 -146.67,146.67 0,81.01 65.66,146.67 146.67,146.67 81.01,0 146.67,-65.66 146.67,-146.67" /><path
         id="path62"
         style="fill:#ffffff;fill-opacity:1;fill-rule:nonzero;stroke:none"
         d="m 1103.34,2223.33 c 0,-81.01 -65.66,-146.67 -146.668,-146.67 -81.012,0 -146.672,65.66 -146.672,146.67 0,81.01 65.66,146.67 146.672,146.67 81.008,0 146.668,-65.66 146.668,-146.67" /><path
         id="path64"
         style="fill:#ffffff;fill-opacity:1;fill-rule:nonzero;stroke:none"
         d="m 643.34,2613.33 c 0,-81.01 -65.66,-146.67 -146.668,-146.67 -81.012,0 -146.672,65.66 -146.672,146.67 0,81.01 65.66,146.67 146.672,146.67 81.008,0 146.668,-65.66 146.668,-146.67" /><path
         id="path66"
         style="fill:#ffffff;fill-opacity:1;fill-rule:nonzero;stroke:none"
         d="m 493.34,2033.33 c 0,-81.01 -65.66,-146.67 -146.668,-146.67 -81.012,0 -146.672,65.66 -146.672,146.67 0,81.01 65.66,146.67 146.672,146.67 81.008,0 146.668,-65.66 146.668,-146.67" /><path
         id="path68"
         style="fill:#ffffff;fill-opacity:1;fill-rule:nonzero;stroke:none"
         d="m 843.34,1653.33 c 0,-81.01 -65.66,-146.67 -146.668,-146.67 -81.012,0 -146.672,65.66 -146.672,146.67 0,81.01 65.66,146.67 146.672,146.67 81.008,0 146.668,-65.66 146.668,-146.67" /><path
         id="path70"
         style="fill:#ffffff;fill-opacity:1;fill-rule:nonzero;stroke:none"
         d="m 563.34,1233.33 c 0,-81.01 -65.66,-146.67 -146.668,-146.67 -81.012,0 -146.672,65.66 -146.672,146.67 0,81.01 65.66,146.67 146.672,146.67 81.008,0 146.668,-65.66 146.668,-146.67" /></g></g></svg>