<?xml version="1.0" encoding="utf-8"?>
<!-- Generator: Adobe Illustrator 16.0.3, SVG Export Plug-In . SVG Version: 6.00 Build 0)  -->
<!DOCTYPE svg PUBLIC "-//W3C//DTD SVG 1.1//EN" "http://www.w3.org/Graphics/SVG/1.1/DTD/svg11.dtd" [
	<!ENTITY ns_extend "http://ns.adobe.com/Extensibility/1.0/">
	<!ENTITY ns_ai "http://ns.adobe.com/AdobeIllustrator/10.0/">
	<!ENTITY ns_graphs "http://ns.adobe.com/Graphs/1.0/">
	<!ENTITY ns_vars "http://ns.adobe.com/Variables/1.0/">
	<!ENTITY ns_imrep "http://ns.adobe.com/ImageReplacement/1.0/">
	<!ENTITY ns_sfw "http://ns.adobe.com/SaveForWeb/1.0/">
	<!ENTITY ns_custom "http://ns.adobe.com/GenericCustomNamespace/1.0/">
	<!ENTITY ns_adobe_xpath "http://ns.adobe.com/XPath/1.0/">
]>
<svg version="1.1" id="Ebene_1" xmlns:x="&ns_extend;" xmlns:i="&ns_ai;" xmlns:graph="&ns_graphs;"
	 xmlns="http://www.w3.org/2000/svg" xmlns:xlink="http://www.w3.org/1999/xlink" x="0px" y="0px" width="300px" height="300px"
	 viewBox="0 0 300 300" enable-background="new 0 0 300 300" xml:space="preserve">
<metadata>
	<sfw  xmlns="&ns_sfw;">
		<slices></slices>
		<sliceSourceBounds  height="310.582" width="300" x="-50.5" y="-57.082" bottomLeftOrigin="true"></sliceSourceBounds>
	</sfw>
</metadata>
<path fill="#AA3C85" d="M228,297H72c-39.603,0-72-16.9-72-56.5V57C0,17.4,32.398-3,72-3h156c39.602,0,72,20.9,72,60.5V241
	C300,280.6,267.6,297,228,297z"/>
<rect x="0.758" y="228.086" fill="none" width="298.483" height="79.496"/>
<g enable-background="new    ">
	<path fill="#FFFFFF" d="M106.468,246.997H93.89v11.665h14.017v3.504H89.714v-32.354h17.474v3.504H93.89v10.225h12.577V246.997z"/>
	<path fill="#FFFFFF" d="M113.185,228.083h4.224v34.083h-4.224V228.083z"/>
	<path fill="#FFFFFF" d="M124.513,228.083h4.224v34.083h-4.224V228.083z"/>
	<path fill="#FFFFFF" d="M140.545,232.403c0.048,1.44-1.008,2.593-2.688,2.593c-1.488,0-2.544-1.152-2.544-2.593
		c0-1.488,1.104-2.64,2.641-2.64C139.537,229.764,140.545,230.915,140.545,232.403z M135.841,262.166v-23.234h4.224v23.234H135.841z
		"/>
	<path fill="#FFFFFF" d="M147.073,246.517c0-2.977-0.096-5.376-0.192-7.585h3.792l0.192,3.984h0.097
		c1.728-2.832,4.464-4.512,8.256-4.512c5.617,0,9.842,4.752,9.842,11.809c0,8.353-5.089,12.481-10.562,12.481
		c-3.072,0-5.761-1.345-7.152-3.648h-0.097v12.625h-4.176V246.517z M151.248,252.709c0,0.624,0.097,1.2,0.192,1.729
		c0.769,2.928,3.313,4.944,6.337,4.944c4.465,0,7.057-3.648,7.057-8.977c0-4.656-2.448-8.641-6.913-8.641
		c-2.88,0-5.568,2.063-6.384,5.232c-0.145,0.527-0.289,1.151-0.289,1.728V252.709z"/>
	<path fill="#FFFFFF" d="M173.807,257.846c1.248,0.816,3.457,1.68,5.568,1.68c3.072,0,4.514-1.536,4.514-3.456
		c0-2.016-1.201-3.12-4.32-4.272c-4.178-1.488-6.145-3.792-6.145-6.576c0-3.744,3.023-6.816,8.016-6.816
		c2.353,0,4.417,0.672,5.713,1.439l-1.056,3.072c-0.913-0.576-2.593-1.344-4.753-1.344c-2.496,0-3.889,1.44-3.889,3.168
		c0,1.921,1.393,2.784,4.417,3.937c4.032,1.536,6.097,3.553,6.097,7.009c0,4.08-3.168,6.961-8.689,6.961
		c-2.544,0-4.896-0.624-6.528-1.585L173.807,257.846z"/>
	<path fill="#FFFFFF" d="M195.743,251.317c0.096,5.712,3.744,8.064,7.969,8.064c3.024,0,4.849-0.528,6.433-1.2l0.72,3.024
		c-1.488,0.672-4.032,1.44-7.729,1.44c-7.152,0-11.425-4.705-11.425-11.714c0-7.008,4.128-12.528,10.896-12.528
		c7.585,0,9.602,6.672,9.602,10.944c0,0.864-0.097,1.536-0.145,1.969H195.743z M208.128,248.293
		c0.049-2.688-1.104-6.865-5.856-6.865c-4.272,0-6.145,3.937-6.48,6.865H208.128z"/>
</g>
<g>
	<g>
		<path opacity="0.4" fill="#FFFFFF" enable-background="new    " d="M148.36,22.499c-46.208,0-83.667,37.459-83.667,83.667
			c0,20.148,11.932,47.423,11.932,47.423l-25.5,35.999L97.17,172.32c14.148,10.968,31.9,17.513,51.189,17.513
			c46.207,0,83.666-37.459,83.666-83.667S194.567,22.499,148.36,22.499z"/>
	</g>
	<g>
		<line fill="none" stroke="#FFFFFF" stroke-width="12" stroke-miterlimit="10" x1="82.4" y1="103.579" x2="143.512" y2="103.579"/>
		
			<line fill="none" stroke="#FFFFFF" stroke-width="12" stroke-miterlimit="10" x1="158.264" y1="103.579" x2="202.516" y2="103.579"/>
		
			<line fill="none" stroke="#FFFFFF" stroke-width="12" stroke-miterlimit="10" x1="217.268" y1="103.579" x2="248.877" y2="103.579"/>
	</g>
	<g>
		<g>
			<g>
				<g>
					<path fill="none" stroke="#FFFFFF" stroke-width="16.4925" stroke-miterlimit="10" d="M124.202,144.216
						c12.751,10.864,29,17.374,46.693,17.374s33.941-6.509,46.691-17.373"/>
					<g>
						<polygon fill="#FFFFFF" points="113.085,161.514 105.796,121.053 144.483,134.963 						"/>
					</g>
					<g>
						<polygon fill="#FFFFFF" points="228.703,161.518 235.994,121.057 197.307,134.966 						"/>
					</g>
				</g>
			</g>
		</g>
	</g>
</g>
</svg>
