<?xml version="1.0" encoding="UTF-8" standalone="no"?>
<svg
   xmlns:dc="http://purl.org/dc/elements/1.1/"
   xmlns:cc="http://creativecommons.org/ns#"
   xmlns:rdf="http://www.w3.org/1999/02/22-rdf-syntax-ns#"
   xmlns:svg="http://www.w3.org/2000/svg"
   xmlns="http://www.w3.org/2000/svg"
   viewBox="0 0 375 375"
   height="375"
   width="375"
   xml:space="preserve"
   version="1.1"
   id="svg2"><metadata
     id="metadata8"><rdf:RDF><cc:Work
         rdf:about=""><dc:format>image/svg+xml</dc:format><dc:type
           rdf:resource="http://purl.org/dc/dcmitype/StillImage" /></cc:Work></rdf:RDF></metadata><defs
     id="defs6"><clipPath
       id="clipPath46"
       clipPathUnits="userSpaceOnUse"><path
         id="path48"
         d="m 1485,2645 c -16.36,-0.18 -30.51,0.04 -43.42,0.24 l 0,0 c -41.08,0.69 -69.76,1.37 -118.23,-10.53 l 0,0 C 940.031,2540.6 657.59,2192.63 662.07,1780.92 l 0,0 c 5.211,-480.13 398.66,-865.119 878.8,-859.9 l 0,0 c 480.13,5.21 865.13,398.67 859.91,878.79 l 0,0 c -4.64,427.13 -316.52,778.96 -723.33,847.76 l 0,0 c -14.44,2.45 -32.03,3.33 -51.02,3.33 l 0,0 c -47.41,0 -103.58,-5.49 -141.43,-5.9" /></clipPath><clipPath
       id="clipPath54"
       clipPathUnits="userSpaceOnUse"><path
         id="path56"
         d="m -327680,-327680 655350,0 0,655350 -655350,0 0,-655350 z" /></clipPath><clipPath
       id="clipPath58"
       clipPathUnits="userSpaceOnUse"><path
         id="path60"
         d="m 1485,2645 c -16.36,-0.18 -30.51,0.04 -43.42,0.24 l 0,0 c -41.08,0.69 -69.76,1.37 -118.23,-10.53 l 0,0 C 940.031,2540.6 657.59,2192.63 662.07,1780.92 l 0,0 c 5.211,-480.13 398.66,-865.119 878.8,-859.9 l 0,0 c 480.13,5.21 865.13,398.67 859.91,878.79 l 0,0 c -4.64,427.13 -316.52,778.96 -723.33,847.76 l 0,0 c -14.44,2.45 -32.03,3.33 -51.02,3.33 l 0,0 c -47.41,0 -103.58,-5.49 -141.43,-5.9" /></clipPath><linearGradient
       id="linearGradient62"
       spreadMethod="pad"
       gradientTransform="matrix(-188.456,17287.8,17287.8,188.456,15409,9210.16)"
       gradientUnits="userSpaceOnUse"
       y2="0"
       x2="1"
       y1="0"
       x1="0"><stop
         id="stop64"
         offset="0"
         style="stop-opacity:1;stop-color:#ffffff" /><stop
         id="stop66"
         offset="0.89796431"
         style="stop-opacity:0;stop-color:#ffffff" /><stop
         id="stop68"
         offset="1"
         style="stop-opacity:0;stop-color:#ffffff" /></linearGradient><mask
       id="mask70"
       height="1"
       width="1"
       y="0"
       x="0"
       maskUnits="userSpaceOnUse"><g
         id="g72"><g
           id="g74"
           clip-path="url(#clipPath54)"><g
             id="g76"><g
               id="g78"
               clip-path="url(#clipPath58)"><path
                 id="path80"
                 style="fill:url(#linearGradient62);fill-opacity:1;fill-rule:nonzero;stroke:none"
                 d="m 1485,2645 c -16.36,-0.18 -30.51,0.04 -43.42,0.24 l 0,0 c -41.08,0.69 -69.76,1.37 -118.23,-10.53 l 0,0 C 940.031,2540.6 657.59,2192.63 662.07,1780.92 l 0,0 c 5.211,-480.13 398.66,-865.119 878.8,-859.9 l 0,0 c 480.13,5.21 865.13,398.67 859.91,878.79 l 0,0 c -4.64,427.13 -316.52,778.96 -723.33,847.76 l 0,0 c -14.44,2.45 -32.03,3.33 -51.02,3.33 l 0,0 c -47.41,0 -103.58,-5.49 -141.43,-5.9" /></g></g></g></g></mask><clipPath
       id="clipPath86"
       clipPathUnits="userSpaceOnUse"><path
         id="path88"
         d="m 638.678,896.744 1786.232,0 0,1773.216 -1786.232,0 0,-1773.216 z" /></clipPath><clipPath
       id="clipPath90"
       clipPathUnits="userSpaceOnUse"><path
         id="path92"
         d="m 1485,2645 c -16.36,-0.18 -30.51,0.04 -43.42,0.24 l 0,0 c -41.08,0.69 -69.76,1.37 -118.23,-10.53 l 0,0 C 940.031,2540.6 657.59,2192.63 662.07,1780.92 l 0,0 c 5.211,-480.13 398.66,-865.119 878.8,-859.9 l 0,0 c 480.13,5.21 865.13,398.67 859.91,878.79 l 0,0 c -4.64,427.13 -316.52,778.96 -723.33,847.76 l 0,0 c -14.44,2.45 -32.03,3.33 -51.02,3.33 l 0,0 c -47.41,0 -103.58,-5.49 -141.43,-5.9" /></clipPath><linearGradient
       id="linearGradient94"
       spreadMethod="pad"
       gradientTransform="matrix(-188.456,17287.8,17287.8,188.456,15409,9210.16)"
       gradientUnits="userSpaceOnUse"
       y2="0"
       x2="1"
       y1="0"
       x1="0"><stop
         id="stop96"
         offset="0"
         style="stop-opacity:1;stop-color:#ffffff" /><stop
         id="stop98"
         offset="0.89796431"
         style="stop-opacity:1;stop-color:#ffffff" /><stop
         id="stop100"
         offset="1"
         style="stop-opacity:1;stop-color:#ffffff" /></linearGradient></defs><g
     transform="matrix(1.25,0,0,-1.25,0,375)"
     id="g10"><g
       transform="scale(0.1,0.1)"
       id="g12"><path
         id="path14"
         style="fill:#aebcc4;fill-opacity:1;fill-rule:nonzero;stroke:none"
         d="m 3000,529.855 c 0,-67.632 0,-529.85109375 -715,-529.85109375 l -1625,0 C 35,0.00390625 0,472.223 0,539.855 L 0,2399.86 c 0,545 592.352,600 660,600 l 1615,0.28 c 67.65,0 725,-0.28 725,-600.28" /><path
         id="path16"
         style="fill:#080828;fill-opacity:1;fill-rule:nonzero;stroke:none"
         d="m 315.188,530.313 c 16.796,-11.032 49.437,-21.594 87.343,-21.594 77.266,0 121.407,41.75 121.407,94.531 0,42.234 -30.704,71.031 -68.625,77.75 l 0,0.953 c 38.39,13.438 57.593,40.313 57.593,72.938 0,40.797 -33.109,76.312 -97.422,76.312 -37.421,0 -71.984,-11.515 -89.734,-24 L 339.188,764.5 c 12.953,8.625 38.39,19.672 63.828,19.672 34.062,0 49.906,-17.766 49.906,-38.875 0,-31.188 -34.547,-43.672 -61.906,-43.672 l -26.391,0 0,-43.187 27.344,0 c 36,0 70.547,-15.829 70.547,-52.782 0.484,-24.468 -17.75,-49.906 -62.86,-49.906 -29.75,0 -59.031,12 -71.031,19.188 l -13.437,-44.625" /><path
         id="path18"
         style="fill:#080828;fill-opacity:1;fill-rule:nonzero;stroke:none"
         d="m 763.188,830.234 c -7.204,0.485 -16.797,0.485 -29.75,-0.953 -44.641,-3.843 -82.063,-19.203 -110.86,-46.078 -32.625,-31.187 -54.219,-80.125 -54.219,-140.109 0,-76.781 41.75,-134.375 117.563,-134.375 66.219,0 109.891,51.828 109.891,111.328 0,63.344 -41.75,101.734 -95.485,101.734 -31.203,0 -54.719,-12.468 -70.062,-30.234 l -1.453,0 c 7.687,43.203 39.359,83.5 104.625,91.187 12,1.438 21.593,1.438 30.234,1.438 l -0.484,46.062 z M 685.453,552.875 c -37.922,0 -57.594,33.594 -58.547,74.859 0,8.157 1.438,13.907 3.828,18.719 9.125,18.703 28.797,32.141 50.875,32.141 34.547,0 54.219,-25.906 54.219,-61.906 0,-37.422 -19.672,-63.813 -50.375,-63.813" /><path
         id="path20"
         style="fill:#080828;fill-opacity:1;fill-rule:nonzero;stroke:none"
         d="m 941.531,831.203 c -72.953,0 -114.218,-65.265 -114.218,-162.203 0.484,-95.016 38.875,-160.281 110.859,-160.281 74.378,0 113.718,62.859 113.718,163.156 0,92.141 -35.03,159.328 -110.359,159.328 z m -1.437,-45.109 c 35.5,0 52.781,-42.719 52.781,-115.172 0,-74.859 -18.234,-117.094 -52.781,-117.094 -32.641,0 -53.75,39.344 -53.281,115.172 -0.469,78.219 21.609,117.094 53.281,117.094" /><path
         id="path22"
         style="fill:#080828;fill-opacity:1;fill-rule:nonzero;stroke:none"
         d="m 1082.39,621.484 122.375,0 0,40.7969 -122.375,0 0,-40.7969 z" /><path
         id="path24"
         style="fill:#080828;fill-opacity:1;fill-rule:nonzero;stroke:none"
         d="m 1415.11,854.719 0,-132.453 -0.95,0 c -10.57,17.281 -33.6,30.718 -65.75,30.718 -56.14,0 -105.1,-46.546 -104.61,-124.781 0,-71.969 44.14,-119.484 99.81,-119.484 34.08,0 62.39,16.312 76.3,42.234 l 0.97,0 2.39,-36.953 52.79,0 c -0.97,15.828 -1.92,41.75 -1.92,65.75 l 0,274.969 -59.03,0 z m 0,-239.469 c 0,-6.234 -0.48,-12 -1.92,-17.266 -5.75,-25.437 -26.88,-41.75 -50.86,-41.75 -37.44,0 -58.55,31.188 -58.55,73.891 0,43.672 21.11,77.266 59.02,77.266 26.87,0 45.59,-18.719 50.87,-41.75 0.96,-4.797 1.44,-10.563 1.44,-15.36 l 0,-35.031" /><path
         id="path26"
         style="fill:#080828;fill-opacity:1;fill-rule:nonzero;stroke:none"
         d="m 1735.86,614.297 c 0.95,5.281 1.92,13.906 1.92,24.953 0,51.344 -24.95,113.734 -100.78,113.734 -74.86,0 -114.2,-60.953 -114.2,-125.734 0,-71.5 44.62,-118.047 120.45,-118.047 33.58,0 61.42,6.235 81.58,14.391 l -8.64,40.797 c -17.75,-6.719 -37.44,-10.563 -64.78,-10.563 -37.44,0 -70.55,18.235 -71.99,60.469 l 156.44,0 z m -156.44,41.266 c 2.39,24 17.75,57.109 54.22,57.109 39.36,0 48.95,-35.516 48.47,-57.109 l -102.69,0" /><path
         id="path28"
         style="fill:#080828;fill-opacity:1;fill-rule:nonzero;stroke:none"
         d="m 1947.88,747.703 -2.41,-31.203 -0.95,0 c -11.05,19.203 -32.16,36.484 -67.68,36.484 -56.14,0 -106.04,-46.546 -106.04,-123.328 0,-66.234 41.26,-114.218 99.33,-114.218 30.71,0 54.7,13.921 68.14,34.546 l 0.96,0 0,-20.156 c 0,-50.375 -28.79,-70.531 -67.18,-70.531 -28.32,0 -53.27,9.109 -68.14,17.75 l -12.96,-44.625 c 20.16,-12.484 51.83,-18.719 81.58,-18.719 32.16,0 65.74,6.719 90.22,28.313 24.47,22.078 34.55,57.109 34.55,106.062 l 0,132.438 c 0,32.156 0.95,51.343 1.92,67.187 l -51.34,0 z m -9.61,-131.484 c 0,-6.719 -0.96,-14.875 -2.39,-21.125 -6.72,-21.11 -25.93,-35.5 -47.99,-35.5 -36.95,0 -57.11,32.14 -57.11,71.969 0,47.515 24.47,76.312 57.58,76.312 24.95,0 41.75,-16.328 48,-37.922 1.44,-4.797 1.91,-10.547 1.91,-15.828 l 0,-37.906" /><path
         id="path30"
         style="fill:#080828;fill-opacity:1;fill-rule:nonzero;stroke:none"
         d="m 2058.67,514 59.03,0 0,120.922 c 0,6.719 0.96,12.969 1.91,18.234 5.28,26.407 24.48,44.641 52.8,44.641 7.18,0 12.47,-0.969 17.26,-1.922 l 0,55.656 c -4.79,0.969 -8.15,1.453 -13.9,1.453 -24.96,0 -52.32,-16.796 -63.83,-49.906 l -1.92,0 -1.93,44.625 -51.34,0 c 1.44,-21.125 1.92,-43.672 1.92,-75.344 l 0,-158.359" /><path
         id="path32"
         style="fill:#080828;fill-opacity:1;fill-rule:nonzero;stroke:none"
         d="m 2422.86,614.297 c 0.95,5.281 1.92,13.906 1.92,24.953 0,51.344 -24.95,113.734 -100.78,113.734 -74.86,0 -114.2,-60.953 -114.2,-125.734 0,-71.5 44.62,-118.047 120.45,-118.047 33.58,0 61.42,6.235 81.58,14.391 l -8.64,40.797 c -17.75,-6.719 -37.44,-10.563 -64.78,-10.563 -37.44,0 -70.55,18.235 -71.99,60.469 l 156.44,0 z m -156.44,41.266 c 2.39,24 17.75,57.109 54.22,57.109 39.36,0 48.95,-35.516 48.47,-57.109 l -102.69,0" /><path
         id="path34"
         style="fill:#080828;fill-opacity:1;fill-rule:nonzero;stroke:none"
         d="m 2670.86,614.297 c 0.95,5.281 1.92,13.906 1.92,24.953 0,51.344 -24.95,113.734 -100.78,113.734 -74.86,0 -114.2,-60.953 -114.2,-125.734 0,-71.5 44.62,-118.047 120.45,-118.047 33.58,0 61.42,6.235 81.58,14.391 l -8.64,40.797 c -17.75,-6.719 -37.44,-10.563 -64.78,-10.563 -37.44,0 -70.55,18.235 -71.99,60.469 l 156.44,0 z m -156.44,41.266 c 2.39,24 17.75,57.109 54.22,57.109 39.36,0 48.95,-35.516 48.47,-57.109 l -102.69,0" /><path
         id="path36"
         style="fill:#080828;fill-opacity:1;fill-rule:nonzero;stroke:none"
         d="m 1124.67,58.9844 59.03,0 0,120.9216 0.96,0 c 12,-18.703 36.47,-31.187 65.75,-31.187 53.26,0 106.53,40.797 106.53,125.25 0,72.937 -44.64,119.015 -98.38,119.015 -35.51,0 -62.87,-14.89 -80.14,-41.281 l -0.97,0 -2.87,36 -51.83,0 c 0.97,-22.078 1.92,-47.031 1.92,-77.75 l 0,-250.9686 z m 59.03,228.9066 c 0,4.797 0.96,10.078 2.39,14.875 5.77,25.906 28.32,43.672 52.79,43.672 37.92,0 58.07,-33.594 58.07,-74.875 0,-46.063 -22.07,-77.25 -59.51,-77.25 -24.96,0 -46.06,17.265 -51.83,41.265 -1.44,5.281 -1.91,10.563 -1.91,16.313 l 0,36" /><path
         id="path38"
         style="fill:#080828;fill-opacity:1;fill-rule:nonzero;stroke:none"
         d="m 1590.42,154 c -2.39,14.391 -3.36,35.031 -3.36,56.141 l 0,84.468 c 0,50.86 -21.59,98.375 -96.45,98.375 -36.95,0 -67.19,-10.078 -84.45,-20.64 l 11.51,-38.391 c 15.83,10.078 39.83,17.281 62.86,17.281 41.27,0 47.52,-25.437 47.52,-40.796 l 0,-3.844 c -86.39,0.484 -138.69,-29.266 -138.69,-88.297 0,-35.5 26.39,-69.578 73.42,-69.578 30.24,0 54.7,12.953 69.1,31.187 l 1.43,0 3.85,-25.906 53.26,0 z m -60.94,82.063 c 0,-3.844 -0.48,-8.641 -1.92,-12.954 -5.28,-16.796 -22.56,-32.156 -46.08,-32.156 -18.7,0 -33.57,10.547 -33.57,33.594 0,35.5 39.82,44.625 81.57,43.656 l 0,-32.14" /><path
         id="path40"
         style="fill:#080828;fill-opacity:1;fill-rule:nonzero;stroke:none"
         d="m 1649.67,154 59.5,0 0,137.25 c 0,6.719 0.49,13.906 2.41,19.188 6.23,17.75 22.55,34.546 46.06,34.546 32.16,0 44.63,-25.421 44.63,-59.015 l 0,-131.969 59.03,0 0,138.688 c 0,73.89 -42.24,100.296 -83.02,100.296 -38.87,0 -64.31,-22.078 -74.39,-40.312 l -1.44,0 -2.87,35.031 -51.83,0 c 1.44,-20.156 1.92,-42.719 1.92,-69.594 l 0,-164.109" /><g
         id="g42"><g
           clip-path="url(#clipPath46)"
           id="g44" /></g><g
         id="g50"><g
           id="g52" /><g
           mask="url(#mask70)"
           id="g82"><g
             id="g84" /><g
             id="g102"><g
               id="g104"
               clip-path="url(#clipPath86)"><g
                 id="g106"><g
                   id="g108"
                   clip-path="url(#clipPath90)"><path
                     id="path110"
                     style="fill:url(#linearGradient94);fill-opacity:1;fill-rule:nonzero;stroke:none"
                     d="m 1485,2645 c -16.36,-0.18 -30.51,0.04 -43.42,0.24 l 0,0 c -41.08,0.69 -69.76,1.37 -118.23,-10.53 l 0,0 C 940.031,2540.6 657.59,2192.63 662.07,1780.92 l 0,0 c 5.211,-480.13 398.66,-865.119 878.8,-859.9 l 0,0 c 480.13,5.21 865.13,398.67 859.91,878.79 l 0,0 c -4.64,427.13 -316.52,778.96 -723.33,847.76 l 0,0 c -14.44,2.45 -32.03,3.33 -51.02,3.33 l 0,0 c -47.41,0 -103.58,-5.49 -141.43,-5.9" /></g></g></g></g></g></g><path
         id="path112"
         style="fill:#080828;fill-opacity:1;fill-rule:nonzero;stroke:none"
         d="m 1330.04,2389.33 447.07,-1.16 c 0,0 -45.81,-120.22 -111.12,-169.78 l 0.1,-63.63 115.04,-128.85 c 0,0 44.21,-28.2 33.76,-141.03 l 0.74,-533.91 c 0,0 1.46,-128.82 -156.83,-145.12 l -254.89,-0.34 c 0,0 -116.43,29.34 -129.01,150.06 l -0.72,525.87 c 0,0 -1.05,104.64 36.47,139.59 l 122.19,134.31 -0.09,64.4 c 0,0 -65.43,35.35 -102.71,169.59" /><path
         id="path114"
         style="fill:#c1272d;fill-opacity:1;fill-rule:nonzero;stroke:none"
         d="m 1662.7,1712.12 c 0.07,-62.94 -50.9,-114.05 -113.82,-114.12 -62.95,-0.09 -114.04,50.85 -114.13,113.82 -0.07,62.92 50.88,114.03 113.82,114.11 62.93,0.09 114.02,-50.87 114.13,-113.81" /><path
         id="path116"
         style="fill:#c1272d;fill-opacity:1;fill-rule:nonzero;stroke:none"
         d="m 1577.3,2654.84 -301.64,131.79 21.41,-326.79" /><path
         id="path118"
         style="fill:none;stroke:#c1272d;stroke-width:48.86999893;stroke-linecap:butt;stroke-linejoin:miter;stroke-miterlimit:10;stroke-dasharray:none;stroke-opacity:1"
         d="M 2405,1787.5 C 2405,1311.15 2018.85,925 1542.5,925 1066.15,925 680,1311.15 680,1787.5 c 0,476.35 386.15,862.5 862.5,862.5 476.35,0 862.5,-386.15 862.5,-862.5 z" /></g></g></svg>