<?xml version="1.0" encoding="UTF-8" standalone="no"?>
<svg
   xmlns:dc="http://purl.org/dc/elements/1.1/"
   xmlns:cc="http://creativecommons.org/ns#"
   xmlns:rdf="http://www.w3.org/1999/02/22-rdf-syntax-ns#"
   xmlns:svg="http://www.w3.org/2000/svg"
   xmlns="http://www.w3.org/2000/svg"
   viewBox="0 0 375 375"
   height="375"
   width="375"
   xml:space="preserve"
   version="1.1"
   id="svg2"><metadata
     id="metadata8"><rdf:RDF><cc:Work
         rdf:about=""><dc:format>image/svg+xml</dc:format><dc:type
           rdf:resource="http://purl.org/dc/dcmitype/StillImage" /></cc:Work></rdf:RDF></metadata><defs
     id="defs6" /><g
     transform="matrix(1.25,0,0,-1.25,0,375)"
     id="g10"><g
       transform="scale(0.1,0.1)"
       id="g12"><path
         id="path14"
         style="fill:#ce8e95;fill-opacity:1;fill-rule:nonzero;stroke:none"
         d="m 3000,529.785 c 0,-67.64 0,-529.78890625 -715,-529.78890625 l -1625,0 C 35,-0.00390625 0,472.145 0,539.785 L 0,2399.77 c 0,545 592.352,600 660,600 l 1615,0.3 c 67.65,0 725,-0.3 725,-600.3" /><path
         id="path16"
         style="fill:#26080d;fill-opacity:1;fill-rule:nonzero;stroke:none"
         d="m 535.609,323.703 c 29.266,0 61.891,8.156 82.532,27.36 21.109,21.109 30.234,51.343 30.234,99.812 l 0,206.828 -59.031,0 0,-190.031 c 0,-50.875 -4.313,-69.109 -15.344,-81.109 -9.609,-10.063 -24.953,-15.344 -44.156,-16.782 l 5.765,-46.078 z m 83.5,431.406 c -20.156,0 -33.125,-13.906 -33.125,-32.14 0,-17.281 12.485,-31.672 32.157,-31.672 21.109,0 33.593,14.391 33.593,31.672 0,18.234 -12.484,32.14 -32.625,32.14" /><path
         id="path18"
         style="fill:#26080d;fill-opacity:1;fill-rule:nonzero;stroke:none"
         d="m 920.891,657.703 -59.016,0 0,-141.094 c 0,-6.718 -1.437,-12.953 -3.359,-18.234 -6.235,-14.875 -21.594,-31.672 -45.11,-31.672 -31.187,0 -43.672,24.953 -43.672,63.828 l 0,127.172 -59.015,0 0,-137.25 c 0,-76.297 38.859,-101.734 81.578,-101.734 41.75,0 64.781,24 74.859,40.797 l 0.953,0 2.875,-35.516 51.829,0 c -0.954,19.188 -1.922,42.234 -1.922,70.063 l 0,163.64" /><path
         id="path20"
         style="fill:#26080d;fill-opacity:1;fill-rule:nonzero;stroke:none"
         d="m 984.672,424 57.578,0 0,138.203 c 0,6.719 0.97,13.438 3.36,19.203 5.28,16.313 20.16,33.578 42.23,33.578 27.36,0 40.32,-23.031 40.32,-55.656 l 0,-135.328 57.57,0 0,140.125 c 0,6.719 1.44,13.922 2.9,19.672 6.23,16.797 21.1,31.187 41.26,31.187 28.31,0 41.75,-23.031 41.75,-61.89 l 0,-129.094 57.58,0 0,137.719 c 0,74.859 -39.34,101.265 -78.22,101.265 -19.19,0 -34.06,-4.812 -47.03,-13.921 -11.03,-6.719 -20.63,-16.313 -28.78,-29.282 l -0.97,0 c -10.08,25.922 -34.06,43.203 -64.78,43.203 -39.35,0 -60.47,-21.593 -71.99,-39.843 l -1.43,0 -2.39,34.562 -50.88,0 c 1.438,-20.156 1.922,-42.719 1.922,-69.594 l 0,-164.109" /><path
         id="path22"
         style="fill:#26080d;fill-opacity:1;fill-rule:nonzero;stroke:none"
         d="m 1391.67,328.984 59.03,0 0,120.922 0.96,0 c 12,-18.703 36.47,-31.187 65.75,-31.187 53.26,0 106.53,40.797 106.53,125.25 0,72.937 -44.64,119.015 -98.38,119.015 -35.51,0 -62.87,-14.89 -80.14,-41.281 l -0.97,0 -2.87,36 -51.83,0 c 0.97,-22.078 1.92,-47.031 1.92,-77.75 l 0,-250.969 z m 59.03,228.907 c 0,4.797 0.96,10.078 2.39,14.875 5.77,25.906 28.32,43.672 52.79,43.672 37.92,0 58.07,-33.594 58.07,-74.875 0,-46.063 -22.07,-77.25 -59.51,-77.25 -24.96,0 -46.06,17.265 -51.83,41.265 -1.44,5.281 -1.91,10.563 -1.91,16.313 l 0,36" /><path
         id="path24"
         style="fill:#26080d;fill-opacity:1;fill-rule:nonzero;stroke:none"
         d="m 1935.31,474.859 c -11.51,-4.796 -25.92,-9.109 -46.54,-9.109 -40.32,0 -71.5,27.359 -71.5,75.344 -0.49,42.703 26.39,75.812 71.5,75.812 21.11,0 35.03,-4.797 44.62,-9.109 l 10.56,44.141 c -13.43,6.234 -35.51,11.046 -57.11,11.046 -82.06,0 -130.04,-54.718 -130.04,-124.781 0,-72.453 47.5,-119 120.45,-119 29.27,0 53.73,6.235 66.22,12 l -8.16,43.656" /><path
         id="path26"
         style="fill:#26080d;fill-opacity:1;fill-rule:nonzero;stroke:none"
         d="m 2195.89,657.703 -59.01,0 0,-141.094 c 0,-6.718 -1.44,-12.953 -3.36,-18.234 -6.24,-14.875 -21.6,-31.672 -45.11,-31.672 -31.19,0 -43.68,24.953 -43.68,63.828 l 0,127.172 -59.01,0 0,-137.25 c 0,-76.297 38.86,-101.734 81.58,-101.734 41.75,0 64.78,24 74.86,40.797 l 0.95,0 2.87,-35.516 51.83,0 c -0.95,19.188 -1.92,42.234 -1.92,70.063 l 0,163.64" /><path
         id="path28"
         style="fill:#26080d;fill-opacity:1;fill-rule:nonzero;stroke:none"
         d="m 2270.75,710.484 0,-52.781 -33.59,0 0,-44.156 33.59,0 0,-109.891 c 0,-30.703 5.75,-51.828 18.23,-65.265 11.04,-11.985 29.27,-19.188 50.86,-19.188 18.72,0 34.08,2.391 42.72,5.75 l -0.97,45.11 c -5.26,-1.438 -12.95,-2.875 -23.03,-2.875 -22.54,0 -30.23,14.875 -30.23,43.187 l 0,103.172 56.15,0 0,44.156 -56.15,0 0,66.703 -57.58,-13.922" /><path
         id="path30"
         style="fill:#000000;fill-opacity:1;fill-rule:nonzero;stroke:none"
         d="m 1871.25,1542.5 838.75,-2.5 0,1170 -1002.5,0 227.5,-92.5 -241.25,-5.83 23.75,-31.67 75,-45 -160,-30 327.5,-37.5 -250.61,-9.17 c 0,0 226.11,-128.84 220.61,-150.83 -5,-20 -240,-17.5 -240,-17.5 l 7.5,-82.5 105,-45 -55,-20 -22.5,-50 242.5,-60 -295,-70 217.5,-55 -190,-57.5 72.5,-45 -162.5,-20 102.5,-47.5 157.5,-37.5 -196.87,-60" /><path
         id="path32"
         style="fill:#ffffff;fill-opacity:1;fill-rule:nonzero;stroke:none"
         d="M 1087.5,1092.5 250,1090 l 0,1170 1000,0 -227.5,-92.5 241.25,-5.83 -23.75,-31.67 -75,-45 160,-30 -327.5,-37.5 250.61,-9.17 c 0,0 -226.11,-128.84 -220.61,-150.83 5,-20 240,-17.5 240,-17.5 l -7.5,-82.5 -105,-45 55,-20 22.5,-50 -242.5,-60 295,-70 -217.5,-55 190,-57.5 -72.5,-45 162.5,-20 -102.5,-47.5 -157.5,-37.5 197.5,-60" /><path
         id="path34"
         style="fill:#333333;fill-opacity:1;fill-rule:nonzero;stroke:none"
         d="m 673.922,1729.48 41.672,-130.48 90.172,0 -149.61,460.44 -107.25,0 -147.562,-460.44 86.765,0 39.61,130.48 146.203,0 z m -132.531,63.54 35.515,113.39 c 8.203,27.32 15.032,59.43 21.86,86.07 l 1.375,0 c 6.828,-26.64 14.343,-58.06 23.218,-86.07 l 36.204,-113.39 -118.172,0" /><path
         id="path36"
         style="fill:#ffffff;fill-opacity:1;fill-rule:nonzero;stroke:none"
         d="m 2201.5,2028.36 c 21.17,-2.72 56.7,-6.14 103.16,-6.14 84.03,0 138,14.34 170.78,43.03 26.64,21.86 44.4,53.97 44.4,94.97 0,63.53 -44.4,101.78 -92.9,114.08 l 0,1.36 c 49.87,18.45 76.51,57.39 76.51,99.73 0,38.95 -19.14,69 -47.82,86.08 -31.43,21.86 -69.68,29.37 -131.85,29.37 -47.14,0 -95.64,-4.09 -122.28,-9.56 l 0,-452.92 z m 83.34,396.91 c 8.88,2.04 23.24,3.42 47.83,3.42 53.28,0 86.06,-19.81 86.06,-62.86 0,-38.94 -32.78,-66.27 -90.85,-66.27 l -43.04,0 0,125.71 z m 0,-187.18 41.68,0 c 58.06,0 104.51,-21.86 104.51,-75.15 0,-56.69 -47.81,-77.19 -101.78,-77.19 -19.12,0 -33.47,0.69 -44.41,2.05 l 0,150.29" /></g></g></svg>