<?xml version="1.0" encoding="utf-8"?>
<!-- Generator: Adobe Illustrator 22.0.1, SVG Export Plug-In . SVG Version: 6.00 Build 0)  -->
<svg version="1.1" id="Ebene_1" xmlns="http://www.w3.org/2000/svg" xmlns:xlink="http://www.w3.org/1999/xlink" x="0px" y="0px"
	 viewBox="0 0 300.5 300.5" style="enable-background:new 0 0 300.5 300.5;" xml:space="preserve">
<style type="text/css">
	.st0{fill:#EACD99;}
	.st1{fill:#FFFFFF;}
	.st2{fill:url(#SVGID_1_);}
	.st3{enable-background:new    ;}
	.st4{fill:#3A3326;}
	.st5{stroke:#BFBFBF;stroke-width:0.5;stroke-miterlimit:10;}
</style>
<path class="st0" d="M238.2,300.5H62.4c-34.3,0-62.4-28-62.4-62.3V62.4C0,28.1,28.1,0,62.4,0h175.8c34.3,0,62.4,28.1,62.4,62.4
	v175.8C300.5,272.5,272.5,300.5,238.2,300.5z"/>
<g>
	<path class="st1" d="M195.2,163c0-0.5-0.1-0.9-0.1-1.4c-0.2-2.5-0.5-4.9-0.7-7.4c0-1.1-0.1-2.2-0.1-3.3c0-0.4,0-0.9,0-1.3
		c-1.6-13.6-3.2-27.3-4.8-41.1c2.3-0.7,5-1.4,7.6-2.2c0,3.9,0,7.8,0.2,11.8c0.2,3.2,0.8,6.4,0.9,9.7c0.4,10.1,0.4,20.3,1.1,30.4
		c0.4,6.3,1.8,12.5,2.8,18.7c2,13.4,4.1,26.7,6.1,40.1c0.5,3.1,1,6.1,1.1,9.2c0,0.8-1.2,2.2-2.1,2.4c-2.1,0.6-3.7-0.1-3.8-2.8
		c-0.3-6.9-0.3-13.9-1.2-20.8c-1.2-9.6-3-19.1-4.6-28.7c-0.2-0.9-0.8-1.8-1.2-2.7c-0.1-2.3-0.1-4.6-0.2-6.9
		C195.7,165.6,195.4,164.3,195.2,163z"/>
	
		<radialGradient id="SVGID_1_" cx="-147.2426" cy="911.9376" r="13.5" fx="-154.6741" fy="900.6671" gradientTransform="matrix(-0.3886 0.9214 0.645 0.272 -454.6847 -88.6458)" gradientUnits="userSpaceOnUse">
		<stop  offset="0" style="stop-color:#FFFFFF;stop-opacity:0.8"/>
		<stop  offset="0.4622" style="stop-color:#CD5156;stop-opacity:0.9605"/>
		<stop  offset="0.9946" style="stop-color:#C1272D"/>
	</radialGradient>
	<circle class="st2" cx="189.7" cy="29.7" r="13.5"/>
	<path d="M172.4,54.8c3.7,0.3,17.4,5.1,23.4,3.9c6.1-1.2,13.5-2.5,13.7-5.3c0,0-6,0.7-10.2,0.5s-24-8.4-25.4-8.2s-4.5-0.3-4.5-0.3
		s0.6-5.6-0.6-7.7c-7.4-12.6-8.9-9.3-11.4-13.8c-2.4-4.4-1.2-3.1-3.3-5.3c-2.1-2.1-16.2-7.6-25.3-5.3s-6.6,1.8-9.1,2.3
		c-4.7,0.8-7-3.2-7.2-2.4s3.7,5.1,5.9,5.2c2.2,0.1,7.4-1.8,9.6-1.4c2.2,0.4,13.7,3.9,14.8,6c1.1,2.1-2.1,5.9,0.7,8.6
		c2.7,2.7,7.1,4.6,6.6,7.9c-0.5,3.3-0.5,6.4-1.6,7.3c-1.2,0.9-2.8-1.4-7,1c-4.3,2.4-15,3.6-18.5,3.6c-3.6,0-6.3-1.6-7-0.3
		c-0.6,1.3,9.2,10.4,15.3,9.5c6.1-0.9,5.6-4.4,10.3-4.2c0.8,0,1.9,0.2,2.9,0.3c-2.3,4.1-4.5,9.1-4.7,9.4c-0.6,1.2-1.9,2.6-3,2.7
		c-9.5,0.9-11.8,9.5-12.6,15.7c-1.8,13.3-1.8,27.1-1.1,40.6c1.2,21.8,0.2,30.1-4.3,51.4c-2.7,12.7-6.5,23.3-24,38.2
		c-13.8,11.7-25.2,12.1-22.9,13.7c2.2,1.5,20.6-3.4,26.3-3.4c3.5,0,5.8,3.3,9.3,3.3s11.5-1,15-1c4.6,0,9.1,1.5,13.8,1.5
		c4.9,0,10.9-2.6,15.8-2.6c4,0,2.7,2.1,6.7,2.1c2.7,0,12-1.7,14.7-1.7c5,0,3.5,1.7,8.5,1.7c6.2,0,16.4,1.9,16.5,0
		c1-14,0.3-22.3-0.4-28.7c-0.8-7.8-2-15.5-2.9-23.2c-0.1-0.8,0.4-1.6,0.6-2.4c-0.1-2.3-0.1-4.6-0.2-6.9c-0.2-1.3-0.5-2.6-0.7-3.9
		c0-0.5-0.1-0.9-0.1-1.4c-0.2-2.5-0.5-4.9-0.7-7.4c0-1.1-0.1-2.2-0.1-3.3c0-0.4,0-0.9,0-1.3c-1.6-13.6-3.2-27.3-4.8-41.1
		c2.3-0.7,5-1.4,7.6-2.2c0.4-0.9,0.8-1.8,1.2-2.7c1.7-4,0.3-9.5-2.7-10.7c-1.8-0.1-3.5-0.1-5.3-0.2c-1.8,1.1-3.5,2.2-5.3,3.3
		c-0.9-1.7-2.1-3.3-2.7-5.1c-1.4-4.5-2.1-9.2-3.9-13.5c-2-4.8-4.3-16.6-7.2-22.7C171.5,54.7,171.9,54.7,172.4,54.8z"/>
	<g>
		<path class="st1" d="M171,54.7c2.9,6.1,5.6,17.6,7.6,22.4c1.8,4.3,2.1,9.4,3.5,13.8c0.6,1.8,3.9,3.6,2.7,5.1
			c-1.1,1.4-3.4-1-3.4-2.9s-4-14.6-5.5-16.9s-1-2-2-6.1s-1.9-9.3-3.1-12c-1.2-2.7-2.7-3.5-1.8-4L171,54.7z"/>
		<path class="st1" d="M147.6,54.4c1.9,0.4-0.7,1.4-1.4,4.4s-4.1,8.9-4.4,10.9c-0.3,2,0.7,1.6,0.1,3.3c-0.5,1.6,0.8,1.9,1.8,5.3
			s1.2,3.1,2.6,6.8s-0.1,8.2-0.7,9.7s0,5.2-1,4.9c-1-0.3,0,0-0.5-1.5s0.8-6.6,0.8-8.2s-1.5-5.6-1.6-4s0.5,1.2,0.3,5.7
			s-4.8,10-5.1,9.3s1.4-3.1,2-4.8c0.7-1.6,0.5-5.6-0.1-7.2c-0.7-1.6-0.3-4.9-0.8-4s-0.8,4.4-0.3,6.4s-1.9,5.6-1.8,3.1
			s-1-2.6-1.4-5.3c0,0,0.3-4.2,1.1-6.4c0.8-2.2,0.5-3.1-0.3-4.9c-1-2.1,1.8-6.4,0.1-7.1c-1.6-0.7-5.6,2.5-7.6,3.5
			c-2,1.1-4,5.1-3.5,2.5c0.4-2.6,2-4.8,5.7-7s3.4-1.3,5.3-1.9c1.1-0.3,2.4-0.9,2.9-2.1c0.1-0.3,2.4-5.2,4.7-9.4
			C144.7,56.6,146.9,54.3,147.6,54.4z"/>
		<path class="st1" d="M160.1,56.4c0.7-0.2,1.2-0.4,1.7-0.5c1-0.2,1.9-0.4,2.9-0.5c0.9-0.1,1.5,0.5,2,1.1c0.4,0.5,0.1,0.9-0.2,1.3
			c-0.1,0.1-0.3,0.2-0.5,0.1c-1.2-0.3-2.4-0.6-3.6-0.9h-0.1C161.3,57.2,161.3,57.2,160.1,56.4z"/>
		<path class="st1" d="M158.1,56.4c-0.5,0.6-1,0.9-1.8,0.8c-1.4-0.2-2.7,0.2-4,0.9c-0.2,0.1-0.5,0.1-0.7-0.1
			c-0.4-0.4-0.5-0.8-0.1-1.4c0.8-1.1,1.7-1.4,2.9-0.9c0.5,0.2,1,0.2,1.5,0.1C156.7,55.7,157.5,55.9,158.1,56.4z"/>
		<path class="st1" d="M170.6,72c0.5-0.8,2,5.1,2.6,5.9c0.6,0.9-0.4-5-1.8-10c-1.4-5.1-1.7-7.9-3.7-8c0,0-0.1,7.1-3.1,6.6
			c-2.9-0.5-2.5,1.3-4.8,0.9c-2.4-0.4-1.4-1.3-5.1-0.3c-3.6,1-4-7-6.2-6.9c-1.5,0.1,0.4,6-2.2,10.1c-1,1.6,1.3,2.3,1.1,5.8
			c-0.1,3.6-0.7,3,1.9,7.9c4,7.5-0.7,16.8-1.4,19.8s-6.8,18.7-5.9,19.2c0.9,0.5,6.4-13.4,8.1-15.1c1.7-1.7-2.2,10.1-2.8,13.1
			c-0.6,3.1-12,17-11.8,19.2c0.2,2.3,11.9-11.5,11.5-7.8s-12.6,21.9-13.8,23.9c-1.1,2,8.7-3.8,18.5-12.7c4-3.5,6.7-6.5,9.2-9.8
			c4.9-6.4,7.5-12.5,7.6-11.5c1.5,12-14.2,24.9-12,24.5s16.9-8.1,17.7-38.7C174.6,91.8,170.1,72.8,170.6,72z M153.9,96.5
			c0.1-3-0.7-11.2-0.7-11.2s1.9,7,1.7,11.3s-3.6,7.9-3.6,7.9S153.8,99.5,153.9,96.5z M154.3,124c-0.7,3-6,6.6-6,6.6s4-4.4,4.6-5.8
			c1.1-2.7,3.9-17,3.9-17S155.2,120.4,154.3,124z M160,71.1c-2.2,0-3.9-1.2-3.9-1.2s2.5-1.4,4-0.6c1.8-1,3.3,0.2,3.3,0.2
			S162.2,71.1,160,71.1z M171.9,107.9c-0.4,5.4-2.7,10.6-2.7,10.6s1.7-4.9,2-11.8c0.4-6.9-0.1-16-0.1-16S172.3,102.5,171.9,107.9z"
			/>
	</g>
	<g>
		<path class="st1" d="M205.4,30.6c-0.7-1.4-0.9-0.7-1.5-1.5c-0.5-0.8-1-3.7-1.1-5.3c-0.1-1.7-1-2.9-1.9-3.9
			c-0.9-0.9-1.3-0.4-2.2-0.8s0.2-0.8-2.4-2.8c-2.6-2-6.7,0.2-6.6,0.9c0.1,0.7,1.7-0.5,3.9,0.1c2.1,0.6,1.5,1.1,3.3,2.5
			s1.3-0.1,3,2.8s0.8,1.6,0.4,3s0.7,1.8,1.6,3.7c0.9,1.8,0,2.6-1,3s-0.6-0.5-0.8-3.1c-0.3-2.5-0.5-3.7-3.9-7.1
			c-3.5-3.5-5.7-3.4-6.2-3s1.8,1.4,4.2,2.9c2.4,1.6,3.1,3.3,3.7,5c0.6,1.6,0,2.9,0.2,4.6c0.2,1.6,0.5,0.8,1,2.8s-2.8,7.5-3.6,6.9
			s1.5-8.2,1.2-10.1s-3.1-5.5-3.7-5.6c-0.5-0.1,1.4,3.1,1.9,5c0.5,1.9-2,12.2-4.2,12.1s-1.9-4.5-2.9-6.2s0.2-6-0.3-5.9
			s-0.7,0.7-1.4,4s2,6.2,0.9,6.8c-1.1,0.7-4.8-8.8-5-10.7c-0.3-1.8,1.4-4.4,2.9-6s5.4,0,4.8-0.9c-0.6-0.8-3.3-1-5.6-0.3
			c-2.3,0.8-3.3,3.3-3.9,5.3c-0.7,2-0.1,7.2-0.4,7.2s-0.3,0-1.2-1.4s-1.8-6.1,1.8-12.1c2.2-3.8,5.1-3.9,4.1-5.3
			c-0.7-1-7.7,3.3-9.1,8.2c-1,3.4-1,10.6,2,15.2c1.9,2.9,8.2,11.1,9.2,13.6c0.6,1.6,1.5,4.9,2,7.1c0.6,10.4,1,20.9,1.4,31.3
			c1.8,0.1,3.5,0.1,5.3,0.2c0.2-8.2,0.4-16.3,0.5-24.5c0-4.1,0.2-7,0.3-9.7c1-2.2,2.1-4.8,2.4-5.5c0.5-1.2,0.3-1.1-0.3-2.1
			c-0.5-1,3.3-10.5,3.9-11.6c0.6-1.1,1.9-0.8,2.8-1.9C205.9,36.6,206.1,32,205.4,30.6z"/>
	</g>
</g>
<g class="st3">
	<path class="st4" d="M102.4,260.3c-0.2-4.2-0.4-9.2-0.4-13.6h-0.1c-1.1,3.9-2.4,8.3-3.8,12.4l-4.7,14h-4.6l-4.3-13.8
		c-1.2-4.1-2.4-8.5-3.3-12.6h-0.1c-0.1,4.2-0.3,9.4-0.6,13.8l-0.7,13h-5.5l2.2-32.4h7.8l4.2,13c1.2,3.8,2.2,7.6,3,11.2h0.1
		c0.9-3.5,2-7.5,3.2-11.3l4.5-13h7.7l1.9,32.4H103L102.4,260.3z"/>
	<path class="st4" d="M118.9,263.5c0.1,4.2,3.5,6,7.2,6c2.7,0,4.7-0.4,6.5-1.1l0.9,4.1c-2,0.8-4.8,1.4-8.2,1.4
		c-7.6,0-12-4.7-12-11.8c0-6.5,3.9-12.6,11.4-12.6c7.6,0,10.1,6.2,10.1,11.4c0,1.1-0.1,2-0.2,2.5H118.9z M129.2,259.3
		c0-2.2-0.9-5.7-4.8-5.7c-3.6,0-5.2,3.3-5.4,5.7H129.2z"/>
	<path class="st4" d="M139.5,257.1c0-2.7,0-4.9-0.2-7h5.2l0.3,3.5h0.1c1-1.8,3.6-4,7.4-4c4.1,0,8.3,2.6,8.3,10v13.9h-5.9v-13.2
		c0-3.4-1.2-5.9-4.5-5.9c-2.4,0-4,1.7-4.6,3.5c-0.2,0.5-0.2,1.2-0.2,1.9v13.7h-6V257.1z"/>
	<path class="st4" d="M173.5,243.4v6.7h5.6v4.4h-5.6v10.3c0,2.8,0.8,4.3,3,4.3c1,0,1.8-0.1,2.3-0.3l0.1,4.5
		c-0.9,0.3-2.4,0.6-4.3,0.6c-2.2,0-4-0.7-5.1-1.9c-1.2-1.3-1.8-3.5-1.8-6.5v-11h-3.4v-4.4h3.4v-5.3L173.5,243.4z"/>
	<path class="st4" d="M205.5,261.6c0,8.6-6,12.4-12,12.4c-6.6,0-11.7-4.6-11.7-12c0-7.7,5-12.4,12.1-12.4
		C200.9,249.6,205.5,254.5,205.5,261.6z M187.9,261.8c0,4.5,2.2,7.9,5.8,7.9c3.4,0,5.7-3.3,5.7-8c0-3.6-1.6-7.8-5.7-7.8
		C189.6,253.9,187.9,257.9,187.9,261.8z"/>
	<path class="st4" d="M210.4,257.7c0-3.2,0-5.4-0.2-7.5h5.1l0.2,4.5h0.2c1.2-3.3,3.9-5,6.4-5c0.6,0,0.9,0,1.4,0.1v5.6
		c-0.5-0.1-1-0.2-1.7-0.2c-2.8,0-4.8,1.8-5.3,4.5c-0.1,0.5-0.2,1.2-0.2,1.8v12.1h-5.9V257.7z"/>
</g>
<path class="st5" d="M169.2,44.9"/>
<path class="st5" d="M161.2,44.8"/>
</svg>
