<?xml version="1.0" encoding="utf-8"?>
<!-- Generator: Adobe Illustrator 16.0.3, SVG Export Plug-In . SVG Version: 6.00 Build 0)  -->
<!DOCTYPE svg PUBLIC "-//W3C//DTD SVG 1.1//EN" "http://www.w3.org/Graphics/SVG/1.1/DTD/svg11.dtd" [
	<!ENTITY ns_extend "http://ns.adobe.com/Extensibility/1.0/">
	<!ENTITY ns_ai "http://ns.adobe.com/AdobeIllustrator/10.0/">
	<!ENTITY ns_graphs "http://ns.adobe.com/Graphs/1.0/">
	<!ENTITY ns_vars "http://ns.adobe.com/Variables/1.0/">
	<!ENTITY ns_imrep "http://ns.adobe.com/ImageReplacement/1.0/">
	<!ENTITY ns_sfw "http://ns.adobe.com/SaveForWeb/1.0/">
	<!ENTITY ns_custom "http://ns.adobe.com/GenericCustomNamespace/1.0/">
	<!ENTITY ns_adobe_xpath "http://ns.adobe.com/XPath/1.0/">
]>
<svg version="1.1" id="Ebene_1" xmlns:x="&ns_extend;" xmlns:i="&ns_ai;" xmlns:graph="&ns_graphs;"
	 xmlns="http://www.w3.org/2000/svg" xmlns:xlink="http://www.w3.org/1999/xlink" x="0px" y="0px" width="300px" height="300px"
	 viewBox="0 0 300 300" enable-background="new 0 0 300 300" xml:space="preserve">
<metadata>
	<sfw  xmlns="&ns_sfw;">
		<slices></slices>
		<sliceSourceBounds  height="307.582" width="300" x="-50.5" y="-58.082" bottomLeftOrigin="true"></sliceSourceBounds>
	</sfw>
</metadata>
<path fill="#248CBA" d="M228,301H72c-39.603,0-72-16.9-72-56.5V61C0,21.4,32.398,1,72,1h156c39.601,0,72,20.9,72,60.5V245
	C300,284.6,267.599,301,228,301z"/>
<rect x="0.758" y="229.086" fill="none" width="298.482" height="79.496"/>
<g enable-background="new    ">
	<path fill="#FFFFFF" d="M47.017,231.195c2.016-0.336,4.656-0.624,8.017-0.624c4.128,0,7.152,0.96,9.073,2.688
		c1.776,1.536,2.832,3.888,2.832,6.769c0,2.928-0.864,5.232-2.496,6.912c-2.208,2.353-5.809,3.553-9.889,3.553
		c-1.248,0-2.4-0.048-3.36-0.288v12.961h-4.176V231.195z M51.193,246.797c0.912,0.24,2.064,0.336,3.456,0.336
		c5.041,0,8.113-2.448,8.113-6.913c0-4.272-3.024-6.336-7.632-6.336c-1.824,0-3.216,0.144-3.937,0.336V246.797z"/>
	<path fill="#FFFFFF" d="M84.027,263.166l-0.336-2.929h-0.144c-1.296,1.824-3.792,3.457-7.104,3.457
		c-4.704,0-7.104-3.313-7.104-6.673c0-5.616,4.992-8.688,13.969-8.641v-0.48c0-1.92-0.528-5.376-5.281-5.376
		c-2.16,0-4.416,0.672-6.048,1.728l-0.96-2.784c1.92-1.248,4.705-2.063,7.633-2.063c7.104,0,8.833,4.848,8.833,9.505v8.688
		c0,2.016,0.096,3.984,0.384,5.568H84.027z M83.403,251.309c-4.608-0.096-9.841,0.721-9.841,5.232c0,2.736,1.824,4.033,3.984,4.033
		c3.024,0,4.945-1.921,5.617-3.889c0.144-0.432,0.24-0.912,0.24-1.344V251.309z"/>
	<path fill="#FFFFFF" d="M94.297,247.181c0-2.736-0.048-5.089-0.192-7.249h3.696l0.144,4.561h0.192
		c1.056-3.12,3.6-5.088,6.433-5.088c0.48,0,0.816,0.048,1.2,0.144v3.984c-0.432-0.096-0.864-0.144-1.44-0.144
		c-2.976,0-5.088,2.256-5.665,5.424c-0.096,0.576-0.192,1.248-0.192,1.969v12.385h-4.176V247.181z"/>
	<path fill="#FFFFFF" d="M122.619,263.166l-0.336-2.929h-0.144c-1.296,1.824-3.792,3.457-7.104,3.457
		c-4.704,0-7.104-3.313-7.104-6.673c0-5.616,4.992-8.688,13.969-8.641v-0.48c0-1.92-0.528-5.376-5.28-5.376
		c-2.161,0-4.417,0.672-6.049,1.728l-0.96-2.784c1.92-1.248,4.704-2.063,7.633-2.063c7.104,0,8.833,4.848,8.833,9.505v8.688
		c0,2.016,0.096,3.984,0.384,5.568H122.619z M121.994,251.309c-4.608-0.096-9.841,0.721-9.841,5.232
		c0,2.736,1.824,4.033,3.984,4.033c3.024,0,4.945-1.921,5.617-3.889c0.144-0.432,0.24-0.912,0.24-1.344V251.309z"/>
	<path fill="#FFFFFF" d="M152.955,229.083v28.082c0,2.064,0.048,4.417,0.191,6.001h-3.792l-0.192-4.032h-0.096
		c-1.296,2.592-4.128,4.561-7.92,4.561c-5.617,0-9.937-4.753-9.937-11.81c-0.048-7.729,4.752-12.48,10.417-12.48
		c3.552,0,5.952,1.68,7.009,3.552h0.096v-13.873H152.955z M148.731,249.389c0-0.528-0.048-1.248-0.192-1.776
		c-0.624-2.688-2.928-4.896-6.096-4.896c-4.368,0-6.96,3.841-6.96,8.978c0,4.704,2.304,8.593,6.864,8.593
		c2.832,0,5.425-1.872,6.192-5.041c0.145-0.576,0.192-1.152,0.192-1.824V249.389z"/>
	<path fill="#FFFFFF" d="M180.987,251.357c0,8.593-5.953,12.337-11.569,12.337c-6.288,0-11.137-4.608-11.137-11.953
		c0-7.776,5.088-12.337,11.521-12.337C176.474,239.404,180.987,244.252,180.987,251.357z M162.553,251.597
		c0,5.089,2.928,8.929,7.057,8.929c4.032,0,7.057-3.792,7.057-9.024c0-3.937-1.969-8.929-6.961-8.929
		S162.553,247.181,162.553,251.597z"/>
	<path fill="#FFFFFF" d="M187.61,239.932l3.313,4.993c0.863,1.296,1.584,2.496,2.352,3.792h0.145
		c0.768-1.393,1.536-2.592,2.304-3.841l3.265-4.944h4.561l-7.921,11.233l8.16,12.001h-4.8l-3.408-5.232
		c-0.912-1.344-1.681-2.641-2.496-4.032h-0.097c-0.768,1.392-1.584,2.64-2.448,4.032l-3.36,5.232h-4.656l8.257-11.857l-7.872-11.377
		H187.61z"/>
	<path fill="#FFFFFF" d="M228.171,251.357c0,8.593-5.953,12.337-11.569,12.337c-6.288,0-11.137-4.608-11.137-11.953
		c0-7.776,5.089-12.337,11.521-12.337C223.658,239.404,228.171,244.252,228.171,251.357z M209.738,251.597
		c0,5.089,2.928,8.929,7.057,8.929c4.032,0,7.057-3.792,7.057-9.024c0-3.937-1.969-8.929-6.961-8.929
		S209.738,247.181,209.738,251.597z"/>
	<path fill="#FFFFFF" d="M233.496,246.221c0-2.4-0.048-4.368-0.191-6.289h3.744l0.24,3.841h0.096
		c1.152-2.208,3.841-4.368,7.681-4.368c3.217,0,8.209,1.92,8.209,9.889v13.873h-4.225v-13.394c0-3.744-1.393-6.864-5.376-6.864
		c-2.785,0-4.945,1.968-5.665,4.32c-0.192,0.528-0.288,1.248-0.288,1.969v13.969h-4.225V246.221z"/>
</g>
<g>
	<ellipse opacity="0.4" fill="#FFFFFF" enable-background="new    " cx="147.04" cy="110.499" rx="84.332" ry="83"/>
	<g>
		<g>
			
				<line fill="none" stroke="#FFFFFF" stroke-width="12" stroke-miterlimit="10" x1="143.646" y1="132.078" x2="248.626" y2="132.078"/>
			
				<line fill="none" stroke="#FFFFFF" stroke-width="12" stroke-miterlimit="10" x1="143.646" y1="155.576" x2="223.517" y2="155.576"/>
			<line fill="none" stroke="#FFFFFF" stroke-width="12" stroke-miterlimit="10" x1="143.646" y1="85.08" x2="234.931" y2="85.08"/>
			
				<line fill="none" stroke="#FFFFFF" stroke-width="12" stroke-miterlimit="10" x1="143.646" y1="108.579" x2="191.75" y2="108.579"/>
		</g>
	</g>
	<circle opacity="0.4" fill="#FFFFFF" enable-background="new    " cx="72.707" cy="171.166" r="9"/>
	<circle opacity="0.4" fill="#FFFFFF" enable-background="new    " cx="58.04" cy="184.165" r="6.666"/>
</g>
</svg>
