<?xml version="1.0" encoding="UTF-8" standalone="no"?>
<svg
   xmlns:dc="http://purl.org/dc/elements/1.1/"
   xmlns:cc="http://creativecommons.org/ns#"
   xmlns:rdf="http://www.w3.org/1999/02/22-rdf-syntax-ns#"
   xmlns:svg="http://www.w3.org/2000/svg"
   xmlns="http://www.w3.org/2000/svg"
   viewBox="0 0 375 375"
   height="375"
   width="375"
   xml:space="preserve"
   version="1.1"
   id="svg2"><metadata
     id="metadata8"><rdf:RDF><cc:Work
         rdf:about=""><dc:format>image/svg+xml</dc:format><dc:type
           rdf:resource="http://purl.org/dc/dcmitype/StillImage" /></cc:Work></rdf:RDF></metadata><defs
     id="defs6"><clipPath
       id="clipPath80"
       clipPathUnits="userSpaceOnUse"><path
         id="path82"
         d="m 1868.73,2150.21 c -102.33,-14.02 -175.68,-95.62 -163.81,-182.27 l 0,0 c 11.87,-86.63 104.46,-145.5 206.81,-131.49 l 0,0 c 102.33,14.03 175.68,95.63 163.8,182.27 l 0,0 c -10.67,78.05 -86.87,133.55 -176.7,133.55 l 0,0 c -9.89,0 -19.95,-0.67 -30.1,-2.06" /></clipPath><radialGradient
       id="radialGradient84"
       spreadMethod="pad"
       gradientTransform="matrix(171.719,23.5208,23.5036,-171.633,1890.23,1993.33)"
       gradientUnits="userSpaceOnUse"
       r="1"
       cy="0"
       cx="0"
       fy="0"
       fx="0"><stop
         id="stop86"
         offset="0"
         style="stop-opacity:1;stop-color:#ffffff" /><stop
         id="stop88"
         offset="0.13439399"
         style="stop-opacity:1;stop-color:#ffffff" /><stop
         id="stop90"
         offset="1"
         style="stop-opacity:1;stop-color:#e6e6e6" /></radialGradient></defs><g
     transform="matrix(1.25,0,0,-1.25,0,375)"
     id="g10"><g
       transform="scale(0.1,0.1)"
       id="g12"><path
         id="path14"
         style="fill:#aebcc4;fill-opacity:1;fill-rule:nonzero;stroke:none"
         d="m 3000,529.855 c 0,-67.632 0,-529.85109375 -715,-529.85109375 l -1625,0 C 35,0.00390625 0,472.223 0,539.855 L 0,2399.86 c 0,545 592.352,600 660,600 l 1615,0.28 c 67.65,0 725,-0.28 725,-600.28" /><path
         id="path16"
         style="fill:#080828;fill-opacity:1;fill-rule:nonzero;stroke:none"
         d="m 683.672,249 59.5,0 0,139.641 c 0,6.718 0.484,12.953 2.406,17.765 6.235,17.75 22.547,33.11 45.578,33.11 32.641,0 45.11,-25.438 45.11,-59.516 l 0,-131 59.031,0 0,137.719 c 0,74.859 -41.75,101.265 -81.578,101.265 -14.875,0 -28.797,-3.843 -40.313,-10.562 -12.468,-6.719 -22.078,-15.844 -29.265,-26.875 l -0.969,0 0,139.172 -59.5,0 0,-340.719" /><path
         id="path18"
         style="fill:#080828;fill-opacity:1;fill-rule:nonzero;stroke:none"
         d="m 1018.17,249 0,233.703 -59.498,0 0,-233.703 59.498,0 z m -29.748,331.109 c -19.672,0 -33.109,-13.906 -33.109,-32.14 0,-17.766 12.953,-31.672 32.625,-31.672 20.642,0 33.592,13.906 33.592,31.672 -0.47,18.234 -12.95,32.14 -33.108,32.14" /><path
         id="path20"
         style="fill:#080828;fill-opacity:1;fill-rule:nonzero;stroke:none"
         d="m 1243.88,482.703 -2.41,-31.203 -0.95,0 c -11.05,19.203 -32.16,36.484 -67.68,36.484 -56.14,0 -106.04,-46.546 -106.04,-123.328 0,-66.234 41.26,-114.218 99.33,-114.218 30.71,0 54.7,13.921 68.14,34.546 l 0.96,0 0,-20.156 c 0,-50.375 -28.79,-70.531 -67.18,-70.531 -28.32,0 -53.27,9.109 -68.14,17.75 l -12.96,-44.625 c 20.16,-12.484 51.83,-18.719 81.58,-18.719 32.16,0 65.74,6.719 90.22,28.313 24.47,22.078 34.55,57.109 34.55,106.062 l 0,132.438 c 0,32.156 0.95,51.343 1.92,67.187 l -51.34,0 z m -9.61,-131.484 c 0,-6.719 -0.96,-14.875 -2.39,-21.125 -6.72,-21.11 -25.93,-35.5 -47.99,-35.5 -36.95,0 -57.11,32.14 -57.11,71.969 0,47.515 24.47,76.312 57.58,76.312 24.95,0 41.75,-16.328 48,-37.922 1.44,-4.797 1.91,-10.547 1.91,-15.828 l 0,-37.906" /><path
         id="path22"
         style="fill:#080828;fill-opacity:1;fill-rule:nonzero;stroke:none"
         d="m 1356.67,249 59.5,0 0,139.641 c 0,6.718 0.49,12.953 2.41,17.765 6.23,17.75 22.55,33.11 45.58,33.11 32.64,0 45.11,-25.438 45.11,-59.516 l 0,-131 59.03,0 0,137.719 c 0,74.859 -41.75,101.265 -81.58,101.265 -14.88,0 -28.8,-3.843 -40.31,-10.562 -12.47,-6.719 -22.08,-15.844 -29.27,-26.875 l -0.97,0 0,139.172 -59.5,0 0,-340.719" /><path
         id="path24"
         style="fill:#080828;fill-opacity:1;fill-rule:nonzero;stroke:none"
         d="m 1613.39,356.484 122.375,0 0,40.7969 -122.375,0 0,-40.7969 z" /><path
         id="path26"
         style="fill:#080828;fill-opacity:1;fill-rule:nonzero;stroke:none"
         d="m 1841.7,589.719 -59.03,0 0,-340.719 59.03,0 0,79.656 20.14,23.516 67.19,-103.172 72.47,0 -98.86,138.203 86.38,95.5 -71.02,0 -56.62,-75.344 c -6.25,-8.156 -12.96,-18.234 -18.72,-27.359 l -0.96,0 0,209.719" /><path
         id="path28"
         style="fill:#080828;fill-opacity:1;fill-rule:nonzero;stroke:none"
         d="m 2220.86,349.297 c 0.95,5.281 1.92,13.906 1.92,24.953 0,51.344 -24.95,113.734 -100.78,113.734 -74.86,0 -114.2,-60.953 -114.2,-125.734 0,-71.5 44.62,-118.047 120.45,-118.047 33.58,0 61.42,6.235 81.58,14.391 l -8.64,40.797 c -17.75,-6.719 -37.44,-10.563 -64.78,-10.563 -37.44,0 -70.55,18.235 -71.99,60.469 l 156.44,0 z m -156.44,41.266 c 2.39,24 17.75,57.109 54.22,57.109 39.36,0 48.95,-35.516 48.47,-57.109 l -102.69,0" /><path
         id="path30"
         style="fill:#080828;fill-opacity:1;fill-rule:nonzero;stroke:none"
         d="m 2241.84,482.703 85.41,-214.515 c 2.89,-5.75 3.36,-9.11 3.36,-11.516 0,-2.875 -1.44,-6.234 -3.83,-10.547 -8.15,-15.844 -21.12,-29.75 -32.15,-36.953 -12,-8.641 -24.47,-13.922 -34.55,-16.313 l 13.44,-49.906 c 14.87,1.922 38.86,9.594 61.9,30.235 27.83,23.984 49.42,62.859 81.58,150.187 l 58.53,159.328 -63.34,0 -36.47,-124.765 c -4.31,-15.36 -8.63,-32.641 -12.47,-46.079 l -1.44,0 c -3.36,13.438 -8.15,31.204 -12.97,45.594 l -42.21,125.25 -64.79,0" /><path
         id="path32"
         style="fill:#ffffff;fill-opacity:1;fill-rule:nonzero;stroke:none"
         d="m 500,940 2080,0 0,1720 -2080,0 0,-1720 z" /><path
         id="path34"
         style="fill:#080828;fill-opacity:1;fill-rule:nonzero;stroke:none"
         d="m 2012.27,1280.68 c 0,-107.14 -197.11,-194.03 -440.25,-194.03 -243.14,0 -440.25,86.89 -440.25,194.03 0,107.02 197.11,193.91 440.25,193.91 243.14,0 440.25,-86.89 440.25,-193.91" /><path
         id="path36"
         style="fill:none;stroke:#080828;stroke-width:6.4000001;stroke-linecap:butt;stroke-linejoin:miter;stroke-miterlimit:10;stroke-dasharray:none;stroke-opacity:1"
         d="m 2012.27,1280.68 c 0,-107.14 -197.11,-194.03 -440.25,-194.03 -243.14,0 -440.25,86.89 -440.25,194.03 0,107.02 197.11,193.91 440.25,193.91 243.14,0 440.25,-86.89 440.25,-193.91 z" /><path
         id="path38"
         style="fill:#e6e6e6;fill-opacity:1;fill-rule:nonzero;stroke:none"
         d="m 1312.73,2319.53 c 66.97,-10.65 155.57,-30.97 206.45,-71.12 405.93,-320.46 357.96,-690.97 48.14,-1078.4 -47.34,-59.19 -68.71,-66.47 -118.89,-68.06 -358.04,-11.38 -466.356,383.18 -559.215,698.28 -90.008,305.47 66.84,576.03 423.515,519.3 m 211.32,-78.07 c -27.23,16.94 122.25,68.4 158.83,78.14 378.12,100.85 558.44,-109.94 545.76,-424.84 -18.91,-468.86 -195.25,-752.42 -465.1,-786.51 -62.88,-7.92 -256.27,-11.44 -215.54,34.04 364.04,406.43 328.98,879.86 -23.95,1099.17" /><path
         id="path40"
         style="fill:none;stroke:#080828;stroke-width:3.26999998;stroke-linecap:butt;stroke-linejoin:miter;stroke-miterlimit:10;stroke-dasharray:none;stroke-opacity:1"
         d="m 1312.73,2319.53 c 66.97,-10.65 155.57,-30.97 206.45,-71.12 405.93,-320.46 357.96,-690.97 48.14,-1078.4 -47.34,-59.19 -68.71,-66.47 -118.89,-68.06 -358.04,-11.38 -466.356,383.18 -559.215,698.28 -90.008,305.47 66.84,576.03 423.515,519.3 z m 211.32,-78.07 c -27.23,16.94 122.25,68.4 158.83,78.14 378.12,100.85 558.44,-109.94 545.76,-424.84 -18.91,-468.86 -195.25,-752.42 -465.1,-786.51 -62.88,-7.92 -256.27,-11.44 -215.54,34.04 364.04,406.43 328.98,879.86 -23.95,1099.17 z" /><path
         id="path42"
         style="fill:#080828;fill-opacity:1;fill-rule:nonzero;stroke:none"
         d="m 1600.45,2186.81 c 0,0 2.8,178.61 -76.95,313.41 0,0 -11.04,0.63 -46.92,-33.23 0,0 119.15,-156.75 72.58,-243.81" /><path
         id="path44"
         style="fill:none;stroke:#080828;stroke-width:3.26999998;stroke-linecap:butt;stroke-linejoin:miter;stroke-miterlimit:10;stroke-dasharray:none;stroke-opacity:1"
         d="m 1600.45,2186.81 c 0,0 2.8,178.61 -76.95,313.41 0,0 -11.04,0.63 -46.92,-33.23 0,0 119.15,-156.75 72.58,-243.81 l 51.29,-36.37 z" /><path
         id="path46"
         style="fill:none;stroke:#080828;stroke-width:3.26999998;stroke-linecap:butt;stroke-linejoin:miter;stroke-miterlimit:10;stroke-dasharray:none;stroke-opacity:1"
         d="m 1594.17,2189.34 c 0,0 91.19,-43.43 147.86,4.51" /><path
         id="path48"
         style="fill:#e6e6e6;fill-opacity:1;fill-rule:nonzero;stroke:none"
         d="m 1684.5,2065.96 c 9.02,-3.3 23.98,-42.85 29.28,-54.92 16.61,-37.88 29.11,-77.79 40.8,-117.4 10.55,-35.76 19.3,-72.08 25.93,-108.77 3.61,-19.98 13.63,-59.22 1.24,-78.04 10.26,1.33 20.53,2.65 30.8,3.97 -32.69,39.18 -16.84,106.7 -22.57,153.94 -6.99,57.58 -41.14,111.64 -70.26,160.29 -3.9,-9.61 -7.81,-19.21 -11.71,-28.82 51.86,12.4 55.85,-290.55 63.06,-330.65 4.47,-24.87 42.29,-14.3 37.83,10.43 -11.48,63.82 10.79,387.23 -111.32,358.06 -12.31,-2.94 -18.08,-18.2 -11.72,-28.82 36.34,-60.74 66.81,-118.34 67.7,-190.45 0.59,-47.05 -0.3,-93.9 31.25,-131.72 8.53,-10.22 24.4,-5.77 30.8,3.97 15.73,23.87 9.7,59.18 6.2,85.55 -6.38,48.09 -18.72,95.28 -32.43,141.73 -13.21,44.78 -29,88.96 -48.41,131.45 -9.79,21.46 -22.27,49.33 -46.04,58.03 -23.81,8.72 -33.98,-29.2 -10.43,-37.83" /><path
         id="path50"
         style="fill:#e6e6e6;fill-opacity:1;fill-rule:nonzero;stroke:none"
         d="m 1771.07,1656.84 c 32.29,-151.2 -143.28,-243.77 -157.64,-387.09 -2.18,-21.95 34.89,-26.95 38.54,-5.21 6.51,38.84 23.84,73.65 56.39,97.26 -9.86,5.65 -19.68,11.29 -29.54,16.93 -4.71,-78.64 -76.42,-139.75 -115.02,-203.69 -13.1,-21.72 20.83,-41.42 33.88,-19.81 43.55,72.16 115.03,134.54 120.38,223.5 0.84,14.05 -17.63,25.56 -29.52,16.93 -40.57,-29.43 -66.09,-71.16 -74.4,-120.7 12.84,-1.73 25.68,-3.48 38.54,-5.21 7.79,77.94 69.39,140.6 110.75,203.21 39.12,59.25 60.59,123.58 45.47,194.31 -5.27,24.74 -43.09,14.24 -37.83,-10.43" /><path
         id="path52"
         style="fill:#e6e6e6;fill-opacity:1;fill-rule:nonzero;stroke:none"
         d="m 1723.11,1471.11 c -8.59,-46.59 -17.93,-98.73 -55.98,-130.83 -19.36,-16.33 8.53,-43.94 27.73,-27.73 43.27,36.48 56.28,94.98 66.09,148.13 4.55,24.73 -33.25,35.29 -37.84,10.43" /><path
         id="path54"
         style="fill:#e6e6e6;fill-opacity:1;fill-rule:nonzero;stroke:none"
         d="m 1805.23,1731.8 c 2.4,-37.61 -24.28,-68.8 -34.16,-103.76 -6.89,-24.39 30.98,-34.74 37.84,-10.43 11.05,39.19 38.27,71.52 35.55,114.19 -1.6,25.12 -40.85,25.27 -39.23,0" /><path
         id="path56"
         style="fill:#e6e6e6;fill-opacity:1;fill-rule:nonzero;stroke:none"
         d="m 1757.29,1688.21 c -0.04,-55.55 -1.88,-107.3 -32.2,-155.74 -13.45,-21.51 20.5,-41.19 33.87,-19.8 33.95,54.25 37.52,113.13 37.56,175.54 0.03,25.3 -39.22,25.3 -39.23,0" /><path
         id="path58"
         style="fill:#e6e6e6;fill-opacity:1;fill-rule:nonzero;stroke:none"
         d="m 1593.14,1216.86 c 22.22,0 22.22,34.43 0,34.43 -22.21,0 -22.21,-34.43 0,-34.43" /><path
         id="path60"
         style="fill:#e6e6e6;fill-opacity:1;fill-rule:nonzero;stroke:none"
         d="m 1667.92,2082.7 c 25.3,0 25.3,39.23 0,39.23 -25.3,0 -25.3,-39.23 0,-39.23" /><path
         id="path62"
         style="fill:#e6e6e6;fill-opacity:1;fill-rule:nonzero;stroke:none"
         d="m 1628.69,2100.13 c 25.3,0 25.3,39.23 0,39.23 -25.3,0 -25.3,-39.23 0,-39.23" /><path
         id="path64"
         style="fill:#e6e6e6;fill-opacity:1;fill-rule:nonzero;stroke:none"
         d="m 1650.49,2095.77 c 25.3,0 25.3,39.23 0,39.23 -25.3,0 -25.3,-39.23 0,-39.23" /><path
         id="path66"
         style="fill:#e6e6e6;fill-opacity:1;fill-rule:nonzero;stroke:none"
         d="m 1641.77,2117.57 c 25.3,0 25.3,39.23 0,39.23 -25.3,0 -25.3,-39.23 0,-39.23" /><path
         id="path68"
         style="fill:#e6e6e6;fill-opacity:1;fill-rule:nonzero;stroke:none"
         d="m 1624.34,2117.57 c 25.3,0 25.3,39.23 0,39.23 -25.3,0 -25.3,-39.23 0,-39.23" /><path
         id="path70"
         style="fill:#e6e6e6;fill-opacity:1;fill-rule:nonzero;stroke:none"
         d="m 1627.7,2171.55 c -1.61,0.8 -3.2,1.62 -4.79,2.45 -1.34,0.7 -6.34,4.73 -2.16,1.02 -7.98,7.09 -19.84,7.89 -27.73,0 -7.22,-7.22 -8.02,-20.64 0,-27.74 4.57,-4.06 9.48,-6.9 14.89,-9.61 9.55,-4.78 21.18,-2.62 26.82,7.04 5.15,8.77 2.52,22.05 -7.03,26.84" /><path
         id="path72"
         style="fill:#e6e6e6;fill-opacity:1;fill-rule:nonzero;stroke:none"
         d="m 1597.64,2169.88 0,4.35 c 0,8.01 -6.69,14.71 -14.71,14.71 -8.01,0 -14.7,-6.7 -14.7,-14.71 l 0,-4.35 c 0,-8.03 6.69,-14.72 14.7,-14.72 8.02,0 14.71,6.69 14.71,14.72" /><path
         id="path74"
         style="fill:#e6e6e6;fill-opacity:1;fill-rule:nonzero;stroke:none"
         d="m 1587.27,2163.88 c 18.98,0 18.98,29.42 0,29.42 -18.97,0 -18.97,-29.42 0,-29.42" /><g
         id="g76"><g
           clip-path="url(#clipPath80)"
           id="g78"><path
             id="path92"
             style="fill:url(#radialGradient84);fill-opacity:1;fill-rule:nonzero;stroke:none"
             d="m 1868.73,2150.21 c -102.33,-14.02 -175.68,-95.62 -163.81,-182.27 l 0,0 c 11.87,-86.63 104.46,-145.5 206.81,-131.49 l 0,0 c 102.33,14.03 175.68,95.63 163.8,182.27 l 0,0 c -10.67,78.05 -86.87,133.55 -176.7,133.55 l 0,0 c -9.89,0 -19.95,-0.67 -30.1,-2.06" /></g></g><path
         id="path94"
         style="fill:none;stroke:#080828;stroke-width:1.79999995;stroke-linecap:butt;stroke-linejoin:miter;stroke-miterlimit:10;stroke-dasharray:none;stroke-opacity:1"
         d="m 1669.56,2313.72 -72.95,-121.05" /><path
         id="path96"
         style="fill:none;stroke:#080828;stroke-width:1.92999995;stroke-linecap:butt;stroke-linejoin:miter;stroke-miterlimit:10;stroke-dasharray:none;stroke-opacity:1"
         d="m 1702.26,2320.26 -92.57,-140.67" /><path
         id="path98"
         style="fill:none;stroke:#080828;stroke-width:1.92999995;stroke-linecap:butt;stroke-linejoin:miter;stroke-miterlimit:10;stroke-dasharray:none;stroke-opacity:1"
         d="m 1730.04,2330.07 -94.2,-150.48" /><path
         id="path100"
         style="fill:none;stroke:#080828;stroke-width:1.92999995;stroke-linecap:butt;stroke-linejoin:miter;stroke-miterlimit:10;stroke-dasharray:none;stroke-opacity:1"
         d="m 1759.46,2334.96 -97.47,-155.37" /><path
         id="path102"
         style="fill:none;stroke:#080828;stroke-width:1.92999995;stroke-linecap:butt;stroke-linejoin:miter;stroke-miterlimit:10;stroke-dasharray:none;stroke-opacity:1"
         d="M 1795.43,2341.51 1688.14,2179.59" /><path
         id="path104"
         style="fill:none;stroke:#080828;stroke-width:1.83000004;stroke-linecap:butt;stroke-linejoin:miter;stroke-miterlimit:10;stroke-dasharray:none;stroke-opacity:1"
         d="m 1816.67,2338.24 -96.31,-149.98" /><path
         id="path106"
         style="fill:none;stroke:#080828;stroke-width:1.08000004;stroke-linecap:butt;stroke-linejoin:miter;stroke-miterlimit:10;stroke-dasharray:none;stroke-opacity:1"
         d="m 1589.45,2295.74 -40.86,-68.64" /><path
         id="path108"
         style="fill:none;stroke:#080828;stroke-width:1.25;stroke-linecap:butt;stroke-linejoin:miter;stroke-miterlimit:10;stroke-dasharray:none;stroke-opacity:1"
         d="m 1613.98,2294.11 -52.3,-81.73" /><path
         id="path110"
         style="fill:none;stroke:#080828;stroke-width:1.73000002;stroke-linecap:butt;stroke-linejoin:miter;stroke-miterlimit:10;stroke-dasharray:none;stroke-opacity:1"
         d="m 1645.04,2307.18 -67.02,-111.14" /><path
         id="path112"
         style="fill:none;stroke:#080828;stroke-width:0.50999999;stroke-linecap:butt;stroke-linejoin:miter;stroke-miterlimit:10;stroke-dasharray:none;stroke-opacity:1"
         d="m 1548.59,2267.95 -14.71,-31.06" /></g></g></svg>