<?xml version="1.0" encoding="UTF-8" standalone="no"?>
<!-- Generator: Adobe Illustrator 16.0.3, SVG Export Plug-In . SVG Version: 6.00 Build 0)  -->

<svg
   xmlns:dc="http://purl.org/dc/elements/1.1/"
   xmlns:cc="http://creativecommons.org/ns#"
   xmlns:rdf="http://www.w3.org/1999/02/22-rdf-syntax-ns#"
   xmlns:svg="http://www.w3.org/2000/svg"
   xmlns="http://www.w3.org/2000/svg"
   xmlns:sodipodi="http://sodipodi.sourceforge.net/DTD/sodipodi-0.dtd"
   xmlns:inkscape="http://www.inkscape.org/namespaces/inkscape"
   version="1.1"
   id="Ebene_1"
   x="0px"
   y="0px"
   width="60px"
   height="60px"
   viewBox="0 0 60 60"
   style="enable-background:new 0 0 60 60;"
   xml:space="preserve"
   sodipodi:docname="visual_qr_brunnen_vergiften_de.svg"
   inkscape:version="0.92.4 (5da689c313, 2019-01-14)"><metadata
   id="metadata84"><rdf:RDF><cc:Work
       rdf:about=""><dc:format>image/svg+xml</dc:format><dc:type
         rdf:resource="http://purl.org/dc/dcmitype/StillImage" /><dc:title></dc:title></cc:Work></rdf:RDF></metadata><defs
   id="defs82" /><sodipodi:namedview
   pagecolor="#ffffff"
   bordercolor="#666666"
   borderopacity="1"
   objecttolerance="10"
   gridtolerance="10"
   guidetolerance="10"
   inkscape:pageopacity="0"
   inkscape:pageshadow="2"
   inkscape:window-width="731"
   inkscape:window-height="480"
   id="namedview80"
   showgrid="false"
   inkscape:zoom="3.9333333"
   inkscape:cx="30"
   inkscape:cy="30"
   inkscape:window-x="0"
   inkscape:window-y="0"
   inkscape:window-maximized="0"
   inkscape:current-layer="Ebene_1" />
<rect
   style="fill:#A0B983;"
   width="60"
   height="60"
   id="rect2" />
<g
   id="g38">
	<rect
   y="51.037"
   style="fill:none;"
   width="59.665"
   height="8.809"
   id="rect4" />
	<path
   style="fill:#FFFFFF;"
   d="M2.718,51.35c0.273-0.057,0.771-0.099,1.254-0.099c0.637,0,1.029,0.077,1.352,0.302   c0.294,0.175,0.49,0.483,0.49,0.882c0,0.435-0.273,0.834-0.784,1.022v0.015c0.497,0.126,0.953,0.519,0.953,1.169   c0,0.421-0.182,0.75-0.456,0.974c-0.336,0.295-0.889,0.441-1.751,0.441c-0.476,0-0.84-0.035-1.058-0.063V51.35z M3.573,53.212   h0.441c0.595,0,0.932-0.279,0.932-0.679c0-0.441-0.336-0.645-0.883-0.645c-0.252,0-0.399,0.014-0.49,0.035V53.212z M3.573,55.384   c0.112,0.014,0.259,0.021,0.456,0.021c0.553,0,1.043-0.21,1.043-0.791c0-0.547-0.476-0.771-1.072-0.771H3.573V55.384z"
   id="path6" />
	<path
   style="fill:#FFFFFF;"
   d="M6.715,53.695c0-0.462-0.007-0.791-0.028-1.1h0.75l0.028,0.651h0.028   c0.168-0.483,0.567-0.729,0.932-0.729c0.084,0,0.133,0.008,0.203,0.021v0.813c-0.07-0.014-0.147-0.028-0.252-0.028   c-0.413,0-0.693,0.267-0.771,0.651c-0.014,0.077-0.028,0.168-0.028,0.267v1.765H6.715V53.695z"
   id="path8" />
	<path
   style="fill:#FFFFFF;"
   d="M12.261,54.984c0,0.406,0.014,0.742,0.028,1.022h-0.756l-0.042-0.519h-0.014   c-0.147,0.245-0.483,0.596-1.093,0.596c-0.623,0-1.19-0.371-1.19-1.485v-2.003h0.861v1.856c0,0.567,0.182,0.932,0.638,0.932   c0.343,0,0.567-0.245,0.658-0.463c0.028-0.077,0.049-0.168,0.049-0.266v-2.06h0.862V54.984z"
   id="path10" />
	<path
   style="fill:#FFFFFF;"
   d="M13.19,53.611c0-0.392-0.007-0.721-0.028-1.016h0.756l0.042,0.512h0.021   c0.147-0.267,0.518-0.589,1.085-0.589c0.595,0,1.211,0.386,1.211,1.464v2.024h-0.861v-1.926c0-0.49-0.182-0.861-0.651-0.861   c-0.343,0-0.582,0.245-0.672,0.504c-0.028,0.077-0.035,0.182-0.035,0.28v2.003H13.19V53.611z"
   id="path12" />
	<path
   style="fill:#FFFFFF;"
   d="M17.194,53.611c0-0.392-0.007-0.721-0.028-1.016h0.756l0.042,0.512h0.021   c0.147-0.267,0.518-0.589,1.085-0.589c0.595,0,1.211,0.386,1.211,1.464v2.024h-0.861v-1.926c0-0.49-0.182-0.861-0.651-0.861   c-0.343,0-0.582,0.245-0.672,0.504c-0.028,0.077-0.035,0.182-0.035,0.28v2.003h-0.868V53.611z"
   id="path14" />
	<path
   style="fill:#FFFFFF;"
   d="M21.807,54.543c0.021,0.616,0.504,0.883,1.05,0.883c0.399,0,0.687-0.057,0.946-0.154l0.126,0.596   c-0.294,0.118-0.701,0.21-1.191,0.21c-1.106,0-1.758-0.68-1.758-1.724c0-0.945,0.574-1.835,1.667-1.835   c1.106,0,1.471,0.911,1.471,1.66c0,0.161-0.014,0.287-0.028,0.364H21.807z M23.306,53.94c0.007-0.314-0.133-0.833-0.708-0.833   c-0.532,0-0.756,0.483-0.791,0.833H23.306z"
   id="path16" />
	<path
   style="fill:#FFFFFF;"
   d="M24.81,53.611c0-0.392-0.007-0.721-0.028-1.016h0.756l0.042,0.512h0.021   c0.147-0.267,0.518-0.589,1.085-0.589c0.595,0,1.211,0.386,1.211,1.464v2.024h-0.861v-1.926c0-0.49-0.182-0.861-0.651-0.861   c-0.343,0-0.581,0.245-0.672,0.504c-0.028,0.077-0.035,0.182-0.035,0.28v2.003H24.81V53.611z"
   id="path18" />
	<path
   style="fill:#FFFFFF;"
   d="M30.809,52.596l0.552,1.73c0.1,0.301,0.168,0.574,0.232,0.854h0.021   c0.063-0.28,0.139-0.547,0.23-0.854l0.539-1.73h0.91l-1.303,3.411h-0.848l-1.267-3.411H30.809z"
   id="path20" />
	<path
   style="fill:#FFFFFF;"
   d="M34.336,54.543c0.021,0.616,0.506,0.883,1.051,0.883c0.4,0,0.688-0.057,0.945-0.154l0.127,0.596   c-0.295,0.118-0.701,0.21-1.191,0.21c-1.105,0-1.758-0.68-1.758-1.724c0-0.945,0.574-1.835,1.668-1.835   c1.105,0,1.471,0.911,1.471,1.66c0,0.161-0.014,0.287-0.029,0.364H34.336z M35.836,53.94c0.006-0.314-0.133-0.833-0.707-0.833   c-0.533,0-0.758,0.483-0.793,0.833H35.836z"
   id="path22" />
	<path
   style="fill:#FFFFFF;"
   d="M37.34,53.695c0-0.462-0.008-0.791-0.027-1.1h0.748l0.029,0.651h0.027   c0.168-0.483,0.566-0.729,0.932-0.729c0.084,0,0.133,0.008,0.203,0.021v0.813c-0.07-0.014-0.146-0.028-0.252-0.028   c-0.414,0-0.693,0.267-0.771,0.651c-0.014,0.077-0.027,0.168-0.027,0.267v1.765H37.34V53.695z"
   id="path24" />
	<path
   style="fill:#FFFFFF;"
   d="M42.893,52.596c-0.014,0.231-0.027,0.512-0.027,0.98v1.934c0,0.714-0.146,1.226-0.504,1.548   c-0.357,0.315-0.848,0.413-1.318,0.413c-0.434,0-0.896-0.091-1.189-0.273l0.189-0.651c0.217,0.126,0.58,0.26,0.994,0.26   c0.561,0,0.98-0.295,0.98-1.03v-0.294h-0.014c-0.197,0.302-0.547,0.504-0.994,0.504c-0.848,0-1.451-0.7-1.451-1.666   c0-1.121,0.729-1.801,1.549-1.801c0.518,0,0.826,0.253,0.986,0.532h0.016l0.033-0.455H42.893z M42.004,53.962   c0-0.077-0.008-0.161-0.029-0.231c-0.09-0.315-0.336-0.553-0.699-0.553c-0.484,0-0.842,0.42-0.842,1.113   c0,0.581,0.295,1.051,0.834,1.051c0.322,0,0.604-0.21,0.701-0.519c0.021-0.091,0.035-0.21,0.035-0.309V53.962z"
   id="path26" />
	<path
   style="fill:#FFFFFF;"
   d="M44.676,51.644c0,0.259-0.189,0.462-0.49,0.462c-0.287,0-0.477-0.203-0.477-0.462   c0-0.267,0.197-0.47,0.484-0.47C44.486,51.174,44.67,51.377,44.676,51.644z M43.758,56.007v-3.411h0.869v3.411H43.758z"
   id="path28" />
	<path
   style="fill:#FFFFFF;"
   d="M45.648,56.007V53.24h-0.463v-0.645h0.463v-0.146c0-0.441,0.119-0.883,0.414-1.163   c0.252-0.238,0.594-0.329,0.889-0.329c0.23,0,0.414,0.035,0.553,0.084l-0.063,0.665c-0.09-0.034-0.209-0.063-0.363-0.063   c-0.428,0-0.574,0.357-0.574,0.777v0.175h0.748v0.645H46.51v2.767H45.648z"
   id="path30" />
	<path
   style="fill:#FFFFFF;"
   d="M48.861,51.622v0.974h0.82v0.645h-0.82v1.506c0,0.413,0.111,0.631,0.441,0.631   c0.146,0,0.26-0.021,0.336-0.043l0.014,0.659c-0.125,0.049-0.35,0.084-0.623,0.084c-0.314,0-0.582-0.105-0.742-0.28   c-0.182-0.196-0.266-0.505-0.266-0.953V53.24h-0.49v-0.645h0.49v-0.771L48.861,51.622z"
   id="path32" />
	<path
   style="fill:#FFFFFF;"
   d="M50.898,54.543c0.021,0.616,0.504,0.883,1.051,0.883c0.398,0,0.686-0.057,0.945-0.154l0.125,0.596   c-0.293,0.118-0.699,0.21-1.189,0.21c-1.107,0-1.758-0.68-1.758-1.724c0-0.945,0.574-1.835,1.666-1.835   c1.107,0,1.471,0.911,1.471,1.66c0,0.161-0.014,0.287-0.027,0.364H50.898z M52.396,53.94c0.008-0.314-0.133-0.833-0.707-0.833   c-0.531,0-0.756,0.483-0.791,0.833H52.396z"
   id="path34" />
	<path
   style="fill:#FFFFFF;"
   d="M53.9,53.611c0-0.392-0.006-0.721-0.027-1.016h0.756l0.043,0.512h0.021   c0.146-0.267,0.518-0.589,1.084-0.589c0.596,0,1.213,0.386,1.213,1.464v2.024h-0.861v-1.926c0-0.49-0.182-0.861-0.652-0.861   c-0.342,0-0.58,0.245-0.672,0.504c-0.027,0.077-0.035,0.182-0.035,0.28v2.003H53.9V53.611z"
   id="path36" />
</g>
<g
   id="g41"
   transform="translate(-7.561529,-21.467778)">
	<g
   id="Bild"
   transform="translate(8.6,22.5)">
		
			<sodipodi:namedview
   units="mm"
   borderopacity="1.0"
   bordercolor="#666666"
   pagecolor="#ffffff"
   showgrid="false"
   inkscape:cy="23.909898"
   inkscape:cx="7.3663924"
   inkscape:zoom="7.9195959"
   showguides="true"
   id="base"
   inkscape:pageopacity="0.0"
   inkscape:pageshadow="2"
   inkscape:window-width="1366"
   inkscape:window-height="716"
   inkscape:window-x="-8"
   inkscape:window-y="-8"
   inkscape:window-maximized="1"
   inkscape:current-layer="layer1"
   inkscape:guide-bbox="true"
   inkscape:document-units="mm">
			<sodipodi:guide
   orientation="1,0"
   position="191.33858,0"
   id="guide21487" />
			<sodipodi:guide
   orientation="0,1"
   position="0,304.72441"
   id="guide21489" />
			<sodipodi:guide
   orientation="0,1"
   position="0,322.44094"
   id="guide26097" />
		</sodipodi:namedview>
		<g
   id="layer1"
   transform="translate(0,-910.62992)"
   inkscape:label="Ebene 1"
   inkscape:groupmode="layer">
			<path
   id="path4015"
   inkscape:connector-curvature="0"
   style="fill:#FFFFFF;"
   d="M10.096,915.555v0.421H6.882H6.462v0.42v8.431     H7.32v-8.01h2.776v16.761v0.067c-0.017,0.111-0.017,0.222-0.017,0.336c0,0.115,0,0.226,0.017,0.337v0.101v0.286v15.146v0.488     c-0.004,0.057-0.017,0.11-0.017,0.168s0.013,0.111,0.017,0.168v0.018c0.071,0.84,0.605,1.573,1.296,2.137     c0.742,0.604,1.681,1.091,2.861,1.498c2.361,0.814,5.514,1.313,9.003,1.313s6.693-0.498,9.054-1.313     c1.181-0.407,2.136-0.894,2.878-1.498s1.313-1.403,1.313-2.322c0-0.144-0.024-0.283-0.05-0.421v-0.235v-15.432v-0.017     c0.025-0.138,0.05-0.277,0.05-0.421c0-0.139-0.025-0.27-0.05-0.404c-0.005-0.023-0.012-0.044-0.018-0.067v-5.334h3.938v2.979     v5.621v0.893v0.303v14.657c0,0.903,0.73,1.633,1.632,1.633c0.902,0,1.633-0.729,1.633-1.633v-11.712h0.656v11.712     c0,0.903,0.729,1.633,1.632,1.633c0.903,0,1.616-0.729,1.616-1.633v-14.96v-6.513v-2.945h0.656c-0.001,0.017,0,0.034,0,0.05     v8.078c0,0.902,0.729,1.633,1.632,1.633c0.903,0,1.633-0.73,1.633-1.633v-8.078c0-0.226-0.052-0.444-0.135-0.64     c-0.402-1.538-1.785-2.675-3.45-2.675c-0.111,0-0.227-0.008-0.336,0H40.91c-0.106-0.022-0.224-0.034-0.337-0.034h-4.14v-8.516     v-0.841h-0.841H10.938H10.096z M11.779,917.237h11.073v11.679c-3.328,0.033-6.331,0.463-8.6,1.246     c-0.986,0.34-1.798,0.738-2.474,1.211V917.237z M23.694,917.237h11.057v7.674h-3.383c-0.902,0-1.632,0.73-1.632,1.632     s0.73,1.632,1.632,1.632h3.383v3.164c-0.67-0.458-1.478-0.846-2.44-1.178c-2.261-0.779-5.298-1.211-8.616-1.246V917.237z      M43.956,918.163c-1.709,0-3.097,1.387-3.097,3.097c0,1.709,1.388,3.096,3.097,3.096c1.71,0,3.097-1.387,3.097-3.096     C47.052,919.55,45.666,918.163,43.956,918.163z M23.274,930.027c6.361,0,11.528,1.779,11.528,3.972     c0,2.193-5.167,3.972-11.528,3.972c-6.36,0-11.511-1.778-11.511-3.972C11.763,931.806,16.913,930.027,23.274,930.027z      M31.116,932.064c-0.6,0-1.094,0.479-1.094,1.077s0.494,1.077,1.094,1.077c0.599,0,1.077-0.479,1.077-1.077     S31.714,932.064,31.116,932.064z" />
			<path
   id="path3229"
   inkscape:connector-curvature="0"
   style="fill:#FFFFFF;"
   d="M23.255,945.441c-3.49,0-6.644,0.438-9.004,1.252     c-1.18,0.406-2.121,0.886-2.862,1.49c-0.742,0.605-1.312,1.406-1.312,2.326c0,0.919,0.57,1.721,1.312,2.326     c0.741,0.604,1.682,1.083,2.862,1.49c2.36,0.813,5.515,1.312,9.004,1.312c3.489,0,6.703-0.498,9.063-1.312     c1.181-0.407,2.121-0.886,2.862-1.49c0.742-0.605,1.313-1.407,1.313-2.326s-0.57-1.721-1.313-2.326     c-0.741-0.604-1.682-1.084-2.862-1.49C29.958,945.879,26.744,945.441,23.255,945.441z M23.255,947.11     c3.332,0,6.357,0.465,8.467,1.193c1.055,0.363,1.877,0.778,2.385,1.192c0.509,0.414,0.656,0.756,0.656,1.014     c0,0.257-0.147,0.6-0.656,1.013c-0.508,0.415-1.33,0.829-2.385,1.193c-2.11,0.728-5.135,1.253-8.467,1.253     s-6.298-0.525-8.408-1.253c-1.055-0.364-1.877-0.778-2.385-1.193c-0.508-0.413-0.715-0.756-0.715-1.013     c0-0.258,0.208-0.6,0.715-1.014c0.508-0.414,1.331-0.829,2.385-1.192C16.957,947.575,19.923,947.11,23.255,947.11L23.255,947.11z     " />
		</g>
	</g>
</g>
<g
   id="g49">
</g>
<g
   id="g51">
</g>
<g
   id="g53">
</g>
<g
   id="g55">
</g>
<g
   id="g57">
</g>
<g
   id="g59">
</g>
<g
   id="g61">
</g>
<g
   id="g63">
</g>
<g
   id="g65">
</g>
<g
   id="g67">
</g>
<g
   id="g69">
</g>
<g
   id="g71">
</g>
<g
   id="g73">
</g>
<g
   id="g75">
</g>
<g
   id="g77">
</g>
</svg>