<?xml version="1.0" encoding="utf-8"?>
<!-- Generator: Adobe Illustrator 22.0.1, SVG Export Plug-In . SVG Version: 6.00 Build 0)  -->
<svg version="1.1" id="Ebene_1" xmlns="http://www.w3.org/2000/svg" xmlns:xlink="http://www.w3.org/1999/xlink" x="0px" y="0px"
	 viewBox="0 0 301.2 300.5" style="enable-background:new 0 0 301.2 300.5;" xml:space="preserve">
<style type="text/css">
	.st0{fill:#EACD99;}
	.st1{clip-path:url(#SVGID_2_);}
	.st2{fill:#FFFFFF;}
	.st3{fill:none;stroke:#FFFFFF;stroke-width:1.5657;stroke-miterlimit:10;}
	.st4{enable-background:new    ;}
	.st5{fill:#3A3326;}
	.st6{fill:none;stroke:#C1272D;stroke-width:3.1314;stroke-miterlimit:10;}
	.st7{fill:#030303;stroke:#FFFFFF;stroke-width:0.5742;stroke-miterlimit:10;}
</style>
<path class="st0" d="M238.6,300.5H62.8c-34.3,0-62.4-28.1-62.4-62.4V62.4C0.4,28.1,28.5,0,62.8,0h175.8C272.9,0,301,28.1,301,62.4
	v175.8C300.9,272.5,272.9,300.5,238.6,300.5z"/>
<g>
	<g>
		<defs>
			<rect id="SVGID_1_" x="-11.1" y="6.2" width="286.2" height="174.5"/>
		</defs>
		<clipPath id="SVGID_2_">
			<use xlink:href="#SVGID_1_"  style="overflow:visible;"/>
		</clipPath>
		<g class="st1">
			<path class="st2" d="M76.7,180.8c0,0-0.1-47.2,16.3-75.7c24.5-42.6,57.5-50,57.5-50s0.2,0,0.3-0.1c0.2,0,0.3,0.1,0.3,0.1
				s33,7.4,57.5,50c16.4,28.6,16.3,75.7,16.3,75.7"/>
			<path class="st3" d="M57.3,197.3c0,0-0.1-59.6,20.6-95.6c30.9-53.8,72.6-63.2,72.6-63.2s0.2,0,0.4-0.1c0.2,0,0.4,0.1,0.4,0.1
				s41.7,9.4,72.6,63.2c20.7,36,20.6,95.6,20.6,95.6"/>
			<path class="st3" d="M41.4,210.8c0,0-0.1-69.7,24.1-111.9C101.7,36,150.4,25,150.4,25s0.2-0.1,0.5-0.1c0.2,0.1,0.5,0.1,0.5,0.1
				s48.7,11,84.9,73.9c24.3,42.2,24.1,111.9,24.1,111.9"/>
			<path class="st3" d="M37.6,214c0,0-0.1-72.1,25-115.7c37.5-65.1,87.9-76.5,87.9-76.5s0.2-0.1,0.5-0.1c0.2,0.1,0.5,0.1,0.5,0.1
				s50.4,11.4,87.9,76.5c25.1,43.6,25,115.7,25,115.7"/>
			<path class="st3" d="M33.1,217.8c0,0-0.1-75,26-120.3C98,29.9,150.4,18,150.4,18s0.2-0.1,0.5-0.1c0.2,0.1,0.5,0.1,0.5,0.1
				s52.4,11.8,91.4,79.5c26.1,45.4,26,120.3,26,120.3"/>
			<path class="st3" d="M28.9,221.4c0,0-0.1-77.6,26.9-124.6c40.3-70.1,94.6-82.3,94.6-82.3s0.3-0.1,0.5-0.1
				c0.3,0.1,0.5,0.1,0.5,0.1s54.3,12.2,94.6,82.3c27,47,26.9,123.6,26.9,123.6"/>
		</g>
	</g>
</g>
<g class="st4">
	<path class="st5" d="M39.1,228.9c1.9,1.1,4.8,2.1,7.8,2.1c3.8,0,5.9-1.8,5.9-4.4c0-2.4-1.6-3.9-5.8-5.4c-5.3-1.9-8.7-4.8-8.7-9.4
		c0-5.3,4.4-9.3,11.4-9.3c3.5,0,6.1,0.8,7.8,1.6l-1.4,4.8c-1.2-0.6-3.4-1.5-6.4-1.5c-3.7,0-5.4,2-5.4,3.9c0,2.5,1.9,3.6,6.2,5.3
		c5.6,2.1,8.4,4.9,8.4,9.6c0,5.2-3.9,9.7-12.3,9.7c-3.4,0-7-1-8.7-2L39.1,228.9z"/>
	<path class="st5" d="M81.4,234.6c-1.2,0.6-3.7,1.2-6.6,1.2c-7.3,0-12-4.7-12-11.9c0-7,4.8-12.5,13-12.5c2.2,0,4.4,0.5,5.7,1.1
		l-1.1,4.4c-1-0.4-2.4-0.9-4.5-0.9c-4.5,0-7.2,3.3-7.2,7.6c0,4.8,3.1,7.5,7.2,7.5c2.1,0,3.5-0.4,4.7-0.9L81.4,234.6z"/>
	<path class="st5" d="M85.8,201.2h6v13.9h0.1c0.7-1.1,1.7-2,2.9-2.7c1.2-0.7,2.5-1.1,4-1.1c4,0,8.2,2.6,8.2,10.1v13.8h-5.9v-13.1
		c0-3.4-1.2-6-4.5-6c-2.3,0-3.9,1.5-4.6,3.3c-0.2,0.5-0.2,1.1-0.2,1.8v14h-6V201.2z"/>
	<path class="st5" d="M116,211.9l2.4,10.6c0.5,2.5,1.1,5,1.5,7.6h0.1c0.5-2.5,1.2-5.1,1.9-7.5l3-10.7h4.8l2.9,10.4
		c0.7,2.7,1.3,5.3,1.9,7.8h0.1c0.4-2.5,0.9-5.1,1.5-7.8l2.6-10.4h5.8l-7.3,23.4h-5.5l-2.8-9.5c-0.7-2.4-1.2-4.7-1.8-7.5h-0.1
		c-0.5,2.9-1.1,5.2-1.8,7.5l-3,9.5h-5.5l-6.9-23.4H116z"/>
	<path class="st5" d="M152,225.3c0.1,4.2,3.5,6,7.2,6c2.7,0,4.7-0.4,6.5-1.1l0.9,4.1c-2,0.8-4.8,1.4-8.2,1.4c-7.6,0-12-4.7-12-11.8
		c0-6.5,3.9-12.6,11.4-12.6c7.6,0,10.1,6.2,10.1,11.4c0,1.1-0.1,2-0.2,2.5H152z M162.3,221.1c0-2.2-0.9-5.7-4.8-5.7
		c-3.6,0-5.2,3.3-5.4,5.7H162.3z"/>
	<path class="st5" d="M172.6,201.2h6v34.1h-6V201.2z"/>
	<path class="st5" d="M184.9,201.2h6v34.1h-6V201.2z"/>
	<path class="st5" d="M201.4,225.3c0.1,4.2,3.5,6,7.2,6c2.7,0,4.7-0.4,6.5-1.1l0.9,4.1c-2,0.8-4.8,1.4-8.2,1.4
		c-7.6,0-12-4.7-12-11.8c0-6.5,3.9-12.6,11.4-12.6c7.6,0,10.1,6.2,10.1,11.4c0,1.1-0.1,2-0.2,2.5H201.4z M211.7,221.1
		c0-2.2-0.9-5.7-4.8-5.7c-3.6,0-5.2,3.3-5.4,5.7H211.7z"/>
	<path class="st5" d="M222,218.9c0-2.7,0-4.9-0.2-7h5.2l0.3,3.5h0.1c1-1.8,3.6-4,7.4-4c4.1,0,8.3,2.6,8.3,10v13.9h-5.9v-13.2
		c0-3.4-1.2-5.9-4.5-5.9c-2.4,0-4,1.7-4.6,3.5c-0.2,0.5-0.2,1.2-0.2,1.9v13.7h-6V218.9z"/>
	<path class="st5" d="M260,220.5v4.1h-12.2v-4.1H260z"/>
</g>
<g class="st4">
	<path class="st5" d="M95.6,249.2h6v13.9h0.1c0.7-1.1,1.7-2,2.9-2.7c1.2-0.7,2.5-1.1,4-1.1c4,0,8.2,2.6,8.2,10.1v13.8h-5.9v-13.1
		c0-3.4-1.2-6-4.5-6c-2.3,0-3.9,1.5-4.6,3.3c-0.2,0.5-0.2,1.1-0.2,1.8v14h-6V249.2z"/>
	<path class="st5" d="M144,276.3c0,2.8,0.1,5.1,0.2,7H139l-0.3-3.6h-0.1c-1,1.7-3.3,4.1-7.5,4.1c-4.3,0-8.2-2.5-8.2-10.2v-13.7h5.9
		v12.7c0,3.9,1.2,6.4,4.4,6.4c2.4,0,3.9-1.7,4.5-3.2c0.2-0.5,0.3-1.2,0.3-1.8v-14.1h5.9V276.3z M126,253.3c0-1.7,1.3-3,3-3
		c1.6,0,2.8,1.2,2.8,3c0,1.6-1.2,2.9-2.9,2.9C127.2,256.3,126,254.9,126,253.3z M135.6,253.3c0-1.7,1.2-3,2.9-3s2.9,1.2,2.9,3
		c0,1.6-1.2,2.9-2.9,2.9C136.8,256.3,135.6,254.9,135.6,253.3z"/>
	<path class="st5" d="M157.2,253.3v6.7h5.6v4.4h-5.6v10.3c0,2.8,0.8,4.3,3,4.3c1,0,1.8-0.1,2.3-0.3l0.1,4.5
		c-0.9,0.3-2.4,0.6-4.3,0.6c-2.2,0-4-0.7-5.1-1.9c-1.2-1.3-1.8-3.5-1.8-6.5v-11h-3.4v-4.4h3.4v-5.3L157.2,253.3z"/>
	<path class="st5" d="M171.2,273.3c0.1,4.2,3.5,6,7.2,6c2.7,0,4.7-0.4,6.5-1.1l0.9,4.1c-2,0.8-4.8,1.4-8.2,1.4
		c-7.6,0-12-4.7-12-11.8c0-6.5,3.9-12.6,11.4-12.6c7.6,0,10.1,6.2,10.1,11.4c0,1.1-0.1,2-0.2,2.5H171.2z M181.4,269.1
		c0-2.2-0.9-5.7-4.8-5.7c-3.6,0-5.2,3.3-5.4,5.7H181.4z"/>
	<path class="st5" d="M191.7,267.5c0-3.2,0-5.4-0.2-7.5h5.1l0.2,4.5h0.2c1.2-3.3,3.9-5,6.4-5c0.6,0,0.9,0,1.4,0.1v5.6
		c-0.5-0.1-1-0.2-1.7-0.2c-2.8,0-4.8,1.8-5.3,4.5c-0.1,0.5-0.2,1.2-0.2,1.8v12.1h-5.9V267.5z"/>
</g>
<line class="st6" x1="22.5" y1="180.2" x2="280.6" y2="180.2"/>
<g>
	<path class="st7" d="M158,194c6.3-1.7,13.3-4.4,19.8-10.9c5-6.4,4-16.9-0.8-23.7c-0.5-0.7-0.9-1.3-1-2.2c-0.6-3.1-1.5-6.2-2.6-9.1
		c-2.2-5.7-6-10.1-11.3-13c-4.8-2.7-10.6-1.3-12.9,2.9c-0.4,0.8-0.6,0.2-0.8-0.1c-1.1-2.1-2.1-4.2-3.3-6.3c-0.9-1.7-1.9-3.3-3.4-4.4
		c-1.1-0.8-2.2-1.3-3.6-0.5c-0.1,0-0.3,0.1-0.4,0c-0.1-0.1,0-0.2,0.2-0.3c0.6-1.4,1.3-2.7,1.7-4.2c0-0.2-0.1-0.5,0.2-0.4
		c0.1,0,0.2,0.4,0.2,0.5c0,0.4,0,0.8-0.2,1.1c-0.8,1.4-1,2.3,1.1,2.2c0.5,0,1,0.6,1.5,0.9c1,0.9,1.8,2,2.5,3.2
		c1.1,2,2.2,3.9,3.4,5.9c0.3,0.6,0.5,1.2,1.2,0.2c1.9-2.7,4.6-3.5,7.8-3c4.3,0.7,7.7,3,10.9,5.8c0.5,0.4,1.1,1.5,1.5,1.2
		c0.6-0.5-0.1-1.4-0.3-2.1c-2.1-5.3-5.1-10.1-8.4-14.8c-0.1-0.2-0.3-0.3-0.4-0.5c-1.1-1.4-2.3-2.7-3.4-4.1c-0.2-0.1-0.4-0.2-0.2-0.4
		c0,0,0.2,0,0.4,0.1c1.3,1.2,2.5,2.6,3.6,4.1c0.1,0.2,0.3,0.3,0.4,0.5c2.2,2.4,3.9,5.2,5.6,7.9c3,4.9,5.1,10.2,7.2,15.4
		c0.3,0.8,0.6,1.6,1.4,2.1c0.4-0.8,0.1-1.5,0.1-2.3c0.1-3.7,2-5.5,5.7-5.4c1.5,0,3,0.4,4.4,0.8c0.8,0.3,1.1,0.2,0.7-0.7
		c-0.7-2.1-1.3-4.3-2.1-6.4c-3.6-10.5-8.4-20.2-16.1-28.4c-0.2-0.2-0.7-0.4-0.3-0.7c0.4-0.3,0.7,0.2,0.9,0.4
		c3.8,3.6,7.3,7.4,9.8,12.1c3.1,6.1,5.9,12.4,8,19c2,6.1,3.5,12.4,3.6,18.9c0,1.8,0.5,3.5,1.4,5.1c0.2,0.3,0.2,0.7,0.7,0.8
		c0-0.3,0.1-0.6,0.1-0.9c-0.1-4.4,1.2-8.6,1.7-12.9c0.4-3.4,2.4-4.8,5.8-4.8c6.6,0.1,11.6,3.1,15.1,8.6c0.1,0.2,0.1,0.7,0.6,0.6
		c0.1,0,0.1-0.5,0.1-0.8c-0.6-2.5-1.3-4.9-3-7c-7.2-8.9-15.2-17.2-23.2-25.4c-6.6-6.7-13.8-12.4-22.5-16.3c-0.7-0.3-1.2-0.9-2.1-0.8
		c0.5,0.5,1,1,1.5,1.6c0.2,0.3,0.8,0.5,0.5,0.9c-0.4,0.5-0.7-0.2-1-0.4c-5.8-5-12.5-7.1-20.2-7.1s-15.2,1.7-22.8,1.7
		c-1.2,0-2.1,0.7-2.5,2c-0.1,0.2-0.3,0.6-0.4,0.6c-0.3-0.1-0.2-0.4-0.2-0.6c0.1-0.9-0.4-1-1.1-1.1c-4-0.4-6.9,1.2-9.1,5.1
		c-0.1,0.2-0.5,0.5-0.3,0.8c0.3,0.3,0.6-0.1,0.8-0.2c2.1-1.5,4.3-1.9,6.8-0.8c1.3,0.6,2.9,0.6,4.1-0.2c1.2-0.9,1.7-0.2,2.3,0.5
		c4.1,4.5,7.6,9.5,11.1,14.4c0.2,0.3,0.4,0.8,0.5,1.2c0.1,0.2,0,0.7-0.3,0.4c-0.9-0.8-1,0.2-1.2,0.6c-1.9,2.5-3.9,4.9-6.4,6.8
		c-0.1,0.1-0.3,0.2-0.4,0.3c0,0.2-0.1,0.3-0.3,0.2c0,0,0-0.3,0.1-0.4s0.2-0.2,0.2-0.3c1.8-2,3.6-4,5.4-6c0.4-0.5,0.9-0.9,0.4-1.7
		c-0.5-0.7-1.1-1-1.9-0.9c-0.7,0.1-1.3,0.5-1.9,0.9c-1.3,0.8-2.7,1.1-4.1,0.4c-1.3-0.6-2.5-0.3-3.2,0.9c-1.1,1.6-2.3,2.1-4.3,1.5
		c-1.3-0.4-3.5,1.1-3.2,2.4c0.2,1-0.2,1-0.7,1.2c-3.2,1.2-4.9,3.5-5.2,6.9c-0.1,1-0.3,1.9-0.4,2.9c-0.6,5.4-1.7,10.6-6.4,14.1
		c-0.9,0.7-0.5,1.8-0.4,2.5c0.1,0.5,1,0.3,1.6,0.2c0.5,0.2,0.3,0.7,0.2,0.8c-0.9,0.3-1.8-0.1-2.7-0.2c0,0-0.1-0.2-0.1-0.3
		c0.9-1.8-0.3-3.5-0.4-5.2c-0.1-2.3-1-4.6-2.5-6.5c-0.2-0.2-0.4-0.6-0.8-0.5c-0.4,0.2,0,0.5,0,0.8c0.5,2.2,0.5,4.5,0.4,6.7
		c0,1.6-0.7,3.2-1.1,4.9c0,0.2-0.3,0.3-0.4,0.4c0-0.1-0.1-0.2-0.1-0.4c0.2-1.3-0.5-2.5-0.7-3.8c-0.3-1.3-0.6-2.7-1.4-3.9
		c-0.2-0.2-0.3-0.7-0.7-0.5c-0.4,0.1-0.2,0.6-0.1,0.8c0.4,1.8,0.5,3.5,0.4,5.3c-0.1,1.6,0,3.2-1,4.6c-0.9,1.3-0.8,3,0,3.7
		c1.7,1.5,2.8,1.6,4.7,0.5c0.6-0.3,1.2-0.8,1.8-1.1c0.2-0.1,0.5-0.5,0.6-0.1c0.1,0.6,0.1,1.2,0,1.8c-0.1,0.5-0.6,0.6-0.9,0.5
		c-1.6-0.6-3.2,0.4-4.8,0.2c-1-0.1-1.7,0.5-2,1.4c-0.1,0.4,0.1,0.5-0.5,0.4c-1-0.1-1.7,0.6-2.4,1c0,0.4,0,0.9,0,1.3
		c0.6,0.5,1.9-0.1,1.9,0.8c0.1,2.3,2.1,2.6,3.5,3.6c0.5,0.4,0.4-0.1,0.4-0.4c0.2-2.2,0.2-2.2,2.2-1.6c1.4,0.4,2.8,0.8,4.1,1.3
		c0.5,0.2,1,0.8,0.7,1c-1.4,0.8-1.6,3.3-3.9,2.8c-0.3-0.1-0.6,0.1-0.3,0.4c1,0.6,1.4,1.9,2.6,2.2c0.8,0.2,1.6,0.5,2,1.2
		s0.6,0.4,0.8-0.1c0.2-0.4,0.4-0.9,0.4-1.4c0.1-1.6,0.9-2.7,2.1-3.6c1.7-1.3,3.6-2.4,5.5-3.3c0.8-0.4,1.5-0.7,0.5-1.7
		c-0.6-0.6-0.9-1.5-0.8-2.4c0.2-2.4,0.6-4.7,0.9-7c0-0.2,0-0.5,0.3-0.5c0.4,0,0.3,0.4,0.2,0.6c-0.3,1.8-0.6,3.5-0.6,5.3
		c0,0.5-0.4,1.2,0.1,1.5s0.9-0.4,1.3-0.7c3.1-2.2,6.3-4.3,10.2-4.9c1-0.2,2.4,0.3,2.7-0.5c0.3-0.7-0.6-1.8-1-2.8
		c0-0.3-1.5-3-1.1-3.2c0.5-0.4,1.4,2.7,1.5,2.9c1.8,3.3,3.9,6.3,6.9,8.6c0.5,0.4,0.4,0.5-0.2,0.6c-0.4,0.1-0.3,0.3-0.4,0.6
		c-0.1,0.7-0.2,1.5-0.3,2.2c-0.2,3.7,0.4,7.5-0.4,11.1c-0.9,4.1,0.8,7.2,2.9,10.3c0.9,1.3,3.8,1.8,5,1.6c1.5-0.3,1.4-2.4,1.4-2.4
		l-1.9-0.1h-0.2l-1.7-1.2c-0.3-0.1-0.8-9.1,0.9-13.1c1.2-3,1.9-6.2,2.2-9.4c0.2-2.1-0.6-4-1.8-5.5c-3-3.7-5.8-7.5-8.2-11.5
		c-0.7-1.1-0.8-2.4-1.7-3.5c-0.7-0.9-1.3-2-2.5-2.3c-1.1-0.3-1.2-1-1-1.8c0.8-2.7,3-4.1,5.2-5.5c1.7-1,3.3-0.5,4.7,0.5
		c4.1,2.6,8.8,4,13.2,6c4.3,2,8.3,4.6,11.7,7.9c1.2,1.1,2.2,2.3,4,2.4c0.2,0,0.5,0.2,0.5,0.3c0,0.4-0.4,0.2-0.6,0.2
		c-0.2,0-0.5,0.1-0.7,0.1c0.1,0.2,0.3,0.4,0.4,0.6c0.6,0.9,1.3,1.7,1.9,2.6c0.1,0.2,0.5,0.4,0.2,0.7s-0.4-0.2-0.6-0.3
		c-4.1-5.5-9.7-9.2-15.6-12.5c-2.2-1.2-4.4-2.2-6.7-3.1c-2.7-1-5.4-2.1-7.7-3.8c-2.7-2-6.5-0.7-8.6,2.7c-1,1.6-1,1.7,0.8,2.4
		c0.7,0.3,1.2,0.9,1.6,1.5c1.5,2.5,2.9,5,4.4,7.5c3.4,5.6,7.9,10.2,13.5,13.7c0.9,0.5,1.7,1.1,2.6,1.7c1,0.7,2.8,1.5,2.8,2.2
		c0,1.6,0.4,3.2,0,4.7c-0.2,0.8-0.2,1.7-0.3,2.5c-0.4,2-0.8,2.4-2.7,2c-1.7-0.4-3.4-0.2-5.1-0.5c-1.5-0.3-2.5,1.5-2.9,3l14.8,0.1
		c1.3-0.2,2.3-1,2.2-2.4c-0.1-1.6,0.9-1.2,1.7-1.1c0.4,0,0.7,0.3,1,0.4c0.3,0.1,0.6,0.4,0.8,0c0.2-0.3,0-0.6-0.3-0.8
		c-0.7-0.8-1.3-1.7-2.5-2c-0.9-0.2-1.1-0.8-1.2-1.6c-0.1-2.1-0.4-4.1-0.5-6.2c-0.1-0.9-0.4-1.5-1.2-2c-2-1.2-3.5-2.8-4.9-4.7
		c-0.8-1.1-1.7-1.9-2.9-2.5c-0.7-0.4-1.5-0.6-2-1.3c0.9-0.2,1.5,0.5,2.3,0.6c0.1-0.1,0.2-0.2,0.3-0.3c-2-3.4-4.3-6.5-8.1-8
		c-0.6-0.2-1.1-0.5-1.7-0.8c0.7-0.3,1.4-0.1,2.1,0.2c4,1.7,6.7,4.7,8.7,8.5c1.4,2.7,3.2,5.2,5.7,6.9c1.9,1.3,2.8,2.8,2.8,5
		c0,1,0.3,1.7,1.7,1.7c1.3-0.1,2.5,0.3,3.8,0.4c3.4,0.3,3.6-2.9,6.9,0.2c1.8,1.7,2.8,3,2.2,6.9c-1.9,12.6-24.5,11-31.7,21.3
		c-2.7,4.3-2.2,11.3,0.6,15c0.1,0.2,0.2,0.6,0.6,0.4c0.1-0.1-3.6-6.6,0.1-11.5C143.6,196.7,150.2,196.1,158,194z M155.1,115.8
		L155.1,115.8L155.1,115.8c0.6,0,0.1,0.5,0.2,0.7c0.3,0.5,0.8,0.8,1.2,1.2l0.2-0.1c-0.1-0.6-0.6-0.8-0.9-1.2
		C155.6,116.3,155.1,116.4,155.1,115.8z M115,141.9c-0.1,0.7,0.1,1.3,0.3,1.9c0.8,2.3,2.5,3.9,4.4,5.2c1.3,0.9,2.5,1.9,3,3.5
		c0.1,0.2,0.2,0.3,0.3,0.5c0-0.2,0.1-0.4,0.1-0.6c-0.1-1.2-0.4-2.3-1.7-3c-0.6-0.3-1-0.8-1.5-1.2c-3.6-3-5.8-6.2-2-11.5
		c0.1-0.2,0.5-0.4,0.2-0.6c-0.3-0.3-0.6,0.1-0.8,0.3C115.9,137.9,115.1,139.7,115,141.9z M135.1,101.3c-1.7,0.2-3.1,0.5-4.5,0.6
		c-1,0.1-0.9,0.4-0.4,1.1c1,1.4,2,2.9,3,4.4c0.1,0.2,0.1,0.4,0.4,0.2c0.1,0,0-0.3,0-0.4c-0.1-0.3-0.2-0.7-0.4-1
		c-0.5-1-1.8-2.2-1.4-3.1c0.4-1.1,2.1-1,3.2-1.2c0.2,0,0.5,0,0.4-0.3C135.3,101.2,135,101.3,135.1,101.3z M134.5,130.5
		c1.2-0.2,1.7-1.1,2.2-2c0-0.1,0-0.2,0-0.3c-0.7,0.2-1,0.9-1.5,1.2c-0.3,0.2-0.5,0.4-0.8,0.6c-0.1,0.1-0.2,0.2-0.3,0.3
		C134.3,130.4,134.4,130.4,134.5,130.5z"/>
</g>
<path class="st2" d="M230.6,269.1"/>
</svg>
