<?xml version="1.0" encoding="utf-8"?>
<!-- Generator: Adobe Illustrator 16.0.3, SVG Export Plug-In . SVG Version: 6.00 Build 0)  -->
<!DOCTYPE svg PUBLIC "-//W3C//DTD SVG 1.1//EN" "http://www.w3.org/Graphics/SVG/1.1/DTD/svg11.dtd">
<svg version="1.1" id="Layer_1" xmlns="http://www.w3.org/2000/svg" xmlns:xlink="http://www.w3.org/1999/xlink" x="0px" y="0px"
	 width="500px" height="500.016px" viewBox="0 0 500 500.016" enable-background="new 0 0 500 500.016" xml:space="preserve">
<rect id="_Path_" y="-0.01" fill="#4C9F38" width="500" height="500.017"/>
<g>
	<path fill="#FFFFFF" d="M164.756,84.305c-0.743,0-1.23-0.615-1.465-1.846c0-0.019-0.137-0.786-0.41-2.3
		c-0.274-1.513-0.41-2.377-0.41-2.593c0-0.195-0.029-0.293-0.088-0.293s-0.117,0.088-0.176,0.264
		c-0.333,2.188-1.05,3.857-2.153,5.01c-1.104,1.153-2.563,1.729-4.38,1.729c-0.879,0-1.68-0.059-2.402-0.176
		c-0.723-0.117-1.49-0.366-2.3-0.747c-0.811-0.381-1.528-0.883-2.153-1.509c-0.625-0.625-1.235-1.484-1.831-2.578
		c-0.596-1.094-1.084-2.377-1.465-3.853c-0.381-1.475-0.688-3.286-0.923-5.435c-0.234-2.148-0.352-4.56-0.352-7.236
		c0-2.773,0.142-5.254,0.425-7.441c0.283-2.187,0.654-4.023,1.113-5.508c0.458-1.484,1.05-2.764,1.772-3.838
		c0.722-1.074,1.45-1.909,2.183-2.505c0.732-0.596,1.606-1.064,2.622-1.406c1.015-0.341,1.943-0.561,2.783-0.659
		c0.839-0.098,1.816-0.146,2.93-0.146c0.82,0,1.714,0.107,2.681,0.322c0.967,0.215,1.733,0.45,2.3,0.703
		c0.019,0.02,0.063,0.049,0.132,0.088c0.068,0.04,0.122,0.093,0.161,0.161c0.039,0.069,0.059,0.171,0.059,0.308v3.604
		c0,0.274-0.078,0.41-0.234,0.41c-0.02,0-0.132-0.029-0.337-0.088s-0.479-0.132-0.82-0.22c-0.342-0.088-0.713-0.171-1.113-0.249
		c-0.4-0.078-0.825-0.146-1.274-0.205c-0.45-0.059-0.86-0.088-1.23-0.088c-1.036,0-1.924,0.103-2.666,0.308
		c-0.743,0.205-1.494,0.645-2.256,1.318s-1.377,1.607-1.846,2.798c-0.469,1.191-0.85,2.823-1.143,4.893
		c-0.293,2.07-0.439,4.551-0.439,7.441c0,2.735,0.107,5.112,0.322,7.134c0.215,2.021,0.498,3.647,0.85,4.878
		s0.806,2.217,1.362,2.959c0.557,0.743,1.123,1.245,1.699,1.509c0.576,0.264,1.245,0.396,2.007,0.396
		c0.898,0,1.645-0.264,2.241-0.791c0.596-0.527,1.044-1.337,1.348-2.432c0.303-1.094,0.508-2.295,0.615-3.604
		c0.107-1.308,0.161-2.939,0.161-4.893c0-0.879-0.088-1.318-0.264-1.318h-3.311c-0.176,0-0.318-0.024-0.425-0.073
		c-0.107-0.048-0.205-0.171-0.293-0.366c-0.088-0.195-0.132-0.469-0.132-0.82v-2.402c0-0.527,0.073-0.874,0.22-1.04
		c0.146-0.166,0.347-0.249,0.601-0.249h7.881c0.508,0,0.762,0.605,0.762,1.816v18.896c0,0.586-0.098,1.06-0.293,1.421
		C165.206,84.124,164.991,84.305,164.756,84.305z"/>
	<path fill="#FFFFFF" d="M172.11,83.836c-0.254,0-0.439-0.073-0.557-0.22s-0.176-0.483-0.176-1.011V42.938
		c0-0.508,0.059-0.839,0.176-0.996c0.117-0.156,0.303-0.234,0.557-0.234h15.41c0.156,0,0.283,0.02,0.381,0.059
		c0.098,0.04,0.18,0.146,0.249,0.322c0.068,0.176,0.103,0.439,0.103,0.791v2.314c0,0.488-0.059,0.806-0.176,0.952
		s-0.303,0.22-0.557,0.22H177.5c-0.234,0-0.352,0.322-0.352,0.967v11.836c0,0.176,0.034,0.352,0.103,0.527
		c0.068,0.176,0.132,0.264,0.19,0.264h8.057c0.488,0,0.732,0.45,0.732,1.348v2.256c0,0.898-0.245,1.348-0.732,1.348h-8.027
		c-0.078,0-0.151,0.098-0.22,0.293c-0.069,0.195-0.103,0.391-0.103,0.586v13.389h10.459c0.176,0,0.312,0.02,0.41,0.059
		c0.098,0.04,0.18,0.146,0.249,0.322c0.068,0.176,0.103,0.439,0.103,0.791v2.314c0,0.488-0.063,0.806-0.19,0.952
		c-0.127,0.146-0.318,0.22-0.571,0.22H172.11z"/>
	<path fill="#FFFFFF" d="M201.934,41.239c3.672,0,6.533,1.338,8.584,4.014c0.195,0.254,0.293,0.557,0.293,0.908
		c0,0.684-0.289,1.406-0.864,2.168c-0.576,0.762-1.06,1.143-1.45,1.143c-0.117,0-0.205-0.039-0.264-0.117
		c-1.739-2.109-3.809-3.164-6.211-3.164c-1.348,0-2.432,0.571-3.252,1.714s-1.23,2.534-1.23,4.175c0,1.543,0.352,2.803,1.055,3.779
		c0.703,0.977,1.709,1.885,3.018,2.725l3.721,2.402c3.926,2.539,5.889,6.25,5.889,11.133c0,3.574-0.908,6.494-2.725,8.76
		c-1.816,2.266-4.258,3.398-7.324,3.398c-4.141,0-7.402-1.787-9.785-5.361c-0.117-0.176-0.176-0.4-0.176-0.674
		c0-0.684,0.278-1.431,0.835-2.241c0.557-0.81,1.088-1.216,1.597-1.216c0.195,0,0.371,0.088,0.527,0.264
		c2.187,2.793,4.521,4.189,7.002,4.189c1.523,0,2.714-0.59,3.574-1.772c0.859-1.182,1.289-2.681,1.289-4.497
		c0-1.641-0.342-2.974-1.025-3.999c-0.684-1.025-1.729-1.997-3.135-2.915l-3.75-2.52c-0.82-0.546-1.534-1.113-2.139-1.699
		c-0.605-0.586-1.187-1.293-1.743-2.124c-0.557-0.83-0.986-1.806-1.289-2.93c-0.303-1.123-0.454-2.358-0.454-3.706
		c0-3.516,0.854-6.367,2.563-8.555C196.773,42.333,199.063,41.239,201.934,41.239z"/>
	<path fill="#FFFFFF" d="M226.807,84.276c-1.055,0-1.963-0.044-2.725-0.132s-1.553-0.274-2.373-0.557s-1.514-0.678-2.08-1.187
		c-0.567-0.508-1.118-1.196-1.655-2.065c-0.538-0.869-0.962-1.919-1.274-3.149c-0.313-1.23-0.562-2.714-0.747-4.453
		c-0.186-1.738-0.278-3.73-0.278-5.977V43.084c0-0.566,0.063-0.938,0.19-1.113c0.127-0.176,0.317-0.264,0.571-0.264h4.307
		c0.156,0,0.283,0.025,0.381,0.073c0.098,0.049,0.18,0.181,0.249,0.396c0.068,0.215,0.103,0.518,0.103,0.908V66.58
		c0,2.305,0.068,4.238,0.205,5.801c0.136,1.563,0.332,2.823,0.586,3.779c0.253,0.957,0.61,1.685,1.069,2.183
		c0.458,0.498,0.942,0.831,1.45,0.996c0.508,0.166,1.172,0.249,1.992,0.249c1.035,0,1.835-0.117,2.402-0.352
		c0.566-0.234,1.084-0.791,1.553-1.67s0.786-2.187,0.952-3.926c0.166-1.738,0.249-4.091,0.249-7.061V43.084
		c0-0.586,0.059-0.962,0.176-1.128c0.117-0.166,0.303-0.249,0.557-0.249h4.336c0.156,0,0.278,0.025,0.366,0.073
		c0.088,0.049,0.166,0.181,0.234,0.396c0.068,0.215,0.103,0.518,0.103,0.908v23.672c0,2.266-0.093,4.282-0.278,6.05
		c-0.186,1.768-0.435,3.262-0.747,4.482c-0.313,1.221-0.737,2.261-1.274,3.12c-0.538,0.86-1.084,1.538-1.641,2.036
		s-1.241,0.889-2.051,1.172c-0.811,0.283-1.578,0.464-2.3,0.542C228.692,84.236,227.822,84.276,226.807,84.276z"/>
	<path fill="#FFFFFF" d="M244.825,83.836c-0.254,0-0.444-0.098-0.571-0.293c-0.127-0.195-0.19-0.586-0.19-1.172V43.26
		c0-1.035,0.253-1.553,0.762-1.553h4.453c0.41,0,0.762,0.381,1.055,1.143l9.931,26.689c0.039,0.137,0.098,0.098,0.176-0.117
		l0.029-0.264V43.26c0-1.035,0.264-1.553,0.791-1.553h3.486c0.488,0,0.732,0.518,0.732,1.553v39.229
		c0,0.586-0.059,0.962-0.176,1.128c-0.117,0.166-0.303,0.249-0.557,0.249h-3.164c-0.195,0-0.405-0.117-0.629-0.352
		c-0.225-0.234-0.406-0.527-0.543-0.879l-11.044-28.828c-0.078-0.156-0.137-0.107-0.176,0.146c-0.02,0.059-0.029,0.127-0.029,0.205
		v28.213c0,0.586-0.063,0.977-0.19,1.172c-0.127,0.195-0.327,0.293-0.601,0.293H244.825z"/>
	<path fill="#FFFFFF" d="M272.979,83.836c-0.254,0-0.439-0.078-0.557-0.234c-0.117-0.156-0.176-0.508-0.176-1.055V42.879
		c0-0.488,0.059-0.806,0.176-0.952s0.303-0.22,0.557-0.22h10.078c1.719,0,3.209,0.342,4.469,1.025
		c1.26,0.684,2.367,1.807,3.324,3.369c0.957,1.563,1.675,3.706,2.154,6.431c0.479,2.725,0.717,6.04,0.717,9.946
		c0,2.773-0.088,5.22-0.264,7.339c-0.176,2.12-0.405,3.936-0.688,5.449c-0.283,1.514-0.689,2.793-1.217,3.838
		c-0.527,1.045-1.074,1.875-1.641,2.49s-1.279,1.089-2.139,1.421c-0.859,0.333-1.694,0.552-2.504,0.659
		c-0.811,0.107-1.813,0.161-3.004,0.161H272.979z M278.398,79.178h3.604c1.504,0,2.666-0.449,3.486-1.348
		c0.82-0.898,1.432-2.544,1.832-4.937c0.399-2.392,0.6-5.834,0.6-10.327c0-4.16-0.229-7.451-0.688-9.873
		c-0.459-2.421-1.09-4.082-1.891-4.98c-0.801-0.898-1.846-1.348-3.135-1.348h-3.838c-0.234,0-0.352,0.215-0.352,0.645v31.523
		C278.018,78.963,278.145,79.178,278.398,79.178z"/>
	<path fill="#FFFFFF" d="M300.4,83.836c-0.273,0-0.469-0.083-0.586-0.249c-0.117-0.166-0.176-0.542-0.176-1.128V43.084
		c0-0.586,0.059-0.962,0.176-1.128c0.117-0.166,0.313-0.249,0.586-0.249h4.248c0.273,0,0.469,0.083,0.586,0.249
		c0.117,0.166,0.176,0.542,0.176,1.128V58.67c0,0.176,0.034,0.333,0.104,0.469c0.068,0.137,0.131,0.205,0.189,0.205h8.789
		c0.059,0,0.127-0.073,0.205-0.22s0.117-0.308,0.117-0.483V43.084c0-0.566,0.063-0.938,0.191-1.113
		c0.127-0.176,0.316-0.264,0.57-0.264h4.307c0.254,0,0.439,0.083,0.557,0.249c0.117,0.166,0.176,0.542,0.176,1.128v39.375
		c0,0.586-0.059,0.962-0.176,1.128c-0.117,0.166-0.303,0.249-0.557,0.249h-4.307c-0.176,0-0.313-0.024-0.41-0.073
		c-0.098-0.048-0.186-0.18-0.264-0.396c-0.078-0.215-0.117-0.517-0.117-0.908v-17.9c0-0.41-0.107-0.615-0.322-0.615h-8.701
		c-0.195,0-0.293,0.205-0.293,0.615v17.9c0,0.567-0.063,0.938-0.189,1.113c-0.128,0.176-0.318,0.264-0.572,0.264H300.4z"/>
	<path fill="#FFFFFF" d="M328.115,83.836c-0.254,0-0.439-0.073-0.557-0.22s-0.176-0.483-0.176-1.011V42.938
		c0-0.508,0.059-0.839,0.176-0.996c0.117-0.156,0.303-0.234,0.557-0.234h15.41c0.156,0,0.283,0.02,0.381,0.059
		c0.098,0.04,0.181,0.146,0.25,0.322c0.068,0.176,0.102,0.439,0.102,0.791v2.314c0,0.488-0.059,0.806-0.176,0.952
		s-0.303,0.22-0.557,0.22h-10.02c-0.234,0-0.352,0.322-0.352,0.967v11.836c0,0.176,0.034,0.352,0.104,0.527
		c0.068,0.176,0.131,0.264,0.189,0.264h8.057c0.488,0,0.732,0.45,0.732,1.348v2.256c0,0.898-0.244,1.348-0.732,1.348h-8.027
		c-0.078,0-0.15,0.098-0.219,0.293c-0.069,0.195-0.104,0.391-0.104,0.586v13.389h10.459c0.176,0,0.313,0.02,0.41,0.059
		c0.098,0.04,0.181,0.146,0.25,0.322c0.068,0.176,0.102,0.439,0.102,0.791v2.314c0,0.488-0.063,0.806-0.189,0.952
		c-0.128,0.146-0.318,0.22-0.572,0.22H328.115z"/>
	<path fill="#FFFFFF" d="M350.205,83.836c-0.176,0-0.313-0.024-0.41-0.073c-0.098-0.048-0.18-0.18-0.248-0.396
		c-0.069-0.215-0.104-0.517-0.104-0.908V43.084c0-0.566,0.063-0.938,0.191-1.113c0.127-0.176,0.316-0.264,0.57-0.264h4.307
		c0.156,0,0.283,0.025,0.381,0.073c0.098,0.049,0.181,0.181,0.25,0.396c0.068,0.215,0.102,0.518,0.102,0.908v39.375
		c0,0.567-0.059,0.938-0.176,1.113s-0.303,0.264-0.557,0.264H350.205z"/>
	<path fill="#FFFFFF" d="M366.23,83.836c-0.234,0-0.414-0.092-0.541-0.278c-0.128-0.186-0.191-0.561-0.191-1.128V47.156
		c0-0.488-0.107-0.732-0.322-0.732h-5.098c-0.195,0-0.336-0.015-0.424-0.044s-0.166-0.127-0.234-0.293
		c-0.069-0.166-0.104-0.425-0.104-0.776v-2.314c0-0.527,0.059-0.874,0.176-1.04c0.117-0.166,0.313-0.249,0.586-0.249h16.553
		c0.254,0,0.439,0.083,0.557,0.249c0.117,0.166,0.176,0.513,0.176,1.04v2.314c0,0.488-0.054,0.796-0.16,0.923
		c-0.107,0.127-0.299,0.19-0.572,0.19h-5.01c-0.215,0-0.322,0.245-0.322,0.732V82.43c0,0.586-0.063,0.967-0.189,1.143
		c-0.128,0.176-0.318,0.264-0.572,0.264H366.23z"/>
	<path fill="#FFFFFF" d="M399.775,84.276c-1.055,0-1.963-0.044-2.725-0.132s-1.553-0.274-2.373-0.557s-1.514-0.678-2.08-1.187
		c-0.566-0.508-1.117-1.196-1.654-2.065c-0.538-0.869-0.963-1.919-1.275-3.149s-0.561-2.714-0.746-4.453
		c-0.187-1.738-0.279-3.73-0.279-5.977V43.084c0-0.566,0.063-0.938,0.191-1.113c0.127-0.176,0.316-0.264,0.57-0.264h4.307
		c0.156,0,0.283,0.025,0.381,0.073c0.098,0.049,0.181,0.181,0.25,0.396c0.068,0.215,0.102,0.518,0.102,0.908V66.58
		c0,2.305,0.068,4.238,0.205,5.801c0.137,1.563,0.332,2.823,0.586,3.779c0.254,0.957,0.611,1.685,1.07,2.183
		c0.458,0.498,0.941,0.831,1.449,0.996c0.508,0.166,1.172,0.249,1.992,0.249c1.035,0,1.836-0.117,2.402-0.352
		s1.084-0.791,1.553-1.67s0.787-2.187,0.953-3.926c0.165-1.738,0.248-4.091,0.248-7.061V43.084c0-0.586,0.059-0.962,0.176-1.128
		c0.117-0.166,0.303-0.249,0.557-0.249h4.336c0.156,0,0.279,0.025,0.367,0.073c0.088,0.049,0.165,0.181,0.234,0.396
		c0.068,0.215,0.102,0.518,0.102,0.908v23.672c0,2.266-0.092,4.282-0.277,6.05c-0.187,1.768-0.436,3.262-0.748,4.482
		c-0.313,1.221-0.736,2.261-1.273,3.12c-0.538,0.86-1.084,1.538-1.641,2.036s-1.241,0.889-2.051,1.172
		c-0.811,0.283-1.578,0.464-2.301,0.542C401.66,84.236,400.791,84.276,399.775,84.276z"/>
	<path fill="#FFFFFF" d="M417.793,83.836c-0.254,0-0.443-0.098-0.57-0.293c-0.128-0.195-0.191-0.586-0.191-1.172V43.26
		c0-1.035,0.254-1.553,0.762-1.553h4.453c0.41,0,0.762,0.381,1.055,1.143l9.932,26.689c0.039,0.137,0.098,0.098,0.176-0.117
		l0.029-0.264V43.26c0-1.035,0.264-1.553,0.791-1.553h3.486c0.488,0,0.732,0.518,0.732,1.553v39.229
		c0,0.586-0.059,0.962-0.176,1.128c-0.117,0.166-0.303,0.249-0.557,0.249h-3.164c-0.195,0-0.405-0.117-0.629-0.352
		c-0.225-0.234-0.406-0.527-0.543-0.879l-11.045-28.828c-0.078-0.156-0.137-0.107-0.176,0.146c-0.02,0.059-0.029,0.127-0.029,0.205
		v28.213c0,0.586-0.063,0.977-0.189,1.172c-0.128,0.195-0.328,0.293-0.602,0.293H417.793z"/>
	<path fill="#FFFFFF" d="M445.947,83.836c-0.254,0-0.439-0.078-0.557-0.234c-0.117-0.156-0.176-0.508-0.176-1.055V42.879
		c0-0.488,0.059-0.806,0.176-0.952s0.303-0.22,0.557-0.22h10.078c1.719,0,3.209,0.342,4.469,1.025
		c1.26,0.684,2.367,1.807,3.324,3.369c0.957,1.563,1.675,3.706,2.154,6.431c0.479,2.725,0.717,6.04,0.717,9.946
		c0,2.773-0.088,5.22-0.264,7.339c-0.176,2.12-0.405,3.936-0.688,5.449c-0.283,1.514-0.689,2.793-1.217,3.838
		c-0.527,1.045-1.074,1.875-1.641,2.49s-1.279,1.089-2.139,1.421c-0.859,0.333-1.694,0.552-2.504,0.659
		c-0.811,0.107-1.813,0.161-3.004,0.161H445.947z M451.367,79.178h3.604c1.504,0,2.666-0.449,3.486-1.348
		c0.82-0.898,1.432-2.544,1.832-4.937c0.399-2.392,0.6-5.834,0.6-10.327c0-4.16-0.229-7.451-0.688-9.873
		c-0.459-2.421-1.09-4.082-1.891-4.98c-0.801-0.898-1.846-1.348-3.135-1.348h-3.838c-0.234,0-0.352,0.215-0.352,0.645v31.523
		C450.986,78.963,451.113,79.178,451.367,79.178z"/>
	<path fill="#FFFFFF" d="M149.522,143.836c-0.508-0.039-0.86-0.713-1.055-2.021l-5.303-38.086c-0.04-0.195-0.059-0.469-0.059-0.82
		c0-0.801,0.156-1.201,0.469-1.201h3.838c0.234,0,0.449,0.186,0.645,0.557c0.195,0.371,0.332,0.869,0.41,1.494l3.252,27.803
		l3.955-27.715c0.078-0.605,0.22-1.069,0.425-1.392s0.425-0.483,0.659-0.483h3.164c0.508,0.059,0.85,0.684,1.025,1.875l4.189,28.301
		l3.281-28.418c0.078-0.605,0.209-1.094,0.396-1.465c0.186-0.371,0.396-0.557,0.63-0.557h3.311c0.312,0,0.469,0.4,0.469,1.201
		c0,0.254-0.029,0.527-0.088,0.82l-5.186,38.086c-0.195,1.309-0.527,1.982-0.996,2.021h-3.574c-0.508-0.039-0.86-0.722-1.055-2.051
		l-4.395-27.334l-4.248,27.363c-0.157,1.25-0.469,1.924-0.938,2.021H149.522z"/>
	<path fill="#FFFFFF" d="M188.194,144.276c-1.622,0-2.993-0.176-4.116-0.527c-1.124-0.352-2.144-0.991-3.062-1.919
		c-0.918-0.927-1.641-2.212-2.168-3.853s-0.933-3.716-1.216-6.226c-0.283-2.509-0.425-5.571-0.425-9.185
		c0-2.89,0.092-5.43,0.278-7.617c0.186-2.187,0.488-4.072,0.908-5.654c0.42-1.582,0.913-2.89,1.479-3.926
		c0.566-1.035,1.279-1.86,2.139-2.476c0.859-0.615,1.777-1.044,2.754-1.289c0.977-0.244,2.119-0.366,3.428-0.366
		c1.582,0,2.934,0.181,4.058,0.542c1.123,0.362,2.143,1.001,3.062,1.919c0.918,0.918,1.65,2.183,2.197,3.794
		c0.546,1.611,0.962,3.652,1.245,6.123c0.283,2.471,0.425,5.454,0.425,8.95c0,3.633-0.137,6.709-0.41,9.229
		c-0.274,2.52-0.674,4.6-1.201,6.24s-1.25,2.915-2.168,3.823c-0.918,0.908-1.938,1.538-3.062,1.89
		C191.216,144.1,189.834,144.276,188.194,144.276z M188.165,139.647c1.367,0,2.412-0.464,3.135-1.392
		c0.722-0.927,1.25-2.607,1.582-5.039c0.332-2.432,0.498-5.981,0.498-10.649c0-4.512-0.157-7.929-0.469-10.254
		c-0.313-2.324-0.825-3.959-1.538-4.907c-0.713-0.947-1.772-1.421-3.179-1.421c-1.367,0-2.417,0.483-3.149,1.45
		s-1.255,2.622-1.567,4.966c-0.313,2.344-0.469,5.732-0.469,10.166c0,4.629,0.166,8.159,0.498,10.591
		c0.332,2.432,0.854,4.121,1.567,5.068C185.787,139.174,186.817,139.647,188.165,139.647z"/>
	<path fill="#FFFFFF" d="M205.889,143.836c-0.274,0-0.469-0.083-0.586-0.249c-0.117-0.166-0.176-0.542-0.176-1.128v-39.375
		c0-0.586,0.059-0.962,0.176-1.128c0.117-0.166,0.312-0.249,0.586-0.249h4.248c0.273,0,0.469,0.083,0.586,0.249
		c0.117,0.166,0.176,0.542,0.176,1.128v15.586c0,0.176,0.034,0.333,0.103,0.469c0.068,0.137,0.132,0.205,0.19,0.205h8.789
		c0.059,0,0.127-0.073,0.205-0.22c0.078-0.146,0.117-0.308,0.117-0.483v-15.557c0-0.566,0.063-0.938,0.19-1.113
		c0.127-0.176,0.317-0.264,0.571-0.264h4.307c0.253,0,0.439,0.083,0.557,0.249c0.117,0.166,0.176,0.542,0.176,1.128v39.375
		c0,0.586-0.059,0.962-0.176,1.128c-0.117,0.166-0.303,0.249-0.557,0.249h-4.307c-0.176,0-0.313-0.024-0.41-0.073
		c-0.098-0.048-0.186-0.18-0.264-0.396c-0.078-0.215-0.117-0.517-0.117-0.908v-17.9c0-0.41-0.107-0.615-0.322-0.615h-8.701
		c-0.195,0-0.293,0.205-0.293,0.615v17.9c0,0.567-0.063,0.938-0.19,1.113c-0.127,0.176-0.318,0.264-0.571,0.264H205.889z"/>
	<path fill="#FFFFFF" d="M233.604,143.836c-0.254,0-0.439-0.083-0.557-0.249c-0.117-0.166-0.176-0.542-0.176-1.128v-39.375
		c0-0.586,0.059-0.962,0.176-1.128c0.117-0.166,0.303-0.249,0.557-0.249h4.307c0.253,0,0.439,0.083,0.557,0.249
		c0.117,0.166,0.176,0.542,0.176,1.128v35.449c0,0.43,0.136,0.645,0.41,0.645h7.617c0.253,0,0.439,0.069,0.557,0.205
		c0.117,0.137,0.176,0.45,0.176,0.938v2.344c0,0.488-0.059,0.806-0.176,0.952s-0.303,0.22-0.557,0.22H233.604z"/>
	<path fill="#FFFFFF" d="M252.705,143.836c-0.254,0-0.439-0.073-0.557-0.22s-0.176-0.483-0.176-1.011v-39.668
		c0-0.508,0.059-0.839,0.176-0.996c0.117-0.156,0.303-0.234,0.557-0.234h15.41c0.156,0,0.283,0.02,0.381,0.059
		c0.098,0.04,0.181,0.146,0.25,0.322c0.068,0.176,0.102,0.439,0.102,0.791v2.314c0,0.488-0.059,0.806-0.176,0.952
		s-0.303,0.22-0.557,0.22h-10.02c-0.234,0-0.352,0.322-0.352,0.967v11.836c0,0.176,0.034,0.352,0.104,0.527
		c0.068,0.176,0.131,0.264,0.189,0.264h8.057c0.488,0,0.732,0.45,0.732,1.348v2.256c0,0.898-0.244,1.348-0.732,1.348h-8.027
		c-0.078,0-0.15,0.098-0.219,0.293c-0.069,0.195-0.104,0.391-0.104,0.586v13.389h10.459c0.176,0,0.313,0.02,0.41,0.059
		c0.098,0.04,0.181,0.146,0.25,0.322c0.068,0.176,0.102,0.439,0.102,0.791v2.314c0,0.488-0.063,0.806-0.189,0.952
		c-0.128,0.146-0.318,0.22-0.572,0.22H252.705z"/>
	<path fill="#FFFFFF" d="M274.736,143.836c-0.254,0-0.439-0.083-0.557-0.249c-0.117-0.166-0.176-0.522-0.176-1.069v-39.463
		c0-0.586,0.059-0.957,0.176-1.113c0.117-0.156,0.303-0.234,0.557-0.234h9.844c1.23,0,2.281,0.069,3.15,0.205
		c0.868,0.137,1.762,0.43,2.68,0.879c0.918,0.45,1.656,1.074,2.213,1.875c0.557,0.801,1.015,1.895,1.377,3.281
		c0.361,1.387,0.541,3.057,0.541,5.01c0,1.465-0.107,2.739-0.322,3.823s-0.537,1.963-0.967,2.637s-0.893,1.206-1.391,1.597
		c-0.498,0.391-1.1,0.723-1.803,0.996c-0.059,0.059-0.088,0.117-0.088,0.176s0.029,0.107,0.088,0.146
		c0.703,0.333,1.275,0.674,1.715,1.025s0.883,0.864,1.332,1.538s0.791,1.587,1.025,2.739c0.234,1.153,0.381,2.568,0.439,4.248
		c0.078,1.523,0.117,5.02,0.117,10.488c0,0.977-0.176,1.465-0.527,1.465c-3.027,0.019-4.58,0.029-4.658,0.029
		c-0.313,0-0.479-0.439-0.498-1.318c0-0.136-0.059-2.324-0.176-6.563c-0.117-4.238-0.244-6.68-0.381-7.324
		c-0.059-0.801-0.219-1.469-0.482-2.007c-0.264-0.537-0.605-0.927-1.025-1.172c-0.421-0.244-0.836-0.41-1.246-0.498
		s-0.879-0.132-1.406-0.132h-4.189c-0.215,0-0.322,0.215-0.322,0.645v17.021c0,0.547-0.059,0.904-0.176,1.069
		c-0.117,0.166-0.303,0.249-0.557,0.249H274.736z M280.068,120.281h3.779c3.262,0,4.893-2.373,4.893-7.119
		c0-2.52-0.443-4.282-1.332-5.288c-0.89-1.006-2.379-1.509-4.469-1.509h-2.842c-0.215,0-0.322,0.195-0.322,0.586v12.539
		C279.775,120.018,279.873,120.281,280.068,120.281z"/>
	<path fill="#FFFFFF" d="M320.879,144.305c-0.742,0-1.23-0.615-1.465-1.846c0-0.019-0.137-0.786-0.41-2.3
		c-0.273-1.513-0.41-2.377-0.41-2.593c0-0.195-0.029-0.293-0.088-0.293s-0.117,0.088-0.176,0.264
		c-0.332,2.188-1.05,3.857-2.152,5.01c-1.104,1.153-2.564,1.729-4.381,1.729c-0.879,0-1.68-0.059-2.402-0.176
		s-1.489-0.366-2.299-0.747c-0.811-0.381-1.529-0.883-2.154-1.509c-0.625-0.625-1.234-1.484-1.83-2.578
		c-0.597-1.094-1.084-2.377-1.465-3.853c-0.381-1.475-0.689-3.286-0.924-5.435c-0.234-2.148-0.352-4.56-0.352-7.236
		c0-2.773,0.143-5.254,0.426-7.441c0.282-2.187,0.654-4.023,1.113-5.508c0.458-1.484,1.049-2.764,1.771-3.838
		c0.723-1.074,1.451-1.909,2.184-2.505c0.732-0.596,1.605-1.064,2.621-1.406c1.016-0.341,1.943-0.561,2.783-0.659
		c0.84-0.098,1.816-0.146,2.93-0.146c0.82,0,1.715,0.107,2.682,0.322c0.967,0.215,1.732,0.45,2.299,0.703
		c0.02,0.02,0.063,0.049,0.133,0.088c0.068,0.04,0.121,0.093,0.16,0.161c0.039,0.069,0.059,0.171,0.059,0.308v3.604
		c0,0.274-0.078,0.41-0.234,0.41c-0.02,0-0.131-0.029-0.336-0.088s-0.479-0.132-0.82-0.22c-0.342-0.088-0.714-0.171-1.113-0.249
		c-0.4-0.078-0.826-0.146-1.275-0.205s-0.859-0.088-1.23-0.088c-1.035,0-1.924,0.103-2.666,0.308s-1.494,0.645-2.256,1.318
		s-1.377,1.607-1.846,2.798c-0.469,1.191-0.85,2.823-1.143,4.893c-0.293,2.07-0.439,4.551-0.439,7.441
		c0,2.735,0.107,5.112,0.322,7.134s0.498,3.647,0.85,4.878s0.807,2.217,1.363,2.959c0.557,0.743,1.123,1.245,1.699,1.509
		c0.575,0.264,1.244,0.396,2.006,0.396c0.898,0,1.646-0.264,2.242-0.791c0.596-0.527,1.044-1.337,1.348-2.432
		c0.303-1.094,0.508-2.295,0.615-3.604c0.106-1.308,0.16-2.939,0.16-4.893c0-0.879-0.088-1.318-0.264-1.318h-3.311
		c-0.176,0-0.317-0.024-0.424-0.073c-0.107-0.048-0.205-0.171-0.293-0.366c-0.088-0.195-0.133-0.469-0.133-0.82v-2.402
		c0-0.527,0.074-0.874,0.221-1.04c0.146-0.166,0.346-0.249,0.6-0.249h7.881c0.508,0,0.762,0.605,0.762,1.816v18.896
		c0,0.586-0.098,1.06-0.293,1.421S321.113,144.305,320.879,144.305z"/>
	<path fill="#FFFFFF" d="M328.232,143.836c-0.254,0-0.439-0.073-0.557-0.22s-0.176-0.483-0.176-1.011v-39.668
		c0-0.508,0.059-0.839,0.176-0.996c0.117-0.156,0.303-0.234,0.557-0.234h15.41c0.156,0,0.283,0.02,0.381,0.059
		c0.098,0.04,0.181,0.146,0.25,0.322c0.068,0.176,0.102,0.439,0.102,0.791v2.314c0,0.488-0.059,0.806-0.176,0.952
		s-0.303,0.22-0.557,0.22h-10.02c-0.234,0-0.352,0.322-0.352,0.967v11.836c0,0.176,0.034,0.352,0.104,0.527
		c0.068,0.176,0.131,0.264,0.189,0.264h8.057c0.488,0,0.732,0.45,0.732,1.348v2.256c0,0.898-0.244,1.348-0.732,1.348h-8.027
		c-0.078,0-0.15,0.098-0.219,0.293c-0.069,0.195-0.104,0.391-0.104,0.586v13.389h10.459c0.176,0,0.313,0.02,0.41,0.059
		c0.098,0.04,0.181,0.146,0.25,0.322c0.068,0.176,0.102,0.439,0.102,0.791v2.314c0,0.488-0.063,0.806-0.189,0.952
		c-0.128,0.146-0.318,0.22-0.572,0.22H328.232z"/>
	<path fill="#FFFFFF" d="M350.293,143.836c-0.273,0-0.469-0.083-0.586-0.249c-0.117-0.166-0.176-0.542-0.176-1.128v-39.375
		c0-0.586,0.059-0.962,0.176-1.128c0.117-0.166,0.313-0.249,0.586-0.249h4.248c0.273,0,0.469,0.083,0.586,0.249
		c0.117,0.166,0.176,0.542,0.176,1.128v15.586c0,0.176,0.034,0.333,0.104,0.469c0.068,0.137,0.131,0.205,0.189,0.205h8.789
		c0.059,0,0.127-0.073,0.205-0.22s0.117-0.308,0.117-0.483v-15.557c0-0.566,0.063-0.938,0.191-1.113
		c0.127-0.176,0.316-0.264,0.57-0.264h4.307c0.254,0,0.439,0.083,0.557,0.249c0.117,0.166,0.176,0.542,0.176,1.128v39.375
		c0,0.586-0.059,0.962-0.176,1.128c-0.117,0.166-0.303,0.249-0.557,0.249h-4.307c-0.176,0-0.313-0.024-0.41-0.073
		c-0.098-0.048-0.186-0.18-0.264-0.396c-0.078-0.215-0.117-0.517-0.117-0.908v-17.9c0-0.41-0.107-0.615-0.322-0.615h-8.701
		c-0.195,0-0.293,0.205-0.293,0.615v17.9c0,0.567-0.063,0.938-0.189,1.113c-0.128,0.176-0.318,0.264-0.572,0.264H350.293z"/>
	<path fill="#FFFFFF" d="M378.008,143.836c-0.254,0-0.439-0.073-0.557-0.22s-0.176-0.483-0.176-1.011v-39.668
		c0-0.508,0.059-0.839,0.176-0.996c0.117-0.156,0.303-0.234,0.557-0.234h15.41c0.156,0,0.283,0.02,0.381,0.059
		c0.098,0.04,0.181,0.146,0.25,0.322c0.068,0.176,0.102,0.439,0.102,0.791v2.314c0,0.488-0.059,0.806-0.176,0.952
		s-0.303,0.22-0.557,0.22h-10.02c-0.234,0-0.352,0.322-0.352,0.967v11.836c0,0.176,0.034,0.352,0.104,0.527
		c0.068,0.176,0.131,0.264,0.189,0.264h8.057c0.488,0,0.732,0.45,0.732,1.348v2.256c0,0.898-0.244,1.348-0.732,1.348h-8.027
		c-0.078,0-0.15,0.098-0.219,0.293c-0.069,0.195-0.104,0.391-0.104,0.586v13.389h10.459c0.176,0,0.313,0.02,0.41,0.059
		c0.098,0.04,0.181,0.146,0.25,0.322c0.068,0.176,0.102,0.439,0.102,0.791v2.314c0,0.488-0.063,0.806-0.189,0.952
		c-0.128,0.146-0.318,0.22-0.572,0.22H378.008z"/>
	<path fill="#FFFFFF" d="M400.068,143.836c-0.254,0-0.443-0.098-0.57-0.293c-0.128-0.195-0.191-0.586-0.191-1.172V103.26
		c0-1.035,0.254-1.553,0.762-1.553h4.453c0.41,0,0.762,0.381,1.055,1.143l9.932,26.689c0.039,0.137,0.098,0.098,0.176-0.117
		l0.029-0.264V103.26c0-1.035,0.264-1.553,0.791-1.553h3.486c0.488,0,0.732,0.518,0.732,1.553v39.229
		c0,0.586-0.059,0.962-0.176,1.128c-0.117,0.166-0.303,0.249-0.557,0.249h-3.164c-0.195,0-0.405-0.117-0.629-0.352
		c-0.225-0.234-0.406-0.527-0.543-0.879l-11.045-28.828c-0.078-0.156-0.137-0.107-0.176,0.146c-0.02,0.059-0.029,0.127-0.029,0.205
		v28.213c0,0.586-0.063,0.977-0.189,1.172c-0.128,0.195-0.328,0.293-0.602,0.293H400.068z"/>
</g>
<title>Artboard 1</title>
<path id="_Path_2" fill="#FFFFFF" d="M71.35,144.07c17.105,0,24.541-9.073,24.541-23.05v-14.865c0-9.22-4-15.17-12.5-17.1
	c7-2.229,11.594-7.885,11.594-16.354v-8.775c0-14.275-6.84-23.045-22.449-23.045c-17.55,0-23.65,10.398-23.65,25.273v8.922H64.35
	V64.815c0-6.245,1.94-9.81,7.29-9.81s7.28,3.563,7.28,9.063v10.855c0,5.354-3.564,8.175-9.06,8.175h-6.4v12.945h7.14
	c5.945,0,8.32,2.818,8.32,8.175v16.655c0,5.35-2.375,9.075-7.58,9.075c-5.795,0-7.88-3.875-7.88-9.82v-14.42H48v13.229
	c0,15.32,6.09,25.13,23.335,25.13"/>
<g>
	<path id="_Path_3" fill="#FFFFFF" d="M417.63,312.5c0-14.07-9-25.5-22.7-25.5c-6.835,0-15.085,7.5-19.563,12.095
		c-4.5-4.615-12.182-12.105-19-12.105c-13.67,0-23.255,11.405-23.255,25.5c-0.021,6.717,2.582,13.176,7.255,18l0,0l35.05,35.115
		l35-35.075l-0.03-0.023C415.054,325.676,417.653,319.216,417.63,312.5z"/>
	<g id="_Group_">
		<path id="_Path_4" fill="#FFFFFF" d="M268.405,422.94h-0.36c-2.665-0.16-4.868-2.137-5.313-4.77l-17.807-103.705l-26.97,50
			c-1.51,2.796-5.002,3.839-7.798,2.328c-1.604-0.865-2.702-2.439-2.962-4.243l-11.45-80.025l-20.945,47.05
			c-0.924,2.079-2.983,3.421-5.26,3.427H88.125c-3.176-0.188-5.598-2.914-5.411-6.091c0.172-2.914,2.497-5.237,5.411-5.409H165.8
			l27.556-61.887c1.289-2.904,4.688-4.216,7.594-2.927c1.806,0.801,3.074,2.474,3.361,4.427l11.805,82.5L242.71,294.3
			c1.516-2.797,5.011-3.836,7.809-2.321c1.551,0.84,2.632,2.344,2.933,4.081l16.5,96.035L330.025,192.5
			c0.92-3.046,4.134-4.77,7.18-3.849c1.542,0.467,2.819,1.558,3.52,3.009l31.615,65.545c1.436,2.836,0.299,6.298-2.537,7.731
			c-2.837,1.436-6.299,0.299-7.732-2.537c-0.033-0.063-0.064-0.13-0.095-0.194L336.785,210L273.91,418.84
			C273.182,421.272,270.944,422.939,268.405,422.94z"/>
	</g>
</g>
</svg>
