<?xml version="1.0" encoding="utf-8"?>
<!-- Generator: Adobe Illustrator 16.0.3, SVG Export Plug-In . SVG Version: 6.00 Build 0)  -->
<!DOCTYPE svg PUBLIC "-//W3C//DTD SVG 1.1//EN" "http://www.w3.org/Graphics/SVG/1.1/DTD/svg11.dtd" [
	<!ENTITY ns_extend "http://ns.adobe.com/Extensibility/1.0/">
	<!ENTITY ns_ai "http://ns.adobe.com/AdobeIllustrator/10.0/">
	<!ENTITY ns_graphs "http://ns.adobe.com/Graphs/1.0/">
	<!ENTITY ns_vars "http://ns.adobe.com/Variables/1.0/">
	<!ENTITY ns_imrep "http://ns.adobe.com/ImageReplacement/1.0/">
	<!ENTITY ns_sfw "http://ns.adobe.com/SaveForWeb/1.0/">
	<!ENTITY ns_custom "http://ns.adobe.com/GenericCustomNamespace/1.0/">
	<!ENTITY ns_adobe_xpath "http://ns.adobe.com/XPath/1.0/">
]>
<svg version="1.1" id="Ebene_1" xmlns:x="&ns_extend;" xmlns:i="&ns_ai;" xmlns:graph="&ns_graphs;"
	 xmlns="http://www.w3.org/2000/svg" xmlns:xlink="http://www.w3.org/1999/xlink" x="0px" y="0px" width="300px" height="300px"
	 viewBox="0 0 300 300" enable-background="new 0 0 300 300" xml:space="preserve">
<metadata>
	<sfw  xmlns="&ns_sfw;">
		<slices></slices>
		<sliceSourceBounds  height="309.582" width="300" x="-50.5" y="-57.082" bottomLeftOrigin="true"></sliceSourceBounds>
	</sfw>
</metadata>
<path fill="#C18C2F" d="M228,298H72c-39.604,0-72-16.9-72-56.5V58C0,18.4,32.397-2,72-2h156c39.601,0,72,20.9,72,60.5V242
	C300,281.6,267.599,298,228,298z"/>
<rect x="0.757" y="228.086" fill="none" width="298.483" height="79.496"/>
<g enable-background="new    ">
	<path fill="#FFFFFF" d="M84.051,261.11c-1.536,0.768-4.608,1.536-8.545,1.536c-9.121,0-15.985-5.761-15.985-16.37
		c0-10.129,6.865-16.993,16.897-16.993c4.033,0,6.577,0.864,7.681,1.44l-1.008,3.408c-1.584-0.769-3.84-1.345-6.529-1.345
		c-7.584,0-12.625,4.849-12.625,13.346c0,7.921,4.561,13.009,12.433,13.009c2.544,0,5.136-0.528,6.816-1.344L84.051,261.11z"/>
	<path fill="#FFFFFF" d="M109.635,250.357c0,8.593-5.953,12.337-11.569,12.337c-6.289,0-11.137-4.608-11.137-11.953
		c0-7.776,5.088-12.337,11.521-12.337C105.122,238.404,109.635,243.252,109.635,250.357z M91.201,250.597
		c0,5.089,2.928,8.929,7.057,8.929c4.032,0,7.057-3.792,7.057-9.024c0-3.937-1.968-8.929-6.961-8.929
		C93.361,241.572,91.201,246.181,91.201,250.597z"/>
	<path fill="#FFFFFF" d="M114.961,246.181c0-2.736-0.048-5.089-0.192-7.249h3.696l0.144,4.561h0.192
		c1.056-3.12,3.6-5.088,6.433-5.088c0.48,0,0.816,0.048,1.2,0.144v3.984c-0.432-0.096-0.864-0.144-1.44-0.144
		c-2.976,0-5.088,2.256-5.665,5.424c-0.096,0.576-0.192,1.248-0.192,1.969v12.385h-4.176V246.181z"/>
	<path fill="#FFFFFF" d="M130.848,246.181c0-2.736-0.048-5.089-0.192-7.249h3.696l0.144,4.561h0.192
		c1.056-3.12,3.6-5.088,6.433-5.088c0.48,0,0.816,0.048,1.2,0.144v3.984c-0.432-0.096-0.864-0.144-1.44-0.144
		c-2.976,0-5.088,2.256-5.665,5.424c-0.096,0.576-0.192,1.248-0.192,1.969v12.385h-4.176V246.181z"/>
	<path fill="#FFFFFF" d="M148.416,251.317c0.096,5.712,3.744,8.064,7.969,8.064c3.024,0,4.849-0.528,6.433-1.2l0.72,3.024
		c-1.488,0.672-4.032,1.44-7.729,1.44c-7.152,0-11.425-4.705-11.425-11.714c0-7.008,4.128-12.528,10.897-12.528
		c7.584,0,9.601,6.672,9.601,10.944c0,0.864-0.097,1.536-0.145,1.969H148.416z M160.801,248.293
		c0.049-2.688-1.104-6.865-5.855-6.865c-4.273,0-6.145,3.937-6.481,6.865H160.801z"/>
	<path fill="#FFFFFF" d="M186.673,261.302c-1.104,0.576-3.552,1.345-6.672,1.345c-7.009,0-11.569-4.753-11.569-11.857
		c0-7.152,4.896-12.337,12.481-12.337c2.496,0,4.704,0.624,5.856,1.2l-0.96,3.264c-1.009-0.576-2.593-1.104-4.896-1.104
		c-5.329,0-8.209,3.937-8.209,8.784c0,5.377,3.456,8.689,8.064,8.689c2.4,0,3.984-0.624,5.185-1.152L186.673,261.302z"/>
	<path fill="#FFFFFF" d="M197.327,232.26v6.672h6.049v3.217h-6.049v12.529c0,2.88,0.816,4.512,3.168,4.512
		c1.104,0,1.921-0.144,2.448-0.288l0.192,3.169c-0.816,0.336-2.112,0.576-3.744,0.576c-1.969,0-3.553-0.624-4.561-1.776
		c-1.2-1.248-1.632-3.313-1.632-6.049v-12.673h-3.601v-3.217h3.601v-5.568L197.327,232.26z"/>
	<path fill="#FFFFFF" d="M212.831,232.403c0.048,1.44-1.009,2.593-2.688,2.593c-1.488,0-2.544-1.152-2.544-2.593
		c0-1.488,1.104-2.64,2.64-2.64C211.823,229.764,212.831,230.915,212.831,232.403z M208.126,262.166v-23.234h4.225v23.234H208.126z"
		/>
	<path fill="#FFFFFF" d="M240.384,250.357c0,8.593-5.953,12.337-11.569,12.337c-6.288,0-11.137-4.608-11.137-11.953
		c0-7.776,5.089-12.337,11.521-12.337C235.871,238.404,240.384,243.252,240.384,250.357z M221.95,250.597
		c0,5.089,2.928,8.929,7.057,8.929c4.032,0,7.057-3.792,7.057-9.024c0-3.937-1.969-8.929-6.961-8.929S221.95,246.181,221.95,250.597
		z"/>
</g>
<g>
	<g>
		<path opacity="0.4" fill="#FFFFFF" enable-background="new    " d="M148.684,23.5c-46.208,0-83.667,37.459-83.667,83.666
			c0,20.148,11.929,47.424,11.929,47.424l-25.499,35.998l46.047-17.266c14.149,10.967,31.9,17.512,51.19,17.512
			c46.207,0,83.666-37.459,83.666-83.668C232.35,60.959,194.891,23.5,148.684,23.5z"/>
	</g>
	<path fill="#FFFFFF" d="M220.462,190.305l-15.866-48.244h-47.485l-15.425,48.244h-27.448L167.14,29.492h28.283l53.131,160.813
		H220.462z M198.183,119.159l-12.924-39.241c-1.765-5.353-3.219-10.441-4.524-15.361c-1.433,5.408-2.841,10.348-4.284,15.061
		l-12.956,39.542L198.183,119.159L198.183,119.159z"/>
</g>
</svg>
