<?xml version="1.0" encoding="utf-8"?>
<!-- Generator: Adobe Illustrator 16.0.3, SVG Export Plug-In . SVG Version: 6.00 Build 0)  -->
<!DOCTYPE svg PUBLIC "-//W3C//DTD SVG 1.1//EN" "http://www.w3.org/Graphics/SVG/1.1/DTD/svg11.dtd" [
	<!ENTITY ns_extend "http://ns.adobe.com/Extensibility/1.0/">
	<!ENTITY ns_ai "http://ns.adobe.com/AdobeIllustrator/10.0/">
	<!ENTITY ns_graphs "http://ns.adobe.com/Graphs/1.0/">
	<!ENTITY ns_vars "http://ns.adobe.com/Variables/1.0/">
	<!ENTITY ns_imrep "http://ns.adobe.com/ImageReplacement/1.0/">
	<!ENTITY ns_sfw "http://ns.adobe.com/SaveForWeb/1.0/">
	<!ENTITY ns_custom "http://ns.adobe.com/GenericCustomNamespace/1.0/">
	<!ENTITY ns_adobe_xpath "http://ns.adobe.com/XPath/1.0/">
]>
<svg version="1.1" id="Ebene_1" xmlns:x="&ns_extend;" xmlns:i="&ns_ai;" xmlns:graph="&ns_graphs;"
	 xmlns="http://www.w3.org/2000/svg" xmlns:xlink="http://www.w3.org/1999/xlink" x="0px" y="0px" width="92px" height="92px"
	 viewBox="0 0 92 92" enable-background="new 0 0 92 92" xml:space="preserve">
<metadata>
	<sfw  xmlns="&ns_sfw;">
		<slices></slices>
		<sliceSourceBounds  height="92" width="16383" x="-8146" y="0.5" bottomLeftOrigin="true"></sliceSourceBounds>
	</sfw>
</metadata>
<g>
	<g>
		<path fill="#EACD99" d="M72.91,92H19.089C8.588,92-0.016,83.428-0.016,72.926V19.104C-0.016,8.603,8.588,0,19.089,0H72.91
			c10.502,0,19.105,8.603,19.105,19.104v53.822C91.984,83.428,83.412,92,72.91,92z"/>
	</g>
</g>
<g>
	<path fill="#3A3326" d="M18.018,61.486v10.109h-1.845V61.486H18.018z"/>
	<path fill="#3A3326" d="M20.147,66.465c0-0.84-0.015-1.545-0.06-2.174h1.62l0.09,1.094h0.045c0.315-0.569,1.11-1.26,2.325-1.26
		c1.275,0,2.595,0.826,2.595,3.135v4.336h-1.845v-4.125c0-1.051-0.39-1.846-1.395-1.846c-0.735,0-1.245,0.525-1.44,1.08
		c-0.06,0.166-0.075,0.391-0.075,0.6v4.291h-1.86V66.465z"/>
	<path fill="#3A3326" d="M35.462,60.945v8.596c0,0.749,0.03,1.559,0.061,2.055h-1.65l-0.075-1.155h-0.03
		c-0.435,0.81-1.319,1.319-2.385,1.319c-1.739,0-3.119-1.484-3.119-3.734c-0.016-2.445,1.515-3.9,3.27-3.9
		c1.005,0,1.725,0.42,2.055,0.961h0.03v-4.141H35.462z M33.617,67.336c0-0.15-0.015-0.33-0.045-0.48
		c-0.165-0.721-0.75-1.305-1.59-1.305c-1.186,0-1.845,1.05-1.845,2.414c0,1.336,0.659,2.311,1.829,2.311
		c0.75,0,1.41-0.51,1.59-1.305c0.046-0.166,0.061-0.346,0.061-0.541V67.336z"/>
	<path fill="#3A3326" d="M43.981,69.405c0,0.87,0.03,1.59,0.061,2.19h-1.62l-0.09-1.11h-0.03c-0.314,0.524-1.035,1.274-2.34,1.274
		c-1.335,0-2.55-0.795-2.55-3.18v-4.289h1.845v3.975c0,1.215,0.391,1.994,1.365,1.994c0.735,0,1.215-0.524,1.41-0.989
		c0.06-0.165,0.104-0.36,0.104-0.57v-4.409h1.845V69.405z"/>
	<path fill="#3A3326" d="M47.822,67.5h0.03c0.18-0.285,0.39-0.6,0.585-0.854l1.77-2.354h2.22l-2.699,2.984l3.09,4.32h-2.266
		l-2.1-3.226l-0.63,0.735v2.49h-1.845v-10.65h1.845V67.5z"/>
	<path fill="#3A3326" d="M55.727,62.205v2.086h1.755v1.379h-1.755v3.226c0,0.885,0.24,1.35,0.945,1.35
		c0.315,0,0.555-0.045,0.72-0.09l0.03,1.41c-0.27,0.104-0.75,0.18-1.335,0.18c-0.675,0-1.245-0.226-1.59-0.601
		c-0.39-0.42-0.57-1.079-0.57-2.039V65.67h-1.05v-1.379h1.05v-1.65L55.727,62.205z"/>
	<path fill="#3A3326" d="M60.842,62.25c0,0.556-0.405,0.99-1.05,0.99c-0.615,0-1.021-0.435-1.021-0.99
		c0-0.569,0.42-1.004,1.035-1.004C60.437,61.246,60.826,61.681,60.842,62.25z M58.877,71.596v-7.305h1.859v7.305H58.877z"/>
	<path fill="#3A3326" d="M63.887,64.291l1.185,3.705c0.21,0.645,0.36,1.229,0.495,1.829h0.045c0.135-0.601,0.3-1.17,0.495-1.829
		l1.155-3.705h1.949l-2.79,7.305h-1.814l-2.715-7.305H63.887z"/>
	<path fill="#3A3326" d="M71.447,68.461c0.045,1.319,1.08,1.889,2.25,1.889c0.854,0,1.47-0.119,2.024-0.329l0.271,1.274
		c-0.63,0.256-1.5,0.45-2.55,0.45c-2.37,0-3.765-1.455-3.765-3.69c0-2.024,1.229-3.93,3.569-3.93c2.37,0,3.15,1.951,3.15,3.555
		c0,0.346-0.03,0.615-0.061,0.781H71.447z M74.657,67.17c0.015-0.674-0.285-1.785-1.515-1.785c-1.141,0-1.62,1.035-1.695,1.785
		H74.657z"/>
	<path fill="#3A3326" d="M18.415,82.11h-3.81v2.97h4.26v1.516H12.76V76.486h5.88V78h-4.035v2.61h3.81V82.11z"/>
	<path fill="#3A3326" d="M21.64,79.291l0.87,1.379c0.24,0.391,0.45,0.75,0.66,1.125h0.045c0.21-0.404,0.42-0.779,0.63-1.154
		l0.81-1.35h2.01l-2.445,3.51l2.49,3.795h-2.085l-0.9-1.455c-0.24-0.391-0.45-0.78-0.66-1.186h-0.03
		c-0.21,0.42-0.42,0.78-0.66,1.186l-0.84,1.455h-2.04l2.535-3.721l-2.445-3.584H21.64z"/>
	<path fill="#3A3326" d="M27.82,81.721c0-0.961-0.03-1.74-0.061-2.43h1.62l0.09,1.125h0.03c0.54-0.826,1.395-1.291,2.505-1.291
		c1.68,0,3.075,1.44,3.075,3.721c0,2.64-1.665,3.914-3.33,3.914c-0.915,0-1.68-0.39-2.055-0.975h-0.03v3.779H27.82V81.721z
		 M29.665,83.535c0,0.18,0.015,0.346,0.06,0.51c0.181,0.75,0.84,1.291,1.62,1.291c1.17,0,1.86-0.976,1.86-2.416
		c0-1.289-0.63-2.34-1.815-2.34c-0.765,0-1.47,0.555-1.649,1.365c-0.045,0.15-0.075,0.314-0.075,0.465V83.535z"/>
	<path fill="#3A3326" d="M43.539,82.875c0,2.686-1.89,3.885-3.75,3.885c-2.069,0-3.659-1.424-3.659-3.764
		c0-2.4,1.574-3.871,3.779-3.871C42.084,79.125,43.539,80.655,43.539,82.875z M38.034,82.95c0,1.41,0.69,2.476,1.815,2.476
		c1.05,0,1.784-1.035,1.784-2.506c0-1.14-0.51-2.444-1.77-2.444C38.56,80.476,38.034,81.735,38.034,82.95z"/>
	<path fill="#3A3326" d="M44.965,84.9c0.42,0.255,1.215,0.525,1.874,0.525c0.811,0,1.171-0.33,1.171-0.811
		c0-0.495-0.301-0.75-1.2-1.064c-1.425-0.496-2.025-1.275-2.01-2.131c0-1.289,1.064-2.295,2.76-2.295
		c0.81,0,1.515,0.211,1.935,0.436l-0.36,1.305c-0.314-0.18-0.899-0.42-1.545-0.42c-0.659,0-1.02,0.314-1.02,0.766
		c0,0.465,0.345,0.689,1.275,1.02c1.319,0.48,1.935,1.154,1.949,2.234c0,1.32-1.035,2.28-2.97,2.28c-0.885,0-1.68-0.21-2.22-0.51
		L44.965,84.9z"/>
	<path fill="#3A3326" d="M53.274,77.25c0,0.556-0.405,0.99-1.05,0.99c-0.615,0-1.021-0.435-1.021-0.99
		c0-0.569,0.42-1.004,1.035-1.004C52.869,76.246,53.259,76.681,53.274,77.25z M51.31,86.596v-7.305h1.859v7.305H51.31z"/>
	<path fill="#3A3326" d="M57.264,77.205v2.086h1.755v1.379h-1.755v3.226c0,0.885,0.24,1.35,0.945,1.35
		c0.315,0,0.555-0.045,0.72-0.09l0.03,1.41c-0.27,0.104-0.75,0.18-1.335,0.18c-0.675,0-1.245-0.226-1.59-0.601
		c-0.39-0.42-0.57-1.079-0.57-2.039V80.67h-1.05v-1.379h1.05v-1.65L57.264,77.205z"/>
	<path fill="#3A3326" d="M62.379,77.25c0,0.556-0.405,0.99-1.05,0.99c-0.615,0-1.021-0.435-1.021-0.99
		c0-0.569,0.42-1.004,1.035-1.004C61.974,76.246,62.363,76.681,62.379,77.25z M60.414,86.596v-7.305h1.859v7.305H60.414z"/>
	<path fill="#3A3326" d="M71.198,82.875c0,2.686-1.89,3.885-3.75,3.885c-2.069,0-3.659-1.424-3.659-3.764
		c0-2.4,1.574-3.871,3.779-3.871C69.743,79.125,71.198,80.655,71.198,82.875z M65.693,82.95c0,1.41,0.69,2.476,1.815,2.476
		c1.05,0,1.784-1.035,1.784-2.506c0-1.14-0.51-2.444-1.77-2.444C66.219,80.476,65.693,81.735,65.693,82.95z"/>
	<path fill="#3A3326" d="M72.714,81.465c0-0.84-0.016-1.545-0.061-2.174h1.62l0.09,1.094h0.045c0.315-0.569,1.11-1.26,2.325-1.26
		c1.275,0,2.595,0.826,2.595,3.135v4.336h-1.845v-4.125c0-1.051-0.39-1.846-1.395-1.846c-0.735,0-1.245,0.525-1.44,1.08
		c-0.06,0.166-0.075,0.391-0.075,0.6v4.291h-1.859V81.465z"/>
</g>
<g>
	<g>
		<circle fill="#FFFFFF" cx="21.577" cy="9.284" r="5.959"/>
		<circle fill="#FFFFFF" cx="37.859" cy="9.284" r="5.959"/>
		<circle fill="#FFFFFF" cx="54.141" cy="9.284" r="5.959"/>
		<circle fill="#FFFFFF" cx="70.424" cy="9.284" r="5.959"/>
	</g>
	<circle fill="#FFFFFF" cx="46" cy="45.877" r="9.652"/>
	<g>
		<g>
			<line fill="none" stroke="#C1272D" stroke-width="3.645" stroke-miterlimit="10" x1="46" y1="17.929" x2="46" y2="26.74"/>
			<g>
				<polygon fill="#C1272D" points="41.274,25.357 46,33.54 50.726,25.357 				"/>
			</g>
		</g>
	</g>
</g>
</svg>
