<?xml version="1.0" encoding="utf-8"?>
<!-- Generator: Adobe Illustrator 16.0.3, SVG Export Plug-In . SVG Version: 6.00 Build 0)  -->
<!DOCTYPE svg PUBLIC "-//W3C//DTD SVG 1.1//EN" "http://www.w3.org/Graphics/SVG/1.1/DTD/svg11.dtd">
<svg version="1.1" id="Layer_1" xmlns="http://www.w3.org/2000/svg" xmlns:xlink="http://www.w3.org/1999/xlink" x="0px" y="0px"
	 width="499.906px" height="499.926px" viewBox="0 0 499.906 499.926" enable-background="new 0 0 499.906 499.926"
	 xml:space="preserve">
<title>Artboard 1</title>
<rect y="0" fill="#00689D" width="499.904" height="499.926"/>
<polygon fill="#FFFFFF" points="38.46,60.219 38.46,77.91 38.615,77.91 50.505,65.57 50.655,65.57 50.655,142.724 67.605,142.724 
	67.605,41.929 54.08,41.929 "/>
<path fill="#FFFFFF" d="M126.926,118.5v-14.87c0-16.5-6.541-24.83-18.73-24.83c-7.141,0-11.45,3.271-13.975,8.181h-0.146V65.275
	c0-6.101,1.925-10.41,8.024-10.41c6.101,0,7.881,3.57,7.881,9.811v6.7h15.459v-5.36c0-14.864-4.904-25.271-23.639-25.271
	c-17.841,0-24.531,11.45-24.531,27.21v49.056c0,15.609,6.846,26.91,24.681,26.91c18,0,25-9.811,25-25.42 M110.15,120
	c0,6.39-2.381,10.104-8.176,10.104c-5.649,0-7.875-3.86-7.875-10.104v-18.45c0.291-5.649,2.67-9.221,8.025-9.221
	c5.79,0,8.025,3.57,8.025,10.115V120z"/>
<g>
	<path fill="#FFFFFF" d="M317.423,292.475c0,0-3.891,5.164-2.775,10.194c1.115,5.033,6.884,8.028,6.884,8.028
		s3.89-5.164,2.774-10.198C323.192,295.47,317.423,292.475,317.423,292.475"/>
	<path fill="#FFFFFF" d="M311.078,321.992c0,0,3.891-5.169,2.775-10.203s-6.864-8.024-6.864-8.024s-3.895,5.166-2.774,10.194
		c1.115,5.038,6.867,8.033,6.867,8.033"/>
	<path fill="#FFFFFF" d="M327.072,316.463c0,0,4.104,4.155,8.779,3.73c4.685-0.44,8.144-5.234,8.144-5.234s-4.104-4.164-8.779-3.735
		C330.527,311.658,327.072,316.463,327.072,316.463"/>
	<path fill="#FFFFFF" d="M333.797,294.325c-3.8,3.859-3.265,10.693-3.265,10.693s6.713,0.583,10.522-3.276
		c3.812-3.861,3.265-10.698,3.265-10.698S337.616,290.468,333.797,294.325"/>
	<path fill="#FFFFFF" d="M325.408,331.821c4.659,0.556,9.044-3.459,9.044-3.459s-3.181-4.909-7.85-5.44
		c-4.657-0.53-9.05,3.45-9.05,3.45s3.183,4.899,7.846,5.449"/>
	<path fill="#FFFFFF" d="M329.563,412.799h-34.838c-2.718,0-4.925,2.207-4.925,4.925c0,2.733,2.207,4.939,4.925,4.939h34.838
		c2.724,0,4.935-2.206,4.935-4.939C334.498,415.005,332.289,412.799,329.563,412.799"/>
	<path fill="#FFFFFF" d="M329.563,467.137h-34.838c-2.718,0-4.925,2.207-4.925,4.925c0,2.719,2.207,4.924,4.925,4.924h34.838
		c2.724,0,4.935-2.205,4.935-4.924C334.498,469.344,332.289,467.137,329.563,467.137"/>
	<path fill="#FFFFFF" d="M172.868,400.836c-0.796-0.257-1.604-0.465-2.42-0.625C170.448,400.211,171.339,400.495,172.868,400.836"/>
	<path fill="#FFFFFF" d="M328.283,426.103h-32.288c-1.552,0-2.806,1.249-2.81,2.803v9.779l-21.077,2.305l-30.787-0.699v-18.813
		c4.143-0.524,8.235-1.364,12.255-2.488c29.638-8.356,36.102-32.867,35.461-49.827c-0.65-17.263,4.876-23.972,12.813-26.957
		c2.142-0.778,4.343-1.363,6.588-1.735c0.083,4.24,0.925,9.169,2.836,15.04c0.712-0.036,1.395-0.09,2.11-0.171
		c-2.001-6.005-2.863-10.949-2.902-15.173c2.326-0.288,4.676-0.365,7.029-0.206c-2.383-1.379-4.613-2.969-6.692-4.768
		c1.334-8.166,6.198-13.189,11.219-18.324c2.774-2.83,5.614-5.744,7.859-9.224l-1.745-1.125c-2.129,3.299-4.914,6.136-7.604,8.892
		c-4.887,5.002-9.839,10.126-11.512,18.245c-1.786-1.622-3.488-3.318-5.088-5.123c-7.304-8.185-16.715-2.175-30.136,10.321
		c-13.41,12.494-30.3,12.918-46.793-3.952c-21.729-22.269-40.728-22.138-53.74-20.878c8.903,3.788,12.023,12.105,16.522,33.252
		c4.721,22.198,16.647,32.212,32.921,33.602c-9.059,3.21-9.508,8.324-21.649,16.693c-9.48,6.545-22.816,4.475-28.202,3.245
		c9.919,3.096,21.681,13.509,32.2,17.103c6.208,2.123,12.657,3.447,19.194,3.939v18.004l-55.162-1.259v12.559l103.008-2.354
		l21.079,2.312v9.774c0.002,1.543,1.256,2.797,2.81,2.802h32.286c1.558-0.005,2.81-1.258,2.815-2.802v-31.987
		C331.096,427.35,329.838,426.099,328.283,426.103z M229.332,422.158c2.313,0.04,4.6-0.027,6.907-0.19v18.215l-6.907-0.155V422.158z
		"/>
	<path fill="#FFFFFF" d="M166.081,449.126c0,2.654-1.848,4.796-4.122,4.796h-2.483c-2.275,0-4.129-2.141-4.129-4.796v-8.694
		c0-2.64,1.85-4.796,4.129-4.796h2.483c2.273,0,4.122,2.155,4.122,4.796V449.126z"/>
</g>
<g>
	<path fill="#FFFFFF" d="M167.169,83.836c-0.254,0-0.439-0.073-0.557-0.22s-0.176-0.483-0.176-1.011V42.937
		c0-0.508,0.059-0.839,0.176-0.996c0.117-0.156,0.303-0.234,0.557-0.234h14.385c0.176,0,0.308,0.02,0.396,0.059
		c0.088,0.04,0.166,0.146,0.234,0.322c0.068,0.176,0.103,0.439,0.103,0.791v2.314c0,0.488-0.059,0.806-0.176,0.952
		s-0.303,0.22-0.557,0.22h-8.994c-0.234,0-0.352,0.254-0.352,0.762v12.92c0,0.391,0.098,0.586,0.293,0.586h7.324
		c0.253,0,0.439,0.069,0.557,0.205c0.117,0.137,0.176,0.45,0.176,0.938v2.637c0,0.488-0.059,0.806-0.176,0.952
		s-0.303,0.22-0.557,0.22h-7.295c-0.078,0-0.151,0.078-0.22,0.234c-0.069,0.157-0.103,0.322-0.103,0.498v16.289
		c0,0.527-0.059,0.864-0.176,1.011s-0.303,0.22-0.557,0.22H167.169z"/>
	<path fill="#FFFFFF" d="M187.208,83.836c-0.254,0-0.439-0.083-0.557-0.249c-0.117-0.166-0.176-0.522-0.176-1.069V43.054
		c0-0.586,0.059-0.957,0.176-1.113c0.117-0.156,0.303-0.234,0.557-0.234h9.844c1.23,0,2.28,0.069,3.149,0.205
		c0.869,0.137,1.762,0.43,2.681,0.879c0.918,0.45,1.655,1.074,2.212,1.875c0.557,0.801,1.015,1.895,1.377,3.281
		c0.361,1.387,0.542,3.057,0.542,5.01c0,1.465-0.107,2.739-0.322,3.823c-0.215,1.084-0.538,1.963-0.967,2.637
		c-0.43,0.674-0.894,1.206-1.392,1.597c-0.498,0.391-1.099,0.723-1.802,0.996c-0.059,0.059-0.088,0.117-0.088,0.176
		s0.029,0.107,0.088,0.146c0.703,0.333,1.274,0.674,1.714,1.025s0.883,0.864,1.333,1.538c0.449,0.674,0.791,1.587,1.025,2.739
		c0.234,1.153,0.381,2.568,0.439,4.248c0.078,1.523,0.117,5.02,0.117,10.488c0,0.977-0.176,1.465-0.527,1.465
		c-3.028,0.019-4.581,0.029-4.658,0.029c-0.313,0-0.479-0.439-0.498-1.318c0-0.136-0.059-2.324-0.176-6.563
		c-0.117-4.238-0.245-6.68-0.381-7.324c-0.059-0.801-0.22-1.469-0.483-2.007c-0.264-0.537-0.605-0.927-1.025-1.172
		c-0.42-0.244-0.835-0.41-1.245-0.498s-0.879-0.132-1.406-0.132h-4.189c-0.215,0-0.322,0.215-0.322,0.645v17.021
		c0,0.547-0.059,0.904-0.176,1.069c-0.117,0.166-0.303,0.249-0.557,0.249H187.208z M192.541,60.281h3.779
		c3.262,0,4.893-2.373,4.893-7.119c0-2.52-0.444-4.282-1.333-5.288c-0.889-1.006-2.378-1.509-4.468-1.509h-2.842
		c-0.215,0-0.322,0.195-0.322,0.586V59.49C192.248,60.017,192.345,60.281,192.541,60.281z"/>
	<path fill="#FFFFFF" d="M214.337,83.836c-0.176,0-0.313-0.024-0.41-0.073c-0.098-0.048-0.181-0.18-0.249-0.396
		c-0.069-0.215-0.103-0.517-0.103-0.908V43.084c0-0.566,0.063-0.938,0.19-1.113c0.127-0.176,0.317-0.264,0.571-0.264h4.307
		c0.156,0,0.283,0.025,0.381,0.073c0.098,0.049,0.18,0.181,0.249,0.396c0.068,0.215,0.103,0.518,0.103,0.908v39.375
		c0,0.567-0.059,0.938-0.176,1.113s-0.303,0.264-0.557,0.264H214.337z"/>
	<path fill="#FFFFFF" d="M226.876,83.836c-0.254,0-0.439-0.073-0.557-0.22s-0.176-0.483-0.176-1.011V42.937
		c0-0.508,0.059-0.839,0.176-0.996c0.117-0.156,0.303-0.234,0.557-0.234h15.41c0.156,0,0.283,0.02,0.381,0.059
		c0.098,0.04,0.18,0.146,0.249,0.322c0.068,0.176,0.103,0.439,0.103,0.791v2.314c0,0.488-0.059,0.806-0.176,0.952
		s-0.303,0.22-0.557,0.22h-10.02c-0.234,0-0.352,0.322-0.352,0.967v11.836c0,0.176,0.034,0.352,0.103,0.527
		c0.068,0.176,0.132,0.264,0.19,0.264h8.057c0.488,0,0.732,0.45,0.732,1.348v2.256c0,0.898-0.245,1.348-0.732,1.348h-8.027
		c-0.078,0-0.151,0.098-0.22,0.293c-0.069,0.195-0.103,0.391-0.103,0.586v13.389h10.459c0.176,0,0.312,0.02,0.41,0.059
		c0.098,0.04,0.18,0.146,0.249,0.322c0.068,0.176,0.103,0.439,0.103,0.791v2.314c0,0.488-0.063,0.806-0.19,0.952
		c-0.127,0.146-0.318,0.22-0.571,0.22H226.876z"/>
	<path fill="#FFFFFF" d="M248.908,83.836c-0.254,0-0.439-0.078-0.557-0.234c-0.117-0.156-0.176-0.508-0.176-1.055V42.879
		c0-0.488,0.059-0.806,0.176-0.952s0.303-0.22,0.557-0.22h10.078c1.719,0,3.208,0.342,4.468,1.025
		c1.26,0.684,2.368,1.807,3.325,3.369c0.957,1.563,1.674,3.706,2.153,6.431c0.479,2.725,0.718,6.04,0.718,9.946
		c0,2.773-0.088,5.22-0.264,7.339c-0.176,2.12-0.406,3.936-0.688,5.449c-0.283,1.514-0.688,2.793-1.216,3.838
		c-0.527,1.045-1.074,1.875-1.641,2.49s-1.279,1.089-2.139,1.421c-0.859,0.333-1.695,0.552-2.505,0.659
		c-0.811,0.107-1.812,0.161-3.003,0.161H248.908z M254.328,79.177h3.604c1.504,0,2.666-0.449,3.486-1.348
		c0.82-0.898,1.431-2.544,1.831-4.937c0.399-2.392,0.601-5.834,0.601-10.327c0-4.16-0.23-7.451-0.688-9.873
		c-0.459-2.421-1.089-4.082-1.89-4.98c-0.801-0.898-1.846-1.348-3.135-1.348h-3.838c-0.234,0-0.352,0.215-0.352,0.645v31.523
		C253.947,78.963,254.074,79.177,254.328,79.177z"/>
	<path fill="#FFFFFF" d="M276.3,83.836c-0.254,0-0.439-0.073-0.557-0.22s-0.176-0.483-0.176-1.011V42.937
		c0-0.508,0.059-0.839,0.176-0.996c0.117-0.156,0.303-0.234,0.557-0.234h15.41c0.156,0,0.283,0.02,0.381,0.059
		c0.098,0.04,0.18,0.146,0.249,0.322c0.068,0.176,0.103,0.439,0.103,0.791v2.314c0,0.488-0.059,0.806-0.176,0.952
		s-0.303,0.22-0.557,0.22h-10.02c-0.234,0-0.352,0.322-0.352,0.967v11.836c0,0.176,0.033,0.352,0.103,0.527
		c0.068,0.176,0.132,0.264,0.19,0.264h8.057c0.488,0,0.732,0.45,0.732,1.348v2.256c0,0.898-0.244,1.348-0.732,1.348h-8.027
		c-0.078,0-0.151,0.098-0.22,0.293c-0.069,0.195-0.103,0.391-0.103,0.586v13.389h10.459c0.176,0,0.313,0.02,0.41,0.059
		c0.098,0.04,0.18,0.146,0.249,0.322c0.068,0.176,0.103,0.439,0.103,0.791v2.314c0,0.488-0.063,0.806-0.19,0.952
		c-0.128,0.146-0.317,0.22-0.571,0.22H276.3z"/>
	<path fill="#FFFFFF" d="M298.361,83.836c-0.254,0-0.444-0.098-0.571-0.293c-0.128-0.195-0.19-0.586-0.19-1.172V43.26
		c0-1.035,0.254-1.553,0.762-1.553h4.453c0.41,0,0.762,0.381,1.055,1.143l9.932,26.689c0.039,0.137,0.098,0.098,0.176-0.117
		l0.029-0.264V43.26c0-1.035,0.264-1.553,0.791-1.553h3.486c0.488,0,0.732,0.518,0.732,1.553v39.229
		c0,0.586-0.059,0.962-0.176,1.128c-0.117,0.166-0.303,0.249-0.557,0.249h-3.164c-0.195,0-0.406-0.117-0.63-0.352
		c-0.225-0.234-0.405-0.527-0.542-0.879l-11.045-28.828c-0.078-0.156-0.137-0.107-0.176,0.146c-0.02,0.059-0.029,0.127-0.029,0.205
		v28.213c0,0.586-0.063,0.977-0.19,1.172c-0.128,0.195-0.327,0.293-0.601,0.293H298.361z"/>
	<path fill="#FFFFFF" d="M325.812,93.094c-0.078,0.039-0.137,0.059-0.176,0.059c-0.371,0-0.557-0.42-0.557-1.26v-0.527
		c0-0.605,0.029-0.986,0.088-1.143c0.059-0.157,0.254-0.42,0.586-0.791c0.43-0.527,0.766-1.26,1.011-2.197
		c0.244-0.938,0.366-1.807,0.366-2.607c0-0.527-0.059-0.791-0.176-0.791h-1.318c-0.41,0-0.615-0.557-0.615-1.67v-4.307
		c0-1.172,0.264-1.758,0.791-1.758h3.398c0.508,0,0.762,0.625,0.762,1.875v4.395c0,1.641-0.146,3.139-0.439,4.497
		c-0.293,1.357-0.67,2.446-1.128,3.267c-0.459,0.82-0.903,1.469-1.333,1.948C326.642,92.561,326.222,92.898,325.812,93.094z"/>
	<path fill="#FFFFFF" d="M186.242,144.304c-0.743,0-1.23-0.615-1.465-1.846c0-0.019-0.137-0.786-0.41-2.3
		c-0.274-1.513-0.41-2.377-0.41-2.593c0-0.195-0.029-0.293-0.088-0.293s-0.117,0.088-0.176,0.264
		c-0.333,2.188-1.05,3.857-2.153,5.01c-1.104,1.153-2.563,1.729-4.38,1.729c-0.879,0-1.68-0.059-2.402-0.176
		c-0.723-0.117-1.49-0.366-2.3-0.747c-0.811-0.381-1.528-0.883-2.153-1.509c-0.625-0.625-1.235-1.484-1.831-2.578
		c-0.596-1.094-1.084-2.377-1.465-3.853c-0.381-1.475-0.688-3.286-0.923-5.435c-0.234-2.148-0.352-4.56-0.352-7.236
		c0-2.773,0.142-5.254,0.425-7.441c0.283-2.187,0.654-4.023,1.113-5.508c0.458-1.484,1.05-2.764,1.772-3.838
		c0.722-1.074,1.45-1.909,2.183-2.505c0.732-0.596,1.606-1.064,2.622-1.406c1.015-0.341,1.943-0.561,2.783-0.659
		c0.839-0.098,1.816-0.146,2.93-0.146c0.82,0,1.714,0.107,2.681,0.322c0.967,0.215,1.733,0.45,2.3,0.703
		c0.019,0.02,0.063,0.049,0.132,0.088c0.068,0.04,0.122,0.093,0.161,0.161c0.039,0.069,0.059,0.171,0.059,0.308v3.604
		c0,0.274-0.078,0.41-0.234,0.41c-0.02,0-0.132-0.029-0.337-0.088s-0.479-0.132-0.82-0.22c-0.342-0.088-0.713-0.171-1.113-0.249
		c-0.4-0.078-0.825-0.146-1.274-0.205c-0.45-0.059-0.86-0.088-1.23-0.088c-1.036,0-1.924,0.103-2.666,0.308
		c-0.743,0.205-1.494,0.645-2.256,1.318s-1.377,1.607-1.846,2.798c-0.469,1.191-0.85,2.823-1.143,4.893
		c-0.293,2.07-0.439,4.551-0.439,7.441c0,2.735,0.107,5.112,0.322,7.134c0.215,2.021,0.498,3.647,0.85,4.878
		s0.806,2.217,1.362,2.959c0.557,0.743,1.123,1.245,1.699,1.509c0.576,0.264,1.245,0.396,2.007,0.396
		c0.898,0,1.645-0.264,2.241-0.791c0.596-0.527,1.044-1.337,1.348-2.432c0.303-1.094,0.508-2.295,0.615-3.604
		c0.107-1.308,0.161-2.939,0.161-4.893c0-0.879-0.088-1.318-0.264-1.318h-3.311c-0.176,0-0.318-0.024-0.425-0.073
		c-0.107-0.048-0.205-0.171-0.293-0.366c-0.088-0.195-0.132-0.469-0.132-0.82v-2.402c0-0.527,0.073-0.874,0.22-1.04
		c0.146-0.166,0.347-0.249,0.601-0.249h7.881c0.508,0,0.762,0.605,0.762,1.816v18.896c0,0.586-0.098,1.06-0.293,1.421
		C186.691,144.124,186.476,144.304,186.242,144.304z"/>
	<path fill="#FFFFFF" d="M193.595,143.836c-0.254,0-0.439-0.073-0.557-0.22s-0.176-0.483-0.176-1.011v-39.668
		c0-0.508,0.059-0.839,0.176-0.996c0.117-0.156,0.303-0.234,0.557-0.234h15.41c0.156,0,0.283,0.02,0.381,0.059
		c0.098,0.04,0.18,0.146,0.249,0.322c0.068,0.176,0.103,0.439,0.103,0.791v2.314c0,0.488-0.059,0.806-0.176,0.952
		s-0.303,0.22-0.557,0.22h-10.02c-0.234,0-0.352,0.322-0.352,0.967v11.836c0,0.176,0.034,0.352,0.103,0.527
		c0.068,0.176,0.132,0.264,0.19,0.264h8.057c0.488,0,0.732,0.45,0.732,1.348v2.256c0,0.898-0.245,1.348-0.732,1.348h-8.027
		c-0.078,0-0.151,0.098-0.22,0.293c-0.069,0.195-0.103,0.391-0.103,0.586v13.389h10.459c0.176,0,0.312,0.02,0.41,0.059
		c0.098,0.04,0.18,0.146,0.249,0.322c0.068,0.176,0.103,0.439,0.103,0.791v2.314c0,0.488-0.063,0.806-0.19,0.952
		c-0.127,0.146-0.318,0.22-0.571,0.22H193.595z"/>
	<path fill="#FFFFFF" d="M215.626,143.836c-0.254,0-0.439-0.083-0.557-0.249c-0.117-0.166-0.176-0.522-0.176-1.069v-39.463
		c0-0.586,0.059-0.957,0.176-1.113c0.117-0.156,0.303-0.234,0.557-0.234h9.844c1.23,0,2.28,0.069,3.149,0.205
		c0.869,0.137,1.762,0.43,2.681,0.879c0.918,0.45,1.655,1.074,2.212,1.875c0.557,0.801,1.015,1.895,1.377,3.281
		c0.361,1.387,0.542,3.057,0.542,5.01c0,1.465-0.107,2.739-0.322,3.823c-0.215,1.084-0.538,1.963-0.967,2.637
		c-0.43,0.674-0.894,1.206-1.392,1.597c-0.498,0.391-1.099,0.723-1.802,0.996c-0.059,0.059-0.088,0.117-0.088,0.176
		s0.029,0.107,0.088,0.146c0.703,0.333,1.274,0.674,1.714,1.025s0.883,0.864,1.333,1.538c0.449,0.674,0.791,1.587,1.025,2.739
		c0.234,1.153,0.381,2.568,0.439,4.248c0.078,1.523,0.117,5.02,0.117,10.488c0,0.977-0.176,1.465-0.527,1.465
		c-3.028,0.019-4.581,0.029-4.658,0.029c-0.313,0-0.479-0.439-0.498-1.318c0-0.136-0.059-2.324-0.176-6.563
		c-0.117-4.238-0.245-6.68-0.381-7.324c-0.059-0.801-0.22-1.469-0.483-2.007c-0.264-0.537-0.605-0.927-1.025-1.172
		c-0.42-0.244-0.835-0.41-1.245-0.498s-0.879-0.132-1.406-0.132h-4.189c-0.215,0-0.322,0.215-0.322,0.645v17.021
		c0,0.547-0.059,0.904-0.176,1.069c-0.117,0.166-0.303,0.249-0.557,0.249H215.626z M220.958,120.281h3.779
		c3.262,0,4.893-2.373,4.893-7.119c0-2.52-0.444-4.282-1.333-5.288c-0.889-1.006-2.378-1.509-4.468-1.509h-2.842
		c-0.215,0-0.322,0.195-0.322,0.586v12.539C220.666,120.017,220.763,120.281,220.958,120.281z"/>
	<path fill="#FFFFFF" d="M242.697,143.836c-0.254,0-0.439-0.073-0.557-0.22s-0.176-0.483-0.176-1.011v-39.668
		c0-0.508,0.059-0.839,0.176-0.996c0.117-0.156,0.303-0.234,0.557-0.234h15.41c0.156,0,0.283,0.02,0.381,0.059
		c0.098,0.04,0.18,0.146,0.249,0.322c0.068,0.176,0.103,0.439,0.103,0.791v2.314c0,0.488-0.059,0.806-0.176,0.952
		s-0.303,0.22-0.557,0.22h-10.02c-0.234,0-0.352,0.322-0.352,0.967v11.836c0,0.176,0.034,0.352,0.103,0.527
		c0.068,0.176,0.132,0.264,0.19,0.264h8.057c0.488,0,0.732,0.45,0.732,1.348v2.256c0,0.898-0.244,1.348-0.732,1.348h-8.027
		c-0.078,0-0.151,0.098-0.22,0.293c-0.069,0.195-0.103,0.391-0.103,0.586v13.389h10.459c0.176,0,0.313,0.02,0.41,0.059
		c0.098,0.04,0.18,0.146,0.249,0.322c0.068,0.176,0.103,0.439,0.103,0.791v2.314c0,0.488-0.063,0.806-0.19,0.952
		c-0.128,0.146-0.317,0.22-0.571,0.22H242.697z"/>
	<path fill="#FFFFFF" d="M275.07,144.275c-1.016,0-1.9-0.049-2.651-0.146c-0.752-0.098-1.567-0.317-2.446-0.659
		c-0.879-0.341-1.626-0.815-2.241-1.421c-0.615-0.605-1.23-1.445-1.846-2.52c-0.615-1.074-1.108-2.358-1.479-3.853
		s-0.674-3.33-0.908-5.508c-0.234-2.178-0.352-4.653-0.352-7.427c0-3.75,0.229-6.973,0.688-9.668
		c0.458-2.695,1.04-4.794,1.743-6.299c0.703-1.504,1.615-2.685,2.739-3.545c1.123-0.859,2.197-1.406,3.223-1.641
		s2.251-0.352,3.677-0.352c1.816,0,3.311,0.274,4.482,0.82c0.02,0.02,0.049,0.044,0.088,0.073s0.073,0.059,0.103,0.088
		s0.054,0.078,0.073,0.146c0.02,0.069,0.029,0.151,0.029,0.249v3.545c0,0.274-0.068,0.41-0.205,0.41c-0.02,0-0.093-0.019-0.22-0.059
		c-0.128-0.039-0.308-0.088-0.542-0.146s-0.488-0.117-0.762-0.176s-0.591-0.107-0.952-0.146c-0.362-0.039-0.718-0.059-1.069-0.059
		c-0.918,0-1.699,0.103-2.344,0.308s-1.299,0.645-1.963,1.318s-1.201,1.607-1.611,2.798c-0.41,1.191-0.742,2.823-0.996,4.893
		c-0.254,2.07-0.381,4.551-0.381,7.441c0,2.949,0.112,5.459,0.337,7.529c0.224,2.07,0.513,3.706,0.864,4.907s0.84,2.134,1.465,2.798
		c0.625,0.664,1.25,1.094,1.875,1.289c0.625,0.195,1.406,0.293,2.344,0.293c1.387,0,2.617-0.186,3.691-0.557
		c0.02,0,0.063,0.098,0.132,0.293c0.068,0.195,0.103,0.303,0.103,0.322v3.369c0,0.02-0.034,0.122-0.103,0.308
		c-0.069,0.186-0.112,0.289-0.132,0.308C278.332,144.051,276.847,144.275,275.07,144.275z"/>
	<path fill="#FFFFFF" d="M285.763,143.836c-0.273,0-0.469-0.083-0.586-0.249c-0.117-0.166-0.176-0.542-0.176-1.128v-39.375
		c0-0.586,0.059-0.962,0.176-1.128c0.117-0.166,0.313-0.249,0.586-0.249h4.248c0.273,0,0.469,0.083,0.586,0.249
		c0.117,0.166,0.176,0.542,0.176,1.128v15.586c0,0.176,0.033,0.333,0.103,0.469c0.068,0.137,0.132,0.205,0.19,0.205h8.789
		c0.059,0,0.127-0.073,0.205-0.22s0.117-0.308,0.117-0.483v-15.557c0-0.566,0.063-0.938,0.19-1.113
		c0.127-0.176,0.317-0.264,0.571-0.264h4.307c0.254,0,0.439,0.083,0.557,0.249c0.117,0.166,0.176,0.542,0.176,1.128v39.375
		c0,0.586-0.059,0.962-0.176,1.128c-0.117,0.166-0.303,0.249-0.557,0.249h-4.307c-0.176,0-0.313-0.024-0.41-0.073
		c-0.098-0.048-0.186-0.18-0.264-0.396c-0.078-0.215-0.117-0.517-0.117-0.908v-17.9c0-0.41-0.107-0.615-0.322-0.615h-8.701
		c-0.195,0-0.293,0.205-0.293,0.615v17.9c0,0.567-0.063,0.938-0.19,1.113c-0.128,0.176-0.317,0.264-0.571,0.264H285.763z"/>
	<path fill="#FFFFFF" d="M316.964,143.836c-0.234,0-0.415-0.092-0.542-0.278c-0.128-0.186-0.19-0.561-0.19-1.128v-35.273
		c0-0.488-0.107-0.732-0.322-0.732h-5.098c-0.195,0-0.337-0.015-0.425-0.044s-0.166-0.127-0.234-0.293
		c-0.069-0.166-0.103-0.425-0.103-0.776v-2.314c0-0.527,0.059-0.874,0.176-1.04c0.117-0.166,0.313-0.249,0.586-0.249h16.553
		c0.254,0,0.439,0.083,0.557,0.249c0.117,0.166,0.176,0.513,0.176,1.04v2.314c0,0.488-0.055,0.796-0.161,0.923
		c-0.107,0.127-0.298,0.19-0.571,0.19h-5.01c-0.215,0-0.322,0.245-0.322,0.732v35.273c0,0.586-0.063,0.967-0.19,1.143
		c-0.128,0.176-0.317,0.264-0.571,0.264H316.964z"/>
	<path fill="#FFFFFF" d="M332.96,143.836c-0.176,0-0.313-0.024-0.41-0.073c-0.098-0.048-0.181-0.18-0.249-0.396
		c-0.069-0.215-0.103-0.517-0.103-0.908v-39.375c0-0.566,0.063-0.938,0.19-1.113c0.127-0.176,0.317-0.264,0.571-0.264h4.307
		c0.156,0,0.283,0.025,0.381,0.073c0.098,0.049,0.18,0.181,0.249,0.396c0.068,0.215,0.103,0.518,0.103,0.908v39.375
		c0,0.567-0.059,0.938-0.176,1.113s-0.303,0.264-0.557,0.264H332.96z"/>
	<path fill="#FFFFFF" d="M364.572,144.304c-0.742,0-1.23-0.615-1.465-1.846c0-0.019-0.137-0.786-0.41-2.3
		c-0.273-1.513-0.41-2.377-0.41-2.593c0-0.195-0.029-0.293-0.088-0.293s-0.117,0.088-0.176,0.264
		c-0.332,2.188-1.051,3.857-2.153,5.01c-1.104,1.153-2.563,1.729-4.38,1.729c-0.879,0-1.68-0.059-2.402-0.176s-1.49-0.366-2.3-0.747
		c-0.811-0.381-1.528-0.883-2.153-1.509c-0.625-0.625-1.235-1.484-1.831-2.578c-0.597-1.094-1.084-2.377-1.465-3.853
		c-0.381-1.475-0.688-3.286-0.923-5.435c-0.234-2.148-0.352-4.56-0.352-7.236c0-2.773,0.142-5.254,0.425-7.441
		c0.282-2.187,0.654-4.023,1.113-5.508c0.458-1.484,1.05-2.764,1.772-3.838c0.723-1.074,1.45-1.909,2.183-2.505
		c0.732-0.596,1.606-1.064,2.622-1.406c1.016-0.341,1.943-0.561,2.783-0.659c0.84-0.098,1.816-0.146,2.93-0.146
		c0.82,0,1.714,0.107,2.681,0.322c0.967,0.215,1.733,0.45,2.3,0.703c0.02,0.02,0.063,0.049,0.132,0.088
		c0.068,0.04,0.122,0.093,0.161,0.161c0.039,0.069,0.059,0.171,0.059,0.308v3.604c0,0.274-0.078,0.41-0.234,0.41
		c-0.02,0-0.132-0.029-0.337-0.088s-0.479-0.132-0.82-0.22c-0.342-0.088-0.714-0.171-1.113-0.249
		c-0.4-0.078-0.825-0.146-1.274-0.205s-0.859-0.088-1.23-0.088c-1.035,0-1.924,0.103-2.666,0.308s-1.494,0.645-2.256,1.318
		s-1.377,1.607-1.846,2.798c-0.469,1.191-0.85,2.823-1.143,4.893c-0.293,2.07-0.439,4.551-0.439,7.441
		c0,2.735,0.107,5.112,0.322,7.134s0.498,3.647,0.85,4.878s0.806,2.217,1.362,2.959c0.557,0.743,1.123,1.245,1.699,1.509
		c0.575,0.264,1.245,0.396,2.007,0.396c0.898,0,1.645-0.264,2.241-0.791c0.596-0.527,1.044-1.337,1.348-2.432
		c0.303-1.094,0.508-2.295,0.615-3.604c0.106-1.308,0.161-2.939,0.161-4.893c0-0.879-0.088-1.318-0.264-1.318h-3.311
		c-0.176,0-0.318-0.024-0.425-0.073c-0.107-0.048-0.205-0.171-0.293-0.366c-0.088-0.195-0.132-0.469-0.132-0.82v-2.402
		c0-0.527,0.073-0.874,0.22-1.04c0.146-0.166,0.347-0.249,0.601-0.249h7.881c0.508,0,0.762,0.605,0.762,1.816v18.896
		c0,0.586-0.098,1.06-0.293,1.421S364.806,144.304,364.572,144.304z"/>
	<path fill="#FFFFFF" d="M371.925,143.836c-0.488,0-0.732-0.527-0.732-1.582v-38.965c0-1.055,0.244-1.582,0.732-1.582h4.277
		c0.508,0,0.762,0.527,0.762,1.582v19.307l7.178-19.395c0.352-0.996,0.771-1.494,1.26-1.494h4.336c0.41,0,0.615,0.225,0.615,0.674
		c0,0.274-0.059,0.557-0.176,0.85l-7.09,18.047c-0.137,0.469-0.205,0.831-0.205,1.084c0,0.254,0.039,0.527,0.117,0.82l7.559,19.043
		c0.137,0.352,0.205,0.664,0.205,0.938c0,0.45-0.127,0.674-0.381,0.674h-4.277c-0.527,0-0.986-0.508-1.377-1.523l-7.734-18.34v18.34
		c0,1.016-0.264,1.523-0.791,1.523H371.925z"/>
	<path fill="#FFFFFF" d="M395.773,143.836c-0.254,0-0.439-0.073-0.557-0.22s-0.176-0.483-0.176-1.011v-39.668
		c0-0.508,0.059-0.839,0.176-0.996c0.117-0.156,0.303-0.234,0.557-0.234h15.41c0.156,0,0.283,0.02,0.381,0.059
		c0.098,0.04,0.18,0.146,0.249,0.322c0.068,0.176,0.103,0.439,0.103,0.791v2.314c0,0.488-0.059,0.806-0.176,0.952
		s-0.303,0.22-0.557,0.22h-10.02c-0.234,0-0.352,0.322-0.352,0.967v11.836c0,0.176,0.033,0.352,0.103,0.527
		c0.068,0.176,0.132,0.264,0.19,0.264h8.057c0.488,0,0.732,0.45,0.732,1.348v2.256c0,0.898-0.244,1.348-0.732,1.348h-8.027
		c-0.078,0-0.151,0.098-0.22,0.293c-0.069,0.195-0.103,0.391-0.103,0.586v13.389h10.459c0.176,0,0.313,0.02,0.41,0.059
		c0.098,0.04,0.18,0.146,0.249,0.322c0.068,0.176,0.103,0.439,0.103,0.791v2.314c0,0.488-0.063,0.806-0.19,0.952
		c-0.128,0.146-0.317,0.22-0.571,0.22H395.773z"/>
	<path fill="#FFFFFF" d="M417.863,143.836c-0.176,0-0.313-0.024-0.41-0.073c-0.098-0.048-0.181-0.18-0.249-0.396
		c-0.069-0.215-0.103-0.517-0.103-0.908v-39.375c0-0.566,0.063-0.938,0.19-1.113c0.127-0.176,0.317-0.264,0.571-0.264h4.307
		c0.156,0,0.283,0.025,0.381,0.073c0.098,0.049,0.18,0.181,0.249,0.396c0.068,0.215,0.103,0.518,0.103,0.908v39.375
		c0,0.567-0.059,0.938-0.176,1.113s-0.303,0.264-0.557,0.264H417.863z"/>
	<path fill="#FFFFFF" d="M433.888,143.836c-0.234,0-0.415-0.092-0.542-0.278c-0.128-0.186-0.19-0.561-0.19-1.128v-35.273
		c0-0.488-0.107-0.732-0.322-0.732h-5.098c-0.195,0-0.337-0.015-0.425-0.044s-0.166-0.127-0.234-0.293
		c-0.069-0.166-0.103-0.425-0.103-0.776v-2.314c0-0.527,0.059-0.874,0.176-1.04c0.117-0.166,0.313-0.249,0.586-0.249h16.553
		c0.254,0,0.439,0.083,0.557,0.249c0.117,0.166,0.176,0.513,0.176,1.04v2.314c0,0.488-0.055,0.796-0.161,0.923
		c-0.107,0.127-0.298,0.19-0.571,0.19h-5.01c-0.215,0-0.322,0.245-0.322,0.732v35.273c0,0.586-0.063,0.967-0.19,1.143
		c-0.128,0.176-0.317,0.264-0.571,0.264H433.888z"/>
	<path fill="#FFFFFF" d="M177.101,204.275c-1.055,0-1.963-0.044-2.725-0.132s-1.553-0.273-2.373-0.557s-1.514-0.679-2.08-1.187
		c-0.567-0.508-1.118-1.196-1.655-2.065c-0.538-0.869-0.962-1.919-1.274-3.149c-0.313-1.23-0.562-2.715-0.747-4.453
		c-0.186-1.738-0.278-3.73-0.278-5.977v-23.672c0-0.566,0.063-0.938,0.19-1.113c0.127-0.176,0.317-0.264,0.571-0.264h4.307
		c0.156,0,0.283,0.024,0.381,0.073c0.098,0.049,0.18,0.181,0.249,0.396c0.068,0.215,0.103,0.518,0.103,0.908v23.496
		c0,2.305,0.068,4.238,0.205,5.801c0.136,1.563,0.332,2.822,0.586,3.779c0.253,0.957,0.61,1.685,1.069,2.183
		c0.458,0.498,0.942,0.83,1.45,0.996c0.508,0.166,1.172,0.249,1.992,0.249c1.035,0,1.835-0.117,2.402-0.352
		c0.566-0.234,1.084-0.791,1.553-1.67s0.786-2.188,0.952-3.926c0.166-1.738,0.249-4.092,0.249-7.061v-23.496
		c0-0.586,0.059-0.962,0.176-1.128s0.303-0.249,0.557-0.249h4.336c0.156,0,0.278,0.024,0.366,0.073s0.166,0.181,0.234,0.396
		c0.068,0.215,0.103,0.518,0.103,0.908v23.672c0,2.266-0.093,4.282-0.278,6.05c-0.186,1.768-0.435,3.262-0.747,4.482
		c-0.313,1.221-0.737,2.261-1.274,3.12c-0.538,0.859-1.084,1.538-1.641,2.036s-1.241,0.889-2.051,1.172
		c-0.811,0.283-1.578,0.464-2.3,0.542C178.986,204.236,178.116,204.275,177.101,204.275z"/>
	<path fill="#FFFFFF" d="M195.119,203.836c-0.254,0-0.444-0.098-0.571-0.293c-0.127-0.195-0.19-0.586-0.19-1.172V163.26
		c0-1.035,0.253-1.553,0.762-1.553h4.453c0.41,0,0.762,0.381,1.055,1.143l9.932,26.689c0.039,0.137,0.098,0.098,0.176-0.117
		l0.029-0.264V163.26c0-1.035,0.264-1.553,0.791-1.553h3.486c0.488,0,0.732,0.518,0.732,1.553v39.229
		c0,0.586-0.059,0.962-0.176,1.128s-0.303,0.249-0.557,0.249h-3.164c-0.195,0-0.406-0.117-0.63-0.352
		c-0.225-0.234-0.406-0.527-0.542-0.879l-11.045-28.828c-0.078-0.156-0.137-0.107-0.176,0.146c-0.02,0.059-0.029,0.127-0.029,0.205
		v28.213c0,0.586-0.063,0.977-0.19,1.172c-0.127,0.195-0.327,0.293-0.601,0.293H195.119z"/>
	<path fill="#FFFFFF" d="M223.273,203.836c-0.254,0-0.439-0.078-0.557-0.234s-0.176-0.508-0.176-1.055v-39.668
		c0-0.488,0.059-0.806,0.176-0.952s0.303-0.22,0.557-0.22h10.078c1.718,0,3.208,0.342,4.468,1.025s2.368,1.807,3.325,3.369
		c0.957,1.563,1.674,3.706,2.153,6.431c0.479,2.725,0.718,6.04,0.718,9.946c0,2.773-0.088,5.22-0.264,7.339
		s-0.406,3.936-0.688,5.449c-0.283,1.514-0.688,2.793-1.216,3.838s-1.074,1.875-1.641,2.49c-0.567,0.615-1.279,1.089-2.139,1.421
		c-0.86,0.332-1.695,0.552-2.505,0.659c-0.811,0.107-1.812,0.161-3.003,0.161H223.273z M228.693,199.177h3.604
		c1.504,0,2.666-0.449,3.486-1.348s1.431-2.544,1.831-4.937c0.4-2.393,0.601-5.835,0.601-10.327c0-4.16-0.23-7.451-0.688-9.873
		c-0.459-2.422-1.089-4.082-1.89-4.98c-0.801-0.898-1.846-1.348-3.135-1.348h-3.838c-0.234,0-0.352,0.215-0.352,0.645v31.523
		C228.312,198.963,228.439,199.177,228.693,199.177z"/>
	<path fill="#FFFFFF" d="M266.134,161.238c3.672,0,6.533,1.338,8.584,4.014c0.195,0.254,0.293,0.557,0.293,0.908
		c0,0.684-0.289,1.406-0.864,2.168c-0.576,0.762-1.06,1.143-1.45,1.143c-0.117,0-0.205-0.039-0.264-0.117
		c-1.738-2.109-3.809-3.164-6.211-3.164c-1.348,0-2.432,0.571-3.252,1.714s-1.23,2.534-1.23,4.175c0,1.543,0.352,2.803,1.055,3.779
		s1.709,1.885,3.018,2.725l3.721,2.402c3.926,2.539,5.889,6.25,5.889,11.133c0,3.574-0.908,6.494-2.725,8.76
		s-4.258,3.398-7.324,3.398c-4.141,0-7.402-1.787-9.785-5.361c-0.117-0.176-0.176-0.4-0.176-0.674c0-0.684,0.278-1.431,0.835-2.241
		s1.089-1.216,1.597-1.216c0.195,0,0.371,0.088,0.527,0.264c2.188,2.793,4.521,4.189,7.002,4.189c1.523,0,2.715-0.591,3.574-1.772
		s1.289-2.681,1.289-4.497c0-1.641-0.342-2.974-1.025-3.999s-1.729-1.997-3.135-2.915l-3.75-2.52
		c-0.82-0.547-1.533-1.113-2.139-1.699s-1.187-1.294-1.743-2.124s-0.986-1.807-1.289-2.93c-0.304-1.123-0.454-2.358-0.454-3.706
		c0-3.516,0.854-6.367,2.563-8.555C260.973,162.332,263.263,161.238,266.134,161.238z"/>
	<path fill="#FFFFFF" d="M284.562,203.836c-0.234,0-0.415-0.093-0.542-0.278c-0.128-0.186-0.19-0.562-0.19-1.128v-35.273
		c0-0.488-0.107-0.732-0.322-0.732h-5.098c-0.195,0-0.337-0.015-0.425-0.044s-0.166-0.127-0.234-0.293
		c-0.069-0.166-0.103-0.425-0.103-0.776v-2.314c0-0.527,0.059-0.874,0.176-1.04s0.313-0.249,0.586-0.249h16.553
		c0.254,0,0.439,0.083,0.557,0.249s0.176,0.513,0.176,1.04v2.314c0,0.488-0.055,0.796-0.161,0.923
		c-0.107,0.127-0.298,0.19-0.571,0.19h-5.01c-0.215,0-0.322,0.244-0.322,0.732v35.273c0,0.586-0.063,0.967-0.19,1.143
		c-0.128,0.176-0.317,0.264-0.571,0.264H284.562z"/>
	<path fill="#FFFFFF" d="M298.214,203.836c-0.293,0-0.439-0.283-0.439-0.85v-0.498c0-0.254,0.01-0.42,0.029-0.498l6.592-38.818
		c0.156-0.938,0.518-1.426,1.084-1.465h5.947c0.547,0.039,0.898,0.527,1.055,1.465l6.475,38.818c0,0.059,0.015,0.166,0.044,0.322
		s0.048,0.293,0.059,0.41c0.01,0.117,0.015,0.215,0.015,0.293c0,0.547-0.166,0.82-0.498,0.82h-4.834c-0.469,0-0.771-0.4-0.908-1.201
		l-1.084-7.471c-0.059-0.43-0.166-0.645-0.322-0.645h-7.09c-0.137,0-0.244,0.225-0.322,0.674l-1.23,7.412
		c-0.078,0.488-0.176,0.815-0.293,0.981s-0.293,0.249-0.527,0.249H298.214z M305.187,190.857h5.977c0.137,0,0.205-0.176,0.205-0.527
		c0-0.117-0.02-0.205-0.059-0.264l-2.9-22.588c-0.02-0.137-0.049-0.205-0.088-0.205c-0.059,0-0.098,0.059-0.117,0.176l-3.428,22.588
		c-0.02,0.137-0.029,0.225-0.029,0.264C304.748,190.672,304.894,190.857,305.187,190.857z"/>
	<path fill="#FFFFFF" d="M324.435,203.836c-0.254,0-0.439-0.083-0.557-0.249s-0.176-0.522-0.176-1.069v-39.463
		c0-0.586,0.059-0.957,0.176-1.113s0.303-0.234,0.557-0.234h9.844c1.23,0,2.28,0.068,3.149,0.205
		c0.868,0.137,1.763,0.43,2.681,0.879s1.655,1.074,2.212,1.875s1.015,1.895,1.377,3.281c0.361,1.387,0.542,3.057,0.542,5.01
		c0,1.465-0.107,2.739-0.322,3.823s-0.537,1.963-0.967,2.637s-0.894,1.206-1.392,1.597s-1.099,0.723-1.802,0.996
		c-0.059,0.059-0.088,0.117-0.088,0.176s0.029,0.107,0.088,0.146c0.703,0.332,1.274,0.674,1.714,1.025s0.884,0.864,1.333,1.538
		s0.791,1.587,1.025,2.739s0.381,2.568,0.439,4.248c0.078,1.523,0.117,5.02,0.117,10.488c0,0.977-0.176,1.465-0.527,1.465
		c-3.027,0.02-4.58,0.029-4.658,0.029c-0.313,0-0.479-0.439-0.498-1.318c0-0.137-0.059-2.324-0.176-6.563s-0.244-6.68-0.381-7.324
		c-0.059-0.801-0.22-1.47-0.483-2.007s-0.605-0.928-1.025-1.172c-0.421-0.244-0.835-0.41-1.245-0.498s-0.879-0.132-1.406-0.132
		h-4.189c-0.215,0-0.322,0.215-0.322,0.645v17.021c0,0.547-0.059,0.903-0.176,1.069s-0.303,0.249-0.557,0.249H324.435z
		 M329.767,180.281h3.779c3.262,0,4.893-2.373,4.893-7.119c0-2.52-0.444-4.282-1.333-5.288c-0.89-1.006-2.378-1.509-4.468-1.509
		h-2.842c-0.215,0-0.322,0.195-0.322,0.586v12.539C329.474,180.017,329.572,180.281,329.767,180.281z"/>
	<path fill="#FFFFFF" d="M351.505,203.836c-0.488,0-0.732-0.527-0.732-1.582v-38.965c0-1.055,0.244-1.582,0.732-1.582h4.277
		c0.508,0,0.762,0.527,0.762,1.582v19.307l7.178-19.395c0.352-0.996,0.771-1.494,1.26-1.494h4.336c0.41,0,0.615,0.225,0.615,0.674
		c0,0.273-0.059,0.557-0.176,0.85l-7.09,18.047c-0.137,0.469-0.205,0.83-0.205,1.084s0.039,0.527,0.117,0.82l7.559,19.043
		c0.137,0.352,0.205,0.664,0.205,0.938c0,0.449-0.127,0.674-0.381,0.674h-4.277c-0.527,0-0.986-0.508-1.377-1.523l-7.734-18.34
		v18.34c0,1.016-0.264,1.523-0.791,1.523H351.505z"/>
	<path fill="#FFFFFF" d="M375.353,203.836c-0.254,0-0.439-0.073-0.557-0.22s-0.176-0.483-0.176-1.011v-39.668
		c0-0.508,0.059-0.84,0.176-0.996s0.303-0.234,0.557-0.234h15.41c0.156,0,0.283,0.02,0.381,0.059s0.18,0.146,0.249,0.322
		c0.068,0.176,0.103,0.439,0.103,0.791v2.314c0,0.488-0.059,0.806-0.176,0.952s-0.303,0.22-0.557,0.22h-10.02
		c-0.234,0-0.352,0.322-0.352,0.967v11.836c0,0.176,0.033,0.352,0.103,0.527c0.068,0.176,0.132,0.264,0.19,0.264h8.057
		c0.488,0,0.732,0.449,0.732,1.348v2.256c0,0.898-0.244,1.348-0.732,1.348h-8.027c-0.078,0-0.151,0.098-0.22,0.293
		c-0.069,0.195-0.103,0.391-0.103,0.586v13.389h10.459c0.176,0,0.313,0.02,0.41,0.059s0.18,0.146,0.249,0.322
		c0.068,0.176,0.103,0.439,0.103,0.791v2.314c0,0.488-0.063,0.806-0.19,0.952c-0.128,0.146-0.317,0.22-0.571,0.22H375.353z"/>
	<path fill="#FFFFFF" d="M167.228,263.836c-0.176,0-0.313-0.024-0.41-0.073c-0.098-0.049-0.181-0.181-0.249-0.396
		c-0.069-0.215-0.103-0.518-0.103-0.908v-39.375c0-0.566,0.063-0.938,0.19-1.113c0.127-0.176,0.317-0.264,0.571-0.264h4.307
		c0.156,0,0.283,0.024,0.381,0.073c0.098,0.049,0.18,0.181,0.249,0.396c0.068,0.215,0.103,0.518,0.103,0.908v39.375
		c0,0.566-0.059,0.938-0.176,1.113s-0.303,0.264-0.557,0.264H167.228z"/>
	<path fill="#FFFFFF" d="M179.796,263.836c-0.254,0-0.444-0.098-0.571-0.293c-0.127-0.195-0.19-0.586-0.19-1.172V223.26
		c0-1.035,0.253-1.553,0.762-1.553h4.453c0.41,0,0.762,0.381,1.055,1.143l9.932,26.689c0.039,0.137,0.098,0.098,0.176-0.117
		l0.029-0.264V223.26c0-1.035,0.264-1.553,0.791-1.553h3.486c0.488,0,0.732,0.518,0.732,1.553v39.229
		c0,0.586-0.059,0.962-0.176,1.128s-0.303,0.249-0.557,0.249h-3.164c-0.195,0-0.406-0.117-0.63-0.352
		c-0.225-0.234-0.406-0.527-0.542-0.879l-11.045-28.828c-0.078-0.156-0.137-0.107-0.176,0.146c-0.02,0.059-0.029,0.127-0.029,0.205
		v28.213c0,0.586-0.063,0.977-0.19,1.172c-0.127,0.195-0.327,0.293-0.601,0.293H179.796z"/>
	<path fill="#FFFFFF" d="M215.744,221.238c3.672,0,6.533,1.338,8.584,4.014c0.195,0.254,0.293,0.557,0.293,0.908
		c0,0.684-0.289,1.406-0.864,2.168c-0.576,0.762-1.06,1.143-1.45,1.143c-0.117,0-0.205-0.039-0.264-0.117
		c-1.739-2.109-3.809-3.164-6.211-3.164c-1.348,0-2.432,0.571-3.252,1.714s-1.23,2.534-1.23,4.175c0,1.543,0.352,2.803,1.055,3.779
		s1.709,1.885,3.018,2.725l3.721,2.402c3.926,2.539,5.889,6.25,5.889,11.133c0,3.574-0.908,6.494-2.725,8.76
		s-4.258,3.398-7.324,3.398c-4.141,0-7.402-1.787-9.785-5.361c-0.117-0.176-0.176-0.4-0.176-0.674c0-0.684,0.278-1.431,0.835-2.241
		s1.088-1.216,1.597-1.216c0.195,0,0.371,0.088,0.527,0.264c2.187,2.793,4.521,4.189,7.002,4.189c1.523,0,2.714-0.591,3.574-1.772
		c0.859-1.182,1.289-2.681,1.289-4.497c0-1.641-0.342-2.974-1.025-3.999c-0.684-1.025-1.729-1.997-3.135-2.915l-3.75-2.52
		c-0.82-0.547-1.534-1.113-2.139-1.699c-0.605-0.586-1.187-1.294-1.743-2.124s-0.986-1.807-1.289-2.93
		c-0.303-1.123-0.454-2.358-0.454-3.706c0-3.516,0.854-6.367,2.563-8.555C210.583,222.332,212.873,221.238,215.744,221.238z"/>
	<path fill="#FFFFFF" d="M234.171,263.836c-0.234,0-0.415-0.093-0.542-0.278c-0.127-0.186-0.19-0.562-0.19-1.128v-35.273
		c0-0.488-0.107-0.732-0.322-0.732h-5.098c-0.195,0-0.337-0.015-0.425-0.044s-0.166-0.127-0.234-0.293
		c-0.069-0.166-0.103-0.425-0.103-0.776v-2.314c0-0.527,0.059-0.874,0.176-1.04s0.312-0.249,0.586-0.249h16.553
		c0.253,0,0.439,0.083,0.557,0.249s0.176,0.513,0.176,1.04v2.314c0,0.488-0.054,0.796-0.161,0.923
		c-0.107,0.127-0.298,0.19-0.571,0.19h-5.01c-0.215,0-0.322,0.244-0.322,0.732v35.273c0,0.586-0.063,0.967-0.19,1.143
		c-0.127,0.176-0.318,0.264-0.571,0.264H234.171z"/>
	<path fill="#FFFFFF" d="M250.167,263.836c-0.176,0-0.313-0.024-0.41-0.073c-0.098-0.049-0.181-0.181-0.249-0.396
		c-0.069-0.215-0.103-0.518-0.103-0.908v-39.375c0-0.566,0.063-0.938,0.19-1.113c0.127-0.176,0.317-0.264,0.571-0.264h4.307
		c0.156,0,0.283,0.024,0.381,0.073s0.18,0.181,0.249,0.396c0.068,0.215,0.103,0.518,0.103,0.908v39.375
		c0,0.566-0.059,0.938-0.176,1.113s-0.303,0.264-0.557,0.264H250.167z"/>
	<path fill="#FFFFFF" d="M266.193,263.836c-0.234,0-0.415-0.093-0.542-0.278c-0.128-0.186-0.19-0.562-0.19-1.128v-35.273
		c0-0.488-0.107-0.732-0.322-0.732h-5.098c-0.195,0-0.337-0.015-0.425-0.044s-0.166-0.127-0.234-0.293
		c-0.069-0.166-0.103-0.425-0.103-0.776v-2.314c0-0.527,0.059-0.874,0.176-1.04s0.313-0.249,0.586-0.249h16.553
		c0.254,0,0.439,0.083,0.557,0.249s0.176,0.513,0.176,1.04v2.314c0,0.488-0.055,0.796-0.161,0.923
		c-0.107,0.127-0.298,0.19-0.571,0.19h-5.01c-0.215,0-0.322,0.244-0.322,0.732v35.273c0,0.586-0.063,0.967-0.19,1.143
		c-0.128,0.176-0.317,0.264-0.571,0.264H266.193z"/>
	<path fill="#FFFFFF" d="M292.062,264.275c-1.055,0-1.963-0.044-2.725-0.132s-1.553-0.273-2.373-0.557s-1.514-0.679-2.08-1.187
		s-1.118-1.196-1.655-2.065c-0.538-0.869-0.962-1.919-1.274-3.149s-0.562-2.715-0.747-4.453c-0.187-1.738-0.278-3.73-0.278-5.977
		v-23.672c0-0.566,0.063-0.938,0.19-1.113c0.127-0.176,0.317-0.264,0.571-0.264h4.307c0.156,0,0.283,0.024,0.381,0.073
		s0.18,0.181,0.249,0.396c0.068,0.215,0.103,0.518,0.103,0.908v23.496c0,2.305,0.068,4.238,0.205,5.801s0.332,2.822,0.586,3.779
		s0.61,1.685,1.069,2.183c0.458,0.498,0.942,0.83,1.45,0.996s1.172,0.249,1.992,0.249c1.035,0,1.836-0.117,2.402-0.352
		s1.084-0.791,1.553-1.67s0.786-2.188,0.952-3.926c0.165-1.738,0.249-4.092,0.249-7.061v-23.496c0-0.586,0.059-0.962,0.176-1.128
		s0.303-0.249,0.557-0.249h4.336c0.156,0,0.278,0.024,0.366,0.073s0.165,0.181,0.234,0.396c0.068,0.215,0.103,0.518,0.103,0.908
		v23.672c0,2.266-0.093,4.282-0.278,6.05c-0.187,1.768-0.435,3.262-0.747,4.482s-0.737,2.261-1.274,3.12
		c-0.538,0.859-1.084,1.538-1.641,2.036s-1.241,0.889-2.051,1.172c-0.811,0.283-1.577,0.464-2.3,0.542
		S293.078,264.275,292.062,264.275z"/>
	<path fill="#FFFFFF" d="M313.537,263.836c-0.234,0-0.415-0.093-0.542-0.278c-0.128-0.186-0.19-0.562-0.19-1.128v-35.273
		c0-0.488-0.107-0.732-0.322-0.732h-5.098c-0.195,0-0.337-0.015-0.425-0.044s-0.166-0.127-0.234-0.293
		c-0.069-0.166-0.103-0.425-0.103-0.776v-2.314c0-0.527,0.059-0.874,0.176-1.04s0.313-0.249,0.586-0.249h16.553
		c0.254,0,0.439,0.083,0.557,0.249s0.176,0.513,0.176,1.04v2.314c0,0.488-0.055,0.796-0.161,0.923
		c-0.107,0.127-0.298,0.19-0.571,0.19h-5.01c-0.215,0-0.322,0.244-0.322,0.732v35.273c0,0.586-0.063,0.967-0.19,1.143
		c-0.128,0.176-0.317,0.264-0.571,0.264H313.537z"/>
	<path fill="#FFFFFF" d="M329.533,263.836c-0.176,0-0.313-0.024-0.41-0.073s-0.181-0.181-0.249-0.396
		c-0.069-0.215-0.103-0.518-0.103-0.908v-39.375c0-0.566,0.063-0.938,0.19-1.113c0.127-0.176,0.317-0.264,0.571-0.264h4.307
		c0.156,0,0.283,0.024,0.381,0.073s0.18,0.181,0.249,0.396c0.068,0.215,0.103,0.518,0.103,0.908v39.375
		c0,0.566-0.059,0.938-0.176,1.113s-0.303,0.264-0.557,0.264H329.533z"/>
	<path fill="#FFFFFF" d="M351.476,264.275c-1.621,0-2.993-0.176-4.116-0.527c-1.124-0.352-2.144-0.991-3.062-1.919
		s-1.641-2.212-2.168-3.853s-0.934-3.716-1.216-6.226c-0.283-2.51-0.425-5.571-0.425-9.185c0-2.891,0.092-5.43,0.278-7.617
		c0.186-2.188,0.487-4.072,0.908-5.654c0.42-1.582,0.913-2.891,1.479-3.926s1.279-1.86,2.139-2.476s1.777-1.045,2.754-1.289
		s2.119-0.366,3.428-0.366c1.582,0,2.934,0.181,4.058,0.542c1.123,0.361,2.144,1.001,3.062,1.919s1.65,2.183,2.197,3.794
		s0.962,3.652,1.245,6.123c0.282,2.471,0.425,5.454,0.425,8.95c0,3.633-0.137,6.709-0.41,9.229s-0.674,4.6-1.201,6.24
		s-1.25,2.915-2.168,3.823s-1.938,1.538-3.062,1.89C354.498,264.099,353.117,264.275,351.476,264.275z M351.447,259.646
		c1.367,0,2.412-0.464,3.135-1.392s1.25-2.607,1.582-5.039s0.498-5.981,0.498-10.649c0-4.512-0.156-7.93-0.469-10.254
		s-0.825-3.96-1.538-4.907c-0.714-0.947-1.772-1.421-3.179-1.421c-1.367,0-2.417,0.483-3.149,1.45s-1.255,2.622-1.567,4.966
		s-0.469,5.732-0.469,10.166c0,4.629,0.166,8.159,0.498,10.591s0.854,4.121,1.567,5.068
		C349.069,259.173,350.099,259.646,351.447,259.646z"/>
	<path fill="#FFFFFF" d="M369.171,263.836c-0.254,0-0.444-0.098-0.571-0.293c-0.128-0.195-0.19-0.586-0.19-1.172V223.26
		c0-1.035,0.254-1.553,0.762-1.553h4.453c0.41,0,0.762,0.381,1.055,1.143l9.932,26.689c0.039,0.137,0.098,0.098,0.176-0.117
		l0.029-0.264V223.26c0-1.035,0.264-1.553,0.791-1.553h3.486c0.488,0,0.732,0.518,0.732,1.553v39.229
		c0,0.586-0.059,0.962-0.176,1.128s-0.303,0.249-0.557,0.249h-3.164c-0.195,0-0.406-0.117-0.63-0.352
		c-0.225-0.234-0.405-0.527-0.542-0.879l-11.045-28.828c-0.078-0.156-0.137-0.107-0.176,0.146c-0.02,0.059-0.029,0.127-0.029,0.205
		v28.213c0,0.586-0.063,0.977-0.19,1.172c-0.128,0.195-0.327,0.293-0.601,0.293H369.171z"/>
	<path fill="#FFFFFF" d="M397.326,263.836c-0.254,0-0.439-0.073-0.557-0.22s-0.176-0.483-0.176-1.011v-39.668
		c0-0.508,0.059-0.84,0.176-0.996s0.303-0.234,0.557-0.234h15.41c0.156,0,0.283,0.02,0.381,0.059s0.18,0.146,0.249,0.322
		c0.068,0.176,0.103,0.439,0.103,0.791v2.314c0,0.488-0.059,0.806-0.176,0.952s-0.303,0.22-0.557,0.22h-10.02
		c-0.234,0-0.352,0.322-0.352,0.967v11.836c0,0.176,0.033,0.352,0.103,0.527c0.068,0.176,0.132,0.264,0.19,0.264h8.057
		c0.488,0,0.732,0.449,0.732,1.348v2.256c0,0.898-0.244,1.348-0.732,1.348h-8.027c-0.078,0-0.151,0.098-0.22,0.293
		c-0.069,0.195-0.103,0.391-0.103,0.586v13.389h10.459c0.176,0,0.313,0.02,0.41,0.059s0.18,0.146,0.249,0.322
		c0.068,0.176,0.103,0.439,0.103,0.791v2.314c0,0.488-0.063,0.806-0.19,0.952c-0.128,0.146-0.317,0.22-0.571,0.22H397.326z"/>
	<path fill="#FFFFFF" d="M419.386,263.836c-0.254,0-0.444-0.098-0.571-0.293c-0.128-0.195-0.19-0.586-0.19-1.172V223.26
		c0-1.035,0.254-1.553,0.762-1.553h4.453c0.41,0,0.762,0.381,1.055,1.143l9.932,26.689c0.039,0.137,0.098,0.098,0.176-0.117
		l0.029-0.264V223.26c0-1.035,0.264-1.553,0.791-1.553h3.486c0.488,0,0.732,0.518,0.732,1.553v39.229
		c0,0.586-0.059,0.962-0.176,1.128s-0.303,0.249-0.557,0.249h-3.164c-0.195,0-0.406-0.117-0.63-0.352
		c-0.225-0.234-0.405-0.527-0.542-0.879l-11.045-28.828c-0.078-0.156-0.137-0.107-0.176,0.146c-0.02,0.059-0.029,0.127-0.029,0.205
		v28.213c0,0.586-0.063,0.977-0.19,1.172c-0.128,0.195-0.327,0.293-0.601,0.293H419.386z"/>
</g>
</svg>
