<?xml version="1.0" encoding="UTF-8" standalone="no"?>
<svg
   xmlns:dc="http://purl.org/dc/elements/1.1/"
   xmlns:cc="http://creativecommons.org/ns#"
   xmlns:rdf="http://www.w3.org/1999/02/22-rdf-syntax-ns#"
   xmlns:svg="http://www.w3.org/2000/svg"
   xmlns="http://www.w3.org/2000/svg"
   viewBox="0 0 375 375"
   height="375"
   width="375"
   xml:space="preserve"
   version="1.1"
   id="svg2"><metadata
     id="metadata8"><rdf:RDF><cc:Work
         rdf:about=""><dc:format>image/svg+xml</dc:format><dc:type
           rdf:resource="http://purl.org/dc/dcmitype/StillImage" /></cc:Work></rdf:RDF></metadata><defs
     id="defs6" /><g
     transform="matrix(1.25,0,0,-1.25,0,375)"
     id="g10"><g
       transform="scale(0.1,0.1)"
       id="g12"><path
         id="path14"
         style="fill:#ce8e95;fill-opacity:1;fill-rule:nonzero;stroke:none"
         d="m 3000,529.785 c 0,-67.64 0,-529.78890625 -715,-529.78890625 l -1625,0 C 35,-0.00390625 0,472.145 0,539.785 L 0,2399.77 c 0,545 592.352,600 660,600 l 1615,0.3 c 67.65,0 725,-0.3 725,-600.3" /><path
         id="path16"
         style="fill:#26080d;fill-opacity:1;fill-rule:nonzero;stroke:none"
         d="m 836.109,752.719 0,-132.453 -0.953,0 c -10.562,17.281 -33.593,30.718 -65.75,30.718 -56.14,0 -105.093,-46.546 -104.609,-124.781 0,-71.969 44.141,-119.484 99.812,-119.484 34.079,0 62.391,16.312 76.297,42.234 l 0.969,0 2.391,-36.953 52.797,0 c -0.969,15.828 -1.922,41.75 -1.922,65.75 l 0,274.969 -59.032,0 z m 0,-239.469 c 0,-6.234 -0.484,-12 -1.921,-17.266 -5.75,-25.437 -26.875,-41.75 -50.86,-41.75 -37.437,0 -58.547,31.188 -58.547,73.891 0,43.672 21.11,77.266 59.016,77.266 26.875,0 45.594,-18.719 50.875,-41.75 0.953,-4.797 1.437,-10.563 1.437,-15.36 l 0,-35.031" /><path
         id="path18"
         style="fill:#26080d;fill-opacity:1;fill-rule:nonzero;stroke:none"
         d="m 1018.17,412 0,233.703 -59.498,0 0,-233.703 59.498,0 z m -29.748,331.109 c -19.672,0 -33.109,-13.906 -33.109,-32.14 0,-17.766 12.953,-31.672 32.625,-31.672 20.642,0 33.592,13.906 33.592,31.672 -0.47,18.234 -12.95,32.14 -33.108,32.14" /><path
         id="path20"
         style="fill:#26080d;fill-opacity:1;fill-rule:nonzero;stroke:none"
         d="m 1067.28,423.516 c 17.27,-9.594 42.7,-16.313 71.02,-16.313 61.9,0 95.01,30.703 95.01,72.938 -0.48,34.547 -20.15,56.14 -62.39,71.5 -29.75,10.562 -40.78,17.765 -40.78,32.64 0,14.391 11.52,24.469 32.63,24.469 20.64,0 39.36,-7.672 49.43,-13.437 l 11.52,41.75 c -13.44,7.203 -36,13.921 -61.91,13.921 -54.23,0 -88.29,-32.156 -88.29,-73.421 -0.49,-27.36 18.71,-52.313 64.29,-68.141 28.8,-10.078 38.39,-18.25 38.39,-34.078 0,-15.36 -11.51,-25.906 -37.42,-25.906 -21.12,0 -46.55,8.625 -59.98,16.781 l -11.52,-42.703" /><path
         id="path22"
         style="fill:#26080d;fill-opacity:1;fill-rule:nonzero;stroke:none"
         d="m 1267.28,423.516 c 17.27,-9.594 42.7,-16.313 71.02,-16.313 61.9,0 95.01,30.703 95.01,72.938 -0.48,34.547 -20.15,56.14 -62.39,71.5 -29.75,10.562 -40.78,17.765 -40.78,32.64 0,14.391 11.52,24.469 32.63,24.469 20.64,0 39.36,-7.672 49.43,-13.437 l 11.52,41.75 c -13.44,7.203 -36,13.921 -61.91,13.921 -54.23,0 -88.29,-32.156 -88.29,-73.421 -0.49,-27.36 18.71,-52.313 64.29,-68.141 28.8,-10.078 38.39,-18.25 38.39,-34.078 0,-15.36 -11.51,-25.906 -37.42,-25.906 -21.12,0 -46.55,8.625 -59.98,16.781 l -11.52,-42.703" /><path
         id="path24"
         style="fill:#26080d;fill-opacity:1;fill-rule:nonzero;stroke:none"
         d="m 1587.72,650.984 c -70.53,0 -120.92,-47.031 -120.92,-123.812 0,-74.859 50.86,-120.453 117.09,-120.453 59.5,0 119.97,38.39 119.97,124.297 0,71.015 -46.55,119.968 -116.14,119.968 z m -1.44,-43.203 c 40.31,0 56.63,-41.734 56.63,-78.218 0,-47.016 -23.52,-80.125 -57.11,-80.125 -35.99,0 -58.07,34.062 -58.07,79.171 0,38.875 16.8,79.172 58.55,79.172" /><path
         id="path26"
         style="fill:#26080d;fill-opacity:1;fill-rule:nonzero;stroke:none"
         d="m 1752.67,412 59.5,0 0,340.719 -59.5,0 0,-340.719 z" /><path
         id="path28"
         style="fill:#26080d;fill-opacity:1;fill-rule:nonzero;stroke:none"
         d="M 1849.28,645.703 1936.14,412 l 58.06,0 89.25,233.703 -62.37,0 -36.95,-118.531 c -6.24,-21.109 -11.52,-39.359 -15.85,-58.547 l -1.44,0 c -4.31,19.188 -9.11,37.906 -15.82,58.547 l -37.91,118.531 -63.83,0" /><path
         id="path30"
         style="fill:#26080d;fill-opacity:1;fill-rule:nonzero;stroke:none"
         d="m 2311.86,512.297 c 0.95,5.281 1.92,13.906 1.92,24.953 0,51.344 -24.95,113.734 -100.78,113.734 -74.86,0 -114.2,-60.953 -114.2,-125.734 0,-71.5 44.62,-118.047 120.45,-118.047 33.58,0 61.42,6.235 81.58,14.391 l -8.64,40.797 c -17.75,-6.719 -37.44,-10.563 -64.78,-10.563 -37.44,0 -70.55,18.235 -71.99,60.469 l 156.44,0 z m -156.44,41.266 c 2.39,24 17.75,57.109 54.22,57.109 39.36,0 48.95,-35.516 48.47,-57.109 l -102.69,0" /><path
         id="path32"
         style="fill:#333333;fill-opacity:1;fill-rule:nonzero;stroke:none"
         d="m 1990,1080 740,0 0,1170 -740,0 0,-1170 z" /><path
         id="path34"
         style="fill:#ffffff;fill-opacity:1;fill-rule:nonzero;stroke:none"
         d="m 280,1080 740,0 0,1170 -740,0 0,-1170 z" /><path
         id="path36"
         style="fill:#333333;fill-opacity:1;fill-rule:nonzero;stroke:none"
         d="m 726.922,1732.48 41.672,-130.48 90.172,0 -149.61,460.44 -107.25,0 -147.562,-460.44 86.765,0 39.61,130.48 146.203,0 z m -132.531,63.54 35.515,113.39 c 8.203,27.32 15.032,59.43 21.86,86.07 l 1.375,0 c 6.828,-26.64 14.343,-58.06 23.218,-86.07 l 36.204,-113.39 -118.172,0" /><path
         id="path38"
         style="fill:#ffffff;fill-opacity:1;fill-rule:nonzero;stroke:none"
         d="m 2214.5,1592.36 c 21.17,-2.72 56.7,-6.14 103.16,-6.14 84.03,0 138,14.34 170.78,43.03 26.64,21.86 44.4,53.97 44.4,94.97 0,63.53 -44.4,101.78 -92.9,114.08 l 0,1.36 c 49.87,18.45 76.51,57.39 76.51,99.73 0,38.95 -19.14,69 -47.82,86.08 -31.43,21.86 -69.68,29.37 -131.85,29.37 -47.14,0 -95.64,-4.09 -122.28,-9.56 l 0,-452.92 z m 83.34,396.91 c 8.88,2.04 23.24,3.42 47.83,3.42 53.28,0 86.06,-19.81 86.06,-62.86 0,-38.94 -32.78,-66.27 -90.85,-66.27 l -43.04,0 0,125.71 z m 0,-187.18 41.68,0 c 58.06,0 104.51,-21.86 104.51,-75.15 0,-56.69 -47.81,-77.19 -101.78,-77.19 -19.12,0 -33.47,0.69 -44.41,2.05 l 0,150.29" /><path
         id="path40"
         style="fill:#ffffff;fill-opacity:1;fill-rule:nonzero;stroke:none"
         d="m 1070,2140 90,0 0,90 -90,0 0,-90 z" /><path
         id="path42"
         style="fill:#ffffff;fill-opacity:1;fill-rule:nonzero;stroke:none"
         d="m 1070,1990 90,0 0,90 -90,0 0,-90 z" /><path
         id="path44"
         style="fill:#ffffff;fill-opacity:1;fill-rule:nonzero;stroke:none"
         d="m 1070,1840 90,0 0,90 -90,0 0,-90 z" /><path
         id="path46"
         style="fill:#ffffff;fill-opacity:1;fill-rule:nonzero;stroke:none"
         d="m 1070,1690 90,0 0,90 -90,0 0,-90 z" /><path
         id="path48"
         style="fill:#ffffff;fill-opacity:1;fill-rule:nonzero;stroke:none"
         d="m 1070,1540 90,0 0,90 -90,0 0,-90 z" /><path
         id="path50"
         style="fill:#ffffff;fill-opacity:1;fill-rule:nonzero;stroke:none"
         d="m 1070,1390 90,0 0,90 -90,0 0,-90 z" /><path
         id="path52"
         style="fill:#ffffff;fill-opacity:1;fill-rule:nonzero;stroke:none"
         d="m 1070,1250 90,0 0,90 -90,0 0,-90 z" /><path
         id="path54"
         style="fill:#ffffff;fill-opacity:1;fill-rule:nonzero;stroke:none"
         d="m 1070,1100 90,0 0,90 -90,0 0,-90 z" /><path
         id="path56"
         style="fill:#ffffff;fill-opacity:1;fill-rule:nonzero;stroke:none"
         d="m 1230,2060 90,0 0,90 -90,0 0,-90 z" /><path
         id="path58"
         style="fill:#ffffff;fill-opacity:1;fill-rule:nonzero;stroke:none"
         d="m 1230,1910 90,0 0,90 -90,0 0,-90 z" /><path
         id="path60"
         style="fill:#ffffff;fill-opacity:1;fill-rule:nonzero;stroke:none"
         d="m 1230,1760 90,0 0,90 -90,0 0,-90 z" /><path
         id="path62"
         style="fill:#ffffff;fill-opacity:1;fill-rule:nonzero;stroke:none"
         d="m 1230,1610 90,0 0,90 -90,0 0,-90 z" /><path
         id="path64"
         style="fill:#ffffff;fill-opacity:1;fill-rule:nonzero;stroke:none"
         d="m 1230,1470 90,0 0,90 -90,0 0,-90 z" /><path
         id="path66"
         style="fill:#ffffff;fill-opacity:1;fill-rule:nonzero;stroke:none"
         d="m 1230,1330 90,0 0,90 -90,0 0,-90 z" /><path
         id="path68"
         style="fill:#ffffff;fill-opacity:1;fill-rule:nonzero;stroke:none"
         d="m 1230,1180 90,0 0,90 -90,0 0,-90 z" /><path
         id="path70"
         style="fill:#ffffff;fill-opacity:1;fill-rule:nonzero;stroke:none"
         d="m 1380,1960 90,0 0,90 -90,0 0,-90 z" /><path
         id="path72"
         style="fill:#ffffff;fill-opacity:1;fill-rule:nonzero;stroke:none"
         d="m 1380,1790 90,0 0,90 -90,0 0,-90 z" /><path
         id="path74"
         style="fill:#ffffff;fill-opacity:1;fill-rule:nonzero;stroke:none"
         d="m 1380,1600 90,0 0,90 -90,0 0,-90 z" /><path
         id="path76"
         style="fill:#ffffff;fill-opacity:1;fill-rule:nonzero;stroke:none"
         d="m 1380,1430 90,0 0,90 -90,0 0,-90 z" /><path
         id="path78"
         style="fill:#ffffff;fill-opacity:1;fill-rule:nonzero;stroke:none"
         d="m 1360,1280 90,0 0,90 -90,0 0,-90 z" /><path
         id="path80"
         style="fill:#333333;fill-opacity:1;fill-rule:nonzero;stroke:none"
         d="m 1862.05,1178.4 89.99,-1.5 -1.49,-89.99 -89.99,1.5" /><path
         id="path82"
         style="fill:#333333;fill-opacity:1;fill-rule:nonzero;stroke:none"
         d="m 1864.56,1328.38 89.99,-1.5 -1.5,-89.99 -89.99,1.5" /><path
         id="path84"
         style="fill:#333333;fill-opacity:1;fill-rule:nonzero;stroke:none"
         d="m 1867.07,1478.35 89.98,-1.49 -1.5,-89.99 -89.98,1.49" /><path
         id="path86"
         style="fill:#333333;fill-opacity:1;fill-rule:nonzero;stroke:none"
         d="m 1869.57,1628.34 89.98,-1.5 -1.49,-90 -89.99,1.5" /><path
         id="path88"
         style="fill:#333333;fill-opacity:1;fill-rule:nonzero;stroke:none"
         d="m 1872.07,1778.32 89.99,-1.52 -1.5,-89.98 -89.99,1.5" /><path
         id="path90"
         style="fill:#333333;fill-opacity:1;fill-rule:nonzero;stroke:none"
         d="m 1874.58,1928.29 89.98,-1.5 -1.49,-89.99 -89.99,1.5" /><path
         id="path92"
         style="fill:#333333;fill-opacity:1;fill-rule:nonzero;stroke:none"
         d="m 1876.91,2068.27 89.99,-1.5 -1.5,-89.99 -89.99,1.5" /><path
         id="path94"
         style="fill:#333333;fill-opacity:1;fill-rule:nonzero;stroke:none"
         d="m 1879.43,2218.25 89.98,-1.5 -1.51,-89.99 -89.97,1.5" /><path
         id="path96"
         style="fill:#333333;fill-opacity:1;fill-rule:nonzero;stroke:none"
         d="m 1703.41,1260.56 89.99,-1.5 -1.5,-89.99 -89.99,1.5" /><path
         id="path98"
         style="fill:#333333;fill-opacity:1;fill-rule:nonzero;stroke:none"
         d="m 1705.91,1410.54 89.99,-1.5 -1.49,-89.99 -89.99,1.5" /><path
         id="path100"
         style="fill:#333333;fill-opacity:1;fill-rule:nonzero;stroke:none"
         d="m 1708.42,1560.52 89.99,-1.51 -1.5,-89.98 -89.99,1.5" /><path
         id="path102"
         style="fill:#333333;fill-opacity:1;fill-rule:nonzero;stroke:none"
         d="m 1710.93,1710.49 89.99,-1.5 -1.51,-89.99 -89.98,1.5" /><path
         id="path104"
         style="fill:#333333;fill-opacity:1;fill-rule:nonzero;stroke:none"
         d="m 1713.26,1850.47 89.98,-1.5 -1.5,-89.99 -89.98,1.5" /><path
         id="path106"
         style="fill:#333333;fill-opacity:1;fill-rule:nonzero;stroke:none"
         d="m 1715.61,1990.45 89.98,-1.5 -1.5,-89.99 -90,1.5" /><path
         id="path108"
         style="fill:#333333;fill-opacity:1;fill-rule:nonzero;stroke:none"
         d="m 1718.1,2140.43 89.99,-1.5 -1.49,-89.98 -89.99,1.5" /><path
         id="path110"
         style="fill:#333333;fill-opacity:1;fill-rule:nonzero;stroke:none"
         d="m 1545.1,1423.21 89.99,-1.49 -1.5,-89.99 -89.98,1.49" /><path
         id="path112"
         style="fill:#333333;fill-opacity:1;fill-rule:nonzero;stroke:none"
         d="m 1547.94,1603.19 89.99,-1.5 -1.51,-89.99 -89.97,1.5" /><path
         id="path114"
         style="fill:#333333;fill-opacity:1;fill-rule:nonzero;stroke:none"
         d="m 1551.11,1793.16 89.98,-1.5 -1.49,-89.98 -89.99,1.5" /><path
         id="path116"
         style="fill:#333333;fill-opacity:1;fill-rule:nonzero;stroke:none"
         d="m 1553.95,1973.14 89.98,-1.5 -1.5,-89.99 -89.98,1.5" /></g></g></svg>