<?xml version="1.0" encoding="UTF-8" standalone="no"?>
<!-- Generator: Adobe Illustrator 16.0.3, SVG Export Plug-In . SVG Version: 6.00 Build 0)  -->

<svg
   xmlns:dc="http://purl.org/dc/elements/1.1/"
   xmlns:cc="http://creativecommons.org/ns#"
   xmlns:rdf="http://www.w3.org/1999/02/22-rdf-syntax-ns#"
   xmlns:svg="http://www.w3.org/2000/svg"
   xmlns="http://www.w3.org/2000/svg"
   xmlns:sodipodi="http://sodipodi.sourceforge.net/DTD/sodipodi-0.dtd"
   xmlns:inkscape="http://www.inkscape.org/namespaces/inkscape"
   version="1.1"
   id="Ebene_1"
   x="0px"
   y="0px"
   width="60px"
   height="60px"
   viewBox="0 0 60 60"
   style="enable-background:new 0 0 60 60;"
   xml:space="preserve"
   sodipodi:docname="visual_qr_kein_wahrer_schotte_de.svg"
   inkscape:version="0.92.4 (5da689c313, 2019-01-14)"><metadata
   id="metadata87"><rdf:RDF><cc:Work
       rdf:about=""><dc:format>image/svg+xml</dc:format><dc:type
         rdf:resource="http://purl.org/dc/dcmitype/StillImage" /><dc:title></dc:title></cc:Work></rdf:RDF></metadata><defs
   id="defs85" /><sodipodi:namedview
   pagecolor="#ffffff"
   bordercolor="#666666"
   borderopacity="1"
   objecttolerance="10"
   gridtolerance="10"
   guidetolerance="10"
   inkscape:pageopacity="0"
   inkscape:pageshadow="2"
   inkscape:window-width="731"
   inkscape:window-height="480"
   id="namedview83"
   showgrid="false"
   inkscape:zoom="3.9333333"
   inkscape:cx="30"
   inkscape:cy="30"
   inkscape:window-x="0"
   inkscape:window-y="0"
   inkscape:window-maximized="0"
   inkscape:current-layer="Ebene_1" />
<rect
   style="fill:#A0B983;"
   width="60"
   height="60"
   id="rect2" />
<g
   id="g40">
	<rect
   x="0.167"
   y="46.038"
   style="fill:none;"
   width="59.665"
   height="21.212"
   id="rect4" />
	<path
   style="fill:#FFFFFF;"
   d="M12.766,46.287h0.854v2.171h0.021c0.112-0.182,0.231-0.35,0.343-0.511l1.233-1.66h1.064l-1.625,2.01   l1.73,2.711h-1.008l-1.338-2.164l-0.42,0.504v1.66h-0.854V46.287z"
   id="path6" />
	<path
   style="fill:#FFFFFF;"
   d="M17.282,49.544c0.021,0.616,0.504,0.883,1.05,0.883c0.399,0,0.687-0.057,0.946-0.154l0.126,0.596   c-0.294,0.118-0.701,0.21-1.191,0.21c-1.106,0-1.758-0.68-1.758-1.724c0-0.945,0.574-1.835,1.667-1.835   c1.106,0,1.471,0.911,1.471,1.66c0,0.161-0.014,0.287-0.028,0.364H17.282z M18.78,48.941c0.007-0.314-0.133-0.833-0.708-0.833   c-0.532,0-0.756,0.483-0.791,0.833H18.78z"
   id="path8" />
	<path
   style="fill:#FFFFFF;"
   d="M21.131,46.645c0,0.259-0.189,0.462-0.49,0.462c-0.287,0-0.477-0.203-0.477-0.462   c0-0.267,0.196-0.47,0.483-0.47C20.942,46.175,21.124,46.378,21.131,46.645z M20.214,51.008v-3.411h0.868v3.411H20.214z"
   id="path10" />
	<path
   style="fill:#FFFFFF;"
   d="M21.936,48.612c0-0.392-0.007-0.721-0.028-1.016h0.756l0.042,0.512h0.021   c0.147-0.267,0.518-0.589,1.085-0.589c0.595,0,1.211,0.386,1.211,1.464v2.024h-0.861v-1.926c0-0.49-0.182-0.861-0.651-0.861   c-0.343,0-0.581,0.245-0.672,0.504c-0.028,0.077-0.035,0.182-0.035,0.28v2.003h-0.868V48.612z"
   id="path12" />
	<path
   style="fill:#FFFFFF;"
   d="M27.767,47.597l0.357,1.548c0.077,0.364,0.154,0.735,0.217,1.106h0.015   c0.069-0.371,0.182-0.749,0.279-1.1l0.441-1.555h0.7l0.428,1.513c0.104,0.399,0.196,0.771,0.273,1.142h0.014   c0.056-0.371,0.133-0.742,0.224-1.142l0.379-1.513h0.848l-1.072,3.411h-0.798l-0.406-1.387c-0.105-0.357-0.183-0.68-0.26-1.093   h-0.014c-0.07,0.42-0.161,0.757-0.259,1.093l-0.435,1.387h-0.806l-1.008-3.411H27.767z"
   id="path14" />
	<path
   style="fill:#FFFFFF;"
   d="M34.299,51.008l-0.056-0.378h-0.021c-0.211,0.266-0.567,0.455-1.009,0.455   c-0.687,0-1.071-0.497-1.071-1.016c0-0.861,0.763-1.296,2.023-1.289v-0.056c0-0.225-0.091-0.596-0.693-0.596   c-0.336,0-0.687,0.105-0.917,0.253l-0.168-0.561c0.252-0.154,0.693-0.302,1.232-0.302c1.093,0,1.407,0.693,1.407,1.437v1.232   c0,0.308,0.015,0.609,0.05,0.819H34.299z M34.188,49.341c-0.609-0.014-1.191,0.119-1.191,0.638c0,0.336,0.218,0.49,0.49,0.49   c0.344,0,0.596-0.225,0.673-0.47c0.021-0.063,0.028-0.133,0.028-0.188V49.341z"
   id="path16" />
	<path
   style="fill:#FFFFFF;"
   d="M35.865,46.035h0.869v2.031h0.014c0.105-0.161,0.245-0.294,0.427-0.393   c0.169-0.098,0.372-0.154,0.589-0.154c0.581,0,1.19,0.386,1.19,1.479v2.01h-0.861v-1.912c0-0.497-0.182-0.868-0.658-0.868   c-0.336,0-0.574,0.224-0.665,0.483c-0.028,0.069-0.035,0.161-0.035,0.259v2.038h-0.869V46.035z"
   id="path18" />
	<path
   style="fill:#FFFFFF;"
   d="M39.8,48.696c0-0.462-0.007-0.791-0.027-1.1h0.749l0.028,0.651h0.027   c0.169-0.483,0.567-0.729,0.932-0.729c0.084,0,0.134,0.008,0.203,0.021v0.813c-0.069-0.014-0.146-0.028-0.252-0.028   c-0.413,0-0.693,0.267-0.771,0.651c-0.014,0.077-0.028,0.168-0.028,0.267v1.765H39.8V48.696z"
   id="path20" />
	<path
   style="fill:#FFFFFF;"
   d="M42.768,49.544c0.021,0.616,0.505,0.883,1.051,0.883c0.399,0,0.687-0.057,0.945-0.154l0.126,0.596   c-0.294,0.118-0.7,0.21-1.19,0.21c-1.106,0-1.758-0.68-1.758-1.724c0-0.945,0.574-1.835,1.667-1.835   c1.106,0,1.471,0.911,1.471,1.66c0,0.161-0.014,0.287-0.028,0.364H42.768z M44.267,48.941c0.007-0.314-0.133-0.833-0.707-0.833   c-0.532,0-0.757,0.483-0.792,0.833H44.267z"
   id="path22" />
	<path
   style="fill:#FFFFFF;"
   d="M45.7,48.696c0-0.462-0.007-0.791-0.027-1.1h0.749l0.028,0.651h0.027   c0.169-0.483,0.567-0.729,0.932-0.729c0.084,0,0.134,0.008,0.203,0.021v0.813c-0.069-0.014-0.146-0.028-0.252-0.028   c-0.413,0-0.693,0.267-0.771,0.651c-0.014,0.077-0.028,0.168-0.028,0.267v1.765H45.7V48.696z"
   id="path24" />
	<path
   style="fill:#FFFFFF;"
   d="M19.059,57.069c0.28,0.161,0.701,0.301,1.142,0.301c0.554,0,0.862-0.259,0.862-0.644   c0-0.357-0.238-0.567-0.841-0.785c-0.777-0.28-1.274-0.693-1.274-1.372c0-0.771,0.645-1.359,1.667-1.359   c0.511,0,0.889,0.112,1.134,0.238l-0.21,0.693c-0.168-0.091-0.497-0.224-0.938-0.224c-0.546,0-0.785,0.294-0.785,0.567   c0,0.363,0.273,0.532,0.904,0.777c0.819,0.308,1.219,0.721,1.219,1.4c0,0.757-0.575,1.415-1.793,1.415   c-0.498,0-1.016-0.141-1.275-0.295L19.059,57.069z"
   id="path26" />
	<path
   style="fill:#FFFFFF;"
   d="M25.158,57.902c-0.182,0.084-0.54,0.176-0.967,0.176c-1.064,0-1.758-0.68-1.758-1.737   c0-1.022,0.7-1.821,1.898-1.821c0.315,0,0.637,0.07,0.833,0.161l-0.154,0.645c-0.14-0.063-0.343-0.133-0.651-0.133   c-0.659,0-1.051,0.483-1.044,1.106c0,0.7,0.456,1.1,1.044,1.1c0.301,0,0.511-0.063,0.679-0.133L25.158,57.902z"
   id="path28" />
	<path
   style="fill:#FFFFFF;"
   d="M25.723,53.035h0.868v2.031h0.014c0.105-0.161,0.245-0.294,0.427-0.393   c0.168-0.098,0.371-0.154,0.588-0.154c0.581,0,1.19,0.386,1.19,1.479v2.01H27.95v-1.912c0-0.497-0.182-0.868-0.658-0.868   c-0.336,0-0.574,0.224-0.666,0.483c-0.028,0.069-0.035,0.161-0.035,0.259v2.038h-0.868V53.035z"
   id="path30" />
	<path
   style="fill:#FFFFFF;"
   d="M32.9,56.271c0,1.254-0.883,1.814-1.751,1.814c-0.967,0-1.709-0.665-1.709-1.758   c0-1.121,0.735-1.808,1.765-1.808C32.221,54.52,32.9,55.234,32.9,56.271z M30.33,56.306c0,0.658,0.322,1.156,0.848,1.156   c0.49,0,0.833-0.483,0.833-1.17c0-0.532-0.238-1.142-0.826-1.142C30.575,55.15,30.33,55.738,30.33,56.306z"
   id="path32" />
	<path
   style="fill:#FFFFFF;"
   d="M34.523,53.623v0.974h0.819v0.645h-0.819v1.506c0,0.413,0.111,0.631,0.44,0.631   c0.147,0,0.26-0.021,0.337-0.042l0.014,0.658c-0.126,0.049-0.351,0.084-0.623,0.084c-0.315,0-0.582-0.105-0.743-0.28   c-0.182-0.196-0.266-0.505-0.266-0.953v-1.604h-0.49v-0.645h0.49v-0.771L34.523,53.623z"
   id="path34" />
	<path
   style="fill:#FFFFFF;"
   d="M36.911,53.623v0.974h0.819v0.645h-0.819v1.506c0,0.413,0.111,0.631,0.44,0.631   c0.147,0,0.26-0.021,0.337-0.042l0.014,0.658c-0.126,0.049-0.351,0.084-0.623,0.084c-0.315,0-0.582-0.105-0.743-0.28   c-0.182-0.196-0.266-0.505-0.266-0.953v-1.604h-0.49v-0.645h0.49v-0.771L36.911,53.623z"
   id="path36" />
	<path
   style="fill:#FFFFFF;"
   d="M38.877,56.544c0.021,0.616,0.505,0.883,1.051,0.883c0.399,0,0.687-0.057,0.945-0.154l0.126,0.596   c-0.294,0.118-0.7,0.21-1.19,0.21c-1.106,0-1.758-0.68-1.758-1.724c0-0.945,0.574-1.835,1.667-1.835   c1.106,0,1.471,0.911,1.471,1.66c0,0.161-0.014,0.287-0.028,0.364H38.877z M40.376,55.941c0.007-0.314-0.133-0.833-0.707-0.833   c-0.532,0-0.757,0.483-0.792,0.833H40.376z"
   id="path38" />
</g>
<g
   id="g41"
   transform="translate(-7.561529,-21.467778)">
	<g
   id="Bild"
   transform="translate(8.6,22.5)">
		
			<sodipodi:namedview
   units="mm"
   showguides="true"
   inkscape:cy="140.10525"
   inkscape:cx="100.8875"
   inkscape:zoom="1.4"
   showgrid="false"
   borderopacity="1.0"
   bordercolor="#666666"
   pagecolor="#ffffff"
   id="base"
   inkscape:document-units="mm"
   inkscape:guide-bbox="true"
   inkscape:current-layer="layer1"
   inkscape:window-maximized="1"
   inkscape:window-y="0"
   inkscape:window-x="0"
   inkscape:window-height="700"
   inkscape:window-width="702"
   inkscape:pageshadow="2"
   inkscape:pageopacity="0.0">
			<sodipodi:guide
   orientation="1,0"
   position="191.33858,0"
   id="guide21487" />
			<sodipodi:guide
   orientation="0,1"
   position="0,304.72441"
   id="guide21489" />
			<sodipodi:guide
   orientation="0,1"
   position="0,322.44094"
   id="guide26097" />
		</sodipodi:namedview>
		<g
   id="layer1"
   transform="translate(0,-910.62992)"
   inkscape:label="Ebene 1"
   inkscape:groupmode="layer">
			<g
   id="text5365"
   transform="translate(2917.0534,2962.5571)">
				<path
   id="path51436"
   inkscape:connector-curvature="0"
   style="fill:#FFFFFF;"
   d="M-2888.549-2049.967l-0.912,0.043h-0.028      h-0.015l-0.925,0.099h-0.016h-0.014l-0.912,0.127h-0.029l-0.014,0.014l-0.912,0.167h-0.016l-0.013,0.017l-0.898,0.21      l-0.014,0.013h-0.029l-0.883,0.253l-0.016,0.014h-0.013l-0.87,0.31h-0.029l-0.014,0.014l-0.856,0.338l-0.016,0.014h-0.014      l-0.843,0.393h-0.013l-0.029,0.014l-0.813,0.423l-0.013,0.013h-0.029l-0.8,0.463l-0.013,0.014l-0.013,0.016l-0.787,0.505      l-0.013,0.014h-0.016l-0.758,0.548l-0.013,0.014l-0.013,0.016l-0.745,0.574l-0.016,0.014l-0.013,0.016l-0.702,0.63l-0.013,0.016      h-0.015l-0.687,0.659l-0.016,0.014l-0.013,0.029l-0.322,0.352l-0.548,0.574l0.574,0.534l-0.63-0.479l-0.492,0.633l-0.492,0.646      v0.013l-0.013,0.015l-0.563,0.815v0.013l-0.013,0.014l-0.519,0.843l-0.016,0.015v0.027l-0.476,0.871l-0.013,0.014v0.014      l-0.422,0.885l-0.014,0.014l-0.013,0.029l-0.367,0.883l-0.014,0.016v0.027l-0.337,0.898v0.029v0.013l-0.279,0.912l-0.016,0.016      v0.027l-0.237,0.911v0.017v0.026l-0.184,0.928l-0.013,0.014v0.013l-0.141,0.928v0.028v0.015l-0.098,0.925v0.029v0.014      l-0.042,0.928v0.026v0.016v0.926v0.014v0.028l0.042,0.928v0.014v0.014l0.084,0.928v0.014l0.014,0.027l0.125,0.913v0.014v0.013      l0.183,0.915v0.013v0.027l0.225,0.885v0.029v0.014l0.267,0.882v0.017l0.014,0.026l0.295,0.872l0.013,0.016v0.012l0.351,0.855      v0.016l0.016,0.027l0.378,0.83l0.014,0.025v0.016l0.435,0.83v0.012l0.014,0.016l0.464,0.803l0.013,0.01v0.016l0.505,0.787      l0.013,0.012l0.016,0.016l0.547,0.76l0.013,0.027v0.014l0.59,0.73l0.013,0.012l0.014,0.016l0.619,0.701l0.014,0.027l0.013,0.016      l0.66,0.674l0.015,0.012l0.013,0.016l0.702,0.648l0.014,0.012l0.016,0.016l0.729,0.617l0.016,0.016l0.013,0.01l0.771,0.59      l0.029,0.016h0.013l0.8,0.561l0.014,0.014h0.029l0.184,0.111l-0.016,0.043l0.702,0.393l0.114,0.059l0.532,0.336l0.029-0.043      l0.196,0.111l0.014,0.016l0.029,0.016l0.87,0.422h0.029l0.013,0.01l0.898,0.383h0.014l0.016,0.012l0.912,0.324h0.013      l0.014,0.016l0.914,0.279h0.027h0.015l0.926,0.236h0.014l0.016,0.016l0.744,0.139l0.785,0.156l0.17-0.826l-0.085,0.826      l0.787,0.082l0.462,0.043h0.014h0.029l0.925,0.043l0.016,0.016h0.026h0.928h0.014h0.013l0.928-0.043l0.026-0.016h0.016      l0.926-0.084h0.016h0.01l0.915-0.139h0.026h0.016l0.898-0.17l0.027-0.012h0.016l0.898-0.213l0.016-0.016h0.027l0.883-0.266      h0.016h0.012l0.871-0.309h0.016l0.026-0.012l0.856-0.34l0.016-0.012h0.012l0.845-0.393h0.015l0.027-0.016l0.813-0.42      l0.017-0.016l0.011-0.016l0.813-0.463h0.016l0.016-0.01l0.787-0.506l0.011-0.016l0.016-0.016l0.756-0.547h0.016l0.016-0.012      l0.729-0.59l0.027-0.016l0.016-0.014l0.701-0.619l0.017-0.01l0.011-0.018l0.69-0.658l0.011-0.016l0.016-0.012l0.644-0.691      l0.016-0.025l0.017-0.016l0.616-0.729l0.014-0.018l0.014-0.01l0.574-0.773l0.016-0.014l0.016-0.016l0.548-0.814l0.011-0.016      l0.016-0.01l0.521-0.846v-0.027l0.011-0.016l0.479-0.867v-0.016l0.016-0.016l0.42-0.883l0.016-0.016v-0.027l0.378-0.883      l0.014-0.027v-0.014l0.321-0.899l0.016-0.027v-0.016l0.282-0.911l0.011-0.016v-0.027l0.229-0.912l0.011-0.029v-0.013      l0.186-0.928l0.012-0.014v-0.029l0.143-0.925v-0.016v-0.014l0.08-0.941l0.016-0.013v-0.014l0.043-0.941v-0.013v-0.017v-0.925      v-0.029v-0.014l-0.043-0.928v-0.013v-0.027l-0.085-0.914v-0.026l-0.011-0.016l-0.127-0.912v-0.014v-0.029l-0.184-0.898v-0.026      v-0.015l-0.226-0.898v-0.015l-0.012-0.014l-0.255-0.886v-0.026l-0.016-0.016l-0.054-0.154l-0.266-0.758l-0.744,0.267l0.729-0.31      l-0.293-0.729l-0.031-0.071v-0.026l-0.011-0.017l-0.383-0.84l-0.011-0.016v-0.014l-0.437-0.829v-0.013l-0.016-0.014l-0.462-0.8      l-0.015-0.029l-0.013-0.014l-0.505-0.772v-0.027l-0.016-0.014l-0.548-0.76l-0.013-0.014l-0.014-0.014l-0.575-0.73l-0.016-0.014      l-0.016-0.014l-0.617-0.718l-0.013-0.013l-0.014-0.014l-0.659-0.675l-0.016-0.014l-0.015-0.014l-0.703-0.659l-0.011-0.016      h-0.016l-0.729-0.63h-0.016l-0.027-0.017l-0.771-0.588l-0.016-0.016l-0.017-0.013l-0.798-0.548l-0.026-0.014l-0.016-0.016      l-0.841-0.505l-0.016-0.014l-0.016-0.014l-0.867-0.464l-0.031-0.014l-0.011-0.014l-0.888-0.422l-0.011-0.014h-0.017      l-0.898-0.378h-0.016l-0.026-0.016l-0.898-0.321l-0.017-0.014h-0.026l-0.911-0.282h-0.014l-0.017-0.013l-0.925-0.227      l-0.016-0.013h-0.011l-0.931-0.184h-0.026h-0.015l-0.927-0.141h-0.011l-0.032-0.014l-0.925-0.085h-0.016h-0.027l-0.925-0.056      h-0.016h-0.026h-0.928h-0.013L-2888.549-2049.967L-2888.549-2049.967z M-2888.506-2048.379h0.029h0.014l0.843,0.013h0.042      l0.856,0.043h0.042l0.841,0.085h0.042l0.845,0.125l0.043,0.016l0.856,0.168h0.026l0.84,0.21v0.016l0.888,0.253l0.027,0.013      l0.829,0.309l0.043,0.013l0.813,0.338l0.042,0.014l0.813,0.393h0.017l0.01,0.017l0.83,0.462l0.786,0.477l0.027,0.016      l0.744,0.505l0.026,0.027l0.718,0.534l0.026,0.029l0.676,0.561l0.026,0.027l0.633,0.605l0.016,0.014l0.014,0.013l0.619,0.618      l0.011,0.028l0.579,0.646l0.027,0.043l0.531,0.659l0.029,0.043l0.492,0.688l0.026,0.026l0.479,0.758h0.016l0.421,0.73      l0.012,0.043l0.393,0.744l0.016,0.043l0.351,0.771l0.016,0.029l0.011,0.041l0.282,0.703l0.016,0.04l0.25,0.718l0.043,0.125      l0.016,0.029l0.239,0.813l0.011,0.043l0.197,0.856h0.016l0.154,0.829v0.042l0.127,0.827v0.043l0.085,0.843v0.042l0.043,0.843      v0.04v0.858v0.027l-0.059,0.898h0.016l-0.101,0.855v0.029l-0.128,0.856v0.042l-0.165,0.843l-0.016,0.042l-0.21,0.841      l-0.014,0.029l-0.255,0.843l-0.011,0.015v0.027l-0.298,0.83l-0.011,0.026l-0.351,0.83l-0.016,0.027l-0.394,0.813l-0.016,0.043      l-0.434,0.787l-0.492,0.813l-0.026,0.027l-0.505,0.744l-0.031,0.043l-0.532,0.701l-0.027,0.031l-0.563,0.672l-0.026,0.031      l-0.59,0.643l-0.017,0.016l-0.011,0.012l-0.633,0.605l-0.026,0.027l-0.648,0.563l-0.026,0.027l-0.676,0.531l-0.026,0.033      l-0.702,0.504l-0.026,0.012l-0.718,0.465l-0.043,0.029l-0.729,0.42l-0.031,0.016l-0.755,0.393l-0.043,0.012l-0.76,0.352      l-0.043,0.016l-0.785,0.324l-0.028,0.01l-0.84,0.283v0.016l-0.814,0.223l-0.031,0.016l-0.825,0.197l-0.042,0.012l-0.829,0.152      l-0.872,0.129l-0.883,0.084h-0.042l-0.843,0.043h-0.042h-0.843h-0.042l-0.856-0.043h-0.042l-0.42-0.041l-0.787-0.086v0.016      l-0.702-0.143l-0.715-0.139l-0.029-0.016l-0.843-0.209l-0.042-0.016l-0.841-0.252l-0.028-0.014l-0.829-0.297l-0.041-0.012      l-0.815-0.35l-0.043-0.016l-0.841-0.406v0.012l-0.688-0.377l-0.113-0.068l-0.041-0.016l-0.774-0.479l-0.026-0.012l-0.745-0.506      l-0.029-0.031l-0.715-0.531l-0.029-0.027l-0.673-0.578l-0.029-0.027l-0.646-0.59l-0.027-0.027l-0.604-0.617l-0.029-0.031      l-0.561-0.658l-0.029-0.027l-0.532-0.676l-0.029-0.025l-0.492-0.688l-0.013-0.031l-0.013-0.01l-0.465-0.719l-0.013-0.027      l-0.436-0.744l-0.013-0.027l-0.394-0.76v-0.016l-0.014-0.01l-0.351-0.777l-0.014-0.039l-0.324-0.785l-0.013-0.031l-0.268-0.798      l-0.014-0.043l-0.239-0.8l-0.013-0.042l-0.197-0.83l-0.167-0.855v-0.043l-0.127-0.841v-0.028l-0.083-0.856v-0.029l-0.042-0.856      v-0.026v-0.858v-0.04l0.042-0.843v-0.043l0.099-0.898l0.125-0.843v-0.042l0.168-0.843l0.015-0.043l0.21-0.84l0.013-0.043      l0.252-0.829l0.016-0.026v-0.017l0.294-0.826l0.014-0.043l0.351-0.813l0.014-0.042l0.393-0.801l0.014-0.042l0.436-0.801      l0.014-0.029l0.479-0.771l0.026-0.043l0.506-0.744l0.015-0.028l0.476-0.618l0.436-0.561l0.548-0.577l0.295-0.321l0.013-0.014      l0.014-0.016l0.632-0.604l0.029-0.026l0.646-0.577l0.027-0.026l0.675-0.535l0.026-0.013l0.702-0.507l0.029-0.015l0.715-0.462      l0.773-0.463v0.013l0.785-0.421v0.015l0.8-0.38l0.042-0.014l0.787-0.309l0.029-0.016l0.8-0.279h0.013l0.027-0.014l0.816-0.239      h0.027l0.829-0.21h0.027l0.842-0.17v0.014l0.872-0.139h0.042l0.841-0.085h0.042L-2888.506-2048.379L-2888.506-2048.379z       M-2896.41-2043.129l-4.185,10.573h2.063l1.026-2.695h3.988l1.024,2.695h2.05l-4.198-10.573H-2896.41z M-2895.525-2040.587      h0.027c0.368,1.101,0.694,2.032,0.983,2.78l0.364,0.926h-2.722l0.364-0.926      C-2896.219-2038.549-2895.895-2039.481-2895.525-2040.587z M-2884.814-2033.047l-0.603,0.028h-0.014l-0.017,0.014l-0.84,0.126      h-0.016l-0.013,0.015l-0.83,0.21l-0.014,0.014h-0.026l-0.085,0.029l-0.239,0.266l0.072,0.352l0.322,0.154l0.127-0.027      l0.054-0.016l0.031-0.014l0.784-0.196l0.758-0.125h0.043l0.563-0.043l0.309-0.183l0.026-0.352l-0.266-0.239L-2884.814-2033.047      L-2884.814-2033.047z M-2882.33-2032.809l-0.351,0.099l-0.139,0.322l0.196,0.31l0.112,0.057l0.281,0.056l0.043,0.014      l0.702,0.239l0.042,0.014l0.687,0.309l0.016,0.016h0.012l0.323,0.181l0.367,0.015l0.223-0.28l-0.096-0.338l-0.101-0.085      l-0.365-0.21h-0.013l-0.016-0.014l-0.755-0.337h-0.017l-0.016-0.014l-0.786-0.266h-0.012h-0.027L-2882.33-2032.809      L-2882.33-2032.809z M-2889.363-2031.573l-0.111,0.057l-0.127,0.068l-0.014,0.014l-0.013,0.016l-0.688,0.532l-0.014,0.016      h-0.016l-0.617,0.589l-0.014,0.015l-0.016,0.013l-0.335,0.407l-0.085,0.351l0.225,0.282l0.366-0.029l0.099-0.083l0.322-0.38      l0.577-0.561l0.027-0.015l0.661-0.506l0.083-0.057l0.184-0.308l-0.141-0.338L-2889.363-2031.573L-2889.363-2031.573z       M-2878.369-2030.493l-0.292,0.211l-0.017,0.352l0.069,0.112l0.352,0.378l0.028,0.029l0.492,0.616l0.016,0.029l0.421,0.673      l0.026,0.043l0.016,0.042l0.293,0.21l0.338-0.098l0.125-0.336l-0.043-0.127l-0.043-0.085v-0.014l-0.011-0.014l-0.462-0.744      l-0.017-0.029l-0.016-0.013l-0.531-0.674l-0.017-0.015l-0.011-0.014l-0.382-0.407L-2878.369-2030.493L-2878.369-2030.493z       M-2883.659-2029.467l-5.899,10.574h2.148l1.459-2.695h3.765l0.505,2.695h1.968l-2.148-10.574H-2883.659z M-2892.241-2027.964      l-0.335,0.125l-0.072,0.114l-0.167,0.377l-0.014,0.016v0.014l-0.268,0.787v0.014l-0.014,0.014l-0.183,0.813v0.015v0.014      l-0.042,0.322l0.113,0.337l0.351,0.112l0.279-0.225l0.042-0.111l0.042-0.324l0.167-0.729l0.016-0.043l0.238-0.701l0.015-0.042      l0.154-0.338l-0.029-0.364L-2892.241-2027.964L-2892.241-2027.964z M-2883.17-2026.883h0.042c0.104,0.78,0.249,1.616,0.42,2.527      l0.213,1.135h-2.569l0.671-1.221C-2883.955-2025.236-2883.542-2026.051-2883.17-2026.883L-2883.17-2026.883z       M-2875.912-2026.322l-0.363,0.027l-0.185,0.31l0.016,0.126l0.027,0.085v0.026l0.127,0.759v0.042l0.043,0.759v0.015v0.014      l-0.017,0.561l0.154,0.324l0.352,0.069l0.266-0.239l0.016-0.128l0.027-0.587v-0.028v-0.014l-0.054-0.828v-0.028v-0.014      l-0.128-0.829l-0.016-0.027v-0.016l-0.026-0.111L-2875.912-2026.322L-2875.912-2026.322z M-2893.14-2023.26l-0.21,0.294v0.128      l0.099,0.602v0.031v0.01l0.226,0.83v0.016l0.014,0.012l0.295,0.813l0.013,0.016v0.027l0.029,0.041l0.295,0.213l0.335-0.1      l0.127-0.336l-0.042-0.127l-0.013-0.01v-0.018l-0.016-0.016l-0.266-0.744l-0.014-0.025l-0.197-0.758l-0.098-0.604l-0.21-0.294      H-2893.14L-2893.14-2023.26z M-2876.317-2021.647l-0.324,0.154l-0.069,0.111l-0.085,0.281l-0.016,0.027l-0.309,0.691v0.012      l-0.016,0.014l-0.391,0.689l-0.211,0.311l-0.059,0.352l0.27,0.25l0.352-0.055l0.081-0.1l0.239-0.324l0.016-0.027v-0.016      l0.421-0.713v-0.016l0.016-0.027l0.335-0.744v-0.025l0.016-0.018l0.096-0.307l-0.053-0.352L-2876.317-2021.647      L-2876.317-2021.647z M-2891.074-2018.995l-0.324,0.186l-0.042,0.352l0.058,0.111l0.112,0.139l0.013,0.016l0.014,0.012      l0.59,0.621l0.014,0.012l0.016,0.016l0.63,0.547l0.016,0.014l0.027,0.012l0.422,0.299l0.351,0.053l0.252-0.266l-0.056-0.352      l-0.099-0.084l-0.393-0.281l-0.029-0.012l-0.574-0.506l-0.016-0.031h-0.013l-0.534-0.547l-0.027-0.043l-0.085-0.111      L-2891.074-2018.995L-2891.074-2018.995z M-2879.167-2017.772l-0.116,0.059l-0.431,0.352l-0.032,0.012l-0.686,0.436      l-0.027,0.016l-0.718,0.35l-0.771,0.293h-0.016l-0.027,0.016l-0.574,0.154l-0.281,0.24l0.042,0.352l0.309,0.18h0.126l0.618-0.17      h0.027l0.016-0.01l0.813-0.309h0.011l0.016-0.016l0.803-0.379l0.011-0.031h0.017l0.744-0.463l0.011-0.01l0.016-0.018      l0.479-0.365l0.154-0.32l-0.17-0.309L-2879.167-2017.772L-2879.167-2017.772z M-2887.046-2016.297l-0.365,0.041l-0.167,0.324      l0.154,0.324l0.125,0.055l0.38,0.143h0.026h0.017l0.798,0.197h0.031h0.011l0.815,0.111h0.03h0.011l0.324,0.012l0.324-0.154      l0.069-0.352l-0.239-0.266l-0.128-0.027h-0.276h-0.043l-0.744-0.111l-0.773-0.17l-0.029-0.016L-2887.046-2016.297      L-2887.046-2016.297z" />
			</g>
			<g
   id="text5377"
   transform="translate(2917.0534,2962.5571)">
			</g>
		</g>
	</g>
</g>
<g
   id="g52">
</g>
<g
   id="g54">
</g>
<g
   id="g56">
</g>
<g
   id="g58">
</g>
<g
   id="g60">
</g>
<g
   id="g62">
</g>
<g
   id="g64">
</g>
<g
   id="g66">
</g>
<g
   id="g68">
</g>
<g
   id="g70">
</g>
<g
   id="g72">
</g>
<g
   id="g74">
</g>
<g
   id="g76">
</g>
<g
   id="g78">
</g>
<g
   id="g80">
</g>
</svg>