<?xml version="1.0" encoding="iso-8859-1"?>
<!-- Generator: Adobe Illustrator 16.0.3, SVG Export Plug-In . SVG Version: 6.00 Build 0)  -->
<!DOCTYPE svg PUBLIC "-//W3C//DTD SVG 1.1//EN" "http://www.w3.org/Graphics/SVG/1.1/DTD/svg11.dtd">
<svg version="1.1" id="Ebene_1" xmlns="http://www.w3.org/2000/svg" xmlns:xlink="http://www.w3.org/1999/xlink" x="0px" y="0px"
	 width="518px" height="518px" viewBox="0 0 518 518" style="enable-background:new 0 0 518 518;" xml:space="preserve">
<path style="fill-rule:evenodd;clip-rule:evenodd;fill:#A91E74;" d="M518,512c0,3.313-2.017,6-4.505,6H4.505
	C2.018,518,0,515.313,0,512V6c0-3.313,2.017-6,4.504-6h508.99C515.983,0,518,2.687,518,6V512z"/>
<g>
	<g id="XMLID_1_">
		<g>
			<path style="fill:#FCFBFB;" d="M259.039,25.99c96.51-0.58,177.17,79.81,175.04,178.93c-2.04,95.16-81.561,173.45-179.37,171.17
				c-94.72-2.21-173.28-81.439-170.77-179.76C86.349,101.91,164.509,25.46,259.039,25.99z M259.309,361.59
				c89.29-0.38,160.94-73.05,160.37-160.66c-0.58-89.03-72.779-160.79-161.03-160.56c-85.43,0.21-159.56,68.84-160.47,160.72
				C99.219,291.1,170.849,361.97,259.309,361.59z"/>
			<path style="fill:#A91E74;" d="M419.679,200.93c0.57,87.61-71.08,160.28-160.37,160.66c-88.46,0.38-160.09-70.49-161.13-160.5
				c0.91-91.88,75.04-160.51,160.47-160.72C346.899,40.14,419.099,111.9,419.679,200.93z"/>
		</g>
		<g>
		</g>
	</g>
</g>
<g>
	<rect x="-7.001" y="413" style="fill-rule:evenodd;clip-rule:evenodd;fill:none;" width="525.002" height="106"/>
	<path style="fill:#FFFFFF;" d="M160.456,414.953v23.755c0,3.776-1.208,6.767-3.625,8.972c-2.417,2.206-5.636,3.309-9.656,3.309
		c-4.069,0-7.3-1.086-9.692-3.26c-2.393-2.172-3.589-5.188-3.589-9.045v-23.73h6.152v23.779c0,2.377,0.602,4.191,1.807,5.444
		c1.204,1.254,2.979,1.88,5.322,1.88c4.752,0,7.129-2.506,7.129-7.52v-23.584H160.456z"/>
	<path style="fill:#FFFFFF;" d="M171.979,424.084l0.171,3.052c1.953-2.359,4.517-3.54,7.69-3.54c5.501,0,8.301,3.149,8.398,9.448
		V450.5h-5.933v-17.114c0-1.676-0.362-2.917-1.086-3.724c-0.725-0.805-1.909-1.208-3.552-1.208c-2.393,0-4.175,1.083-5.347,3.247
		V450.5h-5.933v-26.416H171.979z"/>
	<path style="fill:#FFFFFF;" d="M200.593,450.5h-5.933V413h5.933V450.5z"/>
	<path style="fill:#FFFFFF;" d="M205.939,437.048c0-2.588,0.513-4.919,1.538-6.995c1.025-2.074,2.466-3.67,4.321-4.785
		c1.855-1.114,3.987-1.672,6.396-1.672c3.564,0,6.458,1.147,8.679,3.442s3.422,5.339,3.601,9.131l0.024,1.392
		c0,2.604-0.5,4.932-1.501,6.982s-2.434,3.638-4.297,4.761c-1.864,1.123-4.016,1.685-6.458,1.685c-3.728,0-6.71-1.241-8.948-3.723
		c-2.238-2.482-3.357-5.79-3.357-9.925V437.048z M211.872,437.561c0,2.719,0.562,4.846,1.685,6.385
		c1.123,1.537,2.686,2.307,4.688,2.307s3.56-0.781,4.675-2.344c1.115-1.563,1.672-3.849,1.672-6.86c0-2.669-0.574-4.785-1.721-6.348
		s-2.706-2.344-4.675-2.344c-1.937,0-3.475,0.769-4.614,2.308C212.441,432.201,211.872,434.501,211.872,437.561z"/>
	<path style="fill:#FFFFFF;" d="M234.479,437.097c0-4.102,0.964-7.377,2.893-9.827c1.929-2.449,4.488-3.674,7.678-3.674
		c3.011,0,5.379,1.05,7.104,3.149l0.269-2.661h5.347v25.61c0,3.467-1.079,6.201-3.235,8.203c-2.157,2.002-5.066,3.003-8.728,3.003
		c-1.937,0-3.829-0.402-5.676-1.209c-1.848-0.805-3.251-1.859-4.211-3.161l2.808-3.564c1.823,2.164,4.069,3.247,6.738,3.247
		c1.969,0,3.523-0.533,4.663-1.6c1.139-1.065,1.709-2.633,1.709-4.699v-1.782c-1.709,1.904-3.988,2.856-6.836,2.856
		c-3.093,0-5.62-1.229-7.581-3.687C235.46,444.845,234.479,441.442,234.479,437.097z M240.388,437.609
		c0,2.653,0.541,4.74,1.624,6.262c1.082,1.522,2.583,2.283,4.504,2.283c2.393,0,4.167-1.025,5.322-3.076v-11.621
		c-1.123-2.002-2.881-3.003-5.273-3.003c-1.953,0-3.471,0.773-4.553,2.319C240.929,432.32,240.388,434.599,240.388,437.609z"/>
	<path style="fill:#FFFFFF;" d="M263.874,417.224c0-0.911,0.289-1.668,0.867-2.271c0.578-0.602,1.404-0.903,2.478-0.903
		s1.904,0.302,2.49,0.903c0.586,0.603,0.879,1.359,0.879,2.271c0,0.896-0.293,1.64-0.879,2.233c-0.586,0.595-1.416,0.892-2.49,0.892
		s-1.9-0.297-2.478-0.892C264.163,418.863,263.874,418.119,263.874,417.224z M270.173,450.5h-5.933v-26.416h5.933V450.5z"/>
	<path style="fill:#FFFFFF;" d="M291.438,443.322c0-1.058-0.436-1.863-1.306-2.417c-0.871-0.553-2.315-1.041-4.333-1.465
		c-2.019-0.423-3.703-0.96-5.054-1.611c-2.962-1.432-4.443-3.507-4.443-6.226c0-2.278,0.96-4.183,2.881-5.713
		c1.92-1.529,4.362-2.295,7.324-2.295c3.157,0,5.708,0.781,7.654,2.344c1.945,1.563,2.917,3.589,2.917,6.079h-5.933
		c0-1.139-0.423-2.087-1.27-2.845c-0.847-0.756-1.97-1.135-3.369-1.135c-1.302,0-2.364,0.302-3.186,0.903
		c-0.822,0.603-1.233,1.408-1.233,2.417c0,0.912,0.382,1.62,1.147,2.124c0.765,0.505,2.311,1.013,4.639,1.526
		c2.327,0.512,4.154,1.123,5.481,1.83c1.326,0.709,2.311,1.56,2.954,2.552c0.643,0.993,0.964,2.197,0.964,3.613
		c0,2.377-0.985,4.301-2.954,5.774c-1.97,1.473-4.549,2.209-7.739,2.209c-2.165,0-4.094-0.391-5.786-1.172
		c-1.693-0.781-3.011-1.855-3.955-3.223c-0.944-1.367-1.416-2.84-1.416-4.419h5.762c0.081,1.4,0.61,2.478,1.587,3.235
		c0.977,0.756,2.271,1.135,3.882,1.135c1.563,0,2.75-0.297,3.564-0.891C291.03,445.06,291.438,444.283,291.438,443.322z"/>
	<path style="fill:#FFFFFF;" d="M313.288,446.252c1.481,0,2.71-0.431,3.687-1.294c0.977-0.862,1.497-1.929,1.563-3.198h5.591
		c-0.065,1.645-0.578,3.178-1.538,4.602c-0.96,1.425-2.263,2.552-3.906,3.382c-1.644,0.83-3.418,1.245-5.322,1.245
		c-3.695,0-6.625-1.196-8.789-3.589c-2.165-2.393-3.247-5.696-3.247-9.912v-0.61c0-4.02,1.074-7.238,3.223-9.656
		c2.148-2.416,5.078-3.625,8.789-3.625c3.141,0,5.701,0.916,7.678,2.746c1.978,1.832,3.015,4.236,3.113,7.215h-5.591
		c-0.065-1.514-0.582-2.759-1.55-3.735c-0.969-0.977-2.202-1.465-3.699-1.465c-1.921,0-3.402,0.696-4.443,2.087
		c-1.042,1.393-1.571,3.504-1.587,6.336v0.952c0,2.865,0.517,5.001,1.55,6.409C309.841,445.548,311.335,446.252,313.288,446.252z"/>
	<path style="fill:#FFFFFF;" d="M334.455,426.965c1.937-2.246,4.386-3.369,7.349-3.369c5.631,0,8.487,3.215,8.569,9.644V450.5
		h-5.933v-17.041c0-1.822-0.395-3.113-1.185-3.869c-0.789-0.758-1.949-1.136-3.479-1.136c-2.377,0-4.15,1.059-5.322,3.174V450.5
		h-5.933V413h5.933V426.965z"/>
	<path style="fill:#FFFFFF;" d="M368,450.988c-3.76,0-6.808-1.184-9.144-3.553c-2.335-2.367-3.503-5.521-3.503-9.46v-0.732
		c0-2.637,0.509-4.993,1.526-7.067c1.017-2.076,2.444-3.69,4.284-4.847c1.839-1.155,3.89-1.733,6.152-1.733
		c3.597,0,6.376,1.147,8.337,3.442c1.962,2.295,2.942,5.542,2.942,9.741v2.393h-17.261c0.179,2.182,0.907,3.906,2.186,5.176
		c1.277,1.27,2.884,1.904,4.821,1.904c2.718,0,4.932-1.099,6.641-3.296l3.198,3.052c-1.059,1.579-2.47,2.804-4.236,3.674
		C372.179,450.553,370.197,450.988,368,450.988z M367.292,428.356c-1.628,0-2.941,0.57-3.943,1.709c-1,1.14-1.64,2.727-1.916,4.761
		h11.304v-0.439c-0.131-1.985-0.659-3.487-1.587-4.504C370.222,428.865,368.936,428.356,367.292,428.356z"/>
	<path style="fill:#FFFFFF;" d="M156.208,466.953v23.755c0,3.776-1.208,6.767-3.625,8.972c-2.417,2.206-5.636,3.309-9.656,3.309
		c-4.069,0-7.3-1.086-9.692-3.26c-2.393-2.172-3.589-5.188-3.589-9.045v-23.73h6.152v23.779c0,2.377,0.602,4.191,1.807,5.444
		c1.204,1.254,2.979,1.88,5.322,1.88c4.752,0,7.129-2.506,7.129-7.52v-23.584H156.208z"/>
	<path style="fill:#FFFFFF;" d="M167.805,476.084l0.171,2.759c1.855-2.164,4.395-3.247,7.617-3.247c3.532,0,5.949,1.352,7.251,4.053
		c1.92-2.701,4.622-4.053,8.105-4.053c2.913,0,5.082,0.806,6.506,2.417c1.424,1.611,2.152,3.988,2.185,7.129V502.5h-5.933v-17.188
		c0-1.676-0.366-2.905-1.099-3.687s-1.945-1.172-3.638-1.172c-1.351,0-2.454,0.362-3.308,1.087
		c-0.854,0.724-1.453,1.672-1.794,2.844l0.024,18.115h-5.933v-17.383c-0.082-3.108-1.668-4.663-4.761-4.663
		c-2.376,0-4.061,0.969-5.054,2.905V502.5h-5.933v-26.416H167.805z"/>
	<path style="fill:#FFFFFF;" d="M214.313,491.172l-2.637,2.71v8.618h-5.933V465h5.933v21.631l1.855-2.319l7.3-8.228h7.129
		l-9.814,11.011l10.864,15.405h-6.86L214.313,491.172z"/>
	<path style="fill:#FFFFFF;" d="M242.976,502.988c-3.76,0-6.808-1.184-9.143-3.553c-2.336-2.367-3.503-5.521-3.503-9.46v-0.732
		c0-2.637,0.508-4.993,1.526-7.067c1.017-2.076,2.445-3.69,4.285-4.847c1.839-1.155,3.89-1.733,6.152-1.733
		c3.597,0,6.376,1.147,8.337,3.442c1.961,2.295,2.942,5.542,2.942,9.741v2.393h-17.261c0.179,2.182,0.907,3.906,2.185,5.176
		c1.277,1.27,2.885,1.904,4.822,1.904c2.718,0,4.932-1.099,6.641-3.296l3.198,3.052c-1.058,1.579-2.47,2.804-4.236,3.674
		C247.154,502.553,245.173,502.988,242.976,502.988z M242.268,480.356c-1.628,0-2.942,0.57-3.943,1.709
		c-1.001,1.14-1.64,2.727-1.917,4.761h11.304v-0.439c-0.13-1.985-0.659-3.487-1.587-4.504
		C245.197,480.865,243.911,480.356,242.268,480.356z"/>
	<path style="fill:#FFFFFF;" d="M264.021,478.965c1.937-2.246,4.386-3.369,7.349-3.369c5.631,0,8.488,3.215,8.569,9.644V502.5
		h-5.933v-17.041c0-1.822-0.395-3.113-1.184-3.869c-0.79-0.758-1.949-1.136-3.479-1.136c-2.376,0-4.15,1.059-5.322,3.174V502.5
		h-5.933V465h5.933V478.965z"/>
	<path style="fill:#FFFFFF;" d="M299.763,481.504c-0.781-0.13-1.587-0.195-2.417-0.195c-2.718,0-4.549,1.042-5.493,3.125V502.5
		h-5.933v-26.416h5.664l0.146,2.954c1.432-2.295,3.418-3.442,5.957-3.442c0.846,0,1.546,0.114,2.1,0.342L299.763,481.504z"/>
	<path style="fill:#FFFFFF;" d="M319.514,499.912c-1.742,2.051-4.216,3.076-7.422,3.076c-2.865,0-5.034-0.838-6.506-2.515
		c-1.473-1.676-2.209-4.102-2.209-7.275v-17.114h5.933v17.041c0,3.354,1.392,5.029,4.175,5.029c2.881,0,4.826-1.033,5.835-3.101
		v-18.97h5.933V502.5h-5.591L319.514,499.912z"/>
	<path style="fill:#FFFFFF;" d="M336.799,476.084l0.171,3.052c1.953-2.359,4.517-3.54,7.69-3.54c5.501,0,8.301,3.149,8.398,9.448
		V502.5h-5.933v-17.114c0-1.676-0.362-2.917-1.087-3.724c-0.724-0.805-1.908-1.208-3.552-1.208c-2.393,0-4.175,1.083-5.347,3.247
		V502.5h-5.933v-26.416H336.799z"/>
	<path style="fill:#FFFFFF;" d="M358.063,489.097c0-4.102,0.965-7.377,2.893-9.827c1.93-2.449,4.488-3.674,7.679-3.674
		c3.011,0,5.379,1.05,7.104,3.149l0.269-2.661h5.347v25.61c0,3.467-1.078,6.201-3.234,8.203c-2.157,2.002-5.066,3.003-8.729,3.003
		c-1.938,0-3.829-0.402-5.676-1.209c-1.848-0.805-3.252-1.859-4.212-3.161l2.808-3.564c1.822,2.164,4.068,3.247,6.738,3.247
		c1.969,0,3.523-0.533,4.663-1.6c1.139-1.065,1.709-2.633,1.709-4.699v-1.782c-1.709,1.904-3.988,2.856-6.836,2.856
		c-3.093,0-5.619-1.229-7.581-3.687C359.044,496.845,358.063,493.442,358.063,489.097z M363.972,489.609
		c0,2.653,0.541,4.74,1.623,6.262c1.083,1.522,2.584,2.283,4.505,2.283c2.393,0,4.166-1.025,5.322-3.076v-11.621
		c-1.123-2.002-2.881-3.003-5.273-3.003c-1.953,0-3.471,0.773-4.554,2.319C364.513,484.32,363.972,486.599,363.972,489.609z"/>
</g>
<g>
	<path style="fill-rule:evenodd;clip-rule:evenodd;fill:#FDF2F9;" d="M294.219,158.799c2.221-1.322,4.186-2.492,6.459-3.847
		c0.518,5.855,0.993,11.234,1.54,17.424c11.632-10.529,24.648-14.804,39.502-12.154c10.538,1.88,19.255,7.174,26.007,15.52
		c13.755,16.998,12.678,41.721-2.1,57.598c-13.34,14.332-40.066,21.377-63.162,1.401c-8.056,12.947-19.321,21.23-34.616,23.519
		c-15.359,2.298-28.473-2.64-40.004-12.605c-2.14,1.216-4.095,2.327-6.433,3.656c-0.5-5.229-0.947-9.917-1.423-14.897
		c-24.912,21.319-52.001,12.428-64.687-2.242c-14.626-16.914-14.375-41.922,0.989-58.767c13.214-14.486,39.317-21.371,62.451-2.178
		c7.662-13.708,19.096-22.501,34.644-25.05C268.987,143.619,282.633,148.366,294.219,158.799z M233.006,242.203
		c17.611,17.244,49.823,14.577,64.15-9.575c1.542-2.601,0.357-4.206-0.829-6.294c-9.333-16.435-8.876-32.608,1.547-48.44
		c0.69-1.047,1.343-2.119,2.102-3.321c-5.536-2.737-10.734-5.309-16.208-8.016c1.898-1.627,3.575-3.063,5.273-4.52
		c-21.062-19.415-56.157-11.749-65.929,14.106c12.203,17.847,12.179,35.88,0.204,54.175c5.05,2.546,9.85,4.967,15.071,7.6
		C236.277,239.6,234.653,240.893,233.006,242.203z M188.586,165.019c-21.314-0.033-38.533,17.022-38.568,38.203
		c-0.036,21.057,17.468,38.638,38.411,38.583c20.716-0.055,38.284-17.531,38.378-38.179
		C226.903,182.435,209.694,165.052,188.586,165.019z M333.593,165.017c-21.184,0.007-38.495,17.329-38.404,38.43
		c0.089,20.779,17.354,38.115,38.201,38.359c20.842,0.245,38.574-17.4,38.593-38.403C372.001,182.17,354.839,165.01,333.593,165.017
		z"/>
	<path style="fill-rule:evenodd;clip-rule:evenodd;fill:#FDF5FA;" d="M208.303,224.444c-6.456,0.609-6.451,0.608-8.288-4.41
		c-0.854-2.331-1.719-4.659-2.609-6.977c-0.112-0.293-0.407-0.517-0.69-0.861c-5.713,0-11.497,0-17.403,0
		c-1.594,4.117-3.144,8.12-4.788,12.368c-1.753,0-3.507,0-6.072,0c5.581-14.381,11.005-28.359,16.49-42.497c2.278,0,4.375,0,6.794,0
		C197.205,196.055,202.673,210.045,208.303,224.444z M195.197,206.862c-2.303-6.436-4.41-12.322-6.516-18.208
		c-0.3,0.013-0.599,0.026-0.899,0.039c-2.11,5.935-4.219,11.868-6.459,18.169C186.229,206.862,190.343,206.862,195.197,206.862z"/>
	<path style="fill-rule:evenodd;clip-rule:evenodd;fill:#FDF2F9;" d="M317.11,224.739c0-14.277,0-28.177,0-42.927
		c2.776,0,5.678-0.017,8.581,0.004c3.821,0.026,7.643,0.059,11.464,0.13c5.016,0.093,9.188,1.667,11.003,6.836
		c1.836,5.229,0.1,9.416-4.409,13.005c4.909,2.636,7.358,6.598,6.708,12.156c-0.669,5.72-4.723,10.28-10.755,10.679
		C332.298,225.111,324.837,224.739,317.11,224.739z M322.78,219.757c5.346,0,10.138,0.243,14.893-0.072
		c4.328-0.287,6.684-3.08,6.773-7.13c0.086-3.9-1.871-6.59-6.207-6.983c-5.037-0.457-10.146-0.106-15.459-0.106
		C322.78,210.245,322.78,214.667,322.78,219.757z M322.699,199.904c5.169,0,9.834,0.279,14.448-0.087
		c3.748-0.297,5.653-2.854,5.671-6.402c0.015-3.034-1.794-5.908-4.766-6.129c-5.04-0.373-10.128-0.103-15.354-0.103
		C322.699,191.563,322.699,195.515,322.699,199.904z"/>
</g>
</svg>
