<?xml version="1.0" encoding="utf-8"?>
<!-- Generator: Adobe Illustrator 16.0.3, SVG Export Plug-In . SVG Version: 6.00 Build 0)  -->
<!DOCTYPE svg PUBLIC "-//W3C//DTD SVG 1.1//EN" "http://www.w3.org/Graphics/SVG/1.1/DTD/svg11.dtd" [
	<!ENTITY ns_extend "http://ns.adobe.com/Extensibility/1.0/">
	<!ENTITY ns_ai "http://ns.adobe.com/AdobeIllustrator/10.0/">
	<!ENTITY ns_graphs "http://ns.adobe.com/Graphs/1.0/">
	<!ENTITY ns_vars "http://ns.adobe.com/Variables/1.0/">
	<!ENTITY ns_imrep "http://ns.adobe.com/ImageReplacement/1.0/">
	<!ENTITY ns_sfw "http://ns.adobe.com/SaveForWeb/1.0/">
	<!ENTITY ns_custom "http://ns.adobe.com/GenericCustomNamespace/1.0/">
	<!ENTITY ns_adobe_xpath "http://ns.adobe.com/XPath/1.0/">
]>
<svg version="1.1" id="Ebene_1" xmlns:x="&ns_extend;" xmlns:i="&ns_ai;" xmlns:graph="&ns_graphs;"
	 xmlns="http://www.w3.org/2000/svg" xmlns:xlink="http://www.w3.org/1999/xlink" x="0px" y="0px" width="300px" height="300px"
	 viewBox="0 0 300 300" enable-background="new 0 0 300 300" xml:space="preserve">
<metadata>
	<sfw  xmlns="&ns_sfw;">
		<slices></slices>
		<sliceSourceBounds  height="310.582" width="300" x="-50.5" y="-57.082" bottomLeftOrigin="true"></sliceSourceBounds>
	</sfw>
</metadata>
<path fill="#AA3C85" d="M228,297H72c-39.603,0-72-16.9-72-56.5V57C0,17.4,32.398-3,72-3h156c39.601,0,72,20.9,72,60.5V241
	C300,280.6,267.599,297,228,297z"/>
<rect x="0.758" y="228.086" fill="none" width="298.482" height="79.496"/>
<g enable-background="new    ">
	<path fill="#FFFFFF" d="M79.588,261.11c-1.536,0.768-4.608,1.536-8.545,1.536c-9.121,0-15.985-5.761-15.985-16.37
		c0-10.129,6.865-16.993,16.897-16.993c4.033,0,6.577,0.864,7.681,1.44l-1.008,3.408c-1.584-0.769-3.84-1.345-6.529-1.345
		c-7.584,0-12.625,4.849-12.625,13.346c0,7.921,4.561,13.009,12.433,13.009c2.544,0,5.136-0.528,6.816-1.344L79.588,261.11z"/>
	<path fill="#FFFFFF" d="M84.673,228.083h4.224v14.497h0.096c0.672-1.2,1.728-2.256,3.024-2.976c1.248-0.721,2.736-1.2,4.32-1.2
		c3.12,0,8.113,1.92,8.113,9.937v13.825h-4.225v-13.345c0-3.745-1.392-6.913-5.376-6.913c-2.736,0-4.896,1.92-5.665,4.225
		c-0.24,0.576-0.288,1.2-0.288,2.016v14.018h-4.224V228.083z"/>
	<path fill="#FFFFFF" d="M116.017,232.403c0.048,1.44-1.008,2.593-2.688,2.593c-1.488,0-2.544-1.152-2.544-2.593
		c0-1.488,1.104-2.64,2.641-2.64C115.009,229.764,116.017,230.915,116.017,232.403z M111.313,262.166v-23.234h4.224v23.234H111.313z
		"/>
	<path fill="#FFFFFF" d="M135.41,262.166l-0.336-2.929h-0.144c-1.296,1.824-3.792,3.457-7.104,3.457
		c-4.704,0-7.104-3.313-7.104-6.673c0-5.616,4.992-8.688,13.969-8.641v-0.48c0-1.92-0.528-5.376-5.28-5.376
		c-2.161,0-4.417,0.672-6.049,1.728l-0.96-2.784c1.92-1.248,4.704-2.063,7.633-2.063c7.104,0,8.833,4.848,8.833,9.505v8.688
		c0,2.016,0.096,3.984,0.384,5.568H135.41z M134.785,250.309c-4.608-0.096-9.841,0.721-9.841,5.232c0,2.736,1.824,4.033,3.984,4.033
		c3.024,0,4.945-1.921,5.617-3.889c0.144-0.432,0.24-0.912,0.24-1.344V250.309z"/>
	<path fill="#FFFFFF" d="M145.104,257.846c1.248,0.816,3.457,1.68,5.568,1.68c3.073,0,4.513-1.536,4.513-3.456
		c0-2.016-1.2-3.12-4.319-4.272c-4.177-1.488-6.145-3.792-6.145-6.576c0-3.744,3.024-6.816,8.016-6.816
		c2.353,0,4.417,0.672,5.713,1.439l-1.056,3.072c-0.912-0.576-2.593-1.344-4.753-1.344c-2.496,0-3.888,1.44-3.888,3.168
		c0,1.921,1.392,2.784,4.417,3.937c4.032,1.536,6.097,3.553,6.097,7.009c0,4.08-3.169,6.961-8.689,6.961
		c-2.544,0-4.896-0.624-6.528-1.585L145.104,257.846z"/>
	<path fill="#FFFFFF" d="M164.688,245.221c0-2.4-0.048-4.368-0.191-6.289h3.696l0.191,3.745h0.145
		c1.296-2.209,3.456-4.272,7.297-4.272c3.168,0,5.568,1.92,6.576,4.656h0.096c0.721-1.296,1.633-2.305,2.593-3.024
		c1.392-1.056,2.928-1.632,5.137-1.632c3.072,0,7.632,2.016,7.632,10.08v13.682h-4.128v-13.153c0-4.464-1.632-7.152-5.04-7.152
		c-2.4,0-4.272,1.776-4.993,3.84c-0.191,0.576-0.336,1.345-0.336,2.112v14.354h-4.128v-13.921c0-3.696-1.633-6.385-4.849-6.385
		c-2.641,0-4.561,2.112-5.232,4.225c-0.24,0.624-0.336,1.344-0.336,2.063v14.018h-4.129V245.221z"/>
	<path fill="#FFFFFF" d="M224.162,255.829c0,2.4,0.048,4.513,0.191,6.337h-3.744l-0.24-3.792h-0.096
		c-1.104,1.872-3.553,4.32-7.681,4.32c-3.648,0-8.017-2.017-8.017-10.177v-13.586h4.225v12.865c0,4.417,1.344,7.393,5.185,7.393
		c2.832,0,4.8-1.968,5.568-3.84c0.239-0.624,0.384-1.393,0.384-2.16v-14.258h4.225V255.829z"/>
	<path fill="#FFFFFF" d="M230.592,257.846c1.248,0.816,3.456,1.68,5.568,1.68c3.072,0,4.512-1.536,4.512-3.456
		c0-2.016-1.2-3.12-4.32-4.272c-4.176-1.488-6.145-3.792-6.145-6.576c0-3.744,3.024-6.816,8.017-6.816
		c2.353,0,4.417,0.672,5.713,1.439l-1.056,3.072c-0.912-0.576-2.593-1.344-4.753-1.344c-2.496,0-3.889,1.44-3.889,3.168
		c0,1.921,1.393,2.784,4.417,3.937c4.032,1.536,6.097,3.553,6.097,7.009c0,4.08-3.169,6.961-8.689,6.961
		c-2.544,0-4.896-0.624-6.528-1.585L230.592,257.846z"/>
</g>
<g>
	<g>
		<path opacity="0.4" fill="#FFFFFF" enable-background="new    " d="M148.361,22.499c-46.208,0-83.667,37.459-83.667,83.667
			c0,20.148,11.932,47.423,11.932,47.423l-25.5,35.999l46.046-17.268c14.148,10.968,31.9,17.513,51.189,17.513
			c46.206,0,83.665-37.459,83.665-83.667S194.567,22.499,148.361,22.499z"/>
	</g>
	<g>
		
			<line fill="none" stroke="#FFFFFF" stroke-width="12" stroke-miterlimit="10" x1="82.401" y1="103.579" x2="143.513" y2="103.579"/>
		
			<line fill="none" stroke="#FFFFFF" stroke-width="12" stroke-miterlimit="10" x1="158.263" y1="103.579" x2="202.516" y2="103.579"/>
		
			<line fill="none" stroke="#FFFFFF" stroke-width="12" stroke-miterlimit="10" x1="217.268" y1="103.579" x2="248.877" y2="103.579"/>
	</g>
	<g>
		<g>
			<g>
				<g>
					<path fill="none" stroke="#FFFFFF" stroke-width="16.4925" stroke-miterlimit="10" d="M124.202,144.216
						c12.751,10.864,28.999,17.374,46.691,17.374c17.694,0,33.941-6.509,46.692-17.373"/>
					<g>
						<polygon fill="#FFFFFF" points="113.085,161.514 105.796,121.053 144.484,134.963 						"/>
					</g>
					<g>
						<polygon fill="#FFFFFF" points="228.703,161.518 235.994,121.057 197.307,134.966 						"/>
					</g>
				</g>
			</g>
		</g>
	</g>
</g>
</svg>
