<?xml version="1.0" encoding="utf-8"?>
<!-- Generator: Adobe Illustrator 16.0.3, SVG Export Plug-In . SVG Version: 6.00 Build 0)  -->
<!DOCTYPE svg PUBLIC "-//W3C//DTD SVG 1.1//EN" "http://www.w3.org/Graphics/SVG/1.1/DTD/svg11.dtd" [
	<!ENTITY ns_extend "http://ns.adobe.com/Extensibility/1.0/">
	<!ENTITY ns_ai "http://ns.adobe.com/AdobeIllustrator/10.0/">
	<!ENTITY ns_graphs "http://ns.adobe.com/Graphs/1.0/">
	<!ENTITY ns_vars "http://ns.adobe.com/Variables/1.0/">
	<!ENTITY ns_imrep "http://ns.adobe.com/ImageReplacement/1.0/">
	<!ENTITY ns_sfw "http://ns.adobe.com/SaveForWeb/1.0/">
	<!ENTITY ns_custom "http://ns.adobe.com/GenericCustomNamespace/1.0/">
	<!ENTITY ns_adobe_xpath "http://ns.adobe.com/XPath/1.0/">
]>
<svg version="1.1" id="Ebene_1" xmlns:x="&ns_extend;" xmlns:i="&ns_ai;" xmlns:graph="&ns_graphs;"
	 xmlns="http://www.w3.org/2000/svg" xmlns:xlink="http://www.w3.org/1999/xlink" x="0px" y="0px" width="300px" height="300px"
	 viewBox="0 0 300 300" enable-background="new 0 0 300 300" xml:space="preserve">
<metadata>
	<sfw  xmlns="&ns_sfw;">
		<slices></slices>
		<sliceSourceBounds  height="310.582" width="300" x="-50.5" y="-57.082" bottomLeftOrigin="true"></sliceSourceBounds>
	</sfw>
</metadata>
<path fill="#AA3C85" d="M228,297H72c-39.603,0-72-16.9-72-56.5V57C0,17.4,32.398-3,72-3h156c39.602,0,72,20.9,72,60.5V241
	C300,280.6,267.6,297,228,297z"/>
<rect x="0.758" y="228.086" fill="none" width="298.483" height="79.496"/>
<g enable-background="new    ">
	<path fill="#FFFFFF" d="M17.498,230.195c2.016-0.336,4.656-0.624,8.017-0.624c4.128,0,7.152,0.96,9.073,2.688
		c1.776,1.536,2.832,3.888,2.832,6.769c0,2.928-0.864,5.232-2.496,6.912c-2.208,2.353-5.809,3.553-9.889,3.553
		c-1.248,0-2.4-0.048-3.36-0.288v12.961h-4.176V230.195z M21.675,245.797c0.912,0.24,2.064,0.336,3.456,0.336
		c5.041,0,8.113-2.448,8.113-6.913c0-4.272-3.024-6.336-7.632-6.336c-1.824,0-3.216,0.144-3.937,0.336V245.797z"/>
	<path fill="#FFFFFF" d="M62.716,250.357c0,8.593-5.953,12.337-11.569,12.337c-6.289,0-11.137-4.608-11.137-11.953
		c0-7.776,5.088-12.337,11.521-12.337C58.203,238.404,62.716,243.252,62.716,250.357z M44.282,250.597
		c0,5.089,2.928,8.929,7.057,8.929c4.032,0,7.057-3.792,7.057-9.024c0-3.937-1.968-8.929-6.961-8.929
		C46.443,241.572,44.282,246.181,44.282,250.597z"/>
	<path fill="#FFFFFF" d="M68.042,228.083h4.224v34.083h-4.224V228.083z"/>
	<path fill="#FFFFFF" d="M80.906,238.932l5.088,13.729c0.528,1.536,1.104,3.36,1.488,4.753h0.096
		c0.432-1.393,0.912-3.169,1.488-4.849l4.608-13.634h4.464l-6.336,16.562c-3.024,7.969-5.088,12.05-7.969,14.546
		c-2.064,1.824-4.128,2.544-5.185,2.736l-1.056-3.553c1.056-0.336,2.448-1.008,3.696-2.064c1.152-0.912,2.592-2.544,3.552-4.704
		c0.192-0.432,0.336-0.769,0.336-1.008c0-0.24-0.096-0.576-0.288-1.104l-8.593-21.41H80.906z"/>
	<path fill="#FFFFFF" d="M101.114,257.846c1.248,0.816,3.457,1.68,5.568,1.68c3.072,0,4.513-1.536,4.513-3.456
		c0-2.016-1.2-3.12-4.32-4.272c-4.177-1.488-6.145-3.792-6.145-6.576c0-3.744,3.024-6.816,8.017-6.816
		c2.352,0,4.416,0.672,5.712,1.439l-1.056,3.072c-0.912-0.576-2.592-1.344-4.752-1.344c-2.496,0-3.888,1.44-3.888,3.168
		c0,1.921,1.392,2.784,4.417,3.937c4.032,1.536,6.096,3.553,6.096,7.009c0,4.08-3.168,6.961-8.688,6.961
		c-2.544,0-4.896-0.624-6.529-1.585L101.114,257.846z"/>
	<path fill="#FFFFFF" d="M122.234,238.932l5.089,13.729c0.528,1.536,1.104,3.36,1.488,4.753h0.096
		c0.433-1.393,0.912-3.169,1.488-4.849l4.608-13.634h4.464l-6.336,16.562c-3.024,7.969-5.089,12.05-7.969,14.546
		c-2.064,1.824-4.129,2.544-5.185,2.736l-1.056-3.553c1.056-0.336,2.448-1.008,3.696-2.064c1.151-0.912,2.592-2.544,3.552-4.704
		c0.192-0.432,0.336-0.769,0.336-1.008c0-0.24-0.096-0.576-0.288-1.104l-8.593-21.41H122.234z"/>
	<path fill="#FFFFFF" d="M143.305,245.221c0-2.4-0.048-4.368-0.191-6.289h3.744l0.24,3.841h0.096
		c1.152-2.208,3.841-4.368,7.681-4.368c3.217,0,8.209,1.92,8.209,9.889v13.873h-4.225v-13.394c0-3.744-1.392-6.864-5.376-6.864
		c-2.785,0-4.945,1.968-5.665,4.32c-0.192,0.528-0.288,1.248-0.288,1.969v13.969h-4.225V245.221z"/>
	<path fill="#FFFFFF" d="M190.011,228.083v28.082c0,2.064,0.048,4.417,0.191,6.001h-3.792l-0.192-4.032h-0.096
		c-1.296,2.592-4.128,4.561-7.921,4.561c-5.616,0-9.937-4.753-9.937-11.81c-0.048-7.729,4.752-12.48,10.417-12.48
		c3.552,0,5.952,1.68,7.009,3.552h0.096v-13.873H190.011z M185.786,248.389c0-0.528-0.048-1.248-0.192-1.776
		c-0.624-2.688-2.928-4.896-6.096-4.896c-4.369,0-6.961,3.841-6.961,8.978c0,4.704,2.304,8.593,6.864,8.593
		c2.832,0,5.425-1.872,6.192-5.041c0.145-0.576,0.192-1.152,0.192-1.824V248.389z"/>
	<path fill="#FFFFFF" d="M199.368,251.317c0.096,5.712,3.744,8.064,7.969,8.064c3.024,0,4.849-0.528,6.433-1.2l0.72,3.024
		c-1.488,0.672-4.032,1.44-7.729,1.44c-7.152,0-11.425-4.705-11.425-11.714c0-7.008,4.128-12.528,10.896-12.528
		c7.585,0,9.602,6.672,9.602,10.944c0,0.864-0.097,1.536-0.145,1.969H199.368z M211.753,248.293
		c0.049-2.688-1.104-6.865-5.856-6.865c-4.272,0-6.145,3.937-6.48,6.865H211.753z"/>
	<path fill="#FFFFFF" d="M226.153,232.26v6.672h6.049v3.217h-6.049v12.529c0,2.88,0.816,4.512,3.168,4.512
		c1.104,0,1.921-0.144,2.448-0.288l0.192,3.169c-0.816,0.336-2.112,0.576-3.744,0.576c-1.969,0-3.553-0.624-4.561-1.776
		c-1.2-1.248-1.632-3.313-1.632-6.049v-12.673h-3.601v-3.217h3.601v-5.568L226.153,232.26z"/>
	<path fill="#FFFFFF" d="M257.69,250.357c0,8.593-5.953,12.337-11.569,12.337c-6.288,0-11.137-4.608-11.137-11.953
		c0-7.776,5.089-12.337,11.521-12.337C253.177,238.404,257.69,243.252,257.69,250.357z M239.256,250.597
		c0,5.089,2.928,8.929,7.057,8.929c4.032,0,7.057-3.792,7.057-9.024c0-3.937-1.969-8.929-6.961-8.929
		S239.256,246.181,239.256,250.597z"/>
	<path fill="#FFFFFF" d="M263.016,245.221c0-2.4-0.048-4.368-0.191-6.289h3.744l0.24,3.841h0.096
		c1.152-2.208,3.841-4.368,7.681-4.368c3.217,0,8.209,1.92,8.209,9.889v13.873h-4.225v-13.394c0-3.744-1.392-6.864-5.376-6.864
		c-2.785,0-4.945,1.968-5.665,4.32c-0.192,0.528-0.288,1.248-0.288,1.969v13.969h-4.225V245.221z"/>
</g>
<g>
	<g>
		<path opacity="0.4" fill="#FFFFFF" enable-background="new    " d="M148.36,22.499c-46.208,0-83.667,37.459-83.667,83.667
			c0,20.148,11.932,47.423,11.932,47.423l-25.5,35.999L97.17,172.32c14.148,10.968,31.9,17.513,51.189,17.513
			c46.207,0,83.666-37.459,83.666-83.667S194.567,22.499,148.36,22.499z"/>
	</g>
	<g>
		<line fill="none" stroke="#FFFFFF" stroke-width="12" stroke-miterlimit="10" x1="82.4" y1="103.579" x2="143.512" y2="103.579"/>
		
			<line fill="none" stroke="#FFFFFF" stroke-width="12" stroke-miterlimit="10" x1="158.264" y1="103.579" x2="202.516" y2="103.579"/>
		
			<line fill="none" stroke="#FFFFFF" stroke-width="12" stroke-miterlimit="10" x1="217.268" y1="103.579" x2="248.877" y2="103.579"/>
	</g>
	<g>
		<g>
			<g>
				<g>
					<path fill="none" stroke="#FFFFFF" stroke-width="16.4925" stroke-miterlimit="10" d="M124.202,144.216
						c12.751,10.864,29,17.374,46.693,17.374s33.941-6.509,46.691-17.373"/>
					<g>
						<polygon fill="#FFFFFF" points="113.085,161.514 105.796,121.053 144.483,134.963 						"/>
					</g>
					<g>
						<polygon fill="#FFFFFF" points="228.703,161.518 235.994,121.057 197.307,134.966 						"/>
					</g>
				</g>
			</g>
		</g>
	</g>
</g>
</svg>
