<?xml version="1.0" encoding="utf-8"?>
<!-- Generator: Adobe Illustrator 16.0.3, SVG Export Plug-In . SVG Version: 6.00 Build 0)  -->
<!DOCTYPE svg PUBLIC "-//W3C//DTD SVG 1.1//EN" "http://www.w3.org/Graphics/SVG/1.1/DTD/svg11.dtd" [
	<!ENTITY ns_extend "http://ns.adobe.com/Extensibility/1.0/">
	<!ENTITY ns_ai "http://ns.adobe.com/AdobeIllustrator/10.0/">
	<!ENTITY ns_graphs "http://ns.adobe.com/Graphs/1.0/">
	<!ENTITY ns_vars "http://ns.adobe.com/Variables/1.0/">
	<!ENTITY ns_imrep "http://ns.adobe.com/ImageReplacement/1.0/">
	<!ENTITY ns_sfw "http://ns.adobe.com/SaveForWeb/1.0/">
	<!ENTITY ns_custom "http://ns.adobe.com/GenericCustomNamespace/1.0/">
	<!ENTITY ns_adobe_xpath "http://ns.adobe.com/XPath/1.0/">
]>
<svg version="1.1" xmlns:x="&ns_extend;" xmlns:i="&ns_ai;" xmlns:graph="&ns_graphs;"
	 xmlns="http://www.w3.org/2000/svg" xmlns:xlink="http://www.w3.org/1999/xlink" x="0px" y="0px" width="290.9px" height="290.9px"
	 viewBox="0 0 290.9 290.9" style="enable-background:new 0 0 290.9 290.9;" xml:space="preserve">
<style type="text/css">
<![CDATA[
	.st0{fill:#2F98C1;}
	.st1{opacity:0.75;fill:#FFFFFF;}
	.st2{fill:#FFFFFF;}
	.st3{display:none;}
]]>
</style>
<metadata>
	<sfw  xmlns="&ns_sfw;">
		<slices></slices>
		<sliceSourceBounds  width="290.9" height="290.9" y="-7" x="-20.8" bottomLeftOrigin="true"></sliceSourceBounds>
	</sfw>
</metadata>
<g id="Ebene_1">
	<path class="st0" d="M254.4,290.9H36.5C16.4,290.9,0,274.5,0,254.4V36.5C0,16.4,16.4,0,36.5,0h217.9c20.1,0,36.5,16.4,36.5,36.5
		v217.9C290.9,274.5,274.5,290.9,254.4,290.9z"/>
	<g>
		<path class="st2" d="M44.7,220.7c2.2-0.4,5.4-0.7,8.7-0.7c4.6,0,7.7,0.8,9.8,2.5c1.7,1.5,2.7,3.7,2.7,6.3c0,4.1-2.8,6.9-5.7,7.9
			v0.1c2.3,0.8,3.6,3.1,4.4,6.1c1,3.9,1.8,7.6,2.5,8.8h-6c-0.5-0.9-1.2-3.5-2.1-7.5c-0.9-4.1-2.4-5.5-5.7-5.5h-2.9v13h-5.7V220.7z
			 M50.5,234.7h3.4c3.9,0,6.3-2.1,6.3-5.2c0-3.5-2.4-5.1-6.2-5.1c-1.8,0-3,0.1-3.6,0.3V234.7z"/>
		<path class="st2" d="M75.5,242.2c0.1,4.1,3.4,5.9,7,5.9c2.7,0,4.6-0.4,6.3-1l0.8,4c-2,0.8-4.7,1.4-8,1.4
			c-7.4,0-11.8-4.6-11.8-11.6c0-6.3,3.9-12.3,11.2-12.3c7.4,0,9.9,6.1,9.9,11.1c0,1.1-0.1,1.9-0.2,2.4H75.5z M85.5,238.1
			c0-2.1-0.9-5.6-4.7-5.6c-3.6,0-5.1,3.2-5.3,5.6H85.5z"/>
		<path class="st2" d="M93.5,248.6l8.6-11c1.2-1.4,2.2-2.5,3.4-3.9v-0.1H94.3v-4.6h18.2v3.5l-8.4,10.8c-1.1,1.4-2.2,2.7-3.4,3.9v0.1
			h12.1v4.6H93.5V248.6z"/>
		<path class="st2" d="M120.5,242.2c0.1,4.1,3.4,5.9,7,5.9c2.7,0,4.6-0.4,6.3-1l0.8,4c-2,0.8-4.7,1.4-8,1.4
			c-7.4,0-11.8-4.6-11.8-11.6c0-6.3,3.9-12.3,11.2-12.3c7.4,0,9.9,6.1,9.9,11.1c0,1.1-0.1,1.9-0.2,2.4H120.5z M130.6,238.1
			c0-2.1-0.9-5.6-4.7-5.6c-3.6,0-5.1,3.2-5.3,5.6H130.6z"/>
		<path class="st2" d="M140.7,235.9c0-2.6,0-4.8-0.2-6.8h5.1l0.3,3.4h0.1c1-1.8,3.5-3.9,7.3-3.9c4,0,8.1,2.6,8.1,9.8V252h-5.8v-12.9
			c0-3.3-1.2-5.8-4.4-5.8c-2.3,0-3.9,1.6-4.5,3.4c-0.2,0.5-0.2,1.2-0.2,1.9V252h-5.8V235.9z"/>
		<path class="st2" d="M167.3,246.7c1.3,0.8,3.8,1.6,5.9,1.6c2.5,0,3.7-1,3.7-2.5c0-1.6-0.9-2.4-3.8-3.3c-4.5-1.6-6.3-4-6.3-6.7
			c0-4,3.3-7.2,8.6-7.2c2.5,0,4.7,0.7,6.1,1.4l-1.1,4.1c-1-0.6-2.8-1.3-4.8-1.3c-2.1,0-3.2,1-3.2,2.4c0,1.5,1.1,2.2,4,3.2
			c4.1,1.5,6.1,3.6,6.1,7c0,4.1-3.2,7.1-9.3,7.1c-2.8,0-5.3-0.7-7-1.6L167.3,246.7z"/>
		<path class="st2" d="M193.3,222.7c0,1.7-1.3,3.1-3.3,3.1c-1.9,0-3.2-1.4-3.2-3.1c0-1.8,1.3-3.1,3.2-3.1
			C192.1,219.5,193.3,220.9,193.3,222.7z M187.2,252v-22.9h5.8V252H187.2z"/>
		<path class="st2" d="M221,240.3c0,8.4-5.9,12.2-11.8,12.2c-6.5,0-11.5-4.5-11.5-11.8c0-7.5,4.9-12.1,11.8-12.1
			C216.4,228.6,221,233.4,221,240.3z M203.7,240.6c0,4.4,2.2,7.8,5.7,7.8c3.3,0,5.6-3.2,5.6-7.8c0-3.6-1.6-7.7-5.5-7.7
			C205.4,232.8,203.7,236.7,203.7,240.6z"/>
		<path class="st2" d="M225.7,235.9c0-2.6,0-4.8-0.2-6.8h5.1l0.3,3.4h0.1c1-1.8,3.5-3.9,7.3-3.9c4,0,8.1,2.6,8.1,9.8V252h-5.8v-12.9
			c0-3.3-1.2-5.8-4.4-5.8c-2.3,0-3.9,1.6-4.5,3.4c-0.2,0.5-0.2,1.2-0.2,1.9V252h-5.8V235.9z"/>
	</g>
	<g>
		<path class="st1" d="M165.7,55.9c-0.3-10.7,8.5-17.3,19.7-15.1c1.6,0.3,3.5,0.6,4.8,0c11.9-5.6,22.3-2.3,32.3,4.7
			c0.1,0.1,0.3,0.2,0.4,0.3c5.9,6.2,12.9,7.2,20.9,5c1.4-0.4,4.2,1,5,2.4c7.1,13,9.4,26.9,6.4,41.6c-0.7,3.5-2.2,5.8-6.2,5.6
			c-10.1-0.4-15.8,4.9-20.3,13.6c-5.3,10.1-12.1,19.5-18.6,28.9c-2.9,4.2-5.2,8.3-5.4,13.6c-0.1,3.5-0.8,6.9-1.2,10.4
			c-0.7,5.7-1.8,6.6-7.3,5.4c-10.4-2.3-16.5-11.3-14.7-22.1c0.8-4.6,2.7-8.9,3.9-13.4c1.6-6.2,2.8-12.4,4.4-19.1
			c-5.8,0.3-10.3,1-14.7,0.6c-5.2-0.5-10.7-1.2-15.5-3.2c-9.4-3.8-12.6-13.1-8.1-22.4c1.2-2.5,1.3-4.2,0-6.8
			c-2.8-5.1-1.5-9.4,3.1-13.3c1-0.8,2.3-2.3,2.1-3.3C155.1,61.9,158.9,58.1,165.7,55.9z"/>
		<path class="st2" d="M50.1,155.2c-8.7-3.9-10-6.1-9.1-15.1c-7.6-6.1-8-8.1-4.6-16.9c0.4-1.1,0.1-2.8-0.4-4
			c-5.4-11.9-1.6-21.7,11-24.8c8-2,16.7-1.7,26.4-2.5c-1.1-5-2.2-11.1-3.8-17c-1.1-4.2-3-8.2-3.9-12.4c-2.7-12.3,3.8-22.1,15.8-24.6
			c3.7-0.8,6.3-0.1,6.5,4.4c0,1,0.5,2,0.4,3c-0.7,12.3,5,21.8,12.2,31.2c5.1,6.7,9.7,14,13.4,21.6c3.8,7.8,9,12.7,17.9,12.3
			c5.6-0.3,7.2,2.7,8,7.7c2.4,14,0,27.1-6.4,39.7c-1.2,2.4-2.7,3.6-5.5,2.7c-7.7-2.3-14-0.8-20.5,4.5c-9.6,7.9-20.6,10.9-33,5.5
			c-3.9-1.7-9.1-0.1-13.6-1C52.4,167.6,49.9,164,50.1,155.2z"/>
	</g>
</g>
<g id="Ebene_2" class="st3">
</g>
<g id="Ebene_3">
</g>
</svg>
