<?xml version="1.0" encoding="utf-8"?>
<!-- Generator: Adobe Illustrator 16.0.3, SVG Export Plug-In . SVG Version: 6.00 Build 0)  -->
<!DOCTYPE svg PUBLIC "-//W3C//DTD SVG 1.1//EN" "http://www.w3.org/Graphics/SVG/1.1/DTD/svg11.dtd" [
	<!ENTITY ns_extend "http://ns.adobe.com/Extensibility/1.0/">
	<!ENTITY ns_ai "http://ns.adobe.com/AdobeIllustrator/10.0/">
	<!ENTITY ns_graphs "http://ns.adobe.com/Graphs/1.0/">
	<!ENTITY ns_vars "http://ns.adobe.com/Variables/1.0/">
	<!ENTITY ns_imrep "http://ns.adobe.com/ImageReplacement/1.0/">
	<!ENTITY ns_sfw "http://ns.adobe.com/SaveForWeb/1.0/">
	<!ENTITY ns_custom "http://ns.adobe.com/GenericCustomNamespace/1.0/">
	<!ENTITY ns_adobe_xpath "http://ns.adobe.com/XPath/1.0/">
]>
<svg version="1.1" xmlns:x="&ns_extend;" xmlns:i="&ns_ai;" xmlns:graph="&ns_graphs;"
	 xmlns="http://www.w3.org/2000/svg" xmlns:xlink="http://www.w3.org/1999/xlink" x="0px" y="0px" width="290.9px" height="290.9px"
	 viewBox="0 0 290.9 290.9" style="enable-background:new 0 0 290.9 290.9;" xml:space="preserve">
<style type="text/css">
<![CDATA[
	.st0{fill:none;stroke:#FFFFFF;stroke-width:5.2956;stroke-linecap:square;stroke-miterlimit:10;}
	.st1{fill:none;stroke:#FFFFFF;stroke-width:4.2365;stroke-linecap:square;stroke-miterlimit:10;}
	.st2{opacity:0.75;}
	.st3{fill:#2F98C1;}
	.st4{fill:#FFFFFF;}
	.st5{fill:none;stroke:#FFFFFF;stroke-width:5.2956;stroke-linecap:round;stroke-miterlimit:10;}
	.st6{fill:#FFFFFF;stroke:#FFFFFF;stroke-width:5.2956;stroke-linecap:round;stroke-miterlimit:10;}
]]>
</style>
<metadata>
	<sfw  xmlns="&ns_sfw;">
		<slices></slices>
		<sliceSourceBounds  width="290.9" height="370.2" x="-11.3" y="-7" bottomLeftOrigin="true"></sliceSourceBounds>
	</sfw>
</metadata>
<g id="Ebene_1">
	<path class="st3" d="M254.4,290.9H36.5C16.4,290.9,0,274.5,0,254.4V36.5C0,16.4,16.4,0,36.5,0h217.9c20.1,0,36.5,16.4,36.5,36.5
		v217.9C290.9,274.5,274.5,290.9,254.4,290.9z"/>
	<g>
		<path class="st4" d="M68.3,196.7c2.1-0.4,4.9-0.7,8.8-0.7c4.2,0,7.3,0.9,9.4,2.6c1.9,1.6,3.1,4,3.1,7c0,3-0.9,5.5-2.7,7.2
			c-2.3,2.3-5.9,3.4-10,3.4c-1.1,0-2.1,0-2.8-0.2V228h-5.7V196.7z M74.1,211.5c0.7,0.2,1.6,0.2,2.8,0.2c4.3,0,7-2.1,7-5.8
			c0-3.5-2.4-5.4-6.4-5.4c-1.6,0-2.7,0.1-3.3,0.3V211.5z"/>
		<path class="st4" d="M93.8,212.4c0-3.1,0-5.3-0.2-7.4h5l0.2,4.4H99c1.1-3.2,3.8-4.9,6.3-4.9c0.6,0,0.9,0,1.4,0.1v5.5
			c-0.5-0.1-1-0.2-1.7-0.2c-2.8,0-4.7,1.8-5.2,4.4c-0.1,0.5-0.2,1.1-0.2,1.8V228h-5.8V212.4z"/>
		<path class="st4" d="M131.9,216.3c0,8.4-5.9,12.2-11.7,12.2c-6.5,0-11.5-4.5-11.5-11.8c0-7.5,4.9-12.1,11.8-12.1
			C127.3,204.5,131.9,209.3,131.9,216.3z M114.6,216.5c0,4.4,2.2,7.8,5.7,7.8c3.3,0,5.6-3.2,5.6-7.8c0-3.6-1.6-7.7-5.5-7.7
			C116.3,208.8,114.6,212.7,114.6,216.5z"/>
		<path class="st4" d="M157.7,194.6v26.9c0,2.3,0.1,4.9,0.2,6.4h-5.2l-0.2-3.6h-0.1c-1.4,2.5-4.1,4.1-7.5,4.1
			c-5.5,0-9.8-4.7-9.8-11.7c0-7.7,4.7-12.2,10.2-12.2c3.1,0,5.4,1.3,6.4,3h0.1v-13H157.7z M152,214.6c0-0.5,0-1-0.1-1.5
			c-0.5-2.3-2.3-4.1-5-4.1c-3.7,0-5.8,3.3-5.8,7.6c0,4.2,2.1,7.2,5.7,7.2c2.3,0,4.4-1.6,5-4.1c0.1-0.5,0.2-1.1,0.2-1.7V214.6z"/>
		<path class="st4" d="M184.4,221.1c0,2.7,0.1,5,0.2,6.9h-5.1l-0.3-3.5h-0.1c-1,1.6-3.2,4-7.3,4c-4.2,0-8-2.5-8-10v-13.4h5.8v12.5
			c0,3.8,1.2,6.3,4.3,6.3c2.3,0,3.8-1.6,4.4-3.1c0.2-0.5,0.3-1.1,0.3-1.8v-13.8h5.8V221.1z"/>
		<path class="st4" d="M207.5,227.2c-1.2,0.6-3.6,1.2-6.5,1.2c-7.1,0-11.8-4.6-11.8-11.7c0-6.9,4.7-12.2,12.7-12.2
			c2.1,0,4.3,0.5,5.6,1.1l-1,4.3c-0.9-0.4-2.3-0.9-4.4-0.9c-4.4,0-7,3.2-7,7.4c0,4.7,3.1,7.4,7,7.4c2,0,3.4-0.4,4.6-0.9L207.5,227.2
			z"/>
		<path class="st4" d="M219.1,198.5v6.5h5.5v4.3h-5.5v10.1c0,2.8,0.8,4.2,3,4.2c1,0,1.7-0.1,2.3-0.3l0.1,4.4
			c-0.8,0.3-2.4,0.6-4.2,0.6c-2.1,0-3.9-0.7-5-1.9c-1.2-1.3-1.8-3.4-1.8-6.4v-10.8h-3.3v-4.3h3.3v-5.2L219.1,198.5z"/>
		<path class="st4" d="M41.7,236.1c2.1-0.4,4.9-0.7,8.8-0.7c4.2,0,7.3,0.9,9.4,2.6c1.9,1.6,3.1,4,3.1,7c0,3-0.9,5.5-2.7,7.2
			c-2.3,2.3-5.9,3.4-10,3.4c-1.1,0-2.1,0-2.8-0.2v11.9h-5.7V236.1z M47.4,250.9c0.7,0.2,1.6,0.2,2.8,0.2c4.3,0,7-2.1,7-5.8
			c0-3.5-2.4-5.4-6.4-5.4c-1.6,0-2.7,0.1-3.3,0.3V250.9z"/>
		<path class="st4" d="M67.5,234h5.8v33.4h-5.8V234z"/>
		<path class="st4" d="M92.5,267.4l-0.4-2.5H92c-1.4,1.8-3.8,3.1-6.8,3.1c-4.6,0-7.2-3.3-7.2-6.8c0-5.8,5.1-8.7,13.6-8.6V252
			c0-1.5-0.6-4-4.7-4c-2.3,0-4.6,0.7-6.2,1.7l-1.1-3.8c1.7-1,4.7-2,8.3-2c7.3,0,9.4,4.7,9.4,9.6v8.3c0,2.1,0.1,4.1,0.3,5.5H92.5z
			 M91.8,256.2c-4.1-0.1-8,0.8-8,4.3c0,2.3,1.5,3.3,3.3,3.3c2.3,0,4-1.5,4.5-3.1c0.1-0.4,0.2-0.9,0.2-1.3V256.2z"/>
		<path class="st4" d="M120.3,266.6c-1.2,0.6-3.6,1.2-6.5,1.2c-7.1,0-11.8-4.6-11.8-11.7c0-6.9,4.7-12.2,12.7-12.2
			c2.1,0,4.3,0.5,5.6,1.1l-1,4.3c-0.9-0.4-2.3-0.9-4.4-0.9c-4.4,0-7,3.2-7,7.4c0,4.7,3.1,7.4,7,7.4c2,0,3.4-0.4,4.6-0.9L120.3,266.6
			z"/>
		<path class="st4" d="M128.3,257.5c0.1,4.1,3.4,5.9,7,5.9c2.7,0,4.6-0.4,6.3-1l0.8,4c-2,0.8-4.7,1.4-8,1.4
			c-7.4,0-11.8-4.6-11.8-11.6c0-6.3,3.9-12.3,11.2-12.3c7.4,0,9.9,6.1,9.9,11.1c0,1.1-0.1,1.9-0.2,2.4H128.3z M138.3,253.5
			c0-2.1-0.9-5.6-4.7-5.6c-3.6,0-5.1,3.2-5.3,5.6H138.3z"/>
		<path class="st4" d="M148.4,251.3c0-2.6,0-4.8-0.2-6.8h5l0.2,3.4h0.1c1.1-1.8,3.2-3.9,7-3.9c3,0,5.4,1.7,6.3,4.2h0.1
			c0.8-1.3,1.7-2.2,2.8-2.9c1.3-0.9,2.7-1.4,4.6-1.4c3.8,0,7.7,2.6,7.7,9.9v13.5h-5.6v-12.6c0-3.8-1.3-6.1-4.1-6.1
			c-2,0-3.4,1.4-4,3.1c-0.1,0.6-0.3,1.3-0.3,1.9v13.7h-5.6v-13.3c0-3.2-1.3-5.5-3.9-5.5c-2.2,0-3.6,1.7-4.1,3.3
			c-0.2,0.6-0.3,1.2-0.3,1.9v13.5h-5.6V251.3z"/>
		<path class="st4" d="M192.4,257.5c0.1,4.1,3.4,5.9,7,5.9c2.7,0,4.6-0.4,6.3-1l0.8,4c-2,0.8-4.7,1.4-8,1.4
			c-7.4,0-11.8-4.6-11.8-11.6c0-6.3,3.9-12.3,11.2-12.3c7.4,0,9.9,6.1,9.9,11.1c0,1.1-0.1,1.9-0.2,2.4H192.4z M202.4,253.5
			c0-2.1-0.9-5.6-4.7-5.6c-3.6,0-5.1,3.2-5.3,5.6H202.4z"/>
		<path class="st4" d="M212.5,251.3c0-2.6,0-4.8-0.2-6.8h5.1l0.3,3.4h0.1c1-1.8,3.5-3.9,7.3-3.9c4,0,8.1,2.6,8.1,9.8v13.6h-5.8
			v-12.9c0-3.3-1.2-5.8-4.4-5.8c-2.3,0-3.9,1.6-4.5,3.4c-0.2,0.5-0.2,1.2-0.2,1.9v13.4h-5.8V251.3z"/>
		<path class="st4" d="M245.8,237.9v6.5h5.5v4.3h-5.5v10.1c0,2.8,0.8,4.2,3,4.2c1,0,1.7-0.1,2.3-0.3l0.1,4.4
			c-0.8,0.3-2.3,0.6-4.2,0.6c-2.1,0-3.9-0.7-5-1.9c-1.2-1.3-1.8-3.4-1.8-6.4v-10.8h-3.3v-4.3h3.3v-5.2L245.8,237.9z"/>
	</g>
</g>
<g id="drink">
	<line class="st1" x1="240.7" y1="88.3" x2="253.2" y2="97.4"/>
	<line class="st1" x1="268.7" y1="107.9" x2="255.2" y2="99.3"/>
	<line class="st6" x1="206.1" y1="99.3" x2="212.8" y2="170.2"/>
	<line class="st6" x1="255.2" y1="99.3" x2="248.4" y2="170.2"/>
	<path class="st6" d="M208,119.5c0,0,16.5,8.2,45.3,0c-1.4,13.6-2,17.3-2,17.3l-2.8,33.5c0,0,0.1,2.9-2.1,5
		c-3.6,1.8-18.9,1.2-26.1,0.6c-2.6-0.2-5.9,0-7-2.4l-0.6-5.1L208,119.5z"/>
	<line class="st5" x1="206.1" y1="99.3" x2="255.2" y2="99.3"/>
	<line class="st0" x1="196.5" y1="83.4" x2="214.3" y2="79.6"/>
	<line class="st5" x1="216.3" y1="97.7" x2="216.1" y2="78.9"/>
	<path class="st0" d="M236.4,97.9c0-9.7,7.8-17.5,17.5-17.5s17.5,7.8,17.5,17.5s-7.8,17.5-17.5,17.5"/>
	<line class="st1" x1="254" y1="81.5" x2="254" y2="97.9"/>
	<line class="st1" x1="269.1" y1="89.7" x2="254" y2="98.7"/>
</g>
<g id="head">
	<g class="st2">
		<path class="st4" d="M151,32.3c0-77.5-14.4,42.7-14.4-35c-0.7,0,13.1-57.4,12.3-57.4C80.6-60,90.4-79.4,22.1-79.3
			c-0.6,0-1.2,0.3-1.8,0.4c26.5,0,52.9,0,79.4,0c0,0.2,0,0.3,0,0.5c-0.4,0.1-0.7,0.2-1.1,0.3c-7.3,0.6-14.3,2.6-21.1,5.3
			c-9,3.6-17.1,8.6-24.3,15C42-48,33.9-35.9,28.7-21.7c-2.8,7.6-4.7,15.5-5,23.6c-0.3,6.7,0.3,13.5,0.7,20.2
			c0.5,7.1,2.7,13.9,5.4,20.5c4.5,11.2,10.9,21,19.4,29.4c1.2,1.2,14.9,10.8,14.9,12.6c-0.1,16.3,0,25.8,0,42.1c0,1.1,0,4.4,0.1,5.4
			c0.3,2.7,1.5,3.9,4.1,4.6c4,1.1,1.4,0.5,5.4,1.2c4.5,0.8,3.6,0.6,8.1,1.5c4.5,0.8,9.1,1.7,13.6,2.6c4.9,0.9,9.9,1.8,14.9,2.7
			c4.3,0.8,8.6,1.6,12.8,2.4c4.6,0.8,9.3,1.6,13.9,2.4c3,0.5,5.9,1.2,8.9,1.7 M145.9,151.2c1.3,0.2,2.7-0.1,3.7-1.2
			c1.3-1.5,1.6-3.4,1.5-5.5c-0.1-7.2,0-14.4,0-21.6c0-1.8,0.5-2.4,2.3-2c5.2,1,10.5,1.8,15.7,2.7c2.6,0.4,5.3,1,7.9,0.9
			c9.2-0.5,16.5-8.7,16.5-18.2c0-10.2,0-20.3,0-30.5c0-1.6,0.4-2.3,2.1-2.2c2.3,0.1,4.7,0.4,6.9-0.1c2.4-0.4,5-1.2,7-2.5
			c3.8-2.6,3.8-7.9,1.5-12.7c-4.3-8.8-8.7-17.7-13.4-26.2c-3.1-5.5-4.4-11.1-4.1-17.4c0.7-12.9-1.2-25.4-5.7-37.5
			c-4-10.7-9.9-20.1-17.5-28.4c-7.4-8.1-16-14.4-25.7-19.1c-8.3-4-16.9-6.9-26.1-7.6c-0.5,0-1.1-0.2-1.6-0.3c0-0.1,0-0.3,0.1-0.4"/>
	</g>
</g>
<g id="Ebene_2">
	<path class="st4" d="M140.1,166.9"/>
</g>
</svg>
