<?xml version="1.0" encoding="utf-8"?>
<!-- Generator: Adobe Illustrator 16.0.3, SVG Export Plug-In . SVG Version: 6.00 Build 0)  -->
<!DOCTYPE svg PUBLIC "-//W3C//DTD SVG 1.1//EN" "http://www.w3.org/Graphics/SVG/1.1/DTD/svg11.dtd" [
	<!ENTITY ns_extend "http://ns.adobe.com/Extensibility/1.0/">
	<!ENTITY ns_ai "http://ns.adobe.com/AdobeIllustrator/10.0/">
	<!ENTITY ns_graphs "http://ns.adobe.com/Graphs/1.0/">
	<!ENTITY ns_vars "http://ns.adobe.com/Variables/1.0/">
	<!ENTITY ns_imrep "http://ns.adobe.com/ImageReplacement/1.0/">
	<!ENTITY ns_sfw "http://ns.adobe.com/SaveForWeb/1.0/">
	<!ENTITY ns_custom "http://ns.adobe.com/GenericCustomNamespace/1.0/">
	<!ENTITY ns_adobe_xpath "http://ns.adobe.com/XPath/1.0/">
]>
<svg version="1.1" id="Ebene_1" xmlns:x="&ns_extend;" xmlns:i="&ns_ai;" xmlns:graph="&ns_graphs;"
	 xmlns="http://www.w3.org/2000/svg" xmlns:xlink="http://www.w3.org/1999/xlink" x="0px" y="0px" width="290.9px" height="290.9px"
	 viewBox="0 0 290.9 290.9" style="enable-background:new 0 0 290.9 290.9;" xml:space="preserve">
<style type="text/css">
<![CDATA[
	.st0{fill:#FDFEFE;}
	.st1{fill:#2F98C1;}
	.st2{fill:#FFFFFF;}
]]>
</style>
<metadata>
	<sfw  xmlns="&ns_sfw;">
		<slices></slices>
		<sliceSourceBounds  height="290.9" width="290.9" y="-7" x="-20.8" bottomLeftOrigin="true"></sliceSourceBounds>
	</sfw>
</metadata>
<path class="st1" d="M254.4,290.9H36.5C16.4,290.9,0,274.5,0,254.4V36.5C0,16.4,16.4,0,36.5,0h217.9c20.1,0,36.5,16.4,36.5,36.5
	v217.9C290.9,274.5,274.5,290.9,254.4,290.9z"/>
<g>
	<path class="st2" d="M55.2,220.3H61v26.8h13v4.8H55.2V220.3z"/>
	<path class="st2" d="M81.7,242.2c0.1,4.1,3.4,5.9,7,5.9c2.7,0,4.6-0.4,6.3-1l0.8,4c-2,0.8-4.7,1.4-8,1.4c-7.4,0-11.8-4.6-11.8-11.6
		c0-6.3,3.9-12.3,11.2-12.3c7.4,0,9.9,6.1,9.9,11.1c0,1.1-0.1,1.9-0.2,2.4H81.7z M91.8,238.1c0-2.1-0.9-5.6-4.7-5.6
		c-3.6,0-5.1,3.2-5.3,5.6H91.8z"/>
	<path class="st2" d="M108.5,222.6v6.5h5.5v4.3h-5.5v10.1c0,2.8,0.8,4.2,3,4.2c1,0,1.7-0.1,2.3-0.3l0.1,4.4
		c-0.8,0.3-2.3,0.6-4.2,0.6c-2.1,0-3.9-0.7-5-1.9c-1.2-1.3-1.8-3.4-1.8-6.4v-10.8h-3.3v-4.3h3.3v-5.2L108.5,222.6z"/>
	<path class="st2" d="M126,219.8c-1.3,4.3-3.3,9.1-5.1,12l-3.5,0.3c1.2-3.4,2.4-8.1,3-11.9L126,219.8z"/>
	<path class="st2" d="M126,246.7c1.3,0.8,3.8,1.6,5.9,1.6c2.5,0,3.7-1,3.7-2.5c0-1.6-0.9-2.4-3.8-3.3c-4.5-1.6-6.3-4-6.3-6.7
		c0-4,3.3-7.2,8.6-7.2c2.5,0,4.7,0.7,6.1,1.4l-1.1,4.1c-1-0.6-2.8-1.3-4.8-1.3c-2.1,0-3.2,1-3.2,2.4c0,1.5,1.1,2.2,4,3.2
		c4.1,1.5,6.1,3.6,6.1,7c0,4.1-3.2,7.1-9.3,7.1c-2.8,0-5.3-0.7-7-1.6L126,246.7z"/>
	<path class="st2" d="M155.6,236.7c0-3-0.1-5.5-0.2-7.6h5.1l0.3,3.5h0.1c1.7-2.6,4.4-4,7.8-4c5.3,0,9.6,4.5,9.6,11.7
		c0,8.3-5.2,12.3-10.4,12.3c-2.9,0-5.3-1.2-6.4-3.1h-0.1v11.8h-5.8V236.7z M161.4,242.4c0,0.6,0,1.1,0.2,1.6c0.6,2.3,2.6,4,5.1,4
		c3.7,0,5.8-3.1,5.8-7.6c0-4-2-7.3-5.7-7.3c-2.4,0-4.6,1.7-5.2,4.3c-0.1,0.5-0.2,1-0.2,1.5V242.4z"/>
	<path class="st2" d="M183.1,218.6h5.8V252h-5.8V218.6z"/>
	<path class="st2" d="M208.1,252l-0.4-2.5h-0.1c-1.4,1.8-3.8,3.1-6.8,3.1c-4.6,0-7.2-3.3-7.2-6.8c0-5.8,5.1-8.7,13.6-8.6v-0.4
		c0-1.5-0.6-4-4.7-4c-2.3,0-4.6,0.7-6.2,1.7l-1.1-3.8c1.7-1,4.7-2,8.3-2c7.3,0,9.4,4.7,9.4,9.6v8.3c0,2.1,0.1,4.1,0.3,5.5H208.1z
		 M207.3,240.8c-4.1-0.1-8,0.8-8,4.3c0,2.3,1.5,3.3,3.3,3.3c2.3,0,4-1.5,4.5-3.1c0.1-0.4,0.2-0.9,0.2-1.3V240.8z"/>
	<path class="st2" d="M222.2,229.1l4.1,12.3c0.5,1.4,0.9,3.1,1.3,4.5h0.1c0.4-1.3,0.8-3,1.2-4.5l3.6-12.2h6.2l-5.7,15.6
		c-3.2,8.6-5.3,12.4-8,14.7c-2.3,2-4.6,2.8-6.1,3l-1.3-4.9c1-0.2,2.2-0.8,3.4-1.6c1.1-0.7,2.3-2.1,3.1-3.6c0.2-0.4,0.4-0.8,0.4-1
		c0-0.2,0-0.6-0.3-1.1l-8.4-21H222.2z"/>
</g>
<circle class="st1" cx="176.6" cy="141" r="10.4"/>
<g>
	<path class="st0" d="M147.8,83.4c6.3-2.5,11.9-4.7,17.6-6.9c4.3-1.7,8.4-3.7,12.9-4.8c10.5-2.5,19.4,1.1,26.9,8.4
		c13.2,13,21.7,28.9,27.9,46.2c4.5,12.5,7.2,25.4,6.6,38.9c-0.4,8.4-2.3,16.2-8.8,22.2c-5.8,5.4-12.7,6.4-20.1,5.4
		c-13.8-1.7-25.1-8.5-35.7-16.8c-5.1-4-10.1-8-15.4-11.7c-10.6-7.2-19.2-7.3-29.8,0c-8.9,6.1-17.6,12.7-26.4,19
		c-9.5,6.8-20,10-31.7,9.5c-6.6-0.3-11.8-2.8-15.7-8.2c-5.6-7.6-7.3-16.3-6.5-25.5c2.2-27.8,11.8-52.7,30.1-74.1
		c5.1-5.9,10.5-11.5,18.5-13.6c7-1.8,13.7-0.3,20.2,2.2c6.5,2.5,12.9,5.4,19.5,8.1c0.6-3.5,1-6.8,1.7-9.9
		c3.6-16.3,13.5-26,30.1-28.7c3-0.5,6-1.1,9-1.8c13.3-3.1,21.8-11.4,26.5-24c0.5-1.2,0.9-2.5,1.5-4.1c3,0.8,6,1.6,9.3,2.4
		c-1.9,8.1-5.5,15-10.7,21c-8.1,9.5-18.9,13.8-30.9,15.7c-6.7,1.1-13.4,2.5-18.3,7.8C150,66.7,148.7,74.5,147.8,83.4z M105.1,131.9
		c0-4.4-0.1-8.3,0-12.2c0.2-8.5,0.4-9.3-9.4-9.1c-4.4,0.1-5.6,1.3-5.6,5.8c0,5.1,0,10.2,0,15.6c-4.3,0-8.1,0-11.9,0
		c-9.3,0-9.3,0-9.2,9.2c0,4.7,1.1,5.8,5.8,5.8c5,0,10,0,15.3,0c0,4.2,0,8.1,0,11.9c0,9.3,0.1,9.5,9.6,9.3c4.2-0.1,5.4-1.3,5.4-5.5
		c0-5.1,0-10.2,0-15.7c3.9,0,7.5,0,11.1,0c10.3,0,10.3,0,10-10.1c-0.1-3.8-1.2-4.8-4.9-4.9C116,131.9,110.8,131.9,105.1,131.9z
		 M185.8,136.7c0-5.8-4.7-10.5-10.4-10.4c-5.7,0-10.4,4.8-10.3,10.6c0.1,5.6,4.7,10.2,10.3,10.2
		C181.2,147.1,185.8,142.6,185.8,136.7z M223.2,136.6c-0.1-5.8-4.8-10.4-10.6-10.3c-5.6,0.1-10.2,4.8-10.2,10.4
		c0,5.8,4.7,10.4,10.5,10.4C218.8,147,223.3,142.4,223.2,136.6z M204.4,117.9c0-6-4.4-10.3-10.4-10.2c-5.7,0.1-10.1,4.5-10.1,10.2
		c0,6,4.3,10.3,10.3,10.3C200.2,128.2,204.4,124,204.4,117.9z M204.4,155.4c0-6.1-4.2-10.3-10.3-10.3c-5.8,0-10.2,4.3-10.2,10.1
		c-0.1,6,4.2,10.4,10.2,10.4C200.1,165.7,204.3,161.5,204.4,155.4z"/>
</g>
</svg>
