<?xml version="1.0" encoding="utf-8"?>
<!-- Generator: Adobe Illustrator 16.0.3, SVG Export Plug-In . SVG Version: 6.00 Build 0)  -->
<!DOCTYPE svg PUBLIC "-//W3C//DTD SVG 1.1//EN" "http://www.w3.org/Graphics/SVG/1.1/DTD/svg11.dtd" [
	<!ENTITY ns_extend "http://ns.adobe.com/Extensibility/1.0/">
	<!ENTITY ns_ai "http://ns.adobe.com/AdobeIllustrator/10.0/">
	<!ENTITY ns_graphs "http://ns.adobe.com/Graphs/1.0/">
	<!ENTITY ns_vars "http://ns.adobe.com/Variables/1.0/">
	<!ENTITY ns_imrep "http://ns.adobe.com/ImageReplacement/1.0/">
	<!ENTITY ns_sfw "http://ns.adobe.com/SaveForWeb/1.0/">
	<!ENTITY ns_custom "http://ns.adobe.com/GenericCustomNamespace/1.0/">
	<!ENTITY ns_adobe_xpath "http://ns.adobe.com/XPath/1.0/">
]>
<svg version="1.1" id="Ebene_1" xmlns:x="&ns_extend;" xmlns:i="&ns_ai;" xmlns:graph="&ns_graphs;"
	 xmlns="http://www.w3.org/2000/svg" xmlns:xlink="http://www.w3.org/1999/xlink" x="0px" y="0px" width="290.9px" height="290.9px"
	 viewBox="0 0 290.9 290.9" style="enable-background:new 0 0 290.9 290.9;" xml:space="preserve">
<style type="text/css">
<![CDATA[
	.st0{opacity:0.92;}
	.st1{fill:#2F98C1;}
	.st2{opacity:0.9;}
	.st3{fill:#FFAA00;}
	.st4{fill:#FFFFFF;}
	.st5{fill:#CAE4EE;}
]]>
</style>
<metadata>
	<sfw  xmlns="&ns_sfw;">
		<slices></slices>
		<sliceSourceBounds  width="290.9" height="290.9" x="-9.9" y="-7" bottomLeftOrigin="true"></sliceSourceBounds>
	</sfw>
</metadata>
<path class="st1" d="M254.4,290.9H36.5C16.4,290.9,0,274.5,0,254.4V36.5C0,16.4,16.4,0,36.5,0h217.9c20.1,0,36.5,16.4,36.5,36.5
	v217.9C290.9,274.5,274.5,290.9,254.4,290.9z"/>
<g>
	<path class="st4" d="M98.8,215.1L98.8,215.1c0.7-0.9,1.3-1.9,1.9-2.7l5.5-7.4h7l-8.5,9.4l9.7,13.5h-7.1l-6.6-10.1l-2,2.3v7.8H93
		v-33.4h5.8V215.1z"/>
	<path class="st4" d="M120.7,218.2c0.1,4.1,3.4,5.9,7,5.9c2.7,0,4.6-0.4,6.3-1l0.8,4c-2,0.8-4.7,1.4-8,1.4
		c-7.4,0-11.8-4.6-11.8-11.6c0-6.3,3.9-12.3,11.2-12.3c7.4,0,9.9,6.1,9.9,11.1c0,1.1-0.1,1.9-0.2,2.4H120.7z M130.8,214.1
		c0-2.1-0.9-5.6-4.7-5.6c-3.6,0-5.1,3.2-5.3,5.6H130.8z"/>
	<path class="st4" d="M147,198.7c0,1.7-1.3,3.1-3.3,3.1c-1.9,0-3.2-1.4-3.2-3.1c0-1.8,1.3-3.1,3.2-3.1
		C145.8,195.5,147,196.9,147,198.7z M140.9,228v-22.9h5.8V228H140.9z"/>
	<path class="st4" d="M152.9,211.9c0-2.6,0-4.8-0.2-6.8h5.1l0.3,3.4h0.1c1-1.8,3.5-3.9,7.3-3.9c4,0,8.1,2.6,8.1,9.8V228h-5.8v-12.9
		c0-3.3-1.2-5.8-4.4-5.8c-2.3,0-3.9,1.6-4.5,3.4c-0.2,0.5-0.2,1.2-0.2,1.9V228h-5.8V211.9z"/>
	<path class="st4" d="M183.9,218.2c0.1,4.1,3.4,5.9,7,5.9c2.7,0,4.6-0.4,6.3-1l0.8,4c-2,0.8-4.7,1.4-8,1.4
		c-7.4,0-11.8-4.6-11.8-11.6c0-6.3,3.9-12.3,11.2-12.3c7.4,0,9.9,6.1,9.9,11.1c0,1.1-0.1,1.9-0.2,2.4H183.9z M194,214.1
		c0-2.1-0.9-5.6-4.7-5.6c-3.6,0-5.1,3.2-5.3,5.6H194z"/>
	<path class="st4" d="M59.9,267.4l-7.8-31.7h6.2l3,14.4c0.8,3.9,1.6,7.9,2.1,11h0.1c0.5-3.3,1.4-7.1,2.3-11.1l3.4-14.3h6.1l3.1,14.6
		c0.8,3.8,1.5,7.3,1.9,10.7h0.1c0.6-3.5,1.3-7.1,2.2-11l3.3-14.3h5.9l-8.5,31.7H77l-3.3-14.9c-0.8-3.6-1.4-6.6-1.7-10.1h-0.1
		c-0.6,3.4-1.2,6.4-2.1,10.1l-3.7,14.9H59.9z"/>
	<path class="st4" d="M97.7,257.6c0.1,4.1,3.4,5.9,7,5.9c2.7,0,4.6-0.4,6.3-1l0.8,4c-2,0.8-4.7,1.4-8,1.4c-7.4,0-11.8-4.6-11.8-11.6
		c0-6.3,3.9-12.3,11.2-12.3c7.4,0,9.9,6.1,9.9,11.1c0,1.1-0.1,1.9-0.2,2.4H97.7z M107.7,253.5c0-2.1-0.9-5.6-4.7-5.6
		c-3.6,0-5.1,3.2-5.3,5.6H107.7z"/>
	<path class="st4" d="M117.8,251.9c0-3.1,0-5.3-0.2-7.4h5l0.2,4.4h0.2c1.1-3.2,3.8-4.9,6.3-4.9c0.6,0,0.9,0,1.4,0.1v5.5
		c-0.5-0.1-1-0.2-1.7-0.2c-2.8,0-4.7,1.8-5.2,4.4c-0.1,0.5-0.2,1.1-0.2,1.8v11.8h-5.8V251.9z"/>
	<path class="st4" d="M134.4,267.4c0.1-1.6,0.2-4.1,0.2-6.4V234h5.8v13.6h0.1c1.4-2.2,3.9-3.7,7.3-3.7c5.6,0,9.6,4.7,9.5,11.6
		c0,8.2-5.2,12.3-10.4,12.3c-3,0-5.6-1.1-7.2-3.9h-0.1l-0.3,3.4H134.4z M140.3,257.9c0,0.5,0,0.9,0.1,1.4c0.6,2.3,2.6,4,5.1,4
		c3.6,0,5.8-2.9,5.8-7.5c0-4-1.9-7.3-5.8-7.3c-2.3,0-4.5,1.7-5.1,4.2c-0.1,0.4-0.2,0.9-0.2,1.5V257.9z"/>
	<path class="st4" d="M182.5,260.5c0,2.7,0.1,5,0.2,6.9h-5.1l-0.3-3.5h-0.1c-1,1.6-3.2,4-7.3,4c-4.2,0-8-2.5-8-10v-13.4h5.8v12.5
		c0,3.8,1.2,6.3,4.3,6.3c2.3,0,3.8-1.6,4.4-3.1c0.2-0.5,0.3-1.1,0.3-1.8v-13.8h5.8V260.5z"/>
	<path class="st4" d="M188.8,251.3c0-2.6,0-4.8-0.2-6.8h5.1l0.3,3.4h0.1c1-1.8,3.5-3.9,7.3-3.9c4,0,8.1,2.6,8.1,9.8v13.6h-5.8v-12.9
		c0-3.3-1.2-5.8-4.4-5.8c-2.3,0-3.9,1.6-4.5,3.4c-0.2,0.5-0.2,1.2-0.2,1.9v13.4h-5.8V251.3z"/>
	<path class="st4" d="M236.6,244.5c-0.1,1.6-0.2,3.4-0.2,6.6v13c0,4.8-1,8.2-3.4,10.4c-2.4,2.1-5.7,2.8-8.8,2.8c-2.9,0-6-0.6-8-1.8
		l1.3-4.4c1.5,0.8,3.9,1.7,6.7,1.7c3.8,0,6.6-2,6.6-6.9v-2h-0.1c-1.3,2-3.7,3.4-6.7,3.4c-5.7,0-9.7-4.7-9.7-11.2
		c0-7.5,4.9-12.1,10.4-12.1c3.5,0,5.5,1.7,6.6,3.6h0.1l0.2-3.1H236.6z M230.6,253.7c0-0.5,0-1.1-0.2-1.6c-0.6-2.1-2.3-3.7-4.7-3.7
		c-3.2,0-5.6,2.8-5.6,7.5c0,3.9,2,7,5.6,7c2.2,0,4-1.4,4.7-3.5c0.1-0.6,0.2-1.4,0.2-2.1V253.7z"/>
</g>
<g id="stern">
	<path class="st5" d="M26.2,98.3c0-0.1,0-0.2,0-0.3c3.2-1.3,6.4-2.7,9.6-4c7.2-3,14.4-6.1,21.6-9.1c1.2-0.5,1.9-1,1.2-2
		c-4.2-5.3-8.3-10.7-12.4-16.1c-1.2-1.5-2.2-3.1-3.4-4.8c3.5-0.2,6.6-0.5,9.7-0.6c9.3-0.5,18.7-1.1,28-1.6c1.6-0.1,2.9-0.3,3.1-1.4
		c0.8-5,1.6-10,2.4-15c0.4-2.5,0.9-5,1.4-7.9c2.4,0.6,4.5,1.2,6.6,1.7c9.3,2.4,18.7,4.8,27.9,7.4c2.2,0.6,3.1,0.4,4.4-0.6
		c4.5-3.8,9.2-7.5,13.8-11.3c2.8-2.3,5.5-4.6,8.2-6.9c0.2,0,0.3,0,0.5,0c0.2,0.2,0.3,0.5,0.6,0.7c6.9,5.6,13.9,11.3,20.8,16.9
		c2.2,1.8,2.2,1.9,5.7,1c7.8-2,15.6-4.1,23.3-6.2c3.4-0.9,6.8-1.8,10.5-2.7c0.4,2.1,0.8,3.9,1.1,5.7c0.9,5.5,1.8,11,2.7,16.6
		c0.1,0.9,0.4,1.7,2.3,1.8c8.4,0.5,16.7,0.9,25.1,1.4c4.4,0.3,8.7,0.5,13.3,0.8c-0.3,0.6-0.5,1.2-0.9,1.6
		c-4.9,6.4-9.8,12.8-14.7,19.1c-0.6,0.8-0.5,1.4,0.8,1.9c10.6,4.5,21.1,9,31.6,13.5c-0.6,0.2-1.2,0.3-1.7,0.6
		c-2.8,1.2-5.6,2.4-8.5,3.6c-7.1,3-14.1,6-21.2,9c-1.3,0.5-1.8,1.1-1.1,2c4.2,5.4,8.3,10.8,12.4,16.2c1.1,1.5,2.1,3,3.3,4.5
		c-0.8,0.1-1,0.2-1.3,0.2c-12.1,0.7-24.3,1.4-36.4,2.1c-1.9,0.1-2.9,0.5-3,1.7c-0.2,1.9-0.6,3.8-0.9,5.7c-0.6,3.7-1.2,7.4-1.8,11.1
		c-0.3,1.8-0.7,3.6-1.1,5.6c-2.5-0.7-4.7-1.2-6.9-1.8c-9.2-2.4-18.5-4.8-27.7-7.3c-2.1-0.6-3-0.4-4.3,0.6
		c-4.6,3.8-9.3,7.6-13.9,11.4c-2.7,2.2-5.4,4.5-8.1,6.8c-0.2,0-0.3,0-0.5,0c-0.9-0.8-1.7-1.6-2.6-2.3c-6.5-5.3-13-10.7-19.5-16
		c-0.8-0.7-1.6-1.3-3.3-0.8c-9.2,2.5-18.4,5-27.6,7.4c-2.5,0.7-5,1.2-7.8,1.9c-0.4-2.1-0.8-3.9-1.1-5.7c-0.9-5.5-1.8-11-2.7-16.6
		c-0.2-1-0.7-1.7-2.6-1.8c-3.5-0.2-7.1-0.4-10.6-0.6c-6-0.3-12.1-0.7-18.1-1c-3-0.2-6.1-0.4-9.3-0.6c0.3-0.6,0.4-1.1,0.7-1.6
		c4.8-6.3,9.5-12.5,14.4-18.8c1-1.2,0.8-1.9-1.1-2.6c-6.4-2.7-12.8-5.4-19.1-8.2C34,101.5,30.1,99.9,26.2,98.3z"/>
</g>
<g>
	<path class="st1" d="M84,115.1l-4.5-31.7h5.4l1.3,12.6c0.4,3.6,0.6,7.2,0.9,11.1h0.1c0.4-3.9,0.9-7.3,1.5-11.1l1.9-12.6h4.2
		l1.8,12.5c0.5,3.6,0.9,7.1,1.3,11.2h0.1c0.4-4.1,0.7-7.5,1-11.2l1.3-12.6h5.1l-4.7,31.7h-5.3l-1.6-10.4c-0.4-2.9-0.8-6.5-1.2-10.4
		h-0.1c-0.5,3.8-0.9,7.3-1.5,10.4l-1.8,10.3H84z"/>
	<path class="st1" d="M119.4,101.2h-6.1v8.6h6.9v5.4h-12.1V83.4h11.6v5.4h-6.4v7.3h6.1V101.2z"/>
	<path class="st1" d="M123.7,83.9c1.6-0.4,3.7-0.6,5.7-0.6c2.8,0,5.4,0.5,7.1,2.4c1.6,1.7,2.1,3.9,2.1,6.6c0,3.4-1.4,6.4-4.1,7.9
		v0.1c1.8,0.8,2.7,2.9,3.2,6.3c0.5,3.5,1.2,7.4,1.7,8.6H134c-0.3-0.9-0.9-4.1-1.3-7.6c-0.5-3.9-1.3-5.1-3-5.1h-0.8v12.6h-5.2V83.9z
		 M128.9,97.7h0.9c2.3,0,3.6-2.2,3.6-4.9c0-2.7-0.9-4.6-3.2-4.7c-0.4,0-0.9,0-1.2,0.2V97.7z"/>
	<path class="st1" d="M142.2,83.9c1.6-0.4,3.6-0.6,5.9-0.6c2.5,0,4.9,0.4,6.8,2.3c1.4,1.4,2,3.5,2,5.7c0,2.8-1.2,5.5-3.9,6.9v0.2
		c3.1,1,4.7,4.1,4.7,7.6c0,2.6-0.7,4.7-2,6.2c-1.6,2.1-4.3,3.2-8.7,3.2c-2,0-3.6-0.1-4.8-0.3V83.9z M147.4,96.4h1.1
		c1.9,0,3.3-1.9,3.3-4.5c0-2.3-0.9-4.1-3-4.1c-0.6,0-1,0-1.3,0.2V96.4z M147.4,110.5c0.3,0.1,0.7,0.1,1.1,0.1c2.1,0,3.8-1.5,3.8-4.7
		c0-3.1-1.8-4.8-3.9-4.8h-1.1V110.5z"/>
	<path class="st1" d="M166.4,83.4V104c0,4.7,1.2,6.1,2.5,6.1c1.5,0,2.6-1.3,2.6-6.1V83.4h5.2v19.5c0,8.1-2.6,12.6-7.7,12.6
		c-5.6,0-7.7-4.6-7.7-12.5V83.4H166.4z"/>
	<path class="st1" d="M181.1,115.1V83.4h4.7l4.1,12.4c0.8,2.4,2.1,6.5,2.8,9.3h0.1c-0.2-3.3-0.5-8.8-0.5-14.7v-7h4.5v31.7h-4.7
		l-4.1-12c-0.9-2.7-2.1-6.7-2.7-9.5h-0.1c0.1,3.2,0.3,8.1,0.3,14.4v7.1H181.1z"/>
	<path class="st1" d="M216.3,114.3c-1.1,0.6-3.6,1.1-5.5,1.1c-3,0-5.3-1-7.1-3.1c-2.3-2.6-3.5-7.3-3.4-12.8
		c0.1-11.5,5.7-16.3,11.3-16.3c2,0,3.5,0.5,4.3,0.9l-0.9,5.3c-0.8-0.5-1.7-0.7-3-0.7c-3.5,0-6.3,2.9-6.3,11.1
		c0,7.6,2.5,10.3,4.9,10.3c0.5,0,0.8,0,1-0.1v-7.7h-2.4v-5h7.2V114.3z"/>
	<path class="st1" d="M219.5,111.7c0-2.3,1.4-3.8,3-3.8c1.7,0,3,1.5,3,3.8c0,2.2-1.1,3.8-2.9,3.8
		C220.8,115.5,219.5,113.9,219.5,111.7z M220.3,104.8l-0.6-21.4h5.7l-0.6,21.4H220.3z"/>
</g>
<g class="st2">
	<g>
		<g>
			<path class="st3" d="M81,136.2c20.7-14.1,47.4-29.2,68.1-44c24.7-17.9,52.2-36.1,77.9-52.7c0.4,0.7-1.1,3,1.3,2
				c9.2-4.5,10.1-3.2,10.9-1.9c0.4,0.7-6.4,4.1-3.9,3.4c-6.4,4.1-16.9,11.4-10,7.9c2.6-0.7,10.7-6.9,13.5-7.3c2.8-0.4-0.9,3.4,1.9,3
				c2.1-1.4,6.4-4.1,8.6-5.5c2.6-0.7-0.9,3.3,1.3,2c3.4-1.7,7.2-4,11.2-6.5c4-2.5,8.3-5.2,12.6-7.9c0.4,0.7,3,0-1.1,3
				c-74.9,47-148.5,101.9-227.6,144.6c-9.1,4.7-3.2-0.5,2.9-5.2c-2,1.6-2.6,0.6-4.7,2.2c-0.6-1,3-5.2,11.6-10.6
				c-2.2,1.3-4.4,2.5-6.6,3.8c-2.4,0.9-0.6-1-1-1.7c2.2-1.2,4.4-2.5,4.2-2.8c-0.2-0.3-0.6-1-0.8-1.4c-2.2,1.2-6.6,3.7-8.8,5
				c2.2-1.2,4.4-2.5,4.2-2.8c-0.2-0.3-0.6-1-0.8-1.4c4.2-2.8,11.2-6,15.4-8.8l-0.6-1c-4.6,2.2-10.9,6.4-15.4,8.8
				c2-1.6,1.8-1.9,1.4-2.6c3.2-2,6.6-3.8,9.9-5.6c3.3-1.8,6.6-3.7,9.6-6.2c-2.2,1.3-4.3,2.6-6.5,3.8c1.7-2.1,5.4-4.4,9.6-6.8
				C73.3,140.7,77.8,138.4,81,136.2z"/>
		</g>
	</g>
</g>
<g class="st0">
	<g>
		<g>
			<path class="st3" d="M253.9,172.4c-0.8-0.8-1.5-1.5-2.3-2.2c-14.3-13.5-30.1-25.1-47.1-38.9c-11.8-9.8-26.2-19.7-38.8-28.4
				c29.3,21.3,60,43.9,84.9,68.2c-3.4-1.4-7.2-3.4-11-6.4c-8.9-7.7-17.9-15-26.9-22.1c0.3-0.4,0.8-1.1,1.1-1.4
				c-13.5-9.3-25.9-19.1-38.5-28.6c-12.7-9.5-25.5-18.7-39.8-26.9c0.8,0.8,0.1,0.8-0.3,0.9c-0.1,0-0.1-0.1-0.2-0.1
				c0.1,0,0.1,0.1,0.2,0.1c-0.3,0.1-0.3,0.3,1.4,1.5c-1.7-1.1-1.7-1.4-1.4-1.5c13.5,8.7,26.3,17.6,38.9,26.6
				c12.6,9.1,25,18.5,37.5,28.5c-19.6-15.3-39.6-29.5-60-43.3c-20.4-13.8-41.3-27.2-63-40.6c-1.8-1.1-5.6-3.4-7.4-4.6
				c-6.7-5.7-14-10.6-21.5-15c3-0.8-2.2-9.2,12.4,0.5c0.2-0.4,0.7-1.2,0.9-1.5c-13.9-10.9-16.5-19.7-0.4-12.3
				c18,8.6,39.6,24,60.4,36.5c15,9.2,29.9,18.8,43.9,29.6c19.1,15,40.8,30.2,58.8,46.5c3.3,2.9,8.3,6.4,12.7,9.8
				c4.4,3.4,8.3,6.5,9.5,8.4c2,2.5,1.5,3.3,0.5,3.9c-11.1-9.3-22.4-18.3-33.7-27c-13.6-11-27.4-21.8-41.2-32.6
				c13.3,10.9,27.1,21.6,41.2,32.6c11.1,8.9,22,18,32.8,27.4c-1,0.4-2,0.8-1.9,2c0,0,3.4,2.8,5.1,4.2c5.3,7.3,1.6,8.3-3.2,7.3
				C256.6,173.3,255.3,172.9,253.9,172.4z"/>
		</g>
	</g>
</g>
</svg>
