<svg xmlns="http://www.w3.org/2000/svg" width="48" height="48" viewBox="0 0 48 48"><g class="nc-icon-wrapper" stroke-linecap="square" stroke-linejoin="miter" stroke-width="4" fill="#000000" stroke="#000000"><circle data-color="color-2" cx="24" cy="24" r="7" fill="none" stroke-miterlimit="10"></circle> <path d="M40,24a16.046,16.046,0,0,0-.376-3.426l5.428-4.11-4-6.928-6.286,2.652A15.963,15.963,0,0,0,28.844,8.75L28,2H20l-.844,6.75a15.963,15.963,0,0,0-5.922,3.438L6.948,9.536l-4,6.928,5.428,4.11a15.807,15.807,0,0,0,0,6.852l-5.428,4.11,4,6.928,6.286-2.652a15.963,15.963,0,0,0,5.922,3.438L20,46h8l.844-6.75a15.963,15.963,0,0,0,5.922-3.438l6.286,2.652,4-6.928-5.428-4.11A16.046,16.046,0,0,0,40,24Z" fill="none" stroke="#000000" stroke-miterlimit="10"></path></g></svg>