<?xml version="1.0" encoding="UTF-8"?>
<svg width="24px" height="16px" viewBox="0 0 24 16" version="1.1" xmlns="http://www.w3.org/2000/svg" xmlns:xlink="http://www.w3.org/1999/xlink">
    <!-- Generator: Sketch 54.1 (76490) - https://sketchapp.com -->
    <title>baseline-cloud_upload-24px</title>
    <desc>Created with Sketch.</desc>
    <g id="Material-Austausch" stroke="none" stroke-width="1" fill="none" fill-rule="evenodd">
        <g id="ic-upload" transform="translate(0.000000, -4.000000)">
            <g id="baseline-cloud_upload-24px">
                <polygon id="Path" points="0 0 24 0 24 24 0 24"></polygon>
                <path d="M19.35,10.04 C18.67,6.59 15.64,4 12,4 C9.11,4 6.6,5.64 5.35,8.04 C2.34,8.36 0,10.91 0,14 C0,17.31 2.69,20 6,20 L19,20 C21.76,20 24,17.76 24,15 C24,12.36 21.95,10.22 19.35,10.04 Z M14,13 L14,17 L10,17 L10,13 L7,13 L12,8 L17,13 L14,13 Z" id="Shape" fill="#fff" fill-rule="nonzero"></path>
            </g>
        </g>
    </g>
</svg>