<?xml version="1.0" encoding="utf-8"?>
<!-- Generator: Adobe Illustrator 16.0.3, SVG Export Plug-In . SVG Version: 6.00 Build 0)  -->
<!DOCTYPE svg PUBLIC "-//W3C//DTD SVG 1.1//EN" "http://www.w3.org/Graphics/SVG/1.1/DTD/svg11.dtd" [
	<!ENTITY ns_extend "http://ns.adobe.com/Extensibility/1.0/">
	<!ENTITY ns_ai "http://ns.adobe.com/AdobeIllustrator/10.0/">
	<!ENTITY ns_graphs "http://ns.adobe.com/Graphs/1.0/">
	<!ENTITY ns_vars "http://ns.adobe.com/Variables/1.0/">
	<!ENTITY ns_imrep "http://ns.adobe.com/ImageReplacement/1.0/">
	<!ENTITY ns_sfw "http://ns.adobe.com/SaveForWeb/1.0/">
	<!ENTITY ns_custom "http://ns.adobe.com/GenericCustomNamespace/1.0/">
	<!ENTITY ns_adobe_xpath "http://ns.adobe.com/XPath/1.0/">
]>
<svg version="1.1" id="Ebene_1" xmlns:x="&ns_extend;" xmlns:i="&ns_ai;" xmlns:graph="&ns_graphs;"
	 xmlns="http://www.w3.org/2000/svg" xmlns:xlink="http://www.w3.org/1999/xlink" x="0px" y="0px" width="309px" height="309px"
	 viewBox="0 0 309 309" style="enable-background:new 0 0 309 309;" xml:space="preserve">
<style type="text/css">
<![CDATA[
	.st0{fill:#A1C517;stroke:#FFFFFF;stroke-width:3;}
	.st1{fill:#D1E7F9;stroke:#D1E7F9;stroke-width:9;stroke-miterlimit:10;}
	.st2{fill:#FFFFFF;}
	.st3{fill:none;}
	.st4{fill:#375B6A;}
]]>
</style>
<metadata>
	<sfw  xmlns="&ns_sfw;">
		<slices></slices>
		<sliceSourceBounds  width="309" height="309" y="-4.5" x="-6.5" bottomLeftOrigin="true"></sliceSourceBounds>
	</sfw>
</metadata>
<path class="st1" d="M232.5,304.5h-156c-39.6,0-72-16.9-72-56.5V64.5c0-39.6,32.4-60,72-60h156c39.6,0,72,20.9,72,60.5v183.5
	C304.5,288.1,272.1,304.5,232.5,304.5z"/>
<g>
	<rect x="4.5" y="205.5" class="st3" width="300" height="97"/>
	<path class="st4" d="M59.5,207.1H65v13.9h0.1c0.7-1.2,1.5-2.3,2.2-3.3l7.9-10.7h6.8L71.6,220l11.1,17.4h-6.5l-8.6-13.9l-2.7,3.2
		v10.7h-5.5V207.1z"/>
	<path class="st4" d="M106.3,226.3c0,8.1-5.7,11.7-11.2,11.7c-6.2,0-11-4.3-11-11.3c0-7.2,4.7-11.6,11.3-11.6
		C101.9,215,106.3,219.6,106.3,226.3z M89.8,226.5c0,4.2,2.1,7.4,5.4,7.4c3.1,0,5.4-3.1,5.4-7.5c0-3.4-1.5-7.3-5.3-7.3
		C91.3,219.1,89.8,222.9,89.8,226.5z"/>
	<path class="st4" d="M110.8,222.1c0-2.5,0-4.6-0.2-6.5h4.8l0.2,3.2h0.1c1.1-1.7,3.1-3.7,6.7-3.7c2.9,0,5.1,1.6,6.1,4h0.1
		c0.8-1.2,1.7-2.1,2.7-2.7c1.2-0.9,2.6-1.3,4.4-1.3c3.6,0,7.3,2.5,7.3,9.5v12.9h-5.4v-12.1c0-3.6-1.3-5.8-3.9-5.8
		c-1.9,0-3.3,1.3-3.9,2.9c-0.1,0.5-0.3,1.2-0.3,1.8v13.1h-5.4v-12.7c0-3.1-1.2-5.2-3.8-5.2c-2.1,0-3.5,1.6-4,3.1
		c-0.2,0.5-0.3,1.2-0.3,1.8v13h-5.4V222.1z"/>
	<path class="st4" d="M149,222.8c0-2.9-0.1-5.2-0.2-7.3h4.9l0.3,3.4h0.1c1.6-2.5,4.2-3.9,7.5-3.9c5,0,9.2,4.3,9.2,11.2
		c0,7.9-5,11.7-10,11.7c-2.7,0-5-1.2-6.2-2.9h-0.1v11.3H149V222.8z M154.5,228.3c0,0.5,0,1,0.2,1.5c0.5,2.3,2.5,3.9,4.9,3.9
		c3.5,0,5.6-2.9,5.6-7.2c0-3.9-1.9-7-5.4-7c-2.3,0-4.4,1.7-4.9,4.1c-0.1,0.5-0.2,0.9-0.2,1.4V228.3z"/>
	<path class="st4" d="M187.6,237.4l-0.4-2.4h-0.1c-1.3,1.7-3.6,2.9-6.5,2.9c-4.4,0-6.9-3.2-6.9-6.5c0-5.5,4.9-8.3,13-8.3v-0.4
		c0-1.4-0.6-3.8-4.5-3.8c-2.2,0-4.4,0.7-5.9,1.6l-1.1-3.6c1.6-1,4.5-1.9,7.9-1.9c7,0,9,4.5,9,9.2v7.9c0,2,0.1,3.9,0.3,5.3H187.6z
		 M186.9,226.7c-3.9-0.1-7.7,0.8-7.7,4.1c0,2.2,1.4,3.1,3.2,3.1c2.2,0,3.8-1.4,4.3-3c0.1-0.4,0.2-0.9,0.2-1.2V226.7z"/>
	<path class="st4" d="M198.2,222.6c0-3,0-5.1-0.2-7.1h4.8l0.2,4.2h0.2c1.1-3.1,3.6-4.7,6-4.7c0.5,0,0.9,0,1.3,0.1v5.2
		c-0.5-0.1-0.9-0.2-1.6-0.2c-2.7,0-4.5,1.7-4.9,4.2c-0.1,0.5-0.2,1.1-0.2,1.7v11.3h-5.5V222.6z"/>
	<path class="st4" d="M220.5,209.3v6.3h5.3v4.1h-5.3v9.7c0,2.7,0.7,4.1,2.8,4.1c0.9,0,1.7-0.1,2.2-0.3l0.1,4.2
		c-0.8,0.3-2.3,0.5-4,0.5c-2,0-3.7-0.7-4.8-1.8c-1.2-1.3-1.7-3.2-1.7-6.1v-10.3H212v-4.1h3.2v-4.9L220.5,209.3z"/>
	<path class="st4" d="M235.9,209.4c0,1.7-1.2,3-3.2,3c-1.8,0-3.1-1.3-3.1-3c0-1.7,1.3-3,3.1-3C234.7,206.4,235.8,207.7,235.9,209.4z
		 M230,237.4v-21.9h5.6v21.9H230z"/>
	<path class="st4" d="M251.4,223.5v3.8h-11.5v-3.8H251.4z"/>
	<path class="st4" d="M42.1,267.1c0-2.5,0-4.6-0.2-6.5h4.8l0.2,3.2H47c1.1-1.7,3.1-3.7,6.8-3.7c2.9,0,5.1,1.6,6.1,4h0.1
		c0.8-1.2,1.7-2.1,2.7-2.7c1.2-0.9,2.6-1.3,4.4-1.3c3.6,0,7.3,2.5,7.3,9.5v12.9H69v-12.1c0-3.6-1.3-5.8-3.9-5.8
		c-1.9,0-3.3,1.3-3.9,2.9c-0.1,0.5-0.3,1.2-0.3,1.8v13.1h-5.4v-12.7c0-3.1-1.2-5.2-3.8-5.2c-2.1,0-3.5,1.6-4,3.1
		c-0.2,0.5-0.3,1.2-0.3,1.8v13h-5.4V267.1z"/>
	<path class="st4" d="M84.1,273c0.1,4,3.2,5.7,6.7,5.7c2.6,0,4.4-0.4,6.1-1l0.8,3.8c-1.9,0.8-4.5,1.4-7.6,1.4
		c-7.1,0-11.3-4.4-11.3-11.1c0-6.1,3.7-11.8,10.7-11.8c7.1,0,9.4,5.8,9.4,10.7c0,1-0.1,1.8-0.2,2.3H84.1z M93.8,269.2
		c0-2-0.9-5.4-4.5-5.4c-3.4,0-4.9,3.1-5.1,5.4H93.8z"/>
	<path class="st4" d="M103.4,267.1c0-2.5,0-4.6-0.2-6.5h4.9l0.3,3.3h0.1c0.9-1.7,3.3-3.8,7-3.8c3.8,0,7.8,2.5,7.8,9.4v13h-5.5v-12.4
		c0-3.1-1.2-5.5-4.2-5.5c-2.2,0-3.7,1.6-4.3,3.2c-0.2,0.5-0.2,1.2-0.2,1.8v12.9h-5.6V267.1z"/>
	<path class="st4" d="M135.5,254.3v6.3h5.3v4.1h-5.3v9.7c0,2.7,0.7,4.1,2.8,4.1c0.9,0,1.7-0.1,2.2-0.3l0.1,4.2
		c-0.8,0.3-2.3,0.5-4,0.5c-2,0-3.7-0.7-4.8-1.8c-1.2-1.3-1.7-3.2-1.7-6.1v-10.3H127v-4.1h3.1v-4.9L135.5,254.3z"/>
	<path class="st4" d="M150.9,254.4c0,1.7-1.2,3-3.1,3c-1.8,0-3.1-1.3-3.1-3c0-1.7,1.3-3,3.1-3C149.7,251.4,150.8,252.7,150.9,254.4z
		 M145,282.4v-21.9h5.6v21.9H145z"/>
	<path class="st4" d="M160.4,273c0.1,4,3.2,5.7,6.7,5.7c2.6,0,4.4-0.4,6.1-1l0.8,3.8c-1.9,0.8-4.5,1.4-7.6,1.4
		c-7.1,0-11.3-4.4-11.3-11.1c0-6.1,3.7-11.8,10.7-11.8c7.1,0,9.4,5.8,9.4,10.7c0,1-0.1,1.8-0.2,2.3H160.4z M170,269.2
		c0-2-0.9-5.4-4.5-5.4c-3.4,0-4.9,3.1-5.1,5.4H170z"/>
	<path class="st4" d="M179.7,267.6c0-3,0-5.1-0.2-7.1h4.8l0.2,4.2h0.2c1.1-3.1,3.6-4.7,6-4.7c0.5,0,0.9,0,1.3,0.1v5.2
		c-0.4-0.1-0.9-0.2-1.6-0.2c-2.7,0-4.5,1.7-5,4.2c-0.1,0.5-0.2,1.1-0.2,1.7v11.3h-5.5V267.6z"/>
	<path class="st4" d="M215.4,275.9c0,2.6,0.1,4.8,0.2,6.6h-4.9l-0.3-3.3h-0.1c-0.9,1.6-3.1,3.8-7,3.8c-4,0-7.6-2.4-7.6-9.5v-12.9
		h5.5v11.9c0,3.6,1.2,6,4.1,6c2.2,0,3.6-1.6,4.2-3c0.2-0.5,0.3-1.1,0.3-1.7v-13.2h5.5V275.9z"/>
	<path class="st4" d="M221.3,267.1c0-2.5,0-4.6-0.2-6.5h4.9l0.3,3.3h0.1c0.9-1.7,3.3-3.8,7-3.8c3.8,0,7.8,2.5,7.8,9.4v13h-5.5v-12.4
		c0-3.1-1.2-5.5-4.2-5.5c-2.2,0-3.7,1.6-4.3,3.2c-0.2,0.5-0.2,1.2-0.2,1.8v12.9h-5.6V267.1z"/>
	<path class="st4" d="M267.1,260.5c-0.1,1.5-0.2,3.3-0.2,6.3v12.4c0,4.6-0.9,7.9-3.2,9.9c-2.3,2-5.4,2.7-8.5,2.7
		c-2.8,0-5.8-0.6-7.7-1.8l1.2-4.2c1.4,0.8,3.7,1.7,6.4,1.7c3.6,0,6.3-1.9,6.3-6.6v-1.9h-0.1c-1.3,1.9-3.5,3.2-6.4,3.2
		c-5.4,0-9.3-4.5-9.3-10.7c0-7.2,4.7-11.6,9.9-11.6c3.3,0,5.3,1.6,6.3,3.4h0.1l0.2-2.9H267.1z M261.4,269.3c0-0.5,0-1-0.2-1.5
		c-0.6-2-2.2-3.6-4.5-3.6c-3.1,0-5.4,2.7-5.4,7.2c0,3.7,1.9,6.7,5.4,6.7c2.1,0,3.9-1.4,4.5-3.3c0.1-0.6,0.2-1.4,0.2-2V269.3z"/>
</g>
<path class="st0" d="M154.5,195c47.4,0,85.9-38.4,85.9-85.9s-38.4-85.9-85.9-85.9s-85.9,38.4-85.9,85.9S107.1,195,154.5,195"/>
<rect x="149.3" y="21.5" class="st2" width="10.3" height="175.2"/>
<rect x="68.2" y="104" class="st2" width="85.9" height="10.3"/>
<rect x="149.7" y="83" transform="matrix(0.866 -0.5 0.5 0.866 -18.2776 108.1236)" class="st2" width="85.9" height="10.3"/>
<rect x="146.2" y="135.1" transform="matrix(0.8192 -0.5736 0.5736 0.8192 -46.2214 133.8242)" class="st2" width="85.9" height="10.3"/>
<path class="st3" d="M68.6,109.1c0,47.4,38.4,85.9,85.9,85.9c47.4,0,85.9-38.4,85.9-85.9c0-47.4-38.4-85.9-85.9-85.9
	C107.1,23.3,68.6,61.7,68.6,109.1"/>
<path class="st2" d="M239.1,120l-54.5-31.5l-5.2,8.9l57.6,33.3C237.9,127.2,238.6,123.6,239.1,120z"/>
</svg>
