<?xml version="1.0" encoding="utf-8"?>
<!-- Generator: Adobe Illustrator 16.0.3, SVG Export Plug-In . SVG Version: 6.00 Build 0)  -->
<!DOCTYPE svg PUBLIC "-//W3C//DTD SVG 1.1//EN" "http://www.w3.org/Graphics/SVG/1.1/DTD/svg11.dtd" [
	<!ENTITY ns_extend "http://ns.adobe.com/Extensibility/1.0/">
	<!ENTITY ns_ai "http://ns.adobe.com/AdobeIllustrator/10.0/">
	<!ENTITY ns_graphs "http://ns.adobe.com/Graphs/1.0/">
	<!ENTITY ns_vars "http://ns.adobe.com/Variables/1.0/">
	<!ENTITY ns_imrep "http://ns.adobe.com/ImageReplacement/1.0/">
	<!ENTITY ns_sfw "http://ns.adobe.com/SaveForWeb/1.0/">
	<!ENTITY ns_custom "http://ns.adobe.com/GenericCustomNamespace/1.0/">
	<!ENTITY ns_adobe_xpath "http://ns.adobe.com/XPath/1.0/">
]>
<svg version="1.1" id="Ebene_1" xmlns:x="&ns_extend;" xmlns:i="&ns_ai;" xmlns:graph="&ns_graphs;"
	 xmlns="http://www.w3.org/2000/svg" xmlns:xlink="http://www.w3.org/1999/xlink" x="0px" y="0px" width="100px" height="100px"
	 viewBox="0 0 100 100" enable-background="new 0 0 100 100" xml:space="preserve">
<metadata>
	<sfw  xmlns="&ns_sfw;">
		<slices></slices>
		<sliceSourceBounds  height="100" width="100" x="211" y="-128" bottomLeftOrigin="true"></sliceSourceBounds>
	</sfw>
</metadata>
<g>
	<rect fill="#3399CC" width="100" height="100"/>
	<g>
		<g>
			<g>
				<path fill="#FFFFFF" d="M23.232,28.796c0,3.531-1.309,5.479-3.611,5.479c-2.027,0-3.4-1.901-3.434-5.336
					c0-3.482,1.5-5.398,3.609-5.398C21.982,23.54,23.232,25.488,23.232,28.796z M17.594,28.955c0,2.7,0.826,4.233,2.105,4.233
					c1.443,0,2.127-1.676,2.127-4.33c0-2.557-0.652-4.232-2.107-4.232C18.492,24.626,17.594,26.128,17.594,28.955z"/>
				<path fill="#FFFFFF" d="M27.58,25.026h-0.031l-1.805,0.973l-0.27-1.07l2.266-1.213h1.201v10.385H27.58V25.026z"/>
				<path fill="#FFFFFF" d="M35.781,25.026h-0.033l-1.803,0.973l-0.271-1.07l2.266-1.213h1.199v10.385h-1.357V25.026z"/>
				<path fill="#FFFFFF" d="M47.828,28.796c0,3.531-1.313,5.479-3.607,5.479c-2.031,0-3.404-1.901-3.438-5.336
					c0-3.482,1.502-5.398,3.613-5.398C46.578,23.54,47.828,25.488,47.828,28.796z M42.189,28.955c0,2.7,0.834,4.233,2.107,4.233
					c1.441,0,2.125-1.676,2.125-4.33c0-2.557-0.65-4.232-2.105-4.232C43.088,24.626,42.189,26.128,42.189,28.955z"/>
				<path fill="#FFFFFF" d="M52.178,25.026h-0.033l-1.807,0.973l-0.27-1.07l2.268-1.213h1.201v10.385h-1.359V25.026z"/>
				<path fill="#FFFFFF" d="M64.225,28.796c0,3.531-1.309,5.479-3.607,5.479c-2.031,0-3.404-1.901-3.438-5.336
					c0-3.482,1.508-5.398,3.613-5.398C62.98,23.54,64.225,25.488,64.225,28.796z M58.586,28.955c0,2.7,0.83,4.233,2.113,4.233
					c1.432,0,2.119-1.676,2.119-4.33c0-2.557-0.65-4.232-2.105-4.232C59.482,24.626,58.586,26.128,58.586,28.955z"/>
				<path fill="#FFFFFF" d="M23.232,47.976c0,3.529-1.309,5.48-3.611,5.48c-2.027,0-3.4-1.903-3.434-5.338
					c0-3.482,1.5-5.4,3.609-5.4C21.982,42.718,23.232,44.667,23.232,47.976z M17.594,48.135c0,2.698,0.826,4.231,2.105,4.231
					c1.443,0,2.127-1.676,2.127-4.328c0-2.557-0.652-4.232-2.107-4.232C18.492,43.806,17.594,45.306,17.594,48.135z"/>
				<path fill="#FFFFFF" d="M27.58,44.204h-0.031l-1.805,0.973l-0.27-1.066l2.266-1.217h1.201v10.383H27.58V44.204z"/>
				<path fill="#FFFFFF" d="M35.781,44.204h-0.033l-1.803,0.973l-0.271-1.066l2.266-1.217h1.199v10.383h-1.357V44.204z"/>
				<path fill="#FFFFFF" d="M47.828,47.976c0,3.529-1.313,5.48-3.607,5.48c-2.031,0-3.404-1.903-3.438-5.338
					c0-3.482,1.502-5.4,3.613-5.4C46.578,42.718,47.828,44.667,47.828,47.976z M42.189,48.135c0,2.698,0.834,4.231,2.107,4.231
					c1.441,0,2.125-1.676,2.125-4.328c0-2.557-0.65-4.232-2.105-4.232C43.088,43.806,42.189,45.306,42.189,48.135z"/>
				<path fill="#FFFFFF" d="M52.178,44.204h-0.033l-1.807,0.973l-0.27-1.066l2.268-1.217h1.201v10.383h-1.359V44.204z"/>
				<path fill="#FFFFFF" d="M64.225,47.976c0,3.529-1.309,5.48-3.607,5.48c-2.031,0-3.404-1.903-3.438-5.338
					c0-3.482,1.508-5.4,3.613-5.4C62.98,42.718,64.225,44.667,64.225,47.976z M58.586,48.135c0,2.698,0.83,4.231,2.113,4.231
					c1.432,0,2.119-1.676,2.119-4.328c0-2.557-0.65-4.232-2.105-4.232C59.482,43.806,58.586,45.306,58.586,48.135z"/>
			</g>
		</g>
	</g>
</g>
<path fill="#FFFFFF" d="M66.715,60.059h-3.613l-1.283-1.232c4.484-5.218,7.184-11.989,7.184-19.351
	c0-16.42-13.313-29.73-29.732-29.73s-29.73,13.311-29.73,29.73S22.85,69.207,39.27,69.207c7.361,0,14.135-2.698,19.352-7.183
	l1.232,1.282v3.613l22.869,22.825l6.816-6.816L66.715,60.059z M39.27,60.059c-11.389,0-20.582-9.192-20.582-20.583
	c0-11.39,9.193-20.582,20.582-20.582c11.391,0,20.584,9.192,20.584,20.582C59.854,50.866,50.66,60.059,39.27,60.059z"/>
</svg>
