<?xml version="1.0" encoding="utf-8"?>
<!-- Generator: Adobe Illustrator 16.0.3, SVG Export Plug-In . SVG Version: 6.00 Build 0)  -->
<!DOCTYPE svg PUBLIC "-//W3C//DTD SVG 1.1//EN" "http://www.w3.org/Graphics/SVG/1.1/DTD/svg11.dtd" [
	<!ENTITY ns_extend "http://ns.adobe.com/Extensibility/1.0/">
	<!ENTITY ns_ai "http://ns.adobe.com/AdobeIllustrator/10.0/">
	<!ENTITY ns_graphs "http://ns.adobe.com/Graphs/1.0/">
	<!ENTITY ns_vars "http://ns.adobe.com/Variables/1.0/">
	<!ENTITY ns_imrep "http://ns.adobe.com/ImageReplacement/1.0/">
	<!ENTITY ns_sfw "http://ns.adobe.com/SaveForWeb/1.0/">
	<!ENTITY ns_custom "http://ns.adobe.com/GenericCustomNamespace/1.0/">
	<!ENTITY ns_adobe_xpath "http://ns.adobe.com/XPath/1.0/">
]>
<svg version="1.1" id="Ebene_1" xmlns:x="&ns_extend;" xmlns:i="&ns_ai;" xmlns:graph="&ns_graphs;"
	 xmlns="http://www.w3.org/2000/svg" xmlns:xlink="http://www.w3.org/1999/xlink" x="0px" y="0px" width="309px" height="309px"
	 viewBox="0 0 309 309" style="enable-background:new 0 0 309 309;" xml:space="preserve">
<style type="text/css">
<![CDATA[
	.st0{fill:none;stroke:#3F84C5;stroke-width:3.6;}
	.st1{fill:#F29100;}
	.st2{fill:#D1E7F9;stroke:#D1E7F9;stroke-width:9;stroke-miterlimit:10;}
	.st3{fill:#FFFFFF;stroke:#D5DEF2;stroke-width:3.6;}
	.st4{fill:#FFFFFF;}
	.st5{fill:none;}
	.st6{fill:#375B6A;}
	.st7{fill:#A1C517;stroke:#FFFFFF;stroke-width:3;stroke-miterlimit:10;}
	.st8{fill:#3F84C5;}
	.st9{fill:none;stroke:#D5DEF2;stroke-width:3.6;}
]]>
</style>
<metadata>
	<sfw  xmlns="&ns_sfw;">
		<slices></slices>
		<sliceSourceBounds  width="309.4" height="309" bottomLeftOrigin="true" x="-6.1" y="-4.5"></sliceSourceBounds>
	</sfw>
</metadata>
<path class="st2" d="M232.9,304.5h-156c-39.6,0-72-16.9-72-56.5V64.5c0-39.6,32.4-60,72-60h156c39.6,0,72,20.9,72,60.5v183.5
	C304.9,288.1,272.5,304.5,232.9,304.5z"/>
<g>
	<rect x="4.9" y="205.5" class="st5" width="300" height="97"/>
	<path class="st6" d="M12.4,231.4c1.8,1,4.5,1.9,7.3,1.9c3.6,0,5.5-1.7,5.5-4.1c0-2.3-1.5-3.6-5.4-5c-5-1.8-8.2-4.5-8.2-8.8
		c0-4.9,4.1-8.7,10.7-8.7c3.3,0,5.7,0.7,7.3,1.5l-1.4,4.5c-1.1-0.6-3.2-1.4-6-1.4c-3.5,0-5,1.9-5,3.6c0,2.3,1.8,3.4,5.8,5
		c5.3,2,7.8,4.6,7.8,9c0,4.9-3.7,9.1-11.5,9.1c-3.2,0-6.5-0.9-8.2-1.9L12.4,231.4z"/>
	<path class="st6" d="M42,209.3v6.3h5.3v4.1H42v9.7c0,2.7,0.7,4.1,2.8,4.1c0.9,0,1.7-0.1,2.2-0.3l0.1,4.2c-0.8,0.3-2.3,0.5-4,0.5
		c-2,0-3.7-0.7-4.8-1.8c-1.2-1.3-1.7-3.2-1.7-6.1v-10.3h-3.1v-4.1h3.1v-4.9L42,209.3z"/>
	<path class="st6" d="M55.4,228c0.1,4,3.2,5.7,6.7,5.7c2.6,0,4.4-0.4,6.1-1l0.8,3.8c-1.9,0.8-4.5,1.4-7.6,1.4
		c-7.1,0-11.3-4.4-11.3-11.1c0-6.1,3.7-11.8,10.7-11.8c7.1,0,9.4,5.8,9.4,10.7c0,1-0.1,1.8-0.2,2.3H55.4z M65,224.2
		c0-2-0.9-5.4-4.5-5.4c-3.4,0-4.9,3.1-5.1,5.4H65z"/>
	<path class="st6" d="M94.3,230.9c0,2.6,0.1,4.8,0.2,6.6h-4.9l-0.3-3.3h-0.1c-0.9,1.6-3.1,3.8-7,3.8c-4,0-7.6-2.4-7.6-9.5v-12.9h5.5
		v11.9c0,3.6,1.2,6,4.1,6c2.2,0,3.6-1.6,4.2-3c0.2-0.5,0.3-1.1,0.3-1.7v-13.2h5.5V230.9z"/>
	<path class="st6" d="M104.2,228c0.1,4,3.2,5.7,6.7,5.7c2.6,0,4.4-0.4,6.1-1l0.8,3.8c-1.9,0.8-4.5,1.4-7.6,1.4
		c-7.1,0-11.3-4.4-11.3-11.1c0-6.1,3.7-11.8,10.7-11.8c7.1,0,9.4,5.8,9.4,10.7c0,1-0.1,1.8-0.2,2.3H104.2z M113.8,224.2
		c0-2-0.9-5.4-4.5-5.4c-3.4,0-4.9,3.1-5.1,5.4H113.8z"/>
	<path class="st6" d="M123.5,222.6c0-3,0-5.1-0.2-7.1h4.8l0.2,4.2h0.2c1.1-3.1,3.6-4.7,6-4.7c0.5,0,0.9,0,1.3,0.1v5.2
		c-0.5-0.1-0.9-0.2-1.6-0.2c-2.7,0-4.5,1.7-4.9,4.2c-0.1,0.5-0.2,1.1-0.2,1.7v11.3h-5.5V222.6z"/>
	<path class="st6" d="M159.1,230.9c0,2.6,0.1,4.8,0.2,6.6h-4.9l-0.3-3.3h-0.1c-0.9,1.6-3.1,3.8-7,3.8c-4,0-7.6-2.4-7.6-9.5v-12.9
		h5.5v11.9c0,3.6,1.2,6,4.1,6c2.2,0,3.6-1.6,4.2-3c0.2-0.5,0.3-1.1,0.3-1.7v-13.2h5.5V230.9z"/>
	<path class="st6" d="M165.1,222.1c0-2.5,0-4.6-0.2-6.5h4.9l0.3,3.3h0.1c0.9-1.7,3.3-3.8,7-3.8c3.8,0,7.8,2.5,7.8,9.4v13h-5.5v-12.4
		c0-3.1-1.2-5.5-4.2-5.5c-2.2,0-3.7,1.6-4.3,3.2c-0.2,0.5-0.2,1.2-0.2,1.8v12.9h-5.6V222.1z"/>
	<path class="st6" d="M210.9,215.5c-0.1,1.5-0.2,3.3-0.2,6.3v12.4c0,4.6-0.9,7.9-3.2,9.9c-2.3,2-5.4,2.7-8.5,2.7
		c-2.8,0-5.8-0.6-7.6-1.8l1.2-4.2c1.4,0.8,3.7,1.7,6.4,1.7c3.6,0,6.3-1.9,6.3-6.6v-1.9h-0.1c-1.3,1.9-3.5,3.2-6.4,3.2
		c-5.4,0-9.3-4.5-9.3-10.7c0-7.2,4.7-11.6,9.9-11.6c3.3,0,5.3,1.6,6.3,3.4h0.1l0.2-2.9H210.9z M205.2,224.3c0-0.5,0-1-0.2-1.5
		c-0.6-2-2.2-3.6-4.5-3.6c-3.1,0-5.4,2.7-5.4,7.2c0,3.7,1.9,6.7,5.4,6.7c2.1,0,3.9-1.4,4.5-3.3c0.1-0.6,0.2-1.4,0.2-2V224.3z"/>
	<path class="st6" d="M245.6,230.9c0,2.6,0.1,4.8,0.2,6.6h-4.9l-0.3-3.3h-0.1c-0.9,1.6-3.1,3.8-7,3.8c-4,0-7.7-2.4-7.7-9.5v-12.9
		h5.5v11.9c0,3.6,1.2,6,4.1,6c2.2,0,3.6-1.6,4.2-3c0.2-0.5,0.3-1.1,0.3-1.7v-13.2h5.5V230.9z"/>
	<path class="st6" d="M251.6,222.1c0-2.5,0-4.6-0.2-6.5h4.9l0.3,3.3h0.1c0.9-1.7,3.3-3.8,7-3.8c3.8,0,7.8,2.5,7.8,9.4v13h-5.5v-12.4
		c0-3.1-1.2-5.5-4.2-5.5c-2.2,0-3.7,1.6-4.3,3.2c-0.2,0.5-0.2,1.2-0.2,1.8v12.9h-5.6V222.1z"/>
	<path class="st6" d="M297.5,205.5v25.8c0,2.3,0.1,4.7,0.2,6.2h-4.9l-0.2-3.5h-0.1c-1.3,2.4-4,4-7.2,4c-5.2,0-9.4-4.5-9.4-11.2
		c0-7.3,4.5-11.7,9.8-11.7c3,0,5.2,1.3,6.2,2.9h0.1v-12.4H297.5z M292,224.7c0-0.4,0-1-0.1-1.4c-0.5-2.2-2.3-3.9-4.8-3.9
		c-3.6,0-5.5,3.1-5.5,7.2c0,4,2,6.9,5.5,6.9c2.3,0,4.2-1.5,4.8-3.9c0.1-0.5,0.2-1,0.2-1.6V224.7z"/>
	<path class="st6" d="M64.8,252.5c2.1-0.4,5.2-0.6,8.4-0.6c4.4,0,7.3,0.7,9.4,2.4c1.7,1.4,2.6,3.5,2.6,6.1c0,3.9-2.7,6.6-5.5,7.6
		v0.1c2.2,0.8,3.5,2.9,4.2,5.8c0.9,3.8,1.8,7.3,2.4,8.5h-5.7c-0.5-0.9-1.2-3.4-2-7.2c-0.9-4-2.3-5.2-5.4-5.3h-2.8v12.5h-5.5V252.5z
		 M70.3,265.9h3.3c3.7,0,6.1-2,6.1-5c0-3.3-2.3-4.9-5.9-4.9c-1.8,0-2.9,0.1-3.4,0.3V265.9z"/>
	<path class="st6" d="M94.1,273c0.1,4,3.2,5.7,6.7,5.7c2.6,0,4.4-0.4,6.1-1l0.8,3.8c-1.9,0.8-4.5,1.4-7.6,1.4
		c-7.1,0-11.3-4.4-11.3-11.1c0-6.1,3.7-11.8,10.7-11.8c7.1,0,9.4,5.8,9.4,10.7c0,1-0.1,1.8-0.2,2.3H94.1z M103.8,269.2
		c0-2-0.9-5.4-4.5-5.4c-3.4,0-4.9,3.1-5.1,5.4H103.8z"/>
	<path class="st6" d="M133.4,260.5c-0.1,1.5-0.2,3.3-0.2,6.3v12.4c0,4.6-0.9,7.9-3.2,9.9c-2.3,2-5.4,2.7-8.5,2.7
		c-2.8,0-5.8-0.6-7.6-1.8l1.2-4.2c1.4,0.8,3.7,1.7,6.4,1.7c3.6,0,6.3-1.9,6.3-6.6v-1.9h-0.1c-1.3,1.9-3.5,3.2-6.4,3.2
		c-5.4,0-9.3-4.5-9.3-10.7c0-7.2,4.7-11.6,9.9-11.6c3.3,0,5.3,1.6,6.3,3.4h0.1l0.2-2.9H133.4z M127.7,269.3c0-0.5,0-1-0.2-1.5
		c-0.6-2-2.2-3.6-4.5-3.6c-3.1,0-5.4,2.7-5.4,7.2c0,3.7,1.9,6.7,5.4,6.7c2.1,0,3.9-1.4,4.5-3.3c0.1-0.6,0.2-1.4,0.2-2V269.3z"/>
	<path class="st6" d="M143.1,273c0.1,4,3.2,5.7,6.7,5.7c2.6,0,4.4-0.4,6.1-1l0.8,3.8c-1.9,0.8-4.5,1.4-7.6,1.4
		c-7.1,0-11.3-4.4-11.3-11.1c0-6.1,3.7-11.8,10.7-11.8c7.1,0,9.4,5.8,9.4,10.7c0,1-0.1,1.8-0.2,2.3H143.1z M152.8,269.2
		c0-2-0.9-5.4-4.5-5.4c-3.4,0-4.9,3.1-5.1,5.4H152.8z"/>
	<path class="st6" d="M162.4,250.5h5.6v31.9h-5.6V250.5z"/>
	<path class="st6" d="M193.6,275.9c0,2.6,0.1,4.8,0.2,6.6h-4.9l-0.3-3.3h-0.1c-0.9,1.6-3.1,3.8-7,3.8c-4,0-7.6-2.4-7.6-9.5v-12.9
		h5.5v11.9c0,3.6,1.2,6,4.1,6c2.2,0,3.6-1.6,4.2-3c0.2-0.5,0.3-1.1,0.3-1.7v-13.2h5.5V275.9z"/>
	<path class="st6" d="M199.6,267.1c0-2.5,0-4.6-0.2-6.5h4.9l0.3,3.3h0.1c0.9-1.7,3.3-3.8,7-3.8c3.8,0,7.8,2.5,7.8,9.4v13h-5.5v-12.4
		c0-3.1-1.2-5.5-4.2-5.5c-2.2,0-3.7,1.6-4.3,3.2c-0.2,0.5-0.2,1.2-0.2,1.8v12.9h-5.6V267.1z"/>
	<path class="st6" d="M245.4,260.5c-0.1,1.5-0.2,3.3-0.2,6.3v12.4c0,4.6-0.9,7.9-3.2,9.9c-2.3,2-5.4,2.7-8.5,2.7
		c-2.8,0-5.8-0.6-7.6-1.8l1.2-4.2c1.4,0.8,3.7,1.7,6.4,1.7c3.6,0,6.3-1.9,6.3-6.6v-1.9h-0.1c-1.3,1.9-3.5,3.2-6.4,3.2
		c-5.4,0-9.3-4.5-9.3-10.7c0-7.2,4.7-11.6,9.9-11.6c3.3,0,5.3,1.6,6.3,3.4h0.1l0.2-2.9H245.4z M239.6,269.3c0-0.5,0-1-0.2-1.5
		c-0.6-2-2.2-3.6-4.5-3.6c-3.1,0-5.4,2.7-5.4,7.2c0,3.7,1.9,6.7,5.4,6.7c2.1,0,3.9-1.4,4.5-3.3c0.1-0.6,0.2-1.4,0.2-2V269.3z"/>
</g>
<g>
	<rect x="118.5" y="67.6" class="st7" width="129.8" height="129.8"/>
	<circle class="st3" cx="91.2" cy="117.8" r="11.5"/>
	<path class="st4" d="M91,172c6.3,0,11.5-5.1,11.5-11.5c0-6.3-5.1-11.5-11.5-11.5s-11.5,5.1-11.5,11.5C79.5,166.8,84.6,172,91,172"
		/>
	<polyline class="st8" points="176.2,28.9 178.6,23.1 159.8,30.9 178.5,38.5 176.2,32.5 	"/>
	<path class="st1" d="M126.5,29.9l16.8-14.5c0,0,12.8,14.5,0.1,31.2L126.5,29.9z"/>
	<circle class="st0" cx="126" cy="30.9" r="23.7"/>
	<line class="st0" x1="109.7" y1="47.1" x2="142" y2="14.8"/>
	<line class="st0" x1="142" y1="47.1" x2="109.7" y2="14.8"/>
	<rect x="86.5" y="116.5" class="st8" width="9" height="2.6"/>
	<polygon class="st8" points="95.8,161.8 95.8,159.2 92.4,159.2 92.4,155.6 89.6,155.6 89.6,159.2 86.2,159.2 86.2,161.8 
		89.6,161.8 89.6,165.4 92.4,165.4 92.4,161.8 	"/>
	<circle class="st9" cx="91" cy="160.5" r="11.5"/>
	<polyline class="st0" points="116,138.7 61.5,138.7 61.5,30.6 95.3,30.6 	"/>
	<polyline class="st0" points="175.7,30.6 219.8,30.6 219.8,87.4 	"/>
	<polygon class="st8" points="112,131.1 130.9,138.8 111.9,146.6 115.4,138.7 	"/>
</g>
</svg>
