<?xml version="1.0" encoding="utf-8"?>
<!-- Generator: Adobe Illustrator 16.0.3, SVG Export Plug-In . SVG Version: 6.00 Build 0)  -->
<!DOCTYPE svg PUBLIC "-//W3C//DTD SVG 1.1//EN" "http://www.w3.org/Graphics/SVG/1.1/DTD/svg11.dtd" [
	<!ENTITY ns_extend "http://ns.adobe.com/Extensibility/1.0/">
	<!ENTITY ns_ai "http://ns.adobe.com/AdobeIllustrator/10.0/">
	<!ENTITY ns_graphs "http://ns.adobe.com/Graphs/1.0/">
	<!ENTITY ns_vars "http://ns.adobe.com/Variables/1.0/">
	<!ENTITY ns_imrep "http://ns.adobe.com/ImageReplacement/1.0/">
	<!ENTITY ns_sfw "http://ns.adobe.com/SaveForWeb/1.0/">
	<!ENTITY ns_custom "http://ns.adobe.com/GenericCustomNamespace/1.0/">
	<!ENTITY ns_adobe_xpath "http://ns.adobe.com/XPath/1.0/">
]>
<svg version="1.1" xmlns:x="&ns_extend;" xmlns:i="&ns_ai;" xmlns:graph="&ns_graphs;"
	 xmlns="http://www.w3.org/2000/svg" xmlns:xlink="http://www.w3.org/1999/xlink" x="0px" y="0px" width="291px" height="291px"
	 viewBox="0 0 291 291" style="enable-background:new 0 0 291 291;" xml:space="preserve">
<style type="text/css">
<![CDATA[
	.st0{fill:none;stroke:#FFFFFF;stroke-width:5.4208;stroke-miterlimit:10;}
	.st1{fill:#2F98C1;}
	.st2{fill:#FFAA00;}
	.st3{fill:#FFFFFF;}
	.st4{fill:#CAE4EE;}
	.st5{opacity:0.74;fill:#FFFFFF;}
]]>
</style>
<metadata>
	<sfw  xmlns="&ns_sfw;">
		<slices></slices>
		<sliceSourceBounds  width="551.7" height="291" y="-7.1" x="-20.9" bottomLeftOrigin="true"></sliceSourceBounds>
	</sfw>
</metadata>
<g id="Ebene_1">
	<path class="st1" d="M254.5,291h-218C16.4,291,0,274.6,0,254.5v-218C0,16.4,16.4,0,36.5,0h218C274.6,0,291,16.4,291,36.5v218
		C291,274.6,274.6,291,254.5,291z"/>
	<g>
		<path class="st3" d="M40.9,267.1l-0.4-2.5h-0.1c-1.4,1.8-3.8,3.1-6.8,3.1c-4.6,0-7.2-3.3-7.2-6.8c0-5.8,5.1-8.7,13.6-8.7v-0.4
			c0-1.5-0.6-4-4.7-4c-2.3,0-4.6,0.7-6.2,1.7l-1.1-3.8c1.7-1,4.7-2,8.3-2c7.3,0,9.4,4.7,9.4,9.6v8.3c0,2.1,0.1,4.1,0.3,5.5H40.9z
			 M40.2,255.9c-4.1-0.1-8,0.8-8,4.3c0,2.3,1.5,3.3,3.3,3.3c2.3,0,4-1.5,4.5-3.1c0.1-0.4,0.2-0.9,0.2-1.3V255.9z"/>
		<path class="st3" d="M72.4,260.2c0,2.7,0.1,5,0.2,6.9h-5.1l-0.3-3.5h-0.1c-1,1.6-3.2,4-7.3,4c-4.2,0-8-2.5-8-10v-13.4h5.8v12.5
			c0,3.8,1.2,6.3,4.3,6.3c2.3,0,3.8-1.6,4.4-3.1c0.2-0.5,0.3-1.1,0.3-1.8v-13.8h5.8V260.2z"/>
		<path class="st3" d="M85.3,237.6v6.5h5.5v4.3h-5.5v10.1c0,2.8,0.8,4.2,3,4.2c1,0,1.7-0.1,2.3-0.3l0.1,4.4
			c-0.8,0.3-2.4,0.6-4.2,0.6c-2.1,0-3.9-0.7-5-1.9c-1.2-1.3-1.8-3.4-1.8-6.4v-10.8h-3.3v-4.3h3.3V239L85.3,237.6z"/>
		<path class="st3" d="M95.2,233.7h5.8v13.6h0.1c0.7-1.1,1.6-2,2.9-2.6c1.1-0.7,2.5-1,3.9-1c3.9,0,8,2.6,8,9.9v13.5h-5.8v-12.8
			c0-3.3-1.2-5.8-4.4-5.8c-2.3,0-3.9,1.5-4.5,3.2c-0.2,0.5-0.2,1.1-0.2,1.7v13.7h-5.8V233.7z"/>
		<path class="st3" d="M126.2,257.2c0.1,4.1,3.4,5.9,7.1,5.9c2.7,0,4.6-0.4,6.3-1l0.8,4c-2,0.8-4.7,1.4-8,1.4
			c-7.4,0-11.8-4.6-11.8-11.6c0-6.3,3.9-12.3,11.2-12.3c7.4,0,9.9,6.1,9.9,11.1c0,1.1-0.1,1.9-0.2,2.4H126.2z M136.2,253.2
			c0-2.1-0.9-5.6-4.7-5.6c-3.6,0-5.1,3.2-5.3,5.6H136.2z"/>
		<path class="st3" d="M146.3,251c0-2.6,0-4.8-0.2-6.8h5.1l0.3,3.4h0.1c1-1.8,3.5-3.9,7.3-3.9c4,0,8.1,2.6,8.1,9.8v13.6h-5.8v-12.9
			c0-3.3-1.2-5.8-4.4-5.8c-2.3,0-3.9,1.6-4.5,3.4c-0.2,0.5-0.2,1.2-0.2,1.9v13.4h-5.8V251z"/>
		<path class="st3" d="M179.6,237.6v6.5h5.5v4.3h-5.5v10.1c0,2.8,0.8,4.2,3,4.2c1,0,1.7-0.1,2.3-0.3l0.1,4.4
			c-0.8,0.3-2.4,0.6-4.2,0.6c-2.1,0-3.9-0.7-5-1.9c-1.2-1.3-1.8-3.4-1.8-6.4v-10.8h-3.3v-4.3h3.3V239L179.6,237.6z"/>
		<path class="st3" d="M195.7,237.8c0,1.7-1.3,3.1-3.3,3.1c-1.9,0-3.2-1.4-3.2-3.1c0-1.8,1.3-3.1,3.2-3.1
			C194.4,234.6,195.6,236,195.7,237.8z M189.5,267.1v-22.9h5.8v22.9H189.5z"/>
		<path class="st3" d="M201.3,261.7c1.3,0.8,3.8,1.6,5.9,1.6c2.5,0,3.7-1,3.7-2.5c0-1.6-0.9-2.4-3.8-3.3c-4.5-1.6-6.3-4-6.3-6.7
			c0-4,3.3-7.2,8.7-7.2c2.5,0,4.7,0.7,6.1,1.4l-1.1,4.1c-1-0.6-2.8-1.3-4.8-1.3c-2.1,0-3.2,1-3.2,2.4c0,1.5,1.1,2.2,4,3.2
			c4.1,1.5,6.1,3.6,6.1,7c0,4.1-3.2,7.1-9.3,7.1c-2.8,0-5.3-0.7-7-1.6L201.3,261.7z"/>
		<path class="st3" d="M238,266.4c-1.2,0.6-3.6,1.2-6.5,1.2c-7.1,0-11.8-4.6-11.8-11.7c0-6.9,4.7-12.2,12.7-12.2
			c2.1,0,4.3,0.5,5.6,1.1l-1,4.3c-0.9-0.4-2.3-0.9-4.4-0.9c-4.4,0-7.1,3.2-7,7.4c0,4.7,3.1,7.4,7,7.4c2,0,3.4-0.4,4.6-0.9L238,266.4
			z"/>
		<path class="st3" d="M242.3,233.7h5.8v13.6h0.1c0.7-1.1,1.6-2,2.9-2.6c1.1-0.7,2.5-1,3.9-1c3.9,0,8,2.6,8,9.9v13.5h-5.8v-12.8
			c0-3.3-1.2-5.8-4.4-5.8c-2.3,0-3.9,1.5-4.5,3.2c-0.2,0.5-0.2,1.1-0.2,1.7v13.7h-5.8V233.7z"/>
	</g>
	<g>
		<path class="st3" d="M96,211.6c0-2.6,0-4.8-0.2-6.8h5.1l0.3,3.4h0.1c1-1.8,3.5-3.9,7.3-3.9c4,0,8.1,2.6,8.1,9.8v13.5h-5.8v-12.9
			c0-3.3-1.2-5.8-4.4-5.8c-2.3,0-3.9,1.6-4.5,3.4c-0.2,0.5-0.2,1.2-0.2,1.9v13.4H96V211.6z"/>
		<path class="st3" d="M128.9,198.5c0,1.7-1.3,3.1-3.3,3.1c-1.9,0-3.2-1.4-3.2-3.1c0-1.8,1.3-3.1,3.2-3.1
			C127.6,195.3,128.8,196.7,128.9,198.5z M122.7,227.6v-22.8h5.8v22.8H122.7z"/>
		<path class="st3" d="M151.5,226.9c-1.2,0.6-3.6,1.2-6.5,1.2c-7.1,0-11.7-4.5-11.7-11.6c0-6.8,4.7-12.2,12.7-12.2
			c2.1,0,4.3,0.5,5.6,1.1l-1,4.3c-0.9-0.4-2.3-0.9-4.4-0.9c-4.4,0-7,3.2-7,7.4c0,4.7,3,7.3,7,7.3c2,0,3.4-0.4,4.5-0.9L151.5,226.9z"
			/>
		<path class="st3" d="M155.7,194.4h5.8V208h0.1c0.7-1.1,1.6-2,2.9-2.6c1.1-0.7,2.5-1,3.9-1c3.9,0,8,2.6,8,9.9v13.4h-5.8v-12.8
			c0-3.3-1.2-5.8-4.4-5.8c-2.2,0-3.8,1.5-4.4,3.2c-0.2,0.5-0.2,1.1-0.2,1.7v13.6h-5.8V194.4z"/>
		<path class="st3" d="M188.9,198.3v6.5h5.5v4.3h-5.5v10.1c0,2.8,0.7,4.2,2.9,4.2c1,0,1.7-0.1,2.2-0.3l0.1,4.4
			c-0.8,0.3-2.3,0.6-4.2,0.6c-2.1,0-3.9-0.7-5-1.9c-1.2-1.3-1.8-3.4-1.8-6.4v-10.7H180v-4.3h3.3v-5.1L188.9,198.3z"/>
	</g>
	<path class="st5" d="M153,71.6c0-16.5,13.1-29.7,29.2-29.6c16.1,0.1,28.9,13.2,28.9,29.6c0,12.9,0,17.4,0,31
		c-4.5,1.9-12.2,5.9-18.2,5.9c-2.1,0-3.7-0.2-3.6-3c-4.8,2.2-9.4,2.3-14.2,0c-0.3,1,0,2.4-1.9,2.5c-2.5-0.1-13.8-1.6-20.2-4.4
		 M162.8,67c-1.7,11.3-0.7,23.7,7.3,32.1c7,7.3,16.9,7.2,24.1-0.1c5.7-5.8,8-13.1,8.3-21c0.1-2.9,0-5.5-1-10.9
		C192.3,71.4,173,72.4,162.8,67z"/>
	<path id="body" class="st5" d="M148.5,145.2c0-7.4-0.4-14.8,0.1-22.1c0.4-6.1,5.7-11.1,11.8-11.6c3.5-0.3,7.1-0.1,10.6-0.2
		c1.1,0,2.2,0,3.7,0c0,3,0,5.7,0,8.4c0.1,4.8,3,8,7.3,8.1c4.4,0.1,7.5-3.1,7.6-8.2c0.1-2.6,0-5.3,0-8c5.3,0,10.4-0.5,15.3,0.1
		c6.2,0.8,10.7,6.5,10.9,12.9c0.2,6.2-0.1,12.3-0.1,18.5c0,1.8-0.6,18-2.5,18c-21.1-0.1-42.3,0-63.4-0.1
		C149.5,161,149.3,145.4,148.5,145.2z"/>
	<path class="st4" d="M205.1,125.6l4.6-2.4c3-1.9,4.2-7.9,6.1,0.3l9.5,31c1.1,3.7-1,7.7-4.7,8.8l0,0c-3.7,1.1-7.7-1-8.8-4.7
		l-11.5-31C201.3,126.8,203.7,126.5,205.1,125.6z"/>
	<path class="st4" d="M135.8,153.8L135.8,153.8c-3.3-2.1-4.2-6.5-2.1-9.8l17.5-27.3c2.1-3.3,5.1-5.3,6.6-3.5l0,0
		c1.6,0.5,2.9,14.8,0.8,18.1l-13,20.3C143.5,154.9,139.1,155.9,135.8,153.8z"/>
	<polyline class="st0" points="116.7,47.3 116.7,22.9 245.3,22.9 245.3,163.6 153,163.6 	"/>
</g>
<g id="asfd">
	<path class="st3" d="M81.8,85.4c0.1-19.3,15.3-34.7,34.1-34.5c18.7,0.1,33.6,15.4,33.7,34.5c0,15,0,20.2,0,36.1
		c-5.3,2.2-10.9,4.5-20,6.2c-3.2,0.8-8.5,1.2-11.8,1.2c-5,0.1-6.1,0-7.9-0.3c-1.3-0.2-1.7-0.1-4-0.3c-2.9-0.1-16.7-2.3-24.1-5.6
		 M139.6,116.4C137.6,129.6,130.2,106.6,139.6,116.4c8.2,8.5-18.1,9.3-9.8,0.8c6.6-6.8,9.4-15.2,9.7-24.5c0.1-3.4,0-6.4-1.2-12.7
		C147.2,88.7,151.5,122.7,139.6,116.4z"/>
	<path id="body_4_" class="st3" d="M115.7,131.6"/>
	<path id="body_2_" class="st3" d="M124.4,132c6.2,0,12.1-0.6,17.9,0.2c7.2,1,12.4,7.5,12.6,15c0.2,7.2-0.2,14.4-0.1,21.6
		c0,2.1-0.6,3-2.9,3c-24.6-0.1-49.3-0.1-73.9-0.1c-0.2,0-0.5-0.1-1.5-0.4c0-8.7-0.4-17.3,0.1-25.8c0.5-7.1,6.7-12.9,13.7-13.6
		c4.1-0.4,8.2-0.1,12.3-0.2c1.3,0,2.5,0,4.3,0"/>
	<path class="st3" d="M141.8,146l5.5-2.5c3.6-1.9,5.5-7.4,6.9-0.2l8.2,26.9c1,3.2-1.7,7-6.1,8.3l0,0c-4.3,1.3-8.7-0.2-9.7-3.5
		l-10.5-26.7C137.4,147.4,140.2,146.9,141.8,146z"/>
	<path class="st3" d="M61.8,181.2L61.8,181.2c-3.8-2.4-4.9-7.6-2.5-11.4l20.3-31.8c2.4-3.8,6-6.1,7.7-4.1l0,0
		c1.8,0.6,3.4,17.3,1,21.1l-15.2,23.7C70.7,182.6,65.6,183.7,61.8,181.2z"/>
	<rect x="49.7" y="171.6" class="st1" width="131.3" height="13.1"/>
	<g>
		<g>
			<g>
				<path class="st2" d="M72.9,152.9c21.6-14,49.7-28.5,71.3-43.2c25.8-17.8,54.7-35.7,81.6-51.9c0.5,0.8-1.1,3.3,1.4,2.3
					c9.7-4.2,10.6-2.6,11.6-1.1c0.5,0.8-6.7,4-4,3.5c-6.7,4-17.7,11.2-10.5,7.9c2.7-0.6,11.2-6.7,14.1-6.9c2.9-0.2-0.8,3.7,2.1,3.5
					c2.2-1.3,6.7-4,9-5.3c2.7-0.5-0.9,3.7,1.4,2.3c3.6-1.6,7.6-3.8,11.8-6.3c4.2-2.5,8.7-5.1,13.2-7.7c0.5,0.8,3.1,0.3-1.1,3.3
					C196.3,99.4,118.9,153.6,36.3,195.1c-9.6,4.5-3.4-0.8,3-5.7c-2.1,1.6-2.7,0.4-4.9,2c-0.6-1.2,3-5.6,12-11
					c-2.3,1.3-4.6,2.5-6.9,3.7c-2.5,0.8-0.6-1.2-1.1-2c2.3-1.2,4.6-2.4,4.4-2.8c-0.2-0.4-0.6-1.2-0.9-1.6c-2.3,1.2-6.9,3.6-9.2,4.8
					c2.3-1.2,4.6-2.4,4.4-2.8c-0.2-0.4-0.6-1.2-0.8-1.6c4.4-2.8,11.7-5.8,16.1-8.6l-0.7-1.2c-4.8,2.1-11.4,6.3-16,8.6
					c2.1-1.6,1.9-2,1.5-2.8c3.3-2,6.9-3.7,10.3-5.4c3.5-1.8,6.9-3.6,10-6.1c-2.3,1.3-4.5,2.5-6.8,3.8c1.7-2.2,5.7-4.5,10-6.8
					C64.9,157.2,69.6,155,72.9,152.9z"/>
			</g>
		</g>
	</g>
	<g>
		<g>
			<g>
				<path class="st2" d="M257.1,203.2c-0.9-0.9-1.7-1.7-2.6-2.6c-16.1-15.3-33.9-28.7-53.1-44.2c-13.3-11.1-29.7-22.2-43.9-32
					c33.2,24,68.1,49.6,96.1,77.2c-3.7-1.7-7.9-4.1-12.1-7.6c-10-8.7-20.1-17-30.3-25.1c0.3-0.4,0.8-1.1,1.1-1.4
					c-15.1-10.7-29.2-21.7-43.6-32.3c-14.4-10.7-29-21-45.1-30.2c1,0.9,0.1,0.8-0.3,0.9c-0.1,0-0.2-0.1-0.2-0.1
					c0.1,0,0.1,0.1,0.2,0.1c-0.3,0.1-0.3,0.3,1.6,1.6c-1.9-1.3-1.9-1.5-1.6-1.6c30.7,19.6,58.3,39.5,86.7,62.2
					c-22.2-17.4-44.7-33.5-67.9-49c-11.6-7.7-23.3-15.4-35.3-22.8c-3-1.9-6-3.8-9-5.6c-3-1.8-6-3.7-9.1-5.6c-3-1.8-6.1-3.7-9.2-5.5
					c-3.2-1.9-6.3-3.9-9.5-5.9c-2.2-1.4-6.4-4.2-8.5-5.6c-3.9-3.4-7.8-6.8-11.7-10.2C45.9,54.3,41.9,50.9,38,47
					c1.8,0.1,1.5-2.5,2.7-3.1c0.6-0.3,1.5-0.2,3.1,0.9c1.6,1.1,4.1,3.2,7.8,6.5c0.3-0.4,0.8-1.1,1.1-1.4c-3.5-3.6-6.1-7-7.6-9.8
					c-0.7-1.5-1.3-2.7-1.5-3.8c-0.2-1.1-0.3-2-0.1-2.6c0.1-0.7,0.4-1.1,0.9-1.3c0.2-0.1,0.6-0.1,0.9,0c0.3,0,0.7,0.1,1.1,0.3
					c0.4,0.1,0.8,0.3,1.3,0.6c0.5,0.3,1.1,0.6,1.7,1c0.6,0.4,1.3,0.9,2.1,1.4c0.8,0.6,1.6,1.1,2.5,1.8c8.2,6.1,18.5,13.4,29.7,20.6
					c1.4,0.9,2.8,1.8,4.2,2.7c1.4,0.9,2.9,1.8,4.4,2.7c3,1.8,6,3.7,9,5.5c6,3.7,12,7.4,17.9,10.9c17.1,10.4,34,21.1,49.9,33.2
					c10.9,8.4,22.5,16.9,33.9,25.6c5.7,4.3,11.3,8.8,16.9,13.2c5.5,4.5,10.9,9,16,13.6c7.6,6.4,22,16.5,25,20.8
					c2.4,2.8,1.8,3.6,0.7,4.1c-12.5-10.6-25.2-20.9-37.9-30.8c-15.4-12.5-31-24.6-46.7-36.8c15.1,12.2,30.9,24.3,46.7,36.8
					c12.5,10.1,24.9,20.5,36.9,31.2c-1,0.3-2.1,0.7-1.9,2c0,0,1,0.8,2.1,1.8c1.2,1,2.6,2.2,3.5,3c6.1,8.2,2.1,8.9-3.1,7.4
					C260,204.3,258.6,203.8,257.1,203.2z"/>
			</g>
		</g>
	</g>
</g>
</svg>
