<?xml version="1.0" encoding="utf-8"?>
<!-- Generator: Adobe Illustrator 16.0.3, SVG Export Plug-In . SVG Version: 6.00 Build 0)  -->
<!DOCTYPE svg PUBLIC "-//W3C//DTD SVG 1.1//EN" "http://www.w3.org/Graphics/SVG/1.1/DTD/svg11.dtd" [
	<!ENTITY ns_extend "http://ns.adobe.com/Extensibility/1.0/">
	<!ENTITY ns_ai "http://ns.adobe.com/AdobeIllustrator/10.0/">
	<!ENTITY ns_graphs "http://ns.adobe.com/Graphs/1.0/">
	<!ENTITY ns_vars "http://ns.adobe.com/Variables/1.0/">
	<!ENTITY ns_imrep "http://ns.adobe.com/ImageReplacement/1.0/">
	<!ENTITY ns_sfw "http://ns.adobe.com/SaveForWeb/1.0/">
	<!ENTITY ns_custom "http://ns.adobe.com/GenericCustomNamespace/1.0/">
	<!ENTITY ns_adobe_xpath "http://ns.adobe.com/XPath/1.0/">
]>
<svg version="1.1" id="Ebene_1" xmlns:x="&ns_extend;" xmlns:i="&ns_ai;" xmlns:graph="&ns_graphs;"
	 xmlns="http://www.w3.org/2000/svg" xmlns:xlink="http://www.w3.org/1999/xlink" x="0px" y="0px" width="290.9px" height="290.9px"
	 viewBox="0 0 290.9 290.9" style="enable-background:new 0 0 290.9 290.9;" xml:space="preserve">
<style type="text/css">
<![CDATA[
	.st0{display:none;fill:#FFFFFF;}
	.st1{enable-background:new    ;}
	.st2{fill:#2F98C1;}
	.st3{fill:#FFAA00;}
	.st4{fill:#FFFFFF;}
	.st5{fill:#CAE4EE;}
]]>
</style>
<metadata>
	<sfw  xmlns="&ns_sfw;">
		<slices></slices>
		<sliceSourceBounds  width="290.9" height="290.9" y="-115" x="-116" bottomLeftOrigin="true"></sliceSourceBounds>
	</sfw>
</metadata>
<g id="Ebene_1_1_">
	<path class="st2" d="M254.4,290.9H36.5C16.4,290.9,0,274.5,0,254.4V36.5C0,16.4,16.4,0,36.5,0h217.9c20.1,0,36.5,16.4,36.5,36.5
		v217.9C290.9,274.5,274.5,290.9,254.4,290.9z"/>
	<g class="st1">
		<path class="st4" d="M35.5,237.6v6.5H41v4.3h-5.5v10.1c0,2.8,0.8,4.2,3,4.2c1,0,1.7-0.1,2.3-0.3l0.1,4.4c-0.8,0.3-2.3,0.6-4.2,0.6
			c-2.1,0-3.9-0.7-5-1.9c-1.2-1.3-1.8-3.4-1.8-6.4v-10.8h-3.3v-4.3h3.3v-5.2L35.5,237.6z"/>
		<path class="st4" d="M45.4,251.5c0-3.1,0-5.3-0.2-7.4h5l0.2,4.4h0.2c1.1-3.2,3.8-4.9,6.3-4.9c0.6,0,0.9,0,1.4,0.1v5.5
			c-0.5-0.1-1-0.2-1.7-0.2c-2.8,0-4.7,1.8-5.2,4.4c-0.1,0.5-0.2,1.1-0.2,1.8V267h-5.8V251.5z"/>
		<path class="st4" d="M74.6,267l-0.4-2.5h-0.1c-1.4,1.8-3.8,3.1-6.8,3.1c-4.6,0-7.2-3.3-7.2-6.8c0-5.8,5.1-8.7,13.6-8.6v-0.4
			c0-1.5-0.6-4-4.7-4c-2.3,0-4.6,0.7-6.2,1.7l-1.1-3.8c1.7-1,4.7-2,8.3-2c7.3,0,9.4,4.7,9.4,9.6v8.3c0,2.1,0.1,4.1,0.3,5.5H74.6z
			 M73.8,255.8c-4.1-0.1-8,0.8-8,4.3c0,2.3,1.5,3.3,3.3,3.3c2.3,0,4-1.5,4.5-3.1c0.1-0.4,0.2-0.9,0.2-1.3V255.8z"/>
		<path class="st4" d="M85.6,250.9c0-2.6,0-4.8-0.2-6.8h5.1l0.3,3.4h0.1c1-1.8,3.5-3.9,7.3-3.9c4,0,8.1,2.6,8.1,9.8V267h-5.8v-12.9
			c0-3.3-1.2-5.8-4.4-5.8c-2.3,0-3.9,1.6-4.5,3.4c-0.2,0.5-0.2,1.2-0.2,1.9V267h-5.8V250.9z"/>
		<path class="st4" d="M112.2,261.7c1.3,0.8,3.8,1.6,5.9,1.6c2.5,0,3.7-1,3.7-2.5c0-1.6-0.9-2.4-3.8-3.3c-4.5-1.6-6.3-4-6.3-6.7
			c0-4,3.3-7.2,8.6-7.2c2.5,0,4.7,0.7,6.1,1.4l-1.1,4.1c-1-0.6-2.8-1.3-4.8-1.3c-2.1,0-3.2,1-3.2,2.4c0,1.5,1.1,2.2,4,3.2
			c4.1,1.5,6.1,3.6,6.1,7c0,4.1-3.2,7.1-9.3,7.1c-2.8,0-5.3-0.7-7-1.6L112.2,261.7z"/>
		<path class="st4" d="M132.1,251.7c0-3-0.1-5.5-0.2-7.6h5.1l0.3,3.5h0.1c1.7-2.6,4.4-4,7.8-4c5.3,0,9.6,4.5,9.6,11.7
			c0,8.3-5.2,12.3-10.4,12.3c-2.9,0-5.3-1.2-6.4-3.1h-0.1v11.8h-5.8V251.7z M137.8,257.4c0,0.6,0,1.1,0.2,1.6c0.6,2.3,2.6,4,5.1,4
			c3.7,0,5.8-3.1,5.8-7.6c0-4-2-7.3-5.7-7.3c-2.4,0-4.6,1.7-5.2,4.3c-0.1,0.5-0.2,1-0.2,1.5V257.4z"/>
		<path class="st4" d="M172.4,267l-0.4-2.5h-0.1c-1.4,1.8-3.8,3.1-6.8,3.1c-4.6,0-7.2-3.3-7.2-6.8c0-5.8,5.1-8.7,13.6-8.6v-0.4
			c0-1.5-0.6-4-4.7-4c-2.3,0-4.6,0.7-6.2,1.7l-1.1-3.8c1.7-1,4.7-2,8.3-2c7.3,0,9.4,4.7,9.4,9.6v8.3c0,2.1,0.1,4.1,0.3,5.5H172.4z
			 M171.7,255.8c-4.1-0.1-8,0.8-8,4.3c0,2.3,1.5,3.3,3.3,3.3c2.3,0,4-1.5,4.5-3.1c0.1-0.4,0.2-0.9,0.2-1.3V255.8z"/>
		<path class="st4" d="M183.4,251.5c0-3.1,0-5.3-0.2-7.4h5l0.2,4.4h0.2c1.1-3.2,3.8-4.9,6.3-4.9c0.6,0,0.9,0,1.4,0.1v5.5
			c-0.5-0.1-1-0.2-1.7-0.2c-2.8,0-4.7,1.8-5.2,4.4c-0.1,0.5-0.2,1.1-0.2,1.8V267h-5.8V251.5z"/>
		<path class="st4" d="M203.8,257.2c0.1,4.1,3.4,5.9,7,5.9c2.7,0,4.6-0.4,6.3-1l0.8,4c-2,0.8-4.7,1.4-8,1.4
			c-7.4,0-11.8-4.6-11.8-11.6c0-6.3,3.9-12.3,11.2-12.3c7.4,0,9.9,6.1,9.9,11.1c0,1.1-0.1,1.9-0.2,2.4H203.8z M213.9,253.1
			c0-2.1-0.9-5.6-4.7-5.6c-3.6,0-5.1,3.2-5.3,5.6H213.9z"/>
		<path class="st4" d="M224,250.9c0-2.6,0-4.8-0.2-6.8h5.1l0.3,3.4h0.1c1-1.8,3.5-3.9,7.3-3.9c4,0,8.1,2.6,8.1,9.8V267h-5.8v-12.9
			c0-3.3-1.2-5.8-4.4-5.8c-2.3,0-3.9,1.6-4.5,3.4c-0.2,0.5-0.2,1.2-0.2,1.9V267H224V250.9z"/>
		<path class="st4" d="M257.3,237.6v6.5h5.5v4.3h-5.5v10.1c0,2.8,0.8,4.2,3,4.2c1,0,1.7-0.1,2.3-0.3l0.1,4.4
			c-0.8,0.3-2.3,0.6-4.2,0.6c-2.1,0-3.9-0.7-5-1.9c-1.2-1.3-1.8-3.4-1.8-6.4v-10.8h-3.3v-4.3h3.3v-5.2L257.3,237.6z"/>
	</g>
	<g class="st1">
		<path class="st4" d="M97.1,212.3c0-2.6,0-4.8-0.2-6.8h5.1l0.3,3.4h0.1c1-1.8,3.5-3.9,7.3-3.9c4,0,8.1,2.6,8.1,9.8v13.5H112v-12.9
			c0-3.3-1.2-5.8-4.4-5.8c-2.3,0-3.9,1.6-4.5,3.4c-0.2,0.5-0.2,1.2-0.2,1.9v13.4h-5.8V212.3z"/>
		<path class="st4" d="M130,199.2c0,1.7-1.3,3.1-3.3,3.1c-1.9,0-3.2-1.4-3.2-3.1c0-1.8,1.3-3.1,3.2-3.1
			C128.7,196,129.9,197.4,130,199.2z M123.8,228.3v-22.8h5.8v22.8H123.8z"/>
		<path class="st4" d="M152.6,227.6c-1.2,0.6-3.6,1.2-6.5,1.2c-7.1,0-11.7-4.5-11.7-11.6c0-6.8,4.7-12.2,12.7-12.2
			c2.1,0,4.3,0.5,5.6,1.1l-1,4.3c-0.9-0.4-2.3-0.9-4.4-0.9c-4.4,0-7,3.2-7,7.4c0,4.7,3,7.3,7,7.3c2,0,3.4-0.4,4.5-0.9L152.6,227.6z"
			/>
		<path class="st4" d="M156.8,195.1h5.8v13.6h0.1c0.7-1.1,1.6-2,2.9-2.6c1.1-0.7,2.5-1,3.9-1c3.9,0,8,2.6,8,9.9v13.4h-5.8v-12.8
			c0-3.3-1.2-5.8-4.4-5.8c-2.2,0-3.8,1.5-4.4,3.2c-0.2,0.5-0.2,1.1-0.2,1.7v13.6h-5.8V195.1z"/>
		<path class="st4" d="M190,199v6.5h5.5v4.3H190v10.1c0,2.8,0.7,4.2,2.9,4.2c1,0,1.7-0.1,2.2-0.3l0.1,4.4c-0.8,0.3-2.3,0.6-4.2,0.6
			c-2.1,0-3.9-0.7-5-1.9c-1.2-1.3-1.8-3.4-1.8-6.4v-10.7h-3.3v-4.3h3.3v-5.1L190,199z"/>
	</g>
	<path class="st4" d="M77.6,115.8c0-15.9,12.6-28.6,28.1-28.5c15.5,0.1,27.8,12.7,27.8,28.5c0,12.4,0,16.7,0,29.8
		c-4.3,1.8-11.8,5.7-17.5,5.7c-2.1,0-3.6-0.2-3.5-2.9c-4.6,2.1-9.1,2.2-13.7,0c-0.3,0.9,0,2.4-1.9,2.4c-2.4-0.1-13.3-1.5-19.4-4.3
		 M87,111.4c-1.6,10.9-0.7,22.8,7,30.8c6.8,7,16.3,6.9,23.2-0.1c5.5-5.6,7.7-12.6,8-20.2c0.1-2.8,0-5.3-1-10.5
		C115.5,115.7,96.9,116.6,87,111.4z"/>
	<path class="st4" d="M73.3,186.6c0-7.2-0.3-14.2,0.1-21.3c0.4-5.9,5.5-10.7,11.3-11.2c3.4-0.3,6.8-0.1,10.2-0.1c1,0,2.1,0,3.6,0
		c0,2.9,0,5.5,0,8.1c0.1,4.6,2.9,7.7,7.1,7.8c4.3,0.1,7.2-3,7.3-7.8c0.1-2.5,0-5.1,0-7.7c5.1,0,10-0.5,14.7,0.1
		c6,0.8,10.3,6.2,10.4,12.4c0.2,5.9-0.1,11.9-0.1,17.8c0,1.8-0.5,2.4-2.4,2.4c-20.3-0.1-40.7,0-61-0.1
		C74.3,186.9,74.1,186.8,73.3,186.6z"/>
	<path class="st0" d="M159.7,124.4c0.7-2.4,6.6-0.9,12.9-3.5c1.8-0.7,0.2,0.5,9.7-8.9c9.4-13.6,18.7-41,21.4-40.9
		c6.6,0.1,8.7,41.8,1.4,46.5c-1.9,1.2-8.1,5.8-12.8,8.7c-3.9,2.4-4.3,2.8-6.2,3.5c-5.9,2.2-17.3,6.1-23,2.9
		C160.8,131.4,159.2,126.1,159.7,124.4z"/>
	<path class="st4" d="M69.8,199.5L69.8,199.5c-3.6-1.1-5.6-4.9-4.6-8.5l8.9-29.9c1.1-3.6,4.9-5.6,8.5-4.6l0,0
		c3.6,1.1,5.6,4.9,4.6,8.5l-8.9,29.9C77.2,198.5,73.4,200.5,69.8,199.5z"/>
	<path class="st4" d="M129.4,161.9L129.4,161.9c-1.2-3.6,0.8-7.4,4.3-8.6l29.6-9.8c3.6-1.2,7.4,0.8,8.6,4.3l0,0
		c1.2,3.6-0.8,7.4-4.3,8.6l-29.6,9.8C134.4,167.4,130.6,165.4,129.4,161.9z"/>
	<path class="st4" d="M167.3,152.4l-3.9-1.8c-2.3-1.1-3.3-3.8-2.3-6.1l13.6-29.5c1.1-2.3,3.8-3.3,6.1-2.3l3.9,1.8
		c2.3,1.1,3.3,3.8,2.3,6.1l-13.6,29.5C172.3,152.5,169.6,153.5,167.3,152.4z"/>
	<g>
		<path class="st4" d="M184.6,102.3c0.1,0.4,2.1-0.3,2,0c-0.8,3,2.3-2.2,1.4,0.7c-0.1,0.3-0.2,0.7-0.3,1c-0.1,0.2-0.1,0.5,0.1,0.5
			c0.3,0.1,0.3-0.1,0.4-0.4c0.5-1.6-1.5,1.7-1.1,0.1c0.2-0.5-0.6,0-0.4-0.5c0.3-0.8,1.6-0.4,2.3-0.4c0.9,0.1,1.4,0,1.5,0.9
			c0,0.3,0.3,0.6,0.3,0.9c-1.6,5.7-0.6,5.1-2.2,10.8c-0.5,1.7-1.7,2.7-3.2,3.4c-2.6,1.2-5.2,1.2-7.8,0.1c-2.1-0.9-3.7-2.5-4.6-4.7
			c-0.9-2.1-1.8-4.1-2.6-6.2c-0.6-1.4-1.2-2.8-1.8-4.3c-0.5-1.2,0.3-2.4,1.5-2.5c0.7-0.1,1.5,0.4,1.8,1.1c0.6,1.4,1.3,2.9,1.9,4.4
			c0.1,0.1,0,0.3,0.1,0.4c0.1,0,0.2-0.1,0.3-0.1c0-0.1,0.1-0.3,0.1-0.4c1.5-5.2,3-10.4,4.4-15.6c0.3-1,1.3-1.6,2.2-1.3
			c1,0.3,1.6,1.2,1.3,2.3c-0.8,3-1.7,6-2.5,9c0,0.1-0.1,0.3-0.1,0.4c0,0.1,0.1,0.3,0.2,0.3c0.1,0,0.3-0.1,0.3-0.2
			c0.1-0.1,0.1-0.3,0.2-0.4"/>
		<path class="st4" d="M183.6,102.7c-0.1,0.3-0.3,0.6,0.1,0.7c0.4,0.1,0.4-0.3,0.5-0.6"/>
	</g>
	<rect x="46" y="187" class="st2" width="57.1" height="17.3"/>
	<ellipse class="st4" cx="181.3" cy="102.7" rx="2" ry="2.1"/>
	<ellipse class="st4" cx="183.9" cy="102.7" rx="2" ry="2.1"/>
	<ellipse class="st4" cx="186.7" cy="103.6" rx="2" ry="2.1"/>
	<ellipse class="st4" cx="188.8" cy="104.8" rx="2" ry="2.1"/>
	<g id="stern">
		<path class="st5" d="M85.4,53L85.4,53c2.3-0.8,4.6-1.5,6.9-2.2c5.2-1.6,10.4-3.2,15.6-4.9c0.9-0.3,1.4-0.6,0.9-1.1
			c-3-2.8-6-5.7-8.9-8.6c-0.8-0.8-1.6-1.6-2.5-2.5c2.5-0.1,4.8-0.2,7-0.3c6.7-0.3,13.5-0.6,20.2-0.8c1.1,0,2.1-0.1,2.2-0.7
			c0.6-2.7,1.1-5.3,1.7-8c0.3-1.3,0.7-2.7,1-4.2c1.7,0.3,3.3,0.6,4.8,0.9c6.7,1.3,13.5,2.6,20.1,3.9c1.6,0.3,2.3,0.2,3.2-0.3
			c3.3-2,6.6-4,10-6c2-1.2,3.9-2.4,5.9-3.7c0.1,0,0.2,0,0.3,0c0.1,0.1,0.2,0.3,0.4,0.4c5,3,10,6,15,9c1.6,1,1.6,1,4.1,0.5
			c5.6-1.1,11.2-2.2,16.8-3.3c2.5-0.5,4.9-0.9,7.6-1.5c0.3,1.1,0.6,2.1,0.8,3.1c0.7,2.9,1.3,5.9,1.9,8.8c0.1,0.5,0.3,0.9,1.7,1
			c6,0.3,12.1,0.5,18.1,0.8c3.1,0.1,6.3,0.3,9.6,0.4c-0.2,0.3-0.4,0.6-0.6,0.9c-3.5,3.4-7,6.8-10.6,10.2c-0.5,0.4-0.4,0.7,0.6,1
			c7.6,2.4,15.2,4.8,22.8,7.2c-0.4,0.1-0.9,0.2-1.3,0.3c-2,0.6-4.1,1.3-6.1,1.9c-5.1,1.6-10.2,3.2-15.3,4.8
			c-0.9,0.3-1.3,0.6-0.8,1.1c3,2.9,6,5.8,9,8.6c0.8,0.8,1.5,1.6,2.3,2.4c-0.6,0.1-0.8,0.1-1,0.1c-8.8,0.4-17.5,0.8-26.3,1.1
			c-1.4,0.1-2.1,0.3-2.2,0.9c-0.2,1-0.4,2-0.7,3.1c-0.4,2-0.8,3.9-1.3,5.9c-0.2,1-0.5,1.9-0.8,3c-1.8-0.4-3.4-0.6-5-1
			c-6.7-1.3-13.4-2.6-20-3.9c-1.5-0.3-2.2-0.2-3.1,0.3c-3.3,2-6.7,4.1-10.1,6.1c-2,1.2-3.9,2.4-5.8,3.6c-0.1,0-0.2,0-0.4,0
			c-0.6-0.4-1.2-0.8-1.9-1.2c-4.7-2.8-9.4-5.7-14.1-8.5c-0.6-0.4-1.2-0.7-2.4-0.4c-6.6,1.3-13.3,2.7-19.9,4c-1.8,0.4-3.6,0.7-5.6,1
			c-0.3-1.1-0.6-2.1-0.8-3.1c-0.7-2.9-1.3-5.9-1.9-8.8c-0.1-0.5-0.5-0.9-1.9-1c-2.6-0.1-5.1-0.2-7.7-0.3c-4.4-0.2-8.7-0.4-13.1-0.5
			c-2.2-0.1-4.4-0.2-6.7-0.3c0.2-0.3,0.3-0.6,0.5-0.8c3.4-3.3,6.8-6.7,10.4-10c0.7-0.7,0.5-1-0.8-1.4c-4.6-1.4-9.2-2.9-13.8-4.3
			C91,54.7,88.2,53.9,85.4,53z"/>
	</g>
	<g class="st1">
		<path class="st2" d="M116.7,62.6l-3.8-22h4.4l1.1,8.8c0.3,2.5,0.5,5,0.8,7.7h0.1c0.3-2.7,0.8-5.1,1.2-7.7l1.6-8.7h3.5l1.5,8.7
			c0.4,2.5,0.8,4.9,1,7.8h0.1c0.3-2.9,0.6-5.2,0.8-7.8l1.1-8.7h4.2l-3.9,22h-4.4l-1.3-7.2c-0.4-2-0.7-4.5-1-7.2h-0.1
			c-0.4,2.6-0.8,5.1-1.2,7.2l-1.5,7.2H116.7z"/>
		<path class="st2" d="M145.9,52.9h-5v5.9h5.7v3.7h-10v-22h9.6v3.7h-5.3v5.1h5V52.9z"/>
		<path class="st2" d="M149.4,40.9c1.3-0.3,3-0.4,4.7-0.4c2.3,0,4.4,0.3,5.9,1.6c1.3,1.2,1.7,2.7,1.7,4.6c0,2.3-1.1,4.5-3.4,5.5v0.1
			c1.5,0.6,2.3,2,2.7,4.3c0.4,2.4,1,5.2,1.4,6h-4.5c-0.3-0.6-0.8-2.8-1.1-5.3c-0.4-2.7-1.1-3.5-2.5-3.5h-0.6v8.8h-4.3V40.9z
			 M153.7,50.5h0.8c1.9,0,2.9-1.5,2.9-3.4c0-1.9-0.8-3.2-2.7-3.3c-0.4,0-0.8,0-1,0.1V50.5z"/>
		<path class="st2" d="M164.7,40.9c1.3-0.3,3-0.4,4.9-0.4c2.1,0,4,0.3,5.6,1.6c1.2,1,1.7,2.4,1.7,4c0,2-1,3.8-3.2,4.8v0.1
			c2.5,0.7,3.9,2.8,3.9,5.3c0,1.8-0.6,3.2-1.6,4.3c-1.3,1.4-3.5,2.2-7.2,2.2c-1.6,0-3-0.1-4-0.2V40.9z M169,49.6h0.9
			c1.5,0,2.7-1.3,2.7-3.1c0-1.6-0.8-2.8-2.5-2.8c-0.5,0-0.8,0-1.1,0.1V49.6z M169,59.4c0.3,0.1,0.6,0.1,0.9,0.1c1.7,0,3.2-1,3.2-3.3
			c0-2.2-1.5-3.3-3.2-3.4H169V59.4z"/>
		<path class="st2" d="M184.6,40.6v14.3c0,3.2,1,4.2,2.1,4.2c1.2,0,2.1-0.9,2.1-4.2V40.6h4.3v13.5c0,5.6-2.1,8.7-6.4,8.7
			c-4.6,0-6.4-3.2-6.4-8.7V40.6H184.6z"/>
		<path class="st2" d="M196.8,62.6v-22h3.9l3.4,8.6c0.7,1.7,1.7,4.5,2.3,6.4h0.1c-0.1-2.3-0.4-6.1-0.4-10.2v-4.9h3.8v22H206
			l-3.4-8.4c-0.7-1.9-1.7-4.6-2.2-6.6h-0.1c0.1,2.2,0.3,5.6,0.3,10v5H196.8z"/>
		<path class="st2" d="M225.9,62c-0.9,0.4-3,0.8-4.6,0.8c-2.5,0-4.4-0.7-5.9-2.2c-1.9-1.8-2.9-5.1-2.8-8.9c0.1-8,4.7-11.3,9.3-11.3
			c1.7,0,2.9,0.3,3.6,0.7l-0.8,3.7c-0.6-0.3-1.4-0.5-2.5-0.5c-2.9,0-5.2,2-5.2,7.7c0,5.3,2.1,7.2,4,7.2c0.4,0,0.7,0,0.8-0.1v-5.3h-2
			v-3.5h5.9V62z"/>
		<path class="st2" d="M228.6,60.2c0-1.6,1.1-2.6,2.4-2.6c1.4,0,2.4,1,2.4,2.6c0,1.5-0.9,2.6-2.4,2.6
			C229.6,62.8,228.6,61.7,228.6,60.2z M229.2,55.4l-0.5-14.8h4.7l-0.5,14.8H229.2z"/>
	</g>
	<g>
		<g>
			<g>
				<path class="st3" d="M65.9,147.2c18.9-14.3,43.9-29.2,62.9-44.1c22.7-17.9,48.5-35.8,73.1-51.5c0.5,0.8-0.8,3.2,1.5,2.3
					c8.9-4,9.9-2.5,10.8-0.9c0.5,0.8-6.1,3.9-3.6,3.3c-6.2,3.8-16,10.8-9.4,7.6c2.5-0.6,10.1-6.5,12.9-6.6c2.8-0.1-0.6,3.6,2.2,3.5
					c2-1.3,6.1-3.8,8.1-5.1c2.5-0.5-0.6,3.6,1.4,2.3c3.3-1.5,6.9-3.6,10.7-5.8c3.8-2.3,7.9-4.7,12-7.1c0.5,0.8,3,0.4-0.9,3.2
					c-35.8,21-70.3,45.8-105.1,70.4c-34.8,24.7-70,49.3-106.6,71c-8.5,4.7-3.2-0.7,2.2-5.6c-1.8,1.7-2.5,0.5-4.3,2.2
					c-0.7-1.2,2.2-5.6,10.1-11.1c-2,1.3-4.1,2.6-6.1,3.8c-2.3,0.9-0.7-1.2-1.2-1.9c2-1.3,4.1-2.5,3.8-2.9c-0.2-0.4-0.7-1.2-1-1.5
					c-2,1.3-6.1,3.8-8.2,5.1c2-1.3,4.1-2.5,3.8-2.9c-0.2-0.4-0.7-1.2-1-1.5c3.8-2.9,10.4-6,14.2-9l-0.7-1.1
					c-4.3,2.2-10.1,6.5-14.2,9c1.8-1.7,1.6-2,1.1-2.8c5.8-4.2,12.6-7,17.9-12l-6,3.9C49.2,156.6,60.2,151.6,65.9,147.2z"/>
			</g>
		</g>
	</g>
	<g>
		<g>
			<g>
				<path class="st3" d="M249.7,183.7c-0.8-0.8-1.6-1.5-2.3-2.3c-14.6-13.7-31.3-25.2-49.2-38.6c-12.5-9.6-27.7-19.2-41-27.6
					c15.5,10.4,31.4,21.1,46.7,32.2c15.3,11.1,30,22.7,42.7,35.1c-1.7-0.7-3.5-1.6-5.4-2.6s-3.8-2.3-5.8-3.8c-1.1-1-2.3-1.9-3.4-2.9
					c-1.2-0.9-2.3-1.9-3.5-2.8c-2.3-1.8-4.7-3.7-7-5.5c-4.7-3.6-9.5-7.1-14.2-10.7c0.3-0.4,0.8-1.1,1-1.5
					c-14.1-9.1-27.3-18.6-40.7-27.9c-13.4-9.2-27-18.3-41.9-26.2c0.9,0.8,0.1,0.8-0.3,0.9c-0.1,0-0.1-0.1-0.2-0.1
					c0.1,0,0.1,0.1,0.2,0.1c-0.3,0.1-0.3,0.3,1.5,1.4c-1.8-1.1-1.8-1.4-1.5-1.4c14.2,8.5,27.8,17.2,41.1,26
					c13.3,8.9,26.4,18,39.7,27.8c-20.7-15-41.8-28.8-63.4-42.3c-21.5-13.5-43.5-26.6-66.1-40.3c-1.9-1.2-5.8-3.5-7.7-4.6
					c-7-5.8-14.5-10.8-22.3-15.5c3.1-0.8-2.3-9.3,12.7,0.8c0.2-0.4,0.7-1.2,0.9-1.5C46,38.7,43.4,29.8,59.8,37.5
					C78,46.5,100.3,62,122,74.2c15.7,9.1,31.3,18.3,46.1,28.9c20.2,14.6,43.2,29.4,62.4,45.6c3.5,2.9,8.7,6.5,13.3,9.8
					c4.6,3.4,8.6,6.6,10,8.6c2.2,2.5,1.6,3.4,0.6,3.9c-2.9-2.4-5.8-4.7-8.7-7c-1.5-1.2-2.9-2.3-4.4-3.5l-4.4-3.4
					c-3-2.2-5.9-4.5-8.9-6.7s-5.9-4.4-8.9-6.5c-14.4-10.8-29.1-21.3-43.6-31.9c14.1,10.6,28.8,21.1,43.6,31.9l8.8,6.7
					c2.9,2.2,5.8,4.5,8.7,6.8l4.3,3.4c1.4,1.1,2.8,2.3,4.3,3.5c2.8,2.4,5.7,4.7,8.4,7.1c-1,0.4-2,0.8-1.9,2c0,0,3.5,2.9,5.2,4.3
					c5.5,7.5,1.6,8.4-3.2,7.3C252.4,184.7,251.1,184.2,249.7,183.7z"/>
			</g>
		</g>
	</g>
</g>
<g id="Ebene_2">
</g>
</svg>
