<?xml version="1.0" encoding="utf-8"?>
<!-- Generator: Adobe Illustrator 16.0.3, SVG Export Plug-In . SVG Version: 6.00 Build 0)  -->
<!DOCTYPE svg PUBLIC "-//W3C//DTD SVG 1.1//EN" "http://www.w3.org/Graphics/SVG/1.1/DTD/svg11.dtd" [
	<!ENTITY ns_extend "http://ns.adobe.com/Extensibility/1.0/">
	<!ENTITY ns_ai "http://ns.adobe.com/AdobeIllustrator/10.0/">
	<!ENTITY ns_graphs "http://ns.adobe.com/Graphs/1.0/">
	<!ENTITY ns_vars "http://ns.adobe.com/Variables/1.0/">
	<!ENTITY ns_imrep "http://ns.adobe.com/ImageReplacement/1.0/">
	<!ENTITY ns_sfw "http://ns.adobe.com/SaveForWeb/1.0/">
	<!ENTITY ns_custom "http://ns.adobe.com/GenericCustomNamespace/1.0/">
	<!ENTITY ns_adobe_xpath "http://ns.adobe.com/XPath/1.0/">
]>
<svg version="1.1" xmlns:x="&ns_extend;" xmlns:i="&ns_ai;" xmlns:graph="&ns_graphs;"
	 xmlns="http://www.w3.org/2000/svg" xmlns:xlink="http://www.w3.org/1999/xlink" x="0px" y="0px" width="290.9px" height="290.9px"
	 viewBox="0 0 290.9 290.9" style="enable-background:new 0 0 290.9 290.9;" xml:space="preserve">
<style type="text/css">
<![CDATA[
	.st0{display:none;fill:#FFFFFF;}
	.st1{fill:#8BC4DB;}
	.st2{fill:#2F98C1;}
	.st3{fill:#FFAA00;}
	.st4{fill:#FFFFFF;}
]]>
</style>
<metadata>
	<sfw  xmlns="&ns_sfw;">
		<slices></slices>
		<sliceSourceBounds  width="290.9" height="290.9" y="-7" x="-20.8" bottomLeftOrigin="true"></sliceSourceBounds>
	</sfw>
</metadata>
<g id="Ebene_1">
	<path class="st2" d="M254.4,290.9H36.5C16.4,290.9,0,274.5,0,254.4V36.5C0,16.4,16.4,0,36.5,0h217.9c20.1,0,36.5,16.4,36.5,36.5
		v217.9C290.9,274.5,274.5,290.9,254.4,290.9z"/>
	<g>
		<path class="st4" d="M39.9,242.1l2.4,10.4c0.5,2.4,1,4.9,1.5,7.4h0.1c0.5-2.5,1.2-5,1.9-7.4l3-10.4h4.7l2.9,10.2
			c0.7,2.7,1.3,5.2,1.8,7.7h0.1c0.4-2.5,0.9-5,1.5-7.7l2.5-10.2h5.7L60.7,265h-5.4l-2.7-9.3c-0.7-2.4-1.2-4.6-1.7-7.3h-0.1
			c-0.5,2.8-1.1,5.1-1.7,7.3l-2.9,9.3h-5.4L34,242.1H39.9z"/>
		<path class="st4" d="M84.2,265l-0.4-2.5h-0.1c-1.4,1.8-3.8,3.1-6.8,3.1c-4.6,0-7.2-3.3-7.2-6.8c0-5.8,5.1-8.7,13.6-8.6v-0.4
			c0-1.5-0.6-4-4.7-4c-2.3,0-4.6,0.7-6.2,1.7l-1.1-3.8c1.7-1,4.7-2,8.3-2c7.3,0,9.4,4.7,9.4,9.6v8.3c0,2.1,0.1,4.1,0.3,5.5H84.2z
			 M83.5,253.8c-4.1-0.1-8,0.8-8,4.3c0,2.3,1.5,3.3,3.3,3.3c2.3,0,4-1.5,4.5-3.1c0.1-0.4,0.2-0.9,0.2-1.3V253.8z"/>
		<path class="st4" d="M95.2,231.6h5.8v13.6h0.1c0.7-1.1,1.6-2,2.9-2.6c1.1-0.7,2.5-1,3.9-1c3.9,0,8,2.6,8,9.9V265h-5.8v-12.8
			c0-3.3-1.2-5.8-4.4-5.8c-2.3,0-3.9,1.5-4.5,3.2c-0.2,0.5-0.2,1.1-0.2,1.7V265h-5.8V231.6z"/>
		<path class="st4" d="M122.1,249.5c0-3.1,0-5.3-0.2-7.4h5l0.2,4.4h0.2c1.1-3.2,3.8-4.9,6.3-4.9c0.6,0,0.9,0,1.4,0.1v5.5
			c-0.5-0.1-1-0.2-1.7-0.2c-2.8,0-4.7,1.8-5.2,4.4c-0.1,0.5-0.2,1.1-0.2,1.8V265h-5.8V249.5z"/>
		<path class="st4" d="M138.8,231.6h5.8v13.6h0.1c0.7-1.1,1.6-2,2.9-2.6c1.1-0.7,2.5-1,3.9-1c3.9,0,8,2.6,8,9.9V265h-5.8v-12.8
			c0-3.3-1.2-5.8-4.4-5.8c-2.3,0-3.9,1.5-4.5,3.2c-0.2,0.5-0.2,1.1-0.2,1.7V265h-5.8V231.6z"/>
		<path class="st4" d="M178.6,265l-0.4-2.5h-0.1c-1.4,1.8-3.8,3.1-6.8,3.1c-4.6,0-7.2-3.3-7.2-6.8c0-5.8,5.1-8.7,13.6-8.6v-0.4
			c0-1.5-0.6-4-4.7-4c-2.3,0-4.6,0.7-6.2,1.7l-1.1-3.8c1.7-1,4.7-2,8.3-2c7.3,0,9.4,4.7,9.4,9.6v8.3c0,2.1,0.1,4.1,0.3,5.5H178.6z
			 M177.9,253.8c-4.1-0.1-8,0.8-8,4.3c0,2.3,1.5,3.3,3.3,3.3c2.3,0,4-1.5,4.5-3.1c0.1-0.4,0.2-0.9,0.2-1.3V253.8z"/>
		<path class="st4" d="M190.3,265v-18.6h-3.1v-4.3h3.1v-1c0-3,0.8-5.9,2.8-7.8c1.7-1.6,4-2.2,6-2.2c1.6,0,2.8,0.2,3.7,0.6l-0.4,4.5
			c-0.6-0.2-1.4-0.4-2.4-0.4c-2.9,0-3.9,2.4-3.9,5.2v1.2h5v4.3h-5V265H190.3z"/>
		<path class="st4" d="M211.8,235.6v6.5h5.5v4.3h-5.5v10.1c0,2.8,0.8,4.2,3,4.2c1,0,1.7-0.1,2.3-0.3l0.1,4.4
			c-0.8,0.3-2.3,0.6-4.2,0.6c-2.1,0-3.9-0.7-5-1.9c-1.2-1.3-1.8-3.4-1.8-6.4v-10.8h-3.3v-4.3h3.3v-5.2L211.8,235.6z"/>
		<path class="st4" d="M227.9,235.7c0,1.7-1.3,3.1-3.3,3.1c-1.9,0-3.2-1.4-3.2-3.1c0-1.8,1.3-3.1,3.2-3.1
			C226.6,232.5,227.8,233.9,227.9,235.7z M221.7,265v-22.9h5.8V265H221.7z"/>
		<path class="st4" d="M254.7,242.1c-0.1,1.6-0.2,3.4-0.2,6.6v13c0,4.8-1,8.2-3.4,10.4c-2.4,2.1-5.7,2.8-8.8,2.8c-2.9,0-6-0.6-8-1.8
			l1.3-4.4c1.5,0.8,3.9,1.7,6.7,1.7c3.8,0,6.6-2,6.6-6.9v-2h-0.1c-1.3,2-3.7,3.4-6.7,3.4c-5.7,0-9.7-4.7-9.7-11.2
			c0-7.5,4.9-12.1,10.4-12.1c3.5,0,5.5,1.7,6.6,3.6h0.1l0.2-3.1H254.7z M248.7,251.3c0-0.5,0-1.1-0.2-1.6c-0.6-2.1-2.3-3.7-4.7-3.7
			c-3.2,0-5.6,2.8-5.6,7.5c0,3.9,2,7,5.6,7c2.2,0,4-1.4,4.7-3.5c0.1-0.6,0.2-1.4,0.2-2.1V251.3z"/>
	</g>
	<path class="st4" d="M101.1,68.7c0.1-22.3,17.7-40.1,39.4-40c21.7,0.2,38.9,17.8,39,39.9c0.1,17.4,0,23.4,0,41.8
		c-6.1,2.5-16.5,8-24.6,7.9c-2.9,0-5-0.3-4.8-4c-6.5,3-12.7,3.1-19.2,0.1c-0.4,1.3,0,3.3-2.6,3.4c-3.3-0.1-18.6-2.2-27.2-6
		 M114.3,62.4c-2.3,15.2-1,31.9,9.9,43.2c9.5,9.9,22.8,9.7,32.5-0.2c7.7-7.8,10.8-17.6,11.3-28.4c0.2-3.9,0-7.4-1.4-14.7
		C154.2,68.5,128.1,69.8,114.3,62.4z"/>
	<path id="body" class="st1" d="M95,168c0-10-0.5-20,0.1-29.8c0.5-8.3,7.7-15,15.9-15.7c4.7-0.4,9.5-0.2,14.3-0.2c1.5,0,2.9,0,5,0
		c0,4-0.1,7.7,0,11.4c0.1,6.5,4.1,10.8,9.9,10.9c6,0.1,10.1-4.2,10.2-11c0.1-3.5,0-7.1,0-10.8c7.2,0,14-0.7,20.7,0.2
		c8.4,1.1,14.4,8.7,14.6,17.3c0.2,8.3-0.2,16.6-0.2,24.9c0,2.5-0.7,3.4-3.3,3.4c-28.5-0.1-57-0.1-85.6-0.1
		C96.4,168.4,96.2,168.2,95,168z"/>
	<path class="st4" d="M182.9,135.6l-3.4-6.1c-2.6-4-10.8-5.5,0.2-8.3l41.5-13.7c5-1.6,10.4,1.1,12,6.1l0,0c1.6,5-1.1,10.4-6.1,12
		L185.8,142C184.6,140.7,184.2,137.4,182.9,135.6z"/>
	<path class="st0" d="M159.7,124.4c0.7-2.4,6.6-0.9,12.9-3.5c1.8-0.7,0.2,0.5,9.7-8.9c9.4-13.6,18.7-41,21.4-40.9
		c6.6,0.1,8.7,41.8,1.4,46.5c-1.9,1.2-8.1,5.8-12.8,8.7c-3.9,2.4-4.3,2.8-6.2,3.5c-5.9,2.2-17.3,6.1-23,2.9
		C160.8,131.4,159.2,126.1,159.7,124.4z"/>
	<path class="st4" d="M78,179.6L78,179.6c-4.4-2.8-5.7-8.8-2.9-13.2l23.5-36.8c2.8-4.4,6.9-7.1,8.9-4.8l0,0c2.1,0.6,4,20,1.1,24.4
		l-17.5,27.4C88.3,181.1,82.4,182.4,78,179.6z"/>
	<path class="st4" d="M227.2,122.4h-6.1c-3.6,0-6.5-2.9-6.5-6.5V70.3c0-3.6,2.9-6.5,6.5-6.5h6.1c3.6,0,6.5,2.9,6.5,6.5v45.6
		C233.7,119.5,230.8,122.4,227.2,122.4z"/>
	<g>
		<path class="st4" d="M213.7,51.4c0-0.2,0-0.4,0-0.5c0-6.9,0-13.8,0-20.7c0-1.3,1-2.3,2.2-2.4c1.4,0,2.4,1,2.4,2.4
			c0,4,0,7.9,0,11.9c0,0.2,0,0.4,0,0.5c0.1,0.1,0.2,0.3,0.3,0.3c0.1,0,0.3-0.2,0.4-0.3c0.1-0.2,0-0.4,0-0.6c0-5.4,0-10.8,0-16.3
			c0-1.2,0.7-2,1.8-2.3c1.2-0.3,2.6,0.6,2.7,1.9c0.1,1,0,1.9,0,2.9c0,4.6,0,9.2,0,13.9c0,0.3-0.1,0.8,0.4,0.8c0.5,0,0.4-0.5,0.4-0.8
			c0-4.4,0-8.7,0-13.1c0-1,0.7-2,1.6-2.3c1.1-0.3,2.2,0.1,2.7,1.1c0.2,0.4,0.3,1,0.3,1.4c0,3.9,0,7.8,0,11.7c0,0.5,0,0.9,0,1.4
			c0,0.3,0,0.6,0.4,0.6c0.3,0,0.4-0.3,0.4-0.6c0-2.1,0-4.2,0-6.4c0-0.7,0-1.4,0-2.1c0-1.1,0.8-2.1,1.7-2.3c1.1-0.2,2.2,0.2,2.7,1.3
			c0.2,0.3,0.2,0.8,0.2,1.1c0,7.5,0,15.1,0,22.6c0,2.2-1.1,3.9-2.7,5.3c-2.7,2.3-5.9,3.3-9.5,2.8c-2.9-0.4-5.4-1.9-7.2-4.2
			c-1.8-2.2-3.6-4.4-5.4-6.6c-1.2-1.5-2.5-3-3.7-4.6c-1-1.3-0.5-3,1-3.6c0.8-0.3,2,0,2.6,0.7c1.3,1.6,2.5,3.1,3.8,4.7
			c0.1,0.1,0.1,0.3,0.2,0.5C213.5,51.6,213.6,51.5,213.7,51.4z"/>
	</g>
	<path class="st4" d="M73.7,177.5L73.7,177.5c-1.4-5,1.6-10.3,6.6-11.8l42-11.8c5-1.4,10.3,1.6,11.8,6.6l0,0
		c1.4,5-1.6,10.3-6.6,11.8l-42,11.8C80.5,185.5,75.2,182.5,73.7,177.5z"/>
	<g>
		<path class="st4" d="M143.9,147c0.2,0,0.4-0.1,0.5-0.1c6.8-1.3,13.5-2.6,20.3-3.9c1.3-0.2,2.5,0.5,2.7,1.8
			c0.3,1.3-0.5,2.5-1.9,2.8c-3.9,0.7-7.8,1.5-11.7,2.2c-0.2,0-0.4,0-0.5,0.1c-0.1,0.1-0.3,0.3-0.3,0.4s0.2,0.3,0.4,0.3
			c0.2,0,0.4,0,0.6-0.1c5.3-1,10.7-2,16-3c1.2-0.2,2.1,0.3,2.6,1.3c0.5,1.1-0.1,2.7-1.3,3c-0.9,0.3-1.9,0.4-2.8,0.6
			c-4.5,0.9-9.1,1.7-13.6,2.6c-0.3,0.1-0.8,0.1-0.8,0.5c0.1,0.5,0.6,0.3,0.9,0.2c4.3-0.8,8.6-1.6,12.8-2.4c1-0.2,2.1,0.3,2.5,1.1
			c0.5,1,0.3,2.2-0.5,2.9c-0.4,0.3-0.9,0.5-1.4,0.6c-3.8,0.8-7.7,1.5-11.5,2.2c-0.4,0.1-0.9,0.2-1.3,0.3c-0.3,0-0.6,0.1-0.5,0.5
			c0.1,0.3,0.4,0.3,0.6,0.3c2.1-0.4,4.2-0.8,6.3-1.2c0.7-0.1,1.4-0.3,2.1-0.4c1.1-0.2,2.2,0.4,2.5,1.3c0.5,1.1,0.2,2.2-0.7,2.9
			c-0.3,0.2-0.7,0.4-1.1,0.4c-7.4,1.4-14.8,2.8-22.2,4.2c-2.2,0.4-4-0.4-5.7-1.7c-2.8-2.3-4.4-5.2-4.5-8.8c-0.2-3,0.8-5.6,2.7-7.9
			c1.8-2.2,3.7-4.3,5.5-6.5c1.3-1.5,2.5-3,3.8-4.5c1.1-1.2,2.9-1.1,3.7,0.3c0.5,0.8,0.4,1.9-0.2,2.7c-1.3,1.5-2.6,3.1-3.9,4.6
			c-0.1,0.1-0.3,0.2-0.4,0.3C143.7,146.8,143.8,146.9,143.9,147z"/>
	</g>
	<g>
		<g>
			<g>
				<path class="st3" d="M63.8,134.8c21.6-14,49.7-28.5,71.3-43.2c25.8-17.8,54.7-35.7,81.6-51.9c0.5,0.8-1.1,3.3,1.4,2.3
					c9.7-4.2,10.6-2.6,11.6-1.1c0.5,0.8-6.7,4-4,3.5c-6.7,4-17.7,11.2-10.5,7.9c2.7-0.6,11.2-6.7,14.1-6.9c2.9-0.2-0.8,3.7,2.1,3.5
					c2.2-1.3,6.7-4,9-5.3c2.7-0.5-0.9,3.7,1.4,2.3c3.6-1.6,7.6-3.8,11.8-6.3c4.2-2.5,8.7-5.1,13.2-7.7c0.5,0.8,3.1,0.3-1.1,3.3
					C187.3,81.4,109.8,135.5,27.3,177c-9.6,4.5-3.4-0.8,3-5.7c-2.1,1.6-2.7,0.4-4.9,2c-0.6-1.2,3-5.6,12-11
					c-2.3,1.3-4.6,2.5-6.9,3.7c-2.5,0.8-0.6-1.2-1.1-2c2.3-1.2,4.6-2.4,4.4-2.8c-0.2-0.4-0.6-1.2-0.9-1.6c-2.3,1.2-6.9,3.6-9.2,4.8
					c2.3-1.2,4.6-2.4,4.4-2.8c-0.2-0.4-0.6-1.2-0.8-1.6c4.4-2.8,11.7-5.8,16.1-8.6l-0.7-1.2c-4.8,2.1-11.4,6.3-16,8.6
					c2.1-1.6,1.9-2,1.5-2.8c3.3-2,6.9-3.7,10.3-5.4c3.5-1.8,6.9-3.6,10-6.1c-2.3,1.3-4.5,2.5-6.8,3.8c1.7-2.2,5.7-4.5,10-6.8
					C55.9,139.2,60.6,137,63.8,134.8z"/>
			</g>
		</g>
	</g>
	<g>
		<g>
			<g>
				<path class="st3" d="M248.7,185.7c-0.8-0.8-1.5-1.5-2.3-2.3c-14.5-13.8-30.7-25.6-48.2-39.5c-12.1-9.9-26.9-19.9-39.9-28.7
					c15.1,10.8,30.5,21.9,45.4,33.4c14.9,11.5,29.2,23.4,41.8,35.8c-3.4-1.5-7.3-3.5-11.1-6.6c-1.1-1-2.3-1.9-3.4-2.9
					c-1.1-1-2.3-1.9-3.4-2.8c-2.3-1.9-4.6-3.8-6.9-5.6c-4.6-3.7-9.2-7.3-13.9-11c0.3-0.4,0.8-1.1,1.1-1.4
					c-13.8-9.4-26.6-19.3-39.6-28.9c-13-9.6-26.2-19-40.8-27.3c0.9,0.9,0.1,0.8-0.3,0.9c-0.1,0-0.1-0.1-0.2-0.1
					c0.1,0,0.1,0.1,0.2,0.1c-0.3,0.1-0.3,0.3,1.4,1.5c-1.7-1.2-1.7-1.4-1.4-1.5c13.9,8.9,27,17.9,40,27.1
					c12.9,9.3,25.7,18.7,38.6,28.9c-20.2-15.5-40.7-29.9-61.6-43.9C123.1,96.7,101.8,83,79.7,69c-1.9-1.2-5.7-3.6-7.6-4.7
					c-6.8-5.9-14.2-11-21.8-15.6c3.1-0.8-2.2-9.3,12.6,0.8c0.2-0.4,0.7-1.2,0.9-1.5c-14.1-11.2-16.7-20.1-0.3-12.3
					c18.3,9,40.2,24.9,61.3,37.8c15.3,9.5,30.5,19.2,44.8,30.1c19.6,15.2,41.9,30.5,60.5,47c3.4,2.9,8.5,6.6,13,10
					c4.5,3.5,8.4,6.7,9.8,8.6c2.1,2.5,1.6,3.4,0.5,3.9c-11.4-9.5-23-18.7-34.5-27.5c-14-11.1-28.2-22-42.4-33
					c13.6,11,27.9,21.9,42.4,33c11.4,9,22.7,18.3,33.6,27.9c-1,0.4-2,0.8-1.9,2c0,0,3.4,2.9,5.1,4.3c5.4,7.5,1.6,8.4-3.2,7.3
					C251.4,186.6,250.1,186.2,248.7,185.7z"/>
			</g>
		</g>
	</g>
	<g>
		<path class="st4" d="M102.9,209.6c0-2.6,0-4.8-0.2-6.8h5.1l0.3,3.4h0.1c1-1.8,3.5-3.9,7.3-3.9c4,0,8.1,2.6,8.1,9.8v13.5h-5.8
			v-12.9c0-3.3-1.2-5.8-4.4-5.8c-2.3,0-3.9,1.6-4.5,3.4c-0.2,0.5-0.2,1.2-0.2,1.9v13.4h-5.8V209.6z"/>
		<path class="st4" d="M135.8,196.4c0,1.7-1.3,3.1-3.3,3.1c-1.9,0-3.2-1.4-3.2-3.1c0-1.8,1.3-3.1,3.2-3.1
			C134.6,193.3,135.8,194.6,135.8,196.4z M129.7,225.6v-22.8h5.8v22.8H129.7z"/>
		<path class="st4" d="M158.4,224.9c-1.2,0.6-3.6,1.2-6.5,1.2c-7.1,0-11.7-4.5-11.7-11.6c0-6.8,4.7-12.2,12.7-12.2
			c2.1,0,4.3,0.5,5.6,1.1l-1,4.3c-0.9-0.4-2.3-0.9-4.4-0.9c-4.4,0-7,3.2-7,7.4c0,4.7,3,7.3,7,7.3c2,0,3.4-0.4,4.5-0.9L158.4,224.9z"
			/>
		<path class="st4" d="M162.7,192.3h5.8v13.6h0.1c0.7-1.1,1.6-2,2.9-2.6c1.1-0.7,2.5-1,3.9-1c3.9,0,8,2.6,8,9.9v13.4h-5.8v-12.8
			c0-3.3-1.2-5.8-4.4-5.8c-2.2,0-3.8,1.5-4.4,3.2c-0.2,0.5-0.2,1.1-0.2,1.7v13.6h-5.8V192.3z"/>
		<path class="st4" d="M195.8,196.3v6.5h5.5v4.3h-5.5v10.1c0,2.8,0.7,4.2,2.9,4.2c1,0,1.7-0.1,2.2-0.3l0.1,4.4
			c-0.8,0.3-2.3,0.6-4.2,0.6c-2.1,0-3.9-0.7-5-1.9c-1.2-1.3-1.8-3.4-1.8-6.4v-10.7h-3.3v-4.3h3.3v-5.1L195.8,196.3z"/>
	</g>
</g>
<g id="Ebene_2">
</g>
</svg>
