<?xml version="1.0" encoding="utf-8"?>
<!-- Generator: Adobe Illustrator 16.0.3, SVG Export Plug-In . SVG Version: 6.00 Build 0)  -->
<!DOCTYPE svg PUBLIC "-//W3C//DTD SVG 1.1//EN" "http://www.w3.org/Graphics/SVG/1.1/DTD/svg11.dtd" [
	<!ENTITY ns_extend "http://ns.adobe.com/Extensibility/1.0/">
	<!ENTITY ns_ai "http://ns.adobe.com/AdobeIllustrator/10.0/">
	<!ENTITY ns_graphs "http://ns.adobe.com/Graphs/1.0/">
	<!ENTITY ns_vars "http://ns.adobe.com/Variables/1.0/">
	<!ENTITY ns_imrep "http://ns.adobe.com/ImageReplacement/1.0/">
	<!ENTITY ns_sfw "http://ns.adobe.com/SaveForWeb/1.0/">
	<!ENTITY ns_custom "http://ns.adobe.com/GenericCustomNamespace/1.0/">
	<!ENTITY ns_adobe_xpath "http://ns.adobe.com/XPath/1.0/">
]>
<svg version="1.1" xmlns:x="&ns_extend;" xmlns:i="&ns_ai;" xmlns:graph="&ns_graphs;"
	 xmlns="http://www.w3.org/2000/svg" xmlns:xlink="http://www.w3.org/1999/xlink" x="0px" y="0px" width="300px" height="300px"
	 viewBox="0 0 300 300" style="enable-background:new 0 0 300 300;" xml:space="preserve">
<style type="text/css">
<![CDATA[
	.st0{fill:#B74F90;}
	.st1{fill:#FCFAFA;}
	.st2{display:none;fill:none;}
	.st3{fill:#FFFFFF;}
	.st4{fill:none;}
	.st5{fill-rule:evenodd;clip-rule:evenodd;fill:#FFFFFF;}
	.st6{fill:#080828;}
]]>
</style>
<metadata>
	<sfw  xmlns="&ns_sfw;">
		<slices></slices>
		<sliceSourceBounds  width="16383" height="16383" x="-8041" y="-8342" bottomLeftOrigin="true"></sliceSourceBounds>
		<optimizationSettings>
			<targetSettings  targetSettingsID="0" fileFormat="PNG24Format">
				<PNG24Format  transparency="true" noMatteColor="false" interlaced="false" matteColor="#FFFFFF" filtered="false">
					</PNG24Format>
			</targetSettings>
		</optimizationSettings>
	</sfw>
</metadata>
<symbol  id="blue" viewBox="-150 -150 300 300">
	<path class="st0" d="M150-97c0-6.8,0-53-71.5-53H-84c-62.5,0-66,47.2-66,54V90c0,54.5,59.2,60,66,60l161.5,0c6.8,0,72.5,0,72.5-60
		V-97z"/>
	<polygon class="st2" points="-150,150 150,150 150,-150 -150,-150 	"/>
</symbol>
<g id="Background">
	
		<use xlink:href="#blue"  width="300" height="300" id="XMLID_1_" x="-150" y="-150" transform="matrix(1 0 0 -1 150 150)" style="overflow:visible;"/>
</g>
<g id="Text">
	<g>
		<rect x="30.3" y="223.5" class="st4" width="282.7" height="84.5"/>
		<path class="st3" d="M40.2,248.4l-2.8,9.2h-6.1l10.4-32.4h7.5l10.5,32.4h-6.3l-2.9-9.2H40.2z M49.5,243.9l-2.5-8
			c-0.6-2-1.2-4.2-1.6-6h-0.1c-0.5,1.9-1,4.1-1.5,6l-2.5,8H49.5z"/>
		<path class="st3" d="M84.3,250.6c0,2.8,0.1,5.1,0.2,7h-5.2L79,254h-0.1c-1,1.7-3.3,4.1-7.5,4.1c-4.3,0-8.2-2.5-8.2-10.2v-13.7h5.9
			v12.7c0,3.9,1.2,6.4,4.4,6.4c2.4,0,3.9-1.7,4.5-3.2c0.2-0.5,0.3-1.2,0.3-1.8v-14.1h5.9V250.6z"/>
		<path class="st3" d="M112,234.2c-0.1,1.6-0.2,3.5-0.2,6.7v13.2c0,4.9-1,8.4-3.5,10.6c-2.4,2.2-5.8,2.8-9,2.8c-3,0-6.1-0.6-8.2-1.9
			l1.3-4.5c1.5,0.9,4,1.8,6.8,1.8c3.8,0,6.7-2,6.7-7.1v-2h-0.1c-1.3,2.1-3.7,3.5-6.8,3.5c-5.8,0-9.9-4.8-9.9-11.4
			c0-7.7,5-12.3,10.6-12.3c3.6,0,5.7,1.7,6.8,3.6h0.1l0.2-3.1H112z M105.9,243.6c0-0.5,0-1.1-0.2-1.6c-0.6-2.2-2.3-3.8-4.8-3.8
			c-3.3,0-5.8,2.9-5.8,7.6c0,4,2,7.2,5.7,7.2c2.2,0,4.1-1.4,4.8-3.6c0.1-0.6,0.2-1.4,0.2-2.1V243.6z"/>
		<path class="st3" d="M122.3,247.5c0.1,4.2,3.5,6,7.2,6c2.7,0,4.7-0.4,6.5-1.1l0.9,4.1c-2,0.8-4.8,1.4-8.2,1.4
			c-7.6,0-12-4.7-12-11.8c0-6.5,3.9-12.6,11.4-12.6c7.6,0,10.1,6.2,10.1,11.4c0,1.1-0.1,2-0.2,2.5H122.3z M132.6,243.4
			c0-2.2-0.9-5.7-4.8-5.7c-3.6,0-5.2,3.3-5.4,5.7H132.6z"/>
		<path class="st3" d="M142.9,241.2c0-2.7,0-4.9-0.2-7h5.2l0.3,3.5h0.1c1-1.8,3.6-4,7.4-4c4.1,0,8.3,2.6,8.3,10v13.9h-5.9v-13.2
			c0-3.4-1.2-5.9-4.5-5.9c-2.4,0-4,1.7-4.6,3.5c-0.2,0.5-0.2,1.2-0.2,1.9v13.7h-6V241.2z"/>
		<path class="st3" d="M170.4,223.5h6v13.9h0.1c0.7-1.1,1.7-2,2.9-2.7c1.2-0.7,2.5-1.1,4-1.1c4,0,8.2,2.6,8.2,10.1v13.8h-5.9v-13.1
			c0-3.4-1.2-6-4.5-6c-2.3,0-3.9,1.5-4.6,3.3c-0.2,0.5-0.2,1.1-0.2,1.8v14h-6V223.5z"/>
		<path class="st3" d="M220.1,245.7c0,8.6-6,12.4-12,12.4c-6.6,0-11.7-4.6-11.7-12c0-7.7,5-12.4,12.1-12.4
			C215.4,233.7,220.1,238.6,220.1,245.7z M200.5,227.6c0-1.7,1.3-3,3-3c1.6,0,2.8,1.2,2.8,3c0,1.6-1.2,2.9-2.9,2.9
			C201.7,230.6,200.5,229.2,200.5,227.6z M202.5,245.9c0,4.5,2.2,7.9,5.8,7.9c3.4,0,5.7-3.3,5.7-8c0-3.6-1.6-7.8-5.7-7.8
			C204.1,238,202.5,242,202.5,245.9z M210.1,227.6c0-1.7,1.2-3,2.9-3c1.7,0,2.9,1.2,2.9,3c0,1.6-1.2,2.9-2.9,2.9
			C211.3,230.6,210.1,229.2,210.1,227.6z"/>
		<path class="st3" d="M224.9,223.5h6v13.9h0.1c0.7-1.1,1.7-2,2.9-2.7c1.2-0.7,2.5-1.1,4-1.1c4,0,8.2,2.6,8.2,10.1v13.8h-5.9v-13.1
			c0-3.4-1.2-6-4.5-6c-2.3,0-3.9,1.5-4.6,3.3c-0.2,0.5-0.2,1.1-0.2,1.8v14h-6V223.5z"/>
		<path class="st3" d="M256.6,247.5c0.1,4.2,3.5,6,7.2,6c2.7,0,4.7-0.4,6.5-1.1l0.9,4.1c-2,0.8-4.8,1.4-8.2,1.4
			c-7.6,0-12-4.7-12-11.8c0-6.5,3.9-12.6,11.4-12.6c7.6,0,10.1,6.2,10.1,11.4c0,1.1-0.1,2-0.2,2.5H256.6z M266.8,243.4
			c0-2.2-0.9-5.7-4.8-5.7c-3.6,0-5.2,3.3-5.4,5.7H266.8z"/>
	</g>
</g>
<g id="icon">
	<path class="st6" d="M166.3,29.2l0,25.5c0,0-6.9-2.6-9.7-6.3l-3.6,0l-7.3,6.6c0,0-1.6,2.5-8,1.9l-30.5,0.1c0,0-7.3,0.1-8.3-8.9
		l0-14.5c0,0,1.7-6.6,8.6-7.4l30-0.1c0,0,6-0.1,8,2.1l7.7,7l3.7,0C156.6,35,158.6,31.3,166.3,29.2z"/>
	<line class="st4" x1="39" y1="19" x2="269" y2="19"/>
	<g id="mann_x5F_koffer_x5F_sanpshot_x5F_sw_1_">
		<g>
			<path class="st5" d="M210.7,205.3c-0.1-3.1,3-4.8,5.8-5.3c5.3-1,8.5-4.8,8.5-10.1c0-5,0-10,0-15c0-4-0.2-4.1-4.2-4.1
				c-3.6,0-7.2,0-11,0c-0.1-2.2-0.4-4.4-0.4-6.6c-0.2-8.3-0.4-16.6-0.5-24.9c0-2.6,1.9-4.4,4.4-4.5c1.3,0,2.5-0.2,4.4-0.3
				c-0.6-2.5-1-4.9-1.8-7.1c-0.2-0.5-1.5-0.7-2.6-1.1c-0.2-0.9-0.5-2.2-0.8-3.4c-1.2,0-2.3,0-3.8,0c0.2-3.5,0.3-6.9,0.6-10.3
				c0.7-6.2,1.5-12.4,2.2-18.7c0.9-7.6,1.8-15.3,2.9-22.9c0.3-1.6,1.4-3.3,2.5-4.6c1.3-1.6,2.7-3.1,2.3-5.4
				c-0.1-0.6,0.6-1.4,0.8-2.1c0.4-1.2,0.9-2.5,1-3.8c0.1-1.5-0.6-2.4-2.5-2.3c-3.1,0.1-3.2-0.2-3.9-3.4c-0.3-1.5-1.4-2.9-2-4.4
				c-0.2-0.5-0.2-1.2-0.1-1.8c0.4-3,1.4-6.1,1.8-9.1c0.1-0.6-0.9-1.2-1.2-1.8c-1.6-2.4-1-4.2,1.7-4.8c3.7-0.9,7.4-1.7,11.1-2.3
				c2.3-0.4,4.2,0.9,5.6,2.6c4.4,5.1,5.7,10.8,2.7,17.1c-1.1,2.2-0.9,3.9,0.8,5.6c1,1,1.8,2,2.8,2.9c7.8,6.8,9.7,15.5,8.3,25.2
				c-1.1,7.5-2.4,14.8-1.8,22.5c0.7,8.1,0.1,16.2,0.1,24.6c-1.3,0.1-2.4,0.2-3.9,0.3c0.2,2.8,0.4,5.4,0.6,8.5c1,0,1.9,0,2.8,0
				c3.6,0,7.2,0,10.8,0c3.2,0,5,1.8,5.1,4.9c0.1,9.3,0.3,18.5,0.5,27.8c0,0.9,0,1.7,0,2.7c-5.3,0.3-10.5,0.5-15.8,0.8
				c0.2,1.6,0.4,3.2,0.4,4.8c-0.1,6.7-0.2,13.4-0.5,20c0,0.8-1,1.7-2,2.3c0.2,1.2,0.4,2.5,0.6,3.7c0.4,2.9-0.4,4.2-3.3,4.4
				c-3,0.2-6.1-0.1-9.1,0c-1.5,0.1-2.9,0.6-4.4,0.8C221,207.2,215.8,206.2,210.7,205.3z"/>
		</g>
	</g>
	<g>
		<path class="st1" d="M175.7,39l20.3-0.3l-0.1-5.1c0.1-0.1,0.2,0,0.3,0.1l7.6,6.8c0.1,0.1,0.1,0.2,0,0.2l-7.3,7.1
			c-0.1,0.1-0.2,0-0.3-0.1L196,43l-20.3,0.3L175.7,39z"/>
	</g>
</g>
</svg>
