<?xml version="1.0" encoding="utf-8"?>
<!-- Generator: Adobe Illustrator 16.0.3, SVG Export Plug-In . SVG Version: 6.00 Build 0)  -->
<!DOCTYPE svg PUBLIC "-//W3C//DTD SVG 1.1//EN" "http://www.w3.org/Graphics/SVG/1.1/DTD/svg11.dtd" [
	<!ENTITY ns_extend "http://ns.adobe.com/Extensibility/1.0/">
	<!ENTITY ns_ai "http://ns.adobe.com/AdobeIllustrator/10.0/">
	<!ENTITY ns_graphs "http://ns.adobe.com/Graphs/1.0/">
	<!ENTITY ns_vars "http://ns.adobe.com/Variables/1.0/">
	<!ENTITY ns_imrep "http://ns.adobe.com/ImageReplacement/1.0/">
	<!ENTITY ns_sfw "http://ns.adobe.com/SaveForWeb/1.0/">
	<!ENTITY ns_custom "http://ns.adobe.com/GenericCustomNamespace/1.0/">
	<!ENTITY ns_adobe_xpath "http://ns.adobe.com/XPath/1.0/">
]>
<svg version="1.1" id="Ebene_1" xmlns:x="&ns_extend;" xmlns:i="&ns_ai;" xmlns:graph="&ns_graphs;"
	 xmlns="http://www.w3.org/2000/svg" xmlns:xlink="http://www.w3.org/1999/xlink" x="0px" y="0px" width="290.9px" height="290.9px"
	 viewBox="0 0 290.9 290.9" style="enable-background:new 0 0 290.9 290.9;" xml:space="preserve">
<style type="text/css">
<![CDATA[
	.st0{display:none;fill:#FFFFFF;}
	.st1{fill:#B74F90;}
	.st2{fill:#FCFBFB;}
	.st3{fill:#FEFDFD;}
	.st4{fill:#FFFFFF;}
	.st5{fill:#030404;}
	.st6{fill:#3D3B3D;}
]]>
</style>
<metadata>
	<sfw  xmlns="&ns_sfw;">
		<slices></slices>
		<sliceSourceBounds  width="290.9" height="290.9" x="-21.5" y="12" bottomLeftOrigin="true"></sliceSourceBounds>
	</sfw>
</metadata>
<path class="st1" d="M254.4,290.9H36.5C16.4,290.9,0,274.5,0,254.4V36.5C0,16.4,16.4,0,36.5,0h217.9c20.1,0,36.5,16.4,36.5,36.5
	v217.9C290.9,274.5,274.5,290.9,254.4,290.9z"/>
<g>
	<path class="st4" d="M117.6,240.1h-9v-4.8h23.9v4.8h-9.1V267h-5.8V240.1z"/>
	<path class="st4" d="M154.1,255.3c0,8.4-5.9,12.2-11.7,12.2c-6.5,0-11.5-4.5-11.5-11.8c0-7.5,4.9-12.1,11.8-12.1
		C149.6,243.6,154.1,248.4,154.1,255.3z M136.9,255.6c0,4.4,2.2,7.8,5.7,7.8c3.3,0,5.6-3.2,5.6-7.8c0-3.6-1.6-7.7-5.5-7.7
		C138.5,247.8,136.9,251.7,136.9,255.6z"/>
	<path class="st4" d="M158.9,250.9c0-2.6,0-4.8-0.2-6.8h5.1l0.3,3.4h0.1c1-1.8,3.5-3.9,7.3-3.9c4,0,8.1,2.6,8.1,9.8V267h-5.8v-12.9
		c0-3.3-1.2-5.8-4.4-5.8c-2.3,0-3.9,1.6-4.5,3.4c-0.2,0.5-0.2,1.2-0.2,1.9V267h-5.8V250.9z"/>
</g>
<path class="st0" d="M160.4,143.4c0.7-2.4,6.6-0.9,12.9-3.5c1.8-0.7,0.2,0.5,9.7-8.9c9.4-13.6,18.7-41,21.4-40.9
	c6.6,0.1,8.7,41.8,1.4,46.5c-1.9,1.2-8.1,5.8-12.8,8.7c-3.9,2.4-4.3,2.8-6.2,3.5c-5.9,2.2-17.3,6.1-23,2.9
	C161.5,150.4,159.9,145.1,160.4,143.4z"/>
<g>
	<path class="st4" d="M73.6,211.5c0,10.6-6.4,16.6-15.1,16.6c-8.9,0-14.5-6.8-14.5-16.1c0-9.7,6.1-16.5,15-16.5
		C68.1,195.5,73.6,202.5,73.6,211.5z M50,211.9c0,6.4,3.2,11.5,8.8,11.5c5.6,0,8.7-5.1,8.7-11.7c0-5.9-2.9-11.6-8.7-11.6
		C53.1,200.1,50,205.4,50,211.9z"/>
	<path class="st4" d="M78.4,211.6c0-2.6,0-4.8-0.2-6.8h5.1l0.3,3.4h0.1c1-1.8,3.5-3.9,7.3-3.9c4,0,8.1,2.6,8.1,9.8v13.5h-5.8v-12.9
		c0-3.3-1.2-5.8-4.4-5.8c-2.3,0-3.9,1.6-4.5,3.4c-0.2,0.5-0.2,1.2-0.2,1.9v13.4h-5.8V211.6z"/>
	<path class="st4" d="M104.9,222.3c1.3,0.8,3.8,1.6,5.8,1.6c2.5,0,3.7-1,3.7-2.5c0-1.5-0.9-2.3-3.7-3.3c-4.4-1.5-6.3-4-6.3-6.6
		c0-4,3.3-7.2,8.6-7.2c2.5,0,4.7,0.7,6,1.4l-1.1,4.1c-1-0.6-2.8-1.3-4.8-1.3c-2.1,0-3.2,1-3.2,2.4c0,1.5,1.1,2.2,4,3.2
		c4.1,1.5,6,3.6,6.1,7c0,4.1-3.2,7.1-9.3,7.1c-2.8,0-5.2-0.7-6.9-1.6L104.9,222.3z"/>
	<path class="st4" d="M141.5,226.9c-1.2,0.6-3.6,1.2-6.5,1.2c-7.1,0-11.7-4.5-11.7-11.6c0-6.8,4.7-12.2,12.7-12.2
		c2.1,0,4.3,0.5,5.6,1.1l-1,4.3c-0.9-0.4-2.3-0.9-4.4-0.9c-4.4,0-7,3.2-7,7.4c0,4.7,3,7.3,7,7.3c2,0,3.4-0.4,4.5-0.9L141.5,226.9z"
		/>
	<path class="st4" d="M145.7,212.1c0-3.1,0-5.3-0.2-7.3h5l0.2,4.4h0.2c1.1-3.2,3.8-4.9,6.2-4.9c0.6,0,0.9,0,1.4,0.1v5.4
		c-0.5-0.1-1-0.2-1.7-0.2c-2.8,0-4.6,1.8-5.1,4.4c-0.1,0.5-0.2,1.1-0.2,1.8v11.8h-5.8V212.1z"/>
	<path class="st4" d="M166,217.8c0.1,4.1,3.4,5.9,7,5.9c2.7,0,4.6-0.4,6.3-1l0.8,4c-2,0.8-4.7,1.4-8,1.4c-7.4,0-11.7-4.5-11.7-11.5
		c0-6.3,3.8-12.3,11.1-12.3c7.4,0,9.8,6.1,9.8,11.1c0,1.1-0.1,1.9-0.2,2.4H166z M176,213.8c0-2.1-0.9-5.6-4.7-5.6
		c-3.6,0-5.1,3.2-5.3,5.6H176z"/>
	<path class="st4" d="M190.2,217.8c0.1,4.1,3.4,5.9,7,5.9c2.7,0,4.6-0.4,6.3-1l0.8,4c-2,0.8-4.7,1.4-8,1.4
		c-7.4,0-11.7-4.5-11.7-11.5c0-6.3,3.8-12.3,11.1-12.3c7.4,0,9.8,6.1,9.8,11.1c0,1.1-0.1,1.9-0.2,2.4H190.2z M200.2,213.8
		c0-2.1-0.9-5.6-4.7-5.6c-3.6,0-5.1,3.2-5.3,5.6H200.2z"/>
	<path class="st4" d="M210.2,211.6c0-2.6,0-4.8-0.2-6.8h5.1l0.3,3.4h0.1c1-1.8,3.5-3.9,7.3-3.9c4,0,8.1,2.6,8.1,9.8v13.5h-5.8v-12.9
		c0-3.3-1.2-5.8-4.4-5.8c-2.3,0-3.9,1.6-4.5,3.4c-0.2,0.5-0.2,1.2-0.2,1.9v13.4h-5.8V211.6z"/>
	<path class="st4" d="M247.2,213.1v4h-11.9v-4H247.2z"/>
</g>
<g>
	<path class="st5" d="M147.1,31.3c27.1,0,54.2,0,81.3,0c9,0,13.4,4.1,13.4,13.3c0.1,32,0.1,64,0,96.1c0,8.9-3.9,13.5-13.1,15.5
		c-14.5,3.3-29.3,3.2-43.9,3.3c-32.4,0.3-64.8,0.6-97.2-1.1c-8.4-0.4-16.8-1-25.1-3.2c-6.6-1.8-10.3-5.7-10.3-12.5
		c-0.1-33.4-0.1-66.8,0-100.2c0-7.3,4.6-11.2,12.3-11.2C92.1,31.3,119.6,31.3,147.1,31.3z"/>
	<path class="st2" d="M90.5,103c-10.2-0.2-20.4,0-30.6,0c0-17.1-0.1-34.2,0-51.3c0-10.5,3.9-14.3,14.1-14.3c48.9,0,97.8,0,146.7,0
		c9.7,0,13.1,3.3,13,13.1c0,17.5-0.1,35-0.2,52.4c-14.7,0-29.5-0.2-44.2,0.1c-6.4,0.1-12.7,0.8-13.3-8.4c-0.7,1.9-1.3,3.7-2.5,6.9
		c-1.7-5.3-3-9.2-4.8-14.6c-1.5,5.1-2.5,8.6-3.7,12.1c-0.5,1.4-0.5,3.6-2.5,3.5c-2.8-0.1-1.8-2.6-1.9-4.1
		c-1.3-11.2-2.4-22.3-3.6-33.5c-3.2,10.5-2.6,21.5-6.1,31.7c-1.4-14.3-2.2-28.6-3.2-42.8c-0.1-1.5,0.8-4.3-1.8-4.2
		c-2.4,0.1-1.6,2.7-1.7,4.3c-0.9,12.9-1.6,25.8-2.4,38.8c-0.1,1.1,0.8,2.9-1.4,3.1c-1-0.8-0.7-1.8-0.8-2.7
		c-0.8-16.1-1.6-32.1-2.4-48.2c-0.1-1.6,0.8-4.2-1.8-4.2c-2.5,0.1-1.5,2.7-1.6,4.3c-1,15.9-1.8,31.7-2.8,47.6
		c-0.2,3.3,0.5,6.9-2.4,10.6c-1.7-4.8-3-8.7-4.6-13.2c-3.9,4.3-5.5,9.1-12.8,9.8"/>
	<path class="st3" d="M146.2,144c-23.5,0-47.1,0-70.6-0.1c-11.3,0-15.5-4.1-15.7-15.6c-0.1-7.3,0-14.5,0-21.8
		c20.9-0.1,41.8-0.1,62.8-0.3c2.7,0,3.8,1.1,4.5,3.5c1,3.6,2.2,7.2,3.6,11.4c2.9-3.9,1.4-7.9,2.2-11.4c0.3-1.4,0.1-3.4,2.4-3.3
		c2.5,0.1,1.8,2.2,1.9,3.5c0.5,8.8,0.9,17.6,1.4,26.4c0.1,1.4-0.5,3.6,1.9,3.4c2-0.1,1.4-2.1,1.5-3.3c0.6-8.4,1.1-16.8,1.8-25.2
		c0.1-1.7-0.9-4.5,1.9-4.7c3.1-0.2,2,2.7,2.2,4.4c0.4,2.9,0.6,5.8,0.8,8.8c0.1,1.3-0.1,3.2,1.8,3.1c1.8-0.1,1.6-1.9,1.8-3.2
		c0.4-3.1,0.8-6.2,1.2-9.3c0.2-1.6-0.4-3.7,2.4-3.9c2.8-0.1,2.3,2,2.5,3.6c0.4,3.4,0.8,6.9,1.3,10.7c3.9-2.5,3.4-6.7,4.8-9.9
		c0.9-2,0.7-4.7,4.2-4.6c3,0.1,3.3,2.1,3.9,4.3c0.2,0.9,0.8,1.7,1.3,2.7c1.6-1.9,0.7-4.6,2.7-6.2c1.1,1.2,0.4,3.4,2.6,3.9
		c1.1-2.8,2.3-4.9,6.1-4.8c16.1,0.3,32.2,0.2,48.3,0.3c0,8,0.2,16.1,0.1,24.1c0,9.3-4,13.2-13.2,13.2c-24.1,0.1-48.3,0-72.5,0.1
		C147.5,144,146.8,144,146.2,144z"/>
	<path class="st6" d="M135.8,75.8c-0.3,0.1-0.6,0.1-0.9,0.2c-0.4,7.7-0.9,15.5-1.3,23.2c-0.1,1.4-0.8,3.5,1.6,3.7
		c3,0.2,2-2.3,1.9-3.8C136.7,91.3,136.2,83.6,135.8,75.8z M146.4,81.6c-0.3,0-0.6,0-0.9,0c-0.4,6.2-0.9,12.4-1.3,18.6
		c-0.1,1.3-0.2,3,1.9,2.8c1.6-0.1,1.6-1.4,1.6-2.6C147.3,94.1,146.8,87.8,146.4,81.6z M156,92.9c-1.4,3.2-1.8,6.4-0.6,9.7
		c0.1,0.1,1.3,0.1,1.4-0.1C158.3,99.2,157.3,96.1,156,92.9z M122.7,97c-1.3,2.3-3.9,3.3-2.6,5.8c0.3,0.5,2.5,0.6,3.2,0.1
		C125.7,101.2,123.9,99.6,122.7,97z"/>
	<path class="st4" d="M135.8,75.8c0.4,7.8,0.9,15.5,1.2,23.3c0.1,1.5,1.1,4-1.9,3.8c-2.3-0.1-1.7-2.2-1.6-3.7
		c0.4-7.8,0.9-15.5,1.3-23.2C135.1,75.9,135.4,75.9,135.8,75.8z"/>
	<path class="st4" d="M146.4,81.6c0.4,6.3,0.9,12.5,1.3,18.8c0.1,1.1,0.1,2.5-1.6,2.6c-2.1,0.1-2-1.5-1.9-2.8
		c0.4-6.2,0.8-12.4,1.3-18.6C145.8,81.6,146.1,81.6,146.4,81.6z"/>
	<path class="st4" d="M156,92.9c1.3,3.1,2.3,6.3,0.8,9.6c-0.1,0.2-1.4,0.2-1.4,0.1C154.2,99.3,154.6,96.1,156,92.9z"/>
	<path class="st4" d="M122.7,97c1.2,2.6,2.9,4.2,0.6,5.8c-0.8,0.5-3,0.4-3.2-0.1C118.8,100.3,121.4,99.3,122.7,97z"/>
</g>
</svg>
