<?xml version="1.0" encoding="utf-8"?>
<!-- Generator: Adobe Illustrator 16.0.3, SVG Export Plug-In . SVG Version: 6.00 Build 0)  -->
<!DOCTYPE svg PUBLIC "-//W3C//DTD SVG 1.1//EN" "http://www.w3.org/Graphics/SVG/1.1/DTD/svg11.dtd" [
	<!ENTITY ns_extend "http://ns.adobe.com/Extensibility/1.0/">
	<!ENTITY ns_ai "http://ns.adobe.com/AdobeIllustrator/10.0/">
	<!ENTITY ns_graphs "http://ns.adobe.com/Graphs/1.0/">
	<!ENTITY ns_vars "http://ns.adobe.com/Variables/1.0/">
	<!ENTITY ns_imrep "http://ns.adobe.com/ImageReplacement/1.0/">
	<!ENTITY ns_sfw "http://ns.adobe.com/SaveForWeb/1.0/">
	<!ENTITY ns_custom "http://ns.adobe.com/GenericCustomNamespace/1.0/">
	<!ENTITY ns_adobe_xpath "http://ns.adobe.com/XPath/1.0/">
]>
<svg version="1.1" xmlns:x="&ns_extend;" xmlns:i="&ns_ai;" xmlns:graph="&ns_graphs;"
	 xmlns="http://www.w3.org/2000/svg" xmlns:xlink="http://www.w3.org/1999/xlink" x="0px" y="0px" width="300px" height="300px"
	 viewBox="0 0 300 300" style="enable-background:new 0 0 300 300;" xml:space="preserve">
<style type="text/css">
<![CDATA[
	.st0{fill:#B74F90;}
	.st1{fill:#F9F7F8;}
	.st2{display:none;fill:none;}
	.st3{fill:#FFFFFF;}
	.st4{fill:none;}
	.st5{fill-rule:evenodd;clip-rule:evenodd;fill:#FFFFFF;}
	.st6{fill:#080828;}
	.st7{fill:none;stroke:#FFFFFF;stroke-width:2.9391;stroke-miterlimit:10;stroke-dasharray:11.7565,3.9188;}
]]>
</style>
<metadata>
	<sfw  xmlns="&ns_sfw;">
		<slices></slices>
		<sliceSourceBounds  width="16383" height="16383" x="-8041" y="-8342" bottomLeftOrigin="true"></sliceSourceBounds>
		<optimizationSettings>
			<targetSettings  targetSettingsID="0" fileFormat="PNG24Format">
				<PNG24Format  transparency="true" noMatteColor="false" interlaced="false" matteColor="#FFFFFF" filtered="false">
					</PNG24Format>
			</targetSettings>
		</optimizationSettings>
	</sfw>
</metadata>
<symbol  id="blue" viewBox="-150 -150 300 300">
	<path class="st0" d="M150-97c0-6.8,0-53-71.5-53H-84c-62.5,0-66,47.2-66,54V90c0,54.5,59.2,60,66,60l161.5,0c6.8,0,72.5,0,72.5-60
		V-97z"/>
	<polygon class="st2" points="-150,150 150,150 150,-150 -150,-150 	"/>
</symbol>
<g id="Background">
	
		<use xlink:href="#blue"  width="300" height="300" id="XMLID_1_" x="-150" y="-150" transform="matrix(1 0 0 -1 150 150)" style="overflow:visible;"/>
</g>
<g id="Text">
	<g>
		<rect x="28.7" y="199.2" class="st4" width="260" height="118.5"/>
		<path class="st1" d="M102.6,233.2l-10.5-32.4h6.4l4.4,14.7c1.2,4.1,2.3,7.9,3.2,11.8h0.1c0.9-3.8,2-7.8,3.3-11.7l4.7-14.8h6.3
			l-11.2,32.4H102.6z"/>
		<path class="st1" d="M144.2,221.3c0,8.6-6,12.4-12,12.4c-6.6,0-11.7-4.6-11.7-12c0-7.7,5-12.4,12.1-12.4
			C139.5,209.3,144.2,214.2,144.2,221.3z M126.6,221.6c0,4.5,2.2,7.9,5.8,7.9c3.4,0,5.7-3.3,5.7-8c0-3.6-1.6-7.8-5.7-7.8
			C128.2,213.7,126.6,217.7,126.6,221.6z"/>
		<path class="st1" d="M170.4,209.9c-0.1,1.6-0.2,3.5-0.2,6.7v13.2c0,4.9-1,8.4-3.5,10.6c-2.4,2.2-5.8,2.8-9,2.8
			c-3,0-6.1-0.6-8.2-1.9l1.3-4.5c1.5,0.9,4,1.8,6.8,1.8c3.8,0,6.7-2,6.7-7.1v-2h-0.1c-1.3,2.1-3.7,3.5-6.8,3.5
			c-5.8,0-9.9-4.8-9.9-11.4c0-7.7,5-12.3,10.6-12.3c3.6,0,5.7,1.7,6.8,3.6h0.1l0.2-3.1H170.4z M164.3,219.2c0-0.5,0-1.1-0.2-1.6
			c-0.6-2.2-2.3-3.8-4.8-3.8c-3.3,0-5.8,2.9-5.8,7.6c0,4,2,7.2,5.7,7.2c2.2,0,4.1-1.4,4.8-3.6c0.1-0.6,0.2-1.4,0.2-2.1V219.2z"/>
		<path class="st1" d="M180.7,223.2c0.1,4.2,3.5,6,7.2,6c2.7,0,4.7-0.4,6.5-1.1l0.9,4.1c-2,0.8-4.8,1.4-8.2,1.4
			c-7.6,0-12-4.7-12-11.8c0-6.5,3.9-12.6,11.4-12.6c7.6,0,10.1,6.2,10.1,11.4c0,1.1-0.1,2-0.2,2.5H180.7z M191,219.1
			c0-2.2-0.9-5.7-4.8-5.7c-3.6,0-5.2,3.3-5.4,5.7H191z"/>
		<path class="st1" d="M201.3,199.2h6v34.1h-6V199.2z"/>
		<path class="st1" d="M224.1,218.4v4.1h-12.2v-4.1H224.1z"/>
		<path class="st1" d="M39.4,265.6c0-3.1-0.1-5.6-0.2-7.8h5.2l0.3,3.6h0.1c1.7-2.6,4.5-4.1,8-4.1c5.4,0,9.8,4.6,9.8,11.9
			c0,8.4-5.3,12.5-10.7,12.5c-2.9,0-5.4-1.2-6.6-3.1h-0.1v12.1h-5.9V265.6z M45.3,271.5c0,0.6,0,1.1,0.2,1.6
			c0.6,2.4,2.7,4.1,5.2,4.1c3.7,0,6-3.1,6-7.7c0-4.1-2-7.5-5.8-7.5c-2.4,0-4.7,1.8-5.3,4.4c-0.1,0.5-0.2,1-0.2,1.5V271.5z"/>
		<path class="st1" d="M71.6,271.2c0.1,4.2,3.5,6,7.2,6c2.7,0,4.7-0.4,6.5-1.1l0.9,4.1c-2,0.8-4.8,1.4-8.2,1.4
			c-7.6,0-12-4.7-12-11.8c0-6.5,3.9-12.6,11.4-12.6c7.6,0,10.1,6.2,10.1,11.4c0,1.1-0.1,2-0.2,2.5H71.6z M81.9,267.1
			c0-2.2-0.9-5.7-4.8-5.7c-3.6,0-5.2,3.3-5.4,5.7H81.9z"/>
		<path class="st1" d="M92.2,265.4c0-3.2,0-5.4-0.2-7.5h5.1l0.2,4.5h0.2c1.2-3.3,3.9-5,6.4-5c0.6,0,0.9,0,1.4,0.1v5.6
			c-0.5-0.1-1-0.2-1.7-0.2c-2.8,0-4.8,1.8-5.3,4.5c-0.1,0.5-0.2,1.2-0.2,1.8v12.1h-5.9V265.4z"/>
		<path class="st1" d="M109,275.8c1.3,0.8,3.9,1.7,6,1.7c2.6,0,3.7-1.1,3.7-2.6c0-1.6-1-2.4-3.8-3.4c-4.6-1.6-6.5-4.1-6.4-6.8
			c0-4.1,3.4-7.3,8.8-7.3c2.6,0,4.8,0.7,6.2,1.4l-1.2,4.2c-1-0.6-2.9-1.3-4.9-1.3c-2.1,0-3.3,1-3.3,2.4c0,1.5,1.1,2.2,4.1,3.3
			c4.2,1.5,6.2,3.7,6.2,7.2c0,4.2-3.3,7.3-9.5,7.3c-2.8,0-5.4-0.7-7.1-1.6L109,275.8z"/>
		<path class="st1" d="M129.3,265.6c0-3.1-0.1-5.6-0.2-7.8h5.2l0.3,3.6h0.1c1.7-2.6,4.5-4.1,8-4.1c5.4,0,9.8,4.6,9.8,11.9
			c0,8.4-5.3,12.5-10.7,12.5c-2.9,0-5.4-1.2-6.6-3.1h-0.1v12.1h-5.9V265.6z M135.2,271.5c0,0.6,0,1.1,0.2,1.6
			c0.6,2.4,2.7,4.1,5.2,4.1c3.7,0,6-3.1,6-7.7c0-4.1-2-7.5-5.8-7.5c-2.4,0-4.7,1.8-5.3,4.4c-0.1,0.5-0.2,1-0.2,1.5V271.5z"/>
		<path class="st1" d="M161.6,271.2c0.1,4.2,3.5,6,7.2,6c2.7,0,4.7-0.4,6.5-1.1l0.9,4.1c-2,0.8-4.8,1.4-8.2,1.4
			c-7.6,0-12-4.7-12-11.8c0-6.5,3.9-12.6,11.4-12.6c7.6,0,10.1,6.2,10.1,11.4c0,1.1-0.1,2-0.2,2.5H161.6z M171.9,267.1
			c0-2.2-0.9-5.7-4.8-5.7c-3.6,0-5.2,3.3-5.4,5.7H171.9z"/>
		<path class="st1" d="M188.1,268.1L188.1,268.1c0.7-0.9,1.3-1.9,2-2.7l5.7-7.5h7.1l-8.6,9.6l9.9,13.8h-7.2l-6.7-10.3l-2,2.4v8h-5.9
			v-34.1h5.9V268.1z"/>
		<path class="st1" d="M213.4,251.2v6.7h5.6v4.4h-5.6v10.3c0,2.8,0.8,4.3,3,4.3c1,0,1.8-0.1,2.3-0.3l0.1,4.5
			c-0.9,0.3-2.4,0.6-4.3,0.6c-2.2,0-4-0.7-5.1-1.9c-1.2-1.3-1.8-3.5-1.8-6.5v-11h-3.4v-4.4h3.4v-5.3L213.4,251.2z"/>
		<path class="st1" d="M229.8,251.3c0,1.8-1.3,3.2-3.4,3.2c-2,0-3.3-1.4-3.3-3.2c0-1.8,1.3-3.2,3.3-3.2
			C228.5,248.1,229.7,249.5,229.8,251.3z M223.5,281.2v-23.4h6v23.4H223.5z"/>
		<path class="st1" d="M239.5,257.9l3.8,11.9c0.7,2.1,1.2,3.9,1.6,5.9h0.1c0.4-1.9,1-3.7,1.6-5.9l3.7-11.9h6.2l-8.9,23.4h-5.8
			l-8.7-23.4H239.5z"/>
		<path class="st1" d="M263.7,271.2c0.1,4.2,3.5,6,7.2,6c2.7,0,4.7-0.4,6.5-1.1l0.9,4.1c-2,0.8-4.8,1.4-8.2,1.4
			c-7.6,0-12-4.7-12-11.8c0-6.5,3.9-12.6,11.4-12.6c7.6,0,10.1,6.2,10.1,11.4c0,1.1-0.1,2-0.2,2.5H263.7z M274,267.1
			c0-2.2-0.9-5.7-4.8-5.7c-3.6,0-5.2,3.3-5.4,5.7H274z"/>
	</g>
</g>
<g id="icon">
	<line class="st4" x1="42" y1="7" x2="267" y2="7"/>
	<g id="mann_x5F_koffer_x5F_sanpshot_x5F_sw_1_">
		<g>
			<path class="st5" d="M192,189.7c-0.1-2.4,2.3-3.6,4.4-4c4-0.8,6.4-3.6,6.4-7.7c0-3.8,0-7.6,0-11.4c0-3-0.2-3.1-3.2-3.1
				c-2.7,0-5.4,0-8.3,0c-0.1-1.7-0.3-3.3-0.3-5c-0.2-6.3-0.3-12.5-0.4-18.8c0-1.9,1.4-3.3,3.3-3.4c1,0,1.9-0.1,3.3-0.3
				c-0.5-1.9-0.8-3.7-1.4-5.4c-0.1-0.4-1.2-0.5-1.9-0.8c-0.2-0.7-0.4-1.6-0.6-2.6c-0.9,0-1.7,0-2.8,0c0.2-2.6,0.2-5.2,0.5-7.8
				c0.5-4.7,1.1-9.4,1.7-14.1c0.7-5.8,1.4-11.5,2.2-17.3c0.2-1.2,1.1-2.5,1.9-3.5c1-1.2,2.1-2.3,1.7-4.1c-0.1-0.5,0.5-1,0.6-1.6
				c0.3-0.9,0.7-1.9,0.8-2.8c0.1-1.2-0.5-1.8-1.9-1.7c-2.3,0.1-2.4-0.2-2.9-2.5c-0.3-1.2-1.1-2.2-1.5-3.3c-0.2-0.4-0.2-0.9-0.1-1.4
				c0.3-2.3,1.1-4.6,1.3-6.9c0.1-0.4-0.7-0.9-0.9-1.3c-1.2-1.8-0.7-3.2,1.3-3.7c2.8-0.6,5.6-1.3,8.4-1.7c1.8-0.3,3.1,0.7,4.2,1.9
				c3.3,3.9,4.3,8.2,2,12.9c-0.8,1.6-0.7,3,0.6,4.2c0.7,0.7,1.4,1.5,2.1,2.2c5.9,5.1,7.3,11.7,6.3,19.1c-0.8,5.6-1.8,11.2-1.3,17
				c0.5,6.1,0.1,12.3,0.1,18.6c-1,0.1-1.8,0.1-2.9,0.2c0.1,2.1,0.3,4.1,0.5,6.4c0.8,0,1.5,0,2.1,0c2.7,0,5.4,0,8.2,0
				c2.4,0,3.8,1.3,3.8,3.7c0.1,7,0.2,14,0.4,21c0,0.7,0,1.3,0,2.1c-4,0.2-7.9,0.4-11.9,0.6c0.1,1.2,0.3,2.4,0.3,3.6
				c-0.1,5.1-0.2,10.1-0.4,15.1c0,0.6-0.8,1.3-1.5,1.7c0.1,0.9,0.3,1.9,0.4,2.8c0.3,2.2-0.3,3.2-2.5,3.3c-2.3,0.2-4.6-0.1-6.9,0
				c-1.1,0-2.2,0.4-3.3,0.6C199.8,191.1,195.8,190.4,192,189.7z"/>
		</g>
	</g>
	<line class="st7" x1="66.5" y1="62.2" x2="186.5" y2="62.7"/>
	<g>
		<path class="st3" d="M197.4,30.5l2.8,15l3.8-0.7c0.1,0,0,0.2,0,0.2l-4.1,6.6c0,0.1-0.1,0.1-0.2,0l-6.2-4.5c-0.1,0,0-0.2,0-0.2
			l3.5-0.7l-2.8-15L197.4,30.5z"/>
	</g>
	<path class="st6" d="M199,21.8l-0.5-2.7l4.2-6.6c1.3-1.8,0.5-6,0.5-6l-1-5.5h-23.7l1.7,9.6c0.4,4.9,2.5,5.6,2.5,5.6l5.8,4.6
		l0.5,2.7c-2.4,2.6-3.5,8-3.5,8l19-3.2C202,22.8,199,21.8,199,21.8z"/>
</g>
</svg>
