<?xml version="1.0" encoding="utf-8"?>
<!-- Generator: Adobe Illustrator 16.0.3, SVG Export Plug-In . SVG Version: 6.00 Build 0)  -->
<!DOCTYPE svg PUBLIC "-//W3C//DTD SVG 1.1//EN" "http://www.w3.org/Graphics/SVG/1.1/DTD/svg11.dtd" [
	<!ENTITY ns_extend "http://ns.adobe.com/Extensibility/1.0/">
	<!ENTITY ns_ai "http://ns.adobe.com/AdobeIllustrator/10.0/">
	<!ENTITY ns_graphs "http://ns.adobe.com/Graphs/1.0/">
	<!ENTITY ns_vars "http://ns.adobe.com/Variables/1.0/">
	<!ENTITY ns_imrep "http://ns.adobe.com/ImageReplacement/1.0/">
	<!ENTITY ns_sfw "http://ns.adobe.com/SaveForWeb/1.0/">
	<!ENTITY ns_custom "http://ns.adobe.com/GenericCustomNamespace/1.0/">
	<!ENTITY ns_adobe_xpath "http://ns.adobe.com/XPath/1.0/">
]>
<svg version="1.1" id="Ebene_1" xmlns:x="&ns_extend;" xmlns:i="&ns_ai;" xmlns:graph="&ns_graphs;"
	 xmlns="http://www.w3.org/2000/svg" xmlns:xlink="http://www.w3.org/1999/xlink" x="0px" y="0px" width="290.9px" height="290.9px"
	 viewBox="0 0 290.9 290.9" style="enable-background:new 0 0 290.9 290.9;" xml:space="preserve">
<style type="text/css">
<![CDATA[
	.st0{clip-path:url(#SVGID_2_);fill:#B74F90;}
	.st1{fill:#FFFFFF;}
	.st2{clip-path:url(#SVGID_4_);fill:none;stroke:#FFFFFF;stroke-width:12;stroke-miterlimit:10;}
	.st3{clip-path:url(#SVGID_4_);fill:#FFFFFF;}
]]>
</style>
<metadata>
	<sfw  xmlns="&ns_sfw;">
		<slices></slices>
		<sliceSourceBounds  width="290.9" height="290.9" x="0" y="0" bottomLeftOrigin="true"></sliceSourceBounds>
	</sfw>
</metadata>
<g>
	<defs>
		<rect id="SVGID_1_" width="290.9" height="290.9"/>
	</defs>
	<clipPath id="SVGID_2_">
		<use xlink:href="#SVGID_1_"  style="overflow:visible;"/>
	</clipPath>
	<path class="st0" d="M254.4,290.9H36.5C16.4,290.9,0,274.5,0,254.4V36.5C0,16.4,16.4,0,36.5,0h217.9c20.1,0,36.5,16.4,36.5,36.5
		v217.9C290.9,274.5,274.5,290.9,254.4,290.9"/>
</g>
<g>
	<path class="st1" d="M70.5,263.6l8.6-11c1.2-1.4,2.2-2.5,3.4-3.9v-0.1H71.3v-4.6h18.2v3.5l-8.4,10.8c-1.1,1.4-2.2,2.7-3.4,3.9v0.1
		h12.1v4.6H70.5V263.6z"/>
	<path class="st1" d="M115.2,255.3c0,8.4-5.9,12.2-11.7,12.2C97,267.5,92,263,92,255.7c0-7.5,4.9-12.1,11.8-12.1
		C110.7,243.6,115.2,248.4,115.2,255.3z M98,255.6c0,4.4,2.2,7.8,5.7,7.8c3.3,0,5.6-3.2,5.6-7.8c0-3.6-1.6-7.7-5.5-7.7
		C99.6,247.8,98,251.7,98,255.6z"/>
	<path class="st1" d="M141.7,255.3c0,8.4-5.9,12.2-11.7,12.2c-6.5,0-11.5-4.5-11.5-11.8c0-7.5,4.9-12.1,11.8-12.1
		C137.2,243.6,141.7,248.4,141.7,255.3z M124.5,255.6c0,4.4,2.2,7.8,5.7,7.8c3.3,0,5.6-3.2,5.6-7.8c0-3.6-1.6-7.7-5.5-7.7
		C126.1,247.8,124.5,251.7,124.5,255.6z"/>
	<path class="st1" d="M146.5,250.9c0-2.6,0-4.8-0.2-6.8h5l0.2,3.4h0.1c1.1-1.8,3.2-3.9,7-3.9c3,0,5.4,1.7,6.3,4.2h0.1
		c0.8-1.3,1.7-2.2,2.8-2.9c1.3-0.9,2.7-1.4,4.6-1.4c3.8,0,7.7,2.6,7.7,9.9V267h-5.6v-12.6c0-3.8-1.3-6.1-4.1-6.1c-2,0-3.4,1.4-4,3.1
		c-0.1,0.6-0.3,1.3-0.3,1.9V267h-5.6v-13.3c0-3.2-1.3-5.5-3.9-5.5c-2.2,0-3.6,1.7-4.1,3.3c-0.2,0.6-0.3,1.2-0.3,1.9V267h-5.6V250.9z
		"/>
	<path class="st1" d="M190.4,257.2c0.1,4.1,3.4,5.9,7,5.9c2.7,0,4.6-0.4,6.3-1l0.8,4c-2,0.8-4.7,1.4-8,1.4
		c-7.4,0-11.8-4.6-11.8-11.6c0-6.3,3.9-12.3,11.2-12.3c7.4,0,9.9,6.1,9.9,11.1c0,1.1-0.1,1.9-0.2,2.4H190.4z M200.5,253.1
		c0-2.1-0.9-5.6-4.7-5.6c-3.6,0-5.1,3.2-5.3,5.6H200.5z"/>
	<path class="st1" d="M210.6,250.9c0-2.6,0-4.8-0.2-6.8h5.1l0.3,3.4h0.1c1-1.8,3.5-3.9,7.3-3.9c4,0,8.1,2.6,8.1,9.8V267h-5.8v-12.9
		c0-3.3-1.2-5.8-4.4-5.8c-2.3,0-3.9,1.6-4.5,3.4c-0.2,0.5-0.2,1.2-0.2,1.9V267h-5.8V250.9z"/>
</g>
<g>
	<path class="st1" d="M97,196v12.6h13.3V196h5.8v31.5h-5.8v-13.9H97v13.9h-5.8V196H97z"/>
	<path class="st1" d="M126.5,217.8c0.1,4.1,3.4,5.9,7,5.9c2.7,0,4.6-0.4,6.3-1l0.8,4c-2,0.8-4.7,1.4-8,1.4
		c-7.4,0-11.7-4.5-11.7-11.5c0-6.3,3.8-12.3,11.1-12.3c7.4,0,9.8,6.1,9.8,11.1c0,1.1-0.1,1.9-0.2,2.4H126.5z M136.5,213.8
		c0-2.1-0.9-5.6-4.7-5.6c-3.6,0-5.1,3.2-5.3,5.6H136.5z"/>
	<path class="st1" d="M146.6,212.1c0-3.1,0-5.3-0.2-7.3h5l0.2,4.4h0.2c1.1-3.2,3.8-4.9,6.2-4.9c0.6,0,0.9,0,1.4,0.1v5.4
		c-0.5-0.1-1-0.2-1.7-0.2c-2.8,0-4.6,1.8-5.1,4.4c-0.1,0.5-0.2,1.1-0.2,1.8v11.8h-5.8V212.1z"/>
	<path class="st1" d="M175.7,227.6l-0.4-2.5h-0.1c-1.4,1.8-3.8,3-6.7,3c-4.6,0-7.2-3.3-7.2-6.8c0-5.8,5.1-8.7,13.5-8.6v-0.4
		c0-1.5-0.6-4-4.6-4c-2.2,0-4.6,0.7-6.1,1.7l-1.1-3.7c1.7-1,4.6-2,8.2-2c7.3,0,9.4,4.6,9.4,9.6v8.2c0,2.1,0.1,4.1,0.3,5.5H175.7z
		 M174.9,216.4c-4.1-0.1-8,0.8-8,4.3c0,2.2,1.5,3.3,3.3,3.3c2.3,0,4-1.5,4.5-3.1c0.1-0.4,0.2-0.9,0.2-1.3V216.4z"/>
	<path class="st1" d="M186.6,211.6c0-2.6,0-4.8-0.2-6.8h5.1l0.3,3.4h0.1c1-1.8,3.5-3.9,7.3-3.9c4,0,8.1,2.6,8.1,9.8v13.5h-5.8v-12.9
		c0-3.3-1.2-5.8-4.4-5.8c-2.3,0-3.9,1.6-4.5,3.4c-0.2,0.5-0.2,1.2-0.2,1.9v13.4h-5.8V211.6z"/>
	<path class="st1" d="M223.6,213.1v4h-11.9v-4H223.6z"/>
</g>
<g>
	<defs>
		<rect id="SVGID_3_" width="290.9" height="290.9"/>
	</defs>
	<clipPath id="SVGID_4_">
		<use xlink:href="#SVGID_3_"  style="overflow:visible;"/>
	</clipPath>
	<polyline class="st3" points="156.4,159.5 156.4,121.7 194.3,121.7 	"/>
	<line class="st2" x1="165" y1="129.2" x2="213" y2="177.2"/>
	<polyline class="st3" points="138,158.5 138,120.7 100.2,120.7 	"/>
	<line class="st2" x1="129.5" y1="128.2" x2="81.4" y2="176.2"/>
	<polyline class="st3" points="138,64.4 138,102.2 100.2,102.2 	"/>
	<line class="st2" x1="129.5" y1="94.7" x2="81.4" y2="46.7"/>
	<polyline class="st3" points="156.4,64.4 156.4,102.2 194.3,102.2 	"/>
	<line class="st2" x1="165" y1="94.7" x2="213" y2="46.7"/>
</g>
</svg>
