<?xml version="1.0" encoding="utf-8"?>
<!-- Generator: Adobe Illustrator 16.0.3, SVG Export Plug-In . SVG Version: 6.00 Build 0)  -->
<!DOCTYPE svg PUBLIC "-//W3C//DTD SVG 1.1//EN" "http://www.w3.org/Graphics/SVG/1.1/DTD/svg11.dtd" [
	<!ENTITY ns_extend "http://ns.adobe.com/Extensibility/1.0/">
	<!ENTITY ns_ai "http://ns.adobe.com/AdobeIllustrator/10.0/">
	<!ENTITY ns_graphs "http://ns.adobe.com/Graphs/1.0/">
	<!ENTITY ns_vars "http://ns.adobe.com/Variables/1.0/">
	<!ENTITY ns_imrep "http://ns.adobe.com/ImageReplacement/1.0/">
	<!ENTITY ns_sfw "http://ns.adobe.com/SaveForWeb/1.0/">
	<!ENTITY ns_custom "http://ns.adobe.com/GenericCustomNamespace/1.0/">
	<!ENTITY ns_adobe_xpath "http://ns.adobe.com/XPath/1.0/">
]>
<svg version="1.1" id="Ebene_1" xmlns:x="&ns_extend;" xmlns:i="&ns_ai;" xmlns:graph="&ns_graphs;"
	 xmlns="http://www.w3.org/2000/svg" xmlns:xlink="http://www.w3.org/1999/xlink" x="0px" y="0px" width="290.9px" height="290.9px"
	 viewBox="0 0 290.9 290.9" style="enable-background:new 0 0 290.9 290.9;" xml:space="preserve">
<style type="text/css">
<![CDATA[
	.st0{fill:#B74F90;}
	.st1{fill:#2B2C2D;}
	.st2{fill:#FFFFFF;}
]]>
</style>
<metadata>
	<sfw  xmlns="&ns_sfw;">
		<slices></slices>
		<sliceSourceBounds  width="290.9" height="290.9" x="-25" y="-11.5" bottomLeftOrigin="true"></sliceSourceBounds>
	</sfw>
</metadata>
<path class="st0" d="M254.4,290.9H36.5C16.4,290.9,0,274.5,0,254.4V36.5C0,16.4,16.4,0,36.5,0h217.9c20.1,0,36.5,16.4,36.5,36.5
	v217.9C290.9,274.5,274.5,290.9,254.4,290.9z"/>
<g>
	<path class="st2" d="M76.4,241.2c1.9,1.1,4.7,2,7.7,2c3.7,0,5.8-1.7,5.8-4.3c0-2.4-1.6-3.8-5.6-5.3c-5.2-1.9-8.6-4.7-8.6-9.2
		c0-5.2,4.3-9.1,11.2-9.1c3.4,0,6,0.8,7.6,1.6l-1.4,4.7c-1.1-0.6-3.3-1.5-6.3-1.5c-3.7,0-5.3,2-5.3,3.8c0,2.4,1.8,3.6,6.1,5.2
		c5.5,2.1,8.2,4.8,8.2,9.4c0,5.1-3.9,9.5-12,9.5c-3.3,0-6.8-0.9-8.6-2L76.4,241.2z"/>
	<path class="st2" d="M117.8,246.8c-1.2,0.6-3.6,1.2-6.5,1.2c-7.1,0-11.8-4.6-11.8-11.7c0-6.9,4.7-12.2,12.7-12.2
		c2.1,0,4.3,0.5,5.6,1.1l-1,4.3c-0.9-0.4-2.3-0.9-4.4-0.9c-4.4,0-7,3.2-7,7.4c0,4.7,3.1,7.4,7,7.4c2,0,3.4-0.4,4.6-0.9L117.8,246.8z
		"/>
	<path class="st2" d="M122,214.1h5.8v13.6h0.1c0.7-1.1,1.6-2,2.9-2.6c1.1-0.7,2.5-1,3.9-1c3.9,0,8,2.6,8,9.9v13.5H137v-12.8
		c0-3.3-1.2-5.8-4.4-5.8c-2.3,0-3.9,1.5-4.5,3.2c-0.2,0.5-0.2,1.1-0.2,1.7v13.7H122V214.1z"/>
	<path class="st2" d="M148.9,231.4c0-2.6,0-4.8-0.2-6.8h5.1l0.3,3.4h0.1c1-1.8,3.5-3.9,7.3-3.9c4,0,8.1,2.6,8.1,9.8v13.6h-5.8v-12.9
		c0-3.3-1.2-5.8-4.4-5.8c-2.3,0-3.9,1.6-4.5,3.4c-0.2,0.5-0.2,1.2-0.2,1.9v13.4h-5.8V231.4z"/>
	<path class="st2" d="M182,218.2c0,1.7-1.3,3.1-3.3,3.1c-1.9,0-3.2-1.4-3.2-3.1c0-1.8,1.3-3.1,3.2-3.1
		C180.7,215,181.9,216.4,182,218.2z M175.8,247.5v-22.9h5.8v22.9H175.8z"/>
	<path class="st2" d="M194.5,218.1v6.5h5.5v4.3h-5.5V239c0,2.8,0.8,4.2,3,4.2c1,0,1.7-0.1,2.3-0.3l0.1,4.4c-0.8,0.3-2.3,0.6-4.2,0.6
		c-2.1,0-3.9-0.7-5-1.9c-1.2-1.3-1.8-3.4-1.8-6.4v-10.8h-3.3v-4.3h3.3v-5.2L194.5,218.1z"/>
	<path class="st2" d="M211,218.1v6.5h5.5v4.3H211V239c0,2.8,0.8,4.2,3,4.2c1,0,1.7-0.1,2.3-0.3l0.1,4.4c-0.8,0.3-2.3,0.6-4.2,0.6
		c-2.1,0-3.9-0.7-5-1.9c-1.2-1.3-1.8-3.4-1.8-6.4v-10.8H202v-4.3h3.3v-5.2L211,218.1z"/>
</g>
<rect x="39.8" y="70.4" class="st2" width="106.4" height="106.4"/>
<rect x="146.2" y="70.4" class="st1" width="106.4" height="106.4"/>
<g>
	<path d="M86.2,129.2l-3.4,10.2h-4.3l11-32.4h5l11,32.4h-4.5l-3.5-10.2H86.2z M96.8,125.9l-3.2-9.3c-0.7-2.1-1.2-4-1.7-5.9h-0.1
		c-0.5,1.9-1,3.9-1.6,5.9l-3.2,9.4H96.8z"/>
</g>
<g>
	<path class="st2" d="M190,107.5c1.8-0.4,4.7-0.7,7.6-0.7c4.2,0,6.9,0.7,8.9,2.4c1.7,1.2,2.7,3.2,2.7,5.7c0,3.1-2.1,5.9-5.5,7.1v0.1
		c3.1,0.8,6.7,3.3,6.7,8.1c0,2.8-1.1,4.9-2.7,6.5c-2.3,2.1-5.9,3-11.2,3c-2.9,0-5.1-0.2-6.5-0.4V107.5z M194.2,120.7h3.8
		c4.4,0,7-2.3,7-5.4c0-3.8-2.9-5.3-7.1-5.3c-1.9,0-3,0.1-3.7,0.3V120.7z M194.2,136.2c0.8,0.1,2,0.2,3.5,0.2c4.3,0,8.3-1.6,8.3-6.3
		c0-4.4-3.8-6.2-8.4-6.2h-3.5V136.2z"/>
</g>
</svg>
