<?xml version="1.0" encoding="utf-8"?>
<!-- Generator: Adobe Illustrator 16.0.3, SVG Export Plug-In . SVG Version: 6.00 Build 0)  -->
<!DOCTYPE svg PUBLIC "-//W3C//DTD SVG 1.1//EN" "http://www.w3.org/Graphics/SVG/1.1/DTD/svg11.dtd" [
	<!ENTITY ns_extend "http://ns.adobe.com/Extensibility/1.0/">
	<!ENTITY ns_ai "http://ns.adobe.com/AdobeIllustrator/10.0/">
	<!ENTITY ns_graphs "http://ns.adobe.com/Graphs/1.0/">
	<!ENTITY ns_vars "http://ns.adobe.com/Variables/1.0/">
	<!ENTITY ns_imrep "http://ns.adobe.com/ImageReplacement/1.0/">
	<!ENTITY ns_sfw "http://ns.adobe.com/SaveForWeb/1.0/">
	<!ENTITY ns_custom "http://ns.adobe.com/GenericCustomNamespace/1.0/">
	<!ENTITY ns_adobe_xpath "http://ns.adobe.com/XPath/1.0/">
]>
<svg version="1.1" id="Ebene_1" xmlns:x="&ns_extend;" xmlns:i="&ns_ai;" xmlns:graph="&ns_graphs;"
	 xmlns="http://www.w3.org/2000/svg" xmlns:xlink="http://www.w3.org/1999/xlink" x="0px" y="0px" width="300px" height="300px"
	 viewBox="0 0 300 300" style="enable-background:new 0 0 300 300;" xml:space="preserve">
<style type="text/css">
<![CDATA[
	.st0{fill:#B74F90;}
	.st1{display:none;fill:none;}
	.st2{clip-path:url(#SVGID_2_);fill-rule:evenodd;clip-rule:evenodd;fill:#FFFFFF;}
	.st3{fill:none;}
	.st4{fill:#333333;}
	.st5{clip-path:url(#SVGID_2_);fill:#FFFFFF;}
	.st6{clip-path:url(#SVGID_2_);fill:none;stroke:#FFFFFF;stroke-width:4;stroke-miterlimit:10;}
]]>
</style>
<metadata>
	<sfw  xmlns="&ns_sfw;">
		<slices></slices>
		<sliceSourceBounds  width="300" height="300" x="1" y="-300" bottomLeftOrigin="true"></sliceSourceBounds>
	</sfw>
</metadata>
<symbol  id="blue" viewBox="-150 -150 300 300">
	<path class="st0" d="M150-97c0-6.8,0-53-71.5-53H-84c-62.5,0-66,47.2-66,54V90c0,54.5,59.2,60,66,60l161.5,0c6.8,0,72.5,0,72.5-60
		V-97z"/>
	<polygon class="st1" points="-150,150 150,150 150,-150 -150,-150 	"/>
</symbol>
<use xlink:href="#blue"  width="300" height="300" id="XMLID_6_" x="-150" y="-150" transform="matrix(1 0 0 -1 151 150)" style="overflow:visible;"/>
<g>
	<defs>
		<path id="SVGID_1_" d="M231.5,271.2H69c-22,0-39.9-17.9-39.9-39.9V68.9C29.2,46.9,47,29,69,29h162.4c22,0,39.9,17.9,39.9,39.9
			v162.4C271.4,253.4,253.5,271.2,231.5,271.2z"/>
	</defs>
	<clipPath id="SVGID_2_">
		<use xlink:href="#SVGID_1_"  style="overflow:visible;"/>
	</clipPath>
	<line class="st6" x1="284.7" y1="206" x2="15.7" y2="206"/>
	<path id="Baum_2_" class="st5" d="M143.6,113.6c0.3-13.7-5.2-15.2-5.2-15.2s10.1-2.5,10.3-10.7c0.3-11.7-8.7-13.7-8.7-13.7
		s5.7-7.1,1-17c-6.1-12.8-19.3-8.7-19.3-8.7s3.6-10.8-6.3-21.8c-12.2-13.6-25-8.5-25-8.5s1.4-11.7-9.3-13.8c-12.7-2.4-13,4.9-13,4.9
		s-6.7-5.4-15.4,1.2c-6.4,4.8-3.8,19.8-3.8,19.8s-8-4.6-12.6-0.1c-6.7,6.6-0.5,18.2-0.5,18.2s-13.3-0.1-16.4,10
		c-4,13.3,6.1,19.3,6.1,19.3S14.7,79.4,14,85c-1.2,9.1,3.9,11.7,3.9,11.7S6.2,98,6.2,112.5s15.3,14.4,15.3,14.4s-5.5,2.3-2.5,8.3
		c1.7,3.3,6.5,2.5,6.5,2.5s1,6.3,5.3,7.5c8.1,2.4,10-2.5,10-2.5s1.9,3.2,4.5,3c3.5-0.3,4.8-3.6,4.8-3.6s5.2,12.2,13,18.3
		c17,13.4,11.3,16.8,12,45.5c0.3,14.6-10.8,21.6-10.8,21.6s4.8,0.8,13.8-1.9c9.3,3,19.7,1.9,19.7,1.9s-8-3.9-9.1-16
		c-1.7-19-1.8-36.2,2.4-46.5c7.6-18.5,13.6-22.4,13.6-22.4s-0.1,2.3,1.3,3.4c2.8,2,5.3,0.8,5.3,0.8s2.4,4,8,2.9
		c3.8-0.7,6.2-5.1,6.2-5.1s5.1,0.5,6.3-4.2c0.9-3.7-2.2-6.3-2.2-6.3s5.3,0.7,8-4.2c1.7-3.1,0.6-7,0.6-7S143.5,120.3,143.6,113.6z
		 M78.4,164.3c0,0-4.4-1.1-11.5-6.5c-0.8-0.6-1.8-3.7-2.8-8.8c-1-5.4-1.3-8-1.3-8s5.8-0.4,4.9-5.5c-0.4-2.4-1.8-3.2-1.8-3.2
		s-0.1-1.6-0.9-3c-0.6-1-2-1.4-2-1.8c0-1.2-2.5-0.8-2.5-0.8v10.8c0,0-1.9-0.7-1.8,2.1c0.1,2.4,1.8,2.4,1.8,2.9
		c0.2,5.2,1.8,11.5,1.6,11.3c-1.3-1.5-4.4-5-5.5-6.8c-1.6-2.7-2.4-7.7-2.4-7.7s1.6-0.5,1.6-2.1c0-1.9-1.2-2.4-1.2-2.4s1.7,0,2.7-1.6
		c0.6-0.9-0.5-4-0.5-4s0,6,4.6,5.4c3.8-0.5,3.3-5.1,3.3-5.1s0.1,2.4,1.8,3.1c2.6,1.1,3.9,0.3,3.9,0.3s2.7,1.4,6.4,9.3
		C81.7,152.8,78.4,164.3,78.4,164.3z M91.5,141.3c-0.1,0.3-0.3,0.8-0.3,0.8s-1.3-2.6-2.3-5.1c-0.7-1.8-1.7-4.3-1.7-4.3l-0.7,0.3
		c0,0,0.3,2.7,1.4,5.7c1.1,3.1,2.5,6.2,2.5,6.2s-2,9.5-3.1,12.7c-0.7,2.1-3.1,7.5-3.1,7.5s-0.9-8.5-0.6-17.7c0-1.4,0.2-8.4,0.2-8.4
		s1.4,0.1,2.1-1.4c0.9-1.7-0.3-2.5-0.3-2.5s0.8,0,1.8-1.7c0.8-1.3,0.6-2.7,0.6-2.7s2.3,1.4,4.3,1.1c2-0.2,2.2-0.9,2.2-0.9
		S94.4,133.7,91.5,141.3z M98,143.1c-2.6,3.9-6.1,8.6-6.1,8.6s0.2-2.7,2.5-9.7c2.1-6.4,2.1-8.3,2.1-8.3s0.3,2.5,2.6,3.3
		c1.4,0.5,2.4,0.2,2.4,0.2S100.6,139.2,98,143.1z"/>
	<path class="st2" d="M140,173.5c0,0.2,0.3,0.5,0.3,0.8c0.1,0.4,0.1,1.2,0.1,1.4c0,0.1-0.2,1.5-0.2,1.7c0,0.1,0.4,0.8,0.4,1v1.7
		c0.2,0.5,0.8,1.6,0.8,2.3c0,0.1-0.1,0.8-0.1,0.9c0,0.1,0.3,0.9,0.3,1.1c0,0.1-0.4,1.7-0.4,1.8c0,0.1,0.3,1.2,0.3,1.4
		c0,0.2-0.1,0.5-0.5,0.7c-0.1-0.7-0.2-1.5-0.3-2.2c-0.2-1.6-0.3-3.3-0.6-4.8c-0.2-1.5-0.9-4-0.9-5.7v-1.1c0.1-0.5,0.2-1.1,0.2-1.7
		v-1.3c0,0,0.1-0.1,0.2-0.2C140,171.5,139.9,171.8,140,173.5z M166.4,173.5c0,1-0.4,2.3-0.5,3.4l0,7.5c0,0.3-0.2,0.7-0.2,1.1
		c-0.1,0.5-0.1,1.1-0.1,1.7c0,0-0.1,0-0.2,0c0-0.2,0-0.5-0.1-0.6c-0.1-0.3-0.4-0.9-0.4-1c0-0.1,0.1-0.3,0.1-0.5
		c0-0.1-0.4-0.6-0.4-0.7c0-0.1,0.1-0.4,0.2-0.6l0-1.2c0.9-1.1,0.7-2.2,1-3.3V178c-0.1-0.8-0.5-2-0.5-2.8l0.1-1.5
		c0-0.5-0.2-1.4-0.2-1.5c0-0.1,0-0.1,0-0.1c0.3,0,0.3-0.5,0.5-0.7c0.1-0.1,0.4-0.2,0.6-0.3C166.3,171.8,166.4,173.4,166.4,173.5z
		 M148.8,125.9c-0.1,0.1-0.2,0.2-0.4,0.4c0.2,0,0.5,0,0.7,0c0.2,0,0.4-0.1,0.5-0.2c0,0,0,0,0.1,0c-0.1,0.1-0.2,0.2-0.3,0.4h0.4
		c0.5-0.4,0.9-0.3,1.3-0.3c0.3,0,0.7,0,1,0.1c-0.2,0-0.4,0.1-0.7,0.2c0,0,0,0,0.1,0c0.1,0,0.7-0.2,0.9-0.2c0.1,0,0.3,0,0.4,0.1
		c0,0-0.1,0-0.2,0.1c0.3,0,0.6,0.1,0.9,0.2l-0.1,0.1c1.4,0.6,3.1,1.7,4.4,3.4c0.4,0.5,0.2,1.1,0.3,1.7l0,1.9c0,0.7-0.1,1.8-0.1,1.9
		c0,0.1,0.1,1.2,0.1,1.3c0,3-2.2,2.1-2.2,4.7v2c0.8,0.9,1.2,2.2,2.3,2.6c2.3,1.1,4.6,1.9,6.9,3c1.3,0.7,3.4,1.7,4.1,3.5
		c0.5,1.5,1,3,1.4,4.5c0.8,2.8,1.5,5.6,2.3,8.4c0.2,0.9,0.8,2.5,0.8,2.6c0,0.6-2.2,1.6-2.5,1.9l0,8c-0.4,2-0.9,4.2-1.3,6.2
		c-0.6,2.7-1.4,5.5-2,8.2c-0.1,0.4,0,1.3,0,1.4c0,2.1-1.5,5.9-1.5,8l1.3,17l-1.2,13.9v0.9c-0.2,1.9-0.6,3.9-1.3,5.8
		c-0.1,0.4-0.2,0.9-0.2,1.4c0,0.6-0.1,1.9-0.1,2.1c0,0.1-0.2,1.8-0.2,2.7c-0.1,0.8-0.1,1.7-0.1,2.5c0,1-0.1,1.9-0.2,2.9
		c0,0.4-1.2,7.6-1.2,9.3c0,0.1,0.1,1,0.1,1.1c0,0.1-0.1,0.9-0.1,1c0,0.6,0.5,1.5,0.9,2.1c0.5,0.8,1.3,1.3,1.3,2.1
		c0,1.5-3.1,1.5-3.6,1.5c-1.4,0-2.7-0.2-4-0.5c-0.3,0-0.6-0.1-0.8-0.2c-0.7-0.4-1.8-0.7-2.1-1.6c0-0.1,0-0.2,0-0.3
		c0-0.1-0.2-0.8-0.2-1.2c0-1.3,0.1-1.9,0.1-2c0-0.5-1.1-1.3-1.1-3c0-0.1,0.1-0.9,0.1-1.4v-3c0.3-2.5,1.2-5.3,1.7-7.8
		c0-0.5,0-1.3,0-1.4V242c0.1-0.7,0.2-2,0.2-2.1l-0.5-5.3v-11.9l-2.3-20.5c-0.8,3.5-0.3,16.7-0.7,20.2l0,6.7
		c-0.1,0.9-0.1,1.9-0.3,2.8c-0.1,0.5-0.5,1-0.6,1.5c-0.2,0.5-0.3,1.2-0.5,1.8c-0.2,0.7-0.5,1.4-0.5,2.2c0,1.2,0.5,2.4,0.8,3.8
		l-0.5,2.6v1.1l-0.7,6.2c0,0.7,0.1,1.9,0.1,2c0,1.6-0.4,3.3-0.4,3.9c0,1.4,1.2,2.7,1.2,4.1c0,0.1-0.1,0.6-0.1,0.9
		c0,0.1-0.1,0.4-0.1,0.7c0,0.1-0.1,0.3-0.1,0.5c-0.2,0.7-0.8,2-0.8,2.1c0,0.1,0.2,2,0.2,2.2c0,0.2,0,0.6-0.2,1c-0.5,0.8-2.8,1-3.7,1
		c-0.8,0-4.5,0-4.5-1.8c0-1.2,1.1-3.7,1.1-4.7c0-0.1-0.2-1.1-0.2-1.7c-0.1-1.5-0.6-3.1-1.1-4.6c-0.2-0.6-0.2-1.2-0.2-1.8
		c-0.1-1-0.1-1.9-0.2-2.9l-0.3-6.2v-10.9c0-0.1,0-0.3,0-0.4c-0.1-0.7,0.7-1.5,0.7-2.2c0-0.6-0.5-1.2-1-1.8c-0.2-0.2-0.8-2-0.8-2.4
		v-0.9l0.4-3.8c0-1.7,0-2.3-0.1-5.8c0,0-1.3-10.5-1.2-16.9l0.1-6.6c-0.3-1.4-0.6-3-1-4.4c-0.6-2.2-1.4-4.4-1.9-6.5
		c-0.3-1.6-0.5-3.2-0.7-4.8c-0.1-1.1-0.1-2.3-0.3-3.3c-0.2-1.4-0.5-2.8-0.7-4.2c-0.6-0.3-1.3-0.6-1.9-1c-1-0.4-2-0.9-3-1.4v-0.1
		c0-0.1,0.4-1.3,0.5-1.9c1.1-4.2,3-8.5,4.6-12.6c0.6-1.6,2.9-3.2,4.2-3.6c2-0.7,4-1.7,5.9-2.6c0.1,0,0.1-0.3,0.1-0.4
		c0.2-0.2,0.4-0.6,0.7-0.8c0.7-0.6,1.5-0.4,1.5-1.3c0-0.1,0-0.2,0-0.3c-1.2-0.8-1.6-2.3-1.8-3.3c-0.1-0.6-0.4-1.2-0.6-1.8
		c-0.2-0.8-0.2-1.6-0.5-2.4c0-0.1-1.3-2-1.3-2.4v-4.7c0.2-0.8,1.1-1.1,1.7-1.6c0.1-0.1,0.1-0.2,0.2-0.4c0.1-0.2,0.6-0.9,1-0.9
		c-0.1,0.1-0.3,0.4-0.3,0.5v0.2l0.1,0.1c0.4-0.2,0.4-1.1,1.1-1.1c0,0-0.1,0.1,0,0.2c0.2-0.2,0.5-0.7,0.7-0.7c0.1,0,0,0.1,0.1,0.1
		c0-0.2,0.4-0.4,0.6-0.4c0,0.1,0,0.3,0,0.4c0.3-0.2,0.6-0.5,1-0.7H148.8z"/>
</g>
<g>
	<rect x="20.6" y="235.8" class="st3" width="260" height="47.2"/>
	<path class="st4" d="M96.7,242.5h-9.2v-4.9h24.4v4.9h-9.3v27.4h-5.9V242.5z"/>
	<path class="st4" d="M134,258c0,8.6-6,12.4-12,12.4c-6.6,0-11.7-4.6-11.7-12c0-7.7,5-12.4,12.1-12.4C129.4,246,134,250.9,134,258z
		 M116.4,258.2c0,4.5,2.2,7.9,5.8,7.9c3.4,0,5.7-3.3,5.7-8c0-3.6-1.6-7.8-5.7-7.8C118.1,250.3,116.4,254.4,116.4,258.2z"/>
	<path class="st4" d="M145.6,239.9v6.7h5.6v4.4h-5.6v10.3c0,2.8,0.8,4.3,3,4.3c1,0,1.8-0.1,2.3-0.3l0.1,4.5
		c-0.9,0.3-2.4,0.6-4.3,0.6c-2.2,0-4-0.7-5.1-1.9c-1.2-1.3-1.8-3.5-1.8-6.5v-11h-3.4v-4.4h3.4v-5.3L145.6,239.9z"/>
	<path class="st4" d="M168.9,269.9l-0.4-2.6h-0.1c-1.4,1.8-3.9,3.1-6.9,3.1c-4.7,0-7.3-3.4-7.3-7c0-5.9,5.2-8.9,13.9-8.8v-0.4
		c0-1.5-0.6-4.1-4.8-4.1c-2.3,0-4.7,0.7-6.3,1.7l-1.2-3.8c1.7-1.1,4.8-2.1,8.4-2.1c7.5,0,9.6,4.8,9.6,9.8v8.4c0,2.1,0.1,4.2,0.3,5.6
		H168.9z M168.1,258.5c-4.2-0.1-8.2,0.8-8.2,4.4c0,2.3,1.5,3.4,3.4,3.4c2.4,0,4.1-1.5,4.6-3.2c0.1-0.4,0.2-0.9,0.2-1.3V258.5z"/>
	<path class="st4" d="M180.1,235.8h6v34.1h-6V235.8z"/>
	<path class="st4" d="M196.6,259.9c0.1,4.2,3.5,6,7.2,6c2.7,0,4.7-0.4,6.5-1.1l0.9,4.1c-2,0.8-4.8,1.4-8.2,1.4
		c-7.6,0-12-4.7-12-11.8c0-6.5,3.9-12.6,11.4-12.6c7.6,0,10.1,6.2,10.1,11.4c0,1.1-0.1,2-0.2,2.5H196.6z M206.9,255.8
		c0-2.2-0.9-5.7-4.8-5.7c-3.6,0-5.2,3.3-5.4,5.7H206.9z"/>
</g>
</svg>
