<?xml version="1.0" encoding="utf-8"?>
<!-- Generator: Adobe Illustrator 16.0.3, SVG Export Plug-In . SVG Version: 6.00 Build 0)  -->
<!DOCTYPE svg PUBLIC "-//W3C//DTD SVG 1.1//EN" "http://www.w3.org/Graphics/SVG/1.1/DTD/svg11.dtd" [
	<!ENTITY ns_extend "http://ns.adobe.com/Extensibility/1.0/">
	<!ENTITY ns_ai "http://ns.adobe.com/AdobeIllustrator/10.0/">
	<!ENTITY ns_graphs "http://ns.adobe.com/Graphs/1.0/">
	<!ENTITY ns_vars "http://ns.adobe.com/Variables/1.0/">
	<!ENTITY ns_imrep "http://ns.adobe.com/ImageReplacement/1.0/">
	<!ENTITY ns_sfw "http://ns.adobe.com/SaveForWeb/1.0/">
	<!ENTITY ns_custom "http://ns.adobe.com/GenericCustomNamespace/1.0/">
	<!ENTITY ns_adobe_xpath "http://ns.adobe.com/XPath/1.0/">
]>
<svg version="1.1" id="Ebene_1" xmlns:x="&ns_extend;" xmlns:i="&ns_ai;" xmlns:graph="&ns_graphs;"
	 xmlns="http://www.w3.org/2000/svg" xmlns:xlink="http://www.w3.org/1999/xlink" x="0px" y="0px" width="300px" height="300px"
	 viewBox="0 0 300 300" enable-background="new 0 0 300 300" xml:space="preserve">
<metadata>
	<sfw  xmlns="&ns_sfw;">
		<slices></slices>
		<sliceSourceBounds  height="300" width="300.001" x="-50.501" y="-50.5" bottomLeftOrigin="true"></sliceSourceBounds>
	</sfw>
</metadata>
<path fill="#336666" d="M228,301H71.999c-39.601,0-72-16.9-72-56.5V61c0-39.6,32.399-60,72-60H228c39.601,0,72,20.9,72,60.5V245
	C300,284.6,267.6,301,228,301z"/>
<g>
	<path fill="#FFFFFF" d="M86.785,236.577c2.544-0.384,5.568-0.672,8.881-0.672c6,0,10.272,1.392,13.104,4.032
		c2.881,2.641,4.561,6.385,4.561,11.617c0,5.28-1.632,9.601-4.656,12.577c-3.024,3.024-8.017,4.656-14.305,4.656
		c-2.977,0-5.473-0.145-7.585-0.384V236.577z M90.961,265.188c1.057,0.192,2.593,0.24,4.225,0.24
		c8.929,0,13.777-4.992,13.777-13.729c0.048-7.633-4.272-12.48-13.105-12.48c-2.16,0-3.792,0.191-4.896,0.432V265.188z"/>
	<path fill="#FFFFFF" d="M118.607,252.515c0-2.736-0.048-5.089-0.191-7.249h3.696l0.144,4.561h0.192
		c1.056-3.12,3.601-5.088,6.433-5.088c0.479,0,0.816,0.048,1.2,0.144v3.984c-0.433-0.096-0.864-0.144-1.44-0.144
		c-2.977,0-5.088,2.256-5.664,5.424c-0.097,0.576-0.192,1.248-0.192,1.969V268.5h-4.177V252.515z"/>
	<path fill="#FFFFFF" d="M146.929,268.5l-0.336-2.929h-0.144c-1.296,1.824-3.793,3.457-7.104,3.457
		c-4.705,0-7.105-3.313-7.105-6.673c0-5.616,4.993-8.688,13.97-8.641v-0.48c0-1.92-0.528-5.376-5.28-5.376
		c-2.16,0-4.417,0.672-6.049,1.728l-0.96-2.784c1.92-1.248,4.704-2.063,7.633-2.063c7.104,0,8.833,4.848,8.833,9.505v8.688
		c0,2.016,0.096,3.984,0.383,5.568H146.929z M146.305,256.643c-4.608-0.096-9.841,0.721-9.841,5.232
		c0,2.736,1.824,4.033,3.984,4.033c3.024,0,4.944-1.921,5.616-3.889c0.145-0.432,0.24-0.912,0.24-1.344V256.643z"/>
	<path fill="#FFFFFF" d="M157.199,251.555c0-2.4-0.047-4.368-0.191-6.289h3.697l0.191,3.745h0.145
		c1.295-2.209,3.455-4.272,7.297-4.272c3.168,0,5.568,1.92,6.576,4.656h0.096c0.721-1.296,1.633-2.305,2.592-3.024
		c1.393-1.056,2.928-1.632,5.137-1.632c3.072,0,7.633,2.016,7.633,10.08V268.5h-4.129v-13.153c0-4.464-1.631-7.152-5.039-7.152
		c-2.4,0-4.273,1.776-4.994,3.84c-0.191,0.576-0.336,1.345-0.336,2.112V268.5h-4.127v-13.921c0-3.696-1.633-6.385-4.85-6.385
		c-2.641,0-4.561,2.112-5.232,4.225c-0.24,0.624-0.336,1.344-0.336,2.063V268.5h-4.129V251.555z"/>
	<path fill="#FFFFFF" d="M210.098,268.5l-0.336-2.929h-0.145c-1.295,1.824-3.793,3.457-7.104,3.457
		c-4.705,0-7.105-3.313-7.105-6.673c0-5.616,4.992-8.688,13.969-8.641v-0.48c0-1.92-0.527-5.376-5.279-5.376
		c-2.16,0-4.418,0.672-6.049,1.728l-0.961-2.784c1.92-1.248,4.705-2.063,7.633-2.063c7.105,0,8.834,4.848,8.834,9.505v8.688
		c0,2.016,0.096,3.984,0.383,5.568H210.098z M209.473,256.643c-4.607-0.096-9.84,0.721-9.84,5.232c0,2.736,1.824,4.033,3.984,4.033
		c3.023,0,4.943-1.921,5.615-3.889c0.145-0.432,0.24-0.912,0.24-1.344V256.643z"/>
</g>
<path fill="#FFFFFF" d="M232.179,53.745c-1.954-2.867-5.342-3.62-8.573-3.993c-4.72-0.547-9.63-0.224-14.37-0.35
	c-6.872-0.184-13.746-0.412-20.614-0.644c-13.296-0.447-26.607-1.074-39.912-1.068c-13.004,0.003-25.993,0.867-39.003,0.535
	c-0.47-0.012-0.88,0.069-1.236,0.215c-13.305-0.505-26.791,0.467-39.903,2.438c-1.336,0.203-2.158,1.681-2.206,2.897
	c-0.839,21.232,4.447,41.989,11.348,61.899c4.544,13.115,9.93,25.979,16.456,38.236c11.033,20.731,28.533,45.946,54.461,47.101
	c13.716,0.61,26.669-7.04,36.381-16.073c10.896-10.132,19.237-23.021,26.079-36.128c7.553-14.468,13.285-29.949,17.3-45.757
	c3.476-13.693,5.662-27.984,5.271-42.15C233.867,58.402,233.638,55.886,232.179,53.745z M108.013,102.848
	c-1.284-6.208,2.989-12.316,6.931-16.69c2.717-3.018,6.074-6.369,9.828-8.707c3.03-2.793,6.805-5.528,11.069-4.655
	c0.025,0.006,0.05,0.019,0.075,0.027c7.336,0.974,4.931,10.575,0.158,14.304c-8.107,6.332-19.944,6.046-25.069,16.113
	C110.376,104.472,108.296,104.212,108.013,102.848z M190.796,152.416c-21.203-17.693-55.532-16.22-79.397-3.202
	c6.121-15.489,22.804-28.848,39.17-28.535c10.232,0.198,19.992,5.265,27.365,12.119c5.438,5.055,10.42,12.12,12.935,19.575
	C190.849,152.387,190.823,152.4,190.796,152.416z M192.898,100.124c-0.604,1.415-2.592,0.793-2.991-0.392
	c-1.335-3.961-2.832-8.706-6.551-11.112c-3.079-1.992-6.742-2.666-10.111-4.04c-2.325-0.943-5.486-2.335-6.419-4.901
	c-1.11-3.048,1.502-5.234,3.807-6.72c0.27-0.174,0.534-0.248,0.786-0.258c0.878-0.38,1.867-0.52,3.012-0.457
	c5.847,0.328,11.641,5.024,15.014,9.439C193.579,87.101,195.666,93.623,192.898,100.124z"/>
</svg>
