<?xml version="1.0" encoding="utf-8"?>
<!-- Generator: Adobe Illustrator 16.0.3, SVG Export Plug-In . SVG Version: 6.00 Build 0)  -->
<!DOCTYPE svg PUBLIC "-//W3C//DTD SVG 1.1//EN" "http://www.w3.org/Graphics/SVG/1.1/DTD/svg11.dtd" [
	<!ENTITY ns_extend "http://ns.adobe.com/Extensibility/1.0/">
	<!ENTITY ns_ai "http://ns.adobe.com/AdobeIllustrator/10.0/">
	<!ENTITY ns_graphs "http://ns.adobe.com/Graphs/1.0/">
	<!ENTITY ns_vars "http://ns.adobe.com/Variables/1.0/">
	<!ENTITY ns_imrep "http://ns.adobe.com/ImageReplacement/1.0/">
	<!ENTITY ns_sfw "http://ns.adobe.com/SaveForWeb/1.0/">
	<!ENTITY ns_custom "http://ns.adobe.com/GenericCustomNamespace/1.0/">
	<!ENTITY ns_adobe_xpath "http://ns.adobe.com/XPath/1.0/">
]>
<svg version="1.1" id="Ebene_1" xmlns:x="&ns_extend;" xmlns:i="&ns_ai;" xmlns:graph="&ns_graphs;"
	 xmlns="http://www.w3.org/2000/svg" xmlns:xlink="http://www.w3.org/1999/xlink" x="0px" y="0px" width="300px" height="300px"
	 viewBox="0 0 300 300" enable-background="new 0 0 300 300" xml:space="preserve">
<metadata>
	<sfw  xmlns="&ns_sfw;">
		<slices></slices>
		<sliceSourceBounds  height="300" width="300.001" x="-50.501" y="-50.5" bottomLeftOrigin="true"></sliceSourceBounds>
	</sfw>
</metadata>
<path fill="#336666" d="M228,301H71.999c-39.601,0-72-16.9-72-56.5V61c0-39.6,32.399-60,72-60H228c39.601,0,72,20.9,72,60.5V245
	C300,284.6,267.6,301,228,301z"/>
<g>
	<path fill="#FFFFFF" d="M89.977,239.697h-9.841v-3.552h23.954v3.552h-9.889V268.5h-4.225V239.697z"/>
	<path fill="#FFFFFF" d="M107.209,234.417h4.225v14.497h0.096c0.673-1.2,1.729-2.256,3.024-2.976c1.248-0.721,2.736-1.2,4.32-1.2
		c3.121,0,8.113,1.92,8.113,9.937V268.5h-4.225v-13.345c0-3.745-1.393-6.913-5.376-6.913c-2.736,0-4.896,1.92-5.665,4.225
		c-0.24,0.576-0.288,1.2-0.288,2.016V268.5h-4.225V234.417z"/>
	<path fill="#FFFFFF" d="M133.848,252.515c0-2.736-0.048-5.089-0.191-7.249h3.696l0.144,4.561h0.192
		c1.056-3.12,3.601-5.088,6.433-5.088c0.479,0,0.816,0.048,1.2,0.144v3.984c-0.433-0.096-0.864-0.144-1.44-0.144
		c-2.977,0-5.088,2.256-5.664,5.424c-0.097,0.576-0.192,1.248-0.192,1.969V268.5h-4.177V252.515z"/>
	<path fill="#FFFFFF" d="M154.442,238.737c0.047,1.44-1.01,2.593-2.689,2.593c-1.488,0-2.543-1.152-2.543-2.593
		c0-1.488,1.104-2.64,2.639-2.64C153.432,236.098,154.442,237.249,154.442,238.737z M149.736,268.5v-23.234h4.225V268.5H149.736z"/>
	<path fill="#FFFFFF" d="M160.967,234.417h4.225V268.5h-4.225V234.417z"/>
	<path fill="#FFFFFF" d="M172.295,234.417h4.225V268.5h-4.225V234.417z"/>
	<path fill="#FFFFFF" d="M185.975,257.651c0.096,5.712,3.744,8.064,7.969,8.064c3.025,0,4.85-0.528,6.434-1.2l0.719,3.024
		c-1.488,0.672-4.031,1.44-7.729,1.44c-7.152,0-11.424-4.705-11.424-11.714c0-7.008,4.127-12.528,10.896-12.528
		c7.584,0,9.602,6.672,9.602,10.944c0,0.864-0.098,1.536-0.145,1.969H185.975z M198.36,254.627c0.049-2.688-1.104-6.865-5.855-6.865
		c-4.273,0-6.145,3.937-6.48,6.865H198.36z"/>
	<path fill="#FFFFFF" d="M207.67,252.515c0-2.736-0.047-5.089-0.191-7.249h3.697l0.143,4.561h0.193
		c1.055-3.12,3.6-5.088,6.432-5.088c0.48,0,0.816,0.048,1.201,0.144v3.984c-0.434-0.096-0.865-0.144-1.441-0.144
		c-2.977,0-5.088,2.256-5.664,5.424c-0.096,0.576-0.191,1.248-0.191,1.969V268.5h-4.178V252.515z"/>
</g>
<g id="Layer_1">
	<g>
		<g>
			<path fill="#FFFFFF" d="M269.497,176.831c-0.223-2.766-5.068-5.854-7.601-8.004c-5.687-4.824-11.986-8.876-18.288-12.841
				c-4.769-3.001-9.559-5.969-14.203-9.16c-4.923-3.379-9.342-7.254-13.883-11.109c-5.826-4.947-11.989-9.473-18.223-13.89
				c-11.411-8.097-23.126-15.87-33.505-25.31c-10.082-9.171-23.047-12.808-35.327-18.605c-7.351-3.474-15.159-6.385-22.244-10.373
				c-11.686-6.576-22.093-15.185-33.925-21.54c-10.478-5.627-23.473-9.648-33.678-1.185c-9.597,7.96-10.38,22.653-3.998,32.724
				c3.093,4.885,8.155,9.042,13.837,10.336c5.595,1.273,11.521,0.609,17.208,1.35c12.511,1.64,23.099,9.665,34.178,15.122
				c5.021,2.474,10.023,5.081,14.472,8.505c3.508,2.694,5.837,5.648,4.152,10.073c-1.524,4.001-4.362,7.365-5.344,11.591
				c-2.025,8.705,7.844,15.32,14.216,19.245c8.261,5.082,17.304,8.971,26.237,12.685c8.164,3.393,16.188,7.043,24.201,11.103
				c6.019,3.049,13.888,7.828,20.845,5.481c1.538-0.519,4.017-2.633,5.618-1.524c0.996,0.69,1.077,4.698,2.326,6.009
				c1.635,1.711,3.821,2.214,6.12,1.817c6.01-1.034,9.862-4.138,16.383-3.163c5.572,0.836,11.705-0.869,17.252-1.393
				c6.616-0.633,13.917-1.948,20.08-4.539C268.774,179.24,269.596,178.065,269.497,176.831z M241.406,179.861
				c-2.589-9.537-14.911-6.983-22.909-8.276c-6.561-1.063-10.606-7.369-16.751-9.525c-3.315-1.166-6.08,0.457-9.355,0.416
				c-3.564-0.041-6.036-3.517-9.17-4.752c-3.215-1.266-7.682-4.522-10.543-0.91c-0.498,0.628-0.756,1.399-0.879,2.229
				c-1.83-0.654-3.854-0.931-5.678-1.143c-3.594-0.416-7.973-0.59-11.098,1.564c-0.479,0.33-0.859,0.842-1.086,1.408
				c-4.26-1.793-8.488-3.668-12.66-5.656c-4.625-2.202-9.217-4.557-13.458-7.442c-1.384-0.945-2.691-1.917-3.746-3.094
				c-0.249-0.275-0.38-0.414-0.463-0.511c0.322-0.191,0.614-0.476,0.86-0.88c9.819-16.072,22.717-30.161,31.71-46.737
				c16.189,15.935,36.258,27.228,53.851,41.477c4.41,3.568,8.523,7.444,13.08,10.821c4.783,3.54,9.847,6.695,14.886,9.856
				c8.26,5.177,16.743,10.348,23.807,17.113C255.65,178.796,248.477,179.751,241.406,179.861z"/>
			<path fill="#FFFFFF" d="M206.698,192.269c-0.235-0.896-0.787-1.45-1.445-1.717c-0.296-0.164-0.624-0.272-0.978-0.294
				c-1.146-0.844-3.013-0.945-4.103,0.543c-2.095,2.862-4.548,5.444-6.647,8.313c-0.896,1.221-0.226,2.727,0.894,3.479
				c0.342,0.532,0.831,0.978,1.496,1.271c1.875,0.829,3.726,0.382,5.541-0.369C205.845,201.68,207.862,196.696,206.698,192.269z"/>
		</g>
	</g>
</g>
</svg>
