<?xml version="1.0" encoding="utf-8"?>
<!-- Generator: Adobe Illustrator 16.0.3, SVG Export Plug-In . SVG Version: 6.00 Build 0)  -->
<!DOCTYPE svg PUBLIC "-//W3C//DTD SVG 1.1//EN" "http://www.w3.org/Graphics/SVG/1.1/DTD/svg11.dtd" [
	<!ENTITY ns_extend "http://ns.adobe.com/Extensibility/1.0/">
	<!ENTITY ns_ai "http://ns.adobe.com/AdobeIllustrator/10.0/">
	<!ENTITY ns_graphs "http://ns.adobe.com/Graphs/1.0/">
	<!ENTITY ns_vars "http://ns.adobe.com/Variables/1.0/">
	<!ENTITY ns_imrep "http://ns.adobe.com/ImageReplacement/1.0/">
	<!ENTITY ns_sfw "http://ns.adobe.com/SaveForWeb/1.0/">
	<!ENTITY ns_custom "http://ns.adobe.com/GenericCustomNamespace/1.0/">
	<!ENTITY ns_adobe_xpath "http://ns.adobe.com/XPath/1.0/">
]>
<svg version="1.1" id="Ebene_1" xmlns:x="&ns_extend;" xmlns:i="&ns_ai;" xmlns:graph="&ns_graphs;"
	 xmlns="http://www.w3.org/2000/svg" xmlns:xlink="http://www.w3.org/1999/xlink" x="0px" y="0px" width="300px" height="300px"
	 viewBox="0 0 300 300" enable-background="new 0 0 300 300" xml:space="preserve">
<metadata>
	<sfw  xmlns="&ns_sfw;">
		<slices></slices>
		<sliceSourceBounds  height="300" width="300.001" x="-50.501" y="-50.5" bottomLeftOrigin="true"></sliceSourceBounds>
	</sfw>
</metadata>
<path fill="#336666" d="M228,301H71.999c-39.601,0-72-16.9-72-56.5V61c0-39.6,32.399-60,72-60H228c39.601,0,72,20.9,72,60.5V245
	C300,284.6,267.6,301,228,301z"/>
<g>
	<path fill="#FFFFFF" d="M83.716,254.291c-0.24-4.513-0.528-9.938-0.48-13.97h-0.144c-1.104,3.793-2.448,7.825-4.081,12.289
		l-5.712,15.697H70.13l-5.232-15.409c-1.536-4.561-2.832-8.736-3.744-12.577h-0.096c-0.096,4.032-0.336,9.457-0.624,14.306
		L59.569,268.5h-3.984l2.256-32.354h5.329l5.521,15.649c1.344,3.984,2.448,7.536,3.264,10.896h0.145
		c0.815-3.265,1.968-6.816,3.408-10.896l5.761-15.649h5.328l2.017,32.354h-4.081L83.716,254.291z"/>
	<path fill="#FFFFFF" d="M114.481,262.163c0,2.4,0.048,4.513,0.191,6.337h-3.744l-0.24-3.792h-0.096
		c-1.104,1.872-3.553,4.32-7.681,4.32c-3.648,0-8.017-2.017-8.017-10.177v-13.586h4.225v12.865c0,4.417,1.344,7.393,5.185,7.393
		c2.832,0,4.8-1.968,5.568-3.84c0.239-0.624,0.384-1.393,0.384-2.16v-14.258h4.225V262.163z"/>
	<path fill="#FFFFFF" d="M120.912,264.18c1.248,0.816,3.456,1.68,5.568,1.68c3.072,0,4.512-1.536,4.512-3.456
		c0-2.016-1.2-3.12-4.32-4.272c-4.176-1.488-6.145-3.792-6.145-6.576c0-3.744,3.024-6.816,8.017-6.816
		c2.353,0,4.417,0.672,5.713,1.439l-1.056,3.072c-0.912-0.576-2.593-1.344-4.753-1.344c-2.496,0-3.889,1.44-3.889,3.168
		c0,1.921,1.393,2.784,4.417,3.937c4.032,1.536,6.097,3.553,6.097,7.009c0,4.08-3.169,6.961-8.689,6.961
		c-2.544,0-4.896-0.624-6.528-1.585L120.912,264.18z"/>
	<path fill="#FFFFFF" d="M145.2,238.737c0.048,1.44-1.009,2.593-2.688,2.593c-1.488,0-2.544-1.152-2.544-2.593
		c0-1.488,1.104-2.64,2.64-2.64C144.191,236.098,145.2,237.249,145.2,238.737z M140.495,268.5v-23.234h4.225V268.5H140.495z"/>
	<path fill="#FFFFFF" d="M155.903,255.923h0.096c0.576-0.816,1.393-1.824,2.064-2.641l6.816-8.017h5.09l-8.977,9.553l10.225,13.682
		h-5.137l-8.018-11.137l-2.16,2.4v8.736h-4.176v-34.083h4.176V255.923z"/>
	<path fill="#FFFFFF" d="M174.67,268.5v-20.018h-3.264v-3.217h3.264v-1.248c0-6.145,3.602-10.129,10.129-10.129
		c2.16,0,4.705,0.673,5.904,1.536l-1.199,3.217c-1.008-0.721-2.832-1.345-4.896-1.345c-4.465,0-5.762,3.121-5.762,6.817v1.151h13.49
		V268.5h-4.176v-20.018h-9.314V268.5H174.67z"/>
	<path fill="#FFFFFF" d="M199.342,234.417h4.225V268.5h-4.225V234.417z"/>
	<path fill="#FFFFFF" d="M210.67,251.555c0-2.4-0.049-4.368-0.191-6.289h3.695l0.191,3.745h0.145
		c1.297-2.209,3.457-4.272,7.297-4.272c3.168,0,5.568,1.92,6.576,4.656h0.096c0.721-1.296,1.633-2.305,2.594-3.024
		c1.391-1.056,2.928-1.632,5.137-1.632c3.072,0,7.631,2.016,7.631,10.08V268.5h-4.127v-13.153c0-4.464-1.633-7.152-5.041-7.152
		c-2.4,0-4.271,1.776-4.992,3.84c-0.191,0.576-0.336,1.345-0.336,2.112V268.5h-4.129v-13.921c0-3.696-1.633-6.385-4.848-6.385
		c-2.641,0-4.561,2.112-5.232,4.225c-0.24,0.624-0.336,1.344-0.336,2.063V268.5h-4.129V251.555z"/>
</g>
<g id="Layer_1">
	<path fill="#FFFFFF" d="M220.495,151.336c-0.965-0.95-2.096-1.743-3.34-2.374c2.536-15.81,2.951-32.037,2.1-47.943
		c-0.563-10.518-1.978-20.83-4.038-31.158c-0.231-1.148-0.463-2.296-0.694-3.445c1.31-0.787,2.156-2.376,2.165-3.86
		c0.057-9.642,0.931-19.224,1.987-28.799c0.262-2.372-2.231-4.545-4.472-4.466c-14.041,0.467-28.096-2.628-41.953-4.471
		c-13.479-1.791-28.697-3.612-41.655,1.655c-1.664,0.677-2.572,2-2.869,3.426c-1.357,0.628-2.396,1.904-2.396,3.86
		c-0.061,37.576-4.306,75.905,0.777,113.317c-9.597,2.397-19.057,8.645-26.201,13.757c-9.642,6.903-22.534,17.209-25.114,29.742
		c-0.118,0.304-0.227,0.604-0.335,0.908c-1.794,1.947-2.707,4.534-2.003,7.988c1.717,8.443,13.72,10.459,20.6,9.771
		c2.913-0.288,5.759-1.017,8.524-2.052c3.348-0.76,6.637-1.895,9.762-3.205c16.203-6.78,37.23-20.992,38.26-40.395
		c0.297-5.639-2.052-11.324-6.908-14.356c-0.314-0.197-0.632-0.363-0.952-0.518c-0.476-0.982-1.389-1.768-2.808-2.089
		c-1.319-0.292-2.651-0.462-3.995-0.524c-2.497-17.868-2.758-35.999-2.35-54.152c25.04,0.912,51.7-0.266,75.962-6.72
		c0.685,4.21,1.253,8.43,1.567,12.662c1.235,16.308,0.925,33.139-1.712,49.416c-1.746,0.151-3.567,0.546-5.335,1.144
		c-1.231-1.288-3.109-1.777-5.021-0.384c-10.666,7.772-21.42,15.81-29.484,26.393c-5.043,6.615-11.67,17.443-7.506,26.04
		c6.982,14.417,31.777,3.907,40.519-2.764c6.204-4.733,11.762-10.365,16.669-16.421c4.532-5.585,9.483-12.413,9.536-19.918
		C227.813,156.182,224.604,153.076,220.495,151.336z M132.839,83.031c0.141-4.343,0.301-8.685,0.467-13.024
		c24.012,0.061,48.253,1.581,72.087-1.817c0.524,2.739,1.065,5.475,1.585,8.218C183.318,82.818,157.313,83.91,132.839,83.031z"/>
</g>
</svg>
