<?xml version="1.0" encoding="utf-8"?>
<!-- Generator: Adobe Illustrator 16.0.3, SVG Export Plug-In . SVG Version: 6.00 Build 0)  -->
<!DOCTYPE svg PUBLIC "-//W3C//DTD SVG 1.1//EN" "http://www.w3.org/Graphics/SVG/1.1/DTD/svg11.dtd" [
	<!ENTITY ns_extend "http://ns.adobe.com/Extensibility/1.0/">
	<!ENTITY ns_ai "http://ns.adobe.com/AdobeIllustrator/10.0/">
	<!ENTITY ns_graphs "http://ns.adobe.com/Graphs/1.0/">
	<!ENTITY ns_vars "http://ns.adobe.com/Variables/1.0/">
	<!ENTITY ns_imrep "http://ns.adobe.com/ImageReplacement/1.0/">
	<!ENTITY ns_sfw "http://ns.adobe.com/SaveForWeb/1.0/">
	<!ENTITY ns_custom "http://ns.adobe.com/GenericCustomNamespace/1.0/">
	<!ENTITY ns_adobe_xpath "http://ns.adobe.com/XPath/1.0/">
]>
<svg version="1.1" id="Ebene_1" xmlns:x="&ns_extend;" xmlns:i="&ns_ai;" xmlns:graph="&ns_graphs;"
	 xmlns="http://www.w3.org/2000/svg" xmlns:xlink="http://www.w3.org/1999/xlink" x="0px" y="0px" width="300px" height="300px"
	 viewBox="4.074 5 300 300" enable-background="new 4.074 5 300 300" xml:space="preserve">
<metadata>
	<sfw  xmlns="&ns_sfw;">
		<slices></slices>
		<sliceSourceBounds  height="300" width="300.001" x="-50.928" y="-50" bottomLeftOrigin="true"></sliceSourceBounds>
	</sfw>
</metadata>
<path fill="#336666" d="M232.073,305H76.073c-39.601,0-72-16.9-72-56.5V65c0-39.6,32.399-60,72-60h156.001c39.6,0,72,20.9,72,60.5
	V249C304.073,288.6,271.673,305,232.073,305z"/>
<g>
	<path fill="#FFFFFF" d="M58.122,239.645v13.538h15.649v-13.538h4.225V272h-4.225v-15.17H58.122V272h-4.176v-32.355H58.122z"/>
	<path fill="#FFFFFF" d="M106.124,260.191c0,8.592-5.953,12.336-11.569,12.336c-6.288,0-11.137-4.607-11.137-11.952
		c0-7.776,5.089-12.337,11.521-12.337C101.611,248.238,106.124,253.086,106.124,260.191z M87.69,260.432
		c0,5.088,2.928,8.928,7.057,8.928c4.032,0,7.057-3.792,7.057-9.024c0-3.937-1.969-8.929-6.961-8.929S87.69,256.015,87.69,260.432z"
		/>
	<path fill="#FFFFFF" d="M111.449,256.015c0-2.736-0.048-5.089-0.191-7.249h3.696l0.144,4.561h0.192
		c1.056-3.12,3.601-5.088,6.433-5.088c0.479,0,0.815,0.048,1.2,0.144v3.984c-0.433-0.096-0.864-0.144-1.44-0.144
		c-2.977,0-5.089,2.256-5.664,5.424c-0.097,0.576-0.192,1.248-0.192,1.969V272h-4.177V256.015z"/>
	<path fill="#FFFFFF" d="M127.145,256.015c0-2.736-0.048-5.089-0.191-7.249h3.696l0.144,4.561h0.192
		c1.056-3.12,3.601-5.088,6.433-5.088c0.479,0,0.816,0.048,1.2,0.144v3.984c-0.433-0.096-0.864-0.144-1.44-0.144
		c-2.977,0-5.088,2.256-5.664,5.424c-0.097,0.576-0.192,1.248-0.192,1.969V272h-4.177V256.015z"/>
	<path fill="#FFFFFF" d="M163.867,260.191c0,8.592-5.953,12.336-11.57,12.336c-6.288,0-11.137-4.607-11.137-11.952
		c0-7.776,5.088-12.337,11.521-12.337C159.354,248.238,163.867,253.086,163.867,260.191z M145.433,260.432
		c0,5.088,2.928,8.928,7.057,8.928c4.032,0,7.057-3.792,7.057-9.024c0-3.937-1.969-8.929-6.961-8.929
		C147.594,251.406,145.433,256.015,145.433,260.432z"/>
	<path fill="#FFFFFF" d="M169.192,256.015c0-2.736-0.047-5.089-0.191-7.249h3.697l0.143,4.561h0.193
		c1.055-3.12,3.6-5.088,6.432-5.088c0.48,0,0.816,0.048,1.201,0.144v3.984c-0.434-0.096-0.865-0.144-1.441-0.144
		c-2.977,0-5.088,2.256-5.664,5.424c-0.096,0.576-0.191,1.248-0.191,1.969V272h-4.178V256.015z"/>
	<path fill="#FFFFFF" d="M185.321,272v-20.018h-3.264v-3.217h3.264v-1.248c0-6.145,3.602-10.129,10.129-10.129
		c2.16,0,4.705,0.672,5.904,1.537l-1.199,3.216c-1.008-0.72-2.832-1.345-4.896-1.345c-4.465,0-5.762,3.121-5.762,6.816v1.152h13.49
		V272h-4.176v-20.018h-9.314V272H185.321z"/>
	<path fill="#FFFFFF" d="M209.992,237.917h4.225V272h-4.225V237.917z"/>
	<path fill="#FFFFFF" d="M221.319,255.055c0-2.4-0.047-4.369-0.191-6.289h3.697l0.191,3.744h0.145
		c1.295-2.207,3.455-4.271,7.297-4.271c3.168,0,5.568,1.92,6.576,4.656h0.096c0.721-1.297,1.633-2.305,2.592-3.024
		c1.393-1.056,2.928-1.632,5.137-1.632c3.072,0,7.633,2.016,7.633,10.08V272h-4.129v-13.153c0-4.464-1.631-7.152-5.039-7.152
		c-2.4,0-4.273,1.776-4.994,3.841c-0.191,0.576-0.336,1.344-0.336,2.111V272h-4.127v-13.922c0-3.695-1.633-6.384-4.85-6.384
		c-2.641,0-4.561,2.112-5.232,4.224c-0.24,0.625-0.336,1.345-0.336,2.064V272h-4.129V255.055z"/>
</g>
<g id="Layer_2">
	<path fill="#FFFFFF" d="M229.357,98.545c-0.38-12.435-1.196-24.85-2.044-37.26c-0.031-0.457-0.034-0.915-0.017-1.367
		c-0.582-3.153-1.307-6.272-2.218-9.333c-2.183-7.323-5.866-15.805-12.978-19.335c-13.817-11.172-36.416-8.798-49.297,2.741
		c-14.204,12.723-18.5,33.422-24.775,50.629c-6.823,18.703-14.746,36.983-23.964,54.636c-8.188,15.682-20.392,28.707-28.906,44.161
		c-4.253,7.72-13.018,27.013,1.886,29.464c6.735,1.11,14.446-0.031,20.042-4.138c5.965-4.37,9.847-10.487,14.243-16.307
		c2.448-3.242,5.428-7.816,8.634-10.239c0.001,0.018,0.001,0.031,0.001,0.046c0.234,7.031-1.406,14.017-1.477,21.048
		c-0.054,5.236,0.865,14.984,8.354,14.424c8.157-0.613,12.967-9.086,16.592-15.439c2.114-3.704,4.063-7.52,6.412-11.083
		c0.913-1.388,1.866-2.769,3.091-3.904c0.465-0.428,0.605-0.594,1.228-0.922c0.042-0.028,0.981-0.271,0.653-0.263
		c0.607-0.014,0.562-0.034,1.024,0.249c0.559,0.336,0.998,0.725,1.446,1.224c1.501,1.673,2.614,3.707,3.596,5.716
		c2.646,5.434,3.573,10.875,4.957,16.691c1.179,4.939,3.104,10.404,8.119,12.599c5.131,2.249,11.077,0.813,14.67-3.438
		c4.026-4.76,6.366-10.618,8.559-16.392c2.845-7.502,5.784-14.962,8.341-22.569C224.451,153.642,230.215,126.568,229.357,98.545z
		 M158.534,144.486l-4.46-6.963l-11.642,8.499l-6.052-22.202l7.157-14.525l5.682,16.571l9.313-16.571v14.525l8.253-14.525
		l4.979,19.252L158.534,144.486z M193.061,84.821c-8.483,6.167-13.654-9.595-14.602-15.25c-1.045-6.241-0.477-21.673,9.885-17.188
		c0.579,0.25,1.113,0.544,1.598,0.875c1.41-0.091,2.871,0.461,3.864,1.959c2.956,4.439,3.826,10.257,4.118,15.472
		C198.198,75.652,197.375,81.685,193.061,84.821z M223.852,78.912c-0.647,3.961-2.141,7.091-6.666,5.358
		c-2.583-0.989-3.998-3.146-5.06-5.587c-2.151-4.958-3.459-10.908-3.319-16.329c0.069-2.588,0.346-6.694,3.45-7.278
		c2.937-0.552,6.878,2.905,8.416,5.109C224.043,65.015,224.784,73.211,223.852,78.912z"/>
</g>
</svg>
