<?xml version="1.0" encoding="utf-8"?>
<!-- Generator: Adobe Illustrator 16.0.3, SVG Export Plug-In . SVG Version: 6.00 Build 0)  -->
<!DOCTYPE svg PUBLIC "-//W3C//DTD SVG 1.1//EN" "http://www.w3.org/Graphics/SVG/1.1/DTD/svg11.dtd" [
	<!ENTITY ns_extend "http://ns.adobe.com/Extensibility/1.0/">
	<!ENTITY ns_ai "http://ns.adobe.com/AdobeIllustrator/10.0/">
	<!ENTITY ns_graphs "http://ns.adobe.com/Graphs/1.0/">
	<!ENTITY ns_vars "http://ns.adobe.com/Variables/1.0/">
	<!ENTITY ns_imrep "http://ns.adobe.com/ImageReplacement/1.0/">
	<!ENTITY ns_sfw "http://ns.adobe.com/SaveForWeb/1.0/">
	<!ENTITY ns_custom "http://ns.adobe.com/GenericCustomNamespace/1.0/">
	<!ENTITY ns_adobe_xpath "http://ns.adobe.com/XPath/1.0/">
]>
<svg version="1.1" id="Ebene_1" xmlns:x="&ns_extend;" xmlns:i="&ns_ai;" xmlns:graph="&ns_graphs;"
	 xmlns="http://www.w3.org/2000/svg" xmlns:xlink="http://www.w3.org/1999/xlink" x="0px" y="0px" width="300px" height="300px"
	 viewBox="0 0 300 300" enable-background="new 0 0 300 300" xml:space="preserve">
<metadata>
	<sfw  xmlns="&ns_sfw;">
		<slices></slices>
		<sliceSourceBounds  height="300" width="300" x="-49.5" y="-50.5" bottomLeftOrigin="true"></sliceSourceBounds>
	</sfw>
</metadata>
<path fill="#336666" d="M229,301H73C33.4,301,1,284.1,1,244.5V61C1,21.4,33.4,1,73,1h156c39.601,0,72,20.9,72,60.5V245
	C301,284.6,268.6,301,229,301z"/>
<g>
	<path fill="#FFFFFF" d="M76.961,269l-8.209-32.355h4.417l3.841,16.371c0.96,4.031,1.823,8.063,2.399,11.185h0.096
		c0.528-3.216,1.536-7.058,2.642-11.232l4.32-16.321h4.367l3.938,16.418c0.912,3.84,1.775,7.681,2.256,11.088h0.097
		c0.672-3.551,1.584-7.151,2.593-11.185l4.271-16.321h4.272L99.091,269h-4.368l-4.08-16.85c-1.009-4.129-1.682-7.297-2.112-10.562
		h-0.097c-0.575,3.216-1.296,6.386-2.496,10.562L81.329,269H76.961z"/>
	<path fill="#FFFFFF" d="M114.496,258.15c0.097,5.713,3.744,8.064,7.97,8.064c3.023,0,4.849-0.527,6.433-1.199l0.72,3.023
		c-1.488,0.672-4.032,1.439-7.729,1.439c-7.152,0-11.425-4.705-11.425-11.713c0-7.01,4.128-12.529,10.896-12.529
		c7.585,0,9.602,6.673,9.602,10.945c0,0.863-0.097,1.535-0.145,1.967h-16.321V258.15z M126.88,255.127
		c0.05-2.688-1.104-6.865-5.855-6.865c-4.272,0-6.146,3.938-6.48,6.865H126.88z"/>
	<path fill="#FFFFFF" d="M135.616,264.68c1.248,0.816,3.456,1.68,5.568,1.68c3.072,0,4.512-1.534,4.512-3.455
		c0-2.018-1.2-3.12-4.32-4.272c-4.176-1.487-6.145-3.792-6.145-6.575c0-3.744,3.023-6.816,8.017-6.816
		c2.354,0,4.417,0.672,5.713,1.439l-1.056,3.071c-0.912-0.576-2.593-1.344-4.753-1.344c-2.496,0-3.889,1.438-3.889,3.168
		c0,1.92,1.393,2.784,4.417,3.937c4.031,1.536,6.097,3.553,6.097,7.01c0,4.08-3.169,6.961-8.689,6.961
		c-2.544,0-4.896-0.625-6.527-1.584L135.616,264.68z"/>
	<path fill="#FFFFFF" d="M160.288,239.094v6.672h6.049v3.217h-6.049v12.529c0,2.881,0.816,4.512,3.168,4.512
		c1.104,0,1.921-0.144,2.448-0.287l0.192,3.168c-0.816,0.337-2.112,0.576-3.744,0.576c-1.969,0-3.553-0.625-4.562-1.775
		c-1.199-1.249-1.632-3.313-1.632-6.049v-12.674h-3.601v-3.217h3.601v-5.567L160.288,239.094z"/>
	<path fill="#FFFFFF" d="M173.44,258.15c0.096,5.713,3.744,8.064,7.969,8.064c3.024,0,4.85-0.527,6.434-1.199l0.72,3.023
		c-1.488,0.672-4.032,1.439-7.729,1.439c-7.151,0-11.425-4.705-11.425-11.713c0-7.01,4.128-12.529,10.896-12.529
		c7.585,0,9.602,6.673,9.602,10.945c0,0.863-0.097,1.535-0.145,1.967H173.44V258.15z M185.824,255.127
		c0.049-2.688-1.104-6.865-5.855-6.865c-4.272,0-6.146,3.938-6.48,6.865H185.824z"/>
	<path fill="#FFFFFF" d="M195.135,253.016c0-2.736-0.049-5.09-0.191-7.25h3.696l0.144,4.562h0.192
		c1.056-3.12,3.601-5.088,6.433-5.088c0.479,0,0.815,0.048,1.2,0.144v3.984c-0.433-0.096-0.864-0.145-1.44-0.145
		c-2.977,0-5.089,2.256-5.664,5.424c-0.097,0.576-0.191,1.248-0.191,1.97V269h-4.177L195.135,253.016L195.135,253.016z"/>
	<path fill="#FFFFFF" d="M210.83,252.055c0-2.4-0.048-4.369-0.19-6.289h3.744l0.239,3.842h0.097
		c1.151-2.209,3.841-4.368,7.681-4.368c3.217,0,8.209,1.92,8.209,9.889V269h-4.225v-13.393c0-3.746-1.394-6.865-5.376-6.865
		c-2.785,0-4.945,1.969-5.665,4.32c-0.192,0.527-0.288,1.248-0.288,1.969V269h-4.226V252.055z"/>
</g>
<g id="Layer_2">
	<g>
		<g>
			<g>
				<path fill="#FFFFFF" d="M115.229,71.508c5.175,6.431,16.55,8.085,25.517,8.742c10.278,0.752,21.83,0.517,31.791-1.792
					c5.436-1.259,10.996-3.526,14.365-7.203c3.564-3.889,3.589-8.149,1.947-12.59c-1.723-4.667-4.639-9.034-7.132-13.464
					c-2.104-3.737-4.278-7.473-6.912-11.002c-2.039-2.734-5.07-6.522-9.447-7.077c-5.224-0.664-8.389,3.733-9.701,7.04
					c-0.929,2.353-0.355,8.368-5.076,7.754c-5.332-0.692-5.343-6.614-7.007-9.75c-1.455-2.734-4.671-6.17-8.871-6.167
					c-3.688,0.003-5.891,3.015-7.16,5.312c-1.802,3.272-2.839,6.767-3.852,10.229c-1.081,3.7-2.44,7.129-4.247,10.667
					c-2.793,5.477-6.405,11.423-6.042,17.463C113.465,70.67,114.273,71.279,115.229,71.508z"/>
				<path fill="#FFFFFF" d="M217.328,62.702c-6.619-4.1-16.355-4.073-24.271-3.026c-2.66,0.352-2.245,3.338,0,3.881
					c0.055,0.013,0.106,0.035,0.165,0.063c-0.219,1.197-0.11,2.367,0.121,3.615c0.419,2.259-0.032,3.702-1.993,5.487
					c-4.04,3.676-11.197,6.01-16.866,7.682c-11.56,3.417-23.498,5.187-35.799,3.706c-11.694-1.408-37.913-6.851-29.688-20.04
					c0.797-0.416,1.274-1.151,0.889-2.093c-3.271-7.966-20.048-9.89-27.133-4.229c-4.02,3.213-3.682,8.212-2.869,12.297
					c0.986,4.959,3.185,9.734,6.426,14.057c7.995,10.65,21.715,16.17,36.704,18.573c2.598,2.986,4.452,7.244,5.335,9.125
					c3.256,6.908,5.457,14.154,7.217,21.378c1.08,4.43,1.239,9.868,1.526,14.897c0.173,3.042,0.322,6.082,0.42,9.129
					c-0.264-0.043-0.526-0.087-0.792-0.13c-0.069-0.028-0.141-0.055-0.211-0.084c-0.589-0.252-1.162-0.307-1.684-0.232
					c-3.082-0.355-4.325,3.365-1.158,3.914c0.445,0.076,0.887,0.148,1.329,0.225c0.853,0.326,1.729,0.609,2.621,0.856
					c3.673,1.021-6.166,35.104-7.25,38.677c-2.03,1.164-3.14,3.631-3.008,5.357c0.215,2.832,3.756,4.208,6.85,3.001
					c0.479-0.187,0.87-0.419,1.192-0.679c1.824-0.783,2.667-2.648,2.83-4.285c0.167-1.645-0.914-2.9-2.487-3.561
					c0.174-0.548,0.341-1.1,0.485-1.656c0.866-3.346,6.958-35.842,6.551-35.883c1.346,0.139,2.705,0.192,4.054,0.155
					c-0.218,2.851-0.151,5.707,0.355,8.522c0.634,9.69,0.725,19.394,1.019,29.09c-0.108,0.063-0.217,0.127-0.319,0.201
					c-4.098,2.98-3.682,10.227,3.156,10.304c5.704,0.063,4.615-4.619,2.26-7.638c0.081-0.197,0.128-0.412,0.123-0.647
					c-0.263-7.522,0.347-15.308-0.648-22.794c-0.3-2.246-3.257-17.122-0.771-17.646c2.397-0.504,4.7-1.315,6.793-2.478
					c2.678-1.489,0.385-4.701-2.598-3.479c-1.148,0.472-2.304,0.821-3.469,1.09c0.229-1.201,0.49-2.396,0.764-3.576
					c1.501-6.502,3.514-13.031,5.784-19.397c4.4-12.315,11.688-24.78,22.262-34.682c4.449-1.083,8.819-2.369,13.088-3.864
					c9.173-3.212,18.111-7.792,23.925-14.328C223.547,75.955,224.834,67.35,217.328,62.702z M154.323,133.366
					c-2.416,6.582-4.394,13.379-5.95,20.116c-0.349,1.512-0.666,3.041-0.929,4.578c-1.578,0.043-3.167-0.027-4.761-0.176
					c-0.104-3.271-0.268-6.546-0.449-9.811c-0.286-5.112-0.381-10.327-1.567-15.371c-1.681-7.127-3.889-14.225-6.945-21.07
					c-0.939-2.113-2.331-5.197-4.245-8.115c10.204,1.04,20.692,0.813,30.129-0.091c4.628-0.442,9.211-1.081,13.733-1.917
					C164.593,111.052,158.419,122.203,154.323,133.366z"/>
			</g>
		</g>
	</g>
</g>
</svg>
