<?xml version="1.0" encoding="utf-8"?>
<!-- Generator: Adobe Illustrator 16.0.3, SVG Export Plug-In . SVG Version: 6.00 Build 0)  -->
<!DOCTYPE svg PUBLIC "-//W3C//DTD SVG 1.1//EN" "http://www.w3.org/Graphics/SVG/1.1/DTD/svg11.dtd" [
	<!ENTITY ns_extend "http://ns.adobe.com/Extensibility/1.0/">
	<!ENTITY ns_ai "http://ns.adobe.com/AdobeIllustrator/10.0/">
	<!ENTITY ns_graphs "http://ns.adobe.com/Graphs/1.0/">
	<!ENTITY ns_vars "http://ns.adobe.com/Variables/1.0/">
	<!ENTITY ns_imrep "http://ns.adobe.com/ImageReplacement/1.0/">
	<!ENTITY ns_sfw "http://ns.adobe.com/SaveForWeb/1.0/">
	<!ENTITY ns_custom "http://ns.adobe.com/GenericCustomNamespace/1.0/">
	<!ENTITY ns_adobe_xpath "http://ns.adobe.com/XPath/1.0/">
]>
<svg version="1.1" id="Ebene_1" xmlns:x="&ns_extend;" xmlns:i="&ns_ai;" xmlns:graph="&ns_graphs;"
	 xmlns="http://www.w3.org/2000/svg" xmlns:xlink="http://www.w3.org/1999/xlink" x="0px" y="0px" width="300px" height="300px"
	 viewBox="4.074 5 300 300" enable-background="new 4.074 5 300 300" xml:space="preserve">
<metadata>
	<sfw  xmlns="&ns_sfw;">
		<slices></slices>
		<sliceSourceBounds  height="301" width="300.001" x="-50.928" y="-51" bottomLeftOrigin="true"></sliceSourceBounds>
	</sfw>
</metadata>
<path fill="#336666" d="M232.073,305H76.073c-39.601,0-72-16.9-72-56.5V65c0-39.6,32.399-60,72-60h156.001c39.6,0,72,20.9,72,60.5
	V249C304.073,288.6,271.673,305,232.073,305z"/>
<g>
	<path fill="#FFFFFF" d="M40.819,239.823L37.459,250h-4.32l10.993-32.355h5.04L60.213,250h-4.464l-3.457-10.177H40.819z
		 M51.427,236.559l-3.168-9.313c-0.72-2.112-1.2-4.032-1.68-5.904h-0.097c-0.479,1.92-1.008,3.889-1.632,5.856l-3.168,9.36H51.427z"
		/>
	<path fill="#FFFFFF" d="M64.818,233.055c0-2.4-0.048-4.369-0.191-6.289h3.744l0.24,3.841h0.096
		c1.152-2.208,3.841-4.368,7.681-4.368c3.217,0,8.209,1.92,8.209,9.889V250h-4.225v-13.393c0-3.745-1.393-6.865-5.376-6.865
		c-2.785,0-4.945,1.969-5.665,4.32c-0.192,0.528-0.288,1.248-0.288,1.969V250h-4.225V233.055z"/>
	<path fill="#FFFFFF" d="M96.163,220.237c0.048,1.44-1.009,2.593-2.688,2.593c-1.488,0-2.544-1.152-2.544-2.593
		c0-1.487,1.104-2.64,2.64-2.64C95.154,217.598,96.163,218.75,96.163,220.237z M91.458,250v-23.234h4.225V250H91.458z"/>
	<path fill="#FFFFFF" d="M102.689,233.055c0-2.4-0.048-4.369-0.191-6.289h3.696l0.191,3.744h0.145
		c1.296-2.207,3.456-4.271,7.297-4.271c3.168,0,5.568,1.92,6.576,4.656h0.096c0.721-1.297,1.633-2.305,2.593-3.024
		c1.392-1.056,2.928-1.632,5.137-1.632c3.072,0,7.632,2.016,7.632,10.08V250h-4.128v-13.153c0-4.464-1.632-7.152-5.04-7.152
		c-2.4,0-4.272,1.776-4.993,3.841c-0.191,0.576-0.336,1.344-0.336,2.111V250h-4.128v-13.922c0-3.695-1.633-6.384-4.849-6.384
		c-2.641,0-4.561,2.112-5.232,4.224c-0.24,0.625-0.336,1.345-0.336,2.064V250h-4.129V233.055z"/>
	<path fill="#FFFFFF" d="M155.586,250l-0.336-2.928h-0.143c-1.296,1.824-3.793,3.455-7.105,3.455c-4.705,0-7.105-3.312-7.105-6.672
		c0-5.617,4.993-8.689,13.97-8.641v-0.48c0-1.92-0.528-5.376-5.28-5.376c-2.16,0-4.417,0.672-6.049,1.728l-0.96-2.783
		c1.92-1.248,4.704-2.064,7.633-2.064c7.104,0,8.833,4.848,8.833,9.504v8.689c0,2.016,0.096,3.984,0.385,5.568H155.586z
		 M154.963,238.143c-4.608-0.096-9.841,0.721-9.841,5.232c0,2.736,1.824,4.033,3.984,4.033c3.024,0,4.944-1.92,5.616-3.889
		c0.145-0.432,0.24-0.912,0.24-1.344V238.143z"/>
	<path fill="#FFFFFF" d="M170.946,220.094v6.672h6.049v3.217h-6.049v12.529c0,2.88,0.816,4.512,3.168,4.512
		c1.105,0,1.922-0.144,2.449-0.287l0.191,3.168c-0.816,0.336-2.111,0.576-3.744,0.576c-1.969,0-3.553-0.625-4.561-1.776
		c-1.199-1.249-1.631-3.313-1.631-6.049v-12.673h-3.602v-3.217h3.602v-5.568L170.946,220.094z"/>
	<path fill="#FFFFFF" d="M186.449,220.237c0.049,1.44-1.008,2.593-2.688,2.593c-1.488,0-2.545-1.152-2.545-2.593
		c0-1.487,1.104-2.64,2.641-2.64C185.442,217.598,186.449,218.75,186.449,220.237z M181.744,250v-23.234h4.225V250H181.744z"/>
	<path fill="#FFFFFF" d="M214.002,238.191c0,8.592-5.953,12.336-11.568,12.336c-6.289,0-11.137-4.607-11.137-11.952
		c0-7.776,5.088-12.337,11.52-12.337C209.49,226.238,214.002,231.086,214.002,238.191z M195.569,238.432
		c0,5.088,2.928,8.928,7.057,8.928c4.033,0,7.057-3.792,7.057-9.024c0-3.937-1.969-8.929-6.961-8.929
		S195.569,234.015,195.569,238.432z"/>
	<path fill="#FFFFFF" d="M219.328,233.055c0-2.4-0.047-4.369-0.191-6.289h3.744l0.24,3.841h0.096
		c1.152-2.208,3.842-4.368,7.682-4.368c3.217,0,8.209,1.92,8.209,9.889V250h-4.225v-13.393c0-3.745-1.393-6.865-5.377-6.865
		c-2.785,0-4.945,1.969-5.664,4.32c-0.193,0.528-0.289,1.248-0.289,1.969V250h-4.225V233.055z"/>
	<path fill="#FFFFFF" d="M245.393,245.68c1.248,0.816,3.455,1.68,5.568,1.68c3.072,0,4.512-1.535,4.512-3.456
		c0-2.017-1.201-3.12-4.32-4.272c-4.176-1.488-6.145-3.792-6.145-6.576c0-3.744,3.023-6.816,8.016-6.816
		c2.354,0,4.418,0.672,5.713,1.439l-1.055,3.072c-0.912-0.576-2.594-1.344-4.754-1.344c-2.496,0-3.889,1.439-3.889,3.168
		c0,1.92,1.393,2.785,4.418,3.937c4.031,1.536,6.096,3.552,6.096,7.009c0,4.08-3.168,6.961-8.689,6.961
		c-2.543,0-4.896-0.625-6.527-1.584L245.393,245.68z"/>
	<path fill="#FFFFFF" d="M274.768,235.455v3.12h-11.855v-3.12H274.768z"/>
	<path fill="#FFFFFF" d="M119.778,294v-20.018h-3.265v-3.217h3.265v-1.248c0-6.145,3.601-10.129,10.129-10.129
		c2.16,0,4.704,0.672,5.904,1.537l-1.2,3.216c-1.008-0.72-2.832-1.345-4.896-1.345c-4.464,0-5.761,3.121-5.761,6.816v1.152h13.489
		V294h-4.176v-20.018h-9.313V294H119.778z"/>
	<path fill="#FFFFFF" d="M144.449,259.917h4.225V294h-4.225V259.917z"/>
	<path fill="#FFFFFF" d="M155.778,277.055c0-2.4-0.049-4.369-0.191-6.289h3.695l0.191,3.744h0.145
		c1.297-2.207,3.457-4.271,7.297-4.271c3.168,0,5.568,1.92,6.576,4.656h0.096c0.721-1.297,1.633-2.305,2.594-3.024
		c1.391-1.056,2.928-1.632,5.137-1.632c3.072,0,7.631,2.016,7.631,10.08V294h-4.127v-13.153c0-4.464-1.633-7.152-5.041-7.152
		c-2.4,0-4.271,1.776-4.992,3.841c-0.191,0.576-0.336,1.344-0.336,2.111V294h-4.129v-13.922c0-3.695-1.633-6.384-4.848-6.384
		c-2.641,0-4.561,2.112-5.232,4.224c-0.24,0.625-0.336,1.345-0.336,2.064V294h-4.129V277.055z"/>
</g>
<g id="Layer_1">
	<g>
		<g>
			<path fill="#FFFFFF" d="M224.834,83.577c-0.776-0.52-1.573-0.707-2.364-0.674c0.03-1.282-0.932-2.635-2.351-2.52
				c-2.931,0.235-5.499,1.141-7.11,3.735c-1.468,2.367-1.257,5.566-1.087,8.219c0.176,2.814,0.721,5.835-0.874,8.326
				c-1.883,2.937-5.527,4.892-8.766,6.362c-0.702-4.04-1.579-8.056-2.68-12.045c-3.609-13.109-10.087-25.305-19.094-35.5
				c-0.629-0.714-1.279-1.412-1.943-2.096c6.566-2.971,10.176-9.167,10.044-16.407c-0.098-5.211-2.015-13.382-7.854-14.866
				c-5.283-1.342-8.668,3.953-5.789,8.258c1.088,1.625,2.949,2.993,4.987,2.838c1.33-0.1,2.325-0.752,3.048-1.671
				c2.187,6.458,0.52,14.712-6.219,17.515c-0.688,0.285-1.127,0.779-1.363,1.342c-7.389-6.491-16.541-10.903-26.635-10.235
				c-5.362,0.357-10.604,2.114-15.349,4.801c-0.281-0.321-0.696-0.561-1.267-0.654c-6.024-0.983-12.103-8.253-8.433-14.118
				c1.114,1.017,2.788,1.407,4.308,1.261c2.454-0.236,4.606-1.894,4.785-4.481c0.195-2.855-1.059-5.978-4.318-5.968
				c-2.639,0.009-5.084,2.383-6.78,4.143c-2.351,2.435-3.532,5.198-3.72,8.593c-0.354,6.466,4.513,12.415,10.454,14.514
				c-2.796,2.133-5.33,4.58-7.495,7.22c-6.728,8.196-10.14,18.504-12.523,28.689c-1.414,6.053-2.654,12.201-3.744,18.378
				c-3.414-1.516-6.21-3.942-7.698-7.391c2.394-1.503,4.34-3.614,3.862-6.702c-0.445-2.877-3.911-4.529-6.332-5.317
				c-2.57-0.839-5.643-1.08-8.123,0.144c-1.588,0.781-2.177,2.126-2.163,3.568c-2.005,0.953-3.583,3.322-3.563,5.767
				c0.019,2.903,2.437,5.22,5.026,6.062c2.305,0.748,5.031,0.24,7.339-0.791c2.219,4.451,6.144,7.595,10.838,9.447
				c-1.114,6.834-2.045,13.696-2.789,20.514c-1.618,14.821-1.398,29.729,1.318,44.409c0.133,0.735,0.514,1.211,0.994,1.473
				c2.958,4.635,10.379,5.783,15.745,6.384c0.425,3.977,0.428,8.71-1.269,12.405c-1.266,2.76,2.824,5.173,4.099,2.395
				c2.004-4.365,2.409-9.569,1.962-14.334c1.378,0.109,2.757,0.184,4.139,0.244c0.026,0.111,0.061,0.225,0.106,0.343
				c0.473,1.22,0.272,2.819,0.253,4.094c-0.031,2.094-0.167,4.232-0.777,6.243c-0.896,2.936,3.685,4.183,4.573,1.264
				c0.68-2.228,0.842-4.624,0.935-6.938c0.061-1.469,0.19-3.293-0.113-4.856c5.311,0.081,10.632-0.024,15.934-0.003
				c5.849,0.028,11.74,0.691,17.632,1.28c-1.854,4.463-0.705,9.934,2.248,13.671c1.9,2.399,5.232-0.982,3.357-3.355
				c-2.172-2.748-2.355-6.925-0.475-9.844c2.047,0.167,4.094,0.304,6.137,0.371c-1.67,5.068-1.115,10.903,2.581,14.938
				c2.073,2.261,5.418-1.105,3.357-3.356c-2.838-3.094-2.435-7.757-0.972-11.4c0.021-0.053,0.035-0.104,0.054-0.157
				c3.927-0.11,7.838-0.545,11.724-1.53c2.781-0.704,5.313-1.941,7.105-3.731c1.261,0.109,2.61-0.645,2.61-2.276
				c0.002-0.968,0.004-1.942,0.014-2.914c0.1-0.754,0.111-1.549,0.021-2.391c0.239-20.769,1.525-41.863-1.355-62.442
				c0.118-0.031,0.236-0.071,0.356-0.123c5.944-2.601,12.623-6.66,13.416-13.667c0.039-0.33,0.049-0.695,0.046-1.081
				c2.36,1.685,5.149,2.487,7.672,0.482c2.065-1.641,2.749-4.528,2.911-7.031C227.593,87.997,226.975,84.998,224.834,83.577z
				 M96.039,93.897c-0.809,0.969-2.03,1.552-3.137,2.101c-0.465,0.232-0.8,0.655-0.992,1.136c-1.929,1.066-4.485,1.767-6.156,0.126
				c-0.452-0.448-0.405-1.122-0.15-1.64c0.37-0.754,0.124-0.555,0.491-0.114c1.715,2.07,5.282-0.681,3.729-2.875
				c-0.246-0.343-0.589-0.979-0.772-1.331c1.201-0.323,2.824-0.021,4.222,0.401c1.266,0.38,2.46,1.059,2.956,1.822
				C96.204,93.602,96.146,93.766,96.039,93.897z M96.242,93.724c0.002-0.079,0.005-0.131,0.007-0.171
				c0.004,0.004,0.006,0.009,0.008,0.014C96.249,93.573,96.247,93.62,96.242,93.724z M199.628,176.753
				c-1.261,4.502-9.918,5.079-13.585,5.341c-8.587,0.607-17.265-0.222-25.804-1.094c-6.826-0.698-13.518-0.774-20.38-0.756
				c-9.132,0.023-18.913,0.323-27.733-2.379c-1.945-0.596-4.591-1.632-5.133-3.673c-0.059-0.223-0.14-0.417-0.236-0.591
				c-2.807-16.228-2.264-32.685-0.024-48.962c1.144-8.32,2.686-16.585,4.244-24.838c1.296-6.847,2.61-13.641,4.772-20.278
				c3.74-11.5,10.448-21.321,21.319-27.053c5.854-3.085,12.507-4.416,19.043-3.16c6.095,1.171,11.515,4.556,16.122,8.591
				c16.019,14.042,23.625,35.298,26.291,55.887C201.233,134.658,199.777,155.777,199.628,176.753z M222.693,90.402
				c-0.037,1.068-0.405,2.495-0.948,3.147c-0.357,0.432-0.523,0.381-0.561,0.381c-0.302,0.014-1.076-0.396-1.496-0.724
				c-1.041-0.818-2.273-0.64-3.129-0.022c-0.184-1.96-0.293-3.978,0.208-5.508c0.218,1.797,2.455,3.155,3.979,1.502
				c0.427-0.468,1.062-1.203,1.578-1.444c0.07,0.188,0.197,0.524,0.274,0.852C222.72,89.097,222.716,89.777,222.693,90.402z"/>
			<path fill="#FFFFFF" d="M180.576,96.999c-3.815-0.619-7.751,0.665-11.345,1.82c-4.441,1.431-8.816,3.069-13.417,3.941
				c-4.342,0.823-8.514,0.186-12.394-1.927c-4.252-2.312-8.145-5.754-13.059-6.567c-4.789-0.795-9.214,2.253-10.393,6.93
				c-0.912,3.606,0.4,7.672,2.631,10.792c3.322,14.109,19.169,19.307,32.425,19.059c11.987-0.223,30.329-5.063,33.025-18.94
				C189.152,106.443,187.174,98.066,180.576,96.999z M183.563,110.138c-0.357,5.809-5.827,9.787-10.571,12.127
				c-0.572,0.282-1.162,0.55-1.76,0.806c0.111-1.602-0.217-3.183-1.301-4.503c-1.271-1.552-3.465-2.123-5.395-1.882
				c-4.549,0.569-8.511,4.638-6.813,9.414c0.023,0.067,0.057,0.125,0.084,0.188c-3.009,0.228-6.229,0.243-9.419-0.103
				c0.039-0.032,0.08-0.062,0.121-0.095c0.658-0.561,0.776-1.519,0.609-2.31c-0.663-3.127-2.703-6.018-5.983-6.697
				c-3.299-0.684-6.208,1.282-7.845,4.022c-0.114,0.19-0.195,0.38-0.253,0.565c-1.157-0.802-2.232-1.722-3.2-2.779
				c-2.63-2.865-4.743-6.664-6.247-10.24c-1.249-2.975-1.917-8.756,2.591-9.777c0.878-0.2,1.839-0.03,2.79,0.304
				c-2.156,4.271-1.521,10.464,3.513,12.339c3.517,1.312,8.689,0.14,8.761-4.318c0.007-0.401-0.042-0.809-0.126-1.215
				c1.141,0.511,2.289,0.897,3.438,1.175c-0.404,3.722,1.697,6.643,5.482,7.029c3.495,0.359,7.103-2.381,8.441-5.45
				c0.299-0.69,0.342-1.546,0.07-2.242c1.154-0.296,2.305-0.63,3.449-0.982c-0.049,1.043,0.395,2.138,1.213,3.027
				c1.229,1.343,3.168,2.247,4.91,2.654c2.199,0.518,4.621,0.192,5.982-1.788c1.539-2.242,0.521-5.263-0.518-7.588
				c2.004-0.449,4.029-0.559,5.599,0.359C183.396,103.47,183.701,107.888,183.563,110.138z"/>
			<path fill="#FFFFFF" d="M131.397,86.819c5.81,3.807,15.895,2.267,18.655-4.537c2.103-5.177-0.1-11.707-4.134-15.326
				C134.346,56.574,119.382,78.94,131.397,86.819z M135.646,70.522c0.216-0.223,0.371-0.459,0.482-0.697
				c1.143-0.631,2.367-0.983,3.603-0.837c-0.021,0.414,0.065,0.844,0.304,1.258c1.672,2.896-4.12,6.154-5.393,3.401
				c-0.188-0.403-0.436-0.695-0.718-0.895C134.474,71.883,135.076,71.111,135.646,70.522z"/>
			<path fill="#FFFFFF" d="M159.411,86.301c4.652,4.221,15.057,5.32,18.281-1.201c4.138-8.354-5.697-29.347-16.289-20.927
				c-0.533,0.421-0.996,0.893-1.434,1.41c-0.188,0.225-0.326,0.46-0.424,0.695C154.772,71.698,153.97,81.371,159.411,86.301z
				 M165.22,67.73c0.258-0.139,0.469-0.306,0.639-0.484c1.34-0.241,2.654,0.524,3.949,1.989c-1.246-0.075-2.514,1.187-2.678,2.451
				c-0.301,2.327-3.543,2.208-2.721-0.425c0.326-1.055-0.053-1.887-0.721-2.39C164.163,68.414,164.673,68.025,165.22,67.73z"/>
		</g>
	</g>
</g>
</svg>
