<?xml version="1.0" encoding="utf-8"?>
<!-- Generator: Adobe Illustrator 16.0.3, SVG Export Plug-In . SVG Version: 6.00 Build 0)  -->
<!DOCTYPE svg PUBLIC "-//W3C//DTD SVG 1.1//EN" "http://www.w3.org/Graphics/SVG/1.1/DTD/svg11.dtd" [
	<!ENTITY ns_extend "http://ns.adobe.com/Extensibility/1.0/">
	<!ENTITY ns_ai "http://ns.adobe.com/AdobeIllustrator/10.0/">
	<!ENTITY ns_graphs "http://ns.adobe.com/Graphs/1.0/">
	<!ENTITY ns_vars "http://ns.adobe.com/Variables/1.0/">
	<!ENTITY ns_imrep "http://ns.adobe.com/ImageReplacement/1.0/">
	<!ENTITY ns_sfw "http://ns.adobe.com/SaveForWeb/1.0/">
	<!ENTITY ns_custom "http://ns.adobe.com/GenericCustomNamespace/1.0/">
	<!ENTITY ns_adobe_xpath "http://ns.adobe.com/XPath/1.0/">
]>
<svg version="1.1" id="Ebene_1" xmlns:x="&ns_extend;" xmlns:i="&ns_ai;" xmlns:graph="&ns_graphs;"
	 xmlns="http://www.w3.org/2000/svg" xmlns:xlink="http://www.w3.org/1999/xlink" x="0px" y="0px" width="300px" height="300px"
	 viewBox="0 0 300 300" enable-background="new 0 0 300 300" xml:space="preserve">
<metadata>
	<sfw  xmlns="&ns_sfw;">
		<slices></slices>
		<sliceSourceBounds  height="300" width="300.001" x="-50.501" y="-50.5" bottomLeftOrigin="true"></sliceSourceBounds>
	</sfw>
</metadata>
<path fill="#336666" d="M228,301H71.999c-39.601,0-72-16.9-72-56.5V61c0-39.6,32.399-60,72-60H228c39.601,0,72,20.9,72,60.5V245
	C300,284.6,267.6,301,228,301z"/>
<g>
	<path fill="#FFFFFF" d="M28.706,236.146v13.537h15.649v-13.537h4.225V268.5h-4.225v-15.169H28.706V268.5H24.53v-32.354H28.706z"/>
	<path fill="#FFFFFF" d="M60.866,238.737c0.048,1.44-1.009,2.593-2.688,2.593c-1.488,0-2.544-1.152-2.544-2.593
		c0-1.488,1.104-2.64,2.64-2.64C59.857,236.098,60.866,237.249,60.866,238.737z M56.161,268.5v-23.234h4.225V268.5H56.161z"/>
	<path fill="#FFFFFF" d="M66.817,264.18c1.248,0.816,3.456,1.68,5.568,1.68c3.072,0,4.512-1.536,4.512-3.456
		c0-2.016-1.2-3.12-4.32-4.272c-4.176-1.488-6.145-3.792-6.145-6.576c0-3.744,3.024-6.816,8.017-6.816
		c2.353,0,4.417,0.672,5.713,1.439l-1.056,3.072c-0.912-0.576-2.593-1.344-4.753-1.344c-2.496,0-3.889,1.44-3.889,3.168
		c0,1.921,1.393,2.784,4.417,3.937c4.032,1.536,6.097,3.553,6.097,7.009c0,4.08-3.169,6.961-8.689,6.961
		c-2.544,0-4.896-0.624-6.528-1.585L66.817,264.18z"/>
	<path fill="#FFFFFF" d="M91.489,238.594v6.672h6.049v3.217h-6.049v12.529c0,2.88,0.816,4.512,3.168,4.512
		c1.104,0,1.921-0.144,2.448-0.288l0.192,3.169c-0.816,0.336-2.112,0.576-3.744,0.576c-1.969,0-3.553-0.624-4.561-1.776
		c-1.2-1.248-1.632-3.313-1.632-6.049v-12.673H83.76v-3.217h3.601v-5.568L91.489,238.594z"/>
	<path fill="#FFFFFF" d="M123.027,256.691c0,8.593-5.953,12.337-11.569,12.337c-6.288,0-11.137-4.608-11.137-11.953
		c0-7.776,5.088-12.337,11.521-12.337C118.514,244.738,123.027,249.586,123.027,256.691z M104.594,256.931
		c0,5.089,2.928,8.929,7.057,8.929c4.032,0,7.057-3.792,7.057-9.024c0-3.937-1.969-8.929-6.961-8.929
		S104.594,252.515,104.594,256.931z"/>
	<path fill="#FFFFFF" d="M128.352,252.515c0-2.736-0.048-5.089-0.191-7.249h3.696l0.144,4.561h0.192
		c1.056-3.12,3.601-5.088,6.433-5.088c0.479,0,0.816,0.048,1.2,0.144v3.984c-0.433-0.096-0.864-0.144-1.44-0.144
		c-2.977,0-5.088,2.256-5.664,5.424c-0.097,0.576-0.192,1.248-0.192,1.969V268.5h-4.177V252.515z"/>
	<path fill="#FFFFFF" d="M148.945,238.737c0.048,1.44-1.009,2.593-2.688,2.593c-1.488,0-2.544-1.152-2.544-2.593
		c0-1.488,1.104-2.64,2.64-2.64C147.936,236.098,148.945,237.249,148.945,238.737z M144.24,268.5v-23.234h4.225V268.5H144.24z"/>
	<path fill="#FFFFFF" d="M157.824,257.651c0.096,5.712,3.744,8.064,7.969,8.064c3.023,0,4.848-0.528,6.432-1.2l0.721,3.024
		c-1.488,0.672-4.033,1.44-7.729,1.44c-7.152,0-11.426-4.705-11.426-11.714c0-7.008,4.129-12.528,10.896-12.528
		c7.586,0,9.602,6.672,9.602,10.944c0,0.864-0.096,1.536-0.145,1.969H157.824z M170.209,254.627
		c0.049-2.688-1.104-6.865-5.857-6.865c-4.271,0-6.145,3.937-6.48,6.865H170.209z"/>
	<path fill="#FFFFFF" d="M179.52,251.555c0-2.4-0.049-4.368-0.191-6.289h3.744l0.24,3.841h0.096c1.152-2.208,3.84-4.368,7.68-4.368
		c3.217,0,8.209,1.92,8.209,9.889V268.5h-4.225v-13.394c0-3.744-1.393-6.864-5.375-6.864c-2.785,0-4.945,1.968-5.666,4.32
		c-0.191,0.528-0.287,1.248-0.287,1.969V268.5h-4.225V251.555z"/>
	<path fill="#FFFFFF" d="M206.592,268.5v-20.018h-3.266v-3.217h3.266v-1.248c0-6.145,3.6-10.129,10.129-10.129
		c2.16,0,4.703,0.673,5.904,1.536l-1.201,3.217c-1.008-0.721-2.832-1.345-4.896-1.345c-4.463,0-5.76,3.121-5.76,6.817v1.151h13.488
		V268.5h-4.176v-20.018h-9.313V268.5H206.592z"/>
	<path fill="#FFFFFF" d="M231.262,234.417h4.225V268.5h-4.225V234.417z"/>
	<path fill="#FFFFFF" d="M242.59,251.555c0-2.4-0.047-4.368-0.191-6.289h3.697l0.191,3.745h0.145
		c1.295-2.209,3.455-4.272,7.297-4.272c3.168,0,5.568,1.92,6.576,4.656h0.096c0.721-1.296,1.633-2.305,2.592-3.024
		c1.393-1.056,2.928-1.632,5.137-1.632c3.072,0,7.633,2.016,7.633,10.08V268.5h-4.129v-13.153c0-4.464-1.631-7.152-5.039-7.152
		c-2.4,0-4.273,1.776-4.994,3.84c-0.191,0.576-0.336,1.345-0.336,2.112V268.5h-4.127v-13.921c0-3.696-1.633-6.385-4.85-6.385
		c-2.641,0-4.561,2.112-5.232,4.225c-0.24,0.624-0.336,1.344-0.336,2.063V268.5h-4.129V251.555z"/>
</g>
<g id="Layer_1">
	<g>
		<g>
			<path fill="#FFFFFF" d="M197.867,49.203c-5.442-3.068-12.329-3.781-18.43-4.354c-9.192-0.865-18.467-0.905-27.686-0.597
				c-8.78,0.294-17.569,0.97-26.269,2.201c-5.26,0.75-10.742,1.553-15.689,3.6c-3.725-1.377-8.741,0.716-8.118,5.782
				c2.518,20.5-0.128,41.082,0.756,61.633c0.733,17.042,14.042,32.053,27.368,41.261c3.524,2.438,7.215,4.596,11.083,6.437
				c4.136,1.969,9.923,5.164,14.016,1.835c5.715-4.651,12-8.563,18.135-12.623c11.988-7.938,23.348-16.938,27.545-31.277
				c1.369-4.676,1.305-9.625,1.346-14.451c0.052-6.059-0.073-12.123-0.222-18.18c-0.297-12.12-0.74-24.236-0.492-36.362
				C201.252,51.972,199.586,50.172,197.867,49.203z"/>
			<g>
				<path fill="#FFFFFF" d="M114.376,154.783c-7.044,2.395-12.714,7.313-18.513,11.854c-0.682-0.935-1.375-1.835-2.027-2.691
					c-3.609-4.695-7.797-8.941-11.346-13.681c-0.987-1.316-1.847-2.761-2.693-4.208c5.531-4.031,11.374-7.617,16.722-11.907
					c3.001-2.406-1.25-6.597-4.216-4.218c-4.979,4-10.474,7.299-15.629,11.065c-1.226-1.85-2.484-3.769-3.236-5.773
					c-0.465-1.235-1.461-1.855-2.505-1.992c-0.776-0.455-1.758-0.498-2.76,0.209c-3.999,2.829-10.899,2.91-11.275,9.041
					c-0.239,3.868,2.511,8.019,4.957,11.354c-8.78,4.989-18.04,10.873-24.762,18.495c-0.836,0.95-1.261,2.479-0.466,3.615
					c6.92,9.883,13.962,20.336,23.433,27.984c1.277,1.031,2.958,1.224,4.217,0c7.49-7.284,17.56-11.481,23.873-20.036
					c0.045-0.063,0.084-0.128,0.125-0.189c5.053,2.045,10.378,0.658,11.56-5.313c0.455-2.307-0.011-4.544-0.935-6.661
					c5.329-4.262,10.646-9.021,17.058-11.202C119.579,159.301,118.027,153.543,114.376,154.783z M43.02,174.715
					c6.251-6.423,14.281-11.438,21.977-15.81c0.169-0.094,0.314-0.198,0.448-0.31c1.196,1.529,2.423,3.026,3.673,4.509
					c-7.947,4.97-16.492,8.945-23.964,14.646C44.436,176.739,43.728,175.726,43.02,174.715z M53.091,188.335
					c-1.543-1.888-3.029-3.821-4.481-5.782c7.481-5.875,16.35-9.72,24.338-14.813c0.041-0.026,0.076-0.053,0.113-0.082
					c0.326,0.37,0.654,0.743,0.985,1.113c0.62,0.689,1.222,1.447,1.82,2.228C68.737,177.354,60.556,182.396,53.091,188.335z
					 M83,180.887c-5.345,7.244-14.06,11.211-20.887,16.987c-1.8-1.597-3.502-3.295-5.135-5.063
					c7.328-5.875,15.364-10.832,22.445-17.01c1.241,1.654,2.54,3.262,3.979,4.634C83.262,180.569,83.125,180.718,83,180.887z
					 M93.921,177.646c-0.373,1.893-2.448,1.021-3.683,0.46c-2.551-1.159-4.452-4.156-6.133-6.292
					c-1.745-2.222-3.393-4.521-5.278-6.629c-2.831-3.169-5.627-6.364-8.285-9.679c-2.783-3.478-5.934-7.372-7.401-11.636
					c-0.609-1.759,0.038-1.602,1.831-2.438c1.311-0.615,2.716-1.063,4.049-1.651c1.736,3.402,4.051,6.591,6.035,9.792
					c2.324,3.749,4.908,7.037,7.791,10.389c2.962,3.449,5.987,6.897,8.508,10.689c-0.682,1.853,0.591,4.125,2.371,4.265
					C94.007,175.767,94.118,176.651,93.921,177.646z"/>
				<path fill="#FFFFFF" d="M270.72,34.805c-11.649,4.489-24.57,4.133-36.045,9.131c-0.745,0.327-1.19,0.813-1.406,1.363
					c-9.432,3.979-16.917,10.934-25.536,16.303c-3.253,2.03-0.262,7.191,3.014,5.15c8.348-5.202,15.667-12.355,24.902-16.041
					c0.795-0.317,1.332-0.855,1.646-1.482c0.129-0.04,0.26-0.085,0.394-0.144c7.882-3.434,16.588-4.125,25.007-5.846
					c-5.33,6.076-10.812,12.056-17.136,17.062c-0.419,0.333-0.692,0.703-0.855,1.082c-6.47,3.218-12.79,6.806-19.021,10.424
					c-4.215,2.444-8.412,4.965-12.355,7.835c-2.212,1.611-5.781,3.923-5.741,7.06c0.044,3.643,5.4,3.827,5.913,0.56
					c0.314-0.358,0.667-0.688,1.017-1.005c1.244-1.131,2.647-2.078,4.031-3.021c3.884-2.647,7.948-5.027,12.022-7.364
					c6.939-3.99,13.992-7.949,21.251-11.33c1.386-0.645,1.738-1.847,1.447-2.959c7.433-6.585,13.789-14.391,20.356-21.798
					C275.42,37.759,273.726,33.646,270.72,34.805z"/>
			</g>
			<g>
				<path fill="#FFFFFF" d="M184.038,164.582c6.414,2.182,11.729,6.935,17.059,11.199c-0.922,2.117-1.393,4.352-0.936,6.661
					c1.183,5.971,6.507,7.357,11.558,5.313c0.044,0.064,0.083,0.125,0.128,0.189c6.313,8.555,16.382,12.752,23.877,20.036
					c1.256,1.224,2.937,1.031,4.215,0c9.469-7.648,16.508-18.103,23.433-27.984c0.794-1.137,0.37-2.666-0.468-3.615
					c-6.723-7.622-15.981-13.506-24.761-18.495c2.447-3.335,5.192-7.486,4.956-11.354c-0.376-6.131-7.275-6.213-11.274-9.041
					c-1.002-0.708-1.984-0.664-2.759-0.209c-1.046,0.134-2.042,0.757-2.507,1.992c-0.751,2.004-2.009,3.92-3.235,5.77
					c-5.155-3.76-10.649-7.063-15.628-11.06c-2.969-2.383-7.22,1.809-4.218,4.215c5.345,4.29,11.19,7.873,16.722,11.91
					c-0.845,1.447-1.708,2.89-2.691,4.206c-3.555,4.739-7.739,8.982-11.348,13.684c-0.654,0.851-1.346,1.754-2.024,2.688
					c-5.802-4.541-11.472-9.46-18.513-11.854C181.975,157.591,180.422,163.35,184.038,164.582z M254.846,181.802
					c-7.474-5.7-16.016-9.676-23.964-14.648c1.249-1.482,2.479-2.979,3.673-4.506c0.134,0.111,0.281,0.216,0.448,0.309
					c7.695,4.369,15.726,9.388,21.977,15.808C256.27,179.774,255.563,180.785,254.846,181.802z M224.132,175.05
					c0.597-0.777,1.199-1.535,1.82-2.229c0.33-0.369,0.655-0.742,0.984-1.112c0.038,0.026,0.072,0.056,0.113,0.082
					c7.989,5.094,16.858,8.936,24.339,14.811c-1.452,1.96-2.937,3.895-4.48,5.781C239.445,186.441,231.262,181.402,224.132,175.05z
					 M216.597,184.484c1.438-1.375,2.734-2.98,3.979-4.635c7.08,6.178,15.116,11.142,22.445,17.011
					c-1.635,1.768-3.335,3.466-5.136,5.062c-6.825-5.778-15.545-9.742-20.887-16.986C216.87,184.764,216.74,184.618,216.597,184.484
					z M206.274,178.965c1.778-0.141,3.053-2.412,2.371-4.265c2.521-3.792,5.546-7.241,8.511-10.689
					c2.881-3.353,5.465-6.641,7.789-10.393c1.983-3.198,4.299-6.387,6.035-9.79c1.335,0.585,2.734,1.037,4.05,1.649
					c1.79,0.839,2.435,0.678,1.829,2.44c-1.468,4.265-4.616,8.158-7.401,11.634c-2.659,3.317-5.452,6.516-8.283,9.682
					c-1.887,2.108-3.533,4.406-5.281,6.629c-1.678,2.135-3.579,5.133-6.131,6.292c-1.235,0.562-3.309,1.436-3.685-0.464
					C205.881,180.7,205.991,179.815,206.274,178.965z"/>
				<path fill="#FFFFFF" d="M29.279,38.852c11.647,4.49,24.567,4.135,36.044,9.137c0.746,0.323,1.196,0.81,1.407,1.36
					c9.431,3.979,16.917,10.934,25.533,16.305c3.256,2.027,0.265,7.188-3.01,5.146C80.905,65.6,73.585,58.445,64.35,54.761
					c-0.795-0.317-1.333-0.856-1.647-1.485c-0.128-0.037-0.259-0.085-0.39-0.141c-7.882-3.434-16.591-4.127-25.01-5.846
					c5.33,6.076,10.815,12.053,17.135,17.063c0.419,0.332,0.696,0.699,0.856,1.081c6.469,3.216,12.79,6.806,19.02,10.425
					c4.215,2.447,8.412,4.966,12.356,7.835c2.213,1.611,5.782,3.923,5.741,7.06c-0.042,3.64-5.4,3.83-5.913,0.559
					c-0.314-0.357-0.667-0.687-1.017-1.008c-1.244-1.128-2.65-2.074-4.034-3.017c-3.881-2.647-7.946-5.027-12.019-7.364
					c-6.939-3.988-13.993-7.949-21.254-11.331c-1.384-0.647-1.736-1.846-1.445-2.958c-7.432-6.585-13.789-14.391-20.355-21.798
					C24.579,41.807,26.273,37.695,29.279,38.852z"/>
			</g>
		</g>
	</g>
</g>
</svg>
