<?xml version="1.0" encoding="utf-8"?>
<!-- Generator: Adobe Illustrator 16.0.3, SVG Export Plug-In . SVG Version: 6.00 Build 0)  -->
<!DOCTYPE svg PUBLIC "-//W3C//DTD SVG 1.1//EN" "http://www.w3.org/Graphics/SVG/1.1/DTD/svg11.dtd" [
	<!ENTITY ns_extend "http://ns.adobe.com/Extensibility/1.0/">
	<!ENTITY ns_ai "http://ns.adobe.com/AdobeIllustrator/10.0/">
	<!ENTITY ns_graphs "http://ns.adobe.com/Graphs/1.0/">
	<!ENTITY ns_vars "http://ns.adobe.com/Variables/1.0/">
	<!ENTITY ns_imrep "http://ns.adobe.com/ImageReplacement/1.0/">
	<!ENTITY ns_sfw "http://ns.adobe.com/SaveForWeb/1.0/">
	<!ENTITY ns_custom "http://ns.adobe.com/GenericCustomNamespace/1.0/">
	<!ENTITY ns_adobe_xpath "http://ns.adobe.com/XPath/1.0/">
]>
<svg version="1.1" id="Ebene_1" xmlns:x="&ns_extend;" xmlns:i="&ns_ai;" xmlns:graph="&ns_graphs;"
	 xmlns="http://www.w3.org/2000/svg" xmlns:xlink="http://www.w3.org/1999/xlink" x="0px" y="0px" width="300px" height="300px"
	 viewBox="0 0 300 300" enable-background="new 0 0 300 300" xml:space="preserve">
<metadata>
	<sfw  xmlns="&ns_sfw;">
		<slices></slices>
		<sliceSourceBounds  height="300" width="300" x="-49.5" y="-50.5" bottomLeftOrigin="true"></sliceSourceBounds>
	</sfw>
</metadata>
<path fill="#336666" d="M229,301H73c-39.601,0-72-16.9-72-56.5V61C1,21.4,33.399,1,73,1h156c39.601,0,72,20.9,72,60.5V245
	C301,284.6,268.6,301,229,301z"/>
<g id="Layer_1">
	<g>
		<g>
			<path fill="#FFFFFF" d="M218.58,179.185c-3.325-9.853-7.6-19.469-11.041-29.324c-1.188-3.325-2.375-6.767-3.326-10.328
				c2.257,1.066,4.749-0.239,4.986-2.968c0.95-8.432,1.308-16.86,1.188-25.29c-0.119-7.954-0.476-16.147-2.137-23.864
				c-0.95-4.393-2.731-9.022-6.412-11.753c-2.493-1.9-5.698-2.375-8.667-2.375c-0.356-0.356-0.831-0.593-1.425-0.831
				c-5.699-1.663-11.516-1.425-17.452-1.306c-2.018,0-3.919-0.119-5.579-0.475c-1.781-0.95-3.563-1.781-5.344-2.612
				c-0.593-0.594-1.187-1.188-1.78-1.9c-2.375-3.206-3.324-7.243-6.056-10.329c-2.611-2.968-6.173-3.087-9.498-2.019
				c-2.375,0.119-4.867,0.475-7.124,0.712c-6.173,0.712-12.347,1.187-18.521,1.899c-6.648,0.594-13.416,1.188-20.065,0.95
				c-0.119,0-0.356,0-0.475,0c-0.356,0-0.593,0-0.95,0c-0.238,0-0.475,0-0.593,0c-9.142,0.594-12.348,9.498-13.179,17.571
				c-0.238,2.256-0.356,4.63-0.356,6.886c-0.119,2.137,0,4.274,0,6.411c0,4.037,0.237,8.073,0.356,12.11
				c0,0.475-0.119,0.95-0.119,1.425c-0.713,7.123-2.612,15.197-1.307,22.321c-0.355,4.985-0.355,9.853,0.594,14.72
				c0.713,3.562,2.256,7.244,5.106,9.619c3.562,2.848,7.835,3.204,12.228,2.611c0.356,0,0.712-0.236,0.95-0.357
				c0,1.663,0,3.207,0,4.87c0,7.124,0.476,14.365,0.594,21.488c0.118,3.562,0.118,7.124,0.238,10.686
				c-0.12,2.375,0,4.749,0.356,7.123c0.118,1.663,0.237,3.323,0.476,4.868c0,6.054,0.236,13.417,6.054,16.502
				c3.324,1.781,7.242,1.781,10.923,1.781c2.849,0,5.817-0.118,8.667-0.238c0.356-4.035,0.594-8.19,0.712-12.346
				c0.12-4.87,0.476-9.618,0.357-14.486c-0.12-3.68-0.238-7.36-0.12-11.04c0-0.475,0.12-1.068,0.12-1.662
				c-2.375-0.357-4.513,0.712-5.462-3.563c-1.425-6.769-0.712-14.246-0.356-21.016c0.238-4.867-1.187-11.99,2.85-15.788
				c4.985-4.631,15.908-4.395,22.083-3.919c6.647,0.475,13.416,1.663,20.065,1.781c1.305,0,2.968,0.951,3.204,2.375
				c1.662,9.616,1.9,21.134,0.95,30.868c-0.236,2.138-0.236,5.699-2.374,6.888c-1.545,0.829-3.562-0.119-5.225-0.712
				c-0.118,1.424-0.118,2.848-0.237,4.273c0,6.411,1.188,12.82,1.78,19.351c0.477,4.275,0.477,8.668,0.477,12.941
				c-0.12,0.238-0.12,0.476-0.238,0.593c0.356,0.477,0.712,1.188,0.712,2.021c0,0.83,0,1.66-0.118,2.493
				c3.918-0.833,7.835-1.188,11.872-1.427c4.631-0.236,10.447,0.12,14.009-3.441c3.088-3.088,1.781-9.024,1.308-12.823
				c-0.476-4.866,0-9.854-1.069-14.722c6.648-1.187,13.297-1.543,20.064-0.948C217.511,183.815,219.292,181.205,218.58,179.185z
				 M158.624,130.628c-7.006,3.798-17.216,2.847-21.371-4.631c-2.612-4.631-2.968-10.924-0.356-15.554
				c3.324-5.699,9.261-9.022,15.908-7.835c0.238,0,0.356,0.119,0.594,0.119c4.037-0.476,8.074,0.95,10.448,4.986
				C168.36,115.311,166.816,126.234,158.624,130.628z"/>
			<path fill="#FFFFFF" d="M185.099,27.455c-2.019-0.594-4.037-0.594-5.818-0.237c-3.442,0.237-6.291,2.73-8.547,5.342
				c-1.068,1.188-2.018,2.375-2.85,3.681c-3.68,5.699-5.58,13.416-2.73,19.827c1.425,3.087,4.63,5.224,7.836,6.055
				c0.475,0.119,0.831,0.238,1.306,0.238c2.255,0.712,4.749,0.831,7.36,0.356c7.361-1.188,14.129-7.479,15.554-14.841
				C198.752,39.684,193.172,29.948,185.099,27.455z"/>
			<path fill="#FFFFFF" d="M130.01,17.126c-7.36-0.95-17.927,2.256-21.251,9.498c-1.543,3.324-1.543,6.649-0.593,9.854
				c-0.12,4.274,1.187,8.548,4.036,11.873c5.58,6.53,16.027,6.648,22.439,1.543C145.564,41.227,146.751,19.263,130.01,17.126z"/>
		</g>
	</g>
</g>
<g>
	<path fill="#FFFFFF" d="M31.986,236.146h17.426v3.504h-13.25v10.753h12.241v3.456H36.161V268.5h-4.176V236.146z"/>
	<path fill="#FFFFFF" d="M65.922,268.5l-0.336-2.929h-0.144c-1.297,1.824-3.793,3.457-7.104,3.457c-4.705,0-7.105-3.313-7.105-6.673
		c0-5.616,4.993-8.688,13.97-8.641v-0.48c0-1.92-0.528-5.376-5.28-5.376c-2.16,0-4.417,0.672-6.049,1.728l-0.96-2.784
		c1.92-1.248,4.704-2.063,7.633-2.063c7.104,0,8.833,4.848,8.833,9.505v8.688c0,2.016,0.096,3.984,0.384,5.568H65.922z
		 M65.298,256.643c-4.608-0.096-9.841,0.721-9.841,5.232c0,2.736,1.824,4.033,3.984,4.033c3.024,0,4.944-1.921,5.616-3.889
		c0.145-0.432,0.24-0.912,0.24-1.344V256.643z"/>
	<path fill="#FFFFFF" d="M76.193,251.555c0-2.4-0.048-4.368-0.191-6.289h3.696l0.191,3.745h0.145
		c1.296-2.209,3.456-4.272,7.297-4.272c3.168,0,5.568,1.92,6.576,4.656h0.096c0.721-1.296,1.633-2.305,2.593-3.024
		c1.392-1.056,2.928-1.632,5.137-1.632c3.072,0,7.632,2.016,7.632,10.08V268.5h-4.128v-13.153c0-4.464-1.632-7.152-5.04-7.152
		c-2.4,0-4.272,1.776-4.993,3.84c-0.191,0.576-0.336,1.345-0.336,2.112V268.5h-4.128v-13.921c0-3.696-1.633-6.385-4.849-6.385
		c-2.641,0-4.561,2.112-5.232,4.225c-0.24,0.624-0.336,1.344-0.336,2.063V268.5h-4.129V251.555z"/>
	<path fill="#FFFFFF" d="M120.93,238.737c0.048,1.44-1.009,2.593-2.688,2.593c-1.488,0-2.544-1.152-2.544-2.593
		c0-1.488,1.104-2.64,2.64-2.64C119.921,236.098,120.93,237.249,120.93,238.737z M116.225,268.5v-23.234h4.225V268.5H116.225z"/>
	<path fill="#FFFFFF" d="M127.456,234.417h4.225V268.5h-4.225V234.417z"/>
	<path fill="#FFFFFF" d="M143.49,238.737c0.048,1.44-1.009,2.593-2.688,2.593c-1.488,0-2.544-1.152-2.544-2.593
		c0-1.488,1.104-2.64,2.64-2.64C142.481,236.098,143.49,237.249,143.49,238.737z M138.784,268.5v-23.234h4.225V268.5H138.784z"/>
	<path fill="#FFFFFF" d="M152.368,257.651c0.096,5.712,3.744,8.064,7.969,8.064c3.024,0,4.849-0.528,6.433-1.2l0.72,3.024
		c-1.488,0.672-4.032,1.44-7.729,1.44c-7.152,0-11.425-4.705-11.425-11.714c0-7.008,4.128-12.528,10.896-12.528
		c7.585,0,9.602,6.672,9.602,10.944c0,0.864-0.097,1.536-0.145,1.969H152.368z M164.753,254.627
		c0.049-2.688-1.104-6.865-5.856-6.865c-4.272,0-6.145,3.937-6.48,6.865H164.753z"/>
	<path fill="#FFFFFF" d="M174.064,251.555c0-2.4-0.048-4.368-0.191-6.289h3.744l0.24,3.841h0.096
		c1.152-2.208,3.841-4.368,7.681-4.368c3.217,0,8.209,1.92,8.209,9.889V268.5h-4.225v-13.394c0-3.744-1.392-6.864-5.376-6.864
		c-2.785,0-4.945,1.968-5.665,4.32c-0.192,0.528-0.288,1.248-0.288,1.969V268.5h-4.225V251.555z"/>
	<path fill="#FFFFFF" d="M201.136,268.5v-20.018h-3.265v-3.217h3.265v-1.248c0-6.145,3.601-10.129,10.129-10.129
		c2.16,0,4.704,0.673,5.904,1.536l-1.2,3.217c-1.008-0.721-2.832-1.345-4.896-1.345c-4.464,0-5.761,3.121-5.761,6.817v1.151h13.489
		V268.5h-4.176v-20.018h-9.313V268.5H201.136z"/>
	<path fill="#FFFFFF" d="M225.807,234.417h4.225V268.5h-4.225V234.417z"/>
	<path fill="#FFFFFF" d="M237.134,251.555c0-2.4-0.048-4.368-0.191-6.289h3.696l0.191,3.745h0.145
		c1.296-2.209,3.456-4.272,7.297-4.272c3.168,0,5.568,1.92,6.576,4.656h0.096c0.721-1.296,1.633-2.305,2.593-3.024
		c1.392-1.056,2.928-1.632,5.137-1.632c3.072,0,7.632,2.016,7.632,10.08V268.5h-4.128v-13.153c0-4.464-1.632-7.152-5.04-7.152
		c-2.4,0-4.272,1.776-4.993,3.84c-0.191,0.576-0.336,1.345-0.336,2.112V268.5h-4.128v-13.921c0-3.696-1.633-6.385-4.849-6.385
		c-2.641,0-4.561,2.112-5.232,4.225c-0.24,0.624-0.336,1.344-0.336,2.063V268.5h-4.129V251.555z"/>
</g>
</svg>
