<?xml version="1.0" encoding="utf-8"?>
<!-- Generator: Adobe Illustrator 16.0.3, SVG Export Plug-In . SVG Version: 6.00 Build 0)  -->
<!DOCTYPE svg PUBLIC "-//W3C//DTD SVG 1.1//EN" "http://www.w3.org/Graphics/SVG/1.1/DTD/svg11.dtd" [
	<!ENTITY ns_extend "http://ns.adobe.com/Extensibility/1.0/">
	<!ENTITY ns_ai "http://ns.adobe.com/AdobeIllustrator/10.0/">
	<!ENTITY ns_graphs "http://ns.adobe.com/Graphs/1.0/">
	<!ENTITY ns_vars "http://ns.adobe.com/Variables/1.0/">
	<!ENTITY ns_imrep "http://ns.adobe.com/ImageReplacement/1.0/">
	<!ENTITY ns_sfw "http://ns.adobe.com/SaveForWeb/1.0/">
	<!ENTITY ns_custom "http://ns.adobe.com/GenericCustomNamespace/1.0/">
	<!ENTITY ns_adobe_xpath "http://ns.adobe.com/XPath/1.0/">
]>
<svg version="1.1" id="Ebene_1" xmlns:x="&ns_extend;" xmlns:i="&ns_ai;" xmlns:graph="&ns_graphs;"
	 xmlns="http://www.w3.org/2000/svg" xmlns:xlink="http://www.w3.org/1999/xlink" x="0px" y="0px" width="300px" height="300px"
	 viewBox="0 0 300 300" enable-background="new 0 0 300 300" xml:space="preserve">
<metadata>
	<sfw  xmlns="&ns_sfw;">
		<slices></slices>
		<sliceSourceBounds  height="300" width="300" x="-50.5" y="-50.5" bottomLeftOrigin="true"></sliceSourceBounds>
	</sfw>
</metadata>
<path fill="#336666" d="M228,301H72C32.4,301,0,284.1,0,244.5V61C0,21.4,32.4,1,72,1h156c39.601,0,72,20.9,72,60.5V245
	C300,284.6,267.6,301,228,301z"/>
<g>
	<path fill="#FFFFFF" d="M59.81,263.411c1.872,1.152,4.608,2.112,7.488,2.112c4.272,0,6.769-2.256,6.769-5.521
		c0-3.024-1.728-4.752-6.096-6.433c-5.281-1.872-8.545-4.608-8.545-9.168c0-5.041,4.176-8.785,10.465-8.785
		c3.313,0,5.712,0.768,7.152,1.584l-1.152,3.408c-1.056-0.576-3.216-1.536-6.145-1.536c-4.416,0-6.097,2.641-6.097,4.849
		c0,3.024,1.969,4.513,6.433,6.24c5.473,2.112,8.257,4.753,8.257,9.505c0,4.993-3.696,9.313-11.329,9.313
		c-3.12,0-6.528-0.912-8.256-2.064L59.81,263.411z"/>
	<path fill="#FFFFFF" d="M83.906,252.851c0-2.977-0.096-5.376-0.191-7.585h3.792l0.192,3.984h0.096
		c1.729-2.832,4.465-4.512,8.257-4.512c5.616,0,9.841,4.752,9.841,11.809c0,8.353-5.089,12.481-10.561,12.481
		c-3.072,0-5.761-1.345-7.153-3.648h-0.096v12.625h-4.177V252.851z M88.082,259.043c0,0.624,0.096,1.2,0.192,1.729
		c0.768,2.928,3.312,4.944,6.336,4.944c4.465,0,7.057-3.648,7.057-8.977c0-4.656-2.448-8.641-6.912-8.641
		c-2.881,0-5.568,2.063-6.385,5.232c-0.145,0.527-0.288,1.151-0.288,1.728V259.043z"/>
	<path fill="#FFFFFF" d="M132.242,256.691c0,8.593-5.953,12.337-11.569,12.337c-6.288,0-11.137-4.608-11.137-11.953
		c0-7.776,5.088-12.337,11.521-12.337C127.73,244.738,132.242,249.586,132.242,256.691z M113.809,256.931
		c0,5.089,2.928,8.929,7.057,8.929c4.032,0,7.057-3.792,7.057-9.024c0-3.937-1.969-8.929-6.961-8.929
		S113.809,252.515,113.809,256.931z"/>
	<path fill="#FFFFFF" d="M137.569,252.515c0-2.736-0.048-5.089-0.191-7.249h3.696l0.144,4.561h0.192
		c1.056-3.12,3.601-5.088,6.433-5.088c0.479,0,0.815,0.048,1.2,0.144v3.984c-0.433-0.096-0.864-0.144-1.44-0.144
		c-2.977,0-5.089,2.256-5.664,5.424c-0.097,0.576-0.192,1.248-0.192,1.969V268.5h-4.177V252.515z"/>
	<path fill="#FFFFFF" d="M159.504,238.594v6.672h6.049v3.217h-6.049v12.529c0,2.88,0.816,4.512,3.168,4.512
		c1.104,0,1.921-0.144,2.448-0.288l0.192,3.169c-0.816,0.336-2.112,0.576-3.744,0.576c-1.969,0-3.553-0.624-4.561-1.776
		c-1.2-1.248-1.632-3.313-1.632-6.049v-12.673h-3.601v-3.217h3.601v-5.568L159.504,238.594z"/>
	<path fill="#FFFFFF" d="M170.736,268.5v-20.018h-3.265v-3.217h3.265v-1.248c0-6.145,3.601-10.129,10.129-10.129
		c2.16,0,4.704,0.673,5.904,1.536l-1.2,3.217c-1.008-0.721-2.832-1.345-4.896-1.345c-4.464,0-5.761,3.121-5.761,6.817v1.151h13.489
		V268.5h-4.176v-20.018h-9.313V268.5H170.736z"/>
	<path fill="#FFFFFF" d="M195.407,234.417h4.225V268.5h-4.225V234.417z"/>
	<path fill="#FFFFFF" d="M206.735,251.555c0-2.4-0.048-4.368-0.191-6.289h3.696l0.191,3.745h0.145
		c1.296-2.209,3.456-4.272,7.297-4.272c3.168,0,5.568,1.92,6.576,4.656h0.096c0.721-1.296,1.633-2.305,2.593-3.024
		c1.392-1.056,2.928-1.632,5.137-1.632c3.072,0,7.632,2.016,7.632,10.08V268.5h-4.128v-13.153c0-4.464-1.632-7.152-5.04-7.152
		c-2.4,0-4.272,1.776-4.993,3.84c-0.191,0.576-0.336,1.345-0.336,2.112V268.5h-4.128v-13.921c0-3.696-1.633-6.385-4.849-6.385
		c-2.641,0-4.561,2.112-5.232,4.225c-0.24,0.624-0.336,1.344-0.336,2.063V268.5h-4.129V251.555z"/>
</g>
<g id="Layer_1">
	<path fill="#FFFFFF" d="M234.762,73.917c-7.588-17.977-22.903-33.234-38.908-43.941C164.296,8.862,113.251,17.046,86.792,43.727
		c-15.327,15.459-23.293,36.812-25.18,58.223c-3.791,43.037,19.971,89.65,65.369,97.472c13.051,2.246,26.375,1.174,39.227-1.785
		c17.421-4.019,32.3-13.191,44.144-26.549c12.186-13.742,20.474-30.848,24.883-48.603
		C239.015,107.275,241.012,88.725,234.762,73.917z M174.743,30.302c1.628,0.947,3.191,0.554,4.259-0.421
		c3.422,1.209,6.663,2.701,9.668,4.491c8.561,5.093,16.509,11.664,23.359,19.163c-15.229-3.895-30.521-3.283-45.04,4.375
		c-6.039,3.188-12.09,7.101-16.544,12.375c-7.943-2.977-16.144-4.948-24.588-5.965c2.732-3.842,5.82-7.473,9.332-10.832
		c6.973-6.666,15.114-12.024,23.64-16.475c2.812-1.467,5.67-2.858,8.508-4.272C168.732,32.049,173.179,29.391,174.743,30.302z
		 M163.154,26.341c-1.07,0.567-2.085,1.122-3.014,1.602c-8.397,4.344-16.355,8.817-23.841,14.648
		c-7.737,6.024-14.003,13.118-19.031,21.029c-1.329-0.059-2.662-0.104-4.005-0.117c-2.549-0.027-5.058,0.08-7.543,0.276
		c0.882-2.58,1.605-5.206,2.074-7.893c0.899-5.139,0.325-9.701-1.816-14.421c-0.384-0.843-0.886-1.643-1.471-2.361
		C120.318,29.127,142.945,24.078,163.154,26.341z M97.171,44.428c0.509,0.009,1.041-0.115,1.587-0.41
		c0.424,0.637,0.755,1.36,1.032,2.062c0.644,1.635,0.868,3.165,0.904,4.899c0.104,4.679-1.571,9.48-3.433,13.848
		c-3.861,0.635-7.7,1.448-11.575,2.382c-2.623,0.631-5.279,1.286-7.789,2.206C82.543,59.87,88.957,51.293,97.171,44.428z
		 M74.961,79.744c3.164-4.188,11.018-4.783,15.724-5.991c0.919-0.236,1.836-0.454,2.757-0.656c-1.554,3.181-3.165,6.339-4.775,9.473
		c-3.167,6.161-6.58,12.23-10.641,17.853c-1.517,2.106-6.473,8.755-9.039,7.317c-0.09-0.05-0.181-0.092-0.27-0.135
		c0.297-9.025,1.792-18.016,4.517-26.534C73.872,80.821,74.472,80.395,74.961,79.744z M104.591,182.991
		c-11.168-7.018-20.113-17.319-26.204-29.447c-5.809-11.562-9.037-24.746-9.625-38.122c5.423,0.53,10.34-4.3,13.664-8.402
		c5.775-7.126,10.133-15.37,14.24-23.53c1.962-3.894,4.026-7.825,5.866-11.843c3.472-0.37,6.962-0.55,10.484-0.563
		c-3.029,5.917-5.485,12.199-7.429,18.771c-4.961,16.786-6.224,34.54-6.543,51.964C98.804,154.867,98.95,170.495,104.591,182.991z
		 M162.482,190.739c-12.294,2.737-25.21,3.318-37.553,0.598c-3.095-0.679-6.085-1.579-8.969-2.676
		c0.085-0.726-0.109-1.521-0.698-2.322c-8.561-11.636-8.723-28.343-8.686-42.171c0.039-15.371,1.137-30.948,4.62-45.938
		c2.217-9.515,5.487-18.587,10.172-26.866c8.594,0.66,16.875,2.537,24.866,5.436c-3.053,6.585-3.223,13.813-2.191,21.273
		c2.675,19.336,7.134,38.536,17.658,55.213c3.702,5.873,6.827,12.059,10.347,18.044c2.647,4.498,5.675,9.438,10.104,12.372
		C176.056,186.83,169.496,189.174,162.482,190.739z M206.43,164.089c-5.185,6.263-11.028,11.475-17.481,15.68
		c-0.396-0.792-1.066-1.474-2.056-1.879c-4.282-1.767-7.312-8.612-9.454-12.324c-2.854-4.941-5.324-10.12-8.441-14.908
		c-9.785-15.028-13.398-31.289-16.706-48.63c-1.434-7.511-2.414-15.407,0.937-22.394c2.767,1.237,5.498,2.586,8.191,4.058
		c12.721,6.954,24.549,15.988,34.771,26.252c9.548,9.579,19.729,22.204,20.344,36.324c0.033,0.801,0.282,1.456,0.649,1.997
		C214.08,153.857,210.494,159.177,206.43,164.089z M229.323,114.026c-1.39,7.847-3.654,15.593-6.722,23.009
		c-3.225-11.65-11.121-21.898-19.286-30.595c-11.206-11.937-24.935-22.087-39.274-29.923c-2.069-1.131-4.156-2.179-6.265-3.158
		c3.457-3.439,7.851-6.065,11.993-8.365c15.681-8.696,32.259-7.495,48.703-1.563c0.627,0.227,1.205,0.28,1.722,0.209
		c1.22,1.72,2.385,3.47,3.482,5.245c3.554,5.748,6.136,11.77,6.832,18.523C231.425,96.265,230.878,105.272,229.323,114.026z"/>
</g>
</svg>
