<?xml version="1.0" encoding="utf-8"?>
<!-- Generator: Adobe Illustrator 16.0.3, SVG Export Plug-In . SVG Version: 6.00 Build 0)  -->
<!DOCTYPE svg PUBLIC "-//W3C//DTD SVG 1.1//EN" "http://www.w3.org/Graphics/SVG/1.1/DTD/svg11.dtd" [
	<!ENTITY ns_extend "http://ns.adobe.com/Extensibility/1.0/">
	<!ENTITY ns_ai "http://ns.adobe.com/AdobeIllustrator/10.0/">
	<!ENTITY ns_graphs "http://ns.adobe.com/Graphs/1.0/">
	<!ENTITY ns_vars "http://ns.adobe.com/Variables/1.0/">
	<!ENTITY ns_imrep "http://ns.adobe.com/ImageReplacement/1.0/">
	<!ENTITY ns_sfw "http://ns.adobe.com/SaveForWeb/1.0/">
	<!ENTITY ns_custom "http://ns.adobe.com/GenericCustomNamespace/1.0/">
	<!ENTITY ns_adobe_xpath "http://ns.adobe.com/XPath/1.0/">
]>
<svg version="1.1" id="Layer_1" xmlns:x="&ns_extend;" xmlns:i="&ns_ai;" xmlns:graph="&ns_graphs;"
	 xmlns="http://www.w3.org/2000/svg" xmlns:xlink="http://www.w3.org/1999/xlink" x="0px" y="0px" width="270.548px"
	 height="270.548px" viewBox="291.583 68.493 270.548 270.548" enable-background="new 291.583 68.493 270.548 270.548"
	 xml:space="preserve">
<metadata>
	<sfw  xmlns="&ns_sfw;">
		<slices></slices>
		<sliceSourceBounds  width="270.548" height="270.548" y="161.459" x="291.083" bottomLeftOrigin="true"></sliceSourceBounds>
	</sfw>
</metadata>
<title>TARGET 1.1</title>
<g id="TARGETS">
	<g>
		<rect x="291.583" y="68.493" fill="#3F7E44" width="270.548" height="270.548"/>
	</g>
	<g>
		<g>
			<g>
				<path fill="#FFFFFF" d="M451.4,206.621h4.566v12.271c0,0.285,0.285,0.57,0.285,0.57l0,0h5.708c0.285,0,0.571-0.285,0.571-0.57
					l0,0v-12.558h9.132c5.993,0,10.845-4.852,10.845-10.845c0-2.854-1.142-5.422-3.139-7.42c4.852-2.854,6.563-8.847,3.71-13.698
					c-1.713-3.14-5.138-5.137-8.848-5.137h-0.57c-0.571-7.421-6.85-13.128-14.555-12.843c-7.135,0.57-12.843,6.563-12.843,13.698
					c0,1.998,0.571,3.996,1.427,5.993c-8.276,1.713-13.413,9.989-11.701,18.265C437.702,201.77,443.98,206.621,451.4,206.621
					L451.4,206.621z"/>
			</g>
			<g>
				<path fill="#FFFFFF" d="M432.851,226.028c0,1.427,1.142,2.568,2.568,2.568s2.568-1.142,2.568-2.568s-1.142-2.568-2.568-2.568
					l0,0C433.992,223.459,432.851,224.601,432.851,226.028z"/>
			</g>
			<g>
				<path fill="#FFFFFF" d="M444.837,226.028c-0.285,1.427,0.856,2.854,2.283,2.854c1.427,0.285,2.854-0.856,2.854-2.283
					c0-0.285,0-0.285,0-0.57c-0.285-1.427-1.427-2.568-2.854-2.283C445.979,223.744,444.837,224.886,444.837,226.028z"/>
			</g>
			<g>
				<path fill="#FFFFFF" d="M456.823,226.028c0,1.427,1.142,2.568,2.568,2.568s2.568-1.142,2.568-2.568s-1.142-2.568-2.568-2.568
					l0,0C457.965,223.459,456.823,224.601,456.823,226.028z"/>
			</g>
			<g>
				<path fill="#FFFFFF" d="M471.378,228.596c1.427,0.285,2.854-0.856,2.854-2.283c0.286-1.427-0.855-2.854-2.283-2.854
					c-0.285,0-0.285,0-0.57,0c-1.427,0.285-2.568,1.427-2.283,2.854C469.095,227.454,469.951,228.596,471.378,228.596z"/>
			</g>
			<g>
				<path fill="#FFFFFF" d="M480.511,226.028c0,1.427,1.141,2.568,2.568,2.568c1.427,0,2.568-1.142,2.568-2.568
					s-1.142-2.568-2.568-2.568l0,0C481.651,223.459,480.511,224.601,480.511,226.028z"/>
			</g>
			<g>
				<path fill="#FFFFFF" d="M438.272,216.895c0.286,1.427,1.428,2.568,2.854,2.283c1.142,0,2.283-1.142,2.283-2.283
					c0.285-1.427-0.856-2.854-2.283-2.854c-1.427-0.285-2.854,0.856-2.854,2.283C438.272,216.61,438.272,216.61,438.272,216.895z"/>
			</g>
			<g>
				<path fill="#FFFFFF" d="M478.228,219.463c1.427-0.285,2.568-1.427,2.283-2.854c0-1.142-1.142-2.283-2.283-2.283
					c-1.428-0.285-2.854,0.856-2.854,2.283c-0.285,1.427,0.856,2.854,2.283,2.854C477.941,219.463,477.941,219.463,478.228,219.463z
					"/>
			</g>
		</g>
		<g>
			<path fill="#FFFFFF" d="M395.179,119.863l-33.105,14.841l-3.139-1.142l5.993-2.568l8.847-8.562l-1.712-2.283l-21.119-12.558
				l25.685-1.427l6.564,9.133l8.847-1.713c0,0,7.706,4.852,6.278,7.991C397.462,120.149,395.179,119.863,395.179,119.863z"/>
		</g>
		<g>
			<g>
				<path fill="#FFFFFF" d="M500.487,168.094v60.502c0,0.57,0.571,0.856,0.856,0.856h22.26v-0.856l0,0v-21.689
					c0-0.571,0.571-1.142,1.142-1.142h11.131c0.57,0,1.142,0.57,1.142,1.142v22.546h3.71c0.57,0,0.855-0.571,0.855-0.856v-110.16
					c0-0.57-0.57-1.142-1.142-1.142c-0.285,0-0.285,0-0.57,0.286l0,0l-0.285,0.57l-9.133,11.701l-1.712,2.283l-12.558,15.981
					l-9.988,12.557l-5.137,6.279l-0.286,0.285C500.487,167.523,500.487,167.808,500.487,168.094z M537.018,145.548
					c0,0.57-0.571,1.142-1.142,1.142h-9.703c-0.571,0-1.142-0.571-1.142-1.142c0-0.285,0-0.571,0.285-0.571l0.285-0.285
					c2.568-3.425,7.135-8.847,9.133-11.415l0.285-0.286c0.285-0.285,0.57-0.285,0.856-0.285c0.57,0,0.855,0.285,1.141,0.856
					L537.018,145.548L537.018,145.548z M523.318,192.637c0-0.57,0.571-0.856,0.856-0.856h11.986c0.57,0,0.856,0.571,0.856,0.856
					v7.42c0,0.571-0.571,0.856-0.856,0.856H524.46c-0.57,0-0.856-0.571-0.856-0.856L523.318,192.637z M523.318,178.939
					c0-0.571,0.571-0.856,0.856-0.856h11.986c0.57,0,0.856,0.57,0.856,0.856v7.42c0,0.57-0.571,0.856-0.856,0.856H524.46
					c-0.57,0-0.856-0.286-0.856-0.856L523.318,178.939z M523.318,165.525c0-0.57,0.571-0.855,0.856-0.855h11.986
					c0.57,0,0.856,0.285,0.856,0.855v7.421c0,0.57-0.571,0.855-0.856,0.855H524.46c-0.57,0-0.856-0.285-0.856-0.855L523.318,165.525
					z M523.318,151.826c0-0.57,0.571-0.856,0.856-0.856h11.986c0.57,0,0.856,0.571,0.856,0.856v7.42
					c0,0.571-0.571,0.856-0.856,0.856H524.46c-0.57,0-0.856-0.571-0.856-0.856L523.318,151.826z M519.038,172.946
					c0,0.57-0.286,0.855-0.856,0.855H506.48c-0.57,0-0.856-0.57-0.856-0.855v-1.998v-0.285l0,0l0,0v-0.286
					c1.428-2.282,8.276-10.559,11.131-13.983l0.285-0.285c0.285-0.286,0.57-0.286,0.856-0.286c0.57,0,0.855,0.286,1.142,0.856
					V172.946z M506.195,178.082h11.986c0.57,0,0.856,0.57,0.856,0.856v7.42c0,0.57-0.286,0.856-0.856,0.856l0,0H506.48
					c-0.57,0-0.856-0.286-0.856-0.856l0,0v-7.42C505.339,178.653,505.91,178.082,506.195,178.082L506.195,178.082z M519.038,200.057
					c0,0.571-0.286,0.856-0.856,0.856H506.48c-0.57,0-0.856-0.571-0.856-0.856v-7.42c0-0.57,0.286-0.856,0.856-0.856h11.701
					c0.57,0,0.856,0.571,0.856,0.856V200.057z M505.339,206.621c0-0.571,0.571-1.142,1.142-1.142h11.416
					c0.57,0,1.142,0.57,1.142,1.142v6.849c0,0.571-0.571,1.142-1.142,1.142H506.48c-0.57,0-1.142-0.57-1.142-1.142V206.621z"/>
			</g>
			<g>
				<path fill="#FFFFFF" d="M502.2,162.101l-0.286-0.571c-0.285-0.285-0.285-0.856,0-1.142l29.396-37.101
					c0.285-0.285,0.855-0.285,1.142,0l0.285,0.286c0.285,0.285,0.285,0.855,0,1.141l-29.395,37.101
					C503.056,162.101,502.485,162.386,502.2,162.101z"/>
			</g>
		</g>
		<g>
			<g>
				<g>
					<path fill="#FFFFFF" d="M448.262,101.028c-5.138,3.139-6.85,9.703-3.71,14.84c3.139,5.137,9.703,6.85,14.84,3.71
						c5.137-3.139,6.85-9.703,3.71-14.84S453.113,97.888,448.262,101.028z"/>
				</g>
				<g>
					<path fill="#FFFFFF" d="M463.387,125.285l-2.283-3.995c-0.285-0.286-0.855-0.571-1.142-0.286
						c-0.285,0.286-0.57,0.856-0.285,1.142l2.568,3.996c0.286,0.285,0.856,0.57,1.142,0.285
						C463.387,126.142,463.673,125.571,463.387,125.285z"/>
				</g>
				<g>
					<path fill="#FFFFFF" d="M447.12,99.601c0.57-0.286,0.57-0.856,0.57-1.142l0,0l-2.283-3.996
						c-0.285-0.285-0.855-0.57-1.142-0.285c-0.285,0.285-0.285,0.571-0.285,1.142l2.283,3.995
						C446.549,99.601,446.835,99.886,447.12,99.601z"/>
				</g>
				<g>
					<path fill="#FFFFFF" d="M442.839,116.439c-0.285-0.286-0.856-0.571-1.142-0.286l-3.995,2.283
						c-0.285,0.286-0.571,0.856-0.285,1.142c0.285,0.285,0.855,0.571,1.142,0.285l3.995-2.282
						C443.124,117.58,443.124,117.009,442.839,116.439z"/>
				</g>
				<g>
					<path fill="#FFFFFF" d="M464.243,103.881c0.285,0.285,0.856,0.571,1.142,0.285l3.995-2.282
						c0.285-0.286,0.571-0.856,0.285-1.142c-0.285-0.286-0.855-0.571-1.141-0.286l-3.996,2.283
						C463.958,103.025,463.958,103.596,464.243,103.881z"/>
				</g>
				<g>
					<path fill="#FFFFFF" d="M454.54,128.139v-4.852c0-0.57-0.285-0.855-0.856-0.855c-0.57,0-0.856,0.285-0.856,0.855v4.852
						c0,0.571,0.571,0.856,0.856,0.856C454.255,128.995,454.54,128.71,454.54,128.139z"/>
				</g>
				<g>
					<path fill="#FFFFFF" d="M454.255,97.031V92.18c0-0.57-0.286-0.855-0.856-0.855c-0.571,0-0.856,0.285-0.856,0.855v4.852
						c0,0.571,0.571,0.856,0.856,0.856S454.255,97.603,454.255,97.031z"/>
				</g>
				<g>
					<path fill="#FFFFFF" d="M441.127,110.446c0-0.571-0.285-0.856-0.856-0.856h-4.852c-0.57,0-0.856,0.285-0.856,0.856
						c0,0.57,0.286,0.855,0.856,0.855h4.852C440.841,111.301,441.127,111.016,441.127,110.446z"/>
				</g>
				<g>
					<path fill="#FFFFFF" d="M466.812,111.016h4.852c0.571,0,0.856-0.285,0.856-0.856c0-0.57-0.285-0.855-0.856-0.855h-4.852
						c-0.57,0-0.856,0.285-0.856,0.855C465.955,110.731,466.241,111.016,466.812,111.016z"/>
				</g>
				<g>
					<path fill="#FFFFFF" d="M447.69,122.146c0.285-0.285,0-0.855-0.285-1.142c-0.285-0.285-0.856,0-1.142,0.286l-2.283,4.28
						c-0.285,0.571,0,0.856,0.285,1.142c0.286,0.285,0.856,0,1.142-0.285L447.69,122.146z"/>
				</g>
				<g>
					<path fill="#FFFFFF" d="M463.102,95.034c0.285-0.285,0-0.856-0.285-1.142s-0.856,0-1.142,0.285l0,0l-2.283,3.995
						c-0.285,0.286,0,0.856,0.285,1.142c0.285,0.286,0.856,0,1.142-0.285L463.102,95.034z"/>
				</g>
				<g>
					<path fill="#FFFFFF" d="M442.554,103.025l-3.995-2.282c-0.286-0.286-0.856,0-1.142,0.285c-0.286,0.285,0,0.855,0.285,1.142
						l3.995,2.283c0.285,0.285,0.856,0,1.142-0.286C443.124,103.881,442.839,103.311,442.554,103.025z"/>
				</g>
				<g>
					<path fill="#FFFFFF" d="M464.528,117.58l3.996,2.282c0.285,0.286,0.855,0,1.141-0.285c0.286-0.285,0-0.855-0.285-1.142
						l-3.995-2.283c-0.285-0.285-0.856,0-1.142,0.286C463.958,116.724,464.243,117.294,464.528,117.58z"/>
				</g>
			</g>
			<g>
				<path fill="#FFFFFF" d="M511.617,130.422l-8.275-7.705l2.854-3.14l-11.416-2.568l3.425,11.13l2.854-3.139l8.276,7.705
					c0.57,0.571,1.427,0.571,1.997,0l0,0C511.903,132.135,512.188,131.279,511.617,130.422z"/>
			</g>
			<g>
				<path fill="#FFFFFF" d="M485.362,130.422l7.99,7.706l-2.854,3.139l11.415,2.854l-3.425-11.416l-2.854,3.14l-8.276-7.706
					c-0.57-0.57-1.427-0.57-1.997,0l0,0C484.791,128.71,484.506,129.567,485.362,130.422
					C485.076,130.137,485.076,130.422,485.362,130.422z"/>
			</g>
		</g>
		<g>
			<g>
				<g>
					<path fill="#FFFFFF" d="M366.641,175.229c0-2.854-2.283-5.138-5.137-5.138s-5.137,2.283-5.137,5.138
						c0,2.854,2.283,5.137,5.137,5.137l0,0C364.357,180.365,366.641,178.082,366.641,175.229z"/>
				</g>
				<g>
					<path fill="#FFFFFF" d="M367.497,182.077h-11.701c-3.425,0.285-5.993,3.14-5.993,6.85v13.984c0,1.142,0.856,1.997,1.998,1.997
						l0,0c1.142,0,1.998-0.856,1.998-1.997l0,0v-11.986c0-0.571,0-1.142,0.856-1.142c0.856,0,0.571,0.57,0.571,0.855v35.959
						c0,1.713,1.141,2.854,2.854,2.854s2.854-1.142,2.854-2.854v-20.833c0-0.285,0.286-0.856,0.571-0.856c0,0,0,0,0.286,0l0,0
						c0.285,0,0.856,0.285,0.856,0.856l0,0v20.833c0,1.713,1.142,2.854,2.854,2.854c1.712,0,2.854-1.142,2.854-2.854v-35.959
						c0-0.285,0-0.855,0.571-0.855s0.856,0.57,0.856,1.142v11.986c0,1.142,0.571,1.997,1.712,2.282c1.142,0,1.998-0.57,2.283-1.712
						c0-0.285,0-0.285,0-0.57v-13.984C373.775,185.217,371.207,182.363,367.497,182.077z"/>
				</g>
			</g>
			<g>
				<g>
					<path fill="#FFFFFF" d="M403.741,176.084c0,2.854,1.998,5.138,4.852,5.138c2.854,0,5.137-1.998,5.137-4.853
						c0-2.854-1.998-5.137-4.852-5.137l0,0C406.024,171.233,403.741,173.231,403.741,176.084z"/>
				</g>
				<g>
					<path fill="#FFFFFF" d="M418.581,187.214c0,0-1.427-3.995-4.852-3.995h-10.56c-3.139,0-4.852,3.995-4.852,3.995l-3.995,13.414
						c0,0-0.856,2.568,1.427,3.139c2.283,0.571,2.568-1.712,2.568-1.712l3.425-11.13c0,0,0.285-0.856,0.856-0.571
						s0.286,1.142,0.286,1.142l-5.708,20.833h5.422v14.841c0,1.427,1.142,2.568,2.569,2.568c1.427,0,2.568-1.142,2.568-2.568l0,0
						v-14.841h1.427v14.841c0,1.427,1.142,2.568,2.569,2.568c1.427,0,2.568-1.142,2.568-2.568l0,0v-14.841h5.422l-5.708-20.833
						c0,0-0.285-0.856,0.286-1.142s0.856,0.571,0.856,0.571l3.425,11.13c0,0,0.571,2.283,2.568,1.712
						c1.998-0.57,1.427-3.139,1.427-3.139L418.581,187.214z"/>
				</g>
			</g>
			<g>
				<g>
					<path fill="#FFFFFF" d="M392.04,203.767c-0.571-0.285-1.427,0-1.998,0.571c-0.57,1.142-1.427,2.568-2.283,3.71
						c-0.286,0.285-0.571,0.285-1.142,0.285h-4.566c-0.571,0-0.856-0.285-1.142-0.57c-0.571-0.571-2.283-3.71-2.283-3.71
						c-0.286-0.286-0.571-0.571-1.142-0.571c-0.856,0-1.427,0.571-1.427,1.427c0,0.285,0,0.285,0,0.571l3.71,6.849
						c0,0.286,0.286,0.571,0.286,0.856v0.856l0,0c0,0.285,0,0.856-0.286,1.142l-1.712,7.135h1.998v5.137l0,0
						c0,1.142,0.856,1.712,1.712,1.712c0.856,0,1.712-0.855,1.712-1.712v-4.852c0,0,0,0,0-0.285h1.427c0,0,0,0,0,0.285v5.137
						c0,1.142,1.142,1.713,1.998,1.713c0.856,0,1.427-0.856,1.712-1.713v-5.137h1.998l-1.712-7.135c0-0.285,0-0.57,0-0.856v-0.57
						l0,0v-0.856c0-0.285,0-0.57,0.285-0.856l3.425-6.278l0.285-0.57C392.896,204.623,392.611,204.053,392.04,203.767
						L392.04,203.767z"/>
				</g>
				<g>
					<path fill="#FFFFFF" d="M384.334,206.05c1.998,0,3.71-1.712,3.71-3.71s-1.712-3.71-3.71-3.71s-3.71,1.712-3.71,3.71
						S382.337,206.05,384.334,206.05L384.334,206.05z"/>
				</g>
			</g>
			<g>
				<g>
					<path fill="#FFFFFF" d="M327.828,177.511c0.285,2.854,2.568,4.852,5.422,4.566c2.568-0.285,4.281-1.997,4.566-4.566
						c0-1.712-0.856-3.424-2.569-4.28c0.286-0.285,0.286-0.571,0.286-0.856c-0.286-1.427-1.712-2.283-3.139-1.712
						c-0.856,0.285-1.712,0.855-1.712,1.712c0,0.285,0,0.571,0.285,0.856C328.969,174.087,327.828,175.799,327.828,177.511z"/>
				</g>
				<g>
					<path fill="#FFFFFF" d="M342.668,187.214c0,0-1.427-3.71-4.566-3.71h-10.56c-3.139,0-4.566,3.71-4.566,3.71l-3.996,13.414
						c0,0-0.571,1.997,0.856,2.854v0.285l-4.852,25.114c0,0.285,0.285,0.856,0.571,0.856l0,0l0,0c0.285,0,0.856,0,0.856-0.571l0,0
						l4.852-25.113v-0.286c1.142-0.285,1.712-1.712,1.712-1.712l3.425-11.13c0,0,0.285-0.856,0.856-0.571s0.285,1.142,0.285,1.142
						l-5.708,20.833h5.137v14.841c0,1.427,1.142,2.568,2.568,2.568s2.568-1.142,2.568-2.568v-14.841h1.427v14.841
						c0.286,1.427,1.427,2.568,2.854,2.283c1.142,0,2.283-1.142,2.283-2.283v-14.841h5.422l-5.708-20.833
						c0,0-0.286-0.856,0.285-1.142s0.856,0.571,0.856,0.571l3.425,11.13c0,0,0.571,2.283,2.568,1.712
						c1.998-0.57,1.427-3.139,1.427-3.139L342.668,187.214z"/>
				</g>
			</g>
		</g>
		<g>
			<g>
				<rect x="312.131" y="238.299" fill="#FFFFFF" width="53.653" height="15.981"/>
			</g>
			<g>
				<rect x="370.636" y="238.299" fill="#FFFFFF" width="53.653" height="15.981"/>
			</g>
			<g>
				<rect x="429.426" y="238.299" fill="#FFFFFF" width="53.653" height="15.981"/>
			</g>
			<g>
				<rect x="488.216" y="238.299" fill="#FFFFFF" width="53.653" height="15.981"/>
			</g>
			<g>
				<rect x="312.417" y="260.845" fill="#FFFFFF" width="229.738" height="15.981"/>
			</g>
		</g>
	</g>
	<g>
		<path d="M541.013,294.806h-0.285l-0.571,0.285c-7.135,3.71-29.681,12.271-49.942-7.135c-0.286-0.285-0.856-0.57-1.142-0.57
			c-0.286,0-0.571,0.285-1.142,0.57c-5.993,4.566-33.962,23.402-58.79,0.286l-0.285-0.286c-0.286-0.285-0.571-0.285-0.856-0.285
			s-0.571,0-0.856,0.285l-0.285,0.286c-24.829,23.116-52.512,4.28-58.79-0.286c-0.285-0.285-0.571-0.57-1.142-0.57
			s-0.856,0.285-1.142,0.57c-20.263,19.406-42.808,10.56-49.943,7.135l-0.571-0.285h-0.285c-0.856,0-1.427,0.57-1.427,1.427v9.703
			c0,0.285,0,0.856,0.286,0.856c23.402,20.548,45.947,1.427,51.084-3.71c0.285-0.286,0.285-0.286,0.571-0.571
			c0.285,0,0.285-0.285,0.571-0.285c0.285,0,0.856,0.285,1.142,0.57c26.541,25.4,54.509,4.852,60.216,0l0.571-0.57
			c0,0,0.285-0.285,0.57-0.285c0.286,0,0.286,0,0.571,0.285l0.57,0.57c5.708,4.852,33.676,25.4,60.217,0l0,0
			c0.571-0.57,1.142-0.57,1.713,0c0.285,0,0.285,0.286,0.285,0.286c5.137,5.137,27.397,24.258,50.799,3.71
			c0.286-0.285,0.286-0.571,0.571-0.856v-9.988C542.154,295.376,541.583,294.806,541.013,294.806"/>
	</g>
</g>
</svg>
