<?xml version="1.0" encoding="utf-8"?>
<!-- Generator: Adobe Illustrator 16.0.3, SVG Export Plug-In . SVG Version: 6.00 Build 0)  -->
<!DOCTYPE svg PUBLIC "-//W3C//DTD SVG 1.1//EN" "http://www.w3.org/Graphics/SVG/1.1/DTD/svg11.dtd" [
	<!ENTITY ns_extend "http://ns.adobe.com/Extensibility/1.0/">
	<!ENTITY ns_ai "http://ns.adobe.com/AdobeIllustrator/10.0/">
	<!ENTITY ns_graphs "http://ns.adobe.com/Graphs/1.0/">
	<!ENTITY ns_vars "http://ns.adobe.com/Variables/1.0/">
	<!ENTITY ns_imrep "http://ns.adobe.com/ImageReplacement/1.0/">
	<!ENTITY ns_sfw "http://ns.adobe.com/SaveForWeb/1.0/">
	<!ENTITY ns_custom "http://ns.adobe.com/GenericCustomNamespace/1.0/">
	<!ENTITY ns_adobe_xpath "http://ns.adobe.com/XPath/1.0/">
]>
<svg version="1.1" id="Layer_1" xmlns:x="&ns_extend;" xmlns:i="&ns_ai;" xmlns:graph="&ns_graphs;"
	 xmlns="http://www.w3.org/2000/svg" xmlns:xlink="http://www.w3.org/1999/xlink" x="0px" y="0px" width="320.054px"
	 height="320.054px" viewBox="266.804 81.027 320.054 320.054" enable-background="new 266.804 81.027 320.054 320.054"
	 xml:space="preserve">
<metadata>
	<sfw  xmlns="&ns_sfw;">
		<slices></slices>
		<sliceSourceBounds  width="320.054" height="320.054" x="266.304" y="99.42" bottomLeftOrigin="true"></sliceSourceBounds>
	</sfw>
</metadata>
<title>TARGET 1 B copy</title>
<g id="TARGETS">
	<g>
		<rect x="266.804" y="81.027" fill="#4C9F38" width="320.054" height="320.054"/>
	</g>
	<g>
		<g>
			<path fill="#FFFFFF" d="M524.738,267.387c6.077,0,10.804-4.727,10.804-10.804s-4.727-10.804-10.804-10.804
				s-10.804,4.727-10.804,10.804C513.597,262.66,518.661,267.387,524.738,267.387C524.4,267.387,524.4,267.387,524.738,267.387z"/>
		</g>
		<g>
			<path fill="#FFFFFF" d="M537.229,271.776h-0.675h-23.633h-0.676c-7.427,0.676-13.166,6.752-13.166,14.518v30.047
				c0.337,2.363,2.363,4.052,4.727,3.714c2.025-0.338,3.713-1.688,3.713-3.714v-25.996c0-1.013,0.338-2.363,2.026-2.363
				c1.351,0,1.351,1.351,1.351,2.026v77.313c-0.338,3.376,2.362,6.076,5.739,6.414c3.376,0.338,6.076-2.363,6.414-5.739
				c0-0.338,0-0.675,0-1.013v-43.89c0-1.013,0.676-1.688,1.688-1.688c0,0,0,0,0.337,0l0,0c1.014,0,1.688,0.675,1.688,1.35v0.338
				v44.564c0,3.376,2.701,6.077,6.077,6.077s6.077-2.701,6.077-6.077v-77.313c0-0.675,0.337-2.025,1.351-2.025
				c1.688,0,2.025,1.351,2.025,2.363v25.996c0.338,2.363,2.363,4.051,4.727,3.713c2.025-0.337,3.714-1.688,3.714-3.713v-30.047
				C550.396,278.865,544.657,272.451,537.229,271.776z"/>
		</g>
		<g>
			<path fill="#FFFFFF" d="M429.532,272.788c5.739,0,10.128-4.389,10.128-10.128s-4.389-10.128-10.128-10.128
				s-10.128,4.389-10.128,10.128S423.793,272.788,429.532,272.788z"/>
		</g>
		<g>
			<path fill="#FFFFFF" d="M458.566,313.302l-8.44-27.685c0,0-3.038-8.103-9.79-8.103h-21.607c-6.752,0-9.791,8.103-9.791,8.103
				l-8.44,27.685c0,0.675-0.337,1.013-0.337,1.688c-0.338-0.338-0.675-0.675-1.013-0.675c-1.688-0.676-3.376-0.338-4.389,1.351l0,0
				c-1.688,3.038-3.376,5.739-5.402,8.439c-0.675,0.676-1.688,1.351-2.701,1.351H376.19c-1.013,0-2.026-0.337-2.363-1.351
				c-1.351-1.35-5.402-8.439-5.402-8.777c-1.013-1.351-2.701-1.688-4.389-1.013c-0.337,0.337-0.675,0.675-1.013,1.013v-29.372
				c0-7.428-5.739-13.842-13.167-14.518h-0.675h-23.633h-0.675c-7.427,0.676-13.167,7.09-13.167,14.518v30.047
				c0,1.351,0.675,2.701,2.026,3.376l-10.128,51.654c-0.337,1.014,0.338,2.026,1.351,2.363l0,0h0.337
				c1.013,0,1.688-0.675,2.026-1.688l9.791-51.992c1.688-0.675,2.701-2.025,2.701-4.051v-25.321c0-1.013,0.337-2.363,2.025-2.363
				c1.351,0,1.351,1.351,1.688,2.026v77.313c0,3.376,2.701,6.076,6.077,6.076s6.077-2.7,6.077-6.076v-44.228
				c-0.338-1.013,0.337-1.688,1.35-2.025c1.013-0.338,1.688,0.338,2.026,1.351c0,0.337,0,0.337,0,0.675v44.564
				c0,3.376,2.701,6.077,6.077,6.077c3.376,0,6.077-2.701,6.077-6.077v-77.313c0-0.675,0.338-2.025,1.688-2.025
				c1.688,0,2.026,1.351,2.026,2.363v25.996c0,2.363,2.025,4.051,4.051,4.051c1.688,0,3.039-1.013,3.714-2.363v0.338l8.778,15.53
				c0.337,0.675,0.337,1.351,0.675,2.025v2.363l0,0c0,1.013,0,1.688-0.338,2.701l-4.051,16.205h4.727v12.153l0,0
				c-0.337,2.363,1.351,4.39,3.714,4.727c2.363,0.338,4.389-1.35,4.727-3.713c0-0.338,0-0.338,0-0.676v-12.153h2.701
				c0,0,0,0.337,0,0.675v11.479c0,2.363,2.025,4.052,4.051,4.052s4.051-2.026,4.051-4.052v-12.153h4.389l-4.051-16.543
				c-0.338-0.676-0.338-1.351-0.338-2.026v-0.675l0,0v-2.363c0-0.675,0.338-1.351,0.675-2.025l8.103-14.518l0.675-1.351v-0.337
				c0.338,1.013,1.351,1.688,2.701,2.025c4.389,1.351,5.739-3.714,5.739-3.714l6.752-23.295c0,0,0.338-1.688,1.688-1.351
				c1.351,0.338-0.337,2.025-0.337,2.025l-11.816,43.552h11.141v31.061c0.337,3.038,2.701,5.063,5.74,5.063
				c2.7-0.337,4.727-2.363,5.063-5.063v-31.061h3.039v31.061c0.337,3.038,2.7,5.063,5.739,5.063
				c2.701-0.337,4.727-2.363,5.064-5.063v-31.061h11.141l-12.154-43.552c0,0-0.675-2.025,0.676-2.362
				c1.351-0.338,1.688,1.35,1.688,1.35l6.753,23.295c0,0,1.35,5.064,5.739,3.714C459.917,318.365,458.566,313.302,458.566,313.302z"
				/>
		</g>
		<g>
			<path fill="#FFFFFF" d="M337.027,267.387c6.077,0,10.804-4.727,10.804-10.804s-4.727-10.804-10.804-10.804
				c-6.077,0-10.803,4.727-10.803,10.804S330.95,267.387,337.027,267.387L337.027,267.387z"/>
		</g>
		<g>
			<path fill="#FFFFFF" d="M478.485,320.054c4.727,0,8.778-3.714,8.778-8.778c0-4.727-3.714-8.439-8.778-8.439
				s-8.44,3.713-8.44,8.439C469.708,316.002,473.759,320.054,478.485,320.054L478.485,320.054z"/>
		</g>
		<g>
			<path fill="#FFFFFF" d="M495.704,336.597c-5.064-13.505-6.077-13.167-10.804-13.505h-13.167c-4.727,0-5.739,0-10.804,13.505
				c-0.675,2.025-3.714,9.453-4.051,9.79c-0.338,0.338-1.351,3.039,1.688,4.052c3.039,1.013,3.714-2.363,3.714-2.363l5.401-13.167
				c0,0,0-0.338,0.338-0.338s0.338,0.338,0.338,0.338v33.761l0,0c0,2.363,1.688,4.39,4.389,4.727c0,0,0,0,0.338,0
				c2.363,0,4.389-2.025,4.389-4.389c0,0,0,0,0-0.338v-13.504c0,0,0-2.025,1.351-2.025s1.351,2.025,1.351,2.025v13.504
				c0,2.363,1.688,4.39,4.389,4.727l0,0c2.363,0,4.389-1.688,4.389-4.051v-0.338l0,0v-33.761c0-0.338,0-0.338,0-0.338l0.338,0.338
				l4.727,11.816c0,0,1.351,3.038,4.052,2.025c1.35-0.675,2.025-2.363,1.35-4.051C499.08,344.699,496.379,338.622,495.704,336.597z"
				/>
		</g>
		<g>
			<path fill="#FFFFFF" d="M381.591,319.716c4.727,0,8.44-3.714,8.44-8.44s-3.714-8.44-8.44-8.44s-8.44,3.714-8.44,8.44l0,0
				C372.813,316.002,376.865,319.716,381.591,319.716z"/>
		</g>
		<g>
			<g>
				<polygon fill="#FFFFFF" points="390.032,121.539 384.292,121.539 384.292,229.912 461.942,229.912 461.942,223.497 
					390.032,223.497 				"/>
			</g>
			<g>
				<path fill="#FFFFFF" d="M395.771,108.372v108.373h77.65V108.372H395.771z M405.562,147.198h14.854l4.389-10.128
					c0.338-0.675,1.013-1.351,2.025-1.013c1.013,0,1.688,0.675,1.688,1.351l5.401,16.88l10.466-28.359
					c0.338-0.675,1.013-1.35,1.688-1.35c0.675,0,1.688,0.337,2.025,1.35l4.052,9.453c0.337,1.014,0,2.363-1.014,2.701
					c-1.013,0.338-2.363,0-2.7-1.013l-2.025-5.064l-10.804,29.035c-0.338,0.675-1.013,1.35-2.026,1.35l0,0
					c-1.013,0-1.688-0.675-2.025-1.35l-5.401-17.557l-2.701,6.415c-0.338,0.675-1.013,1.351-1.688,1.351h-16.205V147.198z
					 M463.969,202.228c0,0.338-0.338,0.338-0.338,0.676h-57.731c-0.337,0-0.337-0.338-0.337-0.676v-9.115
					c0-0.338,0.337-0.338,0.337-0.338h57.731c0.337,0,0.337,0.338,0.337,0.338L463.969,202.228L463.969,202.228z M463.969,186.361
					c0,0.338-0.338,0.338-0.338,0.338h-57.731c-0.337,0-0.337-0.338-0.337-0.338v-9.115c0-0.338,0.337-0.338,0.337-0.338h57.731
					c0.337,0,0.337,0.338,0.337,0.338L463.969,186.361L463.969,186.361z M462.955,148.548L462.955,148.548l-6.752,7.09l-7.09-7.09
					c-1.013-1.013-1.351-2.025-1.351-3.376c-0.337-2.701,1.688-4.727,4.39-5.064c0,0,0,0,0.337,0c1.351,0,2.701,1.351,3.714,2.363
					c1.013-1.013,2.363-2.363,3.714-2.363c2.701,0,4.727,2.363,4.389,4.727v0.338C464.306,146.523,463.631,147.535,462.955,148.548z
					"/>
			</g>
		</g>
	</g>
</g>
</svg>
