<?xml version="1.0" encoding="utf-8"?>
<!-- Generator: Adobe Illustrator 16.0.3, SVG Export Plug-In . SVG Version: 6.00 Build 0)  -->
<!DOCTYPE svg PUBLIC "-//W3C//DTD SVG 1.1//EN" "http://www.w3.org/Graphics/SVG/1.1/DTD/svg11.dtd" [
	<!ENTITY ns_extend "http://ns.adobe.com/Extensibility/1.0/">
	<!ENTITY ns_ai "http://ns.adobe.com/AdobeIllustrator/10.0/">
	<!ENTITY ns_graphs "http://ns.adobe.com/Graphs/1.0/">
	<!ENTITY ns_vars "http://ns.adobe.com/Variables/1.0/">
	<!ENTITY ns_imrep "http://ns.adobe.com/ImageReplacement/1.0/">
	<!ENTITY ns_sfw "http://ns.adobe.com/SaveForWeb/1.0/">
	<!ENTITY ns_custom "http://ns.adobe.com/GenericCustomNamespace/1.0/">
	<!ENTITY ns_adobe_xpath "http://ns.adobe.com/XPath/1.0/">
]>
<svg version="1.1" id="Layer_1" xmlns:x="&ns_extend;" xmlns:i="&ns_ai;" xmlns:graph="&ns_graphs;"
	 xmlns="http://www.w3.org/2000/svg" xmlns:xlink="http://www.w3.org/1999/xlink" x="0px" y="0px" width="500px" height="500px"
	 viewBox="177 0 500 500" enable-background="new 177 0 500 500" xml:space="preserve">
<metadata>
	<sfw  xmlns="&ns_sfw;">
		<slices></slices>
		<sliceSourceBounds  width="500" height="500" y="0.5" x="176.5" bottomLeftOrigin="true"></sliceSourceBounds>
	</sfw>
</metadata>
<title>TARGET 1 B copy 19</title>
<g id="TARGETS">
	<g>
		<rect x="177" y="0" fill="#19486A" width="500" height="500"/>
	</g>
	<g>
		<g>
			<path fill="#FFFFFF" d="M519.827,149.262c0-26.372-20.569-47.996-46.941-49.051c-8.966-25.316-36.92-38.502-62.236-29.009
				c-13.713,4.747-24.262,15.823-29.008,29.009c-26.899,1.055-47.996,23.734-46.941,50.633c0.528,14.24,7.384,27.953,18.987,36.92
				c-1.055,4.219-2.109,8.966-2.109,13.713c0,26.898,21.625,48.523,48.523,48.523c10.021,0,19.515-3.165,27.426-8.439
				c22.68,14.769,52.743,8.967,67.511-13.713c7.911-11.604,10.021-26.371,6.329-40.084
				C512.971,178.27,519.827,164.03,519.827,149.262 M465.502,116.561c0,19.516-14.24,35.865-33.228,38.503
				c-0.527-2.11-0.527-4.22-0.527-5.802c0-19.516,14.24-35.338,33.228-38.503C466.029,112.869,466.029,114.979,465.502,116.561
				 M427,228.375c-15.295-14.768-15.823-39.557-1.055-54.853l0.527-0.527C441.768,187.764,442.295,212.553,427,228.375
				C427.527,228.375,427,228.375,427,228.375 M388.498,110.759c18.987,2.638,33.228,18.987,33.228,38.503
				c0,2.109,0,4.219-0.527,5.802c-18.987-2.638-33.228-18.988-33.228-38.503C387.971,114.979,387.971,112.869,388.498,110.759
				 M417.506,166.666c-6.329,13.186-20.042,21.625-34.81,21.625c-6.329,0-12.131-1.582-17.933-4.22
				c6.329-13.186,20.042-21.624,34.81-21.624C405.903,162.448,411.705,164.03,417.506,166.666 M435.966,166.139
				c18.987-10.021,42.722-2.637,52.216,16.878c0,0,0,0.527,0.527,0.527C469.722,193.566,445.987,186.182,435.966,166.139
				C436.494,166.666,435.966,166.666,435.966,166.139 M427,77.531c15.295,0,29.536,8.967,35.865,23.207
				c-15.823,2.637-29.009,13.186-35.865,27.426c-6.856-14.24-20.042-24.789-35.865-27.426C397.464,87.026,411.177,78.059,427,77.531
				 M343.667,149.262c0-20.043,14.768-36.393,34.81-38.503c-0.527,2.11-0.527,4.22-0.527,6.329c0,13.714,5.802,26.899,15.823,35.865
				c-15.823,1.582-30.063,11.076-37.447,25.316C348.414,170.359,343.667,159.81,343.667,149.262 M360.544,200.949
				c0-2.638,0.527-5.274,1.055-7.911c14.241,6.856,31.118,6.329,44.831-1.056c-0.527,3.165-1.055,5.802-1.055,8.967
				c0,12.658,4.747,24.789,13.713,33.755c-18.459,11.076-42.194,4.747-53.27-13.713
				C362.126,214.662,360.544,207.806,360.544,200.949 M492.929,200.422c0,21.624-17.405,39.029-39.03,39.029
				c-6.856,0-13.186-1.582-18.987-5.274c8.439-8.966,13.186-21.097,13.186-33.228c0-3.165-0.527-6.329-1.055-9.494
				c7.384,4.22,15.296,6.329,23.734,6.329c7.384,0,14.768-1.582,21.097-4.746C492.4,195.675,492.929,198.312,492.929,200.422
				 M460.228,152.426c10.021-8.966,15.823-22.151,15.823-35.865c0-2.109,0-4.219-0.527-6.329
				c21.097,2.638,36.393,21.625,34.282,42.722c-1.055,9.494-5.802,17.933-12.658,24.262
				C489.764,164.03,476.051,154.535,460.228,152.426"/>
		</g>
		<g>
			<g>
				<path fill="#FFFFFF" d="M603.16,359.177l-35.865-65.4c-0.527-1.055-2.109-1.583-3.164-1.055l-45.886,22.679
					c-1.055,0.527-2.638,1.055-4.22,1.055s-3.165-0.527-4.747-1.055l-4.219-2.109c-10.549-5.274-42.194-21.098-46.414-22.68
					c-2.109-0.527-4.22-0.527-6.329,0c-1.055,0.527-27.953,9.494-34.283,11.604c-3.165,1.055-6.329,2.109-9.494,4.219
					c-2.11,1.583-36.92,26.899-39.557,29.009c-1.055,0.527-1.583,1.582-1.583,2.638c-0.527,3.164,0.527,6.329,2.637,8.966
					c2.109,2.637,5.274,3.692,8.966,3.692c2.637,0,4.747-0.527,7.384-1.056c2.11-0.527,49.578-20.569,49.578-20.569
					c1.056-0.527,2.638-0.527,3.692-1.055c1.582,0,3.165,0.527,4.747,1.582c3.691,3.165,89.662,70.676,92.3,73.313
					c0.527,0.527,1.582,0.527,2.109,0l0.527-0.527l63.291-40.612C604.215,360.232,603.688,359.704,603.16,359.177z"/>
			</g>
			<g>
				<path fill="#FFFFFF" d="M528.793,408.228l-84.915-68.038c-1.583-1.055-3.165-1.582-4.747-2.109h-1.055
					c-1.055,0-1.583,0-2.638,0.527l-43.776,18.46c-3.692,1.582-7.912,2.637-11.604,2.637c-6.329,0-12.131-2.637-16.35-6.856
					c-4.747-3.692-6.856-8.967-6.329-14.768c0.527-4.22,3.165-7.912,6.856-9.494l2.637-1.582c-0.527,0-1.055,0-1.583,0l-4.219,0.527
					c-8.966,1.582-18.46,1.055-27.426-1.582c-12.658-4.22-49.051-21.098-49.051-21.098h-0.527c-1.055,0-2.109,0.527-2.637,1.055
					l-30.063,53.798c0,0.527,0,0.527,0,1.055s0.527,0.527,1.055,1.055l61.709,30.591l7.384,3.692l0,0v-1.055v-0.527v-0.527
					c3.692-9.494,14.241-14.241,23.207-10.549c4.219,1.582,7.384,4.747,9.494,8.438c7.911-6.329,18.987-5.274,25.316,2.638
					c0.527,0.527,1.055,1.582,1.582,2.109c3.165-2.637,7.384-4.22,11.604-4.22c8.439,0,15.823,5.802,17.933,14.241
					c2.109-1.056,4.747-1.583,6.856-1.583c10.021,0,18.459,8.439,18.459,18.46c0,1.055,0,1.583,0,2.638l26.899,21.097
					c1.582,1.055,3.164,2.109,5.274,2.109c4.746,0,8.438-4.219,8.438-8.966c0-2.637-1.055-5.274-3.165-6.856l-52.742-41.667l0,0
					h-0.527l-0.527-0.527c-2.637-1.582-3.165-4.747-1.583-7.384c0-0.527,0.527-0.527,0.527-1.055c2.637-3.165,6.857-1.055,8.439,0
					l64.873,51.688c3.165,3.692,8.967,3.692,12.131,0c3.692-3.164,3.692-8.966,0-12.131c-0.527-0.527-1.055-1.055-2.109-1.582
					l-64.346-51.688c-1.583-1.583-4.22-4.22-1.583-7.912c1.583-2.109,4.747-2.109,6.857-0.527l0,0l75.422,61.182
					c3.164,3.165,8.966,3.165,12.131,0c3.164-3.165,3.164-8.966,0-12.131C529.849,409.282,529.32,408.755,528.793,408.228
					L528.793,408.228z"/>
			</g>
			<g>
				<path fill="#FFFFFF" d="M439.658,444.62l-7.384-5.802L427,454.641c0,0.527-0.527,1.055-0.527,1.583l2.637,2.109
					c3.692,3.164,8.967,2.637,12.131-1.582l0,0C444.405,453.586,443.878,448.312,439.658,444.62
					C439.658,445.148,439.658,445.148,439.658,444.62z"/>
			</g>
			<g>
				<path fill="#FFFFFF" d="M422.78,417.721l-1.582-1.055c-1.055-0.527-2.11-0.527-3.692-0.527c-1.055,0-1.583,0-2.637,0.527
					c-1.582,0.527-3.165,1.582-4.219,2.638c-0.527,0.527-0.527,1.055-1.055,1.582v0.527l0,0l0,0l-4.219,11.604l-1.582,5.274
					l-2.11,6.329l-0.527,1.582c-0.527,1.055-0.527,1.582-0.527,2.637s0,2.11,0.527,3.692s1.582,2.637,3.165,3.691
					c0.527,0.528,1.055,0.528,1.582,1.056c1.055,0.527,2.11,0.527,3.692,0.527c3.165,0,5.802-1.583,7.384-3.692
					c0.527-0.527,1.055-1.582,1.055-2.637l0.527-1.583l5.802-17.404l1.582-4.22c0-0.527,0-0.527,0-1.055
					c0-1.055,0.527-2.11,0.527-3.165C427,421.941,425.418,419.304,422.78,417.721z"/>
			</g>
			<g>
				<path fill="#FFFFFF" d="M401.156,415.084C401.156,415.084,401.156,414.557,401.156,415.084c0-0.527,0-1.582,0-2.109
					c0-0.528,0-0.528,0-1.056c0-4.746-3.692-8.966-8.439-8.966l0,0c-1.583,0-3.165,0.527-4.219,1.055
					c-1.583,1.055-3.165,2.638-3.692,4.22v0.527l-3.164,11.076l-4.22,11.604l-0.527,1.582c-0.527,1.055-0.527,1.582-0.527,2.637
					c0,3.165,1.582,6.329,4.747,7.911c0.528,0.528,1.583,0.528,2.11,1.056c0.527,0,1.055,0,1.582,0c4.22,0,7.384-2.638,8.966-6.329
					l2.637-6.856l5.274-16.351C401.156,415.612,401.156,415.084,401.156,415.084z"/>
			</g>
			<g>
				<path fill="#FFFFFF" d="M365.818,398.206c-1.582,0-3.692,0.527-4.747,1.582c-1.055,0.528-1.583,1.583-2.637,2.638
					c-0.527,0.527-0.527,1.055-1.055,1.582v0.527l-4.22,12.131l-0.527,2.109c-0.527,1.056-0.527,1.583-0.527,2.638
					c0,4.747,3.692,8.438,8.966,8.966c3.165,0,5.802-1.582,7.384-3.691c0.528-0.527,1.055-1.582,1.055-2.638l3.165-9.493
					l1.055-3.165c0-0.527,0.527-1.055,0.527-2.109c0-0.527,0-1.582,0-2.109C374.257,402.426,370.565,398.206,365.818,398.206z"/>
			</g>
			<g>
				<path fill="#FFFFFF" d="M345.249,396.624c-1.055-1.582-2.11-2.638-3.692-3.165c-1.055-0.527-2.11-0.527-3.165-0.527
					c-1.583,0-3.692,0.527-4.747,1.583c-0.527,0.527-1.582,1.055-2.11,1.582c-0.527,0.527-1.055,1.582-1.055,2.109l0,0l-1.055,3.692
					c0,0-0.527,1.582-1.055,3.164c0,0.527-0.527,1.583-0.527,2.11s0,1.055,0,1.582c1.055,4.22,4.22,6.856,8.439,6.856
					c2.11,0,3.692-0.527,5.274-1.582c0.527-0.527,1.582-1.055,2.109-2.11c0.528-0.527,1.055-1.582,1.055-2.637l1.055-4.22
					c0,0,0-0.527,0-1.055s0-1.582,0.527-2.109c0-0.527,0-0.527,0-1.055c0-1.055,0-2.11-0.527-3.692
					C345.776,397.679,345.776,397.152,345.249,396.624z"/>
			</g>
		</g>
	</g>
</g>
</svg>
