<?xml version="1.0" encoding="utf-8"?>
<!-- Generator: Adobe Illustrator 16.0.3, SVG Export Plug-In . SVG Version: 6.00 Build 0)  -->
<!DOCTYPE svg PUBLIC "-//W3C//DTD SVG 1.1//EN" "http://www.w3.org/Graphics/SVG/1.1/DTD/svg11.dtd" [
	<!ENTITY ns_extend "http://ns.adobe.com/Extensibility/1.0/">
	<!ENTITY ns_ai "http://ns.adobe.com/AdobeIllustrator/10.0/">
	<!ENTITY ns_graphs "http://ns.adobe.com/Graphs/1.0/">
	<!ENTITY ns_vars "http://ns.adobe.com/Variables/1.0/">
	<!ENTITY ns_imrep "http://ns.adobe.com/ImageReplacement/1.0/">
	<!ENTITY ns_sfw "http://ns.adobe.com/SaveForWeb/1.0/">
	<!ENTITY ns_custom "http://ns.adobe.com/GenericCustomNamespace/1.0/">
	<!ENTITY ns_adobe_xpath "http://ns.adobe.com/XPath/1.0/">
]>
<svg version="1.1" id="Layer_1" xmlns:x="&ns_extend;" xmlns:i="&ns_ai;" xmlns:graph="&ns_graphs;"
	 xmlns="http://www.w3.org/2000/svg" xmlns:xlink="http://www.w3.org/1999/xlink" x="0px" y="0px" width="500px" height="500px"
	 viewBox="177 0 500 500" enable-background="new 177 0 500 500" xml:space="preserve">
<metadata>
	<sfw  xmlns="&ns_sfw;">
		<slices></slices>
		<sliceSourceBounds  width="500" height="500" y="0.5" x="176.5" bottomLeftOrigin="true"></sliceSourceBounds>
	</sfw>
</metadata>
<title>TARGET 1 B copy 18</title>
<g id="TARGETS">
	<g>
		<rect x="177" y="0" fill="#19486A" width="500" height="500"/>
	</g>
	<g>
		<g>
			<path fill="#FFFFFF" d="M203.371,441.983c0,0,137.131-79.113,143.987-85.442c11.604-12.131,28.481-17.933,45.359-15.296
				c23.207,3.692,36.919,5.802,48.523,7.384c11.604,1.583,19.515,0,20.042,4.22c1.056,5.274-5.273,10.549-14.768,11.604
				c-9.493,1.055-25.844-0.527-29.008-0.527s-5.802,1.055-4.747,3.691c1.055,2.638,19.515,3.692,25.317,3.165
				c13.186-1.055,25.316-4.747,37.447-10.021c10.021-5.274,29.535-19.515,32.7-20.569c3.164-1.055,9.494-4.22,11.604-1.055
				c2.109,3.164-2.109,7.911-5.802,11.604c-16.878,14.24-34.811,27.953-53.798,39.557c-16.35,8.966-20.569,10.549-37.447,8.966
				c-16.877-1.582-31.118-6.856-39.557-5.802c-10.021,1.583-19.515,5.274-27.426,11.604c-3.692,2.638-72.785,66.983-72.785,66.983
				h-79.642V441.983z"/>
		</g>
		<g>
			<path fill="#FFFFFF" d="M545.671,176.16c0-34.283-26.898-62.236-61.182-63.291c-11.604-33.229-47.468-50.633-80.696-39.029
				c-18.46,6.329-32.701,20.569-39.03,39.029c-34.81,1.055-62.236,30.063-61.182,65.4c0.528,18.987,9.494,36.393,24.262,47.996
				c-1.582,5.802-2.637,11.604-2.637,17.405c0,34.81,27.954,63.291,63.292,63.291c12.658,0,25.316-3.692,35.865-11.076
				c29.008,19.515,68.565,11.604,88.08-17.405c6.856-10.548,10.548-22.679,10.548-35.337c0-5.802-1.055-11.604-2.637-17.405
				C536.704,214.135,545.671,195.675,545.671,176.16 M475.523,133.966c0,25.316-18.46,46.414-43.249,50.105
				c-0.527-2.637-0.527-5.274-0.527-7.911c0-25.316,18.46-46.414,43.249-50.105C474.996,128.692,475.523,131.329,475.523,133.966
				 M425.418,279.535c-20.042-19.515-20.57-51.16-1.055-71.202c0-0.527,0.527-0.527,1.055-1.055
				c20.042,19.515,20.569,51.688,1.055,71.729C425.418,279.008,425.418,279.535,425.418,279.535 M374.785,126.055
				c24.789,3.691,43.249,24.789,43.249,50.105c0,2.637,0,5.274-0.527,7.911c-24.789-3.691-43.249-24.789-43.249-50.105
				C374.257,131.329,374.257,128.692,374.785,126.055 M412.759,198.84c-12.658,24.789-42.721,35.337-67.51,22.679
				c-0.527,0-0.527-0.527-1.055-0.527c8.438-16.878,25.844-27.953,45.358-27.953C397.464,193.038,405.375,195.148,412.759,198.84
				 M437.021,198.312c7.384-3.691,15.295-5.801,23.206-5.801c19.515,0,36.92,11.075,45.359,28.48
				c-24.789,12.658-54.853,3.165-68.038-21.097C437.549,199.367,437.021,198.84,437.021,198.312 M424.891,83.333
				c20.042,0,38.502,12.131,46.413,30.591c-20.569,3.692-37.447,16.878-46.413,35.865c-8.967-18.987-25.844-32.173-46.414-35.865
				C386.388,95.464,404.848,83.333,424.891,83.333 M316.768,176.16c0-25.844,19.515-47.469,45.358-50.105
				c-0.527,2.637-0.527,5.274-0.527,7.911c0,17.933,7.384,34.811,20.57,46.941c-20.57,2.637-38.502,14.768-48.523,33.228
				C323.097,204.114,316.768,190.401,316.768,176.16 M338.92,243.671c0-3.692,0.527-6.856,1.055-10.549
				c18.46,8.966,40.084,8.438,58.017-1.582c-0.527,3.691-1.055,7.911-1.055,11.604c0,16.35,6.329,32.173,17.933,44.304
				c-7.911,4.746-16.35,6.856-25.316,6.856C361.599,294.304,338.92,271.624,338.92,243.671 M511.388,243.144
				c0,27.953-22.679,50.633-50.633,50.633c-8.966,0-17.404-2.11-25.316-6.856c11.076-11.604,17.405-27.427,17.405-43.776
				c0-4.22-0.527-7.912-1.055-12.131c9.493,5.274,20.042,7.911,30.591,7.911c9.493,0,18.987-2.109,27.426-6.329
				C510.86,236.287,510.86,239.979,511.388,243.144 M468.14,180.38c13.186-12.131,20.569-29.009,20.042-46.414
				c0-2.637,0-5.274-0.527-7.911c27.953,3.164,47.995,27.953,44.831,55.38c-1.055,12.131-7.384,23.734-16.351,32.173
				C506.642,195.148,488.709,183.017,468.14,180.38"/>
		</g>
	</g>
</g>
</svg>
