<?xml version="1.0" encoding="utf-8"?>
<!-- Generator: Adobe Illustrator 16.0.3, SVG Export Plug-In . SVG Version: 6.00 Build 0)  -->
<!DOCTYPE svg PUBLIC "-//W3C//DTD SVG 1.1//EN" "http://www.w3.org/Graphics/SVG/1.1/DTD/svg11.dtd" [
	<!ENTITY ns_extend "http://ns.adobe.com/Extensibility/1.0/">
	<!ENTITY ns_ai "http://ns.adobe.com/AdobeIllustrator/10.0/">
	<!ENTITY ns_graphs "http://ns.adobe.com/Graphs/1.0/">
	<!ENTITY ns_vars "http://ns.adobe.com/Variables/1.0/">
	<!ENTITY ns_imrep "http://ns.adobe.com/ImageReplacement/1.0/">
	<!ENTITY ns_sfw "http://ns.adobe.com/SaveForWeb/1.0/">
	<!ENTITY ns_custom "http://ns.adobe.com/GenericCustomNamespace/1.0/">
	<!ENTITY ns_adobe_xpath "http://ns.adobe.com/XPath/1.0/">
]>
<svg version="1.1" id="Layer_1" xmlns:x="&ns_extend;" xmlns:i="&ns_ai;" xmlns:graph="&ns_graphs;"
	 xmlns="http://www.w3.org/2000/svg" xmlns:xlink="http://www.w3.org/1999/xlink" x="0px" y="0px" width="285.887px"
	 height="285.887px" viewBox="283.906 72.376 285.887 285.887" enable-background="new 283.906 72.376 285.887 285.887"
	 xml:space="preserve">
<metadata>
	<sfw  xmlns="&ns_sfw;">
		<slices></slices>
		<sliceSourceBounds  width="285.887" height="285.887" y="142.237" x="283.406" bottomLeftOrigin="true"></sliceSourceBounds>
	</sfw>
</metadata>
<title>TARGET 1 B copy 6</title>
<g id="TARGETS">
	<g>
		<rect x="283.906" y="72.376" fill="#BF8B2E" width="285.887" height="285.887"/>
	</g>
	<g>
		<g>
			<path fill="#FFFFFF" d="M480.83,269.904c-6.031-4.523-13.27-6.937-20.809-6.937c-1.81,0-3.317,0-5.126,0.604h-0.604
				c-4.825,1.206-13.27,3.016-22.618,15.078l-0.301,0.302c-0.302,0.302-0.302,0.604-0.302,0.604c0,0.301,0,0.301,0.302,0.603
				l0.301,0.302c1.509,2.714,3.017,4.825,3.921,6.937c0.302,0.603,1.206,0.904,1.81,0.603l0.302-0.302l0.301-0.301
				c8.444-11.46,14.777-12.968,18.999-14.174h0.604c0.904,0,1.81-0.302,2.714-0.302c5.127,0,10.253,1.508,14.476,4.523
				c4.825,3.921,7.237,9.952,7.237,18.094c0,13.57-6.635,18.999-12.063,21.11c-2.111,0.904-4.523,1.206-6.635,1.206
				c-3.619,0-6.936-0.905-10.253-2.413l-0.302-0.301c-4.825-2.111-12.063-6.333-18.697-19.903
				c-13.872-27.745-25.633-30.459-33.172-32.269h-0.302c-1.508-0.301-3.317-0.603-5.126-0.603c-7.238,0-14.476,2.412-20.507,6.634
				c-5.126,3.921-10.856,11.762-10.856,26.237c-0.905,16.586,11.761,30.76,28.347,31.966c0.604,0,1.508,0,2.111,0
				c2.413,0,4.825-0.302,6.936-0.604c4.523-0.904,8.444-2.714,12.063-5.428l3.92,3.618c0.603,0.302,1.207,0.302,1.508,0
				c0.302-0.302,0.302-0.603,0.302-0.603l3.015-19.301v-0.302c0-0.301,0-0.603-0.301-0.904c-0.302-0.302-0.604-0.302-0.905-0.302
				l0,0l-18.697,5.127h-0.302c-0.302,0-0.302,0.302-0.603,0.302c-0.302,0.301-0.302,0.603-0.302,0.904s0,0.604,0.302,0.904
				l3.92,3.619c-1.81,1.206-3.92,2.111-6.032,2.413c-1.508,0.301-3.317,0.603-5.126,0.603c-6.031,0-12.063-2.714-15.983-7.237l0,0
				c-3.317-3.921-4.825-9.047-4.222-14.476c0-8.142,2.413-14.174,7.238-18.094c3.92-3.016,9.047-4.523,13.872-4.523
				c0.905,0,1.81,0,2.714,0.302h0.302c6.031,1.508,14.475,3.317,26.236,26.839c6.031,12.364,13.872,20.507,23.522,24.729
				c4.523,2.111,9.65,3.317,14.776,3.317c3.619,0,6.937-0.603,10.254-1.81c5.729-2.11,18.999-9.349,18.999-30.76
				C491.988,281.664,485.957,273.823,480.83,269.904z"/>
		</g>
		<g>
			<g>
				<path fill="#FFFFFF" d="M423.23,166.767h-85.646c-0.905,0-1.508,0.604-1.508,1.508v3.619c0,0.904,0.603,1.508,1.508,1.508
					h85.646c0.904,0,1.508-0.604,1.508-1.508v-3.619C424.738,167.37,424.135,166.767,423.23,166.767z"/>
			</g>
			<g>
				<path fill="#FFFFFF" d="M423.23,231.303h-85.646c-0.905,0-1.508,0.603-1.508,1.508l0,0v6.936c0,0.905,0.603,1.508,1.508,1.508
					h85.646c0.904,0,1.508-0.603,1.508-1.508v-6.936C424.738,231.906,424.135,231.303,423.23,231.303L423.23,231.303z"/>
			</g>
			<g>
				<path fill="#FFFFFF" d="M424.437,160.434c-5.428-24.427-29.855-39.505-54.282-34.077c-16.888,3.921-30.157,17.189-34.077,34.077
					c0,0.302,0,0.302,0,0.604l0,0c0,0.604,0.603,1.206,1.207,1.206h85.947c0.604,0,1.206-0.603,1.206-1.508V160.434z"/>
			</g>
			<g>
				<path fill="#FFFFFF" d="M420.818,177.623h-80.217c-0.905,0-1.508,0.604-1.508,1.508v46.441c0,0.905,0.603,1.508,1.508,1.508
					h79.916c0.905,0,1.508-0.603,1.508-1.508v-46.441C422.325,178.529,421.421,177.623,420.818,177.623z M365.028,221.049h-13.571
					v-37.093h13.872L365.028,221.049z M387.947,221.049h-13.57v-37.093h13.57V221.049z M411.167,221.049h-13.57v-37.093h13.57
					V221.049z"/>
			</g>
			<g>
				<path fill="#FFFFFF" d="M380.408,119.421v-16.587h4.222c2.412,0,5.126,0.604,7.237,1.81c2.714,2.413,6.031,3.921,9.65,3.921
					h6.333v16.284h-6.333c-2.714,0-5.127-0.904-7.238-2.412c-2.413-2.111-5.428-3.016-8.444-3.016
					C380.106,119.119,380.408,119.421,380.408,119.421z"/>
			</g>
		</g>
		<g>
			<g>
				<polygon fill="#FFFFFF" points="457.308,157.72 453.086,157.72 453.086,241.254 514.605,241.254 514.605,236.128 
					457.308,236.128 				"/>
			</g>
			<g>
				<path fill="#FFFFFF" d="M462.133,147.467v83.534h60.012v-83.534H462.133z M514.605,219.541L514.605,219.541
					c0,0.302-0.302,0.604-0.603,0.604h-44.029c-0.302,0-0.604-0.302-0.604-0.604v-6.333c0-0.301,0.302-0.603,0.604-0.603h44.029
					c0.301,0,0.603,0.302,0.603,0.603l0,0V219.541z M514.605,206.273L514.605,206.273c0,0.302-0.302,0.603-0.603,0.603h-44.029
					c-0.302,0-0.604-0.301-0.604-0.603v-6.333c0-0.302,0.302-0.604,0.604-0.604l0,0h44.029c0.301,0,0.603,0.302,0.603,0.604l0,0
					V206.273z M514.605,193.003C514.605,193.003,514.605,193.305,514.605,193.003c0,0.604-0.302,0.604-0.603,0.604h-43.728
					c-0.302,0-0.604-0.302-0.604-0.604v-6.332c0-0.302,0.302-0.604,0.604-0.604h44.028c0.302,0,0.604,0.302,0.604,0.302s0,0,0,0.301
					L514.605,193.003z"/>
			</g>
		</g>
	</g>
</g>
</svg>
