<?xml version="1.0" encoding="utf-8"?>
<!-- Generator: Adobe Illustrator 16.0.3, SVG Export Plug-In . SVG Version: 6.00 Build 0)  -->
<!DOCTYPE svg PUBLIC "-//W3C//DTD SVG 1.1//EN" "http://www.w3.org/Graphics/SVG/1.1/DTD/svg11.dtd" [
	<!ENTITY ns_extend "http://ns.adobe.com/Extensibility/1.0/">
	<!ENTITY ns_ai "http://ns.adobe.com/AdobeIllustrator/10.0/">
	<!ENTITY ns_graphs "http://ns.adobe.com/Graphs/1.0/">
	<!ENTITY ns_vars "http://ns.adobe.com/Variables/1.0/">
	<!ENTITY ns_imrep "http://ns.adobe.com/ImageReplacement/1.0/">
	<!ENTITY ns_sfw "http://ns.adobe.com/SaveForWeb/1.0/">
	<!ENTITY ns_custom "http://ns.adobe.com/GenericCustomNamespace/1.0/">
	<!ENTITY ns_adobe_xpath "http://ns.adobe.com/XPath/1.0/">
]>
<svg version="1.1" id="Layer_1" xmlns:x="&ns_extend;" xmlns:i="&ns_ai;" xmlns:graph="&ns_graphs;"
	 xmlns="http://www.w3.org/2000/svg" xmlns:xlink="http://www.w3.org/1999/xlink" x="0px" y="0px" width="257.329px"
	 height="257.328px" viewBox="298.2 65.147 257.329 257.328" enable-background="new 298.2 65.147 257.329 257.328"
	 xml:space="preserve">
<metadata>
	<sfw  xmlns="&ns_sfw;">
		<slices></slices>
		<sliceSourceBounds  width="257.329" height="257.328" y="178.025" x="297.7" bottomLeftOrigin="true"></sliceSourceBounds>
	</sfw>
</metadata>
<title>TARGET 1 B copy 5</title>
<g id="TARGETS">
	<g>
		<rect x="298.2" y="65.147" fill="#DD1367" width="257.329" height="257.328"/>
	</g>
	<g>
		<g>
			<g>
				<path fill="#FFFFFF" d="M477.081,90.119c-26.873,0-48.859,21.987-48.859,48.86s21.986,48.859,48.859,48.859
					s48.86-21.986,48.86-48.859l0,0C525.67,111.835,503.954,90.119,477.081,90.119z M477.081,184.311
					c-24.973,0-45.331-20.087-45.331-45.06c0-24.974,20.087-45.332,45.06-45.332c24.974,0,45.332,20.087,45.332,45.061l0,0
					C522.142,163.681,502.055,184.039,477.081,184.311z"/>
			</g>
			<g>
				<path fill="#FFFFFF" d="M477.081,96.091c-23.887,0-43.159,19.272-43.159,42.889c0,23.615,19.272,42.888,42.888,43.159
					c23.888,0,43.16-19.272,43.16-42.888C519.97,115.364,500.969,96.091,477.081,96.091L477.081,96.091z M515.626,132.194
					c0,0.543,0,1.085-0.271,1.356c-0.271,0.271-0.814,0.814-1.086,0.814h-0.271c-0.271,0-0.814,0-1.086-0.271
					s-0.814-0.814-0.814-1.085c0-0.543,0-1.086,0.271-1.357c0.543-0.814,1.629-1.086,2.443-0.543l0,0
					C515.084,131.108,515.355,131.651,515.626,132.194z M512.912,124.593c0.814,0.543,1.357,1.357,1.086,2.442
					c-0.271,0.543-0.543,0.814-1.086,1.086h-0.543c-0.271,0-0.543,0-0.814-0.271c-0.543-0.271-0.814-0.543-1.086-1.086
					c-0.271-0.542-0.271-0.813,0-1.356s0.543-0.814,1.086-1.086C511.826,124.322,512.369,124.593,512.912,124.593z M507.483,119.978
					c0-0.542,0.543-0.813,0.814-1.085c0.814-0.543,1.899-0.271,2.442,0.543l0,0l0,0c0.271,0.542,0.271,0.813,0.271,1.356
					s-0.543,0.814-0.814,1.086s-0.543,0.271-0.813,0.271h-0.543c-0.543,0-0.814-0.543-1.086-0.814
					C507.212,120.792,507.212,120.249,507.483,119.978z M493.911,105.864c0.271-0.543,0.543-0.814,1.086-0.814
					c0.814-0.271,1.899,0.271,2.171,1.086v0.271c0,0.542,0,0.813-0.271,1.356s-0.542,0.814-1.085,0.814h-0.543
					c-0.271,0-0.543,0-0.814-0.271c-0.543-0.271-0.814-0.543-0.814-1.086C493.64,106.678,493.64,106.135,493.911,105.864
					L493.911,105.864z M490.11,134.093c-0.271,0-0.543-0.271-0.543-0.543l0,0v-2.442h6.516v2.442c0,0.271-0.271,0.543-0.543,0.543
					l0,0v16.016h-5.158L490.11,134.093z M477.081,129.207h-20.629v-1.357h41.259v1.357H477.081z M474.367,134.093
					c-0.271,0-0.543-0.271-0.543-0.543l0,0v-2.442h6.515v2.442c0,0.271-0.271,0.543-0.543,0.543l0,0v16.016h-5.157L474.367,134.093z
					 M458.895,134.093c-0.271,0-0.543-0.271-0.543-0.543l0,0v-2.442h6.515v2.442c0,0.271-0.271,0.543-0.543,0.543l0,0v16.016h-5.157
					L458.895,134.093z M477.081,126.222h-21.986l-0.814-0.814c-0.271-0.271-0.271-0.543,0-0.814l0,0h0.271l22.801-8.415
					l22.802,8.415c0.271,0.271,0.271,0.543,0,0.814l0,0l0,0l-0.814,0.814H477.081z M487.939,103.42
					c0.543-0.814,1.356-1.357,2.442-1.086c0.543,0.271,0.814,0.543,1.086,1.086s0.271,0.814,0,1.357s-0.543,0.814-1.086,1.086
					c-0.271,0-0.543,0.271-0.814,0.271c-1.085,0-1.899-0.814-1.899-1.9C487.939,103.692,487.939,103.692,487.939,103.42z
					 M482.511,100.977c0.813-0.543,1.899-0.543,2.442,0.271l0,0c0,0.271,0,0.271,0.271,0.271c0.543,0.814,0.271,1.9-0.543,2.443l0,0
					c-0.271,0.271-0.543,0.271-1.086,0.271h-0.271c-0.542,0-0.813-0.271-1.085-0.814s-0.271-1.086-0.271-1.357
					C481.696,101.791,481.968,101.248,482.511,100.977z M477.081,99.892c1.086,0,1.9,0.813,1.9,1.899s-0.814,1.9-1.9,1.9
					c-1.085,0-1.899-0.814-1.899-1.9l0,0C475.182,100.705,475.996,99.892,477.081,99.892L477.081,99.892z M470.023,100.705
					c0.543,0,1.086,0,1.357,0.271s0.814,0.814,0.814,1.086c0.271,1.086-0.271,1.9-1.357,2.172h-0.271
					c-0.813,0-1.628-0.814-1.899-1.629S469.21,100.977,470.023,100.705L470.023,100.705z M463.509,102.334
					c0.543-0.271,0.814-0.271,1.357,0s0.814,0.543,0.814,1.086c0.271,0.543,0.271,0.814,0,1.357s-0.543,0.814-1.086,1.086h-0.543
					c-1.085,0-1.899-0.814-1.899-1.9l0,0C462.424,103.149,462.967,102.606,463.509,102.334z M457.266,105.321
					c0.814-0.543,1.9-0.271,2.443,0.543s0.271,1.899-0.543,2.442l0,0c-0.814,0.543-1.9,0.271-2.442-0.543l0,0l0,0
					C456.181,106.948,456.452,105.864,457.266,105.321L457.266,105.321z M443.151,119.707c0.271-0.543,0.542-0.814,1.085-0.814
					s1.086,0,1.357,0.271c0.814,0.543,1.086,1.628,0.543,2.442c0,0,0,0-0.271,0.271c-0.271,0.814-1.357,1.086-1.9,0.543h-0.271
					C442.88,121.607,442.337,120.521,443.151,119.707z M440.165,125.679c0.543-0.814,1.357-1.357,2.443-1.086
					c0.543,0.271,0.814,0.543,1.085,1.086c0.271,0.543,0.271,0.813,0,1.356c-0.271,0.814-1.085,1.086-1.628,1.357h-0.543
					C440.437,127.85,439.894,126.764,440.165,125.679L440.165,125.679z M440.437,130.836c0.543,0,0.814,0.271,1.086,0.814
					s0.271,0.814,0.271,1.357c-0.271,0.813-1.086,1.628-1.9,1.628h-0.271c-1.086-0.271-1.629-1.086-1.629-2.171l0,0
					C438.536,131.379,439.622,130.565,440.437,130.836L440.437,130.836z M437.722,138.98c0-1.086,0.814-1.9,1.9-1.9
					s1.9,0.814,1.9,1.9c0,1.085-0.814,1.899-1.9,1.899S437.722,140.065,437.722,138.98L437.722,138.98z M438.536,145.766
					c0-0.543,0-1.086,0.271-1.357s0.814-0.543,1.086-0.814c1.086,0,1.9,0.543,1.9,1.629c0,0.814-0.543,1.628-1.357,1.899h-0.271
					c-0.543,0.271-1.357-0.271-1.629-0.814C438.536,146.037,438.536,145.766,438.536,145.766z M442.065,153.637
					c-0.814,0-1.357-0.543-1.629-1.356c-0.271-0.543-0.271-0.814,0-1.357s0.543-0.814,1.086-1.086
					c1.086-0.271,2.171,0.271,2.442,1.357c0.271,0.814-0.271,1.899-1.085,2.171l0,0
					C442.608,153.365,442.337,153.365,442.065,153.637z M445.594,159.338c-0.271,0.271-0.543,0.271-0.814,0.271
					c-1.086,0-1.899-0.813-1.899-1.899l0,0c0-0.543,0.271-1.357,0.813-1.629c0.814-0.543,1.9-0.271,2.443,0.543l0,0
					C446.68,157.438,446.408,158.524,445.594,159.338z M446.951,114.006c0.814-0.813,1.9-0.813,2.715-0.271l0,0
					c0.813,0.543,1.085,1.629,0.542,2.443c0,0,0,0-0.271,0.271l0,0c-0.271,0.543-0.813,0.543-1.356,0.543s-0.814-0.271-1.086-0.271
					c-0.814-0.271-1.357-1.357-0.814-2.172C446.68,114.278,446.68,114.006,446.951,114.006z M449.666,164.495
					c-0.543,0.543-1.629,0.814-2.172,0.271c0,0,0,0-0.271-0.271c-0.543-0.814-0.543-2.172,0.271-2.715s2.172-0.543,2.714,0.271
					C450.751,162.866,450.479,163.952,449.666,164.495z M451.837,109.12c0.543-0.543,1.629-0.814,2.443,0l0,0l0.271,0.271
					c0.814,0.814,0.543,1.9-0.271,2.715l0,0l0,0c-0.543,0.543-1.629,0.814-2.172,0.271c0,0,0,0-0.271-0.271
					c-0.814-0.543-0.814-1.629-0.271-2.443l0,0C451.565,109.12,451.837,109.12,451.837,109.12z M454.552,168.838
					c-0.271,0.543-0.814,0.543-1.357,0.543s-0.814-0.271-1.086-0.543c-0.814-0.814-0.814-1.9-0.271-2.715l0,0
					c0.271-0.542,0.814-0.542,1.357-0.542s1.086,0,1.357,0.542C455.095,166.938,455.095,168.024,454.552,168.838z M455.366,154.451
					h1.628v-2.442c0-0.271,0-0.271,0.271-0.271h40.717c0.271,0,0.271,0,0.271,0.271v2.442h1.086v2.715h-44.245L455.366,154.451z
					 M460.252,172.367c-0.543,0.813-1.629,1.085-2.443,0.542c-0.814-0.542-1.086-1.628-0.543-2.442s1.629-1.086,2.443-0.543
					C460.252,170.467,460.523,171.281,460.252,172.367z M466.224,174.81c-0.271,0.814-0.814,1.357-1.629,1.357h-0.543
					c-1.085-0.271-1.356-1.357-1.085-2.443c0.271-0.543,0.542-0.814,1.085-1.086c0.814-0.542,1.9,0,2.443,0.814
					C466.224,173.724,466.224,174.267,466.224,174.81z M470.566,177.796L470.566,177.796c-1.356,0-1.899-1.086-1.899-2.172
					s1.086-1.629,2.171-1.629c0.543,0,0.814,0.271,1.086,0.814c0.271,0.271,0.543,0.814,0.271,1.357
					C472.195,176.982,471.381,177.525,470.566,177.796z M477.081,178.339c-1.085,0-1.899-0.814-1.899-1.9s0.814-1.9,1.899-1.9
					c1.086,0,1.9,0.814,1.9,1.9l0,0l0,0C478.981,177.253,478.167,178.068,477.081,178.339L477.081,178.339z M485.225,176.982
					c-0.271,0.271-0.814,0.814-1.086,0.814h-0.271c-1.085,0.271-1.899-0.543-2.171-1.629s0.543-1.9,1.628-2.172l0,0
					c0.543,0,1.086,0,1.357,0.271s0.814,0.814,0.814,1.086C485.225,175.624,485.225,176.439,485.225,176.982z M490.653,175.896
					c-0.543,0.271-0.814,0.271-1.357,0c-0.542-0.271-0.813-0.543-1.085-1.086s-0.271-0.814,0-1.357s0.543-0.814,1.085-0.814
					c0.543-0.271,0.814-0.271,1.357,0c0.814,0.543,1.357,1.357,1.086,2.443C491.468,175.353,491.196,175.624,490.653,175.896z
					 M496.625,172.909c-0.271,0.271-0.542,0.271-0.813,0.271c-0.543,0-1.357-0.271-1.629-0.813
					c-0.271-0.543-0.543-1.086-0.271-1.357s0.543-0.814,0.814-1.086c0.543-0.271,0.814-0.271,1.357-0.271
					c0.542,0,0.813,0.543,1.085,0.814C497.711,171.281,497.439,172.367,496.625,172.909L496.625,172.909L496.625,172.909z
					 M502.055,169.11c-0.543,0.543-1.629,0.814-2.172,0.271c0,0,0,0-0.271-0.271c-0.814-0.814-0.543-1.9,0.271-2.715l0,0l0,0
					c0.814-0.813,1.9-0.542,2.714,0.271l0,0l0,0C503.14,167.209,502.868,168.295,502.055,169.11z M502.326,111.835
					c-0.271,0.271-0.814,0.543-1.357,0.543h-0.271c-0.543,0-0.814-0.271-1.086-0.543s-0.543-0.814-0.543-1.357s0-1.086,0.543-1.357
					c0.543-0.814,1.629-1.086,2.443-0.543c0.542,0.271,0.813,0.814,0.813,1.629C502.868,110.749,502.597,111.292,502.326,111.835z
					 M506.94,164.224c-0.271,0.271-0.814,0.543-1.357,0.543h-0.271c-0.543,0-0.814-0.271-1.086-0.543
					c-0.814-0.814-0.814-1.9-0.271-2.715l0,0c0.271-0.271,0.814-0.543,1.357-0.543s1.086,0,1.357,0.543
					C507.483,162.052,507.483,163.138,506.94,164.224z M506.669,116.449c-0.271,0.271-0.543,0.271-1.086,0.543h-0.271
					c-0.543,0-0.814-0.271-1.357-0.543c-0.271-0.271-0.543-0.814-0.543-1.357s0.271-0.814,0.543-1.357
					c0.271-0.271,0.814-0.542,1.357-0.542s0.814,0.271,1.357,0.542C507.483,114.821,507.483,115.906,506.669,116.449z
					 M510.74,158.795c-0.271,0.543-0.543,0.813-1.086,0.813h-0.542c-0.271,0-0.543,0-0.814-0.271
					c-0.814-0.543-1.357-1.629-0.814-2.443c0.271-0.543,0.543-0.814,1.086-0.814s1.085,0,1.356,0.271
					c0.543,0.271,0.814,0.543,0.814,1.086C511.012,157.709,511.012,158.252,510.74,158.795L510.74,158.795z M513.727,152.552
					c-0.271,0.542-0.543,0.813-0.814,1.085c-0.271,0-0.543,0.271-0.814,0.271h-0.543c-1.086-0.271-1.357-1.356-1.086-2.442l0,0
					c0.271-0.543,0.543-0.814,0.814-1.086c0.543-0.271,0.814-0.271,1.357,0C513.455,150.652,513.998,151.466,513.727,152.552
					L513.727,152.552z M514.541,147.122c-0.271,0.271-0.543,0.271-1.086,0.271h-0.271c-1.086-0.271-1.629-1.086-1.629-2.171
					c0-0.543,0.271-0.814,0.814-1.086c0.271-0.271,0.814-0.271,1.357-0.271c1.086,0.271,1.629,1.086,1.629,2.172
					C515.355,146.308,515.084,146.851,514.541,147.122z M514.27,140.879c-1.086,0-1.9-0.814-1.9-1.899c0-1.086,0.814-1.9,1.9-1.9
					s1.899,0.814,1.899,1.9l0,0C516.169,139.793,515.355,140.879,514.27,140.879L514.27,140.879z"/>
			</g>
		</g>
		<g>
			<g>
				<path fill="#FFFFFF" d="M376.104,160.152c8.143,0,14.658-6.515,14.658-14.657c0-8.144-6.515-14.658-14.658-14.658
					c-8.144,0-14.658,6.515-14.658,14.658l0,0C361.446,153.637,367.961,160.152,376.104,160.152L376.104,160.152z"/>
			</g>
			<g>
				<path fill="#FFFFFF" d="M392.934,165.853h-33.93c-8.958,0.813-16.015,7.6-17.373,16.558h68.947
					C409.22,173.452,401.892,166.666,392.934,165.853z"/>
			</g>
			<g>
				<path fill="#FFFFFF" d="M376.104,220.955c-10.858,0-19.815,8.958-19.815,19.815s8.958,19.815,19.815,19.815
					c10.857,0,19.815-8.958,19.815-19.815C395.919,229.642,386.962,220.955,376.104,220.955z M363.618,227.741
					c0.271,0,0.271,0.271,0.543,0.271s0,1.086-0.271,1.086c-0.271,0.543-1.085,1.086-1.9,0.814h-0.271
					C362.261,229.099,362.804,228.284,363.618,227.741L363.618,227.741z M360.903,230.999c0.271-0.271,0.814-0.271,1.086-0.271
					c0.543,0,1.085,0.271,1.085,0.543s-1.085,0.813-1.357,1.085s-1.629,1.9-2.172,1.9h-0.271
					C359.546,232.899,360.089,231.813,360.903,230.999L360.903,230.999z M376.104,258.957c-1.9,0-3.8-0.271-5.429-0.814v-0.271
					c0.543-1.357,1.9-2.172,3.529-2.172c2.986-0.271,7.058,1.9,7.601,1.629s1.9-1.9,3.8-1.9h0.814
					C383.433,257.601,379.904,258.957,376.104,258.957z M372.576,246.742c0.814-1.357,2.171-1.357,1.085,0.814
					c-0.271,0.543-1.085,3.529-1.357,3.258S372.576,247.014,372.576,246.742L372.576,246.742z M380.176,242.671
					c0.543,0,1.629,0.814,1.086,1.086s-1.357,0.271-1.9-0.271C379.09,243.214,379.904,242.671,380.176,242.671L380.176,242.671z
					 M388.591,254.072c-0.814-0.271-0.814,0.271-1.357,0.271s0.543-1.357-0.814-0.271c-1.357,1.086-1.085-0.271-1.628-1.9
					c-0.271-1.628,0.543-3.257,1.9-4.071c1.086-0.543,2.172-0.814,3.257-0.814c2.172-0.543,2.714-1.9,2.986-1.086
					c0,0.271,0.271,0.271,0.271,0.543C392.12,249.457,390.491,251.9,388.591,254.072L388.591,254.072z M389.405,244.029
					c-0.271,0-0.271-0.271-0.542-0.814s0.271-0.814,0.542-0.543c0.271,0.271,0.814,0.814,0.814,1.086
					S389.676,244.029,389.405,244.029L389.405,244.029z M391.305,245.656c-0.543,0.271-1.357,0.271-1.9-0.271
					c-0.542-0.271,0.271-1.085,0.543-1.085C390.762,244.572,391.848,245.385,391.305,245.656L391.305,245.656z M394.02,241.042
					c0,1.086,0,2.443-0.271,3.529c-1.086-1.086-1.357-2.986-0.271-4.344c0.271-0.271-0.543-1.357-0.271-1.357s0.543,0,0.814,0.271
					V241.042z M391.848,237.785c-0.271-0.271-1.086-1.086-1.086,0.271c0,1.356,1.357,1.356,0,2.171s-1.357,0.543-1.9,0.814
					c-0.814,0.543-1.086,1.357-1.086,2.172c0.271,0.814,1.9,2.714,0.543,2.442c-1.086-0.543-2.172-1.356-2.986-2.442
					c-0.271-0.814-0.543-1.9-1.086-2.715c-0.271-0.814-1.086-1.086-1.628-0.543c-0.543,0.543,0.271,0.814-0.271,1.9
					c-0.543,1.086-0.814,1.9-1.629,1.086c-1.9-2.172-4.343-1.086-4.886-3.258c-0.271-1.356-1.357-1.086-2.172-1.899
					c-0.814-0.814-1.357-1.086-1.628-0.543s2.714,2.714,2.986,3.528s-0.814,1.629-1.9,1.9c-1.085,0.271-1.357-0.543-2.171-1.357
					s-1.086-1.357-1.357-1.086v0.271c0,1.086,0.814,2.172,1.628,2.986c0.814,0.543,1.628,0.814,1.357,1.357
					c-0.271,0.542,0,0.271-0.814,1.085v2.172c0,0.814-0.271,1.629-0.543,2.172c-0.271,1.086-0.543,0.271-1.086,1.628
					c-0.271,0.814-0.542,1.629-1.085,2.443c-0.543,0.543-1.629,1.086-2.443,1.086c-0.271,0-0.271,0-0.271-0.271
					c-0.542-0.543-0.542-2.172-0.542-3.257c0-0.543-0.543,0.813-0.814-1.629c-0.271-1.629-1.086,0.271-1.357-0.814
					s-0.543-0.814-1.085-1.357c-0.543-0.543-1.086,0-1.9,0.271s-0.543,0.543-1.086,0.271c-1.085-2.172-1.628-4.886-1.628-7.329
					c0-0.814,0-1.357,0.271-2.172c0.543-0.813,0.543-1.085,0.814-1.085s0.542-0.271,0.814-0.271l0.543-0.271
					c1.086,0.271,1.9,0.543,2.986,0.814c1.086,0.542,2.172,0.813,3.257,1.085h0.543c0.814-0.271,1.357-0.813,1.086-1.356
					s-0.543-0.814-1.357-0.543c-0.271,0.271-0.814-1.086-1.357-1.086s0.543,1.629,0.271,1.629s-1.086-1.629-1.357-1.9
					s-0.814-0.814-1.086-0.543c-1.085,1.086-2.986,1.086-3.257,1.357c-0.271,0-0.271,0-0.271,0.271
					c-0.542,0.271-0.814,0-0.814-0.543s0.271-0.814,0.271-1.086c0.542-0.271,1.357-0.271,1.9,0s0.814,0,1.086-0.271s0-0.543,0-0.814
					s0.271-0.543,0.543-0.543c0.542-0.271,1.085-0.543,1.357-0.814c0.814-0.271,1.9-0.271,2.714,0c0.543,0.271,1.357,0,1.9-0.271
					c0.543-0.542,1.085-1.085,1.357-1.085s-0.542-1.086-1.357,0c-0.814,1.085-1.086,1.085-1.629,1.085s-2.443-0.542-2.714-1.356
					s0.543-1.086,1.357-1.629c0.814-0.543,2.986-0.271,3.529-0.543c1.085-0.271,2.443-0.814,3.257-0.271
					c0.814,0.543-2.986,1.357-1.9,1.9c0.543,0.271,2.443-1.086,2.986-1.357c1.629-0.814-1.628-1.086-1.085-2.715
					c0.542-1.628-3.257-1.356-5.429-1.086c2.714-1.628,5.972-2.714,9.229-2.714c8.958,0,16.558,6.515,17.916,15.201
					C393.477,238.599,392.391,238.328,391.848,237.785L391.848,237.785z"/>
			</g>
			<g>
				<path fill="#FFFFFF" d="M412.749,189.197h-84.962v8.687h7.058v100.434h83.333V197.883h7.057v-8.687H412.749z M410.035,243.757
					c0,0.814-0.814,1.356-1.628,1.628c-0.814,0.271-1.629,0.271-2.715,0.271c-0.814,0-1.628,0.814-1.9,1.629
					c-0.543,1.629-1.086,3.258-1.628,4.886c-0.271,0.814,0,1.9,0.814,2.172c0.814,0.543,1.357,1.086,1.9,1.629
					c0.814,0.271,1.085,1.357,0.543,1.9v0.271c-1.086,1.9-2.172,3.801-3.8,5.158c-0.543,0.543-1.357,0.814-2.172,0.271
					c-0.814-0.543-1.628-0.814-2.443-1.357s-1.9-0.543-2.443,0.271l0,0c-1.357,1.086-2.714,2.172-4.072,2.985
					c-0.814,0.543-0.814,1.357-0.543,2.443l0.814,2.443c0.271,0.814,0,1.899-0.814,2.171c-1.9,1.086-3.8,1.629-5.972,2.172
					c-0.814,0.271-1.628-0.271-1.9-1.086l0,0c-0.271-0.814-0.814-1.629-1.086-2.442c-0.271-1.629-1.086-2.172-2.171-2.172h-5.158
					c-1.086,0-1.9,0.543-1.9,1.629c-0.271,0.813-0.543,1.628-0.814,2.442c0,0.814-0.814,1.357-1.628,1.086h-0.271
					c-2.172-0.271-4.343-1.086-6.243-1.9c-0.814-0.271-1.086-1.085-0.814-1.899l0,0c0.271-1.086,0.271-1.629,0.543-2.715
					c0.271-0.814,0-1.9-0.814-2.443c-1.357-0.813-2.714-1.899-4.072-2.985c-0.814-0.543-1.9-0.271-2.443,0.271
					c-0.814,0.543-1.357,0.814-2.172,1.357c-0.814,0.543-1.9,0.543-2.443-0.271l0,0c-1.628-1.629-2.714-3.258-3.8-5.158
					c-0.542-0.542-0.271-1.628,0.271-2.171h0.271c0.814-0.543,1.629-1.086,2.172-1.9c0.814-0.543,1.085-1.629,0.542-2.443l0,0
					c-0.542-1.628-1.085-3.257-1.628-4.886c-0.271-1.086-1.086-1.357-2.171-1.357h-2.443c-0.814,0-1.628-0.543-1.628-1.085
					c0-0.271,0-0.271,0-0.543c-0.271-2.172-0.271-4.344,0-6.515c0-0.814,0.814-1.357,1.628-1.629
					c0.814-0.271,1.629-0.271,2.714-0.271c0.814,0,1.629-0.814,1.9-1.629c0.543-1.629,1.086-3.257,1.628-4.886
					c0.271-0.814,0-1.9-0.814-2.172c-0.814-0.543-1.357-1.086-1.9-1.629c-0.814-0.271-1.085-1.356-0.543-1.899v-0.271
					c1.086-1.9,2.172-3.801,3.8-5.157c0.543-0.543,1.357-0.814,2.172-0.271c0.814,0.543,1.628,0.814,2.443,1.356
					c0.814,0.543,1.9,0.543,2.443-0.271l0,0c1.086-0.813,3.257-2.442,4.072-2.985s0.814-1.357,0.543-2.443l-0.814-2.442
					c-0.271-0.814,0-1.9,0.814-2.172c1.9-1.086,3.8-1.629,5.972-2.172c0.814-0.271,1.628,0.271,1.9,1.086l0,0
					c0.271,0.814,0.814,1.629,1.086,2.443s1.357,1.357,2.171,1.357h5.158c1.085,0,1.9-0.543,1.9-1.629
					c0.271-0.814,0.543-1.629,0.814-2.443c0-0.814,0.814-1.357,1.628-1.086h0.271c2.172,0.271,4.343,1.086,6.243,1.9
					c0.814,0.271,1.086,1.086,0.814,1.9l0,0c-0.271,1.086-0.271,1.629-0.543,2.714c-0.271,0.814,0,1.9,0.814,2.443
					c1.357,0.814,2.714,1.9,4.072,2.986c0.814,0.542,1.9,0.271,2.443-0.271c0.814-0.543,1.357-0.814,2.171-1.357
					c0.543-0.543,1.357-0.543,1.9,0c0,0,0,0.271,0.271,0.271c1.628,1.628,2.714,3.257,3.8,5.157
					c0.542,0.543,0.271,1.629-0.271,2.172h-0.271c-0.814,0.543-1.629,1.085-2.171,1.899c-0.814,0.543-1.086,1.629-0.543,2.443l0,0
					c0.543,1.629,1.085,3.257,1.628,4.886c0.271,1.086,1.086,1.357,2.171,1.357h2.443c0.814,0,1.628,0.543,1.628,1.086
					c0,0,0,0.271,0,0.543C410.035,238.599,410.306,241.314,410.035,243.757z"/>
			</g>
		</g>
	</g>
</g>
</svg>
