<?xml version="1.0" encoding="utf-8"?>
<!-- Generator: Adobe Illustrator 16.0.3, SVG Export Plug-In . SVG Version: 6.00 Build 0)  -->
<!DOCTYPE svg PUBLIC "-//W3C//DTD SVG 1.1//EN" "http://www.w3.org/Graphics/SVG/1.1/DTD/svg11.dtd" [
	<!ENTITY ns_extend "http://ns.adobe.com/Extensibility/1.0/">
	<!ENTITY ns_ai "http://ns.adobe.com/AdobeIllustrator/10.0/">
	<!ENTITY ns_graphs "http://ns.adobe.com/Graphs/1.0/">
	<!ENTITY ns_vars "http://ns.adobe.com/Variables/1.0/">
	<!ENTITY ns_imrep "http://ns.adobe.com/ImageReplacement/1.0/">
	<!ENTITY ns_sfw "http://ns.adobe.com/SaveForWeb/1.0/">
	<!ENTITY ns_custom "http://ns.adobe.com/GenericCustomNamespace/1.0/">
	<!ENTITY ns_adobe_xpath "http://ns.adobe.com/XPath/1.0/">
]>
<svg version="1.1" id="Layer_1" xmlns:x="&ns_extend;" xmlns:i="&ns_ai;" xmlns:graph="&ns_graphs;"
	 xmlns="http://www.w3.org/2000/svg" xmlns:xlink="http://www.w3.org/1999/xlink" x="0px" y="0px" width="319.623px"
	 height="319.622px" viewBox="267.02 80.917 319.623 319.622" enable-background="new 267.02 80.917 319.623 319.622"
	 xml:space="preserve">
<metadata>
	<sfw  xmlns="&ns_sfw;">
		<slices></slices>
		<sliceSourceBounds  width="319.623" height="319.622" y="99.961" x="266.52" bottomLeftOrigin="true"></sliceSourceBounds>
	</sfw>
</metadata>
<title>TARGET 1.2</title>
<g id="TARGETS">
	<g>
		<rect x="267.02" y="80.917" fill="#0A97D9" width="319.623" height="319.622"/>
	</g>
	<g>
		<g>
			<path fill="#FFFFFF" d="M464.256,148.685c0,0-42.819-16.857-48.888-18.881c-6.069-2.022-25.287-23.263-30.681-25.286
				l7.081,21.578c0,0-0.675,2.022-1.686,2.697c-1.011,0.674-67.431,15.846-67.431,15.846s-29.67-20.229-31.355-21.24
				c0,0-1.686,0-0.674,1.349c1.011,1.349,12.812,20.566,13.149,23.601c0.337,3.034-3.372,15.509-5.057,18.544
				c0,0-0.674,0.674,1.011,0.337c1.686-0.337,22.252-13.149,22.252-13.149s14.16,4.721,21.578,6.069
				c-1.349,2.697-2.697,5.395-4.72,8.092c5.395-1.349,10.452-3.372,14.835-6.406c0,0,35.401,5.058,46.527,6.068
				c0,0-4.046,12.813-5.395,16.184c7.754-3.709,14.835-8.766,20.903-14.835c0,0,40.796-8.766,49.225-16.857
				c0.675-1.012,0.675-2.36-0.337-3.371C464.593,149.023,464.593,148.685,464.256,148.685z M431.215,148.685
				c-2.36,0-4.046-2.022-4.046-4.046c0-2.359,2.022-4.046,4.046-4.046c2.359,0,4.046,2.023,4.046,4.046
				C435.261,146.999,433.574,148.685,431.215,148.685L431.215,148.685L431.215,148.685z"/>
		</g>
		<g>
			<path fill="#FFFFFF" d="M543.824,192.515L543.824,192.515c-2.023-2.359-12.475-11.8-35.401-13.486
				c-15.172-1.011-30.344,1.687-44.167,7.418c-5.395-2.36-11.126-4.383-16.858-5.395c0,0-1.011-0.337-1.349,0.337
				c-0.337,0.675,0,0.675,0.675,1.349c3.034,2.36,4.72,5.731,5.395,9.44c-0.337,3.371-2.023,6.406-4.721,8.429l-0.674,0.337v0.338
				c0,0.337,0.337,0.674,0.674,0.674h0.338h0.337c5.731-0.337,11.463-2.36,16.521-5.395c0,0,27.983,9.104,45.516,9.104
				c16.521,0,29.333-6.743,33.716-11.464l0.337-0.337l0.337-0.337C544.498,192.515,544.161,192.515,543.824,192.515z
				 M528.989,193.864c-2.023,0-3.371-1.349-3.371-3.371c0-2.023,1.348-3.372,3.371-3.372c2.022,0,3.371,1.349,3.371,3.372
				C532.36,192.515,531.012,193.864,528.989,193.864z"/>
		</g>
		<g>
			<path fill="#FFFFFF" d="M536.069,291.301c-2.022-3.371-3.034-7.08-3.371-10.788c0.337-3.709,1.349-7.755,3.371-10.789v-0.338
				c0,0,0-0.337-0.337-0.337l0,0c-5.058,0.675-9.104,4.046-11.464,8.429c0,0-10.114-8.429-19.217-8.429
				c-10.789,0-18.207,9.777-19.556,11.464l0,0l0,0l0,0l0,0c1.012,1.686,8.767,11.463,19.556,11.463
				c9.439,0,19.217-8.429,19.217-8.429c2.023,4.72,6.406,7.754,11.464,8.766l0,0C535.732,291.976,536.069,291.976,536.069,291.301
				L536.069,291.301L536.069,291.301z M498.982,281.861c-1.686,0-3.034-1.349-3.034-3.034s1.349-3.034,3.034-3.034
				s3.034,1.349,3.034,3.034l0,0C502.017,280.175,501.005,281.524,498.982,281.861L498.982,281.861z"/>
		</g>
		<g>
			<path fill="#FFFFFF" d="M470.999,258.26L470.999,258.26c-1.012-1.349-8.092-10.114-17.532-10.114
				c-8.429,0-17.532,7.755-17.532,7.755c-2.022-4.046-5.731-6.743-10.452-7.418l0,0c0,0-0.337,0-0.337,0.337v0.338
				c2.023,3.034,3.034,6.405,3.034,9.777c-0.337,3.371-1.349,7.08-3.034,9.777l0,0l0,0c0,0,0,0.337,0.337,0.337l0,0l0,0
				c4.384-0.674,8.43-3.709,10.452-7.755c0,0,9.104,7.755,17.532,7.755c9.777,0,16.521-8.766,17.532-10.451l0,0l0,0V258.26z
				 M458.524,259.609c-1.687,0-3.035-1.349-3.035-2.697c0-1.686,1.349-3.034,2.697-3.034s3.034,1.349,3.034,2.697l0,0
				C461.222,258.26,460.21,259.609,458.524,259.609L458.524,259.609z"/>
		</g>
		<g>
			<path fill="#FFFFFF" d="M493.251,250.506c0-1.687-1.349-3.035-3.034-3.035c-1.687,0-3.035,1.349-3.035,3.035
				c0,1.686,1.349,3.034,3.035,3.034l0,0C491.902,253.54,493.251,252.192,493.251,250.506L493.251,250.506z"/>
		</g>
		<g>
			<path fill="#FFFFFF" d="M481.788,226.905c-2.023,0-3.709,1.687-3.709,3.709c0,2.023,1.686,3.709,3.709,3.709
				c2.022,0,3.708-1.686,3.708-3.709l0,0C485.496,228.591,483.811,226.905,481.788,226.905z"/>
		</g>
		<g>
			<path fill="#FFFFFF" d="M477.067,318.948l6.743-4.383c0.337-0.337,1.686-0.674,1.349-1.686s-1.686-0.675-1.686-0.675h-9.104
				c-1.686,0-1.686-1.686-1.686-1.686c-0.337-2.697-1.349-5.395-2.697-7.755c-0.675-1.011-1.012-1.348-1.686-1.011
				c-0.675,0.337-0.675,0.337-0.675,1.349c-0.337,2.359-0.674,4.383-1.349,6.743c-0.674,2.022-1.686,2.022-3.371,2.022
				s-6.743,0-6.743,0c-0.337,0-1.012,0-1.349,0c-0.675,0-1.012,0.337-1.349,1.012c0,0.337,0.337,1.012,0.674,1.012
				c1.012,0.674,6.406,3.708,7.755,4.72c1.012,0.675,1.349,1.686,1.012,2.697c0,0.337-3.035,7.08-3.372,8.092
				s0.337,1.686,0.337,1.686c1.012,0.675,2.023-0.674,2.023-0.674c2.36-1.687,4.72-3.372,6.743-5.058
				c0.674-0.674,1.686-0.674,2.022,0l0,0c2.36,2.023,4.721,4.046,7.081,5.731c0.337,0.337,1.349,0.337,1.686,0
				c0.674-0.337,0.337-1.686,0.337-1.686s-2.36-6.743-2.697-8.092S477.067,318.948,477.067,318.948z"/>
		</g>
		<g>
			<path fill="#FFFFFF" d="M415.031,221.848c0.337,1.349,1.349,2.022,2.697,2.022c1.348-0.337,2.022-1.349,2.022-2.697
				c-0.337-1.349-1.349-2.022-2.697-2.022C415.705,219.488,414.694,220.499,415.031,221.848z"/>
		</g>
		<g>
			<path fill="#FFFFFF" d="M420.425,205.664c0,1.349,1.349,2.022,2.36,2.022l0,0c1.349-0.337,2.023-1.349,2.023-2.697
				c-0.337-1.349-1.349-2.022-2.697-2.022C421.1,203.304,420.088,204.316,420.425,205.664L420.425,205.664z"/>
		</g>
		<g>
			<path fill="#FFFFFF" d="M435.261,223.197c-0.338-1.349-1.349-2.023-2.697-2.023c-1.349,0.337-2.023,1.349-2.023,2.697l0,0
				c0.337,1.349,1.349,2.023,2.697,2.023l0,0C434.586,225.556,435.598,224.545,435.261,223.197L435.261,223.197z"/>
		</g>
		<g>
			<path fill="#FFFFFF" d="M404.917,229.265c-1.349,0.337-2.36,1.349-2.023,2.697c0.337,1.349,1.349,2.36,2.697,2.023l0,0
				c1.349-0.338,2.36-1.349,2.023-2.697C407.276,229.94,406.265,228.928,404.917,229.265z"/>
		</g>
		<g>
			<path fill="#FFFFFF" d="M408.962,209.71c-0.337-1.349-1.349-2.023-2.697-2.023c-1.349,0.338-2.023,1.349-2.023,2.697
				c0.337,1.349,1.349,2.023,2.697,2.023l0,0C408.288,212.071,409.299,211.059,408.962,209.71L408.962,209.71z"/>
		</g>
		<g>
			<path fill="#FFFFFF" d="M488.53,124.747l5.732-0.675c0.337,0.675,1.011,1.012,1.686,1.349l0.674,6.069
				c0,0.337,0.338,0.674,0.675,0.674l0,0c0.337,0,0.674-0.337,0.674-1.012l-0.674-5.731c0.674,0,1.686-0.674,2.022-1.011
				l4.721,3.034h0.337c0.337,0,0.674,0,0.674-0.337c0.338-0.338,0-1.012-0.337-1.012l-5.057-3.034c0-0.338,0.337-0.675,0.337-1.012
				c0-1.012-0.337-1.686-1.012-2.36l2.697-3.371c0.337-0.338,0.337-1.012,0-1.012c-0.337-0.337-1.012-0.337-1.349,0l-2.697,3.371
				c-0.337-0.337-1.012-0.337-1.349-0.337c-0.674,0-1.686,0.337-2.022,0.675l-3.372-4.384c-0.337-0.337-1.012-0.337-1.349,0
				c-0.337,0.338-0.337,1.012,0,1.012l4.383,4.721c-0.337,0.674-0.337,1.011-0.337,1.686v0.337l-5.058,0.675
				c-0.337,0-0.674,0.337-0.674,0.674S488.193,124.747,488.53,124.747L488.53,124.747z"/>
		</g>
		<g>
			<path fill="#FFFFFF" d="M508.76,149.36c-0.337,0.674-0.674,1.349-0.674,2.359l-6.069,1.012c-0.337,0-0.674,0.675-0.674,1.012
				s0.337,0.674,0.674,0.674l0,0l6.406-1.011c0.337,0.674,0.674,1.011,1.012,1.349h0.337l-2.36,4.72
				c-0.337,0.337,0,1.012,0.337,1.012h0.338c0.337,0,0.674-0.337,0.674-0.337l3.372-5.058c0.674,0,1.686-0.337,2.022-0.675
				l5.395,2.697c0.337,0.338,1.012,0,1.012-0.337l0,0c0.337-0.337,0-1.012-0.337-1.012l0,0l-5.395-2.697
				c0.337-0.674,0.337-1.686,0-2.359l5.057-2.697c0.338-0.337,0.675-0.675,0.338-1.012c-0.338-0.337-0.675-0.674-1.012-0.337l0,0
				l-5.058,2.697c-0.337-0.337-0.337-0.337-0.674-0.675c-0.675-0.337-1.687-0.674-2.36-0.337l-1.349-4.046
				c0-0.337-0.675-0.674-1.012-0.674s-0.674,0.674-0.674,1.011l1.349,4.046C509.435,148.685,509.097,149.023,508.76,149.36z"/>
		</g>
		<g>
			<path fill="#FFFFFF" d="M526.292,133.513l5.395-1.349c0.674,0.675,1.349,1.012,2.022,1.012l1.349,6.068
				c0,0.338,0.338,0.675,0.675,0.675h0.337c0.337,0,0.675-0.675,0.675-1.012l-1.349-5.731c0.674-0.337,1.349-0.675,2.022-1.349
				l5.395,2.022h0.337c0.338,0,0.675-0.337,0.675-1.011c0-0.338-0.337-0.675-0.675-0.675l-5.395-2.022c0-0.338,0-0.675,0-1.012
				c0-1.012-0.674-1.686-1.349-2.36l2.36-3.708c0.337-0.338,0-1.012-0.337-1.012c-0.337-0.337-1.012,0-1.012,0.337l-2.36,3.709
				c-0.337,0-1.011,0-1.349,0c-0.674,0-1.349,0.337-2.022,1.011l-4.721-4.045c-0.337-0.338-1.011-0.338-1.011,0
				c-0.338,0.337-0.338,1.011,0,1.349l0,0l5.057,4.045c0,0.675,0,1.012,0,1.687v0.337l-5.394,1.349
				c-0.338,0-0.675,0.674-0.675,1.012C525.28,133.176,525.618,133.513,526.292,133.513L526.292,133.513z"/>
		</g>
		<g>
			<path fill="#FFFFFF" d="M379.292,210.047c2.023-2.36,2.697-5.731,2.023-8.766c0-0.675-0.674-1.012-1.011-1.012l0,0
				c-3.035,0-6.069,1.012-8.429,3.371c-1.349,1.687-2.697,3.372-3.371,5.395c-3.709-1.349-7.755-1.349-11.801,0
				c0-0.337,0-0.337,0-0.674c-0.674-2.36-5.731-2.697-11.463-0.675c-5.732,2.023-9.778,4.721-8.766,7.08
				c1.011,2.36,4.046,2.36,8.092,1.687l0,0h0.337c-1.349,1.349-2.36,2.697-3.372,4.046c-2.023,2.697-3.372,5.731-4.046,8.766
				c-0.674-0.337-1.349-0.337-2.023-0.337c-3.034,0-5.731,0-5.731,5.058c0,5.057,2.697,5.057,5.731,5.057
				c0.337,0,1.012,0,1.349-0.337c0.337,3.709,1.012,7.08,2.36,10.452c4.046,1.011,8.429,1.011,12.475,0.674c0,0.337,0,1.012,0,1.349
				c0.337,3.034,0.674,5.731,5.731,5.058c5.058-0.675,4.383-3.372,4.046-6.406c0-1.012-0.337-1.686-1.011-2.36
				c2.36-1.011,4.383-2.697,6.406-4.383c2.023-2.022,4.046-4.383,5.395-6.743v1.686c0,4.384,1.011,7.418,2.697,7.755
				c1.686,0.337,5.057-4.046,6.069-9.777c1.011-5.731-0.337-10.789-2.697-11.126c-0.674,0-1.349,0-1.686,0.674l0,0
				c0.674-3.708,0-7.754-2.023-11.126C376.258,213.081,377.944,211.733,379.292,210.047z"/>
		</g>
		<g>
			<path fill="#FFFFFF" d="M539.778,331.76c-1.012-0.338-2.36-0.338-3.709-0.338h-1.686c-14.835-0.337-30.007,2.023-44.167,7.081
				c-26.973,9.44-54.619,16.183-82.94,20.229c-0.337-3.371-2.697-12.137,1.012-15.172c2.023-2.697,5.395-3.371,8.429-2.359
				c2.023,0.337,3.372,6.068,4.383,8.091c1.012,2.023,2.697,1.012,2.697-0.337c-0.337-1.686-0.674-3.371-1.349-5.057
				c-0.337-1.349,0-1.349,1.686-1.012c1.687,0.337,2.36,1.349,4.384,2.36c2.022,1.011,3.708,0.337,3.708-1.349
				c0-1.687-2.022-2.023-4.046-2.697c-2.022-0.675-2.697-1.012-1.349-2.36c1.349-1.012,1.687-2.697,1.349-4.383
				c-0.674-1.349-2.359-1.687-4.383,1.011c-2.022,2.697-4.046,2.697-4.72,1.012s3.372-6.068,5.057-8.766
				c1.687-2.36,4.046-4.046,7.081-4.383c3.034-0.675,4.383-0.675,4.046-2.023c-0.338-1.349-3.372-1.012-4.721-1.012
				c-1.012,0-2.022-0.674-2.36-1.686c0-0.337,0-0.337,0-0.674c0-1.349,2.36-3.372,4.384-5.395c2.022-2.023,2.359-2.697,1.348-4.046
				c-1.011-1.349-3.371-1.012-5.394,0.674c-1.687,1.686-3.035,3.372-4.046,5.058c-0.675,1.012-1.687-0.675-3.035-2.36
				c-1.348-1.686-2.697-2.36-3.708-1.686c-1.012,0.674,0,2.022,1.348,3.371c1.686,2.023,2.36,4.384,2.36,6.743
				c0,2.36-1.348,4.721-3.708,5.731c-1.012,0.338-0.675-3.371-2.697-3.371c-2.023,0-2.36,2.36-2.36,5.395s-3.372,4.72-5.057,3.034
				c-1.686-3.034-2.697-6.068-3.035-9.777c0-2.36,3.035-4.72,5.058-6.068s5.057-1.687,3.372-4.046
				c-1.686-2.36-7.081,0.674-9.104,2.697c-2.023,2.022-3.034,1.349-3.372,0.337c-0.337-2.697-0.337-5.058,0.337-7.755
				c1.011-3.371,4.046-5.731,7.417-6.068c3.034,0.337,5.731,1.349,8.092,3.371c1.011,0.675,3.034,1.012,3.371-0.674
				c0.337-1.686-3.034-3.372-4.383-4.046c-1.349-0.675-2.023-0.675-1.686-2.022c0.337-1.349,4.383-2.697,6.068-3.372
				c1.686-0.674,4.046-1.686,2.697-3.709c-1.349-2.022-6.743,1.349-8.092,2.023c-1.348,0.674-1.011-2.697-1.348-3.709
				c-0.337-1.012,0-3.709-2.36-3.709c-2.36,0-2.023,4.384-2.36,6.743c-0.337,2.36-1.686,2.023-5.058,4.384
				c-2.023,1.686-4.046,3.708-6.069,5.731c-1.011,0.674-1.349-1.687-1.686-5.058c-0.337-2.697,0.337-5.395,2.023-7.755
				c1.686-2.022,4.046-3.708,6.406-5.057c0.674-0.338,1.012-1.349,0.674-2.023c-0.337-0.674-1.349-1.012-2.023-0.674
				c-1.686,0.674-3.372,1.349-4.383,0.674c-1.012-0.674,1.011-3.708,2.36-6.405s1.349-5.395-0.337-6.406
				c-1.686-1.012-4.383,1.686-5.058,3.709c-0.674,2.022-1.686,2.359-3.034,0.674s-2.36-2.697-3.034-2.022
				c-0.674,0.674-1.349,1.011,0.337,3.371c1.349,2.023,2.023,4.383,2.023,6.743c0,2.022-1.349,2.697-2.697,1.349
				s-3.372-2.023-3.708-0.675c-0.337,1.349,1.011,2.36,2.697,3.035c1.686,0.674,1.686,3.708,1.686,5.057s-0.337,2.36-2.023,2.023
				c-2.36-1.349-4.046-3.372-5.057-5.731c0-1.349-0.337-3.035-0.337-4.384c-0.337-1.011-2.36-0.337-2.36,0.675
				c0,1.686,0,3.371,0,5.058c-0.337,0.674-2.36-0.338-5.058-1.349c-2.697-1.012-4.72-0.338-4.72,1.349
				c0,1.686,4.72,3.708,6.068,3.708s2.023,1.012,1.349,2.023s-3.034,2.697-3.708,3.371c-0.674,0.675,0.337,3.034,2.023,1.686
				c1.686-1.686,3.708-2.696,6.069-3.034c1.686,0,3.372,0.675,4.383,2.36c0.337,1.012-1.011,1.349-2.697,2.022
				c-1.686,0.675-2.36,1.686-2.36,2.36c0,0.674,0.337,1.686,2.023,0.674c1.349-0.674,2.697-1.011,4.046-0.674
				c1.686-0.337,2.023,2.022,2.023,2.022c1.011,3.372,5.395,13.149,6.068,14.835c0.674,1.686,0,2.697-2.022,2.697
				c-2.023,0-4.383,0-4.046,2.023c0.337,2.022,4.046,2.022,6.743,2.022c2.697,0,2.697,2.697,3.035,6.406
				c0.337,3.709-4.046,4.046-6.069,2.022c-3.372-3.034-6.406-6.405-8.766-10.114c-0.674-2.022-0.337-4.046,0.674-5.731
				c0.674-1.349,2.36-1.012,3.372-1.686c1.012-0.675,1.012-1.687,0.674-2.36c0,0,0,0,0-0.337c-0.674-1.012-2.697,0-3.708,0.674
				c-1.012,0.675-1.686,1.012-1.686,0s0.337-3.709,0.337-5.058s-0.674-2.359-2.36-1.686c-1.686,0.675-2.023,8.429-1.686,11.464
				c0.337,3.034-1.349,3.034-2.697,2.697c-2.023-1.349-3.709-3.035-4.72-5.058c-0.674-1.349-0.674-2.023,1.349-4.383
				c0.674-1.012,1.349-2.023,1.686-3.372c0.337-1.012-1.348-1.349-2.023-0.337c-0.674,1.012-1.349,1.686-2.36,2.36
				c-0.674,0.337-0.337-3.709-0.337-4.384c0-0.674,0.337-2.022-1.686-2.022s-1.011,4.046-1.011,5.058
				c0,1.011-1.349,0.674-3.372,0.337s-2.697,2.022-0.674,2.022c1.686,0,3.034,0.338,4.383,1.349
				c0.674,1.349,1.012,3.372,0.337,4.721c-0.337,1.012-2.023-0.337-4.72-0.337s-5.395,0.337-5.732,2.022
				c-0.337,1.686,2.023,3.372,4.72,3.372s5.395-0.338,5.732,0.337c0.337,0.674-0.674,1.012-1.686,2.022
				c-1.011,1.012-1.349,2.023-0.674,3.034c0.674,1.012,2.36,0.675,3.709-0.674c1.011-1.349,2.697-2.023,4.383-1.686
				c2.36,0.337,4.72,1.349,6.743,3.034c1.349,1.012,0.337,2.697-1.012,3.034c-2.023,0.675-3.708,1.349-5.057,2.697
				s-3.372,1.349-4.72,0c-1.349-1.012-3.372-2.697-4.046-1.349s1.012,2.697,1.686,3.372c0.674,0.674,1.349,0.674,0.674,2.022
				c-1.012,1.349-2.36,2.697-3.709,3.709c-0.674,0.674-0.674,1.686-0.337,2.36c0.337,0.337,1.011,0.674,1.686,0.674
				c2.023-1.012,4.046-2.36,5.731-4.046c0.337-0.337,1.012-1.349,1.349,0c0,1.349,0,2.697,0,3.709s-0.674,2.022,0.675,2.359
				c0.674,0.338,1.348,0,1.686-0.674c0.337-1.349,0.337-2.36,0.337-3.709c-0.337-2.022,0.674-4.046,2.023-5.731
				c1.686-2.022,6.069-1.012,8.429-1.012c2.36,0,2.697,2.023,2.697,3.709s-3.035,3.034-4.046,3.709
				c-1.012,0.674-3.372,1.012-2.36,2.697c1.012,1.686,1.349,1.012,2.36,1.012c1.011,0,3.708-3.035,5.731-3.372s3.709,0,5.057,4.046
				c1.349,3.371,2.36,6.743,2.697,10.452c-15.172,2.022-30.681,3.034-46.19,3.371c-3.709,0.337-6.406,0.675-8.429,1.012
				c1.011-1.349,2.023-2.697,3.372-3.709c1.348-1.349,1.011-3.034,0.337-6.068c-0.674-3.035,1.011-5.058,1.686-7.418
				c0.337-2.359,0.337-4.72-0.675-6.743c0-0.337-0.337-0.674-0.674-1.011c-1.686,2.022-3.035,4.72-3.709,7.08
				c-0.674,3.034,0,4.72-1.011,6.743c-1.012,2.022-3.035,3.371-2.697,4.72c0,2.36,0,4.383-0.674,6.743l-2.36,0.337
				c0-1.686-0.337-3.371-1.011-4.72c-0.337-1.012-1.686-2.36,0-4.046c1.686-1.686,2.36-3.709,2.023-6.069
				c0-2.697,0.337-3.034,2.697-5.394c2.36-2.36,1.349-5.395,1.011-7.418c-0.337-2.022,0.674-1.686,2.36-3.371
				c1.686-1.687,0-4.721,0.337-7.081c0.337-2.359,1.686-1.686,1.349-5.057c-0.337-2.36,0-4.721,0.674-7.08
				c0.674-3.372-3.372-6.743-4.383-7.418c0.337,0.338,0,1.349-1.012,4.383c-1.011,3.035,0,4.046,0.674,6.069
				c0.674,2.022-0.674,2.36-0.674,4.383c0,2.023,0.674,2.697-1.349,4.721c-2.023,2.022-2.36,3.708-2.36,7.754
				s-2.697,3.709-4.046,5.395s0.674,3.709,0.337,6.406c0,1.012-0.337,2.022-0.674,2.697c0.337-1.349,0.337-2.697,0-4.046
				c-1.349-3.034-1.349-4.383-1.011-5.058c0.674-0.674,1.011-1.349,2.023-2.022c-0.337-0.338-0.337-0.338-0.337-0.675
				c-0.674-1.349,0-3.034,1.686-6.405c1.686-3.372,0.674-3.372-0.337-5.395c-1.011-2.023-1.011-2.697,0.674-4.046
				c1.349-1.349,1.686-3.035,1.349-4.721c-0.674-1.686-0.674-3.034-0.337-4.72c0.674-2.36,2.023-2.36,1.349-4.383
				c-0.674-2.023-1.349-3.709-1.349-3.709c-0.674-2.023,1.686-3.372,0-6.743c-1.686-3.371-0.337-4.046-1.012-8.429
				c-0.337-2.36-2.697-4.046-5.057-3.709l0,0c-0.674,0-1.686,1.012-1.349,4.046c0.337,3.034,2.36,3.709,1.686,7.08
				c-0.674,3.372,1.012,4.383,1.686,6.406c0.674,2.022-3.034,3.371-3.034,5.057c0,1.687,1.348,3.372-0.675,5.395
				c-2.022,2.023-2.36,2.697-0.674,6.069c1.011,2.36,0,3.034-1.686,6.068c-1.686,3.035-0.674,4.046-0.337,7.755
				c0.337,2.36,0.674,4.383,0.337,6.743c-0.337,2.36-1.686,2.697-1.686,6.743c0.674,2.697,1.349,5.395,1.349,8.092
				c-0.337,1.686-5.395,5.395-5.058,7.754c0,1.012,0,2.023,0,3.372l-6.406-0.337c-0.337-3.372-1.012-8.092-2.023-13.149
				c-1.349-6.743,0-14.16,2.023-22.589l0,0v-0.338c0.674-3.371,1.349-7.08,2.023-11.126c2.697-13.486,3.372-26.972,2.36-40.795
				c-1.011-5.732-2.023-11.464-3.708-17.195c-1.349-5.395-2.697-10.452-3.372-14.835c-1.349-9.44-2.697-16.184-2.697-16.184
				c0-0.674-0.674-1.011-1.349-1.011s-1.349,0.674-1.012,1.349l0,0c0,0,1.349,7.08,2.697,16.183
				c0.674,4.721,2.023,9.778,3.372,15.173c1.349,5.394,3.035,11.463,3.709,16.857c1.011,10.451,0.674,20.903-0.674,31.354
				c0-3.034,0-6.068-0.337-9.439c-0.674-8.767-2.36-17.532-5.395-25.961c-0.337-0.675-1.011-1.012-1.686-0.675
				c-0.674,0.338-1.012,1.012-0.674,1.687c2.697,8.092,4.383,16.521,5.057,25.286c0.674,9.44,0.674,19.218-0.337,28.658v0.337
				c-1.686,8.766-3.372,16.521-2.023,23.601c1.011,4.721,1.349,9.104,1.686,12.475h-2.023c-1.686-2.697-3.034-5.731-3.708-8.766
				c-0.674-1.686-1.349-3.709-2.36-6.406c-3.035-8.429-2.697-24.274-2.023-35.401c0.337-3.371,0.674-6.742,1.011-10.451
				c1.686-10.114,1.686-20.566,0-30.681c-3.034-14.835-2.36-18.881-2.36-18.881c0-0.675-0.337-1.349-1.012-1.349
				s-1.349,0.337-1.349,1.012c0,0.337-0.674,4.383,2.36,19.892c1.686,9.777,1.686,19.893,0,30.007
				c-0.337,3.709-0.674,7.08-1.012,10.451c-0.674,12.476-1.011,27.647,2.023,36.413c1.012,2.697,1.686,4.72,2.023,6.406
				c1.012,2.697,2.023,5.395,3.372,8.092h-1.349c-13.149,0.337-15.846,7.417-16.184,11.463c0,0.337,0,0.337,0,0.675v0.674h273.77
				v-24.612C564.054,337.828,565.401,335.806,539.778,331.76z"/>
		</g>
	</g>
</g>
</svg>
