<?xml version="1.0" encoding="utf-8"?>
<!-- Generator: Adobe Illustrator 16.0.3, SVG Export Plug-In . SVG Version: 6.00 Build 0)  -->
<!DOCTYPE svg PUBLIC "-//W3C//DTD SVG 1.1//EN" "http://www.w3.org/Graphics/SVG/1.1/DTD/svg11.dtd" [
	<!ENTITY ns_extend "http://ns.adobe.com/Extensibility/1.0/">
	<!ENTITY ns_ai "http://ns.adobe.com/AdobeIllustrator/10.0/">
	<!ENTITY ns_graphs "http://ns.adobe.com/Graphs/1.0/">
	<!ENTITY ns_vars "http://ns.adobe.com/Variables/1.0/">
	<!ENTITY ns_imrep "http://ns.adobe.com/ImageReplacement/1.0/">
	<!ENTITY ns_sfw "http://ns.adobe.com/SaveForWeb/1.0/">
	<!ENTITY ns_custom "http://ns.adobe.com/GenericCustomNamespace/1.0/">
	<!ENTITY ns_adobe_xpath "http://ns.adobe.com/XPath/1.0/">
]>
<svg version="1.1" id="Layer_1" xmlns:x="&ns_extend;" xmlns:i="&ns_ai;" xmlns:graph="&ns_graphs;"
	 xmlns="http://www.w3.org/2000/svg" xmlns:xlink="http://www.w3.org/1999/xlink" x="0px" y="0px" width="500px" height="500px"
	 viewBox="177 0 500 500" enable-background="new 177 0 500 500" xml:space="preserve">
<metadata>
	<sfw  xmlns="&ns_sfw;">
		<slices></slices>
		<sliceSourceBounds  width="500" height="500" y="0.5" x="176.5" bottomLeftOrigin="true"></sliceSourceBounds>
	</sfw>
</metadata>
<title>Artboard 1</title>
<rect x="177" y="0" fill="#56C02B" width="500" height="500"/>
<polygon fill="#FFFFFF" points="336.78,41.85 336.78,82.74 351.855,82.74 351.855,77.13 343.655,77.13 343.655,41.85 "/>
<rect x="355.595" y="41.85" fill="#FFFFFF" width="6.87" height="40.885"/>
<polygon fill="#FFFFFF" points="366.985,82.74 373.855,82.74 373.855,64.705 380.73,64.705 380.73,59.16 373.855,59.16 
	373.855,47.46 383.07,47.46 383.07,41.85 366.985,41.85 "/>
<polygon fill="#FFFFFF" points="386.695,82.74 403.085,82.74 403.085,77.13 393.565,77.13 393.565,64.705 400.38,64.705 
	400.38,59.16 393.565,59.16 393.565,47.46 403.085,47.46 403.085,41.85 386.695,41.85 "/>
<polygon fill="#FFFFFF" points="213.61,60.145 213.61,77.835 213.76,77.835 225.65,65.495 225.805,65.495 225.805,142.665 
	242.75,142.665 242.75,41.85 229.22,41.85 "/>
<path fill="#FFFFFF" d="M283.05,73.825c-6.69,0-11.595,2.375-14.275,7h-0.15V55.68h29.145V41.86h-44.605V98.66h15.46v-2.24
	c0-5.94,2.675-9.215,7.43-9.215c5.21,0,7.295,3.569,7.295,9.074v24.386c0,5.345-1.935,9.064-7.14,9.064
	c-5.795,0-7.87-3.865-7.87-9.814V107.28h-15.5v11.455c0,15.311,6.095,25.12,23.345,25.12c17.1,0,24.085-9.069,24.085-23.045V96.125
	c0-15.91-8.175-22.3-17.245-22.3"/>
<path fill="#FFFFFF" d="M336.75,132.16v-19.695c0-6.37,3.125-11,10.335-11s10.39,4.625,10.39,11v19.695c0,6.31-3.12,11-10.39,11
	S336.75,138.475,336.75,132.16 M350.625,133.24V111.38c0-2.465-1.08-4.205-3.54-4.205s-3.5,1.74-3.5,4.205v21.859
	c0,2.466,1.08,4.211,3.5,4.211S350.625,135.705,350.625,133.24"/>
<polygon fill="#FFFFFF" points="367.12,117.09 367.12,142.67 361.355,142.67 361.355,101.95 368.085,101.95 375.47,125.31 
	375.47,101.95 381.175,101.95 381.175,142.67 375.175,142.67 "/>
<polygon fill="#FFFFFF" points="396.02,101.95 402.865,101.95 402.865,137.085 411.04,137.085 411.04,142.67 396.02,142.67 "/>
<path fill="#FFFFFF" d="M413.055,142.67l7.69-40.72h7.81l7.75,40.72h-7.029L428,135.225h-7.255l-1.195,7.445H413.055z
	 M421.65,129.76h5.465l-2.705-16.335h-0.061L421.65,129.76z"/>
<polygon fill="#FFFFFF" points="444.87,117.09 444.87,142.67 439.1,142.67 439.1,101.95 445.83,101.95 453.215,125.31 
	453.215,101.95 458.92,101.95 458.92,142.67 452.92,142.67 "/>
<path fill="#FFFFFF" d="M483.845,112.885v18.86c0,6.239-2.58,10.925-9.91,10.925h-10.569v-40.72h10.569
	C481.265,101.95,483.845,106.575,483.845,112.885 M473.095,137.085c2.815,0,3.905-1.681,3.905-4.141V111.62
	c0-2.405-1.09-4.085-3.905-4.085h-2.885v29.55H473.095z"/>
<g>
	<path fill="#FFFFFF" d="M386.595,338.06c0.61,0,1.105,0.495,1.105,1.104l0,0v36.41c0.002,0.607-0.488,1.103-1.095,1.105
		c-0.003,0-0.007,0-0.01,0h-14.73c-0.61,0.003-1.107-0.49-1.11-1.101c0-0.001,0-0.003,0-0.005v-36.41
		c0-0.609,0.495-1.104,1.105-1.104c0.002,0,0.003,0,0.005,0H386.595z"/>
	<path fill="#FFFFFF" d="M548.4,392.31H305.595c-0.62,0.017-1.113,0.525-1.11,1.145v14.841c0.008,0.605,0.504,1.093,1.11,1.09H548.4
		c0.604-0.003,1.099-0.485,1.114-1.09v-14.841C549.513,392.835,549.02,392.328,548.4,392.31"/>
	<path fill="#FFFFFF" d="M548.4,421.805H305.595c-0.602,0.008-1.087,0.493-1.095,1.095v14.885c0.011,0.606,0.504,1.093,1.11,1.096
		H548.4c0.605-0.006,1.099-0.489,1.114-1.096V422.9C549.501,422.293,549.007,421.807,548.4,421.805"/>
	<path fill="#FFFFFF" d="M502.195,297.76c-3.03-2.375-11.13-7.915-21-7.915c-7.061,0-13.625,2.78-19.5,8.285
		c-0.411,0.391-0.646,0.933-0.65,1.5V301c-0.03,0.629,0.226,1.239,0.695,1.659c0.474,0.398,1.108,0.548,1.71,0.4
		c0.154-0.024,0.307-0.063,0.455-0.115c0.456-0.165,0.87-0.428,1.215-0.77c1.27-0.855,4.75-2,9.725-2c5.141,0,15.25,1.38,25,10.5
		l0.226,0.2c0.556,0.566,1.316,0.884,2.109,0.88c0.773,0.003,1.515-0.308,2.056-0.86l0.199-0.205c9.82-9.12,19.91-10.5,25.051-10.5
		c5,0,8.5,1.17,9.75,2c0.382,0.369,0.842,0.649,1.345,0.82c0.467,0.111,0.954,0.108,1.42-0.01c0.901-0.248,1.527-1.065,1.53-2
		v-1.171c-0.007-0.566-0.241-1.107-0.65-1.5c-5.93-5.649-12.564-8.499-19.734-8.499c-9.785,0-17.846,5.455-20.966,7.925"/>
	<path fill="#FFFFFF" d="M487.13,201c-0.52,0.256-0.905,0.722-1.06,1.279l-0.245,0.811c-0.189,0.625-0.07,1.302,0.32,1.825
		c0.352,0.483,0.902,0.784,1.5,0.819c0.101,0.021,0.204,0.021,0.305,0c0.408-0.006,0.81-0.108,1.17-0.3
		c0.491-0.116,0.995-0.172,1.5-0.165c1.085,0,10.875,0.33,17.345,11.33l0.085,0.16c0.32,0.612,0.883,1.062,1.55,1.24
		c0.252,0.074,0.513,0.114,0.775,0.12c0.427,0.001,0.847-0.103,1.225-0.301l0.16-0.08c3.353-1.725,7.061-2.642,10.83-2.68
		c6.135,0,10.14,2.5,11.075,3.545c0.194,0.352,0.462,0.656,0.785,0.896c0.253,0.146,0.518,0.273,0.79,0.38
		c0.117,0.029,0.238,0.047,0.359,0.05c0.072,0.008,0.144,0.008,0.216,0c0.336-0.002,0.667-0.084,0.965-0.24
		c0.499-0.256,0.871-0.706,1.029-1.245l0.205-0.715c0.061-0.19,0.089-0.39,0.085-0.59c0.003-0.368-0.096-0.729-0.284-1.045
		c-4.716-8.185-11.556-9.895-16.471-9.895c-2.986,0.037-5.943,0.592-8.74,1.64c-2.22-3-7.845-9.175-16.375-9.175
		c-3.171,0.042-6.288,0.83-9.1,2.3"/>
	<path fill="#FFFFFF" d="M435.825,238.345l0.07,1.095c0.068,1.145,1.052,2.016,2.196,1.946c0.138-0.008,0.274-0.03,0.408-0.066
		c0.121-0.028,0.239-0.064,0.355-0.109c0.407-0.169,0.769-0.436,1.05-0.775c1.029-0.745,4.354-2.104,9.26-2.104
		c4.715,0,11.885,1.26,19.195,7.265l0.17,0.175c0.521,0.451,1.186,0.701,1.875,0.705h0.18c0.729-0.049,1.411-0.377,1.905-0.915
		l0.16-0.185c8.095-8.565,16.81-9.835,21.284-9.835c3.19,0,5.45,0.654,6.33,1.154c0.368,0.311,0.8,0.534,1.266,0.655
		c0.463,0.116,0.949,0.094,1.399-0.064c0.874-0.31,1.436-1.161,1.375-2.085l-0.055-0.95c-0.035-0.562-0.299-1.084-0.729-1.445
		c-4.83-4.065-10.046-6.11-15.53-6.11c-8.54,0-15.355,5.04-18.175,7.5c-2.58-1.76-8.851-5.38-16.2-5.38
		c-6.46,0-12.25,2.686-17.226,7.96c-0.388,0.423-0.591,0.982-0.564,1.556"/>
	<path fill="#FFFFFF" d="M312.955,257.835c-0.006-14.539,11.776-26.33,26.315-26.335c0.003,0,0.007,0,0.01,0
		c0.57,0,1.125,0.05,1.685,0.085c1.457-19.604,18.53-34.316,38.135-32.86c19.604,1.457,34.316,18.53,32.86,38.135
		c-0.334,4.497-1.52,8.891-3.495,12.945c21.459,4.735,35.017,25.971,30.28,47.43c-4.029,18.257-20.225,31.246-38.92,31.215
		c-1.605,0-53.115-0.31-53.115-0.31l0,0c-15.544,0.023-28.164-12.558-28.188-28.103c-0.011-7.203,2.741-14.137,7.688-19.372
		C318.015,275.985,312.957,267.272,312.955,257.835z"/>
</g>
</svg>
