<?xml version="1.0" encoding="utf-8"?>
<!-- Generator: Adobe Illustrator 16.0.3, SVG Export Plug-In . SVG Version: 6.00 Build 0)  -->
<!DOCTYPE svg PUBLIC "-//W3C//DTD SVG 1.1//EN" "http://www.w3.org/Graphics/SVG/1.1/DTD/svg11.dtd" [
	<!ENTITY ns_extend "http://ns.adobe.com/Extensibility/1.0/">
	<!ENTITY ns_ai "http://ns.adobe.com/AdobeIllustrator/10.0/">
	<!ENTITY ns_graphs "http://ns.adobe.com/Graphs/1.0/">
	<!ENTITY ns_vars "http://ns.adobe.com/Variables/1.0/">
	<!ENTITY ns_imrep "http://ns.adobe.com/ImageReplacement/1.0/">
	<!ENTITY ns_sfw "http://ns.adobe.com/SaveForWeb/1.0/">
	<!ENTITY ns_custom "http://ns.adobe.com/GenericCustomNamespace/1.0/">
	<!ENTITY ns_adobe_xpath "http://ns.adobe.com/XPath/1.0/">
]>
<svg version="1.1" id="Layer_1" xmlns:x="&ns_extend;" xmlns:i="&ns_ai;" xmlns:graph="&ns_graphs;"
	 xmlns="http://www.w3.org/2000/svg" xmlns:xlink="http://www.w3.org/1999/xlink" x="0px" y="0px" width="500px" height="500.016px"
	 viewBox="177 -0.01 500 500.016" enable-background="new 177 -0.01 500 500.016" xml:space="preserve">
<metadata>
	<sfw  xmlns="&ns_sfw;">
		<slices></slices>
		<sliceSourceBounds  width="500" height="500.016" y="0.495" x="176.5" bottomLeftOrigin="true"></sliceSourceBounds>
	</sfw>
</metadata>
<title>Artboard 1</title>
<rect id="_Path_" x="177" y="-0.01" fill="#FCC30B" width="500" height="500.016"/>
<polygon id="_Path_2" fill="#FFFFFF" points="228.285,55.725 254.46,55.725 231.85,142.71 248.66,142.71 270.815,57.51 
	270.815,41.895 228.285,41.895 "/>
<g>
	<path id="_Compound_Path_" fill="#FFFFFF" d="M427,242.245c-40.477-0.017-73.303,32.782-73.32,73.26
		c-0.017,40.477,32.783,73.303,73.26,73.319c40.477,0.017,73.303-32.783,73.319-73.26c0-0.012,0-0.023,0-0.035
		C500.263,275.065,467.466,242.256,427,242.245 M421.575,271.195c0-2.435,2.445-5.125,5.455-5.125s5.425,2.69,5.425,5.125v25.165
		c0,2.425-2.425,5.085-5.425,5.085s-5.455-2.66-5.455-5.085V271.195z M427,353.079c-21.053-0.033-38.093-17.127-38.06-38.18
		c0.026-16.646,10.849-31.349,26.734-36.319v14.194c-12.273,6.257-17.151,21.279-10.894,33.554
		c6.257,12.273,21.28,17.151,33.553,10.894c12.273-6.257,17.151-21.279,10.895-33.553c-2.403-4.714-6.242-8.541-10.964-10.93
		v-14.194c20.111,6.226,31.368,27.576,25.143,47.688C458.466,342.194,443.708,353.076,427,353.079"/>
	<path id="_Path_3" fill="#FFFFFF" d="M342.865,314.89c0-3.325-2.945-6-5.63-6H305.14c-2.705,0-5.675,2.689-5.675,6
		c0,3.31,2.97,6.035,5.675,6.035h32.095C339.92,320.925,342.865,318.22,342.865,314.89"/>
	<path id="_Path_4" fill="#FFFFFF" d="M554.535,314.89c0-3.325-2.945-6-5.63-6h-32.09c-2.705,0-5.676,2.689-5.676,6
		c0,3.31,2.971,6.035,5.676,6.035h32.09C551.59,320.925,554.535,318.22,554.535,314.89"/>
	<path id="_Path_5" fill="#FFFFFF" d="M427,230.765c3.315,0,6-2.945,6-5.63V193.04c0-2.705-2.695-5.676-6-5.676
		s-6.045,2.971-6.045,5.676v32.095C420.955,227.82,423.67,230.765,427,230.765"/>
	<path id="_Path_6" fill="#FFFFFF" d="M427,442.43c3.315,0,6-2.945,6-5.63v-32.09c0-2.7-2.695-5.676-6-5.676
		s-6.045,2.976-6.045,5.676v32.09C420.955,439.485,423.67,442.43,427,442.43"/>
	<path id="_Path_7" fill="#FFFFFF" d="M354,273.095c1.655-2.885,0.44-6.68-1.9-8l-27.85-15.94c-2.35-1.345-6.26-0.5-7.915,2.4
		c-1.655,2.9-0.415,6.715,1.93,8.06l27.855,15.94c2.33,1.335,6.23,0.45,7.88-2.445"/>
	<path id="_Path_8" fill="#FFFFFF" d="M537.695,378.235c1.645-2.875,0.43-6.68-1.9-8l-27.85-15.939
		c-2.351-1.341-6.266-0.5-7.915,2.404c-1.65,2.905-0.42,6.715,1.925,8.056l27.854,15.939c2.33,1.335,6.23,0.45,7.886-2.445"/>
	<path id="_Path_9" fill="#FFFFFF" d="M468.805,241.885c2.88,1.645,6.675,0.43,8-1.9l15.936-27.854
		c1.35-2.351,0.5-6.266-2.396-7.915c-2.895-1.65-6.72-0.42-8.06,1.93L466.36,234c-1.335,2.335-0.45,6.234,2.444,7.89"/>
	<path id="_Path_10" fill="#FFFFFF" d="M363.665,425.595c2.88,1.645,6.675,0.43,8-1.905l15.935-27.85
		c1.345-2.346,0.5-6.266-2.4-7.915c-2.9-1.65-6.7-0.425-8.04,1.93l-15.94,27.85C359.885,420.034,360.77,423.94,363.665,425.595"/>
	<path id="_Path_11" fill="#FFFFFF" d="M385.07,241.955c2.875-1.655,3.745-5.551,2.405-7.88l-16-27.82
		c-1.35-2.345-5.16-3.575-8.04-1.92c-2.88,1.654-3.755,5.585-2.4,7.93l16,27.815c1.345,2.33,5.15,3.534,8.045,1.875"/>
	<path id="_Path_12" fill="#FFFFFF" d="M490.585,425.449c2.88-1.654,3.745-5.55,2.41-7.875l-16-27.819
		c-1.351-2.351-5.16-3.58-8.045-1.926c-2.885,1.655-3.755,5.585-2.396,7.936l16,27.814c1.34,2.33,5.15,3.53,8.04,1.87"/>
	<path id="_Path_13" fill="#FFFFFF" d="M499.945,272.965c1.654,2.88,5.545,3.745,7.875,2.41l27.814-16
		c2.351-1.351,3.59-5.165,1.931-8.045c-1.66-2.88-5.58-3.75-7.931-2.4l-27.814,16c-2.335,1.34-3.535,5.155-1.875,8.04"/>
	<path id="_Path_14" fill="#FFFFFF" d="M316.45,378.5c1.655,2.88,5.545,3.744,7.88,2.404l27.815-16
		c2.345-1.35,3.585-5.165,1.92-8.045s-5.58-3.75-7.925-2.405l-27.815,16c-2.335,1.335-3.535,5.155-1.875,8.04"/>
</g>
<g id="_Group_">
	<path id="_Compound_Path_2" fill="#FFFFFF" d="M318.74,82.7l7.715-40.865h7.84L342.07,82.7H335l-1.265-7.471h-7.28L325.25,82.7
		H318.74z M327.36,69.74h5.5l-2.71-16.395h-0.06L327.36,69.74z"/>
	<path id="_Compound_Path_3" fill="#FFFFFF" d="M344.6,41.835h16.095v5.604h-9.225v11.695h6.875v5.545h-6.875v18h-6.87V41.835z"/>
	<path id="_Compound_Path_4" fill="#FFFFFF" d="M363.405,41.835H379.5v5.604h-9.225v11.695h6.875v5.545h-6.875v18h-6.87V41.835z"/>
	<path id="_Compound_Path_5" fill="#FFFFFF" d="M381.61,72.155V52.38c0-6.38,3.135-11.03,10.39-11.03s10.43,4.64,10.43,11.03v19.774
		c0,6.33-3.135,11.03-10.43,11.03S381.61,78.5,381.61,72.155z M395.535,73.24V51.295c0-2.47-1.085-4.22-3.56-4.22
		s-3.5,1.75-3.5,4.22V73.24c0,2.471,1.085,4.221,3.5,4.221S395.535,75.71,395.535,73.24z"/>
	<path id="_Compound_Path_6" fill="#FFFFFF" d="M412.89,63.955V82.7H406V41.835h10c6.96,0,9.5,3.435,9.5,9.165v5.245
		c0,4.399-1.565,7-5.5,7.895l6.57,18.565h-7.23L412.89,63.955z M412.89,47.455V60.17h2.29c2.355,0,3.38-1.205,3.38-3.375v-6
		c0-2.23-1.025-3.315-3.38-3.315L412.89,47.455z"/>
	<path id="_Compound_Path_7" fill="#FFFFFF" d="M449.5,52.805V71.73c0,6.271-2.59,10.971-9.945,10.971h-10.63V41.835h10.61
		C446.89,41.835,449.5,46.5,449.5,52.805z M438.71,77.095c2.835,0,3.92-1.685,3.92-4.16V51.535c0-2.41-1.085-4.096-3.92-4.096
		h-2.895v29.655H438.71z"/>
	<path id="_Compound_Path_8" fill="#FFFFFF" d="M451.105,82.7l7.715-40.865h7.84l7.774,40.865h-7.055l-1.265-7.471h-7.295
		l-1.205,7.471H451.105z M459.725,69.74h5.5L462.5,53.345h-0.06L459.725,69.74z"/>
	<path id="_Compound_Path_9" fill="#FFFFFF" d="M476.965,41.835h9.945c6.875,0,9.165,3.189,9.165,9V55
		c0,3.435-1.271,5.604-4.101,6.5c3.436,0.779,5.125,3.075,5.125,6.81v5.425c0,5.785-2.595,9-9.465,9h-10.67V41.835z M483.835,59.075
		h2.415c2.23,0,3.255-1.15,3.255-3.32v-5c0-2.23-1-3.315-3.314-3.315h-2.355V59.075z M483.835,64.315v12.78h3
		c2.29,0,3.375-1.145,3.375-3.315V67.63c0-2.17-1.025-3.315-3.435-3.315H483.835z"/>
	<path id="_Compound_Path_10" fill="#FFFFFF" d="M500.23,41.835h6.874v35.26h8.195V82.7H500.23V41.835z"/>
	<path id="_Compound_Path_11" fill="#FFFFFF" d="M518.13,41.835h16.4v5.604H525v11.695h6.81v5.545H525v12.415h9.5V82.7h-16.4
		L518.13,41.835z"/>
	<path id="_Compound_Path_12" fill="#FFFFFF" d="M542.845,82.7l7.715-40.865h7.836l7.779,40.865h-7.055l-1.266-7.471h-7.295
		l-1.205,7.471H542.845z M551.465,69.74h5.5l-2.71-16.395h-0.064L551.465,69.74z"/>
	<path id="_Compound_Path_13" fill="#FFFFFF" d="M574.5,57.025V82.7h-5.795V41.835h6.75l7.415,23.444V41.835h5.725V82.7h-6.024
		L574.5,57.025z"/>
	<path id="_Compound_Path_14" fill="#FFFFFF" d="M612.765,52.805V71.73c0,6.271-2.59,10.971-9.944,10.971h-10.61V41.835h10.61
		C610.175,41.835,612.765,46.5,612.765,52.805z M602,77.095c2.835,0,3.92-1.685,3.92-4.16V51.535c0-2.41-1.085-4.096-3.92-4.096
		h-2.89v29.655H602z"/>
</g>
<g id="_Group_2">
	<path id="_Compound_Path_15" fill="#FFFFFF" d="M319.77,132.165V112.5c0-6.355,3-11,10.195-11c7.555,0,9.655,4.2,9.655,10.194
		v4.806h-6.24v-5.325c0-2.5-0.84-3.955-3.295-3.955s-3.5,1.735-3.5,4.195v21.83c0,2.46,1,4.194,3.5,4.194s3.295-1.56,3.295-3.955
		V126h6.24v7c0,5.814-2.4,10.135-9.655,10.135C322.71,143.135,319.77,138.46,319.77,132.165z"/>
	<path id="_Compound_Path_16" fill="#FFFFFF" d="M343.935,102h6.835v35.08h8.155v5.58h-15L343.935,102z"/>
	<path id="_Compound_Path_17" fill="#FFFFFF" d="M362.645,102h16.31v5.58H369.5v11.63h6.775v5.5H369.5v12.35h9.5v5.58h-16.355V102z"
		/>
	<path id="_Compound_Path_18" fill="#FFFFFF" d="M382.135,142.66L389.81,102h7.795l7.735,40.66h-7l-1.26-7.436h-7.27l-1.2,7.436
		H382.135z M390.71,129.765h5.455l-2.7-16.31h-0.06L390.71,129.765z"/>
	<path id="_Compound_Path_19" fill="#FFFFFF" d="M414.5,117.115v25.546h-5.745V102h6.745l7.375,23.33V102h5.695v40.66h-6
		L414.5,117.115z"/>
	<path id="_Compound_Path_20" fill="#FFFFFF" d="M446.835,102h16.31v5.58h-9.475v11.63h6.775v5.5h-6.775v12.35h9.476v5.58h-16.311
		V102z"/>
	<path id="_Compound_Path_21" fill="#FFFFFF" d="M473,117.115v25.546h-5.775V102h6.716l7.375,23.33V102H487v40.66h-6L473,117.115z"
		/>
	<path id="_Compound_Path_22" fill="#FFFFFF" d="M491.45,102h16.31v5.58h-9.475v11.63h6.774v5.5h-6.774v12.35h9.475v5.58h-16.31V102
		z"/>
	<path id="_Compound_Path_23" fill="#FFFFFF" d="M518.735,124v18.649h-6.84V102h9.954c6.9,0,9.415,3.42,9.415,9.114v5.221
		c0,4.375-1.56,6.955-5.455,7.854l6.535,18.471h-7.194L518.735,124z M518.735,107.57v12.65H521c2.34,0,3.36-1.2,3.36-3.355v-6
		c0-2.22-1-3.295-3.36-3.295H518.735z"/>
	<path id="_Compound_Path_24" fill="#FFFFFF" d="M545.896,120.95h9.715v21.71h-4.915v-4.44c-0.9,3.06-2.82,4.92-6.535,4.92
		c-5.88,0-8.575-4.68-8.575-10.975V112.5c0-6.355,3.055-11,10.25-11c7.56,0,9.775,4.2,9.775,10.194v3.601h-6.235v-4.141
		c0-2.5-0.96-3.954-3.415-3.954s-3.54,1.734-3.54,4.194v21.83c0,2.46,1,4.195,3.355,4.195c2.22,0,3.359-1.26,3.359-3.896v-7.175
		h-3.239V120.95z"/>
	<path id="_Compound_Path_25" fill="#FFFFFF" d="M573.3,127.185v15.476h-6.835v-15.476L558.85,102H566l4.14,15.415h0.061L574.32,102
		h6.534L573.3,127.185z"/>
</g>
</svg>
