<?xml version="1.0" encoding="utf-8"?>
<!-- Generator: Adobe Illustrator 16.0.3, SVG Export Plug-In . SVG Version: 6.00 Build 0)  -->
<!DOCTYPE svg PUBLIC "-//W3C//DTD SVG 1.1//EN" "http://www.w3.org/Graphics/SVG/1.1/DTD/svg11.dtd" [
	<!ENTITY ns_extend "http://ns.adobe.com/Extensibility/1.0/">
	<!ENTITY ns_ai "http://ns.adobe.com/AdobeIllustrator/10.0/">
	<!ENTITY ns_graphs "http://ns.adobe.com/Graphs/1.0/">
	<!ENTITY ns_vars "http://ns.adobe.com/Variables/1.0/">
	<!ENTITY ns_imrep "http://ns.adobe.com/ImageReplacement/1.0/">
	<!ENTITY ns_sfw "http://ns.adobe.com/SaveForWeb/1.0/">
	<!ENTITY ns_custom "http://ns.adobe.com/GenericCustomNamespace/1.0/">
	<!ENTITY ns_adobe_xpath "http://ns.adobe.com/XPath/1.0/">
]>
<svg version="1.1" id="Layer_1" xmlns:x="&ns_extend;" xmlns:i="&ns_ai;" xmlns:graph="&ns_graphs;"
	 xmlns="http://www.w3.org/2000/svg" xmlns:xlink="http://www.w3.org/1999/xlink" x="0px" y="0px" width="285.199px"
	 height="285.198px" viewBox="284.25 72.202 285.199 285.198" enable-background="new 284.25 72.202 285.199 285.198"
	 xml:space="preserve">
<metadata>
	<sfw  xmlns="&ns_sfw;">
		<slices></slices>
		<sliceSourceBounds  width="285.199" height="285.198" y="143.1" x="283.75" bottomLeftOrigin="true"></sliceSourceBounds>
	</sfw>
</metadata>
<title>TARGET 1 B copy 3</title>
<g id="TARGETS">
	<g>
		<rect x="284.25" y="72.202" fill="#A21942" width="285.199" height="285.198"/>
	</g>
	<g>
		<path fill="#FFFFFF" d="M540.869,271.059L540.869,271.059L540.869,271.059l-11.733-6.317c3.009-7.221,5.415-15.042,6.92-22.864
			c7.22-39.41-7.221-79.724-37.906-105.596c-0.902-0.902-2.407-0.602-3.31,0.301l0,0l-6.017,7.221
			c-0.902,0.902-0.602,2.406,0.301,3.309c26.775,22.563,39.41,57.762,33.093,92.359c-1.203,6.317-3.009,12.635-5.415,18.351
			l-13.237-7.22c-0.301,0-1.504-0.301-1.203,0.602l0,0l0.902,14.44c0.902,11.432,0.602,11.131,0.902,17.449l0.602,12.635
			c0,1.204,1.505,0.301,1.505,0.301l34.296-23.466C541.771,271.66,541.17,271.059,540.869,271.059z"/>
	</g>
	<g>
		<path fill="#FFFFFF" d="M321.555,197.654l9.025,2.105c1.203,0.301,2.708-0.301,3.008-1.504l0,0
			c10.229-38.809,42.72-67.689,82.732-72.804c0,0.902,0,1.805,0,3.008l0.301,12.937c0,1.203,1.504,0.301,1.504,0.301l34.897-22.563
			c1.204-0.603,0.603-1.204,0-1.505h-0.301l0,0L416.621,96.27c-0.301,0-1.504-0.301-1.504,0.602l0,0l0.602,14.44l0,0
			c-46.029,5.415-84.236,38.508-95.969,83.333C319.449,196.15,320.051,197.353,321.555,197.654L321.555,197.654z"/>
	</g>
	<g>
		<path fill="#FFFFFF" d="M466.861,311.973c-0.602-1.203-1.805-1.805-3.008-1.203c-43.021,17.148-92.359,1.504-117.931-37.304
			l13.237-7.221c0.301-0.301,1.203-0.902,0-1.504l0,0l-12.636-6.92c-10.229-5.415-9.928-5.415-15.042-8.423l-11.131-6.318
			c-1.204-0.602-1.204,1.204-1.204,1.204l1.504,41.516c0,1.203,0.602,1.203,1.203,0.902l0.301-0.301l0,0l11.733-6.317
			c16.847,26.173,43.321,43.923,74.007,49.639c6.619,1.203,13.538,1.805,20.457,1.805c14.14,0,28.279-2.707,41.517-8.122
			c1.203-0.602,1.805-1.806,1.203-3.009L466.861,311.973z"/>
	</g>
	<g>
		<path fill="#FFFFFF" d="M442.192,263.839h21.06c0.602,0,1.203-0.603,1.203-1.204v-76.414c0-0.602-0.602-1.805-1.806-0.602
			l-20.457,19.555c-0.902,0.603-1.203,1.806-1.203,3.009v54.452C440.989,263.237,441.29,263.839,442.192,263.839L442.192,263.839z"
			/>
	</g>
	<g>
		<path fill="#FFFFFF" d="M383.228,263.839h21.059c0.602,0,1.203-0.603,1.203-1.204v-51.143c0-0.602-0.602-1.806-1.805-0.602
			l-20.457,19.555c-0.903,0.902-1.204,1.805-1.204,3.008v29.182C382.024,263.237,382.626,263.839,383.228,263.839z"/>
	</g>
	<g>
		<path fill="#FFFFFF" d="M471.073,161.552L471.073,161.552l-15.944,3.61h-0.301h-0.301c-0.301,0.301-0.301,0.602,0,0.902l0,0v0.301
			l3.61,3.61l-35.199,35.499l-16.245-16.245c-0.301-0.301-0.602-0.301-0.602,0l-4.513,4.513l0,0l-26.173,26.173
			c-0.301,0.302-0.301,0.603,0,0.603l4.512,4.513c0.301,0.301,0.602,0.301,0.602,0l25.872-25.873l12.034,12.034l0,0l4.513,4.513
			c0.301,0.301,0.602,0.301,0.602,0l40.313-40.313l3.609,3.61c0.301,0.301,0.603,0.301,0.903,0V178.7l0,0l3.609-15.944v-0.301
			c0-0.302,0-0.302-0.301-0.603C471.374,161.853,471.374,161.552,471.073,161.552z"/>
	</g>
	<g>
		<path fill="#FFFFFF" d="M413.011,263.839h21.059c0.603,0,1.204-0.603,1.204-1.204v-47.533c0-0.602-0.602-1.805-2.106-0.301
			l-9.928,9.928c-0.301,0.302-0.602,0.302-0.602,0l-9.025-9.024c-1.504-1.505-2.105-0.301-2.105,0.301v46.931
			C411.808,263.538,412.409,263.839,413.011,263.839z"/>
	</g>
</g>
</svg>
