<?xml version="1.0" encoding="utf-8"?>
<!-- Generator: Adobe Illustrator 16.0.3, SVG Export Plug-In . SVG Version: 6.00 Build 0)  -->
<!DOCTYPE svg PUBLIC "-//W3C//DTD SVG 1.1//EN" "http://www.w3.org/Graphics/SVG/1.1/DTD/svg11.dtd" [
	<!ENTITY ns_extend "http://ns.adobe.com/Extensibility/1.0/">
	<!ENTITY ns_ai "http://ns.adobe.com/AdobeIllustrator/10.0/">
	<!ENTITY ns_graphs "http://ns.adobe.com/Graphs/1.0/">
	<!ENTITY ns_vars "http://ns.adobe.com/Variables/1.0/">
	<!ENTITY ns_imrep "http://ns.adobe.com/ImageReplacement/1.0/">
	<!ENTITY ns_sfw "http://ns.adobe.com/SaveForWeb/1.0/">
	<!ENTITY ns_custom "http://ns.adobe.com/GenericCustomNamespace/1.0/">
	<!ENTITY ns_adobe_xpath "http://ns.adobe.com/XPath/1.0/">
]>
<svg version="1.1" id="Layer_1" xmlns:x="&ns_extend;" xmlns:i="&ns_ai;" xmlns:graph="&ns_graphs;"
	 xmlns="http://www.w3.org/2000/svg" xmlns:xlink="http://www.w3.org/1999/xlink" x="0px" y="0px" width="285.199px"
	 height="285.198px" viewBox="284.25 72.202 285.199 285.198" enable-background="new 284.25 72.202 285.199 285.198"
	 xml:space="preserve">
<metadata>
	<sfw  xmlns="&ns_sfw;">
		<slices></slices>
		<sliceSourceBounds  width="285.199" height="285.198" y="143.1" x="283.75" bottomLeftOrigin="true"></sliceSourceBounds>
	</sfw>
</metadata>
<title>Artboard 23 copy 3</title>
<g id="TARGETS">
	<g>
		<rect x="284.25" y="72.202" fill="#A21942" width="285.199" height="285.198"/>
	</g>
	<g>
		<g>
			<g>
				<path fill="#FFFFFF" d="M534.551,221.42l-13.537-44.826c0,0-4.813-12.936-15.945-12.936H469.87
					c-10.83,0-15.944,12.936-15.944,12.936l-13.839,44.826c0,0-2.407,8.122,4.513,10.229c6.919,2.105,9.025-6.017,9.025-6.017
					l11.131-37.605c0,0,0.602-3.009,2.707-2.407c2.106,0.602,1.204,3.61,1.204,3.61l-19.254,70.397h18.05v50.24
					c0.302,4.813,4.513,8.424,9.025,8.123s7.822-3.61,8.123-8.123v-49.939h4.813v50.24c0.301,4.813,4.513,8.424,9.025,8.123
					s7.822-3.61,8.123-8.123v-50.24h18.05l-18.652-70.097c0,0-0.902-3.008,1.204-3.61c2.105-0.602,2.707,2.407,2.707,2.407
					l11.132,37.004c0,0,2.105,8.122,9.024,6.017C536.958,229.542,534.551,221.42,534.551,221.42z"/>
			</g>
			<g>
				<path fill="#FFFFFF" d="M470.772,138.99c0,9.025,7.521,16.546,16.547,16.546l0,0h0.602c9.326,0,16.847-7.521,16.847-16.546l0,0
					c0-1.204,0-2.407-0.301-3.61h-33.093C471.073,136.281,470.772,137.785,470.772,138.99z"/>
			</g>
			<g>
				<path fill="#FFFFFF" d="M506.573,125.752h-1.806c-1.203-4.813-4.513-8.725-9.025-10.83l-2.406,7.821v-11.732h-9.025v11.432
					l-3.009-8.122c-5.114,2.105-8.725,6.317-10.229,11.432h-1.805v6.317h37.305V125.752z"/>
			</g>
		</g>
		<g>
			<g>
				<polygon fill="#FFFFFF" points="324.864,271.36 324.563,166.666 318.847,166.666 318.847,277.979 398.871,277.979 
					398.871,271.36 				"/>
			</g>
			<g>
				<path fill="#FFFFFF" d="M410.604,153.129h-79.723v13.537v97.774h80.024L410.604,153.129z M364.876,185.319L364.876,185.319
					c-2.106-1.805-3.008-4.513-3.008-7.22v-0.602c0-4.813,3.008-8.123,9.025-8.123c4.513-0.602,8.423,2.708,9.025,7.22
					c0,0.603,0,1.204,0,1.806v1.805h-6.017v-2.105c0.301-1.806-0.902-3.31-2.708-3.61c-0.301,0-0.301,0-0.602,0
					c-2.105,0-3.309,0.902-3.309,2.708v0.602c0,1.504,0.602,2.105,2.407,3.309l6.919,4.212c3.008,1.204,5.114,4.212,5.114,7.521
					c0,3.008-2.106,5.716-5.114,6.618v0.301c2.106,1.505,3.309,4.212,3.309,6.92v1.203c0,5.114-2.708,8.424-9.025,8.424
					c-4.513,0.301-8.725-3.009-9.025-7.521c0-0.602,0-1.203,0-1.504v-2.708h6.017v2.708c0,1.805,1.204,3.008,2.708,3.31h0.301
					c2.106,0,3.309-0.903,3.309-3.009v-0.602c0-1.505-0.602-2.407-3.008-3.61l-6.619-3.911c-3.008-1.504-4.813-4.513-5.114-7.821
					C359.762,188.628,361.868,185.92,364.876,185.319z M342.915,225.933c0-0.301,0.301-0.301,0.602-0.301h54.753
					c0.301,0,0.602,0,0.602,0.301v8.725c0,0.301-0.301,0.301-0.602,0.301h-55.054c-0.301,0-0.602,0-0.602-0.301L342.915,225.933z
					 M398.27,250.602h-54.753c-0.301,0-0.602,0-0.602-0.301v-8.725c0-0.301,0.301-0.301,0.602-0.301h54.753
					c0.301,0,0.602,0.301,0.602,0.301v8.725C398.57,250.301,398.57,250.602,398.27,250.602z"/>
			</g>
			<g>
				<path fill="#FFFFFF" d="M368.186,194.344l5.114,3.009c1.504-0.301,2.407-1.806,2.708-3.31c0-2.105-0.602-2.707-3.008-3.911
					l-5.416-3.309c-1.504,0.602-2.407,1.805-2.407,3.309C365.478,192.239,366.08,193.141,368.186,194.344z"/>
			</g>
		</g>
	</g>
</g>
</svg>
