<?xml version="1.0" encoding="utf-8"?>
<!-- Generator: Adobe Illustrator 16.0.3, SVG Export Plug-In . SVG Version: 6.00 Build 0)  -->
<!DOCTYPE svg PUBLIC "-//W3C//DTD SVG 1.1//EN" "http://www.w3.org/Graphics/SVG/1.1/DTD/svg11.dtd" [
	<!ENTITY ns_extend "http://ns.adobe.com/Extensibility/1.0/">
	<!ENTITY ns_ai "http://ns.adobe.com/AdobeIllustrator/10.0/">
	<!ENTITY ns_graphs "http://ns.adobe.com/Graphs/1.0/">
	<!ENTITY ns_vars "http://ns.adobe.com/Variables/1.0/">
	<!ENTITY ns_imrep "http://ns.adobe.com/ImageReplacement/1.0/">
	<!ENTITY ns_sfw "http://ns.adobe.com/SaveForWeb/1.0/">
	<!ENTITY ns_custom "http://ns.adobe.com/GenericCustomNamespace/1.0/">
	<!ENTITY ns_adobe_xpath "http://ns.adobe.com/XPath/1.0/">
]>
<svg version="1.1" id="Layer_1" xmlns:x="&ns_extend;" xmlns:i="&ns_ai;" xmlns:graph="&ns_graphs;"
	 xmlns="http://www.w3.org/2000/svg" xmlns:xlink="http://www.w3.org/1999/xlink" x="0px" y="0px" width="500px" height="500px"
	 viewBox="177 0 500 500" enable-background="new 177 0 500 500" xml:space="preserve">
<metadata>
	<sfw  xmlns="&ns_sfw;">
		<slices></slices>
		<sliceSourceBounds  width="500" height="500" y="0.5" x="176.5" bottomLeftOrigin="true"></sliceSourceBounds>
	</sfw>
</metadata>
<title>Artboard 1</title>
<rect x="177" y="0" fill="#0A97D9" width="500" height="500"/>
<polygon fill="#FFFFFF" points="242.145,42.07 242.145,142.835 225.195,142.835 225.195,65.705 225.05,65.705 213.165,78.035 
	213.01,78.035 213.01,60.35 228.615,42.07 "/>
<rect x="354.8" y="41.855" fill="#FFFFFF" width="6.87" height="40.885"/>
<polygon fill="#FFFFFF" points="365.695,82.745 372.565,82.745 372.565,64.705 379.435,64.705 379.435,59.16 372.565,59.16 
	372.565,47.46 381.785,47.46 381.785,41.855 365.695,41.855 "/>
<polygon fill="#FFFFFF" points="401.24,47.46 401.24,41.855 384.85,41.855 384.85,82.745 401.24,82.745 401.24,77.135 
	391.72,77.135 391.72,64.705 398.53,64.705 398.53,59.16 391.72,59.16 391.72,47.46 "/>
<path fill="#FFFFFF" d="M434.195,68.325c0-3.735-1.681-6.025-5.115-6.811c2.825-0.905,4.1-3.075,4.1-6.5V50.85
	c0-5.78-2.295-9-9.165-9h-9.945v40.885h10.666c6.875,0,9.46-3.194,9.46-9V68.325z M420.94,47.46h2.35c2.295,0,3.32,1.095,3.32,3.319
	v5c0,2.176-1.025,3.32-3.261,3.32h-2.41V47.46z M427.33,73.815c0,2.17-1.09,3.315-3.375,3.315h-3V64.35h2.955
	c2.41,0,3.435,1.146,3.435,3.315L427.33,73.815z"/>
<polygon fill="#FFFFFF" points="437.13,82.745 453.52,82.745 453.52,77.135 443.995,77.135 443.995,64.705 450.805,64.705 
	450.805,59.16 443.995,59.16 443.995,47.46 453.52,47.46 453.52,41.855 437.13,41.855 "/>
<polygon fill="#FFFFFF" points="457.745,41.855 457.745,82.745 472.815,82.745 472.815,77.135 464.615,77.135 464.615,41.855 "/>
<path fill="#FFFFFF" d="M475.43,52.41v19.774c0,6.34,3.136,11.035,10.365,11.035c7.23,0,10.43-4.695,10.43-11.035V52.41
	c0-6.391-3.135-11.035-10.43-11.035S475.43,46,475.43,52.41 M489.354,51.32v21.955c0,2.471-1.085,4.221-3.56,4.221
	s-3.5-1.75-3.5-4.221V51.32c0-2.47,1.09-4.215,3.5-4.215S489.354,48.85,489.354,51.32"/>
<polygon fill="#FFFFFF" points="508.555,67.785 508.5,67.785 505.305,41.855 498.675,41.855 504.16,82.745 510.604,82.745 
	514.465,57.47 514.521,57.47 518.56,82.745 525.07,82.745 530.37,41.855 524.59,41.855 521.45,67.785 521.396,67.785 517.6,41.855 
	511.995,41.855 "/>
<polygon fill="#FFFFFF" points="341.07,142.685 347.515,142.685 351.375,117.42 351.435,117.42 355.475,142.685 361.985,142.685 
	367.29,101.805 361.5,101.805 358.37,127.735 358.305,127.735 354.515,101.805 348.905,101.805 345.47,127.735 345.41,127.735 
	342.215,101.805 335.585,101.805 "/>
<path fill="#FFFFFF" d="M366.36,142.685h6.5l1.2-7.47h7.295l1.26,7.47h7.05l-7.765-40.88h-7.83L366.36,142.685z M377.685,113.32
	h0.065l2.715,16.4H375L377.685,113.32z"/>
<polygon fill="#FFFFFF" points="400.965,142.685 400.965,107.41 406.63,107.41 406.63,101.805 388.37,101.805 388.37,107.41 
	394.03,107.41 394.03,142.685 "/>
<polygon fill="#FFFFFF" points="426.2,107.41 426.2,101.805 409.81,101.805 409.81,142.685 426.2,142.685 426.2,137.08 
	416.68,137.08 416.68,124.655 423.49,124.655 423.49,119.105 416.68,119.105 416.68,107.41 "/>
<path fill="#FFFFFF" d="M449.335,116.215v-5.245c0-5.73-2.53-9.16-9.46-9.16h-10v40.875h6.87V123.94l6.445,18.745h7.234
	l-6.564-18.575c3.915-0.899,5.5-3.5,5.5-7.895 M442.43,116.76c0,2.17-1,3.375-3.37,3.375h-2.295V107.41h2.295
	c2.346,0,3.37,1.085,3.37,3.314V116.76z"/>
<path fill="#FFFFFF" d="M293.745,142.86V126.5h6.84v-13.23h-6.84V42.045H277.09l-29.295,74.05V126.5h29.89v16.354L293.745,142.86z
	 M262.665,113.27l15.165-41.5h0.15v41.5H262.665z"/>
<g>
	<path fill="#FFFFFF" d="M561.79,364.81c-6.29-8.5-46.94-60.31-103.93-60.31c-49.5,0-102.425,44.88-102.425,44.88
		s-19.885-40.7-60.565-44.61c-0.235,0-0.5-0.055-0.76-0.055h-0.255c-0.85,0.05-1.645,0.875-1.55,1.609
		c0.119,0.535,0.333,1.043,0.635,1.5c5.245,8.676,18.625,33.45,18.625,58.176c0,24.819-13.46,49.649-18.655,58.314l-0.355,0.55
		c-0.161,0.259-0.248,0.556-0.25,0.86c0.005,0.843,0.659,1.54,1.5,1.6l0.44-0.035c0.143,0.007,0.286-0.007,0.425-0.04
		c40.805-3.8,60.765-44.625,60.765-44.625s52.94,44.886,102.425,44.886c57,0,97.635-51.82,103.93-60.306
		c0.17-0.229,0.31-0.43,0.435-0.579c0.085-0.198,0.131-0.41,0.136-0.625c-0.003-0.214-0.049-0.425-0.136-0.62
		c-0.125-0.176-0.265-0.375-0.435-0.585 M489.55,372.56c-9.185-0.011-16.621-7.466-16.609-16.65
		c0.011-9.185,7.465-16.621,16.649-16.609c9.175,0.011,16.607,7.45,16.61,16.625c-0.003,9.189-7.455,16.638-16.646,16.635
		C489.554,372.56,489.552,372.56,489.55,372.56"/>
	<path fill="#FFFFFF" d="M293.59,207.085c-0.103-0.033-0.208-0.057-0.315-0.07c-0.908,0.006-1.641,0.746-1.635,1.655l0,0V220
		c-0.008,0.439,0.163,0.864,0.475,1.175c27.5,23.9,53.555,1.5,59.585-4.415c0.112-0.18,0.258-0.336,0.43-0.46
		c0.267-0.184,0.581-0.286,0.905-0.295c0.411-0.003,0.808,0.155,1.105,0.439c0.021,0.029,0.049,0.053,0.08,0.07
		c31.075,29.65,63.655,5.635,70.436,0l0.665-0.61c0.194-0.086,0.406-0.129,0.62-0.125c0.221-0.006,0.441,0.037,0.645,0.125
		l0.675,0.61c6.775,5.635,39.355,29.65,70.425,0c0.022-0.021,0.043-0.045,0.061-0.07c0.298-0.283,0.693-0.44,1.104-0.439
		c0.324,0.007,0.64,0.109,0.905,0.295c0.178,0.125,0.332,0.28,0.455,0.46c6.025,5.92,32.045,28.315,59.575,4.415
		c0.308-0.313,0.479-0.736,0.475-1.175v-11.33c0.017-0.897-0.697-1.639-1.595-1.655c-0.007,0-0.014,0-0.02,0
		c-0.119,0.012-0.236,0.035-0.351,0.07c-0.255,0.145-0.5,0.285-0.825,0.43c-8.46,4.235-34.7,14.315-58.5-8.22
		c-0.225-0.205-0.46-0.415-0.694-0.66c-0.219-0.099-0.456-0.149-0.695-0.15c-0.169,0.011-0.336,0.036-0.5,0.075
		c-0.333,0.132-0.621,0.355-0.83,0.646c-7.1,5.409-39.68,27.47-68.695,0.404l-0.425-0.415c-0.319-0.304-0.739-0.481-1.18-0.5
		c-0.428,0.021-0.831,0.199-1.135,0.5l-0.45,0.415c-29,27.065-61.62,5-68.71-0.404c-0.198-0.29-0.479-0.515-0.805-0.646
		c-0.165-0.037-0.332-0.063-0.5-0.075c-0.236,0.007-0.468,0.058-0.685,0.15c-0.215,0.236-0.448,0.457-0.695,0.66
		c-23.815,22.535-50.05,12.455-58.5,8.22c-0.295-0.145-0.58-0.285-0.835-0.43"/>
	<path fill="#FFFFFF" d="M351.7,258.04c0.117-0.175,0.264-0.327,0.435-0.45c0.264-0.188,0.577-0.296,0.9-0.311
		c0.415,0.002,0.813,0.165,1.11,0.455c0.02,0.028,0.045,0.053,0.075,0.07c31.065,29.615,63.655,5.61,70.436,0l0.665-0.63
		c0.197-0.076,0.408-0.111,0.62-0.105c0.223-0.007,0.445,0.028,0.654,0.105l0.665,0.63c6.775,5.61,39.351,29.615,70.431,0
		c0,0,0.034-0.04,0.055-0.07c0.295-0.289,0.691-0.452,1.104-0.455c0.324,0.012,0.638,0.119,0.9,0.311
		c0.18,0.121,0.335,0.273,0.46,0.45c6,5.925,32.04,28.325,59.575,4.399c0.315-0.297,0.496-0.711,0.5-1.145V249.92
		c0.003-0.895-0.721-1.622-1.615-1.625c-0.003,0-0.007,0-0.01,0c-0.118,0.012-0.235,0.033-0.351,0.064l-0.824,0.415
		c-8.455,4.24-34.71,14.295-58.5-8.21l-0.69-0.649c-0.214-0.119-0.456-0.176-0.7-0.165c-0.175-0.003-0.347,0.04-0.5,0.125
		c-0.344,0.09-0.641,0.308-0.83,0.609c-7.09,5.4-39.68,27.466-68.699,0.4l-0.426-0.425c-0.317-0.299-0.738-0.462-1.175-0.455
		c-0.423-0.004-0.831,0.16-1.135,0.455l-0.45,0.425c-29,27.065-61.62,5-68.71-0.4c-0.18-0.299-0.468-0.518-0.805-0.609
		c-0.155-0.08-0.326-0.123-0.5-0.125c-0.236-0.008-0.469,0.05-0.675,0.165c-0.225,0.225-0.465,0.439-0.71,0.649
		c-23.815,22.5-50.045,12.45-58.5,8.21l-0.835-0.415c-0.102-0.029-0.205-0.051-0.31-0.064c-0.9-0.006-1.634,0.72-1.64,1.62
		c0,0.001,0,0.003,0,0.005v11.375c-0.006,0.431,0.166,0.845,0.475,1.145c27.5,23.925,53.56,1.5,59.585-4.399"/>
</g>
<polygon fill="#FFFFFF" points="336.55,41.855 336.55,82.745 351.625,82.745 351.625,77.135 343.425,77.135 343.425,41.855 "/>
</svg>
