<?xml version="1.0" encoding="utf-8"?>
<!-- Generator: Adobe Illustrator 16.0.3, SVG Export Plug-In . SVG Version: 6.00 Build 0)  -->
<!DOCTYPE svg PUBLIC "-//W3C//DTD SVG 1.1//EN" "http://www.w3.org/Graphics/SVG/1.1/DTD/svg11.dtd" [
	<!ENTITY ns_extend "http://ns.adobe.com/Extensibility/1.0/">
	<!ENTITY ns_ai "http://ns.adobe.com/AdobeIllustrator/10.0/">
	<!ENTITY ns_graphs "http://ns.adobe.com/Graphs/1.0/">
	<!ENTITY ns_vars "http://ns.adobe.com/Variables/1.0/">
	<!ENTITY ns_imrep "http://ns.adobe.com/ImageReplacement/1.0/">
	<!ENTITY ns_sfw "http://ns.adobe.com/SaveForWeb/1.0/">
	<!ENTITY ns_custom "http://ns.adobe.com/GenericCustomNamespace/1.0/">
	<!ENTITY ns_adobe_xpath "http://ns.adobe.com/XPath/1.0/">
]>
<svg version="1.1" id="Layer_1" xmlns:x="&ns_extend;" xmlns:i="&ns_ai;" xmlns:graph="&ns_graphs;"
	 xmlns="http://www.w3.org/2000/svg" xmlns:xlink="http://www.w3.org/1999/xlink" x="0px" y="0px" width="319.838px"
	 height="319.838px" viewBox="266.912 81.647 319.838 319.838" enable-background="new 266.912 81.647 319.838 319.838"
	 xml:space="preserve">
<metadata>
	<sfw  xmlns="&ns_sfw;">
		<slices></slices>
		<sliceSourceBounds  width="319.838" height="319.838" y="99.016" x="266.412" bottomLeftOrigin="true"></sliceSourceBounds>
	</sfw>
</metadata>
<title>TARGET 1.3</title>
<g id="TARGETS">
	<g>
		<rect x="266.912" y="81.647" fill="#0A97D9" width="319.838" height="319.838"/>
	</g>
	<g>
		<g>
			<path d="M415.36,186.909l0.675-0.675l0.337-0.337l-1.012-0.675c0,0.337,0,0.675,0,1.012
				C415.36,186.573,415.698,186.573,415.36,186.909z"/>
		</g>
		<g>
			<path d="M401.865,163.968l-36.438,36.437l-5.061,5.062c1.012,2.023,2.361,3.711,3.711,5.397l5.736-5.735l36.437-36.438
				c1.012,1.013,2.024,1.688,3.037,2.362c0,0.675,0,1.012,0,1.687s0,1.35,0.337,2.361l-34.413,34.076l-6.41,6.41
				c1.687,1.35,3.374,2.361,5.398,3.374l7.76-7.76l30.027-30.027c1.012,1.35,2.362,2.699,3.711,3.711l1.012,0.675l-0.337,0.338
				l-0.675,0.675l-24.966,25.304l-9.447,9.446c2.362,0.337,4.386,0.675,6.748,0.675h1.35l29.353-29.353c0-0.337,0-1.012,0-1.35
				c0-1.687,0-3.036-0.337-4.386c2.024,1.013,4.386,1.35,6.41,1.35c2.699,0,5.398-0.675,7.76-2.361
				c5.398,12.146,19.906,17.206,31.714,11.808c4.387-2.023,8.098-5.397,10.797-9.783c6.747,6.747,17.544,6.747,24.629,0
				c1.687-1.688,2.699-3.374,3.711-5.398c9.109,12.483,26.653,15.182,38.799,6.073c12.483-9.109,15.183-26.653,6.073-38.8
				c-8.435-11.471-24.629-14.845-36.774-7.422c-2.024-9.447-11.472-15.857-20.918-13.833c-4.049,0.675-7.423,3.037-10.121,6.073
				c-2.362-2.024-5.398-3.374-8.436-3.374c-3.036,0-5.735,1.013-8.097,2.699c-1.012-7.76-7.76-13.158-15.52-12.483
				c-5.398,0.675-10.121,4.386-11.809,9.447c-10.459-8.098-25.641-6.073-33.738,4.386c-5.061,6.747-6.411,15.52-3.374,23.279
				c0.675,1.687,1.35,3.374,2.699,4.724L401.865,163.968z"/>
		</g>
		<g>
			<g>
				<g>
					<path d="M306.386,258.772h-0.337l17.881,17.882l2.024-3.037l-14.845-14.845H306.386z"/>
				</g>
				<g>
					<path d="M333.376,258.772h-0.337l1.35,1.35v-0.337C334.051,259.11,333.714,258.772,333.376,258.772z"/>
				</g>
				<g>
					<path d="M325.279,210.527c0-0.338-0.337-0.675-0.675-0.675h-4.723l5.735,5.735L325.279,210.527z"/>
				</g>
				<g>
					<polygon points="314.483,258.097 327.304,270.917 328.991,268.219 314.483,253.711 					"/>
				</g>
				<g>
					<polygon points="314.483,240.216 325.279,251.35 325.279,246.626 314.483,235.83 					"/>
				</g>
				<g>
					<path d="M315.158,209.514c-0.337,0-0.674,0.338-0.674,0.675v3.037l10.796,10.796v-4.724L315.158,209.514L315.158,209.514z"/>
				</g>
				<g>
					<polygon points="314.483,222.334 325.279,233.468 325.279,228.745 314.483,217.948 					"/>
				</g>
				<g>
					<polygon points="314.483,231.444 325.279,242.24 325.279,237.854 314.483,226.721 					"/>
				</g>
				<g>
					<polygon points="314.483,249.325 330.678,265.52 332.364,262.821 328.653,258.772 325.279,258.772 325.279,255.736 
						314.483,244.602 					"/>
				</g>
				<g>
					<path d="M319.544,281.039c0,0.337,0.337,0.337,0.675,0.337s0.337,0,0.675-0.337l0,0v-0.338l1.012-1.687l-11.134-11.134
						l8.435,12.82L319.544,281.039z"/>
				</g>
			</g>
			<g>
				<g>
					<path d="M547.276,258.435L547.276,258.435l1.35,1.35v-0.338c0-0.337-0.337-1.012-1.012-1.012H547.276z"/>
				</g>
				<g>
					<polygon points="546.602,262.483 542.891,258.435 539.854,258.435 539.854,255.398 528.721,244.602 528.721,248.988 
						544.915,265.182 					"/>
				</g>
				<g>
					<polygon points="543.229,267.881 528.721,253.374 528.721,257.76 541.541,270.58 					"/>
				</g>
				<g>
					<path d="M539.854,273.28l-14.845-14.845h-4.387h-0.337l17.544,17.544L539.854,273.28z"/>
				</g>
				<g>
					<path d="M529.732,209.514c-0.337,0-0.675,0.338-0.675,0.675v3.037l10.797,10.796v-4.724L529.732,209.514L529.732,209.514z"/>
				</g>
				<g>
					<path d="M539.854,210.189c0-0.337-0.338-0.675-0.675-0.675h-5.061l5.735,5.735V210.189z"/>
				</g>
				<g>
					<polygon points="528.721,222.334 539.854,233.131 539.854,228.745 528.721,217.612 					"/>
				</g>
				<g>
					<polygon points="528.721,240.216 539.854,251.012 539.854,246.626 528.721,235.492 					"/>
				</g>
				<g>
					<polygon points="528.721,231.107 539.854,242.24 539.854,237.517 528.721,226.721 					"/>
				</g>
				<g>
					<path d="M533.781,281.039c0.338,0.337,0.338,0.337,0.675,0.337c0.338,0,0.338,0,0.675-0.337l0,0v-0.338l1.013-1.687
						l-11.134-11.134l8.435,12.82L533.781,281.039z"/>
				</g>
			</g>
			<g>
				<g>
					<path d="M474.064,258.435L474.064,258.435l1.35,1.35v-0.338c0-0.337-0.337-1.012-1.012-1.012H474.064z"/>
				</g>
				<g>
					<polygon points="473.728,262.483 469.679,258.435 466.643,258.435 466.643,255.398 455.509,244.602 455.509,248.988 
						471.703,265.182 					"/>
				</g>
				<g>
					<polygon points="470.017,267.881 455.509,253.374 455.509,257.76 468.329,270.58 					"/>
				</g>
				<g>
					<path d="M466.643,273.28l-14.845-14.845h-4.387h-0.337l17.544,17.881L466.643,273.28z"/>
				</g>
				<g>
					<path d="M456.521,209.514c-0.337,0-0.674,0.338-0.674,0.675v3.037l10.796,10.796v-4.724L456.521,209.514L456.521,209.514z"/>
				</g>
				<g>
					<path d="M466.643,210.189c0-0.337-0.338-0.675-0.675-0.675h-5.061l5.735,5.735V210.189z"/>
				</g>
				<g>
					<polygon points="455.509,222.334 466.643,233.131 466.643,228.745 455.509,217.612 					"/>
				</g>
				<g>
					<polygon points="455.509,240.216 466.643,251.012 466.643,246.626 455.509,235.492 					"/>
				</g>
				<g>
					<polygon points="455.509,231.107 466.643,242.24 466.643,237.517 455.509,226.721 					"/>
				</g>
				<g>
					<path d="M460.569,281.039c0.338,0.337,0.338,0.337,0.675,0.337c0.338,0,0.338,0,0.675-0.337l0,0v-0.338l1.013-1.687
						l-11.134-11.134l8.435,12.82L460.569,281.039z"/>
				</g>
			</g>
		</g>
		<g>
			<path d="M415.023,205.803l-12.82,12.82C407.938,215.587,412.324,211.201,415.023,205.803z"/>
		</g>
		<g>
			<path d="M388.032,160.594h-0.675l-26.99,26.99l-3.374,3.374c0,0.337,0,0.337,0,0.675c0,2.361,0.337,5.061,1.012,7.422
				l4.049-4.048l33.401-33.063C392.756,160.931,390.394,160.594,388.032,160.594z"/>
		</g>
		<g>
			<path d="M333.376,197.368c6.073,0,10.796-5.061,10.796-10.796c0-0.675,0-1.688-0.337-2.362
				c5.398,2.024,11.133,1.688,16.194-0.675c6.748-3.036,11.133-9.446,11.808-16.869l3.037-3.036
				c-1.012,0.338-2.024,1.013-3.037,1.687v-0.337c0-1.012,0-2.024-0.337-2.699c-1.687-11.471-12.146-19.23-23.617-17.881
				c-11.471,1.687-19.23,12.146-17.881,23.616c0.337,2.699,1.349,5.398,2.699,7.76l0,0c-6.073-0.337-11.133,4.387-11.471,10.459
				c-0.337,6.073,4.386,11.134,10.458,11.471C332.702,197.368,333.039,197.368,333.376,197.368L333.376,197.368z"/>
		</g>
	</g>
	<g opacity="0.3">
		<g>
			<path d="M548.626,146.424c7.085,0,12.82-5.735,12.82-12.821c0-7.085-5.735-12.82-12.82-12.82s-12.82,5.735-12.82,12.82
				c0,3.037,1.012,5.736,3.036,8.098c2.024,1.012,4.049,2.361,5.735,4.049C545.927,146.086,547.276,146.424,548.626,146.424z"/>
		</g>
		<g>
			<path d="M303.35,180.499c7.085,0,12.82-5.735,12.82-12.82s-5.735-12.82-12.82-12.82s-12.821,5.735-12.821,12.82
				S296.265,180.499,303.35,180.499L303.35,180.499z"/>
		</g>
		<g>
			<circle cx="388.032" cy="184.211" r="28.002"/>
		</g>
	</g>
	<g>
		<g>
			<g>
				<path fill="#FFFFFF" d="M479.463,168.016v-4.723c0-3.374-1.687-5.398-5.061-5.398c-2.699-0.338-5.061,1.687-5.061,4.386
					c0,0.338,0,0.675,0,1.013v8.771c-0.338,2.699,1.35,5.061,4.048,5.398c0.338,0,0.675,0,1.013,0c3.374,0,5.061-2.024,5.061-5.398
					v-2.024h-2.699v2.362c0,1.687-0.675,2.698-2.361,2.698c-1.688,0-2.362-1.012-2.362-2.698v-4.387H479.463L479.463,168.016z
					 M472.378,162.955c0-1.687,0.675-2.699,2.361-2.699c1.688,0,2.362,1.013,2.362,2.699v2.699h-4.724V162.955z"/>
			</g>
			<g>
				<path fill="#FFFFFF" d="M462.594,157.557c-2.024-0.337-4.049,1.35-4.386,3.374c0,0.338,0,0.675,0,1.013v2.361h3.374v-2.361
					c0-1.013,0.675-1.688,1.35-1.688s1.012,0.338,1.012,1.35v1.688c0.337,1.35-0.337,2.361-1.012,3.373l-2.024,2.024
					c-1.688,1.35-2.699,3.037-2.699,5.061v3.712h8.435v-2.699h-5.061v-1.013c0-1.012,0.337-2.361,1.35-3.036l2.023-2.024
					c1.35-1.35,2.024-3.036,2.024-5.061v-2.024C466.979,158.906,465.63,157.557,462.594,157.557z"/>
			</g>
			<g>
				<path fill="#FFFFFF" d="M447.411,140.689c-4.048-0.338-7.76,2.698-8.097,7.085c0,0.675,0,1.012,0,1.687v15.183
					c-0.337,4.386,3.036,8.435,7.423,8.435c4.386,0,8.434-3.037,8.434-7.423c0-0.338,0-0.675,0-1.012V149.46
					c0.676-4.049-2.361-8.098-6.41-8.435C448.424,140.689,447.749,140.689,447.411,140.689z M450.11,165.317
					c0,1.688-0.675,3.374-2.699,3.374c-2.023,0-2.698-1.35-2.698-3.374v-16.868c0-2.024,1.012-3.374,2.698-3.374
					c1.688,0,2.699,1.35,2.699,3.374V165.317z"/>
			</g>
			<g>
				<path fill="#FFFFFF" d="M428.519,140.689c-4.049-0.338-7.76,2.698-8.098,7.085c0,0.675,0,1.012,0,1.687v15.183
					c-0.675,4.048,2.362,7.76,6.41,8.435c0.675,0,1.013,0,1.688,0c5.735,0,7.422-3.374,7.422-7.761v-5.397h-4.723v5.397
					c0,2.024-0.675,3.037-2.699,3.037s-2.699-1.35-2.699-3.374v-16.869c0-2.024,0.675-3.374,2.699-3.374s2.699,1.013,2.699,3.037
					v4.048h4.723v-3.373C435.94,144.062,434.254,140.689,428.519,140.689z"/>
			</g>
		</g>
		<g>
			<g>
				<path fill="#FFFFFF" d="M561.446,301.281h-0.337l-0.675,0.338c-8.435,4.386-35.088,14.507-59.042-8.435
					c-0.337-0.337-1.012-0.675-1.35-0.675c-0.337,0-1.012,0.338-1.35,0.675c-7.085,5.735-40.148,28.003-69.5,0.338h-0.675
					c-0.338-0.338-0.675-0.338-1.013-0.338c-0.337,0-0.675,0.338-1.012,0.338l-0.338,0.337c-29.352,27.328-62.416,5.061-69.5-0.337
					c-0.337-0.338-0.675-0.675-1.35-0.675c-0.337,0-1.012,0.337-1.349,0.675c-23.954,22.941-50.607,12.482-59.042,8.434
					l-0.675-0.337h-0.337c-1.012,0-1.687,0.675-1.687,1.687v11.472c0,0.337,0,1.012,0.337,1.012
					c27.666,24.291,53.981,1.687,60.054-4.386c0.337-0.338,0.337-0.338,0.675-0.675c0.337,0,0.337-0.338,0.675-0.338
					s1.012,0.338,1.012,0.675c31.377,30.027,64.44,5.735,71.188,0l0.675-0.675c0-0.337,0.338-0.337,0.675-0.337
					c0.338,0,0.338,0.337,0.675,0.337l0.675,0.675c6.748,5.735,39.812,30.027,71.188,0l0,0c0.338-0.337,0.675-0.337,1.013-0.337
					c0.337,0,0.675,0,1.012,0.337c0.338,0,0.338,0.338,0.338,0.338c6.41,5.735,32.726,28.34,60.729,4.386
					c0.337-0.338,0.675-0.675,0.675-1.012v-11.472C563.471,301.956,562.459,301.281,561.446,301.281"/>
			</g>
			<g>
				<path fill="#FFFFFF" d="M561.446,343.117h-0.337l-0.675,0.337c-8.435,4.386-35.088,14.508-59.042-8.435
					c-0.337-0.337-1.012-0.675-1.35-0.675c-0.337,0-0.675,0.338-1.35,0.675c-7.085,5.735-40.148,27.666-69.5,0.338l-0.338-0.338
					c-0.337-0.337-0.675-0.337-1.012-0.337c-0.338,0-0.675,0-1.013,0.337l-0.337,0.338c-29.353,27.328-62.416,5.061-69.501-0.338
					c-0.337-0.337-0.675-0.675-1.35-0.675s-1.012,0.338-1.349,0.675c-23.954,22.942-50.607,12.483-59.042,8.435l-0.675-0.337h-0.337
					c-1.012,0-1.687,0.675-1.687,1.687v11.471c0,0.338,0,1.013,0.337,1.013c27.666,24.291,54.318,1.687,60.392-4.386l0.675-0.675
					c0.337,0,0.337-0.338,0.675-0.338c0.337,0,1.012,0.338,1.012,0.675c31.377,30.027,64.44,5.735,71.188,0l0.675-0.675
					c0,0,0.338-0.337,0.675-0.337c0.338,0,0.338,0,0.675,0.337l0.675,0.675c6.748,5.735,39.812,30.027,71.188,0l0,0
					c0.675-0.337,1.35-0.337,2.024,0c0.338,0,0.338,0.338,0.338,0.338c6.072,6.072,32.389,28.677,60.054,4.386
					c0.337-0.338,0.337-0.675,0.675-1.013v-11.471C563.134,344.129,562.459,343.454,561.446,343.117"/>
			</g>
		</g>
	</g>
</g>
</svg>
