<?xml version="1.0" encoding="utf-8"?>
<!-- Generator: Adobe Illustrator 16.0.3, SVG Export Plug-In . SVG Version: 6.00 Build 0)  -->
<!DOCTYPE svg PUBLIC "-//W3C//DTD SVG 1.1//EN" "http://www.w3.org/Graphics/SVG/1.1/DTD/svg11.dtd" [
	<!ENTITY ns_extend "http://ns.adobe.com/Extensibility/1.0/">
	<!ENTITY ns_ai "http://ns.adobe.com/AdobeIllustrator/10.0/">
	<!ENTITY ns_graphs "http://ns.adobe.com/Graphs/1.0/">
	<!ENTITY ns_vars "http://ns.adobe.com/Variables/1.0/">
	<!ENTITY ns_imrep "http://ns.adobe.com/ImageReplacement/1.0/">
	<!ENTITY ns_sfw "http://ns.adobe.com/SaveForWeb/1.0/">
	<!ENTITY ns_custom "http://ns.adobe.com/GenericCustomNamespace/1.0/">
	<!ENTITY ns_adobe_xpath "http://ns.adobe.com/XPath/1.0/">
]>
<svg version="1.1" id="Layer_1" xmlns:x="&ns_extend;" xmlns:i="&ns_ai;" xmlns:graph="&ns_graphs;"
	 xmlns="http://www.w3.org/2000/svg" xmlns:xlink="http://www.w3.org/1999/xlink" x="0px" y="0px" width="270.548px"
	 height="270.548px" viewBox="291.583 68.493 270.548 270.548" enable-background="new 291.583 68.493 270.548 270.548"
	 xml:space="preserve">
<metadata>
	<sfw  xmlns="&ns_sfw;">
		<slices></slices>
		<sliceSourceBounds  width="270.548" height="270.548" y="161.459" x="291.083" bottomLeftOrigin="true"></sliceSourceBounds>
	</sfw>
</metadata>
<title>TARGET 1.1</title>
<g id="TARGETS">
	<g>
		<rect x="291.583" y="68.493" fill="#BF8B2E" width="270.548" height="270.548"/>
	</g>
	<g>
		<g>
			<path fill="#FFFFFF" d="M512.188,203.197c0-19.121-7.991-29.396-14.84-34.532c-7.991-5.993-17.694-9.133-27.397-9.133
				c-2.283,0-4.566,0.286-6.564,0.571l-0.57,0.285c-6.564,1.427-17.409,3.995-30.251,19.978l-0.286,0.57
				c-0.285,0.285-0.285,0.571-0.285,0.856s0,0.57,0.285,0.856l0.286,0.57c1.997,3.425,3.71,6.564,5.137,9.133
				c0.285,0.855,1.427,1.142,2.283,0.855c0.285,0,0.285-0.285,0.57-0.57l0.286-0.285c10.845-15.126,19.691-17.123,25.399-18.551
				l0.57-0.285c1.142-0.285,2.283-0.285,3.425-0.285c6.85,0,13.413,1.998,19.121,5.993c6.278,5.137,9.703,13.128,9.703,23.973
				c0,18.265-8.847,25.399-16.268,27.968c-2.854,1.142-5.993,1.713-9.132,1.713c-4.566,0-9.418-1.142-13.413-3.14l-0.571-0.285
				c-6.278-2.854-15.696-8.562-24.828-26.541c-18.551-37.101-33.961-40.24-44.236-42.809h-0.571
				c-2.283-0.571-4.281-0.571-6.563-0.571c-9.704,0-19.121,2.854-26.827,8.848c-6.564,5.422-14.555,15.696-14.555,34.532
				c-1.427,21.975,15.125,41.096,37.1,42.522c1.142,0,2.283,0,3.425,0c3.139,0,6.279-0.285,9.418-0.856
				c5.708-1.142,11.416-3.71,15.981-7.42l5.422,4.852c0.571,0.571,1.712,0.571,2.283,0c0.286-0.285,0.286-0.57,0.286-1.142
				l4.281-25.685v-0.285c0-0.856-0.856-1.428-1.427-1.428l0,0l0,0l-25.399,7.135h-0.571c-0.285,0-0.571,0.286-0.856,0.571
				c-0.286,0.285-0.571,0.855-0.286,1.142c0,0.285,0.286,0.855,0.571,1.142l5.137,4.565c-2.568,1.428-5.137,2.569-7.991,3.425
				c-2.283,0.286-4.281,0.571-6.564,0.571c-8.276,0.285-15.982-3.425-21.404-9.703v-0.286c-4.281-5.707-5.708-10.559-5.708-19.12
				c0-10.845,3.139-18.836,9.417-23.973c5.422-3.996,11.986-5.993,18.55-5.993c1.142,0,2.283,0,3.425,0.285h0.571
				c7.991,1.998,19.406,4.28,34.817,35.388c8.276,16.553,18.551,27.112,31.393,32.82c5.993,3.139,12.843,4.565,19.692,4.852
				c4.566,0,9.418-0.856,13.698-2.569C494.494,241.153,512.188,231.449,512.188,203.197z"/>
		</g>
		<g>
			<path fill="#FFFFFF" d="M541.298,87.9h-0.57l-25.686,2.854c0,0-0.855,0-1.142,0.285c-0.285,0.286,0,0.856,0.286,1.142
				l0.285,0.286l5.707,5.707l-32.534,31.394c-0.285,0.285-0.285,0.855,0,1.141l9.704,10.274c0.285,0.285,0.855,0.285,1.141,0
				l32.535-31.393l5.707,5.993c0.571,0.57,0.571,0.57,1.142,0.285c0.286-0.285,0.571-0.57,0.571-0.856l3.71-25.97v-0.285
				c0-0.286-0.285-0.571-0.285-0.856C541.583,87.9,541.298,87.9,541.298,87.9z"/>
		</g>
		<g>
			<path fill="#FFFFFF" d="M312.987,87.9h0.571l25.685,2.854c0,0,1.142,0,1.142,0.285c0.285,0.286,0,0.856-0.286,1.142l-0.285,0.286
				l-5.708,5.707l32.535,31.394c0.285,0.285,0.285,0.855,0,1.141l0,0l-9.704,10.274c-0.285,0.285-0.856,0.285-1.141,0
				l-32.535-31.393l-5.708,5.993c-0.286,0.57-0.856,0.57-1.142,0.285s-0.571-0.57-0.571-0.856l-3.71-25.97v-0.285
				c0-0.286,0-0.571,0.285-0.856C312.417,87.9,312.702,87.9,312.987,87.9z"/>
		</g>
		<g>
			<path fill="#FFFFFF" d="M312.702,319.92h0.571l25.685-2.854c0,0,1.141,0,1.141-0.57c0-0.571,0-0.856-0.285-1.142l-0.286-0.285
				l-5.708-5.708l32.534-31.393c0.286-0.285,0.286-0.856,0-1.142l-9.703-10.273c-0.286-0.286-0.856-0.286-1.142,0l0,0
				l-32.534,31.392l-5.708-5.992c-0.285-0.571-0.571-0.571-1.141-0.286c-0.286,0.286-0.571,0.571-0.571,0.856l-3.71,25.97v0.286
				c0,0.285,0.286,0.57,0.286,0.855C312.417,319.92,312.702,319.92,312.702,319.92z"/>
		</g>
		<g>
			<path fill="#FFFFFF" d="M541.013,319.92h-0.571l-25.685-2.854c0,0-0.856,0-1.142-0.57c-0.285-0.571,0-0.856,0.285-1.142
				l0.286-0.285l5.707-5.708l-32.534-31.393c-0.285-0.285-0.285-0.856,0-1.142l0,0l9.703-10.273c0.286-0.286,0.856-0.286,1.142,0
				l32.534,31.392l5.708-5.992c0.57-0.571,0.856-0.571,1.142-0.286c0.285,0.286,0.285,0.571,0.571,0.856l3.71,25.97v0.286
				c0,0.285,0,0.57-0.286,0.855C541.298,319.92,541.298,319.92,541.013,319.92z"/>
		</g>
	</g>
</g>
</svg>
