<?xml version="1.0" encoding="utf-8"?>
<!-- Generator: Adobe Illustrator 16.0.3, SVG Export Plug-In . SVG Version: 6.00 Build 0)  -->
<!DOCTYPE svg PUBLIC "-//W3C//DTD SVG 1.1//EN" "http://www.w3.org/Graphics/SVG/1.1/DTD/svg11.dtd" [
	<!ENTITY ns_extend "http://ns.adobe.com/Extensibility/1.0/">
	<!ENTITY ns_ai "http://ns.adobe.com/AdobeIllustrator/10.0/">
	<!ENTITY ns_graphs "http://ns.adobe.com/Graphs/1.0/">
	<!ENTITY ns_vars "http://ns.adobe.com/Variables/1.0/">
	<!ENTITY ns_imrep "http://ns.adobe.com/ImageReplacement/1.0/">
	<!ENTITY ns_sfw "http://ns.adobe.com/SaveForWeb/1.0/">
	<!ENTITY ns_custom "http://ns.adobe.com/GenericCustomNamespace/1.0/">
	<!ENTITY ns_adobe_xpath "http://ns.adobe.com/XPath/1.0/">
]>
<svg version="1.1" id="Layer_1" xmlns:x="&ns_extend;" xmlns:i="&ns_ai;" xmlns:graph="&ns_graphs;"
	 xmlns="http://www.w3.org/2000/svg" xmlns:xlink="http://www.w3.org/1999/xlink" x="0px" y="0px" width="285.37px"
	 height="285.37px" viewBox="284.165 72.245 285.37 285.37" enable-background="new 284.165 72.245 285.37 285.37"
	 xml:space="preserve">
<metadata>
	<sfw  xmlns="&ns_sfw;">
		<slices></slices>
		<sliceSourceBounds  width="285.37" height="285.37" x="283.665" y="142.885" bottomLeftOrigin="true"></sliceSourceBounds>
	</sfw>
</metadata>
<title>TARGET 1 B</title>
<g id="TARGETS">
	<g>
		<rect x="284.165" y="72.245" fill="#C5192D" width="285.37" height="285.37"/>
	</g>
	<g>
		<g>
			<path fill="#FFFFFF" d="M381.696,169.175l-33.714-36.725c-8.429,8.128-15.653,17.459-21.373,27.694l44.551,22.275
				C374.17,177.604,377.783,173.39,381.696,169.175z"/>
		</g>
		<g>
			<path fill="#FFFFFF" d="M467.789,165.262l33.714-36.725c-9.03-7.827-18.964-13.848-29.801-18.664l-18.062,46.659
				C458.758,158.941,463.574,161.65,467.789,165.262z"/>
		</g>
		<g>
			<path fill="#FFFFFF" d="M490.666,205.599l49.669-4.816c-1.505-11.438-4.515-22.878-9.633-33.413l-44.551,22.275
				C488.258,194.762,489.764,200.181,490.666,205.599z"/>
		</g>
		<g>
			<path fill="#FFFFFF" d="M483.141,183.323l44.552-22.276c-5.418-10.234-12.643-19.566-20.771-27.693l-33.715,36.725
				C477.12,173.991,480.432,178.507,483.141,183.323z"/>
		</g>
		<g>
			<path fill="#FFFFFF" d="M362.431,214.931c0-0.903,0-2.107,0-3.011l-49.368-4.214c-0.301,2.408-0.301,5.117-0.301,7.525
				c0,9.332,1.204,18.663,3.311,27.694l47.863-13.848C363.033,224.564,362.431,219.747,362.431,214.931z"/>
		</g>
		<g>
			<path fill="#FFFFFF" d="M464.778,267.309l26.189,42.444c9.633-6.623,18.362-14.75,25.587-23.781l-39.735-30.102
				C473.207,260.084,469.294,263.997,464.778,267.309z"/>
		</g>
		<g>
			<path fill="#FFFFFF" d="M540.938,208.007l-49.669,4.816c0,0.903,0,1.505,0,2.408c0,4.516-0.603,9.332-1.505,13.847l47.862,13.848
				c2.107-9.031,3.312-18.362,3.312-27.394C541.238,212.823,541.238,210.415,540.938,208.007z"/>
		</g>
		<g>
			<path fill="#FFFFFF" d="M378.083,256.773l-39.735,30.103c7.525,9.031,16.255,17.158,25.888,23.479l26.189-42.444
				C385.91,264.901,381.696,260.988,378.083,256.773z"/>
		</g>
		<g>
			<path fill="#FFFFFF" d="M368.15,188.741l-44.551-22.275c-5.118,10.536-8.429,21.975-9.934,33.715l49.669,4.515
				C364.237,199.278,365.742,193.859,368.15,188.741z"/>
		</g>
		<g>
			<path fill="#FFFFFF" d="M443.405,277.543l9.332,49.067c11.439-2.71,22.276-6.924,32.511-12.944l-26.189-42.444
				C453.941,273.931,448.824,276.038,443.405,277.543z"/>
		</g>
		<g>
			<path fill="#FFFFFF" d="M481.034,250.151l39.734,30.103c6.623-9.332,11.74-19.566,15.052-30.705l-47.863-13.847
				C486.151,240.819,484.044,245.635,481.034,250.151z"/>
		</g>
		<g>
			<path fill="#FFFFFF" d="M426.85,279.651c-2.408,0-5.117-0.301-7.526-0.602l-9.031,49.066c11.74,1.806,23.48,1.505,35.22-0.301
				l-9.331-49.067C433.171,279.35,430.161,279.651,426.85,279.651z"/>
		</g>
		<g>
			<path fill="#FFFFFF" d="M465.079,107.164c-10.837-3.913-22.275-6.021-33.714-6.321v49.97c5.418,0.301,10.837,1.204,15.954,3.01
				L465.079,107.164z"/>
		</g>
		<g>
			<path fill="#FFFFFF" d="M396.446,271.824l-26.189,42.443c10.235,5.72,21.373,10.235,32.812,12.644l9.332-49.066
				C406.982,276.641,401.563,274.533,396.446,271.824z"/>
		</g>
		<g>
			<path fill="#FFFFFF" d="M423.839,150.813v-49.97c-11.74,0.301-23.178,2.408-34.316,6.321l18.062,46.658
				C413.002,152.017,418.421,151.114,423.839,150.813z"/>
		</g>
		<g>
			<path fill="#FFFFFF" d="M366.043,236.002L318.18,249.85c3.612,11.438,9.031,21.975,15.954,31.607l39.735-30.103
				C370.257,246.538,367.849,241.421,366.043,236.002z"/>
		</g>
		<g>
			<path fill="#FFFFFF" d="M400.961,156.231L382.9,109.573c-10.536,4.516-20.469,10.536-29.5,18.062l33.714,36.725
				C391.329,161.047,395.844,158.338,400.961,156.231z"/>
		</g>
		<g>
			<g>
				<polygon fill="#FFFFFF" points="395.543,238.41 425.946,247.742 425.946,193.859 395.543,181.216 				"/>
			</g>
			<g>
				<polygon fill="#FFFFFF" points="460.263,181.216 429.559,194.16 429.559,247.742 460.263,238.41 				"/>
			</g>
			<g>
				<polygon fill="#FFFFFF" points="392.232,241.421 392.232,181.216 388.92,183.624 388.92,243.829 425.946,254.064 
					427.753,254.064 428.054,254.064 429.559,254.064 463.875,243.227 466.886,242.323 466.886,183.624 463.574,181.216 
					463.574,239.915 429.559,251.054 428.054,251.054 427.753,251.054 425.946,251.054 				"/>
			</g>
		</g>
	</g>
</g>
</svg>
