<?xml version="1.0" encoding="utf-8"?>
<!-- Generator: Adobe Illustrator 16.0.3, SVG Export Plug-In . SVG Version: 6.00 Build 0)  -->
<!DOCTYPE svg PUBLIC "-//W3C//DTD SVG 1.1//EN" "http://www.w3.org/Graphics/SVG/1.1/DTD/svg11.dtd" [
	<!ENTITY ns_extend "http://ns.adobe.com/Extensibility/1.0/">
	<!ENTITY ns_ai "http://ns.adobe.com/AdobeIllustrator/10.0/">
	<!ENTITY ns_graphs "http://ns.adobe.com/Graphs/1.0/">
	<!ENTITY ns_vars "http://ns.adobe.com/Variables/1.0/">
	<!ENTITY ns_imrep "http://ns.adobe.com/ImageReplacement/1.0/">
	<!ENTITY ns_sfw "http://ns.adobe.com/SaveForWeb/1.0/">
	<!ENTITY ns_custom "http://ns.adobe.com/GenericCustomNamespace/1.0/">
	<!ENTITY ns_adobe_xpath "http://ns.adobe.com/XPath/1.0/">
]>
<svg version="1.1" id="Layer_1" xmlns:x="&ns_extend;" xmlns:i="&ns_ai;" xmlns:graph="&ns_graphs;"
	 xmlns="http://www.w3.org/2000/svg" xmlns:xlink="http://www.w3.org/1999/xlink" x="0px" y="0px" width="270.548px"
	 height="270.548px" viewBox="291.583 68.493 270.548 270.548" enable-background="new 291.583 68.493 270.548 270.548"
	 xml:space="preserve">
<metadata>
	<sfw  xmlns="&ns_sfw;">
		<slices></slices>
		<sliceSourceBounds  width="270.548" height="270.548" x="291.083" y="161.459" bottomLeftOrigin="true"></sliceSourceBounds>
	</sfw>
</metadata>
<title>TARGET 1 B copy 2</title>
<g id="TARGETS">
	<g>
		<rect x="291.583" y="68.493" fill="#4C9F38" width="270.548" height="270.548"/>
	</g>
	<g>
		<g>
			<g>
				<path fill="#FFFFFF" d="M430.282,204.623h-4.852V191.21h4.852V204.623z M430.282,179.509h-4.852v-13.413h4.852V179.509z
					 M430.282,154.395h-4.852v-13.413h4.852V154.395z"/>
			</g>
			<g>
				<path fill="#FFFFFF" d="M430.282,129.567h-4.852v-13.414h4.852V129.567z M430.282,104.166h-4.852V90.753h4.852V104.166z"/>
			</g>
		</g>
		<g>
			<g>
				<path fill="#FFFFFF" d="M343.239,189.212l13.413-13.413C350.659,178.082,345.807,182.934,343.239,189.212z"/>
			</g>
			<g>
				<path fill="#FFFFFF" d="M354.939,219.178l31.963-31.963c-0.856-1.428-1.712-3.14-2.854-4.281l-33.676,33.391
					C351.8,217.466,353.227,218.322,354.939,219.178z"/>
			</g>
			<g>
				<path fill="#FFFFFF" d="M365.499,221.746h0.571l23.116-23.116c0-0.285,0-0.57,0-0.57c0-1.998-0.285-3.711-0.856-5.708
					l-28.539,28.539C361.503,221.461,363.501,221.746,365.499,221.746z"/>
			</g>
			<g>
				<path fill="#FFFFFF" d="M387.759,206.906l-12.843,13.128C380.625,217.466,385.19,212.9,387.759,206.906z"/>
			</g>
			<g>
				<path fill="#FFFFFF" d="M371.492,174.657c-1.998-0.57-3.996-0.856-5.993-0.856h-0.571l-23.402,23.402c0,0,0,0.285,0,0.57
					c0,1.998,0.285,3.996,0.856,5.993L371.492,174.657z"/>
			</g>
			<g>
				<path fill="#FFFFFF" d="M347.234,213.185l33.676-33.676c-1.427-1.142-2.854-1.998-4.281-2.854l-32.249,31.963
					C344.951,210.331,346.092,211.758,347.234,213.185z"/>
			</g>
			<g>
				<path fill="#FFFFFF" d="M334.962,308.504l72.774-72.773c-1.427-0.856-3.139-1.713-4.852-2.568l-67.922,67.922V308.504z"/>
			</g>
			<g>
				<polygon fill="#FFFFFF" points="327.257,281.393 308.707,299.943 308.707,307.077 327.257,288.528 				"/>
			</g>
			<g>
				<path fill="#FFFFFF" d="M334.962,294.521l62.785-62.785c-1.427-0.286-2.854-0.571-4.281-0.856c-0.571,0-1.142,0-1.712,0l0,0
					l-56.507,56.507L334.962,294.521z"/>
			</g>
			<g>
				<polygon fill="#FFFFFF" points="327.257,316.21 327.257,309.075 319.266,317.066 326.401,317.066 				"/>
			</g>
			<g>
				<path fill="#FFFFFF" d="M327.257,271.975c0-2.283,0.571-5.137,4.566-5.137c0.856,0,1.712,0.285,2.283,0.855l37.101-37.1h-7.135
					l-55.365,55.365v7.135l18.55-18.551V271.975z"/>
			</g>
			<g>
				<path fill="#FFFFFF" d="M339.243,230.879c-0.571,0-1.142,0-1.712,0s-1.427,0.285-1.998,0.285l-26.541,26.541
					c-0.286,1.713-0.286,3.425-0.286,5.137v2.569l34.532-34.532H339.243z"/>
			</g>
			<g>
				<polygon fill="#FFFFFF" points="349.803,230.879 308.707,271.975 308.707,274.258 308.707,279.395 357.223,230.879 				"/>
			</g>
			<g>
				<polygon fill="#FFFFFF" points="327.257,302.511 327.257,295.091 308.707,313.641 308.707,317.066 312.417,317.066 				"/>
			</g>
			<g>
				<path fill="#FFFFFF" d="M415.156,242.294c-1.142-1.427-2.283-2.568-3.424-3.71l-76.484,76.484v1.997h5.422L415.156,242.294z"/>
			</g>
			<g>
				<polygon fill="#FFFFFF" points="422.291,310.787 416.298,317.066 422.291,317.066 				"/>
			</g>
			<g>
				<path fill="#FFFFFF" d="M396.035,275.4v-3.425c0-1.712,0.571-4.566,3.425-4.566c1.427,0,2.568,0.285,3.425,1.427l17.409-17.408
					c-0.571-1.712-1.427-3.425-2.283-4.852l-70.776,70.776h7.135L396.035,275.4z"/>
			</g>
			<g>
				<polygon fill="#FFFFFF" points="396.035,289.098 396.035,281.963 360.933,317.066 368.067,317.066 				"/>
			</g>
			<g>
				<path fill="#FFFFFF" d="M312.417,247.717l13.128-13.128C319.837,237.729,315.271,242.294,312.417,247.717z"/>
			</g>
			<g>
				<polygon fill="#FFFFFF" points="334.962,280.822 384.905,230.879 377.771,230.879 334.962,273.402 				"/>
			</g>
			<g>
				<polygon fill="#FFFFFF" points="396.035,317.066 396.035,309.646 388.615,317.066 				"/>
			</g>
			<g>
				<path fill="#FFFFFF" d="M404.026,281.393l18.55-18.551l0,0c0-2.282-0.285-4.28-0.57-6.563l-17.694,17.979L404.026,281.393z"/>
			</g>
			<g>
				<polygon fill="#FFFFFF" points="396.035,303.082 396.035,295.948 374.917,317.066 382.051,317.066 				"/>
			</g>
			<g>
				<polygon fill="#FFFFFF" points="404.026,309.075 422.291,290.525 422.291,283.391 404.026,301.941 				"/>
			</g>
			<g>
				<polygon fill="#FFFFFF" points="422.291,304.224 422.291,297.374 404.026,315.924 404.026,317.066 409.734,317.066 				"/>
			</g>
			<g>
				<polygon fill="#FFFFFF" points="422.291,274.258 422.291,270.833 422.291,269.406 404.026,287.956 404.026,295.376 
					422.291,276.826 				"/>
			</g>
		</g>
		<g>
			<g>
				<path fill="#FFFFFF" d="M490.499,221.746c13.128,0,23.973-10.845,23.973-23.973s-10.845-23.973-23.973-23.973
					s-23.973,10.845-23.973,23.973S477.371,221.746,490.499,221.746L490.499,221.746z"/>
			</g>
			<g>
				<path fill="#FFFFFF" d="M451.972,271.975c0-2.283,0.57-5.137,4.566-5.137c2.568,0,3.139,2.854,3.424,4.566v45.376h60.788V271.69
					c0-1.713,0.571-4.566,3.425-4.566c3.995,0,4.566,2.854,4.566,5.137v45.092h18.55v-54.224c0-16.553-12.557-30.251-28.824-31.964
					c-0.57,0-1.142,0-1.712,0h-52.512c-0.57,0-1.142,0-1.712,0c-16.553,1.142-29.11,15.126-29.11,31.393v54.224h18.551V271.975z
					 M501.629,261.415c1.713,0,3.425,1.713,4.281,2.854c1.142-1.428,2.854-2.569,4.565-2.854c2.854,0,5.423,2.568,5.138,5.708v0.285
					c0,1.427-0.571,3.14-1.713,4.281l0,0l-7.99,7.99l-7.991-7.99c-1.142-1.142-1.712-2.568-1.712-4.281
					c-0.286-3.139,1.997-5.708,5.137-5.993H501.629z"/>
			</g>
		</g>
		<g>
			<g>
				<path fill="#FFFFFF" d="M357.223,115.867c4.852-3.995,11.701-3.995,16.552,0c1.142-1.142,1.998-2.283,2.854-3.71
					c-6.564-5.137-15.981-5.137-22.545,0C355.225,113.584,356.081,114.726,357.223,115.867z"/>
			</g>
			<g>
				<path fill="#FFFFFF" d="M385.476,114.726c0-0.285,0-0.285,0-0.57c1.427-10.845-5.993-21.119-17.124-22.546l0,0v0.856
					c7.706,1.427,12.557,8.847,11.13,16.552c-1.142,6.279-6.564,10.845-13.128,11.416v1.998l0.856,0.285
					c1.998,0.856,3.14,3.139,2.283,5.137l1.712,1.142c3.996-6.85,12.557-9.133,19.121-5.137c5.993,3.425,8.562,10.845,5.993,17.408
					l0.571,0.285l0.285-0.57C401.172,130.422,395.75,118.722,385.476,114.726C385.476,115.011,385.476,115.011,385.476,114.726z"/>
			</g>
			<g>
				<path fill="#FFFFFF" d="M376.629,148.687c-6.849-3.71-9.418-11.986-5.993-18.835l-1.712-1.142
					c-0.285,0.285-0.285,0.285-0.571,0.57c-1.712,1.427-4.281,1.142-5.708-0.57l0,0l-1.712,1.142
					c3.71,6.849,1.142,15.411-5.708,19.121c-5.708,3.139-13.128,1.712-17.409-3.425l-0.571,0.285c0,0,0.285,0.285,0.285,0.571
					c6.849,8.562,19.406,9.988,27.968,2.854l0,0c0.285,0,0.285,0.285,0.571,0.285c8.847,6.85,21.404,5.137,27.968-3.425l0,0
					l-0.571-0.57C389.186,150.4,382.337,151.541,376.629,148.687z"/>
			</g>
			<g>
				<path fill="#FFFFFF" d="M370.636,138.698c0.286,1.427,0.856,3.14,1.712,4.281c7.706-3.14,12.557-11.131,11.13-19.406
					c-1.712,0-3.14,0.285-4.566,0.57C379.768,130.422,376.344,136.415,370.636,138.698z"/>
			</g>
			<g>
				<path fill="#FFFFFF" d="M347.805,123.573c-1.142,8.275,3.425,16.267,11.13,19.406c0.856-1.428,1.427-2.854,1.712-4.281
					c-5.708-2.283-9.133-8.276-8.276-14.27C350.944,123.859,349.232,123.573,347.805,123.573z"/>
			</g>
			<g>
				<path fill="#FFFFFF" d="M340.67,124.429c6.564-4.28,15.126-2.283,19.407,4.281l1.712-1.142c0-0.285-0.286-0.571-0.286-0.856
					c-0.285-2.283,1.142-4.28,3.139-4.566v-1.997c-7.706-0.286-13.699-6.85-13.413-14.841c0.285-6.278,4.852-11.7,11.416-13.128
					v-0.855h-0.571c-10.845,1.712-18.265,11.986-16.553,22.831l0,0l-0.57,0.285c-10.274,4.281-15.126,15.696-10.845,25.971l0,0
					l0.571-0.286C332.965,134.703,335.248,127.854,340.67,124.429z"/>
			</g>
		</g>
		<g>
			<g>
				<path fill="#FFFFFF" d="M326.972,180.651c0,1.142-0.856,1.998-1.998,1.998l0,0c-1.142,0-1.998-0.856-1.998-1.998
					s0.856-1.998,1.998-1.998l0,0C326.115,178.653,326.972,179.509,326.972,180.651L326.972,180.651z"/>
			</g>
			<g>
				<path fill="#FFFFFF" d="M313.558,111.872c0,1.712-1.142,2.854-2.854,2.854c-1.712,0-2.854-1.142-2.854-2.854
					c0-1.713,1.142-2.854,2.854-2.854C312.417,109.018,313.558,110.159,313.558,111.872z"/>
			</g>
			<g>
				<path fill="#FFFFFF" d="M415.442,144.692c0,1.713-1.142,2.854-2.854,2.854s-2.854-1.141-2.854-2.854
					c0-1.712,1.142-2.854,2.854-2.854S415.442,142.98,415.442,144.692z"/>
			</g>
			<g>
				<path fill="#FFFFFF" d="M399.746,167.523c0,1.998-1.712,3.71-3.71,3.71c-1.998,0-3.71-1.712-3.71-3.71s1.712-3.71,3.71-3.71
					C398.318,163.813,399.746,165.525,399.746,167.523z"/>
			</g>
			<g>
				<path fill="#FFFFFF" d="M317.839,153.538c0,1.998-1.712,3.711-3.71,3.711c-1.998,0-3.71-1.713-3.71-3.711
					c0-1.997,1.712-3.71,3.71-3.71l0,0C316.412,150.115,317.839,151.541,317.839,153.538z"/>
			</g>
			<g>
				<path fill="#FFFFFF" d="M410.02,99.03c0,1.998-1.712,3.71-3.71,3.71c-1.998,0-3.71-1.712-3.71-3.71s1.712-3.71,3.71-3.71l0,0
					C408.307,95.32,410.02,97.031,410.02,99.03z"/>
			</g>
			<g>
				<path fill="#FFFFFF" d="M415.442,195.49c0,1.713-1.142,2.854-2.854,2.854s-2.854-1.142-2.854-2.854
					c0-1.712,1.142-2.854,2.854-2.854S415.442,194.064,415.442,195.49z"/>
			</g>
			<g>
				<path fill="#FFFFFF" d="M310.704,198.345c0,1.142-0.856,1.997-1.998,1.997s-1.998-0.855-1.998-1.997s0.856-1.998,1.998-1.998
					l0,0C309.848,196.347,310.704,197.203,310.704,198.345L310.704,198.345z"/>
			</g>
			<g>
				<path fill="#FFFFFF" d="M325.259,211.187c0,1.713-1.142,2.854-2.854,2.854s-2.854-1.142-2.854-2.854
					c0-1.712,1.142-2.854,2.854-2.854S325.259,209.76,325.259,211.187z"/>
			</g>
		</g>
	</g>
</g>
</svg>
