<?xml version="1.0" encoding="utf-8"?>
<!-- Generator: Adobe Illustrator 16.0.3, SVG Export Plug-In . SVG Version: 6.00 Build 0)  -->
<!DOCTYPE svg PUBLIC "-//W3C//DTD SVG 1.1//EN" "http://www.w3.org/Graphics/SVG/1.1/DTD/svg11.dtd" [
	<!ENTITY ns_extend "http://ns.adobe.com/Extensibility/1.0/">
	<!ENTITY ns_ai "http://ns.adobe.com/AdobeIllustrator/10.0/">
	<!ENTITY ns_graphs "http://ns.adobe.com/Graphs/1.0/">
	<!ENTITY ns_vars "http://ns.adobe.com/Variables/1.0/">
	<!ENTITY ns_imrep "http://ns.adobe.com/ImageReplacement/1.0/">
	<!ENTITY ns_sfw "http://ns.adobe.com/SaveForWeb/1.0/">
	<!ENTITY ns_custom "http://ns.adobe.com/GenericCustomNamespace/1.0/">
	<!ENTITY ns_adobe_xpath "http://ns.adobe.com/XPath/1.0/">
]>
<svg version="1.1" id="Layer_1" xmlns:x="&ns_extend;" xmlns:i="&ns_ai;" xmlns:graph="&ns_graphs;"
	 xmlns="http://www.w3.org/2000/svg" xmlns:xlink="http://www.w3.org/1999/xlink" x="0px" y="0px" width="500px" height="500px"
	 viewBox="177 0 500 500" enable-background="new 177 0 500 500" xml:space="preserve">
<metadata>
	<sfw  xmlns="&ns_sfw;">
		<slices></slices>
		<sliceSourceBounds  width="500" height="500" y="0.5" x="176.5" bottomLeftOrigin="true"></sliceSourceBounds>
	</sfw>
</metadata>
<title>TARGET 1.1</title>
<g id="TARGETS">
	<g>
		<rect x="177" y="0" fill="#00689D" width="500" height="500"/>
	</g>
	<g>
		<g>
			<path fill="#FFFFFF" d="M624.785,233.65c-2.11-51.688-15.296-64.346-15.296-64.346c-2.109-2.11-4.747-3.692-7.911-3.692
				l-250-4.219c1.055,3.691,0.527,7.911-0.527,11.603l-19.515,50.634c-0.527,1.055-1.055,2.637-2.109,3.691l59.599,1.582
				c1.582,0.527,3.692,7.385,3.692,7.385c4.219,18.459,18.987,40.084,43.249,44.304c4.747,1.055,9.494,1.055,14.241,1.055
				c10.548,0,21.097-1.582,31.646-4.22c0.527,0,1.582-0.527,2.109-0.527c1.055,0,2.109,0.527,2.638,1.582
				c17.932,18.987,20.569,109.705,20.569,109.705c0,5.273,2.637,6.329,3.691,6.329h0.527l91.245-1.583
				c5.802-0.527,3.692-6.856,3.692-6.856s-20.043-89.135-25.316-106.54c-5.274-17.404,3.164-24.789,3.164-24.789
				c12.131-10.548,36.92-15.822,36.92-15.822C625.313,238.397,624.785,233.65,624.785,233.65z M488.182,251.055
				c0,0,0.527,22.151-34.283,22.151c-2.637,0-5.802,0-8.438-0.527c-43.249-3.691-44.304-37.447-44.304-42.193
				c0-1.583,0-16.878,22.679-16.878c4.22,0,8.439,0.527,12.659,1.055c0,0,10.548,6.856,8.966,29.536c0,0-2.637,14.24-7.911,19.515
				c0,0-0.527,1.582,0.527,1.582c0.527,0,1.582-0.527,2.109-0.527c8.967-3.692,16.351-11.076,20.042-20.042
				c3.692-8.438,4.22-18.46,1.055-26.898l4.747,1.055C466.029,218.882,490.818,226.793,488.182,251.055z"/>
		</g>
		<g>
			<path fill="#FFFFFF" d="M339.975,161.393l-14.768-25.317c-0.527-0.527-1.055-1.055-1.582-1.055l-18.987-9.493l-4.747-1.582
				l-3.165,30.59v0.528c0,1.055-0.527,2.637-0.527,4.746v0.527l0,0c-1.582,13.186-3.692,25.845-6.856,38.503
				c0,1.055-0.527,2.109-1.055,3.164c-0.528,1.055-1.055,2.637-1.583,3.692v0.527c0,0,0,0.527-0.527,0.527
				c-0.527,1.055-1.055,2.109-1.583,2.637l-0.527,0.527c-2.637,3.692-6.856,6.856-11.603,7.912l5.801,6.856
				c0.528,0.527,1.583,1.582,2.637,1.582l11.076,3.691c1.055,0.528,2.11,0.528,3.165,0l18.987-4.219
				c2.637-0.527,5.274-2.638,6.329-5.274l19.515-50.105C342.084,166.666,341.557,163.502,339.975,161.393z"/>
		</g>
		<g>
			<path fill="#FFFFFF" d="M277.738,200.422c3.165-6.856,6.329-27.427,7.912-41.667l-47.468-1.582l-0.528,0.527l4.747,23.207
				l22.152,25.316C270.354,207.279,275.101,204.641,277.738,200.422z"/>
		</g>
		<g>
			<polygon fill="#FFFFFF" points="287.232,148.206 290.396,122.363 280.903,106.54 229.743,113.397 243.983,146.624 			"/>
		</g>
	</g>
</g>
</svg>
