<?xml version="1.0" encoding="utf-8"?>
<!-- Generator: Adobe Illustrator 16.0.3, SVG Export Plug-In . SVG Version: 6.00 Build 0)  -->
<!DOCTYPE svg PUBLIC "-//W3C//DTD SVG 1.1//EN" "http://www.w3.org/Graphics/SVG/1.1/DTD/svg11.dtd" [
	<!ENTITY ns_extend "http://ns.adobe.com/Extensibility/1.0/">
	<!ENTITY ns_ai "http://ns.adobe.com/AdobeIllustrator/10.0/">
	<!ENTITY ns_graphs "http://ns.adobe.com/Graphs/1.0/">
	<!ENTITY ns_vars "http://ns.adobe.com/Variables/1.0/">
	<!ENTITY ns_imrep "http://ns.adobe.com/ImageReplacement/1.0/">
	<!ENTITY ns_sfw "http://ns.adobe.com/SaveForWeb/1.0/">
	<!ENTITY ns_custom "http://ns.adobe.com/GenericCustomNamespace/1.0/">
	<!ENTITY ns_adobe_xpath "http://ns.adobe.com/XPath/1.0/">
]>
<svg version="1.1" id="Layer_1" xmlns:x="&ns_extend;" xmlns:i="&ns_ai;" xmlns:graph="&ns_graphs;"
	 xmlns="http://www.w3.org/2000/svg" xmlns:xlink="http://www.w3.org/1999/xlink" x="0px" y="0px" width="320.054px"
	 height="320.054px" viewBox="266.804 81.027 320.054 320.054" enable-background="new 266.804 81.027 320.054 320.054"
	 xml:space="preserve">
<metadata>
	<sfw  xmlns="&ns_sfw;">
		<slices></slices>
		<sliceSourceBounds  width="320.054" height="320.054" y="99.42" x="266.304" bottomLeftOrigin="true"></sliceSourceBounds>
	</sfw>
</metadata>
<title>TARGET 1 B copy 13</title>
<g id="TARGETS">
	<g>
		<rect x="266.804" y="81.027" fill="#0A97D9" width="320.054" height="320.054"/>
	</g>
	<g>
		<g>
			<path fill="#FFFFFF" d="M427.169,348.413c-1.351-2.026-10.128-13.167-22.62-13.167c-10.803,0-22.282,9.791-22.282,9.791
				c-2.701-5.064-7.427-8.778-13.167-9.791h-0.338c-0.337,0-0.337,0.338-0.337,0.338v0.337c2.363,3.714,3.714,8.103,4.051,12.829
				c-0.337,4.39-1.688,8.778-4.051,12.492l0,0c0,0,0,0,0,0.337c0,0.338,0,0.338,0.337,0.338l0,0
				c5.74-1.013,10.466-4.727,13.167-9.791c0,0,11.479,9.791,22.282,9.791C416.703,361.917,425.818,350.439,427.169,348.413
				L427.169,348.413L427.169,348.413L427.169,348.413z M411.301,350.101c-2.026,0-3.714-1.688-3.714-3.714
				c0-2.025,1.688-3.713,3.714-3.713c2.025,0,3.713,1.688,3.713,3.713C415.015,348.413,413.327,350.101,411.301,350.101z"/>
		</g>
		<g>
			<g>
				<path fill="#FFFFFF" d="M360.322,348.413c-1.351-2.026-10.128-13.167-22.62-13.167c-10.803,0-22.282,9.791-22.282,9.791
					c-2.701-5.064-7.427-8.778-13.167-9.791h-0.338c-0.337,0-0.337,0.338-0.337,0.338v0.337c2.363,3.714,3.713,8.103,4.051,12.829
					c-0.338,4.39-1.688,8.778-4.051,12.829l0,0c0,0,0,0,0,0.338s0,0.338,0.337,0.338h0.338c5.739-1.013,10.466-4.727,13.167-9.791
					c0,0,11.479,9.791,22.282,9.791c12.492,0,21.27-11.142,22.62-13.167l0,0C360.322,348.75,360.322,348.75,360.322,348.413
					L360.322,348.413z M344.455,350.101c-2.026,0-3.714-1.688-3.714-3.714c0-2.025,1.688-3.713,3.714-3.713
					c2.025,0,3.713,1.688,3.713,3.713C348.168,348.413,346.48,350.101,344.455,350.101L344.455,350.101L344.455,350.101z"/>
			</g>
			<g>
				<path fill="#FFFFFF" d="M492.665,348.413c-1.351-2.026-10.128-13.167-22.62-13.167c-10.803,0-22.282,9.791-22.282,9.791
					c-2.7-5.064-7.427-8.778-13.166-9.791h-0.338c-0.338,0-0.338,0.338-0.338,0.338v0.337c2.363,3.714,3.714,8.103,4.052,12.829
					c-0.338,4.39-1.688,8.778-4.052,12.829l0,0c0,0,0,0,0,0.338s0,0.338,0.338,0.338h0.338c5.739-1.013,10.466-4.727,13.166-9.791
					c0,0,11.479,9.791,22.282,9.791c12.492,0,21.27-11.142,22.62-13.167l0,0C492.665,348.75,492.665,348.75,492.665,348.413
					L492.665,348.413z M476.798,350.101c-2.026,0-3.714-1.688-3.714-3.714c0-2.025,1.688-3.713,3.714-3.713
					c2.025,0,3.713,1.688,3.713,3.713l0,0C480.511,348.413,478.823,350.101,476.798,350.101z"/>
			</g>
			<g>
				<path fill="#FFFFFF" d="M558.837,348.413c-1.351-2.026-10.129-13.167-22.62-13.167c-10.804,0-22.282,9.791-22.282,9.791
					c-2.701-5.064-7.428-8.778-13.167-9.791h-0.337c-0.338,0-0.338,0.338-0.338,0.338v0.337c2.363,3.714,3.714,8.103,4.051,12.829
					c-0.337,4.39-1.688,8.778-4.051,12.829l0,0c0,0,0,0,0,0.338s0,0.338,0.338,0.338l0,0c5.739-1.013,10.466-4.727,13.166-9.791
					c0,0,11.479,9.791,22.282,9.791c12.492,0,21.27-11.142,22.62-13.167l0,0C558.837,348.75,558.837,348.75,558.837,348.413
					L558.837,348.413z M543.307,350.101c-2.025,0-3.714-1.688-3.714-3.714c0-2.025,1.688-3.713,3.714-3.713s3.714,1.688,3.714,3.713
					C546.683,348.413,545.332,350.101,543.307,350.101L543.307,350.101z"/>
			</g>
			<g>
				<g>
					<path fill="#FFFFFF" d="M512.922,254.896c-3.714,0-6.752,3.038-6.752,6.752s3.038,6.752,6.752,6.752s6.752-3.038,6.752-6.752
						S516.636,254.896,512.922,254.896z"/>
				</g>
				<g>
					<path fill="#FFFFFF" d="M411.639,203.241v45.914h56.719l3.714-10.466h65.496v-7.427h-43.89l6.077-27.685L411.639,203.241z
						 M459.917,230.25h-17.894v-21.607h17.894V230.25z M486.251,230.25h-22.282v-21.607h26.671L486.251,230.25z"/>
				</g>
				<g>
					<rect x="411.639" y="191.762" fill="#FFFFFF" width="79.676" height="8.44"/>
				</g>
				<g>
					<path fill="#FFFFFF" d="M474.771,242.066l-4.051,11.479h-61.445v-86.429h3.714v-3.038h-3.714v-43.552h-2.363v43.214h-4.051
						v3.039h2.701c-34.437,18.23-91.155,10.128-108.373,5.739h-0.337l-0.675,2.025l0,0l0,0l0,0l0,0v6.077h-0.337v3.038h0.337v2.026
						c-0.675,1.013-1.351,2.025-1.351,3.376c0,1.013,0.338,1.688,0.675,2.363c0.338,0.337,1.013,0.675,1.351,0.675l0,0
						c1.351,0,2.363-1.351,2.025-2.363l0,0v-0.675h-1.013v0.675c0,0.675-0.337,1.351-1.013,1.351l0,0c-0.338,0-0.338,0-0.675-0.338
						c-0.337-0.337-0.337-1.013-0.337-1.688c0.337-1.013,0.675-2.026,1.35-2.701l0,0v-2.363h0.338v-3.038h-0.338v-3.377l2.026,1.351
						l47.265,66.51c0,0.675-0.337,1.688-0.337,2.363l0,0h-19.582l7.09,43.889c10.128-1.351,19.582-6.077,26.671-13.167
						c0.337-0.337,0.337-0.337,0.675-0.675c0.338,0,0.338,0,0.675,0h0.338c0.337,0,0.675,0.338,0.675,0.675
						c6.752,5.064,38.15,26.334,65.834,0.338l0.337-0.338c0.338-0.337,0.676-0.337,1.014-0.337c0.337,0,0.675,0.337,1.013,0.337
						l0.337,0.338c28.022,25.996,59.082,4.727,65.834-0.338c0.338-0.337,0.338-0.337,0.676-0.675h0.337c0.338,0,0.338,0,0.676,0
						l0.675,0.675c6.752,6.753,15.192,11.142,24.646,12.83l24.646-49.629L474.771,242.066z M347.493,243.079l-40.513-56.719
						l46.928,50.304C350.869,238.015,348.843,240.378,347.493,243.079z M383.279,253.545h-4.389l-1.013-5.402h-7.428l0,0
						c0-6.414-5.064-11.816-11.479-12.153V223.16h3.714v-2.363h-10.128v2.363h3.714v13.166h-0.338l-57.394-61.782
						c18.906,4.389,73.261,11.816,107.36-6.077l-0.675,7.09l-11.479,77.988H383.279z M406.912,253.545h-12.154l12.154-81.702
						V253.545z M512.922,271.776c-5.739,0-10.129-4.389-10.129-10.128s4.39-10.129,10.129-10.129s10.128,4.39,10.128,10.129
						S518.661,271.776,512.922,271.776z"/>
				</g>
			</g>
			<g>
				<path fill="#FFFFFF" d="M559.512,298.784c0-0.675-0.675-1.351-1.351-1.351h-0.337l-0.676,0.338
					c-18.568,10.128-41.188,7.09-56.381-7.765l-0.675-0.676c-0.338,0-0.338,0-0.676,0h-0.675c-0.338,0-0.675,0.338-0.675,0.676
					c-6.753,5.401-38.15,26.333-65.834,0.337h-0.676c-0.338-0.337-0.675-0.337-1.013-0.337s-0.675,0.337-1.013,0.337h-0.338
					c-27.684,25.996-59.082,4.727-65.834-0.337c-0.337-0.338-0.337-0.338-0.675-0.676h-0.338c-0.337,0-0.337,0-0.675,0
					c0,0.338-0.337,0.676-0.675,1.013c-14.854,14.518-37.812,17.894-56.043,7.766l-0.675-0.338h-1.351
					c-0.675,0-1.35,0.675-1.35,1.351c0,0,0,0,0,0.337v10.804c0,0.338,0,0.676,0.337,1.013c26.333,22.958,51.317,1.351,57.394-4.389
					c0-0.338,0.338-0.338,0.338-0.338c0.337-0.337,0.675-0.337,0.675-0.337c0.337,0,0.675,0,1.013,0.337l0,0
					c29.709,28.359,61.107,5.402,67.521,0l0.676-0.675c0.338,0,0.338,0,0.675,0c0.338,0,0.338,0,0.676,0l0.675,0.675
					c6.415,5.402,37.813,28.359,67.522,0l0,0c0.337-0.337,0.675-0.337,1.013-0.337s0.675,0,0.675,0.337
					c0.338,0,0.338,0.338,0.338,0.338c5.739,5.739,30.723,27.347,57.394,4.389c0.338-0.337,0.338-0.675,0.338-1.013L559.512,298.784
					C559.512,299.122,559.512,299.122,559.512,298.784z"/>
			</g>
		</g>
	</g>
</g>
</svg>
