<?xml version="1.0" encoding="utf-8"?>
<!-- Generator: Adobe Illustrator 16.0.3, SVG Export Plug-In . SVG Version: 6.00 Build 0)  -->
<!DOCTYPE svg PUBLIC "-//W3C//DTD SVG 1.1//EN" "http://www.w3.org/Graphics/SVG/1.1/DTD/svg11.dtd" [
	<!ENTITY ns_extend "http://ns.adobe.com/Extensibility/1.0/">
	<!ENTITY ns_ai "http://ns.adobe.com/AdobeIllustrator/10.0/">
	<!ENTITY ns_graphs "http://ns.adobe.com/Graphs/1.0/">
	<!ENTITY ns_vars "http://ns.adobe.com/Variables/1.0/">
	<!ENTITY ns_imrep "http://ns.adobe.com/ImageReplacement/1.0/">
	<!ENTITY ns_sfw "http://ns.adobe.com/SaveForWeb/1.0/">
	<!ENTITY ns_custom "http://ns.adobe.com/GenericCustomNamespace/1.0/">
	<!ENTITY ns_adobe_xpath "http://ns.adobe.com/XPath/1.0/">
]>
<svg version="1.1" id="Layer_1" xmlns:x="&ns_extend;" xmlns:i="&ns_ai;" xmlns:graph="&ns_graphs;"
	 xmlns="http://www.w3.org/2000/svg" xmlns:xlink="http://www.w3.org/1999/xlink" x="0px" y="0px" width="500px" height="500px"
	 viewBox="177 0 500 500" enable-background="new 177 0 500 500" xml:space="preserve">
<metadata>
	<sfw  xmlns="&ns_sfw;">
		<slices></slices>
		<sliceSourceBounds  width="500" height="500" y="0.5" x="176.5" bottomLeftOrigin="true"></sliceSourceBounds>
	</sfw>
</metadata>
<title>Artboard 1</title>
<rect x="177" y="0" fill="#FD9D24" width="500" height="500"/>
<path fill="#FFFFFF" d="M323.275,83.2c7,0,10-4,10-9.586v-2c0-4.5-1.81-6.81-5.545-10.609l-4.4-4.34c-2-1.931-3.25-3.255-3.25-5.556
	v-0.835c0-2.295,1.325-3.38,3.25-3.38c2.165,0,3.255,1.146,3.255,3.5v3.55h6.265v-3.31c0-5.905-2.705-9.285-9.58-9.285
	c-6.695,0-9.645,3.92-9.645,9v1.396c0,4.694,1.81,7.05,5.725,10.904l4.035,4.051c2.11,2,3.075,3.43,3.075,5.779v1.565
	c0,2.175-0.965,3.62-3.13,3.62c-2.35,0-3.375-1.325-3.375-3.62v-5.601h-6.375v5.5c0,5.365,2.705,9.285,9.695,9.285"/>
<path fill="#FFFFFF" d="M356.235,72.77V41.835h-6.33V73.43c0,2.415-0.965,4.035-3.38,4.035s-3.37-1.62-3.37-4.035V41.835h-6.875
	V72.77c0,6.33,3,10.431,10.245,10.431C353.525,83.2,356.235,79.1,356.235,72.77"/>
<path fill="#FFFFFF" d="M379.44,73.615v-2c0-4.5-1.815-6.81-5.54-10.609l-4.4-4.34c-2-1.926-3.26-3.255-3.26-5.54V50.28
	c0-2.295,1.335-3.38,3.26-3.38c2.17,0,3.25,1.141,3.25,3.5v3.551H379V50.64c0-5.915-2.705-9.285-9.58-9.285
	c-6.69,0-9.645,3.92-9.645,9v1.385c0,4.7,1.815,7.056,5.735,10.915l4.03,4.046c2.11,2,3.07,3.43,3.07,5.779v1.575
	c0,2.16-0.96,3.615-3.13,3.615c-2.35,0-3.375-1.33-3.375-3.615v-5.63h-6.37v5.5c0,5.365,2.705,9.28,9.7,9.28s10-4,10-9.585"/>
<polygon fill="#FFFFFF" points="399.365,41.835 381.105,41.835 381.105,47.445 386.765,47.445 386.765,82.72 393.7,82.72 
	393.7,47.445 399.365,47.445 "/>
<path fill="#FFFFFF" d="M413.615,41.835h-7.835l-7.715,40.88h6.5l1.205-7.47h7.29l1.27,7.47h7.055L413.615,41.835z M406.69,69.755
	l2.705-16.4h0.065l2.715,16.4H406.69z"/>
<rect x="424.165" y="41.84" fill="#FFFFFF" width="6.87" height="40.885"/>
<polygon fill="#FFFFFF" points="454.85,82.72 454.85,41.835 449.125,41.835 449.125,65.285 441.705,41.835 434.955,41.835 
	434.955,82.72 440.745,82.72 440.745,57.03 448.815,82.72 "/>
<path fill="#FFFFFF" d="M464.785,75.24h7.295l1.26,7.5h7.05l-7.77-40.904h-7.835l-7.715,40.88h6.5L464.785,75.24z M468.395,53.35
	h0.065l2.72,16.405h-5.5L468.395,53.35z"/>
<path fill="#FFFFFF" d="M501.715,55v-4.155c0-5.79-2.285-9-9.16-9h-9.95V82.73h10.671c6.875,0,9.46-3.194,9.46-9v-5.42
	c0-3.74-1.681-6.035-5.12-6.814c2.835-0.905,4.1-3.075,4.1-6.5 M489.5,47.445h2.355c2.284,0,3.314,1.08,3.314,3.315v5
	c0,2.175-1.03,3.32-3.26,3.32h-2.41V47.445z M495.885,73.795c0,2.17-1.08,3.319-3.37,3.319h-3V64.33h2.95
	c2.41,0,3.436,1.145,3.436,3.31L495.885,73.795z"/>
<polygon fill="#FFFFFF" points="512.435,41.835 505.565,41.835 505.565,82.72 520.625,82.72 520.625,77.11 512.435,77.11 "/>
<polygon fill="#FFFFFF" points="539.545,47.445 539.545,41.835 523.15,41.835 523.15,82.72 539.545,82.72 539.545,77.11 
	530.021,77.11 530.021,64.685 536.83,64.685 536.83,59.145 530.021,59.145 530.021,47.445 "/>
<path fill="#FFFFFF" d="M561.345,83.2c7.295,0,9.71-4.341,9.71-10.19v-7.055h-6.274V73.5c0,2.399-0.846,3.97-3.315,3.97
	s-3.5-1.745-3.5-4.22V51.305c0-2.5,1-4.225,3.5-4.225s3.315,1.444,3.315,4v5.37h6.274v-4.825c0-6.035-2.114-10.255-9.71-10.255
	c-7.229,0-10.245,4.64-10.245,11.029v19.785c0,6.33,3,11.03,10.245,11.03"/>
<rect x="574.28" y="41.84" fill="#FFFFFF" width="6.865" height="40.885"/>
<polygon fill="#FFFFFF" points="596.375,82.72 596.375,47.445 602.03,47.445 602.03,41.835 583.775,41.835 583.775,47.445 
	589.435,47.445 589.435,82.72 "/>
<rect x="604.715" y="41.84" fill="#FFFFFF" width="6.865" height="40.885"/>
<polygon fill="#FFFFFF" points="615.12,82.72 631.51,82.72 631.51,77.11 621.99,77.11 621.99,64.685 628.79,64.685 628.79,59.145 
	621.99,59.145 621.99,47.445 631.51,47.445 631.51,41.835 615.12,41.835 "/>
<path fill="#FFFFFF" d="M643.155,56.67c-2-1.936-3.245-3.255-3.245-5.556V50.28c0-2.295,1.319-3.38,3.245-3.38
	c2.18,0,3.255,1.146,3.255,3.5v3.556h6.274V50.64c0-5.915-2.715-9.285-9.59-9.285c-6.689,0-9.635,3.92-9.635,9v1.396
	c0,4.694,1.8,7.05,5.72,10.904l4.035,4.051c2.12,2,3.08,3.43,3.08,5.779v1.565c0,2.175-0.96,3.62-3.14,3.62
	c-2.351,0-3.375-1.325-3.375-3.62v-5.6h-6.385v5.5c0,5.364,2.709,9.284,9.699,9.284s10-4,10-9.585v-2c0-4.5-1.824-6.81-5.55-10.609
	L643.155,56.67z"/>
<path fill="#FFFFFF" d="M321.395,101.845l-7.715,40.875h6.5l1.205-7.475h7.29l1.27,7.475H337l-7.775-40.875H321.395z M322.3,129.76
	l2.71-16.4h0.065l2.705,16.4H322.3z"/>
<polygon fill="#FFFFFF" points="354.61,125.295 347.195,101.845 340.445,101.845 340.445,142.725 346.235,142.725 346.235,117.03 
	354.305,142.725 360.335,142.725 360.335,101.845 354.61,101.845 "/>
<path fill="#FFFFFF" d="M375.47,101.835h-10.61v40.89h10.61c7.355,0,9.94-4.7,9.94-10.975v-18.936c0-6.33-2.585-11-9.94-11
	 M378.54,132.935c0,2.47-1.085,4.16-3.915,4.16h-2.9V107.45h2.9c2.83,0,3.915,1.685,3.915,4.095V132.935z"/>
<path fill="#FFFFFF" d="M407.115,101.36c-7.235,0-10.25,4.641-10.25,11.035v19.78c0,6.325,3,11.03,10.25,11.03s9.7-4.346,9.7-10.195
	v-7.05h-6.27v7.54c0,2.415-0.84,4-3.305,4c-2.465,0-3.5-1.745-3.5-4.221V111.33c0-2.471,1.03-4.221,3.5-4.221
	c2.47,0,3.305,1.445,3.305,4v5.365h6.27v-4.825c0-6.029-2.105-10.245-9.7-10.245"/>
<path fill="#FFFFFF" d="M431.535,101.36c-7.24,0-10.37,4.641-10.37,11.035v19.78c0,6.325,3.13,11.03,10.37,11.03
	s10.42-4.705,10.42-11.03v-19.78C441.955,106,438.825,101.36,431.535,101.36 M435.085,133.255c0,2.475-1.085,4.22-3.55,4.22
	s-3.5-1.745-3.5-4.22v-21.95c0-2.47,1.075-4.22,3.5-4.22s3.55,1.75,3.55,4.22V133.255z"/>
<polygon fill="#FFFFFF" points="459.015,124.875 458.955,124.875 454.5,101.835 446.485,101.835 446.485,142.72 452.145,142.72 
	452.145,116.19 452.265,116.19 457.39,142.72 460.58,142.72 465.225,116.19 465.405,116.19 465.405,142.72 471.675,142.72 
	471.675,101.835 462.995,101.835 "/>
<polygon fill="#FFFFFF" points="488.74,124.875 488.68,124.875 484.22,101.835 476.2,101.835 476.2,142.72 481.87,142.72 
	481.87,116.19 481.985,116.19 487.105,142.72 490.305,142.72 494.94,116.19 495.125,116.19 495.125,142.72 501.39,142.72 
	501.39,101.835 492.715,101.835 "/>
<path fill="#FFFFFF" d="M519.535,133.435c0,2.415-0.955,4.05-3.37,4.05s-3.375-1.635-3.375-4.05v-31.59h-6.875v30.92
	c0,6.34,3,10.44,10.25,10.44c7,0,9.7-4.101,9.7-10.44v-30.92h-6.33V133.435z"/>
<polygon fill="#FFFFFF" points="544.565,125.295 537.14,101.845 530.396,101.845 530.396,142.725 536.185,142.725 536.185,117.03 
	544.255,142.725 550.28,142.725 550.28,101.845 544.565,101.845 "/>
<polygon fill="#FFFFFF" points="212.825,60.195 212.825,77.885 212.97,77.885 224.865,65.545 225.02,65.545 225.02,142.715 
	241.97,142.715 241.97,41.9 228.435,41.9 "/>
<polygon fill="#FFFFFF" points="251.485,60.195 251.485,77.885 251.635,77.885 263.53,65.545 263.675,65.545 263.675,142.715 
	280.63,142.715 280.63,41.9 267.105,41.9 "/>
<rect x="554.82" y="101.835" fill="#FFFFFF" width="6.87" height="40.885"/>
<polygon fill="#FFFFFF" points="565.43,107.445 571.095,107.445 571.095,142.72 578.025,142.72 578.025,107.445 583.69,107.445 
	583.69,101.835 565.43,101.835 "/>
<rect x="587.49" y="101.835" fill="#FFFFFF" width="6.875" height="40.885"/>
<polygon fill="#FFFFFF" points="598.95,142.72 615.345,142.72 615.345,137.115 605.815,137.115 605.815,124.695 612.63,124.695 
	612.63,119.145 605.815,119.145 605.815,107.445 615.345,107.445 615.345,101.835 598.95,101.835 "/>
<path fill="#FFFFFF" d="M628.665,116.675c-2-1.936-3.255-3.26-3.255-5.545v-0.851c0-2.295,1.325-3.375,3.255-3.375
	c2.17,0,3.25,1.146,3.25,3.5v3.561h6.275v-3.32c0-5.91-2.716-9.28-9.586-9.28c-6.694,0-9.645,3.921-9.645,9v1.386
	c0,4.7,1.811,7.055,5.73,10.91l4.04,4.045c2.104,2,3.069,3.435,3.069,5.784v1.57c0,2.17-0.965,3.62-3.135,3.62
	c-2.35,0-3.375-1.325-3.375-3.62v-5.625h-6.39v5.5c0,5.365,2.71,9.285,9.704,9.285c6.995,0,10-4,10-9.58v-2
	c0-4.5-1.81-6.805-5.545-10.61L628.665,116.675z"/>
<g>
	<g>
		<path fill="#FFFFFF" d="M259.5,380.655h75.19c1.014,0.007,1.84-0.81,1.847-1.822c0.003-0.466-0.171-0.915-0.487-1.258
			l-0.105-0.109l-37.42-48.41l-0.365-0.405c-0.349-0.383-0.842-0.601-1.36-0.6c-0.447,0.009-0.876,0.177-1.21,0.475l-0.225,0.26
			l-0.355,0.396l-36.5,47.905l-0.56,0.685c-0.207,0.304-0.316,0.663-0.315,1.03c0,1.024,0.831,1.854,1.855,1.854
			C259.493,380.655,259.497,380.655,259.5,380.655z"/>
		<path fill="#FFFFFF" d="M334.46,387.5H259.1c-1.019,0-1.845,0.825-1.845,1.845l0,0v58.95c-0.002,1.021,0.823,1.852,1.845,1.854
			l0,0h24.255v-37.104c-0.003-1.017,0.819-1.843,1.835-1.846c0.003,0,0.007,0,0.01,0h22.5c1.016-0.003,1.842,0.819,1.845,1.835
			c0,0.004,0,0.007,0,0.011v37.104h24.9c1.022-0.003,1.848-0.833,1.845-1.854l0,0v-58.971
			C336.279,388.32,335.465,387.508,334.46,387.5z"/>
	</g>
	<path fill="#FFFFFF" d="M594.915,372.039H520.33c-0.991-0.017-1.809,0.773-1.825,1.765c0,0.004,0,0.008,0,0.011v75.315
		c0.017,0.992,0.833,1.783,1.825,1.77h74.585c0.994,0.017,1.813-0.775,1.83-1.77l0,0v-75.315c-0.011-0.991-0.823-1.786-1.814-1.775
		C594.925,372.039,594.92,372.039,594.915,372.039 M554.104,421.21c-0.011,0.993-0.825,1.791-1.819,1.779l0,0H530
		c-0.997,0.015-1.816-0.782-1.83-1.779l0,0v-13.54c0.011-0.994,0.825-1.791,1.819-1.78c0.004,0,0.008,0,0.011,0h22.285
		c0.991-0.014,1.806,0.778,1.819,1.77c0,0.004,0,0.007,0,0.011V421.21z M554.104,396.18c-0.011,0.994-0.825,1.791-1.819,1.78l0,0
		H530c-0.997,0.014-1.816-0.783-1.83-1.78l0,0v-13.55c0.02-0.993,0.837-1.784,1.83-1.771h22.285c0.991-0.014,1.806,0.778,1.819,1.77
		v0.001V396.18z M588.165,421.21c-0.011,0.993-0.825,1.791-1.819,1.779c-0.004,0-0.007,0-0.011,0H564.06
		c-0.993,0.017-1.813-0.775-1.829-1.77c0-0.003,0-0.007-0.001-0.01v-13.54c0.012-0.994,0.826-1.791,1.82-1.78
		c0.003,0,0.007,0,0.01,0h22.275c0.994-0.017,1.813,0.775,1.83,1.77c0,0.004,0,0.007,0,0.011V421.21z M588.165,396.18
		c-0.011,0.994-0.825,1.791-1.819,1.78c-0.004,0-0.007,0-0.011,0H564.06c-0.993,0.017-1.813-0.776-1.829-1.771
		c0-0.003,0-0.007-0.001-0.01v-13.55c0.017-0.994,0.836-1.787,1.83-1.771l0,0h22.275c0.994-0.017,1.813,0.775,1.83,1.77
		c0,0,0,0,0,0.001V396.18z"/>
	<path fill="#FFFFFF" d="M421.53,197.22h-73c-0.986,0.003-1.783,0.804-1.78,1.79l0,0v249.45c0.003,0.982,0.797,1.779,1.78,1.784h73
		c0.986-0.002,1.786-0.799,1.795-1.784V199c-0.003-0.989-0.806-1.79-1.795-1.79 M378.11,421.824c0,0.53-0.43,0.96-0.96,0.96h-16.71
		c-0.53,0-0.96-0.43-0.96-0.96v-18.62c0-0.527,0.428-0.954,0.955-0.954c0.001,0,0.003,0,0.005,0h16.71
		c0.527-0.003,0.958,0.422,0.96,0.949c0,0.002,0,0.004,0,0.005V421.824z M378.11,379.05c-0.002,0.527-0.433,0.952-0.96,0.95l0,0
		h-16.71c-0.52-0.009-0.938-0.431-0.94-0.95v-18.615c-0.003-0.527,0.422-0.957,0.95-0.96c0.003,0,0.006,0,0.01,0h16.69
		c0.527-0.003,0.958,0.423,0.96,0.95c0,0.003,0,0.007,0,0.01V379.05z M378.11,336.284c0,0.53-0.43,0.96-0.96,0.96h-16.71
		c-0.53,0-0.96-0.43-0.96-0.96v-18.63c0.003-0.528,0.432-0.955,0.96-0.955h16.71c0.528,0,0.958,0.427,0.96,0.955V336.284z
		 M378.11,293.51c0,0.53-0.43,0.96-0.96,0.96h-16.71c-0.526-0.011-0.946-0.443-0.94-0.97v-18.62c0.003-0.524,0.43-0.948,0.955-0.945
		c0.001,0,0.003,0,0.005,0h16.69c0.525-0.005,0.955,0.415,0.96,0.94c0,0.001,0,0.003,0,0.005V293.51z M378.11,250.745
		c-0.002,0.528-0.432,0.955-0.96,0.955h-16.71c-0.528,0-0.957-0.427-0.96-0.955v-18.631c0-0.529,0.43-0.96,0.96-0.96l0,0h16.71
		c0.53,0,0.96,0.431,0.96,0.96l0,0V250.745z M410.885,421.824c0,0.53-0.43,0.96-0.96,0.96c-0.001,0-0.003,0-0.005,0h-16.705
		c-0.527,0.003-0.957-0.422-0.96-0.949c0-0.004,0-0.007,0-0.011v-18.62c0-0.527,0.428-0.954,0.955-0.954c0.002,0,0.003,0,0.005,0
		h16.705c0.527-0.006,0.959,0.417,0.965,0.944c0,0.004,0,0.007,0,0.01V421.824z M410.885,379.05c0.003,0.527-0.422,0.957-0.95,0.96
		c-0.005,0-0.01,0-0.015,0h-16.705c-0.524,0.005-0.954-0.415-0.96-0.94c0-0.007,0-0.013,0-0.02v-18.615
		c-0.005-0.524,0.416-0.954,0.94-0.96c0.007,0,0.014,0,0.02,0h16.705c0.527-0.006,0.959,0.417,0.965,0.945c0,0.005,0,0.01,0,0.015
		V379.05z M410.885,336.284c0,0.53-0.43,0.96-0.96,0.96c-0.001,0-0.003,0-0.005,0h-16.705c-0.527,0.003-0.957-0.422-0.96-0.949
		c0-0.004,0-0.007,0-0.011v-18.63c0-0.527,0.428-0.955,0.955-0.955c0.002,0,0.003,0,0.005,0h16.705
		c0.53-0.003,0.962,0.425,0.965,0.955l0,0V336.284z M410.885,293.51c0,0.53-0.43,0.96-0.96,0.96c-0.001,0-0.003,0-0.005,0h-16.705
		c-0.527,0.003-0.957-0.423-0.96-0.95c0-0.003,0-0.007,0-0.01v-18.63c0.003-0.524,0.43-0.948,0.955-0.945c0.001,0,0.003,0,0.005,0
		h16.705c0.525-0.008,0.957,0.41,0.965,0.935c0,0.004,0,0.007,0,0.011V293.51z M410.885,250.745
		c-0.002,0.53-0.435,0.957-0.965,0.955l0,0h-16.705c-0.527,0.002-0.957-0.423-0.96-0.95c0-0.002,0-0.004,0-0.005v-18.631
		c-0.003-0.527,0.423-0.957,0.95-0.96c0.003,0,0.007,0,0.01,0h16.705c0.53-0.002,0.962,0.425,0.965,0.955c0,0.002,0,0.004,0,0.005
		V250.745z"/>
	<path fill="#FFFFFF" d="M596.66,364.46c0,0.828-0.672,1.5-1.5,1.5h-75.075c-0.828,0-1.5-0.672-1.5-1.5v-15
		c0-0.829,0.672-1.5,1.5-1.5h75.075c0.828,0,1.5,0.671,1.5,1.5V364.46z"/>
	<path fill="#FFFFFF" d="M509.7,244.325c-0.235-0.82-0.982-1.389-1.835-1.396c-0.375,0.01-0.738,0.13-1.045,0.345l-0.136,0.09
		l-0.614,0.78l-71.74,91L434,335.59c-0.385,0.374-0.609,0.883-0.625,1.42v111.825c0.003,0.985,0.804,1.782,1.79,1.779l0,0h72.92
		c0.983,0.003,1.782-0.792,1.785-1.774c0-0.002,0-0.004,0-0.005v-203.76C509.866,244.816,509.809,244.561,509.7,244.325z
		 M479.5,293.745l0.5-0.641c4.905-6.3,13.18-16.5,17.21-21.43l0.53-0.63c0.395-0.48,0.983-0.759,1.604-0.76
		c0.981,0.005,1.82,0.705,2,1.67V295c-0.005,1.11-0.89,2.018-2,2.05c-0.035,0-0.06,0-0.09,0s-0.06,0-0.095,0h-17.905
		c-0.035,0-0.06,0-0.09,0s-0.06,0-0.09,0c-1.109-0.035-1.992-0.94-2-2.05C479.076,294.546,479.226,294.106,479.5,293.745z
		 M468.15,421.195c0.002,0.983-0.792,1.782-1.775,1.785c-0.003,0-0.007,0-0.01,0h-21.76c-0.983,0.003-1.782-0.792-1.785-1.775
		c0-0.003,0-0.006,0-0.01v-13.615c0-0.982,0.797-1.779,1.779-1.779c0.002,0,0.004,0,0.006,0h21.755
		c0.982-0.003,1.782,0.792,1.785,1.774c0,0.002,0,0.004,0,0.005L468.15,421.195z M468.15,396.034
		c0.002,0.983-0.792,1.782-1.775,1.785c-0.003,0-0.007,0-0.01,0h-21.76c-0.983,0.003-1.782-0.792-1.785-1.774
		c0-0.004,0-0.007,0-0.011V382.42c-0.006-0.98,0.784-1.78,1.765-1.785c0.007,0,0.014,0,0.021,0h21.755
		c0.979-0.006,1.779,0.784,1.785,1.765c0,0.007,0,0.014,0,0.021L468.15,396.034z M468.15,370.875c0,0.982-0.797,1.779-1.78,1.779
		c-0.002,0-0.004,0-0.005,0h-21.76c-0.983,0.003-1.782-0.792-1.785-1.774c0-0.002,0-0.004,0-0.005v-13.62
		c-0.003-0.983,0.792-1.782,1.774-1.785c0.004,0,0.007,0,0.011,0h21.755c0.982-0.003,1.782,0.792,1.785,1.774
		c0,0.004,0,0.007,0,0.011L468.15,370.875z M468.21,315.74v30c-0.003,0.985-0.801,1.782-1.785,1.785h-21.75
		c-0.985,0.006-1.789-0.789-1.795-1.774c0-0.004,0-0.007,0-0.011v-3.774c0.008-0.228,0.054-0.452,0.135-0.665
		c0.031-0.073,0.068-0.144,0.11-0.21c0.046-0.084,0.1-0.162,0.16-0.235c0.05-0.085,0.135-0.195,0.2-0.29
		c2.779-4,15.33-19.439,20.6-25.9l0.53-0.64c0.395-0.479,0.983-0.756,1.604-0.755c0.979,0.007,1.816,0.704,2,1.665L468.21,315.74z
		 M501.4,421.195c0,0.986-0.8,1.785-1.785,1.785l0,0h-21.75c-0.986,0.006-1.79-0.789-1.795-1.775c0-0.003,0-0.006,0-0.01v-13.615
		c0.002-0.985,0.804-1.782,1.79-1.779c0.001,0,0.003,0,0.005,0h21.75c0.983,0,1.782,0.796,1.785,1.779V421.195z M501.4,396.034
		c0,0.986-0.8,1.785-1.785,1.785l0,0h-21.75c-0.986,0.006-1.79-0.789-1.795-1.774c0-0.004,0-0.007,0-0.011V382.42
		c-0.003-0.983,0.792-1.782,1.774-1.785c0.007,0,0.014,0,0.021,0h21.75c0.985,0,1.785,0.799,1.785,1.785l0,0V396.034z
		 M501.4,370.875c-0.006,0.982-0.803,1.776-1.785,1.779h-21.75c-0.986,0.006-1.79-0.789-1.795-1.774c0-0.002,0-0.004,0-0.005v-13.62
		c0-0.986,0.799-1.785,1.784-1.785c0.004,0,0.007,0,0.011,0h21.75c0.985,0,1.785,0.799,1.785,1.785l0,0V370.875z M501.4,345.71
		c-0.003,0.983-0.802,1.779-1.785,1.779h-21.75c-0.986,0.006-1.79-0.789-1.795-1.774c0-0.002,0-0.004,0-0.005v-13.615
		c0-0.986,0.799-1.785,1.784-1.785c0.004,0,0.007,0,0.011,0h21.75c0.985,0,1.785,0.799,1.785,1.785l0,0V345.71z M501.4,320.545
		c0,0.985-0.8,1.784-1.785,1.784l0,0h-21.75c-0.986,0.006-1.79-0.789-1.795-1.774c0-0.004,0-0.007,0-0.01V306.93
		c-0.003-0.986,0.794-1.787,1.779-1.79c0.005,0,0.011,0,0.016,0h21.75c0.985,0,1.785,0.799,1.785,1.785c0,0.001,0,0.003,0,0.005
		V320.545z"/>
</g>
</svg>
