<?xml version="1.0" encoding="utf-8"?>
<!-- Generator: Adobe Illustrator 16.0.3, SVG Export Plug-In . SVG Version: 6.00 Build 0)  -->
<!DOCTYPE svg PUBLIC "-//W3C//DTD SVG 1.1//EN" "http://www.w3.org/Graphics/SVG/1.1/DTD/svg11.dtd" [
	<!ENTITY ns_extend "http://ns.adobe.com/Extensibility/1.0/">
	<!ENTITY ns_ai "http://ns.adobe.com/AdobeIllustrator/10.0/">
	<!ENTITY ns_graphs "http://ns.adobe.com/Graphs/1.0/">
	<!ENTITY ns_vars "http://ns.adobe.com/Variables/1.0/">
	<!ENTITY ns_imrep "http://ns.adobe.com/ImageReplacement/1.0/">
	<!ENTITY ns_sfw "http://ns.adobe.com/SaveForWeb/1.0/">
	<!ENTITY ns_custom "http://ns.adobe.com/GenericCustomNamespace/1.0/">
	<!ENTITY ns_adobe_xpath "http://ns.adobe.com/XPath/1.0/">
]>
<svg version="1.1" id="Layer_1" xmlns:x="&ns_extend;" xmlns:i="&ns_ai;" xmlns:graph="&ns_graphs;"
	 xmlns="http://www.w3.org/2000/svg" xmlns:xlink="http://www.w3.org/1999/xlink" x="0px" y="0px" width="301.719px"
	 height="301.719px" viewBox="275.981 76.384 301.719 301.719" enable-background="new 275.981 76.384 301.719 301.719"
	 xml:space="preserve">
<metadata>
	<sfw  xmlns="&ns_sfw;">
		<slices></slices>
		<sliceSourceBounds  width="301.719" height="301.719" y="122.397" x="275.481" bottomLeftOrigin="true"></sliceSourceBounds>
	</sfw>
</metadata>
<title>TARGET 1.3</title>
<g id="TARGETS">
	<g>
		<rect x="275.981" y="76.384" fill="#FF3A21" width="301.719" height="301.719"/>
	</g>
	<g>
		<g>
			<path fill="#FFFFFF" d="M444.346,137.174c-1.592-0.318-3.183-0.637-5.093-0.637l4.774-6.365l10.821-15.277l-14.959-14.322
				h-26.098l-14.959,14.322l13.368,18.778l2.228,3.183h-2.228c-59.834,7.956-101.528,63.017-93.571,122.852
				c7.957,59.834,63.017,101.527,122.852,93.57c59.834-7.956,101.527-63.017,93.57-122.852
				C528.687,183.004,491.768,145.13,444.346,137.174L444.346,137.174z M332.952,245.067c0-51.878,42.011-94.207,94.208-94.207
				c22.915,0,45.194,8.593,62.699,23.87l-40.738,40.102c-2.229-3.183-5.729-5.41-9.549-5.41h-27.053
				c-8.275,0-12.094,9.866-12.094,9.866l-12.094,39.146c0,0-1.91,6.365,3.501,7.639c5.41,1.273,7.001-4.456,7.001-4.456
				l9.867-33.418c0,0,0.636-2.228,2.228-1.591c1.591,0.636,0.955,2.864,0.955,2.864l-8.593,31.509l-46.467,46.467
				C341.227,290.261,332.952,267.982,332.952,245.067z M426.841,339.274c-21.642,0-42.648-7.319-59.516-21.323l35.328-35.328h4.774
				v31.509l0,0c0,5.41,2.546,9.548,7.638,9.548s7.638-4.138,7.638-9.548v-31.509l3.183-14.958l-5.41,2.546l8.275-27.371
				l-3.501,20.369l6.047-2.546l-2.546,21.96c0,0.955,0,1.592,0,1.592v29.917c0,5.41,2.546,9.548,7.638,9.548
				c5.093,0,7.639-4.138,7.639-9.548l0,0v-31.509h10.503l-10.821-40.738l2.864-2.864l6.684,22.915c0,0,1.592,6.047,7.002,4.456
				c5.411-1.592,3.501-7.639,3.501-7.639l-8.593-28.008l44.876-44.876c32.781,40.103,26.734,99.3-13.686,132.082
				C469.808,331.636,448.802,339.274,426.841,339.274z"/>
		</g>
		<g>
			<path fill="#FFFFFF" d="M400.106,184.596c0.636-1.273,1.91-3.501,6.684-4.138c0.955,0,1.591-0.318,2.546-0.637
				c0.955-1.591,1.91-2.864,2.865-4.138c0-0.317,0-0.636,0-0.954c-0.318-2.229-2.546-4.774-7.32-2.547
				c-6.047,2.865-5.411,11.458-5.411,11.458C399.788,184.596,399.788,184.914,400.106,184.596z"/>
		</g>
		<g>
			<path fill="#FFFFFF" d="M443.072,179.503c0.955,0.637,1.91,0.955,2.864,0.955c4.774,0.637,6.366,2.864,6.685,4.138
				c0,0.318,0.317-0.318,0.317-0.955c0,0,0.637-8.911-5.41-11.458c-4.774-2.228-7.002,0.318-7.32,2.547c0,0.318,0,0.637,0,0.954
				C441.163,176.957,442.118,178.231,443.072,179.503z"/>
		</g>
		<g>
			<path fill="#FFFFFF" d="M426.204,205.283c8.912,0,16.55-7.32,16.55-16.55c0-9.23-7.319-16.551-16.55-16.551
				c-9.229,0-16.55,7.32-16.55,16.551l0,0C409.654,197.963,416.975,205.283,426.204,205.283z"/>
		</g>
	</g>
</g>
</svg>
