<?xml version="1.0" encoding="utf-8"?>
<!-- Generator: Adobe Illustrator 16.0.3, SVG Export Plug-In . SVG Version: 6.00 Build 0)  -->
<!DOCTYPE svg PUBLIC "-//W3C//DTD SVG 1.1//EN" "http://www.w3.org/Graphics/SVG/1.1/DTD/svg11.dtd" [
	<!ENTITY ns_extend "http://ns.adobe.com/Extensibility/1.0/">
	<!ENTITY ns_ai "http://ns.adobe.com/AdobeIllustrator/10.0/">
	<!ENTITY ns_graphs "http://ns.adobe.com/Graphs/1.0/">
	<!ENTITY ns_vars "http://ns.adobe.com/Variables/1.0/">
	<!ENTITY ns_imrep "http://ns.adobe.com/ImageReplacement/1.0/">
	<!ENTITY ns_sfw "http://ns.adobe.com/SaveForWeb/1.0/">
	<!ENTITY ns_custom "http://ns.adobe.com/GenericCustomNamespace/1.0/">
	<!ENTITY ns_adobe_xpath "http://ns.adobe.com/XPath/1.0/">
]>
<svg version="1.1" id="Layer_1" xmlns:x="&ns_extend;" xmlns:i="&ns_ai;" xmlns:graph="&ns_graphs;"
	 xmlns="http://www.w3.org/2000/svg" xmlns:xlink="http://www.w3.org/1999/xlink" x="0px" y="0px" width="285.199px"
	 height="285.198px" viewBox="284.25 72.202 285.199 285.198" enable-background="new 284.25 72.202 285.199 285.198"
	 xml:space="preserve">
<metadata>
	<sfw  xmlns="&ns_sfw;">
		<slices></slices>
		<sliceSourceBounds  width="285.199" height="285.198" y="143.1" x="283.75" bottomLeftOrigin="true"></sliceSourceBounds>
	</sfw>
</metadata>
<title>TARGET 1 B copy 12</title>
<g id="TARGETS">
	<g>
		<rect x="284.25" y="72.202" fill="#56C02B" width="285.199" height="285.198"/>
	</g>
	<g>
		<g>
			<path fill="#FFFFFF" d="M512.891,180.505c-9.928,0.902-17.449,10.529-22.263,13.538s-10.529,7.822-14.741,2.106
				c-4.212-5.717,2.407-9.025,5.716-10.229c3.31-1.203,11.433-4.211,13.538-8.122c2.708-4.513,3.61-10.229,2.407-15.343l-1.505-6.92
				c1.505-2.105,2.106-4.513,1.505-6.919c-1.204-4.513-3.911-8.424-8.123-10.831c-5.415-3.91-6.618-3.309-7.822-3.008
				c-1.203,0.301-4.513,5.415-2.707,12.635c1.805,7.221,3.309,9.326,9.326,12.034c0,0,3.609,9.627-4.212,14.44
				c-6.017,3.61-12.937,3.61-17.75,8.725l-34.897-65.885c-0.902-1.805-3.009-2.406-4.513-1.504
				c-0.602,0.301-1.203,0.902-1.504,1.504l-15.945,30.084c-1.504-11.732-15.042-21.059-15.042-21.059
				c11.733,6.919,14.44,14.44,14.44,14.44c0.602-0.301,0.903-0.902,1.204-1.504c2.106-3.911,1.204-8.725-2.106-11.733
				c-6.318-6.618-21.661-7.22-20.156-6.017c5.415,5.415,3.008,12.334,6.618,16.847c2.708,3.31,8.123,3.61,11.131,3.31
				c1.504,2.407,2.708,5.114,3.008,8.123l-9.928,18.652l-0.301,0.301l-2.106,4.212l-7.521,0.602
				c-0.902-6.318-2.407-12.335-5.114-18.352l-0.902-1.805c-1.504-2.106-2.708-3.009-3.61-1.806s-1.805,2.407-2.407,3.31
				c-2.407-0.902-4.813,0.301-5.716,2.707c-0.602,1.806,0,3.911,1.504,5.114c-3.61,8.725-3.309,18.352,0.903,26.475
				c1.504,2.708,3.61,7.22,6.017,10.529c0.301,0.602,0.902,1.203,1.504,1.504l-9.928,18.352c0-2.105,0-4.513-0.301-6.618
				c-3.911,0.902-7.22,3.61-9.025,6.919c-0.301-8.122-2.708-16.245-6.919-23.164c-0.602-2.407-3.31-11.132-18.953-14.44
				c-0.301,4.813,1.504,9.627,5.415,12.635c3.31,2.708,7.521,3.911,11.733,3.009c4.513,7.22,6.619,15.644,6.318,24.067
				c-3.009-5.415-7.22-9.928-12.034-13.538l0,0c-2.708-2.105-6.017-3.31-9.326-3.009c-4.813,0.301-9.326,3.009-11.432,7.221
				c0,0,7.521,6.618,21.961-0.902c3.911,3.008,6.919,6.919,9.326,11.131c-2.708-2.708-5.716-5.114-9.326-6.618
				c-1.805,4.513-0.902,9.627,1.805,13.537c2.708,3.911,7.521,6.318,12.334,6.018l-11.432,21.359
				c-1.504-1.203-3.309-2.406-4.513-3.61c2.708-3.91,3.31-7.521,1.805-8.724c-1.504-1.204-5.716,0.902-9.025,5.114
				c-3.31,4.211-4.513,8.724-2.708,9.928c1.805,1.203,5.115-0.602,8.123-3.911c1.504,1.504,3.309,2.707,4.813,3.911l-7.521,14.44
				c-5.716-3.31-11.131-7.221-15.945-11.733c5.415-7.22,8.123-13.839,6.017-15.343c-2.105-1.504-8.724,3.31-14.44,10.83
				c-5.716,7.521-9.025,15.042-7.22,16.848c1.805,1.805,7.22-2.407,12.635-8.725c5.114,4.813,10.529,8.725,16.546,12.033
				l-18.051,33.995c-0.902,1.505-0.301,3.61,1.504,4.513c0.602,0.301,0.902,0.301,1.504,0.301h205.776
				c1.806,0,3.31-1.504,3.31-3.309c0-0.602,0-1.204-0.301-1.505l-20.156-38.206c-1.504-4.513-1.805-9.627-0.301-14.44
				c2.105-4.513,5.716-8.123,10.529-9.928c2.407-1.505,8.725-6.018,6.618-13.538c0,0-2.105-11.433-18.05-6.018
				c0,0-9.326,4.212-17.148,9.025l-6.919-12.936c1.805-0.602,3.91-1.204,6.017-1.204c9.326-0.902,18.352-2.105,21.66-2.406
				c3.31-0.301,14.44-3.009,18.652-9.025c4.513-6.017,5.114-14.14,2.106-21.059C534.852,186.523,527.632,179.001,512.891,180.505z
				 M373.901,160.95c-1.204-0.602-1.805-2.105-1.504-3.309c0.602-1.204,2.106-1.806,3.31-1.505c0.301,0,0.301,0.301,0.602,0.301
				c1.203,0.602,1.805,2.106,1.203,3.31C376.609,161.251,375.104,161.552,373.901,160.95L373.901,160.95z M376.91,183.213
				c0.903-0.902,1.805-1.806,2.708-2.407c1.504-0.602,3.009-0.902,4.513-0.301c1.805,0.902,3.008,2.106,3.911,3.911
				c0.301-0.902,0.602-1.805,0.902-2.707c0.301-0.903,0.301-1.806,0.301-2.708l3.911-0.902l-6.318,11.432l-0.301,0.301
				C386.837,189.831,384.731,177.798,376.91,183.213L376.91,183.213z M515.598,236.462c6.018-1.805,7.822-0.301,8.725,1.203
				s0,5.415-3.61,7.521c-3.609,2.105-11.131,8.423-11.732,14.44c-0.301,2.105,0,4.212,0.602,6.317l-10.529-20.156
				C504.768,242.178,511.688,237.665,515.598,236.462z M517.704,306.257H336.897l90.854-171.78L517.704,306.257z M526.729,203.069
				c-0.902,4.513-7.221,8.123-11.733,8.424s-23.165,1.805-31.287,5.415l-3.009-6.017c7.221-1.505,13.839-4.813,19.254-9.627
				c9.928-8.424,18.051-10.831,22.563-7.822C526.729,196.45,527.933,198.556,526.729,203.069L526.729,203.069z"/>
		</g>
		<g>
			<path fill="#FFFFFF" d="M351.94,297.233h151.023l-75.211-143.201L351.94,297.233z M427.451,280.987
				c-4.513,0-7.822-3.61-7.822-7.821c0-4.212,3.61-7.822,7.822-7.822c4.513,0,7.822,3.61,7.822,7.822l0,0
				C435.273,277.677,431.663,280.987,427.451,280.987z M431.362,256.919h-8.424l-3.61-58.965h15.343L431.362,256.919z"/>
		</g>
		<g>
			<path fill="#FFFFFF" d="M525.827,135.68l-4.813-4.813c-0.302,0.602-0.903,1.504-1.505,2.105l3.911,3.911
				C524.322,136.582,524.924,135.981,525.827,135.68z"/>
		</g>
		<g>
			<polygon fill="#FFFFFF" points="516.802,137.184 519.509,139.892 521.615,138.388 518.306,135.078 			"/>
		</g>
		<g>
			<path fill="#FFFFFF" d="M513.793,142.298l0.602,0.602c0.902-0.602,1.806-0.902,2.708-1.504l-1.806-1.805
				C514.996,140.493,514.395,141.396,513.793,142.298z"/>
		</g>
		<g>
			<path fill="#FFFFFF" d="M537.56,136.281c-2.406-2.105-5.415-3.31-8.424-3.911c0.301-0.301,0.602-0.902,0.602-1.203
				c0.301-0.602,0.602-1.203,0.602-2.105c0.301-0.903,0.301-1.505,0.301-2.407c0-0.301-0.301-0.602-0.602-0.602l0,0
				c-0.902,0-1.504,0-2.406,0c-0.602,0-1.504,0.301-2.105,0.602c-0.603,0.301-0.903,0.301-1.204,0.602
				c-0.301-3.008-1.805-6.017-3.61-8.424c-3.008-4.211-6.618-6.919-8.122-6.017c-1.505,0.902-0.301,3.009,0.902,6.017
				c-3.009-1.504-5.415-1.805-6.017-0.602c-0.602,1.204,2.105,4.813,6.618,7.521c2.407,1.805,5.415,3.009,8.424,3.31l5.114,5.114
				c0.301,3.008,1.203,6.017,3.009,8.423c2.707,4.513,6.017,7.521,7.521,6.619s0.602-3.009-0.602-6.017
				c3.009,1.504,5.415,2.105,6.017,1.203S542.072,139.29,537.56,136.281z"/>
		</g>
	</g>
</g>
</svg>
