<?xml version="1.0" encoding="utf-8"?>
<!-- Generator: Adobe Illustrator 16.0.3, SVG Export Plug-In . SVG Version: 6.00 Build 0)  -->
<!DOCTYPE svg PUBLIC "-//W3C//DTD SVG 1.1//EN" "http://www.w3.org/Graphics/SVG/1.1/DTD/svg11.dtd" [
	<!ENTITY ns_extend "http://ns.adobe.com/Extensibility/1.0/">
	<!ENTITY ns_ai "http://ns.adobe.com/AdobeIllustrator/10.0/">
	<!ENTITY ns_graphs "http://ns.adobe.com/Graphs/1.0/">
	<!ENTITY ns_vars "http://ns.adobe.com/Variables/1.0/">
	<!ENTITY ns_imrep "http://ns.adobe.com/ImageReplacement/1.0/">
	<!ENTITY ns_sfw "http://ns.adobe.com/SaveForWeb/1.0/">
	<!ENTITY ns_custom "http://ns.adobe.com/GenericCustomNamespace/1.0/">
	<!ENTITY ns_adobe_xpath "http://ns.adobe.com/XPath/1.0/">
]>
<svg version="1.1" id="Layer_1" xmlns:x="&ns_extend;" xmlns:i="&ns_ai;" xmlns:graph="&ns_graphs;"
	 xmlns="http://www.w3.org/2000/svg" xmlns:xlink="http://www.w3.org/1999/xlink" x="0px" y="0px" width="301.719px"
	 height="301.719px" viewBox="275.981 76.384 301.719 301.719" enable-background="new 275.981 76.384 301.719 301.719"
	 xml:space="preserve">
<metadata>
	<sfw  xmlns="&ns_sfw;">
		<slices></slices>
		<sliceSourceBounds  width="301.719" height="301.719" y="122.397" x="275.481" bottomLeftOrigin="true"></sliceSourceBounds>
	</sfw>
</metadata>
<title>TARGET 1 B copy 4</title>
<g id="TARGETS">
	<g>
		<rect x="275.981" y="76.384" fill="#BF8B2E" width="301.719" height="301.719"/>
	</g>
	<g>
		<g>
			<g>
				<path fill="#FFFFFF" d="M371.144,193.825h-21.006v-2.546c0-0.318-0.318-0.955-0.955-0.955H333.27
					c-0.318,0-0.955,0.318-0.955,0.955v2.546H311.31c-0.318,0-0.955,0.318-0.955,0.955l0.637,3.501c0,0.318,0.318,0.955,0.955,0.637
					h58.562c0.318,0,0.955-0.318,0.955-0.637l0.637-3.501C372.099,194.144,371.78,193.825,371.144,193.825z"/>
			</g>
			<g>
				<path fill="#FFFFFF" d="M370.507,202.101h-57.925c-0.318,0-0.955,0.318-0.955,0.637l0,0l4.138,61.426
					c0,0.317,0.318,0.954,0.955,0.954l0,0h49.65c0.318,0,0.955-0.318,0.955-0.636l0,0l4.137-61.108
					C371.462,202.419,371.144,202.101,370.507,202.101C370.826,202.101,370.507,202.101,370.507,202.101z M327.541,256.525
					L327.541,256.525c-0.955,0-1.91-0.955-1.91-1.91l-2.546-41.375c0-1.272,0.636-2.228,1.91-2.228c1.273,0,2.228,0.637,2.228,1.91
					l2.546,41.374C329.769,255.251,328.814,256.206,327.541,256.525L327.541,256.525z M343.455,254.296
					c0,1.273-1.273,1.91-2.228,1.91c-0.955,0-1.591-0.955-1.91-1.91v-41.374c0-1.273,1.273-1.91,2.228-1.91
					c0.955,0,1.591,0.955,1.91,1.91V254.296z M357.776,254.615c0,0.955-0.955,1.91-1.909,1.91l0,0c-1.273,0-1.91-0.955-1.91-2.229
					l0,0l2.546-41.374c0.318-1.273,1.273-1.91,2.546-1.592c0.955,0.318,1.591,0.955,1.591,1.909L357.776,254.615z"/>
			</g>
		</g>
		<g>
			<path fill="#FFFFFF" d="M445.301,225.971l-3.501-8.275c0-0.318-0.318-0.637-0.955-0.318h-0.318l-9.229,4.774l0.954,1.909
				l8.275-4.138l2.546,6.048h-6.684l3.819,38.828h20.051l3.819-38.828H445.301z"/>
		</g>
		<g>
			<path fill="#FFFFFF" d="M549.056,202.419l-16.55-7.639l-9.866-2.229c-2.228,5.093-7.002,8.275-12.412,8.275h-0.637
				c-5.729,0-10.821-3.183-13.367-8.275l-9.548,2.229l-16.551,7.639c0,0-0.954,0.318-0.317,1.591l7.319,14.641
				c0,0.318,0.637,0.637,0.955,0.637l0,0c1.592-0.637,8.594-2.229,8.594-2.229v47.104c0,0,0.318,0.954,1.272,0.954h43.285
				c0.954,0,1.272-0.954,1.272-0.954v-47.104c0,0,7.002,1.91,8.594,2.229c0.318,0.318,0.954,0,0.954-0.318l0,0l7.32-14.641
				C550.011,202.738,549.056,202.419,549.056,202.419z"/>
		</g>
		<g>
			<g>
				<path fill="#FFFFFF" d="M399.47,188.734h8.593c1.591,0,2.546,1.272,2.546,2.546v2.864c0,1.592-1.273,2.546-2.546,2.546h-8.593
					c-1.591,0-2.546-1.272-2.546-2.546v-2.546C396.924,190.006,398.197,188.734,399.47,188.734z"/>
			</g>
			<g>
				<path fill="#FFFFFF" d="M416.656,217.696v-6.365c0-0.637-0.318-0.955-0.637-1.592c-0.636-0.636-5.729-9.866-5.729-9.866
					c0-0.318-0.318-0.318-0.637-0.318h-11.776c-0.318,0-0.637,0-0.637,0.318c0,0-5.41,9.23-5.729,9.866
					c-0.318,0.318-0.637,0.955-0.637,1.592v6.365v32.146v12.094c0,1.91,1.273,3.183,3.183,3.183h19.733
					c1.591,0,3.183-1.591,3.183-3.183v-12.094L416.656,217.696z"/>
			</g>
		</g>
		<g>
			<path fill="#FFFFFF" d="M500.361,309.993l-8.912-7.002c-0.637-0.637-1.909-0.955-2.546,0l0,0l0,0
				c-28.008,33.418-76.385,36.919-110.757,9.548c-0.955-0.955-1.91-1.591-2.865-2.546l10.185-6.365
				c0.955-0.637-0.318-1.592-0.318-1.592l-34.373-17.186c-0.955-0.637-1.273,0-1.273,0.636v0.318l0,0l-0.636,38.829
				c0,0.318,0.318,1.272,1.273,0.636l0,0l11.139-7.001c2.228,2.228,4.456,4.137,7.002,6.047
				c40.738,32.781,98.345,28.326,132.082-11.14l0.317-0.318C501.315,312.221,501.315,310.948,500.361,309.993L500.361,309.993z"/>
		</g>
		<g>
			<path fill="#FFFFFF" d="M349.184,148.949l9.229,6.684c0.637,0.637,1.91,0.637,2.546,0c0,0,0,0,0-0.318l0,0
				c26.098-35.009,74.157-41.375,109.802-15.913c0.955,0.637,2.229,1.592,3.183,2.546l-9.548,7.002
				c-0.955,0.637,0.637,1.592,0.637,1.592l35.328,14.958c0.954,0.637,1.272-0.318,1.272-0.636v-0.318l0,0l-2.228-39.147
				c0-0.318-0.318-1.273-1.273-0.637l0,0l-10.821,7.639c-2.228-1.909-4.773-3.819-7.319-5.729
				c-42.648-30.235-99.937-22.598-131.127,18.777l-0.318,0.318C348.229,147.04,348.229,147.995,349.184,148.949L349.184,148.949z"/>
		</g>
	</g>
</g>
</svg>
