<?xml version="1.0" encoding="utf-8"?>
<!-- Generator: Adobe Illustrator 16.0.3, SVG Export Plug-In . SVG Version: 6.00 Build 0)  -->
<!DOCTYPE svg PUBLIC "-//W3C//DTD SVG 1.1//EN" "http://www.w3.org/Graphics/SVG/1.1/DTD/svg11.dtd" [
	<!ENTITY ns_extend "http://ns.adobe.com/Extensibility/1.0/">
	<!ENTITY ns_ai "http://ns.adobe.com/AdobeIllustrator/10.0/">
	<!ENTITY ns_graphs "http://ns.adobe.com/Graphs/1.0/">
	<!ENTITY ns_vars "http://ns.adobe.com/Variables/1.0/">
	<!ENTITY ns_imrep "http://ns.adobe.com/ImageReplacement/1.0/">
	<!ENTITY ns_sfw "http://ns.adobe.com/SaveForWeb/1.0/">
	<!ENTITY ns_custom "http://ns.adobe.com/GenericCustomNamespace/1.0/">
	<!ENTITY ns_adobe_xpath "http://ns.adobe.com/XPath/1.0/">
]>
<svg version="1.1" id="Layer_1" xmlns:x="&ns_extend;" xmlns:i="&ns_ai;" xmlns:graph="&ns_graphs;"
	 xmlns="http://www.w3.org/2000/svg" xmlns:xlink="http://www.w3.org/1999/xlink" x="0px" y="0px" width="285.199px"
	 height="285.198px" viewBox="284.25 72.202 285.199 285.198" enable-background="new 284.25 72.202 285.199 285.198"
	 xml:space="preserve">
<metadata>
	<sfw  xmlns="&ns_sfw;">
		<slices></slices>
		<sliceSourceBounds  width="285.199" height="285.198" y="143.1" x="283.75" bottomLeftOrigin="true"></sliceSourceBounds>
	</sfw>
</metadata>
<title>TARGET 1 B copy 3</title>
<g id="TARGETS">
	<g>
		<rect x="284.25" y="72.202" fill="#BF8B2E" width="285.199" height="285.198"/>
	</g>
	<g>
		<g>
			<path fill="#FFFFFF" d="M479.196,285.8l8.424-123.947c0-0.902-0.602-1.805-1.505-1.805l0,0h-117.93
				c-0.903,0-1.805,0.602-1.805,1.504l0,0l8.423,124.248c0,0.902,0.602,1.806,1.504,1.806h101.083
				C478.294,287.606,479.196,286.702,479.196,285.8z M470.171,277.979h-86.342l-7.22-108.304h100.783L470.171,277.979z"/>
		</g>
		<g>
			<path fill="#FFFFFF" d="M486.115,153.43c0.903,0,1.806-0.602,1.806-1.505l0,0l1.203-6.919c0-0.902-0.902-1.805-1.805-1.504H444.6
				v-5.114c0-0.903-0.602-1.505-1.505-1.505h-32.491c-0.902,0-1.805,0.602-1.805,1.505v5.114H366.38
				c-0.903,0-1.805,0.602-1.805,1.504l1.204,6.919c0,0.903,0.902,1.505,1.504,1.505H486.115z"/>
		</g>
		<g>
			<path fill="#FFFFFF" d="M418.125,210.59c5.114-4.212,12.636-4.212,17.75,0c1.203-1.204,2.105-2.407,3.009-3.911
				c-6.92-5.716-17.148-5.716-24.068,0C415.718,208.183,416.621,209.386,418.125,210.59z"/>
		</g>
		<g>
			<path fill="#FFFFFF" d="M441.892,199.759c0.301,8.123-6.017,15.343-14.14,15.645v2.105l0.902,0.301
				c2.106,0.902,3.31,3.31,2.407,5.415l1.805,1.203c4.513-6.919,13.839-8.724,20.759-4.211c5.716,3.609,8.122,10.83,6.017,17.147
				l0.602,0.301c0-0.301,0-0.301,0.301-0.602c4.212-11.131-1.504-23.466-12.636-27.678c0-0.301,0-0.301,0-0.602
				c1.505-11.732-6.618-22.563-18.351-24.067l0,0v0.902C436.477,187.124,441.591,192.84,441.892,199.759z"/>
		</g>
		<g>
			<path fill="#FFFFFF" d="M438.582,245.788c-7.22-3.911-10.229-12.937-6.317-20.156l-1.805-1.204
				c-0.301,0.301-0.301,0.301-0.602,0.603c-1.806,1.504-4.513,1.203-6.018-0.603l-2.105,1.204c3.61,7.521,0.602,16.546-6.919,20.156
				c-6.017,3.008-13.538,1.504-18.051-3.61l-0.602,0.301l0.301,0.602c7.521,9.025,21.059,10.529,30.084,3.009
				c0.301,0,0.301,0.301,0.602,0.301c9.326,7.22,22.864,5.415,30.084-3.911l0,0l-0.602-0.301
				C452.12,247.593,444.9,249.098,438.582,245.788z"/>
		</g>
		<g>
			<path fill="#FFFFFF" d="M432.265,234.958c0.301,1.504,0.902,3.309,1.805,4.813c8.424-3.31,13.237-12.034,12.034-20.759
				c-1.805,0-3.31,0.301-5.114,0.602C442.192,226.234,438.281,232.551,432.265,234.958z"/>
		</g>
		<g>
			<path fill="#FFFFFF" d="M407.896,219.013c-1.203,9.025,3.61,17.449,12.034,20.759c0.902-1.505,1.504-3.009,1.805-4.813
				c-6.318-2.407-9.928-8.725-9.025-15.344C411.206,219.013,409.401,219.013,407.896,219.013z"/>
		</g>
		<g>
			<path fill="#FFFFFF" d="M394.358,237.365c-2.407-7.822,1.805-16.245,9.928-18.953c6.317-2.105,13.237,0.301,16.847,6.017
				l1.805-1.203c0-0.301,0-0.602-0.301-0.902c-0.301-2.407,1.203-4.513,3.61-4.813l0,0v-2.105
				c-8.424-0.603-14.44-7.822-13.839-16.246c0.602-6.618,5.415-12.033,11.732-13.538v-0.902h-0.602
				c-11.732,1.806-19.555,12.937-17.75,24.669l-0.602,0.301c-10.831,4.513-16.246,16.848-11.733,27.979L394.358,237.365z"/>
		</g>
		<g>
			<polygon fill="#FFFFFF" points="326.368,331.829 310.123,331.829 310.123,315.583 318.847,315.583 318.847,323.105 
				326.368,323.105 			"/>
		</g>
		<g>
			<path fill="#FFFFFF" d="M508.077,331.829h-25.873v-8.725h25.873V331.829z M462.649,331.829h-25.872v-8.725h25.872V331.829z
				 M417.223,331.829H391.35v-8.725h25.873V331.829z M371.795,331.829h-25.873v-8.725h25.873V331.829z"/>
		</g>
		<g>
			<polygon fill="#FFFFFF" points="543.877,331.829 527.331,331.829 527.331,323.105 535.153,323.105 535.153,315.583 
				543.877,315.583 			"/>
		</g>
		<g>
			<path fill="#FFFFFF" d="M543.877,296.029h-8.724v-25.872h8.724V296.029z M543.877,250.602h-8.724v-25.873h8.724V250.602z
				 M543.877,205.174h-8.724v-25.872h8.724V205.174z M543.877,159.747h-8.724v-25.872h8.724V159.747z"/>
		</g>
		<g>
			<polygon fill="#FFFFFF" points="543.877,114.321 535.153,114.321 535.153,106.799 527.331,106.799 527.331,98.074 
				543.877,98.074 			"/>
		</g>
		<g>
			<path fill="#FFFFFF" d="M508.077,106.799h-25.873v-8.725h25.873V106.799z M462.649,106.799h-25.872v-8.725h25.872V106.799z
				 M417.223,106.799H391.35v-8.725h25.873V106.799z M371.795,106.799h-25.873v-8.725h25.873V106.799z"/>
		</g>
		<g>
			<polygon fill="#FFFFFF" points="318.847,114.321 310.123,114.321 310.123,98.074 326.368,98.074 326.368,106.799 
				318.847,106.799 			"/>
		</g>
		<g>
			<path fill="#FFFFFF" d="M318.847,296.029h-8.725v-25.872h8.725V296.029z M318.847,250.602h-8.725v-25.873h8.725V250.602z
				 M318.847,205.174h-8.725v-25.872h8.725V205.174z M318.847,159.747h-8.725v-25.872h8.725V159.747z"/>
		</g>
	</g>
</g>
</svg>
