<?xml version="1.0" encoding="utf-8"?>
<!-- Generator: Adobe Illustrator 16.0.3, SVG Export Plug-In . SVG Version: 6.00 Build 0)  -->
<!DOCTYPE svg PUBLIC "-//W3C//DTD SVG 1.1//EN" "http://www.w3.org/Graphics/SVG/1.1/DTD/svg11.dtd" [
	<!ENTITY ns_extend "http://ns.adobe.com/Extensibility/1.0/">
	<!ENTITY ns_ai "http://ns.adobe.com/AdobeIllustrator/10.0/">
	<!ENTITY ns_graphs "http://ns.adobe.com/Graphs/1.0/">
	<!ENTITY ns_vars "http://ns.adobe.com/Variables/1.0/">
	<!ENTITY ns_imrep "http://ns.adobe.com/ImageReplacement/1.0/">
	<!ENTITY ns_sfw "http://ns.adobe.com/SaveForWeb/1.0/">
	<!ENTITY ns_custom "http://ns.adobe.com/GenericCustomNamespace/1.0/">
	<!ENTITY ns_adobe_xpath "http://ns.adobe.com/XPath/1.0/">
]>
<svg version="1.1" id="Layer_1" xmlns:x="&ns_extend;" xmlns:i="&ns_ai;" xmlns:graph="&ns_graphs;"
	 xmlns="http://www.w3.org/2000/svg" xmlns:xlink="http://www.w3.org/1999/xlink" x="0px" y="0px" width="270.393px"
	 height="270.394px" viewBox="291.661 68.454 270.393 270.394" enable-background="new 291.661 68.454 270.393 270.394"
	 xml:space="preserve">
<metadata>
	<sfw  xmlns="&ns_sfw;">
		<slices></slices>
		<sliceSourceBounds  width="270.393" height="270.394" x="291.161" y="161.652" bottomLeftOrigin="true"></sliceSourceBounds>
	</sfw>
</metadata>
<title>TARGET 1.4</title>
<g id="TARGETS">
	<g>
		<rect x="291.661" y="68.454" fill="#E5243B" width="270.393" height="270.394"/>
	</g>
	<g>
		<g>
			<g>
				<g>
					<path fill="#FFFFFF" d="M462.796,244.153c3.993,0,7.131-3.138,7.131-7.131c0-3.992-3.138-7.13-7.131-7.13
						s-7.131,3.138-7.131,7.13l0,0C455.95,241.015,459.088,244.153,462.796,244.153z"/>
				</g>
				<g>
					<path fill="#FFFFFF" d="M482.762,272.105l-5.705-19.11c0,0-1.996-5.419-6.56-5.419H455.38c-4.563,0-6.561,5.419-6.561,5.419
						l-5.704,19.11c0,0-1.141,3.423,1.711,4.278c2.853,0.855,3.708-2.566,3.708-2.566l4.85-15.973c0,0,0.285-1.142,1.141-0.856
						c0.855,0.286,0.57,1.712,0.57,1.712l-8.271,29.663h7.701v21.392c0.285,1.997,1.996,3.423,3.993,3.423
						c1.711-0.285,3.138-1.426,3.423-3.423v-21.392h1.996v21.392c0,1.997,1.712,3.708,3.708,3.708c1.997,0,3.708-1.711,3.708-3.708
						v-21.392h7.701l-8.271-29.663c0,0-0.285-1.426,0.57-1.712c0.855-0.285,1.141,0.856,1.141,0.856l4.85,15.973
						c0,0,0.855,3.422,3.707,2.566C483.902,275.528,482.762,272.105,482.762,272.105z"/>
				</g>
				<g>
					<path fill="#FFFFFF" d="M393.771,241.586c3.993,0,7.416-3.423,7.416-7.416s-3.422-7.416-7.416-7.416s-7.416,3.423-7.416,7.416
						l0,0C386.355,238.163,389.778,241.586,393.771,241.586L393.771,241.586z"/>
				</g>
				<g>
					<path fill="#FFFFFF" d="M402.328,244.438h-17.114c-5.134,0.57-8.842,4.563-8.842,9.698v20.536c0,0.855,0.57,1.711,1.141,2.281
						l-6.561,34.513c0,0.57,0.285,1.141,0.856,1.426l0,0h0.285c0.57,0,1.141-0.285,1.141-0.855l6.561-34.227
						c1.426-0.285,2.567-1.427,2.282-2.853v-17.398c0-0.571,0.285-1.427,1.426-1.427c1.141,0,0.856,0.855,1.141,1.427v52.48
						c-0.285,2.282,1.426,4.278,3.708,4.564c2.282,0.285,4.278-1.427,4.563-3.708c0-0.286,0-0.571,0-0.571V278.95
						c0-0.57,0.285-1.141,1.141-1.141c0,0,0,0,0.285,0l0,0c0.57,0,1.141,0.285,1.141,1.141c0,0,0,0,0,0.285v30.233
						c-0.285,2.282,1.426,4.278,3.708,4.563s4.278-1.426,4.563-3.708c0-0.285,0-0.57,0-0.57v-52.767c0-0.57,0.286-1.426,1.141-1.426
						c0.856,0,1.426,0.855,1.426,1.426v17.399c0,1.711,1.141,2.852,2.852,2.852s2.853-1.141,2.853-2.852v-20.251
						C411.17,249.001,407.462,244.723,402.328,244.438z"/>
				</g>
				<g>
					<g>
						<path fill="#FFFFFF" d="M439.692,272.39c-1.141-0.57-2.281,0-2.853,0.856c-1.141,1.996-2.281,3.992-3.707,5.704
							c-0.571,0.57-1.142,0.855-1.712,0.855h-7.131c-0.57,0-1.426-0.285-1.711-0.855c-0.855-0.855-3.708-5.704-3.708-5.99
							c-0.285-0.57-1.141-1.141-1.711-0.855c-1.141,0-1.997,0.855-2.282,1.997l0,0c0,0.285,0,0.57,0.285,0.855l5.99,10.839
							c0.285,0.57,0.285,0.855,0.285,1.426v1.711l0,0c0,0.571,0,1.142-0.285,1.712l-2.853,11.408h3.138v8.271l0,0
							c0,1.712,1.141,2.853,2.852,2.853c1.712,0,2.853-1.141,2.853-2.853v-7.986v-0.285h1.712v0.285v7.986
							c0,1.712,1.141,2.853,2.852,2.853c1.712,0,2.853-1.141,2.853-2.853v-8.271h3.138l-2.853-11.408
							c0-0.57-0.285-0.855-0.285-1.427v-0.285l0,0v-1.426c0-0.57,0.285-0.855,0.285-1.426l5.419-9.983l0.57-1.141
							C440.833,273.817,440.548,272.96,439.692,272.39z"/>
					</g>
					<g>
						<path fill="#FFFFFF" d="M427.713,276.383c3.138,0,5.705-2.852,5.705-5.989s-2.853-5.705-5.99-5.705s-5.704,2.567-5.704,5.99
							C421.724,273.531,424.29,276.383,427.713,276.383L427.713,276.383z"/>
					</g>
				</g>
			</g>
			<g>
				<g>
					<path fill="#FFFFFF" d="M339.864,232.173c0,0-4.563,4.849-4.563,8.557c0,2.853,3.422,4.85,4.563,5.42
						c0,0,4.563-2.567,4.563-5.705C344.427,237.022,339.864,232.173,339.864,232.173z"/>
				</g>
				<g>
					<path fill="#FFFFFF" d="M329.596,241.301c0,0-0.571,7.986,2.852,10.553c0,0,1.141,1.427,6.56,2.282
						c0,0,0.571-5.135-1.426-7.416C337.582,246.72,336.441,245.008,329.596,241.301z"/>
				</g>
				<g>
					<path fill="#FFFFFF" d="M329.025,251.283c0,0-0.855,8.842,3.138,11.409c0,0,1.141,1.711,7.131,2.567
						c0,0,0.57-5.705-1.711-7.986C337.582,256.988,336.441,255.277,329.025,251.283z"/>
				</g>
				<g>
					<path fill="#FFFFFF" d="M329.311,262.693c0,0-1.141,9.697,2.567,12.265c0,0,1.426,1.711,7.416,2.567
						c0,0,0.855-5.705-1.426-8.271C337.867,269.253,336.726,266.971,329.311,262.693z"/>
				</g>
				<g>
					<path fill="#FFFFFF" d="M328.169,274.102c0,0-0.57,9.982,3.138,12.55c2.282,1.711,5.134,2.566,7.986,2.853
						c0,0,0.57-6.275-1.426-8.843C335.015,278.095,331.592,275.813,328.169,274.102z"/>
				</g>
				<g>
					<path fill="#FFFFFF" d="M350.132,241.015c0,0,0.855,7.986-2.567,10.554c0,0-1.141,1.426-6.561,2.567
						c0,0-0.57-5.135,1.426-7.416C342.146,246.72,343.286,245.008,350.132,241.015z"/>
				</g>
				<g>
					<path fill="#FFFFFF" d="M350.702,250.998c0,0,0.856,8.842-2.852,11.409c0,0-1.141,1.711-7.131,2.566
						c0,0-0.57-5.704,1.426-7.986C342.431,256.988,343.572,255.277,350.702,250.998z"/>
				</g>
				<g>
					<path fill="#FFFFFF" d="M350.702,262.407c0,0,1.426,9.412-2.282,12.265c0,0-1.426,1.711-7.416,2.853
						c0,0-0.855-5.705,1.141-8.271C342.146,269.253,343.572,266.686,350.702,262.407z"/>
				</g>
				<g>
					<path fill="#FFFFFF" d="M352.128,274.102c0,0,0.855,9.982-3.138,12.55c-2.282,1.711-5.134,2.566-7.701,2.853
						c0,0-0.856-6.275,1.426-8.843C345.283,277.81,348.706,275.528,352.128,274.102z"/>
				</g>
				<g>
					<path fill="#FFFFFF" d="M331.307,223.616c0-0.57-0.571-0.855-1.141-0.57c-0.285,0-0.57,0.285-0.57,0.57l0.285,15.973
						l1.711,0.855L331.307,223.616z"/>
				</g>
				<g>
					<path fill="#FFFFFF" d="M334.729,220.764c0-0.57-0.285-0.855-0.855-0.855s-0.856,0.285-0.856,0.855l0,0l0.286,19.11l0,0
						c0.285-1.426,0.855-2.853,1.711-4.278L334.729,220.764z"/>
				</g>
				<g>
					<path fill="#FFFFFF" d="M338.438,216.2c0-0.57-0.285-0.855-0.855-0.855c-0.571,0-0.856,0.285-0.856,0.855v16.543l1.711-2.281
						V216.2z"/>
				</g>
				<g>
					<path fill="#FFFFFF" d="M347.85,223.331c0-0.57,0.285-0.855,0.855-0.855l0,0c0.571,0,0.856,0.285,0.856,0.855l0,0l0.285,15.973
						l-1.711,1.141L347.85,223.331z"/>
				</g>
				<g>
					<path fill="#FFFFFF" d="M344.427,220.764c0-0.57,0.285-0.855,0.856-0.855l0,0c0.57,0,0.855,0.285,0.855,0.855l0,0l0.285,19.11
						l0,0c-0.57-1.426-1.141-2.853-1.711-4.278L344.427,220.764z"/>
				</g>
				<g>
					<path fill="#FFFFFF" d="M340.719,216.2c0-0.57,0.285-0.855,0.856-0.855l0,0c0.57,0,0.855,0.285,0.855,0.855l0.285,16.543
						c-0.57-0.855-1.426-1.711-1.711-2.281L340.719,216.2z"/>
				</g>
				<g>
					<rect x="339.008" y="290.93" fill="#FFFFFF" width="2.567" height="22.532"/>
				</g>
			</g>
			<g>
				<g>
					<path fill="#FFFFFF" d="M513.565,230.462c0,0-4.563,4.849-4.563,8.557c0,3.138,3.423,4.849,4.563,5.419
						c0,0,4.564-2.566,4.564-5.704C518.13,235.311,513.565,230.462,513.565,230.462z"/>
				</g>
				<g>
					<path fill="#FFFFFF" d="M503.298,239.589c0,0-0.57,7.986,2.853,10.554c0,0,1.141,1.426,6.56,2.281c0,0,0.57-5.134-1.426-7.416
						C511.284,245.008,510.144,243.297,503.298,239.589z"/>
				</g>
				<g>
					<path fill="#FFFFFF" d="M502.728,249.287c0,0-0.855,8.842,3.138,11.408c0,0,1.141,1.712,7.13,2.567c0,0,0.57-5.704-1.711-7.986
						C511.284,255.277,510.144,253.566,502.728,249.287z"/>
				</g>
				<g>
					<path fill="#FFFFFF" d="M503.013,260.981c0,0-1.141,9.413,2.566,12.266c0,0,1.427,1.711,7.416,2.566
						c0,0,0.856-5.989-1.426-8.271C511.569,267.541,510.429,265.26,503.013,260.981z"/>
				</g>
				<g>
					<path fill="#FFFFFF" d="M501.872,272.39c0,0-0.571,9.983,3.137,12.55c2.282,1.712,5.135,2.567,7.986,2.853
						c0,0,0.57-6.274-1.426-8.842C508.717,276.383,505.579,274.102,501.872,272.39z"/>
				</g>
				<g>
					<path fill="#FFFFFF" d="M523.834,239.304c0,0,0.855,7.986-2.567,10.554c0,0-1.141,1.426-6.56,2.281c0,0-0.57-5.134,1.426-7.416
						C515.848,244.723,516.703,243.297,523.834,239.304z"/>
				</g>
				<g>
					<path fill="#FFFFFF" d="M524.404,249.287c0,0,0.855,8.842-2.853,11.408c0,0-1.141,1.712-7.13,2.567c0,0-0.57-5.704,1.426-7.986
						C516.133,255.277,517.273,253.566,524.404,249.287z"/>
				</g>
				<g>
					<path fill="#FFFFFF" d="M524.404,260.696c0,0,1.427,9.413-2.281,12.265c0,0-1.427,1.712-7.416,2.853
						c0,0-0.855-5.989,1.141-8.271C515.848,267.541,516.988,264.974,524.404,260.696z"/>
				</g>
				<g>
					<path fill="#FFFFFF" d="M525.831,272.39c0,0,0.57,9.983-3.138,12.55c-2.282,1.712-4.849,2.567-7.701,2.853
						c0,0-0.855-6.274,1.426-8.842C518.985,276.098,522.123,273.817,525.831,272.39z"/>
				</g>
				<g>
					<path fill="#FFFFFF" d="M505.009,221.906c0-0.57-0.285-0.855-0.855-0.855s-0.855,0.285-0.855,0.855l0,0v15.973l1.711,0.855
						V221.906z"/>
				</g>
				<g>
					<path fill="#FFFFFF" d="M508.432,219.053c0-0.57-0.285-0.855-0.855-0.855l0,0c-0.57,0-0.855,0.285-0.855,0.855l0,0l0.285,19.11
						l0,0c0.285-1.427,0.855-2.853,1.711-4.278L508.432,219.053z"/>
				</g>
				<g>
					<path fill="#FFFFFF" d="M512.14,214.49c0-0.57-0.285-0.855-0.855-0.855s-0.855,0.285-0.855,0.855l0,0v16.543l1.711-2.282
						V214.49z"/>
				</g>
				<g>
					<path fill="#FFFFFF" d="M521.552,221.62c0-0.57,0.285-0.856,0.856-0.856c0.57,0,0.855,0.286,0.855,0.856v15.973l-1.427,1.141
						L521.552,221.62z"/>
				</g>
				<g>
					<path fill="#FFFFFF" d="M518.13,218.768c0-0.57,0.285-0.855,0.855-0.855l0,0c0.57,0,0.855,0.285,0.855,0.855l0.285,19.11l0,0
						c-0.57-1.427-1.141-2.853-1.711-4.278L518.13,218.768z"/>
				</g>
				<g>
					<path fill="#FFFFFF" d="M514.422,214.49c0-0.57,0.285-0.855,0.855-0.855l0,0c0.57,0,0.855,0.285,0.855,0.855v16.543
						l-1.711-2.282V214.49L514.422,214.49z"/>
				</g>
				<g>
					<rect x="512.71" y="289.218" fill="#FFFFFF" width="2.567" height="22.533"/>
				</g>
			</g>
		</g>
		<g>
			<g>
				<path fill="#FFFFFF" d="M408.033,138.334h-77.011c-0.285,0-0.57,0.285-0.57,0.57v50.485c0,0.285,0.285,0.57,0.57,0.57h44.21
					v-35.368h18.254v35.368h14.547c0.285,0,0.57-0.285,0.57-0.57v-50.485C408.603,138.619,408.318,138.334,408.033,138.334z
					 M361.826,171.705h-17.114v-17.113h17.114V171.705z"/>
			</g>
			<g>
				<path fill="#FFFFFF" d="M369.527,94.695c-0.286-0.285-0.571-0.57-1.141-0.57s-0.855,0.285-1.141,0.57l-0.285,0.285
					l-41.357,38.791c-0.285,0.285-0.285,0.57,0,0.57h0.285h87.279c0.285,0,0.285-0.285,0.285-0.57v-0.285L369.813,94.98
					L369.527,94.695z"/>
			</g>
		</g>
		<g>
			<g>
				<path fill="#FFFFFF" d="M484.473,108.671c-21.392,0-38.505,17.398-38.505,38.505s17.398,38.506,38.505,38.506
					s38.791-17.399,38.791-38.506C522.979,126.07,505.865,108.671,484.473,108.671z M518.985,141.187c0,0.57,0,0.855-0.285,1.141
					s-0.57,0.57-1.141,0.57h-0.286c-0.285,0-0.57,0-0.855-0.285s-0.57-0.57-0.57-1.141s0-0.855,0.285-1.141
					c0.285-0.286,0.57-0.571,1.141-0.571C517.845,139.475,518.7,140.331,518.985,141.187z M517.273,135.197
					c0.286,0.285,0.286,0.855,0,1.142c-0.285,0.285-0.57,0.855-0.855,0.855s-0.285,0-0.57,0c-0.57,0-1.426-0.57-1.711-1.142
					c-0.285-0.855,0-1.711,0.855-1.996C516.133,133.771,516.988,134.341,517.273,135.197
					C517.56,135.197,517.56,135.197,517.273,135.197L517.273,135.197z M511.569,130.063c0.285-0.855,1.141-1.426,1.996-1.141
					c0.286,0,0.856,0.285,0.856,0.855c0.57,0.855,0.285,1.711-0.57,2.281c-0.286,0.286-0.571,0.286-0.856,0.286h-0.57
					C511.854,131.774,511.569,130.918,511.569,130.063L511.569,130.063z M499.59,117.228L499.59,117.228
					c0.57-0.855,1.426-1.141,2.282-0.57l0,0c0.285,0.285,0.57,0.57,0.855,0.855s0.285,0.855,0,1.141s-0.57,0.57-1.141,0.855
					c0,0-0.286,0-0.571,0s-0.57,0-0.855-0.285s-0.57-0.57-0.855-1.141C499.59,118.083,499.59,117.798,499.59,117.228L499.59,117.228
					z M496.167,142.898c-0.285,0-0.57-0.285-0.57-0.57v-2.282h5.99v2.282c0,0.285-0.286,0.57-0.571,0.57l0,0v14.262h-4.563
					L496.167,142.898L496.167,142.898z M484.758,138.334h-18.824v-1.426h37.079v1.426H484.758z M482.477,142.898
					c-0.57,0-0.57-0.285-0.57-0.57v-2.282h5.704v2.282c0,0.285-0.285,0.57-0.57,0.57l0,0v14.262h-4.563V142.898L482.477,142.898z
					 M468.215,142.898c-0.285,0-0.57-0.285-0.57-0.57v-2.282h5.99v2.282c0,0.285-0.286,0.57-0.571,0.57l0,0v14.262h-4.849V142.898z
					 M484.758,135.767h-19.966l-0.855-0.855c-0.285-0.285-0.285-0.57,0-0.855c0,0,0,0,0.285,0l20.536-7.701l20.251,7.701
					c0.285,0.285,0.285,0.57,0,0.855l0,0l-0.855,0.855H484.758z M494.456,115.231c0.285-0.855,1.141-1.426,1.996-1.141
					c0.285,0.285,0.855,0.57,0.855,0.855c0.286,0.285,0.286,0.855,0,1.142c-0.285,0.57-0.855,1.141-1.711,1.141
					c-0.285,0-0.285,0-0.57,0c-0.285-0.285-0.855-0.57-0.855-0.855S494.171,115.516,494.456,115.231L494.456,115.231z
					 M489.321,112.949c0.286-0.285,0.856-0.285,1.142-0.285c0.855,0.285,1.426,1.141,1.426,1.996c0,0.57-0.285,0.855-0.57,1.141
					c-0.285,0.286-0.57,0.286-0.855,0.286h-0.285c-0.57,0-0.856-0.286-1.142-0.571s-0.285-0.855-0.285-1.141
					C488.751,113.52,489.036,113.235,489.321,112.949L489.321,112.949z M484.473,112.094c0.856,0,1.712,0.855,1.427,1.996
					c0,0.855-0.57,1.426-1.427,1.426c-0.855,0-1.711-0.57-1.996-1.426s0.57-1.711,1.426-1.996
					C484.188,112.094,484.473,112.094,484.473,112.094z M477.343,113.235c0.285-0.285,0.57-0.57,1.141-0.57s0.855,0,1.141,0.285
					s0.57,0.57,0.57,1.141s0,0.855-0.285,1.141s-0.57,0.57-1.141,0.57h-0.285c-0.285,0-0.57,0-0.855-0.285s-0.571-0.57-0.571-1.141
					C477.057,114.09,477.057,113.52,477.343,113.235L477.343,113.235z M471.638,114.946c0.285-0.285,0.57-0.57,0.855-0.855
					s0.856-0.285,1.142,0s0.57,0.57,0.855,0.855c0.285,0.855,0,1.712-0.855,1.997l0,0c-0.285,0-0.285,0-0.571,0
					c-0.285,0-0.57,0-0.57-0.285c-0.285-0.285-0.855-0.57-0.855-0.856C471.353,115.801,471.353,115.516,471.638,114.946
					L471.638,114.946z M467.074,116.657c0.285-0.285,0.855-0.285,1.141-0.285s0.855,0.285,0.855,0.855
					c0.571,0.855,0.286,1.711-0.57,2.281c-0.855,0.285-1.711,0.285-2.281-0.57C465.934,118.368,465.934,117.228,467.074,116.657
					L467.074,116.657z M461.94,120.365c0.285-0.285,0.855-0.285,1.141-0.285c0.57,0,0.855,0.285,1.141,0.57
					c0.57,0.57,0.57,1.711-0.285,2.281l0,0c-0.285,0.285-0.57,0.285-1.141,0.285s-0.855-0.285-1.426-0.57
					C461.084,122.076,461.084,120.936,461.94,120.365C461.655,120.365,461.655,120.365,461.94,120.365L461.94,120.365z
					 M454.239,129.492c0.57-0.855,1.426-1.141,2.281-0.57c0.856,0.57,1.142,1.426,0.57,2.281c-0.285,0.57-0.855,0.855-1.426,0.855
					c-0.285,0-0.57,0-0.855-0.285C453.954,131.489,453.384,130.633,454.239,129.492
					C453.954,129.778,453.954,129.778,454.239,129.492L454.239,129.492z M451.672,135.197c0.285-0.285,0.57-0.855,0.855-0.855
					c0.285-0.285,0.856-0.285,1.142,0c0.285,0,0.855,0.57,0.855,0.855c0.285,0.285,0.285,0.855,0,1.142
					c-0.285,0.57-0.855,1.141-1.426,1.141c-0.286,0-0.286,0-0.571,0c-0.855-0.285-1.426-1.141-1.141-1.997
					C451.387,135.482,451.387,135.197,451.672,135.197L451.672,135.197z M451.672,139.76c0.57,0,0.855,0.285,1.141,0.571
					c0.286,0.285,0.286,0.855,0.286,1.141c0,0.57-0.286,0.855-0.571,1.141s-0.57,0.285-0.855,0.285h-0.285
					c-0.855-0.285-1.426-1.141-1.426-1.996C449.961,140.045,450.816,139.475,451.672,139.76z M449.104,147.176
					c0-0.855,0.571-1.711,1.712-1.711l0,0l0,0c0.57,0,0.855,0.285,1.141,0.57s0.57,0.855,0.57,1.141
					c0,0.855-0.855,1.712-1.996,1.427C449.961,148.603,449.391,148.031,449.104,147.176z M449.676,153.451
					c-0.285-0.855,0.57-1.712,1.426-1.997c0.855,0,1.711,0.57,1.997,1.427c0,0.855-0.571,1.711-1.427,1.996h-0.285
					C450.531,154.592,449.961,154.022,449.676,153.451L449.676,153.451z M452.813,160.296c-0.57,0-1.426-0.285-1.426-1.141
					c-0.285-0.855,0-1.711,0.855-1.996c0.856-0.285,1.712,0,1.997,0.855s0,1.711-0.855,1.996l0,0
					C453.384,160.296,453.099,160.296,452.813,160.296L452.813,160.296z M457.091,164.289c0,0.286-0.285,0.856-0.855,1.142
					c-0.285,0.285-0.57,0.285-0.855,0.285c-0.855,0-1.711-0.855-1.711-1.712c0-0.855,0.855-1.711,1.711-1.711
					c0.57,0,1.141,0.285,1.426,0.855C457.091,163.434,457.091,164.004,457.091,164.289L457.091,164.289z M457.377,124.359
					c0.285-0.286,0.57-0.571,1.141-0.571s0.855,0,1.141,0.285c0.285,0.286,0.57,0.571,0.57,1.142s0,0.855-0.285,1.141
					s-0.855,0.57-1.141,0.57s-0.855,0-1.141-0.285C457.091,126.355,456.806,125.214,457.377,124.359L457.377,124.359z
					 M459.658,169.994c-0.285,0.285-0.57,0.285-1.141,0.285s-0.855-0.285-1.427-0.57c-0.57-0.57-0.57-1.712,0.286-2.282
					c0.285-0.285,0.855-0.285,1.141-0.285c0.57,0,0.855,0.285,1.141,0.57C460.514,168.569,460.514,169.424,459.658,169.994
					L459.658,169.994z M464.222,173.988c-0.285,0.285-0.855,0.57-1.141,0.57s-0.855,0-1.141-0.285s-0.57-0.57-0.57-1.141
					c0-0.856,0.57-1.712,1.426-1.712c0.57,0,0.855,0,1.141,0.285s0.57,0.57,0.57,1.142
					C464.507,173.132,464.507,173.702,464.222,173.988z M464.792,160.867h1.427v-2.282c0,0,0-0.285,0.285-0.285h36.509
					c0,0,0.285,0,0.285,0.285v2.282h1.426v2.281h-39.932V160.867z M469.07,177.125c-0.285,0.57-0.855,0.855-1.426,0.855
					c-0.285,0-0.57,0-0.855-0.285c-0.855-0.57-1.141-1.427-0.57-2.282s1.426-1.141,2.281-0.57
					C469.356,175.413,469.642,176.269,469.07,177.125L469.07,177.125z M474.49,179.406c-0.285,0.57-0.855,1.142-1.712,1.142
					c-0.285,0-0.285,0-0.57,0c-0.855-0.286-1.426-1.142-1.141-1.997s1.141-1.426,1.996-1.141
					C474.205,177.41,474.775,178.551,474.49,179.406L474.49,179.406L474.49,179.406z M478.483,181.974h-0.285
					c-0.855-0.285-1.427-1.141-1.427-1.997l0,0c0.285-0.855,1.142-1.426,1.997-1.426c0.855,0.285,1.426,1.141,1.426,1.996
					C479.909,181.404,479.339,181.974,478.483,181.974L478.483,181.974z M484.188,182.544c-0.855,0-1.711-0.855-1.711-1.711
					c0-0.856,0.855-1.712,1.711-1.712l0,0c0.855,0,1.712,0.855,1.712,1.712C485.899,181.689,485.328,182.544,484.188,182.544z
					 M491.604,181.118c-0.285,0.285-0.57,0.57-1.141,0.57h-0.285c-0.856,0-1.712-0.57-1.712-1.427c0-0.855,0.57-1.711,1.427-1.711
					c0.57,0,0.855,0,1.141,0.285s0.57,0.57,0.57,1.141C491.889,180.262,491.889,180.833,491.604,181.118L491.604,181.118z
					 M497.308,179.406c-0.285,0.285-0.57,0.57-0.855,0.855c-0.285,0-0.285,0-0.57,0s-0.57,0-0.57,0
					c-0.285-0.285-0.57-0.57-0.855-0.855s-0.285-0.855,0-1.426c0.285-0.285,0.57-0.57,0.855-0.855
					c0.855-0.285,1.711,0.285,1.996,1.141C497.308,178.551,497.308,179.121,497.308,179.406L497.308,179.406z M501.872,177.696
					c-0.285,0.285-0.571,0.285-0.856,0.285h-0.57c-0.57,0-0.855-0.285-1.141-0.855c-0.285-0.285-0.285-0.856,0-1.427
					c0-0.285,0.285-0.855,0.855-0.855c0.285-0.285,0.855-0.285,1.141-0.285c0.571,0,0.856,0.285,1.142,0.855
					C503.013,176.269,502.728,177.41,501.872,177.696L501.872,177.696z M506.721,174.273c-0.285,0.285-0.57,0.285-1.142,0.285
					c-0.285,0-0.855-0.285-1.141-0.57s-0.285-0.855-0.285-1.141c0-0.571,0.285-0.856,0.57-1.142s0.855-0.285,1.142-0.285
					c0.57,0,0.855,0.285,1.141,0.57C507.861,172.562,507.861,173.702,506.721,174.273L506.721,174.273z M507.291,122.647
					c-0.285,0.285-0.57,0.57-1.141,0.57l0,0c-0.285,0-0.856,0-1.142-0.285c-0.57-0.57-0.855-1.711-0.285-2.281
					s1.712-0.856,2.282-0.285c0.285,0.285,0.57,0.57,0.57,1.141C507.861,121.791,507.576,122.362,507.291,122.647z M511.284,169.994
					c-0.285,0.285-0.57,0.57-1.141,0.57l0,0c-0.285,0-0.856,0-1.142-0.285c-0.57-0.57-0.57-1.711,0-2.282
					c0.285-0.285,0.571-0.57,1.142-0.57s0.855,0,1.141,0.285s0.57,0.57,0.57,1.142C511.854,169.139,511.569,169.709,511.284,169.994
					L511.284,169.994z M511.284,126.925c-0.285,0.285-0.57,0.285-1.141,0.285l0,0c-0.57,0-0.856-0.285-1.142-0.57
					s-0.285-0.855-0.285-1.141c0-0.57,0.285-0.855,0.57-1.141c0.571-0.571,1.712-0.571,2.282,0.285
					c0.285,0.285,0.285,0.855,0.285,1.141C511.854,126.355,511.569,126.64,511.284,126.925L511.284,126.925z M514.992,164.861
					c-0.285,0.57-0.855,0.855-1.427,0.855c-0.285,0-0.57,0-0.855-0.285c-0.855-0.57-1.141-1.427-0.57-2.282l0,0
					c0.285-0.285,0.57-0.57,0.855-0.855c0.57,0,0.856,0,1.142,0.285C514.992,163.149,515.277,164.004,514.992,164.861z
					 M517.56,159.156c-0.286,0.57-0.856,1.141-1.712,1.141c-0.285,0-0.285,0-0.57,0c-0.285-0.285-0.855-0.57-0.855-0.855
					c-0.285-0.285-0.285-0.855,0-1.426c0.285-0.285,0.57-0.855,0.855-0.855c0.855-0.285,1.711,0,2.282,0.855
					C517.56,158.585,517.56,158.87,517.56,159.156L517.56,159.156z M518.415,154.307c-0.285,0.285-0.57,0.285-0.855,0.285h-0.286
					c-0.855-0.285-1.426-1.141-1.141-1.996c0.285-0.856,0.855-1.427,1.712-1.142c0.855,0.285,1.426,1.142,1.426,1.997
					C518.985,153.737,518.7,154.307,518.415,154.307z M517.845,148.888c-0.856,0-1.712-0.856-1.712-1.712l0,0
					c0-0.57,0.285-0.855,0.57-1.141s0.856-0.57,1.142-0.57c0.855,0,1.711,0.855,1.711,1.711
					C519.556,148.318,518.985,148.888,517.845,148.888z"/>
			</g>
			<g>
				<path fill="#FFFFFF" d="M484.473,103.251c-24.244,0-44.21,19.681-44.21,44.21s19.681,44.21,44.21,44.21
					c24.244,0,44.21-19.681,44.21-43.925l0,0C528.397,122.932,508.717,103.251,484.473,103.251z M484.473,187.963
					c-22.532,0-40.787-18.254-40.787-40.787c0-22.532,18.255-40.502,40.787-40.787c22.533-0.285,40.787,18.255,40.787,40.787l0,0
					C524.975,169.709,507.006,187.963,484.473,187.963z"/>
			</g>
		</g>
	</g>
</g>
</svg>
