<?xml version="1.0" encoding="utf-8"?>
<!-- Generator: Adobe Illustrator 16.0.3, SVG Export Plug-In . SVG Version: 6.00 Build 0)  -->
<!DOCTYPE svg PUBLIC "-//W3C//DTD SVG 1.1//EN" "http://www.w3.org/Graphics/SVG/1.1/DTD/svg11.dtd" [
	<!ENTITY ns_extend "http://ns.adobe.com/Extensibility/1.0/">
	<!ENTITY ns_ai "http://ns.adobe.com/AdobeIllustrator/10.0/">
	<!ENTITY ns_graphs "http://ns.adobe.com/Graphs/1.0/">
	<!ENTITY ns_vars "http://ns.adobe.com/Variables/1.0/">
	<!ENTITY ns_imrep "http://ns.adobe.com/ImageReplacement/1.0/">
	<!ENTITY ns_sfw "http://ns.adobe.com/SaveForWeb/1.0/">
	<!ENTITY ns_custom "http://ns.adobe.com/GenericCustomNamespace/1.0/">
	<!ENTITY ns_adobe_xpath "http://ns.adobe.com/XPath/1.0/">
]>
<svg version="1.1" id="Layer_1" xmlns:x="&ns_extend;" xmlns:i="&ns_ai;" xmlns:graph="&ns_graphs;"
	 xmlns="http://www.w3.org/2000/svg" xmlns:xlink="http://www.w3.org/1999/xlink" x="0px" y="0px" width="500px" height="500px"
	 viewBox="177 0 500 500" enable-background="new 177 0 500 500" xml:space="preserve">
<metadata>
	<sfw  xmlns="&ns_sfw;">
		<slices></slices>
		<sliceSourceBounds  width="500" height="500" y="0.5" x="176.5" bottomLeftOrigin="true"></sliceSourceBounds>
	</sfw>
</metadata>
<title>TARGET 1 B copy 12</title>
<g id="TARGETS">
	<g>
		<rect x="177" y="0" fill="#19486A" width="500" height="500"/>
	</g>
	<g>
		<g>
			<g>
				<path fill="#FFFFFF" d="M237.126,297.468h170.886v-38.502H237.126V297.468z M317.823,272.679h78.059v11.604h-78.059V272.679z
					 M299.363,271.624c3.692,0,6.329,3.165,6.329,6.329c0,3.692-3.165,6.329-6.329,6.329c-3.692,0-6.329-3.164-6.329-6.329
					C293.034,274.789,295.671,272.152,299.363,271.624L299.363,271.624z M277.738,271.624c3.692,0,6.329,3.165,6.329,6.329
					c0,3.692-3.165,6.329-6.329,6.329c-3.692,0-6.329-3.164-6.329-6.329C270.882,274.789,274.046,272.152,277.738,271.624
					L277.738,271.624z M255.586,271.624c3.692,0,6.329,3.165,6.329,6.329c0,3.692-3.165,6.329-6.329,6.329
					c-3.692,0-6.329-3.164-6.329-6.329C249.257,274.789,251.895,272.152,255.586,271.624L255.586,271.624z"/>
			</g>
			<g>
				<path fill="#FFFFFF" d="M237.126,209.388h170.886v-38.502H237.126V209.388z M317.823,185.126h78.586v11.604h-78.586V185.126z
					 M299.363,184.599c3.692,0,6.329,3.165,6.329,6.329c0,3.692-3.165,6.329-6.329,6.329c-3.692,0-6.329-3.164-6.329-6.329
					C293.034,187.237,296.198,184.599,299.363,184.599L299.363,184.599z M277.738,184.599c3.692,0,6.329,2.638,6.329,6.329
					c0,3.692-2.637,6.329-6.329,6.329s-6.329-2.637-6.329-6.329C270.882,187.237,274.046,184.599,277.738,184.599z M255.586,184.599
					c3.692,0,6.329,2.638,6.329,6.329c0,3.692-2.637,6.329-6.329,6.329s-6.329-2.637-6.329-6.329c0,0,0,0,0-0.527
					C249.257,187.237,251.895,184.599,255.586,184.599z"/>
			</g>
			<g>
				<path fill="#FFFFFF" d="M237.126,373.945c0,1.583,1.055,2.638,2.637,2.638l0,0h165.084c1.582,0,2.637-1.055,2.637-3.165l0,0
					V303.27H237.126V373.945z M393.245,314.346h2.637v50.633h-2.637V314.346z M386.916,314.346h2.637v50.633h-2.637V314.346z
					 M380.586,314.346h2.637v50.633h-2.637V314.346z M374.257,314.346h2.637v50.633h-2.637V314.346z M367.928,314.346h2.637v50.633
					h-2.637V314.346z M361.599,314.346h2.637v50.633h-2.637V314.346z M355.27,314.346h2.637v50.633h-2.637V314.346z
					 M348.941,314.346h2.637v50.633h-2.637V314.346z M342.612,314.346h2.637v50.633h-2.637V314.346z M336.283,314.346h2.637v50.633
					h-2.637V314.346z M329.954,314.346h3.165v50.633h-3.165V314.346z M324.152,314.346h2.637v50.633h-2.637V314.346z
					 M317.823,314.346h2.637v50.633h-2.637V314.346z"/>
			</g>
			<g>
				<path fill="#FFFFFF" d="M405.375,123.946H240.291c-1.582,0-3.165,1.055-3.165,2.637v38.502h170.886v-38.502
					C408.013,125.528,406.958,123.946,405.375,123.946z M255.586,153.481c-3.692,0-6.329-2.637-6.329-6.329
					c0-3.691,2.637-6.329,6.329-6.329s6.329,2.638,6.329,6.329l0,0C261.916,150.844,259.278,153.481,255.586,153.481
					L255.586,153.481z M277.738,153.481c-3.692,0-6.329-2.637-6.329-6.329c0-3.691,2.637-6.329,6.329-6.329s6.329,2.638,6.329,6.329
					l0,0C284.067,150.844,281.43,153.481,277.738,153.481L277.738,153.481z M299.89,153.481c-3.692,0-6.329-2.637-6.329-6.329
					c0-3.691,2.637-6.329,6.329-6.329s6.329,2.638,6.329,6.329l0,0C306.219,150.844,303.055,153.481,299.89,153.481L299.89,153.481z
					 M396.409,152.953h-78.586V141.35h78.586V152.953z"/>
			</g>
			<g>
				<path fill="#FFFFFF" d="M237.126,253.692h170.886V215.19H237.126V253.692z M317.823,228.903h78.586v11.604h-78.586V228.903z
					 M299.363,228.375c3.692,0,6.329,2.638,6.329,6.329c0,3.692-2.637,6.329-6.329,6.329s-6.329-2.637-6.329-6.329
					C293.034,231.013,296.198,228.375,299.363,228.375z M277.738,228.375c3.692,0,6.329,2.638,6.329,6.329
					c0,3.692-2.637,6.329-6.329,6.329s-6.329-2.637-6.329-6.329C271.409,231.013,274.046,228.375,277.738,228.375z M255.586,228.375
					c3.692,0,6.329,2.638,6.329,6.329c0,3.692-2.637,6.329-6.329,6.329s-6.329-2.637-6.329-6.329l0,0
					C249.257,231.013,251.895,228.375,255.586,228.375L255.586,228.375z"/>
			</g>
		</g>
		<g>
			<g>
				<path fill="#FFFFFF" d="M615.291,127.637c0-2.109-1.582-4.22-4.22-4.22H468.667c-2.11,0-4.22,1.583-4.22,4.22v90.19h150.316
					L615.291,127.637L615.291,127.637z M608.962,212.553H471.831v-82.278h137.658v82.278H608.962z"/>
			</g>
			<g>
				<path fill="#FFFFFF" d="M615.291,221.519H464.975l-12.131,9.494v4.219c0,1.583,2.638,1.583,2.638,1.583H625.84
					c2.109,0,2.109-2.11,2.109-2.11v-4.219L615.291,221.519z M552.527,233.122h-25.316v-2.637h25.316V233.122z"/>
			</g>
		</g>
		<g>
			<path fill="#FFFFFF" d="M613.709,265.823H556.22c-2.11,0-3.692,1.583-4.22,4.22v103.375c0,2.11,1.582,4.22,4.22,4.22h57.489
				c2.109,0,3.691-1.582,4.22-3.692l0,0V270.042C617.4,267.933,615.818,265.823,613.709,265.823z M584.7,371.308
				c-3.164,0-5.802-2.638-5.802-5.802s2.638-5.802,5.802-5.802c3.165,0,5.802,2.638,5.802,5.802
				C591.029,368.67,588.393,371.308,584.7,371.308C585.228,371.308,584.7,371.308,584.7,371.308L584.7,371.308z M612.127,351.266
				h-54.325v-79.642h54.325V351.266z"/>
		</g>
		<g>
			<g>
				<path fill="#FFFFFF" d="M464.447,308.017c4.22,8.966,4.22,19.515-1.055,28.48l6.329,4.22c3.691-5.802,5.274-12.658,5.274-19.515
					c0-5.802-1.583-12.131-4.22-17.405L464.447,308.017z"/>
			</g>
			<g>
				<path fill="#FFFFFF" d="M482.38,295.886c8.966,16.35,8.438,36.393-1.055,52.215l6.329,4.22
					c11.075-18.46,11.075-41.667,0.527-60.654L482.38,295.886z"/>
			</g>
			<g>
				<path fill="#FFFFFF" d="M506.114,280.064l-6.329,4.219c13.713,23.734,13.713,52.742-0.527,75.949l6.329,4.22
					C521.409,338.608,521.937,305.906,506.114,280.064L506.114,280.064z"/>
			</g>
		</g>
	</g>
</g>
</svg>
