<?xml version="1.0" encoding="utf-8"?>
<!-- Generator: Adobe Illustrator 16.0.3, SVG Export Plug-In . SVG Version: 6.00 Build 0)  -->
<!DOCTYPE svg PUBLIC "-//W3C//DTD SVG 1.1//EN" "http://www.w3.org/Graphics/SVG/1.1/DTD/svg11.dtd" [
	<!ENTITY ns_extend "http://ns.adobe.com/Extensibility/1.0/">
	<!ENTITY ns_ai "http://ns.adobe.com/AdobeIllustrator/10.0/">
	<!ENTITY ns_graphs "http://ns.adobe.com/Graphs/1.0/">
	<!ENTITY ns_vars "http://ns.adobe.com/Variables/1.0/">
	<!ENTITY ns_imrep "http://ns.adobe.com/ImageReplacement/1.0/">
	<!ENTITY ns_sfw "http://ns.adobe.com/SaveForWeb/1.0/">
	<!ENTITY ns_custom "http://ns.adobe.com/GenericCustomNamespace/1.0/">
	<!ENTITY ns_adobe_xpath "http://ns.adobe.com/XPath/1.0/">
]>
<svg version="1.1" id="Layer_1" xmlns:x="&ns_extend;" xmlns:i="&ns_ai;" xmlns:graph="&ns_graphs;"
	 xmlns="http://www.w3.org/2000/svg" xmlns:xlink="http://www.w3.org/1999/xlink" x="0px" y="0px" width="320.054px"
	 height="320.054px" viewBox="266.804 81.027 320.054 320.054" enable-background="new 266.804 81.027 320.054 320.054"
	 xml:space="preserve">
<metadata>
	<sfw  xmlns="&ns_sfw;">
		<slices></slices>
		<sliceSourceBounds  width="320.054" height="320.054" y="99.42" x="266.304" bottomLeftOrigin="true"></sliceSourceBounds>
	</sfw>
</metadata>
<title>TARGET 1.1</title>
<g id="TARGETS">
	<g>
		<rect x="266.804" y="81.027" fill="#DD1367" width="320.054" height="320.054"/>
	</g>
	<g>
		<g>
			<g>
				<g>
					<path fill="#FFFFFF" d="M485.913,199.865c24.646,0,44.902-7.427,44.902-16.542c0,0,0.675-8.44,0.337-10.467
						c0-1.013-0.337-2.363-0.675-3.376c2.701-1.688,4.727-4.389,5.064-7.427c0,0,0.337-9.453,0.337-11.479
						c-1.013-11.141-23.633-17.218-45.239-17.218c-21.945,0-45.24,6.415-45.24,18.231c0,0.675,0.338,10.466,0.338,10.466
						c0,0.675,0.338,1.351,0.675,2.025c-3.376,2.025-5.401,5.401-5.739,9.115c0,0.676,0.338,10.466,0.338,10.466
						c0,2.701,1.351,5.064,3.376,6.415c4.727,3.714,13.167,7.09,23.971,8.777C474.097,199.528,479.836,199.865,485.913,199.865z
						 M490.302,137.744c23.971,0,40.514,7.09,40.514,13.505c0,6.414-16.543,13.504-40.514,13.504s-40.513-7.09-40.513-13.504
						C449.789,144.834,466.331,137.744,490.302,137.744z M445.063,172.856c0.337-2.025,1.688-4.051,3.376-5.063
						c1.351,1.351,3.038,2.363,4.389,3.376c8.103,4.389,21.607,7.428,37.137,7.428c10.804,0.337,21.607-1.351,31.735-5.064
						c1.351-0.338,2.701-1.013,4.052-1.688c0,0.338,0.338,0.676,0.338,1.013c0,6.415-16.543,13.505-40.514,13.505
						S445.063,179.271,445.063,172.856z"/>
				</g>
				<g>
					<path fill="#FFFFFF" d="M535.204,190.749c-0.338-0.675-0.676-1.351-1.013-1.688c-0.338-0.338-0.676-0.676-1.013-1.013
						c-0.676-0.338-1.351-0.676-2.026-1.014c-0.675,1.014-1.351,2.026-2.025,2.701c0.675,0.338,1.351,0.675,1.688,1.013
						c1.35,0.676,2.025,2.025,2.025,3.376c0,1.013-0.676,2.363-1.688,3.039c-0.675,0.337-1.013,1.013-1.688,1.351
						c-0.338,0-2.026,1.013-2.701,1.35c-0.675,0.338-2.701,1.351-4.052,1.688c0,0-2.7,1.013-4.051,1.351
						c-0.338,0-4.052,1.013-5.402,1.351c-0.337,0-4.726,0.675-6.752,1.013c-0.675,0-5.063,0.675-7.09,0.675
						c-0.675,0-7.427,0.338-10.466,0.338c-4.727,0-9.453-0.338-14.18-1.013c-3.376-0.338-7.09-1.013-10.128-1.688
						c-3.714-0.675-7.428-2.025-10.804-3.376c-2.025-1.013-4.051-2.363-5.401-3.714s-2.363-3.038-3.376-4.727c0,0,0,5.739,0,6.077
						v4.727c0,2.701,1.351,5.064,3.376,6.415c4.389,4.051,13.167,7.09,23.97,8.777c5.739,1.013,11.479,1.351,17.556,1.351
						c8.44,0,17.219-0.675,25.321-2.701h0.337c4.39-1.013,8.778-2.7,12.83-5.063l0,0c1.013-0.676,2.025-1.351,2.7-2.026
						c1.351-1.013,2.701-2.7,3.376-4.389c0.338-0.675,0.338-1.688,0.338-2.363c0,0,0.338-9.453,0.338-9.791
						C535.542,192.438,535.542,191.425,535.204,190.749z"/>
				</g>
				<g>
					<path fill="#FFFFFF" d="M530.14,230.25c-3.038,2.025-6.414,3.376-9.791,4.389c-9.79,2.701-20.256,4.051-30.722,3.714
						c-5.064,0-10.129-0.338-15.192-1.014c-3.039-0.675-6.077-1.013-9.453-2.025c-1.688-0.337-3.039-0.675-4.39-1.351
						c-4.389-1.35-8.439-3.038-11.816-5.739c-1.35-1.013-2.362-2.363-3.376-3.714v4.052c0,1.013,0,6.077,0,6.077
						c0,2.701,1.351,5.063,3.376,6.414c4.39,4.052,13.167,7.09,23.971,8.778c5.739,1.013,11.479,1.351,17.556,1.351
						c8.44,0,17.218-1.013,25.658-2.701h0.338c4.389-1.013,8.777-2.701,12.829-5.064l0,0c4.052-2.7,6.752-5.401,6.752-8.777
						c0,0,0.338-9.115,0.338-9.791C534.191,227.211,532.165,228.9,530.14,230.25z"/>
				</g>
				<g>
					<path fill="#FFFFFF" d="M448.775,225.186c4.39,4.051,13.167,7.09,23.971,8.777c5.739,1.014,11.479,1.351,17.556,1.351
						c8.44,0,16.881-1.013,24.983-2.7h0.337c4.39-1.014,8.778-2.701,12.83-5.064l0,0c1.013-0.676,2.025-1.351,2.7-2.025
						c1.351-1.014,2.701-2.701,3.376-4.39c0.338-0.675,0.338-1.688,0.338-2.363c0,0,0.338-9.115,0.338-9.79
						c-1.351,2.025-5.402,7.765-22.958,11.479c-7.427,1.351-15.192,2.025-22.957,2.025c-14.18-0.338-29.372-2.701-35.787-7.09
						c-2.025-1.013-4.051-2.363-5.739-4.051c-1.013-1.013-2.025-2.026-2.7-3.376v4.389v6.414
						C445.063,221.81,446.75,223.835,448.775,225.186z"/>
				</g>
				<g>
					<path fill="#FFFFFF" d="M535.542,257.259c-1.351,2.025-3.377,3.713-5.402,5.063c-3.038,2.025-6.414,3.376-9.791,4.389
						c-9.79,2.701-20.256,4.052-30.722,3.714c-5.064,0-10.129-0.337-15.192-1.013c-3.377-0.338-6.077-1.013-9.116-1.688
						c-1.688-0.338-3.038-0.676-4.389-1.351c-4.389-1.351-8.44-3.039-11.816-5.739c-1.351-1.013-2.363-2.363-3.376-3.714v4.051
						c0,1.014,0,6.077,0,6.077c0,2.701,1.351,5.064,3.376,6.415c4.389,4.051,13.167,7.09,23.971,8.777
						c5.739,1.013,11.479,1.351,17.556,1.351c8.44,0,16.88-1.013,25.32-2.701h0.338c4.389-1.013,8.777-2.7,12.829-5.063l0,0
						c4.052-2.701,6.752-5.402,6.752-8.778C535.542,267.049,535.879,257.934,535.542,257.259z"/>
				</g>
				<g>
					<path fill="#FFFFFF" d="M472.746,266.374c5.739,1.013,11.479,1.351,17.556,1.351c8.44,0,16.881-1.014,24.983-2.701h0.337
						c4.39-1.013,8.778-2.701,12.83-4.727l0,0c1.013-0.675,2.025-1.351,2.7-2.025c1.351-1.013,2.701-2.701,3.376-4.39
						c0.338-0.675,0.338-1.688,0.338-2.363c0,0,0.338-9.115,0.338-9.79c-1.351,2.025-5.402,7.765-22.958,11.479
						c-7.427,1.351-15.192,2.025-22.957,2.025c-14.18-0.337-29.372-2.7-35.787-7.09c-2.025-1.688-3.713-3.038-5.401-4.389
						c-1.013-1.013-2.025-2.025-2.701-3.376v4.389l0.338,6.415c0,2.363,1.351,4.727,3.376,6.414
						C453.502,261.31,462.28,264.686,472.746,266.374z"/>
				</g>
				<g>
					<path fill="#FFFFFF" d="M530.815,294.396c-3.039,2.025-6.415,3.376-9.791,4.389c-9.791,2.701-20.257,4.051-30.723,3.714
						c-5.064,0-10.128-0.338-15.192-1.013c-3.038-0.338-6.077-1.014-9.115-1.688c-1.688-0.338-3.039-0.675-4.389-1.351
						c-4.39-1.35-8.44-3.038-11.816-5.739c-1.351-1.013-2.363-2.363-3.376-3.713v4.051c0,1.013,0,6.077,0,6.077
						c0,2.7,1.35,5.063,3.376,6.414c4.389,4.052,13.166,7.09,23.97,8.778c5.739,1.013,11.479,1.351,17.556,1.351
						c8.44,0,16.881-1.014,24.983-2.701h0.338c4.727-1.013,9.115-2.701,13.166-5.064l0,0c4.052-2.701,6.753-5.401,6.753-8.777
						c0,0,0.337-9.115,0.337-9.791C534.528,291.358,532.841,293.045,530.815,294.396z"/>
				</g>
				<g>
					<path fill="#FFFFFF" d="M449.451,289.669c4.389,4.051,13.167,7.09,23.97,8.777c5.74,1.013,11.479,1.351,17.557,1.351
						c8.439,0,16.88-0.675,24.982-2.7h0.338c4.389-1.014,8.777-2.701,12.829-5.064l0,0c1.013-0.675,2.025-1.351,2.701-2.025
						c1.351-1.013,2.7-2.701,3.376-4.39c0.338-0.675,0.338-1.688,0.338-2.363c0,0,0.337-9.115,0.337-9.79
						c-1.351,2.025-5.401,7.765-22.957,11.479c-7.428,1.351-15.192,2.025-22.958,2.025c-14.18-0.337-29.372-2.7-35.786-7.09
						c-2.025-1.013-4.052-2.363-5.739-3.714c-1.013-1.013-2.026-2.025-2.701-3.376v4.39v6.414
						C446.075,285.955,447.426,288.319,449.451,289.669z"/>
				</g>
				<g>
					<path fill="#FFFFFF" d="M536.217,321.405c-1.351,2.025-3.376,3.713-5.401,5.063c-3.039,2.026-6.415,3.376-9.791,4.39
						c-9.791,2.7-20.257,4.051-30.723,3.713c-5.064,0-10.128-0.337-15.192-1.013c-3.376-0.337-6.077-1.013-9.115-1.688
						c-1.688-0.338-3.039-0.676-4.389-1.351c-4.39-1.351-8.44-3.039-11.816-5.739c-1.351-1.013-2.363-2.026-3.376-3.714v4.051
						c0,1.014,0,6.077,0,6.077c0,2.701,1.35,5.064,3.376,6.415c4.389,4.051,13.166,7.09,23.97,8.777
						c5.739,1.014,11.479,1.351,17.556,1.351c8.44,0,16.881-1.013,24.983-2.7h0.338c4.389-1.014,8.777-2.701,12.829-5.064l0,0
						c4.051-2.701,6.752-5.402,6.752-8.778C536.217,331.195,536.555,322.417,536.217,321.405z"/>
				</g>
				<g>
					<path fill="#FFFFFF" d="M473.421,330.52c5.74,1.013,11.479,1.351,17.557,1.351c8.439,0,16.88-1.013,24.982-2.701h0.338
						c4.389-1.013,8.777-2.701,12.829-5.064l0,0c1.013-0.675,2.025-1.351,2.701-2.025c1.351-1.013,2.7-2.701,3.376-4.389
						c0.338-0.676,0.675-1.688,0.675-2.363c0,0,0.338-9.115,0.338-9.791c-1.351,2.025-5.401,7.766-22.958,11.479
						c-7.427,1.351-15.192,2.026-22.957,2.026c-14.18-0.338-29.372-2.701-35.786-7.09c-2.026-1.013-4.052-2.363-5.74-3.714
						c-1.013-1.013-2.025-2.025-2.7-3.376v4.389v6.415c0.337,2.363,1.351,4.727,3.376,6.414
						C454.178,325.793,462.618,328.831,473.421,330.52z"/>
				</g>
			</g>
			<g>
				<g>
					<path fill="#FFFFFF" d="M363.36,330.182c24.646,0,44.902-7.427,44.902-16.543c0,0,0.675-8.44,0.337-10.466
						c0-1.013-0.337-2.363-0.675-3.376c2.701-1.688,4.727-4.389,5.064-7.427c0,0,0.337-9.453,0.337-11.479
						c-1.013-11.479-23.632-17.556-45.24-17.556c-21.944,0-45.239,6.415-45.239,18.231c0,0.675,0.337,10.466,0.337,10.466
						c0,0.675,0.337,1.351,0.675,2.025c-3.376,2.025-5.402,5.401-5.739,9.115c0,0.676,0.337,10.466,0.337,10.466
						c0,2.701,1.351,5.064,3.376,6.415c4.727,4.051,13.167,7.09,23.97,8.777C351.544,329.507,357.621,330.182,363.36,330.182z
						 M368.087,268.062c23.971,0,40.513,7.09,40.513,13.505c0,6.414-16.542,13.504-40.513,13.504
						c-23.97,0-40.513-7.09-40.513-13.504C327.574,275.152,344.117,268.062,368.087,268.062z M322.848,303.173
						c0.337-2.025,1.688-4.051,3.376-5.063c1.35,1.35,3.039,2.363,4.727,3.376c8.103,4.389,21.607,7.427,37.137,7.427
						c10.804,0.338,21.607-1.351,32.073-4.727c1.351-0.675,2.701-1.013,4.051-1.688c0,0.337,0.337,0.675,0.337,1.013
						c0,6.414-16.543,13.504-40.513,13.504S322.848,309.588,322.848,303.173z"/>
				</g>
				<g>
					<path fill="#FFFFFF" d="M412.989,321.067c-0.338-0.675-0.675-1.351-1.013-1.688c-0.338-0.337-0.675-0.675-1.013-1.013
						c-0.675-0.337-1.35-0.675-1.688-1.013c-0.675,1.013-1.351,2.025-2.025,2.701c0.675,0.337,1.35,0.675,1.688,1.013
						c1.35,0.675,2.025,2.025,2.025,3.376c0,1.013-0.675,2.363-1.688,3.038c-0.675,0.338-1.013,1.014-1.688,1.351
						c-0.337,0-1.688,1.013-2.701,1.351s-2.701,1.351-4.051,1.688c0,0-2.701,1.013-4.051,1.351c-0.338,0-4.052,1.013-5.402,1.35
						c-0.338,0-4.727,0.676-6.752,1.014c-0.675,0-5.064,0.675-7.09,0.675c-0.675,0-7.427,0.338-10.466,0.338
						c-4.727,0-9.453-0.338-14.18-1.013c-3.376-0.676-7.09-1.014-10.128-2.026c-3.714-0.675-7.428-2.025-10.804-3.376
						c-2.026-1.013-4.051-2.363-5.402-3.714c-1.35-1.351-2.363-3.038-3.376-4.727v5.739v5.402c0,2.701,1.351,5.064,3.376,6.414
						c4.389,4.052,13.167,7.09,23.97,8.778c5.74,1.013,11.479,1.351,17.556,1.351c8.44,0,16.881-1.013,24.983-2.701h0.337
						c4.389-1.013,8.778-2.701,12.829-5.064l0,0c1.013-0.675,2.026-1.35,2.701-2.025c1.35-1.013,2.701-2.701,3.376-4.389
						c0.337-0.676,0.337-1.688,0.337-2.363c0,0,0.338-9.453,0.338-9.791S412.989,321.741,412.989,321.067z"/>
				</g>
			</g>
		</g>
		<g>
			<path fill="#FFFFFF" d="M365.049,135.044l28.697,36.462c0.337,0.675,0.337,1.35,0.337,1.688
				c-0.337,0.676-0.675,1.013-1.688,1.013h-14.517v64.821c0,0.675-0.675,1.351-1.351,1.351h-24.983
				c-0.675,0-1.351-0.338-1.351-1.351v-64.821h-14.517c-1.013,0-1.688-0.337-1.688-1.013c0-0.675,0-1.013,0.338-1.688l27.684-36.125
				c0.337-0.675,1.013-1.013,2.025-1.013C364.036,134.368,364.711,134.706,365.049,135.044z"/>
		</g>
	</g>
</g>
</svg>
