<?xml version="1.0" encoding="utf-8"?>
<!-- Generator: Adobe Illustrator 16.0.3, SVG Export Plug-In . SVG Version: 6.00 Build 0)  -->
<!DOCTYPE svg PUBLIC "-//W3C//DTD SVG 1.1//EN" "http://www.w3.org/Graphics/SVG/1.1/DTD/svg11.dtd" [
	<!ENTITY ns_extend "http://ns.adobe.com/Extensibility/1.0/">
	<!ENTITY ns_ai "http://ns.adobe.com/AdobeIllustrator/10.0/">
	<!ENTITY ns_graphs "http://ns.adobe.com/Graphs/1.0/">
	<!ENTITY ns_vars "http://ns.adobe.com/Variables/1.0/">
	<!ENTITY ns_imrep "http://ns.adobe.com/ImageReplacement/1.0/">
	<!ENTITY ns_sfw "http://ns.adobe.com/SaveForWeb/1.0/">
	<!ENTITY ns_custom "http://ns.adobe.com/GenericCustomNamespace/1.0/">
	<!ENTITY ns_adobe_xpath "http://ns.adobe.com/XPath/1.0/">
]>
<svg version="1.1" id="Layer_1" xmlns:x="&ns_extend;" xmlns:i="&ns_ai;" xmlns:graph="&ns_graphs;"
	 xmlns="http://www.w3.org/2000/svg" xmlns:xlink="http://www.w3.org/1999/xlink" x="0px" y="0px" width="320.054px"
	 height="320.054px" viewBox="266.804 81.027 320.054 320.054" enable-background="new 266.804 81.027 320.054 320.054"
	 xml:space="preserve">
<metadata>
	<sfw  xmlns="&ns_sfw;">
		<slices></slices>
		<sliceSourceBounds  width="320.054" height="320.054" x="266.304" y="99.42" bottomLeftOrigin="true"></sliceSourceBounds>
	</sfw>
</metadata>
<title>TARGET 1 A</title>
<g id="TARGETS">
	<g>
		<rect x="266.804" y="81.027" fill="#C5192D" width="320.054" height="320.054"/>
	</g>
	<g>
		<g>
			<path fill="#FFFFFF" d="M528.452,233.963c-3.714-2.7-8.104-4.051-12.492-4.051h-15.192l-12.153,12.153l-6.077-6.076l-6.077-6.077
				h-16.205c-6.415,0-12.492,3.038-16.881,7.765l45.577,13.505l0,0l44.228-13.167C531.828,236.664,530.14,235.314,528.452,233.963z"
				/>
		</g>
		<g>
			<path fill="#FFFFFF" d="M405.562,233.963c-3.714-2.7-8.103-4.051-12.492-4.051h-15.192l-12.154,12.153l-6.077-6.076l-6.077-6.077
				h-16.205c-6.415,0-12.492,3.038-16.88,7.765l45.577,13.505l0,0l44.227-13.167C408.938,236.664,407.25,235.314,405.562,233.963z"
				/>
		</g>
		<g>
			<path fill="#FFFFFF" d="M450.802,245.105l-9.453-2.701l-2.363-0.675l-1.688-0.676l-6.752-2.025l0,0v26.334
				c0.675,0,1.351,0,2.025,0.337c3.376,1.014,5.739,4.052,5.739,7.766c0,4.389-3.376,8.103-7.765,8.103v21.944l55.03,12.491l0,0
				v-27.684v-9.791v-11.815v-11.479l-25.996-7.765L450.802,245.105z"/>
		</g>
		<g>
			<path fill="#FFFFFF" d="M541.618,266.711c1.351-1.013,2.701-1.35,4.39-1.35h0.337v-26.334l0,0l-5.401,1.688l-2.025,0.675
				l-2.026,0.675l-11.141,3.377l-8.778,2.7l-25.995,7.766v33.086v27.346l0,0l55.03-12.491v-21.944l0,0
				c-1.688,0-3.039-0.338-4.39-1.351c-0.337,0-0.675-0.338-0.675-0.676c-3.376-2.7-4.052-8.103-1.013-11.479
				C540.269,267.387,540.943,267.049,541.618,266.711L541.618,266.711z M532.165,293.045l-30.385,7.765v-4.389l30.385-7.765V293.045
				z M532.165,283.592l-30.385,7.766v-4.39l30.385-7.765V283.592z M532.165,274.139l-30.385,7.766v-4.39l30.385-8.103V274.139z
				 M532.165,265.024l-30.385,7.765V268.4l30.385-8.103V265.024z"/>
		</g>
		<g>
			<path fill="#FFFFFF" d="M504.819,194.463c-2.026-1.688-3.714-3.376-7.09-1.688c-2.363,1.014-3.039,1.688-5.739,3.039
				c-4.727,2.363-10.129,3.714-15.53,4.727c-4.052,0.675-8.103,1.013-12.154,0.675c1.351,13.505,13.505,23.295,27.009,21.607
				c11.142-1.351,20.257-9.791,21.607-21.27C510.221,199.19,507.52,196.826,504.819,194.463z"/>
		</g>
		<g>
			<path fill="#FFFFFF" d="M464.306,195.814c3.376,0.338,7.09,0,10.466-0.676c5.064-0.675,10.129-2.363,14.518-4.389
				c2.363-1.013,5.064-2.363,7.765-3.038c1.688-0.676,3.377-1.013,5.064-0.676c0.675,0.338,1.688,0.676,2.363,1.351
				c1.013,0.676,1.351,1.013,2.025,1.688c0,0,1.013,0.675,6.752,5.063c0.676,0.676,1.351,1.014,1.688,1.014
				c1.351-0.338,0.675-4.39,0.338-6.415c-1.013-6.077-3.714-12.154-7.766-16.881c-1.013-1.688-3.038-2.7-5.063-2.363
				c-2.701,0-5.064-1.013-7.09-3.038c-3.039-2.025-10.466-1.351-18.906,3.038c-6.077,3.039-13.167,13.167-16.543,22.282
				C458.566,194.801,462.28,195.476,464.306,195.814z"/>
		</g>
		<g>
			<path fill="#FFFFFF" d="M417.716,240.716l-2.026,0.675l-2.025,0.675l-11.141,3.377l-8.778,2.7l-25.996,7.766v11.479v11.479
				v10.129v27.346l0,0l55.368-12.491v-22.282h-0.337c-1.688,0-3.039-0.676-4.389-1.351c-0.338,0-0.675-0.338-0.675-0.675
				c-3.376-2.701-4.051-8.104-1.013-11.479c1.688-2.025,3.713-3.038,6.077-3.038h0.337V238.69l0,0L417.716,240.716z
				 M409.275,292.707l-30.385,7.766v-4.39l30.385-7.765V292.707z M409.275,283.592l-30.385,7.766v-4.39l30.385-7.765V283.592z
				 M409.275,274.139l-30.385,7.766v-4.39l30.385-8.103V274.139z M409.275,264.686l-30.385,7.766v-4.39l30.385-8.103V264.686z"/>
		</g>
		<g>
			<path fill="#FFFFFF" d="M337.027,247.806l-7.427-2.363l-1.351-0.338l-1.688-0.338l-8.103-2.363l-2.026-0.675h-0.337l-1.688-0.676
				l-6.752-2.025l0,0v26.334l0,0c1.013,0,2.026,0.337,3.039,0.675c0.338,0,0.675,0.338,1.013,0.675
				c0.675,0.338,1.351,0.676,1.688,1.351c3.038,3.039,3.038,8.44,0,11.479c-1.351,1.35-3.376,2.363-5.74,2.363v21.944l55.031,12.491
				l0,0v-27.684v-33.086l-4.052-1.351L337.027,247.806z"/>
		</g>
		<g>
			<path fill="#FFFFFF" d="M324.198,191.425c0.675-2.026,3.039-5.739,10.466-6.415c1.351-0.338,2.701-0.675,4.051-1.351
				c1.351-2.363,2.701-4.389,4.727-6.414c0-0.338,0-0.676,0-1.351c-0.337-3.376-4.051-7.428-11.479-4.052
				c-9.453,4.39-8.44,18.231-8.44,18.231C323.86,191.087,323.86,191.762,324.198,191.425z"/>
		</g>
		<g>
			<path fill="#FFFFFF" d="M391.382,183.323c1.35,0.675,2.701,1.35,4.389,1.35c7.428,1.014,9.791,4.39,10.466,6.415
				c0,0.675,0.338-0.338,0.675-1.688c0,0,1.013-13.842-8.44-18.23c-7.428-3.376-11.141,0.675-11.479,4.051c0,0.676,0,1.351,0,1.688
				C388.681,179.271,390.369,180.959,391.382,183.323z"/>
		</g>
		<g>
			<path fill="#FFFFFF" d="M365.049,223.497c14.179,0,25.658-11.479,25.658-25.658s-11.479-25.658-25.658-25.658
				c-14.18,0-25.659,11.479-25.659,25.658l0,0C339.39,212.019,350.869,223.497,365.049,223.497L365.049,223.497z"/>
		</g>
	</g>
</g>
</svg>
