<?xml version="1.0" encoding="utf-8"?>
<!-- Generator: Adobe Illustrator 16.0.3, SVG Export Plug-In . SVG Version: 6.00 Build 0)  -->
<!DOCTYPE svg PUBLIC "-//W3C//DTD SVG 1.1//EN" "http://www.w3.org/Graphics/SVG/1.1/DTD/svg11.dtd" [
	<!ENTITY ns_extend "http://ns.adobe.com/Extensibility/1.0/">
	<!ENTITY ns_ai "http://ns.adobe.com/AdobeIllustrator/10.0/">
	<!ENTITY ns_graphs "http://ns.adobe.com/Graphs/1.0/">
	<!ENTITY ns_vars "http://ns.adobe.com/Variables/1.0/">
	<!ENTITY ns_imrep "http://ns.adobe.com/ImageReplacement/1.0/">
	<!ENTITY ns_sfw "http://ns.adobe.com/SaveForWeb/1.0/">
	<!ENTITY ns_custom "http://ns.adobe.com/GenericCustomNamespace/1.0/">
	<!ENTITY ns_adobe_xpath "http://ns.adobe.com/XPath/1.0/">
]>
<svg version="1.1" id="Layer_1" xmlns:x="&ns_extend;" xmlns:i="&ns_ai;" xmlns:graph="&ns_graphs;"
	 xmlns="http://www.w3.org/2000/svg" xmlns:xlink="http://www.w3.org/1999/xlink" x="0px" y="0px" width="301.719px"
	 height="301.719px" viewBox="275.981 76.384 301.719 301.719" enable-background="new 275.981 76.384 301.719 301.719"
	 xml:space="preserve">
<metadata>
	<sfw  xmlns="&ns_sfw;">
		<slices></slices>
		<sliceSourceBounds  width="301.719" height="301.719" x="275.481" y="122.397" bottomLeftOrigin="true"></sliceSourceBounds>
	</sfw>
</metadata>
<title>TARGET 1 B</title>
<g id="TARGETS">
	<g>
		<rect x="275.981" y="76.384" fill="#E5243B" width="301.719" height="301.719"/>
	</g>
	<g>
		<g>
			<polygon fill="#FFFFFF" points="363.187,149.586 353.958,149.586 353.958,326.862 480.946,326.862 480.946,316.04 
				363.187,316.04 			"/>
		</g>
		<g>
			<path fill="#FFFFFF" d="M373.054,127.944v177.275h126.989V127.944H373.054z M463.76,159.771c2.864,0,5.411,2.546,5.411,5.41
				c0,2.865-2.547,5.411-5.411,5.411s-5.41-2.546-5.41-5.411C458.668,162.317,460.896,160.089,463.76,159.771L463.76,159.771z
				 M448.483,192.235l4.455-14.641c0,0,1.592-4.138,5.093-4.138h11.458c3.501,0,5.092,4.138,5.092,4.138l4.456,14.641
				c0,0,0.637,2.546-1.592,3.501c-2.228,0.954-2.864-1.91-2.864-1.91l-3.501-12.412c0,0-0.318-0.955-0.955-0.637
				c-0.636,0.318-0.317,1.273-0.317,1.273l6.365,22.915h-6.048v16.55c-0.317,1.592-1.591,2.546-3.183,2.546
				c-1.272,0-2.228-1.272-2.546-2.546v-16.231h-1.591v16.55c-0.318,1.591-1.592,2.546-3.184,2.546c-1.272,0-2.228-1.272-2.546-2.546
				v-16.55h-5.729l6.365-22.916c0,0,0.318-0.954-0.318-1.272s-0.955,0.318-0.955,0.318l-3.501,12.094c0,0-0.636,2.546-2.864,1.91
				C447.847,194.781,448.483,192.235,448.483,192.235z M437.025,186.505c2.546,0,4.456,1.91,4.456,4.456s-1.91,4.456-4.456,4.456
				s-4.456-1.91-4.456-4.456l0,0C432.569,188.415,434.479,186.505,437.025,186.505z M428.433,192.552
				c0.636,0,0.954,0.318,1.272,0.637c0,0,2.229,3.819,2.864,4.456c0.318,0.318,0.955,0.637,1.273,0.637h5.41
				c0.637,0,0.955-0.318,1.273-0.637c0.955-1.273,1.91-2.864,2.864-4.456c0.318-0.954,1.592-1.272,2.229-0.637
				c0.636,0.318,0.954,1.273,0.636,1.91l0,0c0,0.318-0.317,0.637-0.317,0.637l-4.138,7.639c0,0.317-0.318,0.636-0.318,0.954v1.273
				l0,0v0.318c0,0.318,0,0.637,0.318,1.272l2.228,8.594h-2.546v6.365c0,1.273-1.273,2.228-2.546,1.909
				c-0.955,0-1.91-0.954-1.91-1.909v-6.047v-0.318h-1.272v0.318v6.047c0,1.273-0.955,2.228-2.229,2.228
				c-1.272,0-2.228-0.954-2.228-2.228l0,0v-6.365h-2.546l2.228-8.594c0-0.317,0.318-0.954,0.318-1.272l0,0v-1.273
				c0-0.318,0-0.637-0.318-0.955l-4.456-8.274c0-0.318,0-0.318,0-0.637C426.841,193.189,427.478,192.552,428.433,192.552z
				 M411.246,157.543c3.183,0,5.729,2.546,5.729,5.729S414.428,169,411.246,169s-5.729-2.546-5.729-5.729
				S408.063,157.543,411.246,157.543L411.246,157.543z M397.56,194.144v-15.595c0-3.819,2.865-7.002,7.002-7.639h13.367
				c3.82,0.318,6.684,3.501,6.684,7.639v15.595c0,1.273-0.955,2.228-2.229,2.228c-1.272,0-2.228-0.954-2.228-2.228v-13.367
				c0-0.637,0-1.273-0.955-1.273c-0.955,0-0.955,0.637-0.955,0.955v40.42c0,1.91-1.273,3.183-3.183,3.183s-3.183-1.272-3.183-3.183
				v-23.233c0-0.318-0.318-0.955-0.637-0.955l0,0l0,0c-0.636,0-0.955,0.318-0.955,0.955l0,0v23.233c0,1.91-1.273,3.183-3.183,3.183
				c-1.91,0-3.183-1.272-3.183-3.183v-40.42c0-0.318,0-0.955-0.637-0.955s-0.955,0.637-0.955,1.273v13.367
				c0,0.955-0.955,1.909-1.909,2.228l-5.093,26.417c0,0.318-0.318,0.636-0.955,0.636l0,0c-0.318,0-0.636-0.636-0.636-0.954l0,0
				l5.092-26.417C398.197,195.417,397.878,194.781,397.56,194.144z M480.946,282.622L480.946,282.622
				c0,0.318-0.318,0.318-0.318,0.318h-88.16c-0.318,0-0.318-0.318-0.636-0.318v-14.004c0-0.318,0.318-0.318,0.636-0.318h88.16
				c0.318,0,0.318,0,0.318,0.318l0,0V282.622z M480.946,257.797L480.946,257.797c0,0.318-0.318,0.318-0.318,0.318h-88.16
				c-0.318,0-0.318-0.318-0.636-0.318v-14.003c0-0.318,0.318-0.318,0.636-0.318h88.16c0.318,0,0.318,0.318,0.318,0.318l0,0V257.797z
				"/>
		</g>
	</g>
</g>
</svg>
