<?xml version="1.0" encoding="utf-8"?>
<!-- Generator: Adobe Illustrator 16.0.3, SVG Export Plug-In . SVG Version: 6.00 Build 0)  -->
<!DOCTYPE svg PUBLIC "-//W3C//DTD SVG 1.1//EN" "http://www.w3.org/Graphics/SVG/1.1/DTD/svg11.dtd" [
	<!ENTITY ns_extend "http://ns.adobe.com/Extensibility/1.0/">
	<!ENTITY ns_ai "http://ns.adobe.com/AdobeIllustrator/10.0/">
	<!ENTITY ns_graphs "http://ns.adobe.com/Graphs/1.0/">
	<!ENTITY ns_vars "http://ns.adobe.com/Variables/1.0/">
	<!ENTITY ns_imrep "http://ns.adobe.com/ImageReplacement/1.0/">
	<!ENTITY ns_sfw "http://ns.adobe.com/SaveForWeb/1.0/">
	<!ENTITY ns_custom "http://ns.adobe.com/GenericCustomNamespace/1.0/">
	<!ENTITY ns_adobe_xpath "http://ns.adobe.com/XPath/1.0/">
]>
<svg version="1.1" id="Layer_1" xmlns:x="&ns_extend;" xmlns:i="&ns_ai;" xmlns:graph="&ns_graphs;"
	 xmlns="http://www.w3.org/2000/svg" xmlns:xlink="http://www.w3.org/1999/xlink" x="0px" y="0px" width="301.719px"
	 height="301.719px" viewBox="275.981 76.384 301.719 301.719" enable-background="new 275.981 76.384 301.719 301.719"
	 xml:space="preserve">
<metadata>
	<sfw  xmlns="&ns_sfw;">
		<slices></slices>
		<sliceSourceBounds  width="301.719" height="301.719" y="122.397" x="275.481" bottomLeftOrigin="true"></sliceSourceBounds>
	</sfw>
</metadata>
<title>TARGET 1 B copy 6</title>
<g id="TARGETS">
	<g>
		<rect x="275.981" y="76.384" fill="#DD1367" width="301.719" height="301.719"/>
	</g>
	<g>
		<g>
			<path fill="#FFFFFF" d="M371.78,297.899c-13.049-4.773-21.005-7.001-27.689-10.184c-6.684-3.183-9.866-5.729-11.458-3.819
				c-1.91,2.546-0.636,7.002,4.138,10.185s13.686,6.684,15.595,7.638c1.909,0.955,2.864,2.229,1.273,3.501
				c-1.591,1.273-11.14-4.137-14.004-6.047c-6.365-4.455-11.776-10.185-16.231-16.55c-3.501-5.729-9.548-19.096-10.821-20.688
				c-1.273-1.591-3.501-5.092-5.729-4.138c-2.228,0.955-1.273,4.774-0.318,7.639c3.819,13.049,8.912,25.462,15.277,37.237
				c5.729,9.866,7.638,11.776,16.868,16.231c9.229,4.456,18.141,5.411,22.279,8.912c4.774,3.819,8.275,8.593,10.502,14.322
				c0.318,0.636,0.637,1.272,0.955,2.228h29.917c-5.729-11.776-11.139-22.597-11.776-24.825
				C388.331,309.675,381.329,301.4,371.78,297.899z"/>
		</g>
		<g>
			<path fill="#FFFFFF" d="M547.465,257.797c-2.228-0.954-4.138,2.229-5.729,4.138c-1.591,1.91-7.319,14.959-10.82,21.006
				c-4.456,6.365-9.867,11.776-16.232,16.55c-2.864,1.909-12.73,7.002-14.004,6.047c-1.272-0.954,0-2.546,1.273-3.501
				c5.41-2.228,10.503-4.773,15.596-7.638c4.773-3.183,6.047-7.957,4.137-10.185c-1.591-1.91-4.773,0.954-11.457,3.819
				c-6.684,2.864-14.641,5.092-27.689,10.184c-9.548,3.501-16.55,11.776-18.778,21.643c-0.637,2.228-5.729,13.049-11.775,24.825
				h29.917l0.955-2.228c2.228-5.729,5.729-10.503,10.503-14.322c4.137-3.183,13.049-4.456,22.278-8.912
				c9.23-4.455,10.821-6.365,16.868-16.231c6.365-11.775,11.458-24.507,15.596-37.237
				C548.737,262.89,549.692,258.752,547.465,257.797z"/>
		</g>
		<g>
			<path fill="#FFFFFF" d="M392.786,158.816c4.774,0,8.593-3.819,8.593-8.593c0-4.774-3.819-8.594-8.593-8.594
				s-8.593,3.819-8.593,8.594C384.193,154.996,388.012,158.816,392.786,158.816L392.786,158.816z"/>
		</g>
		<g>
			<path fill="#FFFFFF" d="M444.346,193.189c-0.955,0-1.592,0.318-2.228,1.273l0,0c-0.318,0-3.501,6.047-4.774,7.32
				c-0.637,0.637-1.273,0.955-2.228,0.955h-8.594c-0.955,0-1.591-0.318-2.228-0.955c-0.955-0.955-4.456-7.002-4.774-7.32l0,0
				c-0.318-0.637-1.273-1.273-2.228-1.273h-0.318v-0.318l-7.002-23.233c0,0-2.546-6.684-8.275-6.684h-18.459
				c-5.729,0-8.275,6.684-8.275,6.684l-7.002,23.233c0,0-1.273,4.138,2.228,5.411c3.501,0.955,4.774-3.183,4.774-3.183l5.729-19.415
				c0,0,0.318-1.591,1.591-1.272s0.637,1.909,0.637,1.909l-9.866,36.283h9.229v26.098c-0.318,2.546,1.591,4.774,4.138,4.774l0,0
				c2.546,0.318,4.774-1.592,4.774-4.138l0,0v-26.734h2.546v26.098c-0.318,2.546,1.591,4.774,4.137,4.774l0,0
				c2.546,0.318,4.774-1.592,4.774-4.138l0,0v-26.734h9.23l-9.548-36.283c0,0-0.318-1.591,0.637-1.909
				c0.955-0.318,1.591,1.272,1.591,1.272l5.729,19.415c0,0,0.955,4.138,4.774,3.183c0.318,0,0.637-0.318,0.955-0.318l6.684,12.094
				c0.318,0.637,0.318,1.273,0.318,1.592v2.546l-3.501,14.004h3.819v11.458l0,0c-0.318,1.909,1.273,3.501,3.183,3.819l0,0
				c1.91,0.318,3.819-1.273,3.819-3.183l0,0v-12.095h1.909v11.458c-0.317,1.909,1.273,3.501,3.184,3.819l0,0
				c1.909,0.318,3.818-1.273,3.818-3.183l0,0v-12.095h3.819l-3.819-14.004v-2.546c0-0.637,0.318-1.273,0.318-1.592l6.684-12.094
				c0.318-0.637,0.637-1.273,0.637-2.228C446.892,194.462,445.937,193.189,444.346,193.189z"/>
		</g>
		<g>
			<path fill="#FFFFFF" d="M430.979,197.963c3.819,0,7.32-3.183,7.32-7.002s-3.183-7.32-7.002-7.32s-7.32,3.183-7.32,7.002l0,0l0,0
				C423.977,194.781,427.159,197.963,430.979,197.963z"/>
		</g>
		<g>
			<path fill="#FFFFFF" d="M338.999,154.361c5.092,0,9.23-3.819,9.23-8.912c0-5.092-3.819-9.229-8.912-9.229
				s-9.229,3.819-9.229,8.911l0,0C330.087,150.223,334.225,154.361,338.999,154.361z"/>
		</g>
		<g>
			<path fill="#FFFFFF" d="M321.176,198.6c1.91,0,3.501-1.592,3.501-3.501v-21.643c0-0.955,0.318-1.909,1.591-1.909
				s1.273,0.954,1.273,1.909v64.608c-0.318,2.864,1.91,5.093,4.456,5.411c2.864,0.318,5.092-1.91,5.41-4.456l0,0v-38.511
				c0-0.637,0.637-1.591,1.273-1.591l0,0l0,0c0.636,0,1.273,0.636,1.591,1.272v37.556c-0.318,2.864,1.91,5.093,4.456,5.411
				c2.864,0.318,5.092-1.91,5.411-4.456l0,0v-65.563c0-0.637,0.318-1.909,1.273-1.909c0.955,0,1.591,0.954,1.591,1.909v21.643
				c0,1.272,0.955,2.546,2.228,3.183c0,0.318,0,0.637,0,0.637l8.275,42.647c0,0.955,0.955,1.592,1.591,1.592h0.318
				c0.955-0.318,1.591-1.273,1.273-2.229l-7.957-42.647c0-0.318,0-0.318-0.318-0.637c0.955-0.637,1.591-1.591,1.591-2.864v-25.144
				c0-6.365-4.774-11.457-11.139-12.094h-21.006c-6.365,0.637-11.14,5.729-11.14,12.094v25.144
				C317.356,197.008,318.948,198.6,321.176,198.6C320.857,198.6,320.857,198.6,321.176,198.6L321.176,198.6z"/>
		</g>
		<g>
			<rect x="448.165" y="222.788" fill="#FFFFFF" width="41.375" height="20.051"/>
		</g>
		<g>
			<path fill="#FFFFFF" d="M486.039,200.509h-4.138c0-3.183-2.546-5.729-5.729-5.729s-5.729,2.546-5.729,5.729h-4.138v20.051h19.733
				V200.509L486.039,200.509z M476.173,196.053c2.546,0,4.455,1.91,4.455,4.456l0,0l0,0h-8.593
				C471.717,198.281,473.626,196.053,476.173,196.053L476.173,196.053L476.173,196.053L476.173,196.053z"/>
		</g>
		<g>
			<path fill="#FFFFFF" d="M511.5,154.042c5.093,0,8.912-4.138,8.912-8.912c0-4.773-4.138-9.229-8.912-9.229
				c-5.092,0-8.911,4.138-8.911,8.911l0,0l0,0C502.589,149.905,506.408,154.042,511.5,154.042L511.5,154.042L511.5,154.042z"/>
		</g>
		<g>
			<path fill="#FFFFFF" d="M493.359,198.281c1.909,0,3.501-1.592,3.501-3.501v-21.643c0-0.955,0.318-1.909,1.591-1.909
				c1.273,0,1.273,0.954,1.273,1.909v64.608c-0.318,2.864,1.909,5.093,4.456,5.411c2.546,0.318,5.092-1.91,5.41-4.456l0,0v-38.192
				c0-0.637,0.637-1.272,1.273-1.591h0.317c0.637,0,1.273,0.636,1.273,1.272l0,0v37.237c-0.318,2.865,1.909,5.093,4.456,5.411
				c2.546,0.318,5.092-1.91,5.41-4.456l0,0v-65.245c0-0.637,0.318-1.909,1.273-1.909s1.591,0.954,1.591,1.909v21.643
				c0.318,1.909,1.91,3.501,3.819,3.183l0,0c1.592-0.318,2.864-1.592,3.183-3.183v-25.144c0-6.365-4.773-11.457-10.821-12.094
				h-20.369c-6.365,0.637-11.139,5.729-10.82,12.094v25.144C489.858,196.69,491.449,198.281,493.359,198.281z"/>
		</g>
		<g>
			<rect x="525.186" y="200.509" fill="#FFFFFF" width="11.776" height="25.462"/>
		</g>
	</g>
</g>
</svg>
