<?xml version="1.0" encoding="utf-8"?>
<!-- Generator: Adobe Illustrator 16.0.3, SVG Export Plug-In . SVG Version: 6.00 Build 0)  -->
<!DOCTYPE svg PUBLIC "-//W3C//DTD SVG 1.1//EN" "http://www.w3.org/Graphics/SVG/1.1/DTD/svg11.dtd" [
	<!ENTITY ns_extend "http://ns.adobe.com/Extensibility/1.0/">
	<!ENTITY ns_ai "http://ns.adobe.com/AdobeIllustrator/10.0/">
	<!ENTITY ns_graphs "http://ns.adobe.com/Graphs/1.0/">
	<!ENTITY ns_vars "http://ns.adobe.com/Variables/1.0/">
	<!ENTITY ns_imrep "http://ns.adobe.com/ImageReplacement/1.0/">
	<!ENTITY ns_sfw "http://ns.adobe.com/SaveForWeb/1.0/">
	<!ENTITY ns_custom "http://ns.adobe.com/GenericCustomNamespace/1.0/">
	<!ENTITY ns_adobe_xpath "http://ns.adobe.com/XPath/1.0/">
]>
<svg version="1.1" id="Layer_1" xmlns:x="&ns_extend;" xmlns:i="&ns_ai;" xmlns:graph="&ns_graphs;"
	 xmlns="http://www.w3.org/2000/svg" xmlns:xlink="http://www.w3.org/1999/xlink" x="0px" y="0px" width="284.685px"
	 height="284.684px" viewBox="284.507 72.073 284.685 284.684" enable-background="new 284.507 72.073 284.685 284.684"
	 xml:space="preserve">
<metadata>
	<sfw  xmlns="&ns_sfw;">
		<slices></slices>
		<sliceSourceBounds  width="284.685" height="284.684" y="143.744" x="284.007" bottomLeftOrigin="true"></sliceSourceBounds>
	</sfw>
</metadata>
<title>Artboard 23 copy</title>
<g id="TARGETS">
	<g>
		<rect x="284.507" y="72.073" fill="#A21942" width="284.685" height="284.684"/>
	</g>
	<g>
		<g>
			<g>
				<path fill="#FFFFFF" d="M525.949,154.955c0-7.208-5.706-12.913-12.613-12.913c-6.906,0-12.912,5.705-12.912,12.612
					s5.705,12.913,12.612,12.913l0,0C520.243,167.867,525.949,162.162,525.949,154.955z"/>
			</g>
			<g>
				<path fill="#FFFFFF" d="M487.21,221.922l6.606-22.223l-9.609-5.104l-7.507,24.023c0,0-1.803,6.307,3.604,7.808
					C485.709,227.928,487.21,221.922,487.21,221.922z"/>
			</g>
			<g>
				<path fill="#FFFFFF" d="M528.651,191.291c1.802-0.601,2.103,1.802,2.103,1.802l1.201,4.204l9.609-5.104l-2.402-8.108
					c0,0-3.904-10.21-12.313-10.21h-27.026c-8.409,0-12.313,9.909-12.313,9.909l-2.402,7.508l9.609,5.105l1.201-3.604
					c0,0,0.601-2.103,2.102-1.802c1.502,0.3,0.901,3.003,0.901,3.003l-15.015,54.054h13.813v38.738
					c-0.3,3.604,2.402,6.907,6.307,7.208c3.604,0.3,6.906-2.402,7.207-6.307c0-0.301,0-0.601,0-0.901v-38.438h3.903v38.739
					c0,3.604,3.004,6.606,6.607,6.606s6.606-3.003,6.606-6.606v-38.739h13.813l-15.015-54.054
					C527.45,194.294,526.85,191.892,528.651,191.291z"/>
			</g>
			<g>
				<path fill="#FFFFFF" d="M549.673,218.618l-7.207-23.423l-9.61,5.104l6.307,21.622c0,0,1.502,6.306,6.907,4.504
					S549.673,218.618,549.673,218.618z"/>
			</g>
			<g>
				<path fill="#FFFFFF" d="M499.223,150.751h-1.502c2.402-8.709,11.411-13.814,19.819-11.412c5.406,1.502,9.91,5.706,11.412,11.412
					h-1.802v8.708h2.702c-0.601,3.003-2.402,5.405-4.504,7.508c-0.601-0.601-1.201-0.901-2.103-0.601l-4.504,1.802
					c-0.901,0.3-1.202,1.201-0.901,2.102l0.301,1.202c0.3,0.9,1.201,1.201,2.102,0.9l4.805-1.802c0.901-0.3,1.201-1.201,0.901-2.103
					l0,0l-0.301-0.9c2.402-2.103,4.204-5.105,4.805-8.408h2.703v-8.709h-2.703c-2.402-9.609-12.012-15.315-21.321-12.913
					c-6.306,1.502-11.411,6.606-12.913,12.913h-2.702v8.709h5.706V150.751z"/>
			</g>
		</g>
		<g>
			<g>
				<path fill="#FFFFFF" d="M395.619,216.817l-10.811-35.436c0,0-3.904-10.21-12.612-10.21h-5.105l-9.609,14.114l-8.708-14.114
					h-4.505c-8.708,0-12.612,10.21-12.612,10.21l-10.811,35.436c-0.3,1.502-0.3,3.003,0,4.805h-1.201
					c-1.802,0-3.003,1.201-3.003,3.003v2.402h-9.91c-1.802,0-3.003,1.201-3.003,3.004v5.405c0,3.303,2.703,5.705,5.706,5.705l0,0
					h11.111v-2.102c0-0.901,0.601-1.502,1.501-1.502h2.703c0.901,0,1.501,0.601,1.501,1.502l0,0v2.102h11.412
					c2.703,0,5.105-1.802,5.706-4.204v4.204c-1.501,1.802-3.303,3.003-5.706,3.003H326.55v2.103c0,0.9-0.601,1.501-1.502,1.501l0,0
					h-2.703c-0.3,0-0.3,0-0.601,0c-0.601-0.3-0.901-0.601-0.901-1.201v-2.402h-11.111c-1.201,0-2.403-0.3-3.604-1.201
					c-0.3-0.3-0.901-0.601-1.201-0.9c-0.3-0.301-0.601-0.601-0.901-0.901c0,0,0-0.3-0.3-0.3v14.414c0,1.802,1.201,3.003,3.003,3.003
					h33.934c0.901,0,1.501-0.3,2.102-0.9v30.029c0,3.904,3.003,6.907,6.907,6.907c3.904,0,6.907-3.003,6.907-6.907v-40.24h3.904
					v39.64c0.3,3.904,3.604,6.607,7.207,6.307c3.304-0.3,6.006-3.003,6.307-6.307v-39.64h14.114l-15.315-55.555
					c0,0-0.601-2.403,1.201-3.004s2.102,1.802,2.102,1.802l8.708,29.43c0,0,1.802,6.307,7.208,4.805
					C397.42,223.123,395.619,216.817,395.619,216.817z M328.352,226.727h-9.31v-2.402c0-0.301,0.3-0.601,0.601-0.601h3.003
					c0.601,0.601,1.201,0.9,2.102,1.201c1.201,0.3,2.703,0.3,3.904-0.301L328.352,226.727z M343.667,191.592l-9.609,35.135h-3.604
					v-2.402c0-0.301,0-0.901-0.3-1.201c0.601-0.901,1.201-1.802,1.501-3.003l9.009-29.43c0,0,0.3-2.402,2.102-1.802
					S343.667,191.592,343.667,191.592z"/>
			</g>
			<g>
				<path fill="#FFFFFF" d="M335.859,151.051c0.601-1.201,1.501-3.003,5.706-3.604c0.901,0,1.501-0.301,2.402-0.601
					c0.601-1.201,1.501-2.402,2.402-3.604c0-0.301,0-0.601,0-0.601c-0.3-1.802-2.102-3.904-6.306-2.103
					c-5.105,2.402-4.504,9.609-4.504,9.609C335.559,150.751,335.559,151.352,335.859,151.051z"/>
			</g>
			<g>
				<path fill="#FFFFFF" d="M371.895,146.847c0.601,0.3,1.501,0.601,2.402,0.9c3.904,0.601,5.105,2.402,5.706,3.604
					c0,0.3,0.3-0.301,0.3-0.901c0,0,0.601-7.508-4.504-9.609c-3.904-1.802-6.006,0.3-6.306,2.102c0,0.301,0,0.601,0,0.901
					C370.394,144.445,371.294,145.646,371.895,146.847z"/>
			</g>
			<g>
				<path fill="#FFFFFF" d="M357.781,168.468c7.507,0,13.814-6.306,13.814-13.813s-6.307-13.813-13.814-13.813
					s-13.814,6.306-13.814,13.813S349.973,168.468,357.781,168.468L357.781,168.468z"/>
			</g>
			<g>
				<path fill="#FFFFFF" d="M322.646,239.039h2.402c0.3,0,0.601,0.3,0.601,0.601v6.006c0,0.3-0.3,0.601-0.601,0.601h-2.402
					c-0.3,0-0.601-0.301-0.601-0.601v-6.006C322.045,239.339,322.345,239.039,322.646,239.039z"/>
			</g>
		</g>
		<g>
			<g>
				<path fill="#FFFFFF" d="M420.543,286.487c0,3.904,3.303,7.207,7.208,7.207c3.903,0,7.207-3.303,7.207-7.207v-5.405h-14.415
					V286.487z"/>
			</g>
			<g>
				<path fill="#FFFFFF" d="M439.162,286.487c-0.3,3.904,2.703,7.508,6.606,7.808c3.904,0.301,7.508-2.702,7.808-6.606
					c0-0.301,0-0.601,0-0.901v-5.405h-14.414V286.487z"/>
			</g>
			<g>
				<path fill="#FFFFFF" d="M423.847,186.186v-14.414h-1.201h-0.9c-9.009,0.901-15.616,8.408-15.616,17.117v36.036
					c-0.3,2.702,1.802,5.104,4.505,5.405c2.703,0.301,5.105-1.802,5.405-4.505c0-0.3,0-0.601,0-0.9v-30.931
					c0-1.201,0.3-2.703,2.402-2.703h5.405V186.186z"/>
			</g>
			<g>
				<polygon fill="#FFFFFF" points="429.553,183.183 444.868,183.183 444.868,171.772 437.06,171.772 429.553,171.772 				"/>
			</g>
			<g>
				<path fill="#FFFFFF" d="M448.771,194.595h-1.501v-8.409h-20.12v8.108h-6.607v83.184h14.415v-45.045
					c0-1.201,0.601-2.103,1.802-2.103h0.3l0,0c1.202,0,2.103,0.601,2.103,1.802v0.301v45.345h14.414v-83.183H448.771z"/>
			</g>
			<g>
				<path fill="#FFFFFF" d="M452.075,171.772h-0.901h-0.601v19.52h4.805c2.103,0,2.402,1.502,2.402,2.703v30.931
					c-0.3,2.702,1.803,5.104,4.505,5.405c2.703,0.301,5.105-1.802,5.405-4.505c0-0.3,0-0.601,0-0.9v-36.036
					C467.69,179.88,461.084,172.673,452.075,171.772z"/>
			</g>
			<g>
				<path fill="#FFFFFF" d="M446.069,184.084c0,0.9,0.601,1.501,1.501,1.501c0.901,0,1.502-0.601,1.502-1.501
					c0-0.901-0.601-1.502-1.502-1.502C446.67,182.582,446.069,183.183,446.069,184.084z"/>
			</g>
			<g>
				<path fill="#FFFFFF" d="M425.349,184.084c0,0.9,0.601,1.501,1.501,1.501c0.901,0,1.502-0.601,1.502-1.501
					c0-0.901-0.601-1.502-1.502-1.502l0,0C425.949,182.582,425.349,183.183,425.349,184.084z"/>
			</g>
			<g>
				<path fill="#FFFFFF" d="M445.469,151.051c-1.201-0.901-2.103-1.802-3.904-0.901c-1.201,0.602-1.802,0.901-3.303,1.803
					c-2.703,1.201-5.706,2.102-8.409,2.402c-2.102,0.3-4.504,0.601-6.606,0.601c0.601,7.507,7.207,12.912,14.715,12.312
					c6.307-0.601,11.411-5.405,12.012-12.012C448.472,153.754,446.97,152.252,445.469,151.051z"/>
			</g>
			<g>
				<path fill="#FFFFFF" d="M423.246,151.952c2.103,0,4.204-0.301,6.307-0.601c2.702-0.602,5.104-1.202,7.507-2.403
					c1.502-0.601,2.703-1.201,4.205-1.802c1.201-0.9,3.003-0.9,3.903,0.301c0.601,0.3,0.601,0.601,0.901,0.9l3.604,3.004
					c0.3,0.3,0.601,0.601,0.9,0.601c0.301,0,0.301-2.403,0.301-3.604c-0.601-3.303-2.103-6.606-4.204-9.309
					c-0.601-0.901-1.802-1.502-3.003-1.201c-1.802,0.3-1.802-0.901-3.003-1.802c-3.904-1.502-8.409-0.601-11.712,1.802
					c-3.904,3.303-6.907,7.207-8.709,12.012C420.243,151.051,421.444,151.952,423.246,151.952z"/>
			</g>
		</g>
	</g>
</g>
</svg>
