<?xml version="1.0" encoding="utf-8"?>
<!-- Generator: Adobe Illustrator 16.0.3, SVG Export Plug-In . SVG Version: 6.00 Build 0)  -->
<!DOCTYPE svg PUBLIC "-//W3C//DTD SVG 1.1//EN" "http://www.w3.org/Graphics/SVG/1.1/DTD/svg11.dtd" [
	<!ENTITY ns_extend "http://ns.adobe.com/Extensibility/1.0/">
	<!ENTITY ns_ai "http://ns.adobe.com/AdobeIllustrator/10.0/">
	<!ENTITY ns_graphs "http://ns.adobe.com/Graphs/1.0/">
	<!ENTITY ns_vars "http://ns.adobe.com/Variables/1.0/">
	<!ENTITY ns_imrep "http://ns.adobe.com/ImageReplacement/1.0/">
	<!ENTITY ns_sfw "http://ns.adobe.com/SaveForWeb/1.0/">
	<!ENTITY ns_custom "http://ns.adobe.com/GenericCustomNamespace/1.0/">
	<!ENTITY ns_adobe_xpath "http://ns.adobe.com/XPath/1.0/">
]>
<svg version="1.1" id="Layer_1" xmlns:x="&ns_extend;" xmlns:i="&ns_ai;" xmlns:graph="&ns_graphs;"
	 xmlns="http://www.w3.org/2000/svg" xmlns:xlink="http://www.w3.org/1999/xlink" x="0px" y="0px" width="270.548px"
	 height="270.548px" viewBox="291.583 68.493 270.548 270.548" enable-background="new 291.583 68.493 270.548 270.548"
	 xml:space="preserve">
<metadata>
	<sfw  xmlns="&ns_sfw;">
		<slices></slices>
		<sliceSourceBounds  width="270.548" height="270.548" y="161.459" x="291.083" bottomLeftOrigin="true"></sliceSourceBounds>
	</sfw>
</metadata>
<title>TARGET 1 B copy 3</title>
<g id="TARGETS">
	<g>
		<rect x="291.583" y="68.493" fill="#FF3A21" width="270.548" height="270.548"/>
	</g>
	<g>
		<g>
			<g>
				<g>
					<path fill="#FFFFFF" d="M408.021,138.413h-77.055c-0.285,0-0.571,0.285-0.571,0.57v50.514c0,0.286,0.286,0.571,0.571,0.571
						h44.235V154.68h18.265v35.389h14.555c0.286,0,0.571-0.285,0.571-0.571v-50.514
						C408.592,138.698,408.307,138.413,408.021,138.413z M361.789,171.804h-17.124V154.68h17.124V171.804z"/>
				</g>
				<g>
					<path fill="#FFFFFF" d="M369.494,94.749c-0.285-0.286-0.571-0.571-1.142-0.571c-0.57,0-0.856,0.285-1.142,0.571l-0.285,0.285
						l-41.381,38.813c-0.285,0-0.285,0.285,0,0.571l0.286,0.285h87.329c0.286,0,0.286,0,0.571-0.285c0,0,0-0.286-0.285-0.286
						L369.78,95.034L369.494,94.749z"/>
				</g>
			</g>
			<g>
				<g>
					<path fill="#FFFFFF" d="M484.506,108.448c-21.404,0-38.527,17.408-38.527,38.813s17.408,38.527,38.813,38.527
						s38.527-17.123,38.527-38.527C523.033,125.856,505.91,108.448,484.506,108.448L484.506,108.448z M519.038,140.982
						c0,0.571,0,0.856-0.286,1.142c-0.285,0.285-0.57,0.57-1.142,0.57h-0.285c-0.285,0-0.57,0-0.856-0.285
						c-0.285-0.285-0.57-0.57-0.57-1.142c0-0.285,0-0.855,0.285-1.142c0.285-0.285,0.571-0.57,1.142-0.57
						C517.896,139.555,518.752,140.125,519.038,140.982z M517.325,135.274c0.285,0.286,0.285,0.856,0,1.427
						c-0.285,0.286-0.57,0.856-0.856,0.856c-0.285,0-0.285,0-0.57,0c-0.571,0-1.427-0.57-1.712-1.142
						c-0.286-0.285-0.286-0.855,0-1.142c0.285-0.285,0.57-0.855,0.855-0.855C516.184,133.847,517.04,134.132,517.325,135.274
						C517.61,134.989,517.61,134.989,517.325,135.274L517.325,135.274z M511.617,129.852c0-0.285,0.286-0.856,0.856-0.856
						c0.856-0.57,1.713-0.285,2.283,0.571c0.57,0.855,0.285,1.712-0.57,2.282l0,0c-0.286,0.286-0.571,0.286-0.856,0.286h-0.571
						C511.903,131.849,511.617,130.993,511.617,129.852L511.617,129.852z M499.631,117.294L499.631,117.294
						c0.571-0.855,1.428-1.142,2.283-0.57c0.286,0.285,0.571,0.57,0.856,1.142c0.285,0.285,0.285,0.856,0,1.142
						s-0.57,0.57-1.142,0.855c0,0-0.285,0-0.57,0c-0.286,0-0.571,0-0.856-0.285s-0.571-0.57-0.856-0.855
						C499.631,118.151,499.631,117.58,499.631,117.294L499.631,117.294z M496.207,142.694c-0.286,0-0.571-0.285-0.571-0.57v-2.283
						h5.993v2.283c0,0.285-0.285,0.57-0.57,0.57l0,0v14.27h-4.566L496.207,142.694L496.207,142.694z M484.791,138.413h-18.836
						v-1.427h37.101v1.427H484.791z M482.508,142.694c-0.57,0-0.57,0-0.57-0.57v-2.283h5.707v2.283c0,0.285-0.285,0.57-0.57,0.57
						l0,0v14.27h-4.566V142.694z M468.238,142.694c-0.285,0-0.57,0-0.57-0.57v-2.283h5.993v2.283c0,0.285-0.285,0.57-0.571,0.57l0,0
						v14.27h-4.852V142.694z M484.791,135.845h-19.978l-0.855-0.856c-0.285-0.285-0.285-0.57,0-0.856c0,0,0,0,0.285,0l20.548-7.705
						l20.263,7.705c0.285,0.286,0.285,0.571,0,0.856l0,0l-0.856,0.856H484.791z M494.494,115.011
						c0.285-0.855,1.427-1.142,2.283-0.855c0.571,0.285,0.856,0.57,0.856,0.855c0.285,0.286,0.285,0.856,0,1.142
						c-0.285,0.571-0.856,1.142-1.713,1.142c-0.285,0-0.285,0-0.57,0c-0.285-0.285-0.856-0.57-0.856-0.855
						C494.209,116.153,494.209,115.582,494.494,115.011L494.494,115.011z M489.357,112.729c0.285-0.286,0.856-0.286,1.142-0.286
						c0.856,0.286,1.427,0.856,1.427,1.998l0,0c0,0.57-0.285,0.856-0.57,1.142c-0.286,0.285-0.571,0.285-0.856,0.285h-0.285
						c-0.571,0-0.856-0.285-1.142-0.57c-0.286-0.286-0.286-0.856-0.286-1.142C488.786,113.584,489.072,113.014,489.357,112.729
						L489.357,112.729z M484.506,111.872c0.856,0,1.712,0.856,1.712,1.712l0,0c0,0.856-0.855,1.713-1.712,1.713
						s-1.713-0.856-1.713-1.713C482.793,112.729,483.649,112.157,484.506,111.872L484.506,111.872z M477.371,113.299
						c0.285-0.285,0.57-0.57,1.142-0.57c0.57,0,0.856,0,1.142,0.285s0.57,0.57,0.57,1.142c0,0.57,0,0.855-0.285,1.142
						c-0.285,0.285-0.57,0.57-1.142,0.57h-0.285c-0.285,0-0.571,0-0.856-0.285s-0.57-0.571-0.57-1.142
						C477.086,113.869,477.086,113.584,477.371,113.299L477.371,113.299z M471.663,115.011c0.285-0.285,0.571-0.855,0.856-0.855
						c0.285-0.286,0.856-0.286,1.142,0c0.285,0.285,0.57,0.57,0.856,0.855c0.285,0.856,0,1.713-0.856,1.998l0,0
						c-0.285,0-0.285,0-0.571,0c-0.285,0-0.57,0-0.57-0.285c-0.285-0.285-0.856-0.571-0.856-0.856
						C471.378,115.867,471.378,115.297,471.663,115.011L471.663,115.011z M467.097,116.724c0.286-0.285,0.856-0.285,1.142,0
						c0.286,0,0.856,0.285,0.856,0.856c0.57,0.855,0.285,1.712-0.57,2.282l0,0c0,0-0.571,0-0.856,0
						c-0.571,0-1.142-0.285-1.427-0.855C465.67,118.151,465.955,117.294,467.097,116.724
						C466.812,116.724,466.812,116.724,467.097,116.724L467.097,116.724z M461.96,120.149c0.285-0.286,0.856-0.286,1.142-0.286
						c0.571,0,0.856,0.286,1.142,0.571c0.57,0.57,0.57,1.712-0.285,2.283l0,0c-0.285,0.285-0.571,0.285-1.142,0.285
						c-0.571,0-0.856-0.285-1.427-0.57C461.104,121.861,461.104,121.004,461.96,120.149L461.96,120.149z M454.255,129.567
						c0.57-0.571,1.712-0.856,2.283-0.286c0.57,0.571,0.855,1.142,0.57,1.998c-0.57,0.856-1.427,1.142-2.283,0.57l0,0
						C453.969,131.564,453.398,130.422,454.255,129.567C453.969,129.567,453.969,129.567,454.255,129.567L454.255,129.567z
						 M451.687,135.274c0.285-0.855,1.141-1.427,1.712-1.142c0.285,0.286,0.856,0.571,0.856,0.856c0.285,0.285,0.285,0.856,0,1.142
						c-0.286,0.57-0.856,1.142-1.428,1.142c-0.285,0-0.285,0-0.57,0C451.4,136.987,450.83,136.13,451.687,135.274
						C451.4,135.274,451.4,135.274,451.687,135.274L451.687,135.274z M451.687,139.84c0.57,0,0.855,0.285,1.141,0.571
						c0.286,0.285,0.286,0.855,0.286,1.142c0,0.57-0.286,0.855-0.571,1.141c-0.285,0.286-0.57,0.286-0.855,0.286H451.4
						c-0.855-0.286-1.427-1.142-1.427-1.998C449.974,140.411,450.83,139.555,451.687,139.84L451.687,139.84z M449.117,147.26
						c0-0.855,0.571-1.712,1.713-1.712l0,0l0,0c0.57,0,0.856,0.285,1.142,0.57c0.285,0.286,0.57,0.856,0.57,1.142
						c0,0.856-0.855,1.713-1.997,1.427C449.974,148.687,449.403,148.116,449.117,147.26z M449.688,153.538
						c-0.285-0.855,0.57-1.712,1.427-1.997c0.856,0,1.712,0.57,1.998,1.427c0,0.856-0.571,1.712-1.427,1.998H451.4
						C450.545,154.68,449.974,154.11,449.688,153.538L449.688,153.538z M452.827,160.388c-0.57,0-1.427-0.285-1.427-1.142
						c-0.285-0.855,0-1.712,0.856-1.997c0.856-0.286,1.712,0,1.998,0.855c0.285,0.856,0,1.713-0.856,1.998l0,0
						C453.398,160.388,453.113,160.388,452.827,160.388L452.827,160.388z M457.108,164.383c0,0.286-0.285,0.856-0.856,1.142
						c-0.285,0.286-0.57,0.286-0.855,0.286c-0.856,0-1.713-0.856-1.713-1.713c0-0.855,0.856-1.712,1.713-1.712
						c0.57,0,1.142,0.285,1.427,0.856C457.108,163.528,457.108,164.098,457.108,164.383L457.108,164.383z M457.394,124.429
						c0.286-0.285,0.571-0.57,1.142-0.57c0.571,0,0.856,0,1.142,0.285c0.571,0.57,0.856,1.712,0.285,2.283l0,0
						c-0.285,0.285-0.855,0.57-1.141,0.57c-0.286,0-0.856,0-1.142-0.285C456.823,126.427,456.823,125.285,457.394,124.429
						C457.394,124.714,457.394,124.714,457.394,124.429z M459.677,170.091c-0.285,0.285-0.57,0.285-1.142,0.285
						c-0.57,0-0.855-0.285-1.427-0.57c-0.57-0.57-0.57-1.712,0.285-2.283l0,0c0.285-0.285,0.856-0.285,1.142-0.285
						c0.571,0,0.856,0.285,1.142,0.57C460.533,168.379,460.533,169.521,459.677,170.091
						C459.962,170.091,459.677,170.091,459.677,170.091z M464.243,174.087c-0.285,0.285-0.856,0.57-1.142,0.57s-0.856,0-1.142-0.285
						c-0.57-0.571-0.856-1.713-0.285-2.283c0.57-0.571,1.712-0.856,2.283-0.285c0.285,0.285,0.57,0.57,0.57,1.142
						C464.528,173.231,464.528,173.801,464.243,174.087z M464.813,160.959h1.428v-2.283c0,0,0-0.285,0.285-0.285h36.529
						c0,0,0.286,0,0.286,0.285v2.283h1.427v2.283h-39.955V160.959z M469.095,177.226c-0.285,0.571-0.856,0.856-1.427,0.856
						c-0.285,0-0.571,0-0.856-0.285c-0.285-0.286-0.57-0.571-0.856-1.142c0-0.286,0-0.856,0.286-1.142
						c0.57-0.856,1.427-1.142,2.283-0.571l0,0C469.095,175.514,469.38,176.369,469.095,177.226L469.095,177.226z M474.518,179.509
						c-0.286,0.571-0.856,1.142-1.713,1.142c-0.285,0-0.285,0-0.57,0c-0.856-0.285-1.428-1.142-1.142-1.998
						c0.285-0.855,1.142-1.427,1.997-1.142C474.231,177.511,474.803,178.653,474.518,179.509L474.518,179.509L474.518,179.509z
						 M478.513,182.077h-0.285c-0.856-0.285-1.428-1.142-1.428-1.997l0,0c0.286-0.856,1.142-1.428,1.998-1.428l0,0
						c0.856,0,1.427,0.856,1.427,1.998l0,0C479.939,181.507,479.369,181.792,478.513,182.077L478.513,182.077z M484.221,182.649
						c-0.856,0-1.713-0.856-1.713-1.713c0-0.855,0.856-1.712,1.713-1.712c0.855,0,1.712,0.856,1.712,1.712
						C485.933,181.792,485.362,182.363,484.221,182.649L484.221,182.649z M491.641,181.222c-0.285,0.285-0.571,0.57-1.142,0.57
						h-0.285c-0.856,0-1.428-0.57-1.713-1.427c0-0.856,0.571-1.713,1.427-1.998c0.571,0,0.856,0,1.142,0.285
						c0.286,0.286,0.571,0.571,0.571,1.142C491.926,180.365,491.926,180.936,491.641,181.222L491.641,181.222z M497.349,179.509
						c-0.286,0.285-0.571,0.571-0.856,0.856c-0.285,0-0.285,0-0.571,0c-0.285,0-0.57,0-0.57,0c-0.285-0.285-0.571-0.571-0.856-0.856
						s-0.285-0.856,0-1.427c0.285-0.285,0.571-0.571,0.856-0.856c0.856-0.285,1.712,0.285,1.998,1.142
						C497.349,178.653,497.349,179.224,497.349,179.509L497.349,179.509z M501.914,177.797c-0.285,0.285-0.57,0.285-0.855,0.285
						h-0.571c-0.57,0-0.856-0.285-1.142-0.856c-0.285-0.285-0.285-0.856,0-1.142c0-0.285,0.285-0.855,0.856-0.855
						c0.285-0.286,0.856-0.286,1.142-0.286c0.57,0,0.856,0.286,1.142,0.856C503.056,176.369,502.771,177.226,501.914,177.797
						L501.914,177.797z M507.052,174.087c-0.286,0.285-0.571,0.285-1.142,0.285c-0.571,0-0.856,0-1.142-0.285
						c-0.285-0.286-0.285-0.856-0.285-1.142c0-0.571,0.285-0.856,0.57-1.142c0.285-0.286,0.856-0.286,1.142-0.286
						c0.57,0,0.856,0.286,1.142,0.571C507.907,172.659,507.622,173.516,507.052,174.087z M507.337,122.717
						c-0.285,0.285-0.571,0.57-1.142,0.57l0,0c-0.285,0-0.856,0-1.142-0.285s-0.57-0.57-0.57-1.142c0-0.57,0-0.856,0.285-1.427
						c0.57-0.571,1.712-0.856,2.283-0.285C507.907,120.719,507.907,121.861,507.337,122.717L507.337,122.717z M511.332,170.091
						c-0.285,0.285-0.57,0.571-1.142,0.571l0,0c-0.285,0-0.855,0-1.142-0.286c-0.57-0.57-0.855-1.712-0.285-2.282
						c0.285-0.286,0.571-0.571,1.142-0.571s0.856,0,1.142,0.285c0.285,0.286,0.57,0.571,0.57,1.142
						C511.903,169.236,511.617,169.521,511.332,170.091L511.332,170.091z M511.332,126.997c-0.285,0.286-0.57,0.286-1.142,0.286l0,0
						c-0.57,0-0.855-0.286-1.142-0.571c-0.57-0.57-0.57-1.712,0.286-2.283c0.57-0.57,1.712-0.57,2.282,0.285
						c0.286,0.286,0.286,0.856,0.286,1.142C511.903,126.427,511.617,126.712,511.332,126.997L511.332,126.997z M515.042,164.954
						c-0.285,0.57-0.855,0.856-1.427,0.856c-0.285,0-0.57,0-0.856-0.286c-0.285-0.285-0.57-0.57-0.855-0.855
						c0-0.285,0-0.856,0.285-1.142s0.57-0.571,0.856-0.856c0.57,0,0.855,0,1.142,0.285
						C515.042,163.242,515.327,164.098,515.042,164.954L515.042,164.954z M517.61,159.531c-0.285,0.571-0.855,1.142-1.712,1.142
						c-0.285,0-0.285,0-0.571,0c-0.285-0.285-0.855-0.57-0.855-0.855c-0.285-0.286-0.285-0.856,0-1.427
						c0.285-0.286,0.57-0.856,0.855-0.856c0.856-0.285,1.713,0,2.283,0.856C517.61,158.676,517.61,158.961,517.61,159.531
						L517.61,159.531z M518.467,154.68c-0.285,0.286-0.57,0.286-0.856,0.286h-0.285c-0.856,0-1.427-0.856-1.427-1.998l0,0
						c0.285-0.856,0.856-1.427,1.998-1.427l0,0c0.855,0.285,1.427,1.142,1.427,1.997
						C519.038,153.824,518.752,154.395,518.467,154.68L518.467,154.68z M517.896,148.973c-0.856,0-1.713-0.856-1.713-1.713l0,0
						c0-0.57,0.285-0.855,0.571-1.142c0.285-0.285,0.855-0.57,1.142-0.57c0.855,0,1.712,0.856,1.427,1.997
						C519.323,148.402,518.752,148.973,517.896,148.973z"/>
				</g>
				<g>
					<path fill="#FFFFFF" d="M484.506,103.025c-24.258,0-44.235,19.692-44.235,44.235c0,24.544,19.691,43.95,44.235,43.95
						c24.258,0,44.235-19.692,44.235-44.235l0,0C528.455,123.002,508.764,103.025,484.506,103.025z M484.506,187.785
						c-22.546,0-40.811-18.265-40.811-40.811s18.265-40.525,40.811-40.525s40.811,18.265,40.811,40.811l0,0
						C525.031,169.806,507.052,187.785,484.506,187.785z"/>
				</g>
			</g>
		</g>
		<g>
			<g>
				<g>
					<path fill="#FFFFFF" d="M339.814,232.306c0,0-4.566,4.852-4.566,8.562c0,3.14,3.425,4.852,4.566,5.423
						c0,0,4.566-2.568,4.566-5.708C344.38,236.872,339.814,232.306,339.814,232.306z"/>
				</g>
				<g>
					<path fill="#FFFFFF" d="M329.54,241.153c0,0-0.571,7.991,2.854,10.56c0,0,1.141,1.427,6.564,2.283c0,0,0.57-5.137-1.427-7.42
						C337.531,246.575,336.389,245.149,329.54,241.153z"/>
				</g>
				<g>
					<path fill="#FFFFFF" d="M328.969,251.142c0,0-0.856,8.847,3.139,11.415c0,0,1.142,1.713,7.135,2.568
						c0,0,0.571-5.707-1.712-7.99C337.531,257.135,336.389,255.422,328.969,251.142z"/>
				</g>
				<g>
					<path fill="#FFFFFF" d="M329.254,262.557c0,0-1.142,9.418,2.569,12.271c0,0,1.427,1.713,7.42,2.569
						c0,0,0.856-5.993-1.427-8.276C337.816,269.406,336.675,266.838,329.254,262.557z"/>
				</g>
				<g>
					<path fill="#FFFFFF" d="M328.113,274.258c0,0-0.571,9.988,3.14,12.557c2.283,1.713,5.137,2.569,7.991,2.569
						c0,0,0.571-6.279-1.427-8.848C334.962,277.968,331.538,275.97,328.113,274.258z"/>
				</g>
				<g>
					<path fill="#FFFFFF" d="M350.088,240.867c0,0,0.856,7.991-2.568,10.56c0,0-1.142,1.427-6.564,2.283c0,0-0.571-5.137,1.427-7.42
						C342.097,246.575,343.239,245.149,350.088,240.867z"/>
				</g>
				<g>
					<path fill="#FFFFFF" d="M350.659,251.142c0,0,0.856,8.847-2.854,11.415c0,0-1.142,1.713-7.135,2.568
						c0,0-0.571-5.707,1.427-7.99C342.382,257.135,343.524,255.422,350.659,251.142z"/>
				</g>
				<g>
					<path fill="#FFFFFF" d="M350.659,262.557c0,0,1.427,9.418-2.283,12.271c0,0-1.427,1.713-7.42,2.854
						c0,0-0.856-5.708,1.142-8.276C342.097,269.406,343.524,266.838,350.659,262.557z"/>
				</g>
				<g>
					<path fill="#FFFFFF" d="M352.085,273.973c0,0,0.856,9.988-3.139,12.557c-2.283,1.713-5.137,2.568-7.706,2.854
						c0,0-0.856-6.279,1.427-8.848C345.236,277.968,348.661,275.685,352.085,273.973z"/>
				</g>
				<g>
					<path fill="#FFFFFF" d="M331.252,223.459c0-0.571-0.286-0.856-0.856-0.856l0,0c-0.571,0-0.856,0.285-0.856,0.856l0,0
						l0.285,16.267l1.712,0.856L331.252,223.459z"/>
				</g>
				<g>
					<path fill="#FFFFFF" d="M334.677,220.605c0-0.57-0.285-0.855-0.856-0.855l0,0c-0.571,0-0.856,0.285-0.856,0.855l0,0
						l0.285,19.121l0,0c0.285-1.427,0.856-2.854,1.712-4.28L334.677,220.605z"/>
				</g>
				<g>
					<path fill="#FFFFFF" d="M338.387,216.324c0-0.571-0.286-0.856-0.856-0.856s-0.856,0.285-0.856,0.856l0,0v16.553l1.712-2.283
						V216.324z"/>
				</g>
				<g>
					<path fill="#FFFFFF" d="M347.805,223.459c0-0.571,0.286-0.856,0.856-0.856l0,0c0.571,0,0.856,0.285,0.856,0.856l0,0
						l0.286,15.981l-1.712,1.142L347.805,223.459z"/>
				</g>
				<g>
					<path fill="#FFFFFF" d="M344.38,220.605c0-0.57,0.286-0.855,0.856-0.855s0.856,0.285,0.856,0.855l0,0l0.286,19.121l0,0
						c-0.571-1.427-1.142-2.854-1.712-4.28L344.38,220.605z"/>
				</g>
				<g>
					<path fill="#FFFFFF" d="M340.67,216.324c0-0.571,0.286-0.856,0.856-0.856s0.856,0.285,0.856,0.856l0,0l0.286,16.553
						c-0.571-0.856-1.427-1.713-1.712-2.283L340.67,216.324z"/>
				</g>
				<g>
					<rect x="338.958" y="291.096" fill="#FFFFFF" width="2.568" height="22.545"/>
				</g>
			</g>
			<g>
				<g>
					<path fill="#FFFFFF" d="M513.615,230.594c0,0-4.566,4.852-4.566,8.562c0,3.139,3.425,4.852,4.566,5.422
						c0,0,4.566-2.568,4.566-5.708C518.182,235.159,513.615,230.594,513.615,230.594z"/>
				</g>
				<g>
					<path fill="#FFFFFF" d="M503.342,239.441c0,0-0.571,7.991,2.854,10.56c0,0,1.142,1.427,6.563,2.283
						c0,0,0.571-5.138-1.427-7.421C511.332,244.863,510.19,243.436,503.342,239.441z"/>
				</g>
				<g>
					<path fill="#FFFFFF" d="M502.771,249.429c0,0-0.856,8.848,3.14,11.416c0,0,1.142,1.712,7.135,2.568c0,0,0.57-5.708-1.713-7.991
						C511.332,255.422,510.19,253.71,502.771,249.429z"/>
				</g>
				<g>
					<path fill="#FFFFFF" d="M503.056,260.845c0,0-1.142,9.418,2.568,12.271c0,0,1.428,1.712,7.421,2.568
						c0,0,0.855-5.708-1.428-8.276C511.617,267.694,510.476,265.125,503.056,260.845z"/>
				</g>
				<g>
					<path fill="#FFFFFF" d="M501.914,272.546c0,0-0.57,9.988,3.14,12.557c2.283,1.712,5.137,2.568,7.991,2.854
						c0,0,0.57-6.278-1.428-8.847C508.764,276.256,505.624,274.258,501.914,272.546z"/>
				</g>
				<g>
					<path fill="#FFFFFF" d="M523.89,239.156c0,0,0.855,7.99-2.568,10.559c0,0-1.143,1.428-6.564,2.283c0,0-0.57-5.137,1.427-7.42
						C515.898,244.863,516.755,243.151,523.89,239.156z"/>
				</g>
				<g>
					<path fill="#FFFFFF" d="M524.46,249.144c0,0,0.856,8.847-2.854,11.416c0,0-1.142,1.712-7.135,2.568
						c0,0-0.571-5.708,1.427-7.991C516.184,255.422,517.325,253.71,524.46,249.144z"/>
				</g>
				<g>
					<path fill="#FFFFFF" d="M524.46,260.845c0,0,1.427,9.418-2.283,12.271c0,0-1.427,1.712-7.42,2.854c0,0-0.856-5.707,1.142-8.276
						C515.898,267.694,517.04,265.125,524.46,260.845z"/>
				</g>
				<g>
					<path fill="#FFFFFF" d="M525.887,272.26c0,0,0.571,9.989-3.139,12.558c-2.283,1.712-4.852,2.568-7.706,2.854
						c0,0-0.855-6.278,1.428-8.847C519.038,276.256,522.462,273.973,525.887,272.26z"/>
				</g>
				<g>
					<path fill="#FFFFFF" d="M505.054,221.746c0-0.57-0.285-0.856-0.856-0.856c-0.57,0-0.856,0.286-0.856,0.856l0,0v15.982
						l1.713,0.855V221.746z"/>
				</g>
				<g>
					<path fill="#FFFFFF" d="M508.479,218.893c0-0.571-0.285-0.856-0.856-0.856l0,0c-0.57,0-0.856,0.285-0.856,0.856l0,0
						l0.286,19.121l0,0c0.285-1.427,0.855-2.854,1.712-4.281L508.479,218.893z"/>
				</g>
				<g>
					<path fill="#FFFFFF" d="M512.188,214.612c0-0.57-0.285-0.855-0.856-0.855c-0.57,0-0.856,0.285-0.856,0.855l0,0v16.553
						l1.713-2.283V214.612z"/>
				</g>
				<g>
					<path fill="#FFFFFF" d="M521.606,221.746c0-0.57,0.285-0.856,0.57-1.142s0.856,0.285,1.142,0.571v0.285v15.981l-1.427,1.142
						L521.606,221.746z"/>
				</g>
				<g>
					<path fill="#FFFFFF" d="M518.182,218.893c0-0.571,0.285-0.856,0.856-0.856l0,0c0.57,0,0.855,0.285,0.855,0.856l0.285,19.121
						l0,0c-0.57-1.427-1.141-2.854-1.712-4.281L518.182,218.893z"/>
				</g>
				<g>
					<path fill="#FFFFFF" d="M514.472,214.612c0-0.57,0.285-0.855,0.855-0.855l0,0c0.571,0,0.856,0.285,0.856,0.855v16.553
						l-1.712-2.283V214.612z"/>
				</g>
				<g>
					<rect x="512.759" y="289.384" fill="#FFFFFF" width="2.568" height="22.545"/>
				</g>
			</g>
			<g>
				<g>
					<g>
						<path fill="#FFFFFF" d="M461.39,228.596c-4.852,0-8.563-3.71-8.563-8.562s3.711-8.562,8.563-8.562s8.562,3.71,8.562,8.562l0,0
							C469.951,224.886,466.241,228.596,461.39,228.596z"/>
					</g>
					<g>
						<path fill="#FFFFFF" d="M451.115,232.021h0.571h19.12h0.571c5.993,0.57,10.56,5.422,10.56,11.415v23.973
							c0,1.998-1.427,3.425-3.425,3.425s-3.425-1.427-3.425-3.425l0,0v-20.548c0-0.856-0.285-1.712-1.712-1.712
							c-0.856,0-1.142,1.142-1.142,1.712v61.929c0.285,2.569-1.713,5.138-4.566,5.138c-2.568,0.285-5.137-1.713-5.137-4.566
							c0-0.285,0-0.571,0-0.856v-35.388c0-0.856-0.571-1.427-1.142-1.427c0,0,0,0-0.286,0l0,0c-0.855,0-1.427,0.57-1.427,1.142
							c0,0,0,0,0,0.285v35.673c0.285,2.569-1.712,5.138-4.566,5.138c-2.568,0.285-5.137-1.713-5.137-4.566c0-0.285,0-0.571,0-0.856
							v-61.644c0-0.57-0.285-1.712-1.142-1.712s-1.712,1.142-1.712,1.712v20.548c0,1.998-1.427,3.425-3.425,3.425
							s-3.425-1.427-3.425-3.425l0,0v-23.973C440.841,237.729,445.407,232.591,451.115,232.021z"/>
					</g>
				</g>
				<g>
					<g>
						<path fill="#FFFFFF" d="M396.606,230.023c4.852,0,8.562-3.71,8.562-8.562s-3.71-8.562-8.562-8.562
							c-4.852,0-8.562,3.71-8.562,8.562S392.04,230.023,396.606,230.023z"/>
					</g>
					<g>
						<path fill="#FFFFFF" d="M421.149,263.698l-7.135-23.116c0,0-2.568-6.564-8.276-6.564h-18.265
							c-5.708,0-8.276,6.564-8.276,6.564l-7.134,23.116c0,0-1.427,4.281,2.283,5.137c3.71,1.142,4.852-3.139,4.852-3.139
							l5.708-19.121c0,0,0.285-1.427,1.427-1.142s0.571,1.998,0.571,1.998l-9.988,35.959h9.417v25.685
							c0,2.568,1.998,4.565,4.566,4.565s4.566-1.997,4.566-4.565v-25.685h2.568v25.685c0.285,2.568,2.283,4.28,4.852,3.995
							c2.283-0.285,3.995-1.998,3.995-3.995v-25.685h9.418l-9.988-35.959c0,0-0.286-1.713,0.57-1.998
							c0.856-0.285,1.427,1.142,1.427,1.142l5.708,19.121c0,0,1.142,3.995,4.852,3.139
							C422.576,267.98,421.149,263.698,421.149,263.698z"/>
					</g>
				</g>
			</g>
		</g>
	</g>
</g>
</svg>
