<?xml version="1.0" encoding="utf-8"?>
<!-- Generator: Adobe Illustrator 16.0.3, SVG Export Plug-In . SVG Version: 6.00 Build 0)  -->
<!DOCTYPE svg PUBLIC "-//W3C//DTD SVG 1.1//EN" "http://www.w3.org/Graphics/SVG/1.1/DTD/svg11.dtd" [
	<!ENTITY ns_extend "http://ns.adobe.com/Extensibility/1.0/">
	<!ENTITY ns_ai "http://ns.adobe.com/AdobeIllustrator/10.0/">
	<!ENTITY ns_graphs "http://ns.adobe.com/Graphs/1.0/">
	<!ENTITY ns_vars "http://ns.adobe.com/Variables/1.0/">
	<!ENTITY ns_imrep "http://ns.adobe.com/ImageReplacement/1.0/">
	<!ENTITY ns_sfw "http://ns.adobe.com/SaveForWeb/1.0/">
	<!ENTITY ns_custom "http://ns.adobe.com/GenericCustomNamespace/1.0/">
	<!ENTITY ns_adobe_xpath "http://ns.adobe.com/XPath/1.0/">
]>
<svg version="1.1" id="Layer_1" xmlns:x="&ns_extend;" xmlns:i="&ns_ai;" xmlns:graph="&ns_graphs;"
	 xmlns="http://www.w3.org/2000/svg" xmlns:xlink="http://www.w3.org/1999/xlink" x="0px" y="0px" width="285.199px"
	 height="285.198px" viewBox="284.25 72.202 285.199 285.198" enable-background="new 284.25 72.202 285.199 285.198"
	 xml:space="preserve">
<metadata>
	<sfw  xmlns="&ns_sfw;">
		<slices></slices>
		<sliceSourceBounds  width="285.199" height="285.198" y="143.1" x="283.75" bottomLeftOrigin="true"></sliceSourceBounds>
	</sfw>
</metadata>
<title>TARGET 1.1</title>
<g id="TARGETS">
	<g>
		<rect x="284.25" y="72.202" fill="#FD6925" width="285.199" height="285.198"/>
	</g>
	<g>
		<g>
			<path fill="#FFFFFF" d="M470.171,215.102l-20.457-11.732v-23.767c0-0.602-0.301-0.902-0.602-1.203l-21.06-12.335
				c-0.301-0.301-0.902-0.301-1.504,0l-21.36,12.335c-0.301,0.301-0.602,0.602-0.602,1.203v23.767l-20.758,11.732
				c-0.301,0.302-0.602,0.603-0.602,1.204v24.368c0,0.602,0.301,0.902,0.602,1.203l21.36,12.335c0.301,0.301,0.902,0.301,1.504,0
				l20.457-11.733l20.457,11.733c0.301,0.301,0.902,0.301,1.505,0l21.359-12.335c0.301-0.301,0.602-0.602,0.602-1.203v-24.669
				C470.772,215.704,470.472,215.404,470.171,215.102z M425.646,238.267l-17.148-9.627l17.148-9.928V238.267z M445.502,203.971
				l-17.148,9.928v-19.555L445.502,203.971z M425.646,213.899l-17.148-9.928l17.148-9.928V213.899z M429.858,216.306l18.351-10.529
				l18.352,10.529l-18.352,10.529L429.858,216.306z M446.705,201.565l-17.147-9.928l17.147-9.928V201.565z M424.142,191.637
				l-16.847,9.928V182.01L424.142,191.637z M404.287,250.602l-18.352-10.529v-21.36l18.352,10.529V250.602z M407.295,250.602
				v-19.555l17.147,9.928L407.295,250.602z M468.065,240.073l-18.352,10.529v-21.36l18.352-10.529V240.073z"/>
		</g>
		<g>
			<g>
				<path fill="#FFFFFF" d="M372.096,182.912c2.708-4.813,6.318-9.025,10.229-12.937l-33.092-36.401
					c-8.424,8.122-15.644,17.147-21.059,27.376L372.096,182.912z"/>
			</g>
			<g>
				<path fill="#FFFFFF" d="M453.323,157.039c5.115,2.407,9.627,5.114,13.839,8.725l33.093-36.101
					c-8.725-7.521-18.652-13.839-29.482-18.352L453.323,157.039z"/>
			</g>
			<g>
				<path fill="#FFFFFF" d="M529.437,168.171l-43.923,21.961c2.106,5.114,3.61,10.229,4.513,15.645l49.037-4.513
					C537.56,189.531,534.25,178.4,529.437,168.171"/>
			</g>
			<g>
				<path fill="#FFFFFF" d="M482.204,183.514l43.924-21.962c-5.416-10.229-12.335-19.254-20.458-27.376l-33.093,36.101
					C476.488,174.489,479.798,178.7,482.204,183.514"/>
			</g>
			<g>
				<path fill="#FFFFFF" d="M363.372,215.102c0-0.902,0-2.105,0-3.008l-48.737-4.513c0,2.406-0.301,4.813-0.301,7.22
					c0,9.326,1.204,18.352,3.309,27.377l47.232-13.538C363.974,224.127,363.372,219.615,363.372,215.102"/>
			</g>
			<g>
				<path fill="#FFFFFF" d="M476.188,255.115c-3.61,4.212-7.521,8.122-12.033,11.131l25.872,41.817
					c9.627-6.619,18.051-14.44,25.271-23.466L476.188,255.115z"/>
			</g>
			<g>
				<path fill="#FFFFFF" d="M490.628,215.102c0,4.513-0.602,9.025-1.504,13.538l47.232,13.538
					c2.105-8.725,3.309-18.051,3.309-27.076c0-2.406,0-4.512-0.301-6.919l-49.037,4.513
					C490.327,213.297,490.327,214.199,490.628,215.102"/>
			</g>
			<g>
				<path fill="#FFFFFF" d="M378.715,256.017L339.605,285.8c7.22,9.025,15.944,16.847,25.571,23.165l25.873-41.817
					C386.537,264.14,382.325,260.53,378.715,256.017"/>
			</g>
			<g>
				<path fill="#FFFFFF" d="M364.274,204.873c0.902-5.415,2.407-10.83,4.813-15.644l-43.923-21.961
					c-4.813,10.529-8.123,21.66-9.627,33.393L364.274,204.873z"/>
			</g>
			<g>
				<path fill="#FFFFFF" d="M484.01,312.274l-25.872-41.816c-4.814,2.708-9.929,4.813-15.043,6.017l9.025,48.436
					C463.252,322.201,474.082,317.99,484.01,312.274"/>
			</g>
			<g>
				<path fill="#FFFFFF" d="M487.319,235.259c-1.806,5.114-3.911,9.627-6.92,14.14l39.41,29.482
					c6.318-9.326,11.433-19.254,14.741-30.085L487.319,235.259z"/>
			</g>
			<g>
				<path fill="#FFFFFF" d="M436.176,277.979c-3.009,0.301-6.017,0.602-9.025,0.602c-2.406,0-4.813,0-7.521-0.301l-9.025,48.435
					c11.432,1.806,23.165,1.505,34.898-0.301L436.176,277.979z"/>
			</g>
			<g>
				<path fill="#FFFFFF" d="M431.062,151.624c5.415,0.301,10.529,1.204,15.644,3.009l17.75-46.029
					c-10.83-3.91-21.962-6.017-33.394-6.317V151.624z"/>
			</g>
			<g>
				<path fill="#FFFFFF" d="M412.71,276.775c-5.415-1.203-10.529-3.309-15.644-6.017l-26.173,42.118
					c10.229,5.716,21.059,9.928,32.491,12.334L412.71,276.775z"/>
			</g>
			<g>
				<path fill="#FFFFFF" d="M407.896,154.332c5.114-1.504,10.529-2.708,15.944-3.009v-49.037
					c-11.432,0.301-22.864,2.407-33.694,6.017L407.896,154.332z"/>
			</g>
			<g>
				<path fill="#FFFFFF" d="M374.202,250.602c-3.309-4.513-5.716-9.627-7.521-15.042l-47.232,13.538
					c3.61,11.131,8.725,21.66,15.644,31.287L374.202,250.602z"/>
			</g>
			<g>
				<path fill="#FFFFFF" d="M387.74,165.162c4.211-3.31,8.724-6.017,13.538-8.123l-17.75-45.728
					c-10.529,4.513-20.156,10.529-28.881,17.75L387.74,165.162z"/>
			</g>
		</g>
	</g>
</g>
</svg>
