<?xml version="1.0" encoding="utf-8"?>
<!-- Generator: Adobe Illustrator 16.0.3, SVG Export Plug-In . SVG Version: 6.00 Build 0)  -->
<!DOCTYPE svg PUBLIC "-//W3C//DTD SVG 1.1//EN" "http://www.w3.org/Graphics/SVG/1.1/DTD/svg11.dtd" [
	<!ENTITY ns_extend "http://ns.adobe.com/Extensibility/1.0/">
	<!ENTITY ns_ai "http://ns.adobe.com/AdobeIllustrator/10.0/">
	<!ENTITY ns_graphs "http://ns.adobe.com/Graphs/1.0/">
	<!ENTITY ns_vars "http://ns.adobe.com/Variables/1.0/">
	<!ENTITY ns_imrep "http://ns.adobe.com/ImageReplacement/1.0/">
	<!ENTITY ns_sfw "http://ns.adobe.com/SaveForWeb/1.0/">
	<!ENTITY ns_custom "http://ns.adobe.com/GenericCustomNamespace/1.0/">
	<!ENTITY ns_adobe_xpath "http://ns.adobe.com/XPath/1.0/">
]>
<svg version="1.1" id="Layer_1" xmlns:x="&ns_extend;" xmlns:i="&ns_ai;" xmlns:graph="&ns_graphs;"
	 xmlns="http://www.w3.org/2000/svg" xmlns:xlink="http://www.w3.org/1999/xlink" x="0px" y="0px" width="284.855px"
	 height="284.855px" viewBox="284.422 72.115 284.855 284.855" enable-background="new 284.422 72.115 284.855 284.855"
	 xml:space="preserve">
<metadata>
	<sfw  xmlns="&ns_sfw;">
		<slices></slices>
		<sliceSourceBounds  width="284.855" height="284.855" y="143.529" x="283.922" bottomLeftOrigin="true"></sliceSourceBounds>
	</sfw>
</metadata>
<title>TARGET 1.5</title>
<g id="TARGETS">
	<g>
		<rect x="284.422" y="72.115" fill="#FF3A21" width="284.855" height="284.855"/>
	</g>
	<g>
		<g>
			<path fill="#FFFFFF" d="M371.862,149.94c9.014,0,16.226-7.211,16.226-16.226s-7.212-16.526-16.226-16.526
				c-9.015,0-16.226,7.211-16.226,16.226C355.636,142.729,362.847,149.94,371.862,149.94L371.862,149.94z"/>
		</g>
		<g>
			<path fill="#FFFFFF" d="M487.848,149.038c9.014,0,16.526-7.512,16.526-16.526s-7.513-16.526-16.526-16.526
				c-9.015,0-16.526,7.512-16.526,16.526S478.833,149.038,487.848,149.038L487.848,149.038z"/>
		</g>
		<g>
			<path fill="#FFFFFF" d="M464.109,176.984c1.803,2.704,2.704,5.709,2.704,8.714v28.245h42.067v-30.649
				c0-1.202,0.601-3.306,2.404-3.306c2.704,0,3.005,2.104,3.005,3.606v30.349h12.62v-36.659c0-11.418-8.714-20.733-19.832-21.935
				h-32.452c-4.507,0.3-9.015-1.803-11.719-5.409l-27.043-37.56c-1.202-2.104-3.005-3.906-5.108-5.409
				c-3.305-1.803-6.01,0-8.413,3.005l-29.748,39.363c-5.408,6.61-10.517,8.413-13.822,8.413h-24.94
				c-10.817,0-15.625,12.62-15.625,12.62l-13.521,43.87h14.723l9.616-32.451c0,0,0.601-2.705,2.704-2.104
				c2.104,0.601,1.202,3.605,1.202,3.605l-8.414,30.949h53.185l-6.61-24.038c-1.202-5.108-0.601-10.817,2.103-15.324l10.517-16.227
				l24.939-34.555l20.733,31.55L464.109,176.984z"/>
		</g>
		<g>
			<path fill="#FFFFFF" d="M393.497,222.356h-78.125v8.113h6.31v92.548h76.623v-92.548h6.31v-8.113H393.497z M382.979,244.291
				h-47.175v-8.414h46.875L382.979,244.291z"/>
		</g>
		<g>
			<path fill="#FFFFFF" d="M527.21,222.356h-78.125v8.113h6.311v92.548h76.623v-92.548h6.31v-8.113H527.21z M517.595,244.291H470.72
				v-8.414h46.875V244.291z"/>
		</g>
	</g>
</g>
</svg>
