<?xml version="1.0" encoding="utf-8"?>
<!-- Generator: Adobe Illustrator 16.0.3, SVG Export Plug-In . SVG Version: 6.00 Build 0)  -->
<!DOCTYPE svg PUBLIC "-//W3C//DTD SVG 1.1//EN" "http://www.w3.org/Graphics/SVG/1.1/DTD/svg11.dtd" [
	<!ENTITY ns_extend "http://ns.adobe.com/Extensibility/1.0/">
	<!ENTITY ns_ai "http://ns.adobe.com/AdobeIllustrator/10.0/">
	<!ENTITY ns_graphs "http://ns.adobe.com/Graphs/1.0/">
	<!ENTITY ns_vars "http://ns.adobe.com/Variables/1.0/">
	<!ENTITY ns_imrep "http://ns.adobe.com/ImageReplacement/1.0/">
	<!ENTITY ns_sfw "http://ns.adobe.com/SaveForWeb/1.0/">
	<!ENTITY ns_custom "http://ns.adobe.com/GenericCustomNamespace/1.0/">
	<!ENTITY ns_adobe_xpath "http://ns.adobe.com/XPath/1.0/">
]>
<svg version="1.1" id="Layer_1" xmlns:x="&ns_extend;" xmlns:i="&ns_ai;" xmlns:graph="&ns_graphs;"
	 xmlns="http://www.w3.org/2000/svg" xmlns:xlink="http://www.w3.org/1999/xlink" x="0px" y="0px" width="500px" height="500px"
	 viewBox="177 0 500 500" enable-background="new 177 0 500 500" xml:space="preserve">
<metadata>
	<sfw  xmlns="&ns_sfw;">
		<slices></slices>
		<sliceSourceBounds  width="500" height="500" y="0.5" x="176.5" bottomLeftOrigin="true"></sliceSourceBounds>
	</sfw>
</metadata>
<title>TARGET 1 B copy 16</title>
<g id="TARGETS">
	<g>
		<rect x="177" y="0" fill="#19486A" width="500" height="500"/>
	</g>
	<g>
		<g>
			<g>
				<g>
					<path fill="#FFFFFF" d="M389.025,231.54c2.109-3.165,4.219-6.329,6.856-8.967l-23.207-25.316
						c-5.802,5.802-11.076,12.131-14.768,19.515L389.025,231.54z"/>
				</g>
				<g>
					<path fill="#FFFFFF" d="M445.46,213.608c3.692,1.582,6.856,3.691,9.493,6.329l23.207-25.316
						c-6.329-5.274-13.186-9.494-20.569-12.658L445.46,213.608z"/>
				</g>
				<g>
					<path fill="#FFFFFF" d="M498.729,220.991l-30.59,15.296c1.582,3.691,2.637,7.384,3.164,11.075l34.283-3.164
						C504.531,236.287,502.422,228.375,498.729,220.991"/>
				</g>
				<g>
					<path fill="#FFFFFF" d="M466.029,232.068l30.591-15.296c-3.691-6.856-8.966-13.713-14.24-18.987l-23.207,25.316
						C461.811,225.739,463.92,228.903,466.029,232.068"/>
				</g>
				<g>
					<path fill="#FFFFFF" d="M382.696,254.219c0-0.527,0-1.582,0-2.109l-34.283-3.164c0,1.582,0,3.691,0,5.273
						c0,6.329,0.527,12.658,2.11,18.987l33.228-9.493C383.224,260.548,382.696,257.384,382.696,254.219"/>
				</g>
				<g>
					<path fill="#FFFFFF" d="M461.811,282.173c-2.638,3.164-5.274,5.802-8.439,7.911l17.933,29.536
						c6.856-4.747,12.658-10.021,17.933-16.351L461.811,282.173z"/>
				</g>
				<g>
					<path fill="#FFFFFF" d="M471.831,254.219c0,3.165,0,6.329-1.055,9.494l33.228,9.493c1.583-6.329,2.11-12.658,2.11-18.987
						c0-1.582,0-3.164,0-4.746l-34.283,3.164C471.831,253.164,471.831,253.692,471.831,254.219"/>
				</g>
				<g>
					<path fill="#FFFFFF" d="M393.245,282.7l-27.426,21.097c5.274,6.329,11.076,11.604,17.933,16.351l18.46-29.536
						C399.046,288.502,395.882,285.865,393.245,282.7"/>
				</g>
				<g>
					<path fill="#FFFFFF" d="M383.224,246.835c0.527-3.691,1.582-7.384,3.165-11.076l-30.591-15.295
						c-3.692,7.384-5.802,15.295-6.856,23.207L383.224,246.835z"/>
				</g>
				<g>
					<path fill="#FFFFFF" d="M467.084,322.257l-17.932-29.535c-3.165,2.109-6.857,3.164-10.549,4.219l6.329,33.755
						C452.844,329.114,460.228,325.949,467.084,322.257"/>
				</g>
				<g>
					<path fill="#FFFFFF" d="M469.194,268.46c-1.055,3.691-2.638,6.856-4.747,10.021l27.426,20.569
						c4.747-6.328,7.912-13.713,10.549-21.097L469.194,268.46z"/>
				</g>
				<g>
					<path fill="#FFFFFF" d="M433.856,297.995c-2.109,0.527-4.22,0.527-6.329,0.527c-1.582,0-3.692,0-5.274-0.527l-6.856,34.283
						c3.692,0.527,7.911,1.055,11.604,1.055c4.22,0,8.438-0.527,12.658-1.055L433.856,297.995z"/>
				</g>
				<g>
					<path fill="#FFFFFF" d="M430.165,209.388c3.691,0,7.384,1.055,11.075,2.11l12.131-32.174
						c-7.384-2.637-15.295-4.219-23.206-4.219V209.388z"/>
				</g>
				<g>
					<path fill="#FFFFFF" d="M416.979,297.468c-3.692-1.055-7.384-2.109-11.076-4.219l-17.932,29.535
						c6.856,4.22,14.768,6.856,22.679,8.438L416.979,297.468z"/>
				</g>
				<g>
					<path fill="#FFFFFF" d="M413.814,211.498c3.692-1.056,7.384-1.583,11.076-2.11v-34.282c-7.912,0-16.351,1.582-23.734,4.219
						L413.814,211.498z"/>
				</g>
				<g>
					<path fill="#FFFFFF" d="M390.607,279.008c-2.109-3.164-4.219-6.856-5.274-10.548l-33.228,9.493
						c2.637,7.911,6.329,15.296,11.076,21.624L390.607,279.008z"/>
				</g>
				<g>
					<path fill="#FFFFFF" d="M399.574,218.882c3.165-2.11,6.329-4.22,9.494-5.802l-12.131-31.646
						c-7.384,3.164-14.24,7.384-20.042,12.658L399.574,218.882z"/>
				</g>
			</g>
			<g>
				<g>
					<polygon fill="#FFFFFF" points="553.055,209.915 547.78,209.915 547.78,311.708 622.675,311.708 622.675,305.379 
						553.055,305.379 					"/>
				</g>
				<g>
					<path fill="#FFFFFF" d="M558.856,197.257V299.05h72.785V197.257H558.856z M623.202,285.337L623.202,285.337
						C623.202,285.865,623.202,285.865,623.202,285.337l-54.852,0.527c-0.527,0-0.527,0-0.527-0.527v-8.438c0,0,0-0.527,0.527-0.527
						h54.324c0,0,0.527,0,0.527,0.527l0,0V285.337z M623.202,268.988L623.202,268.988
						C623.202,269.515,622.675,269.515,623.202,268.988l-54.852,0.527c0,0-0.527,0-0.527-0.527v-8.439c0-0.527,0-0.527,0.527-0.527
						h54.324c0,0,0.527,0,0.527,0.527l0,0V268.988z M623.202,253.164L623.202,253.164L623.202,253.164h-54.852
						c-0.527,0-0.527,0-0.527-0.527v-8.438c0,0,0-0.527,0.527-0.527l0,0h53.797h0.527l0,0L623.202,253.164z"/>
				</g>
			</g>
			<g>
				<g>
					<polygon fill="#FFFFFF" points="227.633,209.915 222.358,209.915 222.358,311.708 297.781,311.708 297.781,305.379 
						227.633,305.379 					"/>
				</g>
				<g>
					<path fill="#FFFFFF" d="M233.435,197.257V299.05h73.313V197.257H233.435z M297.781,285.337L297.781,285.337
						C297.781,285.865,297.781,285.865,297.781,285.337l-54.853,0.527c-0.527,0-0.527,0-0.527-0.527v-8.438c0,0,0-0.527,0.527-0.527
						l0,0h53.797c0,0,0.527,0,0.527,0.527l0,0L297.781,285.337z M297.781,268.988L297.781,268.988
						C297.781,269.515,297.253,269.515,297.781,268.988l-54.853,0.527c0,0-0.527,0-0.527-0.527l0,0v-8.439
						c0-0.527,0-0.527,0.527-0.527h53.797c0,0,0.527,0,0.527,0.527l0,0L297.781,268.988z M297.781,253.164L297.781,253.164
						L297.781,253.164h-54.853c-0.527,0-0.527,0-0.527-0.527v-8.438c0-0.527,0-0.527,0.527-0.527h53.797h0.527l0,0L297.781,253.164z
						"/>
				</g>
			</g>
		</g>
		<g>
			<path fill="#FFFFFF" d="M546.198,387.13l-14.768-11.603c-1.055-1.056-3.165-1.583-4.22,0l0,0l0,0
				c-46.413,55.379-126.582,61.181-183.544,15.822c-1.582-1.582-3.165-2.637-4.747-4.22l16.877-10.548
				c1.583-1.055-0.527-2.638-0.527-2.638l-56.962-28.48c-1.583-1.055-2.11,0-2.11,1.055v0.527l0,0l-1.055,64.346
				c0,0.527,0.527,2.11,2.109,1.055l0,0l18.46-11.603c3.692,3.691,7.384,6.856,11.604,10.021
				c67.511,54.325,162.975,46.941,218.882-18.46l0.527-0.527C547.78,390.823,547.78,388.713,546.198,387.13L546.198,387.13z"/>
		</g>
		<g>
			<path fill="#FFFFFF" d="M295.671,120.253l15.295,11.076c1.055,1.055,3.165,1.055,4.219-0.527l0,0l0,0
				c43.249-58.018,122.891-68.565,181.962-26.372c1.582,1.056,3.692,2.638,5.274,4.22l-15.823,11.604
				c-1.582,1.055,1.056,2.637,1.056,2.637l59.071,24.789c1.582,1.056,2.109-0.527,2.109-1.055v-0.527l0,0l-3.691-64.873
				c0-0.527-0.527-2.11-2.109-1.055l0,0l-17.933,12.658c-3.692-3.165-7.912-6.329-12.131-9.494
				c-70.676-50.105-165.612-37.447-217.3,31.118l-0.527,0.527C294.089,117.088,294.089,119.198,295.671,120.253L295.671,120.253z"/>
		</g>
	</g>
</g>
</svg>
