<?xml version="1.0" encoding="utf-8"?>
<!-- Generator: Adobe Illustrator 16.0.3, SVG Export Plug-In . SVG Version: 6.00 Build 0)  -->
<!DOCTYPE svg PUBLIC "-//W3C//DTD SVG 1.1//EN" "http://www.w3.org/Graphics/SVG/1.1/DTD/svg11.dtd" [
	<!ENTITY ns_extend "http://ns.adobe.com/Extensibility/1.0/">
	<!ENTITY ns_ai "http://ns.adobe.com/AdobeIllustrator/10.0/">
	<!ENTITY ns_graphs "http://ns.adobe.com/Graphs/1.0/">
	<!ENTITY ns_vars "http://ns.adobe.com/Variables/1.0/">
	<!ENTITY ns_imrep "http://ns.adobe.com/ImageReplacement/1.0/">
	<!ENTITY ns_sfw "http://ns.adobe.com/SaveForWeb/1.0/">
	<!ENTITY ns_custom "http://ns.adobe.com/GenericCustomNamespace/1.0/">
	<!ENTITY ns_adobe_xpath "http://ns.adobe.com/XPath/1.0/">
]>
<svg version="1.1" id="Layer_1" xmlns:x="&ns_extend;" xmlns:i="&ns_ai;" xmlns:graph="&ns_graphs;"
	 xmlns="http://www.w3.org/2000/svg" xmlns:xlink="http://www.w3.org/1999/xlink" x="0px" y="0px" width="285.199px"
	 height="285.198px" viewBox="284.25 72.202 285.199 285.198" enable-background="new 284.25 72.202 285.199 285.198"
	 xml:space="preserve">
<metadata>
	<sfw  xmlns="&ns_sfw;">
		<slices></slices>
		<sliceSourceBounds  width="285.199" height="285.198" y="143.1" x="283.75" bottomLeftOrigin="true"></sliceSourceBounds>
	</sfw>
</metadata>
<title>TARGET 1 B copy 14</title>
<g id="TARGETS">
	<g>
		<rect x="284.25" y="72.202" fill="#0A97D9" width="285.199" height="285.198"/>
	</g>
	<g>
		<g>
			<g>
				<path fill="#FFFFFF" d="M477.09,137.184c-2.707,0-4.813,2.106-4.813,4.813l0,0v31.89c-0.301,2.707,1.806,5.114,4.513,5.415
					c2.708,0.301,5.114-1.805,5.415-4.513c0-0.301,0-0.602,0-0.902v-31.89C482.204,139.29,480.099,137.184,477.09,137.184z"/>
			</g>
			<g>
				<path fill="#FFFFFF" d="M540.568,137.184c-2.708,0-4.813,2.106-4.813,4.813l0,0v31.89c-0.301,2.707,1.805,5.114,4.513,5.415
					c2.707,0.301,5.114-1.805,5.415-4.513c0-0.301,0-0.602,0-0.902v-31.89C545.683,139.29,543.275,137.184,540.568,137.184z"/>
			</g>
			<g>
				<path fill="#FFFFFF" d="M531.242,140.794h-44.224c-0.603,0-1.204,0.602-1.204,1.203v31.288c0,0.602,0.602,1.203,1.204,1.504
					h16.847l-2.105,123.044c0,0.603,0.602,1.204,1.203,1.204h11.732c0.602,0,1.204-0.301,1.204-1.204l0,0l-2.708-123.044h17.449
					c0.602,0,1.203-0.602,1.203-1.504v-30.987C532.445,141.396,531.844,140.794,531.242,140.794L531.242,140.794z"/>
			</g>
		</g>
		<g>
			<g>
				<polygon fill="#FFFFFF" points="326.067,143.502 317.343,143.502 317.343,308.364 435.574,308.364 435.574,298.436 
					326.067,298.436 				"/>
			</g>
			<g>
				<path fill="#FFFFFF" d="M335.093,133.574v154.934h118.23V123.345h-118.23V133.574z M399.774,235.56
					c-1.204,1.504-9.025,11.432-19.856,11.432c-9.627,0-19.555-8.725-19.555-8.725c-2.407,4.513-6.618,7.822-11.733,8.424h-0.301
					l-0.301-0.301c0,0,0,0,0-0.301l0,0c2.106-3.31,3.31-7.221,3.61-11.131c-0.301-3.911-1.504-7.822-3.61-11.132v-0.301
					c0,0,0-0.301,0.301-0.301h0.301c5.115,0.902,9.326,3.911,11.733,8.424c0,0,10.229-8.725,19.555-8.725
					c10.831,0,18.652,9.928,19.856,11.433l0,0l0,0l0,0V235.56z M438.281,258.725L438.281,258.725L438.281,258.725
					C438.281,258.725,438.281,259.026,438.281,258.725l-0.301,0.301c-3.609-0.603-6.919-3.009-8.423-6.318
					c0,0-7.521,6.619-14.441,6.619c-8.123,0-13.839-7.221-14.741-8.424l0,0v-0.301l0,0c0.902-1.203,6.619-8.725,14.741-8.725
					c6.919,0,14.441,6.317,14.441,6.317c1.805-3.309,4.813-5.716,8.724-6.317l0,0c0,0,0.301,0,0.301,0.301v0.301
					C434.672,247.292,434.672,253.911,438.281,258.725L438.281,258.725z M403.685,227.738c0-1.805,1.204-3.009,3.009-3.009
					c1.805,0,3.008,1.204,3.008,3.009s-1.204,3.009-3.008,3.009C404.888,230.746,403.685,229.241,403.685,227.738z M415.417,222.623
					c0-1.203,0.903-2.406,2.407-2.406c1.204,0,2.407,0.902,2.407,2.406c0,1.203-0.902,2.407-2.407,2.407l0,0
					C416.32,225.031,415.417,223.826,415.417,222.623z M348.029,174.489v-9.928c0-0.602,0.301-0.902,0.903-0.902
					c0.301,0,0.301,0,0.602,0l0.602,0.301c6.318,4.513,25.572,15.644,43.021-0.602l0.301-0.301c0.301-0.301,0.301-0.301,0.602-0.301
					s0.602,0,0.602,0.301l0.301,0.301c17.75,16.546,37.304,4.513,43.321,0.301l0.301-0.301h0.301c0.603,0,0.903,0.301,0.903,0.902
					l0,0v10.229c0,0.301,0,0.602-0.301,0.602l-0.603,0.602c-19.554,17.449-40.012,2.708-44.224-0.902l0-0.602h-0.301h-0.301
					l-0.602,0.301c-4.212,3.61-24.97,18.953-44.826,0.602l0,0C348.33,175.09,348.33,174.789,348.029,174.489L348.029,174.489
					L348.029,174.489z M348.029,196.45v-9.627c0-0.603,0.301-0.903,0.903-0.903c0.301,0,0.301,0,0.602,0l0.602,0.301
					c6.318,4.513,25.572,15.645,43.021-0.602l0.301-0.301c0.301-0.301,1.204-0.301,1.504,0l0.301,0.301
					c17.75,16.547,37.304,4.813,43.321,0.301l0.301-0.301h0.302c0.602,0,0.902,0.301,0.902,0.903l0,0v9.627
					c0,0.301,0,0.602-0.301,0.602l-0.602,0.602c-19.555,17.448-40.013,2.707-44.224-0.902h-0.301h-0.301h-0.301l-0.602,0.301
					c-4.212,3.609-24.97,18.652-44.826,0.602l0,0C348.33,197.052,348.33,197.052,348.029,196.45L348.029,196.45L348.029,196.45z"/>
			</g>
			<g>
				<path fill="#FFFFFF" d="M385.935,230.145c-1.805,0-3.309,1.504-3.309,3.309c0,1.806,1.504,3.31,3.309,3.31
					s3.309-1.504,3.309-3.31C389.244,231.649,387.74,230.145,385.935,230.145z"/>
			</g>
			<g>
				<path fill="#FFFFFF" d="M410.303,246.691c-1.203,0-2.407,0.902-2.708,2.105c0,1.204,0.902,2.407,2.106,2.708
					c0.301,0,0.301,0,0.602,0c1.204,0,2.407-0.902,2.708-2.105c0-1.204-0.902-2.407-2.106-2.708
					C410.604,246.691,410.604,246.691,410.303,246.691z"/>
			</g>
		</g>
	</g>
</g>
</svg>
