<?xml version="1.0" encoding="utf-8"?>
<!-- Generator: Adobe Illustrator 16.0.3, SVG Export Plug-In . SVG Version: 6.00 Build 0)  -->
<!DOCTYPE svg PUBLIC "-//W3C//DTD SVG 1.1//EN" "http://www.w3.org/Graphics/SVG/1.1/DTD/svg11.dtd" [
	<!ENTITY ns_extend "http://ns.adobe.com/Extensibility/1.0/">
	<!ENTITY ns_ai "http://ns.adobe.com/AdobeIllustrator/10.0/">
	<!ENTITY ns_graphs "http://ns.adobe.com/Graphs/1.0/">
	<!ENTITY ns_vars "http://ns.adobe.com/Variables/1.0/">
	<!ENTITY ns_imrep "http://ns.adobe.com/ImageReplacement/1.0/">
	<!ENTITY ns_sfw "http://ns.adobe.com/SaveForWeb/1.0/">
	<!ENTITY ns_custom "http://ns.adobe.com/GenericCustomNamespace/1.0/">
	<!ENTITY ns_adobe_xpath "http://ns.adobe.com/XPath/1.0/">
]>
<svg version="1.1" id="Layer_1" xmlns:x="&ns_extend;" xmlns:i="&ns_ai;" xmlns:graph="&ns_graphs;"
	 xmlns="http://www.w3.org/2000/svg" xmlns:xlink="http://www.w3.org/1999/xlink" x="0px" y="0px" width="302.876px"
	 height="302.875px" viewBox="275.402 76.677 302.876 302.875" enable-background="new 275.402 76.677 302.876 302.875"
	 xml:space="preserve">
<metadata>
	<sfw  xmlns="&ns_sfw;">
		<slices></slices>
		<sliceSourceBounds  width="302.876" height="302.875" y="120.948" x="274.902" bottomLeftOrigin="true"></sliceSourceBounds>
	</sfw>
</metadata>
<title>TARGET 1.3</title>
<g id="TARGETS">
	<g>
		<rect x="275.402" y="76.677" fill="#3F7E44" width="302.876" height="302.875"/>
	</g>
	<g>
		<g>
			<path fill="#FFFFFF" d="M523.965,254.632c0,4.793,3.834,8.946,8.626,8.946c4.793,0,8.946-3.834,8.946-8.626
				c0-4.793-3.834-8.946-8.627-8.946l0,0C528.118,246.006,523.965,249.84,523.965,254.632z"/>
		</g>
		<g>
			<path fill="#FFFFFF" d="M543.134,267.093h-0.639h-19.488h-0.64c-6.07,0.639-10.862,5.75-10.862,11.82v24.601
				c-0.319,1.917,1.278,3.515,3.195,3.834c1.916,0.319,3.514-1.278,3.833-3.194c0-0.32,0-0.32,0-0.64v-21.405
				c0-0.639,0.319-1.917,1.598-1.917s1.278,0.959,1.278,1.598v63.259c-0.319,2.875,1.917,5.111,4.473,5.431s5.111-1.917,5.432-4.473
				c0-0.319,0-0.639,0-0.639v-36.422c0-0.639,0.639-1.278,1.277-1.278l0,0l0,0c0.64,0,1.278,0.64,1.278,1.278c0,0,0,0,0,0.319
				v36.422c0,2.875,2.236,4.792,5.111,4.792c2.876,0,4.793-2.236,4.793-4.792v-63.578c0-0.639,0.319-1.598,1.277-1.598
				c0.959,0,1.598,0.959,1.598,1.917v21.086c0,1.917,1.598,3.515,3.515,3.515s3.515-1.598,3.515-3.515v-24.601
				C553.997,272.843,549.204,267.732,543.134,267.093z"/>
		</g>
		<g>
			<path fill="#FFFFFF" d="M449.844,259.425c0,4.473,3.834,8.307,8.307,8.307s8.307-3.834,8.307-8.307s-3.834-8.307-8.307-8.307
				S449.844,254.952,449.844,259.425L449.844,259.425z"/>
		</g>
		<g>
			<path fill="#FFFFFF" d="M468.374,283.387c0.958-0.32,1.277,0.958,1.277,0.958l5.751,19.169c0,0,0.959,4.153,4.473,3.195
				c3.515-0.959,2.237-5.112,2.237-5.112l-7.029-22.684c0,0-2.556-6.709-7.987-6.709h-17.892c-5.431,0-7.986,6.709-7.986,6.709
				l-7.029,22.684c0,0-1.278,4.153,2.236,5.112c3.515,0.958,4.473-3.195,4.473-3.195l5.751-19.169c0,0,0.319-1.278,1.278-0.958
				c0.958,0.319,0.639,1.917,0.639,1.917l-9.904,35.463h8.946v25.559c-0.319,2.556,1.597,4.473,3.833,4.793
				c2.557,0.319,4.474-1.598,4.793-3.834c0-0.319,0-0.64,0-0.64v-25.559h2.556v25.559c-0.319,2.557,1.598,4.474,3.834,4.793
				c2.556,0.319,4.473-1.598,4.792-3.834c0-0.319,0-0.639,0-0.639v-25.56h8.946l-9.904-35.463
				C467.415,284.984,467.096,283.706,468.374,283.387z"/>
		</g>
		<g>
			<path fill="#FFFFFF" d="M399.684,259.425c0,4.792,3.834,8.307,8.307,8.307c4.792,0,8.307-3.834,8.307-8.307
				c0-4.793-3.833-8.307-8.307-8.307l0,0C403.518,250.799,399.684,254.632,399.684,259.425L399.684,259.425z"/>
		</g>
		<g>
			<path fill="#FFFFFF" d="M424.923,278.275c0,0-2.556-6.709-7.987-6.709h-17.891c-5.432,0-7.987,6.709-7.987,6.709l-7.029,22.684
				c0,0-1.278,4.153,2.236,5.111c3.515,0.959,4.473-2.875,4.473-2.875l5.75-18.85c0,0,0.319-1.278,1.278-1.278
				s0.639,1.917,0.639,1.917l-9.904,35.463h8.946v25.56c-0.319,2.556,1.598,4.473,3.834,4.792c2.556,0.319,4.473-1.597,4.792-3.834
				c0-0.319,0-0.639,0-0.639v-25.559h2.556v25.559c-0.319,2.556,1.598,4.473,3.834,4.793c2.556,0.319,4.473-1.598,4.792-3.834
				c0-0.319,0-0.64,0-0.64v-25.559h8.945l-9.904-35.463c0,0-0.32-1.598,0.639-1.917s1.278,1.277,1.278,1.277l5.751,18.85
				c0,0,0.958,4.153,4.473,2.876c3.515-1.278,2.236-5.112,2.236-5.112L424.923,278.275z"/>
		</g>
		<g>
			<path fill="#FFFFFF" d="M327.479,264.536c4.792,0,8.626-3.834,8.626-8.945c0-4.792-3.834-8.626-8.946-8.626
				s-8.626,3.834-8.626,8.945l0,0C318.534,260.702,322.367,264.536,327.479,264.536L327.479,264.536z"/>
		</g>
		<g>
			<path fill="#FFFFFF" d="M337.703,268.051h-20.447c-6.07,0.319-10.863,5.432-10.863,11.502v24.28c0,0.959,0.639,1.917,1.278,2.557
				l-7.667,41.214c0,0.639,0.319,1.277,0.958,1.598h0.319c0.639,0,1.278-0.32,1.278-0.959l7.668-40.895
				c1.597-0.319,2.875-1.598,2.875-3.194v-21.087c0-0.639,0.32-1.917,1.598-1.917s1.278,0.959,1.278,1.598v62.62
				c0,2.556,2.236,4.792,4.792,4.792c2.556,0,4.792-2.236,4.792-4.792l0,0v-35.783c0-0.639,0.639-1.277,1.278-1.277c0,0,0,0,0.319,0
				l0,0c0.639,0,1.278,0.639,1.278,1.277c0,0,0,0,0,0.319v36.103c0.32,2.556,2.556,4.792,5.432,4.473
				c2.556-0.319,4.473-2.236,4.473-4.473v-62.939c0-0.639,0.319-1.597,1.278-1.597s1.598,0.958,1.598,1.917v20.767
				c0.319,1.916,1.917,3.194,3.834,3.194c1.597,0,2.875-1.598,3.195-3.194v-24.281C348.246,273.483,343.773,268.69,337.703,268.051z
				"/>
		</g>
		<g>
			<path fill="#FFFFFF" d="M489.46,298.403c0,3.834,3.195,7.028,7.029,7.028c3.833,0,7.028-3.194,7.028-7.028
				s-3.195-7.028-7.028-7.028C492.655,291.373,489.46,294.569,489.46,298.403L489.46,298.403z"/>
		</g>
		<g>
			<path fill="#FFFFFF" d="M510.866,319.489c-4.153-10.862-5.112-10.862-8.946-11.182h-10.862c-3.834,0-4.473,0-8.945,11.182
				c-0.64,1.598-3.195,7.668-3.195,7.987s-0.959,2.556,1.278,3.515c2.236,0.958,2.875-1.917,2.875-1.917l4.473-10.863
				c0,0,0-0.319,0.319-0.319s0,0.319,0.319,0.319v28.115l0,0c0,1.917,1.598,3.515,3.515,3.515s3.515-1.598,3.515-3.515l0,0v-10.862
				c0,0,0-1.598,0.958-1.598c0.959,0,0.959,1.598,0.959,1.598v11.182c0,1.917,1.598,3.834,3.515,3.834l0,0
				c1.917,0,3.514-1.598,3.514-3.514c0,0,0,0,0-0.32l0,0v-28.114c0-0.32,0-0.32,0-0.32l0.319,0.32l3.834,9.584
				c0,0,1.278,2.557,3.195,1.598c1.917-0.958,0.958-3.195,0.958-3.195S511.505,321.086,510.866,319.489z"/>
		</g>
		<g>
			<path fill="#FFFFFF" d="M380.515,301.597c-1.278-0.639-2.875-0.319-3.515,1.278l0,0c-1.278,2.236-2.875,4.792-4.473,6.709
				c-0.639,0.639-1.278,0.959-2.237,0.959h-8.626c-0.958,0-1.598-0.319-2.236-0.959c-0.958-0.958-4.473-7.028-4.473-7.028
				c-0.319-0.64-1.278-1.278-2.236-1.278c-1.278,0-2.556,1.278-2.556,2.556c0,0.32,0,0.64,0.319,0.959l7.029,12.779
				c0.319,0.639,0.319,0.959,0.319,1.598v1.917l0,0c0,0.639,0,1.598-0.319,2.236l-3.514,13.418h3.833v9.904l0,0
				c-0.319,1.917,1.278,3.515,3.195,3.834s3.515-1.277,3.834-3.194c0-0.319,0-0.319,0-0.64v-9.584v-0.32h2.236v9.904
				c-0.319,1.917,1.278,3.515,3.195,3.834c1.917,0.319,3.515-1.277,3.834-3.194c0-0.319,0-0.319,0-0.64v-9.904h3.834l-3.514-13.418
				c-0.32-0.639-0.32-1.278-0.32-1.917v-0.639l0,0v-1.278c0-0.639,0.32-1.278,0.32-1.598l6.39-11.821l0.639-1.277
				C382.112,303.833,381.792,302.237,380.515,301.597C380.834,301.597,380.515,301.597,380.515,301.597z"/>
		</g>
		<g>
			<path fill="#FFFFFF" d="M366.137,306.07c3.834,0,7.029-3.194,7.029-7.028s-3.195-7.028-7.029-7.028
				c-3.833,0-7.029,3.194-7.029,7.028l0,0C359.108,302.875,362.304,306.07,366.137,306.07L366.137,306.07z"/>
		</g>
		<g>
			<path fill="#FFFFFF" d="M536.425,160.702c-44.729-60.063-129.393-72.523-189.457-27.795
				c-10.543,7.987-20.128,17.252-27.796,27.795l-0.958,1.278l0.958,1.278c44.729,60.063,129.712,72.523,189.777,27.795
				c10.543-7.987,20.128-17.252,27.795-27.795l0.959-1.278L536.425,160.702 M391.058,133.865c0.639-0.958,2.556-3.194,2.875-3.834
				c0.639-0.639,1.278-0.958,2.236-0.958c0.639,0,1.597,0.319,1.597,0.639c0,0.959-0.319,1.917-0.639,2.876
				c-1.278,1.277-2.875,1.917-4.792,2.236C391.377,134.824,390.738,134.185,391.058,133.865 M388.821,138.339L388.821,138.339
				c1.278-0.959,2.556-1.598,3.833-1.598c0.958-0.319,2.556,0.319,2.875,0.958c0.319,0.64-2.875,2.556-3.514,2.876
				c-1.598,1.597-4.153,4.473-5.432,4.792c-0.319,0-0.958,0-1.278,0C386.265,143.131,387.543,140.575,388.821,138.339
				 M413.422,188.818c-0.32,2.236-1.278,4.153-2.875,5.751c-1.598,1.598-3.834,2.236-6.39,2.556c-2.237,0-2.237-5.751-2.237-8.626
				c0-0.958-1.278,1.917-2.236-4.153c-0.319-3.834-2.875,0.319-3.195-2.236s-1.278-1.917-2.556-3.515
				c-1.278-1.598-2.875,0-4.792,0.959c-1.917,0.958-0.958,1.277-3.515,0.319l0,0c-2.236-5.751-3.514-11.821-3.514-17.892
				c0-1.598,0-3.194,0.319-4.473l0.32-0.319c2.556-2.876,2.236-3.515,2.236-3.515l2.556-0.958c2.556,0.319,5.112,0.958,7.349,1.916
				c2.556,0.959,6.709,3.195,9.265,2.237c1.597-0.64,3.195-1.598,2.875-3.195c-0.319-1.598-1.597-2.236-3.514-0.958
				c-0.639,0.319-1.917-2.876-3.195-2.557s1.278,3.834,0.319,3.834s-2.875-3.834-3.195-4.473s-1.598-2.236-2.875-0.958
				c-2.556,2.556-7.029,2.556-7.987,3.194c-2.556,1.917-3.514-0.639-3.195-2.236c0-0.319,0.32-0.639,0.32-0.958
				c1.597-0.959,3.514-1.278,5.112-0.64c1.278,0.64,1.917-0.319,2.556-0.639c0.319-0.639,0.319-1.278,0-1.917
				s0.639-0.959,1.278-1.278c1.278-0.639,2.237-1.277,3.515-2.236c2.236-0.639,4.792-0.639,7.029,0
				c1.597,0.959,3.514,0.319,4.473-0.958c0.958-0.959,1.917-1.917,3.195-2.876c0.639-0.319-1.597-2.556-3.514,0
				c-1.917,2.557-2.875,2.557-3.834,2.557s-6.07-1.278-6.709-2.876c-0.639-1.598,1.598-2.875,3.515-3.834
				c2.875-0.639,5.75-0.958,8.626-1.277c2.875-0.64,6.39-1.917,7.987-0.64c1.598,1.278-7.348,3.195-4.473,4.793
				c0.958,0.639,6.07-2.876,7.667-3.834c3.834-1.917-3.834-2.556-2.875-6.709c0.958-4.793-9.584-2.876-14.696-2.557
				c21.086-13.737,49.521-7.987,63.258,13.419c2.876,4.473,4.793,8.945,6.07,14.058c0,0.639,0,1.277-0.319,2.236
				c-0.639,1.598-2.236,2.236-3.834,1.598c-0.639-0.32-1.277-0.64-1.597-1.278c-0.64-0.639-2.557-2.556-2.236,0.639
				c0.319,3.195,3.194,3.515,0,5.432c-1.278,0.958-3.195,1.598-4.793,1.917c-1.598,1.278-2.556,3.515-2.236,5.432
				c0.319,1.597,4.473,6.39,1.278,6.39c-2.876-1.278-5.432-3.515-7.029-6.07c-0.958-2.557-1.917-5.112-2.875-7.029
				c-0.319-1.277-1.917-2.236-3.515-1.917c-0.319,0-0.639,0.32-0.958,0.64c-1.598,0.958,0.639,2.236-0.64,4.473
				c-1.277,2.236-1.917,4.473-3.834,2.556c-4.473-5.111-10.862-2.556-12.14-8.307c-0.64-3.195-3.195-2.875-5.432-4.473
				s-3.515-2.556-3.834-1.598c-0.319,0.959,7.028,7.029,7.349,8.307c0.639,2.236-2.236,4.153-4.473,4.792
				c-2.236,0.64-3.195-1.277-5.112-3.514s-3.195-3.834-3.195-1.917c0.319,3.194,1.597,5.751,4.153,7.668
				c1.917,1.277,3.834,1.597,3.195,3.514s0,0.959-2.236,2.876c-1.917,1.277-2.556,3.514-2.236,5.431
				c0,2.876-0.639,2.876-0.958,5.432c-0.32,2.556-1.598,0.319-2.237,3.834 M462.304,170.607c1.598,0,3.834,1.917,2.875,2.876
				c-1.277,0.639-3.194,0.639-4.473-0.319C459.748,172.204,461.665,170.607,462.304,170.607 M460.387,169.329
				c-0.639-0.319-0.959-0.64-1.278-1.598c-0.319-0.959,0.64-1.917,1.598-1.278c0.959,0.64,1.917,1.598,2.236,2.557
				C462.623,169.649,461.025,169.649,460.387,169.329 M440.259,169.329c-1.278,0.639-3.195,0.639-4.473-0.319
				c-1.278-0.959,0.639-2.237,1.277-2.557C438.661,166.453,441.218,168.37,440.259,169.329 M421.409,178.275
				c-0.639,0.959-2.237,8.626-3.515,7.987s0.319-8.945,0.639-9.585C420.451,173.163,424.604,173.163,421.409,178.275
				 M427.799,207.988c-4.473,0-8.626-0.64-12.78-1.917c-0.639-0.64-0.958-1.598-0.639-2.236c1.597-3.195,5.112-5.432,8.946-5.432
				c7.348-0.639,17.252,4.792,18.53,3.834c1.277-0.959,4.792-5.112,9.265-4.793c1.598,0,2.876,0.32,4.153,0.959
				C447.607,204.792,437.703,207.988,427.799,207.988 M460.067,194.569c-0.64,0-0.959-0.319-1.598-0.639
				c-2.556-1.278-2.236,0.639-3.515,0.319c-1.277-0.319,1.278-3.195-2.236-0.959c-3.515,2.237-2.556-0.319-4.153-4.473
				c-0.958-4.153,0.959-8.307,4.792-9.904c2.557-0.958,5.432-1.597,8.308-2.236c5.431-1.597,6.709-4.792,7.667-2.556
				c0.319,0.319,0.319,0.639,0.64,0.959c0.319,0.958,0.639,1.916,0.639,2.875C468.374,184.664,464.54,190.096,460.067,194.569
				 M472.527,171.566c-1.278-0.319-6.39-7.349-2.236-12.141c0.639-0.639-1.278-3.195-0.64-3.195c2.236,0,3.515,1.278,3.834,3.195
				c0,0.958,0,1.598,0,2.556C473.485,165.176,473.166,168.37,472.527,171.566"/>
		</g>
	</g>
</g>
</svg>
