<?xml version="1.0" encoding="utf-8"?>
<!-- Generator: Adobe Illustrator 16.0.3, SVG Export Plug-In . SVG Version: 6.00 Build 0)  -->
<!DOCTYPE svg PUBLIC "-//W3C//DTD SVG 1.1//EN" "http://www.w3.org/Graphics/SVG/1.1/DTD/svg11.dtd" [
	<!ENTITY ns_extend "http://ns.adobe.com/Extensibility/1.0/">
	<!ENTITY ns_ai "http://ns.adobe.com/AdobeIllustrator/10.0/">
	<!ENTITY ns_graphs "http://ns.adobe.com/Graphs/1.0/">
	<!ENTITY ns_vars "http://ns.adobe.com/Variables/1.0/">
	<!ENTITY ns_imrep "http://ns.adobe.com/ImageReplacement/1.0/">
	<!ENTITY ns_sfw "http://ns.adobe.com/SaveForWeb/1.0/">
	<!ENTITY ns_custom "http://ns.adobe.com/GenericCustomNamespace/1.0/">
	<!ENTITY ns_adobe_xpath "http://ns.adobe.com/XPath/1.0/">
]>
<svg version="1.1" id="Layer_1" xmlns:x="&ns_extend;" xmlns:i="&ns_ai;" xmlns:graph="&ns_graphs;"
	 xmlns="http://www.w3.org/2000/svg" xmlns:xlink="http://www.w3.org/1999/xlink" x="0px" y="0px" width="285.199px"
	 height="285.198px" viewBox="284.25 72.202 285.199 285.198" enable-background="new 284.25 72.202 285.199 285.198"
	 xml:space="preserve">
<metadata>
	<sfw  xmlns="&ns_sfw;">
		<slices></slices>
		<sliceSourceBounds  width="285.199" height="285.198" x="283.75" y="143.1" bottomLeftOrigin="true"></sliceSourceBounds>
	</sfw>
</metadata>
<title>TARGET 1 A</title>
<g id="TARGETS">
	<g>
		<rect x="284.25" y="72.202" fill="#E5243B" width="285.199" height="285.198"/>
	</g>
	<g>
		<g>
			<g>
				<polygon fill="#FFFFFF" points="448.812,116.125 444.299,116.125 444.299,201.865 507.476,201.865 507.476,196.751 
					448.812,196.751 				"/>
			</g>
			<g>
				<path fill="#FFFFFF" d="M453.323,105.596v86.041h61.673v-86.041H453.323z M507.776,179.904L507.776,179.904
					c0,0.301-0.301,0.301-0.301,0.301h-46.029c-0.301,0-0.301-0.301-0.301-0.301v-6.919c0-0.301,0.301-0.301,0.301-0.301h45.729
					c0.301,0,0.301,0.301,0.301,0.301L507.776,179.904L507.776,179.904z M507.776,166.365L507.776,166.365
					c0,0.301-0.301,0.301-0.301,0.301h-46.029c-0.301,0-0.301-0.301-0.301-0.602v-6.919c0-0.301,0.301-0.301,0.301-0.301h45.729
					c0.301,0,0.301,0,0.301,0.301l0,0L507.776,166.365z M507.776,152.527L507.776,152.527c0,0.302-0.301,0.302-0.301,0.302h-46.029
					c-0.301,0-0.301-0.302-0.602-0.302v-7.22c0-0.301,0.301-0.301,0.602-0.301h45.729c0,0,0.301,0,0.301,0.301c0,0,0,0,0,0.301
					L507.776,152.527z"/>
			</g>
		</g>
		<g>
			<g>
				<g>
					<path fill="#FFFFFF" d="M525.827,246.691c4.512,0,8.122-3.61,8.122-8.424c0-4.513-3.61-8.122-8.423-8.122
						c-4.514,0-8.123,3.609-8.123,8.122C517.403,243.08,521.014,246.691,525.827,246.691L525.827,246.691z"/>
				</g>
				<g>
					<path fill="#FFFFFF" d="M535.454,249.699H516.2c-5.717,0.602-10.229,5.415-9.928,11.131v22.864
						c-0.302,1.805,1.203,3.309,3.008,3.609c1.805,0.302,3.31-1.203,3.61-3.008c0-0.301,0-0.301,0-0.602v-19.855
						c0-0.603,0.301-1.806,1.504-1.806s1.203,0.902,1.203,1.505v58.965c0,2.406,2.106,4.513,4.513,4.513
						c2.407,0,4.513-2.106,4.513-4.513l0,0V289.11c0-0.602,0.602-1.203,1.204-1.203l0,0l0,0c0.602,0,1.203,0.602,1.203,1.203l0,0
						v33.995c-0.301,2.406,1.805,4.813,4.212,5.114c2.406,0.301,4.813-1.806,5.114-4.212c0-0.301,0-0.602,0-0.602v-59.566
						c0-0.603,0.301-1.505,1.203-1.505s1.504,0.902,1.504,1.806v19.855c0,1.805,1.505,3.309,3.31,3.309s3.31-1.504,3.31-3.309l0,0
						v-22.864C545.382,255.115,541.17,250.301,535.454,249.699z"/>
				</g>
			</g>
			<g>
				<g>
					<path fill="#FFFFFF" d="M456.031,250.602c4.212,0,7.822-3.61,7.822-7.822s-3.61-7.821-7.822-7.821s-7.822,3.609-7.822,7.821
						l0,0C448.209,247.292,451.819,250.602,456.031,250.602z"/>
				</g>
				<g>
					<path fill="#FFFFFF" d="M478.294,281.588l-6.619-21.059c0,0-2.406-6.017-7.521-6.017h-16.547c-5.114,0-7.521,6.017-7.521,6.017
						l-6.619,21.059c0,0-1.203,3.911,2.106,4.813s4.212-2.707,4.212-2.707l5.114-17.75c0,0,0.301-1.504,1.203-1.203
						s0.602,1.805,0.602,1.805l-9.025,33.093h8.424v23.767c0.301,2.105,2.105,3.911,4.513,3.609c2.105-0.301,3.61-1.805,3.61-3.609
						v-23.767h2.406v23.767c0.301,2.105,2.106,3.911,4.513,3.609c2.106-0.301,3.61-1.805,3.61-3.609v-23.767h8.424l-9.025-33.093
						c0,0-0.301-1.504,0.602-1.805s1.203,1.203,1.203,1.203l5.114,17.75c0,0,0.902,3.911,4.212,2.707
						C478.595,285.198,478.294,281.588,478.294,281.588z"/>
				</g>
			</g>
			<g>
				<g>
					<path fill="#FFFFFF" d="M409.401,250.602c4.211,0,7.822-3.61,7.822-7.822s-3.61-7.821-7.822-7.821
						c-4.212,0-7.822,3.609-7.822,7.821l0,0C401.579,246.991,404.888,250.602,409.401,250.602z"/>
				</g>
				<g>
					<path fill="#FFFFFF" d="M431.663,281.588l-6.618-21.059c0,0-2.407-6.017-7.521-6.017h-16.546c-5.114,0-7.521,6.017-7.521,6.017
						l-6.619,21.059c0,0-1.203,3.911,2.106,4.813c3.31,0.902,4.212-2.707,4.212-2.707l5.114-17.75c0,0,0.301-1.203,1.204-0.902
						c0.902,0.301,0.602,1.805,0.602,1.805l-9.025,33.093h8.424v23.767c0.301,2.105,2.105,3.911,4.512,3.61
						c2.106-0.302,3.61-1.806,3.61-3.61V299.94h2.407v23.767c0.301,2.105,2.106,3.911,4.513,3.61c2.106-0.302,3.61-1.806,3.61-3.61
						V299.94h8.424l-9.025-33.093c0,0-0.301-1.504,0.602-1.805c0.903-0.301,1.204,0.902,1.204,0.902l5.114,17.75
						c0,0,0.903,3.911,4.212,2.707C431.964,285.198,431.663,281.588,431.663,281.588z"/>
				</g>
			</g>
			<g>
				<g>
					<path fill="#FFFFFF" d="M334.19,247.593c4.513,0,8.123-3.61,8.123-8.122c0-4.513-3.61-8.123-8.123-8.123
						c-4.512,0-8.123,3.61-8.123,8.123C326.067,243.983,329.678,247.593,334.19,247.593L334.19,247.593z"/>
				</g>
				<g>
					<path fill="#FFFFFF" d="M343.516,250.602h-18.953c-5.716,0.602-9.928,5.415-9.928,11.131v22.563
						c0,0.902,0.602,1.805,1.204,2.406l-7.22,38.508c0,0.602,0.301,1.203,0.902,1.504l0,0h0.301c0.602,0,1.204-0.301,1.204-0.902
						l7.22-38.206c1.504-0.301,2.708-1.505,2.708-3.009v-19.855c0-0.602,0.301-1.806,1.504-1.806c0.903,0,1.204,0.903,1.204,1.505
						v58.363c0.301,2.406,2.708,4.212,5.114,3.91c1.805-0.301,3.309-1.805,3.911-3.91V289.41c0-0.602,0.602-1.203,1.203-1.203
						c0,0,0,0,0.301,0l0,0c0.602,0,1.204,0.602,1.204,1.203l0,0v33.694c0.301,2.406,2.708,4.212,5.114,3.911
						c1.805-0.302,3.309-1.806,3.911-3.911v-58.363c0-0.602,0.301-1.505,1.203-1.505s1.504,0.903,1.504,1.806v19.555
						c-0.301,1.805,1.203,3.31,3.008,3.61s3.309-1.204,3.61-3.009c0-0.301,0-0.301,0-0.602v-22.864
						C353.444,256.017,349.232,251.203,343.516,250.602z"/>
				</g>
			</g>
			<g>
				<g>
					<path fill="#FFFFFF" d="M491.831,285.8c3.61,0,6.619-3.008,6.619-6.618s-3.009-6.619-6.619-6.619
						c-3.609,0-6.618,3.009-6.618,6.619l0,0C485.213,282.792,488.222,285.8,491.831,285.8z"/>
				</g>
				<g>
					<path fill="#FFFFFF" d="M507.776,305.355c0-0.301-2.106-5.114-2.708-6.618c-3.911-10.229-4.813-10.229-8.424-10.229h-10.229
						c-3.609,0-4.212,0-8.423,10.229c-0.603,1.504-3.009,7.22-3.009,7.521s-0.902,2.407,1.203,3.31
						c2.106,0.902,2.708-1.805,2.708-1.805l4.212-9.929c0,0,0-0.3,0.301-0.3s0,0.3,0,0.3v26.174l0,0c0,1.805,1.504,3.61,3.309,3.61
						c0,0,0,0,0.301,0c1.806,0,3.61-1.204,3.61-3.009c0-0.301,0-0.301,0-0.602v-10.529c0,0,0-1.505,0.902-1.505
						c0.903,0,0.903,1.505,0.903,1.505v10.529c0,1.805,1.504,3.61,3.309,3.61c0,0,0,0,0.301,0c1.806,0,3.31-1.505,3.31-3.31
						c0,0,0,0,0-0.301l0,0v-26.174c0-0.3,0-0.3,0-0.3l0.602,0.3l3.61,9.025c0,0,0.902,2.407,3.009,1.505
						C507.776,307.762,508.378,306.558,507.776,305.355L507.776,305.355z"/>
				</g>
			</g>
			<g>
				<g>
					<path fill="#FFFFFF" d="M383.829,281.889c-1.203-0.602-2.708,0-3.309,1.204l0,0c-1.204,2.105-2.708,4.211-4.212,6.317
						c-0.602,0.602-1.204,0.902-2.106,0.902h-7.822c-0.903,0-1.504-0.301-2.106-0.902c-0.902-0.902-4.212-6.618-4.212-6.618
						c-0.301-0.603-1.203-1.204-2.106-1.204c-1.203,0-2.407,1.204-2.407,2.407l0,0c0,0.301,0,0.602,0.301,0.902l6.619,12.034
						c0.301,0.602,0.301,0.901,0.301,1.504v1.805l0,0c0,0.602,0,1.504-0.301,2.105l-3.008,12.636h3.61v9.326l0,0
						c0.301,1.805,1.805,3.009,3.61,3.009c1.504,0,2.708-1.505,3.008-3.009v-9.025v-0.301h1.805v0.301v9.025
						c0.301,1.805,1.805,3.009,3.61,3.009c1.504,0,2.708-1.505,3.009-3.009v-9.326h3.61l-3.309-12.636
						c0-0.602-0.301-1.203-0.301-1.805v-0.301l0,0v-1.805c0-0.603,0.301-1.203,0.301-1.504l6.017-11.132l0.602-1.203
						c0.602-0.902,0.301-2.407-0.903-3.009C383.829,282.19,383.829,282.19,383.829,281.889z"/>
				</g>
				<g>
					<path fill="#FFFFFF" d="M370.291,286.402c3.61,0,6.619-3.008,6.619-6.618s-3.008-6.618-6.619-6.618
						c-3.61,0-6.618,3.008-6.618,6.618l0,0C363.673,283.394,366.681,286.402,370.291,286.402z"/>
				</g>
			</g>
		</g>
		<g>
			<g>
				<path fill="#FFFFFF" d="M369.389,151.624c-1.203,0.602-2.407,1.204-3.61,1.505c-3.911,1.203-7.822,1.504-11.733,1.504
					c-1.805,0-3.911-0.301-5.716-0.602c-1.203-0.301-2.407-0.301-3.61-0.602l-1.805-0.602c-1.504-0.603-3.309-1.204-4.513-2.106
					c-0.602-0.301-0.902-0.902-1.203-1.504v1.504c0,0.301,0,2.407,0,2.407c0,0.902,0.602,1.805,1.203,2.406
					c2.708,1.805,5.716,3.009,9.025,3.31c2.106,0.301,4.513,0.602,6.619,0.602c3.309,0,6.317-0.301,9.627-1.203l0,0
					c1.805-0.301,3.309-0.903,4.813-1.806l0,0c1.504-0.902,2.407-2.105,2.407-3.309v-3.61
					C370.592,150.421,370.291,151.023,369.389,151.624z"/>
			</g>
			<g>
				<path fill="#FFFFFF" d="M352.842,139.892c9.326,0,17.148-2.708,17.148-6.317c0,0,0.301-3.31,0-3.911
					c0-0.602,0-0.902-0.301-1.505c1.204-0.602,1.805-1.504,1.805-3.008c0,0,0-3.61,0-4.212c-0.602-4.212-9.025-6.618-17.148-6.618
					c-8.123,0-17.148,2.406-17.148,6.919c0,0.301,0.301,3.911,0.301,3.911c0,0.301,0,0.602,0.301,0.902
					c-1.204,0.602-2.106,2.105-2.106,3.61c0,0.301,0.301,3.911,0.301,3.911c0,0.902,0.602,1.805,1.504,2.406
					c2.708,1.805,5.716,3.009,9.025,3.31C348.029,139.892,350.436,139.892,352.842,139.892z M354.347,116.426
					c9.025,0,15.343,2.708,15.343,5.114c0,2.407-6.317,5.114-15.343,5.114s-15.343-2.707-15.343-5.114
					C339.003,119.134,345.321,116.426,354.347,116.426z M337.199,129.663c0-0.902,0.602-1.505,1.203-1.806
					c0.602,0.602,1.204,0.903,1.805,1.204c4.513,2.105,9.326,3.008,14.14,2.707c4.212,0,8.123-0.602,12.034-1.805
					c0.602-0.301,0.902-0.602,1.504-0.602v0.301c0,2.406-6.317,5.114-15.343,5.114S337.199,132.07,337.199,129.663z"/>
			</g>
			<g>
				<path fill="#FFFFFF" d="M347.728,153.129c2.106,0.301,4.513,0.602,6.619,0.602c3.309,0,6.317-0.301,9.627-1.204l0,0
					c1.805-0.301,3.309-0.902,4.813-1.805l0,0c0.301-0.301,0.602-0.602,1.203-0.602c0.602-0.301,0.903-0.902,1.204-1.504
					c0-0.301,0.301-0.602,0.301-0.903v-3.609c-0.602,0.602-2.106,3.008-8.725,4.212c-3.008,0.602-5.716,0.602-8.724,0.602
					c-4.813,0-9.326-0.902-13.538-2.708c-0.902-0.301-1.504-0.902-2.106-1.504c-0.301-0.301-0.602-0.902-0.902-1.203
					c0,0,0,1.504,0,1.805v2.105c0,0.903,0.602,1.806,1.203,2.407C341.109,151.624,344.118,152.828,347.728,153.129z"/>
			</g>
			<g>
				<path fill="#FFFFFF" d="M371.194,135.68l-0.602-0.301c-0.301-0.301-0.602-0.301-0.602-0.301
					c-0.301,0.301-0.602,0.602-0.902,0.902c0.301,0,0.602,0.301,0.602,0.301c0.602,0.301,0.903,0.902,0.903,1.203
					s-0.301,0.903-0.602,1.204l-0.602,0.602l-0.902,0.602l-1.504,0.602l-1.504,0.602l-2.105,0.301l-2.708,0.301
					c-0.301,0-1.805,0.301-2.708,0.301c-0.902,0-2.708,0.301-3.911,0.301c-3.009,0-6.318-0.301-9.326-0.902
					c-1.504-0.301-2.708-0.602-4.212-1.203c-0.902-0.301-1.504-0.902-2.106-1.504c-0.602-0.603-0.902-1.204-1.504-1.806v2.106v2.105
					c0,0.902,0.602,1.805,1.203,2.407c2.708,1.805,5.716,3.008,9.025,3.309c2.106,0.301,4.513,0.602,6.619,0.602
					c3.309,0,6.317-0.301,9.627-1.203l0,0c1.805-0.301,3.309-0.902,4.813-1.805l0,0c0.301-0.301,0.602-0.602,1.203-0.602
					c0.602-0.301,0.902-0.903,1.204-1.505c0-0.301,0.301-0.602,0.301-0.902v-3.61c0-0.301,0-0.602,0-0.902
					C371.194,136.281,371.194,135.981,371.194,135.68z"/>
			</g>
			<g>
				<path fill="#FFFFFF" d="M391.952,127.557c9.326,0,17.148-2.707,17.148-6.317c0,0,0.301-3.31,0-3.911
					c0-0.602,0-0.902-0.301-1.504c1.204-0.602,1.805-1.504,1.805-3.009c0,0,0.301-3.61,0-4.212
					c-0.602-4.212-9.025-6.618-17.148-6.618s-16.847,2.708-16.847,7.22c0,0.302,0,3.911,0,3.911c0,0.301,0,0.602,0.301,0.602
					c-1.203,0.903-1.805,2.106-2.106,3.31c0,0.301,0,3.911,0,3.911c0,0.902,0.602,1.805,1.504,2.406
					c2.708,1.806,5.716,3.009,9.025,3.31C387.439,127.557,389.846,127.557,391.952,127.557z M393.757,104.091
					c9.025,0,15.343,2.708,15.343,5.114c0,2.407-6.318,5.115-15.343,5.115s-15.343-2.708-15.343-5.115
					C378.414,106.799,384.731,104.091,393.757,104.091z M376.609,117.328c0-0.902,0.602-1.504,1.204-1.805
					c0.602,0.602,1.203,0.902,1.805,1.203c4.513,2.105,9.326,3.009,14.14,2.708c4.212,0,8.123-0.603,12.034-1.806
					c0.602-0.301,0.903-0.602,1.504-0.602v0.301c0,2.407-6.318,5.114-15.343,5.114C382.927,122.443,376.609,119.736,376.609,117.328
					z"/>
			</g>
			<g>
				<path fill="#FFFFFF" d="M410.905,124.248c0-0.301-0.301-0.603-0.301-0.603l-0.301-0.301c-0.301-0.301-0.602-0.301-0.602-0.301
					c-0.301,0.301-0.602,0.602-0.903,0.903c0.301,0,0.602,0.301,0.602,0.301c0.602,0.301,0.902,0.902,0.902,1.203
					s-0.301,0.902-0.602,1.203l-0.602,0.602l-0.903,0.602l-1.504,0.602l-1.504,0.603l-2.106,0.602l-2.708,0.301l-2.708,0.301
					c-0.301,0-2.708,0.301-3.911,0.301c-1.805,0-3.61,0-5.415-0.301c-1.204-0.301-2.708-0.602-3.911-0.602
					c-1.504-0.301-2.708-0.602-4.211-1.204c-0.903-0.301-1.504-0.902-2.106-1.504c-0.602-0.602-0.903-1.203-1.504-1.805v2.105v2.106
					c0,0.902,0.602,1.805,1.204,2.406c2.708,1.806,5.716,3.009,9.025,3.31c2.106,0.301,4.513,0.602,6.619,0.602
					c3.309,0,6.318-0.301,9.627-1.203l0,0c1.805-0.301,3.309-0.902,4.813-1.806l0,0c0.301-0.301,0.602-0.602,1.204-0.602
					c0.602-0.301,0.902-0.902,1.203-1.504c0-0.301,0.301-0.602,0.301-0.902v-3.61C410.604,124.85,410.905,124.549,410.905,124.248z"
					/>
			</g>
			<g>
				<path fill="#FFFFFF" d="M408.799,139.29c-1.203,0.602-2.407,1.203-3.61,1.504c-3.911,1.203-7.822,1.504-11.733,1.504
					c-1.805,0-3.911-0.301-5.716-0.602c-1.204-0.301-2.407-0.301-3.61-0.602l-1.805-0.602c-1.504-0.602-3.309-1.203-4.512-2.106
					c-0.602-0.301-0.903-0.902-1.204-1.203v1.505c0,0.301,0,2.406,0,2.406c0,0.902,0.602,1.805,1.204,2.407
					c2.708,1.805,5.716,3.008,9.025,3.309c2.106,0.301,4.513,0.602,6.619,0.602c3.309,0,6.318-0.301,9.627-1.203l0,0
					c1.805-0.301,3.309-0.902,4.813-1.805l0,0c1.504-0.902,2.407-2.106,2.407-3.31v-3.61
					C410.002,138.086,409.401,138.689,408.799,139.29z"/>
			</g>
			<g>
				<path fill="#FFFFFF" d="M377.813,137.184c2.708,1.806,5.716,3.009,9.025,3.31c2.106,0.301,4.513,0.602,6.619,0.602
					c3.309,0,6.318-0.301,9.627-1.203l0,0c1.805-0.301,3.309-0.902,4.813-1.806l0,0c0.301-0.301,0.602-0.602,0.902-0.602
					c0.602-0.301,0.903-0.902,1.204-1.504c0-0.301,0.301-0.602,0.301-0.902v-3.61c-0.602,0.602-2.106,3.009-8.725,4.212
					c-3.008,0.602-5.716,0.602-8.724,0.602c-4.513,0-9.326-0.902-13.538-2.707c-0.902-0.302-1.504-0.903-2.106-1.505
					c-0.301-0.301-0.602-0.902-0.902-1.203l0.301,1.504v2.407C376.609,135.68,377.21,136.883,377.813,137.184z"/>
			</g>
			<g>
				<path fill="#FFFFFF" d="M411.206,149.519c-0.602,0.902-1.203,1.504-2.105,2.105c-1.204,0.602-2.407,1.204-3.61,1.505
					c-3.911,1.203-7.822,1.504-11.733,1.504c-1.805,0-3.911-0.301-5.716-0.301c-1.204-0.301-2.407-0.301-3.61-0.602l-1.805-0.902
					c-1.504-0.603-3.31-1.204-4.513-2.106c-0.602-0.301-0.903-0.902-1.204-1.504v1.504c0,0.301,0,2.407,0,2.407
					c0,0.902,0.602,1.805,1.204,2.406c2.708,1.805,5.716,3.009,9.025,3.31c2.106,0.602,4.513,0.602,6.619,0.602
					c3.31,0,6.318-0.301,9.627-1.203l0,0c1.805-0.301,3.31-1.204,5.114-2.106l0,0c1.504-0.902,2.407-2.105,2.407-3.309
					C410.905,153.129,411.206,149.82,411.206,149.519z"/>
			</g>
			<g>
				<path fill="#FFFFFF" d="M387.138,152.828c2.106,0.602,4.513,0.602,6.619,0.602c3.31,0,6.318-0.301,9.627-1.204l0,0
					c1.805-0.301,3.31-0.902,4.813-1.805l0,0c0.301-0.301,0.602-0.602,0.903-0.602c0.602-0.301,0.902-0.902,1.203-1.504
					c0-0.301,0.301-0.603,0.301-0.903v-3.609c-0.602,0.602-2.106,3.008-8.724,4.212c-3.009,0.602-5.716,0.602-8.725,0.602
					c-4.813,0-9.326-0.903-13.538-2.708c-0.902-0.301-1.504-0.902-2.106-1.504c-0.301-0.301-0.602-0.902-0.902-1.203v1.805v2.406
					c0,0.903,0.602,1.806,1.204,2.407C380.52,151.624,383.829,152.828,387.138,152.828z"/>
			</g>
		</g>
		<g>
			<path fill="#FFFFFF" d="M414.816,187.124l-21.661,17.147c-0.301,0.301-0.602,0.301-0.902,0.301c-0.602,0-0.602-0.301-0.602-1.203
				v-8.725h-57.16c-0.301,0-0.903-0.301-0.602-0.902l0,0V178.7c0-0.301,0.301-0.902,0.602-0.902l0,0h56.859v-8.424
				c0-0.602,0-0.902,0.602-1.203c0.301,0,0.602,0,0.903,0.301l21.661,16.546c0.301,0.301,0.602,0.602,0.602,1.203
				C415.117,186.523,415.117,186.823,414.816,187.124z"/>
		</g>
	</g>
</g>
</svg>
