<?xml version="1.0" encoding="utf-8"?>
<!-- Generator: Adobe Illustrator 16.0.3, SVG Export Plug-In . SVG Version: 6.00 Build 0)  -->
<!DOCTYPE svg PUBLIC "-//W3C//DTD SVG 1.1//EN" "http://www.w3.org/Graphics/SVG/1.1/DTD/svg11.dtd" [
	<!ENTITY ns_extend "http://ns.adobe.com/Extensibility/1.0/">
	<!ENTITY ns_ai "http://ns.adobe.com/AdobeIllustrator/10.0/">
	<!ENTITY ns_graphs "http://ns.adobe.com/Graphs/1.0/">
	<!ENTITY ns_vars "http://ns.adobe.com/Variables/1.0/">
	<!ENTITY ns_imrep "http://ns.adobe.com/ImageReplacement/1.0/">
	<!ENTITY ns_sfw "http://ns.adobe.com/SaveForWeb/1.0/">
	<!ENTITY ns_custom "http://ns.adobe.com/GenericCustomNamespace/1.0/">
	<!ENTITY ns_adobe_xpath "http://ns.adobe.com/XPath/1.0/">
]>
<svg version="1.1" id="Layer_1" xmlns:x="&ns_extend;" xmlns:i="&ns_ai;" xmlns:graph="&ns_graphs;"
	 xmlns="http://www.w3.org/2000/svg" xmlns:xlink="http://www.w3.org/1999/xlink" x="0px" y="0px" width="285.199px"
	 height="285.198px" viewBox="284.25 72.202 285.199 285.198" enable-background="new 284.25 72.202 285.199 285.198"
	 xml:space="preserve">
<metadata>
	<sfw  xmlns="&ns_sfw;">
		<slices></slices>
		<sliceSourceBounds  width="285.199" height="285.198" y="143.1" x="283.75" bottomLeftOrigin="true"></sliceSourceBounds>
	</sfw>
</metadata>
<title>TARGET 1.3</title>
<g id="TARGETS">
	<g>
		<rect x="284.25" y="72.202" fill="#A21942" width="285.199" height="285.198"/>
	</g>
	<g>
		<g>
			<polygon fill="#FFFFFF" points="374.503,151.023 366.982,151.023 366.982,296.63 471.374,296.63 471.374,287.906 
				374.503,287.906 			"/>
		</g>
		<g>
			<path fill="#FFFFFF" d="M382.626,133.273v17.75v127.858h88.748h15.645V133.273H382.626z M456.332,147.412L456.332,147.412
				c0-0.301,0-0.301,0-0.602h0.301h0.301l10.83-2.406h0.302h0.301v0.301l0,0l-1.505,6.317l-0.902,4.813l0,0v0.301
				c-0.301,0-0.301,0-0.602,0l-3.009-2.707l-27.677,27.978c0,0-0.301,0-0.603,0l-3.008-3.008l0,0l-8.424-8.424l-18.05,18.051
				c0,0-0.301,0-0.602,0l-3.008-3.009c0,0,0-0.301,0-0.602l18.051-18.051l0,0l3.008-3.008c0,0,0.301-0.301,0.301,0l0,0
				l11.432,11.131l23.466-23.466l0.902-0.902L456.332,147.412z M462.95,161.251v52.647c0,0.301-0.301,0.902-0.902,0.902h-14.44
				c-0.301,0-0.902-0.301-0.902-0.902v-37.605c0-0.602,0.301-1.504,0.902-1.805l14.14-13.538
				C462.649,160.048,462.95,160.65,462.95,161.251L462.95,161.251z M442.794,181.107v33.093c0,0.301-0.301,0.902-0.902,0.902h-14.44
				c-0.301,0-0.902-0.301-0.902-0.902l0,0v-32.792c0-0.602,0.301-1.504,1.504-0.301l6.318,6.318c0,0,0.301,0,0.602,0l6.919-6.92
				C442.493,179.603,442.794,180.505,442.794,181.107z M422.337,178.7v35.198c0,0.301-0.301,0.902-0.902,0.902h-14.44
				c-0.301,0-0.903-0.301-0.903-0.902v-20.156c0-0.902,0.301-1.504,0.903-2.105l14.14-13.538
				C422.036,177.497,422.337,178.4,422.337,178.7L422.337,178.7z M471.374,260.229c0,0.301-0.301,0.602-0.902,0.602h-71.601
				c-0.602,0-0.902-0.301-0.902-0.602v-11.433c0-0.301,0.301-0.602,0.902-0.602h71.601c0.602,0,0.902,0.301,0.902,0.602V260.229z
				 M471.374,239.772c0,0.301-0.301,0.602-0.902,0.602h-71.601c-0.301,0-0.902-0.301-0.902-0.602v-11.433
				c0-0.301,0.301-0.602,0.902-0.602h71.601c0.602,0,0.902,0.301,0.902,0.602V239.772z"/>
		</g>
	</g>
</g>
</svg>
