<?xml version="1.0" encoding="utf-8"?>
<!-- Generator: Adobe Illustrator 16.0.3, SVG Export Plug-In . SVG Version: 6.00 Build 0)  -->
<!DOCTYPE svg PUBLIC "-//W3C//DTD SVG 1.1//EN" "http://www.w3.org/Graphics/SVG/1.1/DTD/svg11.dtd" [
	<!ENTITY ns_extend "http://ns.adobe.com/Extensibility/1.0/">
	<!ENTITY ns_ai "http://ns.adobe.com/AdobeIllustrator/10.0/">
	<!ENTITY ns_graphs "http://ns.adobe.com/Graphs/1.0/">
	<!ENTITY ns_vars "http://ns.adobe.com/Variables/1.0/">
	<!ENTITY ns_imrep "http://ns.adobe.com/ImageReplacement/1.0/">
	<!ENTITY ns_sfw "http://ns.adobe.com/SaveForWeb/1.0/">
	<!ENTITY ns_custom "http://ns.adobe.com/GenericCustomNamespace/1.0/">
	<!ENTITY ns_adobe_xpath "http://ns.adobe.com/XPath/1.0/">
]>
<svg version="1.1" id="Layer_1" xmlns:x="&ns_extend;" xmlns:i="&ns_ai;" xmlns:graph="&ns_graphs;"
	 xmlns="http://www.w3.org/2000/svg" xmlns:xlink="http://www.w3.org/1999/xlink" x="0px" y="0px" width="285.027px"
	 height="285.027px" viewBox="284.336 72.158 285.027 285.027" enable-background="new 284.336 72.158 285.027 285.027"
	 xml:space="preserve">
<metadata>
	<sfw  xmlns="&ns_sfw;">
		<slices></slices>
		<sliceSourceBounds  width="285.027" height="285.027" y="143.314" x="283.836" bottomLeftOrigin="true"></sliceSourceBounds>
	</sfw>
</metadata>
<title>TARGET 1.2</title>
<g id="TARGETS">
	<g>
		<rect x="284.336" y="72.158" fill="#BF8B2E" width="285.027" height="285.027"/>
	</g>
	<g>
		<g>
			<path fill="#FFFFFF" d="M427.752,154.54c-33.674,0-61.035,27.06-61.035,60.733s27.06,61.034,60.734,61.034
				c33.674,0,61.034-27.06,61.034-60.733l0,0C488.485,181.901,461.426,154.54,427.752,154.54z M458.419,261.575
				c-0.602,0.301-1.202,0.902-2.104,1.203c-8.419,5.11-18.341,7.816-28.262,7.816c-5.111,0-10.523-0.901-15.334-2.405
				c-0.902-0.601-1.203-1.804-0.602-2.706c1.804-4.51,6.915-6.313,10.824-6.614c9.02-0.902,20.745,5.713,22.549,4.811
				c1.805-0.902,5.713-6.013,11.125-5.713c1.804,0,3.308,0.301,4.811,1.203c-0.902,0.602-1.503,1.202-2.405,1.804L458.419,261.575z
				 M421.137,160.252h1.203c1.804,0,3.308-0.301,5.111-0.301c26.157,0,48.707,18.341,54.42,43.897c0,0.3,0,0.601-0.301,1.202
				c-0.602,1.804-2.706,2.706-4.811,2.104c-0.902-0.301-1.504-0.901-1.805-1.503c-0.601-0.902-3.006-3.007-2.705,0.901
				c0.3,3.909,3.607,4.21,0.3,6.615c-1.804,1.202-3.607,2.104-5.712,2.405c-2.104,1.503-3.007,4.209-2.706,6.614
				c0.301,2.104,5.412,7.817,1.804,7.817c-3.607-1.804-6.313-4.209-8.418-7.517c-1.203-3.007-2.405-6.014-3.308-8.419
				c-0.602-1.804-2.405-2.706-4.209-2.104c-0.301,0-0.602,0.301-0.902,0.602c-2.104,1.202,0.602,2.706-0.902,5.412
				c-1.503,2.706-2.405,5.412-4.51,3.007c-5.412-6.314-13.229-3.007-14.432-9.922c-0.602-3.608-3.908-3.308-6.614-5.412
				s-4.209-3.308-4.51-1.804c-0.3,1.503,8.418,8.418,9.02,10.222c0.902,2.706-2.706,5.111-5.412,5.713s-3.608-1.503-6.314-4.209
				c-2.706-2.706-3.608-4.51-3.908-2.405c0.3,3.607,2.104,6.915,5.111,9.02c2.405,1.503,4.811,2.104,3.909,4.209
				s0,0.902-2.405,3.608c-2.104,1.503-3.307,4.209-2.706,6.614c0,3.608-0.601,3.608-1.203,6.614
				c-0.601,3.007-1.804,0.301-2.706,4.511c-0.602,2.705-1.804,5.111-3.308,7.216c-2.104,1.804-4.811,3.006-7.517,3.006
				c-2.405-0.3-3.006-6.915-3.006-10.222c0-1.203-1.804,2.405-2.405-4.811c-0.602-4.511-3.608,0.601-3.608-2.706
				c0-3.308-1.804-2.405-3.307-4.21c-1.503-1.804-3.608,0.301-5.713,1.203s-1.203,1.503-4.209,0.602h-0.301
				c-3.007-6.916-4.209-14.132-4.209-21.648c0-1.804,0-8.719,3.007-10.522c1.203-0.602,2.405-0.902,3.608-0.902
				c3.006,0.602,6.013,1.203,9.02,2.405c3.308,1.203,8.118,3.909,11.125,2.706c2.105-0.902,3.909-2.104,3.608-3.908
				c-0.3-1.805-2.104-2.706-4.209-1.203c-0.902,0.602-2.405-3.308-3.608-3.007s1.503,4.511,0.601,4.811
				c-0.902,0.301-3.307-4.51-3.608-5.411c-0.3-0.902-2.104-2.706-3.608-1.203c-3.307,3.007-8.118,1.804-9.922,2.405
				c-3.608,1.503-3.908,0.602-3.908-1.503c0-0.602,0-1.203,0.3-1.504c1.804-1.202,3.909-1.503,6.013-0.601
				c1.503,0.901,2.405-0.301,3.007-0.902s0.301-1.503,0-2.405s0.602-1.203,1.503-1.503c1.503-0.902,2.706-1.504,4.209-2.405
				c2.706-0.902,5.713-0.902,8.418,0c1.804,0.901,4.209,0.601,5.713-1.203c1.203-1.203,2.405-2.405,3.909-3.308
				c0.902-0.301-2.105-3.006-4.209,0c-2.104,3.007-3.307,3.007-4.51,3.007s-7.517-1.503-8.418-3.607
				c-0.902-2.105,2.104-3.608,4.51-4.511c3.307-0.901,6.915-1.202,10.523-1.503c3.308-0.602,7.517-2.405,9.621-0.902
				c2.105,1.504-9.02,3.909-5.412,6.014c1.203,0.602,7.216-3.308,9.32-4.51c4.811-2.405-4.51-3.308-3.307-8.118
				c1.503-5.713-11.425-3.308-17.739-3.007c6.014-3.908,12.929-6.614,20.145-7.816C419.333,160.553,420.235,160.553,421.137,160.252
				z M483.073,215.274c0,3.607-0.301,7.216-1.202,10.823c-1.805-1.202-7.216-9.02-2.405-14.432c0.901-0.901-1.805-3.607-0.902-3.607
				c1.804-0.301,3.607,0.901,4.209,2.706C482.772,212.267,483.073,213.77,483.073,215.274z M465.334,253.758
				c-3.006-1.503-2.706,0.902-4.209,0.301s1.804-3.908-2.706-1.202c-4.51,2.705-3.307-0.602-5.111-5.412
				c-1.804-4.811,2.104-10.523,5.713-11.726c3.308-1.203,6.614-2.105,9.922-2.706c6.614-1.805,8.118-5.713,9.32-3.308
				c0.301,0.602,0.602,0.902,0.602,1.202c0.301,0.902,0.602,2.105,0.602,3.007c-2.706,7.517-7.217,14.432-12.929,20.145
				C466.236,254.059,465.936,254.059,465.334,253.758z M467.438,223.692c-0.601-0.3-1.202-0.901-1.503-2.104
				c-0.301-0.601,0-1.503,0.602-1.804c0.301-0.301,0.901,0,1.202,0c1.203,0.602,2.105,1.804,2.706,3.308
				C470.445,223.992,468.04,223.692,467.438,223.692L467.438,223.692z M473.452,228.803c-1.804,0.902-3.607,0.602-5.412-0.601
				c-1.503-1.203,0.902-3.007,1.805-3.007C471.648,225.196,474.655,227.601,473.452,228.803L473.452,228.803z M443.085,223.392
				c-1.804,0.901-3.607,0.601-5.411-0.602c-1.504-1.203,0.901-3.007,1.804-3.007C441.281,219.783,444.288,222.49,443.085,223.392z
				 M420.536,234.516c-0.601,1.203-2.706,10.523-4.209,9.32c-1.503-1.202,0.601-10.823,0.902-11.425
				C419.333,228.502,424.144,228.502,420.536,234.516z M381.149,186.11c1.203-0.902,2.706-1.504,4.51-1.504
				c1.503-0.3,3.307,0.602,3.307,1.504c0,0.901-3.307,2.706-4.209,3.307c-1.804,1.805-4.811,5.412-6.614,5.713
				c-0.602,0.301-0.902,0.301-1.503,0c1.203-3.007,2.405-5.713,3.909-8.418L381.149,186.11z M389.868,175.285
				c0.902,0,2.105,0.301,2.105,0.902c0,1.202-0.301,2.405-0.902,3.607c-1.503,1.504-3.608,2.405-5.712,2.706
				c-0.602,0-1.203-0.301-1.503-0.901c1.804-2.105,3.608-4.21,5.713-6.314H389.868z"/>
		</g>
		<g>
			<path fill="#FFFFFF" d="M538.095,263.68L538.095,263.68L538.095,263.68l-11.125-6.013c3.007-6.916,5.111-14.433,6.615-21.948
				c6.915-37.884-6.615-76.669-36.08-101.624c-0.901-0.902-2.405-0.602-3.307,0.301l0,0l-5.713,6.915
				c-0.602,0.902-0.602,2.104,0.301,3.007c30.667,26.157,41.491,69.152,26.458,106.434l-12.628-6.915
				c-0.301,0-1.503-0.301-1.202,0.602l0,0l0.901,13.83c0.602,11.125,0.602,10.824,0.902,16.537l0.602,12.327
				c0,1.202,1.503,0.3,1.503,0.3l33.073-22.549C538.996,264.582,538.396,263.981,538.095,263.68z"/>
		</g>
		<g>
			<path fill="#FFFFFF" d="M322.22,192.423l8.719,2.104c1.203,0.301,2.405-0.601,2.706-1.804
				c9.922-37.282,41.191-64.942,79.375-69.753c0,0.901,0,1.804,0,3.006l0.301,12.327c0,1.203,1.503,0.301,1.503,0.301l33.975-21.647
				c1.203-0.602,0.602-1.203,0.301-1.503h-0.301l0,0l-35.177-20.746c-0.301,0-1.503-0.301-1.203,0.602l0,0l0.301,13.83l0,0
				c-44.498,5.111-80.878,36.981-92.303,80.276C320.115,190.92,321.017,192.122,322.22,192.423z"/>
		</g>
		<g>
			<path fill="#FFFFFF" d="M463.831,306.073c-0.602-1.203-1.804-1.805-3.007-1.203l0,0c-41.491,16.536-88.695,1.503-113.048-35.778
				l12.627-6.915c0.301-0.301,1.203-0.902,0-1.504l0,0l-12.026-6.614c-9.621-5.412-9.621-5.111-14.732-8.118l-10.824-6.013
				c-1.203-0.602-1.203,1.202-1.203,1.202l1.503,39.988c0,1.203,0.601,1.203,1.203,0.902l0.301-0.301l0,0l11.124-6.014
				c27.962,43.295,82.381,60.733,130.187,41.792c1.203-0.602,1.804-1.804,1.203-3.007L463.831,306.073z"/>
		</g>
	</g>
</g>
</svg>
