<?xml version="1.0" encoding="utf-8"?>
<!-- Generator: Adobe Illustrator 16.0.3, SVG Export Plug-In . SVG Version: 6.00 Build 0)  -->
<!DOCTYPE svg PUBLIC "-//W3C//DTD SVG 1.1//EN" "http://www.w3.org/Graphics/SVG/1.1/DTD/svg11.dtd" [
	<!ENTITY ns_extend "http://ns.adobe.com/Extensibility/1.0/">
	<!ENTITY ns_ai "http://ns.adobe.com/AdobeIllustrator/10.0/">
	<!ENTITY ns_graphs "http://ns.adobe.com/Graphs/1.0/">
	<!ENTITY ns_vars "http://ns.adobe.com/Variables/1.0/">
	<!ENTITY ns_imrep "http://ns.adobe.com/ImageReplacement/1.0/">
	<!ENTITY ns_sfw "http://ns.adobe.com/SaveForWeb/1.0/">
	<!ENTITY ns_custom "http://ns.adobe.com/GenericCustomNamespace/1.0/">
	<!ENTITY ns_adobe_xpath "http://ns.adobe.com/XPath/1.0/">
]>
<svg version="1.1" id="Layer_1" xmlns:x="&ns_extend;" xmlns:i="&ns_ai;" xmlns:graph="&ns_graphs;"
	 xmlns="http://www.w3.org/2000/svg" xmlns:xlink="http://www.w3.org/1999/xlink" x="0px" y="0px" width="257.469px"
	 height="257.469px" viewBox="298.13 65.182 257.469 257.469" enable-background="new 298.13 65.182 257.469 257.469"
	 xml:space="preserve">
<metadata>
	<sfw  xmlns="&ns_sfw;">
		<slices></slices>
		<sliceSourceBounds  width="257.469" height="257.469" y="177.85" x="297.63" bottomLeftOrigin="true"></sliceSourceBounds>
	</sfw>
</metadata>
<title>TARGET 1 B copy 8</title>
<g id="TARGETS">
	<g>
		<rect x="298.13" y="65.182" fill="#DD1367" width="257.469" height="257.469"/>
	</g>
	<g>
		<g>
			<path fill="#FFFFFF" d="M529.254,189.842c0-1.086-1.086-1.9-1.9-1.9l0,0c-1.087,0-1.901,0-2.988,0
				c-1.086,0-2.173-0.271-2.444-1.358c-0.543-1.901-1.086-3.802-1.9-5.703c-0.271-1.087,0-2.173,0.814-2.716l2.444-2.173
				c0.814-0.543,1.086-1.63,0.543-2.444c-1.357-2.173-2.716-4.346-4.617-5.976c-0.543-0.814-1.901-0.814-2.716-0.271l0,0
				l-2.444,1.63c-0.814,0.814-1.901,0.814-2.716,0.271c-1.63-1.357-3.53-2.716-4.889-3.53c-0.814-0.544-1.357-1.63-1.086-2.716
				c0.271-1.087,0.543-2.173,0.814-3.26c0.271-0.814-0.271-1.901-1.086-2.444c-2.173-1.086-4.617-1.901-7.333-2.173
				c-1.087-0.271-2.173,0.271-2.444,1.358c-0.271,1.086-0.544,1.901-1.087,2.716s-0.814,1.901-2.173,1.901c-2.444,0-4.345,0-5.975,0
				c-1.087,0-2.173-0.543-2.444-1.63c-0.543-1.086-0.814-1.901-1.087-2.987c-0.271-0.814-1.357-1.358-2.172-1.358
				c-2.444,0.544-4.889,1.358-7.062,2.444c-1.087,0.271-1.358,1.63-1.087,2.444c0.271,1.087,0.543,1.901,0.815,2.716
				c0.271,0.815,0.271,2.173-0.544,2.717c-0.814,0.543-3.53,2.444-4.889,3.53c-0.814,0.814-1.9,0.814-2.987,0.271
				c-1.086-0.543-1.901-1.086-2.716-1.63c-0.814-0.543-2.173-0.543-2.716,0.272c-1.63,1.9-3.259,4.073-4.346,6.246
				c-0.543,0.814-0.271,2.173,0.544,2.716l0,0l2.172,1.901c0.815,0.543,1.63,1.357,1.087,2.716s-1.358,4.617-1.901,5.703
				c-0.271,1.087-1.086,1.901-2.173,1.901l-3.259,0.271c-1.087,0-1.901,0.815-1.901,1.901c-0.271,2.444-0.271,5.16,0,7.604
				c0,1.086,1.087,1.901,1.901,1.901l0,0h2.987c1.087,0,2.173,0.271,2.444,1.357c0.543,1.901,1.086,3.803,1.901,5.704
				c0.271,1.086,0,2.173-0.815,2.716c-0.814,0.814-1.629,1.357-2.443,2.173c-0.815,0.543-1.087,1.629-0.544,2.444
				c1.358,2.173,2.716,4.345,4.617,5.975c0.543,0.814,1.901,0.814,2.716,0.271l0,0c0.815-0.543,1.63-1.086,2.444-1.63
				c0.815-0.543,1.901-1.086,2.716-0.271c0.815,0.815,3.803,2.716,4.889,3.531c0.815,0.543,1.358,1.629,1.087,2.716
				c-0.271,1.086-0.544,2.173-0.815,3.259c-0.271,1.087,0.271,1.901,1.087,2.444c2.173,1.087,4.617,1.901,7.333,2.173
				c1.086,0.271,2.173-0.271,2.444-1.357c0.271-1.087,0.543-1.901,1.086-2.717c0.543-0.814,0.815-1.9,2.173-1.9
				c2.173,0,3.803,0,5.975,0c1.087,0,2.173,0.543,2.445,1.629c0.543,1.087,0.814,1.901,1.086,2.988
				c0.271,0.814,1.357,1.357,2.173,1.357c2.444-0.543,4.889-1.357,7.062-2.444c1.086-0.271,1.357-1.63,1.086-2.444
				c-0.271-1.086-0.543-1.901-0.814-2.716s-0.271-2.173,0.543-2.716s3.803-2.716,4.889-3.531c0.814-0.814,2.173-1.086,3.259-0.271
				c1.087,0.544,1.901,1.087,2.716,1.63c0.815,0.543,1.901,0.271,2.444-0.271c1.63-1.901,3.26-4.074,4.346-6.247
				c0.543-0.814,0.271-2.173-0.543-2.716l0,0c-0.814-0.543-1.358-1.086-2.173-1.9c-0.814-0.815-1.63-1.63-1.086-2.717
				c0.543-1.086,1.357-4.345,1.9-5.703c0.271-1.086,1.087-1.901,2.173-1.901c1.087,0,2.173-0.271,3.26-0.271
				c1.086,0,1.9-0.814,1.9-1.9C529.525,194.731,529.525,192.286,529.254,189.842z M489.602,219.174
				c-13.579,0-24.715-11.135-24.715-24.715c0-13.579,11.136-24.715,24.715-24.715c13.58,0,24.715,11.136,24.715,24.715l0,0
				C514.316,208.311,503.182,219.174,489.602,219.174z"/>
		</g>
		<g>
			<path fill="#FFFFFF" d="M471.405,187.398c0.543,0.272,1.086,0,1.086-0.271s0-0.543,0-0.814s0.271-0.543,0.544-0.543
				c0.543-0.271,1.086-0.543,1.629-1.087c1.087-0.271,2.173-0.271,3.26,0c0.814,0.271,1.629,0.271,2.172-0.543
				c0.544-0.543,1.087-1.086,1.63-1.357c0.271-0.272-0.814-1.087-1.63,0c-0.814,1.086-1.357,1.086-1.9,1.086
				c-0.544,0-2.988-0.543-3.26-1.358c-0.271-0.814,0.815-1.357,1.63-1.9c1.358-0.271,2.716-0.544,4.074-0.544
				c1.357-0.271,2.987-0.814,3.802-0.271c0.815,0.544-3.53,1.63-2.173,2.444c0.544,0.271,2.716-1.357,3.531-1.629
				c1.9-1.087-1.901-1.358-1.358-3.26c0.543-1.9-4.346-1.357-6.79-1.086c-1.086,0.814-2.444,1.63-3.259,2.716
				c0.271,0,0.543,0.271,0.543,0.271c0,0.543,0,1.087-0.271,1.358c-0.543,0.543-1.357,1.086-2.173,1.086
				c-0.271,0-0.271,0-0.543-0.271c-0.271,0.543-0.814,1.087-1.086,1.63c0.543-0.271,1.086-0.543,1.629-0.543
				c0.544,0,1.358,0.271,1.358,0.543s-1.358,1.086-1.63,1.357c-0.814,0.815-1.9,2.173-2.716,2.173c-0.271,0-0.271,0-0.543,0
				c-0.271,0.543-0.271,0.814-0.543,1.358C469.775,187.398,470.591,187.126,471.405,187.398z"/>
		</g>
		<g>
			<path fill="#FFFFFF" d="M507.255,193.373c-0.543,0.543-1.357,0.814-2.172,0.814c-0.544,0.271-1.358,1.901-1.087,2.716
				c0.271,0.815,2.173,2.987,0.543,2.987c-1.357-0.814-2.716-1.629-3.53-2.987c-0.543-1.086-0.814-2.444-1.358-3.259
				c-0.271-0.543-0.814-1.086-1.629-0.814c-0.271,0-0.271,0-0.544,0.271c-0.814,0.543,0.272,1.086-0.271,2.173
				c-0.543,1.086-0.814,2.173-1.9,1.086c-2.173-2.444-5.16-1.357-5.704-4.074c-0.271-1.357-1.629-1.357-2.716-2.172
				c-1.086-0.815-1.629-1.358-1.901-0.544c-0.271,0.815,3.26,3.26,3.531,4.074s-1.087,1.901-2.173,2.173s-1.358-0.543-2.444-1.63
				c-1.086-1.086-1.358-1.901-1.63-1.086c0,1.357,0.815,2.716,1.901,3.53c0.814,0.543,1.901,0.815,1.63,1.63s0,0.543-1.087,1.357
				c-0.814,0.544-1.357,1.63-1.086,2.716c0,1.358-0.271,1.358-0.543,2.444c-0.271,1.087-0.815,0.272-1.087,1.901
				c-0.271,1.087-0.814,1.901-1.357,2.716c-0.815,0.815-1.901,1.087-2.988,1.087c-1.086,0-1.086-2.716-1.086-4.074
				c0-0.543-0.543,0.814-1.086-1.901c-0.272-1.9-1.358,0.271-1.358-1.086c0-1.358-0.543-1.087-1.358-1.63
				c-0.814-0.543-1.357,0-2.172,0.543c-0.815,0.544-0.544,0.544-1.63,0.272l0,0c2.444,5.975,7.604,10.592,13.852,12.493
				c-0.272-0.271-0.544-0.815-0.272-1.087c0.815-1.629,2.444-2.716,4.346-2.716c3.531-0.271,8.147,2.173,8.963,1.901
				c0.814-0.271,2.173-2.444,4.346-2.173c0.814,0,1.357,0,1.9,0.543c0.815-0.543,1.63-1.086,2.173-1.901
				c-0.271,0-0.543,0-0.814-0.271c-1.087-0.543-1.087,0.271-1.63,0s0.543-1.629-1.086-0.543c-1.63,1.087-1.358-0.271-2.173-2.173
				c-0.543-1.901,0.543-3.802,2.173-4.617c1.357-0.543,2.716-0.814,3.802-1.086c2.716-0.543,3.26-2.173,3.531-1.358l0.271,0.544
				c0.271,0.543,0.271,0.814,0.271,1.357c0.271-1.086,0.814-2.173,0.814-3.259c-0.543-0.271-2.987-3.531-1.086-5.703
				c0.271-0.272-0.543-1.358-0.271-1.358c0.814,0,1.629,0.543,1.901,1.358c0-1.087-0.272-2.173-0.544-3.26c0,0.271,0,0.543,0,0.815
				c-0.271,0.814-1.086,1.086-1.901,0.814c-0.271,0-0.543-0.271-0.814-0.543s-1.086-1.087-1.086,0.271
				C505.626,192.015,508.613,192.559,507.255,193.373z M486.886,202.064c-0.271,0.544-1.086,4.074-1.629,3.803
				c-0.544-0.271,0.271-4.346,0.543-4.617C486.343,199.619,488.244,199.619,486.886,202.064z M495.577,197.719
				c-0.543,0.271-1.358,0.271-2.173-0.271c-0.543-0.544,0.271-1.087,0.543-1.087C495.034,196.361,496.12,197.175,495.577,197.719z
				 M504.539,196.904c-0.271-0.543,0.271-0.814,0.815-0.543c0.543,0.271,0.814,0.814,1.086,1.358c0,0.271-0.814,0.271-1.086,0.271
				S504.811,197.447,504.539,196.904L504.539,196.904z M507.526,199.619c-0.543,0.271-1.357,0.271-2.172-0.271
				c-0.544-0.543,0.271-1.086,0.543-1.086C506.983,198.262,508.07,199.348,507.526,199.619L507.526,199.619z"/>
		</g>
		<g>
			<path fill="#FFFFFF" d="M470.591,189.842c1.086,0.272,2.444,0.544,3.53,0.815c1.358,0.543,3.259,1.629,4.346,1.086
				c1.086-0.543,1.629-0.814,1.357-1.629c-0.271-0.815-0.814-1.087-1.629-0.544c-0.271,0.271-0.815-1.357-1.358-1.086
				s0.543,1.901,0.271,1.901s-1.357-1.901-1.357-2.173s-0.815-1.087-1.358-0.543c-1.357,1.086-3.259,1.086-3.802,1.357
				c0,0-0.271,0.271-0.544,0.271c-0.814,0.271-1.086-0.543-1.086-1.086c-0.271,1.086-0.543,2.444-0.814,3.802v-0.271
				c0.814-1.357,0.814-1.357,1.086-1.629c0.271,0,0.543-0.272,0.814-0.272H470.591z"/>
		</g>
	</g>
	<g>
		<path fill="#FFFFFF" d="M490.146,264.531l-7.605-5.976c-0.543-0.543-1.629-0.814-2.172,0l0,0l0,0
			c-23.9,28.518-65.183,31.505-94.514,8.147c-0.815-0.814-1.63-1.357-2.444-2.172l8.691-5.433c0.814-0.543-0.271-1.357-0.271-1.357
			l-29.332-14.666c-0.815-0.543-1.086,0-1.086,0.543v0.271l0,0l-0.543,33.135c0,0.271,0.271,1.086,1.086,0.543l0,0l9.506-5.976
			c1.901,1.901,3.802,3.531,5.975,5.161c34.764,27.974,83.922,24.171,112.711-9.506l0.271-0.271
			C490.96,266.431,490.96,265.345,490.146,264.531L490.146,264.531z"/>
	</g>
	<g>
		<path fill="#FFFFFF" d="M361.411,127.105l7.876,5.703c0.543,0.544,1.63,0.544,2.173,0c0,0,0,0,0-0.271l0,0
			c22.271-29.875,63.281-35.307,93.699-13.579c0.815,0.543,1.901,1.357,2.716,2.173l-8.147,5.975
			c-0.814,0.543,0.543,1.358,0.543,1.358l30.147,12.765c0.814,0.543,1.086-0.271,1.086-0.543v-0.272l0,0l-1.901-33.405
			c0-0.271-0.271-1.086-1.086-0.543l0,0l-9.234,6.518c-1.901-1.629-4.074-3.259-6.246-4.889
			c-36.394-25.801-85.28-19.282-111.896,16.024l-0.272,0.271C360.324,125.475,360.324,126.562,361.411,127.105
			C361.139,127.105,361.139,127.105,361.411,127.105z"/>
	</g>
	<g>
		<g>
			<path fill="#FFFFFF" d="M359.238,219.446c-1.358,0.815-2.716,1.63-4.345,1.901c-4.346,1.358-9.234,1.901-13.852,1.63
				c-2.172,0-4.617-0.271-6.79-0.543c-1.358-0.272-2.716-0.544-4.074-0.815l-2.173-0.543c-1.901-0.543-3.802-1.358-5.432-2.716
				c-0.543-0.543-1.086-1.086-1.63-1.63v1.901c0,0.543,0,2.716,0,2.716c0,1.087,0.543,2.173,1.63,2.987
				c3.259,2.173,6.79,3.531,10.592,4.074c2.716,0.271,5.16,0.543,7.876,0.543c3.803,0,7.605-0.271,11.136-1.357l0,0
				c2.172-0.544,4.074-1.087,5.975-2.173l0,0c1.901-1.087,2.988-2.444,2.988-3.803c0,0,0-4.073,0-4.346
				C360.868,218.088,360.053,218.631,359.238,219.446z"/>
		</g>
		<g>
			<path fill="#FFFFFF" d="M339.412,205.595c11.135,0,20.098-3.26,20.098-7.604c0,0,0.272-3.803,0.272-4.617
				c0-0.543,0-1.087-0.272-1.63c1.358-0.814,2.173-1.901,2.173-3.259c0,0,0.271-4.346,0-5.16
				c-0.543-4.889-10.592-7.604-20.098-7.604s-20.37,2.987-20.37,8.147c0,0.271,0.272,4.617,0.272,4.617c0,0.271,0,0.543,0.271,0.814
				c-1.358,0.815-2.444,2.444-2.444,4.074c0,0.271,0.271,4.617,0.271,4.617c0,1.086,0.543,2.173,1.629,2.987
				c3.259,2.173,6.79,3.53,10.592,4.074C334.251,205.595,336.696,205.595,339.412,205.595z M341.584,177.893
				c10.864,0,18.197,3.259,18.197,5.975s-7.604,6.247-18.197,6.247s-18.197-3.26-18.197-5.976S330.721,177.893,341.584,177.893z
				 M321.215,193.645c0.272-1.086,0.815-1.901,1.63-2.173c0.543,0.543,1.358,1.087,2.173,1.358c5.16,2.444,10.863,3.53,16.567,3.259
				c4.889,0,9.506-0.543,14.123-2.173c0.543-0.271,1.086-0.543,1.63-0.814c0,0.271,0,0.271,0,0.543
				c0,2.987-7.604,5.975-18.197,5.975S321.215,196.361,321.215,193.645z"/>
		</g>
		<g>
			<path fill="#FFFFFF" d="M333.437,221.075c2.716,0.271,5.161,0.543,7.876,0.543c3.802,0,7.604-0.271,11.135-1.357l0,0
				c1.901-0.544,3.802-1.358,5.703-2.173l0,0c0.543-0.271,1.086-0.543,1.63-0.815c0.543-0.543,1.086-1.086,1.629-1.9
				c0-0.271,0.271-0.543,0.271-1.087c0,0,0-4.073,0-4.345c-0.543,0.814-2.444,3.53-10.32,5.16c-3.259,0.543-6.79,0.814-10.32,0.814
				c-6.519,0-13.037-1.358-16.024-3.259c-0.815-0.544-1.63-1.087-2.444-1.63c-0.543-0.543-0.815-1.086-1.086-1.63v1.901v2.987
				c0,1.087,0.814,2.173,1.629,2.716C325.832,219.446,329.634,220.804,333.437,221.075z"/>
		</g>
		<g>
			<path fill="#FFFFFF" d="M361.139,200.978l-0.543-0.543c-0.271-0.271-0.543-0.271-0.814-0.544
				c-0.272,0.544-0.543,0.815-0.815,1.087c0.271,0,0.543,0.271,0.815,0.543c0.543,0.271,0.814,0.814,1.086,1.63
				c0,0.543-0.272,1.086-0.815,1.357l-0.815,0.544l-1.086,0.543c0,0-1.358,0.543-1.629,0.814l-2.173,0.814l-2.444,0.544
				l-2.987,0.271c-0.271,0-2.444,0.271-3.259,0.271c-0.271,0-3.259,0.271-4.617,0.271c-2.172,0-4.345-0.271-6.518-0.543
				c-1.629-0.271-2.987-0.543-4.617-0.815c-1.63-0.271-3.259-0.814-4.889-1.629c-0.815-0.543-1.901-1.087-2.444-1.63
				c-0.543-0.543-1.086-1.357-1.63-2.173v2.716v2.444c0,1.087,0.543,2.173,1.63,2.988c3.259,2.172,6.79,3.53,10.592,4.073
				c2.716,0.271,5.16,0.543,7.876,0.543c3.803,0,7.605-0.271,11.136-1.357l0,0c1.901-0.543,3.802-1.358,5.703-2.173l0,0
				c0.543-0.271,0.815-0.543,1.358-0.814c0.543-0.544,1.086-1.087,1.63-1.901c0.271-0.271,0.271-0.543,0.271-1.087l0.271-4.345
				c0-0.271,0-0.815-0.271-1.087C361.411,201.521,361.411,201.249,361.139,200.978z"/>
		</g>
		<g>
			<path fill="#FFFFFF" d="M385.854,191.2c11.135,0,20.098-3.259,20.098-7.604c0,0,0.271-3.803,0.271-4.617
				c0-0.543-0.271-1.086-0.271-1.63c1.358-0.814,2.173-1.9,2.173-3.259c0,0,0.271-4.346,0-5.16
				c-0.543-4.889-10.592-7.604-20.098-7.604c-9.505,0-20.369,2.987-20.369,8.147c0,0.271,0.271,4.617,0.271,4.617
				c0,0.271,0,0.543,0.271,0.814c-1.358,0.815-2.444,2.444-2.444,4.074c0,0.271,0.272,4.617,0.272,4.617
				c0,1.086,0.543,2.173,1.629,2.987c3.259,2.173,6.79,3.531,10.592,4.074C380.422,190.929,383.138,191.2,385.854,191.2z
				 M387.755,163.498c10.864,0,18.197,3.259,18.197,5.975s-7.333,5.976-18.197,5.976c-10.863,0-18.196-3.26-18.196-5.976
				S377.163,163.498,387.755,163.498z M367.657,178.979c0.271-1.086,0.815-1.901,1.629-2.173c0.543,0.543,1.358,1.087,2.173,1.63
				c5.16,2.444,10.864,3.53,16.567,3.259c4.889,0,9.506-0.543,14.123-2.173c0.543-0.271,1.086-0.543,1.629-0.814
				c0,0.271,0,0.271,0,0.543c0,2.987-7.333,5.976-18.197,5.976C374.719,185.226,367.657,181.966,367.657,178.979z"/>
		</g>
		<g>
			<path fill="#FFFFFF" d="M407.853,187.126c0-0.271-0.271-0.543-0.543-0.814s-0.271-0.271-0.543-0.543
				c-0.272-0.271-0.543-0.271-0.815-0.543c-0.271,0.543-0.543,0.814-0.815,1.086c0.271,0,0.543,0.271,0.815,0.543
				c0.543,0.271,0.815,0.815,0.815,1.63c0,0.543-0.272,1.086-0.815,1.357c-0.271,0.272-0.543,0.272-0.815,0.544l-1.086,0.543
				c0,0-1.358,0.543-1.901,0.814l-1.901,0.543l-2.444,0.544c0,0-2.172,0.271-2.987,0.543l-3.259,0.271
				c-0.271,0-3.259,0.271-4.617,0.271c-2.173,0-4.346-0.271-6.519-0.543c-1.629-0.271-2.987-0.543-4.617-0.815
				c-1.63-0.271-3.259-0.814-4.889-1.629c-0.815-0.543-1.63-1.087-2.444-1.63c-0.543-0.543-1.086-1.357-1.63-2.173v2.716v2.444
				c0,1.087,0.543,2.173,1.63,2.988c3.259,2.172,6.79,3.53,10.592,4.073c2.716,0.271,5.16,0.543,7.876,0.543
				c3.802,0,7.604-0.543,11.407-1.357l0,0c1.901-0.543,3.802-1.087,5.703-2.173l0,0c0.543-0.271,0.815-0.543,1.358-0.814
				c0.543-0.544,1.086-1.087,1.63-1.901c0-0.271,0.271-0.814,0.271-1.087l0.271-4.345
				C407.853,187.942,407.853,187.398,407.853,187.126z"/>
		</g>
		<g>
			<path fill="#FFFFFF" d="M405.68,204.78c-1.358,0.815-2.716,1.63-4.346,1.901c-4.345,1.358-8.962,1.901-13.58,1.63
				c-2.172,0-4.617-0.271-6.79-0.543c-1.629-0.271-2.716-0.544-4.074-0.815l-2.173-0.543c-1.901-0.543-3.802-1.63-5.432-2.716
				c-0.543-0.543-1.086-1.086-1.358-1.63v1.901c0,0.543,0,2.716,0,2.716c0,1.087,0.543,2.173,1.63,2.987
				c3.259,2.173,6.79,3.531,10.592,4.074c2.716,0.271,5.16,0.543,7.876,0.543c3.803,0,7.605-0.543,11.407-1.357l0,0
				c1.901-0.543,3.802-1.087,5.703-2.173l0,0c1.901-1.087,2.988-2.444,2.988-3.803c0,0,0.271-4.073,0-4.345
				C407.038,203.422,406.495,204.237,405.68,204.78z"/>
		</g>
		<g>
			<path fill="#FFFFFF" d="M369.287,202.608c3.259,2.172,6.79,3.53,10.592,4.073c2.716,0.271,5.16,0.543,7.876,0.543
				c3.802,0,7.604-0.543,11.135-1.357l0,0c1.901-0.543,3.802-1.087,5.704-2.173l0,0c0.543-0.271,0.814-0.543,1.358-0.814
				c0.543-0.544,1.086-1.087,1.629-1.901c0-0.271,0.271-0.814,0.271-1.087c0,0,0-4.073,0-4.345c-0.543,0.814-2.444,3.53-10.32,5.16
				c-3.259,0.543-6.79,0.814-10.32,0.814c-6.518,0-13.037-1.357-16.024-3.259c-0.815-0.543-1.901-1.087-2.444-1.63
				c-0.543-0.543-0.815-1.086-1.358-1.629v1.9v2.987C367.386,200.978,368.2,202.064,369.287,202.608z"/>
		</g>
		<g>
			<path fill="#FFFFFF" d="M408.125,217.001c-0.543,0.815-1.63,1.63-2.444,2.173c-1.358,0.815-2.716,1.63-4.346,1.901
				c-4.345,1.358-9.234,1.901-13.851,1.63c-2.173,0-4.617-0.271-6.79-0.544c-1.63-0.271-2.716-0.543-4.074-0.814
				c-0.814-0.271-1.358-0.271-2.172-0.543c-1.901-0.543-3.803-1.358-5.432-2.444c-0.543-0.543-1.086-1.086-1.358-1.63v1.901
				c0,0.543,0,2.716,0,2.716c0,1.087,0.543,2.173,1.629,2.987c3.259,2.173,7.062,3.531,10.864,3.803
				c2.716,0.271,5.16,0.543,7.876,0.543c3.803,0,7.605-0.271,11.136-1.357l0,0c1.901-0.544,3.802-1.087,5.703-2.173l0,0
				c1.901-1.087,2.987-2.444,2.987-3.803C408.125,221.347,408.125,217.274,408.125,217.001z"/>
		</g>
		<g>
			<path fill="#FFFFFF" d="M379.879,221.075c2.716,0.271,5.16,0.543,7.876,0.543c3.802,0,7.604-0.271,11.135-1.357l0,0
				c1.901-0.544,3.802-1.087,5.704-2.173l0,0c0.543-0.271,0.814-0.543,1.358-0.815c0.543-0.543,1.086-1.086,1.629-1.9
				c0.271-0.271,0.271-0.543,0.271-1.087c0,0,0-4.073,0-4.345c-0.543,0.814-2.444,3.53-10.32,5.16
				c-3.259,0.543-6.79,0.814-10.32,0.814c-6.518,0-13.037-1.358-16.024-3.259c-0.815-0.544-1.629-1.087-2.444-1.63
				c-0.543-0.543-0.815-1.086-1.358-1.63c0,0,0,1.901,0,2.173v2.987c0,1.087,0.814,2.173,1.629,2.717
				C372.274,219.174,376.077,220.804,379.879,221.075z"/>
		</g>
	</g>
</g>
</svg>
