<?xml version="1.0" encoding="utf-8"?>
<!-- Generator: Adobe Illustrator 16.0.3, SVG Export Plug-In . SVG Version: 6.00 Build 0)  -->
<!DOCTYPE svg PUBLIC "-//W3C//DTD SVG 1.1//EN" "http://www.w3.org/Graphics/SVG/1.1/DTD/svg11.dtd" [
	<!ENTITY ns_extend "http://ns.adobe.com/Extensibility/1.0/">
	<!ENTITY ns_ai "http://ns.adobe.com/AdobeIllustrator/10.0/">
	<!ENTITY ns_graphs "http://ns.adobe.com/Graphs/1.0/">
	<!ENTITY ns_vars "http://ns.adobe.com/Variables/1.0/">
	<!ENTITY ns_imrep "http://ns.adobe.com/ImageReplacement/1.0/">
	<!ENTITY ns_sfw "http://ns.adobe.com/SaveForWeb/1.0/">
	<!ENTITY ns_custom "http://ns.adobe.com/GenericCustomNamespace/1.0/">
	<!ENTITY ns_adobe_xpath "http://ns.adobe.com/XPath/1.0/">
]>
<svg version="1.1" id="Layer_1" xmlns:x="&ns_extend;" xmlns:i="&ns_ai;" xmlns:graph="&ns_graphs;"
	 xmlns="http://www.w3.org/2000/svg" xmlns:xlink="http://www.w3.org/1999/xlink" x="0px" y="0px" width="245.341px"
	 height="245.342px" viewBox="304.2 62.112 245.341 245.342" enable-background="new 304.2 62.112 245.341 245.342"
	 xml:space="preserve">
<metadata>
	<sfw  xmlns="&ns_sfw;">
		<slices></slices>
		<sliceSourceBounds  width="245.341" height="245.342" y="193.047" x="303.7" bottomLeftOrigin="true"></sliceSourceBounds>
	</sfw>
</metadata>
<title>TARGET 1 B copy 8</title>
<g id="TARGETS">
	<g>
		<rect x="304.2" y="62.112" fill="#BF8B2E" width="245.341" height="245.342"/>
	</g>
	<g>
		<g>
			<path fill="#FFFFFF" d="M505.805,236.801l-3.882-1.812c-1.295-0.518-2.071-1.812-2.071-3.364c0-0.776,0-1.553,0-2.329v-2.588
				c0-1.553,0.776-2.847,2.071-3.364l3.882-1.812c1.553-0.518,2.329-2.071,1.812-3.624c0,0,0-0.259-0.259-0.259
				c-0.776-3.105-2.07-5.952-3.623-8.54c-0.518-1.294-2.071-2.07-3.365-1.553h-0.259l-4.141,1.553
				c-1.294,0.518-2.847,0.259-3.882-0.776l-1.553-1.553l-1.553-1.553c-1.294-1.035-1.553-2.588-1.035-4.141
				c0.518-1.294,1.035-2.847,1.294-4.141c0.518-1.294,0-2.848-1.294-3.365l0,0c-2.847-1.294-5.952-2.329-8.799-3.623
				c-1.294-0.518-2.848,0-3.365,1.294l0,0c-0.776,1.553-1.294,2.847-2.07,4.4c-0.518,1.035-1.553,1.812-2.847,1.812h-5.176
				c-1.553,0-2.847-0.776-3.364-2.07c-0.518-1.295-1.294-2.848-2.07-4.142c-0.518-1.294-1.812-1.812-3.105-1.553
				c-3.364,0.776-6.471,2.07-9.317,3.882c-1.294,0.518-1.812,2.071-1.294,3.365s1.035,2.588,1.553,4.141
				c0.776,1.553,0.259,3.105-1.035,4.141l-1.812,1.812l-1.553,1.553c-1.035,1.035-2.588,1.553-3.882,1.035l-4.399-1.294
				c-1.294-0.518-2.847,0-3.364,1.553l0,0c-1.294,2.847-2.329,5.693-3.623,8.54c-0.776,1.295-0.259,2.848,1.035,3.624
				c0,0,0.259,0.259,0.518,0.259l4.141,2.07c1.294,0.518,2.07,1.553,2.07,3.105c0,0.776,0,1.812,0,2.588s0,1.812,0,2.588
				c0,1.553-0.776,2.847-2.07,3.364l-3.882,2.07c-1.294,0.518-2.07,1.812-1.553,3.364c0,0,0,0.259,0.259,0.259
				c0.776,3.106,2.07,5.953,3.623,8.8c0.518,1.294,2.07,2.07,3.364,1.294h0.259c1.294-0.518,2.847-1.035,4.399-1.553
				c1.294-0.518,2.847-0.259,3.623,0.776c1.035,1.035,2.329,2.329,3.364,3.364s1.553,2.588,1.035,3.882
				c-0.518,1.553-1.035,2.847-1.553,4.399c-0.518,1.294,0.259,2.847,1.553,3.364l0,0l8.8,3.624c1.294,0.518,2.847,0,3.364-1.294l0,0
				c0.776-1.295,1.294-2.848,2.07-4.142c0.518-1.294,1.812-2.07,3.105-2.07h3.105h1.294c1.294,0,2.588,0.776,3.105,2.07
				s1.294,2.847,2.07,4.142c0.518,1.294,1.813,2.07,3.365,1.553c3.364-0.776,6.47-2.33,9.316-3.883
				c1.035-0.518,1.553-1.553,1.294-2.588c0-0.259,0-0.518-0.259-0.776c-0.518-1.294-1.035-2.588-1.553-4.141
				c-0.776-1.553-0.259-3.105,1.035-4.141c1.035-1.035,2.07-2.07,3.105-3.105s2.588-1.553,3.882-0.776l4.141,1.553
				c1.294,0.518,2.848,0,3.365-1.294v-0.259c1.035-2.847,2.329-5.693,3.364-8.541c0.776-1.294,0.259-2.847-1.035-3.623
				C506.063,237.06,505.805,236.801,505.805,236.801z M468.02,248.448c-10.352,0-18.893-8.541-18.893-18.893
				c0-10.353,8.541-18.893,18.893-18.893c10.353,0,18.893,8.54,18.893,18.893C486.912,239.906,478.372,248.448,468.02,248.448
				L468.02,248.448z"/>
		</g>
		<g>
			<path fill="#FFFFFF" d="M364.759,261.905c-17.857-15.269-13.199-33.644-11.128-40.631c20.187,35.196,58.748,40.631,58.748,40.631
				s-50.983-28.468-60.042-68.841c-0.776-3.105,7.247-5.693,8.282-1.812c1.812,6.988,4.658,13.976,8.281,20.445
				c10.87-1.812,28.986-3.105,39.597,7.765c14.233,14.492,8.022,39.854,28.985,56.418
				C442.398,279.762,388.827,282.609,364.759,261.905z"/>
		</g>
		<g>
			<g>
				<path fill="#FFFFFF" d="M471.901,141.045c0-1.553-1.294-2.588-2.847-2.588h-4.141c-1.553,0-3.105-0.518-3.364-2.07
					c-0.518-2.847-1.553-5.435-2.588-8.022c-0.518-1.553-0.259-3.105,1.035-4.141s2.329-1.812,3.364-3.105
					c1.035-0.776,1.294-2.33,0.518-3.624c-1.812-3.105-3.882-6.211-6.47-8.799c-1.035-1.035-2.847-1.294-3.882-0.259l0,0
					c-1.294,0.776-2.33,1.553-3.365,2.329s-2.588,1.294-3.882,0.259c-2.329-1.812-5.176-3.882-6.987-4.917
					c-1.294-0.776-2.07-2.329-1.553-3.882s0.776-2.847,1.035-4.399c0.259-1.294-0.259-2.847-1.553-3.364
					c-3.364-1.554-6.729-2.589-10.353-3.106c-1.553-0.259-3.105,0.518-3.364,2.07c-0.518,1.554-1.035,2.589-1.294,3.883
					s-1.293,2.588-3.105,2.588c-3.364,0-5.952,0-8.54,0c-1.553,0.259-2.847-0.776-3.365-2.07c-0.518-1.553-1.035-2.847-1.812-4.4
					c-0.518-1.294-1.812-2.07-3.364-1.812c-3.623,0.776-6.988,1.812-10.093,3.365c-1.294,0.518-2.07,2.07-1.553,3.623
					s0.776,2.588,1.294,4.141s0.518,3.105-0.776,3.882s-4.917,3.364-6.729,5.176c-1.294,1.035-2.847,1.035-4.141,0.259
					s-2.588-1.553-3.882-2.329s-2.847-0.518-3.623,0.518c-2.33,2.588-4.4,5.693-6.211,8.799c-0.776,1.295-0.518,3.106,0.776,3.883
					c1.294,1.035,2.07,1.553,3.364,2.588c1.294,1.035,2.071,2.07,1.553,3.623s-2.071,6.47-2.588,8.022
					c-0.259,1.553-1.553,2.588-3.364,2.847c-1.553,0-2.847,0.259-4.658,0.259c-1.294,0-2.588,1.294-2.588,2.588
					c-0.518,3.624-0.259,7.247,0.259,10.87c0,1.553,1.294,2.588,2.847,2.588h3.623c1.553,0,2.847,0.518,3.364,2.07
					c0.776,2.847,1.553,5.435,2.588,8.022c0.518,1.553,0.259,3.105-1.036,4.142c-1.294,1.035-2.329,1.812-3.623,3.105
					c-1.035,0.776-1.294,2.329-0.776,3.623c1.812,3.105,3.882,5.952,6.47,8.54c1.035,1.035,2.588,1.294,3.882,0.259l3.364-2.329
					c1.294-1.035,2.588-1.294,3.882-0.259c1.294,1.035,5.176,3.882,6.987,4.917c1.294,0.776,2.07,2.329,1.553,3.882
					s-0.776,2.848-1.035,4.4c-0.518,1.294,0.259,2.847,1.553,3.364c3.364,1.553,6.729,2.588,10.352,3.105
					c1.553,0.259,2.847-0.518,3.364-2.07s1.035-2.588,1.294-3.882s1.294-2.589,3.106-2.589c3.105,0,5.693,0,8.54,0
					c1.553-0.259,3.105,0.777,3.623,2.33s1.035,2.847,1.812,4.399c0.518,1.294,1.813,2.07,3.365,1.812
					c3.623-0.776,6.987-1.812,10.093-3.364c1.294-0.518,2.07-2.07,1.553-3.623l0,0c-0.518-1.554-0.776-2.589-1.294-4.142
					s-0.518-3.105,1.035-3.882s5.435-3.882,6.729-5.176c1.294-1.035,2.847-1.294,4.141-0.259c1.295,0.776,2.589,1.553,3.883,2.329
					s2.847,0.518,3.623-0.518c2.329-2.588,4.399-5.693,6.211-8.799c0.776-1.294,0.518-3.105-0.776-3.882
					c-1.294-1.035-2.07-1.813-3.364-2.589s-2.07-2.07-1.553-3.623s2.07-5.952,2.588-8.022c0.259-1.553,1.812-2.588,3.105-2.588
					c1.553,0,3.105-0.259,4.658-0.259c1.294,0,2.588-1.294,2.588-2.588C472.419,148.033,472.419,144.41,471.901,141.045z
					 M415.225,182.712c-19.41,0-35.197-15.787-35.197-35.196c0-19.41,15.787-35.197,35.197-35.197s35.196,15.787,35.196,35.197
					C450.68,167.184,434.894,182.712,415.225,182.712z"/>
			</g>
			<g>
				<path fill="#FFFFFF" d="M389.345,137.422c0.776,0.518,1.294,0,1.812-0.518c0.259-0.259,0.259-0.776,0-1.294
					s0.518-0.776,0.776-0.776s1.812-1.035,2.329-1.294c1.553-0.518,3.106-0.518,4.659,0c1.035,0.518,2.329,0.259,3.105-0.518
					c0.518-0.776,1.294-1.294,2.329-1.812c0.518-0.259-1.035-1.553-2.329,0s-2.07,1.812-2.588,1.812s-4.141-0.776-4.659-2.07
					s1.035-2.07,2.588-2.588c1.812-0.518,3.882-0.776,5.952-0.776c1.812-0.518,4.4-1.294,5.435-0.518s-5.176,2.07-3.106,3.364
					c0.776,0.518,4.141-1.812,5.176-2.588c2.588-1.294-2.588-1.812-1.812-4.658s-6.211-2.07-9.834-1.812
					c-1.812,1.035-3.365,2.329-4.917,3.623c0.518,0,0.776,0.259,1.035,0.518c0,0.776,0,1.294-0.518,2.07
					c-0.776,0.776-2.07,1.294-3.364,1.553c-0.259,0-0.518,0-0.518-0.259c-0.518,0.776-1.035,1.553-1.553,2.329
					c0.776-0.518,1.553-0.776,2.329-0.776s1.812,0.259,2.07,0.776s-2.07,1.553-2.329,1.812c-1.035,1.035-2.847,3.105-3.623,3.105
					c-0.259,0-0.518,0-0.776,0c-0.518,0.518-0.776,1.035-0.776,1.812C387.016,137.163,388.31,137.163,389.345,137.422z"/>
			</g>
			<g>
				<path fill="#FFFFFF" d="M440.328,145.963c-1.035,0.776-2.07,1.035-3.364,1.294c-1.035,0.776-1.812,2.329-1.553,3.623
					s3.105,4.399,1.035,4.399c-2.07-1.035-3.623-2.329-4.917-4.141c-0.518-1.812-1.294-3.364-1.812-4.658
					c-0.259-1.035-1.294-1.553-2.33-1.035c-0.258,0-0.518,0.259-0.518,0.259c-1.035,0.776,0.26,1.553-0.518,3.105
					c-0.776,1.553-1.294,3.105-2.588,1.812c-3.105-3.364-7.505-1.812-8.022-5.693c-0.259-2.071-2.07-1.813-3.623-3.106
					s-2.329-1.812-2.588-1.035s4.658,4.659,5.176,5.694c0.518,1.553-1.553,2.847-3.105,3.105s-2.07-0.776-3.623-2.329
					c-1.553-1.553-2.071-2.588-2.071-1.294c0,2.07,1.035,3.882,2.847,5.176c1.294,0.776,2.588,1.294,2.329,2.588s0,0.518-1.294,2.07
					c-1.294,0.776-1.812,2.329-1.553,3.882c0,2.07-0.518,2.07-0.777,3.623s-1.035,0.259-1.553,2.588
					c-0.259,1.553-1.035,2.847-1.812,3.883c-1.294,1.035-2.588,1.553-4.141,1.553c-1.294,0-1.553-3.883-1.553-5.694
					c0-0.776-1.035,1.294-1.294-2.847c-0.259-2.588-2.071,0.259-2.071-1.553s-1.035-1.294-1.812-2.329s-2.07,0-3.105,0.518
					s-0.776,0.776-2.329,0.259l0,0c3.623,8.54,10.87,15.011,19.928,17.857c-0.518-0.259-0.518-1.035-0.259-1.553
					c1.294-2.329,3.623-3.623,5.952-3.623c4.917-0.518,11.646,3.364,12.682,2.588c1.035-0.776,3.105-3.364,6.211-3.364
					c1.035,0,2.07,0.259,2.847,0.776c1.035-0.776,2.07-1.553,3.105-2.588c-0.259,0-0.518-0.259-1.035-0.259
					c-1.812-0.777-1.553,0.518-2.329,0.259s1.035-2.33-1.553-0.518c-2.588,1.812-1.812-0.259-2.847-3.106
					c-0.776-2.588,0.518-5.435,3.105-6.729c1.812-0.518,3.623-1.035,5.693-1.553c3.623-1.035,4.399-3.105,5.176-1.812
					c0,0.259,0.259,0.518,0.259,0.776c0.259,0.518,0.518,1.294,0.518,1.812c0.518-1.553,1.035-3.105,1.294-4.658
					c-0.776-0.259-4.141-5.176-1.553-8.281c0.518-0.518-1.035-2.07-0.518-2.07c1.294,0,2.329,0.776,2.588,1.812
					c0-1.553-0.259-3.106-0.518-4.918c0,0.259,0,0.776,0,1.035c-0.518,1.035-1.553,1.553-2.588,1.035
					c-0.518-0.259-0.776-0.518-1.035-0.776c-1.035-0.259-2.329-1.553-2.329,0.518C440.587,144.41,442.398,144.669,440.328,145.963z
					 M411.343,158.126c-0.518,0.776-1.553,5.952-2.329,5.176s0.259-5.952,0.518-6.47
					C410.566,154.762,413.413,155.021,411.343,158.126z M424.023,152.174c-1.035,0.518-2.07,0.259-2.847-0.259
					s0.518-1.553,1.035-1.553C422.988,150.104,424.541,151.656,424.023,152.174z M436.964,150.88c-0.259-0.259,0-0.776,0.259-1.035
					c0.259,0,0.518,0,0.776,0c0.776,0.259,1.294,1.035,1.553,1.812c0,0.518-1.294,0.518-1.553,0.259S436.964,151.656,436.964,150.88
					L436.964,150.88z M441.104,155.021c-1.035,0.518-2.07,0.518-3.105-0.259c-0.776-0.518,0.518-1.553,1.035-1.553
					C440.069,152.95,441.622,154.503,441.104,155.021L441.104,155.021z"/>
			</g>
			<g>
				<path fill="#FFFFFF" d="M388.31,141.045c1.812,0.259,3.623,0.776,5.176,1.294c1.812,0.776,4.659,2.071,6.211,1.553
					c1.294-0.518,2.07-1.035,2.07-2.07s-1.035-1.553-2.329-0.776c-0.518,0.259-1.294-1.812-2.07-1.812s0.776,2.588,0.259,2.588
					s-1.812-2.588-2.071-3.105s-1.294-1.553-2.07-0.776c-1.812,1.812-4.658,1.812-5.435,2.07c-0.259,0.259-0.518,0.259-0.518,0.259
					c-1.294,0.518-1.553-0.776-1.553-1.812c-0.518,1.812-0.776,3.364-1.035,5.176l0.259-0.259c1.035-1.812,1.294-2.07,1.553-2.329
					s0.776-0.259,1.294-0.518L388.31,141.045z"/>
			</g>
		</g>
	</g>
</g>
</svg>
