<?xml version="1.0" encoding="utf-8"?>
<!-- Generator: Adobe Illustrator 16.0.3, SVG Export Plug-In . SVG Version: 6.00 Build 0)  -->
<!DOCTYPE svg PUBLIC "-//W3C//DTD SVG 1.1//EN" "http://www.w3.org/Graphics/SVG/1.1/DTD/svg11.dtd" [
	<!ENTITY ns_extend "http://ns.adobe.com/Extensibility/1.0/">
	<!ENTITY ns_ai "http://ns.adobe.com/AdobeIllustrator/10.0/">
	<!ENTITY ns_graphs "http://ns.adobe.com/Graphs/1.0/">
	<!ENTITY ns_vars "http://ns.adobe.com/Variables/1.0/">
	<!ENTITY ns_imrep "http://ns.adobe.com/ImageReplacement/1.0/">
	<!ENTITY ns_sfw "http://ns.adobe.com/SaveForWeb/1.0/">
	<!ENTITY ns_custom "http://ns.adobe.com/GenericCustomNamespace/1.0/">
	<!ENTITY ns_adobe_xpath "http://ns.adobe.com/XPath/1.0/">
]>
<svg version="1.1" id="Layer_1" xmlns:x="&ns_extend;" xmlns:i="&ns_ai;" xmlns:graph="&ns_graphs;"
	 xmlns="http://www.w3.org/2000/svg" xmlns:xlink="http://www.w3.org/1999/xlink" x="0px" y="0px" width="285.199px"
	 height="285.198px" viewBox="284.25 72.202 285.199 285.198" enable-background="new 284.25 72.202 285.199 285.198"
	 xml:space="preserve">
<metadata>
	<sfw  xmlns="&ns_sfw;">
		<slices></slices>
		<sliceSourceBounds  width="285.199" height="285.198" y="143.1" x="283.75" bottomLeftOrigin="true"></sliceSourceBounds>
	</sfw>
</metadata>
<title>TARGET 1 B copy 15</title>
<g id="TARGETS">
	<g>
		<rect x="284.25" y="72.202" fill="#56C02B" width="285.199" height="285.198"/>
	</g>
	<g>
		<g>
			<path fill="#FFFFFF" d="M494.539,293.021l-8.424-6.619c-0.602-0.602-1.805-0.902-2.406,0l0,0l0,0
				c-26.475,31.589-72.202,34.897-104.693,9.025c-0.902-0.902-1.805-1.504-2.708-2.406l9.627-6.018
				c0.902-0.602-0.301-1.504-0.301-1.504l-33.093-16.245c-0.902-0.602-1.203,0-1.203,0.602v0.301l0,0v37.003
				c0,0.301,0.301,1.204,1.203,0.603l0,0l10.529-6.619c2.106,2.106,4.212,3.911,6.619,5.716
				c38.508,30.987,92.96,26.775,124.85-10.529l0.301-0.301C495.441,295.126,495.441,293.923,494.539,293.021
				C494.539,293.322,494.539,293.021,494.539,293.021z"/>
		</g>
		<g>
			<path fill="#FFFFFF" d="M351.639,140.794l8.724,6.317c0.602,0.602,1.805,0.602,2.407-0.301l0,0l0,0
				c24.669-33.093,70.096-39.109,103.791-15.042c0.902,0.602,2.106,1.504,3.009,2.407l-9.025,6.618
				c-0.902,0.602,0.602,1.504,0.602,1.504l33.093,14.44c0.902,0.602,1.203-0.301,1.203-0.602v-0.301l0,0l-2.105-37.004
				c0-0.301-0.301-1.203-1.203-0.602l0,0l-10.229,7.221c-2.105-1.806-4.512-3.61-6.919-5.415
				c-40.313-28.58-94.464-21.36-123.947,17.749l-0.301,0.301C350.736,138.99,350.736,140.193,351.639,140.794L351.639,140.794z"/>
		</g>
		<g>
			<path fill="#FFFFFF" d="M533.949,242.178h10.229l-12.635-22.263l6.017-0.602l-9.326-14.44l6.017-0.602l-12.635-16.245
				l5.415-0.301l-12.034-21.06v0.603l-0.301-0.603l-12.033,21.06l5.415,0.602l-12.937,16.245l6.017,0.602l-9.325,14.44l6.017,0.603
				l-12.636,22.262h24.97v18.051c0,0.301,0.301,0.602,0.602,0.602l0,0h7.822c0.301,0,0.602-0.301,0.602-0.602v-18.051h14.741
				V242.178z"/>
		</g>
		<g>
			<path fill="#FFFFFF" d="M357.355,243.08h0.602c0.602,0,1.204-0.602,1.204-1.203c0-0.301,0-0.602-0.301-0.602l-23.165-74.609
				l-0.301-0.602c-0.301-0.301-0.602-0.602-1.204-0.602c-0.602,0-0.902,0.301-1.203,0.602l-0.301,0.301l-23.165,74.91
				c0,0.301,0,0.301,0,0.602c0,0.602,0.602,1.203,1.204,1.203l0,0h18.953v17.449c0,0.301,0.301,0.602,0.602,0.602h7.822
				c0.301,0,0.602-0.301,0.602-0.602V243.08H357.355z"/>
		</g>
		<g>
			<path fill="#FFFFFF" d="M461.747,290.914L461.747,290.914L461.747,290.914z"/>
		</g>
		<g>
			<path fill="#FFFFFF" d="M379.016,163.057L379.016,163.057C379.918,162.154,379.016,163.057,379.016,163.057z"/>
		</g>
		<g>
			<g>
				<path fill="#FFFFFF" d="M419.329,240.373c-1.504,0.902-3.008,1.504-4.513,2.105c-4.513,1.203-9.326,1.806-14.14,1.806
					c-2.407,0-4.813-0.302-6.919-0.603c-1.504-0.301-2.708-0.602-4.212-0.902c-0.602-0.301-1.504-0.301-2.105-0.602
					c-2.106-0.602-3.911-1.504-5.416-2.707c-0.602-0.603-1.203-1.204-1.504-1.806v1.806c0,0.602,0,2.707,0,2.707
					c0,1.203,0.602,2.407,1.504,3.009c3.31,2.406,6.919,3.609,11.131,4.212c2.708,0.301,5.415,0.602,8.123,0.602
					c3.911,0,7.822-0.301,11.733-1.204l0,0c2.106-0.602,4.212-1.203,6.017-2.406l0,0c1.805-1.203,3.008-2.407,3.008-3.911
					c0,0,0.301-4.212,0-4.513C421.134,238.868,420.231,239.471,419.329,240.373z"/>
			</g>
			<g>
				<path fill="#FFFFFF" d="M398.871,226.234c11.432,0,20.758-3.31,20.758-7.822c0,0,0.301-3.911,0-4.813
					c0-0.602,0-1.203-0.301-1.504c1.203-0.602,2.106-2.106,2.106-3.61c0,0,0.301-4.513,0-5.415
					c-0.602-5.114-11.131-8.123-20.758-8.123s-20.758,3.009-20.758,8.424c0,0.301,0.301,4.813,0.301,4.813
					c0,0.301,0,0.602,0.301,0.902c-1.504,0.902-2.407,2.407-2.407,4.212c0,0.301,0.301,4.813,0.301,4.813
					c0,1.203,0.602,2.407,1.504,3.009c3.31,2.406,6.919,3.911,11.131,4.212C393.456,225.933,396.164,226.234,398.871,226.234z
					 M400.977,197.654c11.131,0,18.652,3.31,18.652,6.317c0,3.009-7.822,6.317-18.652,6.317c-10.83,0-18.652-3.309-18.652-6.317
					C382.325,200.963,390.147,197.654,400.977,197.654z M380.219,213.598c0.301-0.902,0.902-1.805,1.504-2.406
					c0.602,0.602,1.204,1.203,2.106,1.504c5.415,2.406,11.131,3.61,17.148,3.31c4.813,0,9.928-0.602,14.44-2.106
					c0.602-0.301,1.204-0.602,1.805-0.902c0,0.301,0,0.301,0,0.602c0,3.009-7.521,6.317-18.652,6.317
					C387.439,219.915,380.219,216.607,380.219,213.598z"/>
			</g>
			<g>
				<path fill="#FFFFFF" d="M392.854,242.178c2.708,0.301,5.415,0.602,8.123,0.602c3.911,0,7.822-0.301,11.733-1.203l0,0
					c2.106-0.602,3.911-1.203,5.716-2.407l0,0c0.602-0.301,0.903-0.602,1.204-0.902c0.602-0.602,1.204-1.203,1.504-2.105
					c0-0.301,0.301-0.602,0.301-1.203c0,0,0-4.212,0-4.513c-0.602,0.902-2.407,3.609-10.53,5.114
					c-3.61,0.602-6.919,0.902-10.529,0.902c-5.716,0.301-11.432-0.902-16.546-3.31c-0.902-0.602-1.805-1.203-2.708-1.805
					c-0.602-0.602-0.902-0.902-1.204-1.504v2.105v3.009c0,1.203,0.602,2.406,1.504,3.008
					C384.731,240.373,388.643,241.877,392.854,242.178z"/>
			</g>
			<g>
				<path fill="#FFFFFF" d="M421.435,221.119c-0.301-0.301-0.602-0.301-0.602-0.602c-0.301-0.301-0.602-0.301-0.902-0.603
					c-0.301,0.302-0.602,0.903-0.902,1.204c0.301,0,0.602,0.301,0.902,0.602c0.602,0.301,0.902,0.902,0.902,1.504
					s-0.301,0.902-0.602,1.203s-0.602,0.301-0.902,0.603c-0.301,0.301-0.903,0.602-1.204,0.602c0,0-1.203,0.602-1.805,0.902
					l-1.805,0.602c-0.301,0-1.805,0.602-2.407,0.602c0,0-2.106,0.301-3.008,0.602l-3.31,0.301l-5.114,0.602
					c-2.106,0-4.513-0.301-6.619-0.602c-1.504-0.301-3.309-0.602-4.513-0.902c-1.805-0.301-3.309-0.902-5.114-1.504
					c-0.902-0.301-1.805-0.902-2.407-1.806c-0.602-0.602-1.203-1.504-1.504-2.105v2.708v2.406c0,1.203,0.602,2.407,1.504,3.009
					c3.31,2.406,7.22,3.609,11.131,4.212c2.708,0.301,5.415,0.602,8.123,0.602c3.911,0,7.822-0.602,11.432-1.505l0,0
					c2.106-0.301,4.212-1.203,6.017-2.105l0,0c0.301-0.301,0.902-0.602,1.203-0.902c0.602-0.602,1.204-1.204,1.805-2.106
					c0-0.301,0.301-0.602,0.301-1.203l0.301-4.513c0-0.301,0-0.602-0.301-0.902S421.735,221.42,421.435,221.119z"/>
			</g>
			<g>
				<path fill="#FFFFFF" d="M446.705,211.192c11.433,0,20.758-3.61,20.758-7.822c0,0,0.301-3.911,0.301-4.813
					c0-0.602-0.301-1.203-0.301-1.805c1.204-0.602,2.106-2.106,2.407-3.61c0,0,0.301-4.513,0-5.415
					c-0.602-4.513-11.131-7.221-21.059-7.221s-21.06,3.009-21.06,8.424c0,0.301,0.301,4.813,0.301,4.813
					c0,0.301,0,0.602,0.301,0.902c-1.504,0.902-2.406,2.407-2.707,4.212c0,0.301,0.301,4.813,0.301,4.813
					c0,1.203,0.602,2.407,1.504,3.009c3.31,2.105,7.221,3.609,11.131,3.911C441.29,210.891,443.998,211.192,446.705,211.192z
					 M448.812,182.612c11.131,0,18.651,3.309,18.651,6.317s-7.521,6.317-18.651,6.317c-11.132,0-18.652-3.309-18.652-6.317
					S437.68,182.612,448.812,182.612z M427.752,198.857c0.301-0.902,0.902-1.805,1.504-2.406c0.603,0.602,1.204,1.203,2.106,1.504
					c5.415,2.406,11.131,3.61,17.148,3.31c5.114,0,9.928-0.603,14.741-2.407c0.602-0.301,1.203-0.602,1.805-0.902
					c0,0.301,0,0.301,0,0.602c0,3.009-7.822,6.317-18.652,6.317S428.053,201.565,427.752,198.857L427.752,198.857z"/>
			</g>
			<g>
				<path fill="#FFFFFF" d="M469.569,206.98c0-0.301-0.301-0.602-0.602-0.902l-0.602-0.603c-0.301-0.301-0.602-0.301-0.903-0.602
					c-0.301,0.602-0.602,0.903-0.902,1.204c0.301,0,0.602,0.301,0.902,0.602c0.603,0.301,0.903,0.902,0.903,1.504
					s-0.301,1.203-0.602,1.504c-0.302,0.301-0.603,0.602-0.903,0.602l-1.203,0.603c0,0-1.203,0.602-1.805,0.902l-1.806,0.602
					c-0.301,0-1.805,0.602-2.406,0.602c0,0-2.106,0.301-3.009,0.602l-3.31,0.301c-0.301,0-3.309,0.301-4.813,0.301
					c-2.106,0-4.212-0.301-6.318-0.602c-1.504-0.301-3.008-0.602-4.813-0.902c-1.805-0.301-3.309-0.902-5.114-1.504
					c-1.805-0.903-3.31-2.106-4.212-3.911v2.707v2.407c0,1.203,0.602,2.406,1.505,3.009c3.309,2.406,7.22,3.609,11.131,4.211
					c2.707,0.301,5.415,0.602,8.123,0.602c3.91,0,7.821-0.301,11.432-1.203l0,0c2.105-0.602,4.212-1.203,6.017-2.406l0,0
					c0.602-0.301,0.902-0.602,1.203-0.902c0.603-0.603,1.204-1.204,1.505-2.106c0-0.301,0.301-0.602,0.301-1.203l0.301-4.513
					C469.87,207.581,469.87,207.281,469.569,206.98z"/>
			</g>
			<g>
				<path fill="#FFFFFF" d="M467.162,225.331c-1.504,0.902-3.008,1.504-4.513,2.105c-4.512,1.203-9.326,1.805-14.14,1.805
					c-2.406,0-4.813,0-6.919-0.301c-1.504-0.301-2.708-0.602-4.212-0.902c-0.602-0.301-1.504-0.301-2.105-0.602
					c-2.106-0.602-3.911-1.504-5.415-2.708c-0.603-0.602-1.204-0.902-1.505-1.805v1.805c0,0.603,0,2.708,0,2.708
					c0,1.203,0.602,2.407,1.505,3.009c3.309,2.406,7.22,3.609,11.131,4.212c2.707,0.301,5.415,0.602,8.123,0.602
					c3.91,0,7.821-0.301,11.432-1.204l0,0c2.105-0.602,4.212-1.203,6.017-2.406l0,0c2.106-1.203,3.009-2.407,3.009-3.911
					c0,0,0-4.212,0-4.513C468.667,223.826,468.065,224.729,467.162,225.331z"/>
			</g>
			<g>
				<path fill="#FFFFFF" d="M429.558,222.924c3.309,2.407,7.22,3.61,11.131,4.212c2.707,0.301,5.415,0.602,8.123,0.602
					c3.91,0,7.821-0.301,11.432-1.203l0,0c2.105-0.602,3.911-1.203,5.716-2.407l0,0c0.602-0.301,0.902-0.602,1.203-0.902
					c0.602-0.602,1.204-1.203,1.505-2.105c0-0.301,0.301-0.602,0.301-1.204c0,0,0-4.211,0-4.512
					c-0.602,0.902-2.407,3.609-10.529,5.415c-3.61,0.602-6.92,0.902-10.53,0.902c-5.716,0-11.432-0.902-16.546-3.31
					c-0.902-0.602-1.805-1.203-2.708-1.805c-0.602-0.602-0.902-0.902-1.203-1.505v2.106v3.009
					C427.752,221.42,428.654,222.323,429.558,222.924z"/>
			</g>
			<g>
				<path fill="#FFFFFF" d="M469.87,237.665c-0.602,0.902-1.504,1.806-2.407,2.407c-1.504,0.902-3.008,1.504-4.513,2.105
					c-4.512,1.203-9.325,1.805-14.139,1.805c-2.407,0-4.813-0.301-6.92-0.602c-1.504-0.301-2.707-0.602-4.212-0.902
					c-0.602-0.301-1.504-0.301-2.105-0.602c-2.106-0.602-3.911-1.504-5.415-2.708c-0.602-0.602-1.204-0.902-1.505-1.805v1.805
					c0,0.603,0,2.708,0,2.708c0,1.203,0.602,2.407,1.505,3.009c3.309,2.406,6.919,3.609,11.131,4.212
					c2.708,0.301,5.415,0.602,8.123,0.602c3.91,0,7.821-0.301,11.732-1.204l0,0c2.106-0.602,4.212-1.203,6.017-2.406l0,0
					c1.806-1.203,3.009-2.407,3.009-3.911C469.569,242.178,469.87,237.966,469.87,237.665z"/>
			</g>
			<g>
				<path fill="#FFFFFF" d="M440.688,241.877c2.707,0.301,5.415,0.602,8.123,0.602c3.91,0,7.821-0.301,11.732-1.203l0,0
					c2.105-0.602,4.212-1.203,6.017-2.407l0,0c0.602-0.301,0.902-0.602,1.204-0.902c0.602-0.602,1.203-1.203,1.504-2.105
					c0-0.301,0.301-0.602,0.301-1.203c0,0,0-4.212,0-4.513c-0.602,0.902-2.407,3.609-10.529,5.415
					c-3.61,0.602-6.92,0.902-10.529,0.902c-5.717,0-11.433-0.902-16.547-3.31c-0.902-0.602-1.805-1.203-2.708-1.805
					c-0.602-0.602-0.902-0.902-1.203-1.504v2.105v3.009c0,1.203,0.602,2.406,1.505,3.008
					C432.866,240.373,436.777,241.576,440.688,241.877z"/>
			</g>
		</g>
	</g>
</g>
</svg>
