<?xml version="1.0" encoding="utf-8"?>
<!-- Generator: Adobe Illustrator 16.0.3, SVG Export Plug-In . SVG Version: 6.00 Build 0)  -->
<!DOCTYPE svg PUBLIC "-//W3C//DTD SVG 1.1//EN" "http://www.w3.org/Graphics/SVG/1.1/DTD/svg11.dtd" [
	<!ENTITY ns_extend "http://ns.adobe.com/Extensibility/1.0/">
	<!ENTITY ns_ai "http://ns.adobe.com/AdobeIllustrator/10.0/">
	<!ENTITY ns_graphs "http://ns.adobe.com/Graphs/1.0/">
	<!ENTITY ns_vars "http://ns.adobe.com/Variables/1.0/">
	<!ENTITY ns_imrep "http://ns.adobe.com/ImageReplacement/1.0/">
	<!ENTITY ns_sfw "http://ns.adobe.com/SaveForWeb/1.0/">
	<!ENTITY ns_custom "http://ns.adobe.com/GenericCustomNamespace/1.0/">
	<!ENTITY ns_adobe_xpath "http://ns.adobe.com/XPath/1.0/">
]>
<svg version="1.1" id="Layer_1" xmlns:x="&ns_extend;" xmlns:i="&ns_ai;" xmlns:graph="&ns_graphs;"
	 xmlns="http://www.w3.org/2000/svg" xmlns:xlink="http://www.w3.org/1999/xlink" x="0px" y="0px" width="301.719px"
	 height="301.719px" viewBox="275.981 76.384 301.719 301.719" enable-background="new 275.981 76.384 301.719 301.719"
	 xml:space="preserve">
<metadata>
	<sfw  xmlns="&ns_sfw;">
		<slices></slices>
		<sliceSourceBounds  width="301.719" height="301.719" y="122.397" x="275.481" bottomLeftOrigin="true"></sliceSourceBounds>
	</sfw>
</metadata>
<title>Artboard 23 copy 2</title>
<g id="TARGETS">
	<g>
		<rect x="275.981" y="76.384" fill="#A21942" width="301.719" height="301.719"/>
	</g>
	<g>
		<g>
			<path fill="#FFFFFF" d="M393.741,183.641c-0.955,0.318-1.91,0-2.546-0.318c-1.273-0.637-1.91-1.591-2.546-2.864l-1.909-5.41
				c-0.955-2.547-0.318-5.093,1.591-5.729l9.229-3.819l-2.228-5.41l-9.229,3.501c-3.183,1.273-5.411,4.774-5.411,8.275
				c-0.955-0.318-1.591-0.637-2.546-0.955c-2.546-0.318-4.774,0-7.002,1.272l-8.912,6.366l4.137,4.137l7.957-5.41
				c0.636-0.637,1.591-0.637,2.546-0.637c0.955,0.318,1.591,0.637,2.228,1.592l4.138,6.047c0.636,0.637,0.636,1.591,0.636,2.546
				c-0.318,0.637-0.636,1.592-1.273,1.91c1.591,0.954,3.183,2.546,4.138,4.137c1.273-1.272,2.228-2.546,2.546-4.137
				c1.273,0.636,2.546,0.954,3.819,0.954c0.955,0,1.91-0.318,2.864-0.637l9.548-3.818l-2.228-5.411L393.741,183.641z"/>
		</g>
		<g>
			<path fill="#FFFFFF" d="M326.904,250.159l-3.183,6.047c-0.318,0.955-1.273,1.591-1.909,1.909
				c-0.955,0.318-1.91,0.318-2.546-0.318l-6.684-3.183c-1.591-0.954-2.546-2.864-1.591-4.773l6.047-12.095l-3.819-4.773
				l-7.32,14.321c-0.955,2.229-1.273,4.774-0.637,7.002c0.318,0.637,0.637,1.592,0.955,2.229c-0.637,0.318-1.591,0.637-2.228,0.955
				c-1.91,1.272-3.501,3.5-4.138,5.729l-3.819,16.55c-1.273,5.093,1.91,9.866,7.002,11.14l7.002,1.591
				c0.637,0,1.273,0.318,2.228,0.318c4.456,0,7.957-2.864,8.912-7.002l3.819-16.55c0.318-1.909,0.318-4.138-0.637-6.047
				c1.91-0.955,3.183-2.228,4.138-4.138l1.909-3.819L326.904,250.159z M319.584,267.664l-3.819,16.55
				c-0.318,0.954-0.637,1.591-1.591,2.228c-0.637,0.637-1.591,0.637-2.546,0.318l-7.001-1.592c-0.955-0.317-1.592-0.636-2.228-1.591
				c-0.637-0.637-0.637-1.592-0.318-2.546l3.819-16.551c0.318-0.954,0.636-1.591,1.591-2.228c0.636-0.637,1.591-0.637,2.546-0.318
				l7.002,1.592c0.955,0.318,1.591,0.637,2.228,1.591C319.584,265.754,319.903,266.709,319.584,267.664z"/>
		</g>
		<g>
			
				<rect x="418.265" y="130.434" transform="matrix(-0.5919 0.806 -0.806 -0.5919 793.679 -133.6638)" fill="#FFFFFF" width="24.825" height="7.32"/>
		</g>
		<g>
			
				<rect x="396.932" y="115.222" transform="matrix(-0.9655 0.2603 -0.2603 -0.9655 820.5974 146.6132)" fill="#FFFFFF" width="7.321" height="24.827"/>
		</g>
		<g>
			
				<rect x="375.326" y="134.209" transform="matrix(-0.4024 0.9155 -0.9155 -0.4024 665.7073 -141.3358)" fill="#FFFFFF" width="7.32" height="24.825"/>
		</g>
		<g>
			<path fill="#FFFFFF" d="M445.937,186.505c0.955-1.272,2.547-3.183,4.138-5.092l-3.183-0.637
				c-0.955-0.318-1.591-0.637-2.228-1.592c-0.637-0.636-0.637-1.591-0.637-2.546l1.592-7.32c0.317-1.591,1.909-2.864,3.501-2.864
				c0.317,0,0.317,0,0.636,0L461.851,169c0.955-0.636,1.591-1.591,2.546-2.228c1.592-0.955,3.183-1.592,5.093-1.909
				c-0.637-0.318-1.273-0.637-2.229-0.637l-16.55-3.501c-2.864-0.637-5.729,0.318-7.957,2.228l0,0
				c-1.272-2.228-3.501-3.501-6.047-4.138l-10.185-1.909l-0.955,5.729l10.185,1.91c0.955,0.318,1.592,0.636,2.229,1.591
				s0.637,2.229,0.637,3.183l-0.955,5.093c-0.318,1.909-2.228,3.501-4.138,3.183l-9.548-1.91l-1.273,5.729l9.548,1.909
				c0.637,0,1.273,0.318,1.592,0c1.909,0,3.819-0.637,5.41-1.909c0,0.318,0.318,0.637,0.637,0.954
				C441.163,184.596,443.391,185.868,445.937,186.505L445.937,186.505z"/>
		</g>
		<g>
			<g>
				<path fill="#FFFFFF" d="M353.639,193.507c0.636-0.637,0.955-0.955,1.591-1.272c1.273-0.637,2.546-0.955,4.138-1.273l3.819-1.273
					l2.228-0.637c0-0.636-0.637-1.591-1.273-2.228l-6.047-5.41c-0.955-0.637-1.91-1.273-3.183-0.955
					c-1.591,0-3.501,0.955-4.774,2.228c-1.273,1.273-1.91,2.865-1.91,4.774c0,0.955,0.318,2.228,1.273,2.864L353.639,193.507z"/>
			</g>
			<g>
				<path fill="#FFFFFF" d="M344.728,209.103c0.955,0.954,1.91,1.272,3.183,1.272c1.591,0,3.183-0.637,4.456-1.909
					c0.955-0.955,1.591-2.228,1.909-3.501c-1.273-0.955-2.546-2.228-2.864-3.819v-0.637c0-0.637,0-1.272,0-2.228l-11.139-11.776
					c-0.955-0.954-1.91-1.272-3.183-1.272l0,0c-1.591,0-3.183,0.636-4.456,1.909c-2.228,1.909-2.864,5.093-1.273,7.639
					L344.728,209.103z"/>
			</g>
			<g>
				<path fill="#FFFFFF" d="M332.315,220.878c0.955,0.955,1.91,1.273,3.183,1.273c1.591,0,3.183-0.637,4.456-1.91
					c1.273-0.954,1.91-2.546,2.228-4.137c0.318-1.273,0-2.547-0.955-3.501l-11.458-12.095c-0.955-0.955-1.91-1.272-3.183-1.272l0,0
					c-1.591,0-3.183,0.636-4.456,1.909c-1.273,0.955-1.91,2.546-2.228,4.138c-0.318,1.272,0,2.546,0.955,3.501L332.315,220.878z"/>
			</g>
			<g>
				<path fill="#FFFFFF" d="M324.04,227.562c1.273-1.272,2.228-2.864,2.228-4.773c0-0.955-0.318-2.229-0.955-2.865l-4.137-4.137
					c-0.955-0.955-1.91-1.273-3.183-1.273c-1.591,0-3.183,0.637-4.456,1.909c-1.273,1.273-2.228,2.865-2.228,4.456
					c0,0.955,0.318,2.229,0.955,2.864l4.138,4.456c0.955,0.955,1.91,1.273,3.183,1.273
					C321.176,229.472,322.767,228.517,324.04,227.562z"/>
			</g>
			<g>
				<path fill="#FFFFFF" d="M376.236,234.882l0.318-0.637l0,0c3.183-7.002,12.412-22.597,12.73-23.233
					c0.318-0.955,0.637-2.228,0.637-3.183c0-0.637,0-1.273-0.318-1.909l-0.955-2.229c-1.591-3.501-5.092-9.866-8.275-11.775
					c-2.228-1.273-4.774-1.91-7.32-1.273c-0.637,0.318-4.774,1.273-8.912,2.546l-3.819,0.955c-1.273,0.318-2.228,0.637-3.501,1.273
					c-1.591,0.954-2.228,2.546-1.91,4.137c0.318,1.273,1.273,1.91,2.228,2.229l7.002,0.637h0.955
					c3.183,0.318,5.729,3.183,5.729,6.684c0,0.636,0,1.272-0.318,1.591l-4.456,10.503l-3.501-1.591l4.456-10.503
					c0-1.273-0.955-2.547-2.546-2.865h-0.637l-6.047-0.636c-0.636,1.909-1.909,3.819-3.501,5.41
					c-2.228,1.91-4.774,3.183-7.638,3.183H346c0,3.183-1.273,6.365-3.819,8.594c-2.228,1.909-4.774,3.183-7.639,3.183h-0.318
					c-1.591,0-3.501-0.637-4.774-1.592c-0.637,2.229-1.91,4.138-3.501,5.411c-1.91,1.909-4.456,2.864-7.32,3.183l10.185,14.321
					c0.955,1.273,2.546,2.547,3.819,3.501c0.637,0.955,1.591,2.229,2.546,3.184c0.955,1.591,1.91,3.818,2.228,5.729
					c2.228,11.775,4.456,80.203,4.456,80.203h46.149c0,0-12.731-69.7-16.232-91.661c-0.318-2.546,0-5.41,0.955-7.956
					C374.327,239.338,376.236,234.882,376.236,234.882z"/>
			</g>
		</g>
		<g>
			<g>
				<path fill="#FFFFFF" d="M528.368,236.156c-3.818,0-7.32-1.91-9.866-4.774c-1.909-2.228-3.183-5.092-3.183-7.957
					c-2.228,1.592-4.773,2.547-7.639,2.547h-0.317c-3.819,0-7.32-1.592-9.867-4.456c-2.864-3.183-3.818-7.957-2.864-12.094
					c-0.318,0-0.637,0-0.954,0h-0.318c-7.32,0-13.367-6.048-13.05-13.686c0-1.91,0.318-3.819,1.273-5.411l-7.639-1.591l-2.228,1.272
					l7.957,19.097l-2.229,0.954l-2.228,0.955l-9.229-22.597l7.002-4.774l16.868,3.501c0,0,3.819,0,4.773-2.228
					c0.955-2.229-1.909-5.411-3.501-6.365c-1.272-0.637-2.864-1.273-4.138-1.91l-5.092-2.228l-10.821-4.138
					c-0.318,0-1.591-0.637-4.138,0.955c-6.684,6.047-13.049,12.73-18.777,19.732c-0.318,0.637-1.273,1.591-1.592,2.228
					c0,0,0.318,0.318,0.318,0.637v0.318l15.277,50.923l0.954,2.864l0,0l-21.642,92.616h56.333l12.731-85.296l19.732-19.414
					C529.96,236.156,529.323,236.156,528.368,236.156L528.368,236.156z"/>
			</g>
			<g>
				<path fill="#FFFFFF" d="M488.585,172.183c1.592,0.637,3.501,1.592,5.093,2.229c0.636,0.318,1.272,0.955,1.909,1.591l2.228-1.591
					c1.592-1.273,2.547-3.183,2.864-5.411c0.318-2.228-0.317-4.137-1.591-5.729c-1.592-1.909-3.819-2.864-6.047-2.864l0,0
					c-1.91,0-3.501,0.637-5.093,1.591l-7.957,6.366l4.138,1.591L488.585,172.183z"/>
			</g>
			<g>
				<path fill="#FFFFFF" d="M499.088,185.868c0,0.318,0,0.318-0.318,0.637c-1.909,5.411-8.911,5.411-9.866,5.411h-0.318
					l-1.592-0.318c-2.546,3.501-1.591,8.593,2.229,11.14c1.273,0.954,2.864,1.272,4.138,1.272l0,0c1.909,0,3.819-0.637,5.41-1.909
					l23.552-20.688c3.183-2.864,3.501-7.957,0.637-11.14c-1.592-1.592-3.819-2.546-6.047-2.546l0,0c-1.91,0-3.819,0.637-5.093,1.909
					l-12.73,11.14C499.725,182.367,499.725,184.278,499.088,185.868z"/>
			</g>
			<g>
				<path fill="#FFFFFF" d="M502.271,206.556c-3.183,2.865-3.501,7.957-0.637,11.14c1.592,1.592,3.501,2.546,5.729,2.546
					c1.909,0,3.818-0.636,5.41-1.909l19.732-17.505c1.592-1.273,2.546-3.501,2.546-5.41c0.318-2.229-0.636-4.138-1.909-5.729
					c-1.591-1.591-3.501-2.864-5.729-2.864l0,0c-1.91,0-3.819,0.637-5.411,1.91L502.271,206.556z"/>
			</g>
			<g>
				<path fill="#FFFFFF" d="M541.735,211.33c-1.591-1.592-3.818-2.864-6.047-2.864l0,0c-1.909,0-3.819,0.637-5.092,1.909
					l-7.32,6.365c-1.592,1.273-2.546,3.183-2.864,5.411c0,2.228,0.636,4.138,1.909,5.729c1.592,1.592,3.501,2.864,6.047,2.864l0,0
					c1.91,0,3.819-0.636,5.093-1.909l7.002-6.047C543.964,219.923,544.601,214.831,541.735,211.33z"/>
			</g>
		</g>
		<g>
			<path fill="#FFFFFF" d="M557.331,271.165l-4.456-19.097c-0.637-3.183-3.183-5.729-6.365-6.684
				c1.909-2.546,2.228-6.047,0.955-8.911l-3.819-8.912l-4.456,4.774l2.864,6.365c0.637,1.909,0,3.819-1.909,4.456l0,0l-8.275,3.501
				c-1.909,0.636-3.819,0-4.455-1.91l0,0v-0.318l-4.138,4.774c0.955,1.273,2.228,2.228,3.819,2.864
				c-0.955,1.91-1.273,4.138-0.637,6.047l4.456,19.097c0.954,4.138,4.773,7.002,8.911,7.002c0.637,0,1.273,0,2.228-0.318
				l8.912-2.228C555.739,281.031,558.604,276.257,557.331,271.165z M551.284,275.302c-0.637,0.637-1.273,1.273-2.229,1.592
				l-8.911,2.228c-0.955,0.318-1.909,0-2.546-0.318c-0.955-0.636-1.273-1.272-1.592-2.228l-4.455-19.096
				c-0.318-1.91,0.636-3.819,2.546-4.138l8.911-2.229c1.91-0.318,3.819,0.637,4.138,2.547l4.456,19.096
				C552.238,273.393,551.921,274.348,551.284,275.302z"/>
		</g>
	</g>
</g>
</svg>
