<?xml version="1.0" encoding="utf-8"?>
<!-- Generator: Adobe Illustrator 16.0.3, SVG Export Plug-In . SVG Version: 6.00 Build 0)  -->
<!DOCTYPE svg PUBLIC "-//W3C//DTD SVG 1.1//EN" "http://www.w3.org/Graphics/SVG/1.1/DTD/svg11.dtd" [
	<!ENTITY ns_extend "http://ns.adobe.com/Extensibility/1.0/">
	<!ENTITY ns_ai "http://ns.adobe.com/AdobeIllustrator/10.0/">
	<!ENTITY ns_graphs "http://ns.adobe.com/Graphs/1.0/">
	<!ENTITY ns_vars "http://ns.adobe.com/Variables/1.0/">
	<!ENTITY ns_imrep "http://ns.adobe.com/ImageReplacement/1.0/">
	<!ENTITY ns_sfw "http://ns.adobe.com/SaveForWeb/1.0/">
	<!ENTITY ns_custom "http://ns.adobe.com/GenericCustomNamespace/1.0/">
	<!ENTITY ns_adobe_xpath "http://ns.adobe.com/XPath/1.0/">
]>
<svg version="1.1" id="Layer_1" xmlns:x="&ns_extend;" xmlns:i="&ns_ai;" xmlns:graph="&ns_graphs;"
	 xmlns="http://www.w3.org/2000/svg" xmlns:xlink="http://www.w3.org/1999/xlink" x="0px" y="0px" width="285.37px"
	 height="285.37px" viewBox="284.165 72.245 285.37 285.37" enable-background="new 284.165 72.245 285.37 285.37"
	 xml:space="preserve">
<metadata>
	<sfw  xmlns="&ns_sfw;">
		<slices></slices>
		<sliceSourceBounds  width="285.37" height="285.37" y="142.885" x="283.665" bottomLeftOrigin="true"></sliceSourceBounds>
	</sfw>
</metadata>
<title>TARGET 1 B copy 3</title>
<g id="TARGETS">
	<g>
		<rect x="284.165" y="72.245" fill="#26BDE2" width="285.37" height="285.37"/>
	</g>
	<g>
		<g>
			<path fill="#FFFFFF" d="M334.435,178.808c-0.903,0.903-2.408,1.505-3.913,1.204c-1.505,0-2.709-0.301-3.913-1.204
				c-1.806-1.806-2.107-4.816-0.602-6.924c0.602-0.902,4.214-6.622,4.515-6.923l0,0c0.301,0.602,3.913,6.021,4.515,6.923
				C336.542,173.991,336.241,177.002,334.435,178.808"/>
		</g>
		<g>
			<path fill="#FFFFFF" d="M363.936,190.849c-2.107,1.806-5.418,1.806-7.525,0c-1.806-1.807-2.107-4.816-0.602-6.924
				c0.602-0.902,4.214-6.622,4.515-6.923l0,0l0,0l0,0c0.301,0.602,3.914,6.021,4.516,6.923
				C366.043,186.032,365.742,188.741,363.936,190.849"/>
		</g>
		<g>
			<path fill="#FFFFFF" d="M350.992,123.419c-2.107,1.807-5.418,1.807-7.526,0c-1.806-1.806-2.107-4.816-0.602-6.923
				c0.602-0.903,4.214-6.623,4.516-6.924l0,0c0.301,0.603,3.913,6.021,4.515,6.924C352.798,118.603,352.497,121.614,350.992,123.419
				"/>
		</g>
		<g>
			<path fill="#FFFFFF" d="M403.671,186.333c-2.107,1.807-5.418,1.807-7.526,0c-1.806-1.806-2.107-4.816-0.602-6.923
				c0.602-0.903,4.214-6.623,4.516-6.924l0,0c0.301,0.602,3.913,6.021,4.515,6.924C405.778,181.517,405.477,184.528,403.671,186.333
				"/>
		</g>
		<g>
			<path fill="#FFFFFF" d="M331.726,146.297c-0.903,0.903-2.408,1.506-3.913,1.204c-1.505,0-2.709-0.301-3.914-1.204
				c-1.806-1.806-2.107-4.816-0.602-6.923c0.602-0.903,4.214-6.623,4.516-6.924l0,0l0,0l0,0c0.301,0.602,3.913,6.021,4.515,6.924
				C333.833,141.481,333.532,144.191,331.726,146.297"/>
		</g>
		<g>
			<path fill="#FFFFFF" d="M372.364,141.481c-2.107,1.807-5.418,1.807-7.525,0c-1.806-1.806-2.107-4.816-0.602-6.923
				c0.602-0.903,4.214-6.623,4.515-6.924l0,0c0.301,0.602,3.913,6.021,4.515,6.924C374.471,136.966,374.17,139.675,372.364,141.481"
				/>
		</g>
		<g>
			<path fill="#FFFFFF" d="M405.176,152.318c-2.107,1.807-5.418,1.807-7.525,0c-1.806-1.806-2.107-4.816-0.602-6.923
				c0.602-0.903,4.214-6.623,4.515-6.924l0,0l0,0l0,0c0.301,0.602,3.913,6.021,4.516,6.924
				C407.283,147.501,406.982,150.21,405.176,152.318"/>
		</g>
		<g>
			<path fill="#FFFFFF" d="M392.232,124.925c-2.107,1.806-5.418,1.806-7.526,0c-1.806-1.807-2.107-4.816-0.602-6.924
				c0.602-0.903,4.214-6.623,4.516-6.924l0,0c0.301,0.603,3.913,6.021,4.515,6.924C394.339,120.109,394.038,123.118,392.232,124.925
				"/>
		</g>
		<g>
			<path fill="#FFFFFF" d="M355.507,161.349c-0.903,0.902-2.408,1.505-3.913,1.204c-1.505,0-2.709-0.302-3.914-1.204
				c-1.806-1.807-2.107-4.816-0.602-6.924c0.602-0.903,4.214-6.622,4.516-6.924l0,0c0.301,0.603,3.913,6.021,4.515,6.924
				C357.614,156.532,357.313,159.542,355.507,161.349"/>
		</g>
		<g>
			<path fill="#FFFFFF" d="M384.104,168.874c-2.107,1.806-5.418,1.806-7.525,0c-1.806-1.807-2.107-4.816-0.602-6.924
				c0.602-0.903,4.214-6.622,4.515-6.924l0,0c0.301,0.603,3.914,6.021,4.516,6.924C386.211,164.359,385.91,167.068,384.104,168.874"
				/>
		</g>
		<g>
			<g>
				<polygon fill="#FFFFFF" points="416.916,201.987 416.916,279.951 314.869,279.951 314.869,201.987 310.956,201.987 
					310.956,283.865 420.829,283.865 420.829,201.987 				"/>
			</g>
			<g>
				<path fill="#FFFFFF" d="M320.588,240.518L320.588,240.518c19.867,18.362,40.638,3.01,44.853-0.603l0.301-0.301h0.301h0.301
					l0.301,0.301c4.214,3.612,24.684,18.664,44.25,0.903l0.602-0.602c0.301-0.302,0.301-0.302,0.301-0.603v-9.633
					c0-0.602-0.301-0.902-0.903-0.902l0,0h-0.301l-0.301,0.301c-6.02,4.214-25.587,15.954-43.347-0.301l0.301-0.302
					c-0.301-0.301-0.603-0.301-0.903-0.301s-0.602,0-0.602,0.301l-0.301,0.301c-17.459,16.256-36.725,5.118-43.046,0.603
					l-0.602-0.301c-0.301,0-0.301,0-0.602,0c-0.602,0-0.903,0.301-0.903,0.902v9.633l0,0l0,0
					C320.588,239.915,320.588,240.217,320.588,240.518z"/>
			</g>
			<g>
				<path fill="#FFFFFF" d="M320.588,262.492L320.588,262.492c19.867,18.362,40.638,3.312,44.853-0.602l0.602-0.302h0.301h0.301
					l0.301,0.302c4.214,3.611,24.684,18.663,44.25,0.902l0.602-0.602c0.301-0.301,0.301-0.301,0.301-0.603v-9.934
					c0-0.602-0.301-0.903-0.903-0.903l0,0h-0.301l-0.301,0.302c-6.021,4.214-25.587,16.255-43.347-0.302l-0.301-0.301
					c-0.301-0.301-0.602-0.301-0.903-0.301c-0.301,0-0.602,0-0.602,0.301l-0.301,0.301c-17.459,16.256-36.725,5.118-43.046,0.603
					l-0.602-0.301c-0.301,0-0.301,0-0.602,0c-0.602,0-0.903,0.301-0.903,0.902v9.935l0,0l0,0
					C320.588,262.192,320.588,262.492,320.588,262.492z"/>
			</g>
			<g>
				<path fill="#FFFFFF" d="M322.093,220.651c0.903,0,1.505-0.603,1.505-1.506c0-0.902-0.602-1.505-1.505-1.505
					c-0.903,0-1.505,0.603-1.505,1.505l0,0C320.588,220.048,321.19,220.651,322.093,220.651L322.093,220.651z"/>
			</g>
			<g>
				<circle fill="#FFFFFF" cx="329.017" cy="219.145" r="1.505"/>
			</g>
			<g>
				<circle fill="#FFFFFF" cx="335.94" cy="219.145" r="1.505"/>
			</g>
			<g>
				<path fill="#FFFFFF" d="M342.864,220.651c0.903-0.302,1.204-1.204,1.204-1.807c0-0.602-0.602-0.903-1.204-1.204
					c-0.903,0.301-1.204,1.204-1.204,1.807C341.961,220.048,342.262,220.651,342.864,220.651z"/>
			</g>
			<g>
				<circle fill="#FFFFFF" cx="349.486" cy="219.145" r="1.505"/>
			</g>
			<g>
				<circle fill="#FFFFFF" cx="356.41" cy="219.145" r="1.505"/>
			</g>
			<g>
				<circle fill="#FFFFFF" cx="363.333" cy="219.145" r="1.505"/>
			</g>
			<g>
				<circle fill="#FFFFFF" cx="370.257" cy="219.145" r="1.505"/>
			</g>
			<g>
				<path fill="#FFFFFF" d="M377.181,220.651c0.903,0,1.505-0.603,1.505-1.506c0-0.902-0.602-1.505-1.505-1.505
					c-0.903,0-1.505,0.603-1.505,1.505l0,0C375.375,220.048,376.277,220.651,377.181,220.651L377.181,220.651z"/>
			</g>
			<g>
				<circle fill="#FFFFFF" cx="383.803" cy="219.145" r="1.505"/>
			</g>
			<g>
				<circle fill="#FFFFFF" cx="390.727" cy="219.145" r="1.505"/>
			</g>
			<g>
				<circle fill="#FFFFFF" cx="397.65" cy="219.145" r="1.505"/>
			</g>
			<g>
				<path fill="#FFFFFF" d="M404.574,220.651c0.903,0,1.505-0.603,1.505-1.506c0-0.902-0.603-1.505-1.505-1.505
					s-1.505,0.603-1.505,1.505l0,0C403.069,220.048,403.671,220.651,404.574,220.651L404.574,220.651z"/>
			</g>
			<g>
				<circle fill="#FFFFFF" cx="411.196" cy="219.145" r="1.505"/>
			</g>
			<g>
				<circle fill="#FFFFFF" cx="326.007" cy="213.727" r="1.505"/>
			</g>
			<g>
				<circle fill="#FFFFFF" cx="332.93" cy="213.727" r="1.505"/>
			</g>
			<g>
				<circle fill="#FFFFFF" cx="339.553" cy="213.727" r="1.505"/>
			</g>
			<g>
				<circle fill="#FFFFFF" cx="346.476" cy="213.727" r="1.505"/>
			</g>
			<g>
				<circle fill="#FFFFFF" cx="353.4" cy="213.727" r="1.505"/>
			</g>
			<g>
				<circle fill="#FFFFFF" cx="360.323" cy="213.727" r="1.505"/>
			</g>
			<g>
				<circle fill="#FFFFFF" cx="367.247" cy="213.727" r="1.505"/>
			</g>
			<g>
				<circle fill="#FFFFFF" cx="373.869" cy="213.727" r="1.505"/>
			</g>
			<g>
				<circle fill="#FFFFFF" cx="380.793" cy="213.727" r="1.505"/>
			</g>
			<g>
				<path fill="#FFFFFF" d="M387.716,215.232c0.903,0,1.505-0.602,1.505-1.505s-0.602-1.505-1.505-1.505
					c-0.903,0-1.505,0.602-1.505,1.505S386.813,215.232,387.716,215.232L387.716,215.232z"/>
			</g>
			<g>
				<circle fill="#FFFFFF" cx="394.64" cy="213.727" r="1.505"/>
			</g>
			<g>
				<circle fill="#FFFFFF" cx="401.263" cy="213.727" r="1.505"/>
			</g>
			<g>
				<circle fill="#FFFFFF" cx="408.186" cy="213.727" r="1.505"/>
			</g>
			<g>
				<circle fill="#FFFFFF" cx="322.395" cy="208.609" r="1.505"/>
			</g>
			<g>
				<path fill="#FFFFFF" d="M329.318,210.115c0.903-0.301,1.505-0.903,1.204-1.807c0-0.602-0.602-1.204-1.204-1.204
					c-0.903-0.301-1.505,0.302-1.806,1.204c-0.301,0.903,0.301,1.506,1.204,1.807C329.017,210.115,329.318,210.115,329.318,210.115z
					"/>
			</g>
			<g>
				<path fill="#FFFFFF" d="M336.241,210.115c0.903,0,1.505-0.603,1.505-1.505c0-0.903-0.602-1.506-1.505-1.506
					c-0.903,0-1.505,0.603-1.505,1.506C334.736,209.512,335.338,210.115,336.241,210.115L336.241,210.115z"/>
			</g>
			<g>
				<circle fill="#FFFFFF" cx="343.165" cy="208.609" r="1.505"/>
			</g>
			<g>
				<circle fill="#FFFFFF" cx="350.088" cy="208.609" r="1.505"/>
			</g>
			<g>
				<circle fill="#FFFFFF" cx="356.711" cy="208.609" r="1.505"/>
			</g>
			<g>
				<path fill="#FFFFFF" d="M363.635,210.115c0.903-0.301,1.505-0.903,1.204-1.807c0-0.602-0.602-1.204-1.204-1.204
					c-0.903-0.301-1.505,0.302-1.806,1.204c-0.301,0.903,0.301,1.506,1.204,1.807C363.333,210.115,363.333,210.115,363.635,210.115z
					"/>
			</g>
			<g>
				<circle fill="#FFFFFF" cx="370.558" cy="208.609" r="1.505"/>
			</g>
			<g>
				<circle fill="#FFFFFF" cx="377.481" cy="208.609" r="1.505"/>
			</g>
			<g>
				<circle fill="#FFFFFF" cx="384.104" cy="208.609" r="1.505"/>
			</g>
			<g>
				<circle fill="#FFFFFF" cx="391.028" cy="208.609" r="1.505"/>
			</g>
			<g>
				<path fill="#FFFFFF" d="M397.951,210.115c0.903,0,1.505-0.603,1.505-1.505c0-0.903-0.602-1.506-1.505-1.506
					c-0.903,0-1.505,0.603-1.505,1.506C396.446,209.512,397.048,210.115,397.951,210.115L397.951,210.115z"/>
			</g>
			<g>
				<circle fill="#FFFFFF" cx="404.875" cy="208.609" r="1.505"/>
			</g>
			<g>
				<circle fill="#FFFFFF" cx="411.798" cy="208.609" r="1.505"/>
			</g>
		</g>
		<g>
			<path fill="#FFFFFF" d="M542.743,185.732c-0.301-0.301-0.602-0.301-0.902-0.301h-95.124c-0.301,0-0.602,0-0.903,0.301
				c-0.301,0.301-0.301,0.602-0.301,0.903l15.954,96.628c0,0.603,0.603,0.903,1.204,0.903h19.567l1.204,14.147h-4.816
				c-0.603,0-0.903,0.302-0.903,0.903c0,0.301,0,0.301,0.301,0.603v0.301l15.653,20.168l0.301,0.302
				c0.301,0.301,0.603,0.301,0.903,0.301s0.602,0,0.602-0.301l0,0l0.302-0.302l15.352-20.168l0,0l0,0
				c0.302-0.301,0.302-0.301,0.302-0.603c0-0.602-0.302-0.902-0.903-0.902h-4.516l1.204-14.148h19.867
				c0.603,0,0.903-0.301,1.204-0.903l15.052-96.628C543.045,186.333,543.045,186.032,542.743,185.732z M506.019,263.095
				c-6.622,5.117-15.954,5.117-22.878,0c-5.418-5.419-6.321-14.148-2.106-20.47c1.505-3.011,12.643-19.266,13.546-20.771l0,0l0,0
				l0,0c0.902,1.505,12.041,17.76,13.546,20.771C512.039,248.947,511.136,257.375,506.019,263.095z M536.121,205.9
				c-3.011-0.902-6.321-0.902-9.03,0.603c-11.74,4.816-19.868,6.622-32.21,2.709c-7.827-2.408-15.051-7.525-23.781-4.516
				c-5.418,2.408-11.438,3.914-17.459,3.914l-3.913-18.965h89.103L536.121,205.9z"/>
		</g>
	</g>
</g>
</svg>
