<?xml version="1.0" encoding="utf-8"?>
<!-- Generator: Adobe Illustrator 16.0.3, SVG Export Plug-In . SVG Version: 6.00 Build 0)  -->
<!DOCTYPE svg PUBLIC "-//W3C//DTD SVG 1.1//EN" "http://www.w3.org/Graphics/SVG/1.1/DTD/svg11.dtd" [
	<!ENTITY ns_extend "http://ns.adobe.com/Extensibility/1.0/">
	<!ENTITY ns_ai "http://ns.adobe.com/AdobeIllustrator/10.0/">
	<!ENTITY ns_graphs "http://ns.adobe.com/Graphs/1.0/">
	<!ENTITY ns_vars "http://ns.adobe.com/Variables/1.0/">
	<!ENTITY ns_imrep "http://ns.adobe.com/ImageReplacement/1.0/">
	<!ENTITY ns_sfw "http://ns.adobe.com/SaveForWeb/1.0/">
	<!ENTITY ns_custom "http://ns.adobe.com/GenericCustomNamespace/1.0/">
	<!ENTITY ns_adobe_xpath "http://ns.adobe.com/XPath/1.0/">
]>
<svg version="1.1" id="Layer_1" xmlns:x="&ns_extend;" xmlns:i="&ns_ai;" xmlns:graph="&ns_graphs;"
	 xmlns="http://www.w3.org/2000/svg" xmlns:xlink="http://www.w3.org/1999/xlink" x="0px" y="0px" width="270.548px"
	 height="270.548px" viewBox="291.583 68.493 270.548 270.548" enable-background="new 291.583 68.493 270.548 270.548"
	 xml:space="preserve">
<metadata>
	<sfw  xmlns="&ns_sfw;">
		<slices></slices>
		<sliceSourceBounds  width="270.548" height="270.548" y="161.459" x="291.083" bottomLeftOrigin="true"></sliceSourceBounds>
	</sfw>
</metadata>
<title>TARGET 1 B copy 10</title>
<g id="TARGETS">
	<g>
		<rect x="291.583" y="68.493" fill="#BF8B2E" width="270.548" height="270.548"/>
	</g>
	<g>
		<g>
			<g>
				<path d="M389.472,233.162h-21.975v-2.568c0-0.571-0.286-0.856-0.856-0.856h-16.553c-0.571,0-0.856,0.285-0.856,0.856l0,0v2.568
					h-21.69c-0.57,0-0.856,0.285-0.856,0.855l0.571,3.425c0,0.571,0.285,0.856,0.856,0.856h60.788c0.571,0,0.856-0.285,0.856-0.856
					l0,0l0.571-3.425C390.328,233.448,390.042,233.162,389.472,233.162z"/>
			</g>
			<g>
				<path d="M388.615,241.724h-60.502c-0.571,0-0.856,0.285-0.856,0.856l0,0l4.281,63.641c0,0.571,0.286,0.856,0.856,0.856l0,0
					h51.94c0.571,0,0.856-0.285,0.856-0.856l0,0l4.281-63.641C389.472,242.009,389.186,241.724,388.615,241.724L388.615,241.724z
					 M343.81,298.231L343.81,298.231c-1.142,0-1.998-0.856-2.283-1.998l-2.283-43.379c0-1.142,0.856-2.283,1.998-2.283
					s2.283,0.856,2.283,1.998l0,0l2.568,43.094C346.092,297.089,345.236,298.231,343.81,298.231
					C344.095,298.231,344.095,298.231,343.81,298.231z M360.647,295.948c0,1.142-0.856,2.283-2.283,2.283
					c-1.427,0-2.283-0.856-2.283-2.283v-43.094c0-1.142,0.856-2.283,2.283-2.283c1.427,0,2.283,0.856,2.283,2.283V295.948z
					 M375.487,295.948c0,1.142-1.142,1.997-2.283,1.997l0,0c-1.141,0-1.998-1.141-1.998-2.282l2.568-43.094
					c0-1.142,1.142-1.998,2.283-1.998s1.998,1.142,1.998,2.283L375.487,295.948z"/>
			</g>
		</g>
		<g>
			<path d="M385.761,162.101V98.459c0-0.571-0.285-0.856-0.856-0.856l0,0h-52.511c-0.571,0-0.856,0.285-0.856,0.856l0,0v63.642
				h-20.263l47.66,47.659l47.66-47.659H385.761z"/>
		</g>
	</g>
	<g>
		<g>
			<g>
				<g>
					<path fill="#FFFFFF" d="M429.141,323.63h-4.852v-13.413h4.852V323.63z M429.141,298.516h-4.852v-13.413h4.852V298.516z
						 M429.141,273.402h-4.852v-13.698h4.852V273.402z"/>
				</g>
				<g>
					<path fill="#FFFFFF" d="M429.141,248.287h-4.852v-13.413h4.852V248.287z M429.141,223.173h-4.852V209.76h4.852V223.173z"/>
				</g>
			</g>
			<g>
				<g>
					<path fill="#FFFFFF" d="M429.141,198.06h-4.852v-13.414h4.852V198.06z M429.141,172.946h-4.852v-13.414h4.852V172.946z
						 M429.141,147.831h-4.852v-13.413h4.852V147.831z"/>
				</g>
				<g>
					<path fill="#FFFFFF" d="M429.141,123.002h-4.852v-13.413h4.852V123.002z M429.141,97.603h-4.852V84.19h4.852V97.603z"/>
				</g>
			</g>
		</g>
		<g>
			<g>
				<path fill="#FFFFFF" d="M535.876,121.004c-4.281-3.139-9.418-4.852-14.841-4.852c-1.142,0-2.283,0-3.71,0.286h-0.285
					c-6.564,1.427-12.557,5.137-16.268,10.845l-0.285,0.285c0,0.285-0.285,0.285-0.285,0.57c0,0.286,0,0.286,0,0.571v0.285
					c1.142,1.998,1.998,3.425,2.854,4.852c0.286,0.571,0.856,0.571,1.142,0.285c0,0,0.286,0,0.286-0.285v-0.285
					c5.992-8.276,10.559-9.418,13.698-9.988h0.285c0.571,0,1.142-0.286,1.998-0.286c3.71,0,7.42,1.142,10.273,3.425
					c3.996,3.14,5.993,7.991,5.708,13.128c0,9.988-4.852,13.698-8.847,15.126c-1.427,0.57-3.14,0.855-4.852,0.855
					c-2.568,0-5.138-0.57-7.421-1.712h-0.285c-3.425-1.427-8.562-4.566-13.413-14.27c-9.988-19.978-18.265-21.975-23.688-23.116
					h-0.285c-1.142-0.285-2.283-0.285-3.425-0.285c-5.422,0-10.559,1.712-14.555,4.852c-3.71,2.854-7.99,8.562-7.99,18.835
					c-0.571,11.986,8.847,22.261,20.833,22.546c0.57,0,0.856,0,1.427,0c1.713,0,3.425-0.285,5.137-0.57
					c3.14-0.571,5.993-1.998,8.563-3.996l2.854,2.568c0.285,0.286,0.856,0.286,1.142,0c0.285,0,0.285-0.285,0.285-0.57l2.283-13.698
					v-0.286c0-0.285,0-0.57-0.285-0.57c-0.571,0-0.856,0-1.142,0l0,0l-13.413,3.71h-0.286c-0.285,0-0.285,0-0.57,0.285
					s-0.285,0.285-0.285,0.571c0,0.285,0,0.57,0.285,0.57l2.854,2.568c-1.427,0.856-2.854,1.427-4.28,1.713
					c-1.142,0.285-2.283,0.285-3.71,0.285c-4.281,0-8.563-1.998-11.416-5.137l0,0c-2.283-2.854-3.425-6.564-3.139-10.56
					c-0.286-4.852,1.427-9.703,5.137-12.843c2.854-1.998,6.563-3.139,9.988-3.139c0.571,0,1.142,0,1.998,0h0.285
					c4.281,0.855,10.56,2.282,18.836,19.12c4.565,8.848,9.988,14.841,16.838,17.694c3.424,1.713,7.135,2.568,10.845,2.568
					c2.568,0,5.137-0.285,7.42-1.142c3.995-1.427,13.698-6.849,13.698-21.975C544.438,132.42,541.298,125.571,535.876,121.004z"/>
			</g>
			<g>
				<path fill="#FFFFFF" d="M471.093,242.58v63.641c0,0.571,0.285,0.856,0.855,0.856l0,0h52.227c0.57,0,0.856-0.285,0.856-0.856l0,0
					V242.58h20.262l-47.659-47.66l-47.375,47.66H471.093z"/>
			</g>
		</g>
	</g>
</g>
</svg>
