<?xml version="1.0" encoding="utf-8"?>
<!-- Generator: Adobe Illustrator 16.0.3, SVG Export Plug-In . SVG Version: 6.00 Build 0)  -->
<!DOCTYPE svg PUBLIC "-//W3C//DTD SVG 1.1//EN" "http://www.w3.org/Graphics/SVG/1.1/DTD/svg11.dtd" [
	<!ENTITY ns_extend "http://ns.adobe.com/Extensibility/1.0/">
	<!ENTITY ns_ai "http://ns.adobe.com/AdobeIllustrator/10.0/">
	<!ENTITY ns_graphs "http://ns.adobe.com/Graphs/1.0/">
	<!ENTITY ns_vars "http://ns.adobe.com/Variables/1.0/">
	<!ENTITY ns_imrep "http://ns.adobe.com/ImageReplacement/1.0/">
	<!ENTITY ns_sfw "http://ns.adobe.com/SaveForWeb/1.0/">
	<!ENTITY ns_custom "http://ns.adobe.com/GenericCustomNamespace/1.0/">
	<!ENTITY ns_adobe_xpath "http://ns.adobe.com/XPath/1.0/">
]>
<svg version="1.1" id="Layer_1" xmlns:x="&ns_extend;" xmlns:i="&ns_ai;" xmlns:graph="&ns_graphs;"
	 xmlns="http://www.w3.org/2000/svg" xmlns:xlink="http://www.w3.org/1999/xlink" x="0px" y="0px" width="301.719px"
	 height="301.719px" viewBox="275.981 76.384 301.719 301.719" enable-background="new 275.981 76.384 301.719 301.719"
	 xml:space="preserve">
<metadata>
	<sfw  xmlns="&ns_sfw;">
		<slices></slices>
		<sliceSourceBounds  width="301.719" height="301.719" y="122.397" x="275.481" bottomLeftOrigin="true"></sliceSourceBounds>
	</sfw>
</metadata>
<title>TARGET 1 B copy 9</title>
<g id="TARGETS">
	<g>
		<rect x="275.981" y="76.384" fill="#56C02B" width="301.719" height="301.719"/>
	</g>
	<g>
		<g>
			<path fill="#FFFFFF" d="M367.325,176.002c0.318,2.547,2.546,4.456,5.092,4.138h13.049c1.91,0.955,3.819,2.228,6.047,3.183
				c3.501,1.592,7.002,3.501,10.503,4.774c3.501,1.272,7.001,2.864,10.502,4.138l-4.456,91.024c0,0,0,0,0,0.318l0,0
				c0,0.637,0.318,0.955,0.955,0.955h25.462c0.318,0,0.637-0.318,0.955-0.637v-0.318v-0.318l-4.456-89.434
				c4.138-2.864,7.639-5.729,13.049-8.911c3.183-1.91,8.594-5.411,13.367-8.912l21.324-0.318c3.819,0,7.002-2.228,7.002-4.773
				s-3.183-4.774-7.002-4.774h-13.686c-0.318-1.591-1.592-2.864-2.864-3.501c-5.411-2.864-15.914-2.228-19.097,0.318
				c-0.954,0.955-1.591,1.91-2.228,3.183h-3.183c-3.819,0-7.002,2.229-7.002,4.774s3.183,4.773,7.002,4.773h10.503
				c-2.864,1.273-5.729,2.865-8.275,4.138c-5.092,2.546-10.185,5.093-15.276,7.957l-1.592-0.637l7.002-29.28h11.14
				c3.819-0.318,6.684-3.501,6.365-7.32c-0.318-3.501-2.864-6.047-6.365-6.365h-6.047c0.954-2.865-0.637-5.729-3.183-6.684
				c-6.048-3.183-18.142-2.547-21.324,0.317c-0.637,0.637-1.273,1.273-1.592,2.229c-5.41-0.955-12.094,0-14.322,1.909
				c-0.955,0.637-1.591,1.91-1.91,2.864h-6.365c-3.819-0.317-7.002,2.547-7.32,6.366c-0.318,3.818,2.546,7.002,6.365,7.319
				c0.318,0,0.637,0,0.955,0l17.505-0.317l17.823,13.049l-6.366,13.686c-3.819-1.273-7.639-2.229-11.776-3.183
				c-2.865-0.637-5.729-1.273-8.275-1.91h7.32c2.228,0.637,4.456-0.954,5.092-3.183c0.637-2.228-0.955-4.456-3.183-5.092
				c-0.636,0-1.273,0-1.91,0l0,0c0-1.592-0.955-3.183-2.546-4.138c-4.456-2.546-13.049-2.546-15.595,0
				c-0.637,0.318-0.955,0.955-1.273,1.591c-2.865-0.636-5.729-0.318-8.275,0.637c-0.636,0.637-0.955,1.273-1.273,2.229h-1.91
				C370.189,171.865,367.961,173.775,367.325,176.002z M428.114,158.18l-3.183,7.001l-13.686-7.001H428.114z"/>
		</g>
		<g>
			<path fill="#FFFFFF" d="M311.31,266.709c-0.318,3.501-0.955,14.004,1.273,17.823h3.501c-1.273-2.547-1.591-12.413-1.273-17.823
				c7.002,0,12.412-1.91,12.412-3.819s-6.047-3.819-13.686-3.819c-7.638,0-13.686,1.592-13.686,3.819
				S304.944,266.391,311.31,266.709z"/>
		</g>
		<g>
			<path fill="#FFFFFF" d="M339.954,271.801c0-1.591-3.183-3.183-7.639-3.183c-4.456,0-7.638,1.273-7.638,3.183
				c0,1.91,2.864,2.865,6.365,3.183c-0.318,3.184,0,6.366,0.955,9.549h2.228c-0.636-3.183-0.955-6.365-0.955-9.549
				C337.089,274.666,339.954,273.393,339.954,271.801z"/>
		</g>
		<g>
			<g>
				<polygon fill="#FFFFFF" points="369.553,284.532 365.733,260.344 365.415,284.532 				"/>
			</g>
			<g>
				<polygon fill="#FFFFFF" points="383.556,284.532 387.375,260.344 388.012,284.532 				"/>
			</g>
			<g>
				<polygon fill="#FFFFFF" points="354.594,284.532 360.004,284.532 355.23,255.57 				"/>
			</g>
			<g>
				<path fill="#FFFFFF" d="M364.142,252.069c0.636,1.273,4.456,0.955,7.957-1.273c1.273-0.636,2.228-1.591,3.183-2.546v0.637
					c0.318,3.501,0.318,3.501,0,10.821v24.825h1.591v-24.825c0-6.684,0-7.32,0-9.866c0.637,0.637,1.273,0.954,1.591,1.591
					c3.501,2.547,7.002,3.501,7.957,2.229c0.955-1.273-0.955-4.456-4.138-7.002c-0.318-0.318-0.955-0.637-1.273-0.955
					c0.318-0.318,0.636-0.318,0.955-0.637c3.819-2.228,6.047-5.092,5.092-6.365c-0.955-1.273-4.456-0.955-7.957,1.273l0,0
					c0,0,0-0.318,0-0.637c0.318-4.138-0.955-7.639-2.546-7.639c-1.592,0-3.183,3.183-3.501,7.32c0,0.318,0,0.637,0,0.955
					l-0.637-0.637c-3.501-2.546-7.002-3.501-7.957-2.228c-0.955,1.272,0.955,4.455,4.137,7.001c0.318,0.318,0.955,0.637,1.273,0.955
					l-0.955,0.637C365.733,247.613,363.505,250.478,364.142,252.069z M374.645,244.112c0-0.954,0.636-1.591,1.591-1.591l0,0
					c0.955,0,1.591,0.955,1.591,1.591c0,0.955-0.955,1.592-1.591,1.592C374.963,245.703,374.327,245.067,374.645,244.112z"/>
			</g>
		</g>
		<g>
			<path fill="#FFFFFF" d="M554.467,261.616l-16.55,2.864l-1.273-1.591c2.546-1.592,4.456-3.819,6.365-6.047
				c0,0-7.639,1.909-10.185-0.318l-5.092-7.639c1.272-1.909,1.272-4.138,0.317-6.047c-0.636-0.955-1.909-1.592-2.228-0.637
				c0,0,0,0.318,0,0.637c-0.318,0.955-1.272,1.909-2.546,2.228c0-0.955-0.637-1.591-0.955-2.546
				c-0.637-0.637-2.228-1.273-2.228-0.318c0,0.318,0,0.318,0,0.637s-0.318,0.955-0.637,1.272l-6.365-2.864
				c-2.864-2.228-6.684-3.819-10.503-4.138c-0.955,0-1.909,0-2.864,0c-3.819,0.637-7.639,1.273-11.776,1.592l-18.777,0.637
				c0,0-15.914,0.318-16.232,8.593l-0.636,25.78c3.183,2.228,1.591-3.183,1.272-5.093c0.318-2.546,0.955-5.41,1.91-7.638
				l4.137,23.87h10.503c0-2.547-1.591-4.774-4.137-5.729l1.591-7.639l4.456-2.864c5.729,2.547,12.412,2.864,18.142,0.637
				l3.818,15.277h12.731c-0.318-4.774-7.32-5.729-7.32-5.729l3.183-12.73l2.546-0.637l1.91-0.318c0.317,0,0.317,0,0.636-0.318
				c1.91-0.954,3.501-1.909,5.411-3.183c2.228,3.183,5.092,6.048,8.274,8.594l8.594,3.819c0.955,0.636,2.228,0.636,3.183,0
				l1.273-0.955c0.954,0,1.909-0.318,2.864-0.637c0.637-0.637,1.272-1.272,1.909-2.228
				C544.282,269.892,554.467,261.616,554.467,261.616z"/>
		</g>
		<g>
			<g>
				<path fill="#FFFFFF" d="M332.633,205.283c0.955,2.546,2.228,4.773,4.138,6.365c3.183,3.183,6.365,4.774,7.638,3.819
					c1.273-0.955,0-2.546-1.91-4.774c2.546,0.637,4.774,0.637,5.092-0.318c0.318-0.954-2.546-3.501-6.365-5.41
					c-2.228-1.273-5.092-1.592-7.638-1.273c0-0.318,0.318-0.637,0.318-1.272c0-0.637,0-1.273,0-1.91s-0.318-1.272-0.318-1.909
					l-0.637-0.318c-0.637,0-1.273,0.318-1.91,0.637s-0.955,0.636-1.591,0.954l-0.955,0.637c-0.955-2.546-2.546-4.773-4.774-6.365
					c-3.501-2.864-7.002-4.456-7.638-3.183c-0.637,1.273,0.318,2.546,1.91,4.774c-2.865-0.637-4.774-0.318-5.092,0.636
					c-0.318,0.955,2.546,3.501,7.002,4.774c2.546,0.955,5.092,1.273,7.638,0.955L332.633,205.283z"/>
			</g>
			<g>
				<path fill="#FFFFFF" d="M331.36,206.874l-4.774-2.864c-0.318,0.637-0.318,1.273-0.637,1.91l4.138,2.546
					C330.405,207.829,331.042,207.511,331.36,206.874z"/>
			</g>
			<g>
				<polygon fill="#FFFFFF" points="328.814,210.057 325.313,207.829 324.677,209.739 327.223,211.33 				"/>
			</g>
			<g>
				<path fill="#FFFFFF" d="M325.631,212.922l-1.591-0.955c-0.318,0.955-0.636,1.591-0.636,2.546l0.636,0.318L325.631,212.922z"/>
			</g>
		</g>
		<g>
			<g>
				<path fill="#FFFFFF" d="M325.631,108.211c-7.957,0-14.322,6.365-14.322,14.322s6.365,14.322,14.322,14.322
					c7.957,0,14.322-6.365,14.322-14.322S333.588,108.211,325.631,108.211L325.631,108.211z"/>
			</g>
			<g>
				<path fill="#FFFFFF" d="M301.761,123.807h6.365c0.637,0,0.955-0.637,1.273-1.273c0-0.637-0.637-1.273-1.273-1.273h-6.365
					c-0.636,0-0.955,0.637-0.955,1.273S301.125,123.807,301.761,123.807z"/>
			</g>
			<g>
				<path fill="#FFFFFF" d="M341.863,122.533c0,0.637,0.636,1.273,1.273,1.273h6.365c0.637,0,0.955-0.637,0.955-1.273
					s-0.318-0.955-0.955-1.273h-6.365C342.5,121.26,342.182,121.897,341.863,122.533z"/>
			</g>
			<g>
				<path fill="#FFFFFF" d="M325.631,105.984c0.637,0,1.273-0.318,1.273-0.955v-6.365c0-0.637-0.636-0.955-1.273-0.955
					c-0.636,0-0.955,0.318-0.955,0.955v6.365C324.358,105.665,324.995,105.984,325.631,105.984z"/>
			</g>
			<g>
				<path fill="#FFFFFF" d="M325.631,138.765c-0.636,0-1.273,0.637-1.273,0.955v6.365c0,0.637,0.637,0.955,1.273,0.955
					c0.637,0,0.955-0.318,0.955-0.955v-6.365C326.904,139.402,326.268,139.083,325.631,138.765z"/>
			</g>
			<g>
				<path fill="#FFFFFF" d="M304.308,111.712l5.41,3.183c0.637,0.318,1.273,0,1.592-0.637c0.318-0.636,0-1.272-0.318-1.591
					l-5.411-3.183c-0.637-0.318-1.273,0-1.591,0.637C303.671,110.757,303.989,111.394,304.308,111.712z"/>
			</g>
			<g>
				<path fill="#FFFFFF" d="M340.272,132.081l5.411,3.183c0.636,0.318,1.273,0,1.591-0.637c0.318-0.636,0-1.272-0.318-1.591
					l-5.411-3.183c-0.637-0.318-1.273,0-1.591,0.318C339.635,131.126,339.635,131.763,340.272,132.081z"/>
			</g>
			<g>
				<path fill="#FFFFFF" d="M335.18,107.893l3.183-5.41c0.318-0.637,0-1.273-0.318-1.592c-0.637-0.318-1.273,0-1.591,0.318
					l-3.183,5.411c-0.318,0.636,0,1.272,0.636,1.591C334.543,108.53,334.861,108.211,335.18,107.893L335.18,107.893z"/>
			</g>
			<g>
				<path fill="#FFFFFF" d="M316.083,137.174l-3.183,5.41c-0.318,0.637,0,1.273,0.636,1.592c0.637,0.318,1.273,0,1.591-0.318
					l3.183-5.411c0.318-0.637,0-1.272-0.318-1.591C317.038,136.537,316.402,136.537,316.083,137.174z"/>
			</g>
			<g>
				<path fill="#FFFFFF" d="M315.765,107.893c0.318,0.637,0.955,0.637,1.591,0.318s0.637-0.955,0.318-1.591l-3.183-5.411
					c-0.318-0.637-0.955-0.637-1.591-0.318c-0.637,0.318-0.637,0.955-0.318,1.592L315.765,107.893z"/>
			</g>
			<g>
				<path fill="#FFFFFF" d="M333.906,136.856c-0.636,0.318-0.636,0.954-0.318,1.591l3.183,5.411
					c0.318,0.637,0.955,0.637,1.591,0.318c0.636-0.318,0.636-0.955,0.318-1.592l-3.183-5.41
					C335.18,136.856,334.543,136.537,333.906,136.856z"/>
			</g>
			<g>
				<path fill="#FFFFFF" d="M341.227,114.895l5.411-3.183c0.637-0.318,0.637-0.955,0.318-1.591
					c-0.318-0.637-0.955-0.637-1.591-0.318l-5.411,3.183c-0.637,0.318-0.637,0.954-0.318,1.591
					C340.272,114.895,340.908,114.895,341.227,114.895z"/>
			</g>
			<g>
				<path fill="#FFFFFF" d="M310.036,130.172l-5.41,3.183c-0.637,0.318-0.637,0.955-0.318,1.591
					c0.318,0.637,0.955,0.637,1.591,0.318l5.411-3.183c0.636-0.318,0.636-0.955,0.318-1.591
					C311.31,130.172,310.673,130.172,310.036,130.172z"/>
			</g>
		</g>
		<g>
			<path fill="#FFFFFF" d="M553.83,333.227h-0.318l-0.637,0.318c-7.956,4.138-33.1,13.686-55.696-7.957
				c-0.318-0.318-0.955-0.636-1.273-0.636s-0.955,0.317-1.273,0.636c-6.684,5.093-37.874,26.099-65.563,0.318l-0.317-0.318
				c-0.318-0.318-0.637-0.318-1.273-0.318c-0.318,0-0.637,0.318-0.955,0.318l-0.318,0.318c-27.689,25.78-58.879,4.774-65.563-0.318
				c-0.318-0.318-0.637-0.636-1.273-0.636c-0.637,0-0.955,0.317-1.273,0.636c-22.597,21.643-47.74,11.776-55.697,7.957l-0.637-0.318
				h-0.318c-0.955,0-1.591,0.637-1.591,1.592v10.821c0,0.317,0.318,0.636,0.318,0.954c26.098,22.916,51.241,1.592,56.97-4.137
				c0.318-0.318,0.318-0.318,0.636-0.637c0.318,0,0.318-0.318,0.637-0.318s0.955,0.318,0.955,0.637
				c29.599,28.325,60.789,5.41,67.154,0l0.637-0.637c0.318,0,0.318-0.318,0.637-0.318s0.318,0,0.637,0.318l0.636,0.637
				c6.366,5.41,37.556,28.325,67.155,0l0,0c0.318-0.318,0.637-0.318,0.955-0.318c0.317,0,0.636,0,0.954,0.318
				c0.318,0,0.318,0.318,0.318,0.318c5.729,5.729,30.554,27.053,56.652,4.137c0.318-0.318,0.318-0.637,0.636-0.954v-10.821
				C555.421,334.182,554.785,333.545,553.83,333.227"/>
		</g>
		<g>
			<path fill="#FFFFFF" d="M300.807,296.945h253.342c0.955,0,1.909,0.955,1.909,1.909v11.458c0,0.955-0.954,1.909-1.909,1.909
				H300.807c-0.955,0-1.91-0.954-1.91-1.909v-11.458C298.897,297.899,299.852,296.945,300.807,296.945z"/>
		</g>
		<g>
			<path fill="#FFFFFF" d="M527.414,144.812c-3.819-3.501-8.594-5.729-14.004-6.365c-4.774-0.637-9.866,0.955-13.367,4.456
				c-0.955,0.637-2.229,2.546-0.955,3.501c0.637,0.318,1.909,0,2.864-0.637c2.229-0.955,4.456-0.955,6.684-0.637
				c6.365,0.637,12.413,3.501,16.55,8.594h0.318c0.318,0.318,0.955,0.637,1.273,0.637c0.637,0,1.272-0.318,1.591-0.637
				c4.774-4.138,11.14-6.365,17.505-5.729c2.229,0,4.456,0.636,6.684,1.909c0.637,0.637,1.91,0.955,2.864,0.637
				c0.955-0.637,0.637-2.229,0-3.183c-3.183-4.138-7.956-6.365-13.049-6.684C536.962,140.357,531.869,141.948,527.414,144.812z"/>
		</g>
		<g>
			<path fill="#FFFFFF" d="M484.447,107.893c-3.819-1.591-8.274-1.909-12.094-0.954c-3.819,0.954-7.002,3.818-8.912,7.319
				c-0.318,0.637-0.954,2.547,0.318,2.865c1.273,0.317,1.273-0.637,2.229-1.273c1.272-1.273,2.864-2.228,4.773-2.546
				c5.093-1.273,10.185-0.955,14.641,1.591l0,0c0.318,0,0.955,0,1.273,0c0.636,0,0.954-0.955,0.954-0.955
				c2.547-4.455,6.684-7.956,11.458-9.548c1.591-0.637,3.501-0.637,5.41-0.637c0.637,0.318,1.592,0.318,2.229-0.317
				c0.636-0.637-0.318-1.91-0.955-2.229c-3.501-1.909-7.639-2.546-11.776-1.272C490.177,101.846,486.993,104.392,484.447,107.893z"
				/>
		</g>
	</g>
</g>
</svg>
