<?xml version="1.0" encoding="utf-8"?>
<!-- Generator: Adobe Illustrator 16.0.3, SVG Export Plug-In . SVG Version: 6.00 Build 0)  -->
<!DOCTYPE svg PUBLIC "-//W3C//DTD SVG 1.1//EN" "http://www.w3.org/Graphics/SVG/1.1/DTD/svg11.dtd" [
	<!ENTITY ns_extend "http://ns.adobe.com/Extensibility/1.0/">
	<!ENTITY ns_ai "http://ns.adobe.com/AdobeIllustrator/10.0/">
	<!ENTITY ns_graphs "http://ns.adobe.com/Graphs/1.0/">
	<!ENTITY ns_vars "http://ns.adobe.com/Variables/1.0/">
	<!ENTITY ns_imrep "http://ns.adobe.com/ImageReplacement/1.0/">
	<!ENTITY ns_sfw "http://ns.adobe.com/SaveForWeb/1.0/">
	<!ENTITY ns_custom "http://ns.adobe.com/GenericCustomNamespace/1.0/">
	<!ENTITY ns_adobe_xpath "http://ns.adobe.com/XPath/1.0/">
]>
<svg version="1.1" id="Layer_1" xmlns:x="&ns_extend;" xmlns:i="&ns_ai;" xmlns:graph="&ns_graphs;"
	 xmlns="http://www.w3.org/2000/svg" xmlns:xlink="http://www.w3.org/1999/xlink" x="0px" y="0px" width="301.719px"
	 height="301.719px" viewBox="275.981 76.384 301.719 301.719" enable-background="new 275.981 76.384 301.719 301.719"
	 xml:space="preserve">
<metadata>
	<sfw  xmlns="&ns_sfw;">
		<slices></slices>
		<sliceSourceBounds  width="301.719" height="301.719" x="275.481" y="122.397" bottomLeftOrigin="true"></sliceSourceBounds>
	</sfw>
</metadata>
<title>TARGET 1.5</title>
<g id="TARGETS">
	<g>
		<rect x="275.981" y="76.384" fill="#C5192D" width="301.719" height="301.719"/>
	</g>
	<g>
		<g>
			<g>
				<polygon fill="#FFFFFF" points="413.792,140.675 366.688,113.304 366.688,201.782 413.792,216.105 				"/>
			</g>
			<g>
				<polygon fill="#FFFFFF" points="419.203,140.993 419.203,216.105 466.624,201.782 466.624,113.304 				"/>
			</g>
			<g>
				<path fill="#FFFFFF" d="M503.862,111.394c0-3.183-2.547-5.729-5.729-5.729s-5.729,2.546-5.729,5.729v6.047h11.14v-6.047H503.862
					z"/>
			</g>
			<g>
				<polygon fill="#FFFFFF" points="493.995,200.191 492.723,200.191 498.451,219.923 503.862,200.191 502.589,200.191 
					503.862,200.191 503.862,121.578 502.589,121.578 500.997,121.578 499.725,121.578 496.86,121.578 495.587,121.578 
					493.995,121.578 492.723,121.578 492.723,200.191 				"/>
			</g>
			<g>
				<polygon fill="#FFFFFF" points="476.81,117.123 471.717,113.304 471.717,204.328 419.203,221.197 416.656,221.197 
					416.338,221.197 413.792,221.197 361.596,206.556 361.596,113.304 356.503,117.123 356.503,210.057 413.474,225.971 
					416.338,225.971 416.656,225.971 419.521,225.971 472.354,209.421 476.81,207.829 				"/>
			</g>
		</g>
		<g>
			<g>
				<g>
					<path fill="#FFFFFF" d="M545.873,302.673c0,0-1.272-4.774-5.41-4.774h-14.959c-0.954,0-2.228-0.636-2.864-1.272
						c-1.273-1.273-5.729-8.911-5.729-8.911l-2.229-3.501c-0.636-0.955-1.591-1.592-2.864-1.592c-1.909,0-3.183,1.273-3.183,3.183
						c0,0.637,0,0.955,0.318,1.273l11.14,20.051c0.318,0.637,0.637,1.272,0.637,2.228v2.228c0,0.637,0,1.273-0.318,1.91
						l-4.456,16.55h4.774v14.322l0,0c0,2.546,1.909,4.456,4.455,4.456c2.547,0,4.456-1.91,4.456-4.456l0,0v-13.686
						c0-0.318,0-0.318,0-0.637h2.546c0,0.318,0,0.318,0,0.637v13.686c0,1.909,1.273,3.819,2.864,4.456
						c2.229,0.954,4.774-0.318,5.729-2.865c0.318-0.317,0.318-0.954,0.318-1.591v-14.322h4.773l-6.365-22.597
						c0,0-0.318-1.273,0.637-1.273s0.955,0.955,0.955,0.955l5.41,16.55c0.318,1.591,1.91,2.546,3.819,2.228
						c2.864-0.637,1.909-3.819,1.909-3.819L545.873,302.673z"/>
				</g>
				<g>
					<path fill="#FFFFFF" d="M532.506,293.762c5.093,0,8.912-4.138,8.912-8.911c0-5.093-4.138-8.912-8.912-8.912
						c-5.092,0-8.911,4.138-8.911,8.912l0,0C523.276,289.943,527.414,293.762,532.506,293.762z"/>
				</g>
			</g>
			<g>
				<g>
					<path fill="#FFFFFF" d="M323.404,293.444c4.774,0,8.911-3.819,8.911-8.911c0-4.774-3.819-8.912-8.911-8.912
						c-4.774,0-8.912,3.819-8.912,8.912l0,0C314.492,289.624,318.629,293.444,323.404,293.444z"/>
				</g>
				<g>
					<path fill="#FFFFFF" d="M344.728,319.223c0-0.318-2.546-6.684-3.501-8.593c-5.411-13.686-6.365-13.686-11.139-13.686H316.72
						c-4.774,0-5.729,0-11.139,13.686c-0.637,1.909-3.819,9.548-4.138,9.866c-0.318,0.318-1.273,3.183,1.591,4.138
						c2.865,0.954,3.819-2.229,3.819-2.229l5.411-13.367c0,0,0-0.318,0.318-0.318s0.318,0.318,0.318,0.318v35.01l0,0
						c0,2.546,1.91,4.774,4.456,4.774c0,0,0,0,0.318,0c2.546,0,4.456-1.91,4.456-4.456c0,0,0,0,0-0.318v-14.004
						c0,0,0-2.228,1.273-2.228c1.273,0,1.273,2.228,1.273,2.228v14.004c0,2.546,1.91,4.774,4.456,4.774c0,0,0,0,0.318,0
						c2.546,0,4.456-1.91,4.456-4.456v-0.318l0,0v-35.01c0-0.318,0-0.318,0-0.318l0.318,0.318l5.092,12.095
						c0,0,1.591,3.183,4.138,1.909C346,321.77,344.728,319.223,344.728,319.223z"/>
				</g>
			</g>
			<g>
				<g>
					<path fill="#FFFFFF" d="M444.027,316.677c-0.955-1.591-2.546-2.546-4.456-2.228h-8.593v-13.686
						c0-3.183-2.546-5.729-5.729-5.729h-2.547c-0.318,0-0.954,0-1.272,0l0,0c-0.318,0-0.637,0-0.955,0.317l-11.776,3.819l0,0h-0.318
						l0,0c-0.637,0.318-0.955,0.955-1.273,1.592l-3.501,10.185c-0.637,1.591,0.318,3.501,1.91,4.137
						c1.591,0.637,3.5-0.317,4.137-1.909l3.183-8.593l4.774-1.592l0,0v16.231c0,0.955,0.318,1.592,0.636,2.547
						c0.955,1.909,2.865,3.183,4.774,3.183h16.55l7.32,12.412c1.273,1.909,3.819,2.864,5.729,1.591h0.317
						c1.91-1.272,2.865-3.818,1.592-5.729L444.027,316.677z"/>
				</g>
				<g>
					<path fill="#FFFFFF" d="M437.344,331.954h-4.774c-2.228,7.638-10.185,12.412-17.823,10.185
						c-6.047-1.592-10.503-7.002-10.821-13.367c0-2.229,0.636-4.774,1.591-6.685l-0.318-0.317l-0.318-0.318l-3.183-1.91
						l-0.318-0.318l-0.318-0.318c-1.591,2.865-2.546,6.366-2.546,9.549c0,11.139,9.229,20.369,20.369,20.051
						c9.867,0,18.141-7.32,19.733-16.868L437.344,331.954L437.344,331.954z"/>
				</g>
				<g>
					<path fill="#FFFFFF" d="M424.613,292.17c4.773,0,8.274-3.818,8.274-8.274c0-4.774-3.819-8.275-8.274-8.275
						c-4.774,0-8.275,3.819-8.275,8.275l0,0C416.338,288.669,419.839,292.17,424.613,292.17z"/>
				</g>
			</g>
			<g>
				<g>
					<path fill="#FFFFFF" d="M381.01,278.167h-17.505c-5.092,0.636-9.23,4.773-9.23,10.185v21.005
						c0.318,1.592,1.592,2.864,3.183,2.546c1.273,0,2.546-1.272,2.546-2.546v-18.141c0-0.637,0.318-1.592,1.591-1.592
						c1.273,0,0.955,0.955,0.955,1.592v53.787c0,2.228,1.91,4.138,4.137,4.138c2.228,0,4.138-1.91,4.138-4.138v-31.19
						c0-0.637,0.318-1.273,0.955-1.273l0,0l0,0c0.637,0,1.273,0.318,1.273,0.955l0,0v31.19c0.318,2.228,2.228,4.138,4.456,3.819
						c1.91-0.318,3.819-1.91,3.819-3.819v-53.469c0-0.637,0.318-1.592,0.955-1.592s1.591,0.955,1.591,1.592v18.141
						c0.318,1.592,1.591,2.864,3.183,2.546c1.273,0,2.546-1.272,2.546-2.546v-21.005C390.24,283.259,386.421,278.803,381.01,278.167
						z"/>
				</g>
				<g>
					<g>
						<path fill="#FFFFFF" d="M364.46,258.434c0-1.272-1.273-2.546-4.138-1.272c-3.183,1.591-2.864,6.365-2.864,6.365
							s0,0.637,0.318,0.637c0.318-0.637,0.955-1.91,3.819-2.229c0.637,0,0.955-0.318,1.273-0.318
							c0.318-0.954,0.955-1.591,1.591-2.228C364.46,259.071,364.46,258.752,364.46,258.434z"/>
					</g>
					<g>
						<path fill="#FFFFFF" d="M383.875,257.161c-2.546-1.273-3.819,0.318-4.137,1.272c0,0.318,0,0.318,0,0.637
							c0.636,0.637,0.955,1.273,1.591,2.228c0.318,0.318,0.955,0.318,1.591,0.637c2.546,0.318,3.501,1.592,3.819,2.229
							c0,0.317,0,0,0.318-0.637C387.375,262.89,387.057,258.752,383.875,257.161z"/>
					</g>
					<g>
						<path fill="#FFFFFF" d="M372.099,257.161c-5.092,0-8.912,4.137-8.912,8.911s4.138,8.911,8.912,8.911
							c5.092,0,8.912-4.137,8.912-8.911S377.191,257.161,372.099,257.161L372.099,257.161z"/>
					</g>
				</g>
			</g>
			<g>
				<g>
					<path fill="#FFFFFF" d="M487.948,275.302h-18.777c-5.411,0.637-9.23,5.093-9.23,10.503v21.643
						c0.637,1.591,2.229,2.546,4.138,2.228c0.955-0.318,1.91-0.955,2.229-2.228v-18.778c0-0.636,0.317-1.591,1.591-1.591
						s0.955,0.955,0.955,1.591v56.016c0.318,2.546,2.228,4.138,4.773,4.138c2.229-0.318,3.819-1.91,4.138-4.138v-32.146
						c0-0.637,0.318-1.272,0.955-1.272c0,0,0,0,0.318,0l0,0c0.637,0,1.272,0.317,1.272,0.954c0,0,0,0,0,0.318v32.146
						c0.318,2.546,2.229,4.138,4.774,4.138c2.228-0.318,3.819-1.91,4.138-4.138v-56.016c0-0.636,0.318-1.591,0.955-1.591
						c0.636,0,1.591,0.955,1.591,1.591v18.778c0.637,1.591,2.228,2.546,4.138,2.228c0.955-0.318,1.909-0.955,2.228-2.228v-21.643
						C497.179,280.395,493.041,275.939,487.948,275.302z"/>
				</g>
				<g>
					<g>
						<path fill="#FFFFFF" d="M484.447,262.253c-0.637-0.637-1.272-1.272-2.546-0.637c-1.273,0.637-0.955,0.637-2.228,0.955
							c-1.91,0.637-3.819,1.273-5.729,1.592c-1.591,0.318-2.864,0.318-4.455,0.318c0.318,4.773,4.773,8.593,9.548,7.956
							c4.138-0.318,7.639-3.501,7.956-7.956C486.357,263.845,485.402,263.208,484.447,262.253z"/>
					</g>
					<g>
						<path fill="#FFFFFF" d="M473.626,262.253c1.91-0.318,3.501-0.637,5.093-1.272c1.591-0.637,2.864-1.273,2.864-1.273
							c0.637-0.318,1.273-0.318,1.91-0.318c0.317,0,0.636,0.318,0.636,0.637l0.637,0.637c0.637,0.636,1.592,1.272,2.546,1.909
							c0.318,0.318,0.318,0.318,0.637,0.318s0.318-1.592,0.318-2.228c-0.318-2.229-1.273-4.456-2.864-6.366
							c-0.318,0-0.955-0.954-1.909-0.636c-0.955,0.318-2.229-0.637-2.547-0.955c-2.228-0.637-4.773-0.318-7.002,0.955
							c-2.864,1.909-4.773,4.773-6.047,7.956c-0.318,0.637,0.955,0.955,1.592,0.955
							C470.762,262.572,472.354,262.572,473.626,262.253z"/>
					</g>
				</g>
			</g>
		</g>
	</g>
</g>
</svg>
