<?xml version="1.0" encoding="utf-8"?>
<!-- Generator: Adobe Illustrator 16.0.3, SVG Export Plug-In . SVG Version: 6.00 Build 0)  -->
<!DOCTYPE svg PUBLIC "-//W3C//DTD SVG 1.1//EN" "http://www.w3.org/Graphics/SVG/1.1/DTD/svg11.dtd" [
	<!ENTITY ns_extend "http://ns.adobe.com/Extensibility/1.0/">
	<!ENTITY ns_ai "http://ns.adobe.com/AdobeIllustrator/10.0/">
	<!ENTITY ns_graphs "http://ns.adobe.com/Graphs/1.0/">
	<!ENTITY ns_vars "http://ns.adobe.com/Variables/1.0/">
	<!ENTITY ns_imrep "http://ns.adobe.com/ImageReplacement/1.0/">
	<!ENTITY ns_sfw "http://ns.adobe.com/SaveForWeb/1.0/">
	<!ENTITY ns_custom "http://ns.adobe.com/GenericCustomNamespace/1.0/">
	<!ENTITY ns_adobe_xpath "http://ns.adobe.com/XPath/1.0/">
]>
<svg version="1.1" id="Layer_1" xmlns:x="&ns_extend;" xmlns:i="&ns_ai;" xmlns:graph="&ns_graphs;"
	 xmlns="http://www.w3.org/2000/svg" xmlns:xlink="http://www.w3.org/1999/xlink" x="0px" y="0px" width="285.199px"
	 height="285.198px" viewBox="284.25 72.202 285.199 285.198" enable-background="new 284.25 72.202 285.199 285.198"
	 xml:space="preserve">
<metadata>
	<sfw  xmlns="&ns_sfw;">
		<slices></slices>
		<sliceSourceBounds  width="285.199" height="285.198" y="143.1" x="283.75" bottomLeftOrigin="true"></sliceSourceBounds>
	</sfw>
</metadata>
<title>TARGET 1 B copy 4</title>
<g id="TARGETS">
	<g>
		<rect x="284.25" y="72.202" fill="#FD6925" width="285.199" height="285.198"/>
	</g>
	<g>
		<path fill="#FFFFFF" d="M549.593,165.463L549.593,165.463L549.593,165.463l-15.343-11.432l0,0l0,0c0,0-0.301-0.301-0.602-0.301
			s-0.602,0.301-0.602,0.602l0,0l0,0v9.326h-18.652c-1.203-6.318-6.017-11.433-12.334-12.636v-28.58h9.024
			c0.302,0,0.603-0.301,0.603-0.602l0,0c0-0.301,0-0.301-0.301-0.602l0,0l-12.034-15.343l0,0c-0.301,0-0.301-0.301-0.602-0.301
			s-0.301,0-0.602,0.301l0,0l0,0l-11.433,15.343l0,0l0,0c0,0-0.301,0.301-0.301,0.602s0.301,0.602,0.603,0.602h9.024v28.58
			c-7.22,1.504-12.635,7.822-12.635,15.343c0,3.911,1.504,7.521,3.911,10.53l-36.402,22.863v-22.863
			c0-0.603-0.301-1.204-0.902-1.505l-24.067-13.839c-0.602-0.301-1.203-0.301-1.504,0l-24.068,13.839
			c-0.602,0.301-0.902,0.902-0.902,1.505v21.359l-38.809-24.368c2.105-2.708,3.008-6.017,3.008-9.326
			c0-2.105-0.301-4.212-1.204-6.017l47.232-30.085l5.415,6.92l0,0c0.301,0.301,0.602,0.301,0.902,0l0.301-0.301l0,0l4.813-18.953
			v-0.301c0-0.301,0-0.301-0.301-0.602c0-0.301-0.301-0.301-0.602-0.301h-0.301l-19.254,0.301l0,0c-0.301,0-0.301,0-0.602,0
			c-0.301,0.301-0.301,0.602,0,0.902l0,0l0,0l0.301,0.301l5.415,6.919l-46.63,29.483c-2.106-2.407-5.114-3.911-8.424-4.513v-24.971
			h9.025c0.301,0,0.602-0.301,0.602-0.602l0,0c0-0.301,0-0.301,0-0.602l0,0l-12.034-15.343h-0.301c-0.301,0-0.301-0.301-0.602-0.301
			s-0.301,0-0.602,0.301l0,0l0,0l-11.733,15.343l0,0l0,0c0,0-0.301,0.301-0.301,0.602s0.301,0.602,0.602,0.602h9.025v25.572
			c-6.919,1.504-12.335,7.521-12.636,14.741l-14.44-10.83l0,0l0,0c0,0-0.301-0.302-0.602-0.302s-0.602,0.302-0.602,0.603l0,0l0,0
			v9.326h-13.538v6.017h14.44v8.725c0,0.301,0.301,0.602,0.602,0.602c0.301,0,0.301,0,0.301,0l0,0l14.44-11.433
			c0.902,6.619,6.017,12.034,12.334,13.237v15.644c-6.017,1.806-9.627,8.123-8.123,14.14c1.805,6.018,8.123,9.627,14.14,8.123
			c6.017-1.504,9.627-8.123,8.123-14.14c-1.204-3.911-4.212-6.919-8.123-8.123v-15.644c1.805-0.301,3.31-0.902,4.813-1.805
			l42.118,26.474l-22.262,12.636c-0.602,0.301-0.903,0.902-0.903,1.504v27.979c0,0.602,0.301,1.203,0.903,1.504l24.067,13.839
			c0.301,0,0.602,0.301,0.902,0.301s0.602,0,0.902-0.301L421.735,250v43.622c-6.017,1.203-10.831,6.017-12.334,12.033h-36.703
			v-8.725c0-0.301-0.301-0.602-0.902-0.602h-0.301l0,0l-15.343,11.733v0.301c0,0.301-0.301,0.301-0.301,0.602s0,0.301,0.301,0.602
			l0,0l0,0l15.343,11.432l0,0l0,0c0,0,0.301,0.301,0.602,0.301s0.602-0.301,0.602-0.602l0,0l0,0v-9.326h37.305
			c1.504,8.424,9.326,14.44,18.05,12.937c6.619-1.203,11.733-6.017,12.937-12.636h60.771v9.025c0,0.301,0.301,0.602,0.602,0.602
			c0,0,0.301,0,0.602,0l0,0l15.343-11.732v-0.301c0.301,0,0.301-0.301,0.301-0.602s0-0.301-0.301-0.602l0,0l0,0l-15.042-11.733l0,0
			l0,0c-0.301-0.301-0.602-0.301-0.902,0l-0.301,0.301l0,0l0,0v9.025h-56.258l33.093-18.351l4.813,7.821v0.301
			c0.301,0.301,0.602,0.301,0.902,0.301l0.301-0.301v-0.301l6.618-18.352l0,0c0-0.301,0-0.301,0-0.602l-0.301-0.301l0,0h-0.301
			l-19.254-1.504l0,0c-0.301,0-0.301,0-0.602,0c-0.301,0.301-0.301,0.602-0.301,0.902l0,0l0,0l0.301,0.301l4.513,7.221
			l-36.401,20.156c-2.106-4.513-6.318-8.123-11.433-9.025V250l21.06,11.732c0.301,0,0.602,0.301,0.902,0.301s0.602,0,0.902-0.301
			l24.067-13.839c0.602-0.301,0.902-0.902,0.902-1.504v-27.979c0-0.602-0.301-1.203-0.902-1.504l-20.758-12.034l38.508-24.368
			c2.105,0.902,4.212,1.505,6.618,1.505c7.521,0,13.839-5.114,15.343-12.335h18.352v9.025c0,0.301,0.301,0.602,0.602,0.602l0,0
			c0,0,0.301,0,0.602,0l0,0l15.343-12.033l0,0c0-0.302,0.301-0.302,0.301-0.603C549.593,166.065,549.593,165.764,549.593,165.463z
			 M353.745,206.378c0,3.008-2.407,5.415-5.416,5.415c-3.008,0-5.415-2.407-5.415-5.415c0-2.708,1.805-4.813,4.212-5.415h2.407
			C351.94,201.565,353.745,203.67,353.745,206.378z M348.33,173.887c-5.415,0-9.627-4.212-9.627-9.627s4.212-9.627,9.627-9.627
			c5.416,0,9.627,4.212,9.627,9.627l0,0C357.957,169.675,353.745,173.887,348.33,173.887L348.33,173.887z M399.473,257.521
			l-21.059-12.033v-24.368l21.059,12.033V257.521z M447.908,179.302v22.263h-0.301l-19.254-11.132L447.908,179.302z
			 M402.782,179.302l19.555,11.131l-18.05,10.229l-1.504-0.902V179.302z M423.841,193.141v22.263l-19.554-11.132l0,0
			L423.841,193.141z M402.782,257.521v-22.563l19.555,11.131L402.782,257.521z M404.287,232.25l19.554-11.131v22.563L404.287,232.25
			z M434.973,308.965c0,5.415-4.212,9.627-9.627,9.627c-5.416,0-9.627-4.212-9.627-9.627s4.212-9.627,9.627-9.627
			C430.46,299.338,434.973,303.55,434.973,308.965L434.973,308.965L434.973,308.965z M426.85,215.704v-22.563l19.555,11.131
			L426.85,215.704z M471.976,245.488l-21.059,12.033v-24.368l21.059-12.033V245.488z M470.472,218.411l-21.059,12.034l-21.06-12.034
			l21.06-12.033l0.902,0.602v0.301l0,0L470.472,218.411z M499.052,175.992c-5.415,0-9.627-4.212-9.627-9.627
			s4.212-9.627,9.627-9.627s9.627,4.212,9.627,9.627l0,0C508.679,171.48,504.166,175.992,499.052,175.992L499.052,175.992z"/>
	</g>
</g>
</svg>
