<?xml version="1.0" encoding="utf-8"?>
<!-- Generator: Adobe Illustrator 16.0.3, SVG Export Plug-In . SVG Version: 6.00 Build 0)  -->
<!DOCTYPE svg PUBLIC "-//W3C//DTD SVG 1.1//EN" "http://www.w3.org/Graphics/SVG/1.1/DTD/svg11.dtd">
<svg version="1.1" id="Ebene_1" xmlns="http://www.w3.org/2000/svg" xmlns:xlink="http://www.w3.org/1999/xlink" x="0px" y="0px"
	 width="120px" height="120px" viewBox="0 0 120 120" enable-background="new 0 0 120 120" xml:space="preserve">
<path fill="#646493" d="M104.947,120H15.051C6.763,120,0,113.236,0,104.948V15.052C0,6.763,6.763,0,15.051,0h89.896
	C113.236,0,120,6.763,120,15.052v89.896C120,113.236,113.236,120,104.947,120z"/>
<g>
	<rect x="0.039" y="82.857" fill="none" width="119.924" height="38.844"/>
	<path fill="#FFFFFF" d="M13.608,94.257H7.441V83.549h6.167v1.86H9.712v2.351h3.625v1.861H9.712v2.761h3.896V94.257z"/>
	<path fill="#FFFFFF" d="M15.571,83.951c0-0.209,0.032-0.384,0.095-0.523c0.063-0.139,0.15-0.251,0.26-0.337
		c0.11-0.085,0.239-0.146,0.389-0.179c0.148-0.035,0.306-0.052,0.472-0.052s0.322,0.017,0.469,0.052
		c0.146,0.033,0.275,0.094,0.384,0.179c0.11,0.086,0.198,0.198,0.264,0.337c0.066,0.14,0.099,0.314,0.099,0.523
		c0,0.205-0.033,0.379-0.099,0.521c-0.065,0.142-0.153,0.255-0.264,0.341c-0.109,0.086-0.238,0.146-0.384,0.183
		c-0.146,0.037-0.303,0.056-0.469,0.056s-0.324-0.019-0.472-0.056c-0.149-0.036-0.278-0.097-0.389-0.183
		c-0.109-0.086-0.196-0.199-0.26-0.341S15.571,84.156,15.571,83.951z M17.9,94.257h-2.234v-8.188H17.9V94.257z"/>
	<path fill="#FFFFFF" d="M27.349,94.257h-2.234v-4.782c0-0.592-0.089-1.034-0.267-1.33c-0.179-0.295-0.463-0.443-0.854-0.443
		c-0.293,0-0.537,0.059-0.732,0.176s-0.351,0.291-0.465,0.521c-0.115,0.229-0.197,0.513-0.246,0.85s-0.073,0.723-0.073,1.157v3.853
		h-2.234v-8.188h1.707l0.3,1.047h0.125c0.117-0.209,0.26-0.391,0.428-0.541c0.169-0.152,0.353-0.276,0.553-0.374
		s0.413-0.169,0.637-0.216s0.454-0.07,0.688-0.07c0.4,0,0.764,0.059,1.091,0.173s0.608,0.294,0.842,0.538s0.415,0.556,0.542,0.934
		c0.127,0.379,0.19,0.832,0.19,1.359V94.257z"/>
	<path fill="#FFFFFF" d="M33.904,87.746h-1.663v6.511h-2.234v-6.511h-1.23v-1.077l1.23-0.601v-0.601c0-0.522,0.063-0.956,0.19-1.3
		c0.127-0.345,0.308-0.619,0.542-0.824s0.518-0.35,0.85-0.436s0.706-0.129,1.121-0.129c0.449,0,0.828,0.036,1.135,0.106
		c0.308,0.071,0.569,0.15,0.784,0.238l-0.527,1.641c-0.151-0.054-0.31-0.103-0.476-0.146s-0.361-0.065-0.586-0.065
		c-0.293,0-0.5,0.094-0.619,0.281c-0.12,0.188-0.18,0.429-0.18,0.722v0.513h1.663V87.746z"/>
	<path fill="#FFFFFF" d="M42.517,90.148c0,0.684-0.087,1.289-0.26,1.816c-0.174,0.527-0.423,0.971-0.747,1.332
		c-0.325,0.361-0.721,0.637-1.187,0.824c-0.467,0.188-0.99,0.282-1.571,0.282c-0.542,0-1.04-0.095-1.494-0.282
		s-0.846-0.463-1.176-0.824c-0.329-0.361-0.587-0.805-0.772-1.332s-0.278-1.133-0.278-1.816c0-0.68,0.086-1.282,0.26-1.81
		s0.422-0.971,0.747-1.329c0.325-0.359,0.719-0.631,1.183-0.816s0.989-0.279,1.575-0.279c0.542,0,1.04,0.094,1.494,0.279
		s0.846,0.457,1.176,0.816c0.329,0.358,0.587,0.802,0.772,1.329S42.517,89.469,42.517,90.148z M37.317,90.148
		c0,0.814,0.115,1.43,0.344,1.842s0.603,0.619,1.121,0.619c0.513,0,0.884-0.208,1.113-0.623s0.344-1.027,0.344-1.838
		c0-0.816-0.115-1.425-0.344-1.828c-0.229-0.402-0.605-0.604-1.128-0.604c-0.513,0-0.883,0.201-1.109,0.604
		C37.43,88.724,37.317,89.332,37.317,90.148z"/>
	<path fill="#FFFFFF" d="M48.713,85.914c0.059,0,0.123,0.002,0.194,0.004c0.071,0.003,0.14,0.008,0.205,0.015
		c0.066,0.008,0.127,0.015,0.184,0.022c0.056,0.007,0.099,0.016,0.128,0.025v2.095c-0.039-0.01-0.093-0.02-0.161-0.029
		s-0.141-0.019-0.216-0.025c-0.076-0.008-0.15-0.013-0.224-0.015s-0.134-0.004-0.183-0.004c-0.288,0-0.553,0.037-0.794,0.109
		c-0.242,0.074-0.45,0.192-0.623,0.355c-0.173,0.164-0.308,0.379-0.402,0.645c-0.096,0.267-0.143,0.592-0.143,0.979v4.167h-2.234
		v-8.188h1.692l0.33,1.23h0.11c0.117-0.21,0.244-0.4,0.381-0.571s0.29-0.315,0.458-0.436c0.169-0.12,0.359-0.213,0.571-0.278
		C48.197,85.947,48.44,85.914,48.713,85.914z"/>
	<path fill="#FFFFFF" d="M53.364,94.403c-0.42,0-0.803-0.091-1.15-0.271c-0.347-0.182-0.645-0.448-0.894-0.803
		c-0.249-0.354-0.443-0.795-0.582-1.322c-0.14-0.527-0.209-1.137-0.209-1.83c0-0.703,0.069-1.32,0.209-1.85
		c0.139-0.529,0.337-0.975,0.593-1.333c0.257-0.359,0.563-0.629,0.919-0.81s0.75-0.271,1.179-0.271c0.264,0,0.505,0.031,0.725,0.092
		c0.22,0.062,0.417,0.146,0.593,0.257c0.176,0.109,0.333,0.237,0.473,0.381c0.139,0.144,0.262,0.302,0.37,0.472h0.073
		c-0.029-0.189-0.056-0.383-0.081-0.578c-0.024-0.166-0.045-0.343-0.063-0.531c-0.017-0.188-0.025-0.362-0.025-0.523V82.86h2.234
		v11.396h-1.707l-0.432-1.062h-0.095c-0.103,0.166-0.22,0.323-0.352,0.472c-0.132,0.149-0.285,0.277-0.458,0.385
		s-0.369,0.192-0.586,0.257C53.883,94.371,53.638,94.403,53.364,94.403z M54.177,92.623c0.264,0,0.488-0.045,0.674-0.135
		s0.335-0.228,0.45-0.41c0.115-0.184,0.2-0.412,0.257-0.686c0.056-0.273,0.086-0.593,0.091-0.959v-0.242
		c0-0.395-0.024-0.746-0.073-1.055c-0.049-0.307-0.129-0.564-0.242-0.772c-0.112-0.207-0.264-0.364-0.454-0.472
		s-0.43-0.162-0.718-0.162c-0.469,0-0.813,0.212-1.033,0.634c-0.22,0.423-0.33,1.036-0.33,1.843c0,0.805,0.111,1.409,0.333,1.813
		C53.355,92.422,53.704,92.623,54.177,92.623z"/>
	<path fill="#FFFFFF" d="M63.67,94.403c-0.586,0-1.126-0.085-1.619-0.257c-0.493-0.17-0.918-0.428-1.274-0.772
		c-0.356-0.344-0.634-0.778-0.831-1.304c-0.198-0.524-0.297-1.141-0.297-1.85c0-0.717,0.09-1.345,0.271-1.882
		s0.433-0.985,0.758-1.344c0.324-0.359,0.715-0.629,1.172-0.81c0.456-0.181,0.963-0.271,1.52-0.271c0.542,0,1.031,0.082,1.469,0.246
		c0.437,0.164,0.808,0.404,1.113,0.721c0.305,0.318,0.539,0.707,0.703,1.169c0.163,0.461,0.245,0.989,0.245,1.585v1.084h-4.995
		c0.01,0.313,0.06,0.596,0.15,0.847c0.09,0.251,0.217,0.464,0.381,0.637c0.163,0.174,0.361,0.307,0.593,0.399
		s0.497,0.139,0.795,0.139c0.249,0,0.484-0.013,0.707-0.04c0.222-0.026,0.438-0.067,0.647-0.12c0.211-0.055,0.418-0.121,0.623-0.202
		c0.205-0.08,0.415-0.175,0.63-0.282v1.729c-0.195,0.104-0.392,0.189-0.59,0.261c-0.197,0.071-0.406,0.13-0.626,0.179
		s-0.457,0.085-0.711,0.106C64.25,94.393,63.973,94.403,63.67,94.403z M63.384,87.504c-0.396,0-0.724,0.139-0.985,0.418
		c-0.262,0.277-0.411,0.715-0.45,1.311h2.849c-0.004-0.249-0.036-0.479-0.095-0.688s-0.146-0.392-0.264-0.546
		c-0.117-0.153-0.264-0.274-0.439-0.362S63.618,87.504,63.384,87.504z"/>
	<path fill="#FFFFFF" d="M73.059,85.914c0.059,0,0.123,0.002,0.194,0.004c0.071,0.003,0.14,0.008,0.205,0.015
		c0.066,0.008,0.127,0.015,0.184,0.022c0.056,0.007,0.099,0.016,0.128,0.025v2.095c-0.039-0.01-0.093-0.02-0.161-0.029
		s-0.141-0.019-0.216-0.025c-0.076-0.008-0.15-0.013-0.224-0.015s-0.134-0.004-0.183-0.004c-0.289,0-0.554,0.037-0.795,0.109
		c-0.242,0.074-0.449,0.192-0.623,0.355c-0.174,0.164-0.308,0.379-0.402,0.645c-0.096,0.267-0.143,0.592-0.143,0.979v4.167h-2.234
		v-8.188h1.691l0.33,1.23h0.109c0.117-0.21,0.244-0.4,0.381-0.571s0.29-0.315,0.458-0.436c0.169-0.12,0.359-0.213,0.571-0.278
		C72.543,85.947,72.785,85.914,73.059,85.914z"/>
	<path fill="#FFFFFF" d="M82.404,94.257h-2.233v-4.782c0-0.592-0.089-1.034-0.267-1.33c-0.18-0.295-0.463-0.443-0.854-0.443
		c-0.293,0-0.537,0.059-0.732,0.176s-0.352,0.291-0.465,0.521c-0.115,0.229-0.197,0.513-0.246,0.85s-0.073,0.723-0.073,1.157v3.853
		h-2.233v-8.188h1.706l0.3,1.047h0.125c0.117-0.209,0.26-0.391,0.428-0.541c0.17-0.152,0.354-0.276,0.554-0.374
		s0.413-0.169,0.638-0.216s0.453-0.07,0.688-0.07c0.4,0,0.765,0.059,1.092,0.173s0.607,0.294,0.842,0.538s0.416,0.556,0.543,0.934
		c0.127,0.379,0.189,0.832,0.189,1.359V94.257z"/>
	<path fill="#FFFFFF" d="M90.322,94.257l-2.893-8.188h2.336l1.355,4.666c0.082,0.277,0.154,0.567,0.215,0.867
		c0.062,0.301,0.1,0.57,0.114,0.81h0.044c0.015-0.259,0.053-0.533,0.113-0.824c0.061-0.29,0.133-0.575,0.217-0.853l1.348-4.666
		h2.344l-2.894,8.188H90.322z"/>
	<path fill="#FFFFFF" d="M103.748,90.148c0,0.684-0.088,1.289-0.26,1.816c-0.174,0.527-0.424,0.971-0.748,1.332
		s-0.721,0.637-1.186,0.824c-0.467,0.188-0.99,0.282-1.572,0.282c-0.541,0-1.039-0.095-1.494-0.282
		c-0.453-0.188-0.846-0.463-1.176-0.824c-0.328-0.361-0.586-0.805-0.771-1.332s-0.279-1.133-0.279-1.816
		c0-0.68,0.087-1.282,0.26-1.81c0.174-0.527,0.423-0.971,0.748-1.329c0.324-0.359,0.719-0.631,1.183-0.816s0.989-0.279,1.575-0.279
		c0.541,0,1.039,0.094,1.494,0.279c0.453,0.186,0.846,0.457,1.176,0.816c0.328,0.358,0.586,0.802,0.771,1.329
		S103.748,89.469,103.748,90.148z M98.547,90.148c0,0.814,0.115,1.43,0.345,1.842s0.603,0.619,1.12,0.619
		c0.514,0,0.885-0.208,1.113-0.623c0.23-0.415,0.345-1.027,0.345-1.838c0-0.816-0.114-1.425-0.345-1.828
		c-0.229-0.402-0.605-0.604-1.127-0.604c-0.514,0-0.883,0.201-1.109,0.604C98.66,88.724,98.547,89.332,98.547,90.148z"/>
	<path fill="#FFFFFF" d="M112.778,94.257h-2.233v-4.782c0-0.592-0.09-1.034-0.268-1.33c-0.179-0.295-0.463-0.443-0.854-0.443
		c-0.293,0-0.537,0.059-0.732,0.176s-0.351,0.291-0.465,0.521c-0.115,0.229-0.197,0.513-0.246,0.85s-0.072,0.723-0.072,1.157v3.853
		h-2.234v-8.188h1.707l0.3,1.047h0.124c0.117-0.209,0.261-0.391,0.429-0.541c0.169-0.152,0.353-0.276,0.554-0.374
		c0.199-0.098,0.412-0.169,0.637-0.216s0.454-0.07,0.688-0.07c0.4,0,0.765,0.059,1.091,0.173c0.328,0.114,0.608,0.294,0.843,0.538
		s0.415,0.556,0.542,0.934c0.127,0.379,0.19,0.832,0.19,1.359V94.257z"/>
	<path fill="#FFFFFF" d="M23.181,110.257h-6.167V99.549h6.167v1.86h-3.896v2.351h3.625v1.861h-3.625v2.761h3.896V110.257z"/>
	<path fill="#FFFFFF" d="M29.509,101.914c0.059,0,0.123,0.002,0.194,0.004c0.071,0.003,0.14,0.008,0.205,0.015
		c0.066,0.008,0.127,0.015,0.184,0.022c0.056,0.007,0.099,0.016,0.128,0.025v2.095c-0.039-0.01-0.093-0.02-0.161-0.029
		s-0.141-0.019-0.216-0.025c-0.076-0.008-0.15-0.013-0.224-0.015s-0.134-0.004-0.183-0.004c-0.288,0-0.553,0.037-0.794,0.109
		c-0.242,0.074-0.45,0.192-0.623,0.355c-0.173,0.164-0.308,0.379-0.402,0.645c-0.096,0.267-0.143,0.592-0.143,0.979v4.167h-2.234
		v-8.188h1.692l0.33,1.23h0.11c0.117-0.21,0.244-0.4,0.381-0.571s0.29-0.315,0.458-0.436c0.169-0.12,0.359-0.213,0.571-0.278
		C28.993,101.947,29.236,101.914,29.509,101.914z"/>
	<path fill="#FFFFFF" d="M33.896,105.804l0.82-1.245l2-2.49h2.52l-2.959,3.553l3.149,4.636h-2.578l-1.992-3.149l-0.872,0.601v2.549
		H31.75V98.86h2.234v5.083l-0.117,1.86H33.896z"/>
	<path fill="#FFFFFF" d="M42.832,110.257h-2.234V98.86h2.234V110.257z"/>
	<path fill="#FFFFFF" d="M49.929,110.257l-0.432-1.113h-0.066c-0.161,0.22-0.322,0.409-0.483,0.567
		c-0.161,0.159-0.337,0.289-0.527,0.393c-0.19,0.102-0.404,0.178-0.641,0.227s-0.511,0.073-0.824,0.073
		c-0.332,0-0.64-0.053-0.923-0.157c-0.283-0.105-0.529-0.264-0.736-0.477c-0.208-0.212-0.37-0.48-0.487-0.806
		c-0.117-0.324-0.176-0.709-0.176-1.153c0-0.869,0.278-1.51,0.835-1.923c0.557-0.412,1.389-0.641,2.498-0.685l1.304-0.044v-0.615
		c0-0.337-0.098-0.586-0.293-0.747s-0.469-0.242-0.82-0.242s-0.695,0.052-1.029,0.154c-0.335,0.103-0.67,0.239-1.007,0.41
		l-0.725-1.479c0.41-0.229,0.864-0.41,1.362-0.542s1.021-0.197,1.567-0.197c1.021,0,1.803,0.238,2.348,0.717
		c0.544,0.479,0.816,1.207,0.816,2.184v5.456H49.929z M45.864,99.967c0-0.172,0.027-0.319,0.081-0.443
		c0.054-0.125,0.125-0.228,0.216-0.308c0.09-0.081,0.197-0.141,0.322-0.18c0.124-0.039,0.257-0.059,0.399-0.059
		s0.275,0.02,0.399,0.059c0.125,0.039,0.233,0.099,0.326,0.18c0.093,0.08,0.167,0.183,0.224,0.308
		c0.056,0.124,0.084,0.271,0.084,0.443c0,0.166-0.028,0.31-0.084,0.432c-0.057,0.122-0.131,0.224-0.224,0.304
		c-0.093,0.081-0.201,0.141-0.326,0.18c-0.124,0.039-0.257,0.059-0.399,0.059s-0.275-0.02-0.399-0.059
		c-0.125-0.039-0.232-0.099-0.322-0.18c-0.091-0.08-0.163-0.182-0.216-0.304S45.864,100.133,45.864,99.967z M49.27,106.463
		l-0.74,0.029c-0.298,0.01-0.549,0.049-0.754,0.117s-0.37,0.16-0.495,0.274c-0.124,0.115-0.215,0.252-0.271,0.41
		c-0.057,0.159-0.084,0.336-0.084,0.531c0,0.342,0.083,0.585,0.249,0.729c0.166,0.145,0.383,0.216,0.652,0.216
		c0.205,0,0.396-0.035,0.571-0.105s0.328-0.176,0.458-0.315c0.129-0.139,0.23-0.31,0.304-0.513c0.073-0.202,0.11-0.436,0.11-0.699
		V106.463z M48.816,99.967c0-0.172,0.027-0.319,0.081-0.443c0.054-0.125,0.127-0.228,0.22-0.308c0.093-0.081,0.203-0.141,0.33-0.18
		s0.264-0.059,0.41-0.059c0.137,0,0.267,0.02,0.392,0.059c0.124,0.039,0.234,0.099,0.329,0.18c0.096,0.08,0.171,0.183,0.228,0.308
		c0.056,0.124,0.084,0.271,0.084,0.443c0,0.166-0.028,0.31-0.084,0.432c-0.057,0.122-0.132,0.224-0.228,0.304
		c-0.095,0.081-0.205,0.141-0.329,0.18c-0.125,0.039-0.255,0.059-0.392,0.059c-0.293,0-0.54-0.081-0.74-0.241
		C48.916,100.537,48.816,100.293,48.816,99.967z"/>
	<path fill="#FFFFFF" d="M58.059,101.914c0.059,0,0.123,0.002,0.194,0.004c0.071,0.003,0.14,0.008,0.205,0.015
		c0.066,0.008,0.127,0.015,0.184,0.022c0.056,0.007,0.099,0.016,0.128,0.025v2.095c-0.039-0.01-0.093-0.02-0.161-0.029
		s-0.141-0.019-0.216-0.025c-0.076-0.008-0.15-0.013-0.224-0.015s-0.134-0.004-0.183-0.004c-0.288,0-0.553,0.037-0.794,0.109
		c-0.242,0.074-0.45,0.192-0.623,0.355c-0.173,0.164-0.308,0.379-0.402,0.645c-0.096,0.267-0.143,0.592-0.143,0.979v4.167h-2.234
		v-8.188h1.692l0.33,1.23h0.11c0.117-0.21,0.244-0.4,0.381-0.571s0.29-0.315,0.458-0.436c0.169-0.12,0.359-0.213,0.571-0.278
		C57.543,101.947,57.786,101.914,58.059,101.914z"/>
	<path fill="#FFFFFF" d="M65.654,110.257l-0.301-1.048h-0.117c-0.121,0.211-0.268,0.391-0.436,0.539s-0.353,0.271-0.553,0.369
		s-0.412,0.17-0.637,0.217c-0.225,0.046-0.455,0.069-0.689,0.069c-0.4,0-0.764-0.058-1.091-0.172s-0.608-0.294-0.842-0.538
		c-0.234-0.244-0.415-0.555-0.542-0.931s-0.19-0.827-0.19-1.354v-5.34h2.234v4.783c0,0.59,0.089,1.033,0.268,1.329
		c0.178,0.296,0.463,0.442,0.854,0.442c0.293,0,0.537-0.059,0.732-0.176s0.35-0.29,0.465-0.52c0.114-0.229,0.196-0.513,0.245-0.85
		s0.073-0.723,0.073-1.157v-3.853h2.234v8.188H65.654z"/>
	<path fill="#FFFFFF" d="M76.809,110.257h-2.233v-4.782c0-0.592-0.089-1.034-0.267-1.33c-0.18-0.295-0.463-0.443-0.854-0.443
		c-0.293,0-0.537,0.059-0.732,0.176s-0.352,0.291-0.465,0.521c-0.115,0.229-0.197,0.513-0.246,0.85s-0.073,0.723-0.073,1.157v3.853
		h-2.233v-8.188h1.706l0.3,1.047h0.125c0.117-0.209,0.26-0.391,0.428-0.541c0.17-0.152,0.354-0.276,0.554-0.374
		s0.413-0.169,0.638-0.216s0.453-0.07,0.688-0.07c0.4,0,0.765,0.059,1.092,0.173s0.607,0.294,0.842,0.538s0.416,0.556,0.543,0.934
		c0.127,0.379,0.189,0.832,0.189,1.359V110.257z"/>
	<path fill="#FFFFFF" d="M85.884,102.083v1.216l-1.194,0.373c0.098,0.166,0.166,0.339,0.205,0.517
		c0.039,0.179,0.059,0.37,0.059,0.575c0,0.415-0.065,0.795-0.197,1.139c-0.132,0.345-0.327,0.639-0.586,0.883
		s-0.584,0.434-0.975,0.567c-0.391,0.135-0.844,0.202-1.361,0.202c-0.113,0-0.234-0.006-0.367-0.019
		c-0.131-0.013-0.229-0.026-0.293-0.04c-0.098,0.082-0.174,0.17-0.23,0.26s-0.084,0.199-0.084,0.326
		c0,0.102,0.031,0.184,0.096,0.245c0.063,0.062,0.146,0.109,0.248,0.146c0.104,0.036,0.223,0.062,0.359,0.073
		s0.278,0.018,0.425,0.018h1.274c0.396,0,0.75,0.046,1.063,0.136c0.313,0.091,0.576,0.229,0.795,0.414
		c0.217,0.186,0.384,0.421,0.501,0.707c0.117,0.285,0.176,0.626,0.176,1.021c0,0.464-0.093,0.883-0.278,1.256
		c-0.186,0.374-0.463,0.69-0.832,0.952c-0.368,0.262-0.826,0.462-1.373,0.601c-0.547,0.14-1.179,0.209-1.896,0.209
		c-0.557,0-1.043-0.053-1.457-0.157c-0.416-0.105-0.762-0.257-1.041-0.454c-0.277-0.198-0.486-0.437-0.625-0.714
		c-0.141-0.279-0.209-0.594-0.209-0.945c0-0.298,0.051-0.557,0.153-0.776s0.239-0.407,0.41-0.563s0.364-0.283,0.583-0.381
		c0.217-0.098,0.439-0.174,0.67-0.228c-0.104-0.044-0.205-0.104-0.305-0.183s-0.189-0.169-0.271-0.271
		c-0.08-0.103-0.146-0.216-0.197-0.341c-0.051-0.124-0.076-0.255-0.076-0.392c0-0.156,0.022-0.298,0.068-0.425
		c0.047-0.127,0.114-0.245,0.202-0.355c0.088-0.109,0.198-0.214,0.329-0.312c0.133-0.098,0.281-0.197,0.447-0.3
		c-0.43-0.186-0.771-0.483-1.021-0.894c-0.252-0.41-0.377-0.894-0.377-1.45c0-0.439,0.068-0.833,0.205-1.179
		c0.137-0.348,0.336-0.642,0.6-0.883c0.264-0.242,0.592-0.426,0.982-0.553s0.84-0.191,1.348-0.191c0.098,0,0.207,0.007,0.329,0.019
		c0.122,0.013,0.243,0.027,0.362,0.044c0.119,0.018,0.23,0.035,0.334,0.055c0.102,0.02,0.183,0.037,0.241,0.052H85.884z
		 M80.024,111.414c0,0.122,0.026,0.24,0.077,0.355c0.051,0.114,0.135,0.216,0.252,0.304s0.271,0.157,0.462,0.209
		c0.19,0.051,0.425,0.077,0.703,0.077c0.762,0,1.335-0.107,1.722-0.322c0.385-0.215,0.578-0.504,0.578-0.865
		c0-0.307-0.119-0.512-0.359-0.615c-0.238-0.102-0.609-0.153-1.113-0.153h-1.032c-0.132,0-0.273,0.016-0.425,0.048
		c-0.151,0.031-0.291,0.086-0.418,0.164s-0.232,0.182-0.318,0.312S80.024,111.219,80.024,111.414z M80.83,104.749
		c0,0.444,0.083,0.788,0.249,1.032s0.417,0.367,0.755,0.367c0.352,0,0.605-0.123,0.762-0.367s0.234-0.588,0.234-1.032
		c0-0.439-0.078-0.788-0.23-1.048c-0.154-0.258-0.41-0.388-0.766-0.388C81.164,103.313,80.83,103.792,80.83,104.749z"/>
	<path fill="#FFFFFF" d="M90.981,110.403c-0.586,0-1.126-0.085-1.618-0.257c-0.494-0.17-0.918-0.428-1.275-0.772
		c-0.355-0.344-0.633-0.778-0.83-1.304c-0.199-0.524-0.297-1.141-0.297-1.85c0-0.717,0.09-1.345,0.271-1.882
		s0.433-0.985,0.759-1.344c0.324-0.359,0.715-0.629,1.172-0.81c0.455-0.181,0.963-0.271,1.52-0.271c0.541,0,1.031,0.082,1.469,0.246
		c0.436,0.164,0.807,0.404,1.113,0.721c0.305,0.318,0.539,0.707,0.703,1.169c0.162,0.461,0.244,0.989,0.244,1.585v1.084h-4.994
		c0.01,0.313,0.059,0.596,0.15,0.847c0.09,0.251,0.217,0.464,0.381,0.637c0.162,0.174,0.36,0.307,0.592,0.399
		c0.232,0.093,0.498,0.139,0.795,0.139c0.25,0,0.484-0.013,0.707-0.04c0.223-0.026,0.438-0.067,0.648-0.12
		c0.21-0.055,0.418-0.121,0.623-0.202c0.205-0.08,0.414-0.175,0.629-0.282v1.729c-0.195,0.104-0.391,0.189-0.59,0.261
		c-0.197,0.071-0.406,0.13-0.625,0.179c-0.221,0.049-0.457,0.085-0.711,0.106C91.563,110.393,91.284,110.403,90.981,110.403z
		 M90.695,103.504c-0.395,0-0.724,0.139-0.984,0.418c-0.262,0.277-0.412,0.715-0.451,1.311h2.85
		c-0.005-0.249-0.037-0.479-0.096-0.688s-0.146-0.392-0.264-0.546c-0.117-0.153-0.264-0.274-0.439-0.362
		S90.93,103.504,90.695,103.504z"/>
	<path fill="#FFFFFF" d="M103.205,110.257h-2.233v-4.782c0-0.592-0.089-1.034-0.267-1.33c-0.18-0.295-0.463-0.443-0.854-0.443
		c-0.293,0-0.537,0.059-0.732,0.176s-0.352,0.291-0.465,0.521c-0.115,0.229-0.197,0.513-0.246,0.85s-0.073,0.723-0.073,1.157v3.853
		h-2.233v-8.188h1.706l0.3,1.047h0.125c0.117-0.209,0.26-0.391,0.428-0.541c0.17-0.152,0.354-0.276,0.554-0.374
		s0.413-0.169,0.638-0.216s0.453-0.07,0.688-0.07c0.4,0,0.765,0.059,1.092,0.173s0.607,0.294,0.842,0.538s0.416,0.556,0.543,0.934
		c0.127,0.379,0.189,0.832,0.189,1.359V110.257z"/>
</g>
<path opacity="0.6" fill="#FFFFFF" d="M87.58,26.388C83.176,9.177,59.354,5.734,45.036,13.721
	c-14.318,7.986-8.583,21.938-8.123,24.371c0.459,2.432-3.534,8.123-4.729,10.143c-1.191,2.02-0.642,2.754,1.286,3.557
	c1.929,0.803,1.101,0.896,1.172,2.111c0.067,1.217,1.904,1.285,1.904,1.285s-1.124,0.252-1.101,1.377
	c0.021,1.124,1.723,2.006,1.723,2.006c1.112,1.099-0.562,2.55,1.091,5.13c1.653,2.583,2.313,0.551,9.194,0.276
	c6.885-0.276,6.55,9.349,6.55,9.349L53.985,74h24.509c-6.197-7-0.414-18.161-0.414-18.161S91.986,43.598,87.58,26.388z
	 M70.822,50.449c-3.654-0.177-7.07-1.729-8.592-5.095c0.734,0.216,1.793,0.469,2.973,0.564c2.113,0.171,4.602-0.167,6.236-2.151
	c0.018-0.023,0.035-0.048,0.051-0.073c0.898-1.469,1.156-2.767,0.764-3.857c-0.488-1.354-1.801-1.817-1.857-1.835
	c-0.34-0.117-0.711,0.064-0.826,0.406c-0.117,0.341,0.064,0.711,0.406,0.828c0.006,0.002,0.777,0.284,1.051,1.044
	c0.246,0.681,0.031,1.611-0.625,2.694c-2.631,3.126-8.457,0.925-8.703,0.829c-0.016-0.071-0.035-0.141-0.051-0.213
	c0,0-8.691,0.579-9.436-5.909c0.161-0.13,0.26-0.336,0.244-0.56c-0.015-0.185-0.285-4.555,4.688-5.453
	c0.278-0.05,0.492-0.273,0.529-0.553c0.003-0.027,0.384-2.635,2.53-3.064c2.257-0.452,3.791,0.865,3.855,0.918
	c0.229,0.206,0.574,0.22,0.824,0.036c0.174-0.131,4.355-3.149,8.018,1.326c0.227,0.278,0.639,0.32,0.916,0.091
	c0.279-0.228,0.32-0.638,0.094-0.917c-1.723-2.104-3.566-2.819-5.188-2.903c0.059-0.969,0.461-3.932,3.229-4.646
	c2.102-0.542,4.557,0.09,5.969,1.538c1.16,1.191,1.494,2.798,0.963,4.649c-0.074,0.265,0.025,0.547,0.248,0.708
	c0.018,0.013,1.723,1.272,1.34,4.025c-0.137,0.991-0.654,1.72-1.49,2.107c-1.199,0.556-2.865,0.347-4.248-0.53
	c-3-1.903-7.42-1.939-9.652-0.08c-1.08,0.901-2.639,2.071-3.715,1.834c-0.479-0.106-0.877-0.5-1.214-1.208
	c-0.155-0.326-0.544-0.465-0.87-0.309c-0.325,0.154-0.463,0.544-0.308,0.869c0.514,1.082,1.225,1.728,2.113,1.923
	c0.117,0.026,0.234,0.043,0.354,0.053c1.504,0.122,3.1-1.01,4.479-2.159c1.771-1.477,5.639-1.392,8.115,0.178
	c1.748,1.109,3.904,1.35,5.496,0.612c1.24-0.574,2.035-1.679,2.232-3.11c0.379-2.713-0.877-4.327-1.52-4.958
	c0.494-2.136,0.006-4.081-1.389-5.514c-1.711-1.754-4.65-2.534-7.172-1.905c-0.07-0.933-0.453-1.937-1.076-2.788
	c-0.672-0.917-1.939-2.086-4.168-2.45c-2.674-0.437-4.545,0.996-5.467,2.193c-0.771-0.512-2.264-1.076-4.767-0.484
	c-2.621,0.621-3.696,2.484-4.017,3.842c-1.854-0.66-3.9-0.419-5.396,0.735c-1.626,1.255-2.12,3.237-1.319,5.311
	c0.448,1.111,1.163,1.878,2.127,2.278c1.734,0.722,3.622-0.059,3.701-0.093c0.332-0.139,0.485-0.52,0.348-0.852
	c-0.139-0.331-0.52-0.488-0.854-0.35c-0.014,0.006-1.477,0.601-2.701,0.087c-0.634-0.267-1.095-0.776-1.408-1.551
	c-0.586-1.519-0.258-2.905,0.902-3.8c1.224-0.945,3.453-1.305,5.454,0.139c3.341,2.411,3.019,7.43,2.998,7.688
	c-2.636,0.735-3.856,2.396-4.419,3.872c-1.732,0.23-5.771,0.175-8.512-4.54c-3.573-6.147,0.409-11.896,5.296-12.413
	c0,0,2.434-6.698,10.979-3.896c0,0,6.161-4.499,12.176,1.34c0,0,4.643-0.715,8.295,3.287c2.352,2.764,2.705,5.354,2.705,5.354
	s3.045,2.042,3.213,7.41c0.17,5.368-2.99,8.055-5.385,8.413c0,0,1.236,5.773-4.502,8.034C75.887,47.447,75.063,50.655,70.822,50.449
	z M53.805,21.841c-0.13-0.093-0.263-0.182-0.396-0.264c0.106-0.69,0.62-2.572,3.095-3.158c3.03-0.717,4.04,0.529,4.074,0.573
	c0.131,0.183,0.349,0.286,0.575,0.271c0.225-0.016,0.426-0.146,0.533-0.345c0.059-0.11,1.477-2.691,4.541-2.19
	c3.334,0.543,4.25,3.288,4.156,4.457c-2.262,1.249-2.936,3.893-2.973,5.479c-1.297,0.188-2.342,0.706-2.889,1.027
	c-0.73-0.492-2.393-1.356-4.575-0.92c-1.287,0.258-2.122,1.018-2.654,1.819C57.085,26.598,56.33,23.662,53.805,21.841z"/>
<g>
</g>
<g>
</g>
<g>
</g>
<g>
</g>
<g>
</g>
<g>
</g>
<g>
</g>
<g>
</g>
<g>
</g>
<g>
</g>
<g>
</g>
<g>
</g>
<g>
</g>
<g>
</g>
<g>
</g>
</svg>
