<?xml version="1.0" encoding="utf-8"?>
<!-- Generator: Adobe Illustrator 16.0.3, SVG Export Plug-In . SVG Version: 6.00 Build 0)  -->
<!DOCTYPE svg PUBLIC "-//W3C//DTD SVG 1.1//EN" "http://www.w3.org/Graphics/SVG/1.1/DTD/svg11.dtd">
<svg version="1.1" id="Ebene_1" xmlns="http://www.w3.org/2000/svg" xmlns:xlink="http://www.w3.org/1999/xlink" x="0px" y="0px"
	 width="120px" height="120px" viewBox="0 0 120 120" enable-background="new 0 0 120 120" xml:space="preserve">
<path fill="#646493" d="M104.947,120H15.051C6.763,120,0,113.236,0,104.948V15.052C0,6.763,6.763,0,15.051,0h89.896
	C113.236,0,120,6.763,120,15.052v89.896C120,113.236,113.236,120,104.947,120z"/>
<g>
	<rect x="0.039" y="82.857" fill="none" width="119.924" height="38.844"/>
	<path fill="#FFFFFF" d="M29.136,93.497h-2.112v-4.313h-3.397v4.313h-2.119v-9.994h2.119v3.917h3.397v-3.917h2.112V93.497z"/>
	<path fill="#FFFFFF" d="M31.405,83.879c0-0.195,0.03-0.359,0.089-0.488c0.059-0.131,0.14-0.235,0.243-0.314
		c0.103-0.08,0.223-0.137,0.362-0.168s0.286-0.048,0.441-0.048s0.301,0.017,0.438,0.048s0.256,0.088,0.359,0.168
		c0.103,0.079,0.185,0.184,0.246,0.314c0.062,0.129,0.092,0.293,0.092,0.488c0,0.191-0.031,0.354-0.092,0.485
		s-0.144,0.238-0.246,0.317c-0.103,0.08-0.222,0.137-0.359,0.172c-0.137,0.033-0.283,0.051-0.438,0.051s-0.302-0.018-0.441-0.051
		c-0.139-0.035-0.26-0.092-0.362-0.172c-0.103-0.079-0.184-0.186-0.243-0.317S31.405,84.07,31.405,83.879z M33.579,93.497h-2.085
		v-7.643h2.085V93.497z"/>
	<path fill="#FFFFFF" d="M42.397,93.497h-2.085v-4.464c0-0.551-0.083-0.965-0.25-1.24c-0.167-0.276-0.432-0.414-0.796-0.414
		c-0.273,0-0.501,0.055-0.684,0.164s-0.327,0.271-0.434,0.485s-0.184,0.479-0.229,0.793s-0.068,0.675-0.068,1.08v3.596h-2.085
		v-7.643h1.593l0.28,0.978h0.116c0.109-0.195,0.243-0.365,0.4-0.506s0.329-0.258,0.516-0.349s0.385-0.158,0.595-0.202
		c0.209-0.043,0.424-0.064,0.643-0.064c0.374,0,0.713,0.054,1.019,0.16c0.305,0.107,0.567,0.275,0.786,0.503
		s0.387,0.519,0.506,0.872c0.119,0.353,0.178,0.775,0.178,1.268V93.497z"/>
	<path fill="#FFFFFF" d="M50.382,93.497l-0.588-2.673c-0.018-0.078-0.042-0.188-0.072-0.332c-0.03-0.143-0.063-0.305-0.099-0.484
		c-0.037-0.181-0.074-0.372-0.113-0.574c-0.039-0.203-0.079-0.404-0.12-0.605c-0.091-0.469-0.191-0.975-0.301-1.518h-0.041
		c-0.105,0.543-0.201,1.051-0.287,1.524c-0.037,0.2-0.074,0.403-0.113,0.608s-0.076,0.397-0.113,0.578
		c-0.037,0.18-0.069,0.342-0.099,0.488s-0.054,0.26-0.072,0.342l-0.615,2.646h-2.242l-2.058-7.643h2.071l0.772,3.384
		c0.041,0.178,0.083,0.391,0.126,0.639c0.043,0.249,0.084,0.5,0.123,0.752c0.039,0.254,0.074,0.492,0.106,0.719
		c0.032,0.225,0.057,0.404,0.075,0.536h0.041c0.004-0.087,0.015-0.199,0.031-0.339c0.016-0.139,0.035-0.287,0.058-0.447
		s0.047-0.322,0.072-0.488c0.025-0.167,0.05-0.322,0.075-0.469s0.048-0.274,0.068-0.387c0.021-0.111,0.038-0.189,0.051-0.235
		l0.834-3.664h2.297l0.8,3.664c0.023,0.101,0.052,0.255,0.089,0.465s0.074,0.435,0.113,0.673c0.039,0.24,0.072,0.473,0.099,0.697
		c0.027,0.227,0.043,0.402,0.048,0.53h0.041c0.014-0.114,0.038-0.282,0.072-0.506s0.072-0.464,0.113-0.722
		c0.041-0.257,0.085-0.514,0.133-0.769s0.092-0.472,0.133-0.649l0.8-3.384h2.044l-2.085,7.643H50.382z"/>
	<path fill="#FFFFFF" d="M59.187,93.634c-0.547,0-1.05-0.079-1.511-0.239s-0.857-0.4-1.189-0.721
		c-0.333-0.322-0.591-0.728-0.776-1.217c-0.185-0.49-0.277-1.066-0.277-1.727c0-0.67,0.084-1.256,0.253-1.757
		s0.404-0.919,0.708-1.255c0.303-0.334,0.667-0.586,1.094-0.755s0.899-0.253,1.418-0.253c0.506,0,0.963,0.076,1.371,0.229
		c0.408,0.153,0.754,0.377,1.04,0.674c0.284,0.297,0.503,0.66,0.656,1.09c0.152,0.432,0.229,0.924,0.229,1.48v1.012h-4.662
		c0.009,0.291,0.056,0.555,0.14,0.789c0.084,0.235,0.203,0.434,0.355,0.596c0.153,0.161,0.337,0.285,0.554,0.372
		s0.464,0.13,0.742,0.13c0.232,0,0.452-0.013,0.66-0.037c0.208-0.025,0.409-0.063,0.605-0.113s0.39-0.113,0.581-0.188
		c0.191-0.076,0.387-0.164,0.588-0.264v1.613c-0.182,0.096-0.365,0.177-0.551,0.242c-0.184,0.066-0.379,0.123-0.584,0.168
		s-0.426,0.078-0.663,0.1C59.729,93.623,59.469,93.634,59.187,93.634z M58.92,87.194c-0.369,0-0.676,0.13-0.919,0.39
		s-0.384,0.668-0.42,1.224h2.659c-0.004-0.232-0.034-0.446-0.089-0.643s-0.137-0.366-0.246-0.509
		c-0.109-0.145-0.246-0.257-0.41-0.339S59.139,87.194,58.92,87.194z"/>
	<path fill="#FFFFFF" d="M63.876,83.879c0-0.195,0.03-0.359,0.089-0.488c0.059-0.131,0.141-0.235,0.242-0.314
		c0.104-0.08,0.224-0.137,0.363-0.168c0.139-0.031,0.285-0.048,0.44-0.048s0.301,0.017,0.438,0.048s0.257,0.088,0.358,0.168
		c0.104,0.079,0.186,0.184,0.246,0.314c0.063,0.129,0.093,0.293,0.093,0.488c0,0.191-0.03,0.354-0.093,0.485
		c-0.061,0.132-0.143,0.238-0.246,0.317c-0.102,0.08-0.222,0.137-0.358,0.172c-0.137,0.033-0.282,0.051-0.438,0.051
		s-0.302-0.018-0.44-0.051c-0.14-0.035-0.26-0.092-0.363-0.172c-0.102-0.079-0.184-0.186-0.242-0.317S63.876,84.07,63.876,83.879z
		 M66.05,93.497h-2.085v-7.643h2.085V93.497z"/>
	<path fill="#FFFFFF" d="M73.33,91.228c0,0.401-0.072,0.752-0.219,1.053s-0.354,0.552-0.622,0.752s-0.595,0.351-0.978,0.451
		s-0.811,0.15-1.285,0.15c-0.25,0-0.482-0.008-0.697-0.024c-0.215-0.016-0.417-0.041-0.608-0.078s-0.376-0.082-0.554-0.137
		s-0.357-0.123-0.54-0.205v-1.723c0.191,0.096,0.394,0.182,0.604,0.26c0.213,0.078,0.424,0.145,0.633,0.201
		c0.209,0.058,0.414,0.102,0.611,0.134c0.199,0.032,0.383,0.048,0.551,0.048c0.188,0,0.346-0.018,0.479-0.051
		c0.133-0.035,0.24-0.082,0.324-0.145c0.085-0.061,0.146-0.134,0.186-0.219c0.038-0.084,0.058-0.174,0.058-0.27
		s-0.015-0.182-0.044-0.256c-0.03-0.076-0.098-0.155-0.202-0.24c-0.104-0.084-0.259-0.18-0.462-0.287
		c-0.202-0.106-0.475-0.238-0.816-0.393c-0.332-0.15-0.621-0.3-0.865-0.447c-0.243-0.148-0.443-0.314-0.602-0.496
		c-0.156-0.182-0.273-0.391-0.352-0.625c-0.078-0.235-0.116-0.514-0.116-0.838c0-0.355,0.068-0.666,0.205-0.934
		c0.137-0.266,0.331-0.488,0.581-0.666s0.553-0.311,0.906-0.4c0.353-0.088,0.746-0.133,1.179-0.133c0.456,0,0.889,0.053,1.299,0.157
		s0.831,0.263,1.265,0.472l-0.629,1.477c-0.346-0.164-0.677-0.299-0.991-0.403s-0.629-0.157-0.943-0.157
		c-0.282,0-0.486,0.051-0.612,0.15c-0.125,0.1-0.188,0.236-0.188,0.41c0,0.092,0.016,0.172,0.048,0.242
		c0.032,0.071,0.096,0.145,0.191,0.219c0.096,0.076,0.229,0.158,0.403,0.246c0.174,0.09,0.398,0.197,0.677,0.325
		c0.323,0.142,0.615,0.281,0.875,0.421c0.26,0.139,0.483,0.297,0.67,0.475s0.331,0.385,0.431,0.622S73.33,90.891,73.33,91.228z"/>
	<path fill="#FFFFFF" d="M83.044,93.497l-0.403-1.039h-0.062c-0.15,0.205-0.301,0.382-0.451,0.53
		c-0.15,0.147-0.314,0.27-0.492,0.365s-0.377,0.166-0.599,0.212c-0.221,0.046-0.477,0.068-0.769,0.068
		c-0.31,0-0.597-0.049-0.861-0.147c-0.265-0.098-0.493-0.246-0.687-0.443c-0.194-0.199-0.346-0.449-0.455-0.752
		c-0.109-0.304-0.164-0.662-0.164-1.077c0-0.812,0.26-1.409,0.779-1.794c0.52-0.386,1.297-0.599,2.331-0.64l1.217-0.041v-0.574
		c0-0.314-0.091-0.547-0.273-0.697s-0.438-0.226-0.766-0.226s-0.648,0.048-0.96,0.144c-0.313,0.096-0.626,0.224-0.94,0.383
		l-0.677-1.381c0.383-0.214,0.807-0.383,1.271-0.506s0.953-0.185,1.463-0.185c0.953,0,1.683,0.223,2.191,0.67
		c0.508,0.447,0.762,1.125,0.762,2.037v5.093H83.044z M82.429,89.956l-0.69,0.027c-0.277,0.009-0.513,0.046-0.704,0.109
		s-0.345,0.149-0.462,0.257c-0.115,0.106-0.2,0.234-0.252,0.383c-0.053,0.147-0.079,0.313-0.079,0.495
		c0,0.319,0.077,0.546,0.232,0.681c0.155,0.134,0.358,0.201,0.608,0.201c0.191,0,0.369-0.033,0.533-0.1
		c0.164-0.065,0.307-0.164,0.428-0.293c0.12-0.131,0.215-0.29,0.283-0.479c0.068-0.189,0.103-0.407,0.103-0.653V89.956z"/>
	<path fill="#FFFFFF" d="M91.644,93.497l-0.28-0.978h-0.109c-0.113,0.195-0.25,0.363-0.406,0.502
		c-0.158,0.14-0.33,0.254-0.517,0.346s-0.386,0.158-0.595,0.201c-0.209,0.044-0.424,0.065-0.643,0.065
		c-0.373,0-0.713-0.054-1.019-0.161c-0.306-0.106-0.567-0.273-0.786-0.502s-0.387-0.518-0.506-0.868s-0.178-0.772-0.178-1.265
		v-4.983h2.085v4.464c0,0.551,0.083,0.965,0.249,1.24c0.167,0.276,0.432,0.414,0.797,0.414c0.273,0,0.502-0.055,0.684-0.164
		s0.327-0.271,0.434-0.485c0.107-0.214,0.184-0.479,0.229-0.793s0.068-0.675,0.068-1.08v-3.596h2.085v7.643H91.644z"/>
	<path fill="#FFFFFF" d="M99.396,87.42h-1.552v6.077h-2.085V87.42H94.61v-1.005l1.148-0.561v-0.561c0-0.487,0.06-0.892,0.178-1.214
		c0.118-0.32,0.287-0.577,0.506-0.769s0.483-0.327,0.793-0.407c0.31-0.079,0.659-0.119,1.046-0.119c0.42,0,0.772,0.033,1.06,0.1
		c0.287,0.065,0.53,0.14,0.731,0.222l-0.492,1.531c-0.141-0.05-0.289-0.096-0.444-0.137s-0.337-0.062-0.547-0.062
		c-0.273,0-0.466,0.088-0.577,0.264c-0.112,0.175-0.168,0.399-0.168,0.673v0.479h1.552V87.42z"/>
	<path fill="#FFFFFF" d="M10.159,99.503v6.467c0,0.52-0.079,1.003-0.236,1.449s-0.396,0.834-0.718,1.162s-0.724,0.585-1.207,0.772
		s-1.05,0.28-1.702,0.28c-0.615,0-1.159-0.088-1.63-0.263c-0.472-0.176-0.866-0.426-1.183-0.749s-0.557-0.712-0.721-1.165
		c-0.164-0.454-0.246-0.959-0.246-1.515v-6.439h2.112v6.282c0,0.369,0.037,0.685,0.109,0.947c0.073,0.262,0.181,0.476,0.325,0.643
		c0.144,0.166,0.322,0.287,0.537,0.365s0.465,0.116,0.752,0.116c0.597,0,1.029-0.173,1.295-0.52s0.4-0.868,0.4-1.565v-6.269H10.159z
		"/>
	<path fill="#FFFFFF" d="M19.073,109.497h-2.085v-4.464c0-0.551-0.083-0.965-0.25-1.24c-0.167-0.276-0.432-0.414-0.796-0.414
		c-0.273,0-0.501,0.055-0.684,0.164s-0.327,0.271-0.434,0.485s-0.184,0.479-0.229,0.793s-0.068,0.675-0.068,1.08v3.596h-2.085
		v-7.643h1.593l0.28,0.978h0.116c0.109-0.195,0.243-0.365,0.4-0.506s0.329-0.258,0.516-0.349s0.385-0.158,0.595-0.202
		c0.209-0.043,0.424-0.064,0.643-0.064c0.374,0,0.713,0.054,1.019,0.16c0.305,0.107,0.567,0.275,0.786,0.503
		s0.387,0.519,0.506,0.872c0.119,0.353,0.178,0.775,0.178,1.268V109.497z"/>
	<path fill="#FFFFFF" d="M26.313,107.228c0,0.401-0.073,0.752-0.219,1.053s-0.353,0.552-0.622,0.752s-0.595,0.351-0.978,0.451
		s-0.811,0.15-1.285,0.15c-0.25,0-0.483-0.008-0.697-0.024c-0.214-0.016-0.417-0.041-0.608-0.078s-0.376-0.082-0.554-0.137
		s-0.358-0.123-0.54-0.205v-1.723c0.191,0.096,0.393,0.182,0.605,0.26s0.423,0.145,0.632,0.201c0.209,0.058,0.414,0.102,0.612,0.134
		s0.382,0.048,0.55,0.048c0.187,0,0.346-0.018,0.479-0.051c0.132-0.035,0.24-0.082,0.325-0.145c0.084-0.061,0.146-0.134,0.185-0.219
		c0.039-0.084,0.058-0.174,0.058-0.27s-0.015-0.182-0.044-0.256c-0.03-0.076-0.097-0.155-0.202-0.24
		c-0.105-0.084-0.259-0.18-0.461-0.287c-0.203-0.106-0.475-0.238-0.817-0.393c-0.333-0.15-0.621-0.3-0.865-0.447
		c-0.244-0.148-0.444-0.314-0.602-0.496s-0.274-0.391-0.352-0.625c-0.078-0.235-0.116-0.514-0.116-0.838
		c0-0.355,0.068-0.666,0.205-0.934c0.137-0.266,0.331-0.488,0.581-0.666s0.553-0.311,0.906-0.4c0.353-0.088,0.746-0.133,1.179-0.133
		c0.456,0,0.889,0.053,1.299,0.157s0.832,0.263,1.265,0.472l-0.629,1.477c-0.346-0.164-0.677-0.299-0.991-0.403
		s-0.629-0.157-0.943-0.157c-0.283,0-0.486,0.051-0.612,0.15s-0.188,0.236-0.188,0.41c0,0.092,0.016,0.172,0.048,0.242
		c0.032,0.071,0.096,0.145,0.191,0.219c0.096,0.076,0.23,0.158,0.403,0.246c0.173,0.09,0.399,0.197,0.677,0.325
		c0.324,0.142,0.615,0.281,0.875,0.421c0.26,0.139,0.483,0.297,0.67,0.475s0.331,0.385,0.431,0.622S26.313,106.891,26.313,107.228z"
		/>
	<path fill="#FFFFFF" d="M31.057,107.973c0.205,0,0.4-0.023,0.584-0.068s0.373-0.103,0.564-0.171v1.552
		c-0.196,0.1-0.438,0.184-0.728,0.25c-0.29,0.065-0.605,0.099-0.947,0.099c-0.333,0-0.643-0.038-0.93-0.116
		s-0.536-0.213-0.745-0.406c-0.209-0.194-0.375-0.454-0.496-0.779c-0.121-0.326-0.181-0.735-0.181-1.228v-3.685h-0.998v-0.882
		l1.148-0.697l0.602-1.613h1.333v1.627h1.859v1.565h-1.859v3.685c0,0.296,0.073,0.515,0.219,0.656S30.82,107.973,31.057,107.973z"/>
	<path fill="#FFFFFF" d="M33.661,99.879c0-0.195,0.03-0.359,0.089-0.488c0.059-0.131,0.14-0.235,0.243-0.314
		c0.103-0.08,0.223-0.137,0.362-0.168s0.286-0.048,0.441-0.048s0.301,0.017,0.438,0.048s0.256,0.088,0.359,0.168
		c0.103,0.079,0.185,0.184,0.246,0.314c0.062,0.129,0.092,0.293,0.092,0.488c0,0.191-0.031,0.354-0.092,0.485
		s-0.144,0.238-0.246,0.317c-0.103,0.08-0.222,0.137-0.359,0.172c-0.137,0.033-0.283,0.051-0.438,0.051s-0.302-0.018-0.441-0.051
		c-0.139-0.035-0.26-0.092-0.362-0.172c-0.103-0.079-0.184-0.186-0.243-0.317S33.661,100.07,33.661,99.879z M35.835,109.497H33.75
		v-7.643h2.085V109.497z"/>
	<path fill="#FFFFFF" d="M44.585,109.497H42.5v-4.464c0-0.551-0.082-0.965-0.246-1.24c-0.164-0.276-0.421-0.414-0.772-0.414
		c-0.264,0-0.484,0.055-0.66,0.164s-0.315,0.271-0.42,0.485s-0.18,0.479-0.226,0.793s-0.068,0.675-0.068,1.08v3.596h-2.085v-7.643
		h1.593l0.28,0.978h0.116c0.109-0.195,0.24-0.365,0.393-0.506s0.32-0.258,0.502-0.349s0.376-0.158,0.581-0.202
		c0.205-0.043,0.413-0.064,0.622-0.064c0.524,0,0.97,0.09,1.336,0.27c0.367,0.181,0.648,0.465,0.844,0.852h0.171
		c0.109-0.195,0.242-0.365,0.396-0.506s0.326-0.258,0.513-0.349s0.384-0.158,0.591-0.202c0.208-0.043,0.416-0.064,0.625-0.064
		c0.82,0,1.439,0.223,1.856,0.666c0.417,0.445,0.625,1.156,0.625,2.137v4.983h-2.092v-4.464c0-0.551-0.082-0.965-0.246-1.24
		c-0.164-0.276-0.421-0.414-0.772-0.414c-0.497,0-0.85,0.197-1.06,0.592c-0.209,0.394-0.314,0.957-0.314,1.691V109.497z"/>
	<path fill="#FFFFFF" d="M57.771,109.497h-2.085v-4.464c0-0.551-0.082-0.965-0.246-1.24c-0.164-0.276-0.421-0.414-0.772-0.414
		c-0.264,0-0.484,0.055-0.66,0.164s-0.315,0.271-0.42,0.485s-0.18,0.479-0.226,0.793s-0.068,0.675-0.068,1.08v3.596h-2.085v-7.643
		h1.593l0.28,0.978h0.116c0.109-0.195,0.24-0.365,0.393-0.506s0.32-0.258,0.502-0.349s0.376-0.158,0.581-0.202
		c0.205-0.043,0.413-0.064,0.622-0.064c0.524,0,0.97,0.09,1.336,0.27c0.367,0.181,0.648,0.465,0.844,0.852h0.171
		c0.109-0.195,0.242-0.365,0.396-0.506s0.326-0.258,0.513-0.349s0.384-0.158,0.591-0.202c0.208-0.043,0.416-0.064,0.625-0.064
		c0.82,0,1.438,0.223,1.856,0.666c0.416,0.445,0.625,1.156,0.625,2.137v4.983h-2.092v-4.464c0-0.551-0.082-0.965-0.246-1.24
		c-0.164-0.276-0.421-0.414-0.772-0.414c-0.497,0-0.85,0.197-1.06,0.592c-0.209,0.394-0.314,0.957-0.314,1.691V109.497z"/>
	<path fill="#FFFFFF" d="M64.307,99.879c0-0.195,0.029-0.359,0.089-0.488c0.06-0.131,0.14-0.235,0.243-0.314
		c0.102-0.08,0.223-0.137,0.361-0.168c0.14-0.031,0.287-0.048,0.441-0.048s0.301,0.017,0.438,0.048s0.256,0.088,0.359,0.168
		c0.102,0.079,0.184,0.184,0.246,0.314c0.061,0.129,0.092,0.293,0.092,0.488c0,0.191-0.031,0.354-0.092,0.485
		c-0.063,0.132-0.145,0.238-0.246,0.317c-0.104,0.08-0.223,0.137-0.359,0.172c-0.137,0.033-0.283,0.051-0.438,0.051
		s-0.302-0.018-0.441-0.051c-0.139-0.035-0.26-0.092-0.361-0.172c-0.104-0.079-0.184-0.186-0.243-0.317S64.307,100.07,64.307,99.879
		z M66.48,109.497h-2.085v-7.643h2.085V109.497z"/>
	<path fill="#FFFFFF" d="M74.991,101.868v1.135l-1.114,0.349c0.092,0.154,0.154,0.315,0.191,0.482
		c0.037,0.166,0.055,0.345,0.055,0.536c0,0.388-0.062,0.741-0.185,1.063c-0.123,0.32-0.306,0.596-0.547,0.823
		s-0.544,0.404-0.909,0.53c-0.365,0.125-0.789,0.188-1.271,0.188c-0.105,0-0.219-0.006-0.342-0.018
		c-0.123-0.011-0.215-0.023-0.273-0.037c-0.092,0.078-0.163,0.158-0.215,0.242c-0.053,0.085-0.079,0.186-0.079,0.305
		c0,0.096,0.03,0.172,0.089,0.229c0.059,0.058,0.137,0.104,0.232,0.137c0.096,0.035,0.207,0.058,0.335,0.068
		c0.128,0.012,0.26,0.018,0.396,0.018h1.189c0.369,0,0.7,0.042,0.991,0.127c0.291,0.084,0.539,0.213,0.742,0.386
		c0.202,0.173,0.358,0.394,0.468,0.659c0.109,0.268,0.164,0.585,0.164,0.954c0,0.433-0.087,0.823-0.26,1.173
		c-0.173,0.348-0.432,0.645-0.776,0.889c-0.344,0.243-0.771,0.43-1.281,0.561c-0.51,0.129-1.101,0.194-1.771,0.194
		c-0.52,0-0.974-0.049-1.36-0.147c-0.387-0.098-0.711-0.238-0.971-0.424c-0.26-0.184-0.455-0.406-0.584-0.666
		c-0.131-0.26-0.195-0.554-0.195-0.882c0-0.278,0.048-0.52,0.144-0.725s0.224-0.38,0.383-0.526s0.341-0.264,0.544-0.355
		c0.202-0.092,0.41-0.162,0.625-0.212c-0.096-0.041-0.19-0.099-0.283-0.171c-0.094-0.072-0.178-0.157-0.254-0.253
		c-0.074-0.096-0.137-0.202-0.184-0.317c-0.049-0.117-0.072-0.238-0.072-0.366c0-0.146,0.021-0.278,0.064-0.396
		c0.044-0.118,0.106-0.229,0.188-0.331c0.082-0.104,0.185-0.199,0.308-0.291s0.262-0.185,0.417-0.28
		c-0.401-0.173-0.719-0.451-0.954-0.834c-0.234-0.383-0.352-0.834-0.352-1.354c0-0.41,0.064-0.776,0.191-1.101
		s0.314-0.598,0.561-0.824c0.246-0.225,0.551-0.396,0.916-0.516s0.783-0.178,1.258-0.178c0.092,0,0.193,0.006,0.308,0.018
		c0.114,0.011,0.227,0.024,0.339,0.041c0.111,0.016,0.215,0.033,0.311,0.051s0.171,0.034,0.226,0.048H74.991z M69.522,110.577
		c0,0.114,0.024,0.225,0.071,0.331c0.049,0.107,0.127,0.202,0.236,0.284s0.253,0.147,0.431,0.194
		c0.178,0.049,0.396,0.072,0.656,0.072c0.711,0,1.247-0.1,1.606-0.301s0.54-0.469,0.54-0.807c0-0.287-0.112-0.479-0.335-0.574
		s-0.57-0.144-1.039-0.144h-0.964c-0.123,0-0.255,0.015-0.396,0.044c-0.142,0.03-0.271,0.082-0.39,0.154s-0.218,0.17-0.297,0.291
		C69.563,110.243,69.522,110.395,69.522,110.577z M70.274,104.356c0,0.415,0.077,0.735,0.232,0.964s0.39,0.342,0.704,0.342
		c0.328,0,0.564-0.113,0.711-0.342s0.219-0.549,0.219-0.964c0-0.41-0.072-0.735-0.215-0.978c-0.145-0.242-0.383-0.362-0.715-0.362
		C70.586,103.017,70.274,103.463,70.274,104.356z"/>
	<path fill="#FFFFFF" d="M78.396,105.341l0.766-1.162l1.866-2.324h2.352l-2.762,3.315l2.939,4.327H81.15l-1.859-2.939l-0.813,0.561
		v2.379h-2.085V98.86h2.085v4.744l-0.109,1.736H78.396z"/>
	<path fill="#FFFFFF" d="M88.007,109.634c-0.547,0-1.05-0.079-1.511-0.239s-0.857-0.4-1.189-0.721
		c-0.332-0.322-0.592-0.728-0.775-1.217c-0.186-0.49-0.277-1.066-0.277-1.727c0-0.67,0.084-1.256,0.253-1.757
		s0.404-0.919,0.708-1.255c0.303-0.334,0.667-0.586,1.094-0.755c0.426-0.169,0.898-0.253,1.418-0.253
		c0.506,0,0.963,0.076,1.371,0.229c0.407,0.153,0.754,0.377,1.039,0.674c0.284,0.297,0.503,0.66,0.656,1.09
		c0.152,0.432,0.229,0.924,0.229,1.48v1.012h-4.662c0.01,0.291,0.056,0.555,0.141,0.789c0.084,0.235,0.202,0.434,0.355,0.596
		c0.152,0.161,0.337,0.285,0.553,0.372c0.217,0.087,0.465,0.13,0.742,0.13c0.232,0,0.452-0.013,0.66-0.037
		c0.207-0.025,0.408-0.063,0.604-0.113s0.39-0.113,0.581-0.188c0.191-0.076,0.387-0.164,0.588-0.264v1.613
		c-0.182,0.096-0.365,0.177-0.551,0.242c-0.184,0.066-0.379,0.123-0.584,0.168s-0.426,0.078-0.663,0.1
		C88.549,109.623,88.289,109.634,88.007,109.634z M87.74,103.194c-0.369,0-0.676,0.13-0.92,0.39c-0.243,0.26-0.383,0.668-0.42,1.224
		h2.659c-0.005-0.232-0.034-0.446-0.089-0.643s-0.137-0.366-0.246-0.509c-0.109-0.145-0.246-0.257-0.41-0.339
		S87.959,103.194,87.74,103.194z"/>
	<path fill="#FFFFFF" d="M92.696,99.879c0-0.195,0.03-0.359,0.089-0.488c0.059-0.131,0.141-0.235,0.242-0.314
		c0.104-0.08,0.224-0.137,0.363-0.168c0.139-0.031,0.285-0.048,0.44-0.048s0.301,0.017,0.438,0.048s0.257,0.088,0.358,0.168
		c0.104,0.079,0.186,0.184,0.246,0.314c0.063,0.129,0.093,0.293,0.093,0.488c0,0.191-0.03,0.354-0.093,0.485
		c-0.061,0.132-0.143,0.238-0.246,0.317c-0.102,0.08-0.222,0.137-0.358,0.172c-0.137,0.033-0.282,0.051-0.438,0.051
		s-0.302-0.018-0.44-0.051c-0.14-0.035-0.26-0.092-0.363-0.172c-0.102-0.079-0.184-0.186-0.242-0.317S92.696,100.07,92.696,99.879z
		 M94.87,109.497h-2.085v-7.643h2.085V109.497z"/>
	<path fill="#FFFFFF" d="M100.161,107.973c0.205,0,0.399-0.023,0.585-0.068c0.184-0.045,0.372-0.103,0.563-0.171v1.552
		c-0.196,0.1-0.438,0.184-0.728,0.25c-0.29,0.065-0.605,0.099-0.947,0.099c-0.332,0-0.643-0.038-0.93-0.116
		s-0.535-0.213-0.745-0.406c-0.21-0.194-0.375-0.454-0.495-0.779c-0.121-0.326-0.182-0.735-0.182-1.228v-3.685h-0.998v-0.882
		l1.148-0.697l0.602-1.613h1.333v1.627h1.859v1.565h-1.859v3.685c0,0.296,0.073,0.515,0.219,0.656S99.924,107.973,100.161,107.973z"
		/>
	<path fill="#FFFFFF" d="M106.211,109.634c-0.547,0-1.051-0.079-1.511-0.239s-0.856-0.4-1.189-0.721
		c-0.333-0.322-0.591-0.728-0.776-1.217c-0.184-0.49-0.276-1.066-0.276-1.727c0-0.67,0.085-1.256,0.253-1.757
		s0.404-0.919,0.707-1.255c0.304-0.334,0.668-0.586,1.094-0.755c0.427-0.169,0.899-0.253,1.419-0.253
		c0.506,0,0.963,0.076,1.37,0.229c0.408,0.153,0.755,0.377,1.039,0.674c0.285,0.297,0.504,0.66,0.656,1.09
		c0.153,0.432,0.229,0.924,0.229,1.48v1.012h-4.662c0.009,0.291,0.056,0.555,0.14,0.789c0.085,0.235,0.203,0.434,0.355,0.596
		c0.153,0.161,0.338,0.285,0.555,0.372c0.216,0.087,0.463,0.13,0.741,0.13c0.232,0,0.452-0.013,0.659-0.037
		c0.208-0.025,0.41-0.063,0.605-0.113s0.39-0.113,0.581-0.188c0.191-0.076,0.388-0.164,0.588-0.264v1.613
		c-0.183,0.096-0.366,0.177-0.55,0.242c-0.186,0.066-0.38,0.123-0.585,0.168s-0.427,0.078-0.663,0.1
		C106.754,109.623,106.494,109.634,106.211,109.634z M105.944,103.194c-0.369,0-0.676,0.13-0.919,0.39
		c-0.244,0.26-0.385,0.668-0.421,1.224h2.659c-0.004-0.232-0.034-0.446-0.089-0.643s-0.137-0.366-0.246-0.509
		c-0.109-0.145-0.246-0.257-0.41-0.339S106.163,103.194,105.944,103.194z"/>
	<path fill="#FFFFFF" d="M117.62,109.497h-2.085v-4.464c0-0.551-0.083-0.965-0.25-1.24c-0.166-0.276-0.432-0.414-0.796-0.414
		c-0.273,0-0.501,0.055-0.684,0.164s-0.327,0.271-0.435,0.485c-0.106,0.214-0.184,0.479-0.229,0.793s-0.068,0.675-0.068,1.08v3.596
		h-2.085v-7.643h1.593l0.28,0.978h0.116c0.109-0.195,0.242-0.365,0.4-0.506c0.156-0.141,0.328-0.258,0.516-0.349
		s0.385-0.158,0.595-0.202c0.21-0.043,0.424-0.064,0.643-0.064c0.374,0,0.714,0.054,1.019,0.16c0.305,0.107,0.567,0.275,0.786,0.503
		s0.388,0.519,0.506,0.872c0.118,0.353,0.178,0.775,0.178,1.268V109.497z"/>
</g>
<path opacity="0.6" fill="#FFFFFF" d="M87.58,26.388C83.176,9.177,59.354,5.734,45.036,13.721
	c-14.318,7.986-8.583,21.938-8.123,24.371c0.459,2.432-3.534,8.123-4.729,10.143c-1.191,2.02-0.642,2.754,1.286,3.557
	c1.929,0.803,1.101,0.896,1.172,2.111c0.067,1.217,1.904,1.285,1.904,1.285s-1.124,0.252-1.101,1.377
	c0.021,1.124,1.723,2.006,1.723,2.006c1.112,1.099-0.562,2.55,1.091,5.13c1.653,2.583,2.313,0.551,9.194,0.276
	c6.885-0.276,6.55,9.349,6.55,9.349L53.985,74h24.509c-6.197-7-0.414-18.161-0.414-18.161S91.986,43.598,87.58,26.388z
	 M70.822,50.449c-3.654-0.177-7.07-1.729-8.592-5.095c0.734,0.216,1.793,0.469,2.973,0.564c2.113,0.171,4.602-0.167,6.236-2.151
	c0.018-0.023,0.035-0.048,0.051-0.073c0.898-1.469,1.156-2.767,0.764-3.857c-0.488-1.354-1.801-1.817-1.857-1.835
	c-0.34-0.117-0.711,0.064-0.826,0.406c-0.117,0.341,0.064,0.711,0.406,0.828c0.006,0.002,0.777,0.284,1.051,1.044
	c0.246,0.681,0.031,1.611-0.625,2.694c-2.631,3.126-8.457,0.925-8.703,0.829c-0.016-0.071-0.035-0.141-0.051-0.213
	c0,0-8.691,0.579-9.436-5.909c0.161-0.13,0.26-0.336,0.244-0.56c-0.015-0.185-0.285-4.555,4.688-5.453
	c0.278-0.05,0.492-0.273,0.529-0.553c0.003-0.027,0.384-2.635,2.53-3.064c2.257-0.452,3.791,0.865,3.855,0.918
	c0.229,0.206,0.574,0.22,0.824,0.036c0.174-0.131,4.355-3.149,8.018,1.326c0.227,0.278,0.639,0.32,0.916,0.091
	c0.279-0.228,0.32-0.638,0.094-0.917c-1.723-2.104-3.566-2.819-5.188-2.903c0.059-0.969,0.461-3.932,3.229-4.646
	c2.102-0.542,4.557,0.09,5.969,1.538c1.16,1.191,1.494,2.798,0.963,4.649c-0.074,0.265,0.025,0.547,0.248,0.708
	c0.018,0.013,1.723,1.272,1.34,4.025c-0.137,0.991-0.654,1.72-1.49,2.107c-1.199,0.556-2.865,0.347-4.248-0.53
	c-3-1.903-7.42-1.939-9.652-0.08c-1.08,0.901-2.639,2.071-3.715,1.834c-0.479-0.106-0.877-0.5-1.214-1.208
	c-0.155-0.326-0.544-0.465-0.87-0.309c-0.325,0.154-0.463,0.544-0.308,0.869c0.514,1.082,1.225,1.728,2.113,1.923
	c0.117,0.026,0.234,0.043,0.354,0.053c1.504,0.122,3.1-1.01,4.479-2.159c1.771-1.477,5.639-1.392,8.115,0.178
	c1.748,1.109,3.904,1.35,5.496,0.612c1.24-0.574,2.035-1.679,2.232-3.11c0.379-2.713-0.877-4.327-1.52-4.958
	c0.494-2.136,0.006-4.081-1.389-5.514c-1.711-1.754-4.65-2.534-7.172-1.905c-0.07-0.933-0.453-1.937-1.076-2.788
	c-0.672-0.917-1.939-2.086-4.168-2.45c-2.674-0.437-4.545,0.996-5.467,2.193c-0.771-0.512-2.264-1.076-4.767-0.484
	c-2.621,0.621-3.696,2.484-4.017,3.842c-1.854-0.66-3.9-0.419-5.396,0.735c-1.626,1.255-2.12,3.237-1.319,5.311
	c0.448,1.111,1.163,1.878,2.127,2.278c1.734,0.722,3.622-0.059,3.701-0.093c0.332-0.139,0.485-0.52,0.348-0.852
	c-0.139-0.331-0.52-0.488-0.854-0.35c-0.014,0.006-1.477,0.601-2.701,0.087c-0.634-0.267-1.095-0.776-1.408-1.551
	c-0.586-1.519-0.258-2.905,0.902-3.8c1.224-0.945,3.453-1.305,5.454,0.139c3.341,2.411,3.019,7.43,2.998,7.688
	c-2.636,0.735-3.856,2.396-4.419,3.872c-1.732,0.23-5.771,0.175-8.512-4.54c-3.573-6.147,0.409-11.896,5.296-12.413
	c0,0,2.434-6.698,10.979-3.896c0,0,6.161-4.499,12.176,1.34c0,0,4.643-0.715,8.295,3.287c2.352,2.764,2.705,5.354,2.705,5.354
	s3.045,2.042,3.213,7.41c0.17,5.368-2.99,8.055-5.385,8.413c0,0,1.236,5.773-4.502,8.034C75.887,47.447,75.063,50.655,70.822,50.449
	z M53.805,21.841c-0.13-0.093-0.263-0.182-0.396-0.264c0.106-0.69,0.62-2.572,3.095-3.158c3.03-0.717,4.04,0.529,4.074,0.573
	c0.131,0.183,0.349,0.286,0.575,0.271c0.225-0.016,0.426-0.146,0.533-0.345c0.059-0.11,1.477-2.691,4.541-2.19
	c3.334,0.543,4.25,3.288,4.156,4.457c-2.262,1.249-2.936,3.893-2.973,5.479c-1.297,0.188-2.342,0.706-2.889,1.027
	c-0.73-0.492-2.393-1.356-4.575-0.92c-1.287,0.258-2.122,1.018-2.654,1.819C57.085,26.598,56.33,23.662,53.805,21.841z"/>
<g>
</g>
<g>
</g>
<g>
</g>
<g>
</g>
<g>
</g>
<g>
</g>
<g>
</g>
<g>
</g>
<g>
</g>
<g>
</g>
<g>
</g>
<g>
</g>
<g>
</g>
<g>
</g>
<g>
</g>
</svg>
