<?xml version="1.0" encoding="utf-8"?>
<!-- Generator: Adobe Illustrator 16.0.3, SVG Export Plug-In . SVG Version: 6.00 Build 0)  -->
<!DOCTYPE svg PUBLIC "-//W3C//DTD SVG 1.1//EN" "http://www.w3.org/Graphics/SVG/1.1/DTD/svg11.dtd">
<svg version="1.1" id="Ebene_1" xmlns="http://www.w3.org/2000/svg" xmlns:xlink="http://www.w3.org/1999/xlink" x="0px" y="0px"
	 width="120px" height="120px" viewBox="0 0 120 120" enable-background="new 0 0 120 120" xml:space="preserve">
<path fill="#339999" d="M104.948,120H15.052C6.763,120,0,113.236,0,104.948V15.052C0,6.763,6.763,0,15.052,0h89.896
	C113.237,0,120,6.763,120,15.052v89.896C120,113.236,113.237,120,104.948,120z"/>
<g>
	<rect x="0.039" y="82.857" fill="none" width="119.923" height="37.143"/>
	<path fill="#FFFFFF" d="M14.714,94.258h-2.578l-2.461-4.453l-0.85,0.629v3.824H6.555V83.549h2.271v5.156l0.894-1.516l2.446-3.641
		h2.52l-3.42,4.827L14.714,94.258z"/>
	<path fill="#FFFFFF" d="M19.482,94.404c-0.586,0-1.125-0.086-1.619-0.257s-0.918-0.429-1.274-0.772s-0.634-0.779-0.831-1.305
		c-0.198-0.523-0.297-1.141-0.297-1.849c0-0.718,0.09-1.345,0.271-1.882s0.433-0.986,0.758-1.344
		c0.324-0.359,0.715-0.629,1.172-0.811c0.456-0.18,0.963-0.271,1.52-0.271c0.542,0,1.031,0.082,1.469,0.245
		c0.437,0.164,0.808,0.404,1.113,0.722c0.305,0.317,0.539,0.706,0.703,1.169c0.163,0.461,0.245,0.989,0.245,1.585v1.084h-4.995
		c0.01,0.313,0.06,0.595,0.15,0.847c0.09,0.251,0.217,0.463,0.381,0.637c0.163,0.174,0.361,0.307,0.593,0.398
		c0.232,0.094,0.497,0.14,0.795,0.14c0.249,0,0.484-0.013,0.707-0.04c0.222-0.027,0.438-0.067,0.648-0.121s0.417-0.121,0.623-0.201
		s0.415-0.175,0.63-0.282v1.729c-0.195,0.103-0.392,0.189-0.59,0.261c-0.197,0.07-0.406,0.13-0.626,0.179s-0.457,0.085-0.71,0.106
		S19.785,94.404,19.482,94.404z M19.197,87.504c-0.396,0-0.724,0.14-0.985,0.418s-0.411,0.715-0.45,1.311h2.849
		c-0.005-0.248-0.037-0.479-0.095-0.688c-0.059-0.211-0.146-0.393-0.264-0.547c-0.117-0.152-0.264-0.273-0.439-0.361
		S19.431,87.504,19.197,87.504z"/>
	<path fill="#FFFFFF" d="M24.507,83.952c0-0.21,0.032-0.384,0.095-0.524c0.063-0.139,0.15-0.25,0.26-0.336
		c0.11-0.086,0.239-0.146,0.389-0.18c0.148-0.034,0.306-0.051,0.472-0.051s0.322,0.017,0.469,0.051s0.275,0.094,0.384,0.18
		c0.11,0.086,0.198,0.197,0.264,0.336c0.066,0.141,0.099,0.314,0.099,0.524c0,0.205-0.033,0.378-0.099,0.521
		c-0.065,0.141-0.153,0.255-0.264,0.34c-0.109,0.086-0.238,0.146-0.384,0.184s-0.303,0.055-0.469,0.055s-0.324-0.018-0.472-0.055
		c-0.149-0.037-0.278-0.098-0.389-0.184c-0.109-0.085-0.196-0.199-0.26-0.34C24.539,84.33,24.507,84.157,24.507,83.952z
		 M26.836,94.258h-2.234v-8.189h2.234V94.258z"/>
	<path fill="#FFFFFF" d="M36.284,94.258H34.05v-4.783c0-0.591-0.089-1.033-0.267-1.33c-0.179-0.295-0.463-0.442-0.854-0.442
		c-0.293,0-0.537,0.059-0.732,0.176s-0.351,0.29-0.465,0.521c-0.115,0.229-0.197,0.512-0.246,0.85
		c-0.049,0.336-0.073,0.723-0.073,1.156v3.854H29.18v-8.189h1.707l0.3,1.048h0.125c0.117-0.21,0.26-0.391,0.428-0.542
		c0.169-0.151,0.353-0.275,0.553-0.373s0.413-0.17,0.637-0.217c0.225-0.046,0.454-0.069,0.688-0.069c0.4,0,0.764,0.058,1.091,0.173
		c0.327,0.114,0.608,0.293,0.842,0.537s0.415,0.557,0.542,0.934c0.127,0.379,0.19,0.832,0.19,1.359V94.258z"/>
	<path fill="#FFFFFF" d="M47.732,94.258h-6.021v-1.318l3.347-5.164h-3.12v-1.707h5.654v1.451l-3.237,5.031h3.376V94.258z"/>
	<path fill="#FFFFFF" d="M54.69,94.258l-0.3-1.048h-0.117c-0.122,0.21-0.268,0.39-0.436,0.538c-0.169,0.149-0.353,0.272-0.553,0.37
		s-0.413,0.169-0.637,0.216s-0.454,0.07-0.688,0.07c-0.4,0-0.764-0.059-1.091-0.172c-0.327-0.115-0.608-0.295-0.842-0.539
		s-0.415-0.555-0.542-0.93c-0.127-0.377-0.19-0.828-0.19-1.355v-5.34h2.234v4.783c0,0.591,0.089,1.034,0.267,1.33
		c0.178,0.295,0.463,0.442,0.854,0.442c0.293,0,0.537-0.059,0.732-0.176s0.35-0.29,0.465-0.521c0.115-0.229,0.197-0.512,0.246-0.85
		c0.049-0.336,0.073-0.723,0.073-1.156v-3.854h2.234v8.189H54.69z"/>
	<path fill="#FFFFFF" d="M68.094,91.826c0,0.43-0.078,0.805-0.234,1.127s-0.379,0.592-0.667,0.807s-0.638,0.375-1.048,0.482
		s-0.869,0.162-1.377,0.162c-0.268,0-0.518-0.01-0.746-0.025c-0.23-0.018-0.447-0.046-0.652-0.085s-0.402-0.088-0.594-0.146
		c-0.189-0.059-0.383-0.132-0.578-0.22v-1.846c0.205,0.103,0.421,0.195,0.648,0.278c0.227,0.083,0.453,0.155,0.678,0.216
		c0.225,0.062,0.442,0.109,0.655,0.143c0.212,0.035,0.409,0.052,0.589,0.052c0.201,0,0.371-0.019,0.514-0.056
		c0.141-0.035,0.257-0.088,0.348-0.152c0.09-0.066,0.156-0.145,0.197-0.234c0.041-0.091,0.063-0.188,0.063-0.29
		s-0.016-0.194-0.048-0.274s-0.104-0.166-0.216-0.256c-0.112-0.091-0.277-0.193-0.494-0.309c-0.218-0.114-0.51-0.255-0.875-0.421
		c-0.357-0.161-0.666-0.321-0.927-0.479c-0.262-0.158-0.477-0.336-0.645-0.531c-0.169-0.195-0.294-0.418-0.378-0.67
		c-0.082-0.252-0.124-0.551-0.124-0.897c0-0.381,0.073-0.714,0.22-0.999c0.146-0.287,0.354-0.524,0.623-0.715
		c0.268-0.19,0.592-0.334,0.97-0.428c0.378-0.096,0.8-0.144,1.264-0.144c0.488,0,0.952,0.056,1.392,0.169
		c0.439,0.111,0.891,0.28,1.355,0.505l-0.674,1.582c-0.371-0.176-0.726-0.319-1.063-0.433c-0.337-0.111-0.674-0.168-1.011-0.168
		c-0.303,0-0.521,0.054-0.655,0.161c-0.135,0.107-0.201,0.254-0.201,0.439c0,0.098,0.017,0.185,0.051,0.261
		c0.034,0.075,0.103,0.152,0.205,0.234c0.103,0.08,0.246,0.168,0.432,0.264c0.186,0.094,0.428,0.211,0.726,0.348
		c0.347,0.15,0.659,0.301,0.938,0.449c0.278,0.15,0.518,0.319,0.718,0.51s0.354,0.412,0.461,0.666S68.094,91.465,68.094,91.826z"/>
	<path fill="#FFFFFF" d="M73.176,92.624c0.221,0,0.43-0.024,0.627-0.073s0.398-0.109,0.604-0.184v1.663
		c-0.209,0.107-0.47,0.196-0.779,0.267c-0.311,0.071-0.648,0.107-1.015,0.107c-0.356,0-0.688-0.042-0.996-0.125
		s-0.573-0.229-0.798-0.436s-0.402-0.486-0.531-0.836c-0.13-0.348-0.194-0.787-0.194-1.314v-3.947h-1.069v-0.945l1.23-0.746
		l0.645-1.729h1.428v1.742h1.992v1.678h-1.992v3.947c0,0.318,0.078,0.553,0.234,0.703C72.717,92.549,72.922,92.624,73.176,92.624z"
		/>
	<path fill="#FFFFFF" d="M80.815,94.258l-0.433-1.113h-0.065c-0.161,0.219-0.322,0.408-0.483,0.566
		c-0.161,0.16-0.337,0.29-0.527,0.393s-0.404,0.178-0.641,0.227c-0.237,0.049-0.512,0.074-0.824,0.074
		c-0.332,0-0.64-0.053-0.923-0.158c-0.283-0.104-0.528-0.264-0.735-0.477c-0.209-0.211-0.371-0.48-0.488-0.805
		s-0.176-0.709-0.176-1.154c0-0.869,0.279-1.51,0.836-1.922s1.389-0.641,2.497-0.686l1.304-0.043v-0.615
		c0-0.338-0.098-0.586-0.293-0.748c-0.195-0.16-0.469-0.241-0.82-0.241s-0.695,0.052-1.029,0.153c-0.334,0.104-0.67,0.24-1.007,0.41
		l-0.726-1.479c0.41-0.23,0.865-0.41,1.363-0.543c0.498-0.131,1.02-0.197,1.566-0.197c1.021,0,1.803,0.239,2.348,0.718
		s0.816,1.206,0.816,2.183v5.457H80.815z M80.156,90.463l-0.74,0.029c-0.297,0.01-0.549,0.049-0.754,0.117s-0.369,0.16-0.494,0.275
		s-0.215,0.252-0.271,0.41s-0.084,0.336-0.084,0.531c0,0.342,0.083,0.584,0.249,0.729s0.384,0.216,0.651,0.216
		c0.205,0,0.396-0.035,0.572-0.106c0.176-0.07,0.328-0.176,0.457-0.314s0.23-0.311,0.305-0.514c0.072-0.201,0.109-0.436,0.109-0.699
		V90.463z"/>
	<path fill="#FFFFFF" d="M88.945,85.915c0.059,0,0.123,0.001,0.193,0.003c0.071,0.004,0.141,0.008,0.205,0.016
		c0.066,0.008,0.127,0.014,0.184,0.021s0.1,0.016,0.129,0.025v2.096c-0.039-0.01-0.094-0.02-0.162-0.029s-0.141-0.02-0.215-0.025
		c-0.076-0.008-0.15-0.013-0.225-0.016c-0.072-0.002-0.134-0.004-0.183-0.004c-0.288,0-0.554,0.037-0.794,0.11
		c-0.242,0.073-0.45,0.192-0.623,0.354c-0.174,0.164-0.309,0.379-0.402,0.645c-0.096,0.268-0.144,0.593-0.144,0.979v4.168h-2.233
		v-8.189h1.691l0.33,1.23h0.109c0.117-0.209,0.244-0.4,0.381-0.57c0.137-0.172,0.289-0.316,0.457-0.436
		c0.17-0.12,0.359-0.213,0.572-0.279S88.672,85.915,88.945,85.915z"/>
	<path fill="#FFFFFF" d="M93.332,89.805l0.82-1.246l2-2.49h2.52l-2.959,3.553l3.149,4.637h-2.578l-1.992-3.15l-0.872,0.602v2.549
		h-2.233V82.861h2.233v5.082l-0.117,1.861H93.332z"/>
	<path fill="#FFFFFF" d="M103.631,94.404c-0.586,0-1.126-0.086-1.619-0.257s-0.918-0.429-1.274-0.772s-0.634-0.779-0.831-1.305
		c-0.198-0.523-0.297-1.141-0.297-1.849c0-0.718,0.09-1.345,0.271-1.882c0.18-0.537,0.433-0.986,0.758-1.344
		c0.324-0.359,0.715-0.629,1.172-0.811c0.456-0.18,0.963-0.271,1.52-0.271c0.542,0,1.031,0.082,1.469,0.245
		c0.437,0.164,0.808,0.404,1.113,0.722c0.305,0.317,0.539,0.706,0.703,1.169c0.163,0.461,0.245,0.989,0.245,1.585v1.084h-4.995
		c0.01,0.313,0.06,0.595,0.15,0.847c0.09,0.251,0.217,0.463,0.381,0.637c0.163,0.174,0.361,0.307,0.593,0.398
		c0.231,0.094,0.497,0.14,0.795,0.14c0.249,0,0.484-0.013,0.707-0.04c0.222-0.027,0.438-0.067,0.647-0.121
		c0.211-0.054,0.418-0.121,0.623-0.201s0.415-0.175,0.63-0.282v1.729c-0.195,0.103-0.392,0.189-0.59,0.261
		c-0.197,0.07-0.406,0.13-0.626,0.179s-0.457,0.085-0.711,0.106S103.934,94.404,103.631,94.404z M103.345,87.504
		c-0.396,0-0.724,0.14-0.985,0.418s-0.411,0.715-0.45,1.311h2.849c-0.004-0.248-0.036-0.479-0.095-0.688
		c-0.059-0.211-0.146-0.393-0.264-0.547c-0.117-0.152-0.264-0.273-0.439-0.361S103.579,87.504,103.345,87.504z"/>
	<path fill="#FFFFFF" d="M114.207,91.826c0,0.43-0.078,0.805-0.234,1.127s-0.379,0.592-0.667,0.807s-0.638,0.375-1.048,0.482
		s-0.869,0.162-1.377,0.162c-0.268,0-0.518-0.01-0.746-0.025c-0.23-0.018-0.447-0.046-0.652-0.085s-0.402-0.088-0.594-0.146
		c-0.189-0.059-0.383-0.132-0.578-0.22v-1.846c0.205,0.103,0.421,0.195,0.648,0.278c0.227,0.083,0.453,0.155,0.678,0.216
		c0.225,0.062,0.442,0.109,0.655,0.143c0.212,0.035,0.409,0.052,0.589,0.052c0.201,0,0.371-0.019,0.514-0.056
		c0.141-0.035,0.257-0.088,0.348-0.152c0.09-0.066,0.156-0.145,0.197-0.234c0.041-0.091,0.063-0.188,0.063-0.29
		s-0.016-0.194-0.048-0.274s-0.104-0.166-0.216-0.256c-0.112-0.091-0.277-0.193-0.494-0.309c-0.218-0.114-0.51-0.255-0.875-0.421
		c-0.357-0.161-0.666-0.321-0.927-0.479c-0.262-0.158-0.477-0.336-0.645-0.531c-0.169-0.195-0.294-0.418-0.378-0.67
		c-0.082-0.252-0.124-0.551-0.124-0.897c0-0.381,0.073-0.714,0.22-0.999c0.146-0.287,0.354-0.524,0.623-0.715
		c0.268-0.19,0.592-0.334,0.97-0.428c0.378-0.096,0.8-0.144,1.264-0.144c0.488,0,0.952,0.056,1.392,0.169
		c0.439,0.111,0.891,0.28,1.355,0.505l-0.674,1.582c-0.371-0.176-0.726-0.319-1.063-0.433c-0.337-0.111-0.674-0.168-1.011-0.168
		c-0.303,0-0.521,0.054-0.655,0.161c-0.135,0.107-0.201,0.254-0.201,0.439c0,0.098,0.017,0.185,0.051,0.261
		c0.034,0.075,0.103,0.152,0.205,0.234c0.103,0.08,0.246,0.168,0.432,0.264c0.186,0.094,0.428,0.211,0.726,0.348
		c0.347,0.15,0.659,0.301,0.938,0.449c0.278,0.15,0.518,0.319,0.718,0.51s0.354,0.412,0.461,0.666S114.207,91.465,114.207,91.826z"
		/>
	<path fill="#FFFFFF" d="M31.252,110.258l-0.732-2.549h-3.691l-0.74,2.549h-2.292l3.479-10.752h2.776l3.494,10.752H31.252z
		 M29.993,105.805l-0.688-2.344c-0.029-0.088-0.073-0.232-0.132-0.433s-0.121-0.421-0.187-0.663
		c-0.066-0.242-0.128-0.484-0.187-0.729s-0.1-0.451-0.125-0.623c-0.02,0.107-0.045,0.234-0.077,0.381s-0.068,0.303-0.109,0.465
		c-0.042,0.164-0.084,0.329-0.128,0.495s-0.085,0.322-0.125,0.469s-0.075,0.276-0.106,0.388c-0.032,0.113-0.055,0.195-0.069,0.25
		l-0.681,2.344H29.993z"/>
	<path fill="#FFFFFF" d="M41.821,110.258h-2.234v-4.783c0-0.591-0.089-1.033-0.267-1.33c-0.179-0.295-0.463-0.442-0.854-0.442
		c-0.293,0-0.537,0.059-0.732,0.176s-0.351,0.29-0.465,0.521c-0.115,0.229-0.197,0.512-0.246,0.85
		c-0.049,0.336-0.073,0.723-0.073,1.156v3.854h-2.234v-8.189h1.707l0.3,1.048h0.125c0.117-0.21,0.26-0.391,0.428-0.542
		c0.169-0.151,0.353-0.275,0.553-0.373s0.413-0.17,0.637-0.217c0.225-0.046,0.454-0.069,0.688-0.069c0.4,0,0.764,0.058,1.091,0.173
		c0.327,0.114,0.608,0.293,0.842,0.537s0.415,0.557,0.542,0.934c0.127,0.379,0.19,0.832,0.19,1.359V110.258z"/>
	<path fill="#FFFFFF" d="M47.446,108.624c0.22,0,0.429-0.024,0.626-0.073c0.198-0.049,0.399-0.109,0.604-0.184v1.663
		c-0.21,0.107-0.47,0.196-0.78,0.267c-0.31,0.071-0.648,0.107-1.014,0.107c-0.356,0-0.688-0.042-0.996-0.125
		s-0.574-0.229-0.798-0.436s-0.402-0.486-0.531-0.836c-0.129-0.348-0.194-0.787-0.194-1.314v-3.947h-1.069v-0.945l1.23-0.746
		l0.645-1.729h1.428v1.742h1.992v1.678h-1.992v3.947c0,0.318,0.078,0.553,0.234,0.703C46.987,108.549,47.192,108.624,47.446,108.624
		z"/>
	<path fill="#FFFFFF" d="M54.602,101.915c0.059,0,0.123,0.001,0.194,0.003c0.071,0.004,0.14,0.008,0.205,0.016
		c0.066,0.008,0.127,0.014,0.184,0.021c0.056,0.008,0.099,0.016,0.128,0.025v2.096c-0.039-0.01-0.093-0.02-0.161-0.029
		s-0.141-0.02-0.216-0.025c-0.076-0.008-0.15-0.013-0.224-0.016c-0.073-0.002-0.134-0.004-0.183-0.004
		c-0.288,0-0.553,0.037-0.794,0.11c-0.242,0.073-0.45,0.192-0.623,0.354c-0.173,0.164-0.308,0.379-0.402,0.645
		c-0.096,0.268-0.143,0.593-0.143,0.979v4.168h-2.234v-8.189h1.692l0.33,1.23h0.11c0.117-0.209,0.244-0.4,0.381-0.57
		c0.137-0.172,0.29-0.316,0.458-0.436c0.169-0.12,0.359-0.213,0.571-0.279C54.086,101.947,54.329,101.915,54.602,101.915z"/>
	<path fill="#FFFFFF" d="M60.439,110.404c-0.586,0-1.125-0.086-1.619-0.257s-0.918-0.429-1.274-0.772s-0.634-0.779-0.831-1.305
		c-0.198-0.523-0.297-1.141-0.297-1.849c0-0.718,0.09-1.345,0.271-1.882s0.433-0.986,0.758-1.344
		c0.324-0.359,0.715-0.629,1.172-0.811c0.456-0.18,0.963-0.271,1.52-0.271c0.542,0,1.031,0.082,1.468,0.245
		c0.438,0.164,0.809,0.404,1.113,0.722s0.539,0.706,0.703,1.169c0.164,0.461,0.246,0.989,0.246,1.585v1.084h-4.996
		c0.01,0.313,0.06,0.595,0.15,0.847c0.09,0.251,0.217,0.463,0.381,0.637c0.163,0.174,0.361,0.307,0.593,0.398
		c0.232,0.094,0.497,0.14,0.795,0.14c0.249,0,0.485-0.013,0.708-0.04c0.221-0.027,0.438-0.067,0.647-0.121s0.417-0.121,0.622-0.201
		s0.416-0.175,0.631-0.282v1.729c-0.195,0.103-0.393,0.189-0.59,0.261c-0.197,0.07-0.406,0.13-0.627,0.179
		c-0.219,0.049-0.456,0.085-0.71,0.106S60.742,110.404,60.439,110.404z M60.154,103.504c-0.396,0-0.724,0.14-0.985,0.418
		s-0.411,0.715-0.45,1.311h2.849c-0.005-0.248-0.036-0.479-0.095-0.688c-0.059-0.211-0.146-0.393-0.264-0.547
		c-0.117-0.152-0.264-0.273-0.44-0.361S60.388,103.504,60.154,103.504z"/>
	<path fill="#FFFFFF" d="M65.464,99.952c0-0.21,0.032-0.384,0.095-0.524c0.064-0.139,0.15-0.25,0.26-0.336
		c0.111-0.086,0.24-0.146,0.389-0.18s0.307-0.051,0.473-0.051s0.322,0.017,0.469,0.051s0.275,0.094,0.385,0.18
		s0.197,0.197,0.264,0.336c0.066,0.141,0.099,0.314,0.099,0.524c0,0.205-0.032,0.378-0.099,0.521
		c-0.066,0.141-0.154,0.255-0.264,0.34c-0.109,0.086-0.238,0.146-0.385,0.184s-0.303,0.055-0.469,0.055s-0.324-0.018-0.473-0.055
		s-0.277-0.098-0.389-0.184c-0.109-0.085-0.195-0.199-0.26-0.34C65.496,100.33,65.464,100.157,65.464,99.952z M67.793,110.258
		h-2.234v-8.189h2.234V110.258z"/>
	<path fill="#FFFFFF" d="M74.502,101.915c0.42,0,0.803,0.091,1.15,0.271c0.346,0.182,0.645,0.449,0.893,0.807
		c0.25,0.355,0.443,0.798,0.583,1.325c0.139,0.527,0.208,1.138,0.208,1.831c0,0.703-0.069,1.32-0.208,1.85
		c-0.14,0.529-0.336,0.973-0.59,1.329s-0.56,0.625-0.915,0.806c-0.357,0.181-0.75,0.271-1.18,0.271
		c-0.273,0-0.517-0.029-0.729-0.088c-0.213-0.059-0.402-0.137-0.568-0.234s-0.311-0.209-0.436-0.334
		c-0.124-0.125-0.238-0.255-0.34-0.392h-0.154l-0.373,0.901h-1.707V98.861h2.234v2.65c0,0.162-0.006,0.336-0.016,0.523
		c-0.01,0.189-0.02,0.363-0.029,0.524c-0.014,0.19-0.029,0.381-0.043,0.571h0.088c0.102-0.171,0.219-0.33,0.352-0.477
		c0.131-0.146,0.283-0.273,0.457-0.385c0.174-0.109,0.37-0.195,0.59-0.26C73.989,101.947,74.233,101.915,74.502,101.915z
		 M73.748,103.702c-0.25,0-0.461,0.046-0.634,0.136c-0.174,0.09-0.313,0.226-0.421,0.406s-0.186,0.409-0.234,0.686
		c-0.049,0.275-0.078,0.596-0.088,0.963v0.241c0,0.396,0.022,0.747,0.069,1.055c0.046,0.308,0.123,0.565,0.23,0.772
		c0.107,0.208,0.25,0.365,0.429,0.473c0.178,0.107,0.398,0.161,0.662,0.161c0.445,0,0.771-0.211,0.979-0.634
		c0.207-0.422,0.311-1.036,0.311-1.842s-0.104-1.41-0.311-1.813C74.532,103.904,74.201,103.702,73.748,103.702z"/>
	<path fill="#FFFFFF" d="M82.852,110.404c-0.586,0-1.125-0.086-1.619-0.257c-0.492-0.171-0.918-0.429-1.273-0.772
		c-0.357-0.344-0.635-0.779-0.832-1.305c-0.197-0.523-0.297-1.141-0.297-1.849c0-0.718,0.091-1.345,0.271-1.882
		s0.434-0.986,0.758-1.344c0.324-0.359,0.715-0.629,1.172-0.811c0.457-0.18,0.963-0.271,1.52-0.271c0.543,0,1.031,0.082,1.469,0.245
		c0.438,0.164,0.809,0.404,1.113,0.722s0.539,0.706,0.703,1.169c0.164,0.461,0.246,0.989,0.246,1.585v1.084h-4.996
		c0.01,0.313,0.061,0.595,0.15,0.847c0.09,0.251,0.217,0.463,0.381,0.637s0.361,0.307,0.594,0.398
		c0.231,0.094,0.496,0.14,0.795,0.14c0.248,0,0.484-0.013,0.707-0.04c0.221-0.027,0.438-0.067,0.647-0.121s0.417-0.121,0.622-0.201
		s0.416-0.175,0.631-0.282v1.729c-0.195,0.103-0.393,0.189-0.59,0.261c-0.197,0.07-0.406,0.13-0.627,0.179
		c-0.219,0.049-0.456,0.085-0.71,0.106S83.154,110.404,82.852,110.404z M82.566,103.504c-0.396,0-0.725,0.14-0.986,0.418
		c-0.261,0.278-0.41,0.715-0.449,1.311h2.849c-0.005-0.248-0.036-0.479-0.095-0.688c-0.059-0.211-0.146-0.393-0.264-0.547
		c-0.117-0.152-0.264-0.273-0.439-0.361S82.801,103.504,82.566,103.504z"/>
	<path fill="#FFFFFF" d="M95.076,110.258h-2.234v-4.783c0-0.591-0.09-1.033-0.268-1.33c-0.178-0.295-0.463-0.442-0.854-0.442
		c-0.293,0-0.537,0.059-0.732,0.176s-0.35,0.29-0.465,0.521c-0.115,0.229-0.196,0.512-0.245,0.85
		c-0.049,0.336-0.073,0.723-0.073,1.156v3.854h-2.234v-8.189h1.707l0.301,1.048h0.124c0.117-0.21,0.261-0.391,0.429-0.542
		s0.353-0.275,0.553-0.373s0.412-0.17,0.637-0.217c0.225-0.046,0.455-0.069,0.689-0.069c0.4,0,0.764,0.058,1.091,0.173
		c0.327,0.114,0.608,0.293,0.843,0.537s0.414,0.557,0.541,0.934c0.127,0.379,0.191,0.832,0.191,1.359V110.258z"/>
</g>
<g>
	<g transform="translate(-1.5419 -.02052)" opacity="0.6">
		<circle fill="#FFFFFF" cx="61.543" cy="36.926" r="4.011"/>
		<rect x="59.992" y="39.506" fill="#FFFFFF" width="3.101" height="20.155"/>
		<g transform="matrix(.92875 0 0 1.0003 41.286 -.061302)">
			<g transform="matrix(.75197 0 0 .75197 433.71 -157.14)">
				<path fill="#FFFFFF" d="M-551.665,279.328h1.338c0.996,0,1.803,0.807,1.803,1.803v30.368c0,0.997-0.807,1.805-1.803,1.805
					h-1.338c-0.996,0-1.802-0.808-1.802-1.805v-30.368C-553.468,280.135-552.661,279.328-551.665,279.328z"/>
				<path fill="#FFFFFF" d="M-545.2,279.328h1.338c0.996,0,1.804,0.807,1.804,1.803v30.368c0,0.997-0.808,1.805-1.804,1.805h-1.338
					c-0.996,0-1.802-0.808-1.802-1.805v-30.368C-547.002,280.135-546.195,279.328-545.2,279.328z"/>
			</g>
			<path fill="#FFFFFF" d="M17.368,42.482h8.886c1.607,0,2.909,1.302,2.909,2.91v0.799c0,1.606-1.303,2.909-2.909,2.909h-8.886
				c-1.607,0-2.909-1.303-2.909-2.909v-0.799C14.459,43.785,15.762,42.482,17.368,42.482z"/>
			<g transform="matrix(.75197 0 0 .75197 432.46 -158.64)">
				<path fill="#FFFFFF" d="M-539.186,268.84L-539.186,268.84c1.156-0.362,2.39,0.284,2.75,1.441l4.338,13.859
					c0.361,1.158-0.284,2.39-1.442,2.752l0,0c-1.156,0.362-2.39-0.283-2.752-1.441l-4.335-13.859
					C-540.988,270.435-540.344,269.203-539.186,268.84z"/>
				<path fill="#FFFFFF" d="M-553.012,268.84L-553.012,268.84c-1.158-0.362-2.39,0.282-2.752,1.44l-4.335,13.86
					c-0.362,1.157,0.283,2.389,1.44,2.752l0,0c1.158,0.362,2.39-0.283,2.753-1.44l4.335-13.86
					C-551.21,270.435-551.855,269.203-553.012,268.84z"/>
			</g>
			<path fill="#FFFFFF" d="M18.796,45.278h6.026l5.661,19.257H13.134L18.796,45.278z"/>
		</g>
		<path fill="#FFFFFF" d="M64.512,34.725c-0.418,0.031-0.486-0.167,0.135-0.507c1.506-0.824,3.461,3.257,3.461,3.257
			s-0.322-0.051-0.561-0.019c-0.293,0.041-0.827,0.682-0.827,0.682S65.972,34.617,64.512,34.725L64.512,34.725z"/>
		<path fill="#FFFFFF" d="M58.373,34.811c0.417,0.031,0.686-0.253,0.064-0.593c-1.506-0.824-3.461,3.257-3.461,3.257
			s0.322-0.051,0.561-0.019c0.292,0.041,0.944,0.682,0.944,0.682s0.297-3.591,1.757-3.483L58.373,34.811z"/>
	</g>
	<g opacity="0.6">
		<polyline fill="#FFFFFF" points="7.5,58.035 23.5,58.035 23.5,51.035 7.5,51.035 		"/>
		<path fill="#FFFFFF" d="M34.5,54.535c-5.168,1.918-11.581,5.19-15.556,8.656l3.131-8.656l-3.131-8.654
			C22.919,49.347,29.332,52.619,34.5,54.535z"/>
		<polyline fill="#FFFFFF" points="20.048,19.741 31.373,31.065 36.323,26.115 24.998,14.791 		"/>
		<path fill="#FFFFFF" d="M41.615,36.357c-5.011-2.299-11.859-4.52-17.121-4.879l8.334-3.907l3.905-8.333
			C37.094,24.5,39.315,31.348,41.615,36.357z"/>
		<polyline fill="#FFFFFF" points="55.5,2.035 55.5,18.035 62.5,18.035 62.5,2.035 		"/>
		<path fill="#FFFFFF" d="M59.5,28.535c-1.918-5.168-5.19-11.581-8.656-15.556L59.5,16.11l8.654-3.131
			C64.687,16.954,61.415,23.367,59.5,28.535z"/>
		<polyline fill="#FFFFFF" points="94.294,14.083 82.968,25.409 87.919,30.358 99.243,19.032 		"/>
		<path fill="#FFFFFF" d="M77.677,35.65c2.299-5.011,4.52-11.859,4.879-17.121l3.906,8.334l8.334,3.905
			C89.534,31.129,82.687,33.351,77.677,35.65z"/>
		<polyline fill="#FFFFFF" points="112.5,50.035 96.5,50.035 96.5,57.035 112.5,57.035 		"/>
		<path fill="#FFFFFF" d="M85.499,53.535c5.168-1.918,11.58-5.191,15.555-8.657l-3.13,8.656l3.132,8.653
			C97.08,58.722,90.667,55.451,85.499,53.535z"/>
	</g>
</g>
<g>
</g>
<g>
</g>
<g>
</g>
<g>
</g>
<g>
</g>
<g>
</g>
<g>
</g>
<g>
</g>
<g>
</g>
<g>
</g>
<g>
</g>
<g>
</g>
<g>
</g>
<g>
</g>
<g>
</g>
</svg>
