<?xml version="1.0" encoding="utf-8"?>
<!-- Generator: Adobe Illustrator 16.0.3, SVG Export Plug-In . SVG Version: 6.00 Build 0)  -->
<!DOCTYPE svg PUBLIC "-//W3C//DTD SVG 1.1//EN" "http://www.w3.org/Graphics/SVG/1.1/DTD/svg11.dtd">
<svg version="1.1" id="Ebene_1" xmlns="http://www.w3.org/2000/svg" xmlns:xlink="http://www.w3.org/1999/xlink" x="0px" y="0px"
	 width="120px" height="120px" viewBox="0 0 120 120" enable-background="new 0 0 120 120" xml:space="preserve">
<path fill="#339999" d="M104.948,120H15.052C6.763,120,0,113.236,0,104.948V15.052C0,6.763,6.763,0,15.052,0h89.896
	C113.237,0,120,6.763,120,15.052v89.896C120,113.236,113.237,120,104.948,120z"/>
<g>
	<rect x="0.039" y="82.857" fill="none" width="119.923" height="37.143"/>
	<path fill="#FFFFFF" d="M23.896,94.258h-2.578l-2.461-4.453l-0.85,0.629v3.824h-2.271V83.549h2.271v5.156l0.894-1.516l2.446-3.641
		h2.52l-3.42,4.827L23.896,94.258z"/>
	<path fill="#FFFFFF" d="M28.664,94.404c-0.586,0-1.125-0.086-1.619-0.257s-0.918-0.429-1.274-0.772s-0.634-0.779-0.831-1.305
		c-0.198-0.523-0.297-1.141-0.297-1.849c0-0.718,0.09-1.345,0.271-1.882s0.433-0.986,0.758-1.344
		c0.324-0.359,0.715-0.629,1.172-0.811c0.456-0.18,0.963-0.271,1.52-0.271c0.542,0,1.031,0.082,1.469,0.245
		c0.437,0.164,0.808,0.404,1.113,0.722c0.305,0.317,0.539,0.706,0.703,1.169c0.163,0.461,0.245,0.989,0.245,1.585v1.084h-4.995
		c0.01,0.313,0.06,0.595,0.15,0.847c0.09,0.251,0.217,0.463,0.381,0.637c0.163,0.174,0.361,0.307,0.593,0.398
		c0.232,0.094,0.497,0.14,0.795,0.14c0.249,0,0.484-0.013,0.707-0.04c0.222-0.027,0.438-0.067,0.648-0.121s0.417-0.121,0.623-0.201
		s0.415-0.175,0.63-0.282v1.729c-0.195,0.103-0.392,0.189-0.59,0.261c-0.197,0.07-0.406,0.13-0.626,0.179s-0.457,0.085-0.71,0.106
		S28.966,94.404,28.664,94.404z M28.378,87.504c-0.396,0-0.724,0.14-0.985,0.418s-0.411,0.715-0.45,1.311h2.849
		c-0.005-0.248-0.037-0.479-0.095-0.688c-0.059-0.211-0.146-0.393-0.264-0.547c-0.117-0.152-0.264-0.273-0.439-0.361
		S28.612,87.504,28.378,87.504z"/>
	<path fill="#FFFFFF" d="M33.688,83.952c0-0.21,0.032-0.384,0.095-0.524c0.063-0.139,0.15-0.25,0.26-0.336
		c0.11-0.086,0.239-0.146,0.389-0.18c0.148-0.034,0.306-0.051,0.472-0.051s0.322,0.017,0.469,0.051s0.275,0.094,0.384,0.18
		c0.11,0.086,0.198,0.197,0.264,0.336c0.066,0.141,0.099,0.314,0.099,0.524c0,0.205-0.033,0.378-0.099,0.521
		c-0.065,0.141-0.153,0.255-0.264,0.34c-0.109,0.086-0.238,0.146-0.384,0.184s-0.303,0.055-0.469,0.055s-0.324-0.018-0.472-0.055
		c-0.149-0.037-0.278-0.098-0.389-0.184c-0.109-0.085-0.196-0.199-0.26-0.34C33.72,84.33,33.688,84.157,33.688,83.952z
		 M36.017,94.258h-2.234v-8.189h2.234V94.258z"/>
	<path fill="#FFFFFF" d="M45.465,94.258h-2.234v-4.783c0-0.591-0.089-1.033-0.267-1.33c-0.179-0.295-0.463-0.442-0.854-0.442
		c-0.293,0-0.537,0.059-0.732,0.176s-0.351,0.29-0.465,0.521c-0.115,0.229-0.197,0.512-0.246,0.85
		c-0.049,0.336-0.073,0.723-0.073,1.156v3.854h-2.234v-8.189h1.707l0.3,1.048h0.125c0.117-0.21,0.26-0.391,0.428-0.542
		c0.169-0.151,0.353-0.275,0.553-0.373s0.413-0.17,0.637-0.217c0.225-0.046,0.454-0.069,0.688-0.069c0.4,0,0.764,0.058,1.091,0.173
		c0.327,0.114,0.608,0.293,0.842,0.537s0.415,0.557,0.542,0.934c0.127,0.379,0.19,0.832,0.19,1.359V94.258z"/>
	<path fill="#FFFFFF" d="M51.361,94.404c-0.586,0-1.125-0.086-1.619-0.257s-0.918-0.429-1.274-0.772s-0.634-0.779-0.831-1.305
		c-0.198-0.523-0.297-1.141-0.297-1.849c0-0.718,0.09-1.345,0.271-1.882s0.433-0.986,0.758-1.344
		c0.324-0.359,0.715-0.629,1.172-0.811c0.456-0.18,0.963-0.271,1.52-0.271c0.542,0,1.031,0.082,1.469,0.245
		c0.437,0.164,0.808,0.404,1.113,0.722c0.305,0.317,0.539,0.706,0.703,1.169c0.163,0.461,0.245,0.989,0.245,1.585v1.084h-4.995
		c0.01,0.313,0.06,0.595,0.15,0.847c0.09,0.251,0.217,0.463,0.381,0.637c0.163,0.174,0.361,0.307,0.593,0.398
		c0.232,0.094,0.497,0.14,0.795,0.14c0.249,0,0.484-0.013,0.707-0.04c0.222-0.027,0.438-0.067,0.648-0.121s0.417-0.121,0.623-0.201
		s0.415-0.175,0.63-0.282v1.729c-0.195,0.103-0.392,0.189-0.59,0.261c-0.197,0.07-0.406,0.13-0.626,0.179s-0.457,0.085-0.71,0.106
		S51.664,94.404,51.361,94.404z M51.076,87.504c-0.396,0-0.724,0.14-0.985,0.418s-0.411,0.715-0.45,1.311h2.849
		c-0.005-0.248-0.037-0.479-0.095-0.688c-0.059-0.211-0.146-0.393-0.264-0.547c-0.117-0.152-0.264-0.273-0.439-0.361
		S51.31,87.504,51.076,87.504z"/>
	<path fill="#FFFFFF" d="M68.668,83.549v6.93c0,0.557-0.084,1.074-0.252,1.553s-0.426,0.893-0.77,1.244s-0.775,0.628-1.293,0.828
		s-1.125,0.301-1.823,0.301c-0.659,0-1.241-0.095-1.747-0.283c-0.506-0.188-0.928-0.455-1.268-0.801
		c-0.339-0.348-0.596-0.764-0.772-1.25c-0.176-0.484-0.264-1.025-0.264-1.621v-6.9h2.263v6.731c0,0.396,0.039,0.733,0.117,1.015
		s0.194,0.51,0.349,0.688c0.152,0.18,0.345,0.31,0.574,0.393s0.498,0.125,0.806,0.125c0.64,0,1.103-0.186,1.388-0.557
		s0.429-0.931,0.429-1.678v-6.717H68.668z"/>
	<path fill="#FFFFFF" d="M78.219,94.258h-2.233v-4.783c0-0.591-0.089-1.033-0.267-1.33c-0.18-0.295-0.463-0.442-0.854-0.442
		c-0.293,0-0.537,0.059-0.732,0.176s-0.352,0.29-0.465,0.521c-0.115,0.229-0.197,0.512-0.246,0.85
		c-0.049,0.336-0.073,0.723-0.073,1.156v3.854h-2.233v-8.189h1.706l0.3,1.048h0.125c0.117-0.21,0.26-0.391,0.428-0.542
		c0.17-0.151,0.354-0.275,0.554-0.373s0.413-0.17,0.638-0.217c0.225-0.046,0.453-0.069,0.688-0.069c0.4,0,0.765,0.058,1.092,0.173
		c0.327,0.114,0.607,0.293,0.842,0.537s0.416,0.557,0.543,0.934c0.127,0.379,0.189,0.832,0.189,1.359V94.258z"/>
	<path fill="#FFFFFF" d="M83.844,92.624c0.221,0,0.43-0.024,0.627-0.073s0.398-0.109,0.604-0.184v1.663
		c-0.209,0.107-0.47,0.196-0.779,0.267c-0.311,0.071-0.648,0.107-1.015,0.107c-0.356,0-0.688-0.042-0.996-0.125
		s-0.573-0.229-0.798-0.436s-0.402-0.486-0.531-0.836c-0.13-0.348-0.194-0.787-0.194-1.314v-3.947h-1.069v-0.945l1.23-0.746
		l0.645-1.729h1.428v1.742h1.992v1.678h-1.992v3.947c0,0.318,0.078,0.553,0.234,0.703C83.385,92.549,83.59,92.624,83.844,92.624z"/>
	<path fill="#FFFFFF" d="M90.326,94.404c-0.586,0-1.125-0.086-1.619-0.257c-0.492-0.171-0.918-0.429-1.273-0.772
		c-0.357-0.344-0.635-0.779-0.832-1.305c-0.197-0.523-0.297-1.141-0.297-1.849c0-0.718,0.091-1.345,0.271-1.882
		s0.434-0.986,0.758-1.344c0.324-0.359,0.715-0.629,1.172-0.811c0.457-0.18,0.963-0.271,1.52-0.271c0.543,0,1.031,0.082,1.469,0.245
		c0.438,0.164,0.809,0.404,1.113,0.722s0.539,0.706,0.703,1.169c0.164,0.461,0.246,0.989,0.246,1.585v1.084h-4.996
		c0.01,0.313,0.061,0.595,0.15,0.847c0.09,0.251,0.217,0.463,0.381,0.637s0.361,0.307,0.594,0.398
		c0.231,0.094,0.496,0.14,0.795,0.14c0.248,0,0.484-0.013,0.707-0.04c0.221-0.027,0.438-0.067,0.647-0.121s0.417-0.121,0.622-0.201
		s0.416-0.175,0.631-0.282v1.729c-0.195,0.103-0.393,0.189-0.59,0.261c-0.197,0.07-0.406,0.13-0.627,0.179
		c-0.219,0.049-0.456,0.085-0.71,0.106S90.629,94.404,90.326,94.404z M90.041,87.504c-0.396,0-0.725,0.14-0.986,0.418
		c-0.261,0.278-0.41,0.715-0.449,1.311h2.849c-0.005-0.248-0.036-0.479-0.095-0.688c-0.059-0.211-0.146-0.393-0.264-0.547
		c-0.117-0.152-0.264-0.273-0.439-0.361S90.275,87.504,90.041,87.504z"/>
	<path fill="#FFFFFF" d="M99.716,85.915c0.059,0,0.123,0.001,0.194,0.003c0.07,0.004,0.139,0.008,0.205,0.016
		s0.127,0.014,0.184,0.021c0.055,0.008,0.098,0.016,0.127,0.025v2.096c-0.039-0.01-0.092-0.02-0.16-0.029s-0.141-0.02-0.217-0.025
		c-0.076-0.008-0.15-0.013-0.223-0.016c-0.074-0.002-0.135-0.004-0.184-0.004c-0.288,0-0.553,0.037-0.795,0.11
		s-0.449,0.192-0.623,0.354c-0.173,0.164-0.307,0.379-0.402,0.645c-0.096,0.268-0.143,0.593-0.143,0.979v4.168h-2.234v-8.189h1.692
		l0.329,1.23h0.11c0.117-0.209,0.244-0.4,0.381-0.57c0.137-0.172,0.29-0.316,0.458-0.436c0.168-0.12,0.359-0.213,0.57-0.279
		C99.199,85.947,99.442,85.915,99.716,85.915z"/>
	<path fill="#FFFFFF" d="M101.232,91.152V89.32h3.933v1.832H101.232z"/>
	<path fill="#FFFFFF" d="M22.317,101.915c0.42,0,0.803,0.091,1.15,0.271c0.347,0.182,0.645,0.449,0.894,0.807
		c0.249,0.355,0.443,0.798,0.583,1.325c0.139,0.527,0.208,1.138,0.208,1.831c0,0.703-0.07,1.32-0.208,1.85
		c-0.14,0.529-0.336,0.973-0.59,1.329s-0.559,0.625-0.916,0.806s-0.75,0.271-1.179,0.271c-0.273,0-0.517-0.029-0.729-0.088
		c-0.213-0.059-0.402-0.137-0.568-0.234s-0.311-0.209-0.436-0.334c-0.124-0.125-0.238-0.255-0.34-0.392h-0.154l-0.374,0.901h-1.707
		V98.861h2.234v2.65c0,0.162-0.005,0.336-0.015,0.523c-0.01,0.189-0.02,0.363-0.029,0.524c-0.015,0.19-0.029,0.381-0.044,0.571
		h0.088c0.103-0.171,0.22-0.33,0.352-0.477s0.284-0.273,0.458-0.385c0.173-0.109,0.37-0.195,0.59-0.26
		C21.804,101.947,22.048,101.915,22.317,101.915z M21.563,103.702c-0.249,0-0.46,0.046-0.633,0.136
		c-0.174,0.09-0.314,0.226-0.421,0.406s-0.186,0.409-0.234,0.686c-0.049,0.275-0.078,0.596-0.088,0.963v0.241
		c0,0.396,0.023,0.747,0.07,1.055c0.046,0.308,0.123,0.565,0.23,0.772c0.107,0.208,0.25,0.365,0.429,0.473
		c0.178,0.107,0.399,0.161,0.663,0.161c0.444,0,0.77-0.211,0.978-0.634c0.207-0.422,0.311-1.036,0.311-1.842
		s-0.104-1.41-0.311-1.813C22.347,103.904,22.017,103.702,21.563,103.702z"/>
	<path fill="#FFFFFF" d="M31.34,101.915c0.059,0,0.123,0.001,0.194,0.003c0.071,0.004,0.14,0.008,0.205,0.016
		c0.066,0.008,0.127,0.014,0.184,0.021c0.056,0.008,0.099,0.016,0.128,0.025v2.096c-0.039-0.01-0.093-0.02-0.161-0.029
		s-0.141-0.02-0.216-0.025c-0.076-0.008-0.15-0.013-0.224-0.016c-0.073-0.002-0.134-0.004-0.183-0.004
		c-0.288,0-0.553,0.037-0.794,0.11c-0.242,0.073-0.45,0.192-0.623,0.354c-0.173,0.164-0.308,0.379-0.402,0.645
		c-0.096,0.268-0.143,0.593-0.143,0.979v4.168H27.07v-8.189h1.692l0.33,1.23h0.11c0.117-0.209,0.244-0.4,0.381-0.57
		c0.137-0.172,0.29-0.316,0.458-0.436c0.169-0.12,0.359-0.213,0.571-0.279C30.824,101.947,31.067,101.915,31.34,101.915z"/>
	<path fill="#FFFFFF" d="M37.178,110.404c-0.586,0-1.125-0.086-1.619-0.257s-0.918-0.429-1.274-0.772s-0.634-0.779-0.831-1.305
		c-0.198-0.523-0.297-1.141-0.297-1.849c0-0.718,0.09-1.345,0.271-1.882s0.433-0.986,0.758-1.344
		c0.324-0.359,0.715-0.629,1.172-0.811c0.456-0.18,0.963-0.271,1.52-0.271c0.542,0,1.031,0.082,1.469,0.245
		c0.437,0.164,0.808,0.404,1.113,0.722c0.305,0.317,0.539,0.706,0.703,1.169c0.163,0.461,0.245,0.989,0.245,1.585v1.084h-4.995
		c0.01,0.313,0.06,0.595,0.15,0.847c0.09,0.251,0.217,0.463,0.381,0.637c0.163,0.174,0.361,0.307,0.593,0.398
		c0.232,0.094,0.497,0.14,0.795,0.14c0.249,0,0.484-0.013,0.707-0.04c0.222-0.027,0.438-0.067,0.648-0.121s0.417-0.121,0.623-0.201
		s0.415-0.175,0.63-0.282v1.729c-0.195,0.103-0.392,0.189-0.59,0.261c-0.197,0.07-0.406,0.13-0.626,0.179s-0.457,0.085-0.71,0.106
		S37.48,110.404,37.178,110.404z M36.892,103.504c-0.396,0-0.724,0.14-0.985,0.418s-0.411,0.715-0.45,1.311h2.849
		c-0.005-0.248-0.037-0.479-0.095-0.688c-0.059-0.211-0.146-0.393-0.264-0.547c-0.117-0.152-0.264-0.273-0.439-0.361
		S37.126,103.504,36.892,103.504z"/>
	<path fill="#FFFFFF" d="M45.703,110.404c-0.586,0-1.115-0.081-1.585-0.242c-0.472-0.161-0.875-0.411-1.209-0.75
		c-0.334-0.34-0.591-0.774-0.769-1.305c-0.179-0.529-0.268-1.163-0.268-1.9c0-0.815,0.092-1.498,0.274-2.047
		c0.184-0.549,0.442-0.99,0.776-1.322s0.737-0.568,1.209-0.711c0.471-0.141,0.995-0.212,1.571-0.212c0.42,0,0.837,0.052,1.252,0.153
		c0.415,0.104,0.806,0.247,1.172,0.433l-0.645,1.699c-0.322-0.142-0.632-0.257-0.93-0.349c-0.298-0.09-0.581-0.135-0.85-0.135
		c-0.542,0-0.935,0.207-1.179,0.619s-0.366,1.031-0.366,1.856c0,0.82,0.122,1.426,0.366,1.816s0.627,0.586,1.15,0.586
		c0.425,0,0.811-0.056,1.157-0.165s0.701-0.25,1.062-0.421v1.86c-0.181,0.088-0.356,0.166-0.527,0.234s-0.343,0.125-0.517,0.168
		c-0.173,0.045-0.354,0.078-0.542,0.1S45.918,110.404,45.703,110.404z"/>
	<path fill="#FFFFFF" d="M56.887,110.258h-2.234v-4.783c0-0.591-0.091-1.033-0.275-1.33c-0.183-0.295-0.465-0.442-0.846-0.442
		c-0.288,0-0.53,0.059-0.725,0.176s-0.352,0.29-0.469,0.521c-0.117,0.229-0.2,0.512-0.249,0.85
		c-0.049,0.336-0.073,0.723-0.073,1.156v3.854h-2.234V98.861h2.234v2.321c0,0.205-0.005,0.421-0.015,0.647
		c-0.01,0.229-0.022,0.437-0.037,0.627c-0.02,0.225-0.037,0.444-0.051,0.659h0.117c0.239-0.425,0.544-0.731,0.916-0.919
		s0.791-0.282,1.26-0.282c0.405,0,0.772,0.058,1.103,0.173c0.329,0.114,0.611,0.293,0.846,0.537s0.415,0.557,0.542,0.934
		c0.127,0.379,0.19,0.832,0.19,1.359V110.258z"/>
	<path fill="#FFFFFF" d="M64.541,110.258l-0.301-1.048h-0.117c-0.121,0.21-0.268,0.39-0.436,0.538
		c-0.168,0.149-0.353,0.272-0.553,0.37s-0.412,0.169-0.637,0.216s-0.455,0.07-0.689,0.07c-0.4,0-0.764-0.059-1.091-0.172
		c-0.327-0.115-0.608-0.295-0.842-0.539s-0.415-0.555-0.542-0.93c-0.127-0.377-0.19-0.828-0.19-1.355v-5.34h2.234v4.783
		c0,0.591,0.089,1.034,0.268,1.33c0.178,0.295,0.463,0.442,0.854,0.442c0.293,0,0.537-0.059,0.732-0.176s0.35-0.29,0.465-0.521
		c0.114-0.229,0.196-0.512,0.245-0.85c0.049-0.336,0.073-0.723,0.073-1.156v-3.854h2.234v8.189H64.541z"/>
	<path fill="#FFFFFF" d="M75.695,110.258h-2.233v-4.783c0-0.591-0.089-1.033-0.267-1.33c-0.18-0.295-0.463-0.442-0.854-0.442
		c-0.293,0-0.537,0.059-0.732,0.176s-0.352,0.29-0.465,0.521c-0.115,0.229-0.197,0.512-0.246,0.85
		c-0.049,0.336-0.073,0.723-0.073,1.156v3.854h-2.233v-8.189h1.706l0.3,1.048h0.125c0.117-0.21,0.26-0.391,0.428-0.542
		c0.17-0.151,0.354-0.275,0.554-0.373s0.413-0.17,0.638-0.217c0.225-0.046,0.453-0.069,0.688-0.069c0.4,0,0.765,0.058,1.092,0.173
		c0.327,0.114,0.607,0.293,0.842,0.537s0.416,0.557,0.543,0.934c0.127,0.379,0.189,0.832,0.189,1.359V110.258z"/>
	<path fill="#FFFFFF" d="M84.771,102.084v1.215l-1.194,0.374c0.098,0.166,0.166,0.339,0.205,0.517s0.059,0.369,0.059,0.574
		c0,0.416-0.065,0.795-0.197,1.139c-0.132,0.346-0.327,0.639-0.586,0.883s-0.584,0.434-0.975,0.568s-0.844,0.201-1.361,0.201
		c-0.113,0-0.234-0.006-0.367-0.018c-0.131-0.013-0.229-0.026-0.293-0.041c-0.098,0.083-0.174,0.17-0.23,0.26
		c-0.057,0.091-0.084,0.199-0.084,0.326c0,0.103,0.031,0.185,0.096,0.246c0.063,0.061,0.146,0.109,0.248,0.146
		c0.104,0.035,0.223,0.061,0.359,0.072c0.137,0.013,0.278,0.019,0.425,0.019h1.274c0.396,0,0.75,0.046,1.063,0.136
		s0.576,0.229,0.795,0.414c0.217,0.186,0.384,0.42,0.501,0.707c0.117,0.285,0.176,0.625,0.176,1.021
		c0,0.463-0.093,0.883-0.278,1.256s-0.463,0.69-0.832,0.951c-0.368,0.262-0.826,0.463-1.373,0.602s-1.179,0.209-1.896,0.209
		c-0.557,0-1.043-0.053-1.457-0.158c-0.416-0.105-0.762-0.256-1.041-0.453c-0.277-0.199-0.486-0.437-0.625-0.715
		c-0.141-0.278-0.209-0.594-0.209-0.945c0-0.297,0.051-0.557,0.153-0.775c0.103-0.221,0.239-0.408,0.41-0.564
		s0.364-0.283,0.583-0.381c0.217-0.098,0.439-0.174,0.67-0.227c-0.104-0.045-0.205-0.105-0.305-0.184s-0.189-0.168-0.271-0.271
		c-0.08-0.102-0.146-0.215-0.197-0.34s-0.076-0.256-0.076-0.393c0-0.156,0.022-0.297,0.068-0.424
		c0.047-0.127,0.114-0.246,0.202-0.355s0.198-0.214,0.329-0.312c0.133-0.098,0.281-0.198,0.447-0.3
		c-0.43-0.186-0.771-0.484-1.021-0.895c-0.252-0.41-0.377-0.893-0.377-1.449c0-0.439,0.068-0.833,0.205-1.18s0.336-0.641,0.6-0.883
		s0.592-0.426,0.982-0.553s0.84-0.19,1.348-0.19c0.098,0,0.207,0.007,0.329,0.019s0.243,0.027,0.362,0.043
		c0.119,0.018,0.23,0.036,0.334,0.056c0.102,0.02,0.183,0.036,0.241,0.052H84.771z M78.911,111.414c0,0.123,0.026,0.24,0.077,0.355
		s0.135,0.217,0.252,0.305s0.271,0.156,0.462,0.209c0.19,0.051,0.425,0.076,0.703,0.076c0.762,0,1.335-0.107,1.722-0.322
		c0.385-0.215,0.578-0.503,0.578-0.864c0-0.308-0.119-0.513-0.359-0.615c-0.238-0.103-0.609-0.153-1.113-0.153H80.2
		c-0.132,0-0.273,0.016-0.425,0.047s-0.291,0.087-0.418,0.165s-0.232,0.182-0.318,0.312
		C78.953,111.057,78.911,111.219,78.911,111.414z M79.717,104.75c0,0.443,0.083,0.788,0.249,1.032s0.417,0.366,0.755,0.366
		c0.352,0,0.605-0.122,0.762-0.366s0.234-0.589,0.234-1.032c0-0.439-0.078-0.789-0.23-1.048c-0.154-0.259-0.41-0.388-0.766-0.388
		C80.051,103.314,79.717,103.793,79.717,104.75z"/>
	<path fill="#FFFFFF" d="M89.868,110.404c-0.586,0-1.126-0.086-1.618-0.257c-0.494-0.171-0.918-0.429-1.275-0.772
		c-0.355-0.344-0.633-0.779-0.83-1.305c-0.199-0.523-0.297-1.141-0.297-1.849c0-0.718,0.09-1.345,0.271-1.882
		s0.433-0.986,0.759-1.344c0.324-0.359,0.715-0.629,1.172-0.811c0.455-0.18,0.963-0.271,1.52-0.271c0.541,0,1.031,0.082,1.469,0.245
		c0.436,0.164,0.807,0.404,1.113,0.722c0.305,0.317,0.539,0.706,0.703,1.169c0.162,0.461,0.244,0.989,0.244,1.585v1.084h-4.994
		c0.01,0.313,0.059,0.595,0.15,0.847c0.09,0.251,0.217,0.463,0.381,0.637c0.162,0.174,0.36,0.307,0.592,0.398
		c0.232,0.094,0.498,0.14,0.795,0.14c0.25,0,0.484-0.013,0.707-0.04s0.438-0.067,0.648-0.121s0.418-0.121,0.623-0.201
		s0.414-0.175,0.629-0.282v1.729c-0.195,0.103-0.391,0.189-0.59,0.261c-0.197,0.07-0.406,0.13-0.625,0.179
		c-0.221,0.049-0.457,0.085-0.711,0.106S90.171,110.404,89.868,110.404z M89.582,103.504c-0.395,0-0.724,0.14-0.984,0.418
		c-0.262,0.278-0.412,0.715-0.451,1.311h2.85c-0.005-0.248-0.037-0.479-0.096-0.688c-0.059-0.211-0.146-0.393-0.264-0.547
		c-0.117-0.152-0.264-0.273-0.439-0.361S89.816,103.504,89.582,103.504z"/>
	<path fill="#FFFFFF" d="M102.092,110.258h-2.233v-4.783c0-0.591-0.089-1.033-0.267-1.33c-0.18-0.295-0.463-0.442-0.854-0.442
		c-0.293,0-0.537,0.059-0.732,0.176s-0.352,0.29-0.465,0.521c-0.115,0.229-0.197,0.512-0.246,0.85
		c-0.049,0.336-0.073,0.723-0.073,1.156v3.854h-2.233v-8.189h1.706l0.3,1.048h0.125c0.117-0.21,0.26-0.391,0.428-0.542
		c0.17-0.151,0.354-0.275,0.554-0.373s0.413-0.17,0.638-0.217c0.225-0.046,0.453-0.069,0.688-0.069c0.4,0,0.765,0.058,1.092,0.173
		c0.327,0.114,0.607,0.293,0.842,0.537s0.416,0.557,0.543,0.934c0.127,0.379,0.189,0.832,0.189,1.359V110.258z"/>
</g>
<g>
	<g transform="translate(-1.5419 -.02052)" opacity="0.6">
		<circle fill="#FFFFFF" cx="61.543" cy="36.926" r="4.011"/>
		<rect x="59.992" y="39.506" fill="#FFFFFF" width="3.101" height="20.155"/>
		<g transform="matrix(.92875 0 0 1.0003 41.286 -.061302)">
			<g transform="matrix(.75197 0 0 .75197 433.71 -157.14)">
				<path fill="#FFFFFF" d="M-551.665,279.328h1.338c0.996,0,1.803,0.807,1.803,1.803v30.368c0,0.997-0.807,1.805-1.803,1.805
					h-1.338c-0.996,0-1.802-0.808-1.802-1.805v-30.368C-553.468,280.135-552.661,279.328-551.665,279.328z"/>
				<path fill="#FFFFFF" d="M-545.2,279.328h1.338c0.996,0,1.804,0.807,1.804,1.803v30.368c0,0.997-0.808,1.805-1.804,1.805h-1.338
					c-0.996,0-1.802-0.808-1.802-1.805v-30.368C-547.002,280.135-546.195,279.328-545.2,279.328z"/>
			</g>
			<path fill="#FFFFFF" d="M17.368,42.482h8.886c1.607,0,2.909,1.302,2.909,2.91v0.799c0,1.606-1.303,2.909-2.909,2.909h-8.886
				c-1.607,0-2.909-1.303-2.909-2.909v-0.799C14.459,43.785,15.762,42.482,17.368,42.482z"/>
			<g transform="matrix(.75197 0 0 .75197 432.46 -158.64)">
				<path fill="#FFFFFF" d="M-539.186,268.84L-539.186,268.84c1.156-0.362,2.39,0.284,2.75,1.441l4.338,13.859
					c0.361,1.158-0.284,2.39-1.442,2.752l0,0c-1.156,0.362-2.39-0.283-2.752-1.441l-4.335-13.859
					C-540.988,270.435-540.344,269.203-539.186,268.84z"/>
				<path fill="#FFFFFF" d="M-553.012,268.84L-553.012,268.84c-1.158-0.362-2.39,0.282-2.752,1.44l-4.335,13.86
					c-0.362,1.157,0.283,2.389,1.44,2.752l0,0c1.158,0.362,2.39-0.283,2.753-1.44l4.335-13.86
					C-551.21,270.435-551.855,269.203-553.012,268.84z"/>
			</g>
			<path fill="#FFFFFF" d="M18.796,45.278h6.026l5.661,19.257H13.134L18.796,45.278z"/>
		</g>
		<path fill="#FFFFFF" d="M64.512,34.725c-0.418,0.031-0.486-0.167,0.135-0.507c1.506-0.824,3.461,3.257,3.461,3.257
			s-0.322-0.051-0.561-0.019c-0.293,0.041-0.827,0.682-0.827,0.682S65.972,34.617,64.512,34.725L64.512,34.725z"/>
		<path fill="#FFFFFF" d="M58.373,34.811c0.417,0.031,0.686-0.253,0.064-0.593c-1.506-0.824-3.461,3.257-3.461,3.257
			s0.322-0.051,0.561-0.019c0.292,0.041,0.944,0.682,0.944,0.682s0.297-3.591,1.757-3.483L58.373,34.811z"/>
	</g>
	<g opacity="0.6">
		<polyline fill="#FFFFFF" points="7.5,58.035 23.5,58.035 23.5,51.035 7.5,51.035 		"/>
		<path fill="#FFFFFF" d="M34.5,54.535c-5.168,1.918-11.581,5.19-15.556,8.656l3.131-8.656l-3.131-8.654
			C22.919,49.347,29.332,52.619,34.5,54.535z"/>
		<polyline fill="#FFFFFF" points="20.048,19.741 31.373,31.065 36.323,26.115 24.998,14.791 		"/>
		<path fill="#FFFFFF" d="M41.615,36.357c-5.011-2.299-11.859-4.52-17.121-4.879l8.334-3.907l3.905-8.333
			C37.094,24.5,39.315,31.348,41.615,36.357z"/>
		<polyline fill="#FFFFFF" points="55.5,2.035 55.5,18.035 62.5,18.035 62.5,2.035 		"/>
		<path fill="#FFFFFF" d="M59.5,28.535c-1.918-5.168-5.19-11.581-8.656-15.556L59.5,16.11l8.654-3.131
			C64.687,16.954,61.415,23.367,59.5,28.535z"/>
		<polyline fill="#FFFFFF" points="94.294,14.083 82.968,25.409 87.919,30.358 99.243,19.032 		"/>
		<path fill="#FFFFFF" d="M77.677,35.65c2.299-5.011,4.52-11.859,4.879-17.121l3.906,8.334l8.334,3.905
			C89.534,31.129,82.687,33.351,77.677,35.65z"/>
		<polyline fill="#FFFFFF" points="112.5,50.035 96.5,50.035 96.5,57.035 112.5,57.035 		"/>
		<path fill="#FFFFFF" d="M85.499,53.535c5.168-1.918,11.58-5.191,15.555-8.657l-3.13,8.656l3.132,8.653
			C97.08,58.722,90.667,55.451,85.499,53.535z"/>
	</g>
</g>
<g>
</g>
<g>
</g>
<g>
</g>
<g>
</g>
<g>
</g>
<g>
</g>
<g>
</g>
<g>
</g>
<g>
</g>
<g>
</g>
<g>
</g>
<g>
</g>
<g>
</g>
<g>
</g>
<g>
</g>
<g>
</g>
</svg>
