<?xml version="1.0" encoding="utf-8"?>
<!-- Generator: Adobe Illustrator 16.0.3, SVG Export Plug-In . SVG Version: 6.00 Build 0)  -->
<!DOCTYPE svg PUBLIC "-//W3C//DTD SVG 1.1//EN" "http://www.w3.org/Graphics/SVG/1.1/DTD/svg11.dtd" [
	<!ENTITY ns_extend "http://ns.adobe.com/Extensibility/1.0/">
	<!ENTITY ns_ai "http://ns.adobe.com/AdobeIllustrator/10.0/">
	<!ENTITY ns_graphs "http://ns.adobe.com/Graphs/1.0/">
	<!ENTITY ns_vars "http://ns.adobe.com/Variables/1.0/">
	<!ENTITY ns_imrep "http://ns.adobe.com/ImageReplacement/1.0/">
	<!ENTITY ns_sfw "http://ns.adobe.com/SaveForWeb/1.0/">
	<!ENTITY ns_custom "http://ns.adobe.com/GenericCustomNamespace/1.0/">
	<!ENTITY ns_adobe_xpath "http://ns.adobe.com/XPath/1.0/">
]>
<svg version="1.1" id="Ebene_1" xmlns:x="&ns_extend;" xmlns:i="&ns_ai;" xmlns:graph="&ns_graphs;"
	 xmlns="http://www.w3.org/2000/svg" xmlns:xlink="http://www.w3.org/1999/xlink" x="0px" y="0px" width="92px" height="92px"
	 viewBox="0 0 92 92" enable-background="new 0 0 92 92" xml:space="preserve">
<metadata>
	<sfw  xmlns="&ns_sfw;">
		<slices></slices>
		<sliceSourceBounds  height="92" width="92.667" y="-92" x="-0.018" bottomLeftOrigin="true"></sliceSourceBounds>
	</sfw>
</metadata>
<path fill="#74A84C" d="M92,81.734C92,87.404,87.404,92,81.734,92H10.266C4.596,92,0,87.404,0,81.734V10.266
	C0,4.596,4.596,0,10.266,0h71.469C87.404,0,92,4.596,92,10.266V81.734z"/>
<g>
	<rect x="-0.018" y="76" fill="none" width="92.667" height="14.334"/>
	<path fill="#FCFCFC" d="M18.793,81.514h-3.375V85h-1.758v-8.531h5.555v1.424h-3.797v2.203h3.375V81.514z"/>
	<path fill="#FCFCFC" d="M20.112,77.02c0-0.254,0.085-0.463,0.255-0.627s0.401-0.246,0.694-0.246c0.289,0,0.52,0.082,0.691,0.246
		s0.258,0.373,0.258,0.627c0,0.258-0.087,0.469-0.261,0.633s-0.403,0.246-0.688,0.246s-0.515-0.082-0.688-0.246
		S20.112,77.277,20.112,77.02z M21.911,85h-1.699v-6.34h1.699V85z"/>
	<path fill="#FCFCFC" d="M25.092,85h-1.699v-9h1.699V85z"/>
	<path fill="#FCFCFC" d="M28.075,78.66l0.053,0.709c0.449-0.551,1.057-0.826,1.822-0.826c0.816,0,1.377,0.322,1.682,0.967
		c0.445-0.645,1.08-0.967,1.904-0.967c0.688,0,1.199,0.2,1.535,0.601s0.504,1.003,0.504,1.808V85h-1.699v-4.043
		c0-0.359-0.07-0.622-0.211-0.788s-0.389-0.249-0.744-0.249c-0.508,0-0.859,0.242-1.055,0.727L31.872,85h-1.693v-4.037
		c0-0.367-0.072-0.633-0.217-0.797s-0.391-0.246-0.738-0.246c-0.48,0-0.828,0.199-1.043,0.598V85h-1.693v-6.34H28.075z"/>
	<path fill="#FCFCFC" d="M40.549,85c-0.078-0.152-0.135-0.342-0.17-0.568c-0.41,0.457-0.943,0.686-1.6,0.686
		c-0.621,0-1.136-0.18-1.544-0.539s-0.612-0.813-0.612-1.359c0-0.672,0.249-1.188,0.747-1.547s1.218-0.541,2.159-0.545h0.779v-0.363
		c0-0.293-0.075-0.527-0.226-0.703s-0.388-0.264-0.712-0.264c-0.285,0-0.509,0.068-0.671,0.205s-0.243,0.324-0.243,0.563h-1.693
		c0-0.367,0.113-0.707,0.34-1.02s0.547-0.558,0.961-0.735s0.879-0.267,1.395-0.267c0.781,0,1.401,0.196,1.86,0.589
		s0.688,0.944,0.688,1.655v2.748c0.004,0.602,0.088,1.057,0.252,1.365V85H40.549z M38.838,76.999c0,0.208-0.076,0.384-0.229,0.526
		c-0.152,0.144-0.348,0.215-0.586,0.215c-0.242,0-0.438-0.072-0.586-0.218s-0.223-0.319-0.223-0.523s0.074-0.38,0.223-0.526
		s0.344-0.221,0.586-0.221s0.438,0.074,0.589,0.221S38.838,76.795,38.838,76.999z M39.149,83.822c0.25,0,0.48-0.056,0.691-0.167
		s0.367-0.261,0.469-0.448v-1.09h-0.633c-0.848,0-1.299,0.293-1.354,0.879l-0.006,0.1c0,0.211,0.074,0.385,0.223,0.521
		S38.891,83.822,39.149,83.822z M40.069,76.999c0-0.212,0.079-0.39,0.237-0.532s0.351-0.215,0.577-0.215
		c0.23,0,0.423,0.072,0.577,0.218s0.231,0.321,0.231,0.529c0,0.204-0.074,0.38-0.223,0.526s-0.344,0.221-0.586,0.221
		s-0.438-0.074-0.589-0.221S40.069,77.203,40.069,76.999z"/>
	<path fill="#FCFCFC" d="M46.743,83.248c0-0.207-0.103-0.37-0.308-0.489s-0.534-0.226-0.987-0.319
		c-1.508-0.316-2.262-0.957-2.262-1.922c0-0.563,0.233-1.032,0.7-1.409s1.077-0.565,1.831-0.565c0.805,0,1.449,0.189,1.931,0.568
		s0.723,0.871,0.723,1.477h-1.693c0-0.242-0.078-0.442-0.234-0.601s-0.4-0.237-0.732-0.237c-0.285,0-0.506,0.064-0.662,0.193
		s-0.234,0.293-0.234,0.492c0,0.188,0.089,0.339,0.267,0.454s0.478,0.215,0.899,0.299s0.777,0.179,1.066,0.284
		c0.895,0.328,1.342,0.896,1.342,1.705c0,0.578-0.248,1.046-0.744,1.403s-1.136,0.536-1.921,0.536c-0.531,0-1.003-0.095-1.415-0.284
		s-0.735-0.449-0.97-0.779s-0.352-0.687-0.352-1.069h1.605c0.016,0.301,0.127,0.531,0.334,0.691s0.484,0.24,0.832,0.24
		c0.324,0,0.569-0.062,0.735-0.185S46.743,83.447,46.743,83.248z"/>
	<path fill="#FCFCFC" d="M51.506,77.102v1.559h1.084v1.242h-1.084v3.164c0,0.234,0.045,0.402,0.135,0.504s0.262,0.152,0.516,0.152
		c0.188,0,0.354-0.014,0.498-0.041v1.283c-0.332,0.102-0.674,0.152-1.025,0.152c-1.188,0-1.793-0.6-1.816-1.799v-3.416h-0.926V78.66
		h0.926v-1.559H51.506z"/>
	<path fill="#FCFCFC" d="M55.186,79.352c0.449-0.539,1.014-0.809,1.693-0.809c1.375,0,2.072,0.799,2.092,2.396V85h-1.693v-4.014
		c0-0.363-0.078-0.632-0.234-0.806s-0.416-0.261-0.779-0.261c-0.496,0-0.855,0.191-1.078,0.574V85h-1.693v-9h1.693V79.352z"/>
	<path fill="#FCFCFC" d="M63.166,85.117c-0.93,0-1.686-0.285-2.27-0.855s-0.877-1.33-0.877-2.279v-0.164
		c0-0.637,0.123-1.206,0.369-1.708s0.596-0.889,1.047-1.16s0.965-0.407,1.543-0.407c0.867,0,1.551,0.273,2.049,0.82
		s0.746,1.322,0.746,2.326v0.691h-4.037c0.055,0.414,0.221,0.746,0.496,0.996s0.623,0.375,1.045,0.375
		c0.652,0,1.162-0.236,1.529-0.709l0.832,0.932c-0.254,0.359-0.598,0.64-1.031,0.841S63.693,85.117,63.166,85.117z M62.973,79.908
		c-0.336,0-0.607,0.113-0.816,0.342c-0.209,0.227-0.344,0.553-0.402,0.977h2.355v-0.135c-0.008-0.377-0.109-0.668-0.305-0.875
		C63.609,80.012,63.332,79.908,62.973,79.908z"/>
	<path fill="#FCFCFC" d="M68.762,77.102v1.559h1.084v1.242h-1.084v3.164c0,0.234,0.045,0.402,0.135,0.504s0.262,0.152,0.516,0.152
		c0.188,0,0.354-0.014,0.498-0.041v1.283c-0.332,0.102-0.674,0.152-1.025,0.152c-1.188,0-1.793-0.6-1.816-1.799v-3.416h-0.926V78.66
		h0.926v-1.559H68.762z"/>
	<path fill="#FCFCFC" d="M70.777,77.02c0-0.254,0.086-0.463,0.256-0.627s0.4-0.246,0.693-0.246c0.289,0,0.52,0.082,0.691,0.246
		s0.258,0.373,0.258,0.627c0,0.258-0.086,0.469-0.26,0.633s-0.404,0.246-0.689,0.246s-0.514-0.082-0.688-0.246
		S70.777,77.277,70.777,77.02z M72.576,85h-1.699v-6.34h1.699V85z"/>
	<path fill="#FCFCFC" d="M76.273,82.457l-0.609,0.609V85h-1.693v-9h1.693v4.986l0.328-0.422l1.623-1.904h2.033l-2.291,2.643
		L79.848,85h-1.945L76.273,82.457z"/>
</g>
<g opacity="0.4">
	<rect x="60.131" y="42.165" fill="none" stroke="#FFFFFF" stroke-width="2" width="1.201" height="1.201"/>
	<rect x="60.131" y="43.366" fill="none" stroke="#FFFFFF" stroke-width="2" width="1.201" height="1.203"/>
	<rect x="61.332" y="42.173" fill="none" stroke="#FFFFFF" stroke-width="2" width="2.404" height="2.396"/>
	<rect x="60.131" y="38.558" fill="none" stroke="#FFFFFF" stroke-width="2" width="3.605" height="3.607"/>
	<rect x="54.119" y="38.558" fill="none" stroke="#FFFFFF" stroke-width="2" width="6.012" height="6.012"/>
	<rect x="54.119" y="44.538" fill="none" stroke="#FFFFFF" stroke-width="2" width="9.617" height="9.647"/>
	<rect x="63.734" y="38.566" fill="none" stroke="#FFFFFF" stroke-width="2" width="15.639" height="15.61"/>
	<rect x="54.129" y="13.314" fill="none" stroke="#FFFFFF" stroke-width="2" width="25.244" height="25.244"/>
	<rect x="13.257" y="13.314" fill="none" stroke="#FFFFFF" stroke-width="2" width="40.872" height="40.872"/>
</g>
<g>
	<path fill="none" stroke="#FFFFFF" stroke-width="4" d="M61.332,44.569c-0.664,0-1.201-0.539-1.201-1.203"/>
	<path fill="none" stroke="#FFFFFF" stroke-width="4" d="M63.736,42.165c0,1.327-1.076,2.404-2.404,2.404"/>
	<path fill="none" stroke="#FFFFFF" stroke-width="4" d="M60.131,38.558c1.991,0,3.605,1.615,3.605,3.607"/>
	<path fill="none" stroke="#FFFFFF" stroke-width="4" d="M54.119,44.569c0-3.32,2.691-6.012,6.012-6.012"/>
	<path fill="none" stroke="#FFFFFF" stroke-width="4" d="M63.736,54.185c-5.311,0-9.617-4.305-9.617-9.616"/>
	<path fill="none" stroke="#FFFFFF" stroke-width="4" d="M79.363,38.558c0,8.631-6.996,15.628-15.627,15.628"/>
	<path fill="none" stroke="#FFFFFF" stroke-width="4" d="M13.257,54.186c0-22.573,18.299-40.872,40.872-40.872"/>
	<path fill="none" stroke="#FFFFFF" stroke-width="4" d="M54.129,13.314c13.941,0,25.244,11.302,25.244,25.244"/>
</g>
</svg>
