<?xml version="1.0" encoding="utf-8"?>
<!-- Generator: Adobe Illustrator 16.0.3, SVG Export Plug-In . SVG Version: 6.00 Build 0)  -->
<!DOCTYPE svg PUBLIC "-//W3C//DTD SVG 1.1//EN" "http://www.w3.org/Graphics/SVG/1.1/DTD/svg11.dtd" [
	<!ENTITY ns_extend "http://ns.adobe.com/Extensibility/1.0/">
	<!ENTITY ns_ai "http://ns.adobe.com/AdobeIllustrator/10.0/">
	<!ENTITY ns_graphs "http://ns.adobe.com/Graphs/1.0/">
	<!ENTITY ns_vars "http://ns.adobe.com/Variables/1.0/">
	<!ENTITY ns_imrep "http://ns.adobe.com/ImageReplacement/1.0/">
	<!ENTITY ns_sfw "http://ns.adobe.com/SaveForWeb/1.0/">
	<!ENTITY ns_custom "http://ns.adobe.com/GenericCustomNamespace/1.0/">
	<!ENTITY ns_adobe_xpath "http://ns.adobe.com/XPath/1.0/">
]>
<svg version="1.1" id="Ebene_1" xmlns:x="&ns_extend;" xmlns:i="&ns_ai;" xmlns:graph="&ns_graphs;"
	 xmlns="http://www.w3.org/2000/svg" xmlns:xlink="http://www.w3.org/1999/xlink" x="0px" y="0px" width="92px" height="92px"
	 viewBox="0 0 92 92" enable-background="new 0 0 92 92" xml:space="preserve">
<metadata>
	<sfw  xmlns="&ns_sfw;">
		<slices></slices>
		<sliceSourceBounds  height="92" width="92" y="0.5" x="-0.5" bottomLeftOrigin="true"></sliceSourceBounds>
	</sfw>
</metadata>
<path fill="#FF4A51" d="M92,81.734C92,87.404,87.404,92,81.734,92H10.266C4.596,92,0,87.404,0,81.734V10.266
	C0,4.596,4.596,0,10.266,0h71.468C87.404,0,92,4.596,92,10.266V81.734z"/>
<g>
	<path fill="#FCFCFC" d="M27.825,83.921c-0.316,0.379-0.764,0.674-1.342,0.883s-1.219,0.313-1.922,0.313
		c-0.738,0-1.386-0.161-1.942-0.483c-0.556-0.321-0.986-0.79-1.289-1.403c-0.303-0.612-0.458-1.334-0.466-2.162v-0.579
		c0-0.853,0.144-1.589,0.431-2.212s0.701-1.101,1.242-1.43c0.541-0.33,1.175-0.496,1.901-0.496c1.012,0,1.803,0.241,2.373,0.725
		c0.57,0.482,0.908,1.185,1.014,2.105h-1.711c-0.078-0.488-0.251-0.846-0.519-1.072c-0.268-0.226-0.636-0.34-1.104-0.34
		c-0.598,0-1.053,0.226-1.365,0.674c-0.312,0.449-0.471,1.117-0.475,2.005v0.545c0,0.896,0.17,1.569,0.51,2.026
		c0.34,0.457,0.838,0.687,1.494,0.687c0.66,0,1.131-0.142,1.412-0.422v-1.472h-1.6v-1.295h3.357L27.825,83.921L27.825,83.921z"/>
	<path fill="#FCFCFC" d="M32.055,85.116c-0.93,0-1.687-0.285-2.271-0.855s-0.876-1.33-0.876-2.279v-0.164
		c0-0.637,0.123-1.205,0.369-1.707s0.595-0.889,1.046-1.16c0.451-0.271,0.966-0.407,1.544-0.407c0.867,0,1.55,0.272,2.048,0.819
		c0.498,0.548,0.747,1.322,0.747,2.326v0.691h-4.037c0.055,0.414,0.22,0.746,0.495,0.996s0.624,0.375,1.046,0.375
		c0.652,0,1.162-0.236,1.529-0.709l0.832,0.932c-0.254,0.359-0.598,0.641-1.031,0.842S32.583,85.116,32.055,85.116z M31.862,79.907
		c-0.336,0-0.608,0.113-0.817,0.342c-0.209,0.227-0.343,0.553-0.401,0.977h2.355v-0.135c-0.008-0.377-0.109-0.668-0.305-0.875
		C32.499,80.011,32.221,79.907,31.862,79.907z"/>
	<path fill="#FCFCFC" d="M41.336,81.888c0,1.016-0.217,1.809-0.65,2.377c-0.433,0.567-1.039,0.853-1.816,0.853
		c-0.688,0-1.236-0.265-1.646-0.791l-0.077,0.673h-1.523v-9h1.693v3.229c0.391-0.457,0.904-0.686,1.541-0.686
		c0.773,0,1.38,0.284,1.819,0.854c0.439,0.568,0.659,1.367,0.659,2.398V81.888z M39.643,81.765c0-0.641-0.102-1.107-0.305-1.402
		c-0.203-0.295-0.506-0.442-0.908-0.442c-0.539,0-0.91,0.222-1.113,0.662v2.502c0.207,0.444,0.582,0.668,1.125,0.668
		c0.547,0,0.906-0.271,1.078-0.81C39.602,82.685,39.643,82.292,39.643,81.765z"/>
	<path fill="#FCFCFC" d="M45.942,80.247c-0.23-0.031-0.434-0.047-0.609-0.047c-0.641,0-1.061,0.217-1.26,0.65v4.148H42.38v-6.34h1.6
		l0.047,0.756c0.34-0.582,0.811-0.873,1.412-0.873c0.188,0,0.363,0.025,0.527,0.076L45.942,80.247z"/>
	<path fill="#FCFCFC" d="M50.254,84.999c-0.078-0.152-0.135-0.342-0.17-0.568c-0.41,0.457-0.943,0.687-1.6,0.687
		c-0.621,0-1.135-0.181-1.543-0.539s-0.612-0.813-0.612-1.358c0-0.673,0.249-1.188,0.748-1.548c0.498-0.358,1.217-0.541,2.157-0.545
		h0.779v-0.362c0-0.293-0.074-0.527-0.225-0.703c-0.15-0.177-0.389-0.265-0.713-0.265c-0.285,0-0.508,0.068-0.67,0.205
		c-0.162,0.138-0.244,0.324-0.244,0.563h-1.693c0-0.367,0.113-0.707,0.339-1.021s0.547-0.558,0.961-0.735
		c0.414-0.177,0.879-0.267,1.395-0.267c0.781,0,1.402,0.196,1.861,0.589s0.688,0.944,0.688,1.655v2.748
		c0.004,0.603,0.088,1.057,0.252,1.364v0.1H50.254z M48.854,83.821c0.25,0,0.48-0.057,0.691-0.168
		c0.211-0.11,0.367-0.26,0.469-0.447v-1.09h-0.633c-0.848,0-1.299,0.293-1.354,0.879l-0.006,0.1c0,0.211,0.074,0.385,0.223,0.521
		C48.393,83.752,48.596,83.821,48.854,83.821z"/>
	<path fill="#FCFCFC" d="M56.811,84.354c-0.418,0.508-0.996,0.762-1.733,0.762c-0.681,0-1.197-0.195-1.556-0.586
		c-0.357-0.391-0.541-0.963-0.549-1.717v-4.154h1.693v4.101c0,0.661,0.301,0.991,0.902,0.991c0.574,0,0.969-0.199,1.184-0.6v-4.492
		h1.699v6.34h-1.594L56.811,84.354z"/>
	<path fill="#FCFCFC" d="M62.365,83.751c0.313,0,0.566-0.086,0.762-0.258s0.297-0.4,0.305-0.686h1.588
		c-0.004,0.43-0.121,0.822-0.352,1.181s-0.545,0.635-0.945,0.831c-0.4,0.197-0.844,0.297-1.328,0.297
		c-0.906,0-1.621-0.288-2.145-0.864s-0.785-1.372-0.785-2.388v-0.111c0-0.977,0.26-1.756,0.779-2.338s1.232-0.873,2.139-0.873
		c0.793,0,1.43,0.227,1.908,0.678c0.479,0.45,0.721,1.051,0.729,1.801h-1.588c-0.008-0.33-0.109-0.598-0.305-0.805
		c-0.195-0.205-0.453-0.309-0.773-0.309c-0.395,0-0.69,0.145-0.893,0.432s-0.303,0.754-0.303,1.399v0.176
		c0,0.653,0.1,1.123,0.299,1.409C61.656,83.608,61.959,83.751,62.365,83.751z"/>
	<path fill="#FCFCFC" d="M67.639,79.351c0.449-0.539,1.014-0.809,1.693-0.809c1.375,0,2.072,0.799,2.092,2.396v4.061H69.73v-4.014
		c0-0.363-0.078-0.633-0.234-0.807s-0.416-0.261-0.779-0.261c-0.496,0-0.855,0.19-1.078,0.574v4.507h-1.693v-9h1.693V79.351z"/>
</g>
<path fill="none" d="M60.607,1.045c0,15.088,0,29.461,0,44.328c-9.34-3.126-18.295-6.076-27.194-9.186
	c-0.737-0.257-1.546-1.583-1.562-2.427c-0.125-6.977-0.124-13.958-0.007-20.936c0.015-0.895,0.713-2.328,1.422-2.576
	C42.167,7.141,51.126,4.204,60.607,1.045z"/>
<g>
	<path fill="#FFFFFF" d="M80.738,11.681c-9.219,3.013-18.399,6.137-27.631,9.104c-1.637,0.526-2.178,1.275-2.151,2.957
		c0.091,5.829,0.035,11.66,0.035,17.49c0,6.241,0,6.241,5.979,8.22c5.774,1.911,12.691,4.343,12.691,4.343
		c4.839,1.482,9.711,2.977,14.91,4.571V11.03C83.178,11.258,81.902,11.301,80.738,11.681z M78.958,53.637
		c-8.079-2.703-15.824-5.256-23.522-7.945c-0.638-0.222-1.336-1.369-1.351-2.099c-0.106-6.034-0.106-12.073-0.006-18.107
		c0.013-0.774,0.616-2.014,1.229-2.229c7.698-2.688,15.447-5.229,23.648-7.961L78.958,53.637L78.958,53.637z"/>
	<g transform="translate(-1077.7 -229.82)">
		<path fill="#FFFFFF" d="M1104.498,288.185L1104.498,288.185c0.303-2.061,0.687-3.594,1.229-4.067c1.574,0,3.147-0.03,4.71-0.03
			c0.998-0.201,1.646-0.656,2.107-1.422c0.464-0.777-0.1-1.816-0.393-2.816c-0.202-0.646,0.373-1.17,0.766-1.625
			c0.383-0.463-0.797-0.969-0.463-1.229c0.312-0.253,0.655-0.414,0.716-0.817c0.061-0.475-0.544-0.728-0.555-1.241
			c-0.061-0.313-0.333-0.737-0.132-0.988c0.282-0.344,0.747-0.243,1.17-0.385c0.444-0.272,1.362-0.545,1.22-1.321
			c-0.231-1.292-2.924-3.986-4.093-5.813c0.251-0.555,0.321-1.089,0.251-1.624c-0.666-4.995-5.401-9.831-13.916-8.94
			c-9.643,1.007-13.906,8.597-10.417,17.315c0.686,1.716,2.511,3.331,3.075,5.47c0.343,1.261-0.454,6.407-1.119,9.537h15.844
			V288.185z"/>
	</g>
	<g>
		<path fill="#FFFFFF" d="M38.715,21.271c0.042-1.19,0.218-2.137,0.53-2.842c0.314-0.707,0.866-1.401,1.659-2.084
			c0.793-0.687,1.324-1.242,1.594-1.671c0.27-0.429,0.411-0.882,0.428-1.358c0.051-1.437-0.585-2.155-1.91-2.155
			c-0.628,0-1.138,0.192-1.529,0.581c-0.392,0.386-0.608,0.921-0.648,1.6h-3.693c0.073-1.621,0.643-2.893,1.707-3.809
			c1.063-0.92,2.485-1.378,4.269-1.378c1.801,0,3.182,0.435,4.144,1.307c0.963,0.87,1.416,2.102,1.361,3.689
			c-0.025,0.724-0.21,1.405-0.556,2.046c-0.345,0.644-0.934,1.354-1.768,2.135l-1.066,0.983c-0.667,0.619-1.062,1.345-1.184,2.18
			l-0.078,0.776H38.715z M38.208,25.175c0.021-0.567,0.229-1.034,0.628-1.403c0.399-0.367,0.901-0.553,1.504-0.553
			s1.091,0.186,1.464,0.553c0.374,0.369,0.551,0.836,0.53,1.403c-0.019,0.557-0.225,1.019-0.615,1.383
			c-0.39,0.363-0.896,0.546-1.515,0.546c-0.62,0-1.112-0.183-1.478-0.546C38.361,26.193,38.189,25.731,38.208,25.175z"/>
	</g>
</g>
</svg>
