<?xml version="1.0" encoding="utf-8"?>
<!-- Generator: Adobe Illustrator 16.0.3, SVG Export Plug-In . SVG Version: 6.00 Build 0)  -->
<!DOCTYPE svg PUBLIC "-//W3C//DTD SVG 1.1//EN" "http://www.w3.org/Graphics/SVG/1.1/DTD/svg11.dtd" [
	<!ENTITY ns_extend "http://ns.adobe.com/Extensibility/1.0/">
	<!ENTITY ns_ai "http://ns.adobe.com/AdobeIllustrator/10.0/">
	<!ENTITY ns_graphs "http://ns.adobe.com/Graphs/1.0/">
	<!ENTITY ns_vars "http://ns.adobe.com/Variables/1.0/">
	<!ENTITY ns_imrep "http://ns.adobe.com/ImageReplacement/1.0/">
	<!ENTITY ns_sfw "http://ns.adobe.com/SaveForWeb/1.0/">
	<!ENTITY ns_custom "http://ns.adobe.com/GenericCustomNamespace/1.0/">
	<!ENTITY ns_adobe_xpath "http://ns.adobe.com/XPath/1.0/">
]>
<svg version="1.1" id="Ebene_1" xmlns:x="&ns_extend;" xmlns:i="&ns_ai;" xmlns:graph="&ns_graphs;"
	 xmlns="http://www.w3.org/2000/svg" xmlns:xlink="http://www.w3.org/1999/xlink" x="0px" y="0px" width="92px" height="92px"
	 viewBox="0 0 92 92" enable-background="new 0 0 92 92" xml:space="preserve">
<metadata>
	<sfw  xmlns="&ns_sfw;">
		<slices></slices>
		<sliceSourceBounds  height="95.334" width="92.865" y="-2.834" x="-0.5" bottomLeftOrigin="true"></sliceSourceBounds>
	</sfw>
</metadata>
<path fill="#FF931E" d="M92,81.734C92,87.404,87.404,92,81.734,92H10.266C4.596,92,0,87.404,0,81.734V10.266
	C0,4.596,4.596,0,10.266,0h71.468C87.404,0,92,4.596,92,10.266V81.734z"/>
<g>
	<rect x="0.199" y="67.666" fill="none" width="92.666" height="27.668"/>
	<path fill="#FCFCFC" d="M11.643,73.66v3.006H9.885v-8.531h3.328c0.641,0,1.204,0.117,1.69,0.352c0.486,0.236,0.86,0.568,1.122,1
		c0.262,0.433,0.393,0.923,0.393,1.474c0,0.836-0.286,1.496-0.858,1.979c-0.572,0.482-1.364,0.723-2.376,0.723h-1.541V73.66z
		 M11.643,72.236h1.57c0.465,0,0.819-0.109,1.063-0.328c0.244-0.219,0.366-0.531,0.366-0.938c0-0.419-0.123-0.757-0.369-1.015
		s-0.586-0.392-1.02-0.397h-1.611L11.643,72.236L11.643,72.236z"/>
	<path fill="#FCFCFC" d="M17.174,73.438c0-0.629,0.121-1.188,0.363-1.682c0.242-0.492,0.591-0.873,1.046-1.143
		c0.455-0.271,0.983-0.404,1.585-0.404c0.855,0,1.554,0.262,2.095,0.785s0.843,1.234,0.905,2.133l0.012,0.434
		c0,0.974-0.271,1.754-0.814,2.342c-0.543,0.589-1.271,0.882-2.186,0.882s-1.644-0.293-2.188-0.879
		c-0.544-0.587-0.817-1.384-0.817-2.392L17.174,73.438L17.174,73.438z M18.867,73.559c0,0.603,0.113,1.063,0.34,1.381
		c0.227,0.32,0.551,0.479,0.973,0.479c0.41,0,0.73-0.155,0.961-0.474c0.23-0.313,0.346-0.817,0.346-1.51
		c0-0.592-0.115-1.049-0.346-1.373c-0.23-0.324-0.555-0.487-0.973-0.487c-0.414,0-0.734,0.161-0.961,0.483
		C18.98,72.382,18.867,72.881,18.867,73.559z"/>
	<path fill="#FCFCFC" d="M26.01,76.666h-1.699v-9h1.699V76.666z"/>
	<path fill="#FCFCFC" d="M27.393,68.686c0-0.254,0.085-0.463,0.255-0.627s0.401-0.246,0.694-0.246c0.289,0,0.52,0.082,0.691,0.246
		c0.171,0.164,0.258,0.373,0.258,0.627c0,0.258-0.087,0.469-0.261,0.633c-0.174,0.164-0.403,0.246-0.688,0.246
		c-0.285,0-0.515-0.082-0.688-0.246C27.481,69.154,27.393,68.943,27.393,68.686z M29.191,76.666h-1.699v-6.34h1.699V76.666z"/>
	<path fill="#FCFCFC" d="M32.613,68.768v1.56h1.084v1.241h-1.084v3.164c0,0.234,0.045,0.402,0.135,0.504
		c0.09,0.103,0.262,0.152,0.516,0.152c0.188,0,0.354-0.014,0.498-0.041v1.283c-0.332,0.102-0.674,0.152-1.025,0.152
		c-1.188,0-1.793-0.6-1.816-1.799v-3.416h-0.926v-1.242h0.926v-1.559H32.613L32.613,68.768z"/>
	<path fill="#FCFCFC" d="M34.629,68.686c0-0.254,0.085-0.463,0.255-0.627c0.17-0.164,0.401-0.246,0.694-0.246
		c0.289,0,0.52,0.082,0.691,0.246s0.258,0.373,0.258,0.627c0,0.258-0.087,0.469-0.261,0.633c-0.174,0.164-0.403,0.246-0.688,0.246
		c-0.285,0-0.515-0.082-0.688-0.246C34.717,69.154,34.629,68.943,34.629,68.686z M36.428,76.666h-1.699v-6.34h1.699V76.666z"/>
	<path fill="#FCFCFC" d="M40.125,74.123l-0.609,0.609v1.934h-1.693v-9h1.693v4.986l0.328-0.422l1.623-1.904H43.5l-2.291,2.643
		l2.49,3.697h-1.945L40.125,74.123z"/>
	<path fill="#FCFCFC" d="M44.672,78.805l-0.885-0.463l0.211-0.381c0.262-0.477,0.396-0.951,0.404-1.424v-1.313h1.43l-0.006,1.172
		c-0.004,0.434-0.113,0.871-0.328,1.313S45.008,78.516,44.672,78.805z"/>
	<path fill="#FCFCFC" d="M52.934,73.244l-0.914,0.984v2.438h-1.758v-8.531h1.758v3.867l0.773-1.061l2.174-2.808h2.162L54.1,71.926
		l3.117,4.74h-2.092L52.934,73.244z"/>
	<path fill="#FCFCFC" d="M61.43,76.021c-0.418,0.508-0.996,0.762-1.734,0.762c-0.68,0-1.197-0.195-1.555-0.586
		c-0.358-0.391-0.541-0.963-0.549-1.717v-4.154h1.693v4.102c0,0.66,0.301,0.99,0.902,0.99c0.574,0,0.969-0.199,1.184-0.598v-4.494
		h1.699v6.34h-1.594L61.43,76.021z"/>
	<path fill="#FCFCFC" d="M66.135,76.666h-1.699v-9h1.699V76.666z"/>
	<path fill="#FCFCFC" d="M69.557,68.768v1.56h1.084v1.241h-1.084v3.164c0,0.234,0.045,0.402,0.135,0.504
		c0.091,0.103,0.263,0.152,0.517,0.152c0.188,0,0.354-0.014,0.498-0.041v1.283c-0.332,0.102-0.674,0.152-1.024,0.152
		c-1.188,0-1.793-0.6-1.816-1.799v-3.416h-0.926v-1.242h0.926v-1.559H69.557L69.557,68.768z"/>
	<path fill="#FCFCFC" d="M75.381,76.021c-0.418,0.508-0.996,0.762-1.734,0.762c-0.68,0-1.197-0.195-1.556-0.586
		s-0.54-0.963-0.548-1.717v-4.154h1.693v4.102c0,0.66,0.301,0.99,0.902,0.99c0.573,0,0.969-0.199,1.184-0.598v-4.494h1.699v6.34
		h-1.594L75.381,76.021z"/>
	<path fill="#FCFCFC" d="M81.861,71.914c-0.23-0.031-0.434-0.047-0.609-0.047c-0.641,0-1.061,0.217-1.26,0.65v4.147h-1.693v-6.34
		h1.6l0.047,0.756c0.341-0.582,0.812-0.873,1.412-0.873c0.188,0,0.363,0.024,0.527,0.076L81.861,71.914z"/>
	<path fill="#FCFCFC" d="M82.102,78.805l-0.885-0.463l0.211-0.381c0.262-0.477,0.396-0.951,0.404-1.424v-1.313h1.43l-0.006,1.172
		c-0.004,0.434-0.113,0.871-0.328,1.313S82.438,78.516,82.102,78.805z"/>
	<path fill="#FCFCFC" d="M20.238,87.588c-0.316,0.379-0.764,0.674-1.342,0.883s-1.219,0.313-1.922,0.313
		c-0.738,0-1.386-0.16-1.942-0.482c-0.556-0.321-0.986-0.791-1.289-1.403c-0.303-0.613-0.458-1.334-0.466-2.162v-0.58
		c0-0.852,0.144-1.588,0.431-2.211s0.701-1.1,1.242-1.43s1.175-0.496,1.901-0.496c1.012,0,1.803,0.241,2.373,0.725
		c0.57,0.482,0.908,1.184,1.014,2.105h-1.711c-0.078-0.488-0.251-0.847-0.519-1.072c-0.268-0.227-0.636-0.34-1.104-0.34
		c-0.598,0-1.053,0.225-1.365,0.674s-0.471,1.117-0.475,2.004v0.545c0,0.895,0.17,1.57,0.51,2.027
		c0.34,0.457,0.838,0.686,1.494,0.686c0.66,0,1.131-0.141,1.412-0.422V85.48h-1.6v-1.295h3.357L20.238,87.588L20.238,87.588z"/>
	<path fill="#FCFCFC" d="M24.469,88.783c-0.93,0-1.687-0.285-2.271-0.855c-0.584-0.57-0.876-1.33-0.876-2.279v-0.164
		c0-0.637,0.123-1.205,0.369-1.707s0.595-0.889,1.046-1.159c0.451-0.271,0.966-0.408,1.544-0.408c0.867,0,1.55,0.272,2.048,0.819
		c0.498,0.548,0.747,1.322,0.747,2.326v0.691h-4.037c0.055,0.414,0.22,0.746,0.495,0.996c0.275,0.25,0.624,0.375,1.046,0.375
		c0.652,0,1.162-0.236,1.529-0.709l0.832,0.932c-0.254,0.359-0.598,0.642-1.031,0.842C25.477,88.684,24.996,88.783,24.469,88.783z
		 M24.275,83.574c-0.336,0-0.608,0.113-0.817,0.342s-0.343,0.553-0.401,0.977h2.355v-0.135c-0.008-0.377-0.109-0.668-0.305-0.874
		C24.911,83.678,24.635,83.574,24.275,83.574z"/>
	<path fill="#FCFCFC" d="M31.471,86.914c0-0.207-0.103-0.369-0.308-0.488s-0.534-0.227-0.987-0.32
		c-1.508-0.315-2.262-0.957-2.262-1.922c0-0.563,0.233-1.031,0.7-1.408c0.467-0.377,1.077-0.565,1.831-0.565
		c0.805,0,1.448,0.188,1.931,0.567c0.483,0.38,0.724,0.871,0.724,1.478h-1.693c0-0.241-0.078-0.44-0.234-0.601
		c-0.156-0.158-0.4-0.237-0.732-0.237c-0.285,0-0.506,0.063-0.662,0.192c-0.156,0.13-0.234,0.293-0.234,0.492
		c0,0.188,0.089,0.34,0.267,0.455s0.478,0.215,0.899,0.299s0.777,0.179,1.066,0.283c0.895,0.328,1.342,0.896,1.342,1.705
		c0,0.578-0.248,1.047-0.744,1.404s-1.137,0.535-1.922,0.535c-0.531,0-1.003-0.094-1.415-0.283s-0.735-0.449-0.97-0.779
		c-0.235-0.33-0.352-0.688-0.352-1.07h1.605c0.016,0.302,0.127,0.531,0.334,0.691s0.484,0.24,0.832,0.24
		c0.324,0,0.569-0.061,0.735-0.184S31.471,87.113,31.471,86.914z"/>
	<path fill="#FCFCFC" d="M37.125,88.783c-0.93,0-1.687-0.285-2.271-0.855s-0.876-1.33-0.876-2.279v-0.164
		c0-0.637,0.123-1.205,0.369-1.707c0.246-0.502,0.595-0.889,1.046-1.159s0.966-0.408,1.544-0.408c0.867,0,1.55,0.272,2.048,0.819
		c0.498,0.548,0.747,1.322,0.747,2.326v0.691h-4.037c0.055,0.414,0.22,0.746,0.495,0.996s0.624,0.375,1.046,0.375
		c0.652,0,1.162-0.236,1.529-0.709l0.832,0.932C39.344,88,39,88.281,38.566,88.482S37.652,88.783,37.125,88.783z M36.932,83.574
		c-0.336,0-0.608,0.113-0.817,0.342c-0.209,0.229-0.343,0.553-0.401,0.977h2.355v-0.135c-0.008-0.377-0.109-0.668-0.305-0.874
		C37.568,83.678,37.291,83.574,36.932,83.574z"/>
	<path fill="#FCFCFC" d="M42.48,88.666h-1.699v-9h1.699V88.666z"/>
	<path fill="#FCFCFC" d="M45.662,88.666h-1.699v-9h1.699V88.666z"/>
	<path fill="#FCFCFC" d="M50.49,86.914c0-0.207-0.104-0.369-0.309-0.488s-0.533-0.227-0.986-0.32
		c-1.508-0.315-2.262-0.957-2.262-1.922c0-0.563,0.232-1.031,0.699-1.408s1.077-0.565,1.831-0.565c0.806,0,1.448,0.188,1.931,0.567
		c0.483,0.38,0.725,0.871,0.725,1.478h-1.693c0-0.241-0.078-0.44-0.234-0.601c-0.155-0.158-0.399-0.237-0.731-0.237
		c-0.285,0-0.506,0.063-0.662,0.192c-0.155,0.13-0.233,0.293-0.233,0.492c0,0.188,0.088,0.34,0.267,0.455
		c0.178,0.115,0.478,0.215,0.899,0.299c0.42,0.084,0.776,0.179,1.065,0.283c0.896,0.328,1.343,0.896,1.343,1.705
		c0,0.578-0.248,1.047-0.744,1.404s-1.138,0.535-1.922,0.535c-0.531,0-1.004-0.094-1.416-0.283s-0.734-0.449-0.97-0.779
		s-0.353-0.688-0.353-1.07h1.605c0.016,0.302,0.127,0.531,0.334,0.691s0.484,0.24,0.832,0.24c0.324,0,0.569-0.061,0.735-0.184
		S50.49,87.113,50.49,86.914z"/>
	<path fill="#FCFCFC" d="M55.863,87.418c0.313,0,0.566-0.086,0.762-0.258s0.297-0.4,0.305-0.686h1.588
		c-0.004,0.43-0.121,0.823-0.352,1.182c-0.23,0.357-0.546,0.635-0.945,0.832c-0.4,0.197-0.844,0.295-1.328,0.295
		c-0.906,0-1.621-0.287-2.145-0.863s-0.785-1.373-0.785-2.389V85.42c0-0.977,0.26-1.756,0.779-2.338s1.232-0.873,2.139-0.873
		c0.793,0,1.43,0.227,1.907,0.678s0.722,1.051,0.729,1.801H56.93c-0.008-0.328-0.109-0.598-0.305-0.804s-0.453-0.31-0.773-0.31
		c-0.395,0-0.691,0.145-0.894,0.432s-0.302,0.754-0.302,1.4v0.176c0,0.652,0.1,1.123,0.299,1.408S55.457,87.418,55.863,87.418z"/>
	<path fill="#FCFCFC" d="M61.137,83.018c0.449-0.539,1.014-0.809,1.693-0.809c1.375,0,2.072,0.799,2.092,2.396v4.061h-1.693v-4.014
		c0-0.363-0.078-0.631-0.233-0.805c-0.156-0.175-0.416-0.263-0.779-0.263c-0.495,0-0.854,0.19-1.077,0.574v4.506h-1.693v-9h1.693
		v3.353H61.137z"/>
	<path fill="#FCFCFC" d="M69.873,88.666c-0.078-0.152-0.135-0.342-0.17-0.568c-0.41,0.457-0.943,0.687-1.6,0.687
		c-0.621,0-1.137-0.181-1.545-0.539c-0.408-0.359-0.611-0.813-0.611-1.359c0-0.672,0.248-1.188,0.746-1.547
		c0.498-0.358,1.219-0.541,2.16-0.545h0.778V84.43c0-0.293-0.075-0.527-0.226-0.703c-0.151-0.176-0.389-0.264-0.713-0.264
		c-0.284,0-0.508,0.068-0.67,0.205s-0.244,0.324-0.244,0.563h-1.692c0-0.366,0.113-0.707,0.341-1.02
		c0.227-0.313,0.547-0.557,0.961-0.734c0.414-0.177,0.879-0.268,1.395-0.268c0.781,0,1.4,0.197,1.859,0.59s0.688,0.943,0.688,1.654
		v2.748c0.004,0.602,0.088,1.057,0.252,1.365v0.1H69.873z M68.473,87.488c0.25,0,0.48-0.055,0.691-0.166s0.367-0.262,0.469-0.449
		v-1.09H69c-0.848,0-1.299,0.293-1.354,0.879l-0.006,0.1c0,0.211,0.073,0.385,0.223,0.521
		C68.012,87.419,68.215,87.488,68.473,87.488z"/>
	<path fill="#FCFCFC" d="M73.096,88.666v-5.098h-0.943v-1.242h0.943v-0.539c0-0.711,0.204-1.262,0.612-1.654
		c0.408-0.392,0.979-0.59,1.714-0.59c0.234,0,0.521,0.039,0.861,0.117l-0.018,1.313c-0.142-0.035-0.313-0.053-0.517-0.053
		c-0.638,0-0.955,0.299-0.955,0.896v0.51h1.261v1.242h-1.261v5.098H73.096z"/>
	<path fill="#FCFCFC" d="M78.961,80.768v1.56h1.084v1.241h-1.084v3.164c0,0.234,0.045,0.402,0.135,0.504
		c0.09,0.103,0.262,0.152,0.516,0.152c0.188,0,0.354-0.014,0.498-0.041v1.283c-0.332,0.102-0.674,0.152-1.024,0.152
		c-1.188,0-1.793-0.6-1.815-1.799v-3.416h-0.927v-1.242h0.927v-1.559H78.961L78.961,80.768z"/>
</g>
<g>
	<g>
		<circle fill="#FFFFFF" stroke="#FF931E" stroke-width="2.2683" stroke-miterlimit="10" cx="46.414" cy="32.238" r="5.124"/>
		<circle fill="#FFFFFF" stroke="#FF931E" stroke-width="2.2683" stroke-miterlimit="10" cx="46.656" cy="37.667" r="5.123"/>
		<path fill="#FFFFFF" stroke="#FF931E" stroke-width="2.2683" stroke-miterlimit="10" d="M54.646,46.02
			c2.606,0,4.719-2.113,4.719-4.72c0-2.607-2.111-4.72-4.719-4.72c-2.582,0-4.679,2.074-4.717,4.648
			c1.487,0.934,2.53,2.512,2.723,4.344C53.258,45.857,53.932,46.02,54.646,46.02z"/>
		<path fill="#FFFFFF" stroke="#FF931E" stroke-width="2.2683" stroke-miterlimit="10" d="M38.553,36.579
			c-2.605,0-4.719,2.113-4.719,4.72c0,2.607,2.113,4.721,4.719,4.721c0.924,0,1.783-0.271,2.512-0.729
			c0.232-1.51,1.039-2.828,2.197-3.727c0.004-0.088,0.012-0.176,0.012-0.266C43.273,38.692,41.16,36.579,38.553,36.579z"/>
		<path fill="#FFFFFF" stroke="#FF931E" stroke-width="2.2683" stroke-miterlimit="10" d="M57.713,36.479
			c1.488,0.934,2.531,2.512,2.723,4.344c0.604,0.285,1.279,0.448,1.992,0.448c2.607,0,4.721-2.112,4.721-4.721
			c0-2.606-2.112-4.72-4.721-4.72C59.846,31.829,57.752,33.905,57.713,36.479z"/>
		<circle fill="#FFFFFF" stroke="#FF931E" stroke-width="2.2683" stroke-miterlimit="10" cx="46.838" cy="46.173" r="4.721"/>
		<path fill="#FFFFFF" stroke="#FF931E" stroke-width="2.2683" stroke-miterlimit="10" d="M56.648,46.342h-3.974
			c-0.045,1.59-0.725,3.022-1.797,4.053c2.961,0.881,5.131,3.629,5.131,6.873v1.51c3.925-0.146,6.187-1.256,6.334-1.332l0.314-0.16
			h0.032v-4.898C62.693,49.053,59.98,46.342,56.648,46.342z"/>
		<path fill="#FFFFFF" stroke="#FF931E" stroke-width="2.2683" stroke-miterlimit="10" d="M64.432,41.592h-3.975
			c-0.043,1.59-0.723,3.023-1.795,4.052c2.963,0.883,5.129,3.629,5.129,6.874v1.51c3.924-0.146,6.188-1.256,6.336-1.332l0.314-0.16
			h0.033v-4.898C70.475,44.305,67.766,41.592,64.432,41.592z"/>
		<path fill="#FFFFFF" stroke="#FF931E" stroke-width="2.2683" stroke-miterlimit="10" d="M42.793,50.393
			c-1.068-1.023-1.744-2.447-1.793-4.027c-0.148-0.011-0.295-0.022-0.445-0.022h-4.004c-3.332,0-6.043,2.712-6.043,6.044v4.899
			l0.012,0.075l0.336,0.105c2.553,0.799,4.83,1.163,6.807,1.279v-1.479C37.662,54.021,39.83,51.273,42.793,50.393z"/>
		<path fill="#FFFFFF" stroke="#FF931E" stroke-width="2.2683" stroke-miterlimit="10" d="M48.84,51.215h-4.006
			c-3.332,0-6.043,2.712-6.043,6.044v4.898l0.012,0.077l0.336,0.105c3.18,0.992,5.945,1.324,8.218,1.324
			c4.443,0,7.019-1.268,7.177-1.348l0.313-0.16h0.033v-4.898C54.883,53.927,52.172,51.215,48.84,51.215z"/>
		<path fill="#FFFFFF" stroke="#FF931E" stroke-width="2.2683" stroke-miterlimit="10" d="M30.703,41.421
			c0.713,0,1.389-0.163,1.994-0.447c0.189-1.833,1.232-3.412,2.723-4.345c-0.039-2.573-2.135-4.649-4.717-4.649
			c-2.609,0-4.723,2.113-4.723,4.721C25.98,39.308,28.094,41.421,30.703,41.421z"/>
		<path fill="#FFFFFF" stroke="#FF931E" stroke-width="2.2683" stroke-miterlimit="10" d="M34.469,45.795
			c-1.072-1.029-1.752-2.463-1.795-4.053h-3.975c-3.332,0-6.043,2.712-6.043,6.045v4.898h0.033l0.314,0.16
			c0.15,0.074,2.412,1.188,6.336,1.331v-1.51C29.34,49.423,31.506,46.676,34.469,45.795z"/>
		<path fill="#FFFFFF" stroke="#FF931E" stroke-width="2.2683" stroke-miterlimit="10" d="M36.223,36.112
			c0.566-0.229,1.432-0.511,2.256-0.511c0.961,0,1.898,0.246,2.736,0.717c0.186-0.183,0.357-0.383,0.514-0.596
			c-0.795-1.045-1.23-2.326-1.23-3.643c0-0.888,0.197-1.768,0.576-2.568c-0.861-0.777-1.959-1.201-3.125-1.201
			c-2.121,0-3.969,1.437-4.51,3.46C35.025,32.693,36.059,34.305,36.223,36.112z"/>
		<path fill="#FFFFFF" stroke="#FF931E" stroke-width="2.2683" stroke-miterlimit="10" d="M51.512,35.456
			c0.164,0.261,0.355,0.506,0.574,0.734c0.775-0.387,1.627-0.589,2.486-0.589c0.844,0,1.652,0.215,2.182,0.396
			c0.166-1.958,1.352-3.688,3.123-4.563c-0.648-1.857-2.41-3.125-4.402-3.125c-1.289,0-2.51,0.529-3.391,1.46
			c0.311,0.738,0.467,1.514,0.467,2.309C52.551,33.295,52.191,34.456,51.512,35.456z"/>
	</g>
</g>
<g>
	<g>
		
			<line fill="none" stroke="#FFFFFF" stroke-width="3.3725" stroke-linecap="square" stroke-miterlimit="10" x1="19.862" y1="23.217" x2="8.885" y2="14.064"/>
		<g>
			<polygon fill="#FFFFFF" points="27.121,29.291 12.669,24.879 18.365,21.96 20.19,15.866 			"/>
		</g>
	</g>
</g>
<g>
	<g>
		
			<line fill="none" stroke="#FFFFFF" stroke-width="3.3725" stroke-linecap="square" stroke-miterlimit="10" x1="84.246" y1="14.064" x2="73.27" y2="23.217"/>
		<g>
			<polygon fill="#FFFFFF" points="72.939,15.866 74.766,21.96 80.462,24.879 66.01,29.291 			"/>
		</g>
	</g>
</g>
</svg>
