<?xml version="1.0" encoding="utf-8"?>
<!-- Generator: Adobe Illustrator 16.0.3, SVG Export Plug-In . SVG Version: 6.00 Build 0)  -->
<!DOCTYPE svg PUBLIC "-//W3C//DTD SVG 1.1//EN" "http://www.w3.org/Graphics/SVG/1.1/DTD/svg11.dtd" [
	<!ENTITY ns_extend "http://ns.adobe.com/Extensibility/1.0/">
	<!ENTITY ns_ai "http://ns.adobe.com/AdobeIllustrator/10.0/">
	<!ENTITY ns_graphs "http://ns.adobe.com/Graphs/1.0/">
	<!ENTITY ns_vars "http://ns.adobe.com/Variables/1.0/">
	<!ENTITY ns_imrep "http://ns.adobe.com/ImageReplacement/1.0/">
	<!ENTITY ns_sfw "http://ns.adobe.com/SaveForWeb/1.0/">
	<!ENTITY ns_custom "http://ns.adobe.com/GenericCustomNamespace/1.0/">
	<!ENTITY ns_adobe_xpath "http://ns.adobe.com/XPath/1.0/">
]>
<svg version="1.1" id="Ebene_1" xmlns:x="&ns_extend;" xmlns:i="&ns_ai;" xmlns:graph="&ns_graphs;"
	 xmlns="http://www.w3.org/2000/svg" xmlns:xlink="http://www.w3.org/1999/xlink" x="0px" y="0px" width="92px" height="92px"
	 viewBox="0 0 92 92" enable-background="new 0 0 92 92" xml:space="preserve">
<metadata>
	<sfw  xmlns="&ns_sfw;">
		<slices></slices>
		<sliceSourceBounds  height="95.334" width="92.666" y="-2.834" x="-0.956" bottomLeftOrigin="true"></sliceSourceBounds>
	</sfw>
</metadata>
<path fill="#FF931E" d="M92,81.734C92,87.404,87.404,92,81.734,92H10.266C4.596,92,0,87.404,0,81.734V10.266
	C0,4.596,4.596,0,10.266,0h71.468C87.404,0,92,4.596,92,10.266V81.734z"/>
<g>
	<rect x="-0.456" y="63.999" fill="none" width="92.666" height="31.335"/>
	<path fill="#FCFCFC" d="M6.845,68.247C6.614,68.216,6.411,68.2,6.235,68.2c-0.641,0-1.061,0.217-1.26,0.649v4.148H3.282v-6.34h1.6
		l0.047,0.756c0.34-0.582,0.811-0.873,1.412-0.873c0.188,0,0.363,0.025,0.527,0.076L6.845,68.247z"/>
	<path fill="#FCFCFC" d="M10.466,73.116c-0.93,0-1.687-0.285-2.271-0.855c-0.584-0.569-0.876-1.329-0.876-2.278v-0.164
		c0-0.637,0.123-1.207,0.369-1.709s0.595-0.889,1.046-1.159c0.451-0.271,0.966-0.407,1.544-0.407c0.867,0,1.55,0.273,2.048,0.82
		s0.747,1.322,0.747,2.326v0.69H9.036c0.055,0.414,0.22,0.746,0.495,0.996c0.275,0.25,0.624,0.375,1.046,0.375
		c0.652,0,1.162-0.235,1.529-0.709l0.832,0.933c-0.254,0.358-0.598,0.639-1.031,0.84C11.474,73.016,10.993,73.116,10.466,73.116z
		 M10.272,67.907c-0.336,0-0.608,0.114-0.817,0.341c-0.209,0.229-0.343,0.554-0.401,0.979h2.355V69.09
		c-0.008-0.377-0.109-0.668-0.305-0.873C10.909,68.01,10.632,67.907,10.272,67.907z"/>
	<path fill="#FCFCFC" d="M16.671,71.751c0.313,0,0.566-0.086,0.762-0.258c0.196-0.173,0.297-0.4,0.305-0.687h1.588
		c-0.004,0.43-0.121,0.823-0.352,1.182c-0.231,0.357-0.546,0.635-0.946,0.832c-0.4,0.197-0.843,0.296-1.327,0.296
		c-0.906,0-1.621-0.288-2.145-0.864s-0.785-1.372-0.785-2.388v-0.111c0-0.978,0.26-1.756,0.779-2.338s1.232-0.873,2.139-0.873
		c0.793,0,1.429,0.226,1.907,0.677s0.722,1.053,0.729,1.803h-1.588c-0.008-0.33-0.109-0.599-0.305-0.805
		c-0.195-0.207-0.453-0.31-0.773-0.31c-0.395,0-0.692,0.144-0.894,0.431c-0.201,0.288-0.302,0.755-0.302,1.4v0.176
		c0,0.652,0.1,1.123,0.299,1.408C15.962,71.607,16.265,71.751,16.671,71.751z"/>
	<path fill="#FCFCFC" d="M21.944,67.352c0.449-0.539,1.014-0.81,1.693-0.81c1.375,0,2.072,0.799,2.092,2.396v4.062h-1.693v-4.015
		c0-0.362-0.078-0.631-0.234-0.805c-0.156-0.175-0.416-0.262-0.779-0.262c-0.496,0-0.855,0.191-1.078,0.574v4.506h-1.693v-9h1.693
		L21.944,67.352L21.944,67.352z"/>
	<path fill="#FCFCFC" d="M29.034,65.102v1.559h1.084v1.242h-1.084v3.164c0,0.233,0.045,0.401,0.135,0.504
		c0.09,0.102,0.262,0.152,0.516,0.152c0.188,0,0.354-0.015,0.498-0.041v1.282c-0.332,0.103-0.674,0.152-1.025,0.152
		c-1.188,0-1.793-0.601-1.816-1.8V67.9h-0.926v-1.241h0.926V65.1h1.692V65.102z"/>
	<path fill="#FCFCFC" d="M32.849,72.999H31.15v-9h1.699V72.999z"/>
	<path fill="#FCFCFC" d="M34.331,72.167c0-0.271,0.091-0.487,0.272-0.656c0.181-0.168,0.409-0.252,0.683-0.252
		c0.277,0,0.507,0.084,0.688,0.252c0.181,0.169,0.272,0.388,0.272,0.656c0,0.267-0.09,0.481-0.27,0.647
		c-0.18,0.166-0.41,0.248-0.691,0.248c-0.277,0-0.506-0.082-0.686-0.248C34.419,72.648,34.331,72.434,34.331,72.167z"/>
	<path fill="#FCFCFC" d="M43.987,69.876h-1.4v3.123h-1.758v-8.531h3.17c1.008,0,1.785,0.226,2.332,0.675
		c0.547,0.448,0.819,1.084,0.819,1.903c0,0.582-0.125,1.067-0.377,1.456s-0.634,0.698-1.146,0.93l1.846,3.485v0.082h-1.887
		L43.987,69.876z M42.587,68.452h1.418c0.441,0,0.783-0.112,1.025-0.337c0.242-0.225,0.363-0.534,0.363-0.93
		c0-0.401-0.114-0.719-0.343-0.949c-0.229-0.229-0.579-0.346-1.052-0.346h-1.412L42.587,68.452L42.587,68.452z"/>
	<path fill="#FCFCFC" d="M52.05,72.999c-0.077-0.151-0.135-0.342-0.17-0.567c-0.409,0.457-0.942,0.686-1.601,0.686
		c-0.62,0-1.135-0.18-1.543-0.539s-0.612-0.813-0.612-1.359c0-0.672,0.249-1.188,0.747-1.547s1.218-0.541,2.158-0.545h0.779v-0.363
		c0-0.293-0.074-0.527-0.226-0.703s-0.388-0.264-0.712-0.264c-0.285,0-0.51,0.068-0.671,0.205c-0.162,0.137-0.243,0.324-0.243,0.563
		h-1.693c0-0.366,0.113-0.707,0.34-1.02c0.228-0.313,0.547-0.559,0.961-0.734c0.414-0.178,0.879-0.268,1.396-0.268
		c0.781,0,1.401,0.196,1.86,0.589c0.459,0.394,0.688,0.944,0.688,1.655v2.748c0.004,0.602,0.088,1.057,0.252,1.365V73L52.05,72.999
		L52.05,72.999z M50.648,71.82c0.25,0,0.48-0.055,0.691-0.166s0.367-0.262,0.469-0.448v-1.09h-0.633
		c-0.848,0-1.299,0.293-1.354,0.879l-0.006,0.101c0,0.211,0.074,0.385,0.223,0.521S50.393,71.82,50.648,71.82z"/>
	<path fill="#FCFCFC" d="M56.462,67.352c0.449-0.539,1.015-0.81,1.692-0.81c1.375,0,2.072,0.799,2.093,2.396v4.062h-1.692v-4.015
		c0-0.362-0.078-0.631-0.234-0.805c-0.156-0.175-0.416-0.262-0.779-0.262c-0.496,0-0.855,0.191-1.078,0.574v4.506H54.77v-9h1.693
		L56.462,67.352L56.462,67.352z"/>
	<path fill="#FCFCFC" d="M63.111,66.659l0.054,0.709c0.448-0.552,1.058-0.826,1.821-0.826c0.816,0,1.377,0.322,1.683,0.967
		c0.444-0.645,1.08-0.967,1.903-0.967c0.689,0,1.199,0.2,1.535,0.601c0.336,0.401,0.504,1.004,0.504,1.809V73h-1.698v-4.043
		c0-0.359-0.07-0.622-0.211-0.788c-0.142-0.166-0.39-0.249-0.744-0.249c-0.508,0-0.858,0.242-1.056,0.727l0.007,4.354h-1.693v-4.037
		c0-0.366-0.071-0.633-0.217-0.797s-0.392-0.246-0.737-0.246c-0.48,0-0.828,0.199-1.044,0.599v4.481h-1.692v-6.34h1.586V66.659z"/>
	<path fill="#FCFCFC" d="M74.831,73.116c-0.931,0-1.687-0.285-2.271-0.855c-0.584-0.569-0.877-1.329-0.877-2.278v-0.164
		c0-0.637,0.123-1.207,0.369-1.709s0.596-0.889,1.047-1.159c0.45-0.271,0.965-0.407,1.543-0.407c0.867,0,1.551,0.273,2.049,0.82
		s0.746,1.322,0.746,2.326v0.69H73.4c0.056,0.414,0.221,0.746,0.496,0.996c0.274,0.25,0.623,0.375,1.045,0.375
		c0.652,0,1.162-0.235,1.529-0.709l0.832,0.933c-0.254,0.358-0.598,0.639-1.031,0.84C75.839,73.016,75.357,73.116,74.831,73.116z
		 M74.639,67.907c-0.336,0-0.609,0.114-0.818,0.341c-0.209,0.229-0.342,0.554-0.4,0.979h2.355V69.09
		c-0.008-0.377-0.109-0.668-0.305-0.873C75.273,68.01,74.997,67.907,74.639,67.907z"/>
	<path fill="#FCFCFC" d="M79.958,66.659l0.054,0.731c0.452-0.565,1.061-0.85,1.821-0.85c0.672,0,1.172,0.197,1.5,0.592
		s0.496,0.984,0.504,1.77v4.097h-1.692v-4.056c0-0.358-0.078-0.619-0.234-0.781s-0.416-0.243-0.779-0.243
		c-0.477,0-0.834,0.203-1.072,0.608v4.472h-1.692v-6.34H79.958z"/>
	<path fill="#FCFCFC" d="M88.413,70.027h-3.3v-1.364h3.3V70.027z"/>
	<path fill="#FCFCFC" d="M17.116,81.889c0,1.016-0.217,1.807-0.65,2.375c-0.433,0.568-1.039,0.854-1.816,0.854
		c-0.688,0-1.236-0.264-1.646-0.791L12.928,85h-1.523v-9h1.693v3.229c0.391-0.457,0.904-0.686,1.541-0.686
		c0.773,0,1.38,0.284,1.819,0.854c0.439,0.568,0.659,1.367,0.659,2.398L17.116,81.889L17.116,81.889z M15.423,81.766
		c0-0.642-0.102-1.108-0.305-1.404c-0.203-0.295-0.506-0.441-0.908-0.441c-0.539,0-0.91,0.221-1.113,0.662v2.502
		c0.207,0.445,0.582,0.668,1.125,0.668c0.547,0,0.906-0.27,1.078-0.809C15.382,82.686,15.423,82.292,15.423,81.766z"/>
	<path fill="#FCFCFC" d="M21.077,85.116c-0.93,0-1.687-0.285-2.271-0.855c-0.584-0.569-0.876-1.329-0.876-2.278v-0.164
		c0-0.637,0.123-1.207,0.369-1.709c0.246-0.502,0.595-0.889,1.046-1.159c0.451-0.271,0.966-0.407,1.544-0.407
		c0.867,0,1.55,0.273,2.048,0.82s0.747,1.322,0.747,2.326v0.69h-4.037c0.055,0.414,0.22,0.746,0.495,0.996s0.624,0.375,1.046,0.375
		c0.652,0,1.162-0.235,1.529-0.709l0.832,0.933c-0.254,0.358-0.598,0.639-1.031,0.84S21.604,85.116,21.077,85.116z M20.884,79.907
		c-0.336,0-0.608,0.114-0.817,0.341c-0.209,0.229-0.343,0.554-0.401,0.979h2.355V81.09c-0.008-0.377-0.109-0.668-0.305-0.873
		C21.521,80.01,21.243,79.907,20.884,79.907z"/>
	<path fill="#FCFCFC" d="M24.382,81.782c0-0.988,0.222-1.775,0.665-2.361c0.443-0.586,1.05-0.879,1.819-0.879
		c0.617,0,1.127,0.229,1.529,0.69v-3.233h1.699v9h-1.529l-0.082-0.674c-0.422,0.526-0.965,0.791-1.629,0.791
		c-0.746,0-1.345-0.294-1.796-0.882C24.607,83.646,24.382,82.829,24.382,81.782z M26.075,81.908c0,0.595,0.104,1.051,0.311,1.367
		c0.207,0.316,0.508,0.476,0.902,0.476c0.523,0,0.893-0.222,1.107-0.663v-2.506c-0.211-0.441-0.576-0.663-1.096-0.663
		C26.483,79.919,26.075,80.582,26.075,81.908z"/>
	<path fill="#FCFCFC" d="M31.396,77.02c0-0.254,0.085-0.463,0.255-0.627s0.401-0.246,0.694-0.246c0.289,0,0.52,0.082,0.691,0.246
		c0.171,0.164,0.258,0.373,0.258,0.627c0,0.258-0.087,0.469-0.261,0.633c-0.174,0.164-0.403,0.246-0.688,0.246
		c-0.285,0-0.515-0.082-0.688-0.246C31.484,77.488,31.396,77.275,31.396,77.02z M33.194,84.999h-1.699v-6.34h1.699V84.999z"/>
	<path fill="#FCFCFC" d="M36.147,78.659l0.053,0.731c0.453-0.565,1.061-0.85,1.822-0.85c0.672,0,1.172,0.197,1.5,0.592
		s0.496,0.984,0.504,1.77v4.097h-1.693v-4.056c0-0.358-0.078-0.619-0.234-0.781c-0.156-0.162-0.416-0.243-0.779-0.243
		c-0.477,0-0.834,0.203-1.072,0.608v4.472h-1.693v-6.34H36.147z"/>
	<path fill="#FCFCFC" d="M41.063,81.782c0-0.974,0.231-1.757,0.694-2.351c0.463-0.594,1.087-0.891,1.872-0.891
		c0.695,0,1.236,0.238,1.623,0.715l0.07-0.598h1.536v6.129c0,0.555-0.127,1.037-0.378,1.447c-0.252,0.41-0.606,0.723-1.063,0.938
		s-0.992,0.322-1.605,0.322c-0.465,0-0.918-0.094-1.359-0.278s-0.775-0.425-1.002-0.718l0.75-1.031
		c0.422,0.473,0.934,0.709,1.535,0.709c0.449,0,0.799-0.119,1.049-0.359s0.375-0.582,0.375-1.022v-0.34
		c-0.391,0.44-0.904,0.662-1.541,0.662c-0.762,0-1.378-0.298-1.849-0.894c-0.471-0.597-0.706-1.387-0.706-2.371V81.782z
		 M42.757,81.908c0,0.574,0.115,1.025,0.346,1.353c0.23,0.327,0.547,0.49,0.949,0.49c0.516,0,0.885-0.194,1.107-0.581V80.5
		c-0.227-0.387-0.592-0.581-1.096-0.581c-0.406,0-0.726,0.167-0.958,0.499S42.757,81.247,42.757,81.908z"/>
	<path fill="#FCFCFC" d="M51.956,84.354c-0.418,0.508-0.996,0.763-1.733,0.763c-0.681,0-1.199-0.195-1.557-0.587
		c-0.357-0.391-0.54-0.963-0.548-1.717v-4.153h1.692v4.101c0,0.66,0.301,0.991,0.902,0.991c0.574,0,0.969-0.199,1.184-0.599v-4.493
		h1.699v6.34h-1.594L51.956,84.354z"/>
	<path fill="#FCFCFC" d="M56.434,78.659l0.053,0.731c0.453-0.565,1.061-0.85,1.822-0.85c0.672,0,1.172,0.197,1.5,0.592
		s0.496,0.984,0.504,1.77v4.097h-1.693v-4.056c0-0.358-0.078-0.619-0.234-0.781s-0.416-0.243-0.779-0.243
		c-0.477,0-0.834,0.203-1.071,0.608v4.472h-1.693v-6.34H56.434z"/>
	<path fill="#FCFCFC" d="M61.35,81.782c0-0.974,0.23-1.757,0.693-2.351s1.087-0.891,1.872-0.891c0.694,0,1.235,0.238,1.623,0.715
		l0.069-0.598h1.535v6.129c0,0.555-0.125,1.037-0.377,1.447s-0.606,0.723-1.063,0.938s-0.992,0.322-1.604,0.322
		c-0.466,0-0.918-0.094-1.359-0.278s-0.775-0.425-1.002-0.718l0.75-1.031c0.422,0.473,0.934,0.709,1.535,0.709
		c0.449,0,0.799-0.119,1.049-0.359s0.375-0.582,0.375-1.022v-0.34c-0.391,0.44-0.904,0.662-1.541,0.662
		c-0.762,0-1.379-0.298-1.85-0.894c-0.471-0.597-0.705-1.387-0.705-2.371V81.782z M63.042,81.908c0,0.574,0.115,1.025,0.347,1.353
		c0.229,0.327,0.547,0.49,0.948,0.49c0.517,0,0.886-0.194,1.106-0.581V80.5c-0.227-0.387-0.592-0.581-1.096-0.581
		c-0.406,0-0.726,0.167-0.957,0.499C63.158,80.75,63.042,81.247,63.042,81.908z"/>
	<path fill="#FCFCFC" d="M71.361,85.116c-0.93,0-1.687-0.285-2.271-0.855c-0.584-0.569-0.876-1.329-0.876-2.278v-0.164
		c0-0.637,0.123-1.207,0.369-1.709s0.596-0.889,1.046-1.159c0.451-0.271,0.966-0.407,1.544-0.407c0.867,0,1.551,0.273,2.049,0.82
		s0.746,1.322,0.746,2.326v0.69h-4.037c0.055,0.414,0.221,0.746,0.496,0.996c0.274,0.25,0.623,0.375,1.045,0.375
		c0.652,0,1.162-0.235,1.529-0.709l0.832,0.933c-0.254,0.358-0.598,0.639-1.031,0.84C72.37,85.016,71.891,85.116,71.361,85.116z
		 M71.169,79.907c-0.336,0-0.608,0.114-0.817,0.341c-0.209,0.229-0.343,0.554-0.4,0.979h2.355V81.09
		c-0.009-0.377-0.109-0.668-0.306-0.873C71.807,80.01,71.527,79.907,71.169,79.907z"/>
	<path fill="#FCFCFC" d="M76.488,78.659l0.054,0.731c0.453-0.565,1.062-0.85,1.821-0.85c0.673,0,1.173,0.197,1.5,0.592
		c0.328,0.395,0.496,0.984,0.505,1.77v4.097h-1.693v-4.056c0-0.358-0.077-0.619-0.233-0.781s-0.416-0.243-0.779-0.243
		c-0.477,0-0.834,0.203-1.072,0.608v4.472h-1.693v-6.34H76.488z"/>
</g>
<g>
	<path fill="#FFFFFF" d="M60.439,31.589c0,3.249-1.444,5.668-4.336,7.256c2.408,1.821,3.613,4.391,3.613,7.709
		c0,3.125-1.229,5.574-3.682,7.35c-2.454,1.777-5.842,2.664-10.16,2.664c-4.586,0-8.16-0.954-10.722-2.859
		c-2.562-1.91-3.842-4.677-3.842-8.295l7.737-0.025c0,1.592,0.57,2.814,1.713,3.666c1.143,0.854,2.847,1.276,5.113,1.276
		c2,0,3.517-0.335,4.552-1.009c1.035-0.67,1.555-1.57,1.555-2.699c0-1.164-0.576-2.115-1.729-2.848
		c-1.149-0.735-3.354-1.552-6.612-2.454c-3.257-0.901-5.711-1.843-7.362-2.824c-1.65-0.981-2.882-2.142-3.694-3.481
		c-0.812-1.338-1.219-2.953-1.219-4.845c0-3.213,1.446-5.648,4.339-7.31c-2.428-1.838-3.643-4.408-3.643-7.71
		c0-3.052,1.255-5.515,3.763-7.389c2.507-1.875,5.894-2.812,10.159-2.812c4.409,0,7.827,1.009,10.254,3.025s3.641,4.819,3.641,8.407
		h-7.736c0-1.554-0.549-2.807-1.646-3.763c-1.098-0.954-2.602-1.432-4.511-1.432c-1.963,0-3.48,0.349-4.551,1.044
		c-1.072,0.696-1.606,1.65-1.606,2.865c0,1.303,0.495,2.284,1.486,2.944c0.989,0.66,3.136,1.428,6.438,2.303
		c3.302,0.875,5.822,1.802,7.563,2.784c1.74,0.981,3.03,2.155,3.869,3.521C60.021,28.016,60.439,29.662,60.439,31.589z
		 M41.11,25.619c-1.338,0.75-2.008,2.008-2.008,3.775c0,1.231,0.371,2.182,1.111,2.851c0.74,0.67,2.218,1.361,4.431,2.075
		l5.944,1.794c1.463-0.839,2.194-2.088,2.194-3.749c0-1.105-0.406-2.012-1.218-2.717c-0.813-0.705-2.271-1.414-4.377-2.128
		L41.11,25.619z"/>
</g>
</svg>
