<?xml version="1.0" encoding="utf-8"?>
<!-- Generator: Adobe Illustrator 16.0.3, SVG Export Plug-In . SVG Version: 6.00 Build 0)  -->
<!DOCTYPE svg PUBLIC "-//W3C//DTD SVG 1.1//EN" "http://www.w3.org/Graphics/SVG/1.1/DTD/svg11.dtd" [
	<!ENTITY ns_extend "http://ns.adobe.com/Extensibility/1.0/">
	<!ENTITY ns_ai "http://ns.adobe.com/AdobeIllustrator/10.0/">
	<!ENTITY ns_graphs "http://ns.adobe.com/Graphs/1.0/">
	<!ENTITY ns_vars "http://ns.adobe.com/Variables/1.0/">
	<!ENTITY ns_imrep "http://ns.adobe.com/ImageReplacement/1.0/">
	<!ENTITY ns_sfw "http://ns.adobe.com/SaveForWeb/1.0/">
	<!ENTITY ns_custom "http://ns.adobe.com/GenericCustomNamespace/1.0/">
	<!ENTITY ns_adobe_xpath "http://ns.adobe.com/XPath/1.0/">
]>
<svg version="1.1" xmlns:x="&ns_extend;" xmlns:i="&ns_ai;" xmlns:graph="&ns_graphs;"
	 xmlns="http://www.w3.org/2000/svg" xmlns:xlink="http://www.w3.org/1999/xlink" x="0px" y="0px" width="290.9px" height="290.9px"
	 viewBox="0 0 290.9 290.9" style="enable-background:new 0 0 290.9 290.9;" xml:space="preserve">
<style type="text/css">
<![CDATA[
	.st0{fill:#2F98C1;}
	.st1{opacity:0.75;fill:#FFFFFF;}
	.st2{fill:#FFFFFF;}
	.st3{display:inline;}
	.st4{display:none;}
	.st5{opacity:0.74;fill:#FFFFFF;}
]]>
</style>
<metadata>
	<sfw  xmlns="&ns_sfw;">
		<slices></slices>
		<sliceSourceBounds  width="891.3" height="290.9" y="-7" x="-9.9" bottomLeftOrigin="true"></sliceSourceBounds>
	</sfw>
</metadata>
<g id="Ebene_1">
	<path class="st0" d="M254.4,290.9H36.5C16.4,290.9,0,274.5,0,254.4V36.5C0,16.4,16.4,0,36.5,0h217.9c20.1,0,36.5,16.4,36.5,36.5
		v217.9C290.9,274.5,274.5,290.9,254.4,290.9z"/>
	<g>
		<path class="st2" d="M111,215.1c-0.2-4.1-0.4-9-0.4-13.3h-0.1c-1,3.9-2.3,8.1-3.8,12.1l-4.6,13.7h-4.5l-4.2-13.5
			c-1.2-4-2.3-8.4-3.2-12.3h-0.1c-0.1,4.1-0.3,9.2-0.6,13.5L88.9,228h-5.4l2.1-31.7h7.6l4.1,12.7c1.1,3.7,2.1,7.5,2.9,11h0.1
			c0.8-3.4,1.9-7.3,3.1-11l4.4-12.7h7.5l1.8,31.7h-5.6L111,215.1z"/>
		<path class="st2" d="M127.3,218.2c0.1,4.1,3.4,5.9,7,5.9c2.7,0,4.6-0.4,6.3-1l0.8,4c-2,0.8-4.7,1.4-8,1.4
			c-7.4,0-11.8-4.6-11.8-11.6c0-6.3,3.9-12.3,11.2-12.3c7.4,0,9.9,6.1,9.9,11.1c0,1.1-0.1,1.9-0.2,2.4H127.3z M137.3,214.1
			c0-2.1-0.9-5.6-4.7-5.6c-3.6,0-5.1,3.2-5.3,5.6H137.3z"/>
		<path class="st2" d="M168.3,205.1c-0.1,1.6-0.2,3.4-0.2,6.6v13c0,4.8-1,8.2-3.4,10.4c-2.4,2.1-5.7,2.8-8.8,2.8c-2.9,0-6-0.6-8-1.8
			l1.3-4.4c1.5,0.8,3.9,1.7,6.7,1.7c3.8,0,6.6-2,6.6-6.9v-2h-0.1c-1.3,2-3.7,3.4-6.7,3.4c-5.7,0-9.7-4.7-9.7-11.2
			c0-7.5,4.9-12.1,10.4-12.1c3.5,0,5.5,1.7,6.6,3.6h0.1l0.2-3.1H168.3z M162.4,214.3c0-0.5,0-1.1-0.2-1.6c-0.6-2.1-2.3-3.7-4.7-3.7
			c-3.2,0-5.6,2.8-5.6,7.5c0,3.9,2,7,5.6,7c2.2,0,4-1.4,4.7-3.5c0.1-0.6,0.2-1.4,0.2-2.1V214.3z"/>
		<path class="st2" d="M187.2,228l-0.4-2.5h-0.1c-1.4,1.8-3.8,3.1-6.8,3.1c-4.6,0-7.2-3.3-7.2-6.8c0-5.8,5.1-8.7,13.6-8.6v-0.4
			c0-1.5-0.6-4-4.7-4c-2.3,0-4.6,0.7-6.2,1.7l-1.1-3.8c1.7-1,4.7-2,8.3-2c7.3,0,9.4,4.7,9.4,9.6v8.3c0,2.1,0.1,4.1,0.3,5.5H187.2z
			 M186.5,216.8c-4.1-0.1-8,0.8-8,4.3c0,2.3,1.5,3.3,3.3,3.3c2.3,0,4-1.5,4.5-3.1c0.1-0.4,0.2-0.9,0.2-1.3V216.8z"/>
		<path class="st2" d="M208.5,213.5v4h-12v-4H208.5z"/>
		<path class="st2" d="M51.9,235.7v31.7h-5.8v-31.7H51.9z"/>
		<path class="st2" d="M58.5,251.3c0-2.6,0-4.8-0.2-6.8h5.1l0.3,3.4h0.1c1-1.8,3.5-3.9,7.3-3.9c4,0,8.1,2.6,8.1,9.8v13.6h-5.8v-12.9
			c0-3.3-1.2-5.8-4.4-5.8c-2.3,0-3.9,1.6-4.5,3.4c-0.2,0.5-0.2,1.2-0.2,1.9v13.4h-5.8V251.3z"/>
		<path class="st2" d="M86.1,267.4v-18.6H83v-4.3h3.1v-1c0-2.9,1.2-5.7,3.4-7.6c2-1.6,4.6-2.4,8.1-2.4c3.1,0,5.9,0.6,7.9,1.7v32.1
			h-5.8v-29c-0.6-0.3-1.6-0.5-3-0.5c-3.5,0-4.8,2.5-4.8,5.6v1h4.7v4.3h-4.7v18.6H86.1z"/>
		<path class="st2" d="M132.2,260.5c0,2.7,0.1,5,0.2,6.9h-5.1l-0.3-3.5h-0.1c-1,1.6-3.2,4-7.3,4c-4.2,0-8-2.5-8-10v-13.4h5.8v12.5
			c0,3.8,1.2,6.3,4.3,6.3c2.3,0,3.8-1.6,4.4-3.1c0.2-0.5,0.3-1.1,0.3-1.8v-13.8h5.8V260.5z"/>
		<path class="st2" d="M142.5,257.6c0.1,4.1,3.4,5.9,7,5.9c2.7,0,4.6-0.4,6.3-1l0.8,4c-2,0.8-4.7,1.4-8,1.4
			c-7.4,0-11.8-4.6-11.8-11.6c0-6.3,3.9-12.3,11.2-12.3c7.4,0,9.9,6.1,9.9,11.1c0,1.1-0.1,1.9-0.2,2.4H142.5z M152.6,253.5
			c0-2.1-0.9-5.6-4.7-5.6c-3.6,0-5.1,3.2-5.3,5.6H152.6z"/>
		<path class="st2" d="M162.7,251.3c0-2.6,0-4.8-0.2-6.8h5.1l0.3,3.4h0.1c1-1.8,3.5-3.9,7.3-3.9c4,0,8.1,2.6,8.1,9.8v13.6h-5.8
			v-12.9c0-3.3-1.2-5.8-4.4-5.8c-2.3,0-3.9,1.6-4.5,3.4c-0.2,0.5-0.2,1.2-0.2,1.9v13.4h-5.8V251.3z"/>
		<path class="st2" d="M206.4,266.7c-1.2,0.6-3.6,1.2-6.5,1.2c-7.1,0-11.8-4.6-11.8-11.7c0-6.9,4.7-12.2,12.7-12.2
			c2.1,0,4.3,0.5,5.6,1.1l-1,4.3c-0.9-0.4-2.3-0.9-4.4-0.9c-4.4,0-7,3.2-7,7.4c0,4.7,3.1,7.4,7,7.4c2,0,3.4-0.4,4.6-0.9L206.4,266.7
			z"/>
		<path class="st2" d="M214.4,257.6c0.1,4.1,3.4,5.9,7,5.9c2.7,0,4.6-0.4,6.3-1l0.8,4c-2,0.8-4.7,1.4-8,1.4
			c-7.4,0-11.8-4.6-11.8-11.6c0-6.3,3.9-12.3,11.2-12.3c7.4,0,9.9,6.1,9.9,11.1c0,1.1-0.1,1.9-0.2,2.4H214.4z M224.4,253.5
			c0-2.1-0.9-5.6-4.7-5.6c-3.6,0-5.1,3.2-5.3,5.6H224.4z"/>
		<path class="st2" d="M234.5,251.9c0-3.1,0-5.3-0.2-7.4h5l0.2,4.4h0.2c1.1-3.2,3.8-4.9,6.3-4.9c0.6,0,0.9,0,1.4,0.1v5.5
			c-0.5-0.1-1-0.2-1.7-0.2c-2.8,0-4.7,1.8-5.2,4.4c-0.1,0.5-0.2,1.1-0.2,1.8v11.8h-5.8V251.9z"/>
	</g>
	<g class="st4">
		<g class="st3">
			<path class="st2" d="M105.3,147.4V85c5.2-11.4,13.1-18.1,26-16.6c0.9,0.1,2.2-0.7,2.9-1.5c8.2-9.2,18.2-11,29.5-7.8
				c1.1,0.3,2.6,0.2,3.5-0.4c3.8-2.5,7.4-5.2,11.1-7.9c4-1,7.4-0.5,11,0c3.5,1.7,7.6,2.8,10.5,5.3c3.9,3.3,7.6,4.2,12.6,3.6
				c16.6-1.9,27.4,8.1,28.1,25.4c0.1,2.2,0.1,4.5-0.2,6.7c-1.7,15.5-3.2,31-5.3,46.5c-0.7,5.3-1.9,10.9-4.2,15.6
				c-3,6.2-9.1,7-15.2,6.3c-5-0.5-10.5-4.9-10.6-10.2c-0.4-20.8,0.1-36.6-0.2-57.3c-0.1-4.5-0.6-7.6-3.3-7.6c-4.1,0-4.2,3.2-4.2,8.4
				c0,16.9-0.5,33.7,0.2,50.6c0.5,13.4-10.4,19.7-23.1,14.4c-1.5-0.6-2.9-3.2-3-5c-0.4-5.6-0.1-11.3-0.1-17c0-14.7-1-27.9-1-42.9
				c-0.3-6-5.9-5.7-6,0.6c0,2.1,0,1.9,0,3.7c0,19.4-0.1,38.9,0.1,58.3c0,3.4-1.1,5.1-4,6c-6.4,2-12.7,2.3-19-0.6
				c-2.7-1.2-4.1-2.8-3.9-6.2c0.4-7.5,0.2-15.1,0.2-22.7c0-11.3,0-22.6,0-34.1c0.1-7.8-6.7-7.5-6.7-0.6c-0.1,1.5-0.1,3.4-0.1,4.7
				c-0.1,17.4-0.2,34.7-0.1,52.1c0,2.2-1.1,4.5-4.1,5c-7.2,1-15.3,1.3-20.6-9.5C105.6,149.6,105.3,148.5,105.3,147.4z"/>
			<path class="st5" d="M182.3,193.2c-8.8-5.2-10.6-13.2-4.9-22.6c0.7-1.2,2.9-2.2,4.3-2.1c7.8,0.5,14-2.3,19-8.8
				c4.7,5.1,9.9,8.7,17.1,8.8c14.8,0.2,21.5-10.3,23.1-20.9c1.9-12.5,2.9-25.1,5.4-38c1.9,8.7,3.9,17.4,5.8,26.1
				c1.1,5.4,2,10.8,3,16.2c0.5,7.7,0.3,9.2,0,13.4c-0.4,6.5-0.3,8.1-1.5,12.8c-0.7,2.8-6.2,11.2-19.4,6.6
				c-16.8-5.4-33.1,5.5-49.1,8.5C184.3,193.4,183.7,193.6,182.3,193.2z"/>
		</g>
	</g>
	<path class="st2" d="M117,174.5c0-18.2,0-45.2,28.5-45.2c24.9,0,28.5,26.9,28.5,45.2"/>
	<circle class="st2" cx="145.5" cy="111.2" r="18.1"/>
	<circle class="st1" cx="207.3" cy="86" r="12.6"/>
	<circle class="st1" cx="123.6" cy="34.8" r="12.6"/>
	<circle class="st1" cx="65.9" cy="124.6" r="12.6"/>
	<g>
		<path class="st2" d="M169.4,37.1l-22.6,10.3v-5l17.4-7.5v-0.1l-17.4-7.5v-5l22.6,10.3V37.1z"/>
		<path class="st2" d="M183.2,20.7L183.2,20.7l-5.4,2.9l-0.8-3.1l6.7-3.6h3.5v30.5h-4V20.7z"/>
		<path class="st2" d="M226.5,33.5c-0.2-4.4-0.5-9.7-0.5-13.7h-0.1c-1.1,3.7-2.4,7.7-4,12l-5.6,15.4h-3.1L208,32.1
			c-1.5-4.5-2.8-8.6-3.7-12.3h-0.1c-0.1,3.9-0.3,9.3-0.6,14l-0.8,13.6h-3.9l2.2-31.7h5.2l5.4,15.3c1.3,3.9,2.4,7.4,3.2,10.7h0.1
			c0.8-3.2,1.9-6.7,3.3-10.7l5.6-15.3h5.2l2,31.7h-4L226.5,33.5z"/>
		<path class="st2" d="M242.6,18.3c0,1.4-1,2.5-2.6,2.5c-1.5,0-2.5-1.1-2.5-2.5c0-1.5,1.1-2.6,2.6-2.6
			C241.6,15.7,242.6,16.8,242.6,18.3z M238,47.4V24.6h4.1v22.7H238z"/>
		<path class="st2" d="M269.6,35.8c0,8.4-5.8,12.1-11.3,12.1c-6.2,0-10.9-4.5-10.9-11.7c0-7.6,5-12.1,11.3-12.1
			C265.1,24.1,269.6,28.9,269.6,35.8z M251.5,36.1c0,5,2.9,8.7,6.9,8.7c3.9,0,6.9-3.7,6.9-8.8c0-3.9-1.9-8.7-6.8-8.7
			C253.6,27.2,251.5,31.7,251.5,36.1z"/>
	</g>
	<circle class="st1" cx="106.4" cy="126" r="12.6"/>
	<circle class="st1" cx="193.6" cy="155.6" r="12.6"/>
	<circle class="st1" cx="33.3" cy="77.6" r="12.6"/>
	<circle class="st1" cx="233.4" cy="108.2" r="12.6"/>
	<circle class="st1" cx="263.6" cy="130.4" r="12.6"/>
	<circle class="st1" cx="29.3" cy="111.2" r="12.6"/>
	<circle class="st1" cx="31.5" cy="143" r="12.6"/>
	<circle class="st1" cx="61.2" cy="28.1" r="12.6"/>
	<circle class="st1" cx="191.3" cy="120.8" r="12.6"/>
	<circle class="st1" cx="96.5" cy="71.2" r="12.6"/>
	<circle class="st1" cx="259.1" cy="83.8" r="12.6"/>
	<circle class="st1" cx="90.9" cy="156" r="12.6"/>
	<circle class="st1" cx="31.5" cy="40.7" r="12.6"/>
	<circle class="st1" cx="124.9" cy="80.5" r="12.6"/>
	<circle class="st1" cx="176.1" cy="93.1" r="12.6"/>
	<circle class="st1" cx="221.3" cy="133.4" r="12.6"/>
	<circle class="st1" cx="259.1" cy="161.1" r="12.6"/>
	<circle class="st1" cx="225.8" cy="161.1" r="12.6"/>
	<circle class="st1" cx="56.7" cy="161.1" r="12.6"/>
	<circle class="st1" cx="93.8" cy="100.9" r="12.6"/>
	<circle class="st1" cx="65.9" cy="56.3" r="12.6"/>
	<circle class="st1" cx="64.2" cy="93.1" r="12.6"/>
	<circle class="st1" cx="91.9" cy="38.7" r="12.6"/>
	<circle class="st1" cx="153.7" cy="71.2" r="12.6"/>
</g>
<g id="Ebene_2">
	<path class="st2" d="M138.7,167"/>
</g>
</svg>
