<?xml version="1.0" encoding="utf-8"?>
<!-- Generator: Adobe Illustrator 16.0.3, SVG Export Plug-In . SVG Version: 6.00 Build 0)  -->
<!DOCTYPE svg PUBLIC "-//W3C//DTD SVG 1.1//EN" "http://www.w3.org/Graphics/SVG/1.1/DTD/svg11.dtd">
<svg version="1.1" id="Ebene_1" xmlns="http://www.w3.org/2000/svg" xmlns:xlink="http://www.w3.org/1999/xlink" x="0px" y="0px"
	 width="120px" height="120px" viewBox="0 0 120 120" enable-background="new 0 0 120 120" xml:space="preserve">
<path fill="#FF9900" d="M104.948,120H15.052C6.763,120,0,113.236,0,104.948V15.052C0,6.763,6.763,0,15.052,0h89.896
	C113.237,0,120,6.763,120,15.052v89.896C120,113.236,113.237,120,104.948,120z"/>
<g>
	<rect x="0.039" y="82.857" fill="none" width="119.923" height="38.844"/>
	<path fill="#FFFFFF" d="M21.706,89.803l0.82-1.244l2-2.49h2.52l-2.959,3.552l3.149,4.636h-2.578l-1.992-3.148l-0.872,0.6v2.549
		H19.56V82.859h2.234v5.084l-0.117,1.859H21.706z"/>
	<path fill="#FFFFFF" d="M35.468,90.147c0,0.684-0.087,1.289-0.26,1.816c-0.174,0.527-0.423,0.972-0.747,1.333
		c-0.325,0.361-0.721,0.637-1.187,0.824c-0.467,0.188-0.99,0.281-1.571,0.281c-0.542,0-1.04-0.094-1.494-0.281
		s-0.846-0.463-1.176-0.824c-0.329-0.361-0.587-0.806-0.772-1.333s-0.278-1.133-0.278-1.816c0-0.679,0.086-1.282,0.26-1.81
		s0.422-0.971,0.747-1.328c0.325-0.359,0.719-0.632,1.183-0.817s0.989-0.278,1.575-0.278c0.542,0,1.04,0.093,1.494,0.278
		s0.846,0.458,1.176,0.817c0.329,0.357,0.587,0.801,0.772,1.328S35.468,89.469,35.468,90.147z M30.268,90.147
		c0,0.815,0.115,1.43,0.344,1.843c0.229,0.412,0.603,0.618,1.121,0.618c0.513,0,0.884-0.208,1.113-0.622
		c0.229-0.416,0.344-1.028,0.344-1.839c0-0.815-0.115-1.425-0.344-1.827s-0.605-0.604-1.128-0.604c-0.513,0-0.883,0.202-1.109,0.604
		C30.381,88.723,30.268,89.332,30.268,90.147z"/>
	<path fill="#FFFFFF" d="M41.664,85.914c0.059,0,0.123,0.002,0.194,0.004s0.14,0.008,0.205,0.014
		c0.066,0.008,0.127,0.016,0.184,0.023c0.056,0.006,0.099,0.016,0.128,0.025v2.094c-0.039-0.01-0.093-0.02-0.161-0.029
		s-0.141-0.018-0.216-0.025c-0.076-0.008-0.15-0.012-0.224-0.014c-0.073-0.003-0.134-0.004-0.183-0.004
		c-0.288,0-0.553,0.036-0.794,0.109c-0.242,0.073-0.45,0.191-0.623,0.355s-0.308,0.379-0.402,0.645
		c-0.096,0.266-0.143,0.592-0.143,0.978v4.167h-2.234v-8.188h1.692l0.33,1.23h0.11c0.117-0.211,0.244-0.4,0.381-0.572
		c0.137-0.17,0.29-0.315,0.458-0.436c0.169-0.119,0.359-0.213,0.571-0.277C41.148,85.947,41.391,85.914,41.664,85.914z"/>
	<path fill="#FFFFFF" d="M48.175,85.914c0.059,0,0.123,0.002,0.194,0.004s0.14,0.008,0.205,0.014
		c0.066,0.008,0.127,0.016,0.184,0.023c0.056,0.006,0.099,0.016,0.128,0.025v2.094c-0.039-0.01-0.093-0.02-0.161-0.029
		s-0.141-0.018-0.216-0.025c-0.076-0.008-0.15-0.012-0.224-0.014c-0.073-0.003-0.134-0.004-0.183-0.004
		c-0.288,0-0.553,0.036-0.794,0.109c-0.242,0.073-0.45,0.191-0.623,0.355s-0.308,0.379-0.402,0.645
		c-0.096,0.266-0.143,0.592-0.143,0.978v4.167h-2.234v-8.188h1.692l0.33,1.23h0.11c0.117-0.211,0.244-0.4,0.381-0.572
		c0.137-0.17,0.29-0.315,0.458-0.436c0.169-0.119,0.359-0.213,0.571-0.277C47.659,85.947,47.902,85.914,48.175,85.914z"/>
	<path fill="#FFFFFF" d="M54.013,94.402c-0.586,0-1.125-0.085-1.619-0.256s-0.918-0.428-1.274-0.773
		c-0.356-0.344-0.634-0.777-0.831-1.303c-0.198-0.525-0.297-1.142-0.297-1.85c0-0.718,0.09-1.346,0.271-1.883
		s0.433-0.984,0.758-1.344c0.324-0.359,0.715-0.629,1.172-0.809c0.456-0.182,0.963-0.271,1.52-0.271
		c0.542,0,1.031,0.082,1.469,0.246c0.437,0.163,0.808,0.403,1.113,0.721c0.305,0.317,0.539,0.707,0.703,1.168
		c0.163,0.461,0.245,0.99,0.245,1.586v1.084h-4.995c0.01,0.313,0.06,0.595,0.15,0.846c0.09,0.252,0.217,0.465,0.381,0.637
		c0.163,0.174,0.361,0.307,0.593,0.4c0.232,0.092,0.497,0.139,0.795,0.139c0.249,0,0.484-0.014,0.707-0.041
		c0.222-0.025,0.438-0.066,0.648-0.12s0.417-0.12,0.623-0.202c0.205-0.08,0.415-0.174,0.63-0.281v1.729
		c-0.195,0.103-0.392,0.189-0.59,0.26c-0.197,0.071-0.406,0.131-0.626,0.18s-0.457,0.084-0.71,0.105
		C54.594,94.393,54.315,94.402,54.013,94.402z M53.727,87.504c-0.396,0-0.724,0.139-0.985,0.417s-0.411,0.716-0.45,1.312h2.849
		c-0.005-0.25-0.037-0.479-0.095-0.689c-0.059-0.209-0.146-0.391-0.264-0.545s-0.264-0.275-0.439-0.363S53.961,87.504,53.727,87.504
		z"/>
	<path fill="#FFFFFF" d="M61.278,89.803l0.82-1.244l1.999-2.49h2.52l-2.959,3.552l3.15,4.636H64.23l-1.992-3.148l-0.872,0.6v2.549
		h-2.234V82.859h2.234v5.084l-0.117,1.859H61.278z"/>
	<path fill="#FFFFFF" d="M71.305,92.623c0.221,0,0.43-0.024,0.627-0.073s0.398-0.11,0.604-0.183v1.662
		c-0.209,0.107-0.47,0.197-0.779,0.268c-0.311,0.07-0.648,0.105-1.015,0.105c-0.356,0-0.688-0.041-0.996-0.124
		s-0.573-0.228-0.798-0.437c-0.225-0.207-0.402-0.484-0.531-0.834c-0.13-0.35-0.194-0.787-0.194-1.314v-3.948h-1.069v-0.944
		l1.23-0.748l0.645-1.729h1.428v1.744h1.992v1.677h-1.992v3.948c0,0.316,0.078,0.551,0.234,0.703
		C70.846,92.547,71.051,92.623,71.305,92.623z"/>
	<path fill="#FFFFFF" d="M74.096,83.951c0-0.21,0.031-0.385,0.096-0.523c0.063-0.139,0.15-0.252,0.26-0.338
		c0.109-0.084,0.238-0.145,0.389-0.179c0.148-0.034,0.306-0.052,0.472-0.052s0.322,0.018,0.469,0.052s0.274,0.095,0.384,0.179
		c0.111,0.086,0.199,0.199,0.264,0.338c0.066,0.139,0.1,0.313,0.1,0.523c0,0.205-0.033,0.379-0.1,0.52
		c-0.064,0.143-0.152,0.256-0.264,0.342c-0.109,0.085-0.237,0.146-0.384,0.182c-0.146,0.037-0.303,0.056-0.469,0.056
		s-0.323-0.019-0.472-0.056c-0.15-0.035-0.279-0.097-0.389-0.182c-0.109-0.086-0.197-0.199-0.26-0.342
		C74.127,84.33,74.096,84.156,74.096,83.951z M76.425,94.256h-2.233v-8.188h2.233V94.256z"/>
	<path fill="#FFFFFF" d="M80.49,94.256l-2.894-8.188h2.337l1.354,4.665c0.083,0.278,0.155,0.567,0.216,0.868s0.1,0.57,0.113,0.809
		h0.045c0.014-0.258,0.052-0.533,0.113-0.824c0.061-0.289,0.133-0.574,0.216-0.853l1.348-4.665h2.344l-2.894,8.188H80.49z"/>
	<path fill="#FFFFFF" d="M90.451,94.402c-0.586,0-1.126-0.085-1.619-0.256s-0.918-0.428-1.274-0.773
		c-0.356-0.344-0.634-0.777-0.831-1.303c-0.198-0.525-0.297-1.142-0.297-1.85c0-0.718,0.09-1.346,0.271-1.883
		c0.18-0.537,0.433-0.984,0.758-1.344c0.324-0.359,0.715-0.629,1.172-0.809c0.456-0.182,0.963-0.271,1.52-0.271
		c0.542,0,1.031,0.082,1.469,0.246c0.437,0.163,0.808,0.403,1.113,0.721c0.305,0.317,0.539,0.707,0.703,1.168
		c0.163,0.461,0.245,0.99,0.245,1.586v1.084h-4.995c0.01,0.313,0.06,0.595,0.15,0.846c0.09,0.252,0.217,0.465,0.381,0.637
		c0.163,0.174,0.361,0.307,0.593,0.4c0.231,0.092,0.497,0.139,0.795,0.139c0.249,0,0.484-0.014,0.707-0.041
		c0.222-0.025,0.438-0.066,0.647-0.12c0.211-0.054,0.418-0.12,0.623-0.202c0.205-0.08,0.415-0.174,0.63-0.281v1.729
		c-0.195,0.103-0.392,0.189-0.59,0.26c-0.197,0.071-0.406,0.131-0.626,0.18s-0.457,0.084-0.711,0.105
		C91.031,94.393,90.754,94.402,90.451,94.402z M90.165,87.504c-0.396,0-0.724,0.139-0.985,0.417s-0.411,0.716-0.45,1.312h2.849
		c-0.004-0.25-0.036-0.479-0.095-0.689c-0.059-0.209-0.146-0.391-0.264-0.545s-0.264-0.275-0.439-0.363S90.399,87.504,90.165,87.504
		z"/>
	<path fill="#FFFFFF" d="M101.027,91.824c0,0.43-0.078,0.807-0.234,1.129s-0.379,0.59-0.667,0.805s-0.638,0.377-1.048,0.484
		s-0.869,0.16-1.377,0.16c-0.268,0-0.518-0.008-0.746-0.025c-0.23-0.018-0.447-0.045-0.652-0.084s-0.402-0.088-0.594-0.146
		c-0.189-0.059-0.383-0.132-0.578-0.22v-1.846c0.205,0.103,0.421,0.195,0.648,0.278c0.227,0.083,0.453,0.155,0.678,0.217
		c0.225,0.061,0.442,0.107,0.655,0.143c0.212,0.033,0.409,0.051,0.589,0.051c0.201,0,0.371-0.018,0.514-0.055
		c0.141-0.037,0.257-0.088,0.348-0.154c0.09-0.066,0.156-0.144,0.197-0.234c0.041-0.09,0.063-0.187,0.063-0.289
		s-0.016-0.193-0.048-0.275c-0.032-0.08-0.104-0.165-0.216-0.256c-0.112-0.09-0.277-0.192-0.494-0.307
		c-0.218-0.115-0.51-0.256-0.875-0.422c-0.357-0.161-0.666-0.32-0.927-0.48c-0.262-0.158-0.477-0.335-0.645-0.53
		c-0.169-0.195-0.294-0.419-0.378-0.671c-0.082-0.25-0.124-0.55-0.124-0.896c0-0.381,0.073-0.715,0.22-1s0.354-0.523,0.623-0.714
		c0.268-0.19,0.592-0.333,0.97-0.429s0.8-0.143,1.264-0.143c0.488,0,0.952,0.057,1.392,0.168c0.439,0.113,0.891,0.281,1.355,0.506
		l-0.674,1.582c-0.371-0.176-0.726-0.32-1.063-0.432c-0.337-0.113-0.674-0.169-1.011-0.169c-0.303,0-0.521,0.054-0.655,0.161
		c-0.135,0.107-0.201,0.254-0.201,0.439c0,0.098,0.017,0.185,0.051,0.26c0.034,0.076,0.103,0.154,0.205,0.234
		s0.246,0.168,0.432,0.264s0.428,0.211,0.726,0.348c0.347,0.152,0.659,0.303,0.938,0.451s0.518,0.318,0.718,0.509
		s0.354,0.413,0.461,0.667S101.027,91.463,101.027,91.824z"/>
	<path fill="#FFFFFF" d="M29.158,110.256h-2.234V99.549h6.138v1.859h-3.904v2.762h3.633v1.854h-3.633V110.256z"/>
	<path fill="#FFFFFF" d="M38.577,110.402c-0.586,0-1.125-0.085-1.619-0.256s-0.918-0.428-1.274-0.773
		c-0.356-0.344-0.634-0.777-0.831-1.303c-0.198-0.525-0.297-1.142-0.297-1.85c0-0.718,0.09-1.346,0.271-1.883
		s0.433-0.984,0.758-1.344c0.324-0.359,0.715-0.629,1.172-0.809c0.456-0.182,0.963-0.271,1.52-0.271
		c0.542,0,1.031,0.082,1.469,0.246c0.437,0.163,0.808,0.403,1.113,0.721c0.305,0.317,0.539,0.707,0.703,1.168
		c0.163,0.461,0.245,0.99,0.245,1.586v1.084h-4.995c0.01,0.313,0.06,0.595,0.15,0.846c0.09,0.252,0.217,0.465,0.381,0.637
		c0.163,0.174,0.361,0.307,0.593,0.4c0.232,0.092,0.497,0.139,0.795,0.139c0.249,0,0.484-0.014,0.707-0.041
		c0.222-0.025,0.438-0.066,0.648-0.12s0.417-0.12,0.623-0.202c0.205-0.08,0.415-0.174,0.63-0.281v1.729
		c-0.195,0.103-0.392,0.189-0.59,0.26c-0.197,0.071-0.406,0.131-0.626,0.18s-0.457,0.084-0.71,0.105
		C39.158,110.393,38.88,110.402,38.577,110.402z M38.292,103.504c-0.396,0-0.724,0.139-0.985,0.417s-0.411,0.716-0.45,1.312h2.849
		c-0.005-0.25-0.037-0.479-0.095-0.689c-0.059-0.209-0.146-0.391-0.264-0.545s-0.264-0.275-0.439-0.363
		S38.526,103.504,38.292,103.504z"/>
	<path fill="#FFFFFF" d="M47.293,110.402c-0.586,0-1.125-0.085-1.619-0.256s-0.918-0.428-1.274-0.773
		c-0.356-0.344-0.634-0.777-0.831-1.303c-0.198-0.525-0.297-1.142-0.297-1.85c0-0.718,0.09-1.346,0.271-1.883
		s0.433-0.984,0.758-1.344c0.324-0.359,0.715-0.629,1.172-0.809c0.456-0.182,0.963-0.271,1.52-0.271
		c0.542,0,1.031,0.082,1.469,0.246c0.437,0.163,0.808,0.403,1.113,0.721c0.305,0.317,0.539,0.707,0.703,1.168
		c0.163,0.461,0.245,0.99,0.245,1.586v1.084h-4.995c0.01,0.313,0.06,0.595,0.15,0.846c0.09,0.252,0.217,0.465,0.381,0.637
		c0.163,0.174,0.361,0.307,0.593,0.4c0.232,0.092,0.497,0.139,0.795,0.139c0.249,0,0.484-0.014,0.707-0.041
		c0.222-0.025,0.438-0.066,0.648-0.12s0.417-0.12,0.623-0.202c0.205-0.08,0.415-0.174,0.63-0.281v1.729
		c-0.195,0.103-0.392,0.189-0.59,0.26c-0.197,0.071-0.406,0.131-0.626,0.18s-0.457,0.084-0.71,0.105
		C47.874,110.393,47.596,110.402,47.293,110.402z M47.007,103.504c-0.396,0-0.724,0.139-0.985,0.417s-0.411,0.716-0.45,1.312h2.849
		c-0.005-0.25-0.037-0.479-0.095-0.689c-0.059-0.209-0.146-0.391-0.264-0.545s-0.264-0.275-0.439-0.363
		S47.242,103.504,47.007,103.504z"/>
	<path fill="#FFFFFF" d="M54.822,110.402c-0.42,0-0.803-0.09-1.15-0.271s-0.645-0.448-0.894-0.802s-0.443-0.795-0.582-1.322
		c-0.14-0.527-0.209-1.138-0.209-1.831c0-0.703,0.069-1.319,0.209-1.849c0.139-0.53,0.337-0.975,0.593-1.334
		c0.257-0.359,0.563-0.629,0.919-0.809c0.356-0.182,0.75-0.271,1.179-0.271c0.264,0,0.505,0.031,0.725,0.092
		s0.417,0.146,0.593,0.256s0.333,0.237,0.473,0.381c0.139,0.145,0.262,0.302,0.37,0.473h0.073c-0.029-0.19-0.056-0.383-0.081-0.578
		c-0.024-0.166-0.045-0.344-0.063-0.531s-0.025-0.363-0.025-0.523v-2.623h2.234v11.396h-1.707l-0.432-1.062h-0.095
		c-0.103,0.166-0.22,0.323-0.352,0.472c-0.132,0.15-0.285,0.277-0.458,0.385s-0.369,0.193-0.586,0.257
		S55.096,110.402,54.822,110.402z M55.635,108.623c0.264,0,0.488-0.045,0.674-0.135c0.186-0.091,0.335-0.229,0.45-0.41
		c0.115-0.184,0.2-0.412,0.257-0.686c0.056-0.273,0.086-0.594,0.091-0.959v-0.242c0-0.396-0.024-0.747-0.073-1.055
		s-0.129-0.564-0.242-0.773c-0.112-0.207-0.264-0.364-0.454-0.472s-0.43-0.161-0.718-0.161c-0.469,0-0.813,0.211-1.033,0.633
		c-0.22,0.424-0.33,1.037-0.33,1.843s0.111,1.409,0.333,1.813C54.813,108.422,55.162,108.623,55.635,108.623z"/>
	<path fill="#FFFFFF" d="M65.896,101.914c0.42,0,0.803,0.09,1.15,0.271c0.346,0.18,0.645,0.449,0.893,0.805
		c0.25,0.357,0.443,0.799,0.583,1.326c0.139,0.527,0.208,1.138,0.208,1.831c0,0.703-0.069,1.319-0.208,1.849
		c-0.14,0.531-0.336,0.974-0.59,1.33s-0.56,0.625-0.915,0.806c-0.357,0.181-0.75,0.271-1.18,0.271c-0.273,0-0.517-0.029-0.729-0.088
		c-0.213-0.059-0.402-0.137-0.568-0.234s-0.311-0.209-0.436-0.332c-0.124-0.125-0.238-0.256-0.34-0.393h-0.154l-0.373,0.9h-1.707
		V98.859h2.234v2.652c0,0.16-0.006,0.336-0.016,0.523s-0.02,0.362-0.029,0.523c-0.014,0.19-0.029,0.381-0.043,0.571h0.088
		c0.102-0.171,0.219-0.329,0.352-0.476c0.131-0.146,0.283-0.275,0.457-0.385s0.37-0.197,0.59-0.26
		C65.384,101.945,65.628,101.914,65.896,101.914z M65.143,103.701c-0.25,0-0.461,0.045-0.634,0.135
		c-0.174,0.092-0.313,0.227-0.421,0.407s-0.186,0.409-0.234,0.685c-0.049,0.276-0.078,0.598-0.088,0.963v0.242
		c0,0.396,0.022,0.747,0.069,1.055c0.046,0.308,0.123,0.565,0.23,0.773c0.107,0.207,0.25,0.364,0.429,0.472
		c0.178,0.107,0.398,0.161,0.662,0.161c0.445,0,0.771-0.211,0.979-0.633c0.207-0.423,0.311-1.037,0.311-1.843
		s-0.104-1.409-0.311-1.813C65.927,103.902,65.596,103.701,65.143,103.701z"/>
	<path fill="#FFFFFF" d="M75.403,110.256l-0.433-1.113h-0.065c-0.161,0.221-0.322,0.41-0.483,0.568s-0.337,0.289-0.527,0.392
		s-0.404,0.179-0.641,0.228c-0.237,0.049-0.512,0.072-0.824,0.072c-0.332,0-0.64-0.053-0.923-0.156
		c-0.283-0.105-0.528-0.264-0.735-0.477c-0.209-0.213-0.371-0.48-0.488-0.807c-0.117-0.324-0.176-0.709-0.176-1.152
		c0-0.869,0.279-1.51,0.836-1.924c0.557-0.412,1.389-0.641,2.497-0.684l1.304-0.045v-0.615c0-0.336-0.098-0.586-0.293-0.746
		c-0.195-0.162-0.469-0.242-0.82-0.242s-0.695,0.051-1.029,0.154c-0.334,0.102-0.67,0.238-1.007,0.41l-0.726-1.48
		c0.41-0.229,0.865-0.41,1.363-0.541c0.498-0.133,1.02-0.198,1.566-0.198c1.021,0,1.803,0.239,2.348,0.718s0.816,1.206,0.816,2.183
		v5.456H75.403z M74.744,106.463l-0.74,0.029c-0.297,0.01-0.549,0.049-0.754,0.117s-0.369,0.16-0.494,0.273
		c-0.125,0.115-0.215,0.252-0.271,0.41c-0.057,0.16-0.084,0.336-0.084,0.531c0,0.342,0.083,0.586,0.249,0.729
		c0.166,0.145,0.384,0.217,0.651,0.217c0.205,0,0.396-0.035,0.572-0.105c0.176-0.071,0.328-0.176,0.457-0.316
		c0.129-0.139,0.23-0.309,0.305-0.512c0.072-0.203,0.109-0.436,0.109-0.699V106.463z"/>
	<path fill="#FFFFFF" d="M82.669,110.402c-0.586,0-1.114-0.08-1.585-0.241c-0.473-0.161-0.875-0.411-1.209-0.751
		c-0.335-0.339-0.592-0.773-0.77-1.303c-0.178-0.53-0.268-1.164-0.268-1.901c0-0.815,0.092-1.497,0.275-2.048
		c0.184-0.549,0.441-0.989,0.775-1.321c0.335-0.332,0.738-0.569,1.209-0.71c0.471-0.143,0.995-0.213,1.571-0.213
		c0.42,0,0.837,0.051,1.253,0.154c0.414,0.102,0.805,0.246,1.172,0.432l-0.645,1.699c-0.322-0.142-0.633-0.258-0.931-0.348
		s-0.581-0.136-0.85-0.136c-0.542,0-0.935,0.206-1.179,0.618c-0.244,0.414-0.367,1.032-0.367,1.857c0,0.82,0.123,1.426,0.367,1.816
		s0.627,0.586,1.149,0.586c0.425,0,0.811-0.055,1.157-0.164c0.347-0.111,0.701-0.251,1.063-0.422v1.86
		c-0.182,0.088-0.357,0.166-0.527,0.234c-0.172,0.068-0.344,0.124-0.518,0.169c-0.173,0.043-0.354,0.076-0.541,0.098
		C83.085,110.393,82.884,110.402,82.669,110.402z"/>
	<path fill="#FFFFFF" d="M88.895,105.803l0.82-1.244l2-2.49h2.52l-2.959,3.552l3.148,4.636h-2.578l-1.992-3.148l-0.871,0.6v2.549
		h-2.234V98.859h2.234v5.084l-0.117,1.859H88.895z"/>
</g>
<path opacity="0.6" fill="#FFFFFF" d="M59.193,5.312c-17.417,0.28-32.78,9.986-36.042,23.755
	c-3.726,15.729,9.745,30.834,30.073,33.726c0.004,0.024-0.003,0.061-0.005,0.096l-0.117,0.004l-15.84,14.732l32.544-15.291
	l-0.32,0.011l0.209-0.159l0.466-0.016l-0.354,0.164l0.447-0.014v-0.155h0.004c14.082-3.103,23.955-11.507,26.594-22.648
	c3.728-15.736-9.76-30.847-30.102-33.731c-2.543-0.36-5.069-0.514-7.558-0.474L59.193,5.312z"/>
<g>
</g>
<g>
</g>
<g>
</g>
<g>
</g>
<g>
</g>
<g>
</g>
<g>
</g>
<g>
</g>
<g>
</g>
<g>
</g>
<g>
</g>
<g>
</g>
<g>
</g>
<g>
</g>
<g>
</g>
</svg>
