<?xml version="1.0" encoding="utf-8"?>
<!-- Generator: Adobe Illustrator 16.0.3, SVG Export Plug-In . SVG Version: 6.00 Build 0)  -->
<!DOCTYPE svg PUBLIC "-//W3C//DTD SVG 1.1//EN" "http://www.w3.org/Graphics/SVG/1.1/DTD/svg11.dtd">
<svg version="1.1" id="Ebene_1" xmlns="http://www.w3.org/2000/svg" xmlns:xlink="http://www.w3.org/1999/xlink" x="0px" y="0px"
	 width="120px" height="120px" viewBox="0 0 120 120" enable-background="new 0 0 120 120" xml:space="preserve">
<path fill="#FF9900" d="M104.948,120H15.052C6.763,120,0,113.236,0,104.948V15.052C0,6.763,6.763,0,15.052,0h89.896
	C113.237,0,120,6.763,120,15.052v89.896C120,113.236,113.237,120,104.948,120z"/>
<g>
	<rect x="0.039" y="82.857" fill="none" width="119.923" height="48.701"/>
	<path fill="#FFFFFF" d="M18.099,94.257H15.22l-4.211-8.101h-0.066c0.029,0.376,0.054,0.75,0.073,1.121
		c0.02,0.316,0.035,0.65,0.048,0.999c0.012,0.35,0.018,0.663,0.018,0.941v5.039H9.053V83.549h2.864l4.204,8.02h0.044
		c-0.015-0.371-0.032-0.736-0.051-1.098c-0.005-0.156-0.011-0.316-0.019-0.48c-0.007-0.163-0.013-0.326-0.018-0.49
		s-0.009-0.321-0.011-0.473s-0.003-0.288-0.003-0.41v-5.068h2.036V94.257z"/>
	<path fill="#FFFFFF" d="M25.379,94.257l-0.432-1.113h-0.066c-0.161,0.22-0.322,0.409-0.483,0.567
		C24.236,93.87,24.061,94,23.87,94.104c-0.19,0.102-0.404,0.178-0.641,0.227s-0.511,0.073-0.824,0.073
		c-0.332,0-0.64-0.053-0.923-0.157c-0.283-0.105-0.529-0.264-0.736-0.477c-0.208-0.212-0.37-0.48-0.487-0.806
		c-0.117-0.324-0.176-0.709-0.176-1.153c0-0.869,0.278-1.51,0.835-1.923c0.557-0.412,1.389-0.641,2.498-0.685l1.304-0.044v-0.615
		c0-0.337-0.098-0.586-0.293-0.747s-0.469-0.242-0.82-0.242s-0.695,0.052-1.029,0.154c-0.335,0.103-0.67,0.239-1.007,0.41
		l-0.725-1.479c0.41-0.229,0.864-0.41,1.362-0.542s1.021-0.197,1.567-0.197c1.021,0,1.803,0.238,2.348,0.717
		c0.544,0.479,0.816,1.207,0.816,2.184v5.456H25.379z M24.72,90.463l-0.74,0.029c-0.298,0.01-0.549,0.049-0.754,0.117
		s-0.37,0.16-0.495,0.274c-0.124,0.115-0.215,0.252-0.271,0.41c-0.057,0.159-0.084,0.336-0.084,0.531
		c0,0.342,0.083,0.585,0.249,0.729c0.166,0.145,0.383,0.216,0.652,0.216c0.205,0,0.396-0.035,0.571-0.105s0.328-0.176,0.458-0.315
		c0.129-0.139,0.23-0.31,0.304-0.513c0.073-0.202,0.11-0.436,0.11-0.699V90.463z"/>
	<path fill="#FFFFFF" d="M32.645,94.403c-0.586,0-1.115-0.081-1.585-0.241C30.587,94,30.185,93.75,29.85,93.411
		s-0.591-0.774-0.769-1.304c-0.179-0.529-0.268-1.164-0.268-1.9c0-0.816,0.092-1.498,0.274-2.048
		c0.184-0.549,0.442-0.989,0.776-1.321s0.737-0.569,1.209-0.711c0.471-0.142,0.995-0.213,1.571-0.213
		c0.42,0,0.837,0.052,1.252,0.154s0.806,0.246,1.172,0.432l-0.645,1.699c-0.322-0.141-0.632-0.257-0.93-0.348
		c-0.298-0.09-0.581-0.135-0.85-0.135c-0.542,0-0.935,0.206-1.179,0.618c-0.244,0.413-0.366,1.032-0.366,1.856
		c0,0.82,0.122,1.426,0.366,1.816s0.627,0.586,1.15,0.586c0.425,0,0.811-0.055,1.157-0.164c0.347-0.11,0.701-0.25,1.062-0.422v1.861
		c-0.181,0.088-0.356,0.166-0.527,0.234s-0.343,0.124-0.517,0.168s-0.354,0.077-0.542,0.099
		C33.061,94.393,32.859,94.403,32.645,94.403z"/>
	<path fill="#FFFFFF" d="M43.829,94.257h-2.234v-4.782c0-0.592-0.091-1.034-0.275-1.33c-0.183-0.295-0.465-0.443-0.846-0.443
		c-0.288,0-0.53,0.059-0.725,0.176s-0.352,0.291-0.469,0.521s-0.2,0.513-0.249,0.85s-0.073,0.723-0.073,1.157v3.853h-2.234V82.86
		h2.234v2.321c0,0.205-0.005,0.422-0.015,0.648c-0.01,0.228-0.022,0.436-0.037,0.627c-0.02,0.225-0.037,0.443-0.051,0.658h0.117
		c0.239-0.424,0.544-0.73,0.916-0.919c0.371-0.188,0.791-0.282,1.26-0.282c0.405,0,0.772,0.059,1.103,0.173
		c0.329,0.114,0.611,0.294,0.846,0.538s0.415,0.556,0.542,0.934c0.127,0.379,0.19,0.832,0.19,1.359V94.257z"/>
	<path fill="#FFFFFF" d="M50.384,87.746h-1.663v6.511h-2.234v-6.511h-1.23v-1.077l1.23-0.601v-0.601c0-0.522,0.063-0.956,0.19-1.3
		c0.127-0.345,0.308-0.619,0.542-0.824s0.518-0.35,0.85-0.436s0.706-0.129,1.121-0.129c0.449,0,0.828,0.036,1.135,0.106
		c0.308,0.071,0.569,0.15,0.784,0.238l-0.527,1.641c-0.151-0.054-0.31-0.103-0.476-0.146s-0.361-0.065-0.586-0.065
		c-0.293,0-0.5,0.094-0.619,0.281c-0.12,0.188-0.18,0.429-0.18,0.722v0.513h1.663V87.746z"/>
	<path fill="#FFFFFF" d="M56.207,85.914c0.059,0,0.123,0.002,0.194,0.004c0.071,0.003,0.14,0.008,0.205,0.015
		c0.066,0.008,0.127,0.015,0.184,0.022c0.056,0.007,0.099,0.016,0.128,0.025v2.095c-0.039-0.01-0.093-0.02-0.161-0.029
		s-0.141-0.019-0.216-0.025c-0.076-0.008-0.15-0.013-0.224-0.015s-0.134-0.004-0.183-0.004c-0.288,0-0.553,0.037-0.794,0.109
		c-0.242,0.074-0.45,0.192-0.623,0.355c-0.173,0.164-0.308,0.379-0.402,0.645c-0.096,0.267-0.143,0.592-0.143,0.979v4.167h-2.234
		v-8.188h1.692l0.33,1.23h0.11c0.117-0.21,0.244-0.4,0.381-0.571s0.29-0.315,0.458-0.436c0.169-0.12,0.359-0.213,0.571-0.278
		C55.69,85.947,55.933,85.914,56.207,85.914z"/>
	<path fill="#FFFFFF" d="M63.055,94.257l-0.432-1.113h-0.066c-0.161,0.22-0.322,0.409-0.483,0.567
		c-0.161,0.159-0.337,0.289-0.527,0.393c-0.19,0.102-0.404,0.178-0.641,0.227s-0.511,0.073-0.824,0.073
		c-0.332,0-0.64-0.053-0.923-0.157c-0.283-0.105-0.529-0.264-0.736-0.477c-0.208-0.212-0.37-0.48-0.487-0.806
		c-0.117-0.324-0.176-0.709-0.176-1.153c0-0.869,0.278-1.51,0.835-1.923c0.557-0.412,1.389-0.641,2.498-0.685l1.304-0.044v-0.615
		c0-0.337-0.098-0.586-0.293-0.747s-0.469-0.242-0.82-0.242s-0.695,0.052-1.029,0.154c-0.335,0.103-0.67,0.239-1.007,0.41
		l-0.725-1.479c0.41-0.229,0.864-0.41,1.362-0.542s1.021-0.197,1.568-0.197c1.02,0,1.803,0.238,2.348,0.717
		c0.543,0.479,0.816,1.207,0.816,2.184v5.456H63.055z M62.396,90.463l-0.739,0.029c-0.299,0.01-0.55,0.049-0.755,0.117
		s-0.37,0.16-0.495,0.274c-0.124,0.115-0.215,0.252-0.271,0.41c-0.057,0.159-0.084,0.336-0.084,0.531
		c0,0.342,0.083,0.585,0.249,0.729c0.166,0.145,0.383,0.216,0.652,0.216c0.206,0,0.395-0.035,0.571-0.105s0.328-0.176,0.459-0.315
		c0.129-0.139,0.23-0.31,0.303-0.513c0.074-0.202,0.11-0.436,0.11-0.699V90.463z"/>
	<path fill="#FFFFFF" d="M73.689,86.083v1.216l-1.193,0.373c0.098,0.166,0.166,0.339,0.205,0.517
		c0.039,0.179,0.059,0.37,0.059,0.575c0,0.415-0.066,0.795-0.198,1.139c-0.132,0.345-0.327,0.639-0.586,0.883
		s-0.583,0.434-0.974,0.567c-0.391,0.135-0.846,0.202-1.363,0.202c-0.111,0-0.234-0.006-0.365-0.019
		c-0.133-0.013-0.23-0.026-0.293-0.04c-0.098,0.082-0.176,0.17-0.23,0.26c-0.057,0.09-0.085,0.199-0.085,0.326
		c0,0.102,0.032,0.184,0.095,0.245c0.064,0.062,0.146,0.109,0.25,0.146c0.102,0.036,0.222,0.062,0.358,0.073
		s0.278,0.018,0.425,0.018h1.274c0.396,0,0.749,0.046,1.062,0.136c0.313,0.091,0.578,0.229,0.795,0.414s0.385,0.421,0.502,0.707
		c0.117,0.285,0.176,0.626,0.176,1.021c0,0.464-0.093,0.883-0.278,1.256c-0.186,0.374-0.463,0.69-0.831,0.952
		c-0.369,0.262-0.826,0.462-1.373,0.601c-0.547,0.14-1.18,0.209-1.897,0.209c-0.557,0-1.042-0.053-1.458-0.157
		c-0.414-0.105-0.762-0.257-1.039-0.454c-0.279-0.198-0.488-0.437-0.627-0.714c-0.139-0.279-0.209-0.594-0.209-0.945
		c0-0.298,0.052-0.557,0.154-0.776s0.239-0.407,0.41-0.563s0.365-0.283,0.582-0.381s0.441-0.174,0.67-0.228
		c-0.102-0.044-0.203-0.104-0.303-0.183c-0.102-0.078-0.191-0.169-0.271-0.271s-0.146-0.216-0.197-0.341
		c-0.053-0.124-0.078-0.255-0.078-0.392c0-0.156,0.023-0.298,0.07-0.425c0.046-0.127,0.113-0.245,0.201-0.355
		c0.088-0.109,0.197-0.214,0.33-0.312c0.131-0.098,0.28-0.197,0.446-0.3c-0.43-0.186-0.771-0.483-1.022-0.894
		c-0.251-0.41-0.377-0.894-0.377-1.45c0-0.439,0.068-0.833,0.205-1.179c0.137-0.348,0.338-0.642,0.602-0.883
		c0.264-0.242,0.59-0.426,0.98-0.553s0.84-0.191,1.348-0.191c0.098,0,0.208,0.007,0.33,0.019c0.122,0.013,0.242,0.027,0.363,0.044
		c0.119,0.018,0.23,0.035,0.332,0.055c0.104,0.02,0.184,0.037,0.242,0.052H73.689z M67.83,95.414c0,0.122,0.025,0.24,0.076,0.355
		c0.053,0.114,0.137,0.216,0.254,0.304s0.271,0.157,0.461,0.209c0.19,0.051,0.425,0.077,0.703,0.077
		c0.762,0,1.336-0.107,1.721-0.322c0.387-0.215,0.579-0.504,0.579-0.865c0-0.307-0.12-0.512-0.358-0.615
		c-0.24-0.102-0.611-0.153-1.113-0.153h-1.033c-0.132,0-0.273,0.016-0.425,0.048c-0.151,0.031-0.29,0.086-0.417,0.164
		s-0.234,0.182-0.318,0.312C67.873,95.057,67.83,95.219,67.83,95.414z M68.636,88.749c0,0.444,0.083,0.788,0.249,1.032
		s0.418,0.367,0.754,0.367c0.352,0,0.605-0.123,0.762-0.367s0.234-0.588,0.234-1.032c0-0.439-0.076-0.788-0.23-1.048
		c-0.154-0.258-0.408-0.388-0.766-0.388C68.971,87.313,68.636,87.792,68.636,88.749z"/>
	<path fill="#FFFFFF" d="M78.787,94.403c-0.586,0-1.125-0.085-1.619-0.257c-0.492-0.17-0.918-0.428-1.273-0.772
		c-0.357-0.344-0.635-0.778-0.832-1.304c-0.197-0.524-0.297-1.141-0.297-1.85c0-0.717,0.091-1.345,0.271-1.882
		s0.434-0.985,0.758-1.344c0.324-0.359,0.715-0.629,1.172-0.81s0.963-0.271,1.52-0.271c0.543,0,1.031,0.082,1.469,0.246
		s0.809,0.404,1.113,0.721c0.305,0.318,0.539,0.707,0.703,1.169c0.164,0.461,0.246,0.989,0.246,1.585v1.084h-4.996
		c0.01,0.313,0.061,0.596,0.15,0.847s0.217,0.464,0.381,0.637c0.164,0.174,0.361,0.307,0.594,0.399
		c0.231,0.093,0.496,0.139,0.795,0.139c0.248,0,0.484-0.013,0.707-0.04c0.221-0.026,0.438-0.067,0.647-0.12
		c0.21-0.055,0.417-0.121,0.622-0.202c0.205-0.08,0.416-0.175,0.631-0.282v1.729c-0.195,0.104-0.393,0.189-0.59,0.261
		s-0.406,0.13-0.627,0.179c-0.219,0.049-0.456,0.085-0.71,0.106C79.368,94.393,79.09,94.403,78.787,94.403z M78.502,87.504
		c-0.396,0-0.725,0.139-0.986,0.418c-0.261,0.277-0.41,0.715-0.449,1.311h2.849c-0.005-0.249-0.036-0.479-0.095-0.688
		s-0.146-0.392-0.264-0.546c-0.117-0.153-0.264-0.274-0.439-0.362S78.736,87.504,78.502,87.504z"/>
	<path fill="#FFFFFF" d="M91.012,94.257h-2.234v-4.782c0-0.592-0.09-1.034-0.268-1.33c-0.178-0.295-0.463-0.443-0.854-0.443
		c-0.293,0-0.537,0.059-0.732,0.176s-0.35,0.291-0.465,0.521s-0.196,0.513-0.245,0.85s-0.073,0.723-0.073,1.157v3.853h-2.234v-8.188
		h1.707l0.301,1.047h0.124c0.117-0.209,0.261-0.391,0.429-0.541c0.168-0.152,0.353-0.276,0.553-0.374s0.412-0.169,0.637-0.216
		s0.455-0.07,0.689-0.07c0.4,0,0.764,0.059,1.091,0.173s0.608,0.294,0.843,0.538s0.414,0.556,0.541,0.934
		c0.127,0.379,0.191,0.832,0.191,1.359V94.257z"/>
	<path fill="#FFFFFF" d="M102.459,94.257h-6.021v-1.318l3.347-5.163h-3.119v-1.707h5.654v1.45l-3.238,5.032h3.377V94.257z"/>
	<path fill="#FFFFFF" d="M109.417,94.257l-0.3-1.048H109c-0.123,0.211-0.268,0.391-0.436,0.539c-0.17,0.148-0.354,0.271-0.554,0.369
		s-0.413,0.17-0.638,0.217c-0.225,0.046-0.453,0.069-0.688,0.069c-0.4,0-0.765-0.058-1.092-0.172s-0.607-0.294-0.842-0.538
		s-0.416-0.555-0.543-0.931s-0.189-0.827-0.189-1.354v-5.34h2.233v4.783c0,0.59,0.089,1.033,0.267,1.329
		c0.179,0.296,0.463,0.442,0.854,0.442c0.293,0,0.537-0.059,0.732-0.176s0.351-0.29,0.465-0.52c0.115-0.229,0.197-0.513,0.246-0.85
		s0.073-0.723,0.073-1.157v-3.853h2.233v8.188H109.417z"/>
	<path fill="#FFFFFF" d="M24.591,99.549h2.292l-3.34,10.708h-2.476l-3.333-10.708h2.292l1.816,6.445
		c0.024,0.083,0.057,0.223,0.099,0.418c0.041,0.195,0.085,0.41,0.132,0.645c0.046,0.234,0.091,0.469,0.135,0.703
		s0.078,0.432,0.103,0.593c0.024-0.161,0.059-0.358,0.103-0.593s0.09-0.468,0.139-0.7c0.049-0.231,0.096-0.445,0.143-0.641
		s0.082-0.337,0.106-0.425L24.591,99.549z"/>
	<path fill="#FFFFFF" d="M34.669,106.148c0,0.684-0.087,1.289-0.26,1.816c-0.174,0.527-0.423,0.971-0.747,1.332
		c-0.325,0.361-0.721,0.637-1.187,0.824c-0.467,0.188-0.99,0.282-1.571,0.282c-0.542,0-1.04-0.095-1.494-0.282
		s-0.846-0.463-1.176-0.824c-0.329-0.361-0.587-0.805-0.772-1.332s-0.278-1.133-0.278-1.816c0-0.68,0.086-1.282,0.26-1.81
		s0.422-0.971,0.747-1.329c0.325-0.359,0.719-0.631,1.183-0.816s0.989-0.279,1.575-0.279c0.542,0,1.04,0.094,1.494,0.279
		s0.846,0.457,1.176,0.816c0.329,0.358,0.587,0.802,0.772,1.329S34.669,105.469,34.669,106.148z M29.469,106.148
		c0,0.814,0.115,1.43,0.344,1.842s0.603,0.619,1.121,0.619c0.513,0,0.884-0.208,1.113-0.623s0.344-1.027,0.344-1.838
		c0-0.816-0.115-1.425-0.344-1.828c-0.229-0.402-0.605-0.604-1.128-0.604c-0.513,0-0.883,0.201-1.109,0.604
		C29.583,104.724,29.469,105.332,29.469,106.148z"/>
	<path fill="#FFFFFF" d="M40.866,101.914c0.059,0,0.123,0.002,0.194,0.004c0.071,0.003,0.14,0.008,0.205,0.015
		c0.066,0.008,0.127,0.015,0.184,0.022c0.056,0.007,0.099,0.016,0.128,0.025v2.095c-0.039-0.01-0.093-0.02-0.161-0.029
		s-0.141-0.019-0.216-0.025c-0.076-0.008-0.15-0.013-0.224-0.015s-0.134-0.004-0.183-0.004c-0.288,0-0.553,0.037-0.794,0.109
		c-0.242,0.074-0.45,0.192-0.623,0.355c-0.173,0.164-0.308,0.379-0.402,0.645c-0.096,0.267-0.143,0.592-0.143,0.979v4.167h-2.234
		v-8.188h1.692l0.33,1.23h0.11c0.117-0.21,0.244-0.4,0.381-0.571s0.29-0.315,0.458-0.436c0.169-0.12,0.359-0.213,0.571-0.278
		C40.35,101.947,40.592,101.914,40.866,101.914z"/>
	<path fill="#FFFFFF" d="M50.211,110.257h-2.234v-4.782c0-0.592-0.091-1.034-0.275-1.33c-0.183-0.295-0.465-0.443-0.846-0.443
		c-0.288,0-0.53,0.059-0.725,0.176s-0.352,0.291-0.469,0.521s-0.2,0.513-0.249,0.85s-0.073,0.723-0.073,1.157v3.853h-2.234V98.86
		h2.234v2.321c0,0.205-0.005,0.422-0.015,0.648c-0.01,0.228-0.022,0.436-0.037,0.627c-0.02,0.225-0.037,0.443-0.051,0.658h0.117
		c0.239-0.424,0.544-0.73,0.916-0.919c0.371-0.188,0.791-0.282,1.26-0.282c0.405,0,0.772,0.059,1.103,0.173
		c0.329,0.114,0.611,0.294,0.846,0.538s0.415,0.556,0.542,0.934c0.127,0.379,0.19,0.832,0.19,1.359V110.257z"/>
	<path fill="#FFFFFF" d="M56.107,110.403c-0.586,0-1.125-0.085-1.619-0.257c-0.493-0.17-0.918-0.428-1.274-0.772
		c-0.356-0.344-0.634-0.778-0.831-1.304c-0.198-0.524-0.297-1.141-0.297-1.85c0-0.717,0.09-1.345,0.271-1.882
		s0.433-0.985,0.758-1.344c0.324-0.359,0.715-0.629,1.172-0.81c0.456-0.181,0.963-0.271,1.52-0.271c0.542,0,1.031,0.082,1.469,0.246
		c0.437,0.164,0.808,0.404,1.113,0.721c0.305,0.318,0.539,0.707,0.703,1.169c0.163,0.461,0.245,0.989,0.245,1.585v1.084h-4.995
		c0.01,0.313,0.06,0.596,0.15,0.847c0.09,0.251,0.217,0.464,0.381,0.637c0.163,0.174,0.361,0.307,0.593,0.399
		s0.497,0.139,0.795,0.139c0.249,0,0.484-0.013,0.707-0.04c0.222-0.026,0.438-0.067,0.648-0.12c0.21-0.055,0.417-0.121,0.623-0.202
		c0.205-0.08,0.415-0.175,0.63-0.282v1.729c-0.195,0.104-0.392,0.189-0.59,0.261c-0.197,0.071-0.406,0.13-0.626,0.179
		s-0.457,0.085-0.71,0.106C56.688,110.393,56.41,110.403,56.107,110.403z M55.822,103.504c-0.396,0-0.724,0.139-0.985,0.418
		c-0.261,0.277-0.411,0.715-0.45,1.311h2.849c-0.005-0.249-0.037-0.479-0.095-0.688s-0.146-0.392-0.264-0.546
		c-0.117-0.153-0.264-0.274-0.439-0.362S56.056,103.504,55.822,103.504z"/>
	<path fill="#FFFFFF" d="M65.497,101.914c0.059,0,0.123,0.002,0.194,0.004c0.07,0.003,0.139,0.008,0.205,0.015
		c0.066,0.008,0.127,0.015,0.184,0.022c0.055,0.007,0.098,0.016,0.127,0.025v2.095c-0.039-0.01-0.092-0.02-0.16-0.029
		s-0.141-0.019-0.217-0.025c-0.076-0.008-0.15-0.013-0.223-0.015c-0.074-0.002-0.135-0.004-0.184-0.004
		c-0.288,0-0.553,0.037-0.795,0.109c-0.242,0.074-0.449,0.192-0.623,0.355c-0.173,0.164-0.307,0.379-0.402,0.645
		c-0.096,0.267-0.143,0.592-0.143,0.979v4.167h-2.234v-8.188h1.692l0.329,1.23h0.11c0.117-0.21,0.244-0.4,0.381-0.571
		s0.29-0.315,0.458-0.436s0.359-0.213,0.57-0.278C64.98,101.947,65.224,101.914,65.497,101.914z"/>
	<path fill="#FFFFFF" d="M67.643,99.951c0-0.209,0.032-0.384,0.096-0.523c0.063-0.139,0.15-0.251,0.26-0.337
		c0.11-0.085,0.239-0.146,0.389-0.179c0.148-0.035,0.307-0.052,0.473-0.052s0.322,0.017,0.469,0.052
		c0.146,0.033,0.274,0.094,0.384,0.179c0.11,0.086,0.198,0.198,0.264,0.337c0.066,0.14,0.099,0.314,0.099,0.523
		c0,0.205-0.032,0.379-0.099,0.521c-0.065,0.142-0.153,0.255-0.264,0.341c-0.109,0.086-0.237,0.146-0.384,0.183
		c-0.146,0.037-0.303,0.056-0.469,0.056s-0.324-0.019-0.473-0.056c-0.149-0.036-0.278-0.097-0.389-0.183
		c-0.109-0.086-0.196-0.199-0.26-0.341S67.643,100.156,67.643,99.951z M69.973,110.257h-2.234v-8.188h2.234V110.257z"/>
	<path fill="#FFFFFF" d="M79.091,102.083v1.216l-1.194,0.373c0.098,0.166,0.166,0.339,0.205,0.517
		c0.039,0.179,0.059,0.37,0.059,0.575c0,0.415-0.065,0.795-0.197,1.139c-0.132,0.345-0.327,0.639-0.586,0.883
		s-0.584,0.434-0.975,0.567c-0.391,0.135-0.844,0.202-1.361,0.202c-0.113,0-0.234-0.006-0.367-0.019
		c-0.131-0.013-0.229-0.026-0.293-0.04c-0.098,0.082-0.174,0.17-0.23,0.26s-0.084,0.199-0.084,0.326
		c0,0.102,0.031,0.184,0.096,0.245c0.063,0.062,0.146,0.109,0.248,0.146c0.104,0.036,0.223,0.062,0.359,0.073
		s0.278,0.018,0.425,0.018h1.274c0.396,0,0.75,0.046,1.063,0.136c0.313,0.091,0.576,0.229,0.795,0.414
		c0.217,0.186,0.384,0.421,0.501,0.707c0.117,0.285,0.176,0.626,0.176,1.021c0,0.464-0.093,0.883-0.278,1.256
		c-0.186,0.374-0.463,0.69-0.832,0.952c-0.368,0.262-0.826,0.462-1.373,0.601c-0.547,0.14-1.179,0.209-1.896,0.209
		c-0.557,0-1.043-0.053-1.457-0.157c-0.416-0.105-0.762-0.257-1.041-0.454c-0.277-0.198-0.486-0.437-0.625-0.714
		c-0.141-0.279-0.209-0.594-0.209-0.945c0-0.298,0.051-0.557,0.153-0.776s0.239-0.407,0.41-0.563s0.364-0.283,0.583-0.381
		c0.217-0.098,0.439-0.174,0.67-0.228c-0.104-0.044-0.205-0.104-0.305-0.183s-0.189-0.169-0.271-0.271
		c-0.08-0.103-0.146-0.216-0.197-0.341c-0.051-0.124-0.076-0.255-0.076-0.392c0-0.156,0.022-0.298,0.068-0.425
		c0.047-0.127,0.114-0.245,0.202-0.355c0.088-0.109,0.198-0.214,0.329-0.312c0.133-0.098,0.281-0.197,0.447-0.3
		c-0.43-0.186-0.771-0.483-1.021-0.894c-0.252-0.41-0.377-0.894-0.377-1.45c0-0.439,0.068-0.833,0.205-1.179
		c0.137-0.348,0.336-0.642,0.6-0.883c0.264-0.242,0.592-0.426,0.982-0.553s0.84-0.191,1.348-0.191c0.098,0,0.207,0.007,0.329,0.019
		c0.122,0.013,0.243,0.027,0.362,0.044c0.119,0.018,0.23,0.035,0.334,0.055c0.102,0.02,0.183,0.037,0.241,0.052H79.091z
		 M73.231,111.414c0,0.122,0.026,0.24,0.077,0.355c0.051,0.114,0.135,0.216,0.252,0.304s0.271,0.157,0.462,0.209
		c0.19,0.051,0.425,0.077,0.703,0.077c0.762,0,1.335-0.107,1.722-0.322c0.385-0.215,0.578-0.504,0.578-0.865
		c0-0.307-0.119-0.512-0.359-0.615c-0.238-0.102-0.609-0.153-1.113-0.153h-1.032c-0.132,0-0.273,0.016-0.425,0.048
		c-0.151,0.031-0.291,0.086-0.418,0.164s-0.232,0.182-0.318,0.312S73.231,111.219,73.231,111.414z M74.037,104.749
		c0,0.444,0.083,0.788,0.249,1.032s0.417,0.367,0.755,0.367c0.352,0,0.605-0.123,0.762-0.367s0.234-0.588,0.234-1.032
		c0-0.439-0.078-0.788-0.23-1.048c-0.154-0.258-0.41-0.388-0.766-0.388C74.371,103.313,74.037,103.792,74.037,104.749z"/>
	<path fill="#FFFFFF" d="M84.188,110.403c-0.586,0-1.126-0.085-1.618-0.257c-0.494-0.17-0.918-0.428-1.275-0.772
		c-0.355-0.344-0.633-0.778-0.83-1.304c-0.199-0.524-0.297-1.141-0.297-1.85c0-0.717,0.09-1.345,0.271-1.882
		s0.433-0.985,0.759-1.344c0.324-0.359,0.715-0.629,1.172-0.81c0.455-0.181,0.963-0.271,1.52-0.271c0.541,0,1.031,0.082,1.469,0.246
		c0.436,0.164,0.807,0.404,1.113,0.721c0.305,0.318,0.539,0.707,0.703,1.169c0.162,0.461,0.244,0.989,0.244,1.585v1.084h-4.994
		c0.01,0.313,0.059,0.596,0.15,0.847c0.09,0.251,0.217,0.464,0.381,0.637c0.162,0.174,0.36,0.307,0.592,0.399
		c0.232,0.093,0.498,0.139,0.795,0.139c0.25,0,0.484-0.013,0.707-0.04c0.223-0.026,0.438-0.067,0.648-0.12
		c0.21-0.055,0.418-0.121,0.623-0.202c0.205-0.08,0.414-0.175,0.629-0.282v1.729c-0.195,0.104-0.391,0.189-0.59,0.261
		c-0.197,0.071-0.406,0.13-0.625,0.179c-0.221,0.049-0.457,0.085-0.711,0.106C84.77,110.393,84.491,110.403,84.188,110.403z
		 M83.902,103.504c-0.395,0-0.724,0.139-0.984,0.418c-0.262,0.277-0.412,0.715-0.451,1.311h2.85
		c-0.005-0.249-0.037-0.479-0.096-0.688s-0.146-0.392-0.264-0.546c-0.117-0.153-0.264-0.274-0.439-0.362
		S84.137,103.504,83.902,103.504z"/>
	<path fill="#FFFFFF" d="M96.34,110.257h-2.234v-4.782c0-0.592-0.088-1.034-0.264-1.33c-0.176-0.295-0.451-0.443-0.828-0.443
		c-0.283,0-0.519,0.059-0.707,0.176c-0.188,0.117-0.338,0.291-0.449,0.521c-0.113,0.229-0.193,0.513-0.242,0.85
		s-0.073,0.723-0.073,1.157v3.853h-2.233v-8.188h1.706l0.3,1.047h0.125c0.117-0.209,0.258-0.391,0.422-0.541
		c0.162-0.152,0.342-0.276,0.537-0.374s0.403-0.169,0.623-0.216s0.441-0.07,0.666-0.07c0.563,0,1.039,0.098,1.432,0.29
		c0.394,0.192,0.695,0.497,0.905,0.911h0.183c0.117-0.209,0.26-0.391,0.426-0.541c0.166-0.152,0.349-0.276,0.549-0.374
		s0.411-0.169,0.633-0.216c0.223-0.047,0.446-0.07,0.671-0.07c0.879,0,1.542,0.238,1.989,0.715c0.445,0.476,0.67,1.238,0.67,2.289
		v5.339h-2.242v-4.782c0-0.592-0.088-1.034-0.264-1.33c-0.176-0.295-0.451-0.443-0.827-0.443c-0.532,0-0.911,0.212-1.136,0.634
		c-0.225,0.423-0.336,1.026-0.336,1.813V110.257z"/>
</g>
<path opacity="0.6" fill="#FFFFFF" d="M59.193,5.312c-17.417,0.28-32.78,9.986-36.042,23.755
	c-3.726,15.729,9.745,30.834,30.073,33.726c0.004,0.024-0.003,0.061-0.005,0.096l-0.117,0.004l-15.84,14.732l32.544-15.291
	l-0.32,0.011l0.209-0.159l0.466-0.016l-0.354,0.164l0.447-0.014v-0.155h0.004c14.082-3.103,23.955-11.507,26.594-22.648
	c3.728-15.736-9.76-30.847-30.102-33.731c-2.543-0.36-5.069-0.514-7.558-0.474L59.193,5.312z"/>
<g>
</g>
<g>
</g>
<g>
</g>
<g>
</g>
<g>
</g>
<g>
</g>
<g>
</g>
<g>
</g>
<g>
</g>
<g>
</g>
<g>
</g>
<g>
</g>
<g>
</g>
<g>
</g>
<g>
</g>
</svg>
