<?xml version="1.0" encoding="utf-8"?>
<!-- Generator: Adobe Illustrator 16.0.3, SVG Export Plug-In . SVG Version: 6.00 Build 0)  -->
<!DOCTYPE svg PUBLIC "-//W3C//DTD SVG 1.1//EN" "http://www.w3.org/Graphics/SVG/1.1/DTD/svg11.dtd" [
	<!ENTITY ns_extend "http://ns.adobe.com/Extensibility/1.0/">
	<!ENTITY ns_ai "http://ns.adobe.com/AdobeIllustrator/10.0/">
	<!ENTITY ns_graphs "http://ns.adobe.com/Graphs/1.0/">
	<!ENTITY ns_vars "http://ns.adobe.com/Variables/1.0/">
	<!ENTITY ns_imrep "http://ns.adobe.com/ImageReplacement/1.0/">
	<!ENTITY ns_sfw "http://ns.adobe.com/SaveForWeb/1.0/">
	<!ENTITY ns_custom "http://ns.adobe.com/GenericCustomNamespace/1.0/">
	<!ENTITY ns_adobe_xpath "http://ns.adobe.com/XPath/1.0/">
]>
<svg version="1.1" id="Ebene_1" xmlns:x="&ns_extend;" xmlns:i="&ns_ai;" xmlns:graph="&ns_graphs;"
	 xmlns="http://www.w3.org/2000/svg" xmlns:xlink="http://www.w3.org/1999/xlink" x="0px" y="0px" width="290.9px" height="290.9px"
	 viewBox="0 0 290.9 290.9" style="enable-background:new 0 0 290.9 290.9;" xml:space="preserve">
<style type="text/css">
<![CDATA[
	.st0{fill:#2F98C1;}
	.st1{fill:#FFFFFF;}
	.st2{opacity:0.74;fill:#FFFFFF;}
]]>
</style>
<metadata>
	<sfw  xmlns="&ns_sfw;">
		<slices></slices>
		<sliceSourceBounds  width="290.9" height="290.9" y="-7" x="28.6" bottomLeftOrigin="true"></sliceSourceBounds>
	</sfw>
</metadata>
<path class="st0" d="M254.4,290.9H36.5C16.4,290.9,0,274.5,0,254.4V36.5C0,16.4,16.4,0,36.5,0h217.9c20.1,0,36.5,16.4,36.5,36.5
	v217.9C290.9,274.5,274.5,290.9,254.4,290.9z"/>
<g>
	<path class="st1" d="M75.3,243l-2.7,9h-6l10.2-31.7h7.4L94.4,252h-6.2l-2.9-9H75.3z M84.4,238.6l-2.5-7.8c-0.6-1.9-1.1-4.1-1.6-5.9
		h-0.1c-0.5,1.8-0.9,4-1.5,5.9l-2.4,7.8H84.4z"/>
	<path class="st1" d="M118.9,229.1c-0.1,1.6-0.2,3.4-0.2,6.6v13c0,4.8-1,8.2-3.4,10.4c-2.4,2.1-5.7,2.8-8.8,2.8c-2.9,0-6-0.6-8-1.8
		l1.3-4.4c1.5,0.8,3.9,1.7,6.7,1.7c3.8,0,6.6-2,6.6-6.9v-2H113c-1.3,2-3.7,3.4-6.7,3.4c-5.7,0-9.7-4.7-9.7-11.2
		c0-7.5,4.9-12.1,10.4-12.1c3.5,0,5.5,1.7,6.6,3.6h0.1l0.2-3.1H118.9z M113,238.3c0-0.5,0-1.1-0.2-1.6c-0.6-2.1-2.3-3.7-4.7-3.7
		c-3.2,0-5.6,2.8-5.6,7.5c0,3.9,2,7,5.6,7c2.2,0,4-1.4,4.7-3.5c0.1-0.6,0.2-1.4,0.2-2.1V238.3z"/>
	<path class="st1" d="M130.9,222.7c0,1.7-1.3,3.1-3.3,3.1c-1.9,0-3.2-1.4-3.2-3.1c0-1.8,1.3-3.1,3.2-3.1
		C129.6,219.5,130.9,220.9,130.9,222.7z M124.7,252v-22.9h5.8V252H124.7z"/>
	<path class="st1" d="M143.4,222.6v6.5h5.5v4.3h-5.5v10.1c0,2.8,0.8,4.2,3,4.2c1,0,1.7-0.1,2.3-0.3l0.1,4.4
		c-0.8,0.3-2.3,0.6-4.2,0.6c-2.1,0-3.9-0.7-5-1.9c-1.2-1.3-1.8-3.4-1.8-6.4v-10.8h-3.3v-4.3h3.3v-5.2L143.4,222.6z"/>
	<path class="st1" d="M166.2,252l-0.4-2.5h-0.1c-1.4,1.8-3.8,3.1-6.8,3.1c-4.6,0-7.2-3.3-7.2-6.8c0-5.8,5.1-8.7,13.6-8.6v-0.4
		c0-1.5-0.6-4-4.7-4c-2.3,0-4.6,0.7-6.2,1.7l-1.1-3.8c1.7-1,4.7-2,8.3-2c7.3,0,9.4,4.7,9.4,9.6v8.3c0,2.1,0.1,4.1,0.3,5.5H166.2z
		 M165.4,240.8c-4.1-0.1-8,0.8-8,4.3c0,2.3,1.5,3.3,3.3,3.3c2.3,0,4-1.5,4.5-3.1c0.1-0.4,0.2-0.9,0.2-1.3V240.8z"/>
	<path class="st1" d="M183.5,222.6v6.5h5.5v4.3h-5.5v10.1c0,2.8,0.8,4.2,3,4.2c1,0,1.7-0.1,2.3-0.3l0.1,4.4
		c-0.8,0.3-2.3,0.6-4.2,0.6c-2.1,0-3.9-0.7-5-1.9c-1.2-1.3-1.8-3.4-1.8-6.4v-10.8h-3.3v-4.3h3.3v-5.2L183.5,222.6z"/>
	<path class="st1" d="M214.8,240.3c0,8.4-5.9,12.2-11.7,12.2c-6.5,0-11.5-4.5-11.5-11.8c0-7.5,4.9-12.1,11.8-12.1
		C210.3,228.6,214.8,233.4,214.8,240.3z M197.6,240.6c0,4.4,2.2,7.8,5.7,7.8c3.3,0,5.6-3.2,5.6-7.8c0-3.6-1.6-7.7-5.5-7.7
		C199.2,232.8,197.6,236.7,197.6,240.6z"/>
	<path class="st1" d="M219.6,236.5c0-3.1,0-5.3-0.2-7.4h5l0.2,4.4h0.2c1.1-3.2,3.8-4.9,6.3-4.9c0.6,0,0.9,0,1.4,0.1v5.5
		c-0.5-0.1-1-0.2-1.7-0.2c-2.8,0-4.7,1.8-5.2,4.4c-0.1,0.5-0.2,1.1-0.2,1.8V252h-5.8V236.5z"/>
</g>
<g>
	<g>
		<path class="st1" d="M70.8,147.4V85C76,73.7,83.9,67,96.8,68.5c0.9,0.1,2.2-0.7,2.9-1.5c8.2-9.2,18.2-11,29.5-7.8
			c1.1,0.3,2.6,0.2,3.5-0.4c3.8-2.5,7.4-5.2,11.1-7.9c4-1,7.4-0.5,11,0c3.5,1.7,7.6,2.8,10.5,5.3c3.9,3.3,7.6,4.2,12.6,3.6
			c16.6-1.9,27.4,8.1,28.1,25.4c0.1,2.2,0.1,4.5-0.2,6.7c-1.7,15.5-3.2,31-5.3,46.5c-0.7,5.3-1.9,10.9-4.2,15.6
			c-3,6.2-9.1,7-15.2,6.3c-5-0.5-10.5-4.9-10.6-10.2c-0.4-20.8,0.1-36.6-0.2-57.3c-0.1-4.5-0.6-7.6-3.3-7.6c-4.1,0-4.2,3.2-4.2,8.4
			c0,16.9-0.5,33.7,0.2,50.6c0.5,13.4-10.4,19.7-23.1,14.4c-1.5-0.6-2.9-3.2-3-5c-0.4-5.6-0.1-11.3-0.1-17c0-14.7-1-27.9-1-42.9
			c-0.3-6-5.9-5.7-6,0.6c0,2.1,0,1.9,0,3.7c0,19.4-0.1,38.9,0.1,58.3c0,3.4-1.1,5.1-4,6c-6.4,2-12.7,2.3-19-0.6
			c-2.7-1.2-4.1-2.8-3.9-6.2c0.4-7.5,0.2-15.1,0.2-22.7c0-11.3,0-22.6,0-34.1c0.1-7.8-6.7-7.5-6.7-0.6c-0.1,1.5-0.1,3.4-0.1,4.7
			c-0.1,17.4-0.2,34.7-0.1,52.1c0,2.2-1.1,4.5-4.1,5c-7.2,1-15.3,1.3-20.6-9.5C71,149.6,70.8,148.5,70.8,147.4z"/>
		<path class="st2" d="M147.8,193.2c-8.8-5.2-10.6-13.2-4.9-22.6c0.7-1.2,2.9-2.2,4.3-2.1c7.8,0.5,14-2.3,19-8.8
			c4.7,5.1,9.9,8.7,17.1,8.8c14.8,0.2,21.5-10.3,23.1-20.9c1.9-12.5,2.9-25.1,5.4-38c1.9,8.7,3.9,17.4,5.8,26.1
			c1.1,5.4,2,10.8,3,16.2c0.5,7.7,0.3,9.2,0,13.4c-0.4,6.5-0.3,8.1-1.5,12.8c-0.7,2.8-6.2,11.2-19.4,6.6
			c-16.8-5.4-33.1,5.5-49.1,8.5C149.8,193.4,149.1,193.6,147.8,193.2z"/>
	</g>
</g>
</svg>
