<?xml version="1.0" encoding="utf-8"?>
<!-- Generator: Adobe Illustrator 16.0.3, SVG Export Plug-In . SVG Version: 6.00 Build 0)  -->
<!DOCTYPE svg PUBLIC "-//W3C//DTD SVG 1.1//EN" "http://www.w3.org/Graphics/SVG/1.1/DTD/svg11.dtd" [
	<!ENTITY ns_extend "http://ns.adobe.com/Extensibility/1.0/">
	<!ENTITY ns_ai "http://ns.adobe.com/AdobeIllustrator/10.0/">
	<!ENTITY ns_graphs "http://ns.adobe.com/Graphs/1.0/">
	<!ENTITY ns_vars "http://ns.adobe.com/Variables/1.0/">
	<!ENTITY ns_imrep "http://ns.adobe.com/ImageReplacement/1.0/">
	<!ENTITY ns_sfw "http://ns.adobe.com/SaveForWeb/1.0/">
	<!ENTITY ns_custom "http://ns.adobe.com/GenericCustomNamespace/1.0/">
	<!ENTITY ns_adobe_xpath "http://ns.adobe.com/XPath/1.0/">
]>
<svg version="1.1" id="Ebene_1" xmlns:x="&ns_extend;" xmlns:i="&ns_ai;" xmlns:graph="&ns_graphs;"
	 xmlns="http://www.w3.org/2000/svg" xmlns:xlink="http://www.w3.org/1999/xlink" x="0px" y="0px" width="290.9px" height="290.9px"
	 viewBox="0 0 290.9 290.9" style="enable-background:new 0 0 290.9 290.9;" xml:space="preserve">
<style type="text/css">
<![CDATA[
	.st0{fill:#2F98C1;}
	.st1{fill:#FFFFFF;}
	.st2{fill:#6B7A7B;}
	.st3{fill:#6C7A7B;}
	.st4{fill:#6E7D7E;}
	.st5{fill:#D0E7F0;}
]]>
</style>
<metadata>
	<sfw  xmlns="&ns_sfw;">
		<slices></slices>
		<sliceSourceBounds  width="290.9" height="290.9" y="-7" x="26.6" bottomLeftOrigin="true"></sliceSourceBounds>
	</sfw>
</metadata>
<path class="st0" d="M254.4,290.9H36.5C16.4,290.9,0,274.5,0,254.4V36.5C0,16.4,16.4,0,36.5,0h217.9c20.1,0,36.5,16.4,36.5,36.5
	v217.9C290.9,274.5,274.5,290.9,254.4,290.9z"/>
<g>
	<path class="st1" d="M60.3,220.3H66v20.5c0,8.7-4.2,11.7-10.5,11.7c-1.6,0-3.6-0.3-4.8-0.8l0.7-4.7c0.9,0.3,2.2,0.6,3.6,0.6
		c3.3,0,5.3-1.5,5.3-7V220.3z"/>
	<path class="st1" d="M93.9,240.3c0,8.4-5.9,12.2-11.7,12.2c-6.5,0-11.5-4.5-11.5-11.8c0-7.5,4.9-12.1,11.8-12.1
		C89.4,228.6,93.9,233.4,93.9,240.3z M76.7,240.6c0,4.4,2.2,7.8,5.7,7.8c3.3,0,5.6-3.2,5.6-7.8c0-3.6-1.6-7.7-5.5-7.7
		C78.3,232.8,76.7,236.7,76.7,240.6z"/>
	<path class="st1" d="M119.2,245.1c0,2.7,0.1,5,0.2,6.9h-5.1l-0.3-3.5h-0.1c-1,1.6-3.2,4-7.3,4c-4.2,0-8-2.5-8-10v-13.4h5.8v12.5
		c0,3.8,1.2,6.3,4.3,6.3c2.3,0,3.8-1.6,4.4-3.1c0.2-0.5,0.3-1.1,0.3-1.8v-13.8h5.8V245.1z"/>
	<path class="st1" d="M125.4,236.5c0-3.1,0-5.3-0.2-7.4h5l0.2,4.4h0.2c1.1-3.2,3.8-4.9,6.3-4.9c0.6,0,0.9,0,1.4,0.1v5.5
		c-0.5-0.1-1-0.2-1.7-0.2c-2.8,0-4.7,1.8-5.2,4.4c-0.1,0.5-0.2,1.1-0.2,1.8V252h-5.8V236.5z"/>
	<path class="st1" d="M142.1,235.9c0-2.6,0-4.8-0.2-6.8h5.1l0.3,3.4h0.1c1-1.8,3.5-3.9,7.3-3.9c4,0,8.1,2.6,8.1,9.8V252h-5.8v-12.9
		c0-3.3-1.2-5.8-4.4-5.8c-2.3,0-3.9,1.6-4.5,3.4c-0.2,0.5-0.2,1.2-0.2,1.9V252h-5.8V235.9z"/>
	<path class="st1" d="M181.9,252l-0.4-2.5h-0.1c-1.4,1.8-3.8,3.1-6.8,3.1c-4.6,0-7.2-3.3-7.2-6.8c0-5.8,5.1-8.7,13.6-8.6v-0.4
		c0-1.5-0.6-4-4.7-4c-2.3,0-4.6,0.7-6.2,1.7l-1.1-3.8c1.7-1,4.7-2,8.3-2c7.3,0,9.4,4.7,9.4,9.6v8.3c0,2.1,0.1,4.1,0.3,5.5H181.9z
		 M181.1,240.8c-4.1-0.1-8,0.8-8,4.3c0,2.3,1.5,3.3,3.3,3.3c2.3,0,4-1.5,4.5-3.1c0.1-0.4,0.2-0.9,0.2-1.3V240.8z"/>
	<path class="st1" d="M192.9,218.6h5.8V252h-5.8V218.6z"/>
	<path class="st1" d="M211.1,222.7c0,1.7-1.3,3.1-3.3,3.1c-1.9,0-3.2-1.4-3.2-3.1c0-1.8,1.3-3.1,3.2-3.1
		C209.9,219.5,211.1,220.9,211.1,222.7z M205,252v-22.9h5.8V252H205z"/>
	<path class="st1" d="M216.7,246.7c1.3,0.8,3.8,1.6,5.9,1.6c2.5,0,3.7-1,3.7-2.5c0-1.6-0.9-2.4-3.8-3.3c-4.5-1.6-6.3-4-6.3-6.7
		c0-4,3.3-7.2,8.6-7.2c2.5,0,4.7,0.7,6.1,1.4l-1.1,4.1c-1-0.6-2.8-1.3-4.8-1.3c-2.1,0-3.2,1-3.2,2.4c0,1.5,1.1,2.2,4,3.2
		c4.1,1.5,6.1,3.6,6.1,7c0,4.1-3.2,7.1-9.3,7.1c-2.8,0-5.3-0.7-7-1.6L216.7,246.7z"/>
	<path class="st1" d="M243.2,222.6v6.5h5.5v4.3h-5.5v10.1c0,2.8,0.8,4.2,3,4.2c1,0,1.7-0.1,2.3-0.3l0.1,4.4
		c-0.8,0.3-2.3,0.6-4.2,0.6c-2.1,0-3.9-0.7-5-1.9c-1.2-1.3-1.8-3.4-1.8-6.4v-10.8h-3.3v-4.3h3.3v-5.2L243.2,222.6z"/>
</g>
<g>
	<path class="st1" d="M192.3,196.9c-31.2,0-62.3,0-93.5,0c-2.4-2.3-5.1-4.5-3.4-8.5c1.7-3.9,5.1-4.2,8.8-4.2c10.3,0,20.7-0.1,31,0.1
		c3.3,0.1,4.6-1,4.3-4.3c-0.1-1.3-0.2-2.7,0-4c0.5-3.5-1.1-4.9-4.4-5.7c-25.9-6.6-40.8-26.5-40.3-53.4c0.1-5.5,2.7-8.8,6.9-8.6
		c4,0.1,6.2,3,5.9,8.7c-1,21.8,12.5,35.8,26.5,40.2c24.1,7.6,48.8-9.9,49.5-35.2c0.1-2.3,0-4.7,0-7c0.1-3.9,2.1-6.5,6-6.6
		c4.1-0.1,7,2.6,6.7,6.5c-0.6,7.9-0.7,16.2-3.3,23.5c-5.9,16.6-18.1,27.1-35.3,31.7c-2,0.5-5.1,1.3-5.4,2.5
		c-0.7,3.3-0.4,6.9-0.1,10.4c0.1,0.5,2.5,1.2,3.8,1.2c10.3,0.1,20.6,0.1,31,0c3.7,0,7.1,0.3,8.8,4.2
		C197.4,192.3,194.7,194.6,192.3,196.9z"/>
	<path class="st4" d="M121.6,77c-0.4,0.3-0.7,0.7-1.1,1c0-0.4,0-0.7,0-1.1C120.8,77,121.2,77,121.6,77z"/>
	<path class="st4" d="M120.5,82c0.3,0.3,0.7,0.7,1,1c-0.3,0-0.7,0-1,0C120.5,82.7,120.5,82.4,120.5,82z"/>
	<path class="st2" d="M120.5,90c0,0.3,0,0.7,0,1C120.5,90.7,120.5,90.4,120.5,90z"/>
	<path class="st2" d="M120.5,94c0,0.3,0,0.7,0,1C120.5,94.7,120.5,94.4,120.5,94z"/>
	<path class="st3" d="M120.5,103c0-0.3,0-0.7,0-1"/>
	<path class="st3" d="M120.5,108.1c0-0.3,0-0.7,0-1"/>
</g>
<path class="st1" d="M146.1,145h-1.1c-13.4,0-24.4-11-24.4-24.4V70.5c0-13.4,11-24.4,24.4-24.4h1.1c13.4,0,24.4,11,24.4,24.4v50.2
	C170.5,134.1,159.5,145,146.1,145z"/>
<path class="st5" d="M144.9,46.1h1.1c13.4,0,24.4,11,24.4,24.4v50.2c0,13.4-11,24.4-24.4,24.4h-1.1"/>
</svg>
