<svg xmlns="http://www.w3.org/2000/svg" xmlns:xlink="http://www.w3.org/1999/xlink" width="300" height="300" viewBox="0 0 300 300"><switch><g><symbol id="a" viewBox="-150 -150 300 300.015"><path fill="#AEBCC4" d="M150-97.015c0-6.763 0-52.985-71.5-52.985H-84c-62.5 0-66 47.223-66 53.985v186c0 54.5 59.235 60 66 60l161.5.029c6.765 0 72.5-.029 72.5-60.029v-187z"/></symbol><use xlink:href="#a" width="300" height="300.015" x="-150" y="-150" transform="matrix(1 0 0 -1 150 150)" overflow="visible"/><g fill="#080828"><path d="M17.21 225.657c2.208-.384 5.521-.672 8.929-.672 4.657 0 7.825.768 9.985 2.592 1.776 1.488 2.784 3.745 2.784 6.48 0 4.177-2.832 7.009-5.856 8.113v.144c2.304.864 3.696 3.12 4.513 6.241 1.008 4.032 1.872 7.776 2.544 9.024h-6.096c-.48-.96-1.249-3.601-2.161-7.633-.912-4.225-2.448-5.568-5.808-5.664h-2.977v13.297H17.21v-31.922zm5.857 14.306h3.504c3.984 0 6.48-2.112 6.48-5.329 0-3.552-2.496-5.185-6.336-5.185-1.872 0-3.072.145-3.648.288v10.226zM48.602 247.547c.144 4.225 3.456 6.049 7.201 6.049 2.736 0 4.704-.384 6.48-1.056l.864 4.08c-2.016.816-4.8 1.44-8.161 1.44-7.584 0-12.049-4.657-12.049-11.81 0-6.48 3.937-12.577 11.425-12.577 7.585 0 10.081 6.24 10.081 11.377 0 1.104-.096 1.969-.192 2.496H48.602zm10.273-4.128c.048-2.16-.912-5.713-4.849-5.713-3.648 0-5.185 3.313-5.424 5.713h10.273zM75.481 227.674c0 1.775-1.296 3.168-3.36 3.168-1.968 0-3.265-1.393-3.265-3.168 0-1.824 1.344-3.217 3.313-3.217 2.016 0 3.264 1.393 3.312 3.217zm-6.288 29.906v-23.378h5.952v23.378h-5.952zM81.481 257.58v-21.122c0-5.473 1.344-8.641 3.6-10.705 1.92-1.824 4.561-2.784 7.921-2.784 5.232 0 9.505 3.217 9.505 8.545 0 1.536-.48 3.072-1.104 3.937-2.016.912-3.072 2.16-3.072 3.553 0 1.392.72 2.304 2.016 3.647 1.729 1.824 3.84 3.889 3.84 7.489 0 4.704-3.408 7.969-9.217 7.969-1.776 0-3.744-.288-5.088-.864l.816-4.416a8.86 8.86 0 0 0 3.648.768c2.544 0 3.889-1.393 3.889-3.168 0-1.536-.72-2.593-2.112-4.032-1.776-1.729-3.696-3.696-3.696-6.577 0-2.448 1.392-4.608 4.032-5.952.24-.528.384-1.152.384-1.872 0-2.688-1.68-4.465-4.321-4.465-3.12 0-5.088 2.208-5.088 8.497v21.554h-5.953zM108.84 252.155c1.344.816 3.888 1.681 6 1.681 2.592 0 3.744-1.057 3.744-2.593 0-1.584-.96-2.399-3.84-3.408-4.56-1.584-6.48-4.08-6.433-6.816 0-4.128 3.409-7.345 8.833-7.345 2.592 0 4.848.672 6.192 1.393l-1.152 4.176c-1.008-.576-2.88-1.344-4.945-1.344-2.112 0-3.264 1.008-3.264 2.448 0 1.488 1.104 2.208 4.081 3.265 4.224 1.536 6.192 3.696 6.24 7.152 0 4.225-3.312 7.297-9.504 7.297-2.833 0-5.377-.673-7.105-1.633l1.153-4.273zM146.329 256.86c-1.248.576-3.696 1.2-6.625 1.2-7.296 0-12.049-4.657-12.049-11.905 0-7.009 4.8-12.481 13.009-12.481 2.16 0 4.368.48 5.712 1.104l-1.056 4.416c-.96-.432-2.352-.912-4.464-.912-4.512 0-7.201 3.313-7.153 7.585 0 4.801 3.121 7.536 7.153 7.536 2.064 0 3.504-.432 4.656-.912l.817 4.369zM150.696 223.497h5.953v13.921h.096a7.93 7.93 0 0 1 2.928-2.688c1.152-.673 2.545-1.057 4.033-1.057 3.984 0 8.16 2.641 8.16 10.129v13.777h-5.904v-13.105c0-3.408-1.248-5.952-4.512-5.952-2.305 0-3.938 1.536-4.561 3.313-.192.479-.24 1.104-.24 1.776v13.969h-5.953v-34.083zM180.936 234.202l2.448 10.608c.528 2.497 1.057 5.041 1.488 7.585h.097c.479-2.544 1.248-5.137 1.92-7.536l3.024-10.657h4.8l2.929 10.369c.72 2.736 1.344 5.28 1.872 7.824h.096c.384-2.544.912-5.088 1.536-7.824l2.593-10.369h5.809l-7.345 23.378h-5.473l-2.784-9.505c-.721-2.448-1.248-4.656-1.776-7.488h-.096c-.48 2.88-1.104 5.185-1.776 7.488l-2.977 9.505H181.8l-6.913-23.378h6.049zM216.889 247.547c.144 4.225 3.456 6.049 7.2 6.049 2.736 0 4.705-.384 6.48-1.056l.864 4.08c-2.016.816-4.8 1.44-8.16 1.44-7.585 0-12.05-4.657-12.05-11.81 0-6.48 3.937-12.577 11.426-12.577 7.584 0 10.08 6.24 10.08 11.377 0 1.104-.096 1.969-.191 2.496h-15.649zm10.272-4.128c.048-2.16-.912-5.713-4.848-5.713-3.648 0-5.185 3.313-5.425 5.713h10.273zM237.479 241.163c0-2.688-.048-4.945-.191-6.961h5.185l.287 3.504h.145c1.008-1.824 3.553-4.032 7.44-4.032 4.08 0 8.305 2.641 8.305 10.033v13.873h-5.904v-13.201c0-3.36-1.248-5.904-4.465-5.904-2.352 0-3.983 1.68-4.608 3.456-.191.528-.239 1.248-.239 1.92v13.729h-5.953v-16.417zM270.84 244.475h.096c.576-.912 1.248-1.92 1.872-2.736l5.664-7.536h7.104l-8.641 9.553 9.89 13.825h-7.249l-6.721-10.321-2.016 2.353v7.969h-5.905v-34.083h5.905v20.976z"/></g><image overflow="visible" width="134" height="81" xlink:href="60993EEE.png" transform="translate(77 9)"/><image overflow="visible" width="233" height="87" xlink:href="60993EF2.png" transform="translate(47 28)"/><image overflow="visible" width="162" height="83" xlink:href="60993EF5.png" transform="translate(130 142)"/><image overflow="visible" width="182" height="85" xlink:href="60993EF6.png" transform="translate(9 119)"/><image overflow="visible" width="261" height="83" xlink:href="60993EF4.png" transform="translate(12 55)"/><image overflow="visible" width="162" height="83" xlink:href="60993EF3.png" transform="translate(134 103)"/><image overflow="visible" width="271" height="89" xlink:href="60993EFD.png" transform="translate(27 76)"/><path fill="none" stroke="#FFF" stroke-width="2" stroke-miterlimit="10" d="M36 191h230"/><path fill="#080828" d="M129.333 94.331l42.167.167s-4.333 11.333-10.5 16v6l10.834 12.169S176 131.334 175 141.973v50.361s.12 12.148-14.811 13.666h-24.042s-10.978-2.783-12.148-14.171v-49.603s-.086-9.869 3.458-13.16L139 116.413v-6.073c0-.001-6.167-3.342-9.667-16.009z"/><path fill="none" stroke="#FFF" stroke-width="2" stroke-miterlimit="10" d="M36 192V91s24.5-52.5 113-53.5c0 0 101 0 116 52.5v101"/><path fill="#FFF" d="M185.82 53.174c.258-.11.903-.161 1.134.015a235.62 235.62 0 0 1 24.743 21.114c.197.198.143.422-.112.504a210.698 210.698 0 0 0-28.297 10.729c-.231.109-.796.17-.993-.002.445-3.88.883-7.762 1.313-11.645a236.209 236.209 0 0 0-70.734.834c.739 3.836 1.47 7.673 2.193 11.512-.185.176-.754.135-.994.032a210.3 210.3 0 0 0-29.136-9.684c-.265-.071-.336-.291-.157-.492a233.215 233.215 0 0 1 22.94-21.753c.215-.183.867-.157 1.139-.06a2952.27 2952.27 0 0 1 2.099 10.582 246.208 246.208 0 0 1 73.735-.958 2167.35 2167.35 0 0 1 2.262-10.713"/><circle fill="#C1272D" cx="150.75" cy="158.25" r="10.75"/><path fill="none" d="M39 19h230"/></g></switch></svg>