<svg xmlns="http://www.w3.org/2000/svg" xmlns:xlink="http://www.w3.org/1999/xlink" width="300" height="300" viewBox="0 0 300 300"><switch><g><defs><path id="a" d="M0 0h300v300H0z"/></defs><clipPath id="b"><use xlink:href="#a" overflow="visible"/></clipPath><g clip-path="url(#b)"><defs><path id="c" d="M0-.015h300V300H0z"/></defs><clipPath id="d"><use xlink:href="#c" overflow="visible"/></clipPath><path clip-path="url(#d)" fill="#AEBCC4" d="M300 247.015c0 6.763 0 52.985-71.5 52.985H66c-62.5 0-66-47.223-66-53.985v-186c0-54.5 59.235-60 66-60l161.5-.029c6.765 0 72.5.029 72.5 60.029v187z"/></g><g><defs><path id="e" d="M0 0h300v300H0z"/></defs><clipPath id="f"><use xlink:href="#e" overflow="visible"/></clipPath><path clip-path="url(#f)" fill="#FFF" d="M14 186.412s2.599-45.744 24.431-59.259l7.797-4.158c10.917-1.04 16.114-3.119 18.194-7.798 0 0 3.639-.866 3.639-10.743 0 0-14.555-13.515-3.119-32.574 0 0 18.02-16.634 31.708.173 2.428 5.885 9.877 18.886-7.45 34.481 0 0-1.386 3.465 1.733 11.782 0 0 7.796 9.357 22.871 14.555 15.155 5.226 21.629 26.601 24.432 54.062L14 186.412z"/><g clip-path="url(#f)"><defs><path id="g" d="M204.621 22.743h61.036v55.944h-61.036z"/></defs><clipPath id="h"><use xlink:href="#g" overflow="visible"/></clipPath><path clip-path="url(#h)" fill="#FFF" d="M265.657 46.042l-11.068-8.451V23.612h-7.909v7.942l-11.54-8.811-30.519 23.297 4.799 6.287 3.288-2.51v28.871h44.864v-28.87l3.286 2.509 4.799-6.285zm-12.478 28.252h-10.13V57.599h-15.816v16.695h-10.131V47.021l18.039-13.774 18.038 13.774v27.273z"/></g><path clip-path="url(#f)" d="M155.108 40.588s2.035-4.087 5.949-3.807c1.666.119 3.544.684 5.354 2.855 0 0 3.331 4.64-2.736 11.184 0 0-.311 2.345 1.633 4.287 0 0 17.861.389 13.979 27.572l-1.165 8.932s-3.105 5.436-3.105 15.921c0 0-2.116 44.744-.95 45.131 0 0-3.253 4.048-7.933.318l-.079-48.86s-3.569-2.855-6.426.476l-.237 48.306s-3.331 3.331-7.218.236l-.847-45.608s.389-10.484-3.107-16.698c0 0-9.055-34.065 10.219-35.017 0 0 1.507-1.586.952-4.521-.207-1.101-5.71-2.141-4.283-10.707"/></g><g fill="#080828"><path d="M65.194 223.411v26.361c0 2.3.092 4.784.184 6.303h-5.061l-.23-3.542h-.092c-1.334 2.483-4.048 4.048-7.315 4.048-5.336 0-9.569-4.555-9.569-11.455-.046-7.499 4.646-11.961 10.029-11.961 3.083 0 5.291 1.288 6.303 2.944h.092v-12.698h5.659zm-5.659 19.599a7.99 7.99 0 0 0-.138-1.473c-.506-2.208-2.3-4.002-4.876-4.002-3.634 0-5.659 3.221-5.659 7.407 0 4.094 2.024 7.084 5.613 7.084 2.3 0 4.324-1.563 4.876-4.002.138-.506.184-1.059.184-1.656v-3.358zM75.265 246.46c.138 4.049 3.313 5.797 6.901 5.797 2.623 0 4.509-.368 6.211-1.012l.828 3.91c-1.932.782-4.601 1.38-7.821 1.38-7.269 0-11.547-4.463-11.547-11.317 0-6.211 3.772-12.053 10.949-12.053 7.269 0 9.661 5.98 9.661 10.902 0 1.059-.092 1.887-.184 2.393H75.265zm9.845-3.956c.046-2.07-.874-5.475-4.646-5.475-3.496 0-4.968 3.174-5.199 5.475h9.845zM99.001 246.46c.138 4.049 3.313 5.797 6.901 5.797 2.623 0 4.509-.368 6.211-1.012l.828 3.91c-1.932.782-4.601 1.38-7.821 1.38-7.269 0-11.547-4.463-11.547-11.317 0-6.211 3.772-12.053 10.949-12.053 7.269 0 9.661 5.98 9.661 10.902 0 1.059-.092 1.887-.184 2.393H99.001zm9.845-3.956c.046-2.07-.874-5.475-4.646-5.475-3.496 0-4.968 3.174-5.199 5.475h9.845zM118.734 241.123c0-2.944-.092-5.336-.184-7.452h4.968l.276 3.45h.092c1.656-2.53 4.278-3.956 7.683-3.956 5.153 0 9.431 4.416 9.431 11.409 0 8.097-5.106 12.007-10.213 12.007-2.807 0-5.153-1.196-6.303-2.99h-.092v11.594h-5.659v-24.062zm5.659 5.567c0 .552.046 1.058.184 1.563.552 2.301 2.576 3.957 4.969 3.957 3.588 0 5.705-2.99 5.705-7.407 0-3.956-1.932-7.177-5.566-7.177-2.347 0-4.509 1.702-5.061 4.187a5.13 5.13 0 0 0-.23 1.426v3.451zM155.81 256.075v-18.172h-3.036v-4.232h3.036v-.967c0-2.897.782-5.796 2.714-7.637 1.656-1.563 3.91-2.162 5.843-2.162 1.519 0 2.715.23 3.635.552l-.414 4.371c-.599-.23-1.381-.414-2.393-.414-2.807 0-3.772 2.346-3.772 5.106v1.15h4.923v4.232h-4.877v18.172h-5.659zM190.679 244.666c0 8.234-5.797 11.915-11.501 11.915-6.35 0-11.226-4.37-11.226-11.547 0-7.361 4.83-11.869 11.593-11.869 6.671 0 11.134 4.692 11.134 11.501zm-16.884.23c0 4.325 2.116 7.591 5.566 7.591 3.221 0 5.475-3.174 5.475-7.683 0-3.496-1.564-7.499-5.429-7.499-4.002 0-5.612 3.865-5.612 7.591zM211.792 255.385c-1.195.553-3.542 1.15-6.349 1.15-6.992 0-11.547-4.463-11.547-11.409 0-6.717 4.601-11.961 12.467-11.961 2.07 0 4.187.46 5.475 1.058l-1.012 4.232c-.92-.414-2.254-.874-4.278-.874-4.324 0-6.901 3.175-6.854 7.269 0 4.601 2.99 7.223 6.854 7.223 1.979 0 3.358-.414 4.463-.874l.781 4.186zM236.034 249.358c0 2.668.092 4.877.184 6.717h-4.968l-.276-3.404h-.092c-.967 1.61-3.175 3.91-7.177 3.91-4.095 0-7.821-2.438-7.821-9.753v-13.157h5.658v12.191c0 3.727 1.196 6.118 4.187 6.118 2.255 0 3.727-1.61 4.325-3.036a5.143 5.143 0 0 0 .321-1.748v-13.525h5.659v15.687zM241.873 250.877c1.288.781 3.726 1.609 5.75 1.609 2.484 0 3.589-1.012 3.589-2.483 0-1.519-.92-2.301-3.681-3.267-4.37-1.519-6.211-3.91-6.165-6.533 0-3.956 3.267-7.038 8.465-7.038 2.484 0 4.647.644 5.936 1.334l-1.104 4.002c-.966-.552-2.761-1.288-4.738-1.288-2.024 0-3.129.966-3.129 2.347 0 1.426 1.059 2.116 3.911 3.128 4.048 1.473 5.935 3.543 5.98 6.854 0 4.049-3.175 6.993-9.109 6.993-2.714 0-5.152-.644-6.809-1.564l1.104-4.094z"/></g></g></switch></svg>