<svg xmlns="http://www.w3.org/2000/svg" xmlns:xlink="http://www.w3.org/1999/xlink" width="300" height="300" viewBox="0 0 300 300"><switch><g><symbol id="a" viewBox="-150 -150 300 300.007"><path fill="#CE8E95" d="M150-97.021c0-6.764 0-52.979-71.5-52.979H-84c-62.5 0-66 47.215-66 53.979v186c0 54.5 59.235 60 66 60l161.5.029c6.765 0 72.5-.029 72.5-60.029v-187z"/></symbol><use xlink:href="#a" width="300" height="300.007" x="-150" y="-150" transform="matrix(1 0 0 -1 150 150)" overflow="visible"/><g fill="#26080D"><path d="M55.913 255.513l16.562-24.05v-.144H57.401v-4.896h22.754v3.456l-16.321 23.81v.192h16.561v4.896H55.913v-3.264zM88.649 248.744c.144 4.225 3.456 6.049 7.201 6.049 2.736 0 4.704-.384 6.48-1.056l.864 4.08c-2.016.816-4.8 1.44-8.161 1.44-7.584 0-12.049-4.657-12.049-11.81 0-6.48 3.937-12.577 11.425-12.577 7.585 0 10.081 6.24 10.081 11.377 0 1.104-.096 1.969-.192 2.496H88.649zm10.273-4.128c.048-2.16-.912-5.713-4.849-5.713-3.648 0-5.185 3.313-5.424 5.713h10.273zM115.529 228.871c0 1.775-1.296 3.168-3.36 3.168-1.968 0-3.265-1.393-3.265-3.168 0-1.824 1.344-3.217 3.313-3.217 2.016 0 3.264 1.393 3.312 3.217zm-6.288 29.906v-23.378h5.952v23.378h-5.952zM128.297 228.727v6.673h5.616v4.416h-5.616v10.321c0 2.832.768 4.32 3.024 4.32a8.765 8.765 0 0 0 2.304-.288l.096 4.513c-.864.336-2.4.576-4.272.576-2.16 0-3.984-.721-5.088-1.921-1.248-1.344-1.824-3.456-1.824-6.528v-10.993h-3.36V235.4h3.36v-5.28l5.76-1.393zM138.376 242.936c0-3.168-.048-5.424-.192-7.536h5.136l.192 4.464h.192c1.151-3.312 3.888-4.992 6.384-4.992.576 0 .912.048 1.393.145v5.568a8.145 8.145 0 0 0-1.729-.192c-2.832 0-4.752 1.824-5.28 4.465a10.12 10.12 0 0 0-.191 1.824v12.097h-5.905v-15.843zM168.185 258.777l-.384-2.592h-.145c-1.439 1.824-3.888 3.12-6.912 3.12-4.704 0-7.345-3.408-7.345-6.961 0-5.904 5.232-8.881 13.873-8.833v-.384c0-1.536-.624-4.08-4.752-4.08-2.305 0-4.705.72-6.289 1.728l-1.152-3.84c1.729-1.057 4.753-2.064 8.449-2.064 7.488 0 9.648 4.753 9.648 9.841v8.449c0 2.112.097 4.176.336 5.616h-5.327zm-.768-11.424c-4.177-.097-8.161.815-8.161 4.368 0 2.305 1.488 3.36 3.36 3.36 2.353 0 4.08-1.536 4.608-3.216a4.25 4.25 0 0 0 .192-1.297v-3.215zM194.488 258.777v-18.962h-8.496v18.962h-5.904v-18.962h-3.169v-4.416h3.169v-.576c0-3.024.72-5.809 2.64-7.729 1.44-1.488 3.601-2.4 6.577-2.4 1.248 0 2.496.336 3.216.672l-.96 4.368a5.724 5.724 0 0 0-2.112-.432c-2.688 0-3.504 2.256-3.504 5.185v.912h8.544v-1.008c0-3.024.816-6.049 2.881-7.969 1.728-1.633 4.032-2.257 6.097-2.257 1.584 0 2.832.24 3.744.576l-.384 4.561a7.16 7.16 0 0 0-2.545-.432c-2.928 0-3.888 2.448-3.888 5.328v1.2h5.088v4.416h-5.04v18.962h-5.954zM212.824 248.744c.144 4.225 3.456 6.049 7.2 6.049 2.736 0 4.705-.384 6.48-1.056l.864 4.08c-2.016.816-4.8 1.44-8.16 1.44-7.585 0-12.05-4.657-12.05-11.81 0-6.48 3.937-12.577 11.426-12.577 7.584 0 10.08 6.24 10.08 11.377 0 1.104-.096 1.969-.191 2.496h-15.649zm10.273-4.128c.048-2.16-.912-5.713-4.848-5.713-3.648 0-5.185 3.313-5.425 5.713h10.273zM233.415 242.936c0-3.168-.048-5.424-.191-7.536h5.136l.192 4.464h.192c1.151-3.312 3.888-4.992 6.384-4.992.576 0 .912.048 1.393.145v5.568a8.145 8.145 0 0 0-1.729-.192c-2.832 0-4.752 1.824-5.28 4.465a10.12 10.12 0 0 0-.191 1.824v12.097h-5.905v-15.843z"/></g><path fill-rule="evenodd" clip-rule="evenodd" fill="#FFF" d="M61.908 185.896c-.823.751-2.655.447-4.026.548-2.382.162-5.073-.362-7.047.604-1.38.673-2.94 4.174-2.379 4.969 1.241 1.756 3.847 3.705 5.76 3.574 3.561-.24 7.267-1.438 10.478-3.084 5.728-2.928 11.071-6.604 16.724-9.699 1.49-.816 3.638-1.178 5.292-.833 15.87 3.298 31.652 4.692 46.476-3.605 8.1-4.532 15.7-9.968 24.662-15.726 6.153 3.469 14.045 7.197 21.137 12.088 10.76 7.419 22.275 9.72 34.943 7.513-.648 5.485 4.702 8.783 10.45 9.304 7.173.657 14.432.323 21.62.844 2.906.213 5.79 1.395 8.567 2.438 2.34.875 4.51 2.196 6.762 3.304 5.05 2.496 5.05 2.49 5.546 8.021 2.654 1.239 4.904 3.571 8.369 1.079 4.035-2.9 4.214-6.918-.095-9.636-4.013-2.534-7.82-5.472-12.054-7.545-4.285-2.096-8.97-3.388-13.502-4.956-1.314-.453-2.715-.644-4.146-.975 5.348-9.353 14.09-8.275 21.671-8.313 1.743 1.917 3.385 4.599 4.097 4.371 3.267-1.051 6.331-2.818 9.259-4.656.241-.151-.702-3.221-1.765-4.231-4.61-4.39-10.64-3.377-16.14-3.239-7.039.178-14.056 1.354-20.93 2.083-1.214-4.527-3.073-9.096-3.439-13.784-.192-2.464 2.227-5.135 2.952-6.64 4.876-1.189 9.099-1.77 12.969-3.265 5.911-2.281 6.713-7.752 2.726-12.594-2.981-3.622-5.763-7.547-7.869-11.723-3.124-6.193-8.436-8.703-14.645-9.15-4.562-.328-6.493-2.535-8.359-6.249-5.579-11.089-13.366-20.226-24.844-25.674-2.01-.957-4.159-1.626-7.196-2.795.218 2.763.387 4.954.563 7.267l-7.576-.892c7.253 15.105 17.432 26.346 31.575 32.709-2.439 6.181-4.718 12.385-7.466 18.38-.377.822-3.229 1.174-4.646.754-13.881-4.126-27.588-8.88-41.575-12.594-9.868-2.62-19.952-5.267-30.394-3.465-2.247.388-4.4 1.341-6.853 2.118-1.4-3.792 1.667-6.312 3.432-9.277-8.943-.672-15.712 3.3-18.757 10.848-2.403 5.947-1.5 11.484 2.397 14.734-.044.253-.019.568-.163.745-4.615 5.669-9.208 11.361-13.899 16.966-1.941 2.32-4.369 3.417-7.621 3.213-6.401-.398-12.826-.458-19.242-.436-1.066.004-2.307.951-3.167 1.775-3.521 3.371-6.651 7.216-10.476 10.184-2.313 1.793-5.553 2.615-8.512 3.294-2.957.677-5.182 1.69-5.777 4.926-.484 2.651.96 4.549 3.213 4.49 3.157-.085 6.607-.599 9.351-2.034 3.79-1.993 6.983-5.092 10.544-7.56 1.211-.839 2.76-1.188 4.155-1.765.288.47.577.934.868 1.4-3.974 3.977-7.853 8.058-11.998 11.852z"/><path fill-rule="evenodd" clip-rule="evenodd" fill="#C1272D" d="M60 76.2v59.012l33.38-29.207zM24 75.2v59.012l33.38-29.207z"/></g></switch></svg>