<?xml version="1.0" encoding="UTF-8" standalone="no"?>
<svg
   xmlns:dc="http://purl.org/dc/elements/1.1/"
   xmlns:cc="http://creativecommons.org/ns#"
   xmlns:rdf="http://www.w3.org/1999/02/22-rdf-syntax-ns#"
   xmlns:svg="http://www.w3.org/2000/svg"
   xmlns="http://www.w3.org/2000/svg"
   viewBox="0 0 375 375"
   height="375"
   width="375"
   xml:space="preserve"
   version="1.1"
   id="svg2"><metadata
     id="metadata8"><rdf:RDF><cc:Work
         rdf:about=""><dc:format>image/svg+xml</dc:format><dc:type
           rdf:resource="http://purl.org/dc/dcmitype/StillImage" /></cc:Work></rdf:RDF></metadata><defs
     id="defs6" /><g
     transform="matrix(1.25,0,0,-1.25,0,375)"
     id="g10"><g
       transform="scale(0.1,0.1)"
       id="g12"><path
         id="path14"
         style="fill:#ce8e95;fill-opacity:1;fill-rule:nonzero;stroke:none"
         d="m 3000,529.785 c 0,-67.64 0,-529.78890625 -715,-529.78890625 l -1625,0 C 35,-0.00390625 0,472.145 0,539.785 L 0,2399.77 c 0,545 592.352,600 660,600 l 1615,0.3 c 67.65,0 725,-0.3 725,-600.3" /><path
         id="path16"
         style="fill:#26080d;fill-opacity:1;fill-rule:nonzero;stroke:none"
         d="m 821.313,644.859 c -11.516,-4.796 -25.922,-9.109 -46.547,-9.109 -40.313,0 -71.5,27.359 -71.5,75.344 -0.485,42.703 26.39,75.812 71.5,75.812 21.109,0 35.031,-4.797 44.625,-9.109 l 10.562,44.141 c -13.437,6.234 -35.515,11.046 -57.109,11.046 -82.063,0 -130.047,-54.718 -130.047,-124.781 0,-72.453 47.5,-119 120.453,-119 29.266,0 53.734,6.235 66.219,12 l -8.156,43.656" /><path
         id="path18"
         style="fill:#26080d;fill-opacity:1;fill-rule:nonzero;stroke:none"
         d="m 1081.89,827.703 -59.01,0 0,-141.094 c 0,-6.718 -1.44,-12.953 -3.36,-18.234 -6.24,-14.875 -21.598,-31.672 -45.114,-31.672 -31.187,0 -43.672,24.953 -43.672,63.828 l 0,127.172 -59.015,0 0,-137.25 c 0,-76.297 38.859,-101.734 81.578,-101.734 41.75,0 64.783,24 74.863,40.797 l 0.95,0 2.87,-35.516 51.83,0 c -0.95,19.188 -1.92,42.234 -1.92,70.063 l 0,163.64" /><path
         id="path20"
         style="fill:#26080d;fill-opacity:1;fill-rule:nonzero;stroke:none"
         d="m 1155.75,880.484 0,-52.781 -33.59,0 0,-44.156 33.59,0 0,-109.891 c 0,-30.703 5.75,-51.828 18.23,-65.265 11.04,-11.985 29.27,-19.188 50.86,-19.188 18.72,0 34.08,2.391 42.72,5.75 l -0.97,45.11 c -5.26,-1.438 -12.95,-2.875 -23.03,-2.875 -22.54,0 -30.23,14.875 -30.23,43.187 l 0,103.172 56.15,0 0,44.156 -56.15,0 0,66.703 -57.58,-13.922" /><path
         id="path22"
         style="fill:#26080d;fill-opacity:1;fill-rule:nonzero;stroke:none"
         d="m 1499.42,594 c -2.39,14.391 -3.36,35.031 -3.36,56.141 l 0,84.468 c 0,50.86 -21.59,98.375 -96.45,98.375 -36.95,0 -67.19,-10.078 -84.45,-20.64 l 11.51,-38.391 c 15.83,10.078 39.83,17.281 62.86,17.281 41.27,0 47.52,-25.437 47.52,-40.796 l 0,-3.844 c -86.39,0.484 -138.69,-29.266 -138.69,-88.297 0,-35.5 26.39,-69.578 73.42,-69.578 30.24,0 54.7,12.953 69.1,31.187 l 1.43,0 3.85,-25.906 53.26,0 z m -60.94,82.063 c 0,-3.844 -0.48,-8.641 -1.92,-12.954 -5.28,-16.796 -22.56,-32.156 -46.08,-32.156 -18.7,0 -33.57,10.547 -33.57,33.594 0,35.5 39.82,44.625 81.57,43.656 l 0,-32.14" /><path
         id="path24"
         style="fill:#26080d;fill-opacity:1;fill-rule:nonzero;stroke:none"
         d="M 1528.72,827.703 1597.81,594 l 55.19,0 29.77,95.016 c 6.7,23.031 12.95,46.062 17.75,74.859 l 0.95,0 c 5.28,-28.312 10.56,-50.391 17.76,-74.859 l 27.83,-95.016 54.71,0 73.42,233.703 -58.06,0 -25.93,-103.656 c -6.23,-27.359 -11.51,-52.781 -15.34,-78.219 l -0.97,0 c -5.28,25.438 -11.51,50.86 -18.72,78.219 l -29.26,103.656 -47.99,0 -30.23,-106.531 c -6.72,-24 -14.39,-49.906 -19.21,-75.344 l -0.95,0 c -4.31,25.438 -9.59,50.86 -14.87,75.813 l -24.47,106.062 -60.47,0" /><path
         id="path26"
         style="fill:#26080d;fill-opacity:1;fill-rule:nonzero;stroke:none"
         d="m 2095.42,594 c -2.39,14.391 -3.36,35.031 -3.36,56.141 l 0,84.468 c 0,50.86 -21.59,98.375 -96.45,98.375 -36.95,0 -67.19,-10.078 -84.45,-20.64 l 11.51,-38.391 c 15.83,10.078 39.83,17.281 62.86,17.281 41.27,0 47.52,-25.437 47.52,-40.796 l 0,-3.844 c -86.39,0.484 -138.69,-29.266 -138.69,-88.297 0,-35.5 26.39,-69.578 73.42,-69.578 30.24,0 54.7,12.953 69.1,31.187 l 1.43,0 3.85,-25.906 53.26,0 z m -60.94,82.063 c 0,-3.844 -0.48,-8.641 -1.92,-12.954 -5.28,-16.796 -22.56,-32.156 -46.08,-32.156 -18.7,0 -33.57,10.547 -33.57,33.594 0,35.5 39.82,44.625 81.57,43.656 l 0,-32.14" /><path
         id="path28"
         style="fill:#26080d;fill-opacity:1;fill-rule:nonzero;stroke:none"
         d="m 2121.84,827.703 85.41,-214.515 c 2.89,-5.75 3.36,-9.11 3.36,-11.516 0,-2.875 -1.44,-6.234 -3.83,-10.547 -8.15,-15.844 -21.12,-29.75 -32.15,-36.953 -12,-8.641 -24.47,-13.922 -34.55,-16.313 l 13.44,-49.906 c 14.87,1.922 38.86,9.594 61.9,30.235 27.83,23.984 49.42,62.859 81.58,150.187 l 58.53,159.328 -63.34,0 -36.47,-124.765 c -4.31,-15.36 -8.63,-32.641 -12.47,-46.079 l -1.44,0 c -3.36,13.438 -8.15,31.204 -12.97,45.594 l -42.21,125.25 -64.79,0" /><path
         id="path30"
         style="fill:#26080d;fill-opacity:1;fill-rule:nonzero;stroke:none"
         d="m 1052.28,125.516 c 17.27,-9.594 42.7,-16.313 71.02,-16.313 61.9,0 95.01,30.703 95.01,72.938 -0.48,34.547 -20.15,56.14 -62.39,71.5 -29.75,10.562 -40.78,17.765 -40.78,32.64 0,14.391 11.52,24.469 32.63,24.469 20.64,0 39.36,-7.672 49.43,-13.437 l 11.52,41.75 c -13.44,7.203 -36,13.921 -61.91,13.921 -54.23,0 -88.29,-32.156 -88.29,-73.421 -0.49,-27.36 18.71,-52.313 64.29,-68.141 28.8,-10.078 38.39,-18.25 38.39,-34.078 0,-15.36 -11.51,-25.906 -37.42,-25.906 -21.12,0 -46.55,8.625 -59.98,16.781 l -11.52,-42.703" /><path
         id="path32"
         style="fill:#26080d;fill-opacity:1;fill-rule:nonzero;stroke:none"
         d="m 1266.67,114 59.5,0 0,139.641 c 0,6.718 0.49,12.953 2.41,17.765 6.23,17.75 22.55,33.11 45.58,33.11 32.64,0 45.11,-25.438 45.11,-59.516 l 0,-131 59.03,0 0,137.719 c 0,74.859 -41.75,101.265 -81.58,101.265 -14.88,0 -28.8,-3.843 -40.31,-10.562 -12.47,-6.719 -22.08,-15.844 -29.27,-26.875 l -0.97,0 0,139.172 -59.5,0 0,-340.719" /><path
         id="path34"
         style="fill:#26080d;fill-opacity:1;fill-rule:nonzero;stroke:none"
         d="m 1646.72,352.984 c -70.53,0 -120.92,-47.031 -120.92,-123.812 0,-74.859 50.86,-120.453 117.09,-120.453 59.5,0 119.97,38.39 119.97,124.297 0,71.015 -46.55,119.968 -116.14,119.968 z m -1.44,-43.203 c 40.31,0 56.63,-41.734 56.63,-78.218 0,-47.016 -23.52,-80.125 -57.11,-80.125 -35.99,0 -58.07,34.062 -58.07,79.171 0,38.875 16.8,79.172 58.55,79.172" /><path
         id="path36"
         style="fill:#26080d;fill-opacity:1;fill-rule:nonzero;stroke:none"
         d="m 1821.75,400.484 0,-52.781 -33.59,0 0,-44.156 33.59,0 0,-109.891 c 0,-30.703 5.75,-51.828 18.23,-65.265 11.04,-11.985 29.27,-19.188 50.86,-19.188 18.72,0 34.08,2.391 42.72,5.75 l -0.97,45.11 c -5.26,-1.438 -12.95,-2.875 -23.03,-2.875 -22.54,0 -30.23,14.875 -30.23,43.187 l 0,103.172 56.15,0 0,44.156 -56.15,0 0,66.703 -57.58,-13.922" /><path
         id="path38"
         style="fill:none;stroke:#4d4d4d;stroke-width:140;stroke-linecap:butt;stroke-linejoin:miter;stroke-miterlimit:10;stroke-dasharray:none;stroke-opacity:1"
         d="m 2620,1620 -2380,0" /><path
         id="path40"
         style="fill:#4d4d4d;fill-opacity:1;fill-rule:nonzero;stroke:none"
         d="m 2418.27,1777.13 1.5,-316.42 398.5,158.21" /><path
         id="path42"
         style="fill:none;stroke:#ffffff;stroke-width:120;stroke-linecap:butt;stroke-linejoin:miter;stroke-miterlimit:10;stroke-dasharray:none;stroke-opacity:1"
         d="m 1130,1920 0,-370" /><path
         id="path44"
         style="fill:none;stroke:#ffffff;stroke-width:120;stroke-linecap:butt;stroke-linejoin:miter;stroke-miterlimit:10;stroke-dasharray:none;stroke-opacity:1"
         d="m 1860,1690 0,-370" /><path
         id="path46"
         style="fill:#c1272d;fill-opacity:1;fill-rule:nonzero;stroke:none"
         d="m 1720,1180 280,0 0,160 -280,0 0,-160 z" /><path
         id="path48"
         style="fill:#c1272d;fill-opacity:1;fill-rule:nonzero;stroke:none"
         d="m 990,1900 280,0 0,160 -280,0 0,-160 z" /></g></g></svg>