<svg xmlns="http://www.w3.org/2000/svg" xmlns:xlink="http://www.w3.org/1999/xlink" width="300" height="300" viewBox="0 0 300 300"><switch><g><symbol id="a" viewBox="-150 -150 300 300.007"><path fill="#CE8E95" d="M150-97.021c0-6.764 0-52.979-71.5-52.979H-84c-62.5 0-66 47.215-66 53.979v186c0 54.5 59.235 60 66 60l161.5.029c6.765 0 72.5-.029 72.5-60.029v-187z"/></symbol><use xlink:href="#a" width="300" height="300.007" x="-150" y="-150" transform="matrix(1 0 0 -1 150 150)" overflow="visible"/><g fill="#26080D"><path d="M33.88 252.155c1.344.816 3.888 1.681 6 1.681 2.592 0 3.744-1.057 3.744-2.593 0-1.584-.96-2.399-3.84-3.408-4.56-1.584-6.48-4.08-6.433-6.816 0-4.128 3.409-7.345 8.833-7.345 2.592 0 4.848.672 6.192 1.393l-1.152 4.176c-1.008-.576-2.88-1.344-4.945-1.344-2.112 0-3.264 1.008-3.264 2.448 0 1.488 1.104 2.208 4.081 3.265 4.224 1.536 6.192 3.696 6.24 7.152 0 4.225-3.312 7.297-9.504 7.297-2.833 0-5.377-.673-7.105-1.633l1.153-4.273zM60.953 227.529v6.673h5.616v4.416h-5.616v10.321c0 2.832.768 4.32 3.024 4.32a8.765 8.765 0 0 0 2.304-.288l.096 4.513c-.864.336-2.4.576-4.272.576-2.16 0-3.984-.721-5.088-1.921-1.248-1.344-1.824-3.456-1.824-6.528v-10.993h-3.36v-4.416h3.36v-5.28l5.76-1.393zM71.032 241.738c0-3.168-.048-5.424-.192-7.536h5.137l.192 4.464h.192c1.152-3.312 3.889-4.992 6.385-4.992.576 0 .912.048 1.392.145v5.568a8.142 8.142 0 0 0-1.728-.192c-2.833 0-4.752 1.824-5.281 4.465-.096.527-.192 1.151-.192 1.824v12.097h-5.904v-15.843zM100.841 257.58l-.384-2.592h-.144c-1.44 1.824-3.888 3.12-6.913 3.12-4.705 0-7.345-3.408-7.345-6.961 0-5.904 5.232-8.881 13.873-8.833v-.384c0-1.536-.624-4.08-4.752-4.08-2.304 0-4.704.72-6.289 1.728l-1.152-3.84c1.728-1.057 4.752-2.064 8.449-2.064 7.489 0 9.649 4.753 9.649 9.841v8.449c0 2.112.096 4.176.336 5.616h-5.328zm-.768-11.425c-4.176-.097-8.161.815-8.161 4.368 0 2.305 1.488 3.36 3.36 3.36 2.352 0 4.081-1.536 4.608-3.216a4.25 4.25 0 0 0 .192-1.297v-3.215zM118.36 227.674c0 1.775-1.296 3.168-3.36 3.168-1.968 0-3.265-1.393-3.265-3.168 0-1.824 1.344-3.217 3.313-3.217 2.016 0 3.264 1.393 3.312 3.217zm-6.288 29.906v-23.378h5.952v23.378h-5.952zM145.721 234.202c-.096 1.584-.192 3.504-.192 6.721v13.249c0 4.896-1.008 8.4-3.456 10.608-2.448 2.16-5.809 2.833-9.025 2.833-2.976 0-6.145-.624-8.161-1.872l1.296-4.465c1.488.864 3.984 1.776 6.817 1.776 3.84 0 6.721-2.017 6.721-7.057v-2.017h-.096c-1.344 2.064-3.744 3.457-6.816 3.457-5.809 0-9.937-4.801-9.937-11.426 0-7.681 4.992-12.337 10.609-12.337 3.552 0 5.665 1.729 6.769 3.648h.096l.24-3.12h5.135zm-6.097 9.361c0-.527-.048-1.104-.192-1.584-.624-2.16-2.304-3.792-4.8-3.792-3.313 0-5.761 2.88-5.761 7.633 0 3.984 2.016 7.2 5.712 7.2 2.208 0 4.128-1.44 4.8-3.552.144-.624.24-1.44.24-2.112v-3.793zM151.863 223.497h5.951v13.921h.097a7.925 7.925 0 0 1 2.929-2.688c1.151-.673 2.544-1.057 4.032-1.057 3.984 0 8.16 2.641 8.16 10.129v13.777h-5.904v-13.105c0-3.408-1.248-5.952-4.513-5.952-2.304 0-3.936 1.536-4.561 3.313-.191.479-.24 1.104-.24 1.776v13.969h-5.951v-34.083zM185.848 227.529v6.673h5.617v4.416h-5.617v10.321c0 2.832.769 4.32 3.024 4.32a8.78 8.78 0 0 0 2.305-.288l.096 4.513c-.864.336-2.4.576-4.272.576-2.16 0-3.984-.721-5.088-1.921-1.249-1.344-1.824-3.456-1.824-6.528v-10.993h-3.36v-4.416h3.36v-5.28l5.759-1.393zM223.048 256.86c-1.248.576-3.696 1.2-6.624 1.2-7.297 0-12.05-4.657-12.05-11.905 0-7.009 4.801-12.481 13.01-12.481 2.16 0 4.368.48 5.712 1.104l-1.056 4.416c-.96-.432-2.353-.912-4.465-.912-4.512 0-7.2 3.313-7.152 7.585 0 4.801 3.12 7.536 7.152 7.536 2.064 0 3.505-.432 4.657-.912l.816 4.369zM248.344 250.571a137 137 0 0 0 .192 7.009h-5.185l-.288-3.553h-.096c-1.008 1.681-3.313 4.081-7.488 4.081-4.272 0-8.161-2.545-8.161-10.177v-13.729h5.904v12.721c0 3.889 1.248 6.385 4.368 6.385 2.353 0 3.889-1.68 4.513-3.168a5.366 5.366 0 0 0 .336-1.824v-14.113h5.904v16.368zM261.494 227.529v6.673h5.617v4.416h-5.617v10.321c0 2.832.769 4.32 3.024 4.32a8.78 8.78 0 0 0 2.305-.288l.096 4.513c-.864.336-2.4.576-4.272.576-2.16 0-3.984-.721-5.088-1.921-1.249-1.344-1.824-3.456-1.824-6.528v-10.993h-3.36v-4.416h3.36v-5.28l5.759-1.393z"/></g><path fill="#333" d="M145 74h131v117H145z"/><path fill="#FFF" d="M25 74h124v117H25z"/><path fill="#333" d="M70.103 126.404l-3.962 13.048h-8.676l14.756-46.043h10.726l14.96 46.043h-9.018l-4.167-13.048H70.103zm13.184-6.353l-3.62-11.34c-.889-2.801-1.64-5.943-2.323-8.607h-.137c-.683 2.664-1.366 5.875-2.186 8.607l-3.553 11.34h11.819z"/><path fill="#FFF" d="M190.789 94.495c2.664-.546 7.514-.956 12.229-.956 6.216 0 10.041.751 13.184 2.938 2.869 1.708 4.782 4.713 4.782 8.607 0 4.235-2.664 8.129-7.651 9.974v.137c4.851 1.229 9.291 5.055 9.291 11.408 0 4.099-1.776 7.31-4.44 9.496-3.279 2.869-8.676 4.304-17.079 4.304-4.645 0-8.197-.341-10.314-.615V94.495zm8.334 18.172h4.304c5.807 0 9.086-2.732 9.086-6.626 0-4.304-3.279-6.285-8.608-6.285-2.459 0-3.893.137-4.781.342v12.569zm0 21.177c1.093.137 2.527.205 4.44.205 5.396 0 10.179-2.049 10.179-7.719 0-5.329-4.646-7.515-10.452-7.515h-4.167v15.029z"/></g></switch></svg>