<svg xmlns="http://www.w3.org/2000/svg" xmlns:xlink="http://www.w3.org/1999/xlink" width="300" height="300" viewBox="0 0 300 300"><switch><g><symbol id="a" viewBox="-150 -150 300 300.015"><path fill="#AEBCC4" d="M150-97.015c0-6.763 0-52.985-71.5-52.985H-84c-62.5 0-66 47.223-66 53.985v186c0 54.5 59.235 60 66 60l161.5.029c6.765 0 72.5-.029 72.5-60.029v-187z"/></symbol><use xlink:href="#a" width="300" height="300.015" x="-150" y="-150" transform="matrix(1 0 0 -1 150 151)" overflow="visible"/><g fill="#080828"><path d="M52.511 226.657c2.208-.384 5.521-.672 8.929-.672 4.657 0 7.825.768 9.985 2.592 1.776 1.488 2.784 3.745 2.784 6.48 0 4.177-2.832 7.009-5.856 8.113v.144c2.304.864 3.696 3.12 4.513 6.241 1.008 4.032 1.872 7.776 2.544 9.024h-6.096c-.48-.96-1.249-3.601-2.16-7.633-.912-4.225-2.448-5.568-5.809-5.664h-2.977v13.297h-5.856v-31.922zm5.856 14.306h3.504c3.984 0 6.48-2.112 6.48-5.329 0-3.552-2.496-5.185-6.336-5.185-1.872 0-3.072.145-3.648.288v10.226zM100.512 251.571c0 2.784.096 5.089.192 7.009H95.52l-.288-3.553h-.096c-1.008 1.681-3.313 4.081-7.489 4.081-4.272 0-8.161-2.545-8.161-10.177v-13.729h5.904v12.721c0 3.889 1.249 6.385 4.369 6.385 2.352 0 3.888-1.68 4.512-3.168a5.366 5.366 0 0 0 .336-1.824v-14.113h5.905v16.368zm-18.05-22.946c0-1.68 1.296-2.976 3.024-2.976 1.584 0 2.833 1.248 2.833 2.976 0 1.585-1.2 2.929-2.88 2.929-1.728 0-2.977-1.344-2.977-2.929zm9.601 0c0-1.68 1.248-2.976 2.928-2.976s2.88 1.248 2.88 2.976c0 1.585-1.2 2.929-2.88 2.929-1.727 0-2.928-1.344-2.928-2.929zM124.079 257.86c-1.248.576-3.696 1.2-6.625 1.2-7.296 0-12.049-4.657-12.049-11.905 0-7.009 4.8-12.481 13.009-12.481 2.16 0 4.368.48 5.712 1.104l-1.056 4.416c-.96-.432-2.352-.912-4.464-.912-4.512 0-7.201 3.313-7.153 7.585 0 4.801 3.121 7.536 7.153 7.536 2.064 0 3.504-.432 4.656-.912l.817 4.369zM134.35 245.475h.096c.576-.912 1.248-1.92 1.872-2.736l5.665-7.536h7.104l-8.641 9.553 9.889 13.825h-7.249l-6.721-10.321-2.016 2.353v7.969h-5.904v-34.083h5.904v20.976zM153.549 258.58v-18.962h-3.168v-4.416h3.168v-1.008c0-3.024.816-6.049 2.832-7.969 1.729-1.633 4.081-2.257 6.098-2.257 1.584 0 2.832.24 3.792.576l-.433 4.561c-.623-.24-1.439-.432-2.496-.432-2.928 0-3.936 2.448-3.936 5.328v1.2h5.137v4.416h-5.09v18.962h-5.904zM181.342 258.58l-.384-2.592h-.144c-1.441 1.824-3.889 3.12-6.913 3.12-4.704 0-7.345-3.408-7.345-6.961 0-5.904 5.232-8.881 13.873-8.833v-.384c0-1.536-.624-4.08-4.752-4.08-2.305 0-4.705.72-6.289 1.728l-1.152-3.84c1.729-1.057 4.753-2.064 8.449-2.064 7.488 0 9.648 4.753 9.648 9.841v8.449c0 2.112.096 4.176.336 5.616h-5.327zm-.768-11.425c-4.177-.097-8.161.815-8.161 4.368 0 2.305 1.488 3.36 3.36 3.36 2.352 0 4.08-1.536 4.608-3.216a4.25 4.25 0 0 0 .192-1.297v-3.215zM192.572 224.497h5.953v13.921h.096a7.918 7.918 0 0 1 2.929-2.688c1.151-.673 2.544-1.057 4.032-1.057 3.984 0 8.16 2.641 8.16 10.129v13.777h-5.904v-13.105c0-3.408-1.248-5.952-4.513-5.952-2.304 0-3.937 1.536-4.56 3.313-.192.479-.24 1.104-.24 1.776v13.969h-5.953v-34.083zM220.027 242.738c0-3.168-.048-5.424-.191-7.536h5.136l.192 4.464h.192c1.151-3.312 3.888-4.992 6.384-4.992.576 0 .912.048 1.393.145v5.568a8.145 8.145 0 0 0-1.729-.192c-2.832 0-4.752 1.824-5.28 4.465a10.12 10.12 0 0 0-.191 1.824v12.097h-5.905v-15.843zM244.987 228.529v6.673h5.617v4.416h-5.617v10.321c0 2.832.769 4.32 3.024 4.32a8.78 8.78 0 0 0 2.305-.288l.096 4.513c-.864.336-2.4.576-4.272.576-2.16 0-3.984-.721-5.088-1.921-1.249-1.344-1.824-3.456-1.824-6.528v-10.993h-3.36v-4.416h3.36v-5.28l5.759-1.393z"/></g><path fill="none" stroke="#FFF" stroke-width="11.143" stroke-miterlimit="10" d="M180.599 52.178l57.973 154.155"/><path fill="none" stroke="#FFF" stroke-width="10.889" stroke-miterlimit="10" d="M125.652 55.69L69 206.333"/><path fill="none" stroke="#FFF" stroke-width="11" stroke-miterlimit="10" d="M113 82.5h81"/><path fill="none" stroke="#FFF" stroke-width="16" stroke-miterlimit="10" d="M103 123h106"/><path fill="none" stroke="#FFF" stroke-width="15" stroke-miterlimit="10" d="M79 177.5h149"/><path fill="none" d="M301.752 24.698l4.152 160.254-62.313 1.614-4.152-160.254z"/><path fill="#C1272D" d="M160.367 82.161l.285 76.448 18.713.656-26.655 31.673-24.617-30.496 18.663-.911-.311-77.23z"/><circle fill="#C1272D" cx="154.17" cy="46.975" r="12.14"/></g></switch></svg>