<svg xmlns="http://www.w3.org/2000/svg" xmlns:xlink="http://www.w3.org/1999/xlink" width="300" height="300" viewBox="0 0 300 300"><switch><g><symbol id="a" viewBox="-150 -150 300 300.015"><path fill="#AEBCC4" d="M150-97.015c0-6.763 0-52.985-71.5-52.985H-84c-62.5 0-66 47.223-66 53.985v186c0 54.5 59.235 60 66 60l161.5.029c6.765 0 72.5-.029 72.5-60.029v-187z"/></symbol><use xlink:href="#a" width="300" height="300.015" x="-150" y="-150" transform="matrix(1 0 0 -1 150 151)" overflow="visible"/><g fill="#080828"><path d="M67.919 228.529v6.673h5.616v4.416h-5.616v10.321c0 2.832.768 4.32 3.024 4.32a8.765 8.765 0 0 0 2.304-.288l.096 4.513c-.864.336-2.4.576-4.272.576-2.16 0-3.984-.721-5.088-1.921-1.248-1.344-1.824-3.456-1.824-6.528v-10.993h-3.36v-4.416h3.36v-5.28l5.76-1.393zM77.999 242.738c0-3.168-.048-5.424-.192-7.536h5.137l.192 4.464h.192c1.152-3.312 3.889-4.992 6.385-4.992.576 0 .912.048 1.392.145v5.568a8.142 8.142 0 0 0-1.728-.192c-2.833 0-4.752 1.824-5.281 4.465-.096.527-.192 1.151-.192 1.824v12.097H78v-15.843zM107.808 258.58l-.384-2.592h-.144c-1.44 1.824-3.888 3.12-6.913 3.12-4.705 0-7.345-3.408-7.345-6.961 0-5.904 5.232-8.881 13.873-8.833v-.384c0-1.536-.624-4.08-4.752-4.08-2.304 0-4.704.72-6.289 1.728l-1.152-3.84c1.728-1.057 4.752-2.064 8.449-2.064 7.489 0 9.649 4.753 9.649 9.841v8.449c0 2.112.096 4.176.336 5.616h-5.328zm-.768-11.425c-4.176-.097-8.161.815-8.161 4.368 0 2.305 1.488 3.36 3.36 3.36 2.352 0 4.081-1.536 4.608-3.216a4.25 4.25 0 0 0 .192-1.297v-3.215zM136.224 257.86c-1.248.576-3.696 1.2-6.625 1.2-7.296 0-12.049-4.657-12.049-11.905 0-7.009 4.8-12.481 13.009-12.481 2.16 0 4.368.48 5.712 1.104l-1.056 4.416c-.96-.432-2.352-.912-4.464-.912-4.512 0-7.201 3.313-7.153 7.585 0 4.801 3.121 7.536 7.153 7.536 2.064 0 3.504-.432 4.656-.912l.817 4.369zM146.494 245.475h.096c.576-.912 1.248-1.92 1.872-2.736l5.665-7.536h7.104l-8.641 9.553 9.889 13.825h-7.248l-6.721-10.321-2.016 2.353v7.969h-5.904v-34.083h5.904v20.976zM197.182 246.675c0 8.593-6.048 12.434-12 12.434-6.625 0-11.713-4.561-11.713-12.05 0-7.68 5.04-12.385 12.097-12.385 6.959 0 11.616 4.896 11.616 12.001zm-17.618.24c0 4.513 2.209 7.921 5.809 7.921 3.36 0 5.713-3.313 5.713-8.017 0-3.648-1.633-7.825-5.664-7.825-4.177 0-5.858 4.032-5.858 7.921zM222.957 251.571a137 137 0 0 0 .192 7.009h-5.185l-.288-3.553h-.096c-1.008 1.681-3.313 4.081-7.488 4.081-4.272 0-8.161-2.545-8.161-10.177v-13.729h5.904v12.721c0 3.889 1.248 6.385 4.368 6.385 2.353 0 3.889-1.68 4.513-3.168a5.366 5.366 0 0 0 .336-1.824v-14.113h5.904v16.368zM236.107 228.529v6.673h5.617v4.416h-5.617v10.321c0 2.832.769 4.32 3.024 4.32a8.78 8.78 0 0 0 2.305-.288l.096 4.513c-.864.336-2.4.576-4.272.576-2.16 0-3.984-.721-5.088-1.921-1.249-1.344-1.824-3.456-1.824-6.528v-10.993h-3.36v-4.416h3.36v-5.28l5.759-1.393z"/></g><path fill="none" stroke="#FFF" stroke-width="11.143" stroke-miterlimit="10" d="M180.599 52.178l57.973 154.155"/><path fill="none" stroke="#FFF" stroke-width="10.889" stroke-miterlimit="10" d="M125.652 55.69L69 206.333"/><path fill="none" stroke="#FFF" stroke-width="11" stroke-miterlimit="10" d="M113 82.5h81"/><path fill="none" stroke="#FFF" stroke-width="16" stroke-miterlimit="10" d="M103 123h106"/><path fill="none" stroke="#FFF" stroke-width="15" stroke-miterlimit="10" d="M79 177.5h149"/><path fill="none" d="M301.752 24.698l4.152 160.254-62.313 1.614-4.152-160.254z"/><path fill="#C1272D" d="M160.367 82.161l.285 76.448 18.713.656-26.655 31.673-24.617-30.496 18.663-.911-.311-77.23z"/><circle fill="#C1272D" cx="154.17" cy="46.975" r="12.14"/></g></switch></svg>