<svg xmlns="http://www.w3.org/2000/svg" xmlns:xlink="http://www.w3.org/1999/xlink" width="300" height="300" viewBox="0 0 300 300"><switch><g><symbol id="a" viewBox="-239.998 -118.656 300 300.671"><path fill="#91C4AB" d="M60.002-65.014c0-6.764-.002-53.643-71.502-53.643H-174c-62.5 0-65.998 47.879-65.998 54.643v185.999c0 54.5 59.233 60 65.999 60l161.499.029c6.766 0 72.502-.029 72.502-60.029V-65.014z"/></symbol><use xlink:href="#a" width="300" height="300.671" x="-239.998" y="-118.656" transform="matrix(1 0 0 -1 239.998 182.015)" overflow="visible"/><g fill="#012B16"><path d="M79.563 222.539c0 8.593-6.048 12.434-12.001 12.434-6.625 0-11.713-4.561-11.713-12.05 0-7.68 5.041-12.385 12.097-12.385 6.961 0 11.617 4.897 11.617 12.001zm-17.617.24c0 4.513 2.208 7.921 5.808 7.921 3.36 0 5.713-3.313 5.713-8.017 0-3.648-1.632-7.825-5.665-7.825-4.176 0-5.856 4.033-5.856 7.921zM99.482 234.444v-18.962h-8.497v18.962h-5.904v-18.962h-3.168v-4.416h3.168v-.576c0-3.024.72-5.809 2.64-7.729 1.44-1.488 3.601-2.4 6.577-2.4 1.248 0 2.496.336 3.216.672l-.96 4.368a5.72 5.72 0 0 0-2.112-.432c-2.688 0-3.504 2.256-3.504 5.185v.912h8.545v-1.008c0-3.024.816-6.049 2.88-7.969 1.729-1.633 4.033-2.257 6.097-2.257 1.584 0 2.833.24 3.745.576l-.384 4.561a7.153 7.153 0 0 0-2.544-.432c-2.929 0-3.889 2.448-3.889 5.328v1.2h5.088v4.416h-5.041v18.962h-5.953zM113.497 229.02c1.344.816 3.888 1.681 6 1.681 2.592 0 3.744-1.057 3.744-2.593 0-1.584-.96-2.399-3.84-3.408-4.561-1.584-6.48-4.08-6.433-6.816 0-4.128 3.408-7.345 8.833-7.345 2.592 0 4.848.672 6.192 1.393l-1.152 4.176c-1.008-.576-2.88-1.344-4.945-1.344-2.112 0-3.264 1.008-3.264 2.448 0 1.488 1.104 2.208 4.081 3.265 4.224 1.536 6.192 3.696 6.24 7.152 0 4.225-3.312 7.297-9.505 7.297-2.832 0-5.376-.673-7.104-1.633l1.153-4.273zM150.986 233.725c-1.248.576-3.697 1.2-6.625 1.2-7.296 0-12.049-4.657-12.049-11.905 0-7.009 4.8-12.481 13.009-12.481 2.16 0 4.369.48 5.712 1.104l-1.057 4.416c-.959-.432-2.352-.912-4.464-.912-4.513 0-7.201 3.313-7.153 7.585 0 4.801 3.121 7.536 7.153 7.536 2.064 0 3.504-.432 4.656-.912l.818 4.369zM155.352 218.603c0-3.168-.048-5.424-.191-7.536h5.136l.192 4.464h.192c1.151-3.312 3.888-4.992 6.384-4.992.576 0 .912.048 1.393.145v5.568a8.145 8.145 0 0 0-1.729-.192c-2.832 0-4.752 1.824-5.28 4.465a10.12 10.12 0 0 0-.191 1.824v12.097h-5.905v-15.843zM176.184 224.411c.144 4.225 3.456 6.049 7.2 6.049 2.736 0 4.705-.384 6.48-1.056l.864 4.08c-2.016.816-4.8 1.44-8.16 1.44-7.585 0-12.05-4.657-12.05-11.81 0-6.48 3.937-12.577 11.426-12.577 7.584 0 10.08 6.24 10.08 11.377 0 1.104-.096 1.969-.191 2.496h-15.649zm10.272-4.128c.048-2.16-.912-5.713-4.848-5.713-3.648 0-5.185 3.313-5.425 5.713h10.273zM200.951 224.411c.144 4.225 3.456 6.049 7.2 6.049 2.736 0 4.705-.384 6.48-1.056l.864 4.08c-2.016.816-4.8 1.44-8.16 1.44-7.585 0-12.05-4.657-12.05-11.81 0-6.48 3.937-12.577 11.426-12.577 7.584 0 10.08 6.24 10.08 11.377 0 1.104-.096 1.969-.191 2.496h-15.649zm10.273-4.128c.048-2.16-.912-5.713-4.848-5.713-3.648 0-5.185 3.313-5.425 5.713h10.273zM221.542 218.027c0-2.688-.048-4.945-.191-6.961h5.185l.287 3.504h.145c1.008-1.824 3.553-4.032 7.44-4.032 4.08 0 8.305 2.641 8.305 10.033v13.873h-5.904v-13.201c0-3.36-1.248-5.904-4.465-5.904-2.352 0-3.983 1.68-4.608 3.456-.191.528-.239 1.248-.239 1.92v13.729h-5.953v-16.417zM92.233 266.027c0-2.688-.048-4.945-.192-6.961h5.089l.24 3.456h.144c1.152-1.824 3.264-3.984 7.201-3.984 3.072 0 5.472 1.729 6.48 4.32h.096c.816-1.296 1.776-2.256 2.88-2.928 1.296-.912 2.785-1.393 4.705-1.393 3.888 0 7.825 2.641 7.825 10.129v13.777h-5.761V269.53c0-3.889-1.344-6.192-4.176-6.192-2.016 0-3.504 1.439-4.128 3.12-.144.576-.288 1.296-.288 1.968v14.018h-5.761v-13.537c0-3.265-1.296-5.568-4.032-5.568-2.208 0-3.696 1.728-4.225 3.36-.24.576-.336 1.248-.336 1.92v13.825h-5.76v-16.417zM153.866 275.436a137 137 0 0 0 .192 7.009h-5.185l-.288-3.553h-.096c-1.008 1.681-3.313 4.081-7.489 4.081-4.272 0-8.161-2.545-8.161-10.177v-13.729h5.904v12.721c0 3.889 1.249 6.385 4.369 6.385 2.352 0 3.888-1.68 4.512-3.168a5.366 5.366 0 0 0 .336-1.824v-14.113h5.904v16.368zM159.96 277.02c1.345.816 3.889 1.681 6.001 1.681 2.592 0 3.744-1.057 3.744-2.593 0-1.584-.96-2.399-3.84-3.408-4.561-1.584-6.48-4.08-6.433-6.816 0-4.128 3.408-7.345 8.832-7.345 2.593 0 4.849.672 6.193 1.393l-1.152 4.176c-1.008-.576-2.881-1.344-4.944-1.344-2.112 0-3.265 1.008-3.265 2.448 0 1.488 1.104 2.208 4.08 3.265 4.225 1.536 6.193 3.696 6.241 7.152 0 4.225-3.313 7.297-9.505 7.297-2.832 0-5.377-.673-7.104-1.633l1.152-4.273zM186.553 252.538c0 1.775-1.296 3.168-3.36 3.168-1.969 0-3.265-1.393-3.265-3.168 0-1.824 1.345-3.217 3.313-3.217 2.016 0 3.264 1.393 3.312 3.217zm-6.289 29.906v-23.378h5.953v23.378h-5.953zM209.737 281.725c-1.248.576-3.696 1.2-6.624 1.2-7.297 0-12.05-4.657-12.05-11.905 0-7.009 4.801-12.481 13.01-12.481 2.16 0 4.368.48 5.712 1.104l-1.056 4.416c-.96-.432-2.353-.912-4.465-.912-4.512 0-7.2 3.313-7.152 7.585 0 4.801 3.12 7.536 7.152 7.536 2.064 0 3.505-.432 4.657-.912l.816 4.369z"/></g><path d="M270.195 140.538c0 8.751-45.015 7.956-88.269 7.956-43.253 0-86.293-.16-86.293-8.005 0-6.084 43.04-10.967 86.293-10.967 43.255-.001 88.269 4.932 88.269 11.016z"/><path d="M275.443 131.655c0 6.774-4.72 12.266-10.539 12.266h-163.36c-5.821 0-10.54-5.492-10.54-12.266V35.57c0-6.774 4.718-11.974 10.54-11.974h163.36c5.819 0 10.539 5.199 10.539 11.974v96.085z"/><circle fill="#C1272D" cx="183.386" cy="138.685" r="4.098"/><circle fill="#FFF" cx="195.097" cy="138.099" r="3.221"/><circle fill="#FFF" cx="205.636" cy="138.099" r="3.221"/><path fill="#FFF" d="M268 121.573c0 5.721-3.853 11.427-9.197 11.427H108.838c-5.343 0-9.838-5.706-9.838-11.427V40.421C99 34.7 103.495 30 108.838 30h149.964c5.345 0 9.197 4.7 9.197 10.421v81.152z"/><path fill-rule="evenodd" clip-rule="evenodd" fill="#C1272D" d="M75.717 141.382c5.715 9.212-.226 19.061-6.208 23.558l-11.214-29.058c6.842-.859 13.716-.48 17.422 5.5zM50.45 128.654s-19.369 9.555-11.86 26.825c1.296 2.976 6.542 8.747 10.09 6.753 1.521-.85-1.939-4.07-3.375-6.698-6.553-12.04 8.416-18.333 8.416-18.333l11.293 31.063-1.838.896c-6.218 2.584-23.181 6.025-30.393-9.779-8.206-18 7.268-33.225 14.687-40.11l2.98 9.383zm2.133-57.026c3.675 9.154 2.875 18.911-5.821 30.383 0 0-10.196-35.097-2.893-40.346 2.645-1.91 8.197 8.651 8.714 9.963zm8.728 6.024c4.617 25.277-9.979 37.922-9.979 37.922l3.333 11.024s26.773-9.93 34.604 12.572c6.778 19.485-17.376 32.054-17.46 32.328 3.608 10.192 6.415 19.662-5.13 25.292-4.953 2.416-14.733 5.157-18.649-2.873-2.043-4.19-1.613-9.37 3.153-11.694 5.303-2.587 9.836-.276 11.971 4.102.799 1.639 2.115 5.734-.635 7.524.642-.081 1.367-.435 1.743-.617 8.793-4.289 5.633-14.483 3.498-18.861-.268-.55-.445-.913-.985-1.099-17.67 7.038-33.513-.811-39.649-13.394-1.598-3.277-2.829-7.198-2.964-11.189a38.653 38.653 0 0 1 .755-9.627c1.854-10.612 8.487-20.504 13.984-27.582 1.122-1.445 4.174-5.411 4.174-5.411S26.54 61.244 42.14 53.93c5.809-2.724 16.668 10.017 19.171 23.722z"/></g></switch></svg>