<?xml version="1.0" encoding="iso-8859-1"?>
<!-- Generator: Adobe Illustrator 16.0.3, SVG Export Plug-In . SVG Version: 6.00 Build 0)  -->
<!DOCTYPE svg PUBLIC "-//W3C//DTD SVG 1.1//EN" "http://www.w3.org/Graphics/SVG/1.1/DTD/svg11.dtd">
<svg version="1.1" id="Ebene_1" xmlns="http://www.w3.org/2000/svg" xmlns:xlink="http://www.w3.org/1999/xlink" x="0px" y="0px"
	 width="518px" height="518px" viewBox="0 0 518 518" style="enable-background:new 0 0 518 518;" xml:space="preserve">
<path style="fill-rule:evenodd;clip-rule:evenodd;fill:#A91E74;" d="M518,512c0,3.313-2.017,6-4.505,6H4.505
	C2.018,518,0,515.313,0,512V6c0-3.313,2.017-6,4.504-6h508.99C515.983,0,518,2.687,518,6V512z"/>
<g>
	<g id="XMLID_1_">
		<g>
			<path style="fill:#FCFBFB;" d="M259.039,25.99c96.51-0.58,177.17,79.81,175.04,178.93c-2.04,95.16-81.561,173.45-179.37,171.17
				c-94.72-2.21-173.28-81.439-170.77-179.76C86.349,101.91,164.509,25.46,259.039,25.99z M259.309,361.59
				c89.29-0.38,160.94-73.05,160.37-160.66c-0.58-89.03-72.779-160.79-161.03-160.56c-85.43,0.21-159.56,68.84-160.47,160.72
				C99.219,291.1,170.849,361.97,259.309,361.59z"/>
			<path style="fill:#A91E74;" d="M419.679,200.93c0.57,87.61-71.08,160.28-160.37,160.66c-88.46,0.38-160.09-70.49-161.13-160.5
				c0.91-91.88,75.04-160.51,160.47-160.72C346.899,40.14,419.099,111.9,419.679,200.93z"/>
		</g>
		<g>
		</g>
	</g>
</g>
<g>
	<rect x="-7.001" y="413" style="fill-rule:evenodd;clip-rule:evenodd;fill:none;" width="525.002" height="106"/>
	<path style="fill:#FFFFFF;" d="M182.966,438.928c-0.358,3.793-1.758,6.75-4.199,8.875c-2.441,2.123-5.688,3.186-9.741,3.186
		c-2.832,0-5.327-0.672-7.483-2.014c-2.157-1.344-3.821-3.251-4.993-5.726c-1.172-2.474-1.782-5.347-1.831-8.618v-3.32
		c0-3.353,0.594-6.307,1.782-8.862c1.188-2.555,2.893-4.524,5.115-5.908c2.222-1.383,4.789-2.075,7.703-2.075
		c3.922,0,7.08,1.063,9.473,3.186c2.393,2.125,3.784,5.132,4.175,9.021h-6.152c-0.293-2.555-1.038-4.398-2.234-5.529
		c-1.196-1.132-2.95-1.697-5.261-1.697c-2.686,0-4.749,0.981-6.189,2.944s-2.177,4.843-2.209,8.639v3.152
		c0,3.845,0.688,6.777,2.063,8.797c1.375,2.021,3.389,3.03,6.042,3.03c2.425,0,4.248-0.545,5.469-1.636
		c1.221-1.09,1.994-2.905,2.319-5.444H182.966z"/>
	<path style="fill:#FFFFFF;" d="M203.913,447.912c-1.742,2.051-4.216,3.076-7.422,3.076c-2.865,0-5.034-0.838-6.506-2.515
		c-1.473-1.676-2.209-4.102-2.209-7.275v-17.114h5.933v17.041c0,3.354,1.392,5.029,4.175,5.029c2.881,0,4.826-1.033,5.835-3.101
		v-18.97h5.933V450.5h-5.591L203.913,447.912z"/>
	<path style="fill:#FFFFFF;" d="M221.271,424.084l0.171,2.759c1.855-2.164,4.395-3.247,7.617-3.247c3.532,0,5.949,1.352,7.251,4.053
		c1.92-2.701,4.622-4.053,8.105-4.053c2.913,0,5.082,0.806,6.506,2.417c1.424,1.611,2.152,3.988,2.185,7.129V450.5h-5.933v-17.188
		c0-1.676-0.366-2.905-1.099-3.687s-1.945-1.172-3.638-1.172c-1.351,0-2.454,0.362-3.308,1.087
		c-0.854,0.724-1.453,1.672-1.794,2.844l0.024,18.115h-5.933v-17.383c-0.082-3.108-1.668-4.663-4.761-4.663
		c-2.376,0-4.061,0.969-5.054,2.905V450.5h-5.933v-26.416H221.271z"/>
	<path style="fill:#FFFFFF;" d="M300.446,450.5h-6.152v-15.771H278.4V450.5h-6.177v-35.547h6.177v14.795h15.894v-14.795h6.152V450.5
		z"/>
	<path style="fill:#FFFFFF;" d="M306.062,437.048c0-2.588,0.513-4.919,1.538-6.995c1.025-2.074,2.466-3.67,4.321-4.785
		c1.855-1.114,3.987-1.672,6.396-1.672c3.564,0,6.457,1.147,8.68,3.442c2.221,2.295,3.421,5.339,3.601,9.131l0.024,1.392
		c0,2.604-0.501,4.932-1.502,6.982c-1,2.051-2.434,3.638-4.297,4.761s-4.016,1.685-6.457,1.685c-3.728,0-6.71-1.241-8.948-3.723
		c-2.238-2.482-3.357-5.79-3.357-9.925V437.048z M311.994,437.561c0,2.719,0.562,4.846,1.685,6.385
		c1.123,1.537,2.686,2.307,4.688,2.307s3.56-0.781,4.676-2.344c1.114-1.563,1.672-3.849,1.672-6.86c0-2.669-0.574-4.785-1.721-6.348
		c-1.148-1.563-2.707-2.344-4.676-2.344c-1.937,0-3.475,0.769-4.614,2.308C312.563,432.201,311.994,434.501,311.994,437.561z"/>
	<path style="fill:#FFFFFF;" d="M346.491,446.252c1.48,0,2.71-0.431,3.687-1.294c0.977-0.862,1.497-1.929,1.563-3.198h5.591
		c-0.065,1.645-0.578,3.178-1.538,4.602c-0.961,1.425-2.263,2.552-3.906,3.382c-1.645,0.83-3.418,1.245-5.322,1.245
		c-3.695,0-6.625-1.196-8.789-3.589c-2.165-2.393-3.247-5.696-3.247-9.912v-0.61c0-4.02,1.074-7.238,3.223-9.656
		c2.148-2.416,5.078-3.625,8.789-3.625c3.141,0,5.7,0.916,7.679,2.746c1.977,1.832,3.015,4.236,3.112,7.215h-5.591
		c-0.065-1.514-0.582-2.759-1.551-3.735c-0.968-0.977-2.201-1.465-3.698-1.465c-1.921,0-3.402,0.696-4.443,2.087
		c-1.042,1.393-1.571,3.504-1.587,6.336v0.952c0,2.865,0.517,5.001,1.551,6.409C343.045,445.548,344.538,446.252,346.491,446.252z"
		/>
	<path style="fill:#FFFFFF;" d="M88.105,486.631h-14.6v10.938h17.065v4.932H67.329v-35.547H90.4v4.98H73.505v9.814h14.6V486.631z"/>
	<path style="fill:#FFFFFF;" d="M108.857,481.504c-0.781-0.13-1.587-0.195-2.417-0.195c-2.718,0-4.549,1.042-5.493,3.125V502.5
		h-5.933v-26.416h5.664l0.146,2.954c1.432-2.295,3.418-3.442,5.957-3.442c0.846,0,1.546,0.114,2.1,0.342L108.857,481.504z"/>
	<path style="fill:#FFFFFF;" d="M111.103,489.097c0-4.102,0.964-7.377,2.893-9.827c1.929-2.449,4.488-3.674,7.678-3.674
		c3.011,0,5.379,1.05,7.104,3.149l0.269-2.661h5.347v25.61c0,3.467-1.079,6.201-3.235,8.203c-2.157,2.002-5.066,3.003-8.728,3.003
		c-1.937,0-3.829-0.402-5.676-1.209c-1.848-0.805-3.251-1.859-4.211-3.161l2.808-3.564c1.823,2.164,4.069,3.247,6.738,3.247
		c1.969,0,3.523-0.533,4.663-1.6c1.139-1.065,1.709-2.633,1.709-4.699v-1.782c-1.709,1.904-3.988,2.856-6.836,2.856
		c-3.093,0-5.62-1.229-7.581-3.687C112.083,496.845,111.103,493.442,111.103,489.097z M117.011,489.609
		c0,2.653,0.541,4.74,1.624,6.262c1.082,1.522,2.583,2.283,4.504,2.283c2.393,0,4.167-1.025,5.322-3.076v-11.621
		c-1.123-2.002-2.881-3.003-5.273-3.003c-1.953,0-3.471,0.773-4.553,2.319C117.552,484.32,117.011,486.599,117.011,489.609z"/>
	<path style="fill:#FFFFFF;" d="M139.375,489.048c0-2.588,0.513-4.919,1.538-6.995c1.025-2.074,2.466-3.67,4.321-4.785
		c1.855-1.114,3.987-1.672,6.396-1.672c3.564,0,6.458,1.147,8.679,3.442s3.422,5.339,3.601,9.131l0.024,1.392
		c0,2.604-0.5,4.932-1.501,6.982s-2.434,3.638-4.297,4.761c-1.864,1.123-4.016,1.685-6.458,1.685c-3.728,0-6.71-1.241-8.948-3.723
		c-2.238-2.482-3.357-5.79-3.357-9.925V489.048z M145.307,489.561c0,2.719,0.562,4.846,1.685,6.385
		c1.123,1.537,2.686,2.307,4.688,2.307s3.56-0.781,4.675-2.344c1.115-1.563,1.672-3.849,1.672-6.86c0-2.669-0.574-4.785-1.721-6.348
		s-2.706-2.344-4.675-2.344c-1.937,0-3.475,0.769-4.614,2.308C145.876,484.201,145.307,486.501,145.307,489.561z"/>
	<path style="fill:#FFFFFF;" d="M188.154,489.316V502.5h-6.177v-35.547h13.599c3.971,0,7.125,1.035,9.46,3.104
		c2.335,2.069,3.503,4.807,3.503,8.212c0,3.486-1.144,6.199-3.43,8.139c-2.287,1.938-5.489,2.908-9.607,2.908H188.154z
		 M188.154,484.336h7.422c2.197,0,3.874-0.517,5.029-1.551c1.155-1.033,1.733-2.526,1.733-4.479c0-1.92-0.586-3.454-1.758-4.603
		c-1.172-1.146-2.783-1.736-4.834-1.77h-7.593V484.336z"/>
	<path style="fill:#FFFFFF;" d="M227.192,481.504c-0.781-0.13-1.587-0.195-2.417-0.195c-2.718,0-4.549,1.042-5.493,3.125V502.5
		h-5.933v-26.416h5.664l0.146,2.954c1.432-2.295,3.418-3.442,5.957-3.442c0.846,0,1.546,0.114,2.1,0.342L227.192,481.504z"/>
	<path style="fill:#FFFFFF;" d="M228.95,489.048c0-2.588,0.513-4.919,1.538-6.995c1.025-2.074,2.466-3.67,4.321-4.785
		c1.855-1.114,3.987-1.672,6.396-1.672c3.564,0,6.458,1.147,8.679,3.442s3.422,5.339,3.601,9.131l0.024,1.392
		c0,2.604-0.5,4.932-1.501,6.982s-2.434,3.638-4.297,4.761c-1.864,1.123-4.016,1.685-6.458,1.685c-3.728,0-6.71-1.241-8.948-3.723
		c-2.238-2.482-3.357-5.79-3.357-9.925V489.048z M234.882,489.561c0,2.719,0.562,4.846,1.685,6.385
		c1.123,1.537,2.686,2.307,4.688,2.307s3.56-0.781,4.675-2.344c1.115-1.563,1.672-3.849,1.672-6.86c0-2.669-0.574-4.785-1.721-6.348
		s-2.706-2.344-4.675-2.344c-1.937,0-3.475,0.769-4.614,2.308C235.452,484.201,234.882,486.501,234.882,489.561z"/>
	<path style="fill:#FFFFFF;" d="M281.66,489.561c0,4.086-0.928,7.345-2.783,9.777c-1.855,2.434-4.346,3.65-7.471,3.65
		c-2.897,0-5.217-0.952-6.958-2.856v12.524h-5.933v-36.572h5.469l0.244,2.686c1.741-2.115,4.109-3.174,7.104-3.174
		c3.223,0,5.75,1.2,7.581,3.602c1.831,2.4,2.747,5.733,2.747,9.997V489.561z M275.751,489.048c0-2.637-0.525-4.728-1.575-6.274
		c-1.05-1.546-2.551-2.319-4.504-2.319c-2.425,0-4.167,1.001-5.225,3.003v11.719c1.074,2.051,2.832,3.076,5.273,3.076
		c1.888,0,3.365-0.761,4.431-2.283C275.218,494.447,275.751,492.141,275.751,489.048z"/>
	<path style="fill:#FFFFFF;" d="M294.111,469.663v6.421h4.663v4.395h-4.663v14.746c0,1.01,0.199,1.737,0.598,2.186
		c0.398,0.447,1.111,0.671,2.136,0.671c0.684,0,1.375-0.081,2.075-0.244v4.59c-1.351,0.374-2.653,0.562-3.906,0.562
		c-4.558,0-6.836-2.515-6.836-7.544v-14.966h-4.346v-4.395h4.346v-6.421H294.111z"/>
	<path style="fill:#FFFFFF;" d="M314.936,502.988c-3.76,0-6.808-1.184-9.143-3.553c-2.336-2.367-3.503-5.521-3.503-9.46v-0.732
		c0-2.637,0.508-4.993,1.526-7.067c1.017-2.076,2.445-3.69,4.285-4.847c1.839-1.155,3.89-1.733,6.152-1.733
		c3.597,0,6.376,1.147,8.337,3.442c1.961,2.295,2.942,5.542,2.942,9.741v2.393h-17.261c0.179,2.182,0.907,3.906,2.185,5.176
		c1.277,1.27,2.885,1.904,4.822,1.904c2.718,0,4.932-1.099,6.641-3.296l3.198,3.052c-1.058,1.579-2.47,2.804-4.235,3.674
		C319.115,502.553,317.133,502.988,314.936,502.988z M314.228,480.356c-1.628,0-2.942,0.57-3.943,1.709
		c-1.001,1.14-1.64,2.727-1.917,4.761h11.304v-0.439c-0.13-1.985-0.659-3.487-1.587-4.504
		C317.158,480.865,315.872,480.356,314.228,480.356z"/>
	<path style="fill:#FFFFFF;" d="M343.965,481.504c-0.781-0.13-1.588-0.195-2.418-0.195c-2.719,0-4.549,1.042-5.492,3.125V502.5
		h-5.934v-26.416h5.664l0.146,2.954c1.432-2.295,3.418-3.442,5.957-3.442c0.846,0,1.547,0.114,2.1,0.342L343.965,481.504z"/>
	<path style="fill:#FFFFFF;" d="M388.96,502.5h-6.152v-15.771h-15.894V502.5h-6.177v-35.547h6.177v14.795h15.894v-14.795h6.152
		V502.5z"/>
	<path style="fill:#FFFFFF;" d="M394.575,489.048c0-2.588,0.513-4.919,1.538-6.995c1.025-2.074,2.466-3.67,4.321-4.785
		c1.855-1.114,3.987-1.672,6.396-1.672c3.564,0,6.458,1.147,8.679,3.442c2.223,2.295,3.422,5.339,3.602,9.131l0.024,1.392
		c0,2.604-0.501,4.932-1.501,6.982c-1.002,2.051-2.434,3.638-4.297,4.761c-1.864,1.123-4.017,1.685-6.458,1.685
		c-3.728,0-6.71-1.241-8.948-3.723c-2.237-2.482-3.356-5.79-3.356-9.925V489.048z M400.508,489.561c0,2.719,0.562,4.846,1.685,6.385
		c1.123,1.537,2.686,2.307,4.688,2.307s3.561-0.781,4.675-2.344c1.115-1.563,1.673-3.849,1.673-6.86
		c0-2.669-0.573-4.785-1.722-6.348c-1.146-1.563-2.706-2.344-4.675-2.344c-1.938,0-3.476,0.769-4.614,2.308
		C401.077,484.201,400.508,486.501,400.508,489.561z"/>
	<path style="fill:#FFFFFF;" d="M435.005,498.252c1.48,0,2.71-0.431,3.687-1.294c0.977-0.862,1.497-1.929,1.563-3.198h5.591
		c-0.065,1.645-0.578,3.178-1.538,4.602c-0.961,1.425-2.263,2.552-3.906,3.382c-1.645,0.83-3.418,1.245-5.322,1.245
		c-3.695,0-6.625-1.196-8.789-3.589c-2.165-2.393-3.247-5.696-3.247-9.912v-0.61c0-4.02,1.074-7.238,3.223-9.656
		c2.148-2.416,5.078-3.625,8.789-3.625c3.141,0,5.7,0.916,7.679,2.746c1.977,1.832,3.015,4.236,3.112,7.215h-5.591
		c-0.065-1.514-0.582-2.759-1.551-3.735c-0.968-0.977-2.201-1.465-3.698-1.465c-1.921,0-3.402,0.696-4.443,2.087
		c-1.042,1.393-1.571,3.504-1.587,6.336v0.952c0,2.865,0.517,5.001,1.551,6.409C431.559,497.548,433.052,498.252,435.005,498.252z"
		/>
</g>
<g>
	<path style="fill-rule:evenodd;clip-rule:evenodd;fill:#FCF4F9;" d="M232.458,200.127c9.975-0.101,19.95-0.215,29.925-0.296
		c4.49-0.036,8.98-0.006,13.965-0.006c0.286-2.374,0.554-4.601,0.904-7.514c3.897,2.091,7.594,4.074,11.826,6.345
		c2.288-15.261,9.467-27.032,22.751-34.581c9.377-5.329,19.563-6.61,29.962-4.53c21.221,4.244,35.884,22.783,35.033,44.18
		c-0.897,22.606-17.91,40.341-39.004,42.38c-19.1,1.847-43.761-8.716-48.877-39.974c-3.794,2.094-7.508,4.144-11.728,6.472
		c-0.22-2.663-0.392-4.745-0.611-7.406c-14.727-0.125-29.452-0.25-44.177-0.375C232.438,203.257,232.448,201.691,232.458,200.127z
		 M371.414,202.775c0.114-21.178-17.11-38.655-38.175-38.735c-20.893-0.08-38.458,17.163-38.553,37.846
		c-0.098,21.351,16.873,38.784,37.916,38.952C353.795,241.006,371.3,223.839,371.414,202.775z"/>
	<path style="fill-rule:evenodd;clip-rule:evenodd;fill:#FBF3F8;" d="M232.458,200.127c-0.01,1.564-0.02,3.13-0.029,4.694
		c-0.354,1.028-0.885,2.032-1.038,3.09c-3.109,21.591-20.257,37.407-41.556,38.278c-21.784,0.891-40.485-13.277-44.893-34.815
		c-6.039-29.506,17.296-52.038,41.384-52.713c21.639-0.607,42.338,15.301,45.124,38.853
		C231.557,198.412,232.112,199.257,232.458,200.127z M149.447,202.236c-0.045,21.198,17.168,38.559,38.271,38.597
		c21.085,0.039,38.528-17.358,38.52-38.419c-0.008-20.818-17.267-38.211-38.078-38.371
		C167.055,163.881,149.492,181.207,149.447,202.236z"/>
	<path style="fill-rule:evenodd;clip-rule:evenodd;fill:#FCF6FA;" d="M343.077,201.115c3.831,2.005,6.258,4.52,6.798,8.505
		c1.003,7.396-3.628,13.373-11.229,14.286c-1.477,0.178-2.984,0.121-4.479,0.124c-5.781,0.013-11.562,0.005-17.626,0.005
		c0-14.432,0-28.449,0-42.823c7.548,0,14.981-0.244,22.387,0.094c4.277,0.195,7.478,2.689,8.792,6.978
		c1.272,4.146,0.447,7.871-2.68,10.986C344.57,199.736,344.075,200.178,343.077,201.115z M322.167,218.491
		c0.871,0.275,1.178,0.454,1.488,0.458c2.829,0.04,5.664,0.157,8.488,0.034c2.469-0.107,5.023-0.161,7.365-0.841
		c3.197-0.928,4.495-3.403,4.365-6.998c-0.107-2.962-1.869-5.429-4.863-6.149c-5.523-1.327-11.093-0.854-16.844-0.546
		C322.167,209.479,322.167,213.935,322.167,218.491z M322.155,199.093c4.817,0,9.303,0.193,13.764-0.057
		c4.168-0.233,6.222-2.508,6.333-6.28c0.109-3.688-2.026-6.318-6.026-6.573c-4.593-0.292-9.219-0.067-14.07-0.067
		C322.155,190.469,322.155,194.411,322.155,199.093z"/>
	<path style="fill-rule:evenodd;clip-rule:evenodd;fill:#FCF6FA;" d="M184.401,181.165c2.272,0,4.245,0,6.736,0
		c5.47,13.995,10.996,28.135,16.669,42.652c-2.491,0-4.426,0-6.569,0c-1.609-4.259-3.185-8.428-4.776-12.639
		c-5.875,0-11.513,0-17.662,0c-1.534,3.976-3.126,8.102-4.837,12.537c-1.655,0-3.411,0-6.063,0
		C173.462,209.372,178.925,195.286,184.401,181.165z M194.537,205.773c-2.192-6.135-4.308-12.06-6.845-19.16
		c-2.547,7.035-4.666,12.89-6.936,19.16C185.609,205.773,189.853,205.773,194.537,205.773z"/>
</g>
</svg>
