<?xml version="1.0" encoding="UTF-8" standalone="no"?>
<svg
   xmlns:dc="http://purl.org/dc/elements/1.1/"
   xmlns:cc="http://creativecommons.org/ns#"
   xmlns:rdf="http://www.w3.org/1999/02/22-rdf-syntax-ns#"
   xmlns:svg="http://www.w3.org/2000/svg"
   xmlns="http://www.w3.org/2000/svg"
   viewBox="0 0 375 375"
   height="375"
   width="375"
   xml:space="preserve"
   version="1.1"
   id="svg2"><metadata
     id="metadata8"><rdf:RDF><cc:Work
         rdf:about=""><dc:format>image/svg+xml</dc:format><dc:type
           rdf:resource="http://purl.org/dc/dcmitype/StillImage" /></cc:Work></rdf:RDF></metadata><defs
     id="defs6"><clipPath
       id="clipPath20"
       clipPathUnits="userSpaceOnUse"><path
         id="path22"
         d="m 687.91,2709.85 c -220.269,0 -398.82,-178.56 -398.82,-398.82 l 0,0 0,-1624.46 c 0,-220.261 178.551,-398.808 398.82,-398.808 l 0,0 1624.45,0 c 220.26,0 398.82,178.547 398.82,398.808 l 0,0 0,1624.46 c 0,220.26 -178.56,398.82 -398.82,398.82 l 0,0 -1624.45,0 z" /></clipPath></defs><g
     transform="matrix(1.25,0,0,-1.25,0,375)"
     id="g10"><g
       transform="scale(0.1,0.1)"
       id="g12"><path
         id="path14"
         style="fill:#aebcc4;fill-opacity:1;fill-rule:nonzero;stroke:none"
         d="m 3000,529.855 c 0,-67.632 0,-529.85109375 -715,-529.85109375 l -1625,0 C 35,0.00390625 0,472.223 0,539.855 L 0,2399.86 c 0,545 592.352,600 660,600 l 1615,0.28 c 67.65,0 725,-0.28 725,-600.28" /><g
         id="g16"><g
           clip-path="url(#clipPath20)"
           id="g18"><path
             id="path24"
             style="fill:#ffffff;fill-opacity:1;fill-rule:evenodd;stroke:none"
             d="m 1330.48,2710.51 c -7.14,-4.76 -11.9,-11.9 -19.05,-19.05 11.91,2.38 26.19,0 35.72,2.38 9.52,0 19.04,7.15 26.18,9.53 0,0 2.38,0 4.77,-2.38 -4.77,-4.76 -11.91,-11.91 -14.29,-19.05 l 19.05,0 c 23.8,21.43 45.23,16.67 64.28,16.67 14.28,0 33.33,2.38 49.99,-7.15 -9.52,-2.38 -21.42,-4.76 -33.33,-11.9 0,0 -2.38,-2.38 4.76,-2.38 4.77,0 35.72,9.52 42.86,9.52 4.76,0 14.28,-2.38 21.42,-4.76 -2.38,-2.38 -7.14,-2.38 -9.52,-4.76 14.29,-2.38 28.57,-4.76 42.85,-9.52 l -4.76,-4.77 c 71.43,-30.94 154.75,-85.7 216.65,-166.65 19.05,-23.81 9.53,-57.14 16.67,-85.71 l 2.38,-92.84 c 0,-33.34 -7.14,-90.47 -7.14,-95.24 0,-7.14 7.14,-59.51 7.14,-64.28 0,-147.6 -109.52,-102.37 -109.52,-233.31 l 0,-99.99 c 38.1,-42.86 61.9,-107.14 116.66,-130.94 111.9,-52.38 228.55,-92.85 342.83,-147.61 66.66,-33.33 171.41,-85.71 202.36,-173.8 26.19,-73.8 50,-147.6 71.43,-221.41 38.09,-138.08 76.18,-278.54 116.65,-419.008 11.91,-42.852 40.48,-126.18 40.48,-130.942 0,-30.949 -107.14,-78.57 -126.18,-95.23 l -2.38,-395.207 c -19.05,-97.6136 -42.86,-209.5003 -66.67,-309.5 -30.95,-135.703 -71.42,-271.403 -99.99,-409.493 -4.76,-21.418 2.38,-64.281 2.38,-71.418 0,-102.371 -76.18,-292.832 -76.18,-397.582 l 0,-376.16 -61.9,-692.8 0,-42.86 c -11.9,-92.85 -30.95,-195.22 -64.28,-290.45 -7.14,-19.05 -9.52,-45.23 -11.9,-69.04 -2.39,-30.95 -7.15,-95.23 -7.15,-102.37 0,-4.77 -9.52,-90.47 -11.9,-135.71 -4.76,-40.47 -4.76,-83.32 -7.14,-126.18 -2.38,-47.61 -4.76,-95.23 -9.53,-142.84 -2.38,-21.43 -61.9,-378.54 -61.9,-464.25 0,-7.14 7.15,-47.62 7.15,-52.38 0,-7.14 -4.76,-42.85 -4.76,-49.99 0,-28.57 26.18,-73.81 45.23,-102.38 26.19,-38.09 66.66,-66.66 66.66,-102.37 0,-76.18 -152.37,-76.18 -178.56,-76.18 -69.04,0 -133.32,9.52 -199.98,23.8 -14.28,2.39 -28.57,4.77 -38.09,11.91 -35.71,19.04 -88.09,33.33 -102.37,80.94 -2.39,4.77 2.38,9.53 2.38,16.67 0,4.76 -9.53,40.47 -9.53,59.52 0,64.28 4.76,92.85 4.76,99.99 0,26.19 -54.75,64.28 -54.75,149.99 0,7.14 4.76,45.23 7.14,69.04 l 0,149.99 c 16.67,126.18 59.52,264.26 83.33,388.06 2.38,23.81 2.38,66.66 2.38,71.42 l 0,185.7 c 4.76,33.33 11.9,99.99 11.9,104.76 l -26.19,261.88 0,590.43 -45.23,549.95 c -38.09,-173.79 -80.95,-361.87 -102.37,-538.05 l 2.38,-330.92 c -4.77,-45.24 -4.77,-92.85 -16.67,-140.47 -7.14,-23.81 -23.81,-50 -30.95,-76.18 -9.52,-26.19 -14.28,-59.52 -23.81,-88.09 -9.52,-35.71 -26.18,-71.42 -26.18,-107.14 0,-61.9 23.8,-121.41 38.09,-188.08 l -23.81,-130.94 0,-54.75 -35.71,-307.12 c 2.38,-33.33 7.14,-92.85 7.14,-99.99 0,-78.57 -19.05,-161.9 -19.05,-192.85 0,-69.04 59.52,-133.32 59.52,-202.36 0,-4.76 -4.76,-30.95 -7.14,-45.23 -2.38,-7.15 -4.76,-21.43 -7.14,-33.33 0,-4.77 -4.76,-16.67 -7.14,-23.81 -9.53,-33.33 -40.48,-97.61 -40.48,-104.76 0,-4.76 9.53,-99.99 9.53,-107.13 0,-11.9 0,-30.95 -9.53,-47.61 -23.8,-38.1 -138.08,-50 -183.31,-50 -40.48,0 -223.8,2.38 -223.8,90.47 0,61.9 57.141,185.7 57.141,233.31 0,4.76 -11.898,54.76 -11.898,83.33 -4.762,76.18 -28.571,152.37 -52.383,228.55 -9.52,28.57 -9.52,61.9 -11.899,90.47 -4.761,47.62 -7.14,95.23 -9.519,142.85 l -16.672,307.11 0,542.82 c 2.383,7.14 2.383,14.28 2.383,21.42 -4.762,33.33 33.328,76.19 33.328,107.14 0,28.57 -23.809,59.52 -49.988,90.47 -9.532,11.9 -40.481,97.61 -40.481,121.41 l 0,45.24 21.43,190.46 c 0,85.71 -2.379,116.66 -7.141,288.07 0,2.38 2.379,57.14 4.762,371.4 l 4.758,328.54 c -16.661,71.43 -28.571,147.61 -47.61,219.032 -28.57,109.519 -71.429,216.648 -95.238,323.789 -16.66,78.5582 -26.184,159.5113 -35.711,238.07 -7.141,54.762 -7.141,111.898 -14.281,164.269 -9.52,69.051 -23.809,140.469 -35.711,209.512 -28.57,14.289 -64.277,30.949 -95.231,47.617 -47.617,21.422 -97.609,45.231 -147.609,71.422 l 0,4.758 c 0,4.762 19.051,66.66 26.191,95.231 57.141,209.511 147.61,421.39 228.551,628.52 28.571,78.57 145.231,157.13 209.508,180.94 97.609,35.71 197.6,83.32 295.21,128.56 7.14,2.38 4.76,14.28 7.14,19.04 9.53,11.91 21.43,28.57 33.33,40.48 33.34,30.95 76.19,19.04 76.19,66.66 0,7.14 0,9.52 -2.38,14.28 -59.52,38.1 -78.57,114.28 -90.47,164.28 -7.14,30.95 -21.43,59.51 -28.57,88.08 -9.52,38.1 -9.52,80.95 -26.19,119.04 0,4.76 -66.66,99.99 -66.66,121.42 l 0,233.31 c 9.52,38.1 54.76,54.76 85.71,80.95 4.76,4.76 7.14,11.9 9.52,19.05 4.76,11.9 28.57,45.23 47.62,42.85 -7.15,-7.14 -16.67,-19.05 -16.67,-26.19 l 0,-11.9 4.76,-4.76 c 21.43,11.9 19.05,52.37 54.76,57.13 0,-2.38 -4.76,-7.14 -2.38,-11.9 9.52,11.9 26.19,33.33 33.33,33.33 4.76,0 2.38,-4.76 4.76,-7.14 2.38,11.9 19.05,19.04 30.95,21.43 0,-7.15 -2.38,-14.29 0,-21.43 14.29,11.9 30.95,26.19 47.62,35.71 l 11.9,0 z M 2201.84,344.039 c 0,-50 -19.05,-111.898 -26.19,-166.66 l 2.38,-371.387 c -2.38,-16.672 -9.52,-35.711 -11.9,-54.762 -4.77,-23.808 -4.77,-54.757 -7.15,-83.328 -2.38,0 -7.14,-2.382 -9.52,-2.382 0,9.519 0,23.812 -4.76,30.953 -4.76,16.668 -21.43,45.238 -21.43,50 0,7.136 7.14,16.656 7.14,23.808 0,4.758 -21.42,28.559 -21.42,33.328 0,7.141 7.14,21.422 9.52,30.953 l -2.38,59.508 c 42.85,54.762 33.33,109.51984 47.61,161.9027 l 0,61.8983 c -7.14,38.09 -23.8,97.609 -23.8,140.461 l 7.14,76.18 c -2.38,23.808 -11.9,69.051 -11.9,73.808 0,7.141 2.38,4.762 2.38,7.141 14.28,2.379 16.66,26.191 23.8,35.711 7.15,7.141 21.43,11.91 30.95,16.668 4.77,-40.481 9.53,-116.66 9.53,-123.801 m -1309.418,2.383 c 0,-11.91 14.289,-23.813 16.668,-40.473 4.762,-19.047 7.14,-61.898 7.14,-69.047 0,-4.761 -9.519,-76.179 -9.519,-83.32 0,-4.762 21.422,-40.48 21.422,-47.621 l 0,-85.711 c 9.527,-26.17969 38.09,-80.9375 38.09,-111.8906 0,-7.1367 -7.141,-38.0894 -7.141,-45.2384 0,-4.762 16.668,-45.23 16.668,-52.371 0,-4.758 -19.051,-83.328 -19.051,-88.09 0,-7.14 16.672,-61.898 16.672,-69.039 0,-11.91 -4.769,-23.809 -23.808,-35.711 -4.762,35.711 -9.524,73.801 -14.293,107.129 -9.52,78.57 -16.661,161.891 -28.559,240.461 -9.531,76.1797 -42.859,199.98 -42.859,280.93 l 0,52.371 c 7.14,26.191 9.519,54.762 11.91,83.332 l 0,64.277 c 2.379,2.379 7.14,4.762 11.898,9.52 2.379,-11.899 -2.379,-26.188 4.762,-109.508" /></g></g><path
         id="path26"
         style="fill:#080828;fill-opacity:1;fill-rule:nonzero;stroke:none"
         d="m 1275.36,301 57.58,0 -18.71,323.438 -76.78,0 -44.64,-129.563 c -12.47,-37.922 -23.5,-77.75 -32.14,-112.781 l -1.44,0 c -8.15,36 -18.23,74.39 -29.76,112.297 l -42.22,130.047 -77.75,0 L 987.906,301 l 55.184,0 7.21,130.047 c 2.4,44.141 4.31,95.5 5.76,137.719 l 0.96,0 c 8.64,-40.313 20.15,-84.453 32.62,-125.719 l 43.19,-138.203 45.59,0 47.03,140.125 c 14.39,40.781 27.83,84.453 38.39,123.797 l 1.44,0 c -0.48,-43.672 1.92,-94.047 3.85,-135.797 L 1275.36,301" /><path
         id="path28"
         style="fill:#080828;fill-opacity:1;fill-rule:nonzero;stroke:none"
         d="m 1615.25,357.141 c -15.36,-7.188 -40.31,-11.985 -64.3,-11.985 -71.03,0 -112.78,45.578 -112.78,116.61 0,77.734 47.52,119 113.27,119 26.86,0 47.98,-5.75 63.33,-12.469 l 12.96,47.016 c -12,6.25 -39.82,14.406 -78.7,14.406 -98.86,0 -172.75,-64.313 -172.75,-170.844 0,-98.375 62.38,-162.672 165.08,-162.672 38.86,0 69.58,7.203 83.48,14.391 l -9.59,46.547" /><path
         id="path30"
         style="fill:#080828;fill-opacity:1;fill-rule:nonzero;stroke:none"
         d="m 1674.59,624.438 0,-185.235 c 0,-101.734 48.47,-143.484 123.33,-143.484 77.74,0 129.08,44.156 129.08,143.969 l 0,184.75 -59.02,0 0,-188.594 c 0,-63.344 -25.43,-92.61 -68.14,-92.61 -39.82,0 -66.23,29.266 -66.23,92.61 l 0,188.594 -59.02,0" /></g></g></svg>