<?xml version="1.0" encoding="iso-8859-1"?>
<!-- Generator: Adobe Illustrator 16.0.3, SVG Export Plug-In . SVG Version: 6.00 Build 0)  -->
<!DOCTYPE svg PUBLIC "-//W3C//DTD SVG 1.1//EN" "http://www.w3.org/Graphics/SVG/1.1/DTD/svg11.dtd">
<svg version="1.1" id="Ebene_1" xmlns="http://www.w3.org/2000/svg" xmlns:xlink="http://www.w3.org/1999/xlink" x="0px" y="0px"
	 width="518px" height="518px" viewBox="0 0 518 518" style="enable-background:new 0 0 518 518;" xml:space="preserve">
<path style="fill-rule:evenodd;clip-rule:evenodd;fill:#CE2228;" d="M518,512c0,3.313-2.017,6-4.505,6H4.505
	C2.018,518,0,515.313,0,512V6c0-3.313,2.017-6,4.504-6h508.99C515.983,0,518,2.687,518,6V512z"/>
<g>
	<g id="XMLID_1_">
		<g>
			<path style="fill:#CE2228;" d="M419.679,200.93c0.57,87.61-71.08,160.28-160.37,160.66c-88.46,0.38-160.09-70.49-161.13-160.5
				c0.91-91.88,75.04-160.51,160.47-160.72C346.899,40.14,419.099,111.9,419.679,200.93z"/>
			<path style="fill:#FCFBFB;" d="M98.179,201.09c1.04,90.01,72.67,160.88,161.13,160.5c89.29-0.38,160.94-73.05,160.37-160.66
				c-0.58-89.03-72.779-160.79-161.03-160.56C173.219,40.58,99.089,109.21,98.179,201.09z M254.709,376.09
				c-94.72-2.21-173.28-81.439-170.77-179.76c2.41-94.42,80.57-170.87,175.1-170.34c96.51-0.58,177.17,79.81,175.04,178.93
				C432.039,300.08,352.519,378.37,254.709,376.09z"/>
		</g>
		<g>
		</g>
	</g>
</g>
<g>
	<rect x="-7.001" y="413" style="fill-rule:evenodd;clip-rule:evenodd;fill:none;" width="525.002" height="106"/>
	<path style="fill:#FFFFFF;" d="M127.521,441.345c0-1.563-0.549-2.767-1.648-3.613c-1.099-0.846-3.081-1.7-5.945-2.563
		c-2.865-0.862-5.144-1.822-6.836-2.881c-3.239-2.034-4.858-4.688-4.858-7.959c0-2.864,1.167-5.225,3.503-7.08
		c2.335-1.855,5.367-2.783,9.094-2.783c2.474,0,4.679,0.456,6.616,1.367c1.937,0.912,3.458,2.209,4.565,3.895
		c1.106,1.684,1.66,3.552,1.66,5.603h-6.152c0-1.855-0.582-3.308-1.746-4.358c-1.164-1.049-2.828-1.574-4.993-1.574
		c-2.019,0-3.585,0.432-4.7,1.294c-1.115,0.863-1.672,2.067-1.672,3.613c0,1.303,0.602,2.389,1.807,3.259
		c1.204,0.871,3.19,1.718,5.957,2.539c2.767,0.822,4.988,1.758,6.665,2.809c1.676,1.049,2.905,2.254,3.687,3.613
		c0.781,1.358,1.172,2.95,1.172,4.772c0,2.963-1.135,5.318-3.406,7.067c-2.271,1.75-5.351,2.625-9.241,2.625
		c-2.572,0-4.936-0.477-7.092-1.428c-2.157-0.953-3.833-2.267-5.029-3.943c-1.196-1.676-1.794-3.629-1.794-5.859h6.177
		c0,2.019,0.667,3.581,2.002,4.688c1.334,1.107,3.247,1.66,5.737,1.66c2.148,0,3.764-0.436,4.846-1.307
		C126.98,443.929,127.521,442.777,127.521,441.345z"/>
	<path style="fill:#FFFFFF;" d="M149.396,446.252c1.481,0,2.71-0.431,3.687-1.294c0.977-0.862,1.497-1.929,1.563-3.198h5.591
		c-0.065,1.645-0.578,3.178-1.538,4.602c-0.96,1.425-2.263,2.552-3.906,3.382c-1.644,0.83-3.418,1.245-5.322,1.245
		c-3.695,0-6.625-1.196-8.789-3.589c-2.165-2.393-3.247-5.696-3.247-9.912v-0.61c0-4.02,1.074-7.238,3.223-9.656
		c2.148-2.416,5.078-3.625,8.789-3.625c3.141,0,5.701,0.916,7.678,2.746c1.978,1.832,3.015,4.236,3.113,7.215h-5.591
		c-0.065-1.514-0.582-2.759-1.55-3.735c-0.969-0.977-2.202-1.465-3.699-1.465c-1.921,0-3.402,0.696-4.443,2.087
		c-1.042,1.393-1.571,3.504-1.587,6.336v0.952c0,2.865,0.517,5.001,1.55,6.409C145.95,445.548,147.443,446.252,149.396,446.252z"/>
	<path style="fill:#FFFFFF;" d="M170.563,426.965c1.937-2.246,4.386-3.369,7.349-3.369c5.631,0,8.488,3.215,8.569,9.644V450.5
		h-5.933v-17.041c0-1.822-0.395-3.113-1.184-3.869c-0.79-0.758-1.949-1.136-3.479-1.136c-2.376,0-4.15,1.059-5.322,3.174V450.5
		h-5.933V413h5.933V426.965z"/>
	<path style="fill:#FFFFFF;" d="M198.054,424.084l0.171,2.759c1.855-2.164,4.395-3.247,7.617-3.247c3.532,0,5.949,1.352,7.251,4.053
		c1.92-2.701,4.622-4.053,8.105-4.053c2.913,0,5.082,0.806,6.506,2.417c1.424,1.611,2.152,3.988,2.185,7.129V450.5h-5.933v-17.188
		c0-1.676-0.366-2.905-1.099-3.687s-1.945-1.172-3.638-1.172c-1.351,0-2.454,0.362-3.308,1.087
		c-0.854,0.724-1.453,1.672-1.794,2.844l0.024,18.115h-5.933v-17.383c-0.082-3.108-1.668-4.663-4.761-4.663
		c-2.376,0-4.061,0.969-5.054,2.905V450.5h-5.933v-26.416H198.054z"/>
	<path style="fill:#FFFFFF;" d="M247.614,450.988c-3.76,0-6.808-1.184-9.143-3.553c-2.336-2.367-3.503-5.521-3.503-9.46v-0.732
		c0-2.637,0.508-4.993,1.526-7.067c1.017-2.076,2.445-3.69,4.285-4.847c1.839-1.155,3.89-1.733,6.152-1.733
		c3.597,0,6.376,1.147,8.337,3.442c1.961,2.295,2.942,5.542,2.942,9.741v2.393h-17.261c0.179,2.182,0.907,3.906,2.185,5.176
		c1.277,1.27,2.885,1.904,4.822,1.904c2.718,0,4.932-1.099,6.641-3.296l3.198,3.052c-1.058,1.579-2.47,2.804-4.236,3.674
		C251.793,450.553,249.812,450.988,247.614,450.988z M246.906,428.356c-1.628,0-2.942,0.57-3.943,1.709
		c-1.001,1.14-1.64,2.727-1.917,4.761h11.304v-0.439c-0.13-1.985-0.659-3.487-1.587-4.504
		C249.836,428.865,248.55,428.356,246.906,428.356z"/>
	<path style="fill:#FFFFFF;" d="M262.824,417.224c0-0.911,0.289-1.668,0.867-2.271c0.578-0.602,1.404-0.903,2.478-0.903
		s1.904,0.302,2.49,0.903c0.586,0.603,0.879,1.359,0.879,2.271c0,0.896-0.293,1.64-0.879,2.233c-0.586,0.595-1.416,0.892-2.49,0.892
		s-1.9-0.297-2.478-0.892C263.113,418.863,262.824,418.119,262.824,417.224z M269.123,450.5h-5.933v-26.416h5.933V450.5z"/>
	<path style="fill:#FFFFFF;" d="M286.433,446.252c1.481,0,2.71-0.431,3.687-1.294c0.977-0.862,1.497-1.929,1.563-3.198h5.591
		c-0.065,1.645-0.578,3.178-1.538,4.602c-0.96,1.425-2.263,2.552-3.906,3.382c-1.644,0.83-3.418,1.245-5.322,1.245
		c-3.695,0-6.625-1.196-8.789-3.589c-2.165-2.393-3.247-5.696-3.247-9.912v-0.61c0-4.02,1.074-7.238,3.223-9.656
		c2.148-2.416,5.078-3.625,8.789-3.625c3.141,0,5.701,0.916,7.678,2.746c1.978,1.832,3.015,4.236,3.113,7.215h-5.591
		c-0.065-1.514-0.582-2.759-1.55-3.735c-0.969-0.977-2.202-1.465-3.699-1.465c-1.921,0-3.402,0.696-4.443,2.087
		c-1.042,1.393-1.571,3.504-1.587,6.336v0.952c0,2.865,0.517,5.001,1.55,6.409C282.986,445.548,284.479,446.252,286.433,446.252z"/>
	<path style="fill:#FFFFFF;" d="M307.6,426.965c1.937-2.246,4.386-3.369,7.349-3.369c5.631,0,8.488,3.215,8.569,9.644V450.5h-5.933
		v-17.041c0-1.822-0.395-3.113-1.184-3.869c-0.79-0.758-1.949-1.136-3.479-1.136c-2.376,0-4.15,1.059-5.322,3.174V450.5h-5.933V413
		h5.933V426.965z"/>
	<path style="fill:#FFFFFF;" d="M341.145,450.988c-3.76,0-6.808-1.184-9.144-3.553c-2.336-2.367-3.503-5.521-3.503-9.46v-0.732
		c0-2.637,0.509-4.993,1.525-7.067c1.018-2.076,2.445-3.69,4.285-4.847c1.839-1.155,3.89-1.733,6.152-1.733
		c3.597,0,6.376,1.147,8.337,3.442c1.962,2.295,2.942,5.542,2.942,9.741v2.393h-17.261c0.179,2.182,0.907,3.906,2.186,5.176
		c1.277,1.27,2.884,1.904,4.821,1.904c2.718,0,4.932-1.099,6.641-3.296l3.198,3.052c-1.059,1.579-2.47,2.804-4.236,3.674
		C345.323,450.553,343.342,450.988,341.145,450.988z M340.437,428.356c-1.628,0-2.941,0.57-3.943,1.709
		c-1,1.14-1.64,2.727-1.916,4.761h11.304v-0.439c-0.131-1.985-0.659-3.487-1.587-4.504
		C343.366,428.865,342.08,428.356,340.437,428.356z"/>
	<path style="fill:#FFFFFF;" d="M362.653,450.5h-5.933V413h5.933V450.5z"/>
	<path style="fill:#FFFFFF;" d="M380.744,450.988c-3.76,0-6.808-1.184-9.144-3.553c-2.335-2.367-3.503-5.521-3.503-9.46v-0.732
		c0-2.637,0.509-4.993,1.526-7.067c1.017-2.076,2.444-3.69,4.284-4.847c1.839-1.155,3.89-1.733,6.152-1.733
		c3.597,0,6.376,1.147,8.337,3.442c1.962,2.295,2.942,5.542,2.942,9.741v2.393h-17.261c0.179,2.182,0.907,3.906,2.186,5.176
		c1.277,1.27,2.884,1.904,4.821,1.904c2.718,0,4.932-1.099,6.641-3.296l3.198,3.052c-1.059,1.579-2.47,2.804-4.236,3.674
		C384.923,450.553,382.941,450.988,380.744,450.988z M380.036,428.356c-1.628,0-2.941,0.57-3.943,1.709
		c-1,1.14-1.64,2.727-1.916,4.761h11.304v-0.439c-0.131-1.985-0.659-3.487-1.587-4.504
		C382.966,428.865,381.68,428.356,380.036,428.356z"/>
	<path style="fill:#FFFFFF;" d="M395.954,417.224c0-0.911,0.289-1.668,0.866-2.271c0.578-0.602,1.404-0.903,2.479-0.903
		s1.904,0.302,2.49,0.903c0.586,0.603,0.879,1.359,0.879,2.271c0,0.896-0.293,1.64-0.879,2.233c-0.586,0.595-1.416,0.892-2.49,0.892
		s-1.9-0.297-2.479-0.892C396.243,418.863,395.954,418.119,395.954,417.224z M402.253,450.5h-5.933v-26.416h5.933V450.5z"/>
</g>
<path style="fill-rule:evenodd;clip-rule:evenodd;fill:#FEFDFD;" d="M197.244,83.041c14.276,1.489,26.82,3.111,39.415,4.044
	c23.466,1.738,46.834,0.412,70.192-2.444c13.041-1.595,26.199-1.861,39.107,2.111c4.8,1.478,7.653,4.312,7.979,9.021
	c0.604,8.741,1.873,17.673,0.765,26.254c-4.434,34.308-9.59,68.522-14.664,102.745c-1.582,10.673-5.701,20.479-11.885,29.347
	c-10.66,15.287-21.334,30.565-32.131,45.755c-2.4,3.376-5.13,6.578-8.068,9.499c-15.204,15.113-40.59,15.202-55.901,0.239
	c-2.611-2.552-5.168-5.243-7.277-8.207c-11.384-15.995-22.649-32.075-33.894-48.17c-9.404-13.46-11.5-29.195-13.714-44.863
	c-3.935-27.835-7.779-55.684-11.719-83.518c-1.362-9.625-1.575-19.184,0.435-28.769c1.016-4.847,3.155-8.398,8.364-9.272
	C182.398,85.443,190.56,84.134,197.244,83.041z M227.872,246.002c3.772,15.767,11.266,23.512,23.878,25.027
	c22.527,2.707,47.029-16.94,49.588-39.866c-12.631,6.406-25.01,13.226-37.883,18.931c-4.698,2.082-10.722,2.6-15.87,1.883
	C241.01,251.061,234.709,248.173,227.872,246.002z M324.976,171.658c-8.362-9.482-18.012-14.135-30.344-10.772
	c-6.365,1.735-12.037,4.569-14.052,12.439C295.781,177.039,310.201,175.499,324.976,171.658z M194.455,171.703
	c14.97,3.662,29.334,5.527,43.986,1.588c-1.32-6.379-5.671-10.334-13.273-12.377C212.897,157.617,203.172,161.94,194.455,171.703z
	 M187.474,149.262c0.543-0.234,1.159-0.371,1.619-0.716c15.595-11.701,33.604-15.208,52.553-15.447
	c5.129-0.064,7.977-2.178,7.765-6.143c-0.211-3.957-3.377-6.471-8.377-5.104c-11.143,3.045-22.337,6.19-33.034,10.482
	C199.728,135.653,192.584,141.287,187.474,149.262z M333.013,149.088c-0.063-0.698,0.01-1.068-0.134-1.312
	c-9.767-16.584-44.094-23.784-59.614-12.329c-1.432,1.057-2.457,3.672-2.358,5.493c0.087,1.605,1.779,4.105,3.176,4.431
	c2.153,0.5,4.873-0.039,6.983-0.972c17.936-7.933,35.33-10.924,51.102,4.634C332.253,149.116,332.473,149.06,333.013,149.088z"/>
</svg>
