<svg xmlns="http://www.w3.org/2000/svg" xmlns:xlink="http://www.w3.org/1999/xlink" width="300" height="300" viewBox="0 0 300 300"><switch><g><symbol id="a" viewBox="-150 -150 300 300.015"><path fill="#AEBCC4" d="M150-97.015c0-6.763 0-52.985-71.5-52.985H-84c-62.5 0-66 47.223-66 53.985v186c0 54.5 59.235 60 66 60l161.5.029c6.765 0 72.5-.029 72.5-60.029v-187z"/></symbol><use xlink:href="#a" width="300" height="300.015" x="-150" y="-150" transform="matrix(1 0 0 -1 150 150)" overflow="visible"/><g fill="#080828"><path d="M133.242 219.341c0 8.593-6.048 12.434-12.001 12.434-6.625 0-11.713-4.561-11.713-12.05 0-7.68 5.041-12.385 12.097-12.385 6.961 0 11.617 4.896 11.617 12.001zm-17.617.24c0 4.513 2.208 7.921 5.808 7.921 3.36 0 5.713-3.313 5.713-8.017 0-3.648-1.632-7.825-5.665-7.825-4.176 0-5.856 4.032-5.856 7.921zM141.449 207.868l3.792 11.856c.672 2.064 1.152 3.937 1.584 5.857h.144c.432-1.921.96-3.745 1.584-5.857l3.697-11.856h6.24l-8.929 23.378h-5.809l-8.689-23.378h6.386zM165.642 221.213c.144 4.225 3.456 6.049 7.2 6.049 2.736 0 4.705-.384 6.48-1.056l.864 4.08c-2.016.816-4.8 1.44-8.16 1.44-7.585 0-12.05-4.657-12.05-11.81 0-6.48 3.937-12.577 11.426-12.577 7.584 0 10.08 6.24 10.08 11.377 0 1.104-.096 1.969-.191 2.496h-15.649zm10.272-4.128c.049-2.16-.912-5.713-4.848-5.713-3.648 0-5.185 3.313-5.425 5.713h10.273zM186.232 215.404c0-3.168-.048-5.424-.191-7.536h5.136l.192 4.464h.192c1.151-3.312 3.888-4.992 6.384-4.992.576 0 .912.048 1.393.145v5.568a8.145 8.145 0 0 0-1.729-.192c-2.832 0-4.752 1.824-5.28 4.465a10.12 10.12 0 0 0-.191 1.824v12.097h-5.905v-15.843zM64.914 273.821c1.344.816 3.888 1.681 6 1.681 2.592 0 3.744-1.057 3.744-2.593 0-1.584-.96-2.399-3.84-3.408-4.561-1.584-6.48-4.08-6.433-6.816 0-4.128 3.408-7.345 8.833-7.345 2.592 0 4.848.672 6.192 1.393l-1.152 4.176c-1.008-.576-2.88-1.344-4.945-1.344-2.112 0-3.264 1.008-3.264 2.448 0 1.488 1.104 2.208 4.081 3.265 4.224 1.536 6.192 3.696 6.24 7.152 0 4.225-3.312 7.297-9.505 7.297-2.832 0-5.376-.673-7.104-1.633l1.153-4.273zM85.218 245.163h5.952v13.921h.096a7.922 7.922 0 0 1 2.928-2.688c1.152-.673 2.544-1.057 4.032-1.057 3.984 0 8.161 2.641 8.161 10.129v13.777h-5.904V266.14c0-3.408-1.248-5.952-4.512-5.952-2.304 0-3.937 1.536-4.561 3.313-.192.479-.24 1.104-.24 1.776v13.969h-5.952v-34.083zM134.899 267.341c0 8.593-6.048 12.434-12.001 12.434-6.625 0-11.713-4.561-11.713-12.05 0-7.68 5.041-12.385 12.097-12.385 6.961 0 11.617 4.896 11.617 12.001zm-17.617.24c0 4.513 2.208 7.921 5.808 7.921 3.36 0 5.713-3.313 5.713-8.017 0-3.648-1.632-7.825-5.665-7.825-4.176 0-5.856 4.032-5.856 7.921zM160.675 272.237c0 2.784.096 5.089.192 7.009h-5.185l-.288-3.553h-.097c-1.008 1.681-3.312 4.081-7.488 4.081-4.272 0-8.161-2.545-8.161-10.177v-13.729h5.904v12.721c0 3.889 1.249 6.385 4.369 6.385 2.352 0 3.889-1.68 4.513-3.168a5.39 5.39 0 0 0 .336-1.824v-14.113h5.904v16.368zM167.056 245.163h5.953v34.083h-5.953v-34.083zM200.944 245.163v27.507c0 2.399.097 4.992.192 6.576h-5.28l-.24-3.696h-.096c-1.393 2.592-4.225 4.225-7.633 4.225-5.568 0-9.985-4.753-9.985-11.953-.048-7.825 4.849-12.481 10.466-12.481 3.216 0 5.521 1.345 6.576 3.072h.096v-13.249h5.904zm-5.904 20.45a8.31 8.31 0 0 0-.144-1.536c-.528-2.305-2.4-4.177-5.089-4.177-3.792 0-5.904 3.36-5.904 7.729 0 4.272 2.112 7.393 5.856 7.393 2.4 0 4.513-1.632 5.089-4.176.144-.528.191-1.104.191-1.729v-3.504zM211.455 269.213c.144 4.225 3.456 6.049 7.2 6.049 2.736 0 4.705-.384 6.48-1.056l.864 4.08c-2.016.816-4.8 1.44-8.16 1.44-7.585 0-12.05-4.657-12.05-11.81 0-6.48 3.937-12.577 11.426-12.577 7.584 0 10.08 6.24 10.08 11.377 0 1.104-.096 1.969-.191 2.496h-15.649zm10.273-4.128c.048-2.16-.912-5.713-4.848-5.713-3.648 0-5.185 3.313-5.425 5.713h10.273zM232.046 263.404c0-3.168-.048-5.424-.191-7.536h5.136l.192 4.464h.192c1.151-3.312 3.888-4.992 6.384-4.992.576 0 .912.048 1.393.145v5.568a8.145 8.145 0 0 0-1.729-.192c-2.832 0-4.752 1.824-5.28 4.465a10.12 10.12 0 0 0-.191 1.824v12.097h-5.905v-15.843z"/></g><path fill="#FFF" d="M269 193.667s2.77-42.718-16.891-59.648c0 0-9.743-6.51-10.923-7.1-9.83-4.915-17.476-4.369-19.66-9.284 0 0-3.823-.911-3.823-11.287 0 0 15.292-14.199 3.277-34.223 0 0-18.934-17.476-33.313.182-2.552 6.183-10.377 19.842 7.827 36.226 0 0 1.457 3.641-1.82 12.379 0 0-4.836 5.96-20.674 11.421-15.923 5.491-26.079 31.816-29.023 60.667l125.023.667z"/><path fill="#080828" d="M32.14 144.237l12.167-1.104c21.299-2.03 30.693-8.133 38.026-14.8 0 0 4.571-2.105 4.571-21.374 0 0-28.398-26.37-6.085-63.556 0 0 35.158-32.455 61.866.337 4.737 11.482 19.27 36.849-14.537 67.275 0 0-2.705 6.76 3.38 22.988 0 0 10.233 17.028 39.471 27.662 14.666 5.334 36.666 34 21.244 32.865-32.554-2.396-134.957-6.705-161.78-9.221-11.425-1.069-7.89-35.15 1.677-41.072z"/></g></switch></svg>