<svg xmlns="http://www.w3.org/2000/svg" xmlns:xlink="http://www.w3.org/1999/xlink" width="300" height="300" viewBox="0 0 300 300"><switch><g><symbol id="a" viewBox="-150 -150 300 300.015"><path fill="#AEBCC4" d="M150-97.015c0-6.763 0-52.985-71.5-52.985H-84c-62.5 0-66 47.223-66 53.985v186c0 54.5 59.235 60 66 60l161.5.029c6.765 0 72.5-.029 72.5-60.029v-187z"/></symbol><use xlink:href="#a" width="300" height="300.015" x="-150" y="-150" transform="matrix(1 0 0 -1 150 151)" overflow="visible"/><g fill="#080828"><path d="M55.168 220.694h5.952v34.083h-5.952v-34.083zM89.729 242.872c0 8.593-6.048 12.434-12.001 12.434-6.625 0-11.713-4.561-11.713-12.05 0-7.68 5.041-12.385 12.097-12.385 6.961 0 11.617 4.897 11.617 12.001zm-17.617.24c0 4.513 2.208 7.921 5.808 7.921 3.36 0 5.713-3.313 5.713-8.017 0-3.648-1.632-7.825-5.665-7.825-4.176 0-5.856 4.033-5.856 7.921zM94.576 238.36c0-2.688-.048-4.945-.192-6.961h5.185l.288 3.504H100c1.008-1.824 3.552-4.032 7.44-4.032 4.081 0 8.305 2.641 8.305 10.033v13.873h-5.904v-13.201c0-3.36-1.248-5.904-4.464-5.904-2.352 0-3.984 1.68-4.608 3.456-.192.528-.24 1.248-.24 1.92v13.729h-5.952V238.36zM143.393 231.399c-.096 1.584-.192 3.504-.192 6.721v13.249c0 4.896-1.008 8.4-3.456 10.608-2.448 2.16-5.809 2.833-9.025 2.833-2.976 0-6.145-.624-8.161-1.872l1.296-4.465c1.488.864 3.984 1.776 6.816 1.776 3.84 0 6.721-2.017 6.721-7.057v-2.017h-.096c-1.344 2.064-3.744 3.457-6.816 3.457-5.809 0-9.937-4.801-9.937-11.426 0-7.681 4.992-12.337 10.609-12.337 3.552 0 5.665 1.729 6.769 3.648h.096l.24-3.12h5.136zm-6.097 9.361c0-.527-.048-1.104-.192-1.584-.624-2.16-2.304-3.792-4.801-3.792-3.312 0-5.76 2.88-5.76 7.633 0 3.984 2.016 7.2 5.712 7.2 2.208 0 4.128-1.44 4.8-3.552.144-.624.24-1.44.24-2.112v-3.793zM166.238 224.727v6.673h5.617v4.416h-5.617v10.321c0 2.832.769 4.32 3.024 4.32a8.76 8.76 0 0 0 2.304-.288l.097 4.513c-.864.336-2.4.576-4.272.576-2.16 0-3.984-.721-5.088-1.921-1.248-1.344-1.824-3.456-1.824-6.528v-10.993h-3.361V231.4h3.361v-5.28l5.759-1.393zM189.471 254.777l-.384-2.592h-.145c-1.439 1.824-3.888 3.12-6.912 3.12-4.704 0-7.345-3.408-7.345-6.961 0-5.904 5.232-8.881 13.873-8.833v-.384c0-1.536-.624-4.08-4.752-4.08-2.305 0-4.705.72-6.289 1.728l-1.152-3.84c1.729-1.057 4.753-2.064 8.449-2.064 7.488 0 9.648 4.753 9.648 9.841v8.449c0 2.112.097 4.176.336 5.616h-5.327zm-.768-11.424c-4.177-.097-8.161.815-8.161 4.368 0 2.305 1.488 3.36 3.36 3.36 2.353 0 4.08-1.536 4.608-3.216a4.25 4.25 0 0 0 .192-1.297v-3.215zM206.606 241.672h.096c.576-.912 1.248-1.92 1.872-2.736l5.664-7.536h7.105l-8.642 9.553 9.89 13.825h-7.249l-6.721-10.321-2.016 2.353v7.969H200.7v-34.083h5.905v20.976zM228.974 244.744c.144 4.225 3.456 6.049 7.2 6.049 2.736 0 4.705-.384 6.48-1.056l.864 4.08c-2.016.816-4.8 1.44-8.16 1.44-7.585 0-12.05-4.657-12.05-11.81 0-6.48 3.937-12.577 11.426-12.577 7.584 0 10.08 6.24 10.08 11.377 0 1.104-.096 1.969-.191 2.496h-15.649zm10.272-4.128c.049-2.16-.912-5.713-4.848-5.713-3.648 0-5.185 3.313-5.425 5.713h10.273z"/></g><path fill="#C1272D" d="M219 30.333l-2.332 50L171 101s15.334 34.667 54.667 28.667c0 0 32.001-3.729 40.667-37.333 0 0 5.999-28.667-13.334-46 0-.001-12.667-18.001-34-16.001z"/><path d="M32 118h136v83H32zM31.169 113.85l127.033-45.053-5.908-18.464L26 95.386z"/><path fill="#FFF" d="M53.88 121.668L59.235 136h8.494l-4.802-14.368zM73.453 121.51L78.807 136h8.494L82.5 121.553zM34.309 121.51L39.663 136h8.494l-4.802-14.447zM132.168 121.668L137.522 136h8.494l-4.802-14.368zM151.74 121.51l5.355 14.49h8.493l-4.801-14.447zM112.596 121.51l5.355 14.49h8.494l-4.801-14.447zM93.024 121.51L98.378 136h8.495l-4.802-14.447zM50.961 104.533l.373-14.867 7.999-2.859.237 14.929zM69.446 98.095l.319-15.016 7.998-2.859.264 15.005zM32.585 111.268l.319-15.017 7.999-2.858.262 15.005zM124.682 78.186l.373-14.868 7.999-2.858.237 14.929zM143.167 71.748l.319-15.016 7.997-2.858.265 15.004zM106.305 84.922l.321-15.017 7.998-2.858.264 15.004zM87.876 91.509l.319-15.017 7.999-2.859.263 15.005z"/><path fill="none" stroke="#FFF" stroke-width="2" stroke-miterlimit="10" d="M157 163H87M157 172H87"/><circle fill="none" stroke="#FFF" stroke-width="2" stroke-miterlimit="10" cx="216.667" cy="80" r="50.333"/><circle fill="none" stroke="#FFF" stroke-width="2" stroke-miterlimit="10" cx="216.667" cy="80" r="50.333"/><circle fill="none" stroke="#FFF" stroke-width="2" stroke-miterlimit="10" cx="216.668" cy="79.999" r="50.333"/><path fill="none" stroke="#FFF" stroke-miterlimit="10" d="M215.5 31v7"/><path fill="none" stroke="#FFF" stroke-width="1.477" stroke-miterlimit="10" d="M191.605 36.35l4.362 7.554"/><path fill="none" stroke="#FFF" stroke-width="1.366" stroke-miterlimit="10" d="M174.229 55.359l6.463 3.731"/><path fill="none" stroke="#FFF" stroke-miterlimit="10" d="M168 80.5h7"/><path fill="none" stroke="#FFF" stroke-width="1.413" stroke-miterlimit="10" d="M173.669 104.825l6.914-3.992"/><path fill="none" stroke="#FFF" stroke-width="1.315" stroke-miterlimit="10" d="M192.376 122.076l3.459-5.992"/><path fill="none" stroke="#FFF" stroke-miterlimit="10" d="M216.5 130v-8"/><path fill="none" stroke="#FFF" stroke-width="1.455" stroke-miterlimit="10" d="M242.191 123.542l-4.235-7.335"/><path fill="none" stroke="#FFF" stroke-width="1.443" stroke-miterlimit="10" d="M260.425 104.878l-7.217-4.167"/><path fill="none" stroke="#FFF" stroke-miterlimit="10" d="M267 80.5h-8"/><path fill="none" stroke="#FFF" stroke-width="1.539" stroke-miterlimit="10" d="M261.531 54.098l-8.202 4.735"/><path fill="none" stroke="#FFF" stroke-width="1.434" stroke-miterlimit="10" d="M241.948 36.214l-4.113 7.124"/><circle fill="#FFF" cx="216.667" cy="80.333" r="4.333"/></g></switch></svg>