<svg xmlns="http://www.w3.org/2000/svg" xmlns:xlink="http://www.w3.org/1999/xlink" width="300" height="300.671" viewBox="0 0 300 300.671"><switch><g><symbol id="a" viewBox="-239.998 -118.656 300 300.671"><path fill="#91C4AB" d="M60.002-65.014c0-6.764-.002-53.643-71.502-53.643H-174c-62.5 0-65.998 47.879-65.998 54.643v185.999c0 54.5 59.233 60 65.999 60l161.499.029c6.766 0 72.502-.029 72.502-60.029V-65.014z"/></symbol><use xlink:href="#a" width="300" height="300.671" x="-239.998" y="-118.656" transform="matrix(1 0 0 -1 239.346 182.015)" overflow="visible"/><g fill="#012B16"><path d="M101.757 231.49l3.792 11.855c.672 2.064 1.152 3.938 1.584 5.857h.144c.432-1.92.96-3.744 1.584-5.857l3.696-11.855h6.241l-8.929 23.377h-5.809l-8.689-23.377h6.386zM143.999 242.963c0 8.592-6.048 12.434-12.001 12.434-6.625 0-11.713-4.561-11.713-12.051 0-7.68 5.041-12.385 12.097-12.385 6.961 0 11.617 4.896 11.617 12.002zm-17.617.24c0 4.512 2.208 7.92 5.808 7.92 3.36 0 5.713-3.313 5.713-8.016 0-3.648-1.632-7.826-5.665-7.826-4.176 0-5.856 4.033-5.856 7.922zM155.133 224.961c0 1.775-1.295 3.168-3.359 3.168-1.969 0-3.265-1.393-3.265-3.168 0-1.824 1.345-3.217 3.312-3.217 2.017 0 3.265 1.393 3.312 3.217zm-6.288 29.906V231.49h5.952v23.377h-5.952zM178.318 254.148c-1.248.576-3.697 1.199-6.625 1.199-7.297 0-12.049-4.656-12.049-11.904 0-7.01 4.801-12.482 13.01-12.482 2.16 0 4.367.48 5.711 1.105l-1.055 4.416c-.961-.432-2.354-.912-4.465-.912-4.512 0-7.201 3.313-7.152 7.584 0 4.801 3.119 7.537 7.152 7.537 2.064 0 3.504-.432 4.656-.912l.817 4.369zM186.43 244.834c.143 4.225 3.455 6.049 7.199 6.049 2.736 0 4.705-.383 6.48-1.055l.865 4.08c-2.016.816-4.801 1.439-8.16 1.439-7.586 0-12.051-4.656-12.051-11.809 0-6.48 3.938-12.578 11.426-12.578 7.584 0 10.08 6.24 10.08 11.377 0 1.105-.096 1.969-.191 2.496H186.43zm10.271-4.127c.049-2.16-.912-5.713-4.848-5.713-3.648 0-5.184 3.313-5.424 5.713h10.272z"/></g><path fill="none" stroke="#FFF" stroke-width="5.072" stroke-miterlimit="10" d="M257.894 100.258c0-41.475-51.866-75.096-108.546-75.096S40.802 58.784 40.802 100.258c0 41.474 51.866 75.096 108.546 75.096 1.63 0 3.25-.035 4.862-.091-6.681 18.024-27.757 29.913-27.757 29.913 26.393-1.76 48.006-22.596 58.228-34.393 39.272-10.537 73.213-38.136 73.213-70.525z"/></g></switch></svg>