<svg xmlns="http://www.w3.org/2000/svg" xmlns:xlink="http://www.w3.org/1999/xlink" width="300" height="300" viewBox="0 0 300 300"><switch><g><symbol id="a" viewBox="-150 -150 300 300.015"><path fill="#AEBCC4" d="M150-97.015c0-6.763 0-52.985-71.5-52.985H-84c-62.5 0-66 47.223-66 53.985v186c0 54.5 59.235 60 66 60l161.5.029c6.765 0 72.5-.029 72.5-60.029v-187z"/></symbol><use xlink:href="#a" width="300" height="300.015" x="-150" y="-150" transform="matrix(1 0 0 -1 150 150)" overflow="visible"/><g fill="#080828"><path d="M34.609 251.147c1.92 1.104 4.801 2.064 7.825 2.064 3.792 0 5.905-1.776 5.905-4.417 0-2.448-1.632-3.888-5.761-5.376-5.329-1.92-8.737-4.753-8.737-9.409 0-5.28 4.417-9.313 11.425-9.313 3.504 0 6.096.768 7.776 1.632l-1.44 4.753c-1.152-.624-3.408-1.536-6.433-1.536-3.744 0-5.376 2.016-5.376 3.888 0 2.497 1.872 3.648 6.192 5.329 5.617 2.112 8.353 4.944 8.353 9.601 0 5.185-3.937 9.697-12.289 9.697-3.409 0-6.961-.961-8.737-2.017l1.297-4.896zM76.898 256.86c-1.248.576-3.696 1.2-6.625 1.2-7.296 0-12.049-4.657-12.049-11.905 0-7.009 4.8-12.481 13.009-12.481 2.16 0 4.368.48 5.712 1.104l-1.056 4.416c-.96-.432-2.352-.912-4.464-.912-4.512 0-7.201 3.313-7.153 7.585 0 4.801 3.121 7.536 7.153 7.536 2.064 0 3.504-.432 4.656-.912l.817 4.369zM81.265 223.497h5.952v13.921h.096a7.922 7.922 0 0 1 2.928-2.688c1.152-.673 2.544-1.057 4.032-1.057 3.984 0 8.161 2.641 8.161 10.129v13.777H96.53v-13.105c0-3.408-1.248-5.952-4.512-5.952-2.304 0-3.937 1.536-4.561 3.313-.192.479-.24 1.104-.24 1.776v13.969h-5.952v-34.083zM111.505 234.202l2.448 10.608c.528 2.497 1.056 5.041 1.488 7.585h.096c.48-2.544 1.248-5.137 1.92-7.536l3.024-10.657h4.8l2.928 10.369c.72 2.736 1.344 5.28 1.873 7.824h.096c.384-2.544.912-5.088 1.536-7.824l2.592-10.369h5.809l-7.345 23.378h-5.472l-2.785-9.505c-.72-2.448-1.248-4.656-1.776-7.488h-.096c-.48 2.88-1.104 5.185-1.776 7.488l-2.977 9.505h-5.521l-6.913-23.378h6.051zM147.458 247.547c.144 4.225 3.456 6.049 7.201 6.049 2.736 0 4.704-.384 6.48-1.056l.864 4.08c-2.017.816-4.801 1.44-8.161 1.44-7.584 0-12.049-4.657-12.049-11.81 0-6.48 3.937-12.577 11.425-12.577 7.585 0 10.081 6.24 10.081 11.377 0 1.104-.096 1.969-.191 2.496h-15.65zm10.272-4.128c.048-2.16-.912-5.713-4.849-5.713-3.648 0-5.185 3.313-5.424 5.713h10.273zM168.049 241.163c0-2.688-.049-4.945-.192-6.961h5.185l.288 3.504h.144c1.009-1.824 3.553-4.032 7.441-4.032 4.08 0 8.305 2.641 8.305 10.033v13.873h-5.904v-13.201c0-3.36-1.248-5.904-4.465-5.904-2.352 0-3.984 1.68-4.608 3.456-.192.528-.24 1.248-.24 1.92v13.729h-5.952v-16.417zM201.409 244.475h.096c.576-.912 1.248-1.92 1.872-2.736l5.664-7.536h7.105l-8.642 9.553 9.89 13.825h-7.249l-6.721-10.321-2.016 2.353v7.969h-5.905v-34.083h5.905v20.976zM223.776 247.547c.144 4.225 3.456 6.049 7.2 6.049 2.736 0 4.705-.384 6.48-1.056l.864 4.08c-2.016.816-4.8 1.44-8.16 1.44-7.585 0-12.05-4.657-12.05-11.81 0-6.48 3.937-12.577 11.426-12.577 7.584 0 10.08 6.24 10.08 11.377 0 1.104-.096 1.969-.191 2.496h-15.649zm10.273-4.128c.049-2.16-.912-5.713-4.848-5.713-3.648 0-5.185 3.313-5.425 5.713h10.273zM244.367 241.163c0-2.688-.048-4.945-.191-6.961h5.185l.288 3.504h.144c1.008-1.824 3.553-4.032 7.44-4.032 4.08 0 8.305 2.641 8.305 10.033v13.873h-5.904v-13.201c0-3.36-1.248-5.904-4.465-5.904-2.352 0-3.984 1.68-4.608 3.456-.191.528-.239 1.248-.239 1.92v13.729h-5.953v-16.417z"/></g><linearGradient id="b" gradientUnits="userSpaceOnUse" x1="165.81" y1="45.74" x2="165.81" y2="240.288" gradientTransform="rotate(89.874 175.97 115.866)"><stop offset="0" stop-color="#fff"/><stop offset="1" stop-color="#fff" stop-opacity="0"/></linearGradient><path fill="url(#b)" d="M152.315 159.531l93.734-65.203s-44.216-47.474-102.86-41.889c0 0-66.091 4.654-91.689 41.423l100.815 65.669z"/><path fill="#080828" d="M130.448 88.067l44.707.116s-4.578 12.022-11.109 16.979l.008 6.362 11.505 12.886s4.421 2.82 3.375 14.103l.074 53.393s.146 12.88-15.683 14.511l-25.489.034s-11.643-2.935-12.9-15.007l-.073-52.588s-.105-10.463 3.647-13.958l12.219-13.431-.009-6.441c0-.001-6.544-3.534-10.272-16.959z"/><circle fill="#C1272D" cx="152.316" cy="155.805" r="11.398"/><path fill="none" d="M39 19h230"/><path fill="#FFF" d="M186.412 41.246c-.183.067-.546.048-.596-.127a1259.216 1259.216 0 0 0-6.48-20.563c-.059-.189.062-.363.268-.39 7.862-.918 15.847-1.586 23.878-2.203.21-.018.613.077.65.235-2.355 2.421-4.646 4.9-6.854 7.509 12.662 7.029 24.733 13.066 35.031 23.998 2.298-2.018 4.649-4.082 7.073-6.264.186.027.351.385.358.576a461.97 461.97 0 0 1 .743 22.643c-.001.206-.127.304-.284.219-5.948-3.339-12.532-5.398-19.283-5.979-.176-.012-.358-.309-.382-.47a193.916 193.916 0 0 1 5.98-5.591c-10.412-10.206-22.302-15.607-34.723-22.093a91.758 91.758 0 0 0-5.379 8.5z"/></g></switch></svg>