<svg xmlns="http://www.w3.org/2000/svg" xmlns:xlink="http://www.w3.org/1999/xlink" width="300" height="300" viewBox="0 0 300 300"><switch><g><symbol id="a" viewBox="-150 -150 300 300.007"><path fill="#CE8E95" d="M150-97.021c0-6.764 0-52.979-71.5-52.979H-84c-62.5 0-66 47.215-66 53.979v186c0 54.5 59.235 60 66 60l161.5.029c6.765 0 72.5-.029 72.5-60.029v-187z"/></symbol><use xlink:href="#a" width="300" height="300.007" x="-150" y="-150" transform="matrix(1 0 0 -1 150 150)" overflow="visible"/><g fill="#26080D"><path d="M23.779 202.25c1.872-.385 5.281-.672 8.593-.672 4.369 0 7.057.527 9.265 2.064 2.017 1.199 3.36 3.311 3.36 6.047 0 2.977-1.872 5.713-5.376 7.01v.096c3.408.863 6.529 3.553 6.529 8.018 0 2.879-1.248 5.135-3.121 6.672-2.304 2.016-6.096 3.023-12.001 3.023-3.264 0-5.76-.24-7.249-.432V202.25zm5.857 12.77h3.024c4.081 0 6.385-1.922 6.385-4.658 0-3.023-2.304-4.416-6.049-4.416-1.728 0-2.736.096-3.36.24v8.834zm0 14.88c.768.096 1.776.145 3.121.145 3.792 0 7.152-1.441 7.152-5.426 0-3.744-3.264-5.279-7.345-5.279h-2.928v10.56zM51.187 200.09h5.952v34.082h-5.952V200.09zM69.811 204.266c0 1.775-1.296 3.168-3.36 3.168-1.968 0-3.265-1.393-3.265-3.168 0-1.824 1.344-3.217 3.313-3.217 2.016 0 3.264 1.392 3.312 3.217zm-6.289 29.906v-23.377h5.952v23.377h-5.952zM92.996 233.453c-1.248.576-3.696 1.199-6.625 1.199-7.296 0-12.049-4.656-12.049-11.904 0-7.01 4.8-12.482 13.009-12.482 2.16 0 4.368.48 5.712 1.105l-1.056 4.416c-.96-.432-2.352-.912-4.464-.912-4.512 0-7.201 3.313-7.153 7.584 0 4.801 3.121 7.537 7.153 7.537 2.064 0 3.504-.432 4.656-.912l.817 4.369zM103.267 221.066h.096c.576-.912 1.248-1.92 1.872-2.736l5.665-7.535h7.104l-8.64 9.553 9.889 13.824h-7.249l-6.721-10.32-2.016 2.352v7.969h-5.904V200.09h5.904v20.976zM135.474 234.172l-.384-2.592h-.145c-1.439 1.824-3.888 3.121-6.912 3.121-4.704 0-7.345-3.408-7.345-6.961 0-5.904 5.232-8.881 13.873-8.834v-.383c0-1.537-.624-4.08-4.752-4.08-2.305 0-4.705.719-6.289 1.727l-1.152-3.84c1.729-1.057 4.753-2.064 8.449-2.064 7.488 0 9.648 4.754 9.648 9.842v8.449c0 2.111.097 4.176.336 5.615h-5.327zm-.767-11.424c-4.177-.098-8.161.814-8.161 4.367 0 2.305 1.488 3.361 3.36 3.361 2.353 0 4.08-1.537 4.608-3.217.144-.432.192-.912.192-1.297v-3.214zM163.891 233.453c-1.248.576-3.697 1.199-6.625 1.199-7.296 0-12.049-4.656-12.049-11.904 0-7.01 4.801-12.482 13.01-12.482 2.16 0 4.367.48 5.711 1.105l-1.055 4.416c-.961-.432-2.354-.912-4.465-.912-4.512 0-7.201 3.313-7.152 7.584 0 4.801 3.119 7.537 7.152 7.537 2.064 0 3.504-.432 4.656-.912l.817 4.369zM168.256 200.09h5.953v13.92h.096a7.92 7.92 0 0 1 2.93-2.688c1.15-.672 2.543-1.057 4.031-1.057 3.984 0 8.16 2.641 8.16 10.129v13.777h-5.904v-13.105c0-3.408-1.248-5.951-4.512-5.951-2.305 0-3.936 1.535-4.561 3.313-.191.479-.24 1.104-.24 1.775v13.969h-5.953V200.09zM195.424 228.748c1.346.816 3.889 1.68 6.002 1.68 2.592 0 3.744-1.057 3.744-2.592 0-1.584-.961-2.4-3.84-3.408-4.561-1.584-6.48-4.08-6.434-6.816 0-4.129 3.408-7.346 8.832-7.346 2.594 0 4.85.672 6.193 1.393l-1.152 4.176c-1.008-.576-2.881-1.344-4.943-1.344-2.113 0-3.266 1.008-3.266 2.449 0 1.488 1.105 2.207 4.08 3.264 4.225 1.537 6.193 3.697 6.242 7.152 0 4.225-3.313 7.297-9.506 7.297-2.832 0-5.377-.672-7.104-1.633l1.152-4.272zM219.904 224.139c.145 4.225 3.457 6.049 7.201 6.049 2.736 0 4.705-.383 6.48-1.055l.863 4.08c-2.016.816-4.799 1.439-8.16 1.439-7.584 0-12.049-4.656-12.049-11.809 0-6.48 3.936-12.578 11.426-12.578 7.584 0 10.08 6.24 10.08 11.377 0 1.105-.096 1.969-.191 2.496h-15.65zm10.274-4.127c.049-2.16-.912-5.713-4.848-5.713-3.648 0-5.186 3.313-5.426 5.713h10.274zM240.496 217.756c0-2.689-.049-4.945-.191-6.961h5.184l.289 3.504h.143c1.008-1.824 3.553-4.033 7.441-4.033 4.08 0 8.305 2.641 8.305 10.033v13.873h-5.904v-13.201c0-3.359-1.248-5.904-4.465-5.904-2.352 0-3.984 1.68-4.609 3.457-.191.527-.238 1.248-.238 1.92v13.729h-5.953v-16.417zM278.465 219.34v4.08h-12.242v-4.08h12.242zM66.188 282.172l-.384-2.592h-.144c-1.44 1.824-3.889 3.121-6.913 3.121-4.705 0-7.345-3.408-7.345-6.961 0-5.904 5.232-8.881 13.873-8.834v-.383c0-1.537-.624-4.08-4.752-4.08-2.304 0-4.704.719-6.289 1.727l-1.152-3.84c1.728-1.057 4.752-2.064 8.449-2.064 7.489 0 9.649 4.754 9.649 9.842v8.449c0 2.111.096 4.176.336 5.615h-5.328zm-.769-11.424c-4.176-.098-8.161.814-8.161 4.367 0 2.305 1.488 3.361 3.36 3.361 2.352 0 4.081-1.537 4.608-3.217.144-.432.192-.912.192-1.297v-3.214zM77.418 265.756c0-2.689-.048-4.945-.192-6.961h5.185l.288 3.504h.144c1.008-1.824 3.552-4.033 7.44-4.033 4.081 0 8.305 2.641 8.305 10.033v13.873h-5.904v-13.201c0-3.359-1.248-5.904-4.464-5.904-2.352 0-3.984 1.68-4.608 3.457-.192.527-.24 1.248-.24 1.92v13.729H77.42v-16.417zM104.586 276.748c1.344.816 3.888 1.68 6 1.68 2.592 0 3.744-1.057 3.744-2.592 0-1.584-.96-2.4-3.84-3.408-4.56-1.584-6.48-4.08-6.433-6.816 0-4.129 3.409-7.346 8.833-7.346 2.592 0 4.848.672 6.193 1.393l-1.152 4.176c-1.008-.576-2.88-1.344-4.945-1.344-2.112 0-3.264 1.008-3.264 2.449 0 1.488 1.104 2.207 4.081 3.264 4.224 1.537 6.193 3.697 6.241 7.152 0 4.225-3.313 7.297-9.505 7.297-2.833 0-5.377-.672-7.105-1.633l1.152-4.272zM142.075 281.453c-1.248.576-3.696 1.199-6.624 1.199-7.297 0-12.05-4.656-12.05-11.904 0-7.01 4.801-12.482 13.01-12.482 2.16 0 4.368.48 5.712 1.105l-1.056 4.416c-.96-.432-2.353-.912-4.465-.912-4.512 0-7.2 3.313-7.152 7.584 0 4.801 3.12 7.537 7.152 7.537 2.064 0 3.505-.432 4.657-.912l.816 4.369zM146.441 248.09h5.954v13.92h.096a7.915 7.915 0 0 1 2.928-2.688c1.152-.672 2.545-1.057 4.033-1.057 3.984 0 8.16 2.641 8.16 10.129v13.777h-5.904v-13.105c0-3.408-1.248-5.951-4.514-5.951-2.303 0-3.936 1.535-4.561 3.313-.191.479-.238 1.104-.238 1.775v13.969h-5.954V248.09zM173.896 248.09h5.953v34.082h-5.953V248.09zM207.162 275.164c0 2.783.096 5.088.191 7.008h-5.184l-.289-3.553h-.096c-1.008 1.682-3.313 4.082-7.488 4.082-4.271 0-8.16-2.545-8.16-10.178v-13.729h5.904v12.721c0 3.889 1.248 6.385 4.367 6.385 2.354 0 3.889-1.68 4.514-3.168a5.395 5.395 0 0 0 .336-1.824v-14.113h5.904v16.369zM213.256 276.748c1.344.816 3.889 1.68 6 1.68 2.592 0 3.744-1.057 3.744-2.592 0-1.584-.959-2.4-3.84-3.408-4.561-1.584-6.48-4.08-6.432-6.816 0-4.129 3.408-7.346 8.832-7.346 2.592 0 4.848.672 6.193 1.393l-1.152 4.176c-1.008-.576-2.881-1.344-4.945-1.344-2.111 0-3.264 1.008-3.264 2.449 0 1.488 1.104 2.207 4.08 3.264 4.225 1.537 6.193 3.697 6.24 7.152 0 4.225-3.313 7.297-9.504 7.297-2.832 0-5.377-.672-7.105-1.633l1.153-4.272zM233.271 276.748c1.344.816 3.889 1.68 6 1.68 2.592 0 3.744-1.057 3.744-2.592 0-1.584-.959-2.4-3.84-3.408-4.561-1.584-6.48-4.08-6.432-6.816 0-4.129 3.408-7.346 8.832-7.346 2.592 0 4.848.672 6.193 1.393l-1.152 4.176c-1.008-.576-2.881-1.344-4.945-1.344-2.111 0-3.264 1.008-3.264 2.449 0 1.488 1.104 2.207 4.08 3.264 4.225 1.537 6.193 3.697 6.24 7.152 0 4.225-3.313 7.297-9.504 7.297-2.832 0-5.377-.672-7.105-1.633l1.153-4.272z"/></g><g fill-rule="evenodd" clip-rule="evenodd"><path fill="#434343" d="M269.187 90.796v34.737c-2.222 2.405-4.814 1.026-7.303.724-.95-.053-1.903-.07-2.856-.031-2.96.877-5.544-.864-8.331-1.183-1.226-.051-2.482.167-3.65-.405a4.298 4.298 0 0 1-1.938-1.829c-.781-4.124-5.666-5.701-6.226-9.97-.37-3.105.586-6.383-1.229-9.299a6.17 6.17 0 0 1-.809-1.586c-.342-1.173-.352-2.354-.09-3.543.628-2.266 2.035-4.097 3.356-5.979 2.357-3.293 2.987-6.645.393-10.137-.291-.912-.332-1.843-.267-2.79a5 5 0 0 1 .552-1.855c.734-1.173 1.806-1.83 3.149-2.066 2.669-.494 4.552 1.548 6.887 2.135 2.1.859 4.032 2 5.778 3.453 1.249.555 2.422 1.261 3.663 1.833 1.37.905 2.64 1.935 3.845 3.043.884.955 1.925 1.71 3.065 2.339.965.56 1.301 1.638 2.011 2.409z"/><path fill="#444" d="M261.743 124.294l7.443 1.239c0 19.024-.082 38.047.083 57.07.027 3.104-.682 4.034-3.81 3.798-4.113-.311-8.265-.076-12.401-.076-1.956-1.178-3.911-2.355-4.282-4.914.242-3.146-.586-6.152-1.253-9.177a22.258 22.258 0 0 1-.048-1.808c.065-2.085-.077-4.14-.947-6.083-.206-.873-.247-1.763-.268-2.654a117.66 117.66 0 0 1-.021-1.781c.152-2.119-.442-4.107-1.07-6.093-.177-1.503-.171-3.008-.053-4.515 1.615-5 5.393-8.52 8.694-12.305 3.349-3.839 6.594-7.648 7.933-12.701z"/><path fill="#434343" d="M158.771 68.465V46.133c4.959-3.604 9.51.63 14.273.737 1.56.271 2.953 1.107 4.522 1.356 3.593 1.455 7.214 2.844 11.014 3.696 2.447.883 4.796 2.066 7.402 2.482 1.344.486 2.653 1.075 4.075 1.331 2.123.874 4.236 1.781 6.563 1.996 2.247.005 4.206.765 5.909 2.215.933.887 1.401 2.003 1.589 3.253.025.903-.268 1.703-.806 2.414-1.162 1.018-2.351 2.024-3.102 3.421a5.196 5.196 0 0 1-.876 1.125c-.49.457-1.051.82-1.64 1.126a5.503 5.503 0 0 0-1.047.58 3.762 3.762 0 0 0-.65 1.007 7.037 7.037 0 0 1-.683 1.863 4.07 4.07 0 0 1-1.017 1.072c-.684.442-1.451.607-2.24.722-1.95.333-3.537 2.015-5.708 1.542-10.767-3.997-21.712-7.147-33.321-7.334-1.733-.028-3.085-1.049-4.257-2.272z"/><path fill="#FBFBFB" d="M250.395 181.403l2.664 4.922h-52.106c-1.241-1.592-2.481-1.551-3.723 0h-7.443c-1.054-3.533 2.186-4.282 3.894-6.027.945-.619 2.004-1.041 2.944-1.676 1.056-.381 1.959-1.052 2.93-1.597 2.748-1.54 5.776-2.334 8.74-3.317a6.997 6.997 0 0 1 2.6-.075 15.331 15.331 0 0 0 5.844.953 16.69 16.69 0 0 1 1.686.143c3.838.77 6.385 4.365 10.395 4.737 1.018.073 2.009.005 2.901-.582 2.782-3.901 6.563-6.94 9.212-10.941.553-.709 1.11-1.414 1.895-1.893 1.233-.512 2.379-.257 3.478.398a3.903 3.903 0 0 1 1.49 2.09c.14 2.304-.988 4.74.689 6.901.749 1.952.829 4.118 1.91 5.964z"/><path fill="#434343" d="M182.343 32.486h21.09c1.958 2.623.243 4.693-1.271 6.497-4.027 4.797-8.213 9.472-13.429 13.069-3.256.407-5.928-1.552-8.92-2.218-1.493-.376-2.808-1.358-4.43-1.288-5.652-1.735-11.706-2.382-16.612-6.135V39.93c1.069-3.707 2.932-5.511 7.385-5.373 5.389.168 10.906-.484 16.187-2.071z"/><path fill="#161616" d="M158.771 119.331v-2.481c4.342-3.802 5.753-3.685 10.762.876 1.194 1.17 2.773 1.819 4.011 2.934 1.63 1.914 4.232 2.6 5.814 4.571 1.068 1.21 2.491 1.957 3.806 2.841 1.087.787 2.1 1.657 3.004 2.649 1.969 1.908 4.221 3.469 6.361 5.174 2.465 2.442 6.545 3.945 5.09 8.685-.611.775-1.44 1.209-2.356 1.506-2.058 1.038-4.186 1.353-6.413.624-5.489-3.252-9.439-8.42-14.755-11.898-1.684-1.049-2.992-2.482-4.159-4.057-2.083-1.67-4.22-3.276-6.168-5.111-2.749-1.25-3.606-3.993-4.997-6.313z"/><path fill="#A7A7A7" d="M167.454 186.325h-4.962c-1.567-1.549-1.631-3.313-.744-5.21.351-1.193.837-2.312 1.771-3.179 7.01-6.319 11.31-14.909 17.978-21.537 2.336-2.321 4.622-4.604 7.58-6.118 1.144-.463 2.322-.752 3.566-.744 1.325.206 2.31.887 2.912 2.096.525 1.47.353 2.979-.595 4.102-8.842 10.488-17.389 21.246-27.506 30.59z"/><path fill="#383838" d="M158.771 80.871v-4.962c3.535-3.264 7.449-1.163 11.115-.562 8.634 1.417 17.485 2.2 25.23 6.922 1.293 1.146 1.539 2.855 2.307 4.286.474 2.461.558 4.989 1.204 7.43a4.688 4.688 0 0 1-.459 1.846 3.912 3.912 0 0 1-1.319 1.345 2.548 2.548 0 0 1-1.8.194c-2.335-1.036-1.805-3.563-2.77-5.315-7.587-4-15.34-7.424-24.071-7.982-3.402-.219-7.095.221-9.437-3.202z"/><path fill="#2B2B2B" d="M158.771 98.24v-4.962c2.923-2.684 6.577-2.59 9.874-1.682 5.13 1.414 10.381 2.203 15.519 3.548 4.833 1.266 8.17 4.509 11.656 7.674.381 6.019-1.413 7.727-6.289 5.463-6.435-2.987-13.186-4.541-20.118-5.665-3.851-.624-7.796-1.22-10.642-4.376z"/><path fill="#3F3F3F" d="M158.771 68.465c8.568-1.187 17.029 1.187 25.297 2.273 3.623.476 9.884 2.231 13.216 6.533 1.128 1.144 1.027 2.368.242 3.637-1.378 1.451-3.102 1.076-4.579.506-10.52-4.049-21.469-6.018-32.637-7.02-.588-.053-1.073-.565-1.539-.966v-4.963z"/><path fill="#262626" d="M158.771 98.24c10.502 2.117 21.472 2.55 31.066 8.007 4.025 2.29 5.159 1.017 4.915-3.041.678-.365 1.305-.291 1.88.218 1.836 2.384.996 5.175 1.186 7.807-.106 4.499-2.351 6.39-6.249 3.846-9.561-6.239-20.573-7.306-31.289-9.523a8.357 8.357 0 0 1-1.509-1.11V98.24z"/><path fill="#2A2A2A" d="M258.021 32.486c2.067 0 4.187.289 6.193-.06 4.281-.743 5.911.775 4.973 5.023-1.78 3.715-4.564 6.35-8.595 7.32-4.255 1.023-6.118 5.425-10.068 6.811-1.02-.016-1.768-.513-2.351-1.311-.279-3.132-2.7-5.707-2.374-9.004 1.665-6.271 7.408-6.876 12.222-8.779z"/><path fill="#B2B2B2" d="M167.454 186.325c6.622-10.417 15.215-19.245 23.086-28.656 1.551-1.855 3.889-3.149 4.126-5.919.788-.689 1.575-.434 2.366-.006 1.605 1.603 3.948 2.741 3.559 5.613a4.579 4.579 0 0 1-.73 1.581c-4.838 4.396-8.569 9.805-13.139 14.447a5.759 5.759 0 0 1-.891 1.482c-6.073 2.295-9.3 8.239-14.654 11.457l-3.723.001z"/><path fill="#1F1F1F" d="M158.771 104.443c.404.011.81.029 1.214.054 4.484 2.774 10.144 2.114 14.611 4.964 3.589 4.095 7.791 6.512 13.468 4.954 3.531.731 7.017 1.8 10.699 1.299.304.675.351 1.36.138 2.069-1.054 1.943-2.924 2.136-4.794 2.109-8.007-.108-16.026.564-24.015-.458-.364.017-.73.031-1.095.048-2.954-2.646-6.008-4.901-10.227-2.633l.001-12.406z"/><path fill="#181818" d="M250.734 79.359c-2.533.524-3.845-2.413-6.264-2.213a1.959 1.959 0 0 1-.668-1.602c5.348-5.308 11.281-9.821 18.048-13.189 2.419-1.204 4.862-2.393 7.336-.093v7.444c-5.574 4.318-10.577 9.731-18.452 9.653z"/><path fill="#3F3F3F" d="M188.552 51.038c2.676-5.807 8.625-8.75 12.13-13.854 1.041-1.515 2.618-2.664 2.751-4.697h8.685c1.202 2.522-.171 4.693-1.703 6.11-5.364 4.959-9.622 10.97-15.21 15.698-1.919.444-3.493-.816-5.272-1.071-.793-.518-1.339-1.193-1.381-2.186z"/><path fill="#3C3C3C" d="M194.768 53.331c4.556-7.97 12.595-13.041 17.35-20.844h7.444c.813 1.817 4.958.665 3.789 4.254-5.475 1.874-9.156 6.179-13.312 9.847-2.833.185-4.011 2.432-5.385 4.391-1.531 2.18-3.147 4.215-5.922 4.868-.901.134-1.746-.042-2.547-.46-.839-.434-1.411-1.05-1.417-2.056z"/><path fill="#222" d="M269.187 46.133v6.203c-1.51 1.994-3.411 3.328-5.786 4.275-3.972 1.586-7.875 3.437-10.844 6.684-1.423 1.557-2.776 2.487-4.52.47-1.364-2.033-1.785-4.264-1.422-6.665.377-3.871 3.295-5.535 6.241-7.177 2.623-1.067 4.766-3.003 7.362-4.108 3.024-1.284 6.076-2.439 8.969.318z"/><path fill="#343434" d="M158.771 80.871c11.012.553 21.585 3.166 31.835 7.071 1.437.548 3.959.28 4.06 2.938-.491 3.403-1.568 5.009-5.545 3.228-7.432-3.329-15.254-5.494-23.481-5.931-2.759-.146-5.098-1.396-6.868-3.584l-.001-3.722z"/><path fill="#313131" d="M158.771 84.593c10.756 2.114 21.934 2.721 31.794 8.11 2.842 1.553 2.934-.823 4.102-1.824.16 2.058-.278 4.201.87 6.118.586.533.607 1.087.063 1.664-1.735 1.302-3.358.86-5.116-.112-7.963-4.403-16.582-6.288-25.623-6.593-2.242-.075-4.485-.526-6.089-2.4l-.001-4.963z"/><path fill="#1B1B1B" d="M269.187 62.262c-6.804.874-12.056 5.167-17.047 9.079-2.538 1.99-5.304 3.08-7.85 4.753-1.334.241-2.276-.302-2.921-1.454-.506-2.817 1.876-4.267 2.98-6.33a6.11 6.11 0 0 1 2.227-1.64c2.191-.643 3.848-2.025 5.697-3.35 4.96-3.552 9.529-9.024 16.913-6.022l.001 4.964z"/><path fill="#171717" d="M158.771 167.715v-18.609c2.138-1.927 3.891-.237 5.742.597 1.086.523 1.932 1.349 2.763 2.194 1.43 1.815 2.817 3.662 3.551 5.906.271 1.515-.306 2.881-.731 4.279-1.037 1.744-1.879 3.612-3.226 5.171-2.616 1.585-5.261 2.767-8.099.462z"/><path fill="#2D2D2D" d="M158.771 89.556c11.586.606 23.039 1.705 33.36 7.827 1.086.645 2.758.304 4.159.42.155.197.308.395.468.59.477 1.218.376 2.46.149 3.709a2.4 2.4 0 0 1-.942 1.141c-.404-.015-.809-.026-1.213-.037-10.755-7.798-23.23-9.365-35.981-9.929v-3.721z"/><path fill="#252525" d="M269.187 46.133c-3.603-.036-7.039.645-9.809 3.063-1.89 1.65-3.998 1.988-6.319 1.899-.828-.012-1.659.8-2.486-.003 2.884-9.079 12.851-8.494 18.614-13.644v8.685z"/><path fill="#3B3B3B" d="M158.771 73.428c8.389-.75 16.559 1.279 24.605 2.874 4.471.886 8.494 4.361 13.471 4.62l.692.425c.068.565-.101 1.053-.479 1.474-.696.504-1.478.646-2.315.532-11.638-4.195-23.658-6.532-35.975-7.443l.001-2.482z"/><path fill="#151515" d="M250.734 79.359c6.133-3.25 11.178-8.582 18.452-9.653v6.203c-2.973 5.355-8.505 5.916-13.616 7.27-1.61-1.274-3.222-2.547-4.836-3.82z"/><path fill="#1D1D1D" d="M269.187 57.299c-8.568 1.509-15.081 7.153-22.414 11.146-.891-2.543-.792-4.587 2.527-5.006 5.69-5.384 12.093-9.488 19.887-11.102v4.962z"/><path fill="#4C4C4C" d="M164.951 124.337c2.051 1.671 4.101 3.343 6.15 5.015-.237 4.964-4.955 6.593-7.386 9.931-.786.455-1.592.86-2.518.945-.96.004-1.751-.39-2.428-1.046v-6.203c2.063-2.881.517-8.341 6.182-8.642z"/><path fill="#272727" d="M182.343 32.486c-5.779 2.706-11.665 5.047-18.235 3.93-3.025-.516-3.652 2.209-5.337 3.514-1.4-6.363 1.024-8.403 7.461-7.582 5.289.675 10.733.138 16.111.138z"/><path fill="#CBCBCB" d="M194.919 181.591l-5.133 4.734h-3.723c-1.391-1.083-3.125-1.604-4.491-2.74-.64-.675-1.057-1.462-1.214-2.384.025-3.297 2.245-4.678 4.94-5.642 1.471-.652 2.828-.048 4.203.368a7.793 7.793 0 0 1 1.55.655c1.779 1.286 3.859 2.352 3.868 5.009z"/><path fill="#2F2F2F" d="M258.021 32.486l-11.226 8.707c-3.666 1.157-6.914.277-9.869-2.023-.814-2.897 1.4-3.518 3.307-4.026 2.012-.536 3.888-1.16 5.383-2.658h12.405z"/><path fill="#202020" d="M158.771 167.715l7.177-1.254c2.39 1.402.902 3.409.822 5.199a6.363 6.363 0 0 1-.341 1.598c-.439.983-.929 1.944-1.298 2.967-1.041 1.527-2.916 2.581-2.719 4.815-.78 1.771-.984 3.805-2.401 5.285-2.829-3.453-.626-7.46-1.173-11.176-.359-2.427-.067-4.953-.067-7.434z"/><path fill="#B7B7B7" d="M186.056 176.428a14.533 14.533 0 0 0-4.904 4.658c-.403 2.957-2.925 3.892-5.012 5.239h-4.963c1.844-4.938 6.616-7.513 9.391-11.65 1.442-2.152 3.021.506 4.234-.698.514-.45 1.04-.465 1.576-.044.451.904.449 1.75-.322 2.495z"/><path fill="#161616" d="M158.771 139.181l2.501-.064c3.277 1.716 5.997 4.126 7.177 7.633.808 2.397 1.948 5.588-2.547 6.044-.702-.396-1.404-.787-2.105-1.183-1.202-2.139-3.225-3.451-5.025-4.986l-.001-7.444z"/><path fill="#343434" d="M229.486 32.486h8.685c.538 4.496-3.514 5.506-5.903 7.782-3.017.221-6.593 2.613-8.339-2.134-.109-3.808 3.152-4.308 5.557-5.648z"/><path fill="#313131" d="M231.946 38.699c2.073-2.071 4.15-4.142 6.225-6.212h7.444c-.519 5.407-5.707 4.222-8.689 6.152-.309 1.898-1.389 3.096-3.34 2.806-1.322-.198-2.096-1.23-1.64-2.746z"/><path fill="#0F0F0F" d="M263.047 87.356l-3.685-2.989c1.868-5.12 5.807-4.42 9.824-3.496v9.925l-2.519-1.179c-2.128.722-2.535-1.312-3.62-2.261z"/><path fill="#111" d="M269.187 80.871c-3.275 1.167-6.551 2.332-9.825 3.497l-3.791-1.188c3.834-3.749 9.027-4.946 13.616-7.271v4.962z"/><path fill="#989898" d="M158.771 42.412c6.147.395 11.204 4.476 17.279 5.112.014 2.433-1.522 1.558-2.77 1.297-5.025.121-9.448-3.013-14.51-2.687l.001-3.722z"/><path fill="#505050" d="M164.951 124.337c-2.748 2.388-3.146 6.458-6.181 8.641v-13.647c2.062 1.668 4.123 3.338 6.181 5.006z"/><path fill="#383838" d="M229.486 32.486l-4.919 4.95c-1.033.469-1.328-.064-1.34-.985-.376-2.103-4.935-.34-3.666-3.965h9.925z"/><path fill="#4B4B4B" d="M176.14 186.325c1.781-1.641 1.42-5.331 5.012-5.239l1.436 1.543c.715 1.129 1.789 2.161.996 3.696h-7.444z"/><path fill="#E4E4E4" d="M197.229 186.325c-1.027-2.66.824-3.36 2.676-3.21 2.025.168 1.59 1.828 1.047 3.21h-3.723z"/><path fill="#C1C1C1" d="M160.011 186.325c.484-2.074.97-4.146 1.456-6.22 1.206-.585 1.591.42 2.143 1.106l-1.117 5.113-2.482.001z"/><path fill="#383838" d="M158.771 146.625c2.757.571 4.721 1.943 5.022 4.986-1.675-.831-2.935-2.5-5.022-2.506v-2.48z"/><path fill="#D6D6D6" d="M183.583 186.325c-.498-1.188-1.435-2.258-.996-3.696 2.098.35 2.68 2.124 3.477 3.696h-2.481z"/><path fill="#4A4A4A" d="M250.575 123.063l8.685 1.234c1.981 1.132 2.563 2.97 1.182 4.602-5.426 6.403-9.697 13.879-16.959 18.622-1.241.346-2.401-.036-3.567-.387-1.792-1.057-4.129-.898-5.682-2.505a3.307 3.307 0 0 1-.49-1.678c5.273-6.909 11.549-12.978 16.831-19.888z"/><path fill="#040404" d="M241.786 79.935l.287 2.271c1.771 3.692 1.015 7.29-.403 10.863-1.42 1.704-1.152 4.582-3.787 5.438-1.609 1.8-3.559 2.554-5.953 1.948-3.728-2.102-1.887-6.025-2.95-9.006-.045-1.49-.756-2.949-.241-4.472.455-1.153 1.279-1.99 2.294-2.659a29.636 29.636 0 0 0 5.726-3.308c.652-.51 1.318-1 2.041-1.411 1.052-.409 2.104-.779 2.986.336z"/><path fill="#4F4F4F" d="M250.575 123.063c.321.84 2.011 1.358.896 2.512-5.647 5.842-9.657 13.303-17.11 17.363-.366.886-.829 1.685-1.846 1.967-1.977.028-3.834-.214-4.897-2.211-.422-1.834.437-3.003 1.982-3.812 4.728-1.306 6.941-5.274 9.455-8.933 2.022-2.944 3.512-6.5 7.796-6.888l3.724.002z"/><path fill="#474747" d="M243.108 146.698c4.838-5.683 9.63-11.407 14.546-17.022 1.425-1.626 2.73-3.083 1.605-5.378l2.483-.002c3.248 6.676-3.229 9.397-5.943 13.256-2.874 4.089-6.422 7.79-9.191 12.042-1.154.385-2.145.048-3.045-.693-.561-.648-.908-1.343-.455-2.203z"/><path fill="#505050" d="M246.852 123.06c-4.675 4.064-6.366 10.411-11.146 14.456-1.554 1.316-2.602 3.153-4.994 2.893-2.345-2.954-.505-5.456 1.031-7.82 2.658-4.095 5.845-7.824 8.524-11.926 2.048-.843 3.842-.543 5.324 1.166.422.409.84.82 1.261 1.231z"/><path fill="#3F3F3F" d="M245.591 121.828l-6.177.012c-1.128 1.229-2.431 1.137-3.808.509-1.769-1.652-1.728-3.569-.824-5.615 1.1-1.565 2.754-2.563 4.077-3.905.601-.237 1.177-.17 1.729.157 5.494 5.393 5.494 5.393 5.003 8.842z"/><path fill="#BEBEBE" d="M231.946 99.739c1.89-.832 3.622-2.433 5.937-1.232l.62 3.476c1.088 1.808 1.092 3.5-.519 5.019a3.84 3.84 0 0 1-1.559.644c-1.327-.015-2.667.033-4.005.241-.926.005-1.743-.27-2.426-.915-.889-1.059-1.014-2.326-1.027-3.631.213-1.848 1.113-3.125 2.979-3.602z"/><path fill="#414141" d="M236.837 106.923c1.286-1.401 1.843-3.046 1.666-4.94l1.238.234c.435 3.703.644 7.398-.343 11.058-.178 1.743-1.061 2.936-2.737 3.51-1.726-.71-2.59-2.044-2.804-3.855-.416-2.702 1.033-4.478 2.98-6.007z"/><path fill="#505050" d="M241.67 93.069c.133-3.622.27-7.243.402-10.863 4.066 3.777 2.215 7.335-.402 10.863z"/><path fill="#080808" d="M239.398 113.274c.112-3.687.227-7.374.341-11.059 1.775 3.474.784 7.165.851 10.771-.401.09-.795.186-1.192.288z"/><path fill="#6A6A6A" d="M241.934 74.549l2.356 1.545c.019.358.079.708.181 1.052l-2.644 1.01c-1.953 1.012-2.43-.52-3.072-1.778a3.117 3.117 0 0 1 .218-1.669 2.55 2.55 0 0 1 1.449-.803c.579.034 1.088.24 1.512.643z"/><path fill="#4B4B4B" d="M263.047 87.356l3.621 2.261c-2.788 1.779-3.108-.396-3.621-2.261z"/><path fill="#414141" d="M239.522 75.833l2.305 2.324c-.013.59-.026 1.182-.041 1.775l-2.325.84c-1.614-1.666-1.63-3.313.061-4.939z"/><path fill="#CDCDCD" d="M244.318 148.159l2.29 1.434c.119 1.398.239 2.797.357 4.197 1.174 2.023-.164 4.437.996 6.462.016.429.027.858.042 1.287-1.331.93.816 4.536-2.834 3.684-2.715-3.236-.539-7.365-1.98-10.834-.39-1.142-1.018-2.223-.948-3.49.144-1.328.959-2.149 2.077-2.74z"/><path fill="#CFCFCF" d="M250.395 181.403c-1.741-1.297-2.717-3.107-3.421-5.101.651-1.669-1.482-4.663 2.302-4.844 1.076 3.236 1.506 6.544 1.119 9.945z"/><path fill="#C4C4C4" d="M249.275 171.459l-2.303 4.847c-1.779-2.431-2.653-4.868-.063-7.335.261-.437.644-.579 1.131-.473.599.414.769 1.124 1.161 1.679.026.427.051.854.074 1.282z"/><path fill="#D1D1D1" d="M248.055 168.902c-.383.024-.764.046-1.146.068-.416-.432-.834-.861-1.253-1.292-.738-.808-.831-1.623-.024-2.448.791-1.229 1.58-2.461 2.373-3.691l.22 2.158c.647 1.758.881 3.502-.17 5.205z"/><path fill="#C3C3C3" d="M248.055 168.902l.169-5.204c1.052 2.05 1.09 4.252.978 6.479l-1.147-1.275z"/><path fill="#C4C4C4" d="M247.962 160.252c-1.599-1.957-1.088-4.242-.997-6.462 1.068 2.04 1.216 4.224.997 6.462z"/><path fill="#010101" d="M232.014 85.821l-2.524 1.252c-.361.425-.815.657-1.379.672-.819-.09-1.562-.391-2.253-.824a26.655 26.655 0 0 0-3.849-2.688c-2.334-2.501-4.904-.861-7.407-.417-2.499-.054-4.423 1.817-6.844 2.044-2.639-.048-4.297-1.571-5.566-3.686-.66-2.032-.555-3.936.975-5.583 3.427-1.083 2.646-5.24 5.112-7.029.069-.327.134-.656.194-.984 1.44-1.066 2.495-2.486 3.567-3.891l1.517-.944c.186-1.146.736-2.061 1.704-2.72 1.728-1.028 3.676-1.336 5.611-1.708 2.828-.492 5.438.46 8.089 1.187 4.157 1.45 7.714 3.522 8.612 8.333.835 2.628.644 5.389 1.012 8.078.427 1.506.001 2.848-.803 4.114-1.836 1.702-3.729 3.334-5.768 4.794z"/><path fill="#343434" d="M212.224 61.096c-1.916-.431-3.831-.86-5.744-1.291-1.089-.541-1.926-1.334-2.458-2.438-.253-4.175 2.558-5.673 5.876-6.732 1.386-.504 2.442-1.772 4.051-1.777.978.048 1.81.38 2.366 1.238.253 3.833-.074 7.544-2.328 10.843-.553.447-1.143.498-1.763.157z"/><path fill="#878787" d="M188.552 51.038l.996 1.388a1.31 1.31 0 0 1-.95.888c-4.146-.042-7.85-1.657-11.55-3.276.49-1.353 1.901-.827 2.789-1.37l8.715 2.37z"/><path fill="#858585" d="M196.847 80.921l.436-3.651c1.305-1.495 2.633-2.934 4.931-2.16 1.576 2.903.075 4.782-2.136 6.427-1.005.255-1.904.063-2.683-.639l-.268.183-.28-.16z"/><path fill="#787878" d="M188.598 53.314l.952-.89 5.218.908c.408.496.814.994 1.221 1.492.316.276.422.552.316.828-.107.275-.212.414-.317.414-2.719-.23-5.398-.574-7.39-2.752z"/><path fill="#1A1A1A" d="M208.278 69.562c-.36 2.96.266 6.425-3.827 7.475-.563-.736-.509-1.459.045-2.172l.213-1.371-.05-.554c-.152-.34-.311-.677-.477-1.01.043-.388.205-.717.485-.988h-.003c.413-.421.88-.787 1.241-1.257l2.373-.123z"/><path fill="#8A8A8A" d="M204.496 74.864a786.77 786.77 0 0 0-.045 2.172c-1.728 1.43-.914 3.253-.769 4.972-.675.822-1.548.992-2.54.769-.925-.455-1.436-1.177-1.438-2.228 1.289-1.606 2.716-3.147 2.509-5.441.762-.08 1.523-.162 2.283-.244z"/><path fill="#717171" d="M204.761 57.108a715.97 715.97 0 0 0 1.715 2.697c-2.496-.211-4.845-.875-6.932-2.32.075-1.001.601-1.695 1.471-2.155 1.769-.507 2.956.216 3.746 1.778z"/><path fill="#868686" d="M200.91 56.166l-1.366 1.318-3.557-1.418.001-1.242 2.502-.052c1.407-.579 2.057.159 2.42 1.394z"/><path fill="#8C8C8C" d="M179.837 48.667l-2.788 1.37c-1.257-.406-2.511-.813-3.768-1.218.922-.432 1.845-.864 2.769-1.295 1.262.381 2.524.763 3.787 1.143z"/><path fill="#646464" d="M212.224 61.096l1.332-.324c1.443-.582 2.411-.296 2.594 1.421-.314 1.436-1.468 1.469-2.593 1.55-.858-.674-1.412-1.501-1.333-2.647z"/><path fill="#282828" d="M212.04 64.687c-.161 2.24-1.334 3.551-3.567 3.89.689-1.755 1.228-3.646 3.567-3.89z"/><path fill="#262626" d="M204.668 70.941l.025 1.314c.298.273.393.54.283.802-.106.259-.212.389-.315.389l.047.048c-1.004-.835-1.06-1.685-.04-2.553z"/><path fill="#272727" d="M205.906 69.684l-1.241 1.257 1.241-1.257z"/><path fill="#CECECE" d="M243.137 150.535l1.25 2.329c-.078.293-.158.584-.237.877-.554 5.026-.394 10.105-1.168 15.114-2.705 5.019-7.701 8.049-10.947 12.597-2.77-2.401-.779-5.552-1.305-8.219.228-.708-.098.316-.005-.506.029-.249.046-.069-.006.537-.207 2.427.568 5.76-3.91 4.386-.916-.484-1.871-.744-2.924-.402-2.283.123-3.832-1.921-6.039-2.02-1.432-.045-2.786-.498-4.183-.726-2.673-.981-5.619-1.318-7.871-3.303-1.724-2.128-2.164-4.905-3.609-7.181-.6-.863-1.156-1.756-1.747-2.628-.757-1.104-1.652-2.179-.795-3.632l.018-.076c1.805-2.955 4.594-5.098 6.535-7.945.855-.867 1.875-1.399 3.091-1.526 2.302-.175 4.246 1.275 6.482 1.431 2.038.389 3.751-.921 5.665-1.08.919.488 1.698.257 2.376-.526a4.715 4.715 0 0 1 1.53-.511c1.198-.072 2.261.228 3.141 1.064 1.194 1.907-.177 3.934.428 5.496-.343.844-.089.746-.104.104-.054-2.515.154-4.852 2.66-6.242.54-.518 1.151-.949 1.776-1.333.756-.661.587-1.784 1.207-2.51 2.239-.058 4.417.125 6.266 1.594 1.092 1.471 2.554 2.756 2.425 4.837z"/><path fill="#CECECE" d="M203.375 162.731c1.934 2.151 3.743 4.347 2.573 7.555 1.089 1.504 2.946 2.603 2.564 4.879-2.905 1.273-5.812 2.546-8.718 3.817-3.577.1-5.927-1.628-7.262-4.873 1.448-5.85 5.166-9.548 10.843-11.378z"/><path fill="#E6E6E6" d="M245.631 165.23l.024 2.448-2.406-1.126c-.692-4.662-2.379-9.407 1.142-13.718l-.004.029c2.468 3.917.663 8.262 1.244 12.367z"/><path fill="#D9D9D9" d="M193.506 173.926l6.287 5.057c-.881.377-1.762.754-2.646 1.13-2.826.226-4.866-1.862-7.394-2.521l.084.047c-.847-.888-1.895-1.661-1.758-3.107.506-1.391 1.595-1.885 2.972-1.939 1.008.097 1.823.547 2.455 1.333z"/><path fill="#EBEBEB" d="M218.262 174.104l6.146 2.434c.812-.088 1.522.146 2.151.656 1.142 1.013 3.01 1.165 3.492 2.955.025.568-.21.991-.705 1.271-4.441.008-7.421-3.215-11.047-5.008-.71-.758-.724-1.527-.037-2.308z"/><path fill="#F6F6F6" d="M208.513 175.165c-2.361-.835-3.022-2.563-2.564-4.879 2.866.837 5.733 1.67 8.6 2.506.456.891-.002 1.474-.666 1.989-1.001.439-2.07.354-3.121.392l-2.249-.008z"/><path fill="#CBCBCB" d="M244.391 152.835c-2.21 4.42-.948 9.13-1.144 13.718l-.264 2.305c-1.027-5.475-3.322-11.058 1.408-16.023z"/><path fill="#B5B5B5" d="M229.346 181.42a22.385 22.385 0 0 0-.111-1.063c1.752-2.714-.898-6.767 2.708-8.919.03 3.338.062 6.676.091 10.014-.907.921-1.794.148-2.688-.032z"/><path fill="#ADADAD" d="M189.754 177.592c2.889-.399 5.222.829 7.395 2.521-.743.49-1.487.983-2.229 1.475-1.723-1.33-3.443-2.663-5.166-3.996z"/><path fill="#D6D6D6" d="M210.761 175.173l2.532-1.207c1.191.93 4.049-.74 3.797 2.438-2.172-.087-4.449.357-6.329-1.231z"/><path fill="#F5F5F5" d="M217.09 176.403l-3.797-2.438 1.255-1.174c1.238.438 2.478.873 3.716 1.313.011.77.022 1.539.035 2.309l-1.209-.01z"/><path fill="#444" d="M165.901 152.794c3.07-2.852 1.016-5.458-.87-7.434-1.793-1.878-2.707-4.047-3.76-6.243l1.221-1.179c1.628.785 2.522-.194 3.472-1.322 2.315-2.755 5.257-4.072 8.899-3.575 5.576 3.109 10.327 7.118 13.733 12.595.319.463.342.949.108 1.455a4.19 4.19 0 0 1-1.148 1.056c-1.224.414-2.325 1.105-3.502 1.629-2.132.952-4.002 2.341-5.969 3.571-1.544.983-3.09 1.967-4.522 3.121-1.109.882-2.31 1.507-3.785 1.368-1.819-1.276-3.241-2.857-3.877-5.042z"/><path fill="#636363" d="M197.072 143.945c-.72-3.579-4.771-4.217-6.271-7.106-.563-5.863 2.631-9.337 11.297-12.298 3.063.425 4.149 3.326 6.248 4.973.776.998 1.359 2.086 1.608 3.339.171.945.132 1.887-.066 2.824-.909 2.686-2.06 5.232-4.294 7.126a76.303 76.303 0 0 1-3.296 1.91c-1.911.894-3.742 1.239-5.226-.768z"/><path fill="#676767" d="M202.26 125.516c-3.395 4.204-10.256 4.9-11.458 11.322-2.302-1.353-4.51-2.821-6.104-5.032 1.563-5.604 7.567-7.346 10.338-11.907 1.021-.583 2.247-.619 3.266-1.228a8.224 8.224 0 0 1 1.688-.624 3.873 3.873 0 0 1 2.618.759c.472.441.82.965 1.061 1.563.177.618.254 1.248.248 1.89-.022 1.355-.445 2.506-1.657 3.257z"/><path fill="#6A6A6A" d="M195.992 120.575c-1.667 5.854-6.901 8.118-11.295 11.23l-2.585-2.08c-.647-6.039 4.597-7.433 8.063-10.233 2.013-.037 4.143-.703 5.817 1.083z"/><path fill="#494949" d="M174.863 133.042c-2.515 2.351-6.675 2.104-8.463 5.948-.784 1.691-2.765.109-3.908-1.051l8.609-8.587 3.762 3.69z"/><path fill="#6E6E6E" d="M178.484 126.861a8008.234 8008.234 0 0 0-6.254-4.942c3.063-4.82 7.871-1.644 11.78-2.569 1.026.027 2.052.077 2.964.633-.794 4.801-4.492 6.023-8.49 6.878z"/><path fill="#6C6C6C" d="M178.484 126.861c2.082-3.303 5.706-4.439 8.823-6.286.828-.659 1.655-.659 2.481.003-1.562 3.886-6.116 5.257-7.677 9.144l-3.627-2.861z"/><path fill="#A8A8A8" d="M197.072 143.945c1.921.589 3.45-.214 4.878-1.375 3.746 2.412 1.629 4.332-.516 6.262-1.25.647-2.571.731-3.935.485a5.782 5.782 0 0 1-3.174-2.208c-.442-.972-.254-1.85.397-2.663l2.35-.501z"/><path fill="#767676" d="M184.818 120.567c-4.214.281-8.577-.831-12.588 1.351-1.078-.813-2.158-1.625-3.235-2.438l-.28-.001c5.105-1.602 10.33-.458 15.496-.667.835.367 1.036.951.607 1.755z"/><path fill="#B5B5B5" d="M194.724 144.446c.011.727.019 1.454.027 2.181-.726 1.57-2.14 1.942-3.672 2.117-1.303-.161-2.229-.779-2.542-2.125.128-.321.148-.648.06-.982 2.042-.398 4.085-.795 6.127-1.191z"/><path fill="#9C9C9C" d="M172.438 155.556c.79-2.397 2.655-3.445 4.956-3.944 2.587.677 4.082-1.627 6.19-2.27.867-.233 1.735-.429 2.644-.305 1.423.525 2.896.985 3.538 2.58-9.014 7.2-14.806 17.204-22.319 25.711-.761.861-.934 2.477-2.629 1.321-1.137-1.016-.591-2.263-.478-3.452.024-.915-.032-1.847.548-2.647l.017.123c1.99-2.691 2.535-5.987 3.772-8.993 1.111-2.776 2.967-5.204 3.761-8.124z"/><path fill="#C2C2C2" d="M196.271 153.006l-1.604-1.259c-.795-.402-1.59-.807-2.383-1.212-.13-.297-.259-.592-.387-.889.127-.678.503-1.165 1.126-1.461 2.604-.705 5.092.561 7.662.456.568.402.883.949.948 1.641-.665 3.12-2.819 3.307-5.362 2.724z"/><path fill="#E3E3E3" d="M164.985 175.133c-.056 1.173-.108 2.346-.164 3.518l-1.212 2.562-2.143-1.106c-.943-2.489 2.452-2.84 2.406-4.888.309-.857.68-.886 1.113-.086z"/><path fill="#B9B9B9" d="M189.767 151.616c-1.369-.046-2.763-.019-3.755-1.223.114-.972.634-1.646 1.509-2.061 2.023-.417 3.363.808 4.729 1.97 0 0 .035.229.034.232-.84.362-1.679.723-2.517 1.082z"/><path fill="#D4D4D4" d="M197.242 94.504c-2.321-2.147-.972-4.962-1.359-7.461-.783-1.284-.574-2.243.912-2.786 2.703.813 2.308 4.149 4.442 5.435.396.518.658 1.091.815 1.721.2 1.797-.251 3.245-2.108 3.936-1.04.163-1.934-.142-2.702-.845z"/><path fill="#FFF" d="M197.242 94.504l2.377.773c2.922.029 3.659 2.038 4.009 4.409-.027.984-.338 1.866-.972 2.625-1.029.873-2.201 1.06-3.479.702a4.004 4.004 0 0 1-1.445-1.001c-.885-1.158-.769-2.738-1.622-3.918l.178-.29a4.5 4.5 0 0 0-.752-.808c.206-.235.442-.268.708-.101.375-.426 1.338-.484.894-1.424a1.023 1.023 0 0 1 .104-.967z"/><path fill="#252525" d="M197.201 84.53c-.44.837-.88 1.675-1.318 2.513-1.131-.999-1.108-2.353-1.138-3.691l2.308-1.215c.807.75.8 1.551.148 2.393z"/><path fill="#EDEDED" d="M197.138 95.472c1.034 1.311-.19 1.204-.894 1.424-.293-.845.309-1.129.894-1.424z"/><path fill="#222" d="M173.658 110.647c-3.18-.646-6.354-1.322-9.54-1.926-2.392-.454-4.355-1.25-4.134-4.225 4.923-2.784 9.954.222 14.063 1.372 6.331 1.771 13.898 1.713 18.838 7.658 1.977 2.382 3.071.84 3.104-1.644.448-.423.976-.554 1.574-.436.847.379 1.418 1.002 1.69 1.893.105.932-.107 1.734-.945 2.275-3.489 1.995-7.313.985-10.999 1.228-4.317-2.579-9.871-2.433-13.651-6.195z"/><path fill="#2B2B2B" d="M197.077 111.898l-1.088-.017c-.007-2.881-.017-5.761-.024-8.64.01-.349.012-.697.012-1.046.389-1.313 1.076-2.09 2.565-1.442l.045 1.281c.705 1.174.547 2.467.507 3.744-.235 2.185.55 4.705-2.017 6.12z"/><path fill="#010101" d="M216.149 62.193l-2.594-1.421c-.443-3.847-.479-7.619 2.007-10.928-.595-1.079-.101-2.201-.108-3.336-1.052.976-1.896 2.044-2.312 3.403-.315 1.202-1.152 1.915-2.244 2.387-3.759-1.343-3.226-3.637-1.381-6.223 3.284-5.04 6.466-10.226 13.71-9.625.445.33.892.658 1.339.986 1.857 3.95 4.963.582 7.38 1.263 1.698 3.242 3.331.944 4.979-.059 3.568-.226 7.015.024 9.869 2.553 1.541 2.665 2.837 5.4 2.496 8.611-1.256 4.669-3.186 3.938-5.399.688.361 2.906 5.33 2.932 4.253 6.776l1.155 6.171-2.527 5.005-1.182 1.138c-1.854 1.171-3.502 2.768-5.894 2.821-1.734-.201-2.742-1.527-3.947-2.554-.238-4.884-4.796-5.434-7.687-7.658-.687-.81-1.564-1.478-1.881-2.51.061-.251-.006-.5.007-.515.458-.493.2-.793-.168-.373-.687.782-1.57 1.015-2.438 1.362-1.263.516-2.72-.117-3.937.669-1.164.457-2.331.913-3.496 1.369z"/><path fill="#242424" d="M248.145 57.268c-1.387-2.702-4.397-3.619-6.29-5.731-1.192-1.33-2.497-2.851-1.689-4.923.412-1.056 1.369-1.567 2.446-1.507 2.246.126 3.338 1.888 3.567 3.662.393 3.036 1.123 3.522 3.112 1.036l1.281 1.288c.828-.277 1.658-.936 2.486.003-2.775 1.153-3.741 3.744-4.913 6.172z"/><path fill="#BFBFBF" d="M199.641 157.76c.831.833 1.662 1.664 2.494 2.495-3.019 5.225-6.616 9.921-11.946 13.029-1.844.245-3.729.892-5.37-.613 5.056-4.857 7.666-12.143 14.822-14.911z"/><path fill="#B7B7B7" d="M196.271 153.006l4.735-2.717c2.092-1.851 4.157-1.885 6.195.087-.597 4.415-3.783 6.156-7.543 7.308-.059-2.334-2.886-2.665-3.387-4.678z"/><path fill="#D9D9D9" d="M184.818 172.671l6.187.063c.317.24.434.494.349.759-.087.271-.179.405-.278.405l-2.523 1.109c-1.283.988-1.782-.197-2.46-.887l-1.29-.145.015-1.304z"/><path fill="#1F1F1F" d="M184.832 119.245c-5.372.08-10.743.157-16.116.235 6.636-2.985 13.636-.638 20.424-1.4 3.152-.354 6.571 1.033 9.408-1.418 1.847.291 2.129 1.213 1.08 2.675l-.577-.071-.58.064c-4.552.949-9.099 1.066-13.639-.085zM173.658 110.647c4.563 2.037 10.487 1.076 13.651 6.195-5.551.138-10.565-.904-13.651-6.195z"/><path fill="#E9E9E9" d="M199.628 119.337c.032-1.05.181-2.148-1.08-2.675a1.304 1.304 0 0 0-.239-1.048l-.052-2.153c-.606-1.311.148-1.766 1.258-2.002 2.804.698 3.515 2.94 3.976 5.374-.007 1.065-.339 2.001-1.124 2.749-.913-.083-1.824-.164-2.739-.245z"/><path fill="#383838" d="M209.518 46.075c.217 2.129-.538 4.472 1.381 6.223-2.506 1.019-5.001 2.049-6.138 4.81-1.284-.314-2.567-.629-3.851-.942l-2.42-1.394c3.428-2.031 4.259-6.178 7.186-8.741 1.749-1.532 2.57-1.33 3.842.044z"/><path fill="#1D1D1D" d="M239.408 70.955l6.183-1.371c-1.22 1.655-2.438 3.31-3.657 4.966a6.489 6.489 0 0 1-1.219-.118c-1.088-.914-2.334-1.769-1.307-3.477z"/><path fill="#C7C7C7" d="M169.793 163.834c-.741 3.438-1.481 6.874-4.888 8.838l1.042-6.211c.106-2.089 1.641-3.35 2.798-4.829.808.515.816 1.412 1.048 2.202z"/><path fill="#E9E9E9" d="M169.793 163.834c-.349-.734-.698-1.469-1.048-2.202l1.033-3.796c.543-1.161 1.272-2.103 2.66-2.28 2.128 3.722-1.884 5.48-2.645 8.278z"/><path fill="#0D0D0D" d="M198.542 100.754c-.855.479-1.71.958-2.565 1.439-1.616-1.417-.481-2.749.132-4.098 1.418.331 3.309.231 2.433 2.659z"/><path fill="#EEE" d="M197.201 84.53c-.05-.798-.1-1.596-.148-2.394.113-.413.229-.825.342-1.238l2.31-.349 1.558 1.516c.345.542.555 1.132.635 1.77-.534 2.382.235 5.187-2.238 6.945-2.709-1.341-2.169-3.959-2.459-6.25z"/><path fill="#B2B2B2" d="M186.092 174.121l2.458.888c.431.875.859 1.752 1.288 2.63l-3.782-1.211c.011-.77.024-1.537.036-2.307z"/><path fill="#A7A7A7" d="M164.985 175.133l-.561-.017-.552.102c-.373-1.161.039-2.021 1.017-2.668.033.86.065 1.721.096 2.583z"/><path fill="#919191" d="M234.446 144.104c2.713 3.31 2.713 3.31.003 3.761-1.351-.726-3.761.482-4.034-2.21.45-1.35 2.033-.84 2.786-1.695.387-.339.774-.681 1.16-1.023.073.385.103.775.085 1.167z"/><path fill="#E8E8E8" d="M243.137 150.535c-1.365-1.332-2.218-2.922-2.425-4.836l2.396.999c.402.487.805.974 1.21 1.461l-1.181 2.376z"/><path fill="#BDBDBD" d="M227.12 85.48l1.174 1.447c.921 1.188 1.149 2.712 1.929 3.967 4.093 2.264.35 6.053 1.724 8.846-.41 1.137-.816 2.273-1.227 3.409-1.483 1.704-1.103 3.752-1.052 5.749a5.152 5.152 0 0 1-.674 1.73c-1.02 1.444-2.286 2.344-4.166 1.912a3.284 3.284 0 0 1-1.524-1.331c-1.661-7.433-.058-14.742.876-22.068.22-1.729 1.182-3.066 2.94-3.661z"/><path fill="#1D1D1D" d="M232.014 85.821c1.218-2.07 2.842-3.735 4.917-4.955 1.136-.297 1.729-.063 1.215 1.248-1.819 1.609-3.588 3.3-6.132 3.707z"/><path fill="#080808" d="M238.146 82.115c-.406-.416-.812-.832-1.215-1.248l1.221-3.815c-.795-1.538-.851-2.642 1.403-2.393-.098.39-.109.781-.032 1.175-.021 1.646-.041 3.293-.063 4.939l-1.314 1.342z"/><path fill="#C8C8C8" d="M230.223 90.894c-1.878-.721-2.008-2.292-1.929-3.967.39.129.788.178 1.195.146.702 1.185 1.844 2.287.734 3.821z"/><path fill="#555" d="M235.735 121.819c1.227.006 2.453.013 3.679.021 2.449 1.958.729 3.207-.518 4.975-3.05 4.321-7.351 7.936-8.186 13.595-1.496.219-2.293 1.095-2.444 2.586.222 1.161-.435 1.514-1.435 1.559-.915-.243-1.613-.779-2.145-1.552a5.12 5.12 0 0 1-.604-1.722c-.12-1.214-.131-2.429.119-3.633.991-2.241.979-4.627.988-7.012.04-.603.177-1.185.394-1.75 2.455-2.708 1.953-6.833 4.52-9.496 1.449-.99 2.836-.749 4.184.219.61.651.83 1.561 1.448 2.21z"/><path fill="#A5A5A5" d="M226.99 143.948l1.276-.953 4.935.967-2.486 1.466c-.576 1.337-1.521 2.021-3.029 1.707-1.368-.813-1.628-1.87-.696-3.187z"/><path fill="#707070" d="M235.735 121.819c-.468-.389-.934-.779-1.402-1.167-1.49-1.773-2.126-3.725-1.253-5.993.533-1.016 1.229-1.78 2.518-1.626.356 1.25.711 2.5 1.064 3.751-1.338 1.489-.744 3.333-.927 5.035z"/><path fill="#BDBDBD" d="M235.598 113.033l-1.145 1.358c-.997.899-2.103 1.494-3.51 1.261-2.278-.564-2.971-2.231-3.013-4.346a2.02 2.02 0 0 1 .23-1.793l.221-.322c.893-.639.012-3.099 2.333-2.271l2.407.007c.829-.264 1.653-.88 2.495-.022l1.22.018c.126 2.146-1.9 3.855-1.238 6.11z"/><path fill="#C6C6C6" d="M230.715 106.92l-2.335 2.272c-.272-2.423-.145-4.689 2.34-6.043l-.005 3.771z"/><path fill="#989898" d="M235.617 106.905c-.83.211-1.655.914-2.494.022.267-.866.505-2.462.812-2.476 1.558-.068 1.47 1.365 1.682 2.454z"/><path fill="#2F2F2F" d="M239.555 74.659l-1.403 2.394c-1.842-2.055-1.505-4.836-2.401-7.204l3.658 1.106 1.306 3.478c-.373.146-.76.222-1.16.226z"/><path fill="#B8B8B8" d="M227.12 85.48c-2.176 8.682-2.686 17.526-2.58 26.431 1.181.881 1.642 2.382 2.836 3.25a8.121 8.121 0 0 1 1.77 1.441c.752.88.99 1.911.899 3.041-.331 1.737-1.41 3.094-2.296 4.551-2.784 2.754-5.618 5.431-9.589 6.415a4.774 4.774 0 0 1-2.684-.37c-2.587-1.755-2.169-4.376-1.454-6.681.872-2.813 1.436-5.443.687-8.41-.552-2.185.541-3.996 2.664-5.025 1.499-.726 3.058-1.417 2.787-3.531a20.648 20.648 0 0 0-1.924-4.965c-.521-1.906-2.283-2.7-3.553-3.939-.495-.763-.64-1.55-.175-2.382.584-.668 1.317-1.063 2.179-1.221 1.112-.255 2.513.281 3.171-1.204 1.886-3.017-1.061-7.764 3.516-9.771 1.548.316 2.769 1.151 3.746 2.37z"/><path fill="#979797" d="M200.782 83.335l.479-1.27 2.421-.057c1.409 1.132 2.384 3.059 4.687 2.546.145.23.292.459.443.687.271 1.387-.031 2.733-.264 4.09a24.607 24.607 0 0 0-.865 6.752c-.15 1.667-.865 2.984-2.334 3.847-.95.394-1.862.371-2.715-.259a3072.097 3072.097 0 0 0-3.016-4.399c1.438-1.251 1.483-2.835 1.078-4.528l.134-.746c.116-1.762.336-3.53-.293-5.251-.139-.508-.07-.98.245-1.412z"/><path fill="#B1B1B1" d="M223.374 83.11c-1.746 3.546 1.175 8.153-2.555 11.249-.386.511-.878.687-1.49.472-.843-.289-1.575-.729-2.091-1.476-2.308-2.954 1.677-7.168-1.977-9.861a3 3 0 0 1-.776-1.414c3.225-1.915 6.364-3.099 8.889 1.03z"/><path fill="#9B9B9B" d="M214.485 82.08l1.391.016c.877 1.713.337 3.133-.904 4.417-1.124.843-2.391 1.032-3.747.821-1.388-.329-2.235-1.245-2.723-2.543l-.133-.236c1.63-1.832 3.47-3.151 6.116-2.475z"/><path fill="#C0C0C0" d="M227.043 59.661c.964.592 1.155 1.495 1.021 2.53l-8.416-1.366c.774-1.583 2.458-.71 3.59-1.328 1.286-.399 2.568-.639 3.805.164z"/><path fill="#2E2E2E" d="M229.278 75.506c-1.501-2.765.46-3.956.225-6.809 1.737 3.046 1.201 4.59-.225 6.809z"/><path fill="#111" d="M214.389 69.246l-1.237-.509c.632-.721 1.235-1.473 1.93-2.129.106-.103.63.234.96.368-.563.772-1.127 1.545-1.653 2.27z"/><path fill="#353535" d="M213.143 49.911c-1.079-.948-1.184-2.128-.628-3.335 1.04-2.259 2.22-4.455 4.952-5.036.883-.188 1.616.255 1.906 1.14.884 2.689-1.114 4.128-2.574 5.792-.405.462-.821.916-1.234 1.373-.809.021-1.615.043-2.422.066z"/><path fill="#A1A1A1" d="M204.661 73.446c.02-.396.03-.793.032-1.19.285.128.572.254.857.381l-.889.809z"/><path fill="#B1B1B1" d="M215.771 151.546c-2.423.124-4.818.176-6.135-2.459-.883-.335-1.501-.921-1.771-1.844-.034-.613.1-1.188.362-1.738 2.611-3.564 5.467-6.913 8.974-9.636 1.694-1.315 3.395-3.169 5.719-.945.334.521.551 1.089.684 1.691.24 1.571-.294 2.975-.95 4.349-.894 2.107-2.069 4.08-3.007 6.172-1.118 1.622-1.926 3.521-3.876 4.41z"/><path fill="#C6C6C6" d="M191.075 173.898a22.776 22.776 0 0 1-.07-1.164c3.373-4.462 6.339-9.285 11.132-12.479.412.826.826 1.65 1.238 2.477-3.063 3.93-7.335 6.797-9.869 11.194l-2.431-.028z"/><path fill="#C9C9C9" d="M215.771 151.546c1.079-1.465.048-3.94 2.313-4.836 2.064-.768 1.952-3.146 3.297-4.451.568-.645 1.172-1.236 2.042-1.458.926-.104 1.699.202 2.344.862.169.373.314.757.438 1.148-.479 2.147.21 4.625-1.801 6.334-.381-.005-.76-.017-1.139-.031-.492-.354-.554-.918-.699-1.44.084.581-.043 1.079-.563 1.423-1.608 2.007-3.687 2.82-6.232 2.449z"/><path fill="#ACACAC" d="M231.942 171.438c-2.443 2.505.076 6.515-2.706 8.919l-3.29-2.774c.177-.53.525-.896 1.046-1.102 2.89.732 2.331-1.432 2.392-2.938.115-2.891.442-5.646 3.279-7.795 1.819 2.456-.259 3.971-.721 5.69z"/><path fill="gray" d="M224.405 149.145c.034-2.273.218-4.502 1.801-6.334.261.381.522.76.784 1.139.429.945.858 1.893 1.284 2.838 1.187.407 1.845 1.128 1.483 2.465-.479.357-.974.357-1.479.053l-3.873-.161z"/><path fill="#A7A7A7" d="M208.379 146.579l1.258 2.508-2.436 1.289c-2.08 1.026-4.129-.184-6.196-.086-.052-.332-.104-.663-.152-.994.684-1.232 2.081-1.624 3.012-2.569.931-.647 1.972-.901 3.093-.887a2.56 2.56 0 0 1 1.421.739z"/><path fill="#DADADA" d="M228.279 149.306c.386-.137.764-.292 1.134-.467 1.271-1.063 2.521-.841 3.762.06-3.963 1.513-3.28 5.962-5.704 9.569.327-3.696.566-6.429.808-9.162z"/><path fill="#838383" d="M233.175 148.898c-1.253-.02-2.509-.039-3.762-.06l-1.139-2.051 2.44-1.359 3.734 2.438-1.273 1.032z"/><path fill="#B6B6B6" d="M226.992 176.481l-1.046 1.102c-.512-.35-1.025-.697-1.536-1.045l-1.479-3.228c2.485-.004 3.166 1.715 4.061 3.171z"/><path fill="#E0E0E0" d="M222.005 149.096l.886-1.09.376 1.107c.354.669.71 1.335 1.064 2.004-1.783.486-1.983-.851-2.326-2.021z"/><path fill="#AFAFAF" d="M183.583 150.362c-1.819 1.616-3.615 3.357-6.188 1.249 2.076-1.173 4.156-2.343 6.232-3.516.681.769.692 1.525-.044 2.267z"/><path fill="#C1C1C1" d="M183.583 150.362l.044-2.267c1.07-.928 2.204-1.672 3.729-1.256.669.71.664 1.418-.009 2.123-.446.476-.89.953-1.335 1.431l-2.429-.031z"/><path fill="#DDD" d="M187.347 148.962l.009-2.123a2.606 2.606 0 0 1 1.182-.221l2.526 1.215c.394-.42.845-.517 1.361-.241.303.486.273.952-.085 1.398-.028.438-.061.875-.091 1.312l-4.902-1.34z"/><path fill="#A7A7A7" d="M222.078 105.639c2.152 2.707.403 4.44-1.853 5.143-3.634 1.131-4.074 3.217-3.245 6.474 1.04 4.084-2.187 7.865-1.133 12.016-.847 4.442-3.755 4.708-7.331 3.621l-1.35-2.625a1.9 1.9 0 0 1-.509-1.374c1.247-2.005-.641-3.143-1.294-4.631a3.03 3.03 0 0 1 .199-1.589c.918-2.408 5.461-2.021 4.49-5.872-2.294-8.787.432-11.314 12.026-11.163z"/><path fill="#959595" d="M208.517 132.892l7.331-3.621 2.383-.147c.199-.033.518-.162.58-.085 2.757 3.467-.336 5.778-2.29 7.188-2.365 1.704-4.027 7.219-8.608 3.003-.085-1.257-.483-2.558.479-3.682.04-.886.083-1.772.125-2.656z"/><path fill="#B7B7B7" d="M207.15 146.688c-.94.456-1.882.91-2.823 1.364-1.173.467-2.335.839-3.315-.38 1.096-1.555 2.379-3.075.938-5.099l2.565-1.12c2.58.89 4.271 2.226 2.635 5.235z"/><path fill="#D9D9D9" d="M207.15 146.688l-2.635-5.235c2.462-1.201 1.68-4.53 3.875-5.905.07 1.218.142 2.437.214 3.655 1.414 2.511 1.855 4.999-.184 7.424l-.042-.048c-.407.055-.816.092-1.228.109z"/><path fill="#CECECE" d="M207.188 129.248a3.202 3.202 0 0 0-.021 1.02c-2.619-.569-3.307-3.131-4.907-4.752-.015-1.287-.03-2.572-.048-3.857 1.845-1 3.021-.385 3.67 1.514.073.385.16.77.261 1.149 1.308 1.439 2.236 2.958 1.045 4.926z"/><path fill="#0E0E0E" d="M205.882 123.172l-3.67-1.514 1.132-1.562c-1.044-3.435 1.762-3.617 3.772-4.485 1.811-.391 3.414.265 5.004 1 1.718 1.444 2.321 2.863-.229 4.025-1.976.903-4.004 1.696-6.009 2.536z"/><path fill="#717171" d="M184.832 119.245l13.639.084-2.479 1.246a12834.014 12834.014 0 0 1-8.684 0l-2.489-.008.013-1.322z"/><path fill="#1F1F1F" d="M207.184 117.106c-1.033 1.319-3.48.822-3.842 2.994a1.658 1.658 0 0 0-.976-.52l.064-2.688c.863-1.216 2.046-1.423 3.406-1.082a2.435 2.435 0 0 1 1.348 1.296z"/><path fill="#7D7D7D" d="M201.012 147.671l3.318.379c-.878 1.206-2.277.944-3.478 1.245-2.837-.103-5.675-.203-8.513-.304a4.124 4.124 0 0 1-.398-1.071c1.733-1.048 3.503-.866 5.286-.149 1.262-.033 2.523-.065 3.785-.1z"/><path fill="#9D9D9D" d="M197.228 147.771c-1.762.051-3.523.1-5.285.149l-.446.021-.433-.106c.964-1.213 2.348-1.141 3.688-1.207l2.476 1.143z"/><path fill="#D2D2D2" d="M200.782 83.335c.102.431.204.861.308 1.291.824 2.044.648 4.096.05 6.151l-.442-.032c-.347.021-.691.034-1.038.034.163-2.512-.69-5.179 1.122-7.444z"/><path fill="#9E9E9E" d="M197.259 104.457l1.328-2.422 3.333-.129c4.304-1.104 4.074 1.04 2.816 3.928-1.221.942-2.563.98-3.968.523-1.384-.229-2.52-.926-3.509-1.9z"/><path fill="#B0B0B0" d="M203.499 105.757c1.681-2.187.901-3.367-1.578-3.851.236-.745.475-1.49.712-2.234l2.004-.082c1.159.077 1.963.684 2.513 1.674.729 3.298 1.157 6.453-3.454 7.18-.911-.833-.915-1.733-.197-2.687z"/><path fill="#CCC" d="M197.259 104.457l3.534.027c1.077 2.761 1.639 5.435-1.289 7.508l-1.247 1.469-1.18-1.562.182-7.442z"/><path fill="#4D4D4D" d="M237.188 47.197c-1.631-2.707-4.126-3.847-7.197-4.08 3.766-1.171 6.566-.498 7.197 4.08z"/><path fill="#2A2A2A" d="M227.043 59.661l-3.806-.164c1.708-2.004 3.416-4.009 5.126-6.013 1.172 2.909-1.641 3.987-1.32 6.177z"/><path fill="#171717" d="M226.607 45.834c-.442.479-.938 1.011-1.432 1.543-.153-.324-.519-.764-.418-.953.331-.619.834-1.146 1.27-1.708.16.307.32.614.58 1.118z"/><path fill="#9C9C9C" d="M199.504 111.992c.151-2.551-.196-5.188 1.291-7.508.899.424 1.801.849 2.704 1.273-.015.77-.027 1.539-.042 2.308 1.56 1.118 2.261 2.807 2.985 4.483.611 1.528.756 2.999-.528 4.293l-3.483.052c-2.096-.965-1.76-3.382-2.927-4.901z"/><path fill="#585858" d="M228.144 116.71l-2.423.21c-.78-1.69-.996-3.367.126-5.01l2.314-2.397.315 1.237c.446 2.018.984 4.041-.332 5.96z"/><path fill="#C9C9C9" d="M225.847 111.91l-.126 5.01c-2.579-1.155-.64-3.375-1.181-5.01h1.307z"/><path fill="#9C9C9C" d="M208.421 146.627c.061-2.475.121-4.95.184-7.424 4.846-1.795 8.363-4.858 9.626-10.076l8.733-6.017c3.645 2.097-.046 4.32.111 6.475.1.332.06.647-.118.945-.682.775-.972 1.778-1.542 2.622-.771 1.268-1.094 3.183-3.341 2.304-6.074 1.863-8.345 8.373-13.653 11.171z"/><path fill="#BEBEBE" d="M227.075 129.584c-1.687-2.13 1.528-4.345-.11-6.475.841-1.261 1.683-2.522 2.523-3.784l.652-.323.653.319c-1.045 3.491-.024 7.731-3.718 10.263z"/><path fill="#636363" d="M230.951 114.445l3.502-.053c-.038 2.086-.077 4.173-.118 6.258-1.181-.442-2.361-.885-3.541-1.329l-.481.049c-.836-1.777-1.097-3.481.638-4.925z"/><path fill="#B5B5B5" d="M224.559 131.735c.799-.401 1.599-.803 2.398-1.206.101 2.634.819 5.345-.951 7.75-1.082-.16-1.79-.784-2.201-1.775.161-1.603-.347-3.313.754-4.769z"/><path fill="#BFBFBF" d="M224.567 136.714l1.438 1.565-.237 3.383-2.36.028c-1.278-.856-1.026-2.049-.72-3.254.304-.924.875-1.562 1.879-1.722z"/><path fill="#D5D5D5" d="M230.951 114.445l-.639 4.926-.41-.053-.414.008c-.447-.872-.896-1.743-1.345-2.615-1.629-2.084.669-3.949.333-5.96.827 1.23 1.65 2.462 2.475 3.694z"/><path fill="#A4A4A4" d="M205.914 116.841c-.409-1.229-.821-2.459-1.232-3.688.645-4.386 3.382-8.516 1.613-13.204.168-2.063 1.129-3.557 3.08-4.356 1.285-.317 2.523-.244 3.678.462.67.559 1.098 1.268 1.256 2.117.056.621-.078 1.253-.011 1.843.396.138.746.188 1.154.079 1.551-.502 3.019-.702 4.235.654 3.365.375.919 3.59 2.39 4.891-3.411 1.287-5.375 6.628-10.456 3.524-.904-.553-1.289 1.169-1.019 2.196.468 1.761 1.008 3.503 1.518 5.252-1.512 1.493-3.175 1.484-4.937.495l-1.269-.265z"/><path fill="#FFF" d="M210.768 100.68l2.524-1.48c.917-.663 1.7-1.491 2.656-2.103 2.145.299 4.231.654 3.739 3.651l-4.98 1.259c-1.785.959-2.86-.189-3.939-1.327z"/><path fill="#505050" d="M213.346 96.578l-3.612.362c-.499-.496-.626-1.074-.382-1.736.815-1.624 2.211-2.288 3.944-2.396 1.322-.041 2.592.101 3.62 1.063.498.542.534 1.117.111 1.721l-2.243.383c-.346.519-.825.72-1.438.603z"/><path fill="#8F8F8F" d="M213.346 96.578l1.438-.603 1.164 1.122c-.479 1.214-1.084 2.271-2.656 2.103l.054-2.622z"/><path fill="#686868" d="M217.027 95.592a8.856 8.856 0 0 0 0-.936c.721-.955 1.599-.775 2.511-.347l1.281.05c-.319 3.318-2.642.471-3.792 1.233z"/><path fill="#9B9B9B" d="M208.502 84.791l2.275 1.045c.715.678 1.347 1.416 1.667 2.373.604 2.894-.123 5.192-2.929 6.559-.648.235-1.253.148-1.81-.259-1.479-1.948-1.648-4.015-.552-6.194-1.078-1.76.226-2.608 1.349-3.524z"/><path fill="#9B9B9B" d="M209.709 95.795c-.075.383-.068.765.024 1.145-1.586.765-2.453 2.022-2.578 3.782-.411.614-.819.613-1.226-.004l-1.291-1.129 1.275-3.831c.673-.715 1.073-1.967 2.471-1.246l.008.004c.542.322 1.234.486 1.317 1.279z"/><path fill="#9B9B9B" d="M208.385 94.513l-2.471 1.246c.248-2.51-.721-5.221 1.24-7.445-.102 2.167.159 4.264 1.231 6.199z"/><path fill="#8D8D8D" d="M201.14 90.778c-.018-2.051-.034-4.102-.05-6.151 3.063 2.025.698 4.095.05 6.151z"/><path fill="#AAA" d="M214.658 85.987l1.217-3.891c3.059.044 3.904 1.566 3.272 4.458-.48 2.194-.56 4.475-.817 6.717-4.158-.556-4.221-.679-3.672-7.284z"/><path fill="#A8A8A8" d="M214.658 85.987c3.04 1.514.073 6.054 3.672 7.285l1.208 1.038-2.511.346-3.657-.351c-2.139-1.452-.181-4.611-2.496-5.988a694.55 694.55 0 0 0-.097-2.481l3.881.151z"/><path fill="#787878" d="M222.254 143.204c-1.932.523.067 5.719-4.169 3.506l2.854-6.13c2.485-.151 1.559 1.406 1.315 2.624z"/><path fill="#898989" d="M222.254 143.204l-1.316-2.627c.388-1.274.773-2.549 1.16-3.826 1.178-.261 1.812.029 1.396 1.38-.028 1.185-.06 2.373-.088 3.558-.385.505-.769 1.009-1.152 1.515z"/><path fill="#959595" d="M223.494 138.131l-1.396-1.38c-.009-.432-.017-.863-.023-1.295.827-1.241 1.654-2.48 2.484-3.721.002 1.66.005 3.319.009 4.979-.358.473-.715.946-1.074 1.417z"/><path fill="#A2A2A2" d="M207.188 129.248c-.827-1.54-1.56-3.101-1.048-4.926 1.439.068 2.92.188 3.244 1.958.306 1.668-.594 2.621-2.196 2.968z"/><path fill="#979797" d="M205.93 100.718l1.226.004c1.892 3.614-.227 7.418.49 11.152.27 1.402-1.816 1.118-2.964 1.278-.407-1.695-.817-3.39-1.225-5.086 3.301-1.616 2.31-4.677 2.473-7.348z"/><path fill="#202020" d="M210.768 100.68l3.939 1.327c-.346.824.061 2.613-1.291 2.175-1.335-.432-3.445-1.095-2.648-3.502z"/><path fill="#A4A4A4" d="M210.874 88.316c5.524.04 1.876 3.903 2.495 5.988-1.221.496-2.439.994-3.66 1.491l-1.316-1.279c2.637-1.342 2.501-3.794 2.481-6.2z"/></g><g fill-rule="evenodd" clip-rule="evenodd"><path fill="#414141" d="M126.981 77.401v41.316c-3.492 1.204-7.173-1.647-10.701.645-1.844 1.199-4.243 1.577-5.221 3.916-.206.536-.436 1.055-.654 1.582-.97 2.844-.381 5.78-.516 8.67-.01 1.463-.017 2.927.1 4.388.952 3.143-.542 5.696-1.982 8.267-.8 1.569-1.673 3.097-2.694 4.539-.892 1.254-1.917 2.364-3.309 3.081-3.137 1.196-6.073 3.484-9.749 1.852a2.559 2.559 0 0 1-.95-1.528c.041-2.756.764-5.338 2.04-7.773 1.054-1.642 1.977-3.34 2.155-5.344.173-1.407.581-2.773.636-4.199-.005-1.249.197-2.471.458-3.688 2.498-11.607-5.233-20.109-16.918-18.608-6.862.881-10.702 4.966-11.118 11.913-.197 3.296.161 6.625-.568 9.894-1.383 4.39-.297 8.42 1.549 12.447 1.095 2.389 2.142 4.886 1.926 7.646a3.03 3.03 0 0 1-.892 1.47c-3.881 1.722-7.097 4.258-9.425 7.86-2.134 2.615-5.133 3.911-8.066 5.312-5.061 1.607-9.529 4.619-14.596 6.21-2.845.335-4.683 3.54-7.907 2.797v-51.332c4.195-5.786 10.914-8.014 16.556-11.76 9.239-6.749 19.12-12.427 29.416-17.367a60.08 60.08 0 0 0 11.067-6.845c2.165-.838 4.443-1.392 6.478-2.566 2.835-1.404 5.756-2.608 8.697-3.769 2.624-1.065 5.128-2.38 7.634-3.693a39.055 39.055 0 0 0 5.313-2.999c3.647-1.253 6.81-4.878 11.241-2.334z"/><path fill="#444" d="M88.343 93.602c-5.981 6.979-15.171 8.623-22.51 13.415-5.977 3.902-12.392 7.164-18.07 11.571-5.824-1.29-12.006-1.315-17.185-4.879V67.386a2.548 2.548 0 0 1 1.418-.772c1.409-.025 2.703.479 4.022.866 1.299.419 2.592.859 3.9 1.257 2.09.714 4.198 1.379 6.225 2.265 1.99.947 4.113 1.572 6.12 2.477a41.742 41.742 0 0 0 3.811 1.517c1.81.685 3.526 1.572 5.282 2.377a297.039 297.039 0 0 0 8.135 4.038c1.668.906 3.374 1.743 5.083 2.572 1.663.899 3.368 1.713 5.065 2.548 1.453.779 2.931 1.511 4.389 2.284 1.697 1.362 4.285 1.928 4.315 4.787z"/><path fill="#434343" d="M30.578 44.85v-3.756c2.368-2.13 4.964-.943 7.508-.531 2.513.267 4.919 1.038 7.37 1.594 1.741.482 3.49.935 5.287 1.18 2.043.363 4.034.953 6.056 1.411 1.675.458 3.348.93 5.044 1.311 1.377.353 2.719.821 4.076 1.235 2.93.767 5.713 1.993 8.632 2.793.545.062 1.081.171 1.614.289 2.391.57 4.799 1.08 7.123 1.903 1.282.439 2.554.909 3.843 1.331 1.272.433 2.539.886 3.82 1.292 1.269.419 2.528.862 3.803 1.262 1.512.512 3.034.995 4.55 1.5 1.008.349 2.014.707 3.028 1.039l3.847 1.274c2.066.775 4.046 1.769 6.169 2.4 1.354.466 2.711.907 4.071 1.358 3.604 1.909 8.238 2.059 10.562 6.156v6.26c-3.527 1.672-6.546-.291-9.697-1.334-2.432-1.087-4.753-2.392-7.08-3.68-2.014-1.092-4.354-1.401-6.321-2.605-3.022-1.544-6.166-2.793-9.389-3.846-2.094-.789-4.233-1.468-6.265-2.415-1.237-.563-2.52-1.017-3.81-1.444-1.276-.448-2.563-.858-3.85-1.273a97.297 97.297 0 0 0-3.911-1.227c-1.593-.536-3.261-.774-4.873-1.239a341.257 341.257 0 0 0-7.325-2.37c-1.604-.604-3.3-.873-4.942-1.338-1.371-.422-2.737-.862-4.116-1.26-1.663-.579-3.412-.803-5.112-1.23-3.184-.907-6.636-.662-9.666-2.224-1.635-.787-3.425-1.051-5.16-1.504-1.74-.533-3.559-.907-4.886-2.312z"/><path fill="#1A1A1A" d="M104.458 150.035l2.467-3.786c2.272-.834 3.808.691 4.625 2.181 4.296 7.83 11.598 13.488 15.432 21.619v12.521c-2.235.813-3.516-.278-4.39-2.188-2.398-5.894-5.097-11.384-9.573-16.306-3.56-3.916-8.385-7.771-8.561-14.041z"/><path fill="#010101" d="M109.525 122.464c4.888-5.941 9.508-6.933 17.456-3.747v17.527c-3.162 1.687-3.701-1.378-5.141-2.827-3.255-3.278-4.627-8.543-10.057-9.522-.891-.258-1.601-.804-2.258-1.431z"/><path fill="#161616" d="M126.981 170.049c-5.612-5.386-10.608-11.294-14.598-17.977-1.426-2.386-3.034-4.445-5.458-5.823-1.047-2.784 3.884-4.456 1.398-7.508 1.715-1.265 2.728-.167 3.427 1.188 4.197 8.132 10.582 14.784 15.231 22.606v7.514z"/><path fill="#848484" d="M30.578 113.708c5.924.942 12.028 1.251 17.187 4.882-5.731 3.379-11.459 6.761-17.187 10.142v-15.024z"/><path fill="#0B0B0B" d="M108.252 133.752c.223-3.425-1.162-7.022 1.104-10.225 5.99 4.924 10.125 11.398 14.67 17.523.968.919 2.011 1.76 2.955 2.706v1.252c-1.283 1.309-3.049 2.19-3.607 4.135-.876 2.017-2.607 3.543-3.843 1.004-2.957-6.074-8.727-10.12-11.279-16.395z"/><path fill="#FEFEFE" d="M123.022 180.147c.891 1.51 2.449 1.924 3.959 2.422-.374 1.544 1.407 3.876-2.466 3.854-30.899-.178-61.8-.106-92.701-.067-1.083 0-1.469-.229-1.236-1.284 4.058-3.033 8.714-1.657 13.165-1.796 2.548-.087 5.101-.094 7.653-.062 1.082.071 2.166.096 3.251.104 2.186-.007 4.37-.128 6.558-.052 5.247-.054 10.492-.244 15.737-.024 4.561-.137 9.121-.27 13.68-.065 7.361-.015 14.725-.271 22.073.108 3.273.096 6.646.444 8.705-3.019.513-.421 1.056-.441 1.622-.119z"/><path fill="#111" d="M108.252 133.752c4.123 4.976 9.609 8.856 11.979 15.256.695 1.877 1.608 1.642 1.824-.386 3.451-.014 3.283 3.436 4.927 5.151v8.764c-7.146-5.852-11.837-13.583-16.228-21.499-.648-1.168-1.06-2.108-2.431-2.296l-.071-4.99z"/><path fill="#262626" d="M126.981 47.354v5.008c-3.839.845-6.979-1.271-10.349-2.421-2.052-1.169-4.484-1.429-6.506-2.674-3.063-1.885-6.796-1.928-9.944-3.593-1.083-.66-2.007-1.461-2.365-2.746.579-2.694 2.667-3.198 4.951-3.426 1.216.029 2.365.396 3.514.746 1.905.627 3.809 1.273 5.737 1.842 1.376.464 2.801.741 4.207 1.106 3.727 1.805 8.363 2.028 10.755 6.158z"/><path fill="#6C6C6C" d="M126.981 47.354l-11.249-5.045c.721-3.918.38-8.19 3.737-11.23 6.422-1.414 8.744 1.058 7.597 7.527-.502 2.831-.085 5.826-.085 8.748z"/><path fill="#282828" d="M103.313 38.55c-1.992.195-3.734.919-5.121 2.402-.578.79-1.401.984-2.314.968a122.038 122.038 0 0 1-5.082-.877c-1.1-.266-2.1-.771-3.091-1.293-1.433-.812-3.061-1.027-4.617-1.46-1.563-.489-3.179-.776-4.755-1.216-1.332-.42-2.663-.845-3.968-1.354-1.066-.466-2.06-1.032-2.725-2.036-.397-2.259 1.96-1.606 2.757-2.605h8.765c3.587 1.68 7.567 1.56 11.328 2.451 2.948.891 6.025 1.451 8.604 3.304.463.521.533 1.095.219 1.716z"/><path fill="#656565" d="M56.861 46.122l-6.236-1.296c-1.984-4.799-.462-9.28 1.238-13.748h11.268c.306.287.443.602.413.943-.033.355-.09.533-.168.535-.541.652-1.214 1.15-1.895 1.637-1.866 1.731-.679 3.934-.903 5.911-.299 2.601-1.1 4.862-3.717 6.018z"/><path fill="#BDBDBD" d="M44.337 184.907c-4.587.055-9.173.109-13.759.165v-5.008c2.68-.763 3.627-4.648 7.118-3.95.594-.297 1.182-.081 1.791-.038 7.182.501 7.845 1.694 4.85 8.831z"/><path fill="#9A9A9A" d="M117.105 48.545l9.876 3.816v13.772c-3.285.6-5.019-1.763-6.261-3.955-2.403-4.237-4.768-8.586-5.275-13.603.543-.542 1.097-.551 1.66-.03z"/><path fill="#5B5B5B" d="M45.604 43.592l-7.511-1.276c-3.311-3.746-.776-7.493-.002-11.239h8.763c2.22 4.436 1.489 8.576-1.25 12.515z"/><path fill="#040404" d="M126.981 143.756c-1.373-.055-2.848.197-3.756-1.251-.924-6.192-6.581-9.319-9.334-14.348-1.005-1.833-3.792-2.912-1.934-5.685 6.646.174 7.461 6.852 11.255 10.208 1.276 1.129 1.404 3.507 3.769 3.563v7.513z"/><path fill="#7D7D7D" d="M30.578 44.85c1.815-.028 3.698-.369 5.192 1.107 1.174 1.092 3.548 1.519 2.401 3.948-2.467 5.224-3.531 10.852-4.899 16.398-.133.536-.874.82-1.439 1.074l-1.255.008V44.85z"/><path fill="#979797" d="M115.736 48.672c3.068 3.877 3.587 9.012 6.337 12.993 1.224 1.773 3.247 2.996 4.908 4.468v3.756l-11.249-5.051c1.455-3.643-.855-6.683-1.617-9.964-.921-3.967-.96-3.958 1.621-6.202z"/><path fill="#555" d="M38.091 31.078c2.332 3.746-1.491 7.493.002 11.239l-7.515-1.223c0-.834.147-1.701-.023-2.499-1.373-6.431 1.113-8.931 7.536-7.517z"/><path fill="#606060" d="M45.604 43.592l1.25-12.515h5.008c.715 4.685-1.02 9.147-1.238 13.748-1.824.204-3.454-.388-5.02-1.233z"/><path fill="#656565" d="M111.911 41.182l-6.191-1.516c-1.068-3.869 3.554-5.263 3.734-8.588h6.26c.944 4.2.659 7.938-3.803 10.104z"/><path fill="#5D5D5D" d="M103.1 37.484c-3.087-.251-5.883-1.442-8.662-2.692-1.45-1.863-.072-2.778 1.244-3.714h8.764c1.151 2.471 1.334 4.74-1.346 6.406z"/><path fill="#686868" d="M111.911 41.182c2.026-3.083 2.844-6.62 3.802-10.104h3.756c-1.432 3.682-.165 8.261-3.737 11.23-1.341-.148-2.865.328-3.821-1.126z"/><path fill="#626262" d="M103.1 37.484l1.346-6.406h5.008c3.271 4.826-2.877 5.559-3.734 8.589l-2.407-1.117a16.073 16.073 0 0 1-.213-1.066z"/><path fill="#AAA" d="M117.033 73.38l9.948 2.769v1.252c-4.075.422-7.612 2.311-11.181 4.11-2.208-3.108-1.167-5.722 1.233-8.131z"/><path fill="#575757" d="M95.682 31.078l-1.244 3.715c-4.191.074-8.033-.913-11.276-3.715h12.52z"/><path fill="#444" d="M126.981 153.772c-2.518-.879-3.329-3.391-4.928-5.15-.458-4.07 2.271-3.794 4.928-3.614v8.764z"/><path fill="#2B2B2B" d="M63.282 32.253a7.062 7.062 0 0 1-.152-1.176h11.268l-2.496 2.372c-.9 1.2-2.166 1.278-3.501 1.153-1.837-.493-3.839-.639-5.119-2.349z"/><path fill="#020202" d="M66.77 136.385c.016-3.324.227-6.661.009-9.969-.59-8.942 8.206-15.598 18.061-13.459 12.461 2.703 16.109 9.478 12.71 21.828-.248.901-.287 1.58.658 2.018-.407 1.203-1.301 1.356-2.38 1.114-1.719-1.344-1.669-3.309-1.825-5.191-.16-2.078-.016-4.341-2.899-4.776-3.312-.699-6.387 2.236-9.75.648-7.75-2.329-7.849-2.272-9.229 5.618-.181 1.035-.382 2.047-.963 2.955-1.754 1.331-3.45 2.348-4.392-.786z"/><path fill="#040404" d="M76.479 184.799c-5.248.068-10.495.138-15.742.205-2.13-2.161-.719-4.512-.386-6.803.798-1.918.588-3.54-1.378-4.669-1.997-3.373.223-5.901 1.698-8.577 1.27-4.485 4.988-5.979 8.875-7.267.585.745.779 1.598.712 2.523-1.2 6.033 1.662 12.389-1.468 18.535 2.159-7.437 7.624-11.798 13.274-16.01 1.891-1.639 3.661-3.52 6.498-3.27 4.508 5.718-.13 9.922-2.391 14.521-.541 2.83-5.191 1.694-5.026 5.227-.925 2.396-2.231 4.465-4.666 5.585z"/><path fill="#A5A5A5" d="M88.068 159.954c-1.737 1.221-3.474 2.44-5.21 3.662-5.565 1.357-8.918-1.161-10.846-6.181-.122-2.067-.47-4.114-.841-6.14-1.566-8.547-1.608-8.539 6.098-11.675a3.97 3.97 0 0 1 1.79-.119c3.441 1.948 1.375 5.544 2.45 8.18.559.448 1.161.488 1.799.182 1.161-1.409.7-3.329 1.56-4.818.751-1.375 2.698-1.168 3.41-2.6.515-.854.973-1.739 1.554-2.551.632-.821 1.431-1.467 2.195-2.149 1.522-1.233.477-4.465 3.502-4.53l.2 6.169c.783 1.156-.01 2.757 1.081 3.829.221 2.135-.171 4.03-2.079 5.336-4.042 1.046-1.644 4.729-2.839 6.939l.051 1.534c-.124 1.27-.93 2.208-1.554 3.238-.538.89-1.41 1.319-2.321 1.694z"/><path fill="#9B9B9B" d="M88.247 61.095c2.295.37 4.496.999 6.426 2.363 1.649 1.767 1.721 3.837 1.73 6.182.029 7.304-1.55 14.465-1.644 21.742-1.866 1.53-3.862 2.686-6.418 2.221l-5.113-3.823c1.473-7.071 1.665-14.35 3.381-21.371.518-2.121.506-3.765-.573-5.839-1.111-2.143.529-2.324 2.211-1.475z"/><path fill="#9F9F9F" d="M94.76 91.381c-5.81-3.172.024-7.12-.356-10.752-.58-5.543.473-11.416.269-17.171 3.603.59 6.861 2.082 10.016 3.835 1.215 2.801 1.957 5.631.498 8.583-1.804 3.646-1.044 7.74-2.024 11.528l-8.403 3.977z"/><path fill="#232323" d="M123.022 180.147c-.353-.028-.705-.04-1.059-.036-4.087-.87-8.335-1.451-10.501-5.802-.094-4.797-4.411-10.678-9.585-13.321-1.153-.587-1.288-2.018-1.451-3.261-.1-1.957.014-3.842 1.692-5.216.779-.827 1.558-1.652 2.339-2.477 4.456 4.51 6.219 11.147 11.842 14.777 3.035 1.957 7.491 12.577 6.723 15.336z"/><path fill="#C0C0C0" d="M44.337 184.907c-.107-1.019-.461-2.082-.281-3.047.702-3.75.742-3.99-2.852-3.659-2.011.183-2.078-1.89-3.509-2.087 5.164-1.958 9.74-5.301 15.249-6.438 4.942 2.88 1.513 7.4 2.193 11.119-.004 2.25-1.521 3.292-3.3 4.121l-7.5-.009z"/><path fill="#A4A4A4" d="M103.162 87.405c.058-2.845-3.005-5.145-.558-8.619 2.258-3.206 2.065-7.521 2.084-11.493l6.156 2.52c2.614 4.645 1.141 9.298.035 13.952-2.321 1.746-4.912 2.92-7.717 3.64z"/><path fill="#7E7E7E" d="M78.264 140.218c-5.768 2.157-8.561 5.462-5.227 11.828.754 1.439.059 3.64.03 5.487a1.665 1.665 0 0 1-1.295.682 1.895 1.895 0 0 1-1.254-.792c-.802-4.721-3.384-8.851-4.578-13.381-.604-2.297-1.422-5.338.83-7.657 1.347 1.641 2.617 1.273 3.846-.148 1.506-.863 2.76-.086 4.031.607 1.251 1.072 2.874 1.754 3.617 3.374z"/><path fill="#C1C1C1" d="M54.399 181.331c-3.336-3.528 2.264-8.175-1.455-11.655l7.727-4.721c.997 2.91-2.975 5.758-.106 8.69 1.542.942.581 2.666 1.21 3.893l-1.039 7.466-6.301-.028c-.949-1.205 1.108-2.441-.036-3.645z"/><path fill="#707070" d="M102.119 152.512l-.232 6.137c-1.429 2.71 1.552 5.602-.335 8.29-3.636 3.228-5.735-1.307-8.656-1.719-1.641-2.302-1.694-5.318-3.396-7.6.25-1.397 1.229-2.106 2.441-2.597 3.802.821 6.658-2.189 10.178-2.511z"/><path fill="#A7A7A7" d="M110.879 83.766c-1.934-4.646.148-9.301-.036-13.951l6.19 3.565-1.233 8.129a9.606 9.606 0 0 1-4.921 2.257z"/><path fill="#060606" d="M111.957 122.473c2.843 5.581 6.667 10.451 10.688 15.22.988 1.171 4.761 2.736.58 4.813-4.427-5.347-7.569-11.744-13.282-16.061-.592-.448-.41-1.918-.587-2.915-.006-.367.049-.72.168-1.065l2.433.008z"/><path fill="#A0A0A0" d="M70.519 157.423c.438.043.876.087 1.314.127 2.384 2.68 3.222 5.641 1.584 9.019-.529 1.094-1.076 2.451-2.555 2.15-1.275-.26-2.042-1.395-2.018-2.741.037-2.008-.55-4.084.505-6.009l.198-2.28c.324-.091.646-.178.972-.266z"/><path fill="#C9C9C9" d="M91.89 153.489c-.024-2.71-4.163-7.104 2.839-6.939-.861 2.347-1.077 4.96-2.839 6.939z"/><path fill="#ADADAD" d="M96.808 141.213c-2.09-.788-1.932-2.211-1.081-3.829.826-.193 1.653-.386 2.48-.581-.466 1.471-.932 2.942-1.399 4.41z"/><path fill="#939393" d="M76.99 57.333c1.389.015 2.765.069 3.768 1.247 1.797 7.922-1.029 15.308-2.693 22.817-.416 1.874-1.373 3.458-3.663 3.507-1.938-.3-3.628-1.093-5.002-2.513-2.582-9.113 2.782-16.671 4.955-24.842.282-1.057 1.678-.891 2.635-.216z"/><path fill="#919191" d="M76.99 57.333c-4.279 3.745-3.101 9.649-5.571 14.088-1.93 3.466-.309 7.51-2.019 10.97-3.188-.66-5.886-2.393-8.667-3.947 2.439-3.854 3.403-8.028 3.975-12.595.531-4.252 1.556-9.224 7.467-9.923 1.696.158 3.493-.03 4.815 1.407z"/><path fill="#999" d="M88.247 61.095l-1.223.24c2.363 5.461-.067 23.67-3.797 28.445-1.319-.707-2.639-1.413-3.958-2.118-1.252-9.46 1.302-18.414 3.684-27.383.176-.663.91-.667 1.534-.457 1.398-.001 2.751.128 3.76 1.273z"/><path fill="#848484" d="M40.598 47.153l10.266 2.576c-.512 4.5-2.381 8.678-3.105 13.129-.773 4.756-3.444 7.23-8.388 6.967l-3.779-1.25c-.65-3.707 2.585-6.141 3.203-9.717.665-3.853 1.497-7.743 1.803-11.705z"/><path fill="#818181" d="M40.598 47.153c2.09 3.636 3.162 7.215-.405 10.662-.405.393-.87 1.295-.689 1.634 2.507 4.719-1.567 6.543-3.912 9.126l-3.759-1.198c1.063-5.97 1.325-12.334 5.077-17.31 2.054-2.723-2.851-2.263-1.141-4.11 1.662.191 3.484-.268 4.829 1.196z"/><path fill="#8E8E8E" d="M72.175 55.925c-4.597 3.698-6.83 8.359-6.329 14.381.318 3.818-.941 6.98-5.114 8.138l-5.094-2.341c4.083-6.228 4.521-13.621 6.253-20.554.541-2.167.451-2.958 2.638-1.998 2.754.131 5.305.914 7.646 2.374z"/><path fill="#868686" d="M39.371 69.825c9.297-2.57 6.329-11.846 9.507-17.758.574-1.068.513-2.18 1.984-2.337 1.733.12 3.564-.146 4.954 1.289.422 6.582-2.85 12.216-4.71 18.206-.808 2.597-3.1 2.935-5.431 2.997l-6.304-2.397z"/><path fill="#888" d="M45.675 72.222c6.872-4.749 7.227-12.389 8.379-19.547.255-1.586.89-1.413 1.759-1.655 1.401.03 2.814.018 3.866 1.182 1.563 6.958-2.669 13.045-2.996 19.749-.128 2.648-2.666 2.655-4.738 2.759l-6.27-2.488z"/><path fill="#8C8C8C" d="M51.946 74.709c.887-1.367 3.894-1.025 3.46-3.03-1.443-6.664 4.939-12.121 2.696-18.832-.012-.035 1.026-.421 1.576-.645 1.709.122 3.504-.071 4.851 1.35-.441 7.064-5.565 13.044-4.876 20.313.417 4.4-3.923-.681-4.014 2.238-1.481.197-2.613-.529-3.693-1.394z"/><path fill="#969696" d="M84.487 59.822c-2.977 9.047-3.273 18.597-5.217 27.839l-4.867-2.757c4.557-7.611 5.656-15.944 4.802-24.573-.172-1.738.585-1.573 1.554-1.751 1.379.004 2.724.112 3.728 1.242z"/><path fill="#707070" d="M68.364 33.477l3.538-.027 2.468 1.396c2.054 5.438 3.082 10.881.047 16.336-3.396.711-5.738-2.09-8.76-2.627-.717-4.911 2.698-9.739.228-14.792-.326-.668 1.53-.721 2.479-.286z"/><path fill="#797979" d="M78.199 36.058c1.715.213 3.657-.472 4.985 1.266 4.118 4.95 4.111 10.896-.019 16.265-2.55-.699-5.304-.769-7.535-2.45 1.317-4.831 2.582-9.665 1.189-14.719-.031-.112.202-.326.345-.455.282-.251.637-.207 1.035.093z"/><path fill="#8D8D8D" d="M100.7 42.574c3.307 1.343 7.069 1.368 10.106 3.492-.155.53-.354 1.043-.584 1.544-1.184 2.635-.439 5.236-.019 7.896.53 3.358-.63 5.635-4.497 5.596-1.247-.437-2.493-.873-3.74-1.308-1.12-2.734-.712-5.658-1.067-8.483a5.78 5.78 0 0 1 .434-1.574c1.993-2.111-.362-2.875-1.289-4.088-.384-1.156-.355-2.222.656-3.075z"/><path fill="#6C6C6C" d="M68.364 33.477c-.075 2.351-.363 4.719-.173 7.048.252 3.093-.612 5.695-2.534 8.032l-3.78-1.188c-2.732-4.817-1.095-9.994-1.235-15.024l2.639-.091c1.768.101 3.64-.226 5.083 1.223z"/><path fill="#909090" d="M105.708 61.103c3.117-1.542 4.394-3.686 2.69-7.138-1.362-2.76-.76-5.41 1.099-7.801 3.146 2.056 6.687 11.998 5.506 15.5-.481 1.427-1.833 1.479-2.991 1.826-2.326-.206-4.349-1.207-6.304-2.387z"/><path fill="#888" d="M101.942 49.857v1.252c-1.57 2.311-.122 5.623-2.542 7.65-1.811.051-3.482-.355-4.923-1.507-1.473-5.328.991-10.669-.007-16.018-.083-.446.838-.665 1.438-.298l2.286.016 2.508 1.621-.009 3.526c1.22.986 1.5 2.283 1.249 3.758z"/><path fill="#7C7C7C" d="M83.166 53.588c1.61-5.42 1.977-10.841.019-16.265 1.758.126 3.638-.257 5.078 1.208 1.638 3.439 1.277 7.268 2.002 10.888.46 2.3-.847 4.417-3.318 5.37l-3.781-1.201z"/><path fill="#818181" d="M86.946 54.79c4.297-5.107-1.043-10.993 1.315-16.257l2.438 1.397c4.704 4.533 4.708 12.416.009 16.084l-3.762-1.224z"/><path fill="#777" d="M78.199 36.058c.384 5.238 3.039 10.862-2.568 15.081-.404.018-.81.031-1.214.044l-.047-16.336c1.384.061 2.88-.23 3.829 1.211z"/><path fill="#838383" d="M90.709 56.013c3.464-5.364 2.507-10.724-.01-16.084 1.879-.406 3.664-.324 5.206 1.008.81 5.551 1.079 11.055-1.43 16.315l-3.766-1.239z"/><path fill="#939393" d="M112.011 63.489c2.457-3.595 1.015-13.525-2.515-17.326.437-.032.874-.064 1.311-.098l6.298 2.48c-.457.042-.913.083-1.369.126-2.245 3.719-.273 7.257 1.498 9.99 2.106 3.249.736 4.549-1.501 6.177l-3.722-1.349z"/><path fill="#696969" d="M60.641 32.345c2.359 4.848.776 10.021 1.235 15.024-1.819.173-3.452-.399-5.015-1.248 1.274-2.889 3.458-5.49 1.853-9.099-.823-1.853.448-3.453 1.927-4.677z"/><path fill="#8A8A8A" d="M99.399 58.76c-.029-2.841.053-5.646 2.542-7.65.235 2.895 1.815 5.786.026 8.686l-2.568-1.036z"/><path fill="#C7C7C7" d="M93.145 165.001c3.705-2.688 4.666 2.783 7.548 2.541.846.19 1.394.699 1.63 1.539-.108 1.469-1.312 2.197-2.134 3.185-1.317 1.603-2.396 3.348-3.183 5.273-1.726 2.772-3.425 5.567-6.285 7.369l-14.243-.109 3.339-6.401c3.103-.443 5.087-2.282 6.31-5.066 2.639-2.525 2.95-7.01 7.018-8.331z"/><path fill="#C7C7C7" d="M90.722 184.908c.366-3.623 4.512-5.066 4.976-8.632 1.947-1.06 3.343-2.659 4.445-4.549.979-1.052 2.28-1.615 3.489-2.327 2.175-.304 3.172 1.213 4.195 2.696 2.147 4.336 6.823 7.396 6.578 12.946-7.895-.043-15.789-.089-23.683-.134z"/><path fill="#F0F0F0" d="M114.404 185.043c-2.467-4.084-4.935-8.167-7.403-12.249 2.107-1.915 3.656-1.312 4.811 1.063 2.375 3.725 7.572 2.865 10.152 6.254.772 6.691-4.165 4.631-7.56 4.932z"/><path fill="#D2D2D2" d="M54.399 181.331c3.784 1.18-.403 2.436.035 3.645-.866-.019-1.732-.037-2.598-.06l2.563-3.585z"/><path fill="#A3A3A3" d="M83.173 150.011l-2.488.016c-1.516-3.017 1.558-6.15-.24-9.157-.542-1.646-2.574-2.208-2.937-3.992-1.213-2.56-3.016-4.964-2.187-8.085 1.749-2.804 4.228-2.063 6.694-1.382 3.437.776 6.422-2.657 9.947-1.07 2.256 3.465 1.931 6.727-.76 9.805-.729.517-1.383 1.135-2 1.781-1.245 1.06-2.669 1.933-3.642 3.312a8.193 8.193 0 0 0-.921 1.378c-.728 2.422.635 5.251-1.466 7.394z"/><path fill="#7B7B7B" d="M82.015 127.411c-2.408.143-5.163-.563-6.347 2.586.306 2.076.019 4.189.396 6.265-.437.769-1.047 1.261-1.978 1.245-1.157-.422-2.313-.847-3.47-1.27-.001-.827-.063-1.658.005-2.479.734-8.904 2.747-10.021 11.394-6.347z"/><path fill="#D0D0D0" d="M89.503 136.069c3.93-2.455 1.918-6.414 2.459-9.728 4.43-.746 2.785 2.952 3.566 4.875-1.935 1.665-.339 4.646-2.348 6.282-.916-1.275-2.881.155-3.677-1.429z"/><path fill="#7D7D7D" d="M69.349 159.969c.606 2.6-.721 5.622 1.616 8.254 2.005-3.717 2.33-7.127.869-10.673.412-.012.822-.019 1.234-.017 1.972 4.104 5.979 4.935 9.789 6.083-.583 2.303-2.763 3.001-4.387 4.16-2.904 2.074-5.669 3.815-5.682 8.181-.009 2.767-2.845 4.309-5.8 5.74 1.953-7.181 1.092-14.537 2.361-21.728z"/><path fill="#262626" d="M93.145 165.001c-2.073 2.937-4.146 5.87-6.219 8.808-.777.728-1.57.754-2.382.058 2.437-4.318 5.865-8.384 3.523-13.912.478-.778.954-1.559 1.432-2.334 4.168 1.001 3.513 4.385 3.646 7.38z"/><path fill="#373737" d="M84.544 173.866c.794-.021 1.588-.038 2.382-.058-2.02 2.069-1.662 7.813-7.105 4.591.045-.954-2.72-3.166.813-2.513 2.253.417 2.936-.729 3.91-2.02z"/><path fill="#CECECE" d="M61.776 177.538c-1.407-.985-1.066-2.515-1.21-3.893.246-.797.886-1.718 1.572-1.183 2.226 1.733-.034 3.379-.362 5.076z"/><path fill="#BFBFBF" d="M83.173 150.011c.472-2.938-1.151-6.188 1.303-8.837 1.055-.181 1.485.237 1.248 1.299-.966 2.475 2 6.277-2.551 7.538z"/><path fill="#969696" d="M80.339 139.908c3.442 3.26.679 6.729.345 10.119-3.024-2.97.427-6.787-1.296-9.925.224-.522.536-.607.951-.194z"/><path fill="#FFF" d="M80.339 139.908a1.46 1.46 0 0 0-.952.193l-.577-.081-.547.198c-1.925-.081-3.651-.469-4.176-2.711l1.622-1.375c.824-.611 1.544-.659 2.061.383l2.569 3.393z"/><path fill="#7D7D7D" d="M78.823 153.052l5.931.576c-2.016 1.598-3.988 1.643-5.931-.576z"/><path fill="#FFF" d="M84.608 139.697l3.495-2.284c1.468-.74 1.945.468 2.601 1.323-.496.724-.994 1.447-1.49 2.169-2.232 2.247-3.248-.128-4.606-1.208z"/><path fill="#8D8D8D" d="M84.608 139.697c1.603.149 2.764 1.973 4.606 1.21.194 3.549-1.698 2.448-3.492 1.566a520.41 520.41 0 0 0-1.248-1.299l.134-1.477z"/><path fill="#626262" d="M90.703 138.736c-.867-.439-1.733-.881-2.601-1.323.467-.447.934-.894 1.4-1.343 1.303.275 2.964-.369 3.677 1.428-.994.073-1.935.258-2.476 1.238z"/><path fill="#262626" d="M111.812 173.857c-1.603-.354-2.961-1.819-4.811-1.063-1.527-.604-1.719-2.891-3.692-2.932a1.757 1.757 0 0 1-1.356-.907c-.419-.472-.84-.944-1.259-1.413.568-2.941-.767-6.138 1.194-8.892 6.705.938 6.642 8.732 11.691 11.593 1.751.99-.211 2.81-1.767 3.614z"/><path fill="#8A8A8A" d="M101.942 49.857c-1.452-.909-1.214-2.379-1.251-3.757 1.223-.294 2.728-1.925 3.505.342.623 1.817-.089 3.209-2.254 3.415z"/><path fill="#E7E7E7" d="M100.641 172.531c-1.07 2.012-2.352 3.743-4.944 3.745l3.718-5.012c.798.046.863.799 1.226 1.267z"/><path fill="#ECECEC" d="M100.641 172.531c-.409-.424-.817-.846-1.226-1.267l2.537-2.31c.836-.271 1.109.299 1.356.907l-2.667 2.67z"/><path fill="#AAA" d="M77.771 136.515l-2.061-.383c-1.417-2.036-1.383-4.081-.042-6.134 1.283 1.984 2.52 3.984 2.103 6.517z"/></g><circle fill-rule="evenodd" clip-rule="evenodd" cx="89.616" cy="138.813" r="1.255"/><path fill-rule="evenodd" clip-rule="evenodd" d="M79.035 137.827a1.255 1.255 0 1 1-2.51.001 1.255 1.255 0 0 1 2.51-.001z"/><g fill="none" stroke="#C1272D" stroke-width="3.813" stroke-miterlimit="10"><path d="M94.836 137.34l4.498-1.576"/><path stroke-dasharray="10.4977,10.4977" d="M109.241 132.293l74.304-26.034"/><path d="M188.499 104.524l4.497-1.576"/></g></g></switch></svg>