<svg xmlns="http://www.w3.org/2000/svg" xmlns:xlink="http://www.w3.org/1999/xlink" width="300" height="300" viewBox="0 0 300 300"><switch><g><symbol id="a" viewBox="-150 -150 300 300.007"><path fill="#CE8E95" d="M150-97.021c0-6.764 0-52.979-71.5-52.979H-84c-62.5 0-66 47.215-66 53.979v186c0 54.5 59.235 60 66 60l161.5.029c6.765 0 72.5-.029 72.5-60.029v-187z"/></symbol><use xlink:href="#a" width="300" height="300.007" x="-150" y="-150" transform="matrix(1 0 0 -1 150 150)" overflow="visible"/><g fill="#26080D"><path d="M55.723 250.608l-2.784 9.169h-6.096l10.369-32.354h7.537l10.513 32.354h-6.337l-2.928-9.169H55.723zm9.265-4.463l-2.544-7.969c-.624-1.969-1.152-4.177-1.632-6.049h-.096c-.48 1.872-.96 4.128-1.536 6.049l-2.496 7.969h8.304zM99.788 252.769c0 2.784.096 5.089.192 7.009h-5.185l-.288-3.553h-.096c-1.008 1.681-3.313 4.081-7.489 4.081-4.272 0-8.161-2.545-8.161-10.177V236.4h5.904v12.721c0 3.889 1.249 6.385 4.369 6.385 2.352 0 3.888-1.68 4.512-3.168a5.366 5.366 0 0 0 .336-1.824v-14.113h5.905v16.368zM106.841 259.777v-18.962h-3.168v-4.416h3.168v-1.008c0-3.024.816-6.049 2.832-7.969 1.729-1.633 4.081-2.257 6.097-2.257 1.584 0 2.833.24 3.792.576l-.432 4.561c-.624-.24-1.44-.432-2.496-.432-2.928 0-3.937 2.448-3.937 5.328v1.2h5.137v4.416h-5.089v18.962h-5.904zM121.289 259.777c.096-1.584.192-4.177.192-6.576v-27.507h5.904v13.921h.096c1.44-2.256 3.984-3.744 7.488-3.744 5.713 0 9.793 4.753 9.745 11.857 0 8.4-5.329 12.577-10.609 12.577-3.024 0-5.712-1.152-7.393-4.032h-.096l-.288 3.504h-5.039zm6.096-9.648c0 .479.048.96.144 1.392.624 2.353 2.688 4.129 5.232 4.129 3.696 0 5.953-2.977 5.953-7.681 0-4.129-1.968-7.489-5.905-7.489-2.4 0-4.56 1.729-5.232 4.32-.096.433-.192.96-.192 1.536v3.793zM149.561 225.694h5.953v34.083h-5.953v-34.083zM166.072 249.744c.145 4.225 3.456 6.049 7.201 6.049 2.735 0 4.704-.384 6.479-1.056l.864 4.08c-2.016.816-4.8 1.44-8.16 1.44-7.585 0-12.049-4.657-12.049-11.81 0-6.48 3.936-12.577 11.424-12.577 7.585 0 10.081 6.24 10.081 11.377 0 1.104-.096 1.969-.191 2.496h-15.649zm10.273-4.128c.048-2.16-.912-5.713-4.849-5.713-3.648 0-5.184 3.313-5.424 5.713h10.273zM186.663 243.36c0-2.688-.048-4.945-.191-6.961h5.185l.287 3.504h.145c1.008-1.824 3.553-4.032 7.44-4.032 4.08 0 8.305 2.641 8.305 10.033v13.873h-5.904v-13.201c0-3.36-1.248-5.904-4.465-5.904-2.352 0-3.983 1.68-4.608 3.456-.191.528-.239 1.248-.239 1.92v13.729h-5.953V243.36zM235.673 225.694v27.507c0 2.399.097 4.992.192 6.576h-5.28l-.24-3.696h-.096c-1.393 2.592-4.225 4.225-7.633 4.225-5.568 0-9.985-4.753-9.985-11.953-.048-7.825 4.849-12.481 10.466-12.481 3.216 0 5.521 1.345 6.576 3.072h.096v-13.249h5.904zm-5.904 20.451a8.31 8.31 0 0 0-.144-1.536c-.528-2.305-2.4-4.177-5.089-4.177-3.792 0-5.904 3.36-5.904 7.729 0 4.272 2.112 7.393 5.856 7.393 2.4 0 4.513-1.632 5.089-4.176.144-.528.191-1.104.191-1.729v-3.504zM246.184 249.744c.144 4.225 3.456 6.049 7.2 6.049 2.736 0 4.705-.384 6.48-1.056l.864 4.08c-2.016.816-4.8 1.44-8.16 1.44-7.585 0-12.05-4.657-12.05-11.81 0-6.48 3.937-12.577 11.426-12.577 7.584 0 10.08 6.24 10.08 11.377 0 1.104-.096 1.969-.191 2.496h-15.649zm10.272-4.128c.048-2.16-.912-5.713-4.848-5.713-3.648 0-5.185 3.313-5.425 5.713h10.273z"/></g><path fill="#333" d="M151 76h100v117H151z"/><path fill="#FFF" d="M184.455 98.162c2.664-.546 7.515-.956 12.229-.956 6.217 0 10.042.751 13.184 2.938 2.87 1.708 4.783 4.713 4.783 8.607 0 4.235-2.664 8.129-7.652 9.974v.137c4.852 1.229 9.291 5.055 9.291 11.408 0 4.099-1.775 7.31-4.439 9.496-3.279 2.869-8.676 4.304-17.079 4.304-4.646 0-8.198-.341-10.315-.615V98.162zm8.334 18.171h4.305c5.807 0 9.086-2.732 9.086-6.626 0-4.304-3.279-6.285-8.608-6.285-2.459 0-3.894.137-4.782.342v12.569zm0 21.178c1.094.137 2.527.205 4.441.205 5.396 0 10.178-2.049 10.178-7.719 0-5.329-4.645-7.515-10.451-7.515h-4.168v15.029z"/><path fill="#333" d="M143.047 191.303l-9-.15.151-8.999 9 .15zM143.298 176.306l-9-.15.151-9 9 .15zM143.55 161.308l-8.998-.15.15-8.998 8.997.15zM143.798 146.312l-8.998-.15.15-9 8.998.151zM144.055 131.308l-9-.151.152-8.998 8.999.15zM144.3 116.318l-8.999-.15.15-9 8.999.15zM144.533 102.32l-8.999-.15.15-9 9 .15zM144.784 87.322l-8.999-.15.15-8.999 9 .15zM127.183 183.088l-8.999-.15.15-9 9 .15zM127.434 168.09l-8.999-.15.15-8.999 9 .15zM127.69 153.088l-8.999-.152.152-8.999 8.999.151zM127.935 138.096l-8.999-.15.15-9 9 .15zM128.168 124.099l-8.998-.15.15-9 8.998.15zM128.402 110.102l-8.998-.15.15-9 8.998.15zM128.653 95.103l-8.999-.15.15-9 9 .151zM111.355 166.821l-9-.15.15-8.998 9 .149zM111.644 148.82l-8.999-.15.15-8.999 9 .15zM111.96 129.823l-8.997-.15.15-8.999 8.998.15zM112.244 111.827l-8.999-.15.15-9 8.999.15zM98.355 183.82l-8.999-.149.15-8.999 8.999.15zM96.639 160.824l-9-.15.15-8.998 9 .15zM94.961 126.824l-8.998-.15.15-9 8.999.15zM98.243 96.828l-8.998-.15.15-9 8.999.151zM78.955 143.828l-8.998-.15.15-8.999 8.998.15zM75.245 113.828l-8.998-.15.15-8.999 8.998.15zM76.955 172.826l-8.998-.15.15-8.998 8.998.15z"/></g></switch></svg>