<?xml version="1.0" encoding="iso-8859-1"?>
<!-- Generator: Adobe Illustrator 16.0.3, SVG Export Plug-In . SVG Version: 6.00 Build 0)  -->
<!DOCTYPE svg PUBLIC "-//W3C//DTD SVG 1.1//EN" "http://www.w3.org/Graphics/SVG/1.1/DTD/svg11.dtd">
<svg version="1.1" id="Ebene_1" xmlns="http://www.w3.org/2000/svg" xmlns:xlink="http://www.w3.org/1999/xlink" x="0px" y="0px"
	 width="518px" height="518px" viewBox="0 0 518 518" style="enable-background:new 0 0 518 518;" xml:space="preserve">
<path style="fill-rule:evenodd;clip-rule:evenodd;fill:#CE2228;" d="M518,512c0,3.313-2.017,6-4.505,6H4.505
	C2.018,518,0,515.313,0,512V6c0-3.313,2.017-6,4.504-6h508.99C515.983,0,518,2.687,518,6V512z"/>
<g>
	<g id="XMLID_1_">
		<g>
			<path style="fill:#CE2228;" d="M419.679,200.93c0.57,87.61-71.08,160.28-160.37,160.66c-88.46,0.38-160.09-70.49-161.13-160.5
				c0.91-91.88,75.04-160.51,160.47-160.72C346.899,40.14,419.099,111.9,419.679,200.93z"/>
			<path style="fill:#FCFBFB;" d="M98.179,201.09c1.04,90.01,72.67,160.88,161.13,160.5c89.29-0.38,160.94-73.05,160.37-160.66
				c-0.58-89.03-72.779-160.79-161.03-160.56C173.219,40.58,99.089,109.21,98.179,201.09z M254.709,376.09
				c-94.72-2.21-173.28-81.439-170.77-179.76c2.41-94.42,80.57-170.87,175.1-170.34c96.51-0.58,177.17,79.81,175.04,178.93
				C432.039,300.08,352.519,378.37,254.709,376.09z"/>
		</g>
		<g>
		</g>
	</g>
</g>
<g>
	<rect x="-7.001" y="413" style="fill-rule:evenodd;clip-rule:evenodd;fill:none;" width="525.002" height="106"/>
	<path style="fill:#FFFFFF;" d="M116.01,441.711l5.469-26.758h6.128l-8.203,35.547h-5.908l-6.763-25.952L99.824,450.5h-5.933
		l-8.203-35.547h6.128l5.518,26.709l6.787-26.709h5.176L116.01,441.711z"/>
	<path style="fill:#FFFFFF;" d="M147.089,447.912c-1.742,2.051-4.216,3.076-7.422,3.076c-2.865,0-5.034-0.838-6.506-2.515
		c-1.473-1.676-2.209-4.102-2.209-7.275v-17.114h5.933v17.041c0,3.354,1.392,5.029,4.175,5.029c2.881,0,4.826-1.033,5.835-3.101
		v-18.97h5.933V450.5h-5.591L147.089,447.912z"/>
	<path style="fill:#FFFFFF;" d="M164.375,424.084l0.171,3.052c1.953-2.359,4.517-3.54,7.69-3.54c5.501,0,8.301,3.149,8.398,9.448
		V450.5h-5.933v-17.114c0-1.676-0.362-2.917-1.086-3.724c-0.725-0.805-1.909-1.208-3.552-1.208c-2.393,0-4.175,1.083-5.347,3.247
		V450.5h-5.933v-26.416H164.375z"/>
	<path style="fill:#FFFFFF;" d="M201.484,443.322c0-1.058-0.436-1.863-1.306-2.417c-0.871-0.553-2.315-1.041-4.333-1.465
		c-2.019-0.423-3.703-0.96-5.054-1.611c-2.962-1.432-4.443-3.507-4.443-6.226c0-2.278,0.96-4.183,2.881-5.713
		c1.92-1.529,4.362-2.295,7.324-2.295c3.157,0,5.708,0.781,7.654,2.344c1.945,1.563,2.917,3.589,2.917,6.079h-5.933
		c0-1.139-0.423-2.087-1.27-2.845c-0.847-0.756-1.97-1.135-3.369-1.135c-1.302,0-2.364,0.302-3.186,0.903
		c-0.822,0.603-1.233,1.408-1.233,2.417c0,0.912,0.382,1.62,1.147,2.124c0.765,0.505,2.311,1.013,4.639,1.526
		c2.327,0.512,4.154,1.123,5.481,1.83c1.326,0.709,2.311,1.56,2.954,2.552c0.643,0.993,0.964,2.197,0.964,3.613
		c0,2.377-0.985,4.301-2.954,5.774c-1.97,1.473-4.549,2.209-7.739,2.209c-2.165,0-4.094-0.391-5.786-1.172
		c-1.693-0.781-3.011-1.855-3.955-3.223c-0.944-1.367-1.416-2.84-1.416-4.419h5.762c0.081,1.4,0.61,2.478,1.587,3.235
		c0.977,0.756,2.271,1.135,3.882,1.135c1.563,0,2.75-0.297,3.564-0.891C201.077,445.06,201.484,444.283,201.484,443.322z"/>
	<path style="fill:#FFFFFF;" d="M223.334,446.252c1.481,0,2.71-0.431,3.687-1.294c0.977-0.862,1.497-1.929,1.563-3.198h5.591
		c-0.065,1.645-0.578,3.178-1.538,4.602c-0.96,1.425-2.263,2.552-3.906,3.382c-1.644,0.83-3.418,1.245-5.322,1.245
		c-3.695,0-6.625-1.196-8.789-3.589c-2.165-2.393-3.247-5.696-3.247-9.912v-0.61c0-4.02,1.074-7.238,3.223-9.656
		c2.148-2.416,5.078-3.625,8.789-3.625c3.141,0,5.701,0.916,7.678,2.746c1.978,1.832,3.015,4.236,3.113,7.215h-5.591
		c-0.065-1.514-0.582-2.759-1.55-3.735c-0.969-0.977-2.202-1.465-3.699-1.465c-1.921,0-3.402,0.696-4.443,2.087
		c-1.042,1.393-1.571,3.504-1.587,6.336v0.952c0,2.865,0.517,5.001,1.55,6.409C219.888,445.548,221.381,446.252,223.334,446.252z"/>
	<path style="fill:#FFFFFF;" d="M244.501,426.965c1.937-2.246,4.386-3.369,7.349-3.369c5.631,0,8.488,3.215,8.569,9.644V450.5
		h-5.933v-17.041c0-1.822-0.395-3.113-1.184-3.869c-0.79-0.758-1.949-1.136-3.479-1.136c-2.376,0-4.15,1.059-5.322,3.174V450.5
		h-5.933V413h5.933V426.965z"/>
	<path style="fill:#FFFFFF;" d="M265.302,437.097c0-4.068,0.944-7.337,2.832-9.802c1.888-2.467,4.419-3.699,7.593-3.699
		c2.799,0,5.062,0.977,6.787,2.93V413h5.933v37.5h-5.371l-0.293-2.734c-1.774,2.148-4.143,3.223-7.104,3.223
		c-3.093,0-5.595-1.245-7.507-3.735C266.258,444.763,265.302,441.378,265.302,437.097z M271.235,437.609
		c0,2.686,0.517,4.781,1.55,6.287c1.033,1.505,2.502,2.258,4.407,2.258c2.425,0,4.199-1.082,5.322-3.247v-11.279
		c-1.091-2.115-2.849-3.174-5.273-3.174c-1.921,0-3.402,0.761-4.443,2.282C271.755,432.259,271.235,434.55,271.235,437.609z"/>
	<path style="fill:#FFFFFF;" d="M306.269,450.988c-3.76,0-6.808-1.184-9.143-3.553c-2.336-2.367-3.503-5.521-3.503-9.46v-0.732
		c0-2.637,0.508-4.993,1.526-7.067c1.017-2.076,2.445-3.69,4.285-4.847c1.839-1.155,3.89-1.733,6.152-1.733
		c3.597,0,6.376,1.147,8.337,3.442c1.961,2.295,2.942,5.542,2.942,9.741v2.393h-17.261c0.179,2.182,0.907,3.906,2.185,5.176
		c1.277,1.27,2.885,1.904,4.822,1.904c2.718,0,4.932-1.099,6.641-3.296l3.198,3.052c-1.058,1.579-2.47,2.804-4.236,3.674
		C310.448,450.553,308.466,450.988,306.269,450.988z M305.561,428.356c-1.628,0-2.942,0.57-3.943,1.709
		c-1.001,1.14-1.64,2.727-1.917,4.761h11.304v-0.439c-0.13-1.985-0.659-3.487-1.587-4.504
		C308.491,428.865,307.205,428.356,305.561,428.356z"/>
	<path style="fill:#FFFFFF;" d="M326.972,424.084l0.172,3.052c1.953-2.359,4.517-3.54,7.69-3.54c5.5,0,8.301,3.149,8.398,9.448
		V450.5h-5.934v-17.114c0-1.676-0.361-2.917-1.086-3.724c-0.725-0.805-1.908-1.208-3.553-1.208c-2.393,0-4.175,1.083-5.347,3.247
		V450.5h-5.932v-26.416H326.972z"/>
	<path style="fill:#FFFFFF;" d="M357.856,439.172l-2.637,2.71v8.618h-5.933V413h5.933v21.631l1.855-2.319l7.3-8.228h7.129
		l-9.814,11.011l10.864,15.405h-6.86L357.856,439.172z"/>
	<path style="fill:#FFFFFF;" d="M386.519,450.988c-3.76,0-6.808-1.184-9.144-3.553c-2.335-2.367-3.503-5.521-3.503-9.46v-0.732
		c0-2.637,0.509-4.993,1.526-7.067c1.017-2.076,2.444-3.69,4.284-4.847c1.839-1.155,3.89-1.733,6.152-1.733
		c3.597,0,6.376,1.147,8.337,3.442c1.962,2.295,2.942,5.542,2.942,9.741v2.393h-17.261c0.179,2.182,0.907,3.906,2.186,5.176
		c1.277,1.27,2.884,1.904,4.821,1.904c2.718,0,4.932-1.099,6.641-3.296l3.198,3.052c-1.059,1.579-2.47,2.804-4.236,3.674
		C390.697,450.553,388.716,450.988,386.519,450.988z M385.811,428.356c-1.628,0-2.941,0.57-3.943,1.709
		c-1,1.14-1.64,2.727-1.916,4.761h11.304v-0.439c-0.131-1.985-0.659-3.487-1.587-4.504
		C388.74,428.865,387.454,428.356,385.811,428.356z"/>
	<path style="fill:#FFFFFF;" d="M407.222,424.084l0.171,3.052c1.953-2.359,4.517-3.54,7.69-3.54c5.501,0,8.301,3.149,8.398,9.448
		V450.5h-5.933v-17.114c0-1.676-0.362-2.917-1.087-3.724c-0.724-0.805-1.908-1.208-3.552-1.208c-2.393,0-4.175,1.083-5.347,3.247
		V450.5h-5.933v-26.416H407.222z"/>
</g>
<path style="fill-rule:evenodd;clip-rule:evenodd;fill:#FFFFFF;" d="M197.099,82.991c15.308,1.451,28.859,2.993,42.452,3.968
	c22.143,1.589,44.177,0.236,66.216-2.444c13.194-1.605,26.533-1.986,39.636,1.871c5.105,1.502,7.678,4.393,8.877,9.508
	c2.768,11.813,1.314,23.512-0.338,35.214c-4.213,29.812-8.523,59.609-12.846,89.405c-1.944,13.402-6.794,25.609-14.756,36.663
	c-10.119,14.046-19.852,28.368-29.9,42.465c-6.165,8.649-13.151,16.609-23.962,19.379c-17.006,4.355-32.779,1.62-43.718-12.808
	c-14.762-19.469-28.668-39.638-41.997-60.121c-7.196-11.058-7.899-24.56-9.729-37.398c-3.944-27.665-7.758-55.35-11.657-83.021
	c-1.377-9.776-1.759-19.479,0.243-29.276c1.143-5.595,3.844-9.145,9.469-10.075C182.926,85.024,190.796,83.936,197.099,82.991z
	 M218.164,237.241c4.446,20.143,24.08,34.865,43.763,33.956c17.732-0.819,37.095-17.182,39.018-33.787
	C273.496,252.994,246.156,252.942,218.164,237.241z M324.58,171.54c-8.243-9.221-17.587-13.704-29.53-10.575
	c-6.394,1.675-11.963,4.516-14.409,12.201C295.755,176.674,309.952,175.389,324.58,171.54z M194.96,171.532
	c11.874,3.378,23.419,4.393,35.099,3.229c2.724-0.271,5.326-1.771,7.984-2.705c-1.895-2.579-3.478-5.496-5.787-7.628
	c-1.737-1.604-4.313-2.517-6.672-3.19C213.364,157.746,203.505,161.74,194.96,171.532z M184.683,157.175
	c0.25,0.115,0.5,0.23,0.75,0.345c3.537-3.927,6.783-8.17,10.666-11.718c10.315-9.426,22.703-14.909,36.204-18.12
	c4.282-1.019,6.314-4.234,4.931-7.657c-1.531-3.789-4.409-4.735-8.125-3.179c-15.999,6.702-29.777,16.276-39.471,30.975
	C187.704,150.753,186.32,154.048,184.683,157.175z M334.522,157.566c0.19-0.093,0.381-0.186,0.572-0.278
	c-0.623-1.463-1.152-2.974-1.881-4.382c-8.953-17.319-23.849-27.828-41.07-35.59c-4.796-2.162-8.254-0.971-9.469,2.841
	c-1.197,3.756,1.004,6.465,6.144,7.762c13.271,3.35,25.47,8.915,35.601,18.275C328.126,149.618,331.174,153.755,334.522,157.566z"/>
</svg>
