<?xml version="1.0" encoding="utf-8"?>
<!-- Generator: Adobe Illustrator 22.0.1, SVG Export Plug-In . SVG Version: 6.00 Build 0)  -->
<svg version="1.1" id="Ebene_1" xmlns="http://www.w3.org/2000/svg" xmlns:xlink="http://www.w3.org/1999/xlink" x="0px" y="0px"
	 viewBox="0 0 300.5 300.5" style="enable-background:new 0 0 300.5 300.5;" xml:space="preserve">
<style type="text/css">
	.st0{fill:#EACD99;}
	.st1{enable-background:new    ;}
	.st2{fill:#C1272D;}
	.st3{fill:#3A3326;}
	.st4{fill:none;stroke:#C1272D;stroke-width:4;stroke-miterlimit:10;}
	.st5{fill:none;stroke:#FFFFFF;stroke-width:4;stroke-miterlimit:10;}
	.st6{fill:none;stroke:#000000;stroke-width:4;stroke-miterlimit:10;stroke-dasharray:4;}
</style>
<path class="st0" d="M238.2,300.5H62.4c-34.3,0-62.4-28-62.4-62.3V62.4C0,28.1,28.1,0,62.4,0h175.8c34.3,0,62.4,28.1,62.4,62.4
	v175.8C300.5,272.5,272.5,300.5,238.2,300.5z"/>
<g>
	<g class="st1">
		<path class="st2" d="M129.6,113v-5.3l4.9-4.4c8.2-7.4,12.2-11.6,12.4-16c0-3.1-1.9-5.5-6.2-5.5c-3.2,0-6.1,1.6-8.1,3.1l-2.5-6.3
			c2.8-2.1,7.3-3.9,12.4-3.9c8.5,0,13.2,5,13.2,11.8c0,6.3-4.6,11.4-10,16.2l-3.5,2.9v0.1h14.2v7.3H129.6z"/>
	</g>
</g>
<g>
	<g class="st1">
		<path d="M262.1,193c1.1,0.6,3.6,1.6,6,1.6c3.2,0,4.8-1.5,4.8-3.5c0-2.6-2.6-3.7-5.2-3.7h-2.5v-4.4h2.4c2,0,4.6-0.8,4.6-3
			c0-1.6-1.3-2.7-3.8-2.7c-2.1,0-4.4,0.9-5.4,1.6l-1.2-4.4c1.6-1,4.7-2,8-2c5.6,0,8.6,2.9,8.6,6.5c0,2.8-1.6,4.9-4.8,6v0.1
			c3.1,0.6,5.6,2.9,5.6,6.3c0,4.6-4,8-10.6,8c-3.4,0-6.2-0.9-7.7-1.8L262.1,193z"/>
	</g>
</g>
<g>
	<g class="st1">
		<path d="M36.5,177.7L36.5,177.7l-5,2.4l-1-4.6l6.9-3.2h5v26h-5.9V177.7z"/>
	</g>
</g>
<g class="st1">
	<path class="st3" d="M6.7,219.6h5.9v14.9h0.1c0.8-1.2,1.6-2.4,2.4-3.5l8.4-11.4h7.3l-11.1,13.8L31.5,252h-6.9l-9.2-14.8l-2.9,3.5
		V252H6.7V219.6z"/>
	<path class="st3" d="M56.2,240.1c0,8.6-6,12.4-12,12.4c-6.6,0-11.7-4.6-11.7-12c0-7.7,5-12.4,12.1-12.4
		C51.6,228.1,56.2,233,56.2,240.1z M38.6,240.3c0,4.5,2.2,7.9,5.8,7.9c3.4,0,5.7-3.3,5.7-8c0-3.6-1.6-7.8-5.7-7.8
		C40.3,232.4,38.6,236.4,38.6,240.3z"/>
	<path class="st3" d="M61.1,235.6c0-2.7,0-4.9-0.2-7H66l0.3,3.5h0.1c1-1.8,3.6-4,7.4-4c4.1,0,8.3,2.6,8.3,10V252h-5.9v-13.2
		c0-3.4-1.2-5.9-4.5-5.9c-2.4,0-4,1.7-4.6,3.5c-0.2,0.5-0.2,1.2-0.2,1.9V252h-6V235.6z"/>
	<path class="st3" d="M89.2,252v-19H86v-4.4h3.2v-1c0-3,0.8-6,2.8-8c1.7-1.6,4.1-2.3,6.1-2.3c1.6,0,2.8,0.2,3.8,0.6l-0.4,4.6
		c-0.6-0.2-1.4-0.4-2.5-0.4c-2.9,0-3.9,2.4-3.9,5.3v1.2h5.1v4.4h-5.1v19H89.2z"/>
	<path class="st3" d="M103.8,236.1c0-3.2,0-5.4-0.2-7.5h5.1l0.2,4.5h0.2c1.2-3.3,3.9-5,6.4-5c0.6,0,0.9,0,1.4,0.1v5.6
		c-0.5-0.1-1-0.2-1.7-0.2c-2.8,0-4.8,1.8-5.3,4.5c-0.1,0.5-0.2,1.2-0.2,1.8V252h-5.9V236.1z"/>
	<path class="st3" d="M142.7,240.1c0,8.6-6,12.4-12,12.4c-6.6,0-11.7-4.6-11.7-12c0-7.7,5-12.4,12.1-12.4
		C138,228.1,142.7,233,142.7,240.1z M125.1,240.3c0,4.5,2.2,7.9,5.8,7.9c3.4,0,5.7-3.3,5.7-8c0-3.6-1.6-7.8-5.7-7.8
		C126.8,232.4,125.1,236.4,125.1,240.3z"/>
	<path class="st3" d="M147.5,235.6c0-2.7,0-4.9-0.2-7h5.2l0.3,3.5h0.1c1-1.8,3.6-4,7.4-4c4.1,0,8.3,2.6,8.3,10V252h-5.9v-13.2
		c0-3.4-1.2-5.9-4.5-5.9c-2.4,0-4,1.7-4.6,3.5c-0.2,0.5-0.2,1.2-0.2,1.9V252h-6V235.6z"/>
	<path class="st3" d="M181.5,221.9v6.7h5.6v4.4h-5.6v10.3c0,2.8,0.8,4.3,3,4.3c1,0,1.8-0.1,2.3-0.3l0.1,4.5
		c-0.9,0.3-2.4,0.6-4.3,0.6c-2.2,0-4-0.7-5.1-1.9c-1.2-1.3-1.8-3.5-1.8-6.5v-11h-3.4v-4.4h3.4v-5.3L181.5,221.9z"/>
	<path class="st3" d="M204.8,252l-0.4-2.6h-0.1c-1.4,1.8-3.9,3.1-6.9,3.1c-4.7,0-7.3-3.4-7.3-7c0-5.9,5.2-8.9,13.9-8.8v-0.4
		c0-1.5-0.6-4.1-4.8-4.1c-2.3,0-4.7,0.7-6.3,1.7l-1.2-3.8c1.7-1.1,4.8-2.1,8.4-2.1c7.5,0,9.6,4.8,9.6,9.8v8.4c0,2.1,0.1,4.2,0.3,5.6
		H204.8z M204,240.5c-4.2-0.1-8.2,0.8-8.2,4.4c0,2.3,1.5,3.4,3.4,3.4c2.4,0,4.1-1.5,4.6-3.2c0.1-0.4,0.2-0.9,0.2-1.3V240.5z"/>
	<path class="st3" d="M222.5,221.9v6.7h5.6v4.4h-5.6v10.3c0,2.8,0.8,4.3,3,4.3c1,0,1.8-0.1,2.3-0.3l0.1,4.5
		c-0.9,0.3-2.4,0.6-4.3,0.6c-2.2,0-4-0.7-5.1-1.9c-1.2-1.3-1.8-3.5-1.8-6.5v-11h-3.4v-4.4h3.4v-5.3L222.5,221.9z"/>
	<path class="st3" d="M238.8,222.1c0,1.8-1.3,3.2-3.4,3.2c-2,0-3.3-1.4-3.3-3.2c0-1.8,1.3-3.2,3.3-3.2
		C237.5,218.9,238.8,220.2,238.8,222.1z M232.6,252v-23.4h6V252H232.6z"/>
	<path class="st3" d="M267.1,240.1c0,8.6-6,12.4-12,12.4c-6.6,0-11.7-4.6-11.7-12c0-7.7,5-12.4,12.1-12.4
		C262.4,228.1,267.1,233,267.1,240.1z M249.5,240.3c0,4.5,2.2,7.9,5.8,7.9c3.4,0,5.7-3.3,5.7-8c0-3.6-1.6-7.8-5.7-7.8
		C251.1,232.4,249.5,236.4,249.5,240.3z"/>
	<path class="st3" d="M271.9,235.6c0-2.7,0-4.9-0.2-7h5.2l0.3,3.5h0.1c1-1.8,3.6-4,7.4-4c4.1,0,8.3,2.6,8.3,10V252h-5.9v-13.2
		c0-3.4-1.2-5.9-4.5-5.9c-2.4,0-4,1.7-4.6,3.5c-0.2,0.5-0.2,1.2-0.2,1.9V252h-6V235.6z"/>
</g>
<path class="st4" d="M94.7,160.6"/>
<path class="st4" d="M130,82.6"/>
<path class="st4" d="M213.7,133"/>
<path class="st4" d="M175.1,82.6"/>
<polyline class="st5" points="50.7,185 206.7,91.9 246.2,185 "/>
<line class="st4" x1="99.6" y1="155.8" x2="189.5" y2="102.2"/>
<line class="st6" x1="98.5" y1="187.2" x2="98.5" y2="78.7"/>
<line class="st6" x1="189.5" y1="187.2" x2="189.5" y2="78.7"/>
</svg>
