<?xml version="1.0" encoding="utf-8"?>
<!-- Generator: Adobe Illustrator 16.0.3, SVG Export Plug-In . SVG Version: 6.00 Build 0)  -->
<!DOCTYPE svg PUBLIC "-//W3C//DTD SVG 1.1//EN" "http://www.w3.org/Graphics/SVG/1.1/DTD/svg11.dtd">
<svg version="1.1" id="Ebene_1" xmlns="http://www.w3.org/2000/svg" xmlns:xlink="http://www.w3.org/1999/xlink" x="0px" y="0px"
	 width="290.9px" height="290.9px" viewBox="0 0 290.9 290.9" style="enable-background:new 0 0 290.9 290.9;" xml:space="preserve"
	>
<style type="text/css">
<![CDATA[
	.st0{fill:#7F7F7F;}
	.st1{enable-background:new    ;}
	.st2{clip-path:url(#SVGID_2_);}
	.st3{fill-rule:evenodd;clip-rule:evenodd;}
	.st4{fill:#FFFFFF;}
	.st5{fill-rule:evenodd;clip-rule:evenodd;fill:#FF7900;}
	.st6{fill-rule:evenodd;clip-rule:evenodd;fill:#FFFFFF;}
]]>
</style>
<title>reichweite_macro</title>
<g id="Ebene_1_1_">
	<path class="st0" d="M36.5,0h217.9c20.2,0,36.5,16.3,36.5,36.5v217.9c0,20.2-16.3,36.5-36.5,36.5H36.5C16.3,290.9,0,274.6,0,254.4
		V36.5C0,16.3,16.3,0,36.5,0z"/>
	<g class="st1">
	</g>
	<g class="st1">
	</g>
	<g class="st1">
	</g>
	<g class="st1">
	</g>
	<g class="st1">
		<path class="st4" d="M8.3,206.7c1.7-0.4,4.3-0.6,7-0.6c3.8,0,6.3,0.7,8.1,2.2c1.5,1.1,2.5,2.9,2.5,5.2c0,2.9-1.9,5.4-5,6.5v0.1
			c2.8,0.7,6.1,3,6.1,7.4c0,2.6-1,4.5-2.5,5.9c-2.1,1.9-5.4,2.8-10.3,2.8c-2.6,0-4.7-0.2-5.9-0.4V206.7z M12.2,218.9h3.5
			c4,0,6.4-2.1,6.4-5c0-3.5-2.6-4.8-6.5-4.8c-1.8,0-2.8,0.1-3.4,0.3V218.9z M12.2,233.1c0.7,0.1,1.8,0.2,3.2,0.2
			c4,0,7.6-1.5,7.6-5.8c0-4-3.5-5.7-7.7-5.7h-3.2V233.1z"/>
		<path class="st4" d="M34.4,226c0.1,5.2,3.4,7.4,7.3,7.4c2.8,0,4.4-0.5,5.9-1.1l0.7,2.8c-1.4,0.6-3.7,1.3-7.1,1.3
			c-6.6,0-10.5-4.3-10.5-10.7s3.8-11.5,10-11.5c7,0,8.8,6.1,8.8,10c0,0.8-0.1,1.4-0.1,1.8H34.4z M45.7,223.3c0-2.5-1-6.3-5.4-6.3
			c-3.9,0-5.6,3.6-5.9,6.3H45.7z"/>
		<path class="st4" d="M73.6,225.2c0,7.9-5.5,11.3-10.6,11.3c-5.8,0-10.2-4.2-10.2-11c0-7.1,4.7-11.3,10.6-11.3
			C69.4,214.2,73.6,218.6,73.6,225.2z M56.7,225.4c0,4.7,2.7,8.2,6.5,8.2c3.7,0,6.5-3.5,6.5-8.3c0-3.6-1.8-8.2-6.4-8.2
			C58.6,217.1,56.7,221.3,56.7,225.4z"/>
		<path class="st4" d="M78.3,236c0.1-1.5,0.2-3.6,0.2-5.5v-25.7h3.8v13.4h0.1c1.4-2.4,3.8-3.9,7.3-3.9c5.3,0,9,4.4,9,10.9
			c0,7.6-4.8,11.4-9.5,11.4c-3.1,0-5.5-1.2-7.1-4h-0.1l-0.2,3.5H78.3z M82.3,227.4c0,0.5,0.1,1,0.2,1.4c0.7,2.7,3,4.5,5.8,4.5
			c4,0,6.5-3.3,6.5-8.2c0-4.3-2.2-7.9-6.3-7.9c-2.6,0-5.1,1.8-5.9,4.8c-0.1,0.4-0.2,1-0.2,1.6V227.4z"/>
		<path class="st4" d="M115.3,236l-0.3-2.7h-0.1c-1.2,1.7-3.5,3.2-6.5,3.2c-4.3,0-6.5-3-6.5-6.1c0-5.1,4.6-8,12.8-7.9V222
			c0-1.8-0.5-4.9-4.8-4.9c-2,0-4,0.6-5.5,1.6l-0.9-2.6c1.8-1.1,4.3-1.9,7-1.9c6.5,0,8.1,4.4,8.1,8.7v8c0,1.8,0.1,3.7,0.4,5.1H115.3z
			 M114.7,225.1c-4.2-0.1-9,0.7-9,4.8c0,2.5,1.7,3.7,3.7,3.7c2.8,0,4.5-1.8,5.1-3.6c0.1-0.4,0.2-0.8,0.2-1.2V225.1z"/>
		<path class="st4" d="M139.9,235.2c-1,0.5-3.3,1.2-6.1,1.2c-6.4,0-10.6-4.4-10.6-10.9c0-6.6,4.5-11.3,11.4-11.3
			c2.3,0,4.3,0.6,5.4,1.1l-0.9,3c-0.9-0.5-2.4-1-4.5-1c-4.9,0-7.5,3.6-7.5,8.1c0,4.9,3.2,8,7.4,8c2.2,0,3.7-0.6,4.8-1.1L139.9,235.2
			z"/>
		<path class="st4" d="M144.4,204.7h3.9V218h0.1c0.6-1.1,1.6-2.1,2.8-2.7c1.1-0.7,2.5-1.1,4-1.1c2.9,0,7.4,1.8,7.4,9.1V236h-3.9
			v-12.2c0-3.4-1.3-6.3-4.9-6.3c-2.5,0-4.5,1.8-5.2,3.9c-0.2,0.5-0.3,1.1-0.3,1.8V236h-3.9V204.7z"/>
		<path class="st4" d="M173.3,208.6v6.1h5.5v2.9h-5.5v11.5c0,2.6,0.7,4.1,2.9,4.1c1,0,1.8-0.1,2.2-0.3l0.2,2.9
			c-0.7,0.3-1.9,0.5-3.4,0.5c-1.8,0-3.3-0.6-4.2-1.6c-1.1-1.1-1.5-3-1.5-5.5v-11.6h-3.3v-2.9h3.3v-5.1L173.3,208.6z"/>
		<path class="st4" d="M185.1,226c0.1,5.2,3.4,7.4,7.3,7.4c2.8,0,4.4-0.5,5.9-1.1l0.7,2.8c-1.4,0.6-3.7,1.3-7.1,1.3
			c-6.6,0-10.5-4.3-10.5-10.7s3.8-11.5,10-11.5c7,0,8.8,6.1,8.8,10c0,0.8-0.1,1.4-0.1,1.8H185.1z M196.4,223.3c0-2.5-1-6.3-5.4-6.3
			c-3.9,0-5.6,3.6-5.9,6.3H196.4z"/>
		<path class="st4" d="M205,220.4c0-2.2,0-4-0.2-5.8h3.4l0.2,3.5h0.1c1.1-2,3.5-4,7-4c2.9,0,7.5,1.8,7.5,9.1V236h-3.9v-12.3
			c0-3.4-1.3-6.3-4.9-6.3c-2.6,0-4.5,1.8-5.2,4c-0.2,0.5-0.3,1.1-0.3,1.8V236H205V220.4z"/>
		<path class="st4" d="M247.8,204.7v25.7c0,1.9,0,4,0.2,5.5h-3.5l-0.2-3.7h-0.1c-1.2,2.4-3.8,4.2-7.3,4.2c-5.1,0-9.1-4.4-9.1-10.8
			c0-7.1,4.4-11.4,9.5-11.4c3.3,0,5.5,1.5,6.4,3.3h0.1v-12.7H247.8z M243.9,223.4c0-0.5,0-1.1-0.2-1.6c-0.6-2.5-2.7-4.5-5.6-4.5
			c-4,0-6.4,3.5-6.4,8.2c0,4.3,2.1,7.9,6.3,7.9c2.6,0,5-1.7,5.7-4.6c0.1-0.5,0.2-1.1,0.2-1.7V223.4z"/>
		<path class="st4" d="M256.4,226c0.1,5.2,3.4,7.4,7.3,7.4c2.8,0,4.4-0.5,5.9-1.1l0.7,2.8c-1.4,0.6-3.7,1.3-7.1,1.3
			c-6.6,0-10.5-4.3-10.5-10.7s3.8-11.5,10-11.5c7,0,8.8,6.1,8.8,10c0,0.8-0.1,1.4-0.1,1.8H256.4z M267.7,223.3c0-2.5-1-6.3-5.4-6.3
			c-3.9,0-5.6,3.6-5.9,6.3H267.7z"/>
		<path class="st4" d="M276.3,221.3c0-2.5,0-4.7-0.2-6.6h3.4l0.1,4.2h0.2c1-2.9,3.3-4.7,5.9-4.7c0.4,0,0.7,0,1.1,0.1v3.7
			c-0.4-0.1-0.8-0.1-1.3-0.1c-2.7,0-4.7,2.1-5.2,5c-0.1,0.5-0.2,1.1-0.2,1.8V236h-3.8V221.3z"/>
	</g>
</g>
<g id="Ebene_2_1_">
	<path class="st4" d="M138.7,167"/>
</g>
<g>
</g>
<g class="st1">
	<path class="st4" d="M110.3,262c-0.2-4.1-0.5-9.1-0.4-12.8h-0.1c-1,3.5-2.2,7.2-3.7,11.3l-5.2,14.4h-2.9L93,260.7
		c-1.4-4.2-2.6-8-3.4-11.5h-0.1c-0.1,3.7-0.3,8.7-0.6,13.1L88.1,275h-3.7l2.1-29.7h4.9l5.1,14.3c1.2,3.7,2.2,6.9,3,10h0.1
		c0.7-3,1.8-6.2,3.1-10l5.3-14.3h4.9l1.8,29.7H111L110.3,262z"/>
	<path class="st4" d="M140,264.2c0,7.9-5.5,11.3-10.6,11.3c-5.8,0-10.2-4.2-10.2-11c0-7.1,4.7-11.3,10.6-11.3
		C135.9,253.2,140,257.6,140,264.2z M123.1,264.4c0,4.7,2.7,8.2,6.5,8.2c3.7,0,6.5-3.5,6.5-8.3c0-3.6-1.8-8.2-6.4-8.2
		C125.1,256.1,123.1,260.3,123.1,264.4z"/>
	<path class="st4" d="M163.3,243.7v25.7c0,1.9,0,4,0.2,5.5H160l-0.2-3.7h-0.1c-1.2,2.4-3.8,4.2-7.3,4.2c-5.1,0-9.1-4.4-9.1-10.8
		c0-7.1,4.4-11.4,9.5-11.4c3.3,0,5.5,1.5,6.4,3.3h0.1v-12.7H163.3z M159.4,262.4c0-0.5,0-1.1-0.2-1.6c-0.6-2.5-2.7-4.5-5.6-4.5
		c-4,0-6.4,3.5-6.4,8.2c0,4.3,2.1,7.9,6.3,7.9c2.6,0,5-1.7,5.7-4.6c0.1-0.5,0.2-1.1,0.2-1.7V262.4z"/>
	<path class="st4" d="M187.6,269.2c0,2.2,0,4.1,0.2,5.8h-3.4l-0.2-3.5H184c-1,1.7-3.3,4-7,4c-3.3,0-7.3-1.8-7.3-9.3v-12.5h3.9v11.8
		c0,4,1.2,6.8,4.8,6.8c2.6,0,4.4-1.8,5.1-3.5c0.2-0.6,0.4-1.3,0.4-2v-13.1h3.9V269.2z"/>
	<path class="st4" d="M193.5,271c1.1,0.7,3.2,1.5,5.1,1.5c2.8,0,4.1-1.4,4.1-3.2c0-1.8-1.1-2.9-4-3.9c-3.8-1.4-5.6-3.5-5.6-6
		c0-3.4,2.8-6.2,7.3-6.2c2.2,0,4,0.6,5.2,1.3l-1,2.8c-0.8-0.5-2.4-1.2-4.4-1.2c-2.3,0-3.6,1.3-3.6,2.9c0,1.8,1.3,2.6,4,3.6
		c3.7,1.4,5.6,3.3,5.6,6.4c0,3.7-2.9,6.4-8,6.4c-2.3,0-4.5-0.6-6-1.5L193.5,271z"/>
</g>
<g class="st1">
</g>
<g>
	<path class="st6" d="M180.3,177.1c0,0-0.1-0.1-0.1-0.1C180.2,177,180.2,177.1,180.3,177.1L180.3,177.1z"/>
</g>
<g>
</g>
<path class="st3" d="M184.4,148.8l10.7,17.4l-5,11.8l-20.5-3.4l-20.2-4.5l-17.8-3.9c0,0-2.5-0.8-4,2.3s0,9.6,0,9.6l2.5,3
	c0,0-2,4.5-6,4.5s-5.5-8.5-5.5-8.5l-3.8-10.8c0,0-0.3-3.9,0-7.3s6.7-6.4,6.7-6.4h4.5l13.5-5.4"/>
<path class="st3" d="M195.1,166.2c1.5,5.7,1.5,7.7,1.5,7.7s-0.6,2.3-1.5,3.1s-5,1-5,1"/>
<path d="M133.5,166.6c0,0,0.7,1.9,1,3.1s7.7,1.7,12.8,2.4s9.3,1.1,17.7,2.9s19.7,2.1,19.7,2.1l1.8-1.9l-33.8-11l-21.5-2.2
	L133.5,166.6z"/>
<g>
	<path class="st3" d="M137,166.2c0-29.2,0-58.3,0-87.5c1.1-0.8,2.3-1.6,3.4-2.5c9.1-7.2,18.7-13.3,30.7-14.4c11.1-1,22,1,32.8,3.2
		c2.4,0.5,4.5,0.7,6.8-0.7c5.4-3.2,11.2-5.3,17.4-6.3c3.6-0.5,7.3-1,10.7-2.2c3.4-1.2,5,0.2,6.7,2.5c0.9,1.2,2,2.3,3,3.4
		c1.1,1.3,2.6,2.4,3.2,3.9c2.8,5.9,3.5,12.2,3.2,18.7c-0.3,6.5-4.2,10.5-9.6,13.4c-0.2,0.1-0.6,0-1,0c0.1-1,0.2-1.8,0.2-2
		c-0.8-0.6-1.2-1.1-1.6-1.1c-0.9-0.1-2.1-0.3-2.6,0.2c-0.5,0.4-0.6,1.9-0.2,2.5c1.4,2.2,3.1,4.3,4.5,6.3c1.3-0.1,2.7-0.2,4.1-0.3
		c0.1,1.1,0.1,2.2,0.2,3.4c0.9,2.9,7.3,3.9,3,9.1c4.9,1.6,1.5,3.3-0.3,5.1c3.2,0,5.9,0,8.6,0c2.3,0,2.7,1.3,2.7,3.2
		c0,1.9-0.9,2.5-2.6,2.6c-4.1,0.2-8.3,0.5-12.3,0.9c-1,0.1-2.6,0.4-2.7,0.9c-0.7,3.6-2.7,2.1-4.8,1c-1,1.9-1.9,3.7-2.6,5.2
		c2.3,0.8,4,1.5,5.8,2.1c0.5,0.1,1,0,1.5-0.1c3.3-0.6,6.6-1.2,9.9-1.9c1-0.2,2-0.5,2.9-0.8c1.8-0.6,3.6-1.4,5.4-2.1
		c1.6-0.6,2.4,0.2,2.5,1.7c0.4,4.8,0.7,9.6,1.1,15.2c-2.8-0.5-5.2-0.6-7.2-1.6c-1.6-0.7-2.2-0.7-3.3,0.5c-1.9,2.2-7.9,1.9-9.6-0.3
		c-0.5-0.6-1.6-0.8-2.8-1.4c0.5,4.3,0.5,4.4-2.6,6.2c-4.9,2.8-10,2.8-15.1,0.4c-0.6-0.3-1.3-0.8-1.9-0.8c-2.5,0.1-5.1,0.3-7.6,0.5
		c-1.8,0.1-3.7,0.2-5.5,0.5c-3,0.6-6,1.5-9.5,2.4c-0.6-5-1.4-9.2-1.7-13.6c-0.2-2.4-1.4-3.4-3.5-3.2c-5.8,0.6-11.6,1.3-18,1.9
		c2,2.9,3.8,5.6,5.7,8.2C188.6,154.6,157.2,166.2,137,166.2z M209.4,121.8c6.6,0.9,12.6,0,18.4-2.6c3.8-1.7,5.4-4.3,4.9-8.4
		c-0.4-2.9,0.7-6-1.7-8.5c-0.3-0.4-0.2-1.2-0.1-1.8c0.8-2.8-1-2.9-2.9-2.6c-2.8,0.5-5.6,1.1-8.4,1.7c-2.1,0.4-3.7-0.1-4.6-2.1
		c-0.3-0.8-0.8-1.5-1.1-2.3c-0.3,0-0.6,0-0.9,0c-0.9,3.6-2,7.2-2.6,10.9c-0.4,2.5,0.1,5.1,0,7.7C210.1,116.4,209.7,119,209.4,121.8z
		 M192.9,123.8c-0.4-3.3-0.7-5.8-1.1-8.8c-3.1,2.2-5.6,4.1-8.5,6.2C186.6,122,189.3,122.8,192.9,123.8z"/>
</g>
<path class="st3" d="M190.1,178"/>
<g>
	<defs>
		<path id="SVGID_1_" d="M36.5,0h217.9c20.2,0,36.5,16.3,36.5,36.5v217.9c0,20.2-16.3,36.5-36.5,36.5H36.5
			C16.3,290.9,0,274.6,0,254.4V36.5C0,16.3,16.3,0,36.5,0z"/>
	</defs>
	<clipPath id="SVGID_2_">
		<use xlink:href="#SVGID_1_"  style="overflow:visible;"/>
	</clipPath>
	<g class="st2">
		<path class="st5" d="M-199.8,165.9c-1-17.6-5.4-33.1-14.4-47.1c-6.1-9.5-14.5-15.7-26.2-16c-6.5-0.2-13,0.2-19.5,0.6
			c-15.1,1-26.2,8.2-32.3,22.2c-4.4,10.3-8.3,20.9-12.6,31.7c-8-0.1-12.7-5.4-15.3-13.1c-3.9-11.6-3.1-23.5-0.7-35.1
			c4.5-22.5,0.9-22,27.4-29.3c32.7-8.9,66.4-12.3,100-16.3c2.4-0.3,4.8-1.2,6.8-2.4c11.5-7.3,22.8-15,34.4-22.2
			C-120.1,19-85.9,7.1-47.6,6.5c61.4-0.9,122.6,1.9,183.8,6.3c3.7,0.3,7.4,0.8,11.1,1.3c0.3,0.6,0.7,1.3,1,1.9
			c-3,2.6-6.1,5.2-8.7,7.5c7.7,13.6,15,27.3,22.9,40.6c5,8.5,6.3,17.3,4.3,26.8c-0.4,2-0.4,4-1.1,5.9c-1.4,3.7-0.4,6.6,2,9.6
			c6.7,8,10.2,17.3,8,27.8c-1.3,6.2-2.1,13.1-9.5,15.8c-13.9,5.1-35.9,6.6-50.6,8.3c-0.4-2,0.3-7.2,0-8.8
			c-2.5-12.5-9.9-13.3-17.1-24c-5.6-8.4-4.2-4.8-14.7-5c-10.2-0.2-9.8-3.8-20-2.3c-8.2,1.2-14.4,0.4-19,7.5
			c-8.7,13.5-12.1,20.1-15.2,36.8C-43.2,163.5-127.2,164.8-199.8,165.9z M-57.6,65.6C-25.5,63.7,6,61.9,38.1,60
			C34.5,45.7,31,32,27.3,17.4c-27.5,0.6-54.9,1.2-82.8,1.9C-56.2,35.1-56.9,50-57.6,65.6z M-78.4,66.8c2.8-15.3,5.6-30.5,8.5-46.5
			c-38.2,5.5-70.1,21.2-94.7,51.1C-136,69.9-107.4,68.4-78.4,66.8z M40.9,23.7c3.5,10.7,6.9,21.5,10.6,32.2c0.5,1.3,2.6,3,3.9,3
			c25.9-1.3,51.8-2.9,78.8-4.5c-1.4-2.1-2.2-3.8-3.5-5.1c-7.4-7.4-14.4-15.3-22.4-21.9c-4.1-3.3-10.1-5.3-15.5-5.9
			c-17.5-1.7-35.1-2.5-53.3-3.7C40.1,20.5,40.4,22.1,40.9,23.7z"/>
		<path class="st3" d="M-207.5,153.9c0.1,23.3-20.9,44.6-44.3,44.8c-23.7,0.2-45-20.8-45.2-44.4c-0.2-23.3,20.9-44.6,44.3-44.8
			C-229,109.3-207.6,130.2-207.5,153.9z M-224.6,153.6c-0.2-16.4-11.3-27.2-28-27.1c-16.4,0.1-27.5,11.5-27.3,27.9
			c0.3,16.4,11.5,27.3,28.1,27.1C-235.5,181.5-224.4,170.1-224.6,153.6z"/>
		<path class="st3" d="M26.1,153.8c0.2-23.5,21.3-44.4,44.7-44.4c23.7,0,44.8,21.2,44.8,44.8c-0.1,23.2-21.4,44.5-44.8,44.4
			C47.2,198.6,25.9,177.3,26.1,153.8z M98.5,153.7c-0.2-16.2-11.3-27.3-27.4-27.2c-16.7,0-28.1,11.4-27.9,27.9
			c0.2,16.3,11.6,27.3,28.1,27.3C87.5,181.6,98.7,170.1,98.5,153.7z"/>
		<path class="st6" d="M-55.5,19.3c-0.7,15.8-1.4,30.7-2,46.3C-25.5,63.7,6,61.9,38.1,60C34.5,45.7,31,32,27.3,17.4
			C-0.2,18-27.6,18.7-55.5,19.3z"/>
		<path class="st6" d="M-164.6,71.5c28.6-1.5,57.1-3.1,86.2-4.6c2.8-15.3,5.6-30.5,8.5-46.5C-108,25.8-139.9,41.5-164.6,71.5z"/>
		<path class="st6" d="M39.5,17.8c0.7,2.7,0.9,4.3,1.4,5.9c3.5,10.7,6.9,21.5,10.6,32.2c0.5,1.3,2.6,3,3.9,3
			c25.9-1.3,51.8-2.9,78.8-4.5c-1.4-2.1-2.2-3.8-3.5-5.1c-7.4-7.4-14.4-15.3-22.4-21.9c-4.1-3.3-10.1-5.3-15.5-5.9
			C75.3,19.8,57.7,19,39.5,17.8z"/>
		<path class="st6" d="M-251.8,181.6c16.4-0.1,27.4-11.5,27.2-28c-0.2-16.4-11.3-27.2-28-27.1c-16.4,0.1-27.5,11.5-27.3,27.9
			C-279.6,170.9-268.4,181.7-251.8,181.6z"/>
		<path class="st6" d="M71.2,181.6c16.3-0.1,27.5-11.5,27.3-27.9c-0.2-16.2-11.3-27.3-27.4-27.2c-16.7,0-28.1,11.4-27.9,27.9
			C43.4,170.7,54.7,181.7,71.2,181.6z"/>
	</g>
</g>
</svg>
