<?xml version="1.0" encoding="UTF-8" standalone="no"?>
<svg
   xmlns:dc="http://purl.org/dc/elements/1.1/"
   xmlns:cc="http://creativecommons.org/ns#"
   xmlns:rdf="http://www.w3.org/1999/02/22-rdf-syntax-ns#"
   xmlns:svg="http://www.w3.org/2000/svg"
   xmlns="http://www.w3.org/2000/svg"
   viewBox="0 0 375 375"
   height="375"
   width="375"
   xml:space="preserve"
   version="1.1"
   id="svg2"><metadata
     id="metadata8"><rdf:RDF><cc:Work
         rdf:about=""><dc:format>image/svg+xml</dc:format><dc:type
           rdf:resource="http://purl.org/dc/dcmitype/StillImage" /></cc:Work></rdf:RDF></metadata><defs
     id="defs6" /><g
     transform="matrix(1.25,0,0,-1.25,0,375)"
     id="g10"><g
       transform="scale(0.1,0.1)"
       id="g12"><path
         id="path14"
         style="fill:#ce8e95;fill-opacity:1;fill-rule:nonzero;stroke:none"
         d="m 3000,529.785 c 0,-67.64 0,-529.78890625 -715,-529.78890625 l -1625,0 C 35,-0.00390625 0,472.145 0,539.785 L 0,2399.77 c 0,545 592.352,600 660,600 l 1615,0.3 c 67.65,0 725,-0.3 725,-600.3" /><path
         id="path16"
         style="fill:#26080d;fill-opacity:1;fill-rule:nonzero;stroke:none"
         d="m 745.422,412 0,189.547 50.859,0 0,44.156 -51.343,0 0,12 c 0,28.781 10.078,53.266 39.343,53.266 10.563,0 18.719,-1.922 24.953,-4.328 l 4.329,45.593 c -9.61,3.36 -22.079,5.75 -37.922,5.75 -20.157,0 -43.657,-6.234 -60.938,-22.546 -20.156,-19.204 -28.312,-49.422 -28.312,-79.657 l 0,-10.078 -31.672,0 0,-44.156 31.672,0 0,-189.547 59.031,0" /><path
         id="path18"
         style="fill:#26080d;fill-opacity:1;fill-rule:nonzero;stroke:none"
         d="m 1017.42,412 c -2.39,14.391 -3.36,35.031 -3.36,56.141 l 0,84.468 c 0,50.86 -21.591,98.375 -96.451,98.375 -36.953,0 -67.187,-10.078 -84.453,-20.64 l 11.516,-38.391 c 15.828,10.078 39.828,17.281 62.859,17.281 41.266,0 47.516,-25.437 47.516,-40.796 l 0,-3.844 c -86.391,0.484 -138.688,-29.266 -138.688,-88.297 0,-35.5 26.391,-69.578 73.422,-69.578 30.235,0 54.703,12.953 69.094,31.187 l 1.438,0 3.843,-25.906 53.264,0 z m -60.936,82.063 c 0,-3.844 -0.484,-8.641 -1.921,-12.954 -5.282,-16.796 -22.563,-32.156 -46.079,-32.156 -18.703,0 -33.578,10.547 -33.578,33.594 0,35.5 39.828,44.625 81.578,43.656 l 0,-32.14" /><path
         id="path20"
         style="fill:#26080d;fill-opacity:1;fill-rule:nonzero;stroke:none"
         d="m 1233.11,752.719 0,-132.453 -0.95,0 c -10.57,17.281 -33.6,30.718 -65.75,30.718 -56.14,0 -105.1,-46.546 -104.61,-124.781 0,-71.969 44.14,-119.484 99.81,-119.484 34.08,0 62.39,16.312 76.3,42.234 l 0.97,0 2.39,-36.953 52.79,0 c -0.97,15.828 -1.92,41.75 -1.92,65.75 l 0,274.969 -59.03,0 z m 0,-239.469 c 0,-6.234 -0.48,-12 -1.92,-17.266 -5.75,-25.437 -26.88,-41.75 -50.86,-41.75 -37.44,0 -58.55,31.188 -58.55,73.891 0,43.672 21.11,77.266 59.02,77.266 26.87,0 45.59,-18.719 50.87,-41.75 0.96,-4.797 1.44,-10.563 1.44,-15.36 l 0,-35.031" /><path
         id="path22"
         style="fill:#26080d;fill-opacity:1;fill-rule:nonzero;stroke:none"
         d="m 1553.86,512.297 c 0.95,5.281 1.92,13.906 1.92,24.953 0,51.344 -24.95,113.734 -100.78,113.734 -74.86,0 -114.2,-60.953 -114.2,-125.734 0,-71.5 44.62,-118.047 120.45,-118.047 33.58,0 61.42,6.235 81.58,14.391 l -8.64,40.797 c -17.75,-6.719 -37.44,-10.563 -64.78,-10.563 -37.44,0 -70.55,18.235 -71.99,60.469 l 156.44,0 z m -156.44,41.266 c 2.39,24 17.75,57.109 54.22,57.109 39.36,0 48.95,-35.516 48.47,-57.109 l -102.69,0" /><path
         id="path24"
         style="fill:#26080d;fill-opacity:1;fill-rule:nonzero;stroke:none"
         d="m 1600.39,519.484 122.375,0 0,40.7969 -122.375,0 0,-40.7969 z" /><path
         id="path26"
         style="fill:#26080d;fill-opacity:1;fill-rule:nonzero;stroke:none"
         d="m 1828.17,412 0,233.703 -59.5,0 0,-233.703 59.5,0 z m -29.75,331.109 c -19.67,0 -33.11,-13.906 -33.11,-32.14 0,-17.766 12.96,-31.672 32.63,-31.672 20.64,0 33.59,13.906 33.59,31.672 -0.47,18.234 -12.95,32.14 -33.11,32.14" /><path
         id="path28"
         style="fill:#26080d;fill-opacity:1;fill-rule:nonzero;stroke:none"
         d="m 1891.67,412 59.5,0 0,137.25 c 0,6.719 0.49,13.906 2.41,19.188 6.23,17.75 22.55,34.546 46.06,34.546 32.16,0 44.63,-25.421 44.63,-59.015 l 0,-131.969 59.03,0 0,138.688 c 0,73.89 -42.24,100.296 -83.02,100.296 -38.87,0 -64.31,-22.078 -74.39,-40.312 l -1.44,0 -2.87,35.031 -51.83,0 c 1.44,-20.156 1.92,-42.719 1.92,-69.594 l 0,-164.109" /><path
         id="path30"
         style="fill:#333333;fill-opacity:1;fill-rule:nonzero;stroke:none"
         d="m 1500,1080 1000,0 0,1170 -1000,0 0,-1170 z" /><path
         id="path32"
         style="fill:#ffffff;fill-opacity:1;fill-rule:nonzero;stroke:none"
         d="m 1834.5,1575.36 c 21.17,-2.72 56.7,-6.14 103.16,-6.14 84.03,0 138,14.34 170.78,43.03 26.64,21.86 44.4,53.97 44.4,94.97 0,63.53 -44.4,101.78 -92.9,114.08 l 0,1.36 c 49.87,18.45 76.51,57.39 76.51,99.73 0,38.95 -19.14,69 -47.82,86.08 -31.43,21.86 -69.68,29.37 -131.85,29.37 -47.14,0 -95.64,-4.09 -122.28,-9.56 l 0,-452.92 z m 83.34,396.91 c 8.88,2.04 23.24,3.42 47.83,3.42 53.28,0 86.06,-19.81 86.06,-62.86 0,-38.94 -32.78,-66.27 -90.85,-66.27 l -43.04,0 0,125.71 z m 0,-187.18 41.68,0 c 58.06,0 104.51,-21.86 104.51,-75.15 0,-56.69 -47.81,-77.19 -101.78,-77.19 -19.12,0 -33.47,0.69 -44.41,2.05 l 0,150.29" /><path
         id="path34"
         style="fill:#333333;fill-opacity:1;fill-rule:nonzero;stroke:none"
         d="m 1332.05,1188.4 89.99,-1.5 -1.49,-89.99 -89.99,1.5" /><path
         id="path36"
         style="fill:#333333;fill-opacity:1;fill-rule:nonzero;stroke:none"
         d="m 1334.56,1338.38 89.99,-1.5 -1.5,-89.99 -89.99,1.5" /><path
         id="path38"
         style="fill:#333333;fill-opacity:1;fill-rule:nonzero;stroke:none"
         d="m 1337.07,1488.35 89.98,-1.49 -1.5,-89.99 -89.98,1.49" /><path
         id="path40"
         style="fill:#333333;fill-opacity:1;fill-rule:nonzero;stroke:none"
         d="m 1339.57,1638.34 89.98,-1.5 -1.49,-90 -89.99,1.5" /><path
         id="path42"
         style="fill:#333333;fill-opacity:1;fill-rule:nonzero;stroke:none"
         d="m 1342.07,1788.32 89.99,-1.52 -1.5,-89.98 -89.99,1.5" /><path
         id="path44"
         style="fill:#333333;fill-opacity:1;fill-rule:nonzero;stroke:none"
         d="m 1344.58,1938.29 89.98,-1.5 -1.49,-89.99 -89.99,1.5" /><path
         id="path46"
         style="fill:#333333;fill-opacity:1;fill-rule:nonzero;stroke:none"
         d="m 1346.91,2078.27 89.99,-1.5 -1.5,-89.99 -89.99,1.5" /><path
         id="path48"
         style="fill:#333333;fill-opacity:1;fill-rule:nonzero;stroke:none"
         d="m 1349.43,2228.25 89.98,-1.5 -1.51,-89.99 -89.97,1.5" /><path
         id="path50"
         style="fill:#333333;fill-opacity:1;fill-rule:nonzero;stroke:none"
         d="m 1173.41,1270.56 89.99,-1.5 -1.5,-89.99 -89.99,1.5" /><path
         id="path52"
         style="fill:#333333;fill-opacity:1;fill-rule:nonzero;stroke:none"
         d="m 1175.91,1420.54 89.99,-1.5 -1.49,-89.99 -89.99,1.5" /><path
         id="path54"
         style="fill:#333333;fill-opacity:1;fill-rule:nonzero;stroke:none"
         d="m 1178.42,1570.52 89.99,-1.51 -1.5,-89.98 -89.99,1.5" /><path
         id="path56"
         style="fill:#333333;fill-opacity:1;fill-rule:nonzero;stroke:none"
         d="m 1180.93,1720.49 89.99,-1.5 -1.51,-89.99 -89.98,1.5" /><path
         id="path58"
         style="fill:#333333;fill-opacity:1;fill-rule:nonzero;stroke:none"
         d="m 1183.26,1860.47 89.98,-1.5 -1.5,-89.99 -89.98,1.5" /><path
         id="path60"
         style="fill:#333333;fill-opacity:1;fill-rule:nonzero;stroke:none"
         d="m 1185.61,2000.45 89.98,-1.5 -1.5,-89.99 -90,1.5" /><path
         id="path62"
         style="fill:#333333;fill-opacity:1;fill-rule:nonzero;stroke:none"
         d="m 1188.1,2150.43 89.99,-1.5 -1.49,-89.98 -89.99,1.5" /><path
         id="path64"
         style="fill:#333333;fill-opacity:1;fill-rule:nonzero;stroke:none"
         d="m 1015.1,1433.21 89.99,-1.49 -1.5,-89.99 -89.98,1.49" /><path
         id="path66"
         style="fill:#333333;fill-opacity:1;fill-rule:nonzero;stroke:none"
         d="m 1017.94,1613.19 89.99,-1.5 -1.51,-89.99 -89.97,1.5" /><path
         id="path68"
         style="fill:#333333;fill-opacity:1;fill-rule:nonzero;stroke:none"
         d="m 1021.11,1803.16 89.98,-1.5 -1.49,-89.98 -89.99,1.5" /><path
         id="path70"
         style="fill:#333333;fill-opacity:1;fill-rule:nonzero;stroke:none"
         d="m 1023.95,1983.14 89.98,-1.5 -1.5,-89.99 -89.98,1.5" /><path
         id="path72"
         style="fill:#333333;fill-opacity:1;fill-rule:nonzero;stroke:none"
         d="m 885.098,1263.21 89.992,-1.49 -1.5,-89.99 -89.981,1.49" /><path
         id="path74"
         style="fill:#333333;fill-opacity:1;fill-rule:nonzero;stroke:none"
         d="m 867.938,1493.18 89.992,-1.48 -1.512,-90 -89.969,1.5" /><path
         id="path76"
         style="fill:#333333;fill-opacity:1;fill-rule:nonzero;stroke:none"
         d="m 851.113,1833.16 89.981,-1.5 -1.492,-89.98 -89.989,1.5" /><path
         id="path78"
         style="fill:#333333;fill-opacity:1;fill-rule:nonzero;stroke:none"
         d="m 883.953,2133.14 89.981,-1.5 -1.5,-89.99 -89.981,1.5" /><path
         id="path80"
         style="fill:#333333;fill-opacity:1;fill-rule:nonzero;stroke:none"
         d="m 691.113,1663.16 89.981,-1.5 -1.492,-89.98 -89.989,1.5" /><path
         id="path82"
         style="fill:#333333;fill-opacity:1;fill-rule:nonzero;stroke:none"
         d="m 653.953,1963.14 89.981,-1.5 -1.5,-89.99 -89.981,1.5" /><path
         id="path84"
         style="fill:#333333;fill-opacity:1;fill-rule:nonzero;stroke:none"
         d="m 671.113,1373.16 89.981,-1.5 -1.492,-89.98 -89.989,1.5" /></g></g></svg>