<svg xmlns="http://www.w3.org/2000/svg" xmlns:xlink="http://www.w3.org/1999/xlink" width="300" height="300" viewBox="0 0 300 300"><switch><g><symbol id="a" viewBox="-150 -150 300 300.015"><path fill="#AEBCC4" d="M150-97.015c0-6.763 0-52.985-71.5-52.985H-84c-62.5 0-66 47.223-66 53.985v186c0 54.5 59.235 60 66 60l161.5.029c6.765 0 72.5-.029 72.5-60.029v-187z"/></symbol><use xlink:href="#a" width="300" height="300.015" x="-150" y="-150" transform="matrix(1 0 0 -1 150 150)" overflow="visible"/><g fill="#080828"><path d="M69.46 254.172l8.785-11.233a91.945 91.945 0 0 1 3.457-3.936v-.097H70.324v-4.704h18.578v3.601l-8.593 10.992c-1.152 1.393-2.256 2.736-3.457 3.984v.097H89.19v4.704H69.46v-3.408zM115.158 245.675c0 8.593-6.048 12.434-12.001 12.434-6.625 0-11.713-4.561-11.713-12.05 0-7.68 5.041-12.385 12.097-12.385 6.961 0 11.617 4.896 11.617 12.001zm-17.617.24c0 4.513 2.208 7.921 5.808 7.921 3.36 0 5.713-3.313 5.713-8.017 0-3.648-1.632-7.825-5.665-7.825-4.176 0-5.856 4.032-5.856 7.921zM142.23 245.675c0 8.593-6.048 12.434-12.001 12.434-6.625 0-11.713-4.561-11.713-12.05 0-7.68 5.041-12.385 12.097-12.385 6.961 0 11.617 4.896 11.617 12.001zm-17.617.24c0 4.513 2.208 7.921 5.808 7.921 3.36 0 5.713-3.313 5.713-8.017 0-3.648-1.632-7.825-5.665-7.825-4.176 0-5.856 4.032-5.856 7.921zM147.076 241.163c0-2.688-.048-4.945-.192-6.961h5.089l.24 3.456h.144c1.152-1.824 3.265-3.984 7.2-3.984 3.072 0 5.473 1.729 6.48 4.32h.097c.815-1.296 1.776-2.256 2.88-2.928 1.297-.912 2.785-1.393 4.705-1.393 3.888 0 7.824 2.641 7.824 10.129v13.777h-5.761v-12.913c0-3.889-1.344-6.192-4.177-6.192-2.016 0-3.504 1.439-4.128 3.12-.144.576-.288 1.296-.288 1.968v14.018h-5.76v-13.537c0-3.265-1.297-5.568-4.033-5.568-2.208 0-3.695 1.728-4.225 3.36-.239.576-.336 1.248-.336 1.92v13.825h-5.76v-16.417zM204.003 227.674c0 1.775-1.296 3.168-3.36 3.168-1.968 0-3.264-1.393-3.264-3.168 0-1.824 1.344-3.217 3.313-3.217 2.015 0 3.263 1.393 3.311 3.217zm-6.288 29.906v-23.378h5.952v23.378h-5.952zM210.002 241.163c0-2.688-.048-4.945-.191-6.961h5.185l.288 3.504h.144c1.008-1.824 3.553-4.032 7.44-4.032 4.08 0 8.305 2.641 8.305 10.033v13.873h-5.904v-13.201c0-3.36-1.248-5.904-4.465-5.904-2.352 0-3.984 1.68-4.608 3.456-.191.528-.239 1.248-.239 1.92v13.729h-5.953v-16.417z"/></g><path fill="#FFF" d="M229.001 60.294l-35.022 37.389 17.167 17.169c-.009.461-.396 1.286-.862 1.295l-52.851 1.863a.8.8 0 0 1-.823-.823l1.86-52.854c.009-.464.4-1.286.862-1.295l18.653 18.654 34.516-35.918 16.5 14.52zM79.419 46.875l37.389 35.022 17.169-17.167c.461.009 1.286.396 1.295.862l1.863 52.851a.8.8 0 0 1-.823.823l-52.854-1.86c-.464-.009-1.286-.4-1.295-.862l18.654-18.653L64.9 63.375l14.519-16.5zM66 194.455l35.022-37.389-17.167-17.168c.009-.462.396-1.287.862-1.296l52.851-1.862a.8.8 0 0 1 .823.822l-1.86 52.854c-.009.464-.4 1.286-.862 1.295l-18.653-18.654L82.5 208.975 66 194.455zM214.58 207.875l-37.389-35.023-17.168 17.168c-.462-.01-1.287-.396-1.296-.863l-1.862-52.85a.8.8 0 0 1 .822-.824l52.854 1.861c.464.008 1.286.4 1.295.861l-18.654 18.654 35.918 34.516-14.52 16.5z"/></g></switch></svg>