<svg xmlns="http://www.w3.org/2000/svg" xmlns:xlink="http://www.w3.org/1999/xlink" width="300" height="300" viewBox="0 0 300 300"><switch><g><symbol id="a" viewBox="-150 -150 300 300.015"><path fill="#AEBCC4" d="M150-97.015c0-6.763 0-52.985-71.5-52.985H-84c-62.5 0-66 47.223-66 53.985v186c0 54.5 59.235 60 66 60l161.5.029c6.765 0 72.5-.029 72.5-60.029v-187z"/></symbol><use xlink:href="#a" width="300" height="300.015" x="-150" y="-150" transform="matrix(1 0 0 -1 150 150)" overflow="visible"/><defs><path id="b" d="M229.235 271.225H66.791c-22.026 0-39.882-17.855-39.882-39.882V68.897c0-22.026 17.855-39.882 39.882-39.882h162.445c22.026 0 39.882 17.855 39.882 39.882v162.445c-.001 22.027-17.856 39.883-39.883 39.883z"/></defs><clipPath id="c"><use xlink:href="#b" overflow="visible"/></clipPath><path clip-path="url(#c)" fill="none" stroke="#FFF" stroke-width="4" stroke-miterlimit="10" d="M284 155.015H15"/><path clip-path="url(#c)" fill-rule="evenodd" clip-rule="evenodd" fill="#FFF" d="M123.154 205.357c0 .892 1.07 1.784 1.249 3.032.356 1.428.535 4.639.535 5.174 0 .356-.714 5.708-.714 6.243 0 .356 1.605 3.032 1.605 3.567v6.423c.714 1.962 2.854 6.064 2.854 8.384 0 .535-.535 2.854-.535 3.389 0 .357 1.249 3.39 1.249 3.925 0 .357-1.427 6.244-1.427 6.601 0 .535 1.249 4.638 1.249 5.173 0 .893-.357 1.784-1.784 2.676-.356-2.676-.713-5.529-1.07-8.027-.713-5.887-1.249-12.13-2.141-18.017-.713-5.709-3.211-14.984-3.211-21.05v-3.925c.535-1.962.714-4.103.892-6.243v-4.816c.178-.179.535-.356.892-.714.179.892-.178 1.962.357 8.205zm98.113.179c0 3.746-1.427 8.384-1.962 12.486l.178 27.829c-.178 1.248-.713 2.676-.892 4.103-.356 1.784-.356 4.103-.535 6.243-.179 0-.535.179-.714.179 0-.714 0-1.784-.356-2.319-.356-1.248-1.605-3.389-1.605-3.746 0-.535.535-1.248.535-1.783 0-.357-1.605-2.141-1.605-2.498 0-.535.535-1.605.714-2.318l-.179-4.46c3.211-4.104 2.497-8.206 3.567-12.131v-4.638c-.535-2.854-1.783-7.313-1.783-10.524l.535-5.709c-.179-1.783-.893-5.173-.893-5.529 0-.535.179-.357.179-.535 1.07-.179 1.249-1.963 1.784-2.676.535-.535 1.605-.893 2.318-1.249.357 3.031.714 8.74.714 9.275zM155.978 28.22c-.535.356-.892.892-1.427 1.427.892-.178 1.962 0 2.676-.178.713 0 1.427-.535 1.962-.713 0 0 .179 0 .356.178-.356.357-.892.892-1.07 1.427h1.428c1.783-1.605 3.389-1.249 4.816-1.249 1.07 0 2.497-.179 3.746.535-.714.179-1.605.357-2.498.892 0 0-.178.178.357.178.356 0 2.676-.713 3.211-.713.356 0 1.07.179 1.605.357-.179.178-.535.178-.714.356 1.07.179 2.141.357 3.211.714l-.356.357c5.352 2.319 11.595 6.422 16.232 12.487 1.428 1.784.714 4.281 1.249 6.422l.179 6.957c0 2.498-.535 6.779-.535 7.135 0 .535.535 4.46.535 4.816 0 11.06-8.206 7.671-8.206 17.482v7.492c2.854 3.211 4.638 8.027 8.741 9.812 8.384 3.924 17.125 6.957 25.688 11.06 4.994 2.498 12.844 6.422 15.163 13.022a299.02 299.02 0 0 1 5.352 16.59c2.854 10.346 5.708 20.872 8.74 31.396.893 3.211 3.033 9.454 3.033 9.812 0 2.318-8.027 5.887-9.455 7.135l-.178 29.612c-1.428 7.313-3.212 15.698-4.995 23.19-2.319 10.168-5.352 20.336-7.492 30.683-.357 1.605.179 4.816.179 5.352 0 7.67-5.709 21.941-5.709 29.79v28.185l-4.638 51.911v3.211c-.893 6.957-2.319 14.627-4.816 21.763-.535 1.427-.714 3.39-.893 5.174-.178 2.318-.535 7.135-.535 7.67 0 .357-.713 6.779-.892 10.168-.356 3.033-.356 6.244-.535 9.455-.179 3.567-.356 7.135-.714 10.703-.178 1.605-4.638 28.363-4.638 34.785 0 .535.535 3.567.535 3.924 0 .535-.356 3.211-.356 3.746 0 2.141 1.962 5.53 3.389 7.671 1.963 2.854 4.995 4.995 4.995 7.671 0 5.708-11.417 5.708-13.379 5.708-5.173 0-9.989-.713-14.984-1.784-1.07-.178-2.141-.356-2.854-.892-2.676-1.427-6.6-2.497-7.67-6.065-.179-.356.178-.713.178-1.248 0-.357-.713-3.033-.713-4.46 0-4.816.356-6.957.356-7.492 0-1.962-4.103-4.816-4.103-11.238 0-.535.356-3.39.535-5.173v-11.238c1.248-9.455 4.459-19.801 6.243-29.077.179-1.784.179-4.995.179-5.352v-13.914c.356-2.498.892-7.492.892-7.85l-1.962-19.622v-44.239l-3.39-41.208c-2.854 13.022-6.065 27.115-7.671 40.315l.179 24.796c-.356 3.39-.356 6.957-1.249 10.524-.535 1.784-1.783 3.746-2.318 5.709-.714 1.962-1.07 4.459-1.784 6.6-.714 2.676-1.962 5.352-1.962 8.027 0 4.639 1.783 9.098 2.854 14.093l-1.783 9.812v4.103l-2.676 23.012c.178 2.498.535 6.957.535 7.492 0 5.887-1.428 12.131-1.428 14.449 0 5.174 4.46 9.99 4.46 15.163 0 .356-.356 2.319-.535 3.39-.179.535-.356 1.605-.535 2.497 0 .356-.356 1.249-.535 1.784-.714 2.497-3.032 7.313-3.032 7.849 0 .356.713 7.492.713 8.027 0 .892 0 2.319-.713 3.567-1.784 2.854-10.347 3.746-13.736 3.746-3.032 0-16.768-.178-16.768-6.778 0-4.638 4.281-13.914 4.281-17.481 0-.357-.892-4.104-.892-6.244-.356-5.708-2.141-11.416-3.924-17.125-.713-2.141-.713-4.638-.892-6.778-.356-3.567-.535-7.136-.713-10.703l-1.249-23.012v-40.672c.178-.535.178-1.07.178-1.605-.357-2.498 2.498-5.709 2.498-8.027 0-2.141-1.784-4.46-3.746-6.779-.714-.892-3.033-7.313-3.033-9.098v-3.389l1.605-14.271c0-6.422-.179-8.74-.535-21.584 0-.179.178-4.282.356-27.829l.357-24.617c-1.249-5.352-2.141-11.06-3.567-16.411-2.141-8.206-5.352-16.233-7.136-24.261-1.249-5.887-1.962-11.952-2.676-17.839-.535-4.103-.535-8.384-1.07-12.309-.713-5.173-1.784-10.524-2.676-15.697-2.141-1.07-4.816-2.319-7.135-3.568a205.604 205.604 0 0 1-11.06-5.352v-.356c0-.356 1.427-4.995 1.962-7.136 4.281-15.697 11.06-31.574 17.125-47.094 2.141-5.887 10.881-11.773 15.698-13.557 7.314-2.676 14.806-6.244 22.12-9.633.535-.178.356-1.07.535-1.427.713-.892 1.605-2.141 2.497-3.033 2.498-2.319 5.708-1.427 5.708-4.995 0-.535 0-.713-.178-1.07-4.46-2.854-5.887-8.563-6.779-12.309-.535-2.319-1.605-4.459-2.141-6.601-.713-2.854-.713-6.065-1.962-8.919 0-.357-4.995-7.492-4.995-9.098V43.74c.713-2.854 4.103-4.103 6.422-6.065.357-.357.535-.892.713-1.427.357-.892 2.141-3.389 3.568-3.211-.535.535-1.249 1.427-1.249 1.962v.892l.356.357c1.605-.892 1.427-3.924 4.103-4.281 0 .178-.357.535-.178.892.713-.892 1.962-2.498 2.497-2.498.357 0 .179.356.357.535.178-.892 1.427-1.427 2.319-1.605 0 .535-.178 1.07 0 1.605 1.07-.892 2.319-1.962 3.568-2.676h.893z"/><path clip-path="url(#c)" fill="#FFF" d="M127.833 26.931c.5-24.5-16.333-27.5-16.333-27.5s15.333-7.667 14.809-22.292c-.448-12.516-13.143-17.374-13.143-17.374s10.667-12.333 2.333-30c-10.784-22.861-35.134-11.184-35.134-11.184s15.326-27.87-2.088-47.713c-21.444-24.437-43.855-15.182-43.855-15.182s2.512-20.966-16.406-24.683c-22.267-4.375-22.868 8.75-22.868 8.75s-11.735-9.687-27.082 2.188c-11.233 8.693-6.737 35.434-6.737 35.434s-14.04-8.213-22.149-.123c-11.78 11.752-.822 32.654-.822 32.654S-85.084-90.36-90.5-72.235c-7.108 23.786 9.333 34 9.333 34s-20 .667-21.333 10.667c-2.169 16.27 9.533 24.227 9.533 24.227s-30.866-.252-30.866 25.773c0 26.026 37.131 28.447 37.131 28.447s-13.573 11.438-2.088 30.363c9.624 15.857 27.148 4.338 27.148 4.338s10.442 4.337 31.325 36.869c20.884 32.532 27.149 56.389 29.237 82.415s-10.442 64.882-10.442 64.882h58.827s-14.458-35.177-14.971-93.076c-.184-20.69 2.975-41.373 7.666-56.653 8.75-28.5 19.482-40.943 19.482-40.943s-.142 4.198 2.352 6.026c5 3.667 9.239 1.439 9.239 1.439s4.16 7.214 14.094 5.228c6.667-1.333 10.902-9.157 10.902-9.157s8.996.898 11.098-7.51c1.667-6.667-3.829-11.207-3.829-11.207s9.274 1.198 13.996-7.459c3-5.5 1-12.5 1-12.5s9.253-4.964 9.499-17.003zM-36.582 96.422L-53.289 83.41h18.795l-2.088 13.012zm29.942 41.464l-20.883-30.363V64.146s18.795 23.857 22.972 39.039-2.089 34.701-2.089 34.701zM2.37 91.31l-26.781-43.437s2.106.313 4.514-1.25c2.407-1.563.902-4.688.902-4.688S-7.56 48.811-.64 68.498C6.281 88.185 2.37 91.31 2.37 91.31zm24.463-18.879c-1.667 12.333-4.208 30.612-4.208 30.612s-2.557-16.537-4.663-27.162c-2.106-10.625-7.867-18.383-7.867-18.383s6.242-1.135 12.983-4.429l10.628-8.5c.001 0-4.827 12.722-6.873 27.862zM43.25 85.515c-4.5 7-8.25 13.25-8.25 13.25s.617-12.877 3.667-21.417C42 68.015 45 64.265 45 64.265s.551 3.385 4.5 4.833c2.5.917 4.182.365 4.182.365s-4.496 6.818-10.432 16.052z"/><g fill="#080828"><path d="M164.448 256.713c-.192-4.178-.433-9.217-.384-13.586h-.145a172.617 172.617 0 0 1-3.84 12.385l-4.705 14.018h-4.56l-4.32-13.824c-1.248-4.129-2.4-8.545-3.264-12.578h-.096c-.144 4.225-.336 9.361-.576 13.777l-.72 13.01h-5.521l2.16-32.355h7.777l4.224 13.01a163.289 163.289 0 0 1 2.976 11.232h.145c.863-3.504 1.968-7.488 3.216-11.281l4.464-12.961h7.682l1.871 32.355h-5.76l-.624-13.202zM176.686 263.48c1.92 1.105 4.801 2.064 7.824 2.064 3.793 0 5.904-1.775 5.904-4.416 0-2.449-1.631-3.889-5.76-5.377-5.328-1.92-8.736-4.752-8.736-9.408 0-5.281 4.416-9.313 11.424-9.313 3.506 0 6.098.768 7.777 1.631l-1.439 4.754c-1.152-.625-3.408-1.537-6.434-1.537-3.744 0-5.377 2.016-5.377 3.889 0 2.496 1.873 3.648 6.193 5.328 5.617 2.113 8.354 4.945 8.354 9.602 0 5.184-3.938 9.697-12.289 9.697-3.408 0-6.961-.961-8.738-2.018l1.297-4.896z"/></g></g></switch></svg>