<svg xmlns="http://www.w3.org/2000/svg" xmlns:xlink="http://www.w3.org/1999/xlink" width="300" height="300" viewBox="0 0 300 300"><switch><g><symbol id="a" viewBox="-150 -150 300 300.015"><path fill="#AEBCC4" d="M150-97.015c0-6.763 0-52.985-71.5-52.985H-84c-62.5 0-66 47.223-66 53.985v186c0 54.5 59.235 60 66 60l161.5.029c6.765 0 72.5-.029 72.5-60.029v-187z"/></symbol><use xlink:href="#a" width="300" height="300.015" x="-150" y="-150" transform="matrix(1 0 0 -1 150 150)" overflow="visible"/><defs><path id="b" d="M227.235 271.225H64.791c-22.026 0-39.882-17.855-39.882-39.882V68.897c0-22.026 17.855-39.882 39.882-39.882h162.445c22.026 0 39.882 17.855 39.882 39.882v162.445c-.001 22.027-17.856 39.883-39.883 39.883z"/></defs><clipPath id="c"><use xlink:href="#b" overflow="visible"/></clipPath><path clip-path="url(#c)" fill="none" stroke="#FFF" stroke-width="4" stroke-miterlimit="10" d="M282 205.015H13"/><path clip-path="url(#c)" fill="#FFF" d="M230.519 148.363s-.68 2.332.34 4.164c1.605 2.885 4.759 2.485 4.759 2.485s-1.869 1.513-1.302 3.734c.714 2.801 3.772 2.502 3.772 2.502s1.44 2.606 3.707 3.051c3.377.662 4.791-1.742 4.791-1.742s1.441.742 3.142-.479c.847-.608.799-2.008.799-2.008s3.605 2.355 8.126 13.401c2.511 6.138 2.46 16.429 1.43 27.756-.659 7.254-5.416 9.585-5.416 9.585s6.191.647 11.767-1.145c5.376 1.593 8.232 1.145 8.232 1.145s-6.643-4.194-6.44-12.893c.398-17.124-3.013-19.164 7.168-27.179 4.68-3.685 7.766-10.952 7.766-10.952s.788 1.95 2.888 2.141c1.553.141 2.688-1.792 2.688-1.792s1.109 2.925 5.974 1.493c2.539-.746 3.137-4.479 3.137-4.479s2.896.479 3.883-1.494c1.792-3.584-1.502-4.98-1.502-4.98s9.118.062 9.118-8.609-6.988-9.455-6.988-9.455 3.096-1.552 2.358-6.972c-.453-3.332-6.869-4.48-6.869-4.48s6.089-3.576 3.672-11.5c-1.841-6.039-9.811-5.95-9.811-5.95s3.726-6.964-.279-10.879c-2.758-2.696-7.53.041-7.53.041s1.528-8.91-2.291-11.806c-5.217-3.956-9.206-.729-9.206-.729s-.205-4.373-7.775-2.916c-6.432 1.238-5.577 8.224-5.577 8.224s-7.619-3.083-14.909 5.058c-5.92 6.611-3.788 13.034-3.788 13.034s-7.883-2.439-11.549 5.177c-2.833 5.886.597 10.155.597 10.155s-5.376 1.195-5.177 8.164c.14 4.875 6.173 6.372 6.173 6.372s-3.273.931-3.104 9.094c.08 4.01 3.226 5.663 3.226 5.663zm36.672 11.439c2.178-4.741 3.809-5.563 3.809-5.563s.759.473 2.314-.188c1.016-.43 1.083-1.866 1.083-1.866s-.272 2.757 1.979 3.062c2.763.373 2.75-3.224 2.75-3.224s-.659 1.88-.323 2.402c.613.953 1.613.974 1.613.974s-.742.304-.742 1.453c0 .945.93 1.243.93 1.243s-.486 2.971-1.428 4.581c-.632 1.082-2.481 3.175-3.285 4.082-.127.144.804-3.63.946-6.721.015-.338 1.045-.299 1.095-1.742.057-1.645-1.095-1.244-1.095-1.244v-6.472s-1.488-.199-1.494.498c-.001.217-.853.453-1.194 1.045-.479.832-.548 1.792-.548 1.792s-.807.438-1.045 1.892c-.498 3.037 2.937 3.286 2.937 3.286s-.149 1.543-.746 4.778c-.562 3.041-1.137 4.89-1.643 5.276-4.231 3.236-6.87 3.883-6.87 3.883s-1.951-6.895.957-13.227zm-10.542-6.74s.12.436 1.315.561c1.202.126 2.581-.685 2.581-.685s-.094.866.366 1.638c.601 1.01 1.059 1.01 1.059 1.01s-.687.505-.172 1.514c.438.857 1.265.827 1.265.827s.11 4.188.137 5.032c.172 5.495-.371 10.57-.371 10.57s-1.403-3.236-1.831-4.486c-.66-1.929-1.874-7.598-1.874-7.598s.858-1.826 1.502-3.701c.614-1.79.815-3.406.815-3.406l-.417-.201s-.605 1.467-1.042 2.557c-.599 1.496-1.387 3.042-1.387 3.042s-.114-.299-.173-.449c-1.773-4.543-1.773-6.225-1.773-6.225zm-4.151 3.807s.572.184 1.422-.121c1.343-.482 1.533-1.947 1.533-1.947s-.005 1.12 1.254 4.934c1.379 4.178 1.487 5.775 1.487 5.775s-2.132-2.827-3.662-5.159c-1.545-2.355-2.034-3.482-2.034-3.482zM135.934 142.699c.17-8.163-3.103-9.094-3.103-9.094s6.033-1.498 6.172-6.372c.199-6.969-5.177-8.164-5.177-8.164s3.43-4.269.597-10.155c-3.666-7.617-11.549-5.177-11.549-5.177s2.132-6.423-3.788-13.034c-7.291-8.141-14.91-5.058-14.91-5.058s.854-6.985-5.577-8.224c-7.57-1.458-7.775 2.916-7.775 2.916s-3.989-3.228-9.207.729c-3.819 2.896-2.291 11.806-2.291 11.806s-4.773-2.737-7.53-.041c-4.005 3.916-.279 10.879-.279 10.879s-7.97-.088-9.811 5.95c-2.417 7.925 3.672 11.5 3.672 11.5s-6.416 1.148-6.869 4.48c-.738 5.42 2.358 6.972 2.358 6.972s-6.988.784-6.988 9.455 9.118 8.609 9.118 8.609-3.294 1.396-1.502 4.98c.986 1.973 3.883 1.494 3.883 1.494s.598 3.733 3.136 4.479c4.865 1.432 5.974-1.493 5.974-1.493s1.135 1.933 2.688 1.792c2.1-.19 2.887-2.141 2.887-2.141s3.086 7.268 7.766 10.952c10.181 8.015 6.77 10.055 7.168 27.179.203 8.698-6.44 12.893-6.44 12.893s2.856.448 8.233-1.145c5.575 1.792 11.766 1.145 11.766 1.145s-4.756-2.331-5.416-9.585c-1.03-11.327-1.081-21.618 1.43-27.756 4.521-11.046 8.125-13.401 8.125-13.401s-.048 1.399.799 2.008c1.7 1.222 3.141.479 3.141.479s1.415 2.404 4.792 1.742c2.267-.444 3.707-3.051 3.707-3.051s3.058.299 3.773-2.502c.567-2.222-1.302-3.734-1.302-3.734s3.153.399 4.758-2.485c1.02-1.832.34-4.164.34-4.164s3.148-1.652 3.231-5.663zM96.99 173.03s-2.638-.646-6.869-3.883c-.506-.387-1.082-2.235-1.643-5.276-.597-3.235-.747-4.778-.747-4.778s3.435-.249 2.937-3.286c-.239-1.454-1.045-1.892-1.045-1.892s-.068-.96-.547-1.792c-.342-.592-1.193-.828-1.195-1.045-.005-.697-1.494-.498-1.494-.498v6.472s-1.152-.4-1.095 1.244c.049 1.443 1.08 1.404 1.095 1.742.142 3.091 1.073 6.864.946 6.721-.803-.907-2.653-3-3.285-4.082-.94-1.61-1.428-4.581-1.428-4.581s.93-.298.93-1.243c0-1.149-.742-1.453-.742-1.453s1-.021 1.613-.974c.336-.522-.323-2.402-.323-2.402s-.013 3.597 2.75 3.224c2.25-.305 1.979-3.062 1.979-3.062s.067 1.437 1.083 1.866c1.556.66 2.315.188 2.315.188s1.63.821 3.808 5.563c2.907 6.331.957 13.227.957 13.227zm7.81-13.745c-.059.15-.172.449-.172.449s-.788-1.546-1.387-3.042c-.437-1.09-1.042-2.557-1.042-2.557l-.417.201s.201 1.616.815 3.406c.643 1.875 1.502 3.701 1.502 3.701s-1.214 5.669-1.874 7.598c-.428 1.25-1.831 4.486-1.831 4.486s-.543-5.075-.372-10.57c.026-.844.137-5.032.137-5.032s.827.03 1.265-.827c.515-1.009-.172-1.514-.172-1.514s.458 0 1.059-1.01c.459-.771.366-1.638.366-1.638s1.379.811 2.581.685c1.195-.125 1.316-.561 1.316-.561s0 1.684-1.774 6.225zm3.891 1.066c-1.53 2.332-3.662 5.159-3.662 5.159s.108-1.598 1.487-5.775c1.259-3.813 1.253-4.934 1.253-4.934s.191 1.465 1.533 1.947c.85.305 1.422.121 1.422.121s-.488 1.127-2.033 3.482z"/><path clip-path="url(#c)" fill-rule="evenodd" clip-rule="evenodd" fill="#FFF" d="M134.097 175.708c0 .111.133.223.156.378.044.179.067.579.067.646 0 .044-.089.712-.089.779 0 .045.201.379.201.445v.802c.089.245.356.757.356 1.047 0 .066-.067.356-.067.423 0 .045.156.423.156.49 0 .044-.178.779-.178.824 0 .066.156.579.156.646 0 .111-.044.223-.223.334-.044-.334-.089-.69-.133-1.002-.089-.735-.156-1.515-.268-2.249-.089-.713-.401-1.871-.401-2.628v-.49c.067-.245.089-.513.112-.779v-.602c.022-.022.066-.045.111-.089.022.112-.023.246.044 1.025zm12.249.022c0 .467-.178 1.046-.245 1.559l.022 3.474c-.022.156-.089.335-.111.513-.044.223-.044.512-.067.779-.022 0-.067.022-.089.022 0-.089 0-.223-.044-.29-.045-.155-.201-.423-.201-.467 0-.067.067-.156.067-.223 0-.045-.201-.268-.201-.313 0-.066.067-.2.089-.289l-.022-.557c.401-.513.312-1.024.445-1.515v-.579c-.067-.356-.223-.913-.223-1.313l.067-.713c-.022-.223-.111-.646-.111-.69 0-.067.022-.045.022-.067.133-.021.156-.245.223-.334.067-.066.2-.111.29-.155.044.378.089 1.091.089 1.158zm-8.151-22.137c-.067.045-.111.112-.178.179.111-.022.245 0 .334-.022.089 0 .178-.066.245-.089 0 0 .022 0 .044.022-.044.044-.111.111-.133.178h.178c.223-.2.423-.155.602-.155.134 0 .312-.022.468.066-.089.022-.201.045-.312.111 0 0-.022.022.044.022.045 0 .334-.089.401-.089a.79.79 0 0 1 .201.044c-.022.022-.067.022-.089.045.134.022.268.044.401.089l-.044.045c.668.289 1.448.802 2.027 1.559.178.223.089.534.156.802l.022.868c0 .313-.066.847-.066.891 0 .067.066.558.066.602 0 1.381-1.024.958-1.024 2.183v.936c.356.4.579 1.002 1.091 1.225 1.047.49 2.138.869 3.207 1.381.624.312 1.604.802 1.893 1.626.245.69.468 1.381.668 2.071.356 1.291.713 2.605 1.091 3.919.111.401.378 1.181.378 1.226 0 .289-1.002.734-1.18.891l-.022 3.696c-.178.913-.401 1.96-.624 2.896-.289 1.27-.668 2.539-.935 3.831-.044.2.022.601.022.668 0 .957-.712 2.739-.712 3.719l.624 7.889-.579 6.48v.4c-.112.869-.29 1.826-.602 2.717-.067.179-.089.424-.111.646a46.67 46.67 0 0 0-.067.957c0 .045-.089.847-.111 1.27-.044.379-.044.78-.067 1.181-.022.445-.044.891-.089 1.336-.022.201-.579 3.541-.579 4.343 0 .067.067.445.067.49 0 .066-.044.4-.044.468 0 .268.245.69.423.958.245.355.624.623.624.957 0 .713-1.425.713-1.67.713-.646 0-1.247-.089-1.871-.223-.133-.022-.267-.045-.356-.111-.334-.179-.824-.312-.958-.758-.022-.044.022-.089.022-.155 0-.045-.089-.379-.089-.557 0-.602.044-.869.044-.936 0-.245-.512-.602-.512-1.403 0-.066.044-.423.067-.646v-1.403c.156-1.181.557-2.472.779-3.63.022-.223.022-.624.022-.668v-1.737c.045-.312.112-.936.112-.979l-.245-2.45v-5.523l-1.047-9.514c-.356 1.626-.133 7.755-.333 9.402l.022 3.096c-.045.424-.045.869-.156 1.314-.066.223-.223.468-.29.712-.089.245-.133.558-.223.824-.089.334-.245.668-.245 1.003 0 .578.223 1.136.356 1.759l-.223 1.225v.513l-.334 2.873c.022.312.067.868.067.936 0 .734-.178 1.514-.178 1.804 0 .646.557 1.247.557 1.893 0 .045-.044.29-.066.423-.022.067-.045.201-.067.313 0 .044-.045.155-.067.223-.089.312-.378.913-.378.979 0 .045.089.936.089 1.002 0 .111 0 .29-.089.445-.223.356-1.292.468-1.715.468-.378 0-2.093-.021-2.093-.846 0-.579.535-1.737.535-2.183 0-.045-.111-.513-.111-.779-.044-.713-.268-1.426-.49-2.138-.089-.268-.089-.58-.111-.847-.044-.445-.066-.891-.089-1.336l-.156-2.873v-5.078c.022-.066.022-.134.022-.2-.044-.312.312-.713.312-1.002 0-.268-.223-.557-.468-.847-.089-.111-.378-.913-.378-1.136v-.423l.2-1.782c0-.801-.022-1.091-.067-2.694 0-.022-.602-4.904-.58-7.844l.044-3.073c-.156-.668-.267-1.381-.445-2.049-.267-1.024-.668-2.026-.891-3.028-.156-.735-.245-1.492-.334-2.228-.067-.513-.067-1.047-.134-1.537-.089-.646-.223-1.313-.334-1.959-.268-.134-.602-.29-.891-.445a26.133 26.133 0 0 1-1.38-.669v-.044c0-.045.178-.624.245-.891.535-1.96 1.381-3.942 2.138-5.88.267-.734 1.358-1.47 1.959-1.692.913-.334 1.849-.779 2.762-1.203.067-.021.044-.133.067-.178.089-.111.2-.268.312-.379.312-.289.712-.178.712-.623 0-.067 0-.089-.022-.134-.557-.356-.735-1.069-.846-1.537-.067-.289-.2-.557-.267-.823-.089-.356-.089-.758-.245-1.114 0-.044-.624-.935-.624-1.136v-2.182c.089-.356.512-.513.802-.758a.452.452 0 0 0 .089-.178c.045-.111.268-.424.446-.401-.067.067-.156.179-.156.245v.111l.045.045c.2-.111.178-.49.512-.535 0 .022-.045.067-.022.111.089-.111.245-.312.312-.312.044 0 .022.045.044.067.022-.111.178-.179.29-.201 0 .067-.022.134 0 .201.133-.111.29-.245.445-.335h.107z"/><g fill="#080828"><path d="M134.941 255.561h-12.193v9.504h13.633v4.85h-19.538V237.56h18.818v4.848h-12.913v8.354h12.193v4.799zM141.563 237.559h5.905v27.41h13.297v4.945h-19.202v-32.355zM165.084 263.48c1.92 1.105 4.8 2.064 7.824 2.064 3.792 0 5.904-1.775 5.904-4.416 0-2.449-1.632-3.889-5.76-5.377-5.329-1.92-8.737-4.752-8.737-9.408 0-5.281 4.416-9.313 11.425-9.313 3.505 0 6.097.768 7.777 1.631l-1.44 4.754c-1.152-.625-3.408-1.537-6.433-1.537-3.744 0-5.376 2.016-5.376 3.889 0 2.496 1.872 3.648 6.192 5.328 5.616 2.113 8.353 4.945 8.353 9.602 0 5.184-3.937 9.697-12.289 9.697-3.408 0-6.961-.961-8.737-2.018l1.297-4.896z"/></g></g></switch></svg>