<svg xmlns="http://www.w3.org/2000/svg" xmlns:xlink="http://www.w3.org/1999/xlink" width="300" height="300" viewBox="0 0 300 300"><switch><g><symbol id="a" viewBox="-150 -150 300 300.015"><path fill="#AEBCC4" d="M150-97.015c0-6.763 0-52.985-71.5-52.985H-84c-62.5 0-66 47.223-66 53.985v186c0 54.5 59.235 60 66 60l161.5.029c6.765 0 72.5-.029 72.5-60.029v-187z"/></symbol><use xlink:href="#a" width="300" height="300.015" x="-150" y="-150" transform="matrix(1 0 0 -1 150 150)" overflow="visible"/><g fill="#080828"><path d="M31.626 223.744c.144 4.225 3.456 6.049 7.201 6.049 2.736 0 4.704-.384 6.48-1.056l.864 4.08c-2.017.816-4.801 1.44-8.161 1.44-7.584 0-12.049-4.657-12.049-11.81 0-6.48 3.937-12.577 11.425-12.577 7.585 0 10.081 6.24 10.081 11.377 0 1.104-.096 1.969-.192 2.496H31.626zm10.273-4.128c.048-2.16-.912-5.713-4.849-5.713-3.648 0-5.185 3.313-5.424 5.713h10.273zM51.93 228.353c1.344.816 3.888 1.681 6 1.681 2.592 0 3.744-1.057 3.744-2.593 0-1.584-.96-2.399-3.84-3.408-4.561-1.584-6.48-4.08-6.433-6.816 0-4.128 3.408-7.345 8.833-7.345 2.592 0 4.848.672 6.192 1.393l-1.152 4.176c-1.008-.576-2.88-1.344-4.945-1.344-2.112 0-3.264 1.008-3.264 2.448 0 1.488 1.104 2.208 4.081 3.265 4.224 1.536 6.192 3.696 6.24 7.152 0 4.225-3.312 7.297-9.505 7.297-2.832 0-5.376-.673-7.104-1.633l1.153-4.273zM79.002 203.727v6.673h5.616v4.416h-5.616v10.321c0 2.832.768 4.32 3.024 4.32a8.765 8.765 0 0 0 2.304-.288l.096 4.513c-.864.336-2.4.576-4.272.576-2.16 0-3.984-.721-5.088-1.921-1.248-1.344-1.824-3.456-1.824-6.528v-10.993h-3.36V210.4h3.36v-5.28l5.76-1.393zM102.234 233.777l-.384-2.592h-.144c-1.44 1.824-3.888 3.12-6.913 3.12-4.705 0-7.345-3.408-7.345-6.961 0-5.904 5.232-8.881 13.873-8.833v-.384c0-1.536-.624-4.08-4.752-4.08-2.304 0-4.704.72-6.289 1.728l-1.152-3.84c1.728-1.057 4.752-2.064 8.449-2.064 7.489 0 9.649 4.753 9.649 9.841v8.449c0 2.112.096 4.176.336 5.616h-5.328zm-.768-11.424c-4.176-.097-8.161.815-8.161 4.368 0 2.305 1.488 3.36 3.36 3.36 2.352 0 4.081-1.536 4.608-3.216a4.25 4.25 0 0 0 .192-1.297v-3.215zM113.273 233.777c.096-1.584.192-4.177.192-6.576v-27.507h5.904v13.921h.096c1.44-2.256 3.984-3.744 7.488-3.744 5.713 0 9.793 4.753 9.745 11.857 0 8.4-5.329 12.577-10.609 12.577-3.024 0-5.712-1.152-7.393-4.032h-.096l-.288 3.504h-5.039zm6.097-9.648c0 .479.048.96.144 1.392.624 2.353 2.688 4.129 5.232 4.129 3.696 0 5.953-2.977 5.953-7.681 0-4.129-1.968-7.489-5.905-7.489-2.4 0-4.56 1.729-5.232 4.32-.096.433-.192.96-.192 1.536v3.793zM141.545 199.694h5.952v34.083h-5.952v-34.083zM160.169 203.871c0 1.775-1.296 3.168-3.36 3.168-1.969 0-3.265-1.393-3.265-3.168 0-1.824 1.345-3.217 3.313-3.217 2.016 0 3.264 1.393 3.312 3.217zm-6.289 29.906v-23.378h5.953v23.378h-5.953zM165.88 228.353c1.345.816 3.889 1.681 6.001 1.681 2.592 0 3.744-1.057 3.744-2.593 0-1.584-.96-2.399-3.84-3.408-4.561-1.584-6.48-4.08-6.433-6.816 0-4.128 3.408-7.345 8.832-7.345 2.593 0 4.849.672 6.193 1.393l-1.152 4.176c-1.008-.576-2.881-1.344-4.944-1.344-2.112 0-3.265 1.008-3.265 2.448 0 1.488 1.104 2.208 4.08 3.265 4.225 1.536 6.193 3.696 6.241 7.152 0 4.225-3.313 7.297-9.505 7.297-2.832 0-5.377-.673-7.104-1.633l1.152-4.273zM186.184 199.694h5.953v13.921h.096a7.918 7.918 0 0 1 2.929-2.688c1.151-.673 2.544-1.057 4.032-1.057 3.984 0 8.16 2.641 8.16 10.129v13.777h-5.904v-13.105c0-3.408-1.248-5.952-4.513-5.952-2.304 0-3.937 1.536-4.561 3.313-.191.479-.239 1.104-.239 1.776v13.969h-5.953v-34.083zM219.928 203.871c0 1.775-1.296 3.168-3.36 3.168-1.969 0-3.265-1.393-3.265-3.168 0-1.824 1.345-3.217 3.313-3.217 2.016 0 3.264 1.393 3.312 3.217zm-6.289 29.906v-23.378h5.953v23.378h-5.953zM225.927 217.36c0-2.688-.048-4.945-.191-6.961h5.185l.287 3.504h.145c1.008-1.824 3.553-4.032 7.44-4.032 4.08 0 8.305 2.641 8.305 10.033v13.873h-5.904v-13.201c0-3.36-1.248-5.904-4.465-5.904-2.352 0-3.983 1.68-4.608 3.456-.191.528-.239 1.248-.239 1.92v13.729h-5.953V217.36zM274.745 210.399c-.096 1.584-.192 3.504-.192 6.721v13.249c0 4.896-1.008 8.4-3.456 10.608-2.448 2.16-5.809 2.833-9.024 2.833-2.977 0-6.145-.624-8.161-1.872l1.296-4.465c1.488.864 3.984 1.776 6.816 1.776 3.841 0 6.721-2.017 6.721-7.057v-2.017h-.096c-1.344 2.064-3.744 3.457-6.816 3.457-5.809 0-9.938-4.801-9.938-11.426 0-7.681 4.993-12.337 10.609-12.337 3.553 0 5.664 1.729 6.769 3.648h.096l.24-3.12h5.136zm-6.097 9.361c0-.527-.048-1.104-.192-1.584-.624-2.16-2.304-3.792-4.8-3.792-3.313 0-5.761 2.88-5.761 7.633 0 3.984 2.017 7.2 5.713 7.2 2.208 0 4.128-1.44 4.8-3.552.145-.624.24-1.44.24-2.112v-3.793zM108.185 276.353c1.344.816 3.888 1.681 6 1.681 2.592 0 3.744-1.057 3.744-2.593 0-1.584-.96-2.399-3.84-3.408-4.56-1.584-6.48-4.08-6.433-6.816 0-4.128 3.409-7.345 8.833-7.345 2.592 0 4.848.672 6.192 1.393l-1.152 4.176c-1.008-.576-2.88-1.344-4.945-1.344-2.112 0-3.264 1.008-3.264 2.448 0 1.488 1.104 2.208 4.081 3.265 4.224 1.536 6.192 3.696 6.24 7.152 0 4.225-3.312 7.297-9.504 7.297-2.833 0-5.377-.673-7.105-1.633l1.153-4.273zM128.489 247.694h5.952v13.921h.096a7.922 7.922 0 0 1 2.928-2.688c1.152-.673 2.544-1.057 4.032-1.057 3.985 0 8.161 2.641 8.161 10.129v13.777h-5.904v-13.105c0-3.408-1.248-5.952-4.512-5.952-2.304 0-3.937 1.536-4.561 3.313-.192.479-.24 1.104-.24 1.776v13.969h-5.952v-34.083zM178.17 269.872c0 8.593-6.049 12.434-12.001 12.434-6.625 0-11.714-4.561-11.714-12.05 0-7.68 5.041-12.385 12.098-12.385 6.961 0 11.617 4.897 11.617 12.001zm-17.618.24c0 4.513 2.208 7.921 5.809 7.921 3.36 0 5.713-3.313 5.713-8.017 0-3.648-1.632-7.825-5.665-7.825-4.177 0-5.857 4.033-5.857 7.921zM189.784 251.727v6.673h5.617v4.416h-5.617v10.321c0 2.832.769 4.32 3.024 4.32a8.78 8.78 0 0 0 2.305-.288l.096 4.513c-.864.336-2.4.576-4.272.576-2.16 0-3.984-.721-5.088-1.921-1.249-1.344-1.824-3.456-1.824-6.528v-10.993h-3.36V258.4h3.36v-5.28l5.759-1.393z"/></g><g fill-rule="evenodd" clip-rule="evenodd"><path fill="#FFF" d="M254.032 192H42V21.645h212.032V192zM188.596 76.407c.17-1.587.752-3.284.421-4.741-.585-2.558-1.729-4.968-2.505-7.076-.115.518-.406 1.833-.724 3.254l-2.118-.544c-1.022 1.925-2.368 3.543-2.691 5.369-.254 1.44.456 3.349 1.28 4.657.781 1.239 2.125 2.6 3.856 1.074l-4.11 6.853c2.736 2.674 5.46 5.333 8.183 7.991-4.94-.794-9.653-1.78-13.588-5.083-3.271-2.747-5.841-1.817-7.11 2.511l-2.816-.635-.186.578 3.439 1.912-15.642 1.721c1.42-.886 2.258-1.215 2.829-1.828.438-.468.763-1.313.716-1.955-.032-.439-.729-.979-1.234-1.191-1.462-.616-3.12-.828-4.444-1.665-4.271-2.698-8.4-2.775-12.616.064-1.026.69-2.245 1.596-3.334 1.537-2.873-.158-2.042 1.581-1.627 3.173-6.137.262-6.137.262-7.365-6.299-.739-3.948-1.843-4.68-5.625-3.9-.611.127-1.308-.301-1.951-.253-3.205.242-6.405.557-10.04.885-.651-1.086-2.38-2.724-2.567-4.545-.409-3.98-1.438-7.372-4.441-9.863-.733-.608-1.616-1.011-2.836-1.756-1.379-2.065-2.978-4.773-4.874-7.217-2.44-3.145-2.5-3.013-4.921-.004a9.153 9.153 0 0 1-2.671 2.22c-4.628 2.532-6.982 6.84-8.178 11.979-3.421 14.715-3.829 29.741-4.14 45.669-.532-1.374-.981-2.092-1.079-2.862-.494-3.854-.833-7.729-1.342-11.579-1.508-11.4-4.153-22.44-9.351-32.628-.564-1.106-1.36-2.076-2.05-3.111 1.177 3.605 2.817 6.817 4.024 10.206 4.929 13.834 7.46 28.3 7.906 42.992.428 14.101-.353 28.247-.6 42.374-.017.993-.002 1.988-.002 2.982.378.012.756.021 1.133.03 1.457-12.067 1.479-24.242 1.341-36.399h23.417c0 5.079-.075 9.951.026 14.82.064 3.081-.576 5.726-2.082 8.478-1.243 2.271-1.401 5.265-1.823 7.978-.093.594.602 1.543 1.166 1.995 1.257 1.011 2.661 1.808 4.234 2.845l2.021-2.904 1.063 3.143c6.218-.559 12.619 2.65 19.097-2.643a10549.6 10549.6 0 0 1-8.45-4.785c3.54-.617 6.315-1.327 9.496-.55 3.116.763 6.592.075 9.873-.326.972-.117 1.817-1.416 2.722-2.174-.987-.806-1.932-2.233-2.966-2.312-4.261-.322-7.631-2.624-11.042-4.963-2.728-1.871-1.962-4.736-1.415-7.186.152-.679 2.472-1.006 3.825-1.119 1.61-.131 3.248.142 5.322.264 1.435-10.053 2.979-19.787 4.15-29.572.517-4.327-1.235-6.16-5.23-6.48-4.143-.332-8.3-.472-12.437-.873-.921-.088-1.781-.913-2.669-1.397.907-.573 1.812-1.645 2.721-1.649 20.266-.096 40.533-.097 60.8-.007.952.004 1.901 1.004 2.854 1.541-.921.529-1.8 1.39-2.771 1.531-4.188.606-8.454.721-12.593 1.568-2.998.616-4.634 3.343-4.233 6.504 1.239 9.762 2.798 19.477 4.24 29.276l9.026-.527c1.425 4.784 1.092 6.848-2.458 9.106-2.961 1.886-6.391 2.907-9.546 4.462-1.107.545-2.022 1.54-3.024 2.33.946.682 1.836 1.823 2.846 1.96 3.054.417 6.306 1.146 9.195.431 3.169-.783 5.821-.566 8.882 1.164-1.453.603-2.8.919-3.879 1.672-1.101.772-1.939 1.978-2.891 2.99 1.107.666 2.199 1.869 3.325 1.906 5.453.177 11.044 1.04 16.055-2.533l.978 3.133c1.449-3.269 2.901-2.959 4.594-.3.614-2.441 1.185-4.594 1.139-6.729-.219-9.733-.611-19.46-.94-29.269h23.251c0 4.232-.035 8.224.01 12.215.044 4.008.081 8.019.278 12.02.191 3.79.589 7.566.895 11.352.313-.014.626-.024.937-.035.143-.261.398-.519.404-.784.018-.887-.042-1.777-.097-2.663-1.158-18.784-2.119-37.57.864-56.274 1.977-12.389 4.089-24.752 10.458-35.677.083-.143-.12-.479-.329-1.218-8.987 15.095-10.894 31.851-12.737 48.572h-2.944c0-4.172.081-8.135-.016-12.091-.228-9.433-.306-18.879-.902-28.286-.356-5.583-1.833-10.99-6.242-14.773-2.139-1.835-4.32-3.614-6.913-5.78l-7.419 9.617-1.869-.828-4.143 9.46c-.91-.195-1.683-.359-2.454-.523zM101.079 65.56c3.865-.72 3.871-.711 8.493-4.108.74-.543 1.741-1.059 2.041-1.841 1.199-3.139 2.179-6.375 3.214-9.583.159-.494.333-1.064.253-1.552-.806-4.888-10.5-9.905-14.224-6.927-2.24 1.791-4.275 4.78-4.987 7.635-.919 3.691-2.698 8.083 1.635 11.368 1.522 1.152 2.391 3.293 3.575 5.008zm94.866.516c1.436-1.646 2.491-3.484 4.021-4.482 3.592-2.345 3.654-5.744 3.151-9.5-.16-1.208-.163-2.451-.418-3.634-1.12-5.214-4.781-8.128-9.161-7.373-5.6.966-9.212 5.403-8.433 10.726.391 2.678.632 5.911 2.15 7.74 2.153 2.59 3.736 6.692 8.065 6.328.182-.015.368.111.625.195z"/><path fill="#AEBCC4" d="M188.596 76.407l2.453.521 4.143-9.46 1.869.828 7.419-9.617c2.593 2.166 4.774 3.944 6.913 5.78 4.409 3.783 5.886 9.19 6.242 14.773.597 9.406.675 18.853.902 28.286.097 3.956.016 7.918.016 12.091h2.944c1.844-16.721 3.75-33.477 12.737-48.572.209.739.412 1.075.329 1.218-6.369 10.924-8.481 23.288-10.458 35.677-2.983 18.704-2.022 37.49-.864 56.274.055.886.114 1.776.097 2.663-.006.266-.262.523-.404.784-.311.011-.623.021-.937.035-.306-3.785-.703-7.562-.895-11.352-.197-4.001-.234-8.012-.278-12.02-.045-3.991-.01-7.983-.01-12.215h-23.251c.329 9.809.722 19.536.94 29.269.046 2.135-.524 4.287-1.139 6.729-1.692-2.659-3.145-2.969-4.594.3l-.978-3.133c-5.011 3.573-10.602 2.71-16.055 2.533-1.126-.037-2.218-1.24-3.325-1.906.951-1.013 1.79-2.218 2.891-2.99 1.079-.753 2.426-1.069 3.879-1.672-3.061-1.73-5.713-1.947-8.882-1.164-2.89.715-6.142-.014-9.195-.431-1.01-.137-1.899-1.278-2.846-1.96 1.002-.79 1.917-1.785 3.024-2.33 3.155-1.555 6.585-2.576 9.546-4.462 3.55-2.259 3.883-4.323 2.458-9.106-2.798.165-5.671.331-9.026.527-1.442-9.8-3.001-19.515-4.24-29.276-.4-3.162 1.235-5.888 4.233-6.504 4.139-.848 8.405-.962 12.593-1.568.971-.141 1.85-1.002 2.771-1.531-.952-.537-1.901-1.537-2.854-1.541-20.268-.09-40.535-.089-60.8.007-.91.004-1.814 1.076-2.721 1.649.888.485 1.748 1.309 2.669 1.397 4.137.4 8.294.541 12.437.873 3.995.32 5.747 2.153 5.23 6.48-1.17 9.785-2.715 19.519-4.15 29.572-2.074-.123-3.712-.395-5.322-.264-1.353.113-3.673.44-3.825 1.119-.547 2.45-1.313 5.315 1.415 7.186 3.411 2.339 6.78 4.641 11.042 4.963 1.034.078 1.979 1.506 2.966 2.312-.904.758-1.75 2.057-2.722 2.174-3.281.401-6.757 1.089-9.873.326-3.181-.777-5.956-.067-9.496.55 2.885 1.636 5.369 3.042 8.45 4.785-6.478 5.293-12.879 2.084-19.097 2.643l-1.063-3.143-2.021 2.904c-1.573-1.037-2.978-1.834-4.234-2.845-.564-.452-1.259-1.401-1.166-1.995.422-2.713.58-5.707 1.823-7.978 1.506-2.752 2.146-5.397 2.082-8.478-.101-4.869-.026-9.741-.026-14.82H74.945c.138 12.158.116 24.332-1.341 36.399l-1.133-.03c0-.994-.015-1.989.002-2.982.247-14.126 1.028-28.272.6-42.374-.446-14.691-2.977-29.158-7.906-42.992-1.207-3.389-2.847-6.601-4.024-10.206.689 1.035 1.486 2.005 2.05 3.111 5.197 10.188 7.842 21.228 9.351 32.628.509 3.85.848 7.726 1.342 11.579.098.771.547 1.488 1.079 2.862.311-15.928.719-30.954 4.14-45.669 1.195-5.139 3.55-9.447 8.178-11.979a9.14 9.14 0 0 0 2.671-2.22c2.422-3.009 2.481-3.141 4.921.004 1.896 2.444 3.494 5.152 4.874 7.217 1.22.746 2.103 1.148 2.836 1.756 3.002 2.491 4.032 5.882 4.441 9.863.187 1.821 1.916 3.459 2.567 4.545 3.635-.329 6.835-.643 10.04-.885.644-.047 1.34.38 1.951.253 3.782-.78 4.886-.048 5.625 3.9 1.228 6.561 1.228 6.561 7.365 6.299-.414-1.592-1.245-3.331 1.627-3.173 1.089.059 2.308-.846 3.334-1.537 4.216-2.839 8.345-2.762 12.616-.064 1.324.836 2.982 1.049 4.444 1.665.505.213 1.202.752 1.234 1.191.047.642-.277 1.487-.716 1.955-.571.613-1.409.942-2.829 1.828l15.642-1.721c-1.243-.69-2.341-1.3-3.439-1.912l.186-.578c.937.21 1.874.422 2.816.635 1.27-4.328 3.839-5.258 7.11-2.511 3.935 3.303 8.647 4.29 13.588 5.083l-8.183-7.991 4.11-6.853c.828-.662 1.656-1.326 2.482-1.991zm-9.644 23.282c-.254-.329-.508-.655-.763-.983-.508-.037-1.016-.105-1.524-.105-20.353-.007-40.704-.009-61.056-.007-.517 0-1.14-.134-1.525.122-.415.276-.777.914-.838 1.436-.038.334.47 1.007.811 1.073.907.177 1.857.133 2.789.134 18.899.004 37.797.003 56.697.003 1.141 0 2.327.193 3.41-.083.741-.191 1.338-1.037 1.999-1.59zM98.506 129.81v-5.698H74.397l.507 5.698h23.602zm122.391 1.133v-5.7h-23.206l.276 5.7h22.93zm-33.888-5.677c2.08 6.924 4.007 13.333 5.932 19.745l.576-.169v-21.318c-2.254.602-4.204 1.125-6.508 1.742zm-75.252-26.36c-1.187-.174-2.362-.348-3.727-.55-.13-2.123-1.183-3.339-3.293-2.675-2.394.753-1.046 2.762-.874 4.149.194 1.569.919 3.063 1.399 4.54h6.495v-5.464zm84.607 54.316v-21.525c-2.265 1.957-2.158 18.315 0 21.525zm-93.617-17.72c.116.063.232.124.347.184l3.923-11.537-4.271-.49.001 11.843zm-1.902-4.242l-.825-.082v13.063l.825.011V131.26zm80.241-29.149c.074 3.211 4.726 4.054 8.63 1.905l-8.63-1.905zm3.384 54.01c2.483-1.853 1.808-4.023 1.074-6.063-.097-.263-1.378-.036-2.11-.036l1.036 6.099zm11.899-31.043l-1.612.191c.16 1.939.322 3.876.481 5.814l1.396-.165-.265-5.84z"/><path fill="#AEBCC4" d="M101.079 65.56c-1.184-1.715-2.053-3.856-3.574-5.009-4.333-3.285-2.555-7.676-1.635-11.368.712-2.855 2.747-5.844 4.987-7.635 3.723-2.979 13.418 2.039 14.224 6.927.081.488-.094 1.059-.253 1.552-1.035 3.209-2.015 6.444-3.214 9.583-.3.782-1.301 1.298-2.041 1.841-4.624 3.398-4.63 3.389-8.494 4.109zM195.945 66.076c-.257-.084-.443-.21-.623-.196-4.329.364-5.912-3.738-8.065-6.328-1.519-1.829-1.76-5.062-2.15-7.74-.779-5.323 2.833-9.76 8.433-10.726 4.38-.755 8.041 2.159 9.161 7.373.255 1.183.258 2.425.418 3.634.503 3.756.44 7.155-3.151 9.5-1.531.999-2.587 2.837-4.023 4.483zM188.596 76.407l-2.48 1.993c-1.731 1.525-3.075.165-3.856-1.074-.824-1.309-1.534-3.217-1.28-4.657.323-1.826 1.669-3.443 2.691-5.369.708.183 1.443.372 2.118.544l.724-3.254c.775 2.108 1.92 4.519 2.505 7.076.33 1.458-.252 3.154-.422 4.741z"/><path fill="#FFF" d="M178.952 99.689c-.661.553-1.258 1.399-2 1.589-1.083.276-2.27.083-3.41.083-18.899 0-37.798.001-56.697-.003-.932-.001-1.881.042-2.789-.134-.341-.066-.849-.739-.811-1.073.061-.522.424-1.16.838-1.436.386-.256 1.008-.122 1.525-.122 20.352-.001 40.703 0 61.056.007.509 0 1.017.068 1.524.105.256.329.51.655.764.984zM98.506 129.81H74.904c-.162-1.808-.322-3.623-.507-5.698h24.109v5.698zM220.897 130.943h-22.93l-.276-5.7h23.206v5.7zM187.009 125.266c2.305-.617 4.254-1.14 6.508-1.742v21.318l-.576.169c-1.925-6.412-3.852-12.821-5.932-19.745zM111.757 98.906v5.464h-6.495c-.479-1.477-1.205-2.971-1.399-4.54-.173-1.388-1.52-3.396.874-4.149 2.11-.664 3.163.553 3.293 2.675l3.727.55zM196.364 153.222c-2.158-3.209-2.266-19.567 0-21.525v21.525zM102.747 135.502v-11.843l4.271.49-3.923 11.537c-.116-.06-.232-.121-.348-.184zM100.845 131.26v12.992l-.825-.011v-13.063l.825.082zM181.086 102.111l8.63 1.905c-3.904 2.149-8.556 1.307-8.63-1.905zM184.47 156.121l-1.036-6.099c.732 0 2.014-.228 2.11.036.733 2.04 1.409 4.211-1.074 6.063zM196.369 125.078l.265 5.841-1.396.165c-.159-1.938-.321-3.875-.481-5.814l1.612-.192z"/></g></g></switch></svg>