<?xml version="1.0" encoding="iso-8859-1"?>
<!-- Generator: Adobe Illustrator 16.0.3, SVG Export Plug-In . SVG Version: 6.00 Build 0)  -->
<!DOCTYPE svg PUBLIC "-//W3C//DTD SVG 1.1//EN" "http://www.w3.org/Graphics/SVG/1.1/DTD/svg11.dtd">
<svg version="1.1" id="Ebene_1" xmlns="http://www.w3.org/2000/svg" xmlns:xlink="http://www.w3.org/1999/xlink" x="0px" y="0px"
	 width="518px" height="518px" viewBox="0 0 518 518" style="enable-background:new 0 0 518 518;" xml:space="preserve">
<path style="fill-rule:evenodd;clip-rule:evenodd;fill:#754D29;" d="M518,512c0,3.313-2.017,6-4.505,6H4.505
	C2.018,518,0,515.313,0,512V6c0-3.313,2.017-6,4.504-6h508.99C515.983,0,518,2.687,518,6V512z"/>
<g>
	<g id="XMLID_1_">
		<g>
			<path style="fill:#FDFDFC;" d="M218.249,272.39c-3.25-0.04-6-1.529-6.37-5.1c-0.44-4.29-0.48-8.62-0.53-12.94
				c-0.06-4.83,0.14-9.659,0.1-14.49c-0.03-2.28-0.42-4.51-4.6-3.58c-0.33,7.18-0.7,14.59-1,22c-0.1,2.66,0.06,5.34-0.05,8
				c-0.14,3.27-1.05,5.97-5.15,5.89c-3.79-0.08-6.57-2.28-6.66-5.96c-0.11-4.479,0.32-8.979,0.38-13.47
				c0.08-6.11,0.02-12.221,0.02-18.58c-6.95-1.05-11.39-4.42-11.75-11.53c-6.38-2.24-9.45-6.44-8.77-12.96
				c-9.29-6.85-9.78-17.25,2.49-22.7c-6.37-10.92-0.09-20.2,11.15-19.29c-0.22-12.36,5.72-17.19,17.16-13.61
				c5.04-4.83,10.71-5.96,15.94-2.32c4.08-2.25,7.47-5,11.33-6.03c4.29-1.14,7.97,1.43,10.61,5c8.42-7.12,12.95-7.07,20.61,0.17
				c8.94-5.48,13.79-4.36,19.43,3.98c3.78-0.68,7.37-2.18,10.66-1.68c3.1,0.48,5.89,3.05,8.64,4.6c1.97-2.78,4.48-6.31,7.14-10.06
				c-0.53-0.47-2.2-1.33-2.91-2.7c-0.89-1.71-1.88-4.31-1.17-5.62c0.67-1.24,3.5-1.3,5.39-1.86c0.12-0.04,0.32,0.08,0.46,0.17
				c6.37,4.16,14.03,4.49,20.91,7.01c16.61,6.09,26.45,19.13,32.64,35.01c2.931,7.51-2.22,14.12-10.649,14.72
				c-5.84,0.41-11.17-1.32-16.021-4.56c-1.92-1.28-3.84-2.57-5.75-3.86c-0.55,0.17-1.1,0.34-1.649,0.51
				c0.27,2.47-0.101,5.28,0.95,7.36c2.779,5.48,2.149,10.24-1.66,14.72c3.01,9.27,2.25,15.2-7.391,18.63
				c-0.83,6.88-4.939,10.79-11.93,11.5c-0.43,9.55-0.69,18.84-1.34,28.101c-0.35,5.159-2.73,6.96-6.63,5.18
				c-1.48-0.68-3.01-2.83-3.2-4.46c-0.93-8.07-1.34-16.21-2.15-24.311c-0.21-2.13-1.18-4.189-1.81-6.279c-0.7,0.1-1.4,0.21-2.1,0.32
				c-0.29,5.67-0.6,11.34-0.84,17.02c-0.17,4.16-0.11,8.33-0.41,12.479c-0.21,2.78-1.1,5.07-4.68,5.351
				c-3.62,0.29-4.91-1.83-5.32-4.61c-0.84-5.569-1.4-11.189-1.9-16.81c-0.23-2.61-0.04-5.271-0.04-8.17
				c-2.11-0.301-3.87-0.561-5.56-0.801c-8.19,6.801-11.85,7.021-19.54,1.03c-5.28,3.12-10.54,3.021-15.39-1.56
				c-4.54,3.84-9.41,5.05-15.5,1.479c-0.3,6.311-0.58,12.021-0.83,17.721c-0.1,2.159-0.03,4.34-0.21,6.489
				C222.559,269.76,221.699,272.44,218.249,272.39z"/>
			<path style="fill:#754D29;" d="M419.679,200.93c0.57,87.61-71.08,160.28-160.37,160.66c-88.46,0.38-160.09-70.49-161.13-160.5
				c0.91-91.88,75.04-160.51,160.47-160.72C346.899,40.14,419.099,111.9,419.679,200.93z M293.019,237.31
				c0.7-0.11,1.4-0.22,2.1-0.32c0.63,2.09,1.6,4.149,1.81,6.279c0.81,8.101,1.22,16.24,2.15,24.311c0.19,1.63,1.72,3.78,3.2,4.46
				c3.9,1.78,6.28-0.021,6.63-5.18c0.65-9.261,0.91-18.551,1.34-28.101c6.99-0.71,11.1-4.62,11.93-11.5
				c9.641-3.43,10.4-9.36,7.391-18.63c3.81-4.48,4.439-9.24,1.66-14.72c-1.051-2.08-0.681-4.89-0.95-7.36
				c0.55-0.17,1.1-0.34,1.649-0.51c1.91,1.29,3.83,2.58,5.75,3.86c4.851,3.24,10.181,4.97,16.021,4.56
				c8.43-0.6,13.58-7.21,10.649-14.72c-6.189-15.88-16.029-28.92-32.64-35.01c-6.88-2.52-14.54-2.85-20.91-7.01
				c-0.14-0.09-0.34-0.21-0.46-0.17c-1.89,0.56-4.72,0.62-5.39,1.86c-0.71,1.31,0.28,3.91,1.17,5.62c0.71,1.37,2.38,2.23,2.91,2.7
				c-2.66,3.75-5.17,7.28-7.14,10.06c-2.75-1.55-5.54-4.12-8.64-4.6c-3.29-0.5-6.88,1-10.66,1.68c-5.64-8.34-10.49-9.46-19.43-3.98
				c-7.66-7.24-12.19-7.29-20.61-0.17c-2.64-3.57-6.32-6.14-10.61-5c-3.86,1.03-7.25,3.78-11.33,6.03
				c-5.23-3.64-10.9-2.51-15.94,2.32c-11.44-3.58-17.38,1.25-17.16,13.61c-11.24-0.91-17.52,8.37-11.15,19.29
				c-12.27,5.45-11.78,15.85-2.49,22.7c-0.68,6.52,2.39,10.72,8.77,12.96c0.36,7.11,4.8,10.48,11.75,11.53
				c0,6.359,0.06,12.47-0.02,18.58c-0.06,4.49-0.49,8.99-0.38,13.47c0.09,3.68,2.87,5.88,6.66,5.96c4.1,0.08,5.01-2.62,5.15-5.89
				c0.11-2.66-0.05-5.34,0.05-8c0.3-7.41,0.67-14.82,1-22c4.18-0.93,4.57,1.3,4.6,3.58c0.04,4.831-0.16,9.66-0.1,14.49
				c0.05,4.32,0.09,8.65,0.53,12.94c0.37,3.57,3.12,5.06,6.37,5.1c3.45,0.051,4.31-2.63,4.55-5.46c0.18-2.149,0.11-4.33,0.21-6.489
				c0.25-5.7,0.53-11.41,0.83-17.721c6.09,3.57,10.96,2.36,15.5-1.479c4.85,4.58,10.11,4.68,15.39,1.56
				c7.69,5.99,11.35,5.771,19.54-1.03c1.69,0.24,3.45,0.5,5.56,0.801c0,2.899-0.19,5.56,0.04,8.17c0.5,5.62,1.06,11.24,1.9,16.81
				c0.41,2.78,1.7,4.9,5.32,4.61c3.58-0.28,4.47-2.57,4.68-5.351c0.3-4.149,0.24-8.319,0.41-12.479
				C292.419,248.65,292.729,242.98,293.019,237.31z"/>
			<path style="fill:#FCFBFB;" d="M259.039,25.99c96.51-0.58,177.17,79.81,175.04,178.93c-2.04,95.16-81.561,173.45-179.37,171.17
				c-94.72-2.21-173.28-81.439-170.77-179.76C86.349,101.91,164.509,25.46,259.039,25.99z M259.309,361.59
				c89.29-0.38,160.94-73.05,160.37-160.66c-0.58-89.03-72.779-160.79-161.03-160.56c-85.43,0.21-159.56,68.84-160.47,160.72
				C99.219,291.1,170.849,361.97,259.309,361.59z"/>
		</g>
		<g>
		</g>
	</g>
</g>
<g>
	<rect y="413" style="fill-rule:evenodd;clip-rule:evenodd;fill:none;" width="518.001" height="106"/>
	<path style="fill:#FFFFFF;" d="M38.065,450.5v-35.547h10.498c3.141,0,5.928,0.7,8.362,2.1c2.433,1.4,4.317,3.386,5.652,5.957
		c1.334,2.572,2.002,5.518,2.002,8.838v1.782c0,3.369-0.671,6.332-2.014,8.887c-1.343,2.556-3.255,4.525-5.737,5.908
		c-2.482,1.384-5.327,2.075-8.533,2.075H38.065z M44.242,419.934v25.635h4.028c3.239,0,5.725-1.014,7.458-3.039
		c1.733-2.027,2.616-4.936,2.649-8.729v-1.978c0-3.857-0.838-6.803-2.515-8.838c-1.677-2.034-4.11-3.052-7.3-3.052H44.242z"/>
	<path style="fill:#FFFFFF;" d="M85.941,450.5c-0.261-0.504-0.488-1.326-0.684-2.466c-1.888,1.97-4.199,2.954-6.934,2.954
		c-2.653,0-4.818-0.757-6.494-2.271c-1.677-1.514-2.515-3.385-2.515-5.615c0-2.815,1.045-4.977,3.137-6.481
		c2.091-1.506,5.082-2.259,8.972-2.259h3.638v-1.733c0-1.367-0.383-2.462-1.147-3.283c-0.765-0.822-1.929-1.233-3.491-1.233
		c-1.351,0-2.458,0.338-3.32,1.013c-0.863,0.676-1.294,1.535-1.294,2.576h-5.933c0-1.448,0.48-2.804,1.44-4.064
		c0.96-1.262,2.266-2.25,3.918-2.967c1.652-0.716,3.495-1.074,5.53-1.074c3.092,0,5.558,0.777,7.397,2.332
		c1.839,1.554,2.783,3.739,2.832,6.555v11.914c0,2.377,0.333,4.272,1.001,5.688v0.415H85.941z M79.423,446.228
		c1.172,0,2.274-0.284,3.308-0.854c1.033-0.569,1.811-1.334,2.332-2.295v-4.98h-3.198c-2.197,0-3.85,0.383-4.956,1.147
		c-1.107,0.766-1.66,1.848-1.66,3.247c0,1.14,0.378,2.047,1.135,2.723C77.14,445.89,78.153,446.228,79.423,446.228z"/>
	<path style="fill:#FFFFFF;" d="M112.016,443.322c0-1.058-0.436-1.863-1.306-2.417c-0.871-0.553-2.315-1.041-4.333-1.465
		c-2.019-0.423-3.703-0.96-5.054-1.611c-2.962-1.432-4.443-3.507-4.443-6.226c0-2.278,0.96-4.183,2.881-5.713
		c1.92-1.529,4.362-2.295,7.324-2.295c3.157,0,5.708,0.781,7.654,2.344c1.945,1.563,2.917,3.589,2.917,6.079h-5.933
		c0-1.139-0.423-2.087-1.27-2.845c-0.847-0.756-1.97-1.135-3.369-1.135c-1.302,0-2.364,0.302-3.186,0.903
		c-0.822,0.603-1.233,1.408-1.233,2.417c0,0.912,0.382,1.62,1.147,2.124c0.765,0.505,2.311,1.013,4.639,1.526
		c2.327,0.512,4.154,1.123,5.481,1.83c1.326,0.709,2.311,1.56,2.954,2.552c0.643,0.993,0.964,2.197,0.964,3.613
		c0,2.377-0.985,4.301-2.954,5.774c-1.97,1.473-4.549,2.209-7.739,2.209c-2.165,0-4.094-0.391-5.786-1.172
		c-1.693-0.781-3.011-1.855-3.955-3.223c-0.944-1.367-1.416-2.84-1.416-4.419h5.762c0.081,1.4,0.61,2.478,1.587,3.235
		c0.977,0.756,2.271,1.135,3.882,1.135c1.563,0,2.75-0.297,3.564-0.891C111.608,445.06,112.016,444.283,112.016,443.322z"/>
	<path style="fill:#FFFFFF;" d="M141.044,424.084l0.171,2.759c1.855-2.164,4.395-3.247,7.617-3.247c3.532,0,5.949,1.352,7.251,4.053
		c1.92-2.701,4.622-4.053,8.105-4.053c2.913,0,5.082,0.806,6.506,2.417c1.424,1.611,2.152,3.988,2.185,7.129V450.5h-5.933v-17.188
		c0-1.676-0.366-2.905-1.099-3.687s-1.945-1.172-3.638-1.172c-1.351,0-2.454,0.362-3.308,1.087
		c-0.854,0.724-1.453,1.672-1.794,2.844l0.024,18.115H151.2v-17.383c-0.082-3.108-1.668-4.663-4.761-4.663
		c-2.376,0-4.061,0.969-5.054,2.905V450.5h-5.933v-26.416H141.044z"/>
	<path style="fill:#FFFFFF;" d="M194.755,450.5c-0.261-0.504-0.488-1.326-0.684-2.466c-1.888,1.97-4.199,2.954-6.934,2.954
		c-2.653,0-4.818-0.757-6.494-2.271c-1.677-1.514-2.515-3.385-2.515-5.615c0-2.815,1.045-4.977,3.137-6.481
		c2.091-1.506,5.082-2.259,8.972-2.259h3.638v-1.733c0-1.367-0.383-2.462-1.147-3.283c-0.765-0.822-1.929-1.233-3.491-1.233
		c-1.351,0-2.458,0.338-3.32,1.013c-0.863,0.676-1.294,1.535-1.294,2.576h-5.933c0-1.448,0.48-2.804,1.44-4.064
		c0.96-1.262,2.266-2.25,3.918-2.967c1.652-0.716,3.495-1.074,5.53-1.074c3.092,0,5.558,0.777,7.397,2.332
		c1.839,1.554,2.783,3.739,2.832,6.555v11.914c0,2.377,0.333,4.272,1.001,5.688v0.415H194.755z M188.236,446.228
		c1.172,0,2.274-0.284,3.308-0.854c1.033-0.569,1.811-1.334,2.332-2.295v-4.98h-3.198c-2.197,0-3.85,0.383-4.956,1.147
		c-1.107,0.766-1.66,1.848-1.66,3.247c0,1.14,0.378,2.047,1.135,2.723C185.954,445.89,186.967,446.228,188.236,446.228z"/>
	<path style="fill:#FFFFFF;" d="M216.874,446.252c1.481,0,2.71-0.431,3.687-1.294c0.977-0.862,1.497-1.929,1.563-3.198h5.591
		c-0.065,1.645-0.578,3.178-1.538,4.602c-0.96,1.425-2.263,2.552-3.906,3.382c-1.644,0.83-3.418,1.245-5.322,1.245
		c-3.695,0-6.625-1.196-8.789-3.589c-2.165-2.393-3.247-5.696-3.247-9.912v-0.61c0-4.02,1.074-7.238,3.223-9.656
		c2.148-2.416,5.078-3.625,8.789-3.625c3.141,0,5.701,0.916,7.678,2.746c1.978,1.832,3.015,4.236,3.113,7.215h-5.591
		c-0.065-1.514-0.582-2.759-1.55-3.735c-0.969-0.977-2.202-1.465-3.699-1.465c-1.921,0-3.402,0.696-4.443,2.087
		c-1.042,1.393-1.571,3.504-1.587,6.336v0.952c0,2.865,0.517,5.001,1.55,6.409C213.427,445.548,214.921,446.252,216.874,446.252z"/>
	<path style="fill:#FFFFFF;" d="M238.041,426.965c1.937-2.246,4.386-3.369,7.349-3.369c5.631,0,8.488,3.215,8.569,9.644V450.5
		h-5.933v-17.041c0-1.822-0.395-3.113-1.184-3.869c-0.79-0.758-1.949-1.136-3.479-1.136c-2.376,0-4.15,1.059-5.322,3.174V450.5
		h-5.933V413h5.933V426.965z"/>
	<path style="fill:#FFFFFF;" d="M271.586,450.988c-3.76,0-6.808-1.184-9.143-3.553c-2.336-2.367-3.503-5.521-3.503-9.46v-0.732
		c0-2.637,0.508-4.993,1.526-7.067c1.017-2.076,2.445-3.69,4.285-4.847c1.839-1.155,3.89-1.733,6.152-1.733
		c3.597,0,6.376,1.147,8.337,3.442c1.961,2.295,2.942,5.542,2.942,9.741v2.393h-17.261c0.179,2.182,0.907,3.906,2.185,5.176
		c1.277,1.27,2.885,1.904,4.822,1.904c2.718,0,4.932-1.099,6.641-3.296l3.198,3.052c-1.058,1.579-2.47,2.804-4.236,3.674
		C275.765,450.553,273.783,450.988,271.586,450.988z M270.878,428.356c-1.628,0-2.942,0.57-3.943,1.709
		c-1.001,1.14-1.64,2.727-1.917,4.761h11.304v-0.439c-0.13-1.985-0.659-3.487-1.587-4.504
		C273.808,428.865,272.521,428.356,270.878,428.356z"/>
	<path style="fill:#FFFFFF;" d="M292.289,424.084l0.171,3.052c1.953-2.359,4.517-3.54,7.69-3.54c5.501,0,8.301,3.149,8.398,9.448
		V450.5h-5.933v-17.114c0-1.676-0.362-2.917-1.086-3.724c-0.725-0.805-1.909-1.208-3.552-1.208c-2.393,0-4.175,1.083-5.347,3.247
		V450.5h-5.933v-26.416H292.289z"/>
	<path style="fill:#FFFFFF;" d="M342.826,450.5c-0.261-0.504-0.488-1.326-0.684-2.466c-1.889,1.97-4.199,2.954-6.934,2.954
		c-2.653,0-4.818-0.757-6.494-2.271c-1.677-1.514-2.515-3.385-2.515-5.615c0-2.815,1.045-4.977,3.137-6.481
		c2.092-1.506,5.082-2.259,8.973-2.259h3.638v-1.733c0-1.367-0.383-2.462-1.147-3.283c-0.766-0.822-1.929-1.233-3.491-1.233
		c-1.352,0-2.458,0.338-3.32,1.013c-0.863,0.676-1.294,1.535-1.294,2.576h-5.933c0-1.448,0.479-2.804,1.44-4.064
		c0.96-1.262,2.267-2.25,3.918-2.967c1.652-0.716,3.495-1.074,5.53-1.074c3.092,0,5.558,0.777,7.397,2.332
		c1.839,1.554,2.783,3.739,2.832,6.555v11.914c0,2.377,0.333,4.272,1.001,5.688v0.415H342.826z M336.308,446.228
		c1.172,0,2.274-0.284,3.309-0.854c1.033-0.569,1.81-1.334,2.331-2.295v-4.98h-3.198c-2.197,0-3.85,0.383-4.956,1.147
		c-1.107,0.766-1.66,1.848-1.66,3.247c0,1.14,0.378,2.047,1.136,2.723C334.024,445.89,335.038,446.228,336.308,446.228z"/>
	<path style="fill:#FFFFFF;" d="M360.404,450.5h-5.933V413h5.933V450.5z"/>
	<path style="fill:#FFFFFF;" d="M373.173,450.5h-5.933V413h5.933V450.5z"/>
	<path style="fill:#FFFFFF;" d="M391.264,450.988c-3.76,0-6.808-1.184-9.144-3.553c-2.335-2.367-3.503-5.521-3.503-9.46v-0.732
		c0-2.637,0.509-4.993,1.526-7.067c1.017-2.076,2.444-3.69,4.284-4.847c1.839-1.155,3.89-1.733,6.152-1.733
		c3.597,0,6.376,1.147,8.337,3.442c1.962,2.295,2.942,5.542,2.942,9.741v2.393h-17.261c0.179,2.182,0.907,3.906,2.186,5.176
		c1.277,1.27,2.884,1.904,4.821,1.904c2.718,0,4.932-1.099,6.641-3.296l3.198,3.052c-1.059,1.579-2.47,2.804-4.236,3.674
		C395.442,450.553,393.461,450.988,391.264,450.988z M390.556,428.356c-1.628,0-2.941,0.57-3.943,1.709
		c-1,1.14-1.64,2.727-1.916,4.761H396v-0.439c-0.131-1.985-0.659-3.487-1.587-4.504
		C393.485,428.865,392.199,428.356,390.556,428.356z"/>
	<path style="fill:#FFFFFF;" d="M433.72,443.322c0-1.058-0.436-1.863-1.306-2.417c-0.871-0.553-2.316-1.041-4.334-1.465
		c-2.019-0.423-3.703-0.96-5.054-1.611c-2.963-1.432-4.443-3.507-4.443-6.226c0-2.278,0.96-4.183,2.881-5.713
		c1.92-1.529,4.361-2.295,7.324-2.295c3.157,0,5.709,0.781,7.653,2.344c1.945,1.563,2.918,3.589,2.918,6.079h-5.933
		c0-1.139-0.424-2.087-1.27-2.845c-0.847-0.756-1.97-1.135-3.369-1.135c-1.303,0-2.364,0.302-3.187,0.903
		c-0.821,0.603-1.232,1.408-1.232,2.417c0,0.912,0.382,1.62,1.147,2.124c0.765,0.505,2.311,1.013,4.639,1.526
		c2.327,0.512,4.154,1.123,5.481,1.83c1.326,0.709,2.311,1.56,2.953,2.552c0.644,0.993,0.965,2.197,0.965,3.613
		c0,2.377-0.985,4.301-2.954,5.774c-1.97,1.473-4.55,2.209-7.739,2.209c-2.165,0-4.094-0.391-5.786-1.172
		c-1.693-0.781-3.012-1.855-3.955-3.223c-0.944-1.367-1.416-2.84-1.416-4.419h5.762c0.081,1.4,0.61,2.478,1.587,3.235
		c0.977,0.756,2.271,1.135,3.882,1.135c1.563,0,2.75-0.297,3.564-0.891C433.313,445.06,433.72,444.283,433.72,443.322z"/>
	<path style="fill:#FFFFFF;" d="M443.607,437.048c0-2.588,0.513-4.919,1.538-6.995c1.025-2.074,2.466-3.67,4.321-4.785
		c1.855-1.114,3.987-1.672,6.396-1.672c3.564,0,6.458,1.147,8.679,3.442c2.223,2.295,3.422,5.339,3.602,9.131l0.024,1.392
		c0,2.604-0.501,4.932-1.501,6.982c-1.002,2.051-2.434,3.638-4.297,4.761c-1.864,1.123-4.017,1.685-6.458,1.685
		c-3.728,0-6.71-1.241-8.948-3.723c-2.237-2.482-3.356-5.79-3.356-9.925V437.048z M449.54,437.561c0,2.719,0.562,4.846,1.685,6.385
		c1.123,1.537,2.686,2.307,4.688,2.307s3.561-0.781,4.675-2.344c1.115-1.563,1.673-3.849,1.673-6.86
		c0-2.669-0.573-4.785-1.722-6.348c-1.146-1.563-2.706-2.344-4.675-2.344c-1.938,0-3.476,0.769-4.614,2.308
		C450.109,432.201,449.54,434.501,449.54,437.561z"/>
	<path style="fill:#FFFFFF;" d="M473.637,447.705c0-0.925,0.301-1.69,0.903-2.299c0.602-0.608,1.424-0.912,2.466-0.912
		c1.041,0,1.863,0.304,2.466,0.912c0.602,0.608,0.903,1.374,0.903,2.299c0,0.892-0.293,1.637-0.879,2.237
		c-0.586,0.6-1.416,0.899-2.49,0.899s-1.904-0.3-2.49-0.899C473.93,449.342,473.637,448.597,473.637,447.705z M479.472,440.051
		h-5.103l-0.562-25.098h6.25L479.472,440.051z"/>
</g>
</svg>
