<svg xmlns="http://www.w3.org/2000/svg" xmlns:xlink="http://www.w3.org/1999/xlink" width="300" height="300" viewBox="0 0 300 300"><switch><g><symbol id="a" viewBox="-150 -150 300 300.015"><path fill="#AEBCC4" d="M150-97.015c0-6.763 0-52.985-71.5-52.985H-84c-62.5 0-66 47.223-66 53.985v186c0 54.5 59.235 60 66 60l161.5.029c6.765 0 72.5-.029 72.5-60.029v-187z"/></symbol><use xlink:href="#a" width="300" height="300.015" x="-150" y="-150" transform="matrix(1 0 0 -1 150 149)" overflow="visible"/><g fill="#080828"><path d="M58.719 229.147c1.92 1.104 4.8 2.064 7.825 2.064 3.792 0 5.905-1.776 5.905-4.417 0-2.448-1.632-3.888-5.761-5.376-5.329-1.92-8.737-4.753-8.737-9.409 0-5.28 4.417-9.313 11.425-9.313 3.504 0 6.096.768 7.776 1.632l-1.44 4.753c-1.152-.624-3.408-1.536-6.433-1.536-3.744 0-5.376 2.016-5.376 3.888 0 2.497 1.872 3.648 6.192 5.329 5.617 2.112 8.353 4.944 8.353 9.601 0 5.185-3.937 9.697-12.289 9.697-3.408 0-6.961-.961-8.737-2.017l1.297-4.896zM90.112 205.529v6.673h5.616v4.416h-5.616v10.321c0 2.832.768 4.32 3.024 4.32a8.765 8.765 0 0 0 2.304-.288l.096 4.513c-.864.336-2.4.576-4.272.576-2.16 0-3.984-.721-5.088-1.921-1.248-1.344-1.824-3.456-1.824-6.528v-10.993h-3.36v-4.416h3.36v-5.28l5.76-1.393zM113.344 235.58l-.384-2.592h-.144c-1.44 1.824-3.889 3.12-6.913 3.12-4.705 0-7.345-3.408-7.345-6.961 0-5.904 5.232-8.881 13.873-8.833v-.384c0-1.536-.624-4.08-4.752-4.08-2.304 0-4.704.72-6.289 1.728l-1.152-3.84c1.728-1.057 4.752-2.064 8.449-2.064 7.489 0 9.649 4.753 9.649 9.841v8.449c0 2.112.096 4.176.336 5.616h-5.328zm-.768-11.425c-4.176-.097-8.161.815-8.161 4.368 0 2.305 1.488 3.36 3.36 3.36 2.352 0 4.081-1.536 4.608-3.216a4.25 4.25 0 0 0 .192-1.297v-3.215zM131.056 205.529v6.673h5.616v4.416h-5.616v10.321c0 2.832.768 4.32 3.024 4.32a8.765 8.765 0 0 0 2.304-.288l.096 4.513c-.864.336-2.4.576-4.272.576-2.16 0-3.984-.721-5.088-1.921-1.248-1.344-1.824-3.456-1.824-6.528v-10.993h-3.36v-4.416h3.36v-5.28l5.76-1.393zM147.424 205.674c0 1.775-1.296 3.168-3.36 3.168-1.968 0-3.265-1.393-3.265-3.168 0-1.824 1.344-3.217 3.313-3.217 2.015 0 3.263 1.393 3.312 3.217zm-6.289 29.906v-23.378h5.952v23.378h-5.952zM153.135 230.155c1.345.816 3.889 1.681 6.001 1.681 2.593 0 3.744-1.057 3.744-2.593 0-1.584-.96-2.399-3.841-3.408-4.56-1.584-6.48-4.08-6.432-6.816 0-4.128 3.408-7.345 8.832-7.345 2.593 0 4.849.672 6.193 1.393l-1.152 4.176c-1.008-.576-2.881-1.344-4.945-1.344-2.111 0-3.264 1.008-3.264 2.448 0 1.488 1.104 2.208 4.08 3.265 4.225 1.536 6.193 3.696 6.24 7.152 0 4.225-3.312 7.297-9.504 7.297-2.832 0-5.377-.673-7.105-1.633l1.153-4.273zM190.624 234.86c-1.248.576-3.696 1.2-6.624 1.2-7.297 0-12.049-4.657-12.049-11.905 0-7.009 4.8-12.481 13.009-12.481 2.16 0 4.368.48 5.712 1.104l-1.056 4.416c-.96-.432-2.353-.912-4.464-.912-4.513 0-7.201 3.313-7.153 7.585 0 4.801 3.12 7.536 7.153 7.536 2.063 0 3.504-.432 4.656-.912l.816 4.369zM194.99 201.497h5.953v13.921h.096a7.93 7.93 0 0 1 2.928-2.688c1.152-.673 2.545-1.057 4.033-1.057 3.984 0 8.16 2.641 8.16 10.129v13.777h-5.904v-13.105c0-3.408-1.248-5.952-4.512-5.952-2.305 0-3.938 1.536-4.561 3.313-.192.479-.24 1.104-.24 1.776v13.969h-5.953v-34.083zM226.623 225.547c.144 4.225 3.456 6.049 7.2 6.049 2.736 0 4.705-.384 6.48-1.056l.864 4.08c-2.016.816-4.8 1.44-8.16 1.44-7.585 0-12.05-4.657-12.05-11.81 0-6.48 3.937-12.577 11.426-12.577 7.584 0 10.08 6.24 10.08 11.377 0 1.104-.096 1.969-.191 2.496h-15.649zm10.273-4.128c.048-2.16-.912-5.713-4.848-5.713-3.648 0-5.185 3.313-5.425 5.713h10.273zM54.882 269.227H42.689v9.505h13.633v4.849H36.784v-32.354h18.818v4.848H42.689v8.354h12.193v4.798zM67.553 253.674c0 1.775-1.296 3.168-3.36 3.168-1.968 0-3.265-1.393-3.265-3.168 0-1.824 1.344-3.217 3.313-3.217 2.015 0 3.263 1.393 3.312 3.217zm-6.289 29.906v-23.378h5.952v23.378h-5.952zM73.552 267.163c0-2.688-.048-4.945-.192-6.961h5.185l.288 3.504h.144c1.008-1.824 3.552-4.032 7.44-4.032 4.081 0 8.305 2.641 8.305 10.033v13.873h-5.904v-13.201c0-3.36-1.248-5.904-4.464-5.904-2.352 0-3.984 1.68-4.608 3.456-.192.528-.24 1.248-.24 1.92v13.729h-5.952v-16.417zM100.72 278.155c1.344.816 3.888 1.681 6 1.681 2.592 0 3.744-1.057 3.744-2.593 0-1.584-.96-2.399-3.84-3.408-4.561-1.584-6.48-4.08-6.433-6.816 0-4.128 3.408-7.345 8.833-7.345 2.592 0 4.848.672 6.192 1.393l-1.152 4.176c-1.008-.576-2.88-1.344-4.945-1.344-2.112 0-3.264 1.008-3.264 2.448 0 1.488 1.104 2.208 4.081 3.265 4.224 1.536 6.192 3.696 6.24 7.152 0 4.225-3.312 7.297-9.505 7.297-2.832 0-5.376-.673-7.104-1.633l1.153-4.273zM127.792 253.529v6.673h5.616v4.416h-5.616v10.321c0 2.832.768 4.32 3.024 4.32a8.765 8.765 0 0 0 2.304-.288l.096 4.513c-.864.336-2.4.576-4.272.576-2.16 0-3.984-.721-5.088-1.921-1.248-1.344-1.824-3.456-1.824-6.528v-10.993h-3.36v-4.416h3.36v-5.28l5.76-1.393zM141.76 273.547c.144 4.225 3.456 6.049 7.201 6.049 2.736 0 4.704-.384 6.481-1.056l.863 4.08c-2.016.816-4.801 1.44-8.161 1.44-7.584 0-12.049-4.657-12.049-11.81 0-6.48 3.937-12.577 11.425-12.577 7.585 0 10.082 6.24 10.082 11.377 0 1.104-.097 1.969-.192 2.496h-15.65zm10.273-4.128c.047-2.16-.912-5.713-4.849-5.713-3.648 0-5.185 3.313-5.424 5.713h10.273zM162.352 249.497h5.951v34.083h-5.951v-34.083zM174.688 249.497h5.951v34.083h-5.951v-34.083zM207.951 276.571a137 137 0 0 0 .192 7.009h-5.185l-.288-3.553h-.096c-1.009 1.681-3.313 4.081-7.489 4.081-4.271 0-8.16-2.545-8.16-10.177v-13.729h5.904v12.721c0 3.889 1.248 6.385 4.369 6.385 2.352 0 3.888-1.68 4.512-3.168a5.366 5.366 0 0 0 .336-1.824v-14.113h5.904v16.368zM214.334 267.163c0-2.688-.049-4.945-.193-6.961h5.186l.287 3.504h.145c1.008-1.824 3.553-4.032 7.44-4.032 4.08 0 8.305 2.641 8.305 10.033v13.873H229.6v-13.201c0-3.36-1.248-5.904-4.465-5.904-2.352 0-3.983 1.68-4.608 3.456-.191.528-.239 1.248-.239 1.92v13.729h-5.952v-16.417zM263.15 260.202c-.096 1.584-.192 3.504-.192 6.721v13.249c0 4.896-1.008 8.4-3.456 10.608-2.448 2.16-5.809 2.833-9.024 2.833-2.977 0-6.145-.624-8.161-1.872l1.296-4.465c1.488.864 3.984 1.776 6.816 1.776 3.841 0 6.721-2.017 6.721-7.057v-2.017h-.096c-1.344 2.064-3.744 3.457-6.816 3.457-5.809 0-9.938-4.801-9.938-11.426 0-7.681 4.993-12.337 10.609-12.337 3.553 0 5.664 1.729 6.769 3.648h.096l.24-3.12h5.136zm-6.096 9.361c0-.527-.048-1.104-.192-1.584-.624-2.16-2.304-3.792-4.8-3.792-3.313 0-5.761 2.88-5.761 7.633 0 3.984 2.017 7.2 5.713 7.2 2.208 0 4.128-1.44 4.8-3.552.145-.624.24-1.44.24-2.112v-3.793z"/></g><path fill="#FFF" d="M134.16 11.499l34.525.318S174.932 18 167.37 22h-11.18l.657 28.627 18.413.339s5.591 6.91.987 14.474l66.748 120.346s.985 8.222-9.207 3.289L167.37 67.088l-10.193.33-.329 124.947s-4.273 6.039-11.179.449L145.011 67h-8.548L66.097 190.513s-7.562.925-6.576-5.979l67.076-118.401s-3.451-11.194 2.467-14.482L146 50.977V22h-11.51s-6.796-5.459-.33-10.501z"/></g></switch></svg>