<svg xmlns="http://www.w3.org/2000/svg" xmlns:xlink="http://www.w3.org/1999/xlink" width="300" height="300" viewBox="0 0 300 300"><switch><g><symbol id="a" viewBox="-150 -150 300 300.007"><path fill="#CE8E95" d="M150-97.021c0-6.764 0-52.979-71.5-52.979H-84c-62.5 0-66 47.215-66 53.979v186c0 54.5 59.235 60 66 60l161.5.029c6.765 0 72.5-.029 72.5-60.029v-187z"/></symbol><use xlink:href="#a" width="300" height="300.007" x="-150" y="-150" transform="matrix(1 0 0 -1 150 150)" overflow="visible"/><g fill="#26080D"><path d="M25.511 257.58l-7.92-32.354h6.289l3.072 14.688a291.235 291.235 0 0 1 2.112 11.281h.096c.528-3.408 1.44-7.248 2.352-11.329l3.504-14.641h6.192l3.216 14.881c.816 3.841 1.488 7.44 1.968 10.945h.096c.576-3.553 1.344-7.249 2.208-11.186l3.36-14.641h6l-8.688 32.354h-6.337l-3.36-15.218c-.816-3.696-1.392-6.769-1.776-10.272H37.8c-.576 3.456-1.2 6.576-2.16 10.272l-3.744 15.218h-6.385zM66.983 227.674c0 1.775-1.296 3.168-3.36 3.168-1.968 0-3.265-1.393-3.265-3.168 0-1.824 1.344-3.217 3.313-3.217 2.016 0 3.264 1.393 3.312 3.217zm-6.288 29.906v-23.378h5.952v23.378h-5.952zM72.694 252.155c1.344.816 3.888 1.681 6 1.681 2.592 0 3.744-1.057 3.744-2.593 0-1.584-.96-2.399-3.84-3.408-4.56-1.584-6.48-4.08-6.433-6.816 0-4.128 3.409-7.345 8.833-7.345 2.592 0 4.848.672 6.192 1.393l-1.152 4.176c-1.008-.576-2.88-1.344-4.945-1.344-2.112 0-3.264 1.008-3.264 2.448 0 1.488 1.104 2.208 4.081 3.265 4.224 1.536 6.192 3.696 6.24 7.152 0 4.225-3.312 7.297-9.504 7.297-2.833 0-5.377-.673-7.105-1.633l1.153-4.273zM110.183 256.86c-1.248.576-3.696 1.2-6.625 1.2-7.296 0-12.049-4.657-12.049-11.905 0-7.009 4.8-12.481 13.009-12.481 2.16 0 4.368.48 5.712 1.104l-1.056 4.416c-.96-.432-2.352-.912-4.464-.912-4.512 0-7.201 3.313-7.153 7.585 0 4.801 3.121 7.536 7.153 7.536 2.064 0 3.504-.432 4.656-.912l.817 4.369zM114.549 223.497h5.952v13.921h.096a7.922 7.922 0 0 1 2.928-2.688c1.152-.673 2.544-1.057 4.032-1.057 3.984 0 8.161 2.641 8.161 10.129v13.777h-5.904v-13.105c0-3.408-1.248-5.952-4.512-5.952-2.304 0-3.937 1.536-4.561 3.313-.192.479-.24 1.104-.24 1.776v13.969h-5.952v-34.083zM141.813 257.58c.096-1.584.192-4.177.192-6.576v-27.507h5.904v13.921h.096c1.44-2.256 3.984-3.744 7.488-3.744 5.713 0 9.793 4.753 9.745 11.857 0 8.4-5.329 12.577-10.608 12.577-3.025 0-5.713-1.152-7.393-4.032h-.096l-.288 3.504h-5.04zm6.097-9.648c0 .479.048.96.144 1.392.624 2.353 2.688 4.129 5.232 4.129 3.696 0 5.952-2.977 5.952-7.681 0-4.129-1.968-7.489-5.904-7.489-2.4 0-4.56 1.729-5.232 4.32-.096.433-.192.96-.192 1.536v3.793zM170.084 223.497h5.953v34.083h-5.953v-34.083zM186.597 247.547c.144 4.225 3.456 6.049 7.2 6.049 2.736 0 4.705-.384 6.48-1.056l.864 4.08c-2.017.816-4.8 1.44-8.161 1.44-7.584 0-12.049-4.657-12.049-11.81 0-6.48 3.938-12.577 11.426-12.577 7.584 0 10.08 6.24 10.08 11.377 0 1.104-.096 1.969-.191 2.496h-15.649zm10.272-4.128c.049-2.16-.912-5.713-4.848-5.713-3.648 0-5.186 3.313-5.425 5.713h10.273zM207.188 241.163c0-2.688-.048-4.945-.191-6.961h5.184l.289 3.504h.144c1.008-1.824 3.552-4.032 7.44-4.032 4.08 0 8.305 2.641 8.305 10.033v13.873h-5.904v-13.201c0-3.36-1.248-5.904-4.465-5.904-2.352 0-3.984 1.68-4.607 3.456-.192.528-.24 1.248-.24 1.92v13.729h-5.953v-16.417zM256.196 223.497v27.507c0 2.399.097 4.992.192 6.576h-5.28l-.24-3.696h-.096c-1.393 2.592-4.225 4.225-7.633 4.225-5.568 0-9.985-4.753-9.985-11.953-.048-7.825 4.849-12.481 10.466-12.481 3.216 0 5.521 1.345 6.576 3.072h.096v-13.249h5.904zm-5.904 20.45a8.31 8.31 0 0 0-.144-1.536c-.528-2.305-2.4-4.177-5.089-4.177-3.792 0-5.904 3.36-5.904 7.729 0 4.272 2.112 7.393 5.856 7.393 2.4 0 4.513-1.632 5.089-4.176.144-.528.191-1.104.191-1.729v-3.504zM266.707 247.547c.144 4.225 3.456 6.049 7.2 6.049 2.736 0 4.705-.384 6.48-1.056l.864 4.08c-2.016.816-4.8 1.44-8.16 1.44-7.585 0-12.05-4.657-12.05-11.81 0-6.48 3.937-12.577 11.426-12.577 7.584 0 10.08 6.24 10.08 11.377 0 1.104-.096 1.969-.191 2.496h-15.649zm10.272-4.128c.048-2.16-.912-5.713-4.848-5.713-3.648 0-5.185 3.313-5.425 5.713h10.273z"/></g><path fill="#FFF" d="M201 73h70v117h-70z"/><path fill="#333" d="M34 73h167v117H34z"/><path fill="#333" d="M210.103 123.404l-3.962 13.048h-8.676l14.756-46.043h10.726l14.96 46.043h-9.018l-4.167-13.048h-14.619zm13.184-6.353l-3.62-11.34c-.889-2.801-1.64-5.943-2.323-8.607h-.137c-.683 2.664-1.366 5.875-2.186 8.607l-3.553 11.34h11.819z"/><path fill="#FFF" d="M89.122 92.162c2.665-.546 7.515-.956 12.229-.956 6.216 0 10.042.751 13.184 2.938 2.87 1.708 4.782 4.713 4.782 8.607 0 4.235-2.664 8.129-7.651 9.974v.137c4.851 1.229 9.291 5.055 9.291 11.408 0 4.099-1.776 7.31-4.44 9.496-3.279 2.869-8.676 4.304-17.079 4.304-4.645 0-8.198-.341-10.315-.615V92.162zm8.335 18.171h4.304c5.807 0 9.086-2.732 9.086-6.626 0-4.304-3.279-6.285-8.608-6.285-2.459 0-3.894.137-4.782.342v12.569zm0 21.177c1.093.137 2.527.205 4.44.205 5.396 0 10.179-2.049 10.179-7.719 0-5.329-4.646-7.515-10.452-7.515h-4.167v15.029z"/><path fill="#FFF" stroke="#FFF" stroke-width="1.477" stroke-miterlimit="10" d="M173.982 111.246v.651l-36.223-.229c-.291 0 0-.293 0 0l.493 11.322c0 .292 8.607-.05 8.901-.05h26.828v11.699c.153.147.55.006.702-.141l17.609-16.593a.37.37 0 0 0 0-.535l-17.609-16.593c-.152-.148-.549-.007-.702.141V111.246z"/></g></switch></svg>