<svg xmlns="http://www.w3.org/2000/svg" xmlns:xlink="http://www.w3.org/1999/xlink" width="300" height="300" viewBox="0 0 300 300"><switch><g><symbol id="a" viewBox="-239.998 -118.656 300 300.671"><path fill="#91C4AB" d="M60.002-65.014c0-6.764-.002-53.643-71.502-53.643H-174c-62.5 0-65.998 47.879-65.998 54.643v185.999c0 54.5 59.233 60 65.999 60l161.499.029c6.766 0 72.502-.029 72.502-60.029V-65.014z"/></symbol><use xlink:href="#a" width="300" height="300.671" x="-239.998" y="-118.656" transform="matrix(1 0 0 -1 239.998 182.015)" overflow="visible"/><g fill="#012B16"><path d="M107.004 195.776v-32.354h6.721l8.353 13.873a89.207 89.207 0 0 1 5.521 10.849h.096c-.384-4.32-.527-8.496-.527-13.441v-11.28h5.473v32.354h-6.097l-8.449-14.209c-2.064-3.553-4.225-7.537-5.809-11.186l-.144.049c.24 4.176.288 8.448.288 13.776v11.569h-5.426zM145.788 165.87c0 1.775-1.296 3.168-3.36 3.168-1.969 0-3.265-1.393-3.265-3.168 0-1.824 1.345-3.217 3.313-3.217 2.016 0 3.264 1.393 3.312 3.217zm-6.289 29.906v-23.378h5.953v23.378h-5.953zM168.973 195.057c-1.248.576-3.696 1.2-6.624 1.2-7.297 0-12.05-4.657-12.05-11.905 0-7.009 4.801-12.481 13.01-12.481 2.16 0 4.368.48 5.712 1.104l-1.056 4.416c-.96-.432-2.353-.912-4.465-.912-4.512 0-7.2 3.313-7.152 7.585 0 4.801 3.12 7.536 7.152 7.536 2.064 0 3.505-.432 4.657-.912l.816 4.369zM173.339 161.693h5.953v13.921h.096a7.918 7.918 0 0 1 2.929-2.688c1.151-.673 2.544-1.057 4.032-1.057 3.984 0 8.16 2.641 8.16 10.129v13.777h-5.904V182.67c0-3.408-1.248-5.952-4.513-5.952-2.304 0-3.936 1.536-4.561 3.313-.191.479-.239 1.104-.239 1.776v13.969h-5.953v-34.083zM207.323 165.726v6.673h5.617v4.416h-5.617v10.321c0 2.832.769 4.32 3.024 4.32a8.78 8.78 0 0 0 2.305-.288l.096 4.513c-.864.336-2.4.576-4.272.576-2.16 0-3.984-.721-5.088-1.921-1.249-1.344-1.824-3.456-1.824-6.528v-10.993h-3.36v-4.416h3.36v-5.28l5.759-1.393zM227.771 180.943v4.08H215.53v-4.08h12.241zM56.152 209.693V237.2c0 2.399.096 4.992.192 6.576h-5.28l-.24-3.696h-.096c-1.392 2.592-4.225 4.225-7.633 4.225-5.568 0-9.985-4.753-9.985-11.953-.048-7.825 4.848-12.481 10.465-12.481 3.216 0 5.521 1.345 6.577 3.072h.096v-13.249h5.904zm-5.905 20.451a8.31 8.31 0 0 0-.144-1.536c-.528-2.305-2.4-4.177-5.089-4.177-3.792 0-5.904 3.36-5.904 7.729 0 4.272 2.112 7.393 5.856 7.393 2.4 0 4.513-1.632 5.088-4.176.144-.528.192-1.104.192-1.729v-3.504zM68.774 213.87c0 1.775-1.296 3.168-3.36 3.168-1.968 0-3.265-1.393-3.265-3.168 0-1.824 1.344-3.217 3.313-3.217 2.016 0 3.264 1.393 3.312 3.217zm-6.288 29.906v-23.378h5.952v23.378h-5.952zM78.95 233.743c.144 4.225 3.456 6.049 7.201 6.049 2.736 0 4.704-.384 6.48-1.056l.864 4.08c-2.016.816-4.8 1.44-8.161 1.44-7.584 0-12.049-4.657-12.049-11.81 0-6.48 3.937-12.577 11.425-12.577 7.585 0 10.081 6.24 10.081 11.377 0 1.104-.096 1.969-.192 2.496H78.95zm10.273-4.128c.048-2.16-.912-5.713-4.849-5.713-3.648 0-5.185 3.313-5.424 5.713h10.273zM120.903 220.398c-.096 1.584-.192 3.504-.192 6.721v13.249c0 4.896-1.008 8.4-3.456 10.608-2.448 2.16-5.809 2.833-9.024 2.833-2.977 0-6.145-.624-8.161-1.872l1.296-4.465c1.488.864 3.984 1.776 6.816 1.776 3.841 0 6.721-2.017 6.721-7.057v-2.017h-.096c-1.344 2.064-3.744 3.457-6.816 3.457-5.809 0-9.937-4.801-9.937-11.426 0-7.681 4.992-12.337 10.609-12.337 3.553 0 5.664 1.729 6.769 3.648h.096l.24-3.12h5.135zm-6.096 9.361c0-.527-.048-1.104-.192-1.584-.624-2.16-2.304-3.792-4.8-3.792-3.313 0-5.761 2.88-5.761 7.633 0 3.984 2.017 7.2 5.713 7.2 2.208 0 4.128-1.44 4.8-3.552.145-.624.24-1.44.24-2.112v-3.793zM131.222 233.743c.144 4.225 3.456 6.049 7.2 6.049 2.736 0 4.705-.384 6.48-1.056l.864 4.08c-2.016.816-4.8 1.44-8.16 1.44-7.585 0-12.05-4.657-12.05-11.81 0-6.48 3.937-12.577 11.426-12.577 7.584 0 10.08 6.24 10.08 11.377 0 1.104-.096 1.969-.191 2.496h-15.649zm10.272-4.128c.049-2.16-.912-5.713-4.848-5.713-3.648 0-5.185 3.313-5.425 5.713h10.273zM158.581 213.726v6.673h5.617v4.416h-5.617v10.321c0 2.832.769 4.32 3.024 4.32a8.78 8.78 0 0 0 2.305-.288l.096 4.513c-.864.336-2.4.576-4.272.576-2.16 0-3.984-.721-5.088-1.921-1.249-1.344-1.824-3.456-1.824-6.528v-10.993h-3.36v-4.416h3.36v-5.28l5.759-1.393zM174.949 213.87c0 1.775-1.296 3.168-3.36 3.168-1.969 0-3.265-1.393-3.265-3.168 0-1.824 1.345-3.217 3.313-3.217 2.016 0 3.264 1.393 3.312 3.217zm-6.289 29.906v-23.378h5.953v23.378h-5.953zM180.66 238.352c1.345.816 3.889 1.681 6.001 1.681 2.592 0 3.744-1.057 3.744-2.593 0-1.584-.96-2.399-3.84-3.408-4.561-1.584-6.481-4.08-6.433-6.816 0-4.128 3.408-7.345 8.832-7.345 2.593 0 4.849.672 6.193 1.393l-1.152 4.176c-1.008-.576-2.881-1.344-4.944-1.344-2.112 0-3.265 1.008-3.265 2.448 0 1.488 1.104 2.208 4.08 3.265 4.225 1.536 6.193 3.696 6.241 7.152 0 4.225-3.313 7.297-9.505 7.297-2.832 0-5.377-.673-7.104-1.633l1.152-4.273zM218.149 243.057c-1.248.576-3.696 1.2-6.624 1.2-7.297 0-12.05-4.657-12.05-11.905 0-7.009 4.801-12.481 13.01-12.481 2.16 0 4.368.48 5.712 1.104l-1.056 4.416c-.96-.432-2.353-.912-4.465-.912-4.512 0-7.2 3.313-7.152 7.585 0 4.801 3.12 7.536 7.152 7.536 2.064 0 3.505-.432 4.657-.912l.816 4.369zM222.516 209.693h5.953v13.921h.096a7.918 7.918 0 0 1 2.929-2.688c1.151-.673 2.544-1.057 4.032-1.057 3.984 0 8.16 2.641 8.16 10.129v13.777h-5.904V230.67c0-3.408-1.248-5.952-4.513-5.952-2.304 0-3.937 1.536-4.561 3.313-.191.479-.239 1.104-.239 1.776v13.969h-5.953v-34.083zM254.147 233.743c.144 4.225 3.456 6.049 7.2 6.049 2.736 0 4.705-.384 6.48-1.056l.864 4.08c-2.016.816-4.8 1.44-8.16 1.44-7.585 0-12.05-4.657-12.05-11.81 0-6.48 3.937-12.577 11.426-12.577 7.584 0 10.08 6.24 10.08 11.377 0 1.104-.096 1.969-.191 2.496h-15.649zm10.273-4.128c.049-2.16-.912-5.713-4.848-5.713-3.648 0-5.185 3.313-5.425 5.713h10.273zM120.352 278.575c-.192-4.177-.432-9.217-.384-13.585h-.145a172.775 172.775 0 0 1-3.84 12.385l-4.705 14.018h-4.56l-4.321-13.825c-1.248-4.129-2.4-8.545-3.264-12.577h-.096c-.144 4.225-.336 9.36-.576 13.777l-.72 13.009H92.22l2.16-32.354h7.777l4.225 13.009a163.887 163.887 0 0 1 2.976 11.233h.145c.864-3.505 1.968-7.489 3.216-11.281l4.465-12.961h7.681l1.872 32.354h-5.761l-.624-13.202zM153.422 284.768a137 137 0 0 0 .192 7.009h-5.185l-.288-3.553h-.096c-1.008 1.681-3.313 4.081-7.488 4.081-4.272 0-8.161-2.545-8.161-10.177v-13.729h5.904v12.721c0 3.889 1.248 6.385 4.368 6.385 2.353 0 3.889-1.68 4.513-3.168a5.366 5.366 0 0 0 .336-1.824V268.4h5.904v16.368zM159.516 286.352c1.345.816 3.889 1.681 6.001 1.681 2.592 0 3.744-1.057 3.744-2.593 0-1.584-.96-2.399-3.84-3.408-4.561-1.584-6.481-4.08-6.433-6.816 0-4.128 3.408-7.345 8.832-7.345 2.593 0 4.849.672 6.193 1.393l-1.152 4.176c-1.008-.576-2.881-1.344-4.944-1.344-2.112 0-3.265 1.008-3.265 2.448 0 1.488 1.104 2.208 4.08 3.265 4.225 1.536 6.193 3.696 6.241 7.152 0 4.225-3.313 7.297-9.505 7.297-2.832 0-5.377-.673-7.104-1.633l1.152-4.273zM186.108 261.87c0 1.775-1.296 3.168-3.36 3.168-1.969 0-3.265-1.393-3.265-3.168 0-1.824 1.345-3.217 3.313-3.217 2.017 0 3.265 1.393 3.312 3.217zm-6.289 29.906v-23.378h5.953v23.378h-5.953zM198.013 278.671h.096c.576-.912 1.248-1.92 1.872-2.736l5.664-7.536h7.105l-8.642 9.553 9.89 13.825h-7.249l-6.721-10.321-2.016 2.353v7.969h-5.905v-34.083h5.905v20.976z"/></g><g fill-rule="evenodd" clip-rule="evenodd"><path d="M90 23h185v113H90z"/><path fill="#FFF" d="M99 122h13v5H99zM99 105h13v5H99zM99 87h13v5H99zM99 70h13v5H99zM99 53h13v5H99zM99 35h13v5H99zM253 122h13v5h-13zM253 105h13v5h-13zM253 87h13v5h-13zM253 70h13v5h-13zM253 53h13v5h-13zM253 35h13v5h-13zM120 36h125v87H120z"/><path fill="#C1272D" d="M75.597 144.527c5.715 9.211-.226 19.061-6.208 23.558l-11.214-29.058c6.843-.86 13.716-.481 17.422 5.5zM50.33 131.798s-19.369 9.555-11.86 26.825c1.296 2.976 6.542 8.747 10.09 6.753 1.521-.85-1.939-4.07-3.375-6.698-6.552-12.04 8.416-18.333 8.416-18.333l11.293 31.063-1.838.896c-6.218 2.584-23.181 6.025-30.393-9.779-8.206-18 7.268-33.225 14.687-40.11l2.98 9.383zm2.133-57.026c3.675 9.154 2.875 18.911-5.821 30.383 0 0-10.196-35.097-2.893-40.346 2.645-1.909 8.198 8.651 8.714 9.963zm8.728 6.024c4.617 25.277-9.979 37.922-9.979 37.922l3.333 11.024s26.773-9.93 34.604 12.572c6.778 19.485-17.376 32.055-17.46 32.328 3.608 10.192 6.415 19.662-5.13 25.292-4.953 2.415-14.733 5.156-18.649-2.873-2.043-4.19-1.613-9.37 3.153-11.694 5.303-2.587 9.836-.276 11.971 4.102.799 1.639 2.115 5.734-.635 7.524.642-.081 1.367-.435 1.743-.618 8.793-4.288 5.633-14.482 3.498-18.86-.268-.55-.445-.913-.985-1.099-17.67 7.038-33.513-.811-39.649-13.394-1.598-3.277-2.829-7.198-2.964-11.188a38.65 38.65 0 0 1 .755-9.627c1.854-10.612 8.487-20.504 13.984-27.582 1.123-1.445 4.174-5.411 4.174-5.411s-16.535-44.825-.934-52.139c5.809-2.725 16.667 10.017 19.17 23.721z"/></g></g></switch></svg>