<?xml version="1.0" encoding="UTF-8" standalone="no"?>
<svg
   xmlns:dc="http://purl.org/dc/elements/1.1/"
   xmlns:cc="http://creativecommons.org/ns#"
   xmlns:rdf="http://www.w3.org/1999/02/22-rdf-syntax-ns#"
   xmlns:svg="http://www.w3.org/2000/svg"
   xmlns="http://www.w3.org/2000/svg"
   viewBox="0 0 375 375"
   height="375"
   width="375"
   xml:space="preserve"
   version="1.1"
   id="svg2"><metadata
     id="metadata8"><rdf:RDF><cc:Work
         rdf:about=""><dc:format>image/svg+xml</dc:format><dc:type
           rdf:resource="http://purl.org/dc/dcmitype/StillImage" /></cc:Work></rdf:RDF></metadata><defs
     id="defs6" /><g
     transform="matrix(1.25,0,0,-1.25,0,375)"
     id="g10"><g
       transform="scale(0.1,0.1)"
       id="g12"><path
         id="path14"
         style="fill:#aebcc4;fill-opacity:1;fill-rule:nonzero;stroke:none"
         d="m 3000,529.855 c 0,-67.632 0,-529.85109375 -715,-529.85109375 l -1625,0 C 35,0.00390625 0,472.223 0,539.855 L 0,2399.86 c 0,545 592.352,600 660,600 l 1615,0.28 c 67.65,0 725,-0.28 725,-600.28" /><path
         id="path16"
         style="fill:#080828;fill-opacity:1;fill-rule:nonzero;stroke:none"
         d="m 377.859,423.297 c 0.954,5.281 1.922,13.906 1.922,24.953 0,51.344 -24.953,113.734 -100.781,113.734 -74.859,0 -114.203,-60.953 -114.203,-125.734 0,-71.5 44.625,-118.047 120.453,-118.047 33.578,0 61.422,6.235 81.578,14.391 l -8.64,40.797 c -17.75,-6.719 -37.438,-10.563 -64.782,-10.563 -37.437,0 -70.547,18.235 -71.984,60.469 l 156.437,0 z m -156.437,41.266 c 2.391,24 17.75,57.109 54.219,57.109 39.359,0 48.953,-35.516 48.468,-57.109 l -102.687,0" /><path
         id="path18"
         style="fill:#080828;fill-opacity:1;fill-rule:nonzero;stroke:none"
         d="M 397.281,556.703 475.5,442.016 394.406,323 l 65.25,0 26.875,46.547 c 7.688,12.953 14.407,24.469 21.125,37.906 l 0.953,0 c 6.719,-12.953 13.438,-25.422 21.11,-37.906 L 558.516,323 l 66.703,0 -79.656,121.406 78.218,112.297 -64.312,0 -25.906,-43.187 c -6.719,-12 -13.438,-24 -20.157,-36.953 l -1.437,0 c -6.719,12 -13.438,23.515 -21.11,35.984 l -27.843,44.156 -65.735,0" /><path
         id="path20"
         style="fill:#080828;fill-opacity:1;fill-rule:nonzero;stroke:none"
         d="m 676.75,609.484 0,-52.781 -33.594,0 0,-44.156 33.594,0 0,-109.891 c 0,-30.703 5.75,-51.828 18.234,-65.265 11.032,-11.985 29.266,-19.188 50.86,-19.188 18.719,0 34.078,2.391 42.719,5.75 l -0.969,45.11 c -5.266,-1.438 -12.953,-2.875 -23.031,-2.875 -22.547,0 -30.235,14.875 -30.235,43.187 l 0,103.172 56.156,0 0,44.156 -56.156,0 0,66.703 -57.578,-13.922" /><path
         id="path22"
         style="fill:#080828;fill-opacity:1;fill-rule:nonzero;stroke:none"
         d="m 1030.86,423.297 c 0.95,5.281 1.92,13.906 1.92,24.953 0,51.344 -24.95,113.734 -100.78,113.734 -74.859,0 -114.203,-60.953 -114.203,-125.734 0,-71.5 44.625,-118.047 120.453,-118.047 33.578,0 61.422,6.235 81.58,14.391 l -8.64,40.797 c -17.752,-6.719 -37.44,-10.563 -64.784,-10.563 -37.437,0 -70.547,18.235 -71.984,60.469 l 156.438,0 z m -156.438,41.266 c 2.391,24 17.75,57.109 54.219,57.109 39.359,0 48.953,-35.516 48.468,-57.109 l -102.687,0" /><path
         id="path24"
         style="fill:#080828;fill-opacity:1;fill-rule:nonzero;stroke:none"
         d="m 1080.67,323 59.03,0 0,120.922 c 0,6.719 0.96,12.969 1.91,18.234 5.28,26.407 24.48,44.641 52.8,44.641 7.18,0 12.47,-0.969 17.26,-1.922 l 0,55.656 c -4.79,0.969 -8.15,1.453 -13.9,1.453 -24.96,0 -52.32,-16.796 -63.83,-49.906 l -1.92,0 -1.93,44.625 -51.34,0 c 1.44,-21.125 1.92,-43.672 1.92,-75.344 l 0,-158.359" /><path
         id="path26"
         style="fill:#080828;fill-opacity:1;fill-rule:nonzero;stroke:none"
         d="m 1310.17,323 0,233.703 -59.5,0 0,-233.703 59.5,0 z m -29.75,331.109 c -19.67,0 -33.11,-13.906 -33.11,-32.14 0,-17.766 12.96,-31.672 32.63,-31.672 20.64,0 33.59,13.906 33.59,31.672 -0.47,18.234 -12.95,32.14 -33.11,32.14" /><path
         id="path28"
         style="fill:#080828;fill-opacity:1;fill-rule:nonzero;stroke:none"
         d="m 1479.72,561.984 c -70.53,0 -120.92,-47.031 -120.92,-123.812 0,-74.859 50.86,-120.453 117.09,-120.453 59.5,0 119.97,38.39 119.97,124.297 0,71.015 -46.55,119.968 -116.14,119.968 z m -1.44,-43.203 c 40.31,0 56.63,-41.734 56.63,-78.218 0,-47.016 -23.52,-80.125 -57.11,-80.125 -35.99,0 -58.07,34.062 -58.07,79.171 0,38.875 16.8,79.172 58.55,79.172" /><path
         id="path30"
         style="fill:#080828;fill-opacity:1;fill-rule:nonzero;stroke:none"
         d="m 1644.67,323 59.03,0 0,120.922 c 0,6.719 0.96,12.969 1.91,18.234 5.28,26.407 24.48,44.641 52.8,44.641 7.18,0 12.47,-0.969 17.26,-1.922 l 0,55.656 c -4.79,0.969 -8.15,1.453 -13.9,1.453 -24.96,0 -52.32,-16.796 -63.83,-49.906 l -1.92,0 -1.93,44.625 -51.34,0 c 1.44,-21.125 1.92,-43.672 1.92,-75.344 l 0,-158.359" /><path
         id="path32"
         style="fill:#080828;fill-opacity:1;fill-rule:nonzero;stroke:none"
         d="m 1914.67,323 59.5,0 0,340.719 -59.5,0 0,-340.719 z" /><path
         id="path34"
         style="fill:#080828;fill-opacity:1;fill-rule:nonzero;stroke:none"
         d="m 2098.17,323 0,233.703 -59.5,0 0,-233.703 59.5,0 z m -29.75,331.109 c -19.67,0 -33.11,-13.906 -33.11,-32.14 0,-17.766 12.96,-31.672 32.63,-31.672 20.64,0 33.59,13.906 33.59,31.672 -0.47,18.234 -12.95,32.14 -33.11,32.14" /><path
         id="path36"
         style="fill:#080828;fill-opacity:1;fill-rule:nonzero;stroke:none"
         d="m 2323.88,556.703 -2.41,-31.203 -0.95,0 c -11.05,19.203 -32.16,36.484 -67.68,36.484 -56.14,0 -106.04,-46.546 -106.04,-123.328 0,-66.234 41.26,-114.218 99.33,-114.218 30.71,0 54.7,13.921 68.14,34.546 l 0.96,0 0,-20.156 c 0,-50.375 -28.79,-70.531 -67.18,-70.531 -28.32,0 -53.27,9.109 -68.14,17.75 l -12.96,-44.625 c 20.16,-12.484 51.83,-18.719 81.58,-18.719 32.16,0 65.74,6.719 90.22,28.313 24.47,22.078 34.55,57.109 34.55,106.062 l 0,132.438 c 0,32.156 0.95,51.343 1.92,67.187 l -51.34,0 z m -9.61,-131.484 c 0,-6.719 -0.96,-14.875 -2.39,-21.125 -6.72,-21.11 -25.93,-35.5 -47.99,-35.5 -36.95,0 -57.11,32.14 -57.11,71.969 0,47.515 24.47,76.312 57.58,76.312 24.95,0 41.75,-16.328 48,-37.922 1.44,-4.797 1.91,-10.547 1.91,-15.828 l 0,-37.906" /><path
         id="path38"
         style="fill:#080828;fill-opacity:1;fill-rule:nonzero;stroke:none"
         d="m 2436.67,323 59.5,0 0,139.641 c 0,6.718 0.49,12.953 2.41,17.765 6.23,17.75 22.55,33.11 45.58,33.11 32.64,0 45.11,-25.438 45.11,-59.516 l 0,-131 59.03,0 0,137.719 c 0,74.859 -41.75,101.265 -81.58,101.265 -14.88,0 -28.8,-3.843 -40.31,-10.562 -12.47,-6.719 -22.08,-15.844 -29.27,-26.875 l -0.97,0 0,139.172 -59.5,0 0,-340.719" /><path
         id="path40"
         style="fill:#080828;fill-opacity:1;fill-rule:nonzero;stroke:none"
         d="m 2718.75,609.484 0,-52.781 -33.59,0 0,-44.156 33.59,0 0,-109.891 c 0,-30.703 5.75,-51.828 18.23,-65.265 11.04,-11.985 29.27,-19.188 50.86,-19.188 18.72,0 34.08,2.391 42.72,5.75 l -0.97,45.11 c -5.26,-1.438 -12.95,-2.875 -23.03,-2.875 -22.54,0 -30.23,14.875 -30.23,43.187 l 0,103.172 56.15,0 0,44.156 -56.15,0 0,66.703 -57.58,-13.922" /><path
         id="path42"
         style="fill:#000000;fill-opacity:1;fill-rule:nonzero;stroke:none"
         d="m 1139.47,2425.59 c 0,0 -130.42,243.18 175.52,360.85 0,0 25.01,94.13 79.92,90.2 0,0 28.19,-7.84 28.19,-31.36 0,0 67.05,27.45 161.19,-66.68 l 215.9,-223.57 -23.44,-31.39 51.04,-54.91 156.9,-7.84 -62.73,-70.6 164.74,-82.36 -164.74,-321.63 -133.35,129.43 19.92,82.36 -58.53,-54.9 0,-219.65 -201.33,-3.92 -27.11,39.23 -54.75,-35.31 -19.52,-98.06 c 0,0 23.57,-27.45 35.32,-82.37 l 341.27,-737.38 c 0,0 35.34,15.7 62.78,-47.074 0,0 35.3,-78.449 7.84,-90.218 0,0 -54.9,-15.68 -58.82,7.847 l -19.62,90.211 -364.77,11.77 c 0,0 -31.38,-47.051 -98.06,3.922 l -149.04,-39.231 c 0,0 14.97,-94.133 -20.33,-105.902 0,0 -53.86,-27.457 -43.86,94.152 l 0,27.449 c 0,0 -15.96,7.852 -23.8,82.384 0,0 -32.5,35.26 34.19,54.89 l 209.28,607.96 c 0,0 -7.15,98.06 39.93,117.66 l 4.28,86.3 c 0,0 -152.81,78.45 -180.25,239.26 l -3.84,125.51 -94.09,94.13 c 0,0 -23.49,-3.91 13.77,58.84" /><path
         id="path44"
         style="fill:#ffffff;fill-opacity:1;fill-rule:nonzero;stroke:none"
         d="m 1657.22,2439.31 c 0,0 52.94,41.19 100.01,5.88 0,0 -33.33,-45.09 -100.01,-5.88" /><path
         id="path46"
         style="fill:#ffffff;fill-opacity:1;fill-rule:nonzero;stroke:none"
         d="m 1525.82,2339.3 c 0,0 -31.4,-39.22 -15.69,-54.91 0,0 35.3,31.37 15.69,54.91" /><path
         id="path48"
         style="fill:#ffffff;fill-opacity:1;fill-rule:nonzero;stroke:none"
         d="m 1482.67,2256.93 c 0,0 -23.53,-19.61 -7.85,-43.14 0,0 23.54,35.29 7.85,43.14" /><path
         id="path50"
         style="fill:#ffffff;fill-opacity:1;fill-rule:nonzero;stroke:none"
         d="m 1788.61,2386.36 c 0,0 -129.44,-7.84 -184.36,-66.67 0,0 11.77,-74.53 -50.98,-145.14 0,0 184.36,3.92 235.34,211.81" /><path
         id="path52"
         style="fill:#ffffff;fill-opacity:1;fill-rule:nonzero;stroke:none"
         d="m 1894.51,2354.98 c 0,0 -27.46,-27.46 -27.46,-58.82 0,0 23.55,15.68 27.46,58.82" /><path
         id="path54"
         style="fill:#aebcc4;fill-opacity:1;fill-rule:nonzero;stroke:none"
         d="m 1463.06,2066.21 -82.37,22.8 -129.44,149.66 c 0,0 -35.3,-122.76 54.92,-220.81 l 82.36,-67.86 27.46,0" /><path
         id="path56"
         style="fill:#aebcc4;fill-opacity:1;fill-rule:nonzero;stroke:none"
         d="m 1486.59,2013.75 -19.6,-43.14 39.2,-3.93" /><path
         id="path58"
         style="fill:#aebcc4;fill-opacity:1;fill-rule:nonzero;stroke:none"
         d="m 1457.17,1693.11 18.64,-3.36 c 0,0 304.95,-649.75 316.72,-689.754 l -305.94,0 c 0,0 -3.93,39.164 -35.3,35.234" /><path
         id="path60"
         style="fill:#aebcc4;fill-opacity:1;fill-rule:nonzero;stroke:none"
         d="m 1404.22,1648.98 -156.89,-584.43 c 0,0 78.44,-11.77 90.22,-27.46 l 47.06,23.55" /><path
         id="path62"
         style="fill:#aebcc4;fill-opacity:1;fill-rule:nonzero;stroke:none"
         d="m 1239.49,1037.09 -7.85,-50.981 90.21,15.691 c 0,0 -66.67,47.08 -82.36,35.29" /><path
         id="path64"
         style="fill:#aebcc4;fill-opacity:1;fill-rule:nonzero;stroke:none"
         d="m 1325.78,1499.81 -125.51,-400.13 -3.92,-19.68 19.61,0" /><path
         id="path66"
         style="fill:#aebcc4;fill-opacity:1;fill-rule:nonzero;stroke:none"
         d="m 1180.65,1041.04 11.76,-27.47 11.79,31.38" /></g></g></svg>