<svg xmlns="http://www.w3.org/2000/svg" xmlns:xlink="http://www.w3.org/1999/xlink" width="300" height="300.671" viewBox="0 0 300 300.671"><switch><g><symbol id="a" viewBox="-239.998 -118.656 300 300.671"><path fill="#91C4AB" d="M60.002-65.014c0-6.764-.002-53.643-71.502-53.643H-174c-62.5 0-65.998 47.879-65.998 54.643v185.999c0 54.5 59.233 60 65.999 60l161.499.029c6.766 0 72.502-.029 72.502-60.029V-65.014z"/></symbol><use xlink:href="#a" width="300" height="300.671" x="-239.998" y="-118.656" transform="matrix(1 0 0 -1 239.346 182.015)" overflow="visible"/><g fill="#012B16"><path d="M68.709 248.436c1.92 1.104 4.801 2.064 7.825 2.064 3.792 0 5.905-1.777 5.905-4.418 0-2.447-1.632-3.887-5.761-5.375-5.329-1.92-8.737-4.754-8.737-9.41 0-5.279 4.417-9.313 11.425-9.313 3.504 0 6.096.768 7.776 1.633l-1.44 4.752c-1.152-.623-3.408-1.535-6.433-1.535-3.744 0-5.376 2.016-5.376 3.887 0 2.498 1.872 3.648 6.192 5.33 5.617 2.111 8.353 4.943 8.353 9.6 0 5.186-3.937 9.697-12.289 9.697-3.409 0-6.961-.961-8.737-2.016l1.297-4.896zM93.525 239.266c0-3.072-.096-5.568-.192-7.775h5.185l.288 3.6h.096c1.728-2.641 4.464-4.129 8.017-4.129 5.376 0 9.841 4.609 9.841 11.906 0 8.447-5.329 12.529-10.657 12.529-2.928 0-5.376-1.248-6.576-3.121h-.097v12.098h-5.904v-25.108zm5.905 5.808c0 .576.048 1.105.192 1.633.576 2.4 2.688 4.129 5.185 4.129 3.744 0 5.953-3.121 5.953-7.729 0-4.129-2.016-7.49-5.809-7.49-2.448 0-4.705 1.777-5.28 4.369a5.353 5.353 0 0 0-.24 1.488v3.6zM121.605 239.025c0-3.168-.048-5.424-.192-7.535h5.137l.192 4.463h.192c1.152-3.311 3.889-4.992 6.385-4.992a6.2 6.2 0 0 1 1.392.145v5.568a8.216 8.216 0 0 0-1.728-.191c-2.833 0-4.752 1.824-5.281 4.465-.096.527-.192 1.15-.192 1.824v12.096h-5.904v-15.843zM151.414 254.867l-.385-2.592h-.144c-1.439 1.824-3.888 3.121-6.912 3.121-4.705 0-7.345-3.408-7.345-6.961 0-5.904 5.232-8.881 13.873-8.834v-.383c0-1.537-.624-4.08-4.752-4.08-2.304 0-4.704.719-6.289 1.727l-1.152-3.84c1.728-1.057 4.752-2.064 8.449-2.064 7.489 0 9.649 4.754 9.649 9.842v8.449c0 2.111.096 4.176.336 5.615h-5.328zm-.768-11.424c-4.177-.098-8.161.814-8.161 4.367 0 2.305 1.488 3.361 3.36 3.361 2.352 0 4.08-1.537 4.608-3.217.144-.432.192-.912.192-1.297v-3.214zM179.83 254.148c-1.248.576-3.697 1.199-6.625 1.199-7.297 0-12.049-4.656-12.049-11.904 0-7.01 4.801-12.482 13.01-12.482 2.16 0 4.367.48 5.711 1.105l-1.055 4.416c-.961-.432-2.354-.912-4.465-.912-4.512 0-7.201 3.313-7.152 7.584 0 4.801 3.119 7.537 7.152 7.537 2.064 0 3.504-.432 4.656-.912l.817 4.369zM184.195 220.785h5.953v13.92h.096a7.92 7.92 0 0 1 2.93-2.688c1.15-.672 2.543-1.057 4.031-1.057 3.984 0 8.16 2.641 8.16 10.129v13.777h-5.904v-13.105c0-3.408-1.248-5.951-4.512-5.951-2.305 0-3.938 1.535-4.561 3.313-.191.479-.24 1.104-.24 1.775v13.969h-5.953v-34.082zM215.828 244.834c.143 4.225 3.455 6.049 7.199 6.049 2.736 0 4.705-.383 6.48-1.055l.865 4.08c-2.016.816-4.801 1.439-8.16 1.439-7.586 0-12.051-4.656-12.051-11.809 0-6.48 3.938-12.578 11.426-12.578 7.584 0 10.08 6.24 10.08 11.377 0 1.105-.096 1.969-.191 2.496h-15.648zm10.272-4.127c.049-2.16-.912-5.713-4.848-5.713-3.648 0-5.184 3.313-5.424 5.713H226.1z"/></g><path fill="none" stroke="#FFF" stroke-width="5.072" stroke-miterlimit="10" d="M257.894 105.258c0-41.475-51.866-75.096-108.546-75.096S40.802 63.784 40.802 105.258c0 41.474 51.866 75.096 108.546 75.096 1.63 0 3.25-.035 4.862-.091-6.681 18.024-27.757 29.913-27.757 29.913 26.393-1.76 48.006-22.596 58.228-34.393 39.272-10.537 73.213-38.136 73.213-70.525z"/></g></switch></svg>