<svg xmlns="http://www.w3.org/2000/svg" xmlns:xlink="http://www.w3.org/1999/xlink" width="300" height="300" viewBox="0 0 300 300"><switch><g><symbol id="a" viewBox="-150 -150 300 300.007"><path fill="#CE8E95" d="M150-97.021c0-6.764 0-52.979-71.5-52.979H-84c-62.5 0-66 47.215-66 53.979v186c0 54.5 59.235 60 66 60l161.5.029c6.765 0 72.5-.029 72.5-60.029v-187z"/></symbol><use xlink:href="#a" width="300" height="300.007" x="-150" y="-150" transform="matrix(1 0 0 -1 150 150)" overflow="visible"/><g fill="#26080D"><path d="M68.674 258.777v-18.962h-3.168v-4.416h3.168v-1.008c0-3.024.816-6.049 2.832-7.969 1.729-1.633 4.081-2.257 6.097-2.257 1.584 0 2.833.24 3.792.576l-.432 4.561c-.624-.24-1.44-.432-2.496-.432-2.928 0-3.937 2.448-3.937 5.328v1.2h5.137v4.416h-5.089v18.962h-5.904zM96.467 258.777l-.384-2.592h-.144c-1.44 1.824-3.888 3.12-6.913 3.12-4.705 0-7.345-3.408-7.345-6.961 0-5.904 5.232-8.881 13.873-8.833v-.384c0-1.536-.624-4.08-4.752-4.08-2.304 0-4.704.72-6.289 1.728l-1.152-3.84c1.728-1.057 4.752-2.064 8.449-2.064 7.489 0 9.649 4.753 9.649 9.841v8.449c0 2.112.096 4.176.336 5.616h-5.328zm-.768-11.424c-4.176-.097-8.161.815-8.161 4.368 0 2.305 1.488 3.36 3.36 3.36 2.352 0 4.081-1.536 4.608-3.216a4.25 4.25 0 0 0 .192-1.297v-3.215zM129.251 224.694v27.507c0 2.399.096 4.992.192 6.576h-5.28l-.24-3.696h-.096c-1.392 2.592-4.225 4.225-7.633 4.225-5.568 0-9.985-4.753-9.985-11.953-.048-7.825 4.848-12.481 10.465-12.481 3.216 0 5.521 1.345 6.577 3.072h.096v-13.249h5.904zm-5.904 20.451a8.31 8.31 0 0 0-.144-1.536c-.528-2.305-2.4-4.177-5.089-4.177-3.792 0-5.904 3.36-5.904 7.729 0 4.272 2.112 7.393 5.856 7.393 2.4 0 4.513-1.632 5.088-4.176.144-.528.192-1.104.192-1.729v-3.504zM139.762 248.744c.144 4.225 3.456 6.049 7.201 6.049 2.736 0 4.704-.384 6.481-1.056l.863 4.08c-2.016.816-4.8 1.44-8.161 1.44-7.584 0-12.049-4.657-12.049-11.81 0-6.48 3.937-12.577 11.425-12.577 7.585 0 10.082 6.24 10.082 11.377 0 1.104-.097 1.969-.192 2.496h-15.65zm10.273-4.128c.048-2.16-.912-5.713-4.849-5.713-3.648 0-5.185 3.313-5.424 5.713h10.273zM172.258 243.944v4.08h-12.242v-4.08h12.242zM183.152 228.871c0 1.775-1.297 3.168-3.36 3.168-1.968 0-3.265-1.393-3.265-3.168 0-1.824 1.344-3.217 3.313-3.217 2.015 0 3.264 1.393 3.312 3.217zm-6.289 29.906v-23.378h5.953v23.378h-5.953zM189.152 242.36c0-2.688-.049-4.945-.193-6.961h5.186l.287 3.504h.145c1.008-1.824 3.553-4.032 7.44-4.032 4.08 0 8.305 2.641 8.305 10.033v13.873h-5.904v-13.201c0-3.36-1.248-5.904-4.465-5.904-2.352 0-3.983 1.68-4.608 3.456-.191.528-.239 1.248-.239 1.92v13.729h-5.952V242.36z"/></g><path fill="#333" d="M150 75h100v117H150z"/><path fill="#FFF" d="M183.455 97.162c2.664-.546 7.515-.956 12.229-.956 6.217 0 10.042.751 13.184 2.938 2.87 1.708 4.783 4.713 4.783 8.607 0 4.235-2.664 8.129-7.652 9.974v.137c4.852 1.229 9.291 5.055 9.291 11.408 0 4.099-1.775 7.31-4.439 9.496-3.279 2.869-8.676 4.304-17.079 4.304-4.646 0-8.198-.341-10.315-.615V97.162zm8.334 18.171h4.305c5.807 0 9.086-2.732 9.086-6.626 0-4.304-3.279-6.285-8.608-6.285-2.459 0-3.894.137-4.782.342v12.569zm0 21.178c1.094.137 2.527.205 4.441.205 5.396 0 10.178-2.049 10.178-7.719 0-5.329-4.645-7.515-10.451-7.515h-4.168v15.029z"/><path fill="#333" d="M142.047 190.303l-9-.15.151-8.999 9 .15zM142.298 175.306l-9-.15.151-9 9 .15zM142.55 160.308l-8.998-.15.15-8.998 8.997.15zM142.798 145.312l-8.998-.15.15-9 8.998.151zM143.055 130.308l-9-.151.152-8.998 8.999.15zM143.3 115.318l-8.999-.15.15-9 8.999.15zM143.533 101.32l-8.999-.15.15-9 9 .15zM143.785 86.322l-9-.15.15-8.999 9 .15zM126.183 182.088l-8.999-.15.15-9 9 .15zM126.434 167.09l-8.999-.15.15-8.999 9 .15zM126.69 152.088l-8.999-.152.152-8.999 8.999.152zM126.936 137.096l-9-.15.15-9 9 .15zM127.168 123.099l-8.998-.15.15-9 8.998.15zM127.402 109.102l-8.998-.15.15-9 8.998.15zM127.653 94.103l-8.999-.15.15-9 9 .151zM110.355 165.821l-9-.15.15-8.998 9 .15zM110.644 147.82l-8.999-.15.15-8.999 9 .15zM110.96 128.823l-8.997-.15.15-8.999 8.998.15zM111.244 110.827l-8.999-.15.15-9 8.999.15zM97.355 182.82l-8.999-.149.15-8.999 8.999.15zM95.639 159.824l-9-.15.15-8.998 9 .15zM93.961 125.824l-8.998-.15.15-9 8.999.15zM97.243 95.828l-8.998-.15.15-9 8.999.151zM77.955 142.828l-8.998-.15.15-8.999 8.998.15zM74.245 112.829l-8.998-.15.15-9 8.998.15zM75.955 171.826l-8.998-.15.15-8.998 8.998.15z"/></g></switch></svg>