<svg xmlns="http://www.w3.org/2000/svg" xmlns:xlink="http://www.w3.org/1999/xlink" width="300" height="300" viewBox="0 0 300 300"><switch><g><symbol id="a" viewBox="-239.998 -118.656 300 300.671"><path fill="#91C4AB" d="M60.002-65.014c0-6.764-.002-53.643-71.502-53.643H-174c-62.5 0-65.998 47.879-65.998 54.643v185.999c0 54.5 59.233 60 65.999 60l161.499.029c6.766 0 72.502-.029 72.502-60.029V-65.014z"/></symbol><use xlink:href="#a" width="300" height="300.671" x="-239.998" y="-118.656" transform="matrix(1 0 0 -1 239.998 182.015)" overflow="visible"/><g fill="#012B16"><path d="M80.523 222.872c0 8.593-6.048 12.434-12.001 12.434-6.625 0-11.713-4.561-11.713-12.05 0-7.68 5.041-12.385 12.097-12.385 6.961 0 11.617 4.897 11.617 12.001zm-17.617.24c0 4.513 2.208 7.921 5.808 7.921 3.36 0 5.713-3.313 5.713-8.017 0-3.648-1.632-7.825-5.665-7.825-4.176 0-5.856 4.033-5.856 7.921zM85.37 218.36c0-2.688-.048-4.945-.192-6.961h5.185l.288 3.504h.144c1.008-1.824 3.552-4.032 7.44-4.032 4.081 0 8.305 2.641 8.305 10.033v13.873h-5.904v-13.201c0-3.36-1.248-5.904-4.464-5.904-2.352 0-3.984 1.68-4.608 3.456-.192.528-.24 1.248-.24 1.92v13.729H85.37V218.36zM112.537 229.353c1.344.816 3.888 1.681 6 1.681 2.592 0 3.744-1.057 3.744-2.593 0-1.584-.96-2.399-3.84-3.408-4.561-1.584-6.48-4.08-6.433-6.816 0-4.128 3.408-7.345 8.833-7.345 2.592 0 4.848.672 6.192 1.393l-1.152 4.176c-1.008-.576-2.88-1.344-4.945-1.344-2.112 0-3.264 1.008-3.264 2.448 0 1.488 1.104 2.208 4.081 3.265 4.224 1.536 6.192 3.696 6.24 7.152 0 4.225-3.312 7.297-9.505 7.297-2.832 0-5.376-.673-7.104-1.633l1.153-4.273zM150.026 234.058c-1.249.576-3.697 1.2-6.625 1.2-7.296 0-12.049-4.657-12.049-11.905 0-7.009 4.8-12.481 13.009-12.481 2.16 0 4.368.48 5.712 1.104l-1.056 4.416c-.96-.432-2.352-.912-4.464-.912-4.513 0-7.201 3.313-7.153 7.585 0 4.801 3.121 7.536 7.153 7.536 2.064 0 3.504-.432 4.656-.912l.817 4.369zM154.392 218.936c0-3.168-.048-5.424-.191-7.536h5.136l.192 4.464h.192c1.151-3.312 3.888-4.992 6.384-4.992.576 0 .912.048 1.393.145v5.568a8.145 8.145 0 0 0-1.729-.192c-2.832 0-4.752 1.824-5.28 4.465a10.12 10.12 0 0 0-.191 1.824v12.097h-5.905v-15.843zM175.224 224.744c.144 4.225 3.456 6.049 7.2 6.049 2.736 0 4.705-.384 6.48-1.056l.864 4.08c-2.016.816-4.8 1.44-8.16 1.44-7.585 0-12.05-4.657-12.05-11.81 0-6.48 3.937-12.577 11.426-12.577 7.584 0 10.08 6.24 10.08 11.377 0 1.104-.096 1.969-.191 2.496h-15.649zm10.272-4.128c.049-2.16-.912-5.713-4.848-5.713-3.648 0-5.185 3.313-5.425 5.713h10.273zM199.991 224.744c.144 4.225 3.456 6.049 7.2 6.049 2.736 0 4.705-.384 6.48-1.056l.864 4.08c-2.016.816-4.8 1.44-8.16 1.44-7.585 0-12.05-4.657-12.05-11.81 0-6.48 3.937-12.577 11.426-12.577 7.584 0 10.08 6.24 10.08 11.377 0 1.104-.096 1.969-.191 2.496h-15.649zm10.273-4.128c.049-2.16-.912-5.713-4.848-5.713-3.648 0-5.185 3.313-5.425 5.713h10.273zM220.582 218.36c0-2.688-.048-4.945-.191-6.961h5.185l.288 3.504h.144c1.008-1.824 3.553-4.032 7.44-4.032 4.08 0 8.305 2.641 8.305 10.033v13.873h-5.904v-13.201c0-3.36-1.248-5.904-4.465-5.904-2.352 0-3.984 1.68-4.608 3.456-.191.528-.239 1.248-.239 1.92v13.729h-5.953V218.36zM92.233 266.36c0-2.688-.048-4.945-.192-6.961h5.089l.24 3.456h.144c1.152-1.824 3.264-3.984 7.201-3.984 3.072 0 5.472 1.729 6.48 4.32h.096c.816-1.296 1.776-2.256 2.88-2.928 1.296-.912 2.785-1.393 4.705-1.393 3.888 0 7.825 2.641 7.825 10.129v13.777h-5.761v-12.913c0-3.889-1.344-6.192-4.176-6.192-2.016 0-3.504 1.439-4.128 3.12-.144.576-.288 1.296-.288 1.968v14.018h-5.761V269.24c0-3.265-1.296-5.568-4.032-5.568-2.208 0-3.696 1.728-4.225 3.36-.24.576-.336 1.248-.336 1.92v13.825h-5.76V266.36zM153.866 275.769a137 137 0 0 0 .192 7.009h-5.185l-.288-3.553h-.096c-1.008 1.681-3.313 4.081-7.489 4.081-4.272 0-8.161-2.545-8.161-10.177V259.4h5.904v12.721c0 3.889 1.249 6.385 4.369 6.385 2.352 0 3.888-1.68 4.512-3.168a5.366 5.366 0 0 0 .336-1.824v-14.113h5.904v16.368zM159.96 277.353c1.345.816 3.889 1.681 6.001 1.681 2.592 0 3.744-1.057 3.744-2.593 0-1.584-.96-2.399-3.84-3.408-4.561-1.584-6.48-4.08-6.433-6.816 0-4.128 3.408-7.345 8.832-7.345 2.593 0 4.849.672 6.193 1.393l-1.152 4.176c-1.008-.576-2.881-1.344-4.944-1.344-2.112 0-3.265 1.008-3.265 2.448 0 1.488 1.104 2.208 4.08 3.265 4.225 1.536 6.193 3.696 6.241 7.152 0 4.225-3.313 7.297-9.505 7.297-2.832 0-5.377-.673-7.104-1.633l1.152-4.273zM186.553 252.871c0 1.775-1.296 3.168-3.36 3.168-1.969 0-3.265-1.393-3.265-3.168 0-1.824 1.345-3.217 3.313-3.217 2.016 0 3.264 1.393 3.312 3.217zm-6.289 29.906v-23.378h5.953v23.378h-5.953zM209.737 282.058c-1.248.576-3.696 1.2-6.624 1.2-7.297 0-12.05-4.657-12.05-11.905 0-7.009 4.801-12.481 13.01-12.481 2.16 0 4.368.48 5.712 1.104l-1.056 4.416c-.96-.432-2.353-.912-4.465-.912-4.512 0-7.2 3.313-7.152 7.585 0 4.801 3.12 7.536 7.152 7.536 2.064 0 3.505-.432 4.657-.912l.816 4.369z"/></g><path d="M262.962 174.565c0 11.435-58.818 10.396-115.336 10.396S34.868 184 34.868 174.501c0-7.95 56.239-14.33 112.757-14.33s115.337 6.444 115.337 14.394z"/><path d="M269.819 162.959c0 8.852-6.166 16.027-13.771 16.027H42.591c-7.606 0-13.771-7.176-13.771-16.027V37.407c0-8.852 6.166-15.645 13.771-15.645h213.458c7.604 0 13.771 6.793 13.771 15.645v125.552z"/><circle fill="#C1272D" cx="149.532" cy="172.145" r="5.355"/><circle fill="#FFF" cx="164.833" cy="171.379" r="4.208"/><circle fill="#FFF" cx="178.604" cy="171.379" r="4.208"/><path fill="#FFF" d="M260 149.785c0 7.476-4.873 15.215-11.857 15.215H52.189C45.208 165 39 157.261 39 149.785V43.747C39 36.271 45.208 30 52.189 30h195.954C255.127 30 260 36.271 260 43.747v106.038z"/><path fill-rule="evenodd" clip-rule="evenodd" fill="#C1272D" d="M165.368 111.216c4.902 7.901-.194 16.35-5.325 20.207l-9.618-24.924c5.869-.738 11.764-.413 14.943 4.717zm-21.672-10.918s-16.614 8.195-10.173 23.009c1.112 2.552 5.611 7.502 8.655 5.792 1.304-.729-1.663-3.492-2.896-5.746-5.621-10.327 7.218-15.725 7.218-15.725l9.687 26.644-1.577.769c-5.333 2.216-19.883 5.168-26.069-8.388-7.038-15.439 6.234-28.499 12.597-34.404l2.558 8.049zm1.829-48.913c3.152 7.852 2.466 16.221-4.993 26.061 0 0-8.745-30.104-2.481-34.607 2.269-1.638 7.032 7.42 7.474 8.546zm7.487 5.166c3.96 21.681-8.559 32.527-8.559 32.527l2.858 9.456s22.964-8.517 29.681 10.784c5.813 16.713-14.904 27.495-14.976 27.729 3.095 8.743 5.502 16.865-4.4 21.694-4.248 2.072-12.637 4.423-15.996-2.465-1.753-3.594-1.383-8.037 2.705-10.03 4.549-2.218 8.437-.237 10.268 3.518.686 1.406 1.814 4.918-.544 6.455.55-.069 1.173-.373 1.494-.53 7.542-3.678 4.831-12.422 3-16.177-.229-.472-.382-.783-.845-.943-15.156 6.037-28.745-.695-34.009-11.488-1.371-2.811-2.427-6.174-2.542-9.597-.123-2.649.065-5.45.648-8.257 1.59-9.102 7.279-17.587 11.995-23.658.962-1.24 3.58-4.641 3.58-4.641s-14.182-38.448-.801-44.722c4.982-2.338 14.296 8.59 16.443 20.345z"/></g></switch></svg>