<?xml version="1.0" encoding="UTF-8" standalone="no"?>
<svg
   xmlns:dc="http://purl.org/dc/elements/1.1/"
   xmlns:cc="http://creativecommons.org/ns#"
   xmlns:rdf="http://www.w3.org/1999/02/22-rdf-syntax-ns#"
   xmlns:svg="http://www.w3.org/2000/svg"
   xmlns="http://www.w3.org/2000/svg"
   viewBox="0 0 375 375"
   height="375"
   width="375"
   xml:space="preserve"
   version="1.1"
   id="svg2"><metadata
     id="metadata8"><rdf:RDF><cc:Work
         rdf:about=""><dc:format>image/svg+xml</dc:format><dc:type
           rdf:resource="http://purl.org/dc/dcmitype/StillImage" /></cc:Work></rdf:RDF></metadata><defs
     id="defs6" /><g
     transform="matrix(1.25,0,0,-1.25,0,375)"
     id="g10"><g
       transform="scale(0.1,0.1)"
       id="g12"><path
         id="path14"
         style="fill:#aebcc4;fill-opacity:1;fill-rule:nonzero;stroke:none"
         d="m 3000,529.855 c 0,-67.632 0,-529.85109375 -715,-529.85109375 l -1625,0 C 35,0.00390625 0,472.223 0,539.855 L 0,2399.86 c 0,545 592.352,600 660,600 l 1615,0.28 c 67.65,0 725,-0.28 725,-600.28" /><path
         id="path16"
         style="fill:#080828;fill-opacity:1;fill-rule:nonzero;stroke:none"
         d="m 497.281,435.516 c 17.266,-9.594 42.703,-16.313 71.016,-16.313 61.906,0 95.016,30.703 95.016,72.938 -0.485,34.547 -20.157,56.14 -62.391,71.5 -29.75,10.562 -40.781,17.765 -40.781,32.64 0,14.391 11.515,24.469 32.625,24.469 20.64,0 39.359,-7.672 49.437,-13.437 l 11.516,41.75 c -13.438,7.203 -36,13.921 -61.906,13.921 -54.235,0 -88.297,-32.156 -88.297,-73.421 -0.485,-27.36 18.718,-52.313 64.297,-68.141 28.796,-10.078 38.39,-18.25 38.39,-34.078 0,-15.36 -11.515,-25.906 -37.422,-25.906 -21.125,0 -46.547,8.625 -59.984,16.781 l -11.516,-42.703" /><path
         id="path18"
         style="fill:#080828;fill-opacity:1;fill-rule:nonzero;stroke:none"
         d="m 721.75,710.484 0,-52.781 -33.594,0 0,-44.156 33.594,0 0,-109.891 c 0,-30.703 5.75,-51.828 18.234,-65.265 11.032,-11.985 29.266,-19.188 50.86,-19.188 18.719,0 34.078,2.391 42.719,5.75 l -0.969,45.11 c -5.266,-1.438 -12.953,-2.875 -23.031,-2.875 -22.547,0 -30.235,14.875 -30.235,43.187 l 0,103.172 56.156,0 0,44.156 -56.156,0 0,66.703 -57.578,-13.922" /><path
         id="path20"
         style="fill:#080828;fill-opacity:1;fill-rule:nonzero;stroke:none"
         d="m 1075.86,524.297 c 0.95,5.281 1.92,13.906 1.92,24.953 0,51.344 -24.95,113.734 -100.78,113.734 -74.859,0 -114.203,-60.953 -114.203,-125.734 0,-71.5 44.625,-118.047 120.453,-118.047 33.58,0 61.42,6.235 81.58,14.391 l -8.64,40.797 c -17.75,-6.719 -37.44,-10.563 -64.784,-10.563 -37.437,0 -70.547,18.235 -71.984,60.469 l 156.438,0 z m -156.438,41.266 c 2.391,24 17.75,57.109 54.219,57.109 39.359,0 48.949,-35.516 48.469,-57.109 l -102.688,0" /><path
         id="path22"
         style="fill:#080828;fill-opacity:1;fill-rule:nonzero;stroke:none"
         d="m 1309.42,424 c -2.39,14.391 -3.36,35.031 -3.36,56.141 l 0,84.468 c 0,50.86 -21.59,98.375 -96.45,98.375 -36.95,0 -67.19,-10.078 -84.45,-20.64 l 11.51,-38.391 c 15.83,10.078 39.83,17.281 62.86,17.281 41.27,0 47.52,-25.437 47.52,-40.796 l 0,-3.844 c -86.39,0.484 -138.69,-29.266 -138.69,-88.297 0,-35.5 26.39,-69.578 73.42,-69.578 30.24,0 54.7,12.953 69.1,31.187 l 1.43,0 3.85,-25.906 53.26,0 z m -60.94,82.063 c 0,-3.844 -0.48,-8.641 -1.92,-12.954 -5.28,-16.796 -22.56,-32.156 -46.08,-32.156 -18.7,0 -33.57,10.547 -33.57,33.594 0,35.5 39.82,44.625 81.57,43.656 l 0,-32.14" /><path
         id="path24"
         style="fill:#080828;fill-opacity:1;fill-rule:nonzero;stroke:none"
         d="m 1525.11,764.719 0,-132.453 -0.95,0 c -10.57,17.281 -33.6,30.718 -65.75,30.718 -56.14,0 -105.1,-46.546 -104.61,-124.781 0,-71.969 44.14,-119.484 99.81,-119.484 34.08,0 62.39,16.312 76.3,42.234 l 0.97,0 2.39,-36.953 52.79,0 c -0.97,15.828 -1.92,41.75 -1.92,65.75 l 0,274.969 -59.03,0 z m 0,-239.469 c 0,-6.234 -0.48,-12 -1.92,-17.266 -5.75,-25.437 -26.88,-41.75 -50.86,-41.75 -37.44,0 -58.55,31.188 -58.55,73.891 0,43.672 21.11,77.266 59.02,77.266 26.87,0 45.59,-18.719 50.87,-41.75 0.96,-4.797 1.44,-10.563 1.44,-15.36 l 0,-35.031" /><path
         id="path26"
         style="fill:#080828;fill-opacity:1;fill-rule:nonzero;stroke:none"
         d="m 1707.17,424 0,233.703 -59.5,0 0,-233.703 59.5,0 z m -29.75,331.109 c -19.67,0 -33.11,-13.906 -33.11,-32.14 0,-17.766 12.96,-31.672 32.63,-31.672 20.64,0 33.59,13.906 33.59,31.672 -0.47,18.234 -12.95,32.14 -33.11,32.14" /><path
         id="path28"
         style="fill:#080828;fill-opacity:1;fill-rule:nonzero;stroke:none"
         d="m 1934.31,474.859 c -11.51,-4.796 -25.92,-9.109 -46.54,-9.109 -40.32,0 -71.5,27.359 -71.5,75.344 -0.49,42.703 26.39,75.812 71.5,75.812 21.11,0 35.03,-4.797 44.62,-9.109 l 10.56,44.141 c -13.43,6.234 -35.51,11.046 -57.11,11.046 -82.06,0 -130.04,-54.718 -130.04,-124.781 0,-72.453 47.5,-119 120.45,-119 29.27,0 53.73,6.235 66.22,12 l -8.16,43.656" /><path
         id="path30"
         style="fill:#080828;fill-opacity:1;fill-rule:nonzero;stroke:none"
         d="m 2171.42,424 c -2.39,14.391 -3.36,35.031 -3.36,56.141 l 0,84.468 c 0,50.86 -21.59,98.375 -96.45,98.375 -36.95,0 -67.19,-10.078 -84.45,-20.64 l 11.51,-38.391 c 15.83,10.078 39.83,17.281 62.86,17.281 41.27,0 47.52,-25.437 47.52,-40.796 l 0,-3.844 c -86.39,0.484 -138.69,-29.266 -138.69,-88.297 0,-35.5 26.39,-69.578 73.42,-69.578 30.24,0 54.7,12.953 69.1,31.187 l 1.43,0 3.85,-25.906 53.26,0 z m -60.94,82.063 c 0,-3.844 -0.48,-8.641 -1.92,-12.954 -5.28,-16.796 -22.56,-32.156 -46.08,-32.156 -18.7,0 -33.57,10.547 -33.57,33.594 0,35.5 39.82,44.625 81.57,43.656 l 0,-32.14" /><path
         id="path32"
         style="fill:#080828;fill-opacity:1;fill-rule:nonzero;stroke:none"
         d="m 2229.67,424 57.58,0 0,138.203 c 0,6.719 0.97,13.438 3.36,19.203 5.28,16.313 20.16,33.578 42.23,33.578 27.36,0 40.32,-23.031 40.32,-55.656 l 0,-135.328 57.57,0 0,140.125 c 0,6.719 1.44,13.922 2.9,19.672 6.23,16.797 21.1,31.187 41.26,31.187 28.31,0 41.75,-23.031 41.75,-61.89 l 0,-129.094 57.58,0 0,137.719 c 0,74.859 -39.34,101.265 -78.22,101.265 -19.19,0 -34.06,-4.812 -47.03,-13.921 -11.03,-6.719 -20.63,-16.313 -28.78,-29.282 l -0.97,0 c -10.08,25.922 -34.06,43.203 -64.78,43.203 -39.35,0 -60.47,-21.593 -71.99,-39.843 l -1.43,0 -2.39,34.562 -50.88,0 c 1.44,-20.156 1.92,-42.719 1.92,-69.594 l 0,-164.109" /><path
         id="path34"
         style="fill:#ffffff;fill-opacity:1;fill-rule:nonzero;stroke:none"
         d="m 695,2642.11 c 0,0 146.172,22.79 163.621,14.07 l 9.82,48.48 -43.089,17.7 c 0,0 -21.543,48.11 26.457,52.48 l 570.641,-30.48 c 0,0 52.55,-114.36 -73.02,-139.59 0,0 43.67,-104.72 -34.87,-170.16 0,0 69.82,-56.72 -13.08,-82.9 l -126.52,-21.82 8.73,-47.99 c 0,0 122.17,17.46 157.08,-139.61 0,0 78.54,-135.27 130.9,-130.91 0,0 109.08,130.91 161.45,183.25 0,0 78.53,91.64 148.34,65.46 0,0 34.91,-13.09 4.37,91.62 0,0 -65.45,39.29 -48,152.72 0,0 -91.63,96 4.37,187.62 0,0 161.43,117.81 292.33,-69.81 0,0 26.18,-170.17 8.73,-231.24 0,0 34.91,-65.46 52.36,-126.55 0,0 170.17,-21.82 126.54,-318.52 l -48,-344.7 c 0,0 30.84,-41.23 61.82,-67.09 22.89,-19.1 14.02,-49.14 2.67,-87.98 -5.16,-17.68 -36.68,-28.78 -55.76,-41.28 0,0 -7.89,-34.88 -19.34,-78.15 -5.04,-19.09 -54.79,-19.32 -81.02,-9.12 0,0 43.63,-170.16 -78.54,-235.61 l -26.18,-139.625 -610.86,3.629 39.27,240.706 -82.9,-4.35 -4.36,-91.64 -43.64,9.37 -8.73,39.91 -78.54,0 -12.93,-18.09 -135.12,12.45 0,48 20,8.71 0,52.36 -27.6,13.09 3.65,78.54 c 0,0 134.91,-4.36 148,-4.36 l 43.45,4.36 4.28,157.08 -39.32,8.74 -21.83,139.61 21.8,21.82 -4.37,82.91 -34.91,183.25 c 0,0 -43.63,0 -43.63,39.27 0,0 21.81,39.28 39.26,34.91 17.46,-4.36 -56.72,318.53 -56.72,318.53 l -192.708,18.72 c 0,0 -39.493,29.28 4.148,51.1 l 76.5,13.07 0,17.47 -114.141,17.67 -22.507,30.79 -143.981,0" /><path
         id="path36"
         style="fill:#aebcc4;fill-opacity:1;fill-rule:nonzero;stroke:none"
         d="m 915,2700.79 0,-52.36 c 0,0 140.89,-20 219.43,-2.55 l 3.73,50.54" /><path
         id="path38"
         style="fill:none;stroke:#ffffff;stroke-width:10;stroke-linecap:butt;stroke-linejoin:miter;stroke-miterlimit:10;stroke-dasharray:none;stroke-opacity:1"
         d="m 915,2700.79 0,-52.36 c 0,0 140.89,-20 219.43,-2.55 l 3.73,50.54 -223.16,4.37 z" /><path
         id="path40"
         style="fill:#aebcc4;fill-opacity:1;fill-rule:nonzero;stroke:none"
         d="m 1201.14,2111.74 15.64,-94.18 55.45,14.37 -19.63,85.28" /><path
         id="path42"
         style="fill:none;stroke:#ffffff;stroke-width:10;stroke-linecap:butt;stroke-linejoin:miter;stroke-miterlimit:10;stroke-dasharray:none;stroke-opacity:1"
         d="m 1201.14,2111.74 15.64,-94.18 55.45,14.37 -19.63,85.28 -51.46,-5.47 z" /><path
         id="path44"
         style="fill:#aebcc4;fill-opacity:1;fill-rule:nonzero;stroke:none"
         d="m 1284.05,1967.75 c 0,0 -19.05,2.25 -54.05,-17.75 -18.45,-10.54 11.31,-85.82 14.78,-126.24 l 39.27,-17.46 -4.37,-43.63 -39.26,-4.36 4.36,-69.81 205.08,17.45 8.72,78.54 c 0,0 -65.45,34.91 -174.53,183.26" /><path
         id="path46"
         style="fill:none;stroke:#ffffff;stroke-width:10;stroke-linecap:butt;stroke-linejoin:miter;stroke-miterlimit:10;stroke-dasharray:none;stroke-opacity:1"
         d="m 1284.05,1967.75 c 0,0 -19.05,2.25 -54.05,-17.75 -18.45,-10.54 11.31,-85.82 14.78,-126.24 l 39.27,-17.46 -4.37,-43.63 -39.26,-4.36 4.36,-69.81 205.08,17.45 8.72,78.54 c 0,0 -65.45,34.91 -174.53,183.26 z" /><path
         id="path48"
         style="fill:#aebcc4;fill-opacity:1;fill-rule:nonzero;stroke:none"
         d="m 1526.58,1413.61 c 0,0 -16.58,111.39 -27.46,165.8 0,0 -129.12,-24.41 -215.07,-56.72 l 8.72,-178.9 61.09,13.09 -13.09,139.62 120.36,28.74 10.54,-116" /><path
         id="path50"
         style="fill:none;stroke:#ffffff;stroke-width:10;stroke-linecap:butt;stroke-linejoin:miter;stroke-miterlimit:10;stroke-dasharray:none;stroke-opacity:1"
         d="m 1526.58,1413.61 c 0,0 -16.58,111.39 -27.46,165.8 0,0 -129.12,-24.41 -215.07,-56.72 l 8.72,-178.9 61.09,13.09 -13.09,139.62 120.36,28.74 10.54,-116 54.91,4.37 z" /><path
         id="path52"
         style="fill:#aebcc4;fill-opacity:1;fill-rule:nonzero;stroke:none"
         d="m 1305,1295.8 0,-69.81 111.06,21.81 11.46,72.37" /><path
         id="path54"
         style="fill:none;stroke:#ffffff;stroke-width:10;stroke-linecap:butt;stroke-linejoin:miter;stroke-miterlimit:10;stroke-dasharray:none;stroke-opacity:1"
         d="m 1305,1295.8 0,-69.81 111.06,21.81 11.46,72.37 L 1305,1295.8 Z" /><path
         id="path56"
         style="fill:#aebcc4;fill-opacity:1;fill-rule:nonzero;stroke:none"
         d="m 1196.78,1265 -4.37,-58.77 61.09,-5.53 8.19,64.3" /><path
         id="path58"
         style="fill:none;stroke:#ffffff;stroke-width:10;stroke-linecap:butt;stroke-linejoin:miter;stroke-miterlimit:10;stroke-dasharray:none;stroke-opacity:1"
         d="m 1196.78,1265 -4.37,-58.77 61.09,-5.53 8.19,64.3 -64.91,0 z" /></g></g></svg>