<?xml version="1.0" encoding="UTF-8" standalone="no"?>
<!-- Generator: Adobe Illustrator 16.0.3, SVG Export Plug-In . SVG Version: 6.00 Build 0)  -->

<svg
   xmlns:dc="http://purl.org/dc/elements/1.1/"
   xmlns:cc="http://creativecommons.org/ns#"
   xmlns:rdf="http://www.w3.org/1999/02/22-rdf-syntax-ns#"
   xmlns:svg="http://www.w3.org/2000/svg"
   xmlns="http://www.w3.org/2000/svg"
   xmlns:sodipodi="http://sodipodi.sourceforge.net/DTD/sodipodi-0.dtd"
   xmlns:inkscape="http://www.inkscape.org/namespaces/inkscape"
   version="1.1"
   id="Ebene_1"
   x="0px"
   y="0px"
   width="60px"
   height="60px"
   viewBox="0 0 60 60"
   style="enable-background:new 0 0 60 60;"
   xml:space="preserve"
   sodipodi:docname="visual_qr_verschwörungstheorie_de.svg"
   inkscape:version="0.92.4 (5da689c313, 2019-01-14)"><metadata
   id="metadata94"><rdf:RDF><cc:Work
       rdf:about=""><dc:format>image/svg+xml</dc:format><dc:type
         rdf:resource="http://purl.org/dc/dcmitype/StillImage" /><dc:title></dc:title></cc:Work></rdf:RDF></metadata><defs
   id="defs92" /><sodipodi:namedview
   pagecolor="#ffffff"
   bordercolor="#666666"
   borderopacity="1"
   objecttolerance="10"
   gridtolerance="10"
   guidetolerance="10"
   inkscape:pageopacity="0"
   inkscape:pageshadow="2"
   inkscape:window-width="731"
   inkscape:window-height="480"
   id="namedview90"
   showgrid="false"
   inkscape:zoom="3.9333333"
   inkscape:cx="30"
   inkscape:cy="30"
   inkscape:window-x="0"
   inkscape:window-y="0"
   inkscape:window-maximized="0"
   inkscape:current-layer="Ebene_1" />
<rect
   style="fill:#A0B983;"
   width="60"
   height="60"
   id="rect2" />
<g
   id="g48">
	<rect
   y="46.365"
   style="fill:none;"
   width="59.665"
   height="13.48"
   id="rect4" />
	<path
   style="fill:#FFFFFF;"
   d="M7.052,51.335l-1.527-4.721h0.938l0.645,2.144c0.182,0.595,0.336,1.148,0.462,1.723h0.014   c0.126-0.561,0.294-1.135,0.483-1.709l0.687-2.157h0.917L8.04,51.335H7.052z"
   id="path6" />
	<path
   style="fill:#FFFFFF;"
   d="M10.489,49.871c0.021,0.616,0.504,0.883,1.05,0.883c0.399,0,0.687-0.057,0.946-0.154l0.126,0.596   c-0.294,0.118-0.701,0.21-1.191,0.21c-1.106,0-1.758-0.68-1.758-1.724c0-0.945,0.574-1.835,1.667-1.835   c1.106,0,1.471,0.911,1.471,1.66c0,0.161-0.014,0.287-0.028,0.364H10.489z M11.987,49.269c0.007-0.314-0.133-0.833-0.708-0.833   c-0.532,0-0.756,0.483-0.791,0.833H11.987z"
   id="path8" />
	<path
   style="fill:#FFFFFF;"
   d="M13.491,49.023c0-0.462-0.007-0.791-0.028-1.1h0.75l0.028,0.651h0.028   c0.168-0.483,0.567-0.729,0.932-0.729c0.084,0,0.133,0.008,0.203,0.021v0.813c-0.07-0.014-0.147-0.028-0.252-0.028   c-0.413,0-0.693,0.267-0.771,0.651c-0.014,0.077-0.028,0.168-0.028,0.267v1.765h-0.861V49.023z"
   id="path10" />
	<path
   style="fill:#FFFFFF;"
   d="M15.941,50.544c0.196,0.118,0.567,0.245,0.875,0.245c0.378,0,0.546-0.154,0.546-0.379   c0-0.23-0.14-0.35-0.56-0.497c-0.666-0.231-0.945-0.595-0.938-0.994c0-0.603,0.497-1.072,1.289-1.072   c0.378,0,0.708,0.099,0.903,0.203l-0.168,0.609c-0.147-0.084-0.42-0.195-0.721-0.195c-0.308,0-0.477,0.146-0.477,0.356   c0,0.218,0.161,0.322,0.596,0.477c0.616,0.224,0.903,0.539,0.91,1.044c0,0.616-0.483,1.064-1.387,1.064   c-0.413,0-0.784-0.099-1.037-0.238L15.941,50.544z"
   id="path12" />
	<path
   style="fill:#FFFFFF;"
   d="M21.409,51.229c-0.182,0.084-0.54,0.176-0.967,0.176c-1.064,0-1.758-0.68-1.758-1.737   c0-1.022,0.7-1.821,1.898-1.821c0.315,0,0.637,0.07,0.833,0.161l-0.154,0.645c-0.14-0.063-0.343-0.133-0.651-0.133   c-0.659,0-1.051,0.483-1.044,1.106c0,0.7,0.456,1.1,1.044,1.1c0.301,0,0.511-0.063,0.679-0.133L21.409,51.229z"
   id="path14" />
	<path
   style="fill:#FFFFFF;"
   d="M22.045,46.362h0.868v2.031h0.014c0.105-0.161,0.245-0.294,0.427-0.393   c0.168-0.098,0.371-0.154,0.588-0.154c0.581,0,1.19,0.386,1.19,1.479v2.01h-0.861v-1.912c0-0.497-0.182-0.868-0.658-0.868   c-0.336,0-0.574,0.224-0.666,0.483c-0.028,0.069-0.035,0.161-0.035,0.259v2.038h-0.868V46.362z"
   id="path16" />
	<path
   style="fill:#FFFFFF;"
   d="M26.455,47.924l0.357,1.548c0.077,0.364,0.154,0.735,0.217,1.106h0.014   c0.07-0.371,0.182-0.749,0.28-1.1l0.441-1.555h0.701l0.427,1.513c0.105,0.399,0.196,0.771,0.273,1.142h0.014   c0.057-0.371,0.134-0.742,0.225-1.142l0.378-1.513h0.848l-1.071,3.411h-0.799l-0.406-1.387c-0.104-0.357-0.182-0.68-0.259-1.093   H28.08c-0.069,0.42-0.161,0.757-0.259,1.093l-0.434,1.387h-0.806l-1.008-3.411H26.455z"
   id="path18" />
	<path
   style="fill:#FFFFFF;"
   d="M34.332,49.598c0,1.254-0.883,1.814-1.752,1.814c-0.967,0-1.708-0.665-1.708-1.758   c0-1.121,0.736-1.808,1.765-1.808C33.652,47.847,34.332,48.562,34.332,49.598z M31.475,46.965c0-0.245,0.188-0.435,0.441-0.435   c0.23,0,0.412,0.183,0.412,0.435c0,0.23-0.176,0.427-0.42,0.427C31.656,47.392,31.475,47.195,31.475,46.965z M31.762,49.633   c0,0.658,0.322,1.156,0.848,1.156c0.49,0,0.832-0.483,0.832-1.17c0-0.532-0.238-1.142-0.826-1.142   C32.006,48.478,31.762,49.065,31.762,49.633z M32.875,46.965c0-0.245,0.182-0.435,0.428-0.435c0.244,0,0.42,0.183,0.42,0.435   c0,0.23-0.176,0.427-0.42,0.427C33.049,47.392,32.875,47.195,32.875,46.965z"
   id="path20" />
	<path
   style="fill:#FFFFFF;"
   d="M35.037,49.023c0-0.462-0.008-0.791-0.027-1.1h0.748l0.029,0.651h0.027   c0.168-0.483,0.566-0.729,0.932-0.729c0.084,0,0.133,0.008,0.203,0.021v0.813c-0.07-0.014-0.146-0.028-0.252-0.028   c-0.414,0-0.693,0.267-0.771,0.651c-0.014,0.077-0.027,0.168-0.027,0.267v1.765h-0.861V49.023z"
   id="path22" />
	<path
   style="fill:#FFFFFF;"
   d="M40.582,50.313c0,0.406,0.016,0.742,0.029,1.022h-0.758l-0.041-0.519h-0.014   c-0.148,0.245-0.484,0.596-1.094,0.596c-0.623,0-1.189-0.371-1.189-1.485v-2.003h0.861v1.856c0,0.567,0.182,0.932,0.637,0.932   c0.344,0,0.568-0.245,0.658-0.463c0.029-0.077,0.049-0.168,0.049-0.266v-2.06h0.861V50.313z"
   id="path24" />
	<path
   style="fill:#FFFFFF;"
   d="M41.512,48.939c0-0.392-0.008-0.721-0.027-1.016h0.756l0.041,0.512h0.021   c0.146-0.267,0.518-0.589,1.086-0.589c0.596,0,1.211,0.386,1.211,1.464v2.024h-0.861v-1.926c0-0.49-0.182-0.861-0.65-0.861   c-0.344,0-0.582,0.245-0.672,0.504c-0.029,0.077-0.035,0.182-0.035,0.28v2.003h-0.869V48.939z"
   id="path26" />
	<path
   style="fill:#FFFFFF;"
   d="M48.633,47.924c-0.016,0.231-0.029,0.512-0.029,0.98v1.934c0,0.714-0.146,1.226-0.504,1.548   c-0.357,0.315-0.848,0.413-1.316,0.413c-0.434,0-0.896-0.091-1.191-0.273l0.189-0.651c0.217,0.126,0.582,0.26,0.994,0.26   c0.561,0,0.98-0.295,0.98-1.03V50.81h-0.014c-0.195,0.302-0.545,0.504-0.994,0.504c-0.848,0-1.449-0.7-1.449-1.666   c0-1.121,0.729-1.801,1.547-1.801c0.52,0,0.826,0.253,0.988,0.532h0.014l0.035-0.455H48.633z M47.742,49.29   c0-0.077-0.006-0.161-0.027-0.231c-0.092-0.315-0.336-0.553-0.701-0.553c-0.482,0-0.84,0.42-0.84,1.113   c0,0.581,0.295,1.051,0.834,1.051c0.322,0,0.602-0.21,0.699-0.519c0.021-0.091,0.035-0.21,0.035-0.309V49.29z"
   id="path28" />
	<path
   style="fill:#FFFFFF;"
   d="M49.484,50.544c0.195,0.118,0.566,0.245,0.875,0.245c0.379,0,0.547-0.154,0.547-0.379   c0-0.23-0.141-0.35-0.561-0.497c-0.666-0.231-0.945-0.595-0.939-0.994c0-0.603,0.498-1.072,1.289-1.072   c0.379,0,0.707,0.099,0.904,0.203l-0.168,0.609c-0.148-0.084-0.42-0.195-0.723-0.195c-0.307,0-0.475,0.146-0.475,0.356   c0,0.218,0.16,0.322,0.594,0.477c0.617,0.224,0.904,0.539,0.912,1.044c0,0.616-0.484,1.064-1.387,1.064   c-0.414,0-0.785-0.099-1.037-0.238L49.484,50.544z"
   id="path30" />
	<path
   style="fill:#FFFFFF;"
   d="M53.979,49.171v0.595h-1.785v-0.595H53.979z"
   id="path32" />
	<path
   style="fill:#FFFFFF;"
   d="M20.324,53.95v0.974h0.819v0.645h-0.819v1.506c0,0.413,0.112,0.631,0.441,0.631   c0.147,0,0.259-0.021,0.336-0.043l0.014,0.659c-0.126,0.049-0.35,0.084-0.624,0.084c-0.315,0-0.581-0.105-0.742-0.28   c-0.182-0.196-0.266-0.505-0.266-0.953v-1.604h-0.49v-0.645h0.49v-0.771L20.324,53.95z"
   id="path34" />
	<path
   style="fill:#FFFFFF;"
   d="M21.793,53.362h0.868v2.031h0.014c0.105-0.161,0.245-0.294,0.427-0.393   c0.168-0.098,0.371-0.154,0.588-0.154c0.581,0,1.19,0.386,1.19,1.479v2.01h-0.861v-1.912c0-0.497-0.182-0.868-0.658-0.868   c-0.336,0-0.575,0.224-0.666,0.483c-0.028,0.069-0.035,0.161-0.035,0.259v2.038h-0.868V53.362z"
   id="path36" />
	<path
   style="fill:#FFFFFF;"
   d="M26.407,56.871c0.021,0.616,0.504,0.883,1.05,0.883c0.399,0,0.686-0.057,0.946-0.154l0.126,0.596   c-0.294,0.118-0.701,0.21-1.191,0.21c-1.106,0-1.758-0.68-1.758-1.724c0-0.945,0.574-1.835,1.667-1.835   c1.107,0,1.471,0.911,1.471,1.66c0,0.161-0.015,0.287-0.028,0.364H26.407z M27.905,56.269c0.007-0.314-0.133-0.833-0.708-0.833   c-0.532,0-0.756,0.483-0.791,0.833H27.905z"
   id="path38" />
	<path
   style="fill:#FFFFFF;"
   d="M32.652,56.598c0,1.254-0.883,1.814-1.751,1.814c-0.967,0-1.709-0.665-1.709-1.758   c0-1.121,0.735-1.808,1.765-1.808C31.973,54.847,32.652,55.562,32.652,56.598z M30.082,56.633c0,0.658,0.322,1.156,0.848,1.156   c0.491,0,0.833-0.483,0.833-1.17c0-0.532-0.238-1.142-0.826-1.142C30.327,55.478,30.082,56.065,30.082,56.633z"
   id="path40" />
	<path
   style="fill:#FFFFFF;"
   d="M33.357,56.023c0-0.462-0.008-0.791-0.027-1.1h0.748l0.029,0.651h0.027   c0.168-0.483,0.566-0.729,0.932-0.729c0.084,0,0.133,0.008,0.203,0.021v0.813c-0.07-0.014-0.146-0.028-0.252-0.028   c-0.414,0-0.693,0.267-0.771,0.651c-0.014,0.077-0.027,0.168-0.027,0.267v1.765h-0.861V56.023z"
   id="path42" />
	<path
   style="fill:#FFFFFF;"
   d="M36.768,53.972c0,0.259-0.189,0.462-0.49,0.462c-0.287,0-0.477-0.203-0.477-0.462   c0-0.267,0.195-0.47,0.482-0.47C36.578,53.502,36.76,53.705,36.768,53.972z M35.85,58.335v-3.411h0.869v3.411H35.85z"
   id="path44" />
	<path
   style="fill:#FFFFFF;"
   d="M38.25,56.871c0.021,0.616,0.506,0.883,1.051,0.883c0.4,0,0.688-0.057,0.945-0.154l0.127,0.596   c-0.295,0.118-0.701,0.21-1.191,0.21c-1.105,0-1.758-0.68-1.758-1.724c0-0.945,0.574-1.835,1.668-1.835   c1.105,0,1.471,0.911,1.471,1.66c0,0.161-0.014,0.287-0.029,0.364H38.25z M39.75,56.269c0.006-0.314-0.133-0.833-0.707-0.833   c-0.533,0-0.758,0.483-0.793,0.833H39.75z"
   id="path46" />
</g>
<g
   id="g41"
   transform="translate(-7.561529,-21.467778)">
	<g
   id="Bild"
   transform="translate(8.6,22.5)">
		
			<sodipodi:namedview
   units="mm"
   borderopacity="1.0"
   bordercolor="#666666"
   pagecolor="#ffffff"
   showgrid="false"
   inkscape:cy="140.10525"
   inkscape:cx="100.8875"
   inkscape:zoom="1.4"
   showguides="true"
   id="base"
   inkscape:pageopacity="0.0"
   inkscape:pageshadow="2"
   inkscape:window-width="702"
   inkscape:window-height="700"
   inkscape:window-x="0"
   inkscape:window-y="0"
   inkscape:window-maximized="1"
   inkscape:current-layer="layer1"
   inkscape:guide-bbox="true"
   inkscape:document-units="mm">
			<sodipodi:guide
   orientation="1,0"
   position="191.33858,0"
   id="guide21487" />
			<sodipodi:guide
   orientation="0,1"
   position="0,304.72441"
   id="guide21489" />
			<sodipodi:guide
   orientation="0,1"
   position="0,322.44094"
   id="guide26097" />
		</sodipodi:namedview>
		<g
   id="layer1"
   transform="translate(0,-910.62992)"
   inkscape:label="Ebene 1"
   inkscape:groupmode="layer">
			<path
   id="path6458"
   inkscape:connector-curvature="0"
   style="fill:#FFFFFF;"
   d="M29.397,912.992v2.773h0.482v-2.773H29.397z      M24.719,914.214l-0.406,0.232l2.031,3.531c0.14-0.086,0.281-0.161,0.422-0.232L24.719,914.214z M34.54,914.214l-2.094,3.616     c0.143,0.076,0.281,0.162,0.406,0.245l2.112-3.629L34.54,914.214z M29.732,916.419l-0.45,0.89l-4.259,8.516l-0.351,0.684h0.772     h8.251h0.756l-0.318-0.684l-3.999-8.516L29.732,916.419z M20.938,917.873l-0.232,0.42l3.447,1.994     c0.074-0.139,0.161-0.275,0.246-0.407L20.938,917.873z M38.321,917.873l-3.631,2.092c0.083,0.141,0.167,0.281,0.246,0.422     l3.635-2.094L38.321,917.873z M29.704,918.603l1.742,3.749c-0.844-0.407-1.594-0.543-2.281-0.465     c-0.488,0.054-0.918,0.211-1.321,0.437L29.704,918.603z M28.772,922.801c-0.119,0.18-0.189,0.396-0.189,0.624     c0,0.22,0.066,0.425,0.175,0.597c-0.346-0.118-0.716-0.291-1.132-0.554C27.995,923.176,28.367,922.934,28.772,922.801z      M30.695,922.918c0.309,0.117,0.632,0.281,1.001,0.507c-0.346,0.274-0.699,0.493-1.077,0.625     c0.118-0.179,0.202-0.395,0.202-0.625C30.821,923.243,30.767,923.071,30.695,922.918z M19.456,922.934v0.478h3.982     c0-0.085-0.016-0.165-0.016-0.245c0-0.081,0.016-0.154,0.016-0.232H19.456z M35.602,922.934c0,0.078,0.015,0.151,0.015,0.232     c0,0.08-0.015,0.16-0.015,0.245h4.199v-0.478H35.602z M26.985,924.036c1.209,0.803,2.25,1.077,3.17,0.976     c0.816-0.094,1.489-0.497,2.092-0.976l0.699,1.524h-6.715L26.985,924.036z M34.936,925.953c-0.079,0.146-0.163,0.284-0.246,0.421     l3.631,2.093l0.25-0.422L34.936,925.953z M24.152,926.058l-3.447,1.987l0.232,0.422l3.46-2.002     C24.313,926.33,24.226,926.196,24.152,926.058z M32.843,928.277c-0.134,0.088-0.272,0.172-0.407,0.25l0.549,0.943h-6.698     l0.495-0.857c-0.141-0.07-0.274-0.149-0.406-0.231l-0.641,1.089h-0.684h-1.832h-0.289l-0.133,0.26l-9.675,18.808l-0.161,0.323     l0.26,0.245l2.878,2.746l-0.13,0.351h0.699h27.584h0.709l-0.274-0.653l-9.054-21.772l-0.129-0.307h-0.322H33.54L32.843,928.277z      M23.513,930.432h0.843l-7.877,20.463l-2.338-2.243L23.513,930.432z M25.374,930.432h9.485l8.663,20.824H17.35L25.374,930.432z" />
			<path
   id="path6496"
   inkscape:connector-curvature="0"
   style="fill:#FFFFFF;stroke:#FFFFFF;stroke-width:0.4791;"
   d="     M29.638,928.874v0.959" />
		</g>
	</g>
</g>
<g
   id="g59">
</g>
<g
   id="g61">
</g>
<g
   id="g63">
</g>
<g
   id="g65">
</g>
<g
   id="g67">
</g>
<g
   id="g69">
</g>
<g
   id="g71">
</g>
<g
   id="g73">
</g>
<g
   id="g75">
</g>
<g
   id="g77">
</g>
<g
   id="g79">
</g>
<g
   id="g81">
</g>
<g
   id="g83">
</g>
<g
   id="g85">
</g>
<g
   id="g87">
</g>
</svg>