<?xml version="1.0" encoding="iso-8859-1"?>
<!-- Generator: Adobe Illustrator 16.0.3, SVG Export Plug-In . SVG Version: 6.00 Build 0)  -->
<!DOCTYPE svg PUBLIC "-//W3C//DTD SVG 1.1//EN" "http://www.w3.org/Graphics/SVG/1.1/DTD/svg11.dtd">
<svg version="1.1" id="Ebene_1" xmlns="http://www.w3.org/2000/svg" xmlns:xlink="http://www.w3.org/1999/xlink" x="0px" y="0px"
	 width="518px" height="518px" viewBox="0 0 518 518" style="enable-background:new 0 0 518 518;" xml:space="preserve">
<path style="fill-rule:evenodd;clip-rule:evenodd;fill:#7B74A8;" d="M518,512c0,3.313-2.017,6-4.505,6H4.505
	C2.018,518,0,515.313,0,512V6c0-3.313,2.017-6,4.504-6h508.99C515.983,0,518,2.687,518,6V512z"/>
<g>
	<g id="XMLID_1_">
		<g>
			<path style="fill:#7B74A8;" d="M419.679,200.93c0.57,87.61-71.08,160.28-160.37,160.66c-88.46,0.38-160.09-70.49-161.13-160.5
				c0.91-91.88,75.04-160.51,160.47-160.72C346.899,40.14,419.099,111.9,419.679,200.93z"/>
			<path style="fill:#FCFBFB;" d="M98.179,201.09c1.04,90.01,72.67,160.88,161.13,160.5c89.29-0.38,160.94-73.05,160.37-160.66
				c-0.58-89.03-72.779-160.79-161.03-160.56C173.219,40.58,99.089,109.21,98.179,201.09z M254.709,376.09
				c-94.72-2.21-173.28-81.439-170.77-179.76c2.41-94.42,80.57-170.87,175.1-170.34c96.51-0.58,177.17,79.81,175.04,178.93
				C432.039,300.08,352.519,378.37,254.709,376.09z"/>
		</g>
		<g>
		</g>
	</g>
</g>
<g>
	<rect x="-7.001" y="413" style="fill-rule:evenodd;clip-rule:evenodd;fill:none;" width="525.002" height="106"/>
	<path style="fill:#FFFFFF;" d="M146.491,435.437h-14.307V450.5h-6.177v-35.547h22.583v4.98h-16.406v10.571h14.307V435.437z"/>
	<path style="fill:#FFFFFF;" d="M164.021,450.988c-3.76,0-6.808-1.184-9.143-3.553c-2.336-2.367-3.503-5.521-3.503-9.46v-0.732
		c0-2.637,0.508-4.993,1.526-7.067c1.017-2.076,2.445-3.69,4.285-4.847c1.839-1.155,3.89-1.733,6.152-1.733
		c3.597,0,6.376,1.147,8.337,3.442c1.961,2.295,2.942,5.542,2.942,9.741v2.393h-17.261c0.179,2.182,0.907,3.906,2.185,5.176
		c1.277,1.27,2.885,1.904,4.822,1.904c2.718,0,4.932-1.099,6.641-3.296l3.198,3.052c-1.058,1.579-2.47,2.804-4.236,3.674
		C168.199,450.553,166.218,450.988,164.021,450.988z M163.313,428.356c-1.628,0-2.942,0.57-3.943,1.709
		c-1.001,1.14-1.64,2.727-1.917,4.761h11.304v-0.439c-0.13-1.985-0.659-3.487-1.587-4.504
		C166.242,428.865,164.956,428.356,163.313,428.356z"/>
	<path style="fill:#FFFFFF;" d="M185.065,426.965c1.937-2.246,4.386-3.369,7.349-3.369c5.631,0,8.488,3.215,8.569,9.644V450.5
		h-5.933v-17.041c0-1.822-0.395-3.113-1.184-3.869c-0.79-0.758-1.949-1.136-3.479-1.136c-2.376,0-4.15,1.059-5.322,3.174V450.5
		h-5.933V413h5.933V426.965z"/>
	<path style="fill:#FFFFFF;" d="M213.288,450.5h-5.933V413h5.933V450.5z"/>
	<path style="fill:#FFFFFF;" d="M234.553,443.322c0-1.058-0.436-1.863-1.306-2.417c-0.871-0.553-2.315-1.041-4.333-1.465
		c-2.019-0.423-3.703-0.96-5.054-1.611c-2.962-1.432-4.443-3.507-4.443-6.226c0-2.278,0.96-4.183,2.881-5.713
		c1.92-1.529,4.362-2.295,7.324-2.295c3.157,0,5.708,0.781,7.654,2.344c1.945,1.563,2.917,3.589,2.917,6.079h-5.933
		c0-1.139-0.423-2.087-1.27-2.845c-0.847-0.756-1.97-1.135-3.369-1.135c-1.302,0-2.364,0.302-3.186,0.903
		c-0.822,0.603-1.233,1.408-1.233,2.417c0,0.912,0.382,1.62,1.147,2.124c0.765,0.505,2.311,1.013,4.639,1.526
		c2.327,0.512,4.154,1.123,5.481,1.83c1.326,0.709,2.311,1.56,2.954,2.552c0.643,0.993,0.964,2.197,0.964,3.613
		c0,2.377-0.985,4.301-2.954,5.774c-1.97,1.473-4.549,2.209-7.739,2.209c-2.165,0-4.094-0.391-5.786-1.172
		c-1.693-0.781-3.011-1.855-3.955-3.223c-0.944-1.367-1.416-2.84-1.416-4.419h5.762c0.081,1.4,0.61,2.478,1.587,3.235
		c0.977,0.756,2.271,1.135,3.882,1.135c1.563,0,2.75-0.297,3.564-0.891C234.146,445.06,234.553,444.283,234.553,443.322z"/>
	<path style="fill:#FFFFFF;" d="M256.403,446.252c1.481,0,2.71-0.431,3.687-1.294c0.977-0.862,1.497-1.929,1.563-3.198h5.591
		c-0.065,1.645-0.578,3.178-1.538,4.602c-0.96,1.425-2.263,2.552-3.906,3.382c-1.644,0.83-3.418,1.245-5.322,1.245
		c-3.695,0-6.625-1.196-8.789-3.589c-2.165-2.393-3.247-5.696-3.247-9.912v-0.61c0-4.02,1.074-7.238,3.223-9.656
		c2.148-2.416,5.078-3.625,8.789-3.625c3.141,0,5.701,0.916,7.678,2.746c1.978,1.832,3.015,4.236,3.113,7.215h-5.591
		c-0.065-1.514-0.582-2.759-1.55-3.735c-0.969-0.977-2.202-1.465-3.699-1.465c-1.921,0-3.402,0.696-4.443,2.087
		c-1.042,1.393-1.571,3.504-1.587,6.336v0.952c0,2.865,0.517,5.001,1.55,6.409C252.957,445.548,254.45,446.252,256.403,446.252z"/>
	<path style="fill:#FFFFFF;" d="M277.57,426.965c1.937-2.246,4.386-3.369,7.349-3.369c5.631,0,8.488,3.215,8.569,9.644V450.5h-5.933
		v-17.041c0-1.822-0.395-3.113-1.184-3.869c-0.79-0.758-1.949-1.136-3.479-1.136c-2.376,0-4.15,1.059-5.322,3.174V450.5h-5.933V413
		h5.933V426.965z"/>
	<path style="fill:#FFFFFF;" d="M305.793,450.5h-5.933V413h5.933V450.5z"/>
	<path style="fill:#FFFFFF;" d="M328.254,447.912c-1.741,2.051-4.216,3.076-7.422,3.076c-2.865,0-5.034-0.838-6.506-2.515
		c-1.473-1.676-2.209-4.102-2.209-7.275v-17.114h5.933v17.041c0,3.354,1.392,5.029,4.175,5.029c2.881,0,4.826-1.033,5.835-3.101
		v-18.97h5.933V450.5H328.4L328.254,447.912z"/>
	<path style="fill:#FFFFFF;" d="M354.841,443.322c0-1.058-0.436-1.863-1.306-2.417c-0.871-0.553-2.316-1.041-4.334-1.465
		c-2.019-0.423-3.703-0.96-5.054-1.611c-2.963-1.432-4.443-3.507-4.443-6.226c0-2.278,0.96-4.183,2.881-5.713
		c1.92-1.529,4.361-2.295,7.324-2.295c3.157,0,5.709,0.781,7.653,2.344c1.945,1.563,2.918,3.589,2.918,6.079h-5.933
		c0-1.139-0.424-2.087-1.27-2.845c-0.847-0.756-1.97-1.135-3.369-1.135c-1.303,0-2.364,0.302-3.187,0.903
		c-0.821,0.603-1.232,1.408-1.232,2.417c0,0.912,0.382,1.62,1.147,2.124c0.765,0.505,2.311,1.013,4.639,1.526
		c2.327,0.512,4.154,1.123,5.481,1.83c1.326,0.709,2.311,1.56,2.953,2.552c0.644,0.993,0.965,2.197,0.965,3.613
		c0,2.377-0.985,4.301-2.954,5.774c-1.97,1.473-4.55,2.209-7.739,2.209c-2.165,0-4.094-0.391-5.786-1.172
		c-1.693-0.781-3.012-1.855-3.955-3.223c-0.944-1.367-1.416-2.84-1.416-4.419h5.762c0.081,1.4,0.61,2.478,1.587,3.235
		c0.977,0.756,2.271,1.135,3.882,1.135c1.563,0,2.75-0.297,3.564-0.891C354.434,445.06,354.841,444.283,354.841,443.322z"/>
	<path style="fill:#FFFFFF;" d="M380.646,443.322c0-1.058-0.436-1.863-1.306-2.417c-0.871-0.553-2.316-1.041-4.334-1.465
		c-2.019-0.423-3.703-0.96-5.054-1.611c-2.963-1.432-4.443-3.507-4.443-6.226c0-2.278,0.96-4.183,2.881-5.713
		c1.92-1.529,4.361-2.295,7.324-2.295c3.157,0,5.709,0.781,7.653,2.344c1.945,1.563,2.918,3.589,2.918,6.079h-5.933
		c0-1.139-0.424-2.087-1.27-2.845c-0.847-0.756-1.97-1.135-3.369-1.135c-1.303,0-2.364,0.302-3.187,0.903
		c-0.821,0.603-1.232,1.408-1.232,2.417c0,0.912,0.382,1.62,1.147,2.124c0.765,0.505,2.311,1.013,4.639,1.526
		c2.327,0.512,4.154,1.123,5.481,1.83c1.326,0.709,2.311,1.56,2.953,2.552c0.644,0.993,0.965,2.197,0.965,3.613
		c0,2.377-0.985,4.301-2.954,5.774c-1.97,1.473-4.55,2.209-7.739,2.209c-2.165,0-4.094-0.391-5.786-1.172
		c-1.693-0.781-3.012-1.855-3.955-3.223c-0.944-1.367-1.416-2.84-1.416-4.419h5.762c0.081,1.4,0.61,2.478,1.587,3.235
		c0.977,0.756,2.271,1.135,3.882,1.135c1.563,0,2.75-0.297,3.564-0.891C380.239,445.06,380.646,444.283,380.646,443.322z"/>
	<path style="fill:#FFFFFF;" d="M128.352,489.561c0,4.086-0.928,7.345-2.783,9.777c-1.855,2.434-4.346,3.65-7.471,3.65
		c-2.897,0-5.217-0.952-6.958-2.856v12.524h-5.933v-36.572h5.469l0.244,2.686c1.741-2.115,4.109-3.174,7.104-3.174
		c3.223,0,5.75,1.2,7.581,3.602c1.831,2.4,2.747,5.733,2.747,9.997V489.561z M122.443,489.048c0-2.637-0.525-4.728-1.575-6.274
		c-1.05-1.546-2.551-2.319-4.504-2.319c-2.425,0-4.167,1.001-5.225,3.003v11.719c1.074,2.051,2.832,3.076,5.273,3.076
		c1.888,0,3.365-0.761,4.431-2.283C121.91,494.447,122.443,492.141,122.443,489.048z"/>
	<path style="fill:#FFFFFF;" d="M145.002,502.988c-3.76,0-6.808-1.184-9.143-3.553c-2.336-2.367-3.503-5.521-3.503-9.46v-0.732
		c0-2.637,0.508-4.993,1.526-7.067c1.017-2.076,2.445-3.69,4.285-4.847c1.839-1.155,3.89-1.733,6.152-1.733
		c3.597,0,6.376,1.147,8.337,3.442c1.961,2.295,2.942,5.542,2.942,9.741v2.393h-17.261c0.179,2.182,0.907,3.906,2.185,5.176
		c1.277,1.27,2.885,1.904,4.822,1.904c2.718,0,4.932-1.099,6.641-3.296l3.198,3.052c-1.058,1.579-2.47,2.804-4.236,3.674
		C149.181,502.553,147.199,502.988,145.002,502.988z M144.294,480.356c-1.628,0-2.942,0.57-3.943,1.709
		c-1.001,1.14-1.64,2.727-1.917,4.761h11.304v-0.439c-0.13-1.985-0.659-3.487-1.587-4.504
		C147.224,480.865,145.938,480.356,144.294,480.356z"/>
	<path style="fill:#FFFFFF;" d="M174.03,481.504c-0.781-0.13-1.587-0.195-2.417-0.195c-2.718,0-4.549,1.042-5.493,3.125V502.5
		h-5.933v-26.416h5.664l0.146,2.954c1.432-2.295,3.418-3.442,5.957-3.442c0.846,0,1.546,0.114,2.1,0.342L174.03,481.504z"/>
	<path style="fill:#FFFFFF;" d="M210.7,494.224h-13.77l-2.881,8.276h-6.421l13.428-35.547h5.542l13.452,35.547h-6.445L210.7,494.224
		z M198.664,489.243h10.303l-5.151-14.746L198.664,489.243z"/>
	<path style="fill:#FFFFFF;" d="M239.24,499.912c-1.742,2.051-4.216,3.076-7.422,3.076c-2.865,0-5.034-0.838-6.506-2.515
		c-1.473-1.676-2.209-4.102-2.209-7.275v-17.114h5.933v17.041c0,3.354,1.392,5.029,4.175,5.029c2.881,0,4.826-1.033,5.835-3.101
		v-18.97h5.933V502.5h-5.591L239.24,499.912z"/>
	<path style="fill:#FFFFFF;" d="M265.827,495.322c0-1.058-0.436-1.863-1.306-2.417c-0.871-0.553-2.315-1.041-4.333-1.465
		c-2.019-0.423-3.703-0.96-5.054-1.611c-2.962-1.432-4.443-3.507-4.443-6.226c0-2.278,0.96-4.183,2.881-5.713
		c1.92-1.529,4.362-2.295,7.324-2.295c3.157,0,5.708,0.781,7.654,2.344c1.945,1.563,2.917,3.589,2.917,6.079h-5.933
		c0-1.139-0.423-2.087-1.27-2.845c-0.847-0.756-1.97-1.135-3.369-1.135c-1.302,0-2.364,0.302-3.186,0.903
		c-0.822,0.603-1.233,1.408-1.233,2.417c0,0.912,0.382,1.62,1.147,2.124c0.765,0.505,2.311,1.013,4.639,1.526
		c2.327,0.512,4.154,1.123,5.481,1.83c1.326,0.709,2.311,1.56,2.954,2.552c0.643,0.993,0.964,2.197,0.964,3.613
		c0,2.377-0.985,4.301-2.954,5.774c-1.97,1.473-4.549,2.209-7.739,2.209c-2.165,0-4.094-0.391-5.786-1.172
		c-1.693-0.781-3.011-1.855-3.955-3.223c-0.944-1.367-1.416-2.84-1.416-4.419h5.762c0.081,1.4,0.61,2.478,1.587,3.235
		c0.977,0.756,2.271,1.135,3.882,1.135c1.563,0,2.75-0.297,3.564-0.891C265.42,497.06,265.827,496.283,265.827,495.322z"/>
	<path style="fill:#FFFFFF;" d="M291.633,495.322c0-1.058-0.436-1.863-1.306-2.417c-0.871-0.553-2.315-1.041-4.333-1.465
		c-2.019-0.423-3.703-0.96-5.054-1.611c-2.962-1.432-4.443-3.507-4.443-6.226c0-2.278,0.96-4.183,2.881-5.713
		c1.92-1.529,4.362-2.295,7.324-2.295c3.157,0,5.708,0.781,7.654,2.344c1.945,1.563,2.917,3.589,2.917,6.079h-5.933
		c0-1.139-0.423-2.087-1.27-2.845c-0.847-0.756-1.97-1.135-3.369-1.135c-1.302,0-2.364,0.302-3.186,0.903
		c-0.822,0.603-1.233,1.408-1.233,2.417c0,0.912,0.382,1.62,1.147,2.124c0.765,0.505,2.311,1.013,4.639,1.526
		c2.327,0.512,4.154,1.123,5.481,1.83c1.326,0.709,2.311,1.56,2.954,2.552c0.643,0.993,0.964,2.197,0.964,3.613
		c0,2.377-0.985,4.301-2.954,5.774c-1.97,1.473-4.549,2.209-7.739,2.209c-2.165,0-4.094-0.391-5.786-1.172
		c-1.693-0.781-3.011-1.855-3.955-3.223c-0.944-1.367-1.416-2.84-1.416-4.419h5.762c0.081,1.4,0.61,2.478,1.587,3.235
		c0.977,0.756,2.271,1.135,3.882,1.135c1.563,0,2.75-0.297,3.564-0.891C291.226,497.06,291.633,496.283,291.633,495.322z"/>
	<path style="fill:#FFFFFF;" d="M314.265,502.988c-3.76,0-6.808-1.184-9.143-3.553c-2.336-2.367-3.503-5.521-3.503-9.46v-0.732
		c0-2.637,0.508-4.993,1.526-7.067c1.017-2.076,2.445-3.69,4.285-4.847c1.839-1.155,3.89-1.733,6.152-1.733
		c3.597,0,6.376,1.147,8.337,3.442s2.942,5.542,2.942,9.741v2.393H307.6c0.179,2.182,0.907,3.906,2.185,5.176
		c1.277,1.27,2.885,1.904,4.822,1.904c2.718,0,4.932-1.099,6.641-3.296l3.198,3.052c-1.058,1.579-2.47,2.804-4.236,3.674
		C318.443,502.553,316.462,502.988,314.265,502.988z M313.557,480.356c-1.628,0-2.942,0.57-3.943,1.709
		c-1.001,1.14-1.64,2.727-1.917,4.761h11.304v-0.439c-0.13-1.985-0.659-3.487-1.587-4.504
		C316.486,480.865,315.2,480.356,313.557,480.356z"/>
	<path style="fill:#FFFFFF;" d="M335.31,478.965c1.937-2.246,4.386-3.369,7.349-3.369c5.631,0,8.487,3.215,8.569,9.644V502.5h-5.933
		v-17.041c0-1.822-0.395-3.113-1.185-3.869c-0.789-0.758-1.949-1.136-3.479-1.136c-2.377,0-4.15,1.059-5.322,3.174V502.5h-5.933V465
		h5.933V478.965z"/>
	<path style="fill:#FFFFFF;" d="M368.854,502.988c-3.76,0-6.808-1.184-9.144-3.553c-2.335-2.367-3.503-5.521-3.503-9.46v-0.732
		c0-2.637,0.509-4.993,1.526-7.067c1.017-2.076,2.444-3.69,4.284-4.847c1.839-1.155,3.89-1.733,6.152-1.733
		c3.597,0,6.376,1.147,8.337,3.442c1.962,2.295,2.942,5.542,2.942,9.741v2.393h-17.261c0.179,2.182,0.907,3.906,2.186,5.176
		c1.277,1.27,2.884,1.904,4.821,1.904c2.718,0,4.932-1.099,6.641-3.296l3.198,3.052c-1.059,1.579-2.47,2.804-4.236,3.674
		C373.033,502.553,371.052,502.988,368.854,502.988z M368.146,480.356c-1.628,0-2.941,0.57-3.943,1.709
		c-1,1.14-1.64,2.727-1.916,4.761h11.304v-0.439c-0.131-1.985-0.659-3.487-1.587-4.504
		C371.076,480.865,369.79,480.356,368.146,480.356z"/>
	<path style="fill:#FFFFFF;" d="M389.558,476.084l0.171,3.052c1.953-2.359,4.517-3.54,7.69-3.54c5.501,0,8.301,3.149,8.398,9.448
		V502.5h-5.933v-17.114c0-1.676-0.362-2.917-1.087-3.724c-0.724-0.805-1.908-1.208-3.552-1.208c-2.393,0-4.175,1.083-5.347,3.247
		V502.5h-5.933v-26.416H389.558z"/>
</g>
<path style="fill-rule:evenodd;clip-rule:evenodd;fill:#FCFBFC;" d="M346.882,190.984c4.391,4.275,4.811,8.75,3.365,13.431
	c-1.479,4.79-4.766,8.403-9.799,8.89c-3.773,0.364-4.084,1.869-3.994,4.959c0.443,15.337,1.207,30.626,5.553,45.472
	c2.703,9.231,9.885,10.855,16.869,3.906c0.568-0.565,1.1-1.166,2.207-2.345c0.457,3.945-0.629,6.749-2.273,9.353
	c-3.564,5.646-8.789,8.961-15.219,10.485c-7.619,1.808-11.357,0.4-15.588-6.191c-6.761-10.533-7.652-22.563-8.268-34.548
	c-0.428-8.31-0.374-16.659-0.155-24.98c0.102-3.859-1.339-5.903-4.922-6.864c-6.736-1.806-13.57-1.043-20.376-0.863
	c-2.281,0.06-2.651,2.344-3.462,3.845c-6.797,12.592-13.346,25.32-20.271,37.841c-4.686,8.47-10.383,16.248-17.301,23.124
	c-24.17,24.016-62.059,22.351-84.016-3.749c-7.71-9.164-9.896-19.979-8.498-31.392c2.036-16.612,10.22-29.801,24.497-38.752
	c15.047-9.434,30.675-6.666,41.652,7.29c2.063,2.624,3.729,2.99,6.661,1.803c14.941-6.05,30.273-10.305,46.637-8.976
	c3.146,0.255,3.844-2.161,4.982-4.074c10.643-17.88,20.712-36.123,33.151-52.867c4.43-5.965,9.215-11.666,14.137-17.863
	c-10.01-0.733-19.545-1.471-29.086-2.123c-14.607-1-29.235-2.758-43.835-0.185c-14.1,2.484-20.562,10.186-20.023,23.451
	c0.369,9.109,5.32,15.261,13.095,19.197c7.113,3.601,13.876,2.41,19.991-2.652c0.367-0.304,0.853-0.464,1.32-0.71
	c0.402,11.097-8.271,17.523-18.764,13.999c-11.629-3.907-20.412-16.59-20.908-30.192c-0.512-14.023,6.952-26.324,19.006-31.203
	c8.357-3.383,17.158-4.168,26.009-3.561c14.611,1.004,29.178,2.68,43.793,3.582c12.418,0.767,24.758,0.38,34.947-8.479
	c0.928-0.806,2.094-0.993,3.275-0.415c1.438,0.703,1.705,2.086,1.561,3.391c-0.121,1.106-0.654,2.226-1.221,3.216
	c-14.352,25.145-22.096,52.313-24.719,81.021c-0.186,2.021-1.982,5.254,0.922,6.054c2.639,0.726,5.408-1.082,7.332-3.425
	C346.882,196.767,346.452,194.164,346.882,190.984z M179.314,245.81c-0.117,2.595,0.361,7.255,1.42,11.789
	c3.42,14.647,10.063,26.508,26.501,29.544c11.396,2.104,21.423-0.832,30.273-8.133c7.157-5.904,12.56-13.26,17.399-21.089
	c8.252-13.347,14.036-27.934,21.186-41.83c2.334-4.535,0.465-4.868-3.292-5.009c-14.269-0.535-27.636,3.436-40.962,7.801
	c-2.438,0.799-2.23,2.424-2.176,4.277c0.145,4.896-1.637,8.883-6.104,11.155c-3.582,1.822-7.445,1.742-9.994-1.576
	c-2.35-3.059-0.125-6.048,1.827-8.532c1.839-2.34,4.206-4.268,6.013-6.628c1.188-1.552,2.132-3.538-0.123-5.254
	c-11.836-9.005-26.658-11.747-35.854,4.914C180.884,225.471,179.449,234.447,179.314,245.81z M333.358,136.623
	c-16.639,19.8-29.063,40.417-37.163,63.593c-0.92,2.632,0.536,2.803,2.402,2.812c3.663,0.017,7.327,0.021,10.99,0.022
	c9.31,0.003,9.307,0.001,10.146-9.006c0.077-0.828,0.235-1.649,0.318-2.477c1.417-14.062,6.934-27.016,10.87-40.399
	C332.179,146.897,333.769,142.656,333.358,136.623z"/>
</svg>
