<?xml version="1.0" encoding="utf-8"?>
<!-- Generator: Adobe Illustrator 16.0.3, SVG Export Plug-In . SVG Version: 6.00 Build 0)  -->
<!DOCTYPE svg PUBLIC "-//W3C//DTD SVG 1.1//EN" "http://www.w3.org/Graphics/SVG/1.1/DTD/svg11.dtd" [
	<!ENTITY ns_extend "http://ns.adobe.com/Extensibility/1.0/">
	<!ENTITY ns_ai "http://ns.adobe.com/AdobeIllustrator/10.0/">
	<!ENTITY ns_graphs "http://ns.adobe.com/Graphs/1.0/">
	<!ENTITY ns_vars "http://ns.adobe.com/Variables/1.0/">
	<!ENTITY ns_imrep "http://ns.adobe.com/ImageReplacement/1.0/">
	<!ENTITY ns_sfw "http://ns.adobe.com/SaveForWeb/1.0/">
	<!ENTITY ns_custom "http://ns.adobe.com/GenericCustomNamespace/1.0/">
	<!ENTITY ns_adobe_xpath "http://ns.adobe.com/XPath/1.0/">
]>
<svg version="1.1" id="Ebene_1" xmlns:x="&ns_extend;" xmlns:i="&ns_ai;" xmlns:graph="&ns_graphs;"
	 xmlns="http://www.w3.org/2000/svg" xmlns:xlink="http://www.w3.org/1999/xlink" x="0px" y="0px" width="300px" height="300px"
	 viewBox="0 0 300 300" enable-background="new 0 0 300 300" xml:space="preserve">
<metadata>
	<sfw  xmlns="&ns_sfw;">
		<slices></slices>
		<sliceSourceBounds  height="307.58" width="300" x="276.5" y="142.92" bottomLeftOrigin="true"></sliceSourceBounds>
	</sfw>
</metadata>
<rect y="0" fill="#7E97C3" width="300" height="300"/>
<rect x="0.757" y="228.086" fill="none" width="298.486" height="79.494"/>
<path fill="#FFFFFF" enable-background="new    " d="M212.205,211.537l-2.211-18.611h0.022c-0.401-3.325,1.809-6.454,5.137-7.137
	c25.831-5.326,41.664-18.464,48.389-33.747c3.275-7.421,4.41-15.379,3.517-23.167c-0.907-7.842-3.876-15.526-8.77-22.369
	c-10.777-14.969-30.947-25.936-59.576-25.936c-31.623,0-51.928,12.651-61.58,29.219c-4.021,6.907-6.232,14.506-6.642,22.126
	c-0.422,7.663,0.937,15.368,4.041,22.463c7.063,16.127,23.252,29.158,48.167,31.569c1.484,0.072,2.96,0.663,4.139,1.757
	L212.205,211.537z M223.604,197.158l3.633,30.577c0.419,3.568-2.125,6.801-5.705,7.221c-2.096,0.242-4.085-0.536-5.453-1.968
	l-36.557-34.336c-29.105-3.41-48.264-19.389-56.896-39.094c-3.915-8.949-5.632-18.654-5.116-28.295
	c0.527-9.664,3.296-19.286,8.381-27.979c11.799-20.295,35.915-35.728,72.82-35.728c33.273,0,57.074,13.256,70.094,31.371
	c6.242,8.695,10.023,18.485,11.171,28.463c1.155,10.052-0.307,20.326-4.529,29.895C267.699,174.906,250.647,190.106,223.604,197.158
	 M229.553,130.694c4.725,0,8.548,3.813,8.548,8.528c0,4.716-3.823,8.525-8.548,8.525c-4.707,0-8.527-3.809-8.527-8.525
	C221.025,134.507,224.846,130.694,229.553,130.694 M198.879,130.694c4.715,0,8.525,3.813,8.525,8.528
	c0,4.716-3.811,8.525-8.525,8.525s-8.528-3.809-8.528-8.525C190.354,134.507,194.164,130.694,198.879,130.694 M168.205,130.694
	c4.705,0,8.538,3.813,8.538,8.528c0,4.716-3.832,8.525-8.538,8.525c-4.715,0-8.526-3.809-8.526-8.525
	C159.679,134.507,163.49,130.694,168.205,130.694 M176.628,62.654c0.208,0.483,0.377,0.947,0.482,1.452
	c-4.314,0.777-8.568,1.811-12.695,3.136c-4.778-9.599-12.588-18.126-23.525-24.093c-10.273-5.612-23.359-8.999-39.358-8.999
	c-28.335,0-48.505,11.555-59.411,27.346c-5.072,7.347-8.168,15.641-9.137,24.083c-0.968,8.421,0.159,16.99,3.494,24.916
	c6.758,16.033,22.619,29.737,48.61,35.106c3.347,0.672,5.557,3.788,5.158,7.113h0.011l-2.2,18.61l25.264-23.725
	c0.928,4.757,2.367,9.387,4.273,13.811l-33.41,31.378c-1.367,1.42-3.369,2.209-5.474,1.967c-3.56-0.42-6.105-3.663-5.695-7.221
	l3.644-30.589c-27.284-7.155-44.367-22.987-52.127-41.408c-4.241-10.085-5.685-20.864-4.474-31.432
	c1.202-10.526,5.053-20.832,11.379-29.979c13.169-19.053,37.02-33,70.095-33c18.251,0,33.443,3.999,45.57,10.621
	C160.963,39.326,170.772,50.296,176.628,62.654"/>
<g>
	<rect x="2" y="241.5" fill="none" width="296" height="55"/>
	<path fill="#FFFFFF" d="M121.873,269.484c1.2,0.72,4.128,1.92,7.105,1.92c4.512,0,6.336-2.544,6.288-4.992
		c0-3.696-3.456-5.28-7.057-5.28h-2.736v-4.32h2.64c2.736,0,6.192-1.248,6.192-4.368c0-2.112-1.584-3.889-4.992-3.889
		c-2.544,0-5.088,1.104-6.385,1.968l-1.344-4.271c1.776-1.249,5.232-2.4,8.977-2.4c6.433,0,9.745,3.552,9.745,7.633
		c0,3.264-1.92,5.952-5.76,7.296v0.097c3.792,0.672,6.864,3.552,6.864,7.776c0,5.28-4.416,9.457-12.145,9.457
		c-3.792,0-7.057-1.057-8.737-2.16L121.873,269.484z"/>
	<path fill="#FFFFFF" d="M146.785,272.316c0-2.208,1.536-3.792,3.648-3.792c2.161,0,3.648,1.536,3.648,3.792
		c0,2.16-1.44,3.793-3.648,3.793C148.273,276.109,146.785,274.476,146.785,272.316z"/>
	<path fill="#FFFFFF" d="M166.993,249.706h-0.097l-5.712,2.88l-1.009-4.464l7.586-3.745h4.943v31.203h-5.712V249.706z"/>
</g>
</svg>
