<?xml version="1.0" encoding="utf-8"?>
<!-- Generator: Adobe Illustrator 16.0.3, SVG Export Plug-In . SVG Version: 6.00 Build 0)  -->
<!DOCTYPE svg PUBLIC "-//W3C//DTD SVG 1.1//EN" "http://www.w3.org/Graphics/SVG/1.1/DTD/svg11.dtd">
<svg version="1.1" id="Layer_1" xmlns="http://www.w3.org/2000/svg" xmlns:xlink="http://www.w3.org/1999/xlink" x="0px" y="0px"
	 width="500px" height="500.029px" viewBox="0 0 500 500.029" enable-background="new 0 0 500 500.029" xml:space="preserve">
<title>Artboard 1</title>
<rect id="_Path_" y="-0.015" fill="#BF8B2E" width="500" height="500.03"/>
<polygon id="_Path_2" fill="#FFFFFF" points="49.91,65.69 50.065,65.69 50.065,142.865 67.015,142.865 67.015,42.045 53.47,42.045 
	37.865,60.34 37.865,78.03 38.01,78.03 "/>
<path id="_Path_3" fill="#FFFFFF" d="M77.12,62.87v12.185h15.46v-12.64c0-6.09,3-7.875,6.545-7.875c3.275,0,6.096,1.335,6.096,7.585
	v8.318c0,8.335-0.74,11.602-6.25,17.4l-9.5,10.115c-9.216,9.813-12.646,16.354-12.646,26.318v18.592h44v-13.835h-27.8v-4.757
	c0-7.885,2.824-10.854,7.135-15.465L111,97.365c8.775-9.363,10.71-15.318,10.71-25.43v-9.81c0-14.432-7-21.267-22.16-21.267
	c-14.87,0-22.45,7.88-22.45,22"/>
<path id="_Path_4" fill="#FFFFFF" d="M389.275,267.84C368.885,251.735,344.435,250,334.87,250c-5.045,0-9.715,0.45-13.135,1.265
	l-1.342,0.312c-12.915,3.05-34.528,8.153-59.693,39.385l-0.74,0.915c-0.401,0.549-0.622,1.21-0.63,1.89
	c0.002,0.581,0.155,1.151,0.445,1.655l0.568,0.935c4.153,6.95,7.604,12.985,10.352,18.105c0.84,1.633,2.845,2.273,4.478,1.435
	c0.337-0.174,0.644-0.403,0.902-0.68c0.175-0.23,0.354-0.477,0.5-0.66c21.71-30.055,38.74-34.055,50.01-36.72L328,277.5
	c2.273-0.438,4.586-0.633,6.9-0.585c5.238,0,23.454,0.87,37.665,12.09c12.645,10,19.055,25.92,19.055,47.375
	c0,35.96-17.396,50-32,55.42c-5.711,2.105-11.753,3.17-17.84,3.14c-9.267-0.048-18.407-2.129-26.78-6.095l-1.045-0.5
	c-12.555-5.45-31.3-16.815-49.025-52.405c-36.33-73-66.85-79.89-87.06-84.465l-1.06-0.234c-1.551-0.354-5.92-1.171-13-1.171
	c-11.701,0-34.211,2.302-53.5,17.7c-13.17,10.5-28.881,30.915-28.881,68.5c0,22.885,4.715,38,16.801,53.895
	c2.27,3.102,23.324,30.29,63.75,30.29c6.196-0.021,12.377-0.626,18.459-1.81c7.381-1.41,18.771-5.06,31.5-14.39l10.625,9.59
	c1.271,1.069,3.15,0.982,4.315-0.2c0.511-0.539,0.785-1.259,0.765-2l8.221-50.64v-0.592c-0.008-0.844-0.371-1.646-1-2.21
	c-0.578-0.533-1.344-0.815-2.131-0.783l0,0L183.404,371l-0.939,0.153c-0.605,0.125-1.154,0.442-1.564,0.905
	c-1.141,1.24-1.059,3.17,0.182,4.31c0.009,0.01,0.02,0.018,0.027,0.025l10.216,9.24c-5.37,3.295-10.74,5.5-15.96,6.5
	c-4.311,0.836-8.69,1.265-13.08,1.278c-27.936,0-41.68-18.335-42.245-19.108l-0.274-0.38c-8.5-11.165-11.371-20.67-11.371-37.67
	c0-21.53,6.301-37.5,18.726-47.4c13.825-11.028,31.614-11.89,36.745-11.89c2.347-0.042,4.691,0.153,7,0.585l1.09,0.245
	c16.13,3.654,38.22,8.654,68.85,70.175c16.175,32.5,36.459,53.72,61.955,64.92c2.965,1.5,18.78,9.055,39.05,9.055
	c9.301,0.03,18.529-1.607,27.25-4.835c14.892-5.555,49.54-24.55,49.54-80.71C418.585,298.86,402.646,278.4,389.275,267.84z"/>
<g>
	<path fill="#FFFFFF" d="M161.713,83.836c-0.254,0-0.444-0.098-0.571-0.293c-0.127-0.195-0.19-0.586-0.19-1.172V43.26
		c0-1.035,0.253-1.553,0.762-1.553h4.453c0.41,0,0.762,0.381,1.055,1.143l9.932,26.689c0.039,0.137,0.098,0.098,0.176-0.117
		l0.029-0.264V43.26c0-1.035,0.264-1.553,0.791-1.553h3.486c0.488,0,0.732,0.518,0.732,1.553v39.229
		c0,0.586-0.059,0.962-0.176,1.128c-0.117,0.166-0.303,0.249-0.557,0.249h-3.164c-0.195,0-0.406-0.117-0.63-0.352
		c-0.225-0.234-0.406-0.527-0.542-0.879l-11.045-28.828c-0.078-0.156-0.137-0.107-0.176,0.146c-0.02,0.059-0.029,0.127-0.029,0.205
		v28.213c0,0.586-0.063,0.977-0.19,1.172c-0.127,0.195-0.327,0.293-0.601,0.293H161.713z"/>
	<path fill="#FFFFFF" d="M187.729,83.836c-0.293,0-0.439-0.283-0.439-0.85v-0.498c0-0.253,0.01-0.42,0.029-0.498l6.592-38.818
		c0.156-0.938,0.517-1.425,1.084-1.465h5.947c0.546,0.04,0.898,0.527,1.055,1.465l6.475,38.818c0,0.059,0.015,0.166,0.044,0.322
		c0.029,0.157,0.048,0.293,0.059,0.41c0.01,0.117,0.015,0.215,0.015,0.293c0,0.547-0.166,0.82-0.498,0.82h-4.834
		c-0.469,0-0.772-0.4-0.908-1.201l-1.084-7.471c-0.059-0.429-0.166-0.645-0.322-0.645h-7.09c-0.137,0-0.245,0.225-0.322,0.674
		l-1.23,7.412c-0.078,0.488-0.176,0.816-0.293,0.981c-0.117,0.166-0.293,0.249-0.527,0.249H187.729z M194.702,70.858h5.977
		c0.136,0,0.205-0.176,0.205-0.527c0-0.117-0.02-0.205-0.059-0.264l-2.9-22.588c-0.02-0.136-0.049-0.205-0.088-0.205
		c-0.059,0-0.098,0.059-0.117,0.176l-3.428,22.588c-0.02,0.137-0.029,0.225-0.029,0.264
		C194.262,70.672,194.409,70.858,194.702,70.858z"/>
	<path fill="#FFFFFF" d="M224.204,84.276c-1.016,0-1.9-0.049-2.651-0.146c-0.752-0.098-1.567-0.317-2.446-0.659
		c-0.879-0.341-1.626-0.815-2.241-1.421c-0.615-0.605-1.23-1.445-1.846-2.52c-0.615-1.074-1.109-2.358-1.479-3.853
		c-0.371-1.494-0.674-3.33-0.908-5.508c-0.234-2.178-0.352-4.653-0.352-7.427c0-3.75,0.229-6.973,0.688-9.668
		c0.458-2.695,1.04-4.794,1.743-6.299c0.703-1.504,1.616-2.685,2.739-3.545c1.123-0.859,2.197-1.406,3.223-1.641
		s2.251-0.352,3.677-0.352c1.816,0,3.311,0.274,4.482,0.82c0.019,0.02,0.048,0.044,0.088,0.073c0.039,0.029,0.073,0.059,0.103,0.088
		s0.054,0.078,0.073,0.146c0.019,0.069,0.029,0.151,0.029,0.249v3.545c0,0.274-0.069,0.41-0.205,0.41
		c-0.02,0-0.093-0.019-0.22-0.059c-0.127-0.039-0.308-0.088-0.542-0.146s-0.488-0.117-0.762-0.176
		c-0.274-0.059-0.591-0.107-0.952-0.146c-0.362-0.039-0.718-0.059-1.069-0.059c-0.918,0-1.699,0.103-2.344,0.308
		s-1.299,0.645-1.963,1.318c-0.664,0.674-1.201,1.607-1.611,2.798c-0.41,1.191-0.743,2.823-0.996,4.893
		c-0.254,2.07-0.381,4.551-0.381,7.441c0,2.949,0.112,5.459,0.337,7.529c0.224,2.07,0.513,3.706,0.864,4.907
		s0.839,2.134,1.465,2.798c0.625,0.664,1.25,1.094,1.875,1.289c0.625,0.195,1.406,0.293,2.344,0.293
		c1.387,0,2.617-0.186,3.691-0.557c0.019,0,0.063,0.098,0.132,0.293c0.068,0.195,0.103,0.303,0.103,0.322v3.369
		c0,0.02-0.034,0.122-0.103,0.308c-0.069,0.186-0.113,0.289-0.132,0.308C227.465,84.051,225.98,84.276,224.204,84.276z"/>
	<path fill="#FFFFFF" d="M234.897,83.836c-0.274,0-0.469-0.083-0.586-0.249c-0.117-0.166-0.176-0.542-0.176-1.128V43.084
		c0-0.586,0.059-0.962,0.176-1.128c0.117-0.166,0.312-0.249,0.586-0.249h4.248c0.273,0,0.469,0.083,0.586,0.249
		c0.117,0.166,0.176,0.542,0.176,1.128V58.67c0,0.176,0.034,0.333,0.103,0.469c0.068,0.137,0.132,0.205,0.19,0.205h8.789
		c0.059,0,0.127-0.073,0.205-0.22c0.078-0.146,0.117-0.308,0.117-0.483V43.084c0-0.566,0.063-0.938,0.19-1.113
		c0.127-0.176,0.317-0.264,0.571-0.264h4.306c0.254,0,0.439,0.083,0.557,0.249c0.117,0.166,0.176,0.542,0.176,1.128v39.375
		c0,0.586-0.059,0.962-0.176,1.128c-0.117,0.166-0.303,0.249-0.557,0.249h-4.306c-0.176,0-0.313-0.024-0.41-0.073
		c-0.098-0.048-0.186-0.18-0.264-0.396c-0.078-0.215-0.117-0.517-0.117-0.908v-17.9c0-0.41-0.107-0.615-0.322-0.615h-8.701
		c-0.195,0-0.293,0.205-0.293,0.615v17.9c0,0.567-0.063,0.938-0.19,1.113c-0.127,0.176-0.318,0.264-0.571,0.264H234.897z"/>
	<path fill="#FFFFFF" d="M262.641,83.836c-0.273,0-0.469-0.083-0.586-0.249c-0.117-0.166-0.176-0.542-0.176-1.128V43.084
		c0-0.586,0.059-0.962,0.176-1.128c0.117-0.166,0.313-0.249,0.586-0.249h4.248c0.273,0,0.469,0.083,0.586,0.249
		c0.117,0.166,0.176,0.542,0.176,1.128V58.67c0,0.176,0.034,0.333,0.104,0.469c0.068,0.137,0.131,0.205,0.189,0.205h8.789
		c0.059,0,0.127-0.073,0.205-0.22s0.117-0.308,0.117-0.483V43.084c0-0.566,0.063-0.938,0.191-1.113
		c0.127-0.176,0.316-0.264,0.57-0.264h4.307c0.254,0,0.439,0.083,0.557,0.249c0.117,0.166,0.176,0.542,0.176,1.128v39.375
		c0,0.586-0.059,0.962-0.176,1.128c-0.117,0.166-0.303,0.249-0.557,0.249h-4.307c-0.176,0-0.313-0.024-0.41-0.073
		c-0.098-0.048-0.186-0.18-0.264-0.396c-0.078-0.215-0.117-0.517-0.117-0.908v-17.9c0-0.41-0.107-0.615-0.322-0.615h-8.701
		c-0.195,0-0.293,0.205-0.293,0.615v17.9c0,0.567-0.063,0.938-0.189,1.113c-0.128,0.176-0.318,0.264-0.572,0.264H262.641z"/>
	<path fill="#FFFFFF" d="M288.217,83.836c-0.293,0-0.439-0.283-0.439-0.85v-0.498c0-0.253,0.01-0.42,0.029-0.498l6.592-38.818
		c0.156-0.938,0.518-1.425,1.084-1.465h5.947c0.547,0.04,0.898,0.527,1.055,1.465l6.475,38.818c0,0.059,0.016,0.166,0.045,0.322
		c0.029,0.157,0.048,0.293,0.059,0.41c0.01,0.117,0.014,0.215,0.014,0.293c0,0.547-0.166,0.82-0.498,0.82h-4.834
		c-0.469,0-0.771-0.4-0.908-1.201l-1.084-7.471c-0.059-0.429-0.166-0.645-0.322-0.645h-7.09c-0.137,0-0.244,0.225-0.322,0.674
		l-1.23,7.412c-0.078,0.488-0.176,0.816-0.293,0.981c-0.117,0.166-0.293,0.249-0.527,0.249H288.217z M295.189,70.858h5.977
		c0.137,0,0.205-0.176,0.205-0.527c0-0.117-0.02-0.205-0.059-0.264l-2.9-22.588c-0.02-0.136-0.049-0.205-0.088-0.205
		c-0.059,0-0.098,0.059-0.117,0.176l-3.428,22.588c-0.02,0.137-0.029,0.225-0.029,0.264
		C294.75,70.672,294.896,70.858,295.189,70.858z"/>
	<path fill="#FFFFFF" d="M314.438,83.836c-0.254,0-0.439-0.083-0.557-0.249c-0.117-0.166-0.176-0.542-0.176-1.128V43.084
		c0-0.586,0.059-0.962,0.176-1.128c0.117-0.166,0.303-0.249,0.557-0.249h4.307c0.254,0,0.439,0.083,0.557,0.249
		c0.117,0.166,0.176,0.542,0.176,1.128v35.449c0,0.43,0.137,0.645,0.41,0.645h7.617c0.254,0,0.439,0.069,0.557,0.205
		c0.117,0.137,0.176,0.45,0.176,0.938v2.344c0,0.488-0.059,0.806-0.176,0.952s-0.303,0.22-0.557,0.22H314.438z"/>
	<path fill="#FFFFFF" d="M335.766,83.836c-0.234,0-0.414-0.092-0.541-0.278c-0.128-0.186-0.191-0.561-0.191-1.128V47.156
		c0-0.488-0.107-0.732-0.322-0.732h-5.098c-0.195,0-0.336-0.015-0.424-0.044s-0.166-0.127-0.234-0.293
		c-0.069-0.166-0.104-0.425-0.104-0.776v-2.314c0-0.527,0.059-0.874,0.176-1.04c0.117-0.166,0.313-0.249,0.586-0.249h16.553
		c0.254,0,0.439,0.083,0.557,0.249c0.117,0.166,0.176,0.513,0.176,1.04v2.314c0,0.488-0.054,0.796-0.16,0.923
		c-0.107,0.127-0.299,0.19-0.572,0.19h-5.01c-0.215,0-0.322,0.245-0.322,0.732V82.43c0,0.586-0.063,0.967-0.189,1.143
		c-0.128,0.176-0.318,0.264-0.572,0.264H335.766z"/>
	<path fill="#FFFFFF" d="M351.762,83.836c-0.176,0-0.313-0.024-0.41-0.073c-0.098-0.048-0.18-0.18-0.248-0.396
		C351.034,83.153,351,82.85,351,82.459V43.084c0-0.566,0.063-0.938,0.191-1.113c0.127-0.176,0.316-0.264,0.57-0.264h4.307
		c0.156,0,0.283,0.025,0.381,0.073c0.098,0.049,0.181,0.181,0.25,0.396c0.068,0.215,0.102,0.518,0.102,0.908v39.375
		c0,0.567-0.059,0.938-0.176,1.113s-0.303,0.264-0.557,0.264H351.762z"/>
	<path fill="#FFFFFF" d="M383.373,84.305c-0.742,0-1.23-0.615-1.465-1.846c0-0.019-0.137-0.786-0.41-2.3
		c-0.273-1.513-0.41-2.377-0.41-2.593c0-0.195-0.029-0.293-0.088-0.293s-0.117,0.088-0.176,0.264
		c-0.332,2.188-1.05,3.857-2.152,5.01c-1.104,1.153-2.564,1.729-4.381,1.729c-0.879,0-1.68-0.059-2.402-0.176
		s-1.489-0.366-2.299-0.747c-0.811-0.381-1.529-0.883-2.154-1.509c-0.625-0.625-1.234-1.484-1.83-2.578
		c-0.597-1.094-1.084-2.377-1.465-3.853c-0.381-1.475-0.689-3.286-0.924-5.435c-0.234-2.148-0.352-4.56-0.352-7.236
		c0-2.773,0.143-5.254,0.426-7.441c0.282-2.187,0.654-4.023,1.113-5.508c0.458-1.484,1.049-2.764,1.771-3.838
		c0.723-1.074,1.451-1.909,2.184-2.505c0.732-0.596,1.605-1.064,2.621-1.406c1.016-0.341,1.943-0.561,2.783-0.659
		c0.84-0.098,1.816-0.146,2.93-0.146c0.82,0,1.715,0.107,2.682,0.322c0.967,0.215,1.732,0.45,2.299,0.703
		c0.02,0.02,0.063,0.049,0.133,0.088c0.068,0.04,0.121,0.093,0.16,0.161c0.039,0.069,0.059,0.171,0.059,0.308v3.604
		c0,0.274-0.078,0.41-0.234,0.41c-0.02,0-0.131-0.029-0.336-0.088s-0.479-0.132-0.82-0.22c-0.342-0.088-0.714-0.171-1.113-0.249
		c-0.4-0.078-0.826-0.146-1.275-0.205s-0.859-0.088-1.23-0.088c-1.035,0-1.924,0.103-2.666,0.308s-1.494,0.645-2.256,1.318
		s-1.377,1.607-1.846,2.798c-0.469,1.191-0.85,2.823-1.143,4.893c-0.293,2.07-0.439,4.551-0.439,7.441
		c0,2.735,0.107,5.112,0.322,7.134s0.498,3.647,0.85,4.878s0.807,2.217,1.363,2.959c0.557,0.743,1.123,1.245,1.699,1.509
		c0.575,0.264,1.244,0.396,2.006,0.396c0.898,0,1.646-0.264,2.242-0.791c0.596-0.527,1.044-1.337,1.348-2.432
		c0.303-1.094,0.508-2.295,0.615-3.604c0.106-1.308,0.16-2.939,0.16-4.893c0-0.879-0.088-1.318-0.264-1.318h-3.311
		c-0.176,0-0.317-0.024-0.424-0.073c-0.107-0.048-0.205-0.171-0.293-0.366c-0.088-0.195-0.133-0.469-0.133-0.82v-2.402
		c0-0.527,0.074-0.874,0.221-1.04c0.146-0.166,0.346-0.249,0.6-0.249h7.881c0.508,0,0.762,0.605,0.762,1.816v18.896
		c0,0.586-0.098,1.06-0.293,1.421S383.607,84.305,383.373,84.305z"/>
	<path fill="#FFFFFF" d="M390.727,83.836c-0.254,0-0.439-0.073-0.557-0.22s-0.176-0.483-0.176-1.011V42.938
		c0-0.508,0.059-0.839,0.176-0.996c0.117-0.156,0.303-0.234,0.557-0.234h15.41c0.156,0,0.283,0.02,0.381,0.059
		c0.098,0.04,0.181,0.146,0.25,0.322c0.068,0.176,0.102,0.439,0.102,0.791v2.314c0,0.488-0.059,0.806-0.176,0.952
		s-0.303,0.22-0.557,0.22h-10.02c-0.234,0-0.352,0.322-0.352,0.967v11.836c0,0.176,0.034,0.352,0.104,0.527
		c0.068,0.176,0.131,0.264,0.189,0.264h8.057c0.488,0,0.732,0.45,0.732,1.348v2.256c0,0.898-0.244,1.348-0.732,1.348h-8.027
		c-0.078,0-0.15,0.098-0.219,0.293c-0.069,0.195-0.104,0.391-0.104,0.586v13.389h10.459c0.176,0,0.313,0.02,0.41,0.059
		c0.098,0.04,0.181,0.146,0.25,0.322c0.068,0.176,0.102,0.439,0.102,0.791v2.314c0,0.488-0.063,0.806-0.189,0.952
		c-0.128,0.146-0.318,0.22-0.572,0.22H390.727z"/>
	<path fill="#FFFFFF" d="M411.352,89.842c-0.176,0-0.264-0.254-0.264-0.762c0-0.02,0.005-0.059,0.016-0.117
		c0.01-0.059,0.014-0.107,0.014-0.146l6.855-52.207c0.098-0.684,0.273-1.025,0.527-1.025h4.014c0.195,0,0.293,0.245,0.293,0.732
		c0,0.137-0.01,0.234-0.029,0.293l-6.885,52.236c-0.098,0.684-0.254,1.025-0.469,1.025L411.352,89.842z"/>
	<path fill="#FFFFFF" d="M429.281,83.836c-0.254,0-0.439-0.083-0.557-0.249c-0.117-0.166-0.176-0.522-0.176-1.069V43.055
		c0-0.586,0.059-0.957,0.176-1.113c0.117-0.156,0.303-0.234,0.557-0.234h9.844c1.23,0,2.281,0.069,3.15,0.205
		c0.868,0.137,1.762,0.43,2.68,0.879c0.918,0.45,1.656,1.074,2.213,1.875c0.557,0.801,1.015,1.895,1.377,3.281
		c0.361,1.387,0.541,3.057,0.541,5.01c0,1.465-0.107,2.739-0.322,3.823s-0.537,1.963-0.967,2.637s-0.893,1.206-1.391,1.597
		c-0.498,0.391-1.1,0.723-1.803,0.996c-0.059,0.059-0.088,0.117-0.088,0.176s0.029,0.107,0.088,0.146
		c0.703,0.333,1.275,0.674,1.715,1.025s0.883,0.864,1.332,1.538s0.791,1.587,1.025,2.739c0.234,1.153,0.381,2.568,0.439,4.248
		c0.078,1.523,0.117,5.02,0.117,10.488c0,0.977-0.176,1.465-0.527,1.465c-3.027,0.019-4.58,0.029-4.658,0.029
		c-0.313,0-0.479-0.439-0.498-1.318c0-0.136-0.059-2.324-0.176-6.563c-0.117-4.238-0.244-6.68-0.381-7.324
		c-0.059-0.801-0.219-1.469-0.482-2.007c-0.264-0.537-0.605-0.927-1.025-1.172c-0.421-0.244-0.836-0.41-1.246-0.498
		s-0.879-0.132-1.406-0.132h-4.189c-0.215,0-0.322,0.215-0.322,0.645v17.021c0,0.547-0.059,0.904-0.176,1.069
		c-0.117,0.166-0.303,0.249-0.557,0.249H429.281z M434.613,60.281h3.779c3.262,0,4.893-2.373,4.893-7.119
		c0-2.52-0.443-4.282-1.332-5.288c-0.89-1.006-2.379-1.509-4.469-1.509h-2.842c-0.215,0-0.322,0.195-0.322,0.586V59.49
		C434.32,60.018,434.418,60.281,434.613,60.281z"/>
	<path fill="#FFFFFF" d="M161.684,143.836c-0.488,0-0.732-0.527-0.732-1.582v-38.965c0-1.055,0.244-1.582,0.732-1.582h4.277
		c0.508,0,0.762,0.527,0.762,1.582v19.307l7.178-19.395c0.352-0.996,0.771-1.494,1.26-1.494h4.336c0.41,0,0.615,0.225,0.615,0.674
		c0,0.274-0.059,0.557-0.176,0.85l-7.09,18.047c-0.137,0.469-0.205,0.831-0.205,1.084c0,0.254,0.039,0.527,0.117,0.82l7.559,19.043
		c0.136,0.352,0.205,0.664,0.205,0.938c0,0.45-0.127,0.674-0.381,0.674h-4.277c-0.527,0-0.986-0.508-1.377-1.523l-7.734-18.34v18.34
		c0,1.016-0.264,1.523-0.791,1.523H161.684z"/>
	<path fill="#FFFFFF" d="M194.584,144.276c-1.622,0-2.993-0.176-4.116-0.527c-1.124-0.352-2.144-0.991-3.062-1.919
		c-0.918-0.927-1.641-2.212-2.168-3.853s-0.933-3.716-1.216-6.226c-0.283-2.509-0.425-5.571-0.425-9.185
		c0-2.89,0.092-5.43,0.278-7.617c0.186-2.187,0.488-4.072,0.908-5.654c0.42-1.582,0.913-2.89,1.479-3.926
		c0.566-1.035,1.279-1.86,2.139-2.476c0.859-0.615,1.777-1.044,2.754-1.289c0.977-0.244,2.119-0.366,3.428-0.366
		c1.582,0,2.934,0.181,4.058,0.542c1.123,0.362,2.143,1.001,3.062,1.919c0.918,0.918,1.65,2.183,2.197,3.794
		c0.546,1.611,0.962,3.652,1.245,6.123c0.283,2.471,0.425,5.454,0.425,8.95c0,3.633-0.137,6.709-0.41,9.229
		c-0.274,2.52-0.674,4.6-1.201,6.24s-1.25,2.915-2.168,3.823c-0.918,0.908-1.938,1.538-3.062,1.89
		C197.606,144.1,196.225,144.276,194.584,144.276z M194.555,139.647c1.367,0,2.412-0.464,3.135-1.392
		c0.722-0.927,1.25-2.607,1.582-5.039c0.332-2.432,0.498-5.981,0.498-10.649c0-4.512-0.157-7.929-0.469-10.254
		c-0.313-2.324-0.825-3.959-1.538-4.907c-0.713-0.947-1.772-1.421-3.179-1.421c-1.367,0-2.417,0.483-3.149,1.45
		s-1.255,2.622-1.567,4.966c-0.313,2.344-0.469,5.732-0.469,10.166c0,4.629,0.166,8.159,0.498,10.591
		c0.332,2.432,0.854,4.121,1.567,5.068C192.177,139.174,193.208,139.647,194.555,139.647z"/>
	<path fill="#FFFFFF" d="M212.28,143.836c-0.254,0-0.444-0.098-0.571-0.293c-0.127-0.195-0.19-0.586-0.19-1.172V103.26
		c0-1.035,0.253-1.553,0.762-1.553h4.453c0.41,0,0.762,0.381,1.055,1.143l9.932,26.689c0.039,0.137,0.098,0.098,0.176-0.117
		l0.029-0.264V103.26c0-1.035,0.264-1.553,0.791-1.553h3.486c0.488,0,0.732,0.518,0.732,1.553v39.229
		c0,0.586-0.059,0.962-0.176,1.128c-0.117,0.166-0.303,0.249-0.557,0.249h-3.164c-0.195,0-0.406-0.117-0.63-0.352
		c-0.225-0.234-0.406-0.527-0.542-0.879l-11.045-28.828c-0.078-0.156-0.137-0.107-0.176,0.146c-0.02,0.059-0.029,0.127-0.029,0.205
		v28.213c0,0.586-0.063,0.977-0.19,1.172c-0.127,0.195-0.327,0.293-0.601,0.293H212.28z"/>
	<path fill="#FFFFFF" d="M248.227,101.239c3.671,0,6.533,1.338,8.583,4.014c0.195,0.254,0.293,0.557,0.293,0.908
		c0,0.684-0.288,1.406-0.863,2.168c-0.576,0.762-1.061,1.143-1.451,1.143c-0.117,0-0.205-0.039-0.264-0.117
		c-1.738-2.109-3.809-3.164-6.21-3.164c-1.348,0-2.432,0.571-3.252,1.714s-1.23,2.534-1.23,4.175c0,1.543,0.352,2.803,1.055,3.779
		c0.703,0.977,1.709,1.885,3.018,2.725l3.72,2.402c3.926,2.539,5.889,6.25,5.889,11.133c0,3.574-0.908,6.494-2.725,8.76
		c-1.816,2.266-4.258,3.398-7.324,3.398c-4.141,0-7.402-1.787-9.785-5.361c-0.117-0.176-0.176-0.4-0.176-0.674
		c0-0.684,0.278-1.431,0.835-2.241c0.557-0.81,1.088-1.216,1.597-1.216c0.195,0,0.371,0.088,0.527,0.264
		c2.187,2.793,4.521,4.189,7.002,4.189c1.523,0,2.714-0.59,3.574-1.772c0.859-1.182,1.289-2.681,1.289-4.497
		c0-1.641-0.342-2.974-1.025-3.999s-1.728-1.997-3.134-2.915l-3.75-2.52c-0.82-0.546-1.534-1.113-2.139-1.699
		c-0.605-0.586-1.187-1.293-1.743-2.124c-0.557-0.83-0.986-1.806-1.289-2.93c-0.303-1.123-0.454-2.358-0.454-3.706
		c0-3.516,0.854-6.367,2.563-8.555C243.066,102.333,245.356,101.239,248.227,101.239z"/>
	<path fill="#FFFFFF" d="M273.1,144.276c-1.055,0-1.963-0.044-2.725-0.132s-1.553-0.274-2.373-0.557s-1.514-0.678-2.08-1.187
		c-0.566-0.508-1.117-1.196-1.654-2.065c-0.538-0.869-0.963-1.919-1.275-3.149s-0.561-2.714-0.746-4.453
		c-0.187-1.738-0.279-3.73-0.279-5.977v-23.672c0-0.566,0.063-0.938,0.191-1.113c0.127-0.176,0.316-0.264,0.57-0.264h4.307
		c0.156,0,0.283,0.025,0.381,0.073c0.098,0.049,0.181,0.181,0.25,0.396c0.068,0.215,0.102,0.518,0.102,0.908v23.496
		c0,2.305,0.068,4.238,0.205,5.801c0.137,1.563,0.332,2.823,0.586,3.779c0.254,0.957,0.611,1.685,1.07,2.183
		c0.458,0.498,0.941,0.831,1.449,0.996c0.508,0.166,1.172,0.249,1.992,0.249c1.035,0,1.836-0.117,2.402-0.352
		s1.084-0.791,1.553-1.67s0.787-2.187,0.953-3.926c0.165-1.738,0.248-4.091,0.248-7.061v-23.496c0-0.586,0.059-0.962,0.176-1.128
		c0.117-0.166,0.303-0.249,0.557-0.249h4.336c0.156,0,0.279,0.025,0.367,0.073c0.088,0.049,0.165,0.181,0.234,0.396
		c0.068,0.215,0.102,0.518,0.102,0.908v23.672c0,2.266-0.092,4.282-0.277,6.05c-0.187,1.768-0.436,3.262-0.748,4.482
		c-0.313,1.221-0.736,2.261-1.273,3.12c-0.538,0.86-1.084,1.538-1.641,2.036s-1.241,0.889-2.051,1.172
		c-0.811,0.283-1.578,0.464-2.301,0.542C274.984,144.236,274.115,144.276,273.1,144.276z"/>
	<path fill="#FFFFFF" d="M290.502,143.836c-0.469,0-0.703-0.479-0.703-1.436v-0.146l1.318-38.877c0.02-1.074,0.264-1.63,0.732-1.67
		h4.629c0.293,0.02,0.537,0.117,0.732,0.293s0.342,0.538,0.439,1.084l4.951,27.715c0.02,0.078,0.055,0.137,0.104,0.176
		c0.048,0.04,0.098,0.04,0.146,0c0.048-0.039,0.072-0.098,0.072-0.176l4.98-27.627c0.176-0.938,0.557-1.425,1.143-1.465h4.688
		c0.469,0.04,0.703,0.596,0.703,1.67l1.377,38.877v0.176c0,0.938-0.244,1.406-0.732,1.406h-3.223c-0.469,0-0.723-0.527-0.762-1.582
		l-0.908-30.088c0-0.117-0.029-0.186-0.088-0.205c-0.059-0.019-0.098,0.01-0.117,0.088l-5.332,30.381
		c-0.156,0.938-0.488,1.406-0.996,1.406h-1.904c-0.469,0-0.801-0.469-0.996-1.406l-5.186-30.234
		c-0.02-0.117-0.059-0.136-0.117-0.059c-0.02,0.04-0.029,0.098-0.029,0.176l-0.938,29.941c0,1.055-0.225,1.582-0.674,1.582H290.502z
		"/>
	<path fill="#FFFFFF" d="M340.395,144.276c-1.055,0-1.963-0.044-2.725-0.132s-1.553-0.274-2.373-0.557s-1.514-0.678-2.08-1.187
		c-0.566-0.508-1.117-1.196-1.654-2.065c-0.538-0.869-0.963-1.919-1.275-3.149s-0.561-2.714-0.746-4.453
		c-0.187-1.738-0.279-3.73-0.279-5.977v-23.672c0-0.566,0.063-0.938,0.191-1.113c0.127-0.176,0.316-0.264,0.57-0.264h4.307
		c0.156,0,0.283,0.025,0.381,0.073c0.098,0.049,0.181,0.181,0.25,0.396c0.068,0.215,0.102,0.518,0.102,0.908v23.496
		c0,2.305,0.068,4.238,0.205,5.801c0.137,1.563,0.332,2.823,0.586,3.779c0.254,0.957,0.611,1.685,1.07,2.183
		c0.458,0.498,0.941,0.831,1.449,0.996c0.508,0.166,1.172,0.249,1.992,0.249c1.035,0,1.836-0.117,2.402-0.352
		s1.084-0.791,1.553-1.67s0.787-2.187,0.953-3.926c0.165-1.738,0.248-4.091,0.248-7.061v-23.496c0-0.586,0.059-0.962,0.176-1.128
		c0.117-0.166,0.303-0.249,0.557-0.249h4.336c0.156,0,0.279,0.025,0.367,0.073c0.088,0.049,0.165,0.181,0.234,0.396
		c0.068,0.215,0.102,0.518,0.102,0.908v23.672c0,2.266-0.092,4.282-0.277,6.05c-0.187,1.768-0.436,3.262-0.748,4.482
		c-0.313,1.221-0.736,2.261-1.273,3.12c-0.538,0.86-1.084,1.538-1.641,2.036s-1.241,0.889-2.051,1.172
		c-0.811,0.283-1.578,0.464-2.301,0.542C342.279,144.236,341.41,144.276,340.395,144.276z"/>
	<path fill="#FFFFFF" d="M358.412,143.836c-0.254,0-0.443-0.098-0.57-0.293c-0.128-0.195-0.191-0.586-0.191-1.172V103.26
		c0-1.035,0.254-1.553,0.762-1.553h4.453c0.41,0,0.762,0.381,1.055,1.143l9.932,26.689c0.039,0.137,0.098,0.098,0.176-0.117
		l0.029-0.264V103.26c0-1.035,0.264-1.553,0.791-1.553h3.486c0.488,0,0.732,0.518,0.732,1.553v39.229
		c0,0.586-0.059,0.962-0.176,1.128c-0.117,0.166-0.303,0.249-0.557,0.249h-3.164c-0.195,0-0.405-0.117-0.629-0.352
		c-0.225-0.234-0.406-0.527-0.543-0.879l-11.045-28.828c-0.078-0.156-0.137-0.107-0.176,0.146c-0.02,0.059-0.029,0.127-0.029,0.205
		v28.213c0,0.586-0.063,0.977-0.189,1.172c-0.128,0.195-0.328,0.293-0.602,0.293H358.412z"/>
	<path fill="#FFFFFF" d="M386.566,143.836c-0.254,0-0.439-0.078-0.557-0.234c-0.117-0.156-0.176-0.508-0.176-1.055v-39.668
		c0-0.488,0.059-0.806,0.176-0.952s0.303-0.22,0.557-0.22h10.078c1.719,0,3.209,0.342,4.469,1.025
		c1.26,0.684,2.367,1.807,3.324,3.369c0.957,1.563,1.675,3.706,2.154,6.431c0.479,2.725,0.717,6.04,0.717,9.946
		c0,2.773-0.088,5.22-0.264,7.339c-0.176,2.12-0.405,3.936-0.688,5.449c-0.283,1.514-0.689,2.793-1.217,3.838
		c-0.527,1.045-1.074,1.875-1.641,2.49s-1.279,1.089-2.139,1.421c-0.859,0.333-1.694,0.552-2.504,0.659
		c-0.811,0.107-1.813,0.161-3.004,0.161H386.566z M391.986,139.178h3.604c1.504,0,2.666-0.449,3.486-1.348
		c0.82-0.898,1.432-2.544,1.832-4.937c0.399-2.392,0.6-5.834,0.6-10.327c0-4.16-0.229-7.451-0.688-9.873
		c-0.459-2.421-1.09-4.082-1.891-4.98c-0.801-0.898-1.846-1.348-3.135-1.348h-3.838c-0.234,0-0.352,0.215-0.352,0.645v31.523
		C391.605,138.963,391.732,139.178,391.986,139.178z"/>
	<path fill="#FFFFFF" d="M161.684,203.836c-0.488,0-0.732-0.508-0.732-1.523v-39.229c0-0.566,0.059-0.938,0.176-1.113
		s0.303-0.264,0.557-0.264h8.613c0.898,0,1.674,0.029,2.329,0.088c0.654,0.059,1.387,0.195,2.197,0.41
		c0.81,0.215,1.499,0.513,2.065,0.894c0.566,0.381,1.138,0.918,1.714,1.611c0.576,0.693,1.04,1.519,1.392,2.476
		s0.64,2.144,0.864,3.56c0.224,1.416,0.337,3.022,0.337,4.819c0,2.344-0.19,4.365-0.571,6.064s-0.864,3.027-1.45,3.984
		s-1.343,1.714-2.271,2.271c-0.928,0.557-1.821,0.913-2.681,1.069c-0.86,0.156-1.865,0.234-3.018,0.234h-4.16
		c-0.215,0-0.322,0.176-0.322,0.527v12.598c0,1.016-0.245,1.523-0.732,1.523H161.684z M167.016,184.5h3.516
		c0.801,0,1.455-0.063,1.963-0.19c0.508-0.127,0.967-0.366,1.377-0.718s0.718-0.869,0.923-1.553s0.361-1.538,0.469-2.563
		c0.107-1.025,0.161-2.319,0.161-3.882c0-1.68-0.093-3.101-0.278-4.263c-0.186-1.162-0.415-2.065-0.688-2.71
		c-0.274-0.645-0.669-1.138-1.187-1.479c-0.518-0.342-1.011-0.557-1.479-0.645s-1.074-0.132-1.816-0.132h-2.959
		c-0.195,0-0.293,0.195-0.293,0.586v17.021C166.723,184.324,166.821,184.5,167.016,184.5z"/>
	<path fill="#FFFFFF" d="M187.055,203.836c-0.254,0-0.439-0.083-0.557-0.249s-0.176-0.522-0.176-1.069v-39.463
		c0-0.586,0.059-0.957,0.176-1.113s0.303-0.234,0.557-0.234h9.844c1.23,0,2.28,0.068,3.149,0.205
		c0.869,0.137,1.762,0.43,2.681,0.879c0.918,0.449,1.655,1.074,2.212,1.875s1.015,1.895,1.377,3.281
		c0.361,1.387,0.542,3.057,0.542,5.01c0,1.465-0.107,2.739-0.322,3.823c-0.215,1.084-0.538,1.963-0.967,2.637
		c-0.43,0.674-0.894,1.206-1.392,1.597s-1.099,0.723-1.802,0.996c-0.059,0.059-0.088,0.117-0.088,0.176s0.029,0.107,0.088,0.146
		c0.703,0.332,1.274,0.674,1.714,1.025s0.883,0.864,1.333,1.538c0.449,0.674,0.791,1.587,1.025,2.739s0.381,2.568,0.439,4.248
		c0.078,1.523,0.117,5.02,0.117,10.488c0,0.977-0.176,1.465-0.527,1.465c-3.028,0.02-4.581,0.029-4.658,0.029
		c-0.313,0-0.479-0.439-0.498-1.318c0-0.137-0.059-2.324-0.176-6.563s-0.245-6.68-0.381-7.324c-0.059-0.801-0.22-1.47-0.483-2.007
		s-0.605-0.928-1.025-1.172c-0.42-0.244-0.835-0.41-1.245-0.498s-0.879-0.132-1.406-0.132h-4.189c-0.215,0-0.322,0.215-0.322,0.645
		v17.021c0,0.547-0.059,0.903-0.176,1.069s-0.303,0.249-0.557,0.249H187.055z M192.387,180.281h3.779
		c3.262,0,4.893-2.373,4.893-7.119c0-2.52-0.444-4.282-1.333-5.288c-0.889-1.006-2.378-1.509-4.468-1.509h-2.842
		c-0.215,0-0.322,0.195-0.322,0.586v12.539C192.094,180.018,192.192,180.281,192.387,180.281z"/>
	<path fill="#FFFFFF" d="M223.53,204.276c-1.622,0-2.993-0.176-4.116-0.527c-1.124-0.352-2.144-0.991-3.062-1.919
		c-0.918-0.928-1.641-2.212-2.168-3.853s-0.933-3.716-1.216-6.226c-0.283-2.51-0.425-5.571-0.425-9.185
		c0-2.891,0.092-5.43,0.278-7.617c0.186-2.188,0.488-4.072,0.908-5.654c0.42-1.582,0.913-2.891,1.479-3.926
		c0.566-1.035,1.279-1.86,2.139-2.476c0.859-0.615,1.777-1.045,2.754-1.289c0.977-0.244,2.119-0.366,3.428-0.366
		c1.582,0,2.934,0.181,4.058,0.542c1.123,0.361,2.143,1.001,3.062,1.919c0.918,0.918,1.65,2.183,2.197,3.794
		c0.546,1.611,0.962,3.652,1.245,6.123c0.283,2.471,0.425,5.454,0.425,8.95c0,3.633-0.137,6.709-0.41,9.229
		c-0.274,2.52-0.674,4.6-1.201,6.24s-1.25,2.915-2.168,3.823c-0.918,0.908-1.938,1.538-3.062,1.89
		C226.552,204.1,225.17,204.276,223.53,204.276z M223.5,199.647c1.367,0,2.412-0.464,3.135-1.392
		c0.722-0.928,1.25-2.607,1.582-5.039c0.332-2.432,0.498-5.981,0.498-10.649c0-4.512-0.157-7.93-0.469-10.254
		c-0.313-2.324-0.825-3.96-1.538-4.907c-0.713-0.947-1.772-1.421-3.179-1.421c-1.367,0-2.417,0.483-3.149,1.45
		s-1.255,2.622-1.567,4.966c-0.313,2.344-0.469,5.732-0.469,10.166c0,4.629,0.166,8.159,0.498,10.591
		c0.332,2.432,0.854,4.121,1.567,5.068C221.123,199.173,222.153,199.647,223.5,199.647z"/>
	<path fill="#FFFFFF" d="M241.196,203.836c-0.254,0-0.439-0.078-0.557-0.234s-0.176-0.508-0.176-1.055v-39.668
		c0-0.488,0.059-0.806,0.176-0.952s0.303-0.22,0.557-0.22h10.078c1.719,0,3.209,0.342,4.469,1.025s2.367,1.807,3.324,3.369
		s1.675,3.706,2.154,6.431c0.479,2.725,0.717,6.04,0.717,9.946c0,2.773-0.088,5.22-0.264,7.339s-0.405,3.936-0.688,5.449
		c-0.283,1.514-0.689,2.793-1.217,3.838s-1.074,1.875-1.641,2.49s-1.279,1.089-2.139,1.421s-1.694,0.552-2.504,0.659
		c-0.811,0.107-1.813,0.161-3.003,0.161H241.196z M246.616,199.178h3.604c1.503,0,2.666-0.449,3.486-1.348s1.432-2.544,1.832-4.937
		c0.399-2.393,0.6-5.835,0.6-10.327c0-4.16-0.229-7.451-0.688-9.873c-0.459-2.422-1.09-4.082-1.891-4.98s-1.846-1.348-3.134-1.348
		h-3.838c-0.234,0-0.352,0.215-0.352,0.645v31.523C246.235,198.963,246.362,199.178,246.616,199.178z"/>
	<path fill="#FFFFFF" d="M278.52,204.276c-1.055,0-1.963-0.044-2.725-0.132s-1.553-0.273-2.373-0.557s-1.514-0.679-2.08-1.187
		s-1.117-1.196-1.654-2.065c-0.538-0.869-0.963-1.919-1.275-3.149s-0.561-2.715-0.746-4.453c-0.187-1.738-0.279-3.73-0.279-5.977
		v-23.672c0-0.566,0.063-0.938,0.191-1.113c0.127-0.176,0.316-0.264,0.57-0.264h4.307c0.156,0,0.283,0.024,0.381,0.073
		s0.181,0.181,0.25,0.396c0.068,0.215,0.102,0.518,0.102,0.908v23.496c0,2.305,0.068,4.238,0.205,5.801s0.332,2.822,0.586,3.779
		s0.611,1.685,1.07,2.183c0.458,0.498,0.941,0.83,1.449,0.996s1.172,0.249,1.992,0.249c1.035,0,1.836-0.117,2.402-0.352
		s1.084-0.791,1.553-1.67s0.787-2.188,0.953-3.926c0.165-1.738,0.248-4.092,0.248-7.061v-23.496c0-0.586,0.059-0.962,0.176-1.128
		s0.303-0.249,0.557-0.249h4.336c0.156,0,0.279,0.024,0.367,0.073s0.165,0.181,0.234,0.396c0.068,0.215,0.102,0.518,0.102,0.908
		v23.672c0,2.266-0.092,4.282-0.277,6.05c-0.187,1.768-0.436,3.262-0.748,4.482s-0.736,2.261-1.273,3.12
		c-0.538,0.859-1.084,1.538-1.641,2.036s-1.241,0.889-2.051,1.172c-0.811,0.283-1.578,0.464-2.301,0.542
		S279.535,204.276,278.52,204.276z"/>
	<path fill="#FFFFFF" d="M296.508,203.836c-0.488,0-0.732-0.527-0.732-1.582v-38.965c0-1.055,0.244-1.582,0.732-1.582h4.277
		c0.508,0,0.762,0.527,0.762,1.582v19.307l7.178-19.395c0.352-0.996,0.771-1.494,1.26-1.494h4.336c0.41,0,0.615,0.225,0.615,0.674
		c0,0.273-0.059,0.557-0.176,0.85l-7.09,18.047c-0.137,0.469-0.205,0.83-0.205,1.084s0.039,0.527,0.117,0.82l7.559,19.043
		c0.137,0.352,0.205,0.664,0.205,0.938c0,0.449-0.127,0.674-0.381,0.674h-4.277c-0.527,0-0.986-0.508-1.377-1.523l-7.734-18.34
		v18.34c0,1.016-0.264,1.523-0.791,1.523H296.508z"/>
	<path fill="#FFFFFF" d="M323.842,203.836c-0.234,0-0.414-0.093-0.541-0.278c-0.128-0.186-0.191-0.562-0.191-1.128v-35.273
		c0-0.488-0.107-0.732-0.322-0.732h-5.098c-0.195,0-0.336-0.015-0.424-0.044s-0.166-0.127-0.234-0.293
		c-0.069-0.166-0.104-0.425-0.104-0.776v-2.314c0-0.527,0.059-0.874,0.176-1.04s0.313-0.249,0.586-0.249h16.553
		c0.254,0,0.439,0.083,0.557,0.249s0.176,0.513,0.176,1.04v2.314c0,0.488-0.054,0.796-0.16,0.923
		c-0.107,0.127-0.299,0.19-0.572,0.19h-5.01c-0.215,0-0.322,0.244-0.322,0.732v35.273c0,0.586-0.063,0.967-0.189,1.143
		c-0.128,0.176-0.318,0.264-0.572,0.264H323.842z"/>
	<path fill="#FFFFFF" d="M339.838,203.836c-0.176,0-0.313-0.024-0.41-0.073s-0.18-0.181-0.248-0.396
		c-0.069-0.215-0.104-0.518-0.104-0.908v-39.375c0-0.566,0.063-0.938,0.191-1.113c0.127-0.176,0.316-0.264,0.57-0.264h4.307
		c0.156,0,0.283,0.024,0.381,0.073s0.181,0.181,0.25,0.396c0.068,0.215,0.102,0.518,0.102,0.908v39.375
		c0,0.566-0.059,0.938-0.176,1.113s-0.303,0.264-0.557,0.264H339.838z"/>
	<path fill="#FFFFFF" d="M361.781,204.276c-1.621,0-2.992-0.176-4.115-0.527c-1.124-0.352-2.145-0.991-3.063-1.919
		s-1.641-2.212-2.168-3.853s-0.933-3.716-1.215-6.226c-0.283-2.51-0.426-5.571-0.426-9.185c0-2.891,0.093-5.43,0.279-7.617
		c0.186-2.188,0.487-4.072,0.908-5.654c0.42-1.582,0.912-2.891,1.479-3.926s1.279-1.86,2.139-2.476s1.777-1.045,2.754-1.289
		s2.119-0.366,3.428-0.366c1.582,0,2.935,0.181,4.059,0.542c1.123,0.361,2.143,1.001,3.061,1.919s1.65,2.183,2.197,3.794
		s0.963,3.652,1.246,6.123c0.282,2.471,0.424,5.454,0.424,8.95c0,3.633-0.137,6.709-0.41,9.229s-0.674,4.6-1.201,6.24
		s-1.25,2.915-2.168,3.823s-1.938,1.538-3.061,1.89C364.804,204.1,363.422,204.276,361.781,204.276z M361.752,199.647
		c1.367,0,2.412-0.464,3.135-1.392s1.25-2.607,1.582-5.039s0.498-5.981,0.498-10.649c0-4.512-0.156-7.93-0.469-10.254
		s-0.824-3.96-1.537-4.907c-0.714-0.947-1.773-1.421-3.18-1.421c-1.367,0-2.416,0.483-3.148,1.45s-1.256,2.622-1.568,4.966
		s-0.469,5.732-0.469,10.166c0,4.629,0.166,8.159,0.498,10.591s0.854,4.121,1.568,5.068
		C359.375,199.173,360.404,199.647,361.752,199.647z"/>
	<path fill="#FFFFFF" d="M379.477,203.836c-0.254,0-0.443-0.098-0.57-0.293c-0.128-0.195-0.191-0.586-0.191-1.172V163.26
		c0-1.035,0.254-1.553,0.762-1.553h4.453c0.41,0,0.762,0.381,1.055,1.143l9.932,26.689c0.039,0.137,0.098,0.098,0.176-0.117
		l0.029-0.264V163.26c0-1.035,0.264-1.553,0.791-1.553h3.486c0.488,0,0.732,0.518,0.732,1.553v39.229
		c0,0.586-0.059,0.962-0.176,1.128s-0.303,0.249-0.557,0.249h-3.164c-0.195,0-0.405-0.117-0.629-0.352
		c-0.225-0.234-0.406-0.527-0.543-0.879l-11.045-28.828c-0.078-0.156-0.137-0.107-0.176,0.146c-0.02,0.059-0.029,0.127-0.029,0.205
		v28.213c0,0.586-0.063,0.977-0.189,1.172c-0.128,0.195-0.328,0.293-0.602,0.293H379.477z"/>
</g>
</svg>
