<svg xmlns="http://www.w3.org/2000/svg" xmlns:xlink="http://www.w3.org/1999/xlink" width="300" height="300" viewBox="0 0 300 300"><switch><g><symbol id="a" viewBox="-150 -150 300 300.007"><path fill="#CE8E95" d="M150-97.021c0-6.764 0-52.979-71.5-52.979H-84c-62.5 0-66 47.215-66 53.979v186c0 54.5 59.235 60 66 60l161.5.029c6.765 0 72.5-.029 72.5-60.029v-187z"/></symbol><use xlink:href="#a" width="300" height="300.007" x="-150" y="-150" transform="matrix(1 0 0 -1 150 150)" overflow="visible"/><g fill="#26080D"><path d="M24.88 252.155c1.344.816 3.888 1.681 6 1.681 2.592 0 3.744-1.057 3.744-2.593 0-1.584-.96-2.399-3.84-3.408-4.56-1.584-6.48-4.08-6.433-6.816 0-4.128 3.409-7.345 8.833-7.345 2.592 0 4.848.672 6.192 1.393l-1.152 4.176c-1.008-.576-2.88-1.344-4.945-1.344-2.112 0-3.264 1.008-3.264 2.448 0 1.488 1.104 2.208 4.081 3.265 4.224 1.536 6.192 3.696 6.24 7.152 0 4.225-3.312 7.297-9.504 7.297-2.833 0-5.377-.673-7.105-1.633l1.153-4.273zM45.184 223.497h5.952v34.083h-5.952v-34.083zM79.745 245.675c0 8.593-6.048 12.434-12.001 12.434-6.625 0-11.713-4.561-11.713-12.05 0-7.68 5.041-12.385 12.097-12.385 6.961 0 11.617 4.896 11.617 12.001zm-17.617.24c0 4.513 2.208 7.921 5.808 7.921 3.36 0 5.713-3.313 5.713-8.017 0-3.648-1.632-7.825-5.665-7.825-4.176 0-5.856 4.032-5.856 7.921zM87.76 234.202l2.448 10.608c.528 2.497 1.056 5.041 1.488 7.585h.096c.48-2.544 1.248-5.137 1.92-7.536l3.024-10.657h4.8l2.928 10.369c.72 2.736 1.344 5.28 1.873 7.824h.096c.384-2.544.912-5.088 1.536-7.824l2.592-10.369h5.809l-7.345 23.378h-5.472l-2.785-9.505c-.72-2.448-1.248-4.656-1.776-7.488h-.096c-.48 2.88-1.104 5.185-1.776 7.488l-2.977 9.505h-5.521l-6.913-23.378h6.051zM130.094 241.163c0-2.688-.048-4.945-.192-6.961h5.088l.24 3.456h.144c1.152-1.824 3.264-3.984 7.201-3.984 3.072 0 5.473 1.729 6.48 4.32h.096c.816-1.296 1.776-2.256 2.88-2.928 1.296-.912 2.784-1.393 4.704-1.393 3.889 0 7.824 2.641 7.824 10.129v13.777h-5.76v-12.913c0-3.889-1.345-6.192-4.177-6.192-2.016 0-3.504 1.439-4.128 3.12-.144.576-.288 1.296-.288 1.968v14.018h-5.761v-13.537c0-3.265-1.296-5.568-4.032-5.568-2.208 0-3.696 1.728-4.225 3.36-.24.576-.336 1.248-.336 1.92v13.825h-5.76v-16.417zM193.024 245.675c0 8.593-6.049 12.434-12.001 12.434-6.625 0-11.714-4.561-11.714-12.05 0-7.68 5.041-12.385 12.098-12.385 6.96 0 11.617 4.896 11.617 12.001zm-17.618.24c0 4.513 2.209 7.921 5.809 7.921 3.36 0 5.713-3.313 5.713-8.017 0-3.648-1.633-7.825-5.665-7.825-4.176 0-5.857 4.032-5.857 7.921zM204.639 227.529v6.673h5.617v4.416h-5.617v10.321c0 2.832.769 4.32 3.024 4.32a8.78 8.78 0 0 0 2.305-.288l.096 4.513c-.864.336-2.4.576-4.272.576-2.16 0-3.984-.721-5.088-1.921-1.249-1.344-1.824-3.456-1.824-6.528v-10.993h-3.36v-4.416h3.36v-5.28l5.759-1.393zM221.007 227.674c0 1.775-1.296 3.168-3.36 3.168-1.969 0-3.265-1.393-3.265-3.168 0-1.824 1.345-3.217 3.313-3.217 2.016 0 3.264 1.393 3.312 3.217zm-6.289 29.906v-23.378h5.953v23.378h-5.953zM249.232 245.675c0 8.593-6.049 12.434-12.001 12.434-6.625 0-11.714-4.561-11.714-12.05 0-7.68 5.041-12.385 12.098-12.385 6.961 0 11.617 4.896 11.617 12.001zm-17.618.24c0 4.513 2.208 7.921 5.809 7.921 3.36 0 5.713-3.313 5.713-8.017 0-3.648-1.632-7.825-5.665-7.825-4.176 0-5.857 4.032-5.857 7.921zM254.077 241.163c0-2.688-.048-4.945-.191-6.961h5.185l.287 3.504h.145c1.008-1.824 3.553-4.032 7.44-4.032 4.08 0 8.305 2.641 8.305 10.033v13.873h-5.904v-13.201c0-3.36-1.248-5.904-4.465-5.904-2.352 0-3.983 1.68-4.608 3.456-.191.528-.239 1.248-.239 1.92v13.729h-5.953v-16.417z"/></g><path fill="#FFF" d="M135.5 145.319s14.285 1.93 25.096-16.602c0 0 13.127-17.76 24.709-18.146 0 0 20.362-2.905 26.779 5.316 0 0 13.583 17.779 18.937 22.482 0 0 1.979 2.63 7.88 4.791 0 0 6.6-1.494 12.934-4.661 0 0 13.833-5.5 11.46 6.262 0 0-1.294 6.404-9.044 7.238 0 0-8.75-.5-10.75-1s-6.391-1.958-6.391-1.958-5.86 8.825-1.228 12.687c0 0 8.618-1.469 10.442 2.219 0 0 1.426 5.059-5.424 4.586 0 0-8.88-.025-12.74-6.203 0 0-3-4.803-12.652-1.328l.614 8.576s6.128-1.578 7.177 3.93c0 0-1.549 4.492-7.405 3.242 0 0-4.948-.359-5.671-3.93s-1.366-11.127-1.366-11.127l-23.166-1.703-3.544 8.88s4.633 0 5.791 2.702c0 0 2 6.178-6.88 4.634 0 0-7.558-1.206-6.563-7.723l4.158-8.722-12.722-2.158-8.177 8.95s6.702 4.634 2.842 6.563c0 0-10.096 1.133-9.267-7.038 0 0 2.421-5.329 7.336-8.405l1.931-2.703-2.316-4.247c-.001.001-20.077-.771-22.78-5.404z"/><path fill="#C1272D" d="M62 73v131l65.5-62.5z"/><path fill="#CE8E95" d="M94 97h4v85h-4zM76 86h2v119h-2zM71 80h1v119h-1zM73 82h1v119h-1z"/></g></switch></svg>