<svg xmlns="http://www.w3.org/2000/svg" width="300" height="300" viewBox="0 0 300 300"><switch><g><path fill="#91C4AB" d="M300 247.021c0 6.764 0 52.979-71.5 52.979H66c-62.5 0-66-47.215-66-53.979v-186c0-54.5 59.235-60 66-60l161.5-.029c6.765 0 72.5.029 72.5 60.029v187z"/><g fill="#012B16"><path d="M90.521 200.027v27.508c0 2.398.096 4.992.192 6.576h-5.28l-.24-3.697h-.096c-1.392 2.592-4.225 4.225-7.633 4.225-5.568 0-9.985-4.752-9.985-11.953-.048-7.824 4.848-12.48 10.465-12.48 3.216 0 5.521 1.344 6.577 3.072h.096v-13.25h5.904zm-5.905 20.452c0-.48-.048-1.057-.144-1.537-.528-2.305-2.4-4.176-5.089-4.176-3.792 0-5.904 3.359-5.904 7.729 0 4.271 2.112 7.393 5.856 7.393 2.4 0 4.513-1.633 5.088-4.176.144-.529.192-1.105.192-1.729v-3.504zM103.144 204.205c0 1.775-1.296 3.168-3.36 3.168-1.968 0-3.265-1.393-3.265-3.168 0-1.824 1.344-3.217 3.313-3.217 2.015 0 3.263 1.393 3.312 3.217zm-6.289 29.906v-23.379h5.952v23.379h-5.952zM113.319 224.078c.144 4.225 3.456 6.049 7.201 6.049 2.736 0 4.704-.385 6.48-1.057l.864 4.08c-2.016.816-4.8 1.441-8.161 1.441-7.584 0-12.049-4.658-12.049-11.811 0-6.48 3.937-12.576 11.425-12.576 7.585 0 10.081 6.24 10.081 11.377 0 1.104-.096 1.969-.192 2.496h-15.649zm10.273-4.129c.048-2.16-.912-5.713-4.849-5.713-3.648 0-5.185 3.313-5.424 5.713h10.273zM155.272 210.732c-.096 1.584-.192 3.504-.192 6.721v13.25c0 4.896-1.008 8.4-3.456 10.607-2.448 2.16-5.809 2.834-9.025 2.834-2.976 0-6.145-.625-8.161-1.873l1.296-4.465c1.488.865 3.984 1.777 6.817 1.777 3.84 0 6.72-2.018 6.72-7.057v-2.018h-.096c-1.344 2.064-3.744 3.457-6.816 3.457-5.809 0-9.937-4.801-9.937-11.426 0-7.68 4.992-12.336 10.609-12.336 3.552 0 5.665 1.729 6.769 3.648h.096l.24-3.121h5.136zm-6.096 9.362c0-.527-.048-1.104-.192-1.584-.624-2.16-2.304-3.793-4.8-3.793-3.313 0-5.761 2.881-5.761 7.633 0 3.984 2.016 7.201 5.712 7.201 2.208 0 4.128-1.441 4.8-3.553.144-.623.24-1.439.24-2.111v-3.793zM165.591 224.078c.144 4.225 3.456 6.049 7.2 6.049 2.736 0 4.705-.385 6.48-1.057l.864 4.08c-2.016.816-4.8 1.441-8.16 1.441-7.585 0-12.05-4.658-12.05-11.811 0-6.48 3.937-12.576 11.426-12.576 7.584 0 10.08 6.24 10.08 11.377 0 1.104-.096 1.969-.191 2.496h-15.649zm10.272-4.129c.049-2.16-.912-5.713-4.848-5.713-3.648 0-5.185 3.313-5.425 5.713h10.273zM192.95 204.061v6.672h5.617v4.416h-5.617v10.322c0 2.832.769 4.32 3.024 4.32a8.73 8.73 0 0 0 2.305-.289l.096 4.514c-.864.336-2.4.576-4.272.576-2.16 0-3.984-.721-5.088-1.922-1.249-1.344-1.824-3.455-1.824-6.527v-10.994h-3.36v-4.416h3.36v-5.279l5.759-1.393zM209.318 204.205c0 1.775-1.296 3.168-3.36 3.168-1.969 0-3.265-1.393-3.265-3.168 0-1.824 1.345-3.217 3.313-3.217 2.016 0 3.265 1.393 3.312 3.217zm-6.289 29.906v-23.379h5.953v23.379h-5.953zM232.503 233.391c-1.248.576-3.696 1.201-6.624 1.201-7.297 0-12.05-4.658-12.05-11.906 0-7.008 4.801-12.48 13.01-12.48 2.16 0 4.368.48 5.712 1.104l-1.056 4.416c-.96-.432-2.353-.912-4.465-.912-4.512 0-7.2 3.313-7.152 7.586 0 4.801 3.12 7.535 7.152 7.535 2.064 0 3.505-.432 4.657-.912l.816 4.368zM102.159 258.732l3.792 11.857c.672 2.064 1.152 3.936 1.584 5.857h.144c.432-1.922.96-3.746 1.584-5.857l3.696-11.857h6.241l-8.929 23.379h-5.809l-8.689-23.379h6.386zM144.401 270.205c0 8.594-6.048 12.434-12.001 12.434-6.625 0-11.713-4.561-11.713-12.049 0-7.68 5.041-12.385 12.097-12.385 6.961 0 11.617 4.897 11.617 12zm-17.617.24c0 4.514 2.208 7.922 5.808 7.922 3.36 0 5.713-3.313 5.713-8.018 0-3.648-1.632-7.824-5.665-7.824-4.176 0-5.856 4.032-5.856 7.92zM155.535 252.205c0 1.775-1.296 3.168-3.36 3.168-1.969 0-3.265-1.393-3.265-3.168 0-1.824 1.345-3.217 3.313-3.217 2.016 0 3.264 1.393 3.312 3.217zm-6.288 29.906v-23.379h5.953v23.379h-5.953zM178.72 281.391c-1.248.576-3.696 1.201-6.624 1.201-7.297 0-12.05-4.658-12.05-11.906 0-7.008 4.801-12.48 13.01-12.48 2.16 0 4.368.48 5.712 1.104l-1.056 4.416c-.96-.432-2.353-.912-4.465-.912-4.512 0-7.2 3.313-7.152 7.586 0 4.801 3.12 7.535 7.152 7.535 2.064 0 3.505-.432 4.657-.912l.816 4.368zM186.831 272.078c.144 4.225 3.456 6.049 7.2 6.049 2.736 0 4.705-.385 6.48-1.057l.864 4.08c-2.016.816-4.8 1.441-8.16 1.441-7.585 0-12.05-4.658-12.05-11.811 0-6.48 3.937-12.576 11.426-12.576 7.584 0 10.08 6.24 10.08 11.377 0 1.104-.096 1.969-.191 2.496h-15.649zm10.273-4.129c.049-2.16-.912-5.713-4.848-5.713-3.648 0-5.185 3.313-5.425 5.713h10.273z"/></g><g fill-rule="evenodd" clip-rule="evenodd"><path d="M29 41h241v147H29z"/><path fill="#FFF" d="M41 170h17v7H41zM41 148h17v7H41zM41 124h17v7H41zM41 102h17v7H41zM41 80h17v7H41zM41 57h17v7H41zM241 170h17v7h-17zM241 148h17v7h-17zM241 124h17v7h-17zM241 102h17v7h-17zM241 80h17v7h-17zM241 57h17v7h-17zM68 58h163v113H68z"/></g><path fill="none" stroke="#C1272D" stroke-width="2.918" stroke-miterlimit="10" d="M210.799 106.727C210.799 83.13 181.289 64 149.04 64c-32.249 0-61.758 19.129-61.758 42.727s29.51 42.727 61.758 42.727c.928 0 1.849-.02 2.767-.051-3.801 10.254-15.793 17.019-15.793 17.019 15.017-1.001 27.313-12.856 33.13-19.568 22.343-5.997 41.655-21.699 41.655-40.127z"/></g></switch></svg>