<svg xmlns="http://www.w3.org/2000/svg" xmlns:xlink="http://www.w3.org/1999/xlink" width="300" height="300" viewBox="0 0 300 300"><switch><g><symbol id="a" viewBox="-239.998 -118.656 300 300.671"><path fill="#91C4AB" d="M60.002-65.014c0-6.764-.002-53.643-71.502-53.643H-174c-62.5 0-65.998 47.879-65.998 54.643v185.999c0 54.5 59.233 60 65.999 60l161.499.029c6.766 0 72.502-.029 72.502-60.029V-65.014z"/></symbol><use xlink:href="#a" width="300" height="300.671" x="-239.998" y="-118.656" transform="matrix(1 0 0 -1 239.998 182.015)" overflow="visible"/><g fill="#012B16"><path d="M76.252 218.597c0 10.85-6.577 17.042-15.505 17.042-9.121 0-14.881-6.961-14.881-16.466 0-9.937 6.241-16.945 15.361-16.945 9.457 0 15.025 7.152 15.025 16.369zm-24.146.48c0 6.576 3.312 11.809 8.977 11.809 5.713 0 8.929-5.28 8.929-12.049 0-6.097-3.024-11.857-8.929-11.857-5.856-.001-8.977 5.424-8.977 12.097zM81.242 218.693c0-2.688-.048-4.945-.192-6.961h5.185l.288 3.504h.144c1.008-1.824 3.552-4.032 7.44-4.032 4.081 0 8.305 2.641 8.305 10.033v13.873h-5.904v-13.201c0-3.36-1.248-5.904-4.464-5.904-2.352 0-3.984 1.68-4.608 3.456-.192.528-.24 1.248-.24 1.92v13.729h-5.952v-16.417zM108.409 229.686c1.344.816 3.888 1.681 6 1.681 2.592 0 3.744-1.057 3.744-2.593 0-1.584-.96-2.399-3.84-3.408-4.561-1.584-6.48-4.08-6.433-6.816 0-4.128 3.408-7.345 8.833-7.345 2.592 0 4.848.672 6.192 1.393l-1.152 4.176c-1.008-.576-2.88-1.344-4.945-1.344-2.112 0-3.264 1.008-3.264 2.448 0 1.488 1.104 2.208 4.081 3.265 4.224 1.536 6.192 3.696 6.24 7.152 0 4.225-3.312 7.297-9.505 7.297-2.832 0-5.376-.673-7.104-1.633l1.153-4.273zM145.898 234.391c-1.249.576-3.697 1.2-6.625 1.2-7.296 0-12.049-4.657-12.049-11.905 0-7.009 4.8-12.481 13.009-12.481 2.16 0 4.368.48 5.712 1.104l-1.056 4.416c-.96-.432-2.352-.912-4.464-.912-4.513 0-7.201 3.313-7.153 7.585 0 4.801 3.121 7.536 7.153 7.536 2.064 0 3.504-.432 4.656-.912l.817 4.369zM150.264 219.269c0-3.168-.048-5.424-.191-7.536h5.136l.192 4.464h.192c1.151-3.312 3.888-4.992 6.384-4.992.576 0 .912.048 1.393.145v5.568a8.145 8.145 0 0 0-1.729-.192c-2.832 0-4.752 1.824-5.28 4.465a10.12 10.12 0 0 0-.191 1.824v12.097h-5.905v-15.843zM171.096 225.077c.144 4.225 3.456 6.049 7.2 6.049 2.736 0 4.705-.384 6.48-1.056l.864 4.08c-2.016.816-4.8 1.44-8.16 1.44-7.585 0-12.05-4.657-12.05-11.81 0-6.48 3.937-12.577 11.426-12.577 7.584 0 10.08 6.24 10.08 11.377 0 1.104-.096 1.969-.191 2.496h-15.649zm10.272-4.128c.048-2.16-.912-5.713-4.848-5.713-3.648 0-5.185 3.313-5.425 5.713h10.273zM195.863 225.077c.144 4.225 3.456 6.049 7.2 6.049 2.736 0 4.705-.384 6.48-1.056l.864 4.08c-2.016.816-4.8 1.44-8.16 1.44-7.585 0-12.05-4.657-12.05-11.81 0-6.48 3.937-12.577 11.426-12.577 7.584 0 10.08 6.24 10.08 11.377 0 1.104-.096 1.969-.191 2.496h-15.649zm10.273-4.128c.048-2.16-.912-5.713-4.848-5.713-3.648 0-5.185 3.313-5.425 5.713h10.273zM216.454 218.693c0-2.688-.048-4.945-.191-6.961h5.185l.287 3.504h.145c1.008-1.824 3.553-4.032 7.44-4.032 4.08 0 8.305 2.641 8.305 10.033v13.873h-5.904v-13.201c0-3.36-1.248-5.904-4.465-5.904-2.352 0-3.983 1.68-4.608 3.456-.191.528-.239 1.248-.239 1.92v13.729h-5.953v-16.417zM254.423 220.277v4.08h-12.241v-4.08h12.241zM102.673 273.941l-2.784 9.169h-6.096l10.369-32.354h7.537l10.513 32.354h-6.337l-2.928-9.169h-10.274zm9.265-4.463l-2.544-7.969c-.624-1.969-1.152-4.177-1.632-6.049h-.096c-.48 1.872-.96 4.128-1.536 6.049l-2.496 7.969h8.304zM132.529 253.06v6.673h5.616v4.416h-5.616v10.321c0 2.832.768 4.32 3.024 4.32a8.765 8.765 0 0 0 2.304-.288l.096 4.513c-.864.336-2.4.576-4.272.576-2.16 0-3.984-.721-5.088-1.921-1.248-1.344-1.824-3.456-1.824-6.528v-10.993h-3.36v-4.416h3.36v-5.28l5.76-1.393zM142.609 266.693c0-2.688-.048-4.945-.192-6.961h5.088l.24 3.456h.144c1.152-1.824 3.264-3.984 7.201-3.984 3.072 0 5.473 1.729 6.48 4.32h.096c.816-1.296 1.776-2.256 2.881-2.928 1.296-.912 2.784-1.393 4.704-1.393 3.889 0 7.825 2.641 7.825 10.129v13.777h-5.761v-12.913c0-3.889-1.345-6.192-4.177-6.192-2.016 0-3.504 1.439-4.128 3.12-.145.576-.288 1.296-.288 1.968v14.018h-5.761v-13.537c0-3.265-1.296-5.568-4.032-5.568-2.208 0-3.696 1.728-4.225 3.36-.24.576-.336 1.248-.336 1.92v13.825h-5.76v-16.417zM205.538 271.205c0 8.593-6.049 12.434-12.001 12.434-6.625 0-11.714-4.561-11.714-12.05 0-7.68 5.041-12.385 12.098-12.385 6.96 0 11.617 4.897 11.617 12.001zm-17.618.24c0 4.513 2.209 7.921 5.809 7.921 3.36 0 5.713-3.313 5.713-8.017 0-3.648-1.633-7.825-5.665-7.825-4.176 0-5.857 4.033-5.857 7.921z"/></g><path d="M262.962 174.565c0 11.435-58.818 10.396-115.336 10.396S34.868 184 34.868 174.501c0-7.95 56.239-14.33 112.757-14.33s115.337 6.444 115.337 14.394z"/><path d="M269.819 162.959c0 8.852-6.166 16.027-13.771 16.027H42.591c-7.606 0-13.771-7.176-13.771-16.027V37.407c0-8.852 6.166-15.645 13.771-15.645h213.458c7.604 0 13.771 6.793 13.771 15.645v125.552z"/><circle fill="#C1272D" cx="149.532" cy="172.145" r="5.355"/><circle fill="#FFF" cx="164.833" cy="171.379" r="4.208"/><circle fill="#FFF" cx="178.604" cy="171.379" r="4.208"/><path fill="#FFF" d="M260 149.785c0 7.476-4.939 15.215-11.924 15.215H52.123C45.141 165 39 157.261 39 149.785V43.747C39 36.271 45.141 30 52.123 30h195.954C255.061 30 260 36.271 260 43.747v106.038z"/><g fill="none" stroke="#C1272D" stroke-miterlimit="10"><path stroke-width="2.9" d="M38.554 114.426h221.001"/><path stroke-width="2.927" d="M85.653 114.712l13.091 7.77 12.302-28.926 10.307 40.936 10.307-40.936 12.635 38.276 5.652-41.096 11.305 41.389 11.637-38.569 11.304 42.306 10.973-43.636 8.645 36.574 8.644-20.614"/></g></g></switch></svg>