<svg xmlns="http://www.w3.org/2000/svg" xmlns:xlink="http://www.w3.org/1999/xlink" width="300" height="300" viewBox="0 0 300 300"><switch><g><symbol id="a" viewBox="-150 -150 300 300.007"><path fill="#CE8E95" d="M150-97.021c0-6.764 0-52.979-71.5-52.979H-84c-62.5 0-66 47.215-66 53.979v186c0 54.5 59.235 60 66 60l161.5.029c6.765 0 72.5-.029 72.5-60.029v-187z"/></symbol><use xlink:href="#a" width="300" height="300.007" x="-150" y="-150" transform="matrix(1 0 0 -1 150 150)" overflow="visible"/><g fill="#26080D"><path d="M89.556 224.694v27.507c0 2.399.096 4.992.192 6.576h-5.28l-.24-3.696h-.096c-1.392 2.592-4.225 4.225-7.633 4.225-5.568 0-9.985-4.753-9.985-11.953-.048-7.825 4.848-12.481 10.465-12.481 3.216 0 5.521 1.345 6.577 3.072h.096v-13.249h5.904zm-5.905 20.451a8.31 8.31 0 0 0-.144-1.536c-.528-2.305-2.4-4.177-5.089-4.177-3.792 0-5.904 3.36-5.904 7.729 0 4.272 2.112 7.393 5.856 7.393 2.4 0 4.513-1.632 5.088-4.176.144-.528.192-1.104.192-1.729v-3.504zM102.179 228.871c0 1.775-1.296 3.168-3.36 3.168-1.968 0-3.265-1.393-3.265-3.168 0-1.824 1.344-3.217 3.313-3.217 2.015 0 3.263 1.393 3.312 3.217zm-6.289 29.906v-23.378h5.952v23.378H95.89zM107.89 253.353c1.344.816 3.888 1.681 6 1.681 2.592 0 3.744-1.057 3.744-2.593 0-1.584-.96-2.399-3.84-3.408-4.56-1.584-6.48-4.08-6.433-6.816 0-4.128 3.409-7.345 8.833-7.345 2.592 0 4.848.672 6.192 1.393l-1.152 4.176c-1.008-.576-2.88-1.344-4.945-1.344-2.112 0-3.264 1.008-3.264 2.448 0 1.488 1.104 2.208 4.081 3.265 4.224 1.536 6.192 3.696 6.24 7.152 0 4.225-3.312 7.297-9.504 7.297-2.833 0-5.377-.673-7.105-1.633l1.153-4.273zM127.906 253.353c1.344.816 3.888 1.681 6 1.681 2.592 0 3.744-1.057 3.744-2.593 0-1.584-.96-2.399-3.84-3.408-4.56-1.584-6.48-4.08-6.433-6.816 0-4.128 3.409-7.345 8.833-7.345 2.592 0 4.848.672 6.192 1.393l-1.152 4.176c-1.008-.576-2.88-1.344-4.945-1.344-2.112 0-3.264 1.008-3.264 2.448 0 1.488 1.104 2.208 4.081 3.265 4.224 1.536 6.192 3.696 6.24 7.152 0 4.225-3.312 7.297-9.504 7.297-2.833 0-5.377-.673-7.105-1.633l1.153-4.273zM170.436 246.872c0 8.593-6.049 12.434-12.002 12.434-6.624 0-11.712-4.561-11.712-12.05 0-7.68 5.041-12.385 12.097-12.385 6.96 0 11.617 4.897 11.617 12.001zm-17.618.24c0 4.513 2.207 7.921 5.808 7.921 3.36 0 5.713-3.313 5.713-8.017 0-3.648-1.632-7.825-5.665-7.825-4.176 0-5.856 4.033-5.856 7.921zM175.281 224.694h5.952v34.083h-5.952v-34.083zM191.361 235.399l3.792 11.856c.672 2.064 1.152 3.937 1.584 5.857h.144c.433-1.921.961-3.745 1.585-5.857l3.696-11.856h6.24l-8.929 23.378h-5.809l-8.688-23.378h6.385zM215.554 248.744c.144 4.225 3.456 6.049 7.2 6.049 2.736 0 4.705-.384 6.48-1.056l.864 4.08c-2.016.816-4.8 1.44-8.16 1.44-7.585 0-12.05-4.657-12.05-11.81 0-6.48 3.937-12.577 11.426-12.577 7.584 0 10.08 6.24 10.08 11.377 0 1.104-.096 1.969-.191 2.496h-15.649zm10.272-4.128c.049-2.16-.912-5.713-4.848-5.713-3.648 0-5.185 3.313-5.425 5.713h10.273z"/></g><path fill="#333" d="M199 75h74v117h-74z"/><path fill="#FFF" d="M28 75h74v117H28z"/><path fill="#333" d="M58.104 126.783l-3.962 13.048h-8.676l14.756-46.043h10.726l14.96 46.043H76.89l-4.167-13.048H58.104zm13.184-6.353l-3.62-11.34c-.889-2.801-1.64-5.943-2.323-8.607h-.137c-.683 2.664-1.366 5.875-2.186 8.607l-3.553 11.34h11.819z"/><path fill="#FFF" d="M221.455 95.495c2.664-.546 7.515-.956 12.229-.956 6.217 0 10.042.751 13.184 2.938 2.87 1.708 4.783 4.713 4.783 8.607 0 4.235-2.664 8.129-7.652 9.974v.137c4.852 1.229 9.291 5.055 9.291 11.408 0 4.099-1.775 7.31-4.439 9.496-3.279 2.869-8.676 4.304-17.079 4.304-4.646 0-8.198-.341-10.315-.615V95.495zm8.334 18.172h4.305c5.807 0 9.086-2.732 9.086-6.626 0-4.304-3.279-6.285-8.608-6.285-2.459 0-3.894.137-4.782.342v12.569zm0 21.177c1.094.137 2.527.205 4.441.205 5.396 0 10.178-2.049 10.178-7.719 0-5.329-4.645-7.515-10.451-7.515h-4.168v15.029zM107 77h9v9h-9zM107 92h9v9h-9zM107 107h9v9h-9zM107 122h9v9h-9zM107 137h9v9h-9zM107 152h9v9h-9zM107 166h9v9h-9zM107 181h9v9h-9zM123 85h9v9h-9zM123 100h9v9h-9zM123 115h9v9h-9zM123 130h9v9h-9zM123 144h9v9h-9zM123 158h9v9h-9zM123 173h9v9h-9zM138 95h9v9h-9zM138 112h9v9h-9zM138 131h9v9h-9zM138 148h9v9h-9zM136 163h9v9h-9z"/><path fill="#333" d="M195.045 191.304l-9-.15.151-9 9 .15zM195.296 176.306l-9-.15.151-8.999 9 .15zM195.548 161.308l-8.998-.149.15-9 8.997.15zM195.796 146.313l-8.998-.15.15-9 8.998.15zM196.052 131.306l-8.999-.151.152-8.998 8.999.15zM196.297 116.318l-8.998-.15.15-9 8.998.151zM196.531 102.32l-8.999-.15.15-9 9 .151zM196.782 87.323l-8.999-.15.15-9 9 .15zM179.181 183.088l-9-.15.151-8.999 9 .15zM179.432 168.09l-8.999-.15.15-8.998 9 .15zM179.688 153.086l-8.999-.152.152-8.999 8.999.152zM179.933 138.096l-8.999-.15.15-8.999 9 .15zM180.166 124.1l-8.998-.151.15-9 8.998.151zM180.4 110.102l-8.998-.15.15-9 8.998.151zM180.651 95.104l-8.999-.15.15-9 9 .15zM163.353 166.821l-9-.15.15-8.998 9 .15zM163.642 148.818l-8.999-.15.15-9 9 .151zM163.959 129.821l-8.998-.15.15-9 8.998.151zM164.241 111.825l-8.998-.15.15-9 8.999.15z"/></g></switch></svg>