<svg xmlns="http://www.w3.org/2000/svg" xmlns:xlink="http://www.w3.org/1999/xlink" width="300" height="300" viewBox="0 0 300 300"><switch><g><symbol id="a" viewBox="-150 -150 300 300.007"><path fill="#CE8E95" d="M150-97.021c0-6.764 0-52.979-71.5-52.979H-84c-62.5 0-66 47.215-66 53.979v186c0 54.5 59.235 60 66 60l161.5.029c6.765 0 72.5-.029 72.5-60.029v-187z"/></symbol><use xlink:href="#a" width="300" height="300.007" x="-150" y="-150" transform="matrix(1 0 0 -1 150 150)" overflow="visible"/><path fill="none" stroke="#FFF" stroke-width="2" stroke-miterlimit="10" d="M15 56"/><path fill="#4D4D4D" stroke="#FFF" stroke-width="2" stroke-miterlimit="10" d="M233.121 169.721l-55.121 15V46.342l55.684-12.375z"/><g fill="#26080D"><path d="M63.72 232.86c-1.249.576-3.697 1.2-6.625 1.2-7.296 0-12.049-4.657-12.049-11.905 0-7.009 4.8-12.481 13.009-12.481 2.16 0 4.368.48 5.712 1.104l-1.056 4.416c-.96-.432-2.352-.912-4.464-.912-4.513 0-7.201 3.313-7.153 7.585 0 4.801 3.121 7.536 7.153 7.536 2.064 0 3.504-.432 4.656-.912l.817 4.369zM89.015 226.571c0 2.784.096 5.089.192 7.009h-5.185l-.288-3.553h-.096c-1.008 1.681-3.313 4.081-7.489 4.081-4.272 0-8.161-2.545-8.161-10.177v-13.729h5.904v12.721c0 3.889 1.249 6.385 4.369 6.385 2.352 0 3.888-1.68 4.512-3.168a5.366 5.366 0 0 0 .336-1.824v-14.113h5.905v16.368zM102.166 203.529v6.673h5.616v4.416h-5.616v10.321c0 2.832.768 4.32 3.024 4.32a8.765 8.765 0 0 0 2.304-.288l.096 4.513c-.864.336-2.4.576-4.272.576-2.16 0-3.984-.721-5.088-1.921-1.248-1.344-1.824-3.456-1.824-6.528v-10.993h-3.36v-4.416h3.36v-5.28l5.76-1.393zM119.013 203.529v6.673h5.616v4.416h-5.616v10.321c0 2.832.768 4.32 3.024 4.32a8.765 8.765 0 0 0 2.304-.288l.096 4.513c-.864.336-2.4.576-4.272.576-2.16 0-3.984-.721-5.088-1.921-1.248-1.344-1.824-3.456-1.824-6.528v-10.993h-3.36v-4.416h3.36v-5.28l5.76-1.393zM135.381 203.674c0 1.775-1.296 3.168-3.36 3.168-1.968 0-3.265-1.393-3.265-3.168 0-1.824 1.344-3.217 3.313-3.217 2.015 0 3.264 1.393 3.312 3.217zm-6.289 29.906v-23.378h5.952v23.378h-5.952zM141.38 217.163c0-2.688-.048-4.945-.192-6.961h5.185l.288 3.504h.144c1.008-1.824 3.552-4.032 7.44-4.032 4.081 0 8.305 2.641 8.305 10.033v13.873h-5.904v-13.201c0-3.36-1.248-5.904-4.464-5.904-2.353 0-3.985 1.68-4.609 3.456-.192.528-.24 1.248-.24 1.92v13.729h-5.952v-16.417zM190.197 210.202c-.096 1.584-.191 3.504-.191 6.721v13.249c0 4.896-1.009 8.4-3.457 10.608-2.447 2.16-5.809 2.833-9.024 2.833-2.976 0-6.145-.624-8.161-1.872l1.297-4.465c1.488.864 3.984 1.776 6.816 1.776 3.84 0 6.721-2.017 6.721-7.057v-2.017h-.096c-1.345 2.064-3.744 3.457-6.816 3.457-5.809 0-9.938-4.801-9.938-11.426 0-7.681 4.992-12.337 10.609-12.337 3.552 0 5.664 1.729 6.768 3.648h.097l.24-3.12h5.135zm-6.095 9.361c0-.527-.049-1.104-.192-1.584-.624-2.16-2.304-3.792-4.801-3.792-3.312 0-5.761 2.88-5.761 7.633 0 3.984 2.017 7.2 5.713 7.2 2.209 0 4.129-1.44 4.801-3.552.144-.624.24-1.44.24-2.112v-3.793zM228.502 221.675c0 8.593-6.049 12.434-12.001 12.434-6.625 0-11.714-4.561-11.714-12.05 0-7.68 5.041-12.385 12.098-12.385 6.961 0 11.617 4.896 11.617 12.001zm-17.618.24c0 4.513 2.208 7.921 5.809 7.921 3.36 0 5.713-3.313 5.713-8.017 0-3.648-1.632-7.825-5.665-7.825-4.177 0-5.857 4.032-5.857 7.921zM233.348 217.163c0-2.688-.048-4.945-.191-6.961h5.185l.288 3.504h.144c1.008-1.824 3.553-4.032 7.44-4.032 4.08 0 8.305 2.641 8.305 10.033v13.873h-5.904v-13.201c0-3.36-1.248-5.904-4.465-5.904-2.352 0-3.984 1.68-4.608 3.456-.191.528-.239 1.248-.239 1.92v13.729h-5.953v-16.417zM101.662 281.58l-.384-2.592h-.144c-1.44 1.824-3.888 3.12-6.913 3.12-4.705 0-7.345-3.408-7.345-6.961 0-5.904 5.232-8.881 13.873-8.833v-.384c0-1.536-.624-4.08-4.752-4.08-2.304 0-4.704.72-6.289 1.728l-1.152-3.84c1.728-1.057 4.752-2.064 8.449-2.064 7.489 0 9.649 4.753 9.649 9.841v8.449c0 2.112.096 4.176.336 5.616h-5.328zm-.768-11.425c-4.176-.097-8.161.815-8.161 4.368 0 2.305 1.488 3.36 3.36 3.36 2.352 0 4.081-1.536 4.608-3.216a4.25 4.25 0 0 0 .192-1.297v-3.215zM130.078 280.86c-1.248.576-3.696 1.2-6.625 1.2-7.296 0-12.049-4.657-12.049-11.905 0-7.009 4.8-12.481 13.009-12.481 2.16 0 4.368.48 5.712 1.104l-1.056 4.416c-.96-.432-2.352-.912-4.464-.912-4.512 0-7.201 3.313-7.153 7.585 0 4.801 3.121 7.536 7.153 7.536 2.064 0 3.504-.432 4.656-.912l.817 4.369zM141.933 251.529v6.673h5.616v4.416h-5.616v10.321c0 2.832.768 4.32 3.024 4.32a8.765 8.765 0 0 0 2.304-.288l.096 4.513c-.864.336-2.4.576-4.272.576-2.16 0-3.984-.721-5.088-1.921-1.248-1.344-1.824-3.456-1.824-6.528v-10.993h-3.36v-4.416h3.36v-5.28l5.76-1.393zM158.301 251.674c0 1.775-1.297 3.168-3.36 3.168-1.968 0-3.265-1.393-3.265-3.168 0-1.824 1.344-3.217 3.313-3.217 2.015 0 3.263 1.393 3.312 3.217zm-6.289 29.906v-23.378h5.953v23.378h-5.953zM186.526 269.675c0 8.593-6.049 12.434-12.001 12.434-6.625 0-11.713-4.561-11.713-12.05 0-7.68 5.04-12.385 12.097-12.385 6.96 0 11.617 4.896 11.617 12.001zm-17.618.24c0 4.513 2.209 7.921 5.809 7.921 3.36 0 5.713-3.313 5.713-8.017 0-3.648-1.633-7.825-5.664-7.825-4.177 0-5.858 4.032-5.858 7.921zM191.372 265.163c0-2.688-.048-4.945-.191-6.961h5.185l.287 3.504h.145c1.008-1.824 3.553-4.032 7.44-4.032 4.08 0 8.305 2.641 8.305 10.033v13.873h-5.904v-13.201c0-3.36-1.248-5.904-4.465-5.904-2.352 0-3.983 1.68-4.608 3.456-.191.528-.239 1.248-.239 1.92v13.729h-5.953v-16.417z"/></g><g fill-rule="evenodd" clip-rule="evenodd" fill="#FFF"><path d="M181.453 149.381c1.64-3.573 3.31-4.528 7.303-4.4 4.966.157 9.935.218 14.903.333.912.02 1.825.088 2.735.153.689.05.968-.22 1.055-.938.221-1.785.137-3.573.19-5.36.148-5.044.308-10.088.471-15.133.055-1.698-.372-3.387.104-5.099a15.39 15.39 0 0 1 1.876-4.228c4.98-7.764 9.953-15.534 14.918-23.308.207-.324.652-.656.47-1.034-.211-.441-.777-.237-1.189-.323-3.335-.693-5.486.641-7.321 3.485-2.3 3.563-5.076 6.823-7.679 10.19-1.608 2.083-4.18 2.935-6.468 2.22-2.45-.765-4.129-2.791-4.333-5.297-.121-1.48.263-2.857 1.16-4.039a2568.766 2568.766 0 0 1 12.75-16.679c1.191-1.54 2.893-2.273 4.82-2.193 6.351.264 12.7.57 19.046.925 1.589.089 3.143-.299 4.752-.019 5.478.955 9.188 5.24 9.503 10.809.251 4.438.778 8.859 1.158 13.29.076.872.532.577.976.395 3.053-1.251 6.102-2.511 9.155-3.757 1.618-.661 3.23-1.345 4.874-1.941 3.202-1.164 6.465.244 7.718 3.279 1.265 3.063-.094 6.487-3.26 7.81-6.895 2.88-13.833 5.659-20.738 8.513-1.669.689-3.277 1.39-5.164.933-2.461-.595-4.29-2.484-4.649-5-.128-.903-.179-1.816-.269-2.724-.024-.229.055-.53-.211-.635-.294-.116-.401.179-.522.367-3.021 4.722-6.034 9.45-9.067 14.165-.375.585-.145.898.294 1.299 5.4 4.934 10.765 9.904 16.18 14.82 2.188 1.986 2.874 4.256 2.2 7.178a1300.45 1300.45 0 0 0-5.562 25.377c-.559 2.663-1.905 4.479-4.429 5.443H236.1c-3.803-1.246-4.989-4.729-4.368-7.438 1.705-7.43 3.265-14.896 4.913-22.341.187-.84.021-1.39-.633-1.976-3.13-2.816-6.211-5.687-9.311-8.538a2721.208 2721.208 0 0 0-5.62-5.156c-.229-.209-.463-.491-.827-.325-.348.158-.332.511-.348.827-.063 1.15-.146 2.3-.176 3.451-.117 4.806-.182 9.614-.336 14.419-.133 4.089-2.658 6.464-6.712 6.397-4.409-.074-8.82-.161-13.229-.261-3.733-.085-7.467-.238-11.201-.285-3.287-.042-5.659-1.352-6.8-4.55l.001-3.101zM255.193 56.071c2.638.755 5.06 1.874 6.865 4.048 3.119 3.751 3.86 7.957 2.153 12.486-1.674 4.439-5.038 6.918-9.693 7.633-6.776 1.042-13.517-3.968-13.872-11.58-.255-5.459 3.031-10.483 8.647-12.171.456-.137.91-.277 1.364-.416h4.536z"/></g><g fill="none" stroke="#C1272D" stroke-width="5" stroke-miterlimit="10"><path d="M149.5 188v-5"/><path stroke-dasharray="10,10" d="M149.5 173V38"/><path d="M149.5 33v-5"/></g><path fill="#4D4D4D" stroke="#FFF" stroke-width="2" stroke-miterlimit="10" d="M65.68 169.835l55.32 15V46.456L65.219 34.081z"/><g fill-rule="evenodd" clip-rule="evenodd" fill="#FFF"><path d="M39.605 146.896c1.64-3.572 3.31-4.527 7.303-4.4 4.966.157 9.935.217 14.903.332.913.021 1.825.089 2.736.154.689.05.967-.221 1.054-.938.221-1.785.137-3.573.19-5.36.149-5.044.308-10.088.471-15.133.055-1.698-.372-3.387.104-5.099a15.42 15.42 0 0 1 1.876-4.228c4.98-7.765 9.953-15.534 14.918-23.308.207-.324.652-.657.47-1.034-.211-.44-.778-.237-1.19-.323-3.334-.694-5.486.641-7.321 3.485-2.3 3.563-5.076 6.823-7.678 10.19-1.609 2.083-4.18 2.934-6.468 2.22-2.45-.766-4.128-2.791-4.333-5.297-.121-1.48.262-2.857 1.16-4.039a2604.95 2604.95 0 0 1 12.75-16.679c1.191-1.54 2.893-2.274 4.82-2.193 6.351.264 12.7.57 19.046.925 1.588.088 3.143-.299 4.751-.019 5.478.955 9.189 5.24 9.503 10.809.25 4.438.778 8.858 1.158 13.29.076.872.533.577.976.395 3.053-1.251 6.102-2.511 9.155-3.758 1.619-.661-1.062-2.43.582-3.027 3.202-1.164-1.438 9.218-.186 12.253-.186 2.6 2.785 1.671-.372 3.157-6.761 3.182-4.525 2.423-11.431 5.277-1.669.689-3.278 1.39-5.164.933-2.461-.595-4.291-2.484-4.649-5-.128-.903-.179-1.816-.269-2.725-.024-.229.055-.53-.211-.635-.293-.115-.401.18-.522.367-3.022 4.722-6.034 9.45-9.067 14.165-.375.585-.145.898.294 1.299 5.4 4.934 10.764 9.904 16.179 14.82 2.189 1.986 2.874 4.256 2.201 7.177a1288.987 1288.987 0 0 0-5.562 25.376c-.558 2.663-1.905 4.48-4.429 5.444H94.25c-3.803-1.247-4.989-4.73-4.368-7.439 1.705-7.43 3.265-14.896 4.913-22.339.186-.841.021-1.391-.633-1.977-3.13-2.816-6.21-5.687-9.31-8.538a2485.87 2485.87 0 0 0-5.621-5.156c-.229-.209-.462-.491-.827-.325-.348.158-.332.511-.348.827-.063 1.15-.146 2.3-.175 3.451-.118 4.806-.182 9.614-.336 14.419-.133 4.088-2.659 6.463-6.712 6.397-4.409-.073-8.82-.162-13.229-.262-3.733-.085-7.467-.237-11.202-.284-3.287-.041-5.659-1.351-6.8-4.55.003-1.029.003-2.064.003-3.097zM113.346 53.585c2.638.755 5.627 1.507 6.866 4.048 2.002 4.11 1.167 7.73 1.26 12.836-1.673 4.439-4.146 6.568-8.8 7.283-6.776 1.042-13.517-3.968-13.872-11.58-.255-5.459 3.031-10.483 8.647-12.171.456-.137.911-.277 1.364-.416h4.535z"/></g></g></switch></svg>