<svg xmlns="http://www.w3.org/2000/svg" xmlns:xlink="http://www.w3.org/1999/xlink" width="300" height="300" viewBox="0 0 300 300"><switch><g><symbol id="a" viewBox="-150 -150 300 300.007"><path fill="#CE8E95" d="M150-97.021c0-6.764 0-52.979-71.5-52.979H-84c-62.5 0-66 47.215-66 53.979v186c0 54.5 59.235 60 66 60l161.5.029c6.765 0 72.5-.029 72.5-60.029v-187z"/></symbol><use xlink:href="#a" width="300" height="300.007" x="-150" y="-150" transform="matrix(1 0 0 -1 150 150)" overflow="visible"/><g fill="#26080D"><path d="M62.002 242.36c0-2.688-.048-4.945-.192-6.961h5.088l.24 3.456h.144c1.152-1.824 3.264-3.984 7.201-3.984 3.072 0 5.473 1.729 6.48 4.32h.096c.816-1.296 1.776-2.256 2.88-2.928 1.296-.912 2.785-1.393 4.705-1.393 3.888 0 7.825 2.641 7.825 10.129v13.777h-5.76v-12.913c0-3.889-1.344-6.192-4.177-6.192-2.016 0-3.504 1.439-4.128 3.12-.144.576-.288 1.296-.288 1.968v14.018h-5.761V245.24c0-3.265-1.296-5.568-4.032-5.568-2.208 0-3.696 1.728-4.225 3.36-.24.576-.336 1.248-.336 1.92v13.825h-5.76V242.36zM124.932 246.872c0 8.593-6.048 12.434-12.001 12.434-6.625 0-11.713-4.561-11.713-12.05 0-7.68 5.041-12.385 12.097-12.385 6.96 0 11.617 4.897 11.617 12.001zm-17.618.24c0 4.513 2.208 7.921 5.808 7.921 3.36 0 5.713-3.313 5.713-8.017 0-3.648-1.632-7.825-5.665-7.825-4.175 0-5.856 4.033-5.856 7.921zM129.778 242.36c0-2.688-.048-4.945-.192-6.961h5.185l.288 3.504h.144c1.008-1.824 3.552-4.032 7.44-4.032 4.081 0 8.305 2.641 8.305 10.033v13.873h-5.904v-13.201c0-3.36-1.248-5.904-4.464-5.904-2.352 0-3.984 1.68-4.608 3.456-.192.528-.24 1.248-.24 1.92v13.729h-5.952V242.36zM163.762 228.727v6.673h5.617v4.416h-5.617v10.321c0 2.832.769 4.32 3.024 4.32a8.76 8.76 0 0 0 2.304-.288l.097 4.513c-.864.336-2.4.576-4.272.576-2.16 0-3.984-.721-5.088-1.921-1.248-1.344-1.824-3.456-1.824-6.528v-10.993h-3.361V235.4h3.361v-5.28l5.759-1.393zM186.995 258.777l-.384-2.592h-.145c-1.439 1.824-3.888 3.12-6.912 3.12-4.705 0-7.345-3.408-7.345-6.961 0-5.904 5.232-8.881 13.873-8.833v-.384c0-1.536-.624-4.08-4.753-4.08-2.304 0-4.703.72-6.288 1.728l-1.151-3.84c1.728-1.057 4.752-2.064 8.448-2.064 7.488 0 9.648 4.753 9.648 9.841v8.449c0 2.112.097 4.176.336 5.616h-5.327zm-.768-11.424c-4.176-.097-8.16.815-8.16 4.368 0 2.305 1.488 3.36 3.36 3.36 2.353 0 4.081-1.536 4.608-3.216.145-.433.191-.912.191-1.297v-3.215zM219.588 235.399c-.096 1.584-.192 3.504-.192 6.721v13.249c0 4.896-1.008 8.4-3.456 10.608-2.448 2.16-5.809 2.833-9.024 2.833-2.977 0-6.145-.624-8.161-1.872l1.296-4.465c1.488.864 3.984 1.776 6.816 1.776 3.841 0 6.721-2.017 6.721-7.057v-2.017h-.096c-1.344 2.064-3.744 3.457-6.816 3.457-5.809 0-9.938-4.801-9.938-11.426 0-7.681 4.993-12.337 10.609-12.337 3.553 0 5.664 1.729 6.769 3.648h.096l.24-3.12h5.136zm-6.097 9.361c0-.527-.048-1.104-.192-1.584-.624-2.16-2.304-3.792-4.8-3.792-3.313 0-5.761 2.88-5.761 7.633 0 3.984 2.017 7.2 5.713 7.2 2.208 0 4.128-1.44 4.8-3.552.145-.624.24-1.44.24-2.112v-3.793zM229.906 248.744c.144 4.225 3.456 6.049 7.2 6.049 2.736 0 4.705-.384 6.48-1.056l.864 4.08c-2.016.816-4.8 1.44-8.16 1.44-7.585 0-12.05-4.657-12.05-11.81 0-6.48 3.937-12.577 11.426-12.577 7.584 0 10.08 6.24 10.08 11.377 0 1.104-.096 1.969-.191 2.496h-15.649zm10.273-4.128c.048-2.16-.912-5.713-4.848-5.713-3.648 0-5.185 3.313-5.425 5.713h10.273z"/></g><g fill-rule="evenodd" clip-rule="evenodd"><path d="M148.688 167.408H23.191V70.736h125.497v96.672zm-40.694-95.197l-2.896.169v6.181l-2.461 1.379-.233-.33 1.025-1.1-.172-.185-2.145 1.108-.319-1.523 2.378-.714-.139-.622-4.639.702.815-3.359c-1.46.708-2.898 1.403-4.334 2.1l-.317-.507 1.063-1.393h-1.016c-.053-.5.056-1.176-.166-1.311-2.595-1.583-3.59 1.482-5.753 2.021.313-.901.581-1.668.847-2.437a97.388 97.388 0 0 1-.294-.329c-.937.797-1.872 1.595-2.809 2.391l-.127-.16 1.193-1.841c-5.014-.635-8.182-.175-7.634 1.175l2.302.218-2.847 3.446c.581 1.326-.055 2.371-3.138 4.018l.625-7.565c-.458 0-1.076.134-1.603-.026-1.428-.436-4.419.407-4.639 1.738-.35 2.129-1.869 3.027-3.296 4.135l-1.926 3.111c-.577.914-1.08 1.887-1.746 2.73-1.46 1.847-3.463 3.346-3.539 6.019-.012.409-.189.963-.487 1.189-2.165 1.639-2.714 4.09-3.528 6.467-.481 1.402-1.089 3.21-2.206 3.855-2.755 1.591-4.75 3.702-6.383 6.348-.799 1.296-1.985 2.347-2.887 3.589-1.238 1.703-2.995 3.344-3.417 5.257-.775 3.506-2.861 5.198-5.963 6.173-1.407.443-2.829.837-4.22 1.323-.481.167-.891.544-1.494.928 2.874 1.168 2.968 1.463 1.604 4.221-.327.662-.664 1.319-.988 1.983-1.312 2.683-2.116 5.424-1.911 8.508.408 6.165.556 12.347.868 18.52.167 3.301 2.308 5.099 5.579 4.843.351-.026.71.038 1.065.06l.038.577-4.987.901h6.453l-1.133-3.596c2.153-.509 3.903-1.965 6.26-1.388 1.608.396 3.231.859 4.871.975 2.355.168 4.73.043 7.098.043-3.631 1.647-7.4 2.565-11.373 1.726l-.885 2.458h31.801l.103-.708c-1.304-.242-2.624-.419-3.904-.75-.783-.204-1.659-.488-2.215-1.024-.768-.739-1.273-1.751-1.947-2.729 8.709-1.197 17.806-2.311 27.412-2.28 0 .737.054 1.854-.01 2.963-.174 3.035.843 3.797 3.675 2.694l1.501-.591.308 2.675 3.623-7.239c-.447-4.091-.966-7.639.279-11.743 1.653 2.198 1.489 4.261 1.405 6.26-.122 2.873-.433 5.739-.51 8.613-.033 1.167.338 2.345.562 3.749.655-.586.943-.933 1.308-1.154 3.494-2.11 5.067-5.456 5.53-9.275.159-1.307-.804-2.724-1.138-4.118-.493-2.061-.88-4.145-1.444-6.849 1.429 2.039 3.169 3.604 3.738 5.519 1.319 4.431 2.066 9.03 3.058 13.559.101.463.289.907.456 1.418 2.186-1.772 4.333-4.024 3.614-6.465-1.262-4.277-.548-9.202-3.874-12.858-.177-.194.054-.759.048-.702-1.943-.399-3.836-.45-5.42-1.175-5.516-2.523-11.237-3.238-17.202-2.601-.35.038-.728-.188-.559-.141 1.162-2.218 2.278-4.348 3.39-6.481.027-.053-.002-.146-.022-.215-.558-1.885-1.119-3.77-1.61-5.423-.644.287-1.377.869-2.131.897-2.08.077-4.451-.734-6.188.013-2.605 1.119-4.824-.397-7.21-.055-1.401.202-2.84.126-4.262.176l-.196.63-1.612-3.029c4.85.44 8.632-1.441 12.285-3.677.957-.586 1.68-.633 2.057.541.383 1.193 1.18 1.269 2.25 1.156 1.242-.131 2.51.01 3.754-.112a3.348 3.348 0 0 0 1.721-.717c.945-.792 1.703-1.811 2.661-2.582 3.309-2.662 4.047-6.062 2.997-10.221.931-.169 1.933-.167 2.753-.553.725-.342 1.536-1.006 1.803-1.718 1.038-2.755.892-5.923 2.974-8.337.243-.282.254-1.055.038-1.363-.233-.332-.901-.6-1.313-.526-3.011.543-5.997 1.232-9.009 1.769-1.921.342-1.998 1.231-1.621 2.987.325 1.516.387 3.919-.505 4.69-1.795 1.552-1.407 2.654-.6 4.327.958 1.986-.027 4.33-2.058 4.801-2.476.575-5.076.718-6.634 3.506-.289-3.033-1.661-3.348-3.974-2.564-.91.307-2.153-.186-3.193-.488-1.419-.414-1.627-1.391-1.001-2.843l1.219 2.948c1.422-2.882 3.663-2.582 5.933-2.502 1.677.06 2.971-.696 2.884-2.388l3.642 2.325.795-3.291-.739.152c-.549-.412-1.542-.796-1.57-1.241-.126-2.021-.011-4.062.075-6.092.091-2.164.246-4.326.387-6.746l1.875-.579-1.36-2.296 3.063.203c-.047-1.104-.049-2.213-.162-3.31-.058-.56-.315-1.1-.484-1.648l.668-.258 1.631 3.398 2.217-1.72c3.206.077 6.158.821 7.754 4.177 1.899-1.601 1.128-3.035.557-4.593-.48-1.311-.736-2.748-.814-4.145-.042-.748.5-1.529.568-1.718 1.88-1.051 3.323-2.044 4.906-2.701 2.794-1.16 4.199-3.383 5.153-6.049.62-1.729-.033-3.297-1.779-3.904-2.021-.704-4.086-1.278-6.132-1.908l-.063.05zm18.353 83.857c1.437 1.313 2.516 3.059 3.96 3.449 2.524.678 4.523 1.592 5.267 4.055 1.017-.459 1.828-.709 2.499-1.164.615-.42 1.503-1.039 1.535-1.612.159-2.81.072-5.633.072-8.684 3.068 1.588 2.407 4.085 2.383 6.381-.023 2.396-.005 4.793-.005 7.189.238.122.477.244.714.367.972-.928 1.89-1.92 2.934-2.757.498-.396 1.233-.497 2.317-.902 0-3.173-.001-6.704.001-10.235.002-3.518-2.833-5.802-5.778-5.133-.533-.693-.819-1.479-1.309-1.639-2.581-.846-5.241-1.449-7.82-2.296-5.438-1.785-7.807-1.212-11.477 3.169-.876 1.043-1.457 2.338-2.184 3.534.598.688 1.137 1.2 1.541 1.803.404.604.765 1.27.985 1.957.814 2.529 2.556 3.364 4.365 2.518zm-9.23-67.666l.601-.345c-.208-.714-.22-1.612-.673-2.098-.68-.728-1.627-1.253-2.539-1.704-1.524-.754-4.108-.172-4.847 1.478-.503 1.124-.269 2.74.054 4.032.448 1.785 1.521 3.421 1.904 5.212.514 2.403 2.557 4.988 4.206 5.137-.044.734-.282 2.011-.101 2.074 2.57.886 1.109 2.542.808 3.94 3.335 1.264 6.079-.582 7.482-5.312l.419 1.134.515-.465c-.917-1.06-1.642-2.469-2.793-3.104-2.069-1.14-2.57-2.763-2.474-5.084l1.571 2.215c-.202-3.555-1.39-5.803-4.133-7.11zm6.49 41.702c-.081-1.406.288-2.977-.294-3.514-1.257-1.156-2.953-1.896-4.563-2.587-1.308-.563-3.038.618-2.805 1.85.395 2.086.85 4.183 1.541 6.186.439 1.276 1.292 2.499 3.155 1.761l-1.205-1.732h3.026l-2.58-2.854c1.378.328 2.345.56 3.725.89zm-1.627-7.623c-3.91-2.416-1.964-6.476-3.814-9.432-.64 2.283-1.188 4.563-1.293 6.863-.105 2.257 1.865 3.386 5.107 2.569zm5.518-32.099c-1.967 1.952-1.159 3.275.464 4.428l-1.266.825c1.334.147 2.382.263 3.431.376-1.343-6.826-1.343-6.826-2.583-7.102l2.089 3.931-.551.259-1.584-2.717zm-5.571 30.449c-.9-3.051-.021-6.618-2.654-9.091 1.581 2.847-.166 6.658 2.654 9.091zm-22.17-48.326l4.357 2.269c-.114-2.639-.75-2.951-4.357-2.269zm11.09 89.644c-2.464 1.182-2.945 2.323-1.628 4.21.544-1.404 1.058-2.733 1.628-4.21zm6.135-53.131c.075.286.149.572.226.858l5.79-1.833-.167-.542c-.978.274-1.953.564-2.935.82-.966.25-1.942.466-2.914.697z"/><path fill="#FFF" d="M67.267 79.589c1.427-1.108 2.946-2.005 3.296-4.135.219-1.331 3.21-2.174 4.639-1.738.527.161 1.144.026 1.603.026l-.625 7.565c3.083-1.647 3.718-2.692 3.138-4.018l2.847-3.446-2.302-.218c-.548-1.35 2.621-1.81 7.634-1.175l-1.193 1.841.127.16c.937-.796 1.873-1.594 2.809-2.391l.294.329-.847 2.437c2.164-.539 3.158-3.604 5.753-2.021.222.135.113.811.166 1.311h1.016l-1.063 1.393.317.507 4.334-2.1-.815 3.359 4.639-.702.139.622-2.378.714.319 1.523 2.145-1.108.172.185-1.025 1.1.233.33 2.461-1.379v-6.181l2.896-.169c-2.78 1.555-2.821 2.136-.391 4.172.577.484 1.04 1.107 1.466 1.57l-5.536 2.955.294 1.612 5.503-3.155.166.391-4.541 4.103c3.004 1.292 4.468-.563 6.272-1.384-.819-.261-1.641-.359-2.328-.098-.741.281-1.356.897-2.026 1.366l-.437-.688 5.379-3.245c-1.802-1.912-4.288-3.444-2.064-6.377l-1.695-1.278c2.045.63 4.111 1.205 6.132 1.908 1.746.607 2.399 2.175 1.779 3.904-.955 2.666-2.359 4.889-5.153 6.049-1.583.657-3.025 1.65-4.906 2.701-.069.189-.61.97-.568 1.718.079 1.397.334 2.834.814 4.145.571 1.558 1.342 2.992-.557 4.593-1.596-3.356-4.548-4.1-7.754-4.177l-2.217 1.72c-.629-1.313-1.13-2.356-1.631-3.398l-.668.258c.168.549.426 1.089.484 1.648.113 1.097.114 2.206.162 3.31l-3.063-.203 1.36 2.296-1.875.579c-.141 2.419-.296 4.582-.387 6.746-.086 2.031-.202 4.071-.075 6.092.028.445 1.021.83 1.57 1.241l.739-.152-.795 3.291-3.642-2.325c.086 1.692-1.207 2.448-2.884 2.388-2.27-.079-4.51-.38-5.933 2.502l-1.219-2.948c-.626 1.452-.418 2.429 1.001 2.843 1.04.303 2.283.795 3.193.488 2.313-.783 3.685-.469 3.974 2.564 1.558-2.789 4.158-2.931 6.634-3.506 2.031-.471 3.016-2.814 2.058-4.801-.808-1.673-1.195-2.775.6-4.327.892-.771.83-3.174.505-4.69-.376-1.756-.3-2.645 1.621-2.987 3.012-.537 5.999-1.225 9.009-1.769.412-.074 1.081.194 1.313.526.216.308.205 1.081-.038 1.363-2.083 2.415-1.937 5.582-2.974 8.337-.268.712-1.078 1.376-1.803 1.718-.82.386-1.822.384-2.753.553 1.05 4.159.312 7.559-2.997 10.221-.958.771-1.716 1.791-2.661 2.582a3.348 3.348 0 0 1-1.721.717c-1.244.123-2.512-.019-3.754.112-1.07.112-1.867.037-2.25-1.156-.376-1.174-1.1-1.126-2.057-.541-3.652 2.236-7.435 4.118-12.285 3.677l1.612 3.029.196-.63c1.422-.05 2.861.026 4.262-.176 2.387-.342 4.605 1.174 7.21.055 1.737-.747 4.107.064 6.188-.013.753-.028 1.487-.611 2.131-.897.491 1.653 1.052 3.538 1.61 5.423.021.069.05.162.022.215-1.111 2.133-2.228 4.263-3.39 6.481-.169-.047.209.178.559.141 5.964-.637 11.686.077 17.202 2.601 1.584.725 3.477.775 5.42 1.175.006-.057-.225.508-.048.702 3.326 3.657 2.612 8.581 3.874 12.858.719 2.44-1.429 4.692-3.614 6.465-.167-.511-.355-.955-.456-1.418-.992-4.528-1.739-9.128-3.058-13.559-.569-1.914-2.309-3.479-3.738-5.519.564 2.704.952 4.788 1.444 6.849.333 1.395 1.297 2.812 1.138 4.118-.463 3.819-2.037 7.165-5.53 9.275-.364.222-.652.568-1.308 1.154-.224-1.404-.595-2.582-.562-3.749.077-2.874.388-5.74.51-8.613.084-1.999.248-4.062-1.405-6.26-1.245 4.104-.726 7.652-.279 11.743l-3.623 7.239-.308-2.675-1.501.591c-2.833 1.103-3.85.341-3.675-2.694.064-1.109.01-2.226.01-2.963-9.606-.03-18.703 1.083-27.412 2.28.674.978 1.18 1.989 1.947 2.729.556.536 1.432.82 2.215 1.024 1.28.331 2.6.508 3.904.75l-.103.708H42.029l.885-2.458c3.973.84 7.742-.078 11.373-1.726-2.368 0-4.743.125-7.098-.043-1.64-.115-3.262-.579-4.871-.975-2.357-.577-4.107.879-6.26 1.388l1.133 3.596h-6.453l4.987-.901-.038-.577c-.355-.021-.714-.086-1.065-.06-3.271.256-5.412-1.542-5.579-4.843-.313-6.173-.46-12.355-.868-18.52-.205-3.083.599-5.825 1.911-8.508.324-.664.661-1.321.988-1.983 1.364-2.757 1.27-3.052-1.604-4.221.604-.384 1.013-.761 1.494-.928 1.391-.486 2.813-.88 4.22-1.323 3.102-.976 5.188-2.667 5.963-6.173.422-1.913 2.179-3.554 3.417-5.257.902-1.242 2.087-2.293 2.887-3.589 1.633-2.646 3.628-4.757 6.383-6.348 1.117-.645 1.725-2.453 2.206-3.855.814-2.377 1.364-4.829 3.528-6.467.298-.226.475-.78.487-1.189.076-2.673 2.079-4.172 3.539-6.019.666-.843 1.168-1.816 1.744-2.727l-.198 1.094.308.09 1.201-2.182c2.165 1.759 2.308 1.772 3.851.175-2.145-.298-1.038-1.579-.681-2.94-1.05.274-1.8.464-2.552.655zM82.608 99.06c-.186-1.148-.265-2.329-.606-3.428-.145-.463-.857-1.095-1.282-1.073-4.345.222-6.046 1.618-7.433 5.895-.61 1.883.348 3.122 2.347 3.006 1.104-.064 2.206-.175 3.31-.255 3.272-.241 3.763-.806 3.664-4.145zm-12.262 21.863l-2.477-10.195c1.001 3.08-1.045 5.168-2.372 7.711l-.172-3.882-.665-.06-1.146 7.118 6.832-.692zM73.487 134c-.593.113-1.013.193-1.769.339 1.435 2.617 3.752 3.657 6.003 3.879 1.221.121 2.623-1.572 3.943-2.446-.711-.157-1.178.043-1.614.294-1.391.805-2.388 1.002-3.226-.905-.548-1.249-1.867-2.158-2.841-3.22l-.496.374V134zm-16.476-32.63l1.237 4.966 3.513-3.647c-1.586-.439-3.022-.838-4.75-1.319zm3.85 18.982c-1.061.92-1.858 1.449-2.43 2.158-.468.58-.824 1.355-.923 2.086-.055.405.518.896.808 1.349.413-.314 1.047-.546 1.198-.956.501-1.365.829-2.794 1.347-4.637zm10.205 11.388c-1.803-2.426-6.31-3.338-7.321-1.846l7.321 1.846zm-9.651-31.011c-1.709-1.767-2.721-3.417-1.307-5.488-2.431 2.791-2.082 4.811 1.307 5.488zm.898 10.678l-.574.007.483 8.984.091-.037v-8.954zm21.117-36.85c-1.782 1.023-3.058 3.628-2.354 5.069l2.354-5.069zM65.995 88.184l.878.047.274-4.436-.921-.051-.231 4.44zM126.347 156.068c-1.809.846-3.55.011-4.364-2.519-.221-.688-.581-1.353-.985-1.957-.404-.603-.943-1.115-1.541-1.803.727-1.196 1.307-2.49 2.184-3.534 3.669-4.382 6.039-4.955 11.477-3.169 2.58.847 5.239 1.45 7.82 2.296.49.161.776.946 1.309 1.639 2.946-.669 5.781 1.615 5.778 5.133-.002 3.531-.001 7.063-.001 10.235-1.084.405-1.82.506-2.317.902-1.043.837-1.962 1.829-2.934 2.757l-.714-.367c0-2.396-.019-4.794.005-7.189.023-2.296.685-4.793-2.383-6.381 0 3.051.087 5.874-.072 8.684-.032.573-.92 1.192-1.535 1.612-.67.455-1.482.705-2.499 1.164-.744-2.463-2.743-3.377-5.267-4.055-1.446-.389-2.525-2.135-3.961-3.448z"/><path fill="#FFF" d="M117.117 88.402c2.743 1.307 3.931 3.554 4.131 7.111l-1.571-2.215c-.096 2.322.405 3.944 2.474 5.084 1.152.635 1.876 2.044 2.793 3.104l-.515.465-.419-1.134c-1.403 4.729-4.146 6.575-7.482 5.312.301-1.397 1.762-3.054-.808-3.94-.181-.063.056-1.34.101-2.074-1.649-.148-3.692-2.734-4.206-5.137-.382-1.791-1.456-3.427-1.904-5.212-.323-1.292-.557-2.908-.054-4.032.739-1.65 3.323-2.232 4.847-1.478.912.451 1.859.976 2.539 1.704.453.485.464 1.384.673 2.098l-.599.344zm-.581-.994c-.834-1.704-1.919-2.001-3.049-1.395-.692.371-1.112 1.251-1.654 1.903l.5.484 4.203-.992zm2.944 17.328c2.315-.544 2.781-1.994 1.58-3.977-.449 1.133-1.008 2.54-1.58 3.977zm-2.078-9.149l.103-1-3.544-.265-.083.861 3.524.404zM123.607 130.104l-3.723-.891 2.58 2.854h-3.026l1.205 1.732c-1.863.738-2.716-.484-3.155-1.761-.691-2.003-1.146-4.099-1.541-6.186-.233-1.232 1.497-2.413 2.805-1.85 1.61.692 3.306 1.431 4.563 2.587.58.538.211 2.109.292 3.515z"/><path d="M108.058 72.156l1.695 1.278c-2.224 2.933.263 4.465 2.064 6.377l-5.379 3.245.437.688c.67-.469 1.286-1.085 2.026-1.366.687-.261 1.509-.163 2.328.098-1.804.821-3.268 2.676-6.272 1.384l4.541-4.103-.166-.391-5.503 3.155-.294-1.612 5.536-2.955c-.426-.463-.889-1.085-1.466-1.57-2.431-2.037-2.389-2.617.391-4.172l.062-.056z"/><path fill="#FFF" d="M121.98 122.481c-3.242.817-5.212-.312-5.107-2.569.105-2.299.653-4.58 1.293-6.863 1.85 2.956-.096 7.016 3.814 9.432zM127.498 90.382l1.584 2.717.551-.259-2.089-3.931c1.24.276 1.24.276 2.583 7.103-1.048-.114-2.096-.23-3.431-.377l1.266-.825c-1.623-1.153-2.432-2.476-.464-4.428z"/><path d="M67.267 79.589l2.554-.649c-.357 1.361-1.464 2.642.681 2.94-1.543 1.597-1.686 1.584-3.851-.175l-1.201 2.182-.308-.09.198-1.094 1.927-3.114z"/><path fill="#FFF" d="M121.927 120.831c-2.82-2.432-1.073-6.244-2.654-9.091 2.633 2.472 1.754 6.039 2.654 9.091zM99.757 72.505c3.607-.682 4.243-.37 4.357 2.269-1.43-.746-2.735-1.425-4.357-2.269zM110.847 162.149c-.57 1.477-1.084 2.806-1.628 4.21-1.317-1.886-.836-3.028 1.628-4.21zM116.982 109.018c.971-.231 1.947-.447 2.914-.698.982-.256 1.957-.545 2.935-.82l.167.542-5.79 1.833-.226-.857z"/><path d="M82.608 99.06c.099 3.339-.392 3.904-3.665 4.144-1.104.081-2.205.191-3.31.255-1.999.116-2.957-1.123-2.347-3.006 1.387-4.276 3.088-5.673 7.433-5.895.425-.022 1.138.61 1.282 1.073.342 1.1.421 2.281.607 3.429zM70.346 120.923l-6.832.692 1.146-7.118.665.06.172 3.882c1.326-2.543 3.373-4.631 2.372-7.711l2.477 10.195zM73.487 134v-1.684l.496-.374c.974 1.062 2.293 1.972 2.841 3.22.838 1.907 1.835 1.709 3.226.905.437-.251.903-.452 1.614-.294-1.32.874-2.722 2.567-3.943 2.446-2.251-.222-4.569-1.262-6.003-3.879.756-.147 1.176-.227 1.769-.34zM57.011 101.37l4.75 1.319-3.513 3.647-1.237-4.966zM60.861 120.352c-.518 1.844-.846 3.272-1.348 4.636-.15.41-.785.642-1.198.956-.29-.453-.862-.943-.808-1.349.1-.73.456-1.506.923-2.086.573-.709 1.37-1.237 2.431-2.157zM71.066 131.74l-7.321-1.846c1.011-1.492 5.519-.58 7.321 1.846zM61.415 100.729c-3.388-.676-3.737-2.697-1.307-5.488-1.414 2.071-.402 3.721 1.307 5.488zM62.313 111.407v8.955l-.091.037c-.161-2.996-.321-5.99-.483-8.984l.574-.008zM83.43 74.557l-2.354 5.069c-.703-1.441.572-4.046 2.354-5.069zM65.995 88.184l.23-4.44.921.051-.274 4.436-.877-.047zM116.536 87.408l-4.203.993-.5-.484c.542-.652.961-1.532 1.654-1.903 1.13-.607 2.215-.31 3.049 1.394zM119.48 104.736l1.58-3.977c1.202 1.983.735 3.433-1.58 3.977zM117.402 95.587l-3.525-.403c.028-.287.057-.574.083-.861l3.544.265-.102.999z"/></g><g fill-rule="evenodd" clip-rule="evenodd"><path d="M154 70.424h122.053v96.91H154v-96.91zm65.723 70.496l-.205 1.051 4.012-1.375c-.058-.194-.113-.387-.17-.582l-3.673.944c.419-.364.785-.845 1.269-1.071.998-.468 2.057-.802 3.092-1.191a26.382 26.382 0 0 0-.096-.35c-.216-.061-.435-.12-.449-.124l2.715-4.339c-.063.519-.127 1.078-.193 1.638 1.022-.994 1.261-2.207 1.157-3.459-.033-.404-.41-.883-.766-1.136-1.105-.786-2.278-1.479-3.424-2.208.063-.11.122-.221.185-.331.674.233 1.333.524 2.024.681.708.162 1.447.193 2.423.312l-3.114-1.589c.075-.138.15-.277.227-.416 1.208 1.05 3.498.187 4.031 2.448.009.041.197.04.021.01.43-.895.807-1.67 1.171-2.453.12-.255.186-.538.307-.792.57-1.195 1.003-2.494 1.773-3.543.708-.962.301-1.306-.593-1.914-.965 1.94-1.89 3.794-2.975 5.976 0-.767.042-1.17-.015-1.56-.04-.293-.205-.569-.315-.853-.203.261-.535.499-.586.787-.124.69-.116 1.403-.17 2.244-.807-.417-1.529-.555-1.244-1.604.164-.603.036-1.28.085-1.92.073-.998-.777-1.128-1.359-1.215-.295-.043-.923.603-1.005 1.016-.164.803-.049 1.661-.049 2.619-.161-.279-.361-.484-.403-.718a53.26 53.26 0 0 1-.384-2.64c-.072-.573-1.559-1.894-1.938-1.601-.381.292-.671 1.01-.616 1.499.143 1.273.419 2.546.787 3.776.496 1.662 1.243 3.253 1.664 4.93.417 1.646-.033 3.256-1.027 4.617-.836 1.143-1.857 2.149-2.752 3.25-.595.733-.457 1.203.578 1.186zm-1.535-3.102c.233.14.613.447.681.39.468-.403.872-.881 1.296-1.338a8.577 8.577 0 0 0-.226-.184c-.592.39-1.188.779-1.781 1.169.226-.384.416-.794.682-1.147 2.426-3.21 2.8-6.645 1.291-10.366-.348-.856-.408-1.847-.495-2.787-.079-.866-.017-1.746-.017-2.527-1.225-.182-2.268-.281-3.286-.503-1.333-.292-1.827-1.771-1.024-3.211l.496 1.127c1.336-.317 1.837-1.325 2.2-2.675l.433 2.324.498.089c.29-.601.602-1.192.863-1.806.157-.37.185-.798.354-1.16.702-1.498.637-1.634-1.037-1.951-.233.631-.465 1.263-.699 1.894l-.301-.09c0-1.48.393-3.113-.109-4.398-.515-1.32-1.903-2.297-2.907-3.423.307-.256.784-.561 1.141-.968 1.663-1.894 3.325-2.918 6.188-.627.963.771 2.58.167 2.924-1.131-.627-.137-1.269-.227-1.879-.416-1.878-.583-2.151-1.134-1.601-3.04.086-.3.112-.617.157-.867-.634.458-1.152 1.14-1.721 1.188-1.766.148-3.55.055-5.396.055v1.044c-1.03.561-1.645.388-1.878-.783-.184-.922-.448-1.827-.686-2.78.294-.216.704-.5 1.09-.815.312-.254.547-.647.895-.801 1.356-.598 2.83-.956 3.518-2.541.256-.587.36-.939-.335-1.051-.781-.128-1.596-.071-2.367-.235-.434-.093-.808-.471-1.21-.721.356-.326.692-.68 1.083-.959.126-.091.392.037.591.018.478-.048.967-.077 1.43-.197.956-.25 1.976-.93 2.82-.748 1.147.247 1.826.243 2.166-1.06.966 1.928.393 3.082-1.663 3.577-.746.179-1.378.454-1.192 1.358.171.836.828 1.015 1.597.942.504-.048 1.011-.071 1.538-.106v1.109l.306.089c.137-.313.248-.641.416-.935.319-.548.55-1.348 1.028-1.563 1.517-.678 1.846-1.827 1.764-3.293-.022-.451.076-.909.15-1.719 3.044 3.144 4.712.361 6.737-1.337.244.581.524.961.553 1.36.104 1.479.328 1.758 1.603 1.87l.714 1.707c1.591-.188.681-1.348 1.004-2.2.845.648 1.578 1.214 2.311 1.778-.069.103-.14.205-.211.308l-1.572-.274c.216 1.051.306 1.89-.826 2.193-.15.041-.347.405-.3.545.057.165.353.353.543.353 1.045-.001 1.552.662 2.17 1.653l-1.792-.123 1.929 3.346c-.396.215-1.038.38-1.06.604-.118 1.208-.182 2.439-.075 3.646.146 1.68.701 3.354.645 5.016-.076 2.309-1.709 3.869-3.264 5.419-.472.471-1.029 1.429-.842 1.865.371.874 1.3.423 2.022.168l-1.597-.258c3.296-2.344 5.132-5.326 5.766-9.05-.402.911-.806 1.822-1.207 2.733l-.277-.106c.211-.816.525-1.62.617-2.449.173-1.564.464-3.179.229-4.698-.157-1.028.016-1.761.417-2.662 1.179.767.44 2.6 1.704 3.133 1.96-3.08-.886-5.719-.284-8.674h-1.239c.664-1.388 1.485-2.665 1.884-4.062.406-1.423.395-2.966.615-4.878l2.077 4.344c.563-1.996.403-3.909-.375-5.798l.439-.197 1.285 1.426c.559-2.368-.831-5.625-3.15-5.104l.887 1.428c-.071.094-.146.187-.216.279-.876-1.483-2.136-1.84-3.706-1.583.851 1.48.851 1.48.535 1.802l-6.197-2.996c.762-.962 1.757-1.15 2.903-.455.259.157.642.108 1.009.16l-.667-2.451.427-.143.565.929 2.12.236c-.495-.971-1.107-1.702-1.237-2.51-.306-1.898-1.837-2.621-3.11-3.591-.38-.291-.964-.315-1.455-.461-.108.486-.212.973-.329 1.457-.014.064-.092.112-.254.295l-1.009-1.994c-.905.518-1.83 1.001-2.705 1.559-1.047.665-2.004.421-2.821-.514-.432-.495-1.171-.909-1.813-.976-.609-.064-1.271.372-1.912.59.13-1.154-.916-.726-1.507-.618-.658.121-1.255.586-1.875.898-.448-1.089-.575-1.1-1.388-.296-.869-.176-1.465-.371-2.071-.406-1.286-.075-1.704 1.082-2.384 1.834-.614.681-1.024.545-1.49-.184l1.246-.98c-2.28.383-3.67 1.416-4.77 3.082-1.29 1.95-2.574 4-4.274 5.558-2.408 2.211-4.123 4.42-4.22 7.944-.074 2.704-.992 5.407-1.706 8.064-.32 1.188-1.065 2.262-1.615 3.388a20.552 20.552 0 0 1-.788 1.988c-.436.943-1.245 1.859-1.283 2.811-.095 2.333.112 4.684.29 7.021.14 1.833 1.133 3.587.477 5.5-1.329 3.874-2.643 7.752-3.969 11.627a10.922 10.922 0 0 1-2.692 4.282c-1.436 1.43-2.756 2.985-4.039 4.557-1.385 1.698-2.966 3.332-3.923 5.261-1.102 2.219-2.422 4.023-4.571 5.266-.938.542-1.756 1.295-2.622 1.963-.151.118-.338.258-.396.426-.337 1.013.624 2.614 1.738 2.936-.096.075-.19.147-.284.225l1.843 2.318c-.031.049-.24.357-.469.697-.707-.829-1.354-1.584-2.162-2.535-.81 2.705-2.218 4.603-3.75 6.472-.727.881-1.255.977-2.1.4-1.332-.91-2.672-1.806-4.069-2.748 1.334-.823-.522-1.1-.313-1.874l.746-.521c-.185-.257-.514-.523-.469-.68.359-1.216.667-2.474 1.257-3.576.285-.539 1.142-.77 1.855-1.208-.03-.211-.082-.6-.118-.86.358-.384.878-.687.875-.98-.035-1.653 1.256-2.534 2.218-3.356 1.233-1.049 1.58-2.223 1.731-3.721l-1.127.468c.234-1.437 1.033-1.939 2.259-2.098 1.071-.138 2.128-.438 3.017-1.569-1.775-.346-3.053.209-4.266.956-1.59.982-3.163 1.995-4.72 3.027-3.562 2.36-6.9 5.037-8.875 8.883-1.829 3.563-3.313 7.315-4.762 11.056-.414 1.069-.169 2.391-.239 3.834 2.999-.292 4.106-3.159 6.82-3.799-.592-.357-.829-.498-1.066-.643.024-.098.052-.198.078-.297 1.024.062 2.051.122 3.432.202-2.383 1.547-5.385 1.645-6.274 4.64 3.048 0 6.067.02 9.084-.043.227-.006.606-.603.631-.948.082-1.105.03-2.224.03-3.303.673.346.681 1.068.626 1.872-.1 1.46.434 2.488 1.256 2.482 2.397-.018 4.794-.029 7.191-.118.654-.026 1.302-.325 1.95-.499a12.293 12.293 0 0 0-.07-.29c-.72-.096-1.439-.188-2.16-.282l-.009-.484c.968-.084 1.938-.164 2.906-.248-.009-.06-.016-.12-.024-.181l-1.167-.4c2.275-.841 3.558.423 5.028 1.685-.667.222-1.251.414-1.834.607 1.166.225 2.321.323 3.475.329 6.954.022 13.91.043 20.865.031 5.854-.012 11.71-.086 17.564-.098 3.456-.006 6.912.089 10.366.058.582-.006 1.162-.412 1.639-.594l3.09.49c.055-.121.109-.243.164-.36-.162-.279-.325-.559-.32-.553-.688.136-1.38.448-1.553.268-.651-.683-1.138-1.526-1.747-2.401 1.626.161 3.27.282 4.899.504 1.247.169 2.552.806 3.361-.982l.423 1.111c.556-1.218.375-1.506-1.159-2.107.104-.363.206-.729.343-1.219-.906-.227-1.718-.368-2.47-.662-.24-.092-.41-.585-.44-.907-.021-.202.279-.435.435-.653-.12.04-.239.081-.358.117-.366-.535-.634-1.2-1.123-1.572-.479-.362-1.182-.422-1.821-.63-.029-.257-.077-.659-.121-1.06-.289.319-.598.628-.861.968-.122.158-.16.386-.31.771-1.017-1.656-3.153-.597-3.795-2.416l.941-.372.448-2.793c.793.708 1.488 1.33 2.182 1.955.111-.086.222-.176.331-.262-.174-.36-.26-.818-.536-1.063-1.354-1.204-2.731-2.389-4.162-3.499-.779-.605-1.659-1.098-2.542-1.552-.443-.23-.996-.389-1.488-.366-1.484.075-2.964.257-4.447.386a.497.497 0 0 1-.336-.099c-1.178-1.056-2.518-1.986-3.486-3.21-1.947-2.462-3.579-5.152-4.504-8.193-.102-.338.111-.773.188-1.214.39.502.662.854.933 1.205l1.223-1.039c-.099.506-.216.937-.255 1.373-.021.254.079.519.124.778.275-.095.661-.112.803-.305.354-.484.733-1.017.853-1.584.267-1.252.379-2.537.548-3.752.888 2.362.55 4.222-1.132 6.18-.139.161-.167.415-.245.622.248.063.507.199.74.164.209-.035.4-.25.605-.387zm53.868 22.273c.134-.048.27-.1.403-.149-.147-.507-.152-1.137-.47-1.497-.629-.72-1.387-1.343-2.166-1.903-.849-.613-1.745-1.185-2.685-1.642-1.803-.878-3.575-1.869-5.757-1.316-.908.23-1.973.354-2.853.112-3.35-.915-6.147-2.8-8.655-5.197-1.162-1.11-1.794-2.913-3.96-3.08.961-.873.349-1.394-.196-1.993a12.914 12.914 0 0 1-1.383-1.846c-.713-1.146-1.862-1.589-3.121-1.126-2.555.945-4.745 4.412-4.419 7.082.039.327.322.826.577.89 1.294.318 1.498 1.181 1.387 2.314-.138 1.412.146 2.64 1.492 3.457.542.328 1.132.795 1.384 1.343.383.835 1.021 1.094 1.78 1.27 3.044.705 6.09 1.419 9.139 2.097 1.3.288 2.649.386 3.921.751 2.273.66 4.5 1.65 6.864.136l-.106 1.33.489.118 1.021-3.341c1.309.988.735 2.601 1.2 3.802 1.448.524 2.44.207 2.862-1.343.056-.2.307-.354.658-.736l-.473 2.209c1.976-1.271.906-2.753 1.023-4.156.683.802 1.364 1.608 2.044 2.414zm-10.612 6.108c2.274.109 4.454.248 6.634.309 1.866.049 3.733.043 5.599-.006.438-.015 1.151-.222 1.235-.495.127-.409-.087-1.025-.353-1.421-.273-.408-.744-.84-1.2-.936-1.66-.345-3.347-.569-5.029-.807-.957-.135-1.993-.02-2.869-.348-1.14-.427-1.578.167-1.977.944-.282.544-.43 1.158-.687 1.878-.545.132-.896-1.55-1.821-.511l.468 1.393zm-37.969-47.277c-1.175-.575-.746-1.368-.571-2.052.166-.653 1.104-1.568-.607-1.371-.044.005-.088-.191-.166-.241-.323-.205-.662-.39-1.125-.66v3.599l-1.536.316-.003.342c1.2.311 2.387.697 3.604.887.404.062.891-.383 1.34-.596a27.909 27.909 0 0 1-.121-.339l1.201.614c-.46-.996.42-2.138-1.138-2.306l.976-1.485-.478-.273c-1.426.603-1.176 2.12-1.376 3.565zm9.357-5.073l-.101-.112-2.117 3.066-.337-.861c-.612.43-1.138.832-1.694 1.18-1.247.779-1.586 1.641-.87 2.684.626-1.34 1.512-2.149 3.06-1.551.119.046.466-.193.537-.368.531-1.337 1.019-2.691 1.522-4.038zm14.631-17.306c-2.163.64-1.876 2.88-3.346 4.148 1.688.385 2.266-.712 2.936-1.434.67-.72.839-1.663.41-2.714zm-21.905 45.083c-2.277-.775-4.769.196-4.897 1.905l4.897-1.905zm26.476 24.616c.964-.294 1.69-.516 2.415-.734l-1.141-1.773-1.274 2.507zm-24.196-30.7c.88-1.057.996-2.085.865-3.167-.017-.145-.279-.395-.364-.371-.188.053-.473.244-.48.388-.043.969-.021 1.94-.021 3.15zm-8.433-27.94c.836-.62 1.526-.942.916-1.635-.232-.265-.85-.19-1.291-.269l.375 1.904zm17.836 16.599c.014.125.024.25.04.374l3.43-.708-.126-.564c-1.115.299-2.231.598-3.344.898zm11.556-27.035l-.477.072c.078.639.151 1.279.228 1.919l.46-.042c.198-.665.644-1.345-.211-1.949zm-16.601 37.029c-.106-.115-.214-.228-.321-.343-.667.555-1.336 1.107-2.005 1.663.091.11.181.216.271.326l2.055-1.646z"/><path fill="#FFF" d="M218.186 137.821c-.202.134-.394.35-.609.381-.233.035-.492-.101-.74-.164.078-.208.106-.461.245-.622 1.682-1.958 2.02-3.817 1.132-6.18-.169 1.215-.281 2.5-.548 3.752-.119.567-.499 1.1-.853 1.584-.142.193-.527.21-.803.305-.045-.259-.146-.524-.124-.778.039-.436.156-.867.255-1.373l-1.223 1.039a465.47 465.47 0 0 0-.933-1.205c-.077.441-.29.875-.188 1.214.925 3.041 2.557 5.731 4.504 8.193.969 1.224 2.309 2.154 3.486 3.21.08.07.227.108.336.099 1.483-.129 2.963-.311 4.447-.386.492-.023 1.045.136 1.488.366.883.455 1.763.947 2.542 1.552 1.431 1.11 2.809 2.295 4.162 3.499.276.244.362.702.536 1.063-.109.086-.22.176-.331.262a581.685 581.685 0 0 0-2.182-1.955l-.448 2.793c-.255.102-.548.217-.941.372.642 1.819 2.778.76 3.795 2.416.149-.386.188-.613.31-.771.264-.34.572-.648.861-.968.044.4.092.803.121 1.06.64.208 1.343.268 1.821.63.489.372.757 1.037 1.123 1.572.119-.036.238-.077.358-.117-.155.219-.455.451-.435.653.03.322.2.815.44.907.752.294 1.563.436 2.47.662l-.342 1.219c1.533.602 1.714.89 1.158 2.107l-.423-1.111c-.81 1.788-2.114 1.151-3.361.982-1.63-.222-3.273-.343-4.899-.504.609.875 1.096 1.719 1.747 2.401.173.181.864-.132 1.553-.268-.005-.006.158.273.32.553-.055.117-.109.239-.164.36l-3.09-.49c-.477.182-1.057.588-1.639.594-3.454.031-6.91-.063-10.366-.058-5.854.012-11.71.086-17.564.098-6.955.012-13.911-.009-20.865-.031a18.773 18.773 0 0 1-3.475-.329l1.834-.607c-1.471-1.262-2.753-2.525-5.028-1.685l1.167.4.024.181c-.968.084-1.938.164-2.906.248l.009.484 2.16.282c.024.095.048.193.07.29-.648.174-1.296.473-1.95.499-2.397.089-4.794.101-7.191.118-.822.006-1.355-1.022-1.256-2.482.055-.804.047-1.526-.626-1.872 0 1.079.052 2.197-.03 3.303-.024.346-.404.942-.631.948-3.017.063-6.036.043-9.084.043.89-2.995 3.892-3.093 6.274-4.64-1.381-.08-2.407-.141-3.432-.202-.026.099-.054.199-.078.297.237.145.475.285 1.066.643-2.714.64-3.821 3.507-6.82 3.799.07-1.443-.175-2.765.239-3.834 1.448-3.74 2.933-7.492 4.762-11.056 1.975-3.847 5.313-6.523 8.875-8.883a177.46 177.46 0 0 1 4.72-3.027c1.213-.747 2.49-1.302 4.266-.956-.889 1.132-1.945 1.431-3.017 1.569-1.226.159-2.024.661-2.259 2.098l1.127-.468c-.151 1.498-.498 2.671-1.731 3.721-.962.823-2.253 1.704-2.218 3.356.003.294-.517.596-.875.98l.118.86c-.714.439-1.57.669-1.855 1.208-.59 1.103-.897 2.36-1.257 3.576-.045.156.284.423.469.68l-.746.521c-.21.774 1.646 1.051.313 1.874 1.397.942 2.737 1.838 4.069 2.748.845.576 1.373.48 2.1-.4 1.532-1.869 2.94-3.767 3.75-6.472.809.951 1.455 1.706 2.162 2.535.229-.34.438-.648.469-.697l-1.843-2.318c.094-.077.188-.149.284-.225-1.114-.322-2.075-1.923-1.738-2.936.058-.168.244-.308.396-.426.866-.668 1.684-1.421 2.622-1.963 2.149-1.242 3.47-3.046 4.571-5.266.957-1.929 2.538-3.563 3.923-5.261 1.283-1.572 2.604-3.127 4.039-4.557a10.91 10.91 0 0 0 2.692-4.282c1.326-3.875 2.64-7.754 3.969-11.627.656-1.912-.337-3.666-.477-5.5-.178-2.337-.385-4.688-.29-7.021.038-.952.848-1.868 1.283-2.811.297-.642.553-1.301.788-1.988.55-1.126 1.295-2.2 1.615-3.388.714-2.657 1.632-5.36 1.706-8.064.097-3.523 1.812-5.733 4.22-7.944 1.7-1.559 2.984-3.608 4.274-5.558 1.1-1.667 2.489-2.699 4.77-3.082l-1.246.98c.466.729.876.865 1.49.184.68-.752 1.098-1.909 2.384-1.834.606.036 1.202.23 2.071.406.813-.804.939-.793 1.388.296.62-.313 1.217-.777 1.875-.898.591-.107 1.637-.536 1.507.618.642-.218 1.303-.654 1.912-.59.643.067 1.382.481 1.813.976.817.936 1.774 1.179 2.821.514.875-.558 1.8-1.041 2.705-1.559l1.009 1.994c.162-.183.24-.231.254-.295.117-.484.221-.971.329-1.457.491.146 1.075.17 1.455.461 1.273.97 2.805 1.693 3.11 3.591.13.808.742 1.54 1.237 2.51l-2.12-.236-.565-.929-.427.143.667 2.451c-.367-.051-.75-.002-1.009-.16-1.146-.695-2.142-.507-2.903.455l6.197 2.996c.315-.322.315-.322-.535-1.802 1.57-.257 2.83.1 3.706 1.583.07-.093.145-.186.216-.279l-.887-1.428c2.319-.521 3.709 2.736 3.15 5.104-.415-.46-.852-.943-1.285-1.426l-.439.197c.778 1.89.938 3.803.375 5.798l-2.077-4.344c-.221 1.913-.209 3.455-.615 4.878-.398 1.397-1.22 2.674-1.884 4.062h1.239c-.602 2.955 2.244 5.594.284 8.674-1.264-.533-.525-2.366-1.704-3.133-.401.901-.574 1.633-.417 2.662.235 1.52-.056 3.134-.229 4.698-.092.829-.406 1.633-.617 2.449l.277.106c.401-.911.805-1.822 1.207-2.733-.634 3.725-2.47 6.707-5.766 9.05l1.597.258c-.723.254-1.651.705-2.022-.168-.188-.436.37-1.394.842-1.865 1.555-1.55 3.188-3.111 3.264-5.419.057-1.662-.498-3.335-.645-5.016-.106-1.208-.043-2.439.075-3.646.021-.225.663-.39 1.06-.604l-1.929-3.346 1.792.123c-.618-.991-1.125-1.654-2.17-1.653-.19 0-.486-.188-.543-.353-.047-.14.149-.504.3-.545 1.132-.303 1.042-1.142.826-2.193l1.572.274c.071-.103.142-.205.211-.308-.732-.564-1.466-1.13-2.311-1.778-.323.852.587 2.012-1.004 2.2l-.714-1.707c-1.274-.112-1.499-.391-1.603-1.87-.028-.399-.309-.779-.553-1.36-2.025 1.698-3.693 4.481-6.737 1.337-.074.811-.173 1.269-.15 1.719.082 1.466-.247 2.615-1.764 3.293-.479.215-.709 1.015-1.028 1.563-.168.294-.279.622-.416.935l-.306-.089v-1.109c-.527.035-1.034.058-1.538.106-.769.073-1.426-.106-1.597-.942-.186-.904.446-1.179 1.192-1.358 2.056-.495 2.629-1.649 1.663-3.577-.34 1.303-1.019 1.307-2.166 1.06-.845-.183-1.864.497-2.82.748-.463.121-.952.149-1.43.197-.199.019-.465-.109-.591-.018-.391.279-.727.633-1.083.959.402.25.776.628 1.21.721.771.165 1.586.107 2.367.235.695.112.591.464.335 1.051-.688 1.585-2.161 1.943-3.518 2.541-.348.153-.583.547-.895.801-.386.315-.796.599-1.09.815.237.953.502 1.858.686 2.78.233 1.171.848 1.344 1.878.783v-1.044c1.846 0 3.63.094 5.396-.055.568-.047 1.087-.729 1.721-1.188-.045.25-.071.567-.157.867-.551 1.906-.277 2.457 1.601 3.04.61.188 1.252.279 1.879.416-.344 1.298-1.961 1.902-2.924 1.131-2.862-2.292-4.524-1.267-6.188.627-.356.407-.834.711-1.141.968 1.004 1.126 2.393 2.104 2.907 3.423.502 1.285.109 2.918.109 4.398.101.03.2.061.301.09.234-.631.466-1.262.699-1.894 1.674.317 1.739.453 1.037 1.951-.169.362-.196.79-.354 1.16-.262.613-.573 1.205-.863 1.806l-.498-.089-.433-2.324c-.363 1.351-.864 2.358-2.2 2.675l-.496-1.127c-.803 1.44-.309 2.919 1.024 3.211 1.019.222 2.062.321 3.286.503 0 .781-.063 1.661.017 2.527.087.939.147 1.93.495 2.787 1.509 3.721 1.135 7.156-1.291 10.366-.266.353-.456.763-.682 1.147l.034-.031zm-13.45 20.779c-.879.817-1.503 1.373-2.089 1.964-.153.155-.188.432-.275.653.255-.005.525.05.76-.02.723-.216 1.423-.513 2.149-.711 1.367-.378 2.745-.706 4.286-1.098a2160.086 2160.086 0 0 1-2.744-2.946c.312-.104.571-.192.862-.293-1.464-1.176-2.866-2.259-4.217-3.401-.608-.519-1.018-1.451-1.693-1.68-1.793-.601-3.678-.921-5.527-1.353l-.242.418c.306.471.86.937.866 1.411.018 1.253.979 1.653 1.754 2.067 1.925 1.028 1.959.963 2.823 2.93.031.074.07.146.101.221.357.864.816 1.436 1.938 1.201.369-.077.861.427 1.248.637zm18.729-73.343c2.151-.032 4.164.949 6.049-.456.057-.042.201.025.302.052 1.294.35 2.577.884 3.923.13.105-.059.385.196.604.317.062-1.076 2.077-1.734 3.292-1.124l-.325.447 1.673.13c.075-.129.147-.259.222-.388-.399-.288-.768-.751-1.203-.828-.854-.149-1.771-.224-2.617-.075-1.077.189-1.662-.09-2.054-1.119-.196-.519-.696-.921-1.059-1.376l-.271.198v1.034c-.979.736-1.739.421-2.706-.013-1.125-.503-2.467-.533-3.717-.737-.38-.062-.963.135-1.121-.059-.263-.321-.337-.862-.337-1.309 0-.388.213-.774.33-1.162-1.626.886-.643 2.972-1.717 3.75-1.681 1.216.267 2.932-1.165 3.947 2.106 1.028 1.468-.967 1.897-1.359zm-10.249 1.306c.608-.131 1.404-.253 2.161-.495.226-.073.516-.521.476-.74-.128-.684-.222-1.566-.68-1.932-.328-.264-1.272.059-1.844.331-.479.229-.901.707-1.195 1.17-.596.936-.161 1.676 1.082 1.666zm4.942 70.453c.79.844 2.287 1.123 2.974.622 1.194-.876.313-1.783.125-2.609-1.053.674-2.035 1.301-3.099 1.987zm14.244-79.861c1.628-.377 3.302-.763 4.951-1.146-.267-1.249-1.306-.81-2.145-.882-1.604-.137-2.327.869-2.806 2.028zm-24.684 15.617c-2.672.42-4.551 2.736-4.539 5.72.834-2.734 2.209-4.615 4.539-5.72zm20.597 57.992l-.395.063c.075 1.065.123 2.134.249 3.194.027.227.347.422.53.633.137-.269.43-.562.385-.794-.202-1.041-.501-2.065-.769-3.096zm-13.01-40.804c-1.382 2.249-.316 4.208 0 6.344v-6.344zm-8.772-11.269l-2.101.708c.01.112.021.224.033.334l2.007.252c-.209.521-.34.843-.517 1.282 1.717-.7.655-1.68.578-2.576zm-36.232 67.396c.301-.55.828-1.1.713-1.396-.251-.64-.831-1.149-1.278-1.71l-.346.224c.26.826.522 1.652.911 2.882zm39.124-40.591v-2.713c-1.773.617-1.792 1.088 0 2.713zm-8.782-6.613c1.896.075 2.261-.152 2.494-1.43-.315.089-.653.273-.978.252-.313-.02-.612-.25-.898-.378-.22.549-.402 1.012-.618 1.556zm9.818-37.383c-1.639-.216-1.75-.126-2.374 2.255l2.374-2.255zm28.956 5.506c-.593-1.584-2.086-1.946-3.221-.952 1.069.316 2.04.604 3.221.952zm-36.471 1.389l.248.218 2.629-2.951c-1.935.312-2.416 1.514-2.877 2.733zm5.169 17.908c-.1-.027-.201-.056-.302-.082l-.771 2.656-1.096-.298-.041.125 1.75 1.076c.158-1.189.31-2.332.46-3.477zm7.437 17.13c-.83 1.955-.751 2.211.79 2.667l-.79-2.667zm-2.739-16.002c-1.455 1.54-2.023 3.309-1.619 4.476.492-1.365 1.027-2.845 1.619-4.476zm-2.268 21.473c-.898.277-1.509.465-2.119.655-.021.111-.043.223-.063.335.644.098 1.287.232 1.931.239.072.001.153-.726.251-1.229zm-6.678-22.718c-.152-.499-.272-.905-.398-1.317-1.794.678-1.794.678-1.844 1.186l2.242.131zm33.439-24.004c-1.457-.892-2.464-.8-3.147.205l3.147-.205zm-23.88 37.682c-.659.509-1.078.804-1.46 1.139-.212.187-.482.428-.515.671-.036.294.152.617.241.927l.45-.45 1.284-2.287zm-5.66-5.8l-.374-.148c-.401.502-1.43.749-.4 2.128.323-.83.549-1.406.774-1.98zm29.284-36.048c-.373-1.082-1.821-1.166-2.688-.223.847.069 1.731.143 2.688.223zm-30.716 9.666a99.72 99.72 0 0 0-.339-.253l-2.105 2.627c.098.08.197.161.298.241l2.146-2.615zm2.123-7.661l.095.559 2.508-.495-.055-.386-2.548.322zm2.545 44.817l.48.146c.2-.64.397-1.281.597-1.921l-.521-.158-.556 1.933zm25.05-36.795c.204 1.043.681 1.233 2.564.897-.993-.347-1.769-.62-2.564-.897zm-29.454 14.641l.403.175 1.22-2.446a41.21 41.21 0 0 0-.364-.183l-1.259 2.454zm3.245 6.494l.167.006v-3.67c-.057-.002-.111-.007-.167-.011v3.675z"/><path fill="#FFF" d="M272.056 160.091c-.68-.806-1.36-1.612-2.041-2.416-.117 1.403.952 2.886-1.023 4.156l.473-2.209c-.352.383-.603.536-.658.736-.422 1.55-1.414 1.867-2.862 1.343-.465-1.201.108-2.813-1.2-3.802l-1.021 3.341-.489-.118.106-1.33c-2.364 1.515-4.591.524-6.864-.136-1.271-.365-2.621-.463-3.921-.751-3.049-.678-6.095-1.392-9.139-2.097-.76-.176-1.397-.435-1.78-1.27-.252-.548-.842-1.015-1.384-1.343-1.346-.817-1.63-2.045-1.492-3.457.111-1.133-.093-1.996-1.387-2.314-.255-.063-.538-.563-.577-.89-.326-2.669 1.864-6.137 4.419-7.082 1.259-.463 2.408-.02 3.121 1.126.406.651.868 1.279 1.383 1.846.545.599 1.157 1.121.196 1.993 2.166.167 2.798 1.97 3.96 3.08 2.508 2.396 5.306 4.282 8.655 5.197.88.242 1.944.118 2.853-.112 2.182-.553 3.954.438 5.757 1.316.939.457 1.836 1.028 2.685 1.642.779.561 1.537 1.184 2.166 1.903.317.36.322.99.47 1.497-.137.051-.273.103-.406.151zM219.724 140.919c-1.035.018-1.174-.452-.58-1.185.895-1.101 1.916-2.107 2.752-3.25.994-1.36 1.444-2.971 1.027-4.617-.421-1.677-1.168-3.269-1.664-4.93a21.603 21.603 0 0 1-.787-3.776c-.055-.488.235-1.207.616-1.499.38-.293 1.866 1.028 1.938 1.601.112.882.227 1.765.384 2.64.042.234.242.439.403.718 0-.958-.115-1.816.049-2.619.082-.413.71-1.059 1.005-1.016.582.086 1.433.217 1.359 1.215-.049.641.079 1.317-.085 1.92-.285 1.048.438 1.187 1.244 1.604.054-.841.046-1.553.17-2.244.051-.289.383-.526.586-.787.11.284.275.559.315.853.057.39.015.793.015 1.56 1.085-2.182 2.01-4.036 2.975-5.976.894.608 1.301.952.593 1.914-.771 1.05-1.203 2.348-1.773 3.543-.121.255-.187.537-.307.792-.364.783-.741 1.559-1.171 2.453.176.03-.013.031-.021-.01-.533-2.262-2.823-1.398-4.031-2.448l-.227.416 3.114 1.589c-.976-.119-1.715-.15-2.423-.312-.691-.157-1.351-.448-2.024-.681-.063.11-.122.221-.185.331 1.146.729 2.318 1.422 3.424 2.208.355.253.732.732.766 1.136.104 1.253-.135 2.466-1.157 3.459l.193-1.638-2.715 4.339c.015.004.233.063.449.124l.096.35c-1.035.389-2.094.723-3.092 1.191-.483.226-.85.707-1.269 1.071l.038-.039zm.258-2.206c3.022.029 5.921-4.03 4.741-6.215-.416 2.841-1.944 4.843-4.741 6.215zM261.444 166.199l-.468-1.392c.925-1.039 1.276.643 1.821.511.257-.72.404-1.334.687-1.878.398-.777.837-1.371 1.977-.944.876.328 1.912.213 2.869.348 1.683.237 3.369.462 5.029.807.456.096.927.527 1.2.936.266.396.479 1.012.353 1.421-.084.273-.798.48-1.235.495-1.865.049-3.732.055-5.599.006-2.18-.062-4.359-.2-6.634-.31zM223.475 118.922c.2-1.445-.05-2.961 1.376-3.566.158.092.317.182.478.273l-.976 1.485c1.558.167.678 1.31 1.138 2.306l-1.201-.614.121.339c-.449.213-.936.658-1.34.596-1.218-.189-2.404-.576-3.604-.887l.003-.342 1.536-.316v-3.599c.463.27.802.455 1.125.66.078.05.122.247.166.241 1.712-.197.773.718.607 1.371-.175.685-.604 1.478.571 2.053zM232.832 113.849c-.503 1.347-.991 2.701-1.522 4.038-.071.175-.418.415-.537.368-1.548-.599-2.434.21-3.06 1.551-.716-1.043-.377-1.905.87-2.684.557-.348 1.082-.75 1.694-1.18l.337.861 2.117-3.066.101.112zM247.463 96.543c.429 1.051.26 1.993-.41 2.714-.67.722-1.248 1.819-2.936 1.434 1.47-1.268 1.183-3.507 3.346-4.148zM225.558 141.626l-4.897 1.905c.128-1.709 2.619-2.68 4.897-1.905z"/><path fill="#FFF" d="M219.687 140.959l3.673-.944.17.582-4.012 1.375c.096-.489.15-.771.206-1.051a.672.672 0 0 0-.037.038zM252.034 166.242l1.274-2.508 1.141 1.773-2.415.735zM227.838 135.542c0-1.21-.021-2.181.021-3.149.008-.145.292-.335.48-.388.085-.024.348.226.364.371.131 1.08.015 2.108-.865 3.166zM219.405 107.602l-.375-1.904c.441.079 1.059.004 1.291.269.611.693-.08 1.015-.916 1.635zM237.241 124.201c1.113-.3 2.229-.599 3.344-.898l.126.564-3.43.708c-.015-.125-.026-.25-.04-.374zM248.797 97.166c.855.604.409 1.284.211 1.949l-.46.042c-.076-.64-.149-1.28-.228-1.919l.477-.072zM218.158 137.855c.594-.39 1.189-.779 1.781-1.169.076.062.152.122.226.184-.424.457-.828.935-1.296 1.338-.067.057-.447-.25-.683-.389a.565.565 0 0 1-.028.036zM232.196 134.195l-2.055 1.646c-.091-.109-.181-.216-.271-.326.669-.556 1.338-1.108 2.005-1.663.107.115.215.228.321.343z"/><path d="M204.736 158.6c-.388-.21-.879-.714-1.249-.637-1.121.234-1.58-.337-1.938-1.201-.03-.074-.069-.146-.101-.221-.864-1.967-.898-1.901-2.823-2.93-.774-.414-1.736-.814-1.754-2.067-.006-.474-.561-.94-.866-1.411l.242-.418c1.85.432 3.734.752 5.527 1.353.676.229 1.085 1.161 1.693 1.68 1.351 1.143 2.753 2.226 4.217 3.401-.291.101-.551.189-.862.293.876.942 1.696 1.823 2.744 2.946-1.541.392-2.919.72-4.286 1.098-.727.198-1.427.495-2.149.711-.234.069-.505.015-.76.02.088-.222.122-.498.275-.653.587-.591 1.211-1.147 2.09-1.964zM223.465 85.257c-.429.392.209 2.387-1.896 1.36 1.432-1.015-.516-2.731 1.165-3.947 1.074-.778.091-2.865 1.717-3.75-.117.388-.33.774-.33 1.162 0 .447.074.988.337 1.309.158.193.741-.003 1.121.059 1.25.205 2.592.234 3.717.737.967.434 1.727.749 2.706.013v-1.034l.271-.198c.362.455.862.858 1.059 1.376.392 1.029.977 1.309 2.054 1.119.846-.149 1.764-.074 2.617.075.436.077.804.54 1.203.828-.074.129-.146.258-.222.388l-1.673-.13c.115-.16.222-.303.325-.447-1.215-.61-3.23.048-3.292 1.124-.22-.121-.499-.376-.604-.317-1.346.754-2.629.22-3.923-.13-.101-.027-.245-.095-.302-.052-1.886 1.404-3.899.423-6.05.455zM213.216 86.563c-1.243.011-1.678-.73-1.082-1.666.294-.464.717-.942 1.195-1.17.571-.272 1.516-.595 1.844-.331.458.366.552 1.249.68 1.932.04.219-.25.667-.476.74-.757.242-1.553.363-2.161.495zM218.158 157.016c1.063-.686 2.046-1.313 3.099-1.987.188.826 1.069 1.733-.125 2.609-.687.501-2.184.221-2.974-.622zM232.402 77.155c.479-1.16 1.202-2.166 2.807-2.027.839.072 1.878-.367 2.145.882l-4.952 1.145zM207.718 92.772c-2.33 1.105-3.705 2.986-4.539 5.72-.012-2.984 1.867-5.3 4.539-5.72zM228.315 150.764c.268 1.031.566 2.056.77 3.097.045.232-.248.525-.385.794-.184-.211-.503-.406-.53-.633-.126-1.061-.174-2.129-.249-3.194l.394-.064zM215.305 109.96v6.344c-.317-2.137-1.382-4.095 0-6.344zM206.533 98.691c.077.896 1.139 1.876-.577 2.576l.517-1.282-2.007-.252a18.866 18.866 0 0 1-.033-.334l2.1-.708zM170.301 166.087l-.911-2.883c.115-.075.232-.149.346-.224.447.561 1.027 1.07 1.278 1.71.115.297-.412.847-.713 1.397zM209.425 125.496c-1.792-1.625-1.772-2.096 0-2.713v2.713zM200.643 118.883c.217-.543.398-1.006.618-1.556.286.128.586.358.898.378.324.021.662-.163.978-.252-.234 1.278-.599 1.505-2.494 1.43zM210.461 81.5l-2.374 2.255c.624-2.382.735-2.471 2.374-2.255zM239.417 87.006c-1.181-.348-2.152-.636-3.221-.952 1.135-.994 2.628-.633 3.221.952zM202.946 88.395c.461-1.219.941-2.42 2.877-2.733-1.023 1.15-1.827 2.051-2.629 2.951l-.248-.218zM208.115 106.303c-.15 1.145-.302 2.289-.46 3.476l-1.75-1.076.041-.125 1.096.298.771-2.656.302.083zM215.552 123.433l.79 2.667c-1.541-.456-1.62-.712-.79-2.667zM212.813 107.431c-.592 1.63-1.127 3.111-1.619 4.476-.405-1.167.163-2.936 1.619-4.476zM210.545 128.904c-.098.503-.179 1.23-.251 1.229-.644-.006-1.287-.141-1.931-.239.02-.112.042-.224.063-.335.61-.19 1.22-.378 2.119-.655zM203.867 106.186l-2.242-.131c.05-.508.05-.508 1.844-1.186.126.412.246.818.398 1.317z"/><path d="M237.306 82.182c-1.243.082-2.136.139-3.147.205.683-1.006 1.69-1.097 3.147-.205zM213.426 119.864l-1.283 2.288-.45.45c-.089-.311-.277-.633-.241-.927.032-.243.303-.485.515-.671.381-.336.8-.631 1.459-1.14zM207.766 114.064l-.774 1.98c-1.029-1.379-.001-1.626.4-2.128l.374.148zM237.05 78.016l-2.688-.223c.867-.943 2.315-.859 2.688.223zM206.334 87.682l-2.146 2.615c-.101-.08-.2-.161-.298-.241l2.105-2.627.339.253zM208.457 80.021l2.548-.321.055.386-2.508.495-.095-.56zM211.002 124.838c.187-.645.37-1.289.556-1.933.175.053.35.105.521.158-.199.64-.396 1.281-.597 1.921a43.85 43.85 0 0 1-.48-.146zM236.052 88.043c.795.277 1.571.55 2.564.897-1.884.336-2.36.146-2.564-.897zM206.598 102.684c.421-.818.839-1.636 1.259-2.454l.364.183-1.22 2.446-.403-.175zM209.843 109.178v-3.675l.167.011v3.67c-.057-.001-.112-.004-.167-.006zM219.982 138.713c2.797-1.373 4.324-3.374 4.741-6.215 1.18 2.185-1.718 6.244-4.741 6.215z"/></g></g></switch></svg>