<svg xmlns="http://www.w3.org/2000/svg" xmlns:xlink="http://www.w3.org/1999/xlink" width="300" height="300" viewBox="0 0 300 300"><switch><g><symbol id="a" viewBox="-150 -150 300 300.015"><path fill="#AEBCC4" d="M150-97.015c0-6.763 0-52.985-71.5-52.985H-84c-62.5 0-66 47.223-66 53.985v186c0 54.5 59.235 60 66 60l161.5.029c6.765 0 72.5-.029 72.5-60.029v-187z"/></symbol><use xlink:href="#a" width="300" height="300.015" x="-150" y="-150" transform="matrix(1 0 0 -1 150 150)" overflow="visible"/><g fill="#080828"><path d="M40.222 248.411l-2.784 9.169h-6.096l10.369-32.354h7.537L59.76 257.58h-6.337l-2.928-9.169H40.222zm9.265-4.464l-2.544-7.969c-.624-1.969-1.152-4.177-1.632-6.049h-.096c-.48 1.872-.96 4.128-1.536 6.049l-2.496 7.969h8.304zM84.288 250.571c0 2.784.096 5.089.192 7.009h-5.185l-.288-3.553h-.096c-1.008 1.681-3.313 4.081-7.489 4.081-4.272 0-8.161-2.545-8.161-10.177v-13.729h5.904v12.721c0 3.889 1.249 6.385 4.369 6.385 2.352 0 3.888-1.68 4.512-3.168a5.366 5.366 0 0 0 .336-1.824v-14.113h5.905v16.368zM112.03 234.202c-.096 1.584-.192 3.504-.192 6.721v13.249c0 4.896-1.008 8.4-3.456 10.608-2.448 2.16-5.809 2.833-9.025 2.833-2.976 0-6.145-.624-8.161-1.872l1.296-4.465c1.488.864 3.984 1.776 6.817 1.776 3.84 0 6.721-2.017 6.721-7.057v-2.017h-.096c-1.344 2.064-3.744 3.457-6.816 3.457-5.809 0-9.937-4.801-9.937-11.426 0-7.681 4.992-12.337 10.609-12.337 3.552 0 5.665 1.729 6.769 3.648h.096l.24-3.12h5.135zm-6.096 9.361c0-.527-.048-1.104-.192-1.584-.624-2.16-2.304-3.792-4.8-3.792-3.313 0-5.761 2.88-5.761 7.633 0 3.984 2.016 7.2 5.712 7.2 2.208 0 4.128-1.44 4.8-3.552.144-.624.24-1.44.24-2.112v-3.793zM122.349 247.547c.144 4.225 3.456 6.049 7.201 6.049 2.736 0 4.704-.384 6.48-1.056l.864 4.08c-2.016.816-4.8 1.44-8.161 1.44-7.584 0-12.049-4.657-12.049-11.81 0-6.48 3.937-12.577 11.425-12.577 7.585 0 10.081 6.24 10.081 11.377 0 1.104-.096 1.969-.192 2.496h-15.649zm10.273-4.128c.048-2.16-.912-5.713-4.849-5.713-3.648 0-5.185 3.313-5.424 5.713h10.273zM142.94 241.163c0-2.688-.048-4.945-.192-6.961h5.185l.288 3.504h.144c1.008-1.824 3.552-4.032 7.44-4.032 4.08 0 8.305 2.641 8.305 10.033v13.873h-5.904v-13.201c0-3.36-1.248-5.904-4.465-5.904-2.352 0-3.984 1.68-4.608 3.456-.192.528-.24 1.248-.24 1.92v13.729h-5.952v-16.417zM170.396 223.497h5.951v13.921h.097a7.925 7.925 0 0 1 2.929-2.688c1.152-.673 2.544-1.057 4.032-1.057 3.984 0 8.16 2.641 8.16 10.129v13.777h-5.904v-13.105c0-3.408-1.248-5.952-4.513-5.952-2.304 0-3.936 1.536-4.561 3.313-.191.479-.24 1.104-.24 1.776v13.969h-5.951v-34.083zM220.077 245.675c0 8.593-6.049 12.434-12.001 12.434-6.625 0-11.714-4.561-11.714-12.05 0-7.68 5.041-12.385 12.098-12.385 6.96 0 11.617 4.896 11.617 12.001zm-19.586-18.05c0-1.68 1.296-2.976 3.024-2.976 1.584 0 2.832 1.248 2.832 2.976 0 1.585-1.2 2.929-2.88 2.929-1.728 0-2.976-1.344-2.976-2.929zm1.968 18.29c0 4.513 2.209 7.921 5.809 7.921 3.36 0 5.713-3.313 5.713-8.017 0-3.648-1.633-7.825-5.665-7.825-4.176 0-5.857 4.032-5.857 7.921zm7.633-18.29c0-1.68 1.248-2.976 2.929-2.976 1.68 0 2.88 1.248 2.88 2.976 0 1.585-1.2 2.929-2.88 2.929-1.729 0-2.929-1.344-2.929-2.929zM224.922 223.497h5.953v13.921h.096a7.918 7.918 0 0 1 2.929-2.688c1.151-.673 2.544-1.057 4.032-1.057 3.984 0 8.16 2.641 8.16 10.129v13.777h-5.904v-13.105c0-3.408-1.248-5.952-4.513-5.952-2.304 0-3.937 1.536-4.561 3.313-.191.479-.239 1.104-.239 1.776v13.969h-5.953v-34.083zM256.554 247.547c.144 4.225 3.456 6.049 7.2 6.049 2.736 0 4.705-.384 6.48-1.056l.864 4.08c-2.016.816-4.8 1.44-8.16 1.44-7.585 0-12.05-4.657-12.05-11.81 0-6.48 3.937-12.577 11.426-12.577 7.584 0 10.08 6.24 10.08 11.377 0 1.104-.096 1.969-.191 2.496h-15.649zm10.272-4.128c.049-2.16-.912-5.713-4.848-5.713-3.648 0-5.185 3.313-5.425 5.713h10.273z"/></g><path fill="#080828" d="M166.274 29.175l-.036 25.5s-6.86-2.603-9.691-6.324l-3.631.007-7.342 6.574s-1.607 2.523-8.043 1.933l-30.458.08s-7.347.093-8.289-8.937l-.036-14.54s1.667-6.644 8.552-7.37l29.999-.077s5.968-.068 7.964 2.073l7.668 6.959 3.676-.008c0 .001 2.012-3.736 9.667-5.87z"/><path fill="none" d="M39 19h230"/><path fill-rule="evenodd" clip-rule="evenodd" fill="#FFF" d="M210.668 205.327c-.095-3.133 3.021-4.776 5.849-5.318 5.268-1.006 8.462-4.77 8.482-10.13.018-5.016.048-10.033-.01-15.049-.047-3.96-.242-4.094-4.182-4.092h-11.041c-.148-2.207-.375-4.403-.428-6.604-.207-8.304-.371-16.605-.521-24.91-.046-2.567 1.863-4.418 4.41-4.473 1.269-.026 2.534-.188 4.387-.333-.607-2.54-1.037-4.902-1.813-7.144-.187-.539-1.528-.677-2.551-1.083l-.764-3.447h-3.759c.199-3.491.259-6.889.611-10.256.653-6.233 1.47-12.448 2.238-18.668.94-7.627 1.79-15.269 2.944-22.864.251-1.649 1.442-3.279 2.541-4.643 1.323-1.641 2.714-3.055 2.266-5.45-.117-.629.597-1.387.833-2.117.403-1.238.944-2.486 1.033-3.757.105-1.529-.625-2.394-2.465-2.314-3.084.136-3.174-.236-3.854-3.36-.338-1.548-1.4-2.928-2.024-4.43-.222-.533-.222-1.216-.141-1.806.419-3.045 1.427-6.076 1.786-9.128.066-.557-.869-1.237-1.219-1.771-1.565-2.388-.979-4.204 1.744-4.836 3.672-.852 7.356-1.663 11.068-2.307 2.338-.406 4.163.926 5.589 2.573 4.421 5.11 5.746 10.813 2.682 17.085-1.055 2.158-.923 3.929.765 5.613.958.956 1.817 2.022 2.838 2.902 7.845 6.755 9.698 15.458 8.28 25.237-1.08 7.458-2.399 14.815-1.774 22.5.652 8.075.146 16.244.146 24.566l-3.884.275c.197 2.765.389 5.422.608 8.503h2.838c3.596-.004 7.19-.006 10.786-.011 3.188-.006 5.003 1.771 5.051 4.854.143 9.264.314 18.527.471 27.79.016.86.003 1.724.003 2.734l-15.78.751c.151 1.642.435 3.198.41 4.752-.102 6.683-.241 13.365-.523 20.041-.037.848-1.005 1.655-2 2.304.192 1.248.412 2.491.57 3.742.37 2.924-.446 4.223-3.317 4.428-3.011.216-6.055-.078-9.078.028-1.481.053-2.939.579-4.423.777-5.341.707-10.533-.244-15.678-1.154z"/><path fill="#C1272D" d="M175.685 38.968l20.25-.299-.115-5.099c.064-.064.23-.007.296.053l7.635 6.803c.064.06.064.16.004.223l-7.323 7.135c-.063.063-.229.009-.296-.05l-.104-4.696-20.25.3-.097-4.37z"/></g></switch></svg>