<svg xmlns="http://www.w3.org/2000/svg" xmlns:xlink="http://www.w3.org/1999/xlink" width="300" height="300" viewBox="0 0 300 300"><switch><g><symbol id="a" viewBox="-239.998 -118.656 300 300.671"><path fill="#91C4AB" d="M60.002-65.014c0-6.764-.002-53.643-71.502-53.643H-174c-62.5 0-65.998 47.879-65.998 54.643v185.999c0 54.5 59.233 60 65.999 60l161.499.029c6.766 0 72.502-.029 72.502-60.029V-65.014z"/></symbol><use xlink:href="#a" width="300" height="300.671" x="-239.998" y="-118.656" transform="matrix(1 0 0 -1 239.998 181.344)" overflow="visible"/><g fill="#012B16"><path d="M92.437 199.694v27.507c0 2.399.096 4.992.192 6.576h-5.28l-.24-3.696h-.096c-1.392 2.592-4.225 4.225-7.633 4.225-5.568 0-9.985-4.753-9.985-11.953-.048-7.825 4.848-12.481 10.465-12.481 3.216 0 5.521 1.345 6.577 3.072h.096v-13.249h5.904zm-5.905 20.451a8.31 8.31 0 0 0-.144-1.536c-.528-2.305-2.4-4.177-5.089-4.177-3.792 0-5.904 3.36-5.904 7.729 0 4.272 2.112 7.393 5.856 7.393 2.4 0 4.513-1.632 5.088-4.176.144-.528.192-1.104.192-1.729v-3.504zM105.06 203.871c0 1.775-1.296 3.168-3.36 3.168-1.968 0-3.265-1.393-3.265-3.168 0-1.824 1.344-3.217 3.313-3.217 2.015 0 3.263 1.393 3.312 3.217zm-6.289 29.906v-23.378h5.952v23.378h-5.952zM115.235 223.744c.144 4.225 3.456 6.049 7.201 6.049 2.736 0 4.704-.384 6.48-1.056l.864 4.08c-2.016.816-4.8 1.44-8.161 1.44-7.584 0-12.049-4.657-12.049-11.81 0-6.48 3.937-12.577 11.425-12.577 7.585 0 10.081 6.24 10.081 11.377 0 1.104-.096 1.969-.192 2.496h-15.649zm10.273-4.128c.048-2.16-.912-5.713-4.849-5.713-3.648 0-5.185 3.313-5.424 5.713h10.273zM157.188 210.399c-.096 1.584-.192 3.504-.192 6.721v13.249c0 4.896-1.008 8.4-3.456 10.608-2.448 2.16-5.809 2.833-9.025 2.833-2.976 0-6.145-.624-8.161-1.872l1.296-4.465c1.488.864 3.984 1.776 6.817 1.776 3.84 0 6.72-2.017 6.72-7.057v-2.017h-.096c-1.344 2.064-3.744 3.457-6.816 3.457-5.809 0-9.937-4.801-9.937-11.426 0-7.681 4.992-12.337 10.609-12.337 3.552 0 5.665 1.729 6.769 3.648h.096l.24-3.12h5.136zm-6.096 9.361c0-.527-.048-1.104-.192-1.584-.624-2.16-2.304-3.792-4.8-3.792-3.313 0-5.761 2.88-5.761 7.633 0 3.984 2.016 7.2 5.712 7.2 2.208 0 4.128-1.44 4.8-3.552.144-.624.24-1.44.24-2.112v-3.793zM167.507 223.744c.144 4.225 3.456 6.049 7.2 6.049 2.736 0 4.705-.384 6.48-1.056l.864 4.08c-2.016.816-4.8 1.44-8.16 1.44-7.585 0-12.05-4.657-12.05-11.81 0-6.48 3.937-12.577 11.426-12.577 7.584 0 10.08 6.24 10.08 11.377 0 1.104-.096 1.969-.191 2.496h-15.649zm10.272-4.128c.049-2.16-.912-5.713-4.848-5.713-3.648 0-5.185 3.313-5.425 5.713h10.273zM194.866 203.727v6.673h5.617v4.416h-5.617v10.321c0 2.832.769 4.32 3.024 4.32a8.78 8.78 0 0 0 2.305-.288l.096 4.513c-.864.336-2.4.576-4.272.576-2.16 0-3.984-.721-5.088-1.921-1.249-1.344-1.824-3.456-1.824-6.528v-10.993h-3.36V210.4h3.36v-5.28l5.759-1.393zM211.234 203.871c0 1.775-1.296 3.168-3.36 3.168-1.969 0-3.265-1.393-3.265-3.168 0-1.824 1.345-3.217 3.313-3.217 2.016 0 3.265 1.393 3.312 3.217zm-6.289 29.906v-23.378h5.953v23.378h-5.953zM234.419 233.058c-1.248.576-3.696 1.2-6.624 1.2-7.297 0-12.05-4.657-12.05-11.905 0-7.009 4.801-12.481 13.01-12.481 2.16 0 4.368.48 5.712 1.104l-1.056 4.416c-.96-.432-2.353-.912-4.465-.912-4.512 0-7.2 3.313-7.152 7.585 0 4.801 3.12 7.536 7.152 7.536 2.064 0 3.505-.432 4.657-.912l.816 4.369zM93.899 265.36c0-2.688-.048-4.945-.192-6.961h5.089l.24 3.456h.144c1.152-1.824 3.264-3.984 7.201-3.984 3.072 0 5.472 1.729 6.48 4.32h.096c.816-1.296 1.776-2.256 2.88-2.928 1.296-.912 2.785-1.393 4.705-1.393 3.888 0 7.825 2.641 7.825 10.129v13.777h-5.761v-12.913c0-3.889-1.344-6.192-4.176-6.192-2.016 0-3.504 1.439-4.128 3.12-.144.576-.288 1.296-.288 1.968v14.018h-5.761V268.24c0-3.265-1.296-5.568-4.032-5.568-2.208 0-3.696 1.728-4.225 3.36-.24.576-.336 1.248-.336 1.92v13.825H93.9V265.36zM155.532 274.769a137 137 0 0 0 .192 7.009h-5.185l-.288-3.553h-.096c-1.008 1.681-3.313 4.081-7.489 4.081-4.272 0-8.161-2.545-8.161-10.177V258.4h5.904v12.721c0 3.889 1.249 6.385 4.369 6.385 2.352 0 3.888-1.68 4.512-3.168a5.366 5.366 0 0 0 .336-1.824v-14.113h5.904v16.368zM161.626 276.353c1.345.816 3.889 1.681 6.001 1.681 2.592 0 3.744-1.057 3.744-2.593 0-1.584-.96-2.399-3.84-3.408-4.561-1.584-6.48-4.08-6.433-6.816 0-4.128 3.408-7.345 8.832-7.345 2.593 0 4.849.672 6.193 1.393l-1.152 4.176c-1.008-.576-2.881-1.344-4.944-1.344-2.112 0-3.265 1.008-3.265 2.448 0 1.488 1.104 2.208 4.08 3.265 4.225 1.536 6.193 3.696 6.241 7.152 0 4.225-3.313 7.297-9.505 7.297-2.832 0-5.377-.673-7.104-1.633l1.152-4.273zM188.219 251.871c0 1.775-1.296 3.168-3.36 3.168-1.969 0-3.265-1.393-3.265-3.168 0-1.824 1.345-3.217 3.313-3.217 2.016 0 3.264 1.393 3.312 3.217zm-6.289 29.906v-23.378h5.953v23.378h-5.953zM211.403 281.058c-1.248.576-3.696 1.2-6.624 1.2-7.297 0-12.05-4.657-12.05-11.905 0-7.009 4.801-12.481 13.01-12.481 2.16 0 4.368.48 5.712 1.104l-1.056 4.416c-.96-.432-2.353-.912-4.465-.912-4.512 0-7.2 3.313-7.152 7.585 0 4.801 3.12 7.536 7.152 7.536 2.064 0 3.505-.432 4.657-.912l.816 4.369z"/></g><path fill="none" d="M339 21v145"/><g><g fill-rule="evenodd" clip-rule="evenodd"><path d="M29 41h241v147H29z"/><path fill="#FFF" d="M41 170h17v7H41zM41 148h17v7H41zM41 124h17v7H41zM41 102h17v7H41zM41 80h17v7H41zM41 57h17v7H41zM241 170h17v7h-17zM241 148h17v7h-17zM241 124h17v7h-17zM241 102h17v7h-17zM241 80h17v7h-17zM241 57h17v7h-17zM68 58h163v113H68z"/></g><path fill-rule="evenodd" clip-rule="evenodd" fill="#C1272D" d="M162.625 125.556c4.158 6.702-.165 13.868-4.518 17.14l-8.158-21.141c4.979-.626 9.979-.35 12.676 4.001zm-18.384-9.261s-14.092 6.952-8.629 19.517c.943 2.165 4.759 6.364 7.341 4.913 1.106-.618-1.411-2.962-2.456-4.874-4.768-8.759 6.123-13.338 6.123-13.338l8.216 22.6-1.337.652c-4.524 1.88-16.866 4.384-22.113-7.115-5.97-13.096 5.288-24.173 10.685-29.182l2.17 6.827zm1.552-41.489c2.674 6.66 2.092 13.759-4.235 22.105 0 0-7.418-25.536-2.105-29.354 1.925-1.39 5.964 6.294 6.34 7.249zm6.351 4.382c3.359 18.39-7.26 27.59-7.26 27.59l2.425 8.021s19.479-7.225 25.176 9.147c4.932 14.177-12.643 23.322-12.703 23.521 2.626 7.416 4.667 14.305-3.732 18.402-3.604 1.757-10.719 3.752-13.568-2.091-1.487-3.049-1.173-6.817 2.294-8.509 3.858-1.881 7.157-.2 8.709 2.984.582 1.192 1.539 4.173-.462 5.475.468-.059.995-.316 1.269-.449 6.397-3.12 4.098-10.537 2.545-13.722-.195-.4-.324-.665-.717-.799-12.856 5.121-24.383-.59-28.848-9.745-1.163-2.384-2.059-5.237-2.156-8.14a28.19 28.19 0 0 1 .549-7.004c1.349-7.721 6.174-14.918 10.174-20.068.816-1.051 3.037-3.937 3.037-3.937s-12.03-32.613-.679-37.935c4.225-1.982 12.125 7.288 13.947 17.259z"/></g></g></switch></svg>