<?xml version="1.0" encoding="utf-8"?>
<!-- Generator: Adobe Illustrator 16.0.3, SVG Export Plug-In . SVG Version: 6.00 Build 0)  -->
<!DOCTYPE svg PUBLIC "-//W3C//DTD SVG 1.1//EN" "http://www.w3.org/Graphics/SVG/1.1/DTD/svg11.dtd" [
	<!ENTITY ns_extend "http://ns.adobe.com/Extensibility/1.0/">
	<!ENTITY ns_ai "http://ns.adobe.com/AdobeIllustrator/10.0/">
	<!ENTITY ns_graphs "http://ns.adobe.com/Graphs/1.0/">
	<!ENTITY ns_vars "http://ns.adobe.com/Variables/1.0/">
	<!ENTITY ns_imrep "http://ns.adobe.com/ImageReplacement/1.0/">
	<!ENTITY ns_sfw "http://ns.adobe.com/SaveForWeb/1.0/">
	<!ENTITY ns_custom "http://ns.adobe.com/GenericCustomNamespace/1.0/">
	<!ENTITY ns_adobe_xpath "http://ns.adobe.com/XPath/1.0/">
]>
<svg version="1.1" id="Ebene_1" xmlns:x="&ns_extend;" xmlns:i="&ns_ai;" xmlns:graph="&ns_graphs;"
	 xmlns="http://www.w3.org/2000/svg" xmlns:xlink="http://www.w3.org/1999/xlink" x="0px" y="0px" width="300px" height="300px"
	 viewBox="0 0 300 300" enable-background="new 0 0 300 300" xml:space="preserve">
<metadata>
	<sfw  xmlns="&ns_sfw;">
		<slices></slices>
		<sliceSourceBounds  height="307.58" width="300" x="276.5" y="142.92" bottomLeftOrigin="true"></sliceSourceBounds>
	</sfw>
</metadata>
<rect y="0" fill="#F08161" width="300" height="300"/>
<rect x="0.757" y="228.086" fill="none" width="298.486" height="79.494"/>
<g>
	<path fill="#FFFFFF" d="M205.027,188.79c0,5.41-4.572,9.855-10.139,9.855h-89.776c-5.566,0-10.138-4.445-10.138-9.855V46.819
		c0-5.412,4.611-9.857,10.138-9.857h89.776c5.526,0,10.139,4.447,10.139,9.857V188.79z M160.849,218.115h-21.708
		c-2.987,0-5.406-2.352-5.406-5.249c0-2.9,2.42-5.25,5.406-5.25h21.708c2.985,0,5.405,2.35,5.405,5.25
		C166.254,215.764,163.834,218.115,160.849,218.115 M139.141,28.221h21.708c0.953,0,1.715,0.752,1.715,1.679
		c0,0.915-0.762,1.669-1.715,1.669h-21.708c-0.943,0-1.717-0.754-1.717-1.669C137.424,28.973,138.197,28.221,139.141,28.221
		 M197.836,19.015h-95.672c-11.397,0-20.743,9.066-20.743,20.168v169.65c0,11.101,9.325,20.167,20.743,20.167h95.672
		c11.417,0,20.743-9.067,20.743-20.167V39.183C218.579,28.081,209.225,19.015,197.836,19.015"/>
	<path fill="#FFFFFF" d="M178.333,112.344l-16.131-6.163c-1.678,6.51-22.738,6.51-24.416,0c-1.349,0.505-16.133,5.757-16.121,6.418
		c-1.429,0.751-2.639,1.909-3.393,3.399c-4.437,8.691-5.984,25.439-6.876,34.58h77.205c-0.891-9.141-2.43-25.899-6.873-34.58
		C180.964,114.485,178.333,112.572,178.333,112.344"/>
	<path fill="#FFFFFF" d="M174.852,166.706h-49.706c-2.976,0-5.396,2.35-5.396,5.242c0,2.903,2.42,5.256,5.396,5.256h49.706
		c2.978,0,5.397-2.354,5.397-5.256C180.249,169.056,177.829,166.706,174.852,166.706"/>
	<path fill="#FFFFFF" d="M149.995,102.872c9.413,0,14.979-16.204,14.979-23.722c0-7.773-6.708-14.063-14.979-14.063
		c-8.267,0-14.973,6.29-14.973,14.063C135.022,86.669,140.59,102.872,149.995,102.872"/>
</g>
<g>
	<rect x="2" y="240.5" fill="none" width="296" height="55"/>
	<path fill="#FFFFFF" d="M140.498,248.274h-12.001l-0.912,6.241c0.72-0.097,1.344-0.145,2.256-0.145
		c2.736,0,5.473,0.624,7.584,2.017c2.353,1.488,4.081,4.128,4.081,7.921c0,5.952-4.944,10.801-12.625,10.801
		c-3.601,0-6.625-0.912-8.257-1.824l1.2-4.465c1.344,0.721,4.032,1.633,6.865,1.633c3.456,0,6.769-1.969,6.769-5.713
		c0-3.553-2.641-5.904-8.881-5.904c-1.728,0-3.024,0.096-4.272,0.288l2.064-15.746h16.129V248.274z"/>
	<path fill="#FFFFFF" d="M146.784,271.316c0-2.208,1.536-3.792,3.648-3.792c2.16,0,3.648,1.536,3.648,3.792
		c0,2.16-1.439,3.793-3.648,3.793C148.272,275.109,146.784,273.476,146.784,271.316z"/>
	<path fill="#FFFFFF" d="M170.736,274.58v-7.921h-14.113v-3.84l12.721-19.442h6.961v18.818h4.033v4.464h-4.033v7.921H170.736z
		 M170.736,262.196v-8.497c0-1.776,0.048-3.601,0.191-5.425h-0.191c-0.96,1.969-1.775,3.553-2.736,5.281l-5.713,8.544l-0.047,0.097
		H170.736z"/>
</g>
</svg>
