<?xml version="1.0" encoding="utf-8"?>
<!-- Generator: Adobe Illustrator 16.0.3, SVG Export Plug-In . SVG Version: 6.00 Build 0)  -->
<!DOCTYPE svg PUBLIC "-//W3C//DTD SVG 1.1//EN" "http://www.w3.org/Graphics/SVG/1.1/DTD/svg11.dtd" [
	<!ENTITY ns_extend "http://ns.adobe.com/Extensibility/1.0/">
	<!ENTITY ns_ai "http://ns.adobe.com/AdobeIllustrator/10.0/">
	<!ENTITY ns_graphs "http://ns.adobe.com/Graphs/1.0/">
	<!ENTITY ns_vars "http://ns.adobe.com/Variables/1.0/">
	<!ENTITY ns_imrep "http://ns.adobe.com/ImageReplacement/1.0/">
	<!ENTITY ns_sfw "http://ns.adobe.com/SaveForWeb/1.0/">
	<!ENTITY ns_custom "http://ns.adobe.com/GenericCustomNamespace/1.0/">
	<!ENTITY ns_adobe_xpath "http://ns.adobe.com/XPath/1.0/">
]>
<svg version="1.1" id="Ebene_1" xmlns:x="&ns_extend;" xmlns:i="&ns_ai;" xmlns:graph="&ns_graphs;"
	 xmlns="http://www.w3.org/2000/svg" xmlns:xlink="http://www.w3.org/1999/xlink" x="0px" y="0px" width="300px" height="300px"
	 viewBox="0 0 300 300" enable-background="new 0 0 300 300" xml:space="preserve">
<metadata>
	<sfw  xmlns="&ns_sfw;">
		<slices></slices>
		<sliceSourceBounds  height="307.582" width="300" x="-50.5" y="-57.082" bottomLeftOrigin="true"></sliceSourceBounds>
	</sfw>
</metadata>
<path fill="#248CBA" d="M228,300H72c-39.603,0-72-16.9-72-56.5V60C0,20.4,32.398,0,72,0h156c39.602,0,72,20.9,72,60.5V244
	C300,283.6,267.6,300,228,300z"/>
<rect x="0.758" y="228.086" fill="none" width="298.483" height="79.496"/>
<g enable-background="new    ">
	<path fill="#FFFFFF" d="M65.691,229.812v13.537h15.649v-13.537h4.224v32.354h-4.224v-15.169H65.691v15.169h-4.176v-32.354H65.691z"
		/>
	<path fill="#FFFFFF" d="M94.634,238.932l5.088,13.729c0.528,1.536,1.104,3.36,1.488,4.753h0.096
		c0.432-1.393,0.912-3.169,1.488-4.849l4.608-13.634h4.464l-6.336,16.562c-3.024,7.969-5.088,12.05-7.969,14.546
		c-2.064,1.824-4.128,2.544-5.185,2.736l-1.056-3.553c1.056-0.336,2.448-1.008,3.696-2.064c1.152-0.912,2.592-2.544,3.552-4.704
		c0.192-0.432,0.336-0.769,0.336-1.008c0-0.24-0.096-0.576-0.288-1.104l-8.593-21.41H94.634z"/>
	<path fill="#FFFFFF" d="M115.706,246.517c0-2.977-0.096-5.376-0.192-7.585h3.792l0.192,3.984h0.096
		c1.728-2.832,4.464-4.512,8.257-4.512c5.616,0,9.841,4.752,9.841,11.809c0,8.353-5.088,12.481-10.561,12.481
		c-3.072,0-5.76-1.345-7.152-3.648h-0.096v12.625h-4.176V246.517z M119.882,252.709c0,0.624,0.096,1.2,0.192,1.729
		c0.768,2.928,3.313,4.944,6.336,4.944c4.465,0,7.057-3.648,7.057-8.977c0-4.656-2.448-8.641-6.913-8.641
		c-2.88,0-5.568,2.063-6.384,5.232c-0.144,0.527-0.288,1.151-0.288,1.728V252.709z"/>
	<path fill="#FFFFFF" d="M145.369,251.317c0.096,5.712,3.745,8.064,7.969,8.064c3.023,0,4.848-0.528,6.432-1.2l0.721,3.024
		c-1.488,0.672-4.033,1.44-7.729,1.44c-7.153,0-11.425-4.705-11.425-11.714c0-7.008,4.128-12.528,10.897-12.528
		c7.585,0,9.601,6.672,9.601,10.944c0,0.864-0.096,1.536-0.144,1.969H145.369z M157.754,248.293
		c0.048-2.688-1.104-6.865-5.856-6.865c-4.272,0-6.145,3.937-6.481,6.865H157.754z"/>
	<path fill="#FFFFFF" d="M167.064,246.181c0-2.736-0.048-5.089-0.191-7.249h3.696l0.144,4.561h0.192
		c1.056-3.12,3.601-5.088,6.433-5.088c0.479,0,0.816,0.048,1.2,0.144v3.984c-0.433-0.096-0.864-0.144-1.44-0.144
		c-2.977,0-5.088,2.256-5.664,5.424c-0.097,0.576-0.192,1.248-0.192,1.969v12.385h-4.177V246.181z"/>
	<path fill="#FFFFFF" d="M182.76,262.166c0.096-1.584,0.191-3.937,0.191-6.001v-28.082h4.177v14.594h0.096
		c1.488-2.593,4.177-4.272,7.921-4.272c5.761,0,9.841,4.8,9.793,11.856c0,8.305-5.232,12.434-10.417,12.434
		c-3.36,0-6.049-1.296-7.776-4.368H186.6l-0.191,3.84H182.76z M187.128,252.854c0,0.527,0.096,1.056,0.192,1.536
		c0.815,2.928,3.264,4.944,6.336,4.944c4.417,0,7.057-3.601,7.057-8.929c0-4.656-2.4-8.641-6.912-8.641
		c-2.881,0-5.568,1.968-6.433,5.184c-0.097,0.48-0.24,1.057-0.24,1.729V252.854z"/>
	<path fill="#FFFFFF" d="M212.615,251.317c0.096,5.712,3.744,8.064,7.969,8.064c3.024,0,4.849-0.528,6.433-1.2l0.72,3.024
		c-1.488,0.672-4.032,1.44-7.729,1.44c-7.152,0-11.425-4.705-11.425-11.714c0-7.008,4.128-12.528,10.896-12.528
		c7.585,0,9.602,6.672,9.602,10.944c0,0.864-0.097,1.536-0.145,1.969H212.615z M225,248.293c0.049-2.688-1.104-6.865-5.856-6.865
		c-4.272,0-6.145,3.937-6.48,6.865H225z"/>
	<path fill="#FFFFFF" d="M234.311,228.083h4.225v34.083h-4.225V228.083z"/>
</g>
<g>
	<ellipse opacity="0.4" fill="#FFFFFF" enable-background="new    " cx="147.04" cy="109.499" rx="84.333" ry="83"/>
	<g>
		<g>
			
				<line fill="none" stroke="#FFFFFF" stroke-width="12" stroke-miterlimit="10" x1="143.645" y1="131.078" x2="248.627" y2="131.078"/>
			
				<line fill="none" stroke="#FFFFFF" stroke-width="12" stroke-miterlimit="10" x1="143.645" y1="154.576" x2="223.518" y2="154.576"/>
			<line fill="none" stroke="#FFFFFF" stroke-width="12" stroke-miterlimit="10" x1="143.645" y1="84.08" x2="234.932" y2="84.08"/>
			
				<line fill="none" stroke="#FFFFFF" stroke-width="12" stroke-miterlimit="10" x1="143.645" y1="107.579" x2="191.75" y2="107.579"/>
		</g>
	</g>
	<circle opacity="0.4" fill="#FFFFFF" enable-background="new    " cx="72.707" cy="170.166" r="9"/>
	<circle opacity="0.4" fill="#FFFFFF" enable-background="new    " cx="58.04" cy="183.165" r="6.666"/>
</g>
</svg>
