<?xml version="1.0" encoding="iso-8859-1"?>
<!-- Generator: Adobe Illustrator 16.0.3, SVG Export Plug-In . SVG Version: 6.00 Build 0)  -->
<!DOCTYPE svg PUBLIC "-//W3C//DTD SVG 1.1//EN" "http://www.w3.org/Graphics/SVG/1.1/DTD/svg11.dtd">
<svg version="1.1" id="Ebene_1" xmlns="http://www.w3.org/2000/svg" xmlns:xlink="http://www.w3.org/1999/xlink" x="0px" y="0px"
	 width="518px" height="518px" viewBox="0 0 518 518" style="enable-background:new 0 0 518 518;" xml:space="preserve">
<path style="fill-rule:evenodd;clip-rule:evenodd;fill:#458C79;" d="M518,512c0,3.313-2.017,6-4.505,6H4.505
	C2.018,518,0,515.313,0,512V6c0-3.313,2.017-6,4.504-6h508.99C515.983,0,518,2.687,518,6V512z"/>
<g>
	<g id="XMLID_1_">
		<g>
			<path style="fill:#FCFBFB;" d="M259.039,25.99c96.51-0.58,177.17,79.81,175.04,178.93c-2.04,95.16-81.561,173.45-179.37,171.17
				c-94.72-2.21-173.28-81.439-170.77-179.76C86.349,101.91,164.509,25.46,259.039,25.99z M259.309,361.59
				c89.29-0.38,160.94-73.05,160.37-160.66c-0.58-89.03-72.779-160.79-161.03-160.56c-85.43,0.21-159.56,68.84-160.47,160.72
				C99.219,291.1,170.849,361.97,259.309,361.59z"/>
			<path style="fill:#458C79;" d="M419.679,200.93c0.57,87.61-71.08,160.28-160.37,160.66c-88.46,0.38-160.09-70.49-161.13-160.5
				c0.91-91.88,75.04-160.51,160.47-160.72C346.899,40.14,419.099,111.9,419.679,200.93z"/>
		</g>
		<g>
		</g>
	</g>
</g>
<g>
	<rect x="-7.001" y="413" style="fill-rule:evenodd;clip-rule:evenodd;fill:none;" width="525.002" height="106"/>
	<path style="fill:#FFFFFF;" d="M193.085,435.437h-14.307V450.5h-6.177v-35.547h22.583v4.98h-16.406v10.571h14.307V435.437z"/>
	<path style="fill:#FFFFFF;" d="M214.448,450.5c-0.261-0.504-0.488-1.326-0.684-2.466c-1.888,1.97-4.199,2.954-6.934,2.954
		c-2.653,0-4.818-0.757-6.494-2.271c-1.677-1.514-2.515-3.385-2.515-5.615c0-2.815,1.045-4.977,3.137-6.481
		c2.091-1.506,5.082-2.259,8.972-2.259h3.638v-1.733c0-1.367-0.383-2.462-1.147-3.283c-0.765-0.822-1.929-1.233-3.491-1.233
		c-1.351,0-2.458,0.338-3.32,1.013c-0.863,0.676-1.294,1.535-1.294,2.576h-5.933c0-1.448,0.48-2.804,1.44-4.064
		c0.96-1.262,2.266-2.25,3.918-2.967c1.652-0.716,3.495-1.074,5.53-1.074c3.092,0,5.558,0.777,7.397,2.332
		c1.839,1.554,2.783,3.739,2.832,6.555v11.914c0,2.377,0.333,4.272,1.001,5.688v0.415H214.448z M207.929,446.228
		c1.172,0,2.274-0.284,3.308-0.854c1.033-0.569,1.811-1.334,2.332-2.295v-4.98h-3.198c-2.197,0-3.85,0.383-4.956,1.147
		c-1.107,0.766-1.66,1.848-1.66,3.247c0,1.14,0.378,2.047,1.135,2.723C205.646,445.89,206.66,446.228,207.929,446.228z"/>
	<path style="fill:#FFFFFF;" d="M232.026,450.5h-5.933V413h5.933V450.5z"/>
	<path style="fill:#FFFFFF;" d="M253.291,443.322c0-1.058-0.436-1.863-1.306-2.417c-0.871-0.553-2.315-1.041-4.333-1.465
		c-2.019-0.423-3.703-0.96-5.054-1.611c-2.962-1.432-4.443-3.507-4.443-6.226c0-2.278,0.96-4.183,2.881-5.713
		c1.92-1.529,4.362-2.295,7.324-2.295c3.157,0,5.708,0.781,7.654,2.344c1.945,1.563,2.917,3.589,2.917,6.079h-5.933
		c0-1.139-0.423-2.087-1.27-2.845c-0.847-0.756-1.97-1.135-3.369-1.135c-1.302,0-2.364,0.302-3.186,0.903
		c-0.822,0.603-1.233,1.408-1.233,2.417c0,0.912,0.382,1.62,1.147,2.124c0.765,0.505,2.311,1.013,4.639,1.526
		c2.327,0.512,4.154,1.123,5.481,1.83c1.326,0.709,2.311,1.56,2.954,2.552c0.643,0.993,0.964,2.197,0.964,3.613
		c0,2.377-0.985,4.301-2.954,5.774c-1.97,1.473-4.549,2.209-7.739,2.209c-2.165,0-4.094-0.391-5.786-1.172
		c-1.693-0.781-3.011-1.855-3.955-3.223c-0.944-1.367-1.416-2.84-1.416-4.419h5.762c0.081,1.4,0.61,2.478,1.587,3.235
		c0.977,0.756,2.271,1.135,3.882,1.135c1.563,0,2.75-0.297,3.564-0.891C252.883,445.06,253.291,444.283,253.291,443.322z"/>
	<path style="fill:#FFFFFF;" d="M275.141,446.252c1.481,0,2.71-0.431,3.687-1.294c0.977-0.862,1.497-1.929,1.563-3.198h5.591
		c-0.065,1.645-0.578,3.178-1.538,4.602c-0.96,1.425-2.263,2.552-3.906,3.382c-1.644,0.83-3.418,1.245-5.322,1.245
		c-3.695,0-6.625-1.196-8.789-3.589c-2.165-2.393-3.247-5.696-3.247-9.912v-0.61c0-4.02,1.074-7.238,3.223-9.656
		c2.148-2.416,5.078-3.625,8.789-3.625c3.141,0,5.701,0.916,7.678,2.746c1.978,1.832,3.015,4.236,3.113,7.215h-5.591
		c-0.065-1.514-0.582-2.759-1.55-3.735c-0.969-0.977-2.202-1.465-3.699-1.465c-1.921,0-3.402,0.696-4.443,2.087
		c-1.042,1.393-1.571,3.504-1.587,6.336v0.952c0,2.865,0.517,5.001,1.55,6.409C271.694,445.548,273.188,446.252,275.141,446.252z"/>
	<path style="fill:#FFFFFF;" d="M296.308,426.965c1.937-2.246,4.386-3.369,7.349-3.369c5.631,0,8.488,3.215,8.569,9.644V450.5
		h-5.933v-17.041c0-1.822-0.395-3.113-1.184-3.869c-0.79-0.758-1.949-1.136-3.479-1.136c-2.376,0-4.15,1.059-5.322,3.174V450.5
		h-5.933V413h5.933V426.965z"/>
	<path style="fill:#FFFFFF;" d="M329.853,450.988c-3.76,0-6.807-1.184-9.143-3.553c-2.336-2.367-3.503-5.521-3.503-9.46v-0.732
		c0-2.637,0.508-4.993,1.526-7.067c1.017-2.076,2.445-3.69,4.284-4.847c1.84-1.155,3.891-1.733,6.152-1.733
		c3.597,0,6.376,1.147,8.337,3.442c1.963,2.295,2.943,5.542,2.943,9.741v2.393h-17.261c0.178,2.182,0.906,3.906,2.185,5.176
		c1.277,1.27,2.885,1.904,4.822,1.904c2.717,0,4.932-1.099,6.641-3.296l3.197,3.052c-1.059,1.579-2.469,2.804-4.236,3.674
		C334.031,450.553,332.051,450.988,329.853,450.988z M329.146,428.356c-1.629,0-2.942,0.57-3.943,1.709
		c-1.001,1.14-1.641,2.727-1.916,4.761h11.304v-0.439c-0.131-1.985-0.66-3.487-1.588-4.504
		C332.074,428.865,330.789,428.356,329.146,428.356z"/>
	<path style="fill:#FFFFFF;" d="M75.983,494.224h-13.77l-2.881,8.276h-6.421l13.428-35.547h5.542L85.334,502.5h-6.445
		L75.983,494.224z M63.947,489.243H74.25l-5.151-14.746L63.947,489.243z"/>
	<path style="fill:#FFFFFF;" d="M95.1,502.5h-5.933V465H95.1V502.5z"/>
	<path style="fill:#FFFFFF;" d="M108.991,469.663v6.421h4.663v4.395h-4.663v14.746c0,1.01,0.199,1.737,0.598,2.186
		c0.398,0.447,1.111,0.671,2.136,0.671c0.684,0,1.375-0.081,2.075-0.244v4.59c-1.351,0.374-2.653,0.562-3.906,0.562
		c-4.558,0-6.836-2.515-6.836-7.544v-14.966h-4.346v-4.395h4.346v-6.421H108.991z"/>
	<path style="fill:#FFFFFF;" d="M129.816,502.988c-3.76,0-6.808-1.184-9.143-3.553c-2.336-2.367-3.503-5.521-3.503-9.46v-0.732
		c0-2.637,0.508-4.993,1.526-7.067c1.017-2.076,2.445-3.69,4.285-4.847c1.839-1.155,3.89-1.733,6.152-1.733
		c3.597,0,6.376,1.147,8.337,3.442c1.961,2.295,2.942,5.542,2.942,9.741v2.393h-17.261c0.179,2.182,0.907,3.906,2.185,5.176
		c1.277,1.27,2.885,1.904,4.822,1.904c2.718,0,4.932-1.099,6.641-3.296l3.198,3.052c-1.058,1.579-2.47,2.804-4.236,3.674
		C133.995,502.553,132.014,502.988,129.816,502.988z M129.108,480.356c-1.628,0-2.942,0.57-3.943,1.709
		c-1.001,1.14-1.64,2.727-1.917,4.761h11.304v-0.439c-0.13-1.985-0.659-3.487-1.587-4.504
		C132.038,480.865,130.752,480.356,129.108,480.356z"/>
	<path style="fill:#FFFFFF;" d="M158.845,481.504c-0.781-0.13-1.587-0.195-2.417-0.195c-2.718,0-4.549,1.042-5.493,3.125V502.5
		h-5.933v-26.416h5.664l0.146,2.954c1.432-2.295,3.418-3.442,5.957-3.442c0.846,0,1.546,0.114,2.1,0.342L158.845,481.504z"/>
	<path style="fill:#FFFFFF;" d="M168.098,476.084l0.171,3.052c1.953-2.359,4.517-3.54,7.69-3.54c5.501,0,8.301,3.149,8.398,9.448
		V502.5h-5.933v-17.114c0-1.676-0.362-2.917-1.086-3.724c-0.725-0.805-1.909-1.208-3.552-1.208c-2.393,0-4.175,1.083-5.347,3.247
		V502.5h-5.933v-26.416H168.098z"/>
	<path style="fill:#FFFFFF;" d="M206.184,502.5c-0.261-0.504-0.488-1.326-0.684-2.466c-1.888,1.97-4.199,2.954-6.934,2.954
		c-2.653,0-4.818-0.757-6.494-2.271c-1.677-1.514-2.515-3.385-2.515-5.615c0-2.815,1.045-4.977,3.137-6.481
		c2.091-1.506,5.082-2.259,8.972-2.259h3.638v-1.733c0-1.367-0.383-2.462-1.147-3.283c-0.765-0.822-1.929-1.233-3.491-1.233
		c-1.351,0-2.458,0.338-3.32,1.013c-0.863,0.676-1.294,1.535-1.294,2.576h-5.933c0-1.448,0.48-2.804,1.44-4.064
		c0.96-1.262,2.266-2.25,3.918-2.967c1.652-0.716,3.495-1.074,5.53-1.074c3.092,0,5.558,0.777,7.397,2.332
		c1.839,1.554,2.783,3.739,2.832,6.555v11.914c0,2.377,0.333,4.272,1.001,5.688v0.415H206.184z M199.665,498.228
		c1.172,0,2.274-0.284,3.308-0.854c1.033-0.569,1.811-1.334,2.332-2.295v-4.98h-3.198c-2.197,0-3.85,0.383-4.956,1.147
		c-1.107,0.766-1.66,1.848-1.66,3.247c0,1.14,0.378,2.047,1.135,2.723C197.382,497.89,198.396,498.228,199.665,498.228z"/>
	<path style="fill:#FFFFFF;" d="M224.885,469.663v6.421h4.663v4.395h-4.663v14.746c0,1.01,0.199,1.737,0.598,2.186
		c0.398,0.447,1.111,0.671,2.136,0.671c0.684,0,1.375-0.081,2.075-0.244v4.59c-1.351,0.374-2.653,0.562-3.906,0.562
		c-4.558,0-6.836-2.515-6.836-7.544v-14.966h-4.346v-4.395h4.346v-6.421H224.885z"/>
	<path style="fill:#FFFFFF;" d="M234.089,469.224c0-0.911,0.289-1.668,0.867-2.271c0.578-0.602,1.404-0.903,2.478-0.903
		s1.904,0.302,2.49,0.903c0.586,0.603,0.879,1.359,0.879,2.271c0,0.896-0.293,1.64-0.879,2.233c-0.586,0.595-1.416,0.892-2.49,0.892
		s-1.9-0.297-2.478-0.892C234.377,470.863,234.089,470.119,234.089,469.224z M240.388,502.5h-5.933v-26.416h5.933V502.5z"/>
	<path style="fill:#FFFFFF;" d="M256.159,494.98l5.591-18.896h6.128l-9.155,26.416h-5.151l-9.229-26.416h6.152L256.159,494.98z"/>
	<path style="fill:#FFFFFF;" d="M277.888,502.5h-5.933V465h5.933V502.5z"/>
	<path style="fill:#FFFFFF;" d="M283.234,489.048c0-2.588,0.513-4.919,1.538-6.995c1.025-2.074,2.466-3.67,4.321-4.785
		c1.855-1.114,3.987-1.672,6.396-1.672c3.564,0,6.458,1.147,8.679,3.442s3.422,5.339,3.601,9.131l0.024,1.392
		c0,2.604-0.5,4.932-1.501,6.982s-2.434,3.638-4.297,4.761c-1.864,1.123-4.016,1.685-6.458,1.685c-3.728,0-6.71-1.241-8.948-3.723
		c-2.238-2.482-3.357-5.79-3.357-9.925V489.048z M289.167,489.561c0,2.719,0.562,4.846,1.685,6.385
		c1.123,1.537,2.686,2.307,4.688,2.307s3.56-0.781,4.675-2.344c1.115-1.563,1.672-3.849,1.672-6.86c0-2.669-0.574-4.785-1.721-6.348
		s-2.706-2.344-4.675-2.344c-1.937,0-3.475,0.769-4.614,2.308C289.736,484.201,289.167,486.501,289.167,489.561z"/>
	<path style="fill:#FFFFFF;" d="M327.619,495.322c0-1.058-0.436-1.863-1.306-2.417c-0.871-0.553-2.316-1.041-4.334-1.465
		c-2.019-0.423-3.703-0.96-5.054-1.611c-2.962-1.432-4.443-3.507-4.443-6.226c0-2.278,0.96-4.183,2.881-5.713
		c1.92-1.529,4.362-2.295,7.324-2.295c3.157,0,5.708,0.781,7.654,2.344c1.944,1.563,2.917,3.589,2.917,6.079h-5.933
		c0-1.139-0.423-2.087-1.27-2.845c-0.847-0.756-1.97-1.135-3.369-1.135c-1.302,0-2.364,0.302-3.186,0.903
		c-0.822,0.603-1.233,1.408-1.233,2.417c0,0.912,0.382,1.62,1.147,2.124c0.765,0.505,2.311,1.013,4.639,1.526
		c2.327,0.512,4.154,1.123,5.481,1.83c1.326,0.709,2.311,1.56,2.953,2.552c0.644,0.993,0.965,2.197,0.965,3.613
		c0,2.377-0.985,4.301-2.954,5.774c-1.97,1.473-4.55,2.209-7.739,2.209c-2.165,0-4.094-0.391-5.786-1.172
		c-1.693-0.781-3.011-1.855-3.955-3.223c-0.944-1.367-1.416-2.84-1.416-4.419h5.762c0.081,1.4,0.61,2.478,1.587,3.235
		c0.977,0.756,2.271,1.135,3.882,1.135c1.563,0,2.751-0.297,3.564-0.891C327.212,497.06,327.619,496.283,327.619,495.322z"/>
	<path style="fill:#FFFFFF;" d="M338.63,469.224c0-0.911,0.289-1.668,0.866-2.271c0.578-0.602,1.404-0.903,2.479-0.903
		s1.904,0.302,2.49,0.903c0.586,0.603,0.879,1.359,0.879,2.271c0,0.896-0.293,1.64-0.879,2.233c-0.586,0.595-1.416,0.892-2.49,0.892
		s-1.9-0.297-2.479-0.892C338.919,470.863,338.63,470.119,338.63,469.224z M344.929,502.5h-5.933v-26.416h5.933V502.5z"/>
	<path style="fill:#FFFFFF;" d="M350.349,489.097c0-4.102,0.965-7.377,2.893-9.827c1.93-2.449,4.488-3.674,7.679-3.674
		c3.011,0,5.379,1.05,7.104,3.149l0.269-2.661h5.347v25.61c0,3.467-1.078,6.201-3.234,8.203c-2.157,2.002-5.066,3.003-8.729,3.003
		c-1.938,0-3.829-0.402-5.676-1.209c-1.848-0.805-3.252-1.859-4.212-3.161l2.808-3.564c1.822,2.164,4.068,3.247,6.738,3.247
		c1.969,0,3.523-0.533,4.663-1.6c1.139-1.065,1.709-2.633,1.709-4.699v-1.782c-1.709,1.904-3.988,2.856-6.836,2.856
		c-3.093,0-5.619-1.229-7.581-3.687C351.329,496.845,350.349,493.442,350.349,489.097z M356.257,489.609
		c0,2.653,0.541,4.74,1.623,6.262c1.083,1.522,2.584,2.283,4.505,2.283c2.393,0,4.166-1.025,5.322-3.076v-11.621
		c-1.123-2.002-2.881-3.003-5.273-3.003c-1.953,0-3.471,0.773-4.554,2.319C356.798,484.32,356.257,486.599,356.257,489.609z"/>
	<path style="fill:#FFFFFF;" d="M388.313,491.172l-2.637,2.71v8.618h-5.933V465h5.933v21.631l1.855-2.319l7.3-8.228h7.129
		l-9.814,11.011L403.01,502.5h-6.86L388.313,491.172z"/>
	<path style="fill:#FFFFFF;" d="M416.975,502.988c-3.76,0-6.808-1.184-9.144-3.553c-2.335-2.367-3.503-5.521-3.503-9.46v-0.732
		c0-2.637,0.509-4.993,1.526-7.067c1.017-2.076,2.444-3.69,4.284-4.847c1.839-1.155,3.89-1.733,6.152-1.733
		c3.597,0,6.376,1.147,8.337,3.442c1.962,2.295,2.942,5.542,2.942,9.741v2.393H410.31c0.179,2.182,0.907,3.906,2.186,5.176
		c1.277,1.27,2.884,1.904,4.821,1.904c2.718,0,4.932-1.099,6.641-3.296l3.198,3.052c-1.059,1.579-2.47,2.804-4.236,3.674
		C421.153,502.553,419.172,502.988,416.975,502.988z M416.267,480.356c-1.628,0-2.941,0.57-3.943,1.709
		c-1,1.14-1.64,2.727-1.916,4.761h11.304v-0.439c-0.131-1.985-0.659-3.487-1.587-4.504
		C419.196,480.865,417.91,480.356,416.267,480.356z"/>
	<path style="fill:#FFFFFF;" d="M432.185,469.224c0-0.911,0.289-1.668,0.866-2.271c0.578-0.602,1.404-0.903,2.479-0.903
		s1.904,0.302,2.49,0.903c0.586,0.603,0.879,1.359,0.879,2.271c0,0.896-0.293,1.64-0.879,2.233c-0.586,0.595-1.416,0.892-2.49,0.892
		s-1.9-0.297-2.479-0.892C432.474,470.863,432.185,470.119,432.185,469.224z M438.483,502.5h-5.933v-26.416h5.933V502.5z"/>
	<path style="fill:#FFFFFF;" d="M452.375,469.663v6.421h4.663v4.395h-4.663v14.746c0,1.01,0.199,1.737,0.599,2.186
		c0.398,0.447,1.11,0.671,2.136,0.671c0.684,0,1.375-0.081,2.075-0.244v4.59c-1.352,0.374-2.653,0.562-3.906,0.562
		c-4.558,0-6.836-2.515-6.836-7.544v-14.966h-4.346v-4.395h4.346v-6.421H452.375z"/>
</g>
<g>
	<path style="fill-rule:evenodd;clip-rule:evenodd;fill:#F4F8F7;" d="M185.644,278.322c-23.837-0.063-43.12-19.469-43.053-43.3
		c0.064-22.752,17.857-42.976,43.213-43.192c23.982-0.205,43.547,19.716,43.36,43.603
		C228.978,259.23,209.542,278.385,185.644,278.322z M185.665,197.32c-20.759,0.088-37.741,17.284-37.616,38.091
		c0.123,20.456,17.113,37.75,37.693,37.528c22.961-0.246,37.893-18.686,37.862-37.872
		C223.569,214.291,206.465,197.231,185.665,197.32z"/>
	<path style="fill-rule:evenodd;clip-rule:evenodd;fill:#F4F7F7;" d="M377.358,177.691c0.061,23.894-19.144,43.138-43.082,43.174
		c-24.032,0.036-43.19-18.934-43.324-42.898c-0.135-24.091,19.238-43.569,43.303-43.537
		C358.064,134.461,377.3,153.766,377.358,177.691z M333.834,215.431c20.813,0.135,37.985-16.718,38.124-37.419
		c0.141-20.681-16.723-37.826-37.508-38.135c-20.504-0.305-37.981,16.901-38.098,37.505
		C296.235,198.216,313.06,215.296,333.834,215.431z"/>
	<path style="fill-rule:evenodd;clip-rule:evenodd;fill:#8EB7AF;" d="M286.566,226.725c-2.262,1.306-3.291,2.28-4.459,2.493
		c-2.222,0.403-2.79-1.23-2.895-3.077c-0.118-2.089,1.412-2.76,2.89-2.453C283.344,223.945,284.384,225.178,286.566,226.725z"/>
	<path style="fill-rule:evenodd;clip-rule:evenodd;fill:#8EB7AF;" d="M279.399,196.023c1.325,2.194,2.387,3.216,2.526,4.351
		c0.231,1.878-0.703,3.205-2.961,2.914c-1.686-0.217-3.125-0.916-2.613-2.794C276.696,199.229,277.872,198.188,279.399,196.023z"/>
	<path style="fill-rule:evenodd;clip-rule:evenodd;fill:#8EB6AE;" d="M244.256,147.261c-3.044,0.093-4.083-0.76-4-2.877
		c0.08-2.065,1.127-2.902,3.115-2.848c1.785,0.05,2.978,0.897,2.588,2.681C245.684,145.478,244.66,146.575,244.256,147.261z"/>
	<path style="fill-rule:evenodd;clip-rule:evenodd;fill:#95BBB3;" d="M285.704,97.204c2.043,0.809,3.502,1.386,5.418,2.144
		c-0.835,1.772-1.49,3.159-2.274,4.822c-1.669-0.646-2.973-1.149-4.488-1.734C284.797,100.733,285.152,99.354,285.704,97.204z"/>
	<path style="fill-rule:evenodd;clip-rule:evenodd;fill:#92B9B1;" d="M328.837,272.023c-2.427,0.052-4.875,1.104-5.158-2.312
		c-0.188-2.253,0.99-3.424,3.266-3.078C330.349,267.15,329.134,269.512,328.837,272.023z"/>
	<path style="fill-rule:evenodd;clip-rule:evenodd;fill:#8DB6AD;" d="M204.417,185.324c-1.571-0.386-3.326-0.485-4.615-1.311
		c-0.464-0.297-0.229-2.729,0.459-3.48c0.661-0.721,3-1.1,3.405-0.619c0.957,1.135,1.202,2.87,1.735,4.362
		C205.074,184.625,204.745,184.975,204.417,185.324z"/>
	<path style="fill-rule:evenodd;clip-rule:evenodd;fill:#93B9B2;" d="M279.868,96.263c0,2.239,0,3.652,0,5.505
		c-1.468,0.124-2.845,0.24-4.478,0.377c-0.395-1.736-0.709-3.119-1.154-5.08C276.123,96.796,277.645,96.579,279.868,96.263z"/>
	<path style="fill-rule:evenodd;clip-rule:evenodd;fill:#92B9B1;" d="M256.72,223.344c-0.507-2.862-1.641-5.29,1.77-5.702
		c3.683-0.443,3.101,2.396,3.44,5.135C260.162,222.969,258.637,223.136,256.72,223.344z"/>
	<path style="fill-rule:evenodd;clip-rule:evenodd;fill:#93BAB2;" d="M190.381,100.387c0.625,1.988,1.051,3.339,1.576,5.007
		c-1.481,0.667-2.757,1.241-4.426,1.993c-0.834-1.603-1.549-2.976-2.479-4.762C186.857,101.867,188.299,101.262,190.381,100.387z"/>
	<path style="fill-rule:evenodd;clip-rule:evenodd;fill:#93BAB2;" d="M215.181,106.146c0.801-1.951,1.335-3.252,2.023-4.927
		c1.745,0.752,3.167,1.365,5.018,2.162c-0.838,1.752-1.499,3.133-2.293,4.795C218.28,107.471,216.997,106.922,215.181,106.146z"/>
	<path style="fill-rule:evenodd;clip-rule:evenodd;fill:#93BAB2;" d="M256.848,110.1c0.975-1.618,1.782-2.957,2.864-4.752
		c1.547,1.187,2.769,2.124,3.923,3.01C261.656,113.024,261.559,113.054,256.848,110.1z"/>
	<path style="fill-rule:evenodd;clip-rule:evenodd;fill:#93BAB2;" d="M329.149,262.334c-5.281,1.425-5.443,1.311-5.539-3.713
		c1.259-0.396,2.603-0.82,4.609-1.454C328.579,259.166,328.868,260.771,329.149,262.334z"/>
	<path style="fill-rule:evenodd;clip-rule:evenodd;fill:#92B9B1;" d="M289.208,229.716c0.33-2.671,0.503-4.076,0.768-6.218
		c1.933,0.627,3.577,0.829,4.731,1.689c0.496,0.37,0.382,2.736-0.167,3.09C293.338,229.051,291.681,229.118,289.208,229.716z"/>
	<path style="fill-rule:evenodd;clip-rule:evenodd;fill:#94BAB3;" d="M310.294,230.769c1.701,1.434,2.798,2.357,4.17,3.514
		c-0.969,1.398-1.772,2.56-2.787,4.023c-1.479-0.907-2.684-1.646-4.358-2.674C308.274,234.069,309.077,232.757,310.294,230.769z"/>
	<path style="fill-rule:evenodd;clip-rule:evenodd;fill:#93B9B2;" d="M322.169,242.402c-1.793,1.234-2.967,2.043-4.09,2.815
		c-3.987-3.312-3.965-3.627,0.598-6.751C319.671,239.587,320.698,240.745,322.169,242.402z"/>
	<path style="fill-rule:evenodd;clip-rule:evenodd;fill:#94BAB2;" d="M327.617,277.553c-0.882,5.525-1.148,5.656-5.925,3.083
		c0.13-0.707,0.205-1.506,0.436-2.257c0.186-0.604,0.559-1.148,1.062-2.139C324.726,276.695,326.198,277.132,327.617,277.553z"/>
	<path style="fill-rule:evenodd;clip-rule:evenodd;fill:#94BAB3;" d="M179.069,112.33c-1.1-1.427-1.956-2.535-3.121-4.046
		c1.417-1.113,2.608-2.048,4.219-3.313c1.111,1.545,1.994,2.772,3.168,4.406C181.789,110.447,180.55,111.305,179.069,112.33z"/>
	<path style="fill-rule:evenodd;clip-rule:evenodd;fill:#92B9B1;" d="M277.732,309.37c-2.126-0.648-3.496-1.065-4.824-1.47
		c0.722-5.122,0.722-5.122,5.869-3.634C278.476,305.738,278.167,307.249,277.732,309.37z"/>
	<path style="fill-rule:evenodd;clip-rule:evenodd;fill:#92B9B1;" d="M289.521,309.938c-2.818,0-4.218,0-6.467,0
		c0.399-1.955,0.538-3.619,1.166-5.071c0.173-0.401,2.326-0.588,2.661-0.159C287.864,305.962,288.389,307.575,289.521,309.938z"/>
	<path style="fill-rule:evenodd;clip-rule:evenodd;fill:#96BBB4;" d="M162.658,157.231c-2.204-5.193-2.179-5.243,3.072-6.273
		c0.474,1.351,0.972,2.771,1.562,4.455C165.532,156.104,164.212,156.622,162.658,157.231z"/>
	<path style="fill-rule:evenodd;clip-rule:evenodd;fill:#92B9B1;" d="M245.698,281.963c-0.539-1.688-0.977-3.06-1.58-4.946
		c1.723-0.508,3.188-0.939,4.584-1.351C251.016,280.373,250.971,280.472,245.698,281.963z"/>
	<path style="fill-rule:evenodd;clip-rule:evenodd;fill:#94BAB3;" d="M209.341,179.846c5.008-2.138,5.008-2.138,6.247,3.187
		c-1.444,0.463-2.924,0.938-4.72,1.516C210.302,182.808,209.864,181.459,209.341,179.846z"/>
	<path style="fill-rule:evenodd;clip-rule:evenodd;fill:#96BBB4;" d="M170.026,122.948c-0.944,1.721-1.62,2.951-2.44,4.443
		c-1.541-0.632-2.836-1.163-4.691-1.924c0.841-1.81,1.54-3.313,2.363-5.084C166.946,121.292,168.194,121.963,170.026,122.948z"/>
	<path style="fill-rule:evenodd;clip-rule:evenodd;fill:#92B9B1;" d="M304.938,121.429c-0.469,2.473-0.756,3.983-1.192,6.28
		c-1.789-0.77-3.37-1.072-4.325-2.011c-0.52-0.511-0.341-2.815,0.157-3.071C300.953,121.924,302.661,121.874,304.938,121.429z"/>
	<path style="fill-rule:evenodd;clip-rule:evenodd;fill:#95BBB3;" d="M238.708,129.193c-2.208-4.644-2.208-4.644,2.5-6.77
		c0.672,1.533,1.344,3.063,2.156,4.915C241.57,128.054,240.245,128.581,238.708,129.193z"/>
	<path style="fill-rule:evenodd;clip-rule:evenodd;fill:#94BAB3;" d="M251.999,218c-0.467,1.472-0.852,2.682-1.414,4.453
		c-1.792-0.556-3.371-1.046-4.957-1.538C247.317,215.67,247.338,215.66,251.999,218z"/>
	<path style="fill-rule:evenodd;clip-rule:evenodd;fill:#96BBB4;" d="M302.546,112.46c0.521,1.257,1.068,2.575,1.901,4.587
		c-1.984,0.49-3.566,0.883-5.112,1.265C297.691,113.429,297.691,113.429,302.546,112.46z"/>
	<path style="fill-rule:evenodd;clip-rule:evenodd;fill:#92B9B1;" d="M231.686,191.498c2.849,0.906,5.581,0.139,5.276,3.6
		c-0.199,2.258-1.875,2.612-3.603,2.225C229.729,196.508,231.887,194.164,231.686,191.498z"/>
	<path style="fill-rule:evenodd;clip-rule:evenodd;fill:#97BCB5;" d="M264.326,101.476c1.299-0.814,2.613-1.639,4.404-2.762
		c0.932,1.696,1.655,3.014,2.348,4.275C266.955,106.105,266.955,106.105,264.326,101.476z"/>
	<path style="fill-rule:evenodd;clip-rule:evenodd;fill:#93B9B2;" d="M252.393,172.926c1.646-0.151,3.185-0.294,5.113-0.472
		c-0.29,2.703,0.875,5.658-2.841,5.637C251.207,178.071,252.177,175.442,252.393,172.926z"/>
	<path style="fill-rule:evenodd;clip-rule:evenodd;fill:#93BAB2;" d="M258.714,233.66c1.528-1.367,1.966-1.857,2.497-2.21
		c0.67-0.444,1.416-0.777,2.757-1.494c0.735,1.49,1.724,2.777,1.896,4.166c0.078,0.629-1.625,2.186-2.247,2.052
		C262.111,235.849,260.765,234.779,258.714,233.66z"/>
	<path style="fill-rule:evenodd;clip-rule:evenodd;fill:#93BAB2;" d="M273.508,225.917c2.35,4.415,2.35,4.415-2.231,5.851
		C267.971,227.615,268.207,226.998,273.508,225.917z"/>
	<path style="fill-rule:evenodd;clip-rule:evenodd;fill:#98BDB5;" d="M240.029,133.554c1.572-0.343,2.847-0.621,4.591-1.001
		c0.39,1.731,0.733,3.257,1.07,4.759C240.605,138.944,240.567,138.92,240.029,133.554z"/>
	<path style="fill-rule:evenodd;clip-rule:evenodd;fill:#97BCB4;" d="M238.377,117.566c-1.418,1.109-2.534,1.982-3.941,3.085
		c-1.174-1.238-2.144-2.261-3.79-3.997c1.501-1.169,2.741-2.135,4.341-3.381C236.2,114.809,237.176,116.046,238.377,117.566z"/>
	<path style="fill-rule:evenodd;clip-rule:evenodd;fill:#95BBB3;" d="M293.627,309.584c0-2.217-0.322-3.848,0.147-5.204
		c0.209-0.604,2.461-1.248,3-0.839c1.137,0.864,1.756,2.409,2.917,4.177C297.451,308.407,295.958,308.866,293.627,309.584z"/>
	<path style="fill-rule:evenodd;clip-rule:evenodd;fill:#93BAB2;" d="M220.904,180.824c-2.347-4.214-2.347-4.214,1.481-6.301
		C226.291,177.932,226.147,178.688,220.904,180.824z"/>
	<path style="fill-rule:evenodd;clip-rule:evenodd;fill:#95BBB3;" d="M242.601,157.69c-4.964-1.527-4.964-1.527-2.846-5.84
		C244.845,152.448,244.95,152.643,242.601,157.69z"/>
	<path style="fill-rule:evenodd;clip-rule:evenodd;fill:#95BBB3;" d="M265.374,216.269c3.9-2.537,3.9-2.537,6.378,1.2
		C268.16,221.49,267.444,221.389,265.374,216.269z"/>
	<path style="fill-rule:evenodd;clip-rule:evenodd;fill:#92B9B1;" d="M306.314,298.792c1.114,1.779,1.862,2.975,2.587,4.132
		c-4.192,3.516-4.544,3.437-6.591-1.564C303.414,300.652,304.58,299.904,306.314,298.792z"/>
	<path style="fill-rule:evenodd;clip-rule:evenodd;fill:#95BBB3;" d="M262.467,141.503c-1.042-1.201-2.083-2.402-3.377-3.894
		c1.433-1.295,2.488-2.248,3.758-3.396c1.04,0.845,2.584,1.513,2.614,2.244c0.063,1.53-0.671,3.094-1.077,4.645
		C263.746,141.235,263.106,141.369,262.467,141.503z"/>
	<path style="fill-rule:evenodd;clip-rule:evenodd;fill:#97BCB4;" d="M233.073,208.077c-0.141-1.635-0.585-3.336-0.246-4.864
		c0.107-0.483,2.435-0.925,3.501-0.595c0.762,0.235,1.806,2.229,1.523,2.675c-0.833,1.313-2.266,2.247-3.464,3.329
		C233.949,208.44,233.511,208.259,233.073,208.077z"/>
	<path style="fill-rule:evenodd;clip-rule:evenodd;fill:#94BAB3;" d="M273.805,146.706c-2.434-0.838-3.904-1.344-6.162-2.121
		c1.252-1.731,1.937-3.229,3.101-4.045c0.543-0.381,2.702,0.32,2.918,0.948C274.126,142.834,273.805,144.451,273.805,146.706z"/>
	<path style="fill-rule:evenodd;clip-rule:evenodd;fill:#95BBB3;" d="M210.6,105.485c-1.776-1.005-3.319-1.494-4.207-2.54
		c-0.446-0.526,0.017-2.785,0.564-3.001c1.351-0.531,2.987-0.334,5.172-0.472C211.556,101.729,211.175,103.223,210.6,105.485z"/>
	<path style="fill-rule:evenodd;clip-rule:evenodd;fill:#97BCB4;" d="M274.205,190.282c2.541-1.031,3.846-1.561,5.793-2.351
		c0.361,1.995,0.926,3.527,0.752,4.971c-0.065,0.537-2.161,1.475-2.797,1.158C276.735,193.454,275.899,192.08,274.205,190.282z"/>
	<path style="fill-rule:evenodd;clip-rule:evenodd;fill:#97BCB5;" d="M223.908,110.555c1.087-1.648,1.874-2.842,2.888-4.379
		c1.537,1.111,2.814,2.034,4.48,3.238c-1.301,1.477-2.328,2.643-3.502,3.975C226.463,112.428,225.437,111.676,223.908,110.555z"/>
	<path style="fill-rule:evenodd;clip-rule:evenodd;fill:#95BBB3;" d="M263.559,173.467c1.619,0.695,2.947,1.265,4.75,2.038
		c-0.804,1.69-1.465,3.078-2.101,4.414C261.527,178.372,261.527,178.372,263.559,173.467z"/>
	<path style="fill-rule:evenodd;clip-rule:evenodd;fill:#96BBB4;" d="M260.634,130.375c-1.179,0.6-2.426,1.235-4.207,2.142
		c-0.728-1.864-1.332-3.41-1.933-4.948C259.361,125.53,259.417,125.557,260.634,130.375z"/>
	<path style="fill-rule:evenodd;clip-rule:evenodd;fill:#96BBB4;" d="M160.102,135.541c0.283-1.672,0.518-3.063,0.85-5.025
		c1.855,0.453,3.324,0.813,4.725,1.155C165.351,136.513,165.351,136.513,160.102,135.541z"/>
	<path style="fill-rule:evenodd;clip-rule:evenodd;fill:#94BAB2;" d="M294.977,134.78c2.747-4.28,2.747-4.28,6.94-1.474
		c-0.789,1.309-1.588,2.636-2.688,4.461C297.637,136.648,296.404,135.782,294.977,134.78z"/>
	<path style="fill-rule:evenodd;clip-rule:evenodd;fill:#97BCB4;" d="M276.42,213.765c-1.615-1.117-2.764-1.912-3.865-2.674
		c2.003-4.545,2.069-4.564,6.721-1.774C278.381,210.711,277.496,212.09,276.42,213.765z"/>
	<path style="fill-rule:evenodd;clip-rule:evenodd;fill:#96BCB4;" d="M189.154,182.97c0.542-2.968,0.834-5.384,3.98-4.431
		c3.278,0.994,1.842,3.175,0.844,5.649C192.457,183.804,190.977,183.43,189.154,182.97z"/>
	<path style="fill-rule:evenodd;clip-rule:evenodd;fill:#94BAB3;" d="M235.975,160.202c1.682,1.004,2.783,1.662,4.332,2.586
		c-0.819,1.526-1.545,2.882-2.522,4.704c-1.657-1.076-2.95-1.915-4.5-2.922C234.231,163.031,234.978,161.821,235.975,160.202z"/>
	<path style="fill-rule:evenodd;clip-rule:evenodd;fill:#95BBB3;" d="M317.28,296.498c-1.178,1.266-2.164,2.327-3.932,4.228
		c-1.115-1.471-2.055-2.711-2.947-3.89C313.4,292.408,313.464,292.403,317.28,296.498z"/>
	<path style="fill-rule:evenodd;clip-rule:evenodd;fill:#97BCB4;" d="M181.858,173.881c1.603,0.834,2.827,1.471,4.349,2.263
		c-0.74,1.563-1.332,2.812-2.153,4.544c-1.685-0.782-3.053-1.417-4.938-2.291C180.135,176.718,180.909,175.443,181.858,173.881z"/>
	<path style="fill-rule:evenodd;clip-rule:evenodd;fill:#93B9B2;" d="M251.927,240.51c1.146-1.287,2.081-2.338,3.354-3.77
		c1.386,1.181,2.532,2.158,3.638,3.101C255.974,244.248,255.96,244.25,251.927,240.51z"/>
	<path style="fill-rule:evenodd;clip-rule:evenodd;fill:#95BBB3;" d="M251.374,251.994c-5.233-1.644-5.301-1.85-2.342-6.363
		c0.549,0.184,1.186,0.308,1.732,0.6c0.704,0.376,1.335,0.887,2.369,1.594C252.525,249.265,251.941,250.649,251.374,251.994z"/>
	<path style="fill-rule:evenodd;clip-rule:evenodd;fill:#95BBB3;" d="M320.284,249.493c1.328-0.727,2.563-1.401,3.754-2.054
		c3.363,4.313,3.065,5.122-2.215,6.226c-0.34-0.655-0.76-1.34-1.051-2.075C320.546,251.015,320.481,250.375,320.284,249.493z"/>
	<path style="fill-rule:evenodd;clip-rule:evenodd;fill:#96BCB4;" d="M243.278,260.469c0.563-1.971,0.954-3.341,1.333-4.669
		c4.239,0.525,5.183,1.265,4.414,3.596C247.972,262.588,245.815,261.138,243.278,260.469z"/>
	<path style="fill-rule:evenodd;clip-rule:evenodd;fill:#94BAB2;" d="M241.169,184.667c-2.588,4.233-2.588,4.233-6.977,1.602
		c0.915-1.404,1.819-2.792,2.939-4.51C238.684,182.877,239.813,183.689,241.169,184.667z"/>
	<path style="fill-rule:evenodd;clip-rule:evenodd;fill:#94BAB2;" d="M319.297,285.306c4.848,2.43,4.853,2.456,1.585,6.829
		c-1.236-0.801-2.5-1.62-4.061-2.632C317.735,287.954,318.438,286.764,319.297,285.306z"/>
	<path style="fill-rule:evenodd;clip-rule:evenodd;fill:#94BAB2;" d="M299.816,106.395c-2.177,2.44-3.717,4.227-5.867,1.88
		c-2.187-2.388-0.154-3.717,2.568-5.779C297.522,103.684,298.528,104.872,299.816,106.395z"/>
	<path style="fill-rule:evenodd;clip-rule:evenodd;fill:#96BCB4;" d="M300.753,226.224c2.182,0.94,4.976,0.663,4.034,3.995
		c-0.522,1.848-1.904,2.687-3.788,1.79C297.931,230.548,299.63,228.645,300.753,226.224z"/>
	<path style="fill-rule:evenodd;clip-rule:evenodd;fill:#94BAB3;" d="M240.114,217.463c-1.243-1.418-2.245-2.561-3.479-3.968
		c1.396-1.242,2.432-2.164,3.416-3.04C244.134,213.469,244.134,213.469,240.114,217.463z"/>
	<path style="fill-rule:evenodd;clip-rule:evenodd;fill:#92B9B1;" d="M279.427,146.956c-0.337-2.552-1.345-4.882,2.062-5.381
		c2.025-0.297,2.634,0.964,2.705,2.657C284.341,147.734,282.044,147.217,279.427,146.956z"/>
	<path style="fill-rule:evenodd;clip-rule:evenodd;fill:#95BBB3;" d="M290.274,144.551c-1.453-2.104-3.388-3.66-0.67-5.652
		c1.724-1.263,3.196-0.614,4.047,1.076C295.228,143.105,292.496,143.36,290.274,144.551z"/>
	<path style="fill-rule:evenodd;clip-rule:evenodd;fill:#95BBB3;" d="M269.634,182.832c1.243-1.409,2.179-2.471,3.789-4.297
		c1.457,1.327,2.596,2.365,4.437,4.041c-1.969,1.702-2.941,2.543-4.416,3.817C272.06,185.1,270.973,184.084,269.634,182.832z"/>
	<path style="fill-rule:evenodd;clip-rule:evenodd;fill:#95BBB3;" d="M248.027,287.439c4.47-2.801,4.47-2.801,6.942,1.387
		c-1.067,0.847-2.174,1.726-3.722,2.954C250.115,290.254,249.195,289.014,248.027,287.439z"/>
	<path style="fill-rule:evenodd;clip-rule:evenodd;fill:#96BCB4;" d="M230.11,175.681c-1.334-1.716-2.207-2.837-3.496-4.494
		c1.107-1.234,2.042-2.277,3.406-3.798c1.867,1.654,2.928,2.596,4.225,3.745C232.586,172.958,231.627,174.012,230.11,175.681z"/>
	<path style="fill-rule:evenodd;clip-rule:evenodd;fill:#94BAB3;" d="M257.921,292.366c4.097,3.607,4.097,3.607-0.48,7.414
		c-1.01-0.993-2.092-2.058-3.39-3.333C255.777,294.628,256.74,293.611,257.921,292.366z"/>
	<path style="fill-rule:evenodd;clip-rule:evenodd;fill:#95BBB3;" d="M246.148,175.068c1.344,2.173,3.252,3.812,0.44,5.698
		c-1.807,1.212-3.246,0.434-4.005-1.262C241.162,176.337,243.863,176.155,246.148,175.068z"/>
	<path style="fill-rule:evenodd;clip-rule:evenodd;fill:#95BBB3;" d="M267.735,305.756c-1.936-0.957-3.183-1.573-5.337-2.639
		c1.495-1.569,2.433-2.961,3.739-3.711c0.474-0.272,2.56,0.909,2.628,1.563C268.911,302.351,268.212,303.82,267.735,305.756z"/>
	<path style="fill-rule:evenodd;clip-rule:evenodd;fill:#96BBB4;" d="M167.611,166.819c-1.631-2.322-3.942-3.752-1.063-5.824
		c1.588-1.143,3.112-0.942,4.078,0.907C172.258,165.032,169.409,165.234,167.611,166.819z"/>
	<path style="fill-rule:evenodd;clip-rule:evenodd;fill:#98BDB5;" d="M254.438,120.943c0-1.704,0-3.097,0-5.06
		c1.838,0.259,3.33,0.469,4.758,0.669C259.39,121.345,259.39,121.345,254.438,120.943z"/>
	<path style="fill-rule:evenodd;clip-rule:evenodd;fill:#93BAB2;" d="M178.754,171.767c-1.396,1.059-2.519,1.909-3.998,3.03
		c-1.365-1.23-2.492-2.246-3.586-3.233C174.328,167.348,174.328,167.348,178.754,171.767z"/>
	<path style="fill-rule:evenodd;clip-rule:evenodd;fill:#92B9B1;" d="M164.479,146.075c-1.349,0.099-2.762,0.202-4.623,0.339
		c-0.141-1.744-0.253-3.124-0.36-4.45C164.812,140.843,165.016,141.014,164.479,146.075z"/>
	<path style="fill-rule:evenodd;clip-rule:evenodd;fill:#97BCB4;" d="M168.326,116.258c1.287-1.723,2.122-2.84,3.512-4.702
		c1.292,1.695,2.498,2.858,3.072,4.278c0.18,0.446-1.379,2.289-2.067,2.248C171.468,117.999,170.146,117.055,168.326,116.258z"/>
	<path style="fill-rule:evenodd;clip-rule:evenodd;fill:#9ABEB7;" d="M201.172,103.813c-4.744,0.404-4.744,0.404-5.193-4.241
		c1.5-0.237,3.024-0.479,4.963-0.786C201.03,100.696,201.095,102.107,201.172,103.813z"/>
	<path style="fill-rule:evenodd;clip-rule:evenodd;fill:#9DC0B9;" d="M243.117,270.646c0.366-1.383,0.464-2.951,1.228-4.061
		c0.311-0.452,2.413-0.297,3.065,0.289c0.631,0.567,0.952,2.63,0.52,3.001c-1.017,0.873-2.564,1.13-3.896,1.636
		C243.729,271.223,243.423,270.935,243.117,270.646z"/>
	<path style="fill-rule:evenodd;clip-rule:evenodd;fill:#F4F8F7;" d="M163.758,252.843c6.149-5.966,11.755-11.404,17.835-17.305
		c-6.016-5.601-11.833-11.018-17.894-16.66c1.677-1.796,2.758-2.955,4.181-4.48c5.835,5.823,11.448,11.424,17.462,17.425
		c5.99-6.468,11.722-12.658,17.646-19.056c1.965,1.865,3.118,2.959,4.615,4.38c-6.366,5.938-12.532,11.691-19.011,17.736
		c6.659,6.242,12.417,11.639,18.236,17.093c-1.092,1.555-1.485,2.239-2,2.813c-0.545,0.607-1.208,1.11-2.258,2.052
		c-5.687-5.644-11.296-11.211-16.987-16.86c-5.513,5.809-10.861,11.443-16.63,17.522
		C166.807,255.577,165.555,254.454,163.758,252.843z"/>
	<path style="fill-rule:evenodd;clip-rule:evenodd;fill:#F6F9F8;" d="M362.693,165.889c-10.685,10.405-20.927,20.381-30.651,29.852
		c-6.265-6.264-12.445-12.444-18.627-18.624c-0.408,0.221-0.816,0.44-1.225,0.66c1.035-1.182,2.07-2.362,3.486-3.979
		c5.124,5.027,10.058,9.868,15.361,15.072c9.203-8.866,18.282-17.614,27.617-26.608
		C359.886,163.367,361.061,164.422,362.693,165.889z"/>
</g>
</svg>
