<svg xmlns="http://www.w3.org/2000/svg" xmlns:xlink="http://www.w3.org/1999/xlink" width="300" height="300" viewBox="0 0 300 300"><switch><g><symbol id="a" viewBox="-150 -150 300 300.007"><path fill="#CE8E95" d="M150-97.021c0-6.764 0-52.979-71.5-52.979H-84c-62.5 0-66 47.215-66 53.979v186c0 54.5 59.235 60 66 60l161.5.029c6.765 0 72.5-.029 72.5-60.029v-187z"/></symbol><use xlink:href="#a" width="300" height="300.007" x="-150" y="-150" transform="matrix(1 0 0 -1 150 150)" overflow="visible"/><g fill="#26080D"><path d="M105.221 234.202l2.448 10.608c.528 2.497 1.056 5.041 1.488 7.585h.096c.48-2.544 1.248-5.137 1.92-7.536l3.024-10.657h4.8l2.928 10.369c.72 2.736 1.344 5.28 1.873 7.824h.096c.384-2.544.912-5.088 1.536-7.824l2.592-10.369h5.809l-7.345 23.378h-5.472l-2.785-9.505c-.72-2.448-1.248-4.656-1.776-7.488h-.096c-.48 2.88-1.104 5.185-1.776 7.488l-2.977 9.505h-5.521l-6.913-23.378h6.051zM143.909 227.674c0 1.775-1.296 3.168-3.36 3.168-1.968 0-3.265-1.393-3.265-3.168 0-1.824 1.344-3.217 3.313-3.217 2.015 0 3.263 1.393 3.312 3.217zm-6.289 29.906v-23.378h5.952v23.378h-5.952zM149.908 241.979c0-3.072-.096-5.568-.192-7.776h5.185l.287 3.601h.097c1.728-2.641 4.464-4.129 8.017-4.129 5.377 0 9.841 4.608 9.841 11.905 0 8.448-5.329 12.529-10.657 12.529-2.928 0-5.376-1.248-6.576-3.12h-.096v12.097h-5.905v-25.107zm5.905 5.808c0 .576.047 1.104.191 1.632.576 2.4 2.688 4.129 5.185 4.129 3.744 0 5.952-3.12 5.952-7.729 0-4.129-2.016-7.489-5.809-7.489-2.447 0-4.704 1.776-5.279 4.369a5.31 5.31 0 0 0-.24 1.487v3.601zM182.164 247.547c.144 4.225 3.455 6.049 7.2 6.049 2.736 0 4.704-.384 6.48-1.056l.864 4.08c-2.017.816-4.801 1.44-8.161 1.44-7.585 0-12.049-4.657-12.049-11.81 0-6.48 3.937-12.577 11.425-12.577 7.585 0 10.081 6.24 10.081 11.377 0 1.104-.097 1.969-.192 2.496h-15.648zm10.273-4.128c.048-2.16-.912-5.713-4.849-5.713-3.648 0-5.185 3.313-5.424 5.713h10.273z"/></g><path fill="#FFF" d="M201 73h70v117h-70z"/><path fill="#333" d="M34 73h167v117H34z"/><path fill="#333" d="M210.103 123.404l-3.962 13.048h-8.676l14.756-46.043h10.726l14.96 46.043h-9.018l-4.167-13.048h-14.619zm13.184-6.353l-3.62-11.34c-.889-2.801-1.64-5.943-2.323-8.607h-.137c-.683 2.664-1.366 5.875-2.186 8.607l-3.553 11.34h11.819z"/><path fill="#FFF" d="M89.122 92.162c2.665-.546 7.515-.956 12.229-.956 6.216 0 10.042.751 13.184 2.938 2.87 1.708 4.782 4.713 4.782 8.607 0 4.235-2.664 8.129-7.651 9.974v.137c4.851 1.229 9.291 5.055 9.291 11.408 0 4.099-1.776 7.31-4.44 9.496-3.279 2.869-8.676 4.304-17.079 4.304-4.645 0-8.198-.341-10.315-.615V92.162zm8.335 18.171h4.304c5.807 0 9.086-2.732 9.086-6.626 0-4.304-3.279-6.285-8.608-6.285-2.459 0-3.894.137-4.782.342v12.569zm0 21.177c1.093.137 2.527.205 4.44.205 5.396 0 10.179-2.049 10.179-7.719 0-5.329-4.646-7.515-10.452-7.515h-4.167v15.029z"/><path fill="#FFF" stroke="#FFF" stroke-width="1.477" stroke-miterlimit="10" d="M173.982 111.246v.651l-36.223-.229c-.291 0 0-.293 0 0l.493 11.322c0 .292 8.607-.05 8.901-.05h26.828v11.699c.153.147.55.006.702-.141l17.609-16.593a.37.37 0 0 0 0-.535l-17.609-16.593c-.152-.148-.549-.007-.702.141V111.246z"/></g></switch></svg>