<?xml version="1.0" encoding="UTF-8" standalone="no"?>
<!-- Generator: Adobe Illustrator 16.0.3, SVG Export Plug-In . SVG Version: 6.00 Build 0)  -->

<svg
   xmlns:dc="http://purl.org/dc/elements/1.1/"
   xmlns:cc="http://creativecommons.org/ns#"
   xmlns:rdf="http://www.w3.org/1999/02/22-rdf-syntax-ns#"
   xmlns:svg="http://www.w3.org/2000/svg"
   xmlns="http://www.w3.org/2000/svg"
   xmlns:sodipodi="http://sodipodi.sourceforge.net/DTD/sodipodi-0.dtd"
   xmlns:inkscape="http://www.inkscape.org/namespaces/inkscape"
   version="1.1"
   id="Ebene_1"
   x="0px"
   y="0px"
   width="60px"
   height="60px"
   viewBox="0 0 60 60"
   style="enable-background:new 0 0 60 60;"
   xml:space="preserve"
   sodipodi:docname="visual_qr_mitlaeufereffekt_de.svg"
   inkscape:version="0.92.4 (5da689c313, 2019-01-14)"><metadata
   id="metadata79"><rdf:RDF><cc:Work
       rdf:about=""><dc:format>image/svg+xml</dc:format><dc:type
         rdf:resource="http://purl.org/dc/dcmitype/StillImage" /><dc:title></dc:title></cc:Work></rdf:RDF></metadata><defs
   id="defs77" /><sodipodi:namedview
   pagecolor="#ffffff"
   bordercolor="#666666"
   borderopacity="1"
   objecttolerance="10"
   gridtolerance="10"
   guidetolerance="10"
   inkscape:pageopacity="0"
   inkscape:pageshadow="2"
   inkscape:window-width="731"
   inkscape:window-height="480"
   id="namedview75"
   showgrid="false"
   inkscape:zoom="3.9333333"
   inkscape:cx="30"
   inkscape:cy="30"
   inkscape:window-x="0"
   inkscape:window-y="0"
   inkscape:window-maximized="0"
   inkscape:current-layer="Ebene_1" />
<rect
   style="fill:#A0B983;"
   width="60"
   height="60"
   id="rect2" />
<g
   id="g34">
	<rect
   x="0.167"
   y="50.918"
   style="fill:none;"
   width="59.665"
   height="16.332"
   id="rect4" />
	<path
   style="fill:#FFFFFF;"
   d="M12.366,53.962c-0.028-0.609-0.063-1.345-0.056-1.982h-0.021c-0.154,0.574-0.35,1.212-0.56,1.807   l-0.687,2.046h-0.666l-0.63-2.018c-0.182-0.603-0.35-1.246-0.476-1.835H9.256c-0.021,0.616-0.049,1.366-0.084,2.01l-0.105,1.898   H8.262l0.315-4.721h1.135l0.616,1.898c0.168,0.553,0.315,1.113,0.434,1.639h0.021c0.126-0.512,0.287-1.093,0.469-1.646l0.651-1.892   h1.121l0.273,4.721h-0.841L12.366,53.962z"
   id="path6" />
	<path
   style="fill:#FFFFFF;"
   d="M15.046,51.524c0,0.259-0.189,0.462-0.49,0.462c-0.287,0-0.477-0.203-0.477-0.462   c0-0.267,0.196-0.47,0.483-0.47C14.856,51.055,15.039,51.258,15.046,51.524z M14.128,55.888v-3.411h0.868v3.411H14.128z"
   id="path8" />
	<path
   style="fill:#FFFFFF;"
   d="M16.837,51.503v0.974h0.819v0.645h-0.819v1.506c0,0.413,0.112,0.631,0.441,0.631   c0.147,0,0.259-0.021,0.336-0.043l0.014,0.659c-0.126,0.049-0.35,0.084-0.624,0.084c-0.315,0-0.581-0.105-0.742-0.28   c-0.182-0.196-0.266-0.505-0.266-0.953v-1.604h-0.49v-0.645h0.49v-0.771L16.837,51.503z"
   id="path10" />
	<path
   style="fill:#FFFFFF;"
   d="M18.237,50.915h0.868v4.973h-0.868V50.915z"
   id="path12" />
	<path
   style="fill:#FFFFFF;"
   d="M21.885,55.888l-0.056-0.378h-0.021c-0.21,0.266-0.567,0.455-1.008,0.455   c-0.687,0-1.072-0.497-1.072-1.016c0-0.861,0.763-1.296,2.024-1.289v-0.056c0-0.225-0.091-0.596-0.693-0.596   c-0.336,0-0.686,0.105-0.917,0.253l-0.168-0.561c0.252-0.154,0.693-0.302,1.233-0.302c1.092,0,1.408,0.693,1.408,1.437v1.232   c0,0.308,0.014,0.609,0.049,0.819H21.885z M20.155,51.518c0-0.245,0.189-0.435,0.441-0.435c0.231,0,0.413,0.183,0.413,0.435   c0,0.23-0.175,0.427-0.42,0.427C20.337,51.944,20.155,51.748,20.155,51.518z M21.773,54.221c-0.609-0.014-1.19,0.119-1.19,0.638   c0,0.336,0.217,0.49,0.49,0.49c0.343,0,0.595-0.225,0.672-0.47c0.021-0.063,0.028-0.133,0.028-0.188V54.221z M21.556,51.518   c0-0.245,0.182-0.435,0.427-0.435s0.42,0.183,0.42,0.435c0,0.23-0.175,0.427-0.42,0.427C21.731,51.944,21.556,51.748,21.556,51.518   z"
   id="path14" />
	<path
   style="fill:#FFFFFF;"
   d="M26.506,54.865c0,0.406,0.014,0.742,0.028,1.022h-0.756l-0.042-0.519h-0.014   c-0.147,0.245-0.483,0.596-1.093,0.596c-0.623,0-1.19-0.371-1.19-1.485v-2.003h0.861v1.856c0,0.567,0.182,0.932,0.638,0.932   c0.343,0,0.567-0.245,0.658-0.463c0.028-0.077,0.049-0.168,0.049-0.266v-2.06h0.862V54.865z"
   id="path16" />
	<path
   style="fill:#FFFFFF;"
   d="M27.463,55.888v-2.767h-0.462v-0.645h0.462V52.33c0-0.441,0.119-0.883,0.414-1.163   c0.252-0.238,0.595-0.329,0.889-0.329c0.231,0,0.413,0.035,0.554,0.084l-0.063,0.665c-0.091-0.034-0.21-0.063-0.364-0.063   c-0.427,0-0.574,0.357-0.574,0.777v0.175h0.75v0.645h-0.743v2.767H27.463z"
   id="path18" />
	<path
   style="fill:#FFFFFF;"
   d="M30.06,54.424c0.021,0.616,0.505,0.883,1.051,0.883c0.399,0,0.687-0.057,0.945-0.154l0.126,0.596   c-0.294,0.118-0.7,0.21-1.19,0.21c-1.106,0-1.758-0.68-1.758-1.724c0-0.945,0.574-1.835,1.667-1.835   c1.106,0,1.471,0.911,1.471,1.66c0,0.161-0.014,0.287-0.028,0.364H30.06z M31.559,53.821c0.007-0.314-0.133-0.833-0.707-0.833   c-0.532,0-0.757,0.483-0.792,0.833H31.559z"
   id="path20" />
	<path
   style="fill:#FFFFFF;"
   d="M32.993,53.576c0-0.462-0.007-0.791-0.027-1.1h0.749l0.028,0.651h0.027   c0.169-0.483,0.567-0.729,0.932-0.729c0.084,0,0.134,0.008,0.203,0.021v0.813c-0.069-0.014-0.146-0.028-0.252-0.028   c-0.413,0-0.693,0.267-0.771,0.651c-0.014,0.077-0.028,0.168-0.028,0.267v1.765h-0.861V53.576z"
   id="path22" />
	<path
   style="fill:#FFFFFF;"
   d="M35.961,54.424c0.021,0.616,0.505,0.883,1.051,0.883c0.399,0,0.687-0.057,0.945-0.154l0.126,0.596   c-0.294,0.118-0.7,0.21-1.19,0.21c-1.106,0-1.758-0.68-1.758-1.724c0-0.945,0.574-1.835,1.667-1.835   c1.106,0,1.471,0.911,1.471,1.66c0,0.161-0.014,0.287-0.028,0.364H35.961z M37.46,53.821c0.007-0.314-0.133-0.833-0.707-0.833   c-0.532,0-0.757,0.483-0.792,0.833H37.46z"
   id="path24" />
	<path
   style="fill:#FFFFFF;"
   d="M41.093,55.888v-2.767h-1.239v2.767h-0.861v-2.767h-0.463v-0.645h0.463v-0.084   c0-0.441,0.104-0.848,0.385-1.127c0.21-0.218,0.525-0.351,0.96-0.351c0.182,0,0.364,0.049,0.469,0.098l-0.14,0.638   c-0.084-0.035-0.196-0.063-0.309-0.063c-0.392,0-0.511,0.33-0.511,0.757v0.133h1.246V52.33c0-0.441,0.119-0.883,0.421-1.163   c0.252-0.238,0.588-0.329,0.889-0.329c0.231,0,0.414,0.035,0.547,0.084l-0.057,0.665c-0.098-0.034-0.21-0.063-0.371-0.063   c-0.427,0-0.567,0.357-0.567,0.777v0.175h0.743v0.645h-0.735v2.767H41.093z"
   id="path26" />
	<path
   style="fill:#FFFFFF;"
   d="M43.696,54.424c0.021,0.616,0.505,0.883,1.051,0.883c0.399,0,0.687-0.057,0.945-0.154l0.126,0.596   c-0.294,0.118-0.7,0.21-1.19,0.21c-1.106,0-1.758-0.68-1.758-1.724c0-0.945,0.574-1.835,1.667-1.835   c1.106,0,1.471,0.911,1.471,1.66c0,0.161-0.014,0.287-0.028,0.364H43.696z M45.195,53.821c0.007-0.314-0.133-0.833-0.707-0.833   c-0.532,0-0.757,0.483-0.792,0.833H45.195z"
   id="path28" />
	<path
   style="fill:#FFFFFF;"
   d="M47.491,53.976h0.015c0.084-0.133,0.182-0.28,0.273-0.399l0.826-1.1h1.036l-1.261,1.395l1.443,2.017   h-1.058l-0.98-1.506l-0.295,0.343v1.163H46.63v-4.973h0.861V53.976z"
   id="path30" />
	<path
   style="fill:#FFFFFF;"
   d="M51.11,51.503v0.974h0.819v0.645H51.11v1.506c0,0.413,0.111,0.631,0.44,0.631   c0.147,0,0.26-0.021,0.337-0.043l0.014,0.659c-0.126,0.049-0.351,0.084-0.623,0.084c-0.315,0-0.582-0.105-0.743-0.28   c-0.182-0.196-0.266-0.505-0.266-0.953v-1.604h-0.49v-0.645h0.49v-0.771L51.11,51.503z"
   id="path32" />
</g>
<g
   id="g41"
   transform="translate(-7.561529,-21.467778)">
	<g
   id="Bild"
   transform="translate(8.6,22.5)">
		
			<sodipodi:namedview
   units="mm"
   showguides="true"
   inkscape:cy="140.10525"
   inkscape:cx="100.8875"
   inkscape:zoom="1.4"
   showgrid="false"
   borderopacity="1.0"
   bordercolor="#666666"
   pagecolor="#ffffff"
   id="base"
   inkscape:document-units="mm"
   inkscape:guide-bbox="true"
   inkscape:current-layer="layer1"
   inkscape:window-maximized="1"
   inkscape:window-y="0"
   inkscape:window-x="0"
   inkscape:window-height="700"
   inkscape:window-width="856"
   inkscape:pageshadow="2"
   inkscape:pageopacity="0.0">
			<sodipodi:guide
   orientation="1,0"
   position="191.33858,0"
   id="guide21487" />
			<sodipodi:guide
   orientation="0,1"
   position="0,304.72441"
   id="guide21489" />
			<sodipodi:guide
   orientation="0,1"
   position="0,322.44094"
   id="guide26097" />
		</sodipodi:namedview>
		<g
   id="layer1"
   transform="translate(0,-910.62992)"
   inkscape:label="Ebene 1"
   inkscape:groupmode="layer">
			<path
   id="path5414-3-8-1"
   inkscape:connector-curvature="0"
   style="fill:#FFFFFF;"
   d="M11.258,917.01     c-1.666,0-3.016,1.352-3.016,3.018c0,1.666,1.351,3.018,3.016,3.018c1.666,0,3.018-1.352,3.018-3.018     C14.276,918.361,12.924,917.01,11.258,917.01z M28.97,917.01c-1.667,0-3.018,1.352-3.018,3.018c0,1.666,1.351,3.018,3.018,3.018     c1.664,0,3-1.352,3-3.018C31.97,918.361,30.634,917.01,28.97,917.01z M46.665,917.01c-1.667,0-3.018,1.352-3.018,3.018     c0,1.666,1.351,3.018,3.018,3.018c1.665,0,3.017-1.352,3.017-3.018C49.681,918.361,48.33,917.01,46.665,917.01z M7.11,923.619     c-1.484,0.15-2.675,1.252-3.018,2.672c-0.077,0.187-0.131,0.392-0.131,0.606v7.822c0,0.88,0.711,1.591,1.591,1.591     c0.879,0,1.591-0.711,1.591-1.591v-7.822c0-0.033-0.014-0.065-0.017-0.098h0.639v2.869v6.346v0.295v14.284     c0,0.879,0.712,1.591,1.591,1.591c0.88,0,1.591-0.712,1.591-1.591v-11.414h0.64v11.414c0,0.879,0.694,1.591,1.573,1.591     c0.88,0,1.591-0.712,1.591-1.591v-14.579v-6.346V926.8h0.64c-0.001,0.015,0,0.033,0,0.049v7.871c0,0.88,0.71,1.591,1.591,1.591     c0.879,0,1.59-0.711,1.59-1.591v-7.871c0-0.22-0.051-0.433-0.131-0.623c-0.392-1.5-1.74-2.607-3.362-2.607     c-0.109,0-0.221-0.008-0.329,0H7.766v0.016c-0.095-0.009-0.197-0.016-0.295-0.016C7.35,923.619,7.228,923.606,7.11,923.619z      M24.821,923.619c-1.483,0.15-2.691,1.252-3.034,2.672c-0.076,0.187-0.131,0.392-0.131,0.606v7.822     c0,0.88,0.712,1.591,1.591,1.591c0.88,0,1.59-0.711,1.59-1.591v-7.822c0-0.033-0.014-0.065-0.016-0.098h0.655v8.346v0.869v0.295     v14.284c0,0.879,0.696,1.591,1.575,1.591c0.88,0,1.59-0.712,1.59-1.591v-11.414h0.641v11.414c0,0.879,0.711,1.591,1.591,1.591     c0.879,0,1.574-0.712,1.574-1.591v-14.579v-0.918V926.8h0.639c-0.001,0.015,0,0.033,0,0.049v7.871     c0,0.88,0.711,1.591,1.591,1.591c0.879,0,1.591-0.711,1.591-1.591v-7.871c0-0.22-0.051-0.433-0.131-0.623     c-0.392-1.5-1.739-2.607-3.362-2.607c-0.109,0-0.221-0.008-0.327,0h-6.971v0.016c-0.101-0.009-0.208-0.016-0.312-0.016     C25.045,923.619,24.938,923.606,24.821,923.619z M42.515,923.619c-1.483,0.15-2.691,1.252-3.034,2.672     c-0.076,0.187-0.131,0.392-0.131,0.606v7.822c0,0.88,0.712,1.591,1.591,1.591c0.88,0,1.591-0.711,1.591-1.591v-7.822     c0-0.033-0.015-0.065-0.017-0.098h0.656v2.869v6.346v0.295v14.284c0,0.879,0.711,1.591,1.591,1.591     c0.879,0,1.573-0.712,1.573-1.591v-11.414h0.641v11.414c0,0.879,0.71,1.591,1.591,1.591c0.879,0,1.59-0.712,1.59-1.591v-14.579     v-6.346V926.8h0.623c0,0.015,0,0.033,0,0.049v7.871c0,0.88,0.712,1.591,1.591,1.591s1.591-0.711,1.591-1.591v-7.871     c0-0.22-0.051-0.433-0.131-0.623c-0.393-1.5-1.74-2.607-3.362-2.607c-0.104,0-0.209-0.006-0.312,0h-6.985v0.016     c-0.101-0.009-0.193-0.016-0.295-0.016C42.756,923.619,42.632,923.606,42.515,923.619z" />
		</g>
	</g>
</g>
<g
   id="g44">
</g>
<g
   id="g46">
</g>
<g
   id="g48">
</g>
<g
   id="g50">
</g>
<g
   id="g52">
</g>
<g
   id="g54">
</g>
<g
   id="g56">
</g>
<g
   id="g58">
</g>
<g
   id="g60">
</g>
<g
   id="g62">
</g>
<g
   id="g64">
</g>
<g
   id="g66">
</g>
<g
   id="g68">
</g>
<g
   id="g70">
</g>
<g
   id="g72">
</g>
</svg>