<?xml version="1.0" encoding="UTF-8" standalone="no"?>
<svg
   xmlns:dc="http://purl.org/dc/elements/1.1/"
   xmlns:cc="http://creativecommons.org/ns#"
   xmlns:rdf="http://www.w3.org/1999/02/22-rdf-syntax-ns#"
   xmlns:svg="http://www.w3.org/2000/svg"
   xmlns="http://www.w3.org/2000/svg"
   viewBox="0 0 375 375"
   height="375"
   width="375"
   xml:space="preserve"
   version="1.1"
   id="svg2"><metadata
     id="metadata8"><rdf:RDF><cc:Work
         rdf:about=""><dc:format>image/svg+xml</dc:format><dc:type
           rdf:resource="http://purl.org/dc/dcmitype/StillImage" /></cc:Work></rdf:RDF></metadata><defs
     id="defs6"><clipPath
       id="clipPath18"
       clipPathUnits="userSpaceOnUse"><path
         id="path20"
         d="m 0,0 0,2991 3000,0 L 3000,0 0,0 Z" /></clipPath></defs><g
     transform="matrix(1.25,0,0,-1.25,0,375)"
     id="g10"><g
       transform="scale(0.1,0.1)"
       id="g12"><g
         id="g14"><g
           clip-path="url(#clipPath18)"
           id="g16"><path
             id="path22"
             style="fill:#aebcc4;fill-opacity:1;fill-rule:nonzero;stroke:none"
             d="m 3000,519.855 c 0,-67.632 0,-529.85109 -715,-529.85109 l -1625,0 C 35,-9.99609 0,462.223 0,529.855 L 0,2389.86 c 0,545 592.352,600 660,600 l 1615,0.28 c 67.65,0 725,-0.28 725,-600.28" /></g></g><path
         id="path24"
         style="fill:#080828;fill-opacity:1;fill-rule:nonzero;stroke:none"
         d="m 621.75,700.484 0,-52.781 -33.594,0 0,-44.156 33.594,0 0,-109.891 c 0,-30.703 5.75,-51.828 18.234,-65.265 11.032,-11.985 29.266,-19.188 50.86,-19.188 18.719,0 34.078,2.391 42.719,5.75 l -0.969,45.11 c -5.266,-1.438 -12.953,-2.875 -23.031,-2.875 -22.547,0 -30.235,14.875 -30.235,43.187 l 0,103.172 56.156,0 0,44.156 -56.156,0 0,66.703 -57.578,-13.922" /><path
         id="path26"
         style="fill:#080828;fill-opacity:1;fill-rule:nonzero;stroke:none"
         d="m 779.672,414 59.031,0 0,120.922 c 0,6.719 0.953,12.969 1.906,18.234 5.282,26.407 24.485,44.641 52.797,44.641 7.188,0 12.469,-0.969 17.266,-1.922 l 0,55.656 c -4.797,0.969 -8.156,1.453 -13.906,1.453 -24.953,0 -52.313,-16.796 -63.828,-49.906 l -1.922,0 -1.922,44.625 -51.344,0 c 1.438,-21.125 1.922,-43.672 1.922,-75.344 l 0,-158.359" /><path
         id="path28"
         style="fill:#080828;fill-opacity:1;fill-rule:nonzero;stroke:none"
         d="m 1131.42,414 c -2.39,14.391 -3.36,35.031 -3.36,56.141 l 0,84.468 c 0,50.86 -21.59,98.375 -96.45,98.375 -36.954,0 -67.188,-10.078 -84.454,-20.64 l 11.516,-38.391 c 15.828,10.078 39.828,17.281 62.858,17.281 41.27,0 47.52,-25.437 47.52,-40.796 l 0,-3.844 c -86.394,0.484 -138.691,-29.266 -138.691,-88.297 0,-35.5 26.391,-69.578 73.421,-69.578 30.24,0 54.7,12.953 69.1,31.187 l 1.43,0 3.85,-25.906 53.26,0 z m -60.94,82.063 c 0,-3.844 -0.48,-8.641 -1.92,-12.954 -5.28,-16.796 -22.56,-32.156 -46.08,-32.156 -18.7,0 -33.574,10.547 -33.574,33.594 0,35.5 39.824,44.625 81.574,43.656 l 0,-32.14" /><path
         id="path30"
         style="fill:#080828;fill-opacity:1;fill-rule:nonzero;stroke:none"
         d="m 1354.31,464.859 c -11.51,-4.796 -25.92,-9.109 -46.54,-9.109 -40.32,0 -71.5,27.359 -71.5,75.344 -0.49,42.703 26.39,75.812 71.5,75.812 21.11,0 35.03,-4.797 44.62,-9.109 l 10.56,44.141 c -13.43,6.234 -35.51,11.046 -57.11,11.046 -82.06,0 -130.04,-54.718 -130.04,-124.781 0,-72.453 47.5,-119 120.45,-119 29.27,0 53.73,6.235 66.22,12 l -8.16,43.656" /><path
         id="path32"
         style="fill:#080828;fill-opacity:1;fill-rule:nonzero;stroke:none"
         d="m 1464.7,754.719 -59.03,0 0,-340.719 59.03,0 0,79.656 20.14,23.516 67.19,-103.172 72.47,0 -98.86,138.203 86.38,95.5 -71.02,0 -56.62,-75.344 c -6.25,-8.156 -12.96,-18.234 -18.72,-27.359 l -0.96,0 0,209.719" /><path
         id="path34"
         style="fill:#080828;fill-opacity:1;fill-rule:nonzero;stroke:none"
         d="m 1855.72,652.984 c -70.53,0 -120.92,-47.031 -120.92,-123.812 0,-74.859 50.86,-120.453 117.09,-120.453 59.5,0 119.97,38.39 119.97,124.297 0,71.015 -46.55,119.968 -116.14,119.968 z m -1.44,-43.203 c 40.31,0 56.63,-41.734 56.63,-78.218 0,-47.016 -23.52,-80.125 -57.11,-80.125 -35.99,0 -58.07,34.062 -58.07,79.171 0,38.875 16.8,79.172 58.55,79.172" /><path
         id="path36"
         style="fill:#080828;fill-opacity:1;fill-rule:nonzero;stroke:none"
         d="m 2229.89,647.703 -59.01,0 0,-141.094 c 0,-6.718 -1.44,-12.953 -3.36,-18.234 -6.24,-14.875 -21.6,-31.672 -45.11,-31.672 -31.19,0 -43.68,24.953 -43.68,63.828 l 0,127.172 -59.01,0 0,-137.25 c 0,-76.297 38.86,-101.734 81.58,-101.734 41.75,0 64.78,24 74.86,40.797 l 0.95,0 2.87,-35.516 51.83,0 c -0.95,19.188 -1.92,42.234 -1.92,70.063 l 0,163.64" /><path
         id="path38"
         style="fill:#080828;fill-opacity:1;fill-rule:nonzero;stroke:none"
         d="m 2303.75,700.484 0,-52.781 -33.59,0 0,-44.156 33.59,0 0,-109.891 c 0,-30.703 5.75,-51.828 18.23,-65.265 11.04,-11.985 29.27,-19.188 50.86,-19.188 18.72,0 34.08,2.391 42.72,5.75 l -0.97,45.11 c -5.26,-1.438 -12.95,-2.875 -23.03,-2.875 -22.54,0 -30.23,14.875 -30.23,43.187 l 0,103.172 56.15,0 0,44.156 -56.15,0 0,66.703 -57.58,-13.922" /><path
         id="path40"
         style="fill:none;stroke:#ffffff;stroke-width:111.43000031;stroke-linecap:butt;stroke-linejoin:miter;stroke-miterlimit:10;stroke-dasharray:none;stroke-opacity:1"
         d="M 1805.98,2478.22 2385.73,936.672" /><path
         id="path42"
         style="fill:none;stroke:#ffffff;stroke-width:108.88999939;stroke-linecap:butt;stroke-linejoin:miter;stroke-miterlimit:10;stroke-dasharray:none;stroke-opacity:1"
         d="M 1256.52,2443.1 690,936.664" /><path
         id="path44"
         style="fill:none;stroke:#ffffff;stroke-width:110;stroke-linecap:butt;stroke-linejoin:miter;stroke-miterlimit:10;stroke-dasharray:none;stroke-opacity:1"
         d="m 1130,2175 810,0" /><path
         id="path46"
         style="fill:none;stroke:#ffffff;stroke-width:160;stroke-linecap:butt;stroke-linejoin:miter;stroke-miterlimit:10;stroke-dasharray:none;stroke-opacity:1"
         d="m 1030,1770 1060,0" /><path
         id="path48"
         style="fill:none;stroke:#ffffff;stroke-width:150;stroke-linecap:butt;stroke-linejoin:miter;stroke-miterlimit:10;stroke-dasharray:none;stroke-opacity:1"
         d="m 790,1225 1490,0" /><path
         id="path50"
         style="fill:#c1272d;fill-opacity:1;fill-rule:nonzero;stroke:none"
         d="m 1603.67,2178.39 2.85,-764.49 187.13,-6.54 -266.55,-316.75 -246.17,304.96 186.63,9.11 -3.11,772.3" /><path
         id="path52"
         style="fill:#c1272d;fill-opacity:1;fill-rule:nonzero;stroke:none"
         d="m 1663.11,2530.25 c 0,-67.05 -54.36,-121.39 -121.41,-121.39 -67.04,0 -121.4,54.34 -121.4,121.39 0,67.04 54.36,121.39 121.4,121.39 67.05,0 121.41,-54.35 121.41,-121.39" /></g></g></svg>