<svg xmlns="http://www.w3.org/2000/svg" xmlns:xlink="http://www.w3.org/1999/xlink" width="300" height="300" viewBox="0 0 300 300"><switch><g><symbol id="a" viewBox="-150 -150 300 300.015"><path fill="#AEBCC4" d="M150-97.015c0-6.763 0-52.985-71.5-52.985H-84c-62.5 0-66 47.223-66 53.985v186c0 54.5 59.235 60 66 60l161.5.029c6.765 0 72.5-.029 72.5-60.029v-187z"/></symbol><symbol id="b" viewBox="-150 -150 300 300.007"><path fill="#CE8E95" d="M150-97.021c0-6.764 0-52.979-71.5-52.979H-84c-62.5 0-66 47.215-66 53.979v186c0 54.5 59.235 60 66 60l161.5.029c6.765 0 72.5-.029 72.5-60.029v-187z"/></symbol><use xlink:href="#b" width="300" height="300.007" x="-150" y="-150" transform="matrix(1 0 0 -1 151 150)" overflow="visible"/><path fill="none" d="M.333 240.5h297.333v47H.333z"/><g fill="#26080D"><path d="M58.903 261.379c-.192-4.177-.432-9.217-.384-13.585h-.144a172.775 172.775 0 0 1-3.84 12.385l-4.705 14.018h-4.56l-4.32-13.825c-1.248-4.129-2.4-8.545-3.264-12.577h-.096c-.144 4.225-.336 9.36-.576 13.777l-.72 13.009h-5.521l2.16-32.354h7.777l4.224 13.009a163.312 163.312 0 0 1 2.976 11.233h.144c.864-3.505 1.968-7.489 3.216-11.281l4.464-12.961h7.681l1.873 32.354h-5.761l-.624-13.202zM77.765 244.674c0 1.775-1.296 3.168-3.36 3.168-1.968 0-3.265-1.393-3.265-3.168 0-1.824 1.344-3.217 3.313-3.217 2.016 0 3.264 1.393 3.312 3.217zm-6.288 29.906v-23.378h5.952v23.378h-5.952zM83.765 258.163c0-2.688-.048-4.945-.192-6.961h5.185l.288 3.504h.144c1.008-1.824 3.552-4.032 7.44-4.032 4.081 0 8.305 2.641 8.305 10.033v13.873H99.03v-13.201c0-3.36-1.248-5.904-4.464-5.904-2.352 0-3.984 1.68-4.608 3.456-.192.528-.24 1.248-.24 1.92v13.729h-5.952v-16.417zM132.773 240.497v27.507c0 2.399.096 4.992.192 6.576h-5.28l-.24-3.696h-.096c-1.392 2.592-4.225 4.225-7.633 4.225-5.568 0-9.985-4.753-9.985-11.953-.048-7.825 4.848-12.481 10.465-12.481 3.216 0 5.521 1.345 6.577 3.072h.096v-13.249h5.904zm-5.904 20.45a8.31 8.31 0 0 0-.144-1.536c-.528-2.305-2.4-4.177-5.089-4.177-3.792 0-5.904 3.36-5.904 7.729 0 4.272 2.112 7.393 5.856 7.393 2.4 0 4.513-1.632 5.088-4.176.144-.528.192-1.104.192-1.729v-3.504zM138.819 269.155c1.344.816 3.888 1.681 6 1.681 2.592 0 3.744-1.057 3.744-2.593 0-1.584-.96-2.399-3.84-3.408-4.56-1.584-6.48-4.08-6.433-6.816 0-4.128 3.409-7.345 8.833-7.345 2.592 0 4.849.672 6.192 1.393l-1.152 4.176c-1.008-.576-2.88-1.344-4.944-1.344-2.112 0-3.264 1.008-3.264 2.448 0 1.488 1.104 2.208 4.081 3.265 4.224 1.536 6.192 3.696 6.24 7.152 0 4.225-3.312 7.297-9.504 7.297-2.833 0-5.377-.673-7.105-1.633l1.152-4.273zM176.309 273.86c-1.248.576-3.697 1.2-6.625 1.2-7.297 0-12.049-4.657-12.049-11.905 0-7.009 4.801-12.481 13.01-12.481 2.16 0 4.367.48 5.712 1.104l-1.056 4.416c-.961-.432-2.353-.912-4.465-.912-4.512 0-7.201 3.313-7.152 7.585 0 4.801 3.12 7.536 7.152 7.536 2.064 0 3.504-.432 4.656-.912l.817 4.369zM180.675 258.738c0-3.168-.048-5.424-.192-7.536h5.137l.191 4.464h.192c1.152-3.312 3.889-4.992 6.385-4.992.576 0 .912.048 1.392.145v5.568a8.134 8.134 0 0 0-1.728-.192c-2.833 0-4.753 1.824-5.28 4.465-.096.527-.192 1.151-.192 1.824v12.097h-5.904v-15.843zM201.506 264.547c.145 4.225 3.457 6.049 7.201 6.049 2.736 0 4.705-.384 6.48-1.056l.865 4.08c-2.018.816-4.801 1.44-8.162 1.44-7.584 0-12.049-4.657-12.049-11.81 0-6.48 3.938-12.577 11.426-12.577 7.584 0 10.08 6.24 10.08 11.377 0 1.104-.096 1.969-.191 2.496h-15.65zm10.273-4.128c.049-2.16-.912-5.713-4.848-5.713-3.648 0-5.186 3.313-5.426 5.713h10.274zM226.275 264.547c.143 4.225 3.455 6.049 7.199 6.049 2.736 0 4.705-.384 6.48-1.056l.865 4.08c-2.016.816-4.801 1.44-8.16 1.44-7.586 0-12.051-4.657-12.051-11.81 0-6.48 3.938-12.577 11.426-12.577 7.584 0 10.08 6.24 10.08 11.377 0 1.104-.096 1.969-.191 2.496h-15.648zm10.272-4.128c.049-2.16-.912-5.713-4.848-5.713-3.648 0-5.184 3.313-5.424 5.713h10.272zM246.865 258.163c0-2.688-.047-4.945-.191-6.961h5.186l.287 3.504h.145c1.008-1.824 3.553-4.032 7.439-4.032 4.08 0 8.305 2.641 8.305 10.033v13.873h-5.904v-13.201c0-3.36-1.248-5.904-4.465-5.904-2.352 0-3.984 1.68-4.607 3.456-.191.528-.24 1.248-.24 1.92v13.729h-5.953v-16.417z"/></g><g><path fill-rule="evenodd" clip-rule="evenodd" d="M66.196 207.407c2.918-4.931 6.695-9.815 7.862-15.203 1.586-7.302 2.186-15.091-.469-22.569-2.979-8.387-5.748-16.853-8.871-25.188-1.267-3.377-2.701-6.931-4.961-9.654-10.104-12.172-16.673-34.473-13.668-49.568 2.667-13.401 4.924-21.475 10.94-34.274 3.606-7.674 3.196-6.62 11.709-17.812 6.101-8.02 12.702-11.813 14.46-13.315 7.83-6.691 15.008-8.872 23.297-11.731 10.944-3.775 43.93-1.189 54.726.815 21.317 3.958 28.181 5.596 31.314 8.002 17.675 8.815 23.773 16.679 29.357 26.662 4.419 7.896 14.112 31.47 14.867 44.532.498 3.976-.491 10.714-1.226 15.688-.752 5.088-.048 9.356 3.009 13.524 5.009 6.824 9.648 13.916 14.577 20.798 3.589 5.006 2.057 10.076-3.804 11.958-10.103 3.248-9.612 3.949-10.715 14.805-12.116 4.809-7.729 13.857-4.438 17.97-7.22 4.291-4.93 8.584-5.021 15.457-.077 5.858-6.208 10.733-12.949 10.315-6.63-.41-13.176-2.125-19.763-3.232-4.7-.79-9.381-1.843-14.112-2.188-4.37-.319-7.247 2.149-8.224 6.486a375.24 375.24 0 0 0-2.618 12.66c-.441 2.322-1.36 3.555-4.065 3.55-49.876-.082-104.253-13.351-101.214-18.488z"/><path fill-rule="evenodd" clip-rule="evenodd" fill="#FFF" d="M112.965 13.662s-69.096 14.806-58.272 94.075c0 0 5.079 20.285 74.723 19.989 0 0 95.967 6.581 86.645-54.838 0 0-5.702-41.073-35.782-50.314-.001-.001-36.467-14.396-67.314-8.912z"/><g fill-rule="evenodd" clip-rule="evenodd"><path d="M77 39h117v73H77z"/><path fill="#FFF" d="M82 90h9v4h-9zM82 70h9v3h-9zM95 47h79v54H95z"/></g><path fill-rule="evenodd" clip-rule="evenodd" fill="#FFF" d="M82 59h9v3h-9zM82 48h9v3h-9zM82 79h9v4h-9zM82 101h9v4h-9zM181 90h9v4h-9zM181 70h9v3h-9zM181 48h9v3h-9zM181 79h9v4h-9zM181 101h9v4h-9zM181 59h9v3h-9z"/><circle fill-rule="evenodd" clip-rule="evenodd" fill="#C1272D" cx="117.5" cy="65" r="10"/></g></g></switch></svg>