<?xml version="1.0" encoding="iso-8859-1"?>
<!-- Generator: Adobe Illustrator 16.0.3, SVG Export Plug-In . SVG Version: 6.00 Build 0)  -->
<!DOCTYPE svg PUBLIC "-//W3C//DTD SVG 1.1//EN" "http://www.w3.org/Graphics/SVG/1.1/DTD/svg11.dtd">
<svg version="1.1" id="Ebene_1" xmlns="http://www.w3.org/2000/svg" xmlns:xlink="http://www.w3.org/1999/xlink" x="0px" y="0px"
	 width="518px" height="518px" viewBox="0 0 518 518" style="enable-background:new 0 0 518 518;" xml:space="preserve">
<path style="fill-rule:evenodd;clip-rule:evenodd;fill:#458C79;" d="M518,512c0,3.313-2.017,6-4.505,6H4.505
	C2.018,518,0,515.313,0,512V6c0-3.313,2.017-6,4.504-6h508.99C515.983,0,518,2.687,518,6V512z"/>
<g>
	<g id="XMLID_1_">
		<g>
			<path style="fill:#FCFBFB;" d="M259.039,25.99c96.51-0.58,177.17,79.81,175.04,178.93c-2.04,95.16-81.561,173.45-179.37,171.17
				c-94.72-2.21-173.28-81.439-170.77-179.76C86.349,101.91,164.509,25.46,259.039,25.99z M259.309,361.59
				c89.29-0.38,160.94-73.05,160.37-160.66c-0.58-89.03-72.779-160.79-161.03-160.56c-85.43,0.21-159.56,68.84-160.47,160.72
				C99.219,291.1,170.849,361.97,259.309,361.59z"/>
			<path style="fill:#458C79;" d="M419.679,200.93c0.57,87.61-71.08,160.28-160.37,160.66c-88.46,0.38-160.09-70.49-161.13-160.5
				c0.91-91.88,75.04-160.51,160.47-160.72C346.899,40.14,419.099,111.9,419.679,200.93z"/>
		</g>
		<g>
		</g>
	</g>
</g>
<g>
	<rect x="-7.001" y="413" style="fill-rule:evenodd;clip-rule:evenodd;fill:none;" width="525.002" height="106"/>
	<path style="fill:#FFFFFF;" d="M151.691,419.934h-11.084V450.5h-6.128v-30.566h-10.986v-4.98h28.198V419.934z"/>
	<path style="fill:#FFFFFF;" d="M168.024,429.504c-0.781-0.13-1.587-0.195-2.417-0.195c-2.718,0-4.549,1.042-5.493,3.125V450.5
		h-5.933v-26.416h5.664l0.146,2.954c1.432-2.295,3.418-3.442,5.957-3.442c0.846,0,1.546,0.114,2.1,0.342L168.024,429.504z"/>
	<path style="fill:#FFFFFF;" d="M187.775,447.912c-1.742,2.051-4.216,3.076-7.422,3.076c-2.865,0-5.034-0.838-6.506-2.515
		c-1.473-1.676-2.209-4.102-2.209-7.275v-17.114h5.933v17.041c0,3.354,1.392,5.029,4.175,5.029c2.881,0,4.826-1.033,5.835-3.101
		v-18.97h5.933V450.5h-5.591L187.775,447.912z M173.981,417.15c0-0.813,0.272-1.497,0.818-2.051c0.545-0.553,1.298-0.83,2.258-0.83
		c0.96,0,1.717,0.277,2.271,0.83c0.553,0.554,0.83,1.237,0.83,2.051c0,0.814-0.277,1.498-0.83,2.051
		c-0.554,0.554-1.311,0.83-2.271,0.83c-0.96,0-1.713-0.276-2.258-0.83C174.254,418.648,173.981,417.965,173.981,417.15z
		 M185.139,417.175c0-0.813,0.272-1.497,0.818-2.051c0.545-0.553,1.298-0.83,2.258-0.83c0.96,0,1.717,0.277,2.271,0.83
		c0.553,0.554,0.83,1.237,0.83,2.051c0,0.814-0.277,1.498-0.83,2.051c-0.554,0.554-1.311,0.83-2.271,0.83
		c-0.96,0-1.713-0.276-2.258-0.83C185.411,418.673,185.139,417.989,185.139,417.175z"/>
	<path style="fill:#FFFFFF;" d="M198.518,437.097c0-4.102,0.964-7.377,2.893-9.827c1.929-2.449,4.488-3.674,7.678-3.674
		c3.011,0,5.379,1.05,7.104,3.149l0.269-2.661h5.347v25.61c0,3.467-1.079,6.201-3.235,8.203c-2.157,2.002-5.066,3.003-8.728,3.003
		c-1.937,0-3.829-0.402-5.676-1.209c-1.848-0.805-3.251-1.859-4.211-3.161l2.808-3.564c1.823,2.164,4.069,3.247,6.738,3.247
		c1.969,0,3.523-0.533,4.663-1.6c1.139-1.065,1.709-2.633,1.709-4.699v-1.782c-1.709,1.904-3.988,2.856-6.836,2.856
		c-3.093,0-5.62-1.229-7.581-3.687C199.498,444.845,198.518,441.442,198.518,437.097z M204.426,437.609
		c0,2.653,0.541,4.74,1.624,6.262c1.082,1.522,2.583,2.283,4.504,2.283c2.393,0,4.167-1.025,5.322-3.076v-11.621
		c-1.123-2.002-2.881-3.003-5.273-3.003c-1.953,0-3.471,0.773-4.553,2.319C204.967,432.32,204.426,434.599,204.426,437.609z"/>
	<path style="fill:#FFFFFF;" d="M239.533,450.988c-3.76,0-6.808-1.184-9.143-3.553c-2.336-2.367-3.503-5.521-3.503-9.46v-0.732
		c0-2.637,0.508-4.993,1.526-7.067c1.017-2.076,2.445-3.69,4.285-4.847c1.839-1.155,3.89-1.733,6.152-1.733
		c3.597,0,6.376,1.147,8.337,3.442c1.961,2.295,2.942,5.542,2.942,9.741v2.393h-17.261c0.179,2.182,0.907,3.906,2.185,5.176
		c1.277,1.27,2.885,1.904,4.822,1.904c2.718,0,4.932-1.099,6.641-3.296l3.198,3.052c-1.058,1.579-2.47,2.804-4.236,3.674
		C243.712,450.553,241.73,450.988,239.533,450.988z M238.825,428.356c-1.628,0-2.942,0.57-3.943,1.709
		c-1.001,1.14-1.64,2.727-1.917,4.761h11.304v-0.439c-0.13-1.985-0.659-3.487-1.587-4.504
		C241.755,428.865,240.469,428.356,238.825,428.356z"/>
	<path style="fill:#FFFFFF;" d="M268.562,429.504c-0.781-0.13-1.587-0.195-2.417-0.195c-2.718,0-4.549,1.042-5.493,3.125V450.5
		h-5.933v-26.416h5.664l0.146,2.954c1.432-2.295,3.418-3.442,5.957-3.442c0.846,0,1.546,0.114,2.1,0.342L268.562,429.504z"/>
	<path style="fill:#FFFFFF;" d="M272.321,417.224c0-0.911,0.289-1.668,0.867-2.271c0.578-0.602,1.404-0.903,2.478-0.903
		s1.904,0.302,2.49,0.903c0.586,0.603,0.879,1.359,0.879,2.271c0,0.896-0.293,1.64-0.879,2.233c-0.586,0.595-1.416,0.892-2.49,0.892
		s-1.9-0.297-2.478-0.892C272.61,418.863,272.321,418.119,272.321,417.224z M278.62,450.5h-5.933v-26.416h5.933V450.5z"/>
	<path style="fill:#FFFFFF;" d="M299.885,443.322c0-1.058-0.436-1.863-1.306-2.417c-0.871-0.553-2.315-1.041-4.333-1.465
		c-2.019-0.423-3.703-0.96-5.054-1.611c-2.962-1.432-4.443-3.507-4.443-6.226c0-2.278,0.96-4.183,2.881-5.713
		c1.92-1.529,4.362-2.295,7.324-2.295c3.157,0,5.708,0.781,7.654,2.344c1.945,1.563,2.917,3.589,2.917,6.079h-5.933
		c0-1.139-0.423-2.087-1.27-2.845c-0.847-0.756-1.97-1.135-3.369-1.135c-1.302,0-2.364,0.302-3.186,0.903
		c-0.822,0.603-1.233,1.408-1.233,2.417c0,0.912,0.382,1.62,1.147,2.124c0.765,0.505,2.311,1.013,4.639,1.526
		c2.327,0.512,4.154,1.123,5.481,1.83c1.326,0.709,2.311,1.56,2.954,2.552c0.643,0.993,0.964,2.197,0.964,3.613
		c0,2.377-0.985,4.301-2.954,5.774c-1.97,1.473-4.549,2.209-7.739,2.209c-2.165,0-4.094-0.391-5.786-1.172
		c-1.693-0.781-3.011-1.855-3.955-3.223c-0.944-1.367-1.416-2.84-1.416-4.419h5.762c0.081,1.4,0.61,2.478,1.587,3.235
		c0.977,0.756,2.271,1.135,3.882,1.135c1.563,0,2.75-0.297,3.564-0.891C299.478,445.06,299.885,444.283,299.885,443.322z"/>
	<path style="fill:#FFFFFF;" d="M321.735,446.252c1.48,0,2.71-0.431,3.687-1.294c0.977-0.862,1.497-1.929,1.563-3.198h5.591
		c-0.065,1.645-0.578,3.178-1.538,4.602c-0.961,1.425-2.263,2.552-3.906,3.382s-3.418,1.245-5.322,1.245
		c-3.695,0-6.625-1.196-8.789-3.589c-2.165-2.393-3.247-5.696-3.247-9.912v-0.61c0-4.02,1.074-7.238,3.223-9.656
		c2.148-2.416,5.078-3.625,8.789-3.625c3.141,0,5.701,0.916,7.678,2.746c1.978,1.832,3.016,4.236,3.113,7.215h-5.591
		c-0.065-1.514-0.582-2.759-1.55-3.735c-0.969-0.977-2.202-1.465-3.699-1.465c-1.921,0-3.402,0.696-4.443,2.087
		c-1.042,1.393-1.571,3.504-1.587,6.336v0.952c0,2.865,0.517,5.001,1.55,6.409C318.289,445.548,319.782,446.252,321.735,446.252z"/>
	<path style="fill:#FFFFFF;" d="M342.902,426.965c1.937-2.246,4.386-3.369,7.349-3.369c5.631,0,8.487,3.215,8.569,9.644V450.5
		h-5.933v-17.041c0-1.822-0.395-3.113-1.185-3.869c-0.789-0.758-1.949-1.136-3.479-1.136c-2.377,0-4.15,1.059-5.322,3.174V450.5
		h-5.933V413h5.933V426.965z"/>
	<path style="fill:#FFFFFF;" d="M376.447,450.988c-3.76,0-6.808-1.184-9.144-3.553c-2.335-2.367-3.503-5.521-3.503-9.46v-0.732
		c0-2.637,0.509-4.993,1.526-7.067c1.017-2.076,2.444-3.69,4.284-4.847c1.839-1.155,3.89-1.733,6.152-1.733
		c3.597,0,6.376,1.147,8.337,3.442c1.962,2.295,2.942,5.542,2.942,9.741v2.393h-17.261c0.179,2.182,0.907,3.906,2.186,5.176
		c1.277,1.27,2.884,1.904,4.821,1.904c2.718,0,4.932-1.099,6.641-3.296l3.198,3.052c-1.059,1.579-2.47,2.804-4.236,3.674
		C380.626,450.553,378.645,450.988,376.447,450.988z M375.739,428.356c-1.628,0-2.941,0.57-3.943,1.709
		c-1,1.14-1.64,2.727-1.916,4.761h11.304v-0.439c-0.131-1.985-0.659-3.487-1.587-4.504
		C378.669,428.865,377.383,428.356,375.739,428.356z"/>
	<path style="fill:#FFFFFF;" d="M118.22,497.568h16.138v4.932h-22.314v-35.547h6.177V497.568z"/>
	<path style="fill:#FFFFFF;" d="M150.153,502.988c-3.76,0-6.808-1.184-9.143-3.553c-2.336-2.367-3.503-5.521-3.503-9.46v-0.732
		c0-2.637,0.508-4.993,1.526-7.067c1.017-2.076,2.445-3.69,4.285-4.847c1.839-1.155,3.89-1.733,6.152-1.733
		c3.597,0,6.376,1.147,8.337,3.442c1.961,2.295,2.942,5.542,2.942,9.741v2.393h-17.261c0.179,2.182,0.907,3.906,2.185,5.176
		c1.277,1.27,2.885,1.904,4.822,1.904c2.718,0,4.932-1.099,6.641-3.296l3.198,3.052c-1.058,1.579-2.47,2.804-4.236,3.674
		C154.332,502.553,152.351,502.988,150.153,502.988z M149.445,480.356c-1.628,0-2.942,0.57-3.943,1.709
		c-1.001,1.14-1.64,2.727-1.917,4.761h11.304v-0.439c-0.13-1.985-0.659-3.487-1.587-4.504
		C152.375,480.865,151.089,480.356,149.445,480.356z"/>
	<path style="fill:#FFFFFF;" d="M188.532,489.561c0,4.102-0.916,7.365-2.747,9.79c-1.831,2.426-4.35,3.638-7.556,3.638
		c-3.093,0-5.501-1.114-7.227-3.345l-0.293,2.856h-5.371V465h5.933v13.623c1.709-2.018,4.012-3.027,6.909-3.027
		c3.223,0,5.753,1.196,7.593,3.589c1.839,2.393,2.759,5.737,2.759,10.034V489.561z M182.6,489.048c0-2.864-0.505-5.013-1.514-6.445
		c-1.009-1.432-2.474-2.148-4.395-2.148c-2.572,0-4.378,1.123-5.42,3.369v10.889c1.058,2.295,2.881,3.442,5.469,3.442
		c1.855,0,3.288-0.691,4.297-2.075c1.009-1.383,1.53-3.475,1.563-6.274V489.048z"/>
	<path style="fill:#FFFFFF;" d="M199.348,478.965c1.937-2.246,4.386-3.369,7.349-3.369c5.631,0,8.488,3.215,8.569,9.644V502.5
		h-5.933v-17.041c0-1.822-0.395-3.113-1.184-3.869c-0.79-0.758-1.949-1.136-3.479-1.136c-2.376,0-4.15,1.059-5.322,3.174V502.5
		h-5.933V465h5.933V478.965z"/>
	<path style="fill:#FFFFFF;" d="M237.043,502.5c-0.261-0.504-0.488-1.326-0.684-2.466c-1.888,1.97-4.199,2.954-6.934,2.954
		c-2.653,0-4.818-0.757-6.494-2.271c-1.677-1.514-2.515-3.385-2.515-5.615c0-2.815,1.045-4.977,3.137-6.481
		c2.091-1.506,5.082-2.259,8.972-2.259h3.638v-1.733c0-1.367-0.383-2.462-1.147-3.283c-0.765-0.822-1.929-1.233-3.491-1.233
		c-1.351,0-2.458,0.338-3.32,1.013c-0.863,0.676-1.294,1.535-1.294,2.576h-5.933c0-1.448,0.48-2.804,1.44-4.064
		c0.96-1.262,2.266-2.25,3.918-2.967c1.652-0.716,3.495-1.074,5.53-1.074c3.092,0,5.558,0.777,7.397,2.332
		c1.839,1.554,2.783,3.739,2.832,6.555v11.914c0,2.377,0.333,4.272,1.001,5.688v0.415H237.043z M230.524,498.228
		c1.172,0,2.274-0.284,3.308-0.854c1.033-0.569,1.811-1.334,2.332-2.295v-4.98h-3.198c-2.197,0-3.85,0.383-4.956,1.147
		c-1.107,0.766-1.66,1.848-1.66,3.247c0,1.14,0.378,2.047,1.135,2.723C228.242,497.89,229.255,498.228,230.524,498.228z"/>
	<path style="fill:#FFFFFF;" d="M250.397,502.5v-22.021h-4.028v-4.395h4.028v-2.417c0-2.93,0.813-5.191,2.441-6.787
		c1.627-1.595,3.906-2.393,6.836-2.393c1.042,0,2.148,0.146,3.32,0.439l-0.146,4.639c-0.651-0.13-1.408-0.195-2.271-0.195
		c-2.832,0-4.248,1.457-4.248,4.37v2.344h5.371v4.395h-5.371V502.5H250.397z"/>
	<path style="fill:#FFFFFF;" d="M273.469,469.663v6.421h4.663v4.395h-4.663v14.746c0,1.01,0.199,1.737,0.598,2.186
		c0.398,0.447,1.111,0.671,2.136,0.671c0.684,0,1.375-0.081,2.075-0.244v4.59c-1.351,0.374-2.653,0.562-3.906,0.562
		c-4.558,0-6.836-2.515-6.836-7.544v-14.966h-4.346v-4.395h4.346v-6.421H273.469z"/>
	<path style="fill:#FFFFFF;" d="M282.673,469.224c0-0.911,0.289-1.668,0.867-2.271c0.578-0.602,1.404-0.903,2.478-0.903
		s1.904,0.302,2.49,0.903c0.586,0.603,0.879,1.359,0.879,2.271c0,0.896-0.293,1.64-0.879,2.233c-0.586,0.595-1.416,0.892-2.49,0.892
		s-1.9-0.297-2.478-0.892C282.961,470.863,282.673,470.119,282.673,469.224z M288.972,502.5h-5.933v-26.416h5.933V502.5z"/>
	<path style="fill:#FFFFFF;" d="M294.392,489.097c0-4.102,0.964-7.377,2.893-9.827c1.929-2.449,4.488-3.674,7.678-3.674
		c3.011,0,5.379,1.05,7.104,3.149l0.269-2.661h5.347v25.61c0,3.467-1.079,6.201-3.235,8.203c-2.157,2.002-5.066,3.003-8.728,3.003
		c-1.937,0-3.829-0.402-5.676-1.209c-1.848-0.805-3.251-1.859-4.211-3.161l2.808-3.564c1.823,2.164,4.069,3.247,6.738,3.247
		c1.969,0,3.523-0.533,4.663-1.6c1.139-1.065,1.709-2.633,1.709-4.699v-1.782c-1.709,1.904-3.988,2.856-6.836,2.856
		c-3.093,0-5.62-1.229-7.581-3.687C295.372,496.845,294.392,493.442,294.392,489.097z M300.3,489.609
		c0,2.653,0.541,4.74,1.624,6.262c1.082,1.522,2.583,2.283,4.504,2.283c2.393,0,4.167-1.025,5.322-3.076v-11.621
		c-1.123-2.002-2.881-3.003-5.273-3.003c-1.953,0-3.471,0.773-4.553,2.319C300.841,484.32,300.3,486.599,300.3,489.609z"/>
	<path style="fill:#FFFFFF;" d="M332.355,491.172l-2.637,2.71v8.618h-5.933V465h5.933v21.631l1.855-2.319l7.3-8.228h7.129
		l-9.814,11.011l10.864,15.405h-6.86L332.355,491.172z"/>
	<path style="fill:#FFFFFF;" d="M361.018,502.988c-3.76,0-6.808-1.184-9.144-3.553c-2.335-2.367-3.503-5.521-3.503-9.46v-0.732
		c0-2.637,0.509-4.993,1.526-7.067c1.017-2.076,2.444-3.69,4.284-4.847c1.839-1.155,3.89-1.733,6.152-1.733
		c3.597,0,6.376,1.147,8.337,3.442c1.962,2.295,2.942,5.542,2.942,9.741v2.393h-17.261c0.179,2.182,0.907,3.906,2.186,5.176
		c1.277,1.27,2.884,1.904,4.821,1.904c2.718,0,4.932-1.099,6.641-3.296l3.198,3.052c-1.059,1.579-2.47,2.804-4.236,3.674
		C365.196,502.553,363.215,502.988,361.018,502.988z M360.31,480.356c-1.628,0-2.941,0.57-3.943,1.709
		c-1,1.14-1.64,2.727-1.916,4.761h11.304v-0.439c-0.131-1.985-0.659-3.487-1.587-4.504
		C363.239,480.865,361.953,480.356,360.31,480.356z"/>
	<path style="fill:#FFFFFF;" d="M376.228,469.224c0-0.911,0.289-1.668,0.866-2.271c0.578-0.602,1.404-0.903,2.479-0.903
		s1.904,0.302,2.49,0.903c0.586,0.603,0.879,1.359,0.879,2.271c0,0.896-0.293,1.64-0.879,2.233c-0.586,0.595-1.416,0.892-2.49,0.892
		s-1.9-0.297-2.479-0.892C376.517,470.863,376.228,470.119,376.228,469.224z M382.526,502.5h-5.933v-26.416h5.933V502.5z"/>
	<path style="fill:#FFFFFF;" d="M396.418,469.663v6.421h4.663v4.395h-4.663v14.746c0,1.01,0.199,1.737,0.599,2.186
		c0.398,0.447,1.11,0.671,2.136,0.671c0.684,0,1.375-0.081,2.075-0.244v4.59c-1.352,0.374-2.653,0.562-3.906,0.562
		c-4.558,0-6.836-2.515-6.836-7.544v-14.966h-4.346v-4.395h4.346v-6.421H396.418z"/>
</g>
<g>
	<path style="fill-rule:evenodd;clip-rule:evenodd;fill:#FAFBFB;" d="M183.156,110.992c7.854,0,15.006,0,22.159,0
		c32.999,0,65.998,0.036,98.997-0.063c2.936-0.009,4.975,0.609,6.628,3.198c2.056,3.22,4.15,6.593,6.922,9.145
		c9.219,8.483,9.273,19.139,7.886,30.631c-4.311,0.65-8.706,1.371-13.118,1.966c-5.7,0.77-9.889,3.686-12.67,8.669
		c-6.241,11.181-12.537,22.332-18.599,33.609c-0.681,1.266-0.6,3.611,0.134,4.868c13.072,22.4,24.779,45.703,41.907,65.478
		c4.191,4.838,6.361,9.894,5.494,16.288c-0.309,2.281-0.049,4.64-0.049,7.461c-1.859,0.102-3.465,0.266-5.072,0.266
		c-37.165,0.015-74.331,0.069-111.496-0.118c-2.475-0.012-5.392-1.347-7.324-2.985c-5.325-4.519-10.419-9.352-15.206-14.437
		c-1.597-1.696-2.6-4.479-2.801-6.855c-0.42-4.964-0.346-10.005,0.011-14.979c0.104-1.444,1.711-3.831,2.872-3.987
		c10.601-1.427,16.566-7.889,20.953-17.111c4.853-10.201,10.514-20.023,15.99-29.918c1.43-2.583,1.601-4.678,0.172-7.362
		c-9.221-17.325-18.355-34.696-27.355-52.137c-2.742-5.314-6.348-8.705-12.703-8.835c-1.266-0.025-3.495-2.046-3.564-3.245
		C182.964,124.254,183.156,117.939,183.156,110.992z M305.94,254.488c-9.705-3.029-9.741-3.01-14.866-12.259
		c-9.271-16.732-18.424-33.529-27.799-50.202c-1.667-2.965-1.643-5.218,0.032-8.18c8.106-14.334,16.167-28.7,23.838-43.269
		c3.461-6.574,7.34-11.815,15.604-11.573c0.256,0.007,0.522-0.336,0.886-0.585c0-4.059,0-8.176,0-12.601
		c-15.927,0-31.646,0-47.333,0c0,4.59,0,8.834,0,13.165c2.081,0.374,3.875,0.719,5.677,1.016c5.217,0.859,7.427,3.685,5.184,8.322
		c-5.013,10.364-10.681,20.413-16.417,31.221c-5.637-10.256-10.897-19.512-15.841-28.934c-3.177-6.055-1.247-9.617,5.217-10.624
		c1.932-0.301,3.844-0.731,5.687-1.087c0-4.585,0-8.811,0-13.052c-19.431,0-38.494,0-57.817,0c0,3.185,0,6.008,0,8.832
		c0,1.319,0,2.638,0,3.861c11.72,3.729,11.726,3.726,15.717,11.335c9.501,18.116,18.91,36.282,28.58,54.308
		c1.61,3.002,1.752,5.195,0.075,8.188c-6.258,11.173-12.412,22.413-18.241,33.813c-4.774,9.337-10.668,16.926-22.079,17.935
		c-0.244,0.021-0.457,0.396-0.51,0.444c0,4.43,0,8.675,0,12.918c15.767,0,31.153,0,46.734,0c0-4.617,0-8.873,0-13.189
		c-1.676-0.374-3.13-0.701-4.584-1.023c-4.198-0.93-5.81-3.731-3.962-7.393c4.583-9.082,9.613-17.938,14.899-27.687
		c4.852,9.188,9.417,17.296,13.451,25.661c2.659,5.513,0.794,8.25-5.37,9.275c-1.909,0.318-3.796,0.773-5.545,1.136
		c0,4.66,0,8.91,0,13.286c19.739,0,39.145,0,58.784,0C305.94,262.985,305.94,258.715,305.94,254.488z"/>
	<path style="fill-rule:evenodd;clip-rule:evenodd;fill:#F7F9F9;" d="M244.435,188.319c-3.237,0-6.474,0-10.419,0
		c-5.532-10.521-11.319-21.515-17.093-32.513c-3.402-6.481-6.717-13.01-10.197-19.447c-3.172-5.869-6.938-11.121-14.668-11.354
		c0-1.935,0-3.552,0-5.507c16.516,0,32.921,0,49.671,0c0.105,1.608,0.209,3.197,0.335,5.114c-1.719,0.412-3.269,0.841-4.842,1.151
		c-7.496,1.48-10.433,6.487-7.083,13.532c3.78,7.948,8.312,15.54,12.528,23.28c2.43,4.462,4.882,8.91,7.865,14.351
		c3.344-5.945,6.104-10.829,8.841-15.726c3.167-5.665,6.302-11.348,9.47-17.013c6.508-11.634,4.453-16.425-8.573-19.389
		c0-1.681,0-3.423,0-5.4c13.142,0,26.083,0,39.375,0c0,1.799,0,3.519,0,5.65c-7.966-0.378-11.63,5.167-14.936,11.164
		c-8.833,16.025-17.658,32.055-26.492,48.079c-0.793,1.438-1.625,2.855-2.243,3.939c-3.372,0-6.379,0-9.387,0
		c-0.2,0.436-0.399,0.871-0.599,1.307c3.45,2.915,7.053,5.673,10.291,8.809c1.806,1.748,3.567,3.928,4.377,6.252
		c3.652,10.471,6.957,21.062,9.744,32.016c-1.754-2.411-3.455-4.864-5.274-7.225c-6.3-8.177-12.518-16.424-19.037-24.423
		c-2.238-2.746-3.833-5.03-2.491-8.836c0.854-2.419,0.513-5.258,0.693-7.919c-0.079-5.245-0.052-10.483-0.293-15.71
		c-0.045-0.978-1.097-1.957-1.796-2.847c-5.648-7.188-11.315-14.361-16.996-21.523c-0.944-1.19-1.983-2.305-3.724-4.315
		c2.156,7.926,4.383,14.461,5.608,21.179c0.856,4.694,2.821,7.982,6.381,11.111C237.554,179.693,240.817,184.208,244.435,188.319z"
		/>
</g>
</svg>
