<?xml version="1.0" encoding="utf-8"?>
<!-- Generator: Adobe Illustrator 16.0.3, SVG Export Plug-In . SVG Version: 6.00 Build 0)  -->
<!DOCTYPE svg PUBLIC "-//W3C//DTD SVG 1.1//EN" "http://www.w3.org/Graphics/SVG/1.1/DTD/svg11.dtd">
<svg version="1.1" id="Layer_1" xmlns="http://www.w3.org/2000/svg" xmlns:xlink="http://www.w3.org/1999/xlink" x="0px" y="0px"
	 width="500px" height="500px" viewBox="0 0 500 500" enable-background="new 0 0 500 500" xml:space="preserve">
<rect y="0" fill="#E5243B" width="500" height="500"/>
<g>
	<path fill="#FFFFFF" d="M144.131,83.836c-0.488,0-0.732-0.527-0.732-1.582V43.289c0-1.055,0.244-1.582,0.732-1.582h4.277
		c0.508,0,0.762,0.527,0.762,1.582v19.307l7.178-19.395c0.352-0.996,0.771-1.494,1.26-1.494h4.336c0.41,0,0.615,0.225,0.615,0.674
		c0,0.274-0.059,0.557-0.176,0.85l-7.09,18.047c-0.137,0.469-0.205,0.831-0.205,1.084c0,0.254,0.039,0.527,0.117,0.82l7.559,19.043
		c0.136,0.352,0.205,0.664,0.205,0.938c0,0.45-0.127,0.674-0.381,0.674h-4.277c-0.527,0-0.986-0.508-1.377-1.523l-7.734-18.34v18.34
		c0,1.016-0.264,1.523-0.791,1.523H144.131z"/>
	<path fill="#FFFFFF" d="M167.979,83.836c-0.254,0-0.439-0.073-0.557-0.22s-0.176-0.483-0.176-1.011V42.938
		c0-0.508,0.059-0.839,0.176-0.996c0.117-0.156,0.303-0.234,0.557-0.234h15.41c0.156,0,0.283,0.02,0.381,0.059
		c0.098,0.04,0.18,0.146,0.249,0.322c0.068,0.176,0.103,0.439,0.103,0.791v2.314c0,0.488-0.059,0.806-0.176,0.952
		s-0.303,0.22-0.557,0.22h-10.02c-0.234,0-0.352,0.322-0.352,0.967v11.836c0,0.176,0.034,0.352,0.103,0.527
		c0.068,0.176,0.132,0.264,0.19,0.264h8.057c0.488,0,0.732,0.45,0.732,1.348v2.256c0,0.898-0.245,1.348-0.732,1.348h-8.027
		c-0.078,0-0.151,0.098-0.22,0.293c-0.069,0.195-0.103,0.391-0.103,0.586v13.389h10.459c0.176,0,0.312,0.02,0.41,0.059
		c0.098,0.04,0.18,0.146,0.249,0.322c0.068,0.176,0.103,0.439,0.103,0.791v2.314c0,0.488-0.063,0.806-0.19,0.952
		c-0.127,0.146-0.318,0.22-0.571,0.22H167.979z"/>
	<path fill="#FFFFFF" d="M190.068,83.836c-0.176,0-0.313-0.024-0.41-0.073c-0.098-0.048-0.181-0.18-0.249-0.396
		c-0.069-0.215-0.103-0.517-0.103-0.908V43.084c0-0.566,0.063-0.938,0.19-1.113c0.127-0.176,0.317-0.264,0.571-0.264h4.307
		c0.156,0,0.283,0.025,0.381,0.073c0.098,0.049,0.18,0.181,0.249,0.396c0.068,0.215,0.103,0.518,0.103,0.908v39.375
		c0,0.567-0.059,0.938-0.176,1.113s-0.303,0.264-0.557,0.264H190.068z"/>
	<path fill="#FFFFFF" d="M202.637,83.836c-0.254,0-0.444-0.098-0.571-0.293c-0.127-0.195-0.19-0.586-0.19-1.172V43.26
		c0-1.035,0.253-1.553,0.762-1.553h4.453c0.41,0,0.762,0.381,1.055,1.143l9.932,26.689c0.039,0.137,0.098,0.098,0.176-0.117
		l0.029-0.264V43.26c0-1.035,0.264-1.553,0.791-1.553h3.486c0.488,0,0.732,0.518,0.732,1.553v39.229
		c0,0.586-0.059,0.962-0.176,1.128c-0.117,0.166-0.303,0.249-0.557,0.249h-3.164c-0.195,0-0.406-0.117-0.63-0.352
		c-0.225-0.234-0.406-0.527-0.542-0.879l-11.045-28.828c-0.078-0.156-0.137-0.107-0.176,0.146c-0.02,0.059-0.029,0.127-0.029,0.205
		v28.213c0,0.586-0.063,0.977-0.19,1.172c-0.127,0.195-0.327,0.293-0.601,0.293H202.637z"/>
	<path fill="#FFFFFF" d="M230.791,83.836c-0.254,0-0.439-0.073-0.557-0.22s-0.176-0.483-0.176-1.011V42.938
		c0-0.508,0.059-0.839,0.176-0.996c0.117-0.156,0.303-0.234,0.557-0.234h15.41c0.156,0,0.283,0.02,0.381,0.059
		c0.098,0.04,0.18,0.146,0.249,0.322c0.068,0.176,0.103,0.439,0.103,0.791v2.314c0,0.488-0.059,0.806-0.176,0.952
		s-0.303,0.22-0.557,0.22h-10.02c-0.234,0-0.352,0.322-0.352,0.967v11.836c0,0.176,0.034,0.352,0.103,0.527
		c0.068,0.176,0.132,0.264,0.19,0.264h8.057c0.488,0,0.732,0.45,0.732,1.348v2.256c0,0.898-0.245,1.348-0.732,1.348h-8.027
		c-0.078,0-0.151,0.098-0.22,0.293c-0.069,0.195-0.103,0.391-0.103,0.586v13.389h10.459c0.176,0,0.312,0.02,0.41,0.059
		c0.098,0.04,0.18,0.146,0.249,0.322c0.068,0.176,0.103,0.439,0.103,0.791v2.314c0,0.488-0.063,0.806-0.19,0.952
		c-0.127,0.146-0.318,0.22-0.571,0.22H230.791z"/>
	<path fill="#FFFFFF" d="M141.992,143.836c-0.293,0-0.439-0.283-0.439-0.85v-0.498c0-0.253,0.01-0.42,0.029-0.498l6.592-38.818
		c0.156-0.938,0.517-1.425,1.084-1.465h5.947c0.546,0.04,0.898,0.527,1.055,1.465l6.475,38.818c0,0.059,0.015,0.166,0.044,0.322
		c0.029,0.157,0.048,0.293,0.059,0.41c0.01,0.117,0.015,0.215,0.015,0.293c0,0.547-0.166,0.82-0.498,0.82h-4.834
		c-0.469,0-0.772-0.4-0.908-1.201l-1.084-7.471c-0.059-0.429-0.166-0.645-0.322-0.645h-7.09c-0.137,0-0.245,0.225-0.322,0.674
		l-1.23,7.412c-0.078,0.488-0.176,0.816-0.293,0.981c-0.117,0.166-0.293,0.249-0.527,0.249H141.992z M148.965,130.858h5.977
		c0.136,0,0.205-0.176,0.205-0.527c0-0.117-0.02-0.205-0.059-0.264l-2.9-22.588c-0.02-0.136-0.049-0.205-0.088-0.205
		c-0.059,0-0.098,0.059-0.117,0.176l-3.428,22.588c-0.02,0.137-0.029,0.225-0.029,0.264
		C148.525,130.672,148.672,130.858,148.965,130.858z"/>
	<path fill="#FFFFFF" d="M168.213,143.836c-0.254,0-0.439-0.083-0.557-0.249c-0.117-0.166-0.176-0.522-0.176-1.069v-39.463
		c0-0.586,0.059-0.957,0.176-1.113c0.117-0.156,0.303-0.234,0.557-0.234h9.844c1.23,0,2.28,0.069,3.149,0.205
		c0.869,0.137,1.762,0.43,2.681,0.879c0.918,0.45,1.655,1.074,2.212,1.875c0.557,0.801,1.015,1.895,1.377,3.281
		c0.361,1.387,0.542,3.057,0.542,5.01c0,1.465-0.107,2.739-0.322,3.823c-0.215,1.084-0.538,1.963-0.967,2.637
		c-0.43,0.674-0.894,1.206-1.392,1.597c-0.498,0.391-1.099,0.723-1.802,0.996c-0.059,0.059-0.088,0.117-0.088,0.176
		s0.029,0.107,0.088,0.146c0.703,0.333,1.274,0.674,1.714,1.025s0.883,0.864,1.333,1.538c0.449,0.674,0.791,1.587,1.025,2.739
		c0.234,1.153,0.381,2.568,0.439,4.248c0.078,1.523,0.117,5.02,0.117,10.488c0,0.977-0.176,1.465-0.527,1.465
		c-3.028,0.019-4.581,0.029-4.658,0.029c-0.313,0-0.479-0.439-0.498-1.318c0-0.136-0.059-2.324-0.176-6.563
		c-0.117-4.238-0.245-6.68-0.381-7.324c-0.059-0.801-0.22-1.469-0.483-2.007c-0.264-0.537-0.605-0.927-1.025-1.172
		c-0.42-0.244-0.835-0.41-1.245-0.498s-0.879-0.132-1.406-0.132h-4.189c-0.215,0-0.322,0.215-0.322,0.645v17.021
		c0,0.547-0.059,0.904-0.176,1.069c-0.117,0.166-0.303,0.249-0.557,0.249H168.213z M173.545,120.281h3.779
		c3.262,0,4.893-2.373,4.893-7.119c0-2.52-0.444-4.282-1.333-5.288c-0.889-1.006-2.378-1.509-4.468-1.509h-2.842
		c-0.215,0-0.322,0.195-0.322,0.586v12.539C173.252,120.018,173.35,120.281,173.545,120.281z"/>
	<path fill="#FFFFFF" d="M194.697,143.836c-0.469,0-0.703-0.479-0.703-1.436v-0.146l1.318-38.877c0.019-1.074,0.264-1.63,0.732-1.67
		h4.629c0.293,0.02,0.537,0.117,0.732,0.293c0.195,0.176,0.341,0.538,0.439,1.084l4.951,27.715c0.019,0.078,0.054,0.137,0.103,0.176
		c0.048,0.04,0.098,0.04,0.146,0c0.048-0.039,0.073-0.098,0.073-0.176l4.98-27.627c0.176-0.938,0.557-1.425,1.143-1.465h4.688
		c0.469,0.04,0.703,0.596,0.703,1.67l1.377,38.877v0.176c0,0.938-0.245,1.406-0.732,1.406h-3.223c-0.469,0-0.723-0.527-0.762-1.582
		l-0.908-30.088c0-0.117-0.029-0.186-0.088-0.205c-0.059-0.019-0.098,0.01-0.117,0.088l-5.332,30.381
		c-0.157,0.938-0.488,1.406-0.996,1.406h-1.904c-0.469,0-0.801-0.469-0.996-1.406l-5.186-30.234
		c-0.02-0.117-0.059-0.136-0.117-0.059c-0.02,0.04-0.029,0.098-0.029,0.176l-0.938,29.941c0,1.055-0.225,1.582-0.674,1.582H194.697z
		"/>
	<path fill="#FFFFFF" d="M236.914,144.276c-1.055,0-1.963-0.044-2.725-0.132s-1.553-0.274-2.373-0.557s-1.514-0.678-2.08-1.187
		c-0.567-0.508-1.118-1.196-1.655-2.065c-0.538-0.869-0.962-1.919-1.274-3.149c-0.313-1.23-0.562-2.714-0.747-4.453
		c-0.186-1.738-0.278-3.73-0.278-5.977v-23.672c0-0.566,0.063-0.938,0.19-1.113c0.127-0.176,0.317-0.264,0.571-0.264h4.307
		c0.156,0,0.283,0.025,0.381,0.073c0.098,0.049,0.18,0.181,0.249,0.396c0.068,0.215,0.103,0.518,0.103,0.908v23.496
		c0,2.305,0.068,4.238,0.205,5.801c0.136,1.563,0.332,2.823,0.586,3.779c0.253,0.957,0.61,1.685,1.069,2.183
		c0.458,0.498,0.942,0.831,1.45,0.996c0.508,0.166,1.172,0.249,1.992,0.249c1.035,0,1.835-0.117,2.402-0.352
		c0.566-0.234,1.084-0.791,1.553-1.67s0.786-2.187,0.952-3.926c0.166-1.738,0.249-4.091,0.249-7.061v-23.496
		c0-0.586,0.059-0.962,0.176-1.128c0.117-0.166,0.303-0.249,0.557-0.249h4.336c0.156,0,0.278,0.025,0.366,0.073
		c0.088,0.049,0.166,0.181,0.234,0.396c0.068,0.215,0.103,0.518,0.103,0.908v23.672c0,2.266-0.093,4.282-0.278,6.05
		c-0.186,1.768-0.435,3.262-0.747,4.482c-0.313,1.221-0.737,2.261-1.274,3.12c-0.538,0.86-1.084,1.538-1.641,2.036
		s-1.241,0.889-2.051,1.172c-0.811,0.283-1.578,0.464-2.3,0.542C238.799,144.236,237.929,144.276,236.914,144.276z"/>
	<path fill="#FFFFFF" d="M258.389,143.836c-0.234,0-0.415-0.092-0.542-0.278c-0.128-0.186-0.19-0.561-0.19-1.128v-35.273
		c0-0.488-0.107-0.732-0.322-0.732h-5.098c-0.195,0-0.337-0.015-0.425-0.044s-0.166-0.127-0.234-0.293
		c-0.069-0.166-0.103-0.425-0.103-0.776v-2.314c0-0.527,0.059-0.874,0.176-1.04c0.117-0.166,0.313-0.249,0.586-0.249h16.553
		c0.254,0,0.439,0.083,0.557,0.249c0.117,0.166,0.176,0.513,0.176,1.04v2.314c0,0.488-0.055,0.796-0.161,0.923
		c-0.107,0.127-0.298,0.19-0.571,0.19h-5.01c-0.215,0-0.322,0.245-0.322,0.732v35.273c0,0.586-0.063,0.967-0.19,1.143
		c-0.128,0.176-0.317,0.264-0.571,0.264H258.389z"/>
</g>
<title>Artboard 1</title>
<polygon fill="#FFFDFD" points="69.81,65.76 69.96,65.76 69.96,142.93 86.904,142.93 86.904,42.115 73.37,42.115 57.765,60.405 
	57.765,78.095 57.915,78.095 "/>
<g>
	<path fill="#FFFDFD" d="M385.065,238.545c0.005-7.642,6.203-13.831,13.845-13.825c7.641,0.006,13.83,6.204,13.825,13.845
		c-0.006,7.632-6.189,13.817-13.82,13.825C391.268,252.39,385.067,246.193,385.065,238.545"/>
	<path fill="#FFFDFD" d="M415.075,257.725c9.496,0.877,16.759,8.848,16.75,18.385V314.5c0,2.963-2.402,5.363-5.365,5.363
		s-5.365-2.4-5.365-5.363v-32.977c0-1.238-0.354-2.91-2.614-2.91c-1.564,0-1.891,1.655-1.944,2.712v98.77
		c-0.005,4.261-3.462,7.711-7.723,7.707c-4.256-0.004-7.703-3.452-7.708-7.707V323.18c0-0.63-0.229-2.26-2.189-2.26l0,0
		c-1.965,0-2.205,1.63-2.225,2.26v56.915c0.106,4.257-3.255,7.795-7.513,7.902c-4.257,0.108-7.795-3.255-7.902-7.512
		c-0.004-0.13-0.004-0.261,0-0.392v-98.77c-0.052-1.057-0.392-2.711-1.94-2.711c-2.27,0-2.615,1.671-2.615,2.909V314.5
		c-0.128,2.96-2.631,5.256-5.592,5.128c-2.78-0.12-5.008-2.349-5.128-5.128V276.11c-0.003-9.544,7.271-17.516,16.775-18.385
		c0.331-0.05,0.665-0.078,1-0.085H414c0.354,0.006,0.706,0.034,1.055,0.085"/>
</g>
<g>
	<path fill="#FFFDFD" d="M302.75,245.815c-0.003-7.236-5.872-13.103-13.11-13.1c-7.236,0.003-13.103,5.872-13.1,13.11
		c0.003,7.236,5.872,13.103,13.11,13.1c0.001,0,0.003,0,0.005,0C296.891,258.919,302.753,253.051,302.75,245.815"/>
	<path fill="#FFFDFD" d="M263.24,275.5L252.345,311c0,0-1.938,6.5,3.575,8.125s7.155-4.722,7.155-4.722l8.785-29.604
		c0,0,0.5-2.28,2.188-1.785c1.69,0.495,1.07,2.925,1.07,2.925l-15.29,55.5h14.22v39.735c0.104,3.771,3.242,6.744,7.013,6.643
		c3.628-0.099,6.545-3.016,6.644-6.643v-39.78h3.88v39.735c0.102,3.772,3.244,6.749,7.018,6.646
		c3.631-0.098,6.551-3.018,6.647-6.646v-39.735h14.215l-15.28-55.5c0,0-0.645-2.395,1.065-2.895s2.19,1.785,2.19,1.785l8.783,29.604
		c0,0,1.672,6.345,7.15,4.72S326.95,311,326.95,311l-10.896-35.5c0,0-3.89-10.255-12.5-10.255h-27.79
		c-8.618,0-12.5,10.255-12.5,10.255"/>
</g>
<g>
	<path fill="#FFFDFD" d="M224.245,245.815c-0.003-7.236-5.873-13.103-13.11-13.1c-7.236,0.003-13.103,5.872-13.1,13.11
		c0.002,7.236,5.872,13.103,13.109,13.1l0,0C218.381,258.919,224.245,253.052,224.245,245.815"/>
	<path fill="#FFFDFD" d="M184.73,275.5L173.84,311c0,0-1.949,6.5,3.57,8.125s7.154-4.722,7.154-4.722l8.785-29.604
		c0,0,0.476-2.28,2.19-1.785s1.065,2.925,1.065,2.925l-15.285,55.5h14.22v39.735c0,3.771,3.058,6.83,6.83,6.83s6.83-3.06,6.83-6.83
		l0,0v-39.78h3.88v39.735c0.102,3.771,3.242,6.743,7.012,6.643c3.627-0.099,6.544-3.016,6.643-6.643v-39.735h14.226l-15.28-55.5
		c0,0-0.65-2.435,1.055-2.925s2.195,1.785,2.195,1.785l8.78,29.604c0,0,1.67,6.345,7.155,4.72c5.483-1.625,3.568-8.078,3.568-8.078
		l-10.895-35.5c0,0-3.885-10.255-12.5-10.255h-27.785C188.641,265.245,184.73,275.5,184.73,275.5"/>
</g>
<g>
	<path fill="#FFFDFD" d="M346.771,319.175c6.025,0,10.909-4.886,10.909-10.91c0-6.025-4.884-10.91-10.909-10.91
		c-6.021,0-10.904,4.879-10.909,10.9c-0.013,6.02,4.858,10.907,10.88,10.92C346.75,319.175,346.76,319.175,346.771,319.175"/>
	<path fill="#FFFDFD" d="M320.615,353.065c-0.535,1.275-0.972,4,1.59,5.16c3,1.38,4.675-1.5,4.675-1.5l5.93-18.915
		c0,0,1.03-1.265,1.03,0.045v44.525h0.025c0.092,3.091,2.673,5.521,5.765,5.43c2.961-0.088,5.342-2.469,5.43-5.43v-17.597
		c0,0-0.323-2.5,1.682-2.5s1.688,2.5,1.688,2.5v17.575c0,3.099,2.513,5.61,5.61,5.61s5.61-2.513,5.61-5.61v-44.523
		c0-1.312,0.688-0.375,0.688-0.375l4.65,12.948c0,0,2,5.785,2.64,6.04c2.105,0.877,4.523-0.118,5.4-2.224
		c0.002-0.004,0.003-0.008,0.005-0.011c0.565-1.318,0.398-2.837-0.44-4l0.04-0.04c-0.135-0.42-6.95-17.13-7.75-19.477
		c-2.46-7.185-6.938-7.12-11.25-7.238c-4.31-0.12-6.895,0-6.895,0s-2.755-0.11-8.45,0.055s-7.5,3.095-13.755,19.229
		c-0.896,2.325-3.92,9.842-3.96,10.29L320.615,353.065z"/>
</g>
<g>
	<path fill="#FFFDFD" d="M93.33,252.39c7.646,0.009,13.852-6.184,13.859-13.83c0.008-7.646-6.184-13.852-13.83-13.858
		c-7.646-0.01-13.852,6.184-13.859,13.828c0,0.007,0,0.012,0,0.017C79.508,246.182,85.693,252.373,93.33,252.39z"/>
	<path fill="#FFFDFD" d="M109.609,257.655c-0.365-0.073-0.736-0.126-1.109-0.153H78.25c-0.337,0.025-0.671,0.078-1,0.153
		c-9.511,0.904-16.77,8.901-16.75,18.455V314.5c-0.013,1.974,1.066,3.794,2.805,4.729c-0.08,0.148-0.14,0.307-0.18,0.47l-12.3,65.15
		c-0.222,1.082,0.477,2.139,1.559,2.36c0.017,0.003,0.034,0.007,0.051,0.01c0.124,0.022,0.249,0.035,0.375,0.035
		c0.979,0.004,1.821-0.692,2-1.655l12.29-65.15c0.023-0.254-0.002-0.51-0.075-0.755c2.361-0.613,4-2.756,3.975-5.193v-32.977
		c0-1.238,0.325-2.91,2.585-2.91c1.56,0,1.915,1.655,1.915,2.712v98.77c0,4.279,3.471,7.75,7.75,7.75s7.75-3.471,7.75-7.75V323.18
		c-0.021-1.188,0.925-2.167,2.111-2.188c0.072-0.001,0.146,0.001,0.219,0.009l0,0c1.965,0,2.165,1.55,2.165,2.18v56.915
		c0,4.28,3.47,7.75,7.75,7.75s7.75-3.47,7.75-7.75v-98.77c0-1.057,0.37-2.71,1.915-2.71c2.275,0,2.585,1.67,2.585,2.908V314.5
		c0,3.036,2.462,5.5,5.5,5.5s5.5-2.464,5.5-5.5V276.11C126.449,266.531,119.146,258.55,109.609,257.655z"/>
</g>
<g>
	<path fill="#FFFDFD" d="M163.08,337.203l10.125-18.375c0,0,1.22-2.64,1.22-3.27c-0.036-2.209-1.854-3.971-4.063-3.936
		c-1.336,0.021-2.572,0.709-3.297,1.829h-0.045c-0.319,0.275-5.414,9.315-7.095,11c-1.774,1.796-3.37,1.57-3.37,1.57h-13.22
		c0,0-1.601,0.227-3.37-1.57c-1.699-1.68-6.77-10.733-7.095-11l-0.035,0.03c-1.218-1.843-3.699-2.35-5.542-1.132
		c-1.081,0.714-1.749,1.907-1.792,3.202c0.058,0.596,0.188,1.182,0.39,1.745l10.976,19.903c0.376,0.828,0.595,1.719,0.646,2.625
		v3.921L131.75,365h5.75v17.5h0.075c0.03,2.998,2.47,5.414,5.47,5.413c2.98,0.028,5.422-2.362,5.455-5.345v-16.865
		c-0.16-0.196-0.229-0.452-0.189-0.703h3.25c0.029,0.235,0.008,0.477-0.061,0.703v16.865c0,3.038,2.462,5.5,5.5,5.5
		s5.5-2.462,5.5-5.5V365h5.645l-5.645-21.375v-3.797C162.543,338.928,162.739,338.039,163.08,337.203z"/>
	<path fill="#FFFDFD" d="M149.939,319.175c6.025,0.003,10.912-4.88,10.916-10.905c0.002-6.025-4.879-10.912-10.905-10.915
		c-6.023-0.003-10.91,4.877-10.915,10.9c-0.012,6.02,4.859,10.907,10.88,10.92C149.923,319.175,149.932,319.175,149.939,319.175z"/>
</g>
</svg>
