<svg xmlns="http://www.w3.org/2000/svg" xmlns:xlink="http://www.w3.org/1999/xlink" width="300" height="300" viewBox="0 0 300 300"><switch><g><symbol id="a" viewBox="-150 -150 300 300.015"><path fill="#AEBCC4" d="M150-97.015c0-6.763 0-52.985-71.5-52.985H-84c-62.5 0-66 47.223-66 53.985v186c0 54.5 59.235 60 66 60l161.5.029c6.765 0 72.5-.029 72.5-60.029v-187z"/></symbol><use xlink:href="#a" width="300" height="300.015" x="-150" y="-150" transform="matrix(1 0 0 -1 150 150)" overflow="visible"/><g fill="#080828"><path d="M90.398 257.58c.096-1.584.192-4.177.192-6.576v-27.507h5.904v13.921h.096c1.44-2.256 3.984-3.744 7.488-3.744 5.713 0 9.793 4.753 9.745 11.857 0 8.4-5.329 12.577-10.609 12.577-3.024 0-5.712-1.152-7.393-4.032h-.096l-.288 3.504h-5.039zm6.097-9.648c0 .479.048.96.144 1.392.624 2.353 2.688 4.129 5.232 4.129 3.696 0 5.953-2.977 5.953-7.681 0-4.129-1.968-7.489-5.905-7.489-2.4 0-4.56 1.729-5.232 4.32-.096.433-.192.96-.192 1.536v3.793zM122.847 247.547c.144 4.225 3.456 6.049 7.201 6.049 2.736 0 4.704-.384 6.48-1.056l.864 4.08c-2.016.816-4.8 1.44-8.161 1.44-7.584 0-12.049-4.657-12.049-11.81 0-6.48 3.937-12.577 11.425-12.577 7.585 0 10.081 6.24 10.081 11.377 0 1.104-.096 1.969-.192 2.496h-15.649zm10.273-4.128c.048-2.16-.912-5.713-4.849-5.713-3.648 0-5.185 3.313-5.424 5.713h10.273zM143.438 223.497h5.952v34.083h-5.952v-34.083zM177.999 245.675c0 8.593-6.048 12.434-12.001 12.434-6.625 0-11.713-4.561-11.713-12.05 0-7.68 5.041-12.385 12.098-12.385 6.96 0 11.616 4.896 11.616 12.001zm-17.617.24c0 4.513 2.208 7.921 5.808 7.921 3.361 0 5.713-3.313 5.713-8.017 0-3.648-1.632-7.825-5.664-7.825-4.176 0-5.857 4.032-5.857 7.921zM186.014 234.202l2.448 10.608c.528 2.497 1.056 5.041 1.488 7.585h.096c.48-2.544 1.248-5.137 1.92-7.536l3.024-10.657h4.801l2.928 10.369c.721 2.736 1.345 5.28 1.872 7.824h.097c.384-2.544.912-5.088 1.536-7.824l2.592-10.369h5.809l-7.345 23.378h-5.473l-2.784-9.505c-.72-2.448-1.248-4.656-1.776-7.488h-.096c-.479 2.88-1.104 5.185-1.776 7.488l-2.976 9.505h-5.521l-6.913-23.378h6.049z"/></g><path fill="#080828" d="M167.18 100.456l22.094 11.585s-5.365 4.768-9.874 5.537l-1.638 3.149 2.374 9.345s1.458 2.536-1.968 7.849l-13.732 26.443s-3.248 6.412-11.502 3.137l-12.623-6.556s-5.004-4.454-2.515-10.754l13.524-26.043s2.645-5.205 5.404-5.965l9.511-3.497 1.656-3.189c.001 0-2.328-3.437-.711-11.041z"/><path fill="none" d="M35 8h243"/><path fill-rule="evenodd" clip-rule="evenodd" fill="#FFF" d="M206.536 205.357c-.092-3.064 2.956-4.673 5.722-5.203 5.152-.983 8.278-4.665 8.299-9.908.016-4.906.047-9.814-.011-14.722-.045-3.874-.236-4.005-4.09-4.003h-10.8c-.146-2.159-.368-4.307-.42-6.46-.202-8.121-.363-16.243-.509-24.367-.046-2.511 1.822-4.322 4.314-4.375 1.241-.026 2.479-.184 4.291-.326-.595-2.485-1.014-4.795-1.773-6.989-.182-.527-1.495-.662-2.495-1.059l-.747-3.372h-3.676c.193-3.415.252-6.739.597-10.034.64-6.097 1.438-12.176 2.189-18.262.921-7.461 1.751-14.936 2.882-22.365.244-1.613 1.409-3.209 2.484-4.542 1.294-1.605 2.655-2.988 2.217-5.331-.115-.615.583-1.356.815-2.07.393-1.211.923-2.432 1.01-3.675.103-1.496-.612-2.342-2.411-2.264-3.016.133-3.105-.231-3.771-3.287-.331-1.515-1.37-2.865-1.98-4.334-.216-.521-.216-1.189-.138-1.766.41-2.979 1.396-5.944 1.748-8.93.063-.544-.852-1.209-1.192-1.732-1.532-2.336-.959-4.113 1.706-4.731 3.592-.833 7.195-1.626 10.827-2.256 2.287-.397 4.073.906 5.467 2.517 4.324 4.999 5.621 10.578 2.623 16.714-1.032 2.11-.903 3.843.747 5.491.938.935 1.779 1.979 2.777 2.838 7.674 6.608 9.487 15.122 8.101 24.688-1.057 7.295-2.348 14.492-1.736 22.01.639 7.899.142 15.889.142 24.031l-3.799.27.595 8.317h2.777c3.517-.003 7.033-.006 10.552-.011 3.117-.005 4.893 1.732 4.939 4.749.14 9.063.308 18.122.461 27.185.016.842.002 1.687.002 2.675l-15.436.733c.148 1.606.425 3.13.402 4.649-.102 6.537-.237 13.075-.513 19.604-.037.829-.983 1.619-1.958 2.253.188 1.221.405 2.438.56 3.661.361 2.86-.438 4.131-3.246 4.332-2.945.21-5.924-.077-8.881.027-1.448.052-2.875.566-4.325.76-5.226.692-10.306-.239-15.339-1.13z"/><path fill="none" stroke="#C1272D" stroke-width="3.804" stroke-miterlimit="10" stroke-dasharray="15.2168,5.0723" d="M44.146 40.324l155.349.63"/><path fill="#C1272D" d="M180.883 96.581l9.697-17.275-4.368-2.41c-.022-.084.107-.197.189-.223l9.506-3.115a.154.154 0 0 1 .192.106l2.437 9.699c.021.085-.107.199-.189.226l-4.022-2.219-9.696 17.276-3.746-2.065z"/></g></switch></svg>