<svg xmlns="http://www.w3.org/2000/svg" xmlns:xlink="http://www.w3.org/1999/xlink" width="300" height="300" viewBox="0 0 300 300"><switch><g><symbol id="a" viewBox="-150 -150 300 300.015"><path fill="#AEBCC4" d="M150-97.015c0-6.763 0-52.985-71.5-52.985H-84c-62.5 0-66 47.223-66 53.985v186c0 54.5 59.235 60 66 60l161.5.029c6.765 0 72.5-.029 72.5-60.029v-187z"/></symbol><use xlink:href="#a" width="300" height="300.015" x="-150" y="-150" transform="matrix(1 0 0 -1 150 150)" overflow="visible"/><defs><path id="b" d="M230.723 271.41H68.277c-22.026 0-39.882-17.855-39.882-39.882V69.083c0-22.026 17.855-39.882 39.882-39.882h162.445c22.026 0 39.882 17.855 39.882 39.882v162.445c0 22.027-17.855 39.882-39.881 39.882z"/></defs><clipPath id="c"><use xlink:href="#b" overflow="visible"/></clipPath><g clip-path="url(#c)"><path fill="#FEFEFE" d="M-33.614 524.015v-653h554.509v653H-33.614zm91.533-318c-1.088 18.07-.267 35.999 3.561 53.759 4.329 20.084 15.625 36.509 27.093 52.938 5.987 8.576 12.526 17.066 16.735 26.521 8.095 18.184 17.436 35.562 28.633 51.946 9.07 13.272 18.521 26.306 31.192 36.508 15.69 12.633 32.823 10.849 50.325 4.747l6.907-1.996c3.72 9.045 7.114 18.242 11.229 27.104 7.764 16.716 13.36 33.689 10.682 52.569-.91 6.414 3.188 9.093 8.783 5.79 5.574-3.289 10.503-7.671 15.715-11.574 7.603-8.308 15.402-16.444 22.766-24.96 13.284-15.363 25.76-31.465 39.611-46.288 11.28-12.069 24.408-22.393 36.079-34.125 7.01-7.045 14.777-12.068 24.076-15.368 24.246-8.604 48.724-15.414 74.877-12.433.999.114 2.847-.321 2.97-.824.262-1.077-.045-2.551-.646-3.541-4.593-7.558-9.188-15.12-14.015-22.53-21.517-33.036-29.112-70.055-31.167-108.652-.095-1.785.113-4.468 1.237-5.292 7.145-5.242 10.628-12.749 11.748-20.884 1.245-9.049 5.204-16.772 8.964-24.729.978-2.069 2.118-4.1 2.791-6.27 3.039-9.802 5.938-19.647 8.887-29.478.729-3.002 1.458-6.004 2.19-9.006 4.156-17.023 5.93-34.104 3-51.623-3.747-22.406-10.59-43.857-18.56-65.024-.621-1.649-1.019-3.416-1.272-5.165-1.03-7.099-1.479-14.32-3.039-21.297-2.995-13.403-10.006-25.046-16.444-37.063-9.909-18.494-21.923-35.014-38.293-48.155-25.498-20.469-54.371-29.567-87.112-25.238-1.346.178-3.042.044-4.146-.638-17.438-10.78-36.63-11.839-56.113-9.435-27.272 3.366-52.843 12.249-76.751 25.859-1.681.957-3.577 1.612-5.447 2.15-30.24 8.702-57.706 22.958-83.194 41.259-2.593 1.861-5.574 3.553-8.628 4.346-37.225 9.66-65.321 30.813-83.492 65.02-3.82 7.192-4.488 14.274-2.551 21.793 3.214 12.479 11.733 21.461 20.8 29.838 3.829 3.537 5.953 7.417 7.097 12.409 3.215 14.027 6.224 28.156 14.028 40.642 1.526 2.442 2.693 5.212 3.495 7.984 4.009 13.858 9.984 26.641 19.501 37.653 1.437 1.663 2.414 3.843 3.189 5.938 4.026 10.874 7.917 21.799 11.855 32.705l.854 2.11z"/><path fill="#0C0C0C" d="M57.065 203.906c-3.938-10.906-7.83-21.831-11.855-32.705-.775-2.095-1.752-4.274-3.189-5.938-9.517-11.013-15.492-23.795-19.501-37.653-.802-2.772-1.969-5.542-3.495-7.984-7.804-12.485-10.813-26.614-14.028-40.642-1.144-4.992-3.268-8.871-7.097-12.408-9.066-8.377-17.586-17.358-20.8-29.838-1.937-7.519-1.269-14.601 2.551-21.793 18.171-34.207 46.267-55.36 83.492-65.02 3.055-.792 6.035-2.484 8.628-4.346 25.488-18.3 52.955-32.557 83.194-41.259 1.87-.538 3.767-1.193 5.447-2.15 23.908-13.611 49.479-22.494 76.751-25.859 19.483-2.404 38.676-1.345 56.113 9.435 1.104.683 2.8.816 4.146.638 32.741-4.329 61.614 4.769 87.112 25.238 16.37 13.141 28.384 29.661 38.293 48.155 6.438 12.017 13.449 23.66 16.444 37.063 1.56 6.977 2.009 14.198 3.039 21.297.254 1.749.651 3.516 1.272 5.165 7.97 21.167 14.813 42.618 18.56 65.024 2.93 17.518 1.156 34.599-3 51.623-.732 3.001-1.461 6.004-2.19 9.006l-1.915-3.145c-.084-3.75-.228-7.5-.239-11.25-.032-10.783-1.729-21.335-7.089-30.699-2.554-4.461-6.682-8.414-10.935-11.404-4.835-3.399-9.872-1.798-13.069 3.192-2.618 4.087-4.792 8.458-7.163 12.704a5857.989 5857.989 0 0 0-3.004 3.95c-.316.078-.712.059-.939.246-15.177 12.443-26.071 27.359-28.795 47.494-1.595 11.796-11.209 19.359-21.353 18.02-4.872-.644-7.809-2.801-8.011-8.069-.145-3.759-.536-7.521-1.048-11.251-1-7.284-1.853-14.612-3.375-21.792-.858-4.05-3.689-6.111-8.136-3.883-3.365 1.687-6.716 3.458-10.228 4.786-8.689 3.285-17.295 7.034-26.266 9.259-6.935 1.72-15.263 2.19-20.44-3.598-12.191-13.631-20.856-29.252-22.173-48.114-1.793-25.676-11.151-46.41-37.152-56.082-.714-.879-1.368-2.464-2.149-2.529-9.089-.758-18.284-2.363-27.283-1.641-16.208 1.301-30.483 8.457-43.719 17.686-23.708 16.532-49.836 24.557-78.838 22.085-9.791-.834-19.577-1.91-29.296-3.338-5.086-.748-8.223 1.095-9.211 5.719-1.086 5.08-1.895 10.352-1.814 15.525.392 24.949 6.075 49.04 12.505 72.979.271 1.008.778 1.952.621 1.566l22.393-7.808c12.528-.266 24.41 1.816 36.417 6.108 8.863 3.168 10.703 9.227 12.679 16.4-.637-.048-1.423.131-1.89-.175-10.29-6.757-21.738-8.032-33.457-6.202-8.027 1.254-15.875 3.725-23.752 5.836-2.7.724-3.995.604-4.901-2.6-.696-2.461-3.045-4.454-4.66-6.654l-1.642.943 9.383 26.725c.02 1.32.038 2.641.057 3.962z"/><path fill="#B4B4B4" d="M222.366 430.438l-6.907 1.996c-1.627.039-3.253.108-4.879.112-8.237.018-16.475.019-24.712.025-4.021-3.464-8.378-6.514-9.81-12.224-1.969-7.853.519-10.787 8.391-9.002 6.556 1.487 13.004 3.461 19.578 4.851 18.295 3.867 34.536.397 48.962-12.363 7.635-6.754 16.468-12.323 25.288-17.533 21.023-12.417 42.643-23.846 63.43-36.634 8.071-4.965 15.652-11.639 21.555-19.05 18.929-23.77 26.402-52.078 29.535-81.706 1.23-11.642 1.667-23.368 2.369-33.651 6.013 3.772 12.472 8.044 19.184 11.873 1.58.902 4.012.313 6.052.408l-1.151 4.036c-13.346 10.412-20.975 24.267-25.087 40.492-3.899 15.388-7.945 30.765-12.725 45.894-3.914 12.391-9.6 24.258-18.813 33.613-9.497 9.645-14.922 20.877-17.224 33.999-2.453 13.986-6.91 27.279-14.487 39.418-.627 1.004-.671 2.371-.986 3.568-8.046 9.703-16.092 19.407-24.14 29.108-12.656 15.257-25.314 30.511-37.972 45.766-4.663 3.306-9.125 6.959-14.049 9.814-4.69 2.721-6.813 1.191-6.386-4.078 1.092-13.486-1.068-26.535-5.918-39.025-4.916-12.661-10.482-25.071-15.92-37.523-.438-1-2.09-1.469-3.178-2.184z"/><path fill="#0B0B0B" d="M267.816 503.435c12.657-15.255 25.315-30.509 37.972-45.766 8.048-9.701 16.094-19.405 24.14-29.108 13.144-12.315 26.266-24.653 39.449-36.925 2.38-2.216 4.714-4.818 7.579-6.12 17.792-8.085 36.21-14.406 55.644-17.049 10.117-1.375 20.367-1.774 30.743-2.63-1.307-2.062-2.595-4.305-4.079-6.409-27.049-38.33-38.888-81.412-40.014-127.852l1.151-4.036c2.598-2.35 6.063-4.242 7.594-7.153 2.469-4.691 3.699-10.042 5.386-15.137 1.571-4.744 2.559-9.752 4.668-14.236 6.347-13.489 12.565-26.977 15.218-41.803.215-1.201 1.164-2.271 1.771-3.402l1.915 3.145c-2.949 9.83-5.848 19.676-8.887 29.478-.673 2.17-1.813 4.2-2.791 6.27-3.76 7.956-7.719 15.68-8.964 24.729-1.12 8.135-4.604 15.642-11.748 20.884-1.124.824-1.332 3.507-1.237 5.292 2.055 38.598 9.65 75.616 31.167 108.652 4.826 7.41 9.422 14.973 14.015 22.53.602.99.908 2.464.646 3.541-.123.503-1.971.938-2.97.824-26.153-2.981-50.631 3.828-74.877 12.433-9.299 3.3-17.066 8.323-24.076 15.368-11.671 11.732-24.799 22.056-36.079 34.125-13.852 14.823-26.327 30.925-39.611 46.288-7.363 8.516-15.163 16.652-22.766 24.96a160.85 160.85 0 0 0-.959-.893z"/><path fill="#0D0D0D" d="M57.065 203.906l-.057-3.964c.664-.443 1.399-.809 1.982-1.342 18.108-16.565 38.22-18.413 58.981-5.399l-1.066 10.514c-4.641 8.487-11.003 10.482-19.536 6.126-5.043-4.769-5.975-10.918-5.556-17.328-9.101-2.912-24.601 2.603-29.735 10.381-3.487 3.768-2.423 8.414-2.481 12.845l-1.678-9.724-.854-2.109z"/><path fill="#0C0C0C" d="M57.919 206.015l1.678 9.724c.119 1.132.391 2.272.333 3.396-1.511 29.388 4.747 56.625 22.188 80.814 3.833 5.317 7.682 10.636 11.232 16.142 4.965 7.699 10.688 15.131 14.27 23.458 10.114 23.516 23.068 45.211 38.854 65.274 1.006 1.279 2.694 2.021 4.065 3.014.279.739.352 1.701.871 2.182 5.248 4.856 10.473 9.746 15.898 14.4 5.322 4.565 11.35 7.771 18.562 8.153 8.237-.007 16.475-.008 24.712-.025 1.626-.004 3.252-.073 4.879-.112-17.502 6.102-34.635 7.886-50.325-4.747-12.672-10.202-22.123-23.235-31.192-36.508-11.197-16.385-20.539-33.763-28.633-51.946-4.209-9.455-10.748-17.945-16.735-26.521-11.468-16.429-22.765-32.854-27.093-52.938-3.831-17.761-4.652-35.69-3.564-53.76zM267.816 503.435l.959.892c-5.212 3.903-10.141 8.285-15.715 11.574-5.595 3.303-9.693.624-8.783-5.79 2.679-18.88-2.918-35.854-10.682-52.569-4.115-8.861-7.51-18.059-11.229-27.104 1.088.716 2.74 1.185 3.178 2.185 5.438 12.452 11.004 24.862 15.92 37.523 4.85 12.49 7.01 25.539 5.918 39.025-.427 5.27 1.695 6.799 6.386 4.078 4.923-2.855 9.385-6.509 14.048-9.814z"/><path fill="#FEFEFE" d="M185.868 432.571c-7.212-.383-13.239-3.588-18.562-8.153-5.426-4.654-10.65-9.544-15.898-14.4-.519-.48-.591-1.442-.871-2.182-.269-.75-.421-1.569-.823-2.239-9-15.008-14.346-31.137-14.882-48.715-.054-1.783.501-3.586.826-5.724 4.608 3.043 8.698 5.42 12.411 8.285 3.782 2.919 7.08 6.459 10.8 9.468 4.319 3.494 9.188 6.574 4.861 13 11.956-2.288 23.351-5.338 34.93-6.438 11.54-1.098 23.266-.241 34.91-.241-.701-1.349-1.495-1.908-2.372-2.114-6.85-1.609-13.727-3.106-20.573-4.729-5.463-1.295-5.608-2.353-2.967-7.402 3.68-7.035 6.491-14.583 13.739-19.035.573-.353.707-1.42 1.045-2.155 2.63-1.591 5.355-3.048 7.842-4.838.981-.707 1.429-2.156 2.12-3.267-.352-.32-.67-.871-1.059-.927-14.078-2.02-28.202-3.76-42.233-6.062-8.216-1.349-16.071-2.313-24.063 1.418-3.024 1.412-6.956.882-10.683 1.259.517-12.82-4.398-22.964-11.326-32.433-2.149-2.936-4.482-3.589-8.042-2.729-17.026 4.114-29.319-5.802-29.925-23.434-.454-13.198 2.985-25.637 6.14-38.214 2.225-8.87 3.816-17.898 5.69-26.855l1.066-10.514-.044-11.132c-1.976-7.174-3.816-13.232-12.679-16.4-12.007-4.292-23.889-6.374-36.417-6.108-.327-2.095-.713-4.183-.97-6.286-1.03-8.431-2.591-16.848-2.858-25.305-.253-8 3.934-12.862 11.904-13.751 6.411-.715 13.058-.097 19.523.623 11.598 1.292 23.099 2.935 34.614-.686 14.178-4.457 24.781-13.816 34.357-24.607 10.88-12.259 21.246-25.006 32.617-36.786 7.322-7.585 16.314-13.265 27.604-13.448 26.001 9.672 35.359 30.406 37.152 56.082 1.316 18.862 9.981 34.483 22.173 48.114 5.178 5.788 13.506 5.317 20.44 3.598 8.971-2.225 17.576-5.974 26.266-9.259 3.512-1.328 6.862-3.1 10.228-4.786 4.446-2.228 7.277-.167 8.136 3.883 1.522 7.18 2.375 14.508 3.375 21.792.512 3.729.903 7.492 1.048 11.251.202 5.269 3.139 7.426 8.011 8.069 10.144 1.34 19.758-6.224 21.353-18.02 2.724-20.135 13.618-35.051 28.795-47.494.228-.187.623-.168.939-.246-3.407 5.793-6.684 11.631-6.647 18.646 1.582-.997 2.182-2.393 2.926-3.707 2.569-4.536 4.609-9.531 7.913-13.458 6.666-7.924 16.253-7.265 21.828 1.42 2.506 3.905 4.291 8.52 5.354 13.059 2.796 11.941.987 23.813-2.072 35.455-1.955 7.439-4.549 14.711-6.856 22.058 1.799-1.636 3.051-3.52 4.088-5.516 7.025-13.511 10.237-27.915 9.869-43.116-.271-11.19-2.833-21.656-9.321-31.057-2.856-4.139-6.43-5.757-10.914-4.074-4.541 1.704-8.787 4.195-13.162 6.342 2.371-4.245 4.545-8.617 7.163-12.704 3.197-4.99 8.234-6.591 13.069-3.192 4.253 2.99 8.381 6.943 10.935 11.404 5.36 9.364 7.057 19.917 7.089 30.699.012 3.75.155 7.5.239 11.25-.607 1.131-1.557 2.201-1.771 3.402-2.652 14.826-8.871 28.313-15.218 41.803-2.109 4.484-3.097 9.492-4.668 14.236-1.687 5.095-2.917 10.445-5.386 15.137-1.531 2.911-4.996 4.804-7.594 7.153-2.04-.096-4.472.494-6.052-.408-6.712-3.829-13.171-8.101-19.184-11.873-.702 10.283-1.139 22.01-2.369 33.651-3.133 29.628-10.606 57.937-29.535 81.706-5.902 7.411-13.483 14.085-21.555 19.05-20.787 12.788-42.406 24.217-63.43 36.634-8.82 5.21-17.653 10.779-25.288 17.533-14.426 12.761-30.667 16.23-48.962 12.363-6.574-1.39-13.022-3.363-19.578-4.851-7.872-1.785-10.359 1.149-8.391 9.002 1.434 5.712 5.791 8.761 9.812 12.225zm75.837-258.3c7.216 4.85 15.187 1.879 23.215 2.424 0-1.932.304-3.71-.049-5.346-2.431-11.283-9.84-18.325-20.273-22.044-8.28-2.952-16.897-4.959-25.365-7.386l29.327-2.225c-4.432-4.694-9.456-5.742-14.324-6.531-5.614-.91-11.823.196-16.94-1.757-9.447-3.606-18.181-2.211-27.351.283-9.276 2.524-18.643 5.408-28.14 6.273-15.371 1.401-26.228 9.195-34.843 21.062-1.579 2.175-2.121 5.103-3.566 8.756l5.988-3.058 5.055 10.792 4.554 1.526c-1.342 1.422-2.914 2.544-3.671 4.071-.563 1.134-.561 3.061.042 4.171 2.715 5.002 5.463 10.028 8.72 14.681 3.13 4.471 6.099 9.933 10.556 12.411 9.103 5.062 19.042 8.723 28.867 12.336 4.854 1.784 10.218 2.18 15.352 3.204l.47-1.521c-8.646-5.621-18.952-9.474-23.261-20.768 3.384.171 5.975.467 8.555.393 4.059-.116 8.55-1.747 12.089-.52 14.486 5.023 26.597-1.494 38.668-7.381 2.653-1.294 4.165-6.013 5.096-9.454.961-3.558-2.898-3.022-4.929-3.985-3.127-1.482-3.236-4.369-.245-6.475 1.828-1.287 3.768-2.418 5.657-3.619.229-.146.479-.25.746-.313zm157.863 1.977l1.842.884c1.747-2.212 4.081-4.178 5.135-6.683 3.444-8.186 4.59-16.704 2-25.436-2.762-9.314-6.924-11.304-15.985-7.674-.756.303-1.795.259-2.294.773-1.321 1.364-2.419 2.946-3.606 4.44 1.393 1.084 2.636 2.741 4.205 3.151 6.094 1.594 8.603 4.352 8.685 10.673.086 6.624.018 13.249.018 19.872zM147.071 288.092l.411 2.029c5.83-.722 11.723-1.146 17.457-2.33 1.983-.409 3.575-2.709 5.347-4.145-2.432-.917-4.816-2.358-7.31-2.582-1.939-.175-4.104.98-6.012 1.878-3.36 1.582-6.601 3.419-9.893 5.15z"/><path fill="#B4B4B4" d="M225.624 39.316c-11.29.183-20.282 5.863-27.604 13.448-11.371 11.78-21.737 24.527-32.617 36.786-9.576 10.791-20.179 20.15-34.357 24.607-11.515 3.62-23.016 1.977-34.614.686-6.465-.72-13.112-1.338-19.523-.623-7.971.889-12.157 5.75-11.904 13.751.267 8.457 1.829 16.874 2.858 25.305.257 2.104.643 4.191.97 6.286L46.44 167.37c.157.386-.351-.559-.621-1.566-6.43-23.94-12.113-48.03-12.505-72.979-.081-5.173.728-10.445 1.814-15.525.989-4.624 4.125-6.466 9.211-5.719 9.72 1.428 19.505 2.503 29.296 3.338 29.002 2.472 55.13-5.553 78.838-22.085 13.235-9.229 27.511-16.385 43.719-17.686 8.999-.722 18.194.883 27.283 1.641.781.063 1.435 1.648 2.149 2.527z"/><path fill="#B3B3B3" d="M117.928 182.069l.044 11.132c-20.761-13.014-40.873-11.166-58.981 5.399-.583.533-1.318.898-1.982 1.342l-9.383-26.725 1.642-.943c1.614 2.2 3.963 4.193 4.66 6.654.906 3.204 2.202 3.323 4.901 2.6 7.878-2.111 15.725-4.582 23.752-5.836 11.719-1.83 23.167-.555 33.457 6.202.467.306 1.253.127 1.89.175z"/><path fill="#B4B4B4" d="M416.543 108.351c4.375-2.146 8.621-4.638 13.162-6.342 4.484-1.683 8.058-.064 10.914 4.074 6.488 9.401 9.051 19.867 9.321 31.057.368 15.201-2.844 29.605-9.869 43.116-1.037 1.996-2.289 3.88-4.088 5.516 2.308-7.347 4.901-14.618 6.856-22.058 3.06-11.643 4.868-23.514 2.072-35.455-1.063-4.539-2.848-9.153-5.354-13.059-5.575-8.685-15.162-9.344-21.828-1.42-3.304 3.927-5.344 8.922-7.913 13.458-.744 1.314-1.344 2.71-2.926 3.707-.036-7.014 3.24-12.852 6.647-18.646 1.003-1.315 2.004-2.632 3.006-3.948z"/><path fill="#FEFEFE" d="M419.25 231.576c1.126 46.439 12.965 89.521 40.014 127.852 1.484 2.104 2.772 4.348 4.079 6.409-10.376.855-20.626 1.255-30.743 2.63-19.434 2.643-37.852 8.964-55.644 17.049-2.865 1.302-5.199 3.904-7.579 6.12-13.184 12.271-26.306 24.609-39.449 36.925.315-1.197.359-2.564.986-3.568 7.577-12.139 12.034-25.432 14.487-39.418 2.302-13.122 7.727-24.354 17.224-33.999 9.214-9.355 14.899-21.223 18.813-33.613 4.779-15.129 8.825-30.506 12.725-45.894 4.112-16.226 11.741-30.081 25.087-40.493z"/><path fill="#B4B4B4" d="M116.905 203.715c-1.874 8.957-3.465 17.985-5.69 26.855-3.155 12.577-6.594 25.016-6.14 38.214.606 17.632 12.898 27.548 29.925 23.434 3.56-.86 5.893-.207 8.042 2.729 6.928 9.469 11.843 19.612 11.326 32.433 3.727-.377 7.658.153 10.683-1.259 7.991-3.73 15.847-2.767 24.063-1.418 14.031 2.302 28.155 4.042 42.233 6.062.389.056.707.606 1.059.927-9.466.923-18.93 1.863-28.397 2.757-2.382.225-4.778.296-7.168.438-1.497-.587-2.974-1.622-4.494-1.691-13.369-.611-26.872-1.896-39.051 5.704l-9.718 7.718.581 1.709c11.726.813 23.448 1.67 35.181 2.375 1.2.072 2.511-.648 3.676-1.201 12.484-5.925 25.95-7.838 39.429-9.703-.338.735-.472 1.803-1.045 2.155-7.248 4.452-10.06 12-13.739 19.035-2.642 5.05-2.496 6.107 2.967 7.402 6.847 1.623 13.724 3.12 20.573 4.729.877.206 1.671.766 2.372 2.114-11.645 0-23.37-.856-34.91.241-11.579 1.101-22.974 4.15-34.93 6.438 4.327-6.426-.542-9.506-4.861-13-3.72-3.009-7.018-6.549-10.8-9.468-3.713-2.865-7.803-5.242-12.411-8.285-.325 2.138-.88 3.94-.826 5.724.536 17.578 5.882 33.707 14.882 48.715.402.67.555 1.489.823 2.239-1.371-.992-3.059-1.734-4.065-3.014-15.786-20.063-28.739-41.759-38.854-65.274-3.582-8.327-9.304-15.759-14.27-23.458-3.55-5.506-7.399-10.824-11.232-16.142-17.441-24.189-23.699-51.427-22.188-80.814.058-1.123-.214-2.264-.333-3.396.058-4.431-1.006-9.077 2.481-12.845 10.847 6.973 23.025 7.184 35.291 6.947 8.532 4.356 14.894 2.361 19.535-6.126z"/><path fill="#FDFDFD" d="M97.37 209.841c-12.266.236-24.444.025-35.291-6.947 5.134-7.778 20.634-13.293 29.735-10.381-.419 6.41.512 12.559 5.556 17.328z"/><path fill="#B4B4B4" d="M260.957 174.586c-1.89 1.201-3.829 2.332-5.657 3.619-2.991 2.105-2.882 4.992.245 6.475 2.03.963 5.89.428 4.929 3.985-.931 3.441-2.442 8.16-5.096 9.454-12.071 5.887-24.182 12.404-38.668 7.381-3.539-1.228-8.03.403-12.089.52-2.58.074-5.171-.222-8.555-.393 4.309 11.294 14.615 15.146 23.261 20.768l-.47 1.521c-5.134-1.024-10.498-1.42-15.352-3.204-9.825-3.613-19.765-7.274-28.867-12.336-4.457-2.479-7.426-7.94-10.556-12.411-3.257-4.652-6.005-9.679-8.72-14.681-.603-1.11-.604-3.037-.042-4.171.757-1.527 2.329-2.649 3.671-4.071l-4.554-1.526c10.422 1.212 17.974-3.626 25.273-10.575 5.828-5.548 12.485-11.38 19.861-13.89 12.776-4.347 26.395-6.22 39.659-9.131 8.468 2.427 17.085 4.435 25.365 7.386 10.434 3.719 17.843 10.761 20.273 22.044.353 1.636.049 3.414.049 5.346-8.028-.545-15.999 2.426-23.215-2.424-17.273-10.009-35.474-12.614-54.566-6.328-9.989 3.288-18.092 9.44-24.587 17.648 3.504 4.295 4.275 4.484 9.375 2.565 11.362 2.688 22.818 2.794 34.334 1.252 7.371 1.687 12.968-2.842 18.459-6.188 3.026-1.844 4.364-6.456 6.854-10.446 2.407.463 5.896 1.137 9.386 1.811z"/><path fill="#0D0D0D" d="M239.232 141.919c-13.265 2.911-26.883 4.784-39.659 9.131-7.376 2.51-14.033 8.342-19.861 13.89-7.3 6.949-14.852 11.787-25.273 10.575l-5.055-10.792-5.988 3.058c1.445-3.653 1.987-6.581 3.566-8.756 8.615-11.866 19.472-19.661 34.843-21.062 9.497-.866 18.863-3.75 28.14-6.273 9.17-2.495 17.903-3.889 27.351-.283 5.117 1.953 11.326.847 16.94 1.757 4.868.789 9.893 1.837 14.324 6.531l-29.328 2.224zM260.957 174.586l-9.383-1.812c-2.49 3.99-3.828 8.603-6.854 10.446-5.491 3.347-11.088 7.875-18.459 6.188-7.375-3.196-11.775-8.508-11.523-17.791-5.467 1.688-10.315 3.019-15.045 4.688-5.493 1.938-8.818 5.517-7.766 11.852-5.1 1.919-5.871 1.729-9.375-2.565 6.495-8.208 14.598-14.36 24.587-17.648 19.093-6.286 37.293-3.681 54.566 6.328a2.37 2.37 0 0 0-.748.314zM196.839 334.885c2.39-.142 4.786-.213 7.168-.438 9.468-.894 18.932-1.834 28.397-2.757-.691 1.11-1.139 2.56-2.12 3.267-2.486 1.79-5.212 3.247-7.842 4.838-13.479 1.865-26.944 3.778-39.429 9.703-1.165.553-2.476 1.273-3.676 1.201-11.732-.705-23.455-1.562-35.181-2.375l-.581-1.709 9.718-7.718c2.06 8.425 2.112 8.801 9.544 7.759 12.054-1.69 23.675-4.945 34.002-11.771z"/><path fill="#B4B4B4" d="M419.568 176.248c0-6.623.067-13.248-.02-19.87-.082-6.322-2.591-9.08-8.685-10.673-1.569-.411-2.813-2.067-4.205-3.151 1.188-1.495 2.285-3.076 3.606-4.44.499-.514 1.538-.47 2.294-.773 9.062-3.63 13.224-1.64 15.985 7.674 2.59 8.731 1.444 17.25-2 25.436-1.054 2.505-3.388 4.471-5.135 6.683-.612-.296-1.225-.591-1.84-.886z"/><path fill="#101010" d="M147.071 288.092c3.292-1.73 6.532-3.567 9.894-5.149 1.907-.897 4.072-2.053 6.012-1.878 2.493.224 4.878 1.665 7.31 2.582-1.771 1.436-3.363 3.735-5.347 4.145-5.734 1.185-11.627 1.608-17.457 2.33l-.412-2.03z"/><path fill="#FEFEFE" d="M196.839 334.885c-10.327 6.826-21.948 10.081-34.001 11.771-7.432 1.042-7.484.666-9.544-7.759 12.179-7.6 25.682-6.315 39.051-5.704 1.52.07 2.997 1.105 4.494 1.692zM191.927 188.157c-1.053-6.335 2.272-9.914 7.766-11.852 4.729-1.669 9.578-3 15.045-4.688-.252 9.283 4.148 14.595 11.523 17.791-11.516 1.543-22.972 1.437-34.334-1.251z"/></g><g fill="#080828"><path d="M129.133 255.561H116.94v9.504h13.633v4.85h-19.538V237.56h18.818v4.848H116.94v8.354h12.193v4.799zM158.942 268.953c-1.393.721-4.465 1.441-8.354 1.441-10.272 0-16.513-6.434-16.513-16.273 0-10.658 7.393-17.09 17.282-17.09 3.889 0 6.673.816 7.872 1.439l-1.296 4.705c-1.536-.672-3.648-1.248-6.336-1.248-6.577 0-11.329 4.127-11.329 11.904 0 7.105 4.176 11.666 11.281 11.666 2.399 0 4.896-.48 6.432-1.201l.961 4.657zM169.836 237.559v18.865c0 6.338 2.641 9.266 6.625 9.266 4.272 0 6.816-2.928 6.816-9.266v-18.865h5.904v18.482c0 9.984-5.137 14.4-12.913 14.4-7.488 0-12.337-4.176-12.337-14.354v-18.529h5.905z"/></g></g></switch></svg>