<?xml version="1.0" encoding="iso-8859-1"?>
<!-- Generator: Adobe Illustrator 16.0.3, SVG Export Plug-In . SVG Version: 6.00 Build 0)  -->
<!DOCTYPE svg PUBLIC "-//W3C//DTD SVG 1.1//EN" "http://www.w3.org/Graphics/SVG/1.1/DTD/svg11.dtd">
<svg version="1.1" id="Ebene_1" xmlns="http://www.w3.org/2000/svg" xmlns:xlink="http://www.w3.org/1999/xlink" x="0px" y="0px"
	 width="518px" height="518px" viewBox="0 0 518 518" style="enable-background:new 0 0 518 518;" xml:space="preserve">
<path style="fill-rule:evenodd;clip-rule:evenodd;fill:#A91E74;" d="M518,512c0,3.313-2.017,6-4.505,6H4.505
	C2.018,518,0,515.313,0,512V6c0-3.313,2.017-6,4.504-6h508.99C515.983,0,518,2.687,518,6V512z"/>
<g>
	<g id="XMLID_1_">
		<g>
			<path style="fill:#FCFBFB;" d="M259.039,25.99c96.51-0.58,177.17,79.81,175.04,178.93c-2.04,95.16-81.561,173.45-179.37,171.17
				c-94.72-2.21-173.28-81.439-170.77-179.76C86.349,101.91,164.509,25.46,259.039,25.99z M259.309,361.59
				c89.29-0.38,160.94-73.05,160.37-160.66c-0.58-89.03-72.779-160.79-161.03-160.56c-85.43,0.21-159.56,68.84-160.47,160.72
				C99.219,291.1,170.849,361.97,259.309,361.59z"/>
			<path style="fill:#A91E74;" d="M419.679,200.93c0.57,87.61-71.08,160.28-160.37,160.66c-88.46,0.38-160.09-70.49-161.13-160.5
				c0.91-91.88,75.04-160.51,160.47-160.72C346.899,40.14,419.099,111.9,419.679,200.93z"/>
		</g>
		<g>
		</g>
	</g>
</g>
<g>
	<rect x="-7.001" y="413" style="fill-rule:evenodd;clip-rule:evenodd;fill:none;" width="525.002" height="106"/>
	<path style="fill:#FFFFFF;" d="M75.068,414.953l10.254,27.246l10.229-27.246h7.983V450.5h-6.152v-11.719l0.61-15.674L87.495,450.5
		h-4.419l-10.474-27.368l0.61,15.649V450.5H67.06v-35.547H75.068z"/>
	<path style="fill:#FFFFFF;" d="M110.273,417.224c0-0.911,0.289-1.668,0.867-2.271c0.578-0.602,1.404-0.903,2.478-0.903
		s1.904,0.302,2.49,0.903c0.586,0.603,0.879,1.359,0.879,2.271c0,0.896-0.293,1.64-0.879,2.233c-0.586,0.595-1.416,0.892-2.49,0.892
		s-1.9-0.297-2.478-0.892C110.562,418.863,110.273,418.119,110.273,417.224z M116.572,450.5h-5.933v-26.416h5.933V450.5z"/>
	<path style="fill:#FFFFFF;" d="M128.535,424.084l0.171,3.052c1.953-2.359,4.517-3.54,7.69-3.54c5.501,0,8.301,3.149,8.398,9.448
		V450.5h-5.933v-17.114c0-1.676-0.362-2.917-1.086-3.724c-0.725-0.805-1.909-1.208-3.552-1.208c-2.393,0-4.175,1.083-5.347,3.247
		V450.5h-5.933v-26.416H128.535z"/>
	<path style="fill:#FFFFFF;" d="M166.84,447.912c-1.742,2.051-4.216,3.076-7.422,3.076c-2.865,0-5.034-0.838-6.506-2.515
		c-1.473-1.676-2.209-4.102-2.209-7.275v-17.114h5.933v17.041c0,3.354,1.392,5.029,4.175,5.029c2.881,0,4.826-1.033,5.835-3.101
		v-18.97h5.933V450.5h-5.591L166.84,447.912z"/>
	<path style="fill:#FFFFFF;" d="M193.427,443.322c0-1.058-0.436-1.863-1.306-2.417c-0.871-0.553-2.315-1.041-4.333-1.465
		c-2.019-0.423-3.703-0.96-5.054-1.611c-2.962-1.432-4.443-3.507-4.443-6.226c0-2.278,0.96-4.183,2.881-5.713
		c1.92-1.529,4.362-2.295,7.324-2.295c3.157,0,5.708,0.781,7.654,2.344c1.945,1.563,2.917,3.589,2.917,6.079h-5.933
		c0-1.139-0.423-2.087-1.27-2.845c-0.847-0.756-1.97-1.135-3.369-1.135c-1.302,0-2.364,0.302-3.186,0.903
		c-0.822,0.603-1.233,1.408-1.233,2.417c0,0.912,0.382,1.62,1.147,2.124c0.765,0.505,2.311,1.013,4.639,1.526
		c2.327,0.512,4.154,1.123,5.481,1.83c1.326,0.709,2.311,1.56,2.954,2.552c0.643,0.993,0.964,2.197,0.964,3.613
		c0,2.377-0.985,4.301-2.954,5.774c-1.97,1.473-4.549,2.209-7.739,2.209c-2.165,0-4.094-0.391-5.786-1.172
		c-1.693-0.781-3.011-1.855-3.955-3.223c-0.944-1.367-1.416-2.84-1.416-4.419h5.762c0.081,1.4,0.61,2.478,1.587,3.235
		c0.977,0.756,2.271,1.135,3.882,1.135c1.563,0,2.75-0.297,3.564-0.891C193.02,445.06,193.427,444.283,193.427,443.322z"/>
	<path style="fill:#FFFFFF;" d="M222.456,424.084l0.171,2.759c1.855-2.164,4.395-3.247,7.617-3.247c3.532,0,5.949,1.352,7.251,4.053
		c1.92-2.701,4.622-4.053,8.105-4.053c2.913,0,5.082,0.806,6.506,2.417c1.424,1.611,2.152,3.988,2.185,7.129V450.5h-5.933v-17.188
		c0-1.676-0.366-2.905-1.099-3.687s-1.945-1.172-3.638-1.172c-1.351,0-2.454,0.362-3.308,1.087
		c-0.854,0.724-1.453,1.672-1.794,2.844l0.024,18.115h-5.933v-17.383c-0.082-3.108-1.668-4.663-4.761-4.663
		c-2.376,0-4.061,0.969-5.054,2.905V450.5h-5.933v-26.416H222.456z"/>
	<path style="fill:#FFFFFF;" d="M276.167,450.5c-0.261-0.504-0.488-1.326-0.684-2.466c-1.888,1.97-4.199,2.954-6.934,2.954
		c-2.653,0-4.818-0.757-6.494-2.271c-1.677-1.514-2.515-3.385-2.515-5.615c0-2.815,1.045-4.977,3.137-6.481
		c2.091-1.506,5.082-2.259,8.972-2.259h3.638v-1.733c0-1.367-0.383-2.462-1.147-3.283c-0.765-0.822-1.929-1.233-3.491-1.233
		c-1.351,0-2.458,0.338-3.32,1.013c-0.863,0.676-1.294,1.535-1.294,2.576h-5.933c0-1.448,0.48-2.804,1.44-4.064
		c0.96-1.262,2.266-2.25,3.918-2.967c1.652-0.716,3.495-1.074,5.53-1.074c3.092,0,5.558,0.777,7.397,2.332
		c1.839,1.554,2.783,3.739,2.832,6.555v11.914c0,2.377,0.333,4.272,1.001,5.688v0.415H276.167z M269.648,446.228
		c1.172,0,2.274-0.284,3.308-0.854c1.033-0.569,1.811-1.334,2.332-2.295v-4.98h-3.198c-2.197,0-3.85,0.383-4.956,1.147
		c-1.107,0.766-1.66,1.848-1.66,3.247c0,1.14,0.378,2.047,1.135,2.723C267.365,445.89,268.378,446.228,269.648,446.228z"/>
	<path style="fill:#FFFFFF;" d="M293.745,450.5h-5.933V413h5.933V450.5z"/>
	<path style="fill:#FFFFFF;" d="M321.235,414.953l10.253,27.246l10.23-27.246h7.982V450.5h-6.152v-11.719l0.611-15.674
		L333.662,450.5h-4.419l-10.474-27.368l0.61,15.649V450.5h-6.152v-35.547H321.235z"/>
	<path style="fill:#FFFFFF;" d="M356.44,417.224c0-0.911,0.289-1.668,0.866-2.271c0.578-0.602,1.404-0.903,2.479-0.903
		s1.904,0.302,2.49,0.903c0.586,0.603,0.879,1.359,0.879,2.271c0,0.896-0.293,1.64-0.879,2.233c-0.586,0.595-1.416,0.892-2.49,0.892
		s-1.9-0.297-2.479-0.892C356.729,418.863,356.44,418.119,356.44,417.224z M362.739,450.5h-5.933v-26.416h5.933V450.5z"/>
	<path style="fill:#FFFFFF;" d="M374.702,424.084l0.171,3.052c1.953-2.359,4.517-3.54,7.69-3.54c5.501,0,8.301,3.149,8.398,9.448
		V450.5h-5.933v-17.114c0-1.676-0.362-2.917-1.087-3.724c-0.724-0.805-1.908-1.208-3.552-1.208c-2.393,0-4.175,1.083-5.347,3.247
		V450.5h-5.933v-26.416H374.702z"/>
	<path style="fill:#FFFFFF;" d="M413.008,447.912c-1.742,2.051-4.216,3.076-7.422,3.076c-2.865,0-5.033-0.838-6.506-2.515
		c-1.474-1.676-2.21-4.102-2.21-7.275v-17.114h5.933v17.041c0,3.354,1.392,5.029,4.175,5.029c2.881,0,4.825-1.033,5.835-3.101
		v-18.97h5.933V450.5h-5.591L413.008,447.912z"/>
	<path style="fill:#FFFFFF;" d="M439.595,443.322c0-1.058-0.436-1.863-1.306-2.417c-0.871-0.553-2.316-1.041-4.334-1.465
		c-2.019-0.423-3.703-0.96-5.054-1.611c-2.963-1.432-4.443-3.507-4.443-6.226c0-2.278,0.96-4.183,2.881-5.713
		c1.92-1.529,4.361-2.295,7.324-2.295c3.157,0,5.709,0.781,7.653,2.344c1.945,1.563,2.918,3.589,2.918,6.079h-5.933
		c0-1.139-0.424-2.087-1.27-2.845c-0.847-0.756-1.97-1.135-3.369-1.135c-1.303,0-2.364,0.302-3.187,0.903
		c-0.821,0.603-1.232,1.408-1.232,2.417c0,0.912,0.382,1.62,1.147,2.124c0.765,0.505,2.311,1.013,4.639,1.526
		c2.327,0.512,4.154,1.123,5.481,1.83c1.326,0.709,2.311,1.56,2.953,2.552c0.644,0.993,0.965,2.197,0.965,3.613
		c0,2.377-0.985,4.301-2.954,5.774c-1.97,1.473-4.55,2.209-7.739,2.209c-2.165,0-4.094-0.391-5.786-1.172
		c-1.693-0.781-3.012-1.855-3.955-3.223c-0.944-1.367-1.416-2.84-1.416-4.419h5.762c0.081,1.4,0.61,2.478,1.587,3.235
		c0.977,0.756,2.271,1.135,3.882,1.135c1.563,0,2.75-0.297,3.564-0.891C439.188,445.06,439.595,444.283,439.595,443.322z"/>
	<path style="fill:#FFFFFF;" d="M175.568,469.224c0-0.911,0.289-1.668,0.867-2.271c0.578-0.602,1.404-0.903,2.478-0.903
		s1.904,0.302,2.49,0.903c0.586,0.603,0.879,1.359,0.879,2.271c0,0.896-0.293,1.64-0.879,2.233c-0.586,0.595-1.416,0.892-2.49,0.892
		s-1.9-0.297-2.478-0.892C175.857,470.863,175.568,470.119,175.568,469.224z M181.867,502.5h-5.933v-26.416h5.933V502.5z"/>
	<path style="fill:#FFFFFF;" d="M203.132,495.322c0-1.058-0.436-1.863-1.306-2.417c-0.871-0.553-2.315-1.041-4.333-1.465
		c-2.019-0.423-3.703-0.96-5.054-1.611c-2.962-1.432-4.443-3.507-4.443-6.226c0-2.278,0.96-4.183,2.881-5.713
		c1.92-1.529,4.362-2.295,7.324-2.295c3.157,0,5.708,0.781,7.654,2.344c1.945,1.563,2.917,3.589,2.917,6.079h-5.933
		c0-1.139-0.423-2.087-1.27-2.845c-0.847-0.756-1.97-1.135-3.369-1.135c-1.302,0-2.364,0.302-3.186,0.903
		c-0.822,0.603-1.233,1.408-1.233,2.417c0,0.912,0.382,1.62,1.147,2.124c0.765,0.505,2.311,1.013,4.639,1.526
		c2.327,0.512,4.154,1.123,5.481,1.83c1.326,0.709,2.311,1.56,2.954,2.552c0.643,0.993,0.964,2.197,0.964,3.613
		c0,2.377-0.985,4.301-2.954,5.774c-1.97,1.473-4.549,2.209-7.739,2.209c-2.165,0-4.094-0.391-5.786-1.172
		c-1.693-0.781-3.011-1.855-3.955-3.223c-0.944-1.367-1.416-2.84-1.416-4.419h5.762c0.081,1.4,0.61,2.478,1.587,3.235
		c0.977,0.756,2.271,1.135,3.882,1.135c1.563,0,2.75-0.297,3.564-0.891C202.725,497.06,203.132,496.283,203.132,495.322z"/>
	<path style="fill:#FFFFFF;" d="M221.564,469.663v6.421h4.663v4.395h-4.663v14.746c0,1.01,0.199,1.737,0.598,2.186
		c0.398,0.447,1.111,0.671,2.136,0.671c0.684,0,1.375-0.081,2.075-0.244v4.59c-1.351,0.374-2.653,0.562-3.906,0.562
		c-4.558,0-6.836-2.515-6.836-7.544v-14.966h-4.346v-4.395h4.346v-6.421H221.564z"/>
	<path style="fill:#FFFFFF;" d="M249.958,489.316V502.5h-6.177v-35.547h13.599c3.971,0,7.125,1.035,9.46,3.104
		c2.335,2.069,3.503,4.807,3.503,8.212c0,3.486-1.144,6.199-3.43,8.139c-2.287,1.938-5.489,2.908-9.607,2.908H249.958z
		 M249.958,484.336h7.422c2.197,0,3.874-0.517,5.029-1.551c1.155-1.033,1.733-2.526,1.733-4.479c0-1.92-0.586-3.454-1.758-4.603
		c-1.172-1.146-2.783-1.736-4.834-1.77h-7.593V484.336z"/>
	<path style="fill:#FFFFFF;" d="M281.477,502.5h-5.933V465h5.933V502.5z"/>
	<path style="fill:#FFFFFF;" d="M303.938,499.912c-1.742,2.051-4.216,3.076-7.422,3.076c-2.865,0-5.034-0.838-6.506-2.515
		c-1.473-1.676-2.209-4.102-2.209-7.275v-17.114h5.933v17.041c0,3.354,1.392,5.029,4.175,5.029c2.881,0,4.826-1.033,5.835-3.101
		v-18.97h5.933V502.5h-5.591L303.938,499.912z"/>
	<path style="fill:#FFFFFF;" d="M330.524,495.322c0-1.058-0.436-1.863-1.307-2.417c-0.871-0.553-2.314-1.041-4.333-1.465
		c-2.019-0.423-3.703-0.96-5.054-1.611c-2.962-1.432-4.443-3.507-4.443-6.226c0-2.278,0.96-4.183,2.881-5.713
		c1.92-1.529,4.361-2.295,7.324-2.295c3.157,0,5.709,0.781,7.653,2.344c1.945,1.563,2.918,3.589,2.918,6.079h-5.933
		c0-1.139-0.424-2.087-1.27-2.845c-0.847-0.756-1.97-1.135-3.369-1.135c-1.303,0-2.364,0.302-3.186,0.903
		c-0.823,0.603-1.233,1.408-1.233,2.417c0,0.912,0.382,1.62,1.147,2.124c0.765,0.505,2.311,1.013,4.639,1.526
		c2.327,0.512,4.154,1.123,5.481,1.83c1.326,0.709,2.311,1.56,2.953,2.552c0.644,0.993,0.965,2.197,0.965,3.613
		c0,2.377-0.985,4.301-2.954,5.774c-1.97,1.473-4.549,2.209-7.739,2.209c-2.165,0-4.094-0.391-5.786-1.172
		c-1.693-0.781-3.011-1.855-3.955-3.223c-0.944-1.367-1.416-2.84-1.416-4.419h5.762c0.081,1.4,0.61,2.478,1.587,3.235
		c0.977,0.756,2.271,1.135,3.882,1.135c1.563,0,2.75-0.297,3.564-0.891C330.117,497.06,330.524,496.283,330.524,495.322z"/>
</g>
<g>
	<path style="fill-rule:evenodd;clip-rule:evenodd;fill:#F8F3F6;" d="M184.132,292.188c-24.293-0.168-43.141-19.62-43-44.38
		c0.131-23.162,20.188-42.649,43.598-42.361c23.84,0.294,43.164,19.764,43.136,43.462
		C227.837,272.868,208.146,292.355,184.132,292.188z M222.135,249.25c0.086-21.076-16.471-38.097-37.187-38.229
		c-21.125-0.136-38.309,16.737-38.391,37.695c-0.081,20.665,17.021,37.986,37.605,38.089
		C204.94,286.908,222.051,269.986,222.135,249.25z"/>
	<path style="fill-rule:evenodd;clip-rule:evenodd;fill:#F8F3F6;" d="M339.712,169.801c23.935,0.025,43.128,19.21,43.154,43.136
		c0.025,24.015-19.488,43.366-43.625,43.262c-24.137-0.104-43.201-19.44-43.109-43.726
		C296.222,188.693,315.542,169.774,339.712,169.801z M377.276,212.804c-0.057-20.754-17.122-37.804-37.815-37.782
		c-20.685,0.021-37.727,17.02-37.896,37.798c-0.17,20.762,17.211,38.063,38.16,37.987
		C360.43,250.731,377.334,233.624,377.276,212.804z"/>
	<path style="fill-rule:evenodd;clip-rule:evenodd;fill:#F9F4F7;" d="M214.951,199.196c-22.042,1.011-43.647-18.475-43.23-43.389
		c0.402-24.011,19.133-42.981,43.221-43.004c24.203-0.022,43.208,19.212,43.287,43.499
		C258.308,180.578,237.523,200.05,214.951,199.196z M177.016,155.766c-0.121,20.663,16.864,37.963,37.521,38.217
		c20.632,0.253,38.103-16.821,38.275-37.406c0.175-20.861-16.626-38.196-37.209-38.39
		C194.502,117.989,177.138,134.899,177.016,155.766z"/>
	<path style="fill-rule:evenodd;clip-rule:evenodd;fill:#F1E5ED;" d="M278.343,204.399c0,2.048,0,3.791,0,5.88
		c-10.424,0-20.631,0-31.211,0c0-1.781,0-3.674,0-5.88C257.357,204.399,267.548,204.399,278.343,204.399z"/>
	<path style="fill-rule:evenodd;clip-rule:evenodd;fill:#F1E5ED;" d="M278.297,216.752c0,1.925,0,3.66,0,6.158
		c-5.146,0-10.206,0-15.266,0c-5.133,0-10.266,0-15.994,0c-0.098-2.018-0.188-3.891-0.298-6.158
		C257.233,216.752,267.419,216.752,278.297,216.752z"/>
	<path style="fill-rule:evenodd;clip-rule:evenodd;fill:#F8F2F6;" d="M186.859,249.11c6.624,6.522,12.19,12.004,18.328,18.047
		c-1.27,1.201-2.428,2.296-4.425,4.184c-5.706-6.341-11.015-12.24-16.809-18.679c-6.109,6.55-11.433,12.258-17.032,18.261
		c-1.701-1.513-2.868-2.55-4.491-3.993c6.127-5.587,11.993-10.937,18.252-16.645c-6.8-6.365-12.592-11.786-18.639-17.447
		c1.822-1.94,2.912-3.103,4.562-4.861c5.578,6.108,10.928,11.968,16.581,18.158c6.588-6.998,12.387-13.158,18.434-19.581
		c1.93,1.742,3.091,2.79,4.194,3.786C199.608,236.484,193.493,242.54,186.859,249.11z"/>
	<path style="fill-rule:evenodd;clip-rule:evenodd;fill:#F9F4F7;" d="M321.247,208.741c5.152,5.399,9.854,10.324,14.895,15.607
		c9.483-9.136,18.633-17.951,28.327-27.291c1.261,1.27,2.366,2.382,3.823,3.849c-10.834,10.552-21.152,20.602-31.097,30.287
		c-6.274-6.302-12.428-12.48-18.936-19.017C318.627,211.755,319.653,210.574,321.247,208.741z"/>
	<path style="fill-rule:evenodd;clip-rule:evenodd;fill:#FBF8FA;" d="M236.297,173.32c-2.232,2.112-3.29,3.114-4.929,4.666
		c-5.468-6.027-10.801-11.906-16.411-18.092c-6.188,6.507-11.563,12.159-17.217,18.104c-1.852-1.424-3.078-2.368-4.294-3.303
		c5.883-5.793,11.539-11.362,17.496-17.228c-6.614-6.125-12.415-11.497-18.466-17.102c2.004-2.233,3.05-3.398,4.698-5.234
		c5.558,6.155,10.874,12.043,16.482,18.255c6.678-7.072,12.469-13.205,18.552-19.646c1.939,1.787,3.081,2.84,4.423,4.077
		c-6.347,6.115-12.426,11.973-18.827,18.142C224.313,162.071,230.089,167.493,236.297,173.32z"/>
</g>
</svg>
