<svg xmlns="http://www.w3.org/2000/svg" xmlns:xlink="http://www.w3.org/1999/xlink" width="300" height="300" viewBox="0 0 300 300"><switch><g><symbol id="a" viewBox="-150 -150 300 300.007"><path fill="#CE8E95" d="M150-97.021c0-6.764 0-52.979-71.5-52.979H-84c-62.5 0-66 47.215-66 53.979v186c0 54.5 59.235 60 66 60l161.5.029c6.765 0 72.5-.029 72.5-60.029v-187z"/></symbol><use xlink:href="#a" width="300" height="300.007" x="-150" y="-150" transform="matrix(1 0 0 -1 150 150)" overflow="visible"/><g fill="#26080D"><path d="M66.729 254.315l16.562-24.05v-.144H68.218v-4.896h22.754v3.456l-16.321 23.81v.192h16.562v4.896H66.729v-3.264zM99.467 247.547c.144 4.225 3.456 6.049 7.201 6.049 2.736 0 4.704-.384 6.48-1.056l.864 4.08c-2.016.816-4.8 1.44-8.161 1.44-7.584 0-12.049-4.657-12.049-11.81 0-6.48 3.937-12.577 11.425-12.577 7.585 0 10.081 6.24 10.081 11.377 0 1.104-.096 1.969-.192 2.496H99.467zm10.273-4.128c.048-2.16-.912-5.713-4.849-5.713-3.648 0-5.185 3.313-5.424 5.713h10.273zM126.347 227.674c0 1.775-1.296 3.168-3.36 3.168-1.968 0-3.265-1.393-3.265-3.168 0-1.824 1.344-3.217 3.313-3.217 2.015 0 3.263 1.393 3.312 3.217zm-6.289 29.906v-23.378h5.952v23.378h-5.952zM139.115 227.529v6.673h5.616v4.416h-5.616v10.321c0 2.832.768 4.32 3.024 4.32a8.765 8.765 0 0 0 2.304-.288l.096 4.513c-.864.336-2.4.576-4.272.576-2.16 0-3.984-.721-5.088-1.921-1.248-1.344-1.824-3.456-1.824-6.528v-10.993h-3.36v-4.416h3.36v-5.28l5.76-1.393zM149.194 223.497h5.953v34.083h-5.953v-34.083zM182.459 250.571a137 137 0 0 0 .192 7.009h-5.185l-.288-3.553h-.096c-1.008 1.681-3.313 4.081-7.488 4.081-4.272 0-8.161-2.545-8.161-10.177v-13.729h5.904v12.721c0 3.889 1.248 6.385 4.368 6.385 2.353 0 3.889-1.68 4.513-3.168a5.366 5.366 0 0 0 .336-1.824v-14.113h5.904v16.368zM188.841 241.979c0-3.072-.096-5.568-.191-7.776h5.185l.287 3.601h.097c1.728-2.641 4.464-4.129 8.017-4.129 5.376 0 9.841 4.608 9.841 11.905 0 8.448-5.328 12.529-10.657 12.529-2.928 0-5.376-1.248-6.576-3.12h-.096v12.097h-5.905v-25.107zm5.905 5.808c0 .576.048 1.104.191 1.632.576 2.4 2.688 4.129 5.185 4.129 3.744 0 5.952-3.12 5.952-7.729 0-4.129-2.016-7.489-5.809-7.489-2.447 0-4.704 1.776-5.28 4.369a5.344 5.344 0 0 0-.239 1.487v3.601zM221.097 247.547c.144 4.225 3.456 6.049 7.2 6.049 2.736 0 4.705-.384 6.48-1.056l.864 4.08c-2.016.816-4.8 1.44-8.16 1.44-7.585 0-12.05-4.657-12.05-11.81 0-6.48 3.937-12.577 11.426-12.577 7.584 0 10.08 6.24 10.08 11.377 0 1.104-.096 1.969-.191 2.496h-15.649zm10.272-4.128c.049-2.16-.912-5.713-4.848-5.713-3.648 0-5.185 3.313-5.425 5.713h10.273z"/></g><path fill="#FFF" d="M135.5 145.319s14.285 1.93 25.096-16.602c0 0 13.127-17.76 24.709-18.146 0 0 20.362-2.905 26.779 5.316 0 0 13.583 17.779 18.937 22.482 0 0 1.979 2.63 7.88 4.791 0 0 6.6-1.494 12.934-4.661 0 0 13.833-5.5 11.46 6.262 0 0-1.294 6.404-9.044 7.238 0 0-8.75-.5-10.75-1s-6.391-1.958-6.391-1.958-5.86 8.825-1.228 12.687c0 0 8.618-1.469 10.442 2.219 0 0 1.426 5.059-5.424 4.586 0 0-8.88-.025-12.74-6.203 0 0-3-4.803-12.652-1.328l.614 8.576s6.128-1.578 7.177 3.93c0 0-1.549 4.492-7.405 3.242 0 0-4.948-.359-5.671-3.93s-1.366-11.127-1.366-11.127l-23.166-1.703-3.544 8.88s4.633 0 5.791 2.702c0 0 2 6.178-6.88 4.634 0 0-7.558-1.206-6.563-7.723l4.158-8.722-12.722-2.158-8.177 8.95s6.702 4.634 2.842 6.563c0 0-10.096 1.133-9.267-7.038 0 0 2.421-5.329 7.336-8.405l1.931-2.703-2.316-4.247c-.001.001-20.077-.771-22.78-5.404z"/><path fill="#C1272D" d="M62 73v131l65.5-62.5z"/><path fill="#CE8E95" d="M94 97h4v85h-4zM76 86h2v119h-2zM71 80h1v119h-1zM73 82h1v119h-1z"/></g></switch></svg>