<svg xmlns="http://www.w3.org/2000/svg" xmlns:xlink="http://www.w3.org/1999/xlink" width="300" height="300" viewBox="0 0 300 300"><switch><g><symbol id="a" viewBox="-150 -150 300 300.015"><path fill="#AEBCC4" d="M150-97.015c0-6.763 0-52.985-71.5-52.985H-84c-62.5 0-66 47.223-66 53.985v186c0 54.5 59.235 60 66 60l161.5.029c6.765 0 72.5-.029 72.5-60.029v-187z"/></symbol><use xlink:href="#a" width="300" height="300.015" x="-150" y="-150" transform="matrix(1 0 0 -1 150 150)" overflow="visible"/><g fill="#080828"><path d="M51.653 239.58l-.384-2.592h-.144c-1.44 1.824-3.889 3.12-6.913 3.12-4.705 0-7.345-3.408-7.345-6.961 0-5.904 5.232-8.881 13.873-8.833v-.384c0-1.536-.624-4.08-4.752-4.08-2.304 0-4.704.72-6.289 1.728l-1.152-3.84c1.728-1.057 4.752-2.064 8.449-2.064 7.489 0 9.649 4.753 9.649 9.841v8.449c0 2.112.096 4.176.336 5.616h-5.328zm-.768-11.425c-4.176-.097-8.161.815-8.161 4.368 0 2.305 1.488 3.36 3.36 3.36 2.352 0 4.081-1.536 4.608-3.216a4.25 4.25 0 0 0 .192-1.297v-3.215zM62.884 223.163c0-2.688-.048-4.945-.192-6.961h5.089l.24 3.456h.144c1.152-1.824 3.264-3.984 7.201-3.984 3.072 0 5.472 1.729 6.48 4.32h.096c.816-1.296 1.776-2.256 2.88-2.928 1.296-.912 2.785-1.393 4.705-1.393 3.888 0 7.825 2.641 7.825 10.129v13.777H91.59v-12.913c0-3.889-1.344-6.192-4.176-6.192-2.016 0-3.504 1.439-4.128 3.12-.144.576-.288 1.296-.288 1.968v14.018h-5.761v-13.537c0-3.265-1.296-5.568-4.032-5.568-2.208 0-3.696 1.728-4.225 3.36-.24.576-.336 1.248-.336 1.92v13.825h-5.76v-16.417zM103.395 239.58c.096-1.584.192-4.177.192-6.576v-27.507h5.904v13.921h.096c1.44-2.256 3.984-3.744 7.488-3.744 5.713 0 9.793 4.753 9.745 11.857 0 8.4-5.329 12.577-10.609 12.577-3.024 0-5.712-1.152-7.393-4.032h-.096l-.288 3.504h-5.039zm6.097-9.648c0 .479.048.96.144 1.392.624 2.353 2.688 4.129 5.232 4.129 3.696 0 5.953-2.977 5.953-7.681 0-4.129-1.968-7.489-5.905-7.489-2.4 0-4.56 1.729-5.232 4.32-.096.433-.192.96-.192 1.536v3.793zM137.956 209.674c0 1.775-1.296 3.168-3.36 3.168-1.968 0-3.265-1.393-3.265-3.168 0-1.824 1.344-3.217 3.313-3.217 2.015 0 3.263 1.393 3.312 3.217zm-6.289 29.906v-23.378h5.952v23.378h-5.952zM165.316 216.202c-.096 1.584-.192 3.504-.192 6.721v13.249c0 4.896-1.008 8.4-3.456 10.608-2.448 2.16-5.809 2.833-9.024 2.833-2.977 0-6.145-.624-8.161-1.872l1.296-4.465c1.488.864 3.984 1.776 6.816 1.776 3.841 0 6.721-2.017 6.721-7.057v-2.017h-.096c-1.344 2.064-3.744 3.457-6.816 3.457-5.809 0-9.937-4.801-9.937-11.426 0-7.681 4.992-12.337 10.609-12.337 3.553 0 5.664 1.729 6.769 3.648h.096l.24-3.12h5.135zm-6.096 9.361c0-.527-.048-1.104-.192-1.584-.624-2.16-2.304-3.792-4.8-3.792-3.313 0-5.761 2.88-5.761 7.633 0 3.984 2.016 7.2 5.713 7.2 2.208 0 4.128-1.44 4.8-3.552.145-.624.24-1.44.24-2.112v-3.793zM192.388 232.571a137 137 0 0 0 .192 7.009h-5.185l-.288-3.553h-.096c-1.008 1.681-3.313 4.081-7.488 4.081-4.272 0-8.161-2.545-8.161-10.177v-13.729h5.904v12.721c0 3.889 1.248 6.385 4.368 6.385 2.353 0 3.889-1.68 4.513-3.168a5.366 5.366 0 0 0 .336-1.824v-14.113h5.904v16.368zM220.996 227.675c0 8.593-6.049 12.434-12.001 12.434-6.625 0-11.714-4.561-11.714-12.05 0-7.68 5.041-12.385 12.098-12.385 6.961 0 11.617 4.896 11.617 12.001zm-17.618.24c0 4.513 2.208 7.921 5.809 7.921 3.36 0 5.713-3.313 5.713-8.017 0-3.648-1.632-7.825-5.665-7.825-4.176 0-5.857 4.032-5.857 7.921zM246.771 232.571a137 137 0 0 0 .192 7.009h-5.185l-.288-3.553h-.096c-1.008 1.681-3.313 4.081-7.488 4.081-4.272 0-8.161-2.545-8.161-10.177v-13.729h5.904v12.721c0 3.889 1.248 6.385 4.368 6.385 2.353 0 3.889-1.68 4.513-3.168a5.366 5.366 0 0 0 .336-1.824v-14.113h5.904v16.368zM252.865 234.155c1.345.816 3.889 1.681 6.001 1.681 2.592 0 3.744-1.057 3.744-2.593 0-1.584-.96-2.399-3.84-3.408-4.561-1.584-6.481-4.08-6.433-6.816 0-4.128 3.408-7.345 8.832-7.345 2.593 0 4.849.672 6.193 1.393l-1.152 4.176c-1.008-.576-2.881-1.344-4.944-1.344-2.112 0-3.265 1.008-3.265 2.448 0 1.488 1.104 2.208 4.08 3.265 4.225 1.536 6.193 3.696 6.241 7.152 0 4.225-3.313 7.297-9.505 7.297-2.832 0-5.377-.673-7.104-1.633l1.152-4.273zM96.363 282.155c1.344.816 3.888 1.681 6 1.681 2.592 0 3.744-1.057 3.744-2.593 0-1.584-.96-2.399-3.84-3.408-4.56-1.584-6.48-4.08-6.433-6.816 0-4.128 3.409-7.345 8.833-7.345 2.592 0 4.848.672 6.192 1.393l-1.152 4.176c-1.008-.576-2.88-1.344-4.945-1.344-2.112 0-3.264 1.008-3.264 2.448 0 1.488 1.104 2.208 4.081 3.265 4.224 1.536 6.192 3.696 6.24 7.152 0 4.225-3.312 7.297-9.504 7.297-2.833 0-5.377-.673-7.105-1.633l1.153-4.273zM116.667 271.979c0-3.072-.096-5.568-.192-7.776h5.185l.288 3.601h.096c1.728-2.641 4.464-4.129 8.017-4.129 5.376 0 9.841 4.608 9.841 11.905 0 8.448-5.329 12.529-10.657 12.529-2.928 0-5.376-1.248-6.576-3.12h-.096v12.097h-5.904v-25.107zm5.904 5.808c0 .576.048 1.104.192 1.632.576 2.4 2.688 4.129 5.185 4.129 3.744 0 5.953-3.12 5.953-7.729 0-4.129-2.016-7.489-5.809-7.489-2.448 0-4.705 1.776-5.28 4.369a5.346 5.346 0 0 0-.24 1.487v3.601zM157.899 287.58l-.385-2.592h-.144c-1.44 1.824-3.889 3.12-6.913 3.12-4.705 0-7.345-3.408-7.345-6.961 0-5.904 5.232-8.881 13.874-8.833v-.384c0-1.536-.624-4.08-4.753-4.08-2.304 0-4.704.72-6.289 1.728l-1.152-3.84c1.728-1.057 4.752-2.064 8.448-2.064 7.489 0 9.649 4.753 9.649 9.841v8.449c0 2.112.096 4.176.336 5.616h-5.326zm-.768-11.425c-4.176-.097-8.161.815-8.161 4.368 0 2.305 1.488 3.36 3.36 3.36 2.353 0 4.081-1.536 4.609-3.216.144-.433.191-.912.191-1.297v-3.215zM186.314 286.86c-1.248.576-3.696 1.2-6.624 1.2-7.297 0-12.05-4.657-12.05-11.905 0-7.009 4.801-12.481 13.01-12.481 2.16 0 4.368.48 5.712 1.104l-1.056 4.416c-.96-.432-2.353-.912-4.465-.912-4.512 0-7.2 3.313-7.152 7.585 0 4.801 3.12 7.536 7.152 7.536 2.064 0 3.505-.432 4.657-.912l.816 4.369zM194.426 277.547c.144 4.225 3.456 6.049 7.2 6.049 2.736 0 4.705-.384 6.48-1.056l.864 4.08c-2.016.816-4.8 1.44-8.16 1.44-7.585 0-12.05-4.657-12.05-11.81 0-6.48 3.937-12.577 11.426-12.577 7.584 0 10.08 6.24 10.08 11.377 0 1.104-.096 1.969-.191 2.496h-15.649zm10.272-4.128c.048-2.16-.912-5.713-4.848-5.713-3.648 0-5.185 3.313-5.425 5.713h10.273z"/></g><g fill-rule="evenodd" clip-rule="evenodd"><path fill="#080828" d="M236.929 16.716v3.842c-1.982 2.678-4.593 3.521-7.95 3.799-15.425 1.28-28.875 6.354-37.813 20.146-4.705 7.261-8.339 14.755-8.85 23.521-.366 6.265-.775 12.527-1.162 18.79-.432 7-2.39 13.201-7.593 18.411-4.241 4.249-7.871 9.146-11.488 13.968-2.508 3.341-1.415 6.185 2.532 7.654 1.587.59 3.268.933 4.838 1.56 4.338 1.733 5.425 4.139 3.644 8.469-1.179 2.861-1.381 5.333 1.102 7.389-.21 1.605-.341 3.855.572 4.42 3.085 1.911 3.111 4.349 2.065 7.164-1.186 3.186-2.677 6.262-3.83 9.461-2.442 6.777-.787 10.66 6.127 12.834 8.287 2.607 16.774 4.574 25.137 6.957 7.896 2.252 15.852 4.498 20.499 12.234H69.121c1.717-1.863 3.253-3.947 5.187-5.547 5.682-4.699 12.843-5.902 19.658-7.857 7.232-2.08 14.589-3.771 21.716-6.154 5.868-1.959 7.338-5.635 5.465-11.572-.479-1.518-1.186-2.961-1.77-4.449-.894-2.277-2.142-4.502-2.528-6.867-.272-1.658.07-4.46 1.131-5.097 2.909-1.746 2.954-3.491 1.136-5.936 3.102-1.712 2.779-4.076 1.763-6.717-1.815-4.717-.99-6.672 3.625-8.746 1.248-.562 2.606-.877 3.914-1.309 5.038-1.664 6.101-4.241 2.923-8.438-4.031-5.326-8.631-10.222-12.643-15.563-2.061-2.745-4.268-5.892-4.84-9.135-1.162-6.573-1.765-13.342-1.675-20.019.153-11.379-3.899-21.061-10.042-30.306-5.041-7.585-11.826-12.862-20.253-15.627-5.9-1.937-12.197-2.803-18.382-3.685-4.332-.617-7.518-3.672-6.727-7.595h180.15z"/><path fill="#FFF" d="M236.929 16.716H56.779c-.791 3.922 2.396 6.978 6.727 7.595 6.186.882 12.482 1.748 18.382 3.685 8.428 2.766 15.212 8.042 20.253 15.626 6.144 9.245 10.196 18.927 10.042 30.306-.089 6.676.514 13.445 1.675 20.019.573 3.243 2.78 6.391 4.84 9.135 4.011 5.341 8.612 10.237 12.643 15.563 3.178 4.197 2.115 6.775-2.923 8.438-1.307.431-2.666.747-3.914 1.309-4.616 2.074-5.441 4.029-3.625 8.746 1.017 2.641 1.339 5.005-1.763 6.717 1.817 2.445 1.772 4.189-1.136 5.936-1.061.637-1.403 3.439-1.131 5.097.387 2.365 1.635 4.59 2.528 6.867.583 1.488 1.29 2.932 1.77 4.449 1.873 5.938.403 9.613-5.465 11.572-7.127 2.383-14.484 4.074-21.716 6.154-6.815 1.955-13.976 3.158-19.658 7.857-1.934 1.6-3.47 3.684-5.187 5.547H55.679c-.002-60.365-.002-120.729-.002-181.259h4.948c57.81 0 115.618-.003 173.426.026.957.001 1.919.401 2.878.615z"/><path fill="#FFF" d="M224.759 197.334c-4.647-7.736-12.604-9.982-20.499-12.234-8.362-2.383-16.85-4.35-25.137-6.957-6.914-2.174-8.569-6.057-6.127-12.834 1.153-3.199 2.645-6.275 3.83-9.461 1.046-2.814 1.02-5.252-2.065-7.164-.913-.565-.782-2.815-.572-4.42-2.482-2.056-2.28-4.527-1.102-7.389 1.781-4.33.694-6.735-3.644-8.469-1.57-.626-3.251-.969-4.838-1.56-3.947-1.47-5.04-4.313-2.532-7.654 3.617-4.822 7.247-9.719 11.488-13.968 5.203-5.21 7.161-11.411 7.593-18.411.387-6.263.796-12.525 1.162-18.79.511-8.766 4.145-16.26 8.85-23.521 8.938-13.792 22.388-18.866 37.813-20.146 3.357-.279 5.968-1.122 7.95-3.799v176.776l-12.17.001z"/></g></g></switch></svg>