<?xml version="1.0" encoding="UTF-8" standalone="no"?>
<svg
   xmlns:dc="http://purl.org/dc/elements/1.1/"
   xmlns:cc="http://creativecommons.org/ns#"
   xmlns:rdf="http://www.w3.org/1999/02/22-rdf-syntax-ns#"
   xmlns:svg="http://www.w3.org/2000/svg"
   xmlns="http://www.w3.org/2000/svg"
   viewBox="0 0 375 375"
   height="375"
   width="375"
   xml:space="preserve"
   version="1.1"
   id="svg2"><metadata
     id="metadata8"><rdf:RDF><cc:Work
         rdf:about=""><dc:format>image/svg+xml</dc:format><dc:type
           rdf:resource="http://purl.org/dc/dcmitype/StillImage" /></cc:Work></rdf:RDF></metadata><defs
     id="defs6"><clipPath
       id="clipPath18"
       clipPathUnits="userSpaceOnUse"><path
         id="path20"
         d="m 0,0 0,2991 3000,0 L 3000,0 0,0 Z" /></clipPath></defs><g
     transform="matrix(1.25,0,0,-1.25,0,375)"
     id="g10"><g
       transform="scale(0.1,0.1)"
       id="g12"><g
         id="g14"><g
           clip-path="url(#clipPath18)"
           id="g16"><path
             id="path22"
             style="fill:#aebcc4;fill-opacity:1;fill-rule:nonzero;stroke:none"
             d="m 3000,519.855 c 0,-67.632 0,-529.85109 -715,-529.85109 l -1625,0 C 35,-9.99609 0,462.223 0,529.855 L 0,2389.86 c 0,545 592.352,600 660,600 l 1615,0.28 c 67.65,0 725,-0.28 725,-600.28" /></g></g><path
         id="path24"
         style="fill:#080828;fill-opacity:1;fill-rule:nonzero;stroke:none"
         d="m 705.719,702.984 c -70.531,0 -120.922,-47.031 -120.922,-123.812 0,-74.859 50.859,-120.453 117.094,-120.453 59.5,0 119.968,38.39 119.968,124.297 0,71.015 -46.546,119.968 -116.14,119.968 z m -1.438,-43.203 c 40.313,0 56.625,-41.734 56.625,-78.218 0,-47.016 -23.515,-80.125 -57.109,-80.125 -35.984,0 -58.063,34.062 -58.063,79.171 0,38.875 16.797,79.172 58.547,79.172" /><path
         id="path26"
         style="fill:#080828;fill-opacity:1;fill-rule:nonzero;stroke:none"
         d="m 870.672,464 59.5,0 0,137.25 c 0,6.719 0.484,13.906 2.406,19.188 6.235,17.75 22.547,34.546 46.063,34.546 32.159,0 44.629,-25.421 44.629,-59.015 l 0,-131.969 59.03,0 0,138.688 c 0,73.89 -42.24,100.296 -83.019,100.296 -38.875,0 -64.312,-22.078 -74.39,-40.312 l -1.438,0 -2.875,35.031 -51.828,0 c 1.438,-20.156 1.922,-42.719 1.922,-69.594 l 0,-164.109" /><path
         id="path28"
         style="fill:#080828;fill-opacity:1;fill-rule:nonzero;stroke:none"
         d="m 1130.28,475.516 c 17.27,-9.594 42.7,-16.313 71.02,-16.313 61.9,0 95.01,30.703 95.01,72.938 -0.48,34.547 -20.15,56.14 -62.39,71.5 -29.75,10.562 -40.78,17.765 -40.78,32.64 0,14.391 11.52,24.469 32.63,24.469 20.64,0 39.36,-7.672 49.43,-13.437 l 11.52,41.75 c -13.44,7.203 -36,13.921 -61.91,13.921 -54.23,0 -88.29,-32.156 -88.29,-73.421 -0.49,-27.36 18.71,-52.313 64.29,-68.141 28.8,-10.078 38.39,-18.25 38.39,-34.078 0,-15.36 -11.51,-25.906 -37.42,-25.906 -21.12,0 -46.55,8.625 -59.98,16.781 l -11.52,-42.703" /><path
         id="path30"
         style="fill:#080828;fill-opacity:1;fill-rule:nonzero;stroke:none"
         d="m 1508.31,514.859 c -11.51,-4.796 -25.92,-9.109 -46.54,-9.109 -40.32,0 -71.5,27.359 -71.5,75.344 -0.49,42.703 26.39,75.812 71.5,75.812 21.11,0 35.03,-4.797 44.62,-9.109 l 10.56,44.141 c -13.43,6.234 -35.51,11.046 -57.11,11.046 -82.06,0 -130.04,-54.718 -130.04,-124.781 0,-72.453 47.5,-119 120.45,-119 29.27,0 53.73,6.235 66.22,12 l -8.16,43.656" /><path
         id="path32"
         style="fill:#080828;fill-opacity:1;fill-rule:nonzero;stroke:none"
         d="m 1560.67,464 59.03,0 0,120.922 c 0,6.719 0.96,12.969 1.91,18.234 5.28,26.407 24.48,44.641 52.8,44.641 7.18,0 12.47,-0.969 17.26,-1.922 l 0,55.656 c -4.79,0.969 -8.15,1.453 -13.9,1.453 -24.96,0 -52.32,-16.796 -63.83,-49.906 l -1.92,0 -1.93,44.625 -51.34,0 c 1.44,-21.125 1.92,-43.672 1.92,-75.344 l 0,-158.359" /><path
         id="path34"
         style="fill:#080828;fill-opacity:1;fill-rule:nonzero;stroke:none"
         d="m 1924.86,564.297 c 0.95,5.281 1.92,13.906 1.92,24.953 0,51.344 -24.95,113.734 -100.78,113.734 -74.86,0 -114.2,-60.953 -114.2,-125.734 0,-71.5 44.62,-118.047 120.45,-118.047 33.58,0 61.42,6.235 81.58,14.391 l -8.64,40.797 c -17.75,-6.719 -37.44,-10.563 -64.78,-10.563 -37.44,0 -70.55,18.235 -71.99,60.469 l 156.44,0 z m -156.44,41.266 c 2.39,24 17.75,57.109 54.22,57.109 39.36,0 48.95,-35.516 48.47,-57.109 l -102.69,0" /><path
         id="path36"
         style="fill:#080828;fill-opacity:1;fill-rule:nonzero;stroke:none"
         d="m 2172.86,564.297 c 0.95,5.281 1.92,13.906 1.92,24.953 0,51.344 -24.95,113.734 -100.78,113.734 -74.86,0 -114.2,-60.953 -114.2,-125.734 0,-71.5 44.62,-118.047 120.45,-118.047 33.58,0 61.42,6.235 81.58,14.391 l -8.64,40.797 c -17.75,-6.719 -37.44,-10.563 -64.78,-10.563 -37.44,0 -70.55,18.235 -71.99,60.469 l 156.44,0 z m -156.44,41.266 c 2.39,24 17.75,57.109 54.22,57.109 39.36,0 48.95,-35.516 48.47,-57.109 l -102.69,0" /><path
         id="path38"
         style="fill:#080828;fill-opacity:1;fill-rule:nonzero;stroke:none"
         d="m 2222.67,464 59.5,0 0,137.25 c 0,6.719 0.49,13.906 2.41,19.188 6.23,17.75 22.55,34.546 46.06,34.546 32.16,0 44.63,-25.421 44.63,-59.015 l 0,-131.969 59.03,0 0,138.688 c 0,73.89 -42.24,100.296 -83.02,100.296 -38.87,0 -64.31,-22.078 -74.39,-40.312 l -1.44,0 -2.87,35.031 -51.83,0 c 1.44,-20.156 1.92,-42.719 1.92,-69.594 l 0,-164.109" /><path
         id="path40"
         style="fill:#000000;fill-opacity:1;fill-rule:nonzero;stroke:none"
         d="m 2640.03,1200.63 c 0,-79.5 -588.25,-103.97 -1153.51,-103.97 -565.25,0 -1127.704,25.1 -1127.704,104.62 0,79.51 562.454,143.32 1127.704,143.32 565.26,0 1153.51,-64.46 1153.51,-143.97" /><path
         id="path42"
         style="fill:#000000;fill-opacity:1;fill-rule:nonzero;stroke:none"
         d="M 2700,1316.72 C 2700,1228.19 2643.33,1160 2567.28,1160 l -2134.839,0 C 356.371,1160 290,1228.19 290,1316.72 l 0,1255.66 c 0,88.53 66.371,157.62 142.441,157.62 l 2134.839,0 c 76.05,0 132.72,-69.09 132.72,-157.62" /><path
         id="path44"
         style="fill:#c1272d;fill-opacity:1;fill-rule:nonzero;stroke:none"
         d="m 1559.15,1224.84 c 0,-29.57 -23.98,-53.57 -53.55,-53.57 -29.6,0 -53.57,24 -53.57,53.57 0,29.59 23.97,53.57 53.57,53.57 29.57,0 53.55,-23.98 53.55,-53.57" /><path
         id="path46"
         style="fill:#ffffff;fill-opacity:1;fill-rule:nonzero;stroke:none"
         d="m 1700.71,1232.5 c 0,-23.24 -18.85,-42.09 -42.08,-42.09 -23.25,0 -42.1,18.85 -42.1,42.09 0,23.25 18.85,42.1 42.1,42.1 23.23,0 42.08,-18.85 42.08,-42.1" /><path
         id="path48"
         style="fill:#ffffff;fill-opacity:1;fill-rule:nonzero;stroke:none"
         d="m 1838.44,1232.5 c 0,-23.24 -18.83,-42.09 -42.08,-42.09 -23.24,0 -42.09,18.85 -42.09,42.09 0,23.25 18.85,42.1 42.09,42.1 23.25,0 42.08,-18.85 42.08,-42.1" /><path
         id="path50"
         style="fill:#ffffff;fill-opacity:1;fill-rule:nonzero;stroke:none"
         d="M 2600,1448.47 C 2600,1373.7 2538.48,1310 2468.62,1310 l -1959.768,0 C 439.031,1310 380,1373.7 380,1448.47 l 0,1060.51 c 0,74.77 59.031,131.02 128.852,131.02 l 1959.768,0 c 69.86,0 131.38,-56.25 131.38,-131.02" /><path
         id="path52"
         style="fill:#c1272d;fill-opacity:1;fill-rule:nonzero;stroke:none"
         d="m 1533.33,1953.34 c 0,-103.09 -83.57,-186.66 -186.67,-186.66 -103.09,0 -186.66,83.57 -186.66,186.66 0,103.09 83.57,186.66 186.66,186.66 103.1,0 186.67,-83.57 186.67,-186.66" /></g></g></svg>