<svg xmlns="http://www.w3.org/2000/svg" xmlns:xlink="http://www.w3.org/1999/xlink" width="300" height="300" viewBox="0 0 300 300"><switch><g><symbol id="a" viewBox="-150 -150 300 300.015"><path fill="#AEBCC4" d="M150-97.015c0-6.763 0-52.985-71.5-52.985H-84c-62.5 0-66 47.223-66 53.985v186c0 54.5 59.235 60 66 60l161.5.029c6.765 0 72.5-.029 72.5-60.029v-187z"/></symbol><use xlink:href="#a" width="300" height="300.015" x="-150" y="-150" transform="matrix(1 0 0 -1 150 150)" overflow="visible"/><g fill="#080828"><path d="M59.316 201.226v18.865c0 6.337 2.64 9.265 6.625 9.265 4.272 0 6.817-2.928 6.817-9.265v-18.865h5.904v18.481c0 9.984-5.136 14.401-12.913 14.401-7.489 0-12.337-4.177-12.337-14.354v-18.529h5.904zm-.672-4.945c0-1.633 1.248-2.881 2.88-2.881 1.584 0 2.784 1.248 2.784 2.881 0 1.584-1.152 2.928-2.784 2.928-1.68 0-2.88-1.344-2.88-2.928zm9.505 0c0-1.633 1.248-2.881 2.88-2.881 1.584 0 2.784 1.248 2.784 2.881 0 1.584-1.152 2.928-2.833 2.928s-2.831-1.344-2.831-2.928zM84.995 233.58c.096-1.584.192-4.177.192-6.576v-27.507h5.904v13.921h.096c1.44-2.256 3.984-3.744 7.488-3.744 5.713 0 9.793 4.753 9.745 11.857 0 8.4-5.329 12.577-10.609 12.577-3.024 0-5.712-1.152-7.393-4.032h-.096l-.288 3.504h-5.039zm6.096-9.648c0 .479.048.96.144 1.392.624 2.353 2.688 4.129 5.232 4.129 3.696 0 5.953-2.977 5.953-7.681 0-4.129-1.968-7.489-5.905-7.489-2.4 0-4.56 1.729-5.232 4.32-.096.433-.192.96-.192 1.536v3.793zM117.443 223.547c.144 4.225 3.456 6.049 7.201 6.049 2.736 0 4.704-.384 6.48-1.056l.864 4.08c-2.017.816-4.801 1.44-8.161 1.44-7.584 0-12.049-4.657-12.049-11.81 0-6.48 3.937-12.577 11.425-12.577 7.585 0 10.081 6.24 10.081 11.377 0 1.104-.096 1.969-.192 2.496h-15.649zm10.273-4.128c.048-2.16-.912-5.713-4.849-5.713-3.648 0-5.185 3.313-5.424 5.713h10.273zM138.034 217.738c0-3.168-.048-5.424-.192-7.536h5.137l.192 4.464h.192c1.152-3.312 3.889-4.992 6.385-4.992.576 0 .912.048 1.392.145v5.568a8.134 8.134 0 0 0-1.728-.192c-2.833 0-4.752 1.824-5.281 4.465-.096.527-.192 1.151-.192 1.824v12.097h-5.904v-15.843zM165.491 218.747v4.08H153.25v-4.08h12.241zM192.466 199.497v27.507c0 2.399.097 4.992.192 6.576h-5.28l-.24-3.696h-.096c-1.393 2.592-4.225 4.225-7.633 4.225-5.568 0-9.985-4.753-9.985-11.953-.048-7.825 4.849-12.481 10.466-12.481 3.216 0 5.521 1.345 6.576 3.072h.096v-13.249h5.904zm-5.904 20.45a8.31 8.31 0 0 0-.144-1.536c-.528-2.305-2.4-4.177-5.089-4.177-3.792 0-5.904 3.36-5.904 7.729 0 4.272 2.112 7.393 5.856 7.393 2.4 0 4.513-1.632 5.089-4.176.144-.528.191-1.104.191-1.729v-3.504zM205.09 203.674c0 1.775-1.296 3.168-3.36 3.168-1.969 0-3.265-1.393-3.265-3.168 0-1.824 1.345-3.217 3.313-3.217 2.016 0 3.264 1.393 3.312 3.217zm-6.289 29.906v-23.378h5.953v23.378h-5.953zM215.265 223.547c.144 4.225 3.456 6.049 7.2 6.049 2.736 0 4.705-.384 6.48-1.056l.864 4.08c-2.016.816-4.8 1.44-8.16 1.44-7.585 0-12.05-4.657-12.05-11.81 0-6.48 3.937-12.577 11.426-12.577 7.584 0 10.08 6.24 10.08 11.377 0 1.104-.096 1.969-.191 2.496h-15.649zm10.272-4.128c.049-2.16-.912-5.713-4.848-5.713-3.648 0-5.185 3.313-5.425 5.713h10.273zM247.762 218.747v4.08h-12.241v-4.08h12.241zM66.755 275.147c1.92 1.104 4.801 2.064 7.825 2.064 3.792 0 5.905-1.776 5.905-4.417 0-2.448-1.632-3.888-5.761-5.376-5.329-1.92-8.737-4.753-8.737-9.409 0-5.28 4.417-9.313 11.425-9.313 3.504 0 6.096.768 7.776 1.632l-1.44 4.753c-1.152-.624-3.408-1.536-6.433-1.536-3.744 0-5.376 2.016-5.376 3.888 0 2.497 1.872 3.648 6.192 5.329 5.617 2.112 8.353 4.944 8.353 9.601 0 5.185-3.937 9.697-12.289 9.697-3.409 0-6.961-.961-8.737-2.017l1.297-4.896zM109.044 280.86c-1.248.576-3.696 1.2-6.625 1.2-7.296 0-12.049-4.657-12.049-11.905 0-7.009 4.8-12.481 13.009-12.481 2.16 0 4.368.48 5.712 1.104l-1.056 4.416c-.96-.432-2.352-.912-4.464-.912-4.512 0-7.201 3.313-7.153 7.585 0 4.801 3.121 7.536 7.153 7.536 2.064 0 3.504-.432 4.656-.912l.817 4.369zM113.411 247.497h5.952v13.921h.096a7.922 7.922 0 0 1 2.928-2.688c1.152-.673 2.544-1.057 4.032-1.057 3.984 0 8.161 2.641 8.161 10.129v13.777h-5.904v-13.105c0-3.408-1.248-5.952-4.512-5.952-2.304 0-3.937 1.536-4.561 3.313-.192.479-.24 1.104-.24 1.776v13.969h-5.952v-34.083zM161.795 274.571a137 137 0 0 0 .192 7.009h-5.185l-.288-3.553h-.096c-1.009 1.681-3.313 4.081-7.489 4.081-4.272 0-8.161-2.545-8.161-10.177v-13.729h5.904v12.721c0 3.889 1.249 6.385 4.369 6.385 2.352 0 3.888-1.68 4.512-3.168a5.366 5.366 0 0 0 .336-1.824v-14.113h5.904v16.368zM168.177 247.497h5.953v34.083h-5.953v-34.083zM187.281 251.529v6.673h5.617v4.416h-5.617v10.321c0 2.832.769 4.32 3.024 4.32a8.78 8.78 0 0 0 2.305-.288l.096 4.513c-.864.336-2.4.576-4.272.576-2.16 0-3.984-.721-5.088-1.921-1.249-1.344-1.824-3.456-1.824-6.528v-10.993h-3.36v-4.416h3.36v-5.28l5.759-1.393zM201.249 271.547c.144 4.225 3.456 6.049 7.2 6.049 2.736 0 4.705-.384 6.48-1.056l.864 4.08c-2.016.816-4.8 1.44-8.16 1.44-7.585 0-12.05-4.657-12.05-11.81 0-6.48 3.937-12.577 11.426-12.577 7.584 0 10.08 6.24 10.08 11.377 0 1.104-.096 1.969-.191 2.496h-15.649zm10.272-4.128c.049-2.16-.912-5.713-4.848-5.713-3.648 0-5.185 3.313-5.425 5.713h10.273zM221.84 265.738c0-3.168-.048-5.424-.191-7.536h5.136l.192 4.464h.192c1.151-3.312 3.888-4.992 6.384-4.992.576 0 .912.048 1.393.145v5.568a8.145 8.145 0 0 0-1.729-.192c-2.832 0-4.752 1.824-5.28 4.465a10.12 10.12 0 0 0-.191 1.824v12.097h-5.905v-15.843z"/></g><path fill="#FFF" d="M268.586 187.065s2.675-41.256-16.312-57.606c0 0-9.41-6.287-10.549-6.856-9.494-4.747-16.877-4.219-18.987-8.966 0 0-3.692-.879-3.692-10.9 0 0 14.769-13.713 3.165-33.051 0 0-18.285-16.877-32.172.175-2.465 5.971-10.022 19.163 7.559 34.986 0 0 1.407 3.516-1.758 11.955 0 0-4.67 5.757-19.966 11.031-15.378 5.302-25.186 30.727-28.03 58.589l120.742.643z"/><path fill="#080828" d="M39.838 140.293l11.75-1.066c20.569-1.96 29.642-7.854 36.724-14.292 0 0 4.415-2.033 4.415-20.642 0 0-27.426-25.467-5.876-61.379 0 0 33.954-31.343 59.747.326 4.575 11.089 18.61 35.587-14.039 64.971 0 0-2.612 6.529 3.265 22.201 0 0 9.883 16.445 38.12 26.715 14.164 5.151 35.41 32.835 20.517 31.739-31.438-2.313-130.335-6.476-156.24-8.905-11.037-1.034-7.623-33.949 1.617-39.668z"/></g></switch></svg>