<svg xmlns="http://www.w3.org/2000/svg" xmlns:xlink="http://www.w3.org/1999/xlink" width="300" height="300" viewBox="0 0 300 300"><switch><g><symbol id="a" viewBox="-150 -150 300 300.015"><path fill="#AEBCC4" d="M150-97.015c0-6.763 0-52.985-71.5-52.985H-84c-62.5 0-66 47.223-66 53.985v186c0 54.5 59.235 60 66 60l161.5.029c6.765 0 72.5-.029 72.5-60.029v-187z"/></symbol><use xlink:href="#a" width="300" height="300.015" x="-150" y="-150" transform="matrix(1 0 0 -1 150 150)" overflow="visible"/><g fill="#080828"><path d="M57.937 227.529v6.673h5.616v4.416h-5.616v10.321c0 2.832.768 4.32 3.024 4.32a8.765 8.765 0 0 0 2.304-.288l.096 4.513c-.864.336-2.4.576-4.272.576-2.16 0-3.984-.721-5.088-1.921-1.248-1.344-1.824-3.456-1.824-6.528v-10.993h-3.36v-4.416h3.36v-5.28l5.76-1.393zM68.016 223.497h5.952v13.921h.096a7.922 7.922 0 0 1 2.928-2.688c1.152-.673 2.544-1.057 4.032-1.057 3.984 0 8.161 2.641 8.161 10.129v13.777h-5.904v-13.105c0-3.408-1.248-5.952-4.512-5.952-2.304 0-3.937 1.536-4.561 3.313-.192.479-.24 1.104-.24 1.776v13.969h-5.952v-34.083zM95.472 241.738c0-3.168-.048-5.424-.192-7.536h5.137l.192 4.464h.192c1.152-3.312 3.889-4.992 6.385-4.992.576 0 .912.048 1.392.145v5.568a8.142 8.142 0 0 0-1.728-.192c-2.833 0-4.752 1.824-5.281 4.465-.096.527-.192 1.151-.192 1.824v12.097h-5.904v-15.843zM116.304 247.547c.144 4.225 3.456 6.049 7.201 6.049 2.736 0 4.704-.384 6.48-1.056l.864 4.08c-2.016.816-4.8 1.44-8.161 1.44-7.584 0-12.049-4.657-12.049-11.81 0-6.48 3.937-12.577 11.425-12.577 7.585 0 10.081 6.24 10.081 11.377 0 1.104-.096 1.969-.192 2.496h-15.649zm10.273-4.128c.048-2.16-.912-5.713-4.849-5.713-3.648 0-5.185 3.313-5.424 5.713h10.273zM141.071 247.547c.144 4.225 3.456 6.049 7.201 6.049 2.736 0 4.705-.384 6.48-1.056l.864 4.08c-2.017.816-4.8 1.44-8.161 1.44-7.584 0-12.049-4.657-12.049-11.81 0-6.48 3.937-12.577 11.425-12.577 7.584 0 10.081 6.24 10.081 11.377 0 1.104-.096 1.969-.191 2.496h-15.65zm10.273-4.128c.049-2.16-.912-5.713-4.848-5.713-3.648 0-5.185 3.313-5.424 5.713h10.272zM171.311 252.155c1.344.816 3.888 1.681 6 1.681 2.592 0 3.744-1.057 3.744-2.593 0-1.584-.96-2.399-3.84-3.408-4.561-1.584-6.48-4.08-6.434-6.816 0-4.128 3.409-7.345 8.833-7.345 2.593 0 4.849.672 6.193 1.393l-1.152 4.176c-1.008-.576-2.881-1.344-4.944-1.344-2.112 0-3.265 1.008-3.265 2.448 0 1.488 1.104 2.208 4.08 3.265 4.225 1.536 6.193 3.696 6.241 7.152 0 4.225-3.313 7.297-9.505 7.297-2.833 0-5.377-.673-7.104-1.633l1.153-4.273zM191.613 223.497h5.953v13.921h.096a7.918 7.918 0 0 1 2.929-2.688c1.151-.673 2.544-1.057 4.032-1.057 3.984 0 8.16 2.641 8.16 10.129v13.777h-5.904v-13.105c0-3.408-1.248-5.952-4.513-5.952-2.304 0-3.937 1.536-4.561 3.313-.191.479-.239 1.104-.239 1.776v13.969h-5.953v-34.083zM241.295 245.675c0 8.593-6.049 12.434-12.001 12.434-6.625 0-11.714-4.561-11.714-12.05 0-7.68 5.041-12.385 12.098-12.385 6.961 0 11.617 4.896 11.617 12.001zm-17.618.24c0 4.513 2.208 7.921 5.809 7.921 3.36 0 5.713-3.313 5.713-8.017 0-3.648-1.632-7.825-5.665-7.825-4.177 0-5.857 4.032-5.857 7.921zM252.909 227.529v6.673h5.617v4.416h-5.617v10.321c0 2.832.769 4.32 3.024 4.32a8.78 8.78 0 0 0 2.305-.288l.096 4.513c-.864.336-2.4.576-4.272.576-2.16 0-3.984-.721-5.088-1.921-1.249-1.344-1.824-3.456-1.824-6.528v-10.993h-3.36v-4.416h3.36v-5.28l5.759-1.393z"/></g><path fill="#080828" d="M23 187.454s2.73-48.059 25.667-62.258l8.192-4.369c11.469-1.092 16.93-3.277 19.114-8.192 0 0 3.823-.911 3.823-11.287 0 0-15.292-14.199-3.277-34.223 0 0 18.932-17.476 33.313.182 2.551 6.183 10.376 19.842-7.828 36.226 0 0-1.457 3.641 1.82 12.379 0 0 8.191 9.83 24.029 15.291 15.922 5.491 22.724 27.946 25.668 56.797L23 187.454z"/><path fill="#FFF" d="M221 188.667s2.77-42.718-16.891-59.648c0 0-9.743-6.51-10.923-7.1-9.83-4.915-17.476-4.369-19.66-9.284 0 0-3.823-.911-3.823-11.287 0 0 15.292-14.199 3.277-34.223 0 0-18.934-17.476-33.313.182-2.552 6.183-10.377 19.842 7.827 36.226 0 0 1.457 3.641-1.82 12.379 0 0-4.836 5.96-20.674 11.421-15.923 5.491-26.079 31.816-29.023 60.667l125.023.667z"/><path fill="#080828" d="M148 188.454s2.73-48.059 25.668-62.258l8.191-4.369c11.469-1.092 16.93-3.277 19.114-8.192 0 0 3.823-.911 3.823-11.287 0 0-15.291-14.199-3.277-34.223 0 0 18.933-17.476 33.314.182 2.551 6.183 10.375 19.842-7.828 36.226 0 0-1.457 3.641 1.82 12.379 0 0 8.191 9.83 24.029 15.291 15.922 5.491 22.724 27.946 25.668 56.797L148 188.454z"/></g></switch></svg>