<svg xmlns="http://www.w3.org/2000/svg" xmlns:xlink="http://www.w3.org/1999/xlink" width="300" height="300" viewBox="0 0 300 300"><switch><g><symbol id="a" viewBox="-150 -150 300 300.015"><path fill="#AEBCC4" d="M150-97.015c0-6.763 0-52.985-71.5-52.985H-84c-62.5 0-66 47.223-66 53.985v186c0 54.5 59.235 60 66 60l161.5.029c6.765 0 72.5-.029 72.5-60.029v-187z"/></symbol><use xlink:href="#a" width="300" height="300.015" x="-150" y="-150" transform="matrix(1 0 0 -1 150 150)" overflow="visible"/><g fill="#080828"><path d="M48.168 223.497h5.952v13.921h.096a7.922 7.922 0 0 1 2.928-2.688c1.152-.673 2.544-1.057 4.032-1.057 3.984 0 8.161 2.641 8.161 10.129v13.777h-5.904v-13.105c0-3.408-1.248-5.952-4.512-5.952-2.304 0-3.937 1.536-4.561 3.313-.192.479-.24 1.104-.24 1.776v13.969h-5.952v-34.083zM81.913 227.674c0 1.775-1.296 3.168-3.36 3.168-1.968 0-3.265-1.393-3.265-3.168 0-1.824 1.344-3.217 3.313-3.217 2.015 0 3.263 1.393 3.312 3.217zm-6.289 29.906v-23.378h5.952v23.378h-5.952zM109.273 234.202c-.096 1.584-.192 3.504-.192 6.721v13.249c0 4.896-1.008 8.4-3.456 10.608-2.448 2.16-5.809 2.833-9.025 2.833-2.976 0-6.145-.624-8.161-1.872l1.296-4.465c1.488.864 3.984 1.776 6.817 1.776 3.84 0 6.721-2.017 6.721-7.057v-2.017h-.096c-1.344 2.064-3.744 3.457-6.816 3.457-5.809 0-9.937-4.801-9.937-11.426 0-7.681 4.992-12.337 10.609-12.337 3.552 0 5.665 1.729 6.769 3.648h.096l.24-3.12h5.135zm-6.096 9.361c0-.527-.048-1.104-.192-1.584-.624-2.16-2.304-3.792-4.8-3.792-3.313 0-5.761 2.88-5.761 7.633 0 3.984 2.016 7.2 5.712 7.2 2.208 0 4.128-1.44 4.8-3.552.144-.624.24-1.44.24-2.112v-3.793zM115.416 223.497h5.952v13.921h.096a7.922 7.922 0 0 1 2.928-2.688c1.152-.673 2.544-1.057 4.032-1.057 3.984 0 8.161 2.641 8.161 10.129v13.777h-5.904v-13.105c0-3.408-1.248-5.952-4.512-5.952-2.304 0-3.937 1.536-4.561 3.313-.192.479-.24 1.104-.24 1.776v13.969h-5.952v-34.083zM165.959 257.58l-.384-2.592h-.144c-1.441 1.824-3.889 3.12-6.913 3.12-4.704 0-7.345-3.408-7.345-6.961 0-5.904 5.232-8.881 13.873-8.833v-.384c0-1.536-.624-4.08-4.752-4.08-2.305 0-4.705.72-6.289 1.728l-1.152-3.84c1.729-1.057 4.753-2.064 8.449-2.064 7.488 0 9.648 4.753 9.648 9.841v8.449c0 2.112.096 4.176.336 5.616h-5.327zm-.768-11.425c-4.177-.097-8.161.815-8.161 4.368 0 2.305 1.488 3.36 3.36 3.36 2.352 0 4.08-1.536 4.608-3.216a4.25 4.25 0 0 0 .192-1.297v-3.215zM177.189 241.163c0-2.688-.048-4.945-.191-6.961h5.185l.288 3.504h.144c1.008-1.824 3.553-4.032 7.44-4.032 4.08 0 8.305 2.641 8.305 10.033v13.873h-5.904v-13.201c0-3.36-1.248-5.904-4.465-5.904-2.352 0-3.984 1.68-4.608 3.456-.191.528-.239 1.248-.239 1.92v13.729h-5.953v-16.417zM226.007 234.202c-.096 1.584-.192 3.504-.192 6.721v13.249c0 4.896-1.008 8.4-3.456 10.608-2.448 2.16-5.809 2.833-9.024 2.833-2.977 0-6.145-.624-8.161-1.872l1.296-4.465c1.488.864 3.984 1.776 6.816 1.776 3.841 0 6.721-2.017 6.721-7.057v-2.017h-.096c-1.344 2.064-3.744 3.457-6.816 3.457-5.809 0-9.938-4.801-9.938-11.426 0-7.681 4.993-12.337 10.609-12.337 3.553 0 5.664 1.729 6.769 3.648h.096l.24-3.12h5.136zm-6.097 9.361c0-.527-.048-1.104-.192-1.584-.624-2.16-2.304-3.792-4.8-3.792-3.313 0-5.761 2.88-5.761 7.633 0 3.984 2.017 7.2 5.713 7.2 2.208 0 4.128-1.44 4.8-3.552.145-.624.24-1.44.24-2.112v-3.793zM232.148 223.497h5.953v34.083h-5.953v-34.083zM248.661 247.547c.144 4.225 3.456 6.049 7.2 6.049 2.736 0 4.705-.384 6.48-1.056l.864 4.08c-2.016.816-4.8 1.44-8.16 1.44-7.585 0-12.05-4.657-12.05-11.81 0-6.48 3.937-12.577 11.426-12.577 7.584 0 10.08 6.24 10.08 11.377 0 1.104-.096 1.969-.191 2.496h-15.649zm10.273-4.128c.049-2.16-.912-5.713-4.848-5.713-3.648 0-5.185 3.313-5.425 5.713h10.273z"/></g><path fill="#080828" d="M174.069 48.81l-11.188 16.18s-3.218-4.657-3.388-8.26l-2.308-1.584-7.542.96s-2.125.899-5.955-2.293l-19.38-13.287s-4.707-3.157-1.352-9.305l6.344-9.25s3.967-3.49 8.659-.936l19.087 13.085s3.82 2.571 4.15 4.805l1.823 7.778 2.338 1.604c.002-.001 2.916-1.494 8.712.503z"/><path fill="none" d="M39 19h230"/><path fill-rule="evenodd" clip-rule="evenodd" fill="#FFF" d="M192.057 205.647c-.073-2.417 2.33-3.685 4.512-4.103 4.063-.776 6.528-3.68 6.544-7.814.014-3.869.037-7.74-.008-11.609-.036-3.055-.187-3.158-3.226-3.156h-8.518c-.114-1.703-.289-3.397-.33-5.095-.159-6.405-.286-12.81-.401-19.216-.035-1.98 1.438-3.408 3.402-3.45.979-.021 1.955-.145 3.384-.257-.469-1.959-.8-3.782-1.398-5.511-.144-.416-1.179-.522-1.968-.835l-.589-2.659h-2.899c.153-2.693.199-5.314.472-7.912.504-4.808 1.134-9.603 1.727-14.401.726-5.884 1.381-11.779 2.271-17.638.193-1.272 1.112-2.53 1.96-3.582 1.021-1.266 2.094-2.357 1.748-4.204-.091-.485.46-1.07.643-1.633.311-.955.729-1.918.797-2.898.081-1.18-.482-1.847-1.901-1.785-2.379.104-2.448-.182-2.974-2.592-.261-1.194-1.08-2.259-1.562-3.417-.171-.411-.171-.938-.108-1.393.323-2.349 1.101-4.688 1.378-7.042.051-.43-.671-.954-.94-1.367-1.208-1.842-.756-3.243 1.346-3.731 2.832-.657 5.675-1.283 8.538-1.779 1.804-.313 3.212.714 4.312 1.985 3.41 3.942 4.433 8.341 2.068 13.18-.813 1.665-.712 3.031.59 4.33.739.737 1.402 1.56 2.189 2.239 6.052 5.211 7.481 11.925 6.388 19.469-.833 5.753-1.851 11.429-1.369 17.357.504 6.229.112 12.531.112 18.951l-2.996.212.47 6.56h2.189c2.773-.003 5.547-.005 8.32-.009 2.459-.004 3.859 1.366 3.896 3.745.11 7.146.242 14.292.363 21.438.012.664.002 1.33.002 2.109l-12.173.579c.116 1.267.335 2.468.316 3.666-.079 5.155-.187 10.311-.404 15.46-.028.654-.775 1.277-1.543 1.777.148.963.318 1.922.44 2.887.285 2.256-.345 3.258-2.56 3.416-2.322.166-4.671-.061-7.003.021-1.143.041-2.268.447-3.412.6-4.121.543-8.127-.19-12.095-.893z"/><path fill="none" stroke="#C1272D" stroke-width="3" stroke-miterlimit="10" stroke-dasharray="12,4" d="M63.996 75.502l122.508.496"/><path fill="#C1272D" d="M170.611 55.744l12.992 8.677 2.16-3.288c.068-.013.149.096.164.163l1.87 7.663a.12.12 0 0 1-.095.144l-7.775 1.325c-.067.013-.149-.095-.166-.162l1.99-3.028-12.993-8.676 1.853-2.818z"/></g></switch></svg>