<svg xmlns="http://www.w3.org/2000/svg" xmlns:xlink="http://www.w3.org/1999/xlink" width="300" height="300" viewBox="0 0 300 300"><switch><g><symbol id="a" viewBox="-150 -150 300 300.007"><path fill="#CE8E95" d="M150-97.021c0-6.764 0-52.979-71.5-52.979H-84c-62.5 0-66 47.215-66 53.979v186c0 54.5 59.235 60 66 60l161.5.029c6.765 0 72.5-.029 72.5-60.029v-187z"/></symbol><use xlink:href="#a" width="300" height="300.007" x="-150" y="-150" transform="matrix(1 0 0 -1 150 150)" overflow="visible"/><path fill="#FFF" d="M26 57h125v117H26z"/><path fill="#333" d="M151 57h125v117H151z"/><path d="M51.375 88.125s1.896-5.905 5.042-4.458c2.083.958 1.958 3.708.958 5.833 0 0 30.5 11.875 59.375 29.125 0 0 1.899 1.141 5.972 1.167 0 0 4.028-1.542 6.278.958 0 0 3.5 3.25-4 8.5 0 0-1.338 3.205-3.75 3.25 0 0-4.5.5-4.25-5.25 0 0 0-3-3.333-6.083 0 0-30.917-21.167-59-28.5 0 0-1.333 1.417-2.583 1.583-1.239.165-2.708-.292-2.708-2.625-.001 0-.001-1 1.999-3.5z"/><path fill="#FFF" d="M173.235 127.341l9.538-2.736 2.219.365 7.92-1.952 3.713-3.384 3.998-4.113-1.255-6.582-4.618 1.311-1.656-6.895 2.926-2.538L199 99.75l3.257.54 15.115-3.725 1.255 4.956-2.349 2.324L205 107l1.75 7.25 2.5.75 3.5 2 6.866-1.669 3.003-1.489 29.903-7.505 5.978-.837 1.5.75 2.75.5.638 3.574-1.628 2.08-26.471 7.27-2.952-.35-8.759 2.208-2.596 1.655-22.223 5.601-3.009-.288-9.497 2.511-1.175 1.556-9.371 2.403z"/><path fill="none" stroke="#FFF" stroke-width=".5" stroke-miterlimit="10" d="M180.25 114.25l15.5-5"/><path fill="none" stroke="#FFF" stroke-width=".447" stroke-miterlimit="10" d="M210.589 89.059l4.763 12.487"/><g><g fill="#26080D"><path d="M49.357 225.411l-2.784 9.169h-6.096l10.369-32.354h7.537l10.513 32.354h-6.337l-2.928-9.169H49.357zm9.265-4.464l-2.544-7.969c-.624-1.969-1.152-4.177-1.632-6.049h-.096c-.48 1.872-.96 4.128-1.536 6.049l-2.496 7.969h8.304zM72.924 218.163c0-2.688-.048-4.945-.192-6.961h5.185l.288 3.504h.144c1.008-1.824 3.552-4.032 7.44-4.032 4.081 0 8.305 2.641 8.305 10.033v13.873H88.19v-13.201c0-3.36-1.248-5.904-4.464-5.904-2.352 0-3.984 1.68-4.608 3.456-.192.528-.24 1.248-.24 1.92v13.729h-5.952v-16.417zM100.092 229.155c1.344.816 3.888 1.681 6 1.681 2.592 0 3.744-1.057 3.744-2.593 0-1.584-.96-2.399-3.84-3.408-4.56-1.584-6.48-4.08-6.433-6.816 0-4.128 3.409-7.345 8.833-7.345 2.592 0 4.848.672 6.192 1.393l-1.152 4.176c-1.008-.576-2.88-1.344-4.945-1.344-2.112 0-3.264 1.008-3.264 2.448 0 1.488 1.104 2.208 4.081 3.265 4.224 1.536 6.192 3.696 6.24 7.152 0 4.225-3.312 7.297-9.504 7.297-2.833 0-5.377-.673-7.105-1.633l1.153-4.273zM137.581 233.86c-1.248.576-3.696 1.2-6.625 1.2-7.296 0-12.049-4.657-12.049-11.905 0-7.009 4.8-12.481 13.009-12.481 2.16 0 4.368.48 5.712 1.104l-1.056 4.416c-.96-.432-2.352-.912-4.464-.912-4.512 0-7.201 3.313-7.153 7.585 0 4.801 3.121 7.536 7.153 7.536 2.064 0 3.504-.432 4.656-.912l.817 4.369zM141.948 200.497h5.952v13.921h.096a7.918 7.918 0 0 1 2.929-2.688c1.151-.673 2.544-1.057 4.032-1.057 3.984 0 8.16 2.641 8.16 10.129v13.777h-5.904v-13.105c0-3.408-1.248-5.952-4.513-5.952-2.304 0-3.936 1.536-4.56 3.313-.192.479-.24 1.104-.24 1.776v13.969h-5.952v-34.083zM169.403 200.497h5.953v34.083h-5.953v-34.083zM202.669 227.571a137 137 0 0 0 .192 7.009h-5.185l-.288-3.553h-.096c-1.008 1.681-3.313 4.081-7.488 4.081-4.272 0-8.161-2.545-8.161-10.177v-13.729h5.904v12.721c0 3.889 1.248 6.385 4.368 6.385 2.353 0 3.889-1.68 4.513-3.168a5.366 5.366 0 0 0 .336-1.824v-14.113h5.904v16.368zM208.763 229.155c1.345.816 3.889 1.681 6.001 1.681 2.592 0 3.744-1.057 3.744-2.593 0-1.584-.96-2.399-3.84-3.408-4.561-1.584-6.48-4.08-6.433-6.816 0-4.128 3.408-7.345 8.832-7.345 2.593 0 4.849.672 6.193 1.393l-1.152 4.176c-1.008-.576-2.881-1.344-4.944-1.344-2.112 0-3.265 1.008-3.265 2.448 0 1.488 1.104 2.208 4.08 3.265 4.225 1.536 6.193 3.696 6.241 7.152 0 4.225-3.313 7.297-9.505 7.297-2.832 0-5.377-.673-7.104-1.633l1.152-4.273zM228.778 229.155c1.345.816 3.889 1.681 6.001 1.681 2.592 0 3.744-1.057 3.744-2.593 0-1.584-.96-2.399-3.84-3.408-4.561-1.584-6.48-4.08-6.433-6.816 0-4.128 3.408-7.345 8.832-7.345 2.593 0 4.849.672 6.193 1.393l-1.152 4.176c-1.008-.576-2.881-1.344-4.944-1.344-2.112 0-3.265 1.008-3.265 2.448 0 1.488 1.104 2.208 4.08 3.265 4.225 1.536 6.193 3.696 6.241 7.152 0 4.225-3.313 7.297-9.505 7.297-2.832 0-5.377-.673-7.104-1.633l1.152-4.273zM259.596 219.747v4.08h-12.241v-4.08h12.241zM81.899 277.155c1.344.816 3.888 1.681 6 1.681 2.592 0 3.744-1.057 3.744-2.593 0-1.584-.96-2.399-3.84-3.408-4.561-1.584-6.48-4.08-6.433-6.816 0-4.128 3.408-7.345 8.833-7.345 2.592 0 4.848.672 6.192 1.393l-1.152 4.176c-1.008-.576-2.88-1.344-4.945-1.344-2.112 0-3.264 1.008-3.264 2.448 0 1.488 1.104 2.208 4.081 3.265 4.224 1.536 6.192 3.696 6.24 7.152 0 4.225-3.312 7.297-9.505 7.297-2.832 0-5.376-.673-7.104-1.633l1.153-4.273zM119.389 281.86c-1.249.576-3.697 1.2-6.625 1.2-7.296 0-12.049-4.657-12.049-11.905 0-7.009 4.8-12.481 13.009-12.481 2.16 0 4.368.48 5.712 1.104l-1.056 4.416c-.96-.432-2.352-.912-4.464-.912-4.513 0-7.201 3.313-7.153 7.585 0 4.801 3.121 7.536 7.153 7.536 2.064 0 3.504-.432 4.656-.912l.817 4.369zM123.754 248.497h5.952v13.921h.096a7.922 7.922 0 0 1 2.928-2.688c1.152-.673 2.544-1.057 4.032-1.057 3.984 0 8.161 2.641 8.161 10.129v13.777h-5.904v-13.105c0-3.408-1.248-5.952-4.512-5.952-2.304 0-3.937 1.536-4.561 3.313-.192.479-.24 1.104-.24 1.776v13.969h-5.952v-34.083zM151.21 266.163c0-2.688-.048-4.945-.192-6.961h5.185l.288 3.504h.144c1.009-1.824 3.553-4.032 7.441-4.032 4.08 0 8.305 2.641 8.305 10.033v13.873h-5.905v-13.201c0-3.36-1.248-5.904-4.464-5.904-2.353 0-3.984 1.68-4.608 3.456-.192.528-.24 1.248-.24 1.92v13.729h-5.952v-16.417zM184.954 252.674c0 1.775-1.296 3.168-3.36 3.168-1.969 0-3.265-1.393-3.265-3.168 0-1.824 1.345-3.217 3.313-3.217 2.016 0 3.264 1.393 3.312 3.217zm-6.289 29.906v-23.378h5.953v23.378h-5.953zM197.722 252.529v6.673h5.617v4.416h-5.617v10.321c0 2.832.769 4.32 3.024 4.32a8.78 8.78 0 0 0 2.305-.288l.096 4.513c-.864.336-2.4.576-4.272.576-2.16 0-3.984-.721-5.088-1.921-1.249-1.344-1.824-3.456-1.824-6.528v-10.993h-3.36v-4.416h3.36v-5.28l5.759-1.393zM214.569 252.529v6.673h5.617v4.416h-5.617v10.321c0 2.832.769 4.32 3.024 4.32a8.78 8.78 0 0 0 2.305-.288l.096 4.513c-.864.336-2.4.576-4.272.576-2.16 0-3.984-.721-5.088-1.921-1.249-1.344-1.824-3.456-1.824-6.528v-10.993h-3.36v-4.416h3.36v-5.28l5.759-1.393z"/></g></g></g></switch></svg>