<svg xmlns="http://www.w3.org/2000/svg" xmlns:xlink="http://www.w3.org/1999/xlink" width="300" height="300" viewBox="0 0 300 300"><switch><g><symbol id="b" viewBox="-34.731 -31.834 69.462 63.668"><path fill="#FFF" d="M34.73 5.319l-12.598 9.616v15.908h-9v-9.038L-.001 31.833l-34.73-26.512 5.461-7.155 3.742 2.856v-32.856H25.53V1.021l3.74-2.854 5.46 7.152zM20.529-26.834H9v19H-8.999v-19h-11.529V4.204L.001 19.88 20.529 4.204v-31.038z"/></symbol><symbol id="a" viewBox="-150 -150 300 300.015"><path fill="#AEBCC4" d="M150-97.015c0-6.763 0-52.985-71.5-52.985H-84c-62.5 0-66 47.223-66 53.985v186c0 54.5 59.235 60 66 60l161.5.029c6.765 0 72.5-.029 72.5-60.029v-187z"/></symbol><use xlink:href="#a" width="300" height="300.015" x="-150" y="-150" transform="matrix(1 0 0 -1 150 150)" overflow="visible"/><g fill="#080828"><path d="M85.168 250.83c0-2.688-.048-4.945-.192-6.961h5.185l.288 3.504h.144c1.008-1.824 3.552-4.032 7.44-4.032 4.081 0 8.305 2.641 8.305 10.033v13.873h-5.904v-13.201c0-3.36-1.248-5.904-4.464-5.904-2.352 0-3.984 1.68-4.608 3.456-.192.528-.24 1.248-.24 1.92v13.729H85.17V250.83zM134.85 255.342c0 8.593-6.048 12.434-12.001 12.434-6.625 0-11.713-4.561-11.713-12.05 0-7.68 5.041-12.385 12.097-12.385 6.96 0 11.617 4.896 11.617 12.001zm-17.618.24c0 4.513 2.208 7.921 5.808 7.921 3.36 0 5.713-3.313 5.713-8.017 0-3.648-1.632-7.825-5.665-7.825-4.175 0-5.856 4.032-5.856 7.921zM139.696 251.405c0-3.168-.048-5.424-.192-7.536h5.137l.192 4.464h.192c1.152-3.312 3.889-4.992 6.384-4.992.576 0 .912.048 1.393.145v5.568a8.145 8.145 0 0 0-1.729-.192c-2.832 0-4.752 1.824-5.28 4.465-.096.527-.192 1.151-.192 1.824v12.097h-5.904v-15.843zM156.783 250.83c0-2.688-.049-4.945-.192-6.961h5.089l.24 3.456h.144c1.152-1.824 3.265-3.984 7.2-3.984 3.072 0 5.473 1.729 6.48 4.32h.097c.815-1.296 1.776-2.256 2.88-2.928 1.297-.912 2.785-1.393 4.705-1.393 3.888 0 7.824 2.641 7.824 10.129v13.777h-5.761v-12.913c0-3.889-1.344-6.192-4.177-6.192-2.016 0-3.504 1.439-4.128 3.12-.144.576-.288 1.296-.288 1.968v14.018h-5.76V253.71c0-3.265-1.297-5.568-4.033-5.568-2.208 0-3.695 1.728-4.225 3.36-.239.576-.336 1.248-.336 1.92v13.825h-5.76V250.83zM210.64 267.247l-.384-2.592h-.145c-1.439 1.824-3.888 3.12-6.912 3.12-4.705 0-7.345-3.408-7.345-6.961 0-5.904 5.232-8.881 13.873-8.833v-.384c0-1.536-.624-4.08-4.753-4.08-2.304 0-4.703.72-6.288 1.728l-1.151-3.84c1.728-1.057 4.752-2.064 8.448-2.064 7.488 0 9.648 4.753 9.648 9.841v8.449c0 2.112.097 4.176.336 5.616h-5.327zm-.769-11.425c-4.176-.097-8.16.815-8.16 4.368 0 2.305 1.488 3.36 3.36 3.36 2.353 0 4.081-1.536 4.608-3.216.145-.433.191-.912.191-1.297v-3.215zM221.87 233.164h5.953v34.083h-5.953v-34.083z"/></g><use xlink:href="#b" width="69.462" height="63.668" x="-34.731" y="-31.834" transform="matrix(2.0267 0 0 -2.0267 149.658 123.181)" overflow="visible"/><path fill="none" stroke="#FFF" stroke-width="2" stroke-miterlimit="10" d="M31 57h238M32 187h237M32 56v132M268 56v131"/><path fill="#FFF" d="M224.281 111.56l43.725-35.146-.698 24.627L253 113.661V177l14.416.666.331 9-25.747.033V120l-6.912 5.898zM75.006 111.56L31.281 76.414l.555 24.627L46 113.661V177l-14.272.666-.403 9 25.675.033V120l7.056 5.898z"/></g></switch></svg>