<svg xmlns="http://www.w3.org/2000/svg" xmlns:xlink="http://www.w3.org/1999/xlink" width="300" height="300" viewBox="0 0 300 300"><switch><g><symbol id="a" viewBox="-150 -150 300 300.015"><path fill="#AEBCC4" d="M150-97.015c0-6.763 0-52.985-71.5-52.985H-84c-62.5 0-66 47.223-66 53.985v186c0 54.5 59.235 60 66 60l161.5.029c6.765 0 72.5-.029 72.5-60.029v-187z"/></symbol><use xlink:href="#a" width="300" height="300.015" x="-150" y="-150" transform="matrix(1 0 0 -1 150 150)" overflow="visible"/><g fill="#080828"><path d="M75.366 223.57c0-3.168-.048-5.424-.192-7.536h5.137l.192 4.464h.192c1.152-3.312 3.889-4.992 6.385-4.992.576 0 .912.048 1.392.145v5.568a8.142 8.142 0 0 0-1.728-.192c-2.833 0-4.752 1.824-5.281 4.465-.096.527-.192 1.151-.192 1.824v12.097h-5.904V223.57zM96.198 229.379c.144 4.225 3.456 6.049 7.201 6.049 2.736 0 4.704-.384 6.48-1.056l.864 4.08c-2.016.816-4.8 1.44-8.161 1.44-7.584 0-12.049-4.657-12.049-11.81 0-6.48 3.937-12.577 11.425-12.577 7.585 0 10.081 6.24 10.081 11.377 0 1.104-.096 1.969-.192 2.496H96.198zm10.273-4.128c.048-2.16-.912-5.713-4.849-5.713-3.648 0-5.185 3.313-5.424 5.713h10.273zM129.942 239.412l-.384-2.592h-.144c-1.44 1.824-3.888 3.12-6.913 3.12-4.705 0-7.345-3.408-7.345-6.961 0-5.904 5.232-8.881 13.873-8.833v-.384c0-1.536-.624-4.08-4.752-4.08-2.304 0-4.704.72-6.289 1.728l-1.152-3.84c1.728-1.057 4.752-2.064 8.449-2.064 7.489 0 9.649 4.753 9.649 9.841v8.449c0 2.112.096 4.176.336 5.616h-5.328zm-.768-11.425c-4.176-.097-8.161.815-8.161 4.368 0 2.305 1.488 3.36 3.36 3.36 2.352 0 4.081-1.536 4.608-3.216a4.25 4.25 0 0 0 .192-1.297v-3.215zM141.173 205.329h5.952v34.083h-5.952v-34.083zM159.798 209.506c0 1.775-1.296 3.168-3.36 3.168-1.969 0-3.265-1.393-3.265-3.168 0-1.824 1.345-3.217 3.313-3.217 2.016 0 3.264 1.393 3.312 3.217zm-6.288 29.906v-23.378h5.951v23.378h-5.951zM165.508 233.987c1.345.816 3.889 1.681 6.001 1.681 2.593 0 3.744-1.057 3.744-2.593 0-1.584-.96-2.399-3.841-3.408-4.56-1.584-6.48-4.08-6.432-6.816 0-4.128 3.408-7.345 8.832-7.345 2.593 0 4.849.672 6.193 1.393l-1.152 4.176c-1.008-.576-2.881-1.344-4.945-1.344-2.111 0-3.264 1.008-3.264 2.448 0 1.488 1.104 2.208 4.08 3.265 4.225 1.536 6.193 3.696 6.241 7.152 0 4.225-3.313 7.297-9.505 7.297-2.832 0-5.377-.673-7.105-1.633l1.153-4.273zM192.58 209.361v6.673h5.617v4.416h-5.617v10.321c0 2.832.769 4.32 3.024 4.32a8.78 8.78 0 0 0 2.305-.288l.096 4.513c-.864.336-2.4.576-4.272.576-2.16 0-3.984-.721-5.088-1.921-1.249-1.344-1.824-3.456-1.824-6.528V220.45h-3.36v-4.416h3.36v-5.28l5.759-1.393zM208.948 209.506c0 1.775-1.296 3.168-3.36 3.168-1.969 0-3.265-1.393-3.265-3.168 0-1.824 1.345-3.217 3.313-3.217 2.016 0 3.264 1.393 3.312 3.217zm-6.289 29.906v-23.378h5.953v23.378h-5.953zM232.133 238.692c-1.248.576-3.696 1.2-6.624 1.2-7.297 0-12.05-4.657-12.05-11.905 0-7.009 4.801-12.481 13.01-12.481 2.16 0 4.368.48 5.712 1.104l-1.056 4.416c-.96-.432-2.353-.912-4.465-.912-4.512 0-7.2 3.313-7.152 7.585 0 4.801 3.12 7.536 7.152 7.536 2.064 0 3.505-.432 4.657-.912l.816 4.369zM82.782 281.987c1.344.816 3.888 1.681 6 1.681 2.592 0 3.744-1.057 3.744-2.593 0-1.584-.96-2.399-3.84-3.408-4.56-1.584-6.48-4.08-6.433-6.816 0-4.128 3.409-7.345 8.833-7.345 2.592 0 4.848.672 6.192 1.393l-1.152 4.176c-1.008-.576-2.88-1.344-4.945-1.344-2.112 0-3.264 1.008-3.264 2.448 0 1.488 1.104 2.208 4.081 3.265 4.224 1.536 6.192 3.696 6.24 7.152 0 4.225-3.312 7.297-9.504 7.297-2.833 0-5.377-.673-7.105-1.633l1.153-4.273zM107.262 277.379c.144 4.225 3.456 6.049 7.201 6.049 2.736 0 4.704-.384 6.48-1.056l.864 4.08c-2.016.816-4.8 1.44-8.161 1.44-7.584 0-12.049-4.657-12.049-11.81 0-6.48 3.937-12.577 11.425-12.577 7.585 0 10.081 6.24 10.081 11.377 0 1.104-.096 1.969-.192 2.496h-15.649zm10.273-4.128c.048-2.16-.912-5.713-4.849-5.713-3.648 0-5.185 3.313-5.424 5.713h10.273zM134.622 257.361v6.673h5.616v4.416h-5.616v10.321c0 2.832.768 4.32 3.024 4.32a8.765 8.765 0 0 0 2.304-.288l.096 4.513c-.864.336-2.4.576-4.272.576-2.16 0-3.984-.721-5.088-1.921-1.248-1.344-1.824-3.456-1.824-6.528V268.45h-3.36v-4.416h3.36v-5.28l5.76-1.393zM151.469 257.361v6.673h5.617v4.416h-5.617v10.321c0 2.832.769 4.32 3.024 4.32a8.76 8.76 0 0 0 2.304-.288l.097 4.513c-.864.336-2.4.576-4.272.576-2.16 0-3.984-.721-5.088-1.921-1.248-1.344-1.824-3.456-1.824-6.528V268.45h-3.36v-4.416h3.36v-5.28l5.759-1.393zM167.837 257.506c0 1.775-1.296 3.168-3.36 3.168-1.969 0-3.265-1.393-3.265-3.168 0-1.824 1.345-3.217 3.313-3.217 2.016 0 3.264 1.393 3.312 3.217zm-6.288 29.906v-23.378h5.951v23.378h-5.951zM173.836 270.995c0-2.688-.048-4.945-.191-6.961h5.185l.288 3.504h.144c1.008-1.824 3.553-4.032 7.44-4.032 4.08 0 8.305 2.641 8.305 10.033v13.873h-5.904v-13.201c0-3.36-1.248-5.904-4.465-5.904-2.352 0-3.984 1.68-4.608 3.456-.191.528-.239 1.248-.239 1.92v13.729h-5.953v-16.417zM222.653 264.034c-.096 1.584-.192 3.504-.192 6.721v13.249c0 4.896-1.008 8.4-3.456 10.608-2.448 2.16-5.809 2.833-9.024 2.833-2.977 0-6.145-.624-8.161-1.872l1.296-4.465c1.488.864 3.984 1.776 6.816 1.776 3.841 0 6.721-2.017 6.721-7.057v-2.017h-.096c-1.344 2.064-3.744 3.457-6.816 3.457-5.809 0-9.938-4.801-9.938-11.426 0-7.681 4.993-12.337 10.609-12.337 3.553 0 5.664 1.729 6.769 3.648h.096l.24-3.12h5.136zm-6.096 9.361c0-.527-.048-1.104-.192-1.584-.624-2.16-2.304-3.792-4.8-3.792-3.313 0-5.761 2.88-5.761 7.633 0 3.984 2.017 7.2 5.713 7.2 2.208 0 4.128-1.44 4.8-3.552.145-.624.24-1.44.24-2.112v-3.793z"/></g><g fill-rule="evenodd" clip-rule="evenodd"><path fill="#FFF" d="M60.373 196.363H27.542L27.541 28.28c73.57 0 250.858-.845 250.858-.056 0 67.209.001 101.055-.017 168.264 0 .625-18.262-.75-18.4-.125-.181-.277-.301-.656-.555-.811-1.152-.697-2.342-1.34-3.527-1.98-.156-.084-.384-.09-.568-.064-2.12.291-2.694-1.379-3.142-2.145-1.288-.148-2.156-.197-3-.365-.615-.119-1.202-.385-1.795-.605-2.356-.879-4.84-1.527-7.027-2.721-2.048-1.117-3.779-2.813-5.909-4.453l-.277 1.887-2.926-1.074c2.924 1.424-.604 3.105.481 4.459-.163.072-.327.148-.49.221-.939-1.141-1.88-2.283-2.934-3.566l1.56-.514c-.185-.119-.368-.24-.555-.359l1.312-2.791.817-.197c-1.169-1.281-2.336-2.564-3.548-3.896l1.228-2.047c-4.222 2.367-5.079 2.131-5.562-1.889a975.876 975.876 0 0 1-1.385 2.396l-3.451-3.115-.348.285 1.459 2.701-.943 1.473c-2.938-.453-2.15-2.975-2.529-4.572-.605-2.545-.547-5.248-.772-7.918.456-.361 2.11-.227.867-2.016-.314-.453-.049-1.279-.313-1.805-.563-1.117-.873-2.51-2.394-2.838l.06.057c-2.666-2.787-.107-5.365.394-8.004.085-.438.854-.746 1.358-1.154l.779 1.867c1.309-1.903.539-3.601-.099-5.305-.631-1.688-.563-3.967-3.397-3.736-1.326 1.88-3.601 2.342-5.52.654-.415.656-.847 1.337-1.063 1.674a843.42 843.42 0 0 0-1.229-2.713l3.088-.578-5.307-4.435c-.573 1.581-.573 1.581 1.339 1.851.353 1.191.651 2.206.952 3.224-.299.684-.589 1.372-.896 2.052-.247.547-.513 1.085-.769 1.629-.464-.456-1.15-.838-1.332-1.386-.212-.639.021-1.425.068-2.291-1.09 1.018-2.157 2.019-3.32 3.109l-1.009-2.167c-.228.99-.383 1.673-.674 2.942l-4.24-13.05.657-.499c.407 3.8 3.628 3.858 6.011 5.299-.803-3.675-.641-4.364 1.183-5.447l.35 2.904c1.158-.667 1.984-1.087 2.742-1.609.266-.185.568-.669.504-.928-.563-2.257.332-1.982 1.735-1.084.439.281.993.476 1.512.525 1.925.178 3.857.279 5.786.409.028-.254.059-.509.088-.764-1.266-.342-2.635-.485-3.763-1.081-1.204-.637-2.18-1.703-3.254-2.582l-.443.508c.104.25.214.498.312.75.119.306.23.619.347.932-.547-.197-1.064-.586-1.465-.493-2.089.498-2.772.042-2.52-2.141.201-1.742-1.022-2.383-2.134-2.49-1.319-.125-2.705.448-4.293.764.635 1.408 1.372 2.609 1.707 3.915.305 1.18 1.532 2.714-.818 3.734-.936-1.339-1.868-2.685-2.816-4.019-.193-.27-.458-.712-.676-.705-2.461.091-2.415-1.281-1.386-3.625-2.382.817-4.176 1.479-6 2.038-.913.281-1.886.521-2.831.515-.898-.005-1.797-.354-2.696-.551l-.086.508c-.48-.507-.959-1.015-1.805-1.906l.495 2.216c-2.744.965-5.293 1.287-7.442-1.963-.624 1.26-1.162 2.003-1.364 2.829-.406 1.662-.777 3.358-.897 5.059-.208 3.005-2.957 5.871-.401 9.051-1.277-1.532-2.441-3.018-1.232-5.058.15-.251.13-.714.004-1.001-.914-2.085-.891-4.19-.419-6.383.345-1.607.448-3.265.581-4.288-.947-.96-2.007-1.531-2.037-2.151-.166-3.404-.079-6.82-.079-10.231l.952-.2a1211.71 1211.71 0 0 1 1.765 3.396l.486-5.488 3.29.197.177 2.285c.938-1.351 1.637-2.355 2.331-3.357l1.964 1.592c.185-.779.311-1.31.483-2.046.885 1.2 1.566 2.536 2.722.642.577 1.283 1.553 1.453 2.756.998-2.396 1.297-.319 2.415.125 3.744.201-.773.445-1.4.508-2.043.065-.674-.042-1.366-.075-2.051l2.607.283-.104 2.147c.757.172 1.796.411 2.696.618.229 1.342.421 2.456.65 3.809l1.77-3.246 4.267 1.281c-.303 2.091.018 3.256 1.123 4.006.192-2.576.384-5.124.562-7.533l2.579-1.021c.324.263.798.645 1.57 1.265.28-.53.536-1.014.79-1.498l.205.679c.934 0 2.034-.315 2.764.069 1.291.68 2.751 1.157 3.594.114.677-.835.423-2.421.53-3.262-1.127.328-1.884.657-2.662.717-.3.023-.646-.564-.839-.749-.303.128-.816.531-1.319.52-1.233-.025-2.463-.374-3.691-.358-3.347.043-6.694.209-10.19.333V98.767l.344-.02.519 8.276c.159-.689.307-1.313.451-1.938.203-.06.404-.122.607-.184.418.735.838 1.47 1.095 1.92.158-.322.461-.934.764-1.546l1.263 1.18V101.4l-4.304-.456v-2.477c.465 0 .804-.01 1.141.001 2.206.075 4.346.158 4.051 3.358-.047.501.677 1.074 1.043 1.613l.034-.667 2.494-.313.403 2.2.488-.697 3.535 2.202 2.006-.161c-1.802-.774-1.802-.774-1.503-1.962l.823.582c-.05-.954-.086-1.69-.096-1.891-.622-.436-1.079-.643-1.057-.758.102-.539.377-1.514.518-1.501a28.91 28.91 0 0 1 4.139.675c.581.137 1.094.565 1.666.878l-1.613.468c3.055.559 6.05.722 9.041.922 2.873.193 2.922.21 2.908 3.063-.006 1.39-.428 2.796-.316 4.167.271 3.35.872 6.673 1.109 10.023.358 5.068-.03 10.199 1.469 15.387l-4.701-1.504c-.103.134-.205.27-.308.403 1.114.8 2.194 1.658 3.36 2.373.545.333 1.452.203 1.851.614.897.926 1.579 2.06 2.347 3.108-1.416-2.3.694-2.044 1.807-2.488-.323-3.046-.441-6.109-1.009-9.087-.98-5.152-2.287-10.241-3.325-15.384-.162-.805.382-1.752.625-2.743-.135-.522-.512-1.347-.537-2.183-.082-2.608-.017-5.222-.043-7.833-.009-.729-.398-1.589-.12-2.142.192-.383 1.229-.339 1.9-.489a7546.142 7546.142 0 0 1-3.067-5.898 9436.288 9436.288 0 0 1-3.051 6.92c-2.226 0-4.514.046-6.798-.014-2.076-.055-4.414-3.758-3.705-5.8.037-.105.32-.126.553-.209-.433-.243-1.047-.393-1.086-.637-.584-3.588-1.093-7.19-1.666-11.091h2.986l-3.536-7.579-1.375 3.069c-.922.178-1.789.347-2.586.5-.057 1.042-.104 1.899-.149 2.757l-.581-.396c-.393.339-.832.64-1.169 1.028-.527.61-.986 1.281-1.472 1.926.238-.634.479-1.268.718-1.902l1.454-3.297h-1.25c.031-.713.062-1.35.092-1.986l-.523-.145c-.274.42-.551.84-.825 1.261-.438-2.049.976-4.357-1.018-6.205l.086 1.738c-1.039-.611-2.024-1.387-1.813.71.023.225-.676.523-1.04.788l.065.05c-.211-1.514-.436-3.027-.63-4.543-.074-.591-.083-1.192-.12-1.788l-.684-.074c.862-1.721 1.725-3.442 2.724-5.439l4.267 1.37c.417-.614.185-1.577-.787-1.754-1.203-.22-2.457-.227-3.62-.566-.545-.159-1.251-.842-1.317-1.359-.193-1.493-.307-2.869-1.863-2.794 0-1.977-.037-3.796.025-5.613.015-.461.337-.914.516-1.369.407.239 1.093.409 1.172.729.515 2.085 1.881 1.425 3.222 1.182.601-.109 1.359-.058 1.861.237.396.233.512.949.907 1.77.595-.925.906-1.411 1.217-1.897.567.132 1.131.266 1.924.452l-3.6-7.199c-.203.716-.336 1.311-.544 1.878-.203.556-.481 1.083-.927 2.058-4.408-10.089-6.859-20.308-9.414-30.691-1.453 11.812-5.044 26.918-7.48 30.864-.687-2.184-1.27-4.043-1.582-5.041-.79 1.873-1.896 4.478-2.985 7.089a1.732 1.732 0 0 0-.134.769c.186 2.196.304 4.405.638 6.58.145.938.586 1.945 1.189 2.675 1.502 1.811 2.89 3.554 2.667 6.144-.14 1.648.137 3.33.079 4.99-.049 1.415-.302 2.823-.479 4.232-.009.063-.165.11-.217.143-.151-.345-.299-.682-.589-1.349-.351.948-.569 1.537-.87 2.355l-19.473-.911c-.199 4.753-.199 4.753-.604 4.943l-.625-5.623c-.275-.009-.553-.015-.83-.022l-1.119 21.34c-1.666 0-3.192-.068-4.712.013-3.217.174-6.359.359-7.441-3.771-.133-.507-1.04-.829-1.615-1.195-.873-.555-1.75-.939-2.362.351l.043.053c-.661-1.224 2.155-2.525.369-3.474-5.037 1.931-9.83 3.443-14.912 4.206 0-1.848-.014-3.785.014-5.723.003-.292.149-.614.317-.862.219-.321.527-.579.797-.864-.207-.121-.503-.396-.607-.336-.378.213-.918.492-.99.832-.362 1.722-.508 3.491-.904 5.204-.315 1.368-.881 2.678-1.335 4.014l-.571-.17-3.936-8.841c-1.849 3.687-3.576 7.116-5.273 10.562-.095.193.056.514.109.772.19.913.549 1.822.555 2.736.059 7.497.056 14.994.061 22.492.001.669-.057 1.335-.089 2.053-1.016 0-1.839.047-2.654-.007-2.803-.19-4.328.955-5.405 3.379-1.05 2.368-2.377 4.645-3.833 6.789-1.743 2.569-4.366 4.706-5.486 7.483-1.323 3.277-3.318 6.001-5.152 8.885-1.791 2.818-3.434 5.6-3.42 9.145.006 1.617-.187 3.916-1.216 4.723-2.532 1.98-4.302 4.41-5.981 7.025-1.408 2.193-3.151 4.205-4.317 6.512-1 1.977-2.489 2.947-4.355 3.838-1.59.758-3.244 1.721-4.382 3.021-2.646 3.016-4.991 6.291-7.454 9.461zm160.041-35.375c.612.182 1.226.365 1.568.469.328 1.674.604 3.078.891 4.549.715.033 1.383.066 2.034.107-.405 1.578-.81 3.158-1.213 4.736.185.057.371.111.556.166l1.293-1.133c.322.916.591 1.67 1.006 2.846.501-1.344 1.192-2.277 1.009-2.984-.157-.605-1.316-.953-2.255-1.555l-.409-2.076c-1.49-1.299-1.35-2.748-.393-4.27.673-1.07 1.164-2.057.19-3.326-.356-.461-.058-1.424-.058-2.129l-.585.398-5.615-6.376v2.478c1.933-.105 2.507.939 2.387 2.598-.135 1.854-.236 3.709-.355 5.561-.253-.195-.51-.391-.771-.59-1.329 2.957-1.218 5.678.314 7.086.138-2.209.273-4.381.406-6.555zm11.728-14.498c.907 2.916 2.461 5.67-.425 8.079-.043.033-.05.127-.055.195-.229 3.309-.615 6.619-.618 9.93-.003 1.771.651 3.551 1.011 5.324.274-.045.55-.088.825-.135 0-4.398-.057-8.799.057-13.197.019-.68.712-1.797 1.272-1.924 2.087-.475 2.766-2.09 3.545-3.689.596-1.224 1.17-2.458 1.831-3.854l4.676 2.155.501-.365c-.859-2.22-1.708-4.443-2.589-6.654-.086-.221-.347-.505-.55-.526-1.835-.184-3.673-.313-5.512-.461 1.965 1.376 3.187 3.115 2.754 5.29-.138.697-2.045 1.046-2.915 1.448l-7.328-8.434c.482 1.504 1.177 2.834 2.127 3.944.936 1.097 2.135 1.97 3.465 3.158l-2.072-.284zm.961 5.094c-.704-3.085-2.48-4.593-5.037-5.089-1.21 2.623-.367 4.867 2.037 7.003.298-1.406.539-2.545.747-3.535l2.253 1.621zm2.922-6.923c-.377-3.119-3.268-4.051-5.006-6.334-.665 4.294 4.281 3.545 5.006 6.334zm-20.072 12.925l.88-.01c.17-1.518.335-3.035.524-4.75l-1.404-1.012v5.772zm-.254-19.128c-1.733-3.373-3.4-4.248-5.142-3.055 1.581.938 3.124 1.856 5.142 3.055zm-16.71-80.102l.73-.226-.858-3.697-1.206 1.085c-.129-.435-.225-.757-.318-1.08l-.377.094c.054 1.099.11 2.197.183 3.648.356-.61.507-.866.666-1.136l1.18 1.312zm1.851 4.094l1.932-1.619-2.235-2.094.303 3.713zm1.981 77.834c-.63-.924-1.241-1.819-1.851-2.716l-.478.324c.668 3.115.668 3.115 2.329 2.392z"/><path fill="#080828" d="M213.755 158.043c1.521.328 1.831 1.721 2.394 2.838.265.525-.001 1.352.313 1.805 1.243 1.789-.411 1.654-.867 2.016.226 2.67.167 5.373.772 7.918.379 1.598-.408 4.119 2.529 4.572l.943-1.473-1.459-2.701c.115-.096.232-.191.348-.285l3.451 3.115c.311-.535.711-1.229 1.385-2.396.482 4.02 1.34 4.256 5.562 1.889l-1.228 2.047c1.212 1.332 2.379 2.615 3.548 3.896l-.817.197-1.312 2.791c.187.119.37.24.555.359l-1.56.514c1.054 1.283 1.994 2.426 2.934 3.566.163-.072.327-.148.49-.221-1.085-1.354 2.442-3.035-.481-4.459.959.354 1.921.705 2.926 1.074l.277-1.887c2.13 1.641 3.861 3.336 5.909 4.453 2.188 1.193 4.671 1.842 7.027 2.721.593.221 1.18.486 1.795.605.844.168 1.712.217 3 .365.447.766 1.021 2.436 3.142 2.145.185-.025.412-.02.568.064 1.186.641 2.375 1.283 3.527 1.98.254.154.374.533.555.811h-32.503c.889-.602 1.778-1.201 2.67-1.801-.255-.172-.512-.34-.766-.512l-2.17-1.797c-.353 1.463-.669 2.787-.985 4.109H60.372c2.463-3.17 4.808-6.445 7.446-9.461 1.138-1.301 2.792-2.264 4.382-3.021 1.866-.891 3.355-1.861 4.355-3.838 1.167-2.307 2.91-4.318 4.317-6.512 1.679-2.615 3.449-5.045 5.981-7.025 1.03-.807 1.223-3.105 1.216-4.723-.013-3.545 1.63-6.326 3.42-9.145 1.833-2.884 3.829-5.608 5.152-8.885 1.121-2.777 3.744-4.914 5.486-7.483 1.456-2.144 2.783-4.42 3.833-6.789 1.077-2.424 2.602-3.569 5.405-3.379.815.055 1.638.007 2.654.007.032-.718.09-1.384.089-2.053-.005-7.498-.002-14.995-.061-22.492-.006-.914-.365-1.823-.555-2.736-.053-.258-.204-.579-.109-.772 1.697-3.445 3.424-6.875 5.273-10.562l3.936 8.841.571.17c.454-1.336 1.02-2.646 1.335-4.014.396-1.713.542-3.481.904-5.204.072-.34.612-.619.99-.832.104-.06.4.215.607.336-.27.286-.578.543-.797.864-.168.248-.314.57-.317.862-.028 1.938-.014 3.875-.014 5.723 5.082-.763 9.875-2.275 14.912-4.206 1.787.949-1.03 2.25-.369 3.473-1.637-1.043-.765.851-1.135 1.202-.975.922-1.925 2.326-.814 4.255l1.907-5.509c.613-1.29 1.489-.905 2.362-.351.575.366 1.482.688 1.615 1.195 1.082 4.13 4.224 3.945 7.441 3.771 1.52-.082 3.046-.013 4.712-.013l1.119-21.34.83.022.625 5.623c.405-.189.405-.189.604-4.943l19.473.911c.301-.819.52-1.408.87-2.355.29.667.438 1.004.589 1.349.052-.033.208-.079.217-.143.178-1.409.431-2.817.479-4.232.058-1.661-.219-3.342-.079-4.99.223-2.59-1.165-4.333-2.667-6.144-.604-.729-1.045-1.737-1.189-2.675-.334-2.175-.452-4.384-.638-6.58a1.718 1.718 0 0 1 .134-.769c1.09-2.611 2.195-5.216 2.985-7.089l1.582 5.041c2.437-3.945 6.027-19.052 7.48-30.864 2.555 10.384 5.006 20.602 9.414 30.691.445-.975.724-1.502.927-2.058.208-.567.341-1.162.544-1.878l3.6 7.199c-.793-.186-1.356-.32-1.924-.452-.311.486-.622.972-1.217 1.897-.396-.821-.511-1.536-.907-1.77-.502-.294-1.261-.346-1.861-.237-1.341.243-2.707.904-3.222-1.182-.079-.32-.765-.49-1.172-.729-.179.456-.501.908-.516 1.369-.063 1.816-.025 3.636-.025 5.613 1.557-.075 1.67 1.301 1.863 2.794.066.518.772 1.2 1.317 1.359 1.163.34 2.417.346 3.62.566.972.177 1.204 1.14.787 1.754l-4.267-1.37c-.999 1.997-1.861 3.719-2.724 5.439l.684.074c.037.596.046 1.197.12 1.788.194 1.516.419 3.029.63 4.543-.554.899-1.125 1.79-1.656 2.703-.223.38-.274.887-.554 1.206-1.961 2.237-3.96 4.441-5.977 6.685 2.556 1.94 6.383 2.163 8.554.862.305-.183.982-.328 1.075-.197 1.418 2.015 3.05.985 4.667.505-.231-2.285-.231-2.285-2.055-2.776.485-.645.944-1.316 1.472-1.926.337-.389.776-.689 1.169-1.028l.581.396.149-2.757c.797-.153 1.664-.322 2.586-.5l1.375-3.069 3.536 7.579h-2.986c.573 3.9 1.082 7.502 1.666 11.091.039.244.653.394 1.086.637-.232.083-.516.104-.553.209-.709 2.042 1.629 5.745 3.705 5.8 2.284.061 4.572.014 6.798.014l3.051-6.92c1.052 2.023 2.032 3.91 3.067 5.898-.671.149-1.708.106-1.9.489-.278.552.111 1.413.12 2.142.026 2.611-.039 5.224.043 7.833.025.836.402 1.661.537 2.183-.243.991-.787 1.938-.625 2.743 1.038 5.143 2.345 10.231 3.325 15.384.567 2.978.686 6.041 1.009 9.087-1.112.443-3.223.188-1.807 2.488-.768-1.048-1.449-2.183-2.347-3.108-.398-.411-1.306-.28-1.851-.614-1.166-.715-2.246-1.573-3.36-2.373l.308-.403c1.531.49 3.064.979 4.701 1.504-1.499-5.188-1.11-10.319-1.469-15.387-.237-3.351-.838-6.674-1.109-10.023-.111-1.371.311-2.777.316-4.167.014-2.853-.035-2.87-2.908-3.063-2.991-.201-5.986-.364-9.041-.922l1.613-.468c-.572-.313-1.085-.741-1.666-.878a28.887 28.887 0 0 0-4.139-.675c-.141-.012-.416.963-.518 1.501-.022.116.435.323 1.057.758.01.201.046.937.096 1.891l-.823-.582c-.299 1.188-.299 1.188 1.503 1.962l-2.006.161-3.535-2.202-.488.697c-.146-.789-.251-1.374-.403-2.2l-2.494.313-.034.667c-.366-.539-1.09-1.112-1.043-1.613.295-3.201-1.845-3.284-4.051-3.358-.337-.011-.676-.001-1.141-.001v2.477l4.304.456v5.055l-1.263-1.18-.764 1.546c-.257-.45-.677-1.185-1.095-1.92-.203.062-.404.124-.607.184-.145.624-.292 1.249-.451 1.938l-.519-8.276-.344.02v10.317c3.496-.124 6.844-.29 10.19-.333 1.229-.016 2.458.333 3.691.358.503.011 1.017-.392 1.319-.52.192.185.539.772.839.749.778-.061 1.535-.39 2.662-.717-.107.841.146 2.426-.53 3.262-.843 1.043-2.303.566-3.594-.114-.729-.385-1.83-.069-2.764-.069l-.205-.679c-.254.484-.51.968-.79 1.498a418.62 418.62 0 0 1-1.57-1.265l-2.579 1.021a7290.33 7290.33 0 0 1-.562 7.533c-1.105-.75-1.426-1.915-1.123-4.006l-4.267-1.281-1.77 3.246c-.229-1.353-.421-2.466-.65-3.809l-2.696-.618c.035-.746.081-1.675.104-2.147l-2.606-.283c-.186.117-.371.234-.559.35-1.203.455-2.179.285-2.756-.998-1.155 1.894-1.837.558-2.722-.642l-.483 2.046c-.846-.687-1.548-1.253-1.964-1.592-.694 1.002-1.393 2.006-2.331 3.357l-.177-2.285-3.29-.197-.486 5.488c-.561-1.082-1.161-2.239-1.765-3.396l-.952.2c0 3.412-.087 6.827.079 10.231.03.62 1.09 1.19 2.037 2.151-.133 1.022-.236 2.681-.581 4.288-.472 2.192-.495 4.298.419 6.383.126.287.146.75-.004 1.001-1.209 2.04-.045 3.526 1.232 5.058-2.556-3.18.193-6.046.401-9.051.12-1.701.491-3.397.897-5.059.202-.826.74-1.568 1.364-2.829 2.149 3.25 4.698 2.929 7.442 1.963l-.495-2.216c.846.891 1.324 1.399 1.805 1.906l.086-.508c.899.197 1.798.546 2.696.551.945.005 1.918-.234 2.831-.515 1.824-.559 3.618-1.221 6-2.038-1.029 2.345-1.075 3.716 1.386 3.625.218-.008.482.435.676.705.948 1.334 1.881 2.68 2.816 4.019 2.351-1.021 1.123-2.554.818-3.734-.335-1.306-1.072-2.507-1.707-3.915 1.588-.316 2.974-.889 4.293-.764 1.111.106 2.335.748 2.134 2.49-.253 2.184.431 2.639 2.52 2.141.4-.094.918.296 1.465.493-.116-.313-.228-.626-.347-.932-.098-.252-.207-.5-.312-.75l.443-.508c1.074.879 2.05 1.945 3.254 2.582 1.128.596 2.497.739 3.763 1.081-.029.255-.06.51-.088.764-1.929-.13-3.861-.231-5.786-.409a3.557 3.557 0 0 1-1.512-.525c-1.403-.897-2.299-1.173-1.735 1.084.064.259-.238.744-.504.928-.758.522-1.584.941-2.742 1.609a2002.2 2002.2 0 0 1-.35-2.904c-1.823 1.083-1.985 1.772-1.183 5.447-2.383-1.441-5.604-1.499-6.011-5.299-.218.167-.438.333-.657.499l4.24 13.05c.291-1.27.446-1.952.674-2.942l1.009 2.167c1.163-1.091 2.23-2.091 3.32-3.109-.047.866-.28 1.652-.068 2.291.182.548.868.93 1.332 1.386.256-.544.521-1.082.769-1.629.307-.681.597-1.368.896-2.052l-.068-.058 1.226 2.71c.216-.337.647-1.018 1.063-1.674 1.919 1.688 4.193 1.227 5.52-.654 2.835-.231 2.767 2.047 3.397 3.736.638 1.704 1.407 3.401.099 5.305l-.779-1.867c-.504.408-1.273.717-1.358 1.154-.501 2.639-3.06 5.217-.395 8.002-2.86 1.014-2.86 1.014-1.525 3.025 2.175-.236 1.744-1.693 1.472-3.08zm-105.269 4.728c-.333.242-.923.453-.957.732-.156 1.314-.161 2.646-.219 3.971l.871.035c.082-1.598.165-3.197.238-4.807l1.332.34-.252-3.738c-.237.004-.475.012-.711.016l-.302 3.451zm54.362 10.655l1.105 2.48c.224-1.033.339-2.277.767-3.402.61-1.605-.126-1.5-1.222-1.16.09-.309.178-.619.266-.93 2.627-2.963 1.703 2.199 3.601 1.17l1.217-3.307c1.79 1.404 1.813 4.805-.12 6.58l.159.551 2.807-.904-.668 4.475c.196.064.774.252 1.354.438l-.192-.67 5.144-2.309-2.121-8.291c1.346.266 2.663 2.334 2.44 4.305 2.373-.664.999-2.67 1.728-3.955l-2.259-.324-.25-3.252c.88.52 1.759 1.041 2.72 1.607l.438-2.105c-.815-.203-1.529-.379-2.242-.555l2.338-1.844c-.104-.154-.212-.307-.318-.463-.349.152-.699.305-1.05.455l-.237-.285c.575-.705 1.149-1.41 1.938-2.381-.922-.355-1.643-.635-1.841-.711-.462-1.053-.638-1.811-1.074-2.359-.549-.686-1.124-1.646-2.296-.58-.703.637-1.653 1.361-2.512 1.389-1.6.051-1.878.975-1.763 2.037.216.65.43 1.301.733 2.223l6.128 2.48a910.8 910.8 0 0 0-.962 1.039c-1.392-.693-2.785-1.387-4.176-2.084-.216.654-.321.975-.481 1.455-1.239-2.105-3.176-2.584-5.052-2.461-1.813.117-2.849-1.166-4.287-1.666-.279-.098-.342-.82-.688-1.748 1.313.57 2.401.695 2.788 1.279 1.286 1.951 1.849.336 2.898-.258l-5.56-2.092c-.563 1.256-1.155 2.584-1.994 4.461l3.193-.924c-.058 1.016.014 1.959-.199 2.836-.287 1.184-1.063 2.295-1.143 3.471-.109 1.615-.949 2.434-2.214 3.076.319-1.162.355-2.535 1.026-3.439.961-1.295.418-1.707-.738-2.359-.268.729-.484 1.314-.699 1.902-.154.02-.307.041-.46.063l-.907-4.598 2.629.711c-.475-1.094-.896-2.063-1.315-3.033-.164.018-.329.035-.494.057-.249.775-.501 1.553-.753 2.33-2.873 1.986-3.123 4.83-.691 6.301l-.311-3.18.831-.088c-.412 1.65 1.259 2.887.57 4.725-.333.887.522 1.318 1.377.508-.801 2.117-.184 3.881 1.461 5.703-.042-1.434-.069-2.668 1.687-2.328l-.054-.062zm6.219-66.626l.778.464c.061-1.44.687-3.734.066-4.144-1.289-.851-.464-1.668-.624-2.494l.53.716c.731-2.32-.091-2.84-3.296-2.141l.992 3.513-1.177-1.504c0 2.232-.119 4.041.07 5.816.058.528.927 1.271 1.518 1.374 1.083.191 1.407-.595 1.143-1.6zm-44.17 22.043l3.848 2.099c2.084-1.18 3.271 1.418 5.146.852l-.889-2.98-.383.022-.327 1.146a80.05 80.05 0 0 0-.703-.171l.681-2.394-1.872-1.207-.554.289.507 2.593c-.628.239-1.463.56-2.386.911-.541-.685-1.028-1.446-1.666-2.044-.271-.254-.857-.174-1.3-.247-.016.396-.03.79-.043 1.183-.925-.464-1.85-.931-2.723-1.37.043 1.988 2.909 4.277 5.352 3.508l-2.688-2.19zm52.413-36.858c-.049.882-.461 1.996-.076 2.602.95 1.491.583 1.951-.997 2.057-.349.024-.685.209-1.027.322l.051.4h3.61l-1.586-5.367c-.934-1.834-1.865-3.668-2.869-5.644-1.183 4.266-.707 8.496 1.312 9.571l.303-4.833c.484.328.89.604 1.279.892zm2.65 12.677c-.241-1.289-.484-2.576-.726-3.864l.508-.054.477.888.586-.332c-.301-.603-.472-1.553-.933-1.725-.652-.245-1.52.087-2.292.172.202.536.403 1.071.636 1.684-.917.823-1.378 6.146-.317 6.842.588.386 1.512.256 2.823.43l-.816-4.092c2.042.184.795 1.754 1.139 2.657.191.497.424 1.224.798 1.341.493.155 1.33.005 1.689-.349.896-.891-.07-3.504-1.278-3.922-.777-.269-1.481-.747-2.293-1.169l-.001 1.493zm-54.752 39.996c-.255-1.264.911-2.93-1.044-3.728-1.077 3.121-1.621 3.491-4.487 3.038.4 1.887 1.29 3.829 1.049 5.618-.22 1.625-.103 2.633.932 3.461 3.138-2.411-.506-4.349-.409-6.378 1.157-1.295 3.473.303 3.969-2.021v4.406c.149.018.301.035.451.054l1.242-7.537c-.742 1.342-1.223 2.214-1.703 3.087zm27.648 27.621c.257.924.857 1.918.685 2.75-.205.98-1.082 1.818-1.785 2.902 1.236-.174 2.131-.299 2.988-.418l.426-1.947 1.615 2.459.939-.627c-.943-1.428-1.889-2.855-2.977-4.496l1.117-3.906a52.957 52.957 0 0 1-.398-.111l-.929 1.818c-.376-1.777-.858-3.018-.847-4.252.018-1.777-.07-3.133-2.492-2.537-.139 1.104-.289 2.27-.461 3.637l-1.848-.789c1.289 2.082 1.258 2.076.774 4.523-.16.807-.112 1.654-.16 2.482l.646.021a2241 2241 0 0 0 .386-1.963c.125 0 .25 0 .377.002l.323 2.768c-.783.318-1.462.59-2.17.877.922.561 1.678 1.021 2.253 1.373.51-1.486 1.046-3.049 1.58-4.613l-.042.047zm56.658-.797c-1.679-.666-1.094-2.16-1.175-3.365-.092-1.359-.02-2.727-.02-4.371-1.394 1.793-2.246 3.354-.911 5.49-.906-.043-1.628-.268-2.249-.656-1.58-.988-2.25-3.771-4.497-2.623-.063-1.26-.135-2.605-.198-3.953-.136-2.857-2.029-5.273-1.893-8.287.049-1.078 1.135-3.041-1.047-3.74-.091-.029-.166-.562-.051-.703 1.154-1.448.422-2.071-.956-2.709-1.271-.589-1.9-1.656-1.941-3.214-.054-1.976-.389-3.96-.803-5.9-.095-.455-.946-.834-1.523-1.071-.491-.202-1.086-.147-1.264-.166l1.434 8.764.984-.738c.477.933 1.236 1.717 1.188 2.449-.244 3.686-.604 7.337.999 10.857.126.277-.272 1.01-.622 1.242-1.236.826-.83 1.652-.304 3.139l.588-1.734c.203.514.355.896.509 1.279l.056-.068c-1.785 2.287-1.794 2.67-.04 4.975l.269-.572c1.076.252 1.967.457 2.907.678.304.465 1.069 1.117 1.121 1.82.124 1.693 1.022 2.225 2.444 1.953 1.506-.285 2.777.104 4.071.768.94.484 1.944.838 3.119 1.334l-.291-.943c.482-.523.967-1.045 1.461-1.576l2.552 1.623c-.178-1.545-.354-3.102-.529-4.639 1.857-.389 3.02-4.658 1.55-6.469-.974 2.451-1.869 4.707-2.563 6.457-.957.174-2.008.203-2.041.398-.228 1.404-.25 2.842-.334 4.271zm-66.544-6.201l2.705 4.139c.948-2.418 3.794-3.508 3.204-6.379l.839 3.219.333-.102.475-3.643 2.369.488-1.584-3.479c-1.486.166-2.806.395-4.134.449-3.227.131-3.228.096-3.665 3.256l-1.254-1.344-.661.123.48 4.592c.18 0 .361-.002.54-.004.135-.498.269-1.002.353-1.315zm42.102-26.198c-.254-.018-.509-.034-.763-.051-.31 1.249-.713 2.483-.904 3.746-.282 1.88.714 3.95-.877 5.64-.139.146-.214.454-.172.656.383 1.908.745 3.821 1.23 5.702.147.57.657 1.047 1.002 1.564l1.291-1.002 1.448.893c.209-.426.397-.865.627-1.279.129-.229.29-.545.501-.609 1.698-.52 1.016-1.627.582-2.555-.253-.545-.805-.95-1.247-1.444l-.604.899c-2.281-3.853-2.052-8.035-2.114-12.16zm13.939 33.933c-.153.199-.31.398-.464.598.277 1.018.273 2.303.915 2.971.581.605.744.869.086 1.178-.447.211-1.434.195-1.609-.08-1.223-1.924-2.298-3.943-3.635-6.313l-1.38 2.449c-.773.049-1.34.084-1.677.107.633 1.42 1.062 2.492 1.587 3.514.264.514.704 1.336 1.065 1.336 3.029.014 6.063-.115 9.091-.252.532-.023 1.054-.291 1.858-.529-1.129-.82-1.975-1.35-2.718-2-1.078-.948-2.082-1.981-3.119-2.979zm-78.865-33.208l2.694 2.074 1.379-3.538 1.306 2.436c.536-.556 1.293-.979 1.435-1.556.446-1.811-1.371-3.635-3.241-3.468-.451.039-.915-.09-1.554-.162-.102.173-.404.676-.752 1.257-1.626-2.342-1.289 1.822-2.696.422l.736-1.701c-.192-.11-.383-.222-.575-.333-.563.938-1.662 1.938-1.565 2.804.146 1.312 1.124 2.533 1.979 4.261l.854-2.496zm21.044 27.126c-.851 2.039-1.732 3.877-2.34 5.803-.143.453.575 1.242 1.005 1.795.352.451 1.004.697 1.273 1.176.431.768.658 1.65.972 2.488 4.691-1.836 4.377-2.033 3.418-4.375-.593-.463-1.119-1.018-1.279-1.666-.155-.625.233-1.389.078-2.012a5.377 5.377 0 0 0-1.131-2.18c-.161-.184-1.02.24-1.62.402l-.376-1.431zm46.46-30.679c1.408 4.535.927 8.996.856 13.552 1.103-1.657 2.036-3.37 2.576-5.198.244-.829-.532-1.911-.436-2.835.405-3.848-2.402-5.677-4.722-7.82-.119-.111-.626-.029-.729.118-.169.248-.299.678-.197.929.544 1.341 1.164 2.65 1.863 4.204.253-.941.491-1.832.789-2.95zm-7.042 39.534l.425 1.336 5.148.459c1.794-2.775 1.319-5.143-.736-7.531-.121 1.357-.227 2.539-.368 4.139l-1.708-2.242c-.942 1.312-1.722 2.394-2.761 3.839zm-61.365-26.499l-2.975-4.856c-.157.102-.314.202-.471.305v2.457c-.169.083-.337.164-.506.248l-.487-1.392c-1.882 1.301-2.675 2.319-.877 3.828.304.255-.123 1.382-.199 1.99.387 1.121.761 2.199 1.314 3.803.458-3.109.814-5.758 4.201-6.383zm16.339-38.717l2.7.502c-.41-1.328-1.008-2.318-.944-3.264.113-1.711.654-3.389.958-5.092.553-3.1-.157-3.93-2.713-3.054l-.001 10.908zm38.016-9.242c.415-.375.654-.592 1.063-.96v3.646l-1.073-1.671c0 1.653.025 2.828-.007 4.001-.035 1.221.085 2.261 1.707 2.181 1.529-.075 2.007-.983 1.871-2.346-.225-2.235-.487-4.467-.729-6.699-2.72-.517-3.038-.34-2.832 1.848zm15.32 62.372l.604-.646c-3.396-3.656-6.761-7.352-11.455-9.396-.17.211-.342.418-.513.629 3.789 3.138 7.577 6.274 11.364 9.413zm-3.927-61.594v6.512l2.942.326c-.161-1.984-.357-3.656-.417-5.332-.059-1.748-.896-2.099-2.525-1.506zm15.957 52.153c-.869 2.865.633 5.164 1.207 7.582.039.16.765.352 1.039.23 1.041-.465 1.146-4.174.114-4.271-2.349-.231-1.546-2.201-2.36-3.541zm-9.569-110.959c.166.25.336.498.711 1.058l-.578-8.396c-1.189.682-1.501 3.549-1.146 9.682l1.013-2.344zm16.501 113.375l-1.521 1.363c-.335-.604-.551-.992-.768-1.379-.247.1-.494.199-.741.301.563 1.748 1.127 3.498 1.707 5.293 2.742-1.434 1.161-3.598 1.323-5.578zm.656-2.664c1.203-2.654.796-5.062-1.041-6.605-.939 2.382-.812 4.581 1.041 6.605zm-37.009-45.188l.854-.03c.316-.528.975-1.127.881-1.566-.215-.999.302-2.634-1.536-2.674-1.836-.04-1.296 1.547-1.338 2.452-.03.586.734 1.211 1.139 1.818zm-10.157 39.211c-1.372-4.08-3.138-1.276-4.956-.813 1.546 2.205 3.251.967 4.956.813zm-16.553 2.114c-1.562.836-1.182 3.986-4.224 2.714.668 1.025 1.144 1.756 1.609 2.473 2.629-1.115 2.832-1.516 2.615-5.187zm45.927-40.492l-.405.54c.408.339.778.905 1.227.973 1.245.19 2.524.242 3.785.202.401-.013.788-.487 1.181-.751-.36-.321-.703-.894-1.084-.919-1.561-.105-3.135-.045-4.704-.045zM86.11 178.131c1.057-.207 2.056-.191 2.797-.623.471-.273.733-1.199.763-1.846.018-.43-.543-.883-.844-1.324-.444.414-.969.773-1.312 1.262-.48.687-.825 1.468-1.404 2.531zm65.552-24.713c1.875-.748 1.875-.748 1.46-4.414-.83.377-1.641.743-2.409 1.091.338 1.184.642 2.255.949 3.323zm49.94-4.364c1.764-2.898 1.764-2.898-.09-4.513l-1.435 1.589 1.525 2.924zm-4.977-48.807c.582 2.141 2.271 2.585 3.769 1.083l.651 1.279c.626-2.453-.156-2.858-4.42-2.362zm-62.538 71.456c.639 2.063-.292 3.939.839 5.498-.475-1.719 3.211-3.959-.839-5.498zm51.713 12.238l-.428 1.607c.894-.246 1.573-.434 2.034-.557l-.808 2.949c.872-.59 1.282-1.309 1.728-2.002.229-.357.522-.672.784-1.004-.475-.33-.911-.781-1.438-.959-.485-.161-1.069-.034-1.872-.034zm-49.494-63.01c-.141.01-.282.02-.422.032v9.232l.422-.001v-9.263zm-24.552 38.737c.26.105.52.213.78.316.643-1.023 1.347-2.016 1.887-3.092.146-.289-.118-.887-.366-1.217-.087-.113-.927.059-1.013.266-.497 1.217-.872 2.481-1.288 3.727zm50.822 27.516l-.94-.117c-.479.645-1.101 1.236-1.367 1.959-.101.271.568 1.104 1.002 1.209.431.107 1.385-.297 1.446-.607.156-.774-.068-1.624-.141-2.444zm21.243-85.774h3.998c-.401-.777-.595-1.601-.896-1.643-.906-.125-1.899-.085-2.761.191-.28.09-.267 1.101-.341 1.452zm-9.005 42.96l.56-.127-1.56-4.723-.611.061-.396 3.224.448.06.73-1.074c.194.855.354 1.598.543 2.333.026.098.188.164.286.246zm6.526-15.679c-1.671 1.866-1.159 4.072.826 4.949-.264-1.58-.516-3.1-.826-4.949zm-2.768 48.092l1.382-.576c-.185-.113-.369-.23-.554-.344.293-1.1.585-2.199.954-3.576l-2.315 2.102.533 2.394zm4.231-22.037l-2.934-5.625c-.548 1.943.494 4.029 2.934 5.625zm-31.692-7.658l-3.105-1.13.152 2.61 2.953-1.48zm63.098 40.633l-.64.541c-.302 1.867.259 2.361 2.879 2.186l-2.239-2.727zm-31.576-18.662l.575-.18-1.16-3.012c-.563.332-1.125.67-1.456.863l2.041 2.329zm-6.659-24.558c-.139 1.346-.281 2.69-.444 4.271 1.461-.603 1.574-1.796.444-4.271zm10.359-11.276l.623-.119c.262-1.35.464-2.689-.651-3.774l-.631.119.659 3.774zm26.335 56.486c-.319.252-.639.502-.958.75.683.252 1.365.502 2.377.873-1.291.586-1.765.799-2.528 1.145l2.83.662-1.721-3.43z"/><path fill="#FFF" d="M226.228 196.363c.316-1.322.633-2.646.985-4.109l2.17 1.797c.254.172.511.34.766.512-.892.6-1.781 1.199-2.67 1.801l-1.251-.001zM178.722 196.363h.416-.416z"/><path d="M232.142 146.49l2.072.283c-1.33-1.188-2.529-2.062-3.465-3.158-.95-1.109-1.645-2.44-2.127-3.944l7.328 8.434c.87-.402 2.777-.751 2.915-1.448.433-2.175-.789-3.914-2.754-5.29 1.839.147 3.677.277 5.512.461.203.021.464.305.55.526.881 2.211 1.729 4.435 2.589 6.654l-.501.365-4.676-2.155c-.661 1.396-1.235 2.63-1.831 3.854-.779 1.6-1.458 3.215-3.545 3.689-.561.127-1.254 1.244-1.272 1.924-.113 4.398-.057 8.799-.057 13.197-.275.047-.551.09-.825.135-.359-1.773-1.014-3.553-1.011-5.324.003-3.311.39-6.621.618-9.93.005-.068.012-.162.055-.195 2.886-2.408 1.332-5.162.425-8.078z"/><path fill="#FFF" d="M198.645 83.283c1.823.491 1.823.491 2.055 2.776-1.617.479-3.249 1.509-4.667-.505-.093-.13-.771.014-1.075.197-2.171 1.3-5.998 1.078-8.554-.862 2.017-2.244 4.016-4.447 5.977-6.685.279-.319.331-.826.554-1.206.531-.913 1.103-1.803 1.656-2.703l-.065-.05c.567.63 1.215 1.204 1.67 1.905.316.486.362 1.147.527 1.73l1.658-.78c.329 1.426.654 2.854.982 4.28-.24.635-.48 1.269-.718 1.903z"/><path d="M224.924 166.105l-2.051-.1c-.287-1.471-.563-2.875-.891-4.549-.343-.104-.956-.287-1.568-.469l.055.061c.115-1.854.217-3.709.352-5.563.12-1.658-.454-2.703-2.387-2.598v-2.478l5.615 6.376.585-.398c0 .705-.299 1.668.058 2.129.974 1.27.482 2.256-.19 3.326-.957 1.521-1.098 2.971.393 4.27l.029-.007zM233.103 151.584l-2.253-1.621-.747 3.535c-2.404-2.137-3.247-4.38-2.037-7.003 2.556.496 4.332 2.004 5.037 5.089zM198.38 77.101l-1.658.78c-.165-.583-.211-1.244-.527-1.73-.455-.701-1.103-1.275-1.67-1.905.364-.265 1.063-.563 1.04-.788-.211-2.097.774-1.321 1.813-.71l-.086-1.738c1.993 1.848.579 4.156 1.018 6.204 0-.002.07-.113.07-.113zM205.11 141.443l-.952-3.224c-1.912-.27-1.912-.27-1.339-1.851a7566.3 7566.3 0 0 0 5.307 4.435l-3.088.578.072.062zM224.894 166.113l.409 2.076c.938.602 2.098.949 2.255 1.555.184.707-.508 1.641-1.009 2.984-.415-1.176-.684-1.93-1.006-2.846l-1.293 1.133c-.185-.055-.371-.109-.556-.166.403-1.578.808-3.158 1.222-4.74.008-.004-.022.004-.022.004zM236.025 144.661c-.726-2.789-5.672-2.04-5.006-6.334 1.739 2.282 4.629 3.215 5.006 6.334z"/><path d="M220.414 160.988c-.133 2.174-.269 4.346-.406 6.555-1.532-1.408-1.644-4.129-.314-7.086l.773.59-.053-.059zM215.953 157.586v-5.771l1.404 1.012c-.189 1.715-.354 3.232-.524 4.75l-.88.009zM215.699 138.458l-5.142-3.055c1.742-1.193 3.409-.318 5.142 3.055zM198.989 58.356l-1.181-1.312c-.159.27-.31.526-.666 1.136-.072-1.451-.129-2.55-.183-3.648l.377-.094c.094.323.189.646.318 1.08l1.206-1.085.858 3.697c-.241.076-.486.151-.729.226zM198.38 77.101l-.07.112c.274-.419.551-.839.825-1.26l.523.145c-.03.636-.061 1.273-.092 1.986h1.25l-1.454 3.297c-.328-1.427-.653-2.855-.982-4.28zM200.84 62.45c-.121-1.475-.228-2.798-.304-3.713l2.235 2.094-1.931 1.619zM183.02 111.258c.188-.116.373-.233.559-.35.032.685.14 1.377.074 2.051-.063.643-.307 1.27-.508 2.043-.445-1.329-2.522-2.447-.125-3.744zM202.821 140.284c-1.661.723-1.661.723-2.328-2.392l.478-.324c.609.897 1.22 1.792 1.85 2.716z"/><path fill="#FFF" d="M176.602 164.92l.25 3.252 2.259.324c-.729 1.285.646 3.291-1.728 3.955.223-1.971-1.095-4.039-2.44-4.305l2.121 8.291-5.144 2.309.192.67c-.579-.186-1.157-.373-1.354-.438l.668-4.475c-1.329.43-2.068.666-2.807.904l-.159-.551c1.934-1.775 1.91-5.176.12-6.58l-1.217 3.307c-1.897 1.029-.974-4.133-3.599-1.174.77-1.98.77-1.98-1.323-2.391.157 1.885.308 3.678.456 5.467-1.756-.34-1.729.895-1.687 2.328-1.645-1.822-2.262-3.586-1.464-5.703 0 .002-.062.102-.062.102 1.265-.643 2.104-1.461 2.214-3.076.08-1.176.855-2.287 1.143-3.471.213-.877.142-1.82.199-2.836l-3.193.924c.839-1.877 1.431-3.205 1.994-4.461l5.56 2.092c-1.05.594-1.612 2.209-2.898.258-.387-.584-1.475-.709-2.788-1.279.347.928.409 1.65.688 1.748 1.438.5 2.474 1.783 4.287 1.666 1.876-.123 3.813.355 5.052 2.461.16-.48.266-.801.481-1.455 1.391.697 2.784 1.391 4.176 2.084l.003.053zM195.763 161.471c-.153-.383-.306-.766-.509-1.279l-.588 1.734c-.526-1.486-.933-2.313.304-3.139.35-.232.748-.965.622-1.242-1.604-3.52-1.243-7.171-.999-10.857.048-.732-.712-1.517-1.188-2.449l-.984.738-1.434-8.764c.178.019.772-.036 1.264.166.577.237 1.429.617 1.523 1.071.414 1.94.749 3.924.803 5.9.041 1.558.671 2.625 1.941 3.214 1.378.638 2.11 1.261.956 2.709-.115.142-.04.674.051.703 2.182.699 1.096 2.662 1.047 3.74-.137 3.014 1.757 5.43 1.893 8.287.063 1.348.136 2.693.198 3.953 2.247-1.148 2.917 1.635 4.497 2.623.621.389 1.343.613 2.249.656-1.335-2.137-.482-3.697.911-5.49 0 1.645-.072 3.012.02 4.371.081 1.205-.504 2.699 1.174 3.365l-.094-.068.291.943c-1.175-.496-2.179-.85-3.119-1.334-1.294-.664-2.565-1.053-4.071-.768-1.422.271-2.32-.26-2.444-1.953-.052-.703-.817-1.355-1.121-1.82-.94-.221-1.831-.426-2.907-.678.015-.027-.118.252-.269.572-1.754-2.305-1.745-2.688.041-4.979l.455 2.893.414-.125.261-5.145c-.112 0-.224.002-.337.004l-.851 2.448zM142.97 165.281c-.084.313-.218.816-.354 1.316-.179.002-.36.004-.54.004l-.48-4.592.661-.123 1.254 1.344c.437-3.16.438-3.125 3.665-3.256 1.328-.055 2.648-.283 4.134-.449l1.584 3.479c-.857-.178-1.545-.318-2.369-.488l-.475 3.643-.333.102-.839-3.219c.59 2.871-2.256 3.961-3.204 6.379-.998-1.528-1.881-2.882-2.704-4.14zM185.072 139.083c.062 4.125-.167 8.308 2.114 12.16l.604-.899c.442.494.994.899 1.247 1.444.434.928 1.116 2.035-.582 2.555-.211.064-.372.381-.501.609-.229.414-.418.854-.627 1.279l-1.448-.893-1.291 1.002c-.345-.518-.854-.994-1.002-1.564-.485-1.881-.848-3.793-1.23-5.702-.042-.202.033-.51.172-.656 1.591-1.69.595-3.76.877-5.64.191-1.263.595-2.497.904-3.746.254.016.509.033.763.051zM177.563 163.828l-6.129-2.48-.733-2.223c-.115-1.063.163-1.986 1.763-2.037.858-.027 1.809-.752 2.512-1.389 1.172-1.066 1.747-.105 2.296.58.437.549.612 1.307 1.074 2.359l1.841.711c-.788.971-1.362 1.676-1.938 2.381l.237.285c.351-.15.701-.303 1.05-.455.106.156.214.309.318.463l-2.341 1.844.05-.039z"/><path fill="#FFF" d="M152.898 172.232c-.534 1.564-1.07 3.127-1.58 4.613a938.99 938.99 0 0 0-2.253-1.373c.708-.287 1.388-.559 2.17-.877l-.323-2.768c-.127-.002-.252-.002-.377-.002a2241 2241 0 0 1-.386 1.963c-.214-.008-.43-.014-.646-.021.048-.828 0-1.676.16-2.482.483-2.447.515-2.441-.774-4.523l1.848.789c.172-1.367.323-2.533.461-3.637 2.422-.596 2.51.76 2.492 2.537-.012 1.234.471 2.475.847 4.252.476-.934.703-1.375.929-1.818l.398.111-1.117 3.906c1.088 1.641 2.033 3.068 2.977 4.496l-.939.627-1.615-2.459c-.146.668-.273 1.256-.426 1.947-.857.119-1.752.244-2.988.418.703-1.084 1.58-1.922 1.785-2.902.173-.832-.428-1.826-.685-2.752l-.489-5.918c-.518 1.428-.829 2.273-1.132 3.123-.566 1.594.783 2.032 1.663 2.75zM199.011 173.016c1.037.998 2.041 2.031 3.12 2.979.743.65 1.589 1.18 2.718 2-.805.238-1.326.506-1.858.529-3.028.137-6.062.266-9.091.252-.361 0-.802-.822-1.065-1.336-.525-1.021-.954-2.094-1.587-3.514.337-.023.903-.059 1.677-.107l1.38-2.449c1.337 2.369 2.412 4.389 3.635 6.313.176.275 1.162.291 1.609.08.658-.309.495-.572-.086-1.178-.642-.668-.638-1.953-.915-2.971.153-.2.309-.399.463-.598zM120.146 139.808l-.854 2.495c-.856-1.728-1.833-2.949-1.979-4.261-.096-.866 1.002-1.865 1.565-2.804.192.112.383.223.575.333l-.736 1.701c1.407 1.4 1.07-2.764 2.696-.422.348-.581.65-1.084.752-1.257.639.072 1.104.201 1.554.162 1.871-.167 3.687 1.657 3.241 3.468-.142.576-.899 1-1.435 1.556l-1.306-2.436-1.379 3.538-2.694-2.073zM141.19 166.934l.376 1.432c.6-.162 1.458-.586 1.62-.402a5.377 5.377 0 0 1 1.131 2.18c.155.623-.233 1.387-.078 2.012.16.648.687 1.203 1.279 1.666.959 2.342 1.273 2.539-3.418 4.375-.313-.838-.541-1.721-.972-2.488-.27-.479-.922-.725-1.273-1.176-.43-.553-1.148-1.342-1.005-1.795.608-1.927 1.489-3.765 2.34-5.804zm-.645 5.675c1.918-.693 1.695.291 1.582 1.369-.063.594.207 1.219.327 1.83.489-3.812.131-4.384-1.909-3.199zM187.65 136.255l-.787 2.949c-.699-1.554-1.319-2.862-1.863-4.204-.102-.251.028-.682.197-.929.103-.147.609-.229.729-.118 2.319 2.143 5.127 3.972 4.722 7.82-.097.925.68 2.006.436 2.835-.54 1.828-1.474 3.541-2.576 5.198.069-4.556.551-9.016-.858-13.551zM180.608 175.789l2.761-3.84 1.708 2.242.368-4.139c2.056 2.389 2.53 4.756.736 7.531l-5.148-.459-.425-1.335zM119.243 149.29c-3.387.625-3.743 3.275-4.202 6.382-.554-1.604-.928-2.682-1.314-3.803.076-.607.503-1.735.199-1.99-1.797-1.509-1.004-2.527.877-3.828l.487 1.392c.169-.084.337-.165.506-.248v-2.457c.157-.103.314-.203.471-.305l2.976 4.857zM135.582 110.573V99.664c2.556-.876 3.266-.046 2.713 3.054-.304 1.703-.844 3.381-.958 5.092-.063.946.535 1.937.944 3.264l-2.699-.501zM173.598 101.331c-.206-2.188.112-2.365 2.829-1.849.244 2.232.507 4.464.731 6.699.136 1.363-.342 2.271-1.871 2.346-1.622.08-1.742-.96-1.707-2.181.032-1.173.007-2.348.007-4.001l1.073 1.671v-3.646l-1.062.961z"/><path fill="#FFF" d="M125.218 144.634c-.498 2.337-2.814.739-3.971 2.034-.097 2.029 3.547 3.968.409 6.378-1.034-.828-1.151-1.836-.932-3.461.241-1.789-.649-3.731-1.049-5.618 2.866.453 3.41.083 4.487-3.038 1.955.798.789 2.464 1.044 3.728l.012-.023zM209.419 171.414l.094.068c.085-1.43.107-2.867.335-4.273.033-.195 1.084-.225 2.041-.398l2.563-6.457c1.47 1.811.308 6.08-1.55 6.469l.529 4.639c-.771-.492-1.691-1.076-2.552-1.623a464.7 464.7 0 0 0-1.46 1.575zM179.902 104.608c.246 1.225.491 2.449.819 4.094-1.312-.174-2.235-.044-2.823-.43-1.061-.696-.6-6.019.317-6.842l-.636-1.684c.772-.085 1.64-.417 2.292-.172.461.172.632 1.122.933 1.725l-.586.332-.477-.888-.508.054.726 3.864-.057-.053zM188.918 163.703c-3.787-3.139-7.575-6.275-11.363-9.414.171-.211.343-.418.513-.629 4.694 2.045 8.06 5.74 11.455 9.396l-.605.647zM159.687 170.213s.062-.1.062-.102c-.852.811-1.707.379-1.374-.508.688-1.838-.982-3.074-.57-4.725l-.831.088.311 3.18c-2.432-1.471-2.182-4.314.691-6.301l-.064-.061.905 4.594c.153-.021.306-.043.46-.063.215-.588.432-1.174.699-1.902 1.156.652 1.699 1.064.738 2.359-.672.906-.708 2.279-1.027 3.441zM184.991 102.109c1.629-.593 2.466-.242 2.525 1.505.06 1.676.256 3.348.417 5.332l-2.942-.326v-6.511zM177.327 91.973l-1.298-.881-.303 4.833c-2.019-1.075-2.494-5.305-1.312-9.571l2.869 5.644.044-.025zM124.954 128.894l.045-1.183c.443.072 1.029-.008 1.3.247.638.598 1.125 1.359 1.666 2.044l2.386-.911-.507-2.593.554-.289 1.872 1.207-.681 2.394.703.171c.108-.382.217-.765.327-1.146l.383-.022.889 2.98c-1.874.566-3.062-2.032-5.146-.852l-3.848-2.099.057.052zM167.515 102.715l-.992-3.513c3.205-.7 4.027-.18 3.296 2.141l-.53-.716c.16.826-.665 1.643.624 2.494.62.41-.006 2.704-.066 4.144-.261-.154-.52-.309-.778-.464-.52-1.362-1.037-2.724-1.554-4.086z"/><path fill="#FFF" d="M167.515 102.715c.518 1.362 1.034 2.724 1.553 4.085.264 1.004-.061 1.791-1.142 1.602-.591-.103-1.46-.846-1.518-1.374-.189-1.776-.07-3.584-.07-5.816l1.177 1.503zM200.948 154.262c.813 1.34.011 3.311 2.36 3.541 1.031.098.927 3.807-.114 4.271-.274.121-1-.07-1.039-.23-.574-2.418-2.076-4.717-1.207-7.582zM191.379 43.303l-1.013 2.343c-.355-6.133-.044-9 1.146-9.682l.578 8.396c-.375-.559-.545-.807-.711-1.057zM179.96 104.662v-1.493c.812.422 1.516.9 2.293 1.169 1.208.418 2.175 3.031 1.278 3.922-.359.354-1.196.504-1.689.349-.374-.117-.606-.844-.798-1.341-.344-.903.903-2.474-1.14-2.658l.056.052zM207.88 156.678c-.162 1.98 1.419 4.145-1.323 5.578-.58-1.795-1.144-3.545-1.707-5.293.247-.102.494-.201.741-.301.217.387.433.775.768 1.379l1.521-1.363zM208.536 154.014c-1.854-2.023-1.98-4.223-1.04-6.606 1.836 1.544 2.243 3.951 1.04 6.606zM171.527 108.826c-.405-.607-1.169-1.231-1.14-1.818.042-.905-.498-2.492 1.338-2.452 1.838.041 1.321 1.676 1.536 2.674.094.439-.564 1.038-.881 1.566l-.853.03zM161.37 148.037c-1.705.154-3.41 1.393-4.956-.813 1.818-.464 3.584-3.267 4.956.813zM144.817 150.151c.217 3.671.014 4.072-2.615 5.187l-1.609-2.473c3.042 1.272 2.662-1.878 4.224-2.714zM190.744 109.659c1.568 0 3.143-.061 4.703.044.381.025.724.598 1.084.919-.393.264-.779.739-1.181.751a20.64 20.64 0 0 1-3.785-.202c-.448-.068-.818-.634-1.227-.973.136-.178.27-.359.406-.539zM86.11 178.131c.579-1.063.923-1.844 1.404-2.531.342-.488.867-.848 1.312-1.262.301.441.862.895.844 1.324-.029.646-.292 1.572-.763 1.846-.741.431-1.74.416-2.797.623zM151.662 153.418c-.307-1.068-.611-2.139-.949-3.323.768-.348 1.579-.714 2.409-1.091.415 3.666.415 3.666-1.46 4.414zM201.602 149.054l-1.524-2.924 1.435-1.589c1.852 1.615 1.852 1.615.089 4.513zM196.625 100.247c4.264-.496 5.046-.091 4.42 2.361l-.651-1.279c-1.498 1.503-3.187 1.058-3.769-1.082zM124.897 128.843l2.687 2.189c-2.442.77-5.308-1.52-5.352-3.508l2.722 1.37-.057-.051z"/><path d="M162.898 173.486c-.148-1.789-.299-3.582-.456-5.467 2.093.41 2.093.41 1.323 2.391-.09.314-.178.625-.268.934.509.92.521 1.686-.65 2.082l.051.06z"/><path fill="#FFF" d="M177.284 91.998l1.586 5.367h-3.61l-.051-.4c.343-.112.679-.298 1.027-.322 1.58-.106 1.947-.565.997-2.057-.385-.606.027-1.72.086-2.608l-.035.02zM134.087 171.703c4.05 1.539.364 3.779.839 5.498-1.131-1.558-.2-3.435-.839-5.498zM185.8 183.941c.803 0 1.387-.127 1.873.035.526.178.963.629 1.438.959-.262.332-.556.646-.784 1.004-.445.693-.855 1.412-1.728 2.002l.808-2.949c-.461.123-1.141.311-2.034.557l.427-1.608zM136.306 120.931v9.263l-.422.001v-9.232c.14-.012.282-.022.422-.032zM111.754 159.668c.417-1.246.791-2.51 1.289-3.727.086-.207.925-.379 1.013-.266.248.33.512.928.366 1.217-.541 1.076-1.245 2.068-1.887 3.092-.262-.103-.521-.211-.781-.316zM213.755 158.043c.272 1.387.703 2.844-1.467 3.08-1.335-2.012-1.335-2.012 1.525-3.025l-.058-.055zM162.576 187.184c.073.82.297 1.67.141 2.443-.062.311-1.016.715-1.446.607-.434-.105-1.103-.938-1.002-1.209.267-.723.888-1.314 1.367-1.959l.94.118zM183.819 101.41c.073-.352.061-1.362.342-1.452.861-.276 1.854-.316 2.761-.191.301.042.494.866.896 1.643h-3.999zM174.814 144.37c-.099-.082-.261-.147-.286-.247-.188-.734-.349-1.477-.543-2.333-.265.388-.499.733-.73 1.074l-.448-.06c.133-1.074.266-2.15.396-3.224.204-.02.408-.042.611-.061l1.56 4.723-.56.128zM181.34 128.691c.311 1.848.563 3.368.826 4.949-1.985-.876-2.497-3.083-.826-4.949zM140.373 93.459l-1.907 5.509c-1.111-1.929-.16-3.333.814-4.255.37-.351-.502-2.245 1.135-1.202l-.042-.052zM125.208 144.658c.48-.873.961-1.745 1.701-3.086l-1.242 7.537c-.15-.019-.302-.036-.451-.054v-4.413c.002-.008-.008.016-.008.016zM108.429 162.713l-.247 4.797-.871-.035c.058-1.324.063-2.656.219-3.971.034-.279.624-.49.957-.732l-.058-.059zM176.602 164.92l-.001-.053.962-1.039-.049.039c.716.176 1.43.352 2.245.555-.155.752-.292 1.406-.438 2.105-.961-.566-1.84-1.088-2.719-1.607zM178.572 176.783c-.22-.982-.377-1.691-.533-2.395.679-.615 1.37-1.242 2.315-2.102-.369 1.377-.661 2.477-.954 3.576.185.113.369.23.554.344l-1.382.577zM182.803 154.746c-2.439-1.596-3.481-3.682-2.934-5.625l2.934 5.625zM162.848 173.426c1.172-.396 1.159-1.162.65-2.082 1.096-.34 1.832-.445 1.222 1.16-.428 1.125-.543 2.369-.767 3.402l-1.105-2.48zM151.111 147.088l-2.954 1.48-.152-2.61 3.106 1.13zM214.209 187.721l2.239 2.727c-2.62.176-3.181-.318-2.879-2.186l.64-.541zM182.633 169.059l-2.041-2.328c.331-.193.894-.531 1.456-.863l1.16 3.012a72.15 72.15 0 0 0-.575.179z"/><path fill="#FFF" d="M108.486 162.771l.302-3.451c.236-.004.474-.012.711-.016l.252 3.738c-.489-.125-.91-.232-1.328-.334l.063.063zM175.974 144.501c1.13 2.475 1.018 3.668-.444 4.271.162-1.58.305-2.925.444-4.271zM186.333 133.225l-.659-3.774.631-.119c1.115 1.085.913 2.424.651 3.774l-.623.119zM212.668 189.711l1.721 3.43c-1.139-.268-1.792-.42-2.83-.662.764-.346 1.237-.559 2.528-1.145-1.012-.371-1.694-.621-2.377-.873.319-.248.639-.498.958-.75zM157.975 161.846c.252-.777.504-1.555.753-2.33.165-.021.33-.039.494-.057l1.315 3.033c-.967-.262-1.797-.486-2.629-.709l.067.063z"/><path d="M195.763 161.471l.85-2.445c.113-.002.225-.004.337-.004l-.261 5.145-.414.125-.455-2.893a9.552 9.552 0 0 1-.057.072zM152.898 172.232c-.881-.719-2.229-1.156-1.663-2.75.303-.85.614-1.695 1.132-3.123l.489 5.918c0 .002.042-.045.042-.045zM140.545 172.609c2.041-1.186 2.398-.613 1.909 3.199-.12-.611-.39-1.236-.327-1.83.113-1.078.336-2.062-1.582-1.369z"/></g></g></switch></svg>