<svg xmlns="http://www.w3.org/2000/svg" xmlns:xlink="http://www.w3.org/1999/xlink" width="300" height="300" viewBox="0 0 300 300"><switch><g><symbol id="a" viewBox="-150 -150 300 300.015"><path fill="#AEBCC4" d="M150-97.015c0-6.763 0-52.985-71.5-52.985H-84c-62.5 0-66 47.223-66 53.985v186c0 54.5 59.235 60 66 60l161.5.029c6.765 0 72.5-.029 72.5-60.029v-187z"/></symbol><use xlink:href="#a" width="300" height="300.015" x="-150" y="-150" transform="matrix(1 0 0 -1 150 150)" overflow="visible"/><g fill-rule="evenodd" clip-rule="evenodd"><path fill="#FFF" d="M63.221 190.138H31.542l-.001-162.187c70.989 0 242.058-.815 242.058-.054 0 64.851.001 97.51-.017 162.361 0 .604-17.621-.724-17.755-.12-.174-.268-.29-.634-.535-.782-1.111-.673-2.26-1.293-3.403-1.911-.15-.081-.37-.087-.549-.063-2.046.281-2.6-1.33-3.031-2.069-1.243-.144-2.08-.19-2.895-.353-.594-.114-1.16-.371-1.732-.584-2.273-.848-4.67-1.474-6.78-2.625-1.977-1.078-3.646-2.714-5.702-4.297-.125.855-.19 1.3-.268 1.82-.97-.356-1.897-.695-2.823-1.036 2.821 1.373-.582 2.996.465 4.302-.157.07-.315.144-.474.213-.906-1.101-1.813-2.202-2.83-3.44l1.505-.496-.535-.347c.423-.899.843-1.796 1.266-2.693l.788-.19c-1.128-1.236-2.254-2.475-3.423-3.76l1.185-1.975c-4.074 2.284-4.901 2.056-5.366-1.822-.65 1.127-1.037 1.796-1.337 2.313-1.091-.986-2.211-1.998-3.33-3.007l-.335.275c.457.849.915 1.694 1.407 2.606l-.91 1.421c-2.834-.437-2.075-2.87-2.44-4.411-.584-2.456-.527-5.064-.745-7.641.439-.349 2.036-.219.837-1.945-.304-.437-.048-1.234-.303-1.741-.543-1.078-.843-2.422-2.31-2.738l.058.055c-2.573-2.689-.104-5.177.38-7.724.082-.422.824-.72 1.311-1.114l.752 1.802c1.263-1.836.52-3.474-.096-5.119-.608-1.629-.542-3.828-3.278-3.604-1.279 1.814-3.474 2.26-5.325.631-.4.632-.817 1.29-1.025 1.615a760.381 760.381 0 0 0-1.187-2.618l2.979-.558c-1.64-1.369-3.376-2.82-5.12-4.28-.554 1.526-.554 1.526 1.292 1.786l.918 3.111c-.288.66-.567 1.323-.863 1.98-.239.528-.495 1.047-.742 1.572-.447-.44-1.11-.808-1.285-1.337-.204-.616.021-1.375.066-2.21-1.052.982-2.082 1.947-3.204 3l-.974-2.091c-.22.956-.369 1.614-.65 2.839l-4.091-12.592.634-.481c.393 3.667 3.501 3.723 5.8 5.113-.774-3.546-.618-4.211 1.142-5.256l.337 2.802c1.117-.644 1.915-1.049 2.646-1.552.257-.178.549-.646.486-.896-.543-2.178.32-1.913 1.675-1.046.424.271.958.459 1.459.507 1.857.172 3.722.27 5.583.395.027-.246.057-.491.085-.737-1.222-.33-2.543-.468-3.631-1.043-1.162-.614-2.104-1.643-3.14-2.491l-.428.49c.101.242.206.48.301.724.114.296.222.597.334.899-.527-.189-1.027-.565-1.413-.475-2.016.48-2.676.041-2.432-2.066.194-1.681-.986-2.3-2.059-2.402-1.273-.121-2.61.433-4.143.737.612 1.358 1.324 2.518 1.647 3.778.294 1.139 1.479 2.619-.79 3.603-.902-1.292-1.803-2.59-2.718-3.877-.187-.261-.441-.688-.651-.68-2.375.088-2.331-1.235-1.338-3.498-2.298.788-4.029 1.427-5.789 1.966-.881.271-1.819.502-2.731.497-.867-.005-1.734-.342-2.603-.532-.027.163-.056.328-.082.49l-1.742-1.839c.248 1.112.373 1.673.479 2.138-2.648.931-5.107 1.242-7.182-1.895-.603 1.216-1.121 1.933-1.316 2.729-.393 1.604-.75 3.24-.866 4.881-.2 2.9-2.854 5.665-.387 8.734-1.233-1.478-2.356-2.912-1.189-4.88.145-.242.125-.689.004-.966-.882-2.012-.859-4.043-.404-6.159.332-1.55.433-3.15.561-4.137-.914-.927-1.937-1.478-1.966-2.076-.16-3.285-.076-6.581-.076-9.873l.919-.192c.582 1.116 1.161 2.232 1.702 3.276l.47-5.295 3.175.19.17 2.205c.906-1.304 1.58-2.272 2.25-3.239.401.327 1.078.874 1.895 1.536l.467-1.974c.854 1.158 1.511 2.447 2.626.62.557 1.238 1.498 1.402 2.659.963-2.313 1.251-.309 2.331.12 3.613.194-.746.43-1.351.49-1.972.063-.65-.04-1.318-.072-1.979l2.516.273c-.021.456-.065 1.353-.1 2.072l2.602.596.628 3.675 1.707-3.132c1.508.454 2.815.846 4.117 1.236-.292 2.018.017 3.142 1.084 3.866.186-2.485.37-4.944.541-7.269l2.489-.985c.313.253.77.622 1.515 1.22l.763-1.445.198.655c.9 0 1.962-.305 2.666.067 1.246.656 2.655 1.117 3.468.11.653-.806.408-2.336.512-3.147-1.087.316-1.817.634-2.568.692-.289.023-.624-.544-.81-.722-.292.124-.788.512-1.273.501-1.189-.024-2.376-.361-3.562-.345-3.229.042-6.46.202-9.833.321v-9.955l.332-.019.5 7.986c.153-.665.296-1.268.436-1.87.196-.058.39-.117.586-.177.403.709.809 1.419 1.057 1.853.152-.311.444-.901.736-1.492l1.219 1.139v-4.877l-4.153-.44v-2.39c.449 0 .776-.01 1.101.001 2.129.072 4.193.152 3.909 3.241-.045.484.653 1.037 1.007 1.557l.032-.643 2.407-.303c.146.798.248 1.362.389 2.123l.472-.672 3.411 2.124 1.936-.155c-1.739-.747-1.739-.747-1.45-1.893.224.157.445.314.794.561-.048-.92-.083-1.63-.093-1.824-.6-.42-1.041-.62-1.02-.732.099-.52.364-1.46.5-1.449 1.341.117 2.681.34 3.993.651.561.132 1.056.545 1.607.847l-1.557.451c2.948.539 5.838.696 8.724.89 2.772.186 2.82.203 2.807 2.956-.006 1.341-.413 2.698-.306 4.021.263 3.232.842 6.439 1.071 9.672.346 4.89-.029 9.841 1.417 14.848l-4.536-1.451c-.1.129-.198.26-.297.389 1.075.772 2.117 1.6 3.242 2.29.525.322 1.401.196 1.785.592.866.894 1.524 1.988 2.265 3-1.366-2.219.67-1.973 1.743-2.4-.312-2.939-.426-5.895-.973-8.769-.946-4.971-2.207-9.882-3.209-14.844-.156-.776.368-1.69.604-2.647-.131-.504-.494-1.3-.519-2.106-.079-2.517-.017-5.039-.042-7.558-.008-.703-.384-1.533-.115-2.066.186-.369 1.187-.327 1.833-.472l-2.959-5.691-2.944 6.678c-2.147 0-4.355.045-6.56-.014-2.003-.053-4.259-3.626-3.575-5.596.036-.102.31-.122.534-.202-.418-.234-1.011-.379-1.048-.615-.563-3.462-1.055-6.938-1.607-10.702h2.881l-3.412-7.313-1.326 2.961-2.496.483-.144 2.66-.561-.382c-.379.328-.803.618-1.128.993-.509.589-.952 1.236-1.42 1.858.229-.612.461-1.224.692-1.835l1.403-3.182h-1.206c.03-.688.059-1.302.088-1.916l-.505-.14-.796 1.216c-.424-1.977.941-4.204-.982-5.987l.083 1.677c-1.002-.59-1.953-1.338-1.75.685.022.217-.651.505-1.003.761l.063.048c-.203-1.46-.42-2.921-.607-4.384-.071-.57-.08-1.15-.116-1.725l-.659-.072c.832-1.66 1.664-3.321 2.628-5.249l4.117 1.322c.402-.592.178-1.522-.76-1.693-1.161-.212-2.371-.218-3.493-.546-.525-.153-1.207-.812-1.271-1.312-.187-1.441-.296-2.769-1.798-2.696 0-1.907-.035-3.664.024-5.416.015-.445.325-.882.498-1.321.393.231 1.055.395 1.131.704.496 2.012 1.814 1.375 3.108 1.14.579-.105 1.312-.056 1.796.229.383.225.494.916.876 1.708.573-.893.874-1.361 1.174-1.831.547.127 1.091.256 1.856.436-1.219-2.438-2.32-4.641-3.474-6.946-.196.691-.324 1.265-.524 1.812-.196.537-.465 1.045-.895 1.986-4.254-9.735-6.619-19.595-9.084-29.615-1.402 11.397-4.867 25.974-7.218 29.781-.663-2.107-1.226-3.902-1.526-4.864-.763 1.807-1.829 4.321-2.881 6.84-.095.228-.149.5-.129.742.179 2.119.293 4.25.615 6.349.14.905.565 1.877 1.147 2.581 1.449 1.748 2.788 3.43 2.573 5.929-.135 1.59.132 3.213.076 4.815-.047 1.365-.291 2.724-.462 4.083-.009.062-.16.106-.21.138-.146-.333-.288-.658-.567-1.301-.339.915-.55 1.483-.84 2.273-6.306-.295-12.55-.586-18.79-.879-.192 4.587-.192 4.587-.583 4.77l-.604-5.425a104.31 104.31 0 0 0-.801-.021c-.357 6.836-.717 13.672-1.08 20.591-1.607 0-3.08-.066-4.546.013-3.104.167-6.137.346-7.181-3.639-.128-.489-1.003-.8-1.558-1.153-.842-.535-1.688-.906-2.279.338l.042.051c-.638-1.181 2.08-2.436.355-3.352-4.86 1.863-9.485 3.322-14.389 4.058 0-1.783-.014-3.652.014-5.522.003-.282.144-.593.307-.832.211-.31.509-.558.769-.834-.2-.117-.485-.382-.586-.325-.365.206-.886.475-.955.803-.35 1.662-.49 3.369-.872 5.021-.304 1.319-.85 2.584-1.288 3.873l-.551-.164-3.798-8.531c-1.784 3.557-3.451 6.866-5.088 10.191-.092.187.054.496.105.745.184.881.529 1.758.536 2.64.057 7.234.054 14.468.059 21.703.001.646-.055 1.288-.086 1.981-.98 0-1.774.045-2.561-.007-2.705-.183-4.176.921-5.215 3.26-1.014 2.285-2.293 4.482-3.699 6.551-1.682 2.479-4.212 4.541-5.293 7.22-1.277 3.162-3.202 5.791-4.972 8.574-1.728 2.719-3.313 5.403-3.3 8.824.006 1.561-.18 3.778-1.173 4.557-2.443 1.911-4.151 4.256-5.771 6.779-1.358 2.116-3.04 4.058-4.166 6.283-.965 1.907-2.402 2.844-4.203 3.703-1.534.731-3.13 1.66-4.228 2.915-2.55 2.905-4.813 6.065-7.19 9.125zm154.427-34.135l1.513.452c.316 1.615.583 2.971.859 4.39.69.032 1.335.064 1.963.104-.391 1.522-.781 3.048-1.17 4.57.178.055.357.107.536.16l1.247-1.093.971 2.746c.483-1.297 1.15-2.198.974-2.88-.151-.584-1.271-.92-2.176-1.5l-.395-2.004c-1.438-1.253-1.303-2.651-.379-4.119.649-1.033 1.123-1.985.184-3.21-.344-.444-.056-1.374-.056-2.054l-.564.384-5.418-6.153v2.392c1.864-.102 2.419.906 2.303 2.506-.13 1.788-.228 3.579-.343 5.365-.244-.188-.492-.377-.744-.569-1.283 2.854-1.176 5.479.303 6.838.133-2.132.264-4.227.392-6.325zm11.316-13.99c.876 2.814 2.375 5.472-.409 7.795-.042.032-.049.123-.053.188-.221 3.192-.594 6.387-.597 9.581-.003 1.71.628 3.427.976 5.138.265-.043.53-.085.796-.13 0-4.244-.055-8.49.055-12.734.018-.656.687-1.734 1.228-1.856 2.014-.458 2.669-2.017 3.421-3.56.574-1.181 1.129-2.372 1.767-3.719l4.512 2.08.483-.353c-.829-2.142-1.648-4.287-2.498-6.421-.083-.213-.334-.487-.53-.508-1.771-.177-3.544-.302-5.318-.445 1.896 1.329 3.074 3.006 2.657 5.104-.133.673-1.974 1.009-2.813 1.397l-7.071-8.138c.465 1.451 1.135 2.735 2.052 3.806.903 1.058 2.061 1.9 3.344 3.047-.752-.101-1.228-.166-2.002-.272zm.928 4.916c-.68-2.977-2.394-4.432-4.86-4.911-1.168 2.531-.354 4.696 1.966 6.758l.721-3.411 2.173 1.564zm2.82-6.68c-.364-3.009-3.153-3.909-4.83-6.112-.643 4.143 4.13 3.421 4.83 6.112zm-19.368 12.471l.849-.009c.164-1.465.323-2.929.506-4.583l-1.354-.976-.001 5.568zm-.245-18.457c-1.673-3.254-3.281-4.098-4.961-2.947l4.961 2.947zm-16.124-77.292l.705-.218-.828-3.567-1.164 1.047c-.124-.419-.217-.73-.307-1.042l-.364.09c.052 1.06.106 2.12.177 3.521.344-.588.488-.835.643-1.096.395.441.767.855 1.138 1.265zm1.786 3.951l1.863-1.562c-.856-.801-1.556-1.457-2.156-2.021l.293 3.583zm1.912 75.103c-.608-.891-1.198-1.755-1.786-2.621l-.461.313c.643 3.006.643 3.006 2.247 2.308z"/><path fill="#080828" d="M211.223 153.161c1.467.316 1.767 1.66 2.31 2.738.255.507-.001 1.305.303 1.741 1.199 1.727-.397 1.597-.837 1.945.218 2.576.161 5.185.745 7.641.365 1.541-.394 3.975 2.44 4.411l.91-1.421-1.407-2.606.335-.275c1.119 1.009 2.239 2.021 3.33 3.007.3-.517.687-1.186 1.337-2.313.465 3.878 1.292 4.106 5.366 1.822l-1.185 1.975c1.169 1.285 2.295 2.523 3.423 3.76l-.788.19c-.423.897-.843 1.794-1.266 2.693.18.115.356.231.535.347l-1.505.496c1.017 1.238 1.924 2.34 2.83 3.44.158-.069.316-.143.474-.213-1.047-1.306 2.356-2.929-.465-4.302.926.341 1.854.68 2.823 1.036l.268-1.82c2.056 1.583 3.726 3.219 5.702 4.297 2.11 1.151 4.507 1.777 6.78 2.625.572.213 1.139.47 1.732.584.814.162 1.651.209 2.895.353.432.739.985 2.351 3.031 2.069.179-.024.398-.019.549.063 1.144.618 2.292 1.238 3.403 1.911.245.148.361.515.535.782h-31.362c.857-.581 1.716-1.159 2.576-1.738-.246-.166-.494-.327-.739-.493l-2.094-1.734c-.34 1.412-.646 2.689-.95 3.966H63.221c2.377-3.06 4.64-6.22 7.185-9.13 1.098-1.255 2.694-2.184 4.228-2.915 1.801-.859 3.237-1.796 4.203-3.703 1.125-2.226 2.808-4.167 4.166-6.283 1.62-2.523 3.329-4.868 5.771-6.779.994-.778 1.18-2.996 1.173-4.557-.013-3.421 1.573-6.104 3.3-8.824 1.77-2.783 3.695-5.412 4.972-8.574 1.081-2.68 3.612-4.742 5.293-7.22 1.405-2.069 2.685-4.266 3.699-6.551 1.039-2.339 2.51-3.443 5.215-3.26.787.053 1.581.007 2.561.007.031-.693.087-1.335.086-1.981-.005-7.235-.002-14.469-.059-21.703-.006-.882-.352-1.759-.536-2.64-.051-.249-.197-.558-.105-.745 1.637-3.325 3.304-6.634 5.088-10.191l3.798 8.531.551.164c.438-1.289.984-2.554 1.288-3.873.382-1.653.522-3.359.872-5.021.069-.328.59-.597.955-.803.101-.058.386.208.586.325-.26.276-.558.524-.769.834-.163.239-.303.55-.307.832-.027 1.87-.014 3.739-.014 5.522 4.903-.736 9.529-2.195 14.389-4.058 1.724.916-.994 2.171-.356 3.351-1.58-1.006-.738.821-1.095 1.16-.94.89-1.857 2.245-.786 4.106l1.84-5.315c.591-1.245 1.437-.874 2.279-.338.555.353 1.43.664 1.558 1.153 1.044 3.985 4.076 3.806 7.181 3.639 1.466-.079 2.938-.013 4.546-.013.363-6.919.723-13.755 1.08-20.591.268.007.535.013.801.021l.604 5.425c.391-.183.391-.183.583-4.77l18.79.879c.29-.79.501-1.358.84-2.273.279.643.422.969.567 1.301.05-.032.201-.076.21-.138.171-1.359.415-2.718.462-4.083.056-1.602-.211-3.225-.076-4.815.215-2.499-1.124-4.181-2.573-5.929-.582-.704-1.008-1.676-1.147-2.581-.322-2.099-.437-4.23-.615-6.349a1.642 1.642 0 0 1 .129-.742c1.052-2.519 2.118-5.033 2.881-6.84.301.962.863 2.756 1.526 4.864 2.351-3.807 5.815-18.384 7.218-29.781 2.465 10.02 4.83 19.879 9.084 29.615.43-.94.698-1.449.895-1.986.2-.547.328-1.121.524-1.812l3.474 6.946c-.766-.18-1.31-.309-1.856-.436l-1.174 1.831c-.382-.792-.493-1.482-.876-1.708-.484-.284-1.217-.333-1.796-.229-1.294.234-2.612.872-3.108-1.14-.076-.309-.738-.473-1.131-.704-.173.439-.483.876-.498 1.321-.06 1.752-.024 3.509-.024 5.416 1.502-.073 1.611 1.255 1.798 2.696.064.5.746 1.158 1.271 1.312 1.122.328 2.332.334 3.493.546.938.171 1.162 1.101.76 1.693l-4.117-1.322-2.628 5.249.659.072c.036.575.045 1.155.116 1.725.188 1.463.404 2.923.607 4.384-.534.868-1.085 1.727-1.598 2.608-.215.367-.265.855-.534 1.164-1.893 2.159-3.821 4.285-5.768 6.45 2.467 1.873 6.159 2.087 8.254.832.294-.177.948-.316 1.037-.19 1.369 1.944 2.943.951 4.504.488-.224-2.205-.224-2.205-1.982-2.679.468-.622.911-1.27 1.42-1.858.325-.375.749-.665 1.128-.993l.561.382.144-2.66 2.496-.483 1.326-2.961 3.412 7.313h-2.881c.553 3.764 1.044 7.239 1.607 10.702.037.235.63.38 1.048.615-.225.08-.498.1-.534.202-.684 1.97 1.572 5.543 3.575 5.596 2.204.059 4.412.014 6.56.014.979-2.219 1.926-4.365 2.944-6.678l2.959 5.691c-.646.145-1.647.103-1.833.472-.269.533.107 1.363.115 2.066.025 2.52-.037 5.041.042 7.558.024.807.388 1.602.519 2.106-.235.957-.76 1.871-.604 2.647 1.002 4.962 2.263 9.873 3.209 14.844.547 2.874.661 5.829.973 8.769-1.073.428-3.109.181-1.743 2.4-.74-1.012-1.398-2.106-2.265-3-.384-.396-1.26-.271-1.785-.592-1.125-.689-2.167-1.518-3.242-2.29.099-.129.197-.26.297-.389l4.536 1.451c-1.446-5.006-1.071-9.958-1.417-14.848-.229-3.233-.809-6.439-1.071-9.672-.107-1.322.3-2.679.306-4.021.014-2.753-.034-2.77-2.807-2.956-2.886-.194-5.775-.351-8.724-.89l1.557-.451c-.552-.302-1.047-.715-1.607-.847a27.737 27.737 0 0 0-3.993-.651c-.136-.012-.401.929-.5 1.449-.021.112.42.312 1.02.732.01.194.045.904.093 1.824-.349-.247-.57-.404-.794-.561-.289 1.146-.289 1.146 1.45 1.893l-1.936.155-3.411-2.124-.472.672c-.141-.761-.242-1.325-.389-2.123l-2.407.303-.032.643c-.354-.52-1.052-1.073-1.007-1.557.284-3.088-1.78-3.168-3.909-3.241-.324-.011-.651-.001-1.101-.001v2.39l4.153.44v4.877l-1.219-1.139c-.292.591-.584 1.181-.736 1.492l-1.057-1.853c-.196.06-.39.119-.586.177-.14.602-.282 1.205-.436 1.87l-.5-7.986-.332.019v9.955c3.373-.119 6.604-.28 9.833-.321 1.186-.016 2.372.321 3.562.345.485.011.981-.378 1.273-.501.186.178.521.745.81.722.751-.058 1.481-.375 2.568-.692-.104.812.142 2.341-.512 3.147-.813 1.007-2.222.546-3.468-.11-.704-.372-1.766-.067-2.666-.067l-.198-.655c-.245.467-.492.934-.763 1.445-.745-.598-1.202-.967-1.515-1.22l-2.489.985a5742.26 5742.26 0 0 1-.541 7.269c-1.067-.724-1.376-1.848-1.084-3.866l-4.117-1.236-1.707 3.132-.628-3.675c-.869-.2-1.871-.43-2.602-.596l.1-2.072-2.515-.273c-.179.112-.358.226-.539.337-1.161.439-2.103.275-2.659-.963-1.115 1.828-1.772.539-2.626-.62l-.467 1.974-1.895-1.536c-.67.967-1.344 1.936-2.25 3.239l-.17-2.205-3.175-.19-.47 5.295c-.541-1.044-1.12-2.16-1.702-3.276l-.919.192c0 3.292-.084 6.588.076 9.873.029.598 1.052 1.148 1.966 2.076-.128.986-.229 2.586-.561 4.137-.455 2.116-.478 4.147.404 6.159.121.277.141.724-.004.966-1.167 1.968-.044 3.402 1.189 4.88-2.467-3.069.187-5.834.387-8.734.116-1.641.474-3.278.866-4.881.195-.796.714-1.513 1.316-2.729 2.074 3.136 4.533 2.826 7.182 1.895l-.479-2.138 1.742 1.839c.026-.163.055-.328.082-.49.868.19 1.735.527 2.603.532.912.005 1.851-.226 2.731-.497 1.76-.54 3.491-1.178 5.789-1.966-.993 2.263-1.037 3.586 1.338 3.498.21-.007.465.419.651.68.915 1.287 1.815 2.585 2.718 3.877 2.269-.984 1.084-2.464.79-3.603-.323-1.26-1.035-2.419-1.647-3.778 1.532-.305 2.869-.858 4.143-.737 1.072.103 2.253.722 2.059 2.402-.244 2.107.416 2.546 2.432 2.066.386-.09.886.286 1.413.475-.112-.302-.22-.604-.334-.899-.095-.243-.2-.482-.301-.724l.428-.49c1.036.848 1.978 1.876 3.14 2.491 1.088.575 2.409.713 3.631 1.043-.028.247-.058.492-.085.737-1.861-.125-3.726-.223-5.583-.395a3.415 3.415 0 0 1-1.459-.507c-1.354-.866-2.218-1.132-1.675 1.046.063.25-.229.718-.486.896-.73.503-1.528.908-2.646 1.552l-.337-2.802c-1.76 1.045-1.916 1.709-1.142 5.256-2.299-1.39-5.407-1.446-5.8-5.113-.21.161-.422.321-.634.481l4.091 12.592.65-2.839.974 2.091c1.122-1.053 2.152-2.018 3.204-3-.046.835-.271 1.594-.066 2.21.175.529.838.897 1.285 1.337.247-.524.503-1.044.742-1.572.296-.657.575-1.32.863-1.98l-.065-.056 1.183 2.615a406.7 406.7 0 0 0 1.025-1.615c1.852 1.629 4.046 1.183 5.325-.631 2.736-.224 2.67 1.975 3.278 3.604.615 1.645 1.358 3.282.096 5.119l-.752-1.802c-.486.394-1.229.692-1.311 1.114-.483 2.547-2.953 5.034-.381 7.722-2.761.979-2.761.979-1.472 2.919 2.097-.224 1.681-1.63 1.419-2.968zm-101.577 4.563c-.321.234-.89.438-.923.707-.15 1.269-.155 2.554-.211 3.831l.84.034c.08-1.542.159-3.085.23-4.638l1.285.328-.244-3.607c-.229.004-.458.011-.686.015-.096 1.11-.193 2.221-.291 3.33zm52.456 10.281l1.066 2.394c.216-.997.327-2.198.739-3.283.589-1.55-.121-1.447-1.179-1.12.087-.298.172-.597.257-.896 2.534-2.859 1.643 2.122 3.474 1.129l1.175-3.191c1.727 1.355 1.749 4.637-.116 6.35l.153.531c.713-.229 1.426-.458 2.708-.872l-.645 4.317c.189.063.748.243 1.307.422l-.186-.646c1.628-.73 3.256-1.46 4.963-2.228l-2.047-8c1.299.257 2.569 2.252 2.354 4.154 2.29-.642.964-2.576 1.667-3.816l-2.179-.313-.241-3.138c.849.501 1.696 1.005 2.624 1.551l.422-2.031c-.787-.196-1.476-.365-2.163-.535.752-.594 1.504-1.188 2.256-1.779l-.308-.446c-.336.146-.675.294-1.013.438a30.176 30.176 0 0 0-.229-.274c.556-.681 1.109-1.361 1.87-2.298l-1.776-.686c-.446-1.017-.615-1.747-1.037-2.276-.529-.662-1.084-1.589-2.215-.56-.679.614-1.596 1.313-2.424 1.339-1.543.05-1.812.94-1.701 1.966.209.628.415 1.256.708 2.145 1.624.658 3.77 1.525 5.913 2.394-.311.334-.619.669-.928 1.003-1.344-.669-2.688-1.338-4.029-2.011l-.465 1.404c-1.196-2.032-3.064-2.494-4.875-2.375-1.75.113-2.748-1.125-4.137-1.607-.27-.095-.329-.792-.664-1.687 1.268.55 2.317.671 2.69 1.234 1.241 1.883 1.783.324 2.797-.249l-5.365-2.019c-.543 1.212-1.114 2.493-1.924 4.305l3.081-.892c-.056.98.014 1.891-.191 2.736-.277 1.143-1.025 2.215-1.103 3.349-.106 1.559-.916 2.349-2.137 2.969.309-1.121.343-2.446.99-3.319.928-1.249.403-1.646-.712-2.276-.259.703-.468 1.269-.675 1.836-.149.019-.296.039-.444.061-.291-1.479-.582-2.957-.875-4.437l2.537.686-1.27-2.927c-.158.018-.317.034-.477.055-.241.748-.483 1.499-.727 2.249-2.772 1.916-3.014 4.66-.668 6.079l-.299-3.068.802-.084c-.398 1.592 1.214 2.785.55 4.559-.321.855.504 1.272 1.329.49-.772 2.043-.178 3.744 1.409 5.503-.04-1.384-.066-2.574 1.628-2.247l-.045-.062zm6.001-64.289c.25.149.5.299.751.447.059-1.389.662-3.603.064-3.998-1.244-.821-.448-1.609-.603-2.406l.512.691c.706-2.239-.088-2.741-3.18-2.066l.957 3.39-1.136-1.451c0 2.154-.115 3.899.068 5.612.056.51.894 1.227 1.464 1.326 1.044.183 1.357-.575 1.103-1.545zm-42.621 21.269l3.713 2.025c2.011-1.139 3.157 1.369 4.965.822-.274-.917-.567-1.896-.858-2.876a41 41 0 0 0-.37.022c-.105.367-.211.736-.315 1.105a83.52 83.52 0 0 0-.678-.165l.657-2.31-1.807-1.165c-.178.094-.357.187-.535.279l.489 2.502-2.302.879c-.521-.661-.992-1.396-1.607-1.973-.261-.246-.827-.168-1.254-.238-.016.382-.029.762-.042 1.142l-2.627-1.322c.042 1.918 2.807 4.127 5.164 3.385l-2.593-2.112zm50.574-35.565c-.047.852-.444 1.926-.073 2.511.917 1.439.563 1.882-.962 1.985-.337.023-.661.202-.992.31l.05.386h3.483l-1.53-5.179-2.769-5.445c-1.142 4.116-.683 8.197 1.266 9.235l.292-4.664c.468.318.86.584 1.235.861zm2.557 12.233c-.232-1.243-.468-2.486-.7-3.729l.49-.052c.152.286.306.571.46.856l.564-.32c-.29-.582-.455-1.499-.899-1.665-.63-.237-1.466.084-2.212.166l.613 1.625c-.885.794-1.329 5.931-.306 6.602.567.372 1.459.247 2.724.415-.316-1.588-.553-2.769-.787-3.948 1.97.177.767 1.693 1.099 2.564.185.479.409 1.181.77 1.294.477.15 1.284.005 1.631-.336.864-.86-.068-3.381-1.234-3.785-.75-.26-1.429-.721-2.212-1.128l-.001 1.441zm-52.831 38.593c-.247-1.219.879-2.827-1.008-3.597-1.039 3.011-1.564 3.368-4.33 2.931.386 1.82 1.245 3.694 1.012 5.421-.212 1.568-.099 2.541.899 3.34 3.028-2.326-.488-4.196-.395-6.155 1.116-1.25 3.351.292 3.83-1.949v4.251l.435.052 1.198-7.272-1.641 2.978zm26.678 26.652c.248.892.828 1.851.661 2.653-.198.946-1.044 1.755-1.723 2.801 1.193-.168 2.056-.289 2.884-.403l.41-1.879 1.559 2.372.907-.604c-.911-1.378-1.823-2.756-2.873-4.339l1.078-3.769-.384-.107c-.218.428-.438.854-.896 1.754-.363-1.715-.828-2.911-.817-4.103.018-1.715-.067-3.022-2.404-2.448-.134 1.065-.279 2.19-.445 3.51-.645-.275-1.096-.47-1.783-.762 1.244 2.009 1.214 2.003.747 4.365-.154.778-.108 1.596-.154 2.395l.623.021.373-1.895c.121 0 .242 0 .364.002l.312 2.67c-.755.308-1.411.569-2.094.847.89.541 1.62.985 2.174 1.325.492-1.435 1.009-2.942 1.525-4.452l-.044.046zm54.67-.769c-1.619-.643-1.056-2.084-1.134-3.247-.088-1.312-.019-2.631-.019-4.218-1.345 1.73-2.167 3.236-.879 5.298-.875-.041-1.571-.258-2.17-.633-1.525-.954-2.172-3.64-4.34-2.531-.061-1.216-.13-2.515-.191-3.814-.131-2.757-1.958-5.089-1.826-7.997.047-1.04 1.096-2.934-1.01-3.608-.088-.028-.16-.542-.049-.679 1.113-1.397.407-1.999-.923-2.614-1.226-.568-1.834-1.598-1.873-3.101-.052-1.907-.375-3.822-.774-5.693-.092-.439-.913-.805-1.471-1.034-.474-.195-1.048-.143-1.219-.16l1.383 8.456.95-.712c.46.9 1.192 1.657 1.146 2.363-.235 3.556-.583 7.08.964 10.476.122.268-.263.975-.6 1.198-1.193.798-.802 1.595-.293 3.029l.566-1.674c.196.496.344.865.491 1.234l.054-.066c-1.723 2.207-1.73 2.577-.038 4.801l.259-.553c1.038.243 1.897.441 2.805.654.294.448 1.032 1.078 1.082 1.757.12 1.634.987 2.146 2.358 1.884 1.453-.274 2.681.101 3.929.741.907.467 1.876.809 3.01 1.287l-.28-.91c.465-.505.933-1.009 1.409-1.521l2.462 1.566-.511-4.476c1.793-.375 2.914-4.495 1.496-6.242l-2.474 6.23c-.924.168-1.938.196-1.97.385-.218 1.357-.239 2.745-.32 4.124zm-64.209-5.983l2.61 3.993c.915-2.333 3.661-3.385 3.092-6.154l.809 3.105.322-.098.458-3.516c.796.164 1.459.3 2.286.472l-1.528-3.356c-1.434.16-2.708.381-3.989.434-3.113.126-3.115.092-3.537 3.142l-1.21-1.297-.638.119.463 4.431c.174 0 .348-.002.521-.004l.341-1.271zm40.625-25.28l-.735-.049c-.299 1.205-.688 2.396-.873 3.615-.272 1.814.688 3.811-.847 5.442-.134.141-.206.438-.165.633.369 1.841.719 3.687 1.188 5.501.142.55.634 1.01.967 1.509.461-.357.923-.718 1.245-.966l1.397.861c.202-.41.384-.835.605-1.234.124-.221.279-.526.483-.588 1.639-.501.979-1.57.562-2.465-.244-.526-.776-.917-1.204-1.394l-.583.868c-2.201-3.717-1.981-7.752-2.04-11.733zm13.449 32.742c-.147.192-.298.385-.447.577.268.981.264 2.222.883 2.866.561.584.719.839.083 1.137-.432.203-1.383.188-1.553-.077-1.18-1.856-2.217-3.806-3.507-6.092-.578 1.027-1.057 1.878-1.332 2.363-.746.048-1.293.081-1.618.104.611 1.37 1.024 2.404 1.531 3.39.255.496.68 1.289 1.028 1.289 2.923.014 5.85-.11 8.771-.243.514-.022 1.018-.28 1.794-.511-1.09-.791-1.905-1.302-2.623-1.93-1.04-.913-2.009-1.91-3.01-2.873zm-76.098-32.042l2.6 2.001 1.331-3.414 1.26 2.351c.517-.537 1.248-.945 1.385-1.501.43-1.748-1.322-3.507-3.127-3.347-.435.038-.883-.086-1.5-.156l-.726 1.213c-1.569-2.26-1.244 1.758-2.602.407l.71-1.641-.555-.322c-.543.905-1.604 1.87-1.511 2.705.141 1.266 1.084 2.444 1.91 4.111l.825-2.407zm20.306 26.174c-.821 1.968-1.671 3.74-2.258 5.599-.138.438.555 1.199.97 1.732.339.436.969.673 1.229 1.135.416.74.635 1.592.938 2.4 4.527-1.771 4.224-1.962 3.298-4.222-.572-.446-1.08-.981-1.234-1.607-.149-.603.225-1.34.075-1.941a5.187 5.187 0 0 0-1.091-2.103c-.156-.178-.984.231-1.563.388l-.364-1.381zm44.831-29.602c1.358 4.375.894 8.68.826 13.077 1.063-1.599 1.965-3.252 2.485-5.016.235-.8-.514-1.844-.42-2.736.391-3.713-2.318-5.478-4.556-7.546-.115-.107-.604-.028-.703.113-.163.239-.289.654-.19.897.524 1.294 1.123 2.557 1.798 4.056l.76-2.845zm-6.795 38.147l.409 1.289 4.968.442c1.731-2.678 1.273-4.962-.71-7.267-.117 1.31-.219 2.449-.355 3.993l-1.648-2.163-2.664 3.706zm-59.213-25.57l-2.871-4.686-.455.294v2.371c-.163.08-.325.158-.488.239l-.47-1.343c-1.816 1.255-2.581 2.238-.847 3.694.293.246-.119 1.333-.192 1.92.373 1.082.734 2.122 1.269 3.669.443-2.998.786-5.555 4.054-6.158zm15.766-37.359l2.605.484c-.396-1.281-.973-2.237-.911-3.15.109-1.651.631-3.27.924-4.914.534-2.991-.152-3.792-2.618-2.947v10.527zm36.682-8.917l1.025-.927v3.518l-1.035-1.613c0 1.595.024 2.729-.007 3.861-.034 1.179.082 2.182 1.647 2.105 1.476-.072 1.937-.949 1.805-2.264-.216-2.156-.47-4.31-.703-6.464-2.624-.499-2.931-.328-2.732 1.784zm14.783 60.184l.583-.624c-3.276-3.528-6.523-7.094-11.053-9.067-.164.204-.33.403-.495.607l10.965 9.084zm-3.789-59.433v6.283l2.839.314c-.155-1.915-.345-3.528-.402-5.146-.057-1.685-.865-2.024-2.437-1.451zm15.397 50.323c-.839 2.765.61 4.982 1.165 7.316.037.154.737.339 1.002.222 1.005-.448 1.105-4.027.11-4.121-2.267-.223-1.492-2.124-2.277-3.417zm-9.233-107.067c.16.241.324.48.686 1.021l-.558-8.102c-1.147.658-1.448 3.424-1.105 9.342l.977-2.261zm15.922 109.398l-1.468 1.315c-.324-.582-.532-.957-.741-1.33-.238.096-.477.192-.715.29l1.646 5.107c2.647-1.383 1.121-3.471 1.278-5.382zm.633-2.571c1.161-2.561.769-4.885-1.004-6.374-.907 2.299-.785 4.422 1.004 6.374zm-35.71-43.603l.823-.029c.306-.509.94-1.087.85-1.511-.207-.964.292-2.542-1.481-2.581-1.771-.039-1.251 1.493-1.291 2.366-.029.567.707 1.17 1.099 1.755zm-9.801 37.836c-1.324-3.937-3.028-1.231-4.782-.784 1.491 2.128 3.136.933 4.782.784zm-15.973 2.04c-1.507.807-1.141 3.846-4.076 2.619.645.99 1.104 1.694 1.553 2.386 2.537-1.076 2.732-1.462 2.523-5.005zm44.316-39.071l-.391.521c.394.327.751.873 1.184.939a19.99 19.99 0 0 0 3.652.194c.388-.012.761-.47 1.14-.725-.348-.31-.679-.863-1.046-.887-1.506-.1-3.026-.042-4.539-.042zm-100.963 66.07c1.02-.2 1.983-.186 2.699-.602.455-.264.708-1.157.736-1.781.018-.414-.524-.852-.814-1.277-.429.399-.935.746-1.266 1.217-.464.664-.797 1.418-1.355 2.443zm63.252-23.846c1.81-.722 1.81-.722 1.409-4.259-.801.364-1.583.717-2.324 1.052.325 1.143.619 2.175.915 3.207zm48.187-4.211c1.702-2.797 1.702-2.797-.086-4.354l-1.385 1.533c.509.976 1.027 1.967 1.471 2.821zm-4.802-47.095c.562 2.065 2.191 2.495 3.637 1.044l.628 1.234c.605-2.366-.15-2.757-4.265-2.278zm-60.344 68.949c.617 1.99-.281 3.802.81 5.306-.458-1.659 3.098-3.821-.81-5.306zm49.899 11.809l-.413 1.551c.862-.237 1.519-.418 1.963-.537l-.779 2.846c.842-.569 1.237-1.263 1.667-1.932.221-.345.504-.648.757-.969-.458-.318-.879-.754-1.387-.925-.47-.157-1.034-.034-1.808-.034zm-47.757-60.799l-.408.03v8.909l.408-.001v-8.938zM112.8 154.729c.251.102.501.205.752.305.62-.987 1.299-1.944 1.821-2.982.142-.279-.114-.856-.353-1.175-.084-.109-.895.057-.978.257-.479 1.174-.84 2.393-1.242 3.595zm49.039 26.55l-.907-.112c-.463.621-1.062 1.192-1.319 1.89-.097.262.549 1.065.967 1.167.416.104 1.336-.287 1.396-.586.15-.747-.066-1.567-.137-2.359zm20.498-82.764h3.858c-.388-.75-.574-1.544-.864-1.585-.875-.121-1.833-.082-2.664.184-.271.087-.259 1.062-.33 1.401zm-8.689 41.453l.54-.123-1.505-4.558-.59.059-.383 3.11.433.058.704-1.036c.188.825.343 1.542.524 2.25.025.097.182.16.277.24zm6.296-15.129c-1.612 1.8-1.118 3.929.798 4.775-.255-1.525-.498-2.991-.798-4.775zm-2.67 46.405l1.333-.556c-.178-.109-.356-.223-.534-.332.282-1.062.564-2.122.921-3.451-.912.83-1.58 1.435-2.234 2.028l.514 2.311zm4.082-21.264l-2.831-5.428c-.528 1.876.477 3.888 2.831 5.428zm-30.58-7.389l-2.997-1.09.146 2.519c.813-.409 1.535-.77 2.851-1.429zm60.885 39.207l-.618.522c-.291 1.802.25 2.278 2.778 2.108l-2.16-2.63zm-30.469-18.008l.555-.173c-.372-.969-.746-1.938-1.119-2.906-.543.32-1.086.646-1.405.833l1.969 2.246zm-6.425-23.695c-.134 1.298-.271 2.596-.429 4.121 1.41-.582 1.518-1.734.429-4.121zm9.996-10.881c.201-.038.401-.077.602-.114.252-1.302.447-2.595-.629-3.642l-.608.114.635 3.642zm25.411 54.505c-.309.243-.616.484-.925.724.659.243 1.317.484 2.294.842l-2.439 1.104c1.002.233 1.632.381 2.73.639l-1.66-3.309z"/><path fill="#FFF" d="M223.258 190.138c.305-1.276.61-2.554.95-3.966l2.094 1.734c.245.166.493.327.739.493-.86.579-1.719 1.157-2.576 1.738l-1.207.001zM177.418 190.138h.401-.401z"/><path d="M228.964 142.013l2 .273c-1.283-1.147-2.44-1.989-3.344-3.047-.917-1.07-1.587-2.354-2.052-3.806l7.071 8.138c.839-.388 2.68-.725 2.813-1.397.417-2.099-.762-3.776-2.657-5.104 1.774.143 3.548.268 5.318.445.196.021.447.294.53.508.85 2.134 1.669 4.279 2.498 6.421l-.483.353-4.512-2.08c-.638 1.347-1.192 2.538-1.767 3.719-.752 1.543-1.407 3.102-3.421 3.56-.541.123-1.21 1.2-1.228 1.856-.109 4.244-.055 8.49-.055 12.734-.266.045-.531.087-.796.13-.348-1.711-.979-3.428-.976-5.138.003-3.194.376-6.389.597-9.581.004-.066.011-.156.053-.188 2.786-2.324 1.287-4.982.411-7.796z"/><path fill="#FFF" d="M196.643 81.024c1.759.474 1.759.474 1.982 2.679-1.561.463-3.135 1.456-4.504-.488-.089-.126-.743.014-1.037.19-2.095 1.255-5.787 1.041-8.254-.832 1.946-2.165 3.875-4.291 5.768-6.45.27-.308.319-.797.534-1.164.513-.881 1.063-1.74 1.598-2.608l-.063-.048c.547.607 1.172 1.161 1.611 1.838.305.469.35 1.107.509 1.67l1.6-.753c.317 1.376.632 2.753.948 4.13-.231.612-.463 1.224-.692 1.836z"/><path d="M222 160.941l-1.979-.097c-.276-1.419-.543-2.774-.859-4.39-.33-.1-.922-.276-1.513-.452l.053.059c.111-1.788.209-3.579.339-5.367.116-1.6-.438-2.608-2.303-2.506v-2.392l5.418 6.153.564-.384c0 .68-.288 1.609.056 2.054.939 1.225.466 2.177-.184 3.21-.924 1.468-1.06 2.866.379 4.119l.029-.007zM229.892 146.929c-.88-.633-1.523-1.097-2.174-1.563l-.721 3.411c-2.32-2.062-3.134-4.227-1.966-6.758 2.467.478 4.181 1.933 4.861 4.91zM196.387 75.058l-1.6.753c-.159-.563-.204-1.201-.509-1.67-.439-.677-1.064-1.23-1.611-1.838.352-.255 1.025-.543 1.003-.761-.203-2.023.748-1.275 1.75-.685l-.083-1.677c1.924 1.783.559 4.01.982 5.986l.068-.108zM202.881 137.144l-.918-3.111c-1.846-.26-1.846-.26-1.292-1.786a6316.1 6316.1 0 0 0 5.12 4.28l-2.979.558.069.059z"/><path d="M221.971 160.948c.159.813.32 1.625.395 2.004.905.58 2.024.916 2.176 1.5.177.682-.49 1.583-.974 2.88-.4-1.135-.659-1.862-.971-2.746l-1.247 1.093c-.179-.053-.358-.105-.536-.16.389-1.522.779-3.048 1.179-4.574.007-.004-.022.003-.022.003zM232.712 140.249c-.7-2.691-5.473-1.969-4.83-6.112 1.677 2.202 4.466 3.102 4.83 6.112zM217.648 156.003c-.129 2.098-.26 4.193-.393 6.325-1.479-1.359-1.586-3.984-.303-6.838l.746.569-.05-.056zM213.344 152.72v-5.568l1.354.976c-.183 1.655-.342 3.119-.506 4.583-.282.004-.565.006-.848.009zM213.099 134.263l-4.961-2.947c1.679-1.151 3.288-.307 4.961 2.947zM196.975 56.971l-1.139-1.266-.643 1.096c-.07-1.4-.125-2.46-.177-3.521.122-.03.242-.061.364-.09.09.312.183.623.307 1.042l1.164-1.047.828 3.567c-.234.074-.469.147-.704.219zM196.387 75.058l-.067.108.796-1.215.505.14c-.029.614-.058 1.228-.088 1.916h1.206l-1.403 3.182-.949-4.131zM198.761 60.922l-.293-3.583 2.156 2.021-1.863 1.562zM181.565 108.017l.539-.337c.031.661.135 1.329.071 1.979-.061.621-.296 1.226-.49 1.972-.428-1.283-2.432-2.362-.12-3.614zM200.673 136.025c-1.604.697-1.604.697-2.247-2.308l.461-.313c.588.866 1.177 1.73 1.786 2.621z"/><path fill="#FFF" d="M175.373 159.797l.241 3.138 2.179.313c-.703 1.24.623 3.175-1.667 3.816.215-1.902-1.056-3.897-2.354-4.154l2.047 8c-1.707.768-3.335 1.497-4.963 2.228.061.215.122.43.186.646a200.94 200.94 0 0 1-1.307-.422c.221-1.476.413-2.772.645-4.317-1.282.414-1.995.643-2.708.872a52.966 52.966 0 0 1-.153-.531c1.865-1.713 1.843-4.994.116-6.35-.419 1.137-.856 2.328-1.175 3.191-1.831.993-.939-3.988-3.473-1.133.743-1.911.743-1.911-1.276-2.307l.44 5.274c-1.694-.327-1.668.863-1.628 2.247-1.587-1.759-2.182-3.46-1.412-5.503 0 .002-.06.098-.06.098 1.221-.62 2.03-1.41 2.137-2.969.077-1.134.825-2.206 1.103-3.349.205-.846.136-1.756.191-2.736l-3.081.892c.81-1.812 1.381-3.093 1.924-4.305 1.767.663 3.439 1.295 5.365 2.019-1.014.573-1.556 2.132-2.797.249-.373-.563-1.423-.685-2.69-1.234.335.895.395 1.592.664 1.687 1.389.482 2.387 1.721 4.137 1.607 1.811-.119 3.679.343 4.875 2.375l.465-1.404c1.342.673 2.686 1.342 4.029 2.011v.051zM193.861 156.469c-.147-.369-.295-.738-.491-1.234-.151.446-.265.78-.566 1.674-.509-1.435-.9-2.231.293-3.029.337-.224.722-.931.6-1.198-1.547-3.396-1.199-6.92-.964-10.476.046-.707-.687-1.463-1.146-2.363l-.95.712-1.383-8.456c.171.018.745-.035 1.219.16.558.229 1.379.595 1.471 1.034.399 1.872.723 3.787.774 5.693.039 1.503.647 2.533 1.873 3.101 1.33.615 2.036 1.216.923 2.614-.111.137-.039.65.049.679 2.105.675 1.057 2.568 1.01 3.608-.132 2.908 1.695 5.24 1.826 7.997.062 1.3.131 2.599.191 3.814 2.168-1.108 2.814 1.577 4.34 2.531.599.375 1.295.592 2.17.633-1.288-2.062-.466-3.567.879-5.298 0 1.587-.069 2.906.019 4.218.078 1.163-.485 2.604 1.133 3.247l-.09-.065c.073.237.146.471.28.91-1.134-.479-2.103-.82-3.01-1.287-1.248-.641-2.476-1.016-3.929-.741-1.371.263-2.238-.25-2.358-1.884-.05-.679-.788-1.309-1.082-1.757-.907-.213-1.767-.411-2.805-.654.014-.026-.114.243-.259.553-1.692-2.224-1.685-2.594.039-4.804l.439 2.791c.134-.042.266-.079.399-.121l.252-4.964c-.108 0-.216.002-.325.004l-.821 2.358zM142.921 160.146c-.081.302-.21.788-.341 1.271-.173.002-.347.004-.521.004l-.463-4.431.638-.119 1.21 1.297c.422-3.05.423-3.016 3.537-3.142 1.281-.053 2.555-.273 3.989-.434l1.528 3.356c-.827-.172-1.49-.308-2.286-.472l-.458 3.516c-.107.031-.215.065-.322.098l-.809-3.105c.569 2.77-2.177 3.821-3.092 6.154l-2.61-3.993zM183.546 134.866c.06 3.981-.161 8.017 2.04 11.733l.583-.868c.428.477.96.868 1.204 1.394.418.895 1.077 1.964-.562 2.465-.204.063-.359.368-.483.588-.222.399-.403.824-.605 1.234l-1.397-.861-1.245.966c-.333-.499-.825-.959-.967-1.509-.469-1.815-.818-3.661-1.188-5.501-.041-.195.031-.492.165-.633 1.535-1.631.574-3.628.847-5.442.185-1.219.574-2.41.873-3.615l.735.049zM176.301 158.743c-2.145-.868-4.29-1.735-5.914-2.394-.293-.889-.499-1.517-.708-2.145-.11-1.025.158-1.916 1.701-1.966.828-.026 1.745-.726 2.424-1.339 1.131-1.029 1.686-.102 2.215.56.422.529.591 1.26 1.037 2.276l1.776.686c-.761.937-1.314 1.617-1.87 2.298l.229.274c.338-.145.677-.292 1.013-.438l.308.446c-.752.592-1.504 1.186-2.259 1.779l.048-.037z"/><path fill="#FFF" d="M152.501 166.853c-.516 1.51-1.033 3.018-1.525 4.452-.555-.34-1.285-.784-2.174-1.325.683-.277 1.339-.539 2.094-.847l-.312-2.67c-.122-.002-.243-.002-.364-.002l-.373 1.895c-.206-.008-.415-.014-.623-.021.046-.799 0-1.616.154-2.395.467-2.362.497-2.356-.747-4.365.687.292 1.139.486 1.783.762.167-1.319.312-2.444.445-3.51 2.337-.574 2.422.733 2.404 2.448-.011 1.191.454 2.388.817 4.103.459-.9.679-1.326.896-1.754l.384.107-1.078 3.769c1.05 1.583 1.962 2.961 2.873 4.339l-.907.604-1.559-2.372-.41 1.879c-.828.114-1.69.235-2.884.403.679-1.046 1.524-1.854 1.723-2.801.167-.803-.413-1.762-.661-2.655l-.472-5.711c-.499 1.378-.8 2.194-1.092 3.014-.543 1.537.758 1.959 1.608 2.653zM196.995 167.608c1.001.963 1.97 1.96 3.011 2.874.718.628 1.533 1.139 2.623 1.93-.776.23-1.28.488-1.794.511-2.922.133-5.849.257-8.771.243-.349 0-.773-.793-1.028-1.289-.507-.985-.92-2.02-1.531-3.39.325-.023.872-.057 1.618-.104.275-.485.754-1.336 1.332-2.363 1.29 2.286 2.327 4.235 3.507 6.092.17.266 1.121.28 1.553.077.636-.298.478-.553-.083-1.137-.619-.645-.615-1.885-.883-2.866.148-.193.299-.385.446-.578zM120.897 135.566l-.825 2.408c-.826-1.667-1.769-2.845-1.91-4.111-.093-.835.967-1.8 1.511-2.705l.555.322-.71 1.641c1.358 1.351 1.033-2.667 2.602-.407l.726-1.213c.617.07 1.065.194 1.5.156 1.805-.161 3.558 1.599 3.127 3.347-.137.556-.868.964-1.385 1.501l-1.26-2.351-1.331 3.414-2.6-2.002zM141.203 161.74l.363 1.381c.579-.156 1.407-.565 1.563-.388a5.187 5.187 0 0 1 1.091 2.103c.15.602-.225 1.339-.075 1.941.154.626.663 1.161 1.234 1.607.925 2.26 1.229 2.45-3.298 4.222-.303-.809-.522-1.66-.938-2.4-.26-.462-.889-.699-1.229-1.135-.415-.533-1.108-1.295-.97-1.732.588-1.859 1.438-3.631 2.259-5.599zm-.622 5.477c1.852-.669 1.636.28 1.527 1.321-.061.572.2 1.176.315 1.766.472-3.679.127-4.232-1.842-3.087zM186.034 132.138l-.76 2.845c-.675-1.5-1.273-2.762-1.798-4.056-.099-.243.027-.658.19-.897.099-.142.588-.221.703-.113 2.237 2.068 4.946 3.833 4.556 7.546-.094.893.655 1.936.42 2.736-.521 1.764-1.422 3.417-2.485 5.016.068-4.398.533-8.702-.826-13.077zM179.239 170.285l2.663-3.705c.449.59.927 1.215 1.648 2.163l.355-3.993c1.983 2.305 2.441 4.589.71 7.267l-4.968-.442c-.11-.347-.303-.963-.408-1.29zM120.026 144.715c-3.268.603-3.611 3.16-4.054 6.159l-1.269-3.669c.074-.586.486-1.674.192-1.92-1.734-1.456-.969-2.439.847-3.694l.47 1.343c.163-.081.325-.159.488-.239v-2.371c.151-.099.304-.196.455-.294l2.871 4.685zM135.792 107.356V96.83c2.466-.845 3.151-.044 2.618 2.947-.293 1.644-.814 3.263-.924 4.914-.062.913.516 1.869.911 3.15l-2.605-.485zM172.474 98.439c-.198-2.112.108-2.283 2.73-1.785.235 2.154.489 4.308.705 6.464.132 1.315-.329 2.192-1.805 2.264-1.565.077-1.682-.926-1.647-2.105.031-1.132.007-2.266.007-3.861l1.035 1.613v-3.518l-1.025.928z"/><path fill="#FFF" d="M125.792 140.223c-.481 2.255-2.715.713-3.832 1.962-.094 1.958 3.423 3.829.395 6.155-.998-.799-1.111-1.771-.899-3.34.233-1.727-.626-3.601-1.012-5.421 2.766.437 3.291.08 4.33-2.931 1.887.77.761 2.378 1.008 3.597l.01-.022zM207.039 166.063l.09.065c.082-1.379.104-2.767.323-4.123.032-.188 1.046-.217 1.97-.385l2.474-6.23c1.418 1.747.297 5.867-1.496 6.242l.511 4.476c-.744-.475-1.632-1.038-2.462-1.566-.477.513-.945 1.017-1.41 1.521zM178.558 101.601c.237 1.182.474 2.363.79 3.951-1.265-.168-2.156-.042-2.724-.415-1.023-.671-.579-5.808.306-6.602l-.613-1.625c.746-.082 1.582-.402 2.212-.166.444.166.609 1.083.899 1.665l-.564.32c-.154-.286-.308-.571-.46-.856a81.39 81.39 0 0 1-.49.052c.232 1.243.468 2.485.7 3.729l-.056-.053zM187.257 158.623l-10.965-9.084c.165-.204.331-.403.495-.607 4.529 1.973 7.776 5.539 11.053 9.067l-.583.624zM159.051 164.904s.06-.096.06-.098c-.822.782-1.647.365-1.326-.49.664-1.773-.948-2.967-.55-4.559l-.802.084.299 3.068c-2.346-1.419-2.104-4.163.668-6.079l-.063-.059.873 4.433c.148-.021.295-.042.444-.061.207-.567.416-1.133.675-1.836 1.115.63 1.64 1.027.712 2.276-.647.875-.682 2.2-.99 3.321zM183.468 99.19c1.572-.573 2.38-.234 2.437 1.452.058 1.617.247 3.231.402 5.146l-2.839-.314V99.19zM176.072 89.409l-1.252-.85-.292 4.664c-1.948-1.038-2.407-5.119-1.266-9.235.969 1.906 1.868 3.676 2.769 5.445l.041-.024zM125.537 125.035l.043-1.142c.427.07.993-.007 1.254.238.615.577 1.086 1.312 1.607 1.973l2.302-.879-.489-2.502.535-.279 1.807 1.165-.657 2.31.678.165c.104-.369.21-.738.315-1.105l.37-.022c.291.979.584 1.959.858 2.876-1.808.547-2.954-1.96-4.965-.822l-3.713-2.025.055.049zM166.604 99.774l-.957-3.39c3.092-.675 3.886-.173 3.18 2.066l-.512-.691c.154.797-.642 1.585.603 2.406.598.396-.006 2.609-.064 3.998-.251-.148-.501-.298-.751-.447l-1.499-3.942zM166.604 99.774l1.498 3.942c.255.969-.059 1.728-1.102 1.545-.57-.099-1.408-.816-1.464-1.326-.184-1.713-.068-3.458-.068-5.612l1.136 1.451zM198.865 149.513c.785 1.293.01 3.194 2.277 3.417.995.094.895 3.673-.11 4.121-.265.117-.965-.067-1.002-.222-.554-2.334-2.004-4.552-1.165-7.316zM189.632 42.446l-.978 2.261c-.343-5.917-.042-8.684 1.105-9.342l.558 8.102c-.361-.54-.525-.779-.685-1.021z"/><path fill="#FFF" d="M178.613 101.653v-1.44c.783.407 1.462.868 2.212 1.128 1.166.403 2.099 2.925 1.234 3.785-.347.341-1.154.486-1.631.336-.36-.113-.585-.815-.77-1.294-.332-.871.871-2.387-1.1-2.565 0-.002.055.05.055.05zM205.554 151.844c-.156 1.911 1.369 3.999-1.277 5.383-.56-1.732-1.103-3.421-1.646-5.107.238-.098.477-.194.715-.29.209.373.417.748.741 1.33.48-.432.919-.826 1.467-1.316zM206.187 149.273c-1.788-1.953-1.91-4.075-1.003-6.375 1.771 1.491 2.164 3.814 1.003 6.375zM170.477 105.67c-.392-.585-1.128-1.188-1.1-1.754.04-.873-.48-2.405 1.291-2.366 1.773.039 1.274 1.617 1.481 2.581.091.423-.544 1.001-.85 1.511l-.822.028zM160.676 143.506c-1.646.149-3.291 1.344-4.782-.784 1.753-.448 3.458-3.153 4.782.784zM144.703 145.546c.209 3.543.014 3.929-2.523 5.005-.449-.692-.908-1.396-1.553-2.386 2.936 1.227 2.569-1.812 4.076-2.619zM189.019 106.475c1.514 0 3.033-.058 4.539.043.367.024.698.577 1.046.887-.379.255-.752.713-1.14.725a20.076 20.076 0 0 1-3.652-.194c-.433-.066-.79-.612-1.184-.939l.391-.522zM88.056 172.545c.559-1.025.891-1.779 1.355-2.443.331-.471.837-.817 1.266-1.217.291.426.832.863.814 1.277-.028.624-.281 1.518-.736 1.781-.716.416-1.679.402-2.699.602zM151.308 148.699c-.296-1.031-.589-2.064-.915-3.207.741-.335 1.523-.688 2.324-1.052.4 3.537.4 3.537-1.409 4.259zM199.495 144.488c-.444-.854-.962-1.845-1.471-2.821l1.385-1.533c1.788 1.557 1.788 1.557.086 4.354zM194.693 97.393c4.114-.479 4.869-.088 4.265 2.278l-.628-1.234c-1.445 1.45-3.075 1.021-3.637-1.044zM125.482 124.985l2.593 2.112c-2.357.743-5.122-1.467-5.164-3.385l2.626 1.322-.055-.049z"/><path d="M162.15 168.063l-.44-5.274c2.02.396 2.02.396 1.276 2.307-.086.304-.171.603-.258.9.491.888.503 1.627-.627 2.01l.049.057z"/><path fill="#FFF" d="M176.031 89.433a9122.01 9122.01 0 0 1 1.53 5.179h-3.483l-.05-.386c.331-.108.655-.287.992-.31 1.524-.103 1.879-.546.962-1.985-.371-.584.026-1.659.083-2.517a.518.518 0 0 0-.034.019zM134.349 166.342c3.908 1.485.352 3.647.81 5.306-1.091-1.504-.193-3.316-.81-5.306zM184.248 178.151c.774 0 1.338-.123 1.808.034.508.171.929.606 1.387.925-.253.32-.536.624-.757.969-.43.669-.825 1.362-1.667 1.932.26-.944.518-1.889.779-2.846-.444.119-1.101.3-1.963.537l.413-1.551zM136.491 117.352v8.938l-.408.001v-8.909c.135-.011.272-.021.408-.03zM112.8 154.729c.402-1.202.763-2.422 1.243-3.596.083-.2.893-.366.978-.257.239.318.494.896.353 1.175-.521 1.038-1.201 1.995-1.821 2.982-.252-.098-.502-.202-.753-.304zM211.223 153.161c.263 1.338.679 2.744-1.415 2.972-1.289-1.94-1.289-1.94 1.472-2.919 0 .002-.057-.053-.057-.053zM161.839 181.279c.071.792.287 1.611.136 2.358-.06.299-.979.689-1.396.586-.418-.102-1.063-.905-.967-1.167.258-.697.856-1.269 1.319-1.89l.908.113zM182.337 98.515c.071-.339.059-1.314.33-1.401.831-.266 1.789-.305 2.664-.184.29.041.477.835.864 1.585h-3.858zM173.648 139.968c-.096-.08-.252-.143-.276-.239-.182-.708-.337-1.425-.524-2.25l-.704 1.036-.433-.058.383-3.11.59-.059 1.505 4.558c-.179.039-.361.081-.541.122zM179.944 124.839c.3 1.783.543 3.25.798 4.775-1.916-.845-2.41-2.974-.798-4.775zM140.415 90.843l-1.84 5.315c-1.072-1.861-.155-3.216.786-4.106.357-.338-.485-2.166 1.095-1.16 0 .002-.041-.049-.041-.049zM125.782 140.246l1.642-2.978-1.198 7.272-.435-.052v-4.258c.001-.007-.009.016-.009.016zM109.591 157.667l-.239 4.629-.84-.034c.056-1.277.061-2.563.211-3.831.033-.27.602-.473.923-.707l-.055-.057zM175.373 159.797l-.001-.051c.309-.334.617-.669.928-1.003l-.047.038c.69.17 1.379.339 2.166.535-.149.726-.282 1.356-.422 2.031-.928-.545-1.775-1.049-2.624-1.55zM177.274 171.244l-.515-2.311c.654-.594 1.322-1.198 2.234-2.028-.356 1.329-.639 2.39-.921 3.451.178.109.356.223.534.332-.378.159-.76.317-1.332.556zM181.356 149.98c-2.354-1.54-3.359-3.552-2.831-5.428l2.831 5.428zM162.102 168.005c1.13-.383 1.118-1.122.627-2.01 1.058-.327 1.768-.43 1.179 1.12-.412 1.085-.523 2.286-.739 3.283-.279-.622-.674-1.509-1.067-2.393zM150.776 142.591c-1.316.66-2.039 1.021-2.85 1.429l-.146-2.519 2.996 1.09zM211.661 181.798l2.16 2.631c-2.528.17-3.069-.307-2.778-2.108l.618-.523zM181.192 163.79l-1.97-2.246c.319-.187.862-.513 1.405-.833l1.119 2.906-.554.173z"/><path fill="#FFF" d="M109.646 157.724l.292-3.33.686-.015.244 3.607a89.941 89.941 0 0 0-1.281-.322l.059.06zM174.767 140.095c1.09 2.388.981 3.54-.429 4.121.157-1.525.295-2.823.429-4.121zM184.763 129.214l-.636-3.642.608-.114c1.076 1.047.881 2.339.629 3.642l-.601.114zM210.174 183.719l1.66 3.309-2.73-.639 2.439-1.104c-.977-.357-1.635-.599-2.294-.842.309-.24.616-.481.925-.724zM157.399 156.831l.727-2.249c.159-.021.318-.037.477-.055.405.937.812 1.872 1.27 2.927-.934-.252-1.734-.469-2.537-.684l.063.061z"/><path d="M193.861 156.469l.82-2.359c.109-.002.217-.004.325-.004l-.252 4.964c-.134.042-.266.079-.399.121l-.439-2.791-.055.069zM152.501 166.853c-.85-.693-2.151-1.115-1.605-2.653.292-.819.593-1.636 1.092-3.014l.472 5.711.041-.044zM140.581 167.217c1.969-1.145 2.314-.592 1.842 3.087-.116-.59-.376-1.193-.315-1.766.108-1.041.324-1.99-1.527-1.321z"/></g><g fill="#080828"><path d="M22.779 206.489c2.208-.384 5.521-.672 8.929-.672 4.657 0 7.825.768 9.985 2.592 1.776 1.488 2.784 3.745 2.784 6.48 0 4.177-2.832 7.009-5.856 8.113v.144c2.304.864 3.696 3.12 4.513 6.241 1.008 4.032 1.872 7.776 2.544 9.024h-6.096c-.48-.96-1.249-3.601-2.161-7.633-.912-4.225-2.448-5.568-5.808-5.664h-2.977v13.297H22.78v-31.922zm5.856 14.306h3.504c3.984 0 6.48-2.112 6.48-5.329 0-3.552-2.496-5.185-6.336-5.185-1.872 0-3.072.145-3.648.288v10.226zM54.17 228.379c.144 4.225 3.456 6.049 7.201 6.049 2.736 0 4.704-.384 6.48-1.056l.864 4.08c-2.016.816-4.8 1.44-8.161 1.44-7.584 0-12.049-4.657-12.049-11.81 0-6.48 3.937-12.577 11.425-12.577 7.585 0 10.081 6.24 10.081 11.377 0 1.104-.096 1.969-.192 2.496H54.17zm10.273-4.128c.048-2.16-.912-5.713-4.849-5.713-3.648 0-5.185 3.313-5.424 5.713h10.273zM87.914 238.412l-.384-2.592h-.144c-1.44 1.824-3.888 3.12-6.913 3.12-4.705 0-7.345-3.408-7.345-6.961 0-5.904 5.232-8.881 13.873-8.833v-.384c0-1.536-.624-4.08-4.752-4.08-2.304 0-4.704.72-6.289 1.728l-1.152-3.84c1.728-1.057 4.752-2.064 8.449-2.064 7.489 0 9.649 4.753 9.649 9.841v8.449c0 2.112.096 4.176.336 5.616h-5.328zm-.768-11.425c-4.176-.097-8.161.815-8.161 4.368 0 2.305 1.488 3.36 3.36 3.36 2.352 0 4.081-1.536 4.608-3.216a4.25 4.25 0 0 0 .192-1.297v-3.215zM99.145 204.329h5.952v34.083h-5.952v-34.083zM117.769 208.506c0 1.775-1.296 3.168-3.36 3.168-1.968 0-3.265-1.393-3.265-3.168 0-1.824 1.344-3.217 3.313-3.217 2.016 0 3.264 1.393 3.312 3.217zm-6.289 29.906v-23.378h5.952v23.378h-5.952zM123.48 232.987c1.344.816 3.888 1.681 6 1.681 2.592 0 3.744-1.057 3.744-2.593 0-1.584-.96-2.399-3.84-3.408-4.56-1.584-6.48-4.08-6.433-6.816 0-4.128 3.409-7.345 8.833-7.345 2.592 0 4.848.672 6.192 1.393l-1.152 4.176c-1.008-.576-2.88-1.344-4.945-1.344-2.112 0-3.264 1.008-3.264 2.448 0 1.488 1.104 2.208 4.081 3.265 4.224 1.536 6.192 3.696 6.24 7.152 0 4.225-3.312 7.297-9.504 7.297-2.833 0-5.377-.673-7.105-1.633l1.153-4.273zM150.552 208.361v6.673h5.617v4.416h-5.617v10.321c0 2.832.769 4.32 3.024 4.32a8.78 8.78 0 0 0 2.305-.288l.096 4.513c-.864.336-2.4.576-4.272.576-2.16 0-3.984-.721-5.088-1.921-1.248-1.344-1.824-3.456-1.824-6.528V219.45h-3.36v-4.416h3.36v-5.28l5.759-1.393zM166.92 208.506c0 1.775-1.296 3.168-3.36 3.168-1.969 0-3.265-1.393-3.265-3.168 0-1.824 1.345-3.217 3.313-3.217 2.016 0 3.264 1.393 3.312 3.217zm-6.289 29.906v-23.378h5.953v23.378h-5.953zM172.631 232.987c1.345.816 3.889 1.681 6.001 1.681 2.592 0 3.744-1.057 3.744-2.593 0-1.584-.96-2.399-3.84-3.408-4.561-1.584-6.481-4.08-6.433-6.816 0-4.128 3.408-7.345 8.832-7.345 2.593 0 4.849.672 6.193 1.393l-1.152 4.176c-1.008-.576-2.881-1.344-4.944-1.344-2.112 0-3.265 1.008-3.265 2.448 0 1.488 1.104 2.208 4.08 3.265 4.225 1.536 6.193 3.696 6.241 7.152 0 4.225-3.313 7.297-9.505 7.297-2.832 0-5.377-.673-7.104-1.633l1.152-4.273zM210.12 237.692c-1.248.576-3.696 1.2-6.624 1.2-7.297 0-12.05-4.657-12.05-11.905 0-7.009 4.801-12.481 13.01-12.481 2.16 0 4.368.48 5.712 1.104l-1.056 4.416c-.96-.432-2.353-.912-4.465-.912-4.512 0-7.2 3.313-7.152 7.585 0 4.801 3.12 7.536 7.152 7.536 2.064 0 3.505-.432 4.657-.912l.816 4.369zM214.486 204.329h5.953v13.921h.096a7.918 7.918 0 0 1 2.929-2.688c1.151-.673 2.544-1.057 4.032-1.057 3.984 0 8.16 2.641 8.16 10.129v13.777h-5.904v-13.105c0-3.408-1.248-5.952-4.513-5.952-2.304 0-3.937 1.536-4.561 3.313-.191.479-.239 1.104-.239 1.776v13.969h-5.953v-34.083zM246.119 228.379c.144 4.225 3.456 6.049 7.2 6.049 2.736 0 4.705-.384 6.48-1.056l.864 4.08c-2.016.816-4.8 1.44-8.16 1.44-7.585 0-12.05-4.657-12.05-11.81 0-6.48 3.937-12.577 11.426-12.577 7.584 0 10.08 6.24 10.08 11.377 0 1.104-.096 1.969-.191 2.496h-15.649zm10.273-4.128c.048-2.16-.912-5.713-4.848-5.713-3.648 0-5.185 3.313-5.425 5.713h10.273zM266.71 222.57c0-3.168-.048-5.424-.191-7.536h5.136l.192 4.464h.192c1.151-3.312 3.888-4.992 6.384-4.992.576 0 .912.048 1.393.145v5.568a8.145 8.145 0 0 0-1.729-.192c-2.832 0-4.752 1.824-5.28 4.465a10.12 10.12 0 0 0-.191 1.824v12.097h-5.905V222.57zM38.834 279.979c1.92 1.104 4.801 2.064 7.825 2.064 3.792 0 5.905-1.776 5.905-4.417 0-2.448-1.632-3.888-5.761-5.376-5.329-1.92-8.737-4.753-8.737-9.409 0-5.28 4.417-9.313 11.425-9.313 3.504 0 6.096.768 7.776 1.632l-1.44 4.753c-1.152-.624-3.408-1.536-6.433-1.536-3.744 0-5.376 2.016-5.376 3.888 0 2.497 1.872 3.648 6.192 5.329 5.617 2.112 8.353 4.944 8.353 9.601 0 5.185-3.937 9.697-12.289 9.697-3.409 0-6.961-.961-8.737-2.017l1.297-4.896zM81.123 285.692c-1.248.576-3.696 1.2-6.625 1.2-7.296 0-12.049-4.657-12.049-11.905 0-7.009 4.8-12.481 13.009-12.481 2.16 0 4.368.48 5.712 1.104l-1.056 4.416c-.96-.432-2.352-.912-4.464-.912-4.512 0-7.201 3.313-7.153 7.585 0 4.801 3.121 7.536 7.153 7.536 2.064 0 3.504-.432 4.656-.912l.817 4.369zM85.49 252.329h5.952v13.921h.096a7.922 7.922 0 0 1 2.928-2.688c1.152-.673 2.544-1.057 4.032-1.057 3.984 0 8.161 2.641 8.161 10.129v13.777h-5.904v-13.105c0-3.408-1.248-5.952-4.512-5.952-2.304 0-3.937 1.536-4.561 3.313-.192.479-.24 1.104-.24 1.776v13.969H85.49v-34.083zM126.098 286.412l-.384-2.592h-.144c-1.44 1.824-3.888 3.12-6.913 3.12-4.705 0-7.345-3.408-7.345-6.961 0-5.904 5.232-8.881 13.873-8.833v-.384c0-1.536-.624-4.08-4.752-4.08-2.304 0-4.704.72-6.289 1.728l-1.152-3.84c1.728-1.057 4.752-2.064 8.449-2.064 7.489 0 9.649 4.753 9.649 9.841v8.449c0 2.112.096 4.176.336 5.616h-5.328zm-.768-11.425c-4.176-.097-8.161.815-8.161 4.368 0 2.305 1.488 3.36 3.36 3.36 2.352 0 4.081-1.536 4.608-3.216a4.25 4.25 0 0 0 .192-1.297v-3.215zM158.258 279.403a137 137 0 0 0 .192 7.009h-5.185l-.288-3.553h-.096c-1.008 1.681-3.313 4.081-7.489 4.081-4.272 0-8.161-2.545-8.161-10.177v-13.729h5.904v12.721c0 3.889 1.249 6.385 4.369 6.385 2.352 0 3.888-1.68 4.512-3.168a5.366 5.366 0 0 0 .336-1.824v-14.113h5.904v16.368zM164.64 270.811c0-3.072-.096-5.568-.191-7.776h5.185l.287 3.601h.097c1.728-2.641 4.464-4.129 8.017-4.129 5.376 0 9.841 4.608 9.841 11.905 0 8.448-5.328 12.529-10.657 12.529-2.928 0-5.376-1.248-6.576-3.12h-.096v12.097h-5.905v-25.107zm5.905 5.808c0 .576.048 1.104.191 1.632.576 2.4 2.688 4.129 5.185 4.129 3.744 0 5.952-3.12 5.952-7.729 0-4.129-2.016-7.489-5.809-7.489-2.447 0-4.704 1.776-5.28 4.369a5.344 5.344 0 0 0-.239 1.487v3.601zM192.72 252.329h5.953v34.083h-5.953v-34.083zM218.209 286.412l-.384-2.592h-.145c-1.439 1.824-3.888 3.12-6.912 3.12-4.704 0-7.345-3.408-7.345-6.961 0-5.904 5.232-8.881 13.873-8.833v-.384c0-1.536-.624-4.08-4.752-4.08-2.305 0-4.705.72-6.289 1.728l-1.152-3.84c1.729-1.057 4.753-2.064 8.449-2.064 7.488 0 9.648 4.753 9.648 9.841v8.449c0 2.112.097 4.176.336 5.616h-5.327zm-.768-11.425c-4.177-.097-8.161.815-8.161 4.368 0 2.305 1.488 3.36 3.36 3.36 2.353 0 4.08-1.536 4.608-3.216a4.25 4.25 0 0 0 .192-1.297v-3.215zM235.92 256.361v6.673h5.617v4.416h-5.617v10.321c0 2.832.769 4.32 3.024 4.32a8.78 8.78 0 0 0 2.305-.288l.096 4.513c-.864.336-2.4.576-4.272.576-2.16 0-3.984-.721-5.088-1.921-1.249-1.344-1.824-3.456-1.824-6.528V267.45h-3.36v-4.416h3.36v-5.28l5.759-1.393zM243.791 283.004l8.785-11.233a92.626 92.626 0 0 1 3.456-3.936v-.097h-11.377v-4.704h18.577v3.601l-8.593 10.992c-1.151 1.393-2.256 2.736-3.456 3.984v.097h12.337v4.704h-19.729v-3.408z"/></g></g></switch></svg>