<?xml version="1.0" encoding="utf-8"?>
<!-- Generator: Adobe Illustrator 16.0.3, SVG Export Plug-In . SVG Version: 6.00 Build 0)  -->
<!DOCTYPE svg PUBLIC "-//W3C//DTD SVG 1.1//EN" "http://www.w3.org/Graphics/SVG/1.1/DTD/svg11.dtd" [
	<!ENTITY ns_extend "http://ns.adobe.com/Extensibility/1.0/">
	<!ENTITY ns_ai "http://ns.adobe.com/AdobeIllustrator/10.0/">
	<!ENTITY ns_graphs "http://ns.adobe.com/Graphs/1.0/">
	<!ENTITY ns_vars "http://ns.adobe.com/Variables/1.0/">
	<!ENTITY ns_imrep "http://ns.adobe.com/ImageReplacement/1.0/">
	<!ENTITY ns_sfw "http://ns.adobe.com/SaveForWeb/1.0/">
	<!ENTITY ns_custom "http://ns.adobe.com/GenericCustomNamespace/1.0/">
	<!ENTITY ns_adobe_xpath "http://ns.adobe.com/XPath/1.0/">
]>
<svg version="1.1" id="Ebene_1" xmlns:x="&ns_extend;" xmlns:i="&ns_ai;" xmlns:graph="&ns_graphs;"
	 xmlns="http://www.w3.org/2000/svg" xmlns:xlink="http://www.w3.org/1999/xlink" x="0px" y="0px" width="300px" height="300px"
	 viewBox="0 0 300 300" enable-background="new 0 0 300 300" xml:space="preserve">
<metadata>
	<sfw  xmlns="&ns_sfw;">
		<slices></slices>
		<sliceSourceBounds  height="310.582" width="300" x="-50.5" y="-57.082" bottomLeftOrigin="true"></sliceSourceBounds>
	</sfw>
</metadata>
<path fill="#AA3C85" d="M228,297H72c-39.603,0-72-16.9-72-56.5V57C0,17.4,32.398-3,72-3h156c39.602,0,72,20.9,72,60.5V241
	C300,280.6,267.6,297,228,297z"/>
<rect x="0.758" y="228.086" fill="none" width="298.483" height="79.496"/>
<g enable-background="new    ">
	<path fill="#FFFFFF" d="M68.352,259.718l17.954-26.258v-0.145H69.888v-3.504h21.842v2.544l-17.858,26.162v0.145H91.97v3.504H68.352
		V259.718z"/>
	<path fill="#FFFFFF" d="M98.737,251.317c0.096,5.712,3.744,8.064,7.969,8.064c3.024,0,4.849-0.528,6.433-1.2l0.72,3.024
		c-1.488,0.672-4.033,1.44-7.729,1.44c-7.152,0-11.425-4.705-11.425-11.714c0-7.008,4.128-12.528,10.897-12.528
		c7.584,0,9.601,6.672,9.601,10.944c0,0.864-0.096,1.536-0.144,1.969H98.737z M111.122,248.293c0.048-2.688-1.104-6.865-5.856-6.865
		c-4.272,0-6.145,3.937-6.481,6.865H111.122z"/>
	<path fill="#FFFFFF" d="M139.874,255.829c0,2.4,0.048,4.513,0.192,6.337h-3.745l-0.24-3.792h-0.096
		c-1.104,1.872-3.552,4.32-7.681,4.32c-3.648,0-8.017-2.017-8.017-10.177v-13.586h4.224v12.865c0,4.417,1.344,7.393,5.185,7.393
		c2.833,0,4.8-1.968,5.568-3.84c0.24-0.624,0.384-1.393,0.384-2.16v-14.258h4.224V255.829z"/>
	<path fill="#FFFFFF" d="M166.898,238.932c-0.096,1.681-0.192,3.553-0.192,6.385v13.489c0,5.328-1.056,8.593-3.313,10.609
		c-2.256,2.111-5.52,2.784-8.448,2.784c-2.784,0-5.856-0.673-7.729-1.921l1.056-3.216c1.536,0.96,3.936,1.824,6.816,1.824
		c4.32,0,7.489-2.256,7.489-8.113v-2.592h-0.097c-1.295,2.16-3.791,3.889-7.393,3.889c-5.76,0-9.888-4.896-9.888-11.329
		c0-7.873,5.136-12.337,10.464-12.337c4.033,0,6.241,2.112,7.249,4.032h0.097l0.191-3.505H166.898z M162.53,248.101
		c0-0.72-0.049-1.344-0.24-1.92c-0.768-2.448-2.832-4.465-5.904-4.465c-4.033,0-6.913,3.409-6.913,8.785
		c0,4.561,2.304,8.353,6.864,8.353c2.593,0,4.945-1.632,5.857-4.32c0.24-0.72,0.336-1.536,0.336-2.256V248.101z"/>
	<path fill="#FFFFFF" d="M173.423,245.221c0-2.4-0.048-4.368-0.191-6.289h3.696l0.191,3.745h0.145
		c1.296-2.209,3.456-4.272,7.297-4.272c3.168,0,5.568,1.92,6.576,4.656h0.096c0.721-1.296,1.633-2.305,2.593-3.024
		c1.392-1.056,2.928-1.632,5.137-1.632c3.072,0,7.632,2.016,7.632,10.08v13.682h-4.128v-13.153c0-4.464-1.632-7.152-5.04-7.152
		c-2.4,0-4.272,1.776-4.993,3.84c-0.191,0.576-0.336,1.345-0.336,2.112v14.354h-4.128v-13.921c0-3.696-1.633-6.385-4.849-6.385
		c-2.641,0-4.561,2.112-5.232,4.225c-0.24,0.624-0.336,1.344-0.336,2.063v14.018h-4.129V245.221z"/>
	<path fill="#FFFFFF" d="M226.321,262.166l-0.336-2.929h-0.144c-1.296,1.824-3.793,3.457-7.104,3.457
		c-4.705,0-7.105-3.313-7.105-6.673c0-5.616,4.993-8.688,13.97-8.641v-0.48c0-1.92-0.528-5.376-5.28-5.376
		c-2.16,0-4.417,0.672-6.049,1.728l-0.96-2.784c1.92-1.248,4.704-2.063,7.633-2.063c7.104,0,8.833,4.848,8.833,9.505v8.688
		c0,2.016,0.096,3.984,0.384,5.568H226.321z M225.697,250.309c-4.608-0.096-9.841,0.721-9.841,5.232
		c0,2.736,1.824,4.033,3.984,4.033c3.024,0,4.944-1.921,5.616-3.889c0.145-0.432,0.24-0.912,0.24-1.344V250.309z"/>
</g>
<g>
	<g>
		<path opacity="0.4" fill="#FFFFFF" enable-background="new    " d="M148.36,22.499c-46.208,0-83.667,37.459-83.667,83.667
			c0,20.148,11.932,47.423,11.932,47.423l-25.5,35.999L97.17,172.32c14.148,10.968,31.9,17.513,51.189,17.513
			c46.207,0,83.666-37.459,83.666-83.667S194.567,22.499,148.36,22.499z"/>
	</g>
	<g>
		<line fill="none" stroke="#FFFFFF" stroke-width="12" stroke-miterlimit="10" x1="82.4" y1="103.579" x2="143.512" y2="103.579"/>
		
			<line fill="none" stroke="#FFFFFF" stroke-width="12" stroke-miterlimit="10" x1="158.264" y1="103.579" x2="202.516" y2="103.579"/>
		
			<line fill="none" stroke="#FFFFFF" stroke-width="12" stroke-miterlimit="10" x1="217.268" y1="103.579" x2="248.877" y2="103.579"/>
	</g>
	<g>
		<g>
			<g>
				<g>
					<path fill="none" stroke="#FFFFFF" stroke-width="16.4925" stroke-miterlimit="10" d="M124.202,144.216
						c12.751,10.864,29,17.374,46.693,17.374s33.941-6.509,46.691-17.373"/>
					<g>
						<polygon fill="#FFFFFF" points="113.085,161.514 105.796,121.053 144.483,134.963 						"/>
					</g>
					<g>
						<polygon fill="#FFFFFF" points="228.703,161.518 235.994,121.057 197.307,134.966 						"/>
					</g>
				</g>
			</g>
		</g>
	</g>
</g>
</svg>
