<?xml version="1.0" encoding="UTF-8" standalone="no"?>
<svg
   xmlns:dc="http://purl.org/dc/elements/1.1/"
   xmlns:cc="http://creativecommons.org/ns#"
   xmlns:rdf="http://www.w3.org/1999/02/22-rdf-syntax-ns#"
   xmlns:svg="http://www.w3.org/2000/svg"
   xmlns="http://www.w3.org/2000/svg"
   viewBox="0 0 375 375"
   height="375"
   width="375"
   xml:space="preserve"
   version="1.1"
   id="svg2"><metadata
     id="metadata8"><rdf:RDF><cc:Work
         rdf:about=""><dc:format>image/svg+xml</dc:format><dc:type
           rdf:resource="http://purl.org/dc/dcmitype/StillImage" /></cc:Work></rdf:RDF></metadata><defs
     id="defs6"><clipPath
       id="clipPath20"
       clipPathUnits="userSpaceOnUse"><path
         id="path22"
         d="m 657.898,2719.84 c -220.257,0 -398.82,-178.56 -398.82,-398.81 l 0,0 0,-1624.46 c 0,-220.261 178.563,-398.808 398.82,-398.808 l 0,0 1624.462,0 c 220.26,0 398.81,178.547 398.81,398.808 l 0,0 0,1624.46 c 0,220.25 -178.55,398.81 -398.81,398.81 l 0,0 -1624.462,0 z" /></clipPath></defs><g
     transform="matrix(1.25,0,0,-1.25,0,375)"
     id="g10"><g
       transform="scale(0.1,0.1)"
       id="g12"><path
         id="path14"
         style="fill:#aebcc4;fill-opacity:1;fill-rule:nonzero;stroke:none"
         d="m 3000,529.855 c 0,-67.632 0,-529.85109375 -715,-529.85109375 l -1625,0 C 35,0.00390625 0,472.223 0,539.855 L 0,2399.86 c 0,545 592.352,600 660,600 l 1615,0.28 c 67.65,0 725,-0.28 725,-600.28" /><g
         id="g16"><g
           clip-path="url(#clipPath20)"
           id="g18"><path
             id="path24"
             style="fill:none;stroke:#ffffff;stroke-width:40;stroke-linecap:butt;stroke-linejoin:miter;stroke-miterlimit:10;stroke-dasharray:none;stroke-opacity:1"
             d="m 2830,1459.86 -2690,0" /><path
             id="path26"
             style="fill:#ffffff;fill-opacity:1;fill-rule:nonzero;stroke:none"
             d="m 565,2154.86 c -44.559,-69.32 -106.672,-153.34 -106.672,-153.34 0,0 3.16,47.5 43.344,171.66 36.656,113.34 36.5,146.63 36.5,146.63 0,0 5.547,-43.52 44.668,-57.86 24.75,-9.07 41.41,-3.61 41.41,-3.61 0,0 -14.25,-33.48 -59.25,-103.48 m -113.328,31.66 c -1.711,-4.47 -5.024,-13.32 -5.024,-13.32 0,0 -22.957,45.93 -40.398,90.41 -12.711,32.39 -30.352,76 -30.352,76 l -12.148,-6 c 0,0 5.859,-48.05 23.75,-101.25 18.73,-55.72 43.75,-110 43.75,-110 0,0 -35.352,-168.52 -54.578,-225.84 -12.461,-37.14 -53.344,-133.34 -53.344,-133.34 0,0 -15.828,150.84 -10.828,314.18 0.77,25.09 4.012,149.59 4.012,149.59 0,0 24.078,-0.93 36.816,24.57 15,30 -5,45 -5,45 0,0 13.344,0 30.844,30 13.387,22.95 10.656,48.68 10.656,48.68 0,0 40.172,-24.09 75.172,-20.34 34.82,3.73 38.328,16.66 38.328,16.66 0,0 0,-50 -51.656,-185 m -335.57,-144.54 -265.204,430.16 c 0,0 20.852,-3.1 44.692,12.38 23.8397,15.48 8.9412,46.41 8.9412,46.41 0,0 113.2383,-68.07 181.7696,-263.04 68.5392,-194.96 29.8012,-225.91 29.8012,-225.91 m -89.2231,-461.24 -206.8089,300.69 0,429.55 c 0,0 186.12922,-236.25 227.5003,-386.59 41.3594,-150.35 -20.6914,-343.65 -20.6914,-343.65 m -296.5199,410.62 -165.437,128.86 186.129,0 -20.692,-128.86 z m 1628.211,688.18 c 4.95,242.61 -161.75,272.32 -161.75,272.32 0,0 151.85,75.93 146.66,220.77 -4.44,123.94 -130.15,172.05 -130.15,172.05 0,0 105.63,122.14 23.1,297.09 -106.79,226.39 -347.93,110.75 -347.93,110.75 0,0 151.77,276 -20.68,472.52 -212.359,241.98 -434.3,150.34 -434.3,150.34 0,0 24.878,207.62 -162.469,244.43 -220.5119,43.33 -226.4612,-86.65 -226.4612,-86.65 0,0 -116.2187,95.93 -268.1918,-21.66 -111.238,-86.07 -66.718,-350.89 -66.718,-350.89 0,0 -139.032,81.32 -219.34,1.2 -116.66,-116.38 -8.149,-323.38 -8.149,-323.38 0,0 -232.14,2.64 -285.781,-176.84 -70.39,-235.57 92.43,-336.71 92.43,-336.71 0,0 -198.059,-6.61 -211.262,-105.63 -21.488,-161.12 94.402,-239.91 94.402,-239.91 0,0 -305.67,2.48 -305.67,-255.25 0,-257.73 367.71,-281.7 367.71,-281.7 0,0 -134.411,-113.28 -20.68,-300.69 95.308,-157.02 268.851,-42.96 268.851,-42.96 0,0 103.411,-42.95 310.219,-365.11 C -0.78125,1411.46 61.2617,1295.21 81.9414,1037.48 102.629,779.742 -21.4609,654.945 -21.4609,654.945 c 0,0 182.7699,26.481 278.1329,74.91 110,-96.671 304.43,-74.91 304.43,-74.91 0,0 -138.551,69.297 -157.774,284.91 -30,336.665 -31.476,642.575 41.672,825.005 131.672,328.32 236.691,398.32 236.691,398.32 0,0 -1.41,-41.57 23.278,-59.68 49.519,-36.3 91.5,-14.25 91.5,-14.25 0,0 41.191,-71.44 139.57,-51.77 66.021,13.22 107.971,90.7 107.971,90.7 0,0 89.08,-8.91 109.9,74.36 16.5,66.01 -37.92,110.98 -37.92,110.98 0,0 91.84,-11.87 138.6,73.87 29.71,54.47 9.9,123.79 9.9,123.79 0,0 91.65,49.12 94.08,168.36" /><path
             id="path28"
             style="fill:#ffffff;fill-opacity:1;fill-rule:evenodd;stroke:none"
             d="m 1414.05,2437.8 c -3.03,-2.02 -5.05,-5.05 -8.08,-8.08 5.05,1.01 11.11,0 15.15,1.01 4.04,0 8.08,3.03 11.11,4.04 0,0 1.01,0 2.02,-1.01 -2.02,-2.02 -5.05,-5.05 -6.06,-8.08 l 8.09,0 c 10.1,9.09 19.19,7.07 27.27,7.07 6.06,0 14.14,1.01 21.22,-3.03 -4.04,-1.01 -9.1,-2.02 -14.15,-5.05 0,0 -1.01,-1.01 2.02,-1.01 2.02,0 15.16,4.04 18.19,4.04 2.02,0 6.06,-1.01 9.09,-2.02 -1.01,-1.01 -3.03,-1.01 -4.04,-2.02 6.06,-1.01 12.12,-2.02 18.18,-4.04 l -2.02,-2.02 c 30.31,-13.14 65.67,-36.37 91.93,-70.72 8.09,-10.1 4.05,-24.25 7.08,-36.37 l 1.01,-39.4 c 0,-14.14 -3.03,-38.39 -3.03,-40.41 0,-3.03 3.03,-25.25 3.03,-27.27 0,-62.64 -46.47,-43.45 -46.47,-99.01 l 0,-42.43 c 16.16,-18.18 26.26,-45.46 49.5,-55.56 47.48,-22.23 96.98,-39.4 145.47,-62.64 28.29,-14.14 72.74,-36.36 85.87,-73.74 11.11,-31.32 21.22,-62.64 30.31,-93.96 16.16,-58.59 32.33,-118.19 49.5,-177.8 5.05,-18.18 17.17,-53.54 17.17,-55.56 0,-13.13 -45.46,-33.34 -53.54,-40.41 l -1.01,-167.7 c -8.08,-41.42 -18.18,-88.9 -28.29,-131.33 -13.13,-57.58 -30.3,-115.17 -42.43,-173.76 -2.02,-9.09 1.02,-27.28 1.02,-30.311 0,-43.442 -32.33,-124.258 -32.33,-168.711 l 28.31,-357.828 -26.26,-293.981 0,-18.179 c -5.05,-39.399 -13.14,-82.8403 -27.28,-123.2505 -3.03,-8.082 -4.04,-19.1914 -5.05,-29.30075 -1.01,-13.12891 -3.03,-40.41015 -3.03,-43.44145 0,-2.0195 -4.04,-38.3867 -5.05,-57.5781 -2.02,-17.1722 -2.02,-35.3592 -3.03,-53.5392 -1.01,-20.211 -2.02,-40.41 -4.04,-60.621 -1.01,-9.09 -26.27,-160.621 -26.27,-196.988 0,-3.031 3.03,-20.211 3.03,-22.231 0,-3.031 -2.02,-18.179 -2.02,-21.211 0,-12.129 11.11,-31.32 19.19,-43.441 11.12,-16.168 28.29,-28.289 28.29,-43.438 0,-32.332 -64.65,-32.332 -75.77,-32.332 -29.29,0 -56.57,4.039 -84.86,10.102 -6.06,1.008 -12.12,2.02 -16.16,5.051 -15.15,8.078 -37.38,14.148 -43.44,34.347 -1.01,2.02 1.01,4.039 1.01,7.071 0,2.019 -4.04,17.179 -4.04,25.261 0,27.27 2.02,39.399 2.02,42.43 0,11.11 -23.24,27.27 -23.24,63.641 0,3.027 2.02,19.199 3.03,29.297 l 0,63.64 c 7.08,53.551 25.26,112.141 35.36,164.672 1.01,10.11 1.01,28.2892 1.01,30.3087 l 0,78.8008 c 2.02,14.14066 5.05,42.4297 5.05,44.4493 l -11.11,111.1292 0,250.531 -47.51,431.582 c -16.16,-73.75 -6.03,-351.773 -15.12,-426.523 l 1.01,-140.43 c -2.02,-19.188 -2.02,-39.399 -7.07,-59.598 -3.03,-10.101 -10.11,-21.222 -13.14,-32.332 -4.04,-11.109 -6.06,-25.258 -10.1,-37.379 -4.04,-15.148 -11.11,-30.3084 -11.11,-45.4607 0,-26.2578 10.1,-51.5195 16.16,-79.80861 l -10.1,-55.55859 0,-23.2422 -15.15,-130.3199 c 1.01,-14.141 3.03,-39.399 3.03,-42.43 0,-33.328 -8.09,-68.692 -8.09,-81.828 0,-29.293 25.26,-56.571 25.26,-85.871 0,-2.02 -2.02,-13.129 -3.03,-19.192 -1.01,-3.027 -2.02,-9.09 -3.03,-14.14 0,-2.02 -2.02,-7.078 -3.03,-10.11 -4.04,-14.14 -17.18,-41.418 -17.18,-44.449 0,-2.019 4.05,-42.43 4.05,-45.461 0,-5.051 0,-13.129 -4.05,-20.199 -10.1,-16.168 -58.59,-21.219 -77.78,-21.219 -17.18,0 -94.97,1.008 -94.97,38.391 0,26.269 24.25,78.797 24.25,99.008 0,2.019 -5.05,23.23 -5.05,35.351 -2.02,32.328 -12.12,64.66 -22.23,96.988 -4.04,12.122 -4.04,26.262 -5.05,38.391 -2.02,20.199 -3.03,40.41 -4.04,60.609 l -7.07,130.3207 0,230.3323 c 1.01,3.039 1.01,6.07 1.01,9.097 -2.02,14.141 14.14,32.321 14.14,45.461 0,12.121 -10.1,25.25 -21.21,38.391 -4.04,5.051 -17.18,41.418 -17.18,51.52 l 0,19.191 9.1,80.816 c 0,36.371 -1.01,49.5 -3.04,122.243 0,1.007 -27.3,222.46 -26.29,355.808 l 2.02,139.412 c -7.07,30.31 -12.12,62.64 -20.2,92.94 -12.13,46.48 -30.31,91.94 -40.41,137.4 -7.08,33.33 -11.12,67.68 -15.16,101.02 -3.03,23.24 -3.03,47.48 -6.06,69.71 -4.04,29.29 -10.1,59.6 -15.15,88.9 -12.13,6.06 -27.28,13.13 -40.41,20.2 -20.21,9.09 -41.42,19.2 -62.64,30.31 l 0,2.02 c 0,2.02 8.08,28.29 11.12,40.41 24.24,88.9 62.63,178.81 96.98,266.7 12.12,33.34 61.62,66.68 88.9,76.78 41.42,15.15 83.85,35.36 125.27,54.55 3.03,1.01 2.02,6.06 3.03,8.08 4.04,5.06 9.09,12.13 14.14,17.18 14.15,13.13 32.33,8.08 32.33,28.29 0,3.03 0,4.04 -1.01,6.06 -25.26,16.16 -33.34,48.49 -38.39,69.7 -3.03,13.14 -9.09,25.26 -12.12,37.38 -4.04,16.17 -4.04,34.35 -11.11,50.51 0,2.02 -28.29,42.43 -28.29,51.53 l 0,99 c 4.04,16.16 23.23,23.23 36.37,34.35 2.02,2.02 3.03,5.05 4.04,8.08 2.02,5.05 12.12,19.19 20.2,18.18 -3.03,-3.03 -7.07,-8.08 -7.07,-11.11 l 0,-5.05 2.02,-2.02 c 9.09,5.05 8.08,22.22 23.24,24.25 0,-1.02 -2.02,-3.04 -1.01,-5.06 4.04,5.06 11.11,14.15 14.14,14.15 2.02,0 1.01,-2.02 2.02,-3.03 1.01,5.05 8.08,8.08 13.13,9.09 0,-3.03 -1.01,-6.06 0,-9.09 6.07,5.05 13.14,11.11 20.21,15.15 l 5.05,0 z M 1783.8,1433.62 c 0,-21.21 -8.09,-47.48 -11.12,-70.71 l 1.01,-157.6 c -1.01,-7.07 -4.04,-15.15 -5.05,-23.23 -2.02,-10.11 -2.02,-23.24 -3.03,-35.36 -1.01,0 -3.03,-1.01 -4.04,-1.01 0,4.04 0,10.1 -2.02,13.13 -2.02,7.07 -9.09,19.19 -9.09,21.21 0,3.04 3.03,7.08 3.03,10.11 0,2.02 -9.09,12.12 -9.09,14.14 0,3.03 3.03,9.09 4.04,13.13 l -1.01,25.26 c 18.18,23.23 14.14,46.47 20.2,68.7 l 0,26.26 c -3.03,16.17 -10.1,41.42 -10.1,59.61 l 3.03,32.32 c -1.01,10.11 -5.05,29.3 -5.05,31.32 0,3.03 1.01,2.02 1.01,3.03 6.06,1.01 7.07,11.11 10.1,15.15 3.03,3.04 9.09,5.06 13.14,7.08 2.02,-17.18 4.04,-49.51 4.04,-52.54 m -555.63,1.01 c 0,-5.05 6.06,-10.1 7.07,-17.17 2.02,-8.08 3.03,-26.27 3.03,-29.3 0,-2.02 -4.04,-32.32 -4.04,-35.35 0,-2.03 9.09,-17.18 9.09,-20.21 l 0,-36.37 c 4.04,-11.11 16.16,-34.35 16.16,-47.48 0,-3.03 -3.03,-16.16 -3.03,-19.19 0,-2.02 7.07,-19.2 7.07,-22.23 0,-2.02 -8.08,-35.36 -8.08,-37.38 0,-3.03 7.07,-26.26 7.07,-29.29 0,-5.06 -2.02,-10.11 -10.1,-15.16 -2.02,15.16 -4.04,31.32 -6.06,45.46 -4.04,33.34 -7.07,68.7 -12.12,102.04 -4.04,32.32 -18.19,84.86 -18.19,119.2 l 0,22.23 c 3.03,11.11 4.04,23.24 5.05,35.36 l 0,27.27 c 1.01,1.01 3.04,2.02 5.06,4.05 1.01,-5.06 -1.01,-11.12 2.02,-46.48" /></g></g><path
         id="path30"
         style="fill:#080828;fill-opacity:1;fill-rule:nonzero;stroke:none"
         d="m 2193.36,311 57.58,0 -18.71,323.438 -76.78,0 -44.64,-129.563 c -12.47,-37.922 -23.5,-77.75 -32.14,-112.781 l -1.44,0 c -8.15,36 -18.23,74.39 -29.76,112.297 l -42.22,130.047 -77.75,0 -21.59,-323.438 55.18,0 7.21,130.047 c 2.4,44.141 4.31,95.5 5.76,137.719 l 0.96,0 c 8.64,-40.313 20.15,-84.453 32.62,-125.719 l 43.19,-138.203 45.59,0 47.03,140.125 c 14.39,40.781 27.83,84.453 38.39,123.797 l 1.44,0 c -0.48,-43.672 1.92,-94.047 3.85,-135.797 L 2193.36,311" /><path
         id="path32"
         style="fill:#080828;fill-opacity:1;fill-rule:nonzero;stroke:none"
         d="m 2311.08,311 191.94,0 0,49.422 -132.93,0 0,274.016 -59.01,0 0,-323.438" /><path
         id="path34"
         style="fill:#080828;fill-opacity:1;fill-rule:nonzero;stroke:none"
         d="m 2533.67,326.359 c 17.77,-10.562 53.27,-20.156 87.35,-20.156 83.5,0 122.84,45.11 122.84,96.938 0,46.547 -27.36,74.859 -83.5,95.968 -43.19,16.797 -61.91,28.313 -61.91,53.266 0,18.719 16.33,38.875 53.75,38.875 30.24,0 52.78,-9.125 64.3,-15.359 l 14.41,47.5 c -16.8,8.64 -42.72,16.328 -77.75,16.328 -70.05,0 -114.21,-40.313 -114.21,-93.094 0,-46.547 34.08,-74.859 87.35,-94.062 41.26,-14.875 57.58,-29.266 57.58,-53.75 0,-26.391 -21.11,-44.141 -59.04,-44.141 -30.21,0 -59.01,9.594 -78.21,20.625 l -12.96,-48.938" /></g></g></svg>