<svg xmlns="http://www.w3.org/2000/svg" xmlns:xlink="http://www.w3.org/1999/xlink" width="300" height="300.671" viewBox="0 0 300 300.671"><switch><g><symbol id="a" viewBox="-239.998 -118.656 300 300.671"><path fill="#91C4AB" d="M60.002-65.014c0-6.764-.002-53.643-71.502-53.643H-174c-62.5 0-65.998 47.879-65.998 54.643v185.999c0 54.5 59.233 60 65.999 60l161.499.029c6.766 0 72.502-.029 72.502-60.029V-65.014z"/></symbol><use xlink:href="#a" width="300" height="300.671" x="-239.998" y="-118.656" transform="matrix(1 0 0 -1 239.998 182.015)" overflow="visible"/><g fill="#012B16"><path d="M32.642 217.58c0-2.688-.048-4.945-.192-6.961h5.185l.288 3.504h.144c1.008-1.824 3.552-4.032 7.44-4.032 4.081 0 8.305 2.641 8.305 10.033v13.873h-5.904v-13.201c0-3.36-1.248-5.904-4.464-5.904-2.352 0-3.984 1.68-4.608 3.456-.192.528-.24 1.248-.24 1.92v13.729h-5.952V217.58zM82.323 222.092c0 8.593-6.048 12.434-12.001 12.434-6.625 0-11.713-4.561-11.713-12.05 0-7.68 5.041-12.385 12.097-12.385 6.961 0 11.617 4.896 11.617 12.001zm-17.617.24c0 4.513 2.208 7.921 5.808 7.921 3.36 0 5.713-3.313 5.713-8.017 0-3.648-1.632-7.825-5.665-7.825-4.176 0-5.856 4.032-5.856 7.921zM87.169 217.58c0-2.688-.048-4.945-.192-6.961h5.185l.288 3.504h.144c1.008-1.824 3.552-4.032 7.44-4.032 4.081 0 8.305 2.641 8.305 10.033v13.873h-5.904v-13.201c0-3.36-1.248-5.904-4.464-5.904-2.352 0-3.984 1.68-4.608 3.456-.192.528-.24 1.248-.24 1.92v13.729h-5.952V217.58zM125.138 219.164v4.08h-12.241v-4.08h12.241zM152.114 199.914v27.507c0 2.399.096 4.992.192 6.576h-5.281l-.24-3.696h-.096c-1.392 2.592-4.225 4.225-7.633 4.225-5.568 0-9.985-4.753-9.985-11.953-.048-7.825 4.849-12.481 10.465-12.481 3.216 0 5.521 1.345 6.577 3.072h.096v-13.249h5.905zm-5.904 20.45a8.31 8.31 0 0 0-.144-1.536c-.528-2.305-2.4-4.177-5.089-4.177-3.792 0-5.904 3.36-5.904 7.729 0 4.272 2.112 7.393 5.856 7.393 2.4 0 4.512-1.632 5.088-4.176.144-.528.192-1.104.192-1.729v-3.504zM164.736 204.091c0 1.775-1.296 3.168-3.36 3.168-1.969 0-3.265-1.393-3.265-3.168 0-1.824 1.345-3.217 3.313-3.217 2.016 0 3.264 1.393 3.312 3.217zm-6.289 29.906v-23.378h5.953v23.378h-5.953zM192.099 210.619c-.096 1.584-.192 3.504-.192 6.721v13.249c0 4.896-1.008 8.4-3.456 10.608-2.448 2.16-5.809 2.833-9.024 2.833-2.977 0-6.145-.624-8.161-1.872l1.296-4.465c1.488.864 3.984 1.776 6.816 1.776 3.841 0 6.721-2.017 6.721-7.057v-2.017h-.096c-1.344 2.064-3.744 3.457-6.816 3.457-5.809 0-9.938-4.801-9.938-11.426 0-7.681 4.993-12.337 10.609-12.337 3.553 0 5.664 1.729 6.769 3.648h.096l.24-3.12h5.136zm-6.097 9.36c0-.527-.048-1.104-.192-1.584-.624-2.16-2.304-3.792-4.8-3.792-3.313 0-5.761 2.88-5.761 7.633 0 3.984 2.017 7.2 5.713 7.2 2.208 0 4.128-1.44 4.8-3.552.145-.624.24-1.44.24-2.112v-3.793zM202.417 223.964c.144 4.225 3.456 6.049 7.2 6.049 2.736 0 4.705-.384 6.48-1.056l.864 4.08c-2.016.816-4.8 1.44-8.16 1.44-7.585 0-12.05-4.657-12.05-11.81 0-6.48 3.937-12.577 11.426-12.577 7.584 0 10.08 6.24 10.08 11.377 0 1.104-.096 1.969-.191 2.496h-15.649zm10.272-4.128c.049-2.16-.912-5.713-4.848-5.713-3.648 0-5.185 3.313-5.425 5.713h10.273zM229.776 203.946v6.673h5.617v4.416h-5.617v10.321c0 2.832.769 4.32 3.024 4.32a8.78 8.78 0 0 0 2.305-.288l.096 4.513c-.864.336-2.4.576-4.272.576-2.16 0-3.984-.721-5.088-1.921-1.249-1.344-1.824-3.456-1.824-6.528v-10.993h-3.36v-4.416h3.36v-5.28l5.759-1.393zM246.145 204.091c0 1.775-1.296 3.168-3.36 3.168-1.969 0-3.265-1.393-3.265-3.168 0-1.824 1.345-3.217 3.313-3.217 2.016 0 3.264 1.393 3.312 3.217zm-6.29 29.906v-23.378h5.953v23.378h-5.953zM269.328 233.277c-1.248.576-3.696 1.2-6.624 1.2-7.297 0-12.05-4.657-12.05-11.905 0-7.009 4.801-12.481 13.01-12.481 2.16 0 4.368.48 5.712 1.104l-1.056 4.416c-.96-.432-2.353-.912-4.465-.912-4.512 0-7.2 3.313-7.152 7.585 0 4.801 3.12 7.536 7.152 7.536 2.064 0 3.505-.432 4.657-.912l.816 4.369zM24.098 276.572c1.344.816 3.888 1.681 6 1.681 2.592 0 3.744-1.057 3.744-2.593 0-1.584-.96-2.399-3.84-3.408-4.56-1.584-6.48-4.08-6.433-6.816 0-4.128 3.409-7.345 8.833-7.345 2.592 0 4.848.672 6.192 1.393l-1.152 4.176c-1.008-.576-2.88-1.344-4.945-1.344-2.112 0-3.264 1.008-3.264 2.448 0 1.488 1.104 2.208 4.081 3.265 4.224 1.536 6.192 3.696 6.24 7.152 0 4.225-3.312 7.297-9.504 7.297-2.833 0-5.377-.673-7.105-1.633l1.153-4.273zM66.627 270.092c0 8.593-6.048 12.434-12.001 12.434-6.625 0-11.713-4.561-11.713-12.05 0-7.68 5.041-12.385 12.097-12.385 6.961 0 11.617 4.896 11.617 12.001zm-17.617.24c0 4.513 2.208 7.921 5.808 7.921 3.36 0 5.713-3.313 5.713-8.017 0-3.648-1.632-7.825-5.665-7.825-4.176 0-5.856 4.032-5.856 7.921zM92.403 274.988c0 2.784.096 5.089.192 7.009H87.41l-.288-3.553h-.096c-1.008 1.681-3.313 4.081-7.489 4.081-4.272 0-8.161-2.545-8.161-10.177v-13.729h5.904v12.721c0 3.889 1.249 6.385 4.369 6.385 2.352 0 3.888-1.68 4.512-3.168a5.366 5.366 0 0 0 .336-1.824V258.62h5.905v16.368zM98.785 265.58c0-2.688-.048-4.945-.192-6.961h5.185l.288 3.504h.144c1.008-1.824 3.552-4.032 7.44-4.032 4.081 0 8.305 2.641 8.305 10.033v13.873h-5.904v-13.201c0-3.36-1.248-5.904-4.464-5.904-2.352 0-3.984 1.68-4.608 3.456-.192.528-.24 1.248-.24 1.92v13.729h-5.952V265.58zM147.794 247.914v27.507c0 2.399.096 4.992.192 6.576h-5.28l-.24-3.696h-.096c-1.392 2.592-4.225 4.225-7.633 4.225-5.568 0-9.985-4.753-9.985-11.953-.048-7.825 4.849-12.481 10.465-12.481 3.216 0 5.521 1.345 6.577 3.072h.096v-13.249h5.904zm-5.904 20.45a8.31 8.31 0 0 0-.144-1.536c-.528-2.305-2.4-4.177-5.089-4.177-3.792 0-5.904 3.36-5.904 7.729 0 4.272 2.112 7.393 5.856 7.393 2.4 0 4.512-1.632 5.088-4.176.144-.528.192-1.104.192-1.729v-3.504zM168.239 271.964c.144 4.225 3.456 6.049 7.2 6.049 2.736 0 4.705-.384 6.48-1.056l.864 4.08c-2.016.816-4.8 1.44-8.16 1.44-7.585 0-12.05-4.657-12.05-11.81 0-6.48 3.937-12.577 11.426-12.577 7.584 0 10.08 6.24 10.08 11.377 0 1.104-.096 1.969-.191 2.496h-15.649zm10.273-4.128c.049-2.16-.912-5.713-4.848-5.713-3.648 0-5.185 3.313-5.425 5.713h10.273zM203.903 281.997v-18.962h-8.496v18.962h-5.905v-18.962h-3.168v-4.416h3.168v-.576c0-3.024.721-5.809 2.641-7.729 1.44-1.488 3.601-2.4 6.576-2.4 1.249 0 2.497.336 3.217.672l-.96 4.368a5.724 5.724 0 0 0-2.112-.432c-2.688 0-3.504 2.256-3.504 5.185v.912h8.544v-1.008c0-3.024.816-6.049 2.881-7.969 1.728-1.633 4.032-2.257 6.097-2.257 1.584 0 2.832.24 3.744.576l-.384 4.561a7.16 7.16 0 0 0-2.545-.432c-2.928 0-3.888 2.448-3.888 5.328v1.2h5.088v4.416h-5.04v18.962h-5.954zM222.239 271.964c.144 4.225 3.456 6.049 7.2 6.049 2.736 0 4.705-.384 6.48-1.056l.864 4.08c-2.016.816-4.8 1.44-8.16 1.44-7.585 0-12.05-4.657-12.05-11.81 0-6.48 3.937-12.577 11.426-12.577 7.584 0 10.08 6.24 10.08 11.377 0 1.104-.096 1.969-.191 2.496h-15.649zm10.273-4.128c.049-2.16-.912-5.713-4.848-5.713-3.648 0-5.185 3.313-5.425 5.713h10.273zM260.016 281.277c-1.248.576-3.696 1.2-6.624 1.2-7.297 0-12.05-4.657-12.05-11.905 0-7.009 4.801-12.481 13.01-12.481 2.16 0 4.368.48 5.712 1.104l-1.056 4.416c-.96-.432-2.353-.912-4.465-.912-4.512 0-7.2 3.313-7.152 7.585 0 4.801 3.12 7.536 7.152 7.536 2.064 0 3.505-.432 4.657-.912l.816 4.369zM271.87 251.946v6.673h5.617v4.416h-5.617v10.321c0 2.832.769 4.32 3.024 4.32a8.78 8.78 0 0 0 2.305-.288l.096 4.513c-.864.336-2.4.576-4.272.576-2.16 0-3.984-.721-5.088-1.921-1.249-1.344-1.824-3.456-1.824-6.528v-10.993h-3.36v-4.416h3.36v-5.28l5.759-1.393z"/></g><g fill-rule="evenodd" clip-rule="evenodd"><path d="M91 23h185v113H91z"/><path fill="#FFF" d="M100 122h13v5h-13zM100 105h13v5h-13zM100 87h13v5h-13zM100 70h13v5h-13zM100 53h13v5h-13zM100 35h13v5h-13zM254 122h13v5h-13zM254 105h13v5h-13zM254 87h13v5h-13zM254 70h13v5h-13zM254 53h13v5h-13zM254 35h13v5h-13zM121 36h125v87H121z"/></g><g fill="none" stroke="#C1272D" stroke-width="2.6" stroke-miterlimit="10"><path d="M6 156.917h128.283M16.767 156.154l12.451-5.215 1.772 5.71 9.209-13.241 8.635 27.63 5.181-88.15 5.756 114.55 6.333-104.11 5.181 84.043 6.907-56.414 5.18 50.902 9.211-29.932 5.756 19.902 2.88-12.09 2.876 11.022 2.548-5.266"/></g></g></switch></svg>