<?xml version="1.0" encoding="utf-8"?>
<!-- Generator: Adobe Illustrator 16.0.3, SVG Export Plug-In . SVG Version: 6.00 Build 0)  -->
<!DOCTYPE svg PUBLIC "-//W3C//DTD SVG 1.1//EN" "http://www.w3.org/Graphics/SVG/1.1/DTD/svg11.dtd" [
	<!ENTITY ns_extend "http://ns.adobe.com/Extensibility/1.0/">
	<!ENTITY ns_ai "http://ns.adobe.com/AdobeIllustrator/10.0/">
	<!ENTITY ns_graphs "http://ns.adobe.com/Graphs/1.0/">
	<!ENTITY ns_vars "http://ns.adobe.com/Variables/1.0/">
	<!ENTITY ns_imrep "http://ns.adobe.com/ImageReplacement/1.0/">
	<!ENTITY ns_sfw "http://ns.adobe.com/SaveForWeb/1.0/">
	<!ENTITY ns_custom "http://ns.adobe.com/GenericCustomNamespace/1.0/">
	<!ENTITY ns_adobe_xpath "http://ns.adobe.com/XPath/1.0/">
]>
<svg version="1.1" id="Ebene_1" xmlns:x="&ns_extend;" xmlns:i="&ns_ai;" xmlns:graph="&ns_graphs;"
	 xmlns="http://www.w3.org/2000/svg" xmlns:xlink="http://www.w3.org/1999/xlink" x="0px" y="0px" width="300px" height="300px"
	 viewBox="0 0 300 300" enable-background="new 0 0 300 300" xml:space="preserve">
<metadata>
	<sfw  xmlns="&ns_sfw;">
		<slices></slices>
		<sliceSourceBounds  height="309.582" width="300" x="-50.5" y="-57.082" bottomLeftOrigin="true"></sliceSourceBounds>
	</sfw>
</metadata>
<path fill="#C18C2F" d="M228,298H72c-39.604,0-72-16.9-72-56.5V58C0,18.4,32.397-2,72-2h156c39.602,0,72,20.9,72,60.5V242
	C300,281.6,267.6,298,228,298z"/>
<rect x="0.758" y="228.086" fill="none" width="298.483" height="79.496"/>
<g enable-background="new    ">
	<path fill="#FFFFFF" d="M72.531,251.989l-3.36,10.177h-4.32l10.993-32.354h5.041l11.041,32.354H87.46l-3.457-10.177H72.531z
		 M83.139,248.725l-3.168-9.313c-0.72-2.112-1.2-4.032-1.68-5.904h-0.096c-0.48,1.92-1.008,3.888-1.632,5.856l-3.168,9.36H83.139z"
		/>
	<path fill="#FFFFFF" d="M96.386,245.221c0-2.4-0.048-4.368-0.192-6.289h3.744l0.24,3.841h0.096c1.152-2.208,3.84-4.368,7.681-4.368
		c3.216,0,8.209,1.92,8.209,9.889v13.873h-4.225v-13.394c0-3.744-1.392-6.864-5.376-6.864c-2.784,0-4.944,1.968-5.665,4.32
		c-0.192,0.528-0.288,1.248-0.288,1.969v13.969h-4.224V245.221z"/>
	<path fill="#FFFFFF" d="M135.891,262.166l-0.336-2.929h-0.144c-1.296,1.824-3.792,3.457-7.104,3.457
		c-4.704,0-7.104-3.313-7.104-6.673c0-5.616,4.992-8.688,13.969-8.641v-0.48c0-1.92-0.528-5.376-5.28-5.376
		c-2.161,0-4.417,0.672-6.049,1.728l-0.96-2.784c1.92-1.248,4.704-2.063,7.633-2.063c7.104,0,8.833,4.848,8.833,9.505v8.688
		c0,2.016,0.096,3.984,0.384,5.568H135.891z M135.267,250.309c-4.608-0.096-9.841,0.721-9.841,5.232
		c0,2.736,1.824,4.033,3.984,4.033c3.024,0,4.945-1.921,5.617-3.889c0.144-0.432,0.24-0.912,0.24-1.344V250.309z"/>
	<path fill="#FFFFFF" d="M146.162,246.517c0-2.977-0.096-5.376-0.192-7.585h3.792l0.192,3.984h0.096
		c1.728-2.832,4.464-4.512,8.257-4.512c5.616,0,9.841,4.752,9.841,11.809c0,8.353-5.089,12.481-10.562,12.481
		c-3.072,0-5.76-1.345-7.152-3.648h-0.096v12.625h-4.176V246.517z M150.338,252.709c0,0.624,0.096,1.2,0.191,1.729
		c0.769,2.928,3.313,4.944,6.337,4.944c4.465,0,7.057-3.648,7.057-8.977c0-4.656-2.448-8.641-6.913-8.641
		c-2.879,0-5.568,2.063-6.384,5.232c-0.144,0.527-0.288,1.151-0.288,1.728V252.709z"/>
	<path fill="#FFFFFF" d="M173.473,228.083h4.225v14.497h0.096c0.673-1.2,1.729-2.256,3.024-2.976c1.248-0.721,2.736-1.2,4.32-1.2
		c3.121,0,8.113,1.92,8.113,9.937v13.825h-4.225v-13.345c0-3.745-1.393-6.913-5.376-6.913c-2.736,0-4.896,1.92-5.665,4.225
		c-0.24,0.576-0.288,1.2-0.288,2.016v14.018h-4.225V228.083z"/>
	<path fill="#FFFFFF" d="M202.465,251.317c0.096,5.712,3.744,8.064,7.969,8.064c3.024,0,4.849-0.528,6.433-1.2l0.72,3.024
		c-1.488,0.672-4.032,1.44-7.729,1.44c-7.152,0-11.425-4.705-11.425-11.714c0-7.008,4.128-12.528,10.896-12.528
		c7.585,0,9.602,6.672,9.602,10.944c0,0.864-0.097,1.536-0.145,1.969H202.465z M214.85,248.293c0.049-2.688-1.104-6.865-5.856-6.865
		c-4.272,0-6.145,3.937-6.48,6.865H214.85z"/>
	<path fill="#FFFFFF" d="M224.159,246.181c0-2.736-0.048-5.089-0.191-7.249h3.696l0.144,4.561H228
		c1.056-3.12,3.601-5.088,6.433-5.088c0.479,0,0.816,0.048,1.2,0.144v3.984c-0.433-0.096-0.864-0.144-1.44-0.144
		c-2.977,0-5.088,2.256-5.664,5.424c-0.097,0.576-0.192,1.248-0.192,1.969v12.385h-4.177V246.181z"/>
</g>
<g>
	<g>
		<path opacity="0.4" fill="#FFFFFF" enable-background="new    " d="M148.684,23.5c-46.208,0-83.667,37.459-83.667,83.666
			c0,20.148,11.929,47.424,11.929,47.424l-25.499,35.998l46.047-17.266c14.149,10.967,31.9,17.512,51.19,17.512
			c46.207,0,83.666-37.459,83.666-83.668C232.35,60.959,194.891,23.5,148.684,23.5z"/>
	</g>
	<path fill="#FFFFFF" d="M220.463,190.305l-15.867-48.244h-47.485l-15.425,48.244h-27.448l52.903-160.813h28.283l53.131,160.813
		H220.463z M198.184,119.159L185.26,79.918c-1.766-5.353-3.219-10.441-4.525-15.361c-1.432,5.408-2.84,10.348-4.283,15.061
		l-12.957,39.542L198.184,119.159L198.184,119.159z"/>
</g>
</svg>
