<?xml version="1.0" encoding="utf-8"?>
<!-- Generator: Adobe Illustrator 16.0.3, SVG Export Plug-In . SVG Version: 6.00 Build 0)  -->
<!DOCTYPE svg PUBLIC "-//W3C//DTD SVG 1.1//EN" "http://www.w3.org/Graphics/SVG/1.1/DTD/svg11.dtd">
<svg version="1.1" id="Layer_1" xmlns="http://www.w3.org/2000/svg" xmlns:xlink="http://www.w3.org/1999/xlink" x="0px" y="0px"
	 width="499.975px" height="500px" viewBox="0 0 499.975 500" enable-background="new 0 0 499.975 500" xml:space="preserve">
<title>Artboard 1</title>
<rect y="0" fill="#FF3A21" width="499.975" height="500"/>
<path fill="#FCFAFA" d="M79.72,73.82c-6.69,0-11.595,2.375-14.275,7h-0.15V55.68H94.44V41.85H49.84v56.805h15.455v-2.238
	c0-5.945,2.68-9.222,7.435-9.222c5.205,0,7.294,3.575,7.294,9.08v24.387c0,5.354-1.939,9.063-7.145,9.063
	c-5.8,0-7.875-3.865-7.875-9.805v-12.646H49.53v11.45c0,15.315,6.1,25.13,23.35,25.13c17.1,0,24.085-9.068,24.085-23.05v-24.68
	C96.965,80.215,88.79,73.82,79.72,73.82"/>
<g>
	<path fill="#FCFAFA" d="M364.175,189.19h-62.14c-0.438,0.006-0.787,0.359-0.79,0.795v20.646c0,0.437,0.353,0.792,0.79,0.795h24.74
		l-27.477,27.5c-14.295-11.271-31.972-17.393-50.175-17.38c-44.875,0-81.391,36.5-81.391,81.39c0,41.32,30.955,75.5,70.886,80.685
		v23.795h-24.5c-0.435-0.008-0.792,0.338-0.8,0.771c0,0.005,0,0.01,0,0.015v22.137c-0.002,0.433,0.347,0.786,0.779,0.79
		c0.008,0,0.014,0,0.021,0h24.5V454.5c-0.003,0.433,0.346,0.786,0.779,0.788c0.004,0,0.008,0,0.011,0h22.12
		c0.438,0.003,0.797-0.351,0.8-0.788l0,0v-23.396h24.5c0.434,0,0.785-0.352,0.785-0.785c0-0.001,0-0.003,0-0.005V408.18
		c0-0.435-0.353-0.785-0.785-0.785l0,0h-24.5v-24.18c38.615-6.335,68.17-39.92,68.17-80.302c0.015-16.766-5.18-33.122-14.865-46.81
		L342.725,229v23.108c0.007,0.44,0.365,0.793,0.807,0.79h20.645c0.44,0.003,0.8-0.35,0.806-0.79V190
		c-0.002-0.442-0.362-0.798-0.806-0.795l0,0 M249.125,362.823c-33.087,0-59.91-26.821-59.91-59.91
		c0-33.086,26.823-59.908,59.91-59.908s59.91,26.822,59.91,59.908C309.002,335.989,282.198,362.79,249.125,362.823"/>
	<path fill="#FCFAFA" d="M286.325,278.325H213.66c-0.413-0.019-0.763,0.298-0.79,0.71v17.59c0.016,0.414,0.363,0.735,0.777,0.721
		c0.004-0.001,0.009-0.001,0.013-0.001h72.665c0.416,0.028,0.774-0.286,0.804-0.702c0.001-0.006,0.001-0.012,0.001-0.018v-17.59
		C287.101,278.618,286.742,278.302,286.325,278.325"/>
	<path fill="#FCFAFA" d="M286.325,309.735H213.66c-0.42-0.011-0.771,0.315-0.79,0.735v17.59c0.021,0.413,0.374,0.73,0.788,0.71
		c0.001,0,0.001,0,0.002,0h72.665c0.416,0.028,0.775-0.286,0.805-0.702c0-0.003,0-0.005,0-0.008v-17.59
		C287.108,310.045,286.749,309.718,286.325,309.735"/>
</g>
<g>
	<path fill="#FFFFFF" d="M164.703,84.305c-0.743,0-1.23-0.615-1.465-1.846c0-0.019-0.137-0.786-0.41-2.3
		c-0.274-1.513-0.41-2.377-0.41-2.593c0-0.195-0.029-0.293-0.088-0.293s-0.117,0.088-0.176,0.264
		c-0.333,2.188-1.05,3.857-2.153,5.01c-1.104,1.153-2.563,1.729-4.38,1.729c-0.879,0-1.68-0.059-2.402-0.176
		c-0.723-0.117-1.49-0.366-2.3-0.747c-0.811-0.381-1.528-0.883-2.153-1.509c-0.625-0.625-1.235-1.484-1.831-2.578
		c-0.596-1.094-1.084-2.377-1.465-3.853c-0.381-1.475-0.688-3.286-0.923-5.435c-0.234-2.148-0.352-4.56-0.352-7.236
		c0-2.773,0.142-5.254,0.425-7.441c0.283-2.187,0.654-4.023,1.113-5.508c0.458-1.484,1.05-2.764,1.772-3.838
		c0.722-1.074,1.45-1.909,2.183-2.505c0.732-0.596,1.606-1.064,2.622-1.406c1.015-0.341,1.943-0.561,2.783-0.659
		c0.839-0.098,1.816-0.146,2.93-0.146c0.82,0,1.714,0.107,2.681,0.322c0.967,0.215,1.733,0.45,2.3,0.703
		c0.019,0.02,0.063,0.049,0.132,0.088c0.068,0.04,0.122,0.093,0.161,0.161c0.039,0.069,0.059,0.171,0.059,0.308v3.604
		c0,0.274-0.078,0.41-0.234,0.41c-0.02,0-0.132-0.029-0.337-0.088s-0.479-0.132-0.82-0.22c-0.342-0.088-0.713-0.171-1.113-0.249
		c-0.4-0.078-0.825-0.146-1.274-0.205c-0.45-0.059-0.86-0.088-1.23-0.088c-1.036,0-1.924,0.103-2.666,0.308
		c-0.743,0.205-1.494,0.645-2.256,1.318s-1.377,1.607-1.846,2.798c-0.469,1.191-0.85,2.823-1.143,4.893
		c-0.293,2.07-0.439,4.551-0.439,7.441c0,2.735,0.107,5.112,0.322,7.134c0.215,2.021,0.498,3.647,0.85,4.878
		s0.806,2.217,1.362,2.959c0.557,0.743,1.123,1.245,1.699,1.509c0.576,0.264,1.245,0.396,2.007,0.396
		c0.898,0,1.645-0.264,2.241-0.791c0.596-0.527,1.044-1.337,1.348-2.432c0.303-1.094,0.508-2.295,0.615-3.604
		c0.107-1.308,0.161-2.939,0.161-4.893c0-0.879-0.088-1.318-0.264-1.318h-3.311c-0.176,0-0.318-0.024-0.425-0.073
		c-0.107-0.048-0.205-0.171-0.293-0.366c-0.088-0.195-0.132-0.469-0.132-0.82v-2.402c0-0.527,0.073-0.874,0.22-1.04
		c0.146-0.166,0.347-0.249,0.601-0.249h7.881c0.508,0,0.762,0.605,0.762,1.816v18.896c0,0.586-0.098,1.06-0.293,1.421
		C165.152,84.124,164.938,84.305,164.703,84.305z"/>
	<path fill="#FFFFFF" d="M172.057,83.836c-0.254,0-0.439-0.073-0.557-0.22s-0.176-0.483-0.176-1.011V42.938
		c0-0.508,0.059-0.839,0.176-0.996c0.117-0.156,0.303-0.234,0.557-0.234h15.41c0.156,0,0.283,0.02,0.381,0.059
		c0.098,0.04,0.18,0.146,0.249,0.322c0.068,0.176,0.103,0.439,0.103,0.791v2.314c0,0.488-0.059,0.806-0.176,0.952
		s-0.303,0.22-0.557,0.22h-10.02c-0.234,0-0.352,0.322-0.352,0.967v11.836c0,0.176,0.034,0.352,0.103,0.527
		c0.068,0.176,0.132,0.264,0.19,0.264h8.057c0.488,0,0.732,0.45,0.732,1.348v2.256c0,0.898-0.245,1.348-0.732,1.348h-8.027
		c-0.078,0-0.151,0.098-0.22,0.293c-0.069,0.195-0.103,0.391-0.103,0.586v13.389h10.459c0.176,0,0.312,0.02,0.41,0.059
		c0.098,0.04,0.18,0.146,0.249,0.322c0.068,0.176,0.103,0.439,0.103,0.791v2.314c0,0.488-0.063,0.806-0.19,0.952
		c-0.127,0.146-0.318,0.22-0.571,0.22H172.057z"/>
	<path fill="#FFFFFF" d="M201.881,41.239c3.672,0,6.533,1.338,8.584,4.014c0.195,0.254,0.293,0.557,0.293,0.908
		c0,0.684-0.289,1.406-0.864,2.168c-0.576,0.762-1.06,1.143-1.45,1.143c-0.117,0-0.205-0.039-0.264-0.117
		c-1.739-2.109-3.809-3.164-6.211-3.164c-1.348,0-2.432,0.571-3.252,1.714s-1.23,2.534-1.23,4.175c0,1.543,0.352,2.803,1.055,3.779
		c0.703,0.977,1.709,1.885,3.018,2.725l3.721,2.402c3.926,2.539,5.889,6.25,5.889,11.133c0,3.574-0.908,6.494-2.725,8.76
		c-1.816,2.266-4.258,3.398-7.324,3.398c-4.141,0-7.402-1.787-9.785-5.361c-0.117-0.176-0.176-0.4-0.176-0.674
		c0-0.684,0.278-1.431,0.835-2.241c0.557-0.81,1.088-1.216,1.597-1.216c0.195,0,0.371,0.088,0.527,0.264
		c2.187,2.793,4.521,4.189,7.002,4.189c1.523,0,2.714-0.59,3.574-1.772c0.859-1.182,1.289-2.681,1.289-4.497
		c0-1.641-0.342-2.974-1.025-3.999c-0.684-1.025-1.729-1.997-3.135-2.915l-3.75-2.52c-0.82-0.546-1.534-1.113-2.139-1.699
		c-0.605-0.586-1.187-1.293-1.743-2.124c-0.557-0.83-0.986-1.806-1.289-2.93c-0.303-1.123-0.454-2.358-0.454-3.706
		c0-3.516,0.854-6.367,2.563-8.555C196.72,42.333,199.01,41.239,201.881,41.239z"/>
	<path fill="#FFFFFF" d="M227.164,84.276c-1.016,0-1.9-0.049-2.651-0.146c-0.752-0.098-1.567-0.317-2.446-0.659
		c-0.879-0.341-1.626-0.815-2.241-1.421c-0.615-0.605-1.23-1.445-1.846-2.52c-0.615-1.074-1.109-2.358-1.479-3.853
		c-0.371-1.494-0.674-3.33-0.908-5.508c-0.234-2.178-0.352-4.653-0.352-7.427c0-3.75,0.229-6.973,0.688-9.668
		c0.458-2.695,1.04-4.794,1.743-6.299c0.703-1.504,1.616-2.685,2.739-3.545c1.123-0.859,2.197-1.406,3.223-1.641
		s2.251-0.352,3.677-0.352c1.816,0,3.311,0.274,4.482,0.82c0.019,0.02,0.048,0.044,0.088,0.073c0.039,0.029,0.073,0.059,0.103,0.088
		s0.054,0.078,0.073,0.146c0.019,0.069,0.029,0.151,0.029,0.249v3.545c0,0.274-0.069,0.41-0.205,0.41
		c-0.02,0-0.093-0.019-0.22-0.059c-0.127-0.039-0.308-0.088-0.542-0.146s-0.488-0.117-0.762-0.176
		c-0.274-0.059-0.591-0.107-0.952-0.146c-0.362-0.039-0.718-0.059-1.069-0.059c-0.918,0-1.699,0.103-2.344,0.308
		s-1.299,0.645-1.963,1.318c-0.664,0.674-1.201,1.607-1.611,2.798c-0.41,1.191-0.743,2.823-0.996,4.893
		c-0.254,2.07-0.381,4.551-0.381,7.441c0,2.949,0.112,5.459,0.337,7.529c0.224,2.07,0.513,3.706,0.864,4.907
		s0.839,2.134,1.465,2.798c0.625,0.664,1.25,1.094,1.875,1.289c0.625,0.195,1.406,0.293,2.344,0.293
		c1.387,0,2.617-0.186,3.691-0.557c0.019,0,0.063,0.098,0.132,0.293c0.068,0.195,0.103,0.303,0.103,0.322v3.369
		c0,0.02-0.034,0.122-0.103,0.308c-0.069,0.186-0.113,0.289-0.132,0.308C230.426,84.051,228.941,84.276,227.164,84.276z"/>
	<path fill="#FFFFFF" d="M237.857,83.836c-0.274,0-0.469-0.083-0.586-0.249c-0.117-0.166-0.176-0.542-0.176-1.128V43.084
		c0-0.586,0.059-0.962,0.176-1.128c0.117-0.166,0.312-0.249,0.586-0.249h4.248c0.273,0,0.469,0.083,0.586,0.249
		c0.117,0.166,0.176,0.542,0.176,1.128V58.67c0,0.176,0.034,0.333,0.103,0.469c0.068,0.137,0.132,0.205,0.19,0.205h8.789
		c0.059,0,0.127-0.073,0.205-0.22c0.077-0.146,0.117-0.308,0.117-0.483V43.084c0-0.566,0.063-0.938,0.19-1.113
		s0.317-0.264,0.571-0.264h4.307c0.253,0,0.439,0.083,0.557,0.249c0.117,0.166,0.176,0.542,0.176,1.128v39.375
		c0,0.586-0.059,0.962-0.176,1.128c-0.117,0.166-0.304,0.249-0.557,0.249h-4.307c-0.176,0-0.313-0.024-0.41-0.073
		c-0.099-0.048-0.187-0.18-0.264-0.396c-0.078-0.215-0.117-0.517-0.117-0.908v-17.9c0-0.41-0.107-0.615-0.322-0.615h-8.701
		c-0.195,0-0.293,0.205-0.293,0.615v17.9c0,0.567-0.063,0.938-0.19,1.113c-0.127,0.176-0.318,0.264-0.571,0.264H237.857z"/>
	<path fill="#FFFFFF" d="M265.572,83.836c-0.254,0-0.439-0.083-0.557-0.249c-0.117-0.166-0.176-0.542-0.176-1.128V43.084
		c0-0.586,0.059-0.962,0.176-1.128c0.117-0.166,0.303-0.249,0.557-0.249h4.307c0.253,0,0.439,0.083,0.557,0.249
		c0.117,0.166,0.176,0.542,0.176,1.128v35.449c0,0.43,0.136,0.645,0.41,0.645h7.617c0.253,0,0.439,0.069,0.557,0.205
		c0.117,0.137,0.176,0.45,0.176,0.938v2.344c0,0.488-0.059,0.806-0.176,0.952s-0.304,0.22-0.557,0.22H265.572z"/>
	<path fill="#FFFFFF" d="M284.674,83.836c-0.254,0-0.439-0.073-0.557-0.22s-0.176-0.483-0.176-1.011V42.938
		c0-0.508,0.059-0.839,0.176-0.996c0.117-0.156,0.303-0.234,0.557-0.234h15.41c0.156,0,0.282,0.02,0.381,0.059
		c0.098,0.04,0.181,0.146,0.249,0.322s0.103,0.439,0.103,0.791v2.314c0,0.488-0.059,0.806-0.176,0.952s-0.304,0.22-0.557,0.22
		h-10.02c-0.234,0-0.352,0.322-0.352,0.967v11.836c0,0.176,0.034,0.352,0.103,0.527s0.132,0.264,0.19,0.264h8.057
		c0.487,0,0.732,0.45,0.732,1.348v2.256c0,0.898-0.245,1.348-0.732,1.348h-8.027c-0.078,0-0.151,0.098-0.22,0.293
		c-0.068,0.195-0.103,0.391-0.103,0.586v13.389h10.459c0.176,0,0.312,0.02,0.41,0.059c0.098,0.04,0.181,0.146,0.249,0.322
		s0.103,0.439,0.103,0.791v2.314c0,0.488-0.063,0.806-0.19,0.952s-0.318,0.22-0.571,0.22H284.674z"/>
	<path fill="#FFFFFF" d="M317.047,84.276c-1.016,0-1.899-0.049-2.651-0.146c-0.752-0.098-1.567-0.317-2.446-0.659
		c-0.879-0.341-1.626-0.815-2.241-1.421c-0.615-0.605-1.23-1.445-1.846-2.52c-0.615-1.074-1.109-2.358-1.479-3.853
		c-0.371-1.494-0.674-3.33-0.908-5.508c-0.234-2.178-0.352-4.653-0.352-7.427c0-3.75,0.229-6.973,0.688-9.668
		s1.04-4.794,1.743-6.299c0.703-1.504,1.616-2.685,2.739-3.545c1.123-0.859,2.197-1.406,3.223-1.641s2.251-0.352,3.677-0.352
		c1.816,0,3.311,0.274,4.482,0.82c0.019,0.02,0.048,0.044,0.088,0.073c0.039,0.029,0.073,0.059,0.103,0.088s0.054,0.078,0.073,0.146
		c0.019,0.069,0.029,0.151,0.029,0.249v3.545c0,0.274-0.069,0.41-0.205,0.41c-0.02,0-0.093-0.019-0.22-0.059
		c-0.127-0.039-0.308-0.088-0.542-0.146s-0.488-0.117-0.762-0.176c-0.274-0.059-0.591-0.107-0.952-0.146
		c-0.361-0.039-0.718-0.059-1.069-0.059c-0.919,0-1.699,0.103-2.344,0.308s-1.3,0.645-1.963,1.318
		c-0.664,0.674-1.201,1.607-1.611,2.798c-0.41,1.191-0.743,2.823-0.996,4.893c-0.254,2.07-0.381,4.551-0.381,7.441
		c0,2.949,0.112,5.459,0.337,7.529c0.225,2.07,0.513,3.706,0.864,4.907s0.839,2.134,1.465,2.798
		c0.625,0.664,1.249,1.094,1.875,1.289c0.625,0.195,1.406,0.293,2.344,0.293c1.387,0,2.617-0.186,3.691-0.557
		c0.019,0,0.063,0.098,0.132,0.293c0.068,0.195,0.103,0.303,0.103,0.322v3.369c0,0.02-0.034,0.122-0.103,0.308
		c-0.068,0.186-0.113,0.289-0.132,0.308C320.309,84.051,318.823,84.276,317.047,84.276z"/>
	<path fill="#FFFFFF" d="M327.74,83.836c-0.274,0-0.469-0.083-0.586-0.249c-0.117-0.166-0.176-0.542-0.176-1.128V43.084
		c0-0.586,0.059-0.962,0.176-1.128c0.117-0.166,0.312-0.249,0.586-0.249h4.248c0.273,0,0.469,0.083,0.586,0.249
		c0.117,0.166,0.176,0.542,0.176,1.128V58.67c0,0.176,0.034,0.333,0.103,0.469c0.068,0.137,0.132,0.205,0.19,0.205h8.789
		c0.059,0,0.127-0.073,0.205-0.22c0.077-0.146,0.117-0.308,0.117-0.483V43.084c0-0.566,0.063-0.938,0.19-1.113
		s0.317-0.264,0.571-0.264h4.307c0.253,0,0.439,0.083,0.557,0.249c0.117,0.166,0.176,0.542,0.176,1.128v39.375
		c0,0.586-0.059,0.962-0.176,1.128c-0.117,0.166-0.304,0.249-0.557,0.249h-4.307c-0.176,0-0.313-0.024-0.41-0.073
		c-0.099-0.048-0.187-0.18-0.264-0.396c-0.078-0.215-0.117-0.517-0.117-0.908v-17.9c0-0.41-0.107-0.615-0.322-0.615h-8.701
		c-0.195,0-0.293,0.205-0.293,0.615v17.9c0,0.567-0.063,0.938-0.19,1.113s-0.318,0.264-0.571,0.264H327.74z"/>
	<path fill="#FFFFFF" d="M358.941,83.836c-0.234,0-0.415-0.092-0.542-0.278c-0.127-0.186-0.19-0.561-0.19-1.128V47.156
		c0-0.488-0.107-0.732-0.322-0.732h-5.098c-0.195,0-0.337-0.015-0.425-0.044s-0.166-0.127-0.234-0.293
		c-0.068-0.166-0.103-0.425-0.103-0.776v-2.314c0-0.527,0.059-0.874,0.176-1.04c0.117-0.166,0.312-0.249,0.586-0.249h16.553
		c0.253,0,0.439,0.083,0.557,0.249c0.117,0.166,0.176,0.513,0.176,1.04v2.314c0,0.488-0.054,0.796-0.161,0.923
		c-0.107,0.127-0.298,0.19-0.571,0.19h-5.01c-0.216,0-0.322,0.245-0.322,0.732V82.43c0,0.586-0.063,0.967-0.19,1.143
		s-0.318,0.264-0.571,0.264H358.941z"/>
	<path fill="#FFFFFF" d="M374.879,83.836c-0.254,0-0.439-0.073-0.557-0.22s-0.176-0.483-0.176-1.011V42.938
		c0-0.508,0.059-0.839,0.176-0.996c0.117-0.156,0.303-0.234,0.557-0.234h15.41c0.156,0,0.282,0.02,0.381,0.059
		c0.098,0.04,0.181,0.146,0.249,0.322s0.103,0.439,0.103,0.791v2.314c0,0.488-0.059,0.806-0.176,0.952s-0.304,0.22-0.557,0.22
		h-10.02c-0.234,0-0.352,0.322-0.352,0.967v11.836c0,0.176,0.034,0.352,0.103,0.527s0.132,0.264,0.19,0.264h8.057
		c0.487,0,0.732,0.45,0.732,1.348v2.256c0,0.898-0.245,1.348-0.732,1.348h-8.027c-0.078,0-0.151,0.098-0.22,0.293
		c-0.068,0.195-0.103,0.391-0.103,0.586v13.389h10.459c0.176,0,0.312,0.02,0.41,0.059c0.098,0.04,0.181,0.146,0.249,0.322
		s0.103,0.439,0.103,0.791v2.314c0,0.488-0.063,0.806-0.19,0.952s-0.318,0.22-0.571,0.22H374.879z"/>
	<path fill="#FFFFFF" d="M396.91,83.836c-0.254,0-0.439-0.083-0.557-0.249c-0.117-0.166-0.176-0.522-0.176-1.069V43.055
		c0-0.586,0.059-0.957,0.176-1.113c0.117-0.156,0.303-0.234,0.557-0.234h9.844c1.23,0,2.28,0.069,3.149,0.205
		c0.869,0.137,1.762,0.43,2.681,0.879c0.918,0.45,1.655,1.074,2.212,1.875c0.557,0.801,1.016,1.895,1.377,3.281
		c0.361,1.387,0.542,3.057,0.542,5.01c0,1.465-0.107,2.739-0.322,3.823c-0.216,1.084-0.538,1.963-0.967,2.637
		c-0.43,0.674-0.894,1.206-1.392,1.597c-0.498,0.391-1.099,0.723-1.802,0.996c-0.059,0.059-0.088,0.117-0.088,0.176
		s0.029,0.107,0.088,0.146c0.703,0.333,1.274,0.674,1.714,1.025s0.883,0.864,1.333,1.538c0.449,0.674,0.791,1.587,1.025,2.739
		c0.234,1.153,0.381,2.568,0.439,4.248c0.077,1.523,0.117,5.02,0.117,10.488c0,0.977-0.176,1.465-0.527,1.465
		c-3.028,0.019-4.581,0.029-4.658,0.029c-0.313,0-0.479-0.439-0.498-1.318c0-0.136-0.059-2.324-0.176-6.563
		c-0.117-4.238-0.245-6.68-0.381-7.324c-0.059-0.801-0.22-1.469-0.483-2.007c-0.264-0.537-0.605-0.927-1.025-1.172
		c-0.42-0.244-0.835-0.41-1.245-0.498s-0.879-0.132-1.406-0.132h-4.189c-0.216,0-0.322,0.215-0.322,0.645v17.021
		c0,0.547-0.059,0.904-0.176,1.069c-0.117,0.166-0.304,0.249-0.557,0.249H396.91z M402.242,60.281h3.779
		c3.262,0,4.893-2.373,4.893-7.119c0-2.52-0.444-4.282-1.333-5.288c-0.889-1.006-2.378-1.509-4.468-1.509h-2.842
		c-0.216,0-0.322,0.195-0.322,0.586V59.49C401.949,60.018,402.047,60.281,402.242,60.281z"/>
	<path fill="#FFFFFF" d="M423.219,68.25c-0.254,0-0.444-0.103-0.571-0.308s-0.19-0.601-0.19-1.187v-1.494
		c0-0.586,0.063-0.977,0.19-1.172c0.127-0.195,0.317-0.293,0.571-0.293h12.51c0.487,0,0.732,0.488,0.732,1.465v1.494
		c0,0.996-0.245,1.494-0.732,1.494H423.219z"/>
	<path fill="#FFFFFF" d="M164.703,144.305c-0.743,0-1.23-0.615-1.465-1.846c0-0.019-0.137-0.786-0.41-2.3
		c-0.274-1.513-0.41-2.377-0.41-2.593c0-0.195-0.029-0.293-0.088-0.293s-0.117,0.088-0.176,0.264
		c-0.333,2.188-1.05,3.857-2.153,5.01c-1.104,1.153-2.563,1.729-4.38,1.729c-0.879,0-1.68-0.059-2.402-0.176
		c-0.723-0.117-1.49-0.366-2.3-0.747c-0.811-0.381-1.528-0.883-2.153-1.509c-0.625-0.625-1.235-1.484-1.831-2.578
		c-0.596-1.094-1.084-2.377-1.465-3.853c-0.381-1.475-0.688-3.286-0.923-5.435c-0.234-2.148-0.352-4.56-0.352-7.236
		c0-2.773,0.142-5.254,0.425-7.441c0.283-2.187,0.654-4.023,1.113-5.508c0.458-1.484,1.05-2.764,1.772-3.838
		c0.722-1.074,1.45-1.909,2.183-2.505c0.732-0.596,1.606-1.064,2.622-1.406c1.015-0.341,1.943-0.561,2.783-0.659
		c0.839-0.098,1.816-0.146,2.93-0.146c0.82,0,1.714,0.107,2.681,0.322c0.967,0.215,1.733,0.45,2.3,0.703
		c0.019,0.02,0.063,0.049,0.132,0.088c0.068,0.04,0.122,0.093,0.161,0.161c0.039,0.069,0.059,0.171,0.059,0.308v3.604
		c0,0.274-0.078,0.41-0.234,0.41c-0.02,0-0.132-0.029-0.337-0.088s-0.479-0.132-0.82-0.22c-0.342-0.088-0.713-0.171-1.113-0.249
		c-0.4-0.078-0.825-0.146-1.274-0.205c-0.45-0.059-0.86-0.088-1.23-0.088c-1.036,0-1.924,0.103-2.666,0.308
		c-0.743,0.205-1.494,0.645-2.256,1.318s-1.377,1.607-1.846,2.798c-0.469,1.191-0.85,2.823-1.143,4.893
		c-0.293,2.07-0.439,4.551-0.439,7.441c0,2.735,0.107,5.112,0.322,7.134c0.215,2.021,0.498,3.647,0.85,4.878
		s0.806,2.217,1.362,2.959c0.557,0.743,1.123,1.245,1.699,1.509c0.576,0.264,1.245,0.396,2.007,0.396
		c0.898,0,1.645-0.264,2.241-0.791c0.596-0.527,1.044-1.337,1.348-2.432c0.303-1.094,0.508-2.295,0.615-3.604
		c0.107-1.308,0.161-2.939,0.161-4.893c0-0.879-0.088-1.318-0.264-1.318h-3.311c-0.176,0-0.318-0.024-0.425-0.073
		c-0.107-0.048-0.205-0.171-0.293-0.366c-0.088-0.195-0.132-0.469-0.132-0.82v-2.402c0-0.527,0.073-0.874,0.22-1.04
		c0.146-0.166,0.347-0.249,0.601-0.249h7.881c0.508,0,0.762,0.605,0.762,1.816v18.896c0,0.586-0.098,1.06-0.293,1.421
		C165.152,144.124,164.938,144.305,164.703,144.305z"/>
	<path fill="#FFFFFF" d="M172.057,143.836c-0.254,0-0.439-0.083-0.557-0.249c-0.117-0.166-0.176-0.542-0.176-1.128v-39.375
		c0-0.586,0.059-0.962,0.176-1.128c0.117-0.166,0.303-0.249,0.557-0.249h4.307c0.253,0,0.439,0.083,0.557,0.249
		c0.117,0.166,0.176,0.542,0.176,1.128v35.449c0,0.43,0.136,0.645,0.41,0.645h7.617c0.253,0,0.439,0.069,0.557,0.205
		c0.117,0.137,0.176,0.45,0.176,0.938v2.344c0,0.488-0.059,0.806-0.176,0.952s-0.303,0.22-0.557,0.22H172.057z"/>
	<path fill="#FFFFFF" d="M191.158,143.836c-0.254,0-0.439-0.073-0.557-0.22s-0.176-0.483-0.176-1.011v-39.668
		c0-0.508,0.059-0.839,0.176-0.996c0.117-0.156,0.303-0.234,0.557-0.234h15.41c0.156,0,0.283,0.02,0.381,0.059
		c0.098,0.04,0.18,0.146,0.249,0.322c0.068,0.176,0.103,0.439,0.103,0.791v2.314c0,0.488-0.059,0.806-0.176,0.952
		s-0.303,0.22-0.557,0.22h-10.02c-0.234,0-0.352,0.322-0.352,0.967v11.836c0,0.176,0.034,0.352,0.103,0.527
		c0.068,0.176,0.132,0.264,0.19,0.264h8.057c0.488,0,0.732,0.45,0.732,1.348v2.256c0,0.898-0.245,1.348-0.732,1.348h-8.027
		c-0.078,0-0.151,0.098-0.22,0.293c-0.069,0.195-0.103,0.391-0.103,0.586v13.389h10.459c0.176,0,0.312,0.02,0.41,0.059
		c0.098,0.04,0.18,0.146,0.249,0.322c0.068,0.176,0.103,0.439,0.103,0.791v2.314c0,0.488-0.063,0.806-0.19,0.952
		c-0.127,0.146-0.318,0.22-0.571,0.22H191.158z"/>
	<path fill="#FFFFFF" d="M213.248,143.836c-0.176,0-0.313-0.024-0.41-0.073c-0.098-0.048-0.181-0.18-0.249-0.396
		c-0.069-0.215-0.103-0.517-0.103-0.908v-39.375c0-0.566,0.063-0.938,0.19-1.113c0.127-0.176,0.317-0.264,0.571-0.264h4.307
		c0.156,0,0.283,0.025,0.381,0.073c0.098,0.049,0.18,0.181,0.249,0.396c0.068,0.215,0.103,0.518,0.103,0.908v39.375
		c0,0.567-0.059,0.938-0.176,1.113s-0.303,0.264-0.557,0.264H213.248z"/>
	<path fill="#FFFFFF" d="M236.129,144.276c-1.016,0-1.9-0.049-2.651-0.146c-0.752-0.098-1.567-0.317-2.446-0.659
		c-0.879-0.341-1.626-0.815-2.241-1.421c-0.615-0.605-1.23-1.445-1.846-2.52c-0.615-1.074-1.109-2.358-1.479-3.853
		c-0.371-1.494-0.674-3.33-0.908-5.508c-0.234-2.178-0.352-4.653-0.352-7.427c0-3.75,0.229-6.973,0.688-9.668
		c0.458-2.695,1.04-4.794,1.743-6.299c0.703-1.504,1.616-2.685,2.739-3.545c1.123-0.859,2.197-1.406,3.223-1.641
		s2.251-0.352,3.677-0.352c1.816,0,3.311,0.274,4.482,0.82c0.019,0.02,0.048,0.044,0.088,0.073c0.039,0.029,0.073,0.059,0.103,0.088
		s0.054,0.078,0.073,0.146c0.019,0.069,0.029,0.151,0.029,0.249v3.545c0,0.274-0.069,0.41-0.205,0.41
		c-0.02,0-0.093-0.019-0.22-0.059c-0.127-0.039-0.308-0.088-0.542-0.146s-0.488-0.117-0.762-0.176
		c-0.274-0.059-0.591-0.107-0.952-0.146c-0.362-0.039-0.718-0.059-1.069-0.059c-0.918,0-1.699,0.103-2.344,0.308
		s-1.299,0.645-1.963,1.318c-0.664,0.674-1.201,1.607-1.611,2.798c-0.41,1.191-0.743,2.823-0.996,4.893
		c-0.254,2.07-0.381,4.551-0.381,7.441c0,2.949,0.112,5.459,0.337,7.529c0.224,2.07,0.513,3.706,0.864,4.907
		s0.839,2.134,1.465,2.798c0.625,0.664,1.25,1.094,1.875,1.289c0.625,0.195,1.406,0.293,2.344,0.293
		c1.387,0,2.617-0.186,3.691-0.557c0.019,0,0.063,0.098,0.132,0.293c0.068,0.195,0.103,0.303,0.103,0.322v3.369
		c0,0.02-0.034,0.122-0.103,0.308c-0.069,0.186-0.113,0.289-0.132,0.308C239.391,144.051,237.906,144.276,236.129,144.276z"/>
	<path fill="#FFFFFF" d="M246.822,143.836c-0.274,0-0.469-0.083-0.586-0.249c-0.117-0.166-0.176-0.542-0.176-1.128v-39.375
		c0-0.586,0.059-0.962,0.176-1.128c0.117-0.166,0.312-0.249,0.586-0.249h4.248c0.273,0,0.469,0.083,0.586,0.249
		c0.117,0.166,0.176,0.542,0.176,1.128v15.586c0,0.176,0.034,0.333,0.103,0.469c0.068,0.137,0.132,0.205,0.19,0.205h8.789
		c0.059,0,0.127-0.073,0.205-0.22c0.077-0.146,0.117-0.308,0.117-0.483v-15.557c0-0.566,0.063-0.938,0.19-1.113
		s0.317-0.264,0.571-0.264h4.307c0.253,0,0.439,0.083,0.557,0.249c0.117,0.166,0.176,0.542,0.176,1.128v39.375
		c0,0.586-0.059,0.962-0.176,1.128c-0.117,0.166-0.304,0.249-0.557,0.249h-4.307c-0.176,0-0.313-0.024-0.41-0.073
		c-0.099-0.048-0.187-0.18-0.264-0.396c-0.078-0.215-0.117-0.517-0.117-0.908v-17.9c0-0.41-0.107-0.615-0.322-0.615h-8.701
		c-0.195,0-0.293,0.205-0.293,0.615v17.9c0,0.567-0.063,0.938-0.19,1.113s-0.318,0.264-0.571,0.264H246.822z"/>
	<path fill="#FFFFFF" d="M274.566,143.836c-0.274,0-0.469-0.083-0.586-0.249c-0.117-0.166-0.176-0.542-0.176-1.128v-39.375
		c0-0.586,0.059-0.962,0.176-1.128c0.117-0.166,0.312-0.249,0.586-0.249h4.248c0.273,0,0.469,0.083,0.586,0.249
		c0.117,0.166,0.176,0.542,0.176,1.128v15.586c0,0.176,0.034,0.333,0.103,0.469c0.068,0.137,0.132,0.205,0.19,0.205h8.789
		c0.059,0,0.127-0.073,0.205-0.22c0.077-0.146,0.117-0.308,0.117-0.483v-15.557c0-0.566,0.063-0.938,0.19-1.113
		s0.317-0.264,0.571-0.264h4.307c0.253,0,0.439,0.083,0.557,0.249c0.117,0.166,0.176,0.542,0.176,1.128v39.375
		c0,0.586-0.059,0.962-0.176,1.128c-0.117,0.166-0.304,0.249-0.557,0.249h-4.307c-0.176,0-0.313-0.024-0.41-0.073
		c-0.099-0.048-0.187-0.18-0.264-0.396c-0.078-0.215-0.117-0.517-0.117-0.908v-17.9c0-0.41-0.107-0.615-0.322-0.615h-8.701
		c-0.195,0-0.293,0.205-0.293,0.615v17.9c0,0.567-0.063,0.938-0.19,1.113s-0.318,0.264-0.571,0.264H274.566z"/>
	<path fill="#FFFFFF" d="M302.281,143.836c-0.254,0-0.439-0.073-0.557-0.22s-0.176-0.483-0.176-1.011v-39.668
		c0-0.508,0.059-0.839,0.176-0.996c0.117-0.156,0.303-0.234,0.557-0.234h15.41c0.156,0,0.282,0.02,0.381,0.059
		c0.098,0.04,0.181,0.146,0.249,0.322s0.103,0.439,0.103,0.791v2.314c0,0.488-0.059,0.806-0.176,0.952s-0.304,0.22-0.557,0.22
		h-10.02c-0.234,0-0.352,0.322-0.352,0.967v11.836c0,0.176,0.034,0.352,0.103,0.527s0.132,0.264,0.19,0.264h8.057
		c0.487,0,0.732,0.45,0.732,1.348v2.256c0,0.898-0.245,1.348-0.732,1.348h-8.027c-0.078,0-0.151,0.098-0.22,0.293
		c-0.068,0.195-0.103,0.391-0.103,0.586v13.389h10.459c0.176,0,0.312,0.02,0.41,0.059c0.098,0.04,0.181,0.146,0.249,0.322
		s0.103,0.439,0.103,0.791v2.314c0,0.488-0.063,0.806-0.19,0.952s-0.318,0.22-0.571,0.22H302.281z"/>
	<path fill="#FFFFFF" d="M324.371,143.836c-0.176,0-0.313-0.024-0.41-0.073c-0.099-0.048-0.181-0.18-0.249-0.396
		c-0.068-0.215-0.103-0.517-0.103-0.908v-39.375c0-0.566,0.063-0.938,0.19-1.113s0.317-0.264,0.571-0.264h4.307
		c0.156,0,0.282,0.025,0.381,0.073c0.098,0.049,0.181,0.181,0.249,0.396c0.068,0.215,0.103,0.518,0.103,0.908v39.375
		c0,0.567-0.059,0.938-0.176,1.113s-0.304,0.264-0.557,0.264H324.371z"/>
	<path fill="#FFFFFF" d="M340.396,143.836c-0.234,0-0.415-0.092-0.542-0.278c-0.127-0.186-0.19-0.561-0.19-1.128v-35.273
		c0-0.488-0.107-0.732-0.322-0.732h-5.098c-0.195,0-0.337-0.015-0.425-0.044s-0.166-0.127-0.234-0.293
		c-0.068-0.166-0.103-0.425-0.103-0.776v-2.314c0-0.527,0.059-0.874,0.176-1.04c0.117-0.166,0.312-0.249,0.586-0.249h16.553
		c0.253,0,0.439,0.083,0.557,0.249c0.117,0.166,0.176,0.513,0.176,1.04v2.314c0,0.488-0.054,0.796-0.161,0.923
		c-0.107,0.127-0.298,0.19-0.571,0.19h-5.01c-0.216,0-0.322,0.245-0.322,0.732v35.273c0,0.586-0.063,0.967-0.19,1.143
		s-0.318,0.264-0.571,0.264H340.396z"/>
</g>
</svg>
