<?xml version="1.0" encoding="utf-8"?>
<!-- Generator: Adobe Illustrator 16.0.3, SVG Export Plug-In . SVG Version: 6.00 Build 0)  -->
<!DOCTYPE svg PUBLIC "-//W3C//DTD SVG 1.1//EN" "http://www.w3.org/Graphics/SVG/1.1/DTD/svg11.dtd">
<svg version="1.1" id="Ebene_1" xmlns="http://www.w3.org/2000/svg" xmlns:xlink="http://www.w3.org/1999/xlink" x="0px" y="0px"
	 width="290.9px" height="290.9px" viewBox="0 0 290.9 290.9" style="enable-background:new 0 0 290.9 290.9;" xml:space="preserve"
	>
<style type="text/css">
<![CDATA[
	.st0{fill:#7F7F7F;}
	.st1{enable-background:new    ;}
	.st2{fill-rule:evenodd;clip-rule:evenodd;}
	.st3{fill:#FFFFFF;}
	.st4{fill-rule:evenodd;clip-rule:evenodd;fill:#FF7900;}
	.st5{fill-rule:evenodd;clip-rule:evenodd;fill:#FFFFFF;}
]]>
</style>
<title>reichweite_macro</title>
<g id="Ebene_1_1_">
	<path class="st0" d="M36.5,0h217.9c20.2,0,36.5,16.3,36.5,36.5v217.9c0,20.2-16.3,36.5-36.5,36.5H36.5C16.3,290.9,0,274.6,0,254.4
		V36.5C0,16.3,16.3,0,36.5,0z"/>
	<g class="st1">
	</g>
	<g class="st1">
	</g>
	<g class="st1">
	</g>
	<g class="st1">
	</g>
	<g class="st1">
		<path class="st3" d="M43.6,204.3V236h-4.1v-31.7H43.6z"/>
		<path class="st3" d="M51.1,219.4c0-2.3,0-4.3-0.2-6.2h3.7l0.2,3.8h0.1c1.1-2.2,3.8-4.3,7.5-4.3c3.1,0,8,1.9,8,9.7V236h-4.1v-13.1
			c0-3.7-1.4-6.7-5.3-6.7c-2.7,0-4.8,1.9-5.5,4.2c-0.2,0.5-0.3,1.2-0.3,1.9V236h-4.1V219.4z"/>
		<path class="st3" d="M81.9,206.7v6.5h5.9v3.1h-5.9v12.3c0,2.8,0.8,4.4,3.1,4.4c1.1,0,1.9-0.1,2.4-0.3l0.2,3.1
			c-0.8,0.3-2.1,0.6-3.7,0.6c-1.9,0-3.5-0.6-4.5-1.7c-1.2-1.2-1.6-3.2-1.6-5.9v-12.4h-3.5v-3.1h3.5v-5.5L81.9,206.7z"/>
		<path class="st3" d="M94.5,225.4c0.1,5.6,3.7,7.9,7.8,7.9c3,0,4.7-0.5,6.3-1.2l0.7,3c-1.5,0.7-3.9,1.4-7.6,1.4
			c-7,0-11.2-4.6-11.2-11.5c0-6.9,4-12.3,10.7-12.3c7.4,0,9.4,6.5,9.4,10.7c0,0.8-0.1,1.5-0.1,1.9H94.5z M106.7,222.4
			c0-2.6-1.1-6.7-5.7-6.7c-4.2,0-6,3.9-6.3,6.7H106.7z"/>
		<path class="st3" d="M115.8,220.3c0-2.7,0-5-0.2-7.1h3.6l0.1,4.5h0.2c1-3.1,3.5-5,6.3-5c0.5,0,0.8,0,1.2,0.1v3.9
			c-0.4-0.1-0.8-0.1-1.4-0.1c-2.9,0-5,2.2-5.5,5.3c-0.1,0.6-0.2,1.2-0.2,1.9V236h-4.1V220.3z"/>
		<path class="st3" d="M143.5,236l-0.3-2.9H143c-1.3,1.8-3.7,3.4-7,3.4c-4.6,0-7-3.2-7-6.5c0-5.5,4.9-8.5,13.7-8.5V221
			c0-1.9-0.5-5.3-5.2-5.3c-2.1,0-4.3,0.7-5.9,1.7l-0.9-2.7c1.9-1.2,4.6-2,7.5-2c7,0,8.6,4.7,8.6,9.3v8.5c0,2,0.1,3.9,0.4,5.5H143.5z
			 M142.9,224.4c-4.5-0.1-9.6,0.7-9.6,5.1c0,2.7,1.8,3.9,3.9,3.9c3,0,4.8-1.9,5.5-3.8c0.1-0.4,0.2-0.9,0.2-1.3V224.4z"/>
		<path class="st3" d="M157.7,223.7L157.7,223.7c0.7-0.8,1.5-1.8,2.1-2.6l6.7-7.8h5l-8.8,9.4l10,13.4h-5l-7.8-10.9l-2.1,2.3v8.6
			h-4.1v-33.4h4.1V223.7z"/>
		<path class="st3" d="M180.6,206.7v6.5h5.9v3.1h-5.9v12.3c0,2.8,0.8,4.4,3.1,4.4c1.1,0,1.9-0.1,2.4-0.3l0.2,3.1
			c-0.8,0.3-2.1,0.6-3.7,0.6c-1.9,0-3.5-0.6-4.5-1.7c-1.2-1.2-1.6-3.2-1.6-5.9v-12.4H173v-3.1h3.5v-5.5L180.6,206.7z"/>
		<path class="st3" d="M195.8,206.8c0,1.4-1,2.5-2.6,2.5c-1.5,0-2.5-1.1-2.5-2.5c0-1.5,1.1-2.6,2.6-2.6
			C194.8,204.3,195.8,205.4,195.8,206.8z M191.2,236v-22.7h4.1V236H191.2z"/>
		<path class="st3" d="M203.8,213.2l4.5,12.8c0.8,2.1,1.4,3.9,1.8,5.8h0.1c0.5-1.9,1.2-3.8,1.9-5.8l4.4-12.8h4.3l-8.9,22.7H208
			l-8.6-22.7H203.8z"/>
		<path class="st3" d="M226.6,225.4c0.1,5.6,3.7,7.9,7.8,7.9c3,0,4.7-0.5,6.3-1.2l0.7,3c-1.5,0.7-3.9,1.4-7.6,1.4
			c-7,0-11.2-4.6-11.2-11.5c0-6.9,4-12.3,10.7-12.3c7.4,0,9.4,6.5,9.4,10.7c0,0.8-0.1,1.5-0.1,1.9H226.6z M238.7,222.4
			c0-2.6-1.1-6.7-5.7-6.7c-4.2,0-6,3.9-6.3,6.7H238.7z"/>
		<path class="st3" d="M247.8,220.3c0-2.7,0-5-0.2-7.1h3.6l0.1,4.5h0.2c1-3.1,3.5-5,6.3-5c0.5,0,0.8,0,1.2,0.1v3.9
			c-0.4-0.1-0.8-0.1-1.4-0.1c-2.9,0-5,2.2-5.5,5.3c-0.1,0.6-0.2,1.2-0.2,1.9V236h-4.1V220.3z"/>
	</g>
</g>
<g id="Ebene_2_1_">
	<path class="st3" d="M138.7,167"/>
</g>
<g>
</g>
<g class="st1">
	<path class="st3" d="M112.2,261.1c-0.2-4.4-0.5-9.7-0.5-13.7h-0.1c-1.1,3.7-2.4,7.7-4,12l-5.6,15.4h-3.1l-5.1-15.1
		c-1.5-4.5-2.8-8.6-3.7-12.3H90c-0.1,3.9-0.3,9.3-0.6,14L88.5,275h-3.9l2.2-31.7h5.2l5.4,15.3c1.3,3.9,2.4,7.4,3.2,10.7h0.1
		c0.8-3.2,1.9-6.7,3.3-10.7l5.6-15.3h5.2l2,31.7h-4L112.2,261.1z"/>
	<path class="st3" d="M144,263.4c0,8.4-5.8,12.1-11.3,12.1c-6.2,0-10.9-4.5-10.9-11.7c0-7.6,5-12.1,11.3-12.1
		C139.6,251.7,144,256.5,144,263.4z M126,263.7c0,5,2.9,8.7,6.9,8.7c3.9,0,6.9-3.7,6.9-8.8c0-3.9-1.9-8.7-6.8-8.7
		S126,259.3,126,263.7z"/>
	<path class="st3" d="M168.9,241.6v27.5c0,2,0,4.3,0.2,5.9h-3.7l-0.2-3.9h-0.1c-1.3,2.5-4,4.5-7.8,4.5c-5.5,0-9.7-4.7-9.7-11.6
		c0-7.6,4.7-12.2,10.2-12.2c3.5,0,5.8,1.6,6.9,3.5h0.1v-13.6H168.9z M164.7,261.5c0-0.5,0-1.2-0.2-1.7c-0.6-2.6-2.9-4.8-6-4.8
		c-4.3,0-6.8,3.8-6.8,8.8c0,4.6,2.3,8.4,6.7,8.4c2.8,0,5.3-1.8,6.1-4.9c0.1-0.6,0.2-1.1,0.2-1.8V261.5z"/>
	<path class="st3" d="M194.8,268.8c0,2.3,0,4.4,0.2,6.2h-3.7l-0.2-3.7H191c-1.1,1.8-3.5,4.2-7.5,4.2c-3.6,0-7.8-2-7.8-10v-13.3h4.1
		v12.6c0,4.3,1.3,7.2,5.1,7.2c2.8,0,4.7-1.9,5.5-3.8c0.2-0.6,0.4-1.4,0.4-2.1v-14h4.1V268.8z"/>
	<path class="st3" d="M201.1,270.8c1.2,0.8,3.4,1.6,5.5,1.6c3,0,4.4-1.5,4.4-3.4c0-2-1.2-3.1-4.2-4.2c-4.1-1.5-6-3.7-6-6.4
		c0-3.7,3-6.7,7.8-6.7c2.3,0,4.3,0.7,5.6,1.4l-1,3c-0.9-0.6-2.5-1.3-4.7-1.3c-2.4,0-3.8,1.4-3.8,3.1c0,1.9,1.4,2.7,4.3,3.9
		c3.9,1.5,6,3.5,6,6.9c0,4-3.1,6.8-8.5,6.8c-2.5,0-4.8-0.6-6.4-1.6L201.1,270.8z"/>
</g>
<g class="st1">
</g>
<g>
</g>
<g>
	<path class="st5" d="M47.9,179.8c0-10.1,0-20,0-30.2c1.9-0.1,3.7-0.3,5.6-0.3c5.5-0.2,10.1-2.3,14.3-5.8c4.6-3.8,9.4-7.4,14.3-10.7
		c5.3-3.6,11.9-0.6,13.6,4.3c1.6,4.5,4.3,5.1,8.4,4.9c5.3-0.3,10.6-0.1,15.8-0.1c3,0,5.9,0.3,7.3,3.6c1.3,3.1,0.4,7-2.2,9.5
		c-0.4,0.4-0.9,0.8-1.3,1.3c2.7,4.3,2.8,9.5-2.7,13c1.3,5.2,1,8.8-4.5,11.8c-0.5,0.3-0.9,0.9-1,1.4c-1.4,7.5-6.6,9.9-13.3,10
		c-10.5,0.2-20.5-2.2-30-6.4c-6-2.6-12-5-18.5-5.7C51.8,180,50,180,47.9,179.8z"/>
	<path class="st2" d="M131.9,113.7c-1,6.2-2.5,11.7-8.6,14.7c-0.8,0.4-1.4,1.7-1.8,2.6c-0.9,2-1,4.8-2.4,6c-1.4,1-4.1,0.3-6.3,0.3
		c-3.9,0-7.8,0-11.7,0c-0.1,0-0.3-0.1-0.6-0.3c0.6-3.3,1.2-6.7,1.8-10c0.3-1.8,0.4-3.3-0.8-4.9c-2.3-3-2.7-6.6-1.9-10.3
		c0.4-1.8,0.9-3.7,1.3-5.8C111.2,108.6,121.4,111.1,131.9,113.7z"/>
	<path class="st2" d="M133.1,108.6c-10.3-2.5-20.5-5-30.6-7.6c0.4-5.8,5.9-11.2,11.8-11.5c4.9-0.2,9.6,1,13.8,3.5
		C133.1,96.1,135.2,102.6,133.1,108.6z"/>
</g>
<g>
	<path class="st2" d="M186.8,191.7c24.5,0,48.7,0,73.1,0c-0.1-0.6-0.1-1.1-0.2-1.6c-1.8-9.6-5.7-18.4-9.8-27.1
		c-4.2-9-7.6-18.3-8.3-28.4c-0.3-3.9-0.2-7.9,0.3-11.8c1.1-8.5,5.4-15.2,12.4-20.1c2.3-1.6,4.5-3.3,6.7-4.9
		c6.3-4.3,10-10.2,11.5-17.8c1.8-9.2,2.6-18.2,0.8-27.5c-3.3-17.4-13.3-29.5-29.1-36.7C227.2,8,209.6,7,191.7,13.1
		c-13.8,4.7-22.1,14.1-25.4,28.3c-0.9,4.1-1.7,8.1-2.4,12.2c-0.5,2.7-1.3,5.2-3.3,7c-3.7,3.4-7.6,6.7-11.4,10
		c-0.6,0.5-1.4,0.9-2,1.4c-2.4,2-2.8,4.9-0.8,7.3c0.9,1.1,2.1,2,3.2,2.9c1.4,1.1,1.5,3.5,0.2,4.7c-2.3,2.1-2.5,4.4-0.1,6.4
		c2.1,1.7,4.7,2.8,7.1,4.1c0.7,0.4,1.3,0.9,1.9,1.3c-0.5,0.7-0.9,1.6-1.6,2c-0.9,0.6-2,0.8-3,1.3c-3.5,1.4-4.3,4.8-1.8,7.5
		c1.4,1.6,1.8,3.2,1.4,5.4c-1.5,6.6,1.2,10.3,7.9,10.6c3.8,0.2,7.7-0.2,11.6-0.5c9.5-0.8,13.9,2.3,15.6,11.7
		c1.9,10.2,3.5,20.4,5,30.6c0.8,5-0.1,10-2.4,14.6c-1.3,2.7-2.6,5.3-3.9,8C187.2,190.4,187.1,190.9,186.8,191.7z"/>
</g>
<path class="st2" d="M170,36.3c0,0-4.3,3-4.3-4S169,21.7,176.3,18s5.3-6,19.7-8.8s19.3-5.8,32.7-1.8s17.3,3.3,25,10.3s12,9,15.7,17
	s5.7,14,6.7,21.3s1.3,6.3,0,16.3s-4,8-4.7,18s-4.3,8.7-2,14.3s3,7-4.3,4s-3.7,5.7-10-4"/>
<polygon class="st4" points="47.9,143 52,186 8,186 8,143 "/>
</svg>
