<svg xmlns="http://www.w3.org/2000/svg" xmlns:xlink="http://www.w3.org/1999/xlink" width="300" height="300" viewBox="0 0 300 300"><switch><g><symbol id="a" viewBox="-150 -150 300 300.007"><path fill="#CE8E95" d="M150-97.021c0-6.764 0-52.979-71.5-52.979H-84c-62.5 0-66 47.215-66 53.979v186c0 54.5 59.235 60 66 60l161.5.029c6.765 0 72.5-.029 72.5-60.029v-187z"/></symbol><use xlink:href="#a" width="300" height="300.007" x="-150" y="-150" transform="matrix(1 0 0 -1 150 150)" overflow="visible"/><g fill="#26080D"><path d="M45.257 233.315l16.562-24.05v-.144H46.745v-4.896h22.754v3.456l-16.321 23.81v.192h16.561v4.896H45.257v-3.264zM77.274 213.202l2.448 10.608c.528 2.497 1.056 5.041 1.488 7.585h.096c.48-2.544 1.248-5.137 1.92-7.536l3.024-10.657h4.8l2.928 10.369c.72 2.736 1.344 5.28 1.873 7.824h.096c.384-2.544.912-5.088 1.536-7.824l2.592-10.369h5.809L98.54 236.58h-5.472l-2.785-9.505c-.72-2.448-1.248-4.656-1.776-7.488h-.096c-.48 2.88-1.104 5.185-1.776 7.488l-2.977 9.505h-5.521l-6.913-23.378h6.05zM115.961 206.674c0 1.775-1.296 3.168-3.36 3.168-1.968 0-3.265-1.393-3.265-3.168 0-1.824 1.344-3.217 3.313-3.217 2.016 0 3.264 1.393 3.312 3.217zm-6.288 29.906v-23.378h5.952v23.378h-5.952zM121.673 231.155c1.344.816 3.888 1.681 6 1.681 2.592 0 3.744-1.057 3.744-2.593 0-1.584-.96-2.399-3.84-3.408-4.56-1.584-6.48-4.08-6.433-6.816 0-4.128 3.409-7.345 8.833-7.345 2.592 0 4.848.672 6.192 1.393l-1.152 4.176c-1.008-.576-2.88-1.344-4.945-1.344-2.112 0-3.264 1.008-3.264 2.448 0 1.488 1.104 2.208 4.081 3.265 4.224 1.536 6.192 3.696 6.24 7.152 0 4.225-3.312 7.297-9.504 7.297-2.833 0-5.377-.673-7.105-1.633l1.153-4.273zM159.162 235.86c-1.248.576-3.697 1.2-6.625 1.2-7.296 0-12.049-4.657-12.049-11.905 0-7.009 4.8-12.481 13.01-12.481 2.16 0 4.367.48 5.711 1.104l-1.055 4.416c-.961-.432-2.354-.912-4.465-.912-4.512 0-7.201 3.313-7.153 7.585 0 4.801 3.121 7.536 7.153 7.536 2.064 0 3.504-.432 4.656-.912l.817 4.369zM163.527 202.497h5.953v13.921h.096a7.92 7.92 0 0 1 2.93-2.688c1.15-.673 2.543-1.057 4.031-1.057 3.984 0 8.16 2.641 8.16 10.129v13.777h-5.904v-13.105c0-3.408-1.248-5.952-4.512-5.952-2.305 0-3.938 1.536-4.561 3.313-.191.479-.24 1.104-.24 1.776v13.969h-5.953v-34.083zM195.16 226.547c.143 4.225 3.455 6.049 7.199 6.049 2.736 0 4.705-.384 6.48-1.056l.865 4.08c-2.016.816-4.801 1.44-8.16 1.44-7.586 0-12.051-4.657-12.051-11.81 0-6.48 3.938-12.577 11.426-12.577 7.584 0 10.08 6.24 10.08 11.377 0 1.104-.096 1.969-.191 2.496H195.16zm10.272-4.128c.049-2.16-.912-5.713-4.848-5.713-3.648 0-5.184 3.313-5.424 5.713h10.272zM215.75 220.163c0-2.688-.047-4.945-.191-6.961h5.186l.287 3.504h.145c1.008-1.824 3.553-4.032 7.439-4.032 4.08 0 8.305 2.641 8.305 10.033v13.873h-5.904v-13.201c0-3.36-1.248-5.904-4.465-5.904-2.352 0-3.984 1.68-4.607 3.456-.191.528-.24 1.248-.24 1.92v13.729h-5.953v-16.417zM253.719 221.747v4.08h-12.24v-4.08h12.24zM81.233 279.155c1.344.816 3.888 1.681 6 1.681 2.592 0 3.744-1.057 3.744-2.593 0-1.584-.96-2.399-3.84-3.408-4.561-1.584-6.48-4.08-6.433-6.816 0-4.128 3.408-7.345 8.833-7.345 2.592 0 4.848.672 6.192 1.393l-1.152 4.176c-1.008-.576-2.88-1.344-4.945-1.344-2.112 0-3.264 1.008-3.264 2.448 0 1.488 1.104 2.208 4.081 3.265 4.224 1.536 6.192 3.696 6.24 7.152 0 4.225-3.312 7.297-9.505 7.297-2.832 0-5.376-.673-7.104-1.633l1.153-4.273zM118.722 283.86c-1.249.576-3.697 1.2-6.625 1.2-7.296 0-12.049-4.657-12.049-11.905 0-7.009 4.8-12.481 13.009-12.481 2.16 0 4.368.48 5.712 1.104l-1.056 4.416c-.96-.432-2.352-.912-4.464-.912-4.513 0-7.201 3.313-7.153 7.585 0 4.801 3.121 7.536 7.153 7.536 2.064 0 3.504-.432 4.656-.912l.817 4.369zM123.088 250.497h5.952v13.921h.096a7.922 7.922 0 0 1 2.928-2.688c1.152-.673 2.544-1.057 4.032-1.057 3.984 0 8.161 2.641 8.161 10.129v13.777h-5.904v-13.105c0-3.408-1.248-5.952-4.512-5.952-2.304 0-3.937 1.536-4.561 3.313-.192.479-.24 1.104-.24 1.776v13.969h-5.952v-34.083zM150.543 268.163c0-2.688-.048-4.945-.192-6.961h5.184l.289 3.504h.143c1.01-1.824 3.553-4.032 7.441-4.032 4.08 0 8.305 2.641 8.305 10.033v13.873h-5.904v-13.201c0-3.36-1.248-5.904-4.465-5.904-2.352 0-3.984 1.68-4.607 3.456-.193.528-.24 1.248-.24 1.92v13.729h-5.953v-16.417zM184.287 254.674c0 1.775-1.295 3.168-3.359 3.168-1.969 0-3.266-1.393-3.266-3.168 0-1.824 1.346-3.217 3.313-3.217 2.017 0 3.265 1.393 3.312 3.217zm-6.289 29.906v-23.378h5.953v23.378h-5.953zM197.055 254.529v6.673h5.617v4.416h-5.617v10.321c0 2.832.77 4.32 3.025 4.32a8.786 8.786 0 0 0 2.305-.288l.096 4.513c-.865.336-2.4.576-4.273.576-2.16 0-3.984-.721-5.088-1.921-1.248-1.344-1.824-3.456-1.824-6.528v-10.993h-3.359v-4.416h3.359v-5.28l5.759-1.393zM213.902 254.529v6.673h5.617v4.416h-5.617v10.321c0 2.832.77 4.32 3.025 4.32a8.786 8.786 0 0 0 2.305-.288l.096 4.513c-.865.336-2.4.576-4.273.576-2.16 0-3.984-.721-5.088-1.921-1.248-1.344-1.824-3.456-1.824-6.528v-10.993h-3.359v-4.416h3.359v-5.28l5.759-1.393z"/></g><path fill="none" stroke="#4D4D4D" stroke-width="14" stroke-miterlimit="10" d="M262 138H24"/><path fill="#4D4D4D" d="M241.827 122.287l.15 31.643 39.85-15.822z"/><path fill="none" stroke="#FFF" stroke-width="12" stroke-miterlimit="10" d="M113 108v37M186 131v37"/><path fill="#C1272D" d="M172 166h28v16h-28zM99 94h28v16H99z"/></g></switch></svg>