<svg xmlns="http://www.w3.org/2000/svg" xmlns:xlink="http://www.w3.org/1999/xlink" width="300" height="300" viewBox="0 0 300 300"><switch><g><symbol id="a" viewBox="-150 -150 300 300.015"><path fill="#AEBCC4" d="M150-97.015c0-6.763 0-52.985-71.5-52.985H-84c-62.5 0-66 47.223-66 53.985v186c0 54.5 59.235 60 66 60l161.5.029c6.765 0 72.5-.029 72.5-60.029v-187z"/></symbol><use xlink:href="#a" width="300" height="300.015" x="-150" y="-150" transform="matrix(1 0 0 -1 150 150)" overflow="visible"/><g fill="#080828"><path d="M106.814 194.894h18.674v4.848h-12.769v8.93h11.905v4.848h-11.905v13.729h-5.905v-32.355zM129.95 211.406c0-3.168-.048-5.424-.192-7.536h5.137l.192 4.464h.192c1.152-3.312 3.889-4.992 6.385-4.992.576 0 .912.048 1.392.145v5.568a8.142 8.142 0 0 0-1.728-.192c-2.833 0-4.752 1.824-5.281 4.465-.096.527-.192 1.151-.192 1.824v12.097h-5.904v-15.843zM150.782 217.215c.145 4.225 3.457 6.049 7.201 6.049 2.736 0 4.705-.384 6.48-1.056l.865 4.08c-2.018.816-4.801 1.44-8.162 1.44-7.583 0-12.048-4.657-12.048-11.81 0-6.48 3.937-12.577 11.425-12.577 7.584 0 10.08 6.24 10.08 11.377 0 1.104-.096 1.969-.191 2.496h-15.65zm10.273-4.128c.049-2.16-.912-5.713-4.848-5.713-3.648 0-5.186 3.313-5.425 5.713h10.273zM177.662 197.342c0 1.775-1.295 3.168-3.359 3.168-1.969 0-3.266-1.393-3.266-3.168 0-1.824 1.346-3.217 3.313-3.217 2.017 0 3.265 1.393 3.312 3.217zm-6.289 29.906V203.87h5.953v23.378h-5.953zM187.838 217.215c.143 4.225 3.455 6.049 7.199 6.049 2.736 0 4.705-.384 6.48-1.056l.865 4.08c-2.016.816-4.801 1.44-8.16 1.44-7.586 0-12.051-4.657-12.051-11.81 0-6.48 3.938-12.577 11.426-12.577 7.584 0 10.08 6.24 10.08 11.377 0 1.104-.096 1.969-.191 2.496h-15.648zm10.271-4.128c.049-2.16-.912-5.713-4.848-5.713-3.648 0-5.184 3.313-5.424 5.713h10.272zM70.815 242.894h5.856v14.881h.144c.768-1.248 1.584-2.4 2.353-3.504l8.449-11.377h7.296l-11.137 13.777 11.857 18.577H88.72l-9.169-14.833-2.88 3.456v11.377h-5.856v-32.354zM111.999 275.248l-.384-2.592h-.144c-1.44 1.824-3.889 3.12-6.913 3.12-4.705 0-7.345-3.408-7.345-6.961 0-5.904 5.232-8.881 13.873-8.833v-.384c0-1.536-.624-4.08-4.752-4.08-2.304 0-4.704.72-6.289 1.728l-1.152-3.84c1.728-1.057 4.752-2.064 8.449-2.064 7.489 0 9.649 4.753 9.649 9.841v8.449c0 2.112.096 4.176.336 5.616h-5.328zm-.768-11.425c-4.176-.097-8.161.815-8.161 4.368 0 2.305 1.488 3.36 3.36 3.36 2.352 0 4.081-1.536 4.608-3.216a4.25 4.25 0 0 0 .192-1.297v-3.215zM144.784 241.165v27.507c0 2.399.096 4.992.192 6.576h-5.281l-.24-3.696h-.096c-1.392 2.592-4.225 4.225-7.633 4.225-5.568 0-9.985-4.753-9.985-11.953-.048-7.825 4.849-12.481 10.465-12.481 3.216 0 5.521 1.345 6.577 3.072h.096v-13.249h5.905zm-5.905 20.45a8.31 8.31 0 0 0-.144-1.536c-.528-2.305-2.4-4.177-5.089-4.177-3.792 0-5.904 3.36-5.904 7.729 0 4.272 2.112 7.393 5.856 7.393 2.4 0 4.512-1.632 5.088-4.176.144-.528.192-1.104.192-1.729v-3.504zM151.117 259.406c0-3.168-.047-5.424-.191-7.536h5.136l.191 4.464h.193c1.15-3.312 3.887-4.992 6.383-4.992.576 0 .912.048 1.393.145v5.568a8.145 8.145 0 0 0-1.729-.192c-2.832 0-4.752 1.824-5.279 4.465a10.12 10.12 0 0 0-.191 1.824v12.097h-5.906v-15.843zM180.928 275.248l-.385-2.592h-.145c-1.439 1.824-3.887 3.12-6.912 3.12-4.703 0-7.344-3.408-7.344-6.961 0-5.904 5.232-8.881 13.873-8.833v-.384c0-1.536-.625-4.08-4.752-4.08-2.305 0-4.705.72-6.289 1.728l-1.152-3.84c1.729-1.057 4.752-2.064 8.449-2.064 7.488 0 9.648 4.753 9.648 9.841v8.449c0 2.112.096 4.176.336 5.616h-5.327zm-.768-11.425c-4.178-.097-8.162.815-8.162 4.368 0 2.305 1.488 3.36 3.361 3.36 2.352 0 4.08-1.536 4.607-3.216.145-.433.193-.912.193-1.297v-3.215zM213.52 251.87c-.096 1.584-.191 3.504-.191 6.721v13.249c0 4.896-1.008 8.4-3.457 10.608-2.447 2.16-5.809 2.833-9.023 2.833-2.977 0-6.145-.624-8.162-1.872l1.297-4.465c1.488.864 3.984 1.776 6.816 1.776 3.84 0 6.721-2.017 6.721-7.057v-2.017h-.096c-1.344 2.064-3.744 3.457-6.816 3.457-5.809 0-9.938-4.801-9.938-11.426 0-7.681 4.992-12.337 10.609-12.337 3.553 0 5.664 1.729 6.768 3.648h.096l.24-3.12h5.136zm-6.096 9.36c0-.527-.049-1.104-.193-1.584-.623-2.16-2.303-3.792-4.799-3.792-3.313 0-5.762 2.88-5.762 7.633 0 3.984 2.018 7.2 5.713 7.2 2.209 0 4.129-1.44 4.801-3.552.145-.624.24-1.44.24-2.112v-3.793zM223.838 265.215c.145 4.225 3.457 6.049 7.201 6.049 2.736 0 4.705-.384 6.48-1.056l.863 4.08c-2.016.816-4.799 1.44-8.16 1.44-7.584 0-12.049-4.657-12.049-11.81 0-6.48 3.936-12.577 11.426-12.577 7.584 0 10.08 6.24 10.08 11.377 0 1.104-.096 1.969-.191 2.496h-15.65zm10.273-4.128c.047-2.16-.912-5.713-4.848-5.713-3.648 0-5.186 3.313-5.426 5.713h10.274z"/></g><circle fill="#C1272D" cx="149.667" cy="114.667" r="14.667"/><circle fill="#FFF" cx="196.667" cy="51.667" r="14.667"/><circle fill="#FFF" cx="258.667" cy="158.667" r="14.667"/><circle fill="#FFF" cx="49.667" cy="38.667" r="14.667"/></g></switch></svg>