<svg xmlns="http://www.w3.org/2000/svg" xmlns:xlink="http://www.w3.org/1999/xlink" width="300" height="300" viewBox="0 0 300 300"><switch><g><symbol id="a" viewBox="-150 -150 300 300.007"><path fill="#CE8E95" d="M150-97.021c0-6.764 0-52.979-71.5-52.979H-84c-62.5 0-66 47.215-66 53.979v186c0 54.5 59.235 60 66 60l161.5.029c6.765 0 72.5-.029 72.5-60.029v-187z"/></symbol><use xlink:href="#a" width="300" height="300.007" x="-150" y="-150" transform="matrix(1 0 0 -1 150 150)" overflow="visible"/><g fill="#26080D"><path d="M64.841 225.226h5.904v20.978c0 8.929-4.32 11.905-10.753 11.905-1.632 0-3.696-.288-4.944-.769l.72-4.752c.96.288 2.256.576 3.648.576 3.36 0 5.424-1.536 5.424-7.153v-20.785zM97.914 250.571c0 2.784.096 5.089.192 7.009h-5.185l-.288-3.553h-.096c-1.008 1.681-3.313 4.081-7.489 4.081-4.272 0-8.161-2.545-8.161-10.177v-13.729h5.904v12.721c0 3.889 1.249 6.385 4.369 6.385 2.352 0 3.888-1.68 4.512-3.168a5.366 5.366 0 0 0 .336-1.824v-14.113h5.905v16.368zM104.295 241.163c0-2.688-.048-4.945-.192-6.961h5.088l.24 3.456h.144c1.152-1.824 3.264-3.984 7.201-3.984 3.072 0 5.473 1.729 6.48 4.32h.096c.816-1.296 1.776-2.256 2.88-2.928 1.296-.912 2.785-1.393 4.705-1.393 3.888 0 7.825 2.641 7.825 10.129v13.777h-5.76v-12.913c0-3.889-1.344-6.192-4.177-6.192-2.016 0-3.504 1.439-4.128 3.12-.144.576-.288 1.296-.288 1.968v14.018h-5.761v-13.537c0-3.265-1.296-5.568-4.032-5.568-2.208 0-3.696 1.728-4.225 3.36-.24.576-.336 1.248-.336 1.92v13.825h-5.76v-16.417zM144.999 241.979c0-3.072-.096-5.568-.192-7.776h5.185l.288 3.601h.096c1.728-2.641 4.464-4.129 8.017-4.129 5.376 0 9.84 4.608 9.84 11.905 0 8.448-5.328 12.529-10.656 12.529-2.929 0-5.377-1.248-6.577-3.12h-.096v12.097H145v-25.107zm5.904 5.808c0 .576.048 1.104.192 1.632.576 2.4 2.688 4.129 5.184 4.129 3.744 0 5.953-3.12 5.953-7.729 0-4.129-2.016-7.489-5.809-7.489-2.448 0-4.705 1.776-5.28 4.369a5.346 5.346 0 0 0-.24 1.487v3.601zM206.44 256.62c-1.393.72-4.465 1.44-8.354 1.44-10.272 0-16.513-6.433-16.513-16.273 0-10.657 7.393-17.09 17.281-17.09 3.889 0 6.673.816 7.873 1.44l-1.297 4.704c-1.536-.672-3.648-1.248-6.336-1.248-6.577 0-11.329 4.128-11.329 11.905 0 7.104 4.176 11.665 11.28 11.665 2.4 0 4.896-.48 6.433-1.2l.962 4.657zM231.399 250.571a137 137 0 0 0 .192 7.009h-5.185l-.288-3.553h-.096c-1.008 1.681-3.313 4.081-7.488 4.081-4.272 0-8.161-2.545-8.161-10.177v-13.729h5.904v12.721c0 3.889 1.248 6.385 4.368 6.385 2.353 0 3.889-1.68 4.513-3.168a5.366 5.366 0 0 0 .336-1.824v-14.113h5.904v16.368zM244.55 227.529v6.673h5.617v4.416h-5.617v10.321c0 2.832.769 4.32 3.024 4.32a8.78 8.78 0 0 0 2.305-.288l.096 4.513c-.864.336-2.4.576-4.272.576-2.16 0-3.984-.721-5.088-1.921-1.249-1.344-1.824-3.456-1.824-6.528v-10.993h-3.36v-4.416h3.36v-5.28l5.759-1.393z"/></g><path d="M187.125 145.75L271 146V29H170.75l22.75 9.25-24.125.583L171.75 42l7.5 4.5-16 3L196 53.25l-25.061.917S193.549 67.051 193 69.25c-.5 2-24 1.75-24 1.75l.75 8.25 10.5 4.5-5.5 2-2.25 5 24.25 6-29.5 7 21.75 5.5-19 5.75 7.25 4.5-16.25 2 10.25 4.75L187 130l-19.688 6 19.813 9.75z"/><path fill="#FFF" d="M108.75 190.75L25 191V74h100l-22.75 9.25 24.125.583L124 87l-7.5 4.5 16 3-32.75 3.75 25.061.917S102.2 112.051 102.75 114.25c.5 2 24 1.75 24 1.75l-.75 8.25-10.5 4.5 5.5 2 2.25 5-24.25 6 29.5 7-21.75 5.5 19 5.75-7.25 4.5 16.25 2-10.25 4.75-15.75 3.75 19.75 6-19.75 9.75z"/><path fill="#333" d="M52.769 127.071l-3.962 13.048h-8.676l14.756-46.043h10.726l14.96 46.043h-9.018l-4.167-13.048H52.769zm13.184-6.353l-3.62-11.34c-.889-2.801-1.64-5.943-2.323-8.607h-.137c-.683 2.664-1.366 5.875-2.186 8.607l-3.553 11.34h11.819z"/><path fill="#FFF" d="M220.121 51.829c2.665-.546 7.516-.956 12.229-.956 6.217 0 10.043.751 13.185 2.938 2.87 1.708 4.782 4.713 4.782 8.607 0 4.235-2.664 8.129-7.651 9.974v.137c4.851 1.229 9.291 5.055 9.291 11.408 0 4.099-1.776 7.31-4.44 9.496-3.279 2.869-8.676 4.304-17.078 4.304-4.646 0-8.198-.341-10.316-.615V51.829zM228.456 70h4.304c5.807 0 9.086-2.732 9.086-6.626 0-4.304-3.279-6.285-8.607-6.285-2.459 0-3.895.137-4.782.342V70zm0 21.177c1.093.137 2.527.205 4.44.205 5.396 0 10.179-2.049 10.179-7.719 0-5.329-4.646-7.515-10.452-7.515h-4.167v15.029z"/></g></switch></svg>