<svg xmlns="http://www.w3.org/2000/svg" xmlns:xlink="http://www.w3.org/1999/xlink" width="300" height="300" viewBox="0 0 300 300"><switch><g><symbol id="a" viewBox="-150 -150 300 300.007"><path fill="#CE8E95" d="M150-97.021c0-6.764 0-52.979-71.5-52.979H-84c-62.5 0-66 47.215-66 53.979v186c0 54.5 59.235 60 66 60l161.5.029c6.765 0 72.5-.029 72.5-60.029v-187z"/></symbol><use xlink:href="#a" width="300" height="300.007" x="-150" y="-150" transform="matrix(1 0 0 -1 150 150)" overflow="visible"/><g fill="#26080D"><path d="M44.233 233.147c1.92 1.104 4.801 2.064 7.825 2.064 3.792 0 5.905-1.776 5.905-4.417 0-2.448-1.632-3.888-5.761-5.376-5.329-1.92-8.737-4.753-8.737-9.409 0-5.28 4.417-9.313 11.425-9.313 3.504 0 6.096.768 7.776 1.632l-1.44 4.753c-1.152-.624-3.408-1.536-6.433-1.536-3.744 0-5.376 2.016-5.376 3.888 0 2.497 1.872 3.648 6.192 5.329 5.617 2.112 8.353 4.944 8.353 9.601 0 5.185-3.937 9.697-12.289 9.697-3.409 0-6.961-.961-8.737-2.017l1.297-4.896zM75.626 209.529v6.673h5.616v4.416h-5.616v10.321c0 2.832.768 4.32 3.024 4.32a8.765 8.765 0 0 0 2.304-.288l.096 4.513c-.864.336-2.4.576-4.272.576-2.16 0-3.984-.721-5.088-1.921-1.248-1.344-1.824-3.456-1.824-6.528v-10.993h-3.36v-4.416h3.36v-5.28l5.76-1.393zM98.858 239.58l-.384-2.592h-.144c-1.44 1.824-3.889 3.12-6.913 3.12-4.705 0-7.345-3.408-7.345-6.961 0-5.904 5.232-8.881 13.873-8.833v-.384c0-1.536-.624-4.08-4.752-4.08-2.304 0-4.704.72-6.289 1.728l-1.152-3.84c1.728-1.057 4.752-2.064 8.449-2.064 7.489 0 9.649 4.753 9.649 9.841v8.449c0 2.112.096 4.176.336 5.616h-5.328zm-.768-11.425c-4.176-.097-8.161.815-8.161 4.368 0 2.305 1.488 3.36 3.36 3.36 2.352 0 4.081-1.536 4.608-3.216a4.25 4.25 0 0 0 .192-1.297v-3.215zM110.089 223.163c0-2.688-.048-4.945-.192-6.961h5.185l.288 3.504h.144c1.008-1.824 3.552-4.032 7.44-4.032 4.081 0 8.305 2.641 8.305 10.033v13.873h-5.904v-13.201c0-3.36-1.248-5.904-4.464-5.904-2.352 0-3.984 1.68-4.608 3.456-.192.528-.24 1.248-.24 1.92v13.729h-5.952v-16.417zM159.098 205.497v27.507c0 2.399.097 4.992.192 6.576h-5.28l-.24-3.696h-.096c-1.393 2.592-4.225 4.225-7.633 4.225-5.568 0-9.985-4.753-9.985-11.953-.048-7.825 4.848-12.481 10.465-12.481 3.216 0 5.52 1.345 6.577 3.072h.096v-13.249h5.904zm-5.905 20.45a8.31 8.31 0 0 0-.144-1.536c-.528-2.305-2.4-4.177-5.089-4.177-3.792 0-5.904 3.36-5.904 7.729 0 4.272 2.112 7.393 5.856 7.393 2.4 0 4.513-1.632 5.089-4.176.144-.528.191-1.104.191-1.729v-3.504zM165.24 239.58c.096-1.584.191-4.177.191-6.576v-27.507h5.905v13.921h.096c1.44-2.256 3.984-3.744 7.488-3.744 5.713 0 9.793 4.753 9.745 11.857 0 8.4-5.328 12.577-10.609 12.577-3.023 0-5.712-1.152-7.393-4.032h-.096l-.288 3.504h-5.039zm6.097-9.648c0 .479.048.96.144 1.392.624 2.353 2.688 4.129 5.232 4.129 3.696 0 5.952-2.977 5.952-7.681 0-4.129-1.968-7.489-5.904-7.489-2.4 0-4.561 1.729-5.232 4.32-.096.433-.191.96-.191 1.536v3.793zM199.801 209.674c0 1.775-1.296 3.168-3.36 3.168-1.969 0-3.265-1.393-3.265-3.168 0-1.824 1.345-3.217 3.313-3.217 2.016 0 3.264 1.393 3.312 3.217zm-6.289 29.906v-23.378h5.953v23.378h-5.953zM205.799 205.497h5.953v34.083h-5.953v-34.083zM239.688 205.497v27.507c0 2.399.097 4.992.192 6.576h-5.28l-.24-3.696h-.096c-1.393 2.592-4.225 4.225-7.633 4.225-5.568 0-9.985-4.753-9.985-11.953-.048-7.825 4.849-12.481 10.466-12.481 3.216 0 5.521 1.345 6.576 3.072h.096v-13.249h5.904zm-5.904 20.45a8.31 8.31 0 0 0-.144-1.536c-.528-2.305-2.4-4.177-5.089-4.177-3.792 0-5.904 3.36-5.904 7.729 0 4.272 2.112 7.393 5.856 7.393 2.4 0 4.513-1.632 5.089-4.176.144-.528.191-1.104.191-1.729v-3.504zM243.237 241.5l11.713-34.803h4.129L247.366 241.5h-4.129zM70.107 273.227H57.915v9.505h13.633v4.849H52.01v-32.354h18.818v4.848H57.915v8.354h12.193v4.798zM82.778 257.674c0 1.775-1.296 3.168-3.36 3.168-1.968 0-3.265-1.393-3.265-3.168 0-1.824 1.344-3.217 3.313-3.217 2.016 0 3.264 1.393 3.312 3.217zM76.49 287.58v-23.378h5.952v23.378H76.49zM88.778 271.163c0-2.688-.048-4.945-.192-6.961h5.185l.288 3.504h.144c1.008-1.824 3.552-4.032 7.44-4.032 4.081 0 8.305 2.641 8.305 10.033v13.873h-5.904v-13.201c0-3.36-1.248-5.904-4.464-5.904-2.352 0-3.984 1.68-4.608 3.456-.192.528-.24 1.248-.24 1.92v13.729H88.78v-16.417zM116.905 287.58v-18.962h-3.168v-4.416h3.168v-1.008c0-3.024.816-6.049 2.832-7.969 1.729-1.633 4.081-2.257 6.097-2.257 1.584 0 2.833.24 3.792.576l-.432 4.561c-.624-.24-1.44-.432-2.496-.432-2.928 0-3.937 2.448-3.937 5.328v1.2h5.137v4.416h-5.089v18.962h-5.904zM131.544 271.738c0-3.168-.048-5.424-.192-7.536h5.137l.192 4.464h.192c1.152-3.312 3.889-4.992 6.385-4.992.576 0 .912.048 1.392.145v5.568a8.142 8.142 0 0 0-1.728-.192c-2.833 0-4.752 1.824-5.281 4.465-.096.527-.192 1.151-.192 1.824v12.097h-5.904v-15.843zM154.92 257.674c0 1.775-1.296 3.168-3.36 3.168-1.968 0-3.264-1.393-3.264-3.168 0-1.824 1.344-3.217 3.312-3.217 2.016 0 3.264 1.393 3.312 3.217zm-6.288 29.906v-23.378h5.952v23.378h-5.952zM165.096 277.547c.144 4.225 3.456 6.049 7.2 6.049 2.736 0 4.705-.384 6.48-1.056l.864 4.08c-2.016.816-4.8 1.44-8.16 1.44-7.585 0-12.05-4.657-12.05-11.81 0-6.48 3.937-12.577 11.426-12.577 7.584 0 10.08 6.24 10.08 11.377 0 1.104-.096 1.969-.191 2.496h-15.649zm10.272-4.128c.048-2.16-.912-5.713-4.848-5.713-3.648 0-5.185 3.313-5.425 5.713h10.273zM185.687 271.738c0-3.168-.048-5.424-.191-7.536h5.136l.192 4.464h.192c1.151-3.312 3.888-4.992 6.384-4.992.576 0 .912.048 1.393.145v5.568a8.145 8.145 0 0 0-1.729-.192c-2.832 0-4.752 1.824-5.28 4.465a10.12 10.12 0 0 0-.191 1.824v12.097h-5.905v-15.843zM206.519 277.547c.144 4.225 3.456 6.049 7.2 6.049 2.736 0 4.705-.384 6.48-1.056l.864 4.08c-2.016.816-4.8 1.44-8.16 1.44-7.585 0-12.05-4.657-12.05-11.81 0-6.48 3.937-12.577 11.426-12.577 7.584 0 10.08 6.24 10.08 11.377 0 1.104-.096 1.969-.191 2.496h-15.649zm10.272-4.128c.049-2.16-.912-5.713-4.848-5.713-3.648 0-5.185 3.313-5.425 5.713h10.273zM227.109 271.163c0-2.688-.048-4.945-.191-6.961h5.185l.288 3.504h.144c1.008-1.824 3.553-4.032 7.44-4.032 4.08 0 8.305 2.641 8.305 10.033v13.873h-5.904v-13.201c0-3.36-1.248-5.904-4.465-5.904-2.352 0-3.984 1.68-4.608 3.456-.191.528-.239 1.248-.239 1.92v13.729h-5.953v-16.417z"/></g><path fill="none" stroke="#FFF" stroke-width="4" stroke-miterlimit="10" d="M257 176.802c0 8.297-3.119 18.198-11.448 18.198H117.336C109.005 195 99 185.099 99 176.802V50.344C99 42.046 109.005 38 117.336 38h128.216C253.881 38 257 42.046 257 50.344v126.458z"/><path fill="#C1272D" d="M42 77h16v71H42zM63 77h17v71H63z"/><path fill-rule="evenodd" clip-rule="evenodd" fill="#FFF" d="M172.759 167.006c-4.963 2.105-9.674 4.056-14.34 6.107-2.022.89-3.982 1.261-4.947-1.153-.924-2.308.886-3.257 2.709-4.027 4.91-2.074 9.773-4.257 14.717-6.251 1.783-.718 2.479-1.717 2.44-3.654-.11-5.517-.039-11.038-.039-17.159-3.402 1.472-6.239 2.736-9.105 3.924-3.434 1.423-4.668.604-5.141-3.164-.402-3.214-.927-6.413-1.487-10.231-5.608 3.294-10.851 6.321-16.005 9.49-.451.276-.564 1.506-.451 2.234.749 4.84 1.61 9.662 2.418 14.492.162.964.276 1.938.366 2.91.174 1.886-.521 3.612-2.508 3.303-1.168-.181-2.736-1.747-3.018-2.949-.988-4.228-1.481-8.567-2.196-12.859-.177-1.059-.49-2.096-.829-3.512-2.021 1.143-3.881 2.021-5.515 3.208-.614.448-.971 1.62-.968 2.46.003 1.73.705 3.533.394 5.17-.228 1.205-1.603 2.193-2.468 3.277-1.008-.924-2.302-1.686-2.943-2.818-.593-1.048-.485-2.491-.754-4.184-1.908 1.068-3.399 2.275-5.09 2.725-1.197.316-2.667-.39-4.016-.641.437-1.383.518-3.085 1.399-4.068 1.087-1.212 2.843-1.826 4.579-2.861-1.553-1.11-3.087-1.772-3.913-2.938-.655-.928-.919-2.703-.455-3.66.329-.674 2.167-.705 3.35-.823.443-.044.952.47 1.415.754 6.014 3.702 6.013 3.704 12-.869-3.612-2.573-7.137-5.082-10.658-7.599-.887-.632-2.1-1.103-2.559-1.969-.66-1.242-1.431-3.083-.958-4.12.799-1.745 2.614-1.504 4.181-.378 4.423 3.179 8.926 6.252 13.288 9.513 1.609 1.205 2.834 1.425 4.637.295 4.678-2.933 9.502-5.632 14.821-8.748-3.271-2.25-6.112-4.187-8.934-6.15-3.771-2.622-3.796-4.368-.143-7.196a710.228 710.228 0 0 0 6.687-5.238c.14-.111.149-.386.329-.896-5.244-3.123-10.507-6.336-15.882-9.35-.631-.355-2.055.13-2.812.657-4.469 3.111-8.845 6.355-13.263 9.542-1.67 1.205-3.473 2.315-5.077.058-1.67-2.349.226-3.508 1.86-4.675 4.159-2.968 8.311-5.945 13.048-9.333-2.438-1.461-4.391-2.707-6.431-3.792-.431-.229-1.241.002-1.769.252-.879.415-1.663 1.031-2.503 1.535-1.827 1.097-3.872 3.047-5.682.502-2-2.812.727-3.937 2.563-5.224.245-.171.411-.451.812-.905-1.234-.819-2.709-1.347-3.414-2.395-.705-1.047-.641-2.612-.912-3.951 1.25-.236 2.593-.868 3.731-.607 1.41.323 2.651 1.385 4.399 2.374.301-1.849.551-3.396.807-4.943.31-1.875 1.414-3.307 3.271-2.671 1.04.356 1.713 2.043 2.332 3.243.252.488-.046 1.278-.142 1.924-.953 6.47-.648 6.961 6.108 9.383.877-5.161 1.781-10.27 2.597-15.393.323-2.028 1.03-3.912 3.37-3.459 2.374.458 2.605 2.355 2.165 4.628-1.035 5.336-1.853 10.717-2.617 16.1-.11.765.321 2.037.915 2.406 5.074 3.145 10.247 6.136 15.758 9.392.767-3.386 1.452-6.418 2.134-9.451.87-3.869 2.405-4.64 6.052-3.065 2.673 1.157 5.361 2.281 8.84 3.758 0-3.699.039-6.78-.01-9.859-.051-3.363.949-7.454-.609-9.875-1.45-2.251-5.666-2.721-8.662-3.975-2.809-1.177-5.617-2.354-8.429-3.528-1.868-.779-3.429-1.877-2.435-4.164.99-2.275 2.77-1.855 4.675-1.045 4.874 2.071 9.8 4.022 14.727 6.032 1.873-5.865 1.159-7.622-3.786-10.022-.782-.38-1.848-.591-2.261-1.221-.629-.958-1.429-2.637-1.019-3.249.595-.887 2.208-1.504 3.375-1.486 1.283.019 2.553.89 4.44 1.63 0-2.726-.31-5.026.117-7.181.254-1.277 1.667-2.324 2.56-3.474.928 1.115 2.405 2.119 2.66 3.37.442 2.166.123 4.485.123 7.305 1.817-.749 3.05-1.607 4.326-1.684 1.283-.078 2.609.626 3.917.986-.465 1.289-.817 2.635-1.448 3.837-.245.468-1.113.611-1.7.897-5.732 2.797-5.882 3.106-4.614 10.226 2.029-.846 3.979-1.652 5.926-2.471 2.705-1.14 5.419-2.263 8.108-3.443 1.931-.848 3.903-1.501 4.928 1.054 1.036 2.587-1.015 3.418-2.871 4.212-4.398 1.884-8.75 3.901-13.226 5.582-2.517.946-3.509 2.285-3.389 5.033.225 5.098.063 10.214.063 16.007 3.413-1.499 6.342-2.765 9.254-4.068 4.988-2.235 6.411-1.425 6.963 3.856.314 3.021.786 6.022 1.257 9.562 5.584-3.256 10.845-6.24 15.978-9.431.561-.349.639-1.925.503-2.869-.694-4.845-1.54-9.668-2.318-14.501-.137-.858-.543-1.896-.223-2.558.619-1.274 1.671-2.339 2.541-3.492 1.018 1.06 2.673 1.979 2.939 3.201.952 4.347 1.409 8.8 2.102 13.206.163 1.037.512 2.044.847 3.354 1.998-1.155 3.767-2.013 5.325-3.157.636-.467 1.124-1.55 1.137-2.362.026-1.839-.605-3.734-.337-5.509.163-1.087 1.575-2.849 2.299-2.789 1.116.093 2.437 1.303 3.083 2.389.604 1.014.446 2.484.691 4.258 2.029-1.159 3.593-2.433 5.375-2.938 1.288-.365 3.509-.224 4.177.606 1.237 1.537.398 3.222-1.481 4.225-1.597.851-3.102 1.876-5.016 3.052 1.547 1.103 3.053 1.747 3.865 2.886.676.95 1.105 2.837.594 3.65-.471.751-2.335.804-3.588.817-.637.007-1.286-.744-1.922-1.165-5.145-3.416-6.162-3.302-11.104 1.418 4.068 2.956 8.088 5.896 12.13 8.808 1.703 1.227 3.313 2.662 1.703 4.797-1.597 2.116-3.441.963-5.119-.269-4.216-3.095-8.421-6.205-12.711-9.193-.753-.525-2.173-.987-2.821-.631-5.327 2.923-10.545 6.045-16.202 9.346 2.957 2.306 5.611 4.307 8.187 6.406 3.144 2.563 3.037 4.315-.239 6.634-2.81 1.987-5.587 4.019-8.897 6.404 5.93 3.535 11.281 6.805 16.745 9.866.585.328 1.98-.348 2.764-.896 4.463-3.12 8.859-6.338 13.271-9.532 1.712-1.242 3.582-2.24 5.063.025 1.472 2.254-.259 3.497-1.978 4.7-4.245 2.972-8.425 6.041-13.029 9.36 2.24 1.366 3.911 2.591 5.762 3.417.797.356 2.067.12 2.938-.264 1.382-.609 2.521-1.932 3.923-2.266 1.224-.291 2.671.37 4.018.608-.344 1.329-.461 2.78-1.105 3.942-.459.829-1.621 1.267-2.802 2.119 1.904 1.18 3.683 1.904 4.908 3.167.862.885.972 2.504 1.418 3.795-1.419.29-2.985 1.105-4.224.756-1.899-.54-3.573-1.878-5.692-3.074-.315 2.054-.223 3.819-.913 5.189-.542 1.078-2.022 2.221-3.139 2.278-.714.037-1.649-1.785-2.238-2.905-.242-.457.193-1.253.27-1.901.764-6.547.608-6.794-6.206-9.608-.793 4.635-1.521 9.18-2.36 13.705-.409 2.215-.093 5.519-3.663 4.896-3.585-.626-2.118-3.813-1.856-5.946.546-4.422 1.408-8.811 2.261-13.19.397-2.053.039-3.407-1.985-4.51-4.672-2.55-9.199-5.361-14.332-8.388-.656 3.565-1.234 6.791-1.847 10.01-.691 3.643-1.991 4.4-5.423 3.02-2.917-1.172-5.777-2.482-9.131-3.933-.156 1.236-.36 2.129-.367 3.024-.034 4.686.091 9.377-.065 14.061-.075 2.27.846 3.224 2.895 3.968 4.903 1.783 9.697 3.868 14.546 5.803 1.936.772 3.405 1.983 2.433 4.181-.991 2.238-2.852 1.731-4.731.943-4.78-2.005-9.607-3.894-14.453-5.846-1.688 6.273-1.104 7.499 3.891 10.102 1.216.635 2.589 1.779 2.992 2.989.641 1.923-1.367 3.485-3.433 2.899-1.14-.324-2.21-.899-3.731-1.537-.126 1.072-.312 1.962-.322 2.854-.023 1.988-.279 3.973-2.748 4.017-2.49.044-2.825-1.892-2.801-3.916.013-.947-.106-1.895-.196-3.32-1.586.662-2.851 1.161-4.088 1.714-1.797.806-3.763.975-4.289-1.171-.267-1.082 1.018-2.658 1.841-3.844.373-.539 1.336-.662 2.019-.996 5.336-2.598 5.639-3.282 4.183-10.089zm16.757-72.782c-3.487 1.61-6.615 3.008-9.686 4.525-.471.232-.932 1.014-.944 1.551-.08 3.755-.043 7.512-.043 12.04 4.181-2.437 7.714-4.453 11.18-6.577.408-.252.674-1.124.623-1.673-.289-3.101-.695-6.191-1.13-9.866zm-7.705 23.008c3.507 2.094 6.446 3.922 9.471 5.595.602.333 1.755.383 2.274.02 2.646-1.845 5.167-3.87 8.013-6.044-2.521-1.989-4.746-3.849-7.104-5.522-.545-.388-1.716-.452-2.303-.129-3.312 1.824-6.534 3.812-10.351 6.08zm-18.173-21.795c-.67 2.935-1.357 5.642-1.864 8.382-.108.585.249 1.598.719 1.891 3.338 2.094 6.762 4.054 10.771 6.417 0-4.373.073-8.008-.071-11.635-.024-.636-.839-1.506-1.496-1.804-2.547-1.148-5.176-2.108-8.059-3.251zm24.966 43.558c.494-3.282.972-6.043 1.279-8.822.068-.616-.281-1.601-.761-1.903-3.156-1.989-6.399-3.838-10.25-6.108 0 4.431-.058 8.079.06 11.723.018.563.729 1.343 1.308 1.608 2.551 1.167 5.172 2.184 8.364 3.502zm-37.809-22.61c3.166 2.175 5.882 4.1 8.677 5.9.519.332 1.519.444 2.028.166 2.916-1.585 5.75-3.319 9.072-5.274-3.809-2.266-7.117-4.302-10.51-6.189-.58-.323-1.724-.3-2.257.069-2.292 1.584-4.453 3.358-7.01 5.328zm22.476 5.832c-3.621 2.109-6.528 3.736-9.348 5.509-.492.31-.905 1.258-.84 1.854.311 2.863.801 5.705 1.278 8.908 2.739-1.156 5.156-2.081 7.47-3.213.638-.313 1.349-1.236 1.376-1.906.14-3.429.064-6.868.064-11.152z"/></g></switch></svg>