<?xml version="1.0" encoding="UTF-8" standalone="no"?>
<!-- Generator: Adobe Illustrator 16.0.3, SVG Export Plug-In . SVG Version: 6.00 Build 0)  -->

<svg
   xmlns:dc="http://purl.org/dc/elements/1.1/"
   xmlns:cc="http://creativecommons.org/ns#"
   xmlns:rdf="http://www.w3.org/1999/02/22-rdf-syntax-ns#"
   xmlns:svg="http://www.w3.org/2000/svg"
   xmlns="http://www.w3.org/2000/svg"
   xmlns:sodipodi="http://sodipodi.sourceforge.net/DTD/sodipodi-0.dtd"
   xmlns:inkscape="http://www.inkscape.org/namespaces/inkscape"
   version="1.1"
   id="Ebene_1"
   x="0px"
   y="0px"
   width="60px"
   height="60px"
   viewBox="0 0 60 60"
   style="enable-background:new 0 0 60 60;"
   xml:space="preserve"
   sodipodi:docname="visual_qr_unfalsifizierbarkeit_de.svg"
   inkscape:version="0.92.4 (5da689c313, 2019-01-14)"><metadata
   id="metadata90"><rdf:RDF><cc:Work
       rdf:about=""><dc:format>image/svg+xml</dc:format><dc:type
         rdf:resource="http://purl.org/dc/dcmitype/StillImage" /><dc:title></dc:title></cc:Work></rdf:RDF></metadata><defs
   id="defs88" /><sodipodi:namedview
   pagecolor="#ffffff"
   bordercolor="#666666"
   borderopacity="1"
   objecttolerance="10"
   gridtolerance="10"
   guidetolerance="10"
   inkscape:pageopacity="0"
   inkscape:pageshadow="2"
   inkscape:window-width="731"
   inkscape:window-height="480"
   id="namedview86"
   showgrid="false"
   inkscape:zoom="3.9333333"
   inkscape:cx="30"
   inkscape:cy="30"
   inkscape:window-x="0"
   inkscape:window-y="0"
   inkscape:window-maximized="0"
   inkscape:current-layer="Ebene_1" />
<rect
   style="fill:#A0B983;"
   width="60"
   height="60"
   id="rect2" />
<g
   id="g44">
	<rect
   y="51.115"
   style="fill:none;"
   width="59.665"
   height="8.73"
   id="rect4" />
	<path
   style="fill:#FFFFFF;"
   d="M3.093,51.364v2.753c0,0.924,0.385,1.352,0.967,1.352c0.623,0,0.995-0.428,0.995-1.352v-2.753h0.861   v2.696c0,1.457-0.75,2.102-1.884,2.102c-1.092,0-1.8-0.609-1.8-2.094v-2.704H3.093z"
   id="path6" />
	<path
   style="fill:#FFFFFF;"
   d="M6.796,53.689c0-0.392-0.007-0.721-0.028-1.016h0.756l0.042,0.512h0.021   c0.147-0.267,0.518-0.589,1.085-0.589c0.595,0,1.211,0.386,1.211,1.464v2.024H9.023v-1.926c0-0.49-0.182-0.861-0.651-0.861   c-0.343,0-0.582,0.245-0.672,0.504c-0.028,0.077-0.035,0.182-0.035,0.28v2.003H6.796V53.689z"
   id="path8" />
	<path
   style="fill:#FFFFFF;"
   d="M10.828,56.085v-2.767h-0.462v-0.645h0.462v-0.146c0-0.441,0.119-0.883,0.414-1.163   c0.252-0.238,0.595-0.329,0.889-0.329c0.231,0,0.414,0.035,0.554,0.084l-0.063,0.665c-0.091-0.034-0.21-0.063-0.364-0.063   c-0.427,0-0.575,0.357-0.575,0.777v0.175h0.75v0.645h-0.742v2.767H10.828z"
   id="path10" />
	<path
   style="fill:#FFFFFF;"
   d="M14.812,56.085l-0.056-0.378h-0.021c-0.21,0.266-0.567,0.455-1.008,0.455   c-0.687,0-1.072-0.497-1.072-1.016c0-0.861,0.763-1.296,2.024-1.289v-0.056c0-0.225-0.091-0.596-0.693-0.596   c-0.336,0-0.686,0.105-0.917,0.253L12.9,52.898c0.252-0.154,0.693-0.302,1.233-0.302c1.092,0,1.408,0.693,1.408,1.437v1.232   c0,0.308,0.014,0.609,0.049,0.819H14.812z M14.7,54.418c-0.609-0.014-1.19,0.119-1.19,0.638c0,0.336,0.217,0.49,0.49,0.49   c0.343,0,0.595-0.225,0.672-0.47c0.021-0.063,0.028-0.133,0.028-0.188V54.418z"
   id="path12" />
	<path
   style="fill:#FFFFFF;"
   d="M16.379,51.112h0.868v4.973h-0.868V51.112z"
   id="path14" />
	<path
   style="fill:#FFFFFF;"
   d="M18.066,55.294c0.196,0.118,0.567,0.245,0.875,0.245c0.378,0,0.546-0.154,0.546-0.379   c0-0.23-0.14-0.35-0.56-0.497c-0.666-0.231-0.945-0.595-0.938-0.994c0-0.603,0.497-1.072,1.289-1.072   c0.378,0,0.708,0.099,0.903,0.203l-0.168,0.609c-0.147-0.084-0.42-0.195-0.721-0.195c-0.308,0-0.477,0.146-0.477,0.356   c0,0.218,0.161,0.322,0.596,0.477c0.616,0.224,0.903,0.539,0.91,1.044c0,0.616-0.483,1.064-1.387,1.064   c-0.413,0-0.784-0.099-1.037-0.238L18.066,55.294z"
   id="path16" />
	<path
   style="fill:#FFFFFF;"
   d="M21.875,51.722c0,0.259-0.189,0.462-0.49,0.462c-0.287,0-0.477-0.203-0.477-0.462   c0-0.267,0.196-0.47,0.483-0.47C21.685,51.252,21.867,51.455,21.875,51.722z M20.957,56.085v-3.411h0.868v3.411H20.957z"
   id="path18" />
	<path
   style="fill:#FFFFFF;"
   d="M22.777,56.085v-2.767h-0.462v-0.645h0.462v-0.161c0-0.917,0.637-1.478,1.653-1.478   c0.336,0,0.742,0.091,0.938,0.217l-0.189,0.651c-0.161-0.091-0.427-0.182-0.749-0.182c-0.603,0-0.799,0.364-0.799,0.813v0.14h2.038   v3.411h-0.868v-2.767h-1.163v2.767H22.777z"
   id="path20" />
	<path
   style="fill:#FFFFFF;"
   d="M26.2,55.588l1.282-1.639c0.175-0.211,0.322-0.379,0.504-0.575V53.36h-1.66v-0.687h2.711v0.525   l-1.254,1.604c-0.168,0.203-0.33,0.398-0.504,0.581v0.014h1.8v0.687H26.2V55.588z"
   id="path22" />
	<path
   style="fill:#FFFFFF;"
   d="M30.52,51.722c0,0.259-0.189,0.462-0.49,0.462c-0.287,0-0.477-0.203-0.477-0.462   c0-0.267,0.196-0.47,0.483-0.47C30.331,51.252,30.513,51.455,30.52,51.722z M29.602,56.085v-3.411h0.869v3.411H29.602z"
   id="path24" />
	<path
   style="fill:#FFFFFF;"
   d="M31.934,54.621c0.021,0.616,0.504,0.883,1.051,0.883c0.398,0,0.686-0.057,0.945-0.154l0.125,0.596   c-0.293,0.118-0.699,0.21-1.189,0.21c-1.107,0-1.758-0.68-1.758-1.724c0-0.945,0.574-1.835,1.666-1.835   c1.107,0,1.471,0.911,1.471,1.66c0,0.161-0.014,0.287-0.027,0.364H31.934z M33.432,54.019c0.008-0.314-0.133-0.833-0.707-0.833   c-0.531,0-0.756,0.483-0.791,0.833H33.432z"
   id="path26" />
	<path
   style="fill:#FFFFFF;"
   d="M34.867,53.773c0-0.462-0.008-0.791-0.027-1.1h0.748l0.029,0.651h0.027   c0.168-0.483,0.566-0.729,0.932-0.729c0.084,0,0.133,0.008,0.203,0.021v0.813c-0.07-0.014-0.146-0.028-0.252-0.028   c-0.414,0-0.693,0.267-0.771,0.651c-0.014,0.077-0.027,0.168-0.027,0.267v1.765h-0.861V53.773z"
   id="path28" />
	<path
   style="fill:#FFFFFF;"
   d="M37.262,56.085c0.014-0.231,0.027-0.609,0.027-0.96v-4.013h0.861v2.031h0.014   c0.211-0.329,0.582-0.547,1.094-0.547c0.832,0,1.428,0.693,1.422,1.73c0,1.226-0.779,1.835-1.549,1.835   c-0.441,0-0.834-0.168-1.078-0.589h-0.014l-0.043,0.512H37.262z M38.15,54.677c0,0.07,0.008,0.141,0.021,0.203   c0.09,0.344,0.393,0.603,0.764,0.603c0.539,0,0.867-0.434,0.867-1.12c0-0.603-0.287-1.093-0.861-1.093   c-0.35,0-0.664,0.252-0.764,0.63c-0.014,0.063-0.027,0.141-0.027,0.225V54.677z"
   id="path30" />
	<path
   style="fill:#FFFFFF;"
   d="M43.232,56.085l-0.057-0.378h-0.02c-0.211,0.266-0.568,0.455-1.01,0.455   c-0.686,0-1.072-0.497-1.072-1.016c0-0.861,0.764-1.296,2.025-1.289v-0.056c0-0.225-0.092-0.596-0.693-0.596   c-0.336,0-0.688,0.105-0.918,0.253l-0.168-0.561c0.252-0.154,0.693-0.302,1.232-0.302c1.094,0,1.408,0.693,1.408,1.437v1.232   c0,0.308,0.014,0.609,0.049,0.819H43.232z M43.121,54.418c-0.609-0.014-1.191,0.119-1.191,0.638c0,0.336,0.217,0.49,0.49,0.49   c0.344,0,0.596-0.225,0.672-0.47c0.021-0.063,0.029-0.133,0.029-0.188V54.418z"
   id="path32" />
	<path
   style="fill:#FFFFFF;"
   d="M44.799,53.773c0-0.462-0.008-0.791-0.027-1.1h0.748l0.029,0.651h0.027   c0.168-0.483,0.566-0.729,0.932-0.729c0.084,0,0.133,0.008,0.203,0.021v0.813c-0.07-0.014-0.146-0.028-0.252-0.028   c-0.414,0-0.693,0.267-0.771,0.651c-0.014,0.077-0.027,0.168-0.027,0.267v1.765h-0.861V53.773z"
   id="path34" />
	<path
   style="fill:#FFFFFF;"
   d="M48.082,54.173h0.016c0.084-0.133,0.182-0.28,0.273-0.399l0.826-1.1h1.035l-1.26,1.395l1.443,2.017   h-1.059l-0.98-1.506l-0.295,0.343v1.163h-0.861v-4.973h0.861V54.173z"
   id="path36" />
	<path
   style="fill:#FFFFFF;"
   d="M51.273,54.621c0.021,0.616,0.506,0.883,1.051,0.883c0.4,0,0.688-0.057,0.945-0.154l0.127,0.596   c-0.295,0.118-0.701,0.21-1.191,0.21c-1.105,0-1.758-0.68-1.758-1.724c0-0.945,0.574-1.835,1.668-1.835   c1.105,0,1.471,0.911,1.471,1.66c0,0.161-0.014,0.287-0.029,0.364H51.273z M52.773,54.019c0.006-0.314-0.133-0.833-0.707-0.833   c-0.533,0-0.758,0.483-0.793,0.833H52.773z"
   id="path38" />
	<path
   style="fill:#FFFFFF;"
   d="M55.125,51.722c0,0.259-0.189,0.462-0.49,0.462c-0.287,0-0.477-0.203-0.477-0.462   c0-0.267,0.195-0.47,0.482-0.47C54.936,51.252,55.117,51.455,55.125,51.722z M54.207,56.085v-3.411h0.869v3.411H54.207z"
   id="path40" />
	<path
   style="fill:#FFFFFF;"
   d="M56.918,51.7v0.974h0.818v0.645h-0.818v1.506c0,0.413,0.111,0.631,0.439,0.631   c0.148,0,0.26-0.021,0.338-0.043l0.014,0.659c-0.127,0.049-0.352,0.084-0.623,0.084c-0.316,0-0.582-0.105-0.744-0.28   c-0.182-0.196-0.266-0.505-0.266-0.953v-1.604h-0.49v-0.645h0.49v-0.771L56.918,51.7z"
   id="path42" />
</g>
<g
   id="g41"
   transform="translate(-7.561529,-21.467778)">
	<g
   id="Bild"
   transform="translate(8.6,22.5)">
		
			<sodipodi:namedview
   units="mm"
   borderopacity="1.0"
   bordercolor="#666666"
   pagecolor="#ffffff"
   showgrid="false"
   inkscape:cy="36.579613"
   inkscape:cx="40.754884"
   inkscape:zoom="5.6"
   showguides="true"
   id="base"
   inkscape:pageopacity="0.0"
   inkscape:pageshadow="2"
   inkscape:window-width="1366"
   inkscape:window-height="716"
   inkscape:window-x="-8"
   inkscape:window-y="-8"
   inkscape:window-maximized="1"
   inkscape:current-layer="layer1"
   inkscape:guide-bbox="true"
   inkscape:document-units="mm">
			<sodipodi:guide
   orientation="1,0"
   position="191.33858,0"
   id="guide21487" />
			<sodipodi:guide
   orientation="0,1"
   position="0,304.72441"
   id="guide21489" />
			<sodipodi:guide
   orientation="0,1"
   position="0,322.44094"
   id="guide26097" />
		</sodipodi:namedview>
		<g
   id="layer1"
   transform="translate(0,-910.62992)"
   inkscape:label="Ebene 1"
   inkscape:groupmode="layer">
			<path
   id="path2993"
   inkscape:connector-curvature="0"
   style="fill:#FFFFFF;"
   d="M8.962,912.891l0.018,0.92     c0,0,0.128,17.329,0.128,22.565c0,10.998,8.943,19.929,19.941,19.929c10.987,0,19.912-8.931,19.912-19.929     c0-5.279-0.25-22.583-0.25-22.583l-0.006-0.902h-0.896H9.882H8.962L8.962,912.891z M10.803,914.714h36.107     c0.025,1.281,0.245,16.647,0.245,21.662c0,10.014-8.097,18.124-18.106,18.124c-10.02,0-18.136-8.11-18.136-18.124     C10.913,931.324,10.807,916.018,10.803,914.714z M26.666,920.779l-8.827,22.236h4.336l2.18-5.662h8.377l2.174,5.662h4.311     l-8.83-22.236H26.666z M28.503,926.13h0.078c0.772,2.313,1.467,4.261,2.08,5.833l0.743,1.991h-5.733l0.763-1.991     C27.046,930.402,27.722,928.455,28.503,926.13z" />
			<g
   id="g2995"
   transform="translate(2894.8147,-1145.4433)">
			</g>
		</g>
	</g>
</g>
<g
   id="g55">
</g>
<g
   id="g57">
</g>
<g
   id="g59">
</g>
<g
   id="g61">
</g>
<g
   id="g63">
</g>
<g
   id="g65">
</g>
<g
   id="g67">
</g>
<g
   id="g69">
</g>
<g
   id="g71">
</g>
<g
   id="g73">
</g>
<g
   id="g75">
</g>
<g
   id="g77">
</g>
<g
   id="g79">
</g>
<g
   id="g81">
</g>
<g
   id="g83">
</g>
</svg>