<svg xmlns="http://www.w3.org/2000/svg" xmlns:xlink="http://www.w3.org/1999/xlink" width="300" height="300" viewBox="0 0 300 300"><switch><g><symbol id="a" viewBox="-150 -150 300 300.015"><path fill="#AEBCC4" d="M150-97.015c0-6.763 0-52.985-71.5-52.985H-84c-62.5 0-66 47.223-66 53.985v186c0 54.5 59.235 60 66 60l161.5.029c6.765 0 72.5-.029 72.5-60.029v-187z"/></symbol><use xlink:href="#a" width="300" height="300.015" x="-150" y="-150" transform="matrix(1 0 0 -1 150 150)" overflow="visible"/><g fill="#080828"><path d="M93.277 226.398c0 10.85-6.577 17.042-15.505 17.042-9.121 0-14.881-6.961-14.881-16.466 0-9.937 6.241-16.945 15.361-16.945 9.456 0 15.025 7.153 15.025 16.369zm-24.146.481c0 6.576 3.312 11.809 8.977 11.809 5.713 0 8.929-5.28 8.929-12.049 0-6.097-3.024-11.857-8.929-11.857-5.857-.001-8.977 5.424-8.977 12.097zM98.266 227.07c0-3.168-.048-5.424-.192-7.536h5.137l.192 4.464h.192c1.152-3.312 3.889-4.992 6.385-4.992.576 0 .912.048 1.392.145v5.568a8.142 8.142 0 0 0-1.728-.192c-2.833 0-4.752 1.824-5.281 4.465-.096.527-.192 1.151-.192 1.824v12.097h-5.904V227.07zM121.642 213.006c0 1.775-1.296 3.168-3.36 3.168-1.968 0-3.265-1.393-3.265-3.168 0-1.824 1.344-3.217 3.313-3.217 2.016 0 3.264 1.393 3.312 3.217zm-6.288 29.906v-23.378h5.952v23.378h-5.952zM149.003 219.534c-.096 1.584-.192 3.504-.192 6.721v13.249c0 4.896-1.008 8.4-3.456 10.608-2.448 2.16-5.809 2.833-9.024 2.833-2.977 0-6.145-.624-8.161-1.872l1.296-4.465c1.488.864 3.984 1.776 6.816 1.776 3.841 0 6.721-2.017 6.721-7.057v-2.017h-.096c-1.344 2.064-3.744 3.457-6.816 3.457-5.809 0-9.938-4.801-9.938-11.426 0-7.681 4.993-12.337 10.609-12.337 3.553 0 5.664 1.729 6.769 3.648h.096l.24-3.12h5.136zm-6.097 9.361c0-.527-.048-1.104-.192-1.584-.624-2.16-2.304-3.792-4.8-3.792-3.313 0-5.761 2.88-5.761 7.633 0 3.984 2.017 7.2 5.713 7.2 2.208 0 4.128-1.44 4.8-3.552.145-.624.24-1.44.24-2.112v-3.793zM161.242 213.006c0 1.775-1.296 3.168-3.36 3.168-1.969 0-3.265-1.393-3.265-3.168 0-1.824 1.345-3.217 3.313-3.217 2.016 0 3.264 1.393 3.312 3.217zm-6.289 29.906v-23.378h5.953v23.378h-5.953zM167.24 226.495c0-2.688-.048-4.945-.191-6.961h5.185l.288 3.504h.144c1.008-1.824 3.553-4.032 7.44-4.032 4.08 0 8.305 2.641 8.305 10.033v13.873h-5.904v-13.201c0-3.36-1.248-5.904-4.465-5.904-2.352 0-3.984 1.68-4.608 3.456-.191.528-.239 1.248-.239 1.92v13.729h-5.953v-16.417zM207.849 242.912l-.384-2.592h-.145c-1.439 1.824-3.888 3.12-6.912 3.12-4.704 0-7.345-3.408-7.345-6.961 0-5.904 5.232-8.881 13.873-8.833v-.384c0-1.536-.624-4.08-4.752-4.08-2.305 0-4.705.72-6.289 1.728l-1.152-3.84c1.729-1.057 4.753-2.064 8.449-2.064 7.488 0 9.648 4.753 9.648 9.841v8.449c0 2.112.097 4.176.336 5.616h-5.327zm-.768-11.425c-4.177-.097-8.161.815-8.161 4.368 0 2.305 1.488 3.36 3.36 3.36 2.353 0 4.08-1.536 4.608-3.216a4.25 4.25 0 0 0 .192-1.297v-3.215zM219.08 208.829h5.953v34.083h-5.953v-34.083zM241.928 228.079v4.08h-12.241v-4.08h12.241zM97.548 256.829v27.507c0 2.399.096 4.992.192 6.576h-5.28l-.24-3.696h-.096c-1.392 2.592-4.225 4.225-7.633 4.225-5.568 0-9.985-4.753-9.985-11.953-.048-7.825 4.849-12.481 10.465-12.481 3.216 0 5.521 1.345 6.577 3.072h.096V256.83h5.904zm-5.904 20.45a8.31 8.31 0 0 0-.144-1.536c-.528-2.305-2.4-4.177-5.089-4.177-3.792 0-5.904 3.36-5.904 7.729 0 4.272 2.112 7.393 5.856 7.393 2.4 0 4.512-1.632 5.088-4.176.144-.528.192-1.104.192-1.729v-3.504zM103.882 275.07c0-3.168-.048-5.424-.192-7.536h5.137l.192 4.464h.192c1.152-3.312 3.889-4.992 6.385-4.992.576 0 .912.048 1.392.145v5.568a8.142 8.142 0 0 0-1.728-.192c-2.833 0-4.752 1.824-5.281 4.465-.096.527-.192 1.151-.192 1.824v12.097h-5.904V275.07zM124.714 280.879c.144 4.225 3.456 6.049 7.2 6.049 2.736 0 4.705-.384 6.48-1.056l.864 4.08c-2.016.816-4.8 1.44-8.16 1.44-7.585 0-12.049-4.657-12.049-11.81 0-6.48 3.936-12.577 11.425-12.577 7.584 0 10.08 6.24 10.08 11.377 0 1.104-.096 1.969-.191 2.496h-15.649zm10.272-4.128c.049-2.16-.912-5.713-4.848-5.713-3.648 0-5.185 3.313-5.425 5.713h10.273zM145.305 256.829h5.953v13.921h.096a7.918 7.918 0 0 1 2.929-2.688c1.151-.673 2.544-1.057 4.032-1.057 3.984 0 8.16 2.641 8.16 10.129v13.777h-5.904v-13.105c0-3.408-1.248-5.952-4.513-5.952-2.304 0-3.937 1.536-4.561 3.313-.191.479-.239 1.104-.239 1.776v13.969h-5.953v-34.083zM194.986 279.007c0 8.593-6.049 12.434-12.001 12.434-6.625 0-11.714-4.561-11.714-12.05 0-7.68 5.041-12.385 12.098-12.385 6.961 0 11.617 4.896 11.617 12.001zm-17.618.24c0 4.513 2.208 7.921 5.809 7.921 3.36 0 5.713-3.313 5.713-8.017 0-3.648-1.632-7.825-5.665-7.825-4.176 0-5.857 4.032-5.857 7.921zM199.832 275.07c0-3.168-.048-5.424-.191-7.536h5.136l.192 4.464h.192c1.151-3.312 3.888-4.992 6.384-4.992.576 0 .912.048 1.393.145v5.568a8.145 8.145 0 0 0-1.729-.192c-2.832 0-4.752 1.824-5.28 4.465a10.12 10.12 0 0 0-.191 1.824v12.097h-5.905V275.07zM224.792 260.861v6.673h5.617v4.416h-5.617v10.321c0 2.832.769 4.32 3.024 4.32a8.78 8.78 0 0 0 2.305-.288l.096 4.513c-.864.336-2.4.576-4.272.576-2.16 0-3.984-.721-5.088-1.921-1.249-1.344-1.824-3.456-1.824-6.528V271.95h-3.36v-4.416h3.36v-5.28l5.759-1.393z"/></g><path fill="none" stroke="#FFF" stroke-width="3" stroke-miterlimit="10" d="M277 195.5H27"/><g fill-rule="evenodd" clip-rule="evenodd" fill="#FFF"><path d="M135.685 194.077c5.699 0 10.396-.125 15.082.053 2.346.089 3.111-2.697 4.233-4.796 3.334-8 6.28-14.683 12.334-21 1.455-2.423 4.248-4.126 6.613-5.615 17.365-10.925 35.487-11.317 53.984-3.124 5.625 2.492 10.847 5.757 13.735 11.405 5.068 6.578 8.99 12.792 11.333 19.667.613 1.014.716 2.953 1.636 2.992 5.524.23 11.064.113 16.898.113-.346-1.034-.416-1.552-.667-1.956-8.731-14.081-17.409-28.196-26.341-42.148-.847-1.321-3.3-2.271-5.014-2.28-24.1-.144-48.199-.051-72.299-.155-2.795-.012-4.423.92-5.807 3.281-6.117 10.45-12.395 20.806-18.582 31.213-2.258 3.803-4.429 7.658-7.138 12.35zm98.868-64.791c-4.856-13.343-9.54-26.036-14.061-38.785-.85-2.398-2.201-2.918-4.537-2.878-7.764.132-15.531.049-23.298.044-6.575-.003-8.326 1.473-10.219 7.691-3.035 9.976-6.285 19.885-9.446 29.823-.401 1.264-.809 2.525-1.314 4.104l62.875.001zM194.449 18.153l-7.135 59.01h30.723l-7.53-59.01h-16.058zM156.675 193.92c9.481 1.029 9.477 1.026 13.536-6.684.477-.902.974-1.795 1.502-2.666 8.52-14.035 21.719-20.795 36.467-18.46 14.507 2.294 23.789 10.755 28.55 24.521.453 1.311 1.74 3.15 2.815 3.278 3.491.42 7.064.157 10.716.157-5.934-18.165-21.176-35.588-44.334-36.513-22.836-.907-43.918 14.01-49.252 36.367zM209.648 4.851c.182-.761.363-1.13.339-1.486-.914-14.091-1.804-28.185-2.803-42.27-.305-4.304-3.794-2.152-5.924-2.581-2.2-.442-3.479.285-3.632 2.948-.595 10.417-1.424 20.819-2.122 31.229-.27 4.002-.423 8.012-.636 12.159l14.778.001zm33.578 135.034h-79.634c-.508 5.523-.35 5.72 4.701 5.72 23.187.004 46.371.002 69.557.002h4.773c.221-2.091.399-3.797.603-5.722zm-79.614-2.24h78.795v-5.192h-78.795v5.192zm59-47.853c.336-1.479.72-2.949 1.005-4.438 1.047-5.452.705-5.859-4.913-5.879-9.421-.035-18.842-.021-28.264-.091-9.719-.073-10.615 1.175-7.151 10.253.037.097.164.159.396.37l1.517-3.912c10.127 0 20.051.07 29.973-.042 3.15-.034 6.149-.277 7.437 3.739zm-20.241-73.713c2.166 0 4.332-.006 6.496.001 3.686.012 3.764-2.718 4.003-5.292.253-2.74-1.147-4.035-3.786-4.056-4.332-.036-8.677-.201-12.984.105-1.284.091-3.25 1.356-3.563 2.461-1.425 5.043.068 6.77 5.248 6.788 1.528.005 3.058.001 4.586-.007zm-.319-59.414c1.643 0 3.31.167 4.919-.065.913-.133 2.498-1.016 2.451-1.395-.151-1.2-.852-3.268-1.473-3.317a67.653 67.653 0 0 0-11.235.041c-.659.057-1.391 2.035-1.572 3.207-.061.377 1.477 1.312 2.372 1.463 1.474.248 3.021.067 4.538.066zm7.145-6.655c-.286-3.235-3.131-4.148-10.728-3.145-2.677.354-3.284 1.131-2.931 3.145h13.659zm-6.629-4.347c1.271 0 2.591.204 3.798-.076.748-.173 1.324-1.081 1.979-1.66-.649-.571-1.271-1.591-1.955-1.635-2.786-.18-5.597-.152-8.383.027-.562.035-1.466 1.055-1.471 1.628-.006.563.867 1.531 1.466 1.626 1.488.239 3.039.08 4.566.09zm1.517-9.385l-1.967-4.727c-.453 1.537-1.231 3.065-1.269 4.612-.039 1.55.662 3.117 1.039 4.677l2.197-4.562z"/><path d="M135.685 194.077c2.709-4.692 4.88-8.547 7.141-12.351 6.187-10.407 12.464-20.763 18.582-31.213 1.384-2.361 3.012-3.293 5.807-3.281 24.1.104 48.199.012 72.299.155 1.714.009 4.167.959 5.014 2.28 8.932 13.952 17.609 28.067 26.341 42.148.251.404.321.922.667 1.956-5.834 0-11.374.117-16.898-.113-.92-.039-1.022-1.979-1.636-2.992-3.897-6.429-6.247-10.65-9.666-17.333-2.889-5.648-9.777-11.247-15.402-13.739-18.497-8.193-36.619-7.801-53.984 3.124-2.365 1.489-7.613 4.948-10.28 8.948-4 7.667-6 9.333-8.333 16.333-1.122 2.099-2.222 6.219-4.567 6.13-4.688-.177-9.386-.052-15.085-.052zM234.553 129.286h-62.875c.506-1.579.913-2.84 1.314-4.104 3.161-9.938 6.411-19.848 9.446-29.823 1.893-6.218 3.644-7.694 10.219-7.691 7.767.005 15.534.088 23.298-.044 2.336-.04 3.688.479 4.537 2.878 4.521 12.748 9.204 25.44 14.061 38.784zM194.449 18.153h16.058l7.53 59.01h-30.723c2.382-19.699 4.745-39.231 7.135-59.01z"/><path d="M156.675 193.92c5.334-22.356 26.416-37.274 49.252-36.365 23.158.925 38.4 18.348 44.334 36.513-3.651 0-7.225.263-10.716-.157-1.075-.128-2.362-1.968-2.815-3.278-4.761-13.767-14.043-22.228-28.55-24.521-14.748-2.335-27.947 4.425-36.467 18.46a52.336 52.336 0 0 0-1.502 2.666c-4.06 7.708-4.055 7.711-13.536 6.682zM209.648 4.851h-14.777c.213-4.147.366-8.157.636-12.159.698-10.411 1.527-20.813 2.122-31.229.153-2.663 1.432-3.39 3.632-2.948 2.13.428 5.619-1.724 5.924 2.581.999 14.085 1.889 28.179 2.803 42.27.024.355-.158.723-.34 1.485zM243.226 139.885l-.603 5.722h-4.773c-23.186 0-46.37.002-69.557-.002-5.051 0-5.209-.196-4.701-5.72h79.634zM163.612 137.645v-5.192h78.795v5.192h-78.795zM222.612 89.792c-1.288-4.016-4.287-3.774-7.438-3.74-9.922.111-19.846.042-29.973.042l-1.517 3.912c-.231-.211-.358-.272-.396-.37-3.464-9.078-2.567-10.326 7.151-10.253 9.422.071 18.843.056 28.264.091 5.618.021 5.96.427 4.913 5.879-.284 1.491-.668 2.96-1.004 4.439zM202.371 16.083c-1.528.003-3.058.008-4.586.002-5.18-.018-6.673-1.745-5.248-6.788.313-1.105 2.278-2.371 3.563-2.461 4.308-.306 8.652-.141 12.984-.105 2.639.021 4.039 1.316 3.786 4.056-.239 2.574-.317 5.305-4.003 5.292-2.164-.006-4.33 0-6.496.004zM202.052-43.335c-1.517 0-3.063.182-4.538-.067-.896-.151-2.433-1.085-2.372-1.463.182-1.172.913-3.15 1.572-3.207a67.654 67.654 0 0 1 11.235-.041c.621.049 1.321 2.118 1.473 3.317.047.379-1.538 1.262-2.451 1.395-1.61.233-3.277.066-4.919.066zM209.197-49.99h-13.658c-.354-2.014.254-2.791 2.931-3.145 7.596-1.003 10.441-.09 10.727 3.145zM202.568-54.342c-1.527-.005-3.078.154-4.566-.083-.599-.096-1.472-1.063-1.466-1.626.005-.573.909-1.593 1.471-1.628 2.786-.179 5.597-.207 8.383-.027.685.044 1.306 1.063 1.955 1.635-.654.579-1.23 1.486-1.979 1.66-1.207.278-2.526.074-3.798.069zM204.085-63.722l-2.196 4.562c-.377-1.56-1.078-3.127-1.039-4.677.037-1.546.815-3.075 1.269-4.612l1.966 4.727z"/></g><g fill-rule="evenodd" clip-rule="evenodd"><path fill="#FFF" d="M70.815 192.257c2.068-2.504 3.819-4.623 5.688-6.883 4.859 3.691 9.3 7.063 13.701 10.402-1.69 2.288-3.192 3.896-4.136 5.785-.458.915.133 2.352.252 3.553 1.083-.247 2.601-.128 3.177-.807 2.479-2.923 4.628-6.124 6.999-9.146 4.42-5.636 8.91-11.218 13.303-16.737 5.471 3.255 10.528 6.188 15.497 9.256 2.736 1.69 5.255 3.732 8.016 5.377 1.085.646 2.558.642 3.856.935l.581-1.538c-7.849-6.101-15.697-12.206-23.659-18.398.407-.746.627-1.317.983-1.785 5.85-7.691 11.7-15.383 17.616-23.023.394-.507 1.31-.768 2.017-.843 4.258-.458 7.074-4.199 4.51-6.801-3.381-3.429-2-7.038-2.444-10.631-.446-3.595-.184-6.675 6.282-6.145-2.522-1.511-3.445-2.349-4.521-2.657-4.693-1.346-9.37-2.964-14.171-3.667-4.368-.637-5.535-2.563-5.511-6.751.033-5.565 1.24-11.347-1.345-16.875-1.438 1.092-2.488 2.532-3.729 2.722-7.43 1.138-14.887 2.138-22.363 2.884-5.845.583-11.772.427-17.584 1.189-3.359.44-6.633 2.318-7.978-2.7-.058-.219-1.113-.172-1.838-.267-.128.734-.37 1.341-.316 1.921 1.047 11.026 2.162 22.047 3.171 33.079.157 1.71.528 4.006-.355 5.084-2.098 2.559-.677 3.954 1.023 5.352 7.779 6.401 15.618 12.729 23.715 19.31l-23.761 25.733c.968.892 1.749 1.614 3.324 3.072z"/><path fill="#C1272D" d="M70.815 192.257l-3.323-3.073 23.761-25.733c-8.097-6.58-15.937-12.908-23.715-19.31-1.7-1.397-3.122-2.793-1.023-5.352.883-1.078.512-3.374.355-5.084-1.01-11.032-2.124-22.053-3.171-33.079-.054-.58.188-1.187.316-1.921.726.095 1.78.047 1.838.267 1.344 5.018 4.618 3.14 7.978 2.7 5.812-.762 11.74-.605 17.584-1.189 7.476-.746 14.933-1.746 22.363-2.884 1.24-.19 2.29-1.63 3.729-2.722 2.585 5.528 1.378 11.31 1.345 16.875-.024 4.189 1.143 6.115 5.511 6.751 4.801.702 9.478 2.32 14.171 3.667 1.077.308 1.999 1.146 4.521 2.657-6.466-.53-6.728 2.55-6.282 6.145.444 3.594-.937 7.203 2.444 10.631 2.564 2.602-.252 6.343-4.51 6.801-.707.075-1.624.336-2.017.843-5.917 7.641-11.767 15.332-17.616 23.023-.356.468-.577 1.039-.983 1.785 7.962 6.192 15.81 12.298 23.659 18.398l-.581 1.538c-1.298-.293-2.771-.288-3.856-.935-2.761-1.645-5.28-3.687-8.016-5.377-4.969-3.068-10.026-6.001-15.497-9.256-4.393 5.52-8.883 11.102-13.303 16.737-2.371 3.022-4.521 6.224-6.999 9.146-.577.679-2.095.56-3.177.807-.119-1.201-.71-2.638-.252-3.553.944-1.889 2.446-3.497 4.136-5.785-4.401-3.34-8.842-6.711-13.701-10.402-1.87 2.261-3.621 4.38-5.689 6.884zm-3.107-72.313c1.497 1.511 2.376 2.969 3.661 3.587 3.423 1.644 7.117 2.739 10.49 4.466 1.036.53 2.023 2.456 1.919 3.645-.23 2.635-1.166 5.209-2.069 8.833l30.856-3.626c5.992-6.764 2.805-14.563 3.623-22.393-16.128 1.826-31.658 3.585-48.48 5.488zm10.751 63.144c4.589 3.558 9.007 6.982 13.602 10.542 4.987-6.059 9.763-11.869 14.788-17.977l-12.795-9.619c-5.412 5.916-10.415 11.39-15.595 17.054zm54.714-43.84c2.836-12.073 1.584-14.339-9.068-17.389-1.579-.453-3.112-1.058-5.129-1.751 0 4.255-.087 8.109.068 11.95.034.833.745 2.078 1.458 2.373 4.152 1.725 8.398 3.222 12.671 4.817zm-34.58 23.337c11.477-2.509 23.668-.421 28.287-13.298-6.062 1.293-12.562 2.482-18.951 4.112-2.902.74-7.462.123-9.262 2.601-.898 1.236.683 4.956-.074 6.585zm-19.592-22.12c3.603-9.733-4.19-10.33-9.415-13.047-1.208 13.01.459 15.228 9.415 13.047zm38.579 21.331c-5.542 1.072-9.818 1.9-14.983 2.901l7.628 5.996 7.355-8.897z"/><path fill="#AEBCC4" d="M67.708 119.944c16.822-1.903 32.352-3.662 48.479-5.488-.818 7.83 2.369 15.628-3.623 22.393l-30.856 3.626c.903-3.624 1.839-6.198 2.069-8.833.104-1.189-.883-3.114-1.919-3.645-3.374-1.728-7.067-2.822-10.49-4.466-1.284-.618-2.163-2.076-3.66-3.587zM78.459 183.088c5.179-5.664 10.183-11.138 15.594-17.054l12.795 9.619c-5.025 6.107-9.801 11.918-14.788 17.977l-13.601-10.542zM133.173 139.248c-4.273-1.595-8.519-3.092-12.672-4.816-.713-.295-1.424-1.54-1.458-2.373-.155-3.841-.068-7.695-.068-11.95 2.018.693 3.55 1.298 5.129 1.751 10.653 3.049 11.905 5.315 9.069 17.388zM98.593 162.585c.9-1.938-1.039-5.206.074-6.585 1.697-2.103 6.635-1.931 9.262-2.601 6.389-1.63 12.889-2.819 18.951-4.112-4.618 12.877-16.81 10.789-28.287 13.298z"/><path fill="#AEBCC4" d="M79.001 140.465c-8.956 2.182-10.623-.037-9.415-13.047 5.225 2.717 13.018 3.313 9.415 13.047zM117.58 161.796l-7.355 8.897c-2.303-1.812-4.54-3.569-7.628-5.996 5.165-1.001 9.441-1.829 14.983-2.901z"/></g></g></switch></svg>