<?xml version="1.0" encoding="UTF-8" standalone="no"?>
<svg
   xmlns:dc="http://purl.org/dc/elements/1.1/"
   xmlns:cc="http://creativecommons.org/ns#"
   xmlns:rdf="http://www.w3.org/1999/02/22-rdf-syntax-ns#"
   xmlns:svg="http://www.w3.org/2000/svg"
   xmlns="http://www.w3.org/2000/svg"
   viewBox="0 0 375 375"
   height="375"
   width="375"
   xml:space="preserve"
   version="1.1"
   id="svg2"><metadata
     id="metadata8"><rdf:RDF><cc:Work
         rdf:about=""><dc:format>image/svg+xml</dc:format><dc:type
           rdf:resource="http://purl.org/dc/dcmitype/StillImage" /></cc:Work></rdf:RDF></metadata><defs
     id="defs6" /><g
     transform="matrix(1.25,0,0,-1.25,0,375)"
     id="g10"><g
       transform="scale(0.1,0.1)"
       id="g12"><path
         id="path14"
         style="fill:#aebcc4;fill-opacity:1;fill-rule:nonzero;stroke:none"
         d="m 3000,529.855 c 0,-67.632 0,-529.85109375 -715,-529.85109375 l -1625,0 C 35,0.00390625 0,472.223 0,539.855 L 0,2399.86 c 0,545 592.352,600 660,600 l 1615,0.28 c 67.65,0 725,-0.28 725,-600.28" /><path
         id="path16"
         style="fill:#080828;fill-opacity:1;fill-rule:nonzero;stroke:none"
         d="m 633.422,418 0,189.547 47.5,0 0,44.156 -47.984,0 0,10.547 c 0,31.203 13.437,57.109 49.421,57.109 14.875,0 24.469,-1.921 30.719,-5.281 l 0,-296.078 59.5,0 0,328.234 c -21.109,11.516 -49.906,17.75 -81.094,17.75 -35.515,0 -61.906,-8.156 -82.546,-24.953 -22.547,-18.703 -34.547,-47.984 -34.547,-77.25 l 0,-10.078 -31.672,0 0,-44.156 31.672,0 0,-189.547 59.031,0" /><path
         id="path18"
         style="fill:#080828;fill-opacity:1;fill-rule:nonzero;stroke:none"
         d="m 1021.42,418 c -2.39,14.391 -3.36,35.031 -3.36,56.141 l 0,84.468 c 0,50.86 -21.591,98.375 -96.451,98.375 -36.953,0 -67.187,-10.078 -84.453,-20.64 l 11.516,-38.391 c 15.828,10.078 39.828,17.281 62.859,17.281 41.266,0 47.516,-25.437 47.516,-40.796 l 0,-3.844 c -86.391,0.484 -138.688,-29.266 -138.688,-88.297 0,-35.5 26.391,-69.578 73.422,-69.578 30.235,0 54.703,12.953 69.094,31.187 l 1.438,0 3.843,-25.906 53.264,0 z m -60.936,82.063 c 0,-3.844 -0.484,-8.641 -1.921,-12.954 -5.282,-16.796 -22.563,-32.156 -46.079,-32.156 -18.703,0 -33.578,10.547 -33.578,33.594 0,35.5 39.828,44.625 81.578,43.656 l 0,-32.14" /><path
         id="path20"
         style="fill:#080828;fill-opacity:1;fill-rule:nonzero;stroke:none"
         d="m 1087.75,704.484 0,-52.781 -33.59,0 0,-44.156 33.59,0 0,-109.891 c 0,-30.703 5.75,-51.828 18.23,-65.265 11.04,-11.985 29.27,-19.188 50.86,-19.188 18.72,0 34.08,2.391 42.72,5.75 l -0.97,45.11 c -5.26,-1.438 -12.95,-2.875 -23.03,-2.875 -22.54,0 -30.23,14.875 -30.23,43.187 l 0,103.172 56.15,0 0,44.156 -56.15,0 0,66.703 -57.58,-13.922" /><path
         id="path22"
         style="fill:#080828;fill-opacity:1;fill-rule:nonzero;stroke:none"
         d="m 1330.28,429.516 c 17.27,-9.594 42.7,-16.313 71.02,-16.313 61.9,0 95.01,30.703 95.01,72.938 -0.48,34.547 -20.15,56.14 -62.39,71.5 -29.75,10.562 -40.78,17.765 -40.78,32.64 0,14.391 11.52,24.469 32.63,24.469 20.64,0 39.36,-7.672 49.43,-13.437 l 11.52,41.75 c -13.44,7.203 -36,13.921 -61.91,13.921 -54.23,0 -88.29,-32.156 -88.29,-73.421 -0.49,-27.36 18.71,-52.313 64.29,-68.141 28.8,-10.078 38.39,-18.25 38.39,-34.078 0,-15.36 -11.51,-25.906 -37.42,-25.906 -21.12,0 -46.55,8.625 -59.98,16.781 l -11.52,-42.703" /><path
         id="path24"
         style="fill:#080828;fill-opacity:1;fill-rule:nonzero;stroke:none"
         d="m 1545.67,322.984 59.03,0 0,120.922 0.96,0 c 12,-18.703 36.47,-31.187 65.75,-31.187 53.26,0 106.53,40.797 106.53,125.25 0,72.937 -44.64,119.015 -98.38,119.015 -35.51,0 -62.87,-14.89 -80.14,-41.281 l -0.97,0 -2.87,36 -51.83,0 c 0.97,-22.078 1.92,-47.031 1.92,-77.75 l 0,-250.969 z m 59.03,228.907 c 0,4.797 0.96,10.078 2.39,14.875 5.77,25.906 28.32,43.672 52.79,43.672 37.92,0 58.07,-33.594 58.07,-74.875 0,-46.063 -22.07,-77.25 -59.51,-77.25 -24.96,0 -46.06,17.265 -51.83,41.265 -1.44,5.281 -1.91,10.563 -1.91,16.313 l 0,36" /><path
         id="path26"
         style="fill:#080828;fill-opacity:1;fill-rule:nonzero;stroke:none"
         d="m 2010.42,418 c -2.39,14.391 -3.36,35.031 -3.36,56.141 l 0,84.468 c 0,50.86 -21.59,98.375 -96.45,98.375 -36.95,0 -67.19,-10.078 -84.45,-20.64 l 11.51,-38.391 c 15.83,10.078 39.83,17.281 62.86,17.281 41.27,0 47.52,-25.437 47.52,-40.796 l 0,-3.844 c -86.39,0.484 -138.69,-29.266 -138.69,-88.297 0,-35.5 26.39,-69.578 73.42,-69.578 30.24,0 54.7,12.953 69.1,31.187 l 1.43,0 3.85,-25.906 53.26,0 z m -60.94,82.063 c 0,-3.844 -0.48,-8.641 -1.92,-12.954 -5.28,-16.796 -22.56,-32.156 -46.08,-32.156 -18.7,0 -33.57,10.547 -33.57,33.594 0,35.5 39.82,44.625 81.57,43.656 l 0,-32.14" /><path
         id="path28"
         style="fill:#080828;fill-opacity:1;fill-rule:nonzero;stroke:none"
         d="m 2233.31,468.859 c -11.51,-4.796 -25.92,-9.109 -46.54,-9.109 -40.32,0 -71.5,27.359 -71.5,75.344 -0.49,42.703 26.39,75.812 71.5,75.812 21.11,0 35.03,-4.797 44.62,-9.109 l 10.56,44.141 c -13.43,6.234 -35.51,11.046 -57.11,11.046 -82.06,0 -130.04,-54.718 -130.04,-124.781 0,-72.453 47.5,-119 120.45,-119 29.27,0 53.73,6.235 66.22,12 l -8.16,43.656" /><path
         id="path30"
         style="fill:#080828;fill-opacity:1;fill-rule:nonzero;stroke:none"
         d="m 2478.86,518.297 c 0.95,5.281 1.92,13.906 1.92,24.953 0,51.344 -24.95,113.734 -100.78,113.734 -74.86,0 -114.2,-60.953 -114.2,-125.734 0,-71.5 44.62,-118.047 120.45,-118.047 33.58,0 61.42,6.235 81.58,14.391 l -8.64,40.797 c -17.75,-6.719 -37.44,-10.563 -64.78,-10.563 -37.44,0 -70.55,18.235 -71.99,60.469 l 156.44,0 z m -156.44,41.266 c 2.39,24 17.75,57.109 54.22,57.109 39.36,0 48.95,-35.516 48.47,-57.109 l -102.69,0" /><path
         id="path32"
         style="fill:#080828;fill-opacity:1;fill-rule:nonzero;stroke:none"
         d="m 270,2350 2510,0 0,170 -2510,0 0,-170 z" /><path
         id="path34"
         style="fill:#080828;fill-opacity:1;fill-rule:nonzero;stroke:none"
         d="m 270,2150 2510,0 0,170 -2510,0 0,-170 z" /><path
         id="path36"
         style="fill:#080828;fill-opacity:1;fill-rule:nonzero;stroke:none"
         d="m 270,1950 2510,0 0,170 -2510,0 0,-170 z" /><path
         id="path38"
         style="fill:#080828;fill-opacity:1;fill-rule:nonzero;stroke:none"
         d="m 270,1750 2510,0 0,170 -2510,0 0,-170 z" /><path
         id="path40"
         style="fill:#080828;fill-opacity:1;fill-rule:nonzero;stroke:none"
         d="m 270,1550 2510,0 0,170 -2510,0 0,-170 z" /><path
         id="path42"
         style="fill:#080828;fill-opacity:1;fill-rule:nonzero;stroke:none"
         d="m 270,1350 2510,0 0,170 -2510,0 0,-170 z" /><path
         id="path44"
         style="fill:#080828;fill-opacity:1;fill-rule:nonzero;stroke:none"
         d="m 270,1150 2510,0 0,170 -2510,0 0,-170 z" /><path
         id="path46"
         style="fill:#ffffff;fill-opacity:1;fill-rule:nonzero;stroke:none"
         d="m 899.758,2770.98 c 0,0 32.617,65.54 95.398,61.06 26.684,-1.91 56.824,-10.97 85.824,-45.79 0,0 53.43,-74.4 -43.88,-179.34 0,0 -4.96,-37.59 26.19,-68.73 0,0 286.42,-6.25 224.17,-442.14 l -18.66,-143.22 c 0,0 -49.84,-87.18 -49.84,-255.29 0,0 -33.91,-717.464 -15.23,-723.706 0,0 -52.14,-64.867 -127.18,-5.097 l -1.28,783.483 c 0,0 -57.24,45.77 -103.024,-7.66 l -3.82,-774.573 c 0,0 -53.418,-53.411 -115.738,-3.75 l -13.563,731.303 c 0,0 6.23,168.11 -49.828,267.76 0,0 -145.199,546.24 163.859,561.5 0,0 24.168,25.44 15.27,72.5 -3.34,17.67 -91.571,34.34 -68.668,171.69" /><path
         id="path48"
         style="fill:#ffffff;fill-opacity:1;fill-rule:nonzero;stroke:none"
         d="m 2152.62,2770.98 c 0,0 -32.61,65.54 -95.39,61.06 -26.7,-1.91 -56.82,-10.97 -85.84,-45.79 0,0 -53.42,-74.4 43.9,-179.34 0,0 4.95,-37.59 -26.2,-68.73 0,0 -286.42,-6.25 -224.18,-442.14 l 18.68,-143.22 c 0,0 49.82,-87.18 49.82,-255.29 0,0 33.91,-717.464 15.24,-723.706 0,0 52.15,-64.867 127.18,-5.097 l 1.28,783.483 c 0,0 57.25,45.77 103.03,-7.66 l 3.82,-774.573 c 0,0 53.42,-53.411 115.73,-3.75 l 13.56,731.303 c 0,0 -6.23,168.11 49.82,267.76 0,0 145.22,546.24 -163.86,561.5 0,0 -24.16,25.44 -15.25,72.5 3.34,17.67 91.55,34.34 68.66,171.69" /></g></g></svg>