<?xml version="1.0" encoding="utf-8"?>
<!-- Generator: Adobe Illustrator 16.0.3, SVG Export Plug-In . SVG Version: 6.00 Build 0)  -->
<!DOCTYPE svg PUBLIC "-//W3C//DTD SVG 1.1//EN" "http://www.w3.org/Graphics/SVG/1.1/DTD/svg11.dtd" [
	<!ENTITY ns_extend "http://ns.adobe.com/Extensibility/1.0/">
	<!ENTITY ns_ai "http://ns.adobe.com/AdobeIllustrator/10.0/">
	<!ENTITY ns_graphs "http://ns.adobe.com/Graphs/1.0/">
	<!ENTITY ns_vars "http://ns.adobe.com/Variables/1.0/">
	<!ENTITY ns_imrep "http://ns.adobe.com/ImageReplacement/1.0/">
	<!ENTITY ns_sfw "http://ns.adobe.com/SaveForWeb/1.0/">
	<!ENTITY ns_custom "http://ns.adobe.com/GenericCustomNamespace/1.0/">
	<!ENTITY ns_adobe_xpath "http://ns.adobe.com/XPath/1.0/">
]>
<svg version="1.1" id="Ebene_1" xmlns:x="&ns_extend;" xmlns:i="&ns_ai;" xmlns:graph="&ns_graphs;"
	 xmlns="http://www.w3.org/2000/svg" xmlns:xlink="http://www.w3.org/1999/xlink" x="0px" y="0px" width="300px" height="300px"
	 viewBox="0 0 300 300" enable-background="new 0 0 300 300" xml:space="preserve">
<metadata>
	<sfw  xmlns="&ns_sfw;">
		<slices></slices>
		<sliceSourceBounds  height="309.082" width="299.996" x="-50.499" y="-57.082" bottomLeftOrigin="true"></sliceSourceBounds>
	</sfw>
</metadata>
<path fill="#6F699B" d="M228.001,298.5h-156c-39.604,0-72-16.9-72-56.5V58.5c0-39.6,32.396-60,72-60h156
	c39.601,0,71.996,20.9,71.996,60.5v183.5C299.997,282.1,267.6,298.5,228.001,298.5z"/>
<g>
	<path opacity="0.4" fill="#FFFFFF" enable-background="new    " d="M149.567,23.999c-46.208,0-83.667,37.459-83.667,83.667
		c0,20.148,11.932,47.423,11.932,47.423l-25.5,35.999l46.045-17.268c14.148,10.968,31.899,17.513,51.189,17.513
		c46.207,0,83.666-37.459,83.666-83.667S195.774,23.999,149.567,23.999z"/>
	<g>
		<path fill="#FFFFFF" d="M160.125,194.63c-8.116,0-14.422-4.901-16.872-13.112c-3.316-10.504,0.368-24.285,13.854-30.211
			c3.431-1.535,7.18-2.354,10.822-2.354c0.604,0,1.208,0.021,1.805,0.065V56.779l77.933-19.529v114.398
			c0.2,10.146-6.975,20.414-17.438,24.899c-3.521,1.521-6.95,2.286-10.188,2.286c-8.117,0-14.43-4.898-16.874-13.111
			c-3.316-10.507,0.368-24.288,13.854-30.216c3.434-1.535,7.183-2.353,10.824-2.353c0.604,0,1.206,0.021,1.803,0.065v-51.82
			l-41.895,11.263v74.777c0.201,10.147-6.97,20.416-17.438,24.898C166.792,193.859,163.363,194.63,160.125,194.63z"/>
	</g>
</g>
<rect x="0.758" y="228.086" fill="none" width="298.482" height="79.496"/>
<g enable-background="new    ">
	<path fill="#FFFFFF" d="M66.081,223.652c0,11.137-6.769,17.042-15.025,17.042c-8.545,0-14.545-6.625-14.545-16.418
		c0-10.272,6.385-16.993,15.025-16.993C60.369,207.283,66.081,214.052,66.081,223.652z M40.975,224.181
		c0,6.912,3.745,13.105,10.321,13.105c6.625,0,10.369-6.097,10.369-13.441c0-6.433-3.36-13.153-10.321-13.153
		C44.431,210.691,40.975,217.076,40.975,224.181z"/>
	<path fill="#FFFFFF" d="M71.359,223.221c0-2.4-0.048-4.368-0.192-6.289h3.744l0.24,3.841h0.096c1.152-2.208,3.84-4.368,7.681-4.368
		c3.216,0,8.209,1.92,8.209,9.889v13.873h-4.225v-13.394c0-3.744-1.392-6.864-5.376-6.864c-2.784,0-4.944,1.968-5.665,4.32
		c-0.192,0.528-0.288,1.248-0.288,1.969v13.969h-4.224V223.221z"/>
	<path fill="#FFFFFF" d="M119.024,228.357c0,8.593-5.953,12.337-11.569,12.337c-6.289,0-11.137-4.608-11.137-11.953
		c0-7.776,5.088-12.337,11.521-12.337C114.511,216.404,119.024,221.252,119.024,228.357z M100.591,228.597
		c0,5.089,2.928,8.929,7.057,8.929c4.032,0,7.057-3.792,7.057-9.024c0-3.937-1.968-8.929-6.961-8.929
		C102.751,219.572,100.591,224.181,100.591,228.597z"/>
	<path fill="#FFFFFF" d="M124.35,223.221c0-2.4-0.048-4.368-0.192-6.289h3.696l0.192,3.745h0.144
		c1.296-2.209,3.456-4.272,7.296-4.272c3.168,0,5.569,1.92,6.577,4.656h0.096c0.72-1.296,1.632-2.305,2.592-3.024
		c1.392-1.056,2.928-1.632,5.136-1.632c3.072,0,7.633,2.016,7.633,10.08v13.682h-4.128v-13.153c0-4.464-1.633-7.152-5.041-7.152
		c-2.4,0-4.272,1.776-4.992,3.84c-0.192,0.576-0.336,1.345-0.336,2.112v14.354h-4.128v-13.921c0-3.696-1.632-6.385-4.849-6.385
		c-2.64,0-4.561,2.112-5.232,4.225c-0.24,0.624-0.336,1.344-0.336,2.063v14.018h-4.128V223.221z"/>
	<path fill="#FFFFFF" d="M177.247,240.166l-0.337-2.929h-0.144c-1.296,1.824-3.792,3.457-7.104,3.457
		c-4.704,0-7.104-3.313-7.104-6.673c0-5.616,4.992-8.688,13.97-8.641v-0.48c0-1.92-0.529-5.376-5.281-5.376
		c-2.16,0-4.416,0.672-6.049,1.728l-0.959-2.784c1.92-1.248,4.703-2.063,7.633-2.063c7.104,0,8.832,4.848,8.832,9.505v8.688
		c0,2.016,0.096,3.984,0.385,5.568H177.247z M176.623,228.309c-4.609-0.096-9.842,0.721-9.842,5.232
		c0,2.736,1.824,4.033,3.984,4.033c3.025,0,4.945-1.921,5.617-3.889c0.145-0.432,0.24-0.912,0.24-1.344V228.309z"/>
	<path fill="#FFFFFF" d="M192.414,210.26v6.672h6.049v3.217h-6.049v12.529c0,2.88,0.816,4.512,3.168,4.512
		c1.104,0,1.92-0.144,2.449-0.288l0.191,3.169c-0.816,0.336-2.112,0.576-3.744,0.576c-1.969,0-3.553-0.624-4.561-1.776
		c-1.2-1.248-1.633-3.313-1.633-6.049v-12.673h-3.6v-3.217h3.6v-5.568L192.414,210.26z"/>
	<path fill="#FFFFFF" d="M223.951,228.357c0,8.593-5.952,12.337-11.568,12.337c-6.289,0-11.137-4.608-11.137-11.953
		c0-7.776,5.088-12.337,11.521-12.337C219.44,216.404,223.951,221.252,223.951,228.357z M205.518,228.597
		c0,5.089,2.929,8.929,7.057,8.929c4.033,0,7.057-3.792,7.057-9.024c0-3.937-1.968-8.929-6.961-8.929
		C207.678,219.572,205.518,224.181,205.518,228.597z"/>
	<path fill="#FFFFFF" d="M239.789,225.621v3.12h-11.856v-3.12H239.789z"/>
	<path fill="#FFFFFF" d="M75.511,269.517c0-2.977-0.096-5.376-0.192-7.585h3.792l0.192,3.984h0.096
		c1.728-2.832,4.464-4.512,8.257-4.512c5.616,0,9.841,4.752,9.841,11.809c0,8.353-5.088,12.481-10.561,12.481
		c-3.072,0-5.76-1.345-7.152-3.648h-0.096v12.625h-4.176V269.517z M79.687,275.709c0,0.624,0.096,1.2,0.192,1.729
		c0.768,2.928,3.313,4.944,6.336,4.944c4.465,0,7.057-3.648,7.057-8.977c0-4.656-2.448-8.641-6.913-8.641
		c-2.88,0-5.568,2.063-6.384,5.232c-0.144,0.527-0.288,1.151-0.288,1.728V275.709z"/>
	<path fill="#FFFFFF" d="M123.848,273.357c0,8.593-5.953,12.337-11.569,12.337c-6.289,0-11.137-4.608-11.137-11.953
		c0-7.776,5.088-12.337,11.521-12.337C119.336,261.404,123.848,266.252,123.848,273.357z M105.415,273.597
		c0,5.089,2.928,8.929,7.057,8.929c4.032,0,7.057-3.792,7.057-9.024c0-3.937-1.968-8.929-6.961-8.929
		C107.575,264.572,105.415,269.181,105.415,273.597z"/>
	<path fill="#FFFFFF" d="M131.526,274.317c0.096,5.712,3.744,8.064,7.969,8.064c3.024,0,4.849-0.528,6.433-1.2l0.72,3.024
		c-1.488,0.672-4.033,1.44-7.729,1.44c-7.152,0-11.425-4.705-11.425-11.714c0-7.008,4.128-12.528,10.897-12.528
		c7.584,0,9.601,6.672,9.601,10.944c0,0.864-0.096,1.536-0.144,1.969H131.526z M143.911,271.293
		c0.048-2.688-1.104-6.865-5.856-6.865c-4.272,0-6.145,3.937-6.481,6.865H143.911z"/>
	<path fill="#FFFFFF" d="M152.646,280.846c1.248,0.816,3.456,1.68,5.568,1.68c3.072,0,4.513-1.536,4.513-3.456
		c0-2.016-1.2-3.12-4.32-4.272c-4.177-1.488-6.145-3.792-6.145-6.576c0-3.744,3.023-6.816,8.017-6.816
		c2.353,0,4.417,0.672,5.712,1.439l-1.056,3.072c-0.912-0.576-2.593-1.344-4.753-1.344c-2.496,0-3.888,1.44-3.888,3.168
		c0,1.921,1.392,2.784,4.417,3.937c4.031,1.536,6.096,3.553,6.096,7.009c0,4.08-3.168,6.961-8.688,6.961
		c-2.544,0-4.896-0.624-6.528-1.585L152.646,280.846z"/>
	<path fill="#FFFFFF" d="M176.934,255.403c0.049,1.44-1.008,2.593-2.688,2.593c-1.488,0-2.545-1.152-2.545-2.593
		c0-1.488,1.104-2.64,2.641-2.64C175.926,252.764,176.934,253.915,176.934,255.403z M172.23,285.166v-23.234h4.224v23.234H172.23z"
		/>
	<path fill="#FFFFFF" d="M185.813,274.317c0.097,5.712,3.744,8.064,7.969,8.064c3.025,0,4.85-0.528,6.434-1.2l0.72,3.024
		c-1.488,0.672-4.032,1.44-7.729,1.44c-7.152,0-11.424-4.705-11.424-11.714c0-7.008,4.128-12.528,10.896-12.528
		c7.584,0,9.601,6.672,9.601,10.944c0,0.864-0.096,1.536-0.144,1.969H185.813z M198.198,271.293
		c0.048-2.688-1.104-6.865-5.856-6.865c-4.272,0-6.145,3.937-6.48,6.865H198.198z"/>
</g>
</svg>
