<svg xmlns="http://www.w3.org/2000/svg" xmlns:xlink="http://www.w3.org/1999/xlink" width="300" height="300" viewBox="0 0 300 300"><switch><g><symbol id="a" viewBox="-150 -150 300 300.015"><path fill="#AEBCC4" d="M150-97.015c0-6.763 0-52.985-71.5-52.985H-84c-62.5 0-66 47.223-66 53.985v186c0 54.5 59.235 60 66 60l161.5.029c6.765 0 72.5-.029 72.5-60.029v-187z"/></symbol><use xlink:href="#a" width="300" height="300.015" x="-150" y="-150" transform="matrix(1 0 0 -1 150 150)" overflow="visible"/><g fill="#080828"><path d="M35.571 239.58l-7.92-32.354h6.289l3.072 14.688a291.235 291.235 0 0 1 2.112 11.281h.096c.528-3.408 1.44-7.248 2.352-11.329l3.504-14.641h6.192l3.216 14.881c.816 3.841 1.488 7.44 1.968 10.945h.096c.576-3.553 1.344-7.249 2.208-11.186l3.36-14.641h6l-8.688 32.354h-6.337l-3.36-15.218c-.816-3.696-1.392-6.769-1.776-10.272h-.095c-.576 3.456-1.2 6.576-2.16 10.272l-3.744 15.218h-6.385zM74.163 229.547c.144 4.225 3.456 6.049 7.201 6.049 2.736 0 4.704-.384 6.48-1.056l.864 4.08c-2.017.816-4.801 1.44-8.161 1.44-7.584 0-12.049-4.657-12.049-11.81 0-6.48 3.937-12.577 11.425-12.577 7.585 0 10.081 6.24 10.081 11.377 0 1.104-.096 1.969-.192 2.496H74.163zm10.273-4.128c.048-2.16-.912-5.713-4.849-5.713-3.648 0-5.185 3.313-5.424 5.713h10.273zM101.042 209.674c0 1.775-1.296 3.168-3.36 3.168-1.968 0-3.265-1.393-3.265-3.168 0-1.824 1.344-3.217 3.313-3.217 2.016 0 3.264 1.393 3.312 3.217zm-6.288 29.906v-23.378h5.952v23.378h-5.952zM113.811 209.529v6.673h5.616v4.416h-5.616v10.321c0 2.832.768 4.32 3.024 4.32a8.765 8.765 0 0 0 2.304-.288l.096 4.513c-.864.336-2.4.576-4.272.576-2.16 0-3.984-.721-5.088-1.921-1.248-1.344-1.824-3.456-1.824-6.528v-10.993h-3.36v-4.416h3.36v-5.28l5.76-1.393zM127.777 216.202l2.448 10.608c.528 2.497 1.056 5.041 1.488 7.585h.096c.48-2.544 1.248-5.137 1.92-7.536l3.024-10.657h4.8l2.928 10.369c.72 2.736 1.344 5.28 1.873 7.824h.096c.384-2.544.912-5.088 1.536-7.824l2.592-10.369h5.809l-7.345 23.378h-5.472l-2.785-9.505c-.72-2.448-1.248-4.656-1.776-7.488h-.096c-.48 2.88-1.104 5.185-1.776 7.488l-2.977 9.505h-5.521l-6.913-23.378h6.051zM166.465 209.674c0 1.775-1.296 3.168-3.359 3.168-1.969 0-3.266-1.393-3.266-3.168 0-1.824 1.345-3.217 3.313-3.217 2.016 0 3.264 1.393 3.312 3.217zm-6.288 29.906v-23.378h5.952v23.378h-5.952zM172.464 223.163c0-2.688-.048-4.945-.191-6.961h5.185l.287 3.504h.145c1.008-1.824 3.553-4.032 7.44-4.032 4.08 0 8.305 2.641 8.305 10.033v13.873h-5.904v-13.201c0-3.36-1.248-5.904-4.465-5.904-2.352 0-3.983 1.68-4.608 3.456-.191.528-.239 1.248-.239 1.92v13.729h-5.953v-16.417zM205.825 226.475h.096c.576-.912 1.248-1.92 1.872-2.736l5.664-7.536h7.105l-8.642 9.553 9.89 13.825h-7.249l-6.721-10.321-2.016 2.353v7.969h-5.905v-34.083h5.905v20.976zM228.192 229.547c.144 4.225 3.456 6.049 7.2 6.049 2.736 0 4.705-.384 6.48-1.056l.864 4.08c-2.016.816-4.8 1.44-8.16 1.44-7.585 0-12.05-4.657-12.05-11.81 0-6.48 3.937-12.577 11.426-12.577 7.584 0 10.08 6.24 10.08 11.377 0 1.104-.096 1.969-.191 2.496h-15.649zm10.273-4.128c.049-2.16-.912-5.713-4.848-5.713-3.648 0-5.185 3.313-5.425 5.713h10.273zM248.783 205.497h5.953v34.083h-5.953v-34.083zM271.633 224.747v4.08h-12.241v-4.08h12.241zM89.979 275.675c0 8.593-6.048 12.434-12.001 12.434-6.625 0-11.713-4.561-11.713-12.05 0-7.68 5.041-12.385 12.097-12.385 6.961 0 11.617 4.896 11.617 12.001zm-17.617.24c0 4.513 2.208 7.921 5.808 7.921 3.36 0 5.713-3.313 5.713-8.017 0-3.648-1.632-7.825-5.665-7.825-4.176 0-5.856 4.032-5.856 7.921zM94.633 287.58c.096-1.584.192-4.177.192-6.576v-27.507h5.904v13.921h.096c1.44-2.256 3.984-3.744 7.488-3.744 5.713 0 9.793 4.753 9.745 11.857 0 8.4-5.329 12.577-10.609 12.577-3.024 0-5.712-1.152-7.393-4.032h-.096l-.288 3.504h-5.039zm6.097-9.648c0 .479.048.96.144 1.392.624 2.353 2.688 4.129 5.232 4.129 3.696 0 5.953-2.977 5.953-7.681 0-4.129-1.968-7.489-5.905-7.489-2.4 0-4.56 1.729-5.232 4.32-.096.433-.192.96-.192 1.536v3.793zM117.721 293.005c1.92-.145 3.456-.673 4.417-1.681 1.104-1.2 1.536-3.024 1.536-8.112v-19.01h5.904v20.689c0 4.849-.912 7.873-3.024 9.985-2.064 1.92-5.328 2.736-8.256 2.736l-.577-4.607zm12.193-35.331c0 1.728-1.248 3.168-3.36 3.168-1.968 0-3.216-1.44-3.216-3.168 0-1.824 1.296-3.217 3.313-3.217s3.263 1.393 3.263 3.217zM140.041 277.547c.144 4.225 3.456 6.049 7.201 6.049 2.736 0 4.704-.384 6.481-1.056l.863 4.08c-2.016.816-4.8 1.44-8.161 1.44-7.584 0-12.049-4.657-12.049-11.81 0-6.48 3.937-12.577 11.425-12.577 7.585 0 10.082 6.24 10.082 11.377 0 1.104-.097 1.969-.192 2.496h-15.65zm10.273-4.128c.048-2.16-.912-5.713-4.849-5.713-3.648 0-5.185 3.313-5.424 5.713h10.273zM166.537 274.475h.096c.576-.912 1.248-1.92 1.872-2.736l5.664-7.536h7.104l-8.641 9.553 9.89 13.825h-7.249l-6.721-10.321-2.016 2.353v7.969h-5.904v-34.083h5.904v20.976zM191.832 257.529v6.673h5.617v4.416h-5.617v10.321c0 2.832.769 4.32 3.024 4.32a8.78 8.78 0 0 0 2.305-.288l.096 4.513c-.864.336-2.4.576-4.272.576-2.16 0-3.984-.721-5.088-1.921-1.249-1.344-1.824-3.456-1.824-6.528v-10.993h-3.36v-4.416h3.36v-5.28l5.759-1.393zM208.2 257.674c0 1.775-1.296 3.168-3.36 3.168-1.969 0-3.265-1.393-3.265-3.168 0-1.824 1.345-3.217 3.313-3.217 2.016 0 3.264 1.393 3.312 3.217zm-6.289 29.906v-23.378h5.953v23.378h-5.953zM217.943 264.202l3.793 11.856c.672 2.064 1.152 3.937 1.584 5.857h.144c.433-1.921.961-3.745 1.585-5.857l3.696-11.856h6.24l-8.929 23.378h-5.809l-8.688-23.378h6.384z"/></g><path fill="#FFF" d="M109.961 148.042a2752.022 2752.022 0 0 0-13.937-11.84v-19.183c-3.318.013-6.635.027-9.952.042v10.806a1269.647 1269.647 0 0 0-14.513-11.896c-12.787 10.497-25.557 20.55-38.304 29.815a1211.81 1211.81 0 0 1 6.015 8.299 622.444 622.444 0 0 0 4.124-3.008v37.188a971.68 971.68 0 0 0 56.387 4.534v-39.73c1.379 1.182 2.758 2.365 4.137 3.551 2.015-2.846 4.029-5.706 6.043-8.578zm-15.71 38.437c-4.25-.222-8.499-.468-12.746-.74v-22.617c-6.631-.273-13.258-.588-19.88-.942v22.098c-4.242-.353-8.481-.729-12.719-1.133v-35.442c7.545-5.665 15.098-11.574 22.656-17.656 7.558 6.224 15.122 12.6 22.689 19.058v37.374zM188.323 148.052a2091.44 2091.44 0 0 1-13.943-11.618v-19.496c-3.32-.006-6.642-.011-9.963-.014v11.107c-4.848-4.102-9.695-8.219-14.543-12.333-12.819 10.878-25.638 21.781-38.449 32.364 2.014 2.935 4.029 5.876 6.044 8.822 1.38-1.141 2.761-2.285 4.142-3.434v40.222c18.839.54 37.691.533 56.53-.022v-40.207c1.38 1.146 2.76 2.29 4.14 3.43a5377.22 5377.22 0 0 1 6.042-8.821zm-15.718 39.613c-4.255.092-8.51.159-12.765.2v-23.371c-6.644.042-13.287.043-19.93.005v23.373c-4.255-.038-8.51-.102-12.765-.191V149.61c7.576-6.342 15.153-12.765 22.73-19.198 7.577 6.432 15.154 12.853 22.729 19.191l.001 38.062zM266.013 146.136a662.846 662.846 0 0 1-13.88-10.361v-18.107c-3.308-.023-6.616-.044-9.927-.065v10.441c-4.83-3.82-9.663-7.723-14.498-11.689-12.787 10.319-25.589 21.125-38.399 32.076a2450.37 2450.37 0 0 0 6.042 8.577c1.38-1.187 2.761-2.371 4.14-3.554v39.724a967.417 967.417 0 0 0 56.387-4.575v-37.169c1.374 1.01 2.747 2.01 4.121 3.001 2.004-2.792 4.009-5.56 6.014-8.299zm-15.649 37.353c-4.237.406-8.477.787-12.718 1.143v-22.09c-6.622.358-13.249.677-19.88.955v22.61c-4.247.275-8.496.524-12.746.748v-37.367c7.567-6.459 15.131-12.837 22.689-19.063 7.558 6.076 15.109 11.979 22.654 17.636l.001 35.428z"/><path fill="none" stroke="#FFF" stroke-width="4" stroke-miterlimit="10" d="M30.996 57.878A983.021 983.021 0 0 1 269 58"/><path fill="none" stroke="#FFF" stroke-width="2" stroke-miterlimit="10" d="M31.992 187.246A968.014 968.014 0 0 0 269 187"/><path fill="none" stroke="#FFF" stroke-width="3" stroke-miterlimit="10" d="M31.494 55.813v132.375M267.506 55.813v131.372"/></g></switch></svg>