<svg xmlns="http://www.w3.org/2000/svg" xmlns:xlink="http://www.w3.org/1999/xlink" width="300" height="300" viewBox="0 0 300 300"><switch><g><symbol id="a" viewBox="-150 -150 300 300.015"><path fill="#AEBCC4" d="M150-97.015c0-6.763 0-52.985-71.5-52.985H-84c-62.5 0-66 47.223-66 53.985v186c0 54.5 59.235 60 66 60l161.5.029c6.765 0 72.5-.029 72.5-60.029v-187z"/></symbol><use xlink:href="#a" width="300" height="300.015" x="-150" y="-150" transform="matrix(1 0 0 -1 150 150)" overflow="visible"/><g fill="#080828"><path d="M71.398 206.226h5.856v14.881h.144c.768-1.248 1.584-2.4 2.353-3.504l8.449-11.377h7.296l-11.137 13.777 11.857 18.577h-6.913l-9.169-14.833-2.88 3.456v11.377h-5.856v-32.354zM105.621 208.674c0 1.775-1.296 3.168-3.36 3.168-1.968 0-3.265-1.393-3.265-3.168 0-1.824 1.344-3.217 3.313-3.217 2.016 0 3.264 1.393 3.312 3.217zm-6.288 29.906v-23.378h5.952v23.378h-5.952zM111.621 222.979c0-3.072-.096-5.568-.192-7.776h5.185l.288 3.601h.096c1.728-2.641 4.464-4.129 8.017-4.129 5.376 0 9.841 4.608 9.841 11.905 0 8.448-5.329 12.529-10.657 12.529-2.928 0-5.376-1.248-6.576-3.12h-.096v12.097h-5.904v-25.107zm5.904 5.808c0 .576.048 1.104.192 1.632.576 2.4 2.688 4.129 5.185 4.129 3.744 0 5.953-3.12 5.953-7.729 0-4.129-2.016-7.489-5.809-7.489-2.448 0-4.705 1.776-5.28 4.369a5.346 5.346 0 0 0-.24 1.487v3.601zM139.701 222.979c0-3.072-.096-5.568-.192-7.776h5.185l.288 3.601h.096c1.728-2.641 4.464-4.129 8.017-4.129 5.377 0 9.841 4.608 9.841 11.905 0 8.448-5.329 12.529-10.657 12.529-2.928 0-5.376-1.248-6.576-3.12h-.096v12.097h-5.904v-25.107zm5.904 5.808c0 .576.048 1.104.192 1.632.576 2.4 2.688 4.129 5.185 4.129 3.744 0 5.952-3.12 5.952-7.729 0-4.129-2.016-7.489-5.809-7.489-2.448 0-4.704 1.776-5.28 4.369a5.346 5.346 0 0 0-.24 1.487v3.601zM171.956 228.547c.144 4.225 3.456 6.049 7.2 6.049 2.736 0 4.705-.384 6.48-1.056l.864 4.08c-2.017.816-4.8 1.44-8.161 1.44-7.584 0-12.049-4.657-12.049-11.81 0-6.48 3.938-12.577 11.426-12.577 7.584 0 10.08 6.24 10.08 11.377 0 1.104-.096 1.969-.191 2.496h-15.649zm10.273-4.128c.049-2.16-.912-5.713-4.848-5.713-3.648 0-5.186 3.313-5.425 5.713h10.273zM192.547 222.163c0-2.688-.048-4.945-.191-6.961h5.184l.289 3.504h.144c1.008-1.824 3.552-4.032 7.44-4.032 4.08 0 8.305 2.641 8.305 10.033v13.873h-5.904v-13.201c0-3.36-1.248-5.904-4.465-5.904-2.352 0-3.984 1.68-4.607 3.456-.192.528-.24 1.248-.24 1.92v13.729h-5.953v-16.417zM217.219 240.5l11.713-34.803h4.129L221.348 240.5h-4.129zM79.293 286.58v-32.354h6.721l8.353 13.873a89.064 89.064 0 0 1 5.521 10.849h.096c-.384-4.32-.528-8.496-.528-13.441v-11.28h5.473v32.354h-6.097l-8.449-14.209c-2.064-3.553-4.224-7.537-5.808-11.186l-.144.049c.24 4.176.288 8.448.288 13.776v11.569h-5.426zM115.677 276.547c.144 4.225 3.456 6.049 7.201 6.049 2.736 0 4.704-.384 6.48-1.056l.864 4.08c-2.017.816-4.801 1.44-8.161 1.44-7.584 0-12.049-4.657-12.049-11.81 0-6.48 3.937-12.577 11.425-12.577 7.585 0 10.081 6.24 10.081 11.377 0 1.104-.096 1.969-.192 2.496h-15.649zm10.273-4.128c.048-2.16-.912-5.713-4.849-5.713-3.648 0-5.185 3.313-5.424 5.713h10.273zM142.557 256.674c0 1.775-1.296 3.168-3.36 3.168-1.968 0-3.265-1.393-3.265-3.168 0-1.824 1.344-3.217 3.313-3.217 2.016 0 3.264 1.393 3.312 3.217zm-6.288 29.906v-23.378h5.952v23.378h-5.952zM169.918 263.202c-.096 1.584-.192 3.504-.192 6.721v13.249c0 4.896-1.008 8.4-3.456 10.608-2.448 2.16-5.809 2.833-9.025 2.833-2.976 0-6.145-.624-8.16-1.872l1.296-4.465c1.488.864 3.984 1.776 6.817 1.776 3.84 0 6.721-2.017 6.721-7.057v-2.017h-.097c-1.345 2.064-3.744 3.457-6.816 3.457-5.809 0-9.937-4.801-9.937-11.426 0-7.681 4.993-12.337 10.609-12.337 3.552 0 5.665 1.729 6.769 3.648h.096l.24-3.12h5.135zm-6.097 9.361c0-.527-.048-1.104-.192-1.584-.623-2.16-2.304-3.792-4.8-3.792-3.313 0-5.761 2.88-5.761 7.633 0 3.984 2.016 7.2 5.713 7.2 2.208 0 4.128-1.44 4.8-3.552.144-.624.24-1.44.24-2.112v-3.793zM180.236 276.547c.145 4.225 3.456 6.049 7.201 6.049 2.735 0 4.703-.384 6.48-1.056l.863 4.08c-2.016.816-4.801 1.44-8.16 1.44-7.585 0-12.049-4.657-12.049-11.81 0-6.48 3.936-12.577 11.424-12.577 7.586 0 10.082 6.24 10.082 11.377 0 1.104-.097 1.969-.192 2.496h-15.649zm10.274-4.128c.047-2.16-.912-5.713-4.85-5.713-3.648 0-5.184 3.313-5.424 5.713h10.274zM200.828 270.163c0-2.688-.049-4.945-.193-6.961h5.186l.287 3.504h.145c1.008-1.824 3.553-4.032 7.44-4.032 4.081 0 8.305 2.641 8.305 10.033v13.873h-5.904v-13.201c0-3.36-1.248-5.904-4.464-5.904-2.353 0-3.984 1.68-4.609 3.456-.191.528-.24 1.248-.24 1.92v13.729h-5.951v-16.417z"/></g><linearGradient id="b" gradientUnits="userSpaceOnUse" x1="167.245" y1="51" x2="167.245" y2="199.5"><stop offset="0" stop-color="#fff"/><stop offset="1" stop-color="#fff" stop-opacity="0"/></linearGradient><path fill="url(#b)" d="M224.03 127.277L149 51s-40 22-38.5 82.5c0 0 7 45 37.5 66l76.03-72.223z"/><path fill="#080828" d="M151.208 149.608l.23-48.027s12.904 4.946 18.214 11.975l6.834.006 13.87-12.328s3.041-4.743 15.158-3.593l57.359.048s13.837-.125 15.551 16.882l-.023 27.382s-3.18 12.501-16.151 13.823l-56.495-.048s-11.24.088-14.985-3.951l-14.4-13.159-6.919-.005c-.001 0-3.812 7.021-18.243 10.995z"/><circle fill="#C1272D" cx="224.031" cy="125.277" r="12.244"/><path fill="none" d="M39 19h230"/><path fill="#FFF" d="M98.166 80.008c-.005.174-.169.502-.361.527a44.607 44.607 0 0 0-20.654 8.575c-.164.12-.309.046-.326-.164a1684.972 1684.972 0 0 1-1.41-23.942c-.013-.206.118-.621.312-.685 2.826 1.918 5.59 3.735 8.312 5.546 9.985-12.938 21.899-20.626 34.462-29.426-2.778-2.593-5.644-5.043-8.579-7.445.012-.174.425-.313.654-.313 8.685-.067 17.373-.13 26.071-.214.228.001.385.169.351.374a2336.331 2336.331 0 0 0-4.101 23.102c-.031.201-.411.273-.612.225a87.141 87.141 0 0 0-6.854-8.682c-12.427 8.399-24.195 15.307-34.482 27.083 2.441 1.723 4.849 3.511 7.217 5.439z"/></g></switch></svg>