<?xml version="1.0" encoding="utf-8"?>
<!-- Generator: Adobe Illustrator 22.0.1, SVG Export Plug-In . SVG Version: 6.00 Build 0)  -->
<svg version="1.1" id="Ebene_1" xmlns="http://www.w3.org/2000/svg" xmlns:xlink="http://www.w3.org/1999/xlink" x="0px" y="0px"
	 viewBox="0 0 300.9 300.5" style="enable-background:new 0 0 300.9 300.5;" xml:space="preserve">
<style type="text/css">
	.st0{fill:#EACD99;}
	.st1{fill:none;stroke:#FFFFFF;stroke-width:4.3001;stroke-miterlimit:10;}
	.st2{fill:none;stroke:#FFFFFF;stroke-width:3.407;stroke-miterlimit:10;}
	.st3{fill:none;stroke:#C1272D;stroke-width:2.5542;stroke-miterlimit:10;}
	.st4{display:none;fill:none;stroke:#FFFFFF;stroke-width:2.5542;stroke-miterlimit:10;}
	.st5{fill:#3A3326;}
	.st6{enable-background:new    ;}
</style>
<path class="st0" d="M238,300.5H62.2c-34.3,0-62.4-28.1-62.4-62.4V62.4C-0.2,28.1,27.9,0,62.2,0H238c34.3,0,62.4,28.1,62.4,62.4
	v175.8C300.4,272.5,272.3,300.5,238,300.5z"/>
<ellipse transform="matrix(0.9267 -0.3758 0.3758 0.9267 -42.8247 67.0312)" class="st1" cx="150.4" cy="143.3" rx="111.8" ry="79.6"/>
<ellipse transform="matrix(0.9267 -0.3758 0.3758 0.9267 -43.1761 67.0591)" class="st2" cx="150.3" cy="144.2" rx="88.6" ry="63"/>
<ellipse transform="matrix(0.9267 -0.3758 0.3758 0.9267 -43.2087 67.0547)" class="st3" cx="150.3" cy="144.3" rx="66.4" ry="47.3"/>
<ellipse transform="matrix(0.9267 -0.3758 0.3758 0.9267 -43.2087 67.0547)" class="st4" cx="150.3" cy="144.3" rx="66.4" ry="47.3"/>
<path class="st5" d="M171.4,68.2c0.4-1.3,0.9-1.1,0.5-2.5c-0.4-1.3-1.2-2.1-2.1-6.4c-0.9-4.3-1.5-11.6-2.1-12.7
	c-0.6-1.1-1.5-3.2-3.4-3.4c-1.9-0.1-4.5-0.6-4.8-1c-0.4-0.5-0.3-1.1-1-1.2c-0.7,0-1.4,0.4-2.1-0.5c-0.7-0.9-1.2-4.4-1.2-5.3
	c0-0.9,0.9-2.3,1.2-3.6c0.3-1.3,0.5-5.1,0.5-5.1s0.6-0.7,0.7-1.5c0-0.8-2.8-4.8-5.4-5.6c-2.6-0.8-7.1-0.3-8.5,0.6s-2.9,3.4-2.9,3.4
	s-1.3,0-1.4,0.3c-0.1,0.3-1.3,0-1,0.5c0.4,0.5,0.8,0,1.4,0.5c0.6,0.5,1.3,1.3,1.9,2.9c0.6,1.6,0.1,2.6,0.5,3.8c0.4,1.2,1,1.2,1,1.2
	s0.9,1.7,1.5,2.8s2.1,2.4,2.5,2.4s-0.2,2.3-0.2,2.3s-10.5,3.8-10.9,4.9c-0.4,1.1-3.1,18-3.1,19.3c0,1.3-0.7,5.6,0.2,10.4
	c0.9,4.7,5.3,9.5,5.3,9.5s-0.4,5.3-0.7,7.3c-0.4,2-0.2,16.9-0.2,18.7s-0.5,3.8-0.2,5.3c0.4,1.5,0.9,1.5,0.5,3.6
	c-0.4,2.2-1.3,6.9-1.1,9.3s0.4,7.1,0.4,7.1h-1.1l0.2,4.7c0,0,0.1,0.6,0.9,1c0.7,0.5,1.5,0.4,1.5,0.4s0.3,1.3,0.1,1.7
	s-0.5,1.4-0.6,1.6c-0.1,0.2-1.2,2.7-1.7,3.6c-0.5,0.9-2.6,5.5-2.7,6.2c-0.1,0.8-0.7,0.7-0.7,0.7v3.3c0,0,0.7,1.8,3.8,1.6
	s4.9-3.7,4.9-3.7v-3.3c0,0,2.9-2.5,2.9-3s0-3.2-0.2-3.6c-0.1-0.4-0.4-0.2-0.4-0.9s0-1.8-0.3-2.4c-0.3-0.6-0.8-1.1-0.9-1.3
	c-0.1-0.1,0.1-1.1,0.1-1.1s2.4-0.4,2.5-1.5s-0.9-2.5-0.9-2.5s1-8,1-9.4s0-2.8,0-2.8s1.5-5.5,2.7-9.5c1.1-4,3.3-9.5,3.3-12.6
	c0-3-0.3-7.6,0.2-7.7s1,4.2,1.5,5.9c0.5,1.7,1.5,5.4,1.7,7.3c0.1,1.9,1,5.7,1.4,7.6s0.4,4.4,1,6.1c0.6,1.8,1.4,3.8,1.5,4.6
	c0.1,0.8,0.2,7.6,0.6,8.8c0.4,1.2,0,3.4,0.5,3.8c0.5,0.5-0.3,1.7,0.2,2.4s0.7,1.3,0.7,1.3s-0.9-0.1-1,0.5s-0.1,3.4-0.1,3.4l-0.5,0.1
	l0.1,3.8l2.6,2.3l0.1,3.5c0,0,2,3.7,5.5,3.6c3.5-0.1,2.7-5.7,2.7-5.7l-3.6-7.1c0,0,0.4-0.9-0.2-1.7s-1.8-1-1.8-1s1.4-0.7,1.1-1.4
	s-1.4-1-1.4-1s2.6-0.8,2.9-2.9c0.3-2.1-0.1-2.3-0.1-2.3s-0.5-11.3-0.3-12.7c0.1-1.4,0.3-1.3,0.3-2.7c0-1.4-0.2-2.8-0.2-5.2
	c0-2.4,1.3-20.8,0.8-23.2c-0.5-2.5-1-4.2-1-5.2s-1-4-1-4.6c-0.1-0.6-0.4-1,0.4-1.3s2.7,0.2,2.9-0.4c0.1-0.6-0.2-2.4-0.2-2.4
	s0.7-1.8,1.2-2.7C170.6,75.7,171,69.5,171.4,68.2z M139.8,65.6c-0.4,1-0.2,3.6-0.2,5s0.2,2.3,0.1,2.6c-0.1,0.4-0.1,1.3-0.3,2
	s-0.8,1.4-0.8,1.4s0.5-11.6,0.5-13.1s1-1.9,1-1.9s0.5,0.8,0.7,1.7C140.9,64.3,140.2,64.6,139.8,65.6z M164.7,77.1c0,0-0.3-2-0.2-3.1
	c0.1-1-1.6-3.1-1.6-3.1s0.7-1,0.9-2.3c0.1-1.3-1-1.4-1.1-1.7c-0.1-0.4,0.1-4.5,0.2-4.7c0,0,1,0.8,1.8,2.2s0.4,1.7,0.5,3.3
	c0.1,1.5-0.1,1.4,0,2.6c0.2,1.2,0.4,2.6,0.4,4.3C165.5,76.2,164.7,77.1,164.7,77.1z"/>
<g class="st6">
	<path class="st5" d="M45.6,241.1v13h13.7v-13h5.9v32.4h-5.9v-14.3H45.6v14.3h-5.9v-32.4H45.6z"/>
	<path class="st5" d="M84.9,273.5l-0.4-2.6h-0.1c-1.4,1.8-3.9,3.1-6.9,3.1c-4.7,0-7.3-3.4-7.3-7c0-5.9,5.2-8.9,13.9-8.8v-0.4
		c0-1.5-0.6-4.1-4.8-4.1c-2.3,0-4.7,0.7-6.3,1.7l-1.2-3.8c1.7-1.1,4.8-2.1,8.4-2.1c7.5,0,9.6,4.8,9.6,9.8v8.4c0,2.1,0.1,4.2,0.3,5.6
		H84.9z M84.1,262.1c-4.2-0.1-8.2,0.8-8.2,4.4c0,2.3,1.5,3.4,3.4,3.4c2.4,0,4.1-1.5,4.6-3.2c0.1-0.4,0.2-0.9,0.2-1.3V262.1z"/>
	<path class="st5" d="M117,266.5c0,2.8,0.1,5.1,0.2,7H112l-0.3-3.6h-0.1c-1,1.7-3.3,4.1-7.5,4.1c-4.3,0-8.2-2.5-8.2-10.2v-13.7h5.9
		v12.7c0,3.9,1.2,6.4,4.4,6.4c2.4,0,3.9-1.7,4.5-3.2c0.2-0.5,0.3-1.2,0.3-1.8v-14.1h5.9V266.5z"/>
	<path class="st5" d="M123.4,257.9c0-3.1-0.1-5.6-0.2-7.8h5.2l0.3,3.6h0.1c1.7-2.6,4.5-4.1,8-4.1c5.4,0,9.8,4.6,9.8,11.9
		c0,8.4-5.3,12.5-10.7,12.5c-2.9,0-5.4-1.2-6.6-3.1h-0.1V283h-5.9V257.9z M129.3,263.7c0,0.6,0,1.1,0.2,1.6c0.6,2.4,2.7,4.1,5.2,4.1
		c3.7,0,6-3.1,6-7.7c0-4.1-2-7.5-5.8-7.5c-2.4,0-4.7,1.8-5.3,4.4c-0.1,0.5-0.2,1-0.2,1.5V263.7z"/>
	<path class="st5" d="M158.3,243.4v6.7h5.6v4.4h-5.6v10.3c0,2.8,0.8,4.3,3,4.3c1,0,1.8-0.1,2.3-0.3l0.1,4.5
		c-0.9,0.3-2.4,0.6-4.3,0.6c-2.2,0-4-0.7-5.1-1.9c-1.2-1.3-1.8-3.5-1.8-6.5v-11h-3.4v-4.4h3.4v-5.3L158.3,243.4z"/>
	<path class="st5" d="M169,273.5v-19h-3.2v-4.4h3.2V249c0-6.3,4.4-10.1,11.3-10.1c2.3,0,5.1,0.6,6.4,1.5l-1.3,4.5
		c-1.1-0.6-2.9-1.2-5.1-1.2c-4.1,0-5.5,2.5-5.5,5.6v1h14v23.4h-6v-19h-8v19H169z"/>
	<path class="st5" d="M216.5,250.1c-0.1,1.6-0.2,3.5-0.2,6.7v13.2c0,4.9-1,8.4-3.5,10.6c-2.4,2.2-5.8,2.8-9,2.8
		c-3,0-6.1-0.6-8.2-1.9l1.3-4.5c1.5,0.9,4,1.8,6.8,1.8c3.8,0,6.7-2,6.7-7.1v-2h-0.1c-1.3,2.1-3.7,3.5-6.8,3.5
		c-5.8,0-9.9-4.8-9.9-11.4c0-7.7,5-12.3,10.6-12.3c3.6,0,5.7,1.7,6.8,3.6h0.1l0.2-3.1H216.5z M210.4,259.5c0-0.5,0-1.1-0.2-1.6
		c-0.6-2.2-2.3-3.8-4.8-3.8c-3.3,0-5.8,2.9-5.8,7.6c0,4,2,7.2,5.7,7.2c2.2,0,4.1-1.4,4.8-3.6c0.1-0.6,0.2-1.4,0.2-2.1V259.5z"/>
	<path class="st5" d="M243.6,266.5c0,2.8,0.1,5.1,0.2,7h-5.2l-0.3-3.6h-0.1c-1,1.7-3.3,4.1-7.5,4.1c-4.3,0-8.2-2.5-8.2-10.2v-13.7
		h5.9v12.7c0,3.9,1.2,6.4,4.4,6.4c2.4,0,3.9-1.7,4.5-3.2c0.2-0.5,0.3-1.2,0.3-1.8v-14.1h5.9V266.5z"/>
	<path class="st5" d="M250,257.7c0-3.2,0-5.4-0.2-7.5h5.1l0.2,4.5h0.2c1.2-3.3,3.9-5,6.4-5c0.6,0,0.9,0,1.4,0.1v5.6
		c-0.5-0.1-1-0.2-1.7-0.2c-2.8,0-4.8,1.8-5.3,4.5c-0.1,0.5-0.2,1.2-0.2,1.8v12.1H250V257.7z"/>
</g>
</svg>
