<?xml version="1.0" encoding="UTF-8" standalone="no"?>
<svg
   xmlns:dc="http://purl.org/dc/elements/1.1/"
   xmlns:cc="http://creativecommons.org/ns#"
   xmlns:rdf="http://www.w3.org/1999/02/22-rdf-syntax-ns#"
   xmlns:svg="http://www.w3.org/2000/svg"
   xmlns="http://www.w3.org/2000/svg"
   viewBox="0 0 375 375"
   height="375"
   width="375"
   xml:space="preserve"
   version="1.1"
   id="svg2"><metadata
     id="metadata8"><rdf:RDF><cc:Work
         rdf:about=""><dc:format>image/svg+xml</dc:format><dc:type
           rdf:resource="http://purl.org/dc/dcmitype/StillImage" /></cc:Work></rdf:RDF></metadata><defs
     id="defs6" /><g
     transform="matrix(1.25,0,0,-1.25,0,375)"
     id="g10"><g
       transform="scale(0.1,0.1)"
       id="g12"><path
         id="path14"
         style="fill:#aebcc4;fill-opacity:1;fill-rule:nonzero;stroke:none"
         d="m 3000,529.855 c 0,-67.632 0,-529.85109375 -715,-529.85109375 l -1625,0 C 35,0.00390625 0,472.223 0,539.855 L 0,2399.86 c 0,545 592.352,600 660,600 l 1615,0.28 c 67.65,0 725,-0.28 725,-600.28" /><path
         id="path16"
         style="fill:#080828;fill-opacity:1;fill-rule:nonzero;stroke:none"
         d="m 525.172,439 0,233.703 -59.5,0 0,-233.703 59.5,0 z m -29.75,331.109 c -19.672,0 -33.109,-13.906 -33.109,-32.14 0,-17.766 12.953,-31.672 32.625,-31.672 20.64,0 33.593,13.906 33.593,31.672 -0.468,18.234 -12.953,32.14 -33.109,32.14" /><path
         id="path18"
         style="fill:#080828;fill-opacity:1;fill-rule:nonzero;stroke:none"
         d="m 588.672,439 57.578,0 0,138.203 c 0,6.719 0.969,13.438 3.359,19.203 5.282,16.313 20.157,33.578 42.235,33.578 27.359,0 40.312,-23.031 40.312,-55.656 l 0,-135.328 57.578,0 0,140.125 c 0,6.719 1.438,13.922 2.891,19.672 6.234,16.797 21.109,31.187 41.266,31.187 28.312,0 41.75,-23.031 41.75,-61.89 l 0,-129.094 57.578,0 0,137.719 c 0,74.859 -39.344,101.265 -78.219,101.265 -19.187,0 -34.062,-4.812 -47.031,-13.921 -11.031,-6.719 -20.625,-16.313 -28.781,-29.282 l -0.969,0 c -10.078,25.922 -34.063,43.203 -64.781,43.203 -39.344,0 -60.469,-21.593 -71.985,-39.843 l -1.437,0 -2.391,34.562 -50.875,0 c 1.438,-20.156 1.922,-42.719 1.922,-69.594 l 0,-164.109" /><path
         id="path20"
         style="fill:#080828;fill-opacity:1;fill-rule:nonzero;stroke:none"
         d="m 1044.14,439 2.88,35.031 0.96,0 c 16.8,-28.797 43.66,-40.312 73.9,-40.312 52.79,0 106.06,41.75 106.06,125.734 0.47,71.016 -40.31,118.531 -97.42,118.531 -35.04,0 -60.47,-14.89 -74.86,-37.437 l -0.96,0 0,139.172 -59.028,0 0,-274.969 c 0,-24 -0.953,-49.922 -1.922,-65.75 l 50.39,0 z m 10.56,134.359 c 0,5.766 0.96,11.047 1.91,15.36 6.72,25.922 28.31,43.187 52.31,43.187 39.35,0 59.03,-33.593 59.03,-74.859 0,-47.031 -22.56,-76.781 -59.51,-76.781 -25.42,0 -46.06,17.765 -52.3,41.265 -0.97,4.328 -1.44,9.125 -1.44,13.922 l 0,37.906" /><path
         id="path22"
         style="fill:#080828;fill-opacity:1;fill-rule:nonzero;stroke:none"
         d="m 1461.42,439 c -2.39,14.391 -3.36,35.031 -3.36,56.141 l 0,84.468 c 0,50.86 -21.59,98.375 -96.45,98.375 -36.95,0 -67.19,-10.078 -84.45,-20.64 l 11.51,-38.391 c 15.83,10.078 39.83,17.281 62.86,17.281 41.27,0 47.52,-25.437 47.52,-40.796 l 0,-3.844 c -86.39,0.484 -138.69,-29.266 -138.69,-88.297 0,-35.5 26.39,-69.578 73.42,-69.578 30.24,0 54.7,12.953 69.1,31.187 l 1.43,0 3.85,-25.906 53.26,0 z m -60.94,82.063 c 0,-3.844 -0.48,-8.641 -1.92,-12.954 -5.28,-16.796 -22.56,-32.156 -46.08,-32.156 -18.7,0 -33.57,10.547 -33.57,33.594 0,35.5 39.82,44.625 81.57,43.656 l 0,-32.14" /><path
         id="path24"
         style="fill:#080828;fill-opacity:1;fill-rule:nonzero;stroke:none"
         d="m 1520.67,439 59.5,0 0,340.719 -59.5,0 0,-340.719 z" /><path
         id="path26"
         style="fill:#080828;fill-opacity:1;fill-rule:nonzero;stroke:none"
         d="m 1828.42,439 c -2.39,14.391 -3.36,35.031 -3.36,56.141 l 0,84.468 c 0,50.86 -21.59,98.375 -96.45,98.375 -36.95,0 -67.19,-10.078 -84.45,-20.64 l 11.51,-38.391 c 15.83,10.078 39.83,17.281 62.86,17.281 41.27,0 47.52,-25.437 47.52,-40.796 l 0,-3.844 c -86.39,0.484 -138.69,-29.266 -138.69,-88.297 0,-35.5 26.39,-69.578 73.42,-69.578 30.24,0 54.7,12.953 69.1,31.187 l 1.43,0 3.85,-25.906 53.26,0 z m -60.94,82.063 c 0,-3.844 -0.48,-8.641 -1.92,-12.954 -5.28,-16.796 -22.56,-32.156 -46.08,-32.156 -18.7,0 -33.57,10.547 -33.57,33.594 0,35.5 39.82,44.625 81.57,43.656 l 0,-32.14" /><path
         id="path28"
         style="fill:#080828;fill-opacity:1;fill-rule:nonzero;stroke:none"
         d="m 1887.67,439 59.5,0 0,137.25 c 0,6.719 0.49,13.906 2.41,19.188 6.23,17.75 22.55,34.546 46.06,34.546 32.16,0 44.63,-25.421 44.63,-59.015 l 0,-131.969 59.03,0 0,138.688 c 0,73.89 -42.24,100.296 -83.02,100.296 -38.87,0 -64.31,-22.078 -74.39,-40.312 l -1.44,0 -2.87,35.031 -51.83,0 c 1.44,-20.156 1.92,-42.719 1.92,-69.594 l 0,-164.109" /><path
         id="path30"
         style="fill:#080828;fill-opacity:1;fill-rule:nonzero;stroke:none"
         d="m 2325.31,489.859 c -11.51,-4.796 -25.92,-9.109 -46.54,-9.109 -40.32,0 -71.5,27.359 -71.5,75.344 -0.49,42.703 26.39,75.812 71.5,75.812 21.11,0 35.03,-4.797 44.62,-9.109 l 10.56,44.141 c -13.43,6.234 -35.51,11.046 -57.11,11.046 -82.06,0 -130.04,-54.718 -130.04,-124.781 0,-72.453 47.5,-119 120.45,-119 29.27,0 53.73,6.235 66.22,12 l -8.16,43.656" /><path
         id="path32"
         style="fill:#080828;fill-opacity:1;fill-rule:nonzero;stroke:none"
         d="m 2571.86,539.297 c 0.95,5.281 1.92,13.906 1.92,24.953 0,51.344 -24.95,113.734 -100.78,113.734 -74.86,0 -114.2,-60.953 -114.2,-125.734 0,-71.5 44.62,-118.047 120.45,-118.047 33.58,0 61.42,6.235 81.58,14.391 l -8.64,40.797 c -17.75,-6.719 -37.44,-10.563 -64.78,-10.563 -37.44,0 -70.55,18.235 -71.99,60.469 l 156.44,0 z m -156.44,41.266 c 2.39,24 17.75,57.109 54.22,57.109 39.36,0 48.95,-35.516 48.47,-57.109 l -102.69,0" /><path
         id="path34"
         style="fill:#ffffff;fill-opacity:1;fill-rule:evenodd;stroke:none"
         d="m 2773.34,1475 c 0,-93.16 -46.77,-165 -104.44,-165 l -1034.46,0 c -57.68,0 -104.44,71.84 -104.44,165 0,93.17 46.76,165 104.44,165 l 1034.46,0 c 57.67,0 104.44,-71.83 104.44,-165" /><path
         id="path36"
         style="fill:#c1272d;fill-opacity:1;fill-rule:evenodd;stroke:none"
         d="m 1463.34,1475 c 0,-93.16 -46.77,-165 -104.44,-165 l -1034.459,0 C 266.762,1310 220,1381.84 220,1475 c 0,93.17 46.762,165 104.441,165 l 1034.459,0 c 57.67,0 104.44,-71.83 104.44,-165" /><path
         id="path38"
         style="fill:#c1272d;fill-opacity:1;fill-rule:evenodd;stroke:none"
         d="m 1463.34,1855 c 0,-93.16 -46.77,-165 -104.44,-165 l -1034.459,0 C 266.762,1690 220,1761.84 220,1855 c 0,93.17 46.762,165 104.441,165 l 1034.459,0 c 57.67,0 104.44,-71.83 104.44,-165" /><path
         id="path40"
         style="fill:#c1272d;fill-opacity:1;fill-rule:evenodd;stroke:none"
         d="m 1453.34,2235 c 0,-93.16 -46.77,-165 -104.44,-165 l -1034.459,0 C 256.762,2070 210,2141.84 210,2235 c 0,93.17 46.762,165 104.441,165 l 1034.459,0 c 57.67,0 104.44,-71.83 104.44,-165" /></g></g></svg>