<svg xmlns="http://www.w3.org/2000/svg" xmlns:xlink="http://www.w3.org/1999/xlink" width="300" height="300" viewBox="0 0 300 300"><switch><g><symbol id="a" viewBox="-150 -150 300 300.015"><path fill="#AEBCC4" d="M150-97.015c0-6.763 0-52.985-71.5-52.985H-84c-62.5 0-66 47.223-66 53.985v186c0 54.5 59.235 60 66 60l161.5.029c6.765 0 72.5-.029 72.5-60.029v-187z"/></symbol><use xlink:href="#a" width="300" height="300.015" x="-150" y="-150" transform="matrix(1 0 0 -1 150 150)" overflow="visible"/><g fill="#080828"><path d="M68.397 240.997h5.952v13.921h.096a7.922 7.922 0 0 1 2.928-2.688c1.152-.673 2.544-1.057 4.032-1.057 3.984 0 8.161 2.641 8.161 10.129v13.777h-5.904v-13.105c0-3.408-1.248-5.952-4.512-5.952-2.304 0-3.937 1.536-4.561 3.313-.192.479-.24 1.104-.24 1.776v13.969h-5.952v-34.083zM102.142 245.174c0 1.775-1.296 3.168-3.36 3.168-1.968 0-3.265-1.393-3.265-3.168 0-1.824 1.344-3.217 3.313-3.217 2.015 0 3.263 1.393 3.312 3.217zm-6.289 29.906v-23.378h5.952v23.378h-5.952zM129.503 251.702c-.096 1.584-.192 3.504-.192 6.721v13.249c0 4.896-1.008 8.4-3.456 10.608-2.448 2.16-5.809 2.833-9.025 2.833-2.976 0-6.145-.624-8.161-1.872l1.296-4.465c1.488.864 3.984 1.776 6.817 1.776 3.84 0 6.721-2.017 6.721-7.057v-2.017h-.096c-1.344 2.064-3.744 3.457-6.816 3.457-5.809 0-9.937-4.801-9.937-11.426 0-7.681 4.992-12.337 10.609-12.337 3.552 0 5.665 1.729 6.769 3.648h.096l.24-3.12h5.135zm-6.097 9.361c0-.527-.048-1.104-.192-1.584-.624-2.16-2.304-3.792-4.8-3.792-3.313 0-5.761 2.88-5.761 7.633 0 3.984 2.016 7.2 5.712 7.2 2.208 0 4.128-1.44 4.8-3.552.144-.624.24-1.44.24-2.112v-3.793zM135.645 240.997h5.952v13.921h.096a7.922 7.922 0 0 1 2.928-2.688c1.152-.673 2.544-1.057 4.032-1.057 3.985 0 8.161 2.641 8.161 10.129v13.777h-5.904v-13.105c0-3.408-1.248-5.952-4.512-5.952-2.304 0-3.937 1.536-4.561 3.313-.192.479-.24 1.104-.24 1.776v13.969h-5.952v-34.083zM173.613 260.247v4.08h-12.241v-4.08h12.241zM184.124 261.975h.096c.576-.912 1.248-1.92 1.872-2.736l5.664-7.536h7.105l-8.642 9.553 9.89 13.825h-7.249l-6.721-10.321-2.016 2.353v7.969h-5.905v-34.083h5.905v20.976zM206.491 265.047c.144 4.225 3.456 6.049 7.2 6.049 2.736 0 4.705-.384 6.48-1.056l.864 4.08c-2.016.816-4.8 1.44-8.16 1.44-7.585 0-12.05-4.657-12.05-11.81 0-6.48 3.937-12.577 11.426-12.577 7.584 0 10.08 6.24 10.08 11.377 0 1.104-.096 1.969-.191 2.496h-15.649zm10.273-4.128c.049-2.16-.912-5.713-4.848-5.713-3.648 0-5.185 3.313-5.425 5.713h10.273zM230.636 251.702l4.225 12.529c.48 1.439.96 3.216 1.296 4.561h.145c.384-1.345.815-3.072 1.248-4.608l3.648-12.481h6.336l-5.856 15.938c-3.216 8.736-5.376 12.625-8.16 15.025-2.305 2.063-4.705 2.832-6.192 3.024l-1.345-4.993c1.008-.239 2.257-.768 3.456-1.632 1.104-.72 2.4-2.112 3.217-3.696.24-.432.384-.769.384-1.056 0-.24-.048-.576-.336-1.152l-8.545-21.458h6.479z"/></g><path fill="#FFF" d="M50 34h208v172H50z"/><path fill="#080828" stroke="#080828" stroke-width=".64" stroke-miterlimit="10" d="M201.228 171.932c0 10.715-19.712 19.403-44.025 19.403-24.315 0-44.025-8.688-44.025-19.403 0-10.701 19.71-19.391 44.025-19.391 24.313 0 44.025 8.689 44.025 19.391z"/><path fill="#E6E6E6" stroke="#080828" stroke-width=".327" stroke-miterlimit="10" d="M152.404 75.854c-2.723-1.693 12.227-6.84 15.883-7.814 37.813-10.084 55.846 10.994 54.576 42.484-1.891 46.886-19.523 75.242-46.51 78.651-6.287.792-25.626 1.145-21.553-3.404 36.403-40.643 32.897-87.986-2.396-109.917zm-21.132-7.807c6.697 1.065 15.558 3.097 20.646 7.112 40.593 32.046 35.797 69.097 4.813 107.84-4.733 5.919-6.87 6.646-11.889 6.806-35.804 1.139-46.635-38.317-55.921-69.828-9-30.547 6.685-57.603 42.351-51.93z"/><path fill="#080828" stroke="#080828" stroke-width=".327" stroke-miterlimit="10" d="M160.045 81.319s.28-17.861-7.695-31.341c0 0-1.104-.063-4.691 3.323 0 0 11.915 15.675 7.258 24.381l5.128 3.637z"/><path fill="none" stroke="#080828" stroke-width=".327" stroke-miterlimit="10" d="M159.417 81.066s9.119 4.343 14.786-.451"/><path fill="#E6E6E6" d="M168.45 93.404c.902.33 2.398 4.285 2.928 5.492 1.661 3.788 2.911 7.779 4.08 11.74a103.276 103.276 0 0 1 2.593 10.877c.361 1.998 1.363 5.922.124 7.804l3.08-.397c-3.269-3.918-1.684-10.669-2.257-15.394-.699-5.758-4.114-11.164-7.025-16.029l-1.172 2.882c5.187-1.239 5.585 29.056 6.307 33.065.447 2.487 4.229 1.43 3.783-1.043-1.148-6.381 1.078-38.722-11.133-35.805-1.23.294-1.808 1.82-1.172 2.882 3.634 6.074 6.682 11.834 6.771 19.044.059 4.706-.03 9.39 3.125 13.172.853 1.022 2.439.577 3.08-.397 1.572-2.387.97-5.918.62-8.555-.639-4.809-1.872-9.528-3.243-14.173-1.321-4.478-2.9-8.896-4.841-13.145-.979-2.146-2.228-4.933-4.604-5.803-2.382-.872-3.399 2.921-1.044 3.783z"/><path fill="#E6E6E6" d="M177.107 134.316c3.229 15.12-14.328 24.377-15.764 38.709-.22 2.195 3.488 2.695 3.854.521.651-3.885 2.384-7.365 5.638-9.727l-2.952-1.693c-.473 7.864-7.643 13.975-11.502 20.369-1.312 2.172 2.082 4.143 3.387 1.98 4.355-7.215 11.504-13.453 12.039-22.35.084-1.404-1.764-2.556-2.952-1.693-4.057 2.943-6.609 7.117-7.44 12.07l3.854.521c.78-7.794 6.939-14.06 11.075-20.322 3.913-5.924 6.059-12.356 4.548-19.43-.53-2.471-4.311-1.422-3.785 1.045z"/><path fill="#E6E6E6" d="M172.312 152.889c-.859 4.659-1.794 9.874-5.599 13.083-1.937 1.633.854 4.394 2.773 2.773 4.326-3.648 5.628-9.498 6.608-14.813.457-2.473-3.323-3.529-3.782-1.043zM180.522 126.82c.24 3.761-2.428 6.88-3.415 10.376-.688 2.439 3.097 3.474 3.783 1.043 1.105-3.918 3.827-7.152 3.556-11.419-.16-2.511-4.085-2.527-3.924 0z"/><path fill="#E6E6E6" d="M175.729 131.179c-.004 5.555-.188 10.73-3.219 15.574-1.347 2.151 2.049 4.119 3.387 1.98 3.395-5.425 3.751-11.313 3.756-17.554.001-2.53-3.923-2.53-3.924 0zM159.314 178.314c2.221 0 2.221-3.443 0-3.443s-2.22 3.443 0 3.443zM166.792 91.73c2.53 0 2.53-3.923 0-3.923s-2.53 3.923 0 3.923zM162.869 89.987c2.53 0 2.53-3.923 0-3.923s-2.53 3.923 0 3.923z"/><path fill="#E6E6E6" d="M165.049 90.423c2.53 0 2.53-3.923 0-3.923s-2.53 3.923 0 3.923z"/><path fill="#E6E6E6" d="M164.177 88.243c2.53 0 2.53-3.923 0-3.923s-2.531 3.923 0 3.923z"/><path fill="#E6E6E6" d="M162.434 88.243c2.53 0 2.53-3.923 0-3.923s-2.531 3.923 0 3.923z"/><path fill="#E6E6E6" d="M162.771 82.845c-.161-.08-.321-.162-.479-.245-.134-.07-.634-.473-.216-.102-.799-.708-1.984-.789-2.773 0-.723.722-.801 2.064 0 2.774.457.406.947.689 1.488.96.956.479 2.118.262 2.684-.704.512-.876.251-2.205-.704-2.683z"/><path fill="#E6E6E6" d="M159.764 83.013v-.436c0-.802-.669-1.471-1.471-1.471s-1.471.669-1.471 1.471v.436c0 .802.669 1.471 1.471 1.471s1.471-.67 1.471-1.471z"/><path fill="#E6E6E6" d="M158.728 83.612c1.897 0 1.897-2.942 0-2.942s-1.898 2.942 0 2.942z"/><radialGradient id="b" cx="193.144" cy="100.527" r="17.169" gradientTransform="matrix(1.0002 -.137 .1369 .9997 -17.923 26.63)" gradientUnits="userSpaceOnUse"><stop offset="0" stop-color="#fff"/><stop offset=".782" stop-color="#ececec"/><stop offset="1" stop-color="#e6e6e6"/></radialGradient><path fill="url(#b)" d="M207.554 98.128c1.187 8.664-6.148 16.824-16.381 18.227-10.235 1.401-19.494-4.486-20.681-13.149-1.187-8.665 6.148-16.824 16.381-18.226 10.235-1.402 19.495 4.484 20.681 13.148z"/><path fill="none" stroke="#080828" stroke-width=".18" stroke-miterlimit="10" d="M166.956 68.628l-7.295 12.105"/><path fill="none" stroke="#080828" stroke-width=".193" stroke-miterlimit="10" d="M170.226 67.974l-9.257 14.068M173.004 66.993l-9.42 15.049M175.946 66.503l-9.747 15.539M179.543 65.849l-10.729 16.193"/><path fill="none" stroke="#080828" stroke-width=".183" stroke-miterlimit="10" d="M181.667 66.176l-9.631 14.998"/><path fill="none" stroke="#080828" stroke-width=".107" stroke-miterlimit="10" d="M158.945 70.426l-4.086 6.865"/><path fill="none" stroke="#080828" stroke-width=".124" stroke-miterlimit="10" d="M161.398 70.589l-5.231 8.173"/><path fill="none" stroke="#080828" stroke-width=".173" stroke-miterlimit="10" d="M164.504 69.282l-6.702 11.115"/><path fill="none" stroke="#080828" stroke-width=".051" stroke-miterlimit="10" d="M154.859 73.205l-1.47 3.106"/></g></switch></svg>