<?xml version="1.0" encoding="utf-8"?>
<!-- Generator: Adobe Illustrator 16.0.3, SVG Export Plug-In . SVG Version: 6.00 Build 0)  -->
<!DOCTYPE svg PUBLIC "-//W3C//DTD SVG 1.1//EN" "http://www.w3.org/Graphics/SVG/1.1/DTD/svg11.dtd" [
	<!ENTITY ns_extend "http://ns.adobe.com/Extensibility/1.0/">
	<!ENTITY ns_ai "http://ns.adobe.com/AdobeIllustrator/10.0/">
	<!ENTITY ns_graphs "http://ns.adobe.com/Graphs/1.0/">
	<!ENTITY ns_vars "http://ns.adobe.com/Variables/1.0/">
	<!ENTITY ns_imrep "http://ns.adobe.com/ImageReplacement/1.0/">
	<!ENTITY ns_sfw "http://ns.adobe.com/SaveForWeb/1.0/">
	<!ENTITY ns_custom "http://ns.adobe.com/GenericCustomNamespace/1.0/">
	<!ENTITY ns_adobe_xpath "http://ns.adobe.com/XPath/1.0/">
]>
<svg version="1.1" id="Ebene_1" xmlns:x="&ns_extend;" xmlns:i="&ns_ai;" xmlns:graph="&ns_graphs;"
	 xmlns="http://www.w3.org/2000/svg" xmlns:xlink="http://www.w3.org/1999/xlink" x="0px" y="0px" width="300px" height="300px"
	 viewBox="0 0 300 300" enable-background="new 0 0 300 300" xml:space="preserve">
<metadata>
	<sfw  xmlns="&ns_sfw;">
		<slices></slices>
		<sliceSourceBounds  height="309.582" width="300" x="-50.5" y="-57.082" bottomLeftOrigin="true"></sliceSourceBounds>
	</sfw>
</metadata>
<path fill="#C18C2F" d="M228,298H72c-39.604,0-72-16.9-72-56.5V58C0,18.4,32.397-2,72-2h156c39.6,0,72,20.9,72,60.5V242
	C300,281.6,267.598,298,228,298z"/>
<rect x="0.757" y="228.086" fill="none" width="298.483" height="79.496"/>
<g enable-background="new    ">
	<path fill="#FFFFFF" d="M37.73,262.166l-8.208-32.354h4.416l3.84,16.369c0.96,4.032,1.824,8.064,2.4,11.185h0.096
		c0.528-3.216,1.536-7.057,2.64-11.232l4.32-16.321h4.368l3.937,16.417c0.912,3.841,1.776,7.681,2.256,11.089h0.096
		c0.672-3.552,1.584-7.152,2.592-11.185l4.272-16.321h4.272l-9.169,32.354h-4.368l-4.081-16.85
		c-1.008-4.128-1.68-7.297-2.112-10.561h-0.096c-0.576,3.216-1.296,6.385-2.496,10.561l-4.608,16.85H37.73z"/>
	<path fill="#FFFFFF" d="M92.356,250.357c0,8.593-5.953,12.337-11.569,12.337c-6.289,0-11.137-4.608-11.137-11.953
		c0-7.776,5.088-12.337,11.521-12.337C87.843,238.404,92.356,243.252,92.356,250.357z M73.922,250.597
		c0,5.089,2.928,8.929,7.057,8.929c4.032,0,7.057-3.792,7.057-9.024c0-3.937-1.968-8.929-6.961-8.929
		C76.082,241.572,73.922,246.181,73.922,250.597z"/>
	<path fill="#FFFFFF" d="M97.681,246.181c0-2.736-0.048-5.089-0.192-7.249h3.696l0.144,4.561h0.192
		c1.056-3.12,3.6-5.088,6.433-5.088c0.48,0,0.816,0.048,1.2,0.144v3.984c-0.432-0.096-0.864-0.144-1.44-0.144
		c-2.976,0-5.088,2.256-5.665,5.424c-0.096,0.576-0.192,1.248-0.192,1.969v12.385h-4.176V246.181z"/>
	<path fill="#FFFFFF" d="M119.617,232.26v6.672h6.048v3.217h-6.048v12.529c0,2.88,0.816,4.512,3.168,4.512
		c1.104,0,1.92-0.144,2.448-0.288l0.192,3.169c-0.816,0.336-2.112,0.576-3.745,0.576c-1.968,0-3.552-0.624-4.56-1.776
		c-1.2-1.248-1.632-3.313-1.632-6.049v-12.673h-3.6v-3.217h3.6v-5.568L119.617,232.26z"/>
	<path fill="#FFFFFF" d="M130.848,262.166v-20.018h-3.264v-3.217h3.264v-1.248c0-6.145,3.601-10.129,10.129-10.129
		c2.16,0,4.705,0.673,5.904,1.536l-1.199,3.217c-1.009-0.721-2.833-1.345-4.896-1.345c-4.465,0-5.761,3.121-5.761,6.817v1.151
		h13.489v23.234h-4.177v-20.018h-9.313v20.018H130.848z"/>
	<path fill="#FFFFFF" d="M175.538,238.932c-0.097,1.681-0.192,3.553-0.192,6.385v13.489c0,5.328-1.057,8.593-3.313,10.609
		c-2.256,2.111-5.521,2.784-8.448,2.784c-2.784,0-5.856-0.673-7.729-1.921l1.057-3.216c1.536,0.96,3.937,1.824,6.816,1.824
		c4.32,0,7.488-2.256,7.488-8.113v-2.592h-0.096c-1.296,2.16-3.792,3.889-7.393,3.889c-5.761,0-9.889-4.896-9.889-11.329
		c0-7.873,5.137-12.337,10.465-12.337c4.032,0,6.24,2.112,7.249,4.032h0.096l0.192-3.505H175.538z M171.169,248.101
		c0-0.72-0.048-1.344-0.239-1.92c-0.769-2.448-2.833-4.465-5.905-4.465c-4.032,0-6.912,3.409-6.912,8.785
		c0,4.561,2.304,8.353,6.864,8.353c2.593,0,4.944-1.632,5.856-4.32c0.24-0.72,0.336-1.536,0.336-2.256V248.101z"/>
	<path fill="#FFFFFF" d="M201.793,255.829c0,2.4,0.048,4.513,0.191,6.337h-3.744l-0.24-3.792h-0.096
		c-1.104,1.872-3.553,4.32-7.681,4.32c-3.648,0-8.017-2.017-8.017-10.177v-13.586h4.225v12.865c0,4.417,1.344,7.393,5.185,7.393
		c2.832,0,4.8-1.968,5.568-3.84c0.239-0.624,0.384-1.393,0.384-2.16v-14.258h4.225V255.829z"/>
	<path fill="#FFFFFF" d="M208.799,246.181c0-2.736-0.048-5.089-0.191-7.249h3.696l0.144,4.561h0.192
		c1.056-3.12,3.601-5.088,6.433-5.088c0.479,0,0.816,0.048,1.2,0.144v3.984c-0.433-0.096-0.864-0.144-1.44-0.144
		c-2.977,0-5.088,2.256-5.664,5.424c-0.097,0.576-0.192,1.248-0.192,1.969v12.385h-4.177V246.181z"/>
	<path fill="#FFFFFF" d="M226.367,251.317c0.096,5.712,3.744,8.064,7.969,8.064c3.024,0,4.849-0.528,6.433-1.2l0.72,3.024
		c-1.488,0.672-4.032,1.44-7.729,1.44c-7.152,0-11.425-4.705-11.425-11.714c0-7.008,4.128-12.528,10.896-12.528
		c7.585,0,9.602,6.672,9.602,10.944c0,0.864-0.097,1.536-0.145,1.969H226.367z M238.752,248.293
		c0.049-2.688-1.104-6.865-5.856-6.865c-4.272,0-6.145,3.937-6.48,6.865H238.752z"/>
	<path fill="#FFFFFF" d="M248.063,245.221c0-2.4-0.048-4.368-0.191-6.289h3.744l0.24,3.841h0.096
		c1.152-2.208,3.841-4.368,7.681-4.368c3.217,0,8.209,1.92,8.209,9.889v13.873h-4.225v-13.394c0-3.744-1.392-6.864-5.376-6.864
		c-2.785,0-4.945,1.968-5.665,4.32c-0.192,0.528-0.288,1.248-0.288,1.969v13.969h-4.225V245.221z"/>
</g>
<g>
	<g>
		<path opacity="0.4" fill="#FFFFFF" enable-background="new    " d="M148.684,23.5c-46.208,0-83.667,37.459-83.667,83.666
			c0,20.148,11.929,47.424,11.929,47.424l-25.499,35.998l46.047-17.266c14.149,10.967,31.9,17.512,51.19,17.512
			c46.207,0,83.666-37.459,83.666-83.668C232.35,60.959,194.891,23.5,148.684,23.5z"/>
	</g>
	<path fill="#FFFFFF" d="M220.461,190.305l-15.865-48.244H157.11l-15.424,48.244h-27.448l52.901-160.813h28.283l53.131,160.813
		H220.461z M198.182,119.159l-12.924-39.241c-1.764-5.353-3.219-10.441-4.523-15.361c-1.434,5.408-2.842,10.348-4.285,15.061
		l-12.955,39.542L198.182,119.159L198.182,119.159z"/>
</g>
</svg>
