<?xml version="1.0" encoding="utf-8"?>
<!-- Generator: Adobe Illustrator 22.0.1, SVG Export Plug-In . SVG Version: 6.00 Build 0)  -->
<svg version="1.1" id="Ebene_1" xmlns="http://www.w3.org/2000/svg" xmlns:xlink="http://www.w3.org/1999/xlink" x="0px" y="0px"
	 viewBox="0 0 300.5 300.5" style="enable-background:new 0 0 300.5 300.5;" xml:space="preserve">
<style type="text/css">
	.st0{fill:#EACD99;}
	.st1{enable-background:new    ;}
	.st2{fill:#C1272D;}
	.st3{fill:#3A3326;}
	.st4{fill:none;stroke:#C1272D;stroke-width:4;stroke-miterlimit:10;}
	.st5{fill:none;stroke:#FFFFFF;stroke-width:4;stroke-miterlimit:10;}
	.st6{fill:none;stroke:#000000;stroke-width:4;stroke-miterlimit:10;stroke-dasharray:4;}
</style>
<path class="st0" d="M238.2,300.5H62.4c-34.3,0-62.4-28-62.4-62.3V62.4C0,28.1,28.1,0,62.4,0h175.8c34.3,0,62.4,28.1,62.4,62.4
	v175.8C300.5,272.5,272.5,300.5,238.2,300.5z"/>
<g>
	<g class="st1">
		<path d="M133.8,113v-3.7l3.4-3c5.7-5.1,8.4-8,8.5-11c0-2.1-1.3-3.8-4.3-3.8c-2.2,0-4.2,1.1-5.6,2.2l-1.7-4.4c2-1.5,5-2.7,8.5-2.7
			c5.9,0,9.1,3.4,9.1,8.2c0,4.4-3.2,7.8-6.9,11.2l-2.4,2v0.1h9.8v5H133.8z"/>
	</g>
</g>
<g>
	<g class="st1">
		<path class="st2" d="M258.3,190.3c1.6,0.8,5.2,2.3,8.8,2.3c4.6,0,6.9-2.2,6.9-5c0-3.7-3.7-5.4-7.6-5.4h-3.6v-6.3h3.4
			c3-0.1,6.7-1.2,6.7-4.4c0-2.3-1.9-3.9-5.6-3.9c-3.1,0-6.3,1.3-7.9,2.3l-1.8-6.4c2.3-1.5,6.8-2.8,11.7-2.8c8.1,0,12.5,4.2,12.5,9.4
			c0,4-2.3,7.1-6.9,8.8v0.1c4.5,0.8,8.2,4.2,8.2,9.2c0,6.7-5.9,11.5-15.4,11.5c-4.9,0-9-1.3-11.2-2.7L258.3,190.3z"/>
	</g>
</g>
<g>
	<g class="st1">
		<path d="M36.5,177.7L36.5,177.7l-5,2.4l-1-4.6l6.9-3.2h5v26h-5.9V177.7z"/>
	</g>
</g>
<g class="st1">
	<path class="st3" d="M53.1,242.8l-2.8,9.2h-6.1l10.4-32.4h7.5L72.7,252h-6.3l-2.9-9.2H53.1z M62.4,238.3l-2.5-8
		c-0.6-2-1.2-4.2-1.6-6h-0.1c-0.5,1.9-1,4.1-1.5,6l-2.5,8H62.4z"/>
	<path class="st3" d="M97.2,245c0,2.8,0.1,5.1,0.2,7h-5.2l-0.3-3.6h-0.1c-1,1.7-3.3,4.1-7.5,4.1c-4.3,0-8.2-2.5-8.2-10.2v-13.7h5.9
		v12.7c0,3.9,1.2,6.4,4.4,6.4c2.4,0,3.9-1.7,4.5-3.2c0.2-0.5,0.3-1.2,0.3-1.8v-14.1h5.9V245z"/>
	<path class="st3" d="M104.3,252v-19h-3.2v-4.4h3.2v-1c0-2.9,1.2-5.9,3.5-7.7c2.1-1.7,4.7-2.5,8.3-2.5c3.1,0,6,0.6,8.1,1.8V252h-6
		v-29.6c-0.6-0.3-1.6-0.5-3.1-0.5c-3.6,0-4.9,2.6-4.9,5.7v1.1h4.8v4.4h-4.8v19H104.3z"/>
	<path class="st3" d="M152.6,240.1c0,8.6-6,12.4-12,12.4c-6.6,0-11.7-4.6-11.7-12c0-7.7,5-12.4,12.1-12.4
		C148,228.1,152.6,233,152.6,240.1z M133.1,222c0-1.7,1.3-3,3-3c1.6,0,2.8,1.2,2.8,3c0,1.6-1.2,2.9-2.9,2.9
		C134.3,224.9,133.1,223.6,133.1,222z M135,240.3c0,4.5,2.2,7.9,5.8,7.9c3.4,0,5.7-3.3,5.7-8c0-3.6-1.6-7.8-5.7-7.8
		C136.7,232.4,135,236.4,135,240.3z M142.7,222c0-1.7,1.2-3,2.9-3s2.9,1.2,2.9,3c0,1.6-1.2,2.9-2.9,2.9
		C143.9,224.9,142.7,223.6,142.7,222z"/>
	<path class="st3" d="M157.2,246.5c1.3,0.8,3.9,1.7,6,1.7c2.6,0,3.7-1.1,3.7-2.6c0-1.6-1-2.4-3.8-3.4c-4.6-1.6-6.5-4.1-6.4-6.8
		c0-4.1,3.4-7.3,8.8-7.3c2.6,0,4.8,0.7,6.2,1.4l-1.2,4.2c-1-0.6-2.9-1.3-4.9-1.3c-2.1,0-3.3,1-3.3,2.4c0,1.5,1.1,2.2,4.1,3.3
		c4.2,1.5,6.2,3.7,6.2,7.2c0,4.2-3.3,7.3-9.5,7.3c-2.8,0-5.4-0.7-7.1-1.6L157.2,246.5z"/>
	<path class="st3" d="M198.4,245c0,2.8,0.1,5.1,0.2,7h-5.2l-0.3-3.6h-0.1c-1,1.7-3.3,4.1-7.5,4.1c-4.3,0-8.2-2.5-8.2-10.2v-13.7h5.9
		v12.7c0,3.9,1.2,6.4,4.4,6.4c2.4,0,3.9-1.7,4.5-3.2c0.2-0.5,0.3-1.2,0.3-1.8v-14.1h5.9V245z"/>
	<path class="st3" d="M204.8,235.6c0-2.7,0-4.9-0.2-7h5.2l0.3,3.5h0.1c1-1.8,3.6-4,7.4-4c4.1,0,8.3,2.6,8.3,10V252h-5.9v-13.2
		c0-3.4-1.2-5.9-4.5-5.9c-2.4,0-4,1.7-4.6,3.5c-0.2,0.5-0.2,1.2-0.2,1.9V252h-6V235.6z"/>
	<path class="st3" d="M253.6,228.6c-0.1,1.6-0.2,3.5-0.2,6.7v13.2c0,4.9-1,8.4-3.5,10.6c-2.4,2.2-5.8,2.8-9,2.8
		c-3,0-6.1-0.6-8.2-1.9l1.3-4.5c1.5,0.9,4,1.8,6.8,1.8c3.8,0,6.7-2,6.7-7.1v-2h-0.1c-1.3,2.1-3.7,3.5-6.8,3.5
		c-5.8,0-9.9-4.8-9.9-11.4c0-7.7,5-12.3,10.6-12.3c3.6,0,5.7,1.7,6.8,3.6h0.1l0.2-3.1H253.6z M247.5,238c0-0.5,0-1.1-0.2-1.6
		c-0.6-2.2-2.3-3.8-4.8-3.8c-3.3,0-5.8,2.9-5.8,7.6c0,4,2,7.2,5.7,7.2c2.2,0,4.1-1.4,4.8-3.6c0.1-0.6,0.2-1.4,0.2-2.1V238z"/>
</g>
<path class="st4" d="M94.7,160.6"/>
<path class="st4" d="M130,82.6"/>
<path class="st4" d="M213.7,133"/>
<path class="st4" d="M175.1,82.6"/>
<polyline class="st5" points="50.7,185 206.4,92.1 246.2,185 "/>
<polyline class="st4" points="246.2,185 206.4,92.1 188.9,102.5 "/>
<line class="st6" x1="98.5" y1="187.2" x2="98.5" y2="78.7"/>
<line class="st6" x1="189.5" y1="187.2" x2="189.5" y2="78.7"/>
</svg>
