<svg xmlns="http://www.w3.org/2000/svg" xmlns:xlink="http://www.w3.org/1999/xlink" width="300" height="300" viewBox="0 0 300 300"><switch><g><symbol id="a" viewBox="-150 -150 300 300.015"><path fill="#AEBCC4" d="M150-97.015c0-6.763 0-52.985-71.5-52.985H-84c-62.5 0-66 47.223-66 53.985v186c0 54.5 59.235 60 66 60l161.5.029c6.765 0 72.5-.029 72.5-60.029v-187z"/></symbol><use xlink:href="#a" width="300" height="300.015" x="-150" y="-150" transform="matrix(1 0 0 -1 150 150)" overflow="visible"/><g fill="#080828"><path d="M78.405 240.997h5.952v34.083h-5.952v-34.083zM112.966 263.175c0 8.593-6.048 12.434-12.001 12.434-6.625 0-11.713-4.561-11.713-12.05 0-7.68 5.041-12.385 12.097-12.385 6.961 0 11.617 4.896 11.617 12.001zm-17.617.24c0 4.513 2.208 7.921 5.808 7.921 3.36 0 5.713-3.313 5.713-8.017 0-3.648-1.632-7.825-5.665-7.825-4.176 0-5.856 4.032-5.856 7.921zM120.981 251.702l2.448 10.608c.528 2.497 1.056 5.041 1.488 7.585h.096c.48-2.544 1.248-5.137 1.92-7.536l3.024-10.657h4.8l2.929 10.369c.72 2.736 1.344 5.28 1.872 7.824h.096c.384-2.544.912-5.088 1.536-7.824l2.592-10.369h5.809l-7.345 23.378h-5.472l-2.785-9.505c-.72-2.448-1.248-4.656-1.776-7.488h-.096c-.48 2.88-1.104 5.185-1.776 7.488l-2.977 9.505h-5.521l-6.913-23.378h6.051zM163.605 260.247v4.08h-12.242v-4.08h12.242zM174.116 261.975h.096c.576-.912 1.248-1.92 1.872-2.736l5.664-7.536h7.105l-8.642 9.553 9.89 13.825h-7.249l-6.721-10.321-2.016 2.353v7.969h-5.905v-34.083h5.905v20.976zM196.484 265.047c.144 4.225 3.456 6.049 7.2 6.049 2.736 0 4.705-.384 6.48-1.056l.864 4.08c-2.016.816-4.8 1.44-8.16 1.44-7.585 0-12.05-4.657-12.05-11.81 0-6.48 3.937-12.577 11.426-12.577 7.584 0 10.08 6.24 10.08 11.377 0 1.104-.096 1.969-.191 2.496h-15.649zm10.273-4.128c.048-2.16-.912-5.713-4.848-5.713-3.648 0-5.185 3.313-5.425 5.713h10.273zM220.628 251.702l4.225 12.529c.48 1.439.96 3.216 1.296 4.561h.145c.384-1.345.815-3.072 1.248-4.608l3.648-12.481h6.336l-5.856 15.938c-3.216 8.736-5.376 12.625-8.16 15.025-2.305 2.063-4.705 2.832-6.192 3.024l-1.345-4.993c1.008-.239 2.257-.768 3.456-1.632 1.104-.72 2.4-2.112 3.217-3.696.24-.432.384-.769.384-1.056 0-.24-.048-.576-.336-1.152l-8.545-21.458h6.479z"/></g><path fill="#080828" d="M50 34h208v172H50z"/><path fill="#171733" stroke="#999" stroke-width="1.337" stroke-miterlimit="10" d="M149.992 74.694c-2.785-1.731 12.501-6.993 16.239-7.99 38.661-10.31 57.099 11.242 55.801 43.439-1.934 47.939-19.962 76.932-47.555 80.416-6.428.812-26.201 1.171-22.036-3.479 37.22-41.556 33.635-89.962-2.449-112.386z"/><linearGradient id="b" gradientUnits="userSpaceOnUse" x1="90.449" y1="81.722" x2="176.537" y2="166.701" gradientTransform="matrix(.987 -.0011 -.0011 .9999 1.517 .206)"><stop offset="0" stop-color="#fff"/><stop offset=".035" stop-color="#ebebee"/><stop offset=".132" stop-color="#babac2"/><stop offset=".234" stop-color="#8e8e9c"/><stop offset=".339" stop-color="#69697c"/><stop offset=".449" stop-color="#4b4b61"/><stop offset=".564" stop-color="#34344d"/><stop offset=".686" stop-color="#24243e"/><stop offset=".823" stop-color="#1a1a36"/><stop offset="1" stop-color="#171733"/></linearGradient><path fill="url(#b)" stroke="#080828" stroke-width=".332" stroke-miterlimit="10" d="M131.838 66.665c6.757 1.082 15.579 3.302 20.827 7.248 38.333 28.82 35.659 66.258 6.244 109.043-4.373 6.36-6.969 7.855-12.034 8.022-36.133 1.206-48.5-38.97-57.834-71.175-9.05-31.218 6.811-58.898 42.797-53.138z"/><path fill="gray" stroke="#FFF" stroke-width=".334" stroke-miterlimit="10" d="M161.813 80.283s.287-18.262-7.867-32.044c0 0-1.129-.064-4.797 3.397 0 0 12.184 16.026 7.421 24.928l5.243 3.719z"/><path fill="none" stroke="#FFF" stroke-width=".334" stroke-miterlimit="10" d="M161.173 80.024s9.324 4.441 15.117-.461M152.167 49.423l-1.002 4.681M154.006 48.755l-1.504 7.186M155.51 51.596l-1.504 7.521M157.014 54.939l-1.337 7.019M158.018 58.783l-1.505 6.518M159.354 61.791l-1.838 7.02M153.17 74.159l1.671-2.507M157.349 70.816l-2.34 4.346M162.696 68.31l-1.504 3.677M166.039 67.14l-4.011 10.362M169.717 66.471l-5.349 13.872"/><path fill="none" stroke="#E6E6E6" stroke-width=".334" stroke-miterlimit="10" d="M173.227 65.635l-5.182 14.541M177.404 64.967l-5.013 14.54"/></g></switch></svg>