<?xml version="1.0" encoding="utf-8"?>
<!-- Generator: Adobe Illustrator 16.0.3, SVG Export Plug-In . SVG Version: 6.00 Build 0)  -->
<!DOCTYPE svg PUBLIC "-//W3C//DTD SVG 1.1//EN" "http://www.w3.org/Graphics/SVG/1.1/DTD/svg11.dtd">
<svg version="1.1" id="Layer_1" xmlns="http://www.w3.org/2000/svg" xmlns:xlink="http://www.w3.org/1999/xlink" x="0px" y="0px"
	 width="500px" height="500px" viewBox="0 0 500 500" enable-background="new 0 0 500 500" xml:space="preserve">
<title>Artboard 1</title>
<rect y="0" fill="#DD1367" width="500" height="500"/>
<polygon fill="#FFFFFF" points="48.24,65.515 48.24,142.76 65.205,142.76 65.205,41.845 51.66,41.845 36.035,60.155 36.035,77.87 
	36.18,77.87 48.085,65.515 "/>
<path fill="#FFFFFF" d="M127.125,116.715V67.89c0-15.775-7.885-27.235-25.154-27.235c-17.115,0-25,11.46-25,27.235v48.825
	c0,15.625,7.895,27.235,25,27.235C119.24,143.95,127.125,132.34,127.125,116.715 M93.93,119.395v-54.18
	c0-6.105,2.23-10.42,8.041-10.42c5.954,0,8.184,4.313,8.184,10.42v54.18c0,6.105-2.229,10.415-8.184,10.415
	C96.16,129.81,93.93,125.5,93.93,119.395"/>
<g>
	<g>
		<path fill="#FFFFFF" d="M296.15,328.775H203.84c-0.583,0.038-1.027,0.536-1,1.12v27.745c-0.031,0.586,0.415,1.087,1,1.125h92.313
			c0.584-0.038,1.029-0.539,1-1.125v-27.745C297.18,329.311,296.732,328.813,296.15,328.775"/>
		<path fill="#FFFFFF" d="M296.15,269.74H203.84c-0.583,0.038-1.027,0.537-1,1.12v27.745c-0.033,0.587,0.414,1.09,1,1.125h92.313
			c0.586-0.035,1.033-0.538,1-1.125V270.86C297.18,270.277,296.732,269.778,296.15,269.74"/>
	</g>
	<g>
		<path fill="#FFFFFF" d="M294.85,227.805L250.54,183.5c-0.3-0.295-0.78-0.295-1.08,0l-44.31,44.305
			c-0.299,0.299-0.297,0.783,0.002,1.082c0.143,0.143,0.336,0.223,0.537,0.223h88.62c0.424-0.001,0.767-0.344,0.766-0.767
			C295.072,228.141,294.992,227.948,294.85,227.805z"/>
		<path fill="#FFFFFF" d="M336.45,359.105l44.31-44.31c0.301-0.3,0.303-0.782,0.004-1.082c-0.002-0.001-0.003-0.002-0.004-0.003
			L336.45,269.4c-0.3-0.298-0.784-0.297-1.082,0.002c-0.144,0.146-0.224,0.337-0.224,0.538v88.625c0,0.423,0.345,0.765,0.768,0.764
			C336.113,359.325,336.307,359.245,336.45,359.105z"/>
		<path fill="#FFFFFF" d="M205.15,400.702L249.46,445c0.295,0.298,0.776,0.3,1.075,0.005c0.001-0.002,0.003-0.004,0.005-0.005
			l44.31-44.313c0.303-0.297,0.307-0.781,0.01-1.082c-0.146-0.146-0.344-0.229-0.549-0.228H205.69
			c-0.422-0.013-0.772,0.321-0.783,0.743C204.9,400.345,204.989,400.556,205.15,400.702z"/>
		<path fill="#FFFFFF" d="M163.55,269.4l-44.31,44.313c-0.301,0.298-0.301,0.78-0.004,1.079c0.002,0.003,0.003,0.004,0.004,0.006
			l44.31,44.31c0.3,0.298,0.784,0.298,1.082-0.002c0.144-0.143,0.224-0.336,0.224-0.538V269.94
			c-0.002-0.422-0.345-0.764-0.768-0.763C163.886,269.177,163.693,269.257,163.55,269.4z"/>
	</g>
</g>
<g>
	<path fill="#FFFFFF" d="M160.969,83.836c-0.508-0.039-0.86-0.713-1.055-2.021l-5.303-38.086c-0.04-0.194-0.059-0.469-0.059-0.819
		c0-0.802,0.156-1.201,0.469-1.201h3.838c0.234,0,0.449,0.186,0.645,0.557c0.195,0.371,0.332,0.869,0.41,1.494l3.252,27.803
		l3.955-27.715c0.078-0.604,0.22-1.069,0.425-1.392c0.205-0.323,0.425-0.483,0.659-0.483h3.164c0.508,0.059,0.85,0.684,1.025,1.875
		l4.189,28.301l3.281-28.418c0.078-0.604,0.209-1.094,0.396-1.465c0.186-0.371,0.396-0.557,0.63-0.557h3.311
		c0.312,0,0.469,0.399,0.469,1.201c0,0.254-0.029,0.526-0.088,0.819l-5.186,38.086c-0.195,1.31-0.527,1.982-0.996,2.021h-3.574
		c-0.508-0.039-0.86-0.723-1.055-2.051l-4.395-27.334l-4.248,27.362c-0.157,1.25-0.469,1.924-0.938,2.021L160.969,83.836
		L160.969,83.836z"/>
	<path fill="#FFFFFF" d="M190.236,83.836c-0.254,0-0.439-0.073-0.557-0.22c-0.118-0.147-0.176-0.483-0.176-1.012V42.938
		c0-0.508,0.059-0.839,0.176-0.996c0.117-0.155,0.303-0.233,0.557-0.233h15.41c0.156,0,0.283,0.02,0.381,0.059
		c0.098,0.04,0.18,0.146,0.249,0.322c0.068,0.176,0.103,0.438,0.103,0.791v2.313c0,0.488-0.059,0.807-0.176,0.952
		c-0.117,0.146-0.303,0.221-0.557,0.221h-10.02c-0.234,0-0.352,0.321-0.352,0.967v11.836c0,0.176,0.034,0.352,0.103,0.526
		c0.068,0.177,0.132,0.265,0.19,0.265h8.057c0.488,0,0.732,0.45,0.732,1.348v2.256c0,0.898-0.245,1.349-0.732,1.349h-8.027
		c-0.078,0-0.151,0.098-0.22,0.293c-0.069,0.194-0.103,0.391-0.103,0.586V79.18h10.459c0.176,0,0.312,0.021,0.41,0.059
		c0.098,0.04,0.18,0.146,0.249,0.322c0.068,0.176,0.103,0.439,0.103,0.791v2.314c0,0.487-0.063,0.806-0.19,0.952
		c-0.127,0.146-0.318,0.22-0.571,0.22h-15.498V83.836z"/>
	<path fill="#FFFFFF" d="M212.297,83.836c-0.254,0-0.444-0.099-0.571-0.293c-0.127-0.195-0.19-0.586-0.19-1.172V43.26
		c0-1.035,0.253-1.553,0.762-1.553h4.453c0.41,0,0.762,0.381,1.055,1.143l9.932,26.689c0.039,0.137,0.098,0.098,0.176-0.117
		l0.029-0.264V43.26c0-1.035,0.264-1.553,0.791-1.553h3.486c0.488,0,0.732,0.518,0.732,1.553v39.229
		c0,0.587-0.059,0.963-0.176,1.129c-0.117,0.166-0.303,0.249-0.557,0.249h-3.164c-0.195,0-0.406-0.117-0.63-0.353
		c-0.225-0.234-0.406-0.527-0.542-0.879l-11.045-28.828c-0.078-0.156-0.137-0.106-0.176,0.146c-0.02,0.059-0.029,0.127-0.029,0.205
		v28.213c0,0.586-0.063,0.977-0.19,1.172c-0.127,0.194-0.327,0.293-0.601,0.293H212.297z"/>
	<path fill="#FFFFFF" d="M240.51,83.836c-0.176,0-0.313-0.024-0.41-0.073c-0.098-0.048-0.181-0.18-0.249-0.396
		c-0.069-0.216-0.103-0.518-0.103-0.908V43.084c0-0.566,0.063-0.938,0.19-1.113c0.127-0.176,0.317-0.264,0.571-0.264h4.307
		c0.156,0,0.283,0.024,0.381,0.072c0.098,0.05,0.18,0.182,0.249,0.396c0.068,0.215,0.103,0.518,0.103,0.908v39.375
		c0,0.566-0.059,0.938-0.176,1.112c-0.117,0.176-0.303,0.265-0.557,0.265H240.51z"/>
	<path fill="#FFFFFF" d="M272.121,84.305c-0.742,0-1.23-0.615-1.465-1.846c0-0.02-0.137-0.786-0.41-2.3s-0.41-2.378-0.41-2.594
		c0-0.194-0.029-0.293-0.088-0.293s-0.117,0.088-0.176,0.265c-0.332,2.188-1.051,3.856-2.153,5.01
		c-1.104,1.153-2.563,1.729-4.38,1.729c-0.879,0-1.68-0.059-2.402-0.176c-0.722-0.117-1.49-0.366-2.3-0.747
		c-0.812-0.381-1.528-0.883-2.153-1.509c-0.625-0.625-1.234-1.484-1.83-2.578c-0.597-1.094-1.084-2.377-1.465-3.853
		c-0.382-1.476-0.688-3.286-0.924-5.436c-0.234-2.147-0.352-4.56-0.352-7.235c0-2.773,0.142-5.255,0.425-7.441
		c0.282-2.188,0.653-4.023,1.112-5.508s1.051-2.765,1.772-3.838c0.722-1.074,1.45-1.909,2.183-2.505
		c0.732-0.597,1.606-1.064,2.623-1.406c1.016-0.341,1.942-0.562,2.782-0.659c0.841-0.098,1.816-0.146,2.931-0.146
		c0.819,0,1.713,0.107,2.681,0.322c0.967,0.215,1.733,0.45,2.3,0.703c0.02,0.021,0.063,0.049,0.132,0.088
		c0.068,0.04,0.122,0.093,0.161,0.161c0.039,0.069,0.059,0.171,0.059,0.308v3.604c0,0.273-0.078,0.41-0.233,0.41
		c-0.021,0-0.132-0.029-0.337-0.088c-0.205-0.06-0.479-0.133-0.82-0.221s-0.714-0.171-1.113-0.249
		c-0.399-0.077-0.824-0.146-1.273-0.205c-0.449-0.059-0.859-0.088-1.23-0.088c-1.035,0-1.924,0.104-2.666,0.309
		s-1.494,0.645-2.256,1.317c-0.762,0.674-1.377,1.607-1.846,2.799c-0.469,1.19-0.85,2.822-1.143,4.893s-0.439,4.551-0.439,7.441
		c0,2.734,0.107,5.111,0.322,7.134c0.215,2.021,0.498,3.646,0.85,4.878c0.352,1.23,0.807,2.217,1.362,2.959
		c0.557,0.743,1.122,1.245,1.698,1.509s1.246,0.396,2.008,0.396c0.897,0,1.645-0.265,2.24-0.791
		c0.597-0.527,1.045-1.337,1.349-2.433c0.303-1.094,0.508-2.295,0.614-3.604s0.162-2.939,0.162-4.894
		c0-0.879-0.088-1.317-0.265-1.317h-3.312c-0.176,0-0.317-0.024-0.424-0.073c-0.107-0.048-0.205-0.171-0.293-0.366
		s-0.133-0.469-0.133-0.82V62.92c0-0.527,0.073-0.874,0.221-1.04c0.146-0.166,0.347-0.249,0.601-0.249h7.881
		c0.509,0,0.763,0.604,0.763,1.815v18.896c0,0.586-0.099,1.06-0.293,1.421C272.572,84.125,272.355,84.305,272.121,84.305z"/>
	<path fill="#FFFFFF" d="M279.475,83.836c-0.254,0-0.438-0.073-0.557-0.22c-0.118-0.147-0.176-0.483-0.176-1.012V42.938
		c0-0.508,0.059-0.839,0.176-0.996c0.117-0.155,0.303-0.233,0.557-0.233h15.41c0.156,0,0.283,0.02,0.381,0.059
		c0.099,0.04,0.18,0.146,0.25,0.322c0.067,0.176,0.103,0.438,0.103,0.791v2.313c0,0.488-0.06,0.807-0.177,0.952
		c-0.116,0.146-0.303,0.221-0.557,0.221h-10.02c-0.234,0-0.352,0.321-0.352,0.967v11.836c0,0.176,0.032,0.352,0.103,0.526
		c0.067,0.177,0.132,0.265,0.19,0.265h8.057c0.488,0,0.732,0.45,0.732,1.348v2.256c0,0.898-0.244,1.349-0.732,1.349h-8.027
		c-0.078,0-0.15,0.098-0.22,0.293c-0.069,0.194-0.103,0.391-0.103,0.586V79.18h10.459c0.176,0,0.313,0.021,0.409,0.059
		c0.099,0.04,0.181,0.146,0.249,0.322s0.104,0.439,0.104,0.791v2.314c0,0.487-0.063,0.806-0.19,0.952
		c-0.128,0.146-0.317,0.22-0.571,0.22h-15.498V83.836z"/>
	<path fill="#FFFFFF" d="M301.506,83.836c-0.254,0-0.439-0.083-0.557-0.249s-0.176-0.522-0.176-1.069V43.055
		c0-0.586,0.059-0.957,0.176-1.113c0.117-0.155,0.303-0.233,0.557-0.233h9.844c1.23,0,2.28,0.068,3.149,0.205
		c0.868,0.137,1.763,0.43,2.681,0.879c0.918,0.45,1.655,1.074,2.213,1.875c0.557,0.801,1.015,1.895,1.377,3.28
		c0.36,1.388,0.541,3.058,0.541,5.011c0,1.465-0.106,2.738-0.321,3.822c-0.216,1.084-0.537,1.964-0.968,2.638
		c-0.43,0.674-0.894,1.206-1.392,1.597s-1.099,0.723-1.802,0.996c-0.059,0.059-0.088,0.117-0.088,0.176
		c0,0.06,0.029,0.107,0.088,0.146c0.703,0.333,1.273,0.674,1.714,1.024c0.44,0.352,0.884,0.864,1.333,1.538s0.791,1.587,1.025,2.739
		c0.233,1.153,0.381,2.568,0.438,4.248c0.078,1.522,0.117,5.02,0.117,10.488c0,0.977-0.177,1.465-0.526,1.465
		c-3.027,0.019-4.58,0.028-4.658,0.028c-0.313,0-0.479-0.438-0.498-1.317c0-0.136-0.06-2.324-0.176-6.563
		c-0.117-4.237-0.244-6.68-0.382-7.323c-0.059-0.802-0.22-1.47-0.483-2.008c-0.264-0.537-0.604-0.927-1.024-1.172
		c-0.421-0.244-0.835-0.41-1.245-0.498s-0.879-0.132-1.406-0.132h-4.188c-0.216,0-0.322,0.215-0.322,0.646v17.021
		c0,0.547-0.06,0.904-0.176,1.069c-0.117,0.166-0.304,0.249-0.558,0.249L301.506,83.836L301.506,83.836z M306.838,60.281h3.779
		c3.262,0,4.893-2.372,4.893-7.118c0-2.521-0.443-4.282-1.333-5.288s-2.378-1.51-4.468-1.51h-2.842
		c-0.215,0-0.322,0.195-0.322,0.587V59.49C306.545,60.018,306.643,60.281,306.838,60.281z"/>
	<path fill="#FFFFFF" d="M167.063,144.276c-1.055,0-1.963-0.044-2.725-0.132c-0.762-0.088-1.553-0.273-2.373-0.557
		c-0.82-0.283-1.514-0.678-2.08-1.188c-0.567-0.508-1.118-1.195-1.655-2.064c-0.538-0.869-0.962-1.919-1.274-3.149
		c-0.313-1.229-0.562-2.714-0.747-4.453c-0.186-1.737-0.278-3.729-0.278-5.977v-23.672c0-0.566,0.063-0.938,0.19-1.113
		c0.127-0.176,0.317-0.264,0.571-0.264h4.307c0.156,0,0.283,0.024,0.381,0.072c0.098,0.05,0.18,0.182,0.249,0.396
		c0.068,0.215,0.103,0.518,0.103,0.908v23.496c0,2.305,0.068,4.237,0.205,5.801c0.136,1.563,0.332,2.823,0.586,3.779
		c0.253,0.957,0.61,1.685,1.069,2.183c0.458,0.498,0.942,0.831,1.45,0.996c0.508,0.166,1.172,0.249,1.992,0.249
		c1.035,0,1.835-0.117,2.402-0.353c0.566-0.233,1.084-0.791,1.553-1.67c0.469-0.879,0.786-2.187,0.952-3.926
		c0.166-1.738,0.249-4.091,0.249-7.061v-23.496c0-0.586,0.059-0.962,0.176-1.128c0.117-0.166,0.303-0.249,0.557-0.249h4.336
		c0.156,0,0.278,0.024,0.366,0.072c0.088,0.05,0.166,0.182,0.234,0.396s0.103,0.518,0.103,0.908v23.672
		c0,2.266-0.093,4.282-0.278,6.05c-0.186,1.768-0.435,3.262-0.747,4.482c-0.313,1.221-0.737,2.261-1.274,3.119
		c-0.538,0.86-1.084,1.538-1.641,2.036s-1.241,0.89-2.051,1.172c-0.811,0.283-1.578,0.465-2.3,0.542
		C168.947,144.236,168.078,144.276,167.063,144.276z"/>
	<path fill="#FFFFFF" d="M185.08,143.836c-0.254,0-0.444-0.099-0.571-0.293c-0.127-0.195-0.19-0.586-0.19-1.172V103.26
		c0-1.035,0.253-1.553,0.762-1.553h4.453c0.41,0,0.762,0.381,1.055,1.143l9.932,26.689c0.039,0.137,0.098,0.098,0.176-0.117
		l0.029-0.264V103.26c0-1.035,0.264-1.553,0.791-1.553h3.486c0.488,0,0.732,0.518,0.732,1.553v39.229
		c0,0.587-0.059,0.963-0.176,1.129c-0.117,0.166-0.303,0.249-0.557,0.249h-3.164c-0.195,0-0.406-0.117-0.63-0.353
		c-0.225-0.234-0.406-0.527-0.542-0.879l-11.045-28.828c-0.078-0.156-0.137-0.106-0.176,0.146c-0.02,0.059-0.029,0.127-0.029,0.205
		v28.213c0,0.586-0.063,0.977-0.19,1.172c-0.127,0.194-0.327,0.293-0.601,0.293H185.08z"/>
	<path fill="#FFFFFF" d="M232.307,144.305c-0.743,0-1.23-0.615-1.465-1.846c0-0.02-0.137-0.786-0.41-2.3
		c-0.274-1.514-0.41-2.377-0.41-2.594c0-0.194-0.029-0.293-0.088-0.293s-0.117,0.088-0.176,0.265
		c-0.333,2.188-1.05,3.856-2.153,5.01c-1.104,1.153-2.563,1.729-4.38,1.729c-0.879,0-1.68-0.059-2.402-0.176
		c-0.723-0.117-1.49-0.366-2.3-0.747c-0.811-0.381-1.528-0.883-2.153-1.509c-0.625-0.625-1.235-1.484-1.831-2.578
		c-0.596-1.094-1.084-2.377-1.465-3.853c-0.381-1.476-0.688-3.286-0.923-5.436c-0.234-2.147-0.352-4.56-0.352-7.235
		c0-2.773,0.142-5.255,0.425-7.441c0.283-2.188,0.654-4.023,1.113-5.508c0.458-1.484,1.05-2.765,1.772-3.838
		c0.722-1.074,1.45-1.909,2.183-2.505c0.732-0.597,1.606-1.064,2.622-1.406c1.015-0.341,1.943-0.562,2.783-0.659
		c0.839-0.098,1.816-0.146,2.93-0.146c0.82,0,1.714,0.107,2.681,0.322c0.967,0.215,1.733,0.45,2.3,0.703
		c0.019,0.021,0.063,0.049,0.132,0.088c0.068,0.04,0.122,0.093,0.161,0.161c0.039,0.069,0.059,0.171,0.059,0.308v3.604
		c0,0.274-0.078,0.41-0.234,0.41c-0.02,0-0.132-0.029-0.337-0.088c-0.205-0.06-0.479-0.132-0.82-0.221
		c-0.342-0.088-0.713-0.171-1.113-0.249c-0.4-0.077-0.825-0.146-1.274-0.204c-0.45-0.06-0.86-0.089-1.23-0.089
		c-1.036,0-1.924,0.104-2.666,0.309c-0.743,0.205-1.494,0.645-2.256,1.317c-0.762,0.674-1.377,1.607-1.846,2.799
		c-0.469,1.19-0.85,2.822-1.143,4.893s-0.439,4.551-0.439,7.441c0,2.734,0.107,5.111,0.322,7.134
		c0.215,2.021,0.498,3.646,0.85,4.878c0.352,1.23,0.806,2.217,1.362,2.959c0.557,0.743,1.123,1.245,1.699,1.509
		s1.245,0.396,2.007,0.396c0.898,0,1.645-0.265,2.241-0.791c0.596-0.527,1.044-1.337,1.348-2.433
		c0.303-1.094,0.508-2.295,0.615-3.604s0.161-2.939,0.161-4.894c0-0.879-0.088-1.317-0.264-1.317h-3.311
		c-0.176,0-0.318-0.024-0.425-0.073c-0.107-0.048-0.205-0.171-0.293-0.366s-0.132-0.469-0.132-0.82v-2.401
		c0-0.527,0.073-0.874,0.22-1.04c0.146-0.166,0.347-0.249,0.601-0.249h7.881c0.508,0,0.762,0.604,0.762,1.815v18.896
		c0,0.586-0.098,1.06-0.293,1.421C232.756,144.124,232.541,144.305,232.307,144.305z"/>
	<path fill="#FFFFFF" d="M239.66,143.836c-0.254,0-0.439-0.083-0.557-0.249c-0.117-0.166-0.176-0.542-0.176-1.128v-39.375
		c0-0.586,0.059-0.962,0.176-1.128s0.303-0.249,0.557-0.249h4.307c0.253,0,0.439,0.083,0.557,0.249
		c0.117,0.166,0.176,0.542,0.176,1.128v35.449c0,0.43,0.136,0.645,0.41,0.645h7.617c0.254,0,0.439,0.069,0.558,0.205
		c0.116,0.137,0.176,0.45,0.176,0.938v2.345c0,0.487-0.06,0.806-0.176,0.952c-0.117,0.146-0.304,0.22-0.558,0.22L239.66,143.836
		L239.66,143.836z"/>
	<path fill="#FFFFFF" d="M258.762,143.836c-0.254,0-0.438-0.073-0.557-0.22c-0.118-0.147-0.176-0.483-0.176-1.012v-39.668
		c0-0.508,0.059-0.839,0.176-0.996c0.117-0.155,0.303-0.233,0.557-0.233h15.41c0.156,0,0.283,0.02,0.381,0.059
		c0.098,0.04,0.18,0.146,0.249,0.322c0.068,0.176,0.103,0.438,0.103,0.791v2.313c0,0.488-0.059,0.807-0.176,0.952
		c-0.117,0.146-0.303,0.22-0.557,0.22h-10.02c-0.234,0-0.353,0.322-0.353,0.968v11.836c0,0.176,0.033,0.352,0.103,0.526
		c0.068,0.177,0.133,0.265,0.19,0.265h8.058c0.488,0,0.731,0.45,0.731,1.348v2.256c0,0.898-0.243,1.349-0.731,1.349h-8.027
		c-0.078,0-0.15,0.098-0.221,0.293c-0.068,0.194-0.103,0.391-0.103,0.586v13.389h10.459c0.177,0,0.313,0.021,0.41,0.059
		c0.099,0.04,0.181,0.146,0.249,0.322s0.104,0.439,0.104,0.791v2.314c0,0.487-0.063,0.806-0.19,0.952
		c-0.128,0.146-0.317,0.22-0.571,0.22L258.762,143.836L258.762,143.836z"/>
	<path fill="#FFFFFF" d="M280.852,143.836c-0.176,0-0.313-0.024-0.41-0.073c-0.098-0.048-0.181-0.18-0.248-0.396
		c-0.069-0.216-0.104-0.518-0.104-0.908v-39.375c0-0.566,0.063-0.938,0.189-1.113c0.128-0.176,0.318-0.264,0.572-0.264h4.307
		c0.156,0,0.283,0.024,0.381,0.072c0.098,0.05,0.18,0.182,0.249,0.396c0.067,0.215,0.103,0.518,0.103,0.908v39.375
		c0,0.566-0.059,0.938-0.176,1.112c-0.117,0.176-0.303,0.265-0.557,0.265H280.852L280.852,143.836z"/>
	<path fill="#FFFFFF" d="M303.732,144.276c-1.017,0-1.9-0.049-2.651-0.146c-0.752-0.098-1.567-0.317-2.446-0.659
		c-0.879-0.341-1.626-0.815-2.24-1.421c-0.615-0.605-1.23-1.445-1.847-2.521c-0.614-1.073-1.108-2.357-1.479-3.853
		s-0.674-3.33-0.907-5.508c-0.234-2.178-0.353-4.653-0.353-7.427c0-3.75,0.229-6.974,0.688-9.668c0.458-2.695,1.04-4.795,1.743-6.3
		c0.703-1.504,1.615-2.685,2.738-3.545c1.123-0.858,2.197-1.405,3.224-1.641s2.251-0.353,3.677-0.353
		c1.816,0,3.311,0.274,4.482,0.82c0.02,0.021,0.049,0.044,0.088,0.073s0.072,0.059,0.103,0.088s0.054,0.078,0.073,0.146
		c0.02,0.069,0.029,0.151,0.029,0.249v3.546c0,0.273-0.068,0.409-0.205,0.409c-0.02,0-0.094-0.019-0.221-0.059
		c-0.127-0.039-0.308-0.088-0.541-0.146c-0.234-0.058-0.488-0.116-0.763-0.176c-0.274-0.059-0.591-0.106-0.952-0.146
		s-0.718-0.06-1.068-0.06c-0.918,0-1.699,0.104-2.344,0.309c-0.646,0.205-1.299,0.645-1.963,1.317s-1.201,1.607-1.611,2.798
		c-0.41,1.191-0.742,2.823-0.996,4.894s-0.381,4.551-0.381,7.441c0,2.948,0.111,5.459,0.336,7.528
		c0.225,2.07,0.514,3.706,0.865,4.907c0.351,1.201,0.84,2.134,1.465,2.798s1.25,1.094,1.875,1.289s1.406,0.293,2.344,0.293
		c1.387,0,2.617-0.186,3.691-0.557c0.02,0,0.063,0.098,0.131,0.293c0.068,0.194,0.104,0.303,0.104,0.321v3.369
		c0,0.021-0.033,0.122-0.104,0.309c-0.068,0.186-0.111,0.289-0.131,0.308C306.994,144.051,305.51,144.276,303.732,144.276z"/>
	<path fill="#FFFFFF" d="M314.426,143.836c-0.273,0-0.469-0.083-0.586-0.249s-0.176-0.542-0.176-1.128v-39.375
		c0-0.586,0.059-0.962,0.176-1.128s0.313-0.249,0.586-0.249h4.248c0.273,0,0.469,0.083,0.586,0.249s0.176,0.542,0.176,1.128v15.586
		c0,0.176,0.033,0.333,0.104,0.469c0.068,0.137,0.132,0.205,0.189,0.205h8.789c0.06,0,0.127-0.073,0.205-0.22
		c0.078-0.147,0.117-0.309,0.117-0.483v-15.557c0-0.566,0.063-0.938,0.189-1.113c0.128-0.176,0.318-0.264,0.572-0.264h4.307
		c0.254,0,0.439,0.083,0.557,0.249s0.176,0.542,0.176,1.128v39.375c0,0.586-0.059,0.962-0.176,1.128s-0.303,0.249-0.557,0.249
		h-4.307c-0.177,0-0.313-0.024-0.41-0.073c-0.099-0.048-0.187-0.18-0.265-0.396c-0.077-0.216-0.116-0.518-0.116-0.908v-17.9
		c0-0.41-0.107-0.615-0.322-0.615h-8.701c-0.195,0-0.293,0.205-0.293,0.615v17.9c0,0.566-0.063,0.938-0.189,1.112
		c-0.129,0.177-0.318,0.265-0.572,0.265H314.426L314.426,143.836z"/>
	<path fill="#FFFFFF" d="M342.17,143.836c-0.273,0-0.469-0.083-0.586-0.249s-0.176-0.542-0.176-1.128v-39.375
		c0-0.586,0.059-0.962,0.176-1.128s0.313-0.249,0.586-0.249h4.248c0.273,0,0.469,0.083,0.586,0.249s0.176,0.542,0.176,1.128v15.586
		c0,0.176,0.033,0.333,0.104,0.469c0.068,0.137,0.132,0.205,0.189,0.205h8.789c0.059,0,0.127-0.073,0.205-0.22
		c0.078-0.147,0.117-0.309,0.117-0.483v-15.557c0-0.566,0.063-0.938,0.189-1.113c0.127-0.176,0.317-0.264,0.572-0.264h4.307
		c0.254,0,0.438,0.083,0.557,0.249c0.117,0.166,0.176,0.542,0.176,1.128v39.375c0,0.586-0.059,0.962-0.176,1.128
		s-0.303,0.249-0.557,0.249h-4.307c-0.177,0-0.313-0.024-0.41-0.073c-0.099-0.048-0.187-0.18-0.265-0.396s-0.116-0.518-0.116-0.908
		v-17.9c0-0.41-0.107-0.615-0.322-0.615h-8.701c-0.195,0-0.293,0.205-0.293,0.615v17.9c0,0.566-0.063,0.938-0.19,1.112
		c-0.128,0.177-0.317,0.265-0.571,0.265H342.17L342.17,143.836z"/>
	<path fill="#FFFFFF" d="M369.885,143.836c-0.254,0-0.439-0.073-0.557-0.22c-0.118-0.147-0.176-0.483-0.176-1.012v-39.668
		c0-0.508,0.059-0.839,0.176-0.996c0.117-0.155,0.303-0.233,0.557-0.233h15.41c0.156,0,0.283,0.02,0.381,0.059
		c0.098,0.04,0.18,0.146,0.249,0.322c0.068,0.176,0.103,0.438,0.103,0.791v2.313c0,0.488-0.059,0.807-0.176,0.952
		c-0.117,0.146-0.303,0.22-0.557,0.22h-10.02c-0.234,0-0.353,0.322-0.353,0.968v11.836c0,0.176,0.033,0.352,0.103,0.526
		c0.068,0.177,0.133,0.265,0.19,0.265h8.058c0.488,0,0.731,0.45,0.731,1.348v2.256c0,0.898-0.243,1.349-0.731,1.349h-8.027
		c-0.078,0-0.15,0.098-0.221,0.293c-0.068,0.194-0.103,0.391-0.103,0.586v13.389h10.459c0.177,0,0.313,0.021,0.41,0.059
		c0.099,0.04,0.181,0.146,0.249,0.322s0.104,0.439,0.104,0.791v2.314c0,0.487-0.063,0.806-0.19,0.952
		c-0.128,0.146-0.317,0.22-0.571,0.22L369.885,143.836L369.885,143.836z"/>
	<path fill="#FFFFFF" d="M391.975,143.836c-0.176,0-0.313-0.024-0.41-0.073c-0.098-0.048-0.181-0.18-0.248-0.396
		c-0.069-0.216-0.104-0.518-0.104-0.908v-39.375c0-0.566,0.063-0.938,0.189-1.113c0.128-0.176,0.318-0.264,0.572-0.264h4.307
		c0.156,0,0.283,0.024,0.381,0.072c0.098,0.05,0.18,0.182,0.249,0.396c0.067,0.215,0.103,0.518,0.103,0.908v39.375
		c0,0.566-0.059,0.938-0.176,1.112c-0.117,0.176-0.303,0.265-0.557,0.265H391.975L391.975,143.836z"/>
	<path fill="#FFFFFF" d="M408,143.836c-0.234,0-0.415-0.092-0.542-0.278c-0.128-0.186-0.19-0.561-0.19-1.128v-35.272
		c0-0.488-0.106-0.732-0.322-0.732h-5.098c-0.195,0-0.336-0.015-0.425-0.044c-0.088-0.029-0.166-0.127-0.233-0.293
		c-0.069-0.166-0.104-0.425-0.104-0.776v-2.313c0-0.527,0.059-0.874,0.176-1.04s0.313-0.249,0.586-0.249H418.4
		c0.254,0,0.438,0.083,0.557,0.249c0.117,0.166,0.176,0.513,0.176,1.04v2.313c0,0.488-0.055,0.796-0.16,0.923
		c-0.107,0.127-0.299,0.19-0.572,0.19h-5.01c-0.215,0-0.322,0.245-0.322,0.732v35.272c0,0.586-0.063,0.967-0.189,1.143
		c-0.128,0.177-0.316,0.265-0.57,0.265L408,143.836L408,143.836z"/>
	<path fill="#FFFFFF" d="M423.938,143.836c-0.254,0-0.438-0.073-0.557-0.22c-0.117-0.147-0.176-0.483-0.176-1.012v-39.668
		c0-0.508,0.059-0.839,0.176-0.996c0.117-0.155,0.303-0.233,0.557-0.233h15.41c0.156,0,0.283,0.02,0.382,0.059
		c0.098,0.04,0.18,0.146,0.248,0.322s0.104,0.438,0.104,0.791v2.313c0,0.488-0.059,0.807-0.176,0.952
		c-0.117,0.146-0.304,0.22-0.558,0.22h-10.02c-0.234,0-0.353,0.322-0.353,0.968v11.836c0,0.176,0.033,0.352,0.104,0.526
		c0.068,0.177,0.132,0.265,0.189,0.265h8.058c0.488,0,0.731,0.45,0.731,1.348v2.256c0,0.898-0.243,1.349-0.731,1.349h-8.027
		c-0.078,0-0.15,0.098-0.22,0.293c-0.069,0.194-0.104,0.391-0.104,0.586v13.389h10.459c0.177,0,0.313,0.021,0.41,0.059
		c0.099,0.04,0.181,0.146,0.249,0.322s0.104,0.439,0.104,0.791v2.314c0,0.487-0.063,0.806-0.19,0.952
		c-0.128,0.146-0.316,0.22-0.571,0.22L423.938,143.836L423.938,143.836z"/>
	<path fill="#FFFFFF" d="M445.998,143.836c-0.254,0-0.444-0.099-0.571-0.293c-0.128-0.195-0.189-0.586-0.189-1.172V103.26
		c0-1.035,0.254-1.553,0.762-1.553h4.453c0.41,0,0.762,0.381,1.055,1.143l9.932,26.689c0.039,0.137,0.099,0.098,0.177-0.117
		l0.028-0.264V103.26c0-1.035,0.265-1.553,0.791-1.553h3.486c0.488,0,0.732,0.518,0.732,1.553v39.229
		c0,0.587-0.06,0.963-0.177,1.129c-0.116,0.166-0.303,0.249-0.557,0.249h-3.164c-0.195,0-0.406-0.117-0.63-0.353
		c-0.225-0.234-0.405-0.527-0.542-0.879l-11.045-28.828c-0.078-0.156-0.137-0.106-0.176,0.146c-0.021,0.059-0.029,0.127-0.029,0.205
		v28.213c0,0.586-0.063,0.977-0.19,1.172c-0.128,0.194-0.326,0.293-0.601,0.293H445.998z"/>
</g>
</svg>
