<svg xmlns="http://www.w3.org/2000/svg" xmlns:xlink="http://www.w3.org/1999/xlink" width="300" height="300" viewBox="0 0 300 300"><switch><g><symbol id="a" viewBox="-150 -150 300 300.015"><path fill="#AEBCC4" d="M150-97.015c0-6.763 0-52.985-71.5-52.985H-84c-62.5 0-66 47.223-66 53.985v186c0 54.5 59.235 60 66 60l161.5.029c6.765 0 72.5-.029 72.5-60.029v-187z"/></symbol><use xlink:href="#a" width="300" height="300.015" x="-150" y="-150" transform="matrix(1 0 0 -1 150 150)" overflow="visible"/><g fill="#080828"><path d="M77.028 242.428c0 8.594-6.048 12.434-12.001 12.434-6.625 0-11.713-4.561-11.713-12.049 0-7.68 5.041-12.385 12.097-12.385 6.961 0 11.617 4.896 11.617 12zm-17.617.24c0 4.514 2.208 7.922 5.808 7.922 3.36 0 5.713-3.313 5.713-8.018 0-3.648-1.632-7.824-5.665-7.824-4.176 0-5.856 4.031-5.856 7.92zM85.234 230.955l3.792 11.857c.672 2.064 1.152 3.936 1.584 5.857h.144c.432-1.922.96-3.746 1.584-5.857l3.696-11.857h6.241l-8.929 23.379h-5.809l-8.689-23.379h6.386zM109.427 244.301c.144 4.225 3.456 6.049 7.201 6.049 2.736 0 4.705-.385 6.48-1.057l.864 4.08c-2.016.816-4.8 1.441-8.161 1.441-7.584 0-12.049-4.658-12.049-11.811 0-6.48 3.937-12.576 11.425-12.576 7.584 0 10.081 6.24 10.081 11.377 0 1.104-.096 1.969-.191 2.496h-15.65zm10.272-4.129c.048-2.16-.912-5.713-4.848-5.713-3.648 0-5.185 3.313-5.424 5.713h10.272zM130.018 238.492c0-3.168-.048-5.424-.191-7.537h5.136l.192 4.465h.192c1.151-3.313 3.888-4.992 6.384-4.992a6.1 6.1 0 0 1 1.393.145v5.568a8.072 8.072 0 0 0-1.729-.193c-2.832 0-4.752 1.824-5.28 4.465a10.13 10.13 0 0 0-.191 1.824v12.098h-5.905v-15.843zM147.105 220.25h5.953v13.922h.096a7.918 7.918 0 0 1 2.929-2.688c1.151-.674 2.544-1.057 4.032-1.057 3.984 0 8.16 2.641 8.16 10.129v13.777h-5.904v-13.105c0-3.408-1.248-5.953-4.513-5.953-2.304 0-3.936 1.537-4.561 3.313-.191.48-.239 1.104-.239 1.777v13.969h-5.953V220.25zM178.737 244.301c.144 4.225 3.456 6.049 7.2 6.049 2.736 0 4.705-.385 6.48-1.057l.864 4.08c-2.016.816-4.8 1.441-8.16 1.441-7.585 0-12.05-4.658-12.05-11.811 0-6.48 3.937-12.576 11.426-12.576 7.584 0 10.08 6.24 10.08 11.377 0 1.104-.096 1.969-.191 2.496h-15.649zm10.273-4.129c.048-2.16-.912-5.713-4.848-5.713-3.648 0-5.185 3.313-5.425 5.713h10.273zM212.481 254.334l-.384-2.592h-.145c-1.439 1.824-3.888 3.119-6.912 3.119-4.704 0-7.345-3.408-7.345-6.961 0-5.904 5.232-8.881 13.873-8.832v-.385c0-1.535-.624-4.08-4.752-4.08-2.305 0-4.705.721-6.289 1.729l-1.152-3.84c1.729-1.057 4.753-2.064 8.449-2.064 7.488 0 9.648 4.752 9.648 9.84v8.449c0 2.113.097 4.176.336 5.617h-5.327zm-.767-11.426c-4.177-.096-8.161.816-8.161 4.369 0 2.305 1.488 3.359 3.36 3.359 2.353 0 4.08-1.535 4.608-3.215.144-.434.192-.912.192-1.297v-3.216zM245.266 220.25v27.508c0 2.398.097 4.992.192 6.576h-5.28l-.24-3.697h-.096c-1.393 2.592-4.225 4.225-7.633 4.225-5.568 0-9.985-4.752-9.985-11.953-.048-7.824 4.849-12.48 10.466-12.48 3.216 0 5.521 1.344 6.576 3.072h.096v-13.25h5.904zm-5.905 20.451c0-.48-.048-1.057-.144-1.537-.528-2.305-2.4-4.176-5.089-4.176-3.792 0-5.904 3.359-5.904 7.729 0 4.271 2.112 7.393 5.856 7.393 2.4 0 4.513-1.633 5.089-4.176.144-.529.191-1.105.191-1.729v-3.504z"/></g><path fill="none" d="M42 7h225"/><path fill-rule="evenodd" clip-rule="evenodd" fill="#FFF" d="M191.951 189.738c-.072-2.367 2.283-3.609 4.42-4.019 3.981-.761 6.396-3.605 6.411-7.656.014-3.791.036-7.583-.008-11.374-.035-2.992-.183-3.094-3.16-3.092h-8.345c-.111-1.669-.283-3.329-.323-4.991-.155-6.275-.28-12.55-.393-18.826-.035-1.94 1.408-3.339 3.333-3.38.959-.02 1.915-.142 3.315-.251-.46-1.92-.784-3.705-1.37-5.399-.141-.407-1.155-.511-1.928-.819l-.577-2.605h-2.841c.15-2.638.195-5.207.462-7.751.494-4.71 1.111-9.408 1.691-14.109.711-5.764 1.354-11.54 2.226-17.28.189-1.246 1.09-2.479 1.92-3.509 1-1.24 2.052-2.309 1.713-4.119-.089-.476.451-1.048.63-1.6.304-.936.714-1.879.78-2.839.08-1.156-.473-1.81-1.862-1.749-2.331.103-2.398-.178-2.914-2.54-.255-1.17-1.058-2.213-1.529-3.348-.167-.403-.167-.919-.106-1.365.316-2.302 1.078-4.593 1.35-6.899.051-.421-.656-.935-.921-1.339-1.184-1.805-.74-3.177 1.318-3.655 2.774-.644 5.56-1.257 8.365-1.743 1.767-.307 3.146.7 4.224 1.945 3.341 3.862 4.343 8.172 2.026 12.913-.797 1.631-.697 2.969.578 4.242.725.722 1.374 1.528 2.145 2.193 5.93 5.105 7.33 11.683 6.259 19.074-.816 5.636-1.813 11.197-1.342 17.005.494 6.103.11 12.276.11 18.566l-2.936.208.46 6.427h2.146c2.717-.003 5.435-.005 8.151-.009 2.409-.004 3.781 1.338 3.817 3.668.108 7.002.237 14.002.355 21.003.012.65.002 1.303.002 2.066l-11.926.567c.114 1.241.328 2.418.311 3.592-.078 5.051-.183 10.102-.396 15.146-.027.641-.76 1.251-1.512 1.741.146.943.313 1.883.432 2.828.279 2.21-.338 3.191-2.508 3.347-2.274.162-4.576-.06-6.86.021-1.119.041-2.222.438-3.343.588-4.037.534-7.961-.185-11.85-.874z"/><path fill="none" stroke="#C1272D" stroke-width="2.939" stroke-miterlimit="10" stroke-dasharray="11.7565,3.9188" d="M66.488 62.234l120.023.486"/><path fill="#C1272D" d="M197.366 30.525l2.805 15.047 3.783-.734c.056.039.035.17-.002.227l-4.094 6.553a.117.117 0 0 1-.166.032l-6.249-4.545c-.056-.039-.035-.17 0-.228l3.484-.676-2.805-15.047 3.244-.629z"/><path fill="#080828" d="M198.989 21.753l-.475-2.736 4.206-6.601c1.34-1.759.529-5.953.529-5.953L202.258 1h-23.661l1.706 9.569c.382 4.87 2.466 5.623 2.466 5.623l5.833 4.571.468 2.672c-2.411 2.584-3.476 8.012-3.476 8.012l19.002-3.233c-2.567-5.431-5.607-6.461-5.607-6.461z"/></g></switch></svg>