<svg xmlns="http://www.w3.org/2000/svg" xmlns:xlink="http://www.w3.org/1999/xlink" width="300" height="300" viewBox="0 0 300 300"><switch><g><symbol id="b" viewBox="-34.731 -31.834 69.462 63.668"><path fill="#FFF" d="M34.73 5.319l-12.598 9.616v15.908h-9v-9.038L-.001 31.833l-34.73-26.512 5.461-7.155 3.742 2.856v-32.856H25.53V1.021l3.74-2.854 5.46 7.152zM20.529-26.834H9v19H-8.999v-19h-11.529V4.204L.001 19.88 20.529 4.204v-31.038z"/></symbol><symbol id="a" viewBox="-150 -150 300 300.015"><path fill="#AEBCC4" d="M150-97.015c0-6.763 0-52.985-71.5-52.985H-84c-62.5 0-66 47.223-66 53.985v186c0 54.5 59.235 60 66 60l161.5.029c6.765 0 72.5-.029 72.5-60.029v-187z"/></symbol><use xlink:href="#a" width="300" height="300.015" x="-150" y="-150" transform="matrix(1 0 0 -1 150 150)" overflow="visible"/><g fill="#080828"><path d="M31.833 239.17h-9.217v-4.944H47.05v4.944h-9.313v27.41h-5.904v-27.41zM51.081 256.547c.144 4.225 3.456 6.049 7.201 6.049 2.736 0 4.704-.384 6.48-1.056l.864 4.08c-2.017.816-4.801 1.44-8.161 1.44-7.584 0-12.049-4.657-12.049-11.81 0-6.48 3.937-12.577 11.425-12.577 7.585 0 10.081 6.24 10.081 11.377 0 1.104-.096 1.969-.192 2.496H51.081zm10.273-4.128c.048-2.16-.912-5.713-4.849-5.713-3.648 0-5.185 3.313-5.424 5.713h10.273zM71.672 232.497h5.952v34.083h-5.952v-34.083zM88.184 256.547c.144 4.225 3.456 6.049 7.201 6.049 2.736 0 4.704-.384 6.48-1.056l.864 4.08c-2.016.816-4.8 1.44-8.161 1.44-7.584 0-12.049-4.657-12.049-11.81 0-6.48 3.937-12.577 11.425-12.577 7.585 0 10.081 6.24 10.081 11.377 0 1.104-.096 1.969-.192 2.496H88.184zm10.273-4.128c.048-2.16-.912-5.713-4.849-5.713-3.648 0-5.185 3.313-5.424 5.713h10.273zM131 254.675c0 8.593-6.048 12.434-12.001 12.434-6.625 0-11.713-4.561-11.713-12.05 0-7.68 5.041-12.385 12.097-12.385 6.961 0 11.617 4.896 11.617 12.001zm-17.617.24c0 4.513 2.208 7.921 5.808 7.921 3.36 0 5.713-3.313 5.713-8.017 0-3.648-1.632-7.825-5.665-7.825-4.176 0-5.856 4.032-5.856 7.921zM135.654 266.58c.096-1.584.192-4.177.192-6.576v-27.507h5.904v13.921h.096c1.44-2.256 3.984-3.744 7.488-3.744 5.713 0 9.793 4.753 9.745 11.857 0 8.4-5.328 12.577-10.608 12.577-3.024 0-5.712-1.152-7.393-4.032h-.096l-.288 3.504h-5.04zm6.097-9.648c0 .479.048.96.144 1.392.624 2.353 2.688 4.129 5.232 4.129 3.696 0 5.953-2.977 5.953-7.681 0-4.129-1.969-7.489-5.905-7.489-2.4 0-4.56 1.729-5.232 4.32-.096.433-.192.96-.192 1.536v3.793zM158.742 272.005c1.92-.145 3.455-.673 4.416-1.681 1.104-1.2 1.536-3.024 1.536-8.112v-19.01h5.904v20.689c0 4.849-.912 7.873-3.024 9.985-2.064 1.92-5.328 2.736-8.256 2.736l-.576-4.607zm12.193-35.331c0 1.728-1.248 3.168-3.36 3.168-1.968 0-3.217-1.44-3.217-3.168 0-1.824 1.297-3.217 3.313-3.217s3.264 1.393 3.264 3.217zM181.063 256.547c.144 4.225 3.455 6.049 7.2 6.049 2.736 0 4.704-.384 6.48-1.056l.864 4.08c-2.017.816-4.801 1.44-8.161 1.44-7.585 0-12.049-4.657-12.049-11.81 0-6.48 3.937-12.577 11.425-12.577 7.585 0 10.081 6.24 10.081 11.377 0 1.104-.096 1.969-.192 2.496h-15.648zm10.272-4.128c.048-2.16-.912-5.713-4.849-5.713-3.648 0-5.185 3.313-5.424 5.713h10.273zM207.558 253.475h.096c.576-.912 1.248-1.92 1.872-2.736l5.664-7.536h7.105l-8.642 9.553 9.89 13.825h-7.249l-6.721-10.321-2.016 2.353v7.969h-5.905v-34.083h5.905v20.976zM232.853 236.529v6.673h5.617v4.416h-5.617v10.321c0 2.832.769 4.32 3.024 4.32a8.78 8.78 0 0 0 2.305-.288l.096 4.513c-.864.336-2.4.576-4.272.576-2.16 0-3.984-.721-5.088-1.921-1.249-1.344-1.824-3.456-1.824-6.528v-10.993h-3.36v-4.416h3.36v-5.28l5.759-1.393zM249.221 236.674c0 1.775-1.296 3.168-3.36 3.168-1.969 0-3.265-1.393-3.265-3.168 0-1.824 1.345-3.217 3.313-3.217 2.016 0 3.264 1.393 3.312 3.217zm-6.289 29.906v-23.378h5.953v23.378h-5.953zM258.965 243.202l3.793 11.856c.672 2.064 1.152 3.937 1.584 5.857h.144c.433-1.921.961-3.745 1.585-5.857l3.696-11.856h6.24l-8.929 23.378h-5.809l-8.688-23.378h6.384z"/></g><path fill="none" stroke="#FFF" stroke-width="4" stroke-miterlimit="10" d="M31 58h238M32 188h237"/><path fill="none" stroke="#FFF" stroke-width="2" stroke-miterlimit="10" d="M32 56v132"/><path fill="none" stroke="#FFF" stroke-width="4" stroke-miterlimit="10" d="M267 56v131"/><use xlink:href="#b" width="69.462" height="63.668" x="-34.731" y="-31.834" transform="matrix(2.8923 0 0 -2.8923 149.901 111.626)" overflow="visible"/></g></switch></svg>