<?xml version="1.0" encoding="UTF-8" standalone="no"?>
<svg
   xmlns:dc="http://purl.org/dc/elements/1.1/"
   xmlns:cc="http://creativecommons.org/ns#"
   xmlns:rdf="http://www.w3.org/1999/02/22-rdf-syntax-ns#"
   xmlns:svg="http://www.w3.org/2000/svg"
   xmlns="http://www.w3.org/2000/svg"
   viewBox="0 0 375 375"
   height="375"
   width="375"
   xml:space="preserve"
   version="1.1"
   id="svg2"><metadata
     id="metadata8"><rdf:RDF><cc:Work
         rdf:about=""><dc:format>image/svg+xml</dc:format><dc:type
           rdf:resource="http://purl.org/dc/dcmitype/StillImage" /></cc:Work></rdf:RDF></metadata><defs
     id="defs6" /><g
     transform="matrix(1.25,0,0,-1.25,0,375)"
     id="g10"><g
       transform="scale(0.1,0.1)"
       id="g12"><path
         id="path14"
         style="fill:#91c4ab;fill-opacity:1;fill-rule:nonzero;stroke:none"
         d="m 3000,529.719 c 0,-67.641 -0.02,-536.43384 -715.02,-536.43384 l -1625,0 C 34.9805,-6.71484 0,472.078 0,539.719 L 0,2399.71 c 0,545 592.332,600 659.988,600 L 2274.98,3000 c 67.66,0 725.02,-0.29 725.02,-600.29" /><path
         id="path16"
         style="fill:#012b16;fill-opacity:1;fill-rule:nonzero;stroke:none"
         d="m 197.672,666 59.5,0 0,137.25 c 0,6.719 0.484,13.906 2.406,19.188 6.235,17.75 22.547,34.546 46.063,34.546 32.156,0 44.625,-25.421 44.625,-59.015 l 0,-131.969 59.031,0 0,138.688 c 0,73.89 -42.234,100.296 -83.016,100.296 -38.875,0 -64.312,-22.078 -74.39,-40.312 l -1.438,0 -2.875,35.031 -51.828,0 c 1.438,-20.156 1.922,-42.719 1.922,-69.594 l 0,-164.109" /><path
         id="path18"
         style="fill:#012b16;fill-opacity:1;fill-rule:nonzero;stroke:none"
         d="m 577.719,904.984 c -70.531,0 -120.922,-47.031 -120.922,-123.812 0,-74.859 50.859,-120.453 117.094,-120.453 59.5,0 119.968,38.39 119.968,124.297 0,71.015 -46.546,119.968 -116.14,119.968 z m -1.438,-43.203 c 40.313,0 56.625,-41.734 56.625,-78.218 0,-47.016 -23.515,-80.125 -57.109,-80.125 -35.984,0 -58.063,34.062 -58.063,79.171 0,38.875 16.797,79.172 58.547,79.172" /><path
         id="path20"
         style="fill:#012b16;fill-opacity:1;fill-rule:nonzero;stroke:none"
         d="m 742.672,666 59.5,0 0,137.25 c 0,6.719 0.484,13.906 2.406,19.188 6.235,17.75 22.547,34.546 46.063,34.546 32.156,0 44.625,-25.421 44.625,-59.015 l 0,-131.969 59.031,0 0,138.688 c 0,73.89 -42.234,100.296 -83.016,100.296 -38.875,0 -64.312,-22.078 -74.39,-40.312 l -1.438,0 -2.875,35.031 -51.828,0 c 1.438,-20.156 1.922,-42.719 1.922,-69.594 l 0,-164.109" /><path
         id="path22"
         style="fill:#012b16;fill-opacity:1;fill-rule:nonzero;stroke:none"
         d="m 1000.39,773.484 122.375,0 0,40.7969 -122.375,0 0,-40.7969 z" /><path
         id="path24"
         style="fill:#012b16;fill-opacity:1;fill-rule:nonzero;stroke:none"
         d="m 1333.11,1006.72 0,-132.454 -0.95,0 c -10.57,17.281 -33.6,30.718 -65.75,30.718 -56.14,0 -105.1,-46.546 -104.61,-124.781 0,-71.969 44.14,-119.484 99.81,-119.484 34.08,0 62.39,16.312 76.3,42.234 l 0.97,0 2.39,-36.953 52.79,0 c -0.97,15.828 -1.92,41.75 -1.92,65.75 l 0,274.97 -59.03,0 z m 0,-239.47 c 0,-6.234 -0.48,-12 -1.92,-17.266 -5.75,-25.437 -26.88,-41.75 -50.86,-41.75 -37.44,0 -58.55,31.188 -58.55,73.891 0,43.672 21.11,77.266 59.02,77.266 26.87,0 45.59,-18.719 50.87,-41.75 0.96,-4.797 1.44,-10.563 1.44,-15.36 l 0,-35.031" /><path
         id="path26"
         style="fill:#012b16;fill-opacity:1;fill-rule:nonzero;stroke:none"
         d="m 1515.17,666 0,233.703 -59.5,0 0,-233.703 59.5,0 z m -29.75,331.109 c -19.67,0 -33.11,-13.906 -33.11,-32.14 0,-17.766 12.96,-31.672 32.63,-31.672 20.64,0 33.59,13.906 33.59,31.672 -0.47,18.234 -12.95,32.14 -33.11,32.14" /><path
         id="path28"
         style="fill:#012b16;fill-opacity:1;fill-rule:nonzero;stroke:none"
         d="m 1776.86,766.297 c 0.95,5.281 1.92,13.906 1.92,24.953 0,51.344 -24.95,113.734 -100.78,113.734 -74.86,0 -114.2,-60.953 -114.2,-125.734 0,-71.5 44.62,-118.047 120.45,-118.047 33.58,0 61.42,6.235 81.58,14.391 l -8.64,40.797 c -17.75,-6.719 -37.44,-10.563 -64.78,-10.563 -37.44,0 -70.55,18.235 -71.99,60.469 l 156.44,0 z m -156.44,41.266 c 2.39,24 17.75,57.109 54.22,57.109 39.36,0 48.95,-35.516 48.47,-57.109 l -102.69,0" /><path
         id="path30"
         style="fill:#012b16;fill-opacity:1;fill-rule:nonzero;stroke:none"
         d="m 1988.88,899.703 -2.41,-31.203 -0.95,0 c -11.05,19.203 -32.16,36.484 -67.68,36.484 -56.14,0 -106.04,-46.546 -106.04,-123.328 0,-66.234 41.26,-114.218 99.33,-114.218 30.71,0 54.7,13.921 68.14,34.546 l 0.96,0 0,-20.156 c 0,-50.375 -28.79,-70.531 -67.18,-70.531 -28.32,0 -53.27,9.109 -68.14,17.75 l -12.96,-44.625 c 20.16,-12.484 51.83,-18.719 81.58,-18.719 32.16,0 65.74,6.719 90.22,28.313 24.47,22.078 34.55,57.109 34.55,106.062 l 0,132.438 c 0,32.156 0.95,51.343 1.92,67.187 l -51.34,0 z m -9.61,-131.484 c 0,-6.719 -0.96,-14.875 -2.39,-21.125 -6.72,-21.11 -25.93,-35.5 -47.99,-35.5 -36.95,0 -57.11,32.14 -57.11,71.969 0,47.515 24.47,76.312 57.58,76.312 24.95,0 41.75,-16.328 48,-37.922 1.44,-4.797 1.91,-10.547 1.91,-15.828 l 0,-37.906" /><path
         id="path32"
         style="fill:#012b16;fill-opacity:1;fill-rule:nonzero;stroke:none"
         d="m 2299.86,766.297 c 0.95,5.281 1.92,13.906 1.92,24.953 0,51.344 -24.95,113.734 -100.78,113.734 -74.86,0 -114.2,-60.953 -114.2,-125.734 0,-71.5 44.62,-118.047 120.45,-118.047 33.58,0 61.42,6.235 81.58,14.391 l -8.64,40.797 c -17.75,-6.719 -37.44,-10.563 -64.78,-10.563 -37.44,0 -70.55,18.235 -71.99,60.469 l 156.44,0 z m -156.44,41.266 c 2.39,24 17.75,57.109 54.22,57.109 39.36,0 48.95,-35.516 48.47,-57.109 l -102.69,0" /><path
         id="path34"
         style="fill:#012b16;fill-opacity:1;fill-rule:nonzero;stroke:none"
         d="m 2358.75,952.484 0,-52.781 -33.59,0 0,-44.156 33.59,0 0,-109.891 c 0,-30.703 5.75,-51.828 18.23,-65.265 11.04,-11.985 29.27,-19.188 50.86,-19.188 18.72,0 34.08,2.391 42.72,5.75 l -0.97,45.11 c -5.26,-1.438 -12.95,-2.875 -23.03,-2.875 -22.54,0 -30.23,14.875 -30.23,43.187 l 0,103.172 56.15,0 0,44.156 -56.15,0 0,66.703 -57.58,-13.922" /><path
         id="path36"
         style="fill:#012b16;fill-opacity:1;fill-rule:nonzero;stroke:none"
         d="m 2577.17,666 0,233.703 -59.5,0 0,-233.703 59.5,0 z m -29.75,331.109 c -19.67,0 -33.11,-13.906 -33.11,-32.14 0,-17.766 12.96,-31.672 32.63,-31.672 20.64,0 33.59,13.906 33.59,31.672 -0.47,18.234 -12.95,32.14 -33.11,32.14" /><path
         id="path38"
         style="fill:#012b16;fill-opacity:1;fill-rule:nonzero;stroke:none"
         d="m 2804.31,716.859 c -11.51,-4.796 -25.92,-9.109 -46.54,-9.109 -40.32,0 -71.5,27.359 -71.5,75.344 -0.49,42.703 26.39,75.812 71.5,75.812 21.11,0 35.03,-4.797 44.62,-9.109 l 10.56,44.141 c -13.43,6.234 -35.51,11.046 -57.11,11.046 -82.06,0 -130.04,-54.718 -130.04,-124.781 0,-72.453 47.5,-119 120.45,-119 29.27,0 53.73,6.235 66.22,12 l -8.16,43.656" /><path
         id="path40"
         style="fill:#012b16;fill-opacity:1;fill-rule:nonzero;stroke:none"
         d="m 916.672,186 57.578,0 0,138.203 c 0,6.719 0.969,13.438 3.359,19.203 5.282,16.313 20.157,33.578 42.231,33.578 27.36,0 40.32,-23.031 40.32,-55.656 l 0,-135.328 57.57,0 0,140.125 c 0,6.719 1.44,13.922 2.9,19.672 6.23,16.797 21.1,31.187 41.26,31.187 28.31,0 41.75,-23.031 41.75,-61.89 l 0,-129.094 57.58,0 0,137.719 c 0,74.859 -39.34,101.265 -78.22,101.265 -19.19,0 -34.06,-4.812 -47.03,-13.921 -11.03,-6.719 -20.63,-16.313 -28.78,-29.282 l -0.97,0 c -10.08,25.922 -34.06,43.203 -64.78,43.203 -39.35,0 -60.471,-21.593 -71.987,-39.843 l -1.437,0 -2.391,34.562 -50.875,0 c 1.438,-20.156 1.922,-42.719 1.922,-69.594 l 0,-164.109" /><path
         id="path42"
         style="fill:#012b16;fill-opacity:1;fill-rule:nonzero;stroke:none"
         d="m 1532.89,419.703 -59.01,0 0,-141.094 c 0,-6.718 -1.44,-12.953 -3.36,-18.234 -6.24,-14.875 -21.6,-31.672 -45.11,-31.672 -31.19,0 -43.68,24.953 -43.68,63.828 l 0,127.172 -59.01,0 0,-137.25 c 0,-76.297 38.86,-101.734 81.58,-101.734 41.75,0 64.78,24 74.86,40.797 l 0.95,0 2.87,-35.516 51.83,0 c -0.95,19.188 -1.92,42.234 -1.92,70.063 l 0,163.64" /><path
         id="path44"
         style="fill:#012b16;fill-opacity:1;fill-rule:nonzero;stroke:none"
         d="m 1583.28,197.516 c 17.27,-9.594 42.7,-16.313 71.02,-16.313 61.9,0 95.01,30.703 95.01,72.938 -0.48,34.547 -20.15,56.14 -62.39,71.5 -29.75,10.562 -40.78,17.765 -40.78,32.64 0,14.391 11.52,24.469 32.63,24.469 20.64,0 39.36,-7.672 49.43,-13.437 l 11.52,41.75 c -13.44,7.203 -36,13.921 -61.91,13.921 -54.23,0 -88.29,-32.156 -88.29,-73.421 -0.49,-27.36 18.71,-52.313 64.29,-68.141 28.8,-10.078 38.39,-18.25 38.39,-34.078 0,-15.36 -11.51,-25.906 -37.42,-25.906 -21.12,0 -46.55,8.625 -59.98,16.781 l -11.52,-42.703" /><path
         id="path46"
         style="fill:#012b16;fill-opacity:1;fill-rule:nonzero;stroke:none"
         d="m 1857.17,186 0,233.703 -59.5,0 0,-233.703 59.5,0 z m -29.75,331.109 c -19.67,0 -33.11,-13.906 -33.11,-32.14 0,-17.766 12.96,-31.672 32.63,-31.672 20.64,0 33.59,13.906 33.59,31.672 -0.47,18.234 -12.95,32.14 -33.11,32.14" /><path
         id="path48"
         style="fill:#012b16;fill-opacity:1;fill-rule:nonzero;stroke:none"
         d="m 2084.31,236.859 c -11.51,-4.796 -25.92,-9.109 -46.54,-9.109 -40.32,0 -71.5,27.359 -71.5,75.344 -0.49,42.703 26.39,75.812 71.5,75.812 21.11,0 35.03,-4.797 44.62,-9.109 l 10.56,44.141 c -13.43,6.234 -35.51,11.046 -57.11,11.046 -82.06,0 -130.04,-54.718 -130.04,-124.781 0,-72.453 47.5,-119 120.45,-119 29.27,0 53.73,6.235 66.22,12 l -8.16,43.656" /><path
         id="path50"
         style="fill:#000000;fill-opacity:1;fill-rule:evenodd;stroke:none"
         d="m 900,1640 1850,0 0,1130 -1850,0 0,-1130 z" /><path
         id="path52"
         style="fill:#ffffff;fill-opacity:1;fill-rule:evenodd;stroke:none"
         d="m 990,1730 130,0 0,50 -130,0 0,-50 z" /><path
         id="path54"
         style="fill:#ffffff;fill-opacity:1;fill-rule:evenodd;stroke:none"
         d="m 990,1900 130,0 0,50 -130,0 0,-50 z" /><path
         id="path56"
         style="fill:#ffffff;fill-opacity:1;fill-rule:evenodd;stroke:none"
         d="m 990,2080 130,0 0,50 -130,0 0,-50 z" /><path
         id="path58"
         style="fill:#ffffff;fill-opacity:1;fill-rule:evenodd;stroke:none"
         d="m 990,2250 130,0 0,50 -130,0 0,-50 z" /><path
         id="path60"
         style="fill:#ffffff;fill-opacity:1;fill-rule:evenodd;stroke:none"
         d="m 990,2420 130,0 0,50 -130,0 0,-50 z" /><path
         id="path62"
         style="fill:#ffffff;fill-opacity:1;fill-rule:evenodd;stroke:none"
         d="m 990,2600 130,0 0,50 -130,0 0,-50 z" /><path
         id="path64"
         style="fill:#ffffff;fill-opacity:1;fill-rule:evenodd;stroke:none"
         d="m 2530,1730 130,0 0,50 -130,0 0,-50 z" /><path
         id="path66"
         style="fill:#ffffff;fill-opacity:1;fill-rule:evenodd;stroke:none"
         d="m 2530,1900 130,0 0,50 -130,0 0,-50 z" /><path
         id="path68"
         style="fill:#ffffff;fill-opacity:1;fill-rule:evenodd;stroke:none"
         d="m 2530,2080 130,0 0,50 -130,0 0,-50 z" /><path
         id="path70"
         style="fill:#ffffff;fill-opacity:1;fill-rule:evenodd;stroke:none"
         d="m 2530,2250 130,0 0,50 -130,0 0,-50 z" /><path
         id="path72"
         style="fill:#ffffff;fill-opacity:1;fill-rule:evenodd;stroke:none"
         d="m 2530,2420 130,0 0,50 -130,0 0,-50 z" /><path
         id="path74"
         style="fill:#ffffff;fill-opacity:1;fill-rule:evenodd;stroke:none"
         d="m 2530,2600 130,0 0,50 -130,0 0,-50 z" /><path
         id="path76"
         style="fill:#ffffff;fill-opacity:1;fill-rule:evenodd;stroke:none"
         d="m 1200,1770 1250,0 0,870 -1250,0 0,-870 z" /><path
         id="path78"
         style="fill:#c1272d;fill-opacity:1;fill-rule:evenodd;stroke:none"
         d="m 611.914,2192.04 c 46.172,-252.77 -99.789,-379.22 -99.789,-379.22 l 33.328,-110.25 c 0,0 267.731,99.3 346.039,-125.71 67.781,-194.85 -173.769,-320.56 -174.597,-323.29 36.078,-101.93 64.148,-196.61 -51.301,-252.91 -49.531,-24.164 -147.328,-51.574 -186.489,28.73 -20.429,41.9 -16.132,93.7 31.528,116.95 53.031,25.86 98.359,2.76 119.711,-41.02 7.992,-16.39 21.16,-57.36 -6.34,-75.25 6.41,0.81 13.672,4.34 17.422,6.18 87.929,42.88 56.328,144.82 34.976,188.61 -2.687,5.5 -4.449,9.12 -9.847,10.99 -176.7,-70.39 -335.129,8.1 -396.5,133.93 -15.981,32.77 -28.289,71.98 -29.629,111.88 -1.442,30.89 0.75,63.54 7.547,96.28 18.531,106.11 84.863,205.04 139.832,275.82 11.23,14.45 41.738,54.11 41.738,54.11 0,0 -165.34,448.25 -9.34,521.39 58.09,27.24 166.68,-100.17 191.711,-237.22 m -87.281,60.24 c 36.742,-91.55 28.75,-189.11 -58.207,-303.83 0,0 -101.961,350.96 -28.942,403.46 26.461,19.1 81.989,-86.52 87.149,-99.63 m -21.328,-570.26 c 0,0 -193.7,-95.56 -118.61,-268.25 12.969,-29.75 65.418,-87.47 100.91,-67.54 15.208,8.5 -19.39,40.72 -33.761,67 -65.52,120.39 84.16,183.32 84.16,183.32 l 112.93,-310.62 -18.379,-8.97 c -62.18,-25.83 -231.813,-60.25 -303.942,97.8 -82.05,180 72.692,332.25 146.871,401.1 l 29.821,-93.84 z m 252.668,-127.29 c 57.152,-92.11 -2.258,-190.61 -62.078,-235.57 l -112.141,290.57 c 68.422,8.59 137.148,4.81 174.219,-55" /></g></g></svg>