<svg xmlns="http://www.w3.org/2000/svg" xmlns:xlink="http://www.w3.org/1999/xlink" width="300" height="300" viewBox="0 0 300 300"><switch><g><symbol id="a" viewBox="-150 -150 300 300.007"><path fill="#CE8E95" d="M150-97.021c0-6.764 0-52.979-71.5-52.979H-84c-62.5 0-66 47.215-66 53.979v186c0 54.5 59.235 60 66 60l161.5.029c6.765 0 72.5-.029 72.5-60.029v-187z"/></symbol><use xlink:href="#a" width="300" height="300.007" x="-150" y="-150" transform="matrix(1 0 0 -1 150 150)" overflow="visible"/><g fill="#26080D"><path d="M67.674 258.777v-18.962h-3.168v-4.416h3.168v-1.008c0-3.024.816-6.049 2.832-7.969 1.729-1.633 4.081-2.257 6.097-2.257 1.584 0 2.833.24 3.792.576l-.432 4.561c-.624-.24-1.44-.432-2.496-.432-2.928 0-3.937 2.448-3.937 5.328v1.2h5.137v4.416h-5.089v18.962h-5.904zM95.467 258.777l-.384-2.592h-.144c-1.44 1.824-3.888 3.12-6.913 3.12-4.705 0-7.345-3.408-7.345-6.961 0-5.904 5.232-8.881 13.873-8.833v-.384c0-1.536-.624-4.08-4.752-4.08-2.304 0-4.704.72-6.289 1.728l-1.152-3.84c1.728-1.057 4.752-2.064 8.449-2.064 7.489 0 9.649 4.753 9.649 9.841v8.449c0 2.112.096 4.176.336 5.616h-5.328zm-.768-11.424c-4.176-.097-8.161.815-8.161 4.368 0 2.305 1.488 3.36 3.36 3.36 2.352 0 4.081-1.536 4.608-3.216a4.25 4.25 0 0 0 .192-1.297v-3.215zM128.251 224.694v27.507c0 2.399.096 4.992.192 6.576h-5.28l-.24-3.696h-.096c-1.392 2.592-4.225 4.225-7.633 4.225-5.568 0-9.985-4.753-9.985-11.953-.048-7.825 4.848-12.481 10.465-12.481 3.216 0 5.521 1.345 6.577 3.072h.096v-13.249h5.904zm-5.904 20.451a8.31 8.31 0 0 0-.144-1.536c-.528-2.305-2.4-4.177-5.089-4.177-3.792 0-5.904 3.36-5.904 7.729 0 4.272 2.112 7.393 5.856 7.393 2.4 0 4.513-1.632 5.088-4.176.144-.528.192-1.104.192-1.729v-3.504zM138.762 248.744c.144 4.225 3.456 6.049 7.201 6.049 2.736 0 4.704-.384 6.481-1.056l.863 4.08c-2.016.816-4.8 1.44-8.161 1.44-7.584 0-12.049-4.657-12.049-11.81 0-6.48 3.937-12.577 11.425-12.577 7.585 0 10.082 6.24 10.082 11.377 0 1.104-.097 1.969-.192 2.496h-15.65zm10.273-4.128c.048-2.16-.912-5.713-4.849-5.713-3.648 0-5.185 3.313-5.424 5.713h10.273zM171.258 243.944v4.08h-12.242v-4.08h12.242zM198.905 246.872c0 8.593-6.048 12.434-12.001 12.434-6.625 0-11.713-4.561-11.713-12.05 0-7.68 5.041-12.385 12.098-12.385 6.96 0 11.616 4.897 11.616 12.001zm-17.617.24c0 4.513 2.208 7.921 5.808 7.921 3.361 0 5.713-3.313 5.713-8.017 0-3.648-1.632-7.825-5.664-7.825-4.176 0-5.857 4.033-5.857 7.921zM224.68 251.769a137 137 0 0 0 .192 7.009h-5.185l-.288-3.553h-.096c-1.008 1.681-3.313 4.081-7.488 4.081-4.272 0-8.161-2.545-8.161-10.177V235.4h5.904v12.721c0 3.889 1.248 6.385 4.368 6.385 2.353 0 3.889-1.68 4.513-3.168a5.366 5.366 0 0 0 .336-1.824v-14.113h5.904v16.368zM237.831 228.727v6.673h5.617v4.416h-5.617v10.321c0 2.832.769 4.32 3.024 4.32a8.78 8.78 0 0 0 2.305-.288l.096 4.513c-.864.336-2.4.576-4.272.576-2.16 0-3.984-.721-5.088-1.921-1.249-1.344-1.824-3.456-1.824-6.528v-10.993h-3.36V235.4h3.36v-5.28l5.759-1.393z"/></g><path fill="#FFF" d="M50 72h100v117H50z"/><path fill="#333" d="M92.678 126.543l-3.962 13.048H80.04l14.756-46.043h10.725l14.961 46.043h-9.018l-4.167-13.048H92.678zm13.184-6.353l-3.621-11.34c-.888-2.801-1.64-5.943-2.323-8.607h-.137c-.683 2.664-1.366 5.875-2.186 8.607l-3.552 11.34h11.819z"/><path fill="#FFF" d="M160.018 75.586l9 .016-.016 9-9-.015zM159.99 90.586l9 .016-.016 9.001-9-.016zM159.958 105.595l9 .016-.017 9-8.999-.016zM159.932 120.593l8.999.017-.017 9-9-.017zM159.904 135.593l9 .017-.017 9-9-.017zM159.87 150.6l8.998.019-.018 8.999-8.999-.018zM159.842 164.601l9.001.018-.018 9-9-.019zM159.83 179.586l9 .016-.017 9-9-.016zM176.003 83.564l9 .016-.016 9.001-9-.016zM175.976 98.564l9 .016-.016 9.001-9-.016zM175.944 113.573l9 .017-.016 9-9.001-.017zM175.916 128.573l9 .017-.017 9-9-.017zM175.897 142.565l8.999.016-.016 9-9-.016zM175.872 156.564l8.999.016-.017 9.001-8.999-.016zM175.844 171.565l9 .016-.016 9-9-.016zM192.074 99.594l9 .016-.015 9-9-.015zM192.059 117.592l9 .017-.015 9-9.001-.017zM192.017 136.603l9 .016-.017 9.001-9-.016zM192.007 154.593l9 .016-.016 9-9-.015zM204.816 82.413l9 .016-.016 9-9-.016zM206.877 105.372l9 .015-.015 9.001-9-.015zM209.068 139.34l8.999.016-.016 9-9-.016zM206.23 169.383l9 .016-.017 9-8.999-.016zM224.813 122.104l8.998.016-.016 9-8.998-.016zM228.974 152.042l9 .016-.017 9-8.999-.016zM226.376 93.087l9 .017-.017 8.999-9-.017z"/></g></switch></svg>