<?xml version="1.0" encoding="UTF-8" standalone="no"?>
<svg
   xmlns:dc="http://purl.org/dc/elements/1.1/"
   xmlns:cc="http://creativecommons.org/ns#"
   xmlns:rdf="http://www.w3.org/1999/02/22-rdf-syntax-ns#"
   xmlns:svg="http://www.w3.org/2000/svg"
   xmlns="http://www.w3.org/2000/svg"
   viewBox="0 0 375 375"
   height="375"
   width="375"
   xml:space="preserve"
   version="1.1"
   id="svg2"><metadata
     id="metadata8"><rdf:RDF><cc:Work
         rdf:about=""><dc:format>image/svg+xml</dc:format><dc:type
           rdf:resource="http://purl.org/dc/dcmitype/StillImage" /></cc:Work></rdf:RDF></metadata><defs
     id="defs6" /><g
     transform="matrix(1.25,0,0,-1.25,0,375)"
     id="g10"><g
       transform="scale(0.1,0.1)"
       id="g12"><path
         id="path14"
         style="fill:#aebcc4;fill-opacity:1;fill-rule:nonzero;stroke:none"
         d="m 3000,529.855 c 0,-67.632 0,-529.85109375 -715,-529.85109375 l -1625,0 C 35,0.00390625 0,472.223 0,539.855 L 0,2399.86 c 0,545 592.352,600 660,600 l 1615,0.28 c 67.65,0 725,-0.28 725,-600.28" /><path
         id="path16"
         style="fill:#080828;fill-opacity:1;fill-rule:nonzero;stroke:none"
         d="m 541.719,877.984 c -70.531,0 -120.922,-47.031 -120.922,-123.812 0,-74.859 50.859,-120.453 117.094,-120.453 59.5,0 119.968,38.39 119.968,124.297 0,71.015 -46.546,119.968 -116.14,119.968 z m -1.438,-43.203 c 40.313,0 56.625,-41.734 56.625,-78.218 0,-47.016 -23.515,-80.125 -57.109,-80.125 -35.984,0 -58.063,34.062 -58.063,79.171 0,38.875 16.797,79.172 58.547,79.172" /><path
         id="path18"
         style="fill:#080828;fill-opacity:1;fill-rule:nonzero;stroke:none"
         d="m 706.672,639 57.578,0 0,138.203 c 0,6.719 0.969,13.438 3.359,19.203 5.282,16.313 20.157,33.578 42.235,33.578 27.359,0 40.312,-23.031 40.312,-55.656 l 0,-135.328 57.578,0 0,140.125 c 0,6.719 1.438,13.922 2.891,19.672 6.234,16.797 21.109,31.187 41.266,31.187 28.312,0 41.75,-23.031 41.75,-61.89 l 0,-129.094 57.579,0 0,137.719 c 0,74.859 -39.34,101.265 -78.22,101.265 -19.187,0 -34.062,-4.812 -47.031,-13.921 -11.031,-6.719 -20.625,-16.313 -28.781,-29.282 l -0.969,0 c -10.078,25.922 -34.063,43.203 -64.781,43.203 -39.344,0 -60.469,-21.593 -71.985,-39.843 l -1.437,0 -2.391,34.562 -50.875,0 c 1.438,-20.156 1.922,-42.719 1.922,-69.594 l 0,-164.109" /><path
         id="path20"
         style="fill:#080828;fill-opacity:1;fill-rule:nonzero;stroke:none"
         d="m 1113.67,639 59.5,0 0,137.25 c 0,6.719 0.49,13.906 2.41,19.188 6.23,17.75 22.55,34.546 46.06,34.546 32.16,0 44.63,-25.421 44.63,-59.015 l 0,-131.969 59.03,0 0,138.688 c 0,73.89 -42.24,100.296 -83.02,100.296 -38.87,0 -64.31,-22.078 -74.39,-40.312 l -1.44,0 -2.87,35.031 -51.83,0 c 1.44,-20.156 1.92,-42.719 1.92,-69.594 l 0,-164.109" /><path
         id="path22"
         style="fill:#080828;fill-opacity:1;fill-rule:nonzero;stroke:none"
         d="m 1447.17,639 0,233.703 -59.5,0 0,-233.703 59.5,0 z m -29.75,331.109 c -19.67,0 -33.11,-13.906 -33.11,-32.14 0,-17.766 12.96,-31.672 32.63,-31.672 20.64,0 33.59,13.906 33.59,31.672 -0.47,18.234 -12.95,32.14 -33.11,32.14" /><path
         id="path24"
         style="fill:#080828;fill-opacity:1;fill-rule:nonzero;stroke:none"
         d="m 1496.28,650.516 c 17.27,-9.594 42.7,-16.313 71.02,-16.313 61.9,0 95.01,30.703 95.01,72.938 -0.48,34.547 -20.15,56.14 -62.39,71.5 -29.75,10.562 -40.78,17.765 -40.78,32.64 0,14.391 11.52,24.469 32.63,24.469 20.64,0 39.36,-7.672 49.43,-13.437 l 11.52,41.75 c -13.44,7.203 -36,13.921 -61.91,13.921 -54.23,0 -88.29,-32.156 -88.29,-73.421 -0.49,-27.36 18.71,-52.313 64.29,-68.141 28.8,-10.078 38.39,-18.25 38.39,-34.078 0,-15.36 -11.51,-25.906 -37.42,-25.906 -21.12,0 -46.55,8.625 -59.98,16.781 l -11.52,-42.703" /><path
         id="path26"
         style="fill:#080828;fill-opacity:1;fill-rule:nonzero;stroke:none"
         d="m 1874.31,689.859 c -11.51,-4.796 -25.92,-9.109 -46.54,-9.109 -40.32,0 -71.5,27.359 -71.5,75.344 -0.49,42.703 26.39,75.812 71.5,75.812 21.11,0 35.03,-4.797 44.62,-9.109 l 10.56,44.141 c -13.43,6.234 -35.51,11.046 -57.11,11.046 -82.06,0 -130.04,-54.718 -130.04,-124.781 0,-72.453 47.5,-119 120.45,-119 29.27,0 53.73,6.235 66.22,12 l -8.16,43.656" /><path
         id="path28"
         style="fill:#080828;fill-opacity:1;fill-rule:nonzero;stroke:none"
         d="m 1986.17,639 0,233.703 -59.5,0 0,-233.703 59.5,0 z m -29.75,331.109 c -19.67,0 -33.11,-13.906 -33.11,-32.14 0,-17.766 12.96,-31.672 32.63,-31.672 20.64,0 33.59,13.906 33.59,31.672 -0.47,18.234 -12.95,32.14 -33.11,32.14" /><path
         id="path30"
         style="fill:#080828;fill-opacity:1;fill-rule:nonzero;stroke:none"
         d="m 2247.86,739.297 c 0.95,5.281 1.92,13.906 1.92,24.953 0,51.344 -24.95,113.734 -100.78,113.734 -74.86,0 -114.2,-60.953 -114.2,-125.734 0,-71.5 44.62,-118.047 120.45,-118.047 33.58,0 61.42,6.235 81.58,14.391 l -8.64,40.797 c -17.75,-6.719 -37.44,-10.563 -64.78,-10.563 -37.44,0 -70.55,18.235 -71.99,60.469 l 156.44,0 z m -156.44,41.266 c 2.39,24 17.75,57.109 54.22,57.109 39.36,0 48.95,-35.516 48.47,-57.109 l -102.69,0" /><path
         id="path32"
         style="fill:#080828;fill-opacity:1;fill-rule:nonzero;stroke:none"
         d="m 2296.67,639 59.5,0 0,137.25 c 0,6.719 0.49,13.906 2.41,19.188 6.23,17.75 22.55,34.546 46.06,34.546 32.16,0 44.63,-25.421 44.63,-59.015 l 0,-131.969 59.03,0 0,138.688 c 0,73.89 -42.24,100.296 -83.02,100.296 -38.87,0 -64.31,-22.078 -74.39,-40.312 l -1.44,0 -2.87,35.031 -51.83,0 c 1.44,-20.156 1.92,-42.719 1.92,-69.594 l 0,-164.109" /><path
         id="path34"
         style="fill:#080828;fill-opacity:1;fill-rule:nonzero;stroke:none"
         d="m 2579.75,925.484 0,-52.781 -33.59,0 0,-44.156 33.59,0 0,-109.891 c 0,-30.703 5.75,-51.828 18.23,-65.265 11.04,-11.985 29.27,-19.188 50.86,-19.188 18.72,0 34.08,2.391 42.72,5.75 l -0.97,45.11 c -5.26,-1.438 -12.95,-2.875 -23.03,-2.875 -22.54,0 -30.23,14.875 -30.23,43.187 l 0,103.172 56.15,0 0,44.156 -56.15,0 0,66.703 -57.58,-13.922" /><path
         id="path36"
         style="fill:#080828;fill-opacity:1;fill-rule:nonzero;stroke:none"
         d="m 988.313,209.859 c -11.516,-4.796 -25.922,-9.109 -46.547,-9.109 -40.313,0 -71.5,27.359 -71.5,75.344 -0.485,42.703 26.39,75.812 71.5,75.812 21.109,0 35.031,-4.797 44.625,-9.109 l 10.562,44.141 c -13.437,6.234 -35.515,11.046 -57.109,11.046 -82.063,0 -130.047,-54.718 -130.047,-124.781 0,-72.453 47.5,-119 120.453,-119 29.266,0 53.734,6.235 66.219,12 l -8.156,43.656" /><path
         id="path38"
         style="fill:#080828;fill-opacity:1;fill-rule:nonzero;stroke:none"
         d="m 1224.42,159 c -2.39,14.391 -3.36,35.031 -3.36,56.141 l 0,84.468 c 0,50.86 -21.59,98.375 -96.45,98.375 -36.95,0 -67.19,-10.078 -84.45,-20.64 l 11.51,-38.391 c 15.83,10.078 39.83,17.281 62.86,17.281 41.27,0 47.52,-25.437 47.52,-40.796 l 0,-3.844 c -86.39,0.484 -138.69,-29.266 -138.69,-88.297 0,-35.5 26.39,-69.578 73.42,-69.578 30.24,0 54.7,12.953 69.1,31.187 l 1.43,0 3.85,-25.906 53.26,0 z m -60.94,82.063 c 0,-3.844 -0.48,-8.641 -1.92,-12.954 -5.28,-16.796 -22.56,-32.156 -46.08,-32.156 -18.7,0 -33.57,10.547 -33.57,33.594 0,35.5 39.82,44.625 81.57,43.656 l 0,-32.14" /><path
         id="path40"
         style="fill:#080828;fill-opacity:1;fill-rule:nonzero;stroke:none"
         d="m 1283.67,159 57.58,0 0,138.203 c 0,6.719 0.97,13.438 3.36,19.203 5.28,16.313 20.16,33.578 42.23,33.578 27.36,0 40.32,-23.031 40.32,-55.656 l 0,-135.328 57.57,0 0,140.125 c 0,6.719 1.44,13.922 2.9,19.672 6.23,16.797 21.1,31.187 41.26,31.187 28.31,0 41.75,-23.031 41.75,-61.89 l 0,-129.094 57.58,0 0,137.719 c 0,74.859 -39.34,101.265 -78.22,101.265 -19.19,0 -34.06,-4.812 -47.03,-13.921 -11.03,-6.719 -20.63,-16.313 -28.78,-29.282 l -0.97,0 c -10.08,25.922 -34.06,43.203 -64.78,43.203 -39.35,0 -60.47,-21.593 -71.99,-39.843 l -1.43,0 -2.39,34.562 -50.88,0 c 1.44,-20.156 1.92,-42.719 1.92,-69.594 l 0,-164.109" /><path
         id="path42"
         style="fill:#080828;fill-opacity:1;fill-rule:nonzero;stroke:none"
         d="m 1888.86,259.297 c 0.95,5.281 1.92,13.906 1.92,24.953 0,51.344 -24.95,113.734 -100.78,113.734 -74.86,0 -114.2,-60.953 -114.2,-125.734 0,-71.5 44.62,-118.047 120.45,-118.047 33.58,0 61.42,6.235 81.58,14.391 l -8.64,40.797 c -17.75,-6.719 -37.44,-10.563 -64.78,-10.563 -37.44,0 -70.55,18.235 -71.99,60.469 l 156.44,0 z m -156.44,41.266 c 2.39,24 17.75,57.109 54.22,57.109 39.36,0 48.95,-35.516 48.47,-57.109 l -102.69,0" /><path
         id="path44"
         style="fill:#080828;fill-opacity:1;fill-rule:nonzero;stroke:none"
         d="m 1938.67,159 59.03,0 0,120.922 c 0,6.719 0.96,12.969 1.91,18.234 5.28,26.407 24.48,44.641 52.8,44.641 7.18,0 12.47,-0.969 17.26,-1.922 l 0,55.656 c -4.79,0.969 -8.15,1.453 -13.9,1.453 -24.96,0 -52.32,-16.796 -63.83,-49.906 l -1.92,0 -1.93,44.625 -51.34,0 c 1.44,-21.125 1.92,-43.672 1.92,-75.344 l 0,-158.359" /><path
         id="path46"
         style="fill:#080828;fill-opacity:1;fill-rule:nonzero;stroke:none"
         d="m 2289.42,159 c -2.39,14.391 -3.36,35.031 -3.36,56.141 l 0,84.468 c 0,50.86 -21.59,98.375 -96.45,98.375 -36.95,0 -67.19,-10.078 -84.45,-20.64 l 11.51,-38.391 c 15.83,10.078 39.83,17.281 62.86,17.281 41.27,0 47.52,-25.437 47.52,-40.796 l 0,-3.844 c -86.39,0.484 -138.69,-29.266 -138.69,-88.297 0,-35.5 26.39,-69.578 73.42,-69.578 30.24,0 54.7,12.953 69.1,31.187 l 1.43,0 3.85,-25.906 53.26,0 z m -60.94,82.063 c 0,-3.844 -0.48,-8.641 -1.92,-12.954 -5.28,-16.796 -22.56,-32.156 -46.08,-32.156 -18.7,0 -33.57,10.547 -33.57,33.594 0,35.5 39.82,44.625 81.57,43.656 l 0,-32.14" /><path
         id="path48"
         style="fill:none;stroke:#ffffff;stroke-width:32.25;stroke-linecap:butt;stroke-linejoin:miter;stroke-miterlimit:10;stroke-dasharray:none;stroke-opacity:1"
         d="m 1545,1572.29 c 0,0 511.92,536.1 1048.04,0 0,0 -503.87,-540.15 -1048.04,0 z" /><path
         id="path50"
         style="fill:none;stroke:#ffffff;stroke-width:37.65999985;stroke-linecap:butt;stroke-linejoin:miter;stroke-miterlimit:10;stroke-dasharray:none;stroke-opacity:1"
         d="m 2270.57,1570.27 c 0,-125.78 -92.05,-227.75 -205.59,-227.75 -113.52,0 -205.57,101.97 -205.57,227.75 0,125.78 92.05,227.74 205.57,227.74 113.54,0 205.59,-101.96 205.59,-227.74 z" /><path
         id="path52"
         style="fill:#ffffff;fill-opacity:1;fill-rule:evenodd;stroke:none"
         d="m 2210.1,1572.29 c 0,-84.59 -64.07,-153.18 -143.1,-153.18 -79.02,0 -143.09,68.59 -143.09,153.18 0,84.59 64.07,153.17 143.09,153.17 79.03,0 143.1,-68.58 143.1,-153.17" /><path
         id="path54"
         style="fill:none;stroke:#ffffff;stroke-width:37.65999985;stroke-linecap:butt;stroke-linejoin:miter;stroke-miterlimit:10;stroke-dasharray:none;stroke-opacity:1"
         d="m 2210.1,1572.29 c 0,-84.59 -64.07,-153.18 -143.1,-153.18 -79.02,0 -143.09,68.59 -143.09,153.18 0,84.59 64.07,153.17 143.09,153.17 79.03,0 143.1,-68.58 143.1,-153.17 z" /><path
         id="path56"
         style="fill:none;stroke:#ffffff;stroke-width:20;stroke-linecap:butt;stroke-linejoin:miter;stroke-miterlimit:10;stroke-dasharray:none;stroke-opacity:1"
         d="m 1310,1315 1490,-5 -700,1005 -790,-1000 z" /><path
         id="path58"
         style="fill:#ffffff;fill-opacity:1;fill-rule:evenodd;stroke:none"
         d="m 781.797,2406.05 c -323.219,0.18 -585.141,-260.52 -585.828,-583.11 -0.703,-323.02 260.429,-584.19 583.976,-584.06 320.605,0.12 582.295,261.22 583.205,581.9 0.92,325.23 -257.2,585.09 -581.353,585.27" /><path
         id="path60"
         style="fill:#000000;fill-opacity:1;fill-rule:evenodd;stroke:none"
         d="m 595,1905 c 16.309,22.02 53.969,74.54 62.5,90 1.031,1.88 -17.852,26.44 -20,25 -14.988,-10.04 -63.531,-45.68 -70,-62.5 C 555,1925 582.121,1921.94 595,1905 m 414.69,8.09 c 20.96,-186.71 -71.979,-293.12 -223.131,-336.06 88.769,-0.14 157.601,38.4 204.761,112.98 44.56,70.51 53.31,145.63 18.37,223.08 m -607.042,-91.85 c 15.84,16.86 33.473,35.19 50.571,53.98 11.293,12.41 26.101,23.78 32.031,38.56 37.871,94.35 102.43,162.06 196.898,199.12 24.454,9.58 39.25,24.02 53.204,45.17 9.609,14.57 28.796,22.79 43.597,33.97 1.66,1.26 2.68,3.38 4.531,5.81 -7.218,4.71 -14.339,9.35 -26.289,17.14 16.278,15.52 29.957,39.57 43.637,39.57 40.383,0 73.672,33.82 115.41,21.04 2.864,-0.88 7.282,3.2 12.692,5.81 -142.68,64.57 -366.758,30.74 -510.192,-123.05 -138.91,-148.94 -153.457,-368.95 -93.847,-476.37 10.449,26.14 16.937,53.44 23.859,80.65 4.691,18.49 6.211,39.17 15.859,54.7 15.629,25.12 27.313,22.8 38.039,3.9 m 631.462,-145.47 c -47.29,-65.39 -104.188,-120.31 -186.161,-134.65 -52.187,-9.14 -106.519,-6.03 -159.898,-8.42 16.711,-0.4 34.34,-5.24 52.258,-8.29 114.941,-19.53 253.16,49.95 296.711,148.73 50.51,71.88 49.74,150.36 29.08,231.43 17.44,-80.3 2.06,-155.88 -31.99,-228.8 m -252.309,730.28 c 324.139,-0.18 582.259,-260.04 581.339,-585.27 -0.9,-320.68 -262.59,-581.78 -583.191,-581.9 -323.551,-0.13 -584.679,261.04 -583.988,584.06 0.699,322.59 262.617,583.29 585.84,583.11" /><path
         id="path62"
         style="fill:#ffffff;fill-opacity:1;fill-rule:evenodd;stroke:none"
         d="m 402.645,1821.24 c -10.719,18.9 -22.411,21.22 -38.028,-3.9 -9.66,-15.53 -11.172,-36.21 -15.871,-54.7 -6.922,-27.21 -13.398,-54.52 -23.851,-80.65 -59.61,107.42 -45.071,327.43 93.839,476.37 143.434,153.79 367.524,187.62 510.192,123.05 -5.41,-2.61 -9.821,-6.69 -12.692,-5.81 -41.738,12.78 -75.027,-21.04 -115.41,-21.04 -13.668,0 -27.347,-24.05 -43.629,-39.57 11.942,-7.79 19.063,-12.43 26.282,-17.14 -1.852,-2.43 -2.872,-4.55 -4.532,-5.81 -14.8,-11.18 -33.988,-19.4 -43.597,-33.97 -13.953,-21.15 -28.743,-35.59 -53.192,-45.17 -94.48,-37.06 -159.039,-104.77 -196.91,-199.12 -5.93,-14.78 -20.73,-26.15 -32.031,-38.56 -17.098,-18.79 -34.731,-37.12 -50.57,-53.98" /><path
         id="path64"
         style="fill:#ffffff;fill-opacity:1;fill-rule:evenodd;stroke:none"
         d="m 1009.69,1913.09 c 34.94,-77.45 26.19,-152.56 -18.37,-223.08 -47.16,-74.58 -116,-113.12 -204.757,-112.97 151.148,42.92 244.087,149.34 223.127,336.05" /><path
         id="path66"
         style="fill:#ffffff;fill-opacity:1;fill-rule:evenodd;stroke:none"
         d="m 1037.02,1673.14 c -43.547,-98.78 -181.77,-168.25 -296.707,-148.73 -17.922,3.05 -35.563,7.89 -52.262,8.3 53.371,2.38 107.711,-0.73 159.898,8.4 81.973,14.35 138.871,69.27 186.151,134.66 0.97,-0.88 1.94,-1.75 2.92,-2.63" /><path
         id="path68"
         style="fill:#ffffff;fill-opacity:1;fill-rule:evenodd;stroke:none"
         d="m 604.066,1933.47 c -12.878,16.94 -26.3,31.26 -24.757,33.12 11.539,13.85 25.359,26.24 40.347,36.28 2.153,1.44 21.77,-16.22 20.742,-18.1 -8.531,-15.46 -20.019,-29.28 -36.332,-51.3" /><path
         id="path70"
         style="fill:#ffffff;fill-opacity:1;fill-rule:evenodd;stroke:none"
         d="m 1034.11,1675.77 c 34.05,72.92 49.43,148.5 31.99,228.8 20.66,-81.07 21.44,-159.54 -29.07,-231.42 -0.98,0.87 -1.96,1.75 -2.92,2.62" /><path
         id="path72"
         style="fill:none;stroke:#ffffff;stroke-width:7.5;stroke-linecap:butt;stroke-linejoin:miter;stroke-miterlimit:10;stroke-dasharray:none;stroke-opacity:1"
         d="m 320,1690 c 0,0 130.371,-269.89 382.5,-310 110,-17.5 347.5,2.5 452.5,167.5 0,0 67.39,100.73 80,225 17.5,172.5 -42.5,242.5 -70,300 0,0 -130,207.5 -267.5,215 -120.559,6.58 5,-12.5 5,-12.5" /></g></g></svg>