<svg xmlns="http://www.w3.org/2000/svg" xmlns:xlink="http://www.w3.org/1999/xlink" width="300" height="300" viewBox="0 0 300 300"><switch><g><symbol id="a" viewBox="-150 -150 300 300.015"><path fill="#AEBCC4" d="M150-97.015c0-6.763 0-52.985-71.5-52.985H-84c-62.5 0-66 47.223-66 53.985v186c0 54.5 59.235 60 66 60l161.5.029c6.765 0 72.5-.029 72.5-60.029v-187z"/></symbol><use xlink:href="#a" width="300" height="300.015" x="-150" y="-150" transform="matrix(1 0 0 -1 150 151)" overflow="visible"/><g fill="#080828"><path d="M72.075 227.226v12.961h13.681v-12.961h5.904v32.354h-5.904v-14.257H72.075v14.257H66.17v-32.354h5.905zM104.763 229.674c0 1.775-1.296 3.168-3.36 3.168-1.968 0-3.265-1.393-3.265-3.168 0-1.824 1.344-3.217 3.313-3.217 2.015 0 3.263 1.393 3.312 3.217zm-6.289 29.906v-23.378h5.952v23.378h-5.952zM110.762 243.163c0-2.688-.048-4.945-.192-6.961h5.185l.288 3.504h.144c1.008-1.824 3.552-4.032 7.44-4.032 4.081 0 8.305 2.641 8.305 10.033v13.873h-5.904v-13.201c0-3.36-1.248-5.904-4.464-5.904-2.352 0-3.984 1.68-4.608 3.456-.192.528-.24 1.248-.24 1.92v13.729h-5.952v-16.417zM138.889 259.58v-18.962h-3.168v-4.416h3.168v-1.008c0-3.024.816-6.049 2.832-7.969 1.729-1.633 4.081-2.257 6.097-2.257 1.584 0 2.833.24 3.792.576l-.433 4.561c-.624-.24-1.439-.432-2.496-.432-2.928 0-3.937 2.448-3.937 5.328v1.2h5.137v4.416h-5.089v18.962h-5.903zM166.682 259.58l-.384-2.592h-.144c-1.441 1.824-3.889 3.12-6.913 3.12-4.704 0-7.345-3.408-7.345-6.961 0-5.904 5.232-8.881 13.873-8.833v-.384c0-1.536-.624-4.08-4.752-4.08-2.305 0-4.705.72-6.289 1.728l-1.152-3.84c1.729-1.057 4.753-2.064 8.449-2.064 7.488 0 9.648 4.753 9.648 9.841v8.449c0 2.112.096 4.176.336 5.616h-5.327zm-.768-11.425c-4.177-.097-8.161.815-8.161 4.368 0 2.305 1.488 3.36 3.36 3.36 2.352 0 4.08-1.536 4.608-3.216a4.25 4.25 0 0 0 .192-1.297v-3.215zM177.912 225.497h5.953v13.921h.096a7.93 7.93 0 0 1 2.928-2.688c1.152-.673 2.545-1.057 4.033-1.057 3.984 0 8.16 2.641 8.16 10.129v13.777h-5.904v-13.105c0-3.408-1.248-5.952-4.512-5.952-2.305 0-3.938 1.536-4.561 3.313-.192.479-.24 1.104-.24 1.776v13.969h-5.953v-34.083zM205.368 243.738c0-3.168-.048-5.424-.191-7.536h5.136l.192 4.464h.192c1.151-3.312 3.888-4.992 6.384-4.992.576 0 .912.048 1.393.145v5.568a8.145 8.145 0 0 0-1.729-.192c-2.832 0-4.752 1.824-5.28 4.465a10.12 10.12 0 0 0-.191 1.824v12.097h-5.905v-15.843zM230.328 229.529v6.673h5.617v4.416h-5.617v10.321c0 2.832.769 4.32 3.024 4.32a8.78 8.78 0 0 0 2.305-.288l.096 4.513c-.864.336-2.4.576-4.272.576-2.16 0-3.984-.721-5.088-1.921-1.249-1.344-1.824-3.456-1.824-6.528v-10.993h-3.36v-4.416h3.36v-5.28l5.759-1.393z"/></g><path fill="none" stroke="#FFF" stroke-width="11.143" stroke-miterlimit="10" d="M178.599 52.178l57.973 154.155"/><path fill="none" stroke="#FFF" stroke-width="10.889" stroke-miterlimit="10" d="M123.652 55.69L67 206.333"/><path fill="none" stroke="#FFF" stroke-width="11" stroke-miterlimit="10" d="M111 82.5h81"/><path fill="none" stroke="#FFF" stroke-width="16" stroke-miterlimit="10" d="M101 123h106"/><path fill="none" stroke="#FFF" stroke-width="15" stroke-miterlimit="10" d="M77 177.5h149"/><path fill="#C1272D" d="M161.979 188.893l-1.389-76.444 18.687-1.128-27.335-30.995-23.937 31.111 18.674.439 1.383 77.228z"/><circle fill="#C1272D" cx="152.17" cy="46.975" r="12.14"/></g></switch></svg>