<svg xmlns="http://www.w3.org/2000/svg" xmlns:xlink="http://www.w3.org/1999/xlink" width="300" height="300" viewBox="0 0 300 300"><switch><g><symbol id="a" viewBox="-150 -150 300 300.015"><path fill="#AEBCC4" d="M150-97.015c0-6.763 0-52.985-71.5-52.985H-84c-62.5 0-66 47.223-66 53.985v186c0 54.5 59.235 60 66 60l161.5.029c6.765 0 72.5-.029 72.5-60.029v-187z"/></symbol><use xlink:href="#a" width="300" height="300.015" x="-150" y="-150" transform="matrix(1 0 0 -1 150 150)" overflow="visible"/><g fill="#080828"><path d="M88.169 241.738c0-3.168-.048-5.424-.192-7.536h5.137l.192 4.464h.192c1.152-3.312 3.889-4.992 6.385-4.992.576 0 .912.048 1.392.145v5.568a8.142 8.142 0 0 0-1.728-.192c-2.833 0-4.752 1.824-5.281 4.465-.096.527-.192 1.151-.192 1.824v12.097H88.17v-15.843zM127.05 245.675c0 8.593-6.048 12.434-12.001 12.434-6.625 0-11.713-4.561-11.713-12.05 0-7.68 5.041-12.385 12.097-12.385 6.961 0 11.617 4.896 11.617 12.001zm-17.617.24c0 4.513 2.208 7.921 5.808 7.921 3.36 0 5.713-3.313 5.713-8.017 0-3.648-1.632-7.825-5.665-7.825-4.176 0-5.856 4.032-5.856 7.921zM138.666 227.529v6.673h5.616v4.416h-5.616v10.321c0 2.832.768 4.32 3.024 4.32a8.765 8.765 0 0 0 2.304-.288l.096 4.513c-.864.336-2.4.576-4.272.576-2.16 0-3.984-.721-5.088-1.921-1.248-1.344-1.824-3.456-1.824-6.528v-10.993h-3.36v-4.416h3.36v-5.28l5.76-1.393zM161.897 257.58l-.384-2.592h-.145c-1.439 1.824-3.888 3.12-6.912 3.12-4.704 0-7.345-3.408-7.345-6.961 0-5.904 5.232-8.881 13.873-8.833v-.384c0-1.536-.624-4.08-4.752-4.08-2.305 0-4.705.72-6.289 1.728l-1.152-3.84c1.729-1.057 4.753-2.064 8.449-2.064 7.488 0 9.648 4.753 9.648 9.841v8.449c0 2.112.097 4.176.336 5.616h-5.327zm-.767-11.425c-4.177-.097-8.161.815-8.161 4.368 0 2.305 1.488 3.36 3.36 3.36 2.353 0 4.08-1.536 4.608-3.216a4.25 4.25 0 0 0 .192-1.297v-3.215zM179.608 227.529v6.673h5.617v4.416h-5.617v10.321c0 2.832.769 4.32 3.024 4.32a8.78 8.78 0 0 0 2.305-.288l.096 4.513c-.864.336-2.4.576-4.272.576-2.16 0-3.984-.721-5.088-1.921-1.249-1.344-1.824-3.456-1.824-6.528v-10.993h-3.36v-4.416h3.36v-5.28l5.759-1.393zM193.577 247.547c.144 4.225 3.456 6.049 7.2 6.049 2.736 0 4.705-.384 6.48-1.056l.864 4.08c-2.016.816-4.8 1.44-8.16 1.44-7.585 0-12.05-4.657-12.05-11.81 0-6.48 3.937-12.577 11.426-12.577 7.584 0 10.08 6.24 10.08 11.377 0 1.104-.096 1.969-.191 2.496h-15.649zm10.273-4.128c.049-2.16-.912-5.713-4.848-5.713-3.648 0-5.185 3.313-5.425 5.713h10.273z"/></g><linearGradient id="b" gradientUnits="userSpaceOnUse" x1="55.978" y1="126.492" x2="257" y2="126.492"><stop offset="0" stop-color="#fff" stop-opacity="0"/><stop offset="1" stop-color="#fff"/></linearGradient><path fill-rule="evenodd" clip-rule="evenodd" fill="url(#b)" d="M152.5 151.5l-95 36.5s-21-115.5 93-123c0 0 86-4 106.5 112.5l-104.5-26z"/><path fill-rule="evenodd" clip-rule="evenodd" fill="#080828" d="M184.977 156.958c2.323 6.206-.824 13.122-7.03 15.446l-30.905 11.572c-6.207 2.323-13.122-.824-15.446-7.03l-11.572-30.905c-2.324-6.207.823-13.122 7.03-15.446l30.904-11.572c6.206-2.324 13.122.823 15.446 7.03l11.573 30.905z"/><circle fill-rule="evenodd" clip-rule="evenodd" fill="#C1272D" cx="152.25" cy="150.25" r="14.75"/><path fill="#FFF" d="M84.854 32.483c.024-.252.339-.687.681-.673a225.756 225.756 0 0 1 38.806 4.471c.337.073.554.332.487.576a1573.606 1573.606 0 0 0-8.086 27.848c-.067.244-.414.628-.706.567a189.441 189.441 0 0 0-10.067-12.325c-18.851 10.554-34.663 23.7-47.058 38.224a153.454 153.454 0 0 1 10.377 9.648c.002.254-.412.478-.648.491a155.857 155.857 0 0 0-26.595 4.102c-.231.052-.456-.108-.502-.357a1604.491 1604.491 0 0 1-4.669-28.568c-.043-.251.407-.558.682-.617a166.385 166.385 0 0 1 11.512 7.598c12.38-15.254 28.238-29.208 47.226-40.647a203.82 203.82 0 0 0-11.44-10.338z"/></g></switch></svg>