<svg xmlns="http://www.w3.org/2000/svg" xmlns:xlink="http://www.w3.org/1999/xlink" width="300" height="300" viewBox="0 0 300 300"><switch><g><symbol id="a" viewBox="-150 -150 300 300.015"><path fill="#AEBCC4" d="M150-97.015c0-6.763 0-52.985-71.5-52.985H-84c-62.5 0-66 47.223-66 53.985v186c0 54.5 59.235 60 66 60l161.5.029c6.765 0 72.5-.029 72.5-60.029v-187z"/></symbol><use xlink:href="#a" width="300" height="300.015" x="-150" y="-150" transform="matrix(1 0 0 -1 150 150)" overflow="visible"/><g fill="#080828"><path d="M114.612 257.527c-1.248.576-3.696 1.2-6.625 1.2-7.296 0-12.049-4.657-12.049-11.905 0-7.009 4.8-12.481 13.009-12.481 2.16 0 4.368.48 5.712 1.104l-1.056 4.416c-.96-.432-2.352-.912-4.464-.912-4.512 0-7.201 3.313-7.153 7.585 0 4.801 3.121 7.536 7.153 7.536 2.064 0 3.504-.432 4.656-.912l.817 4.369zM118.979 242.405c0-3.168-.048-5.424-.192-7.536h5.137l.192 4.464h.192c1.152-3.312 3.889-4.992 6.385-4.992.576 0 .912.048 1.392.145v5.568a8.142 8.142 0 0 0-1.728-.192c-2.833 0-4.752 1.824-5.281 4.465-.096.527-.192 1.151-.192 1.824v12.097h-5.904v-15.843zM148.788 258.247l-.384-2.592h-.144c-1.44 1.824-3.888 3.12-6.913 3.12-4.705 0-7.345-3.408-7.345-6.961 0-5.904 5.232-8.881 13.873-8.833v-.384c0-1.536-.624-4.08-4.752-4.08-2.304 0-4.704.72-6.289 1.728l-1.152-3.84c1.728-1.057 4.752-2.064 8.449-2.064 7.488 0 9.648 4.753 9.648 9.841v8.449c0 2.112.097 4.176.336 5.616h-5.327zm-.768-11.425c-4.176-.097-8.161.815-8.161 4.368 0 2.305 1.488 3.36 3.36 3.36 2.352 0 4.081-1.536 4.608-3.216a4.25 4.25 0 0 0 .192-1.297v-3.215zM160.018 241.83c0-2.688-.048-4.945-.191-6.961h5.185l.288 3.504h.144c1.008-1.824 3.553-4.032 7.44-4.032 4.08 0 8.305 2.641 8.305 10.033v13.873h-5.904v-13.201c0-3.36-1.248-5.904-4.465-5.904-2.352 0-3.984 1.68-4.608 3.456-.191.528-.239 1.248-.239 1.92v13.729h-5.953V241.83zM191.649 248.214c.144 4.225 3.456 6.049 7.2 6.049 2.736 0 4.705-.384 6.48-1.056l.864 4.08c-2.016.816-4.8 1.44-8.16 1.44-7.585 0-12.05-4.657-12.05-11.81 0-6.48 3.937-12.577 11.426-12.577 7.584 0 10.08 6.24 10.08 11.377 0 1.104-.096 1.969-.191 2.496h-15.649zm10.273-4.128c.049-2.16-.912-5.713-4.848-5.713-3.648 0-5.185 3.313-5.425 5.713h10.273z"/></g><path fill="#AEBCC4" d="M30.31 56.656s8.802-5.031 16.771-27.254c0 0-10.063 7.967-16.771 2.097 0 0 4.192 11.741 0 25.157z"/><g fill-rule="evenodd" clip-rule="evenodd"><path d="M281.176 208.189c-9.006-9.844-26.985-25.912-35.87-35.869-27.02-30.271-54.508-58.129-80.892-88.944-6.72-7.851-17.042-19.469-22.327-29.281-5.124-9.517-11.267 1.541-16.471 1.464-8.503-.126-14.728 1.323-23.058 1.098-13.542-.365-18.301-.366-17.569 8.052.531 6.104.732 9.883 7.501 10.481 4.933.437 12.688-3.149 14.403 3.396 2.404 9.16 2.288 19.153-.216 28.538-.887 3.336-5.159 2.662-8.225 2.667-12.37.013-24.744.194-37.109-.072-5.623-.123-12.338 2.507-14.451-7.101-.879-4.006-5.985-2.306-9.566.177-7.624 5.284-11.214 2.838-10.573-6.321a47.754 47.754 0 0 0-.002-6.954c-.689-8.948 1.564-12.854 10.837-7.19 3.77 2.305 8.441 5.158 10.231-2.779 1.274-5.645 6.378-4.789 10.481-4.501 6.697.461 7.761-1.424 7.203-8.635-1.379-17.812 2.075-20.343 22.047-20.741 9.867-.198 17.811 1.428 27.818-1.464 11.319-3.274 14.514-8.024 18.124-19.261.474-1.473.558-2.688 2.571-3.182 3.349-.824 5.43.965 6.563 3.202 9.319 18.387 23.382 30.393 36.665 45.448 39.037 44.253 62.426 68.344 101.884 112.229"/><path fill="#FEFEFE" d="M221.249 145.898l-.186-.212"/></g></g></switch></svg>