<svg xmlns="http://www.w3.org/2000/svg" xmlns:xlink="http://www.w3.org/1999/xlink" width="300" height="300" viewBox="0 0 300 300"><switch><g><symbol id="a" viewBox="-150 -150 300 300.015"><path fill="#AEBCC4" d="M150-97.015c0-6.763 0-52.985-71.5-52.985H-84c-62.5 0-66 47.223-66 53.985v186c0 54.5 59.235 60 66 60l161.5.029c6.765 0 72.5-.029 72.5-60.029v-187z"/></symbol><use xlink:href="#a" width="300" height="300.015" x="-150" y="-150" transform="matrix(1 0 0 -1 150 150)" overflow="visible"/><defs><path id="b" d="M231.235 271.225H68.791c-22.026 0-39.882-17.855-39.882-39.882V68.897c0-22.026 17.855-39.882 39.882-39.882h162.445c22.026 0 39.882 17.855 39.882 39.882v162.445c-.001 22.027-17.856 39.883-39.883 39.883z"/></defs><clipPath id="c"><use xlink:href="#b" overflow="visible"/></clipPath><path clip-path="url(#c)" fill-rule="evenodd" clip-rule="evenodd" fill="#FFF" d="M89.242 265.358c0 1.19 1.428 2.381 1.667 4.047.476 1.904.714 6.19.714 6.904 0 .477-.953 7.618-.953 8.333 0 .476 2.143 4.047 2.143 4.761v8.571c.952 2.618 3.809 8.095 3.809 11.189 0 .714-.714 3.81-.714 4.523 0 .476 1.667 4.523 1.667 5.237 0 .477-1.904 8.333-1.904 8.81 0 .714 1.667 6.189 1.667 6.903 0 1.19-.477 2.381-2.381 3.571-.476-3.571-.952-7.38-1.428-10.713-.953-7.856-1.667-16.189-2.857-24.046-.952-7.618-4.285-19.998-4.285-28.093v-5.238c.714-2.618.952-5.476 1.19-8.332v-6.429c.238-.237.714-.476 1.19-.952.237 1.193-.239 2.621.475 10.954zm130.942.238c0 5-1.904 11.19-2.618 16.666l.237 37.14c-.237 1.666-.952 3.571-1.19 5.476-.476 2.381-.476 5.476-.714 8.333-.238 0-.714.237-.952.237 0-.952 0-2.381-.477-3.095-.476-1.666-2.143-4.523-2.143-4.999 0-.715.715-1.667.715-2.381 0-.477-2.144-2.857-2.144-3.333 0-.715.715-2.144.953-3.096l-.238-5.951c4.285-5.476 3.333-10.952 4.762-16.189v-6.19c-.715-3.809-2.381-9.761-2.381-14.046l.714-7.618c-.238-2.381-1.19-6.904-1.19-7.381 0-.714.238-.477.238-.714 1.429-.238 1.666-2.619 2.381-3.571.714-.714 2.143-1.19 3.095-1.667.476 4.047.952 11.665.952 12.379zM133.048 28.949c-.714.476-1.19 1.19-1.904 1.905 1.19-.238 2.619 0 3.571-.238.952 0 1.904-.714 2.619-.952 0 0 .238 0 .476.238-.476.477-1.19 1.19-1.428 1.905h1.904c2.381-2.143 4.523-1.667 6.428-1.667 1.428 0 3.333-.238 5 .714-.952.238-2.143.476-3.333 1.19 0 0-.238.238.476.238.476 0 3.571-.952 4.285-.952.477 0 1.429.238 2.143.476-.237.238-.714.238-.952.476 1.429.238 2.857.477 4.285.953l-.476.476c7.142 3.095 15.475 8.571 21.665 16.665 1.904 2.381.952 5.714 1.666 8.571l.238 9.285c0 3.333-.714 9.047-.714 9.523 0 .714.714 5.952.714 6.428 0 14.76-10.951 10.237-10.951 23.331v10c3.809 4.285 6.189 10.713 11.665 13.094 11.19 5.237 22.855 9.285 34.283 14.76 6.666 3.333 17.142 8.571 20.236 17.379 2.619 7.381 5 14.761 7.143 22.142 3.81 13.809 7.618 27.854 11.666 41.901 1.19 4.285 4.047 12.618 4.047 13.094 0 3.095-10.714 7.856-12.618 9.523l-.238 39.521c-1.904 9.761-4.285 20.95-6.666 30.949-3.095 13.57-7.142 27.141-9.999 40.949-.476 2.143.238 6.428.238 7.143 0 10.237-7.618 29.283-7.618 39.759v37.616l-6.19 69.279v4.285c-1.19 9.285-3.095 19.522-6.428 29.046-.715 1.904-.952 4.523-1.19 6.904-.238 3.095-.715 9.522-.715 10.237 0 .476-.952 9.047-1.189 13.57-.477 4.047-.477 8.332-.715 12.617-.238 4.762-.476 9.523-.952 14.285-.238 2.143-6.19 37.854-6.19 46.425 0 .714.715 4.762.715 5.237 0 .715-.477 4.285-.477 5 0 2.856 2.619 7.38 4.523 10.237 2.619 3.809 6.666 6.666 6.666 10.237 0 7.618-15.236 7.618-17.855 7.618-6.904 0-13.332-.952-19.998-2.381-1.429-.238-2.857-.476-3.81-1.19-3.571-1.904-8.809-3.333-10.237-8.095-.238-.476.238-.952.238-1.666 0-.477-.952-4.048-.952-5.952 0-6.428.476-9.285.476-9.999 0-2.619-5.476-6.429-5.476-14.999 0-.714.477-4.523.715-6.904v-14.999c1.666-12.617 5.951-26.426 8.332-38.806.238-2.381.238-6.666.238-7.143v-18.57c.477-3.333 1.19-9.999 1.19-10.475l-2.619-26.188v-59.043l-4.523-54.995c-3.809 17.379-8.094 36.188-10.237 53.805l.238 33.093c-.476 4.523-.476 9.285-1.667 14.046-.714 2.381-2.38 5-3.095 7.619-.953 2.618-1.429 5.951-2.381 8.809-.952 3.571-2.619 7.143-2.619 10.713 0 6.19 2.38 12.143 3.809 18.809l-2.381 13.094v5.476l-3.571 30.712c.238 3.333.714 9.285.714 9.999 0 7.856-1.904 16.189-1.904 19.284 0 6.904 5.952 13.333 5.952 20.236 0 .477-.476 3.096-.714 4.523-.238.715-.476 2.144-.714 3.334 0 .476-.476 1.666-.714 2.38-.953 3.333-4.047 9.762-4.047 10.476 0 .477.952 9.999.952 10.714 0 1.19 0 3.095-.952 4.761-2.381 3.81-13.809 5-18.332 5-4.047 0-22.379-.238-22.379-9.047 0-6.189 5.714-18.57 5.714-23.331 0-.477-1.19-5.476-1.19-8.333-.476-7.618-2.857-15.236-5.238-22.855-.952-2.856-.952-6.189-1.19-9.047-.476-4.762-.714-9.522-.952-14.284l-1.667-30.712v-54.281c.238-.714.238-1.429.238-2.143-.476-3.333 3.333-7.618 3.333-10.714 0-2.856-2.381-5.951-5-9.047-.952-1.19-4.047-9.761-4.047-12.142v-4.523l2.143-19.046c0-8.57-.238-11.666-.714-28.808 0-.237.238-5.714.476-37.14l.476-32.854c-1.667-7.142-2.857-14.761-4.761-21.902-2.857-10.952-7.143-21.665-9.523-32.379-1.667-7.856-2.619-15.951-3.571-23.808-.714-5.476-.714-11.189-1.429-16.427-.952-6.904-2.38-14.047-3.571-20.951-2.857-1.428-6.428-3.095-9.523-4.761-4.762-2.143-9.761-4.523-14.761-7.143v-.477c0-.476 1.904-6.666 2.619-9.522 5.714-20.951 14.761-42.14 22.855-62.853 2.857-7.856 14.522-15.713 20.951-18.093 9.761-3.571 19.76-8.333 29.521-12.856.714-.238.477-1.428.714-1.904.952-1.19 2.143-2.857 3.333-4.047 3.333-3.095 7.619-1.905 7.619-6.666 0-.714 0-.953-.238-1.429-5.952-3.809-7.856-11.428-9.047-16.427-.714-3.095-2.143-5.952-2.857-8.809-.952-3.809-.952-8.095-2.619-11.904 0-.476-6.666-9.999-6.666-12.142v-23.33c.952-3.81 5.476-5.476 8.57-8.095.477-.476.714-1.19.953-1.905.476-1.19 2.857-4.523 4.762-4.285-.714.714-1.667 1.905-1.667 2.619v1.19l.477.476c2.143-1.19 1.904-5.237 5.476-5.714 0 .238-.476.714-.238 1.19.953-1.19 2.619-3.333 3.333-3.333.476 0 .238.476.476.714.238-1.19 1.905-1.905 3.095-2.143 0 .714-.238 1.428 0 2.143 1.429-1.19 3.095-2.619 4.762-3.571h1.187z"/><g fill="#080828"><path d="M95.047 269.914v-32.355h6.721l8.353 13.873a89.148 89.148 0 0 1 5.521 10.85h.096c-.384-4.32-.528-8.496-.528-13.441V237.56h5.473v32.355h-6.097l-8.449-14.209c-2.064-3.553-4.224-7.537-5.808-11.186l-.144.049c.24 4.176.288 8.447.288 13.775v11.57h-5.426zM140.408 269.914l-.384-2.592h-.144c-1.44 1.824-3.889 3.119-6.913 3.119-4.705 0-7.345-3.408-7.345-6.961 0-5.904 5.232-8.881 13.873-8.832v-.385c0-1.535-.624-4.08-4.752-4.08-2.304 0-4.704.721-6.289 1.729l-1.152-3.84c1.728-1.057 4.752-2.064 8.449-2.064 7.489 0 9.649 4.752 9.649 9.84v8.449c0 2.113.096 4.176.336 5.617h-5.328zm-.768-11.426c-4.176-.096-8.161.816-8.161 4.369 0 2.305 1.488 3.359 3.36 3.359 2.352 0 4.081-1.535 4.608-3.215.144-.434.192-.912.192-1.297v-3.216zM151.639 235.83h5.953v13.922h.096a7.918 7.918 0 0 1 2.929-2.688c1.151-.674 2.544-1.057 4.032-1.057 3.984 0 8.16 2.641 8.16 10.129v13.777h-5.904v-13.105c0-3.408-1.248-5.953-4.513-5.953-2.304 0-3.937 1.537-4.561 3.313-.191.48-.239 1.104-.239 1.777v13.969h-5.953V235.83zM183.271 259.881c.144 4.225 3.456 6.049 7.2 6.049 2.736 0 4.705-.385 6.48-1.057l.864 4.08c-2.016.816-4.8 1.441-8.16 1.441-7.585 0-12.05-4.658-12.05-11.811 0-6.48 3.937-12.576 11.426-12.576 7.584 0 10.08 6.24 10.08 11.377 0 1.104-.096 1.969-.191 2.496h-15.649zm10.272-4.129c.049-2.16-.912-5.713-4.848-5.713-3.648 0-5.185 3.313-5.425 5.713h10.273z"/></g></g></switch></svg>