<svg xmlns="http://www.w3.org/2000/svg" xmlns:xlink="http://www.w3.org/1999/xlink" width="300" height="300" viewBox="0 0 300 300"><switch><g><symbol id="a" viewBox="-150 -150 300 300.015"><path fill="#AEBCC4" d="M150-97.015c0-6.763 0-52.985-71.5-52.985H-84c-62.5 0-66 47.223-66 53.985v186c0 54.5 59.235 60 66 60l161.5.029c6.765 0 72.5-.029 72.5-60.029v-187z"/></symbol><use xlink:href="#a" width="300" height="300.015" x="-150" y="-150" transform="matrix(1 0 0 -1 150 150)" overflow="visible"/><g fill="#080828"><path d="M57.468 258.247v-18.962H54.3v-4.416h3.168v-1.008c0-2.929 1.2-5.856 3.456-7.729 2.064-1.68 4.705-2.496 8.257-2.496 3.121 0 6 .624 8.113 1.776v32.835h-5.953v-29.618c-.624-.337-1.584-.528-3.072-.528-3.6 0-4.944 2.592-4.944 5.712v1.057h4.8v4.416h-4.752v18.962h-5.905zM96.78 258.247l-.384-2.592h-.144c-1.44 1.824-3.888 3.12-6.913 3.12-4.705 0-7.345-3.408-7.345-6.961 0-5.904 5.232-8.881 13.873-8.833v-.384c0-1.536-.624-4.08-4.752-4.08-2.304 0-4.704.72-6.289 1.728l-1.152-3.84c1.728-1.057 4.752-2.064 8.449-2.064 7.489 0 9.649 4.753 9.649 9.841v8.449c0 2.112.096 4.176.336 5.616H96.78zm-.768-11.425c-4.176-.097-8.161.815-8.161 4.368 0 2.305 1.488 3.36 3.36 3.36 2.352 0 4.081-1.536 4.608-3.216a4.25 4.25 0 0 0 .192-1.297v-3.215zM114.492 228.196v6.673h5.616v4.416h-5.616v10.321c0 2.832.768 4.32 3.024 4.32a8.765 8.765 0 0 0 2.304-.288l.096 4.513c-.864.336-2.4.576-4.272.576-2.16 0-3.984-.721-5.088-1.921-1.248-1.344-1.824-3.456-1.824-6.528v-10.993h-3.36v-4.416h3.36v-5.28l5.76-1.393zM134.218 252.822c1.344.816 3.888 1.681 6 1.681 2.592 0 3.744-1.057 3.744-2.593 0-1.584-.96-2.399-3.84-3.408-4.56-1.584-6.48-4.08-6.433-6.816 0-4.128 3.409-7.345 8.833-7.345 2.592 0 4.848.672 6.192 1.393l-1.152 4.176c-1.008-.576-2.88-1.344-4.945-1.344-2.112 0-3.264 1.008-3.264 2.448 0 1.488 1.104 2.208 4.081 3.265 4.224 1.536 6.192 3.696 6.24 7.152 0 4.225-3.312 7.297-9.504 7.297-2.833 0-5.377-.673-7.105-1.633l1.153-4.273zM154.521 242.646c0-3.072-.096-5.568-.191-7.776h5.185l.288 3.601h.096c1.728-2.641 4.464-4.129 8.017-4.129 5.376 0 9.841 4.608 9.841 11.905 0 8.448-5.328 12.529-10.657 12.529-2.928 0-5.376-1.248-6.576-3.12h-.096v12.097h-5.905v-25.107zm5.906 5.808c0 .576.048 1.104.191 1.632.576 2.4 2.688 4.129 5.185 4.129 3.744 0 5.952-3.12 5.952-7.729 0-4.129-2.016-7.489-5.808-7.489-2.448 0-4.705 1.776-5.281 4.369a5.344 5.344 0 0 0-.239 1.487v3.601zM195.754 258.247l-.384-2.592h-.145c-1.439 1.824-3.888 3.12-6.912 3.12-4.704 0-7.345-3.408-7.345-6.961 0-5.904 5.232-8.881 13.873-8.833v-.384c0-1.536-.624-4.08-4.752-4.08-2.305 0-4.705.72-6.289 1.728l-1.152-3.84c1.729-1.057 4.753-2.064 8.449-2.064 7.488 0 9.648 4.753 9.648 9.841v8.449c0 2.112.097 4.176.336 5.616h-5.327zm-.768-11.425c-4.177-.097-8.161.815-8.161 4.368 0 2.305 1.488 3.36 3.36 3.36 2.353 0 4.08-1.536 4.608-3.216a4.25 4.25 0 0 0 .192-1.297v-3.215zM224.17 257.527c-1.248.576-3.696 1.2-6.624 1.2-7.297 0-12.05-4.657-12.05-11.905 0-7.009 4.801-12.481 13.01-12.481 2.16 0 4.368.48 5.712 1.104l-1.056 4.416c-.96-.432-2.353-.912-4.465-.912-4.512 0-7.2 3.313-7.152 7.585 0 4.801 3.12 7.536 7.152 7.536 2.064 0 3.505-.432 4.657-.912l.816 4.369zM232.282 248.214c.144 4.225 3.456 6.049 7.2 6.049 2.736 0 4.705-.384 6.48-1.056l.864 4.08c-2.016.816-4.8 1.44-8.16 1.44-7.585 0-12.05-4.657-12.05-11.81 0-6.48 3.937-12.577 11.426-12.577 7.584 0 10.08 6.24 10.08 11.377 0 1.104-.096 1.969-.191 2.496h-15.649zm10.273-4.128c.049-2.16-.912-5.713-4.848-5.713-3.648 0-5.185 3.313-5.425 5.713h10.273z"/></g><path fill="#080828" d="M27 48h251v17H27zM27 68h251v17H27zM27 88h251v17H27zM27 108h251v17H27zM27 128h251v17H27zM27 148h251v17H27zM27 168h251v17H27z"/><path fill="#FFF" d="M89.976 22.901s3.262-6.553 9.54-6.105c2.669.191 5.682 1.098 8.583 4.58 0 0 5.342 7.44-4.389 17.934 0 0-.495 3.76 2.619 6.874 0 0 28.643.625 22.419 44.214l-1.868 14.322s-4.982 8.717-4.982 25.529c0 0-3.391 71.746-1.523 72.37 0 0-5.215 6.487-12.719.51l-.127-78.349s-5.724-4.576-10.303.766l-.381 77.458s-5.342 5.342-11.574.375l-1.356-73.13s.623-16.812-4.982-26.776c0 0-14.521-54.624 16.386-56.149 0 0 2.417-2.544 1.527-7.25-.338-1.77-9.16-3.437-6.87-17.173zM215.262 22.901s-3.261-6.553-9.539-6.105c-2.67.191-5.682 1.098-8.584 4.58 0 0-5.342 7.44 4.39 17.934 0 0 .495 3.76-2.619 6.874 0 0-28.643.625-22.419 44.214l1.868 14.322s4.982 8.717 4.982 25.529c0 0 3.391 71.746 1.523 72.37 0 0 5.216 6.487 12.719.51l.128-78.349s5.725-4.576 10.303.766l.382 77.458s5.342 5.342 11.573.375l1.356-73.13s-.623-16.812 4.981-26.776c0 0 14.522-54.624-16.386-56.149 0 0-2.416-2.544-1.525-7.25.334-1.77 9.156-3.437 6.867-17.173z"/></g></switch></svg>