<svg xmlns="http://www.w3.org/2000/svg" xmlns:xlink="http://www.w3.org/1999/xlink" width="300" height="300" viewBox="0 0 300 300"><switch><g><symbol id="a" viewBox="-239.998 -118.656 300 300.671"><path fill="#91C4AB" d="M60.002-65.014c0-6.764-.002-53.643-71.502-53.643H-174c-62.5 0-65.998 47.879-65.998 54.643v185.999c0 54.5 59.233 60 65.999 60l161.499.029c6.766 0 72.502-.029 72.502-60.029V-65.014z"/></symbol><use xlink:href="#a" width="300" height="300.671" x="-239.998" y="-118.656" transform="matrix(1 0 0 -1 239.998 182.015)" overflow="visible"/><path fill-rule="evenodd" clip-rule="evenodd" fill="#FFF" d="M174.14 130.58c7.334 11.82-.29 24.459-7.966 30.229l-14.39-37.286c8.78-1.104 17.6-.617 22.356 7.057zm-32.422-16.333s-24.855 12.26-15.219 34.422c1.663 3.818 8.394 11.224 12.948 8.666 1.951-1.091-2.488-5.224-4.331-8.596-8.409-15.449 10.798-23.524 10.798-23.524l14.492 39.859-2.359 1.15c-7.979 3.315-29.745 7.732-39-12.549-10.529-23.097 9.327-42.634 18.846-51.468l3.825 12.04zm2.737-73.175c4.715 11.747 3.689 24.267-7.47 38.987 0 0-13.083-45.036-3.712-51.771 3.394-2.451 10.519 11.1 11.182 12.784zm11.199 7.729c5.925 32.435-12.804 48.662-12.804 48.662l4.276 14.146s34.355-12.742 44.404 16.132c8.697 25.003-22.298 41.132-22.405 41.482 4.631 13.079 8.231 25.23-6.582 32.455-6.355 3.1-18.905 6.617-23.93-3.688-2.623-5.376-2.069-12.023 4.045-15.006 6.805-3.318 12.622-.354 15.361 5.264 1.025 2.103 2.715 7.358-.814 9.655.824-.104 1.755-.558 2.236-.793 11.283-5.502 7.228-18.584 4.488-24.201-.345-.707-.571-1.172-1.264-1.41-22.675 9.031-43.004-1.041-50.878-17.188-2.051-4.205-3.63-9.236-3.803-14.357a49.613 49.613 0 0 1 .969-12.353c2.379-13.617 10.89-26.311 17.944-35.393 1.44-1.854 5.356-6.943 5.356-6.943s-21.217-57.519-1.199-66.905c7.454-3.494 21.388 12.856 24.6 30.441z"/><g fill="#012B16"><path d="M93.002 242.163c0-2.688-.048-4.945-.192-6.961h5.088l.24 3.456h.144c1.152-1.824 3.264-3.984 7.201-3.984 3.072 0 5.473 1.729 6.48 4.32h.096c.816-1.296 1.776-2.256 2.88-2.928 1.296-.912 2.785-1.393 4.705-1.393 3.888 0 7.825 2.641 7.825 10.129v13.777h-5.76v-12.913c0-3.889-1.344-6.192-4.177-6.192-2.016 0-3.504 1.439-4.128 3.12-.144.576-.288 1.296-.288 1.968v14.018h-5.761v-13.537c0-3.265-1.296-5.568-4.032-5.568-2.208 0-3.696 1.728-4.225 3.36-.24.576-.336 1.248-.336 1.92v13.825h-5.76v-16.417zM154.636 251.571c0 2.784.096 5.089.192 7.009h-5.185l-.288-3.553h-.096c-1.008 1.681-3.313 4.081-7.489 4.081-4.272 0-8.161-2.545-8.161-10.177v-13.729h5.904v12.721c0 3.889 1.249 6.385 4.369 6.385 2.352 0 3.888-1.68 4.512-3.168a5.366 5.366 0 0 0 .336-1.824v-14.113h5.905v16.368zM160.729 253.155c1.345.816 3.889 1.681 6.001 1.681 2.593 0 3.744-1.057 3.744-2.593 0-1.584-.96-2.399-3.841-3.408-4.56-1.584-6.48-4.08-6.432-6.816 0-4.128 3.408-7.345 8.832-7.345 2.593 0 4.849.672 6.193 1.393l-1.152 4.176c-1.008-.576-2.881-1.344-4.945-1.344-2.111 0-3.264 1.008-3.264 2.448 0 1.488 1.104 2.208 4.08 3.265 4.225 1.536 6.193 3.696 6.24 7.152 0 4.225-3.312 7.297-9.504 7.297-2.832 0-5.377-.673-7.105-1.633l1.153-4.273zM187.321 228.674c0 1.775-1.296 3.168-3.36 3.168-1.969 0-3.265-1.393-3.265-3.168 0-1.824 1.345-3.217 3.313-3.217 2.016 0 3.264 1.393 3.312 3.217zm-6.288 29.906v-23.378h5.951v23.378h-5.951zM210.506 257.86c-1.248.576-3.696 1.2-6.625 1.2-7.296 0-12.049-4.657-12.049-11.905 0-7.009 4.801-12.481 13.01-12.481 2.16 0 4.368.48 5.713 1.104l-1.057 4.416c-.96-.432-2.352-.912-4.465-.912-4.512 0-7.2 3.313-7.152 7.585 0 4.801 3.121 7.536 7.152 7.536 2.064 0 3.505-.432 4.656-.912l.817 4.369z"/></g></g></switch></svg>