<?xml version="1.0" encoding="UTF-8" standalone="no"?>
<svg
   xmlns:dc="http://purl.org/dc/elements/1.1/"
   xmlns:cc="http://creativecommons.org/ns#"
   xmlns:rdf="http://www.w3.org/1999/02/22-rdf-syntax-ns#"
   xmlns:svg="http://www.w3.org/2000/svg"
   xmlns="http://www.w3.org/2000/svg"
   viewBox="0 0 375 375"
   height="375"
   width="375"
   xml:space="preserve"
   version="1.1"
   id="svg2"><metadata
     id="metadata8"><rdf:RDF><cc:Work
         rdf:about=""><dc:format>image/svg+xml</dc:format><dc:type
           rdf:resource="http://purl.org/dc/dcmitype/StillImage" /></cc:Work></rdf:RDF></metadata><defs
     id="defs6" /><g
     transform="matrix(1.25,0,0,-1.25,0,375)"
     id="g10"><g
       transform="scale(0.1,0.1)"
       id="g12"><path
         id="path14"
         style="fill:#aebcc4;fill-opacity:1;fill-rule:nonzero;stroke:none"
         d="m 3000,529.855 c 0,-67.632 0,-529.85109375 -715,-529.85109375 l -1625,0 C 35,0.00390625 0,472.223 0,539.855 L 0,2399.86 c 0,545 592.352,600 660,600 l 1615,0.28 c 67.65,0 725,-0.28 725,-600.28" /><path
         id="path16"
         style="fill:#080828;fill-opacity:1;fill-rule:nonzero;stroke:none"
         d="m 561.672,424 59.5,0 0,340.719 -59.5,0 0,-340.719 z" /><path
         id="path18"
         style="fill:#080828;fill-opacity:1;fill-rule:nonzero;stroke:none"
         d="m 790.719,662.984 c -70.531,0 -120.922,-47.031 -120.922,-123.812 0,-74.859 50.859,-120.453 117.094,-120.453 59.5,0 119.968,38.39 119.968,124.297 0,71.015 -46.546,119.968 -116.14,119.968 z m -1.438,-43.203 c 40.313,0 56.625,-41.734 56.625,-78.218 0,-47.016 -23.515,-80.125 -57.109,-80.125 -35.984,0 -58.063,34.062 -58.063,79.171 0,38.875 16.797,79.172 58.547,79.172" /><path
         id="path20"
         style="fill:#080828;fill-opacity:1;fill-rule:nonzero;stroke:none"
         d="M 926.719,657.703 995.813,424 l 55.187,0 29.77,95.016 c 6.7,23.031 12.95,46.062 17.75,74.859 l 0.95,0 c 5.28,-28.312 10.56,-50.391 17.76,-74.859 l 27.83,-95.016 54.71,0 73.42,233.703 -58.06,0 -25.93,-103.656 c -6.23,-27.359 -11.51,-52.781 -15.34,-78.219 l -0.97,0 c -5.28,25.438 -11.51,50.86 -18.72,78.219 l -29.26,103.656 -47.99,0 -30.23,-106.531 c -6.72,-24 -14.39,-49.906 -19.21,-75.344 l -0.95,0 c -4.31,25.438 -9.59,50.86 -14.87,75.813 l -24.472,106.062 -60.469,0" /><path
         id="path22"
         style="fill:#080828;fill-opacity:1;fill-rule:nonzero;stroke:none"
         d="m 1595.42,424 c -2.39,14.391 -3.36,35.031 -3.36,56.141 l 0,84.468 c 0,50.86 -21.59,98.375 -96.45,98.375 -36.95,0 -67.19,-10.078 -84.45,-20.64 l 11.51,-38.391 c 15.83,10.078 39.83,17.281 62.86,17.281 41.27,0 47.52,-25.437 47.52,-40.796 l 0,-3.844 c -86.39,0.484 -138.69,-29.266 -138.69,-88.297 0,-35.5 26.39,-69.578 73.42,-69.578 30.24,0 54.7,12.953 69.1,31.187 l 1.43,0 3.85,-25.906 53.26,0 z m -60.94,82.063 c 0,-3.844 -0.48,-8.641 -1.92,-12.954 -5.28,-16.796 -22.56,-32.156 -46.08,-32.156 -18.7,0 -33.57,10.547 -33.57,33.594 0,35.5 39.82,44.625 81.57,43.656 l 0,-32.14" /><path
         id="path24"
         style="fill:#080828;fill-opacity:1;fill-rule:nonzero;stroke:none"
         d="m 1654.67,424 59.5,0 0,137.25 c 0,6.719 0.49,13.906 2.41,19.188 6.23,17.75 22.55,34.546 46.06,34.546 32.16,0 44.63,-25.421 44.63,-59.015 l 0,-131.969 59.03,0 0,138.688 c 0,73.89 -42.24,100.296 -83.02,100.296 -38.87,0 -64.31,-22.078 -74.39,-40.312 l -1.44,0 -2.87,35.031 -51.83,0 c 1.44,-20.156 1.92,-42.719 1.92,-69.594 l 0,-164.109" /><path
         id="path26"
         style="fill:#080828;fill-opacity:1;fill-rule:nonzero;stroke:none"
         d="m 2091.88,657.703 -2.41,-31.203 -0.95,0 c -11.05,19.203 -32.16,36.484 -67.68,36.484 -56.14,0 -106.04,-46.546 -106.04,-123.328 0,-66.234 41.26,-114.218 99.33,-114.218 30.71,0 54.7,13.921 68.14,34.546 l 0.96,0 0,-20.156 c 0,-50.375 -28.79,-70.531 -67.18,-70.531 -28.32,0 -53.27,9.109 -68.14,17.75 l -12.96,-44.625 c 20.16,-12.484 51.83,-18.719 81.58,-18.719 32.16,0 65.74,6.719 90.22,28.313 24.47,22.078 34.55,57.109 34.55,106.062 l 0,132.438 c 0,32.156 0.95,51.343 1.92,67.187 l -51.34,0 z m -9.61,-131.484 c 0,-6.719 -0.96,-14.875 -2.39,-21.125 -6.72,-21.11 -25.93,-35.5 -47.99,-35.5 -36.95,0 -57.11,32.14 -57.11,71.969 0,47.515 24.47,76.312 57.58,76.312 24.95,0 41.75,-16.328 48,-37.922 1.44,-4.797 1.91,-10.547 1.91,-15.828 l 0,-37.906" /><path
         id="path28"
         style="fill:#080828;fill-opacity:1;fill-rule:nonzero;stroke:none"
         d="m 2204.67,424 59.5,0 0,340.719 -59.5,0 0,-340.719 z" /><path
         id="path30"
         style="fill:#080828;fill-opacity:1;fill-rule:nonzero;stroke:none"
         d="m 2525.86,524.297 c 0.95,5.281 1.92,13.906 1.92,24.953 0,51.344 -24.95,113.734 -100.78,113.734 -74.86,0 -114.2,-60.953 -114.2,-125.734 0,-71.5 44.62,-118.047 120.45,-118.047 33.58,0 61.42,6.235 81.58,14.391 l -8.64,40.797 c -17.75,-6.719 -37.44,-10.563 -64.78,-10.563 -37.44,0 -70.55,18.235 -71.99,60.469 l 156.44,0 z m -156.44,41.266 c 2.39,24 17.75,57.109 54.22,57.109 39.36,0 48.95,-35.516 48.47,-57.109 l -102.69,0" /><path
         id="path32"
         style="fill:#080828;fill-opacity:1;fill-rule:nonzero;stroke:none"
         d="m 1757.7,2416.14 179.62,-181 c 0,0 -66.98,-29.95 -113.3,-23.55 l -25.68,-25.65 -5.68,-98.39 c 0,0 6.41,-29.21 -43.36,-70.44 l -215.34,-215.42 c 0,0 -51.41,-52.48 -121.78,4.87 l -102.82,102.81 c 0,0 -35.06,58.85 8.62,112.57 l 212.09,212.15 c 0,0 41.84,42.59 71.09,41.49 l 103.43,4.77 26,25.99 c 0,0 -12.11,40.67 27.11,109.8" /><path
         id="path34"
         style="fill:#ffffff;fill-opacity:1;fill-rule:evenodd;stroke:none"
         d="m 2106.68,946.73 c -0.95,31.329 30.21,47.758 58.49,53.18 52.67,10.06 84.62,47.7 84.82,101.3 0.18,50.16 0.48,100.33 -0.1,150.49 -0.47,39.6 -2.42,40.94 -41.81,40.92 l -110.41,0 c -1.49,22.07 -3.75,44.03 -4.28,66.03 -2.07,83.04 -3.71,166.06 -5.21,249.1 -0.46,25.67 18.64,44.18 44.11,44.73 12.68,0.26 25.34,1.87 43.86,3.33 -6.07,25.4 -10.37,49.02 -18.12,71.44 -1.87,5.38 -15.29,6.77 -25.51,10.83 -2.11,9.49 -4.79,21.63 -7.64,34.47 l -37.58,0 c 1.99,34.91 2.58,68.89 6.11,102.56 6.53,62.33 14.7,124.48 22.38,186.69 9.41,76.27 17.9,152.68 29.44,228.64 2.51,16.49 14.43,32.79 25.41,46.42 13.24,16.41 27.14,30.55 22.66,54.5 -1.17,6.29 5.97,13.87 8.33,21.17 4.03,12.38 9.44,24.86 10.33,37.56 1.06,15.29 -6.25,23.94 -24.65,23.14 -30.84,-1.35 -31.73,2.36 -38.54,33.61 -3.38,15.48 -14,29.27 -20.24,44.3 -2.22,5.33 -2.22,12.16 -1.41,18.06 4.19,30.45 14.27,60.76 17.86,91.28 0.66,5.57 -8.69,12.36 -12.19,17.71 -15.65,23.88 -9.79,42.04 17.44,48.36 36.72,8.52 73.57,16.64 110.69,23.07 23.38,4.06 41.63,-9.26 55.89,-25.73 44.21,-51.1 57.46,-108.13 26.81,-170.86 -10.54,-21.57 -9.23,-39.28 7.65,-56.12 9.58,-9.56 18.17,-20.23 28.38,-29.03 78.45,-67.55 96.98,-154.58 82.8,-252.37 -10.8,-74.58 -23.99,-148.15 -17.74,-225 6.52,-80.75 1.45,-162.43 1.45,-245.66 -12.63,-0.89 -24.12,-1.71 -38.84,-2.75 1.98,-27.65 3.89,-54.22 6.09,-85.03 10.15,0 19.27,-0.02 28.38,0 35.95,0.04 71.9,0.06 107.86,0.11 31.87,0.06 50.03,-17.71 50.51,-48.54 1.42,-92.64 3.14,-185.27 4.7,-277.9 0.16,-8.6 0.03,-17.23 0.03,-27.34 -53.31,-2.53 -104.78,-4.99 -157.8,-7.51 1.51,-16.42 4.35,-31.98 4.1,-47.52 -1.01,-66.83 -2.41,-133.65 -5.23,-200.41 -0.37,-8.48 -10.05,-16.55 -20,-23.04 1.92,-12.48 4.12,-24.91 5.7,-37.42 3.7,-29.242 -4.46,-42.23 -33.17,-44.281 -30.11,-2.149 -60.55,0.789 -90.78,-0.281 -14.82,-0.528 -29.4,-5.79 -44.23,-7.77 -53.43,-7.051 -105.35,2.461 -156.8,11.562" /><path
         id="path36"
         style="fill:none;stroke:#c1272d;stroke-width:38.88999939;stroke-linecap:butt;stroke-linejoin:miter;stroke-miterlimit:10;stroke-dasharray:155.56, 51.85;stroke-dashoffset:0;stroke-opacity:1"
         d="M 446.625,2633.8 2034.7,2627.37" /><path
         id="path38"
         style="fill:#c1272d;fill-opacity:1;fill-rule:nonzero;stroke:none"
         d="m 1837.85,2355.6 141.43,144.96 -36.78,35.34 c 0,0.9 1.58,1.67 2.47,1.71 l 102.1,5.63 c 0.88,0.03 1.59,-0.68 1.6,-1.56 l -1.57,-102.22 c 0,-0.9 -1.56,-1.68 -2.45,-1.73 l -33.87,32.54 -141.42,-144.97" /></g></g></svg>