<svg xmlns="http://www.w3.org/2000/svg" xmlns:xlink="http://www.w3.org/1999/xlink" width="300" height="300" viewBox="0 0 300 300"><switch><g><symbol id="a" viewBox="-150 -150 300 300.007"><path fill="#CE8E95" d="M150-97.021c0-6.764 0-52.979-71.5-52.979H-84c-62.5 0-66 47.215-66 53.979v186c0 54.5 59.235 60 66 60l161.5.029c6.765 0 72.5-.029 72.5-60.029v-187z"/></symbol><use xlink:href="#a" width="300" height="300.007" x="-150" y="-150" transform="matrix(1 0 0 -1 150 150)" overflow="visible"/><g fill="#26080D"><path d="M83.115 240.914l-7.92-32.354h6.289l3.072 14.688a291.235 291.235 0 0 1 2.112 11.281h.096c.528-3.408 1.44-7.248 2.352-11.329l3.504-14.641h6.192l3.216 14.881c.816 3.841 1.488 7.44 1.968 10.945h.096c.576-3.553 1.344-7.249 2.208-11.186l3.36-14.641h6l-8.688 32.354h-6.337l-3.36-15.218c-.816-3.696-1.392-6.769-1.776-10.272h-.096c-.576 3.456-1.2 6.576-2.16 10.272l-3.743 15.22h-6.385zM121.707 230.881c.144 4.225 3.456 6.049 7.201 6.049 2.736 0 4.704-.384 6.48-1.056l.864 4.08c-2.017.816-4.801 1.44-8.161 1.44-7.584 0-12.049-4.657-12.049-11.81 0-6.48 3.937-12.577 11.425-12.577 7.585 0 10.081 6.24 10.081 11.377 0 1.104-.096 1.969-.192 2.496h-15.649zm10.273-4.128c.048-2.16-.912-5.713-4.849-5.713-3.648 0-5.185 3.313-5.424 5.713h10.273zM148.586 211.008c0 1.775-1.296 3.168-3.36 3.168-1.969 0-3.265-1.393-3.265-3.168 0-1.824 1.345-3.217 3.313-3.217 2.017 0 3.265 1.393 3.312 3.217zm-6.289 29.906v-23.378h5.953v23.378h-5.953zM171.771 240.194c-1.248.576-3.695 1.2-6.623 1.2-7.297 0-12.051-4.657-12.051-11.905 0-7.009 4.801-12.481 13.01-12.481 2.16 0 4.369.48 5.713 1.104l-1.057 4.416c-.959-.432-2.352-.912-4.465-.912-4.512 0-7.199 3.313-7.152 7.585 0 4.801 3.121 7.536 7.152 7.536 2.064 0 3.506-.432 4.658-.912l.815 4.369zM176.137 206.831h5.953v13.921h.096a7.92 7.92 0 0 1 2.93-2.688c1.15-.673 2.543-1.057 4.031-1.057 3.984 0 8.16 2.641 8.16 10.129v13.777h-5.904v-13.105c0-3.408-1.248-5.952-4.512-5.952-2.305 0-3.938 1.536-4.561 3.313-.191.479-.24 1.104-.24 1.776v13.969h-5.953v-34.083zM207.77 230.881c.143 4.225 3.455 6.049 7.199 6.049 2.736 0 4.705-.384 6.48-1.056l.865 4.08c-2.016.816-4.801 1.44-8.16 1.44-7.586 0-12.051-4.657-12.051-11.81 0-6.48 3.938-12.577 11.426-12.577 7.584 0 10.08 6.24 10.08 11.377 0 1.104-.096 1.969-.191 2.496H207.77zm10.271-4.128c.049-2.16-.912-5.713-4.848-5.713-3.648 0-5.184 3.313-5.424 5.713h10.272zM80.811 256.991c1.872-.384 5.281-.672 8.593-.672 4.369 0 7.057.528 9.265 2.064 2.017 1.2 3.36 3.312 3.36 6.048 0 2.977-1.872 5.713-5.376 7.009v.096c3.409.864 6.529 3.553 6.529 8.018 0 2.88-1.248 5.136-3.12 6.672-2.305 2.017-6.097 3.024-12.001 3.024-3.264 0-5.76-.24-7.249-.432v-31.827zm5.856 12.77h3.024c4.081 0 6.385-1.921 6.385-4.657 0-3.023-2.304-4.416-6.049-4.416-1.728 0-2.736.096-3.36.24v8.833zm0 14.881c.768.096 1.776.145 3.121.145 3.792 0 7.152-1.44 7.152-5.425 0-3.744-3.264-5.28-7.345-5.28h-2.928v10.56zM108.219 254.831h5.952v34.083h-5.952v-34.083zM124.73 278.881c.144 4.225 3.456 6.049 7.201 6.049 2.736 0 4.704-.384 6.48-1.056l.864 4.08c-2.017.816-4.801 1.44-8.161 1.44-7.584 0-12.049-4.657-12.049-11.81 0-6.48 3.937-12.577 11.425-12.577 7.585 0 10.081 6.24 10.081 11.377 0 1.104-.096 1.969-.192 2.496H124.73zm10.273-4.128c.048-2.16-.912-5.713-4.849-5.713-3.648 0-5.185 3.313-5.424 5.713h10.273zM145.321 272.497c0-2.688-.048-4.945-.191-6.961h5.185l.288 3.504h.144c1.008-1.824 3.553-4.032 7.44-4.032 4.08 0 8.305 2.641 8.305 10.033v13.873h-5.904v-13.201c0-3.36-1.248-5.904-4.465-5.904-2.352 0-3.984 1.68-4.607 3.456-.191.528-.24 1.248-.24 1.92v13.729h-5.953v-16.417zM194.33 254.831v27.507c0 2.399.096 4.992.191 6.576h-5.279l-.24-3.696h-.096c-1.393 2.592-4.225 4.225-7.633 4.225-5.568 0-9.986-4.753-9.986-11.953-.047-7.825 4.85-12.481 10.467-12.481 3.215 0 5.52 1.345 6.576 3.072h.096v-13.249h5.904zm-5.904 20.45c0-.48-.049-1.057-.145-1.536-.527-2.305-2.4-4.177-5.088-4.177-3.793 0-5.904 3.36-5.904 7.729 0 4.272 2.111 7.393 5.855 7.393 2.4 0 4.514-1.632 5.09-4.176.143-.528.191-1.104.191-1.729v-3.504zM204.84 278.881c.145 4.225 3.457 6.049 7.201 6.049 2.736 0 4.705-.384 6.48-1.056l.863 4.08c-2.016.816-4.799 1.44-8.16 1.44-7.584 0-12.049-4.657-12.049-11.81 0-6.48 3.936-12.577 11.426-12.577 7.584 0 10.08 6.24 10.08 11.377 0 1.104-.096 1.969-.191 2.496h-15.65zm10.273-4.128c.047-2.16-.912-5.713-4.848-5.713-3.648 0-5.186 3.313-5.426 5.713h10.274z"/></g><path fill="#333" d="M193 58h71v112h-71z"/><path fill="#FFF" d="M30 58h71v112H30z"/><path fill="#333" d="M58.755 107.468l-3.784 12.462h-8.287l14.093-43.976h10.244L85.31 119.93h-8.612l-3.98-12.462H58.755zm12.592-6.068l-3.458-10.831c-.848-2.675-1.566-5.677-2.218-8.221h-.13c-.653 2.544-1.305 5.611-2.088 8.221L60.06 101.4h11.287z"/><path fill="#FFF" d="M214.8 77.585c2.544-.522 7.177-.913 11.679-.913 5.938 0 9.592.717 12.593 2.805 2.74 1.631 4.567 4.502 4.567 8.221 0 4.045-2.545 7.765-7.308 9.526v.131c4.632 1.174 8.873 4.828 8.873 10.896 0 3.915-1.696 6.981-4.241 9.069-3.131 2.74-8.286 4.11-16.312 4.11-4.437 0-7.829-.326-9.852-.587V77.585zm7.96 17.356h4.11c5.546 0 8.678-2.61 8.678-6.329 0-4.11-3.132-6.003-8.221-6.003-2.35 0-3.72.131-4.567.327v12.005zm0 20.226c1.044.131 2.414.196 4.241.196 5.154 0 9.722-1.957 9.722-7.373 0-5.089-4.438-7.177-9.983-7.177h-3.979v14.354zM105 60h9v9h-9zM105 74h9v9h-9zM105 89h9v8h-9zM105 103h9v8h-9zM105 117h9v9h-9zM105 132h9v8h-9zM105 145h9v9h-9zM105 159h9v9h-9zM121 68h8v8h-8zM121 82h8v8h-8zM121 96h8v9h-8zM121 111h8v8h-8zM121 124h8v9h-8zM121 137h8v9h-8zM121 152h8v8h-8zM135 77h9v9h-9zM135 93h9v9h-9zM135 111h9v9h-9zM135 128h9v8h-9zM133 142h9v9h-9z"/><path fill="#333" d="M189.573 169.1l-8.596-.144.143-8.597 8.596.143zM189.813 154.772l-8.598-.144.144-8.596 8.597.144zM190.053 140.444l-8.596-.143.143-8.597 8.596.143zM190.295 126.112l-8.596-.144.144-8.596 8.596.144zM190.533 111.785l-8.596-.145.144-8.595 8.596.144zM190.77 97.467l-8.597-.144.144-8.596 8.596.144zM190.992 84.096l-8.597-.144.143-8.596 8.597.143zM191.232 69.77l-8.597-.144.143-8.596 8.598.143zM174.42 161.25l-8.598-.144.144-8.596 8.597.144zM174.658 146.924l-8.598-.144.144-8.596 8.597.144zM174.902 132.59l-8.597-.144.144-8.596 8.597.144zM175.136 118.271l-8.597-.143.144-8.596 8.597.143zM175.359 104.901l-8.597-.144.144-8.596 8.596.144zM175.583 91.53l-8.596-.144.143-8.596 8.596.143zM175.822 77.203l-8.597-.143.144-8.596 8.597.143zM159.299 145.71l-8.597-.142.143-8.596 8.596.143zM159.562 128.529l-8.596-.143.143-8.597 8.596.142zM159.867 110.38l-8.597-.142.143-8.596 8.596.143zM160.138 93.19l-8.596-.142.143-8.598 8.596.143z"/></g></switch></svg>