<svg xmlns="http://www.w3.org/2000/svg" xmlns:xlink="http://www.w3.org/1999/xlink" width="300" height="300" viewBox="0 0 300 300"><switch><g><symbol id="a" viewBox="-150 -150 300 300.007"><path fill="#CE8E95" d="M150-97.021c0-6.764 0-52.979-71.5-52.979H-84c-62.5 0-66 47.215-66 53.979v186c0 54.5 59.235 60 66 60l161.5.029c6.765 0 72.5-.029 72.5-60.029v-187z"/></symbol><use xlink:href="#a" width="300" height="300.007" x="-150" y="-150" transform="matrix(1 0 0 -1 150 150)" overflow="visible"/><g fill="#26080D"><path d="M51.168 242.36c0-2.688-.048-4.945-.192-6.961h5.088l.24 3.456h.144c1.152-1.824 3.264-3.984 7.201-3.984 3.072 0 5.473 1.729 6.48 4.32h.096c.816-1.296 1.776-2.256 2.88-2.928 1.296-.912 2.785-1.393 4.705-1.393 3.888 0 7.825 2.641 7.825 10.129v13.777h-5.76v-12.913c0-3.889-1.344-6.192-4.177-6.192-2.016 0-3.504 1.439-4.128 3.12-.144.576-.288 1.296-.288 1.968v14.018h-5.761V245.24c0-3.265-1.296-5.568-4.032-5.568-2.208 0-3.696 1.728-4.225 3.36-.24.576-.336 1.248-.336 1.92v13.825h-5.76V242.36zM105.025 258.777l-.384-2.592h-.144c-1.44 1.824-3.889 3.12-6.913 3.12-4.705 0-7.345-3.408-7.345-6.961 0-5.904 5.232-8.881 13.873-8.833v-.384c0-1.536-.624-4.08-4.752-4.08-2.304 0-4.704.72-6.289 1.728l-1.152-3.84c1.728-1.057 4.752-2.064 8.449-2.064 7.489 0 9.649 4.753 9.649 9.841v8.449c0 2.112.096 4.176.336 5.616h-5.328zm-.768-11.424c-4.176-.097-8.161.815-8.161 4.368 0 2.305 1.488 3.36 3.36 3.36 2.352 0 4.081-1.536 4.608-3.216a4.25 4.25 0 0 0 .192-1.297v-3.215zM122.737 228.727v6.673h5.616v4.416h-5.616v10.321c0 2.832.768 4.32 3.024 4.32a8.765 8.765 0 0 0 2.304-.288l.096 4.513c-.864.336-2.4.576-4.272.576-2.16 0-3.984-.721-5.088-1.921-1.248-1.344-1.824-3.456-1.824-6.528v-10.993h-3.36V235.4h3.36v-5.28l5.76-1.393zM149.714 258.058c-1.249.576-3.697 1.2-6.625 1.2-7.296 0-12.049-4.657-12.049-11.905 0-7.009 4.8-12.481 13.009-12.481 2.16 0 4.368.48 5.712 1.104l-1.056 4.416c-.96-.432-2.352-.912-4.464-.912-4.513 0-7.201 3.313-7.153 7.585 0 4.801 3.121 7.536 7.153 7.536 2.064 0 3.504-.432 4.656-.912l.817 4.369zM154.08 224.694h5.952v13.921h.097a7.922 7.922 0 0 1 2.928-2.688c1.152-.673 2.545-1.057 4.032-1.057 3.984 0 8.161 2.641 8.161 10.129v13.777h-5.904v-13.105c0-3.408-1.248-5.952-4.513-5.952-2.304 0-3.937 1.536-4.561 3.313-.192.479-.24 1.104-.24 1.776v13.969h-5.952v-34.083zM208.656 258.058c-1.248.576-3.696 1.2-6.624 1.2-7.297 0-12.05-4.657-12.05-11.905 0-7.009 4.801-12.481 13.01-12.481 2.16 0 4.368.48 5.712 1.104l-1.056 4.416c-.96-.432-2.353-.912-4.465-.912-4.512 0-7.2 3.313-7.152 7.585 0 4.801 3.12 7.536 7.152 7.536 2.064 0 3.505-.432 4.657-.912l.816 4.369zM233.953 251.769a137 137 0 0 0 .192 7.009h-5.185l-.288-3.553h-.096c-1.008 1.681-3.313 4.081-7.488 4.081-4.272 0-8.161-2.545-8.161-10.177V235.4h5.904v12.721c0 3.889 1.248 6.385 4.368 6.385 2.353 0 3.889-1.68 4.513-3.168a5.366 5.366 0 0 0 .336-1.824v-14.113h5.904v16.368zM247.103 228.727v6.673h5.617v4.416h-5.617v10.321c0 2.832.769 4.32 3.024 4.32a8.78 8.78 0 0 0 2.305-.288l.096 4.513c-.864.336-2.4.576-4.272.576-2.16 0-3.984-.721-5.088-1.921-1.249-1.344-1.824-3.456-1.824-6.528v-10.993h-3.36V235.4h3.36v-5.28l5.759-1.393z"/></g><path fill="#333" d="M149 76h125v117H149z"/><path fill="#FFF" d="M24 76h125v117H24z"/><path d="M49.375 107.125s1.896-5.905 5.042-4.458c2.083.958 1.958 3.708.958 5.833 0 0 30.5 11.875 59.375 29.125 0 0 1.899 1.141 5.972 1.167 0 0 4.028-1.542 6.278.958 0 0 3.5 3.25-4 8.5 0 0-1.338 3.205-3.75 3.25 0 0-4.5.5-4.25-5.25 0 0 0-3-3.333-6.083 0 0-30.917-21.167-59-28.5 0 0-1.333 1.417-2.583 1.583-1.239.165-2.708-.292-2.708-2.625-.001 0-.001-1 1.999-3.5z"/><path fill="#FFF" d="M171.235 146.341l9.538-2.736 2.219.365 7.92-1.952 3.713-3.384 3.998-4.113-1.255-6.582-4.618 1.311-1.656-6.895 2.926-2.538 2.98-1.067 3.257.54 15.115-3.725 1.255 4.956-2.349 2.324L203 126l1.75 7.25 2.5.75 3.5 2 6.866-1.669 3.003-1.489 29.903-7.505 5.978-.837 1.5.75 2.75.5.638 3.574-1.628 2.08-26.471 7.27-2.952-.35-8.759 2.208-2.596 1.655-22.223 5.601-3.009-.288-9.497 2.511-1.175 1.556-9.371 2.403z"/><path fill="none" stroke="#FFF" stroke-width=".5" stroke-miterlimit="10" d="M178.25 133.25l15.5-5"/><path fill="none" stroke="#FFF" stroke-width=".447" stroke-miterlimit="10" d="M208.589 108.059l4.763 12.487"/></g></switch></svg>