<?xml version="1.0" encoding="utf-8"?>
<!-- Generator: Adobe Illustrator 16.0.3, SVG Export Plug-In . SVG Version: 6.00 Build 0)  -->
<!DOCTYPE svg PUBLIC "-//W3C//DTD SVG 1.1//EN" "http://www.w3.org/Graphics/SVG/1.1/DTD/svg11.dtd">
<svg version="1.1" id="Layer_1" xmlns="http://www.w3.org/2000/svg" xmlns:xlink="http://www.w3.org/1999/xlink" x="0px" y="0px"
	 width="500px" height="500px" viewBox="0 0 500 500" enable-background="new 0 0 500 500" xml:space="preserve">
<title>Artboard 1</title>
<rect y="0" fill="#0A97D9" width="500" height="500"/>
<polygon fill="#FFFFFF" points="65.145,42.07 65.145,142.835 48.195,142.835 48.195,65.705 48.05,65.705 36.165,78.035 
	36.01,78.035 36.01,60.35 51.615,42.07 "/>
<path fill="#FFFFFF" d="M116.745,142.86V126.5h6.84v-13.23h-6.84V42.045H100.09l-29.295,74.05V126.5h29.891v16.354L116.745,142.86z
	 M85.665,113.27l15.165-41.5h0.15v41.5H85.665z"/>
<g>
	<path fill="#FFFFFF" d="M384.79,364.81c-6.29-8.5-46.94-60.31-103.93-60.31c-49.501,0-102.425,44.88-102.425,44.88
		s-19.886-40.7-60.565-44.61c-0.235,0-0.5-0.055-0.761-0.055h-0.254c-0.851,0.05-1.646,0.875-1.551,1.608
		c0.119,0.535,0.334,1.043,0.635,1.5c5.246,8.677,18.625,33.45,18.625,58.177c0,24.818-13.459,49.648-18.654,58.313l-0.355,0.55
		c-0.16,0.259-0.248,0.557-0.25,0.86c0.006,0.843,0.659,1.54,1.5,1.6l0.44-0.035c0.144,0.008,0.286-0.007,0.425-0.04
		c40.805-3.8,60.766-44.625,60.766-44.625s52.939,44.887,102.425,44.887c57,0,97.635-51.82,103.93-60.307
		c0.17-0.229,0.31-0.43,0.435-0.578c0.085-0.198,0.132-0.41,0.137-0.625c-0.003-0.215-0.05-0.426-0.137-0.62
		c-0.125-0.177-0.265-0.375-0.435-0.585 M312.55,372.56c-9.185-0.011-16.621-7.466-16.608-16.65
		c0.011-9.185,7.465-16.621,16.648-16.608c9.175,0.011,16.607,7.45,16.61,16.625c-0.003,9.188-7.455,16.638-16.646,16.635
		C312.554,372.56,312.552,372.56,312.55,372.56"/>
	<path fill="#FFFFFF" d="M116.59,207.085c-0.104-0.033-0.208-0.058-0.314-0.07c-0.908,0.006-1.642,0.746-1.635,1.655l0,0V220
		c-0.009,0.438,0.162,0.863,0.475,1.175c27.5,23.9,53.555,1.5,59.585-4.415c0.112-0.18,0.258-0.336,0.43-0.46
		c0.267-0.184,0.581-0.286,0.905-0.295c0.41-0.003,0.808,0.155,1.105,0.438c0.021,0.029,0.049,0.054,0.079,0.07
		c31.075,29.65,63.655,5.635,70.437,0l0.665-0.61c0.193-0.086,0.405-0.129,0.62-0.125c0.221-0.006,0.44,0.037,0.645,0.125
		l0.675,0.61c6.775,5.635,39.355,29.65,70.425,0c0.022-0.021,0.043-0.045,0.062-0.07c0.298-0.282,0.693-0.439,1.104-0.438
		c0.324,0.007,0.641,0.108,0.905,0.295c0.178,0.125,0.332,0.28,0.455,0.46c6.025,5.92,32.045,28.315,59.575,4.415
		c0.308-0.313,0.479-0.736,0.475-1.175v-11.33c0.018-0.897-0.697-1.64-1.595-1.655c-0.007,0-0.014,0-0.021,0
		c-0.118,0.012-0.235,0.035-0.351,0.07c-0.255,0.145-0.5,0.285-0.825,0.43c-8.46,4.235-34.7,14.315-58.5-8.22
		c-0.225-0.205-0.46-0.415-0.693-0.66c-0.22-0.099-0.456-0.149-0.695-0.15c-0.169,0.012-0.336,0.036-0.5,0.075
		c-0.333,0.132-0.621,0.355-0.83,0.646c-7.1,5.408-39.68,27.47-68.695,0.403l-0.425-0.415c-0.319-0.304-0.739-0.48-1.18-0.5
		c-0.429,0.021-0.831,0.199-1.136,0.5l-0.449,0.415c-29.001,27.065-61.62,5-68.71-0.403c-0.198-0.29-0.479-0.516-0.805-0.646
		c-0.166-0.037-0.332-0.063-0.5-0.075c-0.236,0.008-0.469,0.059-0.686,0.15c-0.215,0.236-0.448,0.457-0.695,0.66
		c-23.814,22.535-50.05,12.455-58.5,8.22c-0.295-0.145-0.58-0.285-0.835-0.43"/>
	<path fill="#FFFFFF" d="M174.7,258.04c0.116-0.175,0.264-0.327,0.435-0.45c0.264-0.188,0.577-0.296,0.9-0.312
		c0.415,0.002,0.813,0.165,1.109,0.455c0.021,0.028,0.045,0.054,0.076,0.07c31.064,29.615,63.654,5.61,70.436,0l0.665-0.63
		c0.196-0.076,0.408-0.111,0.62-0.105c0.223-0.007,0.444,0.028,0.653,0.105l0.665,0.63c6.775,5.61,39.352,29.615,70.432,0
		c0,0,0.033-0.04,0.055-0.07c0.295-0.289,0.69-0.452,1.104-0.455c0.324,0.013,0.639,0.119,0.9,0.312
		c0.18,0.121,0.335,0.272,0.46,0.45c6,5.925,32.04,28.325,59.575,4.398c0.314-0.297,0.496-0.711,0.5-1.145V249.92
		c0.003-0.896-0.722-1.622-1.615-1.625c-0.003,0-0.007,0-0.01,0c-0.118,0.012-0.235,0.033-0.352,0.063l-0.823,0.415
		c-8.455,4.24-34.71,14.295-58.5-8.21l-0.69-0.648c-0.214-0.119-0.456-0.177-0.7-0.165c-0.175-0.003-0.347,0.04-0.5,0.125
		c-0.344,0.09-0.641,0.308-0.83,0.608c-7.09,5.4-39.68,27.467-68.698,0.4l-0.427-0.425c-0.316-0.299-0.737-0.462-1.175-0.455
		c-0.423-0.004-0.831,0.16-1.135,0.455l-0.45,0.425c-29,27.064-61.62,5-68.71-0.4c-0.18-0.299-0.468-0.518-0.805-0.608
		c-0.155-0.08-0.326-0.123-0.5-0.125c-0.236-0.008-0.469,0.05-0.676,0.165c-0.225,0.225-0.465,0.438-0.709,0.648
		c-23.815,22.5-50.045,12.45-58.5,8.21l-0.836-0.415c-0.102-0.028-0.205-0.051-0.31-0.063c-0.899-0.006-1.634,0.72-1.64,1.62
		c0,0.001,0,0.003,0,0.005v11.375c-0.006,0.431,0.166,0.845,0.475,1.145c27.5,23.925,53.561,1.5,59.585-4.398"/>
</g>
<g>
	<path fill="#FFFFFF" d="M149.684,83.836c-0.254,0-0.439-0.083-0.557-0.249c-0.117-0.166-0.176-0.542-0.176-1.128V43.084
		c0-0.586,0.059-0.962,0.176-1.128c0.117-0.166,0.303-0.249,0.557-0.249h4.307c0.253,0,0.439,0.083,0.557,0.249
		c0.117,0.166,0.176,0.542,0.176,1.128v35.449c0,0.43,0.136,0.645,0.41,0.645h7.617c0.253,0,0.439,0.069,0.557,0.205
		c0.117,0.137,0.176,0.45,0.176,0.938v2.344c0,0.488-0.059,0.806-0.176,0.952s-0.303,0.22-0.557,0.22H149.684z"/>
	<path fill="#FFFFFF" d="M168.786,83.836c-0.254,0-0.439-0.073-0.557-0.22s-0.176-0.483-0.176-1.011V42.938
		c0-0.508,0.059-0.839,0.176-0.996c0.117-0.156,0.303-0.234,0.557-0.234h15.41c0.156,0,0.283,0.02,0.381,0.059
		c0.098,0.04,0.18,0.146,0.249,0.322c0.068,0.176,0.103,0.439,0.103,0.791v2.314c0,0.488-0.059,0.806-0.176,0.952
		s-0.303,0.22-0.557,0.22h-10.02c-0.234,0-0.352,0.322-0.352,0.967v11.836c0,0.176,0.034,0.352,0.103,0.527
		c0.068,0.176,0.132,0.264,0.19,0.264h8.057c0.488,0,0.732,0.45,0.732,1.348v2.256c0,0.898-0.245,1.348-0.732,1.348h-8.027
		c-0.078,0-0.151,0.098-0.22,0.293c-0.069,0.195-0.103,0.391-0.103,0.586v13.389h10.459c0.176,0,0.312,0.02,0.41,0.059
		c0.098,0.04,0.18,0.146,0.249,0.322c0.068,0.176,0.103,0.439,0.103,0.791v2.314c0,0.488-0.063,0.806-0.19,0.952
		c-0.127,0.146-0.318,0.22-0.571,0.22H168.786z"/>
	<path fill="#FFFFFF" d="M190.875,83.836c-0.274,0-0.474-0.078-0.601-0.234c-0.127-0.156-0.19-0.508-0.19-1.055V43.026
		c0-0.566,0.063-0.927,0.19-1.084c0.127-0.156,0.327-0.234,0.601-0.234h10.723c5.566,0,8.35,3.877,8.35,11.631
		c0,3.614-0.869,6.143-2.607,7.588c-0.176,0.176-0.264,0.293-0.264,0.352s0.098,0.186,0.293,0.381
		c2.441,1.739,3.662,4.991,3.662,9.756c0,2.344-0.239,4.336-0.718,5.977c-0.479,1.641-1.172,2.925-2.08,3.853
		c-0.908,0.928-1.948,1.592-3.12,1.992c-1.172,0.4-2.53,0.601-4.072,0.601H190.875z M196.266,59.432h4.863
		c1.074,0,1.934-0.532,2.578-1.597c0.645-1.064,0.967-2.505,0.967-4.321c0-2.383-0.415-4.185-1.245-5.405
		c-0.831-1.22-1.968-1.831-3.413-1.831h-3.75c-0.274,0-0.41,0.215-0.41,0.645v11.924C195.856,59.237,195.992,59.432,196.266,59.432z
		 M196.266,79.442h3.721c1.718,0,3.051-0.722,3.999-2.168c0.947-1.445,1.421-3.408,1.421-5.889c0-2.207-0.42-4.023-1.26-5.449
		c-0.84-1.425-1.915-2.139-3.223-2.139h-4.658c-0.274,0-0.41,0.234-0.41,0.703v14.355C195.856,79.247,195.992,79.442,196.266,79.442
		z"/>
	<path fill="#FFFFFF" d="M217.067,83.836c-0.254,0-0.439-0.073-0.557-0.22s-0.176-0.483-0.176-1.011V42.938
		c0-0.508,0.059-0.839,0.176-0.996c0.117-0.156,0.303-0.234,0.557-0.234h15.41c0.156,0,0.283,0.02,0.381,0.059
		c0.098,0.04,0.18,0.146,0.249,0.322c0.068,0.176,0.103,0.439,0.103,0.791v2.314c0,0.488-0.059,0.806-0.176,0.952
		s-0.303,0.22-0.557,0.22h-10.02c-0.234,0-0.352,0.322-0.352,0.967v11.836c0,0.176,0.034,0.352,0.103,0.527
		c0.068,0.176,0.132,0.264,0.19,0.264h8.057c0.488,0,0.732,0.45,0.732,1.348v2.256c0,0.898-0.245,1.348-0.732,1.348h-8.027
		c-0.078,0-0.151,0.098-0.22,0.293c-0.069,0.195-0.103,0.391-0.103,0.586v13.389h10.459c0.176,0,0.312,0.02,0.41,0.059
		c0.098,0.04,0.18,0.146,0.249,0.322c0.068,0.176,0.103,0.439,0.103,0.791v2.314c0,0.488-0.063,0.806-0.19,0.952
		c-0.127,0.146-0.318,0.22-0.571,0.22H217.067z"/>
	<path fill="#FFFFFF" d="M239.127,83.836c-0.254,0-0.444-0.098-0.571-0.293c-0.127-0.195-0.19-0.586-0.19-1.172V43.26
		c0-1.035,0.253-1.553,0.762-1.553h4.453c0.41,0,0.762,0.381,1.055,1.143l9.931,26.689c0.039,0.137,0.098,0.098,0.176-0.117
		l0.029-0.264V43.26c0-1.035,0.264-1.553,0.791-1.553h3.486c0.488,0,0.732,0.518,0.732,1.553v39.229
		c0,0.586-0.059,0.962-0.176,1.128c-0.117,0.166-0.303,0.249-0.557,0.249h-3.164c-0.195,0-0.405-0.117-0.629-0.352
		c-0.225-0.234-0.406-0.527-0.543-0.879l-11.044-28.828c-0.078-0.156-0.137-0.107-0.176,0.146c-0.02,0.059-0.029,0.127-0.029,0.205
		v28.213c0,0.586-0.063,0.977-0.19,1.172c-0.127,0.195-0.327,0.293-0.601,0.293H239.127z"/>
	<path fill="#FFFFFF" d="M284.889,84.276c-1.055,0-1.963-0.044-2.725-0.132s-1.553-0.274-2.373-0.557s-1.514-0.678-2.08-1.187
		c-0.566-0.508-1.117-1.196-1.654-2.065c-0.538-0.869-0.963-1.919-1.275-3.149s-0.561-2.714-0.746-4.453
		c-0.187-1.738-0.279-3.73-0.279-5.977V43.084c0-0.566,0.063-0.938,0.191-1.113c0.127-0.176,0.316-0.264,0.57-0.264h4.307
		c0.156,0,0.283,0.025,0.381,0.073c0.098,0.049,0.181,0.181,0.25,0.396c0.068,0.215,0.102,0.518,0.102,0.908V66.58
		c0,2.305,0.068,4.238,0.205,5.801c0.137,1.563,0.332,2.823,0.586,3.779c0.254,0.957,0.611,1.685,1.07,2.183
		c0.458,0.498,0.941,0.831,1.449,0.996c0.508,0.166,1.172,0.249,1.992,0.249c1.035,0,1.836-0.117,2.402-0.352
		s1.084-0.791,1.553-1.67s0.787-2.187,0.953-3.926c0.165-1.738,0.248-4.091,0.248-7.061V43.084c0-0.586,0.059-0.962,0.176-1.128
		c0.117-0.166,0.303-0.249,0.557-0.249h4.336c0.156,0,0.279,0.025,0.367,0.073c0.088,0.049,0.165,0.181,0.234,0.396
		c0.068,0.215,0.102,0.518,0.102,0.908v23.672c0,2.266-0.092,4.282-0.277,6.05c-0.187,1.768-0.436,3.262-0.748,4.482
		c-0.313,1.221-0.736,2.261-1.273,3.12c-0.538,0.86-1.084,1.538-1.641,2.036s-1.241,0.889-2.051,1.172
		c-0.811,0.283-1.578,0.464-2.301,0.542C286.773,84.236,285.904,84.276,284.889,84.276z"/>
	<path fill="#FFFFFF" d="M302.906,83.836c-0.254,0-0.443-0.098-0.57-0.293c-0.128-0.195-0.191-0.586-0.191-1.172V43.26
		c0-1.035,0.254-1.553,0.762-1.553h4.453c0.41,0,0.762,0.381,1.055,1.143l9.932,26.689c0.039,0.137,0.098,0.098,0.176-0.117
		l0.029-0.264V43.26c0-1.035,0.264-1.553,0.791-1.553h3.486c0.488,0,0.732,0.518,0.732,1.553v39.229
		c0,0.586-0.059,0.962-0.176,1.128c-0.117,0.166-0.303,0.249-0.557,0.249h-3.164c-0.195,0-0.405-0.117-0.629-0.352
		c-0.225-0.234-0.406-0.527-0.543-0.879l-11.045-28.828c-0.078-0.156-0.137-0.107-0.176,0.146c-0.02,0.059-0.029,0.127-0.029,0.205
		v28.213c0,0.586-0.063,0.977-0.189,1.172c-0.128,0.195-0.328,0.293-0.602,0.293H302.906z"/>
	<path fill="#FFFFFF" d="M334.547,83.836c-0.234,0-0.414-0.092-0.541-0.278c-0.128-0.186-0.191-0.561-0.191-1.128V47.156
		c0-0.488-0.107-0.732-0.322-0.732h-5.098c-0.195,0-0.336-0.015-0.424-0.044s-0.166-0.127-0.234-0.293
		c-0.069-0.166-0.104-0.425-0.104-0.776v-2.314c0-0.527,0.059-0.874,0.176-1.04c0.117-0.166,0.313-0.249,0.586-0.249h16.553
		c0.254,0,0.439,0.083,0.557,0.249c0.117,0.166,0.176,0.513,0.176,1.04v2.314c0,0.488-0.054,0.796-0.16,0.923
		c-0.107,0.127-0.299,0.19-0.572,0.19h-5.01c-0.215,0-0.322,0.245-0.322,0.732V82.43c0,0.586-0.063,0.967-0.189,1.143
		c-0.128,0.176-0.318,0.264-0.572,0.264H334.547z"/>
	<path fill="#FFFFFF" d="M350.484,83.836c-0.254,0-0.439-0.073-0.557-0.22s-0.176-0.483-0.176-1.011V42.938
		c0-0.508,0.059-0.839,0.176-0.996c0.117-0.156,0.303-0.234,0.557-0.234h15.41c0.156,0,0.283,0.02,0.381,0.059
		c0.098,0.04,0.181,0.146,0.25,0.322c0.068,0.176,0.102,0.439,0.102,0.791v2.314c0,0.488-0.059,0.806-0.176,0.952
		s-0.303,0.22-0.557,0.22h-10.02c-0.234,0-0.352,0.322-0.352,0.967v11.836c0,0.176,0.034,0.352,0.104,0.527
		c0.068,0.176,0.131,0.264,0.189,0.264h8.057c0.488,0,0.732,0.45,0.732,1.348v2.256c0,0.898-0.244,1.348-0.732,1.348h-8.027
		c-0.078,0-0.15,0.098-0.219,0.293c-0.069,0.195-0.104,0.391-0.104,0.586v13.389h10.459c0.176,0,0.313,0.02,0.41,0.059
		c0.098,0.04,0.181,0.146,0.25,0.322c0.068,0.176,0.102,0.439,0.102,0.791v2.314c0,0.488-0.063,0.806-0.189,0.952
		c-0.128,0.146-0.318,0.22-0.572,0.22H350.484z"/>
	<path fill="#FFFFFF" d="M372.516,83.836c-0.254,0-0.439-0.083-0.557-0.249c-0.117-0.166-0.176-0.522-0.176-1.069V43.055
		c0-0.586,0.059-0.957,0.176-1.113c0.117-0.156,0.303-0.234,0.557-0.234h9.844c1.23,0,2.281,0.069,3.15,0.205
		c0.868,0.137,1.762,0.43,2.68,0.879c0.918,0.45,1.656,1.074,2.213,1.875c0.557,0.801,1.015,1.895,1.377,3.281
		c0.361,1.387,0.541,3.057,0.541,5.01c0,1.465-0.107,2.739-0.322,3.823s-0.537,1.963-0.967,2.637s-0.893,1.206-1.391,1.597
		c-0.498,0.391-1.1,0.723-1.803,0.996c-0.059,0.059-0.088,0.117-0.088,0.176s0.029,0.107,0.088,0.146
		c0.703,0.333,1.275,0.674,1.715,1.025s0.883,0.864,1.332,1.538s0.791,1.587,1.025,2.739c0.234,1.153,0.381,2.568,0.439,4.248
		c0.078,1.523,0.117,5.02,0.117,10.488c0,0.977-0.176,1.465-0.527,1.465c-3.027,0.019-4.58,0.029-4.658,0.029
		c-0.313,0-0.479-0.439-0.498-1.318c0-0.136-0.059-2.324-0.176-6.563c-0.117-4.238-0.244-6.68-0.381-7.324
		c-0.059-0.801-0.219-1.469-0.482-2.007c-0.264-0.537-0.605-0.927-1.025-1.172c-0.421-0.244-0.836-0.41-1.246-0.498
		s-0.879-0.132-1.406-0.132h-4.189c-0.215,0-0.322,0.215-0.322,0.645v17.021c0,0.547-0.059,0.904-0.176,1.069
		c-0.117,0.166-0.303,0.249-0.557,0.249H372.516z M377.848,60.281h3.779c3.262,0,4.893-2.373,4.893-7.119
		c0-2.52-0.443-4.282-1.332-5.288c-0.89-1.006-2.379-1.509-4.469-1.509h-2.842c-0.215,0-0.322,0.195-0.322,0.586V59.49
		C377.555,60.018,377.652,60.281,377.848,60.281z"/>
	<path fill="#FFFFFF" d="M153.522,143.836c-0.508-0.039-0.86-0.713-1.055-2.021l-5.303-38.086c-0.04-0.195-0.059-0.469-0.059-0.82
		c0-0.801,0.156-1.201,0.469-1.201h3.838c0.234,0,0.449,0.186,0.645,0.557c0.195,0.371,0.332,0.869,0.41,1.494l3.252,27.803
		l3.955-27.715c0.078-0.605,0.22-1.069,0.425-1.392s0.425-0.483,0.659-0.483h3.164c0.508,0.059,0.85,0.684,1.025,1.875l4.189,28.301
		l3.281-28.418c0.078-0.605,0.209-1.094,0.396-1.465c0.186-0.371,0.396-0.557,0.63-0.557h3.311c0.312,0,0.469,0.4,0.469,1.201
		c0,0.254-0.029,0.527-0.088,0.82l-5.186,38.086c-0.195,1.309-0.527,1.982-0.996,2.021h-3.574c-0.508-0.039-0.86-0.722-1.055-2.051
		l-4.395-27.334l-4.248,27.363c-0.157,1.25-0.469,1.924-0.938,2.021H153.522z"/>
	<path fill="#FFFFFF" d="M180.241,143.836c-0.293,0-0.439-0.283-0.439-0.85v-0.498c0-0.253,0.01-0.42,0.029-0.498l6.592-38.818
		c0.156-0.938,0.517-1.425,1.084-1.465h5.947c0.546,0.04,0.898,0.527,1.055,1.465l6.475,38.818c0,0.059,0.015,0.166,0.044,0.322
		c0.029,0.157,0.048,0.293,0.059,0.41c0.01,0.117,0.015,0.215,0.015,0.293c0,0.547-0.166,0.82-0.498,0.82h-4.834
		c-0.469,0-0.772-0.4-0.908-1.201l-1.084-7.471c-0.059-0.429-0.166-0.645-0.322-0.645h-7.09c-0.137,0-0.245,0.225-0.322,0.674
		l-1.23,7.412c-0.078,0.488-0.176,0.816-0.293,0.981c-0.117,0.166-0.293,0.249-0.527,0.249H180.241z M187.213,130.858h5.977
		c0.136,0,0.205-0.176,0.205-0.527c0-0.117-0.02-0.205-0.059-0.264l-2.9-22.588c-0.02-0.136-0.049-0.205-0.088-0.205
		c-0.059,0-0.098,0.059-0.117,0.176l-3.428,22.588c-0.02,0.137-0.029,0.225-0.029,0.264
		C186.774,130.672,186.92,130.858,187.213,130.858z"/>
	<path fill="#FFFFFF" d="M214.254,101.239c3.672,0,6.533,1.338,8.584,4.014c0.195,0.254,0.293,0.557,0.293,0.908
		c0,0.684-0.289,1.406-0.864,2.168c-0.576,0.762-1.06,1.143-1.45,1.143c-0.117,0-0.205-0.039-0.264-0.117
		c-1.739-2.109-3.809-3.164-6.211-3.164c-1.348,0-2.432,0.571-3.252,1.714s-1.23,2.534-1.23,4.175c0,1.543,0.352,2.803,1.055,3.779
		c0.703,0.977,1.709,1.885,3.018,2.725l3.721,2.402c3.926,2.539,5.889,6.25,5.889,11.133c0,3.574-0.908,6.494-2.725,8.76
		c-1.816,2.266-4.258,3.398-7.324,3.398c-4.141,0-7.402-1.787-9.785-5.361c-0.117-0.176-0.176-0.4-0.176-0.674
		c0-0.684,0.278-1.431,0.835-2.241c0.557-0.81,1.088-1.216,1.597-1.216c0.195,0,0.371,0.088,0.527,0.264
		c2.187,2.793,4.521,4.189,7.002,4.189c1.523,0,2.714-0.59,3.574-1.772c0.859-1.182,1.289-2.681,1.289-4.497
		c0-1.641-0.342-2.974-1.025-3.999c-0.684-1.025-1.729-1.997-3.135-2.915l-3.75-2.52c-0.82-0.546-1.534-1.113-2.139-1.699
		c-0.605-0.586-1.187-1.293-1.743-2.124c-0.557-0.83-0.986-1.806-1.289-2.93c-0.303-1.123-0.454-2.358-0.454-3.706
		c0-3.516,0.854-6.367,2.563-8.555C209.093,102.333,211.383,101.239,214.254,101.239z"/>
	<path fill="#FFFFFF" d="M236.989,101.239c3.672,0,6.533,1.338,8.584,4.014c0.195,0.254,0.293,0.557,0.293,0.908
		c0,0.684-0.289,1.406-0.864,2.168c-0.576,0.762-1.06,1.143-1.45,1.143c-0.117,0-0.205-0.039-0.264-0.117
		c-1.739-2.109-3.809-3.164-6.211-3.164c-1.348,0-2.432,0.571-3.252,1.714s-1.23,2.534-1.23,4.175c0,1.543,0.352,2.803,1.055,3.779
		c0.703,0.977,1.709,1.885,3.018,2.725l3.721,2.402c3.926,2.539,5.889,6.25,5.889,11.133c0,3.574-0.908,6.494-2.725,8.76
		c-1.816,2.266-4.258,3.398-7.324,3.398c-4.141,0-7.402-1.787-9.785-5.361c-0.117-0.176-0.176-0.4-0.176-0.674
		c0-0.684,0.278-1.431,0.835-2.241c0.557-0.81,1.088-1.216,1.597-1.216c0.195,0,0.371,0.088,0.527,0.264
		c2.187,2.793,4.521,4.189,7.002,4.189c1.523,0,2.714-0.59,3.574-1.772c0.859-1.182,1.289-2.681,1.289-4.497
		c0-1.641-0.342-2.974-1.025-3.999c-0.684-1.025-1.729-1.997-3.135-2.915l-3.75-2.52c-0.82-0.546-1.534-1.113-2.139-1.699
		c-0.605-0.586-1.187-1.293-1.743-2.124c-0.557-0.83-0.986-1.806-1.289-2.93c-0.303-1.123-0.454-2.358-0.454-3.706
		c0-3.516,0.854-6.367,2.563-8.555C231.828,102.333,234.118,101.239,236.989,101.239z"/>
	<path fill="#FFFFFF" d="M251.93,143.836c-0.254,0-0.439-0.073-0.557-0.22s-0.176-0.483-0.176-1.011v-39.668
		c0-0.508,0.059-0.839,0.176-0.996c0.117-0.156,0.303-0.234,0.557-0.234h15.41c0.156,0,0.283,0.02,0.381,0.059
		c0.098,0.04,0.181,0.146,0.25,0.322c0.068,0.176,0.102,0.439,0.102,0.791v2.314c0,0.488-0.059,0.806-0.176,0.952
		s-0.303,0.22-0.557,0.22h-10.02c-0.234,0-0.352,0.322-0.352,0.967v11.836c0,0.176,0.034,0.352,0.104,0.527
		c0.068,0.176,0.131,0.264,0.189,0.264h8.057c0.488,0,0.732,0.45,0.732,1.348v2.256c0,0.898-0.244,1.348-0.732,1.348h-8.027
		c-0.078,0-0.15,0.098-0.219,0.293c-0.069,0.195-0.104,0.391-0.104,0.586v13.389h10.459c0.176,0,0.313,0.02,0.41,0.059
		c0.098,0.04,0.181,0.146,0.25,0.322c0.068,0.176,0.102,0.439,0.102,0.791v2.314c0,0.488-0.063,0.806-0.189,0.952
		c-0.128,0.146-0.318,0.22-0.572,0.22H251.93z"/>
	<path fill="#FFFFFF" d="M273.961,143.836c-0.254,0-0.439-0.083-0.557-0.249c-0.117-0.166-0.176-0.522-0.176-1.069v-39.463
		c0-0.586,0.059-0.957,0.176-1.113c0.117-0.156,0.303-0.234,0.557-0.234h9.844c1.23,0,2.281,0.069,3.15,0.205
		c0.868,0.137,1.762,0.43,2.68,0.879c0.918,0.45,1.656,1.074,2.213,1.875c0.557,0.801,1.015,1.895,1.377,3.281
		c0.361,1.387,0.541,3.057,0.541,5.01c0,1.465-0.107,2.739-0.322,3.823s-0.537,1.963-0.967,2.637s-0.893,1.206-1.391,1.597
		c-0.498,0.391-1.1,0.723-1.803,0.996c-0.059,0.059-0.088,0.117-0.088,0.176s0.029,0.107,0.088,0.146
		c0.703,0.333,1.275,0.674,1.715,1.025s0.883,0.864,1.332,1.538s0.791,1.587,1.025,2.739c0.234,1.153,0.381,2.568,0.439,4.248
		c0.078,1.523,0.117,5.02,0.117,10.488c0,0.977-0.176,1.465-0.527,1.465c-3.027,0.019-4.58,0.029-4.658,0.029
		c-0.313,0-0.479-0.439-0.498-1.318c0-0.136-0.059-2.324-0.176-6.563c-0.117-4.238-0.244-6.68-0.381-7.324
		c-0.059-0.801-0.219-1.469-0.482-2.007c-0.264-0.537-0.605-0.927-1.025-1.172c-0.421-0.244-0.836-0.41-1.246-0.498
		s-0.879-0.132-1.406-0.132h-4.189c-0.215,0-0.322,0.215-0.322,0.645v17.021c0,0.547-0.059,0.904-0.176,1.069
		c-0.117,0.166-0.303,0.249-0.557,0.249H273.961z M279.293,120.281h3.779c3.262,0,4.893-2.373,4.893-7.119
		c0-2.52-0.443-4.282-1.332-5.288c-0.89-1.006-2.379-1.509-4.469-1.509h-2.842c-0.215,0-0.322,0.195-0.322,0.586v12.539
		C279,120.018,279.098,120.281,279.293,120.281z"/>
</g>
</svg>
