<svg xmlns="http://www.w3.org/2000/svg" xmlns:xlink="http://www.w3.org/1999/xlink" width="300" height="300.671" viewBox="0 0 300 300.671"><switch><g><symbol id="a" viewBox="-239.998 -118.656 300 300.671"><path fill="#91C4AB" d="M60.002-65.014c0-6.764-.002-53.643-71.502-53.643H-174c-62.5 0-65.998 47.879-65.998 54.643v185.999c0 54.5 59.233 60 65.999 60l161.499.029c6.766 0 72.502-.029 72.502-60.029V-65.014z"/></symbol><use xlink:href="#a" width="300" height="300.671" x="-239.998" y="-118.656" transform="matrix(1 0 0 -1 239.998 182.015)" overflow="visible"/><g fill="#012B16"><path d="M20.258 217.58c0-2.688-.048-4.945-.192-6.961h5.185l.288 3.504h.144c1.008-1.824 3.552-4.032 7.44-4.032 4.081 0 8.305 2.641 8.305 10.033v13.873h-5.904v-13.201c0-3.36-1.248-5.904-4.464-5.904-2.352 0-3.984 1.68-4.608 3.456-.192.528-.24 1.248-.24 1.92v13.729H20.26V217.58zM69.939 222.092c0 8.593-6.048 12.434-12.001 12.434-6.625 0-11.713-4.561-11.713-12.05 0-7.68 5.041-12.385 12.097-12.385 6.961 0 11.617 4.896 11.617 12.001zm-17.617.24c0 4.513 2.208 7.921 5.808 7.921 3.36 0 5.713-3.313 5.713-8.017 0-3.648-1.632-7.825-5.665-7.825-4.176 0-5.856 4.032-5.856 7.921zM74.785 217.58c0-2.688-.048-4.945-.192-6.961h5.185l.288 3.504h.144c1.008-1.824 3.552-4.032 7.44-4.032 4.081 0 8.305 2.641 8.305 10.033v13.873H90.05v-13.201c0-3.36-1.248-5.904-4.464-5.904-2.352 0-3.984 1.68-4.608 3.456-.192.528-.24 1.248-.24 1.92v13.729h-5.952V217.58zM112.753 219.164v4.08h-12.241v-4.08h12.241zM139.73 199.914v27.507c0 2.399.096 4.992.192 6.576h-5.281l-.239-3.696h-.097c-1.392 2.592-4.224 4.225-7.633 4.225-5.568 0-9.984-4.753-9.984-11.953-.048-7.825 4.849-12.481 10.465-12.481 3.217 0 5.521 1.345 6.576 3.072h.097v-13.249h5.904zm-5.904 20.45c0-.48-.048-1.057-.145-1.536-.527-2.305-2.4-4.177-5.088-4.177-3.792 0-5.905 3.36-5.905 7.729 0 4.272 2.112 7.393 5.857 7.393 2.399 0 4.512-1.632 5.088-4.176.145-.528.192-1.104.192-1.729v-3.504zM152.352 204.091c0 1.775-1.295 3.168-3.36 3.168-1.969 0-3.265-1.393-3.265-3.168 0-1.824 1.345-3.217 3.313-3.217 2.017 0 3.265 1.393 3.312 3.217zm-6.289 29.906v-23.378h5.953v23.378h-5.953zM162.529 223.964c.143 4.225 3.455 6.049 7.199 6.049 2.736 0 4.705-.384 6.48-1.056l.865 4.08c-2.016.816-4.801 1.44-8.16 1.44-7.586 0-12.051-4.657-12.051-11.81 0-6.48 3.938-12.577 11.426-12.577 7.584 0 10.08 6.24 10.08 11.377 0 1.104-.096 1.969-.191 2.496h-15.648zm10.272-4.128c.049-2.16-.912-5.713-4.848-5.713-3.648 0-5.184 3.313-5.424 5.713h10.272zM204.482 210.619c-.096 1.584-.193 3.504-.193 6.721v13.249c0 4.896-1.008 8.4-3.455 10.608-2.449 2.16-5.809 2.833-9.025 2.833-2.977 0-6.145-.624-8.16-1.872l1.295-4.465c1.488.864 3.984 1.776 6.816 1.776 3.842 0 6.721-2.017 6.721-7.057v-2.017h-.096c-1.344 2.064-3.744 3.457-6.816 3.457-5.809 0-9.938-4.801-9.938-11.426 0-7.681 4.994-12.337 10.609-12.337 3.553 0 5.664 1.729 6.77 3.648h.096l.24-3.12h5.136zm-6.097 9.36c0-.527-.047-1.104-.191-1.584-.625-2.16-2.305-3.792-4.801-3.792-3.313 0-5.76 2.88-5.76 7.633 0 3.984 2.016 7.2 5.713 7.2 2.207 0 4.127-1.44 4.799-3.552.145-.624.24-1.44.24-2.112v-3.793zM214.801 223.964c.143 4.225 3.455 6.049 7.199 6.049 2.736 0 4.705-.384 6.48-1.056l.865 4.08c-2.016.816-4.801 1.44-8.16 1.44-7.586 0-12.051-4.657-12.051-11.81 0-6.48 3.938-12.577 11.426-12.577 7.584 0 10.08 6.24 10.08 11.377 0 1.104-.096 1.969-.191 2.496h-15.648zm10.271-4.128c.049-2.16-.912-5.713-4.848-5.713-3.648 0-5.184 3.313-5.424 5.713h10.272zM242.16 203.946v6.673h5.617v4.416h-5.617v10.321c0 2.832.768 4.32 3.023 4.32a8.774 8.774 0 0 0 2.305-.288l.096 4.513c-.863.336-2.4.576-4.271.576-2.16 0-3.984-.721-5.088-1.921-1.25-1.344-1.824-3.456-1.824-6.528v-10.993h-3.361v-4.416h3.361v-5.28l5.759-1.393zM258.527 204.091c0 1.775-1.295 3.168-3.359 3.168-1.969 0-3.266-1.393-3.266-3.168 0-1.824 1.346-3.217 3.313-3.217 2.017 0 3.265 1.393 3.312 3.217zm-6.289 29.906v-23.378h5.953v23.378h-5.953zM281.711 233.277c-1.248.576-3.695 1.2-6.623 1.2-7.297 0-12.051-4.657-12.051-11.905 0-7.009 4.801-12.481 13.01-12.481 2.16 0 4.369.48 5.713 1.104l-1.057 4.416c-.959-.432-2.352-.912-4.465-.912-4.512 0-7.199 3.313-7.152 7.585 0 4.801 3.121 7.536 7.152 7.536 2.064 0 3.506-.432 4.658-.912l.815 4.369zM102.408 258.619l3.792 11.856c.672 2.064 1.152 3.937 1.584 5.857h.144c.432-1.921.96-3.745 1.584-5.857l3.696-11.856h6.241l-8.929 23.378h-5.809l-8.689-23.378h6.386zM144.651 270.092c0 8.593-6.049 12.434-12.001 12.434-6.625 0-11.713-4.561-11.713-12.05 0-7.68 5.041-12.385 12.097-12.385 6.961 0 11.617 4.896 11.617 12.001zm-17.618.24c0 4.513 2.208 7.921 5.809 7.921 3.36 0 5.713-3.313 5.713-8.017 0-3.648-1.632-7.825-5.665-7.825-4.177 0-5.857 4.032-5.857 7.921zM155.785 252.091c0 1.775-1.295 3.168-3.359 3.168-1.969 0-3.265-1.393-3.265-3.168 0-1.824 1.345-3.217 3.312-3.217 2.017 0 3.265 1.393 3.312 3.217zm-6.288 29.906v-23.378h5.953v23.378h-5.953zM178.971 281.277c-1.248.576-3.697 1.2-6.625 1.2-7.297 0-12.049-4.657-12.049-11.905 0-7.009 4.801-12.481 13.01-12.481 2.16 0 4.367.48 5.711 1.104l-1.055 4.416c-.961-.432-2.354-.912-4.465-.912-4.512 0-7.201 3.313-7.152 7.585 0 4.801 3.119 7.536 7.152 7.536 2.064 0 3.504-.432 4.656-.912l.817 4.369zM187.082 271.964c.143 4.225 3.455 6.049 7.199 6.049 2.736 0 4.705-.384 6.48-1.056l.865 4.08c-2.016.816-4.801 1.44-8.16 1.44-7.586 0-12.051-4.657-12.051-11.81 0-6.48 3.938-12.577 11.426-12.577 7.584 0 10.08 6.24 10.08 11.377 0 1.104-.096 1.969-.191 2.496h-15.648zm10.272-4.128c.049-2.16-.912-5.713-4.848-5.713-3.648 0-5.184 3.313-5.424 5.713h10.272z"/></g><g fill-rule="evenodd" clip-rule="evenodd"><path d="M91 23h185v113H91z"/><path fill="#FFF" d="M100 122h13v5h-13zM100 105h13v5h-13zM100 87h13v5h-13zM100 70h13v5h-13zM100 53h13v5h-13zM100 35h13v5h-13zM254 122h13v5h-13zM254 105h13v5h-13zM254 87h13v5h-13zM254 70h13v5h-13zM254 53h13v5h-13zM254 35h13v5h-13zM121 36h125v87H121z"/></g><path fill="#FFF" stroke="#C1272D" stroke-width="2.149" stroke-miterlimit="10" d="M97.777 159.463C97.777 142.086 76.047 128 52.3 128S6.822 142.086 6.822 159.463c0 17.377 21.731 31.463 45.478 31.463.683 0 1.361-.015 2.037-.037-2.799 7.551-11.629 12.532-11.629 12.532 11.058-.737 20.113-9.467 24.396-14.41 16.453-4.415 30.673-15.978 30.673-29.548z"/></g></switch></svg>