<svg xmlns="http://www.w3.org/2000/svg" width="300" height="300" viewBox="0 0 300 300"><switch><g><path fill="#91C4AB" d="M300 247.021c0 6.764 0 52.979-71.5 52.979H66c-62.5 0-66-47.215-66-53.979v-186c0-54.5 59.235-60 66-60l161.5-.029c6.765 0 72.5.029 72.5 60.029v187z"/><g fill="#012B16"><path d="M30.568 202.188c2.592-.432 5.905-.672 9.409-.672 6.049 0 10.225 1.248 13.201 3.744 3.121 2.545 5.041 6.385 5.041 11.906 0 5.76-1.968 10.08-5.041 12.865-3.216 2.928-8.353 4.416-14.641 4.416-3.456 0-6.048-.193-7.969-.432v-31.827zm5.905 27.41c.816.145 2.064.145 3.264.145 7.681.049 12.241-4.176 12.241-12.385.048-7.152-4.081-11.232-11.473-11.232-1.872 0-3.216.143-4.032.336v23.136zM69.544 204.205c0 1.775-1.296 3.168-3.36 3.168-1.968 0-3.265-1.393-3.265-3.168 0-1.824 1.344-3.217 3.313-3.217 2.016 0 3.264 1.393 3.312 3.217zm-6.289 29.906v-23.379h5.952v23.379h-5.952zM79.72 224.078c.144 4.225 3.456 6.049 7.201 6.049 2.736 0 4.704-.385 6.48-1.057l.864 4.08c-2.016.816-4.8 1.441-8.161 1.441-7.584 0-12.049-4.658-12.049-11.811 0-6.48 3.937-12.576 11.425-12.576 7.585 0 10.081 6.24 10.081 11.377 0 1.104-.096 1.969-.192 2.496H79.72zm10.273-4.129c.048-2.16-.912-5.713-4.849-5.713-3.648 0-5.185 3.313-5.424 5.713h10.273zM121.673 210.732c-.096 1.584-.192 3.504-.192 6.721v13.25c0 4.896-1.008 8.4-3.456 10.607-2.448 2.16-5.809 2.834-9.025 2.834-2.976 0-6.145-.625-8.161-1.873l1.296-4.465c1.488.865 3.984 1.777 6.817 1.777 3.84 0 6.721-2.018 6.721-7.057v-2.018h-.096c-1.344 2.064-3.744 3.457-6.816 3.457-5.809 0-9.937-4.801-9.937-11.426 0-7.68 4.992-12.336 10.609-12.336 3.552 0 5.665 1.729 6.769 3.648h.096l.24-3.121h5.135zm-6.097 9.362c0-.527-.048-1.104-.192-1.584-.624-2.16-2.304-3.793-4.8-3.793-3.313 0-5.761 2.881-5.761 7.633 0 3.984 2.016 7.201 5.712 7.201 2.208 0 4.128-1.441 4.8-3.553.144-.623.24-1.439.24-2.111v-3.793zM131.991 224.078c.144 4.225 3.456 6.049 7.201 6.049 2.736 0 4.704-.385 6.48-1.057l.864 4.08c-2.016.816-4.8 1.441-8.161 1.441-7.584 0-12.049-4.658-12.049-11.811 0-6.48 3.937-12.576 11.425-12.576 7.585 0 10.081 6.24 10.081 11.377 0 1.104-.096 1.969-.192 2.496h-15.649zm10.273-4.129c.048-2.16-.912-5.713-4.849-5.713-3.648 0-5.185 3.313-5.424 5.713h10.273zM159.351 204.061v6.672h5.617v4.416h-5.617v10.322c0 2.832.769 4.32 3.024 4.32a8.73 8.73 0 0 0 2.305-.289l.096 4.514c-.864.336-2.4.576-4.272.576-2.16 0-3.984-.721-5.088-1.922-1.249-1.344-1.824-3.455-1.824-6.527v-10.994h-3.36v-4.416h3.36v-5.279l5.759-1.393zM175.719 204.205c0 1.775-1.296 3.168-3.36 3.168-1.969 0-3.265-1.393-3.265-3.168 0-1.824 1.345-3.217 3.313-3.217 2.016 0 3.264 1.393 3.312 3.217zm-6.289 29.906v-23.379h5.953v23.379h-5.953zM181.43 228.686c1.345.816 3.889 1.682 6.001 1.682 2.592 0 3.744-1.057 3.744-2.594 0-1.584-.96-2.398-3.84-3.408-4.561-1.584-6.481-4.08-6.433-6.816 0-4.127 3.408-7.344 8.832-7.344 2.593 0 4.849.672 6.193 1.393l-1.152 4.176c-1.008-.576-2.881-1.344-4.944-1.344-2.112 0-3.265 1.008-3.265 2.447 0 1.488 1.104 2.209 4.08 3.266 4.225 1.535 6.193 3.695 6.241 7.152 0 4.225-3.313 7.297-9.505 7.297-2.832 0-5.377-.674-7.104-1.633l1.152-4.274zM218.919 233.391c-1.248.576-3.696 1.201-6.624 1.201-7.297 0-12.05-4.658-12.05-11.906 0-7.008 4.801-12.48 13.01-12.48 2.16 0 4.368.48 5.712 1.104l-1.056 4.416c-.96-.432-2.353-.912-4.465-.912-4.512 0-7.2 3.313-7.152 7.586 0 4.801 3.12 7.535 7.152 7.535 2.064 0 3.505-.432 4.657-.912l.816 4.368zM223.285 200.027h5.953v13.922h.096a7.918 7.918 0 0 1 2.929-2.688c1.151-.674 2.544-1.057 4.032-1.057 3.984 0 8.16 2.641 8.16 10.129v13.777h-5.904v-13.105c0-3.408-1.248-5.953-4.513-5.953-2.304 0-3.937 1.537-4.561 3.313-.191.48-.239 1.104-.239 1.777v13.969h-5.953v-34.084zM254.918 224.078c.144 4.225 3.456 6.049 7.2 6.049 2.736 0 4.705-.385 6.48-1.057l.864 4.08c-2.016.816-4.8 1.441-8.16 1.441-7.585 0-12.05-4.658-12.05-11.811 0-6.48 3.937-12.576 11.426-12.576 7.584 0 10.08 6.24 10.08 11.377 0 1.104-.096 1.969-.191 2.496h-15.649zm10.272-4.129c.048-2.16-.912-5.713-4.848-5.713-3.648 0-5.185 3.313-5.425 5.713h10.273zM69.111 275.678c1.92 1.105 4.801 2.064 7.825 2.064 3.792 0 5.905-1.775 5.905-4.416 0-2.449-1.632-3.889-5.761-5.377-5.329-1.92-8.737-4.752-8.737-9.408 0-5.281 4.417-9.313 11.425-9.313 3.504 0 6.096.768 7.776 1.631l-1.44 4.754c-1.152-.625-3.408-1.537-6.433-1.537-3.744 0-5.376 2.016-5.376 3.889 0 2.496 1.872 3.648 6.192 5.328 5.617 2.113 8.353 4.945 8.353 9.602 0 5.184-3.937 9.697-12.289 9.697-3.409 0-6.961-.961-8.737-2.018l1.297-4.896zM93.927 266.51c0-3.072-.096-5.568-.192-7.777h5.185l.288 3.602h.096c1.728-2.641 4.464-4.129 8.017-4.129 5.376 0 9.841 4.607 9.841 11.904 0 8.449-5.329 12.529-10.657 12.529-2.928 0-5.376-1.248-6.576-3.119h-.096v12.096h-5.904V266.51zm5.905 5.808c0 .576.048 1.104.192 1.631.576 2.4 2.688 4.129 5.185 4.129 3.744 0 5.953-3.119 5.953-7.729 0-4.129-2.016-7.488-5.809-7.488-2.448 0-4.705 1.775-5.28 4.369a5.345 5.345 0 0 0-.24 1.486v3.602zM122.007 266.27c0-3.168-.048-5.424-.192-7.537h5.137l.192 4.465h.192c1.152-3.313 3.889-4.992 6.385-4.992.576 0 .912.047 1.392.145v5.568a8.07 8.07 0 0 0-1.728-.193c-2.833 0-4.752 1.824-5.281 4.465-.096.527-.192 1.152-.192 1.824v12.098h-5.904V266.27zM151.815 282.111l-.384-2.592h-.145c-1.439 1.824-3.888 3.119-6.912 3.119-4.705 0-7.345-3.408-7.345-6.961 0-5.904 5.232-8.881 13.873-8.832v-.385c0-1.535-.624-4.08-4.752-4.08-2.304 0-4.704.721-6.289 1.729l-1.152-3.84c1.728-1.057 4.752-2.064 8.449-2.064 7.488 0 9.648 4.752 9.648 9.84v8.449c0 2.113.097 4.176.336 5.617h-5.327zm-.767-11.425c-4.177-.096-8.161.816-8.161 4.369 0 2.305 1.488 3.359 3.36 3.359 2.352 0 4.08-1.535 4.608-3.215.144-.434.192-.912.192-1.297v-3.216zM180.231 281.391c-1.248.576-3.696 1.201-6.624 1.201-7.297 0-12.05-4.658-12.05-11.906 0-7.008 4.801-12.48 13.01-12.48 2.16 0 4.368.48 5.712 1.104l-1.056 4.416c-.96-.432-2.353-.912-4.465-.912-4.512 0-7.2 3.313-7.152 7.586 0 4.801 3.12 7.535 7.152 7.535 2.064 0 3.505-.432 4.657-.912l.816 4.368zM184.598 248.027h5.953v13.922h.096a7.918 7.918 0 0 1 2.929-2.688c1.151-.674 2.544-1.057 4.032-1.057 3.984 0 8.16 2.641 8.16 10.129v13.777h-5.904v-13.105c0-3.408-1.248-5.953-4.513-5.953-2.304 0-3.937 1.537-4.561 3.313-.191.48-.239 1.104-.239 1.777v13.969h-5.953v-34.084zM216.229 272.078c.144 4.225 3.456 6.049 7.2 6.049 2.736 0 4.705-.385 6.48-1.057l.864 4.08c-2.016.816-4.8 1.441-8.16 1.441-7.585 0-12.05-4.658-12.05-11.811 0-6.48 3.937-12.576 11.426-12.576 7.584 0 10.08 6.24 10.08 11.377 0 1.104-.096 1.969-.191 2.496h-15.649zm10.273-4.129c.049-2.16-.912-5.713-4.848-5.713-3.648 0-5.185 3.313-5.425 5.713h10.273z"/></g><g fill-rule="evenodd" clip-rule="evenodd"><path d="M29 41h241v147H29z"/><path fill="#FFF" d="M41 170h17v7H41zM41 148h17v7H41zM41 124h17v7H41zM41 102h17v7H41zM41 80h17v7H41zM41 57h17v7H41zM241 170h17v7h-17zM241 148h17v7h-17zM241 124h17v7h-17zM241 102h17v7h-17zM241 80h17v7h-17zM241 57h17v7h-17zM68 58h163v113H68z"/></g><path fill="none" stroke="#C1272D" stroke-width="2.918" stroke-miterlimit="10" d="M210.799 106.727C210.799 83.13 181.289 64 149.04 64c-32.249 0-61.758 19.129-61.758 42.727s29.51 42.727 61.758 42.727c.928 0 1.849-.02 2.767-.051-3.801 10.254-15.793 17.019-15.793 17.019 15.017-1.001 27.313-12.856 33.13-19.568 22.343-5.997 41.655-21.699 41.655-40.127z"/></g></switch></svg>