<svg xmlns="http://www.w3.org/2000/svg" xmlns:xlink="http://www.w3.org/1999/xlink" width="300" height="300" viewBox="0 0 300 300"><switch><g><symbol id="a" viewBox="-150 -150 300 300.015"><path fill="#AEBCC4" d="M150-97.015c0-6.763 0-52.985-71.5-52.985H-84c-62.5 0-66 47.223-66 53.985v186c0 54.5 59.235 60 66 60l161.5.029c6.765 0 72.5-.029 72.5-60.029v-187z"/></symbol><use xlink:href="#a" width="300" height="300.015" x="-150" y="-150" transform="matrix(1 0 0 -1 150 150)" overflow="visible"/><g fill="#080828"><path d="M101.871 184.165h5.952v34.083h-5.952v-34.083zM136.432 206.343c0 8.593-6.048 12.434-12.001 12.434-6.625 0-11.713-4.561-11.713-12.05 0-7.68 5.041-12.385 12.097-12.385 6.961 0 11.617 4.896 11.617 12.001zm-17.617.24c0 4.513 2.208 7.921 5.808 7.921 3.36 0 5.713-3.313 5.713-8.017 0-3.648-1.632-7.825-5.665-7.825-4.176 0-5.856 4.032-5.856 7.921zM163.504 206.343c0 8.593-6.049 12.434-12 12.434-6.625 0-11.714-4.561-11.714-12.05 0-7.68 5.041-12.385 12.097-12.385 6.961 0 11.617 4.896 11.617 12.001zm-17.618.24c0 4.513 2.208 7.921 5.809 7.921 3.359 0 5.713-3.313 5.713-8.017 0-3.648-1.633-7.825-5.666-7.825-4.175 0-5.856 4.032-5.856 7.921zM168.063 212.823c1.344.816 3.889 1.681 6 1.681 2.592 0 3.744-1.057 3.744-2.593 0-1.584-.959-2.399-3.84-3.408-4.561-1.584-6.48-4.08-6.432-6.816 0-4.128 3.408-7.345 8.832-7.345 2.592 0 4.848.672 6.193 1.393l-1.152 4.176c-1.008-.576-2.881-1.344-4.945-1.344-2.111 0-3.264 1.008-3.264 2.448 0 1.488 1.104 2.208 4.08 3.265 4.225 1.536 6.193 3.696 6.24 7.152 0 4.225-3.313 7.297-9.504 7.297-2.832 0-5.377-.673-7.105-1.633l1.153-4.273zM192.543 208.215c.143 4.225 3.455 6.049 7.199 6.049 2.736 0 4.705-.384 6.48-1.056l.865 4.08c-2.016.816-4.801 1.44-8.16 1.44-7.586 0-12.051-4.657-12.051-11.81 0-6.48 3.938-12.577 11.426-12.577 7.584 0 10.08 6.24 10.08 11.377 0 1.104-.096 1.969-.191 2.496h-15.648zm10.271-4.128c.049-2.16-.912-5.713-4.848-5.713-3.648 0-5.184 3.313-5.424 5.713h10.272zM76.023 266.248v-18.962h-3.168v-4.416h3.168v-1.008c0-3.024.816-6.049 2.832-7.969 1.729-1.633 4.081-2.257 6.097-2.257 1.584 0 2.833.24 3.792.576l-.432 4.561c-.624-.24-1.44-.432-2.496-.432-2.928 0-3.937 2.448-3.937 5.328v1.2h5.137v4.416h-5.089v18.962h-5.904zM90.662 250.406c0-3.168-.048-5.424-.192-7.536h5.137l.192 4.464h.192c1.152-3.312 3.889-4.992 6.385-4.992.576 0 .912.048 1.392.145v5.568a8.142 8.142 0 0 0-1.728-.192c-2.833 0-4.752 1.824-5.281 4.465-.096.527-.192 1.151-.192 1.824v12.097h-5.904v-15.843zM120.471 266.248l-.384-2.592h-.144c-1.44 1.824-3.888 3.12-6.913 3.12-4.705 0-7.345-3.408-7.345-6.961 0-5.904 5.232-8.881 13.873-8.833v-.384c0-1.536-.624-4.08-4.752-4.08-2.304 0-4.704.72-6.289 1.728l-1.152-3.84c1.728-1.057 4.752-2.064 8.449-2.064 7.489 0 9.649 4.753 9.649 9.841v8.449c0 2.112.096 4.176.336 5.616h-5.328zm-.768-11.425c-4.176-.097-8.161.815-8.161 4.368 0 2.305 1.488 3.36 3.36 3.36 2.352 0 4.081-1.536 4.608-3.216a4.25 4.25 0 0 0 .192-1.297v-3.215zM131.702 249.831c0-2.688-.048-4.945-.192-6.961h5.088l.24 3.456h.144c1.152-1.824 3.264-3.984 7.201-3.984 3.072 0 5.473 1.729 6.48 4.32h.096c.817-1.296 1.776-2.256 2.881-2.928 1.295-.912 2.783-1.393 4.703-1.393 3.889 0 7.824 2.641 7.824 10.129v13.777h-5.76v-12.913c0-3.889-1.344-6.192-4.176-6.192-2.016 0-3.504 1.439-4.129 3.12-.145.576-.287 1.296-.287 1.968v14.018h-5.761v-13.537c0-3.265-1.296-5.568-4.032-5.568-2.208 0-3.696 1.728-4.225 3.36-.24.576-.336 1.248-.336 1.92v13.825h-5.76v-16.417zM178.693 236.342c0 1.775-1.295 3.168-3.359 3.168-1.969 0-3.266-1.393-3.266-3.168 0-1.824 1.346-3.217 3.313-3.217 2.017 0 3.265 1.393 3.312 3.217zm-6.289 29.906V242.87h5.953v23.378h-5.953zM184.693 249.831c0-2.688-.049-4.945-.191-6.961h5.184l.287 3.504h.145c1.008-1.824 3.553-4.032 7.441-4.032 4.08 0 8.305 2.641 8.305 10.033v13.873h-5.904v-13.201c0-3.36-1.248-5.904-4.465-5.904-2.352 0-3.984 1.68-4.609 3.456-.191.528-.238 1.248-.238 1.92v13.729h-5.953v-16.417zM233.512 242.87c-.096 1.584-.193 3.504-.193 6.721v13.249c0 4.896-1.008 8.4-3.455 10.608-2.449 2.16-5.809 2.833-9.025 2.833-2.977 0-6.145-.624-8.16-1.872l1.295-4.465c1.488.864 3.984 1.776 6.816 1.776 3.842 0 6.721-2.017 6.721-7.057v-2.017h-.096c-1.344 2.064-3.744 3.457-6.816 3.457-5.809 0-9.938-4.801-9.938-11.426 0-7.681 4.994-12.337 10.609-12.337 3.553 0 5.664 1.729 6.77 3.648h.096l.24-3.12h5.136zm-6.098 9.36c0-.527-.047-1.104-.191-1.584-.625-2.16-2.305-3.792-4.801-3.792-3.313 0-5.76 2.88-5.76 7.633 0 3.984 2.016 7.2 5.713 7.2 2.207 0 4.127-1.44 4.799-3.552.145-.624.24-1.44.24-2.112v-3.793z"/></g><circle fill="#C1272D" cx="149.667" cy="114.667" r="14.667"/><circle fill="#FFF" cx="196.667" cy="51.667" r="14.667"/><circle fill="#FFF" cx="258.667" cy="158.667" r="14.667"/><circle fill="#FFF" cx="49.667" cy="38.667" r="14.667"/></g></switch></svg>