<svg xmlns="http://www.w3.org/2000/svg" xmlns:xlink="http://www.w3.org/1999/xlink" width="300" height="300" viewBox="0 0 300 300"><switch><g><symbol id="a" viewBox="-150 -150 300 300.015"><path fill="#AEBCC4" d="M150-97.015c0-6.763 0-52.985-71.5-52.985H-84c-62.5 0-66 47.223-66 53.985v186c0 54.5 59.235 60 66 60l161.5.029c6.765 0 72.5-.029 72.5-60.029v-187z"/></symbol><use xlink:href="#a" width="300" height="300.015" x="-150" y="-150" transform="matrix(1 0 0 -1 150 150)" overflow="visible"/><g fill="#080828"><path d="M72.88 256.08c.096-1.584.192-4.177.192-6.576v-27.507h5.904v13.921h.096c1.44-2.256 3.984-3.744 7.488-3.744 5.713 0 9.793 4.753 9.745 11.857 0 8.4-5.329 12.577-10.609 12.577-3.024 0-5.712-1.152-7.393-4.032h-.096l-.288 3.504H72.88zm6.097-9.648c0 .479.048.96.144 1.392.624 2.353 2.688 4.129 5.232 4.129 3.696 0 5.953-2.977 5.953-7.681 0-4.129-1.968-7.489-5.905-7.489-2.4 0-4.56 1.729-5.232 4.32-.096.433-.192.96-.192 1.536v3.793zM114.305 256.08l-.384-2.592h-.144c-1.44 1.824-3.889 3.12-6.913 3.12-4.705 0-7.345-3.408-7.345-6.961 0-5.904 5.232-8.881 13.873-8.833v-.384c0-1.536-.624-4.08-4.752-4.08-2.304 0-4.704.72-6.289 1.728l-1.152-3.84c1.728-1.057 4.752-2.064 8.449-2.064 7.489 0 9.649 4.753 9.649 9.841v8.449c0 2.112.096 4.176.336 5.616h-5.328zm-.768-11.425c-4.176-.097-8.161.815-8.161 4.368 0 2.305 1.488 3.36 3.36 3.36 2.352 0 4.081-1.536 4.608-3.216a4.25 4.25 0 0 0 .192-1.297v-3.215zM125.536 221.997h5.952v34.083h-5.952v-34.083zM151.023 256.08l-.383-2.592h-.144c-1.44 1.824-3.888 3.12-6.913 3.12-4.705 0-7.345-3.408-7.345-6.961 0-5.904 5.232-8.881 13.873-8.833v-.384c0-1.536-.624-4.08-4.752-4.08-2.304 0-4.704.72-6.289 1.728l-1.152-3.84c1.728-1.057 4.752-2.064 8.449-2.064 7.488 0 9.648 4.753 9.648 9.841v8.449c0 2.112.098 4.176.336 5.616h-5.328zm-.767-11.425c-4.176-.097-8.161.815-8.161 4.368 0 2.305 1.488 3.36 3.36 3.36 2.352 0 4.081-1.536 4.608-3.216a4.25 4.25 0 0 0 .192-1.297v-3.215zM162.254 239.663c0-2.688-.047-4.945-.191-6.961h5.186l.287 3.504h.145c1.008-1.824 3.553-4.032 7.439-4.032 4.08 0 8.305 2.641 8.305 10.033v13.873h-5.904v-13.201c0-3.36-1.248-5.904-4.465-5.904-2.352 0-3.984 1.68-4.607 3.456-.191.528-.24 1.248-.24 1.92v13.729h-5.953v-16.417zM206.895 255.36c-1.248.576-3.695 1.2-6.623 1.2-7.297 0-12.051-4.657-12.051-11.905 0-7.009 4.801-12.481 13.01-12.481 2.16 0 4.369.48 5.713 1.104l-1.057 4.416c-.959-.432-2.352-.912-4.465-.912-4.512 0-7.199 3.313-7.152 7.585 0 4.801 3.121 7.536 7.152 7.536 2.064 0 3.506-.432 4.658-.912l.815 4.369zM215.006 246.047c.145 4.225 3.457 6.049 7.201 6.049 2.736 0 4.705-.384 6.48-1.056l.863 4.08c-2.016.816-4.799 1.44-8.16 1.44-7.584 0-12.049-4.657-12.049-11.81 0-6.48 3.936-12.577 11.426-12.577 7.584 0 10.08 6.24 10.08 11.377 0 1.104-.096 1.969-.191 2.496h-15.65zm10.273-4.128c.047-2.16-.912-5.713-4.848-5.713-3.648 0-5.186 3.313-5.426 5.713h10.274z"/></g><g fill-rule="evenodd" clip-rule="evenodd"><path fill="#FFF" d="M277.334 152.5c0 9.316-4.677 16.5-10.444 16.5H163.444c-5.769 0-10.444-7.184-10.444-16.5 0-9.317 4.676-16.5 10.444-16.5H266.89c5.767 0 10.444 7.183 10.444 16.5z"/><path fill="#C1272D" d="M146.334 152.5c0 9.316-4.677 16.5-10.444 16.5H32.444C26.676 169 22 161.816 22 152.5c0-9.317 4.676-16.5 10.444-16.5H135.89c5.767 0 10.444 7.183 10.444 16.5z"/><path fill="#FFF" d="M277.334 114.5c0 9.316-4.677 16.5-10.444 16.5H163.444c-5.769 0-10.444-7.184-10.444-16.5 0-9.317 4.676-16.5 10.444-16.5H266.89c5.767 0 10.444 7.183 10.444 16.5z"/><path fill="#C1272D" d="M146.334 114.5c0 9.316-4.677 16.5-10.444 16.5H32.444C26.676 131 22 123.816 22 114.5c0-9.317 4.676-16.5 10.444-16.5H135.89c5.767 0 10.444 7.183 10.444 16.5z"/></g></g></switch></svg>