<svg xmlns="http://www.w3.org/2000/svg" xmlns:xlink="http://www.w3.org/1999/xlink" width="300" height="300" viewBox="0 0 300 300"><switch><g><symbol id="a" viewBox="-239.998 -118.656 300 300.671"><path fill="#91C4AB" d="M60.002-65.014c0-6.764-.002-53.643-71.502-53.643H-174c-62.5 0-65.998 47.879-65.998 54.643v185.999c0 54.5 59.233 60 65.999 60l161.499.029c6.766 0 72.502-.029 72.502-60.029V-65.014z"/></symbol><use xlink:href="#a" width="300" height="300.671" x="-239.998" y="-118.656" transform="matrix(1 0 0 -1 240.727 182.015)" overflow="visible"/><g fill="#012B16"><path d="M81.252 222.872c0 8.593-6.048 12.434-12.001 12.434-6.625 0-11.713-4.561-11.713-12.05 0-7.68 5.041-12.385 12.097-12.385 6.961 0 11.617 4.897 11.617 12.001zm-17.617.24c0 4.513 2.208 7.921 5.808 7.921 3.36 0 5.713-3.313 5.713-8.017 0-3.648-1.632-7.825-5.665-7.825-4.176 0-5.856 4.033-5.856 7.921zM86.099 218.36c0-2.688-.048-4.945-.192-6.961h5.185l.288 3.504h.144c1.008-1.824 3.552-4.032 7.44-4.032 4.081 0 8.305 2.641 8.305 10.033v13.873h-5.904v-13.201c0-3.36-1.248-5.904-4.464-5.904-2.352 0-3.984 1.68-4.608 3.456-.192.528-.24 1.248-.24 1.92v13.729h-5.952V218.36zM113.266 229.353c1.344.816 3.888 1.681 6 1.681 2.592 0 3.744-1.057 3.744-2.593 0-1.584-.96-2.399-3.84-3.408-4.561-1.584-6.48-4.08-6.433-6.816 0-4.128 3.408-7.345 8.833-7.345 2.592 0 4.848.672 6.192 1.393l-1.152 4.176c-1.008-.576-2.88-1.344-4.945-1.344-2.112 0-3.264 1.008-3.264 2.448 0 1.488 1.104 2.208 4.081 3.265 4.224 1.536 6.192 3.696 6.24 7.152 0 4.225-3.312 7.297-9.505 7.297-2.832 0-5.376-.673-7.104-1.633l1.153-4.273zM150.755 234.058c-1.249.576-3.697 1.2-6.625 1.2-7.296 0-12.049-4.657-12.049-11.905 0-7.009 4.8-12.481 13.009-12.481 2.16 0 4.368.48 5.712 1.104l-1.056 4.416c-.96-.432-2.352-.912-4.464-.912-4.513 0-7.201 3.313-7.153 7.585 0 4.801 3.121 7.536 7.153 7.536 2.064 0 3.504-.432 4.656-.912l.817 4.369zM155.121 218.936c0-3.168-.049-5.424-.191-7.536h5.135l.193 4.464h.191c1.152-3.312 3.889-4.992 6.385-4.992.576 0 .912.048 1.393.145v5.568a8.145 8.145 0 0 0-1.729-.192c-2.832 0-4.752 1.824-5.281 4.465a10.12 10.12 0 0 0-.191 1.824v12.097h-5.904v-15.843zM175.953 224.744c.143 4.225 3.455 6.049 7.199 6.049 2.736 0 4.705-.384 6.48-1.056l.865 4.08c-2.016.816-4.801 1.44-8.16 1.44-7.586 0-12.051-4.657-12.051-11.81 0-6.48 3.938-12.577 11.426-12.577 7.584 0 10.08 6.24 10.08 11.377 0 1.104-.096 1.969-.191 2.496h-15.648zm10.272-4.128c.049-2.16-.912-5.713-4.848-5.713-3.648 0-5.184 3.313-5.424 5.713h10.272zM200.721 224.744c.143 4.225 3.455 6.049 7.199 6.049 2.736 0 4.705-.384 6.48-1.056l.865 4.08c-2.016.816-4.801 1.44-8.16 1.44-7.586 0-12.051-4.657-12.051-11.81 0-6.48 3.938-12.577 11.426-12.577 7.584 0 10.08 6.24 10.08 11.377 0 1.104-.096 1.969-.191 2.496h-15.648zm10.271-4.128c.049-2.16-.912-5.713-4.848-5.713-3.648 0-5.184 3.313-5.424 5.713h10.272zM221.311 218.36c0-2.688-.047-4.945-.191-6.961h5.186l.287 3.504h.145c1.008-1.824 3.553-4.032 7.439-4.032 4.08 0 8.305 2.641 8.305 10.033v13.873h-5.904v-13.201c0-3.36-1.248-5.904-4.465-5.904-2.352 0-3.984 1.68-4.607 3.456-.191.528-.24 1.248-.24 1.92v13.729h-5.953V218.36zM24.827 277.353c1.344.816 3.888 1.681 6 1.681 2.592 0 3.744-1.057 3.744-2.593 0-1.584-.96-2.399-3.84-3.408-4.56-1.584-6.48-4.08-6.433-6.816 0-4.128 3.409-7.345 8.833-7.345 2.592 0 4.848.672 6.192 1.393l-1.152 4.176c-1.008-.576-2.88-1.344-4.945-1.344-2.112 0-3.264 1.008-3.264 2.448 0 1.488 1.104 2.208 4.081 3.265 4.224 1.536 6.192 3.696 6.24 7.152 0 4.225-3.312 7.297-9.504 7.297-2.833 0-5.377-.673-7.105-1.633l1.153-4.273zM67.356 270.872c0 8.593-6.048 12.434-12.001 12.434-6.625 0-11.713-4.561-11.713-12.05 0-7.68 5.041-12.385 12.097-12.385 6.961 0 11.617 4.897 11.617 12.001zm-17.617.24c0 4.513 2.208 7.921 5.808 7.921 3.36 0 5.713-3.313 5.713-8.017 0-3.648-1.632-7.825-5.665-7.825-4.176 0-5.856 4.033-5.856 7.921zM93.132 275.769c0 2.784.096 5.089.192 7.009H88.14l-.288-3.553h-.096c-1.008 1.681-3.313 4.081-7.489 4.081-4.272 0-8.161-2.545-8.161-10.177V259.4h5.904v12.721c0 3.889 1.249 6.385 4.369 6.385 2.352 0 3.888-1.68 4.512-3.168a5.366 5.366 0 0 0 .336-1.824v-14.113h5.905v16.368zM99.514 266.36c0-2.688-.048-4.945-.192-6.961h5.185l.288 3.504h.144c1.008-1.824 3.552-4.032 7.44-4.032 4.081 0 8.305 2.641 8.305 10.033v13.873h-5.904v-13.201c0-3.36-1.248-5.904-4.464-5.904-2.352 0-3.984 1.68-4.608 3.456-.192.528-.24 1.248-.24 1.92v13.729h-5.952V266.36zM148.523 248.694v27.507c0 2.399.096 4.992.192 6.576h-5.28l-.24-3.696h-.096c-1.392 2.592-4.225 4.225-7.633 4.225-5.568 0-9.985-4.753-9.985-11.953-.048-7.825 4.849-12.481 10.465-12.481 3.216 0 5.521 1.345 6.577 3.072h.096v-13.249h5.904zm-5.904 20.451a8.31 8.31 0 0 0-.144-1.536c-.528-2.305-2.4-4.177-5.089-4.177-3.792 0-5.904 3.36-5.904 7.729 0 4.272 2.112 7.393 5.856 7.393 2.4 0 4.512-1.632 5.088-4.176.144-.528.192-1.104.192-1.729v-3.504zM168.969 272.744c.143 4.225 3.455 6.049 7.199 6.049 2.736 0 4.705-.384 6.48-1.056l.865 4.08c-2.016.816-4.801 1.44-8.16 1.44-7.586 0-12.051-4.657-12.051-11.81 0-6.48 3.938-12.577 11.426-12.577 7.584 0 10.08 6.24 10.08 11.377 0 1.104-.096 1.969-.191 2.496h-15.648zm10.271-4.128c.049-2.16-.912-5.713-4.848-5.713-3.648 0-5.184 3.313-5.424 5.713h10.272zM204.633 282.777v-18.962h-8.496v18.962h-5.906v-18.962h-3.168v-4.416h3.168v-.576c0-3.024.721-5.809 2.641-7.729 1.441-1.488 3.602-2.4 6.576-2.4 1.25 0 2.498.336 3.217.672l-.959 4.368a5.73 5.73 0 0 0-2.113-.432c-2.688 0-3.504 2.256-3.504 5.185v.912h8.545v-1.008c0-3.024.816-6.049 2.881-7.969 1.727-1.633 4.031-2.257 6.096-2.257 1.584 0 2.832.24 3.744.576l-.383 4.561a7.168 7.168 0 0 0-2.545-.432c-2.928 0-3.889 2.448-3.889 5.328v1.2h5.088v4.416h-5.039v18.962h-5.954zM222.969 272.744c.143 4.225 3.455 6.049 7.199 6.049 2.736 0 4.705-.384 6.48-1.056l.865 4.08c-2.016.816-4.801 1.44-8.16 1.44-7.586 0-12.051-4.657-12.051-11.81 0-6.48 3.938-12.577 11.426-12.577 7.584 0 10.08 6.24 10.08 11.377 0 1.104-.096 1.969-.191 2.496h-15.648zm10.271-4.128c.049-2.16-.912-5.713-4.848-5.713-3.648 0-5.184 3.313-5.424 5.713h10.272zM260.744 282.058c-1.248.576-3.695 1.2-6.623 1.2-7.297 0-12.051-4.657-12.051-11.905 0-7.009 4.801-12.481 13.01-12.481 2.16 0 4.369.48 5.713 1.104l-1.057 4.416c-.959-.432-2.352-.912-4.465-.912-4.512 0-7.199 3.313-7.152 7.585 0 4.801 3.121 7.536 7.152 7.536 2.064 0 3.506-.432 4.658-.912l.815 4.369zM272.6 252.727v6.673h5.617v4.416H272.6v10.321c0 2.832.768 4.32 3.023 4.32a8.774 8.774 0 0 0 2.305-.288l.096 4.513c-.863.336-2.4.576-4.271.576-2.16 0-3.984-.721-5.088-1.921-1.25-1.344-1.824-3.456-1.824-6.528v-10.993h-3.361V259.4h3.361v-5.28l5.759-1.393z"/></g><path d="M263.962 176.565c0 11.435-58.818 10.396-115.336 10.396S35.868 186 35.868 176.501c0-7.95 56.239-14.33 112.757-14.33s115.337 6.444 115.337 14.394z"/><path d="M270.819 164.959c0 8.852-6.166 16.027-13.771 16.027H43.591c-7.606 0-13.771-7.176-13.771-16.027V39.407c0-8.852 6.166-15.645 13.771-15.645h213.458c7.604 0 13.771 6.793 13.771 15.645v125.552z"/><circle fill="#C1272D" cx="150.532" cy="174.145" r="5.355"/><circle fill="#FFF" cx="165.833" cy="173.379" r="4.208"/><circle fill="#FFF" cx="179.604" cy="173.379" r="4.208"/><path fill="#FFF" d="M261 151.785c0 7.476-4.939 15.215-11.924 15.215H53.123C46.141 167 40 159.261 40 151.785V45.747C40 38.271 46.141 32 53.123 32h195.954C256.061 32 261 38.271 261 45.747v106.038z"/><g fill="none" stroke="#C1272D" stroke-miterlimit="10"><path stroke-width="4.479" d="M39.554 117.426h221.001"/><path stroke-width="3.402" d="M94.767 116.762l13.745-5.757 1.955 6.304 10.166-14.617 9.531 30.5 5.719-97.304 6.353 126.446 6.991-114.922 5.719 92.771 7.625-62.273 5.717 56.189 10.168-33.04 6.355 21.968 3.177-13.345 3.176 12.166 2.812-5.813"/></g></g></switch></svg>