<?xml version="1.0" encoding="utf-8"?>
<!-- Generator: Adobe Illustrator 22.0.1, SVG Export Plug-In . SVG Version: 6.00 Build 0)  -->
<svg version="1.1" id="Ebene_1" xmlns="http://www.w3.org/2000/svg" xmlns:xlink="http://www.w3.org/1999/xlink" x="0px" y="0px"
	 viewBox="0 0 300.5 300.5" style="enable-background:new 0 0 300.5 300.5;" xml:space="preserve">
<style type="text/css">
	.st0{fill:#EACD99;}
	.st1{enable-background:new    ;}
	.st2{fill:#C1272D;}
	.st3{fill:#3A3326;}
	.st4{fill:none;stroke:#000000;stroke-width:3.0947;stroke-miterlimit:10;}
	.st5{fill:none;stroke:#FFFFFF;stroke-width:4;stroke-miterlimit:10;}
	.st6{fill:none;stroke:#C1272D;stroke-width:4;stroke-miterlimit:10;}
</style>
<path class="st0" d="M238.2,300.5H62.4c-34.3,0-62.4-28-62.4-62.3V62.4C0,28.1,28.1,0,62.4,0h175.8c34.3,0,62.4,28.1,62.4,62.4
	v175.8C300.5,272.5,272.5,300.5,238.2,300.5z"/>
<g class="st1">
	<path d="M141.9,37.6c1.1,0.6,3.6,1.6,6,1.6c3.2,0,4.8-1.5,4.8-3.5c0-2.6-2.6-3.7-5.2-3.7H145v-4.4h2.4c2,0,4.6-0.8,4.6-3
		c0-1.6-1.3-2.7-3.8-2.7c-2.1,0-4.4,0.9-5.4,1.6l-1.2-4.4c1.6-1,4.7-2,8-2c5.6,0,8.6,2.9,8.6,6.5c0,2.8-1.6,4.9-4.8,6v0.1
		c3.1,0.6,5.6,2.9,5.6,6.3c0,4.6-4,8-10.6,8c-3.4,0-6.2-0.9-7.7-1.8L141.9,37.6z"/>
</g>
<g class="st1">
	<path d="M71.3,117.3v-3.7l3.4-3c5.7-5.1,8.4-8,8.5-11c0-2.1-1.3-3.8-4.3-3.8c-2.2,0-4.2,1.1-5.6,2.2l-1.7-4.4c2-1.5,5-2.7,8.5-2.7
		c5.9,0,9.1,3.4,9.1,8.2c0,4.4-3.2,7.8-6.9,11.2l-2.4,2v0.1h9.8v5H71.3z"/>
</g>
<g class="st1">
	<path d="M219.6,117.9v-6.2h-11.5v-4l9.8-15.8h7.4v15.2h3.1v4.6h-3.1v6.2H219.6z M219.6,107.2v-5.8c0-1.6,0.1-3.2,0.2-4.8h-0.2
		c-0.8,1.7-1.5,3.2-2.4,4.8l-3.5,5.7v0.1H219.6z"/>
</g>
<g class="st1">
	<path d="M276.1,178h-10.1l-0.6,4c0.6-0.1,1-0.1,1.7-0.1c2.5,0,5,0.6,6.8,1.9c2,1.3,3.2,3.5,3.2,6.5c0,4.8-4.2,9.1-11.2,9.1
		c-3.2,0-5.8-0.7-7.2-1.5l1.1-4.6c1.2,0.6,3.5,1.3,5.9,1.3c2.5,0,5.2-1.2,5.2-4c0-2.7-2.1-4.3-7.3-4.3c-1.4,0-2.4,0.1-3.5,0.2
		l1.7-13.6h14.3V178z"/>
</g>
<g class="st1">
	<path class="st2" d="M33.6,168.5h-0.1l-7.2,3.4l-1.5-6.6l10-4.6h7.3v37.7h-8.5V168.5z"/>
</g>
<g class="st1">
	<path class="st3" d="M62,237.6H49.8v9.5h13.6v4.8H43.9v-32.4h18.8v4.8H49.8v8.4H62V237.6z"/>
	<path class="st3" d="M72.3,228.6l2.8,4.4c0.8,1.2,1.4,2.4,2.1,3.6h0.1c0.7-1.3,1.3-2.5,2-3.7l2.6-4.3h6.4l-7.8,11.2l8,12.1h-6.7
		l-2.9-4.7c-0.8-1.2-1.4-2.5-2.1-3.8h-0.1c-0.7,1.3-1.3,2.5-2.1,3.8L72,252h-6.5l8.1-11.9l-7.8-11.5H72.3z"/>
	<path class="st3" d="M92.1,236.4c0-3.1-0.1-5.6-0.2-7.8h5.2l0.3,3.6h0.1c1.7-2.6,4.5-4.1,8-4.1c5.4,0,9.8,4.6,9.8,11.9
		c0,8.4-5.3,12.5-10.7,12.5c-2.9,0-5.4-1.2-6.6-3.1H98v12.1h-5.9V236.4z M98,242.2c0,0.6,0,1.1,0.2,1.6c0.6,2.4,2.7,4.1,5.2,4.1
		c3.7,0,6-3.1,6-7.7c0-4.1-2-7.5-5.8-7.5c-2.4,0-4.7,1.8-5.3,4.4c-0.1,0.5-0.2,1-0.2,1.5V242.2z"/>
	<path class="st3" d="M142.4,240.1c0,8.6-6,12.4-12,12.4c-6.6,0-11.7-4.6-11.7-12c0-7.7,5-12.4,12.1-12.4
		C137.7,228.1,142.4,233,142.4,240.1z M124.8,240.3c0,4.5,2.2,7.9,5.8,7.9c3.4,0,5.7-3.3,5.7-8c0-3.6-1.6-7.8-5.7-7.8
		C126.5,232.4,124.8,236.4,124.8,240.3z"/>
	<path class="st3" d="M147,246.5c1.3,0.8,3.9,1.7,6,1.7c2.6,0,3.7-1.1,3.7-2.6c0-1.6-1-2.4-3.8-3.4c-4.6-1.6-6.5-4.1-6.4-6.8
		c0-4.1,3.4-7.3,8.8-7.3c2.6,0,4.8,0.7,6.2,1.4l-1.2,4.2c-1-0.6-2.9-1.3-4.9-1.3c-2.1,0-3.3,1-3.3,2.4c0,1.5,1.1,2.2,4.1,3.3
		c4.2,1.5,6.2,3.7,6.2,7.2c0,4.2-3.3,7.3-9.5,7.3c-2.8,0-5.4-0.7-7.1-1.6L147,246.5z"/>
	<path class="st3" d="M173.5,222.1c0,1.8-1.3,3.2-3.4,3.2c-2,0-3.3-1.4-3.3-3.2c0-1.8,1.3-3.2,3.3-3.2
		C172.2,218.9,173.5,220.2,173.5,222.1z M167.3,252v-23.4h6V252H167.3z"/>
	<path class="st3" d="M186.3,221.9v6.7h5.6v4.4h-5.6v10.3c0,2.8,0.8,4.3,3,4.3c1,0,1.8-0.1,2.3-0.3l0.1,4.5
		c-0.9,0.3-2.4,0.6-4.3,0.6c-2.2,0-4-0.7-5.1-1.9c-1.2-1.3-1.8-3.5-1.8-6.5v-11h-3.4v-4.4h3.4v-5.3L186.3,221.9z"/>
	<path class="st3" d="M202.7,222.1c0,1.8-1.3,3.2-3.4,3.2c-2,0-3.3-1.4-3.3-3.2c0-1.8,1.3-3.2,3.3-3.2
		C201.4,218.9,202.6,220.2,202.7,222.1z M196.4,252v-23.4h6V252H196.4z"/>
	<path class="st3" d="M230.9,240.1c0,8.6-6,12.4-12,12.4c-6.6,0-11.7-4.6-11.7-12c0-7.7,5-12.4,12.1-12.4
		C226.2,228.1,230.9,233,230.9,240.1z M213.3,240.3c0,4.5,2.2,7.9,5.8,7.9c3.4,0,5.7-3.3,5.7-8c0-3.6-1.6-7.8-5.7-7.8
		C215,232.4,213.3,236.4,213.3,240.3z"/>
	<path class="st3" d="M235.8,235.6c0-2.7,0-4.9-0.2-7h5.2l0.3,3.5h0.1c1-1.8,3.6-4,7.4-4c4.1,0,8.3,2.6,8.3,10V252H251v-13.2
		c0-3.4-1.2-5.9-4.5-5.9c-2.4,0-4,1.7-4.6,3.5c-0.2,0.5-0.2,1.2-0.2,1.9V252h-6V235.6z"/>
</g>
<g>
	<g>
		<line class="st4" x1="139.1" y1="89.7" x2="67.5" y2="183.2"/>
		<g>
			<polygon points="133.1,87.3 144.5,82.6 142.9,94.9 			"/>
		</g>
	</g>
</g>
<g>
	<g>
		<line class="st4" x1="229.1" y1="178.4" x2="157.5" y2="84.9"/>
		<g>
			<polygon points="232.9,173.3 234.5,185.5 223.1,180.8 			"/>
		</g>
	</g>
</g>
<path class="st5" d="M249.8,183L150.2,52.9c-2.6,3.4-99.5,130-99.5,130"/>
<path class="st6" d="M89.2,132.9c-2.6,3.4-38.5,50.3-38.5,50.3"/>
</svg>
