<?xml version="1.0" encoding="iso-8859-1"?>
<!-- Generator: Adobe Illustrator 16.0.3, SVG Export Plug-In . SVG Version: 6.00 Build 0)  -->
<!DOCTYPE svg PUBLIC "-//W3C//DTD SVG 1.1//EN" "http://www.w3.org/Graphics/SVG/1.1/DTD/svg11.dtd">
<svg version="1.1" id="Ebene_1" xmlns="http://www.w3.org/2000/svg" xmlns:xlink="http://www.w3.org/1999/xlink" x="0px" y="0px"
	 width="518px" height="518px" viewBox="0 0 518 518" style="enable-background:new 0 0 518 518;" xml:space="preserve">
<path style="fill-rule:evenodd;clip-rule:evenodd;fill:#1680B8;" d="M518,512c0,3.313-2.017,6-4.505,6H4.505
	C2.018,518,0,515.313,0,512V6c0-3.313,2.017-6,4.504-6h508.99C515.983,0,518,2.687,518,6V512z"/>
<g>
	<g id="XMLID_1_">
		<g>
			<path style="fill:#FCFBFB;" d="M259.039,25.99c96.51-0.58,177.17,79.81,175.04,178.93c-2.04,95.16-81.561,173.45-179.37,171.17
				c-94.72-2.21-173.28-81.439-170.77-179.76C86.349,101.91,164.509,25.46,259.039,25.99z M259.309,361.59
				c89.29-0.38,160.94-73.05,160.37-160.66c-0.58-89.03-72.779-160.79-161.03-160.56c-85.43,0.21-159.56,68.84-160.47,160.72
				C99.219,291.1,170.849,361.97,259.309,361.59z"/>
			<path style="fill:#1680B8;" d="M419.679,200.93c0.57,87.61-71.08,160.28-160.37,160.66c-88.46,0.38-160.09-70.49-161.13-160.5
				c0.91-91.88,75.04-160.51,160.47-160.72C346.899,40.14,419.099,111.9,419.679,200.93z"/>
		</g>
		<g>
		</g>
	</g>
</g>
<g>
	<rect x="-7.001" y="413" style="fill-rule:evenodd;clip-rule:evenodd;fill:none;" width="525.002" height="106"/>
	<path style="fill:#FFFFFF;" d="M134.138,442.761l9.033-27.808h6.787L137.165,450.5h-5.981l-12.744-35.547h6.763L134.138,442.761z"
		/>
	<path style="fill:#FFFFFF;" d="M163.947,450.988c-3.76,0-6.808-1.184-9.143-3.553c-2.336-2.367-3.503-5.521-3.503-9.46v-0.732
		c0-2.637,0.508-4.993,1.526-7.067c1.017-2.076,2.445-3.69,4.285-4.847c1.839-1.155,3.89-1.733,6.152-1.733
		c3.597,0,6.376,1.147,8.337,3.442c1.961,2.295,2.942,5.542,2.942,9.741v2.393h-17.261c0.179,2.182,0.907,3.906,2.185,5.176
		c1.277,1.27,2.885,1.904,4.822,1.904c2.718,0,4.932-1.099,6.641-3.296l3.198,3.052c-1.058,1.579-2.47,2.804-4.236,3.674
		C168.126,450.553,166.145,450.988,163.947,450.988z M163.239,428.356c-1.628,0-2.942,0.57-3.943,1.709
		c-1.001,1.14-1.64,2.727-1.917,4.761h11.304v-0.439c-0.13-1.985-0.659-3.487-1.587-4.504
		C166.169,428.865,164.883,428.356,163.239,428.356z"/>
	<path style="fill:#FFFFFF;" d="M192.976,429.504c-0.781-0.13-1.587-0.195-2.417-0.195c-2.718,0-4.549,1.042-5.493,3.125V450.5
		h-5.933v-26.416h5.664l0.146,2.954c1.432-2.295,3.418-3.442,5.957-3.442c0.846,0,1.546,0.114,2.1,0.342L192.976,429.504z"/>
	<path style="fill:#FFFFFF;" d="M220.344,442.321l4.199-18.237h5.786l-7.202,26.416h-4.883l-5.664-18.14l-5.566,18.14h-4.883
		l-7.227-26.416h5.786l4.272,18.042l5.42-18.042h4.468L220.344,442.321z"/>
	<path style="fill:#FFFFFF;" d="M234.309,417.224c0-0.911,0.289-1.668,0.867-2.271c0.578-0.602,1.404-0.903,2.478-0.903
		s1.904,0.302,2.49,0.903c0.586,0.603,0.879,1.359,0.879,2.271c0,0.896-0.293,1.64-0.879,2.233c-0.586,0.595-1.416,0.892-2.49,0.892
		s-1.9-0.297-2.478-0.892C234.597,418.863,234.309,418.119,234.309,417.224z M240.607,450.5h-5.933v-26.416h5.933V450.5z"/>
	<path style="fill:#FFFFFF;" d="M257.917,446.252c1.481,0,2.71-0.431,3.687-1.294c0.977-0.862,1.497-1.929,1.563-3.198h5.591
		c-0.065,1.645-0.578,3.178-1.538,4.602c-0.96,1.425-2.263,2.552-3.906,3.382c-1.644,0.83-3.418,1.245-5.322,1.245
		c-3.695,0-6.625-1.196-8.789-3.589c-2.165-2.393-3.247-5.696-3.247-9.912v-0.61c0-4.02,1.074-7.238,3.223-9.656
		c2.148-2.416,5.078-3.625,8.789-3.625c3.141,0,5.701,0.916,7.678,2.746c1.978,1.832,3.015,4.236,3.113,7.215h-5.591
		c-0.065-1.514-0.582-2.759-1.55-3.735c-0.969-0.977-2.202-1.465-3.699-1.465c-1.921,0-3.402,0.696-4.443,2.087
		c-1.042,1.393-1.571,3.504-1.587,6.336v0.952c0,2.865,0.517,5.001,1.55,6.409C254.47,445.548,255.964,446.252,257.917,446.252z"/>
	<path style="fill:#FFFFFF;" d="M281.818,439.172l-2.637,2.71v8.618h-5.933V413h5.933v21.631l1.855-2.319l7.3-8.228h7.129
		l-9.814,11.011l10.864,15.405h-6.86L281.818,439.172z"/>
	<path style="fill:#FFFFFF;" d="M305.646,450.5h-5.933V413h5.933V450.5z"/>
	<path style="fill:#FFFFFF;" d="M328.107,447.912c-1.741,2.051-4.216,3.076-7.422,3.076c-2.865,0-5.034-0.838-6.506-2.515
		c-1.473-1.676-2.209-4.102-2.209-7.275v-17.114h5.933v17.041c0,3.354,1.392,5.029,4.175,5.029c2.881,0,4.826-1.033,5.835-3.101
		v-18.97h5.933V450.5h-5.591L328.107,447.912z"/>
	<path style="fill:#FFFFFF;" d="M345.393,424.084l0.171,3.052c1.953-2.359,4.517-3.54,7.69-3.54c5.501,0,8.301,3.149,8.398,9.448
		V450.5h-5.933v-17.114c0-1.676-0.362-2.917-1.087-3.724c-0.724-0.805-1.908-1.208-3.552-1.208c-2.393,0-4.175,1.083-5.347,3.247
		V450.5h-5.933v-26.416H345.393z"/>
	<path style="fill:#FFFFFF;" d="M366.657,437.097c0-4.102,0.965-7.377,2.893-9.827c1.93-2.449,4.488-3.674,7.679-3.674
		c3.011,0,5.379,1.05,7.104,3.149l0.269-2.661h5.347v25.61c0,3.467-1.078,6.201-3.234,8.203c-2.157,2.002-5.066,3.003-8.729,3.003
		c-1.938,0-3.829-0.402-5.676-1.209c-1.848-0.805-3.252-1.859-4.212-3.161l2.808-3.564c1.822,2.164,4.068,3.247,6.738,3.247
		c1.969,0,3.523-0.533,4.663-1.6c1.139-1.065,1.709-2.633,1.709-4.699v-1.782c-1.709,1.904-3.988,2.856-6.836,2.856
		c-3.093,0-5.619-1.229-7.581-3.687C367.638,444.845,366.657,441.442,366.657,437.097z M372.565,437.609
		c0,2.653,0.541,4.74,1.623,6.262c1.083,1.522,2.584,2.283,4.505,2.283c2.393,0,4.166-1.025,5.322-3.076v-11.621
		c-1.123-2.002-2.881-3.003-5.273-3.003c-1.953,0-3.471,0.773-4.554,2.319C373.106,432.32,372.565,434.599,372.565,437.609z"/>
	<path style="fill:#FFFFFF;" d="M135.212,494.98l5.591-18.896h6.128l-9.155,26.416h-5.151l-9.229-26.416h6.152L135.212,494.98z"/>
	<path style="fill:#FFFFFF;" d="M161.945,502.988c-3.76,0-6.808-1.184-9.143-3.553c-2.336-2.367-3.503-5.521-3.503-9.46v-0.732
		c0-2.637,0.508-4.993,1.526-7.067c1.017-2.076,2.445-3.69,4.285-4.847c1.839-1.155,3.89-1.733,6.152-1.733
		c3.597,0,6.376,1.147,8.337,3.442c1.961,2.295,2.942,5.542,2.942,9.741v2.393H155.28c0.179,2.182,0.907,3.906,2.185,5.176
		c1.277,1.27,2.885,1.904,4.822,1.904c2.718,0,4.932-1.099,6.641-3.296l3.198,3.052c-1.058,1.579-2.47,2.804-4.236,3.674
		C166.124,502.553,164.143,502.988,161.945,502.988z M161.237,480.356c-1.628,0-2.942,0.57-3.943,1.709
		c-1.001,1.14-1.64,2.727-1.917,4.761h11.304v-0.439c-0.13-1.985-0.659-3.487-1.587-4.504
		C164.167,480.865,162.881,480.356,161.237,480.356z"/>
	<path style="fill:#FFFFFF;" d="M190.974,481.504c-0.781-0.13-1.587-0.195-2.417-0.195c-2.718,0-4.549,1.042-5.493,3.125V502.5
		h-5.933v-26.416h5.664l0.146,2.954c1.432-2.295,3.418-3.442,5.957-3.442c0.846,0,1.546,0.114,2.1,0.342L190.974,481.504z"/>
	<path style="fill:#FFFFFF;" d="M193.146,489.097c0-4.068,0.944-7.337,2.832-9.802c1.888-2.467,4.419-3.699,7.593-3.699
		c2.799,0,5.062,0.977,6.787,2.93V465h5.933v37.5h-5.371l-0.293-2.734c-1.774,2.148-4.143,3.223-7.104,3.223
		c-3.093,0-5.595-1.245-7.507-3.735C194.103,496.763,193.146,493.378,193.146,489.097z M199.079,489.609
		c0,2.686,0.517,4.781,1.55,6.287c1.033,1.505,2.502,2.258,4.407,2.258c2.425,0,4.199-1.082,5.322-3.247v-11.279
		c-1.091-2.115-2.849-3.174-5.273-3.174c-1.921,0-3.402,0.761-4.443,2.282C199.6,484.259,199.079,486.55,199.079,489.609z"/>
	<path style="fill:#FFFFFF;" d="M238.264,502.5c-0.261-0.504-0.488-1.326-0.684-2.466c-1.888,1.97-4.199,2.954-6.934,2.954
		c-2.653,0-4.818-0.757-6.494-2.271c-1.677-1.514-2.515-3.385-2.515-5.615c0-2.815,1.045-4.977,3.137-6.481
		c2.091-1.506,5.082-2.259,8.972-2.259h3.638v-1.733c0-1.367-0.383-2.462-1.147-3.283c-0.765-0.822-1.929-1.233-3.491-1.233
		c-1.351,0-2.458,0.338-3.32,1.013c-0.863,0.676-1.294,1.535-1.294,2.576h-5.933c0-1.448,0.48-2.804,1.44-4.064
		c0.96-1.262,2.266-2.25,3.918-2.967c1.652-0.716,3.495-1.074,5.53-1.074c3.092,0,5.558,0.777,7.397,2.332
		c1.839,1.554,2.783,3.739,2.832,6.555v11.914c0,2.377,0.333,4.272,1.001,5.688v0.415H238.264z M231.745,498.228
		c1.172,0,2.274-0.284,3.308-0.854c1.033-0.569,1.811-1.334,2.332-2.295v-4.98h-3.198c-2.197,0-3.85,0.383-4.956,1.147
		c-1.107,0.766-1.66,1.848-1.66,3.247c0,1.14,0.378,2.047,1.135,2.723C229.462,497.89,230.476,498.228,231.745,498.228z"/>
	<path style="fill:#FFFFFF;" d="M255.109,476.084l0.171,2.759c1.855-2.164,4.395-3.247,7.617-3.247c3.532,0,5.949,1.352,7.251,4.053
		c1.92-2.701,4.622-4.053,8.105-4.053c2.913,0,5.082,0.806,6.506,2.417c1.424,1.611,2.152,3.988,2.185,7.129V502.5h-5.933v-17.188
		c0-1.676-0.366-2.905-1.099-3.687s-1.945-1.172-3.638-1.172c-1.351,0-2.454,0.362-3.308,1.087
		c-0.854,0.724-1.453,1.672-1.794,2.844l0.024,18.115h-5.933v-17.383c-0.082-3.108-1.668-4.663-4.761-4.663
		c-2.376,0-4.061,0.969-5.054,2.905V502.5h-5.933v-26.416H255.109z"/>
	<path style="fill:#FFFFFF;" d="M298.615,476.084l0.171,2.759c1.855-2.164,4.395-3.247,7.617-3.247c3.532,0,5.949,1.352,7.251,4.053
		c1.92-2.701,4.622-4.053,8.105-4.053c2.913,0,5.082,0.806,6.507,2.417c1.424,1.611,2.151,3.988,2.185,7.129V502.5h-5.933v-17.188
		c0-1.676-0.366-2.905-1.099-3.687s-1.945-1.172-3.638-1.172c-1.351,0-2.454,0.362-3.308,1.087
		c-0.854,0.724-1.453,1.672-1.794,2.844l0.024,18.115h-5.933v-17.383c-0.082-3.108-1.668-4.663-4.761-4.663
		c-2.376,0-4.061,0.969-5.054,2.905V502.5h-5.933v-26.416H298.615z"/>
	<path style="fill:#FFFFFF;" d="M348.176,502.988c-3.76,0-6.808-1.184-9.144-3.553c-2.335-2.367-3.503-5.521-3.503-9.46v-0.732
		c0-2.637,0.509-4.993,1.526-7.067c1.017-2.076,2.444-3.69,4.284-4.847c1.839-1.155,3.89-1.733,6.152-1.733
		c3.597,0,6.376,1.147,8.337,3.442c1.962,2.295,2.942,5.542,2.942,9.741v2.393h-17.261c0.179,2.182,0.907,3.906,2.186,5.176
		c1.277,1.27,2.884,1.904,4.821,1.904c2.718,0,4.932-1.099,6.641-3.296l3.198,3.052c-1.059,1.579-2.47,2.804-4.236,3.674
		C352.354,502.553,350.373,502.988,348.176,502.988z M347.468,480.356c-1.628,0-2.941,0.57-3.943,1.709
		c-1,1.14-1.64,2.727-1.916,4.761h11.304v-0.439c-0.131-1.985-0.659-3.487-1.587-4.504
		C350.397,480.865,349.111,480.356,347.468,480.356z"/>
	<path style="fill:#FFFFFF;" d="M368.879,476.084l0.171,3.052c1.953-2.359,4.517-3.54,7.69-3.54c5.501,0,8.301,3.149,8.398,9.448
		V502.5h-5.933v-17.114c0-1.676-0.362-2.917-1.087-3.724c-0.724-0.805-1.908-1.208-3.552-1.208c-2.393,0-4.175,1.083-5.347,3.247
		V502.5h-5.933v-26.416H368.879z"/>
</g>
<path style="fill-rule:evenodd;clip-rule:evenodd;fill:#EDF5F9;" d="M272.009,179.974c-8.55-10.696-8.5-19.944-0.496-27.938
	c7.112-7.104,16.654-7.633,24.26-1.347c9.243,7.64,9.607,16.229,0.909,29.289c3.395,0,6.503-0.117,9.6,0.023
	c7.266,0.329,12.662,5.62,12.714,12.734c0.096,13.158-0.006,26.318-0.049,39.478c-0.006,1.495-0.059,3.006-0.271,4.482
	c-1.201,8.377-4.063,10.595-12.517,9.537c-0.095,1.285-0.264,2.559-0.272,3.832c-0.117,18.984-0.338,37.969-0.239,56.951
	c0.031,5.918-1.681,10.507-7.167,13.069c-5.256,2.456-9.279-0.149-11.805-2.621c-4.891,1.106-8.906,2.729-12.929,2.745
	c-5.049,0.021-8.143-3.362-8.957-8.439c-0.288-1.795-0.352-3.642-0.354-5.465c-0.025-17.824-0.015-35.648-0.015-53.473
	c0-1.809,0-3.617,0-5.735c-1.574,0.099-2.683,0.117-3.779,0.247c-4.744,0.564-8.583-1.536-8.699-6.083
	c-0.439-17.26-0.598-34.551,0.013-51.799c0.201-5.662,5.954-9.221,11.851-9.472C266.261,179.886,268.722,179.974,272.009,179.974z
	 M270.032,260.568c-0.052,0-0.104,0-0.156,0c0,3.997-0.001,7.994,0,11.991c0.002,11.991-0.063,23.982,0.042,35.973
	c0.044,5.045,2.678,7.206,7.176,6.417c3.907-0.686,4.354-3.454,4.346-6.702c-0.033-14.322-0.093-28.646,0.085-42.967
	c0.034-2.739-0.429-6.852,4.061-6.603c3.959,0.22,3.407,3.864,3.426,6.624c0.056,8.493,0.02,16.987,0.021,25.48
	c0.001,6.162-0.048,12.325,0.026,18.486c0.042,3.511,2.157,6.345,5.363,5.772c2.157-0.384,4.014-3.481,5.574-5.672
	c0.632-0.888,0.126-2.592,0.126-3.924c0.001-29.811-0.011-59.622,0.027-89.433c0.003-2.145,0.05-4.397,0.711-6.39
	c0.361-1.089,2.067-2.414,3.143-2.394c1.078,0.02,2.593,1.386,3.07,2.519c0.61,1.451,0.457,3.257,0.487,4.912
	c0.127,6.989,0.037,13.988,0.406,20.964c0.097,1.831,1.56,3.589,2.396,5.381c0.937-1.719,1.905-3.421,2.79-5.165
	c0.213-0.42,0.201-0.979,0.206-1.476c0.147-13.482,0.39-26.965,0.37-40.446c-0.008-5.303-3.19-8.246-8.485-8.32
	c-12.816-0.18-25.634-0.36-38.451-0.345c-7.66,0.01-10.17,2.665-10.205,10.291c-0.047,10.326-0.019,20.651-0.01,30.978
	c0.003,3.647-0.24,7.331,0.201,10.928c0.194,1.582,1.814,2.988,2.788,4.475c0.95-1.658,2.527-3.246,2.721-4.988
	c0.42-3.784,0.129-7.646,0.139-11.477c0.012-4.83-0.236-9.685,0.222-14.472c0.131-1.374,2.155-3.218,3.617-3.569
	c0.878-0.211,2.851,1.847,3.421,3.253c0.646,1.597,0.335,3.605,0.337,5.436C270.04,230.927,270.032,245.747,270.032,260.568z
	 M270.907,165.755c0.047,6.568,6.854,13.192,13.343,12.986c6.683-0.212,13.668-7.252,13.53-13.635
	c-0.143-6.603-6.708-13.185-13.193-13.228C277.777,151.834,270.857,158.853,270.907,165.755z"/>
<path style="fill-rule:evenodd;clip-rule:evenodd;fill:#EBF4F8;" d="M224.415,249.516c-9.944,0.104-12.321-2.143-12.391-11.93
	c-0.087-12.318-0.041-24.639,0.128-36.956c0.114-8.31,5.6-13.377,13.795-12.731c1.346,0.105,2.574,1.713,3.857,2.627
	c-1.2,0.837-2.325,2.246-3.613,2.415c-6.756,0.888-8.518,2.462-8.574,9.085c-0.102,11.986-0.034,23.975-0.018,35.962
	c0.001,0.995-0.123,2.13,0.299,2.949c0.589,1.145,1.637,2.052,2.488,3.062c0.663-1,1.874-1.984,1.9-3
	c0.181-6.975,0.093-13.955,0.143-20.934c0.012-1.655-0.154-3.467,0.457-4.913c0.473-1.119,2.006-2.429,3.11-2.468
	c1.125-0.039,2.874,1.133,3.318,2.203c0.663,1.598,0.546,3.57,0.547,5.383c0.027,26.973,0.019,53.944,0.019,80.917
	c0,1.165,0.039,2.332-0.004,3.496c-0.127,3.452,0.954,6.042,4.891,6.033c4.1-0.01,5.27-2.575,5.225-6.31
	c-0.105-8.656-0.033-17.315-0.033-25.973c0-2.498-0.181-5.012,0.054-7.487c0.208-2.196-1.444-5.868,2.443-5.917
	c4.334-0.054,2.507,3.874,2.688,6.165c0.275,3.475,0.072,6.987,0.072,10.483c-0.001,7.992,0.051,15.984-0.018,23.975
	c-0.06,6.881-3.744,10.523-10.45,10.527c-6.302,0.003-10.232-3.691-10.285-10.303c-0.135-16.814-0.049-33.632-0.051-50.447
	C224.414,253.459,224.415,251.487,224.415,249.516z"/>
<path style="fill-rule:evenodd;clip-rule:evenodd;fill:#F4F9FB;" d="M187.805,249.481c-10.226-0.057-12.274-1.991-12.313-12.323
	c-0.048-12.648-0.08-25.308,0.401-37.942c0.295-7.737,6.359-12.352,13.946-11.309c1.163,0.16,2.167,1.474,3.245,2.253
	c-1.068,0.951-2.034,2.563-3.22,2.744c-7.366,1.13-8.817,2.586-8.845,9.804c-0.044,11.322-0.084,22.644-0.108,33.966
	c-0.003,1.33-0.229,2.807,0.263,3.952c0.551,1.284,1.799,2.271,2.744,3.386c0.681-1.169,1.914-2.32,1.952-3.51
	c0.202-6.321,0.103-12.652,0.11-18.979c0.002-1.832-0.429-3.821,0.155-5.446c0.501-1.396,2.162-3.286,3.315-3.29
	c1.201-0.004,2.869,1.784,3.485,3.167c0.625,1.404,0.252,3.27,0.252,4.933c0.008,27.475-0.016,54.949,0.052,82.424
	c0.004,1.921,0.047,4.474,1.189,5.59c1.248,1.221,4.108,1.936,5.683,1.337c1.418-0.538,2.858-3.133,2.896-4.852
	c0.254-11.317,0.131-22.644,0.135-33.966c0-1.165-0.311-2.481,0.126-3.457c0.527-1.179,1.698-2.07,2.59-3.086
	c0.992,1.088,2.758,2.12,2.841,3.274c0.335,4.639,0.154,9.314,0.157,13.977c0.003,7.16,0.022,14.32-0.005,21.48
	c-0.032,8.649-3.354,12.549-10.64,12.56c-7,0.011-10.389-4.111-10.399-12.773C187.79,285.422,187.805,267.45,187.805,249.481z"/>
<path style="fill-rule:evenodd;clip-rule:evenodd;fill:#E8F2F8;" d="M287.839,114.911c2.644,0.136,4.626,0.237,7.551,0.387
	c-3.484,6.03-6.72,11.631-10.392,17.986c-3.629-6.311-6.804-11.832-10.32-17.944c2.807-0.161,4.876-0.28,7.724-0.443
	c0-7.81,0-15.569,0-23.329c0-1.665,0.114-3.34-0.021-4.994c-0.343-4.216,1.648-4.842,5.458-3.49
	C287.839,93.555,287.839,103.992,287.839,114.911z"/>
<path style="fill-rule:evenodd;clip-rule:evenodd;fill:#F5F9FB;" d="M321.995,131.091c2.367,2.583,3.697,4.036,5.633,6.148
	c-6.644,1.813-12.748,3.478-19.873,5.422c1.858-7.019,3.484-13.161,5.263-19.878c2.107,1.863,3.774,3.338,5.649,4.996
	c7.458-7.651,14.887-15.272,22.541-23.125c1.673,1.543,2.848,2.626,4.18,3.856C337.562,116.064,329.927,123.436,321.995,131.091z"/>
<path style="fill-rule:evenodd;clip-rule:evenodd;fill:#F3F8FB;" d="M242.446,137.372c1.983-2.169,3.316-3.628,5.059-5.534
	c-7.799-7.476-15.537-14.895-23.476-22.504c1.95-2.099,3.047-3.28,4.46-4.802c7.807,8.084,15.203,15.742,22.729,23.534
	c1.98-1.804,3.564-3.246,5.71-5.2c1.791,6.523,3.468,12.63,5.44,19.815C255.345,140.81,249.173,139.165,242.446,137.372z"/>
<path style="fill-rule:evenodd;clip-rule:evenodd;fill:#F0F6FA;" d="M228.137,167.6c0.114-8.496,8.169-17.52,16.372-17.969
	c1.433-0.078,2.946,1.298,4.422,2.003c-1.175,1.087-2.182,2.778-3.552,3.158c-6.827,1.89-11.711,7.131-11.687,13.057
	c0.024,5.816,4.379,10.165,11.764,12.208c1.175,0.325,1.986,1.969,2.965,3.003c-1.275,0.708-2.547,2.021-3.827,2.027
	C236.197,185.133,228.021,176.306,228.137,167.6z"/>
<path style="fill-rule:evenodd;clip-rule:evenodd;fill:#F3F8FB;" d="M191.806,167.616c0.06-8.515,7.498-17.146,15.755-17.911
	c1.459-0.135,3.044,1.08,4.571,1.672c-1.2,1.181-2.216,3.04-3.633,3.425c-6.141,1.67-11.363,7.265-11.467,12.887
	c-0.104,5.646,4.505,10.516,11.19,12.291c1.396,0.371,2.484,1.908,3.713,2.907c-1.594,0.741-3.232,2.198-4.776,2.104
	C198.82,184.487,191.745,176.281,191.806,167.616z"/>
</svg>
