<?xml version="1.0" encoding="UTF-8" standalone="no"?>
<svg
   xmlns:dc="http://purl.org/dc/elements/1.1/"
   xmlns:cc="http://creativecommons.org/ns#"
   xmlns:rdf="http://www.w3.org/1999/02/22-rdf-syntax-ns#"
   xmlns:svg="http://www.w3.org/2000/svg"
   xmlns="http://www.w3.org/2000/svg"
   viewBox="0 0 375 375"
   height="375"
   width="375"
   xml:space="preserve"
   version="1.1"
   id="svg2"><metadata
     id="metadata8"><rdf:RDF><cc:Work
         rdf:about=""><dc:format>image/svg+xml</dc:format><dc:type
           rdf:resource="http://purl.org/dc/dcmitype/StillImage" /></cc:Work></rdf:RDF></metadata><defs
     id="defs6" /><g
     transform="matrix(1.25,0,0,-1.25,0,375)"
     id="g10"><g
       transform="scale(0.1,0.1)"
       id="g12"><path
         id="path14"
         style="fill:#ce8e95;fill-opacity:1;fill-rule:nonzero;stroke:none"
         d="m 3000,529.785 c 0,-67.64 0,-529.78890625 -715,-529.78890625 l -1625,0 C 35,-0.00390625 0,472.145 0,539.785 L 0,2399.77 c 0,545 592.352,600 660,600 l 1615,0.3 c 67.65,0 725,-0.3 725,-600.3" /><path
         id="path16"
         style="fill:#26080d;fill-opacity:1;fill-rule:nonzero;stroke:none"
         d="m 735.422,412 0,189.547 50.859,0 0,44.156 -51.343,0 0,12 c 0,28.781 10.078,53.266 39.343,53.266 10.563,0 18.719,-1.922 24.953,-4.328 l 4.329,45.593 c -9.61,3.36 -22.079,5.75 -37.922,5.75 -20.157,0 -43.657,-6.234 -60.938,-22.546 -20.156,-19.204 -28.312,-49.422 -28.312,-79.657 l 0,-10.078 -31.672,0 0,-44.156 31.672,0 0,-189.547 59.031,0" /><path
         id="path18"
         style="fill:#26080d;fill-opacity:1;fill-rule:nonzero;stroke:none"
         d="m 1007.42,412 c -2.39,14.391 -3.36,35.031 -3.36,56.141 l 0,84.468 c 0,50.86 -21.591,98.375 -96.451,98.375 -36.953,0 -67.187,-10.078 -84.453,-20.64 l 11.516,-38.391 c 15.828,10.078 39.828,17.281 62.859,17.281 41.266,0 47.516,-25.437 47.516,-40.796 l 0,-3.844 c -86.391,0.484 -138.688,-29.266 -138.688,-88.297 0,-35.5 26.391,-69.578 73.422,-69.578 30.235,0 54.703,12.953 69.094,31.187 l 1.438,0 3.843,-25.906 53.264,0 z m -60.936,82.063 c 0,-3.844 -0.484,-8.641 -1.921,-12.954 -5.282,-16.796 -22.563,-32.156 -46.079,-32.156 -18.703,0 -33.578,10.547 -33.578,33.594 0,35.5 39.828,44.625 81.578,43.656 l 0,-32.14" /><path
         id="path20"
         style="fill:#26080d;fill-opacity:1;fill-rule:nonzero;stroke:none"
         d="m 1223.11,752.719 0,-132.453 -0.95,0 c -10.57,17.281 -33.6,30.718 -65.75,30.718 -56.14,0 -105.1,-46.546 -104.61,-124.781 0,-71.969 44.14,-119.484 99.81,-119.484 34.08,0 62.39,16.312 76.3,42.234 l 0.97,0 2.39,-36.953 52.79,0 c -0.97,15.828 -1.92,41.75 -1.92,65.75 l 0,274.969 -59.03,0 z m 0,-239.469 c 0,-6.234 -0.48,-12 -1.92,-17.266 -5.75,-25.437 -26.88,-41.75 -50.86,-41.75 -37.44,0 -58.55,31.188 -58.55,73.891 0,43.672 21.11,77.266 59.02,77.266 26.87,0 45.59,-18.719 50.87,-41.75 0.96,-4.797 1.44,-10.563 1.44,-15.36 l 0,-35.031" /><path
         id="path22"
         style="fill:#26080d;fill-opacity:1;fill-rule:nonzero;stroke:none"
         d="m 1543.86,512.297 c 0.95,5.281 1.92,13.906 1.92,24.953 0,51.344 -24.95,113.734 -100.78,113.734 -74.86,0 -114.2,-60.953 -114.2,-125.734 0,-71.5 44.62,-118.047 120.45,-118.047 33.58,0 61.42,6.235 81.58,14.391 l -8.64,40.797 c -17.75,-6.719 -37.44,-10.563 -64.78,-10.563 -37.44,0 -70.55,18.235 -71.99,60.469 l 156.44,0 z m -156.44,41.266 c 2.39,24 17.75,57.109 54.22,57.109 39.36,0 48.95,-35.516 48.47,-57.109 l -102.69,0" /><path
         id="path24"
         style="fill:#26080d;fill-opacity:1;fill-rule:nonzero;stroke:none"
         d="m 1590.39,519.484 122.375,0 0,40.7969 -122.375,0 0,-40.7969 z" /><path
         id="path26"
         style="fill:#26080d;fill-opacity:1;fill-rule:nonzero;stroke:none"
         d="m 1872.72,650.984 c -70.53,0 -120.92,-47.031 -120.92,-123.812 0,-74.859 50.86,-120.453 117.09,-120.453 59.5,0 119.97,38.39 119.97,124.297 0,71.015 -46.55,119.968 -116.14,119.968 z m -1.44,-43.203 c 40.31,0 56.63,-41.734 56.63,-78.218 0,-47.016 -23.52,-80.125 -57.11,-80.125 -35.99,0 -58.07,34.062 -58.07,79.171 0,38.875 16.8,79.172 58.55,79.172" /><path
         id="path28"
         style="fill:#26080d;fill-opacity:1;fill-rule:nonzero;stroke:none"
         d="m 2246.89,645.703 -59.01,0 0,-141.094 c 0,-6.718 -1.44,-12.953 -3.36,-18.234 -6.24,-14.875 -21.6,-31.672 -45.11,-31.672 -31.19,0 -43.68,24.953 -43.68,63.828 l 0,127.172 -59.01,0 0,-137.25 c 0,-76.297 38.86,-101.734 81.58,-101.734 41.75,0 64.78,24 74.86,40.797 l 0.95,0 2.87,-35.516 51.83,0 c -0.95,19.188 -1.92,42.234 -1.92,70.063 l 0,163.64" /><path
         id="path30"
         style="fill:#26080d;fill-opacity:1;fill-rule:nonzero;stroke:none"
         d="m 2320.75,698.484 0,-52.781 -33.59,0 0,-44.156 33.59,0 0,-109.891 c 0,-30.703 5.75,-51.828 18.23,-65.265 11.04,-11.985 29.27,-19.188 50.86,-19.188 18.72,0 34.08,2.391 42.72,5.75 l -0.97,45.11 c -5.26,-1.438 -12.95,-2.875 -23.03,-2.875 -22.54,0 -30.23,14.875 -30.23,43.187 l 0,103.172 56.15,0 0,44.156 -56.15,0 0,66.703 -57.58,-13.922" /><path
         id="path32"
         style="fill:#ffffff;fill-opacity:1;fill-rule:nonzero;stroke:none"
         d="m 500,1110 1000,0 0,1170 -1000,0 0,-1170 z" /><path
         id="path34"
         style="fill:#333333;fill-opacity:1;fill-rule:nonzero;stroke:none"
         d="m 1072.92,1734.48 41.67,-130.48 90.18,0 -149.61,460.44 -107.254,0 -147.562,-460.44 86.765,0 39.61,130.48 146.201,0 z m -132.529,63.54 35.515,113.39 c 8.203,27.32 15.032,59.43 21.86,86.07 l 1.375,0 c 6.829,-26.64 14.339,-58.06 23.219,-86.07 l 36.2,-113.39 -118.169,0" /><path
         id="path36"
         style="fill:#ffffff;fill-opacity:1;fill-rule:nonzero;stroke:none"
         d="m 1689.98,2153.91 -90,0.16 0.16,90 90,-0.16" /><path
         id="path38"
         style="fill:#ffffff;fill-opacity:1;fill-rule:nonzero;stroke:none"
         d="m 1689.7,2003.91 -90,0.16 0.17,90 90,-0.16" /><path
         id="path40"
         style="fill:#ffffff;fill-opacity:1;fill-rule:nonzero;stroke:none"
         d="m 1689.41,1853.91 -89.98,0.16 0.16,90 90,-0.16" /><path
         id="path42"
         style="fill:#ffffff;fill-opacity:1;fill-rule:nonzero;stroke:none"
         d="m 1689.14,1703.91 -89.99,0.16 0.16,90 90.01,-0.16" /><path
         id="path44"
         style="fill:#ffffff;fill-opacity:1;fill-rule:nonzero;stroke:none"
         d="m 1688.87,1553.91 -90,0.16 0.17,90 90.01,-0.16" /><path
         id="path46"
         style="fill:#ffffff;fill-opacity:1;fill-rule:nonzero;stroke:none"
         d="m 1688.59,1403.91 -90,0.18 0.16,89.98 90,-0.16" /><path
         id="path48"
         style="fill:#ffffff;fill-opacity:1;fill-rule:nonzero;stroke:none"
         d="m 1688.33,1263.91 -90.01,0.18 0.18,89.98 90,-0.15" /><path
         id="path50"
         style="fill:#ffffff;fill-opacity:1;fill-rule:nonzero;stroke:none"
         d="m 1688.05,1113.91 -90,0.16 0.18,90 89.99,-0.15" /><path
         id="path52"
         style="fill:#ffffff;fill-opacity:1;fill-rule:nonzero;stroke:none"
         d="m 1849.82,2074.11 -90,0.17 0.18,90 90,-0.17" /><path
         id="path54"
         style="fill:#ffffff;fill-opacity:1;fill-rule:nonzero;stroke:none"
         d="m 1849.55,1924.11 -90,0.17 0.16,90 90,-0.17" /><path
         id="path56"
         style="fill:#ffffff;fill-opacity:1;fill-rule:nonzero;stroke:none"
         d="m 1849.28,1774.11 -90.01,0.17 0.17,90 90,-0.17" /><path
         id="path58"
         style="fill:#ffffff;fill-opacity:1;fill-rule:nonzero;stroke:none"
         d="m 1848.98,1624.11 -90,0.17 0.18,90 90,-0.17" /><path
         id="path60"
         style="fill:#ffffff;fill-opacity:1;fill-rule:nonzero;stroke:none"
         d="m 1848.73,1484.11 -89.99,0.17 0.17,90 90,-0.17" /><path
         id="path62"
         style="fill:#ffffff;fill-opacity:1;fill-rule:nonzero;stroke:none"
         d="m 1848.47,1344.11 -89.99,0.17 0.17,90.01 90,-0.18" /><path
         id="path64"
         style="fill:#ffffff;fill-opacity:1;fill-rule:nonzero;stroke:none"
         d="m 1848.2,1194.11 -90,0.17 0.16,90 90,-0.17" /><path
         id="path66"
         style="fill:#ffffff;fill-opacity:1;fill-rule:nonzero;stroke:none"
         d="m 2010.54,1913.82 -90.01,0.16 0.18,90 89.99,-0.16" /><path
         id="path68"
         style="fill:#ffffff;fill-opacity:1;fill-rule:nonzero;stroke:none"
         d="m 2010.37,1733.82 -90.01,0.17 0.19,90 89.98,-0.17" /><path
         id="path70"
         style="fill:#ffffff;fill-opacity:1;fill-rule:nonzero;stroke:none"
         d="m 2010.01,1543.82 -89.99,0.16 0.16,90.01 90,-0.17" /><path
         id="path72"
         style="fill:#ffffff;fill-opacity:1;fill-rule:nonzero;stroke:none"
         d="m 2009.84,1363.83 -90,0.16 0.18,90.01 90,-0.18" /><path
         id="path74"
         style="fill:#ffffff;fill-opacity:1;fill-rule:nonzero;stroke:none"
         d="m 2138,2085.73 -90.01,0.16 0.18,90 89.99,-0.16" /><path
         id="path76"
         style="fill:#ffffff;fill-opacity:1;fill-rule:nonzero;stroke:none"
         d="m 2158.56,1856.05 -90,0.16 0.18,90 89.99,-0.17" /><path
         id="path78"
         style="fill:#ffffff;fill-opacity:1;fill-rule:nonzero;stroke:none"
         d="m 2180.44,1516.35 -89.99,0.17 0.16,89.99 90,-0.16" /><path
         id="path80"
         style="fill:#ffffff;fill-opacity:1;fill-rule:nonzero;stroke:none"
         d="m 2152.05,1215.92 -89.99,0.17 0.17,90 90,-0.17" /><path
         id="path82"
         style="fill:#ffffff;fill-opacity:1;fill-rule:nonzero;stroke:none"
         d="m 2337.89,1688.71 -89.98,0.17 0.16,89.99 90,-0.16" /><path
         id="path84"
         style="fill:#ffffff;fill-opacity:1;fill-rule:nonzero;stroke:none"
         d="m 2379.5,1389.32 -89.99,0.16 0.17,90 89.99,-0.16" /><path
         id="path86"
         style="fill:#ffffff;fill-opacity:1;fill-rule:nonzero;stroke:none"
         d="m 2353.59,1978.97 -90,0.17 0.16,89.99 90.02,-0.16" /></g></g></svg>