<svg xmlns="http://www.w3.org/2000/svg" xmlns:xlink="http://www.w3.org/1999/xlink" width="300" height="300" viewBox="0 0 300 300"><switch><g><symbol id="a" viewBox="-150 -150 300 300.015"><path fill="#AEBCC4" d="M150-97.015c0-6.763 0-52.985-71.5-52.985H-84c-62.5 0-66 47.223-66 53.985v186c0 54.5 59.235 60 66 60l161.5.029c6.765 0 72.5-.029 72.5-60.029v-187z"/></symbol><use xlink:href="#a" width="300" height="300.015" x="-150" y="-150" transform="matrix(1 0 0 -1 150 150)" overflow="visible"/><g fill="#080828"><path d="M19.426 207.483v18.08c0 6.073 2.53 8.879 6.349 8.879 4.095 0 6.533-2.806 6.533-8.879v-18.08h5.659v17.712c0 9.569-4.922 13.802-12.375 13.802-7.177 0-11.824-4.002-11.824-13.755v-17.759h5.658zM42.931 222.758c0-2.577-.046-4.739-.184-6.671h4.968l.276 3.358h.138c.966-1.748 3.404-3.864 7.131-3.864 3.911 0 7.959 2.53 7.959 9.614v13.296H57.56V225.84c0-3.221-1.196-5.659-4.278-5.659-2.254 0-3.818 1.61-4.417 3.313-.184.507-.23 1.196-.23 1.841v13.157H42.93v-15.734zM67.954 223.31c0-3.036-.046-5.198-.184-7.223h4.922l.184 4.278h.184c1.104-3.175 3.726-4.784 6.119-4.784.552 0 .874.046 1.334.138v5.337a7.793 7.793 0 0 0-1.656-.185c-2.714 0-4.554 1.748-5.061 4.278-.092.506-.184 1.104-.184 1.748v11.594h-5.659V223.31zM86.631 228.876c.138 4.049 3.313 5.797 6.901 5.797 2.623 0 4.509-.368 6.211-1.012l.828 3.91c-1.932.782-4.601 1.38-7.821 1.38-7.269 0-11.547-4.463-11.547-11.317 0-6.211 3.772-12.053 10.949-12.053 7.269 0 9.661 5.98 9.661 10.902 0 1.059-.092 1.887-.184 2.393H86.631zm9.845-3.956c.046-2.07-.874-5.475-4.646-5.475-3.496 0-4.968 3.174-5.199 5.475h9.845zM117.682 238.491l-.368-2.484h-.138c-1.38 1.748-3.727 2.99-6.625 2.99-4.508 0-7.039-3.267-7.039-6.671 0-5.658 5.015-8.511 13.295-8.465v-.368c0-1.472-.598-3.91-4.554-3.91-2.208 0-4.509.69-6.027 1.656l-1.104-3.681c1.656-1.012 4.554-1.978 8.097-1.978 7.177 0 9.247 4.554 9.247 9.431v8.097c0 2.024.092 4.003.322 5.383h-5.106zm-.736-10.949c-4.002-.092-7.821.782-7.821 4.187 0 2.208 1.426 3.221 3.22 3.221 2.254 0 3.911-1.473 4.417-3.083.138-.414.184-.874.184-1.242v-3.083zM127.156 205.827h5.705v32.664h-5.705v-32.664zM143.716 209.83c0 1.702-1.242 3.036-3.22 3.036-1.886 0-3.128-1.334-3.128-3.036 0-1.748 1.288-3.082 3.174-3.082 1.932 0 3.128 1.334 3.174 3.082zm-6.027 28.661v-22.404h5.705v22.404h-5.705zM147.901 233.293c1.288.781 3.727 1.609 5.751 1.609 2.484 0 3.588-1.012 3.588-2.483 0-1.519-.92-2.301-3.68-3.267-4.371-1.519-6.211-3.91-6.165-6.533 0-3.956 3.267-7.038 8.465-7.038 2.484 0 4.646.644 5.935 1.334l-1.104 4.002c-.966-.552-2.76-1.288-4.738-1.288-2.024 0-3.128.966-3.128 2.347 0 1.426 1.058 2.116 3.91 3.128 4.049 1.473 5.935 3.543 5.98 6.854 0 4.049-3.174 6.993-9.108 6.993-2.715 0-5.153-.644-6.809-1.564l1.103-4.094zM172.559 209.692v6.395h5.382v4.232h-5.382v9.891c0 2.715.735 4.141 2.898 4.141a8.36 8.36 0 0 0 2.208-.276l.092 4.325c-.828.322-2.3.552-4.095.552-2.07 0-3.818-.69-4.876-1.84-1.196-1.288-1.748-3.313-1.748-6.257V220.32h-3.221v-4.232h3.221v-5.061l5.521-1.335zM186.956 209.83c0 1.702-1.242 3.036-3.221 3.036-1.887 0-3.129-1.334-3.129-3.036 0-1.748 1.289-3.082 3.175-3.082 1.933 0 3.128 1.334 3.175 3.082zm-6.027 28.661v-22.404h5.705v22.404h-5.705zM191.141 233.293c1.288.781 3.726 1.609 5.75 1.609 2.484 0 3.589-1.012 3.589-2.483 0-1.519-.92-2.301-3.681-3.267-4.37-1.519-6.211-3.91-6.165-6.533 0-3.956 3.267-7.038 8.465-7.038 2.484 0 4.647.644 5.936 1.334l-1.104 4.002c-.966-.552-2.761-1.288-4.738-1.288-2.024 0-3.129.966-3.129 2.347 0 1.426 1.059 2.116 3.911 3.128 4.048 1.473 5.935 3.543 5.98 6.854 0 4.049-3.175 6.993-9.109 6.993-2.714 0-5.152-.644-6.809-1.564l1.104-4.094zM225.779 237.801c-1.195.553-3.542 1.15-6.349 1.15-6.992 0-11.547-4.463-11.547-11.409 0-6.717 4.601-11.961 12.467-11.961 2.07 0 4.187.46 5.475 1.058l-1.012 4.232c-.92-.414-2.254-.874-4.278-.874-4.324 0-6.9 3.175-6.854 7.269 0 4.601 2.99 7.223 6.854 7.223 1.979 0 3.358-.414 4.463-.874l.781 4.186zM228.675 205.827h5.705v13.342h.092a7.58 7.58 0 0 1 2.807-2.576c1.104-.645 2.438-1.012 3.864-1.012 3.818 0 7.82 2.53 7.82 9.707v13.203h-5.658v-12.56c0-3.267-1.196-5.704-4.324-5.704-2.209 0-3.772 1.472-4.371 3.174-.184.46-.229 1.059-.229 1.702v13.388h-5.705v-32.664zM257.701 228.876c.138 4.049 3.313 5.797 6.9 5.797 2.622 0 4.509-.368 6.211-1.012l.828 3.91c-1.933.782-4.601 1.38-7.821 1.38-7.269 0-11.547-4.463-11.547-11.317 0-6.211 3.772-12.053 10.949-12.053 7.269 0 9.661 5.98 9.661 10.902 0 1.059-.092 1.887-.185 2.393h-14.996zm9.845-3.956c.046-2.07-.874-5.475-4.646-5.475-3.496 0-4.969 3.174-5.198 5.475h9.844zM276.146 223.31c0-3.036-.046-5.198-.184-7.223h4.922l.185 4.278h.184c1.104-3.175 3.727-4.784 6.119-4.784.552 0 .874.046 1.334.138v5.337a7.793 7.793 0 0 0-1.656-.185c-2.714 0-4.555 1.748-5.061 4.278-.092.506-.184 1.104-.184 1.748v11.594h-5.659V223.31zM49.279 280.326c1.84 1.059 4.601 1.979 7.499 1.979 3.634 0 5.658-1.702 5.658-4.232 0-2.347-1.564-3.727-5.521-5.152-5.106-1.841-8.373-4.555-8.373-9.018 0-5.061 4.233-8.925 10.949-8.925 3.358 0 5.843.736 7.453 1.564l-1.38 4.555c-1.104-.599-3.266-1.473-6.165-1.473-3.588 0-5.153 1.933-5.153 3.727 0 2.393 1.794 3.496 5.935 5.106 5.382 2.024 8.005 4.738 8.005 9.201 0 4.969-3.772 9.293-11.777 9.293-3.267 0-6.671-.92-8.373-1.932l1.243-4.693zM88.519 285.801c-1.196.553-3.542 1.15-6.349 1.15-6.993 0-11.547-4.463-11.547-11.409 0-6.717 4.601-11.961 12.467-11.961 2.07 0 4.187.46 5.475 1.058l-1.012 4.232c-.92-.414-2.254-.874-4.278-.874-4.325 0-6.901 3.175-6.855 7.269 0 4.601 2.99 7.223 6.855 7.223 1.978 0 3.358-.414 4.462-.874l.782 4.186zM91.414 253.827h5.705v13.342h.092a7.584 7.584 0 0 1 2.806-2.576c1.104-.645 2.438-1.012 3.865-1.012 3.818 0 7.821 2.53 7.821 9.707v13.203h-5.659v-12.56c0-3.267-1.196-5.704-4.325-5.704-2.208 0-3.772 1.472-4.37 3.174-.184.46-.23 1.059-.23 1.702v13.388h-5.705v-32.664zM129.043 286.491l-.368-2.484h-.138c-1.38 1.748-3.727 2.99-6.625 2.99-4.508 0-7.039-3.267-7.039-6.671 0-5.658 5.015-8.511 13.295-8.465v-.368c0-1.472-.598-3.91-4.554-3.91-2.208 0-4.509.69-6.027 1.656l-1.104-3.681c1.656-1.012 4.554-1.978 8.097-1.978 7.177 0 9.247 4.554 9.247 9.431v8.097c0 2.024.092 4.003.322 5.383h-5.106zm-.736-10.949c-4.002-.092-7.821.782-7.821 4.187 0 2.208 1.426 3.221 3.22 3.221 2.254 0 3.911-1.473 4.417-3.083.138-.414.184-.874.184-1.242v-3.083zM158.575 279.774c0 2.668.093 4.877.185 6.717h-4.969l-.276-3.404h-.092c-.966 1.61-3.174 3.91-7.177 3.91-4.094 0-7.821-2.438-7.821-9.753v-13.157h5.659v12.191c0 3.727 1.196 6.118 4.187 6.118 2.254 0 3.727-1.61 4.324-3.036a5.118 5.118 0 0 0 .322-1.748v-13.525h5.658v15.687zM163.401 271.539c0-2.944-.092-5.336-.184-7.452h4.969l.275 3.45h.092c1.656-2.53 4.279-3.956 7.684-3.956 5.152 0 9.431 4.416 9.431 11.409 0 8.097-5.106 12.007-10.213 12.007-2.807 0-5.152-1.196-6.303-2.99h-.092v11.594h-5.659v-24.062zm5.66 5.567c0 .552.046 1.058.184 1.563.552 2.301 2.576 3.957 4.969 3.957 3.588 0 5.704-2.99 5.704-7.407 0-3.956-1.932-7.177-5.566-7.177-2.346 0-4.508 1.702-5.061 4.187-.138.46-.229.966-.229 1.426v3.451zM189.023 253.827h5.705v32.664h-5.705v-32.664zM212.162 286.491l-.368-2.484h-.138c-1.38 1.748-3.727 2.99-6.625 2.99-4.508 0-7.039-3.267-7.039-6.671 0-5.658 5.015-8.511 13.296-8.465v-.368c0-1.472-.598-3.91-4.555-3.91-2.208 0-4.508.69-6.026 1.656l-1.104-3.681c1.656-1.012 4.555-1.978 8.098-1.978 7.177 0 9.247 4.554 9.247 9.431v8.097c0 2.024.092 4.003.321 5.383h-5.107zm-.736-10.949c-4.002-.092-7.82.782-7.82 4.187 0 2.208 1.426 3.221 3.221 3.221 2.254 0 3.91-1.473 4.416-3.083.138-.414.184-.874.184-1.242v-3.083zM227.849 257.692v6.395h5.382v4.232h-5.382v9.891c0 2.715.735 4.141 2.898 4.141a8.36 8.36 0 0 0 2.208-.276l.092 4.325c-.828.322-2.3.552-4.095.552-2.07 0-3.818-.69-4.876-1.84-1.196-1.288-1.748-3.313-1.748-6.257V268.32h-3.221v-4.232h3.221v-5.061l5.521-1.335zM234.103 283.225l8.419-10.765a86.909 86.909 0 0 1 3.313-3.772v-.093h-10.903v-4.508h17.804v3.45l-8.234 10.535c-1.104 1.334-2.162 2.622-3.313 3.818v.092h11.823v4.509h-18.908v-3.266z"/></g><path fill="#666" d="M112.66 76.52l5.034 3.96 30.542-6.78-.269-5.101zM118.433 82.561l29.534-6.176-.268 27.924-27.924 7.25z"/><path fill="#C1272D" d="M161.123 48.461l-12.619-5.907 1.343 60.949 12.083 7.788.805-30.878-4.833-2.148 10.741-17.722-.806-11.545zM170.253 48.461l.268 12.082 9.667-13.156zM164.614 47.119l18.528-21.749 17.452 18.258z"/><path fill="#C1272D" d="M181.262 25.37l-18.795 22.017-13.963-6.444L166.494 20z"/><path fill="#080828" d="M182.604 46.85l20.944 7.518-23.36 30.878-19.601-8.056zM205.158 55.711l-22.016 28.997 42.959-6.98zM190.928 87.931l28.461-5.639-4.029 75.718-27.117 8.054zM164.614 81.218l13.963 6.981 8.861-.268-1.612 41.349-9.934-6.713-12.083 1.88z"/><path fill="#C1272D" d="M186.095 46.582l12.887-.538.27 5.639z"/><g><path d="M107.813 146.732l.195 38.664L98 178.416v-37.591zM111 147.806v37.59l73-18.794v-34.906zM101.517 139.751l8.86 5.639 72.227-15.573-8.861-5.102z"/><path fill="#080828" d="M115.479 134.65L99.1 138.677l-38.127-24.97 15.841-3.223zM60.168 115.586l.268 31.415 37.053 29.267.269-35.98z"/><path fill="#333" d="M58 114.512v31.146l-27.646-20.943-1.884-31.146zM30.095 92.495l13.963-1.879 32.22 18.795-16.379 3.49z"/><path fill="#C1272D" d="M59.899 64.571l22.018-28.73-11.814-5.101L49.16 58.396zM82.454 37.184L61.51 64.571l46.182-6.981zM56 64.302l4.232 2.417 9.365-.805.451 36.247L56 94.643zM71.713 65.645l.806 36.785 30.877 23.091-2.148-64.709z"/><path d="M47.764 89.628l5.228-.95-.475 4.99zM104.202 79.07l.537 5.37 11.277-3.758-5.101-4.028zM104.202 86.32l12.351-3.222.805 28.461-12.351 2.953zM220 117.734v9.129l56.215-16.915-11.059-5.37zM219.926 129.011l56.922-17.452-.806 24.702-57.459 19.869z"/><path fill="gray" d="M263.96 102.966l-12.083 3.222-31.414-15.572.267-7.787zM220.194 93.032l-1.074 22.286 29.267-8.324z"/></g></g></switch></svg>