<?xml version="1.0" encoding="UTF-8" standalone="no"?>
<!-- Generator: Adobe Illustrator 16.0.3, SVG Export Plug-In . SVG Version: 6.00 Build 0)  -->

<svg
   xmlns:dc="http://purl.org/dc/elements/1.1/"
   xmlns:cc="http://creativecommons.org/ns#"
   xmlns:rdf="http://www.w3.org/1999/02/22-rdf-syntax-ns#"
   xmlns:svg="http://www.w3.org/2000/svg"
   xmlns="http://www.w3.org/2000/svg"
   xmlns:sodipodi="http://sodipodi.sourceforge.net/DTD/sodipodi-0.dtd"
   xmlns:inkscape="http://www.inkscape.org/namespaces/inkscape"
   version="1.1"
   id="Ebene_1"
   x="0px"
   y="0px"
   width="60px"
   height="60px"
   viewBox="0 0 60 60"
   style="enable-background:new 0 0 60 60;"
   xml:space="preserve"
   sodipodi:docname="visual_qr_perfektionismus_de.svg"
   inkscape:version="0.92.4 (5da689c313, 2019-01-14)"><metadata
   id="metadata81"><rdf:RDF><cc:Work
       rdf:about=""><dc:format>image/svg+xml</dc:format><dc:type
         rdf:resource="http://purl.org/dc/dcmitype/StillImage" /><dc:title></dc:title></cc:Work></rdf:RDF></metadata><defs
   id="defs79" /><sodipodi:namedview
   pagecolor="#ffffff"
   bordercolor="#666666"
   borderopacity="1"
   objecttolerance="10"
   gridtolerance="10"
   guidetolerance="10"
   inkscape:pageopacity="0"
   inkscape:pageshadow="2"
   inkscape:window-width="731"
   inkscape:window-height="480"
   id="namedview77"
   showgrid="false"
   inkscape:zoom="3.9333333"
   inkscape:cx="30"
   inkscape:cy="30"
   inkscape:window-x="0"
   inkscape:window-y="0"
   inkscape:window-maximized="0"
   inkscape:current-layer="Ebene_1" />
<rect
   style="fill:#A0B983;"
   width="60"
   height="60"
   id="rect2" />
<g
   id="g36">
	<rect
   y="51.115"
   style="fill:none;"
   width="59.665"
   height="8.73"
   id="rect4" />
	<path
   style="fill:#FFFFFF;"
   d="M5.77,51.428c0.309-0.057,0.735-0.099,1.317-0.099c0.63,0,1.093,0.134,1.394,0.386   c0.28,0.23,0.462,0.603,0.462,1.043c0,0.448-0.14,0.819-0.406,1.072c-0.343,0.343-0.882,0.504-1.492,0.504   c-0.161,0-0.308-0.007-0.42-0.028v1.779H5.77V51.428z M6.625,53.627c0.105,0.027,0.245,0.035,0.42,0.035   c0.645,0,1.037-0.315,1.037-0.869c0-0.525-0.364-0.806-0.959-0.806c-0.238,0-0.406,0.021-0.498,0.042V53.627z"
   id="path6" />
	<path
   style="fill:#FFFFFF;"
   d="M10.083,54.621c0.021,0.616,0.504,0.883,1.05,0.883c0.399,0,0.687-0.057,0.946-0.154l0.126,0.596   c-0.294,0.118-0.701,0.21-1.191,0.21c-1.106,0-1.758-0.68-1.758-1.724c0-0.945,0.574-1.835,1.667-1.835   c1.106,0,1.471,0.911,1.471,1.66c0,0.161-0.014,0.287-0.028,0.364H10.083z M11.582,54.019c0.007-0.314-0.133-0.833-0.708-0.833   c-0.532,0-0.756,0.483-0.791,0.833H11.582z"
   id="path8" />
	<path
   style="fill:#FFFFFF;"
   d="M13.085,53.773c0-0.462-0.007-0.791-0.028-1.1h0.75l0.028,0.651h0.028   c0.168-0.483,0.567-0.729,0.932-0.729c0.084,0,0.133,0.008,0.203,0.021v0.813c-0.07-0.014-0.147-0.028-0.252-0.028   c-0.413,0-0.693,0.267-0.771,0.651c-0.014,0.077-0.028,0.168-0.028,0.267v1.765h-0.861V53.773z"
   id="path10" />
	<path
   style="fill:#FFFFFF;"
   d="M15.871,56.085v-2.767h-0.462v-0.645h0.462v-0.146c0-0.441,0.119-0.883,0.414-1.163   c0.252-0.238,0.595-0.329,0.889-0.329c0.231,0,0.414,0.035,0.554,0.084l-0.063,0.665c-0.091-0.034-0.21-0.063-0.364-0.063   c-0.427,0-0.575,0.357-0.575,0.777v0.175h0.75v0.645h-0.742v2.767H15.871z"
   id="path12" />
	<path
   style="fill:#FFFFFF;"
   d="M18.539,54.621c0.021,0.616,0.504,0.883,1.05,0.883c0.399,0,0.687-0.057,0.946-0.154l0.126,0.596   c-0.294,0.118-0.701,0.21-1.191,0.21c-1.106,0-1.758-0.68-1.758-1.724c0-0.945,0.574-1.835,1.667-1.835   c1.106,0,1.471,0.911,1.471,1.66c0,0.161-0.014,0.287-0.028,0.364H18.539z M20.037,54.019c0.007-0.314-0.133-0.833-0.708-0.833   c-0.532,0-0.756,0.483-0.791,0.833H20.037z"
   id="path14" />
	<path
   style="fill:#FFFFFF;"
   d="M22.402,54.173h0.014c0.084-0.133,0.182-0.28,0.273-0.399l0.827-1.1h1.036l-1.26,1.395l1.442,2.017   h-1.057l-0.981-1.506l-0.294,0.343v1.163h-0.861v-4.973h0.861V54.173z"
   id="path16" />
	<path
   style="fill:#FFFFFF;"
   d="M26.091,51.7v0.974h0.819v0.645h-0.819v1.506c0,0.413,0.112,0.631,0.441,0.631   c0.147,0,0.259-0.021,0.336-0.043l0.014,0.659c-0.126,0.049-0.35,0.084-0.624,0.084c-0.315,0-0.581-0.105-0.742-0.28   c-0.182-0.196-0.266-0.505-0.266-0.953v-1.604h-0.49v-0.645h0.49v-0.771L26.091,51.7z"
   id="path18" />
	<path
   style="fill:#FFFFFF;"
   d="M28.478,51.722c0,0.259-0.188,0.462-0.49,0.462c-0.287,0-0.477-0.203-0.477-0.462   c0-0.267,0.196-0.47,0.483-0.47C28.29,51.252,28.471,51.455,28.478,51.722z M27.561,56.085v-3.411h0.868v3.411H27.561z"
   id="path20" />
	<path
   style="fill:#FFFFFF;"
   d="M32.596,54.348c0,1.254-0.883,1.814-1.751,1.814c-0.967,0-1.709-0.665-1.709-1.758   c0-1.121,0.735-1.808,1.765-1.808C31.916,52.597,32.596,53.312,32.596,54.348z M30.025,54.383c0,0.658,0.322,1.156,0.848,1.156   c0.491,0,0.833-0.483,0.833-1.17c0-0.532-0.238-1.142-0.826-1.142C30.27,53.228,30.025,53.815,30.025,54.383z"
   id="path22" />
	<path
   style="fill:#FFFFFF;"
   d="M33.301,53.689c0-0.392-0.008-0.721-0.027-1.016h0.756l0.041,0.512h0.021   c0.146-0.267,0.518-0.589,1.086-0.589c0.596,0,1.211,0.386,1.211,1.464v2.024h-0.861v-1.926c0-0.49-0.182-0.861-0.65-0.861   c-0.344,0-0.582,0.245-0.672,0.504c-0.029,0.077-0.035,0.182-0.035,0.28v2.003h-0.869V53.689z"
   id="path24" />
	<path
   style="fill:#FFFFFF;"
   d="M38.223,51.722c0,0.259-0.189,0.462-0.49,0.462c-0.287,0-0.477-0.203-0.477-0.462   c0-0.267,0.195-0.47,0.482-0.47C38.033,51.252,38.215,51.455,38.223,51.722z M37.305,56.085v-3.411h0.869v3.411H37.305z"
   id="path26" />
	<path
   style="fill:#FFFFFF;"
   d="M39.055,55.294c0.195,0.118,0.566,0.245,0.875,0.245c0.379,0,0.547-0.154,0.547-0.379   c0-0.23-0.141-0.35-0.561-0.497c-0.666-0.231-0.945-0.595-0.939-0.994c0-0.603,0.498-1.072,1.289-1.072   c0.379,0,0.707,0.099,0.904,0.203l-0.168,0.609c-0.148-0.084-0.42-0.195-0.723-0.195c-0.307,0-0.475,0.146-0.475,0.356   c0,0.218,0.16,0.322,0.594,0.477c0.617,0.224,0.904,0.539,0.912,1.044c0,0.616-0.484,1.064-1.387,1.064   c-0.414,0-0.785-0.099-1.037-0.238L39.055,55.294z"
   id="path28" />
	<path
   style="fill:#FFFFFF;"
   d="M42.016,53.689c0-0.392-0.008-0.721-0.027-1.016h0.742l0.035,0.505h0.02   c0.168-0.267,0.477-0.582,1.051-0.582c0.449,0,0.799,0.253,0.945,0.631h0.016c0.117-0.189,0.258-0.329,0.42-0.428   c0.189-0.133,0.406-0.203,0.686-0.203c0.568,0,1.143,0.386,1.143,1.479v2.01h-0.842v-1.884c0-0.567-0.195-0.903-0.609-0.903   c-0.293,0-0.51,0.21-0.602,0.455c-0.021,0.084-0.043,0.188-0.043,0.287v2.045h-0.84V54.11c0-0.477-0.189-0.813-0.588-0.813   c-0.322,0-0.539,0.252-0.617,0.49c-0.035,0.084-0.049,0.182-0.049,0.28v2.017h-0.84V53.689z"
   id="path30" />
	<path
   style="fill:#FFFFFF;"
   d="M51.004,55.063c0,0.406,0.016,0.742,0.029,1.022h-0.758l-0.041-0.519h-0.014   c-0.148,0.245-0.484,0.596-1.094,0.596c-0.623,0-1.189-0.371-1.189-1.485v-2.003h0.861v1.856c0,0.567,0.182,0.932,0.637,0.932   c0.344,0,0.568-0.245,0.658-0.463c0.029-0.077,0.049-0.168,0.049-0.266v-2.06h0.861V55.063z"
   id="path32" />
	<path
   style="fill:#FFFFFF;"
   d="M51.891,55.294c0.197,0.118,0.568,0.245,0.877,0.245c0.377,0,0.545-0.154,0.545-0.379   c0-0.23-0.139-0.35-0.561-0.497c-0.664-0.231-0.945-0.595-0.938-0.994c0-0.603,0.498-1.072,1.289-1.072   c0.377,0,0.707,0.099,0.902,0.203l-0.168,0.609c-0.146-0.084-0.42-0.195-0.721-0.195c-0.309,0-0.477,0.146-0.477,0.356   c0,0.218,0.162,0.322,0.596,0.477c0.615,0.224,0.902,0.539,0.91,1.044c0,0.616-0.482,1.064-1.387,1.064   c-0.414,0-0.785-0.099-1.037-0.238L51.891,55.294z"
   id="path34" />
</g>
<g
   id="g41"
   transform="translate(-7.561529,-21.467778)">
	<g
   id="Bild"
   transform="translate(8.6,22.5)">
		
			<sodipodi:namedview
   units="mm"
   borderopacity="1.0"
   bordercolor="#666666"
   pagecolor="#ffffff"
   showgrid="false"
   inkscape:cy="140.10525"
   inkscape:cx="100.8875"
   inkscape:zoom="1.4"
   showguides="true"
   id="base"
   inkscape:pageopacity="0.0"
   inkscape:pageshadow="2"
   inkscape:window-width="667"
   inkscape:window-height="700"
   inkscape:window-x="0"
   inkscape:window-y="0"
   inkscape:window-maximized="1"
   inkscape:current-layer="layer1"
   inkscape:guide-bbox="true"
   inkscape:document-units="mm">
			<sodipodi:guide
   orientation="1,0"
   position="191.33858,0"
   id="guide21487" />
			<sodipodi:guide
   orientation="0,1"
   position="0,304.72441"
   id="guide21489" />
			<sodipodi:guide
   orientation="0,1"
   position="0,322.44094"
   id="guide26097" />
		</sodipodi:namedview>
		<g
   id="layer1"
   transform="translate(0,-910.62992)"
   inkscape:label="Ebene 1"
   inkscape:groupmode="layer">
			<path
   id="path5524-7"
   inkscape:connector-curvature="0"
   style="fill:#FFFFFF;"
   d="M38.254,913.247     c-3.568,0-6.817,0.844-9.217,2.248c-2.4,1.404-4.007,3.432-4.007,5.777c0,2.344,1.606,4.372,4.007,5.775     c2.4,1.403,5.649,2.248,9.217,2.248c3.564,0,6.804-0.844,9.201-2.248c2.402-1.403,4.007-3.432,4.007-5.775     c0-2.345-1.604-4.373-4.007-5.777C45.057,914.091,41.818,913.247,38.254,913.247z M38.254,914.648     c3.344,0,6.37,0.804,8.501,2.053c2.136,1.247,3.32,2.87,3.32,4.571c0,1.7-1.185,3.323-3.32,4.57     c-2.131,1.248-5.157,2.052-8.501,2.052c-3.35,0-6.37-0.804-8.506-2.052c-2.133-1.248-3.329-2.871-3.329-4.57     c0-1.701,1.196-3.324,3.329-4.571C31.883,915.452,34.904,914.648,38.254,914.648z M37.589,915.569l-0.014,1.868l-0.022,5.222     h-3.935h-0.1c0,2.179,1.754,3.932,3.935,3.932h2.358c2.179,0,3.935-1.753,3.935-3.932h-4.535v-1.229h2.664h2.137l-1.582-1.437     l-3.468-3.171L37.589,915.569L37.589,915.569z M39.69,919.733l0.05,0.05h-0.05V919.733z M9.287,923.776l-0.982,0.985l3.711,3.71     l-4.903,4.904c-0.051,0.046-0.099,0.093-0.147,0.147l-0.049,0.05c-0.044,0.025-0.074,0.07-0.086,0.121     c-0.223,0.311-0.368,0.686-0.368,1.094c0,1.041,0.852,1.893,1.893,1.893c0.766,0,1.427-0.458,1.721-1.118     c0.088,0.196,0.22,0.374,0.368,0.528l-2.139,2.139l0.982,0.982l2.532-2.532c0.806-0.009,1.487-0.532,1.746-1.253     c0.265,0.727,0.953,1.253,1.768,1.253c0.817,0,1.51-0.524,1.771-1.253c0.265,0.727,0.953,1.253,1.768,1.253     c0.345,0,0.67-0.107,0.947-0.27c0.038,0.002,0.078-0.005,0.11-0.024l2.814,2.826l0.996-0.982l-2.828-2.828l4.707-4.705     c0.009-0.004,0.016-0.009,0.025-0.014l0.025-0.011c0.013-0.012,0.027-0.023,0.036-0.039l0.135-0.147     c0.02-0.024,0.043-0.05,0.061-0.075c0.012-0.014,0.019-0.03,0.025-0.047c0.243-0.351,0.371-0.786,0.332-1.242     c-0.089-1.037-1.002-1.809-2.04-1.721c-0.326,0.029-0.62,0.149-0.872,0.32c-0.025,0-0.051,0.005-0.075,0.011     c-0.034,0.01-0.061,0.027-0.086,0.05l-0.725,0.725c-0.115-0.38-0.301-0.703-0.579-0.921c-0.191-0.153-0.425-0.249-0.689-0.283     l2.546-2.543l-0.996-0.985l-4.079,4.082c-0.077-0.102-0.162-0.193-0.26-0.271c-0.308-0.244-0.722-0.339-1.19-0.283     c-0.416,0.051-0.788,0.226-1.071,0.492c-0.036,0.025-0.063,0.066-0.072,0.11l-0.578,0.565c-0.116-0.365-0.298-0.675-0.565-0.885     c-0.308-0.244-0.722-0.339-1.192-0.283c-0.254,0.031-0.479,0.117-0.689,0.233L9.287,923.776z M14.055,927.672     c0.256,0.015,0.46,0.103,0.628,0.235c0.223,0.176,0.384,0.457,0.479,0.835c0.003,0.013,0.008,0.024,0.012,0.038l-0.441,0.442     l-1.403-1.403c0.141-0.066,0.291-0.113,0.457-0.133C13.882,927.673,13.97,927.668,14.055,927.672z M17.533,927.672     c0.255,0.015,0.459,0.103,0.628,0.235c0.079,0.064,0.155,0.143,0.22,0.233l-2.359,2.371l-1.007-1.007l1.461-1.475     c0.004-0.004,0.009-0.009,0.014-0.013c0.213-0.176,0.478-0.294,0.772-0.331C17.36,927.673,17.448,927.668,17.533,927.672     L17.533,927.672z M21.011,927.672c0.253,0.015,0.46,0.103,0.625,0.235c0.223,0.176,0.387,0.457,0.48,0.835     c0.006,0.026,0.021,0.052,0.038,0.074l-3.908,3.921l-1.242-1.242l3.811-3.809C20.883,927.68,20.95,927.669,21.011,927.672     L21.011,927.672z M24.254,927.797c0.826-0.072,1.553,0.539,1.622,1.362c0.042,0.462-0.135,0.891-0.441,1.192     c-0.015,0.013-0.026,0.024-0.038,0.039l-4.668,4.657c0.011-0.087,0.025-0.171,0.025-0.259c0-1.038-0.84-1.893-1.882-1.893     c-0.089,0-0.171,0.014-0.257,0.025l4.707-4.705c0.031-0.009,0.062-0.026,0.086-0.049     C23.637,927.964,23.925,927.824,24.254,927.797z M12.286,928.742l1.461,1.463l-3.011,3.01c-0.165,0.113-0.293,0.26-0.418,0.417     c-0.014,0.014-0.025,0.031-0.036,0.05c-0.075,0.105-0.155,0.212-0.208,0.333c-0.294-0.66-0.955-1.12-1.721-1.12     c-0.085,0-0.164,0.015-0.246,0.025L12.286,928.742z M44.162,929.627c-1.401,0-2.529,0.596-2.529,1.338     c0,0.743,1.128,1.353,2.529,1.353c1.402,0,2.543-0.61,2.543-1.353C46.705,930.223,45.564,929.627,44.162,929.627z      M14.031,930.487l1.009,1.008l-1.931,1.929c-0.336-0.329-0.806-0.528-1.314-0.528c-0.065,0-0.12,0.006-0.183,0.014     L14.031,930.487L14.031,930.487z M16.022,932.478l1.24,1.252c-0.021,0.04-0.028,0.083-0.023,0.125     c-0.054,0.095-0.098,0.192-0.135,0.294c-0.235-0.655-0.815-1.136-1.525-1.229L16.022,932.478z M8.354,933.29     c0.827,0,1.486,0.67,1.486,1.498c0,0.829-0.66,1.499-1.486,1.499c-0.827,0-1.5-0.67-1.5-1.499     C6.855,933.961,7.527,933.29,8.354,933.29z M11.794,933.29c0.402,0,0.766,0.159,1.032,0.417l-2.113,2.112     c-0.257-0.267-0.418-0.63-0.418-1.032c0-0.315,0.103-0.605,0.27-0.847c0.015-0.008,0.026-0.014,0.038-0.025l0.355-0.368     C11.197,933.385,11.484,933.29,11.794,933.29z M15.333,933.29c0.829,0,1.489,0.67,1.489,1.498c0,0.829-0.66,1.499-1.489,1.499     c-0.827,0-1.5-0.67-1.5-1.499c0-0.046,0.009-0.091,0.014-0.135l1.351-1.351C15.244,933.296,15.286,933.29,15.333,933.29     L15.333,933.29z M18.799,933.29c0.024-0.001,0.047,0,0.073,0c0.828,0,1.487,0.67,1.487,1.498c0,0.021,0.001,0.041,0,0.063     L18.799,933.29z M41.533,933.559c-1.014,0-1.843,0.555-1.843,1.242c0,0.686,0.829,1.253,1.843,1.253     c1.015,0,1.829-0.567,1.829-1.253C43.362,934.114,42.547,933.559,41.533,933.559z M17.583,934.051l2.028,2.028     c-0.219,0.124-0.468,0.207-0.739,0.207c-0.827,0-1.5-0.67-1.5-1.499C17.373,934.52,17.459,934.27,17.583,934.051z      M13.183,935.316c-0.153,0.405-0.468,0.724-0.872,0.875L13.183,935.316z M36.962,935.465c-0.742,0-1.342,0.465-1.342,1.043     s0.6,1.044,1.342,1.044c0.741,0,1.338-0.466,1.338-1.044S37.703,935.465,36.962,935.465z M29.955,935.661     c-1.546,0-2.801,1.254-2.801,2.801c0,1.549,1.255,2.801,2.801,2.801c1.548,0,2.805-1.252,2.805-2.801     C32.76,936.916,31.504,935.661,29.955,935.661z M26.712,941.791v0.027c-0.09-0.009-0.188-0.014-0.282-0.014     c-0.112,0-0.223-0.012-0.332,0c-1.371,0.141-2.477,1.146-2.801,2.457c-0.08,0.182-0.125,0.37-0.125,0.579v7.272     c0,0.819,0.658,1.477,1.475,1.477c0.817,0,1.475-0.657,1.475-1.477v-7.272c0-0.029-0.009-0.059-0.011-0.086h0.601v5.394     c-0.001,0.022,0,0.039,0,0.063v4.265c0,0.815,0.658,1.473,1.475,1.473h3.54c0.817,0,1.476-0.657,1.476-1.473v-4.265     c0-0.023-0.011-0.039-0.012-0.063h0.012v-5.394h0.588c0,0.014,0,0.021,0,0.036v7.322c0,0.819,0.658,1.477,1.478,1.477     c0.815,0,1.473-0.657,1.473-1.477v-7.322c0-0.203-0.049-0.402-0.122-0.579c-0.37-1.384-1.617-2.407-3.121-2.407     c-0.101,0-0.2-0.006-0.295,0v-0.014H26.712L26.712,941.791z" />
		</g>
	</g>
</g>
<g
   id="g46">
</g>
<g
   id="g48">
</g>
<g
   id="g50">
</g>
<g
   id="g52">
</g>
<g
   id="g54">
</g>
<g
   id="g56">
</g>
<g
   id="g58">
</g>
<g
   id="g60">
</g>
<g
   id="g62">
</g>
<g
   id="g64">
</g>
<g
   id="g66">
</g>
<g
   id="g68">
</g>
<g
   id="g70">
</g>
<g
   id="g72">
</g>
<g
   id="g74">
</g>
</svg>