<?xml version="1.0" encoding="utf-8"?>
<!-- Generator: Adobe Illustrator 16.0.3, SVG Export Plug-In . SVG Version: 6.00 Build 0)  -->
<!DOCTYPE svg PUBLIC "-//W3C//DTD SVG 1.1//EN" "http://www.w3.org/Graphics/SVG/1.1/DTD/svg11.dtd" [
	<!ENTITY ns_extend "http://ns.adobe.com/Extensibility/1.0/">
	<!ENTITY ns_ai "http://ns.adobe.com/AdobeIllustrator/10.0/">
	<!ENTITY ns_graphs "http://ns.adobe.com/Graphs/1.0/">
	<!ENTITY ns_vars "http://ns.adobe.com/Variables/1.0/">
	<!ENTITY ns_imrep "http://ns.adobe.com/ImageReplacement/1.0/">
	<!ENTITY ns_sfw "http://ns.adobe.com/SaveForWeb/1.0/">
	<!ENTITY ns_custom "http://ns.adobe.com/GenericCustomNamespace/1.0/">
	<!ENTITY ns_adobe_xpath "http://ns.adobe.com/XPath/1.0/">
]>
<svg version="1.1" id="Ebene_1" xmlns:x="&ns_extend;" xmlns:i="&ns_ai;" xmlns:graph="&ns_graphs;"
	 xmlns="http://www.w3.org/2000/svg" xmlns:xlink="http://www.w3.org/1999/xlink" x="0px" y="0px" width="300px" height="300px"
	 viewBox="0 0 300 300" enable-background="new 0 0 300 300" xml:space="preserve">
<metadata>
	<sfw  xmlns="&ns_sfw;">
		<slices></slices>
		<sliceSourceBounds  height="309.582" width="300" x="-50.5" y="-57.082" bottomLeftOrigin="true"></sliceSourceBounds>
	</sfw>
</metadata>
<path fill="#C18C2F" d="M228,298H72c-39.604,0-72-16.9-72-56.5V58C0,18.4,32.397-2,72-2h156c39.601,0,72,20.9,72,60.5V242
	C300,281.6,267.599,298,228,298z"/>
<rect x="0.758" y="228.086" fill="none" width="298.483" height="79.496"/>
<g enable-background="new    ">
	<path fill="#FFFFFF" d="M30.722,257.077c1.872,1.152,4.608,2.112,7.489,2.112c4.272,0,6.769-2.256,6.769-5.521
		c0-3.024-1.728-4.752-6.097-6.433c-5.28-1.872-8.544-4.608-8.544-9.168c0-5.041,4.176-8.785,10.465-8.785
		c3.312,0,5.712,0.768,7.152,1.584l-1.152,3.408c-1.056-0.576-3.216-1.536-6.145-1.536c-4.417,0-6.097,2.641-6.097,4.849
		c0,3.024,1.968,4.513,6.433,6.24c5.472,2.112,8.257,4.753,8.257,9.505c0,4.993-3.696,9.313-11.329,9.313
		c-3.12,0-6.529-0.912-8.257-2.064L30.722,257.077z"/>
	<path fill="#FFFFFF" d="M55.97,238.932l5.088,13.729c0.528,1.536,1.104,3.36,1.488,4.753h0.096
		c0.432-1.393,0.912-3.169,1.488-4.849l4.608-13.634h4.464l-6.336,16.562c-3.024,7.969-5.088,12.05-7.969,14.546
		c-2.064,1.824-4.128,2.544-5.185,2.736l-1.056-3.553c1.056-0.336,2.448-1.008,3.696-2.064c1.152-0.912,2.592-2.544,3.552-4.704
		c0.192-0.432,0.336-0.769,0.336-1.008c0-0.24-0.096-0.576-0.288-1.104l-8.593-21.41H55.97z"/>
	<path fill="#FFFFFF" d="M77.042,245.221c0-2.4-0.048-4.368-0.192-6.289h3.744l0.24,3.841h0.096c1.152-2.208,3.84-4.368,7.681-4.368
		c3.216,0,8.209,1.92,8.209,9.889v13.873h-4.225v-13.394c0-3.744-1.392-6.864-5.376-6.864c-2.784,0-4.944,1.968-5.665,4.32
		c-0.192,0.528-0.288,1.248-0.288,1.969v13.969h-4.224V245.221z"/>
	<path fill="#FFFFFF" d="M106.033,251.317c0.096,5.712,3.744,8.064,7.969,8.064c3.024,0,4.849-0.528,6.433-1.2l0.72,3.024
		c-1.488,0.672-4.033,1.44-7.729,1.44c-7.152,0-11.425-4.705-11.425-11.714c0-7.008,4.128-12.528,10.897-12.528
		c7.584,0,9.601,6.672,9.601,10.944c0,0.864-0.096,1.536-0.144,1.969H106.033z M118.419,248.293
		c0.048-2.688-1.104-6.865-5.856-6.865c-4.272,0-6.145,3.937-6.481,6.865H118.419z"/>
	<path fill="#FFFFFF" d="M131.906,249.589h0.096c0.576-0.816,1.393-1.824,2.064-2.641l6.816-8.017h5.089l-8.977,9.553l10.225,13.682
		h-5.137l-8.017-11.137l-2.16,2.4v8.736h-4.177v-34.083h4.177V249.589z"/>
	<path fill="#FFFFFF" d="M170.307,228.083v28.082c0,2.064,0.048,4.417,0.191,6.001h-3.792l-0.192-4.032h-0.096
		c-1.296,2.592-4.128,4.561-7.921,4.561c-5.616,0-9.937-4.753-9.937-11.81c-0.048-7.729,4.752-12.48,10.417-12.48
		c3.552,0,5.952,1.68,7.009,3.552h0.096v-13.873H170.307z M166.082,248.389c0-0.528-0.048-1.248-0.192-1.776
		c-0.624-2.688-2.928-4.896-6.096-4.896c-4.369,0-6.961,3.841-6.961,8.978c0,4.704,2.304,8.593,6.864,8.593
		c2.832,0,5.425-1.872,6.192-5.041c0.145-0.576,0.192-1.152,0.192-1.824V248.389z"/>
	<path fill="#FFFFFF" d="M198.338,250.357c0,8.593-5.953,12.337-11.569,12.337c-6.288,0-11.137-4.608-11.137-11.953
		c0-7.776,5.088-12.337,11.521-12.337C193.825,238.404,198.338,243.252,198.338,250.357z M179.905,250.597
		c0,5.089,2.928,8.929,7.057,8.929c4.032,0,7.057-3.792,7.057-9.024c0-3.937-1.969-8.929-6.961-8.929
		S179.905,246.181,179.905,250.597z"/>
	<path fill="#FFFFFF" d="M220.225,261.302c-1.104,0.576-3.552,1.345-6.672,1.345c-7.009,0-11.569-4.753-11.569-11.857
		c0-7.152,4.896-12.337,12.481-12.337c2.496,0,4.704,0.624,5.856,1.2l-0.961,3.264c-1.008-0.576-2.592-1.104-4.896-1.104
		c-5.329,0-8.209,3.937-8.209,8.784c0,5.377,3.456,8.689,8.064,8.689c2.4,0,3.984-0.624,5.185-1.152L220.225,261.302z"/>
	<path fill="#FFFFFF" d="M225.167,228.083h4.225v14.497h0.096c0.673-1.2,1.729-2.256,3.024-2.976c1.248-0.721,2.736-1.2,4.32-1.2
		c3.121,0,8.113,1.92,8.113,9.937v13.825h-4.225v-13.345c0-3.745-1.392-6.913-5.376-6.913c-2.736,0-4.896,1.92-5.665,4.225
		c-0.24,0.576-0.288,1.2-0.288,2.016v14.018h-4.225V228.083z"/>
	<path fill="#FFFFFF" d="M254.16,251.317c0.096,5.712,3.744,8.064,7.969,8.064c3.024,0,4.849-0.528,6.433-1.2l0.72,3.024
		c-1.488,0.672-4.032,1.44-7.729,1.44c-7.152,0-11.425-4.705-11.425-11.714c0-7.008,4.128-12.528,10.896-12.528
		c7.585,0,9.602,6.672,9.602,10.944c0,0.864-0.097,1.536-0.145,1.969H254.16z M266.545,248.293c0.049-2.688-1.104-6.865-5.856-6.865
		c-4.272,0-6.145,3.937-6.48,6.865H266.545z"/>
</g>
<g>
	<g>
		<path opacity="0.4" fill="#FFFFFF" enable-background="new    " d="M148.684,23.5c-46.208,0-83.667,37.459-83.667,83.666
			c0,20.148,11.929,47.424,11.929,47.424l-25.499,35.998l46.047-17.266c14.149,10.967,31.9,17.512,51.19,17.512
			c46.207,0,83.666-37.459,83.666-83.668C232.35,60.959,194.891,23.5,148.684,23.5z"/>
	</g>
	<path fill="#FFFFFF" d="M220.462,190.305l-15.866-48.244h-47.485l-15.425,48.244h-27.448L167.14,29.492h28.283l53.131,160.813
		H220.462z M198.183,119.159l-12.924-39.241c-1.765-5.353-3.219-10.441-4.524-15.361c-1.433,5.408-2.841,10.348-4.284,15.061
		l-12.956,39.542L198.183,119.159L198.183,119.159z"/>
</g>
</svg>
