<?xml version="1.0" encoding="UTF-8" standalone="no"?>
<svg
   xmlns:dc="http://purl.org/dc/elements/1.1/"
   xmlns:cc="http://creativecommons.org/ns#"
   xmlns:rdf="http://www.w3.org/1999/02/22-rdf-syntax-ns#"
   xmlns:svg="http://www.w3.org/2000/svg"
   xmlns="http://www.w3.org/2000/svg"
   viewBox="0 0 375 375"
   height="375"
   width="375"
   xml:space="preserve"
   version="1.1"
   id="svg2"><metadata
     id="metadata8"><rdf:RDF><cc:Work
         rdf:about=""><dc:format>image/svg+xml</dc:format><dc:type
           rdf:resource="http://purl.org/dc/dcmitype/StillImage" /></cc:Work></rdf:RDF></metadata><defs
     id="defs6" /><g
     transform="matrix(1.25,0,0,-1.25,0,375)"
     id="g10"><g
       transform="scale(0.1,0.1)"
       id="g12"><path
         id="path14"
         style="fill:#91c4ab;fill-opacity:1;fill-rule:nonzero;stroke:none"
         d="m 3000,529.785 c 0,-67.64 0,-529.78890625 -715,-529.78890625 l -1625,0 C 35,-0.00390625 0,472.145 0,539.785 L 0,2399.77 c 0,545.02 592.352,600.02 660,600.02 l 1615,0.28 c 67.65,0 725,-0.28 725,-600.3" /><path
         id="path16"
         style="fill:#012b16;fill-opacity:1;fill-rule:nonzero;stroke:none"
         d="m 846.109,999.719 0,-132.453 -0.953,0 c -10.562,17.281 -33.593,30.718 -65.75,30.718 -56.14,0 -105.093,-46.546 -104.609,-124.781 0,-71.969 44.141,-119.484 99.812,-119.484 34.079,0 62.391,16.312 76.297,42.234 l 0.969,0 2.391,-36.953 52.797,0 c -0.969,15.828 -1.922,41.75 -1.922,65.75 l 0,274.969 -59.032,0 z m 0,-239.469 c 0,-6.234 -0.484,-12 -1.921,-17.266 -5.75,-25.437 -26.875,-41.75 -50.86,-41.75 -37.437,0 -58.547,31.188 -58.547,73.891 0,43.672 21.11,77.266 59.016,77.266 26.875,0 45.594,-18.719 50.875,-41.75 0.953,-4.797 1.437,-10.563 1.437,-15.36 l 0,-35.031" /><path
         id="path18"
         style="fill:#012b16;fill-opacity:1;fill-rule:nonzero;stroke:none"
         d="m 1028.17,659 0,233.703 -59.498,0 0,-233.703 59.498,0 z m -29.748,331.109 c -19.672,0 -33.109,-13.906 -33.109,-32.14 0,-17.766 12.953,-31.672 32.625,-31.672 20.642,0 33.592,13.906 33.592,31.672 -0.47,18.234 -12.95,32.14 -33.108,32.14" /><path
         id="path20"
         style="fill:#012b16;fill-opacity:1;fill-rule:nonzero;stroke:none"
         d="m 1289.86,759.297 c 0.95,5.281 1.92,13.906 1.92,24.953 0,51.344 -24.95,113.734 -100.78,113.734 -74.86,0 -114.2,-60.953 -114.2,-125.734 0,-71.5 44.62,-118.047 120.45,-118.047 33.58,0 61.42,6.235 81.58,14.391 l -8.64,40.797 c -17.75,-6.719 -37.44,-10.563 -64.78,-10.563 -37.44,0 -70.55,18.235 -71.99,60.469 l 156.44,0 z m -156.44,41.266 c 2.39,24 17.75,57.109 54.22,57.109 39.36,0 48.95,-35.516 48.47,-57.109 l -102.69,0" /><path
         id="path22"
         style="fill:#012b16;fill-opacity:1;fill-rule:nonzero;stroke:none"
         d="m 1500.88,892.703 -2.41,-31.203 -0.95,0 c -11.05,19.203 -32.16,36.484 -67.68,36.484 -56.14,0 -106.04,-46.546 -106.04,-123.328 0,-66.234 41.26,-114.218 99.33,-114.218 30.71,0 54.7,13.921 68.14,34.546 l 0.96,0 0,-20.156 c 0,-50.375 -28.79,-70.531 -67.18,-70.531 -28.32,0 -53.27,9.109 -68.14,17.75 l -12.96,-44.625 c 20.16,-12.484 51.83,-18.719 81.58,-18.719 32.16,0 65.74,6.719 90.22,28.313 24.47,22.078 34.55,57.109 34.55,106.062 l 0,132.438 c 0,32.156 0.95,51.343 1.92,67.187 l -51.34,0 z m -9.61,-131.484 c 0,-6.719 -0.96,-14.875 -2.39,-21.125 -6.72,-21.11 -25.93,-35.5 -47.99,-35.5 -36.95,0 -57.11,32.14 -57.11,71.969 0,47.515 24.47,76.312 57.58,76.312 24.95,0 41.75,-16.328 48,-37.922 1.44,-4.797 1.91,-10.547 1.91,-15.828 l 0,-37.906" /><path
         id="path24"
         style="fill:#012b16;fill-opacity:1;fill-rule:nonzero;stroke:none"
         d="m 1811.86,759.297 c 0.95,5.281 1.92,13.906 1.92,24.953 0,51.344 -24.95,113.734 -100.78,113.734 -74.86,0 -114.2,-60.953 -114.2,-125.734 0,-71.5 44.62,-118.047 120.45,-118.047 33.58,0 61.42,6.235 81.58,14.391 l -8.64,40.797 c -17.75,-6.719 -37.44,-10.563 -64.78,-10.563 -37.44,0 -70.55,18.235 -71.99,60.469 l 156.44,0 z m -156.44,41.266 c 2.39,24 17.75,57.109 54.22,57.109 39.36,0 48.95,-35.516 48.47,-57.109 l -102.69,0" /><path
         id="path26"
         style="fill:#012b16;fill-opacity:1;fill-rule:nonzero;stroke:none"
         d="m 1871.75,945.484 0,-52.781 -33.59,0 0,-44.156 33.59,0 0,-109.891 c 0,-30.703 5.75,-51.828 18.23,-65.265 11.04,-11.985 29.27,-19.188 50.86,-19.188 18.72,0 34.08,2.391 42.72,5.75 l -0.97,45.11 c -5.26,-1.438 -12.95,-2.875 -23.03,-2.875 -22.54,0 -30.23,14.875 -30.23,43.187 l 0,103.172 56.15,0 0,44.156 -56.15,0 0,66.703 -57.58,-13.922" /><path
         id="path28"
         style="fill:#012b16;fill-opacity:1;fill-rule:nonzero;stroke:none"
         d="m 2090.17,659 0,233.703 -59.5,0 0,-233.703 59.5,0 z m -29.75,331.109 c -19.67,0 -33.11,-13.906 -33.11,-32.14 0,-17.766 12.96,-31.672 32.63,-31.672 20.64,0 33.59,13.906 33.59,31.672 -0.47,18.234 -12.95,32.14 -33.11,32.14" /><path
         id="path30"
         style="fill:#012b16;fill-opacity:1;fill-rule:nonzero;stroke:none"
         d="m 2317.31,709.859 c -11.51,-4.796 -25.92,-9.109 -46.54,-9.109 -40.32,0 -71.5,27.359 -71.5,75.344 -0.49,42.703 26.39,75.812 71.5,75.812 21.11,0 35.03,-4.797 44.62,-9.109 l 10.56,44.141 c -13.43,6.234 -35.51,11.046 -57.11,11.046 -82.06,0 -130.04,-54.718 -130.04,-124.781 0,-72.453 47.5,-119 120.45,-119 29.27,0 53.73,6.235 66.22,12 l -8.16,43.656" /><path
         id="path32"
         style="fill:#012b16;fill-opacity:1;fill-rule:nonzero;stroke:none"
         d="m 227.281,190.516 c 17.266,-9.594 42.703,-16.313 71.016,-16.313 61.906,0 95.016,30.703 95.016,72.938 -0.485,34.547 -20.157,56.14 -62.391,71.5 -29.75,10.562 -40.781,17.765 -40.781,32.64 0,14.391 11.515,24.469 32.625,24.469 20.64,0 39.359,-7.672 49.437,-13.437 l 11.516,41.75 c -13.438,7.203 -36,13.921 -61.906,13.921 -54.235,0 -88.297,-32.156 -88.297,-73.421 -0.485,-27.36 18.718,-52.313 64.297,-68.141 28.796,-10.078 38.39,-18.25 38.39,-34.078 0,-15.36 -11.515,-25.906 -37.422,-25.906 -21.125,0 -46.547,8.625 -59.984,16.781 l -11.516,-42.703" /><path
         id="path34"
         style="fill:#012b16;fill-opacity:1;fill-rule:nonzero;stroke:none"
         d="m 547.719,417.984 c -70.531,0 -120.922,-47.031 -120.922,-123.812 0,-74.859 50.859,-120.453 117.094,-120.453 59.5,0 119.968,38.39 119.968,124.297 0,71.015 -46.546,119.968 -116.14,119.968 z m -1.438,-43.203 c 40.313,0 56.625,-41.734 56.625,-78.218 0,-47.016 -23.515,-80.125 -57.109,-80.125 -35.984,0 -58.063,34.062 -58.063,79.171 0,38.875 16.797,79.172 58.547,79.172" /><path
         id="path36"
         style="fill:#012b16;fill-opacity:1;fill-rule:nonzero;stroke:none"
         d="m 921.891,412.703 -59.016,0 0,-141.094 c 0,-6.718 -1.437,-12.953 -3.359,-18.234 -6.235,-14.875 -21.594,-31.672 -45.11,-31.672 -31.187,0 -43.672,24.953 -43.672,63.828 l 0,127.172 -59.015,0 0,-137.25 c 0,-76.297 38.859,-101.734 81.578,-101.734 41.75,0 64.781,24 74.859,40.797 l 0.953,0 2.875,-35.516 51.829,0 c -0.954,19.188 -1.922,42.234 -1.922,70.063 l 0,163.64" /><path
         id="path38"
         style="fill:#012b16;fill-opacity:1;fill-rule:nonzero;stroke:none"
         d="m 985.672,179 59.498,0 0,137.25 c 0,6.719 0.49,13.906 2.41,19.188 6.23,17.75 22.55,34.546 46.06,34.546 32.16,0 44.63,-25.421 44.63,-59.015 l 0,-131.969 59.03,0 0,138.688 c 0,73.89 -42.24,100.296 -83.02,100.296 -38.87,0 -64.31,-22.078 -74.39,-40.312 l -1.44,0 -2.87,35.031 -51.83,0 c 1.438,-20.156 1.922,-42.719 1.922,-69.594 l 0,-164.109" /><path
         id="path40"
         style="fill:#012b16;fill-opacity:1;fill-rule:nonzero;stroke:none"
         d="m 1416.11,519.719 0,-132.453 -0.95,0 c -10.57,17.281 -33.6,30.718 -65.75,30.718 -56.14,0 -105.1,-46.546 -104.61,-124.781 0,-71.969 44.14,-119.484 99.81,-119.484 34.08,0 62.39,16.312 76.3,42.234 l 0.97,0 2.39,-36.953 52.79,0 c -0.97,15.828 -1.92,41.75 -1.92,65.75 l 0,274.969 -59.03,0 z m 0,-239.469 c 0,-6.234 -0.48,-12 -1.92,-17.266 -5.75,-25.437 -26.88,-41.75 -50.86,-41.75 -37.44,0 -58.55,31.188 -58.55,73.891 0,43.672 21.11,77.266 59.02,77.266 26.87,0 45.59,-18.719 50.87,-41.75 0.96,-4.797 1.44,-10.563 1.44,-15.36 l 0,-35.031" /><path
         id="path42"
         style="fill:#012b16;fill-opacity:1;fill-rule:nonzero;stroke:none"
         d="m 1835.86,279.297 c 0.95,5.281 1.92,13.906 1.92,24.953 0,51.344 -24.95,113.734 -100.78,113.734 -74.86,0 -114.2,-60.953 -114.2,-125.734 0,-71.5 44.62,-118.047 120.45,-118.047 33.58,0 61.42,6.235 81.58,14.391 l -8.64,40.797 c -17.75,-6.719 -37.44,-10.563 -64.78,-10.563 -37.44,0 -70.55,18.235 -71.99,60.469 l 156.44,0 z m -156.44,41.266 c 2.39,24 17.75,57.109 54.22,57.109 39.36,0 48.95,-35.516 48.47,-57.109 l -102.69,0" /><path
         id="path44"
         style="fill:#012b16;fill-opacity:1;fill-rule:nonzero;stroke:none"
         d="m 2095.86,179 0,189.547 50.39,0 0,44.156 -50.87,0 0,12 c 0,28.781 9.59,53.266 38.87,53.266 11.03,0 18.72,-1.922 25.44,-4.328 l 3.83,45.593 c -9.11,3.36 -21.6,5.75 -37.43,5.75 -20.64,0 -43.67,-6.234 -60.95,-22.546 -20.62,-19.204 -28.78,-49.422 -28.78,-79.657 l 0,-10.078 -85.42,0 0,9.11 c 0,29.281 8.15,51.828 35.03,51.828 7.67,0 15.36,-1.922 21.11,-4.313 l 9.59,43.672 c -7.19,3.359 -19.67,6.719 -32.14,6.719 -29.75,0 -51.36,-9.125 -65.75,-24 -19.19,-19.203 -26.39,-47.031 -26.39,-77.266 l 0,-5.75 -31.67,0 0,-44.156 31.67,0 0,-189.547 59.03,0 0,189.547 84.94,0 0,-189.547 59.5,0" /><path
         id="path46"
         style="fill:#012b16;fill-opacity:1;fill-rule:nonzero;stroke:none"
         d="m 2375.86,279.297 c 0.95,5.281 1.92,13.906 1.92,24.953 0,51.344 -24.95,113.734 -100.78,113.734 -74.86,0 -114.2,-60.953 -114.2,-125.734 0,-71.5 44.62,-118.047 120.45,-118.047 33.58,0 61.42,6.235 81.58,14.391 l -8.64,40.797 c -17.75,-6.719 -37.44,-10.563 -64.78,-10.563 -37.44,0 -70.55,18.235 -71.99,60.469 l 156.44,0 z m -156.44,41.266 c 2.39,24 17.75,57.109 54.22,57.109 39.36,0 48.95,-35.516 48.47,-57.109 l -102.69,0" /><path
         id="path48"
         style="fill:#012b16;fill-opacity:1;fill-rule:nonzero;stroke:none"
         d="m 2589.31,229.859 c -11.51,-4.796 -25.92,-9.109 -46.54,-9.109 -40.32,0 -71.5,27.359 -71.5,75.344 -0.49,42.703 26.39,75.812 71.5,75.812 21.11,0 35.03,-4.797 44.62,-9.109 l 10.56,44.141 c -13.43,6.234 -35.51,11.046 -57.11,11.046 -82.06,0 -130.04,-54.718 -130.04,-124.781 0,-72.453 47.5,-119 120.45,-119 29.27,0 53.73,6.235 66.22,12 l -8.16,43.656" /><path
         id="path50"
         style="fill:#012b16;fill-opacity:1;fill-rule:nonzero;stroke:none"
         d="m 2658.75,465.484 0,-52.781 -33.59,0 0,-44.156 33.59,0 0,-109.891 c 0,-30.703 5.75,-51.828 18.23,-65.265 11.04,-11.985 29.27,-19.188 50.86,-19.188 18.72,0 34.08,2.391 42.72,5.75 l -0.97,45.11 c -5.26,-1.438 -12.95,-2.875 -23.03,-2.875 -22.54,0 -30.23,14.875 -30.23,43.187 l 0,103.172 56.15,0 0,44.156 -56.15,0 0,66.703 -57.58,-13.922" /><path
         id="path52"
         style="fill:#000000;fill-opacity:1;fill-rule:evenodd;stroke:none"
         d="m 290,1120 2410,0 0,1470 -2410,0 0,-1470 z" /><path
         id="path54"
         style="fill:#ffffff;fill-opacity:1;fill-rule:evenodd;stroke:none"
         d="m 410,1230 170,0 0,70 -170,0 0,-70 z" /><path
         id="path56"
         style="fill:#ffffff;fill-opacity:1;fill-rule:evenodd;stroke:none"
         d="m 410,1450 170,0 0,70 -170,0 0,-70 z" /><path
         id="path58"
         style="fill:#ffffff;fill-opacity:1;fill-rule:evenodd;stroke:none"
         d="m 410,1690 170,0 0,70 -170,0 0,-70 z" /><path
         id="path60"
         style="fill:#ffffff;fill-opacity:1;fill-rule:evenodd;stroke:none"
         d="m 410,1910 170,0 0,70 -170,0 0,-70 z" /><path
         id="path62"
         style="fill:#ffffff;fill-opacity:1;fill-rule:evenodd;stroke:none"
         d="m 410,2130 170,0 0,70 -170,0 0,-70 z" /><path
         id="path64"
         style="fill:#ffffff;fill-opacity:1;fill-rule:evenodd;stroke:none"
         d="m 410,2360 170,0 0,70 -170,0 0,-70 z" /><path
         id="path66"
         style="fill:#ffffff;fill-opacity:1;fill-rule:evenodd;stroke:none"
         d="m 2410,1230 170,0 0,70 -170,0 0,-70 z" /><path
         id="path68"
         style="fill:#ffffff;fill-opacity:1;fill-rule:evenodd;stroke:none"
         d="m 2410,1450 170,0 0,70 -170,0 0,-70 z" /><path
         id="path70"
         style="fill:#ffffff;fill-opacity:1;fill-rule:evenodd;stroke:none"
         d="m 2410,1690 170,0 0,70 -170,0 0,-70 z" /><path
         id="path72"
         style="fill:#ffffff;fill-opacity:1;fill-rule:evenodd;stroke:none"
         d="m 2410,1910 170,0 0,70 -170,0 0,-70 z" /><path
         id="path74"
         style="fill:#ffffff;fill-opacity:1;fill-rule:evenodd;stroke:none"
         d="m 2410,2130 170,0 0,70 -170,0 0,-70 z" /><path
         id="path76"
         style="fill:#ffffff;fill-opacity:1;fill-rule:evenodd;stroke:none"
         d="m 2410,2360 170,0 0,70 -170,0 0,-70 z" /><path
         id="path78"
         style="fill:#ffffff;fill-opacity:1;fill-rule:evenodd;stroke:none"
         d="m 680,1290 1630,0 0,1130 -1630,0 0,-1130 z" /><path
         id="path80"
         style="fill:none;stroke:#c1272d;stroke-width:30;stroke-linecap:butt;stroke-linejoin:miter;stroke-miterlimit:10;stroke-dasharray:none;stroke-opacity:1"
         d="m 680,1715 1630,0" /><path
         id="path82"
         style="fill:none;stroke:#c1272d;stroke-width:29;stroke-linecap:butt;stroke-linejoin:miter;stroke-miterlimit:10;stroke-dasharray:none;stroke-opacity:1"
         d="m 1067.21,1711.05 113.69,39.43 16.17,-43.96 84.08,121.14 78.83,-252.78 47.31,806.5 52.54,-1038.06 57.82,952.54 47.31,-778.93 63.06,516.14 47.3,-474.02 84.1,273.88 52.55,-173.8 26.28,110.6 26.28,-84.27 31.53,31.61" /></g></g></svg>