<?xml version="1.0" encoding="utf-8"?>
<!-- Generator: Adobe Illustrator 16.0.3, SVG Export Plug-In . SVG Version: 6.00 Build 0)  -->
<!DOCTYPE svg PUBLIC "-//W3C//DTD SVG 1.1//EN" "http://www.w3.org/Graphics/SVG/1.1/DTD/svg11.dtd" [
	<!ENTITY ns_extend "http://ns.adobe.com/Extensibility/1.0/">
	<!ENTITY ns_ai "http://ns.adobe.com/AdobeIllustrator/10.0/">
	<!ENTITY ns_graphs "http://ns.adobe.com/Graphs/1.0/">
	<!ENTITY ns_vars "http://ns.adobe.com/Variables/1.0/">
	<!ENTITY ns_imrep "http://ns.adobe.com/ImageReplacement/1.0/">
	<!ENTITY ns_sfw "http://ns.adobe.com/SaveForWeb/1.0/">
	<!ENTITY ns_custom "http://ns.adobe.com/GenericCustomNamespace/1.0/">
	<!ENTITY ns_adobe_xpath "http://ns.adobe.com/XPath/1.0/">
]>
<svg version="1.1" id="Ebene_1" xmlns:x="&ns_extend;" xmlns:i="&ns_ai;" xmlns:graph="&ns_graphs;"
	 xmlns="http://www.w3.org/2000/svg" xmlns:xlink="http://www.w3.org/1999/xlink" x="0px" y="0px" width="300px" height="300px"
	 viewBox="0 0 300 300" enable-background="new 0 0 300 300" xml:space="preserve">
<metadata>
	<sfw  xmlns="&ns_sfw;">
		<slices></slices>
		<sliceSourceBounds  height="300" width="300" x="-50.5" y="-49.5" bottomLeftOrigin="true"></sliceSourceBounds>
	</sfw>
</metadata>
<path fill="#6F699B" d="M228,300H72c-39.604,0-72-16.9-72-56.5V60C0,20.4,32.398,0,72,0h156c39.602,0,72,20.9,72,60.5V244
	C300,283.6,267.6,300,228,300z"/>
<g>
	<path fill="none" stroke="#FFFFFF" stroke-width="10" stroke-miterlimit="10" d="M209.016,65.354
		c-15.416-21.072-40.328-34.758-68.437-34.758c-46.808,0-84.746,37.941-84.746,84.746c0,46.803,37.938,84.745,84.746,84.745
		c3.849,0,7.637-0.257,11.349-0.754"/>
	<g>
		<path fill="#FFFFFF" d="M159.629,211.13c-8.116,0-14.423-4.901-16.872-13.112c-3.316-10.504,0.368-24.285,13.854-30.213
			c3.429-1.535,7.179-2.353,10.822-2.353c0.604,0,1.207,0.021,1.808,0.065V73.279l77.93-19.529v114.398
			c0.199,10.146-6.976,20.414-17.439,24.898c-3.52,1.521-6.951,2.286-10.188,2.286c-8.117,0-14.428-4.897-16.873-13.11
			c-3.316-10.508,0.365-24.285,13.854-30.217c3.433-1.535,7.181-2.353,10.824-2.353c0.604,0,1.205,0.022,1.803,0.065V97.9
			l-41.895,11.262v74.777c0.199,10.147-6.973,20.416-17.439,24.898C166.295,210.359,162.865,211.13,159.629,211.13z"/>
		<path fill="#6F699B" d="M244.168,57.595v110.553c0.172,8.756-6.008,18.021-15.621,22.146c-3.217,1.386-6.25,2.044-9.006,2.044
			c-6.801,0-11.922-4.008-13.998-10.972c-3.09-9.784,0.854-21.63,12.188-26.609c3.229-1.444,6.525-2.099,9.617-2.099
			c1.678,0,3.291,0.191,4.803,0.555V93.988l-47.896,12.875v77.079c0.172,8.76-6.008,18.025-15.621,22.146
			c-3.219,1.387-6.25,2.044-9.006,2.044c-6.802,0-11.919-4.007-13.997-10.97c-3.09-9.786,0.854-21.63,12.187-26.609
			c3.229-1.445,6.523-2.1,9.615-2.099c1.678,0,3.295,0.19,4.808,0.555V75.62L244.168,57.595 M250.168,49.906l-7.457,1.869
			L170.781,69.8l-4.538,1.138v4.682v86.856c-3.688,0.155-7.421,1.049-10.875,2.599c-6.65,2.924-11.845,8.135-14.58,14.655
			c-2.554,6.08-2.865,12.895-0.892,19.188c2.858,9.521,10.231,15.207,19.732,15.207c3.646,0,7.477-0.854,11.379-2.529
			c11.529-4.941,19.438-16.33,19.248-27.713V111.46l35.895-9.649v44.871c-3.684,0.159-7.416,1.049-10.873,2.597
			c-6.647,2.923-11.846,8.135-14.582,14.659c-2.551,6.08-2.864,12.895-0.893,19.188c2.859,9.524,10.234,15.211,19.736,15.211
			c3.646,0,7.477-0.854,11.379-2.53c11.526-4.942,19.438-16.334,19.248-27.713v-110.5v-7.687L250.168,49.906L250.168,49.906z"/>
	</g>
	<polyline fill="none" stroke="#FFFFFF" stroke-width="10" stroke-miterlimit="10" points="75.331,171.589 49.832,207.588
		97.83,189.589 	"/>
</g>
<rect x="1" y="230" fill="none" width="298" height="60"/>
<text transform="matrix(1 0 0 1 21.7688 264.0801)" fill="#FFFFFF" font-family="'MyriadPro-Regular'" font-size="48">Paranomasie</text>
</svg>
