<svg xmlns="http://www.w3.org/2000/svg" xmlns:xlink="http://www.w3.org/1999/xlink" width="300" height="300" viewBox="0 0 300 300"><switch><g><symbol id="a" viewBox="-150 -150 300 300.007"><path fill="#CE8E95" d="M150-97.021c0-6.764 0-52.979-71.5-52.979H-84c-62.5 0-66 47.215-66 53.979v186c0 54.5 59.235 60 66 60l161.5.029c6.765 0 72.5-.029 72.5-60.029v-187z"/></symbol><use xlink:href="#a" width="300" height="300.007" x="-150" y="-150" transform="matrix(1 0 0 -1 150 150)" overflow="visible"/><g fill="#26080D"><path d="M96.994 221.657c2.208-.384 5.521-.672 8.929-.672 4.657 0 7.825.768 9.985 2.592 1.776 1.488 2.784 3.745 2.784 6.48 0 4.177-2.832 7.009-5.856 8.113v.144c2.304.864 3.696 3.12 4.513 6.241 1.008 4.032 1.872 7.776 2.544 9.024h-6.096c-.48-.96-1.249-3.601-2.161-7.633-.912-4.225-2.448-5.568-5.808-5.664h-2.977v13.297h-5.856v-31.922zm5.856 14.306h3.504c3.984 0 6.48-2.112 6.48-5.329 0-3.552-2.496-5.185-6.336-5.185-1.872 0-3.072.145-3.648.288v10.226zM128.385 243.547c.144 4.225 3.456 6.049 7.201 6.049 2.736 0 4.704-.384 6.48-1.056l.864 4.08c-2.016.816-4.8 1.44-8.161 1.44-7.584 0-12.049-4.657-12.049-11.81 0-6.48 3.937-12.577 11.425-12.577 7.585 0 10.081 6.24 10.081 11.377 0 1.104-.096 1.969-.192 2.496h-15.649zm10.273-4.128c.048-2.16-.912-5.713-4.849-5.713-3.648 0-5.185 3.313-5.424 5.713h10.273zM170.338 230.202c-.096 1.584-.192 3.504-.192 6.721v13.249c0 4.896-1.008 8.4-3.456 10.608-2.448 2.16-5.809 2.833-9.024 2.833-2.977 0-6.145-.624-8.161-1.872l1.296-4.465c1.488.864 3.984 1.776 6.816 1.776 3.841 0 6.721-2.017 6.721-7.057v-2.017h-.096c-1.344 2.064-3.744 3.457-6.816 3.457-5.809 0-9.937-4.801-9.937-11.426 0-7.681 4.993-12.337 10.609-12.337 3.553 0 5.664 1.729 6.769 3.648h.096l.24-3.12h5.135zm-6.097 9.361c0-.527-.048-1.104-.192-1.584-.624-2.16-2.304-3.792-4.8-3.792-3.313 0-5.761 2.88-5.761 7.633 0 3.984 2.017 7.2 5.713 7.2 2.208 0 4.128-1.44 4.8-3.552.145-.624.24-1.44.24-2.112v-3.793zM180.656 243.547c.144 4.225 3.456 6.049 7.2 6.049 2.736 0 4.705-.384 6.48-1.056l.864 4.08c-2.016.816-4.8 1.44-8.16 1.44-7.585 0-12.05-4.657-12.05-11.81 0-6.48 3.937-12.577 11.426-12.577 7.584 0 10.08 6.24 10.08 11.377 0 1.104-.096 1.969-.191 2.496h-15.649zm10.273-4.128c.048-2.16-.912-5.713-4.848-5.713-3.648 0-5.185 3.313-5.425 5.713h10.273zM201.247 219.497h5.953v34.083h-5.953v-34.083z"/></g><g fill="#FFF"><path d="M66.561 90.901h-.24l-14.88 7.08-3-13.68 20.639-9.6H84.2v77.997H66.561V90.901zM108.681 132.3c0-9.359 5.4-15.839 13.919-19.559v-.36c-7.56-3.84-11.279-10.199-11.279-17.039 0-13.199 11.879-21.959 27.479-21.959 18.239 0 25.799 10.56 25.799 20.039 0 6.72-3.6 13.319-11.279 17.159v.36c7.56 2.879 14.279 9.359 14.279 19.438 0 14.159-11.88 23.64-29.999 23.64-19.799.001-28.919-11.16-28.919-21.719zm40.319-.6c0-6.84-5.04-10.92-12.24-12.84-6 1.681-9.479 6-9.479 11.64-.12 5.64 4.2 10.92 11.04 10.92 6.479 0 10.679-4.2 10.679-9.72zm-20.52-36.959c0 5.28 4.8 8.64 11.04 10.56 4.2-1.199 7.919-5.039 7.919-9.959 0-4.8-2.76-9.6-9.479-9.6-6.24 0-9.48 4.08-9.48 8.999zM234.078 113.341c0 24.119-9.72 40.679-29.639 40.679-20.159 0-29.039-18.119-29.159-40.199 0-22.559 9.6-40.438 29.759-40.438 20.879 0 29.039 18.598 29.039 39.958zm-40.438.479c-.12 17.88 4.2 26.399 11.279 26.399 7.08 0 10.92-8.88 10.92-26.639 0-17.279-3.72-26.399-11.04-26.399-6.72.001-11.279 8.52-11.159 26.639zM277.758 88.021c0 10.32-8.52 17.76-18.359 17.76-10.56 0-18.119-7.8-18.119-17.399-.12-9.96 8.039-17.879 18.239-17.879 10.798 0 18.239 8.039 18.239 17.518zm-26.879.241c0 5.16 3.72 9.12 8.64 9.12 4.919 0 8.52-3.96 8.52-9.24 0-4.68-3-9.239-8.52-9.239-5.281-.001-8.64 4.439-8.64 9.359z"/></g><path fill="none" stroke="#FFF" stroke-width="5" stroke-miterlimit="10" d="M38 107.5h240"/></g></switch></svg>