<svg xmlns="http://www.w3.org/2000/svg" xmlns:xlink="http://www.w3.org/1999/xlink" width="300" height="300" viewBox="0 0 300 300"><switch><g><symbol id="a" viewBox="-150 -150 300 300.015"><path fill="#AEBCC4" d="M150-97.015c0-6.763 0-52.985-71.5-52.985H-84c-62.5 0-66 47.223-66 53.985v186c0 54.5 59.235 60 66 60l161.5.029c6.765 0 72.5-.029 72.5-60.029v-187z"/></symbol><use xlink:href="#a" width="300" height="300.015" x="-150" y="-150" transform="matrix(1 0 0 -1 151 150)" overflow="visible"/><defs><path id="b" d="M231.49 271.225H69.045c-22.026 0-39.882-17.855-39.882-39.882V68.897c0-22.026 17.856-39.882 39.882-39.882H231.49c22.026 0 39.882 17.855 39.882 39.882v162.445c0 22.027-17.855 39.883-39.882 39.883z"/></defs><clipPath id="c"><use xlink:href="#b" overflow="visible"/></clipPath><path clip-path="url(#c)" fill="none" stroke="#FFF" stroke-width="4" stroke-miterlimit="10" d="M284.732 206.015h-269"/><path clip-path="url(#c)" fill="#FFF" d="M143.594 113.571c.284-13.665-5.195-15.224-5.195-15.224s10.1-2.507 10.333-10.667c.333-11.667-8.667-13.667-8.667-13.667s5.743-7.146 1-17c-6.137-12.75-19.333-8.667-19.333-8.667s3.569-10.751-6.342-21.819c-12.204-13.629-24.959-8.467-24.959-8.467s1.43-11.694-9.337-13.767c-12.673-2.44-13.015 4.88-13.015 4.88S61.4 3.77 52.666 10.393c-6.394 4.848-3.834 19.763-3.834 19.763s-7.99-4.581-12.606-.068c-6.704 6.555-.468 18.212-.468 18.212s-13.341-.148-16.424 9.961c-4.045 13.267 6.148 19.252 6.148 19.252s-10.741 1.922-11.5 7.5c-1.235 9.074 3.948 11.672 3.948 11.672s-11.698 1.314-11.698 15.83 15.264 14.413 15.264 14.413-5.514 2.337-2.514 8.337c1.65 3.301 6.5 2.5 6.5 2.5s1 6.25 5.25 7.5c8.144 2.395 10-2.5 10-2.5s1.899 3.235 4.5 3c3.515-.318 4.833-3.583 4.833-3.583s5.167 12.167 13 18.333c17.043 13.417 11.333 16.833 12 45.5.339 14.561-10.782 21.582-10.782 21.582s4.782.751 13.782-1.915c9.333 3 19.698 1.915 19.698 1.915s-7.963-3.902-9.067-16.046c-1.724-18.961-1.81-36.19 2.395-46.464 7.567-18.492 13.603-22.435 13.603-22.435s-.081 2.341 1.338 3.361c2.846 2.045 5.259.803 5.259.803s2.367 4.023 8.021 2.916c3.794-.744 6.205-5.107 6.205-5.107s5.12.501 6.316-4.188c.948-3.718-2.179-6.251-2.179-6.251s5.278.668 7.965-4.16c1.708-3.067.569-6.972.569-6.972s5.266-2.768 5.406-9.483zm-65.195 50.777s-4.417-1.083-11.5-6.5c-.847-.647-1.811-3.743-2.75-8.833-1-5.417-1.25-8-1.25-8s5.75-.417 4.917-5.5c-.399-2.436-1.75-3.167-1.75-3.167s-.113-1.607-.917-3c-.572-.991-1.997-1.386-2-1.75-.009-1.167-2.5-.833-2.5-.833v10.833s-1.928-.67-1.833 2.083c.083 2.417 1.808 2.351 1.833 2.917.237 5.175 1.796 11.49 1.583 11.25-1.346-1.518-4.442-5.022-5.5-6.833-1.575-2.696-2.39-7.668-2.39-7.668s1.556-.499 1.556-2.082c0-1.924-1.243-2.432-1.243-2.432s1.675-.034 2.701-1.63c.563-.875-.542-4.021-.542-4.021s-.021 6.021 4.604 5.396c3.767-.509 3.313-5.125 3.313-5.125s.112 2.404 1.813 3.125c2.604 1.104 3.875.313 3.875.313s2.729 1.375 6.375 9.313c4.87 10.599 1.605 22.144 1.605 22.144zm13.075-23.01c-.099.252-.289.75-.289.75s-1.319-2.587-2.322-5.092c-.73-1.825-1.744-4.28-1.744-4.28l-.698.337s.337 2.706 1.365 5.703c1.077 3.137 2.515 6.195 2.515 6.195s-2.032 9.491-3.137 12.719c-.716 2.092-3.065 7.51-3.065 7.51s-.91-8.495-.623-17.694c.044-1.414.23-8.425.23-8.425s1.384.052 2.116-1.384c.862-1.689-.288-2.535-.288-2.535s.767 0 1.772-1.689c.77-1.293.613-2.742.613-2.742s2.309 1.357 4.32 1.146c2.001-.21 2.203-.938 2.203-.938s.001 2.816-2.968 10.419zm6.513 1.784c-2.561 3.904-6.13 8.635-6.13 8.635s.182-2.674 2.491-9.668c2.107-6.383 2.098-8.258 2.098-8.258s.319 2.451 2.566 3.259c1.423.511 2.38.203 2.38.203s-.819 1.886-3.405 5.829z"/><path clip-path="url(#c)" fill-rule="evenodd" clip-rule="evenodd" fill="#FFF" d="M140.013 173.45c0 .239.288.479.335.813.096.384.144 1.245.144 1.389 0 .097-.191 1.533-.191 1.677 0 .096.431.814.431.958v1.724c.192.527.767 1.629.767 2.251 0 .144-.144.767-.144.91 0 .096.335.91.335 1.054 0 .096-.383 1.676-.383 1.771 0 .144.335 1.245.335 1.389 0 .24-.096.479-.479.719-.096-.719-.191-1.484-.287-2.155-.192-1.58-.335-3.257-.575-4.837-.192-1.532-.862-4.022-.862-5.651v-1.054c.144-.526.192-1.102.24-1.676v-1.293c.048-.048.144-.096.239-.191.047.238-.048.525.095 2.202zm26.341.048c0 1.005-.383 2.251-.526 3.352l.048 7.472c-.048.335-.192.718-.24 1.102-.096.479-.096 1.102-.144 1.676-.048 0-.144.048-.191.048 0-.191 0-.479-.096-.622-.096-.336-.431-.91-.431-1.006 0-.144.144-.335.144-.479 0-.096-.432-.574-.432-.67 0-.144.145-.431.192-.623l-.048-1.197c.861-1.102.67-2.203.957-3.256v-1.245c-.144-.767-.479-1.964-.479-2.826l.144-1.532c-.048-.479-.239-1.389-.239-1.484 0-.145.048-.097.048-.145.287-.048.335-.526.479-.718.144-.144.432-.239.623-.336.095.812.191 2.345.191 2.489zm-17.529-47.604c-.144.096-.239.24-.383.383.239-.048.527 0 .718-.048.191 0 .383-.144.527-.191 0 0 .048 0 .096.048-.096.096-.239.239-.288.383h.383c.479-.431.91-.335 1.293-.335.287 0 .671-.048 1.006.144-.191.048-.431.096-.671.239 0 0-.048.048.096.048.097 0 .719-.191.862-.191.096 0 .287.048.432.096-.048.048-.145.048-.192.096.288.048.575.096.862.192l-.096.096c1.437.623 3.113 1.724 4.358 3.353.383.479.191 1.149.335 1.724l.048 1.868c0 .67-.144 1.82-.144 1.916 0 .144.144 1.197.144 1.293 0 2.969-2.203 2.06-2.203 4.693v2.012c.767.862 1.245 2.155 2.347 2.634 2.251 1.054 4.598 1.868 6.896 2.969 1.341.67 3.448 1.725 4.071 3.496a81.628 81.628 0 0 1 1.437 4.454c.766 2.777 1.532 5.604 2.347 8.429.239.862.813 2.538.813 2.634 0 .623-2.154 1.581-2.538 1.916l-.048 7.95a159.996 159.996 0 0 1-1.341 6.226c-.622 2.729-1.437 5.46-2.012 8.237-.096.431.048 1.293.048 1.437 0 2.06-1.532 5.891-1.532 7.998l1.343 16.963-1.245 13.937v.862c-.24 1.867-.623 3.927-1.293 5.843-.145.383-.192.91-.24 1.389a95.163 95.163 0 0 0-.144 2.06c0 .096-.191 1.819-.239 2.729-.096.814-.096 1.677-.144 2.538-.048.958-.096 1.916-.191 2.874-.048.431-1.245 7.614-1.245 9.339 0 .144.144.957.144 1.054 0 .144-.096.861-.096 1.005 0 .575.526 1.485.91 2.06.526.767 1.341 1.341 1.341 2.06 0 1.532-3.065 1.532-3.592 1.532-1.39 0-2.683-.191-4.023-.479-.287-.048-.574-.096-.767-.239-.718-.384-1.771-.671-2.059-1.629-.048-.096.048-.191.048-.335 0-.096-.191-.814-.191-1.197 0-1.293.096-1.868.096-2.012 0-.526-1.102-1.293-1.102-3.017 0-.145.096-.91.144-1.39v-3.017c.335-2.538 1.197-5.316 1.676-7.807.048-.479.048-1.341.048-1.437v-3.735c.097-.671.24-2.012.24-2.107l-.527-5.268v-11.878l-2.252-20.459c-.767 3.496-.286 16.676-.717 20.22l.048 6.657c-.096.91-.096 1.868-.336 2.825-.144.479-.479 1.006-.622 1.533-.191.526-.287 1.197-.479 1.771-.191.719-.526 1.437-.526 2.155 0 1.245.479 2.442.767 3.783l-.479 2.634v1.102l-.719 6.179c.048.67.144 1.867.144 2.011 0 1.581-.383 3.257-.383 3.88 0 1.389 1.197 2.682 1.197 4.07 0 .096-.095.623-.143.91-.048.144-.096.431-.144.67 0 .096-.096.336-.144.479-.191.67-.814 1.964-.814 2.107 0 .096.191 2.011.191 2.154 0 .24 0 .623-.191.958-.479.767-2.778 1.006-3.688 1.006-.814 0-4.501-.048-4.501-1.819 0-1.245 1.149-3.736 1.149-4.693 0-.097-.24-1.102-.24-1.677-.096-1.532-.575-3.064-1.053-4.598-.192-.574-.192-1.245-.24-1.819a56.571 56.571 0 0 1-.191-2.874l-.335-6.178v-10.919c.048-.144.048-.288.048-.432-.096-.67.671-1.532.671-2.154 0-.575-.479-1.197-1.006-1.82-.192-.239-.814-1.964-.814-2.442v-.91l.431-3.831c0-1.725-.048-2.347-.144-5.795 0-.048-1.294-10.546-1.247-16.867l.096-6.609c-.335-1.437-.575-2.969-.958-4.406-.574-2.203-1.437-4.357-1.916-6.513-.335-1.581-.527-3.209-.718-4.789-.144-1.102-.144-2.251-.287-3.305-.192-1.389-.479-2.826-.719-4.215-.575-.287-1.293-.622-1.916-.957a55.395 55.395 0 0 1-2.969-1.438v-.096c0-.096.383-1.341.527-1.915 1.149-4.215 2.969-8.478 4.598-12.644.575-1.58 2.921-3.161 4.214-3.64 1.963-.719 3.975-1.676 5.938-2.586.144-.048.096-.287.144-.383.192-.239.431-.575.67-.814.67-.623 1.533-.383 1.533-1.341 0-.144 0-.192-.048-.288-1.197-.766-1.581-2.299-1.82-3.304-.144-.623-.431-1.197-.575-1.772-.191-.767-.191-1.628-.527-2.395 0-.096-1.341-2.012-1.341-2.443v-4.693c.191-.767 1.102-1.102 1.724-1.628.096-.096.144-.24.191-.383.096-.239.575-.91.958-.862-.144.144-.335.383-.335.526v.24l.096.096c.431-.239.383-1.054 1.102-1.149 0 .048-.096.144-.048.239.191-.239.527-.67.67-.67.096 0 .048.096.096.144.048-.24.383-.383.623-.431 0 .144-.048.287 0 .431.288-.24.623-.527.958-.719h.238z"/><g fill="#080828"><path d="M96.729 242.504h-9.217v-4.945h24.435v4.945h-9.313v27.41h-5.905v-27.41zM134.026 258.008c0 8.594-6.048 12.434-12.001 12.434-6.625 0-11.713-4.561-11.713-12.049 0-7.68 5.041-12.385 12.097-12.385 6.961 0 11.617 4.896 11.617 12zm-17.617.24c0 4.514 2.208 7.922 5.808 7.922 3.36 0 5.713-3.313 5.713-8.018 0-3.648-1.632-7.824-5.665-7.824-4.176 0-5.856 4.031-5.856 7.92zM145.641 239.863v6.672h5.616v4.416h-5.616v10.322c0 2.832.768 4.32 3.024 4.32a8.716 8.716 0 0 0 2.304-.289l.097 4.514c-.864.336-2.401.576-4.273.576-2.16 0-3.984-.721-5.088-1.922-1.248-1.344-1.824-3.455-1.824-6.527v-10.994h-3.36v-4.416h3.36v-5.279l5.76-1.393zM168.873 269.914l-.384-2.592h-.145c-1.439 1.824-3.888 3.119-6.912 3.119-4.704 0-7.345-3.408-7.345-6.961 0-5.904 5.232-8.881 13.873-8.832v-.385c0-1.535-.624-4.08-4.752-4.08-2.305 0-4.705.721-6.289 1.729l-1.152-3.84c1.729-1.057 4.753-2.064 8.449-2.064 7.488 0 9.648 4.752 9.648 9.84v8.449c0 2.113.097 4.176.336 5.617h-5.327zm-.768-11.426c-4.177-.096-8.161.816-8.161 4.369 0 2.305 1.488 3.359 3.36 3.359 2.353 0 4.08-1.535 4.608-3.215.144-.434.192-.912.192-1.297v-3.216zM180.103 235.83h5.953v34.084h-5.953V235.83zM196.615 259.881c.144 4.225 3.456 6.049 7.2 6.049 2.736 0 4.705-.385 6.48-1.057l.864 4.08c-2.016.816-4.8 1.441-8.16 1.441-7.585 0-12.05-4.658-12.05-11.811 0-6.48 3.937-12.576 11.426-12.576 7.584 0 10.08 6.24 10.08 11.377 0 1.104-.096 1.969-.191 2.496h-15.649zm10.273-4.129c.049-2.16-.912-5.713-4.848-5.713-3.648 0-5.185 3.313-5.425 5.713h10.273z"/></g></g></switch></svg>