<?xml version="1.0" encoding="UTF-8" standalone="no"?>
<!-- Generator: Adobe Illustrator 16.0.3, SVG Export Plug-In . SVG Version: 6.00 Build 0)  -->

<svg
   xmlns:dc="http://purl.org/dc/elements/1.1/"
   xmlns:cc="http://creativecommons.org/ns#"
   xmlns:rdf="http://www.w3.org/1999/02/22-rdf-syntax-ns#"
   xmlns:svg="http://www.w3.org/2000/svg"
   xmlns="http://www.w3.org/2000/svg"
   xmlns:sodipodi="http://sodipodi.sourceforge.net/DTD/sodipodi-0.dtd"
   xmlns:inkscape="http://www.inkscape.org/namespaces/inkscape"
   version="1.1"
   id="Ebene_1"
   x="0px"
   y="0px"
   width="60px"
   height="60px"
   viewBox="0 0 60 60"
   style="enable-background:new 0 0 60 60;"
   xml:space="preserve"
   sodipodi:docname="visual_qr_karma_de.svg"
   inkscape:version="0.92.4 (5da689c313, 2019-01-14)"><metadata
   id="metadata59"><rdf:RDF><cc:Work
       rdf:about=""><dc:format>image/svg+xml</dc:format><dc:type
         rdf:resource="http://purl.org/dc/dcmitype/StillImage" /><dc:title></dc:title></cc:Work></rdf:RDF></metadata><defs
   id="defs57" /><sodipodi:namedview
   pagecolor="#ffffff"
   bordercolor="#666666"
   borderopacity="1"
   objecttolerance="10"
   gridtolerance="10"
   guidetolerance="10"
   inkscape:pageopacity="0"
   inkscape:pageshadow="2"
   inkscape:window-width="731"
   inkscape:window-height="480"
   id="namedview55"
   showgrid="false"
   inkscape:zoom="3.9333333"
   inkscape:cx="30"
   inkscape:cy="30"
   inkscape:window-x="0"
   inkscape:window-y="0"
   inkscape:window-maximized="0"
   inkscape:current-layer="Ebene_1" />
<rect
   style="fill:#A0B983;"
   width="60"
   height="60"
   id="rect2" />
<g
   id="g14">
	<path
   style="fill:#FFFFFF;"
   d="M20.498,51.223h0.854v2.171h0.021c0.112-0.182,0.231-0.35,0.343-0.511l1.233-1.66h1.064l-1.625,2.01   l1.73,2.711h-1.008l-1.338-2.164l-0.42,0.504v1.66h-0.854V51.223z"
   id="path4" />
	<path
   style="fill:#FFFFFF;"
   d="M26.505,55.943l-0.056-0.378h-0.021c-0.21,0.266-0.567,0.455-1.008,0.455   c-0.687,0-1.072-0.497-1.072-1.016c0-0.861,0.763-1.296,2.024-1.289V53.66c0-0.225-0.091-0.596-0.693-0.596   c-0.336,0-0.686,0.105-0.917,0.253l-0.168-0.561c0.252-0.154,0.693-0.302,1.233-0.302c1.092,0,1.408,0.693,1.408,1.437v1.232   c0,0.308,0.014,0.609,0.049,0.819H26.505z M26.393,54.276c-0.609-0.014-1.19,0.119-1.19,0.638c0,0.336,0.217,0.49,0.49,0.49   c0.343,0,0.595-0.225,0.672-0.47c0.021-0.063,0.028-0.133,0.028-0.188V54.276z"
   id="path6" />
	<path
   style="fill:#FFFFFF;"
   d="M28.142,53.632c0-0.462-0.007-0.791-0.028-1.1h0.75l0.027,0.651h0.028   c0.168-0.483,0.567-0.729,0.932-0.729c0.084,0,0.133,0.008,0.203,0.021v0.813c-0.07-0.014-0.147-0.028-0.252-0.028   c-0.414,0-0.693,0.267-0.771,0.651c-0.015,0.077-0.028,0.168-0.028,0.267v1.765h-0.861V53.632z"
   id="path8" />
	<path
   style="fill:#FFFFFF;"
   d="M30.633,53.548c0-0.392-0.007-0.721-0.027-1.016h0.742l0.035,0.505h0.021   c0.168-0.267,0.477-0.582,1.051-0.582c0.447,0,0.799,0.253,0.945,0.631h0.014c0.119-0.189,0.26-0.329,0.42-0.428   c0.189-0.133,0.406-0.203,0.688-0.203c0.566,0,1.141,0.386,1.141,1.479v2.01h-0.84V54.06c0-0.567-0.197-0.903-0.609-0.903   c-0.295,0-0.512,0.21-0.604,0.455c-0.02,0.084-0.041,0.188-0.041,0.287v2.045h-0.84v-1.975c0-0.477-0.189-0.813-0.59-0.813   c-0.322,0-0.539,0.252-0.615,0.49c-0.035,0.084-0.049,0.182-0.049,0.279v2.018h-0.841V53.548z"
   id="path10" />
	<path
   style="fill:#FFFFFF;"
   d="M38.488,55.943l-0.057-0.378h-0.02c-0.211,0.266-0.568,0.455-1.01,0.455   c-0.686,0-1.072-0.497-1.072-1.016c0-0.861,0.764-1.296,2.025-1.289V53.66c0-0.225-0.092-0.596-0.693-0.596   c-0.336,0-0.688,0.105-0.918,0.253l-0.168-0.561c0.252-0.154,0.693-0.302,1.232-0.302c1.094,0,1.408,0.693,1.408,1.437v1.232   c0,0.308,0.014,0.609,0.049,0.819H38.488z M38.377,54.276c-0.609-0.014-1.191,0.119-1.191,0.638c0,0.336,0.217,0.49,0.49,0.49   c0.344,0,0.596-0.225,0.672-0.47c0.021-0.063,0.029-0.133,0.029-0.188V54.276z"
   id="path12" />
</g>
<g
   id="g41"
   transform="translate(-7.561529,-21.467778)">
	<g
   id="Bild"
   transform="translate(8.6,22.5)">
		
			<sodipodi:namedview
   units="mm"
   borderopacity="1.0"
   bordercolor="#666666"
   pagecolor="#ffffff"
   showgrid="false"
   inkscape:cy="140.10525"
   inkscape:cx="100.8875"
   inkscape:zoom="1.4"
   showguides="true"
   id="base"
   inkscape:pageopacity="0.0"
   inkscape:pageshadow="2"
   inkscape:window-width="667"
   inkscape:window-height="700"
   inkscape:window-x="0"
   inkscape:window-y="0"
   inkscape:window-maximized="1"
   inkscape:current-layer="layer1"
   inkscape:guide-bbox="true"
   inkscape:document-units="mm">
			<sodipodi:guide
   orientation="1,0"
   position="191.33858,0"
   id="guide21487" />
			<sodipodi:guide
   orientation="0,1"
   position="0,304.72441"
   id="guide21489" />
			<sodipodi:guide
   orientation="0,1"
   position="0,322.44094"
   id="guide26097" />
		</sodipodi:namedview>
		<g
   id="layer1"
   transform="translate(0,-910.62992)"
   inkscape:label="Ebene 1"
   inkscape:groupmode="layer">
			<path
   id="path3779"
   inkscape:connector-curvature="0"
   style="fill:#FFFFFF;"
   d="M30.197,915.124     c-0.416,0-0.842,0.015-1.252,0.022c-4.666,0.137-9.322,0.954-13.965,2.201l-0.027-0.06l-0.033,0.064     c-1.949,0.528-3.904,1.119-5.848,1.782l0.494,1.438c1.496-0.502,2.987-0.978,4.481-1.398c-0.633,1.305-1.955,4.058-3.56,7.777     c-1.033,2.393-2.066,4.939-2.848,7.146c-0.634,1.832-1.098,3.41-1.243,4.622H5.962v0.764c0,4.972,4.029,9.005,8.991,9.005     c4.963,0,8.993-4.033,8.993-9.005v-0.764h-0.431c-0.149-1.212-0.609-2.79-1.247-4.622c-0.774-2.207-1.808-4.754-2.841-7.146     c-1.774-4.095-3.302-7.281-3.768-8.221c4.195-1.111,8.373-1.831,12.547-2.019v37.849h-7.769v1.511h16.729v-1.511h-7.449v-37.907     c4.163-0.056,8.341,0.426,12.481,1.62c-0.502,1.08-1.977,4.244-3.693,8.402c-1.031,2.455-2.064,5.047-2.851,7.328     c-0.64,1.88-1.101,3.504-1.273,4.716H33.97v0.764c0,4.976,4.035,9.005,8.984,9.005c4.977,0,9.007-4.033,9.007-9.005v-0.764     h-0.427c-0.151-1.212-0.629-2.836-1.258-4.716c-0.764-2.281-1.814-4.873-2.846-7.328c-1.527-3.653-2.77-6.354-3.443-7.845     c1.438,0.487,2.857,1.063,4.283,1.709l0.637-1.377c-1.933-0.89-3.869-1.609-5.804-2.194l-0.149-0.315l-0.09,0.231     C38.642,915.641,34.42,915.101,30.197,915.124z M42.955,918.497c0,0.008,0,0.015,0.016,0.019     c0.316,0.665,1.872,3.986,3.758,8.435c1.033,2.471,2.066,5.069,2.83,7.322c0.597,1.785,1.033,3.369,1.195,4.446h-15.57     c0.135-1.077,0.584-2.661,1.178-4.446c0.772-2.253,1.798-4.852,2.82-7.322C41.068,922.486,42.64,919.164,42.955,918.497     L42.955,918.497z M14.957,919.063c0.31,0.62,1.887,3.845,3.773,8.202c1.033,2.381,2.044,4.896,2.808,7.098     c0.606,1.743,1.042,3.279,1.2,4.356H7.163c0.157-1.077,0.584-2.613,1.19-4.356c0.764-2.201,1.797-4.717,2.83-7.098     C13.07,922.907,14.665,919.674,14.957,919.063z" />
		</g>
	</g>
</g>
<g
   id="g24">
</g>
<g
   id="g26">
</g>
<g
   id="g28">
</g>
<g
   id="g30">
</g>
<g
   id="g32">
</g>
<g
   id="g34">
</g>
<g
   id="g36">
</g>
<g
   id="g38">
</g>
<g
   id="g40">
</g>
<g
   id="g42">
</g>
<g
   id="g44">
</g>
<g
   id="g46">
</g>
<g
   id="g48">
</g>
<g
   id="g50">
</g>
<g
   id="g52">
</g>
</svg>