<?xml version="1.0" encoding="UTF-8" standalone="no"?>
<!-- Generator: Adobe Illustrator 16.0.3, SVG Export Plug-In . SVG Version: 6.00 Build 0)  -->

<svg
   xmlns:dc="http://purl.org/dc/elements/1.1/"
   xmlns:cc="http://creativecommons.org/ns#"
   xmlns:rdf="http://www.w3.org/1999/02/22-rdf-syntax-ns#"
   xmlns:svg="http://www.w3.org/2000/svg"
   xmlns="http://www.w3.org/2000/svg"
   xmlns:sodipodi="http://sodipodi.sourceforge.net/DTD/sodipodi-0.dtd"
   xmlns:inkscape="http://www.inkscape.org/namespaces/inkscape"
   version="1.1"
   id="Ebene_1"
   x="0px"
   y="0px"
   width="60px"
   height="60px"
   viewBox="0 0 60 60"
   style="enable-background:new 0 0 60 60;"
   xml:space="preserve"
   sodipodi:docname="visual_qr_strohmann_de.svg"
   inkscape:version="0.92.4 (5da689c313, 2019-01-14)"><metadata
   id="metadata60"><rdf:RDF><cc:Work
       rdf:about=""><dc:format>image/svg+xml</dc:format><dc:type
         rdf:resource="http://purl.org/dc/dcmitype/StillImage" /><dc:title></dc:title></cc:Work></rdf:RDF></metadata><defs
   id="defs58" /><sodipodi:namedview
   pagecolor="#ffffff"
   bordercolor="#666666"
   borderopacity="1"
   objecttolerance="10"
   gridtolerance="10"
   guidetolerance="10"
   inkscape:pageopacity="0"
   inkscape:pageshadow="2"
   inkscape:window-width="731"
   inkscape:window-height="480"
   id="namedview56"
   showgrid="false"
   inkscape:zoom="3.9333333"
   inkscape:cx="30"
   inkscape:cy="30"
   inkscape:window-x="0"
   inkscape:window-y="0"
   inkscape:window-maximized="0"
   inkscape:current-layer="Ebene_1" />
<rect
   style="fill:#A0B983;"
   width="60"
   height="60"
   id="rect2" />
<g
   id="g22">
	<path
   style="fill:#FFFFFF;"
   d="M13.785,54.699C14.065,54.86,14.485,55,14.926,55c0.554,0,0.862-0.259,0.862-0.644   c0-0.357-0.238-0.567-0.841-0.785c-0.777-0.28-1.274-0.693-1.274-1.372c0-0.771,0.645-1.359,1.667-1.359   c0.511,0,0.889,0.112,1.134,0.238l-0.21,0.693c-0.168-0.091-0.497-0.224-0.938-0.224c-0.546,0-0.785,0.294-0.785,0.567   c0,0.363,0.273,0.532,0.904,0.777c0.819,0.308,1.219,0.721,1.219,1.4c0,0.757-0.575,1.415-1.793,1.415   c-0.498,0-1.016-0.141-1.275-0.294L13.785,54.699z"
   id="path4" />
	<path
   style="fill:#FFFFFF;"
   d="M18.293,51.253v0.974h0.819v0.645h-0.819v1.506c0,0.413,0.112,0.631,0.441,0.631   c0.147,0,0.259-0.021,0.336-0.043l0.014,0.659c-0.126,0.049-0.35,0.084-0.624,0.084c-0.315,0-0.581-0.105-0.742-0.28   c-0.182-0.196-0.266-0.505-0.266-0.953v-1.604h-0.49v-0.645h0.49v-0.771L18.293,51.253z"
   id="path6" />
	<path
   style="fill:#FFFFFF;"
   d="M19.693,53.326c0-0.462-0.007-0.791-0.028-1.1h0.75l0.028,0.651h0.028   c0.168-0.483,0.567-0.729,0.932-0.729c0.084,0,0.133,0.008,0.203,0.021v0.813c-0.07-0.014-0.147-0.028-0.252-0.028   c-0.413,0-0.693,0.267-0.771,0.651c-0.014,0.077-0.028,0.168-0.028,0.267v1.765h-0.861V53.326z"
   id="path8" />
	<path
   style="fill:#FFFFFF;"
   d="M25.294,53.9c0,1.254-0.882,1.814-1.751,1.814c-0.967,0-1.709-0.665-1.709-1.758   c0-1.121,0.735-1.808,1.765-1.808C24.615,52.149,25.294,52.864,25.294,53.9z M22.724,53.936c0,0.658,0.322,1.156,0.847,1.156   c0.49,0,0.833-0.483,0.833-1.17c0-0.532-0.238-1.142-0.826-1.142C22.969,52.78,22.724,53.368,22.724,53.936z"
   id="path10" />
	<path
   style="fill:#FFFFFF;"
   d="M25.93,50.665h0.868v2.031h0.014c0.105-0.161,0.245-0.294,0.427-0.393   c0.168-0.098,0.371-0.154,0.588-0.154c0.582,0,1.191,0.386,1.191,1.479v2.01h-0.862v-1.912c0-0.497-0.182-0.868-0.658-0.868   c-0.336,0-0.575,0.224-0.666,0.483c-0.028,0.069-0.035,0.161-0.035,0.259v2.038H25.93V50.665z"
   id="path12" />
	<path
   style="fill:#FFFFFF;"
   d="M29.863,53.242c0-0.392-0.007-0.721-0.027-1.016h0.742l0.035,0.505h0.021   c0.168-0.267,0.477-0.582,1.051-0.582c0.448,0,0.799,0.253,0.945,0.631h0.015c0.119-0.189,0.259-0.329,0.42-0.428   c0.189-0.133,0.406-0.203,0.687-0.203c0.567,0,1.142,0.386,1.142,1.479v2.01h-0.841v-1.884c0-0.567-0.196-0.903-0.609-0.903   c-0.294,0-0.511,0.21-0.603,0.455c-0.021,0.084-0.042,0.188-0.042,0.287v2.045h-0.84v-1.975c0-0.477-0.189-0.813-0.589-0.813   c-0.322,0-0.539,0.252-0.616,0.49c-0.035,0.084-0.049,0.182-0.049,0.28v2.017h-0.841V53.242z"
   id="path14" />
	<path
   style="fill:#FFFFFF;"
   d="M37.647,55.638l-0.056-0.378h-0.021c-0.211,0.266-0.567,0.455-1.009,0.455   c-0.687,0-1.072-0.497-1.072-1.016c0-0.861,0.764-1.296,2.024-1.289v-0.056c0-0.225-0.091-0.596-0.693-0.596   c-0.336,0-0.687,0.105-0.917,0.253l-0.168-0.561c0.252-0.154,0.693-0.302,1.232-0.302c1.093,0,1.407,0.693,1.407,1.437v1.232   c0,0.308,0.015,0.609,0.05,0.819H37.647z M37.536,53.971c-0.609-0.014-1.191,0.119-1.191,0.638c0,0.336,0.218,0.49,0.491,0.49   c0.343,0,0.595-0.225,0.672-0.47c0.021-0.063,0.028-0.133,0.028-0.188V53.971z"
   id="path16" />
	<path
   style="fill:#FFFFFF;"
   d="M39.214,53.242c0-0.392-0.007-0.721-0.027-1.016h0.756l0.042,0.512h0.021   c0.146-0.267,0.518-0.589,1.085-0.589c0.596,0,1.212,0.386,1.212,1.464v2.024h-0.861v-1.926c0-0.49-0.182-0.861-0.651-0.861   c-0.343,0-0.581,0.245-0.672,0.504c-0.028,0.077-0.035,0.182-0.035,0.28v2.003h-0.869V53.242z"
   id="path18" />
	<path
   style="fill:#FFFFFF;"
   d="M43.148,53.242c0-0.392-0.007-0.721-0.027-1.016h0.756l0.042,0.512h0.021   c0.146-0.267,0.518-0.589,1.085-0.589c0.596,0,1.212,0.386,1.212,1.464v2.024h-0.861v-1.926c0-0.49-0.182-0.861-0.651-0.861   c-0.343,0-0.581,0.245-0.672,0.504c-0.028,0.077-0.035,0.182-0.035,0.28v2.003h-0.869V53.242z"
   id="path20" />
</g>
<path
   id="path4453"
   inkscape:connector-curvature="0"
   style="fill:#FFFFFF;"
   d="M24.094,2.624c0.827,0.198,1.541,0.758,1.992,1.518  c0.216,0.364,0.367,0.776,0.452,1.216c0.181-0.377,0.429-0.705,0.729-0.961c0.439-0.375,0.983-0.603,1.575-0.603  c0.213,0,0.427,0.038,0.625,0.093C29.035,3.627,28.51,3.47,27.95,3.47c-0.417,0-0.805,0.082-1.158,0.231  c-0.592-0.616-1.505-1.033-2.536-1.077C24.204,2.621,24.146,2.624,24.094,2.624z M30.185,9.167c-1.614,0-3.061,0.724-4.03,1.864  c-2.481,0.371-4.157,1.097-4.157,1.923c0,0.679,1.134,1.278,2.918,1.679c0.1,2.828,2.416,5.096,5.269,5.096  c2.885,0,5.218-2.316,5.269-5.188c1.56-0.397,2.536-0.958,2.536-1.586c0-0.776-1.481-1.467-3.717-1.854  C33.305,9.92,31.831,9.167,30.185,9.167z M21.315,10.302c-0.096,0-0.192,0.007-0.29,0.012c-1.911,0.069-3.593,0.723-4.69,1.702  c-0.002,0.002-0.009-0.002-0.011,0c-0.654-0.238-1.383-0.37-2.154-0.37c-1.037,0-2,0.235-2.802,0.648  c0.368-0.087,0.751-0.128,1.146-0.128c1.095,0,2.105,0.354,2.918,0.95c0.557,0.407,1.02,0.929,1.355,1.528  c0.158-0.699,0.457-1.355,0.857-1.934C18.479,11.504,19.782,10.616,21.315,10.302L21.315,10.302z M39.194,15.397  c-0.318,0-0.633,0.02-0.938,0.058c0.511,0.062,1.022,0.186,1.528,0.37c1.402,0.513,2.526,1.44,3.289,2.583  c0.47,0.704,0.803,1.491,0.973,2.315H36.3h-0.371H24.071c-0.03-0.001-0.062,0-0.092,0h-0.753H10.279  c-1.54,0-2.779,1.239-2.779,2.779s1.239,2.779,2.779,2.779h7.191c0,0.004,0,0.008,0,0.012h6.601v10.179c-0.001,0.04,0,0.076,0,0.116  v8.036c0,1.539,1.24,2.779,2.779,2.779h6.67c1.54,0,2.779-1.24,2.779-2.779v-8.036c0-0.04-0.01-0.076-0.012-0.116H36.3V26.294h6.635  c0-0.004,0.001-0.008,0-0.012h6.786c1.54,0,2.779-1.239,2.779-2.779s-1.239-2.779-2.779-2.779H44.29  c0.498-0.704,1.11-1.315,1.807-1.807c1.633-1.153,3.716-1.67,5.824-1.354c-0.123-0.045-0.256-0.087-0.382-0.127  c-2.479-0.806-4.936-0.753-6.798-0.012c-0.01,0.004-0.024,0.008-0.034,0.012l0.034-0.023c-0.726-0.611-1.606-1.121-2.594-1.482  C41.152,15.565,40.149,15.396,39.194,15.397z" />
<g
   id="g25">
</g>
<g
   id="g27">
</g>
<g
   id="g29">
</g>
<g
   id="g31">
</g>
<g
   id="g33">
</g>
<g
   id="g35">
</g>
<g
   id="g37">
</g>
<g
   id="g39">
</g>
<g
   id="g41">
</g>
<g
   id="g43">
</g>
<g
   id="g45">
</g>
<g
   id="g47">
</g>
<g
   id="g49">
</g>
<g
   id="g51">
</g>
<g
   id="g53">
</g>
</svg>