<?xml version="1.0" encoding="utf-8"?>
<!-- Generator: Adobe Illustrator 22.0.1, SVG Export Plug-In . SVG Version: 6.00 Build 0)  -->
<svg version="1.1" id="Ebene_1" xmlns="http://www.w3.org/2000/svg" xmlns:xlink="http://www.w3.org/1999/xlink" x="0px" y="0px"
	 viewBox="0 0 300.5 300.5" style="enable-background:new 0 0 300.5 300.5;" xml:space="preserve">
<style type="text/css">
	.st0{fill:#EACD99;}
	.st1{enable-background:new    ;}
	.st2{fill:#C1272D;}
	.st3{fill:#3A3326;}
	.st4{fill:none;stroke:#C1272D;stroke-width:4;stroke-miterlimit:10;}
	.st5{fill:none;stroke:#FFFFFF;stroke-width:4;stroke-miterlimit:10;}
	.st6{fill:none;stroke:#000000;stroke-width:4;stroke-miterlimit:10;stroke-dasharray:4;}
</style>
<path class="st0" d="M238.2,300.5H62.4c-34.3,0-62.4-28-62.4-62.3V62.4C0,28.1,28.1,0,62.4,0h175.8c34.3,0,62.4,28.1,62.4,62.4
	v175.8C300.5,272.5,272.5,300.5,238.2,300.5z"/>
<g>
	<g class="st1">
		<path d="M133.8,113v-3.7l3.4-3c5.7-5.1,8.4-8,8.5-11c0-2.1-1.3-3.8-4.3-3.8c-2.2,0-4.2,1.1-5.6,2.2l-1.7-4.4c2-1.5,5-2.7,8.5-2.7
			c5.9,0,9.1,3.4,9.1,8.2c0,4.4-3.2,7.8-6.9,11.2l-2.4,2v0.1h9.8v5H133.8z"/>
	</g>
</g>
<g>
	<g class="st1">
		<path d="M262.1,193c1.1,0.6,3.6,1.6,6,1.6c3.2,0,4.8-1.5,4.8-3.5c0-2.6-2.6-3.7-5.2-3.7h-2.5v-4.4h2.4c2,0,4.6-0.8,4.6-3
			c0-1.6-1.3-2.7-3.8-2.7c-2.1,0-4.4,0.9-5.4,1.6l-1.2-4.4c1.6-1,4.7-2,8-2c5.6,0,8.6,2.9,8.6,6.5c0,2.8-1.6,4.9-4.8,6v0.1
			c3.1,0.6,5.6,2.9,5.6,6.3c0,4.6-4,8-10.6,8c-3.4,0-6.2-0.9-7.7-1.8L262.1,193z"/>
	</g>
</g>
<g>
	<g class="st1">
		<path class="st2" d="M35.8,168.5h-0.1l-7.2,3.4l-1.5-6.6l10-4.6h7.3v37.7h-8.5V168.5z"/>
	</g>
</g>
<g class="st1">
	<path class="st3" d="M64.2,237.6H52v9.5h13.6v4.8H46.1v-32.4h18.8v4.8H52v8.4h12.2V237.6z"/>
	<path class="st3" d="M74.5,228.6l2.8,4.4c0.8,1.2,1.4,2.4,2.1,3.6h0.1c0.7-1.3,1.3-2.5,2-3.7l2.6-4.3h6.4l-7.8,11.2l8,12.1h-6.7
		l-2.9-4.7c-0.8-1.2-1.4-2.5-2.1-3.8H79c-0.7,1.3-1.3,2.5-2.1,3.8l-2.7,4.7h-6.5l8.1-11.9l-7.8-11.5H74.5z"/>
	<path class="st3" d="M94.3,236.4c0-3.1-0.1-5.6-0.2-7.8h5.2l0.3,3.6h0.1c1.7-2.6,4.5-4.1,8-4.1c5.4,0,9.8,4.6,9.8,11.9
		c0,8.4-5.3,12.5-10.7,12.5c-2.9,0-5.4-1.2-6.6-3.1h-0.1v12.1h-5.9V236.4z M100.2,242.2c0,0.6,0,1.1,0.2,1.6
		c0.6,2.4,2.7,4.1,5.2,4.1c3.7,0,6-3.1,6-7.7c0-4.1-2-7.5-5.8-7.5c-2.4,0-4.7,1.8-5.3,4.4c-0.1,0.5-0.2,1-0.2,1.5V242.2z"/>
	<path class="st3" d="M144.6,240.1c0,8.6-6,12.4-12,12.4c-6.6,0-11.7-4.6-11.7-12c0-7.7,5-12.4,12.1-12.4
		C139.9,228.1,144.6,233,144.6,240.1z M127,240.3c0,4.5,2.2,7.9,5.8,7.9c3.4,0,5.7-3.3,5.7-8c0-3.6-1.6-7.8-5.7-7.8
		C128.6,232.4,127,236.4,127,240.3z"/>
	<path class="st3" d="M149.1,246.5c1.3,0.8,3.9,1.7,6,1.7c2.6,0,3.7-1.1,3.7-2.6c0-1.6-1-2.4-3.8-3.4c-4.6-1.6-6.5-4.1-6.4-6.8
		c0-4.1,3.4-7.3,8.8-7.3c2.6,0,4.8,0.7,6.2,1.4l-1.2,4.2c-1-0.6-2.9-1.3-4.9-1.3c-2.1,0-3.3,1-3.3,2.4c0,1.5,1.1,2.2,4.1,3.3
		c4.2,1.5,6.2,3.7,6.2,7.2c0,4.2-3.3,7.3-9.5,7.3c-2.8,0-5.4-0.7-7.1-1.6L149.1,246.5z"/>
	<path class="st3" d="M175.7,222.1c0,1.8-1.3,3.2-3.4,3.2c-2,0-3.3-1.4-3.3-3.2c0-1.8,1.3-3.2,3.3-3.2
		C174.4,218.9,175.7,220.2,175.7,222.1z M169.4,252v-23.4h6V252H169.4z"/>
	<path class="st3" d="M188.5,221.9v6.7h5.6v4.4h-5.6v10.3c0,2.8,0.8,4.3,3,4.3c1,0,1.8-0.1,2.3-0.3l0.1,4.5
		c-0.9,0.3-2.4,0.6-4.3,0.6c-2.2,0-4-0.7-5.1-1.9c-1.2-1.3-1.8-3.5-1.8-6.5v-11h-3.4v-4.4h3.4v-5.3L188.5,221.9z"/>
	<path class="st3" d="M204.9,222.1c0,1.8-1.3,3.2-3.4,3.2c-2,0-3.3-1.4-3.3-3.2c0-1.8,1.3-3.2,3.3-3.2
		C203.6,218.9,204.8,220.2,204.9,222.1z M198.6,252v-23.4h6V252H198.6z"/>
	<path class="st3" d="M233.1,240.1c0,8.6-6,12.4-12,12.4c-6.6,0-11.7-4.6-11.7-12c0-7.7,5-12.4,12.1-12.4
		C228.4,228.1,233.1,233,233.1,240.1z M215.5,240.3c0,4.5,2.2,7.9,5.8,7.9c3.4,0,5.7-3.3,5.7-8c0-3.6-1.6-7.8-5.7-7.8
		C217.2,232.4,215.5,236.4,215.5,240.3z"/>
	<path class="st3" d="M237.9,235.6c0-2.7,0-4.9-0.2-7h5.2l0.3,3.5h0.1c1-1.8,3.6-4,7.4-4c4.1,0,8.3,2.6,8.3,10V252h-5.9v-13.2
		c0-3.4-1.2-5.9-4.5-5.9c-2.4,0-4,1.7-4.6,3.5c-0.2,0.5-0.2,1.2-0.2,1.9V252h-6V235.6z"/>
</g>
<path class="st4" d="M94.7,160.6"/>
<path class="st4" d="M130,82.6"/>
<path class="st4" d="M213.7,133"/>
<path class="st4" d="M175.1,82.6"/>
<polyline class="st5" points="50.7,185 206.7,91.9 246.2,185 "/>
<line class="st6" x1="189.5" y1="187.2" x2="189.5" y2="78.7"/>
<line class="st4" x1="50.7" y1="185" x2="99.1" y2="156.1"/>
<line class="st6" x1="98.5" y1="187.2" x2="98.5" y2="78.7"/>
</svg>
