<?xml version="1.0" encoding="UTF-8" standalone="no"?>
<!-- Generator: Adobe Illustrator 16.0.3, SVG Export Plug-In . SVG Version: 6.00 Build 0)  -->

<svg
   xmlns:dc="http://purl.org/dc/elements/1.1/"
   xmlns:cc="http://creativecommons.org/ns#"
   xmlns:rdf="http://www.w3.org/1999/02/22-rdf-syntax-ns#"
   xmlns:svg="http://www.w3.org/2000/svg"
   xmlns="http://www.w3.org/2000/svg"
   xmlns:sodipodi="http://sodipodi.sourceforge.net/DTD/sodipodi-0.dtd"
   xmlns:inkscape="http://www.inkscape.org/namespaces/inkscape"
   version="1.1"
   id="Ebene_1"
   x="0px"
   y="0px"
   width="60px"
   height="60px"
   viewBox="0 0 60 60"
   style="enable-background:new 0 0 60 60;"
   xml:space="preserve"
   sodipodi:docname="visual_qr_themenwechsel_de.svg"
   inkscape:version="0.92.4 (5da689c313, 2019-01-14)"><metadata
   id="metadata73"><rdf:RDF><cc:Work
       rdf:about=""><dc:format>image/svg+xml</dc:format><dc:type
         rdf:resource="http://purl.org/dc/dcmitype/StillImage" /><dc:title></dc:title></cc:Work></rdf:RDF></metadata><defs
   id="defs71" /><sodipodi:namedview
   pagecolor="#ffffff"
   bordercolor="#666666"
   borderopacity="1"
   objecttolerance="10"
   gridtolerance="10"
   guidetolerance="10"
   inkscape:pageopacity="0"
   inkscape:pageshadow="2"
   inkscape:window-width="731"
   inkscape:window-height="480"
   id="namedview69"
   showgrid="false"
   inkscape:zoom="3.9333333"
   inkscape:cx="30"
   inkscape:cy="30"
   inkscape:window-x="0"
   inkscape:window-y="0"
   inkscape:window-maximized="0"
   inkscape:current-layer="Ebene_1" />
<rect
   style="fill:#A0B983;"
   width="60"
   height="60"
   id="rect2" />
<g
   id="g32">
	<rect
   y="50.668"
   style="fill:none;"
   width="59.665"
   height="7.332"
   id="rect4" />
	<path
   style="fill:#FFFFFF;"
   d="M6.783,51.639H5.438v-0.722h3.565v0.722H7.645v3.999H6.783V51.639z"
   id="path6" />
	<path
   style="fill:#FFFFFF;"
   d="M9.45,50.665h0.868v2.031h0.014c0.105-0.161,0.245-0.294,0.427-0.393   c0.168-0.098,0.371-0.154,0.588-0.154c0.581,0,1.19,0.386,1.19,1.479v2.01h-0.861v-1.912c0-0.497-0.182-0.868-0.658-0.868   c-0.336,0-0.575,0.224-0.666,0.483c-0.028,0.069-0.035,0.161-0.035,0.259v2.038H9.45V50.665z"
   id="path8" />
	<path
   style="fill:#FFFFFF;"
   d="M14.063,54.174c0.021,0.616,0.504,0.883,1.05,0.883c0.399,0,0.687-0.057,0.946-0.154l0.126,0.596   c-0.294,0.118-0.701,0.21-1.191,0.21c-1.106,0-1.758-0.68-1.758-1.724c0-0.945,0.574-1.835,1.667-1.835   c1.106,0,1.471,0.911,1.471,1.66c0,0.161-0.014,0.287-0.028,0.364H14.063z M15.562,53.571c0.007-0.314-0.133-0.833-0.708-0.833   c-0.532,0-0.756,0.483-0.791,0.833H15.562z"
   id="path10" />
	<path
   style="fill:#FFFFFF;"
   d="M17.065,53.242c0-0.392-0.007-0.721-0.028-1.016h0.743l0.035,0.505h0.021   c0.168-0.267,0.477-0.582,1.051-0.582c0.448,0,0.798,0.253,0.945,0.631h0.014c0.119-0.189,0.259-0.329,0.42-0.428   c0.189-0.133,0.406-0.203,0.686-0.203c0.567,0,1.142,0.386,1.142,1.479v2.01h-0.841v-1.884c0-0.567-0.196-0.903-0.609-0.903   c-0.294,0-0.511,0.21-0.602,0.455C20.021,53.39,20,53.494,20,53.593v2.045h-0.841v-1.975c0-0.477-0.189-0.813-0.588-0.813   c-0.322,0-0.54,0.252-0.617,0.49c-0.035,0.084-0.049,0.182-0.049,0.28v2.017h-0.84V53.242z"
   id="path12" />
	<path
   style="fill:#FFFFFF;"
   d="M23.611,54.174c0.021,0.616,0.504,0.883,1.05,0.883c0.399,0,0.687-0.057,0.946-0.154l0.126,0.596   c-0.294,0.118-0.701,0.21-1.191,0.21c-1.106,0-1.758-0.68-1.758-1.724c0-0.945,0.574-1.835,1.667-1.835   c1.106,0,1.471,0.911,1.471,1.66c0,0.161-0.014,0.287-0.028,0.364H23.611z M25.109,53.571c0.007-0.314-0.133-0.833-0.708-0.833   c-0.532,0-0.756,0.483-0.791,0.833H25.109z"
   id="path14" />
	<path
   style="fill:#FFFFFF;"
   d="M26.613,53.242c0-0.392-0.007-0.721-0.028-1.016h0.756l0.042,0.512h0.021   c0.147-0.267,0.518-0.589,1.085-0.589c0.596,0,1.212,0.386,1.212,1.464v2.024H28.84v-1.926c0-0.49-0.182-0.861-0.651-0.861   c-0.343,0-0.581,0.245-0.672,0.504c-0.028,0.077-0.035,0.182-0.035,0.28v2.003h-0.868V53.242z"
   id="path16" />
	<path
   style="fill:#FFFFFF;"
   d="M31.023,52.227l0.357,1.548c0.078,0.364,0.154,0.735,0.217,1.106h0.014   c0.07-0.371,0.184-0.749,0.281-1.1l0.441-1.555h0.699l0.428,1.513c0.105,0.399,0.197,0.771,0.273,1.142h0.014   c0.057-0.371,0.133-0.742,0.225-1.142l0.379-1.513h0.846l-1.07,3.411h-0.799l-0.406-1.387c-0.105-0.357-0.182-0.68-0.26-1.093   h-0.014c-0.07,0.42-0.16,0.757-0.258,1.093l-0.436,1.387H31.15l-1.009-3.411H31.023z"
   id="path18" />
	<path
   style="fill:#FFFFFF;"
   d="M36.268,54.174c0.021,0.616,0.504,0.883,1.051,0.883c0.398,0,0.686-0.057,0.945-0.154l0.125,0.596   c-0.293,0.118-0.699,0.21-1.189,0.21c-1.107,0-1.758-0.68-1.758-1.724c0-0.945,0.574-1.835,1.666-1.835   c1.107,0,1.471,0.911,1.471,1.66c0,0.161-0.014,0.287-0.027,0.364H36.268z M37.766,53.571c0.008-0.314-0.133-0.833-0.707-0.833   c-0.531,0-0.756,0.483-0.791,0.833H37.766z"
   id="path20" />
	<path
   style="fill:#FFFFFF;"
   d="M41.777,55.532c-0.182,0.084-0.539,0.176-0.967,0.176c-1.064,0-1.758-0.68-1.758-1.737   c0-1.022,0.701-1.821,1.898-1.821c0.314,0,0.637,0.07,0.834,0.161l-0.154,0.645c-0.141-0.063-0.344-0.133-0.652-0.133   c-0.658,0-1.051,0.483-1.043,1.106c0,0.7,0.455,1.1,1.043,1.1c0.303,0,0.512-0.063,0.68-0.133L41.777,55.532z"
   id="path22" />
	<path
   style="fill:#FFFFFF;"
   d="M42.412,50.665h0.869v2.031h0.014c0.105-0.161,0.246-0.294,0.428-0.393   c0.168-0.098,0.371-0.154,0.588-0.154c0.582,0,1.191,0.386,1.191,1.479v2.01h-0.861v-1.912c0-0.497-0.182-0.868-0.658-0.868   c-0.336,0-0.574,0.224-0.666,0.483c-0.027,0.069-0.035,0.161-0.035,0.259v2.038h-0.869V50.665z"
   id="path24" />
	<path
   style="fill:#FFFFFF;"
   d="M46.375,54.847c0.195,0.118,0.566,0.245,0.875,0.245c0.379,0,0.547-0.154,0.547-0.379   c0-0.23-0.141-0.35-0.561-0.497c-0.666-0.231-0.945-0.595-0.939-0.994c0-0.603,0.498-1.072,1.289-1.072   c0.379,0,0.707,0.099,0.904,0.203l-0.168,0.609c-0.148-0.084-0.42-0.195-0.723-0.195c-0.307,0-0.475,0.146-0.475,0.356   c0,0.218,0.16,0.322,0.594,0.477c0.617,0.224,0.904,0.539,0.912,1.044c0,0.616-0.484,1.064-1.387,1.064   c-0.414,0-0.785-0.099-1.037-0.238L46.375,54.847z"
   id="path26" />
	<path
   style="fill:#FFFFFF;"
   d="M49.945,54.174c0.021,0.616,0.504,0.883,1.051,0.883c0.398,0,0.686-0.057,0.945-0.154l0.125,0.596   c-0.293,0.118-0.699,0.21-1.189,0.21c-1.107,0-1.758-0.68-1.758-1.724c0-0.945,0.574-1.835,1.666-1.835   c1.107,0,1.471,0.911,1.471,1.66c0,0.161-0.014,0.287-0.027,0.364H49.945z M51.443,53.571c0.008-0.314-0.133-0.833-0.707-0.833   c-0.531,0-0.756,0.483-0.791,0.833H51.443z"
   id="path28" />
	<path
   style="fill:#FFFFFF;"
   d="M52.947,50.665h0.869v4.973h-0.869V50.665z"
   id="path30" />
</g>
<g
   id="g36">
	<path
   style="fill:#FFFFFF;"
   d="M18.203,4.136c-2.904,0-5.551,0.807-7.488,2.121c-1.938,1.314-3.182,3.173-3.182,5.27   c0,2.056,1.225,3.875,3.1,5.188c-0.62,1.151-1.375,2.243-2.301,3.183L7.5,20.729l1.175-0.049c2.28-0.094,4.613-0.738,6.771-1.975   l0.05-0.032c0.864,0.156,1.768,0.261,2.707,0.261c2.904,0,5.535-0.805,7.474-2.121c1.937-1.318,3.196-3.189,3.196-5.287   c0-2.097-1.26-3.955-3.196-5.27C23.738,4.942,21.107,4.136,18.203,4.136z M18.203,5.065c2.734,0,5.194,0.767,6.951,1.959   c1.756,1.191,2.789,2.773,2.789,4.502s-1.033,3.326-2.789,4.52c-1.757,1.195-4.217,1.959-6.951,1.959   c-0.939,0-1.846-0.096-2.707-0.262l-0.181-0.033l-0.147,0.082l-0.195,0.114c-1.66,0.952-3.417,1.425-5.172,1.647   c0.707-0.856,1.346-1.755,1.844-2.74l0.195-0.375l-0.358-0.229c-1.905-1.205-3.034-2.873-3.034-4.684   c0-1.729,1.032-3.311,2.789-4.502C12.992,5.832,15.47,5.065,18.203,5.065z M13.439,9.683l-1.354,3.313h0.44L12.916,12h1.371   l0.408,0.995h0.424l-1.337-3.313H13.439z M21.939,9.683v3.313h0.849c0.168,0,0.304-0.02,0.425-0.032   c0.119-0.013,0.242-0.032,0.342-0.065c0.129-0.043,0.225-0.096,0.311-0.163l0.213-0.212l0.113-0.262l0.032-0.228   c0-0.108-0.018-0.209-0.049-0.294l-0.13-0.229l-0.213-0.146c-0.076-0.038-0.164-0.067-0.262-0.082   c0.098-0.033,0.163-0.082,0.229-0.131l0.164-0.162l0.098-0.213l0.033-0.229c0-0.101-0.018-0.191-0.049-0.277l-0.146-0.229   l-0.213-0.179c-0.085-0.05-0.174-0.087-0.277-0.114l-0.13-0.033L23.131,9.7h-0.163l-0.212-0.018H21.939z M22.332,10.058h0.456   c0.112,0,0.212-0.007,0.294,0l0.212,0.049c0.126,0.039,0.219,0.087,0.276,0.164c0.061,0.077,0.1,0.172,0.1,0.294   c0,0.118-0.042,0.223-0.1,0.31c-0.056,0.088-0.137,0.154-0.26,0.196l-0.164,0.032l-0.195,0.017h-0.619V10.058z M13.603,10.205   h0.017c0.141,0.405,0.272,0.768,0.408,1.11l0.13,0.31h-1.093l0.113-0.31C13.313,10.979,13.455,10.616,13.603,10.205z M19.64,10.499   c0.106,0.213,0.19,0.371,0.244,0.457c0.055,0.084,0.156,0.217,0.294,0.392h-4.324v0.261h4.324   c-0.187,0.195-0.369,0.485-0.538,0.849h0.212c0.232-0.26,0.435-0.469,0.604-0.604c0.168-0.134,0.326-0.239,0.506-0.326v-0.113   c-0.156-0.067-0.314-0.174-0.49-0.311c-0.175-0.137-0.379-0.342-0.619-0.604H19.64z M22.332,11.478h0.636   c0.094,0,0.165,0.012,0.229,0.017l0.179,0.017l0.195,0.082l0.133,0.113l0.08,0.146l0.016,0.181l-0.016,0.163l-0.064,0.146   l-0.131,0.131l-0.196,0.082c-0.069,0.022-0.146,0.037-0.245,0.048c-0.098,0.011-0.211,0.017-0.326,0.017h-0.488V11.478z    M31.859,18.021c-5.301,0-10.104,1.252-13.656,3.361c-3.551,2.109-5.922,5.152-5.922,8.631c0,3.48,2.371,6.518,5.922,8.632   c3.552,2.113,8.355,3.376,13.656,3.376c0.387,0,0.758-0.019,1.125-0.031c4.551,3.226,11.061,4.317,17.279,2.774l2.236-0.556   l-2.008-1.142c-2.006-1.147-3.713-2.671-5.139-4.405c3.629-2.125,6.102-5.131,6.102-8.648c0-3.48-2.367-6.521-5.922-8.631   c-3.344-1.982-7.818-3.172-12.742-3.313v-0.049H31.859z M31.859,19.864c5.004,0,9.527,1.219,12.727,3.116   c3.199,1.898,5.01,4.395,5.01,7.032c0,2.92-2.24,5.699-6.086,7.637l-0.98,0.489l0.637,0.881c1.215,1.674,2.775,3.037,4.453,4.258   c-5.152,0.722-10.316-0.342-13.834-2.953l-0.262-0.195l-0.326,0.017c-0.451,0.02-0.898,0.032-1.338,0.032   c-5.004,0-9.514-1.216-12.709-3.115c-3.197-1.901-5.01-4.411-5.01-7.05c0-2.638,1.813-5.134,5.01-7.032   C22.346,21.083,26.855,19.864,31.859,19.864z M28.727,22.851c-0.365,0.045-0.592,0.738-0.637,1.729   c-0.936-0.799-1.794-1.187-2.104-0.897c-0.212,0.197-0.116,0.677,0.195,1.272c-0.842-0.274-1.494-0.299-1.664,0   c-0.162,0.286,0.166,0.8,0.783,1.354c-0.637,0.046-1.066,0.215-1.126,0.49c-0.046,0.213,0.154,0.458,0.506,0.701   c-0.832,0.176-1.37,0.465-1.37,0.799c0,0.349,0.591,0.654,1.484,0.832c-0.375,0.322-0.572,0.625-0.489,0.85   c0.113,0.301,0.702,0.387,1.501,0.276c-0.277,0.372-0.398,0.687-0.277,0.882c0.203,0.326,0.998,0.209,1.975-0.213   c-0.107,0.489-0.09,0.865,0.113,0.996c0.254,0.16,0.719-0.086,1.24-0.572c0.15,0.723,0.412,1.195,0.717,1.207   c0.309,0.014,0.592-0.445,0.801-1.157c0.313,0.421,0.627,0.646,0.865,0.571c0.094-0.029,0.17-0.102,0.229-0.213l0.979,1.828   l-0.211-0.017c-0.893,0-1.672,0.281-2.172,0.701c0.525,0.633,1.455,1.045,2.514,1.045c0.268,0,0.52-0.033,0.766-0.082l1.502,2.79   c0.248-1.075,0.129-2.238-0.213-3.345l0.1-0.065l-0.195-0.229c-0.354-1.011-0.873-1.961-1.471-2.757   c0.072-0.226,0.055-0.57-0.064-0.996c1.061,0.18,1.869,0.092,1.99-0.276c0.107-0.327-0.354-0.787-1.127-1.225   c1.289-0.019,2.248-0.3,2.285-0.734c0.021-0.264-0.295-0.529-0.832-0.75c1.033-0.488,1.689-1.053,1.566-1.436   c-0.131-0.414-1.127-0.492-2.381-0.229c0.328-0.434,0.467-0.801,0.326-1.012c-0.193-0.286-0.84-0.213-1.664,0.131   c0.498-0.916,0.676-1.678,0.373-1.91l-0.195-0.064c-0.373-0.025-1.002,0.373-1.664,1.028c-0.041-0.729-0.207-1.233-0.506-1.289   c-0.414-0.079-0.926,0.714-1.289,1.876C29.598,23.587,29.139,22.8,28.727,22.851z M30.098,25.901c1.609,0,2.904,0.672,2.904,1.502   c0,0.828-1.295,1.5-2.904,1.5s-2.92-0.672-2.92-1.5C27.178,26.573,28.488,25.901,30.098,25.901z M38.68,30.095   c-0.824,0.008-1.9,0.412-2.855,1.143c-0.873,0.668-1.443,1.455-1.631,2.137c0.967,0.068,2.174-0.316,3.213-1.109   c0.842-0.643,1.4-1.427,1.615-2.154C38.916,30.097,38.797,30.093,38.68,30.095z"
   id="path34" />
</g>
<g
   id="g38">
</g>
<g
   id="g40">
</g>
<g
   id="g42">
</g>
<g
   id="g44">
</g>
<g
   id="g46">
</g>
<g
   id="g48">
</g>
<g
   id="g50">
</g>
<g
   id="g52">
</g>
<g
   id="g54">
</g>
<g
   id="g56">
</g>
<g
   id="g58">
</g>
<g
   id="g60">
</g>
<g
   id="g62">
</g>
<g
   id="g64">
</g>
<g
   id="g66">
</g>
</svg>