<?xml version="1.0" encoding="utf-8"?>
<!-- Generator: Adobe Illustrator 16.0.3, SVG Export Plug-In . SVG Version: 6.00 Build 0)  -->
<!DOCTYPE svg PUBLIC "-//W3C//DTD SVG 1.1//EN" "http://www.w3.org/Graphics/SVG/1.1/DTD/svg11.dtd" [
	<!ENTITY ns_extend "http://ns.adobe.com/Extensibility/1.0/">
	<!ENTITY ns_ai "http://ns.adobe.com/AdobeIllustrator/10.0/">
	<!ENTITY ns_graphs "http://ns.adobe.com/Graphs/1.0/">
	<!ENTITY ns_vars "http://ns.adobe.com/Variables/1.0/">
	<!ENTITY ns_imrep "http://ns.adobe.com/ImageReplacement/1.0/">
	<!ENTITY ns_sfw "http://ns.adobe.com/SaveForWeb/1.0/">
	<!ENTITY ns_custom "http://ns.adobe.com/GenericCustomNamespace/1.0/">
	<!ENTITY ns_adobe_xpath "http://ns.adobe.com/XPath/1.0/">
]>
<svg version="1.1" id="Ebene_1" xmlns:x="&ns_extend;" xmlns:i="&ns_ai;" xmlns:graph="&ns_graphs;"
	 xmlns="http://www.w3.org/2000/svg" xmlns:xlink="http://www.w3.org/1999/xlink" x="0px" y="0px" width="300px" height="300px"
	 viewBox="0 0 300 300" enable-background="new 0 0 300 300" xml:space="preserve">
<metadata>
	<sfw  xmlns="&ns_sfw;">
		<slices></slices>
		<sliceSourceBounds  height="309.582" width="300" x="-50.5" y="-57.082" bottomLeftOrigin="true"></sliceSourceBounds>
	</sfw>
</metadata>
<path fill="#C18C2F" d="M228,298H72c-39.604,0-72-16.9-72-56.5V58C0,18.4,32.397-2,72-2h156c39.601,0,72,20.9,72,60.5V242
	C300,281.6,267.599,298,228,298z"/>
<rect x="0.757" y="228.086" fill="none" width="298.483" height="79.496"/>
<g enable-background="new    ">
	<path fill="#FFFFFF" d="M53.906,233.363h-9.841v-3.552h23.954v3.552H58.13v28.803h-4.224V233.363z"/>
	<path fill="#FFFFFF" d="M81.266,262.166l-0.336-2.929h-0.144c-1.296,1.824-3.792,3.457-7.104,3.457
		c-4.704,0-7.104-3.313-7.104-6.673c0-5.616,4.992-8.688,13.969-8.641v-0.48c0-1.92-0.528-5.376-5.28-5.376
		c-2.161,0-4.417,0.672-6.049,1.728l-0.96-2.784c1.92-1.248,4.704-2.063,7.633-2.063c7.104,0,8.833,4.848,8.833,9.505v8.688
		c0,2.016,0.096,3.984,0.384,5.568H81.266z M80.642,250.309c-4.608-0.096-9.841,0.721-9.841,5.232c0,2.736,1.824,4.033,3.984,4.033
		c3.024,0,4.945-1.921,5.617-3.889c0.144-0.432,0.24-0.912,0.24-1.344V250.309z"/>
	<path fill="#FFFFFF" d="M110.978,255.829c0,2.4,0.048,4.513,0.192,6.337h-3.745l-0.24-3.792h-0.096
		c-1.104,1.872-3.552,4.32-7.681,4.32c-3.648,0-8.017-2.017-8.017-10.177v-13.586h4.224v12.865c0,4.417,1.344,7.393,5.185,7.393
		c2.833,0,4.8-1.968,5.568-3.84c0.24-0.624,0.384-1.393,0.384-2.16v-14.258h4.224V255.829z"/>
	<path fill="#FFFFFF" d="M123.073,232.26v6.672h6.048v3.217h-6.048v12.529c0,2.88,0.816,4.512,3.168,4.512
		c1.104,0,1.92-0.144,2.448-0.288l0.192,3.169c-0.816,0.336-2.112,0.576-3.745,0.576c-1.968,0-3.552-0.624-4.56-1.776
		c-1.2-1.248-1.632-3.313-1.632-6.049v-12.673h-3.6v-3.217h3.6v-5.568L123.073,232.26z"/>
	<path fill="#FFFFFF" d="M154.61,250.357c0,8.593-5.952,12.337-11.569,12.337c-6.289,0-11.137-4.608-11.137-11.953
		c0-7.776,5.088-12.337,11.521-12.337C150.098,238.404,154.61,243.252,154.61,250.357z M136.177,250.597
		c0,5.089,2.928,8.929,7.057,8.929c4.032,0,7.056-3.792,7.056-9.024c0-3.937-1.968-8.929-6.96-8.929
		C138.337,241.572,136.177,246.181,136.177,250.597z"/>
	<path fill="#FFFFFF" d="M159.936,228.083h4.225v34.083h-4.225V228.083z"/>
	<path fill="#FFFFFF" d="M192.289,250.357c0,8.593-5.953,12.337-11.569,12.337c-6.288,0-11.137-4.608-11.137-11.953
		c0-7.776,5.088-12.337,11.521-12.337C187.777,238.404,192.289,243.252,192.289,250.357z M173.856,250.597
		c0,5.089,2.928,8.929,7.057,8.929c4.032,0,7.057-3.792,7.057-9.024c0-3.937-1.969-8.929-6.961-8.929
		S173.856,246.181,173.856,250.597z"/>
	<path fill="#FFFFFF" d="M217.633,238.932c-0.097,1.681-0.192,3.553-0.192,6.385v13.489c0,5.328-1.057,8.593-3.313,10.609
		c-2.256,2.111-5.521,2.784-8.448,2.784c-2.784,0-5.856-0.673-7.729-1.921l1.057-3.216c1.536,0.96,3.937,1.824,6.816,1.824
		c4.32,0,7.488-2.256,7.488-8.113v-2.592h-0.096c-1.296,2.16-3.792,3.889-7.393,3.889c-5.761,0-9.889-4.896-9.889-11.329
		c0-7.873,5.137-12.337,10.465-12.337c4.032,0,6.24,2.112,7.249,4.032h0.096l0.192-3.505H217.633z M213.264,248.101
		c0-0.72-0.048-1.344-0.239-1.92c-0.769-2.448-2.833-4.465-5.905-4.465c-4.032,0-6.912,3.409-6.912,8.785
		c0,4.561,2.304,8.353,6.864,8.353c2.593,0,4.944-1.632,5.856-4.32c0.24-0.72,0.336-1.536,0.336-2.256V248.101z"/>
	<path fill="#FFFFFF" d="M228.864,232.403c0.048,1.44-1.009,2.593-2.688,2.593c-1.488,0-2.544-1.152-2.544-2.593
		c0-1.488,1.104-2.64,2.64-2.64C227.855,229.764,228.864,230.915,228.864,232.403z M224.158,262.166v-23.234h4.225v23.234H224.158z"
		/>
	<path fill="#FFFFFF" d="M237.742,251.317c0.096,5.712,3.744,8.064,7.969,8.064c3.024,0,4.849-0.528,6.433-1.2l0.72,3.024
		c-1.488,0.672-4.032,1.44-7.729,1.44c-7.152,0-11.425-4.705-11.425-11.714c0-7.008,4.128-12.528,10.896-12.528
		c7.585,0,9.602,6.672,9.602,10.944c0,0.864-0.097,1.536-0.145,1.969H237.742z M250.127,248.293
		c0.049-2.688-1.104-6.865-5.856-6.865c-4.272,0-6.145,3.937-6.48,6.865H250.127z"/>
</g>
<g>
	<g>
		<path opacity="0.4" fill="#FFFFFF" enable-background="new    " d="M148.684,23.5c-46.208,0-83.667,37.459-83.667,83.666
			c0,20.148,11.929,47.424,11.929,47.424l-25.499,35.998l46.047-17.266c14.149,10.967,31.9,17.512,51.19,17.512
			c46.207,0,83.666-37.459,83.666-83.668C232.35,60.959,194.891,23.5,148.684,23.5z"/>
	</g>
	<path fill="#FFFFFF" d="M220.462,190.305l-15.866-48.244h-47.485l-15.425,48.244h-27.448L167.14,29.492h28.283l53.131,160.813
		H220.462z M198.183,119.159l-12.924-39.241c-1.765-5.353-3.219-10.441-4.524-15.361c-1.433,5.408-2.841,10.348-4.284,15.061
		l-12.956,39.542L198.183,119.159L198.183,119.159z"/>
</g>
</svg>
