<svg xmlns="http://www.w3.org/2000/svg" xmlns:xlink="http://www.w3.org/1999/xlink" width="300" height="300" viewBox="0 0 300 300"><switch><g><symbol id="a" viewBox="-150 -150 300 300.015"><path fill="#AEBCC4" d="M150-97.015c0-6.763 0-52.985-71.5-52.985H-84c-62.5 0-66 47.223-66 53.985v186c0 54.5 59.235 60 66 60l161.5.029c6.765 0 72.5-.029 72.5-60.029v-187z"/></symbol><use xlink:href="#a" width="300" height="300.015" x="-150" y="-150" transform="matrix(1 0 0 -1 150 150)" overflow="visible"/><g fill="#080828"><path d="M62.754 225.657c2.208-.384 5.521-.672 8.929-.672 4.657 0 7.825.768 9.985 2.592 1.776 1.488 2.784 3.745 2.784 6.48 0 4.177-2.832 7.009-5.856 8.113v.144c2.304.864 3.696 3.12 4.513 6.241 1.008 4.032 1.872 7.776 2.544 9.024h-6.096c-.48-.96-1.249-3.601-2.16-7.633-.912-4.225-2.448-5.568-5.809-5.664H68.61v13.297h-5.856v-31.922zm5.856 14.306h3.504c3.984 0 6.48-2.112 6.48-5.329 0-3.552-2.496-5.185-6.336-5.185-1.872 0-3.072.145-3.648.288v10.226zM112.195 245.675c0 8.593-6.048 12.434-12.001 12.434-6.625 0-11.713-4.561-11.713-12.05 0-7.68 5.041-12.385 12.097-12.385 6.961 0 11.617 4.896 11.617 12.001zm-17.617.24c0 4.513 2.208 7.921 5.808 7.921 3.36 0 5.713-3.313 5.713-8.017 0-3.648-1.632-7.825-5.665-7.825-4.176 0-5.856 4.032-5.856 7.921zM123.81 227.529v6.673h5.616v4.416h-5.616v10.321c0 2.832.768 4.32 3.024 4.32a8.765 8.765 0 0 0 2.304-.288l.096 4.513c-.864.336-2.4.576-4.272.576-2.16 0-3.984-.721-5.088-1.921-1.248-1.344-1.824-3.456-1.824-6.528v-10.993h-3.36v-4.416h3.36v-5.28l5.76-1.393zM140.178 227.674c0 1.775-1.296 3.168-3.36 3.168-1.968 0-3.265-1.393-3.265-3.168 0-1.824 1.344-3.217 3.313-3.217 2.015 0 3.263 1.393 3.312 3.217zm-6.289 29.906v-23.378h5.952v23.378h-5.952zM150.354 247.547c.144 4.225 3.456 6.049 7.2 6.049 2.736 0 4.705-.384 6.48-1.056l.864 4.08c-2.016.816-4.8 1.44-8.16 1.44-7.585 0-12.049-4.657-12.049-11.81 0-6.48 3.936-12.577 11.425-12.577 7.584 0 10.08 6.24 10.08 11.377 0 1.104-.096 1.969-.191 2.496h-15.649zm10.272-4.128c.048-2.16-.912-5.713-4.848-5.713-3.648 0-5.185 3.313-5.425 5.713h10.273zM170.944 241.738c0-3.168-.048-5.424-.191-7.536h5.136l.192 4.464h.192c1.151-3.312 3.888-4.992 6.384-4.992.576 0 .912.048 1.393.145v5.568a8.145 8.145 0 0 0-1.729-.192c-2.832 0-4.752 1.824-5.28 4.465a10.12 10.12 0 0 0-.191 1.824v12.097h-5.905v-15.843zM191.777 247.547c.144 4.225 3.456 6.049 7.2 6.049 2.736 0 4.705-.384 6.48-1.056l.864 4.08c-2.016.816-4.8 1.44-8.16 1.44-7.585 0-12.05-4.657-12.05-11.81 0-6.48 3.937-12.577 11.426-12.577 7.584 0 10.08 6.24 10.08 11.377 0 1.104-.096 1.969-.191 2.496h-15.649zm10.273-4.128c.048-2.16-.912-5.713-4.848-5.713-3.648 0-5.185 3.313-5.425 5.713h10.273zM212.368 241.163c0-2.688-.048-4.945-.191-6.961h5.185l.287 3.504h.145c1.008-1.824 3.553-4.032 7.44-4.032 4.08 0 8.305 2.641 8.305 10.033v13.873h-5.904v-13.201c0-3.36-1.248-5.904-4.465-5.904-2.352 0-3.983 1.68-4.608 3.456-.191.528-.239 1.248-.239 1.92v13.729h-5.953v-16.417z"/></g><linearGradient id="b" gradientUnits="userSpaceOnUse" x1="55.978" y1="126.492" x2="257" y2="126.492"><stop offset="0" stop-color="#fff" stop-opacity="0"/><stop offset="1" stop-color="#fff"/></linearGradient><path fill-rule="evenodd" clip-rule="evenodd" fill="url(#b)" d="M152.5 151.5l-95 36.5s-21-115.5 93-123c0 0 86-4 106.5 112.5l-104.5-26z"/><path fill-rule="evenodd" clip-rule="evenodd" fill="#080828" d="M184.977 156.958c2.323 6.206-.824 13.122-7.03 15.446l-30.905 11.572c-6.207 2.323-13.122-.824-15.446-7.03l-11.572-30.905c-2.324-6.207.823-13.122 7.03-15.446l30.904-11.572c6.206-2.324 13.122.823 15.446 7.03l11.573 30.905z"/><circle fill-rule="evenodd" clip-rule="evenodd" fill="#C1272D" cx="152.25" cy="150.25" r="14.75"/><path fill="#FFF" d="M84.854 32.483c.024-.252.339-.687.681-.673a225.756 225.756 0 0 1 38.806 4.471c.337.073.554.332.487.576a1573.606 1573.606 0 0 0-8.086 27.848c-.067.244-.414.628-.706.567a189.441 189.441 0 0 0-10.067-12.325c-18.851 10.554-34.663 23.7-47.058 38.224a153.454 153.454 0 0 1 10.377 9.648c.002.254-.412.478-.648.491a155.857 155.857 0 0 0-26.595 4.102c-.231.052-.456-.108-.502-.357a1604.491 1604.491 0 0 1-4.669-28.568c-.043-.251.407-.558.682-.617a166.385 166.385 0 0 1 11.512 7.598c12.38-15.254 28.238-29.208 47.226-40.647a203.82 203.82 0 0 0-11.44-10.338z"/></g></switch></svg>