<svg xmlns="http://www.w3.org/2000/svg" xmlns:xlink="http://www.w3.org/1999/xlink" width="300" height="300" viewBox="0 0 300 300"><switch><g><symbol id="a" viewBox="-150 -150 300 300.015"><path fill="#AEBCC4" d="M150-97.015c0-6.763 0-52.985-71.5-52.985H-84c-62.5 0-66 47.223-66 53.985v186c0 54.5 59.235 60 66 60l161.5.029c6.765 0 72.5-.029 72.5-60.029v-187z"/></symbol><use xlink:href="#a" width="300" height="300.015" x="-150" y="-150" transform="matrix(1 0 0 -1 150 150)" overflow="visible"/><defs><path id="b" d="M232.275 271.563H69.83c-22.026 0-39.882-17.856-39.882-39.882V69.236c0-22.026 17.855-39.882 39.882-39.882h162.446c22.025 0 39.882 17.856 39.882 39.882v162.446c-.001 22.025-17.857 39.881-39.883 39.881z"/></defs><clipPath id="c"><use xlink:href="#b" overflow="visible"/></clipPath><path clip-path="url(#c)" fill-rule="evenodd" clip-rule="evenodd" fill="#FFF" d="M47.191 510.981c0 2.434 2.92 4.868 3.407 8.274.974 3.895 1.46 12.655 1.46 14.116 0 .973-1.947 15.575-1.947 17.035 0 .974 4.38 8.274 4.38 9.735v17.522c1.947 5.354 7.788 16.549 7.788 22.876 0 1.46-1.46 7.788-1.46 9.248 0 .974 3.407 9.248 3.407 10.708 0 .974-3.894 17.036-3.894 18.01 0 1.46 3.407 12.655 3.407 14.115 0 2.434-.974 4.867-4.867 7.301-.974-7.301-1.947-15.089-2.92-21.903-1.947-16.062-3.407-33.098-5.841-49.16-1.947-15.575-8.761-40.886-8.761-57.435v-10.708c1.46-5.354 1.947-11.195 2.434-17.036v-13.142c.487-.487 1.46-.974 2.434-1.947.486 2.435-.488 5.356.973 22.391zm267.705.488c0 10.222-3.894 22.876-5.354 34.071l.487 75.931c-.487 3.407-1.947 7.301-2.434 11.195-.974 4.867-.974 11.194-1.46 17.035-.487 0-1.461.487-1.947.487 0-1.947 0-4.867-.974-6.328-.974-3.407-4.381-9.248-4.381-10.221 0-1.461 1.46-3.407 1.46-4.868 0-.973-4.38-5.841-4.38-6.813 0-1.461 1.46-4.381 1.946-6.328l-.486-12.168c8.762-11.195 6.814-22.39 9.734-33.099v-12.654c-1.46-7.788-4.867-19.957-4.867-28.718l1.46-15.576c-.486-4.867-2.434-14.115-2.434-15.088 0-1.461.487-.974.487-1.461 2.92-.486 3.407-5.354 4.867-7.301 1.46-1.46 4.381-2.434 6.327-3.407.975 8.275 1.949 23.85 1.949 25.311zM136.75 27.653c-1.46.974-2.434 2.434-3.894 3.894 2.434-.487 5.354 0 7.301-.487 1.947 0 3.894-1.46 5.354-1.947 0 0 .487 0 .974.487-.974.973-2.434 2.434-2.92 3.894h3.894c4.868-4.381 9.248-3.407 13.142-3.407 2.92 0 6.813-.487 10.221 1.46-1.946.487-4.38.974-6.813 2.434 0 0-.487.487.973.487.974 0 7.302-1.947 8.762-1.947.974 0 2.92.487 4.381.974-.487.486-1.461.486-1.947.973 2.92.487 5.841.974 8.762 1.947l-.974.974c14.602 6.328 31.638 17.522 44.293 34.072 3.894 4.867 1.946 11.682 3.407 17.522l.486 18.982c0 6.814-1.46 18.496-1.46 19.47 0 1.46 1.46 12.168 1.46 13.142 0 30.177-22.39 20.93-22.39 47.701v20.442c7.787 8.762 12.655 21.903 23.85 26.771 22.877 10.708 46.727 18.982 70.09 30.178 13.629 6.814 35.046 17.522 41.373 35.531a813.677 813.677 0 0 1 14.602 45.267c7.788 28.23 15.576 56.948 23.851 85.666 2.434 8.761 8.274 25.797 8.274 26.771 0 6.327-21.903 16.062-25.797 19.469l-.487 80.799c-3.894 19.956-8.761 42.832-13.628 63.275-6.328 27.744-14.603 55.488-20.443 83.719-.974 4.381.487 13.142.487 14.602 0 20.93-15.576 59.869-15.576 81.285v76.904L303.7 1020.595v8.761c-2.434 18.982-6.327 39.912-13.142 59.382-1.46 3.894-1.947 9.248-2.434 14.115-.486 6.328-1.46 19.47-1.46 20.93 0 .974-1.947 18.496-2.434 27.744-.974 8.274-.974 17.036-1.461 25.797-.486 9.735-.973 19.47-1.946 29.204-.487 4.381-12.655 77.391-12.655 94.914 0 1.46 1.46 9.734 1.46 10.708 0 1.46-.974 8.761-.974 10.222 0 5.841 5.354 15.088 9.248 20.93 5.354 7.787 13.629 13.628 13.629 20.929 0 15.576-31.151 15.576-36.505 15.576-14.115 0-27.258-1.947-40.886-4.867-2.921-.487-5.841-.974-7.788-2.435-7.301-3.894-18.01-6.813-20.93-16.549-.486-.973.486-1.946.486-3.406 0-.974-1.946-8.275-1.946-12.169 0-13.142.974-18.982.974-20.442 0-5.354-11.195-13.143-11.195-30.665 0-1.46.974-9.248 1.46-14.115v-30.664c3.407-25.797 12.169-54.028 17.036-79.338.486-4.868.486-13.629.486-14.603v-37.965c.974-6.814 2.434-20.443 2.434-21.417l-5.354-53.541V916.92l-9.248-112.437c-7.788 35.532-16.549 73.984-20.93 110.003l.486 67.656c-.974 9.248-.974 18.982-3.407 28.717-1.46 4.867-4.867 10.222-6.327 15.576-1.947 5.354-2.92 12.168-4.868 18.009-1.947 7.301-5.354 14.603-5.354 21.903 0 12.655 4.868 24.823 7.788 38.452l-4.868 26.771v11.195l-7.301 62.788c.486 6.814 1.46 18.983 1.46 20.443 0 16.063-3.894 33.098-3.894 39.426 0 14.115 12.168 27.257 12.168 41.372 0 .974-.973 6.328-1.46 9.248-.487 1.46-.974 4.381-1.46 6.814 0 .974-.973 3.407-1.46 4.867-1.947 6.814-8.274 19.956-8.274 21.416 0 .974 1.947 20.443 1.947 21.903 0 2.434 0 6.328-1.947 9.735-4.868 7.787-28.231 10.221-37.479 10.221-8.274 0-45.753-.486-45.753-18.496 0-12.654 11.682-37.965 11.682-47.699 0-.974-2.434-11.195-2.434-17.036-.974-15.575-5.841-31.151-10.708-46.727-1.947-5.841-1.947-12.655-2.434-18.496-.973-9.734-1.46-19.47-1.947-29.204l-3.407-62.789v-110.976c.487-1.46.487-2.921.487-4.381-.974-6.814 6.814-15.575 6.814-21.903 0-5.841-4.868-12.168-10.222-18.496-1.947-2.434-8.274-19.956-8.274-24.823v-9.248l4.38-38.938c0-17.522-.487-23.851-1.46-58.896 0-.486.487-11.682.973-75.931l.974-67.17c-3.407-14.602-5.841-30.177-9.735-44.779-5.841-22.39-14.602-44.293-19.469-66.196-3.407-16.062-5.354-32.611-7.301-48.673-1.46-11.195-1.46-22.877-2.92-33.585-1.947-14.115-4.867-28.718-7.301-42.833-5.841-2.92-13.142-6.327-19.469-9.734-9.735-4.381-19.957-9.248-30.178-14.603v-.974c0-.974 3.894-13.628 5.354-19.469 11.682-42.833 30.178-86.152 46.727-128.499 5.841-16.062 29.691-32.124 42.833-36.991 19.956-7.302 40.399-17.036 60.355-26.284 1.46-.486.974-2.921 1.46-3.894 1.947-2.434 4.38-5.841 6.814-8.274 6.814-6.328 15.576-3.895 15.576-13.629 0-1.46 0-1.947-.487-2.921-12.168-7.787-16.062-23.363-18.496-33.584-1.46-6.328-4.381-12.169-5.841-18.01-1.947-7.788-1.947-16.549-5.354-24.337 0-.973-13.628-20.443-13.628-24.823v-47.7c1.947-7.788 11.195-11.195 17.522-16.549.974-.974 1.46-2.434 1.947-3.894.974-2.434 5.841-9.248 9.735-8.761-1.46 1.46-3.407 3.894-3.407 5.354v2.434l.974.974c4.38-2.434 3.894-10.708 11.195-11.682 0 .487-.974 1.46-.487 2.434 1.947-2.434 5.354-6.814 6.814-6.814.974 0 .487.973.974 1.46.486-2.434 3.894-3.894 6.328-4.381 0 1.46-.487 2.921 0 4.381 2.92-2.434 6.327-5.354 9.734-7.301h2.435z"/><g fill="#080828"><path d="M146.54 268.953c-1.392.721-4.464 1.441-8.353 1.441-10.273 0-16.514-6.434-16.514-16.273 0-10.658 7.393-17.09 17.282-17.09 3.888 0 6.672.816 7.873 1.439l-1.296 4.705c-1.536-.672-3.648-1.248-6.337-1.248-6.577 0-11.329 4.127-11.329 11.904 0 7.105 4.176 11.666 11.281 11.666 2.4 0 4.896-.48 6.433-1.201l.96 4.657zM157.434 237.559v18.865c0 6.338 2.641 9.266 6.625 9.266 4.273 0 6.816-2.928 6.816-9.266v-18.865h5.904v18.482c0 9.984-5.137 14.4-12.912 14.4-7.488 0-12.338-4.176-12.338-14.354v-18.529h5.905z"/></g></g></switch></svg>