<?xml version="1.0" encoding="utf-8"?>
<!-- Generator: Adobe Illustrator 22.0.1, SVG Export Plug-In . SVG Version: 6.00 Build 0)  -->
<svg version="1.1" id="Ebene_1" xmlns="http://www.w3.org/2000/svg" xmlns:xlink="http://www.w3.org/1999/xlink" x="0px" y="0px"
	 viewBox="0 0 300.5 300.5" style="enable-background:new 0 0 300.5 300.5;" xml:space="preserve">
<style type="text/css">
	.st0{fill:#EACD99;}
	.st1{enable-background:new    ;}
	.st2{fill:#C1272D;}
	.st3{fill:#3A3326;}
	.st4{fill:none;stroke:#000000;stroke-width:3.0947;stroke-miterlimit:10;}
	.st5{fill:none;stroke:#FFFFFF;stroke-width:4;stroke-miterlimit:10;}
	.st6{fill:none;stroke:#C1272D;stroke-width:4;stroke-miterlimit:10;}
</style>
<path class="st0" d="M238.2,300.5H62.4c-34.3,0-62.4-28-62.4-62.3V62.4C0,28.1,28.1,0,62.4,0h175.8c34.3,0,62.4,28.1,62.4,62.4
	v175.8C300.5,272.5,272.5,300.5,238.2,300.5z"/>
<g>
	<g class="st1">
		<path d="M144.1,37.6c1.1,0.6,3.6,1.6,6,1.6c3.2,0,4.8-1.5,4.8-3.5c0-2.6-2.6-3.7-5.2-3.7h-2.5v-4.4h2.4c2,0,4.6-0.8,4.6-3
			c0-1.6-1.3-2.7-3.8-2.7c-2.1,0-4.4,0.9-5.4,1.6l-1.2-4.4c1.6-1,4.7-2,8-2c5.6,0,8.6,2.9,8.6,6.5c0,2.8-1.6,4.9-4.8,6v0.1
			c3.1,0.6,5.6,2.9,5.6,6.3c0,4.6-4,8-10.6,8c-3.4,0-6.2-0.9-7.7-1.8L144.1,37.6z"/>
	</g>
</g>
<g>
	<g class="st1">
		<path d="M73.5,117.3v-3.7l3.4-3c5.7-5.1,8.4-8,8.5-11c0-2.1-1.3-3.8-4.3-3.8c-2.2,0-4.2,1.1-5.6,2.2l-1.7-4.4c2-1.5,5-2.7,8.5-2.7
			c5.9,0,9.1,3.4,9.1,8.2c0,4.4-3.2,7.8-6.9,11.2l-2.4,2v0.1H92v5H73.5z"/>
	</g>
</g>
<g>
	<g class="st1">
		<path class="st2" d="M222.4,117.9v-9h-16.7v-5.7l14.3-23h10.8v22.1h4.5v6.6h-4.5v9H222.4z M222.4,102.3V94c0-2.3,0.1-4.6,0.3-7
			h-0.2c-1.2,2.4-2.2,4.6-3.5,7l-5,8.2v0.1H222.4z"/>
	</g>
</g>
<g class="st1">
	<path d="M278.3,178h-10.1l-0.6,4c0.6-0.1,1-0.1,1.7-0.1c2.5,0,5,0.6,6.8,1.9c2,1.3,3.2,3.5,3.2,6.5c0,4.8-4.2,9.1-11.2,9.1
		c-3.2,0-5.8-0.7-7.2-1.5l1.1-4.6c1.2,0.6,3.5,1.3,5.9,1.3c2.5,0,5.2-1.2,5.2-4c0-2.7-2.1-4.3-7.3-4.3c-1.4,0-2.4,0.1-3.5,0.2
		L264,173h14.3V178z"/>
</g>
<g>
	<g class="st1">
		<path d="M36.5,177.7L36.5,177.7l-5,2.4l-1-4.6l6.9-3.2h5v26h-5.9V177.7z"/>
	</g>
</g>
<g class="st1">
	<path class="st3" d="M27.8,219.6h18.7v4.8H33.7v8.9h11.9v4.8H33.7V252h-5.9V219.6z"/>
	<path class="st3" d="M63.2,252l-0.4-2.6h-0.1c-1.4,1.8-3.9,3.1-6.9,3.1c-4.7,0-7.3-3.4-7.3-7c0-5.9,5.2-8.9,13.9-8.8v-0.4
		c0-1.5-0.6-4.1-4.8-4.1c-2.3,0-4.7,0.7-6.3,1.7l-1.2-3.8c1.7-1.1,4.8-2.1,8.4-2.1c7.5,0,9.6,4.8,9.6,9.8v8.4c0,2.1,0.1,4.2,0.3,5.6
		H63.2z M62.4,240.5c-4.2-0.1-8.2,0.8-8.2,4.4c0,2.3,1.5,3.4,3.4,3.4c2.4,0,4.1-1.5,4.6-3.2c0.1-0.4,0.2-0.9,0.2-1.3V240.5z"/>
	<path class="st3" d="M74.4,217.9h6V252h-6V217.9z"/>
	<path class="st3" d="M86.7,217.9h6V252h-6V217.9z"/>
	<path class="st3" d="M96.3,253.9l11.7-34.8h4.1l-11.7,34.8H96.3z"/>
	<path class="st3" d="M121.3,219.6v18.9c0,6.3,2.6,9.3,6.6,9.3c4.3,0,6.8-2.9,6.8-9.3v-18.9h5.9v18.5c0,10-5.1,14.4-12.9,14.4
		c-7.5,0-12.3-4.2-12.3-14.4v-18.5H121.3z"/>
	<path class="st3" d="M147.2,235.6c0-2.7,0-4.9-0.2-7h5.1l0.2,3.5h0.1c1.2-1.8,3.3-4,7.2-4c3.1,0,5.5,1.7,6.5,4.3h0.1
		c0.8-1.3,1.8-2.3,2.9-2.9c1.3-0.9,2.8-1.4,4.7-1.4c3.9,0,7.8,2.6,7.8,10.1V252h-5.8v-12.9c0-3.9-1.3-6.2-4.2-6.2
		c-2,0-3.5,1.4-4.1,3.1c-0.1,0.6-0.3,1.3-0.3,2v14h-5.8v-13.5c0-3.3-1.3-5.6-4-5.6c-2.2,0-3.7,1.7-4.2,3.4c-0.2,0.6-0.3,1.2-0.3,1.9
		V252h-5.8V235.6z"/>
	<path class="st3" d="M193.8,238.9L193.8,238.9c0.7-0.9,1.3-1.9,2-2.7l5.7-7.5h7.1l-8.6,9.6l9.9,13.8h-7.2l-6.7-10.3l-2,2.4v8h-5.9
		v-34.1h5.9V238.9z"/>
	<path class="st3" d="M216.2,241.9c0.1,4.2,3.5,6,7.2,6c2.7,0,4.7-0.4,6.5-1.1l0.9,4.1c-2,0.8-4.8,1.4-8.2,1.4
		c-7.6,0-12-4.7-12-11.8c0-6.5,3.9-12.6,11.4-12.6c7.6,0,10.1,6.2,10.1,11.4c0,1.1-0.1,2-0.2,2.5H216.2z M226.4,237.8
		c0-2.2-0.9-5.7-4.8-5.7c-3.6,0-5.2,3.3-5.4,5.7H226.4z"/>
	<path class="st3" d="M236.8,217.9h6v13.9h0.1c0.7-1.1,1.7-2,2.9-2.7c1.2-0.7,2.5-1.1,4-1.1c4,0,8.2,2.6,8.2,10.1V252H252v-13.1
		c0-3.4-1.2-6-4.5-6c-2.3,0-3.9,1.5-4.6,3.3c-0.2,0.5-0.2,1.1-0.2,1.8v14h-6V217.9z"/>
	<path class="st3" d="M264.2,236.1c0-3.2,0-5.4-0.2-7.5h5.1l0.2,4.5h0.2c1.2-3.3,3.9-5,6.4-5c0.6,0,0.9,0,1.4,0.1v5.6
		c-0.5-0.1-1-0.2-1.7-0.2c-2.8,0-4.8,1.8-5.3,4.5c-0.1,0.5-0.2,1.2-0.2,1.8V252h-5.9V236.1z"/>
</g>
<g>
	<g>
		<line class="st4" x1="141.3" y1="89.7" x2="69.7" y2="183.2"/>
		<g>
			<polygon points="135.3,87.3 146.7,82.6 145.1,94.9 			"/>
		</g>
	</g>
</g>
<g>
	<g>
		<line class="st4" x1="231.3" y1="178.4" x2="159.7" y2="84.9"/>
		<g>
			<polygon points="235.1,173.3 236.7,185.5 225.3,180.8 			"/>
		</g>
	</g>
</g>
<path class="st5" d="M252,183L152.4,52.9c-2.6,3.4-99.5,130-99.5,130"/>
<path class="st6" d="M91.4,133"/>
<path class="st6" d="M130,82.6"/>
<path class="st6" d="M175.1,82.6c2.6,3.4,38.5,50.3,38.5,50.3"/>
</svg>
