<?xml version="1.0" encoding="UTF-8" standalone="no"?>
<!-- Generator: Adobe Illustrator 16.0.3, SVG Export Plug-In . SVG Version: 6.00 Build 0)  -->

<svg
   xmlns:dc="http://purl.org/dc/elements/1.1/"
   xmlns:cc="http://creativecommons.org/ns#"
   xmlns:rdf="http://www.w3.org/1999/02/22-rdf-syntax-ns#"
   xmlns:svg="http://www.w3.org/2000/svg"
   xmlns="http://www.w3.org/2000/svg"
   xmlns:sodipodi="http://sodipodi.sourceforge.net/DTD/sodipodi-0.dtd"
   xmlns:inkscape="http://www.inkscape.org/namespaces/inkscape"
   version="1.1"
   id="Ebene_1"
   x="0px"
   y="0px"
   width="60px"
   height="60px"
   viewBox="0 0 60 60"
   style="enable-background:new 0 0 60 60;"
   xml:space="preserve"
   sodipodi:docname="visual_qr_chewbacca_de.svg"
   inkscape:version="0.92.4 (5da689c313, 2019-01-14)"><metadata
   id="metadata93"><rdf:RDF><cc:Work
       rdf:about=""><dc:format>image/svg+xml</dc:format><dc:type
         rdf:resource="http://purl.org/dc/dcmitype/StillImage" /><dc:title></dc:title></cc:Work></rdf:RDF></metadata><defs
   id="defs91" /><sodipodi:namedview
   pagecolor="#ffffff"
   bordercolor="#666666"
   borderopacity="1"
   objecttolerance="10"
   gridtolerance="10"
   guidetolerance="10"
   inkscape:pageopacity="0"
   inkscape:pageshadow="2"
   inkscape:window-width="731"
   inkscape:window-height="480"
   id="namedview89"
   showgrid="false"
   inkscape:zoom="3.9333333"
   inkscape:cx="30"
   inkscape:cy="30"
   inkscape:window-x="0"
   inkscape:window-y="0"
   inkscape:window-maximized="0"
   inkscape:current-layer="Ebene_1" />
<rect
   style="fill:#A0B983;"
   width="60"
   height="60"
   id="rect2" />
<g
   id="g48">
	<path
   style="fill:#FFFFFF;"
   d="M15.743,50.498c-0.203,0.104-0.651,0.21-1.218,0.21c-1.499,0-2.41-0.938-2.41-2.375   c0-1.555,1.079-2.493,2.521-2.493c0.567,0,0.974,0.119,1.149,0.21l-0.189,0.687c-0.224-0.098-0.532-0.182-0.924-0.182   c-0.959,0-1.653,0.603-1.653,1.736c0,1.037,0.609,1.702,1.646,1.702c0.351,0,0.715-0.07,0.939-0.175L15.743,50.498z"
   id="path4" />
	<path
   style="fill:#FFFFFF;"
   d="M16.351,45.665h0.868v2.031h0.014c0.105-0.161,0.245-0.294,0.427-0.393   c0.168-0.098,0.371-0.154,0.588-0.154c0.581,0,1.19,0.386,1.19,1.479v2.01h-0.861v-1.912c0-0.497-0.182-0.868-0.658-0.868   c-0.336,0-0.575,0.224-0.666,0.483c-0.028,0.069-0.035,0.161-0.035,0.259v2.038h-0.868V45.665z"
   id="path6" />
	<path
   style="fill:#FFFFFF;"
   d="M20.894,49.174c0.021,0.616,0.504,0.883,1.05,0.883c0.399,0,0.687-0.057,0.946-0.154l0.126,0.596   c-0.294,0.118-0.701,0.21-1.191,0.21c-1.106,0-1.758-0.68-1.758-1.724c0-0.945,0.574-1.835,1.667-1.835   c1.106,0,1.471,0.911,1.471,1.66c0,0.161-0.014,0.287-0.028,0.364H20.894z M22.393,48.571c0.007-0.314-0.133-0.833-0.708-0.833   c-0.532,0-0.756,0.483-0.791,0.833H22.393z"
   id="path8" />
	<path
   style="fill:#FFFFFF;"
   d="M24.324,47.227l0.357,1.548c0.077,0.364,0.154,0.735,0.217,1.106h0.014   c0.07-0.371,0.182-0.749,0.28-1.1l0.441-1.555h0.701l0.427,1.513c0.105,0.399,0.196,0.771,0.273,1.142h0.014   c0.056-0.371,0.133-0.742,0.224-1.142l0.378-1.513h0.848l-1.072,3.411h-0.798l-0.406-1.387c-0.105-0.357-0.182-0.68-0.259-1.093   h-0.014c-0.07,0.42-0.161,0.757-0.259,1.093l-0.434,1.387H24.45l-1.008-3.411H24.324z"
   id="path10" />
	<path
   style="fill:#FFFFFF;"
   d="M28.951,50.638c0.014-0.231,0.027-0.609,0.027-0.96v-4.013h0.861v2.031h0.015   c0.21-0.329,0.581-0.547,1.093-0.547c0.833,0,1.428,0.693,1.422,1.73c0,1.226-0.779,1.835-1.548,1.835   c-0.441,0-0.834-0.168-1.079-0.589h-0.014l-0.042,0.512H28.951z M29.839,49.229c0,0.07,0.008,0.141,0.021,0.203   c0.091,0.344,0.393,0.603,0.764,0.603c0.54,0,0.868-0.434,0.868-1.12c0-0.603-0.287-1.093-0.861-1.093   c-0.351,0-0.665,0.252-0.764,0.63c-0.014,0.063-0.028,0.141-0.028,0.225V49.229z"
   id="path12" />
	<path
   style="fill:#FFFFFF;"
   d="M34.922,50.638l-0.055-0.378h-0.021c-0.211,0.266-0.566,0.455-1.008,0.455   c-0.688,0-1.072-0.497-1.072-1.016c0-0.861,0.764-1.296,2.023-1.289v-0.056c0-0.225-0.09-0.596-0.693-0.596   c-0.336,0-0.686,0.105-0.916,0.253l-0.168-0.561c0.252-0.154,0.693-0.302,1.232-0.302c1.092,0,1.406,0.693,1.406,1.437v1.232   c0,0.308,0.016,0.609,0.051,0.819H34.922z M34.811,48.971c-0.609-0.014-1.191,0.119-1.191,0.638c0,0.336,0.219,0.49,0.49,0.49   c0.344,0,0.596-0.225,0.674-0.47c0.021-0.063,0.027-0.133,0.027-0.188V48.971z"
   id="path14" />
	<path
   style="fill:#FFFFFF;"
   d="M38.996,50.532c-0.182,0.084-0.539,0.176-0.967,0.176c-1.064,0-1.758-0.68-1.758-1.737   c0-1.022,0.701-1.821,1.898-1.821c0.314,0,0.637,0.07,0.834,0.161l-0.154,0.645c-0.141-0.063-0.344-0.133-0.652-0.133   c-0.658,0-1.051,0.483-1.043,1.106c0,0.7,0.455,1.1,1.043,1.1c0.303,0,0.512-0.063,0.68-0.133L38.996,50.532z"
   id="path16" />
	<path
   style="fill:#FFFFFF;"
   d="M42.006,50.532c-0.182,0.084-0.539,0.176-0.967,0.176c-1.064,0-1.758-0.68-1.758-1.737   c0-1.022,0.701-1.821,1.898-1.821c0.314,0,0.637,0.07,0.834,0.161l-0.154,0.645c-0.141-0.063-0.344-0.133-0.652-0.133   c-0.658,0-1.051,0.483-1.043,1.106c0,0.7,0.455,1.1,1.043,1.1c0.303,0,0.512-0.063,0.68-0.133L42.006,50.532z"
   id="path18" />
	<path
   style="fill:#FFFFFF;"
   d="M44.49,50.638l-0.055-0.378h-0.021c-0.211,0.266-0.566,0.455-1.008,0.455   c-0.688,0-1.072-0.497-1.072-1.016c0-0.861,0.764-1.296,2.023-1.289v-0.056c0-0.225-0.09-0.596-0.693-0.596   c-0.336,0-0.686,0.105-0.916,0.253l-0.168-0.561c0.252-0.154,0.693-0.302,1.232-0.302c1.092,0,1.406,0.693,1.406,1.437v1.232   c0,0.308,0.016,0.609,0.051,0.819H44.49z M44.379,48.971c-0.609-0.014-1.191,0.119-1.191,0.638c0,0.336,0.219,0.49,0.49,0.49   c0.344,0,0.596-0.225,0.674-0.47c0.021-0.063,0.027-0.133,0.027-0.188V48.971z"
   id="path20" />
	<path
   style="fill:#FFFFFF;"
   d="M47.592,48.474v0.595h-1.787v-0.595H47.592z"
   id="path22" />
	<path
   style="fill:#FFFFFF;"
   d="M11.847,57.638l-1.527-4.721h0.938l0.645,2.144c0.182,0.595,0.336,1.148,0.462,1.723h0.014   c0.126-0.561,0.294-1.135,0.483-1.709l0.687-2.157h0.917l-1.632,4.721H11.847z"
   id="path24" />
	<path
   style="fill:#FFFFFF;"
   d="M15.214,56.174c0.021,0.616,0.504,0.883,1.05,0.883c0.399,0,0.687-0.057,0.946-0.154l0.126,0.596   c-0.294,0.118-0.701,0.21-1.191,0.21c-1.106,0-1.758-0.68-1.758-1.724c0-0.945,0.574-1.835,1.667-1.835   c1.106,0,1.471,0.911,1.471,1.66c0,0.161-0.014,0.287-0.028,0.364H15.214z M16.712,55.571c0.007-0.314-0.133-0.833-0.708-0.833   c-0.532,0-0.756,0.483-0.791,0.833H16.712z"
   id="path26" />
	<path
   style="fill:#FFFFFF;"
   d="M18.146,55.326c0-0.462-0.007-0.791-0.028-1.1h0.75l0.028,0.651h0.028   c0.168-0.483,0.567-0.729,0.932-0.729c0.084,0,0.133,0.008,0.203,0.021v0.813c-0.07-0.014-0.147-0.028-0.252-0.028   c-0.413,0-0.693,0.267-0.771,0.651c-0.014,0.077-0.028,0.168-0.028,0.267v1.765h-0.861V55.326z"
   id="path28" />
	<path
   style="fill:#FFFFFF;"
   d="M21.716,53.253v0.974h0.819v0.645h-0.819v1.506c0,0.413,0.112,0.631,0.441,0.631   c0.147,0,0.259-0.021,0.336-0.043l0.014,0.659c-0.126,0.049-0.35,0.084-0.624,0.084c-0.315,0-0.581-0.105-0.742-0.28   c-0.182-0.196-0.266-0.505-0.266-0.953v-1.604h-0.49v-0.645h0.49v-0.771L21.716,53.253z"
   id="path30" />
	<path
   style="fill:#FFFFFF;"
   d="M23.684,56.174c0.021,0.616,0.504,0.883,1.05,0.883c0.399,0,0.687-0.057,0.946-0.154l0.126,0.596   c-0.294,0.118-0.701,0.21-1.191,0.21c-1.106,0-1.758-0.68-1.758-1.724c0-0.945,0.574-1.835,1.667-1.835   c1.106,0,1.471,0.911,1.471,1.66c0,0.161-0.014,0.287-0.028,0.364H23.684z M25.182,55.571c0.007-0.314-0.133-0.833-0.708-0.833   c-0.532,0-0.756,0.483-0.791,0.833H25.182z"
   id="path32" />
	<path
   style="fill:#FFFFFF;"
   d="M27.533,53.274c0,0.259-0.189,0.462-0.49,0.462c-0.287,0-0.477-0.203-0.477-0.462   c0-0.267,0.196-0.47,0.483-0.47C27.344,52.805,27.526,53.008,27.533,53.274z M26.616,57.638v-3.411h0.868v3.411H26.616z"
   id="path34" />
	<path
   style="fill:#FFFFFF;"
   d="M31.482,52.665v4.013c0,0.351,0.014,0.729,0.027,0.96h-0.77l-0.035-0.539h-0.014   c-0.203,0.378-0.616,0.616-1.113,0.616c-0.813,0-1.457-0.693-1.457-1.744c-0.007-1.142,0.707-1.821,1.526-1.821   c0.47,0,0.806,0.196,0.96,0.448h0.014v-1.933H31.482z M30.621,55.648c0-0.07-0.007-0.154-0.021-0.224   c-0.077-0.337-0.351-0.609-0.742-0.609c-0.554,0-0.861,0.49-0.861,1.127c0,0.624,0.308,1.079,0.854,1.079   c0.351,0,0.659-0.238,0.743-0.609c0.021-0.077,0.027-0.161,0.027-0.252V55.648z"
   id="path36" />
	<path
   style="fill:#FFFFFF;"
   d="M33.252,53.274c0,0.259-0.189,0.462-0.49,0.462c-0.287,0-0.477-0.203-0.477-0.462   c0-0.267,0.195-0.47,0.482-0.47C33.063,52.805,33.244,53.008,33.252,53.274z M32.334,57.638v-3.411h0.869v3.411H32.334z"
   id="path38" />
	<path
   style="fill:#FFFFFF;"
   d="M37.174,54.227c-0.014,0.231-0.027,0.512-0.027,0.98v1.934c0,0.714-0.146,1.226-0.504,1.548   c-0.357,0.315-0.848,0.413-1.318,0.413c-0.434,0-0.896-0.091-1.189-0.273l0.189-0.651c0.217,0.126,0.58,0.26,0.994,0.26   c0.561,0,0.98-0.295,0.98-1.03v-0.294h-0.014c-0.197,0.302-0.547,0.504-0.994,0.504c-0.848,0-1.451-0.7-1.451-1.666   c0-1.121,0.729-1.801,1.549-1.801c0.518,0,0.826,0.253,0.986,0.532h0.016l0.033-0.455H37.174z M36.285,55.593   c0-0.077-0.008-0.161-0.029-0.231c-0.09-0.315-0.336-0.553-0.699-0.553c-0.484,0-0.842,0.42-0.842,1.113   c0,0.581,0.295,1.051,0.834,1.051c0.322,0,0.604-0.21,0.701-0.519c0.021-0.091,0.035-0.21,0.035-0.309V55.593z"
   id="path40" />
	<path
   style="fill:#FFFFFF;"
   d="M41.051,56.615c0,0.406,0.014,0.742,0.027,1.022h-0.756l-0.043-0.519h-0.014   c-0.146,0.245-0.482,0.596-1.092,0.596c-0.623,0-1.191-0.371-1.191-1.485v-2.003h0.861v1.856c0,0.567,0.184,0.932,0.639,0.932   c0.342,0,0.566-0.245,0.658-0.463c0.027-0.077,0.049-0.168,0.049-0.266v-2.06h0.861V56.615z"
   id="path42" />
	<path
   style="fill:#FFFFFF;"
   d="M41.908,55.242c0-0.392-0.006-0.721-0.027-1.016h0.756l0.043,0.512h0.021   c0.146-0.267,0.518-0.589,1.084-0.589c0.596,0,1.213,0.386,1.213,1.464v2.024h-0.861v-1.926c0-0.49-0.182-0.861-0.652-0.861   c-0.342,0-0.58,0.245-0.672,0.504c-0.027,0.077-0.035,0.182-0.035,0.28v2.003h-0.869V55.242z"
   id="path44" />
	<path
   style="fill:#FFFFFF;"
   d="M48.961,54.227c-0.016,0.231-0.029,0.512-0.029,0.98v1.934c0,0.714-0.146,1.226-0.504,1.548   c-0.357,0.315-0.848,0.413-1.316,0.413c-0.434,0-0.896-0.091-1.191-0.273l0.189-0.651c0.217,0.126,0.582,0.26,0.994,0.26   c0.561,0,0.98-0.295,0.98-1.03v-0.294H48.07c-0.195,0.302-0.545,0.504-0.994,0.504c-0.848,0-1.449-0.7-1.449-1.666   c0-1.121,0.729-1.801,1.547-1.801c0.52,0,0.826,0.253,0.988,0.532h0.014l0.035-0.455H48.961z M48.07,55.593   c0-0.077-0.006-0.161-0.027-0.231c-0.092-0.315-0.336-0.553-0.701-0.553c-0.482,0-0.84,0.42-0.84,1.113   c0,0.581,0.295,1.051,0.834,1.051c0.322,0,0.602-0.21,0.699-0.519c0.021-0.091,0.035-0.21,0.035-0.309V55.593z"
   id="path46" />
</g>
<g
   id="g41"
   transform="translate(-7.561529,-21.467778)">
	<g
   id="Bild"
   transform="translate(8.6,22.5)">
		
			<sodipodi:namedview
   units="mm"
   showguides="true"
   inkscape:cy="140.10525"
   inkscape:cx="100.8875"
   inkscape:zoom="1.4"
   showgrid="false"
   borderopacity="1.0"
   bordercolor="#666666"
   pagecolor="#ffffff"
   id="base"
   inkscape:document-units="mm"
   inkscape:guide-bbox="true"
   inkscape:current-layer="layer1"
   inkscape:window-maximized="1"
   inkscape:window-y="0"
   inkscape:window-x="0"
   inkscape:window-height="700"
   inkscape:window-width="702"
   inkscape:pageshadow="2"
   inkscape:pageopacity="0.0">
			<sodipodi:guide
   orientation="1,0"
   position="191.33858,0"
   id="guide21487" />
			<sodipodi:guide
   orientation="0,1"
   position="0,304.72441"
   id="guide21489" />
			<sodipodi:guide
   orientation="0,1"
   position="0,322.44094"
   id="guide26097" />
		</sodipodi:namedview>
		<g
   id="layer1"
   transform="translate(0,-910.62992)"
   inkscape:label="Ebene 1"
   inkscape:groupmode="layer">
			<path
   id="path6147-7"
   inkscape:connector-curvature="0"
   style="fill:#FFFDFD;"
   d="M28.961,911.91     c-2.654,0-5.258,1.807-5.714,4.912c-0.149,1.023-0.799,4.832-0.939,7.631c-0.174-0.014-0.349-0.025-0.526-0.025     c-0.228,0-0.454-0.023-0.676,0c-2.812,0.285-5.09,2.358-5.739,5.049c-0.148,0.357-0.238,0.741-0.238,1.153v14.837     c0,1.666,1.342,3.008,3.008,3.008s3.007-1.342,3.007-3.008V930.63c0-0.065-0.009-0.124-0.013-0.188h1.216v11.015     c-0.002,0.043,0,0.082,0,0.125v8.695c0,1.666,1.341,3.008,3.007,3.008h7.218c1.666,0,3.006-1.342,3.006-3.008v-8.695     c0-0.043,0.002-0.082,0-0.125v-11.015h1.203c0,0.029,0,0.059,0,0.088v14.937c0,1.666,1.342,3.008,3.008,3.008     s3.008-1.342,3.008-3.008V930.53c0-0.417-0.088-0.818-0.238-1.178c-0.746-2.833-3.311-4.924-6.379-4.924     c-0.189,0-0.377-0.008-0.563,0c-0.133-2.728-0.82-6.555-0.939-7.606C34.321,913.716,31.76,911.91,28.961,911.91z" />
		</g>
	</g>
</g>
<g
   id="g58">
</g>
<g
   id="g60">
</g>
<g
   id="g62">
</g>
<g
   id="g64">
</g>
<g
   id="g66">
</g>
<g
   id="g68">
</g>
<g
   id="g70">
</g>
<g
   id="g72">
</g>
<g
   id="g74">
</g>
<g
   id="g76">
</g>
<g
   id="g78">
</g>
<g
   id="g80">
</g>
<g
   id="g82">
</g>
<g
   id="g84">
</g>
<g
   id="g86">
</g>
</svg>