<svg xmlns="http://www.w3.org/2000/svg" xmlns:xlink="http://www.w3.org/1999/xlink" width="300" height="300" viewBox="0 0 300 300"><switch><g><symbol id="a" viewBox="-150 -150 300 300.015"><path fill="#AEBCC4" d="M150-97.015c0-6.763 0-52.985-71.5-52.985H-84c-62.5 0-66 47.223-66 53.985v186c0 54.5 59.235 60 66 60l161.5.029c6.765 0 72.5-.029 72.5-60.029v-187z"/></symbol><use xlink:href="#a" width="300" height="300.015" x="-150" y="-150" transform="matrix(1 0 0 -1 150 150)" overflow="visible"/><g fill="#080828"><path d="M84.487 224.175c0 8.593-6.048 12.434-12.001 12.434-6.625 0-11.713-4.561-11.713-12.05 0-7.68 5.041-12.385 12.097-12.385 6.961 0 11.617 4.896 11.617 12.001zm-17.617.24c0 4.513 2.208 7.921 5.808 7.921 3.36 0 5.713-3.313 5.713-8.017 0-3.648-1.632-7.825-5.665-7.825-4.176 0-5.856 4.032-5.856 7.921zM89.141 236.08c.096-1.584.192-4.177.192-6.576v-27.507h5.904v13.921h.096c1.44-2.256 3.984-3.744 7.488-3.744 5.713 0 9.793 4.753 9.745 11.857 0 8.4-5.329 12.577-10.609 12.577-3.024 0-5.712-1.152-7.393-4.032h-.094l-.288 3.504h-5.041zm6.097-9.648c0 .479.048.96.144 1.392.624 2.353 2.688 4.129 5.232 4.129 3.696 0 5.953-2.977 5.953-7.681 0-4.129-1.968-7.489-5.905-7.489-2.4 0-4.56 1.729-5.232 4.32-.096.433-.192.96-.192 1.536v3.793zM112.229 241.505c1.92-.145 3.456-.673 4.417-1.681 1.104-1.2 1.536-3.024 1.536-8.112v-19.01h5.904v20.689c0 4.849-.912 7.873-3.024 9.985-2.064 1.92-5.328 2.736-8.256 2.736l-.577-4.607zm12.192-35.331c0 1.728-1.248 3.168-3.36 3.168-1.968 0-3.216-1.44-3.216-3.168 0-1.824 1.296-3.217 3.313-3.217s3.263 1.393 3.263 3.217zM134.549 226.047c.144 4.225 3.456 6.049 7.201 6.049 2.736 0 4.704-.384 6.48-1.056l.864 4.08c-2.016.816-4.8 1.44-8.161 1.44-7.584 0-12.049-4.657-12.049-11.81 0-6.48 3.937-12.577 11.425-12.577 7.585 0 10.081 6.24 10.081 11.377 0 1.104-.096 1.969-.192 2.496h-15.649zm10.273-4.128c.048-2.16-.912-5.713-4.849-5.713-3.648 0-5.185 3.313-5.424 5.713h10.273zM172.325 235.36c-1.248.576-3.696 1.2-6.624 1.2-7.297 0-12.049-4.657-12.049-11.905 0-7.009 4.8-12.481 13.009-12.481 2.16 0 4.368.48 5.712 1.104l-1.056 4.416c-.96-.432-2.353-.912-4.465-.912-4.512 0-7.2 3.313-7.152 7.585 0 4.801 3.12 7.536 7.152 7.536 2.064 0 3.505-.432 4.657-.912l.816 4.369zM184.18 206.029v6.673h5.617v4.416h-5.617v10.321c0 2.832.769 4.32 3.024 4.32a8.78 8.78 0 0 0 2.305-.288l.096 4.513c-.864.336-2.4.576-4.272.576-2.16 0-3.984-.721-5.088-1.921-1.249-1.344-1.824-3.456-1.824-6.528v-10.993h-3.36v-4.416h3.36v-5.28l5.759-1.393zM200.548 206.174c0 1.775-1.296 3.168-3.36 3.168-1.969 0-3.265-1.393-3.265-3.168 0-1.824 1.345-3.217 3.313-3.217 2.016 0 3.264 1.393 3.312 3.217zm-6.289 29.906v-23.378h5.953v23.378h-5.953zM210.291 212.702l3.793 11.856c.672 2.064 1.152 3.937 1.584 5.857h.144c.433-1.921.961-3.745 1.585-5.857l3.696-11.856h6.24l-8.929 23.378h-5.809l-8.688-23.378h6.384zM234.484 226.047c.144 4.225 3.456 6.049 7.2 6.049 2.736 0 4.705-.384 6.48-1.056l.864 4.08c-2.016.816-4.8 1.44-8.16 1.44-7.585 0-12.05-4.657-12.05-11.81 0-6.48 3.937-12.577 11.426-12.577 7.584 0 10.08 6.24 10.08 11.377 0 1.104-.096 1.969-.191 2.496h-15.649zm10.273-4.128c.048-2.16-.912-5.713-4.848-5.713-3.648 0-5.185 3.313-5.425 5.713h10.273zM99.631 283.36c-1.249.576-3.697 1.2-6.625 1.2-7.296 0-12.049-4.657-12.049-11.905 0-7.009 4.8-12.481 13.009-12.481 2.16 0 4.368.48 5.712 1.104l-1.056 4.416c-.96-.432-2.352-.912-4.464-.912-4.513 0-7.201 3.313-7.153 7.585 0 4.801 3.121 7.536 7.153 7.536 2.064 0 3.504-.432 4.656-.912l.817 4.369zM117.149 284.08l-.384-2.592h-.144c-1.44 1.824-3.888 3.12-6.913 3.12-4.705 0-7.345-3.408-7.345-6.961 0-5.904 5.232-8.881 13.873-8.833v-.384c0-1.536-.624-4.08-4.752-4.08-2.304 0-4.704.72-6.289 1.728l-1.152-3.84c1.728-1.057 4.752-2.064 8.449-2.064 7.489 0 9.649 4.753 9.649 9.841v8.449c0 2.112.096 4.176.336 5.616h-5.328zm-.768-11.425c-4.176-.097-8.161.815-8.161 4.368 0 2.305 1.488 3.36 3.36 3.36 2.352 0 4.081-1.536 4.608-3.216a4.25 4.25 0 0 0 .192-1.297v-3.215zM128.38 267.663c0-2.688-.048-4.945-.192-6.961h5.088l.24 3.456h.144c1.152-1.824 3.264-3.984 7.201-3.984 3.072 0 5.473 1.729 6.48 4.32h.096c.816-1.296 1.776-2.256 2.88-2.928 1.296-.912 2.785-1.393 4.705-1.393 3.889 0 7.825 2.641 7.825 10.129v13.777h-5.761v-12.913c0-3.889-1.345-6.192-4.177-6.192-2.016 0-3.504 1.439-4.128 3.12-.144.576-.288 1.296-.288 1.968v14.018h-5.761v-13.537c0-3.265-1.296-5.568-4.032-5.568-2.208 0-3.696 1.728-4.225 3.36-.24.576-.336 1.248-.336 1.92v13.825h-5.76v-16.417zM173.261 274.047c.144 4.225 3.456 6.049 7.2 6.049 2.736 0 4.705-.384 6.48-1.056l.864 4.08c-2.016.816-4.8 1.44-8.16 1.44-7.585 0-12.05-4.657-12.05-11.81 0-6.48 3.937-12.577 11.426-12.577 7.584 0 10.08 6.24 10.08 11.377 0 1.104-.096 1.969-.191 2.496h-15.649zm10.272-4.128c.049-2.16-.912-5.713-4.848-5.713-3.648 0-5.185 3.313-5.425 5.713h10.273zM193.852 268.238c0-3.168-.048-5.424-.191-7.536h5.136l.192 4.464h.192c1.151-3.312 3.888-4.992 6.384-4.992.576 0 .912.048 1.393.145v5.568a8.145 8.145 0 0 0-1.729-.192c-2.832 0-4.752 1.824-5.28 4.465a10.12 10.12 0 0 0-.191 1.824v12.097h-5.905v-15.843zM223.661 284.08l-.384-2.592h-.145c-1.439 1.824-3.888 3.12-6.912 3.12-4.704 0-7.345-3.408-7.345-6.961 0-5.904 5.232-8.881 13.873-8.833v-.384c0-1.536-.624-4.08-4.752-4.08-2.305 0-4.705.72-6.289 1.728l-1.152-3.84c1.729-1.057 4.753-2.064 8.449-2.064 7.488 0 9.648 4.753 9.648 9.841v8.449c0 2.112.097 4.176.336 5.616h-5.327zm-.767-11.425c-4.177-.097-8.161.815-8.161 4.368 0 2.305 1.488 3.36 3.36 3.36 2.353 0 4.08-1.536 4.608-3.216a4.25 4.25 0 0 0 .192-1.297v-3.215z"/></g><path fill="none" stroke="#FFF" stroke-width="3" stroke-miterlimit="10" stroke-dasharray="12,4" d="M175.5 63v112M197.5 63v112M218.5 63v112M240.5 63v112M153.208 150.855l111.997-.711M153.067 128.855l111.998-.711M152.935 107.856l111.998-.711M152.795 85.856l111.997-.711"/><g><path fill="none" d="M39 19h230"/></g><g clip-rule="evenodd"><g fill-rule="evenodd"><path fill="#FFF" d="M78.18 59.395c-32.322-.018-58.514 26.052-58.583 58.311-.069 32.303 26.043 58.419 58.399 58.407 32.06-.013 58.229-26.123 58.319-58.19.091-32.524-25.721-58.51-58.135-58.528z"/><path d="M78.18 59.395c32.415.018 58.227 26.004 58.135 58.527-.091 32.067-26.26 58.177-58.319 58.19-32.355.013-58.468-26.104-58.399-58.407.069-32.258 26.261-58.328 58.583-58.31zm25.231 73.028c-4.729 6.539-10.418 12.031-18.616 13.465-5.219.914-10.652.603-15.99.842 1.67.04 3.434.524 5.226.829 11.494 1.953 25.316-4.994 29.671-14.873 5.051-7.188 4.974-15.035 2.908-23.142 1.744 8.029.206 15.587-3.199 22.879zm-63.146-14.547c1.584-1.686 3.347-3.519 5.057-5.398 1.129-1.241 2.61-2.378 3.203-3.856 3.787-9.436 10.243-16.207 19.69-19.912 2.445-.958 3.924-2.402 5.319-4.517.961-1.457 2.88-2.279 4.36-3.397.166-.126.268-.338.453-.581l-2.628-1.714c1.628-1.552 2.996-3.957 4.364-3.957 4.038 0 7.367-3.382 11.541-2.104.287.088.728-.32 1.269-.581-14.267-6.458-36.676-3.074-51.019 12.304-13.891 14.894-15.345 36.895-9.384 47.637 1.045-2.613 1.693-5.344 2.385-8.064.47-1.849.622-3.917 1.587-5.47 1.562-2.512 2.73-2.28 3.803-.39zm60.704-9.185c2.096 18.671-7.198 29.312-22.313 33.605 8.877.014 15.76-3.84 20.476-11.298 4.456-7.05 5.331-14.562 1.837-22.307zM59.5 109.5c1.631-2.202 5.397-7.454 6.25-9 .103-.188-1.785-2.644-2-2.5-1.499 1.004-6.353 4.568-7 6.25-1.25 3.25 1.462 3.556 2.75 5.25z"/><path fill="#FFF" d="M40.265 117.876c-1.072-1.89-2.241-2.122-3.803.39-.965 1.553-1.117 3.621-1.587 5.47-.692 2.72-1.34 5.451-2.385 8.064-5.961-10.742-4.506-32.743 9.384-47.637 14.343-15.378 36.752-18.762 51.019-12.304-.541.26-.982.669-1.269.581-4.174-1.278-7.502 2.104-11.541 2.104-1.368 0-2.736 2.404-4.364 3.957l2.628 1.714c-.185.243-.287.455-.453.581-1.48 1.118-3.399 1.94-4.36 3.397-1.395 2.115-2.875 3.559-5.319 4.517-9.447 3.705-15.903 10.476-19.69 19.912-.593 1.478-2.074 2.615-3.203 3.856-1.71 1.879-3.473 3.712-5.057 5.398zM100.969 108.691c3.494 7.744 2.619 15.256-1.837 22.308-4.716 7.458-11.599 11.312-20.476 11.298 15.115-4.294 24.409-14.935 22.313-33.606z"/><path fill="#FFF" d="M103.702 132.686c-4.355 9.879-18.177 16.826-29.671 14.873-1.792-.304-3.556-.789-5.226-.829 5.337-.239 10.771.072 15.99-.842 8.197-1.434 13.887-6.926 18.616-13.465l.291.263zM60.407 106.653c-1.288-1.694-2.63-3.126-2.476-3.312a19.186 19.186 0 0 1 4.034-3.628c.215-.144 2.178 1.622 2.075 1.81-.853 1.546-2.002 2.929-3.633 5.13z"/><path fill="#FFF" d="M103.411 132.423c3.405-7.292 4.943-14.85 3.199-22.88 2.066 8.107 2.144 15.954-2.908 23.142l-.291-.262z"/></g><path fill="none" stroke="#FFF" stroke-width=".75" stroke-miterlimit="10" d="M32 131s13.037 26.989 38.25 31c11 1.75 34.75-.25 45.25-16.75 0 0 6.739-10.073 8-22.5 1.75-17.25-4.25-24.25-7-30 0 0-13-20.75-26.75-21.5-12.056-.658.5 1.25.5 1.25"/></g></g></switch></svg>