<?xml version="1.0" encoding="iso-8859-1"?>
<!-- Generator: Adobe Illustrator 16.0.3, SVG Export Plug-In . SVG Version: 6.00 Build 0)  -->
<!DOCTYPE svg PUBLIC "-//W3C//DTD SVG 1.1//EN" "http://www.w3.org/Graphics/SVG/1.1/DTD/svg11.dtd">
<svg version="1.1" id="Ebene_1" xmlns="http://www.w3.org/2000/svg" xmlns:xlink="http://www.w3.org/1999/xlink" x="0px" y="0px"
	 width="518px" height="518px" viewBox="0 0 518 518" style="enable-background:new 0 0 518 518;" xml:space="preserve">
<path style="fill-rule:evenodd;clip-rule:evenodd;fill:#7B74A8;" d="M518,512c0,3.313-2.017,6-4.505,6H4.505
	C2.018,518,0,515.313,0,512V6c0-3.313,2.017-6,4.504-6h508.99C515.983,0,518,2.687,518,6V512z"/>
<g>
	<g id="XMLID_1_">
		<g>
			<path style="fill:#FCFBFB;" d="M259.039,25.99c96.51-0.58,177.17,79.81,175.04,178.93c-2.04,95.16-81.561,173.45-179.37,171.17
				c-94.72-2.21-173.28-81.439-170.77-179.76C86.349,101.91,164.509,25.46,259.039,25.99z M259.309,361.59
				c89.29-0.38,160.94-73.05,160.37-160.66c-0.58-89.03-72.779-160.79-161.03-160.56c-85.43,0.21-159.56,68.84-160.47,160.72
				C99.219,291.1,170.849,361.97,259.309,361.59z"/>
			<path style="fill:#7B74A8;" d="M419.679,200.93c0.57,87.61-71.08,160.28-160.37,160.66c-88.46,0.38-160.09-70.49-161.13-160.5
				c0.91-91.88,75.04-160.51,160.47-160.72C346.899,40.14,419.099,111.9,419.679,200.93z"/>
		</g>
		<g>
		</g>
	</g>
</g>
<g>
	<rect x="-7.001" y="413" style="fill-rule:evenodd;clip-rule:evenodd;fill:none;" width="525.002" height="106"/>
	<path style="fill:#FFFFFF;" d="M106.562,414.953v23.755c0,3.776-1.208,6.767-3.625,8.972c-2.417,2.206-5.636,3.309-9.656,3.309
		c-4.069,0-7.3-1.086-9.692-3.26c-2.393-2.172-3.589-5.188-3.589-9.045v-23.73h6.152v23.779c0,2.377,0.602,4.191,1.807,5.444
		c1.204,1.254,2.979,1.88,5.322,1.88c4.752,0,7.129-2.506,7.129-7.52v-23.584H106.562z"/>
	<path style="fill:#FFFFFF;" d="M118.085,424.084l0.171,3.052c1.953-2.359,4.517-3.54,7.69-3.54c5.501,0,8.301,3.149,8.398,9.448
		V450.5h-5.933v-17.114c0-1.676-0.362-2.917-1.086-3.724c-0.725-0.805-1.909-1.208-3.552-1.208c-2.393,0-4.175,1.083-5.347,3.247
		V450.5h-5.933v-26.416H118.085z"/>
	<path style="fill:#FFFFFF;" d="M139.35,437.097c0-4.102,0.964-7.377,2.893-9.827c1.929-2.449,4.488-3.674,7.678-3.674
		c3.011,0,5.379,1.05,7.104,3.149l0.269-2.661h5.347v25.61c0,3.467-1.079,6.201-3.235,8.203c-2.157,2.002-5.066,3.003-8.728,3.003
		c-1.937,0-3.829-0.402-5.676-1.209c-1.848-0.805-3.251-1.859-4.211-3.161l2.808-3.564c1.823,2.164,4.069,3.247,6.738,3.247
		c1.969,0,3.523-0.533,4.663-1.6c1.139-1.065,1.709-2.633,1.709-4.699v-1.782c-1.709,1.904-3.988,2.856-6.836,2.856
		c-3.093,0-5.62-1.229-7.581-3.687C140.331,444.845,139.35,441.442,139.35,437.097z M145.258,437.609
		c0,2.653,0.541,4.74,1.624,6.262c1.082,1.522,2.583,2.283,4.504,2.283c2.393,0,4.167-1.025,5.322-3.076v-11.621
		c-1.123-2.002-2.881-3.003-5.273-3.003c-1.953,0-3.471,0.773-4.553,2.319C145.799,432.32,145.258,434.599,145.258,437.609z"/>
	<path style="fill:#FFFFFF;" d="M180.366,450.988c-3.76,0-6.808-1.184-9.143-3.553c-2.336-2.367-3.503-5.521-3.503-9.46v-0.732
		c0-2.637,0.508-4.993,1.526-7.067c1.017-2.076,2.445-3.69,4.285-4.847c1.839-1.155,3.89-1.733,6.152-1.733
		c3.597,0,6.376,1.147,8.337,3.442c1.961,2.295,2.942,5.542,2.942,9.741v2.393h-17.261c0.179,2.182,0.907,3.906,2.185,5.176
		c1.277,1.27,2.885,1.904,4.822,1.904c2.718,0,4.932-1.099,6.641-3.296l3.198,3.052c-1.058,1.579-2.47,2.804-4.236,3.674
		C184.544,450.553,182.563,450.988,180.366,450.988z M179.658,428.356c-1.628,0-2.942,0.57-3.943,1.709
		c-1.001,1.14-1.64,2.727-1.917,4.761h11.304v-0.439c-0.13-1.985-0.659-3.487-1.587-4.504
		C182.587,428.865,181.301,428.356,179.658,428.356z"/>
	<path style="fill:#FFFFFF;" d="M202.998,417.663v6.421h4.663v4.395h-4.663v14.746c0,1.01,0.199,1.737,0.598,2.186
		c0.398,0.447,1.111,0.671,2.136,0.671c0.684,0,1.375-0.081,2.075-0.244v4.59c-1.351,0.374-2.653,0.562-3.906,0.562
		c-4.558,0-6.836-2.515-6.836-7.544v-14.966h-4.346v-4.395h4.346v-6.421H202.998z"/>
	<path style="fill:#FFFFFF;" d="M223.823,450.988c-3.76,0-6.808-1.184-9.143-3.553c-2.336-2.367-3.503-5.521-3.503-9.46v-0.732
		c0-2.637,0.508-4.993,1.526-7.067c1.017-2.076,2.445-3.69,4.285-4.847c1.839-1.155,3.89-1.733,6.152-1.733
		c3.597,0,6.376,1.147,8.337,3.442c1.961,2.295,2.942,5.542,2.942,9.741v2.393h-17.261c0.179,2.182,0.907,3.906,2.185,5.176
		c1.277,1.27,2.885,1.904,4.822,1.904c2.718,0,4.932-1.099,6.641-3.296l3.198,3.052c-1.058,1.579-2.47,2.804-4.236,3.674
		C228.001,450.553,226.02,450.988,223.823,450.988z M223.115,428.356c-1.628,0-2.942,0.57-3.943,1.709
		c-1.001,1.14-1.64,2.727-1.917,4.761h11.304v-0.439c-0.13-1.985-0.659-3.487-1.587-4.504
		C226.044,428.865,224.758,428.356,223.115,428.356z"/>
	<path style="fill:#FFFFFF;" d="M239.033,417.224c0-0.911,0.289-1.668,0.867-2.271c0.578-0.602,1.404-0.903,2.478-0.903
		s1.904,0.302,2.49,0.903c0.586,0.603,0.879,1.359,0.879,2.271c0,0.896-0.293,1.64-0.879,2.233c-0.586,0.595-1.416,0.892-2.49,0.892
		s-1.9-0.297-2.478-0.892C239.321,418.863,239.033,418.119,239.033,417.224z M245.332,450.5h-5.933v-26.416h5.933V450.5z"/>
	<path style="fill:#FFFFFF;" d="M258.1,450.5h-5.933V413h5.933V450.5z"/>
	<path style="fill:#FFFFFF;" d="M271.992,417.663v6.421h4.663v4.395h-4.663v14.746c0,1.01,0.199,1.737,0.598,2.186
		c0.398,0.447,1.111,0.671,2.136,0.671c0.684,0,1.375-0.081,2.075-0.244v4.59c-1.351,0.374-2.653,0.562-3.906,0.562
		c-4.558,0-6.836-2.515-6.836-7.544v-14.966h-4.346v-4.395h4.346v-6.421H271.992z"/>
	<path style="fill:#FFFFFF;" d="M292.817,450.988c-3.76,0-6.808-1.184-9.143-3.553c-2.336-2.367-3.503-5.521-3.503-9.46v-0.732
		c0-2.637,0.508-4.993,1.526-7.067c1.017-2.076,2.445-3.69,4.285-4.847c1.839-1.155,3.89-1.733,6.152-1.733
		c3.597,0,6.376,1.147,8.337,3.442c1.961,2.295,2.942,5.542,2.942,9.741v2.393h-17.261c0.179,2.182,0.907,3.906,2.185,5.176
		c1.277,1.27,2.885,1.904,4.822,1.904c2.718,0,4.932-1.099,6.641-3.296l3.198,3.052c-1.058,1.579-2.47,2.804-4.236,3.674
		C296.996,450.553,295.014,450.988,292.817,450.988z M292.109,428.356c-1.628,0-2.942,0.57-3.943,1.709
		c-1.001,1.14-1.64,2.727-1.917,4.761h11.304v-0.439c-0.13-1.985-0.659-3.487-1.587-4.504
		C295.039,428.865,293.752,428.356,292.109,428.356z"/>
	<path style="fill:#FFFFFF;" d="M329.048,414.953l10.253,27.246l10.23-27.246h7.982V450.5h-6.152v-11.719l0.611-15.674
		L341.475,450.5h-4.42l-10.474-27.368l0.611,15.649V450.5h-6.153v-35.547H329.048z"/>
	<path style="fill:#FFFFFF;" d="M364.253,417.224c0-0.911,0.289-1.668,0.866-2.271c0.578-0.602,1.404-0.903,2.479-0.903
		s1.904,0.302,2.49,0.903c0.586,0.603,0.879,1.359,0.879,2.271c0,0.896-0.293,1.64-0.879,2.233c-0.586,0.595-1.416,0.892-2.49,0.892
		s-1.9-0.297-2.479-0.892C364.542,418.863,364.253,418.119,364.253,417.224z M370.552,450.5h-5.933v-26.416h5.933V450.5z"/>
	<path style="fill:#FFFFFF;" d="M384.443,417.663v6.421h4.663v4.395h-4.663v14.746c0,1.01,0.199,1.737,0.599,2.186
		c0.398,0.447,1.11,0.671,2.136,0.671c0.684,0,1.375-0.081,2.075-0.244v4.59c-1.352,0.374-2.653,0.562-3.906,0.562
		c-4.558,0-6.836-2.515-6.836-7.544v-14.966h-4.346v-4.395h4.346v-6.421H384.443z"/>
	<path style="fill:#FFFFFF;" d="M401.069,417.663v6.421h4.663v4.395h-4.663v14.746c0,1.01,0.199,1.737,0.599,2.186
		c0.398,0.447,1.11,0.671,2.136,0.671c0.684,0,1.375-0.081,2.075-0.244v4.59c-1.352,0.374-2.653,0.562-3.906,0.562
		c-4.558,0-6.836-2.515-6.836-7.544v-14.966h-4.346v-4.395h4.346v-6.421H401.069z"/>
	<path style="fill:#FFFFFF;" d="M421.895,450.988c-3.76,0-6.808-1.184-9.144-3.553c-2.335-2.367-3.503-5.521-3.503-9.46v-0.732
		c0-2.637,0.509-4.993,1.526-7.067c1.017-2.076,2.444-3.69,4.284-4.847c1.839-1.155,3.89-1.733,6.152-1.733
		c3.597,0,6.376,1.147,8.337,3.442c1.962,2.295,2.942,5.542,2.942,9.741v2.393h-17.261c0.179,2.182,0.907,3.906,2.186,5.176
		c1.277,1.27,2.884,1.904,4.821,1.904c2.718,0,4.932-1.099,6.641-3.296l3.198,3.052c-1.059,1.579-2.47,2.804-4.236,3.674
		C426.073,450.553,424.092,450.988,421.895,450.988z M421.187,428.356c-1.628,0-2.941,0.57-3.943,1.709
		c-1,1.14-1.64,2.727-1.916,4.761h11.304v-0.439c-0.131-1.985-0.659-3.487-1.587-4.504
		C424.116,428.865,422.83,428.356,421.187,428.356z"/>
</g>
<g>
	<path style="fill-rule:evenodd;clip-rule:evenodd;fill:#F6F6F8;" d="M260.864,136.971c40.215-30.851,89.622-20.575,116.029,9.745
		c27.975,32.119,27.86,78.897-0.313,110.9c-26.809,30.45-76.2,39.812-115.694,9.404c-19.558,15.153-41.723,21.488-66.343,17.558
		c-21.056-3.36-38.421-13.554-51.827-30.208c-26.281-32.649-24.348-79.63,4.537-110.029
		C175.969,114.119,224.228,108.304,260.864,136.971z M255.077,142.089c-29.816-25.655-78.484-20.918-104.93,9.91
		c-27.557,32.123-24.141,80.071,7.453,107.542c33.104,28.784,77.587,20.792,97.265,2.012
		C222.703,228.566,221.731,176.537,255.077,142.089z M267.165,142.146c32.445,33.383,32.756,85.986,0.004,119.725
		c24.275,21.314,70.469,25.024,101.441-6.339c29.165-29.534,29.153-77.539-0.015-107.078
		C337.319,116.779,290.985,121.095,267.165,142.146z M260.817,256.725c32.983-30.1,29.819-83.77-0.119-109.238
		C230.046,174.854,229.979,228.031,260.817,256.725z"/>
	<path style="fill-rule:evenodd;clip-rule:evenodd;fill:#FFFFFF;" d="M274.995,193.686c-9.635,0-18.688,0-27.969,0
		c0,1.855,0,3.451,0,5.288c9.337,0,18.551,0,27.969,0C274.995,197.175,274.995,195.584,274.995,193.686z M247.169,204.999
		c0,1.919,0,3.62,0,5.331c9.433,0,18.485,0,27.662,0c0-1.936,0-3.618,0-5.331C265.386,204.999,256.313,204.999,247.169,204.999z"/>
	<path style="fill-rule:evenodd;clip-rule:evenodd;fill:#F8F8FA;" d="M207.1,224.673c-3.478,0-6.275,0-9.392,0
		c-1.559-4.203-3.104-8.363-4.648-12.528c-6.439,0-12.577,0-19.021,0c-1.548,4.129-3.103,8.279-4.689,12.514
		c-2.861,0-5.482,0-8.983,0c6.3-16.465,12.435-32.504,18.571-48.543c3.152,0,5.965,0,9.423,0
		C194.472,191.953,200.661,207.988,207.1,224.673z M183.604,184.644c-2.601,7.457-4.766,13.668-7.072,20.283
		c4.878,0,9.135,0,14.058,0C188.331,198.37,186.194,192.164,183.604,184.644z"/>
	<path style="fill-rule:evenodd;clip-rule:evenodd;fill:#F5F5F8;" d="M319.817,176.081c8.967,0,17.774-0.296,26.548,0.118
		c4.81,0.227,9.036,2.417,10.706,7.585c1.934,5.987,0.123,10.777-4.961,14.408c6.434,4.366,8.888,9.571,7.566,15.812
		c-1.236,5.838-5.336,9.721-13.088,10.302c-8.756,0.656-17.597,0.151-26.771,0.151C319.817,208.504,319.817,192.448,319.817,176.081
		z M328.474,217.275c5.725,0,11.188,0.247,16.615-0.084c3.875-0.236,5.762-2.925,5.921-6.774c0.159-3.825-1.429-6.928-5.271-7.268
		c-5.701-0.504-11.479-0.131-17.266-0.131C328.474,208.042,328.474,212.462,328.474,217.275z M328.337,196.098
		c5.258,0,10.041,0.165,14.807-0.056c3.445-0.159,5.412-2.416,5.767-5.762c0.353-3.321-0.905-6.371-4.408-6.693
		c-5.325-0.489-10.729-0.128-16.165-0.128C328.337,187.823,328.337,191.599,328.337,196.098z"/>
	<path style="fill-rule:evenodd;clip-rule:evenodd;fill:#EFEEF3;" d="M247.169,204.999c9.145,0,18.217,0,27.662,0
		c0,1.713,0,3.396,0,5.331c-9.177,0-18.229,0-27.662,0C247.169,208.619,247.169,206.918,247.169,204.999z"/>
</g>
</svg>
