<?xml version="1.0" encoding="utf-8"?>
<!-- Generator: Adobe Illustrator 16.0.3, SVG Export Plug-In . SVG Version: 6.00 Build 0)  -->
<!DOCTYPE svg PUBLIC "-//W3C//DTD SVG 1.1//EN" "http://www.w3.org/Graphics/SVG/1.1/DTD/svg11.dtd" [
	<!ENTITY ns_extend "http://ns.adobe.com/Extensibility/1.0/">
	<!ENTITY ns_ai "http://ns.adobe.com/AdobeIllustrator/10.0/">
	<!ENTITY ns_graphs "http://ns.adobe.com/Graphs/1.0/">
	<!ENTITY ns_vars "http://ns.adobe.com/Variables/1.0/">
	<!ENTITY ns_imrep "http://ns.adobe.com/ImageReplacement/1.0/">
	<!ENTITY ns_sfw "http://ns.adobe.com/SaveForWeb/1.0/">
	<!ENTITY ns_custom "http://ns.adobe.com/GenericCustomNamespace/1.0/">
	<!ENTITY ns_adobe_xpath "http://ns.adobe.com/XPath/1.0/">
]>
<svg version="1.1" id="Ebene_1" xmlns:x="&ns_extend;" xmlns:i="&ns_ai;" xmlns:graph="&ns_graphs;"
	 xmlns="http://www.w3.org/2000/svg" xmlns:xlink="http://www.w3.org/1999/xlink" x="0px" y="0px" width="300px" height="300px"
	 viewBox="0 0 300 300" enable-background="new 0 0 300 300" xml:space="preserve">
<metadata>
	<sfw  xmlns="&ns_sfw;">
		<slices></slices>
		<sliceSourceBounds  height="309.082" width="299.996" x="-50.499" y="-57.082" bottomLeftOrigin="true"></sliceSourceBounds>
	</sfw>
</metadata>
<path fill="#6F699B" d="M228.001,298.5h-156c-39.604,0-72-16.9-72-56.5V58.5c0-39.6,32.396-60,72-60h156
	c39.601,0,71.996,20.9,71.996,60.5v183.5C299.997,282.1,267.6,298.5,228.001,298.5z"/>
<g>
	<path opacity="0.4" fill="#FFFFFF" enable-background="new    " d="M149.568,23.999c-46.208,0-83.667,37.459-83.667,83.667
		c0,20.148,11.932,47.423,11.932,47.423l-25.499,35.999l46.045-17.268c14.148,10.968,31.899,17.513,51.189,17.513
		c46.207,0,83.666-37.459,83.666-83.667S195.775,23.999,149.568,23.999z"/>
	<g>
		<path fill="#FFFFFF" d="M160.126,194.63c-8.116,0-14.422-4.901-16.872-13.112c-3.316-10.504,0.368-24.285,13.854-30.211
			c3.431-1.535,7.18-2.354,10.822-2.354c0.604,0,1.208,0.021,1.805,0.065V56.779l77.933-19.529v114.398
			c0.2,10.146-6.975,20.414-17.438,24.899c-3.521,1.521-6.95,2.286-10.188,2.286c-8.117,0-14.43-4.898-16.874-13.111
			c-3.316-10.507,0.368-24.288,13.854-30.216c3.434-1.535,7.183-2.353,10.824-2.353c0.604,0,1.206,0.021,1.803,0.065v-51.82
			l-41.895,11.263v74.777c0.201,10.147-6.97,20.416-17.438,24.898C166.793,193.859,163.364,194.63,160.126,194.63z"/>
	</g>
</g>
<rect x="0.758" y="228.086" fill="none" width="298.482" height="79.496"/>
<g enable-background="new    ">
	<path fill="#FFFFFF" d="M24.195,229.812h4.176v15.601h0.144c0.864-1.248,1.728-2.399,2.544-3.456l9.889-12.145h5.185L34.419,243.54
		l12.625,18.626H42.1l-10.657-15.89l-3.072,3.553v12.337h-4.176V229.812z"/>
	<path fill="#FFFFFF" d="M50.546,228.083h4.224v34.083h-4.224V228.083z"/>
	<path fill="#FFFFFF" d="M74.739,262.166l-0.336-2.929h-0.144c-1.296,1.824-3.792,3.457-7.104,3.457
		c-4.704,0-7.104-3.313-7.104-6.673c0-5.616,4.992-8.688,13.969-8.641v-0.48c0-1.92-0.528-5.376-5.28-5.376
		c-2.161,0-4.417,0.672-6.049,1.728l-0.96-2.784c1.92-1.248,4.704-2.063,7.633-2.063c7.104,0,8.833,4.848,8.833,9.505v8.688
		c0,2.016,0.096,3.984,0.384,5.568H74.739z M74.115,250.309c-4.608-0.096-9.841,0.721-9.841,5.232c0,2.736,1.824,4.033,3.984,4.033
		c3.024,0,4.945-1.921,5.617-3.889c0.144-0.432,0.24-0.912,0.24-1.344V250.309z"/>
	<path fill="#FFFFFF" d="M85.01,245.221c0-2.4-0.048-4.368-0.192-6.289h3.744l0.24,3.841h0.096c1.152-2.208,3.84-4.368,7.681-4.368
		c3.216,0,8.209,1.92,8.209,9.889v13.873h-4.225v-13.394c0-3.744-1.392-6.864-5.376-6.864c-2.784,0-4.944,1.968-5.665,4.32
		c-0.192,0.528-0.288,1.248-0.288,1.969v13.969H85.01V245.221z"/>
	<path fill="#FFFFFF" d="M131.667,238.932c-0.097,1.681-0.192,3.553-0.192,6.385v13.489c0,5.328-1.056,8.593-3.313,10.609
		c-2.256,2.111-5.521,2.784-8.449,2.784c-2.784,0-5.856-0.673-7.729-1.921l1.056-3.216c1.536,0.96,3.937,1.824,6.816,1.824
		c4.32,0,7.489-2.256,7.489-8.113v-2.592h-0.097c-1.296,2.16-3.792,3.889-7.393,3.889c-5.76,0-9.889-4.896-9.889-11.329
		c0-7.873,5.136-12.337,10.465-12.337c4.032,0,6.24,2.112,7.249,4.032h0.096l0.192-3.505H131.667z M127.298,248.101
		c0-0.72-0.048-1.344-0.239-1.92c-0.769-2.448-2.833-4.465-5.905-4.465c-4.032,0-6.912,3.409-6.912,8.785
		c0,4.561,2.304,8.353,6.864,8.353c2.593,0,4.944-1.632,5.856-4.32c0.24-0.72,0.336-1.536,0.336-2.256V248.101z"/>
	<path fill="#FFFFFF" d="M139.105,262.166v-20.018h-3.265v-3.217h3.265v-1.248c0-6.145,3.601-10.129,10.129-10.129
		c2.16,0,4.704,0.673,5.904,1.536l-1.2,3.217c-1.008-0.721-2.832-1.345-4.896-1.345c-4.464,0-5.761,3.121-5.761,6.817v1.151h13.489
		v23.234h-4.176v-20.018h-9.313v20.018H139.105z"/>
	<path fill="#FFFFFF" d="M183.794,238.932c-0.097,1.681-0.192,3.553-0.192,6.385v13.489c0,5.328-1.056,8.593-3.313,10.609
		c-2.256,2.111-5.521,2.784-8.448,2.784c-2.784,0-5.856-0.673-7.729-1.921l1.056-3.216c1.536,0.96,3.937,1.824,6.816,1.824
		c4.32,0,7.489-2.256,7.489-8.113v-2.592h-0.097c-1.296,2.16-3.792,3.889-7.393,3.889c-5.761,0-9.889-4.896-9.889-11.329
		c0-7.873,5.137-12.337,10.465-12.337c4.032,0,6.24,2.112,7.249,4.032h0.096l0.192-3.505H183.794z M179.425,248.101
		c0-0.72-0.048-1.344-0.239-1.92c-0.769-2.448-2.833-4.465-5.905-4.465c-4.032,0-6.912,3.409-6.912,8.785
		c0,4.561,2.304,8.353,6.864,8.353c2.593,0,4.944-1.632,5.856-4.32c0.24-0.72,0.336-1.536,0.336-2.256V248.101z"/>
	<path fill="#FFFFFF" d="M210.049,255.829c0,2.4,0.048,4.513,0.191,6.337h-3.744l-0.24-3.792h-0.096
		c-1.104,1.872-3.553,4.32-7.681,4.32c-3.648,0-8.017-2.017-8.017-10.177v-13.586h4.225v12.865c0,4.417,1.344,7.393,5.185,7.393
		c2.832,0,4.8-1.968,5.568-3.84c0.239-0.624,0.384-1.393,0.384-2.16v-14.258h4.225V255.829z"/>
	<path fill="#FFFFFF" d="M217.055,246.181c0-2.736-0.048-5.089-0.191-7.249h3.696l0.144,4.561h0.192
		c1.056-3.12,3.601-5.088,6.433-5.088c0.479,0,0.815,0.048,1.2,0.144v3.984c-0.433-0.096-0.864-0.144-1.44-0.144
		c-2.977,0-5.089,2.256-5.664,5.424c-0.097,0.576-0.192,1.248-0.192,1.969v12.385h-4.177V246.181z"/>
	<path fill="#FFFFFF" d="M234.623,251.317c0.096,5.712,3.744,8.064,7.969,8.064c3.024,0,4.849-0.528,6.433-1.2l0.72,3.024
		c-1.488,0.672-4.032,1.44-7.729,1.44c-7.152,0-11.425-4.705-11.425-11.714c0-7.008,4.128-12.528,10.896-12.528
		c7.585,0,9.602,6.672,9.602,10.944c0,0.864-0.097,1.536-0.145,1.969H234.623z M247.008,248.293
		c0.049-2.688-1.104-6.865-5.856-6.865c-4.272,0-6.145,3.937-6.48,6.865H247.008z"/>
	<path fill="#FFFFFF" d="M256.319,245.221c0-2.4-0.048-4.368-0.191-6.289h3.744l0.24,3.841h0.096
		c1.152-2.208,3.841-4.368,7.681-4.368c3.217,0,8.209,1.92,8.209,9.889v13.873h-4.225v-13.394c0-3.744-1.393-6.864-5.376-6.864
		c-2.785,0-4.945,1.968-5.665,4.32c-0.192,0.528-0.288,1.248-0.288,1.969v13.969h-4.225V245.221z"/>
</g>
</svg>
