<?xml version="1.0" encoding="UTF-8" standalone="no"?>
<svg
   xmlns:dc="http://purl.org/dc/elements/1.1/"
   xmlns:cc="http://creativecommons.org/ns#"
   xmlns:rdf="http://www.w3.org/1999/02/22-rdf-syntax-ns#"
   xmlns:svg="http://www.w3.org/2000/svg"
   xmlns="http://www.w3.org/2000/svg"
   viewBox="0 0 375 375"
   height="375"
   width="375"
   xml:space="preserve"
   version="1.1"
   id="svg2"><metadata
     id="metadata8"><rdf:RDF><cc:Work
         rdf:about=""><dc:format>image/svg+xml</dc:format><dc:type
           rdf:resource="http://purl.org/dc/dcmitype/StillImage" /></cc:Work></rdf:RDF></metadata><defs
     id="defs6" /><g
     transform="matrix(1.25,0,0,-1.25,0,375)"
     id="g10"><g
       transform="scale(0.1,0.1)"
       id="g12"><path
         id="path14"
         style="fill:#ce8e95;fill-opacity:1;fill-rule:nonzero;stroke:none"
         d="m 3000,529.785 c 0,-67.64 0,-529.78890625 -715,-529.78890625 l -1625,0 C 35,-0.00390625 0,472.145 0,539.785 L 0,2399.77 c 0,545 592.352,600 660,600 l 1615,0.3 c 67.65,0 725,-0.3 725,-600.3" /><path
         id="path16"
         style="fill:#26080d;fill-opacity:1;fill-rule:nonzero;stroke:none"
         d="m 407.422,412 0,189.547 50.859,0 0,44.156 -51.343,0 0,12 c 0,28.781 10.078,53.266 39.343,53.266 10.563,0 18.719,-1.922 24.953,-4.328 l 4.329,45.593 c -9.61,3.36 -22.079,5.75 -37.922,5.75 -20.157,0 -43.657,-6.234 -60.938,-22.546 -20.156,-19.204 -28.312,-49.422 -28.312,-79.657 l 0,-10.078 -31.672,0 0,-44.156 31.672,0 0,-189.547 59.031,0" /><path
         id="path18"
         style="fill:#26080d;fill-opacity:1;fill-rule:nonzero;stroke:none"
         d="m 679.422,412 c -2.391,14.391 -3.359,35.031 -3.359,56.141 l 0,84.468 c 0,50.86 -21.594,98.375 -96.454,98.375 -36.953,0 -67.187,-10.078 -84.453,-20.64 l 11.516,-38.391 c 15.828,10.078 39.828,17.281 62.859,17.281 41.266,0 47.516,-25.437 47.516,-40.796 l 0,-3.844 c -86.391,0.484 -138.688,-29.266 -138.688,-88.297 0,-35.5 26.391,-69.578 73.422,-69.578 30.235,0 54.703,12.953 69.094,31.187 l 1.438,0 3.843,-25.906 53.266,0 z m -60.938,82.063 c 0,-3.844 -0.484,-8.641 -1.921,-12.954 -5.282,-16.796 -22.563,-32.156 -46.079,-32.156 -18.703,0 -33.578,10.547 -33.578,33.594 0,35.5 39.828,44.625 81.578,43.656 l 0,-32.14" /><path
         id="path20"
         style="fill:#26080d;fill-opacity:1;fill-rule:nonzero;stroke:none"
         d="m 724.281,423.516 c 17.266,-9.594 42.703,-16.313 71.016,-16.313 61.906,0 95.016,30.703 95.016,72.938 -0.485,34.547 -20.157,56.14 -62.391,71.5 -29.75,10.562 -40.781,17.765 -40.781,32.64 0,14.391 11.515,24.469 32.625,24.469 20.64,0 39.359,-7.672 49.437,-13.437 l 11.516,41.75 c -13.438,7.203 -36,13.921 -61.906,13.921 -54.235,0 -88.297,-32.156 -88.297,-73.421 -0.485,-27.36 18.718,-52.313 64.297,-68.141 28.796,-10.078 38.39,-18.25 38.39,-34.078 0,-15.36 -11.515,-25.906 -37.422,-25.906 -21.125,0 -46.547,8.625 -59.984,16.781 l -11.516,-42.703" /><path
         id="path22"
         style="fill:#26080d;fill-opacity:1;fill-rule:nonzero;stroke:none"
         d="m 948.75,698.484 0,-52.781 -33.594,0 0,-44.156 33.594,0 0,-109.891 c 0,-30.703 5.75,-51.828 18.234,-65.265 11.032,-11.985 29.266,-19.188 50.856,-19.188 18.72,0 34.08,2.391 42.72,5.75 l -0.97,45.11 c -5.26,-1.438 -12.95,-2.875 -23.03,-2.875 -22.54,0 -30.23,14.875 -30.23,43.187 l 0,103.172 56.15,0 0,44.156 -56.15,0 0,66.703 -57.58,-13.922" /><path
         id="path24"
         style="fill:#26080d;fill-opacity:1;fill-rule:nonzero;stroke:none"
         d="m 1206.67,412 57.58,0 0,138.203 c 0,6.719 0.97,13.438 3.36,19.203 5.28,16.313 20.16,33.578 42.23,33.578 27.36,0 40.32,-23.031 40.32,-55.656 l 0,-135.328 57.57,0 0,140.125 c 0,6.719 1.44,13.922 2.9,19.672 6.23,16.797 21.1,31.187 41.26,31.187 28.31,0 41.75,-23.031 41.75,-61.89 l 0,-129.094 57.58,0 0,137.719 c 0,74.859 -39.34,101.265 -78.22,101.265 -19.19,0 -34.06,-4.812 -47.03,-13.921 -11.03,-6.719 -20.63,-16.313 -28.78,-29.282 l -0.97,0 c -10.08,25.922 -34.06,43.203 -64.78,43.203 -39.35,0 -60.47,-21.593 -71.99,-39.843 l -1.43,0 -2.39,34.562 -50.88,0 c 1.44,-20.156 1.92,-42.719 1.92,-69.594 l 0,-164.109" /><path
         id="path26"
         style="fill:#26080d;fill-opacity:1;fill-rule:nonzero;stroke:none"
         d="m 1719.72,650.984 c -70.53,0 -120.92,-47.031 -120.92,-123.812 0,-74.859 50.86,-120.453 117.09,-120.453 59.5,0 119.97,38.39 119.97,124.297 0,71.015 -46.55,119.968 -116.14,119.968 z m -1.44,-43.203 c 40.31,0 56.63,-41.734 56.63,-78.218 0,-47.016 -23.52,-80.125 -57.11,-80.125 -35.99,0 -58.07,34.062 -58.07,79.171 0,38.875 16.8,79.172 58.55,79.172" /><path
         id="path28"
         style="fill:#26080d;fill-opacity:1;fill-rule:nonzero;stroke:none"
         d="m 1894.75,698.484 0,-52.781 -33.59,0 0,-44.156 33.59,0 0,-109.891 c 0,-30.703 5.75,-51.828 18.23,-65.265 11.04,-11.985 29.27,-19.188 50.86,-19.188 18.72,0 34.08,2.391 42.72,5.75 l -0.97,45.11 c -5.26,-1.438 -12.95,-2.875 -23.03,-2.875 -22.54,0 -30.23,14.875 -30.23,43.187 l 0,103.172 56.15,0 0,44.156 -56.15,0 0,66.703 -57.58,-13.922" /><path
         id="path30"
         style="fill:#26080d;fill-opacity:1;fill-rule:nonzero;stroke:none"
         d="m 2113.17,412 0,233.703 -59.5,0 0,-233.703 59.5,0 z m -29.75,331.109 c -19.67,0 -33.11,-13.906 -33.11,-32.14 0,-17.766 12.96,-31.672 32.63,-31.672 20.64,0 33.59,13.906 33.59,31.672 -0.47,18.234 -12.95,32.14 -33.11,32.14" /><path
         id="path32"
         style="fill:#26080d;fill-opacity:1;fill-rule:nonzero;stroke:none"
         d="m 2281.72,650.984 c -70.53,0 -120.92,-47.031 -120.92,-123.812 0,-74.859 50.86,-120.453 117.09,-120.453 59.5,0 119.97,38.39 119.97,124.297 0,71.015 -46.55,119.968 -116.14,119.968 z m -1.44,-43.203 c 40.31,0 56.63,-41.734 56.63,-78.218 0,-47.016 -23.52,-80.125 -57.11,-80.125 -35.99,0 -58.07,34.062 -58.07,79.171 0,38.875 16.8,79.172 58.55,79.172" /><path
         id="path34"
         style="fill:#26080d;fill-opacity:1;fill-rule:nonzero;stroke:none"
         d="m 2446.67,412 59.5,0 0,137.25 c 0,6.719 0.49,13.906 2.41,19.188 6.23,17.75 22.55,34.546 46.06,34.546 32.16,0 44.63,-25.421 44.63,-59.015 l 0,-131.969 59.03,0 0,138.688 c 0,73.89 -42.24,100.296 -83.02,100.296 -38.87,0 -64.31,-22.078 -74.39,-40.312 l -1.44,0 -2.87,35.031 -51.83,0 c 1.44,-20.156 1.92,-42.719 1.92,-69.594 l 0,-164.109" /><path
         id="path36"
         style="fill:#ffffff;fill-opacity:1;fill-rule:evenodd;stroke:none"
         d="m 619.082,1141.04 c -8.23,-7.52 -26.551,-4.47 -40.262,-5.49 -23.828,-1.62 -50.738,3.63 -70.468,-6.03 -13.809,-6.72 -29.411,-41.73 -23.801,-49.68 12.422,-17.57 38.472,-37.05 57.601,-35.75 35.61,2.41 72.668,14.39 104.782,30.84 57.277,29.28 110.707,66.05 167.226,97 14.91,8.16 36.383,11.78 52.922,8.32 158.688,-32.98 316.518,-46.93 464.748,36.05 81,45.34 157,99.68 246.63,157.27 61.53,-34.69 140.44,-71.98 211.36,-120.89 107.6,-74.18 222.76,-97.2 349.44,-75.13 -6.49,-54.84 47.02,-87.82 104.5,-93.03 71.73,-6.57 144.31,-3.23 216.2,-8.43 29.06,-2.13 57.9,-13.95 85.67,-24.38 23.4,-8.75 45.1,-21.96 67.62,-33.03 50.5,-24.965 50.5,-24.914 55.46,-80.223 26.54,-12.391 49.04,-35.711 83.69,-10.793 40.35,29 42.14,69.18 -0.95,96.356 -40.12,25.34 -78.2,54.73 -120.53,75.46 -42.86,20.95 -89.7,33.86 -135.02,49.56 -13.15,4.53 -27.15,6.42 -41.47,9.73 53.48,93.53 140.9,82.77 216.71,83.14 17.43,-19.16 33.85,-45.98 40.97,-43.7 32.66,10.5 63.31,28.18 92.59,46.56 2.41,1.5 -7.03,32.21 -17.65,42.3 -46.1,43.91 -106.4,33.77 -161.4,32.41 -70.39,-1.78 -140.55,-13.55 -209.29,-20.84 -12.14,45.27 -30.74,90.95 -34.4,137.84 -1.92,24.65 22.27,51.36 29.52,66.41 48.76,11.88 90.99,17.7 129.69,32.65 59.11,22.8 67.13,77.51 27.26,125.94 -29.82,36.22 -57.63,75.47 -78.7,117.23 -31.24,61.93 -84.35,87.02 -146.44,91.5 -45.62,3.27 -64.93,25.34 -83.59,62.49 -55.8,110.89 -133.67,202.26 -248.44,256.73 -20.1,9.57 -41.59,16.28 -71.97,27.96 2.18,-27.62 3.87,-49.53 5.63,-72.66 -19.94,2.34 -43.83,5.16 -75.76,8.91 72.53,-151.05 174.31,-263.46 315.75,-327.09 -24.39,-61.8 -47.18,-123.84 -74.66,-183.8 -3.77,-8.21 -32.29,-11.73 -46.46,-7.54 -138.81,41.27 -275.88,88.79 -415.75,125.93 -98.69,26.2 -199.53,52.68 -303.95,34.66 -22.47,-3.87 -43.99,-13.41 -68.52,-21.17 -14,37.91 16.67,63.1 34.32,92.76 -89.43,6.74 -157.12,-33 -187.57,-108.46 -24.03,-59.47 -15,-114.86 23.97,-147.36 -0.44,-2.52 -0.19,-5.68 -1.62,-7.44 -46.16,-56.7 -92.09,-113.61 -139,-169.67 -19.408,-23.21 -43.678,-34.16 -76.197,-32.12 -64.02,3.98 -128.262,4.57 -192.422,4.34 -10.668,-0.02 -23.071,-9.5 -31.668,-17.75 -35.199,-33.7 -66.512,-72.16 -104.75,-101.84 -23.141,-17.93 -55.531,-26.14 -85.121,-32.93 -29.559,-6.77 -51.821,-16.91 -57.77,-49.25 -4.84,-26.52 9.602,-45.5 32.129,-44.91 31.57,0.84 66.082,5.98 93.512,20.34 37.89,19.93 69.828,50.91 105.437,75.59 12.114,8.39 27.59,11.89 41.551,17.66 2.883,-4.7 5.77,-9.34 8.68,-14.02 -39.738,-39.78 -78.52,-80.59 -119.969,-118.53" /><path
         id="path38"
         style="fill:#c1272d;fill-opacity:1;fill-rule:evenodd;stroke:none"
         d="m 600,2238 0,-590.12 333.801,292.07" /><path
         id="path40"
         style="fill:#c1272d;fill-opacity:1;fill-rule:evenodd;stroke:none"
         d="m 240,2248 0,-590.12 333.801,292.07" /></g></g></svg>