<svg xmlns="http://www.w3.org/2000/svg" width="300" height="300" viewBox="0 0 300 300"><switch><g><path fill="#91C4AB" d="M300 247.021c0 6.764 0 52.979-71.5 52.979H66c-62.5 0-66-47.215-66-53.979v-186c0-54.5 59.235-60 66-60l161.5-.029c6.765 0 72.5.029 72.5 60.029v187z"/><g fill="#012B16"><path d="M102.923 245.608l-2.784 9.169h-6.096l10.369-32.354h7.537l10.513 32.354h-6.337l-2.928-9.169h-10.274zm9.265-4.463l-2.544-7.969c-.624-1.969-1.152-4.177-1.632-6.049h-.096c-.48 1.872-.96 4.128-1.536 6.049l-2.496 7.969h8.304zM132.779 224.727v6.673h5.616v4.416h-5.616v10.321c0 2.832.768 4.32 3.024 4.32a8.765 8.765 0 0 0 2.304-.288l.096 4.513c-.864.336-2.4.576-4.272.576-2.16 0-3.984-.721-5.088-1.921-1.248-1.344-1.824-3.456-1.824-6.528v-10.993h-3.36V231.4h3.36v-5.28l5.76-1.393zM142.859 238.36c0-2.688-.048-4.945-.192-6.961h5.088l.24 3.456h.144c1.152-1.824 3.264-3.984 7.201-3.984 3.072 0 5.473 1.729 6.48 4.32h.096c.816-1.296 1.776-2.256 2.881-2.928 1.296-.912 2.784-1.393 4.704-1.393 3.889 0 7.825 2.641 7.825 10.129v13.777h-5.761v-12.913c0-3.889-1.345-6.192-4.177-6.192-2.016 0-3.504 1.439-4.128 3.12-.145.576-.288 1.296-.288 1.968v14.018h-5.761V241.24c0-3.265-1.296-5.568-4.032-5.568-2.208 0-3.696 1.728-4.225 3.36-.24.576-.336 1.248-.336 1.92v13.825h-5.76V238.36zM205.788 242.872c0 8.593-6.049 12.434-12.001 12.434-6.625 0-11.714-4.561-11.714-12.05 0-7.68 5.041-12.385 12.098-12.385 6.96 0 11.617 4.897 11.617 12.001zm-17.618.24c0 4.513 2.209 7.921 5.809 7.921 3.36 0 5.713-3.313 5.713-8.017 0-3.648-1.633-7.825-5.665-7.825-4.176 0-5.857 4.033-5.857 7.921z"/></g><g fill="none" stroke="#FFF" stroke-width="5" stroke-miterlimit="10"><path d="M25.45 140.732h249.382M40.238 141.703l22.604 13.449 21.241-50.068 17.797 72.513 17.798-72.513 21.816 67.909 9.759-79.418 19.52 78.267 20.093-66.758 19.52 76.541 18.945-78.842 14.927 63.304 14.927-35.681"/></g></g></switch></svg>