<svg xmlns="http://www.w3.org/2000/svg" xmlns:xlink="http://www.w3.org/1999/xlink" width="300" height="300" viewBox="0 0 300 300"><switch><g><symbol id="a" viewBox="-150 -150 300 300.007"><path fill="#CE8E95" d="M150-97.021c0-6.764 0-52.979-71.5-52.979H-84c-62.5 0-66 47.215-66 53.979v186c0 54.5 59.235 60 66 60l161.5.029c6.765 0 72.5-.029 72.5-60.029v-187z"/></symbol><use xlink:href="#a" width="300" height="300.007" x="-150" y="-150" transform="matrix(1 0 0 -1 150 150)" overflow="visible"/><g fill="#26080D"><path d="M96.994 221.657c2.208-.384 5.521-.672 8.929-.672 4.657 0 7.825.768 9.985 2.592 1.776 1.488 2.784 3.745 2.784 6.48 0 4.177-2.832 7.009-5.856 8.113v.144c2.304.864 3.696 3.12 4.513 6.241 1.008 4.032 1.872 7.776 2.544 9.024h-6.096c-.48-.96-1.249-3.601-2.161-7.633-.912-4.225-2.448-5.568-5.808-5.664h-2.977v13.297h-5.856v-31.922zm5.856 14.306h3.504c3.984 0 6.48-2.112 6.48-5.329 0-3.552-2.496-5.185-6.336-5.185-1.872 0-3.072.145-3.648.288v10.226zM128.385 243.547c.144 4.225 3.456 6.049 7.201 6.049 2.736 0 4.704-.384 6.48-1.056l.864 4.08c-2.016.816-4.8 1.44-8.161 1.44-7.584 0-12.049-4.657-12.049-11.81 0-6.48 3.937-12.577 11.425-12.577 7.585 0 10.081 6.24 10.081 11.377 0 1.104-.096 1.969-.192 2.496h-15.649zm10.273-4.128c.048-2.16-.912-5.713-4.849-5.713-3.648 0-5.185 3.313-5.424 5.713h10.273zM170.338 230.202c-.096 1.584-.192 3.504-.192 6.721v13.249c0 4.896-1.008 8.4-3.456 10.608-2.448 2.16-5.809 2.833-9.024 2.833-2.977 0-6.145-.624-8.161-1.872l1.296-4.465c1.488.864 3.984 1.776 6.816 1.776 3.841 0 6.721-2.017 6.721-7.057v-2.017h-.096c-1.344 2.064-3.744 3.457-6.816 3.457-5.809 0-9.937-4.801-9.937-11.426 0-7.681 4.993-12.337 10.609-12.337 3.553 0 5.664 1.729 6.769 3.648h.096l.24-3.12h5.135zm-6.097 9.361c0-.527-.048-1.104-.192-1.584-.624-2.16-2.304-3.792-4.8-3.792-3.313 0-5.761 2.88-5.761 7.633 0 3.984 2.017 7.2 5.713 7.2 2.208 0 4.128-1.44 4.8-3.552.145-.624.24-1.44.24-2.112v-3.793zM180.656 243.547c.144 4.225 3.456 6.049 7.2 6.049 2.736 0 4.705-.384 6.48-1.056l.864 4.08c-2.016.816-4.8 1.44-8.16 1.44-7.585 0-12.05-4.657-12.05-11.81 0-6.48 3.937-12.577 11.426-12.577 7.584 0 10.08 6.24 10.08 11.377 0 1.104-.096 1.969-.191 2.496h-15.649zm10.273-4.128c.048-2.16-.912-5.713-4.848-5.713-3.648 0-5.185 3.313-5.425 5.713h10.273zM201.247 219.497h5.953v34.083h-5.953v-34.083z"/></g><g fill="#FFF"><path d="M59.902 136.65c4.05 2.1 13.35 5.999 22.649 5.999 11.85 0 17.85-5.699 17.85-13.049 0-9.6-9.6-13.95-19.649-13.95h-9.3V99.302h8.85c7.65-.15 17.399-3 17.399-11.25 0-5.85-4.8-10.199-14.399-10.199-7.95 0-16.349 3.449-20.399 5.85l-4.65-16.499c5.85-3.75 17.549-7.35 30.149-7.35 20.849 0 32.398 10.949 32.398 24.299 0 10.35-5.85 18.449-17.849 22.648v.301c11.699 2.1 21.149 10.949 21.149 23.698 0 17.25-15.149 29.85-39.898 29.85-12.599 0-23.249-3.301-28.949-6.9l4.649-17.1zM211.098 109.801c0 30.149-12.149 50.849-37.048 50.849-25.199 0-36.299-22.649-36.449-50.248 0-28.199 12-50.548 37.199-50.548 26.098 0 36.298 23.249 36.298 49.947zm-50.548.6c-.149 22.349 5.25 32.998 14.1 32.998s13.649-11.1 13.649-33.299c0-21.599-4.649-32.998-13.799-32.998-8.4.001-14.1 10.65-13.95 33.299zM265.698 78.152c0 12.899-10.65 22.199-22.949 22.199-13.2 0-22.649-9.75-22.649-21.749-.15-12.45 10.05-22.35 22.799-22.35 13.499.001 22.799 10.051 22.799 21.9zm-33.598.3c0 6.45 4.649 11.399 10.799 11.399 6.15 0 10.649-4.949 10.649-11.549 0-5.851-3.749-11.55-10.649-11.55-6.6.001-10.799 5.551-10.799 11.7z"/></g><path fill="none" stroke="#FFF" stroke-width="5" stroke-miterlimit="10" d="M38 107.5h240"/></g></switch></svg>