<svg xmlns="http://www.w3.org/2000/svg" xmlns:xlink="http://www.w3.org/1999/xlink" width="300" height="300" viewBox="0 0 300 300"><switch><g><symbol id="a" viewBox="-150 -150 300 300.007"><path fill="#CE8E95" d="M150-97.021c0-6.764 0-52.979-71.5-52.979H-84c-62.5 0-66 47.215-66 53.979v186c0 54.5 59.235 60 66 60l161.5.029c6.765 0 72.5-.029 72.5-60.029v-187z"/></symbol><use xlink:href="#a" width="300" height="300.007" x="-150" y="-150" transform="matrix(1 0 0 -1 150 150)" overflow="visible"/><g fill="#26080D"><path d="M15.84 258.777v-18.962h-3.168v-4.416h3.168v-1.008c0-2.929 1.2-5.856 3.457-7.729 2.064-1.68 4.704-2.496 8.256-2.496 3.121 0 6 .624 8.113 1.776v32.835h-5.953v-29.618c-.624-.337-1.584-.528-3.072-.528-3.6 0-4.944 2.592-4.944 5.712v1.057h4.8v4.416h-4.752v18.962H15.84zM55.153 258.777l-.384-2.592h-.144c-1.44 1.824-3.889 3.12-6.913 3.12-4.705 0-7.345-3.408-7.345-6.961 0-5.904 5.232-8.881 13.873-8.833v-.384c0-1.536-.624-4.08-4.752-4.08-2.304 0-4.704.72-6.289 1.728l-1.152-3.84c1.728-1.057 4.752-2.064 8.449-2.064 7.489 0 9.649 4.753 9.649 9.841v8.449c0 2.112.096 4.176.336 5.616h-5.328zm-.768-11.424c-4.176-.097-8.161.815-8.161 4.368 0 2.305 1.488 3.36 3.36 3.36 2.352 0 4.081-1.536 4.608-3.216a4.25 4.25 0 0 0 .192-1.297v-3.215zM66.096 253.353c1.344.816 3.888 1.681 6 1.681 2.592 0 3.744-1.057 3.744-2.593 0-1.584-.96-2.399-3.84-3.408-4.561-1.584-6.48-4.08-6.433-6.816 0-4.128 3.408-7.345 8.833-7.345 2.592 0 4.848.672 6.192 1.393l-1.152 4.176c-1.008-.576-2.88-1.344-4.945-1.344-2.112 0-3.264 1.008-3.264 2.448 0 1.488 1.104 2.208 4.081 3.265 4.224 1.536 6.192 3.696 6.24 7.152 0 4.225-3.312 7.297-9.505 7.297-2.832 0-5.376-.673-7.104-1.633l1.153-4.273zM86.399 224.694h5.952v13.921h.096a7.922 7.922 0 0 1 2.928-2.688c1.152-.673 2.544-1.057 4.032-1.057 3.984 0 8.161 2.641 8.161 10.129v13.777h-5.904v-13.105c0-3.408-1.248-5.952-4.512-5.952-2.304 0-3.937 1.536-4.561 3.313-.192.479-.24 1.104-.24 1.776v13.969h-5.952v-34.083zM124.462 258.777v-18.962h-3.168v-4.416h3.168v-1.008c0-3.024.816-6.049 2.832-7.969 1.729-1.633 4.081-2.257 6.097-2.257 1.584 0 2.833.24 3.792.576l-.432 4.561c-.624-.24-1.44-.432-2.496-.432-2.928 0-3.937 2.448-3.937 5.328v1.2h5.137v4.416h-5.089v18.962h-5.904zM160.801 246.872c0 8.593-6.049 12.434-12.001 12.434-6.625 0-11.713-4.561-11.713-12.05 0-7.68 5.041-12.385 12.097-12.385 6.961 0 11.617 4.897 11.617 12.001zm-17.618.24c0 4.513 2.208 7.921 5.809 7.921 3.36 0 5.713-3.313 5.713-8.017 0-3.648-1.632-7.825-5.665-7.825-4.177 0-5.857 4.033-5.857 7.921zM165.646 242.936c0-3.168-.048-5.424-.191-7.536h5.136l.192 4.464h.192c1.151-3.312 3.888-4.992 6.384-4.992.576 0 .912.048 1.393.145v5.568a8.145 8.145 0 0 0-1.729-.192c-2.832 0-4.752 1.824-5.28 4.465a10.12 10.12 0 0 0-.191 1.824v12.097h-5.905v-15.843zM187.343 235.399l2.448 10.608c.528 2.497 1.056 5.041 1.488 7.585h.096c.48-2.544 1.248-5.137 1.92-7.536l3.024-10.657h4.801l2.928 10.369c.721 2.736 1.345 5.28 1.872 7.824h.097c.384-2.544.912-5.088 1.536-7.824l2.592-10.369h5.809l-7.345 23.378h-5.473l-2.784-9.505c-.72-2.448-1.248-4.656-1.776-7.488h-.096c-.479 2.88-1.104 5.185-1.776 7.488l-2.976 9.505h-5.521l-6.913-23.378h6.049zM232.606 258.777l-.384-2.592h-.145c-1.439 1.824-3.888 3.12-6.912 3.12-4.704 0-7.345-3.408-7.345-6.961 0-5.904 5.232-8.881 13.873-8.833v-.384c0-1.536-.624-4.08-4.752-4.08-2.305 0-4.705.72-6.289 1.728l-1.152-3.84c1.729-1.057 4.753-2.064 8.449-2.064 7.488 0 9.648 4.753 9.648 9.841v8.449c0 2.112.097 4.176.336 5.616h-5.327zm-.767-11.424c-4.177-.097-8.161.815-8.161 4.368 0 2.305 1.488 3.36 3.36 3.36 2.353 0 4.08-1.536 4.608-3.216a4.25 4.25 0 0 0 .192-1.297v-3.215zM243.837 242.936c0-3.168-.048-5.424-.191-7.536h5.136l.192 4.464h.192c1.151-3.312 3.888-4.992 6.384-4.992.576 0 .912.048 1.393.145v5.568a8.145 8.145 0 0 0-1.729-.192c-2.832 0-4.752 1.824-5.28 4.465a10.12 10.12 0 0 0-.191 1.824v12.097h-5.905v-15.843zM282.046 224.694v27.507c0 2.399.097 4.992.192 6.576h-5.28l-.24-3.696h-.096c-1.393 2.592-4.225 4.225-7.633 4.225-5.568 0-9.985-4.753-9.985-11.953-.048-7.825 4.849-12.481 10.466-12.481 3.216 0 5.521 1.345 6.576 3.072h.096v-13.249h5.904zm-5.904 20.451a8.31 8.31 0 0 0-.144-1.536c-.528-2.305-2.4-4.177-5.089-4.177-3.792 0-5.904 3.36-5.904 7.729 0 4.272 2.112 7.393 5.856 7.393 2.4 0 4.513-1.632 5.089-4.176.144-.528.191-1.104.191-1.729v-3.504z"/></g><path fill="none" stroke="#FFF" stroke-width="3" stroke-miterlimit="10" d="M277 161.5H25"/><path fill="#FFF" d="M249.75 148.125l.125 26.5 33.375-13.25z"/><path fill="none" stroke="#FFF" stroke-width="2" stroke-miterlimit="10" d="M24 150v23M86 151v23M149 151v23M211 150v23"/><path fill="none" stroke="#C1272D" stroke-width="5" stroke-miterlimit="10" d="M85.5 137V49M83 50.5h126M211.5 137V48"/><path fill="#C1272D" d="M200.297 135.229l21.703-.163-10.629 11.309z"/></g></switch></svg>