<svg xmlns="http://www.w3.org/2000/svg" xmlns:xlink="http://www.w3.org/1999/xlink" width="300" height="300" viewBox="0 0 300 300"><switch><g><symbol id="a" viewBox="-150 -150 300 300.015"><path fill="#AEBCC4" d="M150-97.015c0-6.763 0-52.985-71.5-52.985H-84c-62.5 0-66 47.223-66 53.985v186c0 54.5 59.235 60 66 60l161.5.029c6.765 0 72.5-.029 72.5-60.029v-187z"/></symbol><use xlink:href="#a" width="300" height="300.015" x="-150" y="-150" transform="matrix(1 0 0 -1 150 150)" overflow="visible"/><g fill="#080828"><path d="M69.258 223.979c0-3.072-.096-5.568-.192-7.776h5.185l.288 3.601h.096c1.728-2.641 4.464-4.129 8.017-4.129 5.376 0 9.841 4.608 9.841 11.905 0 8.448-5.329 12.529-10.657 12.529-2.929 0-5.377-1.248-6.577-3.12h-.096v12.097h-5.904v-25.107zm5.904 5.808c0 .576.048 1.104.192 1.632.576 2.4 2.688 4.129 5.185 4.129 3.744 0 5.953-3.12 5.953-7.729 0-4.129-2.016-7.489-5.809-7.489-2.448 0-4.705 1.776-5.28 4.369a5.346 5.346 0 0 0-.24 1.487v3.601zM119.563 227.675c0 8.593-6.048 12.434-12.001 12.434-6.625 0-11.713-4.561-11.713-12.05 0-7.68 5.041-12.385 12.097-12.385 6.961 0 11.617 4.896 11.617 12.001zm-17.617.24c0 4.513 2.208 7.921 5.808 7.921 3.36 0 5.713-3.313 5.713-8.017 0-3.648-1.632-7.825-5.665-7.825-4.176 0-5.856 4.032-5.856 7.921zM130.698 209.674c0 1.775-1.296 3.168-3.36 3.168-1.968 0-3.265-1.393-3.265-3.168 0-1.824 1.344-3.217 3.313-3.217 2.015 0 3.263 1.393 3.312 3.217zm-6.289 29.906v-23.378h5.952v23.378h-5.952zM136.697 223.163c0-2.688-.048-4.945-.192-6.961h5.185l.288 3.504h.144c1.008-1.824 3.552-4.032 7.44-4.032 4.08 0 8.305 2.641 8.305 10.033v13.873h-5.904v-13.201c0-3.36-1.248-5.904-4.464-5.904-2.352 0-3.984 1.68-4.608 3.456-.192.528-.24 1.248-.24 1.92v13.729h-5.952v-16.417zM170.682 209.529v6.673h5.617v4.416h-5.617v10.321c0 2.832.769 4.32 3.024 4.32a8.78 8.78 0 0 0 2.305-.288l.096 4.513c-.864.336-2.4.576-4.272.576-2.16 0-3.984-.721-5.088-1.921-1.249-1.344-1.824-3.456-1.824-6.528v-10.993h-3.36v-4.416h3.36v-5.28l5.759-1.393zM212.923 227.675c0 8.593-6.049 12.434-12.001 12.434-6.625 0-11.714-4.561-11.714-12.05 0-7.68 5.041-12.385 12.098-12.385 6.96 0 11.617 4.896 11.617 12.001zm-17.618.24c0 4.513 2.209 7.921 5.809 7.921 3.36 0 5.713-3.313 5.713-8.017 0-3.648-1.633-7.825-5.665-7.825-4.177 0-5.857 4.032-5.857 7.921zM218.441 239.58v-18.962h-3.169v-4.416h3.169v-1.008c0-3.024.815-6.049 2.832-7.969 1.728-1.633 4.08-2.257 6.097-2.257 1.584 0 2.832.24 3.792.576l-.432 4.561c-.625-.24-1.44-.432-2.497-.432-2.928 0-3.936 2.448-3.936 5.328v1.2h5.136v4.416h-5.088v18.962h-5.904zM106.289 264.202l3.792 11.856c.672 2.064 1.152 3.937 1.584 5.857h.144c.432-1.921.96-3.745 1.584-5.857l3.696-11.856h6.241l-8.929 23.378h-5.809l-8.689-23.378h6.386zM133.217 257.674c0 1.775-1.296 3.168-3.36 3.168-1.968 0-3.265-1.393-3.265-3.168 0-1.824 1.344-3.217 3.313-3.217 2.016 0 3.264 1.393 3.312 3.217zm-6.288 29.906v-23.378h5.952v23.378h-5.952zM143.393 277.547c.144 4.225 3.456 6.049 7.2 6.049 2.736 0 4.705-.384 6.48-1.056l.864 4.08c-2.016.816-4.8 1.44-8.16 1.44-7.585 0-12.049-4.657-12.049-11.81 0-6.48 3.937-12.577 11.425-12.577 7.584 0 10.08 6.24 10.08 11.377 0 1.104-.096 1.969-.191 2.496h-15.649zm10.272-4.128c.048-2.16-.912-5.713-4.848-5.713-3.649 0-5.185 3.313-5.425 5.713h10.273zM167.393 264.202l2.448 10.608c.528 2.497 1.056 5.041 1.488 7.585h.096c.48-2.544 1.248-5.137 1.92-7.536l3.024-10.657h4.801l2.928 10.369c.721 2.736 1.345 5.28 1.872 7.824h.097c.384-2.544.912-5.088 1.536-7.824l2.592-10.369h5.809l-7.345 23.378h-5.473l-2.784-9.505c-.72-2.448-1.248-4.656-1.776-7.488h-.096c-.479 2.88-1.104 5.185-1.776 7.488l-2.976 9.505h-5.521l-6.913-23.378h6.049z"/></g><g fill="#FFF"><circle cx="204.838" cy="117.337" r="79.662"/><circle cx="96.083" cy="115.163" r="79.663"/></g><path fill="#080828" d="M89.771 108.903s13.001 11.293 17.656 18.275l136.604.31s20.765-11.399 21.152-17.994l-9.65-.751s-10.837-6.971-29.459-9.687l-12.789-.769-3.873-6.204-7.368-1.937-3.103 8.923-21.723.388-2.328-4.655-6.593-.388-3.104-10.086-7.758-1.164-3.88 13.578-14.742 1.164-1.552-3.491-13.966-.7 1.552 5.896H116.1v4.89l-4.161 1.552-1.886 2.716-20.282.134z"/><path fill="none" stroke="#080828" stroke-width="1.239" stroke-miterlimit="10" d="M218.941 102.088V86.492l6.03.777-6.03 3.048"/><path fill="none" stroke="#080828" stroke-miterlimit="10" d="M16 115.5h269"/><path fill="none" stroke="#080828" stroke-width="1.239" stroke-miterlimit="10" d="M25.032 137.4s27.259 16.728 41.508.619c0 0 24.78 14.868 47.703 0M69.637 151.03s27.259 16.727 41.508.619c0 0 24.781 14.868 47.703 0"/></g></switch></svg>