<?xml version="1.0" encoding="iso-8859-1"?>
<!-- Generator: Adobe Illustrator 16.0.3, SVG Export Plug-In . SVG Version: 6.00 Build 0)  -->
<!DOCTYPE svg PUBLIC "-//W3C//DTD SVG 1.1//EN" "http://www.w3.org/Graphics/SVG/1.1/DTD/svg11.dtd">
<svg version="1.1" id="Ebene_1" xmlns="http://www.w3.org/2000/svg" xmlns:xlink="http://www.w3.org/1999/xlink" x="0px" y="0px"
	 width="518px" height="518px" viewBox="0 0 518 518" style="enable-background:new 0 0 518 518;" xml:space="preserve">
<path style="fill-rule:evenodd;clip-rule:evenodd;fill:#CE2228;" d="M518,512c0,3.313-2.017,6-4.505,6H4.505
	C2.018,518,0,515.313,0,512V6c0-3.313,2.017-6,4.504-6h508.99C515.983,0,518,2.687,518,6V512z"/>
<g>
	<g id="XMLID_1_">
		<g>
			<path style="fill:#CE2228;" d="M419.679,200.93c0.57,87.61-71.08,160.28-160.37,160.66c-88.46,0.38-160.09-70.49-161.13-160.5
				c0.91-91.88,75.04-160.51,160.47-160.72C346.899,40.14,419.099,111.9,419.679,200.93z"/>
			<path style="fill:#FCFBFB;" d="M98.179,201.09c1.04,90.01,72.67,160.88,161.13,160.5c89.29-0.38,160.94-73.05,160.37-160.66
				c-0.58-89.03-72.779-160.79-161.03-160.56C173.219,40.58,99.089,109.21,98.179,201.09z M254.709,376.09
				c-94.72-2.21-173.28-81.439-170.77-179.76c2.41-94.42,80.57-170.87,175.1-170.34c96.51-0.58,177.17,79.81,175.04,178.93
				C432.039,300.08,352.519,378.37,254.709,376.09z"/>
		</g>
		<g>
		</g>
	</g>
</g>
<g>
	<rect x="-7.001" y="413" style="fill-rule:evenodd;clip-rule:evenodd;fill:none;" width="525.002" height="106"/>
	<path style="fill:#FFFFFF;" d="M52.338,435.144l-4.028,4.272V450.5h-6.177v-35.547h6.177v16.675l3.418-4.224l10.4-12.451h7.471
		L56.391,430.7l13.965,19.8h-7.324L52.338,435.144z"/>
	<path style="fill:#FFFFFF;" d="M79.389,450.5h-5.933V413h5.933V450.5z"/>
	<path style="fill:#FFFFFF;" d="M85.859,417.224c0-0.911,0.289-1.668,0.867-2.271c0.578-0.602,1.404-0.903,2.478-0.903
		s1.904,0.302,2.49,0.903c0.586,0.603,0.879,1.359,0.879,2.271c0,0.896-0.293,1.64-0.879,2.233c-0.586,0.595-1.416,0.892-2.49,0.892
		s-1.9-0.297-2.478-0.892C86.147,418.863,85.859,418.119,85.859,417.224z M92.158,450.5h-5.933v-26.416h5.933V450.5z"/>
	<path style="fill:#FFFFFF;" d="M113.422,443.322c0-1.058-0.436-1.863-1.306-2.417c-0.871-0.553-2.315-1.041-4.333-1.465
		c-2.019-0.423-3.703-0.96-5.054-1.611c-2.962-1.432-4.443-3.507-4.443-6.226c0-2.278,0.96-4.183,2.881-5.713
		c1.92-1.529,4.362-2.295,7.324-2.295c3.157,0,5.708,0.781,7.654,2.344c1.945,1.563,2.917,3.589,2.917,6.079h-5.933
		c0-1.139-0.423-2.087-1.27-2.845c-0.847-0.756-1.97-1.135-3.369-1.135c-1.302,0-2.364,0.302-3.186,0.903
		c-0.822,0.603-1.233,1.408-1.233,2.417c0,0.912,0.382,1.62,1.147,2.124c0.765,0.505,2.311,1.013,4.639,1.526
		c2.327,0.512,4.154,1.123,5.481,1.83c1.326,0.709,2.311,1.56,2.954,2.552c0.643,0.993,0.964,2.197,0.964,3.613
		c0,2.377-0.985,4.301-2.954,5.774c-1.97,1.473-4.549,2.209-7.739,2.209c-2.165,0-4.094-0.391-5.786-1.172
		c-1.693-0.781-3.011-1.855-3.955-3.223c-0.944-1.367-1.416-2.84-1.416-4.419h5.762c0.081,1.4,0.61,2.478,1.587,3.235
		c0.977,0.756,2.271,1.135,3.882,1.135c1.563,0,2.75-0.297,3.564-0.891C113.015,445.06,113.422,444.283,113.422,443.322z"/>
	<path style="fill:#FFFFFF;" d="M135.273,446.252c1.481,0,2.71-0.431,3.687-1.294c0.977-0.862,1.497-1.929,1.563-3.198h5.591
		c-0.065,1.645-0.578,3.178-1.538,4.602c-0.96,1.425-2.263,2.552-3.906,3.382c-1.644,0.83-3.418,1.245-5.322,1.245
		c-3.695,0-6.625-1.196-8.789-3.589c-2.165-2.393-3.247-5.696-3.247-9.912v-0.61c0-4.02,1.074-7.238,3.223-9.656
		c2.148-2.416,5.078-3.625,8.789-3.625c3.141,0,5.701,0.916,7.678,2.746c1.978,1.832,3.015,4.236,3.113,7.215h-5.591
		c-0.065-1.514-0.582-2.759-1.55-3.735c-0.969-0.977-2.202-1.465-3.699-1.465c-1.921,0-3.402,0.696-4.443,2.087
		c-1.042,1.393-1.571,3.504-1.587,6.336v0.952c0,2.865,0.517,5.001,1.55,6.409C131.826,445.548,133.32,446.252,135.273,446.252z"/>
	<path style="fill:#FFFFFF;" d="M156.44,426.965c1.937-2.246,4.386-3.369,7.349-3.369c5.631,0,8.488,3.215,8.569,9.644V450.5h-5.933
		v-17.041c0-1.822-0.395-3.113-1.184-3.869c-0.79-0.758-1.949-1.136-3.479-1.136c-2.376,0-4.15,1.059-5.322,3.174V450.5h-5.933V413
		h5.933V426.965z"/>
	<path style="fill:#FFFFFF;" d="M189.985,450.988c-3.76,0-6.808-1.184-9.143-3.553c-2.336-2.367-3.503-5.521-3.503-9.46v-0.732
		c0-2.637,0.508-4.993,1.526-7.067c1.017-2.076,2.445-3.69,4.285-4.847c1.839-1.155,3.89-1.733,6.152-1.733
		c3.597,0,6.376,1.147,8.337,3.442c1.961,2.295,2.942,5.542,2.942,9.741v2.393H183.32c0.179,2.182,0.907,3.906,2.185,5.176
		c1.277,1.27,2.885,1.904,4.822,1.904c2.718,0,4.932-1.099,6.641-3.296l3.198,3.052c-1.058,1.579-2.47,2.804-4.236,3.674
		C194.164,450.553,192.182,450.988,189.985,450.988z M189.277,428.356c-1.628,0-2.942,0.57-3.943,1.709
		c-1.001,1.14-1.64,2.727-1.917,4.761h11.304v-0.439c-0.13-1.985-0.659-3.487-1.587-4.504
		C192.207,428.865,190.92,428.356,189.277,428.356z"/>
	<path style="fill:#FFFFFF;" d="M216.816,450.988c-3.76,0-6.808-1.184-9.143-3.553c-2.336-2.367-3.503-5.521-3.503-9.46v-0.732
		c0-2.637,0.508-4.993,1.526-7.067c1.017-2.076,2.445-3.69,4.285-4.847c1.839-1.155,3.89-1.733,6.152-1.733
		c3.597,0,6.376,1.147,8.337,3.442c1.961,2.295,2.942,5.542,2.942,9.741v2.393h-17.261c0.179,2.182,0.907,3.906,2.185,5.176
		c1.277,1.27,2.885,1.904,4.822,1.904c2.718,0,4.932-1.099,6.641-3.296l3.198,3.052c-1.058,1.579-2.47,2.804-4.236,3.674
		C220.995,450.553,219.013,450.988,216.816,450.988z M216.108,428.356c-1.628,0-2.942,0.57-3.943,1.709
		c-1.001,1.14-1.64,2.727-1.917,4.761h11.304v-0.439c-0.13-1.985-0.659-3.487-1.587-4.504
		C219.038,428.865,217.751,428.356,216.108,428.356z"/>
	<path style="fill:#FFFFFF;" d="M246.821,443.322c0-1.058-0.436-1.863-1.306-2.417c-0.871-0.553-2.315-1.041-4.333-1.465
		c-2.019-0.423-3.703-0.96-5.054-1.611c-2.962-1.432-4.443-3.507-4.443-6.226c0-2.278,0.96-4.183,2.881-5.713
		c1.92-1.529,4.362-2.295,7.324-2.295c3.157,0,5.708,0.781,7.654,2.344c1.945,1.563,2.917,3.589,2.917,6.079h-5.933
		c0-1.139-0.423-2.087-1.27-2.845c-0.847-0.756-1.97-1.135-3.369-1.135c-1.302,0-2.364,0.302-3.186,0.903
		c-0.822,0.603-1.233,1.408-1.233,2.417c0,0.912,0.382,1.62,1.147,2.124c0.765,0.505,2.311,1.013,4.639,1.526
		c2.327,0.512,4.154,1.123,5.481,1.83c1.326,0.709,2.311,1.56,2.954,2.552c0.643,0.993,0.964,2.197,0.964,3.613
		c0,2.377-0.985,4.301-2.954,5.774c-1.97,1.473-4.549,2.209-7.739,2.209c-2.165,0-4.094-0.391-5.786-1.172
		c-1.693-0.781-3.011-1.855-3.955-3.223c-0.944-1.367-1.416-2.84-1.416-4.419h5.762c0.081,1.4,0.61,2.478,1.587,3.235
		c0.977,0.756,2.271,1.135,3.882,1.135c1.563,0,2.75-0.297,3.564-0.891C246.414,445.06,246.821,444.283,246.821,443.322z"/>
	<path style="fill:#FFFFFF;" d="M293.452,437.561c0,4.102-0.916,7.365-2.747,9.79c-1.831,2.426-4.35,3.638-7.556,3.638
		c-3.093,0-5.501-1.114-7.227-3.345l-0.293,2.856h-5.371V413h5.933v13.623c1.709-2.018,4.012-3.027,6.909-3.027
		c3.223,0,5.753,1.196,7.593,3.589c1.839,2.393,2.759,5.737,2.759,10.034V437.561z M287.519,437.048
		c0-2.864-0.505-5.013-1.514-6.445c-1.009-1.432-2.474-2.148-4.395-2.148c-2.572,0-4.378,1.123-5.42,3.369v10.889
		c1.058,2.295,2.881,3.442,5.469,3.442c1.855,0,3.288-0.691,4.297-2.075c1.009-1.383,1.53-3.475,1.563-6.274V437.048z"/>
	<path style="fill:#FFFFFF;" d="M310.053,450.988c-3.76,0-6.808-1.184-9.143-3.553c-2.336-2.367-3.503-5.521-3.503-9.46v-0.732
		c0-2.637,0.508-4.993,1.526-7.067c1.017-2.076,2.445-3.69,4.285-4.847c1.839-1.155,3.89-1.733,6.152-1.733
		c3.597,0,6.376,1.147,8.337,3.442c1.961,2.295,2.942,5.542,2.942,9.741v2.393h-17.261c0.179,2.182,0.907,3.906,2.185,5.176
		c1.277,1.27,2.885,1.904,4.822,1.904c2.718,0,4.932-1.099,6.641-3.296l3.198,3.052c-1.058,1.579-2.47,2.804-4.236,3.674
		C314.232,450.553,312.25,450.988,310.053,450.988z M309.345,428.356c-1.628,0-2.942,0.57-3.943,1.709
		c-1.001,1.14-1.64,2.727-1.917,4.761h11.304v-0.439c-0.13-1.985-0.659-3.487-1.587-4.504
		C312.275,428.865,310.989,428.356,309.345,428.356z"/>
	<path style="fill:#FFFFFF;" d="M324.14,437.097c0-4.068,0.944-7.337,2.832-9.802c1.889-2.467,4.419-3.699,7.593-3.699
		c2.799,0,5.063,0.977,6.787,2.93V413h5.934v37.5h-5.371l-0.293-2.734c-1.775,2.148-4.143,3.223-7.105,3.223
		c-3.092,0-5.595-1.245-7.507-3.735S324.14,441.378,324.14,437.097z M330.072,437.609c0,2.686,0.518,4.781,1.551,6.287
		c1.033,1.505,2.502,2.258,4.406,2.258c2.426,0,4.199-1.082,5.322-3.247v-11.279c-1.09-2.115-2.848-3.174-5.273-3.174
		c-1.92,0-3.402,0.761-4.443,2.282C330.594,432.259,330.072,434.55,330.072,437.609z"/>
	<path style="fill:#FFFFFF;" d="M353.485,417.224c0-0.911,0.289-1.668,0.866-2.271c0.578-0.602,1.404-0.903,2.479-0.903
		s1.904,0.302,2.49,0.903c0.586,0.603,0.879,1.359,0.879,2.271c0,0.896-0.293,1.64-0.879,2.233c-0.586,0.595-1.416,0.892-2.49,0.892
		s-1.9-0.297-2.479-0.892C353.774,418.863,353.485,418.119,353.485,417.224z M359.784,450.5h-5.933v-26.416h5.933V450.5z"/>
	<path style="fill:#FFFFFF;" d="M377.875,450.988c-3.76,0-6.808-1.184-9.144-3.553c-2.335-2.367-3.503-5.521-3.503-9.46v-0.732
		c0-2.637,0.509-4.993,1.526-7.067c1.017-2.076,2.444-3.69,4.284-4.847c1.839-1.155,3.89-1.733,6.152-1.733
		c3.597,0,6.376,1.147,8.337,3.442c1.962,2.295,2.942,5.542,2.942,9.741v2.393H371.21c0.179,2.182,0.907,3.906,2.186,5.176
		c1.277,1.27,2.884,1.904,4.821,1.904c2.718,0,4.932-1.099,6.641-3.296l3.198,3.052c-1.059,1.579-2.47,2.804-4.236,3.674
		C382.054,450.553,380.072,450.988,377.875,450.988z M377.167,428.356c-1.628,0-2.941,0.57-3.943,1.709
		c-1,1.14-1.64,2.727-1.916,4.761h11.304v-0.439c-0.131-1.985-0.659-3.487-1.587-4.504
		C380.097,428.865,378.811,428.356,377.167,428.356z"/>
	<path style="fill:#FFFFFF;" d="M398.578,424.084l0.171,3.052c1.953-2.359,4.517-3.54,7.69-3.54c5.501,0,8.301,3.149,8.398,9.448
		V450.5h-5.933v-17.114c0-1.676-0.362-2.917-1.087-3.724c-0.724-0.805-1.908-1.208-3.552-1.208c-2.393,0-4.175,1.083-5.347,3.247
		V450.5h-5.933v-26.416H398.578z"/>
	<path style="fill:#FFFFFF;" d="M432.514,450.988c-3.76,0-6.808-1.184-9.144-3.553c-2.335-2.367-3.503-5.521-3.503-9.46v-0.732
		c0-2.637,0.509-4.993,1.526-7.067c1.017-2.076,2.444-3.69,4.284-4.847c1.839-1.155,3.89-1.733,6.152-1.733
		c3.597,0,6.376,1.147,8.337,3.442c1.962,2.295,2.942,5.542,2.942,9.741v2.393h-17.261c0.179,2.182,0.907,3.906,2.186,5.176
		c1.277,1.27,2.884,1.904,4.821,1.904c2.718,0,4.932-1.099,6.641-3.296l3.198,3.052c-1.059,1.579-2.47,2.804-4.236,3.674
		C436.692,450.553,434.711,450.988,432.514,450.988z M431.806,428.356c-1.628,0-2.941,0.57-3.943,1.709
		c-1,1.14-1.64,2.727-1.916,4.761h11.304v-0.439c-0.131-1.985-0.659-3.487-1.587-4.504
		C434.735,428.865,433.449,428.356,431.806,428.356z"/>
	<path style="fill:#FFFFFF;" d="M453.217,424.084l0.171,3.052c1.953-2.359,4.517-3.54,7.69-3.54c5.501,0,8.301,3.149,8.398,9.448
		V450.5h-5.933v-17.114c0-1.676-0.362-2.917-1.087-3.724c-0.724-0.805-1.908-1.208-3.552-1.208c-2.393,0-4.175,1.083-5.347,3.247
		V450.5h-5.933v-26.416H453.217z"/>
</g>
<path style="fill-rule:evenodd;clip-rule:evenodd;fill:#FFFFFF;" d="M195.625,81.122c15.547,1.597,29.746,3.541,44.01,4.411
	c24.319,1.484,48.557-0.014,72.749-3c12.074-1.49,24.174-1.185,36.187,1.971c6.763,1.776,10.204,5.668,10.397,12.132
	c0.305,10.263,1.004,20.676-0.281,30.794c-4.064,32.019-8.941,63.935-13.57,95.88c-1.911,13.191-6.239,25.459-14.034,36.436
	c-11.376,16.02-22.451,32.254-33.944,48.188c-7.994,11.081-18.103,18.724-32.61,19.538c-14.701,0.825-27.427-3.316-36.192-15.077
	c-14.615-19.608-28.694-39.649-42.206-60.033c-7.999-12.067-9.08-26.612-11.09-40.604c-3.951-27.505-8.107-54.989-11.428-82.572
	c-1.28-10.631-0.781-21.513-0.59-32.271c0.119-6.689,3.477-11.3,10.655-12.352C181.375,83.434,189.051,82.158,195.625,81.122z
	 M328.216,177.566c-2.947-8.387-7.002-14.782-16.049-15.963c-10.108-1.319-19.688-0.477-27.123,7.676
	c-2.736,3-2.846,6.194,0.695,8.475c3.574,2.301,7.333,5.015,11.351,5.791C307.93,185.643,318.122,182.747,328.216,177.566z
	 M193.691,176.98c11.548,9.061,28.688,8.877,41.934-0.107c3.488-2.366,3.267-4.49,1.054-7.293c-3.966-5.022-9.5-7.145-15.532-8.144
	C205.378,158.825,196.703,163.784,193.691,176.98z M298.878,276.353c-0.403-5.712-3.677-7.9-7.418-9.327
	c-18.184-6.931-36.488-8.191-54.93-0.835c-4.78,1.906-7.994,4.938-9.774,10.377C250.741,269.255,274.443,264.585,298.878,276.353z
	 M185.348,153.898c6.775-1.332,13.319-3.42,19.951-3.752c12.459-0.624,23.758,3.868,34.468,9.933
	c4.232,2.396,7.702,1.67,9.287-1.791c1.592-3.476-0.052-6.576-4.585-8.322c-10.346-3.984-21.069-6.108-32.162-5.548
	C202.385,144.92,193.063,147.432,185.348,153.898z M337.263,154.619c-8.717-7.286-18.434-9.967-28.94-10.229
	c-10.263-0.255-20.142,1.772-29.569,5.831c-3.673,1.581-4.949,4.563-3.207,8.141c1.75,3.591,4.99,3.312,8.184,2.069
	c0.913-0.354,1.688-1.052,2.559-1.532c15.684-8.654,31.78-12.482,48.926-4.189C335.583,154.887,336.138,154.682,337.263,154.619z"/>
</svg>
