<svg xmlns="http://www.w3.org/2000/svg" xmlns:xlink="http://www.w3.org/1999/xlink" width="300" height="300" viewBox="0 0 300 300"><switch><g><symbol id="a" viewBox="-150 -150 300 300.015"><path fill="#AEBCC4" d="M150-97.015c0-6.763 0-52.985-71.5-52.985H-84c-62.5 0-66 47.223-66 53.985v186c0 54.5 59.235 60 66 60l161.5.029c6.765 0 72.5-.029 72.5-60.029v-187z"/></symbol><use xlink:href="#a" width="300" height="300.015" x="-150" y="-150" transform="matrix(1 0 0 -1 150 150)" overflow="visible"/><g fill="#080828"><path d="M102.557 233.246l-10.465-32.354h6.433l4.417 14.688c1.248 4.081 2.304 7.873 3.168 11.81h.096c.864-3.841 2.016-7.776 3.313-11.713l4.704-14.785h6.289l-11.185 32.354h-6.77zM144.174 221.341c0 8.593-6.048 12.434-12.001 12.434-6.625 0-11.713-4.561-11.713-12.05 0-7.68 5.041-12.385 12.097-12.385 6.961 0 11.617 4.896 11.617 12.001zm-17.617.24c0 4.513 2.208 7.921 5.808 7.921 3.36 0 5.713-3.313 5.713-8.017 0-3.648-1.632-7.825-5.665-7.825-4.176 0-5.856 4.032-5.856 7.921zM170.382 209.868c-.096 1.584-.192 3.504-.192 6.721v13.249c0 4.896-1.008 8.4-3.456 10.608-2.448 2.16-5.809 2.833-9.024 2.833-2.977 0-6.145-.624-8.161-1.872l1.296-4.465c1.488.864 3.984 1.776 6.816 1.776 3.841 0 6.721-2.017 6.721-7.057v-2.017h-.096c-1.344 2.064-3.744 3.457-6.816 3.457-5.809 0-9.937-4.801-9.937-11.426 0-7.681 4.992-12.337 10.609-12.337 3.553 0 5.664 1.729 6.769 3.648h.096l.24-3.12h5.135zm-6.097 9.361c0-.527-.048-1.104-.192-1.584-.624-2.16-2.304-3.792-4.8-3.792-3.313 0-5.761 2.88-5.761 7.633 0 3.984 2.017 7.2 5.713 7.2 2.208 0 4.128-1.44 4.8-3.552.145-.624.24-1.44.24-2.112v-3.793zM180.699 223.213c.144 4.225 3.456 6.049 7.2 6.049 2.736 0 4.705-.384 6.48-1.056l.864 4.08c-2.016.816-4.8 1.44-8.16 1.44-7.585 0-12.05-4.657-12.05-11.81 0-6.48 3.937-12.577 11.426-12.577 7.584 0 10.08 6.24 10.08 11.377 0 1.104-.096 1.969-.191 2.496h-15.649zm10.273-4.128c.049-2.16-.912-5.713-4.848-5.713-3.648 0-5.185 3.313-5.425 5.713h10.273zM201.29 199.163h5.953v34.083h-5.953v-34.083zM224.14 218.413v4.08h-12.241v-4.08h12.241zM39.389 265.645c0-3.072-.096-5.568-.192-7.776h5.185l.288 3.601h.096c1.728-2.641 4.464-4.129 8.017-4.129 5.376 0 9.841 4.608 9.841 11.905 0 8.448-5.329 12.529-10.657 12.529-2.928 0-5.376-1.248-6.576-3.12h-.096v12.097h-5.904v-25.107zm5.904 5.808c0 .576.048 1.104.192 1.632.576 2.4 2.688 4.129 5.185 4.129 3.744 0 5.953-3.12 5.953-7.729 0-4.129-2.016-7.489-5.809-7.489-2.448 0-4.705 1.776-5.28 4.369a5.346 5.346 0 0 0-.24 1.487v3.601zM71.645 271.213c.144 4.225 3.456 6.049 7.201 6.049 2.736 0 4.704-.384 6.48-1.056l.864 4.08c-2.017.816-4.801 1.44-8.161 1.44-7.584 0-12.049-4.657-12.049-11.81 0-6.48 3.937-12.577 11.425-12.577 7.585 0 10.081 6.24 10.081 11.377 0 1.104-.096 1.969-.192 2.496H71.645zm10.273-4.128c.048-2.16-.912-5.713-4.849-5.713-3.648 0-5.185 3.313-5.424 5.713h10.273zM92.236 265.404c0-3.168-.048-5.424-.192-7.536h5.137l.192 4.464h.192c1.152-3.312 3.889-4.992 6.385-4.992.576 0 .912.048 1.392.145v5.568a8.142 8.142 0 0 0-1.728-.192c-2.833 0-4.752 1.824-5.281 4.465-.096.527-.192 1.151-.192 1.824v12.097h-5.904v-15.843zM109.036 275.821c1.344.816 3.888 1.681 6 1.681 2.592 0 3.744-1.057 3.744-2.593 0-1.584-.96-2.399-3.84-3.408-4.56-1.584-6.48-4.08-6.433-6.816 0-4.128 3.409-7.345 8.833-7.345 2.592 0 4.848.672 6.192 1.393l-1.152 4.176c-1.008-.576-2.88-1.344-4.945-1.344-2.112 0-3.264 1.008-3.264 2.448 0 1.488 1.104 2.208 4.081 3.265 4.224 1.536 6.192 3.696 6.24 7.152 0 4.225-3.312 7.297-9.504 7.297-2.833 0-5.377-.673-7.105-1.633l1.153-4.273zM129.339 265.645c0-3.072-.096-5.568-.192-7.776h5.185l.288 3.601h.096c1.728-2.641 4.464-4.129 8.017-4.129 5.376 0 9.841 4.608 9.841 11.905 0 8.448-5.329 12.529-10.657 12.529-2.928 0-5.376-1.248-6.576-3.12h-.096v12.097h-5.904v-25.107zm5.905 5.808c0 .576.048 1.104.192 1.632.576 2.4 2.688 4.129 5.185 4.129 3.744 0 5.953-3.12 5.953-7.729 0-4.129-2.016-7.489-5.809-7.489-2.448 0-4.705 1.776-5.28 4.369a5.346 5.346 0 0 0-.24 1.487v3.601zM161.595 271.213c.145 4.225 3.457 6.049 7.201 6.049 2.736 0 4.704-.384 6.48-1.056l.864 4.08c-2.017.816-4.801 1.44-8.161 1.44-7.584 0-12.049-4.657-12.049-11.81 0-6.48 3.937-12.577 11.425-12.577 7.585 0 10.081 6.24 10.081 11.377 0 1.104-.096 1.969-.192 2.496h-15.649zm10.273-4.128c.048-2.16-.912-5.713-4.849-5.713-3.648 0-5.185 3.313-5.425 5.713h10.274zM188.092 268.141h.096c.576-.912 1.248-1.92 1.872-2.736l5.664-7.536h7.105l-8.642 9.553 9.89 13.825h-7.249l-6.721-10.321-2.016 2.353v7.969h-5.905v-34.083h5.905v20.976zM213.387 251.195v6.673h5.617v4.416h-5.617v10.321c0 2.832.769 4.32 3.024 4.32a8.78 8.78 0 0 0 2.305-.288l.096 4.513c-.864.336-2.4.576-4.272.576-2.16 0-3.984-.721-5.088-1.921-1.249-1.344-1.824-3.456-1.824-6.528v-10.993h-3.36v-4.416h3.36v-5.28l5.759-1.393zM229.755 251.34c0 1.775-1.296 3.168-3.36 3.168-1.969 0-3.265-1.393-3.265-3.168 0-1.824 1.345-3.217 3.313-3.217 2.016 0 3.264 1.393 3.312 3.217zm-6.289 29.906v-23.378h5.953v23.378h-5.953zM239.499 257.868l3.792 11.856c.672 2.064 1.152 3.937 1.584 5.857h.144c.433-1.921.961-3.745 1.585-5.857l3.696-11.856h6.24l-8.929 23.378h-5.809l-8.688-23.378h6.385zM263.691 271.213c.144 4.225 3.456 6.049 7.2 6.049 2.736 0 4.705-.384 6.48-1.056l.864 4.08c-2.016.816-4.8 1.44-8.16 1.44-7.585 0-12.05-4.657-12.05-11.81 0-6.48 3.937-12.577 11.426-12.577 7.584 0 10.08 6.24 10.08 11.377 0 1.104-.096 1.969-.191 2.496h-15.649zm10.273-4.128c.049-2.16-.912-5.713-4.848-5.713-3.648 0-5.185 3.313-5.425 5.713h10.273z"/></g><path fill="none" d="M42 7h225"/><path fill-rule="evenodd" clip-rule="evenodd" fill="#FFF" d="M191.951 189.738c-.072-2.367 2.283-3.609 4.42-4.019 3.981-.761 6.396-3.605 6.411-7.656.014-3.791.036-7.583-.008-11.374-.035-2.992-.183-3.094-3.16-3.092h-8.345c-.111-1.669-.283-3.329-.323-4.991-.155-6.275-.28-12.55-.393-18.826-.035-1.94 1.408-3.339 3.333-3.38.959-.02 1.915-.142 3.315-.251-.46-1.92-.784-3.705-1.37-5.399-.141-.407-1.155-.511-1.928-.819l-.577-2.605h-2.841c.15-2.638.195-5.207.462-7.751.494-4.71 1.111-9.408 1.691-14.109.711-5.764 1.354-11.54 2.226-17.28.189-1.246 1.09-2.479 1.92-3.509 1-1.24 2.052-2.309 1.713-4.119-.089-.476.451-1.048.63-1.6.304-.936.714-1.879.78-2.839.08-1.156-.473-1.81-1.862-1.749-2.331.103-2.398-.178-2.914-2.54-.255-1.17-1.058-2.213-1.529-3.348-.167-.403-.167-.919-.106-1.365.316-2.302 1.078-4.593 1.35-6.899.051-.421-.656-.935-.921-1.339-1.184-1.805-.74-3.177 1.318-3.655 2.774-.644 5.56-1.257 8.365-1.743 1.767-.307 3.146.7 4.224 1.945 3.341 3.862 4.343 8.172 2.026 12.913-.797 1.631-.697 2.969.578 4.242.725.722 1.374 1.528 2.145 2.193 5.93 5.105 7.33 11.683 6.259 19.074-.816 5.636-1.813 11.197-1.342 17.005.494 6.103.11 12.276.11 18.566l-2.936.208.46 6.427h2.146c2.717-.003 5.435-.005 8.151-.009 2.409-.004 3.781 1.338 3.817 3.668.108 7.002.237 14.002.355 21.003.012.65.002 1.303.002 2.066l-11.926.567c.114 1.241.328 2.418.311 3.592-.078 5.051-.183 10.102-.396 15.146-.027.641-.76 1.251-1.512 1.741.146.943.313 1.883.432 2.828.279 2.21-.338 3.191-2.508 3.347-2.274.162-4.576-.06-6.86.021-1.119.041-2.222.438-3.343.588-4.037.534-7.961-.185-11.85-.874z"/><path fill="none" stroke="#C1272D" stroke-width="2.939" stroke-miterlimit="10" stroke-dasharray="11.7565,3.9188" d="M66.488 62.234l120.023.486"/><path fill="#C1272D" d="M197.366 30.525l2.805 15.047 3.783-.734c.056.039.035.17-.002.227l-4.094 6.553a.117.117 0 0 1-.166.032l-6.249-4.545c-.056-.039-.035-.17 0-.228l3.484-.676-2.805-15.047 3.244-.629z"/><path fill="#080828" d="M198.989 21.753l-.475-2.736 4.206-6.601c1.34-1.759.529-5.953.529-5.953L202.258 1h-23.661l1.706 9.569c.382 4.87 2.466 5.623 2.466 5.623l5.833 4.571.468 2.672c-2.411 2.584-3.476 8.012-3.476 8.012l19.002-3.233c-2.567-5.431-5.607-6.461-5.607-6.461z"/></g></switch></svg>