<svg xmlns="http://www.w3.org/2000/svg" xmlns:xlink="http://www.w3.org/1999/xlink" width="300" height="300" viewBox="0 0 300 300"><switch><g><symbol id="a" viewBox="-150 -150 300 300.007"><path fill="#CE8E95" d="M150-97.021c0-6.764 0-52.979-71.5-52.979H-84c-62.5 0-66 47.215-66 53.979v186c0 54.5 59.235 60 66 60l161.5.029c6.765 0 72.5-.029 72.5-60.029v-187z"/></symbol><use xlink:href="#a" width="300" height="300.007" x="-150" y="-150" transform="matrix(1 0 0 -1 150 150)" overflow="visible"/><g fill="#26080D"><path d="M69.297 225.738c0-3.168-.048-5.424-.192-7.536h5.137l.192 4.464h.192c1.152-3.312 3.889-4.992 6.385-4.992.576 0 .912.048 1.392.145v5.568a8.142 8.142 0 0 0-1.728-.192c-2.833 0-4.752 1.824-5.281 4.465-.096.527-.192 1.151-.192 1.824v12.097h-5.904v-15.843zM90.13 231.547c.144 4.225 3.456 6.049 7.201 6.049 2.736 0 4.704-.384 6.48-1.056l.864 4.08c-2.016.816-4.8 1.44-8.161 1.44-7.584 0-12.049-4.657-12.049-11.81 0-6.48 3.937-12.577 11.425-12.577 7.585 0 10.081 6.24 10.081 11.377 0 1.104-.096 1.969-.192 2.496H90.13zm10.273-4.128c.048-2.16-.912-5.713-4.849-5.713-3.648 0-5.185 3.313-5.424 5.713h10.273zM123.874 241.58l-.384-2.592h-.144c-1.44 1.824-3.888 3.12-6.913 3.12-4.705 0-7.345-3.408-7.345-6.961 0-5.904 5.232-8.881 13.873-8.833v-.384c0-1.536-.624-4.08-4.752-4.08-2.304 0-4.704.72-6.289 1.728l-1.152-3.84c1.728-1.057 4.752-2.064 8.449-2.064 7.489 0 9.649 4.753 9.649 9.841v8.449c0 2.112.096 4.176.336 5.616h-5.328zm-.768-11.425c-4.176-.097-8.161.815-8.161 4.368 0 2.305 1.488 3.36 3.36 3.36 2.352 0 4.081-1.536 4.608-3.216a4.25 4.25 0 0 0 .192-1.297v-3.215zM152.29 240.86c-1.248.576-3.696 1.2-6.625 1.2-7.296 0-12.049-4.657-12.049-11.905 0-7.009 4.8-12.481 13.009-12.481 2.16 0 4.368.48 5.712 1.104l-1.056 4.416c-.96-.432-2.352-.912-4.464-.912-4.512 0-7.201 3.313-7.153 7.585 0 4.801 3.121 7.536 7.153 7.536 2.064 0 3.504-.432 4.657-.912l.816 4.369zM164.144 211.529v6.673h5.617v4.416h-5.617v10.321c0 2.832.769 4.32 3.024 4.32a8.78 8.78 0 0 0 2.305-.288l.096 4.513c-.864.336-2.4.576-4.272.576-2.16 0-3.984-.721-5.088-1.921-1.249-1.344-1.824-3.456-1.824-6.528v-10.993h-3.36v-4.416h3.36v-5.28l5.759-1.393zM180.512 211.674c0 1.775-1.296 3.168-3.36 3.168-1.969 0-3.265-1.393-3.265-3.168 0-1.824 1.345-3.217 3.313-3.217 2.016 0 3.264 1.393 3.312 3.217zm-6.289 29.906v-23.378h5.953v23.378h-5.953zM208.738 229.675c0 8.593-6.049 12.434-12.001 12.434-6.625 0-11.714-4.561-11.714-12.05 0-7.68 5.041-12.385 12.098-12.385 6.961 0 11.617 4.896 11.617 12.001zm-17.618.24c0 4.513 2.208 7.921 5.809 7.921 3.36 0 5.713-3.313 5.713-8.017 0-3.648-1.632-7.825-5.665-7.825-4.176 0-5.857 4.032-5.857 7.921zM213.584 225.163c0-2.688-.048-4.945-.191-6.961h5.185l.288 3.504h.144c1.008-1.824 3.553-4.032 7.44-4.032 4.08 0 8.305 2.641 8.305 10.033v13.873h-5.904v-13.201c0-3.36-1.248-5.904-4.465-5.904-2.352 0-3.984 1.68-4.608 3.456-.191.528-.239 1.248-.239 1.92v13.729h-5.953v-16.417zM109.185 284.155c1.344.816 3.888 1.681 6 1.681 2.592 0 3.744-1.057 3.744-2.593 0-1.584-.96-2.399-3.84-3.408-4.56-1.584-6.48-4.08-6.433-6.816 0-4.128 3.409-7.345 8.833-7.345 2.592 0 4.848.672 6.192 1.393l-1.152 4.176c-1.008-.576-2.88-1.344-4.945-1.344-2.112 0-3.264 1.008-3.264 2.448 0 1.488 1.104 2.208 4.081 3.265 4.224 1.536 6.192 3.696 6.24 7.152 0 4.225-3.312 7.297-9.504 7.297-2.833 0-5.377-.673-7.105-1.633l1.153-4.273zM129.489 255.497h5.952v13.921h.096a7.922 7.922 0 0 1 2.928-2.688c1.152-.673 2.544-1.057 4.032-1.057 3.984 0 8.161 2.641 8.161 10.129v13.777h-5.904v-13.105c0-3.408-1.248-5.952-4.512-5.952-2.304 0-3.937 1.536-4.561 3.313-.192.479-.24 1.104-.24 1.776v13.969h-5.952v-34.083zM179.17 277.675c0 8.593-6.049 12.434-12.001 12.434-6.625 0-11.714-4.561-11.714-12.05 0-7.68 5.041-12.385 12.098-12.385 6.961 0 11.617 4.896 11.617 12.001zm-17.618.24c0 4.513 2.208 7.921 5.809 7.921 3.36 0 5.713-3.313 5.713-8.017 0-3.648-1.632-7.825-5.665-7.825-4.177 0-5.857 4.032-5.857 7.921zM190.784 259.529v6.673h5.617v4.416h-5.617v10.321c0 2.832.769 4.32 3.024 4.32a8.78 8.78 0 0 0 2.305-.288l.096 4.513c-.864.336-2.4.576-4.272.576-2.16 0-3.984-.721-5.088-1.921-1.249-1.344-1.824-3.456-1.824-6.528v-10.993h-3.36v-4.416h3.36v-5.28l5.759-1.393z"/></g><g fill-rule="evenodd" clip-rule="evenodd"><path fill="#D7D7D7" stroke="#000" stroke-width="1.824" stroke-miterlimit="10" d="M124.843 58.46s-20.518-35.564-42.859-.456c0 0-9.119-10.943-21.886.912 0 0-6.383 5.928-2.736 9.575 0 0-9.119 3.192-5.927 11.399 0 0 10.943 5.015 70.216 1.824 0 0 27.813-1.368 23.709-10.943 0 0-1.824-10.031-13.679-4.56.001 0 1.825-8.663-6.838-7.751z"/><path fill="#D7D7D7" stroke="#000" stroke-miterlimit="10" d="M248.774 113.641h-10.352l-6.067 10.784c7.27 2.231 13.571 5.388 17.249 12.174-4.278-3.866-8.569-7.626-15.417-6.593 9.104 1.273 10.535 8.147 11.687 15.719-6.634-.397-13.307-.532-18.782-5.774.631-1.478 4.089-2.826.667-5.325 1.291-.167 2.675-.167 2.707-.377.328-2.114.434-4.262.563-5.905-3.422 2.948-6.487 5.809-9.786 8.37-3.388 2.631-6.999 4.974-10.521 7.433-10.107 7.055-10.965 9.746-7.625 21.75 1.245 4.478 1.804 9.143 2.952 13.652 1.258 4.939 2.836 9.798 4.274 14.691h22.922c2.45-4.78 4.964-9.53 7.302-14.365.512-1.059.401-2.419.459-2.819l-11.41-4.992c5.953-4.378 14.762-2.869 17.558-11.156-1.415.24-2.683.457-3.95.673l-.539-1.108c1.697-1.234 3.354-2.53 5.1-3.691 8.101-5.386 12.117-12.862 11.69-22.637-.371-8.494-4.214-15.184-10.681-20.504zm-16.076 66.05c-1.823 2.189-3.561 4.572-5.602 6.659-3.579 3.66-7.841 2.819-12.018 1.282-3.133-1.153-5.883-3.59-5.018-6.828 1.204-4.508.298-8.676-.028-13.013-.222-2.953.81-3.451 3.448-2.216.906.425 2.116.876 2.974.614 2.966-.908 5.033.329 6.823 2.4 3.093 3.58 6.124 7.211 9.421 11.102zm-16.88-18.304c-4.09-.224-7.262-2.06-7.35-5.838-.055-2.357 1.898-4.76 2.95-7.142-.262 2.72-1.76 5.486-1.063 7.486.768 2.199 3.556 3.692 5.463 5.494z"/><path fill="#FFF" stroke="#000" stroke-miterlimit="10" d="M235.465 113.641h-5.176c-3.64 10.059-11.243 16.623-20.04 21.806-8.453 4.981-17.362 9.183-25.939 13.962-11.271 6.282-15.813 11.382-11.51 25.752 2.329 7.78 8.063 12.744 15.28 16.057 2.435 1.117 4.968 2.021 7.455 3.021h5.176c-.532-2.377-1.142-4.74-1.577-7.135-.529-2.909-1.782-4.995-4.542-6.579-3.544-2.031-5.108-5.596-4.89-9.724.279-5.301 1.79-10.36 5.501-14.146 4.881-4.98 10.006-9.826 15.569-14.005 7.216-5.419 14.727-10.012 19.255-18.596 1.793-3.398 3.954-6.75 5.438-10.413z"/><path fill="#FFF" stroke="#000" stroke-miterlimit="10" d="M226.592 113.641h-20.704c-8.445 5.944-17.15 11.563-25.234 17.963-4.448 3.521-8.407 7.984-11.584 12.698-3.729 5.533-2.876 12.416.952 16.896 2.064-5.857 6.36-9.459 11.633-12.239 8.057-4.248 16.122-8.498 23.991-13.076 9.13-5.313 16.449-12.488 20.946-22.242z"/><path fill="#26080D" d="M226.592 113.641c-4.497 9.754-11.815 16.929-20.946 22.242-7.869 4.579-15.935 8.829-23.991 13.076-5.272 2.78-9.568 6.381-11.633 12.239-3.828-4.48-4.682-11.363-.952-16.896 3.177-4.714 7.136-9.177 11.584-12.698 8.084-6.4 16.789-12.019 25.234-17.963h-6.655c-.42.432-.797.917-1.265 1.287-10.859 8.6-23.577 15.176-30.406 28.234-.295-7.31 3.338-12.753 7.763-17.803 3.471-3.961 7.062-7.816 10.599-11.719h-5.916c-1.373 1.549-2.758 3.086-4.116 4.647-6.993 8.033-10.599 17.008-9.681 28.012.528 6.341-.574 12.876-1.419 19.261-1.013 7.648-1.738 15.122 2.241 22.253 1.119 2.005 1.762 4.276 2.623 6.425h2.957c-1.588-3.582-3.213-7.147-4.756-10.749-3.187-7.441-2.389-14.897.186-22.41.902 1.743 1.481 3.556 1.431 5.351-.294 10.493 4.066 18.489 12.71 24.245 1.924 1.281 3.969 2.381 5.958 3.563h7.395c-2.487-1.001-5.021-1.904-7.455-3.021-7.217-3.313-12.951-8.276-15.28-16.057-4.303-14.37.238-19.47 11.51-25.752 8.577-4.78 17.486-8.981 25.939-13.962 8.797-5.184 16.4-11.748 20.04-21.806l-3.699.001z"/><path fill="#D7D7D7" stroke="#000" stroke-miterlimit="10" d="M248.774 194.239h18.486v-35.493c-1.088-1.289-2.361-2.467-3.223-3.894-1.496-2.476-3.375-3.077-5.808-1.618-3.262 1.958-6.456 4.027-9.679 6.048l.192 1.366c1.78.289 3.605.967 5.326.76 1.794-.214 3.486-1.279 5.263-1.989 1.344 3.263.783 7.999 5.681 9.429-.275 2.806-.851 5.628-.758 8.428.131 3.93-.549 7.227-3.962 9.714-.875.637-1.038 2.25-1.983 4.496-.573-4.128-1.232-7.315-1.416-10.529-.333-5.818-4.157-9.561-7.741-13.39-.649-.693-2.703-.721-3.764-.261-3.625 1.572-7.097 3.498-11.161 5.562 4.41 2.803 8.009 1.63 11.187.574 4.914 6.48 4.493 13.588 3.36 20.797z"/><path fill="#26080D" d="M235.465 113.641c-1.483 3.664-3.645 7.016-5.438 10.415-4.528 8.584-12.039 13.177-19.255 18.596-5.563 4.179-10.688 9.025-15.569 14.005-3.711 3.785-5.222 8.845-5.501 14.146-.219 4.128 1.346 7.692 4.89 9.724 2.76 1.584 4.013 3.67 4.542 6.579.436 2.395 1.045 4.758 1.577 7.135h2.958c-1.087-3.884-2.132-7.779-3.272-11.647-1.303-4.421.614-8.104 2.2-12.591l5.509 24.238h2.219c-1.438-4.894-3.017-9.752-4.274-14.691-1.148-4.51-1.707-9.175-2.952-13.652-3.34-12.004-2.482-14.694 7.625-21.75 3.521-2.458 7.133-4.802 10.521-7.433 3.299-2.561 6.364-5.422 9.786-8.37-.13 1.644-.235 3.792-.563 5.905-.032.21-1.416.21-2.707.377 3.422 2.499-.036 3.847-.667 5.325 5.476 5.242 12.148 5.377 18.782 5.774-1.151-7.572-2.582-14.446-11.687-15.719 6.848-1.033 11.139 2.728 15.417 6.593-3.678-6.786-9.979-9.943-17.249-12.174l6.067-10.784-2.959-.001zm-38.269 64.016c-7.877-3.99-6.415-15.983 1.617-22.1 3.077 7.551 4.645 15.156-1.617 22.1zm32.765-37.675c1.979-1.277 3.123-2.6 4.186-2.536 1.031.062 2.527 1.411 2.784 2.45.198.806-1.436 2.959-1.845 2.858-1.493-.369-2.814-1.433-5.125-2.772zm8.65-3.008l5.313 6.795h-6.292l.979-6.795z"/><path fill="#26080D" d="M248.774 194.239c1.133-7.209 1.554-14.317-3.359-20.798-3.178 1.056-6.776 2.229-11.187-.574 4.064-2.063 7.536-3.989 11.161-5.562 1.061-.46 3.114-.433 3.764.261 3.584 3.829 7.408 7.571 7.741 13.39.184 3.214.843 6.401 1.416 10.529.945-2.246 1.108-3.859 1.983-4.496 3.413-2.487 4.093-5.784 3.962-9.714-.093-2.8.482-5.622.758-8.428-4.897-1.43-4.337-6.166-5.681-9.429-1.776.71-3.469 1.775-5.263 1.989-1.721.207-3.546-.471-5.326-.76l-.192-1.366c3.223-2.021 6.417-4.09 9.679-6.048 2.433-1.459 4.312-.857 5.808 1.618.861 1.427 2.135 2.604 3.223 3.894v-2.957c-2.221-1.008-2.646-2.565-2.341-5.015.526-4.224.793-8.544.543-12.787-.593-10.027-6.027-17.632-12.991-24.346h-3.697c6.467 5.32 10.31 12.011 10.681 20.502.427 9.774-3.59 17.251-11.69 22.637-1.746 1.161-3.402 2.457-5.1 3.691l.539 1.108c1.268-.216 2.535-.433 3.95-.673-2.796 8.287-11.604 6.778-17.558 11.156l11.41 4.992c-.058.4.053 1.761-.459 2.819-2.338 4.835-4.852 9.585-7.302 14.365h2.219c.633-1.983 1.25-3.972 1.9-5.949 1.496-4.555 3.836-8.403 8.744-10.424 3.471 5.359 1.834 10.906 1.187 16.373.493.002.986.002 1.478.002zm10.622-29.075c5.2 8.568 4.912 17.318-.102 20.281-1.386-4.833-2.798-9.764-4.354-15.195l4.456-5.086zm-5.165-12.32c5.798-7.314 8.622-14.869 7.458-23.654 3.258 7.228 3.225 14.597 1.947 21.529l-9.405 2.125zm-7.51 11.621c.536-.584 1.286-2.123 2.093-2.153 3.262-.12 6.541.224 10.545.435l-5.571 6.957-7.067-5.239z"/><path fill="#FFF" stroke="#000" stroke-miterlimit="10" d="M169.655 194.239c-.861-2.148-1.504-4.42-2.623-6.425-3.979-7.131-3.254-14.604-2.241-22.253.845-6.385 1.947-12.92 1.419-19.261-.918-11.004 2.688-19.979 9.681-28.012 1.358-1.561 2.743-3.099 4.116-4.647h-17.746v80.599l7.394-.001z"/><path fill="#FFF" stroke="#000" stroke-miterlimit="10" d="M185.923 113.641c-3.537 3.902-7.128 7.758-10.599 11.719-4.425 5.049-8.058 10.493-7.763 17.803 6.829-13.059 19.547-19.635 30.406-28.234.468-.37.845-.855 1.265-1.287l-13.309-.001zM188.141 194.239c-1.989-1.183-4.034-2.282-5.958-3.563-8.644-5.756-13.004-13.752-12.71-24.245.051-1.795-.528-3.607-1.431-5.351-2.574 7.513-3.372 14.969-.186 22.41 1.543 3.602 3.168 7.167 4.756 10.749h15.529zM252.472 113.641c6.964 6.714 12.398 14.319 12.991 24.346.25 4.243-.017 8.563-.543 12.787-.306 2.45.12 4.007 2.341 5.015v-42.148h-14.789zM247.296 194.239c.647-5.467 2.284-11.014-1.187-16.373-4.908 2.021-7.248 5.869-8.744 10.424-.65 1.978-1.268 3.966-1.9 5.949h11.831zM208.105 194.239l-5.509-24.238c-1.586 4.486-3.503 8.17-2.2 12.591 1.141 3.868 2.186 7.764 3.272 11.647h4.437z"/><path fill="#26080D" d="M232.698 179.691c-3.297-3.892-6.328-7.522-9.42-11.101-1.79-2.071-3.857-3.309-6.823-2.4-.857.262-2.067-.189-2.974-.614-2.639-1.235-3.67-.737-3.448 2.216.326 4.337 1.232 8.505.028 13.013-.865 3.238 1.885 5.675 5.018 6.828 4.177 1.537 8.438 2.378 12.018-1.282 2.041-2.087 3.778-4.47 5.601-6.66zm-19.563-7.277c7.705-2.793 10.85 2.987 14.812 6.938-3.007 5.006-7.054 3.377-11.136 2.166-5.507-1.633-2.566-6.334-3.676-9.104zM215.818 161.387c-1.907-1.802-4.695-3.295-5.462-5.494-.697-2 .801-4.766 1.063-7.486-1.052 2.382-3.005 4.785-2.95 7.142.088 3.778 3.26 5.614 7.349 5.838z"/><path fill="#FFF" stroke="#000" stroke-miterlimit="10" d="M197.196 177.657c6.262-6.944 4.693-14.549 1.617-22.1-8.032 6.117-9.494 18.11-1.617 22.1zM229.961 139.982c2.312 1.338 3.632 2.402 5.125 2.772.409.101 2.043-2.053 1.845-2.858-.257-1.039-1.753-2.388-2.784-2.45-1.063-.063-2.208 1.26-4.186 2.536zM238.611 136.974l-.979 6.795h6.292l-5.313-6.795zM259.396 165.164l-4.456 5.086 4.354 15.195c5.015-2.963 5.303-11.713.102-20.281zM254.231 152.844l9.405-2.125c1.277-6.932 1.311-14.301-1.947-21.529 1.165 8.785-1.66 16.34-7.458 23.654zM246.721 164.465l7.066 5.238 5.571-6.957c-4.004-.211-7.283-.555-10.545-.435-.806.031-1.556 1.57-2.092 2.154zM213.135 172.414c1.11 2.77-1.831 7.471 3.676 9.104 4.082 1.211 8.129 2.84 11.136-2.166-3.963-3.951-7.107-9.731-14.812-6.938z"/><path fill="#D7D7D7" stroke="#C1272D" stroke-width="3" stroke-miterlimit="10" d="M98 161.5l101.5-109"/><path fill="#FFF" stroke="#000" stroke-width="1.824" stroke-miterlimit="10" d="M110.252 63.475l-11.855 2.28 5.016 3.648-11.855-.912-7.295 18.694 7.751 3.648-21.43 19.149 10.487 7.751L67.849 130.5l25.989-12.311-11.855-11.398 23.71-15.503-12.767-7.751 3.648-8.663 10.487-.456 1.823-7.295z"/></g></g></switch></svg>