<svg xmlns="http://www.w3.org/2000/svg" xmlns:xlink="http://www.w3.org/1999/xlink" width="300" height="300" viewBox="0 0 300 300"><switch><g><symbol id="a" viewBox="-150 -150 300 300.015"><path fill="#AEBCC4" d="M150-97.015c0-6.763 0-52.985-71.5-52.985H-84c-62.5 0-66 47.223-66 53.985v186c0 54.5 59.235 60 66 60l161.5.029c6.765 0 72.5-.029 72.5-60.029v-187z"/></symbol><use xlink:href="#a" width="300" height="300.015" x="-150" y="-150" transform="matrix(1 0 0 -1 150 150)" overflow="visible"/><g fill="#080828"><path d="M66.449 256.86c-1.248.576-3.696 1.2-6.625 1.2-7.296 0-12.049-4.657-12.049-11.905 0-7.009 4.8-12.481 13.009-12.481 2.16 0 4.368.48 5.712 1.104l-1.056 4.416c-.96-.432-2.352-.912-4.464-.912-4.512 0-7.201 3.313-7.153 7.585 0 4.801 3.121 7.536 7.153 7.536 2.064 0 3.504-.432 4.656-.912l.817 4.369zM77.104 227.674c0 1.775-1.296 3.168-3.36 3.168-1.968 0-3.265-1.393-3.265-3.168 0-1.824 1.344-3.217 3.313-3.217 2.016 0 3.264 1.393 3.312 3.217zm-6.288 29.906v-23.378h5.952v23.378h-5.952zM83.104 241.738c0-3.168-.048-5.424-.192-7.536h5.137l.192 4.464h.192c1.152-3.312 3.889-4.992 6.385-4.992.576 0 .912.048 1.392.145v5.568a8.142 8.142 0 0 0-1.728-.192c-2.833 0-4.752 1.824-5.281 4.465-.096.527-.192 1.151-.192 1.824v12.097h-5.904v-15.843zM116.945 256.86c-1.248.576-3.696 1.2-6.625 1.2-7.296 0-12.049-4.657-12.049-11.905 0-7.009 4.8-12.481 13.009-12.481 2.16 0 4.368.48 5.712 1.104l-1.056 4.416c-.96-.432-2.352-.912-4.464-.912-4.512 0-7.201 3.313-7.153 7.585 0 4.801 3.121 7.536 7.153 7.536 2.064 0 3.504-.432 4.656-.912l.817 4.369zM121.311 223.497h5.952v34.083h-5.952v-34.083zM137.823 247.547c.144 4.225 3.456 6.049 7.201 6.049 2.736 0 4.704-.384 6.48-1.056l.864 4.08c-2.016.816-4.8 1.44-8.161 1.44-7.584 0-12.049-4.657-12.049-11.81 0-6.48 3.937-12.577 11.425-12.577 7.584 0 10.081 6.24 10.081 11.377 0 1.104-.096 1.969-.191 2.496h-15.65zm10.273-4.128c.048-2.16-.912-5.713-4.849-5.713-3.648 0-5.185 3.313-5.424 5.713h10.273zM168.061 252.155c1.345.816 3.889 1.681 6.001 1.681 2.593 0 3.744-1.057 3.744-2.593 0-1.584-.96-2.399-3.841-3.408-4.56-1.584-6.48-4.08-6.432-6.816 0-4.128 3.408-7.345 8.832-7.345 2.593 0 4.849.672 6.193 1.393l-1.152 4.176c-1.008-.576-2.881-1.344-4.945-1.344-2.111 0-3.264 1.008-3.264 2.448 0 1.488 1.104 2.208 4.08 3.265 4.225 1.536 6.193 3.696 6.241 7.152 0 4.225-3.313 7.297-9.505 7.297-2.832 0-5.377-.673-7.105-1.633l1.153-4.273zM188.364 223.497h5.953v13.921h.096a7.918 7.918 0 0 1 2.929-2.688c1.151-.673 2.544-1.057 4.032-1.057 3.984 0 8.16 2.641 8.16 10.129v13.777h-5.904v-13.105c0-3.408-1.248-5.952-4.513-5.952-2.304 0-3.936 1.536-4.561 3.313-.191.479-.239 1.104-.239 1.776v13.969h-5.953v-34.083zM238.047 245.675c0 8.593-6.049 12.434-12.001 12.434-6.625 0-11.714-4.561-11.714-12.05 0-7.68 5.041-12.385 12.098-12.385 6.961 0 11.617 4.896 11.617 12.001zm-17.618.24c0 4.513 2.208 7.921 5.809 7.921 3.36 0 5.713-3.313 5.713-8.017 0-3.648-1.632-7.825-5.665-7.825-4.177 0-5.857 4.032-5.857 7.921zM249.661 227.529v6.673h5.617v4.416h-5.617v10.321c0 2.832.769 4.32 3.024 4.32a8.78 8.78 0 0 0 2.305-.288l.096 4.513c-.864.336-2.4.576-4.272.576-2.16 0-3.984-.721-5.088-1.921-1.249-1.344-1.824-3.456-1.824-6.528v-10.993h-3.36v-4.416h3.36v-5.28l5.759-1.393z"/></g><path fill="#080828" d="M115.536 118.561s38.247-34.237 78.653 1.542c0 0 3.701 3.084 0 7.403 0 0-38.556 30.228-78.653-.925 0 0-3.393-4.319 0-8.02z"/><path fill="none" d="M35 8h243"/><circle fill="none" stroke="#C1272D" stroke-width="4.518" stroke-miterlimit="10" cx="153.333" cy="121.999" r="84.333"/><path fill="#080828" d="M163.149 69.558l-19.326-.304s2.047-5.17 4.897-7.276l.034-2.75-4.904-5.636s-1.894-1.246-1.378-6.117l.272-23.084s.008-5.571 6.862-6.184l11.019.129s5.018 1.335 5.493 6.562l-.267 22.735s-.014 4.524-1.656 6.013l-5.358 5.738-.034 2.784s2.811 1.565 4.346 7.39z"/><path fill="#C1272D" d="M70.207 102.845l-15.453 29.066 32.746.369zM236.543 135.167L220.5 104.988l34-.384z"/><circle fill="#F2F2F2" cx="154.913" cy="122.365" r="17.478"/></g></switch></svg>