<?xml version="1.0" encoding="utf-8"?>
<!-- Generator: Adobe Illustrator 16.0.3, SVG Export Plug-In . SVG Version: 6.00 Build 0)  -->
<!DOCTYPE svg PUBLIC "-//W3C//DTD SVG 1.1//EN" "http://www.w3.org/Graphics/SVG/1.1/DTD/svg11.dtd">
<svg version="1.1" id="Layer_1" xmlns="http://www.w3.org/2000/svg" xmlns:xlink="http://www.w3.org/1999/xlink" x="0px" y="0px"
	 width="500px" height="500.016px" viewBox="0 0 500 500.016" enable-background="new 0 0 500 500.016" xml:space="preserve">
<title>Artboard 1</title>
<g id="_Group_">
	<rect id="_Path_" y="0" fill="#A21942" width="500" height="500.017"/>
	<path id="_Compound_Path_" fill="#FFFFFF" d="M97.15,118.056v-11c0-9.66-3.416-16.65-11.301-20.22
		c6.686-3.267,9.815-9.217,9.815-17.54v-4.172c0-15.76-8.175-24.233-23.79-24.233c-15.46,0-23.5,8.5-23.5,24.233v4.172
		c0,8.18,3,14.273,9.5,17.54c-7.88,3.568-11.155,10.56-11.155,20.22v11c0,15.31,7.29,26,25.135,26c18,0,25.275-10.71,25.275-26
		 M64.265,64.056c0-6.105,2.09-9.67,7.59-9.67c5.645,0,7.73,3.563,7.73,9.67v6.835c0,6.095-2.085,9.675-7.73,9.675
		c-5.5,0-7.59-3.58-7.59-9.675V64.056z M80.2,119.836c0,6.1-2.229,10.408-8.325,10.408c-5.95,0-8.18-4.31-8.18-10.408v-16.355
		c0-6.095,2.23-10.41,8.18-10.41c6.096,0,8.325,4.315,8.325,10.41V119.836z"/>
	<g>
		<path id="_Path_2" fill="#FFFFFF" d="M328.743,316.706l-41.211,39.209c-1.561,1.549-2.366,2.689-2.366,5.886V471.74
			c0.005,1.286,1.08,2.351,2.366,2.351h42.576c1.298,0,2.362-1.064,2.365-2.351V317.694c0-1.292-1.028-3.658-3.727-0.999"/>
		<path id="_Path_3" fill="#FFFFFF" d="M209.975,367.833l-41.227,39.188c-1.543,1.555-2.354,2.691-2.354,5.882v58.81
			c0.008,1.286,1.06,2.354,2.354,2.354h42.591c1.294,0,2.341-1.069,2.344-2.354V368.801c0-1.326-1.025-3.688-3.708-0.993"/>
		<path id="_Path_4" fill="#FFFFFF" d="M347.497,269.141c0.023-0.336-0.105-0.66-0.341-0.896c-0.212-0.195-0.498-0.314-0.764-0.334
			h-0.233h-0.327l-31.571,7.159l-0.573,0.055c-0.229,0.047-0.447,0.16-0.615,0.326c-0.479,0.468-0.479,1.222,0,1.699l0.35,0.352
			l7.209,7.204l-71.535,71.539L216.058,323.2c-0.371-0.371-0.955-0.381-1.331-0.021c-0.002,0.006-0.005,0.014-0.01,0.021
			l-8.967,8.972l0,0l-52.977,52.975c-0.364,0.373-0.364,0.976,0,1.349l8.979,8.974c0.364,0.369,0.965,0.371,1.331,0
			c0,0,0.003,0,0.005,0l52.317-52.316l23.979,23.977c0.016,0.051,0.049,0.098,0.083,0.143l8.959,8.958
			c0.369,0.367,0.952,0.377,1.333,0.006c0,0,0,0,0.003-0.006l81.184-81.204l7.557,7.561c0.474,0.476,1.219,0.481,1.665,0.012
			c0.004-0.005,0.008-0.008,0.013-0.012c0.217-0.204,0.354-0.474,0.359-0.777v-0.089l6.928-32.234L347.497,269.141z"/>
		<path id="_Path_5" fill="#FFFFFF" d="M269.602,374.698l-19.938,20.094c-0.377,0.305-0.949,0.296-1.297-0.063L230.3,376.34
			c-3.305-3.31-4.03-0.634-4.03,0.657v94.732c-0.003,1.282,1.043,2.353,2.348,2.354l0,0h42.599c1.283-0.006,2.309-1.072,2.311-2.354
			v-96.295c0-1.29-0.99-3.687-3.935-0.736"/>
	</g>
</g>
<g>
	<path fill="#FFFFFF" d="M126.545,83.836c-0.469,0-0.703-0.479-0.703-1.436v-0.146l1.318-38.877c0.019-1.074,0.264-1.63,0.732-1.67
		h4.629c0.293,0.02,0.537,0.117,0.732,0.293c0.195,0.176,0.341,0.538,0.439,1.084l4.951,27.715c0.019,0.078,0.054,0.137,0.103,0.176
		c0.048,0.04,0.098,0.04,0.146,0c0.048-0.039,0.073-0.098,0.073-0.176l4.98-27.627c0.176-0.938,0.557-1.425,1.143-1.465h4.688
		c0.469,0.04,0.703,0.596,0.703,1.67l1.377,38.877v0.176c0,0.938-0.245,1.406-0.732,1.406h-3.223c-0.469,0-0.723-0.527-0.762-1.582
		l-0.908-30.088c0-0.117-0.029-0.186-0.088-0.205c-0.059-0.019-0.098,0.01-0.117,0.088l-5.332,30.381
		c-0.157,0.938-0.488,1.406-0.996,1.406h-1.904c-0.469,0-0.801-0.469-0.996-1.406l-5.186-30.234
		c-0.02-0.117-0.059-0.136-0.117-0.059c-0.02,0.04-0.029,0.098-0.029,0.176l-0.938,29.941c0,1.055-0.225,1.582-0.674,1.582H126.545z
		"/>
	<path fill="#FFFFFF" d="M157.33,83.836c-0.254,0-0.439-0.073-0.557-0.22s-0.176-0.483-0.176-1.011V42.938
		c0-0.508,0.059-0.839,0.176-0.996c0.117-0.156,0.303-0.234,0.557-0.234h15.41c0.156,0,0.283,0.02,0.381,0.059
		c0.098,0.04,0.18,0.146,0.249,0.322c0.068,0.176,0.103,0.439,0.103,0.791v2.314c0,0.488-0.059,0.806-0.176,0.952
		s-0.303,0.22-0.557,0.22h-10.02c-0.234,0-0.352,0.322-0.352,0.967v11.836c0,0.176,0.034,0.352,0.103,0.527
		c0.068,0.176,0.132,0.264,0.19,0.264h8.057c0.488,0,0.732,0.45,0.732,1.348v2.256c0,0.898-0.245,1.348-0.732,1.348h-8.027
		c-0.078,0-0.151,0.098-0.22,0.293c-0.069,0.195-0.103,0.391-0.103,0.586v13.389h10.459c0.176,0,0.312,0.02,0.41,0.059
		c0.098,0.04,0.18,0.146,0.249,0.322c0.068,0.176,0.103,0.439,0.103,0.791v2.314c0,0.488-0.063,0.806-0.19,0.952
		c-0.127,0.146-0.318,0.22-0.571,0.22H157.33z"/>
	<path fill="#FFFFFF" d="M177.891,83.836c-0.254,0-0.444-0.098-0.571-0.293c-0.127-0.195-0.19-0.586-0.19-1.172V43.26
		c0-1.035,0.253-1.553,0.762-1.553h4.453c0.41,0,0.762,0.381,1.055,1.143l9.932,26.689c0.039,0.137,0.098,0.098,0.176-0.117
		l0.029-0.264V43.26c0-1.035,0.264-1.553,0.791-1.553h3.486c0.488,0,0.732,0.518,0.732,1.553v39.229
		c0,0.586-0.059,0.962-0.176,1.128c-0.117,0.166-0.303,0.249-0.557,0.249h-3.164c-0.195,0-0.406-0.117-0.63-0.352
		c-0.225-0.234-0.406-0.527-0.542-0.879l-11.045-28.828c-0.078-0.156-0.137-0.107-0.176,0.146c-0.02,0.059-0.029,0.127-0.029,0.205
		v28.213c0,0.586-0.063,0.977-0.19,1.172c-0.127,0.195-0.327,0.293-0.601,0.293H177.891z"/>
	<path fill="#FFFFFF" d="M212.338,41.239c3.672,0,6.533,1.338,8.584,4.014c0.195,0.254,0.293,0.557,0.293,0.908
		c0,0.684-0.289,1.406-0.864,2.168c-0.576,0.762-1.06,1.143-1.45,1.143c-0.117,0-0.205-0.039-0.264-0.117
		c-1.739-2.109-3.809-3.164-6.211-3.164c-1.348,0-2.432,0.571-3.252,1.714s-1.23,2.534-1.23,4.175c0,1.543,0.352,2.803,1.055,3.779
		c0.703,0.977,1.709,1.885,3.018,2.725l3.721,2.402c3.926,2.539,5.889,6.25,5.889,11.133c0,3.574-0.908,6.494-2.725,8.76
		c-1.816,2.266-4.258,3.398-7.324,3.398c-4.141,0-7.402-1.787-9.785-5.361c-0.117-0.176-0.176-0.4-0.176-0.674
		c0-0.684,0.278-1.431,0.835-2.241c0.557-0.81,1.088-1.216,1.597-1.216c0.195,0,0.371,0.088,0.527,0.264
		c2.187,2.793,4.521,4.189,7.002,4.189c1.523,0,2.714-0.59,3.574-1.772c0.859-1.182,1.289-2.681,1.289-4.497
		c0-1.641-0.342-2.974-1.025-3.999c-0.684-1.025-1.729-1.997-3.135-2.915l-3.75-2.52c-0.82-0.546-1.534-1.113-2.139-1.699
		c-0.605-0.586-1.187-1.293-1.743-2.124c-0.557-0.83-0.986-1.806-1.289-2.93c-0.303-1.123-0.454-2.358-0.454-3.706
		c0-3.516,0.854-6.367,2.563-8.555C207.177,42.333,209.467,41.239,212.338,41.239z"/>
	<path fill="#FFFFFF" d="M236.121,84.276c-1.016,0-1.9-0.049-2.651-0.146c-0.752-0.098-1.567-0.317-2.446-0.659
		c-0.879-0.341-1.626-0.815-2.241-1.421c-0.615-0.605-1.23-1.445-1.846-2.52c-0.615-1.074-1.109-2.358-1.479-3.853
		c-0.371-1.494-0.674-3.33-0.908-5.508c-0.234-2.178-0.352-4.653-0.352-7.427c0-3.75,0.229-6.973,0.688-9.668
		c0.458-2.695,1.04-4.794,1.743-6.299c0.703-1.504,1.616-2.685,2.739-3.545c1.123-0.859,2.197-1.406,3.223-1.641
		s2.251-0.352,3.677-0.352c1.816,0,3.311,0.274,4.482,0.82c0.019,0.02,0.048,0.044,0.088,0.073c0.039,0.029,0.073,0.059,0.103,0.088
		s0.054,0.078,0.073,0.146c0.019,0.069,0.029,0.151,0.029,0.249v3.545c0,0.274-0.069,0.41-0.205,0.41
		c-0.02,0-0.093-0.019-0.22-0.059c-0.127-0.039-0.308-0.088-0.542-0.146s-0.488-0.117-0.762-0.176
		c-0.274-0.059-0.591-0.107-0.952-0.146c-0.362-0.039-0.718-0.059-1.069-0.059c-0.918,0-1.699,0.103-2.344,0.308
		s-1.299,0.645-1.963,1.318c-0.664,0.674-1.201,1.607-1.611,2.798c-0.41,1.191-0.743,2.823-0.996,4.893
		c-0.254,2.07-0.381,4.551-0.381,7.441c0,2.949,0.112,5.459,0.337,7.529c0.224,2.07,0.513,3.706,0.864,4.907
		s0.839,2.134,1.465,2.798c0.625,0.664,1.25,1.094,1.875,1.289c0.625,0.195,1.406,0.293,2.344,0.293
		c1.387,0,2.617-0.186,3.691-0.557c0.019,0,0.063,0.098,0.132,0.293c0.068,0.195,0.103,0.303,0.103,0.322v3.369
		c0,0.02-0.034,0.122-0.103,0.308c-0.069,0.186-0.113,0.289-0.132,0.308C239.383,84.051,237.898,84.276,236.121,84.276z"/>
	<path fill="#FFFFFF" d="M245.314,83.836c-0.274,0-0.469-0.083-0.586-0.249c-0.117-0.166-0.176-0.542-0.176-1.128V43.084
		c0-0.586,0.059-0.962,0.176-1.128c0.117-0.166,0.312-0.249,0.586-0.249h4.248c0.273,0,0.469,0.083,0.586,0.249
		c0.117,0.166,0.176,0.542,0.176,1.128V58.67c0,0.176,0.034,0.333,0.103,0.469c0.068,0.137,0.132,0.205,0.19,0.205h8.789
		c0.059,0,0.127-0.073,0.205-0.22s0.117-0.308,0.117-0.483V43.084c0-0.566,0.063-0.938,0.19-1.113
		c0.127-0.176,0.317-0.264,0.571-0.264h4.307c0.254,0,0.439,0.083,0.557,0.249c0.117,0.166,0.176,0.542,0.176,1.128v39.375
		c0,0.586-0.059,0.962-0.176,1.128c-0.117,0.166-0.303,0.249-0.557,0.249h-4.307c-0.176,0-0.313-0.024-0.41-0.073
		c-0.098-0.048-0.186-0.18-0.264-0.396c-0.078-0.215-0.117-0.517-0.117-0.908v-17.9c0-0.41-0.107-0.615-0.322-0.615h-8.701
		c-0.195,0-0.293,0.205-0.293,0.615v17.9c0,0.567-0.063,0.938-0.19,1.113c-0.127,0.176-0.318,0.264-0.571,0.264H245.314z"/>
	<path fill="#FFFFFF" d="M271.529,83.836c-0.254,0-0.439-0.073-0.557-0.22s-0.176-0.483-0.176-1.011V42.938
		c0-0.508,0.059-0.839,0.176-0.996c0.117-0.156,0.303-0.234,0.557-0.234h15.41c0.156,0,0.283,0.02,0.381,0.059
		c0.098,0.04,0.18,0.146,0.249,0.322c0.068,0.176,0.103,0.439,0.103,0.791v2.314c0,0.488-0.059,0.806-0.176,0.952
		s-0.303,0.22-0.557,0.22h-10.02c-0.234,0-0.352,0.322-0.352,0.967v11.836c0,0.176,0.033,0.352,0.103,0.527
		c0.068,0.176,0.132,0.264,0.19,0.264h8.057c0.488,0,0.732,0.45,0.732,1.348v2.256c0,0.898-0.244,1.348-0.732,1.348h-8.027
		c-0.078,0-0.151,0.098-0.22,0.293c-0.069,0.195-0.103,0.391-0.103,0.586v13.389h10.459c0.176,0,0.313,0.02,0.41,0.059
		c0.098,0.04,0.18,0.146,0.249,0.322c0.068,0.176,0.103,0.439,0.103,0.791v2.314c0,0.488-0.063,0.806-0.19,0.952
		c-0.128,0.146-0.317,0.22-0.571,0.22H271.529z"/>
	<path fill="#FFFFFF" d="M292.09,83.836c-0.254,0-0.444-0.098-0.571-0.293c-0.128-0.195-0.19-0.586-0.19-1.172V43.26
		c0-1.035,0.254-1.553,0.762-1.553h4.453c0.41,0,0.762,0.381,1.055,1.143l9.932,26.689c0.039,0.137,0.098,0.098,0.176-0.117
		l0.029-0.264V43.26c0-1.035,0.264-1.553,0.791-1.553h3.486c0.488,0,0.732,0.518,0.732,1.553v39.229
		c0,0.586-0.059,0.962-0.176,1.128c-0.117,0.166-0.303,0.249-0.557,0.249h-3.164c-0.195,0-0.406-0.117-0.63-0.352
		c-0.225-0.234-0.405-0.527-0.542-0.879l-11.045-28.828c-0.078-0.156-0.137-0.107-0.176,0.146c-0.02,0.059-0.029,0.127-0.029,0.205
		v28.213c0,0.586-0.063,0.977-0.19,1.172c-0.128,0.195-0.327,0.293-0.601,0.293H292.09z"/>
	<path fill="#FFFFFF" d="M322.582,83.836c-0.508-0.039-0.859-0.713-1.055-2.021l-5.303-38.086c-0.039-0.195-0.059-0.469-0.059-0.82
		c0-0.801,0.156-1.201,0.469-1.201h3.838c0.234,0,0.449,0.186,0.645,0.557c0.195,0.371,0.332,0.869,0.41,1.494l3.252,27.803
		l3.955-27.715c0.078-0.605,0.22-1.069,0.425-1.392s0.425-0.483,0.659-0.483h3.164c0.508,0.059,0.85,0.684,1.025,1.875l4.189,28.301
		l3.281-28.418c0.078-0.605,0.209-1.094,0.396-1.465c0.186-0.371,0.396-0.557,0.63-0.557h3.311c0.313,0,0.469,0.4,0.469,1.201
		c0,0.254-0.029,0.527-0.088,0.82l-5.186,38.086c-0.195,1.309-0.527,1.982-0.996,2.021h-3.574c-0.508-0.039-0.859-0.722-1.055-2.051
		l-4.395-27.334l-4.248,27.363c-0.156,1.25-0.469,1.924-0.938,2.021H322.582z"/>
	<path fill="#FFFFFF" d="M360.281,84.276c-1.055,0-1.963-0.044-2.725-0.132s-1.553-0.274-2.373-0.557s-1.514-0.678-2.08-1.187
		c-0.566-0.508-1.118-1.196-1.655-2.065c-0.538-0.869-0.962-1.919-1.274-3.149s-0.562-2.714-0.747-4.453
		c-0.187-1.738-0.278-3.73-0.278-5.977V43.084c0-0.566,0.063-0.938,0.19-1.113c0.127-0.176,0.317-0.264,0.571-0.264h4.307
		c0.156,0,0.283,0.025,0.381,0.073c0.098,0.049,0.18,0.181,0.249,0.396c0.068,0.215,0.103,0.518,0.103,0.908V66.58
		c0,2.305,0.068,4.238,0.205,5.801c0.137,1.563,0.332,2.823,0.586,3.779c0.254,0.957,0.61,1.685,1.069,2.183
		c0.458,0.498,0.942,0.831,1.45,0.996c0.508,0.166,1.172,0.249,1.992,0.249c1.035,0,1.836-0.117,2.402-0.352s1.084-0.791,1.553-1.67
		s0.786-2.187,0.952-3.926c0.165-1.738,0.249-4.091,0.249-7.061V43.084c0-0.586,0.059-0.962,0.176-1.128
		c0.117-0.166,0.303-0.249,0.557-0.249h4.336c0.156,0,0.278,0.025,0.366,0.073c0.088,0.049,0.165,0.181,0.234,0.396
		c0.068,0.215,0.103,0.518,0.103,0.908v23.672c0,2.266-0.093,4.282-0.278,6.05c-0.187,1.768-0.435,3.262-0.747,4.482
		c-0.313,1.221-0.737,2.261-1.274,3.12c-0.538,0.86-1.084,1.538-1.641,2.036s-1.241,0.889-2.051,1.172
		c-0.811,0.283-1.577,0.464-2.3,0.542C362.166,84.236,361.297,84.276,360.281,84.276z M355.975,37.664
		c-0.527,0-0.791-0.557-0.791-1.67v-2.402c0-1.113,0.264-1.67,0.791-1.67h1.758c0.527,0,0.791,0.557,0.791,1.67v2.402
		c0,1.113-0.264,1.67-0.791,1.67H355.975z M362.596,37.664c-0.508,0-0.762-0.557-0.762-1.67v-2.402c0-1.113,0.254-1.67,0.762-1.67
		h1.787c0.508,0,0.762,0.557,0.762,1.67v2.402c0,1.113-0.254,1.67-0.762,1.67H362.596z"/>
	<path fill="#FFFFFF" d="M376.77,83.836c-0.254,0-0.439-0.083-0.557-0.249c-0.117-0.166-0.176-0.522-0.176-1.069V43.055
		c0-0.586,0.059-0.957,0.176-1.113c0.117-0.156,0.303-0.234,0.557-0.234h9.844c1.23,0,2.28,0.069,3.149,0.205
		c0.868,0.137,1.763,0.43,2.681,0.879c0.918,0.45,1.655,1.074,2.212,1.875c0.557,0.801,1.015,1.895,1.377,3.281
		c0.361,1.387,0.542,3.057,0.542,5.01c0,1.465-0.107,2.739-0.322,3.823s-0.537,1.963-0.967,2.637s-0.894,1.206-1.392,1.597
		c-0.498,0.391-1.099,0.723-1.802,0.996c-0.059,0.059-0.088,0.117-0.088,0.176s0.029,0.107,0.088,0.146
		c0.703,0.333,1.274,0.674,1.714,1.025s0.884,0.864,1.333,1.538s0.791,1.587,1.025,2.739c0.234,1.153,0.381,2.568,0.439,4.248
		c0.078,1.523,0.117,5.02,0.117,10.488c0,0.977-0.176,1.465-0.527,1.465c-3.027,0.019-4.58,0.029-4.658,0.029
		c-0.313,0-0.479-0.439-0.498-1.318c0-0.136-0.059-2.324-0.176-6.563c-0.117-4.238-0.244-6.68-0.381-7.324
		c-0.059-0.801-0.22-1.469-0.483-2.007c-0.264-0.537-0.605-0.927-1.025-1.172c-0.421-0.244-0.835-0.41-1.245-0.498
		s-0.879-0.132-1.406-0.132h-4.189c-0.215,0-0.322,0.215-0.322,0.645v17.021c0,0.547-0.059,0.904-0.176,1.069
		c-0.117,0.166-0.303,0.249-0.557,0.249H376.77z M382.102,60.281h3.779c3.262,0,4.893-2.373,4.893-7.119
		c0-2.52-0.444-4.282-1.333-5.288c-0.89-1.006-2.378-1.509-4.468-1.509h-2.842c-0.215,0-0.322,0.195-0.322,0.586V59.49
		C381.809,60.018,381.906,60.281,382.102,60.281z"/>
	<path fill="#FFFFFF" d="M402.34,83.836c-0.254,0-0.439-0.078-0.557-0.234c-0.117-0.156-0.176-0.508-0.176-1.055V42.879
		c0-0.488,0.059-0.806,0.176-0.952s0.303-0.22,0.557-0.22h10.078c1.719,0,3.208,0.342,4.468,1.025
		c1.26,0.684,2.368,1.807,3.325,3.369c0.957,1.563,1.674,3.706,2.153,6.431c0.479,2.725,0.718,6.04,0.718,9.946
		c0,2.773-0.088,5.22-0.264,7.339c-0.176,2.12-0.406,3.936-0.688,5.449c-0.283,1.514-0.688,2.793-1.216,3.838
		c-0.527,1.045-1.074,1.875-1.641,2.49s-1.279,1.089-2.139,1.421c-0.859,0.333-1.695,0.552-2.505,0.659
		c-0.811,0.107-1.812,0.161-3.003,0.161H402.34z M407.76,79.178h3.604c1.504,0,2.666-0.449,3.486-1.348
		c0.82-0.898,1.431-2.544,1.831-4.937c0.399-2.392,0.601-5.834,0.601-10.327c0-4.16-0.23-7.451-0.688-9.873
		c-0.459-2.421-1.089-4.082-1.89-4.98c-0.801-0.898-1.846-1.348-3.135-1.348h-3.838c-0.234,0-0.352,0.215-0.352,0.645v31.523
		C407.379,78.963,407.506,79.178,407.76,79.178z"/>
	<path fill="#FFFFFF" d="M428.291,83.836c-0.176,0-0.313-0.024-0.41-0.073c-0.098-0.048-0.181-0.18-0.249-0.396
		c-0.069-0.215-0.103-0.517-0.103-0.908V43.084c0-0.566,0.063-0.938,0.19-1.113c0.127-0.176,0.317-0.264,0.571-0.264h4.307
		c0.156,0,0.283,0.025,0.381,0.073c0.098,0.049,0.18,0.181,0.249,0.396c0.068,0.215,0.103,0.518,0.103,0.908v39.375
		c0,0.567-0.059,0.938-0.176,1.113s-0.303,0.264-0.557,0.264H428.291z"/>
	<path fill="#FFFFFF" d="M458.402,84.305c-0.742,0-1.23-0.615-1.465-1.846c0-0.019-0.137-0.786-0.41-2.3
		c-0.273-1.513-0.41-2.377-0.41-2.593c0-0.195-0.029-0.293-0.088-0.293s-0.117,0.088-0.176,0.264
		c-0.332,2.188-1.051,3.857-2.153,5.01c-1.104,1.153-2.563,1.729-4.38,1.729c-0.879,0-1.68-0.059-2.402-0.176s-1.49-0.366-2.3-0.747
		c-0.811-0.381-1.528-0.883-2.153-1.509c-0.625-0.625-1.235-1.484-1.831-2.578c-0.597-1.094-1.084-2.377-1.465-3.853
		c-0.381-1.475-0.688-3.286-0.923-5.435c-0.234-2.148-0.352-4.56-0.352-7.236c0-2.773,0.142-5.254,0.425-7.441
		c0.282-2.187,0.654-4.023,1.113-5.508c0.458-1.484,1.05-2.764,1.772-3.838c0.723-1.074,1.45-1.909,2.183-2.505
		c0.732-0.596,1.606-1.064,2.622-1.406c1.016-0.341,1.943-0.561,2.783-0.659c0.84-0.098,1.816-0.146,2.93-0.146
		c0.82,0,1.714,0.107,2.681,0.322c0.967,0.215,1.733,0.45,2.3,0.703c0.02,0.02,0.063,0.049,0.132,0.088
		c0.068,0.04,0.122,0.093,0.161,0.161c0.039,0.069,0.059,0.171,0.059,0.308v3.604c0,0.274-0.078,0.41-0.234,0.41
		c-0.02,0-0.132-0.029-0.337-0.088s-0.479-0.132-0.82-0.22c-0.342-0.088-0.714-0.171-1.113-0.249
		c-0.4-0.078-0.825-0.146-1.274-0.205s-0.859-0.088-1.23-0.088c-1.035,0-1.924,0.103-2.666,0.308s-1.494,0.645-2.256,1.318
		s-1.377,1.607-1.846,2.798c-0.469,1.191-0.85,2.823-1.143,4.893c-0.293,2.07-0.439,4.551-0.439,7.441
		c0,2.735,0.107,5.112,0.322,7.134s0.498,3.647,0.85,4.878s0.806,2.217,1.362,2.959c0.557,0.743,1.123,1.245,1.699,1.509
		c0.575,0.264,1.245,0.396,2.007,0.396c0.898,0,1.645-0.264,2.241-0.791c0.596-0.527,1.044-1.337,1.348-2.432
		c0.303-1.094,0.508-2.295,0.615-3.604c0.106-1.308,0.161-2.939,0.161-4.893c0-0.879-0.088-1.318-0.264-1.318h-3.311
		c-0.176,0-0.318-0.024-0.425-0.073c-0.107-0.048-0.205-0.171-0.293-0.366c-0.088-0.195-0.132-0.469-0.132-0.82v-2.402
		c0-0.527,0.073-0.874,0.22-1.04c0.146-0.166,0.347-0.249,0.601-0.249h7.881c0.508,0,0.762,0.605,0.762,1.816v18.896
		c0,0.586-0.098,1.06-0.293,1.421S458.637,84.305,458.402,84.305z"/>
	<path fill="#FFFFFF" d="M464.256,83.836c-0.254,0-0.439-0.073-0.557-0.22s-0.176-0.483-0.176-1.011V42.938
		c0-0.508,0.059-0.839,0.176-0.996c0.117-0.156,0.303-0.234,0.557-0.234h15.41c0.156,0,0.283,0.02,0.381,0.059
		c0.098,0.04,0.18,0.146,0.249,0.322c0.068,0.176,0.103,0.439,0.103,0.791v2.314c0,0.488-0.059,0.806-0.176,0.952
		s-0.303,0.22-0.557,0.22h-10.02c-0.234,0-0.352,0.322-0.352,0.967v11.836c0,0.176,0.033,0.352,0.103,0.527
		c0.068,0.176,0.132,0.264,0.19,0.264h8.057c0.488,0,0.732,0.45,0.732,1.348v2.256c0,0.898-0.244,1.348-0.732,1.348h-8.027
		c-0.078,0-0.151,0.098-0.22,0.293c-0.069,0.195-0.103,0.391-0.103,0.586v13.389h10.459c0.176,0,0.313,0.02,0.41,0.059
		c0.098,0.04,0.18,0.146,0.249,0.322c0.068,0.176,0.103,0.439,0.103,0.791v2.314c0,0.488-0.063,0.806-0.19,0.952
		c-0.128,0.146-0.317,0.22-0.571,0.22H464.256z"/>
	<path fill="#FFFFFF" d="M124.992,143.836c-0.293,0-0.439-0.283-0.439-0.85v-0.498c0-0.253,0.01-0.42,0.029-0.498l6.592-38.818
		c0.156-0.938,0.517-1.425,1.084-1.465h5.947c0.546,0.04,0.898,0.527,1.055,1.465l6.475,38.818c0,0.059,0.015,0.166,0.044,0.322
		c0.029,0.157,0.048,0.293,0.059,0.41c0.01,0.117,0.015,0.215,0.015,0.293c0,0.547-0.166,0.82-0.498,0.82h-4.834
		c-0.469,0-0.772-0.4-0.908-1.201l-1.084-7.471c-0.059-0.429-0.166-0.645-0.322-0.645h-7.09c-0.137,0-0.245,0.225-0.322,0.674
		l-1.23,7.412c-0.078,0.488-0.176,0.816-0.293,0.981c-0.117,0.166-0.293,0.249-0.527,0.249H124.992z M131.965,130.858h5.977
		c0.136,0,0.205-0.176,0.205-0.527c0-0.117-0.02-0.205-0.059-0.264l-2.9-22.588c-0.02-0.136-0.049-0.205-0.088-0.205
		c-0.059,0-0.098,0.059-0.117,0.176l-3.428,22.588c-0.02,0.137-0.029,0.225-0.029,0.264
		C131.525,130.672,131.672,130.858,131.965,130.858z"/>
	<path fill="#FFFFFF" d="M149.713,143.836c-0.254,0-0.439-0.083-0.557-0.249c-0.117-0.166-0.176-0.522-0.176-1.069v-39.463
		c0-0.586,0.059-0.957,0.176-1.113c0.117-0.156,0.303-0.234,0.557-0.234h9.844c1.23,0,2.28,0.069,3.149,0.205
		c0.869,0.137,1.762,0.43,2.681,0.879c0.918,0.45,1.655,1.074,2.212,1.875c0.557,0.801,1.015,1.895,1.377,3.281
		c0.361,1.387,0.542,3.057,0.542,5.01c0,1.465-0.107,2.739-0.322,3.823c-0.215,1.084-0.538,1.963-0.967,2.637
		c-0.43,0.674-0.894,1.206-1.392,1.597c-0.498,0.391-1.099,0.723-1.802,0.996c-0.059,0.059-0.088,0.117-0.088,0.176
		s0.029,0.107,0.088,0.146c0.703,0.333,1.274,0.674,1.714,1.025s0.883,0.864,1.333,1.538c0.449,0.674,0.791,1.587,1.025,2.739
		c0.234,1.153,0.381,2.568,0.439,4.248c0.078,1.523,0.117,5.02,0.117,10.488c0,0.977-0.176,1.465-0.527,1.465
		c-3.028,0.019-4.581,0.029-4.658,0.029c-0.313,0-0.479-0.439-0.498-1.318c0-0.136-0.059-2.324-0.176-6.563
		c-0.117-4.238-0.245-6.68-0.381-7.324c-0.059-0.801-0.22-1.469-0.483-2.007c-0.264-0.537-0.605-0.927-1.025-1.172
		c-0.42-0.244-0.835-0.41-1.245-0.498s-0.879-0.132-1.406-0.132h-4.189c-0.215,0-0.322,0.215-0.322,0.645v17.021
		c0,0.547-0.059,0.904-0.176,1.069c-0.117,0.166-0.303,0.249-0.557,0.249H149.713z M155.045,120.281h3.779
		c3.262,0,4.893-2.373,4.893-7.119c0-2.52-0.444-4.282-1.333-5.288c-0.889-1.006-2.378-1.509-4.468-1.509h-2.842
		c-0.215,0-0.322,0.195-0.322,0.586v12.539C154.752,120.018,154.85,120.281,155.045,120.281z"/>
	<path fill="#FFFFFF" d="M175.342,143.836c-0.274,0-0.474-0.078-0.601-0.234c-0.127-0.156-0.19-0.508-0.19-1.055v-39.521
		c0-0.566,0.063-0.927,0.19-1.084c0.127-0.156,0.327-0.234,0.601-0.234h10.723c5.566,0,8.35,3.877,8.35,11.631
		c0,3.614-0.869,6.143-2.607,7.588c-0.176,0.176-0.264,0.293-0.264,0.352s0.098,0.186,0.293,0.381
		c2.441,1.739,3.662,4.991,3.662,9.756c0,2.344-0.239,4.336-0.718,5.977c-0.479,1.641-1.172,2.925-2.08,3.853
		c-0.908,0.928-1.948,1.592-3.12,1.992c-1.172,0.4-2.53,0.601-4.072,0.601H175.342z M180.732,119.432h4.863
		c1.074,0,1.934-0.532,2.578-1.597c0.645-1.064,0.967-2.505,0.967-4.321c0-2.383-0.415-4.185-1.245-5.405
		c-0.831-1.22-1.968-1.831-3.413-1.831h-3.75c-0.274,0-0.41,0.215-0.41,0.645v11.924
		C180.322,119.237,180.458,119.432,180.732,119.432z M180.732,139.442h3.721c1.718,0,3.051-0.722,3.999-2.168
		c0.947-1.445,1.421-3.408,1.421-5.889c0-2.207-0.42-4.023-1.26-5.449c-0.84-1.425-1.915-2.139-3.223-2.139h-4.658
		c-0.274,0-0.41,0.234-0.41,0.703v14.355C180.322,139.247,180.458,139.442,180.732,139.442z"/>
	<path fill="#FFFFFF" d="M200.033,143.836c-0.254,0-0.439-0.073-0.557-0.22s-0.176-0.483-0.176-1.011v-39.668
		c0-0.508,0.059-0.839,0.176-0.996c0.117-0.156,0.303-0.234,0.557-0.234h15.41c0.156,0,0.283,0.02,0.381,0.059
		c0.098,0.04,0.18,0.146,0.249,0.322c0.068,0.176,0.103,0.439,0.103,0.791v2.314c0,0.488-0.059,0.806-0.176,0.952
		s-0.303,0.22-0.557,0.22h-10.02c-0.234,0-0.352,0.322-0.352,0.967v11.836c0,0.176,0.034,0.352,0.103,0.527
		c0.068,0.176,0.132,0.264,0.19,0.264h8.057c0.488,0,0.732,0.45,0.732,1.348v2.256c0,0.898-0.245,1.348-0.732,1.348h-8.027
		c-0.078,0-0.151,0.098-0.22,0.293c-0.069,0.195-0.103,0.391-0.103,0.586v13.389h10.459c0.176,0,0.312,0.02,0.41,0.059
		c0.098,0.04,0.18,0.146,0.249,0.322c0.068,0.176,0.103,0.439,0.103,0.791v2.314c0,0.488-0.063,0.806-0.19,0.952
		c-0.127,0.146-0.318,0.22-0.571,0.22H200.033z"/>
	<path fill="#FFFFFF" d="M220.623,143.836c-0.176,0-0.313-0.024-0.41-0.073c-0.098-0.048-0.181-0.18-0.249-0.396
		c-0.069-0.215-0.103-0.517-0.103-0.908v-39.375c0-0.566,0.063-0.938,0.19-1.113c0.127-0.176,0.317-0.264,0.571-0.264h4.307
		c0.156,0,0.283,0.025,0.381,0.073c0.098,0.049,0.18,0.181,0.249,0.396c0.068,0.215,0.103,0.518,0.103,0.908v39.375
		c0,0.567-0.059,0.938-0.176,1.113s-0.303,0.264-0.557,0.264H220.623z"/>
	<path fill="#FFFFFF" d="M235.148,143.836c-0.234,0-0.415-0.092-0.542-0.278c-0.127-0.186-0.19-0.561-0.19-1.128v-35.273
		c0-0.488-0.107-0.732-0.322-0.732h-5.098c-0.195,0-0.337-0.015-0.425-0.044s-0.166-0.127-0.234-0.293
		c-0.069-0.166-0.103-0.425-0.103-0.776v-2.314c0-0.527,0.059-0.874,0.176-1.04c0.117-0.166,0.312-0.249,0.586-0.249h16.553
		c0.253,0,0.439,0.083,0.557,0.249c0.117,0.166,0.176,0.513,0.176,1.04v2.314c0,0.488-0.054,0.796-0.161,0.923
		c-0.107,0.127-0.298,0.19-0.571,0.19h-5.01c-0.215,0-0.322,0.245-0.322,0.732v35.273c0,0.586-0.063,0.967-0.19,1.143
		c-0.127,0.176-0.318,0.264-0.571,0.264H235.148z"/>
	<path fill="#FFFFFF" d="M257.379,101.239c3.672,0,6.533,1.338,8.584,4.014c0.195,0.254,0.293,0.557,0.293,0.908
		c0,0.684-0.289,1.406-0.864,2.168c-0.576,0.762-1.06,1.143-1.45,1.143c-0.117,0-0.205-0.039-0.264-0.117
		c-1.738-2.109-3.809-3.164-6.211-3.164c-1.348,0-2.432,0.571-3.252,1.714s-1.23,2.534-1.23,4.175c0,1.543,0.352,2.803,1.055,3.779
		c0.703,0.977,1.709,1.885,3.018,2.725l3.721,2.402c3.926,2.539,5.889,6.25,5.889,11.133c0,3.574-0.908,6.494-2.725,8.76
		c-1.816,2.266-4.258,3.398-7.324,3.398c-4.141,0-7.402-1.787-9.785-5.361c-0.117-0.176-0.176-0.4-0.176-0.674
		c0-0.684,0.278-1.431,0.835-2.241c0.557-0.81,1.088-1.216,1.597-1.216c0.195,0,0.371,0.088,0.527,0.264
		c2.188,2.793,4.521,4.189,7.002,4.189c1.523,0,2.715-0.59,3.574-1.772c0.859-1.182,1.289-2.681,1.289-4.497
		c0-1.641-0.342-2.974-1.025-3.999s-1.729-1.997-3.135-2.915l-3.75-2.52c-0.82-0.546-1.533-1.113-2.139-1.699
		s-1.187-1.293-1.743-2.124c-0.557-0.83-0.986-1.806-1.289-2.93c-0.303-1.123-0.454-2.358-0.454-3.706
		c0-3.516,0.854-6.367,2.563-8.555C252.218,102.333,254.508,101.239,257.379,101.239z"/>
	<path fill="#FFFFFF" d="M286.928,144.276c-1.055,0-1.963-0.044-2.725-0.132s-1.553-0.274-2.373-0.557s-1.514-0.678-2.08-1.187
		c-0.566-0.508-1.118-1.196-1.655-2.065c-0.538-0.869-0.962-1.919-1.274-3.149s-0.562-2.714-0.747-4.453
		c-0.187-1.738-0.278-3.73-0.278-5.977v-23.672c0-0.566,0.063-0.938,0.19-1.113c0.127-0.176,0.317-0.264,0.571-0.264h4.307
		c0.156,0,0.283,0.025,0.381,0.073c0.098,0.049,0.18,0.181,0.249,0.396c0.068,0.215,0.103,0.518,0.103,0.908v23.496
		c0,2.305,0.068,4.238,0.205,5.801c0.137,1.563,0.332,2.823,0.586,3.779c0.254,0.957,0.61,1.685,1.069,2.183
		c0.458,0.498,0.942,0.831,1.45,0.996c0.508,0.166,1.172,0.249,1.992,0.249c1.035,0,1.836-0.117,2.402-0.352s1.084-0.791,1.553-1.67
		s0.786-2.187,0.952-3.926c0.165-1.738,0.249-4.091,0.249-7.061v-23.496c0-0.586,0.059-0.962,0.176-1.128
		c0.117-0.166,0.303-0.249,0.557-0.249h4.336c0.156,0,0.278,0.025,0.366,0.073c0.088,0.049,0.165,0.181,0.234,0.396
		c0.068,0.215,0.103,0.518,0.103,0.908v23.672c0,2.266-0.093,4.282-0.278,6.05c-0.187,1.768-0.435,3.262-0.747,4.482
		c-0.313,1.221-0.737,2.261-1.274,3.12c-0.538,0.86-1.084,1.538-1.641,2.036s-1.241,0.889-2.051,1.172
		c-0.811,0.283-1.577,0.464-2.3,0.542C288.813,144.236,287.943,144.276,286.928,144.276z"/>
	<path fill="#FFFFFF" d="M303.445,143.836c-0.254,0-0.444-0.098-0.571-0.293c-0.128-0.195-0.19-0.586-0.19-1.172V103.26
		c0-1.035,0.254-1.553,0.762-1.553h4.453c0.41,0,0.762,0.381,1.055,1.143l9.932,26.689c0.039,0.137,0.098,0.098,0.176-0.117
		l0.029-0.264V103.26c0-1.035,0.264-1.553,0.791-1.553h3.486c0.488,0,0.732,0.518,0.732,1.553v39.229
		c0,0.586-0.059,0.962-0.176,1.128c-0.117,0.166-0.303,0.249-0.557,0.249h-3.164c-0.195,0-0.406-0.117-0.63-0.352
		c-0.225-0.234-0.405-0.527-0.542-0.879l-11.045-28.828c-0.078-0.156-0.137-0.107-0.176,0.146c-0.02,0.059-0.029,0.127-0.029,0.205
		v28.213c0,0.586-0.063,0.977-0.19,1.172c-0.128,0.195-0.327,0.293-0.601,0.293H303.445z"/>
	<path fill="#FFFFFF" d="M330.1,143.836c-0.254,0-0.439-0.078-0.557-0.234c-0.117-0.156-0.176-0.508-0.176-1.055v-39.668
		c0-0.488,0.059-0.806,0.176-0.952s0.303-0.22,0.557-0.22h10.078c1.719,0,3.208,0.342,4.468,1.025
		c1.26,0.684,2.368,1.807,3.325,3.369c0.957,1.563,1.674,3.706,2.153,6.431c0.479,2.725,0.718,6.04,0.718,9.946
		c0,2.773-0.088,5.22-0.264,7.339c-0.176,2.12-0.406,3.936-0.688,5.449c-0.283,1.514-0.688,2.793-1.216,3.838
		c-0.527,1.045-1.074,1.875-1.641,2.49s-1.279,1.089-2.139,1.421c-0.859,0.333-1.695,0.552-2.505,0.659
		c-0.811,0.107-1.812,0.161-3.003,0.161H330.1z M335.52,139.178h3.604c1.504,0,2.666-0.449,3.486-1.348
		c0.82-0.898,1.431-2.544,1.831-4.937c0.399-2.392,0.601-5.834,0.601-10.327c0-4.16-0.23-7.451-0.688-9.873
		c-0.459-2.421-1.089-4.082-1.89-4.98c-0.801-0.898-1.846-1.348-3.135-1.348h-3.838c-0.234,0-0.352,0.215-0.352,0.645v31.523
		C335.139,138.963,335.266,139.178,335.52,139.178z"/>
	<path fill="#FFFFFF" d="M130.969,203.836c-0.508-0.039-0.86-0.713-1.055-2.021l-5.303-38.086c-0.04-0.195-0.059-0.469-0.059-0.82
		c0-0.801,0.156-1.201,0.469-1.201h3.838c0.234,0,0.449,0.186,0.645,0.557c0.195,0.371,0.332,0.869,0.41,1.494l3.252,27.803
		l3.955-27.715c0.078-0.605,0.22-1.069,0.425-1.392s0.425-0.483,0.659-0.483h3.164c0.508,0.059,0.85,0.684,1.025,1.875l4.189,28.301
		l3.281-28.418c0.078-0.605,0.209-1.094,0.396-1.465c0.186-0.371,0.396-0.557,0.63-0.557h3.311c0.312,0,0.469,0.4,0.469,1.201
		c0,0.254-0.029,0.527-0.088,0.82l-5.186,38.086c-0.195,1.309-0.527,1.982-0.996,2.021h-3.574c-0.508-0.039-0.86-0.723-1.055-2.051
		l-4.395-27.334l-4.248,27.363c-0.157,1.25-0.469,1.924-0.938,2.021H130.969z"/>
	<path fill="#FFFFFF" d="M158.795,203.836c-0.176,0-0.313-0.024-0.41-0.073c-0.098-0.049-0.181-0.181-0.249-0.396
		c-0.069-0.215-0.103-0.518-0.103-0.908v-39.375c0-0.566,0.063-0.938,0.19-1.113c0.127-0.176,0.317-0.264,0.571-0.264h4.307
		c0.156,0,0.283,0.024,0.381,0.073c0.098,0.049,0.18,0.181,0.249,0.396c0.068,0.215,0.103,0.518,0.103,0.908v39.375
		c0,0.566-0.059,0.938-0.176,1.113s-0.303,0.264-0.557,0.264H158.795z"/>
	<path fill="#FFFFFF" d="M169.834,203.836c-0.254,0-0.439-0.083-0.557-0.249s-0.176-0.522-0.176-1.069v-39.463
		c0-0.586,0.059-0.957,0.176-1.113s0.303-0.234,0.557-0.234h9.844c1.23,0,2.28,0.068,3.149,0.205
		c0.869,0.137,1.762,0.43,2.681,0.879c0.918,0.449,1.655,1.074,2.212,1.875s1.015,1.895,1.377,3.281
		c0.361,1.387,0.542,3.057,0.542,5.01c0,1.465-0.107,2.739-0.322,3.823c-0.215,1.084-0.538,1.963-0.967,2.637
		c-0.43,0.674-0.894,1.206-1.392,1.597s-1.099,0.723-1.802,0.996c-0.059,0.059-0.088,0.117-0.088,0.176s0.029,0.107,0.088,0.146
		c0.703,0.332,1.274,0.674,1.714,1.025s0.883,0.864,1.333,1.538c0.449,0.674,0.791,1.587,1.025,2.739s0.381,2.568,0.439,4.248
		c0.078,1.523,0.117,5.02,0.117,10.488c0,0.977-0.176,1.465-0.527,1.465c-3.028,0.02-4.581,0.029-4.658,0.029
		c-0.313,0-0.479-0.439-0.498-1.318c0-0.137-0.059-2.324-0.176-6.563s-0.245-6.68-0.381-7.324c-0.059-0.801-0.22-1.47-0.483-2.007
		s-0.605-0.928-1.025-1.172c-0.42-0.244-0.835-0.41-1.245-0.498s-0.879-0.132-1.406-0.132h-4.189c-0.215,0-0.322,0.215-0.322,0.645
		v17.021c0,0.547-0.059,0.903-0.176,1.069s-0.303,0.249-0.557,0.249H169.834z M175.166,180.281h3.779
		c3.262,0,4.893-2.373,4.893-7.119c0-2.52-0.444-4.282-1.333-5.288c-0.889-1.006-2.378-1.509-4.468-1.509h-2.842
		c-0.215,0-0.322,0.195-0.322,0.586v12.539C174.873,180.018,174.971,180.281,175.166,180.281z"/>
	<path fill="#FFFFFF" d="M198.627,203.836c-0.234,0-0.415-0.093-0.542-0.278c-0.127-0.186-0.19-0.562-0.19-1.128v-35.273
		c0-0.488-0.107-0.732-0.322-0.732h-5.098c-0.195,0-0.337-0.015-0.425-0.044s-0.166-0.127-0.234-0.293
		c-0.069-0.166-0.103-0.425-0.103-0.776v-2.314c0-0.527,0.059-0.874,0.176-1.04s0.312-0.249,0.586-0.249h16.553
		c0.253,0,0.439,0.083,0.557,0.249s0.176,0.513,0.176,1.04v2.314c0,0.488-0.054,0.796-0.161,0.923
		c-0.107,0.127-0.298,0.19-0.571,0.19h-5.01c-0.215,0-0.322,0.244-0.322,0.732v35.273c0,0.586-0.063,0.967-0.19,1.143
		c-0.127,0.176-0.318,0.264-0.571,0.264H198.627z"/>
	<path fill="#FFFFFF" d="M220.857,161.239c3.672,0,6.533,1.338,8.584,4.014c0.195,0.254,0.293,0.557,0.293,0.908
		c0,0.684-0.289,1.406-0.864,2.168c-0.576,0.762-1.06,1.143-1.45,1.143c-0.117,0-0.205-0.039-0.264-0.117
		c-1.739-2.109-3.809-3.164-6.211-3.164c-1.348,0-2.432,0.571-3.252,1.714s-1.23,2.534-1.23,4.175c0,1.543,0.352,2.803,1.055,3.779
		s1.709,1.885,3.018,2.725l3.721,2.402c3.926,2.539,5.889,6.25,5.889,11.133c0,3.574-0.908,6.494-2.725,8.76
		s-4.258,3.398-7.324,3.398c-4.141,0-7.402-1.787-9.785-5.361c-0.117-0.176-0.176-0.4-0.176-0.674c0-0.684,0.278-1.431,0.835-2.241
		s1.088-1.216,1.597-1.216c0.195,0,0.371,0.088,0.527,0.264c2.187,2.793,4.521,4.189,7.002,4.189c1.523,0,2.714-0.591,3.574-1.772
		c0.859-1.182,1.289-2.681,1.289-4.497c0-1.641-0.342-2.974-1.025-3.999c-0.684-1.025-1.729-1.997-3.135-2.915l-3.75-2.52
		c-0.82-0.547-1.534-1.113-2.139-1.699c-0.605-0.586-1.187-1.294-1.743-2.124s-0.986-1.807-1.289-2.93
		c-0.303-1.123-0.454-2.358-0.454-3.706c0-3.516,0.854-6.367,2.563-8.555C215.696,162.332,217.986,161.239,220.857,161.239z"/>
	<path fill="#FFFFFF" d="M244.641,204.276c-1.016,0-1.9-0.049-2.651-0.146c-0.752-0.098-1.567-0.317-2.446-0.659
		s-1.626-0.815-2.241-1.421s-1.23-1.445-1.846-2.52s-1.109-2.358-1.479-3.853c-0.371-1.494-0.674-3.33-0.908-5.508
		s-0.352-4.653-0.352-7.427c0-3.75,0.229-6.973,0.688-9.668c0.458-2.695,1.04-4.795,1.743-6.299s1.616-2.686,2.739-3.545
		c1.123-0.859,2.197-1.406,3.223-1.641s2.251-0.352,3.677-0.352c1.816,0,3.311,0.273,4.482,0.82c0.019,0.02,0.048,0.044,0.088,0.073
		c0.039,0.029,0.073,0.059,0.103,0.088s0.054,0.078,0.073,0.146c0.019,0.068,0.029,0.151,0.029,0.249v3.545
		c0,0.273-0.069,0.41-0.205,0.41c-0.02,0-0.093-0.02-0.22-0.059c-0.127-0.039-0.308-0.088-0.542-0.146s-0.488-0.117-0.762-0.176
		c-0.274-0.059-0.591-0.107-0.952-0.146c-0.362-0.039-0.718-0.059-1.069-0.059c-0.918,0-1.699,0.103-2.344,0.308
		s-1.299,0.645-1.963,1.318c-0.664,0.674-1.201,1.606-1.611,2.798s-0.743,2.822-0.996,4.893c-0.254,2.07-0.381,4.551-0.381,7.441
		c0,2.949,0.112,5.459,0.337,7.529c0.224,2.07,0.513,3.706,0.864,4.907s0.839,2.134,1.465,2.798c0.625,0.664,1.25,1.094,1.875,1.289
		c0.625,0.195,1.406,0.293,2.344,0.293c1.387,0,2.617-0.186,3.691-0.557c0.019,0,0.063,0.098,0.132,0.293
		c0.068,0.195,0.103,0.303,0.103,0.322v3.369c0,0.02-0.034,0.122-0.103,0.308c-0.069,0.186-0.113,0.288-0.132,0.308
		C247.902,204.051,246.417,204.276,244.641,204.276z"/>
	<path fill="#FFFFFF" d="M253.834,203.836c-0.273,0-0.469-0.083-0.586-0.249s-0.176-0.542-0.176-1.128v-39.375
		c0-0.586,0.059-0.962,0.176-1.128s0.313-0.249,0.586-0.249h4.248c0.273,0,0.469,0.083,0.586,0.249s0.176,0.542,0.176,1.128v15.586
		c0,0.176,0.033,0.332,0.103,0.469c0.068,0.137,0.132,0.205,0.19,0.205h8.789c0.059,0,0.127-0.073,0.205-0.22
		s0.117-0.308,0.117-0.483v-15.557c0-0.566,0.063-0.938,0.19-1.113c0.127-0.176,0.317-0.264,0.571-0.264h4.307
		c0.254,0,0.439,0.083,0.557,0.249s0.176,0.542,0.176,1.128v39.375c0,0.586-0.059,0.962-0.176,1.128s-0.303,0.249-0.557,0.249
		h-4.307c-0.176,0-0.313-0.024-0.41-0.073s-0.186-0.181-0.264-0.396s-0.117-0.518-0.117-0.908v-17.9c0-0.41-0.107-0.615-0.322-0.615
		h-8.701c-0.195,0-0.293,0.205-0.293,0.615v17.9c0,0.566-0.063,0.938-0.19,1.113c-0.128,0.176-0.317,0.264-0.571,0.264H253.834z"/>
	<path fill="#FFFFFF" d="M277.91,203.836c-0.293,0-0.439-0.283-0.439-0.85v-0.498c0-0.254,0.01-0.42,0.029-0.498l6.592-38.818
		c0.156-0.938,0.518-1.426,1.084-1.465h5.947c0.547,0.039,0.898,0.527,1.055,1.465l6.475,38.818c0,0.059,0.015,0.166,0.044,0.322
		s0.048,0.293,0.059,0.41c0.01,0.117,0.015,0.215,0.015,0.293c0,0.547-0.166,0.82-0.498,0.82h-4.834c-0.469,0-0.771-0.4-0.908-1.201
		l-1.084-7.471c-0.059-0.43-0.166-0.645-0.322-0.645h-7.09c-0.137,0-0.244,0.225-0.322,0.674l-1.23,7.412
		c-0.078,0.488-0.176,0.815-0.293,0.981s-0.293,0.249-0.527,0.249H277.91z M284.883,190.858h5.977c0.137,0,0.205-0.176,0.205-0.527
		c0-0.117-0.02-0.205-0.059-0.264l-2.9-22.588c-0.02-0.137-0.049-0.205-0.088-0.205c-0.059,0-0.098,0.059-0.117,0.176l-3.428,22.588
		c-0.02,0.137-0.029,0.225-0.029,0.264C284.443,190.672,284.59,190.858,284.883,190.858z"/>
	<path fill="#FFFFFF" d="M302.631,203.836c-0.254,0-0.439-0.073-0.557-0.22s-0.176-0.483-0.176-1.011v-39.668
		c0-0.508,0.059-0.84,0.176-0.996s0.303-0.234,0.557-0.234h14.385c0.176,0,0.308,0.02,0.396,0.059s0.165,0.146,0.234,0.322
		c0.068,0.176,0.103,0.439,0.103,0.791v2.314c0,0.488-0.059,0.806-0.176,0.952s-0.303,0.22-0.557,0.22h-8.994
		c-0.234,0-0.352,0.254-0.352,0.762v12.92c0,0.391,0.098,0.586,0.293,0.586h7.324c0.254,0,0.439,0.068,0.557,0.205
		s0.176,0.449,0.176,0.938v2.637c0,0.488-0.059,0.806-0.176,0.952s-0.303,0.22-0.557,0.22h-7.295c-0.078,0-0.151,0.078-0.22,0.234
		c-0.069,0.156-0.103,0.322-0.103,0.498v16.289c0,0.527-0.059,0.864-0.176,1.011s-0.303,0.22-0.557,0.22H302.631z"/>
	<path fill="#FFFFFF" d="M324.656,203.836c-0.234,0-0.415-0.093-0.542-0.278c-0.128-0.186-0.19-0.562-0.19-1.128v-35.273
		c0-0.488-0.107-0.732-0.322-0.732h-5.098c-0.195,0-0.337-0.015-0.425-0.044s-0.166-0.127-0.234-0.293
		c-0.069-0.166-0.103-0.425-0.103-0.776v-2.314c0-0.527,0.059-0.874,0.176-1.04s0.313-0.249,0.586-0.249h16.553
		c0.254,0,0.439,0.083,0.557,0.249s0.176,0.513,0.176,1.04v2.314c0,0.488-0.055,0.796-0.161,0.923
		c-0.107,0.127-0.298,0.19-0.571,0.19h-5.01c-0.215,0-0.322,0.244-0.322,0.732v35.273c0,0.586-0.063,0.967-0.19,1.143
		c-0.128,0.176-0.317,0.264-0.571,0.264H324.656z"/>
	<path fill="#FFFFFF" d="M346.887,161.239c3.672,0,6.533,1.338,8.584,4.014c0.195,0.254,0.293,0.557,0.293,0.908
		c0,0.684-0.289,1.406-0.864,2.168c-0.576,0.762-1.06,1.143-1.45,1.143c-0.117,0-0.205-0.039-0.264-0.117
		c-1.738-2.109-3.809-3.164-6.211-3.164c-1.348,0-2.432,0.571-3.252,1.714s-1.23,2.534-1.23,4.175c0,1.543,0.352,2.803,1.055,3.779
		s1.709,1.885,3.018,2.725l3.721,2.402c3.926,2.539,5.889,6.25,5.889,11.133c0,3.574-0.908,6.494-2.725,8.76
		s-4.258,3.398-7.324,3.398c-4.141,0-7.402-1.787-9.785-5.361c-0.117-0.176-0.176-0.4-0.176-0.674c0-0.684,0.278-1.431,0.835-2.241
		s1.089-1.216,1.597-1.216c0.195,0,0.371,0.088,0.527,0.264c2.188,2.793,4.521,4.189,7.002,4.189c1.523,0,2.715-0.591,3.574-1.772
		s1.289-2.681,1.289-4.497c0-1.641-0.342-2.974-1.025-3.999s-1.729-1.997-3.135-2.915l-3.75-2.52
		c-0.82-0.547-1.533-1.113-2.139-1.699s-1.187-1.294-1.743-2.124s-0.986-1.807-1.289-2.93c-0.304-1.123-0.454-2.358-0.454-3.706
		c0-3.516,0.854-6.367,2.563-8.555C341.726,162.332,344.016,161.239,346.887,161.239z"/>
	<path fill="#FFFFFF" d="M359.566,188.25c-0.254,0-0.444-0.103-0.571-0.308c-0.128-0.205-0.19-0.601-0.19-1.187v-1.494
		c0-0.586,0.063-0.977,0.19-1.172c0.127-0.195,0.317-0.293,0.571-0.293h12.51c0.488,0,0.732,0.488,0.732,1.465v1.494
		c0,0.996-0.244,1.494-0.732,1.494H359.566z"/>
	<path fill="#FFFFFF" d="M130.969,263.836c-0.508-0.039-0.86-0.713-1.055-2.021l-5.303-38.086c-0.04-0.195-0.059-0.469-0.059-0.82
		c0-0.801,0.156-1.201,0.469-1.201h3.838c0.234,0,0.449,0.186,0.645,0.557c0.195,0.371,0.332,0.869,0.41,1.494l3.252,27.803
		l3.955-27.715c0.078-0.605,0.22-1.069,0.425-1.392s0.425-0.483,0.659-0.483h3.164c0.508,0.059,0.85,0.684,1.025,1.875l4.189,28.301
		l3.281-28.418c0.078-0.605,0.209-1.094,0.396-1.465c0.186-0.371,0.396-0.557,0.63-0.557h3.311c0.312,0,0.469,0.4,0.469,1.201
		c0,0.254-0.029,0.527-0.088,0.82l-5.186,38.086c-0.195,1.309-0.527,1.982-0.996,2.021h-3.574c-0.508-0.039-0.86-0.723-1.055-2.051
		l-4.395-27.334l-4.248,27.363c-0.157,1.25-0.469,1.924-0.938,2.021H130.969z"/>
	<path fill="#FFFFFF" d="M156.188,263.836c-0.293,0-0.439-0.283-0.439-0.85v-0.498c0-0.254,0.01-0.42,0.029-0.498l6.592-38.818
		c0.156-0.938,0.517-1.426,1.084-1.465h5.947c0.546,0.039,0.898,0.527,1.055,1.465l6.475,38.818c0,0.059,0.015,0.166,0.044,0.322
		s0.048,0.293,0.059,0.41c0.01,0.117,0.015,0.215,0.015,0.293c0,0.547-0.166,0.82-0.498,0.82h-4.834c-0.469,0-0.772-0.4-0.908-1.201
		l-1.084-7.471c-0.059-0.43-0.166-0.645-0.322-0.645h-7.09c-0.137,0-0.245,0.225-0.322,0.674l-1.23,7.412
		c-0.078,0.488-0.176,0.815-0.293,0.981s-0.293,0.249-0.527,0.249H156.188z M163.16,250.858h5.977c0.136,0,0.205-0.176,0.205-0.527
		c0-0.117-0.02-0.205-0.059-0.264l-2.9-22.588c-0.02-0.137-0.049-0.205-0.088-0.205c-0.059,0-0.098,0.059-0.117,0.176l-3.428,22.588
		c-0.02,0.137-0.029,0.225-0.029,0.264C162.721,250.672,162.867,250.858,163.16,250.858z"/>
	<path fill="#FFFFFF" d="M191.162,264.276c-1.016,0-1.9-0.049-2.651-0.146c-0.752-0.098-1.567-0.317-2.446-0.659
		s-1.626-0.815-2.241-1.421s-1.23-1.445-1.846-2.52s-1.109-2.358-1.479-3.853c-0.371-1.494-0.674-3.33-0.908-5.508
		s-0.352-4.653-0.352-7.427c0-3.75,0.229-6.973,0.688-9.668c0.458-2.695,1.04-4.795,1.743-6.299s1.616-2.686,2.739-3.545
		c1.123-0.859,2.197-1.406,3.223-1.641s2.251-0.352,3.677-0.352c1.816,0,3.311,0.273,4.482,0.82c0.019,0.02,0.048,0.044,0.088,0.073
		c0.039,0.029,0.073,0.059,0.103,0.088s0.054,0.078,0.073,0.146c0.019,0.068,0.029,0.151,0.029,0.249v3.545
		c0,0.273-0.069,0.41-0.205,0.41c-0.02,0-0.093-0.02-0.22-0.059c-0.127-0.039-0.308-0.088-0.542-0.146s-0.488-0.117-0.762-0.176
		c-0.274-0.059-0.591-0.107-0.952-0.146c-0.362-0.039-0.718-0.059-1.069-0.059c-0.918,0-1.699,0.103-2.344,0.308
		s-1.299,0.645-1.963,1.318c-0.664,0.674-1.201,1.606-1.611,2.798s-0.743,2.822-0.996,4.893c-0.254,2.07-0.381,4.551-0.381,7.441
		c0,2.949,0.112,5.459,0.337,7.529c0.224,2.07,0.513,3.706,0.864,4.907s0.839,2.134,1.465,2.798c0.625,0.664,1.25,1.094,1.875,1.289
		c0.625,0.195,1.406,0.293,2.344,0.293c1.387,0,2.617-0.186,3.691-0.557c0.019,0,0.063,0.098,0.132,0.293
		c0.068,0.195,0.103,0.303,0.103,0.322v3.369c0,0.02-0.034,0.122-0.103,0.308c-0.069,0.186-0.113,0.288-0.132,0.308
		C194.424,264.051,192.939,264.276,191.162,264.276z"/>
	<path fill="#FFFFFF" d="M200.355,263.836c-0.274,0-0.469-0.083-0.586-0.249s-0.176-0.542-0.176-1.128v-39.375
		c0-0.586,0.059-0.962,0.176-1.128s0.312-0.249,0.586-0.249h4.248c0.273,0,0.469,0.083,0.586,0.249s0.176,0.542,0.176,1.128v15.586
		c0,0.176,0.034,0.332,0.103,0.469c0.068,0.137,0.132,0.205,0.19,0.205h8.789c0.059,0,0.127-0.073,0.205-0.22
		c0.078-0.146,0.117-0.308,0.117-0.483v-15.557c0-0.566,0.063-0.938,0.19-1.113c0.127-0.176,0.317-0.264,0.571-0.264h4.307
		c0.253,0,0.439,0.083,0.557,0.249s0.176,0.542,0.176,1.128v39.375c0,0.586-0.059,0.962-0.176,1.128s-0.303,0.249-0.557,0.249
		h-4.307c-0.176,0-0.313-0.024-0.41-0.073c-0.098-0.049-0.186-0.181-0.264-0.396c-0.078-0.215-0.117-0.518-0.117-0.908v-17.9
		c0-0.41-0.107-0.615-0.322-0.615h-8.701c-0.195,0-0.293,0.205-0.293,0.615v17.9c0,0.566-0.063,0.938-0.19,1.113
		c-0.127,0.176-0.318,0.264-0.571,0.264H200.355z"/>
	<path fill="#FFFFFF" d="M234.363,221.239c3.672,0,6.533,1.338,8.584,4.014c0.195,0.254,0.293,0.557,0.293,0.908
		c0,0.684-0.289,1.406-0.864,2.168c-0.576,0.762-1.06,1.143-1.45,1.143c-0.117,0-0.205-0.039-0.264-0.117
		c-1.739-2.109-3.809-3.164-6.211-3.164c-1.348,0-2.432,0.571-3.252,1.714s-1.23,2.534-1.23,4.175c0,1.543,0.352,2.803,1.055,3.779
		s1.709,1.885,3.018,2.725l3.721,2.402c3.926,2.539,5.889,6.25,5.889,11.133c0,3.574-0.908,6.494-2.725,8.76
		s-4.258,3.398-7.324,3.398c-4.141,0-7.402-1.787-9.785-5.361c-0.117-0.176-0.176-0.4-0.176-0.674c0-0.684,0.278-1.431,0.835-2.241
		s1.088-1.216,1.597-1.216c0.195,0,0.371,0.088,0.527,0.264c2.187,2.793,4.521,4.189,7.002,4.189c1.523,0,2.714-0.591,3.574-1.772
		c0.859-1.182,1.289-2.681,1.289-4.497c0-1.641-0.342-2.974-1.025-3.999c-0.684-1.025-1.729-1.997-3.135-2.915l-3.75-2.52
		c-0.82-0.547-1.534-1.113-2.139-1.699c-0.605-0.586-1.187-1.294-1.743-2.124s-0.986-1.807-1.289-2.93
		c-0.303-1.123-0.454-2.358-0.454-3.706c0-3.516,0.854-6.367,2.563-8.555C229.202,222.332,231.492,221.239,234.363,221.239z"/>
	<path fill="#FFFFFF" d="M251.291,263.836c-0.234,0-0.415-0.093-0.542-0.278c-0.128-0.186-0.19-0.562-0.19-1.128v-35.273
		c0-0.488-0.107-0.732-0.322-0.732h-5.098c-0.195,0-0.337-0.015-0.425-0.044s-0.166-0.127-0.234-0.293
		c-0.069-0.166-0.103-0.425-0.103-0.776v-2.314c0-0.527,0.059-0.874,0.176-1.04s0.312-0.249,0.586-0.249h16.553
		c0.254,0,0.439,0.083,0.557,0.249s0.176,0.513,0.176,1.04v2.314c0,0.488-0.055,0.796-0.161,0.923
		c-0.107,0.127-0.298,0.19-0.571,0.19h-5.01c-0.215,0-0.322,0.244-0.322,0.732v35.273c0,0.586-0.063,0.967-0.19,1.143
		c-0.128,0.176-0.317,0.264-0.571,0.264H251.291z"/>
	<path fill="#FFFFFF" d="M275.66,264.276c-1.055,0-1.963-0.044-2.725-0.132s-1.553-0.273-2.373-0.557s-1.514-0.679-2.08-1.187
		s-1.118-1.196-1.655-2.065c-0.538-0.869-0.962-1.919-1.274-3.149s-0.562-2.715-0.747-4.453c-0.187-1.738-0.278-3.73-0.278-5.977
		v-23.672c0-0.566,0.063-0.938,0.19-1.113c0.127-0.176,0.317-0.264,0.571-0.264h4.307c0.156,0,0.283,0.024,0.381,0.073
		s0.18,0.181,0.249,0.396c0.068,0.215,0.103,0.518,0.103,0.908v23.496c0,2.305,0.068,4.238,0.205,5.801s0.332,2.822,0.586,3.779
		s0.61,1.685,1.069,2.183c0.458,0.498,0.942,0.83,1.45,0.996s1.172,0.249,1.992,0.249c1.035,0,1.836-0.117,2.402-0.352
		s1.084-0.791,1.553-1.67s0.786-2.188,0.952-3.926c0.165-1.738,0.249-4.092,0.249-7.061v-23.496c0-0.586,0.059-0.962,0.176-1.128
		s0.303-0.249,0.557-0.249h4.336c0.156,0,0.278,0.024,0.366,0.073s0.165,0.181,0.234,0.396c0.068,0.215,0.103,0.518,0.103,0.908
		v23.672c0,2.266-0.093,4.282-0.278,6.05c-0.187,1.768-0.435,3.262-0.747,4.482s-0.737,2.261-1.274,3.12
		c-0.538,0.859-1.084,1.538-1.641,2.036s-1.241,0.889-2.051,1.172c-0.811,0.283-1.577,0.464-2.3,0.542
		S276.676,264.276,275.66,264.276z"/>
	<path fill="#FFFFFF" d="M291.563,263.836c-0.469,0-0.703-0.479-0.703-1.436v-0.146l1.318-38.877c0.02-1.074,0.264-1.631,0.732-1.67
		h4.629c0.293,0.02,0.537,0.117,0.732,0.293s0.342,0.537,0.439,1.084l4.951,27.715c0.02,0.078,0.054,0.137,0.103,0.176
		c0.048,0.039,0.098,0.039,0.146,0c0.048-0.039,0.073-0.098,0.073-0.176l4.98-27.627c0.176-0.938,0.557-1.426,1.143-1.465h4.688
		c0.469,0.039,0.703,0.596,0.703,1.67l1.377,38.877v0.176c0,0.938-0.244,1.406-0.732,1.406h-3.223c-0.469,0-0.723-0.527-0.762-1.582
		l-0.908-30.088c0-0.117-0.029-0.186-0.088-0.205s-0.098,0.01-0.117,0.088l-5.332,30.381c-0.156,0.938-0.488,1.406-0.996,1.406
		h-1.904c-0.469,0-0.801-0.469-0.996-1.406l-5.186-30.234c-0.02-0.117-0.059-0.137-0.117-0.059c-0.02,0.039-0.029,0.098-0.029,0.176
		l-0.938,29.941c0,1.055-0.225,1.582-0.674,1.582H291.563z"/>
</g>
</svg>
