<?xml version="1.0" encoding="iso-8859-1"?>
<!-- Generator: Adobe Illustrator 16.0.3, SVG Export Plug-In . SVG Version: 6.00 Build 0)  -->
<!DOCTYPE svg PUBLIC "-//W3C//DTD SVG 1.1//EN" "http://www.w3.org/Graphics/SVG/1.1/DTD/svg11.dtd">
<svg version="1.1"
	 id="Ebene_1" xmlns:dc="http://purl.org/dc/elements/1.1/" xmlns:inkscape="http://www.inkscape.org/namespaces/inkscape" xmlns:sodipodi="http://sodipodi.sourceforge.net/DTD/sodipodi-0.dtd" xmlns:svg="http://www.w3.org/2000/svg" xmlns:rdf="http://www.w3.org/1999/02/22-rdf-syntax-ns#" xmlns:cc="http://creativecommons.org/ns#" sodipodi:docname="visual_qr_traditionsargument_de.svg" inkscape:version="0.92.4 (5da689c313, 2019-01-14)"
	 xmlns="http://www.w3.org/2000/svg" xmlns:xlink="http://www.w3.org/1999/xlink" x="0px" y="0px" width="60px" height="60px"
	 viewBox="0 0 60 60" style="enable-background:new 0 0 60 60;" xml:space="preserve">
<rect id="rect2" style="fill:#A0B983;" width="60" height="60"/>
<g>
	<path style="fill:#FFFFFF;" d="M17.021,46.649h-1.552v4.279h-0.858v-4.279h-1.538v-0.697h3.948V46.649z"/>
	<path style="fill:#FFFFFF;" d="M19.308,47.989c-0.109-0.019-0.222-0.027-0.338-0.027c-0.38,0-0.637,0.146-0.769,0.438v2.529H17.37
		V47.23h0.793l0.021,0.414c0.201-0.322,0.479-0.482,0.834-0.482c0.119,0,0.216,0.016,0.294,0.048L19.308,47.989z"/>
	<path style="fill:#FFFFFF;" d="M21.939,50.929c-0.037-0.071-0.068-0.186-0.096-0.345c-0.264,0.275-0.588,0.413-0.971,0.413
		c-0.372,0-0.674-0.106-0.909-0.317c-0.235-0.213-0.352-0.475-0.352-0.787c0-0.394,0.146-0.696,0.439-0.907
		c0.292-0.21,0.711-0.315,1.256-0.315h0.509v-0.243c0-0.191-0.054-0.345-0.161-0.46s-0.27-0.172-0.489-0.172
		c-0.189,0-0.344,0.047-0.465,0.142s-0.181,0.214-0.181,0.36H19.69c0-0.203,0.067-0.393,0.202-0.569s0.317-0.315,0.549-0.415
		c0.231-0.1,0.489-0.15,0.774-0.15c0.433,0,0.778,0.109,1.036,0.326c0.257,0.218,0.39,0.523,0.396,0.918v1.668
		c0,0.332,0.047,0.598,0.14,0.797v0.058H21.939z M21.027,50.33c0.164,0,0.318-0.039,0.463-0.119c0.145-0.08,0.254-0.188,0.327-0.321
		v-0.697h-0.448c-0.308,0-0.539,0.054-0.694,0.161c-0.155,0.106-0.232,0.258-0.232,0.454c0,0.159,0.053,0.286,0.159,0.381
		C20.708,50.283,20.849,50.33,21.027,50.33z"/>
	<path style="fill:#FFFFFF;" d="M23.361,49.053c0-0.57,0.132-1.027,0.396-1.373c0.264-0.345,0.619-0.518,1.063-0.518
		c0.392,0,0.708,0.137,0.95,0.41v-1.894h0.831v5.25H25.85l-0.041-0.383c-0.249,0.301-0.58,0.451-0.995,0.451
		c-0.433,0-0.783-0.175-1.051-0.522C23.495,50.125,23.361,49.651,23.361,49.053z M24.192,49.124c0,0.376,0.072,0.669,0.217,0.88
		c0.145,0.211,0.351,0.316,0.617,0.316c0.339,0,0.588-0.151,0.745-0.455v-1.578c-0.153-0.297-0.399-0.445-0.738-0.445
		c-0.269,0-0.476,0.107-0.622,0.32S24.192,48.695,24.192,49.124z"/>
	<path style="fill:#FFFFFF;" d="M27.47,46.27c0-0.127,0.041-0.232,0.122-0.317c0.081-0.085,0.196-0.126,0.347-0.126
		s0.267,0.041,0.349,0.126s0.123,0.19,0.123,0.317c0,0.126-0.041,0.23-0.123,0.313s-0.198,0.124-0.349,0.124
		s-0.266-0.041-0.347-0.124C27.51,46.5,27.47,46.396,27.47,46.27z M28.352,50.929h-0.831V47.23h0.831V50.929z"/>
	<path style="fill:#FFFFFF;" d="M30.296,46.332v0.898h0.653v0.615h-0.653v2.064c0,0.141,0.028,0.243,0.083,0.306
		c0.056,0.063,0.155,0.095,0.3,0.095c0.096,0,0.191-0.012,0.29-0.035v0.643c-0.188,0.053-0.372,0.079-0.547,0.079
		c-0.638,0-0.957-0.353-0.957-1.056v-2.096h-0.608V47.23h0.608v-0.898H30.296z"/>
	<path style="fill:#FFFFFF;" d="M31.585,46.27c0-0.127,0.04-0.232,0.122-0.317c0.08-0.085,0.195-0.126,0.346-0.126
		s0.268,0.041,0.35,0.126s0.123,0.19,0.123,0.317c0,0.126-0.041,0.23-0.123,0.313s-0.199,0.124-0.35,0.124s-0.266-0.041-0.346-0.124
		C31.625,46.5,31.585,46.396,31.585,46.27z M32.467,50.929h-0.83V47.23h0.83V50.929z"/>
	<path style="fill:#FFFFFF;" d="M33.215,49.045c0-0.361,0.072-0.688,0.216-0.979c0.144-0.291,0.345-0.514,0.604-0.67
		s0.559-0.234,0.896-0.234c0.498,0,0.903,0.16,1.215,0.482c0.311,0.32,0.479,0.747,0.504,1.277l0.004,0.195
		c0,0.365-0.07,0.69-0.211,0.978c-0.14,0.287-0.34,0.509-0.602,0.667c-0.261,0.156-0.563,0.235-0.904,0.235
		c-0.521,0-0.939-0.174-1.252-0.521c-0.313-0.347-0.471-0.811-0.471-1.39V49.045z M34.046,49.117c0,0.381,0.079,0.679,0.235,0.894
		c0.158,0.216,0.377,0.323,0.656,0.323c0.281,0,0.499-0.109,0.655-0.328c0.155-0.219,0.233-0.539,0.233-0.961
		c0-0.373-0.08-0.67-0.24-0.889c-0.161-0.219-0.379-0.328-0.654-0.328c-0.271,0-0.486,0.108-0.646,0.323
		C34.125,48.367,34.046,48.689,34.046,49.117z"/>
	<path style="fill:#FFFFFF;" d="M38.127,47.23l0.023,0.428c0.273-0.331,0.633-0.496,1.077-0.496c0.771,0,1.162,0.441,1.176,1.322
		v2.444h-0.831v-2.396c0-0.235-0.051-0.409-0.151-0.521c-0.102-0.113-0.268-0.17-0.497-0.17c-0.336,0-0.585,0.152-0.749,0.455v2.632
		h-0.831V47.23H38.127z"/>
	<path style="fill:#FFFFFF;" d="M43.322,49.924c0-0.148-0.061-0.261-0.184-0.338c-0.121-0.078-0.323-0.146-0.605-0.205
		c-0.283-0.06-0.52-0.135-0.708-0.227c-0.415-0.2-0.622-0.49-0.622-0.871c0-0.318,0.135-0.586,0.403-0.8s0.61-0.321,1.025-0.321
		c0.442,0,0.8,0.109,1.071,0.328c0.272,0.219,0.408,0.502,0.408,0.852h-0.83c0-0.16-0.059-0.293-0.178-0.398
		c-0.119-0.106-0.275-0.159-0.472-0.159c-0.183,0-0.331,0.042-0.446,0.126c-0.115,0.085-0.172,0.197-0.172,0.339
		c0,0.128,0.053,0.227,0.16,0.298c0.107,0.07,0.324,0.142,0.649,0.213c0.325,0.072,0.581,0.157,0.767,0.257
		c0.187,0.099,0.324,0.218,0.414,0.356c0.09,0.14,0.135,0.309,0.135,0.506c0,0.333-0.137,0.603-0.413,0.809
		c-0.276,0.207-0.637,0.31-1.083,0.31c-0.304,0-0.574-0.055-0.811-0.164s-0.422-0.26-0.554-0.451s-0.198-0.397-0.198-0.618h0.807
		c0.012,0.195,0.086,0.347,0.223,0.452c0.137,0.106,0.317,0.159,0.543,0.159c0.219,0,0.385-0.041,0.499-0.125
		C43.266,50.167,43.322,50.059,43.322,49.924z"/>
	<path style="fill:#FFFFFF;" d="M46.474,49.148H44.68v-0.67h1.794V49.148z"/>
	<path style="fill:#FFFFFF;" d="M17.407,57.929c-0.037-0.071-0.068-0.186-0.096-0.345c-0.264,0.275-0.588,0.413-0.971,0.413
		c-0.372,0-0.674-0.106-0.909-0.317c-0.235-0.213-0.352-0.475-0.352-0.787c0-0.394,0.146-0.696,0.439-0.907
		c0.292-0.21,0.711-0.315,1.256-0.315h0.509v-0.243c0-0.191-0.054-0.345-0.161-0.46s-0.27-0.172-0.489-0.172
		c-0.189,0-0.344,0.047-0.465,0.142s-0.181,0.214-0.181,0.36h-0.831c0-0.203,0.067-0.393,0.202-0.569s0.317-0.315,0.549-0.415
		c0.231-0.1,0.489-0.15,0.774-0.15c0.433,0,0.778,0.109,1.036,0.326c0.257,0.218,0.39,0.523,0.396,0.918v1.668
		c0,0.332,0.047,0.598,0.14,0.797v0.058H17.407z M16.495,57.33c0.164,0,0.318-0.039,0.463-0.119c0.145-0.08,0.254-0.188,0.327-0.321
		v-0.697h-0.448c-0.308,0-0.539,0.054-0.694,0.161c-0.155,0.106-0.232,0.258-0.232,0.454c0,0.159,0.053,0.286,0.159,0.381
		C16.175,57.283,16.317,57.33,16.495,57.33z"/>
	<path style="fill:#FFFFFF;" d="M20.921,54.989c-0.109-0.019-0.222-0.027-0.338-0.027c-0.38,0-0.637,0.146-0.769,0.438v2.529h-0.831
		V54.23h0.793l0.021,0.414c0.201-0.322,0.479-0.482,0.834-0.482c0.119,0,0.216,0.016,0.294,0.048L20.921,54.989z"/>
	<path style="fill:#FFFFFF;" d="M21.235,56.053c0-0.574,0.135-1.033,0.405-1.376c0.27-0.343,0.628-0.515,1.075-0.515
		c0.421,0,0.753,0.146,0.995,0.441l0.038-0.373h0.749v3.586c0,0.484-0.151,0.867-0.453,1.148c-0.302,0.279-0.709,0.42-1.222,0.42
		c-0.271,0-0.536-0.057-0.795-0.169c-0.258-0.113-0.455-0.261-0.589-0.442l0.393-0.5c0.255,0.304,0.57,0.455,0.943,0.455
		c0.276,0,0.493-0.074,0.653-0.224s0.239-0.368,0.239-0.658v-0.249c-0.239,0.266-0.558,0.399-0.957,0.399
		c-0.433,0-0.787-0.172-1.061-0.517C21.373,57.137,21.235,56.66,21.235,56.053z M22.063,56.124c0,0.372,0.076,0.663,0.228,0.877
		c0.151,0.213,0.361,0.319,0.63,0.319c0.335,0,0.583-0.144,0.745-0.431v-1.627c-0.157-0.28-0.403-0.421-0.738-0.421
		c-0.273,0-0.486,0.109-0.637,0.325C22.138,55.383,22.063,55.703,22.063,56.124z"/>
	<path style="fill:#FFFFFF;" d="M27.589,57.566c-0.244,0.287-0.59,0.431-1.039,0.431c-0.401,0-0.705-0.117-0.911-0.353
		c-0.206-0.234-0.309-0.574-0.309-1.018V54.23h0.831v2.386c0,0.47,0.195,0.704,0.584,0.704c0.403,0,0.676-0.145,0.817-0.434V54.23
		h0.831v3.698H27.61L27.589,57.566z"/>
	<path style="fill:#FFFFFF;" d="M30.02,54.23l0.024,0.387c0.26-0.304,0.615-0.455,1.066-0.455c0.495,0,0.834,0.189,1.016,0.567
		c0.27-0.378,0.646-0.567,1.135-0.567c0.408,0,0.711,0.113,0.91,0.338c0.2,0.227,0.303,0.559,0.307,0.998v2.431h-0.83v-2.406
		c0-0.235-0.052-0.407-0.154-0.517s-0.272-0.164-0.51-0.164c-0.188,0-0.344,0.051-0.463,0.152s-0.203,0.234-0.251,0.398l0.003,2.536
		h-0.83v-2.434c-0.012-0.435-0.233-0.653-0.666-0.653c-0.333,0-0.569,0.137-0.708,0.407v2.68h-0.831V54.23H30.02z"/>
	<path style="fill:#FFFFFF;" d="M36.958,57.997c-0.526,0-0.953-0.166-1.28-0.497c-0.326-0.332-0.49-0.773-0.49-1.324v-0.104
		c0-0.369,0.071-0.698,0.213-0.989c0.143-0.29,0.344-0.517,0.601-0.679c0.257-0.161,0.544-0.242,0.861-0.242
		c0.503,0,0.893,0.16,1.167,0.482c0.275,0.32,0.412,0.775,0.412,1.363v0.335h-2.416c0.024,0.306,0.127,0.547,0.305,0.725
		c0.18,0.178,0.404,0.267,0.676,0.267c0.381,0,0.69-0.154,0.93-0.461l0.447,0.427c-0.147,0.222-0.346,0.393-0.592,0.515
		C37.543,57.936,37.266,57.997,36.958,57.997z M36.859,54.828c-0.229,0-0.412,0.08-0.553,0.24c-0.141,0.159-0.229,0.381-0.268,0.666
		h1.582v-0.062c-0.018-0.278-0.092-0.488-0.223-0.631C37.27,54.9,37.089,54.828,36.859,54.828z"/>
	<path style="fill:#FFFFFF;" d="M39.856,54.23l0.024,0.428c0.273-0.331,0.632-0.496,1.076-0.496c0.77,0,1.162,0.441,1.176,1.322
		v2.444h-0.83v-2.396c0-0.235-0.051-0.409-0.152-0.521c-0.102-0.113-0.268-0.17-0.498-0.17c-0.334,0-0.584,0.152-0.748,0.455v2.632
		h-0.83V54.23H39.856z"/>
	<path style="fill:#FFFFFF;" d="M44.02,53.332v0.898h0.652v0.615H44.02v2.064c0,0.141,0.027,0.243,0.084,0.306
		c0.056,0.063,0.155,0.095,0.299,0.095c0.096,0,0.192-0.012,0.291-0.035v0.643c-0.189,0.053-0.372,0.079-0.547,0.079
		c-0.639,0-0.957-0.353-0.957-1.056v-2.096H42.58V54.23h0.609v-0.898H44.02z"/>
</g>
<sodipodi:namedview  borderopacity="1" bordercolor="#666666" pagecolor="#ffffff" showgrid="false" inkscape:cy="30" inkscape:cx="30" inkscape:zoom="3.9333333" id="namedview84" inkscape:pageopacity="0" inkscape:pageshadow="2" inkscape:window-width="731" inkscape:window-height="480" inkscape:window-x="0" inkscape:window-y="0" inkscape:window-maximized="0" inkscape:current-layer="Ebene_1" guidetolerance="10" gridtolerance="10" objecttolerance="10">
	</sodipodi:namedview>
<g id="g41" transform="translate(-7.561529,-21.467778)">
	<g id="Bild" transform="translate(8.6,22.5)">
		
			<sodipodi:namedview  units="mm" borderopacity="1.0" bordercolor="#666666" pagecolor="#ffffff" showgrid="false" inkscape:cy="140.10525" inkscape:cx="100.8875" inkscape:zoom="1.4" showguides="true" id="base" inkscape:pageopacity="0.0" inkscape:pageshadow="2" inkscape:window-width="702" inkscape:window-height="700" inkscape:window-x="0" inkscape:window-y="0" inkscape:window-maximized="1" inkscape:current-layer="layer1" inkscape:guide-bbox="true" inkscape:document-units="mm">
			<sodipodi:guide  orientation="1,0" position="191.33858,0" id="guide21487"></sodipodi:guide>
			<sodipodi:guide  orientation="0,1" position="0,304.72441" id="guide21489"></sodipodi:guide>
			<sodipodi:guide  orientation="0,1" position="0,322.44094" id="guide26097"></sodipodi:guide>
		</sodipodi:namedview>
		<g id="layer1" transform="translate(0,-910.62992)" inkscape:label="Ebene 1" inkscape:groupmode="layer">
			<path id="path4460-9" inkscape:connector-curvature="0" style="fill:#FFFFFF;" d="M11.078,915.898
				c-2.551,0-4.616,2.065-4.616,4.617c0,2.551,2.065,4.632,4.616,4.632c0.075,0,0.15-0.013,0.227-0.016v0.048h2.284v18.854
				c0,0.01,0,0.021,0,0.031c-0.025,0.195-0.033,0.399-0.033,0.6c0,2.514,2.021,4.557,4.52,4.617v0.016h28.8h0.211v-0.033
				c2.543-0.313,4.597-2.561,4.355-5.199c-0.197-2.174-2-3.989-4.195-4c-0.146,0-0.304,0.018-0.453,0.033
				c-0.125,0.014-0.25,0.023-0.371,0.049h-3.418v-18.61c0-3.019-2.511-5.432-5.653-5.588v-0.016
				c-0.033,0.002-0.063,0.013-0.097,0.016c-0.076-0.002-0.151-0.016-0.229-0.016H11.645c-0.042-0.012-0.085-0.018-0.129-0.017
				C11.374,915.902,11.221,915.898,11.078,915.898L11.078,915.898z M11.078,916.806c0.033,0,0.064-0.001,0.097,0
				c0.037,0.016,0.074,0.026,0.113,0.032h23.568c-1.362,0.955-2.234,2.553-2.073,4.325c0.112,1.24,0.763,2.357,1.7,3.094H11.677
				c-0.075-0.038-0.159-0.055-0.243-0.049c-0.114,0.011-0.242,0.017-0.356,0.017c-2.055,0-3.709-1.654-3.709-3.709
				C7.368,918.46,9.023,916.806,11.078,916.806z M37.35,916.855c2.68,0.15,4.746,2.186,4.746,4.681v19.017v0.452
				c-0.004,0.033-0.004,0.065,0,0.099v3.125h-0.049c0.006,0.19,0.025,0.389,0.049,0.584v0.049c0.115,0.959,0.425,1.943,0.988,2.754
				c0.203,0.291,0.453,0.547,0.729,0.777H18.399c-0.068-0.023-0.14-0.027-0.21-0.019c-2.055,0-3.726-1.653-3.726-3.709
				c0-0.03,0-0.063,0-0.099h0.032v-0.389c0.012-0.059,0.012-0.119,0-0.178v-18.82h22.45v-0.032c0.168,0.003,0.331,0.002,0.503-0.016
				c1.994-0.212,3.633-1.996,3.369-4.066c-0.213-1.67-1.748-3.048-3.499-2.77c-1.347,0.214-2.459,1.499-2.153,2.932
				c0.107,0.511,0.407,0.963,0.825,1.264c0.417,0.301,0.979,0.437,1.539,0.259c0.353-0.111,0.649-0.354,0.843-0.68
				c0.191-0.326,0.25-0.791,0-1.183c-0.179-0.279-0.373-0.358-0.647-0.405c-0.138-0.022-0.316-0.039-0.503,0.081
				c-0.187,0.121-0.291,0.375-0.291,0.567h0.923c0,0.014-0.038,0.15-0.129,0.21c-0.082,0.054-0.117,0.035-0.13,0.033
				c0.054,0.085,0.049,0.131-0.018,0.242c-0.066,0.111-0.216,0.226-0.322,0.26c-0.264,0.084-0.506,0.031-0.729-0.13
				s-0.396-0.44-0.453-0.713c-0.185-0.865,0.526-1.692,1.394-1.83c1.197-0.19,2.278,0.79,2.43,1.977
				c0.193,1.524-1.036,2.885-2.543,3.045c-1.852,0.196-3.479-1.314-3.645-3.143C33.51,918.934,35.237,917.066,37.35,916.855
				L37.35,916.855z M27.065,928.241l-4.406,9.864c-0.419,0.941-0.784,1.563-1.069,1.863c-0.285,0.299-0.642,0.482-1.085,0.551v0.34
				h4.114v-0.34c-0.644-0.049-1.051-0.131-1.215-0.228c-0.279-0.164-0.421-0.416-0.421-0.762c0-0.262,0.089-0.588,0.259-0.988
				l0.518-1.215h4.357l0.664,1.539c0.17,0.4,0.264,0.641,0.275,0.695c0.037,0.115,0.048,0.215,0.048,0.324
				c0,0.182-0.061,0.324-0.194,0.421c-0.194,0.133-0.541,0.211-1.021,0.211h-0.243v0.34h5.978v-0.34
				c-0.377-0.031-0.668-0.151-0.875-0.342c-0.272-0.248-0.627-0.838-1.053-1.797l-4.455-10.14h-0.176V928.241z M25.963,932.404
				l1.846,4.26h-3.741L25.963,932.404z M47.231,940.988c1.704,0.012,3.148,1.443,3.304,3.158c0.198,2.176-1.575,4.072-3.725,4.244
				h-0.47v-0.05c-1.188,0.044-1.961-0.473-2.512-1.264c-0.494-0.711-0.75-1.662-0.826-2.576v-0.112v-3.224
				c0.01-0.037,0.017-0.073,0.017-0.112h1.62c-0.855,0.758-1.371,1.885-1.215,3.108c0.213,1.67,1.73,3.049,3.481,2.771
				c1.347-0.213,2.459-1.482,2.154-2.916c-0.108-0.511-0.408-0.961-0.826-1.263c-0.417-0.301-0.979-0.452-1.539-0.274
				c-0.353,0.11-0.649,0.354-0.842,0.68s-0.25,0.807,0,1.199c0.178,0.276,0.373,0.356,0.647,0.404
				c0.137,0.022,0.332,0.022,0.519-0.099c0.187-0.119,0.274-0.375,0.274-0.565h-0.922c0-0.011,0.055-0.086,0.096-0.146
				c0.021-0.027,0.021-0.045,0.05-0.064c0.062-0.039,0.073-0.016,0.098-0.016l0.017-0.016c-0.055-0.086-0.049-0.117,0.017-0.229
				s0.217-0.239,0.323-0.274c0.263-0.084,0.505-0.015,0.729,0.146c0.225,0.161,0.412,0.424,0.471,0.696
				c0.184,0.865-0.543,1.691-1.41,1.83c-1.196,0.189-2.277-0.789-2.43-1.977c-0.182-1.43,0.906-2.709,2.284-2.996h0.017
				c0.09,0.01,0.18-0.006,0.26-0.049C47.006,940.992,47.117,940.988,47.231,940.988L47.231,940.988z"/>
			<g id="text4494-1" transform="translate(3330.6084,435.76942)">
			</g>
		</g>
	</g>
</g>
<g id="g53">
</g>
<g id="g55">
</g>
<g id="g57">
</g>
<g id="g59">
</g>
<g id="g61">
</g>
<g id="g63">
</g>
<g id="g65">
</g>
<g id="g67">
</g>
<g id="g69">
</g>
<g id="g71">
</g>
<g id="g73">
</g>
<g id="g75">
</g>
<g id="g77">
</g>
<g id="g79">
</g>
<g id="g81">
</g>
</svg>
