<?xml version="1.0" encoding="utf-8"?>
<!-- Generator: Adobe Illustrator 16.0.3, SVG Export Plug-In . SVG Version: 6.00 Build 0)  -->
<!DOCTYPE svg PUBLIC "-//W3C//DTD SVG 1.1//EN" "http://www.w3.org/Graphics/SVG/1.1/DTD/svg11.dtd">
<svg version="1.1" id="Layer_1" xmlns="http://www.w3.org/2000/svg" xmlns:xlink="http://www.w3.org/1999/xlink" x="0px" y="0px"
	 width="500px" height="500px" viewBox="0 0 500 500" enable-background="new 0 0 500 500" xml:space="preserve">
<title>Artboard 1</title>
<rect y="0" fill="#3F7E44" width="500" height="500"/>
<polygon fill="#FFFFFF" points="63.11,41.94 63.11,142.71 46.165,142.71 46.165,65.575 46.015,65.575 34.13,77.91 33.975,77.91 
	33.975,60.22 49.58,41.94 "/>
<path fill="#FFFFFF" d="M119,63.795v8.765c0,8.465-4.605,14.115-11.59,16.352c8.47,1.93,12.5,7.875,12.5,17.09v14.863
	c0,13.967-7.43,23.035-24.525,23.035c-17.244,0-23.345-9.81-23.345-25.12v-13.225H87.5V120c0,5.943,2.075,9.8,7.88,9.8
	c5.195,0,7.57-3.71,7.57-9.065V104.07c0-5.354-2.375-8.175-8.315-8.175H87.5v-12.93h6.395c5.5,0,9.056-2.83,9.056-8.175V63.94
	c0-5.5-1.925-9.063-7.275-9.063c-5.35,0-7.28,3.563-7.28,9.805v10.255H72.915V66c0-14.865,6.095-25.271,23.635-25.271
	c15.61,0,22.445,8.775,22.445,23.045"/>
<path fill="#FFFFFF" d="M433.545,313C420.37,294.545,360.78,220.775,250,220.775c-110.779,0-170.34,73.771-183.535,92.226
	c-0.56,0.789-1.045,1.5-1.435,2.056c0.39,0.595,0.875,1.273,1.435,2.075C79.66,335.615,139.23,409.39,250,409.39
	c110.771,0,170.37-73.775,183.545-92.24c0.575-0.8,1.05-1.5,1.425-2.075c-0.373-0.58-0.848-1.265-1.425-2.055 M188.225,267.42
	c1-1.465,4.315-5.646,4.715-6.175c0.855-1.102,2.551-1.325,3.735-1.535s2.745,0.435,2.935,1.318c0.19,0.887-0.455,4.315-1.034,4.905
	c-1.625,1.687-5.855,4.065-8.185,3.69C188.585,269.35,187.891,267.955,188.225,267.42 M184.266,275.29
	c0.174-0.21,0.334-0.38,0.399-0.465c1.396-1.592,4.17-1.932,6.085-2.23s4.5,0.64,4.79,1.915s-4.815,3.6-5.755,4.5
	c-2.665,2.455-6.835,7.455-9.275,8c-0.67,0.17-1.378,0.097-2-0.205c1.592-3.988,3.514-7.835,5.75-11.5 M225.715,360.345
	c-1.5,5.898-3.25,8.023-4.74,9.885c-1.49,1.86-7,4.285-10.5,4.025c-3.5-0.262-4-9.625-4-14.445c0-1.66-2.354,3.27-3.584-6.755
	c-0.785-6.415-4.906,0.67-5.195-3.61c-0.291-4.28-2.35-3.42-4.5-6.09s-4.84,0.26-7.85,1.61c-3.011,1.35-1.761,2.028-6,0.688
	c-0.111-0.035-0.166-0.063-0.271-0.104c-4.034-9.505-6.112-19.726-6.11-30.05c0-2.605,0.141-5.172,0.385-7.7
	c0.135-0.255,0.295-0.496,0.476-0.722c4.08-4.829,4-5.96,4-5.96l4.5-1.56c0,0,7.21,1.11,12.64,3.155
	c4.475,1.675,11.5,5.47,15.615,3.8c2.965-1.22,5.279-2.84,5-5.305c-0.33-3.097-2.77-3.83-5.721-1.745
	c-1.084,0.77-3.404-4.665-5.225-4.385c-1.82,0.278,2.25,6.38,0.711,6.64c-1.541,0.26-4.656-6.37-5.186-7.445
	c-0.53-1.073-2.926-3.729-5.08-1.698c-4.55,4.323-11.939,4.06-13.425,5.173c-4.5,3.382-5.71-1.113-5.61-3.85
	c0.18-0.625,0.365-1.255,0.564-1.875c1.476-1.625,6.771-2.165,8.591-0.955c2,1.335,3.43-0.34,4.21-1.148
	c0.779-0.812,0.5-2.075,0-3.135c-0.5-1.062,1-1.86,2.029-2.137c1.031-0.273,4.476-2.685,5.851-3.5
	c1.375-0.813,8.5-1.665,11.715-0.063c2.611,1.38,5.833,0.729,7.705-1.557c1.573-1.874,3.468-3.453,5.595-4.665
	c1.12-0.5-2.755-4.135-5.935-0.193c-3.181,3.938-4.815,4.279-6.315,4.279s-10.41-2.221-11.5-5.034c-1.09-2.815,2.791-4.92,6.075-6.5
	c3.285-1.58,12.285-1.545,14.585-2.065c4.676-1.024,10.655-3.375,13.665-1.325c3.011,2.051-12.575,5.562-7.454,8.325
	c1.819,1,10.049-4.734,12.875-6.205c6.635-3.42-6.436-4.55-4.74-11.5c1.914-7.858-16.035-4.819-25-4.148
	c35.893-22.962,83.603-12.479,106.564,23.414c4.629,7.236,8.019,15.196,10.025,23.551c0.045,1.202-0.081,2.405-0.375,3.573
	c-0.7,2.78-6,5.17-9.035,0.695c-0.78-1.13-4.09-4.255-4,1.09s5.2,5.896,0.265,9.105c-4.935,3.21-5.83,2.435-8.108,3.245
	c-2.28,0.81-4.5,6.313-3.937,9.26c0.565,2.945,7.585,11,2.365,10.66c-1.227-0.097-10.445-6.392-11.965-10.44
	c-1.61-4.265-3.36-8.435-4.605-11.648c-1.245-3.217-4.5-4-7.27-2.137c-2.771,1.865,0.765,3.755-1.21,7.775
	c-1.977,4.02-3.38,7.595-6.275,4.28c-7.535-8.632-18.5-4.375-20.195-14c-0.925-5.205-5.408-4.705-9.16-7.655
	c-3.75-2.95-5.864-4.5-6.5-2.405c-0.555,1.865,11.796,11.66,12.676,14.165c1.313,3.73-3.695,7-7.365,7.9
	c-3.67,0.898-5.26-2.057-8.859-5.807c-3.601-3.75-5.166-6.408-5.416-3.47c-0.359,4.245,3.416,10.5,7.075,12.812
	c3.125,1.975,6.625,2.868,5.61,6.079c-1.016,3.21,0,1.399-3.5,4.859s-4.17,4.595-3.915,9.4c0.255,4.805-1,5.095-1.755,9.1
	c-0.756,4.005-2.5,0.54-4,6.415 M308.5,329.56c2.59-0.21,6.5,3.385,4.965,4.765s-5.405,0.87-7.358-0.66
	C304.15,332.135,307.33,329.663,308.5,329.56 M305.215,327.19c-0.83-0.31-1.563-1.1-2.195-3c-0.63-1.9,0.967-3,2.5-2.215
	c1.535,0.785,3.642,3.165,3.642,4.425s-3.115,1.115-3.965,0.78 M271.14,327.045c-1.523,1.358-5.425,0.858-7.375-0.66
	c-1.948-1.521,1.23-4,2.392-4.105c2.595-0.233,6.5,3.396,5,4.767 M239.654,342.368c-1.059,1.735-3.965,14.71-5.909,13.2
	c-1.945-1.51,0.79-15.05,1.351-16.08C238.145,333.9,244.735,334.175,239.654,342.368 M250.155,392.658
	c-7.339,0.002-14.642-1.043-21.685-3.104c-1.135-0.897-1.519-2.447-0.936-3.771c2.385-6.225,9.5-8.665,15.109-9.205
	c12.5-1.22,28.96,8.125,31.575,6.615s7.915-8.385,15.676-8.095c5.301,0.205,5.261,1.095,7.039,1.765
	C283.503,387.131,267.062,392.683,250.155,392.658 M304.58,370.198c-0.835-0.217-1.646-0.517-2.42-0.895
	c-4.215-2.146-3.71,1.28-5.78,0.5s2.335-5.575-3.885-1.5s-4.525-0.63-7.227-7.5c-2.698-6.87,3.11-14.715,8-16.5
	c6.705-2.425,10.865-2.92,14-3.695c9.271-2.313,11.23-7.813,12.91-4.47c0.32,0.625,0.625,1.225,0.905,1.785
	c0.751,1.587,1.15,3.317,1.17,5.074c-3.901,10.225-9.932,19.503-17.688,27.221 M325.705,331.265
	c-2.07-0.565-10.735-12.545-3.885-20.425c1.14-1.295-2.301-5.11-1.36-5.187c3.75-0.29,5.74,2.035,6.725,5.385
	c0.075,1.5,0.137,2.972,0.137,4.5c-0.002,5.292-0.543,10.569-1.615,15.75"/>
<g>
	<path fill="#FFFFFF" d="M144.545,83.836c-0.469,0-0.703-0.479-0.703-1.436v-0.146l1.318-38.877c0.019-1.074,0.264-1.63,0.732-1.67
		h4.629c0.293,0.02,0.537,0.117,0.732,0.293c0.195,0.176,0.341,0.538,0.439,1.084l4.951,27.715c0.019,0.078,0.054,0.137,0.103,0.176
		c0.048,0.04,0.098,0.04,0.146,0c0.048-0.039,0.073-0.098,0.073-0.176l4.98-27.627c0.176-0.938,0.557-1.425,1.143-1.465h4.688
		c0.469,0.04,0.703,0.596,0.703,1.67l1.377,38.877v0.176c0,0.938-0.245,1.406-0.732,1.406h-3.223c-0.469,0-0.723-0.527-0.762-1.582
		l-0.908-30.088c0-0.117-0.029-0.186-0.088-0.205c-0.059-0.019-0.098,0.01-0.117,0.088l-5.332,30.381
		c-0.157,0.938-0.488,1.406-0.996,1.406h-1.904c-0.469,0-0.801-0.469-0.996-1.406l-5.186-30.234
		c-0.02-0.117-0.059-0.136-0.117-0.059c-0.02,0.04-0.029,0.098-0.029,0.176l-0.938,29.941c0,1.055-0.225,1.582-0.674,1.582H144.545z
		"/>
	<path fill="#FFFFFF" d="M174.271,83.836c-0.293,0-0.439-0.283-0.439-0.85v-0.498c0-0.253,0.01-0.42,0.029-0.498l6.592-38.818
		c0.156-0.938,0.517-1.425,1.084-1.465h5.947c0.546,0.04,0.898,0.527,1.055,1.465l6.475,38.818c0,0.059,0.015,0.166,0.044,0.322
		c0.029,0.157,0.048,0.293,0.059,0.41c0.01,0.117,0.015,0.215,0.015,0.293c0,0.547-0.166,0.82-0.498,0.82h-4.834
		c-0.469,0-0.772-0.4-0.908-1.201l-1.084-7.471c-0.059-0.429-0.166-0.645-0.322-0.645h-7.09c-0.137,0-0.245,0.225-0.322,0.674
		l-1.23,7.412c-0.078,0.488-0.176,0.816-0.293,0.981c-0.117,0.166-0.293,0.249-0.527,0.249H174.271z M181.244,70.858h5.977
		c0.136,0,0.205-0.176,0.205-0.527c0-0.117-0.02-0.205-0.059-0.264l-2.9-22.588c-0.02-0.136-0.049-0.205-0.088-0.205
		c-0.059,0-0.098,0.059-0.117,0.176l-3.428,22.588c-0.02,0.137-0.029,0.225-0.029,0.264
		C180.805,70.672,180.951,70.858,181.244,70.858z"/>
	<path fill="#FFFFFF" d="M207.865,41.239c3.672,0,6.533,1.338,8.584,4.014c0.195,0.254,0.293,0.557,0.293,0.908
		c0,0.684-0.289,1.406-0.864,2.168c-0.576,0.762-1.06,1.143-1.45,1.143c-0.117,0-0.205-0.039-0.264-0.117
		c-1.739-2.109-3.809-3.164-6.211-3.164c-1.348,0-2.432,0.571-3.252,1.714s-1.23,2.534-1.23,4.175c0,1.543,0.352,2.803,1.055,3.779
		c0.703,0.977,1.709,1.885,3.018,2.725l3.721,2.402c3.926,2.539,5.889,6.25,5.889,11.133c0,3.574-0.908,6.494-2.725,8.76
		c-1.816,2.266-4.258,3.398-7.324,3.398c-4.141,0-7.402-1.787-9.785-5.361c-0.117-0.176-0.176-0.4-0.176-0.674
		c0-0.684,0.278-1.431,0.835-2.241c0.557-0.81,1.088-1.216,1.597-1.216c0.195,0,0.371,0.088,0.527,0.264
		c2.187,2.793,4.521,4.189,7.002,4.189c1.523,0,2.714-0.59,3.574-1.772c0.859-1.182,1.289-2.681,1.289-4.497
		c0-1.641-0.342-2.974-1.025-3.999c-0.684-1.025-1.729-1.997-3.135-2.915l-3.75-2.52c-0.82-0.546-1.534-1.113-2.139-1.699
		c-0.605-0.586-1.187-1.293-1.743-2.124c-0.557-0.83-0.986-1.806-1.289-2.93c-0.303-1.123-0.454-2.358-0.454-3.706
		c0-3.516,0.854-6.367,2.563-8.555C202.704,42.333,204.994,41.239,207.865,41.239z"/>
	<path fill="#FFFFFF" d="M230.18,41.239c3.672,0,6.533,1.338,8.584,4.014c0.195,0.254,0.293,0.557,0.293,0.908
		c0,0.684-0.289,1.406-0.864,2.168c-0.576,0.762-1.06,1.143-1.45,1.143c-0.117,0-0.205-0.039-0.264-0.117
		c-1.739-2.109-3.809-3.164-6.211-3.164c-1.348,0-2.432,0.571-3.252,1.714s-1.23,2.534-1.23,4.175c0,1.543,0.352,2.803,1.055,3.779
		c0.703,0.977,1.709,1.885,3.018,2.725l3.721,2.402c3.926,2.539,5.889,6.25,5.889,11.133c0,3.574-0.908,6.494-2.725,8.76
		c-1.816,2.266-4.258,3.398-7.324,3.398c-4.141,0-7.402-1.787-9.785-5.361c-0.117-0.176-0.176-0.4-0.176-0.674
		c0-0.684,0.278-1.431,0.835-2.241c0.557-0.81,1.088-1.216,1.597-1.216c0.195,0,0.371,0.088,0.527,0.264
		c2.187,2.793,4.521,4.189,7.002,4.189c1.523,0,2.714-0.59,3.574-1.772c0.859-1.182,1.289-2.681,1.289-4.497
		c0-1.641-0.342-2.974-1.025-3.999c-0.684-1.025-1.729-1.997-3.135-2.915l-3.75-2.52c-0.82-0.546-1.534-1.113-2.139-1.699
		c-0.605-0.586-1.187-1.293-1.743-2.124c-0.557-0.83-0.986-1.806-1.289-2.93c-0.303-1.123-0.454-2.358-0.454-3.706
		c0-3.516,0.854-6.367,2.563-8.555C225.019,42.333,227.309,41.239,230.18,41.239z"/>
	<path fill="#FFFFFF" d="M244.73,83.836c-0.254,0-0.444-0.098-0.571-0.293c-0.127-0.195-0.19-0.586-0.19-1.172V43.26
		c0-1.035,0.253-1.553,0.762-1.553h4.453c0.41,0,0.762,0.381,1.055,1.143l9.932,26.689c0.039,0.137,0.098,0.098,0.176-0.117
		l0.029-0.264V43.26c0-1.035,0.264-1.553,0.791-1.553h3.486c0.487,0,0.732,0.518,0.732,1.553v39.229
		c0,0.586-0.059,0.962-0.176,1.128c-0.117,0.166-0.304,0.249-0.557,0.249h-3.164c-0.195,0-0.406-0.117-0.631-0.352
		s-0.405-0.527-0.541-0.879l-11.045-28.828c-0.078-0.156-0.137-0.107-0.176,0.146c-0.02,0.059-0.029,0.127-0.029,0.205v28.213
		c0,0.586-0.063,0.977-0.19,1.172c-0.127,0.195-0.327,0.293-0.601,0.293H244.73z"/>
	<path fill="#FFFFFF" d="M270.326,83.836c-0.293,0-0.439-0.283-0.439-0.85v-0.498c0-0.253,0.01-0.42,0.029-0.498l6.592-38.818
		c0.156-0.938,0.517-1.425,1.084-1.465h5.947c0.546,0.04,0.897,0.527,1.055,1.465l6.475,38.818c0,0.059,0.014,0.166,0.043,0.322
		c0.029,0.157,0.049,0.293,0.059,0.41s0.016,0.215,0.016,0.293c0,0.547-0.166,0.82-0.498,0.82h-4.834
		c-0.469,0-0.772-0.4-0.908-1.201l-1.084-7.471c-0.059-0.429-0.166-0.645-0.322-0.645h-7.09c-0.137,0-0.245,0.225-0.322,0.674
		l-1.23,7.412c-0.078,0.488-0.176,0.816-0.293,0.981c-0.117,0.166-0.293,0.249-0.527,0.249H270.326z M277.299,70.858h5.977
		c0.136,0,0.205-0.176,0.205-0.527c0-0.117-0.02-0.205-0.059-0.264l-2.9-22.588c-0.02-0.136-0.049-0.205-0.088-0.205
		c-0.059,0-0.099,0.059-0.117,0.176l-3.428,22.588c-0.02,0.137-0.029,0.225-0.029,0.264
		C276.859,70.672,277.006,70.858,277.299,70.858z"/>
	<path fill="#FFFFFF" d="M296.156,83.836c-0.274,0-0.469-0.083-0.586-0.249c-0.117-0.166-0.176-0.542-0.176-1.128V43.084
		c0-0.586,0.059-0.962,0.176-1.128c0.117-0.166,0.312-0.249,0.586-0.249h4.248c0.273,0,0.469,0.083,0.586,0.249
		c0.117,0.166,0.176,0.542,0.176,1.128V58.67c0,0.176,0.033,0.333,0.102,0.469c0.068,0.137,0.133,0.205,0.191,0.205h8.789
		c0.059,0,0.127-0.073,0.205-0.22c0.077-0.146,0.117-0.308,0.117-0.483V43.084c0-0.566,0.063-0.938,0.189-1.113
		s0.318-0.264,0.572-0.264h4.307c0.253,0,0.439,0.083,0.557,0.249c0.117,0.166,0.176,0.542,0.176,1.128v39.375
		c0,0.586-0.059,0.962-0.176,1.128c-0.117,0.166-0.304,0.249-0.557,0.249h-4.307c-0.176,0-0.313-0.024-0.41-0.073
		c-0.099-0.048-0.187-0.18-0.264-0.396c-0.078-0.215-0.117-0.517-0.117-0.908v-17.9c0-0.41-0.107-0.615-0.322-0.615h-8.701
		c-0.195,0-0.293,0.205-0.293,0.615v17.9c0,0.567-0.064,0.938-0.191,1.113s-0.317,0.264-0.57,0.264H296.156z"/>
	<path fill="#FFFFFF" d="M322.865,83.836c-0.469,0-0.703-0.479-0.703-1.436v-0.146l1.318-38.877c0.019-1.074,0.264-1.63,0.732-1.67
		h4.629c0.293,0.02,0.537,0.117,0.732,0.293c0.194,0.176,0.341,0.538,0.439,1.084l4.951,27.715c0.019,0.078,0.053,0.137,0.102,0.176
		c0.049,0.04,0.098,0.04,0.146,0c0.049-0.039,0.074-0.098,0.074-0.176l4.98-27.627c0.176-0.938,0.557-1.425,1.143-1.465h4.688
		c0.469,0.04,0.703,0.596,0.703,1.67l1.377,38.877v0.176c0,0.938-0.245,1.406-0.732,1.406h-3.223c-0.469,0-0.723-0.527-0.762-1.582
		l-0.908-30.088c0-0.117-0.029-0.186-0.088-0.205c-0.059-0.019-0.099,0.01-0.117,0.088l-5.332,30.381
		c-0.157,0.938-0.488,1.406-0.996,1.406h-1.904c-0.469,0-0.802-0.469-0.996-1.406l-5.186-30.234
		c-0.02-0.117-0.059-0.136-0.117-0.059c-0.02,0.04-0.029,0.098-0.029,0.176l-0.938,29.941c0,1.055-0.225,1.582-0.674,1.582H322.865z
		"/>
	<path fill="#FFFFFF" d="M354.73,83.836c-0.254,0-0.439-0.073-0.557-0.22s-0.176-0.483-0.176-1.011V42.938
		c0-0.508,0.059-0.839,0.176-0.996c0.117-0.156,0.303-0.234,0.557-0.234h15.41c0.156,0,0.282,0.02,0.381,0.059
		c0.098,0.04,0.18,0.146,0.248,0.322s0.104,0.439,0.104,0.791v2.314c0,0.488-0.059,0.806-0.176,0.952s-0.304,0.22-0.557,0.22h-10.02
		c-0.234,0-0.352,0.322-0.352,0.967v11.836c0,0.176,0.033,0.352,0.102,0.527s0.133,0.264,0.191,0.264h8.057
		c0.487,0,0.732,0.45,0.732,1.348v2.256c0,0.898-0.245,1.348-0.732,1.348h-8.027c-0.078,0-0.152,0.098-0.221,0.293
		c-0.068,0.195-0.102,0.391-0.102,0.586v13.389h10.459c0.176,0,0.312,0.02,0.41,0.059c0.098,0.04,0.18,0.146,0.248,0.322
		s0.104,0.439,0.104,0.791v2.314c0,0.488-0.064,0.806-0.191,0.952s-0.317,0.22-0.57,0.22H354.73z"/>
	<path fill="#FFFFFF" d="M376.371,83.836c-0.254,0-0.445-0.098-0.572-0.293c-0.127-0.195-0.189-0.586-0.189-1.172V43.26
		c0-1.035,0.253-1.553,0.762-1.553h4.453c0.41,0,0.762,0.381,1.055,1.143l9.932,26.689c0.039,0.137,0.098,0.098,0.176-0.117
		l0.029-0.264V43.26c0-1.035,0.264-1.553,0.791-1.553h3.486c0.487,0,0.732,0.518,0.732,1.553v39.229
		c0,0.586-0.059,0.962-0.176,1.128c-0.117,0.166-0.304,0.249-0.557,0.249h-3.164c-0.195,0-0.406-0.117-0.631-0.352
		s-0.405-0.527-0.541-0.879l-11.045-28.828c-0.078-0.156-0.137-0.107-0.176,0.146c-0.02,0.059-0.029,0.127-0.029,0.205v28.213
		c0,0.586-0.064,0.977-0.191,1.172c-0.127,0.195-0.326,0.293-0.6,0.293H376.371z"/>
	<path fill="#FFFFFF" d="M410.394,83.836c-0.157,0-0.283-0.019-0.381-0.059c-0.099-0.039-0.181-0.146-0.249-0.322
		s-0.103-0.439-0.103-0.791v-1.758c0-0.684,0.156-1.513,0.469-2.49l9.141-31.055c0.077-0.156,0.117-0.332,0.117-0.527
		c0-0.312-0.069-0.469-0.205-0.469h-8.525c-0.176,0-0.308-0.019-0.396-0.059c-0.088-0.039-0.166-0.146-0.234-0.322
		s-0.103-0.439-0.103-0.791v-2.314c0-0.488,0.059-0.806,0.176-0.952s0.303-0.22,0.557-0.22h14.854c0.156,0,0.282,0.02,0.381,0.059
		c0.098,0.04,0.181,0.146,0.249,0.322s0.103,0.439,0.103,0.791v1.318c0,0.801-0.166,1.797-0.498,2.988l-9.258,31.113
		c-0.04,0.195-0.059,0.352-0.059,0.469c0,0.274,0.059,0.41,0.176,0.41h9.258c0.019,0,0.059,0,0.117,0
		c0.156,0,0.269,0.01,0.337,0.029c0.068,0.02,0.137,0.107,0.205,0.264c0.068,0.157,0.103,0.391,0.103,0.703v2.49
		c0,0.488-0.063,0.806-0.19,0.952s-0.318,0.22-0.571,0.22H410.394z"/>
	<path fill="#FFFFFF" d="M441.819,84.276c-1.055,0-1.963-0.044-2.725-0.132s-1.553-0.274-2.373-0.557s-1.514-0.678-2.08-1.187
		c-0.567-0.508-1.118-1.196-1.655-2.065c-0.537-0.869-0.963-1.919-1.274-3.149c-0.313-1.23-0.562-2.714-0.747-4.453
		c-0.186-1.738-0.278-3.73-0.278-5.977V43.084c0-0.566,0.063-0.938,0.19-1.113s0.317-0.264,0.571-0.264h4.307
		c0.156,0,0.282,0.025,0.381,0.073c0.098,0.049,0.181,0.181,0.249,0.396c0.068,0.215,0.103,0.518,0.103,0.908V66.58
		c0,2.305,0.068,4.238,0.205,5.801c0.136,1.563,0.332,2.823,0.586,3.779c0.253,0.957,0.61,1.685,1.069,2.183s0.941,0.831,1.45,0.996
		c0.508,0.166,1.172,0.249,1.992,0.249c1.035,0,1.835-0.117,2.402-0.352c0.566-0.234,1.084-0.791,1.553-1.67
		s0.786-2.187,0.952-3.926c0.166-1.738,0.249-4.091,0.249-7.061V43.084c0-0.586,0.059-0.962,0.176-1.128
		c0.117-0.166,0.303-0.249,0.557-0.249h4.336c0.156,0,0.278,0.025,0.366,0.073c0.088,0.049,0.166,0.181,0.234,0.396
		c0.068,0.215,0.103,0.518,0.103,0.908v23.672c0,2.266-0.093,4.282-0.278,6.05c-0.186,1.768-0.436,3.262-0.747,4.482
		c-0.313,1.221-0.737,2.261-1.274,3.12c-0.537,0.86-1.084,1.538-1.641,2.036s-1.24,0.889-2.051,1.172s-1.578,0.464-2.3,0.542
		C443.704,84.236,442.834,84.276,441.819,84.276z"/>
	<path fill="#FFFFFF" d="M458.802,83.836c-0.469,0-0.703-0.479-0.703-1.436v-0.146l1.318-38.877c0.019-1.074,0.264-1.63,0.732-1.67
		h4.629c0.293,0.02,0.537,0.117,0.732,0.293c0.194,0.176,0.341,0.538,0.439,1.084l4.951,27.715c0.019,0.078,0.054,0.137,0.103,0.176
		c0.049,0.04,0.098,0.04,0.146,0c0.049-0.039,0.073-0.098,0.073-0.176l4.98-27.627c0.176-0.938,0.557-1.425,1.143-1.465h4.688
		c0.469,0.04,0.703,0.596,0.703,1.67l1.377,38.877v0.176c0,0.938-0.245,1.406-0.732,1.406h-3.223c-0.469,0-0.723-0.527-0.762-1.582
		l-0.908-30.088c0-0.117-0.029-0.186-0.088-0.205c-0.059-0.019-0.099,0.01-0.117,0.088l-5.332,30.381
		c-0.157,0.938-0.488,1.406-0.996,1.406h-1.904c-0.469,0-0.802-0.469-0.996-1.406l-5.186-30.234
		c-0.02-0.117-0.059-0.136-0.117-0.059c-0.02,0.04-0.029,0.098-0.029,0.176l-0.938,29.941c0,1.055-0.225,1.582-0.674,1.582H458.802z
		"/>
	<path fill="#FFFFFF" d="M145.131,143.836c-0.488,0-0.732-0.527-0.732-1.582v-38.965c0-1.055,0.244-1.582,0.732-1.582h4.277
		c0.508,0,0.762,0.527,0.762,1.582v19.307l7.178-19.395c0.352-0.996,0.771-1.494,1.26-1.494h4.336c0.41,0,0.615,0.225,0.615,0.674
		c0,0.274-0.059,0.557-0.176,0.85l-7.09,18.047c-0.137,0.469-0.205,0.831-0.205,1.084c0,0.254,0.039,0.527,0.117,0.82l7.559,19.043
		c0.136,0.352,0.205,0.664,0.205,0.938c0,0.45-0.127,0.674-0.381,0.674h-4.277c-0.527,0-0.986-0.508-1.377-1.523l-7.734-18.34v18.34
		c0,1.016-0.264,1.523-0.791,1.523H145.131z"/>
	<path fill="#FFFFFF" d="M168.559,143.836c-0.254,0-0.439-0.083-0.557-0.249c-0.117-0.166-0.176-0.542-0.176-1.128v-39.375
		c0-0.586,0.059-0.962,0.176-1.128c0.117-0.166,0.303-0.249,0.557-0.249h4.307c0.253,0,0.439,0.083,0.557,0.249
		c0.117,0.166,0.176,0.542,0.176,1.128v35.449c0,0.43,0.136,0.645,0.41,0.645h7.617c0.253,0,0.439,0.069,0.557,0.205
		c0.117,0.137,0.176,0.45,0.176,0.938v2.344c0,0.488-0.059,0.806-0.176,0.952s-0.303,0.22-0.557,0.22H168.559z"/>
	<path fill="#FFFFFF" d="M187.299,143.836c-0.176,0-0.313-0.024-0.41-0.073c-0.098-0.048-0.181-0.18-0.249-0.396
		c-0.069-0.215-0.103-0.517-0.103-0.908v-39.375c0-0.566,0.063-0.938,0.19-1.113c0.127-0.176,0.317-0.264,0.571-0.264h4.307
		c0.156,0,0.283,0.025,0.381,0.073c0.098,0.049,0.18,0.181,0.249,0.396c0.068,0.215,0.103,0.518,0.103,0.908v39.375
		c0,0.567-0.059,0.938-0.176,1.113s-0.303,0.264-0.557,0.264H187.299z"/>
	<path fill="#FFFFFF" d="M198.832,143.836c-0.469,0-0.703-0.479-0.703-1.436v-0.146l1.318-38.877c0.019-1.074,0.264-1.63,0.732-1.67
		h4.629c0.293,0.02,0.537,0.117,0.732,0.293c0.195,0.176,0.341,0.538,0.439,1.084l4.951,27.715c0.019,0.078,0.054,0.137,0.103,0.176
		c0.048,0.04,0.098,0.04,0.146,0c0.048-0.039,0.073-0.098,0.073-0.176l4.98-27.627c0.176-0.938,0.557-1.425,1.143-1.465h4.688
		c0.469,0.04,0.703,0.596,0.703,1.67l1.377,38.877v0.176c0,0.938-0.245,1.406-0.732,1.406h-3.223c-0.469,0-0.723-0.527-0.762-1.582
		l-0.908-30.088c0-0.117-0.029-0.186-0.088-0.205c-0.059-0.019-0.098,0.01-0.117,0.088l-5.332,30.381
		c-0.157,0.938-0.488,1.406-0.996,1.406h-1.904c-0.469,0-0.801-0.469-0.996-1.406l-5.186-30.234
		c-0.02-0.117-0.059-0.136-0.117-0.059c-0.02,0.04-0.029,0.098-0.029,0.176l-0.938,29.941c0,1.055-0.225,1.582-0.674,1.582H198.832z
		"/>
	<path fill="#FFFFFF" d="M228.558,143.836c-0.293,0-0.439-0.283-0.439-0.85v-0.498c0-0.253,0.01-0.42,0.029-0.498l6.592-38.818
		c0.156-0.938,0.517-1.425,1.084-1.465h5.947c0.546,0.04,0.898,0.527,1.055,1.465l6.475,38.818c0,0.059,0.015,0.166,0.044,0.322
		c0.029,0.157,0.048,0.293,0.059,0.41c0.01,0.117,0.015,0.215,0.015,0.293c0,0.547-0.166,0.82-0.498,0.82h-4.834
		c-0.469,0-0.772-0.4-0.908-1.201l-1.084-7.471c-0.059-0.429-0.166-0.645-0.322-0.645h-7.09c-0.137,0-0.245,0.225-0.322,0.674
		l-1.23,7.412c-0.078,0.488-0.176,0.816-0.293,0.981c-0.117,0.166-0.293,0.249-0.527,0.249H228.558z M235.531,130.858h5.977
		c0.136,0,0.205-0.176,0.205-0.527c0-0.117-0.02-0.205-0.059-0.264l-2.9-22.588c-0.02-0.136-0.049-0.205-0.088-0.205
		c-0.059,0-0.098,0.059-0.117,0.176l-3.428,22.588c-0.02,0.137-0.029,0.225-0.029,0.264
		C235.091,130.672,235.238,130.858,235.531,130.858z"/>
	<path fill="#FFFFFF" d="M262.152,101.239c3.672,0,6.533,1.338,8.584,4.014c0.194,0.254,0.293,0.557,0.293,0.908
		c0,0.684-0.289,1.406-0.865,2.168s-1.059,1.143-1.449,1.143c-0.117,0-0.205-0.039-0.264-0.117
		c-1.739-2.109-3.809-3.164-6.211-3.164c-1.348,0-2.432,0.571-3.252,1.714s-1.23,2.534-1.23,4.175c0,1.543,0.352,2.803,1.055,3.779
		c0.703,0.977,1.709,1.885,3.018,2.725l3.721,2.402c3.926,2.539,5.889,6.25,5.889,11.133c0,3.574-0.908,6.494-2.725,8.76
		c-1.816,2.266-4.259,3.398-7.324,3.398c-4.142,0-7.402-1.787-9.785-5.361c-0.117-0.176-0.176-0.4-0.176-0.674
		c0-0.684,0.277-1.431,0.834-2.241c0.557-0.81,1.089-1.216,1.598-1.216c0.194,0,0.37,0.088,0.527,0.264
		c2.187,2.793,4.521,4.189,7.002,4.189c1.523,0,2.714-0.59,3.574-1.772c0.859-1.182,1.289-2.681,1.289-4.497
		c0-1.641-0.342-2.974-1.025-3.999c-0.685-1.025-1.729-1.997-3.135-2.915l-3.75-2.52c-0.82-0.546-1.534-1.113-2.139-1.699
		c-0.605-0.586-1.188-1.293-1.744-2.124c-0.557-0.83-0.986-1.806-1.289-2.93c-0.303-1.123-0.453-2.358-0.453-3.706
		c0-3.516,0.854-6.367,2.563-8.555C256.99,102.333,259.281,101.239,262.152,101.239z"/>
	<path fill="#FFFFFF" d="M287.016,144.276c-1.016,0-1.9-0.049-2.652-0.146c-0.752-0.098-1.566-0.317-2.445-0.659
		c-0.879-0.341-1.627-0.815-2.242-1.421c-0.615-0.605-1.23-1.445-1.846-2.52c-0.615-1.074-1.108-2.358-1.479-3.853
		c-0.371-1.494-0.674-3.33-0.908-5.508c-0.234-2.178-0.352-4.653-0.352-7.427c0-3.75,0.229-6.973,0.688-9.668
		s1.041-4.794,1.744-6.299c0.703-1.504,1.615-2.685,2.738-3.545c1.123-0.859,2.197-1.406,3.223-1.641s2.252-0.352,3.678-0.352
		c1.816,0,3.311,0.274,4.482,0.82c0.019,0.02,0.048,0.044,0.088,0.073c0.039,0.029,0.072,0.059,0.102,0.088s0.055,0.078,0.074,0.146
		c0.019,0.069,0.029,0.151,0.029,0.249v3.545c0,0.274-0.069,0.41-0.205,0.41c-0.02,0-0.094-0.019-0.221-0.059
		c-0.127-0.039-0.307-0.088-0.541-0.146s-0.488-0.117-0.762-0.176c-0.274-0.059-0.592-0.107-0.953-0.146
		c-0.361-0.039-0.717-0.059-1.068-0.059c-0.919,0-1.699,0.103-2.344,0.308s-1.3,0.645-1.963,1.318
		c-0.664,0.674-1.201,1.607-1.611,2.798c-0.41,1.191-0.743,2.823-0.996,4.893c-0.254,2.07-0.381,4.551-0.381,7.441
		c0,2.949,0.111,5.459,0.336,7.529c0.225,2.07,0.514,3.706,0.865,4.907s0.839,2.134,1.465,2.798
		c0.625,0.664,1.249,1.094,1.875,1.289c0.625,0.195,1.406,0.293,2.344,0.293c1.387,0,2.617-0.186,3.691-0.557
		c0.019,0,0.063,0.098,0.131,0.293c0.068,0.195,0.104,0.303,0.104,0.322v3.369c0,0.02-0.035,0.122-0.104,0.308
		c-0.068,0.186-0.112,0.289-0.131,0.308C290.277,144.051,288.792,144.276,287.016,144.276z"/>
	<path fill="#FFFFFF" d="M297.289,143.836c-0.274,0-0.469-0.083-0.586-0.249c-0.117-0.166-0.176-0.542-0.176-1.128v-39.375
		c0-0.586,0.059-0.962,0.176-1.128c0.117-0.166,0.312-0.249,0.586-0.249h4.248c0.273,0,0.469,0.083,0.586,0.249
		c0.117,0.166,0.176,0.542,0.176,1.128v15.586c0,0.176,0.033,0.333,0.102,0.469c0.068,0.137,0.133,0.205,0.191,0.205h8.789
		c0.059,0,0.127-0.073,0.205-0.22c0.077-0.146,0.117-0.308,0.117-0.483v-15.557c0-0.566,0.063-0.938,0.189-1.113
		s0.318-0.264,0.572-0.264h4.307c0.253,0,0.439,0.083,0.557,0.249c0.117,0.166,0.176,0.542,0.176,1.128v39.375
		c0,0.586-0.059,0.962-0.176,1.128c-0.117,0.166-0.304,0.249-0.557,0.249h-4.307c-0.176,0-0.313-0.024-0.41-0.073
		c-0.099-0.048-0.187-0.18-0.264-0.396c-0.078-0.215-0.117-0.517-0.117-0.908v-17.9c0-0.41-0.107-0.615-0.322-0.615h-8.701
		c-0.195,0-0.293,0.205-0.293,0.615v17.9c0,0.567-0.064,0.938-0.191,1.113s-0.317,0.264-0.57,0.264H297.289z"/>
	<path fill="#FFFFFF" d="M334.516,144.276c-1.055,0-1.963-0.044-2.725-0.132s-1.553-0.274-2.373-0.557s-1.514-0.678-2.08-1.187
		c-0.567-0.508-1.119-1.196-1.656-2.065c-0.537-0.869-0.962-1.919-1.273-3.149c-0.313-1.23-0.563-2.714-0.748-4.453
		c-0.186-1.738-0.277-3.73-0.277-5.977v-23.672c0-0.566,0.063-0.938,0.189-1.113s0.318-0.264,0.572-0.264h4.307
		c0.156,0,0.282,0.025,0.381,0.073c0.098,0.049,0.18,0.181,0.248,0.396c0.068,0.215,0.104,0.518,0.104,0.908v23.496
		c0,2.305,0.068,4.238,0.205,5.801c0.136,1.563,0.332,2.823,0.586,3.779c0.253,0.957,0.609,1.685,1.068,2.183
		s0.942,0.831,1.451,0.996c0.508,0.166,1.172,0.249,1.992,0.249c1.035,0,1.835-0.117,2.402-0.352
		c0.566-0.234,1.084-0.791,1.553-1.67s0.785-2.187,0.951-3.926c0.166-1.738,0.25-4.091,0.25-7.061v-23.496
		c0-0.586,0.059-0.962,0.176-1.128c0.117-0.166,0.303-0.249,0.557-0.249h4.336c0.156,0,0.277,0.025,0.365,0.073
		c0.088,0.049,0.166,0.181,0.234,0.396c0.068,0.215,0.104,0.518,0.104,0.908v23.672c0,2.266-0.094,4.282-0.279,6.05
		c-0.186,1.768-0.435,3.262-0.746,4.482c-0.313,1.221-0.738,2.261-1.275,3.12c-0.537,0.86-1.084,1.538-1.641,2.036
		s-1.24,0.889-2.051,1.172s-1.577,0.464-2.299,0.542C336.4,144.236,335.53,144.276,334.516,144.276z"/>
	<path fill="#FFFFFF" d="M355.57,143.836c-0.234,0-0.416-0.092-0.543-0.278c-0.127-0.186-0.189-0.561-0.189-1.128v-35.273
		c0-0.488-0.107-0.732-0.322-0.732h-5.098c-0.195,0-0.338-0.015-0.426-0.044s-0.166-0.127-0.234-0.293
		c-0.068-0.166-0.102-0.425-0.102-0.776v-2.314c0-0.527,0.059-0.874,0.176-1.04c0.117-0.166,0.312-0.249,0.586-0.249h16.553
		c0.253,0,0.439,0.083,0.557,0.249c0.117,0.166,0.176,0.513,0.176,1.04v2.314c0,0.488-0.055,0.796-0.162,0.923
		c-0.107,0.127-0.297,0.19-0.57,0.19h-5.01c-0.216,0-0.322,0.245-0.322,0.732v35.273c0,0.586-0.064,0.967-0.191,1.143
		s-0.317,0.264-0.57,0.264H355.57z"/>
	<path fill="#FFFFFF" d="M370.12,143.836c-0.157,0-0.283-0.019-0.381-0.059c-0.099-0.039-0.181-0.146-0.249-0.322
		s-0.103-0.439-0.103-0.791v-1.758c0-0.684,0.156-1.513,0.469-2.49l9.141-31.055c0.077-0.156,0.117-0.332,0.117-0.527
		c0-0.312-0.069-0.469-0.205-0.469h-8.525c-0.176,0-0.308-0.019-0.396-0.059c-0.088-0.039-0.166-0.146-0.234-0.322
		s-0.103-0.439-0.103-0.791v-2.314c0-0.488,0.059-0.806,0.176-0.952s0.303-0.22,0.557-0.22h14.854c0.156,0,0.282,0.02,0.381,0.059
		c0.098,0.04,0.181,0.146,0.249,0.322s0.103,0.439,0.103,0.791v1.318c0,0.801-0.166,1.797-0.498,2.988l-9.258,31.113
		c-0.04,0.195-0.059,0.352-0.059,0.469c0,0.274,0.059,0.41,0.176,0.41h9.258c0.019,0,0.059,0,0.117,0
		c0.156,0,0.269,0.01,0.337,0.029c0.068,0.02,0.137,0.107,0.205,0.264c0.068,0.157,0.103,0.391,0.103,0.703v2.49
		c0,0.488-0.063,0.806-0.19,0.952s-0.318,0.22-0.571,0.22H370.12z"/>
</g>
</svg>
