<?xml version="1.0" encoding="UTF-8" standalone="no"?>
<svg
   xmlns:dc="http://purl.org/dc/elements/1.1/"
   xmlns:cc="http://creativecommons.org/ns#"
   xmlns:rdf="http://www.w3.org/1999/02/22-rdf-syntax-ns#"
   xmlns:svg="http://www.w3.org/2000/svg"
   xmlns="http://www.w3.org/2000/svg"
   viewBox="0 0 375 375"
   height="375"
   width="375"
   xml:space="preserve"
   version="1.1"
   id="svg2"><metadata
     id="metadata8"><rdf:RDF><cc:Work
         rdf:about=""><dc:format>image/svg+xml</dc:format><dc:type
           rdf:resource="http://purl.org/dc/dcmitype/StillImage" /></cc:Work></rdf:RDF></metadata><defs
     id="defs6" /><g
     transform="matrix(1.25,0,0,-1.25,0,375)"
     id="g10"><g
       transform="scale(0.1,0.1)"
       id="g12"><path
         id="path14"
         style="fill:#aebcc4;fill-opacity:1;fill-rule:nonzero;stroke:none"
         d="m 3000,529.855 c 0,-67.632 0,-529.85109375 -715,-529.85109375 l -1625,0 C 35,0.00390625 0,472.223 0,539.855 L 0,2399.86 c 0,545 592.352,600 660,600 l 1615,0.28 c 67.65,0 725,-0.28 725,-600.28" /><path
         id="path16"
         style="fill:#080828;fill-opacity:1;fill-rule:nonzero;stroke:none"
         d="m 759.859,524.297 c 0.954,5.281 1.922,13.906 1.922,24.953 0,51.344 -24.953,113.734 -100.781,113.734 -74.859,0 -114.203,-60.953 -114.203,-125.734 0,-71.5 44.625,-118.047 120.453,-118.047 33.578,0 61.422,6.235 81.578,14.391 l -8.64,40.797 c -17.75,-6.719 -37.438,-10.563 -64.782,-10.563 -37.437,0 -70.547,18.235 -71.984,60.469 l 156.437,0 z m -156.437,41.266 c 2.391,24 17.75,57.109 54.219,57.109 39.359,0 48.953,-35.516 48.468,-57.109 l -102.687,0" /><path
         id="path18"
         style="fill:#080828;fill-opacity:1;fill-rule:nonzero;stroke:none"
         d="M 779.844,657.703 865.25,443.188 c 2.891,-5.75 3.359,-9.11 3.359,-11.516 0,-2.875 -1.437,-6.234 -3.828,-10.547 -8.156,-15.844 -21.125,-29.75 -32.156,-36.953 -12,-8.641 -24.469,-13.922 -34.547,-16.313 l 13.438,-49.906 c 14.875,1.922 38.859,9.594 61.906,30.235 27.828,23.984 49.422,62.859 81.578,150.187 l 58.53,159.328 -63.342,0 -36.469,-124.765 c -4.313,-15.36 -8.625,-32.641 -12.469,-46.079 l -1.437,0 c -3.36,13.438 -8.157,31.204 -12.969,45.594 l -42.219,125.25 -64.781,0" /><path
         id="path20"
         style="fill:#080828;fill-opacity:1;fill-rule:nonzero;stroke:none"
         d="m 1239.86,524.297 c 0.95,5.281 1.92,13.906 1.92,24.953 0,51.344 -24.95,113.734 -100.78,113.734 -74.86,0 -114.2,-60.953 -114.2,-125.734 0,-71.5 44.62,-118.047 120.45,-118.047 33.58,0 61.42,6.235 81.58,14.391 l -8.64,40.797 c -17.75,-6.719 -37.44,-10.563 -64.78,-10.563 -37.44,0 -70.55,18.235 -71.99,60.469 l 156.44,0 z m -156.44,41.266 c 2.39,24 17.75,57.109 54.22,57.109 39.36,0 48.95,-35.516 48.47,-57.109 l -102.69,0" /><path
         id="path22"
         style="fill:#080828;fill-opacity:1;fill-rule:nonzero;stroke:none"
         d="m 1286.39,531.484 122.375,0 0,40.7969 -122.375,0 0,-40.7969 z" /><path
         id="path24"
         style="fill:#080828;fill-opacity:1;fill-rule:nonzero;stroke:none"
         d="m 1454.67,424 59.5,0 0,340.719 -59.5,0 0,-340.719 z" /><path
         id="path26"
         style="fill:#080828;fill-opacity:1;fill-rule:nonzero;stroke:none"
         d="m 1775.86,524.297 c 0.95,5.281 1.92,13.906 1.92,24.953 0,51.344 -24.95,113.734 -100.78,113.734 -74.86,0 -114.2,-60.953 -114.2,-125.734 0,-71.5 44.62,-118.047 120.45,-118.047 33.58,0 61.42,6.235 81.58,14.391 l -8.64,40.797 c -17.75,-6.719 -37.44,-10.563 -64.78,-10.563 -37.44,0 -70.55,18.235 -71.99,60.469 l 156.44,0 z m -156.44,41.266 c 2.39,24 17.75,57.109 54.22,57.109 39.36,0 48.95,-35.516 48.47,-57.109 l -102.69,0" /><path
         id="path28"
         style="fill:#080828;fill-opacity:1;fill-rule:nonzero;stroke:none"
         d="M 1797.28,657.703 1884.14,424 l 58.06,0 89.25,233.703 -62.37,0 -36.95,-118.531 c -6.24,-21.109 -11.52,-39.359 -15.85,-58.547 l -1.44,0 c -4.31,19.188 -9.11,37.906 -15.82,58.547 l -37.91,118.531 -63.83,0" /><path
         id="path30"
         style="fill:#080828;fill-opacity:1;fill-rule:nonzero;stroke:none"
         d="m 2259.86,524.297 c 0.95,5.281 1.92,13.906 1.92,24.953 0,51.344 -24.95,113.734 -100.78,113.734 -74.86,0 -114.2,-60.953 -114.2,-125.734 0,-71.5 44.62,-118.047 120.45,-118.047 33.58,0 61.42,6.235 81.58,14.391 l -8.64,40.797 c -17.75,-6.719 -37.44,-10.563 -64.78,-10.563 -37.44,0 -70.55,18.235 -71.99,60.469 l 156.44,0 z m -156.44,41.266 c 2.39,24 17.75,57.109 54.22,57.109 39.36,0 48.95,-35.516 48.47,-57.109 l -102.69,0" /><path
         id="path32"
         style="fill:#080828;fill-opacity:1;fill-rule:nonzero;stroke:none"
         d="m 2309.67,424 59.5,0 0,340.719 -59.5,0 0,-340.719 z" /><path
         id="path34"
         style="fill:#080828;fill-opacity:1;fill-rule:nonzero;stroke:none"
         d="m 1662.74,2708.25 -0.36,-255 c 0,0 -68.59,26.02 -96.92,63.24 l -36.3,-0.07 -73.42,-65.74 c 0,0 -16.06,-25.23 -80.43,-19.33 l -304.59,-0.8 c 0,0 -73.466,-0.93 -82.884,89.37 l -0.363,145.4 c 0,0 16.667,66.43 85.517,73.69 l 299.99,0.77 c 0,0 59.7,0.68 79.65,-20.73 l 76.68,-69.59 36.76,0.08 c 0,0 20.13,37.37 96.67,58.71" /><path
         id="path36"
         style="fill:#ffffff;fill-opacity:1;fill-rule:evenodd;stroke:none"
         d="m 2106.68,946.73 c -0.95,31.329 30.21,47.758 58.49,53.18 52.67,10.06 84.62,47.7 84.82,101.3 0.18,50.16 0.48,100.33 -0.1,150.49 -0.47,39.6 -2.42,40.94 -41.81,40.92 l -110.41,0 c -1.49,22.07 -3.75,44.03 -4.28,66.03 -2.07,83.04 -3.71,166.06 -5.21,249.1 -0.46,25.67 18.64,44.18 44.11,44.73 12.68,0.26 25.34,1.87 43.86,3.33 -6.07,25.4 -10.37,49.02 -18.12,71.44 -1.87,5.38 -15.29,6.77 -25.51,10.83 -2.11,9.49 -4.79,21.63 -7.64,34.47 l -37.58,0 c 1.99,34.91 2.58,68.89 6.11,102.56 6.53,62.33 14.7,124.48 22.38,186.69 9.41,76.27 17.9,152.68 29.44,228.64 2.51,16.49 14.43,32.79 25.41,46.42 13.24,16.41 27.14,30.55 22.66,54.5 -1.17,6.29 5.97,13.87 8.33,21.17 4.03,12.38 9.44,24.86 10.33,37.56 1.06,15.29 -6.25,23.94 -24.65,23.14 -30.84,-1.35 -31.73,2.36 -38.54,33.61 -3.38,15.48 -14,29.27 -20.24,44.3 -2.22,5.33 -2.22,12.16 -1.41,18.06 4.19,30.45 14.27,60.76 17.86,91.28 0.66,5.57 -8.69,12.36 -12.19,17.71 -15.65,23.88 -9.79,42.04 17.44,48.36 36.72,8.52 73.57,16.64 110.69,23.07 23.38,4.06 41.63,-9.26 55.89,-25.73 44.21,-51.1 57.46,-108.13 26.81,-170.86 -10.54,-21.57 -9.23,-39.28 7.65,-56.12 9.58,-9.56 18.17,-20.23 28.38,-29.03 78.45,-67.55 96.98,-154.58 82.8,-252.37 -10.8,-74.58 -23.99,-148.15 -17.74,-225 6.52,-80.75 1.45,-162.43 1.45,-245.66 -12.63,-0.89 -24.12,-1.71 -38.84,-2.75 1.98,-27.65 3.89,-54.22 6.09,-85.03 10.15,0 19.27,-0.02 28.38,0 35.95,0.04 71.9,0.06 107.86,0.11 31.87,0.06 50.03,-17.71 50.51,-48.54 1.42,-92.64 3.14,-185.27 4.7,-277.9 0.16,-8.6 0.03,-17.23 0.03,-27.34 -53.31,-2.53 -104.78,-4.99 -157.8,-7.51 1.51,-16.42 4.35,-31.98 4.1,-47.52 -1.01,-66.83 -2.41,-133.65 -5.23,-200.41 -0.37,-8.48 -10.05,-16.55 -20,-23.04 1.92,-12.48 4.12,-24.91 5.7,-37.42 3.7,-29.242 -4.46,-42.23 -33.17,-44.281 -30.11,-2.149 -60.55,0.789 -90.78,-0.281 -14.82,-0.528 -29.4,-5.79 -44.23,-7.77 -53.43,-7.051 -105.35,2.461 -156.8,11.562" /><path
         id="path38"
         style="fill:#c1272d;fill-opacity:1;fill-rule:nonzero;stroke:none"
         d="m 1756.85,2610.32 202.5,2.99 -1.15,50.98 c 0.64,0.64 2.3,0.08 2.96,-0.52 l 76.34,-68.03 c 0.64,-0.61 0.64,-1.61 0.04,-2.24 l -73.24,-71.34 c -0.61,-0.64 -2.28,-0.09 -2.95,0.5 l -1.05,46.96 -202.5,-3" /></g></g></svg>