<?xml version="1.0" encoding="utf-8"?>
<!-- Generator: Adobe Illustrator 22.0.1, SVG Export Plug-In . SVG Version: 6.00 Build 0)  -->
<svg version="1.1" id="Ebene_1" xmlns="http://www.w3.org/2000/svg" xmlns:xlink="http://www.w3.org/1999/xlink" x="0px" y="0px"
	 viewBox="0 0 300.5 300.5" style="enable-background:new 0 0 300.5 300.5;" xml:space="preserve">
<style type="text/css">
	.st0{fill:#EACD99;}
	.st1{fill:url(#SVGID_1_);}
	.st2{fill:#FFFFFF;}
	.st3{fill:#C1272D;}
	.st4{fill:#030303;stroke:#FFFFFF;stroke-width:0.3317;stroke-miterlimit:10;}
	.st5{enable-background:new    ;}
	.st6{fill:#3A3326;}
</style>
<path class="st0" d="M238.2,300.5H62.4c-34.3,0-62.4-28-62.4-62.3V62.4C0,28.1,28.1,0,62.4,0h175.8c34.3,0,62.4,28.1,62.4,62.4
	v175.8C300.5,272.5,272.5,300.5,238.2,300.5z"/>
<g>
	<g>
		<g>
			
				<linearGradient id="SVGID_1_" gradientUnits="userSpaceOnUse" x1="253.3667" y1="183.4084" x2="252.7872" y2="288.1278" gradientTransform="matrix(1 0 0 -1 0 302)">
				<stop  offset="0" style="stop-color:#585857;stop-opacity:0.5"/>
				<stop  offset="0.2081" style="stop-color:#262624;stop-opacity:0.7"/>
				<stop  offset="0.5324" style="stop-color:#1E1E1C;stop-opacity:0.9854"/>
				<stop  offset="0.8784" style="stop-color:#1D1D1B;stop-opacity:0.9982"/>
				<stop  offset="1" style="stop-color:#000000"/>
			</linearGradient>
			<path class="st1" d="M253,13.8c-1.8,0-4.5,0.8-5.4,4.4c-0.9,3.7-2.1,4.4-3.1,4.5c-0.9,0.2-4.7,1.7-5,3.2s-0.5,2.7-1.2,3.2
				s0.9,0.7,0.3,1.1s0.7,1.1-1,2s-2.1,2-2.3,2.7c-0.3,0.7,0.4-0.8,1.3-1s1.3-0.3,1.3-0.3s0.5,1.1-0.1,1.5c-0.7,0.3-1.7,1-2.3,1.7
				s-0.5,1.1-1.1,1.4s-2.3,0.8-1.8,1c0.5,0.3,1.3-0.1,1.3-0.1s0.1,1.1-0.9,1.6c-0.9,0.5-1,1.2-0.5,1s1.8-1.4,1.7-0.8
				c-0.1,0.6,0,1.5-0.7,1.7c-0.7,0.3-1.4-0.4-1.3,0.7s-0.3,1.7,0,1.8s0.2,0.8,0.1,1.1c-0.1,0.3-0.7,0.6-0.6,1.2
				c0.1,0.6,0.8,0.8,0.1,1.3s-3.1,1.3-3.1,1.8s0.2,0.9-0.2,1s-0.9-0.2-1.1,0.4s-1.5,1.1-0.8,1.4c0.7,0.3,0.7-1.4,1.4-1.4
				s1.2,0,1.3,0.2s0.2,1-0.3,1.4c-0.5,0.3-1.3,0.4-0.9,0.7s2.3-0.9,2.3-0.9c0.4,0.7-3.1,2.2-3.4,3c-0.3,0.8,0.3,0.8,0.4,1.3
				c0.1,0.5-1.2,0.9-1.2,0.9c-0.1,0.4,1.5-0.1,1.5-0.1c0.2,0.7-1.1,1.7-1,2s2-2.4,2.7-1.9s1.6,1,1.1,1.7s-1.6,4.6-1.8,5.8
				s-0.5,2.7-1.3,3.7c-0.9,1-4.1,3.3-4.1,3.4c-0.1,0.2-0.5,1-0.5,1.2s-0.1,0.9,0.4,0.9s0.3-0.8,0.3-0.9c0-0.2,0.3-1,0.5-1.1
				s0.9-0.5,1.1-0.2c0.1,0.3,0,1.2,0.3,1.6s1.3,1,1.5,0.8c0.2-0.3-0.7-0.8-0.9-1.1c-0.1-0.3-0.1-1.7,0.4-1.9s-0.2,0.3,0.2,1
				s0.9,0.8,1.2,0.9c0.3,0.2,1.8,0.1,1.3-0.2c-0.5-0.3-1.3-0.1-1.5-0.6c-0.3-0.5-0.7-1.3-0.2-1.1c0.5,0.1,0.9,0.8,1.3,0.8
				s-0.7-0.6-0.3-1.1c0.3-0.5,1.1-1.5,2.4-1.1c1.3,0.4,1,2.9,1.6,2.5s0.7-1.1,0.4-2.1s-1.5-0.8-1.5-2.2c0-1.4-0.5-0.9,0.2-2.6
				s3.7-7.2,5.1-8.3s0.9,0.4,2-1.3s0.1-5,1.3-4.5c1.2,0.4,2,3.3,1.1,5.8s-1.5,3.7-0.8,4.8s1.8,1.8-0.1,2.9s-3.1,1.4-3.1,2.5
				s0.4,0.2,0.7-0.2c0.3-0.4,1.5-1.3,1.5-0.8s-0.9,2.6-2.2,3.3s-2,0.6-1.7,0.9s3.8-2.9,4.3-2.1c0.5,0.9,1.1,1.6-0.4,2.7
				s-4.1,0.6-4.5,3.5c-0.5,3.4-4.4,4.6-6,5s-2.4,0.9-1.3,0.9s6.4-2.3,7.7-1.9c1.6,0.5,1.1,1.8-0.3,3s-5.4,1-5.3,2.6
				c0.1,1.5,3.1,3.8,3,5.2c-0.1,1.4-0.7,4.2,0.4,4.9s2.1,3-0.2,3.6c-2.3,0.7-9.3-0.3-10.4,1c-1.1,1.3-2.8,2-1.5,2.7
				c0.5,0.3,1.3-2,2.5-2.2c2.1-0.4,8-0.6,10.3,0.8s-0.4,0.5-0.9,2.5s-4,2.4-5.6,4s-0.9,3.3,0.7,1.6c1.6-1.6,3.6-3.6,5.2-3.7
				c1.6-0.1,2,0.2,3.7-1.4s0.9-1.6,2.4-2.3c1.5-0.7,2.5,0.2,0.1,2.7c-3,3.2-8.2,4.9-6.9,6.3c1.3,1.3,3.2-2.3,4.9-3.3s4.1-2,4.5-1.6
				c0.7,0.7-4.9,3.2-5.7,5.3c-0.7,1.7,0.1,3,1.8,4.6s1.9,2.4,5.8,4.2c2.2,1-0.6,2.9-0.3,4.2c0.1,0.7,2.4-1.2,2.6-2.3
				c0.5-2.3-1.1-3.6-3.5-5.6c-4.5-3.7,0-5.7,2.4-3.2s2.7,9.4,1.4,10.9s-5.1,0.9-5.3,3.5c-0.1,1.2-1.2,2.2-0.7,2.8s1.7-1.2,2.4-2.7
				s4.2-0.2,5.7-2.7c1.6-2.5,1.1-7.5,2.8-8.5c1.7-1.1,0.6,2.1,3,2.9s4.3-1.4,4.1-2.3c-0.3-0.9-2,1.7-3.2,0.3
				c-1.2-1.4,0.5-2.2,0.7-3.9s-0.8-1.7-0.7-2.3c0.4-1.4,1.8,0.6,2-1.4c0.2-1.9-2.7-2.8-1.2-4.3c1.7-1.6,2.5-0.2,4.7-2.1
				c2.4-2.1,3.4-5.2,2.9-8s-1.4-4.2,0.8-4.3c-0.3,0-0.5,4.6,2.7,2.3c1.5-1.1-1.1-5.6-0.3-6.1c0.8-0.5,1.9,1,2.8,0.1
				s-2.9-1.7-1.6-4.4s2.5-4.5,0.9-5.2c-1.6-0.8-4.1,0.2-3.1-1c1.1-1.2,1.9-0.7,1.6-1.4c-0.2-0.7-1-0.6-0.6-1s1.6-0.7,1.6-1
				c0-0.4-1.3-0.3-1.5-0.8s0.6-1.1,0.2-1.6s-1.4-0.6-1-1.1s1.6,0.8,2,0.6s0.3-1-0.6-1.7c-1-0.7-1.6-0.5-1.4-1.1
				c0.1-0.6,0.9,0.3,1-0.2s-1.4-1.1-0.8-1.5c0.6-0.3,1.4,0.5,1.6,0s-1.7-0.3-1.7-1s1.3,0.6,1.1-0.7c-0.2-1.3-0.2-2-1.4-2.8
				s-1.8-2.6-1.8-3.8s-0.5-4.7-0.1-5.3s1.8-3.1,2.2-2.6s3.2,5.7,4.7,7.2c1.5,1.4,6.8,6.9,7,7.6s0.3,2.3,0.3,3s-2.2,1.8-2.1,3.2
				c0.1,1.4,0.5,2.4,0.7,2s-0.2-1.4,0.2-1.8s1.3-1.3,2-0.7s0.9,1.3,0.4,2s-1.3,1.1-0.9,1.3c0.4,0.2,2.3-2.3,2.5-1.9
				c0.1,0.4,0.2,1.4-0.2,1.6s-1.3,1-1.2,1.3s1.3-0.6,1.6-0.9c0.3-0.3,0.6-1.3,0.8-1.3c0.2,0.1,0,1.1-0.4,1.6
				c-0.4,0.4-1.7,1.2-1.2,1.4c0.6,0.1,2.5-1,2.7-1.5s-0.1-1.9,0.4-1.9s1.8,0.8,2,1.4s-0.3,1.8,0.2,1.6c0.6-0.2,0.7-1.7,0.4-2.4
				c-0.4-0.7-2.5-2-2.9-3.1s-0.6-2-1-3.1s-2.9-5.1-3.2-5.8s-0.1-2.3-0.1-2.4s1.3,0.5,1.4,0.1c0.2-0.4-1.5-1.7-1-1.5
				c0.5,0.1,2.7,2.6,2.6,2.1c0-0.5-2.9-2.4-3.3-3.3c-0.4-0.9,0.6,0.4,1.3,0.4c0.7,0-2.1-3.5-2.2-4.1c0-0.6,0.4,0.1-0.4-1.2
				s-2.2-2.3-1.6-2.2s2.5,2.5,2.9,2.2c0.5-0.3-2.5-2.2-2.2-2.4s1.8,0,1.2-0.3c-0.7-0.3-1.6,0.3-1.8-0.1c-0.2-0.5,0.2-0.5,0.8-0.7
				c0.5-0.2,0-0.1-0.4-0.6c-0.5-0.5,0.3-0.2,0.1-1c-0.2-0.7-2.3-1.3-2.7-2.3c-0.3-0.9-0.2-3.1-0.2-4c0-1-1.9-1-1.7-1.7
				c0.1-0.8,1.2-0.4,0.8-2c-0.4-1.5-1.9-1.9-1.7-2.2c0.1-0.3,2.9,2.4,3.1,1.3c0.1-1.1-1.1-2-2.8-2.8s-1.7-1.3-2.8-3.1
				c-1.1-1.7-1.9-1.5-3.2-3.5s-4.7-3.1-5.1-3.6s-0.4-2.5-1.3-4C257,16,255.7,13.8,253,13.8z"/>
		</g>
	</g>
	<g>
		<g>
			<g>
				<g>
					<path class="st2" d="M252.3,15.6c2.6-0.1,5.4,1.5,5,5.6c0,0.5-0.2,0.9-0.2,1.4c0,0.4-0.1,0.8-0.1,1.1c0,1.3-0.4,1.8-1.6,1.9
						c-0.5,0-0.6,0.2-0.6,0.7c0,0.3-0.1,0.6-0.4,0.7c-0.3-0.3-0.3-0.3-0.5,0.1c0,0.1-0.1,0.1-0.2,0.2c-0.2,0.1-0.3,0.1-0.5,0.1
						c-0.2-0.4-0.2-0.4-0.5-0.1c0,0-0.1,0.1-0.1,0c-0.3-0.1-0.6,0.1-0.7-0.4c0-0.2-0.2-0.2-0.4,0.1c-0.3-0.1-0.4-0.3-0.4-0.7
						c0-0.5-0.2-0.7-0.6-0.7c-0.2,0-0.4,0-0.6-0.1c-0.6-0.2-1-0.6-1-1.2c0.1-1.1-0.3-2.1-0.4-3.2c-0.1-1.5,0.1-2.9,1-4
						C249.5,17.1,250.7,15.7,252.3,15.6z M249.4,22.7L249.4,22.7c0,0.4,0.1,0.7,0.2,1.1c0.1,0.4,0.3,0.6,0.7,0.6
						c0.7,0,1.3-0.2,1.8-0.7c0.3-0.3,0.2-0.9-0.3-0.9c-0.6,0-1-0.4-1.5-0.7c-0.4-0.3-0.7-0.2-0.9,0.3
						C249.4,22.5,249.4,22.6,249.4,22.7z M256.4,22.8L256.4,22.8c0-0.1,0-0.1,0-0.2c0-0.3-0.1-0.6-0.4-0.7c-0.2-0.2-0.4,0.1-0.6,0.2
						c-0.1,0.1-0.1,0.1-0.2,0.2c-0.3,0.2-0.7,0.4-1,0.5s-0.5,0.1-0.6,0.4s0.1,0.6,0.3,0.7c0.4,0.2,0.9,0.4,1.4,0.6
						c0.5,0.1,0.9-0.2,1-0.7C256.3,23.4,256.3,23.1,256.4,22.8z M253,23.8c-0.1,0-0.1,0-0.2,0c-0.1,0.2-0.2,0.5-0.2,0.7
						c-0.1,0.4-0.1,0.4,0.3,0.4h0.1c0.2,0,0.2-0.1,0.2-0.2C253.2,24.5,253.1,24.2,253,23.8z"/>
				</g>
			</g>
		</g>
		<g>
			<g>
				<path class="st3" d="M250,21.8c-0.1,0-0.4,0-0.5,0.5s0,0.7,0,0.8c0,0.1,0.1,0.6,0.2,0.7c0,0.1,0.2,0.4,0.4,0.5
					c0.9,0.2,2.3-0.6,2.2-1.1c-0.1-0.6-0.5-0.3-1-0.5c-0.6-0.3-0.8-0.5-0.9-0.6C250.3,22,250.2,21.8,250,21.8z"/>
			</g>
		</g>
		<g>
			<g>
				<path class="st3" d="M255.8,21.8c0.1,0,0.4,0,0.5,0.5c0.1,0.5,0,0.7,0,0.8c0,0.1-0.1,0.6-0.2,0.7c0,0.1-0.2,0.4-0.4,0.5
					c-0.9,0.2-2.3-0.6-2.2-1.1c0.1-0.6,0.5-0.3,1-0.5c0.6-0.3,0.8-0.5,0.9-0.6C255.4,22,255.5,21.8,255.8,21.8z"/>
			</g>
		</g>
	</g>
</g>
<g>
	<path class="st3" d="M47.3,195.3c6.4-1.7,12.8-3.2,19.2-4.8l19.3-4.6c12.9-3.1,25.8-5.9,38.7-8.8c12.9-2.8,25.8-5.6,38.8-8.3
		s26-5.2,39-7.5l-0.7,6l-80-42l-9.3-4.9l10.4-1.2l112.4-13.1l0.1,0.7l-111.6,18.9l1.1-6.1l80,42l6.9,3.6l-7.6,2.4
		c-12.6,4-25.3,7.8-38,11.5s-25.4,7.3-38.2,10.7c-12.8,3.5-25.5,6.9-38.3,10.2l-19.2,4.9c-6.4,1.6-12.8,3.2-19.3,4.7L47.3,195.3z"/>
</g>
<g>
	<path class="st4" d="M140.5,130.8c3.6-1,7.7-2.5,11.4-6.3c2.9-3.7,2.3-9.8-0.5-13.7c-0.3-0.4-0.5-0.8-0.6-1.2
		c-0.3-1.8-0.8-3.6-1.5-5.3c-1.3-3.3-3.4-5.8-6.5-7.5c-2.8-1.6-6.1-0.8-7.5,1.7c-0.3,0.5-0.4,0.1-0.4-0.1c-0.6-1.2-1.2-2.4-1.9-3.6
		c-0.5-1-1.1-1.9-2-2.6c-0.6-0.5-1.3-0.8-2.1-0.3c-0.1,0-0.2,0.1-0.2,0c-0.1-0.1,0-0.1,0.1-0.2c0.4-0.8,0.8-1.6,1-2.4
		c0-0.1-0.1-0.3,0.1-0.3c0.1,0,0.1,0.2,0.1,0.3c0,0.2,0,0.5-0.1,0.6c-0.5,0.8-0.6,1.3,0.6,1.3c0.3,0,0.6,0.3,0.8,0.5
		c0.6,0.5,1,1.1,1.4,1.8c0.7,1.1,1.3,2.3,1.9,3.4c0.2,0.3,0.3,0.7,0.7,0.1c1.1-1.6,2.7-2,4.5-1.7c2.5,0.4,4.5,1.8,6.3,3.4
		c0.3,0.3,0.6,0.9,0.8,0.7c0.4-0.3,0-0.8-0.2-1.2c-1.2-3.1-3-5.9-4.9-8.5c-0.1-0.1-0.2-0.2-0.2-0.3c-0.7-0.8-1.3-1.6-2-2.4
		c-0.1,0-0.2-0.1-0.1-0.2c0,0,0.1,0,0.2,0c0.8,0.7,1.5,1.5,2.1,2.4c0.1,0.1,0.2,0.2,0.2,0.3c1.3,1.4,2.2,3,3.2,4.6
		c1.7,2.8,2.9,5.9,4.2,8.9c0.2,0.4,0.4,0.9,0.8,1.2c0.2-0.4,0.1-0.9,0.1-1.3c0.1-2.2,1.1-3.2,3.3-3.1c0.9,0,1.7,0.2,2.6,0.5
		c0.5,0.2,0.6,0.1,0.4-0.4c-0.4-1.2-0.8-2.5-1.2-3.7c-2.1-6-4.8-11.7-9.3-16.4c-0.1-0.1-0.4-0.2-0.2-0.4c0.2-0.2,0.4,0.1,0.5,0.2
		c2.2,2.1,4.2,4.3,5.6,7c1.8,3.5,3.4,7.2,4.6,11c1.1,3.5,2,7.1,2.1,10.9c0,1,0.3,2,0.8,2.9c0.1,0.2,0.1,0.4,0.4,0.5
		c0-0.2,0.1-0.3,0.1-0.5c-0.1-2.5,0.7-5,1-7.5c0.2-2,1.4-2.8,3.4-2.7c3.8,0.1,6.7,1.8,8.8,5c0.1,0.1,0.1,0.4,0.3,0.3
		c0.1,0,0.1-0.3,0-0.4c-0.3-1.5-0.7-2.8-1.7-4.1c-4.2-5.2-8.8-9.9-13.4-14.7c-3.8-3.9-8-7.2-13-9.4c-0.4-0.2-0.7-0.5-1.2-0.4
		c0.3,0.3,0.6,0.6,0.8,0.9c0.1,0.2,0.5,0.3,0.3,0.5c-0.2,0.3-0.4-0.1-0.6-0.2c-3.3-2.9-7.2-4.1-11.7-4.1c-4.4,0-8.8,1-13.2,1
		c-0.7,0-1.2,0.4-1.4,1.1c0,0.1-0.2,0.4-0.2,0.4c-0.2-0.1-0.1-0.3-0.1-0.4c0.1-0.5-0.2-0.6-0.7-0.6c-2.3-0.2-4,0.7-5.2,2.9
		c-0.1,0.1-0.3,0.3-0.2,0.4c0.2,0.2,0.3,0,0.5-0.1c1.2-0.9,2.5-1.1,3.9-0.5c0.7,0.3,1.7,0.4,2.3-0.1c0.7-0.5,1-0.1,1.3,0.3
		c2.4,2.6,4.4,5.5,6.4,8.3c0.1,0.2,0.2,0.4,0.3,0.7c0,0.1,0,0.4-0.2,0.2c-0.5-0.5-0.6,0.1-0.7,0.3c-1.1,1.5-2.3,2.8-3.7,3.9
		c-0.1,0.1-0.1,0.1-0.2,0.2c0,0.1-0.1,0.2-0.2,0.1c0,0,0-0.1,0-0.2s0.1-0.1,0.1-0.2c1-1.2,2.1-2.3,3.1-3.5c0.2-0.3,0.5-0.5,0.2-1
		c-0.3-0.4-0.6-0.6-1.1-0.5c-0.4,0.1-0.7,0.3-1.1,0.5c-0.8,0.4-1.6,0.6-2.4,0.2s-1.4-0.2-1.9,0.5c-0.6,0.9-1.3,1.2-2.5,0.9
		c-0.8-0.3-2,0.6-1.8,1.4c0.1,0.6-0.1,0.6-0.4,0.7c-1.8,0.7-2.8,2-3,4c0,0.6-0.2,1.1-0.2,1.7c-0.4,3.1-1,6.1-3.7,8.1
		c-0.5,0.4-0.3,1-0.2,1.5c0.1,0.3,0.6,0.2,0.9,0.1c0.3,0.1,0.2,0.4,0.1,0.4c-0.5,0.2-1.1,0-1.6-0.1c0,0-0.1-0.1-0.1-0.2
		c0.5-1-0.2-2-0.2-3c-0.1-1.3-0.6-2.7-1.4-3.8c-0.1-0.1-0.2-0.4-0.4-0.3c-0.3,0.1,0,0.3,0,0.5c0.3,1.3,0.3,2.6,0.3,3.9
		c0,0.9-0.4,1.9-0.6,2.8c0,0.1-0.2,0.2-0.2,0.2c0-0.1-0.1-0.1-0.1-0.2c0.1-0.8-0.3-1.5-0.4-2.2c-0.2-0.8-0.4-1.6-0.8-2.2
		c-0.1-0.1-0.2-0.4-0.4-0.3c-0.2,0.1-0.1,0.3-0.1,0.5c0.2,1,0.3,2,0.2,3.1c-0.1,0.9,0,1.8-0.6,2.7c-0.5,0.8-0.5,1.7,0,2.1
		c1,0.9,1.6,0.9,2.7,0.3c0.4-0.2,0.7-0.5,1-0.7c0.1-0.1,0.3-0.3,0.3-0.1c0.1,0.3,0,0.7,0,1s-0.3,0.3-0.5,0.3
		c-0.9-0.3-1.8,0.2-2.8,0.1c-0.6-0.1-1,0.3-1.2,0.8c-0.1,0.2,0.1,0.3-0.3,0.2c-0.6-0.1-1,0.3-1.4,0.6c0,0.2,0,0.5,0,0.7
		c0.3,0.3,1.1-0.1,1.1,0.5c0.1,1.3,1.2,1.5,2,2.1c0.3,0.2,0.2-0.1,0.2-0.3c0.1-1.3,0.1-1.3,1.3-0.9c0.8,0.2,1.6,0.4,2.4,0.8
		c0.3,0.1,0.6,0.4,0.4,0.6c-0.8,0.5-0.9,1.9-2.2,1.6c-0.2,0-0.4,0.1-0.2,0.2c0.6,0.4,0.8,1.1,1.5,1.3c0.5,0.1,0.9,0.3,1.2,0.7
		c0.2,0.4,0.4,0.2,0.5-0.1c0.1-0.3,0.2-0.5,0.2-0.8c0.1-0.9,0.5-1.6,1.2-2.1c1-0.7,2.1-1.4,3.2-1.9c0.5-0.2,0.9-0.4,0.3-1
		c-0.4-0.3-0.5-0.9-0.5-1.4c0.1-1.4,0.3-2.7,0.5-4.1c0-0.1,0-0.3,0.2-0.3s0.2,0.2,0.1,0.4c-0.2,1-0.3,2-0.3,3.1
		c0,0.3-0.2,0.7,0.1,0.9c0.3,0.2,0.5-0.2,0.8-0.4c1.8-1.3,3.6-2.5,5.9-2.8c0.6-0.1,1.4,0.2,1.6-0.3c0.2-0.4-0.4-1.1-0.6-1.6
		c0-0.2-0.9-1.7-0.7-1.8c0.3-0.2,0.8,1.5,0.9,1.7c1,1.9,2.2,3.7,4,5c0.3,0.2,0.2,0.3-0.1,0.4c-0.2,0.1-0.2,0.2-0.2,0.3
		c-0.1,0.4-0.1,0.9-0.2,1.3c-0.1,2.1,0.3,4.3-0.2,6.4c-0.5,2.3,0.4,4.2,1.7,6c0.5,0.7,2.2,1,2.9,0.9c0.9-0.2,0.8-1.4,0.8-1.4
		l-1.1-0.1h-0.1l-1-0.7c-0.2-0.1-0.4-5.3,0.5-7.6c0.7-1.8,1.1-3.6,1.2-5.4c0.1-1.2-0.3-2.3-1.1-3.2c-1.7-2.1-3.3-4.3-4.7-6.7
		c-0.4-0.7-0.5-1.4-1-2c-0.4-0.5-0.8-1.2-1.5-1.4c-0.7-0.2-0.7-0.6-0.5-1.1c0.4-1.6,1.7-2.4,3-3.2c1-0.6,1.9-0.3,2.7,0.3
		c2.4,1.5,5.1,2.3,7.6,3.5c2.5,1.1,4.8,2.7,6.8,4.6c0.7,0.6,1.3,1.4,2.3,1.4c0.1,0,0.3,0.1,0.3,0.2c0,0.2-0.2,0.1-0.3,0.1
		s-0.3,0-0.4,0.1c0.1,0.1,0.2,0.3,0.3,0.4c0.4,0.5,0.8,1,1.1,1.5c0.1,0.1,0.3,0.3,0.1,0.4s-0.2-0.1-0.3-0.2c-2.4-3.2-5.6-5.3-9-7.2
		c-1.3-0.7-2.5-1.3-3.9-1.8c-1.6-0.6-3.1-1.2-4.5-2.2c-1.6-1.1-3.7-0.4-4.9,1.6c-0.6,0.9-0.6,1,0.4,1.4c0.4,0.2,0.7,0.5,0.9,0.9
		c0.8,1.5,1.7,2.9,2.6,4.3c2,3.3,4.5,5.9,7.8,7.9c0.5,0.3,1,0.6,1.5,1c0.6,0.4,1.6,0.8,1.6,1.3c0,0.9,0.2,1.8,0,2.7
		c-0.1,0.5-0.1,1-0.2,1.5c-0.2,1.1-0.4,1.4-1.5,1.2c-1-0.2-2-0.1-2.9-0.3c-0.9-0.2-1.4,0.9-1.7,1.7h8.5c0.8-0.1,1.3-0.6,1.3-1.4
		c0-0.9,0.5-0.7,1-0.7c0.2,0,0.4,0.2,0.6,0.2c0.2,0.1,0.3,0.3,0.5,0c0.1-0.2,0-0.3-0.2-0.5c-0.4-0.5-0.8-1-1.4-1.2
		c-0.5-0.1-0.6-0.5-0.7-0.9c-0.1-1.2-0.2-2.4-0.3-3.6c0-0.5-0.3-0.9-0.7-1.1c-1.1-0.7-2-1.6-2.8-2.7c-0.5-0.6-1-1.1-1.7-1.4
		c-0.4-0.2-0.9-0.4-1.2-0.7c0.5-0.1,0.9,0.3,1.3,0.4c0.1-0.1,0.1-0.1,0.2-0.2c-1.2-1.9-2.5-3.7-4.7-4.6c-0.3-0.1-0.6-0.3-1-0.5
		c0.4-0.2,0.8,0,1.2,0.1c2.3,1,3.9,2.7,5,4.9c0.8,1.6,1.8,3,3.3,4c1.1,0.7,1.6,1.6,1.6,2.9c0,0.6,0.2,1,1,1c0.7,0,1.5,0.2,2.2,0.3
		c1.9,0.2,2.1-1.7,4,0.1c1,1,1.6,1.7,1.2,4c-1.1,7.3-14.2,6.3-18.3,12.3c-1.5,2.5-1.3,6.5,0.3,8.7c0.1,0.1,0.1,0.3,0.3,0.2
		c0.1,0-2.1-3.8,0.1-6.7C132.2,132.3,136,132,140.5,130.8z M138.9,85.6L138.9,85.6L138.9,85.6c0.4,0,0.1,0.3,0.1,0.4
		c0.2,0.3,0.4,0.5,0.7,0.7h0.1c0-0.3-0.4-0.5-0.5-0.7C139.1,85.9,138.8,85.9,138.9,85.6z M115.7,100.7c-0.1,0.4,0.1,0.7,0.2,1.1
		c0.5,1.3,1.4,2.2,2.5,3c0.8,0.5,1.4,1.1,1.7,2c0,0.1,0.1,0.2,0.2,0.3c0-0.1,0.1-0.2,0.1-0.4c-0.1-0.7-0.2-1.3-1-1.7
		c-0.3-0.2-0.6-0.5-0.9-0.7c-2.1-1.8-3.3-3.6-1.1-6.7c0.1-0.1,0.3-0.2,0.1-0.4c-0.2-0.2-0.3,0-0.5,0.2
		C116.2,98.3,115.7,99.4,115.7,100.7z M127.3,77.2c-1,0.1-1.8,0.3-2.6,0.3c-0.6,0.1-0.5,0.2-0.2,0.6c0.6,0.8,1.2,1.7,1.7,2.5
		c0.1,0.1,0.1,0.2,0.2,0.1v-0.2c-0.1-0.2-0.1-0.4-0.2-0.6c-0.3-0.6-1-1.3-0.8-1.8c0.2-0.6,1.2-0.6,1.9-0.7c0.1,0,0.3,0,0.2-0.2
		C127.4,77.2,127.3,77.2,127.3,77.2z M126.9,94c0.7-0.1,1-0.7,1.3-1.2v-0.1c-0.4,0.1-0.6,0.5-0.9,0.7c-0.2,0.1-0.3,0.2-0.5,0.3
		c-0.1,0.1-0.1,0.1-0.2,0.2C126.8,94,126.9,94,126.9,94z"/>
</g>
<g>
	<g>
		<path class="st3" d="M100.9,187.7l7,9.3c0,0-14.8-2.9-17.1-4.7s-3.8,0.4-5.3-0.4c-1.5-0.8-3.1-2.6-5.7-3s-4.6,0.9-5.8-0.2
			c-1.2-1.1-11.4,0.2-19-2.1c-7.5-2.3-13.7-2.4-16.9-6.8c-3.2-4.4-1.4-5.8-4.9-7.9c-3.5-2-7.9-5.3-9.9-8.9c-2-3.6,0.1-5.6-3.7-6.4
			s-6-2.2-7.7-3.7s-3.9-0.3-5.7-3.6C4.4,145.9,5,144,5,144s20.2-7.2,32.6-16.7s24.2-18.9,27.4-20.2c3.1-1.3,23.9,2.3,24.8,4.5
			s2,40.4,3.7,43.6s3.5,29.3,4.7,30.6C99.4,187.2,100.9,187.7,100.9,187.7z"/>
		<path class="st2" d="M85.3,105.6c0,0,0.1,0,0.3,0c0.5,0,1.7,0,2.4,0.6c0.8,0.9,2.1,2.4,2.6,2.7c0.6,0.3,2.3,0.8,3.8,2.6
			c1.5,1.8,1.1,3.3,1.5,3.7s0.8,0.9,0.7,2.7c-0.1,1.8-0.7,3.1-0.4,3.7s0.4,2,0.3,3.4s-0.2,3.4,0,4.5s2.8,3.6,2.8,5.6
			c0,1.9,0.7,5,1.3,6.3s2.6,5,3,5.2s1.7-0.2,2.5,0.4s2.3,3.4,1.4,5c-0.8,1.5-5.1,3.1-6.2,3s-2.9-1-2.7-2.1s0.5-2.4-0.3-3.2
			s-2.5-4-2.5-3.4s-0.6,1.8,0,2.5s1.3,3.3,2.9,7.9c1.6,4.7,2.1,8.4,2.1,10c0,1.5-0.2,3.8-0.3,7.2c-0.1,3.4-1.1,7.7-0.7,8.2
			c0.5,0.6,1.3-0.1,1.3,1.3s0.8,4,0.2,9s-0.8,11.4-0.8,12.9s0.4,5,0.4,5s9.6,3.5,10.8,4.9c1.1,1.3-0.8,2-2,2s-7.1-1.5-10.6-1.6
			s-4.4,1.4-5.4-0.5c-0.9-1.9,0.2-6.3,0.3-7.5s0-8.8-0.9-10.9c-0.9-2.1-1.7-1.4-1.7-4.7s2.2-6.3,0.2-10.4c-2-4.1-4.2-21.9-6.5-20.3
			s-4.9,5.7-5.6,7.5s-4.4,9.5-5.8,11.9s-1.7,8.9-2.9,11.2s-4.2,5.8-5.6,8.2c-1.3,2.4-2,7-1.8,8.3s6.4,7.3,4.9,8.4s-1,1.1-4.6,0.5
			c-3.6-0.7-7.5-3.5-7.7-5.9c-0.3-2.4,2.1-4.6,2.3-6.4c0.2-1.8-1-14.7,0.4-18.1c1.4-3.4,7.3-11,8.2-13.5c0.9-2.5,0.1-12,0.7-15.4
			s2.8-9.5,2.9-11.2s-0.9-1.1,0.8-3.4c1.7-2.3,2.4-4.4,2.2-7c-0.2-2.6,1.1-1.8-0.5-3.8s-4.8-5.9-5.3-5.9s-2.8,1.1-3,1.7
			c-0.2,0.7,1,6.2,0.1,9.1c-0.9,2.9-0.9,5.7-0.5,7.4c0.5,1.6,4.6,3,4.4,4s-0.1,3.4-0.3,3.9s-1.7,2-2.2,2.4s-2.7,0.3-3.8,0.3
			s-2.5-0.8-2.8-1.9c-0.3-1.1,0.2-2.7-0.2-4.8s-0.3-3.3-0.7-4.2c-0.4-1-3.6-6.3-3.9-8.2c-0.3-1.9-0.4-7.9-0.7-8.5
			c-0.3-0.7,1.4-4.2,2.2-6.2s0.6-5.6,1.2-7.1c0.7-1.5,0.8-0.7,0.9-2.6c0.1-1.9,5.4-8.5,7.7-8.7c2.3-0.2,7.7,1.1,8.4-0.1
			c0.7-1.1,2.5-3.1,2.8-4.4s0.2-2.1,0.2-4.1s0.6-6.2,0.8-6.6s2-2.4,3.7-2.6s5.3-0.2,6.9,1.7c1.6,1.9,3.4,4.2,3,5.6
			c-0.4,1.3-0.8,1.1-1.4,2.7c-0.7,1.5-0.7,3.1-1.5,4.4s-2.1,2.3-2.5,3.2s-0.8,2.3-1.1,2.2s-0.6,0.5-0.6,0.5L85.3,105.6z"/>
		<polyline class="st2" points="104.4,148.4 99.9,144.1 100.3,142.5 102.1,142.7 104.8,147 135.4,119.8 143.3,118.4 140.1,125 
			106.6,149.5 110.3,154.1 110,155.5 108.3,155.5 105,149.2 		"/>
		<path class="st2" d="M98.7,151.8l-1.1,0.9l1.4,1.9l0.7-0.3c0,0-0.2,0.1-0.6-0.4C98.2,152.8,98.7,151.8,98.7,151.8z"/>
	</g>
	<path class="st3" d="M85.3,105.6c0,0,1.4-0.4,2.6,0.6c1,0.8,2.2,2.1,2.2,2.1s-1.5,3.2-4.9,4.4c-3.4,1.2-19.1-9.7-19.1-9.7
		s4.9-0.2,6.8,0.5s11.3,8.7,11.1,7.9C83.9,110.5,85.3,105.6,85.3,105.6z"/>
</g>
<g class="st5">
	<path class="st6" d="M33.9,241.1v13h13.7v-13h5.9v32.4h-5.9v-14.3H33.9v14.3H28v-32.4H33.9z"/>
	<path class="st6" d="M64.2,263.5c0.1,4.2,3.5,6,7.2,6c2.7,0,4.7-0.4,6.5-1.1l0.9,4.1c-2,0.8-4.8,1.4-8.2,1.4c-7.6,0-12-4.7-12-11.8
		c0-6.5,3.9-12.6,11.4-12.6c7.6,0,10.1,6.2,10.1,11.4c0,1.1-0.1,2-0.2,2.5H64.2z M74.5,259.3c0-2.2-0.9-5.7-4.8-5.7
		c-3.6,0-5.2,3.3-5.4,5.7H74.5z"/>
	<path class="st6" d="M84.8,239.4h6v34.1h-6V239.4z"/>
	<path class="st6" d="M118.7,239.4v27.5c0,2.4,0.1,5,0.2,6.6h-5.3l-0.2-3.7h-0.1c-1.4,2.6-4.2,4.2-7.6,4.2c-5.6,0-10-4.8-10-12
		c0-7.8,4.8-12.5,10.5-12.5c3.2,0,5.5,1.3,6.6,3.1h0.1v-13.2H118.7z M112.8,259.9c0-0.5,0-1.1-0.1-1.5c-0.5-2.3-2.4-4.2-5.1-4.2
		c-3.8,0-5.9,3.4-5.9,7.7c0,4.3,2.1,7.4,5.9,7.4c2.4,0,4.5-1.6,5.1-4.2c0.1-0.5,0.2-1.1,0.2-1.7V259.9z"/>
	<path class="st6" d="M129.2,263.5c0.1,4.2,3.5,6,7.2,6c2.7,0,4.7-0.4,6.5-1.1l0.9,4.1c-2,0.8-4.8,1.4-8.2,1.4
		c-7.6,0-12-4.7-12-11.8c0-6.5,3.9-12.6,11.4-12.6c7.6,0,10.1,6.2,10.1,11.4c0,1.1-0.1,2-0.2,2.5H129.2z M139.5,259.3
		c0-2.2-0.9-5.7-4.8-5.7c-3.6,0-5.2,3.3-5.4,5.7H139.5z"/>
	<path class="st6" d="M149.8,257.1c0-2.7,0-4.9-0.2-7h5.2l0.3,3.5h0.1c1-1.8,3.6-4,7.4-4c4.1,0,8.3,2.6,8.3,10v13.9H165v-13.2
		c0-3.4-1.2-5.9-4.5-5.9c-2.4,0-4,1.7-4.6,3.5c-0.2,0.5-0.2,1.2-0.2,1.9v13.7h-6V257.1z"/>
	<path class="st6" d="M177.2,257.7c0-3.2,0-5.4-0.2-7.5h5.1l0.2,4.5h0.2c1.2-3.3,3.9-5,6.4-5c0.6,0,0.9,0,1.4,0.1v5.6
		c-0.5-0.1-1-0.2-1.7-0.2c-2.8,0-4.8,1.8-5.3,4.5c-0.1,0.5-0.2,1.2-0.2,1.8v12.1h-5.9V257.7z"/>
	<path class="st6" d="M198.1,263.5c0.1,4.2,3.5,6,7.2,6c2.7,0,4.7-0.4,6.5-1.1l0.9,4.1c-2,0.8-4.8,1.4-8.2,1.4
		c-7.6,0-12-4.7-12-11.8c0-6.5,3.9-12.6,11.4-12.6c7.6,0,10.1,6.2,10.1,11.4c0,1.1-0.1,2-0.2,2.5H198.1z M208.3,259.3
		c0-2.2-0.9-5.7-4.8-5.7c-3.6,0-5.2,3.3-5.4,5.7H208.3z"/>
	<path class="st6" d="M225,243.6c0,1.8-1.3,3.2-3.4,3.2c-2,0-3.3-1.4-3.3-3.2c0-1.8,1.3-3.2,3.3-3.2
		C223.7,240.4,224.9,241.8,225,243.6z M218.7,273.5v-23.4h6v23.4H218.7z"/>
	<path class="st6" d="M230.7,268.1c1.3,0.8,3.9,1.7,6,1.7c2.6,0,3.7-1.1,3.7-2.6c0-1.6-1-2.4-3.8-3.4c-4.6-1.6-6.5-4.1-6.4-6.8
		c0-4.1,3.4-7.3,8.8-7.3c2.6,0,4.8,0.7,6.2,1.4l-1.2,4.2c-1-0.6-2.9-1.3-4.9-1.3c-2.1,0-3.3,1-3.3,2.4c0,1.5,1.1,2.2,4.1,3.3
		c4.2,1.5,6.2,3.7,6.2,7.2c0,4.2-3.3,7.3-9.5,7.3c-2.8,0-5.4-0.7-7.1-1.6L230.7,268.1z"/>
	<path class="st6" d="M255.1,263.5c0.1,4.2,3.5,6,7.2,6c2.7,0,4.7-0.4,6.5-1.1l0.9,4.1c-2,0.8-4.8,1.4-8.2,1.4
		c-7.6,0-12-4.7-12-11.8c0-6.5,3.9-12.6,11.4-12.6c7.6,0,10.1,6.2,10.1,11.4c0,1.1-0.1,2-0.2,2.5H255.1z M265.4,259.3
		c0-2.2-0.9-5.7-4.8-5.7c-3.6,0-5.2,3.3-5.4,5.7H265.4z"/>
</g>
<g>
	<g>
		<path class="st2" d="M190.6,170.1l-20.2,0.1c-2.1,0-3.9-1.7-3.9-3.8l-0.2-33.8c0-2.1,1.7-3.9,3.8-3.9l20.2-0.1
			c2.1,0,3.9,1.7,3.9,3.8l0.2,33.8C194.5,168.4,192.8,170.1,190.6,170.1z"/>
		<g>
			<g>
				<g>
					<path class="st3" d="M167.7,133.3l0.5-0.1h0.1l0.6,0.1v0.2h-1.2L167.7,133.3z M169.2,130h0.3l1.2,3.5h-0.5l-1.1-3.1h0.1l-1,3.1
						H168L169.2,130z M168.6,132.2h1.4l0.1,0.2h-1.6L168.6,132.2z M169.6,133.3l0.6-0.1h0.1l0.6,0.1v0.2h-1.4L169.6,133.3z"/>
				</g>
			</g>
		</g>
		<g>
			<g>
				<g>
					<path class="st3" d="M191.2,165.4l-0.6,0.1h-0.1l-0.6-0.1v-0.2h1.4L191.2,165.4z M191.6,168.6h-0.3l-1.2-3.5h0.5l1.1,3.1h-0.1
						l1-3.1h0.2L191.6,168.6z M192.2,166.5h-1.4l-0.1-0.2h1.6L192.2,166.5z M193.2,165.3l-0.5,0.1h-0.1l-0.6-0.1v-0.2h1.2
						L193.2,165.3z"/>
				</g>
			</g>
		</g>
		<path class="st3" d="M180.2,138.9c0,0-2.1,3.8-3.6,5.6c-1.4,1.7-4.6,4.6-4.6,4.6s3.4,3.5,4.5,4.8c1,1.3,4,5.7,4,5.7
			s2.5-4.3,3.6-5.6c1-1.3,4.6-4.9,4.6-4.9s-3.2-3.1-4.3-4.3C182.7,143,180.2,138.9,180.2,138.9z"/>
		<path class="st3" d="M169.3,134.1c0,0-0.3,0.5-0.5,0.7s-0.6,0.6-0.6,0.6s0.4,0.4,0.6,0.6c0.1,0.2,0.5,0.7,0.5,0.7s0.3-0.5,0.4-0.7
			c0.1-0.2,0.6-0.6,0.6-0.6s-0.4-0.4-0.5-0.5C169.6,134.6,169.3,134.1,169.3,134.1z"/>
		<path class="st3" d="M191.4,162c0,0-0.3,0.5-0.5,0.7s-0.6,0.6-0.6,0.6s0.4,0.4,0.6,0.6c0.1,0.2,0.5,0.7,0.5,0.7s0.3-0.5,0.4-0.7
			c0.1-0.2,0.6-0.6,0.6-0.6s-0.4-0.4-0.5-0.5C191.7,162.6,191.4,162,191.4,162z"/>
	</g>
	<path d="M214.5,125.3c0.6-2.1,2-3.1,3.1-3.8c2.7,3.2,0.3,4.2,0.9,8.3c0.9-3.9,4.7-7.2,4-13.5c-0.3-2.7-0.4-2.2-2.7-3.9
		c-4.6-3.2-5.6-2.2-8.2-3.6c-0.7-0.4-1.5-0.7-1.9-1.5c-0.5-1.1-1.4-1.4-2.3-0.5c-0.8,0.7-1.7,1-2.7,1.3c-0.4-0.3,0.1-0.9-0.4-1.2
		c-0.6,0.7-1.1,1.6-2.5,1.6c-0.2-1,0.4-0.6,0.5-1.1c0.1-0.7-0.3-0.7-0.2-1.1c0-0.4-0.1-1.3-0.3-2.1c-0.2-0.9-0.6-1.8-1-2.3
		c-0.5-0.7,0.6-1.1,0.9-2.4c0.4-1.3,0.5-1.7,2-1.5c1.3,0.2,2.1,1.3,2.5,2.8c-0.3,0-0.5,0.3-0.5,0.5c0,0.3,0.2,0.5,0.5,0.5
		s0.5-0.2,0.5-0.5s-0.2-0.5-0.5-0.5c0.2-1.5-0.2-2.4-1-3.3c-1.1-1.3-3.9-1.7-5.5-0.1c-0.8,0.7-0.5,1.6-2.3,2.6c-0.9-1-1.4-2.5-4-2.8
		c-4-0.6-4.7,2-4.8,3.2c-0.3,0-0.5,0.3-0.5,0.5c0,0.3,0.2,0.5,0.5,0.5s0.5-0.2,0.5-0.5s-0.2-0.5-0.4-0.5c0.4-0.9,1.5-2.6,3.8-1.6
		c1.7,0.8,1.7,2.7,1.1,3.5c-0.7,0-1.2,0-1.8,0c-4.5-0.3-5.6,1.4-3.9,5.4c0.3,0.7,0.9,1.3,1.8,1.6v0.1c0,0.3,0.2,0.5,0.5,0.5
		s0.5-0.2,0.5-0.5s-0.2-0.5-0.5-0.5c-0.1,0-0.2,0-0.3,0.1c-1.1-1.2-1.1-2.2,0-3.3c0.7-0.7,2.9-1.4,3.6-0.3c0.2,0.3,0.7,1.6,1.4,2.4
		c1.3,1.7,2.2,0.5,3,1.9c0.3,0.7-0.7,0.7-1.4,0.8c-0.2,0-0.4,0-0.5,0c-0.2,0.4,0.4,0.5,0.3,0.9c-0.8,0.4-1.6,0.6-2.5,0.6
		c-1.5,0-2,0.8-1.2,1.9c0.3,0.4,0.3,0.8,0.3,1.2c-0.4,4.3-2.7,3.8-2.7,12.6c0.2,0.7,0.6,0.5,3.1,2.4s4.2,6.4,4.2,6.4
		c0-2.7-1.6-3.4-1.6-6.1c1.5,0.2,3.1,0.4,4.7,0.5c1.3,0.1,2.4,0.9,2.5,1.9c0,1.2,0.4,4,0.4,4c0.2,1.9,0.6,3.8,1.3,5.6
		c0.8,2.1,1.4,4.2,1.8,6.4c0.2,1,0.5,2.1,0.1,2.9c-1.1,1.9-2.5,3.5-3.8,5.2c-0.5-0.1-0.2-0.5-0.6-0.6c-1,2.7-1.7,3.3-3.7,3.9
		c-2.2,0.6-2.6,1.3-1.8,3.2c0.7,1.6,1.3,3.3,1.3,5.1c0,0.7,0.5,1.2,1.3,1.3c1.6,0.3,3.2,0.3,4.9-0.1c0.9-0.2,1.2-0.5,1.2-1.3
		c0.3,0,0.5-0.3,0.5-0.5c0-0.3-0.2-0.5-0.5-0.5s-0.5,0.2-0.5,0.5s0.2,0.5,0.5,0.5c-0.1,0.1-0.2,0.2-0.2,0.3c-1,1.1-2.3,0.8-3.6,0.5
		c-1.2-0.2-1.2-1.2-1.2-2.1c0.1-1.4,0.5-2.8,0.2-4.2c-0.1-0.4,0.2-0.9,0.5-1.3c0.9-1.3,2.3-1.9,4.1-1.6c-0.3-0.5-1-0.5-1-1.1
		c1.3-0.9,2.5-1.8,4.1-2.5c0.4,1,0.9,1.8,1,2.9c-0.6-0.1-1.1-0.3-1.6-0.4c3.2,2,2.8,5,2.8,7.9c0,0.8,0,1.5,0.1,2.3
		c0.1,1.3,1.3,1.1,2.3,1.1c1.1,0,1.4-0.5,1.2-1.4c-0.4-1.4-0.9-2.7-1.1-4.1c-0.3-1.9-0.9-3.9,0.4-5.8v-0.2c-0.4-0.1-0.6,0.5-1.1,0.3
		c-0.5-3-0.8-5.9,2.9-7.6c1.4-0.7,1.7-1.6,1.8-2.9c0.2-3.1,1-6.1,0.9-9.3C217.6,127.9,214.1,126.5,214.5,125.3z M203.3,129.2
		c-2.7-0.4-4.8-2.9-7.8-3c2.5-2.6,3.5-5.9,2.1-8.6C200.8,120.9,204.5,124.7,203.3,129.2z M211.3,147.9c-0.4-3-0.3-3.6-0.4-5.7
		C211.6,144.1,211.8,145,211.3,147.9z M212.8,123.3c-2.6-3.2-1-6.9-3.3-10.6c1.7,2.4,4.1,4.5,7.7,3.5
		C214.8,118.2,214.6,120.9,212.8,123.3z"/>
</g>
</svg>
