<?xml version="1.0" encoding="iso-8859-1"?>
<!-- Generator: Adobe Illustrator 16.0.3, SVG Export Plug-In . SVG Version: 6.00 Build 0)  -->
<!DOCTYPE svg PUBLIC "-//W3C//DTD SVG 1.1//EN" "http://www.w3.org/Graphics/SVG/1.1/DTD/svg11.dtd">
<svg version="1.1" id="Ebene_1" xmlns="http://www.w3.org/2000/svg" xmlns:xlink="http://www.w3.org/1999/xlink" x="0px" y="0px"
	 width="518px" height="518px" viewBox="0 0 518 518" style="enable-background:new 0 0 518 518;" xml:space="preserve">
<path style="fill-rule:evenodd;clip-rule:evenodd;fill:#7B74A8;" d="M518,512c0,3.313-2.017,6-4.505,6H4.505
	C2.018,518,0,515.313,0,512V6c0-3.313,2.017-6,4.504-6h508.99C515.983,0,518,2.687,518,6V512z"/>
<g>
	<g id="XMLID_1_">
		<g>
			<path style="fill:#FCFBFB;" d="M259.039,25.99c96.51-0.58,177.17,79.81,175.04,178.93c-2.04,95.16-81.561,173.45-179.37,171.17
				c-94.72-2.21-173.28-81.439-170.77-179.76C86.349,101.91,164.509,25.46,259.039,25.99z M259.309,361.59
				c89.29-0.38,160.94-73.05,160.37-160.66c-0.58-89.03-72.779-160.79-161.03-160.56c-85.43,0.21-159.56,68.84-160.47,160.72
				C99.219,291.1,170.849,361.97,259.309,361.59z"/>
			<path style="fill:#7B74A8;" d="M419.679,200.93c0.57,87.61-71.08,160.28-160.37,160.66c-88.46,0.38-160.09-70.49-161.13-160.5
				c0.91-91.88,75.04-160.51,160.47-160.72C346.899,40.14,419.099,111.9,419.679,200.93z"/>
		</g>
		<g>
		</g>
	</g>
</g>
<g>
	<rect x="-7.001" y="413" style="fill-rule:evenodd;clip-rule:evenodd;fill:none;" width="525.002" height="106"/>
	<path style="fill:#FFFFFF;" d="M99.836,435.437H85.529V450.5h-6.177v-35.547h22.583v4.98H85.529v10.571h14.307V435.437z"/>
	<path style="fill:#FFFFFF;" d="M117.365,450.988c-3.76,0-6.808-1.184-9.143-3.553c-2.336-2.367-3.503-5.521-3.503-9.46v-0.732
		c0-2.637,0.508-4.993,1.526-7.067c1.017-2.076,2.445-3.69,4.285-4.847c1.839-1.155,3.89-1.733,6.152-1.733
		c3.597,0,6.376,1.147,8.337,3.442c1.961,2.295,2.942,5.542,2.942,9.741v2.393H110.7c0.179,2.182,0.907,3.906,2.185,5.176
		c1.277,1.27,2.885,1.904,4.822,1.904c2.718,0,4.932-1.099,6.641-3.296l3.198,3.052c-1.058,1.579-2.47,2.804-4.236,3.674
		C121.544,450.553,119.563,450.988,117.365,450.988z M116.657,428.356c-1.628,0-2.942,0.57-3.943,1.709
		c-1.001,1.14-1.64,2.727-1.917,4.761h11.304v-0.439c-0.13-1.985-0.659-3.487-1.587-4.504
		C119.587,428.865,118.301,428.356,116.657,428.356z"/>
	<path style="fill:#FFFFFF;" d="M138.41,426.965c1.937-2.246,4.386-3.369,7.349-3.369c5.631,0,8.488,3.215,8.569,9.644V450.5h-5.933
		v-17.041c0-1.822-0.395-3.113-1.184-3.869c-0.79-0.758-1.949-1.136-3.479-1.136c-2.376,0-4.15,1.059-5.322,3.174V450.5h-5.933V413
		h5.933V426.965z"/>
	<path style="fill:#FFFFFF;" d="M166.633,450.5H160.7V413h5.933V450.5z"/>
	<path style="fill:#FFFFFF;" d="M187.897,443.322c0-1.058-0.436-1.863-1.306-2.417c-0.871-0.553-2.315-1.041-4.333-1.465
		c-2.019-0.423-3.703-0.96-5.054-1.611c-2.962-1.432-4.443-3.507-4.443-6.226c0-2.278,0.96-4.183,2.881-5.713
		c1.92-1.529,4.362-2.295,7.324-2.295c3.157,0,5.708,0.781,7.654,2.344c1.945,1.563,2.917,3.589,2.917,6.079h-5.933
		c0-1.139-0.423-2.087-1.27-2.845c-0.847-0.756-1.97-1.135-3.369-1.135c-1.302,0-2.364,0.302-3.186,0.903
		c-0.822,0.603-1.233,1.408-1.233,2.417c0,0.912,0.382,1.62,1.147,2.124c0.765,0.505,2.311,1.013,4.639,1.526
		c2.327,0.512,4.154,1.123,5.481,1.83c1.326,0.709,2.311,1.56,2.954,2.552c0.643,0.993,0.964,2.197,0.964,3.613
		c0,2.377-0.985,4.301-2.954,5.774c-1.97,1.473-4.549,2.209-7.739,2.209c-2.165,0-4.094-0.391-5.786-1.172
		c-1.693-0.781-3.011-1.855-3.955-3.223c-0.944-1.367-1.416-2.84-1.416-4.419h5.762c0.081,1.4,0.61,2.478,1.587,3.235
		c0.977,0.756,2.271,1.135,3.882,1.135c1.563,0,2.75-0.297,3.564-0.891C187.49,445.06,187.897,444.283,187.897,443.322z"/>
	<path style="fill:#FFFFFF;" d="M209.748,446.252c1.481,0,2.71-0.431,3.687-1.294c0.977-0.862,1.497-1.929,1.563-3.198h5.591
		c-0.065,1.645-0.578,3.178-1.538,4.602c-0.96,1.425-2.263,2.552-3.906,3.382c-1.644,0.83-3.418,1.245-5.322,1.245
		c-3.695,0-6.625-1.196-8.789-3.589c-2.165-2.393-3.247-5.696-3.247-9.912v-0.61c0-4.02,1.074-7.238,3.223-9.656
		c2.148-2.416,5.078-3.625,8.789-3.625c3.141,0,5.701,0.916,7.678,2.746c1.978,1.832,3.015,4.236,3.113,7.215h-5.591
		c-0.065-1.514-0.582-2.759-1.55-3.735c-0.969-0.977-2.202-1.465-3.699-1.465c-1.921,0-3.402,0.696-4.443,2.087
		c-1.042,1.393-1.571,3.504-1.587,6.336v0.952c0,2.865,0.517,5.001,1.55,6.409C206.301,445.548,207.795,446.252,209.748,446.252z"/>
	<path style="fill:#FFFFFF;" d="M230.915,426.965c1.937-2.246,4.386-3.369,7.349-3.369c5.631,0,8.488,3.215,8.569,9.644V450.5H240.9
		v-17.041c0-1.822-0.395-3.113-1.184-3.869c-0.79-0.758-1.949-1.136-3.479-1.136c-2.376,0-4.15,1.059-5.322,3.174V450.5h-5.933V413
		h5.933V426.965z"/>
	<path style="fill:#FFFFFF;" d="M259.138,450.5h-5.933V413h5.933V450.5z"/>
	<path style="fill:#FFFFFF;" d="M281.599,447.912c-1.742,2.051-4.216,3.076-7.422,3.076c-2.865,0-5.034-0.838-6.506-2.515
		c-1.473-1.676-2.209-4.102-2.209-7.275v-17.114h5.933v17.041c0,3.354,1.392,5.029,4.175,5.029c2.881,0,4.826-1.033,5.835-3.101
		v-18.97h5.933V450.5h-5.591L281.599,447.912z"/>
	<path style="fill:#FFFFFF;" d="M308.186,443.322c0-1.058-0.436-1.863-1.306-2.417c-0.871-0.553-2.315-1.041-4.333-1.465
		c-2.019-0.423-3.703-0.96-5.054-1.611c-2.962-1.432-4.443-3.507-4.443-6.226c0-2.278,0.96-4.183,2.881-5.713
		c1.92-1.529,4.362-2.295,7.324-2.295c3.157,0,5.708,0.781,7.654,2.344c1.945,1.563,2.917,3.589,2.917,6.079h-5.933
		c0-1.139-0.423-2.087-1.27-2.845c-0.847-0.756-1.97-1.135-3.369-1.135c-1.302,0-2.364,0.302-3.186,0.903
		c-0.822,0.603-1.233,1.408-1.233,2.417c0,0.912,0.382,1.62,1.147,2.124c0.765,0.505,2.311,1.013,4.639,1.526
		c2.327,0.512,4.154,1.123,5.481,1.83c1.326,0.709,2.311,1.56,2.954,2.552c0.643,0.993,0.964,2.197,0.964,3.613
		c0,2.377-0.985,4.301-2.954,5.774c-1.97,1.473-4.549,2.209-7.739,2.209c-2.165,0-4.094-0.391-5.786-1.172
		c-1.693-0.781-3.011-1.855-3.955-3.223c-0.944-1.367-1.416-2.84-1.416-4.419h5.762c0.081,1.4,0.61,2.478,1.587,3.235
		c0.977,0.756,2.271,1.135,3.882,1.135c1.563,0,2.75-0.297,3.564-0.891C307.778,445.06,308.186,444.283,308.186,443.322z"/>
	<path style="fill:#FFFFFF;" d="M333.991,443.322c0-1.058-0.436-1.863-1.306-2.417c-0.871-0.553-2.316-1.041-4.334-1.465
		c-2.019-0.423-3.703-0.96-5.054-1.611c-2.962-1.432-4.443-3.507-4.443-6.226c0-2.278,0.96-4.183,2.881-5.713
		c1.92-1.529,4.361-2.295,7.324-2.295c3.157,0,5.709,0.781,7.653,2.344c1.945,1.563,2.918,3.589,2.918,6.079h-5.933
		c0-1.139-0.424-2.087-1.27-2.845c-0.847-0.756-1.97-1.135-3.369-1.135c-1.303,0-2.364,0.302-3.186,0.903
		c-0.822,0.603-1.233,1.408-1.233,2.417c0,0.912,0.382,1.62,1.147,2.124c0.765,0.505,2.311,1.013,4.639,1.526
		c2.327,0.512,4.154,1.123,5.481,1.83c1.326,0.709,2.311,1.56,2.953,2.552c0.644,0.993,0.965,2.197,0.965,3.613
		c0,2.377-0.985,4.301-2.954,5.774c-1.97,1.473-4.55,2.209-7.739,2.209c-2.165,0-4.094-0.391-5.786-1.172
		c-1.693-0.781-3.011-1.855-3.955-3.223c-0.944-1.367-1.416-2.84-1.416-4.419h5.762c0.081,1.4,0.61,2.478,1.587,3.235
		c0.977,0.756,2.271,1.135,3.882,1.135c1.563,0,2.75-0.297,3.564-0.891C333.584,445.06,333.991,444.283,333.991,443.322z"/>
	<path style="fill:#FFFFFF;" d="M356.33,437.097c0-4.068,0.943-7.337,2.832-9.802c1.888-2.467,4.419-3.699,7.593-3.699
		c2.799,0,5.062,0.977,6.787,2.93V413h5.933v37.5h-5.371l-0.293-2.734c-1.774,2.148-4.143,3.223-7.104,3.223
		c-3.093,0-5.595-1.245-7.508-3.735C357.286,444.763,356.33,441.378,356.33,437.097z M362.263,437.609
		c0,2.686,0.517,4.781,1.551,6.287c1.033,1.505,2.502,2.258,4.406,2.258c2.425,0,4.199-1.082,5.322-3.247v-11.279
		c-1.091-2.115-2.849-3.174-5.273-3.174c-1.921,0-3.402,0.761-4.443,2.282C362.783,432.259,362.263,434.55,362.263,437.609z"/>
	<path style="fill:#FFFFFF;" d="M397.297,450.988c-3.76,0-6.808-1.184-9.144-3.553c-2.335-2.367-3.503-5.521-3.503-9.46v-0.732
		c0-2.637,0.509-4.993,1.526-7.067c1.017-2.076,2.444-3.69,4.284-4.847c1.839-1.155,3.89-1.733,6.152-1.733
		c3.597,0,6.376,1.147,8.337,3.442c1.962,2.295,2.942,5.542,2.942,9.741v2.393h-17.261c0.179,2.182,0.907,3.906,2.186,5.176
		c1.277,1.27,2.884,1.904,4.821,1.904c2.718,0,4.932-1.099,6.641-3.296l3.198,3.052c-1.059,1.579-2.47,2.804-4.236,3.674
		C401.476,450.553,399.494,450.988,397.297,450.988z M396.589,428.356c-1.628,0-2.941,0.57-3.943,1.709
		c-1,1.14-1.64,2.727-1.916,4.761h11.304v-0.439c-0.131-1.985-0.659-3.487-1.587-4.504
		C399.519,428.865,398.232,428.356,396.589,428.356z"/>
	<path style="fill:#FFFFFF;" d="M427.302,443.322c0-1.058-0.436-1.863-1.306-2.417c-0.871-0.553-2.316-1.041-4.334-1.465
		c-2.019-0.423-3.703-0.96-5.054-1.611c-2.963-1.432-4.443-3.507-4.443-6.226c0-2.278,0.96-4.183,2.881-5.713
		c1.92-1.529,4.361-2.295,7.324-2.295c3.157,0,5.709,0.781,7.653,2.344c1.945,1.563,2.918,3.589,2.918,6.079h-5.933
		c0-1.139-0.424-2.087-1.27-2.845c-0.847-0.756-1.97-1.135-3.369-1.135c-1.303,0-2.364,0.302-3.187,0.903
		c-0.821,0.603-1.232,1.408-1.232,2.417c0,0.912,0.382,1.62,1.147,2.124c0.765,0.505,2.311,1.013,4.639,1.526
		c2.327,0.512,4.154,1.123,5.481,1.83c1.326,0.709,2.311,1.56,2.953,2.552c0.644,0.993,0.965,2.197,0.965,3.613
		c0,2.377-0.985,4.301-2.954,5.774c-1.97,1.473-4.55,2.209-7.739,2.209c-2.165,0-4.094-0.391-5.786-1.172
		c-1.693-0.781-3.012-1.855-3.955-3.223c-0.944-1.367-1.416-2.84-1.416-4.419h5.762c0.081,1.4,0.61,2.478,1.587,3.235
		c0.977,0.756,2.271,1.135,3.882,1.135c1.563,0,2.75-0.297,3.564-0.891C426.895,445.06,427.302,444.283,427.302,443.322z"/>
	<path style="fill:#FFFFFF;" d="M94.233,489.316V502.5h-6.177v-35.547h13.599c3.971,0,7.125,1.035,9.46,3.104
		c2.335,2.069,3.503,4.807,3.503,8.212c0,3.486-1.144,6.199-3.43,8.139c-2.287,1.938-5.489,2.908-9.607,2.908H94.233z
		 M94.233,484.336h7.422c2.197,0,3.874-0.517,5.029-1.551c1.155-1.033,1.733-2.526,1.733-4.479c0-1.92-0.586-3.454-1.758-4.603
		c-1.172-1.146-2.783-1.736-4.834-1.77h-7.593V484.336z"/>
	<path style="fill:#FFFFFF;" d="M130.756,502.988c-3.76,0-6.808-1.184-9.143-3.553c-2.336-2.367-3.503-5.521-3.503-9.46v-0.732
		c0-2.637,0.508-4.993,1.526-7.067c1.017-2.076,2.445-3.69,4.285-4.847c1.839-1.155,3.89-1.733,6.152-1.733
		c3.597,0,6.376,1.147,8.337,3.442c1.961,2.295,2.942,5.542,2.942,9.741v2.393h-17.261c0.179,2.182,0.907,3.906,2.185,5.176
		c1.277,1.27,2.885,1.904,4.822,1.904c2.718,0,4.932-1.099,6.641-3.296l3.198,3.052c-1.058,1.579-2.47,2.804-4.236,3.674
		C134.935,502.553,132.954,502.988,130.756,502.988z M130.048,480.356c-1.628,0-2.942,0.57-3.943,1.709
		c-1.001,1.14-1.64,2.727-1.917,4.761h11.304v-0.439c-0.13-1.985-0.659-3.487-1.587-4.504
		C132.978,480.865,131.692,480.356,130.048,480.356z"/>
	<path style="fill:#FFFFFF;" d="M159.785,481.504c-0.781-0.13-1.587-0.195-2.417-0.195c-2.718,0-4.549,1.042-5.493,3.125V502.5
		h-5.933v-26.416h5.664l0.146,2.954c1.432-2.295,3.418-3.442,5.957-3.442c0.846,0,1.546,0.114,2.1,0.342L159.785,481.504z"/>
	<path style="fill:#FFFFFF;" d="M166.108,502.5v-22.021h-4.028v-4.395h4.028v-2.417c0-2.93,0.813-5.191,2.441-6.787
		c1.627-1.595,3.906-2.393,6.836-2.393c1.042,0,2.148,0.146,3.32,0.439l-0.146,4.639c-0.651-0.13-1.408-0.195-2.271-0.195
		c-2.832,0-4.248,1.457-4.248,4.37v2.344h5.371v4.395h-5.371V502.5H166.108z"/>
	<path style="fill:#FFFFFF;" d="M192.792,502.988c-3.76,0-6.808-1.184-9.143-3.553c-2.336-2.367-3.503-5.521-3.503-9.46v-0.732
		c0-2.637,0.508-4.993,1.526-7.067c1.017-2.076,2.445-3.69,4.285-4.847c1.839-1.155,3.89-1.733,6.152-1.733
		c3.597,0,6.376,1.147,8.337,3.442c1.961,2.295,2.942,5.542,2.942,9.741v2.393h-17.261c0.179,2.182,0.907,3.906,2.185,5.176
		c1.277,1.27,2.885,1.904,4.822,1.904c2.718,0,4.932-1.099,6.641-3.296l3.198,3.052c-1.058,1.579-2.47,2.804-4.236,3.674
		C196.971,502.553,194.99,502.988,192.792,502.988z M192.084,480.356c-1.628,0-2.942,0.57-3.943,1.709
		c-1.001,1.14-1.64,2.727-1.917,4.761h11.304v-0.439c-0.13-1.985-0.659-3.487-1.587-4.504
		C195.014,480.865,193.728,480.356,192.084,480.356z"/>
	<path style="fill:#FFFFFF;" d="M216.572,491.172l-2.637,2.71v8.618h-5.933V465h5.933v21.631l1.855-2.319l7.3-8.228h7.129
		l-9.814,11.011l10.864,15.405h-6.86L216.572,491.172z"/>
	<path style="fill:#FFFFFF;" d="M241.523,469.663v6.421h4.663v4.395h-4.663v14.746c0,1.01,0.199,1.737,0.598,2.186
		c0.398,0.447,1.111,0.671,2.136,0.671c0.684,0,1.375-0.081,2.075-0.244v4.59c-1.351,0.374-2.653,0.562-3.906,0.562
		c-4.558,0-6.836-2.515-6.836-7.544v-14.966h-4.346v-4.395h4.346v-6.421H241.523z"/>
	<path style="fill:#FFFFFF;" d="M250.727,469.224c0-0.911,0.289-1.668,0.867-2.271c0.578-0.602,1.404-0.903,2.478-0.903
		s1.904,0.302,2.49,0.903c0.586,0.603,0.879,1.359,0.879,2.271c0,0.896-0.293,1.64-0.879,2.233c-0.586,0.595-1.416,0.892-2.49,0.892
		s-1.9-0.297-2.478-0.892C251.016,470.863,250.727,470.119,250.727,469.224z M257.026,502.5h-5.933v-26.416h5.933V502.5z"/>
	<path style="fill:#FFFFFF;" d="M262.373,489.048c0-2.588,0.513-4.919,1.538-6.995c1.025-2.074,2.466-3.67,4.321-4.785
		c1.855-1.114,3.987-1.672,6.396-1.672c3.564,0,6.458,1.147,8.679,3.442s3.422,5.339,3.601,9.131l0.024,1.392
		c0,2.604-0.5,4.932-1.501,6.982s-2.434,3.638-4.297,4.761c-1.864,1.123-4.016,1.685-6.458,1.685c-3.728,0-6.71-1.241-8.948-3.723
		c-2.238-2.482-3.357-5.79-3.357-9.925V489.048z M268.305,489.561c0,2.719,0.562,4.846,1.685,6.385
		c1.123,1.537,2.686,2.307,4.688,2.307s3.56-0.781,4.675-2.344c1.115-1.563,1.672-3.849,1.672-6.86c0-2.669-0.574-4.785-1.721-6.348
		s-2.706-2.344-4.675-2.344c-1.937,0-3.475,0.769-4.614,2.308C268.875,484.201,268.305,486.501,268.305,489.561z"/>
	<path style="fill:#FFFFFF;" d="M297.456,476.084l0.171,3.052c1.953-2.359,4.517-3.54,7.69-3.54c5.501,0,8.301,3.149,8.398,9.448
		V502.5h-5.933v-17.114c0-1.676-0.362-2.917-1.086-3.724c-0.725-0.805-1.909-1.208-3.552-1.208c-2.393,0-4.175,1.083-5.347,3.247
		V502.5h-5.933v-26.416H297.456z"/>
	<path style="fill:#FFFFFF;" d="M319.77,469.224c0-0.911,0.289-1.668,0.867-2.271c0.578-0.602,1.403-0.903,2.478-0.903
		s1.904,0.302,2.49,0.903c0.586,0.603,0.879,1.359,0.879,2.271c0,0.896-0.293,1.64-0.879,2.233c-0.586,0.595-1.416,0.892-2.49,0.892
		s-1.9-0.297-2.478-0.892C320.059,470.863,319.77,470.119,319.77,469.224z M326.069,502.5h-5.933v-26.416h5.933V502.5z"/>
	<path style="fill:#FFFFFF;" d="M347.334,495.322c0-1.058-0.436-1.863-1.307-2.417c-0.871-0.553-2.316-1.041-4.334-1.465
		c-2.018-0.423-3.703-0.96-5.053-1.611c-2.963-1.432-4.443-3.507-4.443-6.226c0-2.278,0.959-4.183,2.881-5.713
		c1.92-1.529,4.361-2.295,7.324-2.295c3.156,0,5.709,0.781,7.652,2.344c1.945,1.563,2.918,3.589,2.918,6.079h-5.932
		c0-1.139-0.424-2.087-1.27-2.845c-0.848-0.756-1.971-1.135-3.369-1.135c-1.303,0-2.365,0.302-3.188,0.903
		c-0.82,0.603-1.232,1.408-1.232,2.417c0,0.912,0.383,1.62,1.148,2.124c0.764,0.505,2.311,1.013,4.639,1.526
		c2.326,0.512,4.154,1.123,5.48,1.83c1.326,0.709,2.311,1.56,2.953,2.552c0.645,0.993,0.965,2.197,0.965,3.613
		c0,2.377-0.984,4.301-2.953,5.774c-1.971,1.473-4.551,2.209-7.74,2.209c-2.164,0-4.094-0.391-5.785-1.172
		c-1.693-0.781-3.012-1.855-3.955-3.223c-0.945-1.367-1.416-2.84-1.416-4.419h5.762c0.08,1.4,0.609,2.478,1.586,3.235
		c0.977,0.756,2.271,1.135,3.883,1.135c1.563,0,2.75-0.297,3.564-0.891C346.926,497.06,347.334,496.283,347.334,495.322z"/>
	<path style="fill:#FFFFFF;" d="M365.766,469.663v6.421h4.663v4.395h-4.663v14.746c0,1.01,0.199,1.737,0.599,2.186
		c0.398,0.447,1.11,0.671,2.136,0.671c0.684,0,1.375-0.081,2.075-0.244v4.59c-1.352,0.374-2.653,0.562-3.906,0.562
		c-4.558,0-6.836-2.515-6.836-7.544v-14.966h-4.346v-4.395h4.346v-6.421H365.766z"/>
	<path style="fill:#FFFFFF;" d="M386.591,502.988c-3.76,0-6.808-1.184-9.144-3.553c-2.335-2.367-3.503-5.521-3.503-9.46v-0.732
		c0-2.637,0.509-4.993,1.526-7.067c1.017-2.076,2.444-3.69,4.284-4.847c1.839-1.155,3.89-1.733,6.152-1.733
		c3.597,0,6.376,1.147,8.337,3.442c1.962,2.295,2.942,5.542,2.942,9.741v2.393h-17.261c0.179,2.182,0.907,3.906,2.186,5.176
		c1.277,1.27,2.884,1.904,4.821,1.904c2.718,0,4.932-1.099,6.641-3.296l3.198,3.052c-1.059,1.579-2.47,2.804-4.236,3.674
		C390.77,502.553,388.788,502.988,386.591,502.988z M385.883,480.356c-1.628,0-2.941,0.57-3.943,1.709
		c-1,1.14-1.64,2.727-1.916,4.761h11.304v-0.439c-0.131-1.985-0.659-3.487-1.587-4.504
		C388.813,480.865,387.526,480.356,385.883,480.356z"/>
	<path style="fill:#FFFFFF;" d="M407.294,476.084l0.171,3.052c1.953-2.359,4.517-3.54,7.69-3.54c5.501,0,8.301,3.149,8.398,9.448
		V502.5h-5.933v-17.114c0-1.676-0.362-2.917-1.087-3.724c-0.724-0.805-1.908-1.208-3.552-1.208c-2.393,0-4.175,1.083-5.347,3.247
		V502.5h-5.933v-26.416H407.294z"/>
</g>
<g>
	<path style="fill-rule:evenodd;clip-rule:evenodd;fill:#F7F7F9;" d="M273.637,207.22c3.933-0.379,7.876-0.671,11.794-1.158
		c6.091-0.757,12.165-1.647,18.504-2.517c0.129-1.55,0.243-2.938,0.412-4.972c4.654,1.858,9.029,3.604,14.102,5.629
		c-4.246,3.319-7.943,6.209-12.096,9.455c-0.568-1.726-0.949-2.883-1.536-4.668c-8.659,1.191-17.437,2.4-26.212,3.608
		c-0.146,0.354-0.291,0.709-0.438,1.064c11.854,10.276,23.709,20.554,36.064,31.265c7.238-8.292,14.4-16.495,21.961-25.154
		c17.537,15.173,34.957,30.246,52.701,45.597c-15.328,17.703-30.424,35.139-45.656,52.73c-17.708-15.334-35.051-30.354-52.67-45.611
		c6.688-7.779,13.178-15.33,20.062-23.34c-14.812-12.805-29.507-25.511-44.202-38.217c-0.324-0.297-0.647-0.595-0.971-0.893
		c0.311-0.394,0.621-0.787,0.932-1.18c2.083-0.345,4.165-0.688,6.248-1.032c0.336-0.271,0.674-0.541,1.01-0.812L273.637,207.22z
		 M298.345,271.92c14.928,12.916,29.564,25.582,44.359,38.385c13.013-15.059,25.592-29.615,38.359-44.391
		c-15.008-12.988-29.551-25.57-44.355-38.379C323.804,242.465,311.222,257.021,298.345,271.92z"/>
	<path style="fill-rule:evenodd;clip-rule:evenodd;fill:#F5F5F8;" d="M186.182,242.023c-21.826-0.197-39.69-18.289-39.553-40.058
		c0.139-21.983,18.565-40.16,40.379-39.83c21.869,0.33,39.588,18.338,39.5,40.146C226.421,224.351,208.287,242.223,186.182,242.023z
		 M152.362,201.83c-0.797,17.576,14.457,34.785,34.314,34.621c18.94-0.156,34.187-15.307,34.239-34.286
		c0.052-18.956-15.182-34.252-34.157-34.296C167.638,167.825,152.401,182.868,152.362,201.83z"/>
	<path style="fill-rule:evenodd;clip-rule:evenodd;fill:#F5F5F8;" d="M290.519,142.436c-0.072,21.707-18.339,39.682-40.066,39.427
		c-21.893-0.257-39.597-18.18-39.534-40.021c0.063-22.158,18.077-40.12,40.125-39.844
		C274.544,102.293,291.28,121.986,290.519,142.436z M250.517,176.13c15.894,0.783,34.445-12.272,34.671-34.381
		c0.192-18.771-15.679-34.186-34.463-34.17c-18.89,0.016-34.312,15.375-34.354,34.211
		C216.329,160.696,231.593,176.046,250.517,176.13z"/>
	<path style="fill-rule:evenodd;clip-rule:evenodd;fill:#AAA7C4;" d="M265.456,210.041c0.323,0.298,0.646,0.596,0.971,0.893
		c0.393,4.6-3.15,6.509-6.301,9.33c-1.236-1.119-2.375-2.15-3.664-3.318C259.043,213.614,261.297,210.614,265.456,210.041z"/>
	<path style="fill-rule:evenodd;clip-rule:evenodd;fill:#A19FBE;" d="M130.871,208.013c0-2.263,0-3.663,0-5.432
		c1.644-0.126,3.032-0.231,4.941-0.378c0.217,1.841,0.395,3.343,0.631,5.343C134.426,207.715,132.904,207.843,130.871,208.013z"/>
	<path style="fill-rule:evenodd;clip-rule:evenodd;fill:#A19FBE;" d="M302.632,134.479c-2.227,0-3.632,0-5.553,0
		c-0.126-1.611-0.244-3.126-0.389-4.981c1.861-0.208,3.259-0.365,5.211-0.584C302.142,130.744,302.34,132.253,302.632,134.479z"/>
	<path style="fill-rule:evenodd;clip-rule:evenodd;fill:#A19FBE;" d="M296.429,144.54c0.275-2.182,0.451-3.565,0.646-5.108
		c1.761,0,3.147,0,4.921,0c0,1.821,0,3.33,0,5.108C300.194,144.54,298.683,144.54,296.429,144.54z"/>
	<path style="fill-rule:evenodd;clip-rule:evenodd;fill:#A4A2C0;" d="M131.499,192.04c1.816,0.199,3.2,0.352,4.72,0.519
		c0,1.803,0,3.203,0,4.892c-1.845,0-3.372,0-5.509,0C130.999,195.467,131.22,193.952,131.499,192.04z"/>
	<path style="fill-rule:evenodd;clip-rule:evenodd;fill:#A7A5C2;" d="M206.094,252.152c-0.341-2.199-0.558-3.596-0.825-5.322
		c1.607-0.543,2.934-0.988,4.519-1.523c0.6,1.693,1.078,3.041,1.716,4.84C209.822,250.77,208.374,251.307,206.094,252.152z"/>
	<path style="fill-rule:evenodd;clip-rule:evenodd;fill:#A8A6C3;" d="M178.915,120.551c-1.413-1.573-2.354-2.621-3.54-3.941
		c1.377-1.275,2.522-2.338,4.043-3.746c1.191,1.473,2.148,2.656,3.313,4.096C181.418,118.195,180.401,119.153,178.915,120.551z"/>
	<path style="fill-rule:evenodd;clip-rule:evenodd;fill:#A6A4C2;" d="M236.302,90.44c-1.974,0.258-3.373,0.44-5.094,0.665
		c-0.487-1.611-0.892-2.95-1.379-4.563c1.689-0.536,3.047-0.967,5.047-1.601C235.364,86.824,235.778,88.419,236.302,90.44z"/>
	<path style="fill-rule:evenodd;clip-rule:evenodd;fill:#A6A4C2;" d="M300.007,118.135c0.553,2.11,0.918,3.499,1.393,5.312
		c-1.748,0.489-3.244,0.907-5.195,1.453c-0.357-1.8-0.629-3.165-0.971-4.888C296.804,119.395,298.105,118.883,300.007,118.135z"/>
	<path style="fill-rule:evenodd;clip-rule:evenodd;fill:#A9A7C3;" d="M161.042,131.531c1.087-1.35,1.973-2.45,3.063-3.804
		c1.452,0.966,2.635,1.752,4.399,2.926c-1.332,1.574-2.407,2.846-3.718,4.396C163.391,133.738,162.354,132.763,161.042,131.531z"/>
	<path style="fill-rule:evenodd;clip-rule:evenodd;fill:#A7A5C2;" d="M300.021,155.104c-1.81-0.268-3.185-0.472-5.099-0.756
		c0.348-1.893,0.621-3.385,0.963-5.248c1.803,0.308,3.191,0.544,5.135,0.876C300.671,151.772,300.383,153.25,300.021,155.104z"/>
	<path style="fill-rule:evenodd;clip-rule:evenodd;fill:#A8A6C3;" d="M196.203,100.513c1.237,1.877,2.012,3.053,3.032,4.601
		c-1.479,1.028-2.739,1.905-4.271,2.97c-1.022-1.397-1.848-2.526-2.974-4.065C193.384,102.859,194.546,101.892,196.203,100.513z"/>
	<path style="fill-rule:evenodd;clip-rule:evenodd;fill:#A7A5C2;" d="M132.459,186.789c0.414-1.834,0.688-3.052,1.082-4.795
		c1.686,0.227,3.158,0.425,5.125,0.689c-0.37,2.012-0.643,3.489-0.982,5.337C135.791,187.574,134.433,187.253,132.459,186.789z"/>
	<path style="fill-rule:evenodd;clip-rule:evenodd;fill:#A5A3C1;" d="M132.583,218.753c-0.473-2.085-0.787-3.469-1.202-5.299
		c1.847-0.406,3.349-0.736,5.273-1.159c0.354,1.823,0.621,3.193,0.951,4.894C135.949,217.705,134.608,218.122,132.583,218.753z"/>
	<path style="fill-rule:evenodd;clip-rule:evenodd;fill:#A6A4C1;" d="M256.325,84.066c-0.215,1.974-0.35,3.217-0.506,4.659
		c-1.695,0-3.105,0-4.859,0c-0.129-1.65-0.238-3.057-0.387-4.983C252.546,83.853,254.104,83.941,256.325,84.066z"/>
	<path style="fill-rule:evenodd;clip-rule:evenodd;fill:#A8A5C3;" d="M143.09,157.348c1.088-1.782,1.828-2.994,2.742-4.493
		c1.554,0.785,2.819,1.423,4.481,2.262c-0.855,1.687-1.558,3.072-2.412,4.758C146.274,159.02,145.009,158.356,143.09,157.348z"/>
	<path style="fill-rule:evenodd;clip-rule:evenodd;fill:#A9A7C3;" d="M219.585,89.389c1.999-0.621,3.334-1.037,4.998-1.555
		c0.65,1.582,1.18,2.871,1.912,4.649c-1.682,0.646-3.083,1.186-4.808,1.85C220.955,92.611,220.407,91.323,219.585,89.389z"/>
	<path style="fill-rule:evenodd;clip-rule:evenodd;fill:#A6A4C1;" d="M214.258,243.717c1.826-0.777,2.987-1.271,4.624-1.969
		c0.821,1.484,1.557,2.814,2.57,4.645c-1.857,0.736-3.264,1.295-5.019,1.99C215.667,246.738,215.083,245.486,214.258,243.717z"/>
	<path style="fill-rule:evenodd;clip-rule:evenodd;fill:#A6A4C2;" d="M212.391,98.126c-0.791-1.55-1.42-2.784-2.287-4.482
		c1.626-0.893,2.958-1.624,4.791-2.63c0.732,1.835,1.292,3.234,1.985,4.972C215.221,96.777,213.978,97.37,212.391,98.126z"/>
	<path style="fill-rule:evenodd;clip-rule:evenodd;fill:#A8A5C3;" d="M151.354,143.7c1.724,1.229,2.862,2.04,4.23,3.016
		c-0.847,1.476-1.544,2.691-2.483,4.328c-1.585-0.842-2.925-1.553-4.693-2.492C149.414,146.895,150.21,145.583,151.354,143.7z"/>
	<path style="fill-rule:evenodd;clip-rule:evenodd;fill:#A6A4C2;" d="M200.922,98.264c1.664-1.01,2.738-1.662,4.292-2.605
		c0.916,1.478,1.708,2.756,2.769,4.468c-1.716,1.015-3.019,1.785-4.647,2.748C202.464,101.209,201.815,99.97,200.922,98.264z"/>
	<path style="fill-rule:evenodd;clip-rule:evenodd;fill:#A6A4C2;" d="M298.649,113.374c-2.115,0.778-3.43,1.263-5.072,1.867
		c-0.793-1.484-1.441-2.697-2.27-4.246c1.523-0.861,2.728-1.543,4.391-2.483C296.667,110.108,297.456,111.408,298.649,113.374z"/>
	<path style="fill-rule:evenodd;clip-rule:evenodd;fill:#A7A5C2;" d="M261.325,84.895c2.033,0.247,3.285,0.398,5.154,0.624
		c-0.264,1.794-0.484,3.293-0.768,5.218c-1.828-0.311-3.215-0.546-5.051-0.857C260.882,88.223,261.064,86.849,261.325,84.895z"/>
	<path style="fill-rule:evenodd;clip-rule:evenodd;fill:#A9A7C3;" d="M183.414,109.804c1.408-1.091,2.517-1.948,4.023-3.114
		c1.154,1.318,2.149,2.453,3.431,3.918c-1.525,1.24-2.716,2.208-4.235,3.443C185.464,112.509,184.534,111.282,183.414,109.804z"/>
	<path style="fill-rule:evenodd;clip-rule:evenodd;fill:#A7A5C2;" d="M232.313,234.81c1.545-1.018,2.734-1.801,4.298-2.83
		c1.059,1.55,1.943,2.843,3.012,4.406c-1.563,1.007-2.777,1.788-4.426,2.85C234.196,237.7,233.351,236.403,232.313,234.81z"/>
	<path style="fill-rule:evenodd;clip-rule:evenodd;fill:#AAA8C5;" d="M285.749,188.989c-1.008,1.558-1.773,2.741-2.797,4.323
		c-1.6-0.984-2.92-1.797-4.49-2.764c1.01-1.576,1.787-2.788,2.805-4.376C282.808,187.141,284.121,187.966,285.749,188.989z"/>
	<path style="fill-rule:evenodd;clip-rule:evenodd;fill:#A9A7C4;" d="M154.086,139.567c1.484-1.619,2.441-2.663,3.617-3.946
		c1.396,1.032,2.535,1.875,3.901,2.885c-0.97,1.461-1.764,2.658-2.852,4.297C157.267,141.773,156,140.894,154.086,139.567z"/>
	<path style="fill-rule:evenodd;clip-rule:evenodd;fill:#A8A5C3;" d="M275.767,194.459c1.586,1.304,2.664,2.19,3.93,3.231
		c-0.894,1.471-1.626,2.674-2.701,4.442c-1.576-1.221-2.877-2.229-4.435-3.437C273.653,197.253,274.495,196.141,275.767,194.459z"/>
	<path style="fill-rule:evenodd;clip-rule:evenodd;fill:#A7A5C2;" d="M223.477,239.692c1.723-0.998,2.846-1.648,4.418-2.559
		c0.91,1.443,1.734,2.749,2.822,4.474c-1.706,0.932-3.074,1.678-4.74,2.588C225.079,242.576,224.387,241.33,223.477,239.692z"/>
	<path style="fill-rule:evenodd;clip-rule:evenodd;fill:#A8A6C3;" d="M134.057,223.777c1.874-0.748,3.173-1.266,4.79-1.911
		c0.703,1.614,1.261,2.897,1.982,4.556c-1.664,0.86-3.026,1.564-4.696,2.429C135.406,227.076,134.873,225.771,134.057,223.777z"/>
	<path style="fill-rule:evenodd;clip-rule:evenodd;fill:#A8A6C3;" d="M161.661,246.238c-0.928,1.59-1.566,2.684-2.436,4.172
		c-1.59-0.646-3.001-1.223-4.91-2c1.057-1.768,1.845-3.088,2.858-4.783C158.861,244.609,160.167,245.369,161.661,246.238z"/>
	<path style="fill-rule:evenodd;clip-rule:evenodd;fill:#A8A6C3;" d="M170.576,248.775c-0.297,1.838-0.521,3.227-0.844,5.221
		c-1.891-0.463-3.369-0.826-5.307-1.303c0.515-1.74,0.907-3.063,1.414-4.777C167.502,248.219,168.85,248.463,170.576,248.775z"/>
	<path style="fill-rule:evenodd;clip-rule:evenodd;fill:#A8A5C3;" d="M201.264,253.258c-1.924,0.316-3.313,0.545-5.158,0.848
		c-0.273-1.742-0.487-3.105-0.764-4.869c1.625-0.465,2.936-0.84,4.669-1.336C200.471,249.863,200.82,251.355,201.264,253.258z"/>
	<path style="fill-rule:evenodd;clip-rule:evenodd;fill:#A8A5C3;" d="M295.179,170.097c-0.893,2.117-1.441,3.416-2.131,5.053
		c-1.646-0.68-2.948-1.218-4.656-1.923c0.619-1.579,1.125-2.865,1.789-4.555C291.812,169.137,293.122,169.511,295.179,170.097z"/>
	<path style="fill-rule:evenodd;clip-rule:evenodd;fill:#A9A7C3;" d="M246.11,88.642c-1.77,0.381-3.154,0.679-5.145,1.107
		c-0.18-1.914-0.323-3.429-0.496-5.264c1.727-0.187,2.971-0.32,4.563-0.492C245.402,85.589,245.716,86.945,246.11,88.642z"/>
	<path style="fill-rule:evenodd;clip-rule:evenodd;fill:#A8A5C3;" d="M270.093,92.122c0.678-1.626,1.203-2.887,1.879-4.508
		c1.695,0.64,2.994,1.131,4.856,1.834c-0.798,1.74-1.42,3.098-2.215,4.831C272.929,93.475,271.7,92.889,270.093,92.122z"/>
	<path style="fill-rule:evenodd;clip-rule:evenodd;fill:#A8A6C3;" d="M288.991,106.787c-1.342-1.536-2.172-2.487-3.213-3.681
		c1.239-1.156,2.279-2.125,3.723-3.47c1.223,1.349,2.254,2.484,3.619,3.99C291.618,104.776,290.51,105.625,288.991,106.787z"/>
	<path style="fill-rule:evenodd;clip-rule:evenodd;fill:#A7A5C2;" d="M286.538,177.855c1.197,0.521,2.474,1.078,4.278,1.864
		c-0.876,1.67-1.573,2.998-2.23,4.25C283.592,182.375,283.478,182.021,286.538,177.855z"/>
	<path style="fill-rule:evenodd;clip-rule:evenodd;fill:#A8A6C3;" d="M298.689,160.466c-0.677,1.751-1.181,3.055-1.845,4.774
		c-1.598-0.529-2.894-0.959-4.578-1.517c0.447-1.706,0.793-3.028,1.278-4.881C295.419,159.434,296.862,159.89,298.689,160.466z"/>
	<path style="fill-rule:evenodd;clip-rule:evenodd;fill:#A8A5C3;" d="M272.636,207.829c-2.083,0.344-4.165,0.688-6.248,1.032
		c0.16-2.328,0.473-4.573,3.227-5.711c2.184,0.367,3.496,1.802,4.022,4.07l0.009-0.203
		C273.31,207.288,272.972,207.558,272.636,207.829z"/>
	<path style="fill-rule:evenodd;clip-rule:evenodd;fill:#A6A4C1;" d="M252.351,227.562c-1.398-1.807-2.25-2.908-3.629-4.689
		c1.139-1.158,2.109-2.146,3.479-3.537c1.646,1.851,2.641,2.968,4.221,4.744C255.043,225.258,253.989,226.161,252.351,227.562z"/>
	<path style="fill-rule:evenodd;clip-rule:evenodd;fill:#A8A5C3;" d="M248.241,230.418c-1.82,1.217-2.968,1.983-4.43,2.961
		c-1.021-1.447-1.818-2.576-2.861-4.055c1.392-1.048,2.488-1.873,3.915-2.947C245.991,227.724,246.87,228.776,248.241,230.418z"/>
	<path style="fill-rule:evenodd;clip-rule:evenodd;fill:#A6A4C2;" d="M145.689,241.918c1.49-1.662,2.42-2.702,3.592-4.01
		c1.292,1.15,2.322,2.066,3.604,3.208c-0.932,1.396-1.697,2.543-2.796,4.189C148.611,244.166,147.436,243.262,145.689,241.918z"/>
	<path style="fill-rule:evenodd;clip-rule:evenodd;fill:#A6A4C2;" d="M171.934,127.453c-1.572-1.419-2.6-2.347-3.992-3.603
		c1.198-1.404,2.179-2.554,3.536-4.144c1.35,1.492,2.355,2.603,4.077,4.505C174.211,125.415,173.186,126.332,171.934,127.453z"/>
	<path style="fill-rule:evenodd;clip-rule:evenodd;fill:#A6A4C2;" d="M138.792,233.596c1.665-1.17,2.799-1.968,4.257-2.992
		c1.059,1.39,1.9,2.493,2.9,3.805c-1.16,1.097-2.067,1.954-3.484,3.293C141.217,236.307,140.164,235.13,138.792,233.596z"/>
	<path style="fill-rule:evenodd;clip-rule:evenodd;fill:#A8A6C3;" d="M285.845,95.629c-1.236,1.443-2.146,2.505-3.295,3.846
		c-1.434-0.978-2.584-1.761-4.018-2.738c1.023-1.479,1.827-2.638,2.932-4.23C282.997,93.599,284.241,94.487,285.845,95.629z"/>
	<path style="fill-rule:evenodd;clip-rule:evenodd;fill:#A9A7C4;" d="M145.446,164.04c-1.896,4.552-1.896,4.552-6.187,2.632
		c0.461-1.393,0.941-2.842,1.551-4.681C142.532,162.752,143.826,163.324,145.446,164.04z"/>
	<path style="fill-rule:evenodd;clip-rule:evenodd;fill:#ABA9C5;" d="M135.058,176.343c0.889-1.901,1.427-3.052,2.125-4.545
		c1.536,0.602,2.849,1.116,4.519,1.771c-0.65,1.662-1.163,2.976-1.818,4.652C138.223,177.575,136.908,177.063,135.058,176.343z"/>
	<path style="fill-rule:evenodd;clip-rule:evenodd;fill:#AAA8C5;" d="M175.628,249.975c1.835,0.094,2.939,0.15,4.423,0.227
		c0,1.484,0,2.82,0,4.504c-1.687,0-3.199,0-5.212,0C175.117,253.039,175.338,251.709,175.628,249.975z"/>
	<path style="fill-rule:evenodd;clip-rule:evenodd;fill:#ADABC6;" d="M185.404,250.25c1.941,0,3.167,0,4.687,0
		c0.155,1.389,0.293,2.623,0.484,4.33c-1.645,0.152-2.996,0.279-4.671,0.434C185.731,253.361,185.602,252.135,185.404,250.25z"/>
	<path style="fill-rule:evenodd;clip-rule:evenodd;fill:#5F5A90;" d="M272.636,207.829c0.336-0.271,0.674-0.541,1.01-0.812
		C273.31,207.288,272.972,207.558,272.636,207.829z"/>
</g>
</svg>
