<?xml version="1.0" encoding="UTF-8" standalone="no"?>
<svg
   xmlns:dc="http://purl.org/dc/elements/1.1/"
   xmlns:cc="http://creativecommons.org/ns#"
   xmlns:rdf="http://www.w3.org/1999/02/22-rdf-syntax-ns#"
   xmlns:svg="http://www.w3.org/2000/svg"
   xmlns="http://www.w3.org/2000/svg"
   viewBox="0 0 375 375"
   height="375"
   width="375"
   xml:space="preserve"
   version="1.1"
   id="svg2"><metadata
     id="metadata8"><rdf:RDF><cc:Work
         rdf:about=""><dc:format>image/svg+xml</dc:format><dc:type
           rdf:resource="http://purl.org/dc/dcmitype/StillImage" /></cc:Work></rdf:RDF></metadata><defs
     id="defs6" /><g
     transform="matrix(1.25,0,0,-1.25,0,375)"
     id="g10"><g
       transform="scale(0.1,0.1)"
       id="g12"><path
         id="path14"
         style="fill:#aebcc4;fill-opacity:1;fill-rule:nonzero;stroke:none"
         d="m 3000,529.855 c 0,-67.632 0,-529.85109375 -715,-529.85109375 l -1625,0 C 35,0.00390625 0,472.223 0,539.855 L 0,2399.86 c 0,545 592.352,600 660,600 l 1615,0.28 c 67.65,0 725,-0.28 725,-600.28" /><path
         id="path16"
         style="fill:#080828;fill-opacity:1;fill-rule:nonzero;stroke:none"
         d="m 481.672,424 59.5,0 0,139.641 c 0,6.718 0.484,12.953 2.406,17.765 6.235,17.75 22.547,33.11 45.578,33.11 32.641,0 45.11,-25.438 45.11,-59.516 l 0,-131 59.031,0 0,137.719 c 0,74.859 -41.75,101.265 -81.578,101.265 -14.875,0 -28.797,-3.843 -40.313,-10.562 -12.468,-6.719 -22.078,-15.844 -29.265,-26.875 l -0.969,0 0,139.172 -59.5,0 0,-340.719" /><path
         id="path18"
         style="fill:#080828;fill-opacity:1;fill-rule:nonzero;stroke:none"
         d="m 816.172,424 0,233.703 -59.5,0 0,-233.703 59.5,0 z m -29.75,331.109 c -19.672,0 -33.109,-13.906 -33.109,-32.14 0,-17.766 12.953,-31.672 32.625,-31.672 20.64,0 33.593,13.906 33.593,31.672 -0.468,18.234 -12.953,32.14 -33.109,32.14" /><path
         id="path20"
         style="fill:#080828;fill-opacity:1;fill-rule:nonzero;stroke:none"
         d="m 1040.88,657.703 -2.41,-31.203 -0.95,0 c -11.05,19.203 -32.16,36.484 -67.676,36.484 -56.141,0 -106.047,-46.546 -106.047,-123.328 0,-66.234 41.266,-114.218 99.328,-114.218 30.719,0 54.705,13.921 68.145,34.546 l 0.96,0 0,-20.156 c 0,-50.375 -28.79,-70.531 -67.183,-70.531 -28.313,0 -53.266,9.109 -68.141,17.75 l -12.953,-44.625 c 20.156,-12.484 51.828,-18.719 81.578,-18.719 32.157,0 65.739,6.719 90.219,28.313 24.47,22.078 34.55,57.109 34.55,106.062 l 0,132.438 c 0,32.156 0.95,51.343 1.92,67.187 l -51.34,0 z m -9.61,-131.484 c 0,-6.719 -0.96,-14.875 -2.39,-21.125 -6.72,-21.11 -25.93,-35.5 -47.989,-35.5 -36.953,0 -57.11,32.14 -57.11,71.969 0,47.515 24.469,76.312 57.578,76.312 24.951,0 41.751,-16.328 48.001,-37.922 1.44,-4.797 1.91,-10.547 1.91,-15.828 l 0,-37.906" /><path
         id="path22"
         style="fill:#080828;fill-opacity:1;fill-rule:nonzero;stroke:none"
         d="m 1153.67,424 59.5,0 0,139.641 c 0,6.718 0.49,12.953 2.41,17.765 6.23,17.75 22.55,33.11 45.58,33.11 32.64,0 45.11,-25.438 45.11,-59.516 l 0,-131 59.03,0 0,137.719 c 0,74.859 -41.75,101.265 -81.58,101.265 -14.88,0 -28.8,-3.843 -40.31,-10.562 -12.47,-6.719 -22.08,-15.844 -29.27,-26.875 l -0.97,0 0,139.172 -59.5,0 0,-340.719" /><path
         id="path24"
         style="fill:#080828;fill-opacity:1;fill-rule:nonzero;stroke:none"
         d="m 1712.42,424 c -2.39,14.391 -3.36,35.031 -3.36,56.141 l 0,84.468 c 0,50.86 -21.59,98.375 -96.45,98.375 -36.95,0 -67.19,-10.078 -84.45,-20.64 l 11.51,-38.391 c 15.83,10.078 39.83,17.281 62.86,17.281 41.27,0 47.52,-25.437 47.52,-40.796 l 0,-3.844 c -86.39,0.484 -138.69,-29.266 -138.69,-88.297 0,-35.5 26.39,-69.578 73.42,-69.578 30.24,0 54.7,12.953 69.1,31.187 l 1.43,0 3.85,-25.906 53.26,0 z m -60.94,82.063 c 0,-3.844 -0.48,-8.641 -1.92,-12.954 -5.28,-16.796 -22.56,-32.156 -46.08,-32.156 -18.7,0 -33.57,10.547 -33.57,33.594 0,35.5 39.82,44.625 81.57,43.656 l 0,-32.14" /><path
         id="path26"
         style="fill:#080828;fill-opacity:1;fill-rule:nonzero;stroke:none"
         d="m 1771.67,424 59.5,0 0,137.25 c 0,6.719 0.49,13.906 2.41,19.188 6.23,17.75 22.55,34.546 46.06,34.546 32.16,0 44.63,-25.421 44.63,-59.015 l 0,-131.969 59.03,0 0,138.688 c 0,73.89 -42.24,100.296 -83.02,100.296 -38.87,0 -64.31,-22.078 -74.39,-40.312 l -1.44,0 -2.87,35.031 -51.83,0 c 1.44,-20.156 1.92,-42.719 1.92,-69.594 l 0,-164.109" /><path
         id="path28"
         style="fill:#080828;fill-opacity:1;fill-rule:nonzero;stroke:none"
         d="m 2208.88,657.703 -2.41,-31.203 -0.95,0 c -11.05,19.203 -32.16,36.484 -67.68,36.484 -56.14,0 -106.04,-46.546 -106.04,-123.328 0,-66.234 41.26,-114.218 99.33,-114.218 30.71,0 54.7,13.921 68.14,34.546 l 0.96,0 0,-20.156 c 0,-50.375 -28.79,-70.531 -67.18,-70.531 -28.32,0 -53.27,9.109 -68.14,17.75 l -12.96,-44.625 c 20.16,-12.484 51.83,-18.719 81.58,-18.719 32.16,0 65.74,6.719 90.22,28.313 24.47,22.078 34.55,57.109 34.55,106.062 l 0,132.438 c 0,32.156 0.95,51.343 1.92,67.187 l -51.34,0 z m -9.61,-131.484 c 0,-6.719 -0.96,-14.875 -2.39,-21.125 -6.72,-21.11 -25.93,-35.5 -47.99,-35.5 -36.95,0 -57.11,32.14 -57.11,71.969 0,47.515 24.47,76.312 57.58,76.312 24.95,0 41.75,-16.328 48,-37.922 1.44,-4.797 1.91,-10.547 1.91,-15.828 l 0,-37.906" /><path
         id="path30"
         style="fill:#080828;fill-opacity:1;fill-rule:nonzero;stroke:none"
         d="m 2321.67,424 59.5,0 0,340.719 -59.5,0 0,-340.719 z" /><path
         id="path32"
         style="fill:#080828;fill-opacity:1;fill-rule:nonzero;stroke:none"
         d="m 2642.86,524.297 c 0.95,5.281 1.92,13.906 1.92,24.953 0,51.344 -24.95,113.734 -100.78,113.734 -74.86,0 -114.2,-60.953 -114.2,-125.734 0,-71.5 44.62,-118.047 120.45,-118.047 33.58,0 61.42,6.235 81.58,14.391 l -8.64,40.797 c -17.75,-6.719 -37.44,-10.563 -64.78,-10.563 -37.44,0 -70.55,18.235 -71.99,60.469 l 156.44,0 z m -156.44,41.266 c 2.39,24 17.75,57.109 54.22,57.109 39.36,0 48.95,-35.516 48.47,-57.109 l -102.69,0" /><path
         id="path34"
         style="fill:#080828;fill-opacity:1;fill-rule:nonzero;stroke:none"
         d="m 1740.69,2511.9 -111.88,-161.8 c 0,0 -32.17,46.57 -33.87,82.6 l -23.08,15.85 -75.42,-9.6 c 0,0 -21.25,-8.99 -59.54,22.93 l -193.8,132.87 c 0,0 -47.06,31.57 -13.52,93.05 l 63.44,92.5 c 0,0 39.67,34.9 86.59,9.36 l 190.87,-130.86 c 0,0 38.2,-25.71 41.5,-48.04 l 18.23,-77.78 23.38,-16.04 c 0,0 29.14,14.93 87.1,-5.04" /><path
         id="path36"
         style="fill:#ffffff;fill-opacity:1;fill-rule:evenodd;stroke:none"
         d="m 1920.57,943.523 c -0.73,24.172 23.3,36.852 45.12,41.032 40.63,7.761 65.27,36.785 65.44,78.145 0.13,38.69 0.37,77.39 -0.08,116.09 -0.36,30.55 -1.87,31.59 -32.26,31.57 l -85.17,0 c -1.16,17.03 -2.89,33.96 -3.3,50.94 -1.61,64.06 -2.87,128.09 -4.02,192.16 -0.35,19.81 14.38,34.08 34.02,34.5 9.79,0.2 19.56,1.45 33.84,2.56 -4.68,19.61 -8,37.82 -13.98,55.12 -1.45,4.16 -11.79,5.22 -19.68,8.36 -1.62,7.32 -3.7,16.68 -5.89,26.59 l -28.99,0 c 1.52,26.93 1.99,53.14 4.72,79.11 5.03,48.09 11.32,96.03 17.26,144.03 7.26,58.82 13.81,117.77 22.72,176.36 1.93,12.73 11.12,25.3 19.59,35.82 10.21,12.66 20.94,23.57 17.48,42.05 -0.91,4.84 4.61,10.7 6.43,16.33 3.11,9.55 7.29,19.17 7.97,28.98 0.81,11.78 -4.83,18.46 -19.01,17.85 -23.8,-1.05 -24.49,1.81 -29.74,25.92 -2.61,11.94 -10.81,22.59 -15.61,34.17 -1.72,4.11 -1.72,9.38 -1.09,13.93 3.23,23.5 11.01,46.88 13.78,70.41 0.51,4.31 -6.71,9.54 -9.41,13.68 -12.07,18.41 -7.55,32.43 13.45,37.31 28.32,6.57 56.75,12.82 85.39,17.78 18.04,3.14 32.12,-7.14 43.12,-19.84 34.1,-39.43 44.33,-83.41 20.68,-131.8 -8.14,-16.66 -7.12,-30.31 5.9,-43.3 7.39,-7.38 14.03,-15.61 21.89,-22.4 60.52,-52.1 74.82,-119.25 63.88,-194.68 -8.33,-57.53 -18.5,-114.28 -13.7,-173.57 5.05,-62.3 1.13,-125.3 1.13,-189.52 -9.74,-0.69 -18.6,-1.3 -29.97,-2.12 1.54,-21.32 3,-41.82 4.71,-65.59 7.83,0 14.86,-0.02 21.9,0 27.73,0.02 55.46,0.05 83.2,0.09 24.59,0.05 38.59,-13.66 38.96,-37.45 1.11,-71.46 2.43,-142.91 3.64,-214.37 0.11,-6.64 0.02,-13.31 0.02,-21.09 -41.13,-1.97 -80.84,-3.86 -121.73,-5.79 1.16,-12.68 3.35,-24.68 3.16,-36.66 -0.79,-51.57 -1.86,-103.12 -4.04,-154.6 -0.28,-6.56 -7.76,-12.79 -15.43,-17.79 1.48,-9.625 3.18,-19.215 4.4,-28.856 2.85,-22.558 -3.45,-32.578 -25.59,-34.168 -23.23,-1.66 -46.72,0.61 -70.04,-0.211 -11.43,-0.41 -22.68,-4.468 -34.11,-6 -41.21,-5.441 -81.27,1.899 -120.96,8.918" /><path
         id="path38"
         style="fill:none;stroke:#c1272d;stroke-width:30;stroke-linecap:butt;stroke-linejoin:miter;stroke-miterlimit:10;stroke-dasharray:120, 40;stroke-dashoffset:0;stroke-opacity:1"
         d="m 639.957,2244.98 1225.083,-4.96" /><path
         id="path40"
         style="fill:#c1272d;fill-opacity:1;fill-rule:nonzero;stroke:none"
         d="m 1706.11,2442.56 129.92,-86.77 21.6,32.88 c 0.69,0.13 1.5,-0.96 1.64,-1.63 l 18.71,-76.63 c 0.15,-0.67 -0.29,-1.31 -0.95,-1.44 l -77.76,-13.26 c -0.67,-0.12 -1.49,0.96 -1.66,1.62 l 19.91,30.28 -129.94,86.76" /></g></g></svg>