<?xml version="1.0" encoding="iso-8859-1"?>
<!-- Generator: Adobe Illustrator 16.0.3, SVG Export Plug-In . SVG Version: 6.00 Build 0)  -->
<!DOCTYPE svg PUBLIC "-//W3C//DTD SVG 1.1//EN" "http://www.w3.org/Graphics/SVG/1.1/DTD/svg11.dtd">
<svg version="1.1" id="Ebene_1" xmlns="http://www.w3.org/2000/svg" xmlns:xlink="http://www.w3.org/1999/xlink" x="0px" y="0px"
	 width="518px" height="518px" viewBox="0 0 518 518" style="enable-background:new 0 0 518 518;" xml:space="preserve">
<path style="fill-rule:evenodd;clip-rule:evenodd;fill:#1680B8;" d="M518,512c0,3.313-2.017,6-4.505,6H4.505
	C2.018,518,0,515.313,0,512V6c0-3.313,2.017-6,4.504-6h508.99C515.983,0,518,2.687,518,6V512z"/>
<g>
	<g id="XMLID_1_">
		<g>
			<path style="fill:#FCFBFB;" d="M259.039,25.99c96.51-0.58,177.17,79.81,175.04,178.93c-2.04,95.16-81.561,173.45-179.37,171.17
				c-94.72-2.21-173.28-81.439-170.77-179.76C86.349,101.91,164.509,25.46,259.039,25.99z M259.309,361.59
				c89.29-0.38,160.94-73.05,160.37-160.66c-0.58-89.03-72.779-160.79-161.03-160.56c-85.43,0.21-159.56,68.84-160.47,160.72
				C99.219,291.1,170.849,361.97,259.309,361.59z"/>
			<path style="fill:#1680B8;" d="M419.679,200.93c0.57,87.61-71.08,160.28-160.37,160.66c-88.46,0.38-160.09-70.49-161.13-160.5
				c0.91-91.88,75.04-160.51,160.47-160.72C346.899,40.14,419.099,111.9,419.679,200.93z"/>
		</g>
		<g>
		</g>
	</g>
</g>
<g>
	<rect x="-7.001" y="413" style="fill-rule:evenodd;clip-rule:evenodd;fill:none;" width="525.002" height="106"/>
	<path style="fill:#FFFFFF;" d="M87.055,435.144l-4.028,4.272V450.5H76.85v-35.547h6.177v16.675l3.418-4.224l10.4-12.451h7.471
		L91.108,430.7l13.965,19.8h-7.324L87.055,435.144z"/>
	<path style="fill:#FFFFFF;" d="M106.025,437.048c0-2.588,0.513-4.919,1.538-6.995c1.025-2.074,2.466-3.67,4.321-4.785
		c1.855-1.114,3.987-1.672,6.396-1.672c3.564,0,6.458,1.147,8.679,3.442s3.422,5.339,3.601,9.131l0.024,1.392
		c0,2.604-0.5,4.932-1.501,6.982s-2.434,3.638-4.297,4.761c-1.864,1.123-4.016,1.685-6.458,1.685c-3.728,0-6.71-1.241-8.948-3.723
		c-2.238-2.482-3.357-5.79-3.357-9.925V437.048z M111.958,437.561c0,2.719,0.562,4.846,1.685,6.385
		c1.123,1.537,2.686,2.307,4.688,2.307s3.56-0.781,4.675-2.344c1.115-1.563,1.672-3.849,1.672-6.86c0-2.669-0.574-4.785-1.721-6.348
		s-2.706-2.344-4.675-2.344c-1.937,0-3.475,0.769-4.614,2.308C112.527,432.201,111.958,434.501,111.958,437.561z"/>
	<path style="fill:#FFFFFF;" d="M141.914,450.5h-5.933V413h5.933V450.5z"/>
	<path style="fill:#FFFFFF;" d="M154.682,450.5h-5.933V413h5.933V450.5z"/>
	<path style="fill:#FFFFFF;" d="M172.773,450.988c-3.76,0-6.808-1.184-9.143-3.553c-2.336-2.367-3.503-5.521-3.503-9.46v-0.732
		c0-2.637,0.508-4.993,1.526-7.067c1.017-2.076,2.445-3.69,4.285-4.847c1.839-1.155,3.89-1.733,6.152-1.733
		c3.597,0,6.376,1.147,8.337,3.442c1.961,2.295,2.942,5.542,2.942,9.741v2.393h-17.261c0.179,2.182,0.907,3.906,2.185,5.176
		c1.277,1.27,2.885,1.904,4.822,1.904c2.718,0,4.932-1.099,6.641-3.296l3.198,3.052c-1.058,1.579-2.47,2.804-4.236,3.674
		C176.952,450.553,174.97,450.988,172.773,450.988z M172.065,428.356c-1.628,0-2.942,0.57-3.943,1.709
		c-1.001,1.14-1.64,2.727-1.917,4.761h11.304v-0.439c-0.13-1.985-0.659-3.487-1.587-4.504
		C174.995,428.865,173.708,428.356,172.065,428.356z"/>
	<path style="fill:#FFFFFF;" d="M196.552,439.172l-2.637,2.71v8.618h-5.933V413h5.933v21.631l1.855-2.319l7.3-8.228h7.129
		l-9.814,11.011L211.25,450.5h-6.86L196.552,439.172z"/>
	<path style="fill:#FFFFFF;" d="M221.503,417.663v6.421h4.663v4.395h-4.663v14.746c0,1.01,0.199,1.737,0.598,2.186
		c0.398,0.447,1.111,0.671,2.136,0.671c0.684,0,1.375-0.081,2.075-0.244v4.59c-1.351,0.374-2.653,0.562-3.906,0.562
		c-4.558,0-6.836-2.515-6.836-7.544v-14.966h-4.346v-4.395h4.346v-6.421H221.503z"/>
	<path style="fill:#FFFFFF;" d="M230.708,417.224c0-0.911,0.289-1.668,0.867-2.271c0.578-0.602,1.404-0.903,2.478-0.903
		s1.904,0.302,2.49,0.903c0.586,0.603,0.879,1.359,0.879,2.271c0,0.896-0.293,1.64-0.879,2.233c-0.586,0.595-1.416,0.892-2.49,0.892
		s-1.9-0.297-2.478-0.892C230.996,418.863,230.708,418.119,230.708,417.224z M237.006,450.5h-5.933v-26.416h5.933V450.5z"/>
	<path style="fill:#FFFFFF;" d="M252.778,442.98l5.591-18.896h6.128l-9.155,26.416h-5.151l-9.229-26.416h6.152L252.778,442.98z"/>
	<path style="fill:#FFFFFF;" d="M291.328,437.561c0,4.086-0.928,7.345-2.783,9.777c-1.855,2.434-4.346,3.65-7.471,3.65
		c-2.897,0-5.217-0.952-6.958-2.856v12.524h-5.933v-36.572h5.469l0.244,2.686c1.741-2.115,4.109-3.174,7.104-3.174
		c3.223,0,5.75,1.2,7.581,3.602c1.831,2.4,2.747,5.733,2.747,9.997V437.561z M285.419,437.048c0-2.637-0.525-4.728-1.575-6.274
		c-1.05-1.546-2.551-2.319-4.504-2.319c-2.425,0-4.167,1.001-5.225,3.003v11.719c1.074,2.051,2.832,3.076,5.273,3.076
		c1.888,0,3.365-0.761,4.431-2.283C284.886,442.447,285.419,440.141,285.419,437.048z"/>
	<path style="fill:#FFFFFF;" d="M310.175,429.504c-0.781-0.13-1.587-0.195-2.417-0.195c-2.718,0-4.549,1.042-5.493,3.125V450.5
		h-5.933v-26.416h5.664l0.146,2.954c1.432-2.295,3.418-3.442,5.957-3.442c0.846,0,1.546,0.114,2.1,0.342L310.175,429.504z"/>
	<path style="fill:#FFFFFF;" d="M328.974,450.5c-0.26-0.504-0.488-1.326-0.684-2.466c-1.888,1.97-4.199,2.954-6.933,2.954
		c-2.653,0-4.818-0.757-6.494-2.271c-1.677-1.514-2.515-3.385-2.515-5.615c0-2.815,1.045-4.977,3.137-6.481
		c2.091-1.506,5.082-2.259,8.973-2.259h3.637v-1.733c0-1.367-0.383-2.462-1.146-3.283c-0.766-0.822-1.93-1.233-3.492-1.233
		c-1.351,0-2.458,0.338-3.32,1.013c-0.863,0.676-1.294,1.535-1.294,2.576h-5.933c0-1.448,0.48-2.804,1.44-4.064
		c0.96-1.262,2.266-2.25,3.918-2.967c1.652-0.716,3.495-1.074,5.529-1.074c3.093,0,5.559,0.777,7.397,2.332
		c1.84,1.554,2.783,3.739,2.832,6.555v11.914c0,2.377,0.334,4.272,1.002,5.688v0.415H328.974z M322.456,446.228
		c1.172,0,2.273-0.284,3.308-0.854c1.033-0.569,1.811-1.334,2.331-2.295v-4.98h-3.197c-2.197,0-3.85,0.383-4.957,1.147
		c-1.107,0.766-1.66,1.848-1.66,3.247c0,1.14,0.378,2.047,1.135,2.723C320.173,445.89,321.186,446.228,322.456,446.228z"/>
	<path style="fill:#FFFFFF;" d="M345.747,424.084l0.171,3.052c1.953-2.359,4.517-3.54,7.69-3.54c5.501,0,8.301,3.149,8.398,9.448
		V450.5h-5.933v-17.114c0-1.676-0.362-2.917-1.087-3.724c-0.724-0.805-1.908-1.208-3.552-1.208c-2.393,0-4.175,1.083-5.347,3.247
		V450.5h-5.933v-26.416H345.747z"/>
	<path style="fill:#FFFFFF;" d="M367.012,437.097c0-4.102,0.965-7.377,2.893-9.827c1.93-2.449,4.488-3.674,7.679-3.674
		c3.011,0,5.379,1.05,7.104,3.149l0.269-2.661h5.347v25.61c0,3.467-1.078,6.201-3.234,8.203c-2.157,2.002-5.066,3.003-8.729,3.003
		c-1.938,0-3.829-0.402-5.676-1.209c-1.848-0.805-3.252-1.859-4.212-3.161l2.808-3.564c1.822,2.164,4.068,3.247,6.738,3.247
		c1.969,0,3.523-0.533,4.663-1.6c1.139-1.065,1.709-2.633,1.709-4.699v-1.782c-1.709,1.904-3.988,2.856-6.836,2.856
		c-3.093,0-5.619-1.229-7.581-3.687C367.992,444.845,367.012,441.442,367.012,437.097z M372.92,437.609
		c0,2.653,0.541,4.74,1.623,6.262c1.083,1.522,2.584,2.283,4.505,2.283c2.393,0,4.166-1.025,5.322-3.076v-11.621
		c-1.123-2.002-2.881-3.003-5.273-3.003c-1.953,0-3.471,0.773-4.554,2.319C373.461,432.32,372.92,434.599,372.92,437.609z"/>
	<path style="fill:#FFFFFF;" d="M408.027,450.988c-3.76,0-6.808-1.184-9.144-3.553c-2.335-2.367-3.503-5.521-3.503-9.46v-0.732
		c0-2.637,0.509-4.993,1.526-7.067c1.017-2.076,2.444-3.69,4.284-4.847c1.839-1.155,3.89-1.733,6.152-1.733
		c3.597,0,6.376,1.147,8.337,3.442c1.962,2.295,2.942,5.542,2.942,9.741v2.393h-17.261c0.179,2.182,0.907,3.906,2.186,5.176
		c1.277,1.27,2.884,1.904,4.821,1.904c2.718,0,4.932-1.099,6.641-3.296l3.198,3.052c-1.059,1.579-2.47,2.804-4.236,3.674
		C412.206,450.553,410.225,450.988,408.027,450.988z M407.319,428.356c-1.628,0-2.941,0.57-3.943,1.709
		c-1,1.14-1.64,2.727-1.916,4.761h11.304v-0.439c-0.131-1.985-0.659-3.487-1.587-4.504
		C410.249,428.865,408.963,428.356,407.319,428.356z"/>
	<path style="fill:#FFFFFF;" d="M437.056,429.504c-0.781-0.13-1.587-0.195-2.417-0.195c-2.719,0-4.55,1.042-5.493,3.125V450.5
		h-5.933v-26.416h5.664l0.146,2.954c1.432-2.295,3.418-3.442,5.957-3.442c0.846,0,1.546,0.114,2.1,0.342L437.056,429.504z"/>
</g>
<path style="fill-rule:evenodd;clip-rule:evenodd;fill:#F5F9FB;" d="M259.827,152.046c5.497,0.032,11.016-0.214,16.484,0.203
	c3.209,0.244,6.336,1.545,9.782,2.444c3.077-7.245,10.95-2.33,16.649-4.314c-8.457-12.402-8.332-20.226,0.35-27.34
	c6.896-5.651,15.184-5.228,21.607,1.104c7.606,7.498,7.086,15.057-2.254,26.67c3.172,0,5.92-0.006,8.667,0
	c7.38,0.017,9.424,1.457,10.509,9.023c1.416,9.881,2.321,19.836,3.385,29.766c0.461,4.294,1.025,8.603,1.064,12.908
	c0.032,3.668-0.28,7.664-5.037,8.565c-4.703,0.891-6.426-2.438-7.818-6.033c-0.199-0.518-0.449-1.017-1.676-1.345
	c0,1.75,0,3.5,0,5.25c0,19.66,0.022,39.321-0.031,58.981c-0.006,2.14-0.029,4.432-0.755,6.391
	c-2.938,7.933-10.482,8.649-17.452,1.805c-6.982,6.272-12.633,6.386-16.648,0c-1.146-1.821-1.592-4.36-1.603-6.574
	c-0.112-22.321-0.069-44.645-0.818-67.201c-0.496,1.218-0.983,2.439-1.489,3.653c-1.298,3.117-3.078,5.518-6.996,5.184
	c-4.188-0.356-4.967-3.568-5.43-6.698c-0.947-6.415-1.549-12.88-2.355-19.316c-0.236-1.884-0.682-3.74-1.945-5.482
	c0,10.798,0,21.596,0,32.394c0,18.661,0.008,37.321-0.016,55.982c-0.003,1.653,0.148,3.447-0.414,4.933
	c-1.451,3.833-3.924,6.656-8.57,6.065c-4.247-0.54-6.977-3.913-7.008-8.914c-0.078-12.828-0.026-25.658-0.027-38.487
	c0-1.606,0-3.214,0-4.82c-0.383-0.01-0.768-0.02-1.15-0.028c-0.098,1.758-0.273,3.516-0.277,5.273
	c-0.024,12.33,0.004,24.659-0.021,36.989c-0.013,6.282-2.966,10.013-7.88,10.076c-4.759,0.063-7.832-3.847-7.836-10.092
	c-0.014-27.824-0.006-55.649-0.006-83.475c0-1.735,0-3.471,0-5.206c-0.528-0.032-1.057-0.065-1.584-0.098
	c-0.652,6.426-1.334,12.85-1.941,19.28c-0.186,1.973,0.4,4.237-0.387,5.881c-1.026,2.148-2.719,4.629-4.751,5.492
	c-2.936,1.247-5.397-0.745-6.753-3.615c-0.679-1.439-1.198-2.954-2.539-4.356c0,1.549,0,3.098,0,4.646
	c0,20.161-0.072,40.321,0.049,60.481c0.031,5.279-1.299,9.686-6.335,11.955c-5.079,2.289-8.921-0.229-12.14-4.234
	c-3.223,3.793-6.891,6.465-11.836,4.405c-5.311-2.211-6.705-6.735-6.67-12.235c0.14-21.656,0.057-43.314-0.586-65.255
	c-0.633,1.474-0.891,3.382-1.981,4.324c-1.943,1.679-4.45,3.875-6.61,3.761c-1.723-0.092-4.643-3.275-4.674-5.126
	c-0.129-7.61,0.457-15.253,1.135-22.852c0.664-7.456,1.664-14.887,2.685-22.305c1.122-8.16,3.043-9.711,11.404-9.717
	c2.266-0.002,4.531,0,7.124,0c-8.756-11.735-8.943-19.776-0.969-27.063c6.701-6.123,15.077-6.249,21.605-0.326
	c8.33,7.559,8.116,15.098-0.854,26.889c5.67,2.104,12.971-2.516,17.322,4.163c7.492-4.397,15.714-1.374,23.486-2.472
	C257.951,152.019,258.889,152.032,259.827,152.046z M178.263,207.668c0.911,0.089,1.822,0.178,2.734,0.268
	c1.006-3.134,2.369-6.204,2.941-9.415c1.139-6.383,1.742-12.86,2.814-19.257c0.203-1.206,1.555-2.219,2.377-3.32
	c0.885,1.23,2.053,2.355,2.566,3.725c0.441,1.176,0.152,2.633,0.152,3.965c0.005,13.665,0.003,27.329,0.004,40.994
	c0,14.832,0.036,29.663-0.023,44.494c-0.017,4.16,1.322,7.357,5.774,7.91c3.591,0.446,6.088-3.05,6.208-8.034
	c0.023-0.999,0.004-1.999,0.004-2.999c0-12.165-0.113-24.333,0.123-36.493c0.035-1.83,1.701-3.629,2.614-5.442
	c0.819,1.746,2.229,3.454,2.347,5.246c0.326,4.979,0.111,9.991,0.113,14.99c0.003,8.666-0.085,17.333,0.054,25.996
	c0.06,3.741,1.923,6.666,5.933,6.677c3.976,0.011,5.701-2.852,5.97-6.598c0.083-1.161,0.017-2.332,0.017-3.499
	c0-27.496-0.002-54.992,0.006-82.489c0-1.664-0.193-3.402,0.221-4.97c0.33-1.253,1.448-2.297,2.217-3.434
	c0.877,1.015,2.28,1.912,2.538,3.065c0.97,4.337,1.565,8.758,2.302,13.146c0.777-2.299,1.209-4.571,1.354-6.862
	c0.533-8.427,1.164-16.854,1.367-25.292c0.102-4.265-2.529-5.983-6.87-5.917c-11.663,0.179-23.334,0.254-34.992-0.03
	c-4.921-0.12-7.013,1.977-7.526,6.517c-1.498,13.229-3.146,26.44-4.48,39.685C176.88,202.689,177.851,205.207,178.263,207.668z
	 M289.304,194.655c0.626-0.073,1.252-0.147,1.879-0.221c0.553-3.909,0.867-7.872,1.744-11.707c0.539-2.361,1.936-4.526,2.948-6.779
	c0.886,2.397,2.528,4.79,2.543,7.192c0.181,27.991,0.108,55.983,0.134,83.976c0.001,1.818-0.384,4.105,0.532,5.347
	c1.412,1.914,3.869,4.371,5.745,4.261c1.908-0.112,3.933-2.853,5.347-4.84c0.726-1.021,0.278-2.909,0.28-4.405
	c0.015-11.33-0.17-22.664,0.121-33.987c0.082-3.208-2.166-9.094,2.752-8.986c4.583,0.101,2.514,5.987,2.583,9.296
	c0.254,12.158,0.11,24.324,0.097,36.487c-0.005,3.946,1.881,6.648,5.801,6.68c3.932,0.031,5.689-2.872,5.986-6.604
	c0.092-1.159,0.018-2.332,0.02-3.498c0.057-28.656,0.077-57.313,0.266-85.969c0.01-1.645,1.387-3.279,2.128-4.918
	c0.974,1.485,2.534,2.866,2.818,4.473c1.217,6.875,1.808,13.866,3.179,20.705c0.443,2.216,2.572,4.095,3.931,6.128
	c0.772-2.326,2.385-4.729,2.18-6.965c-1.229-13.423-2.875-26.808-4.385-40.205c-0.501-4.451-2.902-6.112-7.438-6.013
	c-11.158,0.247-22.326,0.076-33.489,0.083c-6.96,0.004-8.653,0.916-8.753,7.779C288.095,172.854,288.903,183.758,289.304,194.655z
	 M206.029,149.147c6.714,0.036,13.646-6.379,13.752-12.728c0.106-6.371-6.692-13.418-13.069-13.544
	c-6.437-0.128-13.615,6.991-13.668,13.554C192.993,142.833,199.404,149.112,206.029,149.147z M312.719,149.146
	c6.849,0.079,13.536-6.099,13.708-12.664c0.171-6.485-6.439-13.478-12.869-13.614c-6.516-0.14-13.57,6.827-13.658,13.486
	C299.814,142.879,306.017,149.068,312.719,149.146z"/>
<path style="fill-rule:evenodd;clip-rule:evenodd;fill:#F9FBFC;" d="M259.827,152.046c-0.938-0.014-1.876-0.027-2.814-0.042
	c-1.104-0.605-2.174-1.285-3.316-1.805c-6.461-2.934-10.453-9.282-9.602-15.341c0.949-6.748,7.313-13.182,13.766-13.917
	c6.359-0.725,12.894,3.498,15.57,10.063c3.094,7.586-0.941,15.998-9.232,19.262C262.734,150.844,261.283,151.452,259.827,152.046z"
	/>
</svg>
