<?xml version="1.0" encoding="iso-8859-1"?>
<!-- Generator: Adobe Illustrator 16.0.3, SVG Export Plug-In . SVG Version: 6.00 Build 0)  -->
<!DOCTYPE svg PUBLIC "-//W3C//DTD SVG 1.1//EN" "http://www.w3.org/Graphics/SVG/1.1/DTD/svg11.dtd">
<svg version="1.1" id="Ebene_1" xmlns="http://www.w3.org/2000/svg" xmlns:xlink="http://www.w3.org/1999/xlink" x="0px" y="0px"
	 width="518px" height="518px" viewBox="0 0 518 518" style="enable-background:new 0 0 518 518;" xml:space="preserve">
<path style="fill-rule:evenodd;clip-rule:evenodd;fill:#458C79;" d="M518,512c0,3.313-2.017,6-4.505,6H4.505
	C2.018,518,0,515.313,0,512V6c0-3.313,2.017-6,4.504-6h508.99C515.983,0,518,2.687,518,6V512z"/>
<g>
	<g id="XMLID_1_">
		<g>
			<path style="fill:#FCFBFB;" d="M259.039,25.99c96.51-0.58,177.17,79.81,175.04,178.93c-2.04,95.16-81.561,173.45-179.37,171.17
				c-94.72-2.21-173.28-81.439-170.77-179.76C86.349,101.91,164.509,25.46,259.039,25.99z M259.309,361.59
				c89.29-0.38,160.94-73.05,160.37-160.66c-0.58-89.03-72.779-160.79-161.03-160.56c-85.43,0.21-159.56,68.84-160.47,160.72
				C99.219,291.1,170.849,361.97,259.309,361.59z"/>
			<path style="fill:#458C79;" d="M419.679,200.93c0.57,87.61-71.08,160.28-160.37,160.66c-88.46,0.38-160.09-70.49-161.13-160.5
				c0.91-91.88,75.04-160.51,160.47-160.72C346.899,40.14,419.099,111.9,419.679,200.93z"/>
		</g>
		<g>
		</g>
	</g>
</g>
<g>
	<rect x="-7.001" y="413" style="fill-rule:evenodd;clip-rule:evenodd;fill:none;" width="525.002" height="106"/>
	<path style="fill:#FFFFFF;" d="M210.456,445.568h16.138v4.932h-22.314v-35.547h6.177V445.568z"/>
	<path style="fill:#FFFFFF;" d="M246.418,447.912c-1.742,2.051-4.216,3.076-7.422,3.076c-2.865,0-5.034-0.838-6.506-2.515
		c-1.473-1.676-2.209-4.102-2.209-7.275v-17.114h5.933v17.041c0,3.354,1.392,5.029,4.175,5.029c2.881,0,4.826-1.033,5.835-3.101
		v-18.97h5.933V450.5h-5.591L246.418,447.912z M232.624,417.15c0-0.813,0.272-1.497,0.818-2.051c0.545-0.553,1.298-0.83,2.258-0.83
		c0.96,0,1.717,0.277,2.271,0.83c0.553,0.554,0.83,1.237,0.83,2.051c0,0.814-0.277,1.498-0.83,2.051
		c-0.554,0.554-1.311,0.83-2.271,0.83c-0.96,0-1.713-0.276-2.258-0.83C232.896,418.648,232.624,417.965,232.624,417.15z
		 M243.781,417.175c0-0.813,0.272-1.497,0.818-2.051c0.545-0.553,1.298-0.83,2.258-0.83c0.96,0,1.717,0.277,2.271,0.83
		c0.553,0.554,0.83,1.237,0.83,2.051c0,0.814-0.277,1.498-0.83,2.051c-0.554,0.554-1.311,0.83-2.271,0.83
		c-0.96,0-1.713-0.276-2.258-0.83C244.054,418.673,243.781,417.989,243.781,417.175z"/>
	<path style="fill:#FFFFFF;" d="M257.16,437.097c0-4.102,0.964-7.377,2.893-9.827c1.929-2.449,4.488-3.674,7.678-3.674
		c3.011,0,5.379,1.05,7.104,3.149l0.269-2.661h5.347v25.61c0,3.467-1.079,6.201-3.235,8.203c-2.157,2.002-5.066,3.003-8.728,3.003
		c-1.937,0-3.829-0.402-5.676-1.209c-1.848-0.805-3.251-1.859-4.211-3.161l2.808-3.564c1.823,2.164,4.069,3.247,6.738,3.247
		c1.969,0,3.523-0.533,4.663-1.6c1.139-1.065,1.709-2.633,1.709-4.699v-1.782c-1.709,1.904-3.988,2.856-6.836,2.856
		c-3.093,0-5.62-1.229-7.581-3.687C258.141,444.845,257.16,441.442,257.16,437.097z M263.068,437.609
		c0,2.653,0.541,4.74,1.624,6.262c1.082,1.522,2.583,2.283,4.504,2.283c2.393,0,4.167-1.025,5.322-3.076v-11.621
		c-1.123-2.002-2.881-3.003-5.273-3.003c-1.953,0-3.471,0.773-4.553,2.319C263.609,432.32,263.068,434.599,263.068,437.609z"/>
	<path style="fill:#FFFFFF;" d="M298.176,450.988c-3.76,0-6.808-1.184-9.143-3.553c-2.336-2.367-3.503-5.521-3.503-9.46v-0.732
		c0-2.637,0.508-4.993,1.526-7.067c1.017-2.076,2.445-3.69,4.285-4.847c1.839-1.155,3.89-1.733,6.152-1.733
		c3.597,0,6.376,1.147,8.337,3.442c1.961,2.295,2.942,5.542,2.942,9.741v2.393h-17.261c0.179,2.182,0.907,3.906,2.185,5.176
		c1.277,1.27,2.885,1.904,4.822,1.904c2.718,0,4.932-1.099,6.641-3.296l3.198,3.052c-1.058,1.579-2.47,2.804-4.236,3.674
		C302.354,450.553,300.373,450.988,298.176,450.988z M297.468,428.356c-1.628,0-2.942,0.57-3.943,1.709
		c-1.001,1.14-1.64,2.727-1.917,4.761h11.304v-0.439c-0.13-1.985-0.659-3.487-1.587-4.504
		C300.397,428.865,299.111,428.356,297.468,428.356z"/>
</g>
<g>
	<path style="fill-rule:evenodd;clip-rule:evenodd;fill:#FFFFFF;" d="M376.286,202.961c0.036,24.067-19.149,43.616-43.267,43.652
		c-23.933,0.036-43.905-18.282-43.924-43.58c-0.02-24.999,19.454-43.305,43.351-43.688
		C356.599,158.958,376.249,178.697,376.286,202.961z M369.921,203.089c0.838-18.992-15.879-37.497-36.864-37.374
		c-20.837,0.122-37.735,16.533-37.768,37.187c-0.033,20.697,16.799,37.271,37.583,37.366
		C354.595,240.366,370.69,221.55,369.921,203.089z"/>
	<path style="fill-rule:evenodd;clip-rule:evenodd;fill:#FFFFFF;" d="M187.114,246.662c-24.177-0.054-43.487-19.651-43.402-44.048
		c0.083-23.934,19.969-43.697,43.678-43.275c24.285,0.432,43.425,18.839,43.488,43.547
		C230.942,228.143,211.193,246.355,187.114,246.662z M150.077,202.816c-1.083,18.483,15.41,37.72,37.252,37.464
		c20.536-0.24,37.307-16.676,37.379-37.105c0.073-20.67-16.746-37.232-37.521-37.461
		C165.776,165.479,149.18,184.376,150.077,202.816z"/>
	<path style="fill-rule:evenodd;clip-rule:evenodd;fill:#FFFFFF;" d="M244.043,199.898c0-2.151,0-3.918,0-6.175
		c10.584,0,20.937,0,31.723,0c0,2.034,0,3.905,0,6.175C265.382,199.898,255.012,199.898,244.043,199.898z"/>
	<path style="fill-rule:evenodd;clip-rule:evenodd;fill:#FFFFFF;" d="M243.974,212.583c0-2.729,0-4.359,0-6.432
		c10.656,0,21.15,0,31.855,0c0.138,0.994,0.325,1.785,0.338,2.58c0.016,0.977-0.114,1.956-0.243,3.851
		C265.318,212.899,254.841,212.844,243.974,212.583z"/>
	<path style="fill-rule:evenodd;clip-rule:evenodd;fill:#FFFFFF;" d="M357.481,186.779c1.598,1.718,2.693,2.896,4.217,4.533
		c-10.674,10.404-21.115,20.581-31.15,30.361c-6.559-6.573-12.829-12.858-19.498-19.542c0.592-0.641,1.769-1.912,3.513-3.799
		c4.838,5.479,9.431,10.678,14.271,16.157C338.919,204.736,347.978,195.974,357.481,186.779z"/>
	<path style="fill-rule:evenodd;clip-rule:evenodd;fill:#FFFFFF;" d="M186.661,200.135c6.636-7.086,12.301-13.134,18.284-19.522
		c1.696,1.567,2.957,2.731,4.541,4.195c-6.459,5.955-12.65,11.662-19.327,17.817c6.645,6.695,12.195,12.289,18.091,18.23
		c-1.42,1.521-2.599,2.783-4.227,4.526c-5.904-5.844-11.525-11.408-17.655-17.476c-5.48,5.964-10.743,11.69-16.338,17.779
		c-2.006-1.819-3.276-2.971-5.118-4.642c5.816-5.887,11.36-11.499,17.353-17.564c-5.931-5.6-11.585-10.937-18.248-17.227
		c2.316-1.548,3.887-2.598,6.189-4.136C175.315,187.713,180.568,193.464,186.661,200.135z"/>
</g>
</svg>
