<svg xmlns="http://www.w3.org/2000/svg" xmlns:xlink="http://www.w3.org/1999/xlink" width="300" height="300" viewBox="0 0 300 300"><symbol id="a" viewBox="-150 -150 300 300.015"><path fill="#AEBCC4" d="M150-97.015c0-6.763 0-52.985-71.5-52.985H-84c-62.5 0-66 47.223-66 53.985v186c0 54.5 59.235 60 66 60l161.5.029c6.765 0 72.5-.029 72.5-60.029v-187z"/></symbol><use xlink:href="#a" width="300" height="300.015" x="-150" y="-150" transform="matrix(1 0 0 -1 150 151)" overflow="visible"/><path fill="none" d="M0 204h300v96H0z"/><path fill="#080828" d="M41.065 206.157c2.112-.384 5.041-.672 9.025-.672 4.32 0 7.489.912 9.553 2.64 1.92 1.585 3.168 4.129 3.168 7.153 0 3.072-.96 5.616-2.784 7.345-2.353 2.352-6.049 3.456-10.225 3.456-1.104 0-2.112-.048-2.88-.192v12.193h-5.856v-31.923zm5.857 15.073c.72.192 1.68.24 2.88.24 4.417 0 7.104-2.16 7.104-5.952 0-3.601-2.496-5.521-6.577-5.521-1.632 0-2.784.144-3.408.288v10.945zM70.634 228.047c.144 4.225 3.456 6.049 7.201 6.049 2.736 0 4.704-.384 6.48-1.056l.864 4.08c-2.016.816-4.8 1.44-8.161 1.44-7.584 0-12.049-4.657-12.049-11.81 0-6.48 3.937-12.577 11.425-12.577 7.585 0 10.081 6.24 10.081 11.377 0 1.104-.096 1.969-.192 2.496H70.634zm10.273-4.128c.048-2.16-.912-5.713-4.849-5.713-3.648 0-5.185 3.313-5.424 5.713h10.273zM91.225 222.238c0-3.168-.048-5.424-.192-7.536h5.137l.192 4.464h.192c1.152-3.312 3.889-4.992 6.385-4.992.576 0 .912.048 1.392.145v5.568a8.142 8.142 0 0 0-1.728-.192c-2.833 0-4.752 1.824-5.281 4.465-.096.527-.192 1.151-.192 1.824v12.097h-5.904v-15.843zM125.066 237.36c-1.248.576-3.696 1.2-6.625 1.2-7.296 0-12.049-4.657-12.049-11.905 0-7.009 4.8-12.481 13.009-12.481 2.16 0 4.368.48 5.712 1.104l-1.056 4.416c-.96-.432-2.352-.912-4.464-.912-4.512 0-7.201 3.313-7.153 7.585 0 4.801 3.121 7.536 7.153 7.536 2.064 0 3.504-.432 4.656-.912l.817 4.369zM133.178 228.047c.144 4.225 3.456 6.049 7.201 6.049 2.736 0 4.704-.384 6.48-1.056l.864 4.08c-2.016.816-4.8 1.44-8.161 1.44-7.584 0-12.049-4.657-12.049-11.81 0-6.48 3.937-12.577 11.425-12.577 7.585 0 10.081 6.24 10.081 11.377 0 1.104-.096 1.969-.192 2.496h-15.649zm10.273-4.128c.048-2.16-.912-5.713-4.849-5.713-3.648 0-5.185 3.313-5.424 5.713h10.273zM153.77 222.479c0-3.072-.097-5.568-.193-7.776h5.186l.287 3.601h.097c1.728-2.641 4.464-4.129 8.017-4.129 5.377 0 9.841 4.608 9.841 11.905 0 8.448-5.329 12.529-10.657 12.529-2.928 0-5.376-1.248-6.576-3.12h-.096v12.097h-5.904v-25.107zm5.904 5.808c0 .576.047 1.104.191 1.632.576 2.4 2.688 4.129 5.185 4.129 3.744 0 5.952-3.12 5.952-7.729 0-4.129-2.016-7.489-5.809-7.489-2.447 0-4.704 1.776-5.279 4.369a5.31 5.31 0 0 0-.24 1.487v3.601zM188.617 208.029v6.673h5.616v4.416h-5.616v10.321c0 2.832.768 4.32 3.023 4.32a8.768 8.768 0 0 0 2.305-.288l.096 4.513c-.863.336-2.4.576-4.271.576-2.16 0-3.984-.721-5.089-1.921-1.248-1.344-1.824-3.456-1.824-6.528v-10.993h-3.36v-4.416h3.36v-5.28l5.76-1.393zM204.985 208.174c0 1.775-1.296 3.168-3.36 3.168-1.969 0-3.265-1.393-3.265-3.168 0-1.824 1.345-3.217 3.313-3.217 2.016 0 3.265 1.393 3.312 3.217zm-6.288 29.906v-23.378h5.951v23.378h-5.951zM233.211 226.175c0 8.593-6.049 12.434-12.001 12.434-6.625 0-11.714-4.561-11.714-12.05 0-7.68 5.041-12.385 12.098-12.385 6.961 0 11.617 4.896 11.617 12.001zm-17.617.24c0 4.513 2.207 7.921 5.808 7.921 3.36 0 5.713-3.313 5.713-8.017 0-3.648-1.632-7.825-5.665-7.825-4.177 0-5.856 4.032-5.856 7.921zM238.057 221.663c0-2.688-.048-4.945-.191-6.961h5.185l.288 3.504h.144c1.008-1.824 3.553-4.032 7.44-4.032 4.08 0 8.305 2.641 8.305 10.033v13.873h-5.904v-13.201c0-3.36-1.248-5.904-4.465-5.904-2.352 0-3.984 1.68-4.608 3.456-.191.528-.239 1.248-.239 1.92v13.729h-5.953v-16.417zM105.192 279.647c1.92 1.104 4.801 2.064 7.825 2.064 3.792 0 5.905-1.776 5.905-4.417 0-2.448-1.632-3.888-5.761-5.376-5.329-1.92-8.737-4.753-8.737-9.409 0-5.28 4.417-9.313 11.425-9.313 3.504 0 6.096.768 7.776 1.632l-1.44 4.753c-1.152-.624-3.408-1.536-6.433-1.536-3.744 0-5.376 2.016-5.376 3.888 0 2.497 1.872 3.648 6.192 5.329 5.617 2.112 8.353 4.944 8.353 9.601 0 5.185-3.937 9.697-12.289 9.697-3.409 0-6.961-.961-8.737-2.017l1.297-4.896zM129.865 251.997h5.952v13.921h.096a7.922 7.922 0 0 1 2.928-2.688c1.152-.673 2.544-1.057 4.032-1.057 3.984 0 8.161 2.641 8.161 10.129v13.777h-5.904v-13.105c0-3.408-1.248-5.952-4.512-5.952-2.304 0-3.937 1.536-4.561 3.313-.192.479-.24 1.104-.24 1.776v13.969h-5.952v-34.083zM179.546 274.175c0 8.593-6.048 12.434-12.001 12.434-6.625 0-11.713-4.561-11.713-12.05 0-7.68 5.041-12.385 12.098-12.385 6.96 0 11.616 4.896 11.616 12.001zm-17.617.24c0 4.513 2.208 7.921 5.808 7.921 3.361 0 5.713-3.313 5.713-8.017 0-3.648-1.632-7.825-5.664-7.825-4.177 0-5.857 4.032-5.857 7.921zM191.16 256.029v6.673h5.617v4.416h-5.617v10.321c0 2.832.769 4.32 3.024 4.32a8.76 8.76 0 0 0 2.304-.288l.097 4.513c-.864.336-2.4.576-4.272.576-2.16 0-3.984-.721-5.088-1.921-1.248-1.344-1.824-3.456-1.824-6.528v-10.993h-3.361v-4.416h3.361v-5.28l5.759-1.393z"/><g><path fill="none" d="M10 2h307"/><path clip-rule="evenodd" fill="none" stroke="#FFF" stroke-width="8.689" stroke-miterlimit="10" d="M8.615 106.295s137.943-144.462 282.402 0c.001 0-135.769 145.548-282.402 0z"/><ellipse clip-rule="evenodd" fill="none" stroke="#FFF" stroke-width="10.147" stroke-miterlimit="10" cx="148.73" cy="106.838" rx="55.393" ry="61.367"/><path fill-rule="evenodd" clip-rule="evenodd" fill="#FFF" stroke="#FFF" stroke-width="10.147" stroke-miterlimit="10" d="M187.834 106.295c0 22.793-17.269 41.273-38.56 41.273-21.294 0-38.563-18.479-38.563-41.273 0-22.795 17.269-41.276 38.563-41.276 21.291 0 38.56 18.481 38.56 41.276z"/></g><g><path fill="#C1272D" d="M116.968 133.778s1.332-26.739 12.537-34.638l4.002-2.431c5.596-.609 8.269-1.823 9.331-4.56 0 0 1.867-.503 1.867-6.281 0 0-7.465-7.897-1.6-19.037 0 0 9.247-9.726 16.269.098 1.249 3.441 5.067 11.042-3.824 20.156 0 0-.705 2.026.89 6.888 0 0 4.004 5.471 11.74 8.51 7.771 3.052 11.092 15.545 12.528 31.599l-63.74-.304z"/></g></svg>