<?xml version="1.0" encoding="iso-8859-1"?>
<!-- Generator: Adobe Illustrator 16.0.3, SVG Export Plug-In . SVG Version: 6.00 Build 0)  -->
<!DOCTYPE svg PUBLIC "-//W3C//DTD SVG 1.1//EN" "http://www.w3.org/Graphics/SVG/1.1/DTD/svg11.dtd">
<svg version="1.1" id="Ebene_1" xmlns="http://www.w3.org/2000/svg" xmlns:xlink="http://www.w3.org/1999/xlink" x="0px" y="0px"
	 width="518px" height="518px" viewBox="0 0 518 518" style="enable-background:new 0 0 518 518;" xml:space="preserve">
<path style="fill-rule:evenodd;clip-rule:evenodd;fill:#7B74A8;" d="M518,512c0,3.313-2.017,6-4.505,6H4.505
	C2.018,518,0,515.313,0,512V6c0-3.313,2.017-6,4.504-6h508.99C515.983,0,518,2.687,518,6V512z"/>
<g>
	<g id="XMLID_1_">
		<g>
			<path style="fill:#FCFBFB;" d="M259.039,25.99c96.51-0.58,177.17,79.81,175.04,178.93c-2.04,95.16-81.561,173.45-179.37,171.17
				c-94.72-2.21-173.28-81.439-170.77-179.76C86.349,101.91,164.509,25.46,259.039,25.99z M259.309,361.59
				c89.29-0.38,160.94-73.05,160.37-160.66c-0.58-89.03-72.779-160.79-161.03-160.56c-85.43,0.21-159.56,68.84-160.47,160.72
				C99.219,291.1,170.849,361.97,259.309,361.59z"/>
			<path style="fill:#7B74A8;" d="M419.679,200.93c0.57,87.61-71.08,160.28-160.37,160.66c-88.46,0.38-160.09-70.49-161.13-160.5
				c0.91-91.88,75.04-160.51,160.47-160.72C346.899,40.14,419.099,111.9,419.679,200.93z"/>
		</g>
		<g>
		</g>
	</g>
</g>
<g>
	<rect x="-7.001" y="413" style="fill-rule:evenodd;clip-rule:evenodd;fill:none;" width="525.002" height="106"/>
	<path style="fill:#FFFFFF;" d="M130.134,441.345c0-1.563-0.549-2.767-1.648-3.613c-1.099-0.846-3.081-1.7-5.945-2.563
		c-2.865-0.862-5.144-1.822-6.836-2.881c-3.239-2.034-4.858-4.688-4.858-7.959c0-2.864,1.167-5.225,3.503-7.08
		c2.335-1.855,5.367-2.783,9.094-2.783c2.474,0,4.679,0.456,6.616,1.367c1.937,0.912,3.458,2.209,4.565,3.895
		c1.106,1.684,1.66,3.552,1.66,5.603h-6.152c0-1.855-0.582-3.308-1.746-4.358c-1.164-1.049-2.828-1.574-4.993-1.574
		c-2.019,0-3.585,0.432-4.7,1.294c-1.115,0.863-1.672,2.067-1.672,3.613c0,1.303,0.602,2.389,1.807,3.259
		c1.204,0.871,3.19,1.718,5.957,2.539c2.767,0.822,4.988,1.758,6.665,2.809c1.676,1.049,2.905,2.254,3.687,3.613
		c0.781,1.358,1.172,2.95,1.172,4.772c0,2.963-1.135,5.318-3.406,7.067c-2.271,1.75-5.351,2.625-9.241,2.625
		c-2.572,0-4.936-0.477-7.092-1.428c-2.157-0.953-3.833-2.267-5.029-3.943c-1.196-1.676-1.794-3.629-1.794-5.859h6.177
		c0,2.019,0.667,3.581,2.002,4.688c1.334,1.107,3.247,1.66,5.737,1.66c2.148,0,3.764-0.436,4.846-1.307
		C129.592,443.929,130.134,442.777,130.134,441.345z"/>
	<path style="fill:#FFFFFF;" d="M152.009,446.252c1.481,0,2.71-0.431,3.687-1.294c0.977-0.862,1.497-1.929,1.563-3.198h5.591
		c-0.065,1.645-0.578,3.178-1.538,4.602c-0.96,1.425-2.263,2.552-3.906,3.382c-1.644,0.83-3.418,1.245-5.322,1.245
		c-3.695,0-6.625-1.196-8.789-3.589c-2.165-2.393-3.247-5.696-3.247-9.912v-0.61c0-4.02,1.074-7.238,3.223-9.656
		c2.148-2.416,5.078-3.625,8.789-3.625c3.141,0,5.701,0.916,7.678,2.746c1.978,1.832,3.015,4.236,3.113,7.215h-5.591
		c-0.065-1.514-0.582-2.759-1.55-3.735c-0.969-0.977-2.202-1.465-3.699-1.465c-1.921,0-3.402,0.696-4.443,2.087
		c-1.042,1.393-1.571,3.504-1.587,6.336v0.952c0,2.865,0.517,5.001,1.55,6.409C148.562,445.548,150.056,446.252,152.009,446.252z"/>
	<path style="fill:#FFFFFF;" d="M173.176,426.965c1.937-2.246,4.386-3.369,7.349-3.369c5.631,0,8.488,3.215,8.569,9.644V450.5
		h-5.933v-17.041c0-1.822-0.395-3.113-1.184-3.869c-0.79-0.758-1.949-1.136-3.479-1.136c-2.376,0-4.15,1.059-5.322,3.174V450.5
		h-5.933V413h5.933V426.965z"/>
	<path style="fill:#FFFFFF;" d="M206.721,450.988c-3.76,0-6.808-1.184-9.143-3.553c-2.336-2.367-3.503-5.521-3.503-9.46v-0.732
		c0-2.637,0.508-4.993,1.526-7.067c1.017-2.076,2.445-3.69,4.285-4.847c1.839-1.155,3.89-1.733,6.152-1.733
		c3.597,0,6.376,1.147,8.337,3.442c1.961,2.295,2.942,5.542,2.942,9.741v2.393h-17.261c0.179,2.182,0.907,3.906,2.185,5.176
		c1.277,1.27,2.885,1.904,4.822,1.904c2.718,0,4.932-1.099,6.641-3.296l3.198,3.052c-1.058,1.579-2.47,2.804-4.236,3.674
		C210.899,450.553,208.918,450.988,206.721,450.988z M206.013,428.356c-1.628,0-2.942,0.57-3.943,1.709
		c-1.001,1.14-1.64,2.727-1.917,4.761h11.304v-0.439c-0.13-1.985-0.659-3.487-1.587-4.504
		C208.942,428.865,207.656,428.356,206.013,428.356z"/>
	<path style="fill:#FFFFFF;" d="M221.931,417.224c0-0.911,0.289-1.668,0.867-2.271c0.578-0.602,1.404-0.903,2.478-0.903
		s1.904,0.302,2.49,0.903c0.586,0.603,0.879,1.359,0.879,2.271c0,0.896-0.293,1.64-0.879,2.233c-0.586,0.595-1.416,0.892-2.49,0.892
		s-1.9-0.297-2.478-0.892C222.219,418.863,221.931,418.119,221.931,417.224z M228.229,450.5h-5.933v-26.416h5.933V450.5z"/>
	<path style="fill:#FFFFFF;" d="M240.192,424.084l0.171,3.052c1.953-2.359,4.517-3.54,7.69-3.54c5.501,0,8.301,3.149,8.398,9.448
		V450.5h-5.933v-17.114c0-1.676-0.362-2.917-1.086-3.724c-0.725-0.805-1.909-1.208-3.552-1.208c-2.393,0-4.175,1.083-5.347,3.247
		V450.5h-5.933v-26.416H240.192z"/>
	<path style="fill:#FFFFFF;" d="M285.7,442.321l4.199-18.237h5.786l-7.202,26.416h-4.883l-5.664-18.14l-5.566,18.14h-4.883
		l-7.227-26.416h5.786l4.272,18.042l5.42-18.042h4.468L285.7,442.321z"/>
	<path style="fill:#FFFFFF;" d="M311.286,450.988c-3.76,0-6.808-1.184-9.143-3.553c-2.336-2.367-3.503-5.521-3.503-9.46v-0.732
		c0-2.637,0.508-4.993,1.526-7.067c1.017-2.076,2.445-3.69,4.285-4.847c1.839-1.155,3.89-1.733,6.152-1.733
		c3.597,0,6.376,1.147,8.337,3.442c1.961,2.295,2.942,5.542,2.942,9.741v2.393h-17.261c0.179,2.182,0.907,3.906,2.185,5.176
		c1.277,1.27,2.885,1.904,4.822,1.904c2.718,0,4.932-1.099,6.641-3.296l3.198,3.052c-1.058,1.579-2.47,2.804-4.236,3.674
		C315.465,450.553,313.483,450.988,311.286,450.988z M310.578,428.356c-1.628,0-2.942,0.57-3.943,1.709
		c-1.001,1.14-1.64,2.727-1.917,4.761h11.304v-0.439c-0.13-1.985-0.659-3.487-1.587-4.504
		C313.508,428.865,312.222,428.356,310.578,428.356z"/>
	<path style="fill:#FFFFFF;" d="M340.314,429.504c-0.781-0.13-1.587-0.195-2.417-0.195c-2.719,0-4.55,1.042-5.493,3.125V450.5
		h-5.933v-26.416h5.664l0.146,2.954c1.432-2.295,3.418-3.442,5.957-3.442c0.846,0,1.546,0.114,2.1,0.342L340.314,429.504z"/>
	<path style="fill:#FFFFFF;" d="M346.638,450.5v-22.021h-4.028v-4.395h4.028v-2.417c0-2.93,0.813-5.191,2.441-6.787
		c1.627-1.595,3.906-2.393,6.836-2.393c1.041,0,2.148,0.146,3.32,0.439l-0.146,4.639c-0.651-0.13-1.408-0.195-2.271-0.195
		c-2.832,0-4.248,1.457-4.248,4.37v2.344h5.371v4.395h-5.371V450.5H346.638z"/>
	<path style="fill:#FFFFFF;" d="M373.322,450.988c-3.76,0-6.808-1.184-9.144-3.553c-2.335-2.367-3.503-5.521-3.503-9.46v-0.732
		c0-2.637,0.509-4.993,1.526-7.067c1.017-2.076,2.444-3.69,4.284-4.847c1.839-1.155,3.89-1.733,6.152-1.733
		c3.597,0,6.376,1.147,8.337,3.442c1.962,2.295,2.942,5.542,2.942,9.741v2.393h-17.261c0.179,2.182,0.907,3.906,2.186,5.176
		c1.277,1.27,2.884,1.904,4.821,1.904c2.718,0,4.932-1.099,6.641-3.296l3.198,3.052c-1.059,1.579-2.47,2.804-4.236,3.674
		C377.501,450.553,375.52,450.988,373.322,450.988z M372.614,428.356c-1.628,0-2.941,0.57-3.943,1.709
		c-1,1.14-1.64,2.727-1.916,4.761h11.304v-0.439c-0.131-1.985-0.659-3.487-1.587-4.504
		C375.544,428.865,374.258,428.356,372.614,428.356z"/>
	<path style="fill:#FFFFFF;" d="M402.351,429.504c-0.781-0.13-1.587-0.195-2.417-0.195c-2.719,0-4.55,1.042-5.493,3.125V450.5
		h-5.933v-26.416h5.664l0.146,2.954c1.432-2.295,3.418-3.442,5.957-3.442c0.846,0,1.546,0.114,2.1,0.342L402.351,429.504z"/>
</g>
<g>
	<path style="fill-rule:evenodd;clip-rule:evenodd;fill:#F8F8FA;" d="M339.023,264.674c-35.045-0.113-62.608-28.145-62.344-63.761
		c0.258-34.735,29.759-62.421,64.609-61.581c33.037,0.796,61.194,29.473,60.738,63.098
		C401.556,237.257,373.69,264.786,339.023,264.674z M394.642,202.364c0.031-30.893-24.558-55.791-55.17-55.865
		c-30.519-0.074-55.728,24.992-55.786,55.472c-0.06,30.092,24.909,55.449,54.646,55.499
		C369.845,257.522,394.611,233.286,394.642,202.364z"/>
	<path style="fill-rule:evenodd;clip-rule:evenodd;fill:#F8F8FA;" d="M149.496,254.461c-2.537-0.995-5.493-1.459-7.546-3.071
		c-15.55-12.217-23.916-28.225-24.408-48.112c-0.048-1.962,0.711-3.943,0.929-5.058c5.12,0.467,9.411,1.163,13.706,1.196
		c16.978,0.131,33.956,0.054,52.037,0.054c-11.111,17.799-21.803,34.926-32.495,52.054
		C150.978,252.503,150.237,253.482,149.496,254.461z M147.542,247.851c8.795-14.09,17.598-28.193,26.793-42.927
		c-17.623,0-34.154,0-50.672,0C122.841,220.314,133.675,239.895,147.542,247.851z"/>
	<path style="fill-rule:evenodd;clip-rule:evenodd;fill:#FEFEFE;" d="M245.628,207.322c0-1.639,0-2.935,0-4.533
		c8.196,0,16.28,0,24.755,0c0.086,1.394,0.172,2.791,0.279,4.533C262.29,207.322,254.211,207.322,245.628,207.322z"/>
	<path style="fill-rule:evenodd;clip-rule:evenodd;fill:#FEFEFE;" d="M270.425,192.672c0,1.622,0,3.028,0,4.706
		c-8.261,0-16.304,0-24.696,0c-0.079-1.514-0.152-2.925-0.245-4.706C253.764,192.672,261.806,192.672,270.425,192.672z"/>
	<path style="fill-rule:evenodd;clip-rule:evenodd;fill:#9E9BBA;" d="M149.496,254.461c0.741-0.979,1.481-1.958,2.223-2.938
		c1.974,0.677,3.948,1.354,6.429,2.203c-0.834,2.125-1.463,3.727-2.658,6.772C153.048,258.039,151.271,256.25,149.496,254.461z"/>
	<path style="fill-rule:evenodd;clip-rule:evenodd;fill:#9A97B8;" d="M184.965,146.228c-2.219-0.123-3.651-0.202-5.519-0.306
		c-0.169-1.963-0.316-3.673-0.498-5.791c2.26,0,3.969,0,6.293,0C185.148,142.187,185.071,143.878,184.965,146.228z"/>
	<path style="fill-rule:evenodd;clip-rule:evenodd;fill:#9E9BBA;" d="M235.134,196.455c-0.237-2.274-0.385-3.696-0.563-5.407
		c1.771-0.518,3.291-0.962,5.426-1.587c0.473,2.165,0.865,3.962,1.382,6.329C239.113,196.031,237.406,196.213,235.134,196.455z"/>
	<path style="fill-rule:evenodd;clip-rule:evenodd;fill:#A19EBC;" d="M240.385,214.104c-0.563,2.324-0.904,3.73-1.391,5.735
		c-1.785-0.365-3.428-0.701-5.643-1.154c0.376-2.006,0.684-3.643,1.07-5.704C236.58,213.388,238.251,213.703,240.385,214.104z"/>
	<path style="fill-rule:evenodd;clip-rule:evenodd;fill:#A19EBC;" d="M200.927,253.78c0.908,2.051,1.549,3.499,2.415,5.456
		c-1.981,0.799-3.685,1.486-5.892,2.376c-0.652-2.082-1.16-3.699-1.763-5.622C197.456,255.244,198.898,254.636,200.927,253.78z"/>
	<path style="fill-rule:evenodd;clip-rule:evenodd;fill:#A19EBC;" d="M127.393,167.774c1.518-1.995,2.577-3.388,3.954-5.197
		c1.666,1.451,2.965,2.584,4.451,3.879c-1.083,1.551-1.909,2.734-3.053,4.371C131.056,169.863,129.557,169.009,127.393,167.774z"/>
	<path style="fill-rule:evenodd;clip-rule:evenodd;fill:#A29EBD;" d="M236.857,178.092c0.739,2.346,1.174,3.726,1.781,5.657
		c-1.846,0.653-3.447,1.22-5.424,1.92c-0.703-1.918-1.246-3.4-1.975-5.39C233.189,179.52,234.767,178.906,236.857,178.092z"/>
	<path style="fill-rule:evenodd;clip-rule:evenodd;fill:#A09DBB;" d="M241.676,202.101c-0.273,2.532-0.443,4.114-0.668,6.187
		c-2.007-0.266-3.559-0.471-5.222-0.69c0-1.982,0-3.563,0-5.496C237.779,202.101,239.455,202.101,241.676,202.101z"/>
	<path style="fill-rule:evenodd;clip-rule:evenodd;fill:#A3A0BE;" d="M218.729,153.938c-1.427,1.756-2.432,2.993-3.752,4.619
		c-1.557-1.155-2.914-2.163-4.603-3.417c1.173-1.729,2.131-3.139,3.344-4.925C215.462,151.51,216.843,152.536,218.729,153.938z"/>
	<path style="fill-rule:evenodd;clip-rule:evenodd;fill:#A29FBD;" d="M226.092,233.234c1.674,1.069,3.02,1.929,4.883,3.12
		c-1.257,1.82-2.309,3.343-3.545,5.132c-1.682-1.298-2.958-2.282-4.691-3.619C223.885,236.283,224.885,234.901,226.092,233.234z"/>
	<path style="fill-rule:evenodd;clip-rule:evenodd;fill:#A19DBC;" d="M167.501,262.81c-2.371-0.481-4.043-0.822-6.126-1.246
		c0.603-2.089,1.042-3.615,1.596-5.535c1.808,0.328,3.358,0.609,5.438,0.986C168.112,258.911,167.87,260.449,167.501,262.81z"/>
	<path style="fill-rule:evenodd;clip-rule:evenodd;fill:#A09DBB;" d="M173.776,263.87c0-2.03,0-3.601,0-5.516
		c1.947,0,3.604,0,5.475,0c0,2.054,0,3.637,0,5.81C177.298,264.059,175.624,263.97,173.776,263.87z"/>
	<path style="fill-rule:evenodd;clip-rule:evenodd;fill:#A29FBD;" d="M229,228.579c0.926-2.022,1.521-3.325,2.326-5.083
		c1.789,0.737,3.361,1.386,5.412,2.23c-0.833,1.957-1.501,3.527-2.402,5.646C232.46,230.39,230.97,229.61,229,228.579z"/>
	<path style="fill-rule:evenodd;clip-rule:evenodd;fill:#A29FBD;" d="M191.049,141.108c2.505,0.534,4.046,0.862,6.129,1.306
		c-0.536,2.045-0.966,3.683-1.47,5.603c-1.82-0.314-3.224-0.558-5.164-0.893C190.704,145.227,190.844,143.554,191.049,141.108z"/>
	<path style="fill-rule:evenodd;clip-rule:evenodd;fill:#A29FBD;" d="M155.493,144.587c2.16-0.737,3.674-1.254,5.646-1.927
		c0.588,1.926,1.081,3.546,1.689,5.543c-1.83,0.741-3.259,1.32-5.146,2.085C156.882,148.201,156.235,146.52,155.493,144.587z"/>
	<path style="fill-rule:evenodd;clip-rule:evenodd;fill:#A09DBB;" d="M200.599,149.979c0.844-1.915,1.541-3.497,2.393-5.427
		c1.933,0.906,3.504,1.642,5.527,2.591c-0.939,1.852-1.713,3.379-2.7,5.326C203.994,151.6,202.454,150.864,200.599,149.979z"/>
	<path style="fill-rule:evenodd;clip-rule:evenodd;fill:#A09DBB;" d="M149.909,147.264c1.059,1.826,1.857,3.202,2.914,5.024
		c-1.654,1.128-3.069,2.093-4.78,3.261c-1.124-1.639-2.026-2.954-3.271-4.77C146.562,149.555,148.073,148.52,149.909,147.264z"/>
	<path style="fill-rule:evenodd;clip-rule:evenodd;fill:#A19EBC;" d="M124.462,172.711c2.189,1.24,3.564,2.018,5.259,2.978
		c-0.843,1.785-1.516,3.207-2.364,5.004c-1.806-0.72-3.264-1.301-5.252-2.094C122.885,176.652,123.514,175.081,124.462,172.711z"/>
	<path style="fill-rule:evenodd;clip-rule:evenodd;fill:#A3A0BD;" d="M119.966,184.188c2.057,0.63,3.67,1.126,5.646,1.731
		c-0.527,1.922-0.939,3.421-1.474,5.364c-1.966-0.44-3.608-0.809-5.751-1.289C118.95,187.922,119.394,186.294,119.966,184.188z"/>
	<path style="fill-rule:evenodd;clip-rule:evenodd;fill:#A09DBB;" d="M135.164,158.302c1.841-1.64,3.045-2.713,4.646-4.138
		c1.359,1.544,2.492,2.83,4.151,4.714c-1.384,1.412-2.499,2.55-3.96,4.042C138.122,161.126,136.878,159.938,135.164,158.302z"/>
	<path style="fill-rule:evenodd;clip-rule:evenodd;fill:#A09DBC;" d="M205.992,251.492c1.981-1.153,3.089-1.797,4.657-2.709
		c1.064,1.503,2.04,2.882,3.328,4.702c-1.781,1.193-3.199,2.144-5.173,3.466C207.789,254.979,206.969,253.388,205.992,251.492z"/>
	<path style="fill-rule:evenodd;clip-rule:evenodd;fill:#A29FBD;" d="M234.004,172.513c-1.777,1.087-3.121,1.908-4.911,3.002
		c-1.062-1.663-1.968-3.085-3.086-4.836c1.628-1.205,2.891-2.139,4.679-3.462C231.85,169.074,232.813,170.611,234.004,172.513z"/>
	<path style="fill-rule:evenodd;clip-rule:evenodd;fill:#A09DBC;" d="M227.521,162.312c-1.82,1.512-3.022,2.509-4.647,3.858
		c-1.359-1.432-2.509-2.643-4.358-4.591c1.493-1.355,2.657-2.412,4.159-3.775C224.415,159.422,225.666,160.586,227.521,162.312z"/>
	<path style="fill-rule:evenodd;clip-rule:evenodd;fill:#A29EBD;" d="M191.735,263.017c-2.366,0.244-3.914,0.404-5.958,0.615
		c-0.339-1.952-0.621-3.58-0.985-5.681c2.112-0.208,3.642-0.357,5.556-0.546C190.796,259.22,191.165,260.712,191.735,263.017z"/>
	<path style="fill-rule:evenodd;clip-rule:evenodd;fill:#A3A0BD;" d="M218.823,250.341c-1.566-2.044-2.522-3.292-3.711-4.844
		c1.432-1.294,2.592-2.341,3.945-3.564c1.381,1.195,2.47,2.138,4.104,3.551C221.78,247.029,220.583,248.371,218.823,250.341z"/>
	<path style="fill-rule:evenodd;clip-rule:evenodd;fill:#A29FBD;" d="M168.165,146.722c-0.32-2.052-0.538-3.449-0.854-5.467
		c2.015-0.291,3.66-0.53,5.815-0.842c0.144,2.126,0.247,3.678,0.376,5.584C171.687,146.243,170.289,146.434,168.165,146.722z"/>
	<path style="fill-rule:evenodd;clip-rule:evenodd;fill:#F8F7FA;" d="M320.785,231.805c-3.814,0-7.271,0-11.587,0
		c8.046-21.005,15.962-41.668,23.96-62.547c3.928,0,7.699,0,12.217,0c7.862,20.357,15.855,41.054,24.056,62.288
		c-4.046,0-7.739,0-12.073,0c-1.829-4.986-3.814-10.398-5.857-15.966c-8.264,0-16.363,0-24.752,0
		C324.774,220.949,322.791,226.348,320.785,231.805z M329.971,206.346c6.379,0,12.108,0,18.398,0
		c-2.995-8.573-5.913-16.924-9.197-26.323C335.888,189.418,333.01,197.65,329.971,206.346z"/>
	<path style="fill-rule:evenodd;clip-rule:evenodd;fill:#EFEFF3;" d="M141.968,210.219c1.428-0.077,2.552-0.138,4.186-0.227
		c2.494,6.419,4.984,12.828,7.648,19.683c-1.642,0.076-2.714,0.127-3.862,0.18c-0.763-1.684-1.436-3.171-2.216-4.894
		c-2.234,0-4.516,0-6.5,0c-1.693,1.95-3.274,3.771-4.855,5.593c-0.543-0.359-1.084-0.718-1.627-1.077
		C137.091,223.215,139.44,216.952,141.968,210.219z M141.393,221.652c1.945,0,3.429,0,5.542,0c-0.993-2.635-1.785-4.734-2.862-7.594
		C143.038,216.99,142.288,219.116,141.393,221.652z"/>
</g>
</svg>
