<?xml version="1.0" encoding="UTF-8" standalone="no"?>
<svg
   xmlns:dc="http://purl.org/dc/elements/1.1/"
   xmlns:cc="http://creativecommons.org/ns#"
   xmlns:rdf="http://www.w3.org/1999/02/22-rdf-syntax-ns#"
   xmlns:svg="http://www.w3.org/2000/svg"
   xmlns="http://www.w3.org/2000/svg"
   viewBox="0 0 375 375"
   height="375"
   width="375"
   xml:space="preserve"
   version="1.1"
   id="svg2"><metadata
     id="metadata8"><rdf:RDF><cc:Work
         rdf:about=""><dc:format>image/svg+xml</dc:format><dc:type
           rdf:resource="http://purl.org/dc/dcmitype/StillImage" /></cc:Work></rdf:RDF></metadata><defs
     id="defs6"><clipPath
       id="clipPath22"
       clipPathUnits="userSpaceOnUse"><path
         id="path24"
         d="m 2046.21,2213.13 610.359,0 0,559.445 -610.359,0 0,-559.445 z" /></clipPath></defs><g
     transform="matrix(1.25,0,0,-1.25,0,375)"
     id="g10"><g
       transform="scale(0.1,0.1)"
       id="g12"><path
         id="path14"
         style="fill:#aebcc4;fill-opacity:1;fill-rule:nonzero;stroke:none"
         d="m 3000,529.855 c 0,-67.632 0,-529.85109375 -715,-529.85109375 l -1625,0 C 35,0.00390625 0,472.223 0,539.855 L 0,2399.86 c 0,545 592.352,600 660,600 l 1615,0.28 c 67.65,0 725,-0.28 725,-600.28" /><path
         id="path16"
         style="fill:#ffffff;fill-opacity:1;fill-rule:nonzero;stroke:none"
         d="m 140,1135.88 c 0,0 25.988,457.44 244.309,592.59 l 77.972,41.58 c 109.168,10.4 161.141,31.19 181.938,77.98 0,0 36.39,8.66 36.39,107.43 0,0 -145.55,135.15 -31.187,325.74 0,0 180.199,166.34 317.078,-1.73 24.281,-58.85 98.77,-188.86 -74.5,-344.81 0,0 -13.859,-34.65 17.328,-117.82 0,0 77.961,-93.57 228.712,-145.55 151.55,-52.26 216.29,-266 244.32,-540.61" /><g
         id="g18"><g
           clip-path="url(#clipPath22)"
           id="g20"><path
             id="path26"
             style="fill:#ffffff;fill-opacity:1;fill-rule:nonzero;stroke:none"
             d="m 2531.79,2257.06 -101.31,0 0,166.95 -158.15,0 0,-166.95 -101.32,0 0,272.73 180.4,137.75 180.38,-137.75 0,-272.73 z m 124.78,282.53 -110.69,84.5 0,139.79 -79.08,0 0,-79.42 -115.41,88.11 -305.18,-232.96 47.99,-62.88 32.88,25.1 0,-288.7 448.65,0 0,288.69 32.86,-25.09" /></g></g><path
         id="path28"
         style="fill:#000000;fill-opacity:1;fill-rule:nonzero;stroke:none"
         d="m 1551.09,2594.11 c 0,0 20.34,40.87 59.48,38.07 16.66,-1.18 35.45,-6.84 53.54,-28.54 0,0 33.32,-46.41 -27.37,-111.84 0,0 -3.1,-23.46 16.33,-42.87 0,0 178.63,-3.89 139.81,-275.72 l -11.66,-89.32 c 0,0 -31.06,-54.37 -31.06,-159.21 0,0 -21.16,-447.45 -9.5,-451.32 0,0 -32.53,-40.47 -79.32,-3.18 l -0.8,488.59 c 0,0 -35.68,28.55 -64.25,-4.75 l -2.38,-483.07 c 0,0 -33.3,-33.31 -72.18,-2.36 l -8.46,456.09 c 0,0 3.88,104.84 -31.07,166.98 0,0 -90.55,340.64 102.19,350.16 0,0 15.07,15.86 9.52,45.22 -2.07,11.01 -57.11,21.42 -42.82,107.07" /><path
         id="path30"
         style="fill:#080828;fill-opacity:1;fill-rule:nonzero;stroke:none"
         d="m 595.328,765.609 0,-126.968 -0.922,0 c -10.125,16.562 -32.203,29.437 -63.031,29.437 -53.812,0 -100.734,-44.609 -100.281,-119.594 0,-69 42.328,-114.546 95.687,-114.546 32.657,0 59.797,15.64 73.141,40.484 l 0.922,0 2.297,-35.422 50.609,0 c -0.922,15.188 -1.844,40.016 -1.844,63.016 l 0,263.593 -56.578,0 z m 0,-229.546 c 0,-5.985 -0.469,-11.5 -1.844,-16.563 -5.515,-24.375 -25.765,-40.016 -48.765,-40.016 -35.875,0 -56.125,29.891 -56.125,70.844 0,41.86 20.25,74.063 56.594,74.063 25.75,0 43.687,-17.953 48.75,-40.032 0.921,-4.593 1.39,-10.125 1.39,-14.718 l 0,-33.578" /><path
         id="path32"
         style="fill:#080828;fill-opacity:1;fill-rule:nonzero;stroke:none"
         d="m 902.344,535.141 c 0.922,5.062 1.844,13.343 1.844,23.922 0,49.218 -23.922,109.015 -96.61,109.015 -71.75,0 -109.484,-58.422 -109.484,-120.515 0,-68.547 42.781,-113.157 115.469,-113.157 32.203,0 58.875,5.969 78.203,13.797 l -8.282,39.094 c -17.015,-6.438 -35.875,-10.109 -62.109,-10.109 -35.875,0 -67.609,17.468 -69,57.953 l 149.969,0 z m -149.969,39.562 c 2.313,23 17.031,54.735 51.984,54.735 37.719,0 46.922,-34.032 46.469,-54.735 l -98.453,0" /><path
         id="path34"
         style="fill:#080828;fill-opacity:1;fill-rule:nonzero;stroke:none"
         d="m 1140.34,535.141 c 0.93,5.062 1.85,13.343 1.85,23.922 0,49.218 -23.92,109.015 -96.61,109.015 -71.752,0 -109.486,-58.422 -109.486,-120.515 0,-68.547 42.781,-113.157 115.466,-113.157 32.21,0 58.88,5.969 78.21,13.797 l -8.29,39.094 c -17.01,-6.438 -35.87,-10.109 -62.1,-10.109 -35.88,0 -67.614,17.468 -69.005,57.953 l 149.965,0 z m -149.965,39.562 c 2.313,23 17.035,54.735 51.985,54.735 37.72,0 46.92,-34.032 46.47,-54.735 l -98.455,0" /><path
         id="path36"
         style="fill:#080828;fill-opacity:1;fill-rule:nonzero;stroke:none"
         d="m 1187.36,347.922 56.58,0 0,115.922 0.92,0 c 11.5,-17.938 34.97,-29.906 63.02,-29.906 51.06,0 102.12,39.109 102.12,120.062 0,69.922 -42.78,114.078 -94.3,114.078 -34.04,0 -60.26,-14.25 -76.82,-39.562 l -0.91,0 -2.77,34.515 -49.68,0 c 0.92,-21.172 1.84,-45.093 1.84,-74.531 l 0,-240.578 z m 56.58,219.422 c 0,4.594 0.92,9.656 2.29,14.265 5.54,24.829 27.15,41.86 50.61,41.86 36.35,0 55.66,-32.203 55.66,-71.766 0,-44.156 -21.16,-74.062 -57.03,-74.062 -23.92,0 -44.17,16.562 -49.69,39.562 -1.37,5.063 -1.84,10.125 -1.84,15.641 l 0,34.5" /><path
         id="path38"
         style="fill:#080828;fill-opacity:1;fill-rule:nonzero;stroke:none"
         d="m 1614.38,439 0,181.703 48.76,0 0,42.328 -49.22,0 0,11.5 c 0,27.594 9.66,51.047 37.72,51.047 10.13,0 17.94,-1.828 23.92,-4.14 l 4.14,43.703 c -9.2,3.218 -21.15,5.531 -36.34,5.531 -19.31,0 -41.86,-5.984 -58.42,-21.625 -19.31,-18.406 -27.14,-47.375 -27.14,-76.359 l 0,-9.657 -30.36,0 0,-42.328 30.36,0 0,-181.703 56.58,0" /><path
         id="path40"
         style="fill:#080828;fill-opacity:1;fill-rule:nonzero;stroke:none"
         d="m 1795.02,668.078 c -67.61,0 -115.93,-45.078 -115.93,-118.672 0,-71.765 48.77,-115.468 112.25,-115.468 57.05,0 115,36.796 115,119.14 0,68.078 -44.62,115 -111.32,115 z m -1.38,-41.39 c 38.64,0 54.28,-40.032 54.28,-74.985 0,-45.078 -22.54,-76.828 -54.73,-76.828 -34.5,0 -55.67,32.672 -55.67,75.906 0,37.266 16.11,75.907 56.12,75.907" /><path
         id="path42"
         style="fill:#080828;fill-opacity:1;fill-rule:nonzero;stroke:none"
         d="m 2109.22,487.766 c -11.03,-4.61 -24.84,-8.75 -44.61,-8.75 -38.64,0 -68.55,26.218 -68.55,72.218 -0.47,40.954 25.3,72.688 68.55,72.688 20.23,0 33.58,-4.594 42.78,-8.734 l 10.11,42.312 c -12.87,5.984 -34.03,10.578 -54.73,10.578 -78.68,0 -124.68,-52.437 -124.68,-119.594 0,-69.468 45.55,-114.078 115.47,-114.078 28.07,0 51.52,5.969 63.49,11.5 l -7.83,41.86" /><path
         id="path44"
         style="fill:#080828;fill-opacity:1;fill-rule:nonzero;stroke:none"
         d="m 2359.92,663.031 -56.58,0 0,-135.25 c 0,-6.437 -1.37,-12.422 -3.21,-17.484 -5.99,-14.25 -20.71,-30.359 -43.25,-30.359 -29.9,0 -41.86,23.921 -41.86,61.187 l 0,121.906 -56.58,0 0,-131.562 c 0,-73.156 37.26,-97.531 78.2,-97.531 40.02,0 62.11,23 71.77,39.109 l 0.92,0 2.75,-34.047 49.69,0 c -0.93,18.406 -1.85,40.484 -1.85,67.156 l 0,156.875" /><path
         id="path46"
         style="fill:#080828;fill-opacity:1;fill-rule:nonzero;stroke:none"
         d="m 2407.56,450.047 c 16.57,-9.203 40.94,-15.641 68.08,-15.641 59.34,0 91.08,29.438 91.08,69.922 -0.45,33.11 -19.31,53.813 -59.8,68.531 -28.51,10.125 -39.09,17.016 -39.09,31.282 0,13.797 11.03,23.468 31.28,23.468 19.77,0 37.72,-7.359 47.37,-12.89 l 11.04,40.031 c -12.88,6.891 -34.5,13.328 -59.33,13.328 -51.99,0 -84.64,-30.812 -84.64,-70.375 -0.47,-26.219 17.93,-50.14 61.64,-65.328 27.59,-9.656 36.79,-17.469 36.79,-32.656 0,-14.719 -11.04,-24.844 -35.89,-24.844 -20.23,0 -44.61,8.281 -57.5,16.109 l -11.03,-40.937" /></g></g></svg>