<?xml version="1.0" encoding="UTF-8" standalone="no"?>
<svg
   xmlns:dc="http://purl.org/dc/elements/1.1/"
   xmlns:cc="http://creativecommons.org/ns#"
   xmlns:rdf="http://www.w3.org/1999/02/22-rdf-syntax-ns#"
   xmlns:svg="http://www.w3.org/2000/svg"
   xmlns="http://www.w3.org/2000/svg"
   viewBox="0 0 375 375"
   height="375"
   width="375"
   xml:space="preserve"
   version="1.1"
   id="svg2"><metadata
     id="metadata8"><rdf:RDF><cc:Work
         rdf:about=""><dc:format>image/svg+xml</dc:format><dc:type
           rdf:resource="http://purl.org/dc/dcmitype/StillImage" /></cc:Work></rdf:RDF></metadata><defs
     id="defs6" /><g
     transform="matrix(1.25,0,0,-1.25,0,375)"
     id="g10"><g
       transform="scale(0.1,0.1)"
       id="g12"><path
         id="path14"
         style="fill:#ce8e95;fill-opacity:1;fill-rule:nonzero;stroke:none"
         d="m 3000,529.785 c 0,-67.64 0,-529.78890625 -715,-529.78890625 l -1625,0 C 35,-0.00390625 0,472.145 0,539.785 L 0,2399.77 c 0,545 592.352,600 660,600 l 1615,0.3 c 67.65,0 725,-0.3 725,-600.3" /><path
         id="path16"
         style="fill:#26080d;fill-opacity:1;fill-rule:nonzero;stroke:none"
         d="m 297.422,412 0,189.547 50.859,0 0,44.156 -51.343,0 0,12 c 0,28.781 10.078,53.266 39.343,53.266 10.563,0 18.719,-1.922 24.953,-4.328 l 4.329,45.593 c -9.61,3.36 -22.079,5.75 -37.922,5.75 -20.157,0 -43.657,-6.234 -60.938,-22.546 -20.156,-19.204 -28.312,-49.422 -28.312,-79.657 l 0,-10.078 -31.672,0 0,-44.156 31.672,0 0,-189.547 59.031,0" /><path
         id="path18"
         style="fill:#26080d;fill-opacity:1;fill-rule:nonzero;stroke:none"
         d="m 384.672,412 59.031,0 0,120.922 c 0,6.719 0.953,12.969 1.906,18.234 5.282,26.407 24.485,44.641 52.797,44.641 7.188,0 12.469,-0.969 17.266,-1.922 l 0,55.656 c -4.797,0.969 -8.156,1.453 -13.906,1.453 -24.953,0 -52.313,-16.796 -63.828,-49.906 l -1.922,0 -1.922,44.625 -51.344,0 c 1.438,-21.125 1.922,-43.672 1.922,-75.344 l 0,-158.359" /><path
         id="path20"
         style="fill:#26080d;fill-opacity:1;fill-rule:nonzero;stroke:none"
         d="m 749.859,512.297 c 0.954,5.281 1.922,13.906 1.922,24.953 0,51.344 -24.953,113.734 -100.781,113.734 -74.859,0 -114.203,-60.953 -114.203,-125.734 0,-71.5 44.625,-118.047 120.453,-118.047 33.578,0 61.422,6.235 81.578,14.391 l -8.64,40.797 c -17.75,-6.719 -37.438,-10.563 -64.782,-10.563 -37.437,0 -70.547,18.235 -71.984,60.469 l 156.437,0 z m -156.437,41.266 c 2.391,24 17.75,57.109 54.219,57.109 39.359,0 48.953,-35.516 48.468,-57.109 l -102.687,0" /><path
         id="path22"
         style="fill:#26080d;fill-opacity:1;fill-rule:nonzero;stroke:none"
         d="m 996.859,512.297 c 0.954,5.281 1.922,13.906 1.922,24.953 0,51.344 -24.953,113.734 -100.781,113.734 -74.859,0 -114.203,-60.953 -114.203,-125.734 0,-71.5 44.625,-118.047 120.453,-118.047 33.578,0 61.422,6.235 81.578,14.391 l -8.64,40.797 c -17.75,-6.719 -37.438,-10.563 -64.782,-10.563 -37.437,0 -70.547,18.235 -71.984,60.469 l 156.437,0 z m -156.437,41.266 c 2.391,24 17.75,57.109 54.219,57.109 39.359,0 48.953,-35.516 48.468,-57.109 l -102.687,0" /><path
         id="path24"
         style="fill:#26080d;fill-opacity:1;fill-rule:nonzero;stroke:none"
         d="m 1024.59,412 197.24,0 0,47.031 -123.33,0 0,0.953 c 12,12.485 23.03,25.922 34.55,39.829 l 85.9,109.89 0,36 -185.72,0 0,-47.031 113.74,0 0,-0.953 c -12.49,-13.438 -22.56,-24.953 -34.55,-39.36 l -87.83,-112.281 0,-34.078" /><path
         id="path26"
         style="fill:#26080d;fill-opacity:1;fill-rule:nonzero;stroke:none"
         d="m 1457.86,512.297 c 0.95,5.281 1.92,13.906 1.92,24.953 0,51.344 -24.95,113.734 -100.78,113.734 -74.86,0 -114.2,-60.953 -114.2,-125.734 0,-71.5 44.62,-118.047 120.45,-118.047 33.58,0 61.42,6.235 81.58,14.391 l -8.64,40.797 c -17.75,-6.719 -37.44,-10.563 -64.78,-10.563 -37.44,0 -70.55,18.235 -71.99,60.469 l 156.44,0 z m -156.44,41.266 c 2.39,24 17.75,57.109 54.22,57.109 39.36,0 48.95,-35.516 48.47,-57.109 l -102.69,0" /><path
         id="path28"
         style="fill:#26080d;fill-opacity:1;fill-rule:nonzero;stroke:none"
         d="m 1672.42,412 0,189.547 50.86,0 0,44.156 -51.34,0 0,12 c 0,28.781 10.08,53.266 39.34,53.266 10.56,0 18.72,-1.922 24.95,-4.328 l 4.33,45.593 c -9.61,3.36 -22.08,5.75 -37.92,5.75 -20.16,0 -43.66,-6.234 -60.94,-22.546 -20.15,-19.204 -28.31,-49.422 -28.31,-79.657 l 0,-10.078 -31.67,0 0,-44.156 31.67,0 0,-189.547 59.03,0" /><path
         id="path30"
         style="fill:#26080d;fill-opacity:1;fill-rule:nonzero;stroke:none"
         d="m 1759.67,412 59.03,0 0,120.922 c 0,6.719 0.96,12.969 1.91,18.234 5.28,26.407 24.48,44.641 52.8,44.641 7.18,0 12.47,-0.969 17.26,-1.922 l 0,55.656 c -4.79,0.969 -8.15,1.453 -13.9,1.453 -24.96,0 -52.32,-16.796 -63.83,-49.906 l -1.92,0 -1.93,44.625 -51.34,0 c 1.44,-21.125 1.92,-43.672 1.92,-75.344 l 0,-158.359" /><path
         id="path32"
         style="fill:#26080d;fill-opacity:1;fill-rule:nonzero;stroke:none"
         d="m 2110.42,412 c -2.39,14.391 -3.36,35.031 -3.36,56.141 l 0,84.468 c 0,50.86 -21.59,98.375 -96.45,98.375 -36.95,0 -67.19,-10.078 -84.45,-20.64 l 11.51,-38.391 c 15.83,10.078 39.83,17.281 62.86,17.281 41.27,0 47.52,-25.437 47.52,-40.796 l 0,-3.844 c -86.39,0.484 -138.69,-29.266 -138.69,-88.297 0,-35.5 26.39,-69.578 73.42,-69.578 30.24,0 54.7,12.953 69.1,31.187 l 1.43,0 3.85,-25.906 53.26,0 z m -60.94,82.063 c 0,-3.844 -0.48,-8.641 -1.92,-12.954 -5.28,-16.796 -22.56,-32.156 -46.08,-32.156 -18.7,0 -33.57,10.547 -33.57,33.594 0,35.5 39.82,44.625 81.57,43.656 l 0,-32.14" /><path
         id="path34"
         style="fill:#26080d;fill-opacity:1;fill-rule:nonzero;stroke:none"
         d="m 2169.67,412 57.58,0 0,138.203 c 0,6.719 0.97,13.438 3.36,19.203 5.28,16.313 20.16,33.578 42.23,33.578 27.36,0 40.32,-23.031 40.32,-55.656 l 0,-135.328 57.57,0 0,140.125 c 0,6.719 1.44,13.922 2.9,19.672 6.23,16.797 21.1,31.187 41.26,31.187 28.31,0 41.75,-23.031 41.75,-61.89 l 0,-129.094 57.58,0 0,137.719 c 0,74.859 -39.34,101.265 -78.22,101.265 -19.19,0 -34.06,-4.812 -47.03,-13.921 -11.03,-6.719 -20.63,-16.313 -28.78,-29.282 l -0.97,0 c -10.08,25.922 -34.06,43.203 -64.78,43.203 -39.35,0 -60.47,-21.593 -71.99,-39.843 l -1.43,0 -2.39,34.562 -50.88,0 c 1.44,-20.156 1.92,-42.719 1.92,-69.594 l 0,-164.109" /><path
         id="path36"
         style="fill:#26080d;fill-opacity:1;fill-rule:nonzero;stroke:none"
         d="m 2774.86,512.297 c 0.95,5.281 1.92,13.906 1.92,24.953 0,51.344 -24.95,113.734 -100.78,113.734 -74.86,0 -114.2,-60.953 -114.2,-125.734 0,-71.5 44.62,-118.047 120.45,-118.047 33.58,0 61.42,6.235 81.58,14.391 l -8.64,40.797 c -17.75,-6.719 -37.44,-10.563 -64.78,-10.563 -37.44,0 -70.55,18.235 -71.99,60.469 l 156.44,0 z m -156.44,41.266 c 2.39,24 17.75,57.109 54.22,57.109 39.36,0 48.95,-35.516 48.47,-57.109 l -102.69,0" /><path
         id="path38"
         style="fill:none;stroke:#ffffff;stroke-width:40;stroke-linecap:butt;stroke-linejoin:miter;stroke-miterlimit:10;stroke-dasharray:none;stroke-opacity:1"
         d="m 2710,1141.78 c 0,-88.36 -33.5,-191.784 -122.2,-191.784 l -1365.48,0 c -88.72,0 -192.32,103.424 -192.32,191.784 l 0,1346.76 c 0,88.37 103.6,131.46 192.32,131.46 l 1365.48,0 c 88.7,0 122.2,-43.09 122.2,-131.46 l 0,-1346.76 z" /><path
         id="path40"
         style="fill:#c1272d;fill-opacity:1;fill-rule:nonzero;stroke:none"
         d="m 420,1450 170,0 0,760 -170,0 0,-760 z" /><path
         id="path42"
         style="fill:#c1272d;fill-opacity:1;fill-rule:nonzero;stroke:none"
         d="m 650,1450 170,0 0,760 -170,0 0,-760 z" /><path
         id="path44"
         style="fill:#ffffff;fill-opacity:1;fill-rule:evenodd;stroke:none"
         d="m 1818.02,1723.1 c -38.56,-22.46 -69.53,-39.79 -99.55,-58.67 -5.24,-3.29 -9.65,-13.4 -8.95,-19.75 3.3,-30.49 8.53,-60.75 13.62,-94.86 29.17,12.31 54.91,22.15 79.55,34.22 6.79,3.33 14.36,13.17 14.66,20.3 1.48,36.51 0.67,73.14 0.67,118.76 m -239.37,62.1 c 33.73,-23.15 62.64,-43.66 92.42,-62.83 5.51,-3.54 16.17,-4.73 21.59,-1.77 31.06,16.88 61.24,35.36 96.62,56.18 -40.56,24.13 -75.79,45.82 -111.92,65.91 -6.19,3.44 -18.36,3.2 -24.04,-0.74 -24.42,-16.87 -47.44,-35.75 -74.67,-56.75 m 402.66,-240.79 c 5.26,34.95 10.35,64.36 13.62,93.96 0.74,6.56 -2.98,17.04 -8.09,20.27 -33.61,21.18 -68.16,40.87 -109.17,65.06 0,-47.19 -0.61,-86.05 0.63,-124.85 0.2,-5.99 7.77,-14.3 13.94,-17.13 27.17,-12.43 55.09,-23.27 89.07,-37.31 m -265.88,463.9 c -7.14,-31.26 -14.46,-60.09 -19.85,-89.27 -1.16,-6.24 2.65,-17.02 7.65,-20.14 35.54,-22.3 72.01,-43.18 114.71,-68.35 0,46.57 0.78,85.28 -0.75,123.92 -0.26,6.77 -8.94,16.04 -15.94,19.21 -27.11,12.23 -55.1,22.45 -85.82,34.63 m 193.54,-232.13 c 37.34,-22.3 68.65,-41.77 100.86,-59.58 6.4,-3.54 18.69,-4.08 24.23,-0.21 28.17,19.64 55.02,41.21 85.33,64.37 -26.85,21.18 -50.55,40.99 -75.67,58.81 -5.8,4.13 -18.27,4.81 -24.52,1.38 -35.26,-19.43 -69.58,-40.61 -110.23,-64.77 m 82.06,245.04 c -37.14,-17.15 -70.45,-32.03 -103.16,-48.19 -5.01,-2.48 -9.92,-10.8 -10.06,-16.53 -0.84,-39.99 -0.45,-80 -0.45,-128.22 44.53,25.95 82.15,47.42 119.06,70.04 4.35,2.69 7.18,11.97 6.64,17.82 -3.07,33.03 -7.39,65.94 -12.03,105.08 M 1812.57,1246.1 c -52.86,-22.42 -103.03,-43.19 -152.72,-65.05 -21.54,-9.47 -42.42,-13.41 -52.69,12.29 -9.83,24.58 9.43,34.69 28.85,42.89 52.29,22.09 104.09,45.34 156.74,66.57 18.99,7.65 26.39,18.29 25.98,38.92 -1.17,58.76 -0.41,117.56 -0.41,182.74 -36.24,-15.68 -66.45,-29.14 -96.97,-41.79 -36.57,-15.16 -49.72,-6.44 -54.75,33.69 -4.28,34.23 -9.87,68.29 -15.84,108.96 -59.73,-35.08 -115.56,-67.32 -170.45,-101.07 -4.81,-2.94 -6.01,-16.03 -4.81,-23.79 7.98,-51.54 17.15,-102.9 25.76,-154.34 1.72,-10.26 2.94,-20.63 3.9,-30.99 1.85,-20.08 -5.55,-38.47 -26.72,-35.17 -12.44,1.92 -29.14,18.6 -32.13,31.41 -10.53,45.02 -15.78,91.24 -23.39,136.94 -1.89,11.28 -5.22,22.32 -8.83,37.4 -21.51,-12.17 -41.33,-21.51 -58.73,-34.17 -6.53,-4.76 -10.34,-17.24 -10.31,-26.2 0.04,-18.43 7.5,-37.63 4.19,-55.06 -2.42,-12.83 -17.07,-23.36 -26.28,-34.9 -10.74,9.83 -24.52,17.95 -31.34,30.01 -6.31,11.16 -5.17,26.53 -8.03,44.56 -20.33,-11.38 -36.2,-24.24 -54.21,-29.01 -12.75,-3.38 -28.41,4.14 -42.77,6.81 4.65,14.73 5.51,32.86 14.9,43.33 11.58,12.91 30.27,19.45 48.77,30.47 -16.54,11.83 -32.88,18.88 -41.67,31.3 -6.98,9.88 -9.79,28.78 -4.85,38.98 3.5,7.17 23.08,7.51 35.68,8.76 4.72,0.46 10.13,-5 15.07,-8.04 64.05,-39.43 64.04,-39.45 127.81,9.25 -38.47,27.41 -76.01,54.13 -113.51,80.93 -9.45,6.73 -22.36,11.74 -27.26,20.97 -7.03,13.22 -15.23,32.83 -10.2,43.87 8.51,18.59 27.85,16.02 44.53,4.03 47.11,-33.86 95.06,-66.58 141.51,-101.31 17.14,-12.83 30.19,-15.17 49.38,-3.15 49.82,31.24 101.2,59.99 157.84,93.17 -34.83,23.97 -65.09,44.59 -95.14,65.5 -40.17,27.92 -40.43,46.51 -1.52,76.63 23.86,18.46 47.59,37.05 71.21,55.78 1.5,1.19 1.59,4.11 3.51,9.55 -55.85,33.25 -111.9,67.48 -169.14,99.57 -6.73,3.79 -21.89,-1.38 -29.95,-6.99 -47.59,-33.14 -94.2,-67.69 -141.24,-101.62 -17.79,-12.83 -36.99,-24.65 -54.08,-0.62 -17.78,25.01 2.41,37.36 19.81,49.79 44.29,31.62 88.51,63.32 138.96,99.39 -25.96,15.56 -46.76,28.83 -68.48,40.38 -4.6,2.45 -13.22,-0.02 -18.85,-2.68 -9.36,-4.42 -17.71,-10.98 -26.65,-16.35 -19.45,-11.68 -41.24,-32.45 -60.51,-5.34 -21.31,29.94 7.73,41.92 27.29,55.63 2.6,1.83 4.38,4.8 8.65,9.63 -13.14,8.73 -28.86,14.35 -36.36,25.51 -7.5,11.14 -6.82,27.82 -9.71,42.07 13.32,2.52 27.62,9.25 39.74,6.47 15.02,-3.44 28.23,-14.75 46.85,-25.28 3.2,19.69 5.88,36.17 8.6,52.64 3.29,19.96 15.05,35.21 34.83,28.45 11.07,-3.8 18.24,-21.76 24.83,-34.53 2.68,-5.2 -0.49,-13.62 -1.51,-20.5 -10.15,-68.89 -6.9,-74.13 65.05,-99.92 9.34,54.96 18.97,109.37 27.66,163.93 3.45,21.59 10.97,41.65 35.89,36.83 25.28,-4.87 27.74,-25.09 23.05,-49.29 -11.02,-56.83 -19.73,-114.13 -27.87,-171.46 -1.17,-8.15 3.42,-21.69 9.74,-25.62 54.04,-33.5 109.13,-65.35 167.82,-100.03 8.17,36.06 15.47,68.35 22.73,100.65 9.26,41.21 25.61,49.41 64.45,32.64 28.47,-12.32 57.1,-24.29 94.14,-40.02 0,39.4 0.42,72.21 -0.11,105 -0.53,35.81 10.12,79.39 -6.48,105.16 -15.44,23.97 -60.34,28.98 -92.26,42.33 -29.9,12.53 -59.81,25.08 -89.75,37.58 -19.91,8.29 -36.53,19.99 -25.93,44.35 10.55,24.23 29.49,19.75 49.78,11.12 51.91,-22.05 104.37,-42.84 156.84,-64.23 19.94,62.46 12.34,81.17 -40.32,106.73 -8.33,4.05 -19.68,6.29 -24.08,13.01 -6.7,10.21 -15.22,28.08 -10.84,34.6 6.32,9.45 23.51,16.02 35.93,15.83 13.68,-0.21 27.19,-9.48 47.3,-17.37 0,29.03 -3.3,53.53 1.25,76.47 2.69,13.61 17.74,24.75 27.25,37.01 9.89,-11.88 25.62,-22.57 28.33,-35.9 4.71,-23.06 1.31,-47.77 1.31,-77.8 19.36,7.98 32.48,17.12 46.08,17.93 13.66,0.83 27.79,-6.66 41.72,-10.5 -4.95,-13.72 -8.71,-28.07 -15.43,-40.87 -2.61,-4.98 -11.86,-6.51 -18.11,-9.55 -61.04,-29.79 -62.64,-33.08 -49.14,-108.9 21.61,9.01 42.38,17.59 63.11,26.31 28.8,12.14 57.71,24.1 86.35,36.67 20.57,9.03 41.58,15.99 52.48,-11.22 11.04,-27.56 -10.81,-36.41 -30.57,-44.87 -46.85,-20.06 -93.19,-41.54 -140.85,-59.44 -26.81,-10.08 -37.38,-24.34 -36.1,-53.61 2.4,-54.29 0.69,-108.78 0.69,-170.47 36.35,15.97 67.53,29.45 98.54,43.33 53.13,23.8 68.28,15.18 74.16,-41.07 3.34,-32.17 8.37,-64.14 13.38,-101.84 59.47,34.68 115.5,66.46 170.17,100.44 5.96,3.72 6.79,20.5 5.35,30.56 -7.39,51.6 -16.41,102.96 -24.69,154.43 -1.45,9.14 -5.78,20.2 -2.37,27.25 6.59,13.56 17.79,24.91 27.06,37.19 10.84,-11.29 28.47,-21.07 31.31,-34.09 10.13,-46.29 15,-93.72 22.37,-140.64 1.74,-11.04 5.45,-21.77 9.02,-35.73 21.28,12.3 40.12,21.44 56.71,33.63 6.77,4.97 11.98,16.51 12.11,25.15 0.29,19.59 -6.45,39.77 -3.59,58.67 1.74,11.59 16.78,30.34 24.48,29.71 11.9,-0.99 25.96,-13.88 32.83,-25.44 6.44,-10.8 4.76,-26.45 7.38,-45.35 21.61,12.34 38.26,25.91 57.23,31.28 13.72,3.89 37.38,2.39 44.49,-6.46 13.17,-16.37 4.24,-34.31 -15.79,-44.99 -17,-9.06 -33.02,-19.98 -53.4,-32.5 16.47,-11.74 32.51,-18.6 41.16,-30.73 7.2,-10.12 11.78,-30.21 6.33,-38.87 -5.02,-8.01 -24.88,-8.56 -38.22,-8.7 -6.78,-0.07 -13.7,7.92 -20.47,12.41 -54.78,36.37 -65.62,35.17 -118.25,-15.11 43.33,-31.49 86.14,-62.79 129.18,-93.8 18.14,-13.07 35.3,-28.35 18.14,-51.08 -17,-22.54 -36.64,-10.27 -54.51,2.86 -44.91,32.96 -89.69,66.08 -135.38,97.91 -8.01,5.59 -23.14,10.5 -30.04,6.72 -56.73,-31.13 -112.3,-64.38 -172.55,-99.53 31.49,-24.56 59.75,-45.87 87.18,-68.22 33.48,-27.29 32.35,-45.96 -2.54,-70.65 -29.93,-21.16 -59.51,-42.81 -94.76,-68.2 63.14,-37.64 120.14,-72.47 178.33,-105.07 6.23,-3.5 21.09,3.7 29.43,9.53 47.53,33.23 94.36,67.51 141.34,101.52 18.23,13.23 38.16,23.86 53.93,-0.26 15.67,-24.02 -2.76,-37.24 -21.06,-50.06 -45.21,-31.65 -89.72,-64.34 -138.76,-99.68 23.86,-14.55 41.65,-27.6 61.36,-36.4 8.49,-3.79 22.02,-1.28 31.3,2.82 14.71,6.48 26.83,20.57 41.78,24.13 13.02,3.09 28.43,-3.94 42.78,-6.48 -3.66,-14.15 -4.91,-29.6 -11.78,-41.98 -4.88,-8.83 -17.25,-13.49 -29.83,-22.57 20.28,-12.56 39.22,-20.28 52.26,-33.73 9.19,-9.44 10.35,-26.67 15.11,-40.42 -15.12,-3.1 -31.8,-11.78 -44.98,-8.05 -20.23,5.75 -38.06,20 -60.62,32.73 -3.36,-21.87 -2.38,-40.67 -9.73,-55.26 -5.77,-11.48 -21.53,-23.65 -33.43,-24.27 -7.6,-0.39 -17.56,19.02 -23.84,30.94 -2.57,4.87 2.06,13.35 2.87,20.25 8.14,69.73 6.49,72.36 -66.09,102.33 -8.44,-49.37 -16.2,-97.76 -25.14,-145.96 -4.35,-23.58 -0.98,-58.77 -39.01,-52.13 -38.17,6.66 -22.55,40.61 -19.77,63.32 5.82,47.1 15,93.84 24.08,140.48 4.24,21.86 0.42,36.29 -21.15,48.03 -49.75,27.16 -97.96,57.09 -152.62,89.33 -7,-37.96 -13.16,-72.31 -19.67,-106.6 -7.36,-38.8 -21.21,-46.86 -57.75,-32.16 -31.07,12.47 -61.54,26.43 -97.25,41.88 -1.66,-13.16 -3.84,-22.67 -3.91,-32.21 -0.37,-49.9 0.97,-99.86 -0.7,-149.74 -0.8,-24.17 9.01,-34.33 30.83,-42.26 52.22,-18.99 103.27,-41.19 154.91,-61.8 20.62,-8.22 36.27,-21.12 25.91,-44.52 -10.56,-23.84 -30.37,-18.44 -50.39,-10.05 -50.91,21.35 -102.31,41.47 -153.93,62.26 -17.96,-66.82 -11.75,-79.86 41.44,-107.58 12.95,-6.77 27.57,-18.95 31.86,-31.83 6.83,-20.48 -14.56,-37.12 -36.55,-30.88 -12.14,3.45 -23.53,9.58 -39.74,16.36 -1.34,-11.41 -3.31,-20.88 -3.43,-30.4 -0.25,-21.17 -2.98,-42.3 -29.27,-42.77 -26.51,-0.47 -30.09,20.15 -29.82,41.7 0.12,10.09 -1.14,20.18 -2.09,35.36 -16.9,-7.05 -30.36,-12.36 -43.54,-18.25 -19.14,-8.58 -40.08,-10.37 -45.68,12.47 -2.83,11.52 10.84,28.31 19.61,40.94 3.97,5.74 14.23,7.05 21.49,10.6 56.88,27.7 60.11,34.98 44.6,107.48" /></g></g></svg>