<?xml version="1.0" encoding="utf-8"?>
<!-- Generator: Adobe Illustrator 16.0.3, SVG Export Plug-In . SVG Version: 6.00 Build 0)  -->
<!DOCTYPE svg PUBLIC "-//W3C//DTD SVG 1.1//EN" "http://www.w3.org/Graphics/SVG/1.1/DTD/svg11.dtd" [
	<!ENTITY ns_extend "http://ns.adobe.com/Extensibility/1.0/">
	<!ENTITY ns_ai "http://ns.adobe.com/AdobeIllustrator/10.0/">
	<!ENTITY ns_graphs "http://ns.adobe.com/Graphs/1.0/">
	<!ENTITY ns_vars "http://ns.adobe.com/Variables/1.0/">
	<!ENTITY ns_imrep "http://ns.adobe.com/ImageReplacement/1.0/">
	<!ENTITY ns_sfw "http://ns.adobe.com/SaveForWeb/1.0/">
	<!ENTITY ns_custom "http://ns.adobe.com/GenericCustomNamespace/1.0/">
	<!ENTITY ns_adobe_xpath "http://ns.adobe.com/XPath/1.0/">
]>
<svg version="1.1" xmlns:x="&ns_extend;" xmlns:i="&ns_ai;" xmlns:graph="&ns_graphs;"
	 xmlns="http://www.w3.org/2000/svg" xmlns:xlink="http://www.w3.org/1999/xlink" x="0px" y="0px" width="290.9px" height="290.9px"
	 viewBox="0 0 290.9 290.9" style="enable-background:new 0 0 290.9 290.9;" xml:space="preserve">
<style type="text/css">
<![CDATA[
	.st0{fill:#2F98C1;}
	.st1{fill:#FFFFFF;}
	.st2{display:none;}
	.st3{opacity:0.74;fill:#FFFFFF;}
]]>
</style>
<metadata>
	<sfw  xmlns="&ns_sfw;">
		<slices></slices>
		<sliceSourceBounds  width="290.9" height="290.9" y="-7" x="-20.8" bottomLeftOrigin="true"></sliceSourceBounds>
	</sfw>
</metadata>
<g id="Ebene_1">
	<path class="st0" d="M254.4,290.9H36.5C16.4,290.9,0,274.5,0,254.4V36.5C0,16.4,16.4,0,36.5,0h217.9c20.1,0,36.5,16.4,36.5,36.5
		v217.9C290.9,274.5,274.5,290.9,254.4,290.9z"/>
	<g>
		<path class="st1" d="M54.3,220.3v18.5c0,6.2,2.6,9.1,6.5,9.1c4.2,0,6.7-2.9,6.7-9.1v-18.5h5.8v18.1c0,9.8-5,14.1-12.6,14.1
			c-7.3,0-12.1-4.1-12.1-14.1v-18.1H54.3z"/>
		<path class="st1" d="M79.7,235.9c0-2.6,0-4.8-0.2-6.8h5.1l0.3,3.4H85c1-1.8,3.5-3.9,7.3-3.9c4,0,8.1,2.6,8.1,9.8V252h-5.8v-12.9
			c0-3.3-1.2-5.8-4.4-5.8c-2.3,0-3.9,1.6-4.5,3.4c-0.2,0.5-0.2,1.2-0.2,1.9V252h-5.8V235.9z"/>
		<path class="st1" d="M106.4,252c0.1-1.6,0.2-4.1,0.2-6.4v-26.9h5.8v13.6h0.1c1.4-2.2,3.9-3.7,7.3-3.7c5.6,0,9.6,4.7,9.5,11.6
			c0,8.2-5.2,12.3-10.4,12.3c-3,0-5.6-1.1-7.2-3.9h-0.1l-0.3,3.4H106.4z M112.3,242.5c0,0.5,0,0.9,0.1,1.4c0.6,2.3,2.6,4,5.1,4
			c3.6,0,5.8-2.9,5.8-7.5c0-4-1.9-7.3-5.8-7.3c-2.3,0-4.5,1.7-5.1,4.2c-0.1,0.4-0.2,0.9-0.2,1.5V242.5z"/>
		<path class="st1" d="M155.8,240.3c0,8.4-5.9,12.2-11.7,12.2c-6.5,0-11.5-4.5-11.5-11.8c0-7.5,4.9-12.1,11.8-12.1
			C151.3,228.6,155.8,233.4,155.8,240.3z M138.6,240.6c0,4.4,2.2,7.8,5.7,7.8c3.3,0,5.6-3.2,5.6-7.8c0-3.6-1.6-7.7-5.5-7.7
			C140.2,232.8,138.6,236.7,138.6,240.6z"/>
		<path class="st1" d="M163.5,229.1l2.7,4.3c0.8,1.2,1.4,2.3,2.1,3.5h0.1c0.7-1.3,1.3-2.4,2-3.6l2.5-4.2h6.3l-7.7,11l7.8,11.9h-6.5
			l-2.8-4.6c-0.8-1.2-1.4-2.4-2.1-3.7h-0.1c-0.7,1.3-1.3,2.4-2.1,3.7l-2.6,4.6h-6.4l7.9-11.7l-7.7-11.2H163.5z"/>
		<path class="st1" d="M189,222.7c0,1.7-1.3,3.1-3.3,3.1c-1.9,0-3.2-1.4-3.2-3.1c0-1.8,1.3-3.1,3.2-3.1
			C187.8,219.5,189,220.9,189,222.7z M182.9,252v-22.9h5.8V252H182.9z"/>
		<path class="st1" d="M194.9,235.9c0-2.6,0-4.8-0.2-6.8h5.1l0.3,3.4h0.1c1-1.8,3.5-3.9,7.3-3.9c4,0,8.1,2.6,8.1,9.8V252h-5.8v-12.9
			c0-3.3-1.2-5.8-4.4-5.8c-2.3,0-3.9,1.6-4.5,3.4c-0.2,0.5-0.2,1.2-0.2,1.9V252h-5.8V235.9z"/>
		<path class="st1" d="M242.7,229.1c-0.1,1.6-0.2,3.4-0.2,6.6v13c0,4.8-1,8.2-3.4,10.4c-2.4,2.1-5.7,2.8-8.8,2.8c-2.9,0-6-0.6-8-1.8
			l1.3-4.4c1.5,0.8,3.9,1.7,6.7,1.7c3.8,0,6.6-2,6.6-6.9v-2h-0.1c-1.3,2-3.7,3.4-6.7,3.4c-5.7,0-9.7-4.7-9.7-11.2
			c0-7.5,4.9-12.1,10.4-12.1c3.5,0,5.5,1.7,6.6,3.6h0.1l0.2-3.1H242.7z M236.7,238.3c0-0.5,0-1.1-0.2-1.6c-0.6-2.1-2.3-3.7-4.7-3.7
			c-3.2,0-5.6,2.8-5.6,7.5c0,3.9,2,7,5.6,7c2.2,0,4-1.4,4.7-3.5c0.1-0.6,0.2-1.4,0.2-2.1V238.3z"/>
	</g>
	<path class="st3" d="M147.9,122c6.1-7.9,12-15.5,17.9-23.2c1.5-1.9,2.7-4,4.4-5.6c1.4-1.3,3.5-2.7,5.3-2.7
		c22.8-0.2,45.6-0.1,68.4-0.1c0.2,0,0.5,0.2,1.4,0.6c-1,1.2-1.8,2.4-2.8,3.4c-6.9,7.3-13.9,14.6-20.6,22.1c-1.3,1.5-2.3,3.9-2.3,5.8
		c-0.2,18.3-0.2,33.2,0,51.6c0,4.1-1.4,9.4-5.4,10.4c-20.5,5.1-40.8,10.7-61.3,15.8c-3.1,0.8-6.7,0.8-9.8,0
		c-20.5-5.1-40.9-10.6-61.4-15.6c-4-1-5.4-7.9-5.4-12c0.2-18.3,0.2-31.5,0-49.9c0-2.1-1.1-4.6-2.5-6.2c-6.6-7.4-13.5-14.5-20.3-21.8
		c-0.9-1-1.8-2.1-3.3-3.8c1.8-0.2,3-0.4,4.1-0.4c21.5,0,43.1,0,64.6-0.1c3.3,0,5.5,1.1,7.5,3.7C133.4,103.3,140.6,112.4,147.9,122z
		 M86.4,179c20.2,5.3,40.2,10.5,60.7,15.8v-57.5c20.8-3.2,41.3-6.3,61.7-9.5c5.1-0.8,5.3-1.1,4.2-6.6c-0.9,0-1.9-0.1-2.8,0
		c-15.1,2.1-30.2,4.2-45.3,6.2c-7.5,1-15,2.8-22.4,2.4c-14.1-0.7-28.1-2.8-42.1-4.3c-5.8-0.6-11.5-1.1-17.5-1.7v50.6
		C82.8,176.6,84.3,178.5,86.4,179z"/>
	<path class="st1" d="M158.1,67.5c1.6-4.5,3.2-9,4.9-13.6c0.6,0.2,1.2,0.4,1.8,0.6c-2.2,6-3.6,9.8-4.9,13.5
		C159.2,67.9,158.6,67.7,158.1,67.5z"/>
	<path class="st1" d="M134.4,67.5c-1.3-4.5-2.6-9-3.8-13.5c0.6-0.2,1.2-0.3,1.8-0.5c1.1,3.9,2.1,7.7,3.8,13.6
		C135.6,67.2,135,67.3,134.4,67.5z"/>
	<path class="st1" d="M104,69.4c3,2.7,6.1,5.3,9.1,8c-0.4,0.4-0.7,0.8-1.1,1.3c-7.9-6.7-8.8-7.4-9.2-7.8
		C103.2,70.4,103.6,69.9,104,69.4z"/>
	<path class="st1" d="M182.7,78.4c2.5-2.6,4.9-5.2,7.4-7.9c0.4,0.4,0.8,0.8,1.3,1.2c-4.7,5-6.7,7.2-7.4,7.9
		C183.5,79.3,183.1,78.8,182.7,78.4z"/>
	<path class="st1" d="M82.8,174.4v-50.5c6,0.6,11.7,1.1,17.5,1.7c14,1.5,28,3.6,42.1,4.3c7.4,0.4,15-1.4,22.4-2.4
		c15.1-2,30.2-4.1,45.3-6.2c0.9-0.1,1.9,0,2.8,0c1.2,5.6,1,5.9-4.2,6.6c-20.4,3.1-40.9,6.3-61.7,9.5v57.5
		c-20.5-5.3-40.5-10.5-60.6-15.8C84.3,178.5,82.8,176.6,82.8,174.4z"/>
	<path class="st1" d="M136.4,26.3c0.7,6.9-1.3,13.9-2,12.8c-0.9-1.3-3.8-5.3-4.4-12.2c-0.7-6.9,1.2-14.2,2-12.8
		C132.9,15.6,135.7,19.4,136.4,26.3z"/>
	<path class="st1" d="M160,27c-1.1,7.3-4.8,14-5.2,12.6c-0.5-1.6-2.3-6.4-1.2-13.6c1.1-7.3,4.8-14.2,5.2-12.6
		C159.3,15.2,161.1,19.8,160,27z"/>
	<path class="st1" d="M182.5,34.4c-3.1,6.7-8.5,12.1-8.5,10.7c0-1.7-0.5-6.8,2.6-13.4C179.6,25,185,19.3,185,21
		C185.1,22.8,185.5,27.8,182.5,34.4z"/>
	<path class="st1" d="M115.7,31.3c2.9,6.7,3.3,14.4,2.3,13.5c-1.3-1.1-5.3-4.2-8.2-10.9c-2.9-6.7-3.5-14.6-2.3-13.5
		C108.8,21.6,112.8,24.5,115.7,31.3z"/>
	<path class="st1" d="M199.3,46.9c-4,4.9-10,8-9.8,6.7c0.3-1.5,0.8-6,4.8-10.9c4-4.9,10.1-8.2,9.8-6.7
		C203.8,37.6,203.4,42.1,199.3,46.9z"/>
	<path class="st1" d="M90.1,46.2c-4.2-4.7-6.4-11.1-5.2-10.7c1.4,0.5,5.8,1.6,10.1,6.3c4.2,4.7,6.6,11.2,5.2,10.7
		C98.6,52,94.3,50.9,90.1,46.2z"/>
	<path class="st1" d="M75.3,64.7c-4-3.2-6.3-8.4-5.3-8.3c1.3,0.1,5.3,0,9.3,3.2c4,3.2,6.5,8.4,5.3,8.3
		C83.2,67.8,79.3,67.9,75.3,64.7z"/>
	<path class="st1" d="M210.6,58.1c4.1-3.2,9.7-4.2,9.3-3.2c-0.4,1.2-1.3,5.1-5.4,8.3c-4.1,3.2-9.7,4.4-9.3,3.2
		C205.7,65,206.5,61.2,210.6,58.1z"/>
</g>
<g id="Ebene_2" class="st2">
</g>
<g id="Ebene_3">
</g>
</svg>
