<?xml version="1.0" encoding="UTF-8"?>
<svg xmlns="http://www.w3.org/2000/svg" xmlns:xlink="http://www.w3.org/1999/xlink" width="24px" height="24px" version="1.1" viewBox="0 0 24 24">
<!--Generator: Sketch 55.1 (78136) - https://sketchapp.com-->
    <title>
        round-expand-24px
    </title>
    <desc>
        Created with Sketch.
    </desc>
    <g id="round-expand-24px" fill="none" fill-rule="evenodd" stroke="none" stroke-width="1">
        <g>
            <polygon id="Path" points="0 0 24 0 24 24 0 24"/>
            <rect id="Rectangle" width="24" height="24" x="0" y="0"/>
            <path id="Path" fill="#fff" fill-rule="nonzero" d="M12.6881009,8.51363664 L8.5216579,12.6381621 L4.35521495,8.51363664 C3.936423,8.09905806 3.25991293,8.09905806 2.84112099,8.51363664 C2.42232904,8.92821523 2.42232904,9.5979191 2.84112099,10.0124977 L7.76998005,14.8917688 C8.18877199,15.3063473 8.86528206,15.3063473 9.28407401,14.8917688 L14.2129331,10.0124977 C14.631725,9.5979191 14.631725,8.92821523 14.2129331,8.51363664 C13.7941411,8.10968828 13.1068928,8.09905806 12.6881009,8.51363664 L12.6881009,8.51363664 Z" transform="translate(8.527027, 11.702703) rotate(90.000000) translate(-8.527027, -11.702703) "/>
            <path id="Path" fill="#fff" fill-rule="nonzero" d="M18.6881009,8.51363664 L14.5216579,12.6381621 L10.3552149,8.51363664 C9.936423,8.09905806 9.25991293,8.09905806 8.84112099,8.51363664 C8.42232904,8.92821523 8.42232904,9.5979191 8.84112099,10.0124977 L13.76998,14.8917688 C14.188772,15.3063473 14.8652821,15.3063473 15.284074,14.8917688 L20.2129331,10.0124977 C20.631725,9.5979191 20.631725,8.92821523 20.2129331,8.51363664 C19.7941411,8.10968828 19.1068928,8.09905806 18.6881009,8.51363664 L18.6881009,8.51363664 Z" transform="translate(14.527027, 11.702703) rotate(90.000000) translate(-14.527027, -11.702703) "/>
        </g>
    </g>
</svg>
