<?xml version="1.0" encoding="UTF-8" standalone="no"?>
<!DOCTYPE svg PUBLIC "-//W3C//DTD SVG 1.1//EN" "http://www.w3.org/Graphics/SVG/1.1/DTD/svg11.dtd">
<svg xmlns="http://www.w3.org/2000/svg" xmlns:serif="http://www.serif.com/" xmlns:xlink="http://www.w3.org/1999/xlink" width="100%" height="100%" style="fill-rule:evenodd;clip-rule:evenodd;stroke-linejoin:round;stroke-miterlimit:1.41421" version="1.1" viewBox="0 0 24 24" xml:space="preserve">
    <path d="M3,13l2,0l0,-2l-2,0l0,2Zm0,4l2,0l0,-2l-2,0l0,2Zm0,-8l2,0l0,-2l-2,0l0,2Zm4,4l14,0l0,-2l-14,0l0,2Zm0,4l14,0l0,-2l-14,0l0,2Zm0,-10l0,2l14,0l0,-2l-14,0Zm-4,6l2,0l0,-2l-2,0l0,2Zm0,4l2,0l0,-2l-2,0l0,2Zm0,-8l2,0l0,-2l-2,0l0,2Zm4,4l14,0l0,-2l-14,0l0,2Zm0,4l14,0l0,-2l-14,0l0,2Zm0,-10l0,2l14,0l0,-2l-14,0Z" style="fill:#b00b39;fill-rule:nonzero"/>
</svg>
