<?xml version="1.0" encoding="utf-8"?>
<!-- Generator: Adobe Illustrator 16.0.3, SVG Export Plug-In . SVG Version: 6.00 Build 0)  -->
<!DOCTYPE svg PUBLIC "-//W3C//DTD SVG 1.1//EN" "http://www.w3.org/Graphics/SVG/1.1/DTD/svg11.dtd">
<svg version="1.1" id="Ebene_1" xmlns="http://www.w3.org/2000/svg" xmlns:xlink="http://www.w3.org/1999/xlink" x="0px" y="0px"
	 width="66.857px" height="66.748px" viewBox="0 0 66.857 66.748" enable-background="new 0 0 66.857 66.748" xml:space="preserve">
<title>btn_boese</title>
<path opacity="0" fill="#7F7F7F" d="M66.747,3.115c0-1.78-1.335-3.115-3.114-3.115H3.115C1.335,0,0,1.335,0,3.115v60.629
	c0,1.668,1.335,3.004,3.115,3.004h60.628c1.669,0,3.114-1.336,3.114-3.114V3.115H66.747z"/>
<polygon fill="#EE9E55" points="22.806,14.017 15.352,14.017 15.352,6.564 11.013,6.564 11.013,14.017 3.561,14.017 3.561,18.356 
	11.013,18.356 11.013,25.809 15.352,25.809 15.352,18.356 22.806,18.356 "/>
<rect x="14.178" y="30" fill="#FFFFFF" stroke="#000000" stroke-width="1.9924" stroke-miterlimit="10" width="47" height="27"/>
</svg>
