<svg id="Ebene_1" data-name="Ebene 1" xmlns="http://www.w3.org/2000/svg" width="21.17mm" height="21.17mm" viewBox="0 0 60 60"><defs><style>.cls-1{fill:#ee9e55;}.cls-2{fill:none;stroke:#53bc48;stroke-miterlimit:10;stroke-width:6px;}.cls-3{fill:#53bc48;}</style></defs><title>btn_cam</title><polygon class="cls-1" points="20.54 12.6 13.79 12.6 13.79 5.85 9.92 5.85 9.92 12.6 3.17 12.6 3.17 16.48 9.92 16.48 9.92 23.23 13.79 23.23 13.79 16.48 20.54 16.48 20.54 12.6"/><line class="cls-2" x1="47.6" y1="15.11" x2="18.5" y2="44.21"/><polygon class="cls-3" points="55.73 7.02 39.46 11 51.76 23.29 55.73 7.02"/><path d="M36.37,38.13l-1.06-1.07,5-2.39c1-1,1.26-2.26.64-2.88L31,21.86c-.62-.61-1.9-.33-2.88.65l-2.41,5-1.05-1a3.31,3.31,0,0,0-4.68,0l-14,14a3.31,3.31,0,0,0,0,4.68L17.66,56.84a3.31,3.31,0,0,0,4.68,0l14-14A3.3,3.3,0,0,0,36.37,38.13Z"/></svg>