<svg id="Ebene_1" data-name="Ebene 1" xmlns="http://www.w3.org/2000/svg" width="21.17mm" height="21.17mm" viewBox="0 0 60 60"><defs><style>.cls-1{fill:#ee9e55;}.cls-2{fill:#fff;}.cls-3{fill:#39c;}</style></defs><title>btn_freehand</title><polygon class="cls-1" points="20.54 12.6 13.79 12.6 13.79 5.85 9.92 5.85 9.92 12.6 3.17 12.6 3.17 16.48 9.92 16.48 9.92 23.23 13.79 23.23 13.79 16.48 20.54 16.48 20.54 12.6"/><path class="cls-2" d="M42.79,19.24l-20.9,20.9c-.7.7-.35,2.18.79,3.32S25.3,45,26,44.25l20.9-20.9Z"/><path class="cls-2" d="M48.89,25.34,28,46.24a1.79,1.79,0,0,0,2.53,2.53l20.9-20.9Z"/><path class="cls-2" d="M38.27,14.72l-20.9,20.9a1.79,1.79,0,1,0,2.53,2.53l20.9-20.9Z"/><path class="cls-2" d="M55.27,17.61l-6.74-6.74c-1.77-1.77-5.36-1-8,1.61-.22.22-.42.45-.62.68L53,26.24c.23-.19.46-.39.68-.61C56.32,23,57,19.38,55.27,17.61Z"/><polygon class="cls-3" points="11.87 49.89 10.39 55.3 15.81 53.83 11.87 49.89"/><path class="cls-2" d="M15.78,53.83l10.94-3-4-4,0,0A2.7,2.7,0,0,1,18.85,43l0,0-4-4-3,10.94Z"/></svg>